<?xml version="1.0" encoding="UTF-8" standalone="no"?>
<svg
   version="1.2"
   viewBox="0 0 219.2126 219.2126"
   width="58mm"
   height="58mm"
   id="svg1"
   sodipodi:docname="BenšíRoleTokenLaser.svg"
   inkscape:version="1.4.2 (f4327f4, 2025-05-13)"
   xml:space="preserve"
   xmlns:inkscape="http://www.inkscape.org/namespaces/inkscape"
   xmlns:sodipodi="http://sodipodi.sourceforge.net/DTD/sodipodi-0.dtd"
   xmlns="http://www.w3.org/2000/svg"
   xmlns:svg="http://www.w3.org/2000/svg"><sodipodi:namedview
     id="namedview1"
     pagecolor="#ffffff"
     bordercolor="#666666"
     borderopacity="1.0"
     inkscape:showpageshadow="2"
     inkscape:pageopacity="0.0"
     inkscape:pagecheckerboard="0"
     inkscape:deskcolor="#d1d1d1"
     inkscape:zoom="5.6568543"
     inkscape:cx="68.854523"
     inkscape:cy="43.575455"
     inkscape:window-width="1920"
     inkscape:window-height="1027"
     inkscape:window-x="-8"
     inkscape:window-y="440"
     inkscape:window-maximized="1"
     inkscape:current-layer="layer2"
     inkscape:document-units="mm"
     showgrid="false" /><defs
     id="defs1"><clipPath
       clipPathUnits="userSpaceOnUse"
       id="cp1"><path
         d="m 275.5,535.5 c -143.78,0 -260,-116.22 -260,-260 0,-143.78 116.22,-260 260,-260 143.78,0 260,116.22 260,260 0,143.78 -116.22,260 -260,260 z"
         id="path1" /></clipPath></defs><style
     id="style1">
		tspan { white-space:pre } 
		.s0 { fill: none;stroke: #ff0000;stroke-miterlimit:100 } 
	</style><g
     inkscape:groupmode="layer"
     id="layer2"
     inkscape:label="Content"><g
       inkscape:groupmode="layer"
       id="layer4"
       inkscape:label="Kruh"
       style="display:inline"><path
         id="path2"
         style="fill:none;stroke:#000000;stroke-width:0.189192"
         d="M 219.118,109.6063 A 109.5117,109.5117 0 0 1 109.6063,219.118 109.5117,109.5117 0 0 1 0.09459686,109.6063 109.5117,109.5117 0 0 1 109.6063,0.09459686 109.5117,109.5117 0 0 1 219.118,109.6063 Z"
         inkscape:label="Vnejsi kruh" /><path
         id="circle2"
         style="fill:none;stroke:#000000;stroke-width:0.188976"
         d="M 208.69732,109.6063 A 99.091019,99.091019 0 0 1 109.6063,208.69732 99.091019,99.091019 0 0 1 10.515282,109.6063 99.091019,99.091019 0 0 1 109.6063,10.515282 99.091019,99.091019 0 0 1 208.69732,109.6063 Z"
         inkscape:label="Vnitrni kruh" /></g><g
       id="text2-9"
       inkscape:label="Text"
       style="opacity:1" /><path
       id="path4"
       style="font-size:41.5223px;font-family:'New Rocker';-inkscape-font-specification:'New Rocker';letter-spacing:0.769167px;baseline-shift:baseline;white-space:pre;display:inline;overflow:visible;opacity:1;enable-background:accumulate;stop-color:#000000;stop-opacity:1;fill:none;stroke:#000000;stroke-opacity:1;stroke-width:0.18897638;stroke-dasharray:none"
       d="m 154.95103,145.49248 -0.95508,1.91016 c -0.22727,0.45455 -0.529,0.99407 -0.90234,1.60742 l -0.0117,0.0176 -0.01,0.0176 c -0.34559,0.61143 -0.71857,1.22565 -1.11914,1.83984 l -0.004,0.006 -0.004,0.006 c -0.38545,0.60572 -0.7579,1.18268 -1.11523,1.73242 l -0.0117,0.0215 -0.0137,0.0195 c -0.33385,0.5564 -0.59851,1.00368 -0.79688,1.34375 l -0.57422,0.98242 0.89063,0.71289 c 0.36774,0.2942 0.60749,0.53748 0.69531,0.65039 l 0.0508,0.0664 0.0586,0.0566 c 0.27977,0.27978 0.63547,0.58736 1.09765,0.96289 l 0.5918,0.48242 v 1.77344 c -0.8527,0.15827 -1.65231,0.29018 -2.39649,0.39648 l -1.13281,0.16211 v 2.46875 l 1.53516,0.66406 v 6.41407 h -3.16211 c 0.0206,-0.66126 0.0506,-1.21144 0.0879,-1.64649 l 0.13086,-1.53515 -1.53906,0.10546 c -1.1981,0.0836 -2.24473,0.1676 -3.14454,0.25196 -0.90701,0.085 -1.73518,0.18522 -2.48632,0.30078 h -0.004 l -0.004,0.002 c -0.71982,0.11517 -1.38884,0.24521 -2.00781,0.39258 l -0.006,0.002 -0.008,0.002 c -0.0373,0.009 -0.0722,0.0237 -0.10938,0.0332 -0.0208,-0.47047 -0.0352,-0.93975 -0.0352,-1.41016 v -0.68554 c 0.43723,0.15652 0.87466,0.31095 1.3125,0.44922 l 0.01,0.002 0.01,0.004 c 0.60583,0.18176 1.20164,0.31906 1.79102,0.41211 0.5788,0.0914 1.11593,0.14258 1.61914,0.14258 1.18702,0 2.32416,-0.36052 3.20703,-1.08984 l 0.0117,-0.0117 0.0137,-0.0117 c 0.86144,-0.74909 1.50529,-1.79379 2.05273,-3.10156 l 0.71094,-1.69336 -1.83203,-0.13281 c -2.81096,-0.20239 -4.99577,-0.6355 -6.49805,-1.20899 v -2.12695 c 1.78828,-1.89698 3.15889,-3.36171 4.1211,-4.40625 l 0.0137,-0.0137 c 0.98721,-1.0421 1.67957,-1.77668 2.07031,-2.19532 l 0.9707,-1.04101 -1.11133,-0.88867 c -0.39287,-0.31431 -0.68257,-0.57125 -0.8457,-0.73438 -0.24089,-0.24089 -0.56695,-0.55207 -0.98828,-0.94531 l -0.83008,-0.77344 -0.89062,0.70313 c -0.65235,0.51643 -1.36026,1.06309 -2.125,1.63672 -0.48059,0.35599 -0.92965,0.68106 -1.38672,1.01367 -0.47321,-0.33136 -0.94086,-0.65513 -1.4375,-1.00977 l -0.0137,-0.01 c -0.004,-0.003 -0.006,-0.005 -0.01,-0.008 -0.75096,-0.56374 -1.4338,-1.10063 -2.04492,-1.60546 l -0.86524,-0.71485 -0.84375,0.74024 c -0.45461,0.39779 -0.80021,0.71232 -1.06054,0.97265 -0.14934,0.14934 -0.4423,0.41796 -0.84571,0.76758 l -1.07031,0.92773 1.00196,1.00196 c 0.95552,0.95552 1.95424,1.99504 2.99609,3.11914 l 0.0117,0.0137 0.0117,0.0117 c 1.05645,1.08354 2.10015,2.23608 3.13281,3.45898 l 0.29492,0.34766 v 1.28906 l -0.17578,0.0742 c -1.79751,0.76258 -3.28276,1.31463 -4.42578,1.65234 -1.11897,0.33061 -2.12986,0.48633 -3.03125,0.48633 h -1.84961 l 0.60351,1.75 c 0.24267,0.70377 0.41668,1.48218 0.51758,2.33985 l 0.002,0.0195 0.004,0.0176 c 0.12622,0.85823 0.19336,1.8911 0.19336,3.08789 0,0.43446 -0.0109,0.92416 -0.0312,1.46875 h -3.60156 c 0.006,-0.33308 0.0133,-0.64318 0.0215,-0.93164 0.0273,-0.95488 0.055,-1.75581 0.082,-2.40821 0.0519,-0.61824 0.10356,-1.11724 0.15235,-1.48828 0.0747,-0.39321 0.16057,-0.76024 0.25586,-1.09375 l 0.30664,-1.07422 -1.00977,-0.48047 c -0.55165,-0.26269 -1.02951,-0.50862 -1.43554,-0.73632 -0.40884,-0.25593 -0.8042,-0.51057 -1.1875,-0.76563 l -0.006,-0.004 c -0.34864,-0.24928 -0.69988,-0.52641 -1.05469,-0.83007 -0.003,-0.003 -0.006,-0.005 -0.01,-0.008 -0.3758,-0.34913 -0.78741,-0.73408 -1.24218,-1.16211 l -0.95704,-0.90234 -0.90625,0.95508 c -0.96518,1.0188 -1.89565,1.89476 -2.7871,2.62891 -0.30222,0.24888 -0.70558,0.50324 -1.03711,0.7539 v -1.2207 l -1.43946,-2.39844 -0.94922,0.23828 c -0.86099,0.21525 -1.85211,0.44535 -2.96289,0.68946 -1.11638,0.21783 -2.14712,0.39462 -3.08984,0.52929 l -1.13281,0.16211 v 2.46875 l 1.53515,0.66406 v 6.41407 h -2.42968 c -0.13102,-0.36002 -0.26141,-0.81154 -0.38282,-1.34571 -0.12806,-0.56348 -0.23058,-1.15718 -0.30859,-1.78125 -0.0807,-0.64511 -0.14937,-1.2887 -0.20313,-1.93359 v -0.004 c -0.0528,-0.66107 -0.0781,-1.26251 -0.0781,-1.80078 0,-0.69852 0.042,-1.25962 0.10742,-1.65234 l 0.2461,-1.48438 -1.50391,-0.0508 c -1.60403,-0.0544 -3.22311,-0.14947 -4.855473,-0.28515 -0.0086,-8.6e-4 -0.01294,-9.6e-4 -0.02148,-0.002 -1.621346,-0.1627 -2.979382,-0.35345 -4.050781,-0.5625 l -0.689453,-0.13476 -0.496094,0.49804 c -0.91108,0.91108 -1.820506,1.6509 -2.72461,2.22852 l -0.0078,0.004 -0.0078,0.006 c -0.82024,0.53901 -1.723899,0.90016 -2.753906,1.09179 l -1.451172,0.27149 0.429688,1.41015 c 0.165847,0.54493 0.354591,1.39274 0.542969,2.4961 l 0.002,0.0176 0.0039,0.0195 c 0.157028,0.78513 0.258476,1.78821 0.292969,2.99414 h -3.794922 c 0.112152,-1.38531 0.410586,-2.64048 0.886719,-3.78321 l 0.255859,-0.61523 -0.921875,-1.53711 -0.873047,0.13086 c -0.48023,0.072 -1.010554,0.11133 -1.589844,0.11133 -0.350999,0 -0.688882,-0.0462 -1.035156,-0.0625 0.807822,-0.45692 1.575526,-0.87192 2.115234,-1.0918 l 1.123047,-0.45703 -0.361328,-1.1582 c -0.257236,-0.82316 -0.4337,-1.59566 -0.533203,-2.31446 -0.103617,-0.77712 -0.154297,-1.52214 -0.154297,-2.23437 v -0.73047 c 0.01098,-0.10872 0.02225,-0.20843 0.0332,-0.3125 0.15447,-0.16478 0.361924,-0.28109 0.476563,-0.4707 0.225047,-0.35617 0.421177,-0.72922 0.583984,-1.11719 0.178776,-0.3912 0.323053,-0.78258 0.425781,-1.17383 v -0.002 c 6.89e-4,-0.003 0.0013,-0.005 0.002,-0.008 0.107287,-0.34849 0.201654,-0.64205 0.279296,-0.875 l 0.673829,-2.02539 -2.113282,0.30079 c -0.361377,0.0516 -0.706299,0.09 -1.035156,0.11523 -0.323755,0.0249 -0.663397,0.0391 -1.019531,0.0391 -0.884208,0 -1.85551,-0.11321 -2.908203,-0.34375 -1.051394,-0.26387 -2.04754,-0.56379 -2.986328,-0.90234 l -0.002,-0.002 h -0.002 c -8.25e-4,-1.5e-4 -0.005,-0.002 -0.0059,-0.002 h -0.002 c -0.919273,-0.34193 -1.722217,-0.69458 -2.40625,-1.04883 -0.0023,-10e-4 -0.0055,-0.003 -0.0078,-0.004 -0.654778,-0.35516 -1.085828,-0.67567 -1.126953,-0.7168 l -0.828125,-0.82812 -0.921875,0.72461 c -1.066065,0.83761 -2.06602,1.38662 -2.988281,1.6875 -0.94027,0.28805 -1.963822,0.4375 -3.087891,0.4375 -0.769885,0 -1.556908,-0.051 -2.359375,-0.1543 h -0.0059 c -0.818253,-0.10915 -1.664347,-0.23247 -2.539063,-0.36914 l -1.683593,-0.26367 0.166015,1.69726 c 0.15387,1.56949 0.550384,2.88402 1.382813,3.875 l 0.0098,0.0117 0.0098,0.0117 c 0.570011,0.64774 1.38355,1.01192 2.179687,1.38476 0.156918,0.56554 0.305679,1.15596 0.414063,1.84961 0.127077,0.8133 0.191406,1.67212 0.191406,2.57813 0,0.911 -0.08759,1.82266 -0.265625,2.73828 l -0.0039,0.0176 -0.002,0.0176 c -0.142958,0.85774 -0.412053,1.63661 -0.810547,2.36328 l -0.333984,0.60742 0.310546,0.61914 c 0.06758,0.13517 0.173673,0.42463 0.269532,0.83203 l 0.0098,0.0469 0.01367,0.0449 c 0.121595,0.3891 0.236584,0.84307 0.339844,1.35937 l 0.002,0.008 0.002,0.006 c 0.100629,0.47798 0.175753,0.97039 0.226563,1.47851 0.05189,0.51896 0.07617,0.97537 0.07617,1.36328 0,0.55438 -0.06885,1.18328 -0.21875,1.88281 l -0.0039,0.0176 -0.0039,0.0195 c -0.117264,0.63323 -0.314743,1.23872 -0.597656,1.82813 l -0.0098,0.0195 -0.0098,0.0195 c -0.252604,0.5741 -0.567952,1.0758 -0.947266,1.52539 -0.324185,0.35949 -0.649301,0.56922 -1.050781,0.69141 l -1.496094,0.45508 1.107422,2.21484 0.724609,0.0723 c 1.055251,0.10552 2.139953,0.27803 3.257813,0.51757 1.109462,0.23775 2.191549,0.54106 3.246094,0.91016 l 0.0059,0.002 h 0.0039 c 1.066552,0.36419 2.076177,0.80524 3.033203,1.32227 l 0.002,0.002 h 0.002 c 0.967875,0.53579 1.854822,1.15739 2.666015,1.86719 l 0.929688,0.8125 0.873047,-0.87305 c 0.828649,-0.82865 1.735035,-1.51198 2.732422,-2.06054 1.040671,-0.57237 2.071634,-1.02133 3.09375,-1.35352 l 0.0098,-0.004 0.0098,-0.002 c 1.083706,-0.37004 2.102841,-0.64377 3.05664,-0.82422 l 0.01758,-0.004 0.01563,-0.004 c 1.012514,-0.21892 1.898141,-0.39462 2.652344,-0.5293 l 1.025391,-0.18359 -0.150391,0.24414 h 2.361328 c 0.376056,0 0.933142,0.0567 1.628907,0.18555 l 0.0039,0.002 h 0.0039 c 0.717802,0.12818 1.453028,0.30897 2.207031,0.54297 l 0.02539,0.008 0.02734,0.006 c 0.770478,0.20546 1.512691,0.46275 2.228515,0.76953 h 0.002 v 0.002 h 0.002 l 0.002,0.002 h 0.002 l 2.787109,1.10547 2.207031,-1.01758 c 0.479915,-0.17088 0.95764,-0.34274 1.46875,-0.5 l 0.0215,-0.008 0.0215,-0.008 c 0.6626,-0.22936 1.32289,-0.40517 1.97852,-0.53125 l 0.0234,-0.006 0.0234,-0.004 c 0.68237,-0.1575 1.25742,-0.25913 1.70899,-0.30664 l 1.6875,-0.17774 -0.58594,-1.58984 c -0.1617,-0.4389 -0.27428,-0.87021 -0.34375,-1.29688 -0.0462,-0.4796 -0.0742,-1.17169 -0.0742,-2.06836 v -0.9121 c 0,-0.29554 0.0125,-0.59276 0.0371,-0.88868 l 0.16016,-1.92578 -1.85157,0.55274 c -1.43321,0.42691 -2.57676,0.98444 -3.38281,1.87109 l -0.01,0.0117 -0.0117,0.0137 c -0.403226,0.4669 -0.532987,1.09503 -0.761715,1.66992 -0.170821,-0.0156 -0.295676,-0.0238 -0.488281,-0.043 -0.525573,-0.0787 -1.065309,-0.15568 -1.615234,-0.23437 l -0.01758,-0.004 c -0.562199,-0.10719 -1.0961,-0.21358 -1.603516,-0.32031 -0.04737,-0.0105 -0.06423,-0.0206 -0.109375,-0.0312 0.03263,-0.31861 0.0589,-0.5855 0.09766,-0.94727 0.04762,-0.44446 0.06366,-0.90312 0.09375,-1.35546 1.32431,-0.20966 2.655204,-0.41486 4.033203,-0.58985 l 0.0098,-0.002 0.0098,-0.002 c 1.718768,-0.24554 3.409128,-0.43611 5.070318,-0.57227 l 1.16992,-0.0957 h 2.36523 v 5.46679 c 0,0.64939 -0.10767,1.06887 -0.1914,1.23633 l -0.01,0.0156 -0.006,0.0156 c -0.0596,0.12766 -0.0925,0.16561 -0.10351,0.17383 h -0.002 v 0.002 h -0.002 v -0.002 l -0.80664,0.33594 v 2.82226 h 10.28125 v -2.86132 l -0.8418,-0.31055 c -0.0122,-0.0223 -0.0388,-0.0765 -0.082,-0.19336 -0.10115,-0.27347 -0.19726,-0.83168 -0.19726,-1.60938 v -8.07031 l 3.00586,-1.34375 v 3.5293 0.0117 c 0.0275,1.57013 0.043,3.1408 0.043,4.71093 0,0.22446 -0.0259,0.71199 -0.0801,1.38868 -0.0545,0.68157 -0.12276,1.43459 -0.20508,2.25781 -0.0799,0.77162 -0.18713,1.54396 -0.32031,2.31641 v 0.004 0.004 c -0.13216,0.79291 -0.27704,1.4358 -0.41993,1.91211 l -0.22656,0.75586 1.77344,1.77343 0.93164,-1 c 0.35474,-0.38007 0.76804,-0.78144 1.24023,-1.20117 0.46822,-0.41618 0.96491,-0.82012 1.48828,-1.21289 l 0.002,-0.002 h 0.002 l 0.002,-0.002 c 0.54284,-0.3868 1.0709,-0.7332 1.58008,-1.03907 0.5145,-0.29284 1.00613,-0.51972 1.46875,-0.68164 l 1.08203,-0.3789 -0.22461,-1.125 c -0.0524,-0.26246 -0.1053,-0.53992 -0.1582,-0.83008 -0.0436,-0.26177 -0.0835,-0.63771 -0.10937,-1.10352 -0.0263,-0.4726 -0.0533,-1.09243 -0.0801,-1.83594 v -0.002 -3.0293 c 0,-0.3104 6.5e-4,-0.61047 0.002,-0.89843 h 3.50977 c -0.029,0.35801 -0.063,0.75616 -0.10352,1.1914 l -0.17578,1.90039 0.0234,-0.006 c -0.36908,0.58743 -0.73985,1.17074 -0.99024,1.92188 l -0.004,0.0117 -0.004,0.0117 c -0.30557,0.97773 -0.49214,1.95375 -0.55469,2.92383 l -0.0859,1.33203 1.33203,0.0703 c 0.99414,0.0537 1.84266,0.13569 2.53515,0.23828 l 0.0234,0.004 0.0234,0.002 c 0.68697,0.0763 1.26371,0.18966 1.71875,0.32617 l 0.0293,0.008 0.0293,0.008 c 0.46325,0.11581 0.82281,0.26035 1.07813,0.40625 l 0.0156,0.01 0.0176,0.008 c 0.32254,0.17202 0.60189,0.37058 0.84961,0.59766 l 0.78516,0.71875 0.86914,-0.61328 c 0.36267,-0.25601 0.85386,-0.51811 1.47265,-0.76563 0.62725,-0.25089 1.31305,-0.468 2.06055,-0.64843 0.75087,-0.18125 1.54625,-0.32658 2.38672,-0.43164 0.83376,-0.10422 1.65176,-0.1543 2.45312,-0.1543 h 1.63672 l -0.34765,-1.60156 c -0.10899,-0.50122 -0.20815,-1.38138 -0.26172,-2.5586 v -0.002 c -0.0542,-1.22058 -0.082,-2.61409 -0.082,-4.17578 0,-0.2523 3.1e-4,-0.49705 0.002,-0.73242 h 3.19336 v 5.42383 c 0,1.95751 0.56028,3.76825 1.66992,5.26953 l 0.39648,0.53515 h 1.06641 l 0.18555,-0.0547 c 0.8124,-0.24372 1.59604,-0.46006 2.34961,-0.64844 0.73204,-0.18301 1.524,-0.34164 2.375,-0.47461 l 1.11718,-0.17578 v -2.66992 l -0.84179,-0.31055 c -0.0127,-0.0227 -0.0392,-0.0775 -0.082,-0.19336 -0.10115,-0.27347 -0.19727,-0.83168 -0.19727,-1.60938 v -15.60351 l -1.43945,-2.39844 -0.94922,0.23828 c -0.57962,0.14491 -1.21774,0.29697 -1.91211,0.45508 v -2.54297 c 0.3374,-0.33149 0.68545,-0.66916 1.04492,-1.01172 0.60752,-0.55229 1.18646,-1.07757 1.73828,-1.57422 0.53286,-0.47956 1.01959,-0.88573 1.45508,-1.21875 l 0.0195,-0.0156 0.0176,-0.0137 c 0.45378,-0.3737 0.7986,-0.63591 0.97266,-0.75196 l 1.77734,-1.18554 -1.85352,-1.0586 c -0.14633,-0.0836 -0.42632,-0.25486 -0.78125,-0.48242 -0.3422,-0.26254 -0.70618,-0.53573 -1.09375,-0.82031 l -0.0156,-0.0117 c -0.007,-0.005 -0.0124,-0.0104 -0.0195,-0.0156 -0.35414,-0.27888 -0.6947,-0.56022 -1.02344,-0.8379 -0.28362,-0.26174 -0.48361,-0.47879 -0.56836,-0.59179 z m -84.539064,10.36133 c 0.707007,0.24011 1.387464,0.55649 2.126953,0.70117 h 0.002 0.002 c 0.966691,0.18513 2.115398,0.23558 3.238281,0.30469 -0.01487,0.22525 -0.0332,0.44902 -0.0332,0.68359 v 1.31836 l 0.002,0.0312 c 0.01231,0.25853 0.02466,0.40846 0.03711,0.6211 -0.856329,0.66209 -1.740923,1.27636 -2.744141,1.72461 l -0.0059,0.002 -0.0039,0.002 c -0.744341,0.33981 -1.734421,0.59153 -2.658203,0.86719 v -1.36914 -3.32227 c 0,-0.51467 0.0249,-1.0433 0.03711,-1.56445 z m 25.310546,9.75391 c 0.274188,0.0526 0.52119,0.12953 0.804688,0.17383 l 0.02148,0.004 0.02344,0.002 c 0.476786,0.0578 0.831572,0.0584 1.246093,0.0879 0.02182,0.27055 0.01833,0.54785 0.05469,0.81445 l 0.0039,0.0293 0.0039,0.0293 c 0.0338,0.1859 0.07885,0.35367 0.115235,0.53516 l -2.089844,0.51758 c -0.02346,-0.31122 -0.03171,-0.58565 -0.0625,-0.91407 -0.02378,-0.3747 -0.0835,-0.86166 -0.121094,-1.27929 z m -25.5625,3.14062 c 0.220201,0.0441 0.488211,0.0891 0.689454,0.13282 l 0.02734,0.006 0.02734,0.004 c 0.596913,0.10381 1.179863,0.23372 1.748047,0.38867 l 0.0059,0.002 0.0078,0.002 c 0.606535,0.15822 1.228918,0.34388 1.867187,0.55664 l 0.03125,0.01 0.03125,0.0117 c 0.425622,0.11918 0.975514,0.28327 1.490235,0.43555 0.04063,0.85865 0.08046,1.71626 0.121093,2.58984 v 0.0156 l 0.002,0.0137 c 0.05794,0.83044 0.150316,1.48759 0.236328,2.17383 -0.589313,0.25312 -1.21639,0.50454 -1.685547,0.75781 -0.495974,0.24888 -1.014571,0.61556 -1.529297,0.95899 -0.09553,-0.0539 -0.16725,-0.10509 -0.269531,-0.16016 -0.395391,-0.2129 -0.804168,-0.41077 -1.226563,-0.5918 -0.386706,-0.16573 -0.775728,-0.31664 -1.164062,-0.45703 l -0.0293,-0.0117 c -0.102259,-0.0436 -0.182322,-0.0645 -0.279297,-0.10351 -0.0683,-0.48147 -0.145942,-0.98557 -0.179688,-1.38867 v -0.002 -0.002 l -0.002,-0.002 v -0.002 -0.002 c -0.02542,-0.62977 -0.03711,-1.33743 -0.03711,-2.13281 0,-0.7028 0.01372,-1.47798 0.04102,-2.32422 0.02048,-0.31383 0.05197,-0.58126 0.07617,-0.87891 z m 14.212891,2.80274 h 3.839844 c -0.01284,0.40912 -0.03461,0.84566 -0.06641,1.30664 v 0.0215 l -0.002,0.0234 c -0.0261,0.75681 -0.09143,1.49744 -0.195312,2.22461 l -0.002,0.0215 -0.002,0.0195 c -0.07704,0.69341 -0.193568,1.34032 -0.34375,1.94141 v 0.002 c -0.144197,0.54778 -0.308458,0.93557 -0.423829,1.12305 l -0.599609,0.97461 -0.619141,-1.01172 c -0.248305,-0.40632 -0.473081,-0.88697 -0.667968,-1.44726 -0.203126,-0.584 -0.382315,-1.19705 -0.53711,-1.83789 -0.127998,-0.64255 -0.230874,-1.28444 -0.308593,-1.92579 -0.03819,-0.50239 -0.06213,-0.98168 -0.07227,-1.43554 z m 55.218757,1.21484 v 0.18164 c 0,0.75726 -0.0399,1.48384 -0.11719,2.17969 -0.0239,0.20691 -0.0759,0.47937 -0.10742,0.70312 -1.43336,-0.60981 -2.90915,-1.2457 -3.91797,-1.5957 -0.69836,-0.24229 -1.1356,-0.25168 -1.6875,-0.38476 1.00367,-0.24236 1.99407,-0.49137 3.09765,-0.68165 l 0.0117,-0.002 0.01,-0.002 c 1.03856,-0.19697 1.85049,-0.28578 2.71094,-0.39844 z" /><g
       id="path3"
       style="opacity:1;fill:none;stroke:#000000;stroke-opacity:1;stroke-width:0.18897638;stroke-dasharray:none"><path
         id="path6"
         style="baseline-shift:baseline;display:inline;overflow:visible;fill:none;stroke:#000000;stroke-width:0.188976;stroke-dasharray:none;stroke-opacity:1;enable-background:accumulate;stop-color:#000000;stop-opacity:1"
         d="m 139.13477,28.914062 c -0.11764,-0.0044 -0.23487,-0.0035 -0.35157,0.0039 -0.93356,0.05896 -1.76914,0.518822 -2.57031,1.267578 -0.56973,0.53246 -0.98993,1.059641 -1.28125,1.826172 -0.29132,0.76653 -0.47796,1.747296 -0.73242,3.33789 -0.32045,2.003144 -0.93952,5.503534 -1.3711,7.75586 -0.43383,2.264141 -0.90368,4.822172 -1.05078,5.722656 -0.14321,0.876731 -0.92195,2.165703 -2.23242,3.517578 -1.31047,1.351876 -3.12968,2.7854 -5.26953,4.097656 -0.93434,0.572978 -1.83303,1.094654 -2.51953,1.46875 -0.34325,0.187049 -0.63341,0.336873 -0.8418,0.435547 -0.0273,0.01292 -0.0382,0.01627 -0.0625,0.02734 -0.12325,-0.152126 -0.29285,-0.389382 -0.49023,-0.691406 -0.40461,-0.6191 -0.91813,-1.491267 -1.42774,-2.449219 -2.03694,-3.829059 -3.40173,-6.031937 -5.30273,-7.158203 -1.901,-1.126266 -4.15146,-1.018193 -7.67188,-0.472657 -1.6736,0.259347 -3.19239,1.326594 -4.56054,3.09961 -1.36816,1.773016 -2.615908,4.268033 -3.802737,7.521484 -0.249117,0.682909 -0.487863,1.165491 -0.691406,1.447266 -0.154596,0.214014 -0.266302,0.296927 -0.347657,0.330078 h -0.002 L 96.552734,60 c -0.03146,-0.01542 -0.201907,-0.03999 -0.384766,-0.125 -0.270487,-0.12574 -0.639158,-0.328655 -1.0625,-0.585938 -0.846686,-0.514564 -1.92054,-1.246115 -3.011718,-2.044922 -2.182357,-1.597614 -4.482567,-3.534722 -5.148438,-4.388671 -1.343326,-1.722765 -3.195189,-5.320495 -4.667969,-8.828125 -0.736391,-1.753815 -1.385154,-3.491348 -1.845703,-4.972657 -0.46055,-1.481308 -0.723931,-2.733234 -0.724609,-3.376953 -0.0024,-2.420974 -1.519875,-6.319513 -6.697266,-4.15625 -1.010649,0.422274 -2.144802,1.44703 -3.207031,2.625 -1.062228,1.17797 -2.001481,2.474506 -2.398437,3.572266 -0.04471,0.123646 -0.09525,0.197915 -0.144532,0.310547 -1.166464,-0.04381 -1.515107,1.466278 -2.023437,2.509765 -0.519705,1.098568 -0.81899,1.74796 -0.90625,2.453125 -0.08726,0.705166 0.06093,1.347892 0.320312,2.361328 0.241635,1.107236 0.634112,2.820508 1.72461,1.439454 -0.0035,-1.983034 0.844283,0.946588 1.156294,1.439359 0.232097,0.331245 0.432074,0.593476 0.707031,0.792968 0.137479,0.09974 0.35108,0.277848 0.732422,0.134766 0.190671,-0.07154 0.331087,-0.244032 0.386719,-0.376953 0.05563,-0.13292 0.06276,-0.239129 0.06445,-0.337891 0.0057,-0.333371 -0.08501,-0.586141 -0.203125,-0.923828 -0.118117,-0.337687 -0.278342,-0.70927 -0.458985,-1.058594 -0.255274,-0.493645 -0.333763,-0.718372 -0.332031,-1.003906 0.0017,-0.285534 0.111579,-0.718363 0.382813,-1.496094 0.264241,-0.757687 0.850784,-1.73975 1.316406,-2.408203 -0.01176,0.949419 0.192763,2.019802 0.566406,3.056641 0.228967,0.635371 0.501236,1.231148 0.800781,1.71875 0.299544,0.487602 0.587435,0.896008 1.097657,1.091797 0.138513,0.05315 0.252504,0.0986 0.4375,0.111328 0.0925,0.0064 0.216222,0.0071 0.36914,-0.06641 0.152919,-0.0735 0.298261,-0.252228 0.34375,-0.404297 0.09098,-0.304139 0.0041,-0.438408 -0.04883,-0.578125 -0.0529,-0.139717 -0.122207,-0.277567 -0.210937,-0.44336 -0.224212,-0.418946 -0.347974,-1.074924 -0.31836,-1.703125 0.02251,-0.47743 0.186307,-0.836589 0.341797,-1.164062 0.02601,0.09518 0.0425,0.136752 0.07227,0.25 0.213337,0.811695 0.681347,3.147947 1.015625,5.09375 0.3451,2.008779 0.995268,4.376688 1.564453,5.507812 0.345826,0.687253 1.232237,1.754788 2.527344,3.228516 1.295107,1.473729 2.966764,3.267823 4.74414,5.074219 2.788459,2.833989 5.578935,5.89243 7.828125,8.539062 2.249191,2.646633 3.972569,4.92089 4.560547,6.019532 0.160294,0.299516 0.400702,1.323199 0.404297,1.964843 0.0118,2.124553 1.093468,8.000041 1.923828,10.669922 0.321214,1.032823 0.449672,1.513529 0.423828,1.986328 -0.02584,0.4728 -0.220987,1.061317 -0.664062,2.246094 -0.473796,1.26692 -1.625549,3.362963 -2.46875,4.488281 -0.764485,1.02025 -1.208511,1.630857 -1.435547,2.320311 -0.227036,0.68946 -0.181743,1.35007 -0.07031,2.32227 0.282111,2.46126 0.279616,2.41631 -0.02148,8.07617 -0.08698,1.63496 -0.115098,2.78365 -0.07227,3.58789 0.02142,0.40212 0.05892,0.71723 0.13086,0.98828 0.07077,0.26665 0.175757,0.53147 0.464843,0.7168 -0.0028,0.0106 -0.01006,0.10883 -0.121093,0.3164 -0.178821,0.33431 -0.316171,0.79579 -0.486328,1.41406 -0.170157,0.61826 -0.345307,1.35525 -0.486329,2.07227 -0.448809,2.282 -0.394552,3.42871 0.417969,8.34961 0.405884,2.45818 0.618896,3.91462 0.673828,4.98633 0.05493,1.0717 -0.03657,1.76213 -0.257812,2.80469 -0.296499,1.39724 -0.438331,3.05664 -0.25586,4.02929 0.192132,1.02415 0.931655,2.07465 1.851563,3.03125 0.919909,0.9566 2.022194,1.78976 3.099609,2.16406 l 0.09375,0.0332 h 0.09766 c 0.856502,0.27469 1.746124,0.4414 2.533204,0.4414 0.84654,1e-5 1.59159,-0.0916 2.11328,-0.61328 0.64334,-0.64335 0.73889,-1.63565 0.58984,-2.77539 -0.14906,-1.13973 -0.57829,-2.48379 -1.26367,-3.93164 -1.79675,-3.79561 -1.78335,-6.48243 0.0391,-10 0.69997,-1.35111 1.23498,-2.09854 1.45507,-2.25586 0.055,-0.0394 0.0679,-0.0529 0.0703,-0.0547 v 0.002 0.002 0.002 0.002 h 0.002 v 0.002 h 0.002 l 0.002,0.002 h 0.002 l 0.002,0.002 c 0.031,0.011 0.18099,0.10998 0.375,0.34375 0.35121,0.42318 0.81493,0.75774 1.37891,0.82617 0.1496,0.0182 0.3236,-0.10788 0.47656,-0.12305 -0.25863,0.1913 -0.60006,0.45164 -0.66992,0.49219 -0.48044,0.27886 -0.69045,0.75048 -0.86914,1.30078 -0.17869,0.5503 -0.29461,1.21443 -0.35938,1.94922 -0.12953,1.46957 -0.0469,3.21784 0.30078,4.77148 0.29327,1.3104 0.95385,2.7896 1.69922,4.02539 0.37269,0.6179 0.76597,1.17198 1.15821,1.61329 0.39223,0.4413 0.75845,0.78529 1.24414,0.93945 0.32571,0.10337 0.74747,0.15379 1.30468,0.20898 0.55722,0.0552 1.21222,0.0986 1.84375,0.11524 2.70829,0.0712 5.5919,-1.10563 7.82422,-3.14453 l 0.9043,-0.82618 1.14844,0.91016 c 0.70501,0.55837 1.26201,0.9286 1.99023,1.12891 0.72823,0.2003 1.56428,0.23469 2.92188,0.25 1.4313,0.0161 2.52235,0.0138 3.35351,-0.0762 0.83116,-0.09 1.48453,-0.23342 1.86914,-0.79492 0.19231,-0.28074 0.24584,-0.63281 0.20703,-0.95312 -0.0388,-0.32031 -0.15133,-0.63298 -0.3125,-0.97656 -0.32233,-0.68717 -0.85259,-1.50778 -1.5664,-2.57422 -1.38303,-2.06627 -2.03135,-3.16015 -2.33203,-5.4375 -0.30068,-2.27736 -0.21057,-5.762 0.0371,-12.33985 0.44778,-11.89134 0.0272,-15.44857 -2.86524,-24.220698 -1.65767,-5.02738 -1.63114,-4.812182 -1.36719,-9.539063 0.58032,-10.39227 1.08907,-14.134119 1.83985,-15.58789 0.0663,-0.128432 0.3445,-0.529976 0.74609,-1.029297 0.40159,-0.499321 0.93655,-1.124115 1.56055,-1.828125 1.24799,-1.408021 2.85802,-3.131567 4.52344,-4.822266 3.19538,-3.243901 4.99696,-5.155487 6.125,-6.84375 1.12803,-1.688262 1.54248,-3.146358 1.92382,-5.271484 0.03,-0.167364 0.0714,-0.266797 0.10547,-0.423828 0.10115,0.06876 0.14161,0.183593 0.26758,0.183593 0.24107,0 0.37134,-0.09801 0.46094,-0.169921 0.0896,-0.07191 0.14943,-0.143119 0.20898,-0.21875 0.1191,-0.151262 0.22704,-0.326789 0.3418,-0.535157 0.22952,-0.416735 0.47902,-0.961383 0.72461,-1.560547 0.43018,-1.049508 0.7755,-2.180056 0.97656,-3.113281 0.20194,0.64167 0.43208,1.36932 0.51563,1.960938 0.0554,0.391986 0.0984,0.689717 0.14453,0.923828 0.40363,1.297146 1.17058,0.790832 1.71091,-0.10547 0.39788,-0.718284 0.72558,-2.017598 0.88867,-3.183594 l 0.0859,-0.607422 c 0.86162,2.127754 2.58454,2.383337 2.96103,-0.535201 0.0307,-0.452108 0.0215,-0.890882 -0.0586,-1.277344 -0.04,-0.193231 -0.093,-0.376578 -0.21289,-0.5625 -0.3133,-0.485839 -0.56064,-0.113058 -0.80285,-0.914118 -0.44909,-1.48527 -1.60148,-3.237527 -3.0039,-4.871094 -1.40243,-1.633567 -3.04632,-3.12381 -4.5625,-3.96289 -0.96307,-0.532972 -1.81522,-0.847897 -2.63867,-0.878907 z m 0.47235,3.156081 c 0.40074,-0.219539 0.97505,0.114379 1.58008,0.367188 0.0127,0.0053 0.0168,0.01034 0.0293,0.01563 -0.0231,0.03622 -0.064,0.04999 -0.0781,0.08984 -0.0539,0.152451 -0.0386,0.286558 -0.0156,0.375 0.0459,0.176886 0.11027,0.243875 0.16797,0.316407 0.23083,0.290128 0.56557,0.546703 1.11328,0.949218 1.91878,1.410109 2.66298,2.906549 3.09375,5.056641 -0.22783,-0.507846 -0.43876,-1.017162 -0.71484,-1.515625 -0.4252,-0.767702 -0.88601,-1.485213 -1.32812,-2.046875 -0.22106,-0.280831 -0.43632,-0.523403 -0.65625,-0.71875 -0.21994,-0.195347 -0.43204,-0.361318 -0.75391,-0.425781 -0.28198,-0.05647 -0.57579,-0.09795 -0.89648,0.08984 -0.3207,0.18779 -0.44625,0.605813 -0.42579,0.902343 0.0409,0.59306 0.34137,1.192356 0.84961,2.140625 0.84215,1.57131 1.05671,2.974013 0.97071,4.591797 -0.69245,-2.337613 -1.85304,-4.541681 -3.37891,-5.552734 -0.39944,-0.264661 -0.80039,-0.504386 -1.13867,-0.683594 -0.16914,-0.0896 -0.32238,-0.162969 -0.46094,-0.220703 -0.13856,-0.05773 -0.21213,-0.119141 -0.4707,-0.119141 h -0.002 -0.002 l -0.002,0.002 h -0.002 c -0.006,0.0025 -0.014,0.0072 -0.0195,0.0098 l -0.002,0.002 h -0.002 -0.002 c -0.0176,-0.174018 -0.13707,-0.316677 -0.13671,-0.488281 0.002,-0.908335 0.2693,-1.730141 0.66992,-2.160156 0.51712,-0.555057 1.01746,-0.840778 1.57617,-0.939453 0.13968,-0.02467 0.30392,0.03607 0.4375,-0.03711 z m -63.441323,1.48637 c 0.0587,0.02253 0.243917,0.168608 0.429688,0.490234 0.185771,0.321626 0.374017,0.791559 0.53125,1.361328 0.314467,1.139539 0.591785,1.837806 0.591785,3.472789 0,0.914312 0.04457,1.86083 0.11914,2.66211 0.02019,0.216976 0.06374,0.31256 0.08594,0.501953 -0.359843,-0.611944 -0.61041,-1.261155 -0.78125,-2.0625 l 0.402344,-0.03516 0.05273,-1.517578 c 0.01669,-0.467909 -0.0251,-0.919399 -0.115234,-1.308593 -0.09014,-0.389195 -0.128731,-0.738631 -0.580078,-1.017578 -0.299135,-0.184872 -0.573535,-0.114491 -0.761719,-0.04687 -0.188184,0.06761 -0.34807,0.164754 -0.515625,0.28125 -0.33511,0.232991 -0.686137,0.552666 -1.025391,0.908203 -0.339253,0.355537 -0.662518,0.744269 -0.914062,1.11914 -0.251545,0.374871 -0.466518,0.687688 -0.478516,1.158203 -0.44699,0.183963 -0.498633,0.828964 -0.773438,1.226613 l 0.05859,-0.556641 c 0.07353,-0.705761 0.206881,-1.456751 0.357422,-2.078125 0.150542,-0.621373 0.35506,-1.147878 0.419922,-1.248047 0.388884,-0.600565 0.381839,-0.389507 0.404337,-0.908312 0.01125,-0.259402 0.108846,-0.70596 -0.123075,-0.919901 -0.231922,-0.213942 -0.527145,-0.267822 -0.789063,-0.259766 -0.178366,0.0055 -0.291725,0.137023 -0.433593,0.210938 0.01507,-0.01359 0.02789,-0.03537 0.04297,-0.04883 0.809696,-0.722935 2.91786,-1.721507 3.794926,-1.38486 z m -5.585949,2.937628 c -0.280383,0.419324 -0.661227,1.051607 -1.017578,1.636718 0.328068,-0.57071 0.624491,-1.11791 1.017578,-1.636718 z m 66.916012,1.77136 c 0.17199,0.224524 0.35966,0.34242 0.43164,0.5625 0.0759,0.232181 0.0209,0.398149 0.0332,0.568359 -0.049,-0.370891 -0.26897,-0.756219 -0.46485,-1.130859 z m 0.48828,1.593749 c 0.002,0.0353 0.0204,0.06642 0.01,0.109375 -0.0181,0.07028 -0.13023,0.263777 -0.1582,0.345704 0.0304,-0.1442 0.29614,-0.455079 0.14843,-0.455079 z m -58.824214,7.843875 1.347656,1.722656 0.0039,-1.529297 c 0.701576,1.409687 1.394968,2.59075 1.75586,3.103516 0.286992,0.407765 0.374359,0.522941 0.591797,0.818359 -0.296777,0.433147 -0.07773,0.678479 1.35353,2.046875 1.206782,1.153773 3.420516,3.158544 5.535157,4.972656 1.05732,0.907056 2.087716,1.76426 2.958984,2.445313 0.871268,0.681053 1.538162,1.17392 2.056641,1.410156 0.289593,0.131947 0.509463,0.234878 0.640625,0.322266 0.131162,0.08739 0.173328,0.134381 0.214843,0.232422 0.08255,0.194947 0.103888,0.79128 -0.167968,2.027343 -0.202748,-0.311497 -0.350975,-0.603335 -0.677735,-0.958984 -1.32971,-1.44727 -3.265384,-2.978191 -4.65039,-3.853516 -0.346252,-0.218832 -0.655746,-0.397157 -0.929688,-0.52539 -0.273941,-0.128233 -0.45836,-0.250659 -0.84375,-0.205078 -0.192694,0.02279 -0.513079,0.223864 -0.589844,0.486328 -0.03693,0.126269 0.01041,0.184075 0.02344,0.273437 -1.112318,-1.397239 -2.2407,-2.837326 -3.126953,-4.001953 -0.476875,-0.626662 -0.888366,-1.176985 -1.197266,-1.605469 -0.308899,-0.428485 -0.530459,-0.768117 -0.5625,-0.830078 -0.413863,-0.80032 -1.738799,-2.736711 -2.972656,-4.609375 C 79.72807,49.148565 79.598421,48.932196 79.413843,48.648437 79.29951,48.264673 79.23551,47.998085 79.159937,47.703125 Z m 56.023434,0.535156 c 0.0182,0.01319 0.0155,0.02624 0.0371,0.03906 0.12395,0.07373 0.30336,0.05716 0.45899,0.03516 -0.0474,0.148001 -0.12328,0.321992 -0.15625,0.453125 -0.0449,0.178532 -0.0773,0.337049 -0.0898,0.49414 -0.006,0.07854 -0.008,0.154773 0.006,0.253907 0.0137,0.09913 0.0291,0.241969 0.19336,0.40625 0.15997,0.159952 0.47807,0.206077 0.63867,0.15625 0.16061,-0.04983 0.23324,-0.119434 0.29688,-0.177735 0.0335,-0.03068 0.0502,-0.06668 0.0781,-0.09766 0.005,0.03161 -0.002,0.04455 0.0117,0.08789 0.01,0.03113 0.0471,0.07747 0.0684,0.117187 -0.33774,0.515345 -0.66052,1.002237 -0.98828,1.527344 -0.23501,0.376526 -1.54242,2.130886 -2.53711,3.492187 -0.14263,0.115409 -0.21312,0.1605 -0.36523,0.285157 -1.34782,1.104571 -3.18591,2.720049 -4.96485,4.287109 l 0.0254,-0.07813 -1.64257,1.474609 c -0.77195,0.693118 -1.51419,1.324219 -2.08008,1.775391 -0.28295,0.225586 -0.52341,0.407137 -0.69141,0.523438 -0.0222,0.0154 -0.0292,0.01823 -0.0488,0.03125 h -0.002 v -0.002 -0.002 h 0.002 0.002 v -0.002 -0.002 l -0.002,-0.002 -0.002,-0.002 -0.002,-0.002 c -0.1151,-0.101023 -0.26556,-0.269053 -0.4043,-0.455078 -0.24267,-0.325387 -0.36975,-0.682729 -0.41016,-0.802735 0.0295,-0.02989 0.042,-0.04462 0.082,-0.08203 0.18789,-0.175481 0.48172,-0.421899 0.84765,-0.708984 0.73186,-0.57417 1.75402,-1.315721 2.87891,-2.074219 2.22314,-1.499031 4.39267,-3.178757 6.01953,-4.609375 0.81343,-0.715309 1.4907,-1.366131 1.98047,-1.916016 0.24488,-0.274942 0.44154,-0.522945 0.59179,-0.757812 0.15026,-0.234868 0.28321,-0.437418 0.28321,-0.777344 0,-0.497909 -0.20497,-0.868677 -0.50196,-1.246094 -0.0715,-0.09082 -0.19836,-0.151504 -0.29101,-0.232422 0.55777,-0.395344 0.61054,-0.822641 0.67775,-1.410156 z m -23.30664,1.013672 0.82813,0.886719 c -0.19816,-0.140052 -0.44534,-0.455212 -0.64258,-0.548828 -0.28405,-0.134821 -0.57646,-0.161029 -0.86719,-0.179688 z m -2.12109,0.472656 c -0.48771,0.238142 -0.88561,0.462035 -1.09961,0.878906 -0.009,0.01812 -0.007,0.04886 -0.0156,0.06836 -0.10107,-0.111053 -0.22868,-0.209566 -0.33984,-0.238281 -0.26731,-0.06905 -0.41511,-0.0129 -0.58789,0.0332 -0.0963,0.02569 -0.21947,0.07271 -0.33008,0.111328 0.27992,-0.116769 0.14837,-0.434006 0.21299,-0.623047 0.0439,-5.17e-4 0.10464,0.03419 0.15235,0.03516 0.19071,0.0039 0.4056,-0.0084 0.64843,-0.0332 0.39198,-0.04006 0.87706,-0.132215 1.35938,-0.232422 z m -0.51161,1.97866 c -0.0288,0.19269 -0.11916,0.381206 -0.01,0.552734 0.028,0.04379 0.084,0.02671 0.11719,0.0625 -0.13507,0.272024 -0.1661,0.567559 -0.084,0.869141 -0.10091,0.01336 -0.18895,-0.003 -0.32422,0.09766 -0.0716,0.0533 -0.11478,0.163078 -0.16602,0.259766 -0.0355,-0.158678 -0.074,-0.327462 -0.16211,-0.429688 -0.0431,-0.04997 -0.092,-0.07092 -0.13671,-0.109375 0.235,-0.135514 0.41439,-0.225083 0.57812,-0.505859 0.0429,-0.07348 0.0907,-0.170591 0.0996,-0.314453 0.009,-0.143862 -0.0477,-0.337312 -0.1543,-0.460938 -0.10813,-0.125385 -0.18814,-0.09423 -0.28515,-0.123047 -0.017,-0.234371 0.34942,0.06726 0.5276,0.101559 z m -0.53336,2.259621 c 0.008,0.03544 -0.001,0.08856 0.01,0.117188 0.14915,0.389759 0.35518,0.49007 0.64453,0.708984 0.11944,0.09032 0.2156,0.187641 0.27539,0.259766 -0.0923,0.217864 -0.0759,0.447096 -0.0352,0.630859 0.0336,0.151723 0.13442,0.279519 0.21094,0.416016 -0.1285,0.03395 -0.26942,0.03047 -0.38477,0.101562 -0.10473,0.06455 -0.19637,0.166475 -0.26758,0.291016 0.0417,-0.228469 0.0159,-0.46703 -0.0645,-0.669922 -0.12654,-0.320061 -0.35623,-0.579303 -0.64844,-0.792969 -0.14226,-0.104028 -0.19878,-0.157562 -0.2207,-0.173828 0.0267,-0.04276 0.0606,-0.09663 0.13281,-0.183593 0.1791,-0.215782 0.26842,-0.45129 0.34766,-0.705079 z m 0.79687,3.828125 c 0.0456,0.02506 0.0934,0.03833 0.14258,0.05664 -0.001,0.03063 0.004,0.03075 -0.0156,0.09375 -0.12117,0.381781 -0.0116,0.559626 0.0703,0.800781 0.0819,0.241156 0.20203,0.505048 0.34765,0.796875 0.29125,0.583656 0.69139,1.267319 1.11329,1.919922 0.42189,0.652604 0.86017,1.268894 1.24023,1.720703 0.19003,0.225905 0.35981,0.410425 0.54492,0.556641 0.0926,0.07311 0.18367,0.141427 0.34375,0.193359 0.16008,0.05193 0.4975,0.04548 0.69922,-0.15625 0.25538,-0.255374 0.18777,-0.428573 0.17773,-0.529297 0.2626,0.222763 0.42974,-0.163779 0.59961,-0.228518 0.35127,0.324815 0.56072,0.06645 0.92579,-0.0332 0.24422,-0.281687 0.17167,-0.471326 0.15234,-0.605469 -0.0373,-0.258754 -0.13684,-0.489833 -0.27734,-0.791016 0.0971,0.03619 0.22103,0.08619 0.41601,0.01563 0.56792,-0.461351 0.3931,-0.798276 0.18161,-1.408203 -0.0465,-0.104049 -0.14841,-0.281494 -0.20898,-0.404297 1.0904,-0.04138 0.60218,-1.054545 0.54297,-1.169922 -0.0817,-0.159356 -0.22499,-0.305616 -0.35157,-0.455078 0.0704,-0.01781 0.12097,-0.04644 0.18946,-0.08594 0.22746,0.457531 0.49103,0.88411 0.66992,1.3125 0.24934,0.597103 0.56829,2.589649 0.69922,4.28125 l -0.33008,-0.002 -0.38477,2.259765 c -0.26683,1.560838 -0.3822,3.451446 -0.35937,5.097657 0.0114,0.823105 0.0583,1.583846 0.14062,2.21875 0.0823,0.634904 0.1699,1.121956 0.40625,1.529296 0.10986,0.189328 0.13025,0.346555 0.46485,0.525391 0.1673,0.08942 0.54972,0.08057 0.73242,-0.07031 0.1827,-0.150888 0.21464,-0.284421 0.25,-0.396485 0.0147,-0.04666 0.006,-0.160061 0.0176,-0.208984 0.0166,0.03881 0.0268,0.135312 0.0449,0.171875 0.0493,0.0994 0.0837,0.219599 0.30664,0.349609 0.0717,0.04181 0.18969,0.03703 0.29883,0.04492 0.0715,0.595099 0.13894,1.232801 0.27344,1.689453 l 0.20507,0.691406 0.12305,-0.06641 c 0.0237,0.02412 0.0161,0.04017 0.0488,0.06641 0.0847,0.06782 0.23184,0.147287 0.41211,0.144532 0.18026,-0.0028 0.33815,-0.09378 0.42383,-0.173829 0.0748,-0.06989 0.0656,-0.109201 0.0957,-0.164062 0.0238,0.663367 0.0734,1.082245 0.0918,1.728516 0.0539,1.895329 0.0828,3.662773 0.0781,4.947265 -0.001,0.349332 -0.0112,0.552486 -0.0176,0.822266 -0.0568,-0.06581 -0.11841,-0.14552 -0.17578,-0.201172 -0.49935,-0.484022 -1.14292,-0.209107 -1.15625,0.419925 -0.006,0.27228 0.0788,0.674402 0.47072,2.380859 -0.024,-0.03806 -0.0477,-0.09047 -0.0742,-0.126953 -0.40899,-0.562161 -1.18223,-0.372376 -1.18748,0.425782 -6.7e-4,0.09122 0.005,0.185515 0.0137,0.296875 0.0102,0.129564 0.0344,0.336579 0.0547,0.513672 l -0.23829,-0.74414 -0.83203,0.15625 -0.14062,-0.890625 -1.15625,0.02344 -0.0625,0.541016 c -0.0727,-0.105057 -0.1406,-0.211209 -0.31641,-0.298828 -0.10715,-0.0534 -0.26334,-0.094 -0.42773,-0.06641 -0.0896,0.01503 -0.14358,0.07349 -0.21485,0.117188 0.0126,-0.191969 -0.005,-0.295576 0.0215,-0.521485 0.40094,-3.432981 -1.19711,-1.991307 -1.37895,-1.603515 -0.057,0.121534 -0.10839,0.271207 -0.16015,0.427734 l 0.15039,-1.767578 -1.14454,-0.205078 -0.44531,1.605469 c 0.002,-0.02664 0.002,-0.04158 0.004,-0.06836 0.14983,-1.916715 0.17184,-5.389295 0.0527,-7.8125 -0.13889,-2.826747 -0.0198,-5.051658 0.30469,-6.404296 0.83661,-3.487327 0.56491,-5.39983 -1.19727,-8.417969 -0.4293,-0.735256 -0.84385,-1.404779 -1.17187,-1.900391 -0.16401,-0.247806 -0.30485,-0.450169 -0.42383,-0.605469 -0.0595,-0.07765 -0.1113,-0.141621 -0.17187,-0.205078 -0.0303,-0.03173 -0.0615,-0.06396 -0.11328,-0.103515 -0.0518,-0.03956 -0.10404,-0.115501 -0.3418,-0.132813 -0.31446,-0.02378 -0.48928,0.149339 -0.58203,0.253906 -0.0927,0.104566 -0.14606,0.199538 -0.19922,0.304688 -0.10632,0.210299 -0.19707,0.458609 -0.29102,0.755859 -0.1879,0.594502 -0.37592,1.37292 -0.54101,2.191407 -0.16509,0.818487 -0.30538,1.67274 -0.38867,2.414062 -0.0833,0.741322 -0.13458,1.320817 -0.0273,1.808594 0.0736,0.334907 0.0904,0.634143 0.0723,0.822265 -0.009,0.09406 -0.0369,0.146818 -0.043,0.16211 v 0.002 c -0.33845,0.259933 -0.4166,0.678887 -0.42188,1.072266 -0.006,0.423796 0.0712,0.925036 0.21485,1.564453 0.19605,0.872594 0.36336,3.019823 0.33203,4.576172 -0.0555,2.762521 0.17358,4.311647 1.24219,8.419921 0.0436,0.167835 0.037,0.345554 0.0762,0.541016 l -0.85547,0.173828 0.0547,0.8125 c -0.0555,-0.03161 -0.0779,-0.06998 -0.17774,-0.08203 -0.11511,-0.01389 -0.20532,0.07058 -0.31445,0.126953 -0.0508,-0.057 -0.0687,-0.114661 -0.17188,-0.177734 -0.11064,-0.06765 -0.36878,-0.161139 -0.62109,-0.03906 -0.0726,0.03511 -0.0544,0.08085 -0.0996,0.125 -0.16719,-0.410222 -0.34437,-0.805814 -0.46289,-1.125 -1.07092,-2.884052 -1.95221,-1.541039 -1.68556,-0.05468 0.01,0.05359 0.0357,0.149368 0.0469,0.207031 -0.0664,-0.0312 -0.12078,-0.06833 -0.21875,-0.08008 -0.15643,-0.01877 -0.37283,0.02995 -0.51563,0.140625 -0.15904,0.123268 -0.13943,0.241652 -0.17773,0.365234 -0.0445,-0.158573 -0.0746,-0.241579 -0.12109,-0.412109 l -0.78516,-2.876953 -1.14453,0.105468 -0.14649,1.773438 c -0.0244,-0.151372 -0.0409,-0.212632 -0.0664,-0.376953 l -0.41016,-2.63086 -0.006,-0.04102 -1.158202,0.138672 0.0039,0.04102 0.210932,2.529297 c 0.0128,0.152853 5.4e-4,0.234845 0.01,0.378906 -0.18414,-0.469814 -0.362596,-0.888726 -0.552734,-1.460937 -0.55743,-1.677542 -0.801394,-2.766634 -0.919921,-3.988281 l 0.75,0.08984 L 99.896484,76 c 0.240956,-1.31559 0.327216,-3.292724 0.207036,-4.601563 0.0649,0.01462 0.11833,-0.02069 0.1875,-0.0293 0.0177,2.394782 1.38034,1.797854 1.52531,0.08594 0.0393,-0.462905 0.0425,-1.024745 0.004,-1.605469 l -0.13476,-2.009765 -0.7168,-0.0059 c -0.0732,-1.465006 0.39048,-4.112057 -1.076083,-3.007778 0.06152,-1.079041 0.381193,-2.448158 0.615233,-3.75586 0.13108,-0.732386 0.25167,-0.08219 0.52577,-0.171712 0.27983,0.0024 0.37854,-0.117817 0.44336,-0.177734 0.10315,-0.09535 0.14159,-0.167712 0.19141,-0.25 0.008,0.09788 -0.0336,0.175407 0.14258,0.326172 0.1392,0.119101 0.4082,0.228659 0.51757,0.134765 0.46478,-0.398995 0.25429,0.05193 0.34388,0.07022 0.43316,0.61588 0.62207,-0.322169 0.55658,0.685549 -0.008,0.117773 -0.0708,0.188811 0.0801,0.470703 0.0377,0.07047 0.10431,0.164131 0.22266,0.236328 0.11835,0.0722 0.28074,0.0993 0.40039,0.08203 0.23931,-0.03454 0.31567,-0.134854 0.37305,-0.193359 0.0398,-0.04059 0.037,-0.08041 0.0664,-0.117188 0.65042,0.979511 0.39571,-1.507951 0.81511,0.876626 0.1143,0.114298 0.31962,0.199134 0.48632,0.193359 0.0694,-0.0024 0.098,-0.03248 0.1504,-0.04883 -0.002,0.04437 -0.0132,0.08938 -0.0117,0.134765 0.005,0.144003 -0.0257,0.321996 0.21679,0.564454 0.16832,0.168326 0.53198,0.224763 0.72657,0.148437 0.1946,-0.07632 0.28291,-0.181757 0.36132,-0.279297 0.15683,-0.195079 0.25504,-0.411446 0.33985,-0.673828 0.0985,-0.304752 0.70517,-1.704434 1.28125,-2.898437 0.41958,-0.869678 0.67173,-1.44766 0.77539,-1.94336 0.0313,-0.149633 0.003,-0.300277 -0.004,-0.449219 z m -4.42187,0.449219 c 0.005,0.108829 -0.0974,0.365057 -0.1211,0.523438 -0.0443,-0.01624 -0.0747,-0.02046 -0.12109,-0.0293 0.0838,-0.168777 0.16583,-0.369875 0.24219,-0.494141 z m -8.816409,45.441406 c 0.178807,0.10256 0.341783,0.21467 0.560547,0.29688 0.699682,0.26293 1.5931,0.45117 2.439453,0.45117 0.116906,0 0.149062,0.0222 0.246094,0.0293 -0.04746,0.017 -0.04858,0.0283 -0.101563,0.0449 -0.302262,0.095 -0.517578,0.1655 -0.691406,0.24023 -0.08691,0.0374 -0.144767,-10e-4 -0.335938,0.23242 -0.04779,0.0584 -0.113274,0.15276 -0.132812,0.3086 -0.01954,0.15583 0.04486,0.34796 0.128906,0.45117 0.10058,0.12351 0.145722,0.10779 0.208985,0.1289 -0.07724,0.0417 -0.198576,0.0534 -0.267579,0.10157 -0.162148,0.11313 -0.320823,0.25186 -0.488281,0.41406 -0.334915,0.32439 -0.700624,0.74093 -1.048828,1.18359 -0.167929,0.21349 -0.294961,0.42454 -0.447266,0.64063 0.01334,-0.0583 0.01993,-0.0784 0.0332,-0.13672 0.305339,-1.34247 0.474307,-2.08721 0.441406,-2.78906 -0.02561,-0.54633 -0.281824,-1.04579 -0.544922,-1.59766 z m 29.199219,1.36133 c -0.0153,0.0269 -0.0235,0.11619 -0.0371,0.14258 l -0.002,0.002 c -0.0533,0.0656 -0.41061,0.39354 -0.84766,0.73242 -0.43705,0.33888 -0.97909,0.72891 -1.50781,1.07617 -1.11861,0.73472 -1.64222,1.04742 -1.89258,1.09571 -0.12518,0.0241 -0.2122,0.0199 -0.41602,-0.043 -0.11366,-0.0351 -0.33684,-0.13534 -0.51367,-0.20899 1.0216,-0.25987 2.46326,-0.91097 3.71094,-1.6914 0.7319,-0.4578 1.1204,-0.77276 1.50586,-1.10547 z m -24.8125,0.85156 c 0.12678,-0.009 0.23633,0.0222 0.36133,0.0176 -0.13758,0.0158 -0.31478,-0.0396 -0.44922,-0.002 -0.33223,0.0933 -0.644441,0.3704 -0.955079,0.58593 0.01685,-0.11463 0.06064,-0.212 -0.01563,-0.37304 -0.04655,-0.0983 -0.160727,-0.0898 -0.25,-0.15235 0.03078,-0.002 0.04685,0.004 0.08203,0.002 0.299123,-0.0136 0.701609,-0.0395 1.226559,-0.0781 z m 25.36523,1.24219 h 0.002 c 0.0942,0.0391 0.1915,0.17576 0.17773,0.53515 -0.014,0.36497 -0.1902,0.84632 -0.50781,1.19727 -0.15278,0.16882 -0.27266,0.30539 -0.37109,0.4375 -0.006,0.007 -0.012,0.0142 -0.0176,0.0215 0.1122,-0.21093 0.19053,-0.41426 0.22265,-0.64062 0.0436,-0.30773 -0.0988,-0.68168 -0.32812,-0.9082 0.10115,-0.1853 0.41396,-0.57725 0.82226,-0.64255 z m -24.22656,1.02148 c 1.08851,-0.0499 2.39998,0.71957 3.77149,2.58789 0.79101,1.07756 0.92578,1.58758 0.92578,3.51953 0,0.8427 -0.13439,1.4614 -0.32422,2.18555 -0.13262,-0.0703 -0.25178,-0.18979 -0.35742,-0.18164 -0.19126,0.0147 -0.30392,0.0736 -0.41602,0.13477 -0.22419,0.12238 -0.43809,0.29203 -0.71094,0.52734 -0.54569,0.47062 -1.29192,1.20013 -2.27734,2.18555 -0.98537,0.98537 -1.87893,1.93881 -2.535157,2.68945 -0.328112,0.37532 -0.597128,0.69878 -0.792968,0.96094 -0.09792,0.13108 -0.176566,0.24402 -0.242188,0.35547 -0.06562,0.11145 -0.154297,0.16078 -0.154297,0.47265 0,0.0752 0.0069,0.17379 0.06641,0.29688 0.05954,0.12309 0.19843,0.26022 0.345703,0.31445 0.294546,0.10847 0.449306,0.006 0.548828,-0.043 0.118305,-0.0587 0.191843,-0.13877 0.27539,-0.21094 -0.316691,0.56717 -0.742441,1.22965 -0.914062,1.65235 -0.160733,0.39588 -0.281968,0.66477 -0.253906,1.05664 0.007,0.098 0.02615,0.21645 0.107422,0.35156 0.0438,0.0728 0.145054,0.10822 0.226562,0.16602 -0.06921,0.27801 -0.169384,0.63141 -0.355469,1.10351 -0.251934,0.63916 -0.444297,1.13246 -0.578125,1.51172 -0.133829,0.37926 -0.217508,0.61394 -0.236328,0.89844 -0.0094,0.14225 -0.03391,0.39208 0.240235,0.61914 0.137071,0.11353 0.319333,0.15293 0.441406,0.14844 0.109717,-0.004 0.179326,-0.03 0.242187,-0.0547 0.0271,0.11591 0.122375,0.30858 0.324219,0.41406 -0.794763,-0.008 -1.34902,0.28666 -1.923828,0.70508 -0.163194,1.13931 0.840756,1.06236 1.730471,1.22074 -0.04941,0.0622 -0.154687,0.0955 -0.179688,0.1543 -0.152329,0.35827 -0.114659,0.65541 -0.06445,1.03516 0.100401,0.75949 0.404869,1.77765 0.882813,2.88867 0.7842,1.82288 1.17236,2.45552 1.79688,2.14255 h 0.002 c 0.20979,0.60289 0.40507,1.20461 0.5332,1.78711 -0.0109,-0.0206 -0.0204,-0.032 -0.0312,-0.0527 -0.20152,-0.38496 -0.3588,-0.6797 -0.48437,-0.89844 -0.51736,-0.90094 -1.666885,-1.22551 -1.28519,0.76563 0.0291,0.15171 0.0677,0.27584 0.10156,0.4375 -0.0426,-0.0849 -0.0704,-0.0847 -0.11132,-0.17383 -0.405435,-1.02752 -0.896677,-1.85681 -1.796881,-2.38086 -0.06345,-0.001 -0.13434,0.014 -0.203125,0.041 -0.602953,-3.53567 -1.590329,-8.40258 -1.578125,-9.94922 0.02805,-3.55674 0.589769,-7.53249 1.083984,-10.46094 0.247107,-1.46422 0.4762,-2.66725 0.615235,-3.4375 0.05999,-0.33234 0.09485,-0.54037 0.117187,-0.72461 0.282304,-0.50576 0.287442,-0.60484 0.625,-1.19922 0.286019,-0.50361 0.507512,-0.99599 0.642578,-1.41992 0.06753,-0.21196 0.114184,-0.40542 0.13086,-0.60156 0.01668,-0.19614 0.06134,-0.44452 -0.216797,-0.72266 -0.218169,-0.21816 -0.550131,-0.21471 -0.820313,-0.16015 0.972173,-1.76167 2.032997,-2.6108 3.066407,-2.65821 z m 23.33008,1.47461 c -0.0178,0.0585 -0.0298,0.12804 -0.0352,0.21289 -0.0512,0.7804 0.97634,0.74368 1.01952,0.79693 0.0588,0.0724 0.14094,0.2341 0.19336,0.44336 0.0541,0.21585 -0.027,0.49689 -0.041,0.76562 -0.2324,-0.85878 -0.89376,-1.0053 -1.66992,-1.19727 v -0.002 l 0.002,-0.002 c 0.0231,-0.0414 0.10055,-0.35716 0.46289,-0.91016 0.0238,-0.0363 0.046,-0.0723 0.0684,-0.10742 z m 0.60352,3.45313 c -0.0407,0.037 -0.0291,0.0417 -0.0742,0.0781 -0.345,0.2788 -0.80113,0.57183 -1.25391,0.79102 -0.44777,0.21676 -0.9157,0.26057 -1.38867,0.39062 v -0.002 c 1.5e-4,-9.1e-4 0.002,-0.005 0.002,-0.006 v -0.002 c 0.004,-0.0101 0.0138,-0.0195 0.0195,-0.0273 0.003,-0.004 0.005,-0.0131 0.006,-0.0195 -0.007,-0.23875 -0.12025,-0.37818 -0.20117,-0.46484 -0.0809,-0.0867 -0.15646,-0.13979 -0.23633,-0.19141 h -0.002 -0.002 v -0.002 c 0.66441,-0.0133 1.41063,0.0499 1.93359,-0.0703 0.46646,-0.1072 0.86638,-0.253 1.19727,-0.47461 z m -4.22461,5.52148 c -0.0343,0.11103 -0.0706,0.26359 0.008,0.44141 0.0883,0.20142 0.27411,0.31207 0.39258,0.35156 0.23694,0.079 0.34948,0.044 0.49218,0.0234 0.0713,-0.0103 0.16108,-0.0335 0.24024,-0.0508 -0.0452,0.16254 -0.11328,0.31733 -0.11328,0.49609 0,0.36436 -0.0651,0.35679 -0.15821,0.375 -0.0931,0.0182 -0.39077,-0.0341 -0.71875,-0.39648 -0.41108,-0.45428 -0.95756,-0.66304 -1.55468,-0.75977 0.48052,-0.15327 0.90222,-0.35393 1.41211,-0.48047 z m -2.57227,3.08789 c 0.14053,0 0.18619,0.0119 0.20703,0.0156 0.0328,0.0881 0.0957,0.56145 0.0957,1.44336 -10e-6,0.868 -0.009,1.36237 0.16016,1.81836 0.0847,0.22799 0.30338,0.50453 0.59766,0.58398 0.16889,0.0456 0.27487,-0.0139 0.40234,-0.041 0.009,0.25053 -0.005,0.72829 -0.11523,1.73829 -0.55514,5.088 -1.56832,7.29668 -4.06836,9.09375 -0.75367,0.54174 -2.08635,1.20936 -2.73828,1.39648 l -1.41993,0.40625 0.14649,1.14648 1.36328,0.0371 c 0.0865,0.002 0.16175,-0.0477 0.25,-0.0488 -0.0934,0.0675 -0.20048,0.11326 -0.25781,0.375 -0.0286,0.13064 0.0356,0.30713 0.11133,0.44726 -0.0252,9.4e-4 -0.0431,0.007 -0.0684,0.008 -1.11071,0.032 -2.33884,-0.16602 -2.95508,-0.48632 -0.87017,-0.45228 -1.42292,-0.97359 -1.86524,-1.58399 0.099,-0.0253 0.20024,-0.006 0.26953,-0.0703 0.28846,-0.26655 0.21509,-0.44261 0.21094,-0.56836 -0.002,-0.0479 -0.0296,-0.11429 -0.0352,-0.16211 1.26463,-0.66856 0.69379,-2.83569 0.6992,-4.09371 0,-1.15293 -0.0361,-2.17838 -0.0937,-2.91992 -0.0289,-0.37077 -0.062,-0.66645 -0.10742,-0.89844 -0.0227,-0.116 -0.0387,-0.20846 -0.0996,-0.33984 -0.0305,-0.0657 -0.0612,-0.15261 -0.20703,-0.26367 l -0.002,-0.002 h -0.002 l -0.002,-0.002 h -0.002 c -0.0209,-0.005 -0.0595,0.008 -0.082,0 l 1.30859,-1.07617 c 2.70789,-2.22397 4.63916,-3.74037 5.98828,-4.6875 1.34913,-0.94714 2.19434,-1.26563 2.31055,-1.26563 z m 7.13281,1.4668 c -0.027,0.58913 -0.0549,0.97798 -0.0957,1.44531 -0.20185,-0.73027 -0.23877,-0.98997 -0.33203,-1.42187 0.11821,0.0363 0.2718,0.0234 0.42773,-0.0234 z m -1.32812,8.91211 c 0.36411,1.49791 0.95313,2.89588 1.72461,4.22265 0.13401,0.20278 0.25284,0.36566 0.42383,0.51172 0.0855,0.073 0.18537,0.15282 0.36914,0.19532 0.18376,0.0425 0.48254,-0.0275 0.63476,-0.17969 0.16452,-0.1645 0.21593,-0.43004 0.20313,-0.58399 -0.0122,-0.14609 -0.0482,-0.24712 -0.0879,-0.35937 0.3353,0.52164 0.62656,1.02002 0.94921,1.43555 -0.055,-0.005 -0.12234,-0.0644 -0.36328,0.1289 -0.25292,0.20397 -0.27355,0.35436 -0.31836,0.48047 -0.35229,-0.10898 -1.44845,-0.46257 -2.07226,-0.59961 -0.32223,-0.0708 -0.74146,-0.23278 -1.14453,-0.36328 -0.005,-0.56517 -0.42766,-1.07374 -0.71287,-1.54492 1.1121,-0.67245 0.58048,-2.22545 0.39455,-3.34375 z"
         sodipodi:nodetypes="scssssssssscscssssscccsssssscssscssssssssssscscssscsscssccsssssscssssssssscsssssssscccsssssccccccccccccsccssssssssccccscssssssssssssssccssssscccsccscsssscsscccsscssssssscsssscccccccccssssssssccccsssssscccsssssccssscccccccccccsccsscsscssssscsssscccccscccsscccscscccsscccccccccccsccssssssscscccscccssscscscccccscccccsccccccscscsccccccsssscsscscccsscsccccccscssssccsccccccscccccscsscsccssccccccscsscccccsssccsssssccccscccccscsscssssssccsscccccccsccccccssscscccccscccsccccscccccccccccccssccccssccscccsccccsscscscccccscccccssccccssccsscccsssssscccsscssssccccssssccssssccscccscsccsssccccccscsscccsccccccccccsccccscsscccscscsccscccccsccsccccssccssscsccccccccsscssscccccscccccccsccccccccccccsccsc" /></g></g></svg>
