<?xml version="1.0" encoding="UTF-8" standalone="no"?>
<svg
   version="1.2"
   viewBox="0 0 219.2126 219.2126"
   width="58mm"
   height="58mm"
   id="svg1"
   sodipodi:docname="ByrokratRoleTokenLaser.svg"
   inkscape:version="1.4.2 (2aeb623e1d, 2025-05-12)"
   xml:space="preserve"
   xmlns:inkscape="http://www.inkscape.org/namespaces/inkscape"
   xmlns:sodipodi="http://sodipodi.sourceforge.net/DTD/sodipodi-0.dtd"
   xmlns="http://www.w3.org/2000/svg"
   xmlns:svg="http://www.w3.org/2000/svg"><sodipodi:namedview
     id="namedview1"
     pagecolor="#ffffff"
     bordercolor="#666666"
     borderopacity="1.0"
     inkscape:showpageshadow="2"
     inkscape:pageopacity="0.0"
     inkscape:pagecheckerboard="0"
     inkscape:deskcolor="#d1d1d1"
     inkscape:zoom="3.1623213"
     inkscape:cx="88.700666"
     inkscape:cy="134.07872"
     inkscape:window-width="1920"
     inkscape:window-height="1043"
     inkscape:window-x="0"
     inkscape:window-y="0"
     inkscape:window-maximized="1"
     inkscape:current-layer="layer2"
     inkscape:document-units="mm"
     showgrid="false" /><defs
     id="defs1"><clipPath
       clipPathUnits="userSpaceOnUse"
       id="cp1"><path
         d="m 275.5,535.5 c -143.78,0 -260,-116.22 -260,-260 0,-143.78 116.22,-260 260,-260 143.78,0 260,116.22 260,260 0,143.78 -116.22,260 -260,260 z"
         id="path1" /></clipPath></defs><style
     id="style1">
		tspan { white-space:pre } 
		.s0 { fill: none;stroke: #ff0000;stroke-miterlimit:100 } 
	</style><g
     inkscape:groupmode="layer"
     id="layer2"
     inkscape:label="Content"><path
       id="path7"
       style="display:inline;opacity:1;font-size:41.5223px;font-family:'New Rocker';-inkscape-font-specification:'New Rocker';letter-spacing:0.769167px;baseline-shift:baseline;white-space:pre;overflow:visible;enable-background:accumulate;stop-color:#000000;stop-opacity:1;stroke-width:0.18897638;stroke-dasharray:none;fill:none;stroke:#000000;stroke-opacity:1"
       d="M 126.62305 119.17773 C 125.43125 119.76039 124.37901 120.17196 123.48633 120.41992 C 122.58392 120.67059 121.77285 120.78711 121.05664 120.78711 C 120.36008 120.78711 119.85911 120.69291 119.58398 120.58594 L 115.99023 119.18945 L 117.97266 122.49609 C 118.17741 122.83735 118.32857 123.1654 118.43359 123.48047 L 118.44727 123.51562 L 118.46094 123.55273 C 118.59134 123.87875 118.69134 124.23337 118.75977 124.62109 L 118.76758 124.65625 L 118.77539 124.69336 C 118.86399 125.06985 118.92472 125.51657 118.94922 126.03125 L 118.95117 126.0625 L 118.95312 126.09375 C 119.00342 126.62195 119.03125 127.24806 119.03125 127.96289 L 119.03125 146.11523 L 116.11133 146.11523 C 115.92816 144.38716 115.83594 142.62732 115.83594 140.83398 C 115.83594 138.458 115.99963 136.41544 116.3125 134.7207 L 116.66016 132.83984 L 114.77734 133.18164 C 114.53198 133.22624 114.26938 133.26084 113.99414 133.28516 L 112.68945 133.28516 C 111.70012 133.28516 110.59608 133.18332 109.38477 132.97266 C 108.46944 132.81347 107.15396 132.42 105.80859 132.00586 L 103.45117 132.05273 C 102.2702 133.23371 101.06374 134.20388 99.832031 134.97461 C 98.602473 135.71635 97.535856 136.14286 96.677734 136.29687 L 95.523437 136.50391 C 95.632045 136.00032 95.811339 135.54452 95.875 135.00977 L 96.013672 133.84375 L 94.86914 133.57031 C 93.753416 133.30467 92.740867 133.01556 91.826172 132.70312 L 91.820312 132.70117 C 90.906524 132.36137 90.225534 132.03811 89.828125 131.78711 L 88.451172 130.91797 L 87.886718 132.44531 C 87.651863 133.0808 87.378273 133.64447 87.123047 134.24219 L 87.123047 133.82422 L 85.683593 131.42773 L 84.734375 131.66406 C 83.866531 131.88102 82.869631 132.1131 81.748047 132.35937 C 81.745147 132.36002 81.743134 132.36033 81.740234 132.36133 C 80.636894 132.57611 79.614807 132.7495 78.68164 132.88281 L 77.548828 133.04492 L 77.548828 135.51367 L 79.083984 136.17773 L 79.083984 146.11523 L 75.224609 146.11523 L 75.224609 130.85156 L 73.314453 131.80664 C 72.489016 132.21936 71.46313 132.57707 70.240234 132.86328 L 70.238281 132.86523 L 70.234375 132.86523 C 69.035621 133.1519 67.811318 133.33369 66.55664 133.41211 L 65.318359 133.49023 L 65.318359 136.2832 L 66.298828 136.54492 C 66.585284 136.62132 66.717051 136.71409 66.724609 136.7207 L 66.789062 136.77734 L 66.857422 136.82227 C 66.867533 136.8336 66.899391 136.87572 66.943359 136.99023 C 67.002799 137.14478 67.081784 137.5082 67.105469 138.0293 L 67.107422 138.05859 L 67.109375 138.08789 C 67.159185 138.63584 67.1875 139.37963 67.1875 140.29492 L 67.1875 145.07812 L 64.703125 146.16406 L 64.097656 145.70312 L 64.097656 138.79883 L 64.097656 136.93164 C 64.122346 136.44391 64.135269 135.98753 64.136719 135.56055 C 64.163459 135.13287 64.190167 134.73365 64.216797 134.35937 C 64.271427 133.97329 64.324997 133.55781 64.378906 133.09961 L 64.654297 130.75977 L 62.515625 131.74609 C 62.239895 131.87335 61.798395 132.0385 61.234375 132.21875 C 60.653048 132.3768 60.017482 132.53728 59.324219 132.69727 C 58.626654 132.85825 57.929623 133.00435 57.232422 133.13867 C 56.546015 133.24379 55.925948 133.32349 55.384765 133.375 L 54.294922 133.47852 L 54.080078 135.85156 L 54.791015 136.27734 C 55.084186 136.45325 55.277166 136.63127 55.410156 136.80859 L 55.447265 136.85937 L 55.488281 136.9043 C 55.612439 137.04087 55.756872 137.27257 55.878906 137.63867 L 55.880859 137.65039 L 55.884765 137.66016 C 55.998593 137.98267 56.097594 138.45915 56.146484 139.07031 L 56.148437 139.0957 L 56.152344 139.12305 C 56.226954 139.74481 56.267578 140.51366 56.267578 141.41602 C 56.267578 142.21713 56.239447 143.06178 56.185547 143.95117 L 56.185547 143.9707 L 56.185547 143.99023 C 56.162797 144.74085 56.121235 145.44972 56.060547 146.11523 L 52.03125 146.11523 C 52.015792 146.00084 52.000186 145.88584 51.986328 145.77148 C 51.934758 145.09247 51.910156 144.45518 51.910156 143.86523 C 51.910156 141.96543 52.227756 140.29167 52.845703 138.80859 L 53.101562 138.19336 L 52.179687 136.6582 L 51.30664 136.78906 C 50.826409 136.86106 50.296087 136.89844 49.716797 136.89844 C 49.365782 136.89844 49.027928 136.85224 48.68164 136.83594 C 49.489461 136.37902 50.257167 135.96402 50.796875 135.74414 L 51.919922 135.28711 L 51.558594 134.12891 C 51.300692 133.30362 51.124753 132.52898 51.02539 131.80859 C 50.922318 131.03367 50.871094 130.2924 50.871094 129.58203 L 50.871094 128.86719 C 50.882684 128.75211 50.892737 128.647 50.904297 128.53711 C 51.059648 128.37124 51.269765 128.25539 51.384765 128.06445 C 51.605546 127.71459 51.796248 127.34735 51.957031 126.9668 C 52.139762 126.56935 52.286167 126.17281 52.390625 125.77539 L 52.402344 125.73437 C 52.404706 125.72512 52.407842 125.71629 52.410156 125.70703 C 52.50937 125.38584 52.598913 125.10951 52.671875 124.89062 L 53.347656 122.86523 L 51.232422 123.16797 C 50.871038 123.21957 50.526129 123.25797 50.197265 123.2832 C 49.873509 123.3081 49.533868 123.32031 49.177734 123.32031 C 48.293528 123.32031 47.324176 123.2071 46.271484 122.97656 C 45.220089 122.71268 44.223946 122.41277 43.285156 122.07422 L 43.283203 122.07227 L 43.28125 122.07227 C 43.280425 122.07212 43.27624 122.07043 43.27539 122.07031 L 43.273437 122.07031 C 42.35847 121.72998 41.558895 121.3799 40.876953 121.02734 C 40.205208 120.66564 39.772213 120.34448 39.730469 120.30273 L 38.902344 119.47461 L 37.982422 120.19727 C 36.916355 121.03489 35.91445 121.58584 34.992187 121.88672 C 34.051917 122.17477 33.028368 122.32422 31.904297 122.32422 C 31.13251 122.32422 30.345551 122.27182 29.541016 122.16797 C 28.722845 122.05883 27.874622 121.93744 27 121.80078 L 25.316406 121.53711 L 25.484375 123.23242 C 25.638246 124.80191 26.032811 126.11838 26.865234 127.10937 L 26.875 127.11914 L 26.886719 127.13086 C 27.456999 127.7789 28.269809 128.14274 29.066406 128.51562 C 29.223351 129.08122 29.370118 129.67344 29.478516 130.36719 C 29.605594 131.18049 29.671875 132.03931 29.671875 132.94531 C 29.671875 133.8563 29.582335 134.76602 29.404297 135.68164 L 29.400391 135.69922 L 29.398437 135.7168 C 29.255479 136.57454 28.986386 137.35536 28.587891 138.08203 L 28.255859 138.6875 L 28.564453 139.30664 C 28.632033 139.44179 28.738124 139.73127 28.833984 140.13867 L 28.845703 140.18555 L 28.859375 140.23047 C 28.98097 140.61957 29.095959 141.0755 29.199219 141.5918 L 29.199219 141.59766 L 29.201172 141.60352 C 29.301799 142.08151 29.376918 142.5739 29.427734 143.08203 C 29.479624 143.60099 29.505859 144.05936 29.505859 144.44727 C 29.505859 145.00164 29.435059 145.62859 29.285156 146.32812 L 29.28125 146.34766 L 29.277344 146.36523 C 29.160078 146.99847 28.962599 147.60396 28.679687 148.19336 L 28.669922 148.21289 L 28.662109 148.23242 C 28.4095 148.80653 28.092218 149.31016 27.712891 149.75977 C 27.388707 150.11924 27.063597 150.32703 26.662109 150.44922 L 25.166016 150.9043 L 26.273437 153.11914 L 26.998047 153.19141 C 28.053292 153.29692 29.139958 153.46944 30.257812 153.70898 C 31.367277 153.94673 32.449359 154.25005 33.503906 154.61914 L 33.507812 154.62109 L 33.511719 154.62305 C 34.576287 154.98656 35.585572 155.42757 36.541016 155.94336 C 37.51189 156.48011 38.401499 157.10082 39.214844 157.8125 L 40.144531 158.62695 L 41.017578 157.75391 C 41.846227 156.92525 42.754566 156.24192 43.751953 155.69336 C 44.792624 155.12099 45.823588 154.67008 46.845703 154.33789 L 46.853515 154.33594 L 46.863281 154.33203 C 47.946987 153.96199 48.968076 153.68826 49.921875 153.50781 L 49.9375 153.50391 L 49.955078 153.50195 C 50.967596 153.28304 51.85321 153.10539 52.607422 152.9707 L 54.507812 152.63086 L 53.501953 150.98242 C 53.253648 150.57611 53.026917 150.09545 52.832031 149.53516 C 52.646043 149.00043 52.479486 148.44185 52.333984 147.85937 L 55.84375 147.85937 C 55.813657 148.04784 55.78184 148.22542 55.75 148.39258 L 55.746094 148.41797 L 55.742187 148.44336 C 55.697844 148.73899 55.580989 148.98033 55.570312 149.0293 C 55.570181 149.03028 55.570302 149.03246 55.570312 149.0332 L 55.570312 149.03516 L 55.570312 149.03711 L 55.572265 149.03711 L 55.572265 149.03516 L 55.574219 149.03516 L 55.576172 149.03516 L 55.578125 149.0332 C 55.592538 149.02128 55.633116 148.97022 55.695312 148.89258 L 54.75 150.07422 L 56.115234 150.83203 C 56.59355 151.09777 57.012941 151.34788 57.371094 151.57812 L 57.416015 151.60547 L 57.464844 151.63086 C 57.829028 151.82509 58.179899 152.04508 58.521484 152.28906 L 58.539062 152.30078 L 58.55664 152.3125 C 58.921177 152.55552 59.29267 152.83906 59.669922 153.16602 L 59.705078 153.19727 L 59.742187 153.22461 C 60.142859 153.52511 60.614533 153.91773 61.146484 154.39648 L 61.955078 155.12305 C 61.21167 154.7301 60.50074 154.38361 59.83789 154.10742 L 59.826172 154.10156 L 59.8125 154.0957 C 59.124769 153.82657 58.616571 153.64818 58.039062 153.5957 L 57.441406 153.54102 L 57.005859 153.95703 C 56.248042 154.6819 55.602735 155.57461 55.050781 156.61719 L 55.039062 156.63867 L 55.029297 156.6582 C 54.503612 157.7405 54.123808 158.92032 53.882812 160.18555 L 53.583984 161.75195 L 55.177734 161.75195 C 56.517744 161.75195 57.774489 161.98431 58.978515 162.45117 C 60.190116 162.92098 61.565256 163.70454 63.074219 164.81641 L 63.96875 165.47656 L 64.771484 164.70703 C 65.392678 164.11069 66.10984 163.54209 66.923828 163.00586 L 66.927734 163.00391 C 67.763381 162.48185 68.607412 162.02587 69.46289 161.63672 L 69.464844 161.63672 L 69.466797 161.63477 L 69.46875 161.63477 C 70.34251 161.25005 71.197533 160.94537 72.03125 160.7168 C 72.854614 160.5184 73.593452 160.42383 74.238281 160.42383 L 75.908203 160.42383 L 75.521484 158.79883 C 75.420905 158.3764 75.319077 157.53404 75.265625 156.38477 C 75.238685 155.2416 75.224609 153.81113 75.224609 152.08594 L 75.224609 147.85937 L 79.083984 147.85937 L 79.083984 149.80273 C 79.083984 150.44015 78.991704 150.87628 78.908203 151.07422 C 78.866453 151.17318 78.847084 151.21079 78.83789 151.22266 L 78.835937 151.22461 L 78.833984 151.22461 L 78.833984 151.22656 L 78.832031 151.22656 L 78.830078 151.22656 L 78.830078 151.22461 L 78.828125 151.22461 L 78.828125 151.22266 L 78.826172 151.22266 L 78.824218 151.22266 L 77.96289 151.54102 L 77.96289 154.40234 L 89.488281 154.40234 L 89.488281 151.24805 L 88.373047 151.07227 C 87.69046 150.96561 87.420696 150.77345 87.345703 150.69922 C 87.283613 150.60022 87.123047 150.2139 87.123047 149.42969 L 87.123047 147.85937 L 96.505859 147.85937 C 96.462633 148.66284 96.384685 149.3408 96.279297 149.88281 L 96.277343 149.89648 L 96.273437 149.91211 C 96.14083 150.68566 95.895939 151.05702 95.884765 151.08398 L 95.435547 152.79687 L 97.003906 153.38086 C 97.059396 153.36976 97.109689 153.36523 97.160156 153.36523 L 97.269531 153.36523 L 97.376953 153.34766 C 97.472703 153.33166 97.565398 153.32227 97.658203 153.32227 C 98.134769 153.32227 98.811996 153.38397 99.654297 153.51562 C 100.50033 153.64782 101.34716 153.81922 102.19531 154.03125 C 103.04508 154.24369 103.82215 154.4687 104.52734 154.70312 C 105.18951 154.95132 105.62804 155.20295 105.70703 155.26758 L 106.63281 156.02344 L 107.47656 155.17969 C 108.00603 154.65022 108.60407 154.13955 109.27344 153.65039 L 109.28711 153.64062 L 109.30078 153.63086 C 109.96541 153.11961 110.65158 152.67515 111.36133 152.29492 C 112.0826 151.90853 112.79639 151.58932 113.50586 151.33594 C 114.20314 151.0869 114.84226 150.9326 115.41992 150.86328 L 116.80469 150.69727 L 116.5625 149.32422 C 116.47683 148.83876 116.39864 148.3501 116.32812 147.85937 L 119.03125 147.85937 L 119.03125 149.80273 C 119.03125 150.44015 118.93705 150.87628 118.85352 151.07422 C 118.81177 151.17318 118.79386 151.21079 118.78516 151.22266 L 118.7832 151.22461 L 118.78125 151.22461 L 118.78125 151.22656 L 118.7793 151.22656 L 118.77734 151.22656 L 118.77734 151.22461 L 118.77539 151.22461 L 118.77539 151.22266 L 118.77344 151.22266 L 118.77148 151.22266 L 117.91016 151.54102 L 117.91016 154.40234 L 128.18945 154.40234 L 128.18945 151.54102 L 127.34961 151.23047 C 127.33743 151.20813 127.31082 151.15395 127.26758 151.03711 C 127.16643 150.76364 127.06836 150.20738 127.06836 149.42969 L 127.06836 145.65039 C 127.32364 145.77792 127.61059 145.88524 127.85547 146.01953 L 127.86914 146.02734 L 127.88477 146.03516 C 128.49808 146.3517 129.10078 146.74192 129.70312 147.13672 L 129.70312 149.84375 C 129.70312 150.32342 129.6772 150.85284 129.625 151.42773 C 129.5716 152.01518 129.50551 152.58645 129.42578 153.14453 C 129.34938 153.67939 129.24753 154.1832 129.12305 154.65625 L 129.11523 154.68945 L 129.10742 154.7207 C 129.00703 155.19755 128.89637 155.57881 128.79297 155.84766 L 128.31641 157.08984 L 130.68945 157.98047 L 131.29102 157.37891 C 131.56887 157.10105 131.92472 156.79339 132.35352 156.46484 C 132.81864 156.12964 133.32478 155.79179 133.875 155.45117 C 134.43546 155.10422 135.01152 154.76999 135.59961 154.44922 C 136.18277 154.13113 136.73335 153.85642 137.25195 153.62305 L 138.22852 153.18359 L 138 152.13672 C 137.84119 151.41072 137.74023 150.24647 137.74023 148.72266 C 137.74023 148.4176 137.74161 148.13021 137.74609 147.85937 L 140.64453 147.85937 L 140.64453 149.80273 C 140.64453 150.44015 140.55223 150.87628 140.46875 151.07422 C 140.427 151.17318 140.40764 151.21079 140.39844 151.22266 L 140.39648 151.22461 L 140.39453 151.22461 L 140.39453 151.22656 L 140.39258 151.22656 L 140.39062 151.22656 L 140.39062 151.22461 L 140.38867 151.22461 L 140.38867 151.22266 L 140.38672 151.22266 L 140.38477 151.22266 L 139.52344 151.54102 L 139.52344 154.40234 L 151.04883 154.40234 L 151.04883 151.24805 L 149.93164 151.07227 C 149.2502 150.96579 148.9819 150.77375 148.90625 150.69922 C 148.84415 150.60022 148.68164 150.21391 148.68164 149.42969 L 148.68164 147.85937 L 157.46094 147.85937 C 157.44721 148.40245 157.42751 148.94516 157.40039 149.48828 C 157.34989 150.46932 157.19809 151.23887 156.99023 151.7793 L 156.3125 153.53906 L 158.19922 153.57227 C 159.71965 153.59847 161.04012 153.7702 162.1582 154.06836 L 162.16211 154.06836 L 162.16406 154.07031 C 163.32402 154.3729 164.36567 154.80783 165.30273 155.375 L 166.27344 155.96289 L 168.66797 153.08203 C 168.76027 153.21757 168.81083 153.35976 168.91016 153.49414 C 169.45906 154.23677 170.09627 154.86235 170.81836 155.34375 L 172.0625 156.17383 L 172.73047 154.83594 C 172.8441 154.60868 173.05301 154.27567 173.35352 153.875 C 173.64609 153.48489 173.97781 153.10226 174.35156 152.72852 C 174.73567 152.34441 175.11495 152.00374 175.48828 151.70508 L 175.49219 151.70312 L 175.49609 151.69922 C 175.85704 151.40594 176.15719 151.24004 176.35352 151.16992 L 177.22852 150.85742 L 177.22852 148.41992 L 176.20703 148.18359 C 176.00363 148.13667 175.8869 148.07702 175.79492 148.02344 C 175.78952 148.0138 175.7582 147.9688 175.71484 147.85937 L 179.84375 147.85937 L 179.84375 153.06836 L 180.57227 153.43359 C 180.99549 153.6452 181.53927 153.9298 182.19531 154.28516 C 182.84046 154.63461 183.47235 154.99718 184.08984 155.37305 L 184.92383 155.88086 L 185.65234 155.23242 C 185.8153 155.08757 186.11059 154.86911 186.51367 154.61719 C 186.91885 154.36395 187.35312 154.12227 187.81641 153.89062 L 187.8418 153.87695 L 187.86719 153.86328 C 188.34006 153.60058 188.82541 153.35048 189.32617 153.11328 C 189.81705 152.88076 190.27451 152.69149 190.69531 152.54297 L 191.57617 152.23047 L 191.57617 149.46484 L 190.32617 149.39844 C 189.5624 149.35824 189.0448 149.12374 188.54297 148.625 C 188.16043 148.22075 187.88086 147.5325 187.88086 146.31445 L 187.88086 138.63477 L 191.50195 139.09375 L 191.78516 137.95703 C 191.88831 137.5444 192.07393 137.09325 192.34961 136.60742 C 192.66188 136.10624 193.00353 135.65848 193.37695 135.26172 L 193.73633 134.87891 L 193.73633 132.87109 L 187.88086 132.87109 L 187.88086 131.99023 C 187.88086 131.78996 187.89262 131.37901 187.91992 130.80664 L 187.92187 130.80469 C 187.94797 130.23057 187.98547 129.64105 188.03711 129.03906 L 188.03711 129.03711 L 188.03906 129.03516 C 188.03928 129.03441 188.03891 129.03206 188.03906 129.03125 L 188.03906 129.0293 C 188.12086 128.37561 188.20184 127.76291 188.2832 127.19336 C 188.3588 126.66431 188.45752 126.29564 188.49219 126.20898 L 189.83789 122.84766 L 186.64453 124.55664 C 185.49158 125.17333 184.41567 125.67726 183.41992 126.07031 C 182.50558 126.43124 181.49374 126.65355 180.36914 126.72852 L 177.84766 126.89648 L 179.32227 128.74219 L 179.32031 128.74219 L 179.32031 128.74414 L 179.32031 128.74609 C 179.32633 128.77334 179.40914 128.93617 179.45117 129.16016 L 179.45312 129.16797 L 179.45312 129.17578 C 179.52622 129.54117 179.59065 129.97326 179.64258 130.4668 L 179.64258 130.4707 L 179.64453 130.47461 C 179.69723 130.94885 179.73543 131.42257 179.76172 131.89648 L 179.76367 131.9375 L 179.76953 131.97852 C 179.82203 132.42526 179.84375 132.7498 179.84375 132.86133 L 179.84375 133.48437 C 179.00043 134.17286 178.14442 134.7698 177.24023 135.11914 L 176.39648 135.44531 L 176.39648 138.12695 L 179.84375 138.12695 L 179.84375 146.11523 L 175.39648 146.11523 C 175.34702 145.36746 175.32031 144.35301 175.32031 143.07617 C 175.32031 141.08998 175.37801 139.59393 175.47852 138.62891 C 175.59831 137.73075 175.83743 137.09527 176.12109 136.6875 L 176.35742 136.34766 L 176.35742 134.61523 L 175.03711 134.61523 C 173.7809 134.61523 172.78637 134.40212 172.00977 134.03906 C 171.21514 133.62693 170.39809 132.99251 169.57422 132.09375 L 168.85352 131.30859 L 167.93359 131.84766 C 167.30111 132.21842 166.28208 132.61014 164.91797 132.95117 C 163.61758 133.27627 162.00348 133.45117 160.08984 133.45117 L 159.7207 133.45117 C 159.44565 133.36446 159.31357 133.41016 159.13477 133.41016 L 157.4707 133.41016 L 157.57227 133.84375 L 157.84961 135.0293 C 158.05781 135.92159 158.29796 136.68089 158.60547 137.33008 L 158.61719 137.35547 L 158.63086 137.37891 C 158.96012 138.0045 159.34374 138.54555 159.82031 138.98242 L 159.84375 139.00391 L 159.86719 139.02344 C 160.3268 139.40644 160.85858 139.69815 161.42969 139.86133 L 161.48047 139.875 L 161.5332 139.88672 C 162.04245 139.98857 162.57287 140.03516 163.12109 140.03516 C 163.96876 140.03516 164.90444 139.86979 165.99805 139.57422 C 166.44244 139.45411 166.85044 139.26811 167.28125 139.12305 L 167.28125 140.48242 C 167.07036 140.56482 166.92544 140.64461 166.6582 140.72656 C 166.09543 140.87949 165.45908 141.02458 164.74805 141.15625 C 164.04761 141.28596 163.30167 141.38932 162.51367 141.46875 C 161.74621 141.52135 160.99376 141.54883 160.25586 141.54883 C 159.5869 141.54883 158.98143 141.50923 158.44141 141.43555 L 156.16992 141.12695 L 157.04297 143.24609 C 157.18569 143.59272 157.29851 144.02309 157.36914 144.54102 L 157.37109 144.54492 L 157.37109 144.55078 C 157.43946 145.0293 157.47781 145.5512 157.48242 146.11523 L 148.68164 146.11523 L 148.68164 144.11914 L 151.26953 140.47852 L 154.31836 142.07031 L 155.00195 141.28516 C 155.67397 140.51233 156.20434 139.58277 156.60937 138.52344 L 156.61133 138.51758 L 156.61328 138.51172 C 157.01391 137.43311 157.2844 136.26298 157.43359 135.00977 L 157.57227 133.84375 L 156.42969 133.57031 C 155.31396 133.30466 154.29947 133.01556 153.38477 132.70312 L 153.37891 132.70117 C 152.46512 132.36137 151.78609 132.03811 151.38867 131.78711 L 150.01172 130.91797 L 149.44531 132.44531 C 149.21046 133.0808 148.93687 133.64447 148.68164 134.24219 L 148.68164 133.82422 L 147.24414 131.42773 L 146.29492 131.66406 C 145.4248 131.88159 144.42598 132.11433 143.30078 132.36133 C 142.19665 132.57629 141.17398 132.74941 140.24023 132.88281 L 139.10742 133.04492 L 139.10742 135.51367 L 140.64453 136.17773 L 140.64453 146.11523 L 137.85742 146.11523 C 137.89899 145.8076 137.94916 145.49934 138.00781 145.19141 L 138.18164 144.2793 L 137.37891 143.80664 C 136.37826 143.21803 135.29844 142.69296 134.13867 142.22852 L 134.13477 142.22656 C 134.00447 142.17316 133.81644 142.14686 133.68164 142.0957 L 137.48633 140.65625 L 137.20117 139.51758 C 137.18667 139.45938 137.14053 139.15385 137.11523 138.72266 C 137.08853 138.26872 137.07617 137.90124 137.07617 137.63672 C 137.07617 136.59834 137.19368 135.75569 137.39062 135.12109 L 137.82227 133.72852 L 136.39258 133.4375 C 134.94571 133.14277 133.71761 132.82334 132.70898 132.48828 C 131.75006 132.13361 130.90599 131.71141 130.17578 131.22461 L 129.27539 130.62305 L 128.51172 131.38867 C 127.97276 131.92763 127.51719 132.33606 127.06836 132.73828 L 127.06836 126.8418 C 127.06836 125.24792 127.18064 123.99093 127.36914 123.11133 C 127.58448 122.23495 127.88812 121.60809 128.22266 121.19922 L 126.62305 119.17773 z M 37.955078 128.64062 C 38.661443 128.88041 39.341295 129.1953 40.080078 129.33984 L 40.082031 129.33984 L 40.085937 129.3418 C 41.052435 129.52689 42.199638 129.57542 43.322265 129.64453 C 43.307345 129.87019 43.291015 130.09311 43.291015 130.32812 L 43.291015 131.64648 L 43.291015 131.67773 C 43.303325 131.93629 43.317628 132.08617 43.330078 132.29883 C 42.473383 132.96137 41.587713 133.57496 40.583984 134.02344 L 40.578125 134.02539 L 40.574219 134.02734 C 39.829563 134.3673 38.840262 134.61878 37.916016 134.89453 L 37.916016 133.52539 L 37.916016 130.20508 C 37.916016 129.6907 37.942878 129.16147 37.955078 128.64062 z M 95.257812 137.64258 L 95.798828 138.32031 C 95.802763 138.33018 95.807073 138.34179 95.810547 138.35352 C 95.844477 138.46803 95.893347 138.67806 95.943359 138.95312 C 96.044956 139.51191 96.138239 140.21298 96.21875 141.04492 L 96.220703 141.06445 L 96.224609 141.08594 C 96.330843 141.90923 96.411076 142.79145 96.464843 143.73242 L 96.464843 143.73437 C 96.515246 144.59124 96.541623 145.38574 96.544922 146.11523 L 87.123047 146.11523 L 87.123047 144.11914 L 89.710937 140.47852 L 92.757812 142.07031 L 93.441406 141.28516 C 94.113431 140.51233 94.643789 139.58277 95.048828 138.52344 L 95.050781 138.51758 L 95.052734 138.51172 C 95.152194 138.24395 95.174222 137.92138 95.257812 137.64258 z M 127.06836 138.24805 L 129.75586 138.7832 L 127.06836 139.87109 L 127.06836 138.24805 z M 95.767578 138.26367 L 95.769531 138.26367 L 95.771484 138.26562 C 95.776086 138.27186 95.784358 138.28574 95.792968 138.30469 C 95.776894 138.28118 95.769147 138.26805 95.767578 138.26367 z M 104.33789 138.67383 C 104.69706 138.77579 104.92469 138.91195 105.33789 139.00586 L 105.35156 139.00977 L 105.36523 139.01367 C 106.23808 139.19221 107.14079 139.28836 108.03906 139.39844 L 107.97656 148.34766 C 107.43359 148.21995 106.92927 148.06186 106.34961 147.96289 C 105.63653 147.84114 105.02492 147.76391 104.38281 147.67383 C 104.40891 147.09387 104.44053 146.51885 104.45703 145.92969 L 104.45898 145.89453 C 104.51398 144.86743 104.54102 143.93989 104.54102 143.11719 C 104.54102 142.06983 104.51373 141.03655 104.45703 140.01562 L 104.45703 140.01367 C 104.43423 139.59299 104.37403 139.11511 104.33789 138.67383 z M 37.701172 141.5332 C 37.921813 141.5774 38.190965 141.6222 38.392578 141.66602 L 38.419922 141.67187 L 38.447266 141.67773 C 39.044178 141.78155 39.625175 141.91145 40.193359 142.06641 L 40.201172 142.06836 L 40.207031 142.07031 C 40.813567 142.22854 41.437902 142.41224 42.076172 142.625 L 42.105469 142.63672 L 42.136719 142.64453 C 42.56234 142.76371 43.112232 142.9278 43.626953 143.08008 C 43.667583 143.93873 43.707413 144.79634 43.748047 145.66992 L 43.75 145.68555 L 43.75 145.70117 C 43.80788 146.5308 43.898477 147.18735 43.984375 147.87305 C 43.397595 148.12512 42.774244 148.37865 42.30664 148.63086 C 41.809451 148.88014 41.287512 149.24553 40.771484 149.58984 C 40.675954 149.53594 40.604234 149.48476 40.501953 149.42969 C 40.106563 149.21679 39.697783 149.01892 39.27539 148.83789 C 38.888939 148.67227 38.501358 148.52313 38.113281 148.38281 C 37.998729 148.33371 37.910693 148.30901 37.802734 148.26562 C 37.735294 147.79023 37.658746 147.29353 37.625 146.89453 C 37.59898 146.25928 37.583984 145.54119 37.583984 144.73633 C 37.583984 144.0412 37.59829 143.27297 37.625 142.4375 C 37.64596 142.11416 37.676282 141.83941 37.701172 141.5332 z M 167.32422 145.66211 L 167.32422 148.14844 C 166.97672 148.10204 166.56322 147.99943 166.25 147.98633 L 166.24805 147.98633 C 166.05067 147.97733 165.8643 147.95867 165.66992 147.94727 L 165.70508 146.07422 C 166.02268 146.00962 166.2935 145.98262 166.64844 145.89062 L 166.67187 145.88477 L 166.69336 145.87695 C 166.89746 145.81645 167.11685 145.72828 167.32422 145.66211 z M 67.1875 151.07617 L 67.1875 152.72852 L 67.1875 152.74609 C 67.21529 153.7467 67.243424 154.58236 67.271484 155.25586 L 67.273437 155.28125 L 67.27539 155.30664 C 67.33048 155.99519 67.371401 156.54371 67.398437 156.94922 L 67.40039 156.98828 L 67.404297 157.02539 C 67.409797 157.06969 67.416335 157.10299 67.421875 157.14648 L 65.976562 157.60937 C 65.501244 157.26219 65.037637 156.91578 64.458984 156.56445 C 63.691092 156.08151 62.909751 155.6259 62.113281 155.19922 L 62.96289 154.34766 C 63.386351 153.92419 63.793419 153.54544 64.18164 153.20898 L 64.183594 153.20703 L 64.185547 153.20508 C 64.596222 152.84574 65.035516 152.49703 65.501953 152.16016 C 65.962602 151.82747 66.481714 151.48852 67.060547 151.14648 C 67.096523 151.12523 67.150662 151.09775 67.1875 151.07617 z "
       inkscape:label="text" /><g
       inkscape:groupmode="layer"
       id="layer4"
       inkscape:label="Kruh"
       style="display:inline"><path
         id="path2"
         style="fill:none;stroke:#000000;stroke-width:0.189192"
         d="M 219.118,109.6063 A 109.5117,109.5117 0 0 1 109.6063,219.118 109.5117,109.5117 0 0 1 0.09459686,109.6063 109.5117,109.5117 0 0 1 109.6063,0.09459686 109.5117,109.5117 0 0 1 219.118,109.6063 Z"
         inkscape:label="Vnejsi kruh" /><path
         id="circle2"
         style="fill:none;stroke:#000000;stroke-width:0.188976"
         d="M 208.69732,109.6063 A 99.091019,99.091019 0 0 1 109.6063,208.69732 99.091019,99.091019 0 0 1 10.515282,109.6063 99.091019,99.091019 0 0 1 109.6063,10.515282 99.091019,99.091019 0 0 1 208.69732,109.6063 Z"
         inkscape:label="Vnitrni kruh" /></g><path
       id="path1-6"
       style="fill:none;stroke:#000000;stroke-width:0.18897638;stroke-opacity:1;stroke-dasharray:none"
       d="m 127.17773,27.435056 -16.19628,3.055901 -10.39006,1.016445 -7.334166,2.340869 -14.973915,1.226537 1.222361,3.972671 -4.583852,0.30559 2.750311,6.417393 c -3.558423,1.312607 -10.259068,3.533439 -10.390063,7.945341 6.11093,-1.380023 9.671095,6.772354 12.129302,11.306834 4.77479,8.807721 8.710906,17.996802 13.31346,26.891927 3.404893,6.580463 7.675642,12.356486 9.700102,19.557766 h 0.30559 c 1.30469,-3.11196 4.24638,-5.35454 7.63975,-5.50063 v -4.73306 l 7.63975,-3.212274 v 0.305586 c -3.92891,1.61408 -7.42732,2.249878 -7.02857,7.028568 6.55871,-0.57623 12.3632,-3.21235 18.641,-5.06074 5.3859,-1.585763 10.94783,-2.43628 16.19627,-4.718133 l -1.22236,-2.139135 3.66708,-0.611181 -1.83354,-2.444715 5.50063,-1.83354 c -1.81802,-2.557809 -4.92437,-3.075599 -6.9283,-5.500624 -4.26423,-5.160228 -7.07991,-11.595348 -10.28025,-17.418636 -3.30748,-6.018195 -6.64304,-10.847674 -8.01816,-17.724224 -1.41799,-7.090933 0.47391,-13.455132 0.47391,-20.474536 z m -47.06088,8.556522 c 1.82001,0.388487 1.827095,1.739684 2.13913,3.361491 0.605154,3.145327 1.382389,6.593315 1.527951,9.778882 h -0.30559 z m 35.23955,2.973535 1.22236,7.028572 2.75031,-2.139129 c 0.55618,2.435711 -1.11997,2.183951 -2.75031,3.36149 h -0.30559 l -3.36149,-0.91677 -0.61119,2.13913 c -1.87031,-1.278381 -1.01129,-3.523072 -1.22235,-5.500622 l 1.52795,2.13913 v -1.833539 h 2.44472 z M 78.283309,40.57543 c 3.74442,1.728362 3.045163,7.733625 4.177393,11.306833 2.552355,8.054988 5.360691,15.875913 8.179906,23.836027 1.203625,3.398458 3.355425,6.94117 4.144566,10.390064 -2.53963,-1.663306 -3.79942,-6.183424 -4.983744,-8.862113 -3.823574,-8.648084 -7.513057,-17.54265 -9.202918,-26.891928 -0.455525,-2.520224 -2.942688,-7.51639 -2.315203,-9.778883 z m 14.765016,2.667945 0.61118,4.889441 h 0.30559 l 1.222361,-2.44472 0.30559,2.44472 h 2.75031 l 0.916775,-4.27826 h 0.305586 v 4.88944 c 2.696343,-0.523201 3.333633,-1.02248 3.972663,-3.667082 h 0.3056 v 3.361492 l 3.97267,-0.30559 -0.91677,-1.52795 c 1.24269,0.377288 2.07451,1.744272 0.56582,2.550959 -1.44906,0.774796 -3.63685,0.646522 -5.14967,0.199351 -0.66262,0.701357 -1.5944,0.299393 -2.399361,0.849923 -1.269891,0.868499 -0.962132,2.709594 -0.962132,4.039518 h -0.611181 l -0.305587,-3.66708 -5.195034,2.44472 c -0.861156,-2.91341 -0.392409,-6.855213 0.30559,-9.778882 z m 13.751555,6.722981 c 1.00878,0.529897 1.33147,1.000481 1.22237,2.139131 l 2.13912,0.305591 c -3.26377,3.25692 -5.42073,1.761956 -3.36149,-2.444722 z m -4.27826,0.30559 h 0.61118 v 5.195033 c -1.47535,-0.03439 -2.95743,0.100693 -3.972669,1.22236 l -2.750314,-0.305591 -2.750312,1.527951 c -0.693737,-3.495337 5.763698,-1.922788 7.590215,-3.063064 1.13788,-0.710368 0.8769,-3.330219 1.2719,-4.576689 z m 4.58385,0.305591 -0.30559,2.75031 c 1.0029,-0.883057 1.09955,-1.658913 0.30559,-2.75031 z m 6.49439,0.786653 c 0.70796,-0.0096 1.37161,0.213773 1.75654,0.741297 l -4.58385,0.91677 c 0.34397,-0.979006 1.64737,-1.642029 2.82731,-1.658067 z m 7.86834,1.046888 h 0.61118 l 0.91678,6.111801 -1.52796,0.61118 z m -9.16771,3.97267 -0.30558,3.361492 0.91677,-0.916771 5.19503,-0.91677 v 1.22236 c -1.76984,0.03654 -5.1026,1.592345 -6.62569,0.968101 -1.72965,-0.708908 -0.56336,-3.416645 0.81947,-3.718412 z m -9.77887,1.527951 h 0.91676 v 5.19503 c -2.75763,-0.590184 -4.03805,1.771125 -6.417384,2.444722 l 0.61118,-6.417392 h 0.305593 v 3.97267 l 1.222362,-1.833539 h 0.305586 l 1.222363,-0.30559 c 2.05511,0.504428 1.85784,-1.635588 1.83354,-3.055901 z m 7.05363,1.785792 c 0.19531,0.0015 0.39102,0.01736 0.58612,0.04775 v 0.611181 l -3.0559,2.139131 h -0.30559 l -0.91677,-0.611181 -0.91677,0.916771 v 8.250932 c -4.17621,-0.660373 -0.81078,-5.147115 -1.52796,-7.639752 l 0.91678,0.30559 0.61118,-3.0559 h 0.30559 l 0.30559,0.91677 h 0.61118 c 0.69001,-1.207096 2.01945,-1.891847 3.38655,-1.881289 z m -27.930449,0.435705 1.222358,3.667081 H 82.561571 Z M 125.13528,60.9676 h 0.61118 l 0.61118,6.722981 -1.40679,-3.085743 -5.0106,1.863383 0.61119,-4.278261 0.61118,2.750312 1.22236,-1.222361 h 2.13912 z m -11.61242,1.52795 0.91677,3.972671 h 0.61118 l 0.30559,-0.91677 2.13913,0.305591 c -1.0367,1.694566 -5.13862,1.526422 -7.02857,1.52795 l 0.91677,-1.52795 1.22236,0.305588 z m -4.88943,2.444722 0.61118,1.527949 0.91676,-0.305591 -0.91676,2.444722 h -0.3056 z m 23.90107,9.735906 c 1.00734,0.06665 2.00792,0.493977 2.86312,1.384705 0.66258,0.690079 0.98748,1.683659 0.96273,2.630942 -0.0258,0.990537 -0.40002,1.883639 -0.83501,2.75031 l 3.66709,1.833542 c -0.95397,1.536314 -2.66481,1.807726 -4.27827,1.222359 l -3.36148,2.750312 0.91677,-4.278262 c -0.99706,0 -2.06866,0.108943 -3.05531,-0.04536 -2.18784,-0.342156 -2.81277,-2.676953 -2.14928,-4.538488 0.80438,-2.256887 3.0535,-3.856667 5.26964,-3.710058 z m -12.89984,1.876517 c -0.82243,2.407789 -6.604,3.70778 -8.86211,4.583851 0.10491,-3.196946 6.13704,-4.44428 8.86211,-4.583851 z m -9.77888,2.750311 c 0.82317,3.117357 -4.19798,3.452305 -6.4174,3.972671 l -0.30558,-0.305591 v -0.611179 z m 12.5292,3.055901 c -0.51031,1.696104 -1.9063,1.670804 -3.3615,2.299683 -2.77284,1.198329 -5.51716,2.752084 -8.55652,3.200939 1.02364,-2.998828 9.02065,-5.072732 11.91802,-5.500622 z m -12.22361,5.195028 c -0.48429,1.392873 -2.26351,2.113097 -3.66708,2.139134 v -0.916773 z m 33.79815,3.538158 c 0.18733,-0.0073 0.36572,-0.0067 0.53299,0.0032 0.61755,0.03541 1.08699,0.191718 1.32621,0.513898 -3.45716,0.924189 -7.36774,2.514911 -11.00124,2.139127 1.44651,-0.649376 6.33195,-2.547654 9.14204,-2.656005 z m -13.4203,2.656012 v 0.305588 h -0.91677 z m -31.781373,0.305588 1.222361,2.444721 h -0.305594 z m 2.139133,3.667081 3.66707,4.889446 -2.13912,0.61118 z"
       inkscape:label="znak" /></g></svg>
