<?xml version="1.0" encoding="UTF-8" standalone="no"?>
<svg
   version="1.2"
   viewBox="0 0 219.2126 219.2126"
   width="58mm"
   height="58mm"
   id="svg1"
   sodipodi:docname="Cert3TokenLaser.svg"
   inkscape:version="1.4.2 (2aeb623e1d, 2025-05-12)"
   xml:space="preserve"
   xmlns:inkscape="http://www.inkscape.org/namespaces/inkscape"
   xmlns:sodipodi="http://sodipodi.sourceforge.net/DTD/sodipodi-0.dtd"
   xmlns="http://www.w3.org/2000/svg"
   xmlns:svg="http://www.w3.org/2000/svg"><sodipodi:namedview
     id="namedview1"
     pagecolor="#ffffff"
     bordercolor="#666666"
     borderopacity="1.0"
     inkscape:showpageshadow="2"
     inkscape:pageopacity="0.0"
     inkscape:pagecheckerboard="0"
     inkscape:deskcolor="#d1d1d1"
     inkscape:zoom="0.7633523"
     inkscape:cx="262.00222"
     inkscape:cy="172.26646"
     inkscape:window-width="1920"
     inkscape:window-height="940"
     inkscape:window-x="0"
     inkscape:window-y="0"
     inkscape:window-maximized="1"
     inkscape:current-layer="layer2"
     showgrid="false"
     inkscape:document-units="mm" /><defs
     id="defs1"><clipPath
       clipPathUnits="userSpaceOnUse"
       id="cp1"><path
         d="m 275.5,535.5 c -143.78,0 -260,-116.22 -260,-260 0,-143.78 116.22,-260 260,-260 143.78,0 260,116.22 260,260 0,143.78 -116.22,260 -260,260 z"
         id="path1" /></clipPath></defs><style
     id="style1">
		tspan { white-space:pre } 
		.s0 { fill: none;stroke: #ff0000;stroke-miterlimit:100 } 
	</style><g
     inkscape:groupmode="layer"
     id="layer2"
     inkscape:label="Content"
     style="display:inline"><path
       id="path5-3"
       style="display:inline;fill:none;stroke:#000000;stroke-width:0.18897638;stroke-dasharray:none;stroke-opacity:1"
       inkscape:label="text"
       d="m 86.379933,143.08102 -0.848034,0.49425 c -0.29511,0.17214 -0.654126,0.36526 -1.067369,0.57237 -0.433791,0.19022 -0.878965,0.39198 -1.336278,0.60692 -0.451789,0.18603 -0.903267,0.37132 -1.355056,0.55734 -0.268086,0.10033 -0.487095,0.17084 -0.717337,0.24788 -0.265378,-0.0943 -0.522995,-0.18598 -0.821747,-0.29144 l -1.366326,-0.56261 c -0.447889,-0.21034 -0.883938,-0.40905 -1.309237,-0.59565 -0.405271,-0.21576 -0.777324,-0.40894 -1.110181,-0.57537 l -0.792454,-0.39585 -0.667014,0.58363 c -0.454628,0.3978 -0.800264,0.71313 -1.060608,0.97348 -0.14933,0.14933 -0.441621,0.41654 -0.84503,0.76616 l -1.241636,1.07638 1.319003,0.98024 c 0.995979,0.73987 2.138515,1.52927 3.429704,2.37135 l 0.01354,0.009 0.01427,0.009 c 1.179299,0.72765 2.284865,1.49618 3.343323,2.29097 -0.405197,0.004 -0.600965,0.0406 -1.030564,0.0406 -1.38702,0 -2.873889,-0.0268 -4.456512,-0.0811 h -7.69e-4 -7.69e-4 l -7.69e-4,-7.7e-4 c -3.77e-4,-9e-5 -0.0012,7e-5 -0.0015,0 h -7.69e-4 c -1.548695,-0.0816 -3.198081,-0.21741 -4.946255,-0.40862 l -2.214363,-0.24187 0.851795,2.05888 c 0.399805,0.9662 0.997356,1.85484 1.762173,2.65152 l 0.009,0.01 0.0098,0.01 c 0.533605,0.53361 1.089956,0.93121 1.666027,1.25741 0.0089,0.12666 0.01658,0.18402 0.02554,0.33651 0.02561,0.43576 0.03981,0.96585 0.03981,1.5834 0,0.74366 -0.02727,1.54701 -0.08112,2.4089 -0.05178,0.8285 -0.154838,1.64182 -0.309467,2.44196 -0.150565,0.75184 -0.361901,1.45903 -0.633213,2.12497 l -0.0053,0.012 -0.0045,0.012 c -0.224716,0.58426 -0.493825,0.99709 -0.781186,1.28445 l -0.839772,0.84053 0.747384,0.92315 c 0.277958,0.34336 0.594551,1.01627 0.816486,2.02732 l 0.0031,0.015 0.0038,0.0143 c 0.250476,1.02695 0.377823,2.11054 0.377823,3.25844 0,0.74209 -0.05168,1.57931 -0.157737,2.50731 -0.102957,0.87343 -0.269151,1.71721 -0.498759,2.53359 l -0.0053,0.018 -0.0045,0.0188 c -0.203406,0.81363 -0.453243,1.51882 -0.739873,2.11596 l -0.0098,0.0195 -0.009,0.0203 c -0.238942,0.54306 -0.475622,0.76625 -0.550589,0.81123 l -0.907375,0.54458 0.807476,2.42317 1.27919,-0.47396 c 0.588155,-0.21784 1.242947,-0.33276 1.991273,-0.33276 1.746794,0 3.73416,0.15973 5.95353,0.48448 h 7.69e-4 c 2.204425,0.35023 4.440382,0.86205 6.707675,1.53684 l 0.683539,0.20356 0.545328,-0.4612 c 0.68797,-0.58213 1.298958,-1.04768 1.822265,-1.39712 0.553188,-0.35098 1.055339,-0.61878 1.491011,-0.80222 0.458212,-0.19293 0.857494,-0.315 1.184548,-0.37632 l 0.02931,-0.005 0.03004,-0.007 c 0.422853,-0.0995 0.843534,-0.17369 1.263418,-0.22309 l 1.497022,-0.17651 -0.08864,0.14422 h 2.362335 c 0.376058,0 0.931954,0.0567 1.627719,0.18553 l 0.0045,7.7e-4 0.0038,7.6e-4 c 0.717802,0.12818 1.453595,0.30833 2.207597,0.54233 l 0.02554,0.007 0.02554,0.007 c 0.770472,0.20546 1.512812,0.46088 2.228632,0.76766 0.70362,0.30155 1.26689,0.61846 1.68856,0.92916 l 0.77067,0.56786 0.77968,-0.55659 c 0.27385,-0.19561 0.70838,-0.43499 1.27243,-0.68204 0.62646,-0.23401 1.27922,-0.45641 1.96123,-0.66626 l 0.0218,-0.007 0.0218,-0.008 c 0.66261,-0.22937 1.32063,-0.40648 1.97625,-0.53256 l 0.024,-0.005 0.0233,-0.006 c 0.68239,-0.15748 1.25871,-0.25742 1.71034,-0.30497 l 1.68631,-0.17802 -0.58588,-1.59091 c -0.16211,-0.44001 -0.27311,-0.8725 -0.34253,-1.30022 -0.0253,-0.26367 -0.045,-0.59102 -0.0578,-0.98099 h 3.22013 v 0.57838 c 0,0.63741 -0.093,1.07449 -0.17652,1.27243 -0.047,0.11133 -0.0642,0.14335 -0.0721,0.15023 l -7.7e-4,7.7e-4 h -7.6e-4 -7.7e-4 v 7.7e-4 h -7.7e-4 l -7.7e-4,-7.7e-4 h -7.7e-4 -7.7e-4 v -7.7e-4 h -7.7e-4 l -7.7e-4,-7.7e-4 -7.7e-4,-7.7e-4 v -7.7e-4 h -7.7e-4 v -7.7e-4 h -7.7e-4 -7.7e-4 -7.6e-4 -7.7e-4 l -0.86156,0.31924 v 2.86109 h 11.52548 v -3.15554 l -1.11619,-0.17427 c -0.66232,-0.10348 -0.94648,-0.28593 -1.03282,-0.36505 -0.0648,-0.11009 -0.21783,-0.51075 -0.21783,-1.27919 v -5.30906 l 2.58768,-3.64152 3.04812,1.59242 0.68429,-0.78645 c 0.67202,-0.77282 1.20165,-1.70185 1.60669,-2.76119 l 0.002,-0.006 0.002,-0.006 c 0.0458,-0.12337 0.0732,-0.25962 0.11568,-0.38534 h 2.70561 v 14.94242 l 0.72935,0.36506 c 0.42323,0.21161 0.96641,0.49643 1.62246,0.85179 0.64515,0.34945 1.27688,0.71178 1.89438,1.08765 l 0.83301,0.50777 0.72936,-0.64823 c 0.16296,-0.14486 0.45772,-0.36326 0.86081,-0.61519 0.40517,-0.25323 0.83918,-0.49546 1.30247,-0.7271 l 0.0263,-0.0128 0.0248,-0.0143 c 0.47287,-0.2627 0.95945,-0.51243 1.46021,-0.74964 0.49087,-0.23252 0.94853,-0.42234 1.36933,-0.57086 l 0.88034,-0.31097 v -2.7672 l -1.25065,-0.0661 c -0.76201,-0.0401 -1.2802,-0.27283 -1.78095,-0.76917 -0.38385,-0.40387 -0.66401,-1.09352 -0.66401,-2.31426 v -7.6789 l 3.62124,0.45669 0.28393,-1.13572 c 0.10314,-0.41255 0.28853,-0.86409 0.56411,-1.3498 0.31216,-0.5009 0.65356,-0.94946 1.02681,-1.34604 l 0.35905,-0.38083 v -2.0093 h -5.85514 v -0.88109 c 0,-0.20025 0.0125,-0.61068 0.0398,-1.18304 l 7.7e-4,-0.002 v -0.002 c 0.0265,-0.58336 0.0665,-1.18156 0.11943,-1.79372 0.0809,-0.64589 0.16136,-1.25274 0.24187,-1.81625 0.0756,-0.52905 0.1749,-0.89733 0.20956,-0.984 l 1.34454,-3.36134 -3.19234,1.70734 c -1.15295,0.61669 -2.22964,1.12123 -3.2254,1.51429 -0.91434,0.36093 -1.92502,0.58303 -3.04962,0.658 l -2.52157,0.16826 1.50002,1.87484 c -0.013,-0.0159 -0.0218,-0.0254 -0.0255,-0.0278 h -7.6e-4 -7.7e-4 v 7.7e-4 7.7e-4 c 7.7e-4,0.019 0.0866,0.18413 0.12994,0.41538 l 0.002,0.007 0.002,0.008 c 0.0731,0.36545 0.13733,0.79763 0.18928,1.29121 l 7.7e-4,0.004 v 0.004 c 0.0527,0.47428 0.0924,0.94797 0.11868,1.42191 l 0.002,0.0406 0.005,0.0406 c 0.0525,0.44673 0.0744,0.77263 0.0744,0.8841 v 0.67827 c -0.64131,0.52251 -1.30007,0.93863 -1.9755,1.26267 l 0.11418,-0.95996 -1.14399,-0.27191 c -1.12039,-0.26676 -2.13871,-0.5589 -3.05639,-0.87282 -0.90875,-0.33845 -1.58779,-0.66106 -1.98375,-0.91113 l -1.37835,-0.86982 -0.56485,1.52856 c -0.23491,0.63563 -0.50863,1.1989 -0.76391,1.79673 v -0.41764 l -1.43844,-2.39763 -0.94869,0.23736 c -0.86248,0.21562 -1.85463,0.44647 -2.96775,0.69105 -1.11481,0.21746 -2.14411,0.39354 -3.08568,0.52805 l -1.13347,0.16224 v 2.46825 l 1.53683,0.66476 v 11.30165 h -3.23666 v -0.25239 c 0,-0.29551 0.0122,-0.59045 0.0368,-0.88634 l 0.16074,-1.92668 -1.85306,0.55209 c -1.43322,0.42692 -2.57558,0.98519 -3.38163,1.87184 l -0.0113,0.012 -0.0113,0.0128 c -0.41893,0.48508 -0.71149,1.05475 -0.94193,1.65551 -0.11547,-0.0109 -0.19095,-0.0161 -0.31547,-0.0285 -0.52939,-0.0793 -1.07138,-0.15812 -1.62547,-0.23736 -0.56178,-0.10712 -1.0966,-0.21408 -1.60368,-0.32074 l -0.002,-7.7e-4 c -0.0463,-0.0103 -0.0624,-0.0211 -0.10666,-0.0315 0.0326,-0.31842 0.0574,-0.58494 0.0961,-0.94644 0.0476,-0.44472 0.0653,-0.9032 0.0954,-1.35581 1.32397,-0.20959 2.65449,-0.4147 4.03212,-0.58964 l 0.0105,-0.002 0.01,-0.002 c 1.71877,-0.24554 3.409,-0.4362 5.07019,-0.57237 l 1.74114,-0.14272 -0.61293,-1.63598 c -0.13858,-0.36954 -0.27717,-0.84172 -0.40561,-1.40688 -0.12807,-0.56348 -0.23147,-1.15764 -0.30948,-1.7817 -0.0808,-0.64645 -0.1482,-1.29248 -0.20205,-1.93869 -0.0528,-0.66081 -0.0789,-1.26242 -0.0789,-1.80049 0,-0.69851 0.0412,-1.25904 0.10666,-1.65175 l 0.24788,-1.485 -1.50529,-0.0511 c -1.6079,-0.0545 -3.2295,-0.14997 -4.86588,-0.28618 -1.62632,-0.16295 -2.98679,-0.35232 -4.06066,-0.56185 l -0.68955,-0.13445 -0.4965,0.4965 c -0.91108,0.91108 -1.821026,1.65176 -2.725132,2.22938 l -0.0075,0.005 -0.0068,0.005 c -0.820239,0.53902 -1.725172,0.90128 -2.755179,1.09291 l -1.451203,0.26966 0.429653,1.41214 c 0.165848,0.54493 0.354694,1.39193 0.543074,2.49529 l 0.0031,0.018 0.0038,0.0188 c 0.196153,0.98075 0.306467,2.3036 0.306467,3.93447 0,0.6277 -0.02596,1.33212 -0.07962,2.10996 l -0.0015,0.0233 -0.0015,0.0225 c -0.018,0.52178 -0.05408,1.03601 -0.108918,1.54359 h -2.99404 c -0.03365,-0.6281 -0.05108,-1.29356 -0.05108,-1.99653 0,-0.56036 0.013,-1.1354 0.03981,-1.72536 v -0.002 l 7.69e-4,-0.002 c 0.02604,-0.59853 0.07806,-1.19735 0.156238,-1.79672 l 0.140465,-1.07864 -2.09568,-0.69856 -0.578379,0.63471 c -1.162766,1.27621 -2.255921,2.59578 -3.277975,3.95851 l -0.0053,0.007 -0.0053,0.007 c -0.851572,1.16787 -1.440077,2.50678 -1.88386,3.92696 l -4.853113,-0.48899 c -0.06833,-0.90408 -0.138096,-1.79735 -0.17802,-2.91518 -0.02727,-1.56252 -0.04131,-3.20645 -0.04131,-4.93498 0,-1.25903 0.01404,-2.51845 0.04131,-3.77749 0.05464,-1.28361 0.10913,-2.51289 0.163748,-3.68809 v -0.004 c 0.08202,-1.17541 0.163718,-2.28141 0.245622,-3.32004 0.06528,-0.61932 0.143669,-1.09799 0.217832,-1.62246 0.173855,-0.006 0.278923,-0.005 0.475472,-0.0128 0.644547,-0.0268 1.317764,-0.0406 2.020567,-0.0406 0.844565,0 1.526151,0.0414 2.014557,0.11117 0.24041,0.0344 0.348898,0.11914 0.497255,0.18854 0.22635,1.06503 0.508319,2.04502 0.902117,2.88513 l 0.01127,0.0233 0.01127,0.0218 c 0.553827,1.07304 1.410414,2.00924 2.50355,2.82128 l 0.609172,0.45219 1.699829,-0.72861 0.08112,-0.76991 c 0.05429,-0.51576 0.136673,-1.28544 0.244872,-2.28648 v -0.002 c 0.137215,-1.01533 0.288091,-2.05846 0.452939,-3.13 0.162702,-1.05758 0.324981,-2.02971 0.486737,-2.92119 0.184188,-0.86621 0.386037,-1.46462 0.427399,-1.54734 l 0.772921,-1.54585 -1.694572,-0.33876 c -0.206982,-0.0414 -0.414704,-0.0533 -0.622694,-0.0578 -0.220363,-0.0297 -0.440979,-0.0511 -0.674521,-0.0511 -1.158546,0 -2.657399,0.10168 -4.538385,0.2982 -0.971716,0.10153 -2.576468,0.10742 -3.911938,0.15474 1.595418,-1.08616 3.027226,-2.0559 4.147041,-2.8025 l 0.01127,-0.008 c 1.280133,-0.8351 2.10343,-1.39808 2.618472,-1.83954 l 1.210088,-1.03733 -1.244639,-0.99526 c -0.392879,-0.3143 -0.683409,-0.56998 -0.846534,-0.73311 -0.240895,-0.2409 -0.566414,-0.55244 -0.987749,-0.94569 z M 103.065,169.26349 c 0.27418,0.0526 0.52098,0.12997 0.80447,0.17427 l 0.0225,0.004 0.0225,0.003 c 0.47678,0.0578 0.83236,0.0584 1.24688,0.0879 0.0218,0.27047 0.0177,0.54772 0.0541,0.81424 l 0.004,0.0293 0.005,0.0285 c 0.0337,0.18551 0.0786,0.35294 0.11493,0.53406 l -2.09118,0.51829 c -0.0224,-0.29678 -0.0295,-0.55967 -0.0586,-0.87208 l -7.7e-4,-0.008 c -0.024,-0.38364 -0.0853,-0.88483 -0.12394,-1.31374 z m -10.533981,10.58356 h 2.610211 c -0.05615,0.31495 -0.121452,0.6194 -0.194546,0.91263 -0.144911,0.55385 -0.310481,0.94395 -0.426649,1.13273 l -1.072626,1.74339 -0.475472,-1.42792 c -0.140112,-0.42033 -0.307256,-1.23835 -0.440168,-2.35482 -2.19e-4,-0.002 -3.84e-4,-0.004 -7.69e-4,-0.006 z m -20.577471,3.23666 -0.0105,0.024 c 0.0015,-0.005 0.0031,-0.0111 0.0053,-0.0158 0.0015,-0.003 0.0035,-0.006 0.0053,-0.008 z" /><g
       inkscape:groupmode="layer"
       id="layer4"
       inkscape:label="Kruh"
       style="display:inline"><path
         id="path2"
         style="fill:none;stroke:#000000;stroke-width:0.189192"
         d="M 219.118,109.6063 A 109.5117,109.5117 0 0 1 109.6063,219.118 109.5117,109.5117 0 0 1 0.09459686,109.6063 109.5117,109.5117 0 0 1 109.6063,0.09459686 109.5117,109.5117 0 0 1 219.118,109.6063 Z"
         inkscape:label="Vnejsi kruh" /><path
         id="circle2"
         style="fill:none;stroke:#000000;stroke-width:0.188976"
         d="M 208.69732,109.6063 A 99.091019,99.091019 0 0 1 109.6063,208.69732 99.091019,99.091019 0 0 1 10.515282,109.6063 99.091019,99.091019 0 0 1 109.6063,10.515282 99.091019,99.091019 0 0 1 208.69732,109.6063 Z"
         inkscape:label="Vnitrni kruh" /></g><path
       style="display:inline;opacity:1;baseline-shift:baseline;overflow:visible;fill:none;stroke:#000000;stroke-opacity:1;enable-background:accumulate;stop-color:#000000;stop-opacity:1;stroke-width:0.49137931;stroke-dasharray:none"
       d="m 281.95703,64.841797 c -2.20458,0.03155 -2.18444,0.74889 -2.51953,1.044922 -0.33509,0.296031 -0.57666,0.562153 -0.83984,0.865234 -0.52638,0.606162 -1.09337,1.343855 -1.74024,2.236328 -1.29374,1.784946 -2.87333,4.159441 -4.49219,6.777344 -4.52788,7.322211 -6.25781,11.021563 -6.25781,15.041016 0,1.454426 -0.16633,1.980675 -0.17969,2.007812 -0.0134,0.02714 -0.002,0.119535 -0.9082,0.658203 -5.75014,3.41759 -9.44693,8.595834 -15.44336,20.769534 -1.63168,3.31257 -3.07887,6.36081 -4.11133,8.63867 -0.51622,1.13893 -0.92807,2.07839 -1.22265,2.80859 -0.14729,0.3651 -0.26253,0.66533 -0.36914,0.99805 -0.0533,0.16636 -0.10644,0.32455 -0.16407,0.63672 -0.0288,0.15608 -0.0692,0.34113 -0.0644,0.72265 0.005,0.38153 -0.15041,1.12295 0.88477,2.26954 0.86938,0.96299 1.84726,1.10196 2.36132,1.13476 0.51407,0.0328 0.79128,-0.0288 1.01563,-0.0762 0.44869,-0.0947 0.676,-0.19501 0.91211,-0.29297 0.47222,-0.19593 0.88864,-0.41326 1.37305,-0.68164 0.96881,-0.53677 2.14024,-1.26421 3.39648,-2.11133 2.03773,-1.37409 5.41322,-3.16774 8.42969,-4.5332 1.50823,-0.68273 2.94054,-1.26834 4.05469,-1.6582 0.89195,-0.31212 1.29337,-0.36207 1.35742,-0.4043 0.0467,0.0205 0.0641,0.008 0.10937,0.0371 0.40022,0.26191 0.9477,0.71218 1.35938,1.15039 l 1.23437,1.3125 -1.47656,31.45117 c -1.10629,23.5801 -1.63223,40.48623 -1.5625,52.50586 0.0697,12.01964 0.60516,19.01908 2.17773,23.58984 0.22737,0.66086 0.15288,0.46742 0.3125,0.99219 -0.78822,0.39368 -1.52692,0.94481 -2.10351,1.85352 -0.50194,0.79105 -0.46007,1.02098 -0.52344,1.29297 -0.0634,0.27198 -0.0994,0.50172 -0.13476,0.75 -0.0706,0.49655 -0.12539,1.05374 -0.17774,1.72265 -0.10469,1.33783 -0.1952,3.09872 -0.27148,5.20899 -0.15256,4.22052 -0.24793,9.81428 -0.25196,15.8125 -0.004,5.92257 -0.1136,11.59467 -0.28711,15.91992 -0.0867,2.16262 -0.19025,3.99289 -0.29882,5.3164 -0.0543,0.66176 -0.11138,1.19949 -0.16016,1.55469 -0.0488,0.35521 -0.17201,0.64844 -0.002,0.20117 -0.0704,0.18507 -1.60481,2.16555 -2.28516,2.61133 -0.95291,0.62438 -1.10156,0.64688 -1.36523,0.66992 -0.26368,0.0231 -1.0729,-0.056 -2.76954,-0.50976 -8.05046,-2.15318 -14.54512,-5.03012 -21.11523,-9.33594 -6.07325,-3.98021 -6.56817,-4.56733 -11.50195,-12.86133 -1.54636,-2.5995 -3.06217,-5.10611 -4.26953,-7.06445 -1.20737,-1.95834 -1.81725,-3.01794 -2.55469,-3.9707 0.42628,0.55075 -0.024,-0.0718 -0.31836,-0.69727 -0.29435,-0.62547 -0.68499,-1.50762 -1.12891,-2.55078 -0.88784,-2.08633 -1.995,-4.8286 -3.08593,-7.67969 -3.94018,-10.2974 -7.22577,-25.52032 -7.64258,-35.14844 -0.39281,-9.07345 -4.07847,-18.79568 -10.54297,-28.67773 -3.29613,-5.03868 -4.73951,-8.31395 -4.84375,-9.26953 -0.0521,-0.47779 -0.0689,-0.21343 -0.004,-0.29297 0.065,-0.0795 0.55055,-0.49317 1.63477,-0.95117 2.67655,-1.13064 3.34618,-1.15278 8.95117,-0.36328 1.99171,0.28081 3.85305,0.48416 5.32227,0.58984 0.7346,0.0528 1.36128,0.0846 1.93359,0.0801 0.28615,-0.002 0.54965,-0.009 0.89844,-0.0527 0.34878,-0.0437 0.65706,0.36724 2.08398,-0.90625 1.18195,-1.05481 1.27139,-2.84334 1.08203,-3.60351 -0.18935,-0.76017 -0.4401,-1.11878 -0.66406,-1.45899 -0.44791,-0.68041 -0.91572,-1.1847 -1.49805,-1.77929 -1.16466,-1.18918 -2.75841,-2.59289 -4.70703,-4.19531 -3.89723,-3.20484 -9.16782,-7.13196 -14.49414,-10.69727 -5.67814,-3.80081 -12.17498,-8.38052 -13.92383,-9.76563 -1.08638,-0.86043 -2.13814,-1.63775 -3.02343,-2.23828 -0.44265,-0.30026 -0.83568,-0.55312 -1.23047,-0.77734 -0.1974,-0.11211 -0.38971,-0.21648 -0.6543,-0.33203 -0.26459,-0.11555 -0.42596,-0.3457 -1.56445,-0.3457 0.82231,0 0.84773,0.11779 0.9082,0.13867 0.0605,0.0209 0.0198,0.009 -0.0527,-0.0234 -0.14518,-0.0652 -0.43574,-0.20905 -0.78516,-0.39648 -0.69884,-0.37487 -1.65463,-0.9317 -2.62109,-1.53711 -2.96988,-1.8604 -6.35261,-3.43552 -9.4043,-4.50586 -1.52585,-0.53517 -2.95923,-0.94374 -4.29688,-1.17969 -1.33764,-0.23596 -2.48406,-0.5103 -4.23632,0.16211 -0.90714,0.3481 -1.91852,0.64474 -2.77735,2.25391 -0.42941,0.80458 -0.59597,2.12703 -0.21875,3.14257 0.17295,0.46561 0.41321,0.81837 0.66602,1.12305 0.0478,0.13825 0.0883,0.24557 0.16406,0.50391 0.22783,0.77682 0.53598,1.99236 0.88281,3.49609 0.69367,3.00747 1.55687,7.19976 2.45899,11.91992 1.80423,9.44033 3.77458,21.02492 4.96289,29.76172 1.0169,7.47654 2.03472,12.32944 4.625,15.59375 0.64757,0.81608 1.51492,1.65639 2.90234,2.03711 1.38742,0.38072 3.07945,-0.0726 4.07617,-0.82227 1.99345,-1.49928 2.59388,-3.36557 3.32617,-5.8457 0.47415,-1.60582 1.35956,-3.2086 1.94727,-4.29101 0.47655,0.67143 0.71692,0.92994 1.34766,1.95898 1.1945,1.94882 2.58012,4.39265 3.92187,6.90234 2.68352,5.0194 5.26172,10.65833 5.74219,12.35547 1.41858,5.0107 3.47656,22.52754 3.47656,31.15235 0,7.98965 2.90239,21.6293 6.33985,30.70507 6.37602,16.83435 9.25036,23.13984 13.80078,30.14649 5.24065,8.06944 12.70105,15.56788 19.63672,19.33203 3.12953,1.69847 7.93267,3.81395 12.42773,5.61133 2.24753,0.89869 4.40168,1.70785 6.2168,2.32617 1.81512,0.61832 3.03309,1.05957 4.52734,1.21289 3.74208,0.38395 6.95585,0.86968 9.22461,1.35742 1.07676,0.23149 1.89982,0.46237 2.44727,0.65039 0.10878,0.44207 0.23134,0.98329 0.36328,1.72657 0.31045,1.74895 0.64026,4.15425 0.93359,6.8125 0.58667,5.31648 1.03551,11.69535 1.05469,16.21679 0.007,1.76673 0.0865,3.43305 0.21679,4.78906 0.0651,0.67801 0.13932,1.27045 0.25,1.83399 0.0435,0.2212 0.10534,0.45349 0.17774,0.69922 v 0.77344 l 0.99609,0.99609 c 1.49299,1.49301 2.47658,1.23206 3.33594,1.26367 0.85937,0.0316 1.71747,-0.0411 2.7168,-0.17383 1.99865,-0.26547 4.51783,-0.79691 7.57422,-1.57812 1.44795,-0.3701 4.83979,-0.79252 6.55859,-0.79492 l 7.47266,-0.0117 -0.88672,-17.0918 -0.62305,-12.00977 1.9082,-1.91015 c 0.62733,-0.62733 1.42535,-1.25682 2.06446,-1.66406 0.63911,-0.40724 1.42842,-0.44893 0.49218,-0.40625 8.59065,-0.39186 21.06287,-4.03864 30.19922,-8.62891 12.82975,-6.44589 24.48064,-19.5791 32.63477,-36.13086 1.95617,-3.97077 4.03335,-10.04876 5.72851,-15.98242 1.69517,-5.93366 3.00851,-11.25783 3.02344,-14.91602 6.4e-4,-0.15711 0.28151,-2.62781 0.79297,-5.54687 0.51146,-2.91906 1.22691,-6.60702 2.02539,-10.47071 1.59697,-7.72736 3.5473,-16.23003 4.82813,-20.70117 2.52709,-8.82166 4.45614,-12.19132 12.04687,-21.01953 2.08121,-2.4205 3.62485,-4.08568 4.73438,-5.10547 0.40567,1.47668 0.83822,3.76704 1.32617,6.98047 0.26977,1.77657 0.22393,3.19466 1.76172,4.88281 0.76889,0.84408 1.98688,1.37003 2.88867,1.50196 0.76695,0.1122 1.3382,0.0446 1.92187,-0.0137 0.087,0.22076 0.153,0.33981 0.25782,0.72656 0.22985,0.84814 0.40638,1.50158 0.60937,2.10547 0.1015,0.30194 0.20139,0.58963 0.38867,0.96289 0.18729,0.37326 0.35316,0.92909 1.40821,1.5957 0.52752,0.3333 1.38869,0.61014 2.21289,0.53516 0.8242,-0.075 1.46534,-0.42873 1.85742,-0.73047 0.78415,-0.60348 0.93417,-1.01444 1.10742,-1.33203 0.3465,-0.63519 0.49287,-1.07994 0.71289,-1.66016 0.57436,-1.51466 0.71186,-2.86647 0.99219,-4.94727 0.28033,-2.08079 0.5343,-4.56664 0.70312,-7.02539 0.68363,-9.9565 4.93229,-35.93632 6.74219,-42.02539 0.92365,-3.10745 1.85319,-7.63269 2.20117,-10.75781 0.20999,-1.88579 0.39409,-3.43584 -0.0703,-5.24805 -0.2322,-0.9061 -0.71818,-1.95049 -1.60156,-2.75195 -0.88338,-0.80146 -2.03748,-1.21143 -3.03516,-1.32812 -1.99536,-0.2334 -3.66642,0.25777 -5.85351,0.97656 -2.18709,0.71878 -4.83855,1.7808 -8.21485,3.1914 -6.00969,2.51083 -12.6444,5.19728 -14.33398,5.82032 -6.88494,2.53884 -17.24388,7.74995 -23.41211,11.77539 -3.14861,2.05479 -7.33808,4.72885 -9.19336,5.87109 l -13.66992,8.41602 17.78711,0.0508 c 2.85651,0.008 7.65065,0.85031 11.54882,1.95312 1.94909,0.55141 3.70818,1.17035 4.87891,1.70118 0.19875,0.0901 0.24761,0.13435 0.4082,0.21679 -0.13958,0.4395 -0.33972,1.07537 -0.93945,2.05274 -1.33876,2.18175 -3.80855,5.36369 -7.42969,9.48437 -7.04556,8.01752 -13.85531,20.08631 -15.59375,28.52344 -1.8149,8.80827 -9.7314,34.96447 -12.02539,40.16797 -3.59572,8.15623 -9.5386,16.20163 -18.80078,25.1875 -4.22192,4.09596 -6.44414,6.14247 -8.19922,7.27344 -1.75508,1.13096 -3.32957,1.62849 -7.01562,2.63867 -4.32283,1.18468 -7.04174,1.77526 -8.66797,1.90234 -1.19769,0.0936 -1.73861,-0.0175 -2.3125,-0.25391 -0.19888,-1.17282 -0.40684,-3.99662 -0.5293,-9.2832 -0.24523,-10.58646 -0.25781,-31.22953 -0.25781,-71.48242 v -78.92773 c 2.10374,0.31535 4.79881,1.8087 8.61133,5.74609 1.1472,1.18477 2.26762,2.25419 3.21875,3.08203 0.47556,0.41392 0.89829,0.76296 1.33203,1.07422 0.21687,0.15563 0.42969,0.30273 0.73242,0.4668 0.30273,0.16406 0.51564,0.49414 1.84961,0.49414 0.77596,0 1.77716,-0.36504 2.39258,-0.92383 0.61541,-0.55879 0.87482,-1.14698 1.01562,-1.57617 0.28161,-0.85838 0.22098,-1.30603 0.19532,-1.73047 -0.0513,-0.84889 -0.21694,-1.5494 -0.44141,-2.41602 -0.44894,-1.73324 -1.19202,-3.9622 -2.17773,-6.63086 -1.97144,-5.33731 -4.90039,-12.34402 -8.17383,-19.36523 -1.04973,-2.25155 -2.00582,-4.397871 -2.68555,-6.003908 -0.33986,-0.803018 -0.61222,-1.474595 -0.78125,-1.923828 -0.0845,-0.224616 -0.14456,-0.398496 -0.16406,-0.460937 -0.0195,-0.06244 0.0762,-0.33223 0.0762,0.673828 0,-1.070122 -0.1295,-1.013687 -0.20508,-1.279297 -0.0756,-0.26561 -0.16101,-0.532102 -0.26562,-0.839844 -0.20923,-0.615483 -0.48939,-1.381487 -0.83203,-2.283203 -0.6853,-1.80343 -1.6156,-4.134962 -2.64063,-6.597656 -2.02888,-4.874479 -4.37122,-9.555132 -6.48242,-13.126953 -1.0556,-1.785911 -2.03957,-3.285703 -2.99414,-4.47461 -0.47729,-0.594453 -0.9358,-1.113117 -1.51953,-1.603515 -0.58374,-0.490398 -1.2601,-1.212546 -3.00977,-1.1875 z m -72.44141,95.234373 c 0.21766,-0.0388 0.27596,0.0725 0.32422,0.0664 0.0965,-0.0121 0.0217,-0.001 -0.10742,0 -0.0555,4.4e-4 -0.22152,-0.0122 -0.29883,-0.0137 0.0153,-0.004 0.0681,-0.0502 0.082,-0.0527 z"
       id="path7"
       sodipodi:nodetypes="csssssscssssscsscssssscccccsscsscsssssscsscssscsssssscscscssssssssssscscssssssscsssssscscssssssssssscsscssccsssscccccscsssssssscssscssssssssssssssssssscccsscsssssssscsscsssssssssssssscsssssssccscscss"
       transform="scale(0.38458351)"
       inkscape:label="znak" /></g></svg>
