<?xml version="1.0" encoding="UTF-8" standalone="no"?>
<svg
   version="1.2"
   viewBox="0 0 219.21259 219.2126"
   width="58mm"
   height="58mm"
   id="svg1"
   sodipodi:docname="EmpatTokenLaser.svg"
   inkscape:version="1.4.2 (2aeb623e1d, 2025-05-12)"
   xml:space="preserve"
   xmlns:inkscape="http://www.inkscape.org/namespaces/inkscape"
   xmlns:sodipodi="http://sodipodi.sourceforge.net/DTD/sodipodi-0.dtd"
   xmlns="http://www.w3.org/2000/svg"
   xmlns:svg="http://www.w3.org/2000/svg"><sodipodi:namedview
     id="namedview1"
     pagecolor="#ffffff"
     bordercolor="#666666"
     borderopacity="1.0"
     inkscape:showpageshadow="2"
     inkscape:pageopacity="0.0"
     inkscape:pagecheckerboard="0"
     inkscape:deskcolor="#d1d1d1"
     inkscape:zoom="3.3216547"
     inkscape:cx="97.240692"
     inkscape:cy="112.1429"
     inkscape:window-width="1920"
     inkscape:window-height="940"
     inkscape:window-x="0"
     inkscape:window-y="0"
     inkscape:window-maximized="1"
     inkscape:current-layer="svg1"
     inkscape:document-units="mm" /><defs
     id="defs1"><clipPath
       clipPathUnits="userSpaceOnUse"
       id="cp1"><path
         d="m 275.5,535.5 c -143.78,0 -260,-116.22 -260,-260 0,-143.78 116.22,-260 260,-260 143.78,0 260,116.22 260,260 0,143.78 -116.22,260 -260,260 z"
         id="path1" /></clipPath></defs><style
     id="style1">
		tspan { white-space:pre } 
		.s0 { fill: none;stroke: #ff0000;stroke-miterlimit:100 } 
	</style><g
     inkscape:groupmode="layer"
     id="layer2"
     inkscape:label="Content"><path
       style="fill:none;fill-opacity:1;stroke:#000000;stroke-width:0.18897638;stroke-opacity:1;stroke-dasharray:none"
       d="m 108.38421,142.65198 c -2.18669,-8.02703 -6.76019,-13.21683 -13.167779,-14.94222 -2.689281,-0.72415 -4.571202,-2.62709 -7.482937,-7.56653 -2.423469,-4.11115 -9.114291,-12.08122 -9.682878,-11.53419 -0.24961,0.24015 3.240535,7.46457 4.115459,8.51879 0.273219,0.32921 0.406808,0.68851 0.296875,0.79845 -0.109937,0.10994 -1.151547,-1.115 -2.314681,-2.72207 -1.163135,-1.60708 -3.785475,-4.85691 -5.827417,-7.22186 -5.163961,-5.98083 -8.234064,-9.814725 -8.946328,-11.172039 -0.333292,-0.635136 -1.064496,-1.515459 -1.624908,-1.956277 -4.137384,-3.254464 -8.889459,-10.662816 -10.110227,-15.761551 -0.73054,-3.051224 -0.731001,-3.036971 0.09845,-3.036971 0.624922,0 0.615968,-0.128993 -0.08283,-1.193098 -0.668868,-1.018527 -0.769333,-2.018328 -0.686655,-6.833187 0.255625,-14.88717 1.586922,-17.192475 13.115182,-22.710622 2.999663,-1.435831 5.722776,-2.934529 6.051352,-3.330435 1.276368,-1.537934 -3.575972,-0.187877 -9.444494,2.627717 -3.161707,1.51692 -5.748558,2.678328 -5.748558,2.580913 0,-0.350587 5.054323,-3.542107 8.133557,-5.135886 4.88343,-2.527617 7.082632,-3.072542 12.121834,-3.003593 2.43086,0.03327 5.554605,0.357585 6.941655,0.720721 1.387047,0.363135 3.490111,0.785231 4.673474,0.937995 1.911592,0.246772 2.443886,0.575741 4.772385,2.949444 3.790478,3.864053 11.306729,9.829662 12.384709,9.829662 1.61667,0 2.60542,-0.85521 3.66415,-3.169268 0.63085,-1.378855 2.43534,-3.71385 4.64791,-6.014367 3.45876,-3.596236 3.76829,-3.807577 7.08754,-4.839276 3.01062,-0.935776 4.35951,-1.08678 10.17336,-1.13886 3.73054,-0.03342 6.93413,-0.25226 7.22485,-0.493537 0.34125,-0.283211 0.57454,-0.285216 0.67297,-0.0058 0.0829,0.235239 1.32205,0.467624 2.75377,0.516412 5.04109,0.171783 12.33853,3.722596 16.05281,7.811015 0.95461,1.050767 2.50698,3.130445 3.44971,4.621502 1.07012,1.692563 1.8673,2.557761 2.12199,2.303071 0.50895,-0.508954 -0.3959,-5.346723 -1.34253,-7.177813 -0.61891,-1.197174 -0.6172,-1.258538 0.0204,-0.729674 1.04901,0.870143 2.37866,3.937869 2.71144,6.255766 0.16274,1.13344 0.46895,2.060802 0.68047,2.060802 0.54702,0 0.48547,6.835718 -0.0632,7.018603 -0.25346,0.08449 -0.61674,2.783169 -0.83711,6.218561 -0.41211,6.42446 -0.79387,7.852469 -4.00024,14.963299 -2.45185,5.437526 -3.29175,6.802259 -5.9322,9.639047 -1.39541,1.499172 -3.03165,3.506702 -3.63609,4.46118 -0.60444,0.954475 -3.15128,4.175835 -5.65966,7.158574 -2.50837,2.98274 -4.50783,5.47993 -4.44325,5.54931 0.26943,0.28941 8.46199,-4.86493 10.96457,-6.89836 1.49137,-1.21178 2.71158,-1.989679 2.71158,-1.728654 0,0.261024 -0.18961,0.474584 -0.42135,0.474584 -0.23174,0 -1.69968,1.54516 -3.26209,3.43368 -3.47889,4.20501 -10.583,9.70479 -16.05688,12.43076 -2.14758,1.06948 -5.29839,2.96477 -7.00179,4.21176 -1.70341,1.24699 -4.53431,3.1458 -6.29088,4.21959 -4.03153,2.46447 -6.59269,4.78405 -8.57653,7.76758 -3.27988,4.93264 -3.59728,5.71457 -3.89146,9.58655 l -0.28018,3.68775 z m 0.38351,-21.08677 c 0.45022,-2.35416 0.50945,-4.01803 0.22238,-6.24598 -0.21523,-1.67034 -0.39772,-3.26349 -0.40552,-3.54033 -0.008,-0.27685 -0.84394,-1.52217 -1.85807,-2.76738 -1.01413,-1.24521 -2.29066,-2.87342 -2.83673,-3.61825 l -0.99286,-1.35423 0.26943,1.95234 c 0.14818,1.07379 0.44346,2.50381 0.65618,3.17783 0.22735,0.72035 0.22671,1.16743 -0.002,1.08464 -0.21357,-0.0775 -2.03848,-1.64612 -4.055356,-3.48589 -3.766276,-3.43555 -7.600793,-8.705865 -12.244812,-16.829772 -1.159261,-2.02792 -3.535307,-5.844589 -5.280104,-8.481489 -1.744602,-2.636901 -3.172161,-5.114615 -3.172161,-5.506025 0,-0.391413 -0.22495,-0.850687 -0.499885,-1.020607 -0.690793,-0.42693 -0.233527,2.821623 0.645066,4.582808 l 0.668598,1.340235 -1.762592,-0.988779 c -4.035473,-2.263813 -7.294399,-7.436999 -7.294399,-11.579052 0,-1.495007 1.641494,-4.730539 3.343245,-6.589823 1.137329,-1.242613 3.824668,-2.524164 7.541218,-3.596287 3.109969,-0.897137 4.098037,-0.87057 6.395393,0.171982 1.93432,0.8778 2.453531,0.246926 0.574644,-0.698238 -1.466609,-0.737777 -1.697063,-1.137144 -0.499481,-0.865575 0.596058,0.135166 2.722697,0.330458 4.725858,0.43398 2.725297,0.140842 3.931955,0.402509 4.793499,1.039475 0.633255,0.468188 2.801359,1.646887 4.818019,2.619341 3.43418,1.65599 3.57037,1.688187 2.14816,0.507781 C 96.714973,54.709131 94.400261,52.905684 91.130366,50.762331 87.523342,48.398 87.23322,48.288902 84.552754,48.288902 c -1.58615,0 -3.998734,0.374465 -5.55439,0.862109 -1.512628,0.474161 -3.125926,0.864628 -3.585103,0.867709 -0.768344,0.0052 -0.751061,-0.08552 0.216928,-1.137921 l 1.051794,-1.143509 -0.997667,0.519503 c -0.54872,0.285726 -1.221699,1.011201 -1.495519,1.612162 -0.273816,0.600966 -1.194012,1.447819 -2.044876,1.881898 -4.249748,2.168059 -8.287117,6.81747 -9.843961,11.336245 -0.682559,1.98114 -0.848657,5.578261 -0.360255,7.801942 l 0.314331,1.431131 -1.122437,-0.735446 c -0.617341,-0.404501 -1.212757,-0.735451 -1.323144,-0.735451 -0.30806,0 2.430483,6.094499 3.53568,7.868494 1.378266,2.212309 6.480205,6.942848 11.751083,10.895655 2.46595,1.8493 4.282568,3.362363 4.036931,3.362363 -0.245641,0 -0.567276,-0.195234 -0.714752,-0.433856 -0.147476,-0.238619 -0.482106,-0.433853 -0.743627,-0.433853 -0.261521,0 -0.120905,0.391814 0.312474,0.870698 0.433387,0.478879 1.002532,1.308622 1.26478,1.843877 0.52363,1.068743 8.454714,7.189558 12.599982,9.724028 3.393738,2.07498 6.045869,4.2342 7.000405,5.69934 l 0.761302,1.16853 -1.486742,-1.20991 c -1.199804,-0.9764 -8.234133,-4.64711 -8.905443,-4.64711 -0.616352,0 0.141504,1.15873 2.241091,3.42654 2.481641,2.68046 6.748237,5.25052 8.716481,5.25052 1.70584,0 4.48355,2.93628 6.07652,6.42338 0.79633,1.7432 1.44787,3.48404 1.44787,3.86852 0,1.45009 0.4728,0.1355 1.06504,-2.96128 z m 6.53374,-3.41892 c -1.42655,-1.57631 -0.70339,-5.21207 2.14385,-10.77837 2.12485,-4.15405 2.92863,-5.24957 5.90794,-8.052294 3.24078,-3.048693 5.92327,-4.591285 8.88112,-5.10718 0.4668,-0.08141 1.16284,-0.636113 1.54676,-1.23266 0.38392,-0.59655 4.58146,-5.052419 9.32785,-9.901929 9.87909,-10.093729 10.27538,-11.089231 11.87913,-16.347091 2.57172,-8.431355 0.72182,-14.288131 -5.84558,-18.507132 -5.19393,-3.336666 -11.10617,-4.008902 -17.98639,-2.045103 -3.14681,0.898191 -11.69962,3.69299 -10.87172,3.88022 0.11931,0.027 0.90025,0.145158 1.73542,0.262609 0.83516,0.11746 1.56771,0.262686 1.62788,0.322735 0.0602,0.06004 -1.59932,0.944118 -3.68775,1.964603 -2.08844,1.020481 -4.53576,2.522202 -5.4385,3.337154 -1.60272,1.446849 -1.61293,1.475024 -0.43386,1.196905 0.66413,-0.156649 1.39297,-0.454847 1.61966,-0.662657 0.62683,-0.574629 1.53904,-0.451782 1.80572,0.243176 0.13107,0.341556 -0.156,1.171303 -0.63793,1.843874 -0.51801,0.722936 -0.39347,0.497763 -0.55784,2.036674 l -0.14041,1.502006 0.8139,-0.75053 c 4.83738,-4.46075 14.02183,-10.439104 22.70865,-11.008273 1.25275,-0.08208 2.27773,-0.01361 2.27773,0.152096 0,0.165736 -0.87856,0.71431 -1.95235,1.219052 -1.07378,0.504735 -1.95233,1.209554 -1.95233,1.566263 0,0.824947 0.23613,0.814405 1.74685,-0.07799 1.08767,-0.642508 1.52049,-0.661533 3.74153,-0.164482 3.20555,0.717367 4.32453,1.468486 5.43738,3.649851 1.28909,2.526825 0.94143,8.513091 -0.70654,12.165673 -1.98623,4.402319 -9.31168,14.31814 -11.53398,15.61254 l -1.40453,0.818082 0.30159,-2.011179 c 0.16588,-1.106147 0.20266,-2.01118 0.0817,-2.01118 -0.12092,0 -0.96262,1.414899 -1.87046,3.144209 -1.74159,3.317529 -4.2106,5.994096 -12.84478,13.924592 -6.57165,6.036056 -7.784,7.612606 -8.01729,10.425766 -0.36758,4.43255 1.09983,10.25066 2.58536,10.25066 0.2701,0 0.14058,-0.38731 -0.28782,-0.86069 z m -5.23738,-13.29523 c 0.36691,-1.46188 -0.0546,-3.42985 -1.16419,-5.435527 -0.58484,-1.057143 -0.78362,-1.961418 -0.59574,-2.710025 0.33849,-1.348619 4.77127,-5.898988 5.74656,-5.898988 1.39614,0 5.9076,-2.812655 7.67089,-4.782373 0.9992,-1.11618 2.48881,-3.278851 3.31024,-4.805932 1.32604,-2.465165 1.51067,-3.214369 1.64648,-6.681189 0.1362,-3.476669 0.0411,-4.094907 -0.86728,-5.640094 l -1.02024,-1.735414 -3.11987,0.08692 c -2.67198,0.07444 -3.38942,0.272374 -4.99751,1.378767 -2.03431,1.399641 -4.98626,5.061026 -5.90155,7.319847 -0.31424,0.775512 -0.79528,1.410025 -1.06898,1.410025 -0.2737,0 -1.41408,-0.732128 -2.5342,-1.62695 -8.020492,-6.407342 -10.385762,-7.179166 -13.24339,-4.321541 -1.566824,1.566827 -1.60081,1.671519 -1.612482,4.967622 -0.01046,2.946764 0.165052,3.72193 1.40593,6.210009 1.260441,2.527306 1.731472,3.026407 4.242429,4.495254 1.819757,1.064512 3.294253,2.334976 4.144893,3.571339 1.89237,2.750464 6.98485,13.07257 7.05547,14.30096 0.0789,1.37297 0.54549,1.31988 0.90254,-0.10271 z"
       id="path1-4"
       sodipodi:nodetypes="sssssssssssssssssssssssssssssssssssssssssssssssssssssscsssssscsscsscssscsssssssssssssssscssssscssssssssssscsssssssssssssssssssssssssscsssssssssscssssssssssssssscsssssssssssss"
       inkscape:label="Icon"
       inkscape:export-filename="../cb94a288/EmpatRoleIconLaser.svg"
       inkscape:export-xdpi="96"
       inkscape:export-ydpi="96" /><g
       inkscape:groupmode="layer"
       id="layer4"
       inkscape:label="Kruh"
       style="display:inline"><path
         id="path2"
         style="fill:none;stroke:#000000;stroke-width:0.189192"
         d="M 219.118,109.6063 A 109.5117,109.5117 0 0 1 109.6063,219.118 109.5117,109.5117 0 0 1 0.09459686,109.6063 109.5117,109.5117 0 0 1 109.6063,0.09459686 109.5117,109.5117 0 0 1 219.118,109.6063 Z"
         inkscape:label="Vnejsi kruh" /><path
         id="circle2"
         style="fill:none;stroke:#000000;stroke-width:0.188976"
         d="M 208.69732,109.6063 A 99.091019,99.091019 0 0 1 109.6063,208.69732 99.091019,99.091019 0 0 1 10.515282,109.6063 99.091019,99.091019 0 0 1 109.6063,10.515282 99.091019,99.091019 0 0 1 208.69732,109.6063 Z"
         inkscape:label="Vnitrni kruh" /></g><path
       id="path4"
       style="display:inline;opacity:1;stroke:#000000;stroke-opacity:1;stroke-width:0.4913793;stroke-dasharray:none;font-size:107.967px;font-family:'New Rocker';-inkscape-font-specification:'New Rocker';letter-spacing:0px;baseline-shift:baseline;white-space:pre;overflow:visible;fill:none;fill-opacity:1;enable-background:accumulate;stop-color:#000000;stop-opacity:1"
       d="m 133.88281,376.37891 1.84961,4.4707 c 1.01056,2.44219 2.52122,4.6921 4.4668,6.71875 l 0.0215,0.0215 0.0195,0.0215 c 1.44348,1.44347 2.9345,2.48641 4.47266,3.31445 0.0311,0.41554 0.0601,0.65837 0.0918,1.19727 0.0675,1.148 0.10351,2.53642 0.10351,4.15039 0,1.94716 -0.0702,4.04746 -0.21093,6.29883 -0.13626,2.18005 -0.40709,4.3212 -0.81446,6.42773 -0.39812,1.98748 -0.95842,3.85941 -1.67773,5.625 l -0.0117,0.0273 -0.01,0.0254 c -0.60666,1.57733 -1.34425,2.72316 -2.1582,3.53711 l -1.82422,1.82422 1.62305,2.00586 c 0.8054,0.9949 1.64562,2.82374 2.23437,5.50586 l 0.008,0.0312 0.008,0.0332 c 0.66259,2.71664 0.99805,5.57873 0.99805,8.60547 0,1.95273 -0.13517,4.14798 -0.41211,6.57422 -0.27097,2.30318 -0.71027,4.53037 -1.31641,6.68555 l -0.0117,0.041 -0.01,0.0391 c -0.53665,2.14658 -1.19806,4.01597 -1.96289,5.60937 l -0.0195,0.043 -0.0195,0.043 c -0.64944,1.47599 -1.31729,2.16459 -1.6582,2.36914 l -1.9707,1.18164 1.77148,5.31445 2.77734,-1.02929 c 1.59766,-0.59173 3.36825,-0.90039 5.37305,-0.90039 4.57474,0 9.7667,0.41863 15.55664,1.26562 h 0.002 0.002 0.002 0.002 c 5.76043,0.9148 11.60078,2.25156 17.52149,4.01367 l 1.48437,0.44141 1.1836,-1 c 1.80026,-1.5233 3.40281,-2.74737 4.78711,-3.67188 1.46577,-0.93101 2.80095,-1.64255 3.97461,-2.13671 1.22052,-0.51391 2.29519,-0.8449 3.19531,-1.01368 l 0.0644,-0.0117 0.0625,-0.0137 c 1.11998,-0.26352 2.23607,-0.46079 3.34961,-0.59179 l 3.49805,-0.41211 -1.11328,-3.33985 c -0.38735,-1.16202 -0.82195,-3.3115 -1.16993,-6.23437 -0.21679,-1.82115 -0.36603,-3.79773 -0.44726,-5.92578 h 8.55664 v 7.99218 c 0,1.74248 -0.28373,2.91513 -0.56055,3.46875 l -0.0176,0.0352 -0.0156,0.0332 c -0.29009,0.62162 -0.45133,0.68187 -0.55859,0.72657 l -1.76172,0.73437 v 6.39649 h 25.5957 v -6.48047 l -1.86914,-0.69141 c -0.0528,-0.0195 -0.19436,-0.008 -0.49414,-0.81836 -0.29978,-0.81051 -0.55078,-2.31432 -0.55078,-4.37695 V 428.4942 l 7.65625,-3.31055 v 26.36914 c 0,1.74248 -0.28373,2.91513 -0.56055,3.46875 l -0.0176,0.0352 -0.0176,0.0332 c -0.29008,0.62162 -0.44938,0.68187 -0.55664,0.72657 l -1.76367,0.73437 v 6.39649 h 24.94922 v -6.48047 l -1.86914,-0.69141 c -0.0528,-0.0195 -0.19436,-0.008 -0.49414,-0.81836 -0.29978,-0.81051 -0.55078,-2.31432 -0.55078,-4.37695 v -9.82422 -7.88281 c 0,-1.82281 0.0389,-3.06136 0.0742,-4.35743 l 7.79883,-3.34374 v 10.10156 0.0254 c 0.0717,4.086 0.10742,8.17182 0.10742,12.25781 0,0.6181 -0.0657,1.89206 -0.20703,3.6582 -0.14215,1.77675 -0.32079,3.73916 -0.53516,5.88282 -0.20911,2.01925 -0.48749,4.03951 -0.83594,6.06054 l -0.002,0.008 v 0.008 c -0.34631,2.07785 -0.72396,3.77323 -1.10547,5.04492 l -0.49219,1.64063 3.95508,3.95507 2.02344,-2.16797 c 0.93648,-1.00337 2.02468,-2.06079 3.26367,-3.1621 1.22527,-1.08914 2.52304,-2.14498 3.89063,-3.17188 1.43434,-1.02361 2.82522,-1.93949 4.17382,-2.75 1.37308,-0.78333 2.68825,-1.39156 3.93555,-1.82812 l 2.35156,-0.82227 -0.48828,-2.44336 c -0.13776,-0.68879 -0.27742,-1.41673 -0.41601,-2.17773 -0.11849,-0.71096 -0.221,-1.7006 -0.28907,-2.92579 -0.0697,-1.25467 -0.14004,-2.88692 -0.21093,-4.86523 v -3.93945 h 8.30468 v 30.23242 c 0,3.5959 -0.27959,6.72613 -0.80859,9.37109 l -0.008,0.0332 -0.006,0.0351 c -0.44074,2.51852 -1.24937,4.31604 -2.29297,5.56836 l 3.43359,4.42188 c 2.91818,-1.38961 5.59797,-2.45055 8.02149,-3.19141 h 0.002 l 0.002,-0.002 h 0.002 c 2.43139,-0.72086 4.66821,-1.0625 6.71875,-1.0625 1.69577,0 3.06883,0.22468 4.1289,0.5957 l 6.89844,2.41406 -3.41992,-6.46094 c -0.59707,-1.12779 -1.08512,-2.20354 -1.46875,-3.22656 l -0.0117,-0.0293 -0.01,-0.0293 c -0.34624,-0.86561 -0.62041,-1.85335 -0.80664,-2.9707 l -0.002,-0.0137 -0.002,-0.0137 c -0.1974,-1.11857 -0.36558,-2.35902 -0.50196,-3.70508 -0.0667,-1.28966 -0.10351,-2.83659 -0.10351,-4.64843 v -7.50196 c 0.85116,0.15622 1.76607,0.24071 2.57031,0.44922 l 0.0117,0.004 0.0117,0.004 c 1.85185,0.46297 3.8403,1.13383 5.95703,2.02149 l 1.45313,0.60937 1.29101,-0.90039 c 3.19612,-2.22338 6.37466,-4.08705 9.5332,-5.59765 l 0.0117,-0.006 0.0117,-0.004 c 3.17646,-1.55445 6.23344,-2.57653 9.17578,-3.09961 l 3.95313,-0.70312 -1.95117,-3.50977 c -0.14818,-0.26672 -0.37603,-0.87062 -0.55274,-1.74219 -0.18666,-0.9986 -0.35976,-2.38467 -0.49805,-4.11328 -0.0767,-0.95882 -0.14458,-2.03639 -0.20117,-3.22851 h 4.83985 c -0.0184,2.40047 -0.0889,4.80052 -0.20899,7.20117 -0.13336,2.59345 -0.53734,4.64866 -1.10742,6.13086 l -1.4707,3.82422 4.0957,0.0703 c 3.98996,0.0688 7.46963,0.51677 10.43164,1.30664 l 0.008,0.002 0.008,0.002 c 3.06479,0.79951 5.82275,1.95439 8.30859,3.45898 l 2.10937,1.27734 6.42969,-7.73437 c 0.36538,0.56663 0.59004,1.15296 1.00391,1.71289 1.39367,1.88555 3.00115,3.46431 4.81836,4.67578 l 2.70117,1.80078 1.45117,-2.90234 c 0.31797,-0.63593 0.87691,-1.52599 1.67188,-2.58594 0.77776,-1.03702 1.66077,-2.0514 2.65039,-3.04101 1.01212,-1.01213 2.01323,-1.91216 3.00195,-2.70313 l 0.008,-0.006 0.0117,-0.008 c 0.97373,-0.79116 1.802,-1.25714 2.39453,-1.46875 l 1.90235,-0.67969 v -5.48633 l -2.22071,-0.51172 c -0.60606,-0.13986 -0.9945,-0.32891 -1.29492,-0.51171 -0.0439,-0.0427 -0.2627,-0.27201 -0.49219,-0.98829 -0.2023,-0.69269 -0.39992,-1.649 -0.57031,-2.83593 h 10.50781 v 16.13281 l 1.58399,0.79102 c 1.10894,0.55446 2.5269,1.29866 4.23633,2.2246 1.68576,0.91312 3.33536,1.86141 4.94921,2.84375 l 1.8086,1.10157 1.58398,-1.40821 c 0.46072,-0.40952 1.24927,-0.98855 2.31446,-1.65429 1.06974,-0.66859 2.21392,-1.31009 3.43359,-1.91992 l 0.0566,-0.0274 0.0527,-0.0293 c 1.24046,-0.68914 2.51718,-1.34489 3.83008,-1.96679 1.29141,-0.61172 2.4997,-1.11409 3.61524,-1.50782 l 1.91015,-0.67382 v -6.25782 l -2.71484,-0.14257 c -2.10564,-0.11082 -3.60928,-0.78161 -5.00586,-2.16797 -1.13022,-1.18501 -1.88672,-3.14577 -1.88672,-6.41602 v -20.60937 l 9.55469,1.20703 0.61523,-2.4668 c 0.28312,-1.13247 0.7869,-2.35655 1.52735,-3.66016 0.83236,-1.33737 1.74552,-2.53845 2.74609,-3.60156 l 0.7793,-0.82617 v -4.43359 h -15.22266 v -2.85742 c 0,-0.54168 0.0325,-1.61141 0.10352,-3.10352 v -0.002 -0.004 c 0.0695,-1.52951 0.17549,-3.0971 0.31445,-4.70117 0.21105,-1.68543 0.42261,-3.26886 0.63281,-4.74024 0.19972,-1.39806 0.45536,-2.38055 0.57813,-2.6875 l 2.91797,-7.29882 -6.93164,3.70703 c -3.01395,1.61211 -5.83206,2.93329 -8.44532,3.96484 -2.43653,0.96179 -5.12346,1.54964 -8.09961,1.74805 l -5.4746,0.36523 3.30664,4.13477 c -0.0253,-0.0295 -0.0449,-0.0465 -0.0547,-0.0527 l -0.002,-0.002 h -0.002 -0.002 -0.002 v 0.002 0.002 l -0.002,0.002 c -0.003,0.0582 0.23498,0.53266 0.36133,1.20508 l 0.004,0.0156 0.004,0.0176 c 0.19433,0.9716 0.36345,2.1109 0.5,3.4082 v 0.01 l 0.002,0.008 c 0.13816,1.24352 0.2415,2.48573 0.31054,3.72852 l 0.004,0.0879 0.0117,0.0879 c 0.13786,1.17182 0.19531,2.02819 0.19531,2.36523 v 2.04297 c -1.96903,1.63322 -4.00187,2.90585 -6.10547,3.83789 l 0.52735,-0.75781 h -5.48438 c -3.33262,0 -6.01392,-0.55747 -8.12695,-1.54688 -2.13967,-1.10847 -4.31619,-2.81137 -6.4961,-5.18945 l -1.56445,-1.70703 -1.99609,1.17188 c -1.71766,1.00689 -4.41286,2.0368 -7.99219,2.93164 -3.44097,0.86024 -7.68145,1.3164 -12.69141,1.3164 h -1.25976 c -0.47283,-0.10397 -0.84459,-0.10742 -1.22461,-0.10742 h -3.61133 l 0.82031,3.51758 c 0.53518,2.29362 1.15515,4.23009 1.92969,5.86523 l 0.0254,0.0547 0.0273,0.0527 c 0.83366,1.58393 1.79735,2.93842 2.97461,4.01757 l 0.0508,0.0449 0.0527,0.043 c 1.1404,0.95034 2.44726,1.66462 3.85351,2.06641 l 0.11133,0.0312 0.11328,0.0234 c 1.28381,0.25676 2.6254,0.3789 4.01758,0.3789 2.12546,0 4.52015,-0.41724 7.33399,-1.17773 1.40452,-0.3796 2.70171,-0.95156 4.05273,-1.42773 v 4.71679 c -0.65131,0.26831 -1.17282,0.53392 -2.03906,0.79883 -1.48119,0.40249 -3.15043,0.78031 -5.01172,1.125 -1.84338,0.34136 -3.80145,0.61605 -5.87109,0.82422 -2.00906,0.13759 -3.98096,0.20703 -5.91407,0.20703 -1.76121,0 -3.36113,-0.10331 -4.79492,-0.29883 l -4.93359,-0.67187 1.89648,4.60351 c 0.39302,0.95448 0.6997,2.12008 0.88867,3.50586 l 0.002,0.01 0.002,0.01 c 0.0562,0.39304 0.1042,0.79713 0.14453,1.21094 h -4.8457 c -0.0472,-2.15497 -0.0703,-4.60266 -0.0703,-7.33984 0,-2.6849 0.0718,-5.33102 0.21289,-7.94141 v -0.004 -0.002 c 0.13238,-2.51514 0.56557,-5.20119 1.31445,-8.06055 l 0.71484,-2.73632 -2.72656,-0.75196 c -1.81367,-0.50032 -3.61704,-1.28737 -5.42773,-2.38672 -1.7719,-1.07579 -3.43421,-2.44468 -4.9961,-4.13671 l -1.1289,-1.22266 -1.6211,0.37305 c -1.94951,0.44988 -3.92857,1.01231 -5.93554,1.67968 -1.95271,0.60144 -3.90103,1.31395 -5.84375,2.13477 -1.87623,0.75141 -3.68398,1.57866 -5.41993,2.48437 -0.77255,0.40307 -1.38808,0.81885 -2.09375,1.22657 -0.54078,-0.92149 -0.9511,-1.86181 -1.61914,-2.76563 -1.39366,-1.88556 -3.00114,-3.46431 -4.81836,-4.67578 l -2.69921,-1.79883 -1.45313,2.90235 c -0.31795,0.6359 -0.87691,1.52598 -1.67187,2.58593 -0.77777,1.03703 -1.65882,2.04945 -2.64844,3.03907 -0.99519,0.99519 -2.02198,1.91966 -3.07617,2.77929 -0.9873,0.73584 -1.82634,1.20935 -2.4043,1.43164 l -1.83789,0.70704 v 5.27148 l 2.02344,0.62305 c 0.58041,0.17859 0.88807,0.38611 1.08398,0.58203 l 0.125,0.12695 0.10938,0.0898 v 0.002 0.002 c 0.0131,0.0436 0.30413,0.42605 0.53125,1.28906 l 0.0234,0.0898 0.0293,0.0879 c 0.29091,0.87272 0.58683,2.56779 0.72266,4.87695 v 0.002 0.002 c 0.13814,2.27932 0.21093,5.40406 0.21093,9.32812 v 0.10547 h -8.30468 c 0.004,-3.4371 0.0388,-6.3272 0.10546,-8.66016 0.071,-2.48512 0.14239,-4.56951 0.2129,-6.26953 0.13699,-1.63551 0.27426,-2.95523 0.40429,-3.9414 0.19773,-1.0423 0.42371,-2.01522 0.67774,-2.9043 l 0.66601,-2.33203 -2.18945,-1.04297 c -1.44207,-0.6867 -2.6927,-1.33029 -3.76172,-1.92969 -1.09132,-0.68279 -2.14956,-1.36408 -3.17187,-2.04492 -0.91693,-0.65611 -1.84127,-1.38169 -2.77149,-2.17773 -0.98812,-0.9178 -2.07701,-1.93657 -3.27539,-3.06446 l -2.14648,-2.01953 -1.95899,2.20313 c -2.24421,2.52474 -4.40355,4.71749 -6.46875,6.57617 -0.94662,0.85196 -2.13939,1.71488 -3.19336,2.57226 l -0.24414,-0.11523 c -1.44594,-0.68854 -2.69867,-1.3348 -3.76953,-1.93555 -1.08833,-0.68102 -2.14439,-1.35998 -3.16406,-2.03906 -0.92057,-0.65872 -1.84729,-1.38577 -2.78125,-2.18555 -0.98595,-0.91583 -2.06863,-1.93189 -3.26367,-3.05664 l -2.17188,-2.04297 -1.95703,2.25196 c -2.30308,2.65203 -4.55304,4.93386 -6.74023,6.84765 -0.82191,0.71576 -1.89629,1.47281 -2.80469,2.20313 v -3.75586 l -3.44531,-5.74023 -2.0586,0.51562 c -2.25674,0.56419 -4.8476,1.16743 -7.75781,1.80664 -2.90185,0.56587 -5.5851,1.02416 -8.04102,1.375 l -2.45898,0.35156 v 5.55664 l 3.99414,1.72657 v 23.27148 h -8.62695 c 0.009,-1.25954 0.0438,-2.54628 0.10351,-3.86133 v -0.004 -0.002 c 0.0684,-1.57267 0.20479,-3.14619 0.41016,-4.7207 l 0.30664,-2.3418 -4.6582,-1.55273 -1.25586,1.37695 c -3.01151,3.30531 -5.83972,6.72314 -8.48633,10.25196 l -0.0117,0.0156 -0.0117,0.0156 c -2.26516,3.10652 -3.82468,6.67468 -4.96289,10.48438 l -13.54883,-1.36133 c -0.19357,-2.46098 -0.38176,-4.96629 -0.49219,-8.04687 -0.0683,-3.89886 -0.10051,-8.02106 -0.10351,-12.31641 0.2311,-0.0204 0.40082,-0.0677 0.64453,-0.082 1.19403,-0.0702 2.09895,-0.10352 2.64063,-0.10352 0.22695,0 0.3008,0.01 0.58398,0.23633 l 0.12109,0.0977 0.13086,0.082 c 0.51683,0.32889 1.00634,0.76035 1.48047,1.33984 0.56097,0.68563 1.09781,1.44483 1.61133,2.2793 0.55434,0.90081 1.03477,1.72259 1.4375,2.46094 l 2.9668,5.43945 2.22265,-5.7832 c 0.35576,-0.92498 0.74834,-1.95699 1.17188,-3.08594 l 1.4414,-3.29297 c 0.52983,-1.05763 1.05542,-2.04434 1.57813,-2.96289 0.55197,-0.8525 1.07989,-1.51738 1.53125,-1.96875 l 2.52539,-2.52539 -3.01367,-1.91797 c -0.32721,-0.20822 -0.70437,-0.57638 -1.10156,-1.27148 -0.51851,-0.90738 -1.00463,-1.85076 -1.46289,-2.82618 -0.40359,-1.08008 -0.77739,-2.12901 -1.11329,-3.13671 l 0.0156,0.0527 c -0.38017,-1.21653 -0.76656,-2.30341 -1.16992,-3.27148 l -1.95703,-4.69532 -3.00196,4.10743 c -1.24455,1.70306 -2.51795,3.06016 -3.80078,4.09961 -1.05419,0.84174 -1.84872,1.0957 -2.63086,1.0957 h -2.35156 c -0.0521,-0.004 -0.10414,-0.0136 -0.15625,-0.0176 0.13663,-3.47991 0.28221,-6.92564 0.50781,-10.08398 0.21825,-3.05544 0.58806,-5.38692 0.96485,-7.66211 0.59065,-0.0177 0.99247,-0.0156 1.69531,-0.0449 1.68447,-0.0702 3.44462,-0.10546 5.27929,-0.10546 2.21377,0 4.0066,0.1078 5.31641,0.29492 0.83307,0.11901 1.30907,0.40919 1.80469,0.69336 0.60479,2.17661 1.36297,4.19479 2.40625,5.93359 l 0.0215,0.0352 0.0215,0.0352 c 1.47601,2.30626 3.69557,4.20132 6.49804,5.80274 l 1.23829,0.70703 3.57812,-1.5332 0.20508,-1.63086 c 0.14189,-1.13514 0.35497,-2.85342 0.63672,-5.10743 l 0.002,-0.0137 c 0.35575,-2.3472 0.74667,-4.7318 1.17383,-7.15234 l 0.002,-0.008 0.002,-0.006 c 0.42357,-2.47088 0.84531,-4.72074 1.26562,-6.75586 0.47547,-1.95666 0.97708,-3.3128 1.125,-3.58399 l 1.86328,-3.41992 -3.81836,-0.76367 c -0.50589,-0.10118 -1.01786,-0.13199 -1.53515,-0.14258 -0.55699,-0.0778 -1.11982,-0.12891 -1.72461,-0.1289 -2.97859,0 -6.86251,0.26166 -11.74219,0.77148 -4.6628,0.48715 -10.92082,0.74023 -18.70508,0.74023 -3.617,0 -7.49242,-0.0693 -11.61719,-0.21093 -0.005,-2.6e-4 -0.0107,-0.002 -0.0156,-0.002 -4.03786,-0.21283 -8.33504,-0.5664 -12.88867,-1.06445 z m 256.65235,41.26171 v 2.98243 h 8.96093 v 18.40234 h -10.83203 c -0.0425,-1.44034 -0.0645,-3.09616 -0.0645,-4.96484 0,-5.18118 0.14818,-9.09063 0.41406,-11.63672 0.28195,-2.11832 0.84535,-3.64096 1.52149,-4.78321 z m -72.13868,5.91797 c -0.0649,0.96629 -0.13042,1.83684 -0.19531,2.875 l -0.004,0.043 v 0.0449 c -0.0729,2.3331 -0.10938,4.66685 -0.10938,7 v 7.8125 0.0391 c 0.0522,1.93079 0.14639,3.2809 0.23828,4.68554 -0.85755,0.46786 -1.67177,0.85003 -2.62109,1.48243 -0.96838,0.63004 -1.66313,1.22585 -2.42774,1.82812 -1.09083,-0.35496 -2.15306,-0.71795 -3.39843,-1.0293 -0.81619,-0.20404 -1.42528,-0.23713 -2.14844,-0.37109 v -21.19336 c 0.43822,-0.21128 0.72012,-0.39767 1.30469,-0.625 l 0.0625,-0.0234 0.0625,-0.0273 c 1.16063,-0.51584 2.43797,-0.97614 3.83398,-1.375 1.41911,-0.40546 2.87584,-0.74412 4.36914,-1.01563 l 0.0469,-0.01 0.0488,-0.01 c 0.34252,-0.0745 0.60827,-0.0704 0.9375,-0.13086 z M 368.93945,440 v 7.9043 c -1.12226,-0.16951 -2.40841,-0.47104 -3.38476,-0.51172 l 0.004,0.002 c -0.70413,-0.0306 -1.37277,-0.0947 -2.0625,-0.13867 l 0.11719,-5.86914 c 0.94437,-0.18021 1.7816,-0.2757 2.86524,-0.55664 l 0.0469,-0.0117 0.0469,-0.0156 c 0.76467,-0.22656 1.58412,-0.54498 2.36718,-0.80273 z m -224.3789,17.57422 -0.0274,0.0625 c 0.003,-0.011 0.005,-0.0237 0.01,-0.0332 0.005,-0.0109 0.0115,-0.0197 0.0176,-0.0293 z"
       sodipodi:nodetypes="ccccccsssccccscccccscccccccccccscccccccccscccccssccsscsccccccssccssccccccccsscsccccssccccsccssccccccscccscccccccccsccccccccccsccccscccccccccsccccccccscccsscssscccccccccccccscccsccsscccccsccccccccsscccscccsccccccccccccccccccccscccsccccsscscccccccccccsscccscsccccccccsccscccscccccscscccssccccccccccccscccsccscccccccccccsccccccccccccccccccccccsccccscccccccscccssccccccsccscccccccsccscssscccccccccsccccccscssscccccccccscscccccscccccscccccsccccccccccccccccccccc"
       transform="matrix(0.38458353,0,0,0.38458353,0.36838593,3.0641458)"
       inkscape:label="text" /></g></svg>
