<?xml version="1.0" encoding="UTF-8" standalone="no"?>
<svg
   version="1.2"
   viewBox="0 0 219.2126 219.2126"
   width="58mm"
   height="58mm"
   id="svg1"
   sodipodi:docname="SvatyRoleTokenLaser.svg"
   inkscape:version="1.4.2 (2aeb623e1d, 2025-05-12)"
   xml:space="preserve"
   xmlns:inkscape="http://www.inkscape.org/namespaces/inkscape"
   xmlns:sodipodi="http://sodipodi.sourceforge.net/DTD/sodipodi-0.dtd"
   xmlns="http://www.w3.org/2000/svg"
   xmlns:svg="http://www.w3.org/2000/svg"><sodipodi:namedview
     id="namedview1"
     pagecolor="#ffffff"
     bordercolor="#666666"
     borderopacity="1.0"
     inkscape:showpageshadow="2"
     inkscape:pageopacity="0.0"
     inkscape:pagecheckerboard="0"
     inkscape:deskcolor="#d1d1d1"
     inkscape:zoom="2.8739028"
     inkscape:cx="123.5254"
     inkscape:cy="124.04734"
     inkscape:window-width="1920"
     inkscape:window-height="940"
     inkscape:window-x="0"
     inkscape:window-y="0"
     inkscape:window-maximized="1"
     inkscape:current-layer="layer2"
     showgrid="false"
     inkscape:document-units="mm" /><defs
     id="defs1"><clipPath
       clipPathUnits="userSpaceOnUse"
       id="cp1"><path
         d="m 275.5,535.5 c -143.78,0 -260,-116.22 -260,-260 0,-143.78 116.22,-260 260,-260 143.78,0 260,116.22 260,260 0,143.78 -116.22,260 -260,260 z"
         id="path1" /></clipPath></defs><style
     id="style1">
		tspan { white-space:pre } 
		.s0 { fill: none;stroke: #ff0000;stroke-miterlimit:100 } 
	</style><g
     inkscape:groupmode="layer"
     id="layer2"
     inkscape:label="Content"
     style="display:inline"><path
       style="display:inline;opacity:1;baseline-shift:baseline;overflow:visible;fill:none;stroke:#000000;stroke-opacity:1;enable-background:accumulate;stop-color:#000000;stop-opacity:1;stroke-width:0.49137931;stroke-dasharray:none"
       d="m 435.3457,92.304687 c -1.20081,-0.03192 -1.68194,0.354008 -2.08984,0.605469 -0.40791,0.251461 -0.7107,0.502115 -1.02149,0.779297 -0.62156,0.554364 -1.24896,1.223891 -1.98046,2.0625 -1.46301,1.677218 -3.29626,4.012605 -5.47266,6.947267 -4.35281,5.86932 -10.05089,14.10993 -16.39844,23.77734 -8.76612,13.35093 -22.73832,27.83634 -37.73047,39.0293 -7.68058,5.73424 -16.35968,12.00885 -23.22461,16.8418 -3.43246,2.41647 -6.41397,4.4733 -8.57226,5.91211 -1.07915,0.7194 -1.95801,1.28605 -2.54883,1.64648 -0.29362,0.17913 -0.5199,0.30911 -0.61914,0.36133 -0.76471,0.17786 -1.2989,0.44679 -1.85938,0.76172 -0.76552,0.43014 -1.57841,0.96865 -2.4746,1.60742 -1.79239,1.27753 -3.89119,2.95372 -6.01758,4.77148 -4.25279,3.63553 -8.44433,7.53827 -10.51172,10.55664 -6.90106,10.07552 -8.87982,15.94712 -8.14453,24.51368 0.27071,3.15405 0.50216,5.23228 1.24023,7.11328 0.73807,1.881 2.41404,3.38853 3.97656,4.07422 0.93523,0.4104 1.82637,1.31047 2.57813,3.3164 0.75176,2.00594 1.22328,5.00813 1.19336,8.8125 -0.0236,3.00014 -0.1318,4.24617 -0.90235,6.03125 -0.77054,1.78509 -2.44145,4.30545 -5.69921,8.83008 -4.92285,6.83722 -8.86297,10.80786 -13.88672,14.13477 -2.02748,1.34267 -3.98619,2.55248 -5.45313,3.38867 -0.73347,0.41809 -1.35128,0.74495 -1.73633,0.92773 -0.19252,0.0914 -0.33301,0.14614 -0.33398,0.14649 -9.7e-4,3.4e-4 -0.0967,-0.22408 1.06445,-0.0723 -1.14676,-0.14992 -1.49975,0.0827 -1.96289,0.23047 -0.46313,0.14776 -0.89452,0.32812 -1.35156,0.54101 -0.91408,0.42579 -1.90716,0.98257 -2.89063,1.62696 -1.21869,0.79856 -2.95876,0.63368 -2.30859,0.91211 -1.49863,-0.64179 -3.18585,-1.14507 -4.77148,-1.33399 -0.55548,-0.0662 -3.07895,-1.20676 -5.76758,-3.27929 -2.68864,-2.07253 -5.76543,-4.94475 -8.67774,-8.07227 -5.8246,-6.25504 -10.96211,-14.05498 -11.65234,-17.12695 -0.58641,-2.60995 -0.42961,-6.57788 0.2793,-9.70117 0.35445,-1.56165 0.84608,-2.92574 1.29492,-3.75977 0.44884,-0.83403 0.89076,-0.85804 0.24609,-0.68945 2.36257,-0.61783 3.97648,-2.41486 4.99414,-4.35938 1.01767,-1.94452 1.5783,-4.19021 1.83399,-6.60156 0.51138,-4.8227 -0.2008,-10.33819 -2.58008,-15.00195 -3.19084,-6.25458 -6.16314,-10.83204 -10.89063,-15.36329 -4.72748,-4.53124 -11.08055,-8.99534 -21.26367,-15.61718 -16.07162,-10.45099 -36.31671,-26.16277 -46.13867,-35.73828 -5.61327,-5.47244 -13.16936,-15.10655 -21.47656,-27.53516 -3.54906,-5.30986 -7.13155,-10.46884 -10.0625,-14.5293 -1.46547,-2.03023 -2.76647,-3.7848 -3.83203,-5.16015 -1.06557,-1.37535 -1.77239,-2.2802 -2.57422,-3.03321 -1.57764,-1.48155 -2.35757,-2.82718 -4.86914,-3.10742 -1.25579,-0.14012 -2.45072,0.37502 -3.17578,0.85938 -0.72506,0.48435 -1.24891,0.98017 -1.89453,1.56445 -1.25769,1.13818 -2.35204,2.59762 -2.84375,4.32813 -0.49172,1.7305 -0.44668,3.4798 -0.23047,5.58789 0.218,2.12549 0.58114,4.10956 1.08008,5.92578 -0.0403,5.1e-4 -0.0488,0.008 -0.0898,0.008 -2.00323,0 -3.68498,0.0677 -5.35937,1 -1.6744,0.93227 -2.62275,2.5938 -3.2168,4.15625 -2.21936,5.83737 -1.72663,14.26881 0.56836,21.83398 0.56787,1.87194 0.96437,3.18586 1.21094,4.13868 -0.30476,0.0344 -0.3163,0.0474 -0.71485,0.0859 -2.73755,0.26452 -5.21912,1.44034 -6.88476,3.36914 -1.66565,1.92881 -2.46676,4.42805 -2.62305,7.08594 -0.31258,5.31578 1.72271,11.5549 5.75781,18.25586 1.20529,2.00157 2.07062,3.6146 2.57422,4.77539 0.067,0.15451 0.0225,0.0882 0.0742,0.22656 -0.10933,-0.0175 -0.0568,0.004 -0.17578,-0.0195 -1.82993,-0.36598 -3.64888,-0.78247 -5.58984,0.36524 -1.94097,1.1477 -2.46288,2.83754 -3.15821,4.67968 -0.33827,0.89619 -0.75365,1.72548 -1.04687,2.19336 -0.1339,0.21365 -0.22551,0.31754 -0.21094,0.30469 -0.81718,0.47378 -1.48665,1.08981 -1.76367,1.66016 -0.45082,0.92817 -0.54493,1.72821 -0.55274,2.53125 -0.008,0.80304 0.0945,1.59745 0.42188,2.45117 0.32734,0.85372 0.92654,1.93654 2.30859,2.55078 -0.74817,-0.33252 -0.54397,-0.33038 -0.48437,-0.27734 0.0596,0.053 0.2035,0.18908 0.38476,0.37304 0.36252,0.36792 0.88793,0.933 1.50391,1.6211 1.23196,1.37619 2.84152,3.25635 4.49219,5.26953 3.43043,4.18382 8.97615,10.44465 12.51953,14.13086 l 0.40039,0.41601 c -2.58851,-0.14618 -4.93759,0.006 -6.89258,1.28907 -2.6217,1.72042 -3.52734,4.91538 -3.52734,8.17968 0,2.09221 0.65038,4.375 2.13476,6.49219 1.48439,2.11719 3.6737,4.3268 7.18164,7.66016 4.7807,4.54277 12.26831,10.59989 17.14844,13.84765 1.35996,0.90507 2.14822,1.44857 3.0625,2.07227 -3.80691,1.87069 -6.66421,5.24838 -7.70703,9.50781 v 0.002 c -0.43932,1.79445 -0.19452,4.0207 0.80469,5.94141 0.9992,1.92072 2.53853,3.81199 4.92187,6.52539 2.50705,2.85426 4.14585,4.63637 6.02344,5.86328 1.38186,0.90298 2.95902,1.17725 4.46289,1.21485 -1.04918,2.33521 -1.42337,4.87765 -1.2168,7.29687 0.22474,2.63201 0.87829,5.26838 3.25977,7.05469 0.82847,0.6214 1.21575,0.70705 1.93945,1.01367 0.7237,0.30662 1.60802,0.65008 2.62695,1.02344 2.03787,0.74672 4.60301,1.61049 7.25782,2.43164 4.03409,1.24777 5.70731,1.95058 6.29297,2.21094 -0.51135,1.424 -0.84133,3.02487 -0.41407,4.64062 0.4517,1.70815 1.46445,2.95202 2.6875,4.25391 1.90802,2.03099 4.29384,3.47176 6.97461,3.71679 2.68078,0.24504 5.31775,-0.59782 8.10742,-2.05273 0.0512,-0.0267 0.0839,-0.0419 0.13477,-0.0684 0.10733,0.76949 0.21002,1.38686 0.31641,2.28516 0.46212,3.90192 1.00858,6.79358 2.90625,9.12304 1.89767,2.32947 4.70043,3.24766 7.99218,3.84766 2.09052,0.38104 4.04275,0.54364 5.9961,-0.12109 1.73914,-0.59184 3.16046,-1.69084 4.82031,-3.11914 0.047,0.166 -0.005,0.32619 0.0606,0.49218 0.72358,1.82179 2.01344,2.78566 3.54101,3.92578 l 0.32227,0.24219 0.23437,0.0937 c 1.87518,1.29907 3.84575,2.22658 5.73047,2.63086 1.03435,0.22187 2.03048,0.36873 3.29883,0.0293 0.63418,-0.16972 1.3924,-0.5096 2.02539,-1.21289 0.2788,-0.30977 0.47963,-0.69804 0.64258,-1.09375 0.15375,-0.12817 0.32194,-0.27226 0.64453,-0.49805 0.85157,-0.59603 2.14686,-1.38676 3.56055,-2.13672 3.75925,-1.99427 7.65583,-5.50384 9.98242,-9.01953 0.43534,-0.65785 0.65137,-0.95535 0.9707,-1.42578 1.39572,1.601 3.14409,2.82241 5.13281,3.1543 2.39573,0.39981 4.80481,-0.19503 7.04493,-1.35157 4.48024,-2.31307 8.62968,-6.90479 12.03515,-13.21093 0.74776,-1.38467 1.39266,-2.27142 2.01563,-3.1211 0.11176,2.18643 0.5115,4.24526 1.87109,5.89258 1.58708,1.92295 3.85053,2.81289 6.49805,3.46484 3.06453,0.75464 6.34141,-0.12024 8.37695,-2.30273 1.86711,-2.00189 2.65711,-4.79446 2.79102,-7.89844 0.52916,0.76289 0.99364,1.34341 1.63672,2.4668 3.68244,6.43293 7.58724,11.08574 11.78906,13.66016 2.10091,1.28721 4.34594,2.06353 6.6582,1.98632 2.31227,-0.0772 4.5723,-1.11331 6.27539,-2.8164 0.4895,-0.4895 0.68405,-0.63045 0.98633,-0.89453 0.38146,0.49507 0.83231,1.1148 1.49805,2.14257 1.98688,3.06738 5.59098,6.44413 8.95312,8.63086 1.38598,0.90144 2.70107,1.82982 3.64649,2.55469 0.4727,0.36244 0.85574,0.67864 1.07617,0.87695 0.22043,0.19832 0.33935,0.75479 -0.17578,-0.40429 0.90823,2.04349 2.33941,2.22531 3.34961,2.46484 1.01019,0.23954 1.99651,0.29677 2.98828,0.26172 0.99176,-0.0351 1.94616,-0.14968 2.95117,-0.49609 0.5025,-0.17321 1.03563,-0.38884 1.63867,-0.89453 0.36828,-0.30883 0.72797,-0.85872 1,-1.4961 0.12772,-0.0849 0.35831,-0.22547 0.63867,-0.31445 1.33247,-0.42291 3.12622,-1.48457 3.76563,-3.25586 0.22826,-0.63234 0.22891,-1.19057 0.25586,-1.75977 0.53226,0.39339 0.82577,0.58894 1.47265,1.07422 1.80674,1.35539 3.38051,2.40418 5.39063,2.78321 2.01012,0.37902 3.86419,0.0283 6.28515,-0.51563 3.24587,-0.7293 5.84917,-1.53128 7.67188,-3.73633 1.82271,-2.20505 2.12679,-4.90885 2.25195,-8.2539 0.046,-1.23011 0.12386,-2.49563 0.20703,-3.50782 0.009,-0.10518 0.009,-0.0781 0.0195,-0.18164 0.14486,0.086 0.21856,0.10737 0.36718,0.19922 2.7525,1.70117 4.97876,2.88541 7.625,2.88086 2.64625,-0.005 4.83247,-1.33736 7.07032,-3.09766 1.50268,-1.182 2.79067,-2.46299 3.51562,-4.19921 0.72495,-1.73623 0.75674,-3.53241 0.60156,-5.52735 -0.0645,-0.82913 -0.0712,-1.29217 -0.0703,-1.67578 0.357,-0.0958 0.77136,-0.20399 1.55664,-0.34961 2.93443,-0.54415 7.39045,-2.06604 10.83399,-3.5918 2.55454,-1.13185 4.38529,-2.03124 5.86328,-3.5625 1.47799,-1.53125 2.14647,-3.50298 2.52734,-5.5332 0.49367,-2.63144 0.53582,-5.22419 -0.40625,-7.67578 1.49859,0.0331 3.09326,-0.16887 4.45508,-1.08203 1.90461,-1.27713 3.47977,-3.13124 6.09375,-6.24024 1.67744,-1.99509 3.19403,-3.98973 4.33594,-5.67187 0.57095,-0.84107 1.04651,-1.59807 1.42382,-2.29883 0.37732,-0.70075 0.83008,-0.94814 0.83008,-2.65234 0,-3.65062 -1.79127,-6.91584 -4.27734,-9.35352 -1.30379,-1.27841 -2.84135,-2.34013 -4.5293,-3.08203 1.39251,-1.04317 2.16655,-1.74674 4.74219,-3.4082 4.83344,-3.1179 12.25325,-9.0489 17.04297,-13.58985 3.72415,-3.53071 5.92117,-5.68408 7.39258,-7.88671 1.4714,-2.20264 1.92578,-4.58421 1.92578,-6.85743 0,-3.42627 -1.1055,-6.72688 -3.83789,-8.45898 -1.9447,-1.23277 -4.28979,-1.406 -6.83399,-1.26367 l 4.28125,-4.85547 c 5.32581,-6.04053 11.28362,-12.78569 13.22266,-14.9707 1.95612,-2.20428 3.32838,-4.33978 3.99023,-6.49219 0.33093,-1.07621 0.6038,-2.22555 0.0625,-3.70899 -0.34262,-0.93896 -1.26487,-1.6268 -2.25781,-2.10547 -0.0645,-0.15675 -0.1603,-0.38179 -0.20898,-0.7246 -0.2162,-1.52231 -1.06305,-3.49092 -2.66797,-4.48829 -1.60493,-0.99737 -3.18753,-1.14606 -5.23047,-1.31445 -0.82897,-0.0683 -1.56773,-0.27752 -2.19141,-0.47851 0.10814,-0.28989 0.15584,-0.47585 0.31055,-0.83204 0.66446,-1.5298 1.72425,-3.55501 2.96094,-5.55859 4.17101,-6.75758 5.21289,-10.10602 5.21289,-16.57812 0,-4.18634 -0.0662,-7.1971 -2.04688,-9.72266 -0.99034,-1.26278 -2.45786,-2.08943 -3.9082,-2.48438 -1.31508,-0.35811 -2.70148,-0.42243 -4.2168,-0.44531 l 0.86328,-2.49805 c 1.36637,-3.95515 2.13771,-8.56944 2.35547,-12.95117 0.21776,-4.38173 -0.0414,-8.44285 -1.26758,-11.66797 -0.59426,-1.56303 -1.54391,-3.22654 -3.2207,-4.1582 -1.67679,-0.93166 -3.35869,-0.99805 -5.36719,-0.99805 -0.17686,0 -0.21158,-0.008 -0.37109,-0.01 0.87426,-2.9641 1.42194,-5.59897 1.39258,-7.99414 -0.0336,-2.73796 -0.83249,-5.2753 -2.32813,-7.328127 -0.77745,-1.067083 -1.64351,-2.003147 -2.54492,-2.767578 -0.9014,-0.764431 -1.44589,-1.622138 -3.61133,-1.679688 z m 1.33008,37.640623 c 0.0648,0.34276 -0.0119,0.5967 0.24024,0.99805 0.51749,0.82381 1.55798,1.3704 2.25781,1.47851 1.39966,0.21624 1.84157,-0.17839 2.31445,-0.40039 0.22413,-0.10522 0.42196,-0.24517 0.62695,-0.36523 -0.46699,1.90882 -1.10716,3.19552 -2.62695,4.45898 -0.81991,0.68163 -1.44517,1.20528 -1.94531,1.66016 -0.25007,0.22744 -0.46761,0.43169 -0.70117,0.69141 -0.23357,0.25971 -0.55374,0.40552 -0.86719,1.49804 -0.15673,0.54627 -0.23034,1.62814 0.35742,2.5625 0.0487,0.0773 0.11575,0.0966 0.16797,0.16602 -0.6429,0.33813 -1.31422,0.73197 -2.06641,1.2207 -1.64379,1.06804 -3.57766,2.48327 -5.50195,4.05078 l -1.51367,1.23438 0.0508,-1.875 c 0.11247,-4.10603 0.26906,-5.95146 0.74414,-7.16797 0.47508,-1.21651 1.51692,-2.50191 4.11523,-5.3418 1.46851,-1.60503 2.77018,-3.10373 4.34766,-4.86914 z m -303.62109,8.7461 c 0.21369,0.23184 0.36035,0.36754 0.57617,0.60351 3.58081,3.9152 5.70038,6.44507 6.70117,8 1.0008,1.55493 0.90326,1.63776 0.80078,2.17383 -0.41129,2.15152 -0.15795,4.57197 0.3086,6.93945 -0.53159,-0.43723 -0.89192,-0.85871 -1.56641,-1.37109 -1.56062,-1.18552 -3.42977,-2.49515 -5.29297,-3.68945 -0.28481,-0.18257 -0.44575,-0.33586 -0.7207,-0.51954 0.24667,-0.44461 0.42065,-0.90595 0.45508,-1.29101 0.061,-0.68238 -0.0687,-1.12573 -0.1836,-1.46094 -0.45948,-1.34084 -0.96753,-1.72343 -1.65234,-2.48828 -0.68482,-0.76485 -1.56038,-1.63756 -2.66406,-2.66211 -1.51563,-1.40695 -2.33163,-2.32055 -2.73243,-3.38672 l 3.14454,2.2168 z m 283.49414,4.73828 c 0.0373,0.0931 -0.0143,-0.0644 0.0957,0.55078 0.18649,1.04277 0.29102,2.76163 0.29102,5.03515 0,4.89859 -0.84255,9.42657 -2.46094,13.44727 -1.38836,3.44924 -3.29179,6.99517 -5,9.55078 -0.5984,0.89525 -1.08354,1.44972 -1.57617,2.03906 -0.65611,-0.33816 -1.22654,-0.52191 -1.89453,-0.70898 -1.40211,-0.39266 -3.13088,-0.72332 -4.93555,-0.99023 -1.80467,-0.26692 -3.65095,-0.46125 -5.23242,-0.51954 -0.79074,-0.0291 -1.50608,-0.03 -2.21289,0.041 -0.70681,0.071 -1.38001,-0.26646 -2.80274,1.15625 -0.33839,0.33838 -0.7721,0.89689 -0.92773,1.75 -0.15563,0.85311 0.12979,1.84485 0.51758,2.41016 0.093,0.13559 0.16652,0.14439 0.25586,0.25195 l -7.51954,0.77539 -0.17187,4.58203 c -0.0362,-0.0213 -0.18667,-0.048 -0.21094,-0.0664 -1.44635,-1.09396 -2.93765,-1.4792 -4.70703,-1.85156 -1.76938,-0.37236 -3.75198,-0.58289 -5.74805,-0.58008 l -2.72851,0.004 c 1.42618,-0.93672 2.72261,-1.76335 4.875,-3.44531 3.07951,-2.40645 6.77937,-5.4448 10.39453,-8.56641 22.47434,-19.40609 23.93874,-20.62145 28.47656,-23.29883 1.50861,-0.8901 2.6097,-1.37934 3.22266,-1.5664 z m -264.14649,8.09765 c 0.6811,0.23487 3.3496,1.37303 4.84375,2.58789 2.13468,1.73566 7.16502,5.70666 11.26758,8.89844 3.95724,3.07872 10.66582,8.83025 14.65039,12.5625 3.15343,2.95374 8.09863,6.78044 12.88281,10.2461 -0.32134,0.0487 -0.61058,0.0748 -0.9746,0.14453 -1.44018,0.27594 -3.24069,0.71264 -5.16407,1.25976 -2.40388,0.6838 -2.80473,0.68559 -4.35547,1.0918 0.0316,-0.43288 0.0763,-1.05767 0.0762,-1.05859 -1.2e-4,-6.5e-4 -0.11072,-0.46702 -0.19336,-0.66407 -0.0827,-0.19705 -0.17804,-0.36776 -0.27344,-0.51172 -0.7632,-1.1516 -1.2038,-1.07332 -1.44531,-1.16992 -0.48303,-0.1932 -0.5881,-0.1778 -0.74024,-0.20508 -0.30428,-0.0545 -0.54504,-0.081 -0.87109,-0.11523 -0.65211,-0.0684 -1.56183,-0.14521 -2.77735,-0.24805 -2.75903,-0.23342 -4.32564,-0.52181 -6.14453,-0.79883 0.11271,-0.29685 0.29812,-0.47173 0.30664,-0.85351 0.0185,-0.82728 -0.35583,-1.61308 -0.70703,-2.03906 -0.7024,-0.85198 -1.13694,-0.88062 -1.41015,-0.97657 -0.27321,-0.0959 -0.44051,-0.12729 -0.58985,-0.15429 -1.19472,-0.21603 -1.97274,-0.14176 -3.57422,-0.0937 -2.22096,0.0666 -3.73033,0.12631 -5.3125,0.73828 -0.21865,0.0846 -0.45265,0.24407 -0.68359,0.37109 -0.31047,-0.29423 -0.42784,-0.34263 -0.7793,-0.71484 -5.21746,-5.52564 -8.80361,-15.61373 -8.39257,-24.14453 0.13586,-2.8198 0.31003,-3.64452 0.36132,-4.15235 z m 287.33008,8.92774 c 0.10075,0.0694 0.17593,0.17048 0.28125,0.22851 -0.22424,0.24594 -0.33554,0.4318 -0.56836,0.67969 -2.238,2.3829 -4.26958,4.62803 -5.76758,6.35547 -0.74899,0.86372 -1.36068,1.59162 -1.82421,2.18164 -0.23177,0.29501 -0.42275,0.54832 -0.60743,0.82422 -0.0923,0.13795 -0.18274,0.27599 -0.29687,0.49609 -0.11413,0.22011 -0.38672,0.32142 -0.38672,1.5293 0,0.46626 0.0545,1.06926 0.42773,1.76367 0.37324,0.69441 1.17404,1.37073 1.93164,1.61914 1.51521,0.49683 2.31156,0.0245 2.92383,-0.2539 1.22454,-0.55687 2.12385,-1.31087 3.26953,-2.32813 2.29137,-2.03452 5.13667,-5.11072 8.05274,-8.77539 0.49318,-0.61979 0.85877,-0.94633 1.33789,-1.51172 -1.91502,3.64521 -5.21263,8.3797 -9.88867,13.64844 -3.06563,3.45419 -7.87783,9.08827 -10.78516,12.62891 -0.93264,1.13579 -1.92023,1.87227 -2.91211,2.80468 0.20592,-0.4174 0.37733,-0.90084 0.4375,-1.72461 0.0327,-0.4473 0.003,-1.06816 -0.32226,-1.74609 -0.32532,-0.67793 -0.98961,-1.28825 -1.58985,-1.56836 -0.92445,-0.4314 -1.496,-0.38119 -1.96875,-0.29687 0.18885,-0.98879 0.35938,-1.99889 0.35938,-3.10547 0,-0.91537 0.11931,-1.85536 0.26367,-2.45508 0.0615,-0.25554 0.11576,-0.39527 0.14258,-0.46289 1.27586,-1.1433 1.70446,-2.64927 1.44726,-4.1836 0.22096,-0.25173 0.57825,-0.61229 1.08203,-0.91796 1.60919,-0.97642 3.07854,-2.4515 5.11133,-4.51954 2.0328,-2.06803 4.34655,-4.60713 6.50391,-7.17382 1.25249,-1.49015 2.26666,-2.55775 3.3457,-3.73633 z m -318.11719,9.92969 c 0.94121,0.93323 1.68779,1.58034 2.71485,2.66992 2.4345,2.5827 4.48706,4.62446 5.96094,5.93359 0.73694,0.65457 1.1431,1.07275 2.06445,1.55859 0.23034,0.12147 0.4822,0.28048 1.11914,0.38282 0.31847,0.0512 0.76742,0.0959 1.38086,-0.0781 0.61344,-0.174 1.36747,-0.68315 1.77344,-1.31054 0.81194,-1.25479 0.51175,-2.08484 0.41015,-2.50782 -0.10159,-0.42298 -0.21129,-0.6468 -0.31445,-0.85742 -0.31326,-0.63954 -0.96842,-1.39288 -1.42774,-2.04297 3.11964,3.57139 6.18846,6.91664 8.0586,8.49024 0.66752,0.56168 1.06047,0.96206 1.44726,1.34765 0.0546,0.43551 0.1624,0.77688 0.26954,1.04492 0.35956,0.89965 0.81842,1.52449 1.41406,2.24219 -0.10515,-0.1267 0.26552,0.49322 0.43359,1.25781 0.16807,0.7646 0.23293,1.70263 0.16797,2.36915 -0.0729,0.74815 -0.11535,1.30431 -0.14453,1.85546 l -9.13086,-3.3789 7.3418,10.30859 c -2.01752,-1.79673 -4.42748,-4.43637 -7.2793,-8.17578 -3.9825,-5.22199 -9.51493,-12.06535 -12.49609,-15.44141 -1.50545,-1.70485 -2.73887,-3.7127 -3.76368,-5.66796 z m 301.98829,6.49218 c -0.0592,0.18851 -0.16167,0.17858 -0.0723,0.0606 0.0103,-0.0136 0.0599,-0.0454 0.0723,-0.0606 z m -58.06836,6.24414 -0.63672,3.07618 4.16797,1.81054 c 2.11139,0.91668 4.6282,1.4705 7.04882,1.76758 -0.385,0.0764 -0.74603,0.1555 -1.27343,0.13477 -1.46095,-0.0574 -3.86895,-0.67404 -7.65821,-2.07227 -1.98121,-0.73107 -3.97356,-1.35632 -5.86328,-1.83594 1.46598,-1.12241 2.83581,-2.02629 4.21485,-2.88086 z m 47.73632,4.53125 c 0.0437,0.89814 0.18675,1.7788 0.85938,2.74805 0.17165,0.24735 0.4271,0.50333 0.70703,0.74414 -0.23184,0.33201 -0.53177,0.59981 -0.71875,0.96484 -0.93574,1.82683 -1.50728,3.98433 -2.1543,7.03321 -1.26116,5.94287 -1.92294,7.171 -6.11914,11.36719 -2.94722,2.94722 -4.66459,4.40455 -7.24414,5.65039 -2.57954,1.24583 -6.26025,2.30915 -12.77148,3.90234 -4.18976,1.02516 -9.36053,1.79784 -13.34766,2.11719 -0.61227,0.049 -0.90817,0.0158 -1.45703,0.043 1.76894,-2.38315 3.06559,-5.20722 3.76367,-8.28711 0.79235,-3.49578 0.9089,-7.146 0.0977,-10.47071 3.67702,1.03441 7.16548,2.04324 9.26953,2.34571 2.79702,0.40208 5.01169,0.0724 7.16992,-0.57422 l 15.2207,-4.56055 -9.68554,-2.25586 c 2.94564,-0.34851 5.93659,-0.88543 8.13867,-1.72851 1.04816,-0.4013 1.79906,-0.68111 2.51562,-1.04102 0.35829,-0.17995 0.68518,0.0666 1.59766,-1.34375 0.22812,-0.35258 0.50853,-0.928 0.50977,-1.71094 0.001,-0.78294 -0.38095,-1.62167 -0.79102,-2.08398 -0.17864,-0.20141 -0.29606,-0.23329 -0.44922,-0.35742 0.9352,-0.39593 1.762,-0.76125 2.42969,-1.08789 0.69465,-0.33984 1.02785,-0.35647 1.93359,-1.20118 0.25759,-0.24023 0.37587,-0.19713 0.52539,-0.21289 z m -212.11523,1.83985 c 0.0564,0.037 0.12761,0.0962 0.18359,0.13281 l 4.02344,2.63281 c -2.19058,0.49017 -4.52508,0.96087 -6.16406,1.62891 -0.91965,0.37484 -2.0001,0.53575 -3.05274,0.72656 0.81056,-0.26899 1.63194,-0.52736 2.3125,-0.89648 0.95,-0.51526 1.90966,-1.09467 2.57032,-2.49219 0.23254,-0.49191 0.16053,-1.12446 0.12695,-1.73242 z m -91.10937,3.11133 c -0.65425,0 -1.17832,0.30653 -1.68946,0.60156 0.053,-0.0901 0.21521,-0.60156 1.68946,-0.60156 z m 44.1582,1.56073 c 0.47238,0.10272 3.65011,1.29137 4.67969,1.63086 -0.19735,0.24106 -0.44264,0.312 -0.57032,0.64063 -0.33729,0.86818 -0.2114,1.77753 -0.01,2.3164 0.20163,0.53888 0.43981,0.83815 0.64062,1.07422 0.80326,0.94429 1.38303,1.18442 2.21289,1.63867 0.82987,0.45425 1.84168,0.92936 3.0625,1.43946 1.7964,0.75057 4.17862,1.26022 6.7461,1.60742 -0.27796,0.27068 -0.56811,0.47863 -0.82032,0.88672 -0.20556,0.33261 -0.39189,0.65802 -0.55664,1.15234 -0.16474,0.49432 -0.59401,1.32284 0.22266,2.76953 0.40834,0.72335 1.27405,1.33418 1.9707,1.51758 0.69666,0.1834 1.19173,0.10807 1.55274,0.0312 0.722,-0.15364 1.05988,-0.37577 1.40625,-0.58984 -1.11443,0.68874 -0.46565,0.18818 0.21679,0.23437 0.68245,0.0462 1.63591,0.20726 2.5,0.45508 3.60982,1.03527 7.28156,0.55778 12.6211,-1.2793 0.87797,-0.30206 0.66767,-0.21416 1.34375,-0.41992 -0.46914,1.97282 -0.77525,3.78401 -0.62305,5.55274 0.23884,2.77561 1.36504,5.15032 3.09961,8.45117 0.69873,1.32966 1.2935,2.47663 1.88281,3.61133 -0.47191,-0.033 -0.64983,-7.4e-4 -1.1875,-0.0547 -3.86107,-0.38741 -9.31849,-1.2878 -14.84375,-2.54883 -7.33636,-1.67437 -16.85064,-6.72132 -19.38476,-9.52148 0.10406,0.11498 -0.85484,-1.41133 -1.57227,-3.2129 -0.71743,-1.80156 -1.4547,-4.052 -1.99609,-6.19726 -0.83783,-3.31983 -1.5269,-5.61397 -2.50781,-7.48242 -0.38115,-0.72602 -0.91734,-1.32849 -1.45704,-1.91407 0.43265,-0.45589 0.74526,-0.8705 1.14844,-1.4082 0.31161,-0.41557 0.11316,-0.23436 0.22266,-0.38086 z m 202.12304,5.15625 c 2.0427,0.34512 3.53967,0.69048 4.42383,1.02344 0.88417,0.33296 1.03274,0.53789 1.09961,0.64258 0.0669,0.10469 0.22368,0.44085 0.18555,1.49414 -0.0381,1.05329 -0.29706,2.67927 -0.75391,4.83203 -0.41332,1.94771 -1.03274,4.06407 -1.66797,5.80273 -0.63522,1.73867 -1.45709,3.22828 -1.52734,3.31641 -0.37948,0.47602 -2.68063,2.33516 -5.39258,3.92188 -2.71195,1.58671 -5.95226,3.15354 -8.66992,4.1289 -0.6132,0.22008 -1.08425,0.28447 -1.96289,1.02539 -0.43932,0.37046 -1.23112,1.20183 -1.2207,2.58399 0.0104,1.38215 0.87413,2.27116 1.35937,2.63672 0.97049,0.73111 1.47371,0.75632 2.17969,0.94726 0.70598,0.19095 1.53177,0.3686 2.56445,0.57227 2.98529,0.58876 7.18809,1.0628 9.99414,1.10742 1.30135,0.0207 2.19576,0.14434 2.65625,0.28711 0.46049,0.14277 0.47939,0.18266 0.62891,0.38086 0.29903,0.3964 0.90022,2.35995 1.1582,6.34765 l 0.30469,4.6875 -4.37305,2.18555 c -2.84765,1.4233 -8.97011,3.16013 -12.46875,3.5 l -17.96289,1.74414 c 0.004,-0.11112 0.0178,-0.18701 0.0215,-0.30078 0.0743,-2.29263 0.0311,-5.10272 -0.14453,-7.97656 -0.26242,-4.29431 -0.46496,-6.89131 -1.03125,-8.97461 -0.28315,-1.04165 -0.68753,-2.03742 -1.45313,-2.90039 -0.7656,-0.86297 -1.85344,-1.39728 -2.7168,-1.62305 0.31577,0.0826 -0.20148,-0.11055 -0.64062,-0.55859 -0.43914,-0.44805 -0.89005,-1.09486 -1.11914,-1.59766 -0.72048,-1.58127 -0.17117,-4.84515 2.39062,-8.48242 2.56179,-3.63727 6.83531,-7.34951 11.77735,-9.68945 1.94313,-0.92003 3.70383,-1.83227 5.04687,-2.60743 0.67152,-0.38758 1.23186,-0.73236 1.72461,-1.08593 0.24638,-0.17679 0.47056,-0.34238 0.75391,-0.61914 0.28334,-0.27677 1.06445,-0.3372 1.06445,-2.4043 0,-0.11068 -0.10435,-0.25069 -0.125,-0.3711 1.38993,-0.8761 3.13543,-1.82026 5.18359,-2.5332 3.39106,-1.18039 7.2086,-1.6975 8.71289,-1.44336 z m 74.80665,4.87891 c -0.0514,0.30766 -0.17166,0.55489 0.10742,1.26172 0.39311,0.99564 2.01067,1.95312 2.87109,1.95312 1.00486,0 1.20142,-0.23479 1.4043,-0.33594 0.13924,-0.0694 0.19971,-0.11096 0.27344,-0.1582 0.0464,0.19613 0.0119,0.32578 0.11132,0.56055 0.23266,0.54949 0.74079,0.96374 1.26368,1.29297 -1.35316,1.61036 -2.77075,3.0392 -3.8086,4.48437 -2.66443,3.71016 -13.89796,12.91509 -20.79883,16.55078 -0.73671,0.38814 -4.0246,1.19532 -5.74023,1.19532 -1.54884,0 -2.97594,0.19808 -4.28516,0.66796 -1.30921,0.46989 -2.76594,1.17696 -3.49023,3.06446 0.42754,-1.11415 0.0457,-0.16786 -0.75195,0.36523 -0.79766,0.53309 -1.94337,1.14401 -3.08204,1.59961 -2.0762,0.83074 -5.99521,1.27391 -11.11523,1.42188 -0.0476,-0.54318 -0.17489,-1.09113 -0.43359,-1.48438 -0.55153,-0.83836 -1.13842,-1.10034 -1.55274,-1.2793 -0.82864,-0.35791 -1.36066,-0.38275 -2.0039,-0.42968 -0.30303,-0.0221 -0.84548,0.0561 -1.18555,0.0527 1.78968,-0.23832 3.59936,-0.47268 5.58008,-0.8164 7.37726,-1.28024 12.15458,-3.02909 16.94922,-6.30665 7.70915,-5.2699 19.90406,-15.19099 29.6875,-23.66015 z m -219.26172,0.72851 c 3.00369,0.14622 6.40153,1.09564 9.20117,2.73633 0.62206,0.36456 1.02474,0.65362 1.57422,1 0.0701,0.43144 0.13756,0.90841 0.23828,1.10938 0.29785,0.59435 0.5172,0.79927 0.75586,1.06054 0.6267,0.68608 0.93515,0.82265 1.47265,1.18946 0.5375,0.3668 1.18808,0.7812 1.93555,1.23828 1.49494,0.91415 3.37287,1.99302 5.32031,3.04687 6.07521,3.2876 11.73757,9.92051 13.10743,14.63086 0.17762,0.61078 0.17088,0.46148 0.002,0.81836 -0.16893,0.35689 -0.81864,1.2295 -2.19336,2.51367 -1.69445,1.58287 -2.99314,3.0102 -3.78906,4.84375 -0.79593,1.83356 -0.9076,3.76462 -0.79493,5.88868 0.11622,2.19096 -0.20898,6.21186 -0.60351,7.95117 -0.64838,2.85825 -0.73917,5.58589 0.82422,7.89453 -0.12169,0.15261 -0.31823,0.50767 -1.29297,1.48242 -0.96689,0.96689 -1.72843,1.89227 -2.30664,2.78711 -0.57822,0.89484 -1.09424,1.57341 -1.15235,3.09961 -0.0291,0.7631 0.26353,2.15333 1.41211,2.98047 1.14859,0.82713 2.309,0.6911 2.98829,0.52148 1.11367,-0.27808 1.80618,-0.77302 2.5664,-1.38476 0.13799,1.64578 0.71667,2.58513 1.42969,3.84179 0.80273,1.41479 1.85047,2.93861 3.03125,4.3711 1.64576,1.9966 2.29594,3.0359 2.51562,3.73828 0.21969,0.70238 0.22915,1.56852 -0.0937,3.74023 l -2.37109,15.95703 10.62109,-12.67382 0.53516,-0.63868 c 1.25359,2.1715 3.01459,3.95978 5.28711,5.10547 1.74379,0.87913 4.91811,2.74759 6.67187,3.92969 -0.60258,0.53926 -1.24999,1.04714 -1.67773,1.71289 -0.64235,0.99978 -1.42646,2.26766 -0.70508,4.25586 -0.1679,-0.46276 -0.0133,-0.33414 -0.17383,0.14649 -0.16054,0.48062 -0.53521,1.23718 -1.08203,2.04492 -1.09362,1.61547 -2.86674,3.45758 -4.68164,4.70117 -1.2738,0.87284 -2.18663,1.35683 -2.67383,1.63086 -0.3084,-0.30019 -0.63705,-0.62609 -1.26171,-1.29102 -1.47067,-1.56545 -1.47397,-1.74119 -1.15235,-3.05078 l 3.20899,-13.07031 -11.22852,10.48242 c -1.51616,1.41511 -2.33452,1.89326 -2.45117,1.92969 -0.11665,0.0364 -0.14645,0.1026 -1.37695,-0.36524 -0.70048,-0.26632 -2.54388,-2.13218 -2.7461,-2.66406 -0.46257,-1.21665 -0.56223,-1.33923 -0.0547,-3.54687 0.50755,-2.20764 1.83816,-6.06839 4.32813,-12.84375 0.19794,-0.53863 0.39306,-0.84106 0.43555,-1.83789 0.0212,-0.49842 0.15897,-1.75147 -1.34961,-2.81055 -0.75429,-0.52954 -1.6952,-0.62097 -2.25977,-0.54102 -0.56456,0.0799 -0.88243,0.2452 -1.12305,0.375 -0.96246,0.51923 -1.10496,0.83326 -1.49414,1.26172 -0.38917,0.42847 -0.80831,0.93727 -1.30468,1.56836 -0.96796,1.23064 -4.34223,3.9644 -6.42579,5.02735 l -2.40429,1.22656 -2.26367,-3.07617 c -0.99727,-1.35607 -1.91114,-2.7203 -2.53907,-3.75391 -0.14235,-0.23432 -0.20116,-0.35923 -0.31054,-0.55273 0.04,-0.0534 0.0463,-0.0706 0.0898,-0.12696 0.56936,-0.73635 1.43204,-1.71719 2.36719,-2.65234 1.10411,-1.10411 1.97071,-2.01317 2.64062,-2.7832 0.66992,-0.77004 1.13558,-1.12277 1.60742,-2.39844 0.11797,-0.31892 0.26598,-0.73865 0.22071,-1.44336 -0.0453,-0.70471 -0.503,-1.78267 -1.25781,-2.35742 -1.50963,-1.14951 -2.41622,-0.67707 -2.9336,-0.55664 -1.03476,0.24085 -1.64162,0.59359 -2.57617,1.09375 -1.48348,0.79393 -2.59531,0.98273 -3.90625,0.77148 -1.31094,-0.21125 -2.92971,-0.93594 -4.93164,-2.46289 l -1.5,-1.14453 1.61914,-1.67188 c 1.79024,-1.84707 6.06634,-4.89016 8.49805,-6.0332 1.51245,-0.71093 2.88236,-1.39053 3.91601,-1.93555 0.51683,-0.27251 0.94236,-0.50695 1.3086,-0.72851 0.18312,-0.11078 0.34306,-0.20719 0.56445,-0.37305 0.11069,-0.0829 0.23382,-0.16953 0.44922,-0.39258 0.2154,-0.22305 0.93185,-0.3676 0.88672,-2.25 v -0.002 c -0.029,-1.17836 -0.692,-1.93501 -1.06641,-2.25977 -0.37441,-0.32475 -0.61057,-0.4225 -0.78906,-0.50195 -0.35699,-0.15889 -0.5171,-0.18454 -0.66602,-0.21875 -0.29783,-0.0684 -0.49244,-0.0917 -0.72265,-0.11914 -0.46043,-0.0549 -0.99624,-0.0942 -1.64844,-0.13281 -1.3044,-0.0772 -3.03902,-0.13792 -4.94922,-0.16602 -3.95038,-0.0582 -8.17719,-1.03848 -11.87305,-2.76953 l -4.38476,-2.05469 0.38086,-4.59765 c 0.31445,-3.79187 0.98116,-5.42173 1.67773,-6.07813 0.69658,-0.65639 2.32501,-1.20755 6.08984,-1.26562 3.20263,-0.0494 6.55824,-0.58626 8.875,-1.22266 0.5792,-0.1591 1.08981,-0.32016 1.60157,-0.53906 0.51175,-0.2189 1.10549,0.0193 2.04883,-1.72461 0.47166,-0.87193 0.28307,-2.86212 -0.42969,-3.6582 -0.71277,-0.79609 -1.23877,-0.89301 -1.625,-1.01172 -0.77247,-0.23743 -1.29592,-0.2551 -2.01172,-0.28321 -0.43506,-0.0171 -3.25837,-0.89793 -5.79492,-2.29687 -2.53655,-1.39894 -5.12875,-3.28676 -6.35742,-4.60352 -0.30567,-0.32757 -1.25073,-1.78055 -2.03711,-3.48437 -0.78639,-1.70383 -1.52957,-3.72646 -1.99219,-5.49805 -0.90581,-3.46869 -1.17138,-5.20793 -1.16602,-5.42578 0.0914,-0.098 0.36832,-0.36815 0.96289,-0.84961 1.16821,-0.94595 3.68576,-1.67551 6.68946,-1.5293 z m 12.9414,6.22266 c -0.10543,-0.0406 -0.0269,-0.0117 0.10547,0.0645 0.12145,0.0699 0.27916,0.0867 0.39844,0.15039 -0.32242,-0.0517 -0.44612,-0.19257 -0.50391,-0.21484 z m -85.72461,0.0449 c 8.58163,7.5273 17.74662,14.33425 28.87305,21.40039 7.06369,4.48599 10.23524,5.56567 17.97266,6.125 -0.13941,0.0322 -0.2233,0.003 -0.38477,0.0547 -0.38066,0.12164 -0.90051,0.27791 -1.52539,0.94922 -0.59613,0.64043 -0.93318,2.00653 -0.74023,2.93164 -3.01422,-0.30935 -5.76283,-0.74185 -8.01172,-1.32813 -4.14498,-1.08057 -6.59216,-2.83384 -6.93946,-3.42187 -1.12229,-1.90026 -2.47156,-2.17339 -3.83789,-2.57617 -1.36632,-0.40278 -2.88972,-0.60938 -4.49414,-0.60938 -1.69681,0 -6.73543,-2.03992 -11.83984,-5.67773 -5.10441,-3.63781 -10.59192,-8.67234 -14.83594,-13.89844 -0.68221,-0.84008 -1.0888,-1.41196 -1.69726,-2.1875 0.38959,-0.30831 0.76781,-0.66132 0.95507,-1.08594 0.0286,-0.0649 0.0154,-0.10187 0.0391,-0.16406 0.30403,0.30015 0.595,0.58553 0.85156,0.8125 0.15704,0.13893 0.29934,0.26254 0.50976,0.41602 0.10522,0.0767 0.22111,0.1609 0.43946,0.27929 0.21835,0.1184 0.42132,0.39258 1.52148,0.39258 0.39282,0 0.93208,0.0323 1.78125,-0.44726 0.60552,-0.34196 1.08111,-1.16351 1.36328,-1.96485 z m -5.67382,0.25586 c 0.0112,0.0131 0.098,0.0921 0.10742,0.10352 0.0827,0.10026 -0.005,0.10973 -0.10742,-0.10352 z m 87.63085,18.10938 c 0.1427,-0.0644 0.17196,0.0678 0.125,0.0879 -0.0291,0.0124 -0.1847,0.058 -0.25195,0.082 0.0281,-0.0208 0.10466,-0.15987 0.12695,-0.16992 z m 201.91993,8.84961 c 0.25777,0.49013 0.5726,0.90284 0.93359,1.17382 -0.16273,0.0857 -0.22081,0.14208 -0.38281,0.22657 -2.64282,1.37828 -5.23862,2.6492 -7.27149,3.55078 -1.01643,0.45079 -1.89621,0.80966 -2.52539,1.0332 -0.62917,0.22354 -1.23441,0.23633 -0.59961,0.23633 -2.0461,0 -3.6315,0.4504 -4.94531,2.57617 -0.33749,0.54609 -0.6311,1.55599 -0.39453,2.55078 l -6.76953,1.67383 c 0.0339,-0.0531 0.1213,-0.12962 0.15234,-0.17969 0.36532,-0.58912 0.56956,-1.07473 0.84766,-1.68359 -0.47871,1.04805 -0.0914,0.19004 0.74219,-0.41211 0.83355,-0.60215 2.11233,-1.41573 3.72265,-2.35156 3.22066,-1.87167 7.78437,-4.25604 13.21485,-6.86914 1.92654,-0.92704 1.65161,-0.75047 3.27539,-1.52539 z m -278.54493,3.61146 c 1.42911,0.69384 2.55097,1.19382 4.03321,1.93164 4.32103,2.15094 8.69178,4.40212 12.03711,6.21485 1.67266,0.90636 3.09208,1.70516 4.08984,2.30664 0.49888,0.30074 0.89521,0.55443 1.13086,0.71875 0.23565,0.16432 0.39292,0.46413 -0.0664,-0.14844 0.3885,0.51812 0.71883,0.97781 1.30274,1.50195 0.0725,0.0651 0.23387,0.1281 0.32617,0.19727 l -7.33594,-1.56641 c -0.13421,-0.0286 -0.2054,-0.0588 -0.33789,-0.0879 0.23901,-1.00792 -0.004,-2.01789 -0.28125,-2.46484 -0.63603,-1.0245 -0.95959,-1.02532 -1.25,-1.20898 -0.58082,-0.36734 -1.10807,-0.61 -1.83594,-0.95704 -1.56214,-0.74479 -7.03626,-3.35399 -12.2246,-5.82812 0.14835,-0.19651 0.3025,-0.37644 0.4121,-0.60938 z m 246.80469,6.35547 c 1.18585,-0.0254 1.76516,0.13194 1.99805,0.2461 0.23289,0.11415 0.35565,0.18124 0.69141,0.80859 0.36467,0.68141 0.64218,1.21529 1.0039,1.76367 0.24792,0.37586 0.70375,0.9302 1.49414,1.37305 l -1.21875,0.30078 -1.11914,6.61719 c -0.90123,5.33435 -4.40667,10.41886 -7.30664,11.89453 -5.12336,2.60706 -6.28291,2.76568 -12.01758,1.66211 -4.13822,-0.79635 -6.72655,-1.57666 -8.44336,-2.50781 -0.22958,-0.12453 -0.37665,-0.29508 -0.58398,-0.42579 1.25425,0.17009 2.51303,0.3164 3.71484,0.15625 0.79737,-0.10625 1.37706,-0.15835 2.1836,-0.41015 0.40327,-0.1259 0.96802,-0.15439 1.79297,-1.15235 0.41247,-0.49897 0.78531,-1.41208 0.73632,-2.24414 -0.049,-0.83205 -0.38575,-1.41212 -0.65039,-1.76953 -1.05853,-1.42964 -1.53706,-1.295 -2.29883,-1.66406 -0.76176,-0.36906 -1.7097,-0.78002 -2.94921,-1.30859 -0.80329,-0.34255 -0.61034,-0.30088 -1.1836,-0.64453 0.13386,-0.26674 0.3441,-0.48922 0.38672,-0.78907 0.17447,-1.22741 -0.28507,-1.9479 -0.56836,-2.36718 -0.25895,-0.38326 -0.4855,-0.59045 -0.70703,-0.78907 1.07112,-0.27818 2.02071,-0.63804 2.92578,-1.20898 0.46882,-0.29574 0.99112,-0.66593 1.45703,-1.44141 0.24395,-0.40602 0.39689,-0.97828 0.44532,-1.57617 1.56435,-0.51618 3.42782,-1.094 5.74023,-1.69531 5.55791,-1.44526 12.5179,-2.78621 14.47656,-2.82813 z m -216.66406,3.38282 c 0.36344,-0.0229 2.27849,0.22086 5.96094,1.01367 4.31208,0.92835 10.56652,2.23678 13.94922,2.91797 0.7405,0.14911 0.72357,0.20239 1.35546,0.35351 0.0355,0.72377 0.14973,1.4517 0.45118,1.93945 0.96185,1.55633 2.01082,1.82913 3.03125,2.17188 0.24396,0.082 0.52958,0.0618 0.78125,0.125 -0.3166,0.18613 -0.66908,0.49776 -1.16602,1.20117 -0.24428,0.34577 -0.56773,0.90379 -0.60547,1.74414 -0.0171,0.38106 0.24951,0.66666 0.38086,1.04297 l -6.16211,3.14649 1.74024,5.7832 5.63086,-0.63672 c 0.41587,-0.0471 0.80379,-0.12315 1.21875,-0.17578 -0.58199,0.36256 -1.06316,0.70699 -1.77149,1.06836 -6.56052,3.34693 -12.00738,3.69156 -16.24609,1.90234 -4.23872,-1.78922 -7.70516,-5.87909 -9.75391,-12.8418 l -2.03125,-6.90625 -0.78125,-0.16601 c 1.0738,-0.28418 1.73578,-0.85723 2.16211,-1.31641 0.48342,-0.52066 0.85256,-1.03394 1.29883,-1.6582 0.35887,-0.502 0.51171,-0.65771 0.55664,-0.70898 z m 152.30078,1.0371 16,7.47071 c 3.11109,1.45275 7.59308,4.56075 8.90625,5.93554 l 1.26953,1.33008 -1.68359,1.50782 c -3.92028,3.51186 -7.03429,3.81489 -11.22266,1.21679 -0.74151,-0.45997 -1.24149,-0.7796 -1.92383,-1.07812 -0.26311,-0.11511 -0.60558,-0.35412 -1.50195,-0.30078 l -8.91601,-9.34375 c -0.96743,-1.01383 -1.48402,-1.81334 -1.61915,-2.12891 -0.13512,-0.31557 -0.0159,0.14859 -0.16601,0.42578 0.644,-1.18918 0.58579,-1.73912 0.69141,-2.61328 0.0844,-0.69844 0.12698,-1.54919 0.16601,-2.42188 z m 81.88867,12.84766 1.30274,0.70703 -0.0664,4.07617 c -0.82372,0.17009 -1.59235,0.38257 -2.61914,1.4961 -0.28169,0.30548 -0.5353,0.85565 -0.7168,1.44726 -0.0487,-0.005 -0.10118,-0.0192 -0.15039,-0.0234 -0.59812,-0.0518 -1.33143,-0.47522 -2.85547,0.72265 -0.76201,0.59894 -1.27572,1.88321 -1.24804,2.69531 0.0277,0.81211 0.25512,1.24318 0.42578,1.57618 0.34131,0.66598 0.65068,1.01533 1.01562,1.45507 h 0.002 c 0.47628,0.57388 0.94849,0.87003 1.42578,1.1836 -1.5012,-0.36421 -2.906,-0.83864 -3.95899,-1.39453 -0.98251,-0.51869 -1.53682,-0.86745 -2.06445,-1.20313 0.20493,-0.20771 0.21303,-0.25489 0.50977,-0.52344 2.03854,-1.84485 4.5739,-5.31993 6.76367,-8.73242 z m -84.99609,1.60352 c 0.2056,0.023 0.26456,-10e-4 0.51367,0.0488 l 10.88867,2.17774 c -0.77156,0.56918 -1.53334,1.44195 -1.60547,2.19336 -0.0966,1.0062 0.15822,1.38801 0.28907,1.67773 0.52338,1.15891 0.8354,1.29995 1.4082,1.95313 0.5728,0.65318 1.33094,1.46888 2.31445,2.51172 2.66802,2.82896 3.48175,4.46149 3.52149,5.21875 0.0397,0.75725 -0.48472,2.03341 -2.82617,4.60937 l -2.22461,2.44727 -2.20899,-1.18946 c -1.73969,-0.93688 -5.14387,-3.85465 -6.46289,-5.58398 -0.9452,-1.23922 -1.86674,-2.28829 -2.74219,-3.09961 -0.43772,-0.40566 -0.83285,-0.75084 -1.43164,-1.09375 -0.29939,-0.17145 -0.6393,-0.36788 -1.29687,-0.48242 -0.65758,-0.11454 -1.9866,-0.006 -2.88672,0.89453 -1.52221,1.52212 -1.10867,3.03242 -0.8457,3.93359 0.26296,0.90118 0.68889,1.64058 1.26367,2.35743 -0.33124,-0.41312 0.58795,1.07075 1.2832,2.66406 0.69526,1.5933 1.50675,3.6287 2.24024,5.66211 1.19681,3.3179 1.7395,5.20342 1.83398,6.17187 0.0945,0.96846 0.0185,1.17527 -0.62695,2.5 -0.39343,0.80754 -2.64371,2.77404 -3.52344,3.06446 -1.51153,0.49896 -1.51619,0.40427 -1.47852,0.41992 0.0377,0.0156 -0.80047,-0.60449 -2.32422,-2.42969 -0.93751,-1.12299 -1.71573,-1.98232 -2.42187,-2.64844 -0.35307,-0.33306 -0.67569,-0.61833 -1.10352,-0.90234 -0.42782,-0.28401 -0.85948,-0.847 -2.47461,-0.66211 -0.80756,0.0924 -1.88284,0.73044 -2.35351,1.47266 -0.47067,0.74221 -0.50798,1.34159 -0.51563,1.75585 -0.0153,0.82853 0.14451,1.22433 0.29297,1.66993 0.29694,0.8912 0.73315,1.79353 1.36524,2.97461 0.1181,0.22068 0.12018,0.19195 0.15625,0.23828 -0.006,-0.042 -0.30169,0.48214 -1.45899,1.55468 -0.9881,0.91576 -1.70422,1.5535 -2.09375,1.83399 -0.37266,0.26835 -0.24708,0.14846 -0.0273,0.13281 l -0.004,0.004 c 0.47955,-0.0125 -0.54503,-0.28037 -2.98633,-2.00196 -3.93085,-2.77201 -5.71738,-6.81386 -5.51562,-8.00585 0.18622,-1.10025 0.14486,-2.17017 -0.27148,-3.26563 -0.33762,-0.88833 -1.24533,-1.84613 -2.49805,-2.34766 1.11305,-0.72858 2.09125,-1.5006 3.29687,-2.03515 3.41225,-1.51291 6.85821,-3.90423 8.88477,-6.67774 l 0.41016,-0.56054 1.17187,1.12109 11.04883,10.55469 -3.39649,-15.11719 c -0.54331,-2.41815 -0.57726,-3.13399 -0.44336,-3.55469 0.13391,-0.42069 0.87628,-1.49727 2.92383,-3.76367 1.3533,-1.49794 2.54471,-3.13659 3.45703,-4.69531 0.71654,-1.22422 1.24181,-2.31475 1.48438,-3.70117 z m -164.40234,1.92968 c 0.3416,0.4601 1.03837,1.17864 2.88281,3.88477 1.25511,1.84149 2.65253,3.63211 3.95312,5.10937 0.84536,0.96019 1.57144,1.70958 2.375,2.38282 -1.04111,0.67387 -2.41346,1.3377 -4.15429,2.00781 0.30098,-0.26862 0.61425,-0.66678 0.95312,-1.49219 0.35266,-0.85899 0.10329,-2.78972 -0.71875,-3.60742 -0.7066,-0.70287 -1.23498,-0.83574 -1.67383,-0.93164 0.0411,-0.5391 0.18838,-1.07583 -0.004,-1.54297 -0.31739,-0.77107 -0.79475,-1.20963 -1.17383,-1.49609 -0.75816,-0.57292 -1.32067,-0.72435 -1.9375,-0.90039 -0.35171,-0.10038 -0.92833,-0.13513 -1.32227,-0.21485 0.33985,-0.70461 0.61006,-1.59971 0.32227,-2.46093 -0.0377,-0.11288 -0.0949,-0.13768 -0.13672,-0.23633 0.205,-0.18308 0.43961,-0.29177 0.63477,-0.50196 z m 43.54296,1.95704 c -0.008,0.0261 -0.01,0.0685 -0.0176,0.0957 -0.003,0.003 -0.009,0.007 -0.0117,0.01 0.0158,-0.0258 0.0137,-0.087 0.0293,-0.10546 z m -0.19531,1.02344 c 0.001,-1.9e-4 0.003,1.9e-4 0.004,0 -0.0106,0.15779 -0.0723,0.19476 -0.0723,0.37891 0,-0.2289 0.0521,-0.21263 0.0684,-0.37891 z m 133.04688,2.64453 c -0.0147,-0.006 0.26214,0.15632 0.33593,0.19727 -0.26693,-0.0659 -0.32196,-0.19115 -0.33593,-0.19727 z m 70.22461,4.66211 c 0.0301,0.003 0.22223,0.0409 0.29101,0.0508 -0.26107,0.0337 -0.3533,-0.0562 -0.29101,-0.0508 z m -42.93164,1.74805 c 1.45001,0.2992 2.92465,0.52539 4.30468,0.52539 2.29171,0 5.37773,0.88042 7.98438,2.27734 2.60664,1.39693 4.69848,3.36598 5.38086,4.68555 1.13186,2.18878 1.10996,2.92097 0.32617,4.19336 -0.78379,1.27239 -3.12141,3.19184 -7.39649,5.32813 -1.98402,0.99143 -3.94609,1.89127 -5.45117,2.51757 -0.6415,0.26695 -1.13794,0.45122 -1.55664,0.59961 -0.48829,-0.34284 -1.14626,-0.84057 -1.95508,-1.49414 -1.51642,-1.22536 -3.52351,-2.99788 -5.54101,-4.84179 0.24727,0.0309 0.36666,0.12982 0.73242,0.10156 0.47507,-0.0367 1.21123,-0.14543 1.97656,-0.81836 0.76534,-0.67293 1.13603,-1.90026 1.08985,-2.64258 -0.0219,-0.35202 -0.11742,-0.48026 -0.17774,-0.71875 1.04428,0.34891 2.10561,0.70771 2.91992,0.91602 0.55345,0.14157 1.01361,0.2509 1.59571,0.30664 0.29105,0.0279 0.58128,0.0852 1.24218,-0.0566 0.33046,-0.0709 0.80524,-0.18243 1.39649,-0.67383 0.59125,-0.4914 1.13477,-1.56395 1.13476,-2.41797 0,-1.61903 -0.62053,-1.89923 -0.85156,-2.15039 -0.23102,-0.25117 -0.37908,-0.36026 -0.51562,-0.46484 -0.27309,-0.20917 -0.49368,-0.34634 -0.75196,-0.50196 -0.51654,-0.31123 -1.14672,-0.65148 -1.91211,-1.04492 -1.23555,-0.63511 -2.96056,-1.4407 -4.70703,-2.24219 0.18571,-0.19064 0.38899,-0.32559 0.53711,-0.59961 0.14289,-0.26433 0.13895,-0.51936 0.19532,-0.7832 z m -157.47657,1.54489 c 0.0626,0.28478 0.0207,0.56985 0.17774,0.83789 0.0625,0.10677 0.13426,0.11719 0.19922,0.20899 -0.0755,0.0315 -0.10084,0.0482 -0.17774,0.0801 -2.02642,0.84118 -3.61832,1.55385 -4.8125,2.15039 -0.59709,0.29826 -1.09008,0.56375 -1.53125,0.83593 -0.44116,0.27219 -0.77529,0.32964 -1.45703,1.25 -0.17043,0.2301 -0.38424,0.54254 -0.53516,1.09766 -0.15092,0.55512 -0.16458,1.45242 0.20508,2.21094 0.73932,1.51704 1.89731,1.67095 2.39063,1.7539 0.98663,0.16592 1.31298,0.0287 1.83984,-0.0605 0.33867,-0.0574 0.94706,-0.25251 1.34766,-0.34571 l 2.75195,4.53516 c -0.1581,0.15351 -0.29943,0.26274 -0.45703,0.41797 -1.57377,1.5501 -3.23227,2.95945 -4.5332,3.9082 -0.62106,0.45293 -1.1469,0.78185 -1.4961,0.97266 -0.11519,-0.0562 -0.89812,-0.22757 -2.0664,-0.70313 -1.35838,-0.55293 -3.01784,-1.32205 -4.62305,-2.13672 -1.60521,-0.81467 -3.16833,-1.68212 -4.33008,-2.40625 -0.58087,-0.36206 -1.06281,-0.69226 -1.36719,-0.92578 -0.0967,-0.0742 -0.13637,-0.12237 -0.1914,-0.17968 -0.31109,-0.57809 -0.61408,-2.09448 -0.36133,-3.66407 0.26434,-1.64157 1.09716,-3.16356 1.65039,-3.63672 4.3806,-3.74649 7.69508,-5.20262 11.48242,-5.40234 1.71149,-0.0903 3.83378,-0.47854 5.89453,-0.79883 z m 194.27344,11.90987 c 0.59011,0.1661 1.07464,0.30875 1.60938,0.4082 0.29559,0.055 0.54356,0.16435 1.33984,0.0566 0.0674,-0.009 0.22608,-0.13584 0.30859,-0.15039 0.003,0.0282 0.007,0.01 0.01,0.0391 0.0914,0.93852 0.0209,1.77276 -0.0918,2.24805 -0.0111,0.002 -0.0142,0.006 -0.0254,0.008 -0.52739,0.0992 -1.31455,0.20495 -2.24023,0.29493 -1.85138,0.17996 -4.27677,0.29987 -6.72852,0.30468 l -0.88086,0.002 c 0.2731,-0.18011 0.55251,-0.44583 0.80664,-0.5918 0.95689,-0.54963 1.99671,-0.68359 1.36133,-0.68359 1.12129,0 2.16795,-0.21346 3.17773,-0.76954 0.44795,-0.24668 0.9336,-0.6662 1.35352,-1.16601 z m -235.01367,0.65234 c 0.0255,0.0218 0.0557,0.0768 0.0801,0.0957 0.9639,0.74553 1.29554,0.61869 1.59961,0.66601 0.30406,0.0473 0.53289,0.0582 0.76953,0.0645 0.44071,0.0116 1.0988,-0.0762 1.625,-0.11132 0.17334,0.31646 0.31781,0.7155 0.51562,0.87304 0.7004,0.55784 1.10896,0.59782 1.42383,0.67188 0.62973,0.14812 1.01073,0.15119 1.50391,0.17187 -0.7068,-0.0297 0.33396,0.12846 1.24414,0.64453 0.73766,0.41826 1.59048,1.04776 2.38867,1.66993 -1.09488,0.11298 -2.30601,0.19056 -3.51563,0.15039 -2.67324,-0.0888 -5.41201,-0.68755 -6.2539,-1.11133 -1.00958,-0.5082 -1.70345,-1.5254 -1.81446,-2.47852 -0.11627,-0.99841 -0.0303,-0.98501 -0.0117,-1.01367 0.005,-0.007 0.38173,-0.23549 0.44531,-0.29297 z m 3.68164,0.0508 c 5.3e-4,0.002 10e-4,0.002 0.002,0.004 -0.0588,0.0214 -0.25863,0.19598 -0.27929,0.20508 0.11413,-0.0503 0.16933,-0.15378 0.27734,-0.20899 z m 177.48633,4.89453 c 0.68146,0.4561 1.22171,0.65595 1.91992,1.20704 1.90577,1.50418 3.79037,3.30432 5.20898,5.00781 1.41862,1.70349 2.31034,3.39223 2.4668,4.09375 0.2693,1.20746 0.4909,0.45543 -0.21289,1.3164 -0.70379,0.86098 -2.89649,2.70054 -6.99219,5.78321 -2.47593,1.86353 -4.81673,3.56049 -6.5625,4.76953 -0.43748,0.30298 -0.69434,0.46214 -1.04687,0.69726 -0.17117,-0.2274 -0.31767,-0.37404 -0.48438,-0.6289 -0.96851,-1.48068 -2.44995,-4.46716 -3.46289,-6.89844 -0.5038,-1.20924 -0.90481,-2.31214 -1.09375,-2.96094 0.0977,-0.48791 0.13789,-0.91743 0.11133,-1.16601 -0.0688,-0.64374 -0.20303,-1.03045 -0.36133,-1.49219 -0.14981,-0.437 -0.43947,-0.98719 -0.6543,-1.47656 0.15387,-0.0305 0.25888,0.004 0.42969,-0.0527 0.39596,-0.13231 0.69874,-0.46058 1.01367,-0.75586 1.67842,2.14482 3.0939,3.85502 4.16797,4.9043 0.59543,0.58168 0.99607,1.02272 1.94336,1.47656 0.47365,0.22693 1.26935,0.65861 2.63281,0.18555 1.36347,-0.47306 2.08767,-2.03052 2.16797,-2.76562 0.16061,-1.4702 -0.19234,-1.87919 -0.4707,-2.59571 -0.0589,-0.15172 -0.17272,-0.35526 -0.24023,-0.51367 0.72563,-0.32367 1.48941,-0.83858 1.79687,-1.53125 0.85138,-1.91803 0.1473,-2.34902 -0.0293,-2.78906 -0.45832,-1.14207 -1.24128,-2.35049 -2.24804,-3.81446 z m -126.25977,1.28516 c -0.44479,0.9011 -0.91093,1.83578 -1.18164,2.45313 -0.19228,0.43849 -0.34263,0.79406 -0.47656,1.24609 -0.067,0.22602 -0.14319,0.46123 -0.17383,0.91797 -0.0306,0.45674 -0.19534,1.51323 1.05078,2.62305 0.17583,0.15659 0.3895,0.11439 0.5957,0.22265 -0.18689,0.4321 -0.39092,0.83296 -0.48828,1.39453 -0.0708,0.40815 -0.15661,0.90745 0.0723,1.70703 0.22888,0.79959 1.17364,1.93671 2.20508,2.24805 2.06287,0.62268 2.65998,-0.22596 3.24414,-0.60351 0.58415,-0.37756 1.08229,-0.80614 1.64844,-1.34375 0.81035,-0.76952 1.87208,-2.05275 2.91406,-3.29493 0.38865,0.28203 0.7872,0.55689 1.15429,0.63868 -0.48225,1.2262 -0.87426,2.48787 -1.09179,3.6875 -0.20116,1.10932 -1.56863,4.96274 -2.77735,7.33203 -0.55683,1.09148 -1.21632,2.0737 -1.73828,2.71484 -0.44841,-0.23771 -0.96191,-0.52334 -1.60547,-0.94531 -1.5442,-1.01253 -3.46365,-2.45777 -5.3125,-3.98828 -1.84884,-1.53051 -3.64177,-3.15757 -4.95507,-4.51172 -0.65665,-0.67708 -1.1935,-1.28943 -1.53516,-1.73633 -0.34166,-0.4469 -0.44728,-0.84033 -0.33008,-0.4082 -0.17671,-0.65155 -0.20945,-0.61181 0.15625,-1.38282 0.36571,-0.771 1.37029,-2.17871 3.20899,-4.26757 1.87866,-2.13428 3.74155,-3.62651 5.41601,-4.70313 z m 144.0332,16.57031 c 0.16035,0.59361 0.29829,1.25577 0.4375,1.94727 -0.0186,-0.009 -0.04,-0.0267 -0.0586,-0.0352 -0.4135,-0.18836 -0.807,-0.38254 -1.57812,-0.46093 -0.27509,-0.028 -0.70639,0.055 -1.12305,0.13867 0.84786,-0.63134 1.60348,-1.13279 2.32226,-1.58985 z m -161.37109,0.72657 c 0.29451,0.23294 0.69177,0.59314 1.02344,0.86718 l -1.41992,1.01172 c 0.15426,-0.63893 0.15286,-1.22771 0.35156,-1.78125 0.0161,-0.045 0.0285,-0.0535 0.0449,-0.0976 z m 156.77539,2.71679 c -0.52003,1.19142 -0.28762,1.96425 -0.14844,2.45117 0.14987,0.5243 0.33288,0.90638 0.54297,1.31836 0.42019,0.82397 0.97892,1.72234 1.72266,2.85743 0.12233,0.1867 0.13586,0.25075 0.22851,0.41211 -0.0642,0.0217 -0.12221,0.0496 -0.16406,0.0664 -0.10957,-0.0826 -0.15935,-0.10724 -0.29297,-0.21875 -0.65581,-0.54731 -1.52861,-1.39444 -2.33984,-2.2793 -0.77902,-0.84971 -1.49212,-1.7343 -1.97461,-2.41601 0.17794,-0.19427 0.28456,-0.33436 0.52344,-0.56836 0.49237,-0.48232 1.24756,-1.06691 1.90234,-1.62305 z m -151.09961,2.20899 1.0586,0.95703 -1.33985,1.39844 c -0.58708,0.61277 -0.94009,0.76003 -1.43554,1.15429 0.0498,-0.10735 0.0162,-0.10247 0.0723,-0.21484 z m 133.45117,0.32812 c 0.18252,0.0989 0.20028,0.19992 0.21485,0.21094 0.0241,0.0183 -0.094,-0.089 -0.21485,-0.21094 z m 4.75196,15.34961 c 0,1.05226 -0.22476,1.25135 -0.34571,1.29883 0.17044,-0.40321 0.34571,-0.8152 0.34571,-1.29883 z m -115.20313,0.22266 c 0,0.62863 -0.108,0.9758 -0.22656,1.20312 0.13245,-0.40746 0.22656,-0.82519 0.22656,-1.20312 z"
       id="path7"
       sodipodi:nodetypes="cssssssssscssssssssssssssscssscsssssscssssssssssssssscssssccssssccssscscscsssscccsssscccssscssssscsssscsssscccccssscssscssscssscsssscsssscsssscsscsssssccscssscsssscsssssscsssssccssscssscsssssccsssscsssccsssscssssscscccssssccsscsscscssccccsssscsssssssccccsccssssccsssccscscssccscsssscsccsscccssssssssssscsscssscssccssscssssssssscscscsscccsssscscccccssccsscsssssscscscccssscscsssscccscssccccscscssscssssccssscssccscssscscssssssssssssssssssccccccssscsssssssscssssssscscsssscsscssscsssscscssssssssssscssssscsssccccscscssscscccssssssssssssccsccsssssssscccssssssssssssccccsssssssssssscsccsscssssccscsssssscscssssssscscsscssccssscsccscssscssssscsccccsscsssssscccssscssssssscsscsscsscsscsscsscccccsscccssccccccsscsscsccccsccssscccscsccsccssssscccsssscscsssssssssssssscssccssscsccccsssssscssccssccsscscccccccccccccccccccssssssscscssscssssssssscssscsccsssssssccsscsssscscssccscccccsccscsccccsccsscscssscsccccccssssssscsscsscccssssscssssssssscsssssccsscsssscsssssccscsssccssscsssccsscscccsccccsccccccc"
       inkscape:label="znak"
       transform="scale(0.38458351)" /><path
       id="path4"
       style="display:inline;opacity:1;font-size:107.967px;font-family:'New Rocker';-inkscape-font-specification:'New Rocker';letter-spacing:2px;baseline-shift:baseline;white-space:pre;overflow:visible;fill:none;stroke:#000000;stroke-opacity:1;enable-background:accumulate;stop-color:#000000;stop-opacity:1;stroke-width:0.49137931;stroke-dasharray:none"
       d="m 388.17969,366.60352 -2.51953,5.03906 c -0.59013,1.18025 -1.37157,2.57987 -2.3418,4.17383 l -0.0293,0.0469 -0.0273,0.0488 c -0.89808,1.5889 -1.86722,3.18311 -2.9082,4.7793 l -0.0117,0.0156 -0.01,0.0156 c -1.00219,1.57487 -1.96939,3.07851 -2.89844,4.50781 l -0.0332,0.0527 -0.0312,0.0527 c -0.86813,1.44688 -1.55825,2.60766 -2.07422,3.49218 l -1.51367,2.59571 2.3457,1.87695 c 0.95441,0.76352 1.57844,1.39913 1.80274,1.6875 l 0.13281,0.16992 0.15234,0.1543 c 0.72972,0.72972 1.65685,1.53076 2.85938,2.50781 l 2.43555,1.97852 2.2207,-2.21875 c 1.22249,-1.22249 2.50599,-2.47674 3.84961,-3.76172 l 0.0996,11.95898 c -0.87153,0.095 -1.74824,0.16945 -2.63086,0.22461 l -3.26563,0.20313 v 7.34961 l 2.58594,0.68945 c 0.73996,0.19733 1.07635,0.43326 1.08789,0.44336 l 0.16992,0.15039 0.17578,0.11719 c 0.0254,0.0308 0.1009,0.13804 0.20704,0.41406 0.15157,0.39407 0.35849,1.33588 0.41992,2.6875 l 0.004,0.0781 0.008,0.0781 c 0.12931,1.42245 0.20117,3.35149 0.20117,5.73047 v 12.40625 l -6.40235,2.80078 -1.5332,-1.16797 v -17.92578 -4.85742 c 0.0641,-1.26714 0.0978,-2.45267 0.10156,-3.5625 0.0692,-1.10785 0.13806,-2.13941 0.20703,-3.10938 0.14241,-1.00593 0.28336,-2.09311 0.42383,-3.28711 l 0.72657,-6.17187 -5.64454,2.60352 c -0.71362,0.32936 -1.85792,0.76047 -3.32226,1.22851 -1.51086,0.41078 -3.16079,0.82437 -4.96289,1.24023 -1.80925,0.41753 -3.61748,0.79795 -5.42578,1.14649 -1.47628,0.22619 -2.74987,0.37701 -3.96875,0.50781 v -1.20312 h -15.22461 v -2.24024 c 0,-0.51883 0.0346,-1.58628 0.10547,-3.07422 v -0.004 -0.004 c 0.0689,-1.51489 0.17307,-3.06851 0.31054,-4.6582 0.2104,-1.67997 0.41954,-3.25907 0.62891,-4.72461 0.19623,-1.37366 0.45378,-2.32681 0.54101,-2.54492 l 3.54688,-8.86914 -8.42383,4.5039 c -2.99649,1.60278 -5.79382,2.91435 -8.38086,3.93555 -2.37227,0.93642 -4.99446,1.51239 -7.91406,1.70703 l -6.65234,0.44336 3.93554,4.92188 c -0.0234,-0.0283 -0.0401,-0.0477 -0.0488,-0.0547 h -0.002 -0.002 -0.002 l -0.002,0.002 v 0.002 c 0.003,0.0493 0.22644,0.47382 0.33789,1.06836 l 0.004,0.0215 0.004,0.0215 c 0.18967,0.94836 0.35721,2.06937 0.49218,3.35156 v 0.01 l 0.002,0.01 c 0.13692,1.2323 0.24018,2.46389 0.30859,3.69531 l 0.006,0.10742 0.0117,0.10742 c 0.13655,1.16068 0.1914,2.00535 0.1914,2.29102 v 1.74219 c -2.15758,1.75479 -4.3661,3.15105 -6.67578,4.05078 l 0.89453,-1.28516 h -6.66406 c -3.26093,0 -5.84627,-0.54612 -7.85742,-1.48633 -2.05786,-1.06847 -4.17367,-2.71769 -6.31055,-5.04883 l -1.90039,-2.07422 -2.42773,1.42188 c -1.63811,0.96027 -4.28398,1.9792 -7.82813,2.86523 -3.376,0.84401 -7.57011,1.30079 -12.54297,1.30079 h -1.16601 c -0.52314,-0.11067 -0.92338,-0.10938 -1.31836,-0.10938 h -4.38672 l 0.99609,4.27344 c 0.54192,2.32251 1.17086,4.29753 1.97266,5.99023 l 0.0312,0.0664 0.0332,0.0644 c 0.85815,1.63048 1.8588,3.04261 3.10352,4.1836 l 0.0606,0.0566 0.0644,0.0527 c 1.19993,0.99995 2.58612,1.75732 4.07812,2.18359 l 0.13672,0.0391 0.13868,0.0273 c 1.32772,0.26555 2.70826,0.39258 4.13671,0.39258 2.21109,0 4.6479,-0.43192 7.49414,-1.20117 1.13435,-0.30658 2.17501,-0.78522 3.27539,-1.1543 v 3.43164 c -0.54514,0.21184 -0.91226,0.41416 -1.60156,0.625 -1.45773,0.39555 -3.10259,0.76849 -4.94336,1.10938 -1.82671,0.33827 -3.77179,0.60972 -5.82812,0.8164 -1.9865,0.13548 -3.93556,0.20508 -5.8457,0.20508 -1.73749,0 -3.31133,-0.10184 -4.7129,-0.29297 l -5.99218,-0.8164 2.30273,5.59374 c 0.36918,0.89658 0.66644,2.01222 0.84961,3.35547 l 0.002,0.01 v 0.0117 c 0.0565,0.39529 0.10431,0.80282 0.14453,1.2207 H 256.375 l 6.29688,-19.21094 -1.4043,-1.50586 c -0.38152,-0.40876 -0.81834,-1.21657 -1.03906,-2.74218 -0.26422,-1.91564 -0.4004,-3.95116 -0.4004,-6.10938 v -0.34961 l 5.05469,-7.58203 -9.34375,2.875 c -2.68236,0.82534 -5.39968,1.51293 -8.15039,2.06445 -2.75738,0.4811 -5.47568,0.82536 -8.15234,1.03125 l -3.01953,0.23243 -0.44336,7.11132 2.14062,1.00586 c 0.40252,0.18942 0.62785,0.36748 0.94727,1.16602 l 0.0273,0.0684 0.0312,0.0684 c 0.29132,0.64738 0.66406,2.43086 0.66406,5.04883 0,1.92458 -0.13392,4.26141 -0.4121,6.97656 -0.27593,2.62132 -0.69192,5.32289 -1.24805,8.10351 l -0.008,0.041 -0.006,0.041 c -0.48189,2.75363 -1.09999,5.39383 -1.85157,7.92187 l -0.01,0.0293 -0.008,0.0312 c -0.32628,1.17461 -0.73534,1.85663 -1.10743,2.79101 l -0.64648,-0.34961 c 0.0225,-0.90264 0.0605,-1.83521 0.0605,-2.69726 v -4.64258 c 0,-7.86353 -0.36122,-14.74694 -1.10157,-20.6875 v -0.002 c -0.67996,-6.04282 -1.83823,-10.62225 -4.15039,-13.99414 l -2.11914,-3.0918 -2.92773,2.3418 c -0.32752,0.26201 -1.19973,0.78981 -2.45117,1.35742 -1.33288,0.53095 -2.80682,1.06772 -4.42969,1.60937 -1.55595,0.4726 -3.14896,0.91236 -4.77539,1.32032 -1.62743,0.33756 -3.00317,0.57218 -4.06641,0.69726 l -3.07422,0.36133 v 7.76758 l 4.19532,0.86718 c 0.92286,1.87649 1.8353,4.40129 2.57226,7.91602 l 0.006,0.0254 0.006,0.0274 c 0.74191,3.2856 1.20806,7.32036 1.36523,12.0664 h -12.28125 c -0.0507,-1.65765 -0.0762,-3.30913 -0.0762,-4.95312 0,-4.1147 0.10476,-8.00724 0.31641,-11.67578 0.21505,-3.72749 0.43054,-7.01983 0.64453,-9.87305 l 0.29102,-3.88672 -3.89454,0.14844 c -3.82472,0.14433 -7.21989,0.28688 -10.1875,0.43164 -2.9903,0.14587 -5.69948,0.32939 -8.13476,0.55078 h -0.006 l -0.004,0.002 c -2.39167,0.22422 -4.6167,0.52422 -6.67968,0.90625 l -0.0117,0.002 -0.0117,0.002 c -0.69149,0.13298 -1.32886,0.32834 -2.00391,0.48047 -0.15155,-0.83422 -0.35968,-1.67069 -0.47461,-2.50391 -0.26644,-1.93173 -0.39844,-3.85788 -0.39843,-5.78516 0,-2.28709 0.22769,-4.4883 0.67968,-6.61914 l 0.002,-0.0117 0.002,-0.01 c 0.20111,-0.97682 0.66578,-1.82044 0.98242,-2.73633 0.41943,0.19201 0.73373,0.42047 1.17773,0.60547 1.80356,0.75148 3.60987,1.42985 5.41993,2.0332 l 0.0801,0.0273 0.082,0.0234 c 1.84754,0.51732 3.59419,0.96335 5.24218,1.3379 l 0.0879,0.0195 0.0879,0.0156 c 1.77299,0.30834 3.25054,0.48242 4.58985,0.48242 3.97022,0 7.70194,-1.87936 10.62891,-4.97851 2.79893,-2.96356 4.97891,-6.58855 6.55664,-10.76953 l 2.42382,-6.42188 -6.61328,1.83789 c -1.18722,0.32978 -2.41253,0.62518 -3.67187,0.89258 -1.16164,0.17993 -2.35904,0.27539 -3.60157,0.27539 -2.02917,0 -3.97373,-0.16643 -5.84374,-0.48633 -1.91844,-0.40006 -3.72837,-0.89286 -5.42188,-1.47851 -1.65732,-0.5979 -3.2025,-1.25707 -4.63672,-1.97266 -1.41479,-0.7422 -2.60422,-1.43862 -3.54297,-2.06445 l -3.07617,-2.05078 -1.86328,3.19336 c -1.75781,3.01339 -3.71743,4.89582 -5.89063,5.98242 -2.28738,1.14369 -5.22052,1.79101 -8.91601,1.79101 -1.73751,0 -3.1503,-0.10415 -4.17774,-0.27539 -1.33686,-0.22281 -2.39301,-0.37719 -3.25,-0.46289 l -7.9707,-0.79687 4.85547,6.37304 c 1.99196,2.61445 3.30953,5.51731 4.00195,8.85352 0.74128,3.57164 1.11524,7.29116 1.11524,11.16992 0,3.55709 -0.17477,6.99763 -0.52149,10.32617 -0.35586,3.41629 -0.74516,6.61266 -1.16992,9.58594 l -0.73242,5.12695 5.02344,-1.25586 c 2.24534,-0.56133 4.60306,-1.09014 7.07226,-1.58398 2.48796,-0.49759 4.97541,-0.95834 7.46289,-1.38477 2.46661,-0.42285 4.85709,-0.77606 7.17188,-1.05664 1.39861,-0.16953 2.55298,-0.26116 3.78906,-0.3789 0.21249,0.58676 0.38407,0.74505 0.55469,1.87109 0.32945,2.1744 0.5,4.59361 0.5,7.25195 0,3.08426 -0.20439,6.08914 -0.61328,9.01954 l -0.006,0.0351 -0.004,0.0352 c -0.13162,1.10563 -0.34636,1.59967 -0.51367,2.5 -2.01001,-1.00507 -4.11262,-2.0239 -5.9375,-3 -3.01232,-1.72029 -5.75515,-3.23676 -8.21875,-4.54102 -2.48003,-1.31295 -4.64798,-2.37838 -6.54492,-3.21484 -2.00407,-0.95935 -3.68126,-1.61719 -5.66602,-1.61719 h -4.55859 l 1.19922,4.39844 c 0.1713,0.6281 0.27591,1.19474 0.32617,1.69726 0.0594,0.594 0.0918,1.23564 0.0918,1.92188 0,1.88287 -0.38476,3.6141 -1.18555,5.33008 l -0.0117,0.0234 -0.01,0.0234 c -0.78716,1.75599 -1.89489,3.49143 -3.36132,5.21289 l -4.61524,5.41797 7.11133,0.31836 c 4.70498,0.21067 8.73359,0.63291 12.05078,1.24219 l 0.0391,0.008 0.0391,0.006 c 3.48536,0.55766 6.47764,1.2158 8.95117,1.95117 2.51128,0.7466 4.59261,1.5475 6.22265,2.36133 1.86521,0.96807 3.51151,1.8945 4.92188,2.76758 l 2.30469,1.42578 1.94726,-1.88281 c 1.7222,-1.66479 4.04085,-3.03771 7.10352,-4.0586 3.09709,-1.03236 6.30959,-1.54882 9.69531,-1.54882 h 4.48047 l -1.10742,-4.3418 c -0.88604,-3.47601 -1.5012,-7.10005 -1.84571,-10.875 -0.0525,-0.7371 -0.1,-1.47255 -0.14257,-2.20703 h 12.12695 c -0.0155,0.53408 -0.0445,1.15245 -0.0879,1.84765 l -0.008,0.10938 v 0.10742 c 0,1.00229 -0.0331,2.08825 -0.10157,3.25195 l -0.006,0.10157 v 0.10156 c 0,1.0791 -0.0341,2.15875 -0.10156,3.23828 -0.0706,1.05812 -0.13934,2.00798 -0.20898,2.84375 l -0.25,2.97852 2.91015,0.69726 c 3.10864,0.74337 6.10735,1.75465 9.00977,3.03711 2.92596,1.29287 5.30943,2.6285 7.13867,3.95313 l 0.91406,0.6621 h 3.39844 l 15.17383,-11.74804 3.66406,-11.18164 h 9.57813 c -0.0192,2.35811 -0.0872,4.71623 -0.20508,7.07422 -0.13117,2.54674 -0.53058,4.54317 -1.06836,5.9414 l -1.78711,4.64453 4.97656,0.0859 c 3.95021,0.0681 7.38274,0.51314 10.28516,1.28711 l 0.008,0.002 0.01,0.002 c 3.01183,0.78569 5.71233,1.91655 8.14453,3.38867 l 2.56445,1.55273 6.21094,-7.46875 c 0.22779,0.33277 0.34979,0.68361 0.59375,1.01368 1.43025,1.93506 3.08773,3.56695 4.9707,4.82226 l 3.28125,2.1875 1.76367,-3.5293 c 0.29346,-0.58691 0.83507,-1.45 1.61524,-2.49023 0.75927,-1.01237 1.62155,-2.00437 2.5918,-2.97461 0.99759,-0.9976 1.98202,-1.88288 2.95117,-2.6582 l 0.0117,-0.008 0.01,-0.008 c 0.93545,-0.76005 1.71165,-1.18747 2.21485,-1.36719 l 2.31054,-0.82421 v -6.41211 l -2.69922,-0.62305 c -0.51955,-0.1199 -0.81136,-0.269 -1.04492,-0.4043 -7e-4,-0.009 -0.12293,-0.16031 -0.29101,-0.67383 -0.17983,-0.61694 -0.36062,-1.48294 -0.52149,-2.56054 h 11.25195 v 16.41797 l 1.92579,0.96093 c 1.09973,0.54987 2.51124,1.291 4.21679,2.21485 1.67679,0.90826 3.31893,1.85123 4.92383,2.82812 l 2.19922,1.33789 1.92383,-1.70898 c 0.42045,-0.37374 1.18387,-0.93963 2.23047,-1.59375 1.05211,-0.65757 2.17949,-1.28897 3.38281,-1.89063 l 0.0703,-0.0332 0.0664,-0.0371 c 1.22861,-0.68256 2.49184,-1.33093 3.79297,-1.94726 1.27504,-0.60397 2.46436,-1.09691 3.55664,-1.48243 l 2.32226,-0.82031 v -7.2793 l -3.29883,-0.17382 c -1.96884,-0.10363 -3.30298,-0.70237 -4.5957,-1.98243 -0.85822,-0.90212 -1.52119,-2.36354 -1.67969,-4.81054 h 15.87696 c -0.18724,1.61173 -0.39694,3.02341 -0.625,4.2207 l -0.0117,0.0664 -0.01,0.0684 c -0.11991,0.79945 -0.44948,1.44094 -0.45117,1.52343 l 0.002,0.002 v 0.002 0.002 h 0.002 l 0.002,0.002 h 0.002 v -0.002 h 0.002 0.002 c 0.0261,-0.0135 0.10249,-0.10763 0.25586,-0.29882 l -2.42188,3.02734 3.60157,2.00195 c 1.24296,0.69053 2.33354,1.3376 3.26367,1.93555 l 0.11914,0.0781 0.125,0.0664 c 0.94501,0.504 1.8577,1.07191 2.74414,1.70508 l 0.0469,0.0312 0.0469,0.0312 c 0.94595,0.63064 1.90917,1.36791 2.88867,2.21679 l 0.0937,0.082 0.0977,0.0723 c 1.04023,0.78018 2.26608,1.79885 3.64843,3.04297 l 1.84571,1.66016 c -1.81318,-0.94844 -3.56752,-1.81785 -5.19531,-2.4961 l -0.0352,-0.0156 -0.0352,-0.0137 c -1.79016,-0.70051 -3.11315,-1.16726 -4.625,-1.30469 l -1.57812,-0.14258 -1.14453,1.09375 c -1.9751,1.88922 -3.66042,4.2188 -5.09766,6.93359 l -0.0273,0.0547 -0.0273,0.0527 c -1.36899,2.8185 -2.35894,5.88981 -2.98632,9.18359 l -0.78711,4.13477 h 4.20703 c 3.47844,0 6.7364,0.60274 9.86132,1.81445 3.14493,1.21945 6.71767,3.25341 10.63868,6.14258 l 2.36132,1.74023 2.11524,-2.03125 c 1.62278,-1.55787 3.49646,-3.03906 5.62695,-4.43945 2.16041,-1.34801 4.34546,-2.52324 6.55664,-3.5293 2.27645,-1.00335 4.49868,-1.79727 6.66993,-2.39258 2.13837,-0.51538 4.05423,-0.75976 5.72656,-0.75976 h 4.4082 l -1.02148,-4.28906 c -0.2587,-1.08655 -0.52065,-3.26993 -0.66016,-6.23243 -0.0704,-2.97566 -0.10742,-6.70965 -0.10742,-11.20703 v -55.29883 l -5.03906,2.51953 c -2.14192,1.07097 -4.8056,2.00258 -7.98243,2.7461 l -0.008,0.002 -0.008,0.002 c -0.794,0.18987 -1.59343,0.36276 -2.39649,0.51758 l -0.12695,-15.37109 c 0.12336,-0.1111 0.24688,-0.222 0.36914,-0.33203 1.38475,-1.24627 2.65023,-2.30502 3.78125,-3.16992 l 0.0508,-0.0391 0.0469,-0.0391 c 1.17929,-0.97118 2.07569,-1.64942 2.52539,-1.94922 l 4.6875,-3.12695 -4.89063,-2.79492 c -0.37773,-0.21585 -1.1016,-0.66159 -2.01953,-1.25 -0.89145,-0.684 -1.83791,-1.39335 -2.84765,-2.13477 l -0.0234,-0.0176 c -0.93997,-0.73897 -1.84157,-1.47721 -2.71289,-2.21289 -0.74705,-0.68776 -1.26886,-1.25431 -1.48828,-1.54687 z m -32.13086,46.70898 0.38281,0.23047 c 0.75768,0.45461 1.25628,0.91396 1.59766,1.36914 l 0.0977,0.13281 0.11133,0.1211 c 0.31704,0.34875 0.68436,0.9437 1,1.89062 l 0.01,0.0273 0.01,0.0293 c 0.29399,0.83298 0.54889,2.06821 0.67578,3.6543 l 0.006,0.0684 0.008,0.0684 c 0.19369,1.61404 0.29882,3.61024 0.29882,5.95508 0,2.08197 -0.0689,4.28012 -0.20898,6.59179 l -0.002,0.0527 -0.002,0.0527 c -0.0278,0.91827 -0.0672,1.81254 -0.11718,2.68164 h -16.29883 v -16.54883 l 9.40429,1.1875 0.75,-2.99804 c 0.26689,-1.06757 0.74631,-2.23655 1.46094,-3.4961 0.24831,-0.39845 0.5533,-0.69822 0.81641,-1.07031 z m -42.39453,0.38477 v 4.66015 h 8.96093 v 17.88086 h -11.59375 c -0.0443,-1.45862 -0.0684,-3.14706 -0.0684,-5.06055 0,-5.16636 0.14887,-9.05862 0.41016,-11.56445 0.31098,-2.32711 0.93492,-3.96663 1.66602,-5.01758 z m -23.59375,24.28125 v 6.33007 c -0.88329,-0.11646 -1.93772,-0.38061 -2.73633,-0.41406 h -0.006 c -0.49763,-0.0217 -0.96676,-0.0693 -1.45703,-0.0976 l 0.0957,-4.78516 c 0.81347,-0.16641 1.50716,-0.23363 2.41406,-0.46875 l 0.0586,-0.0156 0.0566,-0.0156 c 0.50889,-0.15078 1.05754,-0.36881 1.57422,-0.5332 z m 98.58007,14.08984 v 4.20703 l 0.002,0.0469 c 0.0723,2.60193 0.14382,4.77575 0.2168,6.52734 l 0.002,0.0664 0.006,0.0664 c 0.14322,1.79025 0.25004,3.21744 0.32031,4.27149 l 0.008,0.10156 0.0117,0.0996 c 0.0126,0.10046 0.0245,0.17643 0.0371,0.27539 l -3.68945,1.18164 c -1.22457,-0.89361 -2.41934,-1.78571 -3.90625,-2.68945 -1.9869,-1.25032 -4.01375,-2.42574 -6.07422,-3.53125 l 2.16797,-2.16797 c 1.10035,-1.10035 2.15563,-2.08697 3.16406,-2.96094 l 0.008,-0.006 0.006,-0.006 c 1.06662,-0.93329 2.2044,-1.83783 3.41602,-2.71289 1.19636,-0.86404 2.54684,-1.74216 4.05078,-2.63086 0.0716,-0.0423 0.18086,-0.0959 0.2539,-0.13867 z"
       inkscape:label="text"
       transform="scale(0.38458351)" /><g
       inkscape:groupmode="layer"
       id="layer4"
       inkscape:label="Kruh"
       style="display:inline"><path
         id="path2"
         style="fill:none;stroke:#000000;stroke-width:0.189192"
         d="M 219.118,109.6063 A 109.5117,109.5117 0 0 1 109.6063,219.118 109.5117,109.5117 0 0 1 0.09459686,109.6063 109.5117,109.5117 0 0 1 109.6063,0.09459686 109.5117,109.5117 0 0 1 219.118,109.6063 Z"
         inkscape:label="Vnejsi kruh" /><path
         id="circle2"
         style="fill:none;stroke:#000000;stroke-width:0.188976"
         d="M 208.69732,109.6063 A 99.091019,99.091019 0 0 1 109.6063,208.69732 99.091019,99.091019 0 0 1 10.515282,109.6063 99.091019,99.091019 0 0 1 109.6063,10.515282 99.091019,99.091019 0 0 1 208.69732,109.6063 Z"
         inkscape:label="Vnitrni kruh" /></g></g></svg>
