<?xml version="1.0" encoding="UTF-8" standalone="no"?>
<svg
   version="1.2"
   viewBox="0 0 219.2126 219.2126"
   width="58mm"
   height="58mm"
   id="svg1"
   sodipodi:docname="TravicTokenLaser.svg"
   inkscape:version="1.4.2 (2aeb623e1d, 2025-05-12)"
   xml:space="preserve"
   xmlns:inkscape="http://www.inkscape.org/namespaces/inkscape"
   xmlns:sodipodi="http://sodipodi.sourceforge.net/DTD/sodipodi-0.dtd"
   xmlns="http://www.w3.org/2000/svg"
   xmlns:svg="http://www.w3.org/2000/svg"><sodipodi:namedview
     id="namedview1"
     pagecolor="#ffffff"
     bordercolor="#666666"
     borderopacity="1.0"
     inkscape:showpageshadow="2"
     inkscape:pageopacity="0.0"
     inkscape:pagecheckerboard="0"
     inkscape:deskcolor="#d1d1d1"
     inkscape:zoom="2.6941403"
     inkscape:cx="139.19097"
     inkscape:cy="136.03598"
     inkscape:window-width="1920"
     inkscape:window-height="940"
     inkscape:window-x="0"
     inkscape:window-y="0"
     inkscape:window-maximized="1"
     inkscape:current-layer="layer2"
     showgrid="false"
     inkscape:document-units="mm" /><defs
     id="defs1"><clipPath
       clipPathUnits="userSpaceOnUse"
       id="cp1"><path
         d="m 275.5,535.5 c -143.78,0 -260,-116.22 -260,-260 0,-143.78 116.22,-260 260,-260 143.78,0 260,116.22 260,260 0,143.78 -116.22,260 -260,260 z"
         id="path1" /></clipPath></defs><style
     id="style1">
		tspan { white-space:pre } 
		.s0 { fill: none;stroke: #ff0000;stroke-miterlimit:100 } 
	</style><g
     inkscape:groupmode="layer"
     id="layer2"
     inkscape:label="Content"
     style="display:inline"><path
       id="path31-2"
       style="display:inline;opacity:1;fill:none;stroke:#000000;stroke-width:0.18897638;stroke-dasharray:none;stroke-opacity:1"
       inkscape:label="text"
       d="m 70.085087,140.6817 0.173513,2.60044 c 0.02308,0.3462 0.103422,0.67957 0.175016,1.01479 -0.289022,-0.006 -0.638243,-0.004 -0.904371,-0.0128 -0.783812,-0.0528 -1.597483,-0.14446 -2.441956,-0.27642 -0.815309,-0.13167 -1.721088,-0.31774 -2.715371,-0.5596 -0.973042,-0.24338 -2.174431,-0.5712 -3.600213,-0.98248 l -0.710575,-0.20431 -0.546082,0.49875 c -0.923374,0.84423 -1.837329,1.56174 -2.740158,2.15502 l -0.0075,0.005 -0.0075,0.005 c -0.790223,0.53457 -1.887256,1.03129 -3.289239,1.4467 l -1.309238,0.38758 0.842026,2.52534 1.142487,-0.22835 c 0.619033,-0.1238 1.183309,-0.18253 1.692317,-0.18253 1.239678,0 2.642142,0.16594 4.200371,0.50927 l 0.01277,0.003 0.01277,0.002 c 1.351323,0.27026 2.794446,0.53973 4.253702,0.80973 v 0.1382 3.61224 c 0,1.01232 -0.01342,1.94025 -0.04056,2.78146 l -7.69e-4,0.021 v 0.021 c 0,0.84394 -0.01358,1.6306 -0.04056,2.35933 l -7.69e-4,0.0248 v 0.024 c 0,0.73112 -0.01411,1.4918 -0.04131,2.28046 l -7.69e-4,0.0225 v 2.63876 3.15553 c 0,1.11753 -0.12694,2.2841 -0.386087,3.50257 v 7.7e-4 7.7e-4 c -0.250206,1.14782 -0.615076,2.0218 -1.041079,2.6395 l -0.957706,1.38811 1.577397,0.59565 c 1.157308,0.4372 2.182799,0.95863 3.084929,1.55862 0.794176,0.5537 1.347565,1.24021 1.726868,2.15501 l 1.079391,2.60496 1.308484,-2.49829 c 0.54287,-1.03639 1.131941,-1.77863 1.727622,-2.27295 0.709061,-0.53547 1.60476,-1.07096 2.695088,-1.59016 l 2.16704,-1.03207 -2.032585,-1.27694 c -0.690447,-0.43399 -1.261292,-1.13633 -1.709593,-2.26168 -0.184166,-0.50381 -0.329831,-1.01121 -0.437164,-1.52481 h 6.956304 v 3.28398 c 0,0.63742 -0.09301,1.0745 -0.17652,1.27243 -0.04697,0.11134 -0.06498,0.14336 -0.07286,0.15023 h -7.69e-4 l -7.7e-4,7.7e-4 h -7.69e-4 -7.69e-4 -7.69e-4 -7.69e-4 v -7.7e-4 h -7.69e-4 v -7.7e-4 l -7.7e-4,-7.7e-4 h -7.69e-4 l -7.69e-4,-7.7e-4 v -7.7e-4 h -7.69e-4 -7.69e-4 -7.69e-4 -7.7e-4 l -0.861559,0.31923 v 2.8611 h 11.525487 v -3.15479 l -1.116192,-0.17426 c -0.663091,-0.10361 -0.947648,-0.28686 -1.033568,-0.36581 -0.06494,-0.11075 -0.217078,-0.51096 -0.217078,-1.27844 v -2.91067 h 8.800351 c -0.0044,0.98975 -0.03165,1.97948 -0.08112,2.96926 l 7.69e-4,-0.002 c -0.05037,0.9822 -0.204348,1.75161 -0.412373,2.29248 l -0.677529,1.76067 1.886863,0.033 c 1.520432,0.0262 2.84117,0.19684 3.95926,0.495 l 0.004,7.7e-4 0.003,0.002 c 1.15996,0.3026 2.20045,0.73756 3.13751,1.30473 l 0.97198,0.58889 2.39538,-2.88137 c 0.0922,0.13525 0.142,0.27752 0.24111,0.41162 0.54891,0.74265 1.18504,1.36866 1.90715,1.85006 l 1.24389,0.82926 0.66851,-1.33703 c 0.11362,-0.22724 0.32219,-0.56004 0.6227,-0.96071 0.29258,-0.39011 0.62526,-0.77249 0.99901,-1.14624 0.38412,-0.38411 0.76315,-0.72513 1.13648,-1.0238 l 0.004,-0.003 0.004,-0.003 c 0.36096,-0.29328 0.66073,-0.45869 0.85705,-0.52881 l 0.87583,-0.31322 v -2.4367 l -1.02305,-0.23586 c -0.20283,-0.0468 -0.31893,-0.10502 -0.41087,-0.15849 l -7.7e-4,-7.7e-4 c 0.002,-0.002 -0.0473,-0.0614 -0.11493,-0.26515 -0.0832,-0.28468 -0.16729,-0.70738 -0.23736,-1.24163 h 4.19362 c -0.002,0.25385 -0.0151,0.57668 -0.0391,0.95995 l -0.003,0.0406 v 0.0413 c 0,0.38589 -0.0127,0.80353 -0.0391,1.2514 l -0.002,0.0391 v 0.0383 c 0,0.41541 -0.0131,0.83132 -0.0391,1.24689 -0.0272,0.40668 -0.0543,0.77233 -0.0811,1.09366 l -0.0939,1.12972 1.10267,0.26364 c 1.19665,0.28616 2.35147,0.67509 3.46876,1.16878 1.12622,0.49763 2.04424,1.01209 2.74918,1.52256 l 0.34627,0.25088 h 1.29421 l 5.82509,-4.50984 1.48726,-4.53689 h 4.68185 v 3.24267 c 0,1.95751 0.56089,3.76797 1.67054,5.26925 l 0.39509,0.53481 h 1.06737 l 0.18554,-0.0556 c 0.8124,-0.24372 1.59525,-0.45984 2.34881,-0.64823 0.73204,-0.18301 1.5241,-0.34175 2.3751,-0.47472 l 1.1162,-0.17426 v -1.18004 h 2.35632 c 0.74246,0 1.60182,0.075 2.5704,0.2321 0.98806,0.16022 1.96167,0.36084 2.92194,0.60091 l 0.005,7.7e-4 0.004,7.7e-4 c 0.98014,0.23841 1.87204,0.50223 2.67706,0.78719 0.79994,0.31076 1.41605,0.60434 1.80499,0.84203 l 0.94944,0.57988 0.73236,-0.83677 c 0.0666,-0.0761 0.26897,-0.25335 0.57838,-0.45444 0.36903,-0.22048 0.76473,-0.43207 1.19056,-0.63246 l 0.0143,-0.007 0.0143,-0.007 c 0.4458,-0.2229 0.88635,-0.40611 1.32201,-0.55133 l 0.0195,-0.006 0.0195,-0.007 c 0.47057,-0.17337 0.88697,-0.28982 1.24013,-0.35604 l 1.43468,-0.26966 -0.41163,-1.40013 c -0.11697,-0.3977 -0.22973,-0.89822 -0.332,-1.47899 -0.0699,-0.54394 -0.11267,-1.33404 -0.11267,-2.3428 v -1.41139 c 0,-0.35612 0.0149,-0.62221 0.0308,-0.74964 l 0.24788,-1.98151 -1.91991,0.54833 c -1.36349,0.38957 -2.54811,1.09203 -3.44323,2.09043 l -0.002,0.002 -7.7e-4,7.6e-4 c -0.55753,0.62444 -0.93149,1.36339 -1.2176,2.14226 -0.45583,-0.0665 -0.86778,-0.10199 -1.39863,-0.22309 h -7.6e-4 v -7.7e-4 h -7.7e-4 c -0.50784,-0.11954 -0.81839,-0.24185 -1.20708,-0.3643 0.0694,-0.61074 0.15293,-1.19 0.18853,-1.87785 0.0843,-1.12825 0.12769,-2.1666 0.12769,-3.11573 0,-1.08359 -0.0437,-2.15427 -0.12919,-3.21188 -0.005,-0.0929 -0.02,-0.18576 -0.0255,-0.27867 0.14978,0.0843 0.29366,0.19378 0.44542,0.26966 0.99894,0.49947 1.93114,0.80372 2.87387,0.80372 1.25795,0 2.48536,-0.43023 3.57842,-1.19206 l 0.003,-0.002 0.003,-0.002 c 1.11465,-0.78682 2.0029,-1.82825 2.61997,-3.0624 l 0.7902,-1.5804 -1.73964,-0.30946 c -1.16936,-0.2079 -2.32694,-0.51977 -3.47552,-0.93743 -1.1433,-0.41574 -2.12178,-0.88895 -2.93921,-1.40913 l -0.19229,-0.12244 0.027,-1.50378 0.12619,-0.13371 c 1.82335,-1.93385 3.21642,-3.42368 4.19137,-4.48205 l 0.0128,-0.0135 c 0.98759,-1.0425 1.67931,-1.77533 2.07014,-2.19408 l 0.97198,-1.04108 -1.11244,-0.8901 c -0.39288,-0.3143 -0.68266,-0.57 -0.84578,-0.73311 -0.24089,-0.24089 -0.56642,-0.55169 -0.98775,-0.94494 l -0.83001,-0.77442 -0.8901,0.70457 c -0.65211,0.51625 -1.36129,1.06107 -2.12573,1.63448 -0.48096,0.35626 -0.93069,0.68194 -1.3881,1.01479 -0.47278,-0.33106 -0.93926,-0.65524 -1.43543,-1.00953 l -0.008,-0.006 c -0.7577,-0.56846 -1.44614,-1.1078 -2.06188,-1.61645 l -0.86456,-0.71509 -0.84503,0.73912 c -0.45463,0.3978 -0.80027,0.71315 -1.06061,0.97348 -0.14932,0.14932 -0.44087,0.41654 -0.84428,0.76616 l -1.07113,0.92841 1.00202,1.00202 c 0.95553,0.95552 1.95445,1.99613 2.9963,3.12023 l 0.0113,0.012 0.012,0.012 c 1.05646,1.08355 2.10109,2.23685 3.13376,3.45975 l 0.0992,0.11718 -0.0345,1.92066 c -1.01762,0.4457 -6.56721,2.21411 -7.99287,2.45172 l -1.49702,0.25013 0.45519,1.44745 c 0.2699,0.85878 0.47917,1.92545 0.61067,3.18783 l 0.002,0.015 0.002,0.015 c 0.15805,1.23805 0.23886,2.58093 0.23886,4.02686 0,0.43456 -0.006,0.86242 -0.0188,1.28294 h -3.38389 V 156.5736 l -1.43918,-2.39764 -0.94869,0.23661 c -0.18814,0.047 -0.38253,0.0949 -0.58289,0.14347 l 0.0338,-1.85306 0.0571,-0.11492 c 0.41503,-0.83007 0.88398,-1.47547 1.39261,-1.96198 l 7.7e-4,-7.7e-4 c 0.60514,-0.57993 1.35799,-1.19184 2.25642,-1.82603 l 1.69382,-1.19581 -1.80048,-1.02831 c -0.14645,-0.0837 -0.42435,-0.2559 -0.77969,-0.48373 -0.34252,-0.26279 -0.70644,-0.53538 -1.09441,-0.82025 l -0.006,-0.005 c -0.36392,-0.28604 -0.71363,-0.57151 -1.05084,-0.8563 -0.28517,-0.26293 -0.48583,-0.48226 -0.57087,-0.59565 l -0.67903,-0.90512 -0.99827,0.53256 c -0.98827,0.52707 -1.8779,1.26194 -2.66203,2.17154 l -0.002,0.002 -7.7e-4,0.002 c -0.71067,0.82911 -1.32489,1.68097 -1.83879,2.55763 l -0.5581,0.95169 0.83752,0.71809 c 0.22521,0.19304 0.51462,0.42354 0.88485,0.70833 0.35597,0.27382 0.72591,0.56188 1.11018,0.86381 0.36353,0.28563 0.69752,0.56897 1.00277,0.84878 l 0.0421,0.0383 0.0451,0.0346 c 0.31967,0.24591 0.53022,0.44709 0.59189,0.51904 l 0.37031,0.4319 -0.03,1.67505 c -0.20715,0.0465 -0.41909,0.0937 -0.63546,0.14121 -1.11355,0.21717 -2.14279,0.39292 -3.08343,0.5273 l -1.13277,0.16154 v 2.46899 l 1.53608,0.66401 v 8.59604 h -4.11024 l 2.3383,-7.13583 -0.53256,-0.57011 c -0.15065,-0.16141 -0.31986,-0.47734 -0.40486,-1.07037 v -7.7e-4 h -7.7e-4 v -7.7e-4 c -0.10117,-0.73581 -0.15248,-1.51739 -0.15248,-2.34581 v -0.14046 l 1.91691,-2.87537 -3.54238,1.08991 c -1.03198,0.31753 -2.07698,0.58174 -3.13525,0.79395 -1.06155,0.18527 -2.10774,0.31808 -3.13827,0.39736 l -1.14398,0.0879 -0.16901,2.70485 0.81048,0.38158 c 0.15935,0.075 0.25055,0.14829 0.37482,0.45895 l 0.0105,0.0255 0.0113,0.0255 c 0.11401,0.25337 0.25764,0.94168 0.25764,1.94996 0,0.74208 -0.0519,1.64178 -0.15924,2.68833 -0.10619,1.00782 -0.26545,2.04609 -0.47923,3.11498 l -0.003,0.0158 -0.003,0.0158 c -0.18544,1.0597 -0.42356,2.07514 -0.71283,3.04813 l -0.003,0.0113 -0.003,0.012 c -0.12801,0.46083 -0.28855,0.73083 -0.43491,1.09592 l -0.27793,-0.15023 c 0.009,-0.35149 0.024,-0.71387 0.024,-1.04934 v -1.78546 c 0,-3.02697 -0.13991,-5.67676 -0.42514,-7.96209 -0.26146,-2.31815 -0.70678,-4.07492 -1.59167,-5.36539 l -0.80372,-1.17177 -1.10943,0.88709 c -0.12808,0.10247 -0.46499,0.30636 -0.94719,0.52505 -0.51226,0.20406 -1.07945,0.41008 -1.70283,0.61819 -0.59895,0.18198 -1.21122,0.35144 -1.83729,0.50852 -0.62827,0.13042 -1.15844,0.22059 -1.56913,0.26891 l -1.16577,0.13746 v 0.60091 h -1.44219 c -1.25594,0 -2.25281,-0.21021 -3.02934,-0.57312 -0.7943,-0.41215 -1.61019,-1.04858 -2.43369,-1.94695 l -0.72035,-0.7857 -0.92015,0.53857 c -0.63247,0.37076 -1.6517,0.76314 -3.01582,1.10417 -1.30039,0.3251 -2.91469,0.50026 -4.828327,0.50026 h -0.45294 c -0.19893,-0.042 -0.351382,-0.0413 -0.502512,-0.0413 h -1.663024 l 0.100653,0.43266 -1.143232,-0.27192 c -1.120391,-0.26675 -2.137965,-0.55889 -3.055639,-0.87282 -0.908751,-0.33844 -1.588545,-0.66105 -1.984508,-0.91113 l -1.37759,-0.86982 -0.564857,1.52857 c -0.235004,0.63589 -0.509262,1.1994 -0.76466,1.79748 v -0.41839 l -1.438434,-2.39764 -0.948691,0.23661 c -0.862482,0.21562 -1.854631,0.44723 -2.96775,0.6918 -1.114812,0.21747 -2.144115,0.39354 -3.085683,0.52805 l -1.132717,0.1615 v 2.46899 l 1.53608,0.66401 v 8.59604 h -7.172633 c -0.0062,-0.15017 -0.009,-0.30143 -0.009,-0.45293 0,-2.68965 -0.01358,-5.22717 -0.04131,-7.61356 -0.02761,-2.37555 -0.04131,-4.73699 -0.04131,-7.08474 0,-0.39797 0.03909,-0.78101 0.05784,-1.17178 h 0.449182 c 1.020142,0 2.039742,-0.12438 3.051128,-0.36956 l 0.01877,-0.005 0.01804,-0.005 c 0.979877,-0.26725 1.932036,-0.60913 2.853579,-1.02531 0.92455,-0.41754 1.805535,-0.91122 2.641758,-1.47824 0.844596,-0.55414 1.624023,-1.14122 2.334545,-1.76293 l 0.766913,-0.67152 -0.964462,-1.92892 -0.94118,0.13445 c -0.357058,0.051 -0.714017,0.0895 -1.070372,0.11492 h -0.0038 l -0.0038,7.7e-4 c -0.318585,0.0245 -0.687266,0.0375 -1.102674,0.0375 -0.759372,0 -1.489534,-0.0136 -2.191076,-0.0406 -0.644704,-0.0248 -1.290647,-0.1011 -1.938689,-0.22458 -0.636313,-0.14813 -1.323818,-0.35938 -2.057372,-0.63622 -0.686782,-0.2959 -1.462833,-0.71231 -2.321773,-1.25891 z m 26.795406,15.91064 0.27642,1.1853 c 0.208201,0.89229 0.449639,1.6508 0.757148,2.29999 l 0.012,0.0248 0.01277,0.0248 c 0.329262,0.6256 0.712472,1.16682 1.189056,1.60369 l 0.02327,0.021 0.02404,0.0203 c 0.459611,0.38301 0.990503,0.67285 1.561623,0.83602 l 0.0518,0.015 0.0518,0.0105 c 0.50925,0.10185 1.03969,0.15023 1.58792,0.15023 0.84766,0 1.78326,-0.16564 2.87686,-0.4612 0.44486,-0.12024 0.8532,-0.30695 1.28445,-0.45219 v 1.35956 c -0.21296,0.0832 -0.35831,0.16365 -0.62871,0.24638 -0.56154,0.15241 -1.19524,0.29536 -1.90414,0.42664 -0.70098,0.12981 -1.44746,0.23453 -2.23614,0.31398 -0.76705,0.0525 -1.51965,0.0796 -2.257173,0.0796 -0.66896,0 -1.274729,-0.039 -1.814753,-0.11267 l -2.272196,-0.31022 0.873573,2.12047 c 0.142727,0.34662 0.256871,0.77704 0.327496,1.29496 l 7.7e-4,0.005 7.69e-4,0.004 c 0.01054,0.0737 0.02023,0.14881 0.02931,0.22459 H 87.989265 V 166.868 l 2.587674,-3.64152 3.048878,1.59241 0.683535,-0.78644 c 0.672025,-0.77283 1.201651,-1.70185 1.606686,-2.76119 l 0.0023,-0.006 0.0023,-0.006 c 0.400629,-1.07861 0.671806,-2.24709 0.820998,-3.50031 z m 18.906937,2.32778 v 0.79546 l 1.60819,0.33275 c 0.35719,0.72403 0.70998,1.70015 0.99451,3.05714 l 0.002,0.01 0.002,0.01 c 0.2727,1.20767 0.4494,2.67771 0.51754,4.39717 h -4.26572 c -0.0128,-0.50199 -0.0195,-1.06852 -0.0195,-1.69833 0,-1.98926 0.0577,-3.48941 0.15849,-4.45426 0.12008,-0.89481 0.35997,-1.52661 0.64297,-1.93343 z m -9.1564,9.4914 v 2.48402 c -0.34692,-0.0463 -0.75987,-0.14839 -1.07262,-0.1615 -0.1985,-0.009 -0.38592,-0.0276 -0.58138,-0.0391 l 0.0368,-1.8741 c 0.31726,-0.0645 0.58817,-0.0914 0.94268,-0.18328 l 0.0225,-0.005 0.0218,-0.007 c 0.20384,-0.0604 0.4231,-0.14799 0.6302,-0.21408 z m 41.00848,0.8548 h 3.28999 c -0.0511,0.65246 -0.11947,1.26511 -0.20431,1.83879 -0.10336,0.67161 -0.23083,1.25064 -0.37482,1.73063 l -0.009,0.0293 -0.008,0.03 c -0.11581,0.46325 -0.25757,0.74986 -0.29895,0.80898 l -1.27469,1.82076 v -1.23563 l -0.84052,-0.31172 c -0.0123,-0.0224 -0.0387,-0.0764 -0.0819,-0.19304 -0.10114,-0.27347 -0.1983,-0.82975 -0.1983,-1.60744 z"
       sodipodi:nodetypes="ccccccccccccccccscccccsccsccssccscccccccccccccccccssccccccccccccccccccccccccscccccccccccccsscsssscccccccccccccsccscccssccccccsccccscccssccccccccscccccccccsscccccccccccccsccsscccsccscccccscccsccccccccccsccsccccccccccccsccccccccssccccccccccccccccsscccccccccccccccccccscccccccccccscccccccccssccccccccccsccccsscsccccccccccccccccccssscscccsccccscccsscccccccccccccccsscccscsccccccccccccccsccccccccccscccccccccccccccccsccccssc" /><g
       inkscape:groupmode="layer"
       id="layer4"
       inkscape:label="Kruh"
       style="display:inline"><path
         id="path2-7"
         style="fill:none;stroke:#000000;stroke-width:0.189192"
         d="M 219.118,109.6063 A 109.5117,109.5117 0 0 1 109.6063,219.118 109.5117,109.5117 0 0 1 0.09459686,109.6063 109.5117,109.5117 0 0 1 109.6063,0.09459686 109.5117,109.5117 0 0 1 219.118,109.6063 Z"
         inkscape:label="Vnejsi kruh" /><path
         id="circle2"
         style="fill:none;stroke:#000000;stroke-width:0.188976"
         d="M 208.69732,109.6063 A 99.091019,99.091019 0 0 1 109.6063,208.69732 99.091019,99.091019 0 0 1 10.515282,109.6063 99.091019,99.091019 0 0 1 109.6063,10.515282 99.091019,99.091019 0 0 1 208.69732,109.6063 Z"
         inkscape:label="Vnitrni kruh" /></g><path
       id="path41"
       style="display:inline;opacity:1;fill:none;stroke:#000000;stroke-opacity:1;baseline-shift:baseline;overflow:visible;enable-background:accumulate;stop-color:#000000;stop-opacity:1;stroke-width:0.49137931;stroke-dasharray:none"
       inkscape:label="znak"
       transform="scale(0.38458351)"
       d="m 238.05273,76.373047 c -1.56172,0 -1.866,0.629148 -2.19336,0.943359 -0.32735,0.314212 -0.54677,0.602671 -0.76757,0.916016 -0.44161,0.62669 -0.84315,1.347091 -1.21094,2.154297 -0.0238,0.0523 -0.0224,0.03807 -0.0449,0.08594 -0.19485,-0.04929 -0.26942,-0.04754 -0.57813,-0.164062 -1.5099,-0.569925 -3.39156,-0.859477 -5.29492,-0.378907 -1.90336,0.480571 -3.89483,1.447789 -7.17187,3.09375 -5.8006,2.913468 -9.01184,4.553201 -11.02735,5.845704 -1.00775,0.646251 -1.76471,1.203179 -2.39844,2.03125 -0.63372,0.82807 -0.93945,2.028308 -0.93945,2.792968 0,-0.125207 -0.25452,0.679951 -0.42969,1.277344 -0.27563,-0.187338 -0.44074,-0.3975 -0.82031,-0.548828 -0.87017,-0.346925 -2.00075,-0.366217 -2.86719,-0.130859 -1.73287,0.470715 -2.96417,1.411727 -5.2539,2.970703 -3.47573,2.366458 -5.74246,4.053748 -7.04297,6.460938 -1.30051,2.40719 -0.79541,5.26121 0.38867,7.63476 0.70822,1.41966 1.88515,2.94215 3.46875,4.89649 1.58361,1.95433 3.51187,4.16164 5.44922,6.20117 1.84793,1.94539 3.53221,3.83113 4.7207,5.25781 0.59425,0.71334 1.06864,1.31749 1.34961,1.71094 0.1169,0.1637 0.17235,0.2554 0.20508,0.30859 0.16203,0.6866 0.42216,1.20326 0.72461,1.6582 0.42811,0.64396 0.94329,1.22967 1.58203,1.75977 0.1254,0.10407 0.33514,0.13512 0.46094,0.23242 -2.29697,2.18935 -4.6786,4.61373 -6.45117,6.86719 -1.55794,1.9806 -2.26166,4.41909 -2.38086,6.83008 -0.11921,2.41098 0.31618,4.8704 1.83789,6.875 1.67991,2.21301 4.31756,2.81836 7.11914,2.81836 0.70704,0 0.81317,0.049 1.09765,0.0937 0.13286,0.50779 0.36892,1.03687 0.81641,1.53711 0.86019,0.96157 2.12776,1.24432 3.03906,1.24218 1.82261,-0.004 3.43669,-0.59868 6.09375,-1.54687 0.74734,-0.26669 1.26971,-0.36297 1.75977,-0.45899 0.10544,0.16454 0.16085,0.33439 0.28906,0.54493 0.52702,0.8654 1.18838,1.89362 1.88086,2.91406 0.64751,0.95416 1.23861,1.86809 1.64844,2.53516 0.20491,0.33353 0.36676,0.61061 0.45117,0.76562 0.0119,0.0219 0.005,0.0109 0.0137,0.0273 8.9e-4,0.002 0.003,0.0152 0.004,0.0176 0.0428,0.12465 0.0719,0.19214 0.0996,0.25586 0.0553,0.12745 0.1017,0.22118 0.15429,0.32617 0.10519,0.21 0.23242,0.44935 0.39258,0.74414 0.32033,0.5896 0.76555,1.38563 1.31446,2.34961 1.09781,1.92796 2.60373,4.51919 4.25976,7.32422 1.64475,2.78593 3.14032,5.35701 4.21875,7.24219 0.64504,1.10424 1.28568,2.2094 1.82045,3.36912 0.10145,0.19855 0.22548,0.42652 0.38086,0.70898 0.31078,0.56493 0.74373,1.33202 1.27735,2.26172 1.06723,1.85941 2.53018,4.36406 4.14062,7.08008 3.20172,5.39974 6.97811,11.8797 8.32617,14.28516 1.4137,2.52256 5.15902,9.0297 8.36719,14.53906 3.19407,5.48515 6.81492,11.82729 7.95703,13.92969 1.25556,2.31123 4.61048,8.11727 7.55664,13.08789 2.91533,4.9186 7.85041,13.47371 10.92969,18.94726 3.10795,5.52452 11.69732,20.59016 19.10938,33.51954 7.39552,12.90052 15.03076,26.72552 16.6914,30.14648 4.68935,9.66014 11.96594,15.15362 22.57422,17.04883 4.98847,0.8912 10.65827,0.01 15.87305,-1.89063 5.21477,-1.90052 9.9877,-4.80072 12.94336,-8.67578 4.03903,-5.29545 6.85937,-13.36422 6.85937,-19.8418 0,-3.00917 -0.62234,-5.98306 -2.36328,-9.82617 -1.74094,-3.8431 -4.57104,-8.7037 -9.19531,-16.21875 -4.86162,-7.90077 -16.37779,-27.33617 -26.62696,-44.94336 -1.94562,-3.34241 -4.29887,-7.19887 -5.4375,-8.87109 -1.80262,-2.64744 -0.79905,-1.511 -2.6056,-4.76581 -0.6314,-1.13752 -1.58264,-2.79324 -2.92774,-5.09179 -2.69019,-4.59711 -6.94654,-11.75749 -13.24805,-22.29883 -2.62637,-4.39348 -5.62124,-9.44448 -6.61328,-11.1543 -6.14721,-10.59504 -13.50516,-23.12391 -18.70312,-31.84375 -7.57148,-12.70151 -13.2057,-22.3788 -17.07031,-29.33593 -3.86462,-6.95714 -6.00227,-11.47912 -6.35547,-12.69727 -0.23554,-0.81236 -0.17928,-0.96232 -0.16602,-1.00586 0.0133,-0.0435 0.14363,-0.34368 0.86719,-1.02344 2.31278,-2.17274 3.1347,-5.28005 3.36523,-8.35547 0.23054,-3.07541 -0.063,-6.24078 -2.2207,-8.625 -1.44871,-1.60081 -3.64063,-2.68257 -5.92969,-2.64843 -2.28906,0.0341 -4.57961,0.83834 -7.48437,2.15625 -0.86,0.39019 -1.54708,0.66265 -2.21875,0.93164 -0.0961,-0.18173 -0.17254,-0.3196 -0.27149,-0.50977 -0.54847,-1.05419 -1.30455,-1.87572 -2.1875,-2.52148 -0.786,-0.57486 -1.71308,-1.00529 -2.88086,-1.10547 0.49326,-1.05505 0.7109,-2.255589 0.5293,-3.337889 -0.236,-1.406495 -0.77774,-2.835533 -1.60351,-4.728516 -1.34764,-3.089281 -3.39519,-6.970306 -5.25391,-10.166015 -0.92936,-1.597855 -1.80421,-3.010948 -2.55078,-4.09375 -0.37329,-0.541401 -0.70458,-0.994716 -1.06446,-1.40625 -0.17993,-0.205767 -0.35808,-0.400684 -0.64453,-0.632813 -0.28644,-0.232128 -0.5971,-0.710937 -1.91211,-0.710937 z M 363.13581,333.82278 c 4.77997,-3.25322 7.14076,-6.90939 7.70738,-11.93651 0.4416,-3.9178 -0.1878,-5.76059 -5.58915,-16.36423 -1.79376,-2.57418 4.72082,8.68636 0.0229,18.94775 -1.8592,5.45647 -5.06096,5.67652 -11.6118,8.09661 -4.11022,1.51844 -4.62443,1.96396 -3,2.59918 3.84308,1.50281 9.12526,0.93404 12.47064,-1.3428 z M 264.8457,142.28906 c 0.45835,0.798 0.70206,1.11761 1.21289,2.03516 1.14681,2.05984 3.88795,6.50456 6.24805,10.1543 2.29491,3.54889 6.33767,10.11012 8.91016,14.46679 2.61305,4.4254 7.75594,12.97012 11.45507,19.03321 11.93283,19.55855 17.79436,29.15304 20.42188,33.94921 1.28692,2.3491 1.70923,3.53229 1.75977,3.75586 -0.95339,1.26943 -2.19945,1.83205 -3.74224,2.12112 -0.94356,0.10441 -2.21788,0.2044 -3.69727,0.28711 -2.95878,0.1654 -6.74835,0.2669 -10.59961,0.26172 -6.50251,-0.009 -10.10729,-0.079 -12.5,-0.38868 -2.39271,-0.30962 -3.63827,-0.78913 -6.11914,-1.92187 -3.87882,-1.77103 -5.05535,-2.78951 -6.23633,-5.01367 -1.21246,-2.28349 -3.21525,-5.26 -4.83984,-7.17578 -1.12491,-1.32656 -2.18242,-2.99933 -3.31055,-4.7754 0.36243,-0.12722 0.73443,-0.27152 1.01563,-0.55273 0.67783,-0.67783 0.86883,-1.50236 0.89648,-2.07031 0.0277,-0.56796 -0.0673,-0.98844 -0.18554,-1.36719 -0.23647,-0.7575 -0.6016,-1.36608 -1.08789,-1.95703 0.14558,0.17691 -0.20813,-0.30743 -0.55469,-0.88281 -0.34656,-0.57539 -0.80017,-1.35674 -1.31836,-2.27344 -1.03638,-1.83341 -2.33523,-4.21025 -3.63281,-6.66406 -2.65572,-5.02214 -5.61654,-10.20864 -7.20118,-12.34571 -2.1402,-2.8863 -7.39887,-13.02401 -10.05078,-19.75195 l -1.25781,-3.19141 1.89258,-1.83593 c 1.30479,-1.26466 4.6906,-3.35724 6.45703,-3.98047 2.89129,-1.02011 6.80055,-3.28227 9.63086,-5.44336 1.22399,-0.93459 2.43674,-1.7892 3.35156,-2.37891 0.45741,-0.29485 0.8468,-0.52437 1.07617,-0.64648 0.11469,-0.0611 0.19336,-0.0946 0.17188,-0.0859 -0.0215,0.009 -0.0393,0.12305 -0.74219,0.12305 1.06819,0 1.9512,-0.7189 2.57617,-1.48438 z m 54.43946,87.05469 c 0.005,0.009 0.009,0.008 0.0137,0.0176 0.27616,0.51203 0.39068,1.3492 0.21875,1.96679 -0.17194,0.6176 -0.48405,0.97031 -0.69922,1.17774 -0.0179,0.0172 10e-4,-0.006 -0.0156,0.01 -0.33815,-0.29718 -0.96021,-0.99011 -0.85546,-2.15039 0.007,-0.0724 0.0515,-0.0943 0.0625,-0.16211 z m -91.65952,-84.0863 c 3.3,-2.08798 6.80149,-4.09995 7.78109,-4.47105 1.68935,-0.63996 15.05572,-9.36622 26.46891,-17.28027 2.8875,-2.00223 5.25,-4.04383 5.25,-4.53689 0,-1.51002 -4.34793,-0.98664 -7.13444,0.8588 -15.43131,10.21985 -19.9479,13.10003 -23.90616,15.24474 -4.80178,2.60175 -12.4316,7.89942 -16.87707,11.7184 l -2.58233,2.2184 2.5,0.0221 c 1.375,0.0121 5.2,-1.68625 8.5,-3.77423 z m 21.98764,-28.5094 c -3.19886,2.4202 -5.68366,4.36323 -9.42187,7.07812 -8.44392,6.13241 -12.71717,9.20298 -14.7793,10.33594 -1.03107,0.56648 -1.34656,0.55899 -1.28125,0.56055 0.0653,0.002 -0.0136,0.007 -0.73828,-0.35743 -0.55638,-0.27966 -0.68036,-0.40684 -0.875,-0.55468 0.11351,-0.0987 0.76038,-1.31916 2.95898,-3.42578 2.85366,-2.73429 8.62469,-6.2711 19.1836,-11.42188 2.51902,-1.22881 3.01695,-1.31068 4.95312,-2.21484 z m -1.86433,-4.19467 c 2.83829,-1.66334 4.1099,-3.01228 3.7424,-3.96997 -0.4259,-1.10986 -1.59119,-0.5858 -4.96118,2.23116 -2.42249,2.02495 -4.40453,3.81144 -4.40453,3.96997 0,0.74705 1.67632,0.0819 5.62331,-2.23116 z m -11.9736,-3.12029 c 2.21188,-1.44927 2.37217,-2.02899 1.83508,-0.62936 -0.43321,1.12891 -0.037,1.52786 1.40923,1.41892 1.62899,-0.12271 1.41016,-0.58952 1.10307,-3.01607 -0.20861,-1.64829 0.20268,-3.07128 0.86002,-3.86333 0.99878,-1.20346 0.82673,-1.32316 -1.04698,-0.72847 -2.76628,0.87798 -2.86778,-0.0891 -0.28629,-3.370906 2.41935,-3.0757 2.1262,-6.223384 -0.0603,-9.345034 -1.37211,-1.95896 -1.15781,-2.916411 -4.23507,-2.354571 -1.99704,0.36462 -4.62765,1.30465 -5.8458,2.08897 -1.21815,0.78431 -2.90565,1.42602 -3.75,1.42602 -0.84435,0 -1.53518,0.44343 -1.53518,0.98541 0,0.54197 2.26666,0.092 5.03702,-1 5.6827,-2.23991 6.96298,-2.4211 6.96298,-0.98541 0,0.55 -0.51173,1 -1.13717,1 -0.62545,0 -4.22545,2.03456 -8,4.52125 -6.66521,4.39106 -8.68587,6.223771 -5.11283,4.637261 5.25987,-2.335491 10.98469,-5.338821 12.69113,-6.657951 1.06762,-0.82531 2.41137,-1.50056 2.98612,-1.50056 0.57474,0 -2.00686,2.7544 -5.7369,6.1209 -3.73004,3.366491 -6.55584,6.346951 -6.27956,6.623221 0.27628,0.27628 2.61023,-1.35312 5.18656,-3.62089 4.7154,-4.150671 5.91441,-4.751971 6.72622,-3.373231 0.78575,1.33449 -1.21627,5.250001 -2.68436,5.250001 -0.78388,0 -1.69838,0.7118 -2.03222,1.58179 -0.94143,2.45332 -0.73443,2.76887 0.91718,1.39815 2.43363,-2.01973 2.69623,-0.52984 0.41725,2.3674 -2.3955,3.04539 -1.92653,3.34424 1.61079,1.02649 z" /></g></svg>
