<?xml version="1.0" encoding="UTF-8" standalone="no"?>
<svg
   version="1.2"
   viewBox="0 0 274.27219 297.31973"
   width="274.27219"
   height="297.31973"
   id="svg1"
   xml:space="preserve"
   xmlns="http://www.w3.org/2000/svg"
   xmlns:svg="http://www.w3.org/2000/svg"><defs
     id="defs1" /><style
     id="style1">
		tspan { white-space:pre } 
		.s0 { fill: none;stroke: #ff0000;stroke-miterlimit:100 } 
	</style><g
     id="layer1"
     transform="translate(-147.88654,-64.332223)"><path
       id="Path 0 copy"
       class="s0"
       d="m 253.96776,1.9812412 c -4.83809,0.7256238 -12.51049,1.8658898 -17.06826,2.5396834 -4.54737,0.6737937 -14.55576,2.8299332 -22.23856,4.8098491 -7.68279,1.9695513 -20.01678,5.7427953 -27.40888,8.3757733 -7.40247,2.632979 -20.89926,8.551995 -30.00441,13.164891 -9.10514,4.602528 -22.37354,12.263042 -29.48531,17.021062 -7.11177,4.747653 -17.57697,12.48073 -23.26639,17.176553 -5.689435,4.695823 -15.573238,13.828318 -21.968643,20.296736 -6.385022,6.468418 -15.147556,16.191781 -19.456148,21.592491 -4.318975,5.41108 -11.576098,15.42469 -16.133862,22.24555 -4.547382,6.83124 -12.178261,20.3382 -16.95405,30.00974 -5.533687,11.2368 -10.714379,23.75899 -14.316985,34.66408 -3.114645,9.39165 -6.8418376,22.43215 -8.2953386,28.97313 -1.453501,6.54097 -3.5922235,19.22903 -4.7446423,28.19566 -1.3912082,10.80144 -2.09719388,22.31812 -2.10757603,34.1458 0,12.12828 0.67483933,22.9919 2.10757603,33.88662 1.162801,8.82153 3.3222877,21.39554 4.7861709,27.93654 1.4638831,6.55133 4.44356,17.48752 6.623812,24.31875 2.180251,6.83123 6.104705,17.53937 8.721006,23.80046 2.616301,6.2611 7.57897,16.73082 11.015462,23.28217 3.446873,6.54098 9.676163,17.02106 13.86017,23.28215 4.173624,6.2611 11.119282,15.79787 15.427874,21.20896 4.308592,5.40071 13.071127,15.12406 19.466531,21.60285 6.385023,6.47879 16.279208,15.58018 21.968643,20.23455 5.68942,4.64399 13.36182,10.563 17.06825,13.15452 3.69605,2.59151 11.60724,7.66051 17.57698,11.25753 5.98013,3.6074 16.92291,9.43312 24.315,12.96793 7.39209,3.52447 18.80207,8.31359 25.34283,10.63558 6.54075,2.322 18.17914,5.82573 25.86193,7.7849 7.6828,1.94883 22.34238,4.7684 32.58957,6.24037 14.74265,2.1354 22.60194,2.69517 37.7495,2.69517 15.15794,0 23.01723,-0.55977 37.75988,-2.69517 10.24718,-1.47197 24.90677,-4.29154 32.58957,-6.24037 7.68278,-1.95917 19.31079,-5.4629 25.86193,-7.7849 6.54076,-2.32199 17.94035,-7.11111 25.34283,-10.63558 7.39208,-3.53481 18.33487,-9.36053 24.30461,-12.96793 5.98012,-3.59702 13.89132,-8.66602 17.58736,-11.25753 3.69605,-2.59152 11.37883,-8.51053 17.06826,-13.1649 5.68942,-4.65435 15.57322,-13.76612 21.95824,-20.23454 6.39541,-6.46842 15.14756,-16.19177 19.46654,-21.59248 4.30859,-5.41109 11.42035,-15.18628 15.79125,-21.72725 4.37088,-6.55136 11.24387,-18.42049 15.27214,-26.39199 4.02828,-7.96113 9.22972,-19.37415 11.5657,-25.345 2.336,-5.98121 5.92822,-16.45093 7.99426,-23.28216 2.06605,-6.83123 4.88999,-18.23389 6.27083,-25.35538 1.39121,-7.1111 3.22885,-18.75218 4.08018,-25.86329 0.86172,-7.11113 1.5677,-20.84614 1.5677,-30.52804 0,-9.81665 -0.70598,-23.07484 -1.59885,-30.00973 -0.8721,-6.82087 -2.30483,-16.368 -3.16655,-21.20894 -0.86172,-4.83059 -2.907,-13.91125 -4.54739,-20.17235 -1.64037,-6.2611 -4.91075,-16.96923 -7.27788,-23.80045 -2.35675,-6.83125 -8.17076,-20.33822 -12.9154,-30.00974 -4.74463,-9.67154 -12.35476,-23.1785 -16.90213,-30.00974 -4.55776,-6.82086 -11.81489,-16.83447 -16.13386,-22.24555 C 502.62025,101.55757 493.85772,91.844574 487.47269,85.386521 481.08767,78.918102 471.20387,69.816706 465.51445,65.151982 459.82502,60.487257 452.14224,54.557873 448.44619,51.96636 444.75015,49.374846 436.83895,44.31621 430.85883,40.708823 424.88909,37.101437 413.9463,31.275712 406.55422,27.751254 399.15174,24.226796 387.75215,19.448044 381.21139,17.136415 374.66025,14.814417 363.95626,11.528378 357.4155,9.8179792 350.87475,8.1075792 341.33354,5.9929045 336.20478,5.1325219 331.08637,4.2617733 321.77358,2.8416237 315.52353,1.970875 308.01724,0.92390344 297.0952,0.4366989 283.45307,0.52999334 272.07423,0.60255536 258.80584,1.2556173 253.96776,1.9812412 Z"
       style="stroke:#000000;stroke-width:1.03741;stroke-opacity:1" /><path
       id="Path 0"
       class="s0"
       d="m 265.85013,27.483209 c -2.18288,0.208543 -7.78893,0.873904 -12.44244,1.459816 -4.66343,0.595844 -10.93427,1.539263 -13.95061,2.105316 -3.00642,0.556121 -11.52961,2.512475 -18.92164,4.359591 -7.39203,1.837184 -19.05063,5.451972 -25.89695,8.02403 -6.84631,2.57206 -17.3837,7.150127 -23.40647,10.159138 -6.0327,3.018944 -15.43895,8.192855 -20.916,11.499788 -5.47708,3.306933 -13.55374,8.70925 -17.92944,12.016186 -4.3856,3.306932 -11.77765,9.245508 -16.44107,13.188011 -4.65352,3.942499 -11.62883,10.476915 -15.49848,14.508775 -3.869674,4.04181 -10.37864,11.38062 -14.466589,16.3162 -4.087947,4.93557 -11.023564,14.35985 -15.419103,20.93398 -4.395538,6.58408 -10.735823,17.34899 -14.089528,23.93306 -3.353706,6.57416 -8.11636,16.89217 -10.596914,22.93007 -2.480545,6.02794 -6.121992,16.57439 -8.096512,23.42659 -1.974519,6.8522 -4.663441,18.29241 -5.983092,25.42266 -1.309727,7.12034 -2.847671,18.34207 -3.423155,24.91621 -0.575495,6.58408 -1.051758,16.67371 -1.051758,22.43353 0,5.75981 0.476263,15.84945 1.051758,22.43353 0.575484,6.57413 2.113428,17.78593 3.423155,24.9162 1.319651,7.13027 3.939113,18.34205 5.824335,24.92612 1.895135,6.57415 5.308376,16.67372 7.590486,22.43353 2.2821,5.7499 7.163825,16.29634 10.84497,23.42659 3.67121,7.12033 10.239712,18.34207 14.575715,24.91621 4.336003,6.58408 12.214231,17.12058 17.512683,23.4266 5.288538,6.30602 13.375129,15.05499 17.969109,19.44437 4.58407,4.38938 12.15471,11.04297 16.8082,14.78686 4.65353,3.73396 13.39498,10.09956 19.42768,14.14137 6.02278,4.03186 17.00667,10.48684 24.3987,14.33997 7.39205,3.84318 19.49714,9.28524 26.88918,12.0857 7.40195,2.80046 19.50706,6.62379 26.89909,8.49077 7.39203,1.86697 19.49713,4.38939 26.88918,5.60094 11.27161,1.83718 17.40353,2.19469 37.85319,2.19469 20.44967,0 26.58159,-0.35751 37.85321,-2.19469 7.39205,-1.21155 19.49713,-3.73397 26.88916,-5.60094 7.39204,-1.86698 19.49714,-5.69031 26.8991,-8.49077 7.39204,-2.80046 19.26892,-8.12334 26.39306,-11.81756 7.12415,-3.70418 18.09812,-10.15915 24.3987,-14.33999 6.3006,-4.18084 15.27028,-10.63581 19.92379,-14.33997 4.65352,-3.70417 13.6331,-11.92681 19.95354,-18.27255 6.32045,-6.34574 14.53603,-15.35292 18.26677,-20.01042 3.73076,-4.66745 10.34887,-13.86331 14.71463,-20.43745 4.36577,-6.58407 11.47009,-19.14645 15.78624,-27.91529 4.30622,-8.76883 9.48563,-20.43745 11.4899,-25.91921 2.01421,-5.48175 5.14963,-15.79979 6.96539,-22.93006 1.81576,-7.13026 4.33601,-19.46424 5.5862,-27.40881 1.90506,-12.0559 2.28212,-18.352 2.28212,-37.88574 0,-19.30534 -0.38698,-25.88942 -2.20273,-37.3892 -1.21051,-7.67646 -3.72083,-20.01044 -5.58621,-27.40883 -1.85545,-7.40833 -5.01072,-17.94482 -7.015,-23.42659 -2.00427,-5.48177 -7.29282,-17.37878 -11.74788,-26.42567 -4.45507,-9.04691 -11.57922,-21.59935 -15.816,-27.90537 -4.23677,-6.306 -10.76558,-15.26354 -14.50626,-19.90119 -3.74068,-4.63763 -10.37863,-12.21479 -14.76424,-16.8425 -4.38562,-4.62771 -11.77765,-11.628879 -16.43117,-15.551517 -4.66342,-3.932571 -12.05548,-9.851287 -16.44108,-13.158219 -4.37569,-3.306936 -12.45237,-8.709253 -17.92943,-12.016186 -5.47706,-3.306933 -14.88331,-8.480844 -20.916,-11.499788 -6.02278,-3.009011 -16.56016,-7.587078 -23.40649,-10.159138 -6.8463,-2.572058 -18.50491,-6.196777 -25.89695,-8.043892 -7.39203,-1.847117 -16.13349,-3.8134 -19.41774,-4.379453 -3.29417,-0.566051 -8.89029,-1.519402 -12.45236,-2.105315 -3.56207,-0.595842 -15.88545,-1.241341 -27.39521,-1.439955 -11.49984,-0.198616 -22.71193,-0.188684 -24.90474,0.01985 z"
       style="stroke:#000000;stroke-width:0.992647;stroke-opacity:1" /><g
       id="layer3"
       style="display:none"><rect
         style="display:inline;fill:#ff2121;fill-opacity:0.107692;stroke:#000000;stroke-width:1.05245;stroke-opacity:1"
         id="rect1"
         width="300"
         height="300"
         x="135"
         y="80.172386" /></g></g><g
     id="layer2"
     style="display:inline"
     transform="translate(-147.88654,-64.332223)"><g
       id="path3"
       style="opacity:1"><path
         style="baseline-shift:baseline;display:inline;overflow:visible;vector-effect:none;fill:none;stroke:#000000;stroke-opacity:1;enable-background:accumulate;stop-color:#000000;stop-opacity:1"
         d="m 281.95703,64.841797 c -2.20458,0.03155 -2.18444,0.74889 -2.51953,1.044922 -0.33509,0.296031 -0.57666,0.562153 -0.83984,0.865234 -0.52638,0.606162 -1.09337,1.343855 -1.74024,2.236328 -1.29374,1.784946 -2.87333,4.159441 -4.49219,6.777344 -4.52788,7.322211 -6.25781,11.021563 -6.25781,15.041016 0,1.454426 -0.16633,1.980675 -0.17969,2.007812 -0.0134,0.02714 -0.002,0.119535 -0.9082,0.658203 -5.75014,3.41759 -9.44693,8.595834 -15.44336,20.769534 -1.63168,3.31257 -3.07887,6.36081 -4.11133,8.63867 -0.51622,1.13893 -0.92807,2.07839 -1.22265,2.80859 -0.14729,0.3651 -0.26253,0.66533 -0.36914,0.99805 -0.0533,0.16636 -0.10644,0.32455 -0.16407,0.63672 -0.0288,0.15608 -0.0692,0.34113 -0.0644,0.72265 0.005,0.38153 -0.15041,1.12295 0.88477,2.26954 0.86938,0.96299 1.84726,1.10196 2.36132,1.13476 0.51407,0.0328 0.79128,-0.0288 1.01563,-0.0762 0.44869,-0.0947 0.676,-0.19501 0.91211,-0.29297 0.47222,-0.19593 0.88864,-0.41326 1.37305,-0.68164 0.96881,-0.53677 2.14024,-1.26421 3.39648,-2.11133 2.03773,-1.37409 5.41322,-3.16774 8.42969,-4.5332 1.50823,-0.68273 2.94054,-1.26834 4.05469,-1.6582 0.89195,-0.31212 1.29337,-0.36207 1.35742,-0.4043 0.0467,0.0205 0.0641,0.008 0.10937,0.0371 0.40022,0.26191 0.9477,0.71218 1.35938,1.15039 l 1.23437,1.3125 -1.47656,31.45117 c -1.10629,23.5801 -1.63223,40.48623 -1.5625,52.50586 0.0697,12.01964 0.60516,19.01908 2.17773,23.58984 0.22737,0.66086 0.15288,0.46742 0.3125,0.99219 -0.78822,0.39368 -1.52692,0.94481 -2.10351,1.85352 -0.50194,0.79105 -0.46007,1.02098 -0.52344,1.29297 -0.0634,0.27198 -0.0994,0.50172 -0.13476,0.75 -0.0706,0.49655 -0.12539,1.05374 -0.17774,1.72265 -0.10469,1.33783 -0.1952,3.09872 -0.27148,5.20899 -0.15256,4.22052 -0.24793,9.81428 -0.25196,15.8125 -0.004,5.92257 -0.1136,11.59467 -0.28711,15.91992 -0.0867,2.16262 -0.19025,3.99289 -0.29882,5.3164 -0.0543,0.66176 -0.11138,1.19949 -0.16016,1.55469 -0.0488,0.35521 -0.17201,0.64844 -0.002,0.20117 -0.0704,0.18507 -1.60481,2.16555 -2.28516,2.61133 -0.95291,0.62438 -1.10156,0.64688 -1.36523,0.66992 -0.26368,0.0231 -1.0729,-0.056 -2.76954,-0.50976 -8.05046,-2.15318 -14.54512,-5.03012 -21.11523,-9.33594 -6.07325,-3.98021 -6.56817,-4.56733 -11.50195,-12.86133 -1.54636,-2.5995 -3.06217,-5.10611 -4.26953,-7.06445 -1.20737,-1.95834 -1.81725,-3.01794 -2.55469,-3.9707 0.42628,0.55075 -0.024,-0.0718 -0.31836,-0.69727 -0.29435,-0.62547 -0.68499,-1.50762 -1.12891,-2.55078 -0.88784,-2.08633 -1.995,-4.8286 -3.08593,-7.67969 -3.94018,-10.2974 -7.22577,-25.52032 -7.64258,-35.14844 -0.39281,-9.07345 -4.07847,-18.79568 -10.54297,-28.67773 -3.29613,-5.03868 -4.73951,-8.31395 -4.84375,-9.26953 -0.0521,-0.47779 -0.0689,-0.21343 -0.004,-0.29297 0.065,-0.0795 0.55055,-0.49317 1.63477,-0.95117 2.67655,-1.13064 3.34618,-1.15278 8.95117,-0.36328 1.99171,0.28081 3.85305,0.48416 5.32227,0.58984 0.7346,0.0528 1.36128,0.0846 1.93359,0.0801 0.28615,-0.002 0.54965,-0.009 0.89844,-0.0527 0.34878,-0.0437 0.65706,0.36724 2.08398,-0.90625 1.18195,-1.05481 1.27139,-2.84334 1.08203,-3.60351 -0.18935,-0.76017 -0.4401,-1.11878 -0.66406,-1.45899 -0.44791,-0.68041 -0.91572,-1.1847 -1.49805,-1.77929 -1.16466,-1.18918 -2.75841,-2.59289 -4.70703,-4.19531 -3.89723,-3.20484 -9.16782,-7.13196 -14.49414,-10.69727 -5.67814,-3.80081 -12.17498,-8.38052 -13.92383,-9.76563 -1.08638,-0.86043 -2.13814,-1.63775 -3.02343,-2.23828 -0.44265,-0.30026 -0.83568,-0.55312 -1.23047,-0.77734 -0.1974,-0.11211 -0.38971,-0.21648 -0.6543,-0.33203 -0.26459,-0.11555 -0.42596,-0.3457 -1.56445,-0.3457 0.82231,0 0.84773,0.11779 0.9082,0.13867 0.0605,0.0209 0.0198,0.009 -0.0527,-0.0234 -0.14518,-0.0652 -0.43574,-0.20905 -0.78516,-0.39648 -0.69884,-0.37487 -1.65463,-0.9317 -2.62109,-1.53711 -2.96988,-1.8604 -6.35261,-3.43552 -9.4043,-4.50586 -1.52585,-0.53517 -2.95923,-0.94374 -4.29688,-1.17969 -1.33764,-0.23596 -2.48406,-0.5103 -4.23632,0.16211 -0.90714,0.3481 -1.91852,0.64474 -2.77735,2.25391 -0.42941,0.80458 -0.59597,2.12703 -0.21875,3.14257 0.17295,0.46561 0.41321,0.81837 0.66602,1.12305 0.0478,0.13825 0.0883,0.24557 0.16406,0.50391 0.22783,0.77682 0.53598,1.99236 0.88281,3.49609 0.69367,3.00747 1.55687,7.19976 2.45899,11.91992 1.80423,9.44033 3.77458,21.02492 4.96289,29.76172 1.0169,7.47654 2.03472,12.32944 4.625,15.59375 0.64757,0.81608 1.51492,1.65639 2.90234,2.03711 1.38742,0.38072 3.07945,-0.0726 4.07617,-0.82227 1.99345,-1.49928 2.59388,-3.36557 3.32617,-5.8457 0.47415,-1.60582 1.35956,-3.2086 1.94727,-4.29101 0.47655,0.67143 0.71692,0.92994 1.34766,1.95898 1.1945,1.94882 2.58012,4.39265 3.92187,6.90234 2.68352,5.0194 5.26172,10.65833 5.74219,12.35547 1.41858,5.0107 3.47656,22.52754 3.47656,31.15235 0,7.98965 2.90239,21.6293 6.33985,30.70507 6.37602,16.83435 9.25036,23.13984 13.80078,30.14649 5.24065,8.06944 12.70105,15.56788 19.63672,19.33203 3.12953,1.69847 7.93267,3.81395 12.42773,5.61133 2.24753,0.89869 4.40168,1.70785 6.2168,2.32617 1.81512,0.61832 3.03309,1.05957 4.52734,1.21289 3.74208,0.38395 6.95585,0.86968 9.22461,1.35742 1.07676,0.23149 1.89982,0.46237 2.44727,0.65039 0.10878,0.44207 0.23134,0.98329 0.36328,1.72657 0.31045,1.74895 0.64026,4.15425 0.93359,6.8125 0.58667,5.31648 1.03551,11.69535 1.05469,16.21679 0.007,1.76673 0.0865,3.43305 0.21679,4.78906 0.0651,0.67801 0.13932,1.27045 0.25,1.83399 0.0435,0.2212 0.10534,0.45349 0.17774,0.69922 v 0.77344 l 0.99609,0.99609 c 1.49299,1.49301 2.47658,1.23206 3.33594,1.26367 0.85937,0.0316 1.71747,-0.0411 2.7168,-0.17383 1.99865,-0.26547 4.51783,-0.79691 7.57422,-1.57812 1.44795,-0.3701 4.83979,-0.79252 6.55859,-0.79492 l 7.47266,-0.0117 -0.88672,-17.0918 -0.62305,-12.00977 1.9082,-1.91015 c 0.62733,-0.62733 1.42535,-1.25682 2.06446,-1.66406 0.63911,-0.40724 1.42842,-0.44893 0.49218,-0.40625 8.59065,-0.39186 21.06287,-4.03864 30.19922,-8.62891 12.82975,-6.44589 24.48064,-19.5791 32.63477,-36.13086 1.95617,-3.97077 4.03335,-10.04876 5.72851,-15.98242 1.69517,-5.93366 3.00851,-11.25783 3.02344,-14.91602 6.4e-4,-0.15711 0.28151,-2.62781 0.79297,-5.54687 0.51146,-2.91906 1.22691,-6.60702 2.02539,-10.47071 1.59697,-7.72736 3.5473,-16.23003 4.82813,-20.70117 2.52709,-8.82166 4.45614,-12.19132 12.04687,-21.01953 2.08121,-2.4205 3.62485,-4.08568 4.73438,-5.10547 0.40567,1.47668 0.83822,3.76704 1.32617,6.98047 0.26977,1.77657 0.22393,3.19466 1.76172,4.88281 0.76889,0.84408 1.98688,1.37003 2.88867,1.50196 0.76695,0.1122 1.3382,0.0446 1.92187,-0.0137 0.087,0.22076 0.153,0.33981 0.25782,0.72656 0.22985,0.84814 0.40638,1.50158 0.60937,2.10547 0.1015,0.30194 0.20139,0.58963 0.38867,0.96289 0.18729,0.37326 0.35316,0.92909 1.40821,1.5957 0.52752,0.3333 1.38869,0.61014 2.21289,0.53516 0.8242,-0.075 1.46534,-0.42873 1.85742,-0.73047 0.78415,-0.60348 0.93417,-1.01444 1.10742,-1.33203 0.3465,-0.63519 0.49287,-1.07994 0.71289,-1.66016 0.57436,-1.51466 0.71186,-2.86647 0.99219,-4.94727 0.28033,-2.08079 0.5343,-4.56664 0.70312,-7.02539 0.68363,-9.9565 4.93229,-35.93632 6.74219,-42.02539 0.92365,-3.10745 1.85319,-7.63269 2.20117,-10.75781 0.20999,-1.88579 0.39409,-3.43584 -0.0703,-5.24805 -0.2322,-0.9061 -0.71818,-1.95049 -1.60156,-2.75195 -0.88338,-0.80146 -2.03748,-1.21143 -3.03516,-1.32812 -1.99536,-0.2334 -3.66642,0.25777 -5.85351,0.97656 -2.18709,0.71878 -4.83855,1.7808 -8.21485,3.1914 -6.00969,2.51083 -12.6444,5.19728 -14.33398,5.82032 -6.88494,2.53884 -17.24388,7.74995 -23.41211,11.77539 -3.14861,2.05479 -7.33808,4.72885 -9.19336,5.87109 l -13.66992,8.41602 17.78711,0.0508 c 2.85651,0.008 7.65065,0.85031 11.54882,1.95312 1.94909,0.55141 3.70818,1.17035 4.87891,1.70118 0.19875,0.0901 0.24761,0.13435 0.4082,0.21679 -0.13958,0.4395 -0.33972,1.07537 -0.93945,2.05274 -1.33876,2.18175 -3.80855,5.36369 -7.42969,9.48437 -7.04556,8.01752 -13.85531,20.08631 -15.59375,28.52344 -1.8149,8.80827 -9.7314,34.96447 -12.02539,40.16797 -3.59572,8.15623 -9.5386,16.20163 -18.80078,25.1875 -4.22192,4.09596 -6.44414,6.14247 -8.19922,7.27344 -1.75508,1.13096 -3.32957,1.62849 -7.01562,2.63867 -4.32283,1.18468 -7.04174,1.77526 -8.66797,1.90234 -1.19769,0.0936 -1.73861,-0.0175 -2.3125,-0.25391 -0.19888,-1.17282 -0.40684,-3.99662 -0.5293,-9.2832 -0.24523,-10.58646 -0.25781,-31.22953 -0.25781,-71.48242 v -78.92773 c 2.10374,0.31535 4.79881,1.8087 8.61133,5.74609 1.1472,1.18477 2.26762,2.25419 3.21875,3.08203 0.47556,0.41392 0.89829,0.76296 1.33203,1.07422 0.21687,0.15563 0.42969,0.30273 0.73242,0.4668 0.30273,0.16406 0.51564,0.49414 1.84961,0.49414 0.77596,0 1.77716,-0.36504 2.39258,-0.92383 0.61541,-0.55879 0.87482,-1.14698 1.01562,-1.57617 0.28161,-0.85838 0.22098,-1.30603 0.19532,-1.73047 -0.0513,-0.84889 -0.21694,-1.5494 -0.44141,-2.41602 -0.44894,-1.73324 -1.19202,-3.9622 -2.17773,-6.63086 -1.97144,-5.33731 -4.90039,-12.34402 -8.17383,-19.36523 -1.04973,-2.25155 -2.00582,-4.397871 -2.68555,-6.003908 -0.33986,-0.803018 -0.61222,-1.474595 -0.78125,-1.923828 -0.0845,-0.224616 -0.14456,-0.398496 -0.16406,-0.460937 -0.0195,-0.06244 0.0762,-0.33223 0.0762,0.673828 0,-1.070122 -0.1295,-1.013687 -0.20508,-1.279297 -0.0756,-0.26561 -0.16101,-0.532102 -0.26562,-0.839844 -0.20923,-0.615483 -0.48939,-1.381487 -0.83203,-2.283203 -0.6853,-1.80343 -1.6156,-4.134962 -2.64063,-6.597656 -2.02888,-4.874479 -4.37122,-9.555132 -6.48242,-13.126953 -1.0556,-1.785911 -2.03957,-3.285703 -2.99414,-4.47461 -0.47729,-0.594453 -0.9358,-1.113117 -1.51953,-1.603515 -0.58374,-0.490398 -1.2601,-1.212546 -3.00977,-1.1875 z m -72.44141,95.234373 c 0.21766,-0.0388 0.27596,0.0725 0.32422,0.0664 0.0965,-0.0121 0.0217,-0.001 -0.10742,0 -0.0555,4.4e-4 -0.22152,-0.0122 -0.29883,-0.0137 0.0153,-0.004 0.0681,-0.0502 0.082,-0.0527 z"
         id="path7" /></g><path
       id="path5-3-1-6-2"
       style="display:none;stroke-width:8.05907"
       d="M 213.37206,375.53238 213,360.10938 217.53412,360 l 0.37206,15.423 z" /></g></svg>
