<?xml version="1.0" encoding="UTF-8" standalone="no"?>
<svg
   version="1.2"
   viewBox="0 0 295.79855 281.69943"
   width="295.79855"
   height="281.69943"
   id="svg1"
   xml:space="preserve"
   xmlns="http://www.w3.org/2000/svg"
   xmlns:svg="http://www.w3.org/2000/svg"><defs
     id="defs1" /><style
     id="style1">
		tspan { white-space:pre } 
		.s0 { fill: none;stroke: #ff0000;stroke-miterlimit:100 } 
	</style><g
     id="layer1"
     transform="translate(-137.10049,-97.271516)"><path
       id="Path 0 copy"
       class="s0"
       d="m 253.96776,1.9812412 c -4.83809,0.7256238 -12.51049,1.8658898 -17.06826,2.5396834 -4.54737,0.6737937 -14.55576,2.8299332 -22.23856,4.8098491 -7.68279,1.9695513 -20.01678,5.7427953 -27.40888,8.3757733 -7.40247,2.632979 -20.89926,8.551995 -30.00441,13.164891 -9.10514,4.602528 -22.37354,12.263042 -29.48531,17.021062 -7.11177,4.747653 -17.57697,12.48073 -23.26639,17.176553 -5.689435,4.695823 -15.573238,13.828318 -21.968643,20.296736 -6.385022,6.468418 -15.147556,16.191781 -19.456148,21.592491 -4.318975,5.41108 -11.576098,15.42469 -16.133862,22.24555 -4.547382,6.83124 -12.178261,20.3382 -16.95405,30.00974 -5.533687,11.2368 -10.714379,23.75899 -14.316985,34.66408 -3.114645,9.39165 -6.8418376,22.43215 -8.2953386,28.97313 -1.453501,6.54097 -3.5922235,19.22903 -4.7446423,28.19566 -1.3912082,10.80144 -2.09719388,22.31812 -2.10757603,34.1458 0,12.12828 0.67483933,22.9919 2.10757603,33.88662 1.162801,8.82153 3.3222877,21.39554 4.7861709,27.93654 1.4638831,6.55133 4.44356,17.48752 6.623812,24.31875 2.180251,6.83123 6.104705,17.53937 8.721006,23.80046 2.616301,6.2611 7.57897,16.73082 11.015462,23.28217 3.446873,6.54098 9.676163,17.02106 13.86017,23.28215 4.173624,6.2611 11.119282,15.79787 15.427874,21.20896 4.308592,5.40071 13.071127,15.12406 19.466531,21.60285 6.385023,6.47879 16.279208,15.58018 21.968643,20.23455 5.68942,4.64399 13.36182,10.563 17.06825,13.15452 3.69605,2.59151 11.60724,7.66051 17.57698,11.25753 5.98013,3.6074 16.92291,9.43312 24.315,12.96793 7.39209,3.52447 18.80207,8.31359 25.34283,10.63558 6.54075,2.322 18.17914,5.82573 25.86193,7.7849 7.6828,1.94883 22.34238,4.7684 32.58957,6.24037 14.74265,2.1354 22.60194,2.69517 37.7495,2.69517 15.15794,0 23.01723,-0.55977 37.75988,-2.69517 10.24718,-1.47197 24.90677,-4.29154 32.58957,-6.24037 7.68278,-1.95917 19.31079,-5.4629 25.86193,-7.7849 6.54076,-2.32199 17.94035,-7.11111 25.34283,-10.63558 7.39208,-3.53481 18.33487,-9.36053 24.30461,-12.96793 5.98012,-3.59702 13.89132,-8.66602 17.58736,-11.25753 3.69605,-2.59152 11.37883,-8.51053 17.06826,-13.1649 5.68942,-4.65435 15.57322,-13.76612 21.95824,-20.23454 6.39541,-6.46842 15.14756,-16.19177 19.46654,-21.59248 4.30859,-5.41109 11.42035,-15.18628 15.79125,-21.72725 4.37088,-6.55136 11.24387,-18.42049 15.27214,-26.39199 4.02828,-7.96113 9.22972,-19.37415 11.5657,-25.345 2.336,-5.98121 5.92822,-16.45093 7.99426,-23.28216 2.06605,-6.83123 4.88999,-18.23389 6.27083,-25.35538 1.39121,-7.1111 3.22885,-18.75218 4.08018,-25.86329 0.86172,-7.11113 1.5677,-20.84614 1.5677,-30.52804 0,-9.81665 -0.70598,-23.07484 -1.59885,-30.00973 -0.8721,-6.82087 -2.30483,-16.368 -3.16655,-21.20894 -0.86172,-4.83059 -2.907,-13.91125 -4.54739,-20.17235 -1.64037,-6.2611 -4.91075,-16.96923 -7.27788,-23.80045 -2.35675,-6.83125 -8.17076,-20.33822 -12.9154,-30.00974 -4.74463,-9.67154 -12.35476,-23.1785 -16.90213,-30.00974 -4.55776,-6.82086 -11.81489,-16.83447 -16.13386,-22.24555 C 502.62025,101.55757 493.85772,91.844574 487.47269,85.386521 481.08767,78.918102 471.20387,69.816706 465.51445,65.151982 459.82502,60.487257 452.14224,54.557873 448.44619,51.96636 444.75015,49.374846 436.83895,44.31621 430.85883,40.708823 424.88909,37.101437 413.9463,31.275712 406.55422,27.751254 399.15174,24.226796 387.75215,19.448044 381.21139,17.136415 374.66025,14.814417 363.95626,11.528378 357.4155,9.8179792 350.87475,8.1075792 341.33354,5.9929045 336.20478,5.1325219 331.08637,4.2617733 321.77358,2.8416237 315.52353,1.970875 308.01724,0.92390344 297.0952,0.4366989 283.45307,0.52999334 272.07423,0.60255536 258.80584,1.2556173 253.96776,1.9812412 Z"
       style="stroke:#000000;stroke-width:1.03741;stroke-opacity:1" /><path
       id="Path 0"
       class="s0"
       d="m 265.85013,27.483209 c -2.18288,0.208543 -7.78893,0.873904 -12.44244,1.459816 -4.66343,0.595844 -10.93427,1.539263 -13.95061,2.105316 -3.00642,0.556121 -11.52961,2.512475 -18.92164,4.359591 -7.39203,1.837184 -19.05063,5.451972 -25.89695,8.02403 -6.84631,2.57206 -17.3837,7.150127 -23.40647,10.159138 -6.0327,3.018944 -15.43895,8.192855 -20.916,11.499788 -5.47708,3.306933 -13.55374,8.70925 -17.92944,12.016186 -4.3856,3.306932 -11.77765,9.245508 -16.44107,13.188011 -4.65352,3.942499 -11.62883,10.476915 -15.49848,14.508775 -3.869674,4.04181 -10.37864,11.38062 -14.466589,16.3162 -4.087947,4.93557 -11.023564,14.35985 -15.419103,20.93398 -4.395538,6.58408 -10.735823,17.34899 -14.089528,23.93306 -3.353706,6.57416 -8.11636,16.89217 -10.596914,22.93007 -2.480545,6.02794 -6.121992,16.57439 -8.096512,23.42659 -1.974519,6.8522 -4.663441,18.29241 -5.983092,25.42266 -1.309727,7.12034 -2.847671,18.34207 -3.423155,24.91621 -0.575495,6.58408 -1.051758,16.67371 -1.051758,22.43353 0,5.75981 0.476263,15.84945 1.051758,22.43353 0.575484,6.57413 2.113428,17.78593 3.423155,24.9162 1.319651,7.13027 3.939113,18.34205 5.824335,24.92612 1.895135,6.57415 5.308376,16.67372 7.590486,22.43353 2.2821,5.7499 7.163825,16.29634 10.84497,23.42659 3.67121,7.12033 10.239712,18.34207 14.575715,24.91621 4.336003,6.58408 12.214231,17.12058 17.512683,23.4266 5.288538,6.30602 13.375129,15.05499 17.969109,19.44437 4.58407,4.38938 12.15471,11.04297 16.8082,14.78686 4.65353,3.73396 13.39498,10.09956 19.42768,14.14137 6.02278,4.03186 17.00667,10.48684 24.3987,14.33997 7.39205,3.84318 19.49714,9.28524 26.88918,12.0857 7.40195,2.80046 19.50706,6.62379 26.89909,8.49077 7.39203,1.86697 19.49713,4.38939 26.88918,5.60094 11.27161,1.83718 17.40353,2.19469 37.85319,2.19469 20.44967,0 26.58159,-0.35751 37.85321,-2.19469 7.39205,-1.21155 19.49713,-3.73397 26.88916,-5.60094 7.39204,-1.86698 19.49714,-5.69031 26.8991,-8.49077 7.39204,-2.80046 19.26892,-8.12334 26.39306,-11.81756 7.12415,-3.70418 18.09812,-10.15915 24.3987,-14.33999 6.3006,-4.18084 15.27028,-10.63581 19.92379,-14.33997 4.65352,-3.70417 13.6331,-11.92681 19.95354,-18.27255 6.32045,-6.34574 14.53603,-15.35292 18.26677,-20.01042 3.73076,-4.66745 10.34887,-13.86331 14.71463,-20.43745 4.36577,-6.58407 11.47009,-19.14645 15.78624,-27.91529 4.30622,-8.76883 9.48563,-20.43745 11.4899,-25.91921 2.01421,-5.48175 5.14963,-15.79979 6.96539,-22.93006 1.81576,-7.13026 4.33601,-19.46424 5.5862,-27.40881 1.90506,-12.0559 2.28212,-18.352 2.28212,-37.88574 0,-19.30534 -0.38698,-25.88942 -2.20273,-37.3892 -1.21051,-7.67646 -3.72083,-20.01044 -5.58621,-27.40883 -1.85545,-7.40833 -5.01072,-17.94482 -7.015,-23.42659 -2.00427,-5.48177 -7.29282,-17.37878 -11.74788,-26.42567 -4.45507,-9.04691 -11.57922,-21.59935 -15.816,-27.90537 -4.23677,-6.306 -10.76558,-15.26354 -14.50626,-19.90119 -3.74068,-4.63763 -10.37863,-12.21479 -14.76424,-16.8425 -4.38562,-4.62771 -11.77765,-11.628879 -16.43117,-15.551517 -4.66342,-3.932571 -12.05548,-9.851287 -16.44108,-13.158219 -4.37569,-3.306936 -12.45237,-8.709253 -17.92943,-12.016186 -5.47706,-3.306933 -14.88331,-8.480844 -20.916,-11.499788 -6.02278,-3.009011 -16.56016,-7.587078 -23.40649,-10.159138 -6.8463,-2.572058 -18.50491,-6.196777 -25.89695,-8.043892 -7.39203,-1.847117 -16.13349,-3.8134 -19.41774,-4.379453 -3.29417,-0.566051 -8.89029,-1.519402 -12.45236,-2.105315 -3.56207,-0.595842 -15.88545,-1.241341 -27.39521,-1.439955 -11.49984,-0.198616 -22.71193,-0.188684 -24.90474,0.01985 z"
       style="stroke:#000000;stroke-width:0.992647;stroke-opacity:1" /><g
       id="layer3"
       style="display:none"><rect
         style="display:inline;fill:#ff2121;fill-opacity:0.107692;stroke:#000000;stroke-width:1.05245;stroke-opacity:1"
         id="rect1"
         width="300"
         height="300"
         x="135"
         y="80.172386" /></g></g><g
     id="layer2"
     transform="translate(-137.10049,-97.271516)"><path
       style="fill:none;fill-opacity:1;stroke:#000000;stroke-width:1.12811;stroke-opacity:1"
       d="m 281.8223,370.9259 c -5.68587,-20.87201 -17.57794,-34.36662 -34.23906,-38.853 -6.99271,-1.88294 -11.88611,-6.831 -19.45725,-19.67461 -6.30154,-10.68988 -23.69912,-31.41379 -25.17757,-29.99138 -0.64904,0.62445 8.42609,19.4095 10.70108,22.15068 0.71043,0.85602 1.05779,1.79028 0.77194,2.07615 -0.28586,0.28586 -2.99427,-2.89923 -6.01867,-7.07797 -3.0244,-4.17874 -9.84305,-12.62902 -15.15254,-18.7784 -13.42741,-15.55143 -21.41034,-25.52039 -23.26238,-29.0497 -0.86663,-1.65149 -2.76792,-3.94052 -4.22511,-5.08674 -10.75809,-8.46231 -23.11451,-27.72562 -26.28877,-40.98343 -1.89956,-7.93384 -1.90076,-7.89678 0.256,-7.89678 1.62493,0 1.60165,-0.33541 -0.21537,-3.10231 -1.7392,-2.64839 -2.00043,-5.24809 -1.78545,-17.76776 0.66468,-38.70985 4.12634,-44.70414 34.1023,-59.05251 7.79977,-3.73347 14.88045,-7.63041 15.73482,-8.65985 3.31883,-3.99896 -9.2983,-0.48852 -24.55772,6.83263 -8.22112,3.94432 -14.94749,6.96423 -14.94749,6.71093 0,-0.9116 13.14233,-9.21024 21.149,-13.35441 12.69797,-6.57235 18.41637,-7.98927 31.51938,-7.80999 6.32076,0.0865 14.44317,0.9298 18.0498,1.87403 3.60662,0.94423 9.07504,2.04177 12.15204,2.43899 4.97055,0.64166 6.35463,1.49705 12.40923,7.66919 9.85606,10.04737 29.39994,25.55924 32.20292,25.55924 4.20369,0 6.77465,-2.22373 9.52757,-8.24078 1.64035,-3.58532 6.33242,-9.65681 12.08558,-15.63865 8.99352,-9.35099 9.79836,-9.90052 18.42912,-12.58316 7.82827,-2.43322 11.33568,-2.825863 26.45293,-2.961283 9.70021,-0.0869 18.03025,-0.65593 18.78617,-1.283303 0.88732,-0.736409 1.49393,-0.741621 1.74986,-0.015 0.21546,0.611673 3.43764,1.215923 7.16041,1.342783 13.10791,0.446673 32.08284,9.679553 41.74077,20.310323 2.48218,2.73222 6.51867,8.13983 8.96997,12.0169 2.78256,4.40103 4.85539,6.65073 5.51764,5.98848 1.32339,-1.32339 -1.02942,-13.90263 -3.49086,-18.66386 -1.6093,-3.11291 -1.60485,-3.27247 0.053,-1.89731 2.72764,2.26256 6.18501,10.23931 7.05032,16.26634 0.42315,2.94719 1.21936,5.35853 1.76937,5.35853 1.42237,0 1.26232,17.77434 -0.16431,18.24988 -0.65906,0.21969 -1.60367,7.23684 -2.17667,16.1696 -1.07157,16.70498 -2.06422,20.41811 -10.40148,38.9078 -6.37534,14.13874 -8.55927,17.68734 -15.42501,25.0636 -3.62836,3.89817 -7.88294,9.11818 -9.45462,11.60003 -1.57167,2.48184 -8.19401,10.85807 -14.71632,18.61384 -6.5223,7.75577 -11.72133,14.24899 -11.55341,14.42939 0.70057,0.75254 22.00299,-12.64987 28.51023,-17.93721 3.87789,-3.15089 7.0507,-5.1736 7.0507,-4.49488 0,0.67872 -0.49302,1.23403 -1.09559,1.23403 -0.60258,0 -4.41954,4.01773 -8.48215,8.92829 -9.04586,10.93394 -27.51807,25.23456 -41.75135,32.32266 -5.58416,2.78088 -13.77694,7.70905 -18.20616,10.95148 -4.42924,3.24244 -11.79017,8.17977 -16.35763,10.97184 -10.48285,6.40815 -17.14243,12.43958 -22.30084,20.19738 -8.52838,12.82594 -9.35371,14.85912 -10.11863,24.9271 l -0.72852,9.58896 z m 0.9972,-54.83017 c 1.17067,-6.1213 1.3247,-10.44774 0.57824,-16.24089 -0.55965,-4.34323 -1.03414,-8.48576 -1.05444,-9.20561 -0.0203,-0.71986 -2.19442,-3.95796 -4.83138,-7.19578 -2.63696,-3.23782 -5.95621,-7.47152 -7.37611,-9.40823 l -2.58164,-3.52129 0.70056,5.07651 c 0.38531,2.79207 1.15311,6.51044 1.70623,8.26304 0.59114,1.87305 0.58948,3.03557 -0.005,2.82028 -0.55533,-0.20144 -5.30049,-4.28027 -10.5448,-9.06406 -9.79313,-8.93317 -19.7637,-22.63712 -31.83915,-43.76103 -3.01433,-5.27303 -9.19256,-15.19719 -13.72941,-22.0537 -4.53634,-6.85651 -8.2483,-13.2991 -8.2483,-14.31685 0,-1.01776 -0.58492,-2.21197 -1.29981,-2.6538 -1.79621,-1.11011 -0.60722,7.33683 1.67731,11.91629 l 1.7385,3.4849 -4.58312,-2.57104 c -10.4931,-5.8864 -18.96701,-19.3378 -18.96701,-30.10803 0,-3.88734 4.26824,-12.30042 8.69316,-17.13496 2.9573,-3.23106 9.94496,-6.56337 19.60879,-9.35112 8.08659,-2.33275 10.65578,-2.26367 16.6294,0.44719 5.02965,2.28247 6.37971,0.64206 1.4942,-1.81557 -3.8135,-1.91838 -4.41273,-2.95682 -1.29876,-2.25068 1.54988,0.35146 7.0796,0.85926 12.28825,1.12844 7.08636,0.36622 10.22393,1.04661 12.46413,2.70286 1.6466,1.21739 7.28415,4.28226 12.52789,6.81085 8.9296,4.30593 9.28374,4.38965 5.58567,1.32034 -20.67313,-17.15826 -26.69188,-21.84761 -35.19431,-27.42079 -9.37904,-6.14777 -10.13342,-6.43145 -17.10321,-6.43145 -4.12433,0 -10.39757,0.97369 -14.44261,2.24167 -3.93316,1.23292 -8.12808,2.24822 -9.32204,2.25623 -1.99786,0.0134 -1.95292,-0.22238 0.56406,-2.95884 l 2.73489,-2.97337 -2.59415,1.35082 c -1.42679,0.74295 -3.17668,2.62934 -3.88867,4.19197 -0.71198,1.56264 -3.10469,3.76464 -5.31712,4.89334 -11.05026,5.63742 -21.54829,17.72689 -25.59642,29.47668 -1.7748,5.15139 -2.20669,14.50468 -0.93674,20.28673 l 0.81733,3.72125 -2.91858,-1.91232 c -1.60522,-1.05179 -3.15343,-1.91233 -3.44046,-1.91233 -0.80102,0 6.31978,15.84701 9.19353,20.45978 3.58379,5.75248 16.84993,18.0529 30.55535,28.33105 6.412,4.80858 11.1356,8.74287 10.49689,8.74287 -0.63872,0 -1.47504,-0.50765 -1.85851,-1.12812 -0.38347,-0.62046 -1.25358,-1.12811 -1.93359,-1.12811 -0.68001,0 -0.31438,1.0188 0.8125,2.264 1.1269,1.24519 2.6068,3.4027 3.2887,4.79448 1.36155,2.77896 21.98408,18.69441 32.76267,25.28458 8.82445,5.39538 15.72056,11.00981 18.20256,14.81949 l 1.97955,3.03844 -3.86585,-3.14603 c -3.11975,-2.53885 -21.41052,-12.08349 -23.15607,-12.08349 -1.60265,0 0.36794,3.01295 5.82732,8.90974 6.4528,6.96979 17.54687,13.6525 22.66474,13.6525 4.43554,0 11.65819,7.63494 15.80026,16.70215 2.07062,4.53272 3.76477,9.05927 3.76477,10.05901 0,3.77053 1.22937,0.35233 2.76933,-7.69999 z m 16.98913,-8.88992 c -3.70932,-4.09875 -1.82894,-13.55249 5.57449,-28.02609 5.52506,-10.80142 7.61507,-13.65001 15.36192,-20.93769 8.42672,-7.92726 15.40177,-11.93833 23.09283,-13.27977 1.21377,-0.21169 3.02363,-1.65403 4.0219,-3.20518 0.99828,-1.55116 11.91277,-13.13738 24.25441,-25.74715 25.68777,-26.24587 26.71821,-28.83439 30.8883,-42.50596 6.68702,-21.92334 1.8769,-37.15222 -15.19975,-48.12253 -13.50534,-8.67605 -28.87844,-10.42401 -46.76849,-5.31771 -8.1824,2.33549 -30.42154,9.60257 -28.26882,10.08941 0.31023,0.0702 2.34083,0.37744 4.51245,0.68284 2.17161,0.30542 4.07639,0.68304 4.23284,0.83918 0.15646,0.15613 -4.15857,2.45491 -9.58895,5.10839 -5.43037,2.65347 -11.79395,6.55827 -14.14127,8.67732 -4.1674,3.76212 -4.19396,3.83538 -1.12811,3.11221 1.72686,-0.40732 3.62202,-1.1827 4.21146,-1.72305 1.62988,-1.49416 4.00183,-1.17473 4.69525,0.63231 0.34081,0.88812 -0.40563,3.04564 -1.65875,4.79447 -1.34694,1.87979 -1.0231,1.29429 -1.4505,5.29579 l -0.36509,3.90554 2.11631,-1.95154 c 12.57822,-11.59891 36.45978,-27.14392 59.04737,-28.62388 3.25742,-0.21343 5.92259,-0.0354 5.92259,0.39548 0,0.43095 -2.28443,1.85736 -5.07651,3.1698 -2.79207,1.31242 -5.0765,3.1451 -5.0765,4.07262 0,2.14504 0.61401,2.11763 4.5422,-0.2028 2.82818,-1.67066 3.95359,-1.72013 9.72878,-0.42769 8.33512,1.86531 11.24471,3.81838 14.13835,9.4904 3.35192,6.57029 2.44793,22.13587 -1.83715,31.63337 -5.16463,11.44698 -24.21238,37.23025 -29.99083,40.59597 l -3.65209,2.12719 0.78421,-5.2295 c 0.43132,-2.87622 0.52696,-5.2295 0.21255,-5.2295 -0.31442,0 -2.50303,3.67904 -4.8636,8.17562 -4.52852,8.62629 -10.94848,15.58594 -33.39921,36.20694 -17.0877,15.69505 -20.24008,19.79443 -20.84667,27.10925 -0.9558,11.52558 2.85978,26.65393 6.72248,26.65393 0.70232,0 0.36555,-1.00709 -0.7484,-2.23799 z m -13.61831,-34.57045 c 0.95405,-3.80121 -0.14195,-8.91835 -3.02714,-14.13355 -1.5207,-2.7488 -2.03758,-5.10011 -1.54904,-7.04665 0.88013,-3.5067 12.40633,-15.33864 14.94229,-15.33864 3.63026,0 15.36103,-7.31351 19.94596,-12.4352 2.59813,-2.90231 6.47143,-8.52572 8.60734,-12.49646 3.44799,-6.40996 3.92807,-8.35805 4.2812,-17.37253 0.35414,-9.04009 0.10695,-10.64764 -2.25511,-14.66546 l -2.65285,-4.51245 -8.11233,0.226 c -6.94773,0.19356 -8.81323,0.70823 -12.99461,3.58509 -5.28965,3.63937 -12.96535,13.15976 -15.34529,19.03318 -0.81709,2.0165 -2.06791,3.66637 -2.77958,3.66637 -0.71168,0 -3.67693,-1.90369 -6.58946,-4.23042 -20.85502,-16.66047 -27.00523,-18.66738 -34.43568,-11.23694 -4.07408,4.07409 -4.16245,4.34631 -4.1928,12.91689 -0.0272,7.66222 0.42917,9.67782 3.65572,16.14736 3.27742,6.57154 4.5022,7.86931 11.03123,11.68863 4.73176,2.76796 8.56578,6.07144 10.77762,9.28625 4.92057,7.1518 18.1621,33.9915 18.34575,37.18559 0.20524,3.57002 1.41838,3.43198 2.34678,-0.26706 z"
       id="path1-4" /></g></svg>
