<?xml version="1.0" encoding="UTF-8" standalone="no"?>
<svg
   version="1.2"
   viewBox="0 0 353.12958 200.8544"
   width="353.12958"
   height="200.8544"
   id="svg1"
   xml:space="preserve"
   xmlns="http://www.w3.org/2000/svg"
   xmlns:svg="http://www.w3.org/2000/svg"><defs
     id="defs1" /><style
     id="style1">
		tspan { white-space:pre } 
		.s0 { fill: none;stroke: #ff0000;stroke-miterlimit:100 } 
	</style><g
     id="layer1"
     transform="translate(-108.42511,-105.92697)"><path
       id="Path 0 copy"
       class="s0"
       d="m 253.96776,1.9812412 c -4.83809,0.7256238 -12.51049,1.8658898 -17.06826,2.5396834 -4.54737,0.6737937 -14.55576,2.8299332 -22.23856,4.8098491 -7.68279,1.9695513 -20.01678,5.7427953 -27.40888,8.3757733 -7.40247,2.632979 -20.89926,8.551995 -30.00441,13.164891 -9.10514,4.602528 -22.37354,12.263042 -29.48531,17.021062 -7.11177,4.747653 -17.57697,12.48073 -23.26639,17.176553 -5.689435,4.695823 -15.573238,13.828318 -21.968643,20.296736 -6.385022,6.468418 -15.147556,16.191781 -19.456148,21.592491 -4.318975,5.41108 -11.576098,15.42469 -16.133862,22.24555 -4.547382,6.83124 -12.178261,20.3382 -16.95405,30.00974 -5.533687,11.2368 -10.714379,23.75899 -14.316985,34.66408 -3.114645,9.39165 -6.8418376,22.43215 -8.2953386,28.97313 -1.453501,6.54097 -3.5922235,19.22903 -4.7446423,28.19566 -1.3912082,10.80144 -2.09719388,22.31812 -2.10757603,34.1458 0,12.12828 0.67483933,22.9919 2.10757603,33.88662 1.162801,8.82153 3.3222877,21.39554 4.7861709,27.93654 1.4638831,6.55133 4.44356,17.48752 6.623812,24.31875 2.180251,6.83123 6.104705,17.53937 8.721006,23.80046 2.616301,6.2611 7.57897,16.73082 11.015462,23.28217 3.446873,6.54098 9.676163,17.02106 13.86017,23.28215 4.173624,6.2611 11.119282,15.79787 15.427874,21.20896 4.308592,5.40071 13.071127,15.12406 19.466531,21.60285 6.385023,6.47879 16.279208,15.58018 21.968643,20.23455 5.68942,4.64399 13.36182,10.563 17.06825,13.15452 3.69605,2.59151 11.60724,7.66051 17.57698,11.25753 5.98013,3.6074 16.92291,9.43312 24.315,12.96793 7.39209,3.52447 18.80207,8.31359 25.34283,10.63558 6.54075,2.322 18.17914,5.82573 25.86193,7.7849 7.6828,1.94883 22.34238,4.7684 32.58957,6.24037 14.74265,2.1354 22.60194,2.69517 37.7495,2.69517 15.15794,0 23.01723,-0.55977 37.75988,-2.69517 10.24718,-1.47197 24.90677,-4.29154 32.58957,-6.24037 7.68278,-1.95917 19.31079,-5.4629 25.86193,-7.7849 6.54076,-2.32199 17.94035,-7.11111 25.34283,-10.63558 7.39208,-3.53481 18.33487,-9.36053 24.30461,-12.96793 5.98012,-3.59702 13.89132,-8.66602 17.58736,-11.25753 3.69605,-2.59152 11.37883,-8.51053 17.06826,-13.1649 5.68942,-4.65435 15.57322,-13.76612 21.95824,-20.23454 6.39541,-6.46842 15.14756,-16.19177 19.46654,-21.59248 4.30859,-5.41109 11.42035,-15.18628 15.79125,-21.72725 4.37088,-6.55136 11.24387,-18.42049 15.27214,-26.39199 4.02828,-7.96113 9.22972,-19.37415 11.5657,-25.345 2.336,-5.98121 5.92822,-16.45093 7.99426,-23.28216 2.06605,-6.83123 4.88999,-18.23389 6.27083,-25.35538 1.39121,-7.1111 3.22885,-18.75218 4.08018,-25.86329 0.86172,-7.11113 1.5677,-20.84614 1.5677,-30.52804 0,-9.81665 -0.70598,-23.07484 -1.59885,-30.00973 -0.8721,-6.82087 -2.30483,-16.368 -3.16655,-21.20894 -0.86172,-4.83059 -2.907,-13.91125 -4.54739,-20.17235 -1.64037,-6.2611 -4.91075,-16.96923 -7.27788,-23.80045 -2.35675,-6.83125 -8.17076,-20.33822 -12.9154,-30.00974 -4.74463,-9.67154 -12.35476,-23.1785 -16.90213,-30.00974 -4.55776,-6.82086 -11.81489,-16.83447 -16.13386,-22.24555 C 502.62025,101.55757 493.85772,91.844574 487.47269,85.386521 481.08767,78.918102 471.20387,69.816706 465.51445,65.151982 459.82502,60.487257 452.14224,54.557873 448.44619,51.96636 444.75015,49.374846 436.83895,44.31621 430.85883,40.708823 424.88909,37.101437 413.9463,31.275712 406.55422,27.751254 399.15174,24.226796 387.75215,19.448044 381.21139,17.136415 374.66025,14.814417 363.95626,11.528378 357.4155,9.8179792 350.87475,8.1075792 341.33354,5.9929045 336.20478,5.1325219 331.08637,4.2617733 321.77358,2.8416237 315.52353,1.970875 308.01724,0.92390344 297.0952,0.4366989 283.45307,0.52999334 272.07423,0.60255536 258.80584,1.2556173 253.96776,1.9812412 Z"
       style="stroke:#000000;stroke-width:1.03741;stroke-opacity:1" /><path
       id="Path 0"
       class="s0"
       d="m 265.85013,27.483209 c -2.18288,0.208543 -7.78893,0.873904 -12.44244,1.459816 -4.66343,0.595844 -10.93427,1.539263 -13.95061,2.105316 -3.00642,0.556121 -11.52961,2.512475 -18.92164,4.359591 -7.39203,1.837184 -19.05063,5.451972 -25.89695,8.02403 -6.84631,2.57206 -17.3837,7.150127 -23.40647,10.159138 -6.0327,3.018944 -15.43895,8.192855 -20.916,11.499788 -5.47708,3.306933 -13.55374,8.70925 -17.92944,12.016186 -4.3856,3.306932 -11.77765,9.245508 -16.44107,13.188011 -4.65352,3.942499 -11.62883,10.476915 -15.49848,14.508775 -3.869674,4.04181 -10.37864,11.38062 -14.466589,16.3162 -4.087947,4.93557 -11.023564,14.35985 -15.419103,20.93398 -4.395538,6.58408 -10.735823,17.34899 -14.089528,23.93306 -3.353706,6.57416 -8.11636,16.89217 -10.596914,22.93007 -2.480545,6.02794 -6.121992,16.57439 -8.096512,23.42659 -1.974519,6.8522 -4.663441,18.29241 -5.983092,25.42266 -1.309727,7.12034 -2.847671,18.34207 -3.423155,24.91621 -0.575495,6.58408 -1.051758,16.67371 -1.051758,22.43353 0,5.75981 0.476263,15.84945 1.051758,22.43353 0.575484,6.57413 2.113428,17.78593 3.423155,24.9162 1.319651,7.13027 3.939113,18.34205 5.824335,24.92612 1.895135,6.57415 5.308376,16.67372 7.590486,22.43353 2.2821,5.7499 7.163825,16.29634 10.84497,23.42659 3.67121,7.12033 10.239712,18.34207 14.575715,24.91621 4.336003,6.58408 12.214231,17.12058 17.512683,23.4266 5.288538,6.30602 13.375129,15.05499 17.969109,19.44437 4.58407,4.38938 12.15471,11.04297 16.8082,14.78686 4.65353,3.73396 13.39498,10.09956 19.42768,14.14137 6.02278,4.03186 17.00667,10.48684 24.3987,14.33997 7.39205,3.84318 19.49714,9.28524 26.88918,12.0857 7.40195,2.80046 19.50706,6.62379 26.89909,8.49077 7.39203,1.86697 19.49713,4.38939 26.88918,5.60094 11.27161,1.83718 17.40353,2.19469 37.85319,2.19469 20.44967,0 26.58159,-0.35751 37.85321,-2.19469 7.39205,-1.21155 19.49713,-3.73397 26.88916,-5.60094 7.39204,-1.86698 19.49714,-5.69031 26.8991,-8.49077 7.39204,-2.80046 19.26892,-8.12334 26.39306,-11.81756 7.12415,-3.70418 18.09812,-10.15915 24.3987,-14.33999 6.3006,-4.18084 15.27028,-10.63581 19.92379,-14.33997 4.65352,-3.70417 13.6331,-11.92681 19.95354,-18.27255 6.32045,-6.34574 14.53603,-15.35292 18.26677,-20.01042 3.73076,-4.66745 10.34887,-13.86331 14.71463,-20.43745 4.36577,-6.58407 11.47009,-19.14645 15.78624,-27.91529 4.30622,-8.76883 9.48563,-20.43745 11.4899,-25.91921 2.01421,-5.48175 5.14963,-15.79979 6.96539,-22.93006 1.81576,-7.13026 4.33601,-19.46424 5.5862,-27.40881 1.90506,-12.0559 2.28212,-18.352 2.28212,-37.88574 0,-19.30534 -0.38698,-25.88942 -2.20273,-37.3892 -1.21051,-7.67646 -3.72083,-20.01044 -5.58621,-27.40883 -1.85545,-7.40833 -5.01072,-17.94482 -7.015,-23.42659 -2.00427,-5.48177 -7.29282,-17.37878 -11.74788,-26.42567 -4.45507,-9.04691 -11.57922,-21.59935 -15.816,-27.90537 -4.23677,-6.306 -10.76558,-15.26354 -14.50626,-19.90119 -3.74068,-4.63763 -10.37863,-12.21479 -14.76424,-16.8425 -4.38562,-4.62771 -11.77765,-11.628879 -16.43117,-15.551517 -4.66342,-3.932571 -12.05548,-9.851287 -16.44108,-13.158219 -4.37569,-3.306936 -12.45237,-8.709253 -17.92943,-12.016186 -5.47706,-3.306933 -14.88331,-8.480844 -20.916,-11.499788 -6.02278,-3.009011 -16.56016,-7.587078 -23.40649,-10.159138 -6.8463,-2.572058 -18.50491,-6.196777 -25.89695,-8.043892 -7.39203,-1.847117 -16.13349,-3.8134 -19.41774,-4.379453 -3.29417,-0.566051 -8.89029,-1.519402 -12.45236,-2.105315 -3.56207,-0.595842 -15.88545,-1.241341 -27.39521,-1.439955 -11.49984,-0.198616 -22.71193,-0.188684 -24.90474,0.01985 z"
       style="stroke:#000000;stroke-width:0.992647;stroke-opacity:1" /><g
       id="layer3"
       style="display:none"><rect
         style="display:inline;fill:#ff2121;fill-opacity:0.107692;stroke:#000000;stroke-width:1.05245;stroke-opacity:1"
         id="rect1"
         width="300"
         height="300"
         x="135"
         y="80.172386" /></g></g><g
     id="layer2"
     style="display:inline"
     transform="translate(-108.42511,-105.92697)"><g
       id="path1-35"
       style="opacity:1"><path
         style="baseline-shift:baseline;display:inline;overflow:visible;vector-effect:none;fill:none;stroke:#000000;stroke-opacity:1;enable-background:accumulate;stop-color:#000000;stop-opacity:1"
         d="m 434.44922,106.53125 c -1.0417,0.19851 -1.69395,0.74037 -2.32813,1.26563 -0.67633,0.56016 -3.09759,1.65422 -4.5519,2.76359 l -6.43127,3.15143 4.70734,8.06138 4.15865,6.60758 -1.35157,0.88476 c -0.67897,0.44489 -1.36392,0.85273 -1.8789,1.13086 -0.25749,0.13907 -0.47425,0.24694 -0.59766,0.30079 -0.12341,0.0538 -0.38424,-0.0215 0.32617,-0.0215 -0.79734,0 -0.6258,0.0978 -0.74414,0.13867 -0.11834,0.0409 -0.22794,0.0828 -0.35742,0.13477 -0.25896,0.10404 -0.58489,0.24324 -0.98828,0.41992 -0.80679,0.35336 -1.9151,0.8544 -3.25781,1.47266 -2.68544,1.23651 -6.30193,2.9378 -10.21094,4.80859 -7.78317,3.72491 -18.67371,8.76028 -24.125,11.15625 -12.42456,5.46091 -19.17445,8.53151 -22.85352,10.40625 -1.19579,0.60934 -8.81696,3.92694 -16.32617,7.05859 -3.76687,1.57095 -7.39912,3.10394 -10.22265,4.31055 -2.82353,1.20661 -4.69682,2.01313 -5.43946,2.38672 -1.79736,0.90418 -3.73679,1.80117 -20.11328,9.29687 -4.61401,2.1119 -15.34301,7.19371 -23.90039,11.31836 -4.26352,2.05502 -8.28516,3.9441 -11.31641,5.32813 -1.51562,0.69201 -2.78552,1.25789 -3.70312,1.65039 -0.4588,0.19625 -0.83048,0.35047 -1.08594,0.44922 -0.25546,0.0987 -0.58845,0.1455 -0.16992,0.084 -1.47578,0.21688 -2.58961,0.91434 -3.68555,1.80274 0.17585,-0.14255 -0.82913,0.51888 -2.08789,1.20898 -1.25875,0.6901 -2.97468,1.59943 -5.00195,2.65625 -4.05453,2.11365 -9.36075,4.81565 -14.83789,7.56445 -10.95428,5.49761 -22.71801,11.23197 -26.29102,12.72657 -5.92246,2.47737 -5.22377,0.63415 -7.62351,-0.45328 -0.64811,-0.29368 -0.7476,-0.34359 -1.04883,-1.26953 -0.30123,-0.92595 -1.25518,-2.55787 -1.35667,-5.44203 -0.10098,-2.86942 -2.27594,-7.73961 -3.47754,-11.44879 -1.01716,-3.13986 -1.60365,-5.66209 -2.90932,-7.03399 -0.14004,-0.14715 -2.41098,1.13567 -7.02944,2.05191 -3.79774,0.75345 -13.36949,3.74937 -23.625,7.31055 -3.00666,1.04405 -9.76232,3.25657 -14.93555,4.89063 -27.43721,8.66654 -41.33277,21.92466 -46.98046,45.08203 -3.0553,12.5277 -2.51143,21.69772 2.71484,26.93554 7.62016,7.63702 17.88341,13.00722 31.30273,16.52344 9.67306,2.53461 10.27491,2.57226 21.1875,1.12891 10.90362,-1.44216 32.14308,-7.93016 40.57032,-12.47656 12.44058,-6.71156 20.0401,-10.94154 24.62695,-13.86915 2.29342,-1.4638 3.83549,-2.59012 4.91406,-3.64453 1.07857,-1.0544 2.94065,-1.89286 2.94065,-3.20865 0,-0.88051 -1.40012,-1.72677 -1.70432,-2.33822 -0.3042,-0.61145 -0.69635,-1.24418 -1.16016,-1.91992 -0.92762,-1.35149 -2.14212,-2.85842 -3.44336,-4.31641 -1.30124,-1.45799 -2.89914,-2.65198 -3.95507,-3.97461 -1.61555,-2.02359 -4.51941,-6.21794 -1.05274,-10.5625 2.03977,-2.55632 3.50163,-4.05406 6.20508,-5.875 2.70344,-1.82094 6.69652,-3.92787 13.53125,-7.33594 8.5405,-4.25863 21.53609,-10.44863 28.79492,-13.71484 7.47285,-3.36249 41.80903,-20.11811 76.61719,-37.375 17.39854,-8.6257 33.96401,-16.79887 46.63672,-23.01953 12.6727,-6.22066 21.58607,-10.5465 23.22656,-11.27539 3.66882,-1.63011 8.79993,-3.93198 11.42187,-5.12305 1.29043,-0.5862 2.51192,-1.11947 3.42188,-1.5 0.16051,-0.0671 0.24521,-0.0974 0.38477,-0.1543 0.12766,0.17053 0.2128,0.27287 0.36718,0.48829 0.68247,0.95231 1.59325,2.29928 2.54297,3.77929 2.71591,4.23238 4.12064,6.66501 6.54688,7.81446 1.21312,0.57472 2.62273,0.56077 3.85351,0.19726 1.23078,-0.36351 2.41569,-0.99081 3.87696,-1.78906 1.395,-0.76206 2.65922,-1.52487 3.61914,-2.17383 0.47996,-0.32448 0.87955,-0.61371 1.2207,-0.9043 0.17058,-0.14529 0.32519,-0.28461 0.5,-0.49023 0.17481,-0.20562 0.54883,-0.36783 0.54883,-1.39844 0,-0.48891 -0.0763,-0.58524 -0.125,-0.74023 -0.0488,-0.155 -0.10146,-0.29062 -0.16211,-0.44141 -0.1213,-0.30158 -0.27752,-0.65122 -0.47266,-1.06836 -0.39027,-0.83427 -0.93439,-1.93229 -1.60156,-3.23828 -1.33433,-2.61198 -3.15317,-6.04528 -5.12109,-9.68359 -3.93585,-7.27663 -8.44339,-15.32956 -10.89063,-19.26367 -2.42837,-3.90378 -3.68859,-6.00455 -5.24609,-7.30469 -0.77876,-0.65007 -1.94464,-1.09695 -2.98633,-0.89844 z M 190.04883,216.67187 c 0.66885,-0.0309 0.83434,0.0534 0.88281,0.0586 0.0417,0.91093 0.24998,1.7109 0.58203,2.72851 0.36319,1.11305 0.84994,2.34804 1.39844,3.50391 0.54197,1.14211 0.84153,2.00898 0.92578,2.5918 0.0843,0.58281 0.0342,0.84986 -0.19531,1.26562 -0.29341,0.53147 -1.37456,1.39877 -2.8711,2.42383 -0.011,-1.09952 -0.25062,-2.19555 -0.69531,-3.54297 -0.55515,-1.68213 -0.75793,-2.73517 -1.88867,-3.74023 -0.56537,-0.50253 -1.64899,-0.78454 -2.39453,-0.59571 -0.74554,0.18884 -1.18023,0.54357 -1.60547,0.89649 -0.0246,0.0204 -0.0145,0.008 -0.0371,0.0254 -0.007,-0.0435 -0.029,-0.026 -0.46094,-0.64258 -0.40875,-0.58357 -0.86447,-1.33517 -1.85937,-1.83984 -0.9949,-0.50468 -2.13175,-0.46537 -3.33008,-0.19727 -0.66526,0.14884 -1.74515,0.57135 -2.63672,0.87695 1.70295,-0.54299 2.89511,-1.06822 4.74609,-1.625 4.68641,-1.40965 7.8295,-2.11311 9.43946,-2.1875 z m -16.62891,4.64649 c -2.03731,0.79633 -4.55515,1.83576 -7.99609,3.24805 -11.82654,4.85403 -16.54107,7.52877 -24.5918,13.95117 -1.22102,0.97406 -2.25015,1.85365 -3.41992,2.81445 8.74779,-9.07283 19.04742,-14.41195 36.00781,-20.01367 z m 2.06445,16.23828 c -0.19953,0.0399 -0.30861,0.12874 -0.44335,0.17188 -1.07798,0.3451 -2.2121,1.01642 -4.2129,2.20117 -2.00079,1.18475 -4.66139,2.84375 -7.95507,4.97265 -2.38753,1.54319 -3.62836,2.28981 -4.53321,3.28711 -0.22621,0.24933 -0.62296,0.46468 -0.65625,1.49024 -0.0166,0.51278 0.28767,1.22706 0.68946,1.57226 0.40179,0.34521 0.74676,0.42247 0.99218,0.46875 0.98169,0.18514 1.31594,-0.0157 1.99805,-0.16797 1.35007,-0.30128 2.78478,-1.0385 4.51953,-2.02929 1.73475,-0.9908 3.64031,-2.23577 5.36133,-3.53516 2.48127,-1.87338 4.1553,-3.21015 5.16016,-4.12695 0.50242,-0.4584 0.79128,-0.55674 1.21289,-1.41797 0.1054,-0.21531 0.29218,-0.53448 0.19336,-1.19727 -0.0988,-0.66278 -0.84409,-1.40909 -1.33985,-1.56445 -0.49575,-0.15536 -0.78679,-0.16493 -0.98633,-0.125 z m 30.8086,21.49023 c 0.6612,-0.16007 0.76127,-0.16854 1.41211,0.23243 0.65084,0.40097 1.71428,1.40446 3.23047,3.17578 2.24807,2.62637 5.21497,5.15568 7.73047,6.35156 l -1.69336,0.75 c -2.53964,1.12444 -6.0975,2.3725 -9.37891,3.49414 0.0459,-0.21769 0.16916,-0.41532 0.17578,-0.63867 0.0742,-2.50259 -1.50876,-4.49889 -3.96289,-7.33789 l -3.91992,-4.53125 c 2.40011,-0.56006 5.62409,-1.30673 6.40625,-1.4961 z m -10.625,2.48243 -6.18164,3.33398 c -3.84202,2.07236 -7.41541,3.73355 -10.93164,5.2168 1.1915,-0.85275 2.3624,-1.72722 3.48828,-2.77735 3.0639,-2.85775 5.22202,-3.82755 12.46289,-5.50195 0.50021,-0.11567 0.66185,-0.15557 1.16211,-0.27148 z"
         id="path3" /></g></g></svg>
