<?xml version="1.0" encoding="UTF-8" standalone="no"?>
<svg
   version="1.2"
   viewBox="0 0 292.50372 231.14304"
   width="292.50372"
   height="231.14304"
   id="svg1"
   sodipodi:docname="KnihovnikRoleTokenLaser.svg"
   inkscape:version="1.4.2 (2aeb623e1d, 2025-05-12)"
   xml:space="preserve"
   xmlns:inkscape="http://www.inkscape.org/namespaces/inkscape"
   xmlns:sodipodi="http://sodipodi.sourceforge.net/DTD/sodipodi-0.dtd"
   xmlns="http://www.w3.org/2000/svg"
   xmlns:svg="http://www.w3.org/2000/svg"><sodipodi:namedview
     id="namedview1"
     pagecolor="#ffffff"
     bordercolor="#666666"
     borderopacity="1.0"
     inkscape:showpageshadow="2"
     inkscape:pageopacity="0.0"
     inkscape:pagecheckerboard="0"
     inkscape:deskcolor="#d1d1d1"
     inkscape:zoom="0.68356603"
     inkscape:cx="23.406663"
     inkscape:cy="370.84932"
     inkscape:window-width="1920"
     inkscape:window-height="940"
     inkscape:window-x="0"
     inkscape:window-y="0"
     inkscape:window-maximized="1"
     inkscape:current-layer="layer2"><inkscape:page
       x="0"
       y="0"
       width="292.50372"
       height="231.14304"
       id="page2"
       margin="0"
       bleed="0" /></sodipodi:namedview><defs
     id="defs1" /><style
     id="style1">
		tspan { white-space:pre } 
		.s0 { fill: none;stroke: #ff0000;stroke-miterlimit:100 } 
	</style><g
     inkscape:groupmode="layer"
     id="layer1"
     inkscape:label="Template"
     transform="translate(-131.16066,-82.711097)"><path
       id="Path 0 copy"
       class="s0"
       d="m 253.96776,1.9812412 c -4.83809,0.7256238 -12.51049,1.8658898 -17.06826,2.5396834 -4.54737,0.6737937 -14.55576,2.8299332 -22.23856,4.8098491 -7.68279,1.9695513 -20.01678,5.7427953 -27.40888,8.3757733 -7.40247,2.632979 -20.89926,8.551995 -30.00441,13.164891 -9.10514,4.602528 -22.37354,12.263042 -29.48531,17.021062 -7.11177,4.747653 -17.57697,12.48073 -23.26639,17.176553 -5.689435,4.695823 -15.573238,13.828318 -21.968643,20.296736 -6.385022,6.468418 -15.147556,16.191781 -19.456148,21.592491 -4.318975,5.41108 -11.576098,15.42469 -16.133862,22.24555 -4.547382,6.83124 -12.178261,20.3382 -16.95405,30.00974 -5.533687,11.2368 -10.714379,23.75899 -14.316985,34.66408 -3.114645,9.39165 -6.8418376,22.43215 -8.2953386,28.97313 -1.453501,6.54097 -3.5922235,19.22903 -4.7446423,28.19566 -1.3912082,10.80144 -2.09719388,22.31812 -2.10757603,34.1458 0,12.12828 0.67483933,22.9919 2.10757603,33.88662 1.162801,8.82153 3.3222877,21.39554 4.7861709,27.93654 1.4638831,6.55133 4.44356,17.48752 6.623812,24.31875 2.180251,6.83123 6.104705,17.53937 8.721006,23.80046 2.616301,6.2611 7.57897,16.73082 11.015462,23.28217 3.446873,6.54098 9.676163,17.02106 13.86017,23.28215 4.173624,6.2611 11.119282,15.79787 15.427874,21.20896 4.308592,5.40071 13.071127,15.12406 19.466531,21.60285 6.385023,6.47879 16.279208,15.58018 21.968643,20.23455 5.68942,4.64399 13.36182,10.563 17.06825,13.15452 3.69605,2.59151 11.60724,7.66051 17.57698,11.25753 5.98013,3.6074 16.92291,9.43312 24.315,12.96793 7.39209,3.52447 18.80207,8.31359 25.34283,10.63558 6.54075,2.322 18.17914,5.82573 25.86193,7.7849 7.6828,1.94883 22.34238,4.7684 32.58957,6.24037 14.74265,2.1354 22.60194,2.69517 37.7495,2.69517 15.15794,0 23.01723,-0.55977 37.75988,-2.69517 10.24718,-1.47197 24.90677,-4.29154 32.58957,-6.24037 7.68278,-1.95917 19.31079,-5.4629 25.86193,-7.7849 6.54076,-2.32199 17.94035,-7.11111 25.34283,-10.63558 7.39208,-3.53481 18.33487,-9.36053 24.30461,-12.96793 5.98012,-3.59702 13.89132,-8.66602 17.58736,-11.25753 3.69605,-2.59152 11.37883,-8.51053 17.06826,-13.1649 5.68942,-4.65435 15.57322,-13.76612 21.95824,-20.23454 6.39541,-6.46842 15.14756,-16.19177 19.46654,-21.59248 4.30859,-5.41109 11.42035,-15.18628 15.79125,-21.72725 4.37088,-6.55136 11.24387,-18.42049 15.27214,-26.39199 4.02828,-7.96113 9.22972,-19.37415 11.5657,-25.345 2.336,-5.98121 5.92822,-16.45093 7.99426,-23.28216 2.06605,-6.83123 4.88999,-18.23389 6.27083,-25.35538 1.39121,-7.1111 3.22885,-18.75218 4.08018,-25.86329 0.86172,-7.11113 1.5677,-20.84614 1.5677,-30.52804 0,-9.81665 -0.70598,-23.07484 -1.59885,-30.00973 -0.8721,-6.82087 -2.30483,-16.368 -3.16655,-21.20894 -0.86172,-4.83059 -2.907,-13.91125 -4.54739,-20.17235 -1.64037,-6.2611 -4.91075,-16.96923 -7.27788,-23.80045 -2.35675,-6.83125 -8.17076,-20.33822 -12.9154,-30.00974 -4.74463,-9.67154 -12.35476,-23.1785 -16.90213,-30.00974 -4.55776,-6.82086 -11.81489,-16.83447 -16.13386,-22.24555 C 502.62025,101.55757 493.85772,91.844574 487.47269,85.386521 481.08767,78.918102 471.20387,69.816706 465.51445,65.151982 459.82502,60.487257 452.14224,54.557873 448.44619,51.96636 444.75015,49.374846 436.83895,44.31621 430.85883,40.708823 424.88909,37.101437 413.9463,31.275712 406.55422,27.751254 399.15174,24.226796 387.75215,19.448044 381.21139,17.136415 374.66025,14.814417 363.95626,11.528378 357.4155,9.8179792 350.87475,8.1075792 341.33354,5.9929045 336.20478,5.1325219 331.08637,4.2617733 321.77358,2.8416237 315.52353,1.970875 308.01724,0.92390344 297.0952,0.4366989 283.45307,0.52999334 272.07423,0.60255536 258.80584,1.2556173 253.96776,1.9812412 Z"
       style="stroke:#000000;stroke-width:1.03741;stroke-opacity:1"
       inkscape:label="vnejsi kruh" /><path
       id="Path 0"
       class="s0"
       d="m 265.85013,27.483209 c -2.18288,0.208543 -7.78893,0.873904 -12.44244,1.459816 -4.66343,0.595844 -10.93427,1.539263 -13.95061,2.105316 -3.00642,0.556121 -11.52961,2.512475 -18.92164,4.359591 -7.39203,1.837184 -19.05063,5.451972 -25.89695,8.02403 -6.84631,2.57206 -17.3837,7.150127 -23.40647,10.159138 -6.0327,3.018944 -15.43895,8.192855 -20.916,11.499788 -5.47708,3.306933 -13.55374,8.70925 -17.92944,12.016186 -4.3856,3.306932 -11.77765,9.245508 -16.44107,13.188011 -4.65352,3.942499 -11.62883,10.476915 -15.49848,14.508775 -3.869674,4.04181 -10.37864,11.38062 -14.466589,16.3162 -4.087947,4.93557 -11.023564,14.35985 -15.419103,20.93398 -4.395538,6.58408 -10.735823,17.34899 -14.089528,23.93306 -3.353706,6.57416 -8.11636,16.89217 -10.596914,22.93007 -2.480545,6.02794 -6.121992,16.57439 -8.096512,23.42659 -1.974519,6.8522 -4.663441,18.29241 -5.983092,25.42266 -1.309727,7.12034 -2.847671,18.34207 -3.423155,24.91621 -0.575495,6.58408 -1.051758,16.67371 -1.051758,22.43353 0,5.75981 0.476263,15.84945 1.051758,22.43353 0.575484,6.57413 2.113428,17.78593 3.423155,24.9162 1.319651,7.13027 3.939113,18.34205 5.824335,24.92612 1.895135,6.57415 5.308376,16.67372 7.590486,22.43353 2.2821,5.7499 7.163825,16.29634 10.84497,23.42659 3.67121,7.12033 10.239712,18.34207 14.575715,24.91621 4.336003,6.58408 12.214231,17.12058 17.512683,23.4266 5.288538,6.30602 13.375129,15.05499 17.969109,19.44437 4.58407,4.38938 12.15471,11.04297 16.8082,14.78686 4.65353,3.73396 13.39498,10.09956 19.42768,14.14137 6.02278,4.03186 17.00667,10.48684 24.3987,14.33997 7.39205,3.84318 19.49714,9.28524 26.88918,12.0857 7.40195,2.80046 19.50706,6.62379 26.89909,8.49077 7.39203,1.86697 19.49713,4.38939 26.88918,5.60094 11.27161,1.83718 17.40353,2.19469 37.85319,2.19469 20.44967,0 26.58159,-0.35751 37.85321,-2.19469 7.39205,-1.21155 19.49713,-3.73397 26.88916,-5.60094 7.39204,-1.86698 19.49714,-5.69031 26.8991,-8.49077 7.39204,-2.80046 19.26892,-8.12334 26.39306,-11.81756 7.12415,-3.70418 18.09812,-10.15915 24.3987,-14.33999 6.3006,-4.18084 15.27028,-10.63581 19.92379,-14.33997 4.65352,-3.70417 13.6331,-11.92681 19.95354,-18.27255 6.32045,-6.34574 14.53603,-15.35292 18.26677,-20.01042 3.73076,-4.66745 10.34887,-13.86331 14.71463,-20.43745 4.36577,-6.58407 11.47009,-19.14645 15.78624,-27.91529 4.30622,-8.76883 9.48563,-20.43745 11.4899,-25.91921 2.01421,-5.48175 5.14963,-15.79979 6.96539,-22.93006 1.81576,-7.13026 4.33601,-19.46424 5.5862,-27.40881 1.90506,-12.0559 2.28212,-18.352 2.28212,-37.88574 0,-19.30534 -0.38698,-25.88942 -2.20273,-37.3892 -1.21051,-7.67646 -3.72083,-20.01044 -5.58621,-27.40883 -1.85545,-7.40833 -5.01072,-17.94482 -7.015,-23.42659 -2.00427,-5.48177 -7.29282,-17.37878 -11.74788,-26.42567 -4.45507,-9.04691 -11.57922,-21.59935 -15.816,-27.90537 -4.23677,-6.306 -10.76558,-15.26354 -14.50626,-19.90119 -3.74068,-4.63763 -10.37863,-12.21479 -14.76424,-16.8425 -4.38562,-4.62771 -11.77765,-11.628879 -16.43117,-15.551517 -4.66342,-3.932571 -12.05548,-9.851287 -16.44108,-13.158219 -4.37569,-3.306936 -12.45237,-8.709253 -17.92943,-12.016186 -5.47706,-3.306933 -14.88331,-8.480844 -20.916,-11.499788 -6.02278,-3.009011 -16.56016,-7.587078 -23.40649,-10.159138 -6.8463,-2.572058 -18.50491,-6.196777 -25.89695,-8.043892 -7.39203,-1.847117 -16.13349,-3.8134 -19.41774,-4.379453 -3.29417,-0.566051 -8.89029,-1.519402 -12.45236,-2.105315 -3.56207,-0.595842 -15.88545,-1.241341 -27.39521,-1.439955 -11.49984,-0.198616 -22.71193,-0.188684 -24.90474,0.01985 z"
       style="stroke:#000000;stroke-width:0.992647;stroke-opacity:1"
       inkscape:label="vnitrni kruh" /><g
       inkscape:groupmode="layer"
       id="layer3"
       inkscape:label="Positions"
       style="display:none"><rect
         style="display:inline;fill:#ff2121;fill-opacity:0.107692;stroke:#000000;stroke-width:1.05245;stroke-opacity:1"
         id="rect1"
         width="300"
         height="300"
         x="135"
         y="80.172386" /></g></g><g
     inkscape:groupmode="layer"
     id="layer2"
     inkscape:label="Content"
     style="display:inline"
     transform="translate(-131.16066,-82.711097)"><g
       id="path1-9"
       style="opacity:1"
       transform="matrix(1.1128126,0,0,1.1128126,-37.126579,-15.19782)"><path
         style="baseline-shift:baseline;display:inline;overflow:visible;vector-effect:none;fill:none;stroke:#000000;stroke-opacity:1;enable-background:accumulate;stop-color:#000000;stop-opacity:1"
         d="m 401.50195,88.486328 c -2.18275,-0.01238 -5.24219,0.01358 -8.91601,0.07031 -7.34766,0.11347 -17.14909,0.348179 -27.20508,0.640625 -10.05599,0.292445 -20.36372,0.641301 -28.7168,0.984375 -8.35308,0.343073 -14.63765,0.663576 -17.07617,0.955078 -2.85583,0.341387 -9.99295,0.334775 -16.75586,0.06055 -3.38145,-0.137114 -6.70221,-0.334341 -9.42773,-0.570313 -2.72552,-0.235971 -4.94628,-0.548499 -5.72657,-0.761719 -0.852,-0.232819 -2.07792,-0.215567 -3.19336,0.291016 -1.11543,0.506583 -2.25252,1.354453 -3.875,2.769531 -3.24495,2.830157 -8.40743,8.017959 -17.76757,17.541019 -11.28326,11.47966 -34.14489,35.25277 -50.83594,52.86132 -16.67803,17.59482 -36.29477,38.08126 -43.54883,45.47852 -5.87009,5.98598 -9.24667,9.52742 -11.41601,12.29492 -2.16935,2.7675 -3.12188,4.86691 -3.86524,7.38867 -2.05869,6.98395 -1.99218,8.9986 0.45703,15.42969 3.07829,8.08287 9.39084,14.55378 16.40821,16.2207 1.89806,0.45089 2.74186,0.80473 2.98632,0.91602 -0.42746,1.32011 -1.70006,6.02663 -2.96289,10.76367 -0.63428,2.37928 -1.24888,4.71264 -1.70898,6.4961 -0.23005,0.89173 -0.42124,1.64591 -0.5586,2.20507 -0.0687,0.27959 -0.12453,0.50973 -0.16601,0.69336 -0.0415,0.18364 -0.0676,0.12927 -0.0996,0.57813 -0.0216,0.30287 0.0387,0.85873 0.43555,1.31836 0.3968,0.45963 0.94934,0.60472 1.25781,0.625 0.61694,0.0405 0.74176,-0.0968 0.87695,-0.1543 0.27039,-0.11503 0.36668,-0.19098 0.5,-0.2793 0.26666,-0.17662 0.54925,-0.38957 0.90039,-0.66601 0.70228,-0.55288 1.63404,-1.33392 2.66407,-2.23828 3.99721,-3.5096 8.63503,-5.53125 11.71679,-5.53125 0.28952,0 0.31968,0.0124 0.50391,0.0215 -0.0375,0.50291 -0.14335,1.27634 -0.30078,2.32617 -0.76254,5.08492 0.8244,10.36998 4.49414,15.85352 0.41732,0.62359 0.58196,1.10913 1.43164,1.71094 0.21242,0.15045 0.50662,0.32252 0.9375,0.39062 0.43087,0.0681 0.98322,-0.0355 1.36133,-0.25976 0.75621,-0.44855 0.9028,-0.96126 1.05273,-1.36524 0.59973,-1.61589 0.73972,-3.86776 1.28516,-8.7793 0.59487,-5.35659 1.567,-10.41613 2.58984,-14.04687 0.51142,-1.81537 1.04471,-3.28124 1.49024,-4.17383 0.15897,-0.3185 0.26269,-0.44875 0.36523,-0.59375 0.10415,0.0138 0.0702,0.009 0.19336,0.0293 0.43145,0.0725 1.00727,0.18052 1.67383,0.31445 1.3331,0.26786 3.03138,0.6393 4.75195,1.04492 3.558,0.8388 8.47703,1.75344 11.20313,2.07227 2.41879,0.28288 7.023,1.15452 9.94531,1.89062 3.10736,0.78272 7.58533,1.68736 10.1914,2.05079 2.3617,0.32934 7.3364,1.26194 10.85938,2.04296 3.62011,0.80258 7.81048,1.6015 9.68359,1.81641 1.41015,0.16179 6.70134,1.10133 11.34766,2.04297 13.52258,2.74054 27.00714,5.39642 33.5293,6.60351 3.29429,0.60969 10.60859,1.9798 16.24414,3.04297 10.67472,2.01382 18.59342,3.47706 23.8789,4.41407 2.64274,0.4685 4.62556,0.80636 5.98047,1.01562 0.67746,0.10463 1.19356,0.17718 1.58594,0.2207 0.19619,0.0218 0.35591,0.0371 0.53516,0.043 0.0896,0.003 0.17788,0.006 0.33789,-0.01 0.16,-0.0154 0.38108,0.26836 1.17382,-0.55664 0.52522,-0.5466 0.3612,-0.51681 0.42383,-0.65235 0.0626,-0.13553 0.12149,-0.27762 0.19141,-0.45117 0.13984,-0.3471 0.31633,-0.81226 0.53906,-1.41797 0.44546,-1.21142 1.07296,-2.97623 1.88867,-5.3164 1.63142,-4.68034 4.01895,-11.66096 7.19922,-21.04688 2.97915,-8.79236 9.75497,-28.59467 15.05274,-43.99219 5.29885,-15.40068 10.52547,-30.62262 11.625,-33.85547 1.06577,-3.13358 3.0938,-8.32217 4.4375,-11.3496 1.43281,-3.22822 3.83927,-9.57046 5.43554,-14.30469 5.49728,-16.30386 7.28557,-20.39299 8.63672,-21.85352 1.28748,-1.39169 2.56003,-3.50252 3.25391,-5.33398 0.26036,-0.68716 0.4855,-1.21838 0.61523,-1.88086 0.0649,-0.33124 0.11526,-0.72133 0.0117,-1.20899 -0.10354,-0.48765 -0.43832,-1.04145 -0.84375,-1.36328 -0.81085,-0.64365 -1.48785,-0.63633 -2.21875,-0.6875 -0.7309,-0.0512 -1.58713,-0.0469 -2.71289,-0.0469 -2.31525,0 -3.42886,-0.53805 -3.46875,-0.58203 -0.0199,-0.022 -0.0209,0.0888 0.002,-0.16407 0.0229,-0.25287 0.18147,-0.80545 0.57618,-1.54296 0.49722,-0.92907 0.97417,-1.68487 0.77929,-2.92188 -0.0974,-0.6185 -0.48703,-1.24024 -0.90625,-1.59766 -0.41922,-0.35741 -0.83013,-0.53868 -1.23828,-0.69531 -0.011,-0.004 -0.31134,-0.34449 -0.35351,-0.82031 -0.0211,-0.23791 0.0283,-0.44772 0.0508,-0.49805 0.0225,-0.0503 -0.073,0.0816 -0.17969,0.11719 0.45767,-0.15255 1.00636,-0.46977 1.36914,-1.01367 0.36278,-0.5439 0.44849,-1.1924 0.40234,-1.69336 -0.0923,-1.00192 -0.49623,-1.71178 -1.04297,-2.63281 -0.18151,-0.30578 -0.18225,-0.39003 -0.26367,-0.59571 0.46425,-0.20557 0.98661,-0.40443 1.36524,-0.63086 0.66199,-0.39588 1.28976,-0.83629 1.67968,-1.70117 0.38993,-0.86488 0.15738,-2.02705 -0.2871,-2.68359 -0.44449,-0.65654 -0.98968,-1.08639 -1.64063,-1.54492 -1.19456,-0.84145 -1.37579,-1.33304 -1.38086,-1.44336 -0.005,-0.11032 0.15532,-0.68576 1.27734,-1.70117 1.341,-1.21359 2.25656,-2.5389 1.93555,-4.27344 -0.1605,-0.867272 -0.93411,-1.781247 -1.82617,-2.056643 -0.17235,-0.05321 -0.33376,-0.02403 -0.50195,-0.04687 0.29225,-0.625757 0.5644,-1.209801 1.01757,-2.142578 0.63995,-1.317204 1.14148,-2.58339 1.45704,-3.654297 0.15777,-0.535454 0.27188,-1.014761 0.32226,-1.50586 0.0252,-0.245549 0.0409,-0.492204 -0.002,-0.810546 -0.0428,-0.318343 -0.11922,-0.777434 -0.60156,-1.259766 -0.6753,-0.675298 -0.81659,-0.482848 -0.97266,-0.517578 -0.15607,-0.03473 -0.2665,-0.04903 -0.38672,-0.0625 -0.24043,-0.02694 -0.50106,-0.0425 -0.82226,-0.05664 -0.64242,-0.02829 -1.51019,-0.04264 -2.60157,-0.04883 z m -67.94338,25.380862 c 14.56077,0 22.84206,0.0493 27.69727,0.28125 4.8552,0.23196 6.02142,0.60768 6.87695,1.14258 0.88289,0.55199 1.21629,0.75989 1.78516,1.11523 -0.0171,0.0363 -0.0172,0.0423 -0.0352,0.0801 -0.45543,0.95577 -1.20259,2.40429 -2.20312,4.26953 -2.00106,3.73047 -5.02574,9.14717 -8.89844,15.91797 -1.57973,2.7619 -3.08615,5.46695 -4.24609,7.61328 -0.57997,1.07316 -1.07312,2.005 -1.44922,2.74219 -0.37611,0.73719 -0.60939,1.18976 -0.78516,1.67773 -0.0803,0.22289 0.0589,0.1295 -0.35547,0.27539 -0.41437,0.14589 -1.39196,0.28516 -2.92187,0.28516 -1.35963,0 -2.77067,0.18067 -4.04492,0.47851 -1.27426,0.29785 -2.36727,0.63119 -3.32227,1.35352 -0.64409,0.48716 -1.68342,0.86792 -5.10742,0.93555 -3.424,0.0676 -8.99038,-0.21078 -18.12891,-0.81446 -6.38385,-0.4217 -20.06575,-1.01121 -30.5039,-1.31836 -7.79186,-0.22928 -12.55974,-0.44104 -15.34961,-0.73632 -1.39494,-0.14765 -2.29725,-0.326 -2.74414,-0.47266 -0.4469,-0.14666 -0.30081,-0.16578 -0.18946,0.0332 -0.70912,-1.26714 -1.8634,-1.87254 -3.15234,-2.16601 0.50205,-0.60139 0.97884,-1.18059 1.60742,-1.89649 1.91037,-2.17573 7.86199,-9.07386 13.26367,-15.37304 7.61607,-8.8815 10.46167,-11.27527 12.33985,-11.75586 2.12768,-0.54445 4.53556,-1.50549 6.05859,-2.57227 -0.021,0.0147 1.95486,-0.61235 7.05273,-0.82031 5.09787,-0.20796 13.39121,-0.27539 26.75586,-0.27539 z m 62.4375,7.61523 0.23633,1.41406 c 0.40753,2.43738 0.91127,4.61126 1.45508,6.33008 0.13402,0.42361 0.2833,0.73685 0.42383,1.10547 -0.31522,-0.0382 -0.63348,-0.0443 -0.84766,0.0273 -0.98305,0.32876 -1.11432,0.74567 -1.41992,1.1543 -1.22239,1.63452 -2.66281,4.75823 -4.61328,9.63477 -2.14273,5.3572 -4.47617,11.12211 -5.14844,12.7207 -0.72109,1.71468 -2.48956,6.18845 -3.97461,10.05078 -1.47352,3.83232 -3.29078,8.3689 -3.9707,9.92774 -0.75946,1.74117 -2.54219,6.20458 -4.0293,10.07226 -1.47352,3.83232 -3.29078,8.3689 -3.9707,9.92774 -0.75606,1.73338 -2.54469,6.17897 -4.03711,10.01953 -1.47949,3.80728 -3.30978,8.33978 -4.00586,9.93164 -0.77317,1.76815 -2.55682,6.23316 -4.03125,10.07617 -1.46062,3.80702 -3.2705,8.33911 -3.95898,9.92969 -2.03365,4.69823 -4.16569,10.09444 -5.85938,14.71875 -0.0968,0.26418 -0.0919,0.32833 -0.18555,0.58593 0.5205,-1.88857 1.05531,-3.82271 1.51368,-5.3164 0.60959,-1.98651 1.25443,-3.67418 1.24804,-3.66211 0.71038,-1.34255 1.97717,-4.61196 3.18555,-7.95117 1.18954,-3.28718 2.78146,-7.57262 3.51562,-9.46094 0.75788,-1.9493 2.54407,-6.66531 3.98438,-10.52148 1.43463,-3.84099 3.24024,-8.57901 3.98828,-10.46875 0.77575,-1.95973 2.48214,-6.44789 3.81641,-10.03321 1.32665,-3.56485 3.79285,-10.09296 5.47265,-14.48633 1.6832,-4.40224 4.68386,-12.27536 6.66992,-17.50195 1.98529,-5.22452 4.89451,-12.87578 6.46485,-17 1.57076,-4.12533 4.56274,-11.98456 6.64844,-17.4668 z m -8.39062,44.60742 c -1.39311,3.96639 -2.89601,8.19263 -3.82031,10.89453 -1.68723,4.93204 -4.70032,13.485 -6.6836,18.97071 -1.99538,5.5192 -3.972,11.24259 -4.5039,13.12109 -0.3931,1.3883 -2.68618,8.07054 -4.96485,14.37891 -2.2872,6.33194 -5.00321,13.97148 -6.05273,17.02734 -1.03035,3 -3.96661,11.33489 -6.51172,18.48047 -2.55286,7.1673 -5.30024,15.21118 -6.16602,18.08398 -0.36382,1.20722 -0.77014,2.35045 -1.14062,3.31055 -0.60532,-2.09828 -1.21362,-5.68273 -1.67969,-10.57422 -0.32591,-3.42051 -0.3275,-5.14782 -0.33594,-7.09765 l 2.08203,0.64062 1.62696,-3.5 c 0.92707,-1.99396 2.23855,-5.13154 2.98047,-7.13281 1.6431,-4.43212 8.44004,-21.14089 9.48047,-23.36328 0.61532,-1.31436 2.21148,-5.17356 4.39648,-10.54883 2.185,-5.37527 4.91529,-12.17584 7.63867,-19.05078 4.42464,-11.16963 9.71744,-24.28915 11.48242,-28.46289 0.38196,-0.90322 1.36746,-3.25881 2.17188,-5.17774 z m -208.4336,59.23828 c 1.85034,0.05 3.76031,0.19666 5.54102,0.45118 3.78339,0.54075 14.04898,1.92731 22.85352,3.08789 3.45353,0.45523 6.40431,0.88597 10.20312,1.40429 -2.52943,-0.32934 -5.81199,-0.7361 -7.73047,-0.99218 -11.29127,-1.50717 -18.42106,-2.35225 -22.84179,-2.61524 -2.21037,-0.13149 -3.72056,-0.1371 -4.91797,0.0664 -0.59871,0.10175 -1.14307,0.23759 -1.70899,0.63281 -0.56592,0.39522 -1.07031,1.26341 -1.07031,2.00586 0,0.67627 0.33376,1.35323 0.73047,1.77148 0.39671,0.41826 0.83192,0.66761 1.29883,0.88086 0.9338,0.42651 2.06494,0.70589 3.59961,0.97852 3.06933,0.54525 7.71801,0.98838 14.55078,1.45117 3.75631,0.25443 12.10561,1.12202 18.39648,1.91602 6.35935,0.80265 14.8906,1.6942 19.09766,1.99414 4.03952,0.28799 12.60918,1.19571 18.89844,2.0039 6.36258,0.81763 15.34885,1.77099 20.09375,2.12891 4.60673,0.3475 12.26672,1.19251 16.875,1.86328 4.72182,0.68729 9.71192,1.26304 11.75,1.27539 0.29304,0.002 0.5225,-0.002 0.80859,-0.041 0.14339,-0.0198 0.29313,-0.0311 0.58594,-0.1543 0.1464,-0.0616 0.3425,-0.14825 0.58984,-0.38867 0.24734,-0.24042 0.54164,-0.73269 0.55664,-1.26367 0.03,-1.06198 -0.56002,-1.39866 -0.77539,-1.55664 -0.0991,-0.0727 -0.14462,-0.0828 -0.21484,-0.1211 5.72286,0.80845 6.02558,0.72173 14.02148,1.90235 7.62447,1.12578 15.31883,2.14339 17.64649,2.29296 1.9124,0.1229 3.31269,0.18729 4.20312,0.28321 0.47123,0.0508 0.31676,-0.006 0.44141,0.0293 -0.13951,0.53922 -0.43156,1.39452 -0.83399,2.6543 -0.81848,2.56219 -2.084,6.11863 -2.74023,7.71875 -0.21391,0.52157 -0.36375,0.99048 -0.51172,1.46484 -0.64091,-0.18627 -1.16517,-0.3762 -2.02734,-0.5664 -2.9386,-0.64828 -7.20729,-1.34758 -12.55274,-2.04883 -5.92712,-0.77755 -35.79993,-5.28441 -46.89453,-7.11133 -4.9856,-0.82096 -11.15511,-1.68761 -13.92188,-1.94726 -2.42763,-0.22783 -9.39159,-1.34633 -15.12695,-2.45313 -2.92631,-0.56472 -5.99572,-1.06024 -8.60937,-1.4082 -2.61365,-0.34796 -4.66499,-0.56289 -6.00196,-0.51367 -0.63124,0.0232 -1.13763,0.0506 -1.54882,0.0879 -0.4112,0.0373 -0.56849,-0.0265 -1.2168,0.24414 -0.16208,0.0676 -0.40259,0.12701 -0.75195,0.55469 -0.34936,0.42767 -0.46391,1.58166 -0.1504,2.10156 0.31352,0.51989 0.57885,0.60972 0.74415,0.69726 0.16529,0.0875 0.27624,0.12527 0.37695,0.15821 0.40283,0.13174 0.70037,0.17016 1.1543,0.23632 1.26808,0.18484 6.04971,1.00874 10.43945,1.80274 4.41143,0.79794 13.40857,2.38058 20.01367,3.52148 19.1895,3.31461 34.21177,5.98149 45.47852,8.07422 5.78379,1.07432 11.5353,2.10402 13.06836,2.32813 2.65621,0.3883 7.24225,0.80747 11.3125,1.03125 2.03512,0.11189 3.92672,0.17366 5.40234,0.15039 0.50894,-0.008 0.90623,-0.0448 1.32031,-0.0781 0.22466,0.40867 0.43872,0.81121 0.72656,1.25 0.81978,1.24968 1.01151,1.80066 1.01368,1.8418 0.002,0.0411 -0.0564,0.32244 -0.74219,1.36914 -0.69803,1.06533 -1.22098,2.08273 -1.31445,3.26953 -0.0935,1.1868 0.2681,2.27189 0.79296,3.42383 0.45801,1.00516 0.53967,3.03049 0.50782,3.13086 -0.47524,1.49731 -0.23959,2.9791 0.32422,4.38086 -0.5857,-0.0427 -1.93777,-0.22543 -3.64844,-0.54492 -1.82429,-0.34072 -3.9857,-0.79886 -6.01563,-1.28516 -4.18788,-1.00325 -9.52335,-2.05614 -12.16992,-2.38086 -2.29773,-0.28193 -6.82518,-1.17047 -9.76953,-1.92969 -3.1211,-0.80479 -7.13258,-1.63033 -9.27148,-1.88086 -1.7304,-0.20266 -7.21221,-1.16119 -11.85547,-2.09179 -4.68344,-0.93866 -13.23118,-2.6165 -19.01172,-3.73242 -5.7735,-1.11456 -14.77488,-2.85931 -19.99805,-3.87696 -12.23733,-2.38425 -29.9782,-5.77999 -37.01562,-7.08398 -4.35225,-0.80644 -6.39047,-1.35473 -6.78907,-1.51563 0.0676,-0.23958 0.11365,-0.43228 0.31836,-1.01953 0.24901,-0.7143 0.43885,-1.17432 0.5293,-1.32226 0.0905,-0.14795 -0.054,-0.022 0.0469,-0.0566 0.2018,-0.0694 1.73857,-0.11378 4.77149,0.11328 2.35926,0.17662 3.59413,0.28952 4.67578,0.13867 0.27041,-0.0377 0.54914,0.0785 1.22461,-0.52539 0.0902,-0.0807 0.0774,-0.31505 0.16211,-0.45117 11.13904,1.41373 18.01773,2.42975 24.89062,3.75586 h 0.002 c 5.10741,0.98536 9.22355,1.48818 11.36914,1.48632 0.5364,-4.6e-4 0.79653,0.11771 1.62304,-0.24218 0.20663,-0.09 0.51092,-0.22189 0.82227,-0.66016 0.31135,-0.43827 0.40215,-1.2698 0.2207,-1.74609 -0.36288,-0.9526 -0.75558,-0.95919 -1.0039,-1.09571 -0.9933,-0.54605 -2.08204,-0.77665 -4.29688,-1.27343 -3.37956,-0.75804 -8.30896,-1.6312 -11.17969,-1.97461 -2.61886,-0.31329 -7.66644,-1.22222 -10.97656,-1.98438 -3.50361,-0.80672 -8.82813,-1.69325 -12.10742,-2.01172 -1.99297,-0.19354 -3.5292,-0.38444 -4.60937,-0.59179 -0.75729,-0.14537 -0.9518,-0.25924 -1.2129,-0.36524 0.12971,-0.23469 0.18492,-0.39055 0.56446,-0.87305 0.60414,-0.76804 1.07325,-1.37875 1.4375,-1.91211 0.36425,-0.53335 0.65821,-0.93102 0.82422,-1.6582 0.083,-0.36359 0.11677,-0.89164 -0.1211,-1.42773 -0.23786,-0.53609 -0.71294,-0.91155 -1.07617,-1.08203 -0.72645,-0.34098 -1.16358,-0.29108 -1.6582,-0.29883 -1.93388,-0.0303 -6.87434,-0.67612 -11.25977,-1.42969 -2.19271,-0.37678 -4.28057,-0.77942 -5.85351,-1.13477 -0.78647,-0.17767 -1.44682,-0.34511 -1.90039,-0.48046 -0.45358,-0.13536 -0.86469,-0.47539 -0.36719,-0.0625 -0.27866,-0.23127 -0.51166,-0.41795 -0.81836,-0.59961 -0.15335,-0.0908 -0.31998,-0.18818 -0.61719,-0.27149 -0.2972,-0.0833 -0.84901,-0.18566 -1.47656,0.16211 -0.62755,0.34777 -0.90669,1.03394 -0.96094,1.4043 -0.0542,0.37035 -0.0128,0.5849 0.0215,0.77148 0.0685,0.37317 0.16787,0.64081 0.29296,0.9668 -0.13215,-0.3444 -0.009,0.0211 -0.17187,0.49219 -0.16303,0.47108 -0.48524,1.06485 -0.86133,1.52929 -0.43183,0.53329 -0.7404,0.87436 -0.91406,1.01954 -0.17366,0.14517 -0.1546,0.12898 -0.28711,0.15039 -0.26503,0.0428 -1.42507,-0.107 -3.73047,-0.6875 -1.7634,-0.44403 -3.07467,-0.70233 -4.19336,-0.73633 -0.55934,-0.017 -1.08314,0.004 -1.66992,0.2207 -0.58678,0.21649 -1.28475,0.79761 -1.5293,1.53125 0.11776,-0.35329 0.20534,-0.29858 0.10547,-0.24414 -0.0999,0.0544 -0.31012,0.11442 -0.45508,0.11719 -0.51492,0.01 -0.95675,0.0198 -1.55859,0.31054 -0.30092,0.14537 -0.67986,0.40122 -0.94531,0.86329 -0.26546,0.46206 -0.30973,1.07545 -0.21094,1.49218 0.19757,0.83348 0.58859,1.11512 0.91602,1.39844 0.32742,0.28332 0.6765,0.50918 1.07031,0.73438 1.57522,0.90079 3.90271,1.74512 6.35156,2.13671 l 1.07617,0.17188 -0.38281,0.51758 c -0.74243,1.00419 -1.27754,1.47827 -1.60938,1.65234 -0.33183,0.17407 -0.55641,0.21827 -1.27539,0.0879 -6.46739,-1.17276 -10.26367,-4.91723 -13.2832,-13.55859 l -1.51172,-4.32422 c 1.95743,-0.12285 3.5176,-1.20641 4.97461,-2.47266 0.7706,-0.6697 1.46631,-1.40325 2.01758,-2.18554 0.40116,-0.56928 0.69904,-1.20101 0.86914,-1.91993 0.10659,-0.0502 0.17896,-0.0943 0.43945,-0.17187 0.77368,-0.23028 2.07864,-0.45017 3.61914,-0.57813 1.54051,-0.12795 3.33131,-0.17495 5.18164,-0.125 z"
         id="path17"
         sodipodi:nodetypes="csssssssssssssssscsssssssssssscsssssssssccsssssssssssssscsssssssssssssssssssssscsscssscsssssssscssscssssccsssccssssssssssssssccssscsssccsccsssssssssssscscsssssssssccssssssscscccsssssccsscssssssssssssssccsssscssscsscsssssssssssssssssssscscsssccssssssssscsscssscccsssssssssscssssssssscsssscccsssssccscssssscccssccssccscc" /></g></g></svg>
