<?xml version="1.0" encoding="UTF-8" standalone="no"?>
<svg
   version="1.2"
   viewBox="0 0 113.38583 113.38583"
   width="30mm"
   height="30mm"
   id="svg1"
   sodipodi:docname="ByrokratReminderTokenLaser.svg"
   inkscape:version="1.4.2 (2aeb623e1d, 2025-05-12)"
   xml:space="preserve"
   xmlns:inkscape="http://www.inkscape.org/namespaces/inkscape"
   xmlns:sodipodi="http://sodipodi.sourceforge.net/DTD/sodipodi-0.dtd"
   xmlns="http://www.w3.org/2000/svg"
   xmlns:svg="http://www.w3.org/2000/svg"><sodipodi:namedview
     id="namedview1"
     pagecolor="#ffffff"
     bordercolor="#666666"
     borderopacity="1.0"
     inkscape:showpageshadow="2"
     inkscape:pageopacity="0.0"
     inkscape:pagecheckerboard="0"
     inkscape:deskcolor="#d1d1d1"
     inkscape:zoom="9.0075086"
     inkscape:cx="50.513413"
     inkscape:cy="54.510078"
     inkscape:window-width="1920"
     inkscape:window-height="1043"
     inkscape:window-x="0"
     inkscape:window-y="0"
     inkscape:window-maximized="1"
     inkscape:current-layer="layer2"
     showgrid="false"
     inkscape:document-units="mm" /><defs
     id="defs1"><clipPath
       clipPathUnits="userSpaceOnUse"
       id="cp1"><path
         d="m 275.5,535.5 c -143.78,0 -260,-116.22 -260,-260 0,-143.78 116.22,-260 260,-260 143.78,0 260,116.22 260,260 0,143.78 -116.22,260 -260,260 z"
         id="path1" /></clipPath></defs><style
     id="style1">
		tspan { white-space:pre } 
		.s0 { fill: none;stroke: #ff0000;stroke-miterlimit:100 } 
	</style><g
     inkscape:groupmode="layer"
     id="layer2"
     inkscape:label="Content"
     style="display:inline"
     transform="scale(0.1989225)"><path
       id="path1-2"
       style="fill:none;stroke:#000000;stroke-width:0.95000006;stroke-dasharray:none;stroke-opacity:1"
       d="m 376.9941,72.220802 -43.08206,8.12869 -27.63755,2.70374 -19.50885,6.226709 -39.83058,3.262585 3.25148,10.567294 -12.19304,0.81287 7.31583,17.07025 c -9.4654,3.49154 -27.2891,9.39895 -27.63755,21.13459 16.25506,-3.67085 25.72509,18.01445 32.26391,30.07616 12.70094,23.42851 23.171,47.87145 35.41378,71.53246 9.05701,17.50402 20.41719,32.86826 25.80224,52.02361 h 0.81287 c 3.47047,-8.27778 11.29536,-14.24306 20.32172,-14.63164 v -12.58994 l 20.32173,-8.54465 v 0.81287 c -10.45088,4.29344 -19.75667,5.98464 -18.69599,18.69599 17.44617,-1.53276 32.88607,-8.54486 49.58501,-13.46156 14.32651,-4.21815 29.12121,-6.48053 43.08205,-12.55025 l -3.25148,-5.69008 9.75443,-1.62574 -4.87721,-6.50295 14.63164,-4.87721 c -4.83591,-6.80377 -13.09877,-8.18109 -18.42926,-14.63165 -11.34278,-13.72619 -18.8325,-30.84359 -27.34542,-46.33353 -8.79788,-16.00838 -17.67048,-28.85479 -21.32829,-47.1464 -3.77182,-18.86186 1.26059,-35.790616 1.26059,-54.462218 z m -31.44469,33.905968 3.25147,15.45995 7.31582,-5.69008 c 1.47943,6.47898 -2.97912,5.8093 -7.31582,8.94155 h -0.81287 l -8.94156,-2.4386 -1.62573,5.69008 c -4.97505,-3.40049 -2.69004,-9.37136 -3.25148,-14.63164 l 4.06434,5.69008 v -4.87721 h 6.50295 z m -59.33944,10.38447 1.62574,10.76557 h 0.81287 l 3.25147,-4.26262 0.81287,4.26262 h 7.31582 l 2.43861,-9.13983 h 0.81287 v 10.76556 c 7.17227,-1.39171 8.86747,-0.47945 10.5673,-7.51409 h 0.81287 v 6.70122 l 10.56729,-0.81286 -2.43861,-1.82401 c 3.30557,1.00358 5.51819,2.39942 1.50508,4.5452 -3.85448,2.06096 -9.67402,1.71975 -13.69811,0.53028 -1.76256,1.86561 -4.2411,0.79638 -6.38229,2.26079 -3.3779,2.3102 -2.55927,7.20751 -2.55927,10.74511 h -1.62574 l -0.81286,-9.75443 -13.81878,6.50295 c -2.29067,-7.74966 -1.0438,-15.9945 0.81287,-23.77146 z m 36.5791,15.64278 c 2.68337,1.40952 3.54173,2.66127 3.25148,5.69008 l 5.69008,0.81287 c -8.68162,8.6634 -14.41912,4.68679 -8.94156,-6.50295 z m -11.38016,0.81287 h 1.62574 v 13.81877 c -3.9244,-0.0915 -7.86676,0.26784 -10.5673,3.25147 l -7.31582,-0.81287 -7.31582,4.06435 c -1.84534,-9.29759 15.33143,-5.11461 20.18995,-8.14774 3.02676,-1.88958 2.33258,-8.85838 3.38325,-12.17398 z m 12.19303,0.81286 -0.81287,7.31582 c 2.66771,-2.34893 2.9248,-4.4127 0.81287,-7.31582 z m 17.27506,2.0925 c 1.88318,-0.0256 3.64848,0.56864 4.67241,1.97185 l -12.19304,2.4386 c 0.91496,-2.60415 4.38199,-4.36779 7.52063,-4.41045 z m 20.92978,7.01646 h 1.62574 l 2.43861,12.02564 -4.06435,1.62573 z m -24.38606,6.33555 -0.81287,8.94156 2.4386,-2.43861 13.81878,-2.4386 v 3.25147 c -4.70779,0.0972 -13.57291,4.23564 -17.62433,2.57515 -4.60087,-1.8857 -1.49854,-9.08827 2.17982,-9.89097 z m -26.01181,4.06435 h 2.43861 v 13.81877 c -7.33533,-1.56989 -10.74123,4.71118 -17.07025,6.50295 l 1.62574,-17.07025 h 0.81287 v 10.5673 l 3.25147,-4.87721 h 0.81287 l 3.25147,-0.81287 c 5.4666,1.34178 4.94184,-4.35067 4.87722,-8.12869 z m 18.76267,4.7502 c 0.51949,0.004 1.04008,0.0462 1.55905,0.12701 v 1.62574 l -8.12869,5.69008 h -0.81287 l -2.4386,-1.62573 -2.43861,2.4386 v 15.72431 c -11.10871,-1.75659 -2.15668,-7.46816 -4.06434,-14.09857 l 2.4386,0.81287 1.62574,-8.12869 h 0.81287 l 0.81287,2.43861 h 1.62574 c 1.83543,-3.21088 5.37175,-5.03231 9.00824,-5.00423 z m 41.38963,3.37849 h 1.62574 l 1.62574,17.88312 -3.74206,-8.20808 -13.32819,4.9566 1.62574,-11.38016 1.62573,7.31581 3.25148,-3.25147 h 5.69008 z m -30.88902,4.06434 2.43861,10.5673 h 1.62573 l 0.81288,-2.43861 5.69008,0.81287 c -2.75763,4.50755 -13.66872,4.06028 -18.69599,4.06435 l 2.43861,-4.06435 3.25147,0.81287 z m -13.0059,6.50295 1.62573,4.06435 2.43861,-0.81287 -2.43861,6.50295 h -0.81287 z m 63.57683,25.8975 c 2.6795,0.17726 5.34105,1.31398 7.61588,3.68331 1.76247,1.8356 2.6267,4.47852 2.56086,6.99829 -0.0688,2.63483 -1.06407,5.01048 -2.2211,7.31583 l 9.75443,4.87721 c -2.53754,4.08659 -7.08839,4.80855 -11.38017,3.25147 l -8.94156,7.31583 2.43861,-11.38017 c -2.65215,0 -5.5026,0.28979 -8.12711,-0.12066 -5.81965,-0.91014 -7.48197,-7.12069 -5.71707,-12.07237 2.13961,-6.00332 8.12231,-10.25873 14.01723,-9.86874 z m -34.31355,4.99152 c -2.18767,6.40472 -17.56664,9.86269 -23.5732,12.19304 0.27905,-8.50387 16.32449,-11.82178 23.5732,-12.19304 z m -26.0118,7.31582 c 2.18964,8.29217 -11.16665,9.18313 -17.07025,10.5673 l -0.81287,-0.81287 v -1.62574 z m 33.32762,8.12869 c -1.35741,4.51164 -5.07076,4.44434 -8.94156,6.11716 -7.37577,3.18755 -14.67565,7.32054 -22.76033,8.51449 2.72289,-7.97688 23.99492,-13.49346 31.70189,-14.63165 z m -32.51476,13.81878 c -1.28822,3.70504 -6.02094,5.62082 -9.75443,5.69008 v -2.43861 z m 89.90299,9.41149 c 0.49832,-0.0192 0.97286,-0.0177 1.41776,0.008 1.64269,0.0942 2.89141,0.50995 3.52772,1.36696 -9.19603,2.45835 -19.59818,6.68965 -29.26328,5.69008 3.84773,-1.72735 16.84301,-6.77676 24.3178,-7.06498 z m -35.69797,7.06498 v 0.81287 h -2.4386 z"
       sodipodi:nodetypes="cccccccccsscccccccscccccssscccccccccccccccccccccccccccscscccccccccccccccsccccsccsccccccccccsccccccccccccscccccccccccccscccccccccccccccccccccccccssscccccscscccccccccsccccccscccsscccc"
       inkscape:label="znak" /><g
       inkscape:groupmode="layer"
       id="layer3"
       inkscape:label="Kruh"
       transform="scale(5.0270836)"><path
         id="path2"
         style="fill:none;stroke:#000000;stroke-width:0.949978"
         inkscape:label="vnejsi kruh"
         transform="scale(0.19892249)"
         d="M 569.5184,284.99338 A 284.52502,284.52502 0 0 1 284.99338,569.5184 284.52502,284.52502 0 0 1 0.46835327,284.99338 284.52502,284.52502 0 0 1 284.99338,0.46835327 284.52502,284.52502 0 0 1 569.5184,284.99338 Z" /><path
         id="path2-9"
         style="fill:none;stroke:#000000;stroke-width:0.95000007;stroke-dasharray:none"
         inkscape:label="vnitrni kruh"
         d="M 529.26178,284.99338 A 244.2684,244.2684 0 0 1 284.99338,529.26178 244.2684,244.2684 0 0 1 40.724976,284.99338 244.2684,244.2684 0 0 1 284.99338,40.724976 244.2684,244.2684 0 0 1 529.26178,284.99338 Z"
         transform="scale(0.19892249)" /></g><path
       style="opacity:1;stroke:#000000;stroke-opacity:1;fill:none;stroke-width:0.95000006;stroke-dasharray:none;font-size:145.889px;font-family:'New Rocker';-inkscape-font-specification:'New Rocker';letter-spacing:2.2169px;baseline-shift:baseline;white-space:pre;display:inline;overflow:visible;enable-background:accumulate;stop-color:#000000;stop-opacity:1"
       d="m 150.45117,157.69336 -2.19922,1.42187 c -1.42633,0.92293 -3.18074,1.8501 -5.24609,2.75 -2.00457,0.8186 -4.16061,1.59749 -6.46289,2.33594 -2.35011,0.65684 -4.74742,1.26909 -7.19531,1.83399 -2.47945,0.57217 -4.7554,1.04767 -6.82422,1.42382 l -5.16406,0.9375 2.43554,4.65039 c 2.48493,4.74395 6.27775,8.52702 11.08008,11.09571 l 0.0312,0.0156 0.0312,0.0156 c 4.70058,2.40494 9.77704,3.63476 15.03516,3.63476 2.9246,0 5.78278,-0.45493 8.51367,-1.36523 0.27099,-0.0903 0.50899,-0.24902 0.77539,-0.34961 -5.8e-4,0.10802 -0.0195,0.22628 -0.0195,0.33398 0,2.57822 0.049,5.11084 0.14843,7.59571 l 0.004,0.082 0.008,0.084 c 0.11744,1.40927 0.13262,2.93348 0.17578,4.42774 l -9.49218,3.89648 -6.91602,-4.49609 -10.32031,11.57812 10.00195,12.92969 6.81446,-3.91797 10.88867,6.36328 v 0.6836 l 0.01,0.1289 c 0.0889,1.33393 0.13672,3.0594 0.13672,5.14063 0,2.19818 0.0494,4.53506 0.14844,7.01172 0.0954,2.3863 0.14453,4.62189 0.14453,6.70312 v 4.85742 l -7.14453,1.68555 c -2.66906,-4.23572 -5.68216,-7.50043 -9.28906,-9.4707 -3.89018,-2.21683 -8.03516,-3.41211 -12.24024,-3.41211 -0.58574,0 -1.16966,0.0733 -1.75195,0.14453 -0.10195,0 -0.20276,0.0232 -0.30469,0.0254 -0.10947,0.0157 -0.22091,0.009 -0.33008,0.0273 -0.58509,0.026 -1.17076,0.0499 -1.75,0.14649 l -3.86328,0.64453 0.70117,3.85351 c 0.17059,0.93822 0.301,1.93221 0.38868,2.98438 l 0.0117,0.1582 0.0273,0.15625 c 0.15164,0.90989 0.23828,2.01734 0.23828,3.30469 0,1.39534 -0.0869,2.90728 -0.26758,4.5332 -0.16593,1.49338 -0.50831,3.18536 -1.04297,5.05664 l -1.16211,4.07227 4.16211,0.78125 c 1.14102,0.21394 2.54695,0.67838 4.16602,1.44531 l 0.0762,0.0352 0.0781,0.0332 c 1.66658,0.70172 3.29249,1.53595 4.88281,2.50781 1.62485,0.99297 3.09597,2.02014 4.41601,3.07618 l 0.0625,0.0508 0.0664,0.0488 c 1.36294,0.99949 2.35755,1.83801 2.9082,2.38867 l 2.14844,2.14843 2.59375,-1.58398 c 1.31649,-0.80452 3.62361,-1.81676 6.76172,-2.83203 l 0.0312,-0.01 0.0312,-0.0117 c 3.2574,-1.11682 6.77189,-2.1016 10.53906,-2.94921 3.80077,-0.85518 7.59748,-1.56717 11.39453,-2.13672 3.75039,-0.56256 6.98016,-0.83203 9.64063,-0.83203 h 7.21094 l -4,-6 c 0.75366,1.13047 0.3234,0.68221 0.23242,0.26367 -0.0899,-0.41338 -0.21493,-1.11772 -0.35157,-2.02539 l -0.002,-0.01 c -0.001,-0.007 -9e-4,-0.009 -0.002,-0.0156 -0.28041,-1.96555 -0.56526,-4.3359 -0.85156,-7.10157 -7.1e-4,-0.007 -0.001,-0.0107 -0.002,-0.0176 -0.19259,-2.8732 -0.43024,-5.92575 -0.71484,-9.16016 -0.19484,-3.40969 -0.39089,-6.62488 -0.58594,-9.64844 v -0.008 c -0.19284,-3.08623 -0.33595,-5.8304 -0.43164,-8.22266 -0.0964,-2.41094 -0.14453,-4.10722 -0.14453,-4.95117 0,-1.35948 -0.60956,-2.25119 -1.03711,-2.75 -0.42755,-0.49881 -0.78798,-0.75188 -1.11914,-0.97265 -0.66232,-0.44156 -1.25871,-0.71196 -1.96875,-1.00782 -1.24441,-0.5185 -2.79156,-1.11585 -4.67188,-1.80859 l 0.0645,0.0234 c -1.17048,-0.45519 -2.61267,-1.01785 -4.00196,-1.56055 0.10944,-0.0426 0.23127,-0.0969 0.33985,-0.13867 l 0.11914,-0.0449 0.11328,-0.0527 c 1.14419,-0.52809 2.33857,-1.01365 3.58203,-1.45898 1.40306,-0.46721 3.05309,-0.988 4.95508,-1.5586 l 2.75,-0.82422 v -2.87304 c 0,-2.57835 0.0486,-5.30825 0.14453,-8.1875 0.0944,-2.83073 0.28218,-5.60921 0.56445,-8.33789 0.28539,-2.75879 0.61811,-5.3158 0.99414,-7.66602 l 0.002,-0.0117 0.002,-0.01 c 0.36529,-2.3744 0.81606,-4.32123 1.30469,-5.78711 l 1.69336,-5.08008 h -5.35547 c -0.39761,0 -0.7833,0.0916 -1.17578,0.14648 h -0.86524 c -4.79932,0 -9.48764,-0.83698 -14.14062,-2.53711 -4.73853,-1.73138 -9.1398,-4.04646 -13.23828,-6.96093 z"
       id="path4"
       sodipodi:nodetypes="ccccsccccccsscsccccccccccccssscccscccccccccssccccccscccscccccsssccscccsccccssssscccccccccscscccscscsscc"
       inkscape:label="text" /><path
       id="text2-0"
       style="font-size:133px;font-family:'New Rocker';-inkscape-font-specification:'New Rocker';letter-spacing:2.02104px;baseline-shift:baseline;white-space:pre;display:inline;overflow:visible;opacity:1;enable-background:accumulate;stop-color:#000000;stop-opacity:1;fill:none;stroke:#000000;stroke-opacity:1;stroke-width:0.95000006;stroke-dasharray:none"
       d="M 244.21611 296.10701 C 240.62801 297.81563 237.29198 299.12137 234.22086 300.03441 L 234.20122 300.03441 L 234.1914 300.03441 C 231.28645 300.92204 228.57747 301.3501 226.04203 301.3501 C 223.95179 301.3501 222.26386 301.07145 220.95603 300.61371 L 212.49247 297.65833 L 216.68498 305.58188 C 217.42075 306.97167 218.01875 308.29751 218.49158 309.55838 C 218.9475 310.77417 219.29343 312.02063 219.52253 313.31888 L 219.54217 313.41706 L 219.5618 313.51525 C 219.86103 314.78701 220.06162 316.21646 220.1411 317.80594 C 220.2261 319.50632 220.26875 321.44871 220.26874 323.61851 L 220.26874 368.77389 L 203.28269 368.77389 C 203.45118 368.06964 203.64658 367.35947 203.85217 366.65309 C 205.12541 362.58647 206.50933 359.26406 207.93667 356.72656 L 209.45854 354.01665 L 206.945 352.17077 C 206.02541 351.49641 205.26647 350.64444 204.60819 349.53941 C 203.95942 348.29965 203.40461 346.93481 202.94886 345.43526 C 202.55873 343.77386 202.27338 342.06981 202.11429 340.31981 C 201.94651 338.38577 201.86883 336.45978 201.86883 334.52688 C 201.86883 332.20225 201.91077 329.68772 201.99647 327.0059 C 202.16106 324.47962 202.53017 322.00465 203.09614 319.56346 C 203.72645 317.21608 204.61196 315.09957 205.75696 313.19123 L 205.76678 313.16178 L 205.78642 313.14214 C 206.81619 311.3572 208.19516 309.96049 210.11638 308.82199 L 207.86794 302.31231 C 203.81087 302.84149 199.79771 303.32465 195.83043 303.76545 C 192.05377 304.19462 188.36912 304.41348 184.7846 304.41348 C 181.50686 304.41348 178.37724 304.15561 175.38827 303.65745 L 169.12405 302.61669 L 171.56886 308.47834 C 173.26486 312.54875 174.37279 316.2139 174.93662 319.43582 L 174.93662 319.44563 L 174.94644 319.44563 C 175.52188 322.65168 175.82028 326.35347 175.82028 330.53075 L 175.82028 346.36802 C 174.62955 346.43732 173.3081 346.5289 172.26598 346.57421 C 170.28628 346.66031 168.11672 346.70185 165.76612 346.70185 L 156.02614 346.70185 C 154.01433 346.64595 152.1549 346.45353 150.26267 346.28947 L 150.26267 332.66137 C 150.26267 330.39755 150.39108 328.03266 150.64559 325.57239 L 150.64559 325.56257 C 150.89717 323.0468 151.27083 320.67676 151.7649 318.44414 C 152.33829 316.15972 153.02165 314.1115 153.80716 312.29775 C 154.6353 310.49726 155.55132 309.21673 156.45816 308.37034 L 164.57808 300.78062 L 153.58133 302.31231 C 150.37771 302.75726 147.25776 303.25085 144.22428 303.78509 C 141.49586 304.19849 138.52422 304.40366 135.30906 304.40366 C 132.61818 304.40366 129.73733 304.24495 126.65894 303.90291 C 123.6054 303.56363 120.25154 303.00118 116.62441 302.22394 L 111.81334 301.193 L 112.40245 306.08262 C 113.08605 311.74675 114.96861 316.48397 118.33283 319.84819 L 118.35247 319.86783 L 118.37211 319.89729 C 120.76729 322.2152 123.47463 323.78997 126.32511 324.92437 C 126.46288 326.86149 126.60985 328.8017 126.60985 330.53075 C 126.60985 334.32924 126.15564 337.97693 125.25489 341.49804 L 125.24507 341.53731 L 125.23526 341.57658 C 124.44173 344.98874 122.88628 348.93081 120.51255 353.33917 L 119.40305 355.40106 L 120.87583 357.22731 C 122.79435 359.58857 124.27854 362.66714 125.24507 366.61382 L 125.24507 366.62363 L 125.24507 366.63345 C 126.23803 370.60528 126.73749 374.69957 126.73749 378.94588 C 126.73749 381.194 126.43419 383.43887 125.80473 385.72066 L 125.78509 385.77957 L 125.77527 385.83848 C 125.21484 388.16027 124.42112 390.34359 123.38937 392.40708 C 122.35762 394.47058 121.13852 396.29966 119.73688 397.9349 C 118.34721 399.55619 116.90139 400.81092 115.37746 401.75431 L 117.74372 408.22472 C 120.60108 407.79178 123.45943 407.44358 126.31529 407.18395 C 129.09782 406.931 132.46739 406.80103 136.37928 406.80103 C 138.64309 406.80103 141.29576 406.92451 144.32246 407.18395 L 144.37156 407.19377 L 144.42065 407.19377 C 147.46687 407.363 150.95817 407.74576 154.85774 408.35236 L 163.07584 409.62876 L 158.25495 402.84416 C 155.03038 398.29669 153.00261 393.7904 152.04964 389.26515 C 151.03918 384.37705 150.52777 379.21244 150.52777 373.7617 L 150.52777 369.91284 C 152.31358 369.7322 154.04858 369.53276 155.98687 369.42191 C 159.09788 369.24908 162.6235 369.15681 166.56142 369.15681 C 168.59178 369.15681 170.4807 369.2467 172.21689 369.4121 L 172.30525 369.42191 L 172.39362 369.42191 C 173.36326 369.46601 174.66969 369.60523 175.82028 369.69683 L 175.82028 372.03364 C 175.82028 374.92413 175.77029 377.76631 175.68283 380.56594 L 175.68283 380.62485 L 175.68283 380.67394 C 175.68283 383.36481 175.52006 385.85857 175.1919 388.15565 L 175.18208 388.22438 L 175.17226 388.2833 C 174.92735 390.56912 174.52624 392.60315 173.98422 394.39042 C 173.4897 395.93641 172.8378 397.04116 172.09906 397.83672 L 168.38766 401.83286 L 173.56202 403.56092 C 175.20171 404.10748 176.75714 404.8061 178.23564 405.66208 L 178.27492 405.68172 L 178.30437 405.70135 C 179.91218 406.58564 181.32668 407.53228 182.56561 408.53891 C 183.81981 409.55795 184.89283 410.59431 185.7959 411.64156 C 186.67375 412.74741 187.22127 413.70584 187.48469 414.39075 L 190.03751 421.01825 L 193.76854 414.97004 C 195.06071 412.87027 196.70361 410.67643 198.71708 408.41127 C 200.33151 406.59504 202.94142 404.90143 206.72899 403.53146 L 213.38595 401.12592 L 207.44575 397.27706 C 206.36803 396.57971 205.5286 395.722 204.8242 394.65552 C 204.11838 393.36242 203.53201 391.96347 203.08632 390.42373 C 202.69837 388.69234 202.42344 386.86985 202.26157 384.95482 C 202.17747 382.81793 202.13393 380.64205 202.13393 378.41568 C 202.13393 378.12392 202.13739 377.83365 202.14374 377.54183 L 220.26874 377.54183 L 220.26874 391.84742 C 220.26874 395.0133 219.75147 397.6241 218.82541 399.76115 C 217.93902 401.80668 216.83832 402.95404 215.29075 403.72783 L 213.02267 404.86678 L 213.94561 411.31755 L 216.99917 411.31755 C 220.12557 411.31755 223.27954 410.9277 226.45441 410.15896 C 228.85482 409.59367 231.0253 408.8084 233.18991 408.01853 C 233.65146 408.41975 234.09465 408.91812 234.58414 409.24584 C 235.61326 409.96282 236.71576 410.62583 237.9028 411.21936 L 237.9519 411.239 L 238.00099 411.26846 C 239.21397 411.82829 240.61362 412.41193 242.21313 413.03579 C 243.75283 413.7209 245.70454 414.63356 248.05516 415.76534 L 250.81416 417.09084 L 254.71211 411.239 L 253.16079 409.23602 C 251.32461 406.87522 249.79897 404.83459 248.60499 403.1289 L 248.58536 403.09945 L 248.5559 403.06017 C 247.50665 401.63619 246.71083 400.16257 246.12091 398.63202 C 245.60613 397.06906 245.20287 395.22002 244.96232 393.0551 C 244.71789 390.85518 244.58922 387.94476 244.58922 384.39516 L 244.58922 377.54183 L 255.02631 377.54183 C 255.19053 378.97023 255.27177 380.50082 255.27177 382.1369 C 255.27177 385.62498 255.18108 389.11515 255.00667 392.60345 C 254.84241 395.80007 254.34504 398.33552 253.64189 400.16371 L 251.83529 404.84714 L 256.86237 404.93551 C 261.7784 405.02031 266.06461 405.57237 269.71482 406.54575 L 269.72464 406.55557 L 269.73445 406.55557 C 273.51112 407.54079 276.91168 408.96259 279.97517 410.81681 L 282.56726 412.37795 L 290.49081 402.84416 C 290.94393 403.54769 291.22393 404.2796 291.73776 404.97478 C 293.45368 407.29632 295.43119 409.23713 297.66815 410.72844 L 300.97699 412.93761 L 302.76396 409.3833 C 303.15623 408.59876 303.84621 407.49846 304.82585 406.19228 C 305.7844 404.91421 306.86607 403.66115 308.0856 402.44161 C 309.33275 401.19446 310.56876 400.08787 311.78719 399.11313 L 311.797 399.10331 L 311.80682 399.09349 C 313.00725 398.11815 314.03013 397.54833 314.7622 397.28688 L 317.09901 396.45231 L 317.09901 389.7168 L 314.36946 389.08841 C 313.62158 388.91582 313.14073 388.67639 312.76904 388.45021 C 312.71324 388.39641 312.44392 388.11679 312.16029 387.23271 C 311.81664 386.05611 311.48694 384.25201 311.23735 381.95035 C 311.15272 380.70773 311.08424 379.24082 311.04098 377.54183 L 323.36322 377.54183 C 323.29786 378.2997 323.22614 379.09895 323.14722 379.94737 L 322.67593 385.01373 L 323.20613 384.86645 C 321.66973 386.95547 320.42857 389.40916 319.45545 392.32853 L 319.43582 392.35798 L 319.426 392.39726 C 318.46284 395.47935 317.87486 398.55048 317.6783 401.59721 L 317.45247 405.1417 L 320.99696 405.32825 C 324.19753 405.50125 326.93785 405.7611 329.18561 406.0941 L 329.25434 406.10391 L 329.31325 406.11373 C 331.5463 406.36185 333.42847 406.73072 334.93926 407.18395 L 335.01781 407.20359 L 335.09636 407.22323 C 336.62898 407.60639 337.84001 408.08971 338.72921 408.59782 L 338.7783 408.62727 L 338.81758 408.64691 C 339.90075 409.22461 340.8553 409.89053 341.69441 410.65971 L 343.77593 412.57432 L 346.0931 410.94445 C 347.31304 410.08331 348.93167 409.21991 350.95327 408.41127 C 352.99738 407.59362 355.23516 406.88543 357.65932 406.30028 C 360.09245 405.71298 362.6699 405.24562 365.3865 404.90605 C 368.08522 404.56871 370.72238 404.40531 373.31987 404.40531 L 377.68911 404.40531 L 376.75635 400.14407 C 376.39119 398.46433 376.0747 395.61432 375.90214 391.81796 C 375.72773 387.89372 375.64686 383.42857 375.64686 378.41568 C 375.64686 378.12044 375.64617 377.8299 375.64686 377.54183 L 386.88907 377.54183 C 386.79249 379.44359 386.65463 381.25131 386.47669 382.97148 C 386.21878 385.37544 385.92345 387.46164 385.59302 389.19642 L 385.5832 389.26515 L 385.57338 389.33388 C 385.41758 390.37258 385.03432 391.19689 385.01373 391.35649 L 385.01373 391.36631 L 385.01373 391.37613 L 385.02355 391.37613 L 385.03336 391.36631 L 385.04318 391.36631 C 385.06292 391.35113 385.09082 391.31475 385.13155 391.26813 L 382.76529 394.23332 L 386.40796 396.24612 C 387.95082 397.10326 389.30977 397.91379 390.47283 398.66147 L 390.59065 398.74002 L 390.71829 398.80875 C 391.91236 399.44558 393.0653 400.15977 394.18423 400.95901 L 394.23332 400.98846 L 394.28241 401.01792 C 395.47743 401.8146 396.6864 402.75118 397.91527 403.8162 L 398.00363 403.89475 L 398.11164 403.97329 C 399.41783 404.95293 400.94201 406.2192 402.65761 407.76324 L 405.13188 409.99205 L 407.48833 407.6356 C 408.85522 406.26871 410.16746 405.03419 411.42555 403.94384 L 411.43537 403.94384 L 411.44519 403.93402 C 412.77802 402.7678 414.1952 401.63808 415.70643 400.54663 C 417.20224 399.46633 418.89263 398.37245 420.76297 397.26724 C 421.18366 397.01866 421.78224 396.71108 422.23575 396.45231 L 422.23575 402.93253 L 422.23575 402.98162 C 422.32475 406.18446 422.42099 408.86083 422.51067 411.01318 L 422.51067 411.08191 L 422.52048 411.14082 C 422.69708 413.3482 422.82628 415.11905 422.91323 416.42318 L 422.92304 416.52137 L 422.93286 416.61955 C 422.97736 416.97575 423.02566 417.25092 423.07032 417.59159 L 417.53267 419.36874 C 415.96305 418.20625 414.39282 417.03635 412.44668 415.85371 C 409.99045 414.3079 407.48338 412.85922 404.93551 411.49428 C 402.37095 410.12042 399.96507 408.95853 397.70908 408.01853 L 397.67962 407.99889 L 397.64035 407.98907 C 395.46508 407.13788 393.86384 406.59249 392.16161 406.43774 L 390.56119 406.29047 L 389.41243 407.39014 C 387.05047 409.64941 385.01483 412.45115 383.27585 415.73589 L 383.24639 415.7948 L 383.22676 415.84389 C 381.57268 419.24934 380.36511 422.97101 379.60372 426.96827 L 378.81824 431.14115 L 383.05984 431.14115 C 387.43558 431.14115 391.55122 431.90155 395.49009 433.42886 C 399.44913 434.964 403.90401 437.50831 408.77455 441.09713 L 411.15063 442.84483 L 413.29107 440.80257 C 415.3282 438.84692 417.67971 436.98443 420.34077 435.23547 C 423.02927 433.55728 425.7445 432.09117 428.49996 430.83677 L 428.50978 430.83677 C 431.35584 429.58157 434.14196 428.58803 436.86535 427.84212 C 439.55268 427.19364 441.97506 426.87991 444.11142 426.87991 L 448.55921 426.87991 L 447.52826 422.54994 C 447.18619 421.11325 446.86614 418.39984 446.69369 414.70494 C 446.60689 411.03158 446.55623 406.43027 446.55623 400.89028 L 446.55623 334.02614 L 441.47023 336.56914 C 438.76379 337.92236 435.4244 339.08881 431.46516 340.01544 L 431.45534 340.01544 C 427.57535 340.94327 423.6043 341.52909 419.54547 341.78277 L 416.25627 341.99878 L 416.25627 349.72596 L 418.85818 350.42307 C 419.84526 350.6863 420.36799 351.00778 420.50769 351.13001 L 420.68442 351.2871 L 420.88079 351.41474 C 420.95389 351.46344 421.15628 351.61652 421.41099 352.27877 C 421.64402 352.88466 421.89262 354.1165 421.97065 355.83308 L 421.98047 355.91163 L 421.99028 355.99017 C 422.15283 357.77824 422.23575 360.17267 422.23575 363.11842 L 422.23575 378.90661 L 413.46781 382.74565 L 410.91499 380.79176 L 410.91499 358.32698 L 410.91499 352.3475 C 410.99629 350.75092 411.0394 349.25787 411.04263 347.87026 C 411.12833 346.50133 411.21251 345.22005 411.29791 344.0214 C 411.47248 342.78851 411.64568 341.45316 411.81829 339.98598 L 412.55468 333.75122 L 406.85994 336.38259 C 405.93427 336.80982 404.5012 337.35105 402.67725 337.93391 C 400.79745 338.44545 398.74058 338.95869 396.5014 339.47542 C 394.26512 339.99149 392.03066 340.46821 389.79535 340.89911 C 387.56458 341.24149 385.55076 341.49692 383.78641 341.66495 L 380.88995 341.93987 L 380.29102 348.50846 L 382.18599 349.63759 C 383.19094 350.24057 383.88684 350.87118 384.37552 351.52275 L 384.47371 351.66021 L 384.58171 351.78785 C 385.06182 352.31597 385.56127 353.14575 385.97594 354.38976 L 385.98576 354.41921 L 385.99558 354.44867 C 386.3884 355.56165 386.70933 357.14064 386.86943 359.14192 L 386.87925 359.21065 L 386.88907 359.27938 C 387.13261 361.30889 387.26217 363.80072 387.26217 366.712 C 387.26217 367.38963 387.25444 368.07694 387.24253 368.77389 L 375.81377 368.77389 C 375.87252 367.37936 375.94238 366.1705 376.02978 365.15086 L 376.38325 361.05653 L 372.2791 361.34127 C 368.44568 361.60872 365.09954 361.8769 362.22494 362.14639 C 359.33114 362.41768 356.6904 362.73125 354.30139 363.09879 L 354.29157 363.1086 L 354.28175 363.1086 C 351.99108 363.47511 349.87181 363.88835 347.90953 364.35556 L 347.88989 364.35556 L 347.87026 364.36537 C 347.46238 364.46734 347.07627 364.6178 346.6724 364.72866 C 346.6654 364.60863 346.64904 364.52664 346.64294 364.40465 C 346.55724 362.68968 346.5153 360.97449 346.5153 359.25974 L 346.5153 356.06872 C 348.22624 356.69778 349.93701 357.28517 351.65039 357.82624 L 351.67984 357.83606 L 351.69948 357.83606 C 353.61181 358.40976 355.49156 358.84925 357.34513 359.14192 C 359.17055 359.43014 360.85698 359.58375 362.42131 359.58375 C 366.09073 359.58375 369.54484 358.48157 372.23983 356.25527 L 372.26929 356.22582 L 372.30856 356.19636 C 374.94652 353.90248 376.96364 350.65064 378.6906 346.52512 L 380.58557 342.0086 L 375.70577 341.65513 C 364.87788 340.87552 356.91087 339.05147 352.04313 336.57896 L 350.58017 335.83275 L 349.07793 336.47095 C 343.30441 338.92032 338.52313 340.69891 334.82144 341.79259 C 331.1838 342.86734 327.88305 343.37337 324.91455 343.37337 L 319.98565 343.37337 L 321.58607 348.03717 C 322.38182 350.34483 322.95618 352.89354 323.28468 355.6858 L 323.28468 355.73489 L 323.29449 355.78399 C 323.70535 358.57781 323.92288 361.91943 323.92288 365.77924 C 323.92288 366.70078 323.91175 367.70043 323.88361 368.77389 L 310.99189 368.77389 C 311.04453 363.98179 311.2228 360.25837 311.49263 357.67896 C 311.88713 354.72636 312.67968 352.5864 313.67234 351.15946 L 317.5212 345.64145 L 310.7857 345.64145 C 306.67876 345.64145 303.37619 344.94678 300.7708 343.72684 C 298.13287 342.3604 295.45528 340.26578 292.76871 337.33498 L 290.84428 335.24364 L 288.39947 336.67714 C 286.28166 337.91862 282.96156 339.18784 278.55149 340.29036 C 274.31114 341.35044 269.08303 341.91041 262.91058 341.91041 L 261.35925 341.91041 C 260.77633 341.78157 260.31575 341.78277 259.8472 341.78277 L 255.41905 341.78277 L 256.43036 346.0931 C 257.08947 348.91782 257.84316 351.30667 258.79662 353.31954 L 258.83589 353.38827 L 258.86535 353.44718 C 259.89169 355.39724 261.07907 357.06784 262.52766 358.39571 L 262.58657 358.45462 L 262.6553 358.50372 C 264.05868 359.6732 265.66743 360.55236 267.39765 361.04671 L 267.5351 361.08599 L 267.67256 361.11544 C 269.25297 361.43152 270.907 361.57691 272.6211 361.57691 C 275.23729 361.57691 278.17886 361.06038 281.64432 360.12377 C 283.38024 359.6546 284.99205 358.95519 286.66159 358.36626 L 286.66159 364.20828 C 285.85706 364.54003 285.20907 364.86267 284.13823 365.19013 C 282.31339 365.68596 280.25513 366.14996 277.96238 366.57454 C 275.69158 366.99506 273.27548 367.33921 270.72612 367.59567 C 268.25016 367.76528 265.82315 367.85095 263.44078 367.85095 C 261.27064 367.85095 259.29702 367.71881 257.53003 367.47785 L 251.48182 366.66291 L 252.35567 368.77389 L 244.58922 368.77389 L 244.58922 320.02493 C 244.58922 315.59458 244.89268 311.73008 245.46307 308.44889 C 246.08922 305.3397 247.12694 303.08841 248.42826 301.52683 L 244.21611 296.10701 z M 424.85729 345.64145 L 425.0733 345.78873 C 425.02104 345.75685 424.96444 345.73007 424.9162 345.69054 C 424.91063 345.68662 424.89187 345.67525 424.88675 345.67091 C 424.87717 345.66159 424.86617 345.65142 424.85729 345.64145 z M 351.32638 379.13243 L 351.32638 380.53648 C 351.32638 382.98525 351.19392 385.34041 350.94345 387.596 L 350.94345 387.60582 C 350.83532 388.5415 350.60829 389.72806 350.45253 390.76738 C 345.46461 388.62797 340.52201 386.5252 337.09934 385.33774 C 333.99257 384.25989 331.56419 383.64309 329.33289 383.27585 C 333.25575 382.25471 337.31872 381.3075 341.73368 380.5463 L 341.76314 380.5463 L 341.79259 380.53648 C 345.43668 379.84536 348.35713 379.50181 351.32638 379.13243 z M 286.78923 379.3288 L 286.78923 389.09823 C 285.40011 388.88785 283.81401 388.52016 282.60654 388.46985 C 281.73673 388.43195 280.90569 388.34747 280.05372 388.29311 L 280.201 381.03723 C 281.36789 380.81493 282.39579 380.6973 283.73567 380.34993 L 283.79458 380.34011 L 283.85349 380.32047 C 284.80186 380.03948 285.81789 379.64873 286.78923 379.3288 z "
       inkscape:label="text" /></g></svg>
