<?xml version="1.0" encoding="UTF-8" standalone="no"?>
<svg
   version="1.2"
   viewBox="0 0 113.38583 113.38583"
   width="30mm"
   height="30mm"
   id="svg1"
   sodipodi:docname="Knihovnik1ReminderTokenLaser.svg"
   inkscape:version="1.4.2 (2aeb623e1d, 2025-05-12)"
   xml:space="preserve"
   xmlns:inkscape="http://www.inkscape.org/namespaces/inkscape"
   xmlns:sodipodi="http://sodipodi.sourceforge.net/DTD/sodipodi-0.dtd"
   xmlns="http://www.w3.org/2000/svg"
   xmlns:svg="http://www.w3.org/2000/svg"><sodipodi:namedview
     id="namedview1"
     pagecolor="#ffffff"
     bordercolor="#666666"
     borderopacity="1.0"
     inkscape:showpageshadow="2"
     inkscape:pageopacity="0.0"
     inkscape:pagecheckerboard="0"
     inkscape:deskcolor="#d1d1d1"
     inkscape:zoom="6.6154039"
     inkscape:cx="58.273086"
     inkscape:cy="62.732375"
     inkscape:window-width="1920"
     inkscape:window-height="1043"
     inkscape:window-x="0"
     inkscape:window-y="0"
     inkscape:window-maximized="1"
     inkscape:current-layer="layer2"
     showgrid="false"
     inkscape:document-units="mm" /><defs
     id="defs1"><clipPath
       clipPathUnits="userSpaceOnUse"
       id="cp1"><path
         d="m 275.5,535.5 c -143.78,0 -260,-116.22 -260,-260 0,-143.78 116.22,-260 260,-260 143.78,0 260,116.22 260,260 0,143.78 -116.22,260 -260,260 z"
         id="path1" /></clipPath></defs><style
     id="style1">
		tspan { white-space:pre } 
		.s0 { fill: none;stroke: #ff0000;stroke-miterlimit:100 } 
	</style><g
     inkscape:groupmode="layer"
     id="layer2"
     inkscape:label="Content"
     style="display:inline"
     transform="scale(0.1989225)"><g
       inkscape:groupmode="layer"
       id="layer3"
       inkscape:label="Kruh"
       transform="matrix(5.0270836,0,0,5.0270836,0.00664469,0.00663573)"
       style="display:inline"><path
         id="path2"
         style="fill:none;stroke:#000000;stroke-width:0.949978"
         inkscape:label="vnejsi kruh"
         transform="scale(0.19892249)"
         d="M 569.5184,284.99338 A 284.52502,284.52502 0 0 1 284.99338,569.5184 284.52502,284.52502 0 0 1 0.46835327,284.99338 284.52502,284.52502 0 0 1 284.99338,0.46835327 284.52502,284.52502 0 0 1 569.5184,284.99338 Z" /><path
         id="path2-9"
         style="fill:none;stroke:#000000;stroke-width:0.95000007;stroke-dasharray:none"
         inkscape:label="vnitrni kruh"
         transform="scale(0.19892249)"
         d="M 529.26178,284.99338 A 244.2684,244.2684 0 0 1 284.99338,529.26178 244.2684,244.2684 0 0 1 40.724976,284.99338 244.2684,244.2684 0 0 1 284.99338,40.724976 244.2684,244.2684 0 0 1 529.26178,284.99338 Z" /></g><path
       id="path4-7"
       style="font-size:106.743px;font-family:'New Rocker';-inkscape-font-specification:'New Rocker';letter-spacing:3.06652px;baseline-shift:baseline;white-space:pre;display:inline;overflow:visible;opacity:1;fill:none;stroke:#000000;stroke-width:0.95000006;stroke-dasharray:none;stroke-opacity:1;enable-background:accumulate;stop-color:#000000;stop-opacity:1"
       d="m 390.57141,329.70413 h -9.16955 c -3.11727,0 -5.51196,-0.58412 -7.3157,-1.51362 -1.89571,-1.0955 -3.89448,-2.80619 -5.95023,-5.29218 l -2.61132,-3.17088 -3.3389,2.17653 c -1.4765,0.95945 -4.03221,2.06208 -7.51504,3.02726 -3.25139,0.90105 -7.36659,1.40314 -12.27922,1.40314 h -0.97675 c -0.62455,-0.13617 -1.08578,-0.1105 -1.51497,-0.1105 h -6.03993 l 1.37543,6.51853 c 0.55806,2.65125 1.20102,4.93193 2.06315,6.94944 l 0.0498,0.0995 0.0498,0.0995 c 0.91283,1.92258 1.98752,3.6354 3.37878,5.0491 l 0.0897,0.0773 0.0797,0.0884 c 1.3296,1.22823 2.89687,2.17541 4.5748,2.70685 l 0.1794,0.0553 0.18938,0.0442 c 1.42499,0.31593 2.90536,0.46403 4.41533,0.46403 2.39938,0 4.92916,-0.50479 7.85391,-1.38105 0.57078,-0.17098 1.0918,-0.46364 1.6545,-0.65184 v 0.81758 c -0.26282,0.0996 -0.36595,0.18783 -0.65781,0.28725 -1.41985,0.42672 -3.03922,0.83177 -4.85387,1.20427 -1.78677,0.3668 -3.68969,0.65791 -5.71104,0.88388 -1.95979,0.14776 -3.87949,0.22096 -5.76086,0.22096 -1.69383,0 -3.21609,-0.10701 -4.55487,-0.30935 l -8.25259,-1.24846 2.4718,6.67322 h -3.65786 c 0.0165,-1.17591 0.0442,-2.25892 0.0697,-3.24824 0.0704,-2.73178 0.13971,-5.01473 0.2093,-6.88313 0.13274,-1.75259 0.25701,-3.15311 0.37874,-4.18734 0.18693,-1.0856 0.39395,-2.08633 0.62792,-2.99411 l 1.11629,-4.33095 -3.65785,-1.93346 c -1.41127,-0.74497 -2.62428,-1.43036 -3.64788,-2.06606 -1.04412,-0.72502 -2.06161,-1.45489 -3.0399,-2.17652 -0.8617,-0.68419 -1.72793,-1.43891 -2.61133,-2.27597 -0.97849,-1.00767 -2.05364,-2.12176 -3.23924,-3.3587 l -3.47844,-3.63493 -3.28907,3.84485 c -2.48667,2.90961 -4.87073,5.40244 -7.14626,7.47974 -0.14624,0.13351 -0.3593,0.27503 -0.50832,0.4088 v -1.01646 l -4.4552,-8.24209 -3.44854,0.95017 c -2.23221,0.6186 -4.80375,1.28455 -7.69445,1.9887 -2.88021,0.62237 -5.54037,1.12991 -7.96353,1.51363 l -4.11633,0.65185 v 9.42426 l 4.00669,1.92242 v 18.16354 h -7.48513 l 4.52496,-15.30201 -1.93357,-2.29806 c -0.15156,-0.17999 -0.51234,-0.77532 -0.70766,-2.28701 -0.25255,-2.03865 -0.38687,-4.21621 -0.38871,-6.52959 l 6.87716,-11.43506 -12.85728,4.3862 c -2.64354,0.90166 -5.32266,1.65058 -8.03332,2.25387 -2.72482,0.52667 -5.40284,0.91283 -8.04328,1.13798 l -4.1562,0.35354 -0.57808,10.13136 2.9502,1.53573 c 0.006,0.003 0.0247,0.009 0.03,0.0112 0.0137,0.003 0.0289,0.007 0.0399,0.0113 h 0.0102 v 0.0112 h 0.0101 c 0.0351,0.0361 0.0827,0.14652 0.2093,0.49719 l 0.0399,0.0995 0.0399,0.11049 c 0.15946,0.39279 0.54817,2.22245 0.54817,5.02701 0,2.07733 -0.13215,4.63451 -0.40863,7.62338 -0.27246,2.86451 -0.6761,5.82437 -1.22594,8.87184 l -0.0101,0.0552 -0.0101,0.0662 c -0.25994,1.64656 -0.6575,3.15881 -0.99668,4.7287 v -1.04959 c 0,-8.80053 -0.37299,-16.52071 -1.12626,-23.21263 -0.69479,-6.82268 -1.8415,-12.0895 -4.37547,-16.18587 l -2.92029,-4.71765 -4.02664,3.56863 c -0.18483,0.16391 -0.98537,0.71916 -2.16281,1.31475 -1.29148,0.56938 -2.72624,1.14944 -4.3057,1.73459 -1.53579,0.51715 -3.10739,1.00019 -4.71434,1.44733 -1.58901,0.36434 -2.93203,0.6092 -3.93691,0.74026 l -3.27938,0.58555 -0.0998,11.25744 3.74761,0.86179 c 0.77488,1.91574 1.56754,4.37004 2.22262,7.8333 v 0.0442 l 0.0101,0.0442 c 0.39952,1.96126 0.72425,4.1891 0.95683,6.67322 h -9.22934 c 0.0136,-5.31158 0.16807,-9.32167 0.40864,-11.88806 0.2208,-1.8158 0.60541,-3.10761 1.02659,-4.05475 l 1.2e-4,-9.2246 h -3.51832 c -3.11522,0 -5.50239,-0.5852 -7.30572,-1.51363 -0.67726,-0.39121 -1.37141,-0.85775 -2.07312,-1.41419 v -17.25756 c 1.07872,-1.05027 2.07238,-1.95688 2.97014,-2.71791 l 0.0697,-0.0552 0.0697,-0.0553 c 1.16701,-1.06535 2.04452,-1.80922 2.42196,-2.08813 l 6.45855,-4.7729 -6.73762,-4.26467 c -0.33473,-0.21204 -1.04418,-0.6946 -1.93358,-1.32581 -0.88597,-0.7528 -1.82241,-1.52974 -2.82063,-2.34225 -0.92041,-0.80228 -1.80862,-1.60013 -2.66115,-2.3975 -0.69797,-0.71523 -1.17395,-1.30423 -1.31563,-1.51363 l -4.64457,-6.87208 -3.47846,7.68966 c -0.57074,1.26536 -1.33261,2.78199 -2.29238,4.52983 l -0.0399,0.0773 -0.0399,0.0773 c -0.88729,1.74015 -1.85013,3.48568 -2.88044,5.23693 l -0.0101,0.022 -0.0102,0.022 c -1.00377,1.74848 -1.97047,3.41905 -2.90037,5.00491 l -0.0498,0.0773 -0.0498,0.0885 c -0.87289,1.61267 -1.56075,2.90746 -2.08308,3.90006 l -2.08308,3.95534 3.22927,2.87257 c 0.91114,0.80801 1.47382,1.46288 1.5947,1.63515 l 0.17941,0.25412 0.20931,0.23202 c 0.7897,0.87539 1.74431,1.79062 2.97013,2.89467 l 3.35884,3.0162 3.04987,-3.3808 c 0.18023,-0.19979 0.36521,-0.40626 0.54817,-0.60766 v 2.58531 l -0.93689,0.60766 c -1.47649,0.95946 -4.0322,2.06209 -7.51502,3.02727 -3.25139,0.90104 -7.36659,1.40314 -12.27922,1.40314 h -0.97676 c -0.62476,-0.13628 -1.08568,-0.1105 -1.51496,-0.1105 h -6.03994 l 1.37544,6.51852 c 0.55807,2.65125 1.20101,4.93194 2.06314,6.94945 l 0.0498,0.0995 0.0399,0.0995 c 0.91283,1.92258 1.99749,3.6354 3.38875,5.04909 l 0.0897,0.0773 0.0797,0.0884 c 1.32961,1.22823 2.89686,2.17541 4.57481,2.70685 l 0.18936,0.0553 0.18938,0.0442 c 1.425,0.31592 2.89539,0.46402 4.40536,0.46402 2.39937,0 4.92917,-0.5048 7.85392,-1.38105 0.57066,-0.17095 1.09191,-0.46369 1.6545,-0.65184 v 0.81757 c -0.26378,0.0999 -0.37476,0.18747 -0.66779,0.28726 -1.41896,0.42631 -3.03082,0.83209 -4.8439,1.20427 -1.78678,0.36679 -3.68966,0.6579 -5.71103,0.88387 -1.95909,0.14766 -3.88014,0.22097 -5.76086,0.22097 -1.69382,0 -3.21608,-0.10701 -4.55487,-0.30935 l -8.25259,-1.24847 3.16948,8.54039 c 0.29605,0.79699 0.55475,1.80898 0.72758,3.06041 h -8.50176 c 0.1638,-1.12136 0.34688,-2.23537 0.55815,-3.35872 1.03261,-5.10408 2.33111,-9.83658 3.88708,-14.18611 l 0.80731,-2.25387 -1.00665,-2.15443 c -3.30133,-7.02037 -4.77413,-12.96867 -4.77413,-17.72159 0,-4.14075 0.89603,-7.55826 2.71099,-10.70587 1.9976,-3.41779 4.90268,-6.71566 8.84063,-9.8441 l 8.18282,-6.5075 -9.71772,-2.93886 c -1.22143,-0.36928 -2.49127,-0.54137 -3.75752,-0.54137 -1.93295,0 -3.9385,0.22973 -6.03993,0.67395 -1.78667,0.31698 -3.78439,0.67732 -5.9901,1.07169 -2.15744,0.38572 -4.57688,0.78097 -7.24593,1.17113 -2.46121,0.29391 -5.25244,0.44194 -8.35226,0.44194 h -2.16281 c -0.4726,0 -1.00403,-0.0239 -1.58474,-0.0885 l -2.24255,10.21975 c 2.85893,1.25672 3.54971,2.31892 3.79739,5.52418 v 4.85023 0.0663 c 0.0717,3.33508 0.14716,7.80649 0.21927,13.40167 v 0.0442 0.0331 c 0.14408,5.59013 0.29425,12.02361 0.43855,19.30151 v 0.0332 0.0331 c 0.0258,0.86855 0.0718,1.84041 0.0997,2.7179 -0.24556,-0.47764 -0.5137,-0.89916 -0.75749,-1.38104 -2.63499,-5.28921 -5.09147,-10.49181 -7.36552,-15.61135 -0.003,-0.007 -0.007,-0.0154 -0.0101,-0.022 -2.19995,-5.11476 -4.21784,-9.98544 -6.05986,-14.61699 l -0.0102,-0.0332 c -1.54136,-4.0328 -2.81272,-7.44666 -3.97679,-10.63957 0.42627,-1.69603 1.15144,-2.73428 3.36881,-3.69016 l -2.21266,-10.2308 c -0.56497,0.0627 -1.13177,0.0885 -1.69436,0.0885 h -2.06315 c -2.79589,0 -5.38917,-0.14815 -7.78414,-0.44194 -2.44681,-0.38823 -4.753881,-0.7735 -6.917026,-1.16008 l -0.01994,-0.0112 c -2.097212,-0.38737 -4.064498,-0.73539 -5.9004,-1.0496 l -0.119602,-0.022 c -2.002525,-0.4372 -3.882757,-0.67394 -5.691094,-0.67394 -1.307768,0 -2.597264,0.16325 -3.867154,0.58556 l -9.348944,3.10459 7.933645,6.29758 c 3.932921,3.12443 6.783961,6.41293 8.701096,9.7999 l 0.0299,0.0442 0.02989,0.0552 c 1.874054,3.14758 2.780763,6.53351 2.780763,10.65062 0,4.75293 -1.462844,10.70123 -4.764175,17.7216 l -1.315629,2.7842 1.574769,2.61845 c 1.461018,2.42932 2.448562,4.86694 3.029934,7.38031 l 0.01,0.0552 0.01994,0.0663 c 0.672587,2.64338 1.006656,5.38694 1.006656,8.28628 0,3.13115 -0.368543,6.21193 -1.126259,9.29168 l -0.0099,0.0553 -0.01994,0.0552 c -0.715871,3.1742 -1.717864,6.28156 -3.029934,9.33587 l -0.0099,0.022 -0.01994,0.022 c -1.246847,2.98251 -2.708391,5.77004 -4.405366,8.37466 l -0.01994,0.0331 -0.01994,0.022 c -1.718268,2.71056 -3.53958,5.08884 -5.471823,7.15934 l 4.823976,8.87185 c 5.85397,-2.1346 10.705363,-4.7381 14.551661,-8.05427 2.225859,-1.91908 4.129702,-4.15862 5.850566,-6.54063 0.0751,0.063 0.18536,0.15965 0.25913,0.22097 l 0.0498,0.0552 0.0598,0.0442 c 1.36066,1.06467 2.6786,1.97251 3.97679,2.74 l 0.0498,0.0331 0.0598,0.0332 c 1.29869,0.71979 2.60723,1.36277 3.92696,1.91137 l 0.0399,0.0112 0.0498,0.022 c 1.3671,0.53487 2.87671,1.05048 4.55486,1.55782 l 14.69119,4.44145 -9.74761,-12.97079 c -1.30143,-1.7312 -2.37443,-3.39197 -3.23924,-4.96072 -0.77811,-1.48449 -1.45975,-3.25587 -2.01331,-5.36951 -0.54157,-2.06775 -1.4685,-7.04534 -1.73583,-10.15694 -0.0547,-0.63665 -0.0456,-1.74144 -0.0897,-2.45273 1.92445,3.56785 4.29838,9.51062 6.5,13.02951 l 0.03,0.0442 0.03,0.0442 c 3.30268,5.07554 6.9037,9.90031 10.8041,14.47337 4.06908,4.76592 6.49064,8.30371 11.34348,11.88998 l 25.52667,-0.2316 c -0.29144,-0.22599 -6.85679,-11.82067 -7.16837,-12.07878 -1.09905,-0.95652 -2.60812,-2.60142 -4.15618,-4.35307 -0.33873,-2.17702 -0.64309,-4.36532 -0.80732,-6.59587 -0.1371,-2.91951 -0.20931,-5.48758 -0.20931,-7.65654 0,-0.57983 0.007,-1.16573 0.0199,-1.74563 h 9.59811 c -0.0354,1.49181 -0.0922,2.99346 -0.15946,4.48564 -0.12675,2.72676 -0.51465,4.80439 -0.98674,6.16499 l -1.45014,5.80846 8.04823,1.57186 c 2.91417,0.18993 5.58469,0.55925 7.80407,1.21531 h 0.0102 l 0.0101,0.0113 c 2.91113,0.84183 5.50597,2.05086 7.83398,3.61281 l 3.52828,2.36435 5.83063,-7.77806 c 1.44305,2.07328 3.09215,3.88345 4.98344,5.28114 l 4.51501,3.3366 2.43192,-5.38055 c 0.24291,-0.53852 0.74322,-1.44098 1.49504,-2.55219 0.72307,-1.06869 1.54882,-2.11462 2.48175,-3.14878 0.9706,-1.07592 1.91912,-2.02449 2.85054,-2.85048 l 0.0199,-0.022 0.0102,-0.0112 c 0.85822,-0.77296 1.52695,-1.15613 1.84388,-1.28161 l 3.17943,-1.25952 v -9.29168 l -3.71764,-0.95016 c -0.22392,-0.0572 -0.23162,-0.0888 -0.35882,-0.14363 -0.003,-0.008 -0.008,-0.0288 -0.0101,-0.0332 l -0.0101,-0.0112 c -0.002,-0.006 -0.007,-0.0119 -0.0101,-0.022 -0.21578,-0.82354 -0.44778,-2.22126 -0.63788,-4.04371 h 9.42868 c 9e-4,0.22094 0,0.43944 0,0.66291 0,0.71984 -0.0218,1.71123 -0.0897,2.91677 l -0.0101,0.16573 v 0.16571 c 0,1.08308 -0.0422,2.25459 -0.10965,3.52444 v 0.15467 0.16573 c 0,1.17053 -0.0336,2.34221 -0.0997,3.51339 -0.0703,1.16771 -0.14029,2.20875 -0.20931,3.12668 l -0.34884,4.55193 4.00669,1.06064 c 3.0444,0.807 5.97965,1.90086 8.8207,3.29242 2.87346,1.40743 5.18739,2.85723 6.92699,4.25363 l 1.25584,1.0054 h 4.27578 l 15.8972,-13.64474 4.40536,-14.91531 h 10.40544 v 10.39653 c 0,1.73612 -0.28105,2.73331 -0.35881,2.90572 l -0.03,0.0662 -2.5316,1.17113 v 10.66169 h 29.52194 v -10.81651 l -2.50168,-1.0275 c -0.17586,-0.55611 -0.42858,-1.94644 -0.42858,-4.0437 v -22.384 l 5.15288,-2.55218 v 7.93273 0.0442 c 0.0718,4.53326 0.10963,9.06731 0.10963,13.60054 0,0.55885 -0.0593,1.95995 -0.19933,3.90008 -0.14144,1.95982 -0.32413,4.12325 -0.53822,6.49645 -0.20529,2.19543 -0.47531,4.39714 -0.81728,6.59588 l -0.0101,0.0112 v 0.0112 c -0.33848,2.25119 -0.7073,4.06819 -1.05649,5.35847 l -0.81729,3.0383 6.17949,6.85 3.38873,-4.02162 c 0.89221,-1.05968 1.94398,-2.18186 3.14955,-3.36975 1.18428,-1.16693 2.44119,-2.3093 3.76748,-3.41395 1.38591,-1.0954 2.72514,-2.06644 4.01665,-2.92781 1.28465,-0.81128 2.49481,-1.43142 3.61799,-1.86718 l 3.92694,-1.52467 -0.81727,-4.52984 c -0.13495,-0.74795 -0.27231,-1.54609 -0.40864,-2.3754 -0.10131,-0.6778 -0.1938,-1.70107 -0.25915,-3.00516 -0.0683,-1.36108 -0.13912,-3.162 -0.2093,-5.32532 v -5.85563 h 5.44192 c 3e-5,0.0223 0,0.0439 0,0.0663 0,3.11447 -0.0688,6.2321 -0.2093,9.34692 -0.12676,2.72676 -0.51463,4.80439 -0.98672,6.16499 l -2.46183,7.082 6.84726,0.13258 c 3.88073,0.0742 7.22936,0.55708 10.01672,1.38105 l 0.0101,0.0112 h 0.0102 c 2.91113,0.84184 5.50597,2.05087 7.83397,3.61281 l 3.52828,2.36435 5.83063,-7.77805 c 1.44323,2.0737 3.09184,3.88322 4.98345,5.28113 l 4.515,3.3366 2.43192,-5.38055 c 0.24291,-0.53852 0.74323,-1.44098 1.49503,-2.55217 0.72308,-1.0687 1.54883,-2.11463 2.48176,-3.1488 0.9706,-1.07591 1.91912,-2.02449 2.85053,-2.85048 l 0.0199,-0.022 0.0101,-0.0113 c 0.85821,-0.77295 1.52694,-1.15613 1.84387,-1.2816 l 2.85053,-1.12694 -0.89702,3.82274 4.55487,1.39209 c 1.63711,0.50062 3.2832,1.28872 4.96351,2.41959 1.61537,1.08719 3.14797,2.48217 4.60471,4.23153 l 1.90367,2.28702 2.73093,-0.7292 c 1.93543,-0.51491 3.93261,-1.15666 5.98014,-1.91136 2.05067,-0.67698 4.03179,-1.43637 5.95023,-2.28701 l 0.0498,-0.022 0.0399,-0.0112 c 1.98707,-0.93191 3.87557,-1.91719 5.66119,-2.9499 0.19672,-0.11376 0.34541,-0.23934 0.53822,-0.35356 0.28596,0.4714 0.44727,0.98212 0.75748,1.44734 1.51245,2.26829 3.28411,4.20207 5.31235,5.70097 l 4.515,3.3366 2.43192,-5.38055 c 0.2429,-0.53852 0.74322,-1.44098 1.49504,-2.55219 0.72306,-1.06869 1.54881,-2.11462 2.48175,-3.14878 0.97059,-1.07592 1.92909,-2.02449 2.8605,-2.85048 l 0.0102,-0.022 0.0101,-0.0112 c 0.85822,-0.77296 1.52695,-1.15613 1.84387,-1.28161 l 3.15951,-1.24846 c -0.0758,0.27822 -0.0876,0.83605 -0.16944,1.07168 l -2.46183,7.08201 6.84727,0.13258 c 3.88072,0.0742 7.21938,0.55708 10.00676,1.38105 h 0.0199 l 0.0101,0.0112 c 2.91113,0.84184 5.50597,2.05087 7.83398,3.61281 l 3.52828,2.36435 5.83063,-7.77805 c 1.44321,2.0737 3.09185,3.88322 4.98344,5.28113 l 4.515,3.3366 2.42197,-5.38055 c 0.2429,-0.53852 0.75317,-1.44098 1.50499,-2.55218 0.72307,-1.06869 1.54884,-2.11463 2.48176,-3.14879 0.9706,-1.07592 1.91911,-2.02449 2.85052,-2.85048 l 0.0199,-0.022 0.0101,-0.0112 c 0.85821,-0.77296 1.52693,-1.15613 1.84386,-1.28161 l 3.17944,-1.25951 v -9.29168 l -3.71765,-0.95016 c -0.22538,-0.0576 -0.24133,-0.0885 -0.36877,-0.14363 -0.002,-0.007 -0.008,-0.0295 -0.0101,-0.0332 -0.002,-0.004 -0.007,-0.0139 -0.0101,-0.022 -0.22766,-0.86676 -0.48296,-2.38205 -0.67775,-4.35305 -0.12874,-2.11619 -0.19934,-5.04095 -0.19934,-8.76136 0,-5.7129 0.14604,-10.01141 0.39868,-12.70563 0.29391,-2.41498 0.86783,-4.00754 1.4452,-4.92757 l 5.24258,-8.34153 h -9.16954 c -3.11729,0 -5.51196,-0.58411 -7.31569,-1.51363 -1.89569,-1.0955 -3.89449,-2.80619 -5.95023,-5.29217 l -2.6213,-3.17089 -3.33891,2.17654 c -1.4765,0.95945 -4.03221,2.06208 -7.51504,3.02726 -3.25138,0.90104 -7.35661,1.40314 -12.26924,1.40314 h -0.98672 c -0.62476,-0.13628 -1.07574,-0.1105 -1.505,-0.1105 h -6.03993 l 1.37542,6.51852 c 0.55808,2.65124 1.20103,4.93194 2.06316,6.94945 l 0.0399,0.0995 0.0498,0.0995 c 0.91283,1.92258 1.99748,3.6354 3.38873,5.0491 l 0.0798,0.0773 0.0897,0.0884 c 1.32962,1.22824 2.88689,2.17542 4.56483,2.70685 l 0.18937,0.0553 0.18937,0.0442 c 1.425,0.31593 2.8954,0.46403 4.40537,0.46403 2.39938,0 4.93914,-0.5048 7.86388,-1.38105 0.57079,-0.17098 1.09181,-0.46364 1.65451,-0.65184 v 0.81758 c -0.26378,0.0999 -0.37476,0.18746 -0.66779,0.28725 -1.41896,0.42631 -3.03083,0.83209 -4.84391,1.20427 -1.78677,0.36679 -3.69963,0.6579 -5.72099,0.88388 -1.9598,0.14775 -3.8795,0.22095 -5.76087,0.22095 -1.69383,0 -3.21607,-0.107 -4.55486,-0.30935 l -8.24262,-1.24846 2.47178,6.67322 h -4.12629 c -0.005,-0.66829 -0.0101,-1.35914 -0.0101,-2.0771 v -44.083 c 0,-3.90256 0.23785,-7.26799 0.67775,-10.07612 0.46435,-2.52442 1.20399,-4.19571 2.00335,-5.25903 l -5.74093,-8.1979 c -2.84866,1.5037 -5.47682,2.63834 -7.86388,3.42501 h -0.0199 l -0.0199,0.0112 c -2.20914,0.74825 -4.21855,1.09378 -6.06984,1.09378 -1.53621,0 -2.7083,-0.23815 -3.51832,-0.55243 l -11.53169,-4.47459 5.721,11.97644 c 0.56528,1.18362 1.01273,2.30498 1.36546,3.34766 0.3297,0.97456 0.58113,1.97096 0.74752,3.0162 l 0.0199,0.15469 0.0299,0.14362 c 0.21337,1.0052 0.36887,2.16765 0.42858,3.49128 0.0673,1.49126 0.0997,3.20644 0.0997,5.13749 v 11.13678 c -0.0886,-0.0245 -0.20131,-0.03 -0.28903,-0.0553 -1.68403,-0.48398 -3.56665,-1.20571 -5.6313,-2.16548 l -2.43191,-1.12693 -2.16282,1.66831 c -3.13333,2.41623 -6.2806,4.47322 -9.43865,6.18709 -2.96732,1.56987 -5.82849,2.60232 -8.60143,3.14878 l -1.79404,0.96121 -2.31253,3.68997 0.49835,2.55219 c 0.0655,0.33559 0.3194,1.07444 0.49834,2.13232 v 0.0332 l 0.0102,0.0331 c 0.15645,0.86718 0.32311,2.31173 0.45848,4.18733 l 0.0101,0.1105 0.0199,0.12153 c 0.18928,1.6785 0.32946,3.88809 0.39868,6.57378 v 0.0113 c 0.0301,1.1338 0.0526,2.37571 0.0697,3.72331 h -6.38877 c 0.0138,-5.31741 0.16761,-9.34431 0.40864,-11.91015 0.29441,-2.40765 0.86885,-3.99815 1.44519,-4.91652 z m 26.74095,13.81028 c 0.85245,0.28525 1.62339,0.60457 2.55152,0.86178 0.25943,0.072 0.45651,0.0676 0.70765,0.13259 v 20.56101 c -0.0847,0.0432 -0.11107,0.0665 -0.19934,0.1105 -1.11878,0.47803 -2.34614,0.93088 -3.69771,1.35896 -0.92133,0.29179 -1.92162,0.55486 -2.91033,0.81757 0.007,-0.22331 0.0135,-0.41467 0.0199,-0.64081 0.14707,-2.64026 0.22923,-5.2808 0.22923,-7.92168 0,-2.73036 -0.0386,-5.57428 -0.10963,-8.52934 -6e-5,-1.69209 -0.0846,-2.80141 -0.12957,-4.15419 0.54795,-0.35575 1.06489,-0.58387 1.63458,-0.99435 l 0.0199,-0.022 0.0199,-0.0112 c 0.73625,-0.5441 1.23583,-1.05041 1.86381,-1.56887 z m -33.59839,21.22393 h 6.14956 c -0.0345,1.651 -0.0911,3.29878 -0.16942,4.94967 -0.12151,2.48024 -0.53531,5.23282 -1.22594,8.20895 v -7.95483 l -3.71764,-0.95016 c -0.22539,-0.0576 -0.23136,-0.0885 -0.3588,-0.14363 -0.002,-0.007 -0.008,-0.0186 -0.0102,-0.022 l -0.0101,-0.0112 c -0.002,-0.004 0.002,-0.0143 0,-0.022 -0.21624,-0.82283 -0.46699,-2.22664 -0.65781,-4.05475 z m 60.84787,0 h 5.56152 c 3e-5,0.0222 0,0.0441 0,0.0663 0,3.11447 -0.0688,6.2321 -0.20931,9.34692 -0.10177,2.1894 -0.45046,3.63271 -0.79734,4.94967 v -8.84974 l -3.37878,-1.16009 c -0.27905,-0.0952 -0.34581,-0.15867 -0.48838,-0.24306 v -0.0113 c -0.005,-0.0429 -0.064,-0.22053 -0.19934,-0.56346 -0.17109,-0.74373 -0.35322,-1.94373 -0.48837,-3.53548 z m -255.96969,0.50823 v 3.36976 c -0.43437,-0.0427 -0.98736,-0.21272 -1.40533,-0.23202 -0.0658,-0.003 -0.12376,-0.008 -0.18938,-0.0112 l 0.0498,-2.79525 c 0.51407,-0.13084 0.92984,-0.16369 1.47509,-0.32039 z m 171.33085,0 v 3.36976 c -0.43423,-0.0427 -0.98748,-0.21273 -1.40533,-0.23202 -0.0658,-0.003 -0.12374,-0.008 -0.18937,-0.0112 l 0.0498,-2.79525 c 0.51407,-0.13084 0.91988,-0.16369 1.46512,-0.32039 z m 115.87508,0 v 3.36976 c -0.43487,-0.0428 -0.97693,-0.21269 -1.39537,-0.23202 -0.0658,-0.003 -0.12377,-0.008 -0.18937,-0.0112 l 0.0498,-2.79525 c 0.51424,-0.13087 0.91971,-0.16363 1.46514,-0.32039 z"
       sodipodi:nodetypes="ccsscscccccccccccsscccscsccccsccsccccccccscccccsccccccccccccccccccccccccscscccscccccccsccsccccccccccccccccccccccccccccccccccccccsccscccsscscccccccccccsscccscscccccccccsccccscscsscccccccccccccsccccccsscccccsccccccsccscccscccccccccccsccccccscccscccsscccccccccccccccccccccccsccsscccccccccccccsccsccsccccsccccccssccccccsccccssccccccccsccccscscccsccccccccccsccsscccccccsccccsccscssccssccccccccccccccsccsscccccccccccscccsccccsscscccccccccccsscccscsccccssccccccscccscccsscscccccccscccscccccccccccccccccsccsccccccccsccccccccccsccccccccccccccccccccccccccccccccc"
       inkscape:label="text" /><path
       style="display:inline;opacity:1;baseline-shift:baseline;overflow:visible;enable-background:accumulate;stop-color:#000000;stop-opacity:1;fill:none;stroke:#000000;stroke-opacity:1;stroke-width:0.95000006;stroke-dasharray:none"
       d="m 373.93359,79.882812 c -2.09884,-0.0119 -5.03045,0.01204 -8.55078,0.06641 -7.04065,0.10873 -16.42739,0.335142 -26.05859,0.615234 -9.63121,0.280092 -19.50361,0.614695 -27.50586,0.943359 -8.00226,0.328665 -13.98521,0.629025 -16.40234,0.917969 -2.61756,0.312909 -9.48182,0.316616 -15.94141,0.05469 -3.22979,-0.130964 -6.4003,-0.322135 -8.99609,-0.546875 -2.5958,-0.224741 -4.73339,-0.53384 -5.36719,-0.707032 -0.9095,-0.248528 -2.32237,-0.220375 -3.5,0.314454 -1.17763,0.534828 -2.2954,1.38133 -3.86914,2.753906 -3.14749,2.745151 -8.08493,7.71017 -17.04883,16.830083 -10.81102,10.99921 -32.70022,33.76094 -48.68555,50.62499 -15.96816,16.84593 -34.75712,36.46787 -41.69336,43.54102 -5.62363,5.73465 -8.86425,9.12895 -10.97851,11.82617 -2.11426,2.69722 -3.09022,4.8361 -3.81446,7.29297 -1.97638,6.7047 -1.89735,9.01448 0.45508,15.1914 3.01424,7.91472 9.15351,14.2669 16.16992,15.9336 1.51585,0.36013 1.89407,0.54184 2.22071,0.65429 -0.4962,1.61354 -1.53959,5.45918 -2.67774,9.72853 -0.60769,2.27951 -1.19739,4.51411 -1.63867,6.2246 -0.22064,0.85526 -0.40254,1.57923 -0.53516,2.11915 -0.0663,0.26994 -0.1208,0.49292 -0.1621,0.67577 -0.0413,0.18286 -0.0681,0.0704 -0.10938,0.64844 -0.0284,0.39744 0.0516,1.13102 0.57422,1.73633 0.52263,0.6053 1.24944,0.79567 1.6543,0.82227 0.80971,0.0532 0.96696,-0.12505 1.13671,-0.19727 0.33952,-0.14445 0.43937,-0.22972 0.58204,-0.32422 0.28533,-0.18901 0.56272,-0.39948 0.90625,-0.66993 0.68705,-0.54089 1.58504,-1.29408 2.57812,-2.166 3.63466,-3.19131 7.825,-4.99496 10.53125,-5.09571 -0.0512,0.42705 -0.0903,0.78889 -0.19141,1.46289 -0.75926,5.06313 0.83627,10.30127 4.40821,15.63867 0.40201,0.60071 0.50358,1.07935 1.5332,1.80859 0.25741,0.18232 0.62578,0.39971 1.17383,0.48633 0.54805,0.0866 1.25595,-0.0491 1.73633,-0.33398 0.96076,-0.56987 1.12133,-1.19201 1.28711,-1.63868 0.6631,-1.78665 0.7452,-3.85872 1.26757,-8.5625 0.56605,-5.09705 1.49305,-9.91693 2.45899,-13.3457 0.48297,-1.71438 0.98798,-3.0918 1.38281,-3.88281 0.0437,-0.0875 0.0454,-0.0727 0.0859,-0.14453 0.37716,0.0661 0.80312,0.14411 1.33984,0.25195 1.26738,0.25465 2.88855,0.60929 4.5293,0.99609 3.4357,0.80995 8.13643,1.68622 10.80273,1.99805 2.26085,0.26442 6.67838,1.09943 9.43946,1.79492 3.00524,0.757 7.28328,1.62196 9.82617,1.97657 2.22042,0.30966 6.99305,1.20358 10.34766,1.94726 3.48276,0.77215 7.46553,1.53496 9.33984,1.75 1.2635,0.14497 6.37186,1.04773 10.81055,1.94727 12.9508,2.62468 25.86173,5.16845 32.11718,6.32617 3.15237,0.58343 10.15716,1.89616 15.55274,2.91406 10.22264,1.92853 17.80524,3.33044 22.87109,4.22852 2.53293,0.44903 4.4334,0.77082 5.74024,0.97265 0.65341,0.10092 1.15324,0.17314 1.54687,0.2168 0.19682,0.0218 0.35919,0.0364 0.5625,0.043 0.10166,0.003 0.2065,0.01 0.4082,-0.01 0.20171,-0.0194 0.48755,0.35378 1.53125,-0.73242 0.68656,-0.71449 0.45942,-0.65379 0.52735,-0.80078 0.0679,-0.14699 0.128,-0.29097 0.19726,-0.46289 0.13853,-0.34384 0.30894,-0.79361 0.52344,-1.37695 0.429,-1.16668 1.02885,-2.85701 1.81055,-5.09961 1.5634,-4.48521 3.85094,-11.17186 6.89648,-20.16016 2.85173,-8.41631 9.33958,-27.37821 14.41211,-42.12109 5.07398,-14.74708 10.07803,-29.31863 11.13281,-32.41993 1.01026,-2.97031 2.95482,-7.94273 4.22852,-10.8125 1.39132,-3.13471 3.68889,-9.19924 5.22461,-13.7539 5.26187,-15.6056 7.01296,-19.48301 8.13086,-20.69141 1.33048,-1.43817 2.53991,-3.45116 3.24805,-5.32031 0.24936,-0.6581 0.4734,-1.17204 0.61718,-1.90625 0.0719,-0.36711 0.13606,-0.8212 0.01,-1.41602 -0.12629,-0.59481 -0.54337,-1.28813 -1.03906,-1.68164 -0.9914,-0.787 -1.74334,-0.74694 -2.48438,-0.79882 -0.74104,-0.0519 -1.56453,-0.0469 -2.64258,-0.0469 -1.93486,0 -2.53921,-0.38135 -2.55273,-0.30664 0.0526,-0.20553 0.0937,-0.42738 0.35937,-0.92383 0.4937,-0.92246 1.05059,-1.72245 0.81641,-3.20898 -0.11709,-0.74327 -0.59935,-1.50398 -1.0918,-1.92383 -0.49244,-0.41985 -0.94635,-0.61361 -1.37304,-0.77734 0.30889,0.11853 0.1,0.0344 0.0762,-0.23438 -0.008,-0.0936 -0.004,-0.0967 -0.004,-0.10742 0.38461,-0.21482 0.79236,-0.36844 1.08594,-0.80859 0.44554,-0.66798 0.54579,-1.46303 0.49219,-2.04493 -0.10391,-1.12802 -0.53503,-1.83187 -1.05469,-2.70703 0.25038,-0.12399 0.56516,-0.23174 0.79492,-0.36914 0.68907,-0.41207 1.40147,-0.88692 1.86719,-1.91992 0.46572,-1.033 0.17751,-2.45432 -0.32813,-3.20117 -0.50563,-0.746854 -1.08186,-1.18743 -1.73632,-1.648435 -1.07472,-0.757027 -1.05408,-1.078001 -1.04493,-0.878906 0.009,0.199094 -0.005,-0.197006 1.00977,-1.115235 1.38597,-1.254294 2.4346,-2.640445 2.05469,-4.693359 -0.17365,-0.938311 -1.0073,-1.889308 -1.95313,-2.306641 0.21957,-0.460398 0.35579,-0.763107 0.64453,-1.357422 0.62655,-1.289638 1.11717,-2.525734 1.4336,-3.599609 0.15821,-0.536937 0.27699,-1.02218 0.33203,-1.558594 0.0275,-0.268207 0.0476,-0.547095 -0.004,-0.929687 -0.0515,-0.382593 -0.13989,-0.960217 -0.75976,-1.580078 -0.88663,-0.886611 -1.06346,-0.629928 -1.25196,-0.671875 -0.18849,-0.04195 -0.31089,-0.05591 -0.43945,-0.07031 -0.25712,-0.02881 -0.51456,-0.0447 -0.83008,-0.05859 -0.63103,-0.02779 -1.46816,-0.04092 -2.51758,-0.04687 z m -65.06246,25.605468 c 13.94116,0 21.87361,0.0489 26.49219,0.26953 4.61859,0.22066 5.57681,0.56104 6.26953,0.99414 0.59662,0.37302 0.73207,0.45712 1.20703,0.75391 -0.43562,0.89271 -1.01703,2.03255 -1.86914,3.62109 -1.91098,3.56256 -4.80518,8.74431 -8.51172,15.22461 -1.51512,2.64895 -2.96027,5.24347 -4.07421,7.30469 -0.55698,1.03061 -1.03067,1.92743 -1.39454,2.64062 -0.36386,0.7132 -0.5846,1.12292 -0.78515,1.67969 -0.0211,0.0587 0.32084,-0.22192 0.0566,-0.1289 -0.26421,0.093 -1.14729,0.23437 -2.58203,0.23437 -1.36201,0 -2.75221,0.17989 -4.02149,0.47656 -1.26927,0.29668 -2.35891,0.60324 -3.42578,1.41016 -0.46408,0.35102 -1.27904,0.70182 -4.50976,0.76562 -3.23072,0.0638 -8.55821,-0.19956 -17.30469,-0.77734 -6.13412,-0.40522 -19.22955,-0.97129 -29.23242,-1.26562 -7.45734,-0.21944 -12.02075,-0.42306 -14.64844,-0.70118 -1.31385,-0.13905 -2.14514,-0.30993 -2.49219,-0.42382 -0.34704,-0.11389 -0.0275,-0.0452 0.1836,0.33203 -0.60762,-1.08576 -1.44717,-1.72659 -2.40235,-2.14649 0.30015,-0.35111 0.51329,-0.61778 0.84375,-0.99414 1.8372,-2.0924 7.5318,-8.69373 12.70508,-14.72656 7.28188,-8.49177 9.9749,-10.66503 11.48242,-11.05078 2.12201,-0.54299 4.40803,-1.43591 6.01367,-2.56055 -0.32687,0.22895 1.54967,-0.46977 6.40821,-0.66797 4.85854,-0.19819 12.7967,-0.26367 25.59179,-0.26367 z m 59.58008,9.01563 c 0.35804,1.94157 0.75039,3.80114 1.20508,5.23828 0.032,0.10108 0.0712,0.16952 0.10352,0.26758 -0.0251,0.007 -0.0704,-0.006 -0.0937,0.002 -1.24649,0.41686 -1.35416,0.90392 -1.67579,1.33398 -1.28651,1.72027 -2.62444,4.68383 -4.5,9.37305 -2.05104,5.12796 -4.28986,10.65775 -4.92578,12.16992 -0.70031,1.66528 -2.38879,5.94169 -3.8125,9.64453 -1.40851,3.6632 -3.15436,8.01689 -3.79101,9.47657 -0.74162,1.70026 -2.44271,5.96398 -3.86914,9.67382 -1.4085,3.66324 -3.15436,8.01889 -3.79102,9.47852 -0.61667,1.4138 -1.9988,4.88115 -3.24414,8.04687 0.74779,-1.88909 2.38114,-6.18427 3.66016,-9.62109 1.26895,-3.40983 3.63072,-9.66081 5.23828,-13.86523 1.61206,-4.21617 4.48475,-11.75646 6.38672,-16.76172 1.90092,-5.00251 4.68785,-12.32654 6.1914,-16.27539 1.50412,-3.95031 4.36807,-11.47701 6.36524,-16.72657 z m -207.42969,97.71484 c 0.82943,0.0224 1.64543,0.13704 2.48047,0.20117 -0.48835,0.10482 -0.96716,0.19116 -1.49609,0.56055 -0.67197,0.46928 -1.30274,1.55096 -1.30274,2.45508 0,0.82458 0.41341,1.65374 0.87891,2.14453 0.4655,0.49078 0.94862,0.76231 1.44336,0.98828 0.98948,0.45193 2.10942,0.71861 3.60547,0.98437 0.63775,0.1133 2.20728,0.19414 2.98437,0.29883 -0.21198,0.0476 -0.40788,0.0496 -0.64257,0.17969 -0.8178,0.45319 -1.17891,1.34829 -1.24805,1.82031 -0.0691,0.47203 -0.0167,0.73078 0.0234,0.94922 0.4163,1.10695 0.0669,0.50769 0.14062,1.06637 -0.12882,0.37224 -0.40594,0.88805 -0.71484,1.26953 -0.40516,0.50035 -0.67908,0.79455 -0.78125,0.88086 -0.0487,0.002 -1.09585,-0.0938 -3.27539,-0.64258 -1.70883,-0.43028 -2.98704,-0.68913 -4.1543,-0.72461 -0.58363,-0.0177 -1.15517,-1.3e-4 -1.84375,0.25391 -0.51334,0.18938 -1.05582,0.68334 -1.45898,1.27148 -0.0108,0.003 -0.10314,0.0308 -0.12696,0.0312 -0.54041,0.0103 -1.02992,0.008 -1.76562,0.36328 -0.36785,0.1777 -0.84444,0.49754 -1.1836,1.08789 -0.33915,0.59036 -0.39815,1.37819 -0.27343,1.9043 0.24942,1.05222 0.72389,1.36641 1.08593,1.67969 0.36205,0.31327 0.72705,0.54754 1.12891,0.77734 1.58662,0.90731 3.81339,1.70857 6.21094,2.10352 -0.42393,0.4967 -0.85611,0.97168 -0.98828,1.04101 -0.17682,0.0928 -0.19769,0.13086 -0.80078,0.0215 -5.97736,-1.08389 -9.37062,-4.40018 -12.22071,-12.55664 l -1.21875,-3.49219 c 1.71816,-0.35114 3.09275,-1.21995 4.34766,-2.31055 0.77113,-0.67017 1.46879,-1.4025 2.03711,-2.20898 0.35745,-0.50726 0.64837,-1.08284 0.85742,-1.73633 0.0328,-0.011 0.0125,-0.007 0.0488,-0.0176 0.66596,-0.19822 1.88488,-0.4091 3.33203,-0.5293 1.44715,-0.12019 3.14102,-0.16245 4.89062,-0.11523 z m 10.32422,7.80469 c 2.68687,0.31382 4.94189,0.63343 9.28711,0.92773 3.56293,0.24133 11.5667,1.07329 17.57813,1.83203 6.10177,0.77014 14.26216,1.62476 18.32031,1.91407 3.83707,0.27355 12.05122,1.14183 18.06055,1.91406 6.10604,0.78465 14.70665,1.69639 19.27539,2.04101 4.38645,0.33089 11.7248,1.14248 16.11328,1.78125 4.53847,0.66061 9.24962,1.21334 11.33984,1.22657 0.29743,0.002 0.53422,0.001 0.86914,-0.0449 0.16747,-0.0231 0.34897,-0.0352 0.72461,-0.19336 0.18782,-0.0791 0.44196,-0.19123 0.76563,-0.50585 0.32367,-0.31463 0.71076,-0.96055 0.73047,-1.65821 0.0104,-0.3702 -0.12562,-0.52848 -0.20508,-0.77734 5.08328,0.72262 5.1226,0.61319 11.93554,1.61914 7.3084,1.07913 14.61165,2.05081 16.95118,2.20117 1.66422,0.10695 2.79279,0.16809 3.62109,0.24414 -0.15703,0.50181 -0.27838,0.89533 -0.55078,1.74805 -0.77793,2.43521 -1.99506,5.85061 -2.60742,7.34375 -0.56687,1.38223 -1.0022,2.61198 -0.86524,4.04883 0.13697,1.43685 0.79938,2.5619 1.61719,3.80859 0.77665,1.18393 0.87574,1.64097 0.86523,1.44141 -0.0105,-0.19957 0.0398,-0.0648 -0.60546,0.91992 -0.69173,1.05571 -1.26097,2.13653 -1.36329,3.43555 -0.10231,1.29901 0.29393,2.45716 0.81446,3.5996 0.37087,0.81397 0.38431,2.76652 0.45898,2.53125 -0.4059,1.27894 -0.31152,2.44823 -0.0234,3.5918 -0.69138,-0.09 -1.26503,-0.14759 -2.41992,-0.36328 -1.73474,-0.32399 -3.79459,-0.75984 -5.72656,-1.22266 -4.03284,-0.96611 -9.12423,-1.97366 -11.72656,-2.29296 -2.14209,-0.26284 -6.48737,-1.1161 -9.27149,-1.83399 -3.01732,-0.77804 -6.83736,-1.56746 -8.96289,-1.81641 -1.58652,-0.18582 -6.86613,-1.10536 -11.30078,-1.99414 -4.48766,-0.89944 -12.6738,-2.50529 -18.21094,-3.57421 -5.52785,-1.06715 -14.14575,-2.73857 -19.14648,-3.7129 -11.71985,-2.28342 -28.70425,-5.53535 -35.44922,-6.78515 -3.84733,-0.71288 -5.35706,-1.15902 -5.80273,-1.26172 0.0521,-0.16507 0.0303,-0.10604 0.10156,-0.31055 0.18987,-0.54465 0.28835,-0.75993 0.35742,-0.91211 0.0811,0.0106 1.33772,-0.072 4.09961,0.13477 2.26784,0.16978 3.39374,0.30122 4.61523,0.13086 1.34542,-1.14936 1.38179,0.3112 2.4629,0.55469 0.50498,0.26355 0.65235,0.26496 0.96875,0.35546 0.31639,0.0905 0.69791,0.18952 1.17187,0.30665 0.94792,0.23424 2.26095,0.5396 3.98828,0.93554 5.62282,1.95499 10.52132,2.42925 15.21289,0.40038 0.0102,-0.0198 -0.002,-0.0498 0.008,-0.0703 0.31312,0.0593 0.82451,0.11126 1.13868,0.17188 4.91669,0.94892 8.83916,1.43731 11.00976,1.43554 0.54265,-4.4e-4 0.77472,0.16748 1.81446,-0.28515 0.25993,-0.11316 0.65262,-0.28019 1.05859,-0.85157 0.40597,-0.57138 0.52535,-1.66104 0.28906,-2.28125 -0.47257,-1.2404 -0.97026,-1.2306 -1.25781,-1.38867 -1.1502,-0.63227 -2.14707,-0.80558 -4.28516,-1.28515 -3.26486,-0.73231 -7.97699,-1.56829 -10.76953,-1.90235 -2.46024,-0.29431 -7.30131,-1.16567 -10.4414,-1.88867 -3.39539,-0.78179 -8.48532,-1.62961 -11.67579,-1.93945 -1.90013,-0.18453 -3.35752,-0.36545 -4.35351,-0.55664 -0.19751,-0.0379 -0.11836,-0.0348 -0.27735,-0.0762 0.0315,-0.0418 0.0108,-0.023 0.0449,-0.0664 0.58163,-0.73943 1.03661,-1.33167 1.40234,-1.86719 0.36573,-0.53551 0.68575,-0.93877 0.88477,-1.81055 0.0995,-0.43588 0.14693,-1.09845 -0.1543,-1.77734 -0.30123,-0.67889 -0.9049,-1.15259 -1.34961,-1.36133 -0.88942,-0.41747 -1.35525,-0.33786 -1.85547,-0.3457 -1.73897,-0.0272 -6.49689,-0.64259 -10.67969,-1.36133 -2.09139,-0.35937 -4.08355,-0.74376 -5.57226,-1.08008 -0.74436,-0.16816 -1.36686,-0.32476 -1.77735,-0.44726 -0.41048,-0.1225 -0.82768,-0.5223 -0.12304,0.0625 -0.27934,-0.23184 -0.51584,-0.4247 -0.86719,-0.63282 -0.0658,-0.039 -0.19917,-0.0816 -0.2793,-0.12304 z"
       id="path4"
       sodipodi:nodetypes="csssssssssssssssscsssssssssssccssscsssscssssssscsssssccssssssssssssscssscssscccsscssssccscssscssssccssscssssssssssssssccssscssscsccssssssscssssccccsssssccsssscsssccssssscssccssccscccssssssccssscsscssssssssccssssssssscccsssssssccssssssssssccsssssssscscc"
       inkscape:label="znak" /></g></svg>
