<?xml version="1.0" encoding="UTF-8" standalone="no"?>
<svg
   version="1.2"
   viewBox="0 0 113.38583 113.38583"
   width="30mm"
   height="30mm"
   id="svg1"
   sodipodi:docname="Knihovnik2ReminderTokenLaser.svg"
   inkscape:version="1.4.2 (2aeb623e1d, 2025-05-12)"
   xml:space="preserve"
   xmlns:inkscape="http://www.inkscape.org/namespaces/inkscape"
   xmlns:sodipodi="http://sodipodi.sourceforge.net/DTD/sodipodi-0.dtd"
   xmlns="http://www.w3.org/2000/svg"
   xmlns:svg="http://www.w3.org/2000/svg"><sodipodi:namedview
     id="namedview1"
     pagecolor="#ffffff"
     bordercolor="#666666"
     borderopacity="1.0"
     inkscape:showpageshadow="2"
     inkscape:pageopacity="0.0"
     inkscape:pagecheckerboard="0"
     inkscape:deskcolor="#d1d1d1"
     inkscape:zoom="5.4836389"
     inkscape:cx="54.890558"
     inkscape:cy="59.176033"
     inkscape:window-width="1920"
     inkscape:window-height="940"
     inkscape:window-x="0"
     inkscape:window-y="0"
     inkscape:window-maximized="1"
     inkscape:current-layer="layer2"
     showgrid="false"
     inkscape:document-units="mm" /><defs
     id="defs1"><clipPath
       clipPathUnits="userSpaceOnUse"
       id="cp1"><path
         d="m 275.5,535.5 c -143.78,0 -260,-116.22 -260,-260 0,-143.78 116.22,-260 260,-260 143.78,0 260,116.22 260,260 0,143.78 -116.22,260 -260,260 z"
         id="path1" /></clipPath></defs><style
     id="style1">
		tspan { white-space:pre } 
		.s0 { fill: none;stroke: #ff0000;stroke-miterlimit:100 } 
	</style><g
     inkscape:groupmode="layer"
     id="layer1"
     inkscape:label="Template"
     transform="scale(0.1989225)" /><g
     inkscape:groupmode="layer"
     id="layer2"
     inkscape:label="Content"
     style="display:inline"
     transform="scale(0.1989225)"><g
       inkscape:groupmode="layer"
       id="layer3"
       inkscape:label="Kruh"
       transform="scale(5.0270836)"><path
         id="path2"
         style="fill:none;stroke:#000000;stroke-width:0.949978"
         inkscape:label="vnejsi kruh"
         transform="scale(0.19892249)"
         d="M 569.5184,284.99338 A 284.52502,284.52502 0 0 1 284.99338,569.5184 284.52502,284.52502 0 0 1 0.46835327,284.99338 284.52502,284.52502 0 0 1 284.99338,0.46835327 284.52502,284.52502 0 0 1 569.5184,284.99338 Z" /><path
         id="path2-9"
         style="fill:none;stroke:#000000;stroke-width:0.815568"
         inkscape:label="vnitrni kruh"
         transform="scale(0.19892249)"
         d="M 529.26178,284.99338 A 244.2684,244.2684 0 0 1 284.99338,529.26178 244.2684,244.2684 0 0 1 40.724976,284.99338 244.2684,244.2684 0 0 1 284.99338,40.724976 244.2684,244.2684 0 0 1 529.26178,284.99338 Z" /></g><path
       style="baseline-shift:baseline;display:inline;overflow:visible;fill:none;stroke:#000000;stroke-width:0.95;stroke-dasharray:none;stroke-opacity:1;enable-background:accumulate;stop-color:#000000;stop-opacity:1"
       d="m 350.00985,75.236685 c -2.09884,-0.0119 -5.03045,0.01204 -8.55078,0.06641 -7.04065,0.10873 -16.42739,0.335142 -26.05859,0.615234 -9.63121,0.280092 -19.50361,0.614695 -27.50586,0.943359 -8.00226,0.328665 -13.98521,0.629025 -16.40234,0.917969 -2.61756,0.312909 -9.48182,0.316616 -15.94141,0.05469 -3.22979,-0.130964 -6.4003,-0.322135 -8.99609,-0.546875 -2.5958,-0.224741 -4.73339,-0.53384 -5.36719,-0.707032 -0.9095,-0.248528 -2.32237,-0.220375 -3.5,0.314454 -1.17763,0.534828 -2.2954,1.38133 -3.86914,2.753905 -3.14749,2.745152 -8.08493,7.710171 -17.04883,16.830082 -10.81102,10.999209 -32.70022,33.760949 -48.68555,50.624999 -15.96816,16.84594 -34.75712,36.46789 -41.69336,43.54104 -5.62363,5.73465 -8.86425,9.12895 -10.97851,11.82617 -2.11426,2.69722 -3.09022,4.8361 -3.81446,7.29297 -1.97638,6.7047 -1.89735,9.01448 0.45508,15.1914 3.01424,7.91472 9.15351,14.2669 16.16992,15.9336 1.51585,0.36013 1.89407,0.54184 2.22071,0.65429 -0.4962,1.61354 -1.53959,5.45918 -2.67774,9.72853 -0.60769,2.27951 -1.19739,4.51411 -1.63867,6.2246 -0.22064,0.85526 -0.40254,1.57923 -0.53516,2.11915 -0.0663,0.26994 -0.1208,0.49292 -0.1621,0.67577 -0.0413,0.18286 -0.0681,0.0704 -0.10938,0.64844 -0.0284,0.39744 0.0516,1.13102 0.57422,1.73633 0.52263,0.6053 1.24944,0.79567 1.6543,0.82227 0.80971,0.0532 0.96696,-0.12505 1.13671,-0.19727 0.33952,-0.14445 0.43937,-0.22972 0.58204,-0.32422 0.28533,-0.18901 0.56272,-0.39948 0.90625,-0.66993 0.68705,-0.54089 1.58504,-1.29408 2.57812,-2.166 3.63466,-3.19131 7.825,-4.99496 10.53125,-5.09571 -0.0512,0.42705 -0.0903,0.78889 -0.19141,1.46289 -0.75926,5.06313 0.83627,10.30127 4.40821,15.63867 0.40201,0.60071 0.50358,1.07935 1.5332,1.80859 0.25741,0.18232 0.62578,0.39971 1.17383,0.48633 0.54805,0.0866 1.25595,-0.0491 1.73633,-0.33398 0.96076,-0.56987 1.12133,-1.19201 1.28711,-1.63868 0.6631,-1.78665 0.7452,-3.85872 1.26757,-8.5625 0.56605,-5.09705 1.49305,-9.91693 2.45899,-13.3457 0.48297,-1.71438 0.98798,-3.0918 1.38281,-3.88281 0.0437,-0.0875 0.0454,-0.0727 0.0859,-0.14453 0.37716,0.0661 0.80312,0.14411 1.33984,0.25195 1.26738,0.25465 2.88855,0.60929 4.5293,0.99609 3.4357,0.80995 8.13643,1.68622 10.80273,1.99805 2.26085,0.26442 6.67838,1.09943 9.43946,1.79492 3.00524,0.757 7.28328,1.62196 9.82617,1.97657 2.22042,0.30966 6.99305,1.20358 10.34766,1.94726 3.48276,0.77215 7.46553,1.53496 9.33984,1.75 1.2635,0.14497 6.37186,1.04773 10.81055,1.94727 12.9508,2.62468 25.86173,5.16845 32.11718,6.32617 3.15237,0.58343 10.15716,1.89616 15.55274,2.91406 10.22264,1.92853 17.80524,3.33044 22.87109,4.22852 2.53293,0.44903 4.4334,0.77082 5.74024,0.97265 0.65341,0.10092 1.15324,0.17314 1.54687,0.2168 0.19682,0.0218 0.35919,0.0364 0.5625,0.043 0.10166,0.003 0.2065,0.01 0.4082,-0.01 0.20171,-0.0194 0.48755,0.35378 1.53125,-0.73242 0.68656,-0.71449 0.45942,-0.65379 0.52735,-0.80078 0.0679,-0.14699 0.128,-0.29097 0.19726,-0.46289 0.13853,-0.34384 0.30894,-0.79361 0.52344,-1.37695 0.429,-1.16668 1.02885,-2.85701 1.81055,-5.09961 1.5634,-4.48521 3.85094,-11.17186 6.89648,-20.16016 2.85173,-8.41631 9.33958,-27.37821 14.41211,-42.12109 5.07398,-14.74708 10.07803,-29.31864 11.13281,-32.41994 1.01026,-2.97031 2.95482,-7.94273 4.22852,-10.8125 1.39132,-3.13471 3.68889,-9.19924 5.22461,-13.75391 5.26187,-15.6056 7.01296,-19.48301 8.13086,-20.69141 1.33048,-1.43817 2.53991,-3.45116 3.24805,-5.32031 0.24936,-0.65811 0.4734,-1.17205 0.61718,-1.90626 0.0719,-0.36711 0.13606,-0.8212 0.01,-1.41602 -0.12629,-0.59481 -0.54337,-1.28813 -1.03906,-1.68164 -0.9914,-0.787 -1.74334,-0.74694 -2.48438,-0.79882 -0.74104,-0.0519 -1.56453,-0.0469 -2.64258,-0.0469 -1.93486,0 -2.53921,-0.38135 -2.55273,-0.30664 0.0526,-0.20553 0.0937,-0.42738 0.35937,-0.92383 0.4937,-0.92246 1.05059,-1.72245 0.81641,-3.20898 -0.11709,-0.74327 -0.59935,-1.50398 -1.0918,-1.92383 -0.49244,-0.41985 -0.94635,-0.61361 -1.37304,-0.77734 0.30889,0.11853 0.1,0.0344 0.0762,-0.23438 -0.008,-0.0936 -0.004,-0.0967 -0.004,-0.10742 0.38461,-0.21482 0.79236,-0.36844 1.08594,-0.80859 0.44554,-0.66798 0.54579,-1.46303 0.49219,-2.04493 -0.10391,-1.12802 -0.53503,-1.83187 -1.05469,-2.70703 0.25038,-0.12399 0.56516,-0.23174 0.79492,-0.36914 0.68907,-0.41207 1.40147,-0.886919 1.86719,-1.919919 0.46572,-1.033 0.17751,-2.45432 -0.32813,-3.20117 -0.50563,-0.74685 -1.08186,-1.18743 -1.73632,-1.64843 -1.07472,-0.75703 -1.05408,-1.07801 -1.04493,-0.87891 0.009,0.19909 -0.005,-0.19701 1.00977,-1.11524 1.38597,-1.25429 2.4346,-2.640439 2.05469,-4.693353 -0.17365,-0.938311 -1.0073,-1.889308 -1.95313,-2.306641 0.21957,-0.460398 0.35579,-0.763107 0.64453,-1.357422 0.62655,-1.289638 1.11717,-2.525734 1.4336,-3.59961 0.15821,-0.536937 0.27699,-1.022179 0.33203,-1.558593 0.0275,-0.268207 0.0476,-0.547095 -0.004,-0.929687 -0.0515,-0.382593 -0.13989,-0.960217 -0.75976,-1.580078 -0.88663,-0.886611 -1.06346,-0.629928 -1.25196,-0.671875 -0.18849,-0.04195 -0.31089,-0.05591 -0.43945,-0.07031 -0.25712,-0.02881 -0.51456,-0.0447 -0.83008,-0.05859 -0.63103,-0.02779 -1.46816,-0.04092 -2.51758,-0.04687 z m -65.06246,25.605465 c 13.94116,0 21.87361,0.0489 26.49219,0.26953 4.61859,0.22066 5.57681,0.56104 6.26953,0.99414 0.59662,0.37302 0.73207,0.45712 1.20703,0.75391 -0.43562,0.89271 -1.01703,2.03255 -1.86914,3.62109 -1.91098,3.56256 -4.80518,8.74431 -8.51172,15.22462 -1.51512,2.64895 -2.96027,5.24347 -4.07421,7.30469 -0.55698,1.03061 -1.03067,1.92743 -1.39454,2.64062 -0.36386,0.7132 -0.5846,1.12292 -0.78515,1.67969 -0.0211,0.0587 0.32084,-0.22192 0.0566,-0.1289 -0.26421,0.093 -1.14729,0.23437 -2.58203,0.23437 -1.36201,0 -2.75221,0.17989 -4.02149,0.47656 -1.26927,0.29668 -2.35891,0.60324 -3.42578,1.41016 -0.46408,0.35102 -1.27904,0.70182 -4.50976,0.76562 -3.23072,0.0638 -8.55821,-0.19956 -17.30469,-0.77734 -6.13412,-0.40522 -19.22955,-0.97129 -29.23242,-1.26562 -7.45734,-0.21944 -12.02075,-0.42306 -14.64844,-0.70118 -1.31385,-0.13905 -2.14514,-0.30993 -2.49219,-0.42382 -0.34704,-0.11389 -0.0275,-0.0452 0.1836,0.33203 -0.60762,-1.08576 -1.44717,-1.72659 -2.40235,-2.14649 0.30015,-0.35111 0.51329,-0.61778 0.84375,-0.99414 1.8372,-2.0924 7.5318,-8.69373 12.70508,-14.72657 7.28188,-8.49177 9.9749,-10.66503 11.48242,-11.05078 2.12201,-0.54299 4.40803,-1.43591 6.01367,-2.56055 -0.32687,0.22895 1.54967,-0.46977 6.40821,-0.66797 4.85854,-0.19819 12.7967,-0.26367 25.59179,-0.26367 z m 59.58008,9.01563 c 0.35804,1.94157 0.75039,3.80114 1.20508,5.23828 0.032,0.10108 0.0712,0.16952 0.10352,0.26758 -0.0251,0.007 -0.0704,-0.006 -0.0937,0.002 -1.24649,0.41686 -1.35416,0.90392 -1.67579,1.33398 -1.28651,1.72027 -2.62444,4.68384 -4.5,9.37306 -2.05104,5.12796 -4.28986,10.65775 -4.92578,12.16992 -0.70031,1.66528 -2.38879,5.94169 -3.8125,9.64453 -1.40851,3.66321 -3.15436,8.0169 -3.79101,9.47658 -0.74162,1.70026 -2.44271,5.96398 -3.86914,9.67382 -1.4085,3.66324 -3.15436,8.01889 -3.79102,9.47852 -0.61667,1.4138 -1.9988,4.88116 -3.24414,8.04688 0.74779,-1.88909 2.38114,-6.18428 3.66016,-9.6211 1.26895,-3.40983 3.63072,-9.66081 5.23828,-13.86523 1.61206,-4.21617 4.48475,-11.75647 6.38672,-16.76173 1.90092,-5.00251 4.68785,-12.32654 6.1914,-16.27539 1.50412,-3.95031 4.36807,-11.47702 6.36524,-16.72658 z m -207.42969,97.71487 c 0.82943,0.0224 1.64543,0.13704 2.48047,0.20117 -0.48835,0.10482 -0.96716,0.19116 -1.49609,0.56055 -0.67197,0.46928 -1.30274,1.55096 -1.30274,2.45508 0,0.82458 0.41341,1.65374 0.87891,2.14453 0.4655,0.49078 0.94862,0.76231 1.44336,0.98828 0.98948,0.45193 2.10942,0.71861 3.60547,0.98437 0.63775,0.1133 2.20728,0.19414 2.98437,0.29883 -0.21198,0.0476 -0.40788,0.0496 -0.64257,0.17969 -0.8178,0.45319 -1.17891,1.34829 -1.24805,1.82031 -0.0691,0.47203 -0.0167,0.73078 0.0234,0.94922 0.4163,1.10695 0.0669,0.50769 0.14062,1.06637 -0.12882,0.37224 -0.40594,0.88805 -0.71484,1.26953 -0.40516,0.50035 -0.67908,0.79455 -0.78125,0.88086 -0.0487,0.002 -1.09585,-0.0938 -3.27539,-0.64258 -1.70883,-0.43028 -2.98704,-0.68913 -4.1543,-0.72461 -0.58363,-0.0177 -1.15517,-1.3e-4 -1.84375,0.25391 -0.51334,0.18938 -1.05582,0.68334 -1.45898,1.27148 -0.0108,0.003 -0.10314,0.0308 -0.12696,0.0312 -0.54041,0.0103 -1.02992,0.008 -1.76562,0.36328 -0.36785,0.1777 -0.84444,0.49754 -1.1836,1.08789 -0.33915,0.59036 -0.39815,1.37819 -0.27343,1.9043 0.24942,1.05222 0.72389,1.36641 1.08593,1.67969 0.36205,0.31327 0.72705,0.54754 1.12891,0.77734 1.58662,0.90731 3.81339,1.70857 6.21094,2.10352 -0.42393,0.4967 -0.85611,0.97168 -0.98828,1.04101 -0.17682,0.0928 -0.19769,0.13086 -0.80078,0.0215 -5.97736,-1.08389 -9.37062,-4.40018 -12.22071,-12.55664 l -1.21875,-3.49219 c 1.71816,-0.35114 3.09275,-1.21995 4.34766,-2.31055 0.77113,-0.67017 1.46879,-1.4025 2.03711,-2.20898 0.35745,-0.50726 0.64837,-1.08284 0.85742,-1.73633 0.0328,-0.011 0.0125,-0.007 0.0488,-0.0176 0.66596,-0.19822 1.88488,-0.4091 3.33203,-0.5293 1.44715,-0.12019 3.14102,-0.16245 4.89062,-0.11523 z m 10.32422,7.80469 c 2.68687,0.31382 4.94189,0.63343 9.28711,0.92773 3.56293,0.24133 11.5667,1.07329 17.57813,1.83203 6.10177,0.77014 14.26216,1.62476 18.32031,1.91407 3.83707,0.27355 12.05122,1.14183 18.06055,1.91406 6.10604,0.78465 14.70665,1.69639 19.27539,2.04101 4.38645,0.33089 11.7248,1.14248 16.11328,1.78125 4.53847,0.66061 9.24962,1.21334 11.33984,1.22657 0.29743,0.002 0.53422,0.001 0.86914,-0.0449 0.16747,-0.0231 0.34897,-0.0352 0.72461,-0.19336 0.18782,-0.0791 0.44196,-0.19123 0.76563,-0.50585 0.32367,-0.31463 0.71076,-0.96055 0.73047,-1.65821 0.0104,-0.3702 -0.12562,-0.52848 -0.20508,-0.77734 5.08328,0.72262 5.1226,0.61319 11.93554,1.61914 7.3084,1.07913 14.61165,2.05081 16.95118,2.20117 1.66422,0.10695 2.79279,0.16809 3.62109,0.24414 -0.15703,0.50181 -0.27838,0.89533 -0.55078,1.74805 -0.77793,2.43521 -1.99506,5.85061 -2.60742,7.34375 -0.56687,1.38223 -1.0022,2.61198 -0.86524,4.04883 0.13697,1.43685 0.79938,2.5619 1.61719,3.80859 0.77665,1.18393 0.87574,1.64097 0.86523,1.44141 -0.0105,-0.19957 0.0398,-0.0648 -0.60546,0.91992 -0.69173,1.05571 -1.26097,2.13653 -1.36329,3.43555 -0.10231,1.29901 0.29393,2.45716 0.81446,3.5996 0.37087,0.81397 0.38431,2.76652 0.45898,2.53125 -0.4059,1.27894 -0.31152,2.44823 -0.0234,3.5918 -0.69138,-0.09 -1.26503,-0.14759 -2.41992,-0.36328 -1.73474,-0.32399 -3.79459,-0.75984 -5.72656,-1.22266 -4.03284,-0.96611 -9.12423,-1.97366 -11.72656,-2.29296 -2.14209,-0.26284 -6.48737,-1.1161 -9.27149,-1.83399 -3.01732,-0.77804 -6.83736,-1.56746 -8.96289,-1.81641 -1.58652,-0.18582 -6.86613,-1.10536 -11.30078,-1.99414 -4.48766,-0.89944 -12.6738,-2.50529 -18.21094,-3.57421 -5.52785,-1.06715 -14.14575,-2.73857 -19.14648,-3.7129 -11.71985,-2.28342 -28.70425,-5.53535 -35.44922,-6.78515 -3.84733,-0.71288 -5.35706,-1.15902 -5.80273,-1.26172 0.0521,-0.16507 0.0303,-0.10604 0.10156,-0.31055 0.18987,-0.54465 0.28835,-0.75993 0.35742,-0.91211 0.0811,0.0106 1.33772,-0.072 4.09961,0.13477 2.26784,0.16978 3.39374,0.30122 4.61523,0.13086 1.34542,-1.14936 1.38179,0.3112 2.4629,0.55469 0.50498,0.26355 0.65235,0.26496 0.96875,0.35546 0.31639,0.0905 0.69791,0.18952 1.17187,0.30665 0.94792,0.23424 2.26095,0.5396 3.98828,0.93554 5.62282,1.95499 10.52132,2.42925 15.21289,0.40038 0.0102,-0.0198 -0.002,-0.0498 0.008,-0.0703 0.31312,0.0593 0.82451,0.11126 1.13868,0.17188 4.91669,0.94892 8.83916,1.43731 11.00976,1.43554 0.54265,-4.4e-4 0.77472,0.16748 1.81446,-0.28515 0.25993,-0.11316 0.65262,-0.28019 1.05859,-0.85157 0.40597,-0.57138 0.52535,-1.66104 0.28906,-2.28125 -0.47257,-1.2404 -0.97026,-1.2306 -1.25781,-1.38867 -1.1502,-0.63227 -2.14707,-0.80558 -4.28516,-1.28515 -3.26486,-0.73231 -7.97699,-1.56829 -10.76953,-1.90235 -2.46024,-0.29431 -7.30131,-1.16567 -10.4414,-1.88867 -3.39539,-0.78179 -8.48532,-1.62961 -11.67579,-1.93945 -1.90013,-0.18453 -3.35752,-0.36545 -4.35351,-0.55664 -0.19751,-0.0379 -0.11836,-0.0348 -0.27735,-0.0762 0.0315,-0.0418 0.0108,-0.023 0.0449,-0.0664 0.58163,-0.73943 1.03661,-1.33167 1.40234,-1.86719 0.36573,-0.53551 0.68575,-0.93877 0.88477,-1.81055 0.0995,-0.43588 0.14693,-1.09845 -0.1543,-1.77734 -0.30123,-0.67889 -0.9049,-1.15259 -1.34961,-1.36133 -0.88942,-0.41747 -1.35525,-0.33786 -1.85547,-0.3457 -1.73897,-0.0272 -6.49689,-0.64259 -10.67969,-1.36133 -2.09139,-0.35937 -4.08355,-0.74376 -5.57226,-1.08008 -0.74436,-0.16816 -1.36686,-0.32476 -1.77735,-0.44726 -0.41048,-0.1225 -0.82768,-0.5223 -0.12304,0.0625 -0.27934,-0.23184 -0.51584,-0.4247 -0.86719,-0.63282 -0.0658,-0.039 -0.19917,-0.0816 -0.2793,-0.12304 z"
       id="path4"
       sodipodi:nodetypes="csssssssssssssssscsssssssssssccssscsssscssssssscsssssccssssssssssssscssscssscccsscssssccscssscssssccssscssssssssssssssccssscssscsccssssssscssssccccsssssccsssscsssccssssscssccssccscccssssssccssscsscssssssssccssssssssscccsssssssccssssssssssccsssssssscscc"
       inkscape:label="znak" /><g
       id="text2"
       inkscape:label="Text"
       style="opacity:1"
       transform="translate(1.6862328e-7,-10.054167)"><path
         id="path5"
         style="font-size:115.828px;font-family:'New Rocker';-inkscape-font-specification:'New Rocker';letter-spacing:1.7601px;baseline-shift:baseline;white-space:pre;display:inline;overflow:visible;fill:none;stroke:#000000;stroke-width:0.95;stroke-dasharray:none;stroke-opacity:1;enable-background:accumulate;stop-color:#000000;stop-opacity:1"
         d="m 111.00822,311.26734 c 0.99084,0.20357 2.04042,0.40432 2.76882,0.61856 l 0.0295,0.01 0.0393,0.01 c 1.15675,0.32132 2.17463,0.6895 3.05356,1.09967 l 0.16692,0.0884 0.18655,0.0687 c 1.03369,0.38762 2.02853,0.82987 2.99465,1.34514 0.39684,0.21165 0.89854,0.48529 1.3255,0.71675 0.035,0.84813 0.0982,1.65155 0.0982,2.543 v 5.6751 c 0,7.37849 -0.0719,15.19237 -0.22582,23.427 v 0.0196 0.0196 c -0.066,6.99367 -0.18198,13.60686 -0.30438,20.0887 -0.13128,0.0404 -0.0986,0.0352 -0.17673,0.0589 -0.016,0.005 -0.0325,0.0122 -0.0589,0.0196 -2.09404,0.52426 -4.40828,1.48688 -6.99079,2.70991 -1.00392,-0.20384 -2.05914,-0.4067 -2.85719,-0.62838 -1.20466,-0.33462 -2.31285,-0.70311 -3.35794,-1.08986 -1.01081,-0.47582 -2.02737,-0.96999 -3.04374,-1.51205 -0.36851,-0.19654 -0.83281,-0.45403 -1.22731,-0.66766 -0.0156,-2.44724 -0.0222,-4.86096 -0.0785,-7.78609 v -11.14402 -10.19163 -9.91671 c 0.0764,-3.12946 0.14949,-6.03725 0.22583,-8.70903 0.0417,-1.50171 0.086,-2.5518 0.12764,-3.79977 0.27669,-0.0996 0.16539,-0.0757 0.4811,-0.17673 l -0.0589,0.01 c 1.95678,-0.60208 4.36995,-1.71252 6.88279,-2.90628 z m 266.68091,30.85955 c 0.93153,0.28271 1.7809,0.59005 2.79828,0.8444 0.32177,0.0804 0.56408,0.0857 0.87385,0.15709 v 20.04942 c -0.13121,0.061 -0.17462,0.0944 -0.3142,0.1571 -1.20025,0.46256 -2.51875,0.90199 -3.96668,1.31568 -1.05071,0.30021 -2.19637,0.56635 -3.32848,0.83458 0.0104,-0.29074 0.0397,-0.52899 0.0491,-0.82476 0.15675,-2.54072 0.23565,-5.0877 0.23565,-7.62899 0,-2.63289 -0.0419,-5.37786 -0.11782,-8.22792 -4e-5,-1.66991 -0.0871,-2.75835 -0.13746,-4.08451 0.61006,-0.35523 1.18052,-0.59798 1.81642,-1.01131 l 0.0196,-0.01 0.0295,-0.0196 c 0.81088,-0.54058 1.35531,-1.0374 2.04225,-1.55133 z m 58.71477,0.46147 c 0.2089,0.0345 0.39813,0.0947 0.60874,0.12764 l 0.0785,0.0196 0.0884,0.01 c 0.91949,0.11145 1.5846,0.0919 2.42517,0.16691 0.0437,0.41022 0.0231,0.83977 0.0786,1.24696 l 0.0196,0.108 0.0196,0.108 c 0.0197,0.10831 0.0487,0.2064 0.0687,0.3142 l -3.14193,0.76584 c -0.0288,-0.33309 -0.0272,-0.60307 -0.0589,-0.94258 -0.0355,-0.5642 -0.13998,-1.32705 -0.18655,-1.92443 z m -178.97076,38.22365 -0.25528,3.84886 5.01727,0.2651 c 2.74387,0.14832 5.07331,0.37959 6.95151,0.65784 l 0.0884,0.01 0.0884,0.01 c 1.85739,0.20638 3.39235,0.51205 4.56561,0.86403 l 0.108,0.0295 0.11782,0.0294 c 1.20412,0.30103 2.09716,0.66817 2.68046,1.00149 l 0.0589,0.0393 0.0589,0.0295 c 0.80938,0.43167 1.50225,0.92458 2.11099,1.4826 l 2.95537,2.70009 3.26957,-2.30735 c 0.90649,-0.63988 2.19412,-1.33126 3.84886,-1.99316 1.68655,-0.67462 3.53579,-1.26721 5.5671,-1.75752 2.04397,-0.49338 4.21916,-0.88086 6.5195,-1.1684 2.27506,-0.28438 4.50634,-0.4222 6.68642,-0.4222 h 6.15621 l -1.30586,-6.02857 c -0.27536,-1.26667 -0.54934,-3.67694 -0.69712,-6.92206 v -0.01 c -0.15016,-3.38066 -0.23564,-7.24469 -0.23564,-11.58585 0,-0.0245 -10e-6,-0.0443 0,-0.0687 h 5.95984 v 13.15682 c 0,5.69578 1.64962,11.05406 4.90926,15.46417 l 1.49242,2.0128 h 3.80958 l 0.69712,-0.20619 c 2.24865,-0.67459 4.41874,-1.2765 6.49986,-1.79679 2.0001,-0.50002 4.1697,-0.93043 6.50968,-1.29605 l 4.20233,-0.65784 v -5.71438 l 4.6147,1.26659 c 1.76479,0.48685 3.54389,1.25921 5.3511,2.35645 1.73993,1.05638 3.3824,2.4075 4.94853,4.10414 l 1.98335,2.14044 2.82773,-0.67748 c 2.05047,-0.49211 4.16331,-1.10605 6.33295,-1.82625 2.20493,-0.65512 4.34041,-1.39448 6.40167,-2.21898 l 0.0491,-0.01 0.0393,-0.0196 c 2.1206,-0.89717 4.13364,-1.84376 6.03839,-2.83755 0.25669,-0.13392 0.44672,-0.27781 0.69712,-0.41238 0.32958,0.49462 0.52316,1.01451 0.88366,1.50224 1.60756,2.17493 3.49405,4.03451 5.64565,5.46891 l 4.68344,3.12229 2.51354,-5.02708 c 0.26581,-0.5316 0.81267,-1.40758 1.62006,-2.48409 0.77756,-1.03676 1.65869,-2.06125 2.66082,-3.06338 1.04118,-1.04118 2.06281,-1.95855 3.06338,-2.759 l 0.0196,-0.01 0.01,-0.0196 c 0.92701,-0.75319 1.65159,-1.12777 2.0128,-1.25677 l 3.29696,-9.62217 -3.50521,-1.08004 c -0.32804,-0.10094 -0.42482,-0.18396 -0.58911,-0.27492 0.0113,-0.008 -0.0685,-0.19525 -0.25528,-0.6382 -0.2428,-0.95457 -0.4985,-2.64332 -0.63821,-4.94854 -0.0322,-0.53158 -0.0628,-1.10885 -0.0884,-1.73787 l 6e-4,-1.1e-4 h 6.15621 c -0.0278,0.51499 -0.0608,1.03909 -0.0982,1.58078 v 0.0884 l -0.01,0.0786 c -0.0713,2.06635 -0.24708,4.0959 -0.5302,6.07767 l -0.01,0.0687 -0.01,0.0786 c -0.096,0.86428 -0.28422,1.60749 -0.4222,2.41535 l -2.84531,7.75666 -3.34811,5.42964 h 8.89558 c 0.92988,0 2.41981,0.14082 4.31033,0.49092 h 0.01 l 0.0196,0.01 c 1.94648,0.34759 3.94333,0.83477 5.99912,1.47278 l 0.0982,0.0295 0.0982,0.0294 c 2.0908,0.55755 4.09936,1.25051 6.03839,2.08153 1.8931,0.81132 3.38301,1.65301 4.45761,2.44481 l 2.89647,2.14044 2.93573,-2.10116 c 0.65537,-0.46812 1.79634,-1.09745 3.29903,-1.75752 1.7089,-0.63731 3.48761,-1.25287 5.35109,-1.82624 l 0.0786,-0.0196 0.0884,-0.0295 c 1.79267,-0.62053 3.56506,-1.0938 5.33146,-1.4335 l 0.0884,-0.0196 0.0884,-0.0196 c 1.86716,-0.43088 3.42732,-0.69976 4.6147,-0.82475 l 6.00894,-0.63821 v 3.78995 h 34.7183 v -11.19311 l -4.20233,-0.65784 c -1.57091,-0.24546 -2.00137,-0.60437 -2.03244,-0.60875 -6e-5,-0.055 -0.36328,-0.79016 -0.36328,-2.70009 v -14.40378 l 6.33295,-8.9054 8.40465,4.38888 2.57245,-2.95537 c 1.99006,-2.28857 3.53898,-5.02022 4.7129,-8.09047 l 0.01,-0.0196 0.01,-0.0196 c 1.15731,-3.11584 1.93958,-6.47976 2.36627,-10.06399 l 0.52038,-4.39869 -4.31033,-1.02113 c -3.0856,-0.73467 -5.87387,-1.53724 -8.38502,-2.39572 -2.47209,-0.92212 -4.30462,-1.79784 -5.28237,-2.41536 l -5.194,-3.27938 -2.1208,5.75365 c -0.25544,0.69118 -0.56068,1.27926 -0.82475,1.95389 l -3.4954,-5.82239 -3.57394,0.88367 c -2.3944,0.5986 -5.15601,1.2431 -8.25738,1.92443 -3.0732,0.59877 -5.91523,1.08348 -8.50284,1.45314 l -4.26124,0.60875 v 8.85631 l 4.28088,1.84588 v 15.12053 h -4.49688 c -0.18305,-0.63064 -0.3647,-1.33959 -0.54002,-2.11099 -0.34715,-1.52747 -0.62189,-3.13899 -0.83458,-4.84053 -0.22324,-1.78583 -0.4109,-3.57597 -0.55965,-5.36091 -0.14468,-1.81339 -0.21601,-3.45003 -0.21601,-4.90926 0,-1.90088 0.11931,-3.40613 0.28474,-4.3987 l 0.92294,-5.58674 -5.65547,-0.19637 c -4.45796,-0.15112 -8.96239,-0.41786 -13.50047,-0.7953 -4.50707,-0.4517 -8.2647,-0.97802 -11.20293,-1.55133 l -2.59209,-0.50074 -1.87534,1.86552 c -2.48516,2.48516 -4.95162,4.49449 -7.38353,6.04821 l -0.0295,0.0196 -0.0196,0.01 c -2.14319,1.40838 -4.49967,2.36153 -7.21662,2.86701 l -5.45909,1.01131 1.61023,5.31182 c 0.43541,1.43063 0.96237,3.75718 1.4826,6.80424 l 0.01,0.0687 0.01,0.0687 c 0.33218,1.6609 0.58211,3.7359 0.71675,6.17586 h -6.30349 v -42.01346 c 0,-3.76901 0.26451,-7.02144 0.73639,-9.73998 0.50003,-2.4577 1.29399,-4.09382 2.16989,-5.1449 l -5.95002,-7.66827 c -3.05108,1.4529 -5.87321,2.55731 -8.43412,3.31866 h -0.0196 l -0.0196,0.01 c -2.37412,0.72543 -4.54298,1.05058 -6.53914,1.05058 -1.65553,0 -2.91339,-0.21996 -3.79976,-0.5302 l -11.96878,-4.18269 5.93038,11.20294 c 0.60701,1.14657 1.10293,2.22765 1.4826,3.24011 0.35577,0.94871 0.62562,1.91857 0.80512,2.93574 l 0.0196,0.13746 0.0294,0.13745 c 0.23052,0.97971 0.38744,2.11272 0.45166,3.39721 0.0721,1.44125 0.11782,3.10396 0.11782,4.96818 v 10.90837 c -0.15533,-0.0378 -0.3578,-0.0488 -0.51057,-0.0884 -1.80879,-0.46895 -3.82573,-1.15364 -6.03839,-2.08153 l -2.52336,-1.0604 -2.23862,1.56115 c -3.35243,2.33213 -6.71309,4.31413 -10.09344,5.96966 -3.18755,1.52255 -6.2659,2.53304 -9.24905,3.06338 l -6.00894,1.07022 2.26808,5.66528 c 0.12859,0.32149 0.34752,1.05487 0.54002,2.08153 v 0.0295 l 0.01,0.0294 c 0.1692,0.84598 0.35575,2.24268 0.50074,4.05505 l 0.01,0.108 0.01,0.10801 c 0.20321,1.62571 0.34811,3.76913 0.4222,6.3624 v 0.01 c 0.0104,0.35257 0.0204,0.7158 0.0294,1.08986 h -5.75365 v -22.88778 l -4.68344,-7.81554 -3.57394,0.89348 c -0.15819,0.0396 -0.33511,0.085 -0.52038,0.12764 v -2.16989 l 0.60875,-1.2175 c 1.10359,-2.20718 2.32904,-3.88754 3.62303,-5.12527 h 0.01 c 1.63033,-1.5624 3.68189,-3.22852 6.1464,-4.96817 l 6.37222,-4.5067 -6.77478,-3.8685 c -0.3638,-0.20788 -1.12388,-0.68274 -2.08153,-1.29604 -0.93811,-0.71913 -1.92855,-1.46272 -2.98483,-2.23863 l -0.0295,-0.0196 c -0.98829,-0.77695 -1.94179,-1.54483 -2.85719,-2.31717 -0.75548,-0.69754 -1.26257,-1.26778 -1.42368,-1.48259 l -2.55282,-3.40703 -3.76049,2.00298 c -2.91069,1.55237 -5.51876,3.71108 -7.79591,6.35258 l -0.01,0.01 c -2.02762,2.36554 -3.78695,4.80709 -5.26273,7.32462 l -2.10116,3.58376 3.15175,2.70009 c 0.65889,0.56477 1.48047,1.2204 2.52336,2.02262 0.98921,0.76093 2.01427,1.556 3.08301,2.39572 0.99068,0.7784 1.90429,1.55086 2.72955,2.30735 l 0.1571,0.14728 0.16691,0.12764 c 0.10303,0.0793 0.20108,0.16074 0.29456,0.23564 v 5.40019 c -2.67881,0.50866 -5.16677,0.92887 -7.46208,1.25677 l -4.27106,0.60875 2.22581,9.8134 2.06189,0.88857 v 15.12053 h -5.79293 c 0.0455,-0.97268 0.10478,-1.8279 0.16692,-2.55282 l 0.49092,-5.78311 -5.78311,0.40256 -14.99281,1.45344 c -1.80725,0.1773 -3.57534,0.6184 -5.35125,0.98186 -0.0209,-0.78194 -0.0589,-1.56472 -0.0589,-2.34662 l 9e-5,-0.10838 c 0.66382,0.22468 1.31888,0.46765 1.98334,0.67748 l 0.0393,0.01 0.0393,0.01 c 0.56359,0.16908 1.12249,0.30468 1.67956,0.42717 l 15.9348,-1.04605 c 0.67395,-0.38578 1.43035,-0.62192 2.03244,-1.11931 l 0.0491,-0.0393 0.0491,-0.0393 c 2.28841,-1.98992 3.94293,-4.69403 5.39037,-7.82536 l -0.16694,-7.93331 -3.37757,-0.24546 c -9.29127,-0.66897 -16.033,-2.26666 -19.88251,-4.22197 l -2.06189,-1.05058 -2.13061,0.90331 c -4.98549,2.11506 -9.09882,3.64514 -12.21425,4.56561 -3.02488,0.89371 -5.72273,1.29604 -8.09046,1.29604 l -4.3496,8.1592 c 0.41527,1.4792 0.83712,2.95248 1.04076,4.68343 l 0.01,0.0786 0.01,0.0687 c 0.34019,2.31326 0.5302,5.13346 0.5302,8.42429 0,0.67048 -0.012,1.39928 -0.0295,2.1699 h -14.84561 v -7.64863 l 9.77925,1.23713 1.07022,-4.28088 c 0.25312,-1.01248 0.72281,-2.15901 1.43351,-3.41684 l 4.04523,-9.47488 v -2.89646 h -16.32821 v -1.1684 c 0,-0.51094 0.0324,-1.65221 0.10801,-3.24012 v -0.01 c 0.0728,-1.60176 0.18853,-3.24586 0.33383,-4.92889 0.2237,-1.78482 0.44544,-3.46173 0.66766,-5.01727 0.20356,-1.42486 0.4782,-2.38844 0.50074,-2.44481 l 5.06636,-12.65608 -12.01787,6.42132 c -3.17977,1.70081 -6.14319,3.0882 -8.86613,4.16305 -2.4165,0.95388 -5.10085,1.54643 -8.11992,1.7477 l -9.49451,0.6382 5.44928,6.81406 c 0.056,0.10906 0.22111,0.41011 0.30438,0.85421 v 0.0294 l 0.01,0.0295 c 0.19418,0.97088 0.36896,2.14027 0.51056,3.48557 v 0.01 0.0196 c 0.1444,1.29961 0.25188,2.59961 0.32401,3.89795 l 0.01,0.14728 0.0196,0.1571 c 0.14387,1.2229 0.19637,2.11346 0.19637,2.31717 v 1.25677 c -2.09698,1.63923 -4.22057,2.98496 -6.43114,3.83904 l -3.1812,1.22732 v 9.64179 h 9.61234 v 9.24905 h -10.1229 V 317.8359 l -7.18716,3.6034 c -2.18976,1.09487 -4.96151,2.06681 -8.29665,2.84737 h -0.01 -0.01 c -3.27123,0.78225 -6.61655,1.288 -10.04435,1.50223 l -4.6638,0.28474 v 9.99525 l 3.69177,0.98186 c 0.48653,0.12973 0.71569,0.26956 0.73639,0.27491 h 0.01 l 0.16691,0.13746 v 0.01 c 0.004,0.0106 0.0149,0.0171 0.0196,0.0295 0.0888,0.23095 0.3011,1.1358 0.36328,2.50372 l 0.01,0.10801 0.01,0.11782 c 0.13354,1.46898 0.20619,3.50056 0.20619,6.02857 v 14.82597 l -5.4591,2.3859 -0.57929,-0.44183 v -20.93309 -5.21364 c 0.0662,-1.32509 0.093,-2.57708 0.0982,-3.75067 5.3e-4,-0.008 -0.001,-0.0113 0,-0.0196 0.0731,-1.16869 0.15308,-2.25563 0.22583,-3.27939 0.15154,-1.07442 0.30275,-2.22975 0.45165,-3.49539 l 1.03095,-8.80722 -8.05119,3.72122 c -0.68808,0.31758 -1.87917,0.76753 -3.40703,1.25677 -1.59478,0.4331 -3.33527,0.86561 -5.24309,1.30587 -1.91689,0.44236 -3.82829,0.84791 -5.74384,1.21749 -1.89295,0.28971 -3.59821,0.50728 -5.07617,0.64803 l -4.10414,0.39274 -0.76585,8.4832 2.67064,1.60042 c 0.6292,0.37752 0.98186,0.7364 1.24695,1.11931 l 0.12764,0.18655 0.14728,0.16692 c 0.25943,0.31132 0.60786,0.90705 0.92294,1.90479 0.30754,0.97387 0.58302,2.39684 0.71675,4.20233 l 0.01,0.0982 0.01,0.0982 c 0.20173,1.74828 0.31419,3.97582 0.31419,6.61768 0,0.0645 1.1e-4,0.13175 0,0.19638 h -9.55342 c 1.07277,-3.41195 2.36109,-5.90003 3.65249,-7.50136 l 2.41536,-2.99465 -2.28772,-3.09283 c -1.5164,-2.04131 -2.84822,-4.89214 -3.80959,-8.65994 v -0.01 c -0.9856,-3.94427 -1.47277,-7.85426 -1.47277,-11.76259 0,-2.58852 0.20885,-5.03239 0.61856,-7.35407 v -0.0196 l 0.01,-0.01 c 0.3852,-2.247 0.99636,-3.87902 1.65933,-4.96818 l 4.30052,-7.05951 -8.24756,-0.49093 c -0.55917,-0.0329 -2.60077,-0.37606 -5.39037,-1.10949 l -0.01,-0.01 c -2.85627,-0.77192 -6.01679,-1.61824 -9.48469,-2.543 -3.4763,-0.92702 -6.98452,-1.81061 -10.53528,-2.66082 -3.601,-0.96026 -6.7735,-1.65736 -9.57306,-2.08153 l -1.47278,-0.22582 -1.35495,0.62838 c -1.77141,0.81756 -3.89984,1.6298 -6.35259,2.42518 -2.520859,0.74001 -5.156205,1.45006 -7.913726,2.1208 -2.733902,0.66501 -5.460712,1.21696 -8.188648,1.65933 h -0.0098 -0.0098 c -2.640057,0.44001 -5.067171,0.732 -7.265707,0.87385 l -16.023829,1.03094 13.804843,8.19847 c 1.395494,0.82857 2.378744,1.98833 3.161564,4.28088 0.897441,2.62822 1.354956,5.42538 1.354956,8.47338 0,1.77821 -0.163234,3.60832 -0.500744,5.49837 l -0.01964,0.0884 -0.0098,0.0786 c -0.272774,1.90942 -0.68156,3.73338 -1.217497,5.47873 -0.5427,1.69006 -1.171889,3.25691 -1.894975,4.70308 l -0.01964,0.0491 -0.01964,0.0393 c -0.597138,1.25399 -1.233043,2.16927 -1.826245,2.8081 l -5.586739,6.01875 6.833691,1.8557 c 0.08024,0.0788 0.132123,0.0825 0.304375,0.46148 0.565652,1.24444 1.142493,3.04362 1.629874,5.34127 l 0.01964,0.0884 0.02946,0.0884 c 0.549818,2.19927 0.977943,4.70668 1.266589,7.52098 v 0.0786 l 0.0098,0.0687 c 0.360355,2.7387 0.540019,5.33967 0.540019,7.80573 0,2.67282 -0.214737,4.98145 -0.59893,6.90242 l -0.0098,0.0589 -0.0098,0.0687 c -0.240879,1.39709 -0.640077,1.98305 -0.697115,2.07171 l -7.795907,7.24607 10.56473,1.3255 c 0.590796,0.0738 2.592858,0.51822 5.341276,1.33532 l 0.05891,0.0196 0.05891,0.01 c 2.852739,0.77101 5.982139,1.62703 9.376689,2.55282 h 0.0098 0.0098 c 3.50804,0.93548 7.016876,1.83262 10.525456,2.69027 3.61203,0.88294 6.80164,1.50401 9.62215,1.84589 l 1.4335,0.17673 1.31569,-0.62839 c 1.6397,-0.78705 3.74087,-1.59422 6.2544,-2.3859 2.59975,-0.7415 5.26711,-1.45036 8.02173,-2.1208 2.82335,-0.66869 5.61082,-1.22565 8.34574,-1.66915 2.80393,-0.44217 5.3115,-0.73194 7.51117,-0.87385 l 15.39545,-0.99167 -13.07828,-8.17883 c -1.48474,-0.92796 -2.49313,-2.16069 -3.26956,-4.37906 -0.88488,-2.52823 -1.34514,-5.26827 -1.34514,-8.31629 0,-1.08056 0.0351,-2.1475 0.11782,-3.20083 h 11.00656 c -0.0827,2.01879 -0.22333,3.92212 -0.40256,5.71438 -0.22133,2.21323 -0.47598,4.05023 -0.7462,5.46891 l -0.0196,0.11783 -0.01,0.108 c -0.12398,0.86787 -0.44554,1.58163 -0.45165,1.66915 v 0.01 h 0.01 v -0.01 c 0.007,-0.007 0.026,-0.0215 0.0393,-0.0393 l -0.0393,0.0491 -2.58227,3.87831 4.71289,2.62155 c 1.31482,0.73045 2.46607,1.40859 3.43648,2.03243 l 0.16692,0.10801 0.17673,0.0982 c 0.96614,0.51528 1.90005,1.0991 2.8081,1.7477 l 0.0687,0.0393 0.0687,0.0491 c 0.96748,0.64498 1.95968,1.40776 2.97501,2.28771 l 0.12764,0.10801 0.14728,0.108 c 1.07651,0.80739 2.36646,1.87453 3.82922,3.19102 l 3.49539,3.15174 3.3383,-3.32847 c 1.17317,-1.17318 2.30696,-2.26998 3.39721,-3.28921 1.08925,-0.95075 2.24781,-1.87292 3.48558,-2.76882 1.34073,-0.91532 2.80174,-1.83582 4.37906,-2.76883 0.17611,-0.0994 0.42629,-0.22257 0.60875,-0.32401 0.3083,0.70934 0.55705,1.4599 0.94257,2.1208 l 0.0393,0.0589 0.0393,0.0687 c 1.56593,2.50549 3.75975,4.80241 6.55878,7.17734 l 4.9878,4.23179 2.73937,-5.94021 c 0.23987,-0.51971 0.71157,-1.29202 1.45314,-2.21899 l 0.0491,-0.0589 0.0393,-0.0687 c 0.77756,-1.03676 1.66851,-2.05143 2.67064,-3.05356 1.00214,-1.00214 2.0168,-1.89306 3.05356,-2.67063 1.03676,-0.77757 1.90072,-1.28132 2.46445,-1.54151 l 2.88664,-1.33532 v -8.47339 l -3.9274,-0.83457 c -0.12668,-0.0272 -0.18486,-0.0494 -0.20619,-0.0589 -0.0234,-0.0612 -0.0917,-0.24973 -0.21601,-0.69712 -0.24766,-0.89155 -0.50828,-2.4314 -0.64802,-4.45761 -0.0456,-0.68505 -0.0761,-1.44475 -0.10801,-2.27789 h 10.0149 v 23.18153 l 2.74918,1.37459 c 1.16143,0.58071 2.66511,1.35973 4.48707,2.34663 1.78093,0.96467 3.51961,1.96735 5.22345,3.00447 l 3.14193,1.91461 2.74918,-2.44481 c 0.37057,-0.32939 1.14322,-0.90229 2.22881,-1.58079 1.09348,-0.68342 2.26659,-1.34439 3.52485,-1.97352 l 0.0982,-0.0491 0.0884,-0.0491 c 1.29433,-0.71907 2.63362,-1.40201 4.00596,-2.05208 1.3351,-0.63241 2.56645,-1.14433 3.69176,-1.5415 l 3.31724,-7.53092 v -3.49539 l -4.71289,-0.24547 c -1.84139,-0.0969 -2.93465,-0.59341 -4.11396,-1.75751 -0.77503,-0.82096 -1.4826,-2.36808 -1.4826,-5.55729 l 1.4e-4,-3.54451 h 14.30559 c -0.0355,0.39787 -0.0685,0.80308 -0.108,1.22731 l -0.21601,2.34172 18.06149,0.40487 c 0.21625,-0.0485 1.00889,-0.25018 1.22632,-0.29327 2.30107,-0.43641 3.42681,-0.4887 5.40562,-0.77436 l 1.5e-4,1e-5 v 0.01 c -0.0295,1.69168 -0.0816,3.34928 -0.25528,4.91908 v 0.01 h -0.01 c -0.0105,0.0908 -0.0282,0.22213 -0.0393,0.31419 -3.13274,-1.30864 -6.58701,-2.81847 -8.95449,-3.65249 l -15.65052,1.40369 c -1.05958,1.71321 -1.98429,3.55715 -2.69027,5.6751 l -0.0196,0.0393 -0.28947,1.03798 z m 85.30205,-21.29651 h 5.84202 c -0.008,2.67569 -0.0851,5.34583 -0.22583,8.02173 -0.13341,2.46804 -0.56762,5.19054 -1.34513,8.15919 l -1.13895,4.33979 V 376.747 l -2.66082,-0.99167 c -0.19825,-0.54525 -0.47129,-1.94256 -0.47129,-4.00595 z m 123.63483,0 h 2.82774 v 13.27464 c 0,1.60769 -0.23723,2.57979 -0.3731,2.93574 l -2.74919,1.02112 v 5.39037 l -1.86552,-5.04672 c -0.42065,-1.14176 -0.70329,-2.25171 -0.88367,-3.34811 -0.12028,-1.26949 -0.19637,-3.1333 -0.19637,-5.58674 v -2.55282 c 0,-0.78861 0.0324,-1.57623 0.0982,-2.36626 l 0.0892,-2.39939 -11.95896,0.6382 c -1.80566,0.93149 -3.19391,0.72759 -4.51736,2.18338 l -0.0393,0.0393 -0.0491,0.0491 c -1.05636,1.22315 -1.90187,2.60029 -2.56264,4.07469 -1.40953,-0.21067 -2.84862,-0.41792 -4.32015,-0.62839 -1.24735,-0.23813 -2.41547,-0.47969 -3.56412,-0.71675 0.0559,-0.53488 0.0956,-0.92818 0.1571,-1.50224 0.0983,-0.91756 0.12451,-1.85944 0.19637,-2.78846 5.04373,-0.78376 8.77044,-1.36057 11.03608,-1.56132 z"
         sodipodi:nodetypes="cccccccscssccccsccscscccccccccccccccsccsccccsccccccccsccccccccccccsccsccccccssssccccsccsccccsccccscccccccscsscssscccccscccsccsccccccccsccccccscccccccccccccccccsccccccccccccccccccscccccsscsccccccccccccccccccsccccccscccscccsscscccccccccccccccccccsccscccccccccccccccccssccccccccccccccccccccccccccccccccscccccsccccsccccscccscccsccccccccccccsccccccccccccccccccccscccsccccccccccccsccccccccscccscccccccsccccccccscccccsccccccssccccccccccsccccccsccccccccccccscccccccccssccsccccccccccccccccccccccccccccccccccccsscccccsccccsscccsscssccscccccccccsccccccccccccccccsccccccccsscccccccccsccccccc" /></g></g></svg>
