<?xml version="1.0" encoding="UTF-8" standalone="no"?>
<svg
   version="1.2"
   viewBox="0 0 113.38583 113.38583"
   width="30mm"
   height="30mm"
   id="svg1"
   sodipodi:docname="OpilecReminderTokenLaser.svg"
   inkscape:version="1.4.2 (2aeb623e1d, 2025-05-12)"
   xml:space="preserve"
   xmlns:inkscape="http://www.inkscape.org/namespaces/inkscape"
   xmlns:sodipodi="http://sodipodi.sourceforge.net/DTD/sodipodi-0.dtd"
   xmlns="http://www.w3.org/2000/svg"
   xmlns:svg="http://www.w3.org/2000/svg"><sodipodi:namedview
     id="namedview1"
     pagecolor="#ffffff"
     bordercolor="#666666"
     borderopacity="1.0"
     inkscape:showpageshadow="2"
     inkscape:pageopacity="0.0"
     inkscape:pagecheckerboard="0"
     inkscape:deskcolor="#d1d1d1"
     inkscape:zoom="7.8028766"
     inkscape:cx="57.671039"
     inkscape:cy="66.513931"
     inkscape:window-width="1920"
     inkscape:window-height="1043"
     inkscape:window-x="0"
     inkscape:window-y="0"
     inkscape:window-maximized="1"
     inkscape:current-layer="layer1"
     showgrid="false"
     inkscape:document-units="mm" /><defs
     id="defs1"><clipPath
       clipPathUnits="userSpaceOnUse"
       id="cp1"><path
         d="m 275.5,535.5 c -143.78,0 -260,-116.22 -260,-260 0,-143.78 116.22,-260 260,-260 143.78,0 260,116.22 260,260 0,143.78 -116.22,260 -260,260 z"
         id="path1" /></clipPath><clipPath
       clipPathUnits="userSpaceOnUse"
       id="cp1-5"><path
         d="m 275.5,535.5 c -143.78,0 -260,-116.22 -260,-260 0,-143.78 116.22,-260 260,-260 143.78,0 260,116.22 260,260 0,143.78 -116.22,260 -260,260 z"
         id="path1-3" /></clipPath></defs><style
     id="style1">
		tspan { white-space:pre } 
		.s0 { fill: none;stroke: #ff0000;stroke-miterlimit:100 } 
	</style><g
     inkscape:groupmode="layer"
     id="layer1"
     inkscape:label="Template"
     transform="scale(0.1989225)"><g
       id="text2"
       inkscape:label="Text"
       style="opacity:1" /><path
       id="path4"
       style="opacity:1;font-size:133px;font-family:'New Rocker';-inkscape-font-specification:'New Rocker';letter-spacing:2.02104px;baseline-shift:baseline;white-space:pre;display:inline;overflow:visible;enable-background:accumulate;stop-color:#000000;stop-opacity:1;stroke-width:0.95000006;stroke-dasharray:none;stroke:#000000;stroke-opacity:1;fill:none"
       d="M 335.09636 312.9065 C 331.54498 314.59763 328.25305 315.88861 325.23856 316.78481 L 325.21892 316.78481 L 325.20911 316.79463 C 322.38174 317.65855 319.76454 318.06122 317.33465 318.06122 C 315.32652 318.06122 313.73504 317.79745 312.55303 317.38374 L 301.81157 313.62325 L 307.13321 323.68724 C 307.85216 325.04526 308.44371 326.33751 308.90054 327.55573 C 309.3359 328.71669 309.65344 329.90757 309.87257 331.14931 L 309.90203 331.27695 L 309.93149 331.39478 C 310.21575 332.60286 310.40433 333.97876 310.48132 335.51856 C 310.56532 337.19922 310.60896 339.12489 310.60896 341.28203 L 310.60896 402.47106 L 299.29803 402.47106 L 299.29803 359.99613 L 294.5655 352.10204 L 291.35484 352.90716 C 291.04027 352.9858 290.71788 353.06288 290.39263 353.1428 L 290.39263 346.73131 C 291.62374 344.41508 292.99066 342.5869 294.45749 341.18384 C 296.38516 339.33648 298.79424 337.37756 301.66429 335.35164 L 307.38849 331.30641 L 301.301 327.83065 C 300.84053 327.56753 299.94792 327.01416 298.81692 326.28914 C 297.71293 325.44225 296.54268 324.56596 295.29207 323.64796 C 294.1354 322.73857 293.02573 321.83339 291.95377 320.92823 C 291.04679 320.09193 290.41544 319.39751 290.15698 319.05289 L 287.85945 315.98951 L 284.48187 317.7863 C 281.28794 319.48973 278.41889 321.86399 275.89067 324.79673 L 275.88085 324.80655 C 273.59616 327.47202 271.61415 330.21316 269.96028 333.03447 L 268.07512 336.25494 L 270.91268 338.68994 C 271.6397 339.3131 272.56248 340.05419 273.75023 340.96784 C 274.88974 341.84439 276.07428 342.76021 277.30453 343.72684 C 278.46465 344.63836 279.53246 345.54491 280.50537 346.43675 L 280.65265 346.56439 L 280.79993 346.68222 C 281.10687 346.91832 281.3857 347.13828 281.62468 347.34006 L 281.62468 355.16542 C 278.14837 355.84011 274.92715 356.39432 271.9829 356.81493 L 268.15367 357.35495 L 268.15367 365.62215 L 273.07275 367.75276 L 273.07275 402.47106 L 264.21644 402.47106 C 264.13547 400.99167 264.07163 399.3464 264.02007 397.54216 C 263.93307 394.49586 263.89243 390.89709 263.89243 386.76142 C 263.89243 383.47043 263.97484 380.22968 264.14771 377.03127 L 264.14771 377.02145 C 264.307 373.99495 264.8298 370.75037 265.73831 367.28148 L 266.85763 363.02024 L 262.60621 361.85183 C 260.46134 361.26014 258.31917 360.32797 256.15544 359.01428 C 254.05218 357.7373 252.07539 356.10138 250.20541 354.07556 L 248.4479 352.17077 L 245.91472 352.75988 C 243.47233 353.32351 241.00129 354.02555 238.49191 354.86104 C 236.0754 355.60719 233.66669 356.48811 231.26548 357.50223 C 228.92838 358.43842 226.67571 359.4653 224.51034 360.59506 C 223.84226 360.94362 223.32297 361.3036 222.69391 361.65546 C 222.14026 360.76573 221.76868 359.84864 221.12295 358.97501 C 219.35066 356.5772 217.29522 354.55439 214.95692 352.99553 L 210.74477 350.18743 L 208.47669 354.71377 C 208.12219 355.42278 207.46983 356.48172 206.51299 357.75751 C 205.58294 358.99757 204.52147 360.2105 203.33179 361.40018 C 202.13429 362.59769 200.90596 363.70495 199.64002 364.73848 C 198.47806 365.60267 197.50744 366.13874 196.91047 366.36835 L 194.04346 367.47785 L 194.04346 375.30321 L 197.19521 376.27524 C 197.79425 376.45956 198.03026 376.639 198.14761 376.75635 L 198.34398 376.95272 L 198.37343 376.98218 L 198.37343 376.99199 C 198.39023 377.04889 198.63868 377.40685 198.84472 378.18985 L 198.88399 378.32731 L 198.93309 378.46477 C 199.24545 379.40186 199.60298 381.43857 199.76766 384.23806 L 199.76766 384.24788 C 199.93593 387.02437 200.03276 390.8541 200.03276 395.67664 L 200.03276 402.47106 L 184.44095 402.47106 C 184.36523 401.55817 184.33294 400.63045 184.33294 399.67278 C 184.33294 395.03656 184.97651 390.60479 186.26719 386.32941 L 186.26719 386.31959 L 186.27701 386.30977 C 187.58184 381.90597 189.2076 378.65535 190.92117 376.53052 L 193.09107 373.84025 L 191.02918 371.07143 C 189.16574 368.56296 187.58752 365.12863 186.45374 360.68343 L 186.45374 360.67361 C 185.2983 356.04993 184.72568 351.46014 184.72568 346.86877 C 184.72568 343.82945 184.97825 340.9407 185.46207 338.19901 L 185.46207 338.18919 L 185.46207 338.17937 C 185.92387 335.48553 186.66817 333.45506 187.53378 332.03298 L 191.39246 325.69021 L 183.97948 325.24838 C 183.14843 325.19948 180.78481 324.77717 177.53853 323.92288 C 174.25892 323.03654 170.63305 322.06898 166.64978 321.00678 C 162.65879 319.94251 158.6207 318.91937 154.54355 317.9434 C 150.44017 316.84916 146.84596 316.06451 143.69408 315.58695 L 142.36858 315.38077 L 141.15108 315.94042 C 139.05719 316.90683 136.57008 317.87035 133.70864 318.79761 C 130.78934 319.65486 127.73754 320.47639 124.54796 321.25224 C 121.37799 322.02331 118.20823 322.66349 115.04363 323.17667 L 115.03381 323.17667 L 115.02399 323.17667 C 111.95764 323.68773 109.13363 324.02197 106.56043 324.18798 L 92.166472 325.12074 L 104.56727 332.48463 C 106.43809 333.59544 107.76683 335.22095 108.74014 338.07137 C 109.81646 341.22345 110.36019 344.56858 110.36019 348.19427 C 110.36019 350.31266 110.17075 352.48542 109.77108 354.72359 L 109.75145 354.80213 L 109.74163 354.88068 C 109.41971 357.13414 108.94303 359.29313 108.30812 361.36091 C 107.66584 363.36357 106.91238 365.2226 106.04986 366.94765 L 106.03023 366.98692 L 106.01059 367.02619 C 105.28123 368.55784 104.4967 369.71694 103.71305 370.56086 L 98.685971 375.97087 L 105.01892 377.68911 C 105.09722 377.78251 105.38631 378.06536 105.70621 378.76915 C 106.40727 380.31149 107.09702 382.46999 107.66992 385.17082 L 107.67974 385.23955 L 107.69937 385.3181 C 108.34765 387.91124 108.85531 390.85439 109.19179 394.13514 L 109.19179 394.20386 L 109.20161 394.26278 C 109.62181 397.45633 109.82999 400.50329 109.82999 403.394 C 109.82999 406.52834 109.58396 409.25851 109.12306 411.56301 L 109.10342 411.62192 L 109.0936 411.68084 C 108.74984 413.67464 108.15743 414.54751 107.93502 414.75403 L 100.91478 421.26371 L 110.41911 422.45175 C 111.2584 422.55666 113.56904 423.08624 116.75205 424.03254 L 116.80115 424.04236 L 116.85024 424.06199 C 120.12699 424.9476 123.72259 425.92467 127.62116 426.98791 L 127.63098 426.98791 L 127.64079 426.98791 C 131.66062 428.05987 135.67763 429.08818 139.69794 430.07093 C 143.81123 431.0764 147.42581 431.77794 150.5965 432.16227 L 151.89255 432.31937 L 153.07077 431.75971 C 155.02723 430.82061 157.48879 429.86586 160.42484 428.9418 C 163.43439 428.08316 166.53582 427.26277 169.72298 426.48717 L 169.7328 426.48717 L 169.74262 426.48717 C 172.99735 425.71694 176.2079 425.0751 179.36477 424.56274 C 182.62484 424.04799 185.55335 423.70802 188.13271 423.54161 L 200.03276 422.77577 L 200.03276 438.63268 C 200.03276 443.01437 199.68727 446.8109 199.05091 449.99271 L 199.04109 450.05162 L 199.03127 450.10071 C 198.50893 453.08549 197.56608 455.13441 196.40973 456.52203 L 201.76082 463.41463 C 205.31895 461.72028 208.57157 460.43228 211.5008 459.53631 C 214.42747 458.66767 217.09717 458.25991 219.52253 458.25991 C 221.53067 458.25991 223.12214 458.53349 224.30415 458.9472 L 235.04561 462.7077 L 229.72397 452.64371 C 229.00501 451.28569 228.42329 449.99343 227.96646 448.77521 L 227.94682 448.72612 L 227.92718 448.67703 C 227.52861 447.68059 227.20432 446.53916 226.98461 445.22091 L 226.98461 445.19145 L 226.97479 445.17182 C 226.73747 443.827 226.54142 442.33312 226.37586 440.70439 C 226.29546 439.1411 226.24822 437.26036 226.24822 435.04892 L 226.24822 426.91918 C 226.89497 427.05483 227.61891 427.10145 228.24138 427.26283 L 228.26101 427.27265 L 228.28065 427.27265 C 230.50851 427.82961 232.91734 428.63967 235.48745 429.71746 L 237.74571 430.66986 L 239.7585 429.26581 C 243.65818 426.55299 247.53271 424.2888 251.37382 422.45175 L 251.39345 422.44194 L 251.41309 422.43212 C 255.25866 420.55024 258.94101 419.31841 262.46875 418.69126 L 268.62496 417.6014 L 265.59104 412.13249 C 265.51978 412.00422 265.38398 411.69352 265.24739 411.239 L 273.07275 411.239 C 273.09863 417.5005 274.91413 423.31198 278.47294 428.12686 L 279.80826 429.93347 L 283.3822 429.93347 L 284.01059 429.74692 C 286.60955 428.96723 289.11189 428.27767 291.52176 427.67521 C 293.85882 427.09094 296.39189 426.57827 299.11147 426.15334 L 302.88179 425.56423 L 302.88179 416.63919 L 300.12278 415.61806 L 300.12278 415.60824 C 300.08784 415.53029 300.01782 415.38122 299.91659 415.1075 C 299.66057 414.41529 299.3979 413.08495 299.31766 411.239 L 310.55005 411.239 C 310.39818 413.52059 309.93974 415.43664 309.24419 417.04175 C 308.42976 418.92121 307.50394 419.87558 306.16117 420.54696 L 303.27453 421.98047 L 304.41348 429.93347 L 308.29179 429.93347 C 311.49735 429.93347 314.72962 429.53075 317.97286 428.74543 C 320.2097 428.21845 322.22484 427.46391 324.26653 426.74245 C 324.63124 427.04044 324.94907 427.43514 325.33675 427.69485 C 326.40389 428.43745 327.54336 429.11725 328.76341 429.72728 L 328.83214 429.75674 L 328.89105 429.78619 C 330.12452 430.35548 331.53428 430.9457 333.14247 431.57316 C 334.66452 432.25092 336.60552 433.16127 338.9354 434.28307 L 342.4308 435.96204 L 347.17314 428.86325 L 345.19962 426.32025 C 343.84431 424.57771 342.84296 423.20441 341.84168 421.82337 L 347.6837 421.82337 C 348.86627 421.82337 350.63875 422.00149 352.85807 422.41248 L 352.86788 422.41248 L 352.88752 422.41248 C 355.1764 422.8212 357.52103 423.40355 359.9274 424.15036 L 360.01577 424.17 L 360.09432 424.19945 C 362.55143 424.85468 364.92075 425.66619 367.20293 426.64426 C 369.44384 427.60465 371.23197 428.61826 372.56384 429.59964 L 375.17557 431.51425 L 377.80693 429.63891 C 378.66463 429.02627 380.04661 428.26543 381.84234 427.47884 C 383.841 426.73249 385.92035 426.01787 388.09674 425.34822 L 388.17529 425.32858 L 388.24402 425.29913 C 390.35613 424.56801 392.45901 424.00215 394.54751 423.60052 L 394.62606 423.5907 L 394.70461 423.57107 C 396.88366 423.06821 398.72065 422.74008 400.15389 422.58921 L 405.85845 421.99028 L 405.79954 421.82337 L 411.15063 421.82337 C 413.51296 421.82337 416.25665 422.05828 419.3491 422.55976 C 422.50743 423.07192 425.6172 423.71686 428.68652 424.48419 L 428.69633 424.48419 L 428.71597 424.48419 C 431.84616 425.24559 434.68992 426.08892 437.25809 426.99773 C 439.81217 427.98994 441.77483 428.92831 443.00192 429.67819 L 446.21258 431.64189 L 448.68685 428.80434 C 448.87835 428.58548 449.51158 428.02826 450.49346 427.39047 C 451.66547 426.69073 452.92984 426.02446 454.2834 425.38749 L 454.3325 425.36786 L 454.38159 425.3384 C 455.8001 424.62915 457.19971 424.0521 458.58392 423.5907 L 458.64283 423.56125 L 458.71156 423.54161 C 460.20888 422.98996 461.53373 422.62155 462.64879 422.41248 L 467.49914 421.49936 L 466.10491 416.75701 C 465.73351 415.49426 465.3709 413.90746 465.04451 412.05394 C 464.82315 410.32813 464.69104 407.8125 464.69104 404.59186 L 464.69104 400.06552 C 464.69104 398.93049 464.74032 398.08068 464.78922 397.68944 L 465.6238 390.99321 L 459.13376 392.84891 C 454.73023 394.10706 450.88843 396.38071 447.98973 399.61387 L 447.97991 399.62369 C 446.21819 401.59682 445.01795 403.91591 444.09178 406.36901 C 442.68992 406.15891 441.45408 406.06216 439.83054 405.69154 C 438.28737 405.32817 437.36435 404.96326 436.16823 404.59186 C 436.38009 402.68813 436.637 400.89312 436.74752 398.75966 C 437.01785 395.14139 437.1599 391.81141 437.1599 388.7644 C 437.1599 385.28877 437.02169 381.84768 436.74752 378.45495 C 436.73952 378.31034 436.71645 378.16756 436.70825 378.02294 C 437.05972 378.21471 437.39407 378.48367 437.74901 378.66114 C 440.96906 380.27117 443.98228 381.25323 447.05697 381.25323 C 451.13835 381.25323 455.11916 379.85729 458.65265 377.39455 L 458.67228 377.38474 L 458.6821 377.38474 C 462.28367 374.84246 465.15273 371.46374 467.14567 367.47785 L 469.81631 362.13657 L 463.93501 361.08599 C 460.20315 360.42255 456.50659 359.43443 452.84008 358.10116 C 449.19143 356.77438 446.07422 355.25946 443.47321 353.60427 L 441.4015 352.28859 L 439.18252 353.32936 C 435.37691 355.11567 425.55441 358.71972 425.55441 358.71972 C 420.71083 360.24556 416.01305 361.38999 411.47465 362.14639 L 406.41811 362.99078 L 407.9498 367.89022 C 408.80811 370.62118 409.48372 374.02077 409.90368 378.0524 L 409.90368 378.10149 L 409.9135 378.15058 C 410.4183 382.10484 410.66953 386.40003 410.66953 391.02266 C 410.66953 393.85846 410.58501 396.60351 410.41425 399.25059 C 410.34266 400.3601 410.26004 401.4292 410.15896 402.47106 L 402.55943 402.47106 C 402.57108 401.70426 402.60339 400.94156 402.66743 400.17353 L 403.17799 394.1155 L 407.13486 393.79149 L 405.06315 388.25384 C 404.62421 387.08335 404.18655 385.57899 403.77692 383.77659 C 403.36858 381.97989 403.03421 380.09317 402.78525 378.10149 C 402.52682 376.03408 402.30945 373.9628 402.13723 371.89618 C 401.96875 369.78535 401.89177 367.86795 401.89177 366.15235 C 401.89177 363.92372 402.01911 362.13834 402.2256 360.89944 L 403.06017 355.87235 L 397.97418 355.70544 C 392.82787 355.53099 387.6397 355.21846 382.402 354.7825 C 377.20024 354.26119 372.85001 353.65461 369.42191 352.98571 L 367.08511 352.53405 L 365.40614 354.21302 C 362.49825 357.1209 359.59605 359.48207 356.71675 361.32163 L 356.68729 361.34127 L 356.66765 361.35109 C 354.06709 363.06003 351.19953 364.20859 347.92917 364.81703 L 343.01991 365.73015 L 344.47305 370.51177 C 344.99925 372.24071 345.60851 374.94611 346.21093 378.47459 L 346.22074 378.5335 L 346.23056 378.60223 C 346.85429 381.72089 347.21242 385.93682 347.21242 391.1503 C 347.21242 393.15427 347.11888 395.40865 346.94732 397.89563 L 346.94732 397.97418 L 346.94732 398.05273 C 346.89585 399.54535 346.7894 401.01515 346.64294 402.47106 L 336.82442 402.47106 C 336.82401 402.33452 336.82442 402.19724 336.82442 402.05868 L 336.82442 337.68845 C 336.82442 333.29618 337.12887 329.48435 337.68845 326.26951 C 338.29243 323.29265 339.2766 321.20411 340.44745 319.7991 L 335.09636 312.9065 z M 145.16686 339.29869 C 146.50092 339.56203 147.83281 339.82635 148.80953 340.11362 L 148.8488 340.12344 L 148.87826 340.13326 C 150.2647 340.51838 151.49105 340.96506 152.57002 341.46858 L 152.73694 341.54713 L 152.89403 341.60604 C 154.13134 342.07003 155.33029 342.60886 156.48761 343.2261 C 157.13216 343.56985 157.90608 344.00615 158.61823 344.3945 C 158.68063 345.60514 158.77533 346.78212 158.77533 348.06663 L 158.77533 354.57631 C 158.77533 363.0573 158.68705 372.03632 158.51023 381.4987 L 158.51023 381.51833 L 158.51023 381.53797 C 158.43153 389.87479 158.30522 397.78073 158.15676 405.48535 C 157.64854 405.66717 157.7255 405.66491 157.07672 405.84863 C 157.07033 405.85019 157.06349 405.85688 157.05709 405.85845 C 157.03268 405.86535 157.00502 405.87067 156.97854 405.87809 C 154.59444 406.4707 151.87923 407.59929 148.77025 409.08875 C 147.42647 408.82564 146.07962 408.55845 145.01958 408.26399 C 143.59168 407.86736 142.25941 407.44006 141.01362 406.97776 C 139.81489 406.41468 138.61412 405.81323 137.41022 405.17115 C 136.79088 404.84084 136.03992 404.42334 135.35815 404.05184 C 135.34309 401.0941 135.31839 398.06456 135.25015 394.47878 L 135.25015 394.39042 L 135.25015 381.57724 L 135.25015 369.87357 L 135.25015 358.47426 L 135.25015 358.43499 C 135.33775 354.85002 135.42775 351.52187 135.51525 348.45937 L 135.51525 348.44955 C 135.57225 346.39906 135.63524 344.89582 135.69198 343.25555 C 136.26622 343.03008 136.21179 343.01853 137.06658 342.74499 L 137.01748 342.75481 C 139.28642 342.05667 142.12252 340.76104 145.16686 339.29869 z M 371.71945 374.98902 C 372.49731 375.13489 373.18674 375.35482 373.98753 375.47994 L 374.06607 375.49958 L 374.14462 375.49958 C 375.59452 375.67532 376.67269 375.67994 377.94439 375.7745 C 378.01259 376.57802 377.99338 377.39708 378.10149 378.18985 L 378.12112 378.28804 L 378.13094 378.38622 C 378.22514 378.9045 378.35445 379.37096 378.45495 379.87864 L 372.25947 381.42015 C 372.19307 380.56098 372.17617 379.80603 372.09255 378.90661 L 372.08273 378.89679 C 372.01133 377.75678 371.83088 376.25282 371.71945 374.98902 z M 237.4217 377.84621 L 237.44133 377.84621 C 237.38723 378.67045 237.32845 379.36756 237.27442 380.23211 L 237.27442 380.31066 L 237.27442 380.37939 C 237.18432 383.26317 237.13696 386.14566 237.13696 389.0295 L 237.13696 398.66147 L 237.13696 398.72039 C 237.19486 400.86284 237.31425 402.31897 237.41188 403.94384 C 236.49101 404.46666 235.62813 404.85235 234.63324 405.5148 C 233.58017 406.19981 232.83171 406.85371 231.9626 407.51778 C 230.73028 407.12871 229.57098 406.72351 228.19228 406.37883 C 227.46542 406.19711 226.91854 406.1837 226.24822 406.045 L 226.24822 381.30233 C 226.6312 381.13088 226.79586 381.00153 227.25952 380.82122 L 227.35771 380.78194 L 227.4559 380.74267 C 228.84158 380.12681 230.37879 379.57373 232.06078 379.09316 C 233.77877 378.60231 235.53305 378.18513 237.34315 377.85602 L 237.4217 377.84621 z M 401.05719 394.29223 L 396.94323 395.51955 C 392.3287 396.89409 388.63267 398.6974 386.0054 401.58739 L 385.96612 401.62667 L 385.92685 401.66594 C 384.60522 403.19626 383.66623 404.98325 382.92238 406.86976 C 382.62413 406.84126 382.43385 406.83253 382.11726 406.80103 C 380.41166 406.54552 378.66954 406.2905 376.88399 406.03518 C 375.10153 405.69507 373.39793 405.35262 371.78818 405.01406 C 371.72578 405.00016 371.7119 404.98878 371.65072 404.97478 C 371.74962 404.01238 371.81939 403.22055 371.93546 402.13723 C 372.08167 400.77264 372.13528 399.36178 372.23001 397.97418 C 376.41003 397.31439 380.60767 396.6705 384.95482 396.11848 L 384.98427 396.10866 L 385.02355 396.10866 C 390.4602 395.332 395.80112 394.72692 401.05719 394.29223 z M 186.60102 411.239 L 200.03276 411.239 L 200.03276 421.44045 L 190.21424 415.29405 C 188.6747 414.33184 187.49973 413.08244 186.60102 411.239 z M 337.27607 411.239 L 345.26835 411.239 C 345.25035 411.3129 345.23758 411.39135 345.21926 411.46483 C 344.75972 413.21697 344.22646 414.44657 343.87412 415.01913 L 340.66346 420.23277 L 340.64382 420.20331 L 340.61437 420.16404 C 339.61583 418.80888 338.86484 417.41475 338.30702 415.97153 C 337.87029 414.63952 337.51346 413.06804 337.27607 411.239 z M 402.69689 411.239 L 408.70582 411.239 C 408.62802 411.52981 408.55135 411.81282 408.47018 412.08339 L 408.44072 412.18158 L 408.41127 412.27977 C 408.04438 413.74734 407.59346 414.64313 407.48833 414.79331 L 404.68023 418.80908 L 403.87511 416.60973 C 403.36297 415.21964 403.01513 413.85443 402.79507 412.50559 C 402.7585 412.12531 402.72606 411.70388 402.69689 411.239 z " /></g><g
     inkscape:groupmode="layer"
     id="layer2"
     inkscape:label="Content"
     style="display:inline"
     transform="scale(0.1989225)"><g
       inkscape:groupmode="layer"
       id="layer3"
       inkscape:label="Kruh"
       transform="scale(5.0270836)"><path
         id="path2"
         style="fill:none;stroke:#000000;stroke-width:0.949978"
         inkscape:label="vnejsi kruh"
         transform="scale(0.19892249)"
         d="M 569.5184,284.99338 A 284.52502,284.52502 0 0 1 284.99338,569.5184 284.52502,284.52502 0 0 1 0.46835327,284.99338 284.52502,284.52502 0 0 1 284.99338,0.46835327 284.52502,284.52502 0 0 1 569.5184,284.99338 Z" /><path
         id="path2-9"
         style="fill:none;stroke:#000000;stroke-width:0.95000007;stroke-dasharray:none"
         inkscape:label="vnitrni kruh"
         transform="scale(0.19892249)"
         d="M 529.26178,284.99338 A 244.2684,244.2684 0 0 1 284.99338,529.26178 244.2684,244.2684 0 0 1 40.724976,284.99338 244.2684,244.2684 0 0 1 284.99338,40.724976 244.2684,244.2684 0 0 1 529.26178,284.99338 Z" /><path
         style="baseline-shift:baseline;display:inline;overflow:visible;opacity:1;fill:none;fill-opacity:1;stroke:#000000;stroke-width:0.188976;stroke-dasharray:none;stroke-opacity:1;enable-background:accumulate;stop-color:#000000;stop-opacity:1"
         d="m 62.117761,15.457341 c -1.175072,0.241926 -2.096751,1.967158 -3.19139,0.453821 -1.35285,-0.799216 -3.176872,0.07533 -3.855455,0.893946 -1.393046,-1.686698 -3.372348,-0.42837 -4.195671,1.129927 -1.449846,-0.620164 -3.273755,0.506286 -4.730931,-0.275407 -1.404981,-1.336147 -4.059507,-1.028045 -5.244264,0.441625 -0.887269,1.168177 0.411062,2.238043 -0.713952,3.220667 -0.497618,1.602624 1.118701,2.396034 1.544453,3.554766 0.14006,0.941328 -0.557058,3.394404 1.178291,2.820972 0.0038,2.505573 0.141674,5.003743 0.385358,7.495178 0.08319,3.548341 0.217127,7.147812 -0.611283,10.624891 -0.241495,1.979229 -0.384057,4.044156 -1.465462,5.705414 -0.435159,2.053208 1.741993,3.547144 3.482318,3.9868 1.483147,0.302873 2.979858,0.657279 4.360499,1.012698 1.539266,-0.0059 2.838974,0.700978 4.309549,0.663701 2.179064,0.209872 4.279481,-0.423834 6.4266,-0.613165 2.070728,-0.249797 3.823145,-1.429986 5.39762,-2.709855 1.406728,-0.621964 2.244063,-1.94766 2.969127,-3.234979 -0.914335,-0.829358 -1.618341,-1.5326 -0.256842,-2.338303 1.022321,-1.60328 -0.818935,-2.228635 -1.856035,-1.160821 1.282067,-1.412254 2.425878,-2.946745 3.604086,-4.447616 1.461955,-2.066866 2.852981,-4.248549 3.351946,-6.769621 0.542537,-1.872053 0.219515,-3.91189 -0.247331,-5.766007 -1.20007,-2.507011 -3.105465,-4.846214 -5.813331,-5.776172 -1.411069,-0.568526 -0.04691,-2.515728 -0.896438,-3.660876 -0.707901,-1.097065 -0.0065,-3.121571 -2.072179,-2.941854 -0.978173,-0.101723 -1.427812,-0.453985 -0.797525,-1.185171 0.192635,-0.611368 -0.512871,-1.126525 -1.061758,-1.124559 z m -0.253431,0.684901 c 1.730943,0.08563 -0.425474,1.274916 0,0 z m -8.876059,0.887916 c 2.414443,-0.09341 1.474184,3.215399 3.936738,3.070628 1.475576,0.320394 2.628995,-0.86566 2.91908,-1.74883 0.54518,-1.117277 2.849653,-1.196677 2.891622,0.373444 0.496377,0.671167 2.861428,-0.302815 1.635097,1.106562 -0.867979,2.190797 -3.090173,-1.673691 -3.038195,0.672965 0.858909,1.147117 2.870012,2.3939 1.371061,3.905312 -0.599628,0.849198 -2.318296,1.040569 -1.029489,2.201017 1.146058,1.288718 -0.826003,1.377323 -0.876289,2.656954 -0.943447,0.30149 -2.200987,-0.560755 -2.041777,-1.574843 -0.02377,-1.113066 -0.04742,-2.226134 -0.0711,-3.339203 0.831533,0.09395 1.423923,-1.825634 0.02385,-0.998271 -1.114517,-0.787757 -3.03006,-0.41826 -3.720214,-1.030498 -0.264573,-0.767182 -2.613563,-0.428252 -0.78689,-0.582276 0.700253,-0.379366 2.948949,-0.02789 2.547248,-1.126847 -2.282713,0.237295 -4.635298,0.392442 -6.903187,-0.09183 -0.322252,-1.559723 0.596729,0.104752 1.122642,-0.742146 0.690026,-0.330335 2.410177,0.690253 2.613322,-0.98212 -0.369975,-0.650005 -2.557163,0.272935 -1.19902,-1.116535 0.178306,-0.232556 0.309258,-0.539514 0.605507,-0.653479 z m -10.824112,1.310198 c -0.849889,1.323077 1.453727,1.980333 1.582811,2.252075 -1.469774,1.091241 -0.285147,3.287286 -0.559002,4.798573 -0.60808,-0.350207 -0.489655,-2.327461 -1.629217,-2.819587 -0.922287,-1.417553 1.839536,-1.411 0.555499,-2.800034 -0.130238,-0.44166 -0.501484,-1.117848 0.04991,-1.431027 z m 3.676996,0.451769 c 0.946527,0.769315 2.863407,-0.296907 2.858208,1.477432 -1.177252,0.59281 -3.60509,-0.160625 -3.822322,-0.261973 0.493128,-0.262866 0.528156,-0.918607 0.964114,-1.215459 z m 18.790985,2.308796 c 1.394557,0.868811 0.08882,1.679608 -0.706008,0.55424 -0.642162,0.132014 0.589915,-0.693194 0.706008,-0.55424 z m -19.821163,4.860554 c 1.140379,0.314149 3.041372,-0.315489 2.797582,1.082423 2.293399,1.160796 -1.526341,-0.441994 -2.142431,-0.105514 -0.02357,0.491552 -0.441751,-1.033031 -0.655151,-0.976906 z m 20.680441,2.704061 c 1.692225,0.188206 2.423674,1.649685 3.297406,3.011953 0.85443,2.672984 0.23248,3.357989 -0.747543,5.629625 -1.145494,1.980927 -1.919104,3.55455 -3.464679,5.201755 -0.22691,-1.144206 -0.114107,-3.181421 -0.253204,-4.658026 0.213894,-2.841682 0.196778,-3.02811 0.279102,-5.682938 0.166139,-0.880348 0.29443,-2.812803 0.888918,-3.502369 z"
         id="path23"
         inkscape:label="znak"
         sodipodi:nodetypes="ccccccccccccccccccccccccccccccsccccccccccccccccccssccccccccccccccccccccccccc" /></g></g><style
     id="style1-5">
		tspan { white-space:pre } 
		.s0 { fill: none;stroke: #ff0000;stroke-miterlimit:100 } 
	</style></svg>
