<?xml version="1.0" encoding="UTF-8" standalone="no"?>
<svg
   version="1.2"
   viewBox="0 0 113.38583 113.38583"
   width="30mm"
   height="30mm"
   id="svg1"
   sodipodi:docname="TravicTokenLaserTemplate.svg"
   inkscape:version="1.4.2 (2aeb623e1d, 2025-05-12)"
   xml:space="preserve"
   xmlns:inkscape="http://www.inkscape.org/namespaces/inkscape"
   xmlns:sodipodi="http://sodipodi.sourceforge.net/DTD/sodipodi-0.dtd"
   xmlns="http://www.w3.org/2000/svg"
   xmlns:svg="http://www.w3.org/2000/svg"><sodipodi:namedview
     id="namedview1"
     pagecolor="#ffffff"
     bordercolor="#666666"
     borderopacity="1.0"
     inkscape:showpageshadow="2"
     inkscape:pageopacity="0.0"
     inkscape:pagecheckerboard="0"
     inkscape:deskcolor="#d1d1d1"
     inkscape:zoom="6.96473"
     inkscape:cx="58.150137"
     inkscape:cy="76.959193"
     inkscape:window-width="1920"
     inkscape:window-height="1043"
     inkscape:window-x="0"
     inkscape:window-y="0"
     inkscape:window-maximized="1"
     inkscape:current-layer="layer1"
     showgrid="false"
     inkscape:document-units="mm" /><defs
     id="defs1"><clipPath
       clipPathUnits="userSpaceOnUse"
       id="cp1"><path
         d="m 275.5,535.5 c -143.78,0 -260,-116.22 -260,-260 0,-143.78 116.22,-260 260,-260 143.78,0 260,116.22 260,260 0,143.78 -116.22,260 -260,260 z"
         id="path1" /></clipPath><clipPath
       clipPathUnits="userSpaceOnUse"
       id="cp1-2"><path
         d="m 275.5,535.5 c -143.78,0 -260,-116.22 -260,-260 0,-143.78 116.22,-260 260,-260 143.78,0 260,116.22 260,260 0,143.78 -116.22,260 -260,260 z"
         id="path1-7" /></clipPath></defs><style
     id="style1">
		tspan { white-space:pre } 
		.s0 { fill: none;stroke: #ff0000;stroke-miterlimit:100 } 
	</style><g
     inkscape:groupmode="layer"
     id="layer1"
     inkscape:label="Template"
     transform="scale(0.1989225)"><g
       id="text2"
       inkscape:label="Text"
       style="opacity:1" /><path
       id="path4"
       style="opacity:1;font-size:133px;font-family:'New Rocker';-inkscape-font-specification:'New Rocker';letter-spacing:2.02104px;baseline-shift:baseline;white-space:pre;display:inline;overflow:visible;enable-background:accumulate;stop-color:#000000;stop-opacity:1;stroke-width:0.95000006;stroke-dasharray:none;stroke:#000000;stroke-opacity:1;fill:none"
       d="M 132.86425 293.71129 L 131.64675 294.27094 C 129.55286 295.23735 127.05593 296.20086 124.19449 297.12813 C 121.27519 297.98538 118.22339 298.79709 115.03381 299.57294 C 111.86385 300.34401 108.7039 300.98419 105.5393 301.49737 L 105.52948 301.49737 L 105.51966 301.50719 C 102.4533 302.01825 99.629301 302.35248 97.056096 302.5185 L 82.652323 303.44144 L 95.062936 310.81515 C 96.933755 311.92595 98.262492 313.54165 99.235808 316.39207 C 100.31213 319.54415 100.85586 322.89909 100.85586 326.52479 C 100.85586 328.64317 100.6566 330.81594 100.25693 333.05411 L 100.24712 333.13265 L 100.2373 333.2112 C 99.915071 335.46675 99.42976 337.62191 98.793975 339.69143 C 98.152 341.69244 97.397617 343.55437 96.535714 345.27817 L 96.516077 345.31744 L 96.49644 345.3469 C 95.767086 346.87855 94.982546 348.04746 94.198906 348.89138 L 89.181641 354.29157 L 95.514588 356.01963 C 95.593398 356.11343 95.882391 356.39678 96.201885 357.09967 C 96.902945 358.642 97.582868 360.7907 98.155771 363.49153 L 98.175408 363.57007 L 98.195045 363.64862 C 98.843332 366.24177 99.341154 369.18491 99.677642 372.46566 L 99.68746 372.52457 L 99.697279 372.5933 C 100.11749 375.78684 100.32566 378.82399 100.32566 381.7147 C 100.32566 384.84903 100.06982 387.57921 99.608912 389.88371 L 99.599094 389.94263 L 99.589275 390.00154 C 99.245516 391.99534 98.643277 392.86821 98.420871 393.07473 L 91.410446 399.59423 L 100.90496 400.78228 C 101.74425 400.88719 104.0549 401.40694 107.2379 402.35324 L 107.29682 402.37288 L 107.34591 402.39251 C 110.62267 403.27812 114.20843 404.24536 118.10701 405.30861 L 118.11683 405.31843 L 118.13646 405.31843 C 122.15629 406.39039 126.17329 407.41871 130.19361 408.40145 C 134.3069 409.40692 137.92147 410.10847 141.09217 410.49279 L 142.38822 410.64989 L 143.55662 410.08042 C 145.51154 409.14206 147.97768 408.1957 150.91069 407.27232 C 153.92884 406.41112 157.04151 405.59537 160.23829 404.81769 L 160.23829 404.80787 C 163.49835 404.03642 166.70839 403.39617 169.87026 402.88344 C 173.12161 402.37062 176.04493 402.03817 178.61856 401.87213 L 192.46268 400.97865 L 180.70009 393.62457 C 178.74907 392.40518 177.39661 390.72378 176.42903 387.95928 C 175.86241 386.34034 175.45089 384.64656 175.18208 382.87329 L 193.17943 382.87329 L 193.17943 400.17353 L 195.6537 401.41066 C 197.00581 402.08671 198.73798 402.99295 200.83788 404.13039 C 202.90088 405.24785 204.92146 406.41413 206.89591 407.61597 L 209.71382 409.32439 L 212.18809 407.13486 C 212.69456 406.68465 213.62387 405.99326 214.90782 405.19079 C 216.19885 404.38389 217.58339 403.61246 219.06106 402.87362 L 219.14943 402.82453 L 219.23779 402.77544 C 220.74788 401.9365 222.30213 401.14716 223.90159 400.38953 C 225.46757 399.64774 226.92209 399.03585 228.26101 398.56329 L 231.23603 397.51271 L 231.23603 388.25384 L 227.01406 388.03783 C 224.62607 387.91215 223.03038 387.19084 221.4666 385.64211 C 220.85762 385.00095 220.32505 384.11447 219.95454 382.87329 L 238.9632 382.87329 L 238.9632 389.56952 C 238.9632 391.59143 238.66225 392.9561 238.41337 393.54602 C 238.33554 393.73049 238.29995 393.84454 238.27591 393.89949 L 238.26609 393.89949 L 235.36962 394.96971 L 235.36962 404.53295 L 272.75856 404.53295 L 272.75856 393.98786 L 268.98825 393.39875 C 266.91879 393.0754 266.06567 392.51711 265.82668 392.30889 C 265.65473 391.99723 265.17866 390.78072 265.17866 388.37166 L 265.17866 382.87329 L 292.3956 382.87329 C 292.35219 384.76329 292.2839 386.65853 292.18941 388.5484 C 292.02862 391.67384 291.54687 394.115 290.89337 395.8141 L 288.59584 401.76413 L 294.97788 401.87213 C 299.83265 401.95583 304.04612 402.50401 307.6045 403.45291 L 307.61431 403.46273 L 307.62413 403.46273 C 311.31919 404.42666 314.62874 405.81178 317.60957 407.61597 L 320.89877 409.60913 L 328.48849 400.4779 C 328.72672 400.8214 328.85495 401.18739 329.10706 401.52848 C 330.87935 403.92629 332.9348 405.9491 335.27309 407.50796 L 339.48524 410.31606 L 341.7435 405.78972 C 342.098 405.08071 342.76018 404.03159 343.71702 402.7558 C 344.64707 401.51574 345.69873 400.29299 346.8884 399.10331 C 348.11316 397.87855 349.32317 396.79418 350.51144 395.84356 L 350.52126 395.83374 L 350.54089 395.82392 C 351.68233 394.8965 352.6171 394.38671 353.21153 394.17441 L 356.17673 393.11401 L 356.17673 384.945 L 352.72061 384.1497 C 352.11212 384.00927 351.7815 383.84128 351.51293 383.68823 C 351.50763 383.66673 351.37721 383.48296 351.19874 382.95184 C 351.19105 382.92554 351.18679 382.90037 351.1791 382.87329 L 362.83369 382.87329 C 362.82391 383.96509 362.77911 385.13664 362.70604 386.3785 L 362.70604 386.50614 L 362.70604 386.6436 C 362.70604 387.96275 362.66045 389.28079 362.5784 390.60047 C 362.491 391.91075 362.40923 393.08219 362.32312 394.1155 L 361.99911 397.9349 L 365.73015 398.82839 C 369.54934 399.74167 373.23979 400.98391 376.80544 402.55943 C 380.40128 404.14828 383.32321 405.78746 385.56356 407.40978 L 386.73197 408.26399 L 391.03248 408.26399 L 409.82513 393.72276 L 413.37944 382.87329 L 425.31876 382.87329 C 425.27542 384.76002 425.20681 386.66179 425.11257 388.5484 C 424.95156 391.67173 424.4599 394.1158 423.80671 395.8141 L 421.51899 401.76413 L 427.90103 401.87213 C 432.75581 401.95583 436.95947 402.50401 440.51784 403.45291 L 440.53747 403.46273 L 440.54729 403.46273 C 444.24235 404.42666 447.5519 405.81178 450.53273 407.61597 L 453.82193 409.60913 L 461.41165 400.4779 C 461.64991 400.82144 461.76827 401.18735 462.0204 401.52848 C 463.7927 403.92629 465.84814 405.9491 468.18643 407.50796 L 472.39858 410.31606 L 474.65684 405.78972 C 475.01134 405.08071 475.67352 404.03159 476.63036 402.7558 C 477.56041 401.51574 478.62189 400.29299 479.81156 399.10331 C 481.03632 397.87855 482.24633 396.79418 483.4346 395.84356 L 483.44442 395.83374 L 483.45424 395.82392 C 484.59568 394.8965 485.54026 394.38671 486.13469 394.17441 L 489.09989 393.11401 L 489.09989 384.945 L 485.63395 384.1497 C 485.02533 384.00925 484.69492 383.84129 484.42627 383.68823 C 484.42097 383.66673 484.30036 383.48296 484.1219 382.95184 C 483.80418 381.86401 483.47397 380.11912 483.22841 377.86584 C 483.06564 375.46829 482.98295 372.1731 482.98295 368.01787 C 482.98295 361.65557 483.1629 356.86605 483.48369 353.79083 C 483.8646 350.94862 484.62754 348.95674 485.50631 347.69352 L 490.38611 340.67328 L 481.83418 340.67328 C 477.84067 340.67328 474.68916 340.00927 472.24148 338.86667 C 469.72828 337.56194 467.136 335.54103 464.51431 332.681 L 462.07931 330.03 L 458.96684 331.84643 C 456.9716 333.01606 453.72019 334.2725 449.36433 335.36146 C 445.22407 336.39653 440.07434 336.95206 433.95906 336.95206 L 432.5452 336.95206 C 431.88702 336.81407 431.38652 336.82442 430.89568 336.82442 L 425.26967 336.82442 L 426.54608 342.30315 C 427.21557 345.17239 427.9954 347.61457 428.99089 349.71614 L 429.03016 349.80451 L 429.07926 349.88305 C 430.14336 351.90484 431.38541 353.66371 432.93794 355.08687 L 433.01648 355.1556 L 433.09503 355.22433 C 434.59014 356.47025 436.31866 357.42178 438.18103 357.95388 L 438.35776 357.99315 L 438.53449 358.03243 C 440.18257 358.36205 441.8996 358.52335 443.66958 358.52335 C 446.41772 358.52335 449.43269 357.98105 452.94809 357.03094 C 454.26853 356.67406 455.47436 356.12111 456.75767 355.69562 L 456.75767 359.5543 C 456.12343 359.7974 455.71231 360.02878 454.92161 360.27105 C 453.12957 360.75758 451.11083 361.21603 448.84394 361.63583 C 446.60469 362.0505 444.21756 362.38337 441.69606 362.63731 C 439.24795 362.80457 436.84265 362.8926 434.48926 362.8926 C 432.35566 362.8926 430.4235 362.76349 428.70615 362.52931 L 421.02807 361.48855 L 423.98344 368.65607 C 424.43141 369.74402 424.7904 371.10783 425.01439 372.75039 L 425.01439 372.76021 L 425.01439 372.77003 C 425.07626 373.2031 425.13539 373.64977 425.1813 374.10535 L 416.25627 374.10535 L 423.97363 350.54089 L 422.16702 348.61646 C 421.72791 348.14599 421.19801 347.18681 420.92988 345.32726 C 420.60626 342.97826 420.43896 340.47446 420.43896 337.82591 L 420.43896 337.4528 L 426.90936 327.74229 L 414.93077 331.43405 C 411.63232 332.44896 408.28852 333.28902 404.90605 333.96723 C 401.51517 334.55881 398.18214 334.98067 394.89116 335.23382 L 391.01285 335.53819 L 390.45319 344.57123 L 393.19256 345.85746 C 393.64697 346.07131 393.89205 346.25125 394.27259 347.2026 L 394.31187 347.29096 L 394.35114 347.37933 C 394.69202 348.13685 395.15626 350.31394 395.15626 353.52573 C 395.15626 355.89177 394.98891 358.76085 394.6457 362.10711 C 394.3064 365.32689 393.79728 368.64676 393.11401 372.0631 L 393.10419 372.12201 L 393.09437 372.1711 C 392.50186 375.55685 391.74028 378.8037 390.81647 381.91107 L 390.80666 381.95035 L 390.79684 381.98962 C 390.41724 383.35618 389.94039 384.13029 389.51061 385.22974 L 388.98041 384.93518 C 389.00641 383.85861 389.05896 382.74452 389.05896 381.7147 L 389.05896 376.00032 C 389.05896 366.30407 388.60817 357.81164 387.69418 350.48198 C 386.85478 343.02891 385.42568 337.36667 382.54928 333.17193 L 379.83937 329.21506 L 376.07887 332.21953 C 375.69585 332.52595 374.62958 333.16608 373.10386 333.85922 C 371.46771 334.511 369.6578 335.16728 367.6644 335.83275 C 365.74777 336.41498 363.78693 336.96007 361.7831 337.46262 C 359.78741 337.87629 358.10491 338.16392 356.80511 338.31683 L 352.85807 338.7783 L 352.85807 340.67328 L 348.92084 340.67328 C 344.92565 340.67328 341.76643 340.01016 339.31832 338.86667 C 336.80556 337.56191 334.21236 335.5405 331.59115 332.681 L 329.15615 330.03 L 326.04368 331.84643 C 324.04844 333.01606 320.80684 334.2725 316.45098 335.36146 C 312.31072 336.39653 307.15117 336.95206 301.0359 336.95206 L 299.63185 336.95206 C 298.97367 336.81407 298.47317 336.82442 297.98234 336.82442 L 292.35633 336.82442 L 292.63125 338.01246 L 289.81333 337.3448 C 286.22901 336.49139 282.97615 335.54981 280.0439 334.54652 C 277.14927 333.46775 274.98396 332.44528 273.74041 331.65988 L 269.07661 328.71432 L 267.17182 333.88868 C 266.56043 335.54302 265.83315 336.98831 265.17866 338.5623 L 265.17866 338.31683 L 260.44613 330.43256 L 257.23547 331.23768 C 254.46878 331.92935 251.28604 332.67148 247.71151 333.45667 C 244.25145 334.13114 241.07488 334.67212 238.13845 335.09636 L 219.40471 335.09636 L 219.40471 332.50427 C 219.40471 331.87164 219.44514 330.56569 219.53235 328.73396 L 219.53235 328.72414 C 219.61705 326.86133 219.74623 324.94521 219.91527 322.99012 C 220.17415 320.92331 220.43339 318.98036 220.69093 317.17755 C 220.93167 315.49235 221.24161 314.3281 221.33896 314.08472 L 225.89475 302.71487 L 215.09438 308.48816 C 211.40809 310.45989 207.96431 312.07367 204.78493 313.32869 C 201.88092 314.47501 198.67445 315.18134 195.09404 315.42004 L 186.56175 315.98951 L 191.52992 322.20464 L 191.5201 322.20464 L 191.5201 322.21446 C 191.53487 322.28941 191.8014 322.79181 191.93248 323.49086 L 191.93248 323.5105 L 191.9423 323.53996 C 192.17462 324.70156 192.37542 326.07874 192.54123 327.65392 L 192.54123 327.66374 L 192.54123 327.68337 C 192.70955 329.19819 192.84005 330.71565 192.92415 332.22935 L 192.93397 332.35699 L 192.94379 332.49445 C 193.11162 333.92106 193.17943 334.9653 193.17943 335.30255 L 193.17943 337.35462 C 190.53289 339.49691 187.82972 341.2199 185.0006 342.31297 L 182.14341 343.41265 L 182.14341 350.23652 L 181.52485 349.39213 C 179.65903 346.88044 178.08351 343.44781 176.94941 338.99431 L 176.94941 338.98449 C 175.79598 334.36489 175.22135 329.77685 175.22135 325.18947 C 175.22135 322.15015 175.4641 319.27123 175.94793 316.52953 L 175.95774 316.51971 L 175.95774 316.5099 C 176.41954 313.81605 177.16384 311.77576 178.02945 310.35368 L 181.88813 304.01092 L 174.47515 303.5789 C 173.6441 303.53 171.28048 303.10768 168.0342 302.2534 C 164.75415 301.36694 161.12938 300.39969 157.14545 299.3373 C 153.1543 298.273 149.11654 297.24993 145.03922 296.27392 L 145.01958 296.2641 C 140.92731 295.17356 137.32497 294.38418 134.17993 293.90766 L 132.86425 293.71129 z M 135.66253 317.61939 C 136.9959 317.88263 138.32888 318.14718 139.3052 318.43433 L 139.33465 318.44414 L 139.37393 318.45396 C 140.76037 318.83908 141.98673 319.29559 143.06569 319.7991 L 143.22279 319.86783 L 143.37989 319.93656 C 144.6172 320.40055 145.81614 320.93938 146.97347 321.55662 C 147.61801 321.90038 148.40176 322.32684 149.1139 322.7152 C 149.1762 323.92548 149.26118 325.10322 149.26118 326.38733 L 149.26118 332.90683 C 149.26118 341.38783 149.18277 350.35701 149.0059 359.8194 L 148.99608 359.84885 L 148.99608 359.86849 C 148.91738 368.20532 148.79108 376.10144 148.64261 383.80605 C 148.11076 383.99631 148.22705 383.988 147.47421 384.19879 C 145.09028 384.79124 142.37465 385.93 139.26592 387.41927 C 137.9212 387.15603 136.56609 386.88914 135.50543 386.59451 C 134.07609 386.19747 132.74633 385.76129 131.49947 385.29846 C 130.30151 384.73569 129.10901 384.14334 127.90589 383.50168 C 127.28655 383.17136 126.52577 382.75387 125.844 382.38236 C 125.829 379.42353 125.81454 376.40148 125.74582 372.8093 L 125.74582 372.72094 L 125.74582 359.90777 L 125.74582 348.20409 L 125.74582 336.79496 L 125.74582 336.76551 C 125.83342 333.18055 125.92342 329.84257 126.01092 326.78007 C 126.06792 324.7288 126.12106 323.22681 126.17783 321.58607 C 126.73373 321.36784 126.73965 321.33478 127.51315 321.08533 L 127.56225 321.06569 C 129.8237 320.36435 132.63808 319.07218 135.66253 317.61939 z M 293.348 341.07584 L 293.63274 342.30315 C 294.30223 345.17239 295.08207 347.61457 296.07755 349.71614 L 296.11682 349.80451 L 296.1561 349.88305 C 297.2202 351.90484 298.46224 353.66371 300.01478 355.08687 L 300.09333 355.1556 L 300.18169 355.22433 C 301.6768 356.47025 303.40533 357.42178 305.26769 357.95388 L 305.44442 357.99315 L 305.62115 358.03243 C 307.26923 358.36205 308.97644 358.52335 310.74642 358.52335 C 313.49456 358.52335 316.50953 357.98105 320.02493 357.03094 C 321.34537 356.67406 322.56102 356.12111 323.84433 355.69562 L 323.84433 359.5543 C 323.20991 359.79749 322.79928 360.02869 322.00827 360.27105 C 320.21623 360.75758 318.18767 361.21603 315.92078 361.63583 C 313.68154 362.0505 311.2944 362.38337 308.7729 362.63731 C 306.3248 362.80457 303.92931 362.8926 301.57592 362.8926 C 299.44231 362.8926 297.51015 362.76349 295.79281 362.52931 L 288.10491 361.48855 L 291.06028 368.65607 C 291.50826 369.74402 291.86724 371.10783 292.09123 372.75039 L 292.09123 372.76021 L 292.10105 372.77003 C 292.16291 373.2031 292.21203 373.64977 292.25814 374.10535 L 265.17866 374.10535 L 265.17866 371.43471 L 273.3084 360.00595 L 283.04837 365.10176 L 285.36554 362.44094 C 287.5394 359.941 289.24421 356.94014 290.54972 353.52573 L 290.55954 353.50609 L 290.56936 353.47663 C 291.85995 350.00198 292.73072 346.24527 293.21054 342.21479 L 293.348 341.07584 z M 235.76237 344.69887 L 238.9632 346.08329 L 238.9632 374.10535 L 219.40471 374.10535 L 219.40471 354.06574 L 230.94147 355.51889 L 231.90369 351.67984 C 232.22732 350.38531 232.8103 348.96456 233.68084 347.42842 C 234.31363 346.41298 235.05155 345.57602 235.76237 344.69887 z M 352.85807 347.30078 L 352.85807 348.64592 L 358.08152 349.72596 C 359.19663 352.01595 360.30709 355.08127 361.20381 359.35793 L 361.21363 359.3972 L 361.21363 359.42666 C 362.1164 363.42463 362.6938 368.33298 362.8926 374.10535 L 350.13834 374.10535 C 350.08604 372.34334 350.05979 370.31239 350.05979 368.01787 C 350.05979 361.65557 350.24955 356.86605 350.57035 353.79083 C 350.95125 350.94862 351.70439 348.95674 352.58315 347.69352 L 352.85807 347.30078 z M 183.40018 352.40641 L 193.17943 352.40641 L 193.17943 374.10535 L 174.97589 374.10535 C 175.23824 370.86259 175.83749 367.71539 176.76286 364.65011 L 176.76286 364.64029 L 176.76286 364.63047 C 178.0677 360.22667 179.69344 356.98588 181.40702 354.86104 L 183.40018 352.40641 z M 323.97197 376.63853 L 323.97197 383.9926 C 322.94861 383.86233 321.71372 383.55057 320.78095 383.51149 C 320.22409 383.48729 319.70043 383.43447 319.15108 383.40349 L 319.2689 377.81675 C 320.23235 377.61678 321.03887 377.54369 322.10645 377.26691 L 322.185 377.24728 L 322.25373 377.21782 C 322.8084 377.05348 323.40988 376.81597 323.97197 376.63853 z M 456.89513 376.63853 L 456.89513 383.9926 C 455.8711 383.86219 454.63744 383.5506 453.70411 383.51149 C 453.14707 383.48729 452.62377 383.43447 452.07424 383.40349 L 452.18224 377.81675 C 453.14569 377.61678 453.96203 377.54369 455.02961 377.26691 L 455.10816 377.24728 L 455.17689 377.21782 C 455.73169 377.05344 456.3329 376.81601 456.89513 376.63853 z " /></g><g
     inkscape:groupmode="layer"
     id="layer2"
     inkscape:label="Content"
     style="display:inline"
     transform="scale(0.1989225)"><g
       inkscape:groupmode="layer"
       id="layer3"
       inkscape:label="Kruh"
       transform="scale(5.0270836)"><path
         id="path2"
         style="fill:none;stroke:#000000;stroke-width:0.949978"
         inkscape:label="vnejsi kruh"
         transform="scale(0.19892249)"
         d="M 569.5184,284.99338 A 284.52502,284.52502 0 0 1 284.99338,569.5184 284.52502,284.52502 0 0 1 0.46835327,284.99338 284.52502,284.52502 0 0 1 284.99338,0.46835327 284.52502,284.52502 0 0 1 569.5184,284.99338 Z" /><path
         id="path2-9"
         style="fill:none;stroke:#000000;stroke-width:0.815568"
         inkscape:label="vnitrni kruh"
         transform="scale(0.19892249)"
         d="M 529.26178,284.99338 A 244.2684,244.2684 0 0 1 284.99338,529.26178 244.2684,244.2684 0 0 1 40.724976,284.99338 244.2684,244.2684 0 0 1 284.99338,40.724976 244.2684,244.2684 0 0 1 529.26178,284.99338 Z" /></g><path
       id="path41"
       style="baseline-shift:baseline;display:inline;overflow:visible;opacity:1;fill:none;stroke:#000000;stroke-width:0.95;stroke-dasharray:none;stroke-opacity:1;enable-background:accumulate;stop-color:#000000;stop-opacity:1"
       inkscape:label="znak"
       d="m 236.94658,75.126435 c -5.81161,4.533036 -15.6227,3.895227 -22.46184,9.922074 -6.88117,4.220551 -17.52393,5.125189 -15.96477,16.382501 1.58933,8.08484 18.02602,14.65826 12.13399,21.66918 -7.83299,5.52634 -3.82218,16.60298 4.33635,17.16014 5.07699,1.79561 10.62152,-2.76945 12.25543,5.25882 26.37452,46.18627 53.43012,92.01946 79.12971,138.58179 9.78714,15.19803 36.40114,11.85555 42.03699,-5.31432 4.49992,-9.21219 -0.0131,-19.08308 -5.35957,-26.79907 -24.98105,-41.66604 -49.43192,-83.62755 -74.07173,-125.50228 -4.37384,-7.17319 -9.36328,-14.09776 -3.69268,-21.66413 1.94658,-9.416687 -9.23625,-10.282198 -14.3915,-6.904192 -5.84006,-4.835602 -5.43403,-15.307914 -11.91951,-21.723713 -0.54895,-0.5373 -1.12146,-1.238402 -2.03087,-1.0668 z m 94.02566,201.147205 c 8.85285,-4.87438 5.38825,-11.24093 0.25095,-17.92733 3.63975,8.1169 5.89801,15.77953 -4.73345,16.74414 -8.37071,2.33027 -1.52819,3.19896 4.4825,1.18319 z M 255.17102,129.71865 c 13.15568,21.76048 26.80131,43.26003 39.37639,65.35819 -5.33596,5.43524 -11.98284,-1.35496 -20.08939,-1.69342 -6.87461,-2.43963 -14.52835,-11.35584 -12.50792,-17.6467 -6.43416,-12.5802 -16.78689,-22.8237 -21.6562,-36.17807 5.10137,-5.05372 15.38003,-9.0679 14.87712,-9.84 z m -26.5037,0.10294 c 8.06523,-4.82888 17.07205,-9.61762 23.34059,-16.32634 -8.19651,4.18966 -15.67496,10.53927 -24.0466,14.84785 -6.38501,2.89954 -5.24386,5.59233 0.70601,1.47849 z"
       sodipodi:nodetypes="cccccccccccccccccccccccccccc" /><text
       xml:space="preserve"
       style="font-size:133px;line-height:1;font-family:'New Rocker';-inkscape-font-specification:'New Rocker';text-align:start;text-decoration-color:#000000;letter-spacing:4.32329px;word-spacing:0px;writing-mode:lr-tb;direction:ltr;text-anchor:start;fill:none;stroke:#000000;stroke-width:8.93001;stroke-dasharray:none"
       x="410.0697"
       y="372.99551"
       id="text1"><tspan
         sodipodi:role="line"
         id="tspan1"
         style="stroke-width:8.93"
         x="410.0697"
         y="372.99551" /></text></g><style
     id="style1-0">
		tspan { white-space:pre } 
		.s0 { fill: none;stroke: #ff0000;stroke-miterlimit:100 } 
	</style></svg>
