<?xml version="1.0" encoding="UTF-8" standalone="no"?>
<svg
   version="1.2"
   viewBox="0 0 113.38583 113.38583"
   width="30mm"
   height="30mm"
   id="svg1"
   sodipodi:docname="Vysetrovatel2ReminderTokenLaser.svg"
   inkscape:version="1.4.2 (2aeb623e1d, 2025-05-12)"
   xml:space="preserve"
   xmlns:inkscape="http://www.inkscape.org/namespaces/inkscape"
   xmlns:sodipodi="http://sodipodi.sourceforge.net/DTD/sodipodi-0.dtd"
   xmlns="http://www.w3.org/2000/svg"
   xmlns:svg="http://www.w3.org/2000/svg"><sodipodi:namedview
     id="namedview1"
     pagecolor="#ffffff"
     bordercolor="#666666"
     borderopacity="1.0"
     inkscape:showpageshadow="2"
     inkscape:pageopacity="0.0"
     inkscape:pagecheckerboard="0"
     inkscape:deskcolor="#d1d1d1"
     inkscape:zoom="3.8638519"
     inkscape:cx="36.621486"
     inkscape:cy="73.242973"
     inkscape:window-width="1920"
     inkscape:window-height="1043"
     inkscape:window-x="0"
     inkscape:window-y="0"
     inkscape:window-maximized="1"
     inkscape:current-layer="layer2"
     showgrid="false"
     inkscape:document-units="mm" /><defs
     id="defs1"><clipPath
       clipPathUnits="userSpaceOnUse"
       id="cp1"><path
         d="m 275.5,535.5 c -143.78,0 -260,-116.22 -260,-260 0,-143.78 116.22,-260 260,-260 143.78,0 260,116.22 260,260 0,143.78 -116.22,260 -260,260 z"
         id="path1" /></clipPath></defs><style
     id="style1">
		tspan { white-space:pre } 
		.s0 { fill: none;stroke: #ff0000;stroke-miterlimit:100 } 
	</style><g
     inkscape:groupmode="layer"
     id="layer2"
     inkscape:label="Content"
     style="display:inline"
     transform="scale(0.1989225)"><path
       id="path5-0"
       style="display:inline;fill:none;fill-opacity:1;stroke:#000000;stroke-width:0.95000006;stroke-dasharray:none;stroke-opacity:1"
       inkscape:label="Znak"
       d="m 219.38904,96.332268 c -26.03619,-1.498696 -47.28744,17.150392 -61.79227,36.778532 -12.28492,15.35743 -14.68683,35.42838 -16.18222,54.34274 0.56446,13.89904 0.54929,30.70313 13.25491,39.60192 14.62657,13.73397 36.08854,16.32995 55.31784,15.85675 16.00213,-3.5457 28.30645,-15.79179 39.45665,-27.15345 3.42644,-4.2388 6.9394,-8.46277 11.9735,-3.94813 28.21447,11.39699 56.04438,23.97113 83.23326,37.6923 17.25257,9.38041 35.24267,17.37891 53.8179,23.68512 -3.72604,0.66484 12.4038,1.02556 12.12119,-3.53427 7.54698,-8.74346 13.76814,-18.93335 17.77239,-29.74037 1.9458,-12.19037 -9.10092,-22.45216 -20.28798,-24.46698 -22.99648,-4.21748 -45.58433,-10.49191 -68.32889,-15.9207 -19.48457,-5.03363 -39.25565,-9.16656 -58.59382,-14.56129 -6.85041,-6.78492 -9.81524,-14.34015 -6.82672,-24.7627 -0.41852,-12.35845 1.89529,-25.96332 -4.08215,-37.23699 -11.39778,-8.80022 -23.47831,-16.91626 -35.9796,-24.041568 -4.67724,-2.0312 -9.8298,-2.517699 -14.87399,-2.590914 z m -7.40684,18.829282 c 12.88023,-1.26164 24.90466,-1.40092 26.47653,12.8134 5.11999,5.08993 -0.39487,50.88645 -13.43427,64.71021 -8.6746,10.14347 -17.96788,23.98817 -32.45698,25.16186 -12.43024,1.42896 -28.24226,-8.32602 -27.93583,-20.6637 -5.19724,-27.4339 -1.67385,-51.2575 21.42337,-68.57395 7.7517,-5.60331 16.4498,-11.63983 25.92718,-13.44782 z m 66.41155,79.32954 c 17.96071,5.07887 35.35109,12.20731 53.02591,18.2606 16.19459,7.12221 33.5632,10.99251 49.88586,17.72411 7.94394,10.12092 -11.04642,1.9199 -15.42495,-0.19452 -29.01872,-11.3056 -58.07161,-22.54387 -87.12873,-33.73698 -1.90503,0.51336 -1.93774,-2.46715 -0.35809,-2.05321 z"
       sodipodi:nodetypes="ccccccccccccccccccccccccccccccc" /><path
       id="path5-3-7"
       style="display:inline;opacity:1;stroke-width:0.955146;stroke-dasharray:none;fill:none;stroke:#000000;stroke-opacity:1"
       inkscape:label="text"
       d="m 174.79204,285.00001 -2.543,2.0128 c -1.67843,1.32876 -3.50919,2.73498 -5.47874,4.21214 -1.1531,0.85408 -2.22822,1.63343 -3.32848,2.435 -1.14314,-0.80146 -2.25993,-1.58088 -3.45612,-2.435 -0.006,-0.005 -0.014,-0.005 -0.0196,-0.01 -1.94519,-1.45926 -3.70387,-2.84926 -5.28237,-4.15324 l -2.47427,-2.04225 -2.41535,2.1208 c -1.17207,1.02557 -2.06878,1.83314 -2.74919,2.51354 -0.37114,0.37114 -1.11659,1.05804 -2.15026,1.95389 l -3.06338,2.651 0.63821,0.62838 -4.46743,0.63821 c -0.92159,0.13166 -1.80456,0.2302 -2.64118,0.29455 -0.82187,0.0632 -1.68562,0.0982 -2.59209,0.0982 -2.8691,0 -5.94602,-0.30116 -9.22941,-0.90331 -3.36779,-0.68893 -6.5627,-1.46992 -9.56324,-2.35644 -3.01793,-0.89166 -5.61864,-1.81644 -7.79591,-2.73937 -2.12814,-0.93406 -3.55531,-1.79314 -3.69177,-1.90479 l -2.03243,-1.65933 -2.258259,1.3255 c -3.9412,2.31035 -7.35761,3.84246 -10.13272,4.64416 l -0.0098,0.01 h -0.0098 c -2.78117,0.82171 -5.653235,1.23713 -8.650121,1.23713 -1.705154,0 -3.49133,-0.10404 -5.360913,-0.30437 -1.932639,-0.20707 -4.090918,-0.48465 -6.470406,-0.83458 l -4.771802,-0.69711 0.471289,4.80125 c 0.408827,4.17004 1.689897,7.82661 4.143416,10.57455 1.558343,1.74534 3.473894,3.01939 5.527829,4.04523 0.0031,0.19797 0.01964,0.39115 0.01964,0.58912 v 0.13746 l 0.0098,0.13745 c 0.0648,0.90716 0.09819,1.81327 0.09819,2.71974 0,3.45866 -0.333897,6.91651 -1.001489,10.38799 v 0.0295 l -0.0098,0.0294 c -0.55077,3.12103 -1.684505,5.88254 -3.446302,8.43411 l -1.747697,2.52336 2.120801,2.22881 c 0.854392,0.89508 1.802397,2.62433 2.484086,5.35109 l 0.0098,0.0393 0.0098,0.0393 c 0.756617,2.77426 1.148767,5.81742 1.148767,9.15087 0,2.91889 -0.318124,5.74888 -0.962215,8.52247 -0.625629,2.62391 -1.535458,4.70019 -2.641182,6.30349 l -2.434994,3.54449 3.829224,1.95389 c 2.885399,1.47476 5.581691,3.3714 8.119918,5.71438 l 0.01964,0.0196 0.01964,0.01 c 2.501872,2.25169 4.151068,4.55912 5.115448,6.9417 l 2.97501,7.37371 3.82923,-6.98097 c 1.57115,-2.86907 3.15486,-5.40325 4.75216,-7.59954 1.3868,-1.90685 3.4353,-3.82979 6.215132,-5.70456 l 4.80126,-3.24011 -4.90927,-3.08302 c -1.762752,-1.10802 -3.168092,-2.77844 -4.280872,-5.40018 -1.08496,-2.7266 -1.63969,-5.6551 -1.63969,-8.9054 v -0.48111 c 2.89325,0.0786 5.855972,0.15028 8.404652,0.29455 3.54921,0.19717 6.60847,0.7864 9.19014,1.70843 l 2.62154,0.93276 1.65933,-2.22881 c 0.99502,-1.32668 1.97557,-2.50066 2.93574,-3.52485 0.97027,-1.03028 1.99125,-1.91918 3.05356,-2.69027 1.10546,-0.75247 2.3857,-1.44405 3.8685,-2.06189 l 0.0589,-0.0295 0.0589,-0.0196 c 1.4849,-0.68057 3.30141,-1.33567 5.42965,-1.93424 l 4.38888,-1.23714 -0.90331,-1.81643 h 6.32313 v 25.25324 c 0,1.60708 -0.23718,2.68373 -0.4222,3.1223 -0.0394,0.0935 -0.0726,0.16577 -0.0884,0.20618 l -2.37609,0.87385 v 8.0021 h 30.38833 v -8.81703 l -3.19102,-0.50075 c -1.70893,-0.26702 -2.31674,-0.73356 -2.42517,-0.83457 -0.12035,-0.2468 -0.46147,-1.16032 -0.46147,-3.01429 v -5.43946 h 25.62634 v 6.29367 c 0,5.10146 1.46831,9.84079 4.36924,13.76557 l 1.12913,1.53169 h 2.99465 l 0.5302,-0.1571 c 2.08331,-0.62499 4.08772,-1.17657 6.01876,-1.65933 1.86955,-0.46739 3.89012,-0.87721 6.06784,-1.21749 l 3.19102,-0.50075 v -7.45226 l -2.27789,-0.84439 c -0.007,-0.0291 -0.023,-0.058 -0.11783,-0.31419 -0.23544,-0.63655 -0.4811,-2.03375 -0.4811,-4.00596 v -4.60489 h 8.42429 c -0.74183,1.29078 -1.399,2.68496 -1.92443,4.26124 l -0.01,0.0393 -0.01,0.0294 c -0.79368,2.5398 -1.28035,5.08353 -1.44332,7.60936 l -0.24546,3.80958 3.79976,0.19637 c 2.54705,0.13769 4.72558,0.34735 6.49005,0.60875 l 0.0589,0.01 0.0687,0.01 c 1.74868,0.1943 3.20806,0.48229 4.3496,0.82475 l 0.0884,0.0196 0.0884,0.0295 c 1.16496,0.29124 2.05221,0.6481 2.67064,1.00149 l 0.0491,0.0294 0.0491,0.0196 c 0.80259,0.42804 1.48851,0.92101 2.10116,1.4826 l 2.24845,2.05207 2.48408,-1.7477 c 0.9014,-0.63628 2.13184,-1.30635 3.70159,-1.93425 1.5939,-0.63756 3.34711,-1.18949 5.2529,-1.64951 1.9154,-0.46234 3.93985,-0.83121 6.08749,-1.09967 2.12846,-0.26605 4.22042,-0.39275 6.26422,-0.39275 h 4.67361 l -0.99167,-4.57543 c -0.27177,-1.25014 -0.5304,-3.50371 -0.66766,-6.5195 -0.0685,-1.54219 -0.11242,-3.19179 -0.14727,-4.94853 h 8.60102 v 5.01726 c 0,2.4379 -0.39808,4.39592 -1.08004,5.96967 -0.6394,1.47555 -1.34875,2.19133 -2.3859,2.70991 l -2.43499,1.21749 0.9524,6.6766 h 3.27938 c 2.58758,0 5.19007,-0.31922 7.80573,-0.9524 1.76336,-0.4154 3.35412,-1.01492 4.96817,-1.58078 0.2733,0.21999 0.50516,0.5125 0.7953,0.70693 0.86391,0.60099 1.79301,1.14689 2.77864,1.6397 l 0.0491,0.0294 0.0589,0.0295 c 0.98121,0.45287 2.11555,0.91676 3.38739,1.41387 1.22406,0.54448 2.7776,1.27154 4.66379,2.17971 l 2.95538,1.4335 3.96668,-5.95984 -1.65933,-2.14044 c -1.46669,-1.88575 -2.67757,-3.51933 -3.62303,-4.86999 l -0.0295,-0.0393 -0.0294,-0.0295 c -0.79116,-1.07371 -1.38494,-2.17797 -1.82625,-3.31866 -0.38455,-1.17418 -0.68789,-2.58768 -0.87385,-4.26124 -0.16818,-1.51371 -0.27291,-3.48305 -0.29455,-5.87147 h 9.58288 c -0.19391,1.84175 -0.41313,3.39133 -0.64803,4.62452 l -0.0196,0.0884 -0.01,0.0884 c -0.12299,0.86091 -0.40997,1.55222 -0.4222,1.66914 v 0.01 h 0.01 c 0.0285,-0.0207 0.10517,-0.1283 0.25528,-0.35346 l -2.26808,3.39721 3.57394,1.98334 c 1.2239,0.67994 2.29838,1.31833 3.21066,1.90479 l 0.12764,0.0884 0.13746,0.0687 c 0.92157,0.49151 1.81553,1.05134 2.68046,1.66915 l 0.0491,0.0294 0.0491,0.0295 c 0.9226,0.61506 1.86883,1.33883 2.82774,2.16989 l 0.0982,0.0884 0.10801,0.0785 c 1.0179,0.76342 2.22247,1.76949 3.58376,2.99465 l 2.66082,2.38591 2.52336,-2.52337 c 1.08921,-1.08921 2.14762,-2.10582 3.16156,-3.05356 1.02517,-0.89561 2.11683,-1.76999 3.27939,-2.61172 1.25522,-0.85776 2.6217,-1.72077 4.09432,-2.59209 0.39255,-0.22173 0.93903,-0.4945 1.36478,-0.72657 0.34912,0.91798 0.69663,1.83525 1.17822,2.66082 l 0.0295,0.0491 0.0295,0.0491 c 1.37687,2.203 3.34256,4.27705 5.8813,6.43113 l 3.78995,3.21066 2.08152,-4.5067 c 0.25737,-0.55762 0.72003,-1.31732 1.43351,-2.20917 l 0.0393,-0.0491 0.0393,-0.0491 c 0.74081,-0.98773 1.58428,-1.95737 2.53318,-2.90629 0.94891,-0.9489 1.91856,-1.79237 2.90629,-2.53318 0.98774,-0.74079 1.81451,-1.23927 2.40553,-1.51205 l 2.18953,-1.01131 v -6.63732 l -2.97501,-0.6382 c -0.39218,-0.084 -0.51029,-0.18034 -0.60875,-0.25528 -0.0241,-0.0513 -0.20333,-0.32945 -0.39274,-1.01131 -0.0486,-0.17494 -0.10043,-0.37274 -0.14727,-0.58911 h 9.47487 v 6.40167 c 0,1.63334 -0.27591,2.65299 -0.45165,3.00447 l -0.0196,0.0491 -0.0294,0.0491 c -0.0703,0.15071 -0.11227,0.24008 -0.13746,0.28474 l -2.23863,0.93275 v 7.88428 h 27.17767 v -8.0021 l -2.27789,-0.84439 c -0.007,-0.0292 -0.0231,-0.0581 -0.11783,-0.31419 -0.23544,-0.63655 -0.4811,-2.03375 -0.4811,-4.00596 v -19.44068 l 6.97115,-3.11247 v 8.49303 0.0393 c 0.0708,4.03419 0.108,8.06224 0.108,12.09642 0,0.5542 -0.0674,1.80927 -0.20619,3.54449 -0.13993,1.74916 -0.30895,3.6787 -0.52038,5.79292 -0.2045,1.97382 -0.47422,3.95424 -0.81494,5.93039 l -0.01,0.01 v 0.01 c -0.33793,2.02761 -0.69971,3.67751 -1.0604,4.8798 l -0.64802,2.15026 4.98781,4.99763 2.66082,-2.85719 c 0.90254,-0.96701 1.96499,-1.99102 3.17138,-3.06338 1.19077,-1.05845 2.44867,-2.08317 3.78013,-3.08302 1.38941,-0.99093 2.73464,-1.87856 4.03542,-2.66082 0.60859,-0.34702 1.14913,-0.53258 1.72806,-0.80511 l -0.51057,0.44183 14.15831,-2.82774 c 0.11873,-0.0237 0.21963,-0.0393 0.32402,-0.0393 h 0.31419 l 0.30437,-0.0491 c 0.22589,-0.0376 0.4404,-0.0589 0.65784,-0.0589 1.19508,0 2.92333,0.15454 5.07618,0.49092 2.16352,0.33805 4.33028,0.77329 6.49986,1.31568 2.17154,0.54288 4.15095,1.12058 5.95003,1.71825 1.68336,0.63124 2.7959,1.27983 2.93573,1.39423 l 2.64119,2.16007 2.40553,-2.41536 c 1.34624,-1.34624 2.86912,-2.65101 4.57544,-3.89795 l 0.0393,-0.0196 0.0393,-0.0294 c 1.69278,-1.30213 3.43727,-2.43962 5.2431,-3.40703 1.83877,-0.98505 3.66387,-1.79034 5.46891,-2.43499 1.77021,-0.63222 3.3883,-1.02359 4.84053,-1.19786 l 3.95687,-0.47129 -0.69712,-3.92741 c -1.24133,-7.03419 -1.86552,-14.28189 -1.86552,-21.75785 0,-6.09082 0.41872,-11.32399 1.2175,-15.65072 l 0.99167,-5.37073 -5.37073,0.97203 c -0.62119,0.11295 -1.28327,0.20357 -1.98334,0.2651 h -3.31866 c -2.51744,0 -5.3281,-0.25683 -8.42429,-0.7953 -2.98596,-0.5193 -6.93704,-1.58249 -11.73314,-3.1812 l -2.20917,-0.73639 -1.64951,1.64951 c -3.0175,3.01751 -6.10051,5.49782 -9.23923,7.46208 -3.13132,1.88834 -5.83058,2.96365 -7.97264,3.34812 l -6.23476,1.11931 3.70158,4.62452 v 0.01 l 0.01,0.01 c 0.0811,0.27363 0.2068,0.80355 0.33383,1.50223 0.25856,1.42208 0.49087,3.21008 0.69712,5.34128 l 0.01,0.0589 0.01,0.0687 c 0.2718,2.10648 0.47099,4.36377 0.60875,6.77478 h 0.01 c 0.008,0.13633 0.0121,0.2773 0.0196,0.41238 h -8.23774 c 0.0169,-1.75668 0.0395,-3.31808 0.0785,-4.68344 0.0698,-2.44296 0.13704,-4.48539 0.20619,-6.15621 0.13292,-1.58507 0.26869,-2.86318 0.39274,-3.80959 0.19013,-1.00018 0.40669,-1.92411 0.64803,-2.76882 l 0.87385,-3.0732 -2.87683,-1.37459 c -1.41262,-0.67267 -2.63734,-1.295 -3.67213,-1.87534 -1.04523,-0.65449 -2.0542,-1.31165 -3.03392,-1.9637 -0.88342,-0.63192 -1.77952,-1.33033 -2.68046,-2.10117 -0.96938,-0.90051 -2.03588,-1.89879 -3.21066,-3.00447 l -2.73936,-2.57245 -2.58228,2.72955 c -2.47222,2.60956 -4.8508,4.85015 -7.12824,6.72569 -0.59674,0.49144 -1.41018,0.99788 -2.05207,1.49241 V 305.56 c 0,-3.51462 0.24107,-6.56557 0.68729,-9.13123 0.4802,-2.36655 1.25505,-4.00781 2.1699,-5.10563 l -4.51652,-5.82238 c -2.84298,1.35381 -5.47611,2.38671 -7.88428,3.10265 h -0.01 l -0.0196,0.01 c -2.25383,0.68867 -4.33493,1.00149 -6.26422,1.00149 -1.59545,0 -2.84654,-0.20688 -3.77031,-0.5302 l -9.08214,-3.18121 4.5067,8.50285 c 0.57368,1.08364 1.04057,2.11373 1.40405,3.08301 0.34534,0.92091 0.60177,1.87178 0.77567,2.85719 l 0.0196,0.0982 0.0196,0.108 c 0.22517,0.95698 0.38053,2.04359 0.44183,3.26957 0.0673,1.34496 0.0982,2.88595 0.0982,4.6147 v 40.98252 h -10.13272 c -0.0134,-0.89694 -0.0196,-1.85074 -0.0196,-2.86701 v -31.30145 l -5.4591,2.72955 c -2.08878,1.0444 -4.69422,1.95974 -7.81555,2.69027 h -0.01 l -0.01,0.01 c -3.06029,0.73181 -6.18228,1.19397 -9.38651,1.39423 l -3.54449,0.22583 v 7.82536 l 2.8081,0.74621 c 0.69218,0.18458 0.97727,0.39436 0.94258,0.36328 l 0.18655,0.16692 0.13746,0.0982 c 0.0225,0.0384 0.0651,0.1221 0.12764,0.28474 0.13016,0.33843 0.33299,1.23843 0.39274,2.55282 l 0.01,0.0884 v 0.0786 c 0.12647,1.39111 0.20619,3.29028 0.20619,5.63583 v 14.18777 l -5.95984,2.60191 -1.22732,-0.93276 v -19.69596 -4.80126 c 0.0627,-1.24367 0.0942,-2.41231 0.0982,-3.50521 0.0688,-1.10028 0.1377,-2.13056 0.20619,-3.09283 0.13944,-0.98748 0.27496,-2.04268 0.41237,-3.21066 l 0.78548,-6.68641 -6.10712,2.81791 c -0.68395,0.31567 -1.80641,0.73922 -3.24011,1.19786 -1.48775,0.40443 -3.11326,0.80757 -4.88962,1.2175 -1.77612,0.40987 -3.55636,0.78665 -5.33146,1.12913 -1.76902,0.27123 -3.36315,0.47646 -4.75217,0.60875 l -3.11247,0.29455 -0.59893,6.64714 2.02262,1.22732 c 0.66582,0.39949 1.08989,0.803 1.40405,1.25677 l 0.0982,0.13746 0.10801,0.12764 c 0.3224,0.38688 0.69685,1.03667 1.0113,2.03243 0.30873,0.97764 0.56069,2.34577 0.6873,4.05505 v 0.0786 l 0.01,0.0786 c 0.19077,1.6533 0.29455,3.7286 0.29455,6.18567 0,1.70645 -0.0345,3.47818 -0.11782,5.32164 H 294.52892 V 305.56 c 0,-3.51462 0.24107,-6.56557 0.6873,-9.13123 0.4802,-2.36656 1.26486,-4.0078 2.17971,-5.10563 l -4.51652,-5.82238 c -2.843,1.35381 -5.48594,2.38671 -7.8941,3.10265 h -0.01 l -0.01,0.01 c -2.25384,0.68867 -4.33492,1.00149 -6.26422,1.00149 -1.59544,0 -2.84655,-0.20688 -3.77031,-0.5302 l -9.08214,-3.18121 4.49689,8.50285 c 0.57369,1.08363 1.04057,2.11373 1.40405,3.08301 0.34534,0.92091 0.60176,1.87177 0.77566,2.85719 l 0.0196,0.0982 0.0294,0.108 c 0.22518,0.95697 0.37073,2.0436 0.43202,3.26957 0.0673,1.34496 0.108,2.88594 0.108,4.6147 v 40.98252 h -8.6403 c 0.0376,-3.24939 0.13278,-5.79713 0.28474,-7.57008 l 0.3731,-4.38888 -4.38888,0.30437 c -3.08224,0.21504 -5.78312,0.43078 -8.10028,0.64802 -2.33777,0.21916 -4.4715,0.47722 -6.41149,0.77567 h -0.01 l -0.01,0.01 c -1.81091,0.28975 -3.48926,0.61239 -5.05654,0.98185 -0.0402,-1.04544 -0.0786,-2.08678 -0.0786,-3.13211 v -1.23713 c 0.96113,0.33806 1.92427,0.68776 2.88665,0.99167 l 0.0294,0.01 0.0196,0.01 c 1.57238,0.47171 3.13048,0.82812 4.6638,1.07022 1.50311,0.23733 2.89328,0.36329 4.21214,0.36329 3.12204,0 6.1528,-0.95343 8.49303,-2.88665 l 0.0294,-0.0294 0.0393,-0.0393 c 2.27904,-1.98178 3.95912,-4.71446 5.38055,-8.1101 l 2.02261,-4.84053 -5.23327,-0.3731 c -8.62117,-0.62072 -14.91319,-2.10058 -18.62574,-3.98632 l -1.57096,-0.7953 -1.61024,0.68729 c -4.61247,1.95682 -8.42347,3.36997 -11.34039,4.23179 -2.84818,0.84151 -5.41384,1.23713 -7.68791,1.23713 h -5.28236 l 1.71824,4.99763 c 0.61406,1.78078 1.05911,3.75932 1.31568,5.9402 l 0.01,0.0491 0.01,0.0589 c 0.32096,2.18255 0.49093,4.82167 0.49093,7.88427 0,1.28307 -0.0389,2.76614 -0.10801,4.42816 -0.0395,0.90595 -0.11008,2.09483 -0.22582,3.54448 h -9.71052 v -26.84384 l -3.89796,-6.49986 -2.70991,0.67748 c -0.48962,0.12241 -1.06636,0.25934 -1.64951,0.39274 v -2.9161 l 0.81494,-1.62988 c 1.05101,-2.10202 2.22457,-3.72314 3.49539,-4.93871 h 0.01 c 1.53868,-1.47457 3.4563,-3.03232 5.75365,-4.65398 l 4.84054,-3.42667 -5.14491,-2.93574 c -0.36472,-0.20842 -1.07415,-0.64442 -1.98334,-1.22731 -0.87301,-0.66952 -1.80191,-1.36687 -2.78846,-2.09135 l -0.0196,-0.0196 c -0.92559,-0.72767 -1.82278,-1.45561 -2.68046,-2.17972 -0.72144,-0.66545 -1.21769,-1.21122 -1.41386,-1.47278 l -1.94407,-2.59209 -2.84737,1.52188 c -2.58586,1.37913 -4.9093,3.30613 -6.95152,5.6751 h -0.01 v 0.01 c -1.84024,2.14694 -3.43827,4.35264 -4.7718,6.6275 l -1.5906,2.71973 2.39572,2.05208 c 0.58797,0.50398 1.33298,1.10164 2.28772,1.83606 0.914,0.70307 1.86046,1.43374 2.84737,2.20917 0.31963,0.25113 0.63108,0.50649 0.93276,0.75602 v 8.58139 c -1.80372,0.32393 -3.5113,0.60541 -5.11545,0.83458 l -3.2303,0.46147 v 1.79679 l -2.06189,-0.49093 c -2.52106,-0.60025 -4.83551,-1.25093 -6.95151,-1.94407 V 303.017 c 0.0948,-0.10279 0.19279,-0.20456 0.28474,-0.30437 l 0.0294,-0.0393 c 2.5366,-2.67763 4.31589,-4.56807 5.32164,-5.64565 l 2.77864,-2.97501 -3.1812,-2.543 c -1.00358,-0.80287 -1.73782,-1.45309 -2.14043,-1.8557 -0.62484,-0.62484 -1.46793,-1.42242 -2.55282,-2.43499 z m -30.82035,11.39931 0.72657,0.72657 c 2.45256,2.45257 5.02229,5.12525 7.69773,8.01191 l 0.0294,0.0295 0.0295,0.0393 c 2.70924,2.77871 5.39216,5.72891 8.04137,8.86613 l 2.72955,3.23029 2.89646,-3.0732 c 0.59325,-0.62921 1.17018,-1.24339 1.72806,-1.83606 v 3.74086 l -1.0604,-0.66766 -1.61024,4.36924 c -0.43015,1.16394 -0.94731,2.17507 -1.40405,3.2892 l -3.72122,-6.21512 -2.71973,0.67748 c -2.21867,0.55468 -4.7707,1.14715 -7.63881,1.77715 -2.84837,0.55516 -5.48014,1.01151 -7.88427,1.35496 l -3.2303,0.46147 v 6.92205 l 3.94705,1.70843 v 0.75602 h -9.88725 c -0.37011,-1.71601 -0.58911,-3.90904 -0.58911,-6.53913 0,-1.95757 0.0714,-3.99893 0.20619,-6.10712 0.16165,-1.66053 0.40215,-3.3588 0.64802,-5.06636 0.78443,-0.59915 1.60698,-1.14551 2.31717,-1.8557 1.13717,-1.13717 2.13162,-2.34258 2.98483,-3.61322 0.85567,-1.17382 1.61134,-2.36095 2.25826,-3.57394 0.59592,-1.11733 1.1001,-2.10994 1.50223,-2.99465 z m -48.709689,14.09939 c 0.1449,0.0474 0.30791,0.0798 0.45165,0.12764 l 0.07855,0.0295 0.08837,0.0295 c 1.73415,0.48556 3.46822,1.00575 5.203819,1.56114 l 0.0884,0.0295 0.0884,0.0196 c 1.87365,0.50445 3.80935,1.0088 5.82238,1.51206 1.12842,0.28211 2.39604,0.52717 3.6034,0.78548 0.0162,0.90897 0.0589,1.66154 0.0589,2.70991 v 0.0589 l 0.20619,6.47041 c 0.07,2.0986 0.108,4.04998 0.108,5.85184 v 0.0687 0.0785 c 0.0416,1.0827 0.0852,1.72473 0.12765,2.53318 -0.21192,0.20892 -0.46184,0.36323 -0.66766,0.58912 -0.0644,0.0653 -0.0943,0.15902 -0.1571,0.22582 -0.0927,-0.0241 -0.16068,-0.0744 -0.25528,-0.0982 -1.29412,-0.34258 -2.69956,-0.57998 -4.2416,-0.73639 -1.49918,-0.2202 -3.05321,-0.36624 -4.6638,-0.44184 -1.633469,-0.14588 -3.213669,-0.22582 -4.732529,-0.22582 -0.40818,0 -0.78879,0.0364 -1.18804,0.0491 -0.0186,-1.35637 -0.04909,-2.73762 -0.04909,-4.07469 v -8.54211 -6.71587 c 0,-0.62128 0.02405,-1.26802 0.02945,-1.89498 z m 90.880249,17.83044 3.43648,1.4826 v 19.60759 h -25.14524 l 5.90094,-8.31629 7.81554,4.0845 1.95389,-2.24844 c 1.76155,-2.02579 3.1383,-4.45945 4.19251,-7.21661 l 0.01,-0.01 0.01,-0.0196 c 0.85131,-2.292 1.41524,-4.77363 1.82625,-7.36389 z m 233.94594,6.74533 h 0.01 v 0.01 h -0.01 z m 0.01,0.0196 c 0.0165,0.0239 0.0471,0.0602 0.0687,0.11783 -0.037,-0.0549 -0.0569,-0.0945 -0.0687,-0.11783 z m 22.80843,1.56115 c 0.68754,0.18179 1.29462,0.37769 2.05207,0.54984 l 0.0393,0.01 0.0393,0.01 c 2.1439,0.43852 4.36571,0.66407 6.56859,0.94258 l -0.15709,22.19968 c -1.25772,-0.28623 -2.40922,-0.65632 -3.74086,-0.88367 -1.71322,-0.2925 -3.17745,-0.47541 -4.73253,-0.69711 0.0603,-1.37762 0.13741,-2.73593 0.17674,-4.1336 v -0.0196 c 0.14442,-2.67732 0.216,-5.08182 0.216,-7.22643 0,-2.70095 -0.0697,-5.36882 -0.216,-8.0021 -0.0468,-0.86528 -0.17672,-1.85051 -0.24547,-2.74918 z m -199.87566,17.43769 v 0.0295 c 0,1.93365 -0.0974,3.79302 -0.29456,5.5671 -0.0447,0.3868 -0.15105,0.90541 -0.20619,1.31568 -3.47916,-1.47185 -7.15158,-3.06345 -9.64179,-3.9274 -0.87383,-0.30317 -1.55167,-0.47569 -2.32699,-0.71676 1.9587,-0.4358 3.79029,-0.93383 5.89112,-1.29604 h 0.0294 l 0.0295,-0.01 c 2.50153,-0.47443 4.42364,-0.679 6.5195,-0.96222 z m 170.58701,4.09433 h 8.39484 c -0.0883,2.67055 -0.30395,4.87059 -0.62839,6.53913 l -0.01,0.0393 -0.01,0.0393 c -0.30084,1.75494 -0.84808,2.65469 -0.9033,2.79828 v 0.01 l -5.7242,4.90926 -0.23564,-1.19786 c -0.13413,-0.67067 -0.26733,-1.37876 -0.40256,-2.1208 v -0.01 c -0.10846,-0.65267 -0.20909,-1.60353 -0.27492,-2.78846 -0.0677,-1.21921 -0.13692,-2.81566 -0.20619,-4.74234 z m -67.85581,34.62011 -2.543,2.0128 c -1.67843,1.32876 -3.50919,2.73498 -5.47873,4.21214 -1.15303,0.85403 -2.22828,1.63348 -3.32848,2.435 -1.15676,-0.811 -2.28432,-1.59952 -3.4954,-2.46445 -1.9346,-1.45188 -3.69147,-2.83561 -5.26272,-4.1336 l -2.47427,-2.04225 -2.41536,2.11098 c -1.17207,1.02557 -2.06879,1.84296 -2.74919,2.52336 -0.37115,0.37114 -1.11658,1.05803 -2.15025,1.95388 l -3.05356,2.65101 2.85719,2.867 c 2.45257,2.45258 5.02227,5.12526 7.69772,8.01192 l 0.0295,0.0294 0.0294,0.0295 c 2.70924,2.77871 5.39215,5.73872 8.04137,8.87594 l 2.72955,3.2303 2.89646,-3.0732 c 1.20586,-1.27894 2.3372,-2.48489 3.39721,-3.61322 v 9.41597 c -1.22467,-0.59081 -2.34651,-1.20583 -3.36775,-1.8557 l -1.7477,-1.11931 -1.87533,0.88366 c -3.01511,1.41525 -6.35081,2.69195 -9.84798,3.89796 l -1.46296,-1.35496 0.24546,1.80661 c -3.8229,1.19689 -7.53163,2.11276 -11.11457,2.70991 l -3.78013,0.62839 0.32401,-0.47129 h -7.21661 c -3.18519,0 -5.69505,-0.53041 -7.62899,-1.43351 -1.99134,-1.03503 -4.04654,-2.63904 -6.13658,-4.91908 l -2.06189,-2.24844 -2.63136,1.54151 c -1.57708,0.9245 -4.16343,1.92698 -7.64863,2.79828 -3.30308,0.82577 -7.42558,1.27641 -12.32225,1.27641 h -1.10949 c -0.5412,-0.11164 -0.94723,-0.10801 -1.34514,-0.10801 h -4.75216 l 1.08003,4.63434 c 0.53938,2.31161 1.16626,4.28506 1.97353,5.9893 l 0.0294,0.0687 0.0393,0.0687 c 0.8615,1.63684 1.86551,3.06092 3.1321,4.22197 l 0.0687,0.0589 0.0687,0.0589 c 1.21809,1.01507 2.6324,1.79428 4.15324,2.2288 l 0.14728,0.0393 0.14727,0.0294 c 1.3362,0.26675 2.73145,0.39274 4.16306,0.39274 2.2317,0 4.66026,-0.43264 7.49153,-1.19785 0.97782,-0.26428 1.86524,-0.68063 2.81792,-0.99168 v 2.7001 c -0.47708,0.17957 -0.75967,0.35108 -1.34514,0.5302 -1.4289,0.38744 -3.04112,0.75481 -4.85035,1.08985 -1.7911,0.33169 -3.7058,0.60182 -5.7242,0.80512 -1.95919,0.13376 -3.88051,0.19637 -5.76347,0.19637 -1.70515,0 -3.24623,-0.0981 -4.61471,-0.28473 l -6.49004,-0.88367 2.4939,6.05803 c 0.29658,0.72027 0.54881,1.59334 0.72657,2.63136 h -7.35407 l 5.66529,-17.29042 -1.52187,-1.62987 c -0.31859,-0.34134 -0.73097,-1.06856 -0.94258,-2.53318 -0.25833,-1.87556 -0.39274,-3.87201 -0.39274,-5.9893 v -0.24546 l 5.4591,-8.18865 -10.1229,3.12229 c -2.63807,0.81171 -5.30674,1.47987 -8.01192,2.02262 -2.71725,0.4742 -5.39507,0.81831 -8.03155,1.02112 l -3.26956,0.25528 -0.47129,7.53081 2.31717,1.08986 c 0.32038,0.15076 0.47427,0.25293 0.76584,0.98185 l 0.0295,0.0687 0.0393,0.0786 c 0.25434,0.56519 0.62839,2.28674 0.62839,4.85035 0,1.8903 -0.1374,4.20186 -0.41238,6.88278 -0.27166,2.57787 -0.68004,5.22639 -1.22732,7.96282 l -0.01,0.0491 v 0.0491 c -0.47434,2.71055 -1.08698,5.30931 -1.82625,7.79591 l -0.01,0.0294 -0.01,0.0295 c -0.28027,1.00896 -0.62829,1.56124 -0.94257,2.3859 l -0.13746,-0.0786 c 0.0191,-0.82496 0.0491,-1.68338 0.0491,-2.47427 v -4.58525 c 0,-7.79233 -0.35417,-14.61561 -1.08986,-20.51089 -0.67562,-5.99038 -1.81491,-10.55189 -4.15323,-13.96194 l -2.29754,-3.34812 -3.17138,2.53318 c -0.28662,0.2293 -1.1325,0.7343 -2.34663,1.28623 -1.30375,0.51923 -2.75092,1.05008 -4.33978,1.58078 -1.5355,0.46659 -3.10724,0.90307 -4.71289,1.30586 -1.59765,0.33115 -2.94121,0.5655 -3.97651,0.6873 l -3.32848,0.38292 v 8.24756 l 4.24161,0.87385 c 0.87206,1.81502 1.74697,4.23436 2.45463,7.60936 v 0.0196 l 0.01,0.0295 c 0.90895,4.02535 1.40404,9.22112 1.40404,15.50344 0,0.6685 -0.0304,1.56612 -0.0982,2.65101 l -0.01,0.11782 v 0.11782 c 0,0.98362 -0.0309,2.04618 -0.0982,3.19102 l -0.01,0.108 v 0.11783 c 0,1.05481 -0.0326,2.10629 -0.0982,3.16156 -0.0701,1.05078 -0.13719,1.9899 -0.20619,2.81792 l -0.27492,3.23029 3.15175,0.75603 c 3.05427,0.73036 6.00499,1.71513 8.85631,2.97501 2.87681,1.27115 5.21648,2.58637 7.0006,3.87832 l 0.98186,0.71675 h 3.58376 l 15.16961,-11.74296 2.86701,-8.75812 h 10.56473 c -0.0347,1.49259 -0.0923,2.98469 -0.16691,4.47725 -0.12845,2.49351 -0.5164,4.43547 -1.03095,5.77329 l -1.93425,5.0369 5.39037,0.0884 c 3.88422,0.067 7.24593,0.50986 10.08363,1.26659 h 0.01 0.01 c 2.94942,0.76941 5.59664,1.88055 7.97264,3.31866 l 2.77865,1.67897 6.01875,-7.24607 c 0.14452,0.20489 0.21267,0.4246 0.36329,0.62838 1.43357,1.93953 3.10089,3.58587 4.99762,4.85035 l 3.55431,2.36627 1.91461,-3.81941 c 0.27704,-0.55407 0.80753,-1.39745 1.57096,-2.41536 0.7408,-0.98774 1.57446,-1.95737 2.52336,-2.90628 0.97854,-0.97853 1.94876,-1.84373 2.89647,-2.60191 l 0.01,-0.01 0.01,-0.01 c 0.90443,-0.73484 1.64151,-1.1354 2.09134,-1.29605 l 2.50372,-0.89348 v -6.8337 l -2.92592,-0.66766 c -0.45251,-0.10442 -0.68841,-0.23485 -0.88366,-0.34364 3e-5,-0.0187 -0.0669,-0.13742 -0.17674,-0.44184 h 7.23626 c -0.0646,0.52738 -0.1317,1.04819 -0.20619,1.55133 -0.26296,1.70312 -0.59016,3.1716 -0.9524,4.37906 l -0.0196,0.0884 -0.0294,0.0786 c -0.29125,1.16497 -0.64427,1.87417 -0.70694,1.9637 l -4.15323,5.93039 h 7.24607 c 1.88343,0 4.07494,0.18791 6.54895,0.58911 2.52965,0.41021 5.02352,0.92695 7.48172,1.54151 h 0.01 0.01 c 2.50516,0.60936 4.78055,1.28643 6.8337,2.01279 2.04348,0.79384 3.61522,1.53782 4.58525,2.13062 l 2.70991,1.65933 2.09134,-2.3859 c 0.13544,-0.15479 0.63279,-0.59731 1.40405,-1.09967 0.93527,-0.55846 1.93272,-1.09145 3.01429,-1.60042 l 0.0491,-0.0196 0.0393,-0.0196 c 1.13157,-0.56434 2.24611,-1.0367 3.34812,-1.40404 l 0.0491,-0.0196 0.0589,-0.0196 c 1.19384,-0.43983 2.24998,-0.72807 3.13211,-0.89348 l 4.09433,-0.77567 -1.17823,-3.99614 c -0.29566,-1.00525 -0.58323,-2.27702 -0.84439,-3.76049 -0.17543,-1.3721 -0.27492,-3.38451 -0.27492,-5.95984 v -3.63286 c 0,-0.90647 0.0311,-1.57471 0.0687,-1.87533 l 0.71676,-5.66529 -5.48856,1.57096 c -3.56279,1.01795 -6.68162,2.86583 -9.03304,5.48856 -1.39472,1.56208 -2.36227,3.40538 -3.11247,5.34127 -1.07872,-0.16595 -2.02721,-0.23661 -3.26957,-0.52038 v -0.01 c -1.16666,-0.27509 -1.85226,-0.55401 -2.76882,-0.83457 0.16241,-1.48973 0.36574,-2.8742 0.45165,-4.53616 0.21654,-2.90228 0.33383,-5.5844 0.33383,-8.03155 0,-2.78759 -0.11444,-5.53578 -0.33383,-8.25738 0.17937,0.0948 0.34968,0.23375 0.5302,0.32401 2.60045,1.30023 5.04898,2.10117 7.56026,2.10117 3.3168,0 6.55448,-1.13775 9.41596,-3.13211 l 0.01,-0.01 h 0.01 c 2.91525,-2.05783 5.24086,-4.78697 6.85333,-8.01192 l 2.25826,-4.51652 -4.96817,-0.88366 c -1.412,-0.25102 -2.82253,-0.56199 -4.22197,-0.93276 V 409.0466 c 1.82437,-1.92791 3.15098,-3.33817 3.96669,-4.21215 l 2.77864,-2.97501 -3.1812,-2.543 c -1.00357,-0.80286 -1.73784,-1.45309 -2.14044,-1.8557 -0.62485,-0.62486 -1.46792,-1.42242 -2.55282,-2.43499 z m -38.58679,41.14943 1.15858,3.70158 c 0.68393,2.17615 1.22508,4.89367 1.56115,8.11992 v 0.0491 l 0.01,0.0393 c 0.40399,3.16464 0.60874,6.59656 0.60874,10.29963 0,0.72445 -0.005,1.44107 -0.0196,2.15025 h -8.71885 c -0.0167,-0.98748 -0.0295,-2.05373 -0.0295,-3.21065 0,-5.10147 0.14651,-8.95325 0.40256,-11.40913 0.30307,-2.25855 0.90796,-3.81996 1.5906,-4.80126 z m -26.74566,28.32644 v 5.41982 c -0.75533,-0.0915 -1.67081,-0.32449 -2.36626,-0.35347 -0.38209,-0.0166 -0.74166,-0.058 -1.11932,-0.0786 l 0.0786,-4.15323 c 0.73108,-0.15459 1.34653,-0.204 2.15026,-0.41238 l 0.0589,-0.0196 0.0687,-0.0196 c 0.36713,-0.10878 0.758,-0.26702 1.12913,-0.38292 z"
       sodipodi:nodetypes="cccccccccscccssscscccccccsscccscscssccccccsccsccccccccccsccccsccccccccccccccsscccccccsccsccccscccccsccccccccccccccccccccsssscccccsssccscccccccccccccccsccccccccccccccccccccccsccccccccccsccsscccccsccscccccccccssccccssccccccccscccccsccssscccccccsscccsccccssscsccccccscccccccscccccccccccscsccccccscccscccssccscsccccccccccscccscccccccccccsccccccccscccsccsccccccscccscccsscccccsccccsccccsscccccccccsscccccscccccsccscccccccccsccccccccssccsccscccccccscccsccccccccccccccscccccsccscscccccccccscsccsccccccccscscsccccccccccccccccccccccccccccscccscsccsccscccccccccccccccccsccccccccccsccccccccccccccccccccsccccsscsccccccccccssscccscsccccccccscccccccccccscccccccccssccccccccccccccsccsccsccccsccccccccccccccccscccssccccccccccccccccssccccccccccscccccccsscccccccccscsscccscccccccscccccccsccscccccccccccsc" /><g
       inkscape:groupmode="layer"
       id="layer4"
       inkscape:label="kruh"
       transform="scale(5.0270836)"><path
         id="Path 0 copy"
         class="s0"
         d="m 253.96776,1.9812412 c -4.83809,0.7256238 -12.51049,1.8658898 -17.06826,2.5396834 -4.54737,0.6737937 -14.55576,2.8299332 -22.23856,4.8098491 -7.68279,1.9695513 -20.01678,5.7427953 -27.40888,8.3757733 -7.40247,2.632979 -20.89926,8.551995 -30.00441,13.164891 -9.10514,4.602528 -22.37354,12.263042 -29.48531,17.021062 -7.11177,4.747653 -17.57697,12.48073 -23.26639,17.176553 -5.689435,4.695823 -15.573238,13.828318 -21.968643,20.296736 -6.385022,6.468418 -15.147556,16.191781 -19.456148,21.592491 -4.318975,5.41108 -11.576098,15.42469 -16.133862,22.24555 -4.547382,6.83124 -12.178261,20.3382 -16.95405,30.00974 -5.533687,11.2368 -10.714379,23.75899 -14.316985,34.66408 -3.114645,9.39165 -6.8418376,22.43215 -8.2953386,28.97313 -1.453501,6.54097 -3.5922235,19.22903 -4.7446423,28.19566 -1.3912082,10.80144 -2.09719388,22.31812 -2.10757603,34.1458 0,12.12828 0.67483933,22.9919 2.10757603,33.88662 1.162801,8.82153 3.3222877,21.39554 4.7861709,27.93654 1.4638831,6.55133 4.44356,17.48752 6.623812,24.31875 2.180251,6.83123 6.104705,17.53937 8.721006,23.80046 2.616301,6.2611 7.57897,16.73082 11.015462,23.28217 3.446873,6.54098 9.676163,17.02106 13.86017,23.28215 4.173624,6.2611 11.119282,15.79787 15.427874,21.20896 4.308592,5.40071 13.071127,15.12406 19.466531,21.60285 6.385023,6.47879 16.279208,15.58018 21.968643,20.23455 5.68942,4.64399 13.36182,10.563 17.06825,13.15452 3.69605,2.59151 11.60724,7.66051 17.57698,11.25753 5.98013,3.6074 16.92291,9.43312 24.315,12.96793 7.39209,3.52447 18.80207,8.31359 25.34283,10.63558 6.54075,2.322 18.17914,5.82573 25.86193,7.7849 7.6828,1.94883 22.34238,4.7684 32.58957,6.24037 14.74265,2.1354 22.60194,2.69517 37.7495,2.69517 15.15794,0 23.01723,-0.55977 37.75988,-2.69517 10.24718,-1.47197 24.90677,-4.29154 32.58957,-6.24037 7.68278,-1.95917 19.31079,-5.4629 25.86193,-7.7849 6.54076,-2.32199 17.94035,-7.11111 25.34283,-10.63558 7.39208,-3.53481 18.33487,-9.36053 24.30461,-12.96793 5.98012,-3.59702 13.89132,-8.66602 17.58736,-11.25753 3.69605,-2.59152 11.37883,-8.51053 17.06826,-13.1649 5.68942,-4.65435 15.57322,-13.76612 21.95824,-20.23454 6.39541,-6.46842 15.14756,-16.19177 19.46654,-21.59248 4.30859,-5.41109 11.42035,-15.18628 15.79125,-21.72725 4.37088,-6.55136 11.24387,-18.42049 15.27214,-26.39199 4.02828,-7.96113 9.22972,-19.37415 11.5657,-25.345 2.336,-5.98121 5.92822,-16.45093 7.99426,-23.28216 2.06605,-6.83123 4.88999,-18.23389 6.27083,-25.35538 1.39121,-7.1111 3.22885,-18.75218 4.08018,-25.86329 0.86172,-7.11113 1.5677,-20.84614 1.5677,-30.52804 0,-9.81665 -0.70598,-23.07484 -1.59885,-30.00973 -0.8721,-6.82087 -2.30483,-16.368 -3.16655,-21.20894 -0.86172,-4.83059 -2.907,-13.91125 -4.54739,-20.17235 -1.64037,-6.2611 -4.91075,-16.96923 -7.27788,-23.80045 -2.35675,-6.83125 -8.17076,-20.33822 -12.9154,-30.00974 -4.74463,-9.67154 -12.35476,-23.1785 -16.90213,-30.00974 -4.55776,-6.82086 -11.81489,-16.83447 -16.13386,-22.24555 C 502.62025,101.55757 493.85772,91.844574 487.47269,85.386521 481.08767,78.918102 471.20387,69.816706 465.51445,65.151982 459.82502,60.487257 452.14224,54.557873 448.44619,51.96636 444.75015,49.374846 436.83895,44.31621 430.85883,40.708823 424.88909,37.101437 413.9463,31.275712 406.55422,27.751254 399.15174,24.226796 387.75215,19.448044 381.21139,17.136415 374.66025,14.814417 363.95626,11.528378 357.4155,9.8179792 350.87475,8.1075792 341.33354,5.9929045 336.20478,5.1325219 331.08637,4.2617733 321.77358,2.8416237 315.52353,1.970875 308.01724,0.92390344 297.0952,0.4366989 283.45307,0.52999334 272.07423,0.60255536 258.80584,1.2556173 253.96776,1.9812412 Z"
         style="stroke:#000000;stroke-width:1.03741;stroke-opacity:1"
         inkscape:label="vnejsi kruh"
         transform="scale(0.19892249)" /><path
         id="Path 0-9"
         style="display:inline;fill:none;stroke:#000000;stroke-width:0.95000007;stroke-miterlimit:100;stroke-opacity:1;stroke-dasharray:none"
         class="s0"
         inkscape:label="vnitrni kruh"
         d="m 290.45154,40.854873 c -10.90181,-0.188288 -21.52495,-0.178055 -23.60373,0.01964 -2.06936,0.197699 -7.39036,0.828968 -11.80187,1.384411 -4.42092,0.564859 -10.35625,1.456543 -13.21573,1.99316 -2.85008,0.527201 -10.93081,2.382536 -17.93844,4.133598 -7.00762,1.741644 -18.06582,5.171051 -24.55612,7.609356 -6.49027,2.438305 -16.48028,6.779437 -22.18986,9.63197 -5.71898,2.861951 -14.63139,7.763598 -19.8236,10.89856 -5.19226,3.134962 -12.8477,8.254519 -16.99586,11.389487 -4.15753,3.134966 -11.17092,8.771316 -15.59182,12.508798 -4.41153,3.73748 -11.02011,9.92374 -14.68851,13.74593 -3.66844,3.83162 -9.84111,10.79508 -13.716475,15.47399 -3.875363,4.67891 -10.452824,13.61098 -14.61978,19.84324 -4.166956,6.24167 -10.173882,16.44893 -13.35319,22.6906 -3.179298,6.23229 -7.692785,16.0143 -10.044349,21.73821 -2.351553,5.71447 -5.806243,15.71363 -7.678085,22.2095 -1.871842,6.49587 -4.42408,17.3352 -5.675106,24.09465 -1.241622,6.75007 -2.694556,17.39111 -3.240112,23.62337 -0.545566,6.2417 -1.00149,15.80663 -1.00149,21.26692 0,5.46028 0.455924,15.02523 1.00149,21.26692 0.545556,6.23225 1.99849,16.8639 3.240112,23.62337 1.251026,6.75947 3.740641,17.38167 5.527828,23.62336 1.796583,6.23227 5.033542,15.80664 7.196977,21.26692 2.163425,5.45089 6.790273,15.45004 10.279994,22.2095 3.480296,6.75004 9.704144,17.39109 13.814661,23.62336 4.110516,6.24169 11.580208,16.23141 16.603122,22.2095 5.013523,5.97808 12.680053,14.26825 17.035133,18.42937 4.34568,4.16113 11.52397,10.47164 15.93547,14.02085 4.41153,3.53978 12.69075,9.57065 18.40973,13.40228 5.70958,3.82219 16.12479,9.9459 23.13243,13.59866 7.00764,3.64332 18.48127,8.80339 25.48889,11.45821 7.01703,2.65483 18.5009,6.2813 25.50852,8.05119 7.00763,1.76988 18.48126,4.15346 25.48889,5.302 10.68546,1.74165 16.50049,2.08153 35.8867,2.08153 19.38622,0 25.19142,-0.33988 35.87688,-2.08153 7.00764,-1.14854 18.49109,-3.53212 25.4987,-5.302 7.00765,-1.76989 18.48166,-5.39636 25.4987,-8.05119 7.00762,-2.65482 18.26394,-7.70083 25.0176,-11.20293 6.75368,-3.51156 17.15952,-9.63522 23.13244,-13.59866 5.97295,-3.96341 14.4695,-10.07731 18.88102,-13.58883 4.41152,-3.51154 12.92854,-11.31395 18.92029,-17.32969 5.99176,-6.01573 13.78315,-14.5541 17.31988,-18.96939 3.53676,-4.42474 9.80358,-13.13967 13.9423,-19.37194 4.13873,-6.24167 10.88153,-18.14808 14.97324,-26.46092 4.08228,-8.31282 8.98871,-19.37908 10.88875,-24.57576 1.34171,-3.65152 3.21273,-9.56105 4.80125,-15.10089 h -32.30294 v -19.63474 h 36.28926 c 1.20233,-5.65704 2.38472,-8.35773 3.11248,-12.98239 1.80599,-11.42897 2.16007,-17.39824 2.16007,-35.91616 0,-18.3014 -0.3602,-24.54311 -2.08153,-35.44487 -1.14756,-7.27725 -3.53362,-18.96615 -5.302,-25.97981 -1.75896,-7.02307 -4.74708,-17.01279 -6.64714,-22.2095 -1.90005,-5.19671 -6.91083,-16.48045 -11.1342,-25.05687 -4.2234,-8.57644 -10.97644,-20.47301 -14.99289,-26.4511 -4.01644,-5.97807 -10.2096,-14.47472 -13.75575,-18.8712 -3.54615,-4.39646 -9.84366,-11.57786 -14.00121,-15.96491 -4.15756,-4.38706 -11.16065,-11.01897 -15.57218,-14.73761 -4.42089,-3.728068 -11.42446,-9.344372 -15.58199,-12.479338 -4.14815,-3.134968 -11.81343,-8.254525 -17.00568,-11.389487 -5.19223,-3.134962 -14.10463,-8.036609 -19.8236,-10.89856 -5.70957,-2.852533 -15.69955,-7.193665 -22.18986,-9.63197 -6.49027,-2.438305 -17.53866,-5.877933 -24.54631,-7.628993 -7.00761,-1.751061 -15.29628,-3.616618 -18.40973,-4.153235 -3.12287,-0.536614 -8.43484,-1.437716 -11.81168,-1.99316 -3.37683,-0.564857 -15.05877,-1.176489 -25.96999,-1.364774 z"
         sodipodi:nodetypes="cccccscscccscccsccsccccccccccccscscsccssscccccccccsccsssssccscssccc"
         transform="scale(0.19892249)" /></g></g></svg>
