<?xml version="1.0" encoding="UTF-8" standalone="no"?>
<svg
   version="1.2"
   viewBox="0 0 113.38583 113.38583"
   width="30mm"
   height="30mm"
   id="svg1"
   sodipodi:docname="Vysetrovatel1ReminderTokenLaser.svg"
   inkscape:version="1.4.2 (2aeb623e1d, 2025-05-12)"
   xml:space="preserve"
   xmlns:inkscape="http://www.inkscape.org/namespaces/inkscape"
   xmlns:sodipodi="http://sodipodi.sourceforge.net/DTD/sodipodi-0.dtd"
   xmlns="http://www.w3.org/2000/svg"
   xmlns:svg="http://www.w3.org/2000/svg"><sodipodi:namedview
     id="namedview1"
     pagecolor="#ffffff"
     bordercolor="#666666"
     borderopacity="1.0"
     inkscape:showpageshadow="2"
     inkscape:pageopacity="0.0"
     inkscape:pagecheckerboard="0"
     inkscape:deskcolor="#d1d1d1"
     inkscape:zoom="4.8449537"
     inkscape:cx="58.514491"
     inkscape:cy="53.251283"
     inkscape:window-width="1920"
     inkscape:window-height="1043"
     inkscape:window-x="0"
     inkscape:window-y="0"
     inkscape:window-maximized="1"
     inkscape:current-layer="layer2"
     showgrid="false"
     inkscape:document-units="mm" /><defs
     id="defs1"><clipPath
       clipPathUnits="userSpaceOnUse"
       id="cp1"><path
         d="m 275.5,535.5 c -143.78,0 -260,-116.22 -260,-260 0,-143.78 116.22,-260 260,-260 143.78,0 260,116.22 260,260 0,143.78 -116.22,260 -260,260 z"
         id="path1" /></clipPath></defs><style
     id="style1">
		tspan { white-space:pre } 
		.s0 { fill: none;stroke: #ff0000;stroke-miterlimit:100 } 
	</style><g
     inkscape:groupmode="layer"
     id="layer2"
     inkscape:label="Content"
     style="display:inline"
     transform="scale(0.1989225)"><path
       id="path5-0"
       style="display:inline;fill:none;fill-opacity:1;stroke:#000000;stroke-width:0.95000006;stroke-dasharray:none;stroke-opacity:1"
       inkscape:label="Znak"
       d="m 219.38904,96.332268 c -26.03619,-1.498696 -47.28744,17.150392 -61.79227,36.778532 -12.28492,15.35743 -14.68683,35.42838 -16.18222,54.34274 0.56446,13.89904 0.54929,30.70313 13.25491,39.60192 14.62657,13.73397 36.08854,16.32995 55.31784,15.85675 16.00213,-3.5457 28.30645,-15.79179 39.45665,-27.15345 3.42644,-4.2388 6.9394,-8.46277 11.9735,-3.94813 28.21447,11.39699 56.04438,23.97113 83.23326,37.6923 17.25257,9.38041 35.24267,17.37891 53.8179,23.68512 -3.72604,0.66484 12.4038,1.02556 12.12119,-3.53427 7.54698,-8.74346 13.76814,-18.93335 17.77239,-29.74037 1.9458,-12.19037 -9.10092,-22.45216 -20.28798,-24.46698 -22.99648,-4.21748 -45.58433,-10.49191 -68.32889,-15.9207 -19.48457,-5.03363 -39.25565,-9.16656 -58.59382,-14.56129 -6.85041,-6.78492 -9.81524,-14.34015 -6.82672,-24.7627 -0.41852,-12.35845 1.89529,-25.96332 -4.08215,-37.23699 -11.39778,-8.80022 -23.47831,-16.91626 -35.9796,-24.041568 -4.67724,-2.0312 -9.8298,-2.517699 -14.87399,-2.590914 z m -7.40684,18.829282 c 12.88023,-1.26164 24.90466,-1.40092 26.47653,12.8134 5.11999,5.08993 -0.39487,50.88645 -13.43427,64.71021 -8.6746,10.14347 -17.96788,23.98817 -32.45698,25.16186 -12.43024,1.42896 -28.24226,-8.32602 -27.93583,-20.6637 -5.19724,-27.4339 -1.67385,-51.2575 21.42337,-68.57395 7.7517,-5.60331 16.4498,-11.63983 25.92718,-13.44782 z m 66.41155,79.32954 c 17.96071,5.07887 35.35109,12.20731 53.02591,18.2606 16.19459,7.12221 33.5632,10.99251 49.88586,17.72411 7.94394,10.12092 -11.04642,1.9199 -15.42495,-0.19452 -29.01872,-11.3056 -58.07161,-22.54387 -87.12873,-33.73698 -1.90503,0.51336 -1.93774,-2.46715 -0.35809,-2.05321 z"
       sodipodi:nodetypes="ccccccccccccccccccccccccccccccc" /><g
       id="text2"
       inkscape:label="Text"
       style="opacity:1" /><g
       inkscape:groupmode="layer"
       id="layer3"
       inkscape:label="Kruh"
       transform="matrix(5.0270836,0,0,5.0270836,0.00664469,0.00663573)"
       style="display:inline"><circle
         style="fill:none;stroke:#000000;stroke-width:0.949978;stroke-dasharray:none"
         id="path2"
         cx="284.99338"
         cy="284.99338"
         r="284.52502"
         inkscape:label="vnejsi kruh"
         transform="scale(0.19892249)" /><circle
         style="fill:none;stroke:#000000;stroke-width:0.95000007;stroke-dasharray:none"
         id="path2-9"
         cx="284.99338"
         cy="284.99338"
         inkscape:label="vnitrni kruh"
         r="244.2684"
         transform="scale(0.19892249)" /></g><path
       id="path4"
       style="display:inline;opacity:1;font-size:106.743px;font-family:'New Rocker';-inkscape-font-specification:'New Rocker';letter-spacing:3.06652px;baseline-shift:baseline;white-space:pre;overflow:visible;fill:none;stroke:#000000;stroke-opacity:1;enable-background:accumulate;stop-color:#000000;stop-opacity:1;stroke-width:0.95000006;stroke-dasharray:none"
       d="m 381.79325,336.45131 1.08004,2.7001 c 0.11333,0.28332 0.31465,0.95485 0.49093,1.89497 v 0.0295 l 0.01,0.0294 c 0.15413,0.77065 0.31831,2.0544 0.45166,3.72122 l 0.01,0.0982 0.0196,0.108 c 0.18646,1.49165 0.32455,3.45529 0.39274,5.84202 v 0.01 c 0.0296,1.00759 0.0519,2.11126 0.0687,3.30885 h -6.29367 c 0.0136,-4.7255 0.16512,-8.30414 0.40256,-10.58437 0.29003,-2.13964 0.85592,-3.55309 1.42368,-4.36924 z m -171.13685,3.63286 v 0.19637 l 4.53616,0.94258 c 0.76334,1.70249 1.5442,3.88359 2.18953,6.96133 v 0.0393 l 0.01,0.0393 c 0.39357,1.74294 0.71346,3.72279 0.94258,5.93039 h -9.09195 c 0.0134,-4.72032 0.16557,-8.28403 0.40256,-10.56474 0.21751,-1.61367 0.5964,-2.70278 1.0113,-3.54448 z m 200.69061,4.01577 c 0.83976,0.2535 1.59922,0.53727 2.51354,0.76585 0.25557,0.0639 0.44971,0.0601 0.69711,0.11782 v 18.27227 c -0.0834,0.0384 -0.10941,0.0591 -0.19637,0.0982 -1.10212,0.42481 -2.31121,0.82726 -3.64267,1.20768 -0.90762,0.25932 -1.89301,0.4931 -2.86701,0.72657 0.007,-0.19846 0.0133,-0.36851 0.0196,-0.56948 0.14488,-2.34636 0.22582,-4.69297 0.22582,-7.03988 0,-2.42643 -0.0381,-4.95378 -0.108,-7.5799 -6e-5,-1.50373 -0.0833,-2.48956 -0.12764,-3.69176 0.53979,-0.31615 1.04903,-0.51888 1.61024,-0.88367 l 0.0196,-0.0196 0.0196,-0.01 c 0.72529,-0.48353 1.21743,-0.93348 1.83607,-1.39423 z m -33.09824,18.86139 h 6.05802 c -0.034,1.46721 -0.0897,2.93157 -0.16691,4.39869 -0.11969,2.20416 -0.52733,4.65033 -1.20768,7.29517 v -7.06934 l -3.66231,-0.84439 c -0.22203,-0.0512 -0.22791,-0.0786 -0.35346,-0.12764 -0.002,-0.006 -0.008,-0.0165 -0.01,-0.0196 l -0.01,-0.01 c -0.002,-0.004 0.002,-0.0127 0,-0.0196 -0.21302,-0.73123 -0.46004,-1.97878 -0.64802,-3.60339 z m 59.94208,0 h 5.47873 c 3e-5,0.0197 0,0.0392 0,0.0589 0,2.76779 -0.0678,5.53838 -0.20619,8.30647 -0.10026,1.94569 -0.44376,3.22834 -0.78548,4.3987 v -7.86464 l -3.32848,-1.03095 c -0.2749,-0.0846 -0.34066,-0.141 -0.48111,-0.216 v -0.01 c -0.005,-0.0382 -0.0631,-0.19599 -0.19637,-0.50075 -0.16854,-0.66094 -0.34796,-1.72736 -0.4811,-3.14192 z m -252.1593,0.45165 v 2.99465 c -0.4279,-0.038 -0.97266,-0.18903 -1.38441,-0.20619 -0.0648,-0.003 -0.12192,-0.007 -0.18656,-0.01 l 0.0491,-2.48409 c 0.50643,-0.11628 0.91601,-0.14547 1.45314,-0.28473 z m 168.7804,0 v 2.99465 c -0.42777,-0.038 -0.97277,-0.18904 -1.38441,-0.20619 -0.0648,-0.003 -0.1219,-0.007 -0.18655,-0.01 l 0.0491,-2.48409 c 0.50643,-0.11628 0.90619,-0.14547 1.44332,-0.28473 z m 114.15015,0 v 2.99465 c -0.42839,-0.0381 -0.96239,-0.18901 -1.3746,-0.20619 -0.0648,-0.003 -0.12193,-0.007 -0.18655,-0.01 l 0.0491,-2.48409 c 0.50659,-0.11631 0.90602,-0.14542 1.44333,-0.28473 z m -305.59938,32.74737 c -0.2871,-0.20084 -6.75472,-10.50486 -7.06166,-10.73424 -1.08269,-0.85004 -2.5693,-2.31184 -4.09432,-3.8685 -0.33368,-1.93469 -0.63351,-3.8794 -0.7953,-5.86166 -0.13506,-2.59452 -0.20619,-4.87673 -0.20619,-6.80424 0,-0.5153 0.007,-1.03597 0.0196,-1.55132 h 9.45523 c -0.0349,1.32575 -0.0908,2.66024 -0.15709,3.98632 -0.12486,2.42323 -0.50698,4.26959 -0.97204,5.47873 l -1.42856,5.16189 7.92842,1.39689 c 2.87079,0.16879 5.50156,0.497 7.68791,1.08003 h 0.01 l 0.01,0.01 c 2.8678,0.74813 5.42401,1.82258 7.71736,3.21066 l 3.47576,2.10116 5.74384,-6.91224 c 1.42157,1.84248 3.04612,3.45116 4.90926,4.69326 l 4.44779,2.96519 2.39572,-4.78162 c 0.23929,-0.47857 0.73216,-1.28057 1.47278,-2.26808 0.71231,-0.94973 1.52577,-1.87924 2.44481,-2.79828 0.95615,-0.95615 1.89055,-1.79914 2.8081,-2.53318 l 0.0196,-0.0196 0.01,-0.01 c 0.84544,-0.68692 1.50422,-1.02744 1.81643,-1.13895 l 3.13211,-1.11931 v -8.25738 l -3.66231,-0.84439 c -0.22058,-0.0509 -0.22817,-0.0789 -0.35347,-0.12764 -0.003,-0.007 -0.008,-0.0256 -0.01,-0.0295 l -0.01,-0.01 c -0.002,-0.005 -0.007,-0.0106 -0.01,-0.0196 -0.21257,-0.73187 -0.44112,-1.97401 -0.62839,-3.59358 h 9.28832 c 9.9e-4,0.19634 0,0.39052 0,0.58911 0,0.63971 -0.0214,1.52075 -0.0884,2.59209 l -0.01,0.14728 v 0.14727 c 0,0.96251 -0.0416,2.00362 -0.10801,3.13211 v 0.13746 0.14728 c 0,1.04023 -0.0331,2.08148 -0.0982,3.12229 -0.0693,1.03773 -0.13821,1.96289 -0.20619,2.77864 l -0.34365,4.04523 3.94705,0.94258 c 2.99907,0.71717 5.89063,1.68926 8.68939,2.92592 2.83068,1.25076 5.11017,2.53918 6.82387,3.78013 l 1.23714,0.89349 h 4.21214 l 15.66055,-12.12588 4.33978,-13.255 h 10.25054 v 9.23923 c 0,1.54287 -0.27686,2.42905 -0.35347,2.58227 l -0.0295,0.0589 -2.49391,1.04076 v 9.47488 h 29.08247 v -9.61234 l -2.46445,-0.91312 c -0.17323,-0.49421 -0.4222,-1.72978 -0.4222,-3.59358 v -19.89233 l 5.07618,-2.26808 v 7.0497 0.0393 c 0.0707,4.02864 0.108,8.05798 0.108,12.0866 0,0.49664 -0.0584,1.74177 -0.19637,3.46594 -0.13933,1.74165 -0.3193,3.66427 -0.5302,5.77329 -0.20224,1.95105 -0.46823,3.90768 -0.80512,5.86166 l -0.01,0.01 v 0.01 c -0.33344,2.0006 -0.69677,3.61534 -1.04076,4.76199 l -0.80512,2.70009 6.08749,6.08749 3.33829,-3.57395 c 0.87892,-0.94172 1.91504,-1.93899 3.10266,-2.99465 1.16665,-1.03703 2.40485,-2.05223 3.7114,-3.03392 1.36528,-0.97347 2.68458,-1.83641 3.95686,-2.60191 1.26552,-0.72096 2.45767,-1.27207 3.56413,-1.65933 l 3.86849,-1.35495 -0.80511,-4.0256 c -0.13294,-0.6647 -0.26826,-1.37399 -0.40256,-2.11098 -0.0998,-0.60235 -0.19091,-1.51172 -0.25529,-2.67064 -0.0672,-1.20957 -0.13705,-2.81002 -0.20618,-4.73253 v -5.20381 h 5.36091 c 3e-5,0.0198 0,0.039 0,0.0589 0,2.76779 -0.0678,5.53838 -0.20619,8.30647 -0.12486,2.42323 -0.50697,4.26959 -0.97203,5.47873 l -2.42518,6.29368 6.74533,0.11782 c 3.82296,0.0659 7.12175,0.49507 9.86761,1.22731 l 0.01,0.01 h 0.01 c 2.8678,0.74813 5.42401,1.82258 7.71736,3.21066 l 3.47575,2.10116 5.74384,-6.91224 c 1.42174,1.84286 3.04581,3.45096 4.90926,4.69326 l 4.44779,2.96519 2.39572,-4.78162 c 0.23929,-0.47857 0.73216,-1.28057 1.47278,-2.26808 0.71231,-0.94973 1.52577,-1.87924 2.44481,-2.79828 0.95615,-0.95615 1.89055,-1.79914 2.8081,-2.53318 l 0.0196,-0.0196 0.01,-0.01 c 0.84544,-0.68692 1.50421,-1.02744 1.81642,-1.13895 l 2.8081,-1.00149 -0.88367,3.39721 4.48707,1.23713 c 1.61274,0.4449 3.23433,1.14527 4.88962,2.15026 1.59132,0.96617 3.10111,2.20586 4.53616,3.76049 l 1.87534,2.03244 2.69027,-0.64803 c 1.90662,-0.45759 3.87407,-1.0279 5.89112,-1.6986 2.02014,-0.60162 3.97178,-1.27648 5.86165,-2.03243 l 0.0491,-0.0196 0.0393,-0.01 c 1.9575,-0.82818 3.81788,-1.70378 5.57692,-2.62154 0.19379,-0.1011 0.34027,-0.2127 0.5302,-0.3142 0.28171,0.41893 0.44062,0.87279 0.74621,1.28623 1.48994,2.0158 3.23522,3.73431 5.23327,5.06636 l 4.44779,2.96519 2.39572,-4.78162 c 0.23928,-0.47857 0.73215,-1.28057 1.47278,-2.26808 0.7123,-0.94973 1.52576,-1.87924 2.44481,-2.79828 0.95614,-0.95615 1.90037,-1.79914 2.81792,-2.53318 l 0.01,-0.0196 0.01,-0.01 c 0.84544,-0.68692 1.50422,-1.02744 1.81642,-1.13895 l 3.11247,-1.10949 c -0.0747,0.24726 -0.0863,0.74299 -0.16691,0.95239 l -2.42518,6.29368 6.74533,0.11782 c 3.82296,0.0659 7.11192,0.49507 9.8578,1.22731 h 0.0196 l 0.01,0.01 c 2.86779,0.74813 5.42401,1.82258 7.71736,3.21066 l 3.47576,2.10116 5.74383,-6.91224 c 1.42173,1.84286 3.04582,3.45096 4.90926,4.69326 l 4.44779,2.96519 2.38591,-4.78162 c 0.23929,-0.47857 0.74197,-1.28057 1.48259,-2.26808 0.71231,-0.94973 1.52578,-1.87924 2.44482,-2.79828 0.95615,-0.95615 1.89054,-1.79914 2.80809,-2.53318 l 0.0196,-0.0196 0.01,-0.01 c 0.84544,-0.68692 1.50421,-1.02744 1.81642,-1.13895 l 3.13211,-1.11931 v -8.25738 l -3.66231,-0.84439 c -0.22203,-0.0512 -0.23773,-0.0786 -0.36328,-0.12764 -0.002,-0.006 -0.008,-0.0262 -0.01,-0.0295 -0.002,-0.004 -0.007,-0.0124 -0.01,-0.0196 -0.22427,-0.77028 -0.47576,-2.11689 -0.66766,-3.86849 -0.12682,-1.88062 -0.19637,-4.47981 -0.19637,-7.78609 0,-5.07696 0.14387,-8.89699 0.39274,-11.2913 0.28954,-2.14616 0.85491,-3.56144 1.42369,-4.37906 l 5.16454,-7.41299 h -9.03304 c -3.07089,0 -5.42991,-0.51909 -7.20679,-1.34514 -1.86747,-0.97355 -3.83652,-2.49382 -5.86166,-4.70307 l -2.58227,-2.81792 -3.28921,1.93425 c -1.45452,0.85265 -3.97218,1.83254 -7.40317,2.69028 -3.20298,0.80075 -7.2471,1.24695 -12.0866,1.24695 h -0.97203 c -0.61546,-0.12111 -1.05972,-0.0982 -1.4826,-0.0982 h -5.95002 l 1.35495,5.79292 c 0.54977,2.35612 1.18315,4.38293 2.03244,6.17586 l 0.0393,0.0884 0.0491,0.0884 c 0.89924,1.70857 1.96774,3.23073 3.33829,4.48706 l 0.0786,0.0687 0.0884,0.0785 c 1.30982,1.09152 2.84391,1.93326 4.49688,2.40554 l 0.18655,0.0491 0.18655,0.0393 c 1.40378,0.28076 2.8523,0.41237 4.33979,0.41237 2.36366,0 4.86561,-0.4486 7.74682,-1.22731 0.56229,-0.15196 1.07555,-0.41204 1.62987,-0.57929 v 0.72657 c -0.25985,0.0888 -0.36918,0.1666 -0.65784,0.25528 -1.39784,0.37886 -2.98571,0.73947 -4.7718,1.07022 -1.76018,0.32596 -3.64456,0.58467 -5.63583,0.78548 -1.93063,0.13131 -3.82175,0.19637 -5.67511,0.19637 -1.66862,0 -3.1682,-0.0951 -4.48706,-0.27492 l -8.11992,-1.10949 2.43499,5.93039 h -4.06487 c -0.004,-0.5939 -0.01,-1.20785 -0.01,-1.84589 v -39.1759 c 0,-3.46814 0.23431,-6.45895 0.66766,-8.95449 0.45744,-2.24342 1.18607,-3.72867 1.97353,-4.67362 l -5.65547,-7.28535 c -2.80626,1.33631 -5.39529,2.34465 -7.74682,3.04375 h -0.0196 l -0.0196,0.01 c -2.17625,0.66497 -4.15575,0.97203 -5.97948,0.97203 -1.51335,0 -2.66799,-0.21164 -3.46594,-0.49093 l -11.36003,-3.9765 5.63583,10.64328 c 0.55687,1.05186 0.99766,2.0484 1.34514,2.97501 0.32478,0.86608 0.57247,1.75156 0.73639,2.68046 l 0.0196,0.13746 0.0294,0.12764 c 0.21019,0.89331 0.36338,1.92636 0.4222,3.10265 0.0663,1.32525 0.0982,2.84951 0.0982,4.56561 v 9.89708 c -0.0873,-0.0218 -0.19831,-0.0267 -0.28473,-0.0491 -1.65897,-0.43011 -3.51356,-1.0715 -5.54747,-1.92443 l -2.39572,-1.00149 -2.13062,1.4826 c -3.08669,2.14727 -6.1871,3.97529 -9.29814,5.49837 -2.92315,1.39513 -5.74173,2.31265 -8.47339,2.79828 l -2.35644,0.4222 0.93276,-1.34514 h -9.03304 c -3.07087,0 -5.42992,-0.5191 -7.2068,-1.34514 -1.86749,-0.97355 -3.83651,-2.49381 -5.86166,-4.70307 l -2.57245,-2.81792 -3.2892,1.93425 c -1.45451,0.85265 -3.97218,1.83254 -7.40317,2.69028 -3.20298,0.80075 -7.25692,1.24695 -12.09642,1.24695 h -0.96221 c -0.61526,-0.12101 -1.06962,-0.0982 -1.49242,-0.0982 h -5.95002 l 1.35495,5.79292 c 0.54976,2.35612 1.18315,4.38293 2.03244,6.17586 l 0.0491,0.0884 0.0491,0.0884 c 0.89924,1.70857 1.95793,3.23073 3.32848,4.48706 l 0.0884,0.0687 0.0785,0.0785 c 1.30981,1.09151 2.85374,1.93325 4.5067,2.40554 l 0.17673,0.0491 0.18655,0.0393 c 1.40378,0.28076 2.86212,0.41237 4.34961,0.41237 2.36366,0 4.85578,-0.4486 7.73699,-1.22731 0.56229,-0.15196 1.07556,-0.41204 1.62988,-0.57929 v 0.72657 c -0.25891,0.0885 -0.36051,0.16692 -0.64802,0.25528 -1.39871,0.37922 -2.99398,0.73918 -4.78162,1.07022 -1.76017,0.32596 -3.63476,0.58467 -5.62602,0.78548 -1.93062,0.13131 -3.82174,0.19637 -5.6751,0.19637 -1.66862,0 -3.16822,-0.0951 -4.48707,-0.27492 l -8.12974,-1.10949 2.435,5.93039 h -3.6034 c 0.0163,-1.04501 0.0436,-2.00746 0.0687,-2.88665 0.0694,-2.4277 0.13763,-4.45652 0.20619,-6.11694 0.13076,-1.5575 0.25318,-2.80212 0.3731,-3.72122 0.18414,-0.96477 0.38808,-1.8541 0.61857,-2.66082 l 1.09967,-3.84886 -3.60339,-1.71824 c -1.39026,-0.66203 -2.58522,-1.27113 -3.59358,-1.83607 -1.02858,-0.64431 -2.03093,-1.29294 -2.99465,-1.93424 -0.84887,-0.60803 -1.70221,-1.27874 -2.57246,-2.02262 -0.96392,-0.8955 -2.02307,-1.88558 -3.19102,-2.98483 l -3.42666,-3.2303 -3.24011,3.41685 c -2.44965,2.58573 -4.79822,4.80107 -7.03988,6.64714 -0.14406,0.11864 -0.35395,0.24441 -0.50075,0.36329 v -0.90331 l -4.38888,-7.32462 -3.39721,0.8444 c -2.19898,0.54974 -4.73224,1.14156 -7.5799,1.76733 -2.83734,0.55309 -5.4579,1.00413 -7.84499,1.34514 l -4.05505,0.57929 v 8.3752 l 3.94704,1.70842 v 16.14166 h -7.37371 l 4.45761,-13.59866 -1.90479,-2.04225 c -0.1493,-0.15996 -0.50472,-0.68902 -0.69712,-2.03244 -0.24879,-1.81171 -0.38112,-3.74687 -0.38292,-5.80274 l 6.77478,-10.16217 -12.66589,3.89795 c -2.60418,0.80129 -5.24342,1.46685 -7.91373,2.00298 -2.68426,0.46805 -5.32241,0.81122 -7.92355,1.01131 l -4.09433,0.31419 -0.56947,9.00358 2.90628,1.36478 c 0.006,0.003 0.0243,0.008 0.0295,0.01 0.0135,0.003 0.0285,0.006 0.0393,0.01 h 0.01 v 0.01 h 0.01 c 0.0346,0.0321 0.0815,0.13021 0.20619,0.44184 l 0.0393,0.0884 0.0393,0.0982 c 0.15708,0.34907 0.54002,1.97506 0.54002,4.46743 0,1.84609 -0.13019,4.11861 -0.40256,6.77478 -0.2684,2.54565 -0.66603,5.17603 -1.20768,7.88427 l -0.01,0.0491 -0.01,0.0589 c -0.25607,1.46327 -0.64772,2.80718 -0.98185,4.20232 v -0.93276 c 0,-7.8209 -0.36743,-14.6817 -1.10949,-20.62871 -0.68445,-6.06322 -1.81409,-10.74376 -4.31034,-14.38414 l -2.87682,-4.19251 -3.96669,3.17139 c -0.18208,0.14567 -0.97071,0.63911 -2.13062,1.1684 -1.27226,0.506 -2.68566,1.02149 -4.2416,1.54151 -1.51293,0.45958 -3.06114,0.88885 -4.64416,1.28622 -1.56536,0.32378 -2.88839,0.54138 -3.87831,0.65785 l -4.17288,0.49092 v 1.40405 h -3.46594 c -3.06885,0 -5.42048,-0.52006 -7.19697,-1.34514 -0.66718,-0.34766 -1.351,-0.76227 -2.04226,-1.25677 V 313.8891 c 1.06266,-0.93336 2.04153,-1.73905 2.92592,-2.41536 l 0.0687,-0.0491 0.0687,-0.0491 c 1.14963,-0.94676 2.01408,-1.60783 2.3859,-1.8557 l 6.36241,-4.2416 -6.63732,-3.78995 c -0.32975,-0.18844 -1.02864,-0.61728 -1.9048,-1.17823 -0.87278,-0.669 -1.79529,-1.35945 -2.77864,-2.08152 -0.90671,-0.71297 -1.7817,-1.42201 -2.62154,-2.13062 -0.68758,-0.63561 -1.15648,-1.15905 -1.29605,-1.34514 l -4.57543,-6.10712 -3.42667,6.83369 c -0.56225,1.12451 -1.31278,2.47231 -2.25826,4.02559 l -0.0393,0.0687 -0.0393,0.0687 c -0.87408,1.54644 -1.82258,3.09767 -2.83756,4.65398 l -0.01,0.0196 -0.01,0.0196 c -0.98882,1.55385 -1.94113,3.03846 -2.85719,4.44779 l -0.0491,0.0687 -0.0491,0.0786 c -0.85989,1.43316 -1.53751,2.58382 -2.05207,3.46593 l -2.05207,3.51504 3.1812,2.55281 c 0.89757,0.71807 1.45188,1.30004 1.57096,1.45314 l 0.17674,0.22583 0.20619,0.20619 c 0.77795,0.77795 1.71835,1.5913 2.92592,2.57245 l 3.30884,2.68046 3.00447,-3.00447 c 0.17755,-0.17755 0.35977,-0.36103 0.54001,-0.54002 v 2.29753 l -0.92294,0.54002 c -1.45452,0.85265 -3.97218,1.83254 -7.40316,2.69028 -3.20299,0.80075 -7.25692,1.24695 -12.09642,1.24695 h -0.96222 c -0.61546,-0.12111 -1.06953,-0.0982 -1.49241,-0.0982 h -5.95003 l 1.35496,5.79292 c 0.54977,2.35612 1.18313,4.38293 2.03243,6.17586 l 0.0491,0.0884 0.0393,0.0884 c 0.89924,1.70857 1.96775,3.23073 3.3383,4.48706 l 0.0884,0.0687 0.0785,0.0785 c 1.30981,1.09151 2.85373,1.93325 4.5067,2.40554 l 0.18655,0.0491 0.18656,0.0393 c 1.40379,0.28076 2.85229,0.41237 4.33978,0.41237 2.36365,0 4.85579,-0.4486 7.737,-1.22731 0.56217,-0.15193 1.07566,-0.41208 1.62987,-0.57929 v 0.72657 c -0.25985,0.0888 -0.36918,0.1666 -0.65784,0.25528 -1.39784,0.37886 -2.98571,0.73947 -4.7718,1.07022 -1.76018,0.32596 -3.63474,0.58467 -5.62601,0.78548 -1.92993,0.13122 -3.82238,0.19637 -5.67511,0.19637 -1.66861,0 -3.1682,-0.0951 -4.48706,-0.27492 l -8.12974,-1.10949 3.12229,7.58972 c 0.29164,0.70827 0.54649,1.60761 0.71675,2.71973 h -8.3752 c 0.16137,-0.99653 0.34172,-1.98653 0.54984,-2.98483 1.01724,-4.53592 2.29641,-8.74163 3.82922,-12.60699 l 0.7953,-2.00298 -0.99167,-1.91461 c -3.25219,-6.2389 -4.70307,-11.52506 -4.70307,-15.74891 0,-3.67982 0.8827,-6.71691 2.67064,-9.51415 1.96787,-3.03734 4.8297,-5.9681 8.70903,-8.7483 l 8.06101,-5.78311 -9.57306,-2.61173 c -1.20326,-0.32817 -2.45419,-0.4811 -3.70159,-0.4811 -1.90418,0 -3.87987,0.20415 -5.95002,0.59892 -1.76007,0.2817 -3.72806,0.60193 -5.90093,0.9524 -2.12533,0.34279 -4.50875,0.69404 -7.13807,1.04076 -2.42456,0.2612 -5.17424,0.39275 -8.22792,0.39275 h -2.13062 c -0.46557,0 -0.98908,-0.0213 -1.56115,-0.0786 l -2.20916,9.08213 c 2.81636,1.11683 3.49686,2.06079 3.74085,4.90926 v 4.31033 0.0589 c 0.0706,2.96384 0.14498,6.93751 0.21601,11.90986 v 0.0393 0.0294 c 0.14194,4.96786 0.28988,10.6852 0.43202,17.15296 v 0.0295 0.0294 c 0.0254,0.77187 0.0707,1.63555 0.0982,2.41536 -0.2419,-0.42448 -0.50605,-0.79907 -0.74621,-1.22732 -2.59577,-4.70043 -5.01568,-9.3239 -7.25588,-13.87357 -0.003,-0.006 -0.007,-0.0137 -0.01,-0.0196 -2.1672,-4.54541 -4.15505,-8.87391 -5.96966,-12.9899 l -0.01,-0.0295 c -1.51842,-3.58389 -2.77085,-6.61773 -3.91759,-9.45523 0.41992,-1.50724 1.1343,-2.42991 3.31866,-3.27939 l -2.17972,-9.09195 c -0.55656,0.0557 -1.11492,0.0786 -1.66914,0.0786 h -2.03244 c -2.75427,0 -5.30895,-0.13166 -7.66826,-0.39275 -2.41039,-0.34501 -4.683116,-0.68739 -6.814059,-1.03094 l -0.01964,-0.01 c -2.065993,-0.34425 -4.003994,-0.65353 -5.812566,-0.93276 l -0.117822,-0.0196 c -1.972715,-0.38853 -3.824958,-0.59892 -5.606376,-0.59892 -1.2883,0 -2.5586,0.14508 -3.809587,0.52038 l -9.209774,2.759 7.815544,5.59656 c 3.874375,2.77664 6.682974,5.69908 8.57157,8.70903 l 0.02946,0.0393 0.02945,0.0491 c 1.846157,2.79721 2.739368,5.80623 2.739368,9.46505 0,4.22385 -1.441067,9.51001 -4.693254,15.74891 l -1.296045,2.47427 1.551327,2.32699 c 1.439269,2.1589 2.412113,4.32517 2.984831,6.55877 l 0.0098,0.0491 0.01964,0.0589 c 0.662575,2.34913 0.991671,4.78729 0.991671,7.36389 0,2.78261 -0.363057,5.52045 -1.109493,8.25738 l -0.0098,0.0491 -0.01964,0.0491 c -0.705215,2.82086 -1.692292,5.58232 -2.984831,8.29665 l -0.0098,0.0196 -0.01964,0.0196 c -1.228286,2.65051 -2.668073,5.12775 -4.339787,7.44244 l -0.01964,0.0294 -0.01964,0.0196 c -1.69269,2.40883 -3.486891,4.52237 -5.390369,6.3624 l 4.752165,7.88428 c 5.766827,-1.89699 10.546002,-4.21068 14.335043,-7.15771 2.192725,-1.70546 4.06823,-3.6957 5.763473,-5.81256 0.07399,0.0559 0.182612,0.14187 0.255281,0.19637 l 0.04909,0.0491 0.05891,0.0393 c 1.34041,0.94616 2.63873,1.75295 3.91759,2.435 l 0.0491,0.0294 0.0589,0.0295 c 1.27935,0.63967 2.56842,1.21107 3.8685,1.6986 l 0.0393,0.01 0.0491,0.0196 c 1.34675,0.47533 2.83389,0.93354 4.48706,1.38441 l 14.4725,3.94705 -9.60251,-11.52695 c -1.28206,-1.53849 -2.33908,-3.01439 -3.19102,-4.40852 -0.76652,-1.31924 -1.43801,-2.89344 -1.98334,-4.7718 -0.5335,-1.83758 -1.44663,-6.26109 -1.70999,-9.02632 -0.0539,-0.56578 -0.0449,-1.54759 -0.0884,-2.17971 1.8958,3.1707 4.23439,8.45195 6.40324,11.57914 l 0.0295,0.0393 0.0295,0.0393 c 3.25352,4.51056 6.80093,8.79825 10.64327,12.86227 4.00851,4.2354 6.39402,7.37938 11.17462,10.56645 z"
       sodipodi:nodetypes="csccccccccccccccccccccccccccccsccsccccccccsccccccccccsccccccccccccccccccccccccccccccccccccccccccccccsccsscccccccccccccsccsccsccccsccccccssccccccsccccssccccccccsccccscscccsccccccccccsccsscccccccsccccsccscssccssccccccccccccccsccsscccccccccccscccsccccsscscccccccccccsscccscsccccssccccccscccscccsscscccccccsccccsscscccccccccccsscccscsccccsccsccccccccscccccsccccccccccccccccccccccccscscccscccccccsccscccccccccccccccccccccccccccccsccscccsscscccccccccccsscccscscccccccccsccccscscsscccccccccccccsccccccsscccccsccccccsccscccscccccccccccsccccccscccscccssccccccccccc"
       inkscape:label="text" /></g></svg>
