<?xml version="1.0" encoding="UTF-8" standalone="no"?>
<svg
   version="1.2"
   viewBox="0 0 113.38583 113.38583"
   width="30mm"
   height="30mm"
   id="svg1"
   sodipodi:docname="ReminderTokenLaserTemplate.svg"
   inkscape:version="1.4.2 (2aeb623e1d, 2025-05-12)"
   xml:space="preserve"
   xmlns:inkscape="http://www.inkscape.org/namespaces/inkscape"
   xmlns:sodipodi="http://sodipodi.sourceforge.net/DTD/sodipodi-0.dtd"
   xmlns="http://www.w3.org/2000/svg"
   xmlns:svg="http://www.w3.org/2000/svg"><sodipodi:namedview
     id="namedview1"
     pagecolor="#ffffff"
     bordercolor="#666666"
     borderopacity="1.0"
     inkscape:showpageshadow="2"
     inkscape:pageopacity="0.0"
     inkscape:pagecheckerboard="0"
     inkscape:deskcolor="#d1d1d1"
     inkscape:zoom="4.5446687"
     inkscape:cx="22.883956"
     inkscape:cy="68.43183"
     inkscape:window-width="1920"
     inkscape:window-height="1043"
     inkscape:window-x="0"
     inkscape:window-y="0"
     inkscape:window-maximized="1"
     inkscape:current-layer="layer1"
     showgrid="false"
     inkscape:document-units="mm" /><defs
     id="defs1"><clipPath
       clipPathUnits="userSpaceOnUse"
       id="cp1"><path
         d="m 275.5,535.5 c -143.78,0 -260,-116.22 -260,-260 0,-143.78 116.22,-260 260,-260 143.78,0 260,116.22 260,260 0,143.78 -116.22,260 -260,260 z"
         id="path1" /></clipPath><clipPath
       clipPathUnits="userSpaceOnUse"
       id="cp1-0"><path
         d="m 275.5,535.5 c -143.78,0 -260,-116.22 -260,-260 0,-143.78 116.22,-260 260,-260 143.78,0 260,116.22 260,260 0,143.78 -116.22,260 -260,260 z"
         id="path1-3" /></clipPath></defs><style
     id="style1">
		tspan { white-space:pre } 
		.s0 { fill: none;stroke: #ff0000;stroke-miterlimit:100 } 
	</style><g
     inkscape:groupmode="layer"
     id="layer1"
     inkscape:label="Template"
     transform="scale(0.1989225)"><g
       id="text2"
       inkscape:label="Text"
       style="opacity:1" /><g
       id="text2-4"
       inkscape:label="Text"
       style="opacity:1" /></g><g
     inkscape:groupmode="layer"
     id="layer2"
     inkscape:label="Content"
     style="display:inline"
     transform="scale(0.1989225)"><g
       inkscape:groupmode="layer"
       id="layer3"
       inkscape:label="Kruh"
       transform="scale(5.0270836)"><path
         id="path2"
         style="fill:none;stroke:#000000;stroke-width:0.949978"
         inkscape:label="vnejsi kruh"
         transform="scale(0.19892249)"
         d="M 569.5184,284.99338 A 284.52502,284.52502 0 0 1 284.99338,569.5184 284.52502,284.52502 0 0 1 0.46835327,284.99338 284.52502,284.52502 0 0 1 284.99338,0.46835327 284.52502,284.52502 0 0 1 569.5184,284.99338 Z" /><path
         id="path2-9"
         style="fill:none;stroke:#000000;stroke-width:0.95000007;stroke-dasharray:none"
         inkscape:label="vnitrni kruh"
         transform="scale(0.19892249)"
         d="M 529.26178,284.99338 A 244.2684,244.2684 0 0 1 284.99338,529.26178 244.2684,244.2684 0 0 1 40.724976,284.99338 244.2684,244.2684 0 0 1 284.99338,40.724976 244.2684,244.2684 0 0 1 529.26178,284.99338 Z" /></g><path
       style="baseline-shift:baseline;display:inline;overflow:visible;opacity:1;fill:none;fill-opacity:1;stroke:#000000;stroke-width:0.95000006;stroke-dasharray:none;stroke-opacity:1;enable-background:accumulate;stop-color:#000000;stop-opacity:1"
       d="m 243.98123,68.096686 c -2.34342,11.209821 -4.13751,22.723367 -8.00965,33.494154 -8.38871,13.5462 -27.26263,11.01105 -39.38145,19.27709 -14.03576,9.64626 -25.39931,22.71485 -38.04386,33.97837 -8.35694,12.54377 6.19348,25.26129 13.85968,34.2116 25.44684,20.98265 52.32079,40.22754 78.62337,60.13724 12.87049,8.66468 24.32204,19.21868 36.8953,28.21366 10.96454,9.23656 22.13769,6.86554 32.20894,-2.26288 38.32047,-23.99475 75.18165,-50.45229 109.3758,-80.05834 9.90416,-8.03156 21.97117,-17.82938 21.63507,-31.82632 -5.06759,-10.13638 -15.85309,-16.27864 -23.44922,-24.56061 -28.29692,-27.83423 -68.63512,-38.36288 -107.2804,-39.838435 -23.91296,-0.753743 -48.28549,-0.963109 -71.62088,5.012845 -0.31229,-11.848207 -0.62459,-23.696415 -0.93688,-35.544622 -1.29194,-0.07792 -2.58388,-0.155835 -3.87582,-0.233752 z m -2.84455,44.626024 c -1.59983,7.8108 3.22725,16.26768 11.78669,16.60399 -9.18948,-0.32187 -11.99673,13.94597 -12.54069,15.77111 -2.08134,-5.83553 -5.84287,-4.95244 -10.16963,-1.80914 -10.78355,7.94518 5.28609,-12.74152 -7.83146,-14.30305 -5.52777,-2.6714 14.39523,1.34167 15.29687,-7.36404 1.7009,-2.71883 2.68377,-5.80913 3.45822,-8.89887 z m -42.05547,15.56277 c 13.39582,1.59583 -6.05631,13.48352 -11.12613,15.37955 -5.29114,2.336 -15.20222,6.01286 -6.06932,-0.67829 5.6222,-5.01147 11.02228,-10.36509 17.19545,-14.70126 z m 185.60304,3.12851 c 8.63237,-0.45136 16.22217,12.16815 3.92523,6.79696 -2.68415,-1.30603 -14.76159,-1.24588 -10.22894,-3.60154 2.08343,-1.09953 4.17106,-2.19337 6.30371,-3.19542 z m -169.20827,2.52573 c 10.61085,3.50464 -2.09415,4.64646 -6.40337,6.00351 -3.24583,0.81134 4.44654,-7.60507 6.40337,-6.00351 z m 36.91933,7.93584 c 12.71495,0.9432 25.4299,1.8864 38.14485,2.8296 -10.35629,2.19013 -23.7753,16.17446 -32.18983,4.30543 -2.14867,-2.23473 -4.1476,-4.61584 -5.95502,-7.13503 z m 102.86206,0.89172 c -2.55146,17.26327 -19.69111,14.135 -29.26249,4.57818 -2.33616,-2.99061 8.32085,-1.64505 11.63224,-2.75091 5.87675,-0.60909 11.7535,-1.21818 17.63025,-1.82727 z m 11.74684,0.81202 c 9.90158,1.71553 20.39708,0.95051 29.79552,4.76748 -0.32255,10.04227 -4.12947,19.51645 -6.17732,29.27743 -11.47336,-5.74515 -23.88058,-9.79759 -34.38367,-17.30143 2.41872,-6.42646 6.04862,-11.77891 10.76547,-16.74348 z m -149.72487,1.2255 c -4.07503,7.27826 -8.15005,14.55651 -12.22508,21.83477 11.47724,-0.1504 16.41401,-16.46862 28.71814,-15.42076 5.37952,3.7393 15.50045,14.2648 3.61486,15.06785 -10.31935,3.75261 -20.6387,7.50523 -30.95805,11.25784 -2.22896,-10.17168 -9.37044,-28.97137 5.714,-31.88784 l 2.56846,-0.47464 z m 85.31651,2.06739 c 1.81618,4.33708 3.45504,8.68634 1.4873,13.2834 -3.35116,10.4529 -0.48834,21.44425 -1.65666,32.10982 -11.34874,-10.39478 -22.50682,-21.015 -33.89048,-31.3797 11.37258,-4.61937 23.41833,-7.78399 34.05984,-14.01352 z m 10.87006,1.65891 c 12.00933,4.47142 22.2808,15.13912 9.16063,25.43189 -4.19626,5.20294 -13.3398,22.12162 -10.30793,6.57278 0.66059,-10.65899 0.65024,-21.33829 1.1473,-32.00467 z m 100.3762,0.2441 c 7.37175,3.6864 30.60423,12.05537 20.75374,21.77 -10.28505,-1.10369 -15.03033,-14.22822 -20.75374,-21.77 z m -165.07845,0.817 c 1.92262,3.18375 7.22463,7.30192 7.19173,9.94495 -4.82449,2.29552 -9.19633,3.95584 -7.30113,-3.1782 0.0365,-2.25558 0.0729,-4.51117 0.1094,-6.76675 z m -62.17156,2.98403 c -6.52073,3.04557 -13.03587,17.31428 -16.96875,15.76364 -2.56235,-4.39664 -4.45241,-8.57848 1.87699,-10.13426 4.74034,-2.44026 10.12246,-3.66908 15.09176,-5.62938 z m 10.36193,0.38858 c -0.54749,7.31982 0.4243,14.98025 -1.06443,22.08905 -0.71127,6.58112 -5.47629,4.3427 -9.96309,2.70959 -12.41664,-0.58848 0.0266,-13.03783 3.83487,-18.05002 2.23731,-2.4145 4.71058,-4.59239 7.19265,-6.74862 z m 208.37436,0.88674 c 7.53241,5.62102 27.00645,22.4381 11.29729,28.10824 -15.91611,7.04519 -15.57472,-11.7605 -12.33912,-22.07717 0.34344,-2.01102 0.70997,-4.01807 1.04183,-6.03107 z m -138.99927,13.24633 c 8.54248,9.7286 18.40629,18.29924 26.52752,28.42555 -10.76261,0.93196 -30.02481,2.13552 -34.51028,-6.6721 2.95519,-7.13435 5.91722,-14.3003 7.98276,-21.75345 z m 76.78784,0.2192 c 6.1853,10.36618 9.59503,30.20925 -8.86969,27.19231 -7.11665,0.88634 -24.25305,2.55836 -12.46524,-7.5477 6.08683,-7.51211 13.01957,-14.60515 21.33493,-19.64461 z m -87.71768,2.07239 c -0.81553,16.92848 -16.71301,21.31667 -30.84631,18.96391 -7.53152,-0.16414 -17.67915,-1.91479 -5.08649,-6.06986 11.40391,-5.72608 23.59631,-9.72947 35.9328,-12.89405 z m 99.59902,1.67883 c 11.03143,5.77252 22.55714,10.76336 33.27774,17.02744 -8.37693,2.50719 -22.30789,6.63327 -28.5051,1.18435 -1.59088,-6.0706 -3.18176,-12.14119 -4.77264,-18.21179 z m -134.64026,28.46541 c 7.57853,2.40344 9.26113,15.76017 18.20722,19.85151 12.51757,12.40754 23.72475,27.92702 41.42867,33.17863 -8.33205,-14.6603 -12.40871,-31.9052 -24.21105,-44.42675 7.54705,-3.09795 7.91095,6.36145 11.18795,10.75459 7.24868,14.21805 14.49736,28.43611 21.74604,42.65416 6.31406,-14.08658 1.27074,-29.9472 5.35032,-44.52141 0.27305,-12.52687 9.3138,2.58549 3.96694,8.09305 -1.86383,12.95169 -8.20594,26.89041 -2.50089,39.59365 3.33087,5.83555 7.70027,10.67475 -0.2107,3.8123 -22.24556,-13.40549 -42.32038,-30.02626 -63.91534,-44.43974 -5.64678,-4.03211 -21.55738,-15.43241 -8.17089,-6.85144 2.38049,3.54556 10.20808,4.02709 6.92218,-1.11106 -4.1602,-5.45942 -8.3204,-10.91884 -12.4806,-16.37826 l 2.68016,-0.20923 z m 182.3151,0.46827 c -22.97459,13.09617 -40.98991,32.93539 -61.68014,49.14959 -10.18001,9.85591 -24.59417,16.41462 -34.26733,25.29686 10.04056,-14.27863 5.40514,-33.23707 0,-48.33852 0,-4.75879 0,-9.51758 0,-14.27637 5.04163,3.02653 0.93213,21.09709 4.95349,29.27604 1.3353,7.62447 6.34667,19.81247 10.10143,5.9444 7.08925,-12.21441 14.45235,-24.62111 17.78452,-38.48345 11.63877,-1.93881 -1.91693,10.04138 -3.07281,15.34483 -6.28405,11.24568 -11.93569,23.16403 -13.62582,36.06629 20.80965,-14.11933 40.32326,-30.5933 57.54482,-48.75635 1.08114,-4.80079 2.60307,-9.02272 8.37976,-7.65733 4.68339,-0.79228 9.25115,-2.44739 13.88208,-3.56599 z"
       id="path8"
       inkscape:label="znak" /><path
       id="path5-3"
       style="display:inline;stroke-width:0.95000006;stroke-dasharray:none;stroke:#000000;stroke-opacity:1;fill:none"
       inkscape:label="text"
       d="m 144.47956,229.33123 -2.73937,6.85333 c -0.82075,2.05187 -1.82175,4.21534 -2.99465,6.48023 -1.12361,2.08378 -2.41161,4.08531 -3.85868,6.01875 -1.38252,1.76158 -2.90024,3.31619 -4.56561,4.68344 -1.52722,1.1694 -3.12904,1.99826 -4.89944,2.54299 l -10.28981,3.17139 9.50433,5.04672 c 3.46699,1.84184 7.30717,2.77864 11.27166,2.77864 3.167,0 6.22593,-0.71012 9.10177,-1.92443 V 296.6863 H 123.4581 v -12.87208 l -6.46058,3.23029 c -1.80059,0.9003 -3.71903,1.45061 -5.85184,1.66915 -2.44051,0.16626 -4.8408,0.25528 -7.18716,0.25528 H 90.526779 c -2.340692,0 -4.778335,-0.0892 -7.304981,-0.25528 -2.030369,-0.21606 -3.905591,-0.75984 -5.724199,-1.66915 l -6.460588,-3.23029 v 31.92983 l 5.97948,-2.15026 c 1.910889,-0.68792 3.959098,-1.19723 6.156214,-1.51205 2.362443,-0.32549 4.767523,-0.49092 7.226433,-0.49092 h 13.696842 c 2.46156,0 4.81749,0.16783 7.07915,0.49092 h 0.01 0.0196 c 2.29435,0.31646 4.37671,0.82901 6.27403,1.51205 l 5.97948,2.15026 v -10.28981 h 21.55166 v 25.58707 l 2.46445,1.22731 c 1.81738,0.9087 3.69741,2.11383 5.61619,3.63286 2.29115,1.81383 3.47246,2.53297 5.24522,3.94614 l 2.07656,1.73301 2.75192,-2.83988 c 1.22581,-1.12685 2.39457,-2.08889 3.99301,-3.59226 l 5.02445,-5.38956 c 0.0293,-5.76893 -0.0236,-5.44172 -0.0236,-16.91134 v -69.09295 l -3.58377,-0.71675 c -1.33884,-0.26777 -2.93737,-0.57952 -4.79143,-0.93276 -1.57206,-0.31455 -3.30867,-0.75811 -5.18418,-1.3255 -1.74787,-0.61182 -3.47289,-1.38109 -5.16455,-2.29753 -1.48726,-0.88524 -2.86787,-2.04326 -4.16305,-3.55431 z"
       sodipodi:nodetypes="ccccccccsccccscsscsccccsscccccccccscccccscsccccc" /><path
       id="path5-3-6"
       style="display:inline;fill:none;stroke:#000000;stroke-width:0.95;stroke-dasharray:none;stroke-opacity:1"
       inkscape:label="text"
       d="m 335.44001,318.46378 c -3.55137,1.69113 -6.84331,2.98212 -9.8578,3.87832 h -0.0196 l -0.01,0.01 c -2.82737,0.86392 -5.44456,1.26659 -7.87445,1.26659 -2.00813,0 -3.58978,-0.26378 -4.7718,-0.67748 l -10.75128,-3.77032 5.32163,10.07381 c 0.71895,1.35803 1.3105,2.64046 1.76734,3.85868 0.43535,1.16095 0.76272,2.36166 0.98185,3.6034 l 0.0196,0.12764 0.0294,0.11782 c 0.28425,1.20808 0.47285,2.58398 0.54984,4.12378 0.084,1.68066 0.12764,3.60633 0.12764,5.76347 v 48.5526 h -15.73909 c 0.27625,-1.73894 0.66845,-3.479 1.17822,-5.23328 1.25885,-4.02051 2.62276,-7.29076 4.00596,-9.74979 l 1.94407,-3.4463 -3.19102,-2.33681 c -0.8073,-0.59203 -1.47705,-1.34504 -2.07171,-2.33681 -0.61068,-1.17036 -1.13526,-2.46004 -1.57096,-3.88813 -0.37434,-1.60118 -0.65076,-3.23995 -0.80512,-4.9289 v -0.01 c -0.16575,-1.90876 -0.24547,-3.81689 -0.24547,-5.7242 0,-2.30267 0.043,-4.79281 0.12764,-7.45226 0.16067,-2.46894 0.51862,-4.88105 1.07022,-7.2657 0.60895,-2.26489 1.45686,-4.30015 2.55282,-6.12676 l 0.0196,-0.0295 0.0196,-0.0294 c 0.94863,-1.64429 2.2027,-2.91372 3.99614,-3.9765 l -2.85719,-8.2672 c -4.05124,0.52842 -8.05674,1.01302 -12.01787,1.45314 h -0.01 c -3.74297,0.42533 -7.39101,0.62839 -10.93783,0.62839 -3.22902,0 -6.30514,-0.24737 -9.23923,-0.73639 l -7.96282,-1.3255 3.10265,7.45226 c 1.67511,4.02025 2.77019,7.61713 3.31866,10.75128 v 0.01 0.01 c 0.56322,3.13795 0.86403,6.78616 0.86403,10.9182 v 14.93397 c -0.8579,0.047 -1.86694,0.12343 -2.64118,0.1571 -1.96358,0.0854 -4.12172,0.12764 -6.46059,0.12764 h -9.73998 c -1.68107,-0.0471 -3.21635,-0.22036 -4.81107,-0.34365 v -12.74444 c 0,-2.22863 0.12169,-4.56053 0.3731,-6.99079 v -0.01 -0.01 c 0.24766,-2.47658 0.62568,-4.80178 1.1095,-6.99079 0.56096,-2.23205 1.22425,-4.22541 1.98334,-5.97948 0.78737,-1.70829 1.63318,-2.88384 2.42517,-3.62304 l 10.31927,-9.63197 -13.97176,1.94407 c -3.20652,0.44535 -6.32857,0.93798 -9.36687,1.47278 -2.67502,0.40531 -5.60426,0.60875 -8.77776,0.60875 -2.6513,0 -5.50424,-0.16211 -8.55193,-0.50075 -3.01611,-0.33512 -6.32558,-0.88769 -9.92653,-1.65933 l -6.11694,-1.30586 0.74621,6.2053 c 0.70061,5.80505 2.64094,10.7805 6.19549,14.33505 l 0.0294,0.0196 0.0196,0.0295 c 2.31096,2.23641 4.94897,3.78876 7.70754,4.97799 0.1094,1.699 0.24546,3.45017 0.24546,4.97799 0,3.72276 -0.44491,7.28934 -1.3255,10.73165 l -0.01,0.0491 -0.01,0.0491 c -0.76836,3.30392 -2.29006,7.17326 -4.63435,11.52695 l -1.41386,2.62154 1.87533,2.30736 c 1.81399,2.2326 3.24251,5.1841 4.1827,9.02322 v 0.01 l 0.01,0.01 c 0.97376,3.89502 1.46296,7.9148 1.46296,12.0866 0,2.16076 -0.29543,4.31597 -0.9033,6.5195 l -0.0196,0.0785 -0.0196,0.0687 c -0.54415,2.25434 -1.31811,4.36428 -2.31718,6.36241 -0.99906,1.99813 -2.16593,3.76732 -3.51503,5.34127 -1.33391,1.55623 -2.72066,2.74603 -4.15323,3.63286 l 3.0241,8.20828 c 2.83882,-0.43012 5.67575,-0.77304 8.51266,-1.03094 2.74376,-0.24944 6.07502,-0.38293 9.9658,-0.38293 2.22863,0 4.85864,0.12527 7.86464,0.38293 l 0.0687,0.01 h 0.0687 c 3.00681,0.16705 6.46377,0.54597 10.3389,1.14877 l 10.43709,1.62988 -6.10712,-8.62067 c -3.15835,-4.45408 -5.13392,-8.83768 -6.05803,-13.21573 v -0.01 c -0.99693,-4.82132 -1.50223,-9.92415 -1.50223,-15.31689 v -2.97501 c 1.51227,-0.14182 2.93406,-0.31961 4.55579,-0.41238 3.08912,-0.17162 6.60161,-0.25527 10.52546,-0.25528 2.00397,1e-5 3.86492,0.0834 5.5671,0.24546 l 0.10801,0.01 0.108,0.01 c 0.70941,0.0323 1.71227,0.13816 2.52336,0.19637 v 1.45314 c 0,2.8809 -0.0405,5.72322 -0.12764,8.51266 l -0.01,0.0687 v 0.0687 c 0,2.65129 -0.16012,5.09733 -0.48111,7.34425 l -0.01,0.0786 -0.01,0.0786 c -0.23934,2.23391 -0.63724,4.21024 -1.15859,5.93039 -0.45998,1.43379 -1.04249,2.40815 -1.66915,3.08301 l -4.71289,5.07618 6.57841,2.19935 c 1.57961,0.52653 3.0741,1.18908 4.49688,2.01279 l 0.0393,0.0295 0.0393,0.0196 c 1.56308,0.85969 2.93342,1.78201 4.12378,2.74918 1.21045,0.98349 2.23255,1.97902 3.09284,2.97502 0.82422,1.04199 1.32628,1.91468 1.5415,2.47426 l 3.24012,8.4243 4.73252,-7.68791 c 1.25797,-2.04421 2.86783,-4.19097 4.85035,-6.42131 1.47563,-1.66008 3.94408,-3.28187 7.629,-4.61471 l 8.46356,-3.06338 -7.56026,-4.88962 c -0.96049,-0.62149 -1.6876,-1.37233 -2.31717,-2.31717 -0.65782,-1.21154 -1.20759,-2.52489 -1.62988,-3.9765 -0.37404,-1.67532 -0.63754,-3.43148 -0.7953,-5.29219 -0.0508,-1.29722 -0.087,-2.61664 -0.108,-3.94704 h 16.21038 v 10.90838 c 0,3.06296 -0.49997,5.53509 -1.36477,7.5308 -0.81444,1.87946 -1.74025,2.83382 -3.08302,3.50521 l -2.87683,1.43351 1.12913,7.953 h 3.87832 c 3.19972,0 6.43394,-0.40555 9.67124,-1.18804 2.24106,-0.52746 4.25826,-1.28039 6.3035,-2.00298 0.36297,0.29662 0.68452,0.6937 1.07022,0.9524 1.06875,0.74416 2.21427,1.42132 3.43648,2.03243 l 0.0589,0.0295 0.0687,0.0294 c 1.20827,0.55766 2.60537,1.14427 4.17287,1.75752 1.53291,0.68129 3.49454,1.59964 5.86166,2.73937 l 3.50521,1.67897 4.73253,-7.10861 -1.97352,-2.53318 c -0.86113,-1.10716 -1.4117,-1.89461 -2.13062,-2.85719 l 5.06636,0.0884 c 4.85478,0.0837 9.06825,0.62207 12.62662,1.57097 l 0.0196,0.01 h 0.01 c 3.69506,0.96393 7.00461,2.34905 9.98544,4.15324 l 3.2892,1.99316 7.5799,-9.13123 c 0.23872,0.34426 0.36592,0.70876 0.61857,1.05059 1.7723,2.39782 3.82774,4.43043 6.16603,5.98929 l 4.21215,2.79828 2.25826,-4.51652 c 0.35451,-0.70901 1.01668,-1.76795 1.97352,-3.04374 0.93005,-1.24007 1.99153,-2.46281 3.1812,-3.65249 1.22476,-1.22475 2.43477,-2.30914 3.62304,-3.25975 l 0.01,-0.01 0.01,-0.01 c 1.14144,-0.92741 2.08603,-1.43721 2.68046,-1.64951 l 2.17971,-0.77566 c -0.24196,1.37964 -0.44159,2.75036 -0.5302,4.12378 l -0.29455,4.5067 4.5067,0.24546 c 3.17892,0.17183 5.89205,0.42888 8.10028,0.75603 l 0.0786,0.01 0.0786,0.01 c 2.18955,0.24328 4.01927,0.59899 5.4591,1.03094 l 0.108,0.0295 0.0982,0.0294 c 1.46757,0.36689 2.59337,0.82269 3.38739,1.27641 l 0.0589,0.0295 0.0589,0.0294 c 1.01646,0.54212 1.89231,1.16187 2.67064,1.87534 l 2.651,2.43499 2.94555,-2.0717 c 1.14228,-0.80631 2.69492,-1.64745 4.6638,-2.435 1.99747,-0.79899 4.19402,-1.48635 6.57841,-2.06189 2.39577,-0.57829 4.9352,-1.03909 7.61917,-1.37459 2.66125,-0.33265 5.26874,-0.49093 7.82537,-0.49093 h 5.53764 l -1.17822,-5.41982 c -0.34379,-1.58143 -0.66321,-4.39524 -0.83457,-8.15919 v -0.01 c -0.17346,-3.90523 -0.2651,-8.36342 -0.2651,-13.36301 0,-5.87403 0.13762,-10.31467 0.38292,-13.17646 l 0.45165,-5.20382 -5.20382,0.36329 c -3.83903,0.26784 -7.19894,0.53468 -10.08362,0.80512 -2.90905,0.27272 -5.57084,0.59119 -7.98246,0.96221 l -0.01,0.01 h -0.01 c -2.31067,0.3697 -4.46139,0.7831 -6.45077,1.25677 l -0.0196,0.01 -0.0295,0.01 c -0.0226,0.006 -0.0364,0.014 -0.0589,0.0196 -0.0577,-1.40018 -0.108,-2.80231 -0.108,-4.20233 v -1.86552 c 1.29934,0.46109 2.59686,0.92445 3.89795,1.33532 l 0.0295,0.01 0.0294,0.01 c 1.94989,0.58497 3.87406,1.02562 5.77329,1.3255 1.86346,0.29423 3.59579,0.46147 5.22346,0.46147 3.84638,0 7.55507,-1.18162 10.42727,-3.55431 l 0.0393,-0.0393 0.0393,-0.0295 c 2.79975,-2.43457 4.88479,-5.81464 6.64714,-10.02471 l 2.39572,-5.73402 -6.19549,-0.45165 c -10.75886,-0.77463 -18.62572,-2.60409 -23.29935,-4.97799 l -1.85571,-0.94258 -1.91461,0.81494 c -5.75231,2.44037 -10.50075,4.20462 -14.14849,5.28236 -3.56636,1.0537 -6.78163,1.55133 -9.64179,1.55133 h -6.26422 l 2.04226,5.91075 c 0.77118,2.23639 1.32808,4.7201 1.64951,7.45226 l 0.01,0.0589 0.01,0.0687 c 0.40208,2.73413 0.61856,6.03317 0.61856,9.8578 0,1.60634 -0.0509,3.44879 -0.13746,5.52783 -0.0117,0.26879 -0.0222,0.55645 -0.0393,0.86403 h -10.87892 c -3e-5,-0.0485 0,-0.0985 0,-0.14728 0,-6.36231 0.18977,-11.15181 0.51056,-14.22704 0.38091,-2.84221 1.14386,-4.83407 2.02262,-6.0973 l 4.8798,-7.01043 h -8.55193 c -3.99797,0 -7.1537,-0.67148 -9.60252,-1.81643 -2.51095,-1.30487 -5.09817,-3.31856 -7.71736,-6.17585 l -2.43499,-2.66082 -3.11247,1.81643 c -1.99524,1.16963 -5.24666,2.42606 -9.60252,3.51503 -4.14026,1.03506 -9.28998,1.5906 -15.40526,1.5906 h -1.41387 c -0.65546,-0.13655 -1.15978,-0.12764 -1.64951,-0.12764 h -5.62601 l 1.28623,5.47874 c 0.66949,2.86924 1.43951,5.3114 2.43499,7.41298 l 0.0393,0.0884 0.0491,0.0786 c 1.0641,2.02178 2.30614,3.78065 3.85868,5.20381 l 0.0785,0.0687 0.0786,0.0687 c 1.49511,1.24592 3.22364,2.19745 5.086,2.72955 l 0.17673,0.0491 0.17673,0.0294 c 1.64808,0.32961 3.36511,0.49093 5.13509,0.49093 2.74814,0 5.7631,-0.53249 9.2785,-1.4826 1.32044,-0.35687 2.52628,-0.91964 3.80959,-1.34514 v 3.85868 c -0.63847,0.24474 -1.04883,0.47288 -1.84588,0.71675 -1.78955,0.4855 -3.81509,0.94578 -6.07767,1.36478 -2.23924,0.41467 -4.61657,0.74756 -7.13806,1.00149 -2.44811,0.16726 -4.8534,0.25528 -7.2068,0.25528 -2.1336,0 -4.06576,-0.12911 -5.78311,-0.36329 l -7.67808,-1.04076 2.73937,6.6766 h -7.18716 v -52.14618 c 0,-4.39153 0.30464,-8.20444 0.86403,-11.41894 0.60398,-2.97688 1.58815,-5.0654 2.759,-6.47041 z m 106.57024,84.98913 v 0.30438 c 0,2.41736 -0.12648,4.74171 -0.3731,6.96133 -0.0661,0.57155 -0.22014,1.33191 -0.30438,1.94407 -4.46006,-1.8921 -9.11698,-3.90905 -12.28297,-5.00745 -1.40765,-0.48837 -2.5334,-0.78315 -3.74086,-1.13895 2.70993,-0.6202 5.297,-1.31108 8.22793,-1.81642 h 0.0294 l 0.0393,-0.01 c 3.22117,-0.61091 5.72089,-0.88006 8.40465,-1.23714 z m -64.52733,0.41238 v 7.35407 c -1.02661,-0.13074 -2.26537,-0.44212 -3.20084,-0.4811 -0.55351,-0.0241 -1.07397,-0.0772 -1.62005,-0.10801 l 0.108,-5.58674 c 0.96307,-0.19991 1.78026,-0.27317 2.84737,-0.54983 l 0.0687,-0.0196 0.0786,-0.0295 c 0.55467,-0.16435 1.15614,-0.40186 1.71824,-0.57929 z m -40.31485,0.29456 h 8.77776 c 0.0104,0.39089 0.01,0.79335 0.01,1.19786 0,3.47225 -0.0816,6.94492 -0.25528,10.41745 -0.16079,3.12543 -0.65236,5.56661 -1.30586,7.26571 l -1.8557,4.81107 c -0.47239,-0.64561 -1.12393,-1.47377 -1.52187,-2.04225 l -0.0295,-0.0491 -0.0294,-0.0393 c -0.99854,-1.35517 -1.74954,-2.74928 -2.30736,-4.19251 -0.48611,-1.48264 -0.87606,-3.26004 -1.10949,-5.36091 -0.2386,-2.14746 -0.3731,-5.0255 -0.3731,-8.55193 z m 66.59904,0 h 9.9658 l -0.4222,4.57543 c -1.22896,1.92925 -2.29899,4.03978 -3.12229,6.50968 l -0.0196,0.0491 -0.01,0.0393 c -0.19702,0.63045 -0.30488,1.2549 -0.47128,1.88515 v -5.0369 l -3.46594,-0.80512 c -0.60945,-0.14064 -0.93908,-0.30827 -1.20768,-0.46147 -3.3e-4,-0.0176 -0.12507,-0.19188 -0.30438,-0.71675 -0.31925,-1.09022 -0.64715,-2.85804 -0.89348,-5.12527 -0.0197,-0.29148 -0.0315,-0.5955 -0.0491,-0.91312 z"
       sodipodi:nodetypes="ccccscccscccssccccccccccscccccccccsccccccscssccscccccccccsscccccccscccccccccscccssccssccccccccsccsccccsccsccccccccccscsccsccccccccsscccscccscccccccccccccccsccsssccccccccccccccccccccsssscsccscccscccccccsccccssccccccsccsscccccscccscccsccccsscscccccccccccsscccscsccccsccccsccsccccccccccccccccscccccccsscccccccccccccc" /></g><style
     id="style1-6">
		tspan { white-space:pre } 
		.s0 { fill: none;stroke: #ff0000;stroke-miterlimit:100 } 
	</style></svg>
