<?xml version="1.0" encoding="UTF-8" standalone="no"?>
<!-- Created with Inkscape (http://www.inkscape.org/) -->

<svg
   width="500"
   height="500"
   viewBox="0 0 500 500"
   version="1.1"
   id="svg1"
   xml:space="preserve"
   inkscape:version="1.4.2 (2aeb623e1d, 2025-05-12)"
   sodipodi:docname="Komornik.svg"
   xmlns:inkscape="http://www.inkscape.org/namespaces/inkscape"
   xmlns:sodipodi="http://sodipodi.sourceforge.net/DTD/sodipodi-0.dtd"
   xmlns="http://www.w3.org/2000/svg"
   xmlns:svg="http://www.w3.org/2000/svg"><sodipodi:namedview
     id="namedview1"
     pagecolor="#ffffff"
     bordercolor="#000000"
     borderopacity="0.25"
     inkscape:showpageshadow="2"
     inkscape:pageopacity="0.0"
     inkscape:pagecheckerboard="0"
     inkscape:deskcolor="#d1d1d1"
     inkscape:document-units="px"
     inkscape:zoom="1.0731789"
     inkscape:cx="140.23757"
     inkscape:cy="201.7371"
     inkscape:window-width="1920"
     inkscape:window-height="940"
     inkscape:window-x="0"
     inkscape:window-y="0"
     inkscape:window-maximized="1"
     inkscape:current-layer="layer1"
     showgrid="false"><inkscape:grid
       id="grid1"
       units="px"
       originx="0"
       originy="0"
       spacingx="1"
       spacingy="1"
       empcolor="#0099e5"
       empopacity="0.30196078"
       color="#0099e5"
       opacity="0.14901961"
       empspacing="5"
       enabled="true"
       visible="false" /></sodipodi:namedview><defs
     id="defs1" /><g
     inkscape:label="Layer 1"
     inkscape:groupmode="layer"
     id="layer1"><path
       style="fill:#000000"
       d="m 202.73205,377.75 c -0.96688,-0.73238 -2.05151,-3.79627 -2.61931,-7.39905 -1.42314,-9.03007 -3.81634,-12.80079 -14.87012,-23.42934 -5.47889,-5.26812 -11.65366,-12.24312 -13.72172,-15.5 -2.06806,-3.25689 -6.40629,-8.69516 -9.6405,-12.08506 -8.19987,-8.59456 -8.09474,-10.48458 0.98621,-17.73012 8.09419,-6.45822 15.15359,-14.2763 18.34414,-20.31559 1.55174,-2.93725 3.31471,-4.70551 5.47232,-5.48873 10.14118,-3.68133 25.55992,-32.67515 28.87751,-54.30211 0.52538,-3.42487 1.50777,-8.18139 3.97582,-19.25 l 0.5017,-2.25 -24.76905,-0.037 c -28.90267,-0.0431 -66.87196,-2.16594 -68.53785,-3.83183 -0.76227,-0.76227 -0.8015,-1.4609 -0.12029,-2.14211 1.09829,-1.09829 265.73035,-0.98148 266.82941,0.11778 1.22006,1.22029 -0.64531,3.70276 -3.2575,4.33513 -1.47555,0.35721 -16.98508,0.91414 -34.46561,1.23761 -17.48054,0.32347 -31.58562,0.78531 -31.34462,1.02631 0.241,0.241 -1.6658,3.21826 -4.23732,6.61613 -2.57152,3.39787 -6.79296,10.27816 -9.38097,15.28954 C 306.23279,231.36694 299.6762,239 296.67712,239 c -0.72442,0 -3.15716,1.575 -5.40609,3.5 -2.24893,1.925 -4.40888,3.5 -4.79989,3.5 -0.39102,0 -4.04445,1.89663 -8.11875,4.21473 -6.11182,3.47737 -8.1327,5.30933 -11.55122,10.47142 -2.98263,4.50387 -5.91458,7.40213 -10.46556,10.34531 -3.58037,2.31548 -7.64441,6.01046 -9.3711,8.52013 -1.67693,2.43732 -4.12184,4.70078 -5.43314,5.02989 -3.02785,0.75995 -4.91486,2.86181 -7.94791,8.85285 l -2.42064,4.78136 3.2521,5.14216 C 240.71239,313.31529 250,331.77807 250,334.33934 c 0,3.84736 -5.46747,9.39367 -12.40759,12.58648 -7.9644,3.66404 -12.00022,8.2992 -23.35575,26.82418 -2.83931,4.63193 -3.60881,5.25 -6.53629,5.25 -1.82496,0 -4.06071,-0.5625 -4.96832,-1.25 z m 13.09174,-19 c 1.22227,-2.3375 3.15107,-5.70857 4.28622,-7.49127 l 2.0639,-3.24127 -2.16852,-3.50873 C 218.81271,342.57893 217.24986,341 216.53239,341 c -0.71746,0 -4.07479,1.84994 -7.46073,4.11098 -5.78138,3.86066 -6.07426,4.24123 -4.80988,6.25 0.7405,1.17646 2.67203,4.27572 4.29229,6.88723 1.62026,2.61152 3.41876,4.74902 3.99666,4.75 0.57791,9.9e-4 2.05078,-1.91071 3.27306,-4.24821 z m -6.64594,-4.64734 C 207.98003,351.97143 207,350.01266 207,349.74985 c 0,-0.89976 8.03538,-6.0478 8.58379,-5.49939 0.30116,0.30116 -1.02265,1.74523 -2.94181,3.20904 -3.48165,2.65559 -3.4861,2.66933 -2.0071,6.20908 2.03944,4.88105 1.18533,5.13551 -1.45703,0.43408 z m 34.99341,-16.75765 c 3.61973,-3.27581 1.45539,-10.76895 -6.59624,-22.83672 -2.93872,-4.40456 -5.6318,-8.96144 -5.98461,-10.12641 -0.35281,-1.16496 -1.50055,-2.89557 -2.55054,-3.8458 -1.84081,-1.66591 -2.00323,-1.5419 -4.54171,3.46755 -1.44794,2.85738 -2.40836,5.4195 -2.13426,5.6936 0.2741,0.2741 1.59097,-1.65154 2.92639,-4.2792 l 2.42803,-4.77757 1.74478,2.66288 c 3.17724,4.84907 12.49812,27.14788 12.51768,29.94666 0.0271,3.87271 -2.05397,3.58657 -12.31638,-1.69346 -8.12482,-4.18024 -8.53541,-4.28931 -6.93136,-1.84122 1.73203,2.64341 14.11616,9.0983 17.68822,9.21949 1.05669,0.0359 2.74419,-0.67955 3.75,-1.5898 z m -22.81213,-32.06528 c 1.92803,-3.82856 4.73031,-7.76354 6.22728,-8.74439 3.15875,-2.06969 2.1297,-3.12876 -3.58641,-3.69105 -3.30135,-0.32475 -3.51779,-0.15983 -3.81336,2.90571 -0.17235,1.7875 -0.7614,3.25 -1.30902,3.25 -0.54761,0 -0.75867,-0.38344 -0.46903,-0.8521 0.28964,-0.46865 -0.32966,-2.53164 -1.37622,-4.58442 C 213.76107,287.14704 211.70777,274 213.97695,274 c 1.45865,0 3.90486,4.15905 4.65642,7.91686 1.28103,6.40515 11.26073,13.42758 13.82743,9.72997 0.57156,-0.82339 1.8165,-2.89948 2.76654,-4.61352 0.95558,-1.72403 3.29056,-3.76958 5.2261,-4.5783 1.92431,-0.80403 4.14433,-2.69783 4.93338,-4.20844 1.58267,-3.02999 5.62632,-6.96028 9.86575,-9.58916 1.51391,-0.93879 4.99464,-4.55987 7.73495,-8.04685 5.26679,-6.70185 15.14862,-14.1743 25.51248,-19.29204 11.81757,-5.83559 12.96928,-6.87215 18.99853,-17.09895 3.15161,-5.34576 7.47874,-12.06276 9.61584,-14.92666 2.1371,-2.8639 3.88563,-5.38006 3.88563,-5.59147 0,-0.2114 -2.02288,-0.0774 -4.49529,0.29785 -6.84466,1.03875 -11.58831,6.10746 -9.45184,10.09951 1.04947,1.96094 0.92799,2.05591 -1.84963,1.44584 -2.45519,-0.53925 -3.33926,-0.18718 -5.07684,2.0218 -1.34642,1.7117 -1.90194,3.47972 -1.54286,4.9104 0.6056,2.41289 -1.72155,5.52316 -4.13251,5.52316 -0.77337,0 -4.63503,3.375 -8.58148,7.5 -3.94644,4.125 -7.55655,7.5 -8.02245,7.5 -0.46591,0 -0.8471,-1.03837 -0.8471,-2.3075 0,-1.5825 1.35164,-3.26022 4.30191,-5.33976 2.36605,-1.66775 6.19042,-5.69188 8.49861,-8.9425 11.00703,-15.50126 11.48847,-16.36244 11.97438,-21.41942 0.42956,-4.47048 0.2729,-4.99082 -1.50261,-4.99082 -1.9685,0 -10.28935,8.03053 -13.65953,13.18294 -1.37676,2.10483 -1.51818,3.12527 -0.65629,4.73572 1.00968,1.88661 0.9037,1.97868 -1.30917,1.13734 -2.48291,-0.944 -3.0778,-0.50549 -9.08111,6.694 -1.81162,2.17259 -1.8139,2.31881 -0.0662,4.25 2.09805,2.31832 1.90944,2.3873 -2.41016,0.88147 -2.83109,-0.98692 -3.49577,-0.84875 -5.64922,1.17432 -1.6915,1.58907 -2.44062,3.37386 -2.44062,5.81477 0,2.17652 -1.00698,4.97501 -2.636,7.32569 -3.17703,4.58446 -4.16477,4.80638 -3.57731,0.80375 0.24217,-1.65 0.0172,-3 -0.5,-3 -0.51717,0 -0.74492,-1.33121 -0.50613,-2.95824 0.28226,-1.92312 -0.34483,-4.2187 -1.79214,-6.5605 -1.73731,-2.81103 -2.40378,-5.95019 -3.03423,-14.29176 C 252.19997,209.21039 250.03637,201 248.16089,201 c -3.47716,0 -7.92352,11.38638 -4.8995,12.54681 1.10756,0.42501 1.35576,1.67019 0.9863,4.94809 -0.27154,2.40908 -0.18874,6.00578 0.184,7.99265 0.5723,3.05064 0.99184,3.5128 2.69742,2.97147 1.8857,-0.5985 1.85336,-0.38617 -0.48745,3.19997 -1.37895,2.11256 -2.81388,5.53578 -3.18874,7.60718 -0.52702,2.91217 -2.09242,5.06633 -6.90354,9.5 -8.07571,7.44213 -9.96737,10.39386 -9.18097,14.32587 0.44018,2.20091 0.26278,2.95345 -0.62734,2.6612 -1.49314,-0.49024 -2.14622,-5.00285 -1.24417,-8.5969 0.35918,-1.4311 2.49419,-4.30173 4.74447,-6.37917 2.25027,-2.07744 3.56653,-3.77717 2.92502,-3.77717 -2.3251,0 -1.0807,-2.02833 2.83361,-4.6187 2.42191,-1.60274 4,-3.4259 4,-4.62118 0,-1.19378 -0.4941,-1.76571 -1.25,-1.4469 -0.6875,0.28996 -4.16996,1.7354 -7.73881,3.2121 -3.56884,1.47669 -8.18134,4.02541 -10.25,5.66382 C 217.98074,248.3913 217,248.7642 217,247.61921 c 0,-0.85186 0.9,-2.03051 2,-2.61921 3.72754,-1.99492 2.02552,-2.8873 -2.53992,-1.3317 -4.03397,1.37451 -4.8813,2.22316 -7.60297,7.61476 -1.68467,3.33731 -5.87392,9.92639 -9.30945,14.64239 -7.24622,9.94699 -8.42249,12.85529 -8.20608,20.28921 0.19488,6.69415 2.73903,10.37082 12.64609,18.2755 3.7915,3.02518 7.68539,6.84066 8.65309,8.47885 1.70233,2.88181 1.81553,2.91835 3.48616,1.12513 0.94968,-1.01936 3.30418,-4.98585 5.23221,-8.81441 z m -13.43308,-2.95199 c -5.2784,-4.75196 -10.89594,-13.36735 -11.61826,-17.81848 -0.92271,-5.68602 5.82863,-20.70617 8.22844,-18.30636 0.24749,0.24749 -0.51251,2.44058 -1.6889,4.87354 -4.55537,9.42126 -2.56948,18.56329 6.34989,29.23169 2.21092,2.64447 3.78603,5.04195 3.50025,5.32774 -0.28579,0.28578 -2.43292,-1.20288 -4.77142,-3.30813 z M 240.62117,275.75 c 0.68424,-4.50997 2.18501,-6.75852 6.6216,-9.92087 2.0335,-1.44946 2.59492,-1.56972 2.17101,-0.46504 -0.44016,1.14704 -0.0357,1.35008 1.75723,0.88215 1.79609,-0.46875 1.15687,0.53435 -2.79364,4.38398 -2.81745,2.74549 -5.43527,5.97685 -5.81739,7.18079 -1.22774,3.86829 -2.6147,2.39391 -1.93881,-2.06101 z m -5.48195,-38.71673 c 3.07917,-2.56521 1.21929,-2.58866 -2.63922,-0.0333 -1.95264,1.29318 -2.42771,1.98912 -1.36078,1.99341 0.90156,0.004 2.70156,-0.87844 4,-1.96014 z m 0.68598,-5.94209 c 0.17887,-1.87485 -0.42085,-5.36235 -1.3327,-7.75 C 232.88701,219.13726 232.69678,219 228.47631,219 c -2.39705,0 -4.63639,0.45 -4.97631,1 -0.37667,0.60947 1.12062,1 3.83399,1 3.20723,0 4.62833,0.45942 5.08256,1.64313 0.34679,0.90372 0.50743,1.72363 0.35699,1.82203 -0.15045,0.0984 -2.41238,1.40375 -5.02652,2.90077 -4.69616,2.68933 -4.73591,2.75487 -3.3255,5.48231 1.33286,2.57747 1.74736,2.7237 6.25298,2.20611 4.63184,-0.5321 4.83855,-0.69116 5.1507,-3.96317 z M 242.17531,223.5 c 0.0488,-2.75 -0.41813,-6.8 -1.03769,-9 -1.69283,-6.01111 -1.38702,-9.60562 1.03669,-12.18555 L 244.34863,200 h -4.23333 c -2.49078,0 -3.98567,0.40072 -3.63167,0.97351 0.33091,0.53543 0.78323,6.0899 1.00515,12.34326 0.22192,6.25337 0.95869,13.57466 1.63727,16.26954 1.22938,4.8823 1.23686,4.8891 2.09712,1.90673 0.47484,-1.64617 0.9033,-5.24304 0.95214,-7.99304 z m 25.38158,5.5448 c 2.88124,-2.17536 7.72775,-6.78786 10.77001,-10.25 15.80068,-17.98142 17.65999,-20.49447 14.1731,-19.15643 -0.825,0.31659 -1.50992,1.08996 -1.52204,1.71862 -0.0121,0.62865 -3.39346,5.19301 -7.51409,10.14301 -5.41259,6.50202 -8.66773,9.5013 -11.72795,10.80613 C 267.69584,224.02876 260,230.5186 260,232.20295 c 0,1.69596 2.52571,0.64043 7.55689,-3.15815 z m -0.0806,-7.2948 c 4.52456,-4.65667 8.36309,-9.84333 10.73116,-14.5 l 3.68686,-7.25 h -15.55415 c -13.75171,0 -15.48403,0.18272 -14.94908,1.57679 1.59299,4.15127 5.55794,18.90048 6.15976,22.91372 0.37193,2.48022 1.17234,4.50949 1.77869,4.50949 0.60635,0 4.27239,-3.2625 8.14676,-7.25 z m 40.21963,-21.77156 c -4.56444,-0.56737 -5.8152,-0.28822 -3.92974,0.87706 0.88552,0.54728 0.94457,1.66623 0.22104,4.18902 -1.49086,5.19833 -1.334,5.20501 3.4587,0.14727 L 311.89186,200.5 Z M 132,189.73511 c 0,-0.69569 1.41844,-4.18319 3.15209,-7.75 17.28038,-35.55268 54.80754,-60.99376 100.84791,-68.36862 7.94776,-1.27309 9.86764,-1.94706 11.75,-4.12487 2.43798,-2.82063 2.76611,-5.00394 1.32264,-8.80055 -0.88279,-2.321929 -0.7079,-2.469215 3.63957,-3.065103 C 259.34531,96.716801 268,96.85923 268,97.877555 c 0,0.482656 -0.675,1.437756 -1.5,2.122445 -1.81798,1.50879 -1.98443,7.35674 -0.25,8.78303 1.85205,1.52301 10.97109,3.88719 22.00191,5.70415 11.67831,1.92361 28.19904,7.19535 39.43791,12.58457 23.37188,11.20719 46.96428,33.67045 56.12292,53.43684 1.272,2.74528 2.7345,5.7728 3.25,6.72784 0.51549,0.95504 0.93726,2.19254 0.93726,2.75 C 388,190.66591 345.80904,191 260,191 157.46313,191 132,190.74837 132,189.73511 Z m 177.62511,-3.6482 c 2.14925,-1.31056 3.6316,-3.39206 4.74709,-6.66584 0.89208,-2.61813 1.43676,-4.94544 1.21039,-5.17181 -0.22636,-0.22636 -2.94946,1.65557 -6.05134,4.18208 -3.10187,2.52651 -6.73649,5.31225 -8.07692,6.19054 -1.34044,0.87829 -2.18946,1.99767 -1.88673,2.4875 0.95872,1.55123 6.81276,0.9561 10.05751,-1.02247 z M 381,186.50757 c 0,-2.09341 -9.5433,-18.64781 -12.18152,-21.13082 -5.68371,-5.34934 -24.96081,-20.56775 -25.44269,-20.08587 -0.2519,0.2519 1.7457,2.877 4.4391,5.83356 5.08301,5.57963 7.39171,9.37538 9.72522,15.98925 1.63862,4.64433 0.60398,5.0931 -1.91415,0.83025 -2.88899,-4.89067 -4.6994,-3.46144 -8.86051,6.99493 -2.06041,5.17755 -3.57065,9.58926 -3.3561,9.80382 0.21455,0.21455 8.42272,0.74134 18.24037,1.17065 9.81766,0.4293 18.18778,0.84943 18.60028,0.93361 0.4125,0.0842 0.75,-0.0685 0.75,-0.33938 z m -45.82874,-13.16256 c 1.10373,-0.99886 1.77475,-2.88201 1.69256,-4.75 -0.11979,-2.72245 -0.19053,-2.79407 -0.58766,-0.59501 -0.24832,1.375 -1.39048,3.5125 -2.53814,4.75 -2.4075,2.59597 -1.2903,3.05978 1.43324,0.59501 z m 1.81343,-23.14467 c 0.0413,-6.19809 -11.49503,-18.85571 -19.0146,-20.8628 l -4.24791,-1.13383 9.06722,8.96432 c 5.83599,5.76975 9.71058,10.51979 10.87254,13.32915 1.83086,4.42661 3.29216,4.29606 3.32275,-0.29684 z M 294.5,122 c -0.33992,-0.55 -1.26648,-1 -2.05902,-1 -0.79254,0 -1.44098,0.45 -1.44098,1 0,0.55 0.92656,1 2.05902,1 1.13246,0 1.7809,-0.45 1.44098,-1 z M 284,119.58156 c 0,-0.23014 -1.48537,-1.33645 -3.30083,-2.45847 -3.36553,-2.08001 -4.8053,-2.05268 -11.69917,0.22204 -3.41313,1.12621 -3.31385,1.16901 4,1.72471 4.125,0.31341 8.2875,0.65091 9.25,0.75 0.9625,0.0991 1.75,-0.008 1.75,-0.23828 z M 241.66926,95.860016 C 239.26318,94.941601 238.93385,94.383503 239.474,92.139754 240.20133,89.118377 242.55768,87 245.19113,87 246.18601,87 247,86.55 247,86 c 0,-0.612873 4.79767,-1 12.39301,-1 C 273.01117,85 273,84.994711 273,91.444779 v 3.281205 l -9.75,0.675953 c -5.3625,0.371775 -11.775,0.870047 -14.25,1.107271 -2.475,0.237224 -5.77383,-0.05491 -7.33074,-0.649192 z M 270,91.035184 C 270,89.341509 266.27217,88 261.56574,88 258.24722,88 257,88.395478 257,89.44774 c 0,1.033176 1.50335,1.552912 5.25,1.815018 2.8875,0.202003 5.8125,0.450519 6.5,0.55226 0.6875,0.10174 1.25,-0.249185 1.25,-0.779834 z"
       id="path1"
       sodipodi:nodetypes="ssssssssssccssssssssssssssssscsssssssscsssssssssssssssssssscssssssssssssssssssssssssscsssssssssssssssssssssssssssssssssssssssssssssssssssssssssssssssssssssscsssssssssssssssscsssssssssssssssscssssssssscsssssssssssssssssssssssssssssssssssssssssscsssssssssssssssssssscsssssssss" /></g></svg>
