<?xml version="1.0" encoding="UTF-8" standalone="no"?>
<!-- Created with Inkscape (http://www.inkscape.org/) -->

<svg
   width="500"
   height="500"
   viewBox="0 0 500 500"
   version="1.1"
   id="svg1"
   xml:space="preserve"
   inkscape:version="1.4.2 (f4327f4, 2025-05-13)"
   sodipodi:docname="Kuchar.svg"
   xmlns:inkscape="http://www.inkscape.org/namespaces/inkscape"
   xmlns:sodipodi="http://sodipodi.sourceforge.net/DTD/sodipodi-0.dtd"
   xmlns="http://www.w3.org/2000/svg"
   xmlns:svg="http://www.w3.org/2000/svg"><sodipodi:namedview
     id="namedview1"
     pagecolor="#ffffff"
     bordercolor="#000000"
     borderopacity="0.25"
     inkscape:showpageshadow="2"
     inkscape:pageopacity="0.0"
     inkscape:pagecheckerboard="0"
     inkscape:deskcolor="#d1d1d1"
     inkscape:document-units="px"
     inkscape:zoom="1.1808131"
     inkscape:cx="240.51224"
     inkscape:cy="279.89188"
     inkscape:window-width="1920"
     inkscape:window-height="1057"
     inkscape:window-x="-8"
     inkscape:window-y="-8"
     inkscape:window-maximized="1"
     inkscape:current-layer="layer1" /><defs
     id="defs1" /><g
     inkscape:label="Layer 1"
     inkscape:groupmode="layer"
     id="layer1"><path
       style="fill:#000000"
       d="m 231.13363,376.68859 c -1.375,-0.25735 -7.45,-1.38252 -13.5,-2.50038 -21.3291,-3.94098 -37.87388,-11.09816 -41.55504,-17.97647 -0.91324,-1.7064 0.006,-1.45877 5.89404,1.58851 6.52425,3.3763 16.78761,6.19342 13.161,3.61247 -0.825,-0.58713 -2.27546,-1.0744 -3.22325,-1.08282 -1.91758,-0.017 -10.77777,-4.09938 -10.77496,-4.96458 0.004,-1.12209 8.68835,-5.81988 14.49821,-7.84247 8.2333,-2.86625 17.00355,-5.23914 21.35959,-5.77908 2.00222,-0.24818 8.36541,-1.15437 14.14041,-2.01377 12.53184,-1.86491 38.02826,-2.07685 50,-0.41564 4.675,0.64871 10.30374,1.3045 12.50832,1.45731 2.20457,0.15282 5.46707,0.59824 7.25,0.98984 2.30221,0.50565 3.24168,0.35085 3.24168,-0.53413 0,-0.68537 -0.25212,-0.99401 -0.56026,-0.68586 -0.30814,0.30814 -2.89564,-0.0871 -5.75,-0.87831 -5.74465,-1.59239 -13.34964,-2.91676 -24.68974,-4.2996 -9.69406,-1.18211 -50.52544,1.98768 -64,4.9684 -8.90764,1.97047 -25.2249,7.0884 -29.33565,9.20117 -3.71624,1.91001 -0.76691,1.79265 4.20564,-0.16734 2.8215,-1.11214 5.13001,-1.84659 5.13001,-1.63212 0,0.21448 -2.53646,1.82144 -5.63659,3.57105 l -5.63659,3.18109 -2.00722,-2.00723 c -1.82442,-1.82442 -2.08364,-3.94969 -2.84621,-23.33563 -1.23525,-31.40192 -2.45391,-46.97891 -3.92036,-50.10989 -0.71651,-1.52981 -5.61156,-6.23467 -10.87789,-10.45525 -5.26633,-4.22057 -14.07652,-12.22022 -19.5782,-17.77701 -8.11567,-8.19696 -10.87092,-11.79035 -14.60268,-19.04476 -2.5298,-4.91782 -4.0542,-8.96003 -5.30822,-13.6915 -0.94396,-3.56162 -1.57131,-7.24836 -1.63331,-10.93242 -0.0698,-4.14616 0.66745,-8.28126 1.42314,-12.35857 0.89258,-4.81586 2.00605,-9.45105 3.66193,-14.23002 6.11231,-17.64047 15.82527,-29.32915 30.33242,-36.50238 8.35318,-4.13032 16.30697,-5.67541 29.37747,-5.7068 7.79649,-0.0187 8.51079,-0.20884 13.0573,-3.47518 14.91353,-10.7143 18.92904,-9.49099 29.19501,-11.48177 2.45437,-0.47595 5.01799,-0.36297 7.5,-0.0629 9.54829,1.15438 17.20384,0.76261 27.96348,7.11095 3.10897,1.83434 3.65275,1.8803 6.26484,0.52954 7.71875,-3.99152 25.01822,-6.30118 34.5786,-4.61661 3.4062,0.60018 7.09308,1.24699 8.19308,1.43736 7.6066,1.31642 18.04225,7.07354 25.5,14.06781 1.925,1.80536 5.75,4.02876 8.5,4.94087 22.4944,7.46093 38.26027,27.87421 40.18461,52.03008 0.71172,8.93407 -2.43545,21.46004 -7.53754,30 -2.11495,3.54005 -10.39608,12.96986 -20.19827,23 -27.46481,28.10352 -26.31367,25.22341 -26.57914,66.5 -0.11496,17.875 -0.24516,32.8375 -0.28934,33.25 -0.18758,1.75156 -2.08032,0.56784 -2.08032,-1.30103 0,-2.01236 -2.88239,-3.73604 -9,-5.38204 l -2.5,-0.67264 2.26338,1.97398 c 1.24486,1.08569 2.81986,2.17662 3.5,2.42429 0.97449,0.35485 0.9655,0.8485 -0.0424,2.32887 -0.70347,1.03321 -1.54987,2.69061 -1.88089,3.6831 -0.33102,0.99249 -2.90546,3.16837 -5.72097,4.83529 -4.09727,2.42578 -4.52027,2.894 -2.11911,2.34562 1.65,-0.37683 4.2172,-0.7771 5.70489,-0.88948 1.48769,-0.11238 3.54812,-0.96745 4.57874,-1.90015 2.33829,-2.11612 3.90486,-2.23032 2.18612,-0.15936 -0.70133,0.84505 -4.01893,3.06046 -7.37245,4.92314 -15.12246,8.39962 -35.64859,12.65642 -63.0973,13.08538 -10.45,0.16332 -20.125,0.0864 -21.5,-0.17097 z m 94,-48.36792 c 0,-11.64966 -0.93712,-17.00608 -2.97525,-17.00608 -0.6445,0 -1.03603,4.73115 -1.05516,12.75 -0.0242,10.14929 -0.26646,12.34275 -1.18768,10.75343 -0.76524,-1.32023 -1.07759,-6.96615 -0.92206,-16.66677 0.22528,-14.05114 0.14085,-14.7581 -2.00088,-16.75343 -1.22985,-1.14577 -2.55347,-2.08323 -2.94137,-2.08323 -0.3879,0 -1.01356,4.1625 -1.39035,9.25 -0.37679,5.0875 -1.13858,11.018 -1.69288,13.1789 -0.55429,2.16089 -0.71017,5.91368 -0.34639,8.33952 0.62469,4.16575 0.96157,4.54804 6.0676,6.88565 2.9734,1.36127 5.67088,2.90333 5.9944,3.4268 1.63789,2.65016 2.45002,-1.35238 2.45002,-12.07479 z m -140.93708,7.52831 c 0.3217,-5.28849 2.07937,-18.9481 3.50831,-27.26449 1.52241,-8.86042 1.58207,-10.9624 0.44562,-15.69966 -0.72167,-3.00827 -1.91469,-5.7008 -2.65116,-5.98341 -0.73647,-0.2826 -2.50517,0.48924 -3.93045,1.71522 -2.886,2.48243 -3.01675,3.73734 -2.52409,24.22513 0.14585,6.06495 -0.0631,14.79046 -0.46433,19.39003 l -0.7295,8.36285 3.14134,-1.85564 c 1.72774,-1.0206 3.16965,-2.32111 3.20426,-2.89003 z m 6.71202,-1.60578 c 2.59671,-0.90522 3.16772,-1.71948 3.6816,-5.25 0.33451,-2.29823 1.03445,-6.87861 1.55542,-10.17861 0.7829,-4.95917 2.98804,-31.03813 2.98804,-35.33789 0,-1.95643 -6.88785,-1.09081 -7.5346,0.9469 -0.29686,0.93532 -0.11072,4.36453 0.41363,7.62047 0.70519,4.3788 0.57775,7.98306 -0.48953,13.84521 -0.7936,4.35892 -1.84609,10.17531 -2.33886,12.92531 -0.49277,2.75 -1.36975,7.025 -1.94885,9.5 -1.78798,7.64165 -1.6908,7.7985 3.67315,5.92861 z m 117.31094,-15.38101 c 0.65905,-3.58454 0.8157,-9.47379 0.39378,-14.80457 -0.58221,-7.35607 -1.1195,-9.34998 -3.17903,-11.7976 -3.1652,-3.76162 -6.01215,-3.84075 -7.03158,-0.19543 -0.42298,1.5125 -0.76905,10.56381 -0.76905,20.11403 v 17.36402 l 4.5,1.67124 4.5,1.67123 0.24574,-4.03526 c 0.13515,-2.21939 0.73822,-6.71384 1.34014,-9.98766 z m -100.33588,10.33014 c 2.2442,-0.82611 2.25,-0.88754 2.25,-23.85299 v -23.02475 h -3.38496 -3.38496 l -1.12444,7.75 c -0.61845,4.2625 -1.36857,10.9 -1.66693,14.75 -0.29837,3.85 -0.96023,9.925 -1.47079,13.5 -0.51057,3.575 -0.93722,7.93421 -0.94811,9.68713 -0.0194,3.12252 0.0562,3.17529 3.73019,2.60299 2.0625,-0.32128 4.7625,-0.95685 6,-1.41238 z m 86.42921,-22.37774 0.32079,-21 -2.33247,-0.33036 c -3.89906,-0.55224 -6.16753,2.44813 -6.16753,8.15742 0,2.75939 -0.69811,8.74267 -1.55136,13.29616 -0.85325,4.5535 -1.41575,10.88857 -1.25,14.07793 l 0.30136,5.79885 4.5,1.12443 c 2.475,0.61844 4.80564,0.84344 5.17921,0.5 0.37356,-0.34343 0.82356,-10.07443 1,-21.62443 z m -71.54275,19.51101 c 2.65351,-0.0137 2.96304,-1.88045 4.3935,-26.49696 1.18208,-20.34217 1.12995,-20.51405 -6.22109,-20.51405 -7.24337,0 -7.44592,0.68631 -7.6633,25.96591 l -0.19178,22.30327 3.7731,-0.62358 c 2.07521,-0.34297 4.73452,-0.62854 5.90957,-0.63459 z m 56.7516,-5.26101 c 0.29259,-2.8875 0.78631,-12.225 1.09716,-20.75 0.4794,-13.14769 0.3251,-15.84146 -1.01673,-17.75 -1.92388,-2.73641 -6.49113,-2.99832 -8.71924,-0.5 -2.12746,2.38548 -4.5171,16.22132 -5.34141,30.9264 l -0.68256,12.17639 3.38736,0.41357 c 1.86305,0.22746 5.04248,0.48558 7.0654,0.5736 l 3.67805,0.16004 z m -34.69174,2.88858 c 0.44203,-0.44116 0.80368,-10.55282 0.80368,-22.47035 v -21.66823 l -6.09137,-0.2936 c -4.08333,-0.19681 -6.43821,0.13284 -7.14351,1 -0.60966,0.74958 -1.36029,10.49098 -1.7849,23.16358 l -0.73277,21.86998 7.0726,-0.39963 c 3.88993,-0.2198 7.43425,-0.76059 7.87627,-1.20175 z m 18.43683,-13.13858 c 0.34823,-7.15 0.86818,-16.375 1.15544,-20.5 0.41246,-5.92297 0.19417,-7.86797 -1.03814,-9.25 -1.90609,-2.13766 -5.39823,-2.24206 -9.2019,-0.2751 -2.42797,1.25555 -2.94402,2.25939 -3.46999,6.75 -1.15196,9.8351 -2.43872,33.26534 -1.92595,35.06894 0.43638,1.53491 1.47256,1.75142 7.17869,1.5 l 6.6687,-0.29384 z m -82.10826,-32.06547 c 0.67369,-1.77193 0.6141,-3.2412 -0.19264,-4.75 -2.2073,-4.12826 -18.61569,-24.18588 -21.47303,-26.24867 -5.16826,-3.7311 -5.35922,-3.75668 -5.35922,-0.71797 0,3.01114 3.22113,7.82513 14.7745,22.08054 3.69902,4.56413 7.13177,9.17663 7.62831,10.25 1.26067,2.72511 3.46385,2.43249 4.62208,-0.6139 z m 162.81773,-23.64505 c 9.44761,-9.36784 15.20709,-15.92747 16.87558,-19.22007 4.2433,-8.37377 7.27805,-17.38966 7.35209,-21.84224 0.0387,-2.32494 0.39155,-5.04178 0.78421,-6.03742 0.61621,-1.56244 1.15415,-1.26246 3.92972,2.19136 1.76868,2.20089 3.26296,4.5905 3.32063,5.31025 0.0577,0.71975 0.69809,-0.49136 1.42315,-2.69136 4.19348,-12.72394 -1.26041,-32.31263 -12.46677,-44.7768 -4.87816,-5.42568 -15.62546,-13.7232 -17.77488,-13.7232 -0.72242,0 -2.18692,-0.54547 -3.25444,-1.21215 -3.39828,-2.12226 -3.31057,-0.15206 0.37526,8.42946 3.13596,7.30126 3.59283,9.3912 3.59283,16.43516 v 8.07019 l -2.53504,-0.48461 c -1.59339,-0.30459 -3.27257,0.18286 -4.52056,1.31227 -1.97241,1.785 -1.97229,1.76698 0.0177,-2.73173 1.8372,-4.15329 1.91005,-5.26577 0.87905,-13.42359 -1.95327,-15.4553 -10.36896,-27.51147 -23.34115,-33.4381 -9.28307,-4.24118 -19.38015,-6.19859 -29.42694,-5.70469 -7.63715,0.37544 -18.65925,2.68325 -20.94863,4.38622 -0.20656,0.15366 0.97706,1.41753 2.63027,2.80862 2.51267,2.11427 4.99931,6.55295 3.6711,6.55295 -0.21283,0 -2.7582,-1.51345 -5.65638,-3.36323 -17.95032,-11.45686 -36.22011,-15.35736 -52.31281,-11.1685 -10.84566,2.82308 -18.29077,7.2794 -27.54427,16.48683 -4.72321,4.6997 -9.593,9.8949 -10.82176,11.5449 l -2.23411,3 0.58631,-3.44773 c 0.32247,-1.89625 1.25166,-4.37125 2.06486,-5.5 0.81321,-1.12875 2.22127,-3.07941 3.12903,-4.3348 l 1.65047,-2.28253 -9.89357,0.57167 c -11.55294,0.66755 -20.99131,3.201 -27.61704,7.41298 -5.5408,3.52229 -12.78273,12.91601 -17.02251,22.08041 -1.65392,3.575 -3.73768,8.04272 -4.63057,9.92827 -2.14428,4.52811 -1.87716,18.39889 0.45744,23.75353 0.91559,2.10001 3.16794,7.36149 5.00523,11.69218 3.79626,8.94822 10.82967,20.24299 13.49328,21.66852 0.98402,0.52662 3.41922,0.9575 5.41156,0.9575 3.54362,0 3.58857,-0.0484 2.06574,-2.22251 -0.85618,-1.22237 -1.5567,-2.8975 -1.5567,-3.7225 0,-1.06037 0.43176,-0.88359 1.47312,0.60317 0.81021,1.15674 3.17271,2.79361 5.25,3.63749 4.63918,1.88462 16.63006,14.84178 24.71288,26.70435 3.18541,4.675 6.26214,8.6739 6.83718,8.88645 1.70536,0.63034 0.35273,-1.8388 -6.73007,-12.2854 -5.20685,-7.67969 -6.80995,-10.90428 -7.15064,-14.38323 -0.24152,-2.46636 -0.68019,-4.87434 -0.97481,-5.35106 -0.29463,-0.47672 -0.29018,-0.86676 0.01,-0.86676 0.30008,0 1.23216,1.64316 2.07128,3.65147 0.83913,2.00831 3.20767,5.57172 5.26342,7.91869 2.05576,2.34696 5.48303,7.0401 7.61616,10.42919 2.13313,3.38909 4.4991,6.40016 5.25772,6.69126 0.75861,0.29111 2.55375,-0.24024 3.98919,-1.18077 2.85457,-1.87039 2.82486,-0.72917 0.45589,-17.50984 -0.50469,-3.575 -1.90717,-8.975 -3.11663,-12 -1.20946,-3.025 -3.03694,-8.2 -4.06106,-11.5 -1.02411,-3.3 -3.41625,-10.5796 -5.31585,-16.17688 -2.60305,-7.67004 -3.25434,-10.8723 -2.64399,-13 0.73349,-2.55699 0.87891,-2.63458 1.54259,-0.82312 0.40302,1.1 1.76416,4.25 3.02476,7 3.25432,7.09927 4.24941,10.06604 6.03744,18 2.60045,11.5389 4.1512,15.69292 11.33057,30.3513 1.44152,2.94321 4.11863,6.67285 5.94914,8.28809 3.16854,2.79593 3.74415,2.93068 12,2.80914 4.76949,-0.0702 9.70002,-0.36509 10.95672,-0.65527 4.90085,-1.13164 6.41912,-10.11165 4.2438,-25.10063 -2.46013,-16.9515 -3.24495,-24.01903 -3.12069,-28.10271 0.0907,-2.98078 -0.68602,-5.97868 -2.39654,-9.25 -2.70356,-5.17046 -2.64351,-5.5414 0.58122,-3.58992 1.83645,1.11135 2.38956,0.86596 4.98643,-2.21223 3.41526,-4.04825 3.4188,-4.0398 1.27079,3.03073 -1.87044,6.15684 -2.09943,15.39484 -0.55947,22.57026 0.57381,2.67368 2.02972,10.48624 3.23534,17.36124 3.24084,18.48078 4.7993,22.9854 8.90589,25.742 1.88742,1.26695 3.91242,2.14757 4.5,1.95693 2.48402,-0.80594 3.91056,-6.71881 4.68889,-19.43497 0.44866,-7.33027 1.30172,-14.10091 1.89568,-15.04586 1.09424,-1.74086 1.00378,1.85405 -0.63951,25.41446 l -0.63697,9.13255 4.26333,0.40658 c 2.98903,0.28505 4.91122,-0.10306 6.4309,-1.29844 3.21809,-2.53134 13.46495,-17.98322 19.47878,-29.37325 5.84673,-11.07355 14.76429,-23.58707 18.59993,-26.10028 1.36801,-0.89636 2.51089,-2.59049 2.53974,-3.76473 0.0524,-2.13396 0.0532,-2.1339 1.62197,0.11501 0.95626,1.37085 2.59638,2.24633 4.19755,2.24062 3.68291,-0.0131 12.03446,-5.03777 16.39401,-9.86327 l 3.67128,-4.06367 -0.59621,3.21816 c -1.55532,8.39515 -6.64309,12.91211 -24.84105,22.0541 -3.85,1.9341 -8.5338,5.10722 -10.40845,7.05139 -1.87465,1.94417 -3.74735,3.3254 -4.16155,3.06941 -2.24009,-1.38446 -23.92339,43.0859 -9.78895,22.07847 2.94742,-4.38063 7.74455,-10.45563 10.66029,-13.5 l 5.30133,-5.53521 -3.72718,5.5 c -2.04995,3.025 -4.70946,6.625 -5.91002,8 -3.04205,3.48393 -12.46557,19.13871 -12.46557,20.70819 0,0.80565 1.29594,1.29181 3.44354,1.29181 2.77128,0 4.03789,-0.73208 6.48806,-3.75 11.52387,-13.72574 0.11331,-3.64493 7.493,2.26029 2.70677,2.06455 4.32782,2.54685 7.7336,2.30089 4.10426,-0.2964 4.53533,-0.64376 9.07299,-7.31118 2.62021,-3.85 5.96284,-9.13975 7.42807,-11.75501 1.46523,-2.61526 2.84056,-4.5785 3.05629,-4.36277 0.21574,0.21573 -0.75701,3.22057 -2.16165,6.67742 -1.40465,3.45685 -2.57365,7.44509 -2.59779,8.86277 -0.0241,1.41767 -0.64612,4.26509 -1.38216,6.32759 -2.17673,6.09947 -0.33921,4.25091 3.42605,-3.44663 1.925,-3.93539 4.9625,-9.07408 6.75,-11.41932 1.7875,-2.34524 3.25,-4.70106 3.25,-5.23517 0,-1.27457 6.09317,-6.38905 6.7861,-5.69611 0.29424,0.29423 -0.13019,1.32523 -0.94318,2.2911 -3.51975,4.18168 -10.01659,16.41644 -12.33145,23.22242 -3.30394,9.71398 -3.14626,12.1664 0.27577,4.28921 2.28603,-5.2622 4.96894,-8.48163 17.05538,-20.46602 z"
       id="path1"
       sodipodi:nodetypes="ssscsscssssssssssssssscssssssaaasssssaassssssssssssscssssssssssssssssssssssssssssssssscssssssssssssssssscccsssscccssssssscsssscssssssscscssssscsscssscssscscssssssscsssssssssssssssssssscssssssssssssscssscsssssssssssssssssssssssssssssssssssssssssssssssscsssssssscsssssscscssssssssssssssssss" /></g></svg>
