<?xml version="1.0" encoding="UTF-8" standalone="no"?>
<!-- Created with Inkscape (http://www.inkscape.org/) -->

<svg
   width="500"
   height="500"
   viewBox="0 0 500 500"
   version="1.1"
   id="svg1"
   xml:space="preserve"
   inkscape:version="1.4.2 (2aeb623e1d, 2025-05-12)"
   sodipodi:docname="SarlatovaZena.svg"
   xmlns:inkscape="http://www.inkscape.org/namespaces/inkscape"
   xmlns:sodipodi="http://sodipodi.sourceforge.net/DTD/sodipodi-0.dtd"
   xmlns="http://www.w3.org/2000/svg"
   xmlns:svg="http://www.w3.org/2000/svg"><sodipodi:namedview
     id="namedview1"
     pagecolor="#ffffff"
     bordercolor="#000000"
     borderopacity="0.25"
     inkscape:showpageshadow="2"
     inkscape:pageopacity="0.0"
     inkscape:pagecheckerboard="0"
     inkscape:deskcolor="#d1d1d1"
     inkscape:document-units="px"
     inkscape:zoom="1.4285739"
     inkscape:cx="184.79968"
     inkscape:cy="255.84956"
     inkscape:window-width="1920"
     inkscape:window-height="940"
     inkscape:window-x="0"
     inkscape:window-y="0"
     inkscape:window-maximized="1"
     inkscape:current-layer="layer1"
     showgrid="false"><inkscape:grid
       id="grid1"
       units="px"
       originx="0"
       originy="0"
       spacingx="1"
       spacingy="1"
       empcolor="#0099e5"
       empopacity="0.30196078"
       color="#0099e5"
       opacity="0.14901961"
       empspacing="5"
       enabled="true"
       visible="false" /></sodipodi:namedview><defs
     id="defs1" /><g
     inkscape:label="Layer 1"
     inkscape:groupmode="layer"
     id="layer1"><path
       style="fill:#000000"
       d="m 256.0908,343.1837 -2.40919,-1.93247 2.24075,-3.62561 C 257.15478,335.63153 257.67642,334 257.08156,334 256.4867,334 256,334.36719 256,334.81599 256,335.84726 246.08331,340 243.62065,340 c -2.43107,0 -13.02253,-5.68144 -15.31482,-8.21514 -2.22426,-2.45851 -2.12165,-10.09841 0.26852,-19.9927 0.89123,-3.68931 1.42109,-7.28931 1.17746,-8 -0.53881,-1.57176 -5.82156,8.71755 -8.19282,15.9573 -0.94565,2.88721 -2.68341,5.92471 -3.86168,6.75 -3.61576,2.53258 -8.93625,1.86474 -14.3351,-1.79935 -2.67421,-1.81494 -6.88721,-3.89008 -9.36221,-4.61142 -7.30622,-2.12939 -11.62506,-4.76928 -12.921,-7.89797 -1.04535,-2.5237 -0.86355,-3.76068 1.35519,-9.22103 1.40937,-3.46849 2.39094,-6.4779 2.18126,-6.68758 -0.20968,-0.20968 -1.44644,1.03928 -2.74835,2.77547 -4.4223,5.89747 -8.6618,9.94242 -10.42061,9.94242 -2.33445,0 -11.89581,-4.55399 -17.22315,-8.20324 -8.79823,-6.02682 -12.07663,-10.51656 -15.33447,-21.00043 -1.65846,-5.33702 -4.04247,-11.21716 -5.29778,-13.06697 -1.25532,-1.84981 -2.60514,-4.68316 -2.9996,-6.29633 -0.39447,-1.61317 -2.05894,-4.61905 -3.69883,-6.67974 -3.59304,-4.51502 -7.63852,-12.95436 -8.51022,-17.75329 -0.34967,-1.925 -1.17763,-4.175 -1.8399,-5 -2.55165,-3.17859 -6.2818,-10.64492 -6.87597,-13.76303 -0.34198,-1.79466 -2.2321,-5.78036 -4.20026,-8.8571 -6.220726,-9.72455 -3.20992,-14.06712 6.45452,-9.30952 2.51854,1.23983 6.03576,3.51226 7.81604,5.04986 1.78028,1.5376 4.93028,3.25341 7,3.81292 2.06972,0.55951 4.77805,1.73065 6.0185,2.60255 1.65456,1.16296 3.41762,1.41097 6.61829,0.931 4.93543,-0.74012 9.47075,1.04539 12.06564,4.75011 2.66106,3.79921 1.87773,6.60941 -3.5186,12.62295 -5.23241,5.83088 -8.47288,10.94141 -7.5334,11.88089 0.29412,0.29413 2.83787,-1.53591 5.65276,-4.06674 3.34249,-3.00519 7.06269,-5.21452 10.72371,-6.36856 4.28468,-1.35062 5.97458,-2.47062 7.17097,-4.75262 0.86089,-1.64207 3.0002,-4.35289 4.75402,-6.02405 l 3.18875,-3.03847 -4.43579,-6.89418 c -2.43968,-3.7918 -5.7129,-7.67084 -7.27382,-8.6201 -2.94104,-1.78855 -6.38881,-9.5493 -7.64384,-17.20591 -1.20288,-7.33837 -2.91175,-3.59922 -3.77043,8.25 -0.35532,4.90327 -2.85665,4.56738 -4.34808,-0.58389 C 143.14229,187.05292 140.26775,181 139.45892,181 c -0.26935,0 -0.38643,2.46863 -0.26017,5.48585 0.32557,7.78024 -1.02213,8.69817 -6.74088,4.59128 -3.58984,-2.57803 -5.1581,-3.13944 -7.26774,-2.60173 -6.87117,1.75135 -10.28845,1.7456 -12.24006,-0.0206 -2.32366,-2.10288 -2.53259,-5.72943 -0.45007,-7.81195 0.825,-0.825 1.5,-2.17253 1.5,-2.99451 0,-2.72018 5.8221,-7.37745 15.14282,-12.1132 5.05836,-2.57009 11.03306,-5.93032 13.2771,-7.46717 2.24405,-1.53686 5.88008,-3.67905 8.08008,-4.76042 3.61584,-1.7773 33.68263,-11.67579 54,-17.7777 4.4,-1.32145 10.25,-3.08421 13,-3.91724 2.75,-0.83303 6.74557,-1.82263 8.87905,-2.19911 2.47551,-0.43684 4.04535,-1.32041 4.33864,-2.44197 0.375,-1.43401 1.22545,-1.66212 4.62095,-1.23945 5.63812,0.70182 17.57058,4.87578 19.85877,6.94657 1.02232,0.92518 4.11048,5.61695 6.86257,10.42616 2.7521,4.8092 6.58012,10.12802 8.50671,11.81959 3.27052,2.87156 4.01472,3.07413 11.21811,3.05363 5.20651,-0.0148 9.01585,-0.60268 11.7152,-1.80788 2.2,-0.98226 6.54367,-2.38374 9.65261,-3.11439 5.32885,-1.25238 5.92855,-1.19489 10.47025,1.0037 3.01458,1.45934 7.82285,5.52178 12.84739,10.8546 4.41636,4.68733 13.67099,14.42352 20.56583,21.63599 14.068,14.71606 26.81235,32.59354 30.5235,42.81764 1.26902,3.49612 2.80042,10.13112 3.40311,14.74444 1.42434,10.90274 4.91156,26.65898 6.65843,30.08462 0.75635,1.48322 1.51442,3.60913 1.68459,4.72423 0.17018,1.11511 0.62101,2.33907 1.00185,2.71991 1.36971,1.3697 0.69275,6.145 -0.96109,6.77964 -1.17515,0.45095 -4.03282,-1.68786 -9.87781,-7.39301 C 371.33951,273.09286 371.18475,273 366.09007,273 360.21345,273 354,270.78285 354,268.68589 c 0,-2.15058 3.92484,-6.68124 5.82258,-6.72133 2.55468,-0.054 6.61816,-2.57413 5.38217,-3.33802 -1.16197,-0.71813 -13.08285,2.69558 -17.3783,4.97652 -2.41068,1.28011 -3.02521,1.21222 -6.25,-0.69046 -5.12449,-3.02352 -4.36913,-5.94421 2.42355,-9.37088 3.69078,-1.86187 10,-7.37479 10,-8.73789 0,-1.71799 -2.66612,-0.62302 -9.2679,3.80629 -6.78596,4.55289 -13.2321,6.33347 -13.2321,3.65503 0,-0.67917 2.23664,-3.0831 4.9703,-5.34208 2.73367,-2.25897 6.02821,-5.66406 7.3212,-7.56687 2.66416,-3.92065 6.65093,-15.2471 5.70112,-16.19691 -0.34417,-0.34417 -2.27816,1.39169 -4.29775,3.85747 -6.17155,7.53504 -20.53071,21.44762 -23.47293,22.74291 -1.52794,0.67267 -3.04169,1.91 -3.36389,2.74964 -1.06796,2.78308 1.86849,7.56535 7.42426,12.09105 5.22636,4.25736 5.5735,4.38762 7.36715,2.76438 1.7778,-1.60888 1.96365,-1.59689 3.34616,0.21588 1.49366,1.95851 3.48875,7.82278 3.4988,10.28422 0.003,0.75066 3.49308,4.95558 7.75558,9.34427 8.64063,8.89642 15.79989,12.89713 26.56877,14.84706 7.09068,1.28391 8.68123,2.28316 8.68123,5.45387 0,1.89625 -1.30432,2.79093 -8.00877,5.49349 -6.83939,2.75697 -8.9455,3.1687 -14.42417,2.81984 -6.13447,-0.39061 -6.3691,-0.32199 -5.35811,1.56706 1.35629,2.53424 -1.72164,5.25221 -7.03031,6.20812 -2.02325,0.36432 -5.45066,1.50368 -7.61647,2.53192 C 338.39636,327.15871 335.36914,328 333.835,328 c -3.3151,0 -12.63977,3.45042 -22.335,8.26465 -6.15212,3.05488 -8.21125,3.54345 -17,4.03359 -5.5,0.30673 -12.02488,1.30161 -14.49973,2.21084 -2.47484,0.90923 -8.32484,1.86779 -13,2.13012 -7.3469,0.41225 -8.82716,0.21476 -10.90947,-1.4555 z m 39.53835,-21.72112 c 3.26258,-8.58861 4.17953,-16.28975 1.87085,-15.71258 -0.55,0.1375 -1.02388,0.5875 -1.05306,1 -0.59272,8.3779 -2.12281,15.65025 -4.12346,19.59834 -1.3561,2.67614 -1.93314,4.68821 -1.28231,4.47127 0.65083,-0.21694 2.71542,-4.42761 4.58798,-9.35703 z m -46.25723,-5.19341 c 1.8819,-5.8077 2.39619,-9.67268 1.33776,-10.05359 -0.43468,-0.15643 -2.79718,2.06668 -5.25,4.94023 C 242.2342,314.93456 241,317.2503 241,319.52356 c 0,4.15908 0.7094,4.67808 4.04005,2.95573 1.94504,-1.00582 3.25314,-2.8811 4.33187,-6.21012 z m 23.07154,-9.32039 C 273.29956,303.1848 274,298.55466 274,296.65956 274,293.17992 271.39787,278.77214 270.26876,276 c -1.09787,-2.69542 -1.92451,5.13826 -1.5301,14.5 0.21005,4.98592 -0.23994,12.68142 -1.00894,17.25414 -0.76346,4.53977 -1.16399,8.47826 -0.89007,8.75218 1.37662,1.37661 4.21982,-3.4726 5.60381,-9.55754 z m 44.08907,4.30122 c -0.30552,-2.6125 -1.24543,-7.225 -2.08869,-10.25 -0.84327,-3.025 -1.74899,-6.52404 -2.01273,-7.77564 -0.74117,-3.51734 -15.91411,-25.084 -17.71629,-25.18176 -1.19623,-0.0649 1.03507,3.66921 7.29054,12.20082 5.62793,7.67571 7.35801,11.76928 12.04786,28.50658 1.11731,3.9875 2.25722,7.25 2.53313,7.25 0.27591,0 0.25169,-2.1375 -0.0538,-4.75 z m -107.84352,1.96336 c 0.65395,-0.4158 2.38252,-4.12141 3.84125,-8.23468 1.45873,-4.11328 4.41117,-10.43073 6.56099,-14.03879 4.69258,-7.87563 5.0796,-10.79206 0.80883,-6.09509 -1.67272,1.83964 -2.81168,3.94318 -2.53104,4.67453 0.28065,0.73135 -0.52919,2.01081 -1.79964,2.84324 -1.43357,0.93931 -3.68696,4.95406 -5.93965,10.58237 -4.42193,11.04811 -4.56141,12.57056 -0.94074,10.26842 z m 76.05989,-10.47483 c -0.46512,-4.84058 -1.23046,-6.59031 -2.37987,-5.4409 -0.34703,0.34703 -0.82464,3.90953 -1.06136,7.91667 l -0.4304,7.2857 2.16558,-2.48949 c 1.76042,-2.02372 2.07961,-3.38425 1.70605,-7.27198 z m 54.87916,-2.49089 C 338.18389,297.45493 334,293.10384 334,294.39467 c 0,1.62217 3.13075,6.58211 4.74998,7.52522 2.4521,1.42822 2.46686,1.40012 0.87808,-1.67225 z M 201,293.90552 c 4.79815,-7.96304 13.75696,-19.51197 18.88319,-24.34261 1.71424,-1.6154 3.11681,-3.50449 3.11681,-4.19798 0,-1.88627 -5.83087,0.30116 -9.38604,3.52113 C 208.74227,273.29843 194,297.16907 194,300.64493 c 0,3.06169 2.60627,0.55244 7,-6.73941 z m -23.06722,-5.54062 c 7.14033,-7.64579 8.89709,-11.28092 2.80679,-5.80785 C 172.06739,290.35034 169,293.52527 169,294.70821 c 0,2.53613 1.90116,1.18608 8.93278,-6.34331 z m 119.46676,0.45289 c -0.94707,-1.82478 -1.90173,-2.7858 -2.12147,-2.13558 -0.21975,0.65021 0.37533,2.67521 1.32239,4.5 0.94707,1.82478 1.90173,2.7858 2.12147,2.13558 0.21975,-0.65021 -0.37533,-2.67521 -1.32239,-4.5 z m -39.82916,0.65877 c 0.36355,-1.93789 0.19336,-5.36579 -0.3782,-7.61755 -0.57156,-2.25176 -0.81794,-4.67069 -0.54751,-5.37541 0.27042,-0.70471 0.0336,-1.56442 -0.52632,-1.91046 -1.31578,-0.81319 -3.44312,3.13813 -2.71338,5.03982 0.30744,0.80117 0.0679,3.74655 -0.53232,6.54527 -0.87932,4.10011 -0.82726,5.2559 0.26802,5.94987 2.55141,1.61658 3.76838,0.89361 4.42971,-2.63154 z m -18.46366,-5.03797 C 240.93997,279.23016 241.67062,271.24878 240.06231,274 238.91973,275.95455 235,287.60908 235,289.05179 c 0,2.71959 2.5235,-0.11513 4.10672,-4.6132 z M 153.86456,273.75 c 2.72185,-4.44059 1.78202,-4.794 -2.65931,-1 -2.03775,1.74075 -3.44258,4.0345 -3.82786,6.25 l -0.60866,3.5 2.39863,-2.5 c 1.31925,-1.375 3.43299,-4.1875 4.6972,-6.25 z M 320,280.45034 C 320,276.72553 311.9676,265 309.41597,265 c -1.87398,0 -1.79794,1.4381 0.16204,3.06474 0.8679,0.7203 2.72126,3.5879 4.11857,6.37245 C 316.59973,280.22255 317.87494,282 319.12244,282 319.6051,282 320,281.30265 320,280.45034 Z m -155.02364,-2.43769 c 1.01469,-0.54304 2.86387,-2.68054 4.1093,-4.75 1.24543,-2.06946 4.45663,-6.12039 7.13599,-9.00207 4.47997,-4.81826 8.5258,-11.84647 7.44287,-12.92939 -1.26349,-1.26349 -20.22149,21.05547 -21.20152,24.96021 -0.73798,2.94036 -0.31097,3.23279 2.51336,1.72125 z M 281.51696,272.75 c -0.42119,-3.29688 -1.38615,-5.86767 -2.59383,-6.91029 C 277.86541,264.92655 277,263.95419 277,263.67891 c 0,-1.15506 8.87716,-4.59391 13.5,-5.22966 5.7363,-0.78888 8.95158,-3.25749 10.54967,-8.09976 1.55073,-4.69875 0.42723,-8.63656 -3.05017,-10.69071 -7.34593,-4.33935 -7.60769,-6.60654 -1.61254,-13.96696 4.16266,-5.11062 6.88141,-11.69182 4.83,-11.69182 -2.74455,0 -8.6502,6.37193 -10.22956,11.03722 -2.18381,6.4508 -2.542,6.72984 -5.30579,4.13339 C 284.41083,227.97677 282.4427,227 281.30799,227 c -1.1347,0 -2.61963,-0.67057 -3.29983,-1.49017 -1.63317,-1.96785 -0.66015,-11.13191 1.42682,-13.43799 0.86076,-0.95113 1.56502,-2.06281 1.56502,-2.47041 0,-0.40759 1.25701,-2.62216 2.79335,-4.92125 3.46867,-5.19078 5.47839,-9.74178 4.66233,-10.55783 -0.34056,-0.34056 -1.30638,0.28009 -2.14626,1.37922 -1.83804,2.4054 -9.10313,17.82834 -9.9071,21.0316 -0.31434,1.25245 -1.65846,3.29829 -2.98693,4.54631 L 271,223.34863 l -2.48386,-2.33347 c -2.46561,-2.31632 -2.51298,-2.32033 -6.44622,-0.54669 -4.83475,2.18017 -7.57492,1.46688 -6.64832,-1.73062 0.35667,-1.23082 1.10222,-4.8854 1.65678,-8.1213 0.55455,-3.23589 1.66378,-7.15105 2.46495,-8.70034 1.55007,-2.9975 2.04948,-8.98486 0.61442,-7.36621 -0.46323,0.5225 -2.0843,4.55 -3.60237,8.95 -3.00439,8.70798 -4.87287,11.5 -7.69602,11.5 -1.00686,0 -3.79272,0.52477 -6.19081,1.16616 -2.39808,0.64139 -5.13499,0.86883 -6.08202,0.50542 -1.50371,-0.57703 -1.22254,-1.38995 2.21921,-6.41616 7.94925,-11.60882 11.28667,-17.13986 11.71853,-19.42091 0.2431,-1.28398 0.71034,-3.57201 1.03832,-5.08451 0.95775,-4.41675 -0.20217,-3.22835 -4.11305,4.21408 -4.05889,7.72408 -16.17835,20.85252 -21.15156,22.91249 -2.52254,1.04487 -3.65508,1.00106 -6.6683,-0.25794 -3.52744,-1.47386 -3.62947,-1.6659 -3.62213,-6.8176 0.0107,-7.49718 1.58774,-16.30595 4.53659,-25.33951 3.15564,-9.66704 1.89965,-12.23433 -2.11986,-4.33308 -1.93899,3.81152 -2.94937,7.7225 -3.47895,13.46637 C 213.84892,201.48653 210.01249,208 204.1047,208 c -2.84357,0 -5.40338,-3.08036 -10.16402,-12.2309 -3.85262,-7.40523 -4.07727,-8.28652 -3.46522,-13.59385 0.35996,-3.12139 0.27731,-6.68911 -0.18368,-7.92827 -0.79667,-2.14148 -0.95309,-2.17251 -3.15998,-0.62674 -2.77974,1.947 -2.59091,4.22071 1.27435,15.34465 1.42662,4.10568 2.59385,8.03227 2.59385,8.72575 0,0.69347 -1.575,2.69408 -3.5,4.44579 -3.48589,3.17209 -4.46373,6.14992 -2.43183,7.4057 0.5875,0.3631 0.79758,1.36534 0.46685,2.22721 -0.37378,0.97406 0.60234,2.8089 2.57957,4.84889 3.14333,3.24309 3.16019,3.31345 1.42768,5.95761 -1.93698,2.95619 -0.97363,4.37895 2.98522,4.40885 4.11129,0.031 14.47251,9.07948 14.47251,12.6388 0,1.69137 0.77122,2.38403 3.25,2.91897 1.7875,0.38575 4.97069,1.38364 7.07375,2.21754 3.27337,1.29794 3.73842,1.85614 3.23095,3.87809 -0.57661,2.29739 -0.41881,2.36191 5.77702,2.36191 8.70913,0 12.2946,1.44779 15.27408,6.16759 2.81662,4.46182 4.90217,5.62078 7.35646,4.08805 2.29463,-1.43302 14.20163,-2.63508 18.36503,-1.85402 2.6129,0.49018 4.15991,1.79775 6.93854,5.86461 1.96676,2.87857 4.36987,6.92127 5.34026,8.98377 0.97038,2.0625 1.94822,3.75 2.17296,3.75 0.22474,0 0.10681,-2.3625 -0.26209,-5.25 z m -86.8979,-11.90472 C 197.09287,257.63037 198.63054,255 198.0361,255 195.39177,255 185,266.53751 185,269.47339 c 0,1.59584 5.65516,-3.47673 9.61906,-8.62811 z M 144.63643,256.75 c 2.22906,-2.3375 5.09416,-5.825 6.36688,-7.75 1.27272,-1.925 3.6809,-4.9625 5.35153,-6.75 3.39409,-3.63154 2.80738,-4.30936 -1.08197,-1.25 -1.39842,1.1 -3.07846,2 -3.73341,2 -1.76517,0 -5.2412,4.04191 -6.90918,8.03395 -0.80584,1.92866 -2.40232,4.35476 -3.54773,5.39134 -2.05874,1.86313 -2.82381,4.57471 -1.29076,4.57471 0.43549,0 2.61557,-1.9125 4.84464,-4.25 z m 23.95771,-7.09242 c 3.11854,-3.93667 7.74813,-9.0272 10.28797,-11.31229 4.6897,-4.21932 5.20523,-6.52572 0.95354,-4.26592 -3.94845,2.09862 -15.92716,14.20744 -17.93599,18.13079 -4.28226,8.36354 -0.94498,7.09104 6.69448,-2.55258 z M 198,244.5 c 1.59557,-1.92255 -0.0323,-1.94278 -2.55887,-0.0318 -1.63076,1.23344 -1.68089,1.47328 -0.31357,1.5 0.89515,0.0175 2.18775,-0.6432 2.87244,-1.4682 z m 122.91349,-3.697 C 322.61107,238.49465 324,235.80987 324,234.83683 c 0,-1.52486 -0.58688,-1.37753 -4.25,1.06691 -2.3375,1.55984 -5.9375,3.43501 -8,4.16705 -2.0625,0.73204 -3.75,1.62665 -3.75,1.98802 0,0.52028 5.06237,2.0788 9.16349,2.8211 0.36492,0.0661 2.05242,-1.76856 3.75,-4.07691 z M 134.1111,231.76895 c 0.81846,-1.50886 0.4967,-1.4701 -2.50676,0.30199 -4.30057,2.5374 -5.98084,4.51085 -5.08074,5.96725 0.73513,1.18946 5.82115,-3.01291 7.5875,-6.26924 z m 178.34016,2.1397 c 2.0891,-1.83425 3.94307,-4.65935 4.55914,-6.94726 0.6375,-2.36749 2.37546,-4.95813 4.50239,-6.71132 5.08063,-4.18788 8.26868,-15.52669 5.10399,-18.15315 -1.52592,-1.2664 -2.61678,0.39103 -2.61678,3.97588 0,2.51158 -8.61942,19.01362 -13.41184,25.6772 -4.23251,5.88506 -3.43433,6.80986 1.8631,2.15865 z M 299.9182,205.41538 c 4.19628,-3.53094 14.08675,-23.39202 14.06649,-28.24694 -0.0199,-4.76419 -1.3261,-6.95991 -3.21018,-5.39626 -2.15364,1.78736 -6.01894,10.15408 -6.92051,14.97992 -0.44953,2.40621 -2.59639,8.17135 -4.77079,12.81142 -2.17441,4.64006 -3.56719,8.43648 -3.09507,8.43648 0.47213,0 2.24065,-1.16308 3.93006,-2.58462 z M 274.05218,202.75 c 3.15787,-5.28879 7.24378,-14.78737 6.62648,-15.40467 C 279.65959,186.32626 270,203.63313 270,206.47804 c 0,1.66527 1.84592,-0.033 4.05218,-3.72804 z m -45.15446,-6.23519 C 231.03886,192.45596 231.75745,186 230.06809,186 227.70733,186 225,191.93185 225,197.10437 c 0,5.7724 0.5886,5.68337 3.89772,-0.58956 z M 177.5344,191.25 c -0.38432,-1.5125 -0.91212,-9.5 -1.1729,-17.75 -0.55215,-17.46767 -0.79671,-18.75136 -2.97883,-15.63595 -0.9555,1.36417 -1.51277,4.20388 -1.45664,7.4227 0.28277,16.21576 0.73123,20.4261 2.60294,24.43745 2.2231,4.76442 4.06608,5.70007 3.00543,1.5258 z m 28.24887,-0.32897 c 1.58721,-2.99443 1.01732,-7.22815 -2.35452,-17.49178 -1.85659,-5.65134 -2.47733,-9.30242 -2.16076,-12.70918 0.45911,-4.94065 -0.49168,-7.0216 -1.8113,-3.96433 -1.428,3.30836 -1.76325,26.77975 -0.4411,30.8816 2.22255,6.89525 4.31518,7.91059 6.76768,3.28369 z m -41.27894,-9.92268 c -0.0959,-5.50091 -0.44361,-10.27097 -0.77278,-10.60013 -2.93814,-2.93815 -4.03938,14.28958 -1.17485,18.37927 0.85619,1.22238 1.68388,2.22251 1.83931,2.22251 0.15544,0 0.20418,-4.50074 0.10832,-10.00165 z m 109.34351,1.05859 c 2.58039,-4.59118 1.70727,-5.22751 -2.20182,-1.60469 C 270.05754,181.9244 269,183.97171 269,185.5747 c 0,3.38757 1.63269,2.20284 4.84784,-3.51776 z m 21.9371,-2.80694 c 1.9591,-5.24288 2.14746,-6.25 1.16898,-6.25 -1.47943,0 -4.86764,6.06127 -4.26544,7.63057 0.82002,2.13695 1.9744,1.62227 3.09646,-1.38057 z m -46.18425,-9.86211 C 252.57031,164.7846 255,160.54498 255,159.9665 c 0,-0.57847 -1.60879,0.20492 -3.5751,1.74087 C 247.92418,164.4419 242,174.3878 242,177.5305 c 0,2.6954 1.97152,0.58331 7.60069,-8.14261 z M 211.71625,153.25 c -0.22912,-1.5125 -0.41659,-0.275 -0.41659,2.75 0,3.025 0.18747,4.2625 0.41659,2.75 0.22913,-1.5125 0.22913,-3.9875 0,-5.5 z m -24.48438,4.14045 c 1.02066,-2.2401 0.91978,-2.80639 -0.71257,-4 C 185.47344,152.6257 183.83717,152 182.88313,152 c -1.63631,0 -1.63964,0.2261 -0.0589,3.98983 1.96619,4.68138 2.79307,4.94414 4.40761,1.40062 z m 26.575,-9.91691 c -0.30789,-0.30789 -0.86705,0.24711 -1.24258,1.23333 -0.54268,1.4252 -0.42782,1.54006 0.5598,0.5598 0.68342,-0.67834 0.99067,-1.48524 0.68278,-1.79313 z M 364.75,283.8399 c -2.6125,-1.15218 -4.75,-2.44348 -4.75,-2.86956 0,-1.8184 6.27427,-2.96845 10.03981,-1.84027 3.16603,0.94857 5.96019,3.95687 5.96019,6.41698 0,1.21782 -7.04018,0.14949 -11.25,-1.70715 z m -37.65308,-24.22312 c -0.88524,-1.06665 -0.79883,-1.51719 0.37756,-1.96861 2.2172,-0.85082 4.48716,0.28822 3.85539,1.93459 -0.69237,1.80429 -2.75003,1.82083 -4.23295,0.034 z M 144.57003,206.11331 c -0.68055,-1.10115 1.86765,-3.3423 2.77198,-2.43797 0.36189,0.3619 0.65799,1.25799 0.65799,1.99133 0,1.4897 -2.57786,1.82538 -3.42997,0.44664 z M 127.25,200.33772 c -0.6875,-0.27741 -1.25,-0.94818 -1.25,-1.4906 0,-1.40712 4.26069,-0.5981 4.75501,0.90288 0.41398,1.25706 -1.1827,1.52479 -3.50501,0.58772 z"
       id="path3"
       sodipodi:nodetypes="scssssssssssssssssssssssssssssssssssssscssssssssssssssssssssssssssssssssssssssssssssssssssssssssssssssssssssssssssssssssssssssssssssssssssssssssssssscsssssssssssssssssssssssssssssssssssscssssssssssssssssssssssssssssssssscssssssssssssssssssssssssssssssssssssssssssssssssssssssssssssssssssssssssssssssssssssssssssssssssssssssssssssssssscssssssssssssssssssssssssssssssssssssssssssssssss" /></g></svg>
