<?xml version="1.0" encoding="UTF-8" standalone="no"?>
<!-- Created with Inkscape (http://www.inkscape.org/) -->

<svg
   width="500"
   height="500"
   viewBox="0 0 500 500"
   version="1.1"
   id="svg1"
   xml:space="preserve"
   inkscape:version="1.4.2 (2aeb623e1d, 2025-05-12)"
   sodipodi:docname="Travic.svg"
   xmlns:inkscape="http://www.inkscape.org/namespaces/inkscape"
   xmlns:sodipodi="http://sodipodi.sourceforge.net/DTD/sodipodi-0.dtd"
   xmlns="http://www.w3.org/2000/svg"
   xmlns:svg="http://www.w3.org/2000/svg"><sodipodi:namedview
     id="namedview1"
     pagecolor="#ffffff"
     bordercolor="#000000"
     borderopacity="0.25"
     inkscape:showpageshadow="2"
     inkscape:pageopacity="0.0"
     inkscape:pagecheckerboard="0"
     inkscape:deskcolor="#d1d1d1"
     inkscape:document-units="px"
     inkscape:zoom="1.0731789"
     inkscape:cx="140.70347"
     inkscape:cy="319.1453"
     inkscape:window-width="1920"
     inkscape:window-height="940"
     inkscape:window-x="0"
     inkscape:window-y="0"
     inkscape:window-maximized="1"
     inkscape:current-layer="layer1"
     showgrid="false"><inkscape:grid
       id="grid1"
       units="px"
       originx="0"
       originy="0"
       spacingx="1"
       spacingy="1"
       empcolor="#0099e5"
       empopacity="0.30196078"
       color="#0099e5"
       opacity="0.14901961"
       empspacing="5"
       enabled="true"
       visible="false" /></sodipodi:namedview><defs
     id="defs1" /><g
     inkscape:label="Layer 1"
     inkscape:groupmode="layer"
     id="layer1"><path
       style="fill:#000000"
       d="m 301.5,368.88104 c -9.99276,-1.78524 -16.20706,-6.47745 -20.621,-15.57024 -1.8184,-3.74594 -9.36856,-17.3858 -16.77812,-30.3108 -7.40955,-12.925 -16.00351,-28 -19.09767,-33.5 -3.09416,-5.5 -8.02624,-14.05 -10.96017,-19 -2.93394,-4.95 -6.31227,-10.8 -7.5074,-13 -1.19513,-2.2 -4.79337,-8.5 -7.99609,-14 -3.20272,-5.5 -6.95797,-12.025 -8.34501,-14.5 -1.38704,-2.475 -5.14823,-8.92936 -8.35821,-14.34303 C 198.62635,209.2433 196,204.66747 196,204.48845 c 0,-0.17902 -2.7,-4.89882 -6,-10.48845 -3.3,-5.58963 -6,-10.33131 -6,-10.53707 0,-0.20576 -1.09244,-1.98391 -2.42764,-3.95144 -1.3352,-1.96753 -2.5727,-3.9996 -2.75,-4.51572 -0.18443,-0.53687 -2.03391,-0.32762 -4.32236,0.48902 -5.17802,1.84781 -6.5,1.8509 -6.5,0.0152 0,-1.05859 -1.07108,-1.5 -3.63976,-1.5 -2.29369,0 -4.13104,-0.64719 -4.96819,-1.75 -1.93263,-2.54592 -1.68217,-7.61145 0.51441,-10.40396 3.72764,-4.73892 10.58936,-11.08405 12.96198,-11.98612 1.32491,-0.50373 2.16335,-1.16147 1.86318,-1.46163 -0.30017,-0.30017 -1.8664,0.13717 -3.48052,0.97186 -2.56423,1.32602 -3.14366,1.33488 -4.58936,0.0702 -0.91003,-0.7961 -1.2062,-0.90585 -0.65817,-0.24388 1.54537,1.86663 1.1742,3.196 -0.50357,1.80357 -0.825,-0.68469 -1.5,-1.70002 -1.5,-2.25628 0,-0.55626 -3.08201,-4.25595 -6.84892,-8.22152 -3.7669,-3.96557 -7.57442,-8.66444 -8.46115,-10.44193 -2.05393,-4.1172 -1.00846,-6.05232 5.75923,-10.66012 4.52721,-3.08237 5.09591,-3.23685 6.67041,-1.81194 1.5691,1.42001 1.8167,1.37939 2.80085,-0.4595 0.59377,-1.10948 1.07958,-2.69726 1.07958,-3.5284 0,-1.60988 1.29574,-2.44082 12.87696,-8.25772 6.4931,-3.26129 7.72742,-3.57294 10.30206,-2.60112 2.64634,0.99888 3.03074,0.87225 4.03356,-1.32868 0.60965,-1.33804 1.38108,-2.43279 1.7143,-2.43279 0.85059,0 6.39968,9.54057 8.95156,15.39044 1.57928,3.62031 1.84974,5.23216 1.04136,6.20619 -1.40174,1.689 -0.34189,3.40337 2.10403,3.40337 1.04819,0 2.43259,1.0125 3.07644,2.25 0.64385,1.2375 1.26768,2.3705 1.38629,2.51777 0.11861,0.14727 2.19515,-0.63034 4.61454,-1.72804 5.52898,-2.50853 8.12956,-2.54732 10.29588,-0.15356 2.49549,2.75748 1.91736,10.46989 -0.98954,13.20078 -1.74003,1.63468 -2.05203,2.65917 -1.44617,4.74871 1.12776,3.88949 8.54216,17.23699 23.69961,42.66434 5.18942,8.70551 12.54575,21.22955 18.68722,31.8147 1.01646,1.75191 4.00015,6.7853 6.63042,11.1853 C 284.57845,251.57756 289,259.13329 289,259.587 c 0,0.27169 0.83021,1.71326 1.84491,3.20349 1.01471,1.49023 3.41659,5.40951 5.33752,8.70951 10.25687,17.62043 21.76022,37.03716 26.66003,45 C 332.05924,331.47846 334,335.76268 334,341.13019 c 0,5.58891 -2.75926,13.55433 -6.30613,18.20452 -4.93757,6.47349 -17.58774,11.08383 -26.19387,9.54633 z M 319.01017,353.75 c 4.77997,-3.25322 7.14076,-6.90939 7.70738,-11.93651 0.4416,-3.9178 -0.1878,-5.76059 -5.58915,-16.36423 -3.34773,-6.57209 -7.73912,-13.74926 -9.75865,-15.94926 -3.67237,-4.00054 -3.71799,-3.42077 -0.13769,1.75 1.04727,1.5125 1.42423,2.75 0.8377,2.75 -0.58654,0 0.45226,2.1375 2.30843,4.75 7.04167,9.91088 8.16805,15.35577 5.06225,24.47077 -1.8592,5.45647 -3.35007,6.85276 -9.90091,9.27285 -4.11022,1.51844 -4.62443,1.96396 -3,2.59918 3.84308,1.50281 9.12526,0.93404 12.47064,-1.3428 z M 313,314.94098 c 0,-0.58246 0.45,-0.7809 1,-0.44098 0.55,0.33992 1,0.81648 1,1.05902 0,0.24254 -0.45,0.44098 -1,0.44098 -0.55,0 -1,-0.47656 -1,-1.05902 z m -43.6259,-64.89311 c 1.37736,-0.52368 3.01746,-1.91098 3.64465,-3.08291 1.20366,-2.24905 1.69649,-1.34946 -22.16819,-40.46496 -3.69115,-6.05 -8.83687,-14.6 -11.43493,-19 -2.59807,-4.4 -6.63301,-10.95253 -8.96655,-14.56117 -2.33353,-3.60865 -5.10433,-8.10865 -6.15733,-10 C 220.23359,155.64973 217.76775,152 216.90122,152 c -1.28474,0 -1.06495,1.19943 0.63058,3.44113 1.60175,2.11769 1.9806,5.55887 0.612,5.55887 -0.47091,0 -2.94432,1.5944 -5.49647,3.54312 -2.55216,1.94871 -6.55269,4.21785 -8.89008,5.04253 -2.33739,0.82468 -5.68405,2.88954 -7.43702,4.58859 l -3.18722,3.08917 1.9182,4.86652 c 2.7462,6.96715 7.80049,16.87271 10.3938,20.37007 1.22348,1.65 4.36616,7.05 6.98373,12 2.61757,4.95 5.23106,9.57337 5.80774,10.27417 0.57669,0.70079 0.82534,1.49734 0.55257,1.77011 -0.57956,0.57957 -8.60147,-11.22444 -11.58316,-17.04428 -1.12713,-2.2 -2.79214,-4.9 -3.70002,-6 -0.90788,-1.1 1.14447,3.4 4.56077,10 7.77199,15.01481 9.6566,18.24108 12.86676,22.02667 1.41163,1.66466 3.44335,4.67787 4.51493,6.69602 1.44434,2.72016 3.38444,4.32506 7.5,6.20418 5.10098,2.32906 6.70321,2.53639 19.73657,2.55399 7.8017,0.0105 15.31183,-0.40932 16.6892,-0.93299 z m 6.89493,0.29619 c -0.67703,-0.27392 -2.02703,-0.29059 -3,-0.0371 -0.97297,0.25354 -0.41903,0.47766 1.23097,0.49804 1.65,0.0204 2.44606,-0.18706 1.76903,-0.46099 z m -78.92395,-57.88719 c -0.32569,-0.84872 -0.80663,-1.32866 -1.06875,-1.06653 -0.26213,0.26213 -0.17998,0.95654 0.18255,1.54313 0.98605,1.59546 1.56238,1.28551 0.8862,-0.4766 z M 196,167.07143 C 196,166.48214 195.55,166 195,166 c -0.55,0 -1,0.4132 -1,0.91821 0,0.50502 -0.31232,1.74252 -0.69405,2.75 -0.65008,1.71576 -0.58673,1.72546 1,0.15322 0.93173,-0.92322 1.69405,-2.16072 1.69405,-2.75 z m -12.5,-1.88676 c 3.3,-2.08798 6.80149,-4.09995 7.78109,-4.47105 1.68935,-0.63996 15.05572,-9.36622 26.46891,-17.28027 2.8875,-2.00223 5.25,-4.04383 5.25,-4.53689 0,-1.51002 -4.34793,-0.98664 -7.13444,0.8588 -15.43131,10.21985 -19.9479,13.10003 -23.90616,15.24474 -4.80178,2.60175 -12.4316,7.89942 -16.87707,11.7184 l -2.58233,2.2184 2.5,0.0221 c 1.375,0.0121 5.2,-1.68625 8.5,-3.77423 z m 22.27106,-5.99785 c 0.24358,-0.73075 -0.21359,-0.95424 -1.1875,-0.58051 -0.87096,0.33422 -1.58356,1.04702 -1.58356,1.58401 0,1.31439 2.27278,0.49134 2.77106,-1.0035 z m -8.11805,-13.24912 c 6.38998,-4.64074 13.66016,-10.10353 16.15597,-12.13955 2.4958,-2.03602 4.96817,-3.43588 5.49415,-3.1108 0.52598,0.32507 0.73585,-0.0341 0.46637,-0.79815 -0.82889,-2.35015 -4.64582,-1.12145 -20.41969,6.57327 -10.63994,5.19031 -16.57527,8.74538 -19.8677,11.90008 -4.99218,4.78335 -5.27049,6.41045 -1.42695,8.34243 2.83843,1.42676 2.71128,1.49662 19.59785,-10.76728 z m 5.9703,-13.4571 c 2.83829,-1.66334 4.1099,-3.01228 3.7424,-3.96997 -0.4259,-1.10986 -1.59119,-0.5858 -4.96118,2.23116 -2.42249,2.02495 -4.40453,3.81144 -4.40453,3.96997 0,0.74705 1.67632,0.0819 5.62331,-2.23116 z m -10.0711,-4.10677 c 2.21188,-1.44927 2.4163,-1.45533 1.87921,-0.0557 -0.43321,1.12891 -0.037,1.52786 1.40923,1.41892 1.62899,-0.12271 1.93969,-0.7219 1.6326,-3.14845 -0.20861,-1.64829 0.15855,-3.64494 0.81589,-4.43699 0.99878,-1.20346 0.82673,-1.32316 -1.04698,-0.72847 -2.76628,0.87798 -2.82365,0.13157 -0.24216,-3.15027 2.41935,-3.0757 2.56747,-7.01768 0.38098,-10.13933 -1.37211,-1.95896 -2.17274,-2.21037 -5.25,-1.64853 -1.99704,0.36462 -4.62765,1.30465 -5.8458,2.08897 -1.21815,0.78431 -2.90565,1.42602 -3.75,1.42602 -0.84435,0 -1.53518,0.44343 -1.53518,0.98541 0,0.54197 2.26666,0.092 5.03702,-1 C 192.71972,107.7455 194,107.56431 194,109 c 0,0.55 -0.51173,1 -1.13717,1 -0.62545,0 -4.22545,2.03456 -8,4.52125 -6.66521,4.39106 -8.68587,6.22377 -5.11283,4.63726 5.25987,-2.33549 10.98469,-5.33882 12.69113,-6.65795 1.06762,-0.82531 2.41137,-1.50056 2.98612,-1.50056 0.57474,0 -2.00686,2.7544 -5.7369,6.1209 -3.73004,3.36649 -6.55584,6.34695 -6.27956,6.62322 0.27628,0.27628 2.61023,-1.35312 5.18656,-3.62089 4.7154,-4.15067 5.91441,-4.75197 6.72622,-3.37323 0.78575,1.33449 -1.21627,5.25 -2.68436,5.25 -0.78388,0 -1.69838,0.7118 -2.03222,1.58179 -0.94143,2.45332 -0.73443,2.76887 0.91718,1.39815 2.43363,-2.01973 2.69623,-0.52984 0.41725,2.3674 -2.3955,3.04539 -1.92653,3.34424 1.61079,1.02649 z"
       id="path2"
       sodipodi:nodetypes="ssssssssssssssssssssssssssssssssssssssssssssssssssssssssssssssssssssssssssssssssssscsssssssssssssssssssssssssssssssssssccsssssssssssssssssssssssssssssscsssssssssssssss" /></g></svg>
