<?xml version="1.0" encoding="UTF-8" standalone="no"?>
<!-- Created with Inkscape (http://www.inkscape.org/) -->

<svg
   width="500"
   height="500"
   viewBox="0 0 500 500"
   version="1.1"
   id="svg1"
   xml:space="preserve"
   inkscape:version="1.4.2 (f4327f4, 2025-05-13)"
   sodipodi:docname="Vojak.svg"
   xmlns:inkscape="http://www.inkscape.org/namespaces/inkscape"
   xmlns:sodipodi="http://sodipodi.sourceforge.net/DTD/sodipodi-0.dtd"
   xmlns="http://www.w3.org/2000/svg"
   xmlns:svg="http://www.w3.org/2000/svg"><sodipodi:namedview
     id="namedview1"
     pagecolor="#ffffff"
     bordercolor="#000000"
     borderopacity="0.25"
     inkscape:showpageshadow="2"
     inkscape:pageopacity="0.0"
     inkscape:pagecheckerboard="0"
     inkscape:deskcolor="#d1d1d1"
     inkscape:document-units="px"
     inkscape:zoom="1.6699219"
     inkscape:cx="306.60116"
     inkscape:cy="253.00584"
     inkscape:window-width="1920"
     inkscape:window-height="1057"
     inkscape:window-x="-8"
     inkscape:window-y="-8"
     inkscape:window-maximized="1"
     inkscape:current-layer="layer1" /><defs
     id="defs1" /><g
     inkscape:label="Layer 1"
     inkscape:groupmode="layer"
     id="layer1"><path
       style="fill:#000000"
       d="m 245.5,379.29516 c -2.75,-1.36067 -6.35,-3.18699 -8,-4.05848 -13.151,-6.94602 -16.36951,-8.84837 -19,-11.23027 -1.65,-1.49406 -5.025,-4.07797 -7.5,-5.74202 C 197.17328,348.96807 179.40132,328.28179 168.24649,308.5 150.03606,276.20591 136.69502,228.44345 134.3276,187.06644 l -0.63704,-11.13401 2.90472,-3.0578 c 1.5976,-1.68179 4.59222,-3.92573 6.65472,-4.98654 2.0625,-1.0608 3.75,-2.12766 3.75,-2.37079 0,-0.24313 -2.9421,-0.16731 -6.538,0.16848 l -6.538,0.61053 0.288,-9.89816 0.288,-9.89815 4.34975,-0.5 4.34975,-0.5 -2.28273,-2.89036 -2.28274,-2.89035 3.43299,0.63898 c 1.88814,0.35144 10.18298,0.9241 18.43298,1.27256 12.68985,0.53601 17.23315,0.29125 29.5,-1.58921 21.9602,-3.36642 41.52803,-10.18226 54.64219,-19.0329 2.45194,-1.6548 5.29801,-3.00872 6.32461,-3.00872 1.02659,0 2.04905,-0.54756 2.27213,-1.21679 0.25217,-0.75651 1.70223,0.008 3.83333,2.02006 11.95354,11.28787 34.34345,20.29577 60.42774,24.31125 9.69103,1.49186 36.79138,1.8667 45.08043,0.62353 l 5.08044,-0.76195 2.66956,5.2763 C 372.72976,152.99459 373,154.61546 373,164.26435 373,170.16896 372.59973,175 372.1105,175 c -0.48922,0 -1.18457,5.5125 -1.54521,12.25 -1.52813,28.54831 -9.84322,65.87986 -20.8677,93.68799 C 339.07845,307.72366 328.17881,325 321.89888,325 c -1.9656,0 -11.05834,-5.58219 -17.83396,-10.94858 -2.28643,-1.81089 -4.43903,-3.01064 -4.78355,-2.66612 -0.34452,0.34452 1.40564,3.66127 3.88924,7.37055 2.4836,3.70928 5.77369,8.99415 7.3113,11.74415 1.53762,2.75 3.4277,5.73197 4.20019,6.6266 1.24745,1.44469 0.53294,2.43588 -6.38879,8.8628 -4.28632,3.97992 -10.26831,8.87167 -13.29331,10.87057 -3.025,1.9989 -5.725,3.90542 -6,4.23671 -1.11877,1.34776 -23.2157,14.10374 -27.68856,15.98388 -2.64629,1.11236 -6.00587,2.67428 -7.46573,3.47095 -1.45986,0.79667 -2.80986,1.39654 -3,1.33304 -0.19014,-0.0635 -2.59571,-1.22872 -5.34571,-2.58939 z m 7.34563,-17.16458 c 1.4599,-1.02817 4.45437,-2.82151 6.65437,-3.98518 2.2,-1.16367 5.575,-3.49705 7.5,-5.18527 3.005,-2.63538 3.14643,-2.93728 1,-2.13462 -1.375,0.51419 -2.725,0.92277 -3,0.90795 -1.72365,-0.0928 -6.10419,1.96684 -9.80606,4.61072 l -4.30607,3.07538 -7.03265,-3.78773 c -3.86796,-2.08325 -7.20581,-3.61458 -7.41744,-3.40294 -0.21164,0.21163 1.49901,1.93421 3.80142,3.82795 2.30242,1.89374 5.328,4.44144 6.72351,5.66156 3.09274,2.70404 2.67072,2.67447 5.88292,0.41218 z m -4.26952,-14.37336 c 0.34521,-0.34521 -0.13756,-2.9315 -1.07282,-5.74731 -1.39921,-4.21264 -1.48661,-5.63596 -0.49332,-8.03398 0.90023,-2.17335 0.92787,-3.71548 0.10871,-6.06532 -0.86606,-2.48438 -0.77916,-3.82383 0.41072,-6.33133 1.23615,-2.60499 1.46045,-7.32473 1.23989,-26.08937 L 248.5,272.58087 245,271.65626 c -1.925,-0.50854 -5.45247,-0.88246 -7.83882,-0.83095 -3.46597,0.0748 -4.12049,-0.16941 -3.25353,-1.21403 0.80838,-0.97404 0.59747,-1.74917 -0.82662,-3.03795 -1.79377,-1.62334 -2.07003,-1.62664 -4.47107,-0.0534 -1.40755,0.92226 -5.9456,5.47279 -10.08457,10.1123 -4.13896,4.63951 -7.52539,8.02534 -7.52539,7.52408 0,-0.50127 0.63869,-1.44146 1.4193,-2.08932 0.78062,-0.64785 4.42533,-5.60762 8.09936,-11.02171 5.18425,-7.63957 6.52374,-10.33631 5.98197,-12.04327 -0.62874,-1.98098 -1.16012,-2.1373 -5.34936,-1.57369 -4.07843,0.54871 -4.43607,0.45516 -2.9039,-0.75958 1.46877,-1.16448 1.57275,-1.88626 0.65218,-4.52704 L 217.80435,249 h -21.79519 c -19.25691,0 -21.8683,0.19054 -22.42302,1.63612 -0.57183,1.49017 -0.80494,1.47585 -2.61312,-0.16054 -1.0919,-0.98816 -2.24861,-1.53332 -2.57046,-1.21148 -0.8167,0.81671 0.53506,4.7359 1.63344,4.7359 0.49568,0 0.64933,0.65644 0.34145,1.45876 -0.96793,2.52239 1.48974,7.87632 5.69118,12.39795 3.7171,4.00039 3.92073,4.49756 2.48978,6.07875 -0.85712,0.94711 -1.55841,2.0969 -1.55841,2.55508 0,0.45818 2.5044,5.77413 5.56532,11.81322 C 189.09719,301.19088 197.49354,314 199.40915,314 c 0.74152,0 1.86597,-1.24997 2.49878,-2.77772 0.63281,-1.52774 2.03741,-3.33156 3.12132,-4.00847 2.43258,-1.51918 2.43243,-1.51174 -0.088,4.18618 -1.13234,2.55982 -1.7974,5.47779 -1.47792,6.48437 0.31948,1.00659 3.69719,4.70689 7.50602,8.2229 13.72871,12.67323 19.96505,17.22961 24.94563,18.22573 3.22215,0.64443 3.2995,0.58152 2.87139,-2.33536 -0.55109,-3.75484 0.89206,-3.90629 2.35961,-0.24763 2.47719,6.17573 3.20381,7.18407 4.9814,6.91279 1.00161,-0.15285 2.10355,-0.56036 2.44876,-0.90557 z m 14.70402,-1.37485 c 10.02284,-4.21812 29.60107,-16.35778 26.41264,-16.3774 -0.44398,-0.003 -5.05476,2.02003 -10.24618,4.49503 -5.19141,2.475 -9.59264,4.5 -9.78051,4.5 -0.18786,0 -0.96421,-5.2875 -1.72523,-11.75 l -1.38366,-11.75 -0.67006,6 c -0.36854,3.3 -0.7189,8.97179 -0.7786,12.60398 -0.11473,6.98094 -1.28405,9.13419 -7.11049,13.09357 -3.60771,2.45163 -1.82749,2.17689 5.28209,-0.81518 z m 24.80662,-34.98088 3.08676,-0.59851 -0.83676,-6.15149 C 289.87654,301.26817 289.5,294.675 289.5,290 v -8.5 l 8.64206,-0.28736 8.64206,-0.28736 0.68296,-4.55429 c 0.37562,-2.50486 0.46639,-4.77085 0.20171,-5.03554 -0.26469,-0.26468 -2.21094,-9.5e-4 -4.32502,0.58608 -2.11407,0.58702 -5.80505,1.06983 -8.20218,1.07289 -4.26817,0.005 -4.34309,-0.0514 -3.61841,-2.74442 0.40699,-1.5125 1.067,-4.41915 1.46667,-6.45922 0.39968,-2.04007 1.48115,-4.86067 2.40327,-6.26801 1.53088,-2.33642 1.53689,-2.6124 0.0691,-3.17564 -1.63182,-0.62619 -13.4296,0.28692 -14.24521,1.10254 -0.24476,0.24475 0.50629,1.65439 1.669,3.13253 1.63822,2.08266 2.114,4.08972 2.114,8.91783 v 6.23031 l -6.98438,-0.0475 c -3.84141,-0.0261 -7.20254,0.1707 -7.46918,0.43733 -0.26664,0.26664 -0.20902,2.18421 0.12804,4.26126 l 0.61283,3.77645 6.35844,-0.32896 c 6.84224,-0.354 7.15661,-0.0695 5.30504,4.80046 -0.57707,1.5178 -1.46099,5.9346 -1.96428,9.8151 -0.50329,3.88051 -1.22427,9.24369 -1.60216,11.91817 l -0.68709,4.8627 3.15137,-0.6127 c 1.73325,-0.33698 4.54041,-0.88203 6.23812,-1.21121 z m 25.97559,-14.81971 c 9.42558,-10.73514 20.3153,-28.5532 24.00511,-39.27782 2.96257,-8.61087 3.04316,-8.49318 -5.56367,-8.1248 -8.36157,0.35788 -9.68065,1.26455 -3.25378,2.23648 7.50171,1.13447 7.49558,1.0399 0.95982,14.80592 -5.21399,10.98202 -8.43795,16.44402 -17.97438,30.45204 -2.93294,4.30819 -1.99497,4.26104 1.8269,-0.0918 z m -55.55506,-30.93309 c 5.32128,-2.47799 11.96744,-9.07156 10.89425,-10.80802 -0.36626,-0.59263 -3.06291,1.34796 -6.27202,4.51352 -3.09623,3.05421 -7.20451,6.23136 -9.12951,7.06032 -1.925,0.82896 -2.825,1.52042 -2,1.53658 0.825,0.0161 3.75328,-1.01993 6.50728,-2.3024 z M 256.6,255.6 c 2.95591,-2.95591 3.4,-4.05014 3.4,-8.37756 0,-3.42389 -0.51896,-5.40594 -1.66262,-6.35 -1.38733,-1.14519 -1.73763,-1.14942 -2.11564,-0.0255 -0.76594,2.27732 -6.23614,8.02289 -8.24555,8.66066 -1.04536,0.33178 -2.81764,0.11248 -3.93842,-0.48734 C 242.38184,248.13403 242,248.22966 242,249.5306 c 0,2.69264 1.97011,5.48041 5.31382,7.51921 4.33458,2.64298 5.35232,2.48409 9.28618,-1.44977 z m -26.01152,-16.85 c 1.83404,-3.63489 6.31588,-8.75 7.66671,-8.75 0.48455,0 -0.0496,1.30697 -1.1871,2.90437 -1.13745,1.5974 -2.05612,3.5099 -2.04148,4.25 0.0146,0.7401 0.73344,0.20772 1.59733,-1.18306 1.31905,-2.12352 7.40667,-6.97131 8.75424,-6.97131 0.22342,0 -0.44527,1.67015 -1.48598,3.71144 -2.48523,4.87464 -2.43857,7.69689 0.0595,3.59993 3.28438,-5.3865 15.29718,-7.26323 20.46608,-3.19737 4.62017,3.63423 3.90361,1.34929 -1.22956,-3.92074 -5.90182,-6.05918 -10.7055,-7.69213 -19.77185,-6.72121 -7.47267,0.80026 -11.00202,3.85717 -12.95381,11.21983 -0.70103,2.64447 -1.59004,5.59562 -1.97558,6.55812 -1.21773,3.04007 0.38959,1.89279 2.10148,-1.5 z m 55.66152,1.26365 c 1.53286,-0.012 1.77375,-1.22341 1.94142,-9.76365 l 0.19141,-9.75 0.55859,9.5 0.55858,9.5 4.5,0.67588 c 7.60877,1.14279 44,0.95626 44,-0.22554 0,-1.68597 -2.87378,-6.77861 -7.82062,-13.85897 l -4.6052,-6.59137 6.71235,6 c 3.6918,3.3 6.71261,6.3375 6.71291,6.75 3.1e-4,0.4125 0.39431,0.75 0.87556,0.75 0.48125,0 1.17569,-1.4625 1.54321,-3.25 1.44753,-7.04038 4.60479,-36.96518 5.23706,-49.63722 l 0.66795,-13.38722 -3.41161,0.7827 c -1.87638,0.43048 -11.73661,0.79447 -21.91161,0.80887 -16.9112,0.0239 -18.90322,-0.16032 -23.19514,-2.14547 -8.36594,-3.86953 -8.51778,-3.72896 -9.26557,8.57834 -0.87287,14.36584 -1.5945,16.50672 -1.019,3.02307 0.51522,-12.071 -0.41572,-15.50492 -4.44173,-16.38414 -3.13884,-0.68548 -14.58097,-5.07453 -18.23285,-6.99389 C 263.10053,152.95223 260,152.53833 260,153.61467 c 0,0.33807 1.19775,2.81533 2.66166,5.50501 1.46391,2.68969 2.38758,5.16442 2.0526,5.4994 -0.33499,0.33498 -2.20773,-0.37898 -4.16166,-1.58657 L 257,160.83688 v 27.96493 c 0,27.44142 0.0388,27.97506 2.07052,28.50638 1.53033,0.40019 3.0305,-0.51773 5.75,-3.51829 4.26267,-4.70321 4.8677,-8.11399 5.0626,-28.5399 0.0708,-7.42208 0.511,-12.25 1.11688,-12.25 0.62646,0 1.00376,6.25671 1.01007,16.75 l 0.0101,16.75 7.23993,-7.5 c 6.5749,-6.81109 12.20861,-11.93556 15.0569,-13.6959 1.90986,-1.18036 -2.91311,4.98541 -10.32207,13.1959 -7.51053,8.32304 -10.98479,13.13568 -10.99116,15.22525 -0.005,1.698 4.40327,-0.0485 8.21205,-3.25337 2.91431,-2.45223 6.78421,-3.33027 6.78421,-1.53927 0,0.51294 -0.88539,1.21363 -1.96753,1.55709 -1.08215,0.34345 -4.68215,2.62285 -8,5.06532 -6.74548,4.96574 -7.48552,7.33004 -4.35146,13.90223 1.58464,3.32305 1.78527,3.43075 3.5,1.87894 1.73556,-1.57066 1.81899,-1.41736 1.81899,3.34216 0,5.65562 0.59611,6.66668 3.47457,5.89321 1.11399,-0.29934 2.81293,-0.5504 3.77543,-0.55791 z M 302,209.69724 c 0,-1.95571 11.88075,-20.98377 15.26439,-24.44724 4.76323,-4.87562 8.2809,-5.81441 6.75574,-1.80296 -0.89698,2.35926 -0.76234,2.45791 3.75299,2.75 l 4.68334,0.30296 -6.2513,3.32094 c -3.54912,1.88543 -10.13165,7.01359 -15.22823,11.86365 C 306.03962,206.38308 302,209.98877 302,209.69724 Z m -122.00124,29.25024 c 0.003,-1.1983 -10.49723,-2.7329 -11.74876,-1.71712 -2.30128,1.86777 -1.29135,2.30818 5.24876,2.28885 3.57432,-0.0106 6.49932,-0.26784 6.5,-0.57173 z m -14.50093,-10.2747 c -0.73458,-1.74503 -2.04433,-4.52278 -2.91055,-6.17278 -0.86623,-1.65 -1.57773,-4.24226 -1.58112,-5.76059 -0.003,-1.51832 -0.87557,-6.69332 -1.93819,-11.5 -1.06261,-4.80667 -2.1264,-10.08941 -2.36398,-11.73941 -0.23757,-1.65 -0.24262,1.05 -0.0112,6 0.51875,11.0965 2.73332,23.26091 5.53068,30.37952 1.85809,4.7284 2.26501,5.17294 3.36196,3.67278 1.00162,-1.36981 0.98433,-2.3331 -0.0876,-4.87952 z m 9.36043,-2.42278 c 2.55313,-2.6125 7.09271,-8.0125 10.08794,-12 2.99524,-3.9875 5.77222,-7.25 6.17106,-7.25 0.39885,0 3.86052,2.8125 7.6926,6.25 7.2628,6.51497 19.73421,16.45421 18.89178,15.05603 C 216.16182,225.7504 205,201.68285 205,200.91825 205,200.41321 205.93817,200 207.08483,200 c 1.14665,0 5.85143,-1.97092 10.45506,-4.37983 l 8.37023,-4.37983 -9.20506,-0.67143 c -5.06278,-0.36929 -10.4501,-0.71257 -11.97182,-0.76284 -3.12395,-0.10321 -2.91073,0.43966 -5.61896,-14.30607 -1.69753,-9.24266 -1.92287,-9.7868 -2.97545,-7.1849 -0.62636,1.5483 -1.14262,3.3483 -1.14725,4 -0.005,0.65169 -1.25657,4.55461 -2.78209,8.67315 -2.70345,7.29869 -2.87411,7.50608 -6.74158,8.19237 -2.18235,0.38727 -8.73041,0.73005 -14.55124,0.76175 -5.82084,0.0317 -10.89226,0.36655 -11.26983,0.74413 -0.37758,0.37757 1.90992,1.77949 5.08333,3.11537 3.17341,1.33589 7.00305,3.30456 8.51033,4.37483 1.50727,1.07028 4.31977,2.20224 6.25,2.51547 1.93022,0.31323 3.5095,0.65328 3.5095,0.75566 0,0.10237 -1.32824,2.7833 -2.95164,5.95761 -1.62341,3.17432 -3.49387,7.41443 -4.15658,9.42247 -0.66271,2.00804 -2.48447,5.7305 -4.04836,8.27214 -4.66982,7.58943 -3.65617,7.97607 3.01484,1.14995 z m 66.0034,-21.03518 C 240.78557,198.77167 240.44335,186.075 240.10117,177 l -0.62215,-16.5 -0.71177,11.5 c -0.39147,6.325 -0.91046,19.48257 -1.15331,29.23905 -0.4289,17.23113 -0.38675,17.70973 1.47226,16.71482 1.73093,-0.92637 1.90058,-2.14363 1.77546,-12.73905 z M 154.66228,178.75 c -0.27741,-0.6875 -0.50439,-0.125 -0.50439,1.25 0,1.375 0.22698,1.9375 0.50439,1.25 0.27741,-0.6875 0.27741,-1.8125 0,-2.5 z M 150,165 c 0,-0.55 -0.45,-1 -1,-1 -0.55,0 -1,0.45 -1,1 0,0.55 0.45,1 1,1 0.55,0 1,-0.45 1,-1 z m 92,-15.37756 c 0,-3.65152 -2.26022,-4.92597 -7.21541,-4.06849 l -4.28459,0.74144 4.32266,1.45986 c 2.37746,0.80292 4.5631,2.08646 4.85699,2.8523 0.8555,2.22941 2.32035,1.6075 2.32035,-0.98511 z m 19.09244,-0.88322 c 4.91555,0.65932 5.00085,-0.25558 0.21043,-2.25714 -4.4124,-1.84362 -6.30287,-1.33776 -6.30287,1.68654 0,1.61347 0.30252,1.92886 1.09244,1.13894 0.61894,-0.61894 2.78614,-0.86528 5,-0.56834 z M 269,149 c 0,-0.55 -0.45,-1 -1,-1 -0.55,0 -1,0.45 -1,1 0,0.55 0.45,1 1,1 0.55,0 1,-0.45 1,-1 z"
       id="path1"
       sodipodi:nodetypes="sssssscsssscccccccsssssscsscsssssssssssssssssssssscscssssssssssscssssssssssssscssssssssssssssssssssssscssscssssccsscccssscssssssscssscsssscsscssssssssssssssssssssssssssssssssssssssssscccssscssssscssssssssssscsssssscssscsssssssssssssscssscsscsscsssssssssssssscsssscsssssssssssssscssssssssssssssscsssssssssssss" /></g></svg>
