<?xml version="1.0" encoding="UTF-8" standalone="no"?>
<!-- Created with Inkscape (http://www.inkscape.org/) -->

<svg
   width="45mm"
   height="45mm"
   viewBox="0 0 45 45"
   version="1.1"
   id="svg1"
   inkscape:version="1.4.2 (2aeb623e1d, 2025-05-12)"
   sodipodi:docname="GhostVoteTokenLaser.svg"
   xml:space="preserve"
   xmlns:inkscape="http://www.inkscape.org/namespaces/inkscape"
   xmlns:sodipodi="http://sodipodi.sourceforge.net/DTD/sodipodi-0.dtd"
   xmlns="http://www.w3.org/2000/svg"
   xmlns:svg="http://www.w3.org/2000/svg"><sodipodi:namedview
     id="namedview1"
     pagecolor="#ffffff"
     bordercolor="#000000"
     borderopacity="0.25"
     inkscape:showpageshadow="2"
     inkscape:pageopacity="0.0"
     inkscape:pagecheckerboard="0"
     inkscape:deskcolor="#d1d1d1"
     inkscape:document-units="mm"
     inkscape:zoom="2.2312299"
     inkscape:cx="47.955613"
     inkscape:cy="72.157512"
     inkscape:window-width="1920"
     inkscape:window-height="1043"
     inkscape:window-x="0"
     inkscape:window-y="0"
     inkscape:window-maximized="1"
     inkscape:current-layer="svg1" /><defs
     id="defs1"><clipPath
       clipPathUnits="userSpaceOnUse"
       id="cp1"><path
         d="m 275.5,535.5 c -143.78,0 -260,-116.22 -260,-260 0,-143.78 116.22,-260 260,-260 143.78,0 260,116.22 260,260 0,143.78 -116.22,260 -260,260 z"
         id="path1-5" /></clipPath></defs><path
     id="path10"
     style="fill:none;fill-opacity:1;stroke:#000000;stroke-width:0.0499763;stroke-dasharray:none;stroke-opacity:1"
     d="m 40.475012,22.500003 c -3e-6,9.927316 -8.047688,17.975006 -17.975011,17.975006 -9.927324,0 -17.9750105,-8.04769 -17.9750129,-17.975006 0,-9.927325 8.0476869,-17.9750121 17.9750129,-17.9750121 9.927324,0 17.975011,8.0476871 17.975011,17.9750121 z M 24.173112,6.5484213 c -0.01889,0.00624 -0.03741,0.012954 -0.05615,0.020087 -1.777555,0.8760023 -0.805751,5.2032427 1.407569,5.1605727 0.133654,-0.662356 0.862724,-0.690909 1.479367,-0.933034 -0.452317,1.426886 0.283995,2.098099 0.645485,3.426512 0.259306,0.95295 0.297207,1.55471 0.297207,2.532654 0.900341,-0.007 1.591025,-0.06693 2.474229,0.15903 0.882708,0.225846 1.443336,0.961748 2.14535,1.076351 0.141412,-0.087 0.27009,-0.188437 0.392504,-0.296635 -0.711533,-0.784574 -1.899095,-1.705883 -3.066943,-1.026823 0.222446,-0.925335 0.591078,-1.497172 1.559859,-1.520616 l -0.231004,-1.732438 -1.675348,-0.211807 c 0.04588,0.967289 -0.555062,1.394291 -1.385943,1.73243 L 28.481411,13.221448 27.235324,9.9090797 C 25.781769,11.673135 23.721818,10.370427 23.909418,8.6979501 24.032548,7.6002385 25.251781,7.4386881 25.618391,8.4669614 24.46546,8.7752701 25.543927,9.94471 26.286768,9.3737779 26.98328,8.8384553 26.465204,7.1377614 26.009089,6.8493512 25.403434,6.7136013 24.790412,6.613121 24.173115,6.5484293 Z m -3.519678,0.026835 c -0.701351,0.078731 -1.396736,0.2036681 -2.081626,0.3739975 -0.528719,0.9858654 -0.570722,2.2869004 -0.101511,2.4716454 0.798544,0.3144155 1.792202,-0.9290212 0.686496,-0.941576 0.542168,-0.918084 2.026292,-0.9398017 1.681402,0.2735013 -0.913388,3.2132475 -3.25506,1.5939465 -3.25506,1.5939465 -0.199019,1.413535 -1.118328,2.12539 -1.252882,2.56696 0.04226,0.193456 0.2066,1.030716 0.360334,1.695166 0.08741,-0.307375 0.178203,-0.666906 0.27009,-0.901185 0.355957,-0.954871 1.467438,-1.608858 0.804029,-2.93071 0.657656,0.195471 1.112828,0.555998 1.154954,1.270445 2.564028,-0.05467 3.741129,-4.7124876 1.733786,-5.4722635 z m 6.886186,0.6979285 c 0.576726,1.4211699 1.184497,3.9676092 1.603852,4.3980682 1.155867,1.186471 3.962855,0.798958 3.867067,-1.286685 -0.49483,-0.4244056 -1.015083,-0.8182322 -1.557845,-1.1793175 -0.191714,0.066456 -0.362266,0.2034042 -0.482508,0.4292745 -0.401429,0.754106 0.501917,0.908452 1.000436,0.680566 -0.109765,2.003565 -2.49187,0.859115 -2.084325,-0.6929737 C 30.004162,9.1732308 30.237202,8.8418305 30.533475,8.6176202 29.584119,8.0682915 28.580917,7.6177838 27.53962,7.2731848 Z M 17.185864,7.3945426 c -0.969445,0.3396659 -1.6815,0.6292668 -2.568316,1.1476606 0.224963,0.2411319 0.286009,0.6132712 0.457239,1.0529968 0.73734,1.893501 -2.182751,2.597555 -2.391885,0.719891 0.574197,0.204094 1.57993,0.03226 0.96975,-0.7913219 -0.07095,-0.095773 -0.148256,-0.1712603 -0.229633,-0.229639 -0.608101,0.4121283 -1.187167,0.8655589 -1.733107,1.3570679 0.625443,0.798663 0.986462,1.201249 1.456326,1.795368 0.02035,-0.03132 0.04916,-0.05327 0.08933,-0.06157 0.115624,-0.02389 0.220366,0.05304 0.305653,0.145049 0.17181,0.02257 0.347559,0.02869 0.523339,0.0183 -0.01318,-0.05567 -0.02401,-0.09929 -0.06455,-0.277239 -0.02599,-0.114316 -0.09727,-0.454231 0.08798,-0.483405 0.185656,-0.02924 0.401107,0.25624 0.504615,0.376944 0.06751,0.07869 0.127725,0.16197 0.183163,0.248353 0.228301,-0.07514 0.44728,-0.180574 0.647635,-0.31603 0.0015,-0.02529 0.0046,-0.04964 0.0062,-0.05684 6.1e-5,-3.25e-4 1.68e-4,-4.41e-4 2.29e-4,-7.59e-4 v -2.32e-4 c 9.2e-5,-4.35e-4 2.27e-4,-7.61e-4 2.22e-4,-7.61e-4 0.04146,-0.224916 0.157246,-0.312989 0.325962,-0.211593 0.0765,-0.07467 0.14846,-0.155176 0.21497,-0.241365 1.01477,-1.315005 0.741671,-2.8434173 1.214959,-4.1905431 z m 5.232727,3.4650524 -0.636605,0.602529 0.657052,0.801282 0.684683,-0.780835 z m 11.830034,0.654953 c -1.589372,0.115312 -2.478514,3.77905 -1.083341,5.034349 0.137334,0.17313 0.274129,0.321498 0.409871,0.448003 0.389623,-0.436726 0.569634,-0.655346 1.055023,-0.944489 0.06263,0.509763 -0.436504,1.053895 -0.874112,1.477083 0.04352,0.02932 0.08691,0.0563 0.130155,0.08166 0.426559,-0.27834 0.825884,-0.622481 1.169397,-0.972911 0.286039,-0.291819 0.528565,-0.732299 0.959376,-0.798774 -0.146113,0.809639 -0.943458,1.427343 -1.491288,1.970646 l 1.810925,-1.06518 c -0.04374,0.395215 -0.340379,0.749282 -0.713268,1.042613 0.68992,-0.191183 1.307377,-0.576152 1.810256,-0.597098 0.07186,-0.0031 0.105222,-0.0228 0.172252,-0.0093 -0.373339,-1.067583 -0.822371,-2.068544 -1.411351,-3.03404 -0.333812,0.503844 -0.883427,0.840604 -1.565497,0.764256 -1.509242,-0.168949 -1.738258,-2.003551 -0.115502,-2.170948 -0.255048,0.533834 -0.141062,1.464294 0.680341,1.018246 0.232986,-0.126516 0.369779,-0.294744 0.431536,-0.480025 -0.380395,-0.54131 -0.752229,-1.079417 -1.196506,-1.569652 -0.09472,-0.117995 -0.178267,-0.194439 -0.178267,-0.194439 z m -23.611708,0.214866 c -0.507024,0.550553 -0.9748852,1.135927 -1.4001568,1.751825 0.058068,0.08128 0.1338908,0.158193 0.2294126,0.228964 0.8235672,0.610174 0.9954292,-0.395331 0.7913242,-0.96953 1.91272,0.213043 1.349958,2.827434 -0.7643953,2.453971 -0.4673669,-0.06794 -0.8119081,-0.234228 -1.0509602,-0.462659 -0.4716112,0.82725 -0.6817034,1.410042 -0.9993974,2.307731 0.08083,-0.03311 0.1643332,-0.0639 0.2542313,-0.08933 1.0162406,-0.287864 3.0838076,-0.234293 4.4246846,-0.454541 0.0038,0.01745 0.01242,0.03831 0.01714,0.05638 -0.09376,-0.356363 -0.03078,-0.600667 0.600716,-0.605902 -0.148589,-0.258309 -0.901355,-1.396176 -0.0015,-1.029763 0.09093,0.03707 0.179133,0.08218 0.267758,0.124288 -0.08327,-0.13606 -0.721248,-1.242434 -0.258506,-1.227808 0.04611,0.0015 0.0949,0.01302 0.145495,0.03265 -0.641752,-0.876664 -1.429275,-1.481004 -2.256023,-2.116387 z m 9.89898,6.973255 c 0.03162,-0.03583 0.06043,-0.06731 0.0864,-0.09316 0.637453,-0.634161 1.710999,-0.969578 2.444577,-0.25648 0.348976,0.339216 0.615233,1.018192 0.751165,1.481364 -0.781418,-0.133951 -1.29674,-0.02854 -1.383239,0.887645 0.01737,-0.02149 0.03041,-0.03474 0.03658,-0.03567 3.96e-4,-6.2e-5 0.0015,-3.1e-5 0.0015,0 h 2.28e-4 2.29e-4 l 2.2e-4,2.32e-4 h 2.3e-4 l 2.28e-4,2.18e-4 v 2.33e-4 l 2.2e-4,2.25e-4 2.29e-4,2.24e-4 2.29e-4,2.26e-4 c 0.0022,0.0046 -0.0022,0.02125 -0.01601,0.05235 0.643778,0.0038 1.269207,0.130935 1.891907,-0.09068 0.547831,-0.194974 0.998121,-0.585653 1.50099,-0.863737 -0.01425,0.0078 -0.02919,0.01403 -0.04328,0.0221 0.35572,-0.486669 0.6433,-1.033199 0.849523,-1.638812 l 0.188581,-1.061799 c 0.192781,-1.675345 -0.687694,-4.609597 -2.535916,-4.585292 v -8e-6 c -0.426513,0.0054 -1.210741,0.427198 -1.378461,0.522297 -0.140022,0.182402 -0.05337,2.06536 0.215566,2.277119 0.396058,0.311844 0.795826,0.284025 0.976519,0.04359 0.412233,-0.548549 -0.159505,-0.826495 -0.610769,-0.617221 -0.203891,-0.990732 0.921243,-1.490375 1.567711,-0.710569 1.312485,1.583178 -1.052482,2.499944 -2.350061,2.553305 0,0 0.0015,4.35e-4 0.003,0.0015 l 2.29e-4,2.33e-4 2.21e-4,2.18e-4 v 2.31e-4 2.25e-4 2.25e-4 2.25e-4 h -2.21e-4 v 2.25e-4 c -0.0076,0.0062 -0.09409,0.01845 -0.696132,0.01644 -1.27922,-0.03256 -3.832083,-0.968002 -2.376908,-2.572708 0.688968,-0.759758 1.698229,-0.321565 1.568438,0.667033 -1.012446,-0.435742 -1.070539,0.728635 -0.106337,0.79976 1.028451,0.07586 0.780223,-2.255814 0.555689,-2.451205 -1.167026,-1.015548 -4.33903,1.032641 -4.375288,3.139579 0.326937,0.388111 0.767754,0.648786 0.879073,1.192174 0.01288,0.06289 0.01402,0.06631 0.02309,0.131881 l 0.06759,0.712238 c 0.04412,0.598687 0.113353,1.201821 0.593492,1.586706 0.328424,0.263272 0.764014,-0.08921 1.135553,-0.491082 z m -6.273278,-5.523721 c 0.0086,0.02489 0.01485,0.05033 0.0237,0.07514 l -0.19445,0.01217 c 0.131285,0.186227 0.257585,0.37623 0.40536,0.549499 -0.08068,-0.209159 -0.159487,-0.422388 -0.234602,-0.636796 z m -1.031566,0.03808 c 0.01166,0.03373 0.02378,0.06739 0.03635,0.100613 l -0.0068,4.34e-4 c 0,0 0.0038,0.0046 0.01219,0.01333 0.0091,0.02412 0.02317,0.0456 0.03269,0.06949 -0.02461,-0.06134 -0.05236,-0.120845 -0.07422,-0.183839 z m 25.011734,6.337133 c -0.239029,-0.947793 -2.474416,-1.108479 -3.199603,-0.983489 -0.249284,0.320568 -0.56062,0.460016 -0.945595,0.571129 v 0.05327 h 0.372881 c -0.310775,0.586613 -1.104089,0.838169 -1.704462,1.011933 v 0.05327 h 0.479353 c -0.01866,0.118573 -0.07468,0.224032 -0.155418,0.316936 0.272674,0.210446 0.570806,0.426771 0.854035,0.714176 0.512039,0.613403 4.183273,0.751128 4.340767,-0.928243 0.02537,-0.14166 0.03147,-0.286164 0.02233,-0.430624 -0.01989,-0.126126 -0.04123,-0.252012 -0.06409,-0.377626 -5.3e-5,-2.25e-4 -2.43e-4,-7.61e-4 -2.43e-4,-7.61e-4 z m -26.266394,-2.27065 c -0.771702,0.175944 -1.653687,0.277177 -2.5273663,0.307917 v 0.115486 c 1.2083283,0.860767 1.2528843,3.310172 -0.6929685,3.201169 -1.2116966,-0.06794 -1.3019146,-1.304418 -0.3464923,-1.815221 0.049073,1.494996 1.6924371,0.49948 0.9537471,-0.564847 -0.7469445,-1.076207 -1.7960215,-0.740837 -2.4184171,0.06204 -0.1787207,0.71084 -0.3085038,1.433104 -0.3884419,2.161704 0.8989778,2.248816 4.007574,0.436782 5.479713,-0.787948 0.03886,-0.108872 0.07202,-0.211539 0.06927,-0.289182 -0.01166,-0.325661 -0.162429,-0.406234 -0.0046,-0.745761 -0.412942,-0.214703 -0.364301,-0.685296 0.05327,-0.852004 -0.158786,-0.243055 -0.290909,-0.572105 -0.177295,-0.793353 z m 16.500948,0.590104 c -0.341264,0.01148 -0.354866,-1.2e-4 -0.685072,0.02594 -0.0827,0.560014 -0.257227,1.041665 -0.496492,1.47008 1.461866,-0.321373 2.616957,-0.336339 4.021349,-0.812073 -0.829822,-0.620931 -1.841696,-0.717479 -2.839785,-0.683955 z m 4.071871,3.13327 c -0.09197,0.0352 -0.37463,0.06729 -0.635431,0.105789 v 0.05328 c 0.464112,0 0.905692,0.165095 0.318738,0.556719 -0.301226,0.200985 -0.863033,0.365662 -0.795615,0.348065 l 1.288412,1.257592 1.317063,-0.970833 z M 12.517326,20.894504 c -4.5e-5,0.0023 -4.11e-4,0.0046 -4.34e-4,0.007 l -1.816597,1.422311 1.211148,1.087183 h 0.115495 l 0.812304,-1.05366 c -0.09717,-0.313462 -0.112545,-0.641783 0.0068,-0.978108 -0.247084,-0.131345 -0.334483,-0.284963 -0.328897,-0.484537 z m 18.197088,1.796169 c -0.601386,0.204351 -1.243267,0.186839 -1.752531,0.618176 -0.293948,0.248972 -0.624644,0.263505 -0.925092,0.463559 -0.514373,0.342508 -0.618626,0.640587 -1.201374,0.976199 0.34669,0.505738 0.783918,1.741013 0.948512,1.893686 0.306204,0.284028 0.948737,0.158645 1.338895,0.09708 1.458077,-0.230068 4.098785,-1.235545 2.428173,-3.236731 -0.130497,-0.156318 -0.488547,-0.657247 -0.836583,-0.81197 z m -22.2337867,0.04093 c -0.8238952,0.01652 -1.5695202,0.419488 -1.9401842,1.363381 0.079426,0.794617 0.1866218,1.456325 0.3833652,2.230292 0.1760467,0.158099 0.3894181,0.284661 0.6458284,0.334299 0.4196495,0.08124 2.0255765,-0.0437 1.7614611,-1.18684 C 9.148399,24.681957 8.34173,24.863568 8.5250694,25.676061 c -1.6995153,-0.351155 -0.393917,-1.924258 0.539064,-1.952417 2.2506466,0.260285 1.9277716,2.300237 1.0246586,3.443042 0,0 1.749827,0.439766 1.913436,0.471051 0.424616,-0.450938 0.667988,-0.424725 0.916558,-0.573232 -0.672334,-0.247001 -1.290233,-0.406179 -2.199376,-0.117982 0.242122,-0.616642 0.455608,-1.038244 1.117958,-1.171894 -0.07831,-1.713857 -2.3261094,-3.133779 -3.3568095,-3.043008 z m 27.6086397,0.229988 c -0.817608,-0.03319 -1.504627,0.257085 -2.096413,0.703847 -0.75928,0.573221 -0.930709,1.258868 -1.14488,2.125854 0.742136,0.08271 0.867718,0.529415 1.201567,1.15496 -1.461599,-0.386693 -2.216897,0.245087 -3.595716,0.613199 -0.925733,0.247294 -1.63238,0.257105 -2.582499,0.257105 0,0.898166 -0.02528,1.756342 -0.246611,2.634885 -0.363173,1.441572 -1.085165,2.127486 -0.735884,3.655504 -0.618753,-0.330907 -1.057498,-0.65728 -1.154956,-1.385942 -0.869835,0.423799 -1.946876,0.681365 -2.334272,1.165783 -0.533509,0.667123 -0.18289,4.126504 0.948329,4.432359 0.106983,0.02895 0.219908,0.04038 0.332279,0.05277 0.436702,-0.05398 0.871004,-0.125788 1.301801,-0.215418 5.3e-5,-2.4e-5 1.66e-4,1.6e-5 2.27e-4,0 0.13985,-0.0766 0.269001,-0.173941 0.383033,-0.293477 0.623835,-0.653993 0.598482,-2.106847 -0.289873,-2.533237 -1.100522,-0.528205 -1.717881,1.074186 -0.457018,0.971795 -0.286953,1.010264 -1.525222,0.948062 -1.70559,-0.115721 -0.347604,-2.050123 2.328357,-2.589666 3.231923,-1.318574 l 0.103048,0.236496 c 0.04435,-2.137873 1.55793,-3.435457 0.911519,-5.154448 0.885947,0.255806 1.505742,0.67372 1.410838,1.645298 l 1.823022,-0.143859 0.230996,-1.847915 c -0.975205,0.04902 -1.470622,-0.479244 -1.732428,-1.385942 l 1.745455,0.266466 3.2796,-1.176288 c 0,0 -2.247277,-3.233524 0.851002,-3.432928 0.112469,-4.34e-4 0.232597,0.07458 0.360688,0.0963 1.096987,0.18532 1.299272,1.314002 0.264133,1.611713 -0.0072,-0.823896 -1.275388,-0.555479 -0.665791,0.509269 0.459793,0.803092 1.476165,0.906358 2.078824,0.331493 0.169919,-0.162078 0.292593,-0.353051 0.376943,-0.560566 0.05822,-0.271423 0.109353,-0.54431 0.153391,-0.818393 0.0022,-0.175689 -0.01151,-0.352012 -0.03764,-0.52311 -0.179239,-1.172655 -1.144783,-1.516472 -2.195993,-1.559249 z m -22.807939,0.352222 c -1.049894,1.575028 -0.48534,2.577647 0.682625,3.278057 0.704497,-0.290314 1.41359,-0.571849 1.961611,-1.037649 0.287595,-0.244459 0.409376,-0.660753 0.595526,-0.979682 -0.339343,0.03583 -0.633468,0.01574 -0.79877,-0.319417 -0.286541,0.135524 -0.566576,0.397463 -0.905462,0.356866 -0.467855,-0.05607 -0.628523,-0.38297 -0.914487,-0.690042 -0.256273,-0.275176 -0.401934,-0.26704 -0.621043,-0.608133 z M 25.9084,25.237122 c -0.436252,0.176813 -0.683227,0.222913 -1.13658,0.329218 0.715685,0.525327 1.212682,0.795332 1.755422,0.980139 -0.15548,-0.539689 -0.311405,-0.84254 -0.618842,-1.309357 z m -3.205964,0.786877 c 0.0046,0.447026 0.04924,1.645581 0.05083,1.992558 0.157467,0.01695 0.650264,0.109924 0.856555,0.155023 0.412575,0.09022 0.874837,0.250081 1.194893,0.533243 1.825878,1.615416 -1.223927,3.554336 -1.380754,1.475499 0.425758,0.0966 1.297181,-0.004 0.833054,-0.66095 -0.329026,-0.465723 -0.94087,-0.495805 -1.145987,-0.271215 -0.178367,0.195299 -0.213532,2.218826 0.125103,2.442456 1.283477,0.776711 3.285504,-0.511525 3.473721,-2.357169 0.04588,-0.449666 0.248459,-1.153924 -0.03956,-1.544539 -0.341241,-0.462799 -1.358978,-0.776308 -1.860393,-1.114925 -0.386727,-0.261187 -0.724335,-0.559689 -1.030887,-0.884265 -0.234564,0.05088 -0.470331,0.103482 -0.706731,0.162412 z m -1.011934,0.05529 c -0.521397,-0.02598 -1.008286,-0.155315 -1.174671,-0.492616 -0.215206,0.20335 -0.774147,0.666087 -0.844331,1.118425 -0.09301,0.599417 0.13924,1.29141 0.376713,1.96521 0.294209,-0.190254 0.640236,-0.341022 0.986172,-0.444837 0.172967,-0.0519 0.750015,-0.170391 0.916444,-0.197882 -0.003,-0.366658 -0.05738,-1.635876 -0.04793,-1.944167 z m -14.3531022,1.52811 c 0.3295443,1.00241 0.603459,1.66236 1.1230171,2.580772 0.2406217,-0.276684 0.5912664,-0.486057 1.0658506,-0.578149 0.097624,-0.01903 0.1928868,-0.02783 0.2851318,-0.02751 1.3837117,0.0048 2.2543347,2.346677 0.4460977,2.445742 0.244151,-0.520049 0.08976,-1.38132 -0.6803409,-0.98442 -0.1947163,0.100352 -0.3242404,0.234792 -0.399499,0.387088 0.3875655,0.57224 0.8117017,1.118813 1.2697719,1.636343 1.197904,-0.650171 1.726866,-1.019036 2.546317,-2.436915 -0.356093,-0.139446 -0.479278,-0.479428 -0.360696,-0.94268 -0.49128,-0.07396 -0.362273,-0.277636 -0.538009,-0.630029 -0.06249,-0.125332 -0.143026,-0.24051 -0.215199,-0.3528 C 10.415895,28.255308 8.6603003,28.107826 7.3373998,27.60741 Z m 30.3660382,0.0023 c -0.194396,0.118773 -0.408179,0.216343 -0.651018,0.28535 -1.370086,0.389391 -3.38699,0.852211 -3.926386,1.23028 -1.073398,1.034133 -0.470833,3.705952 1.4261,3.923968 0.381705,-0.424926 0.740428,-0.869954 1.074651,-1.333142 -0.03238,-0.27922 -0.197224,-0.538001 -0.542511,-0.701555 -0.769287,-0.364403 -0.811131,0.55963 -0.572742,1.013742 -1.809173,-0.09907 -1.148667,-2.082171 0.154527,-2.147268 0.134812,-0.0072 0.276406,0.008 0.422955,0.04582 0.545537,0.143404 0.925603,0.439503 1.158338,0.808016 0.596257,-0.986443 1.084443,-2.034281 1.456097,-3.125355 z m -17.19483,1.843642 c -0.06737,0.0758 -0.112043,0.145739 -0.137594,0.210012 0.04062,0.08122 0.04718,0.192621 0.08323,0.356639 0.177752,0.157109 0.532398,0.211012 0.775313,0.160604 0.145649,0.892712 -0.687153,1.196559 -1.314213,0.796517 -0.01258,-0.004 -0.02545,-0.0072 -0.03856,-0.01087 -0.167451,0.579924 -0.409634,0.452801 -0.847494,0.644709 -0.05936,0.02599 -0.112416,0.05421 -0.160836,0.08323 0.86627,0.619634 2.586515,0.186551 2.882063,-0.162235 0.156126,-0.184249 0.32264,-2.372689 -0.482423,-2.368763 0,0 -0.51883,0.01951 -0.759489,0.290158 z m -6.345474,2.008534 c -1.238839,0.599404 -1.786721,1.390172 -2.466456,2.851294 0.515261,0.469473 1.060585,0.904859 1.632494,1.303381 0.08367,-0.04278 0.165812,-0.09947 0.244982,-0.173237 0.817751,-0.762015 -0.250688,-1.106059 -0.891252,-0.989395 0.126316,-0.695469 0.821513,-0.831405 1.248789,-0.846638 0.624491,-0.02223 1.300694,0.574751 1.241126,1.477755 -0.04168,0.631932 -0.273291,1.063591 -0.606347,1.327297 0.912946,0.540528 1.460677,0.795127 2.462217,1.145233 -0.474912,-1.18056 -0.611351,-3.467602 -0.962139,-5.220233 -0.08404,-0.0511 -0.163761,-0.132018 -0.237755,-0.252649 -0.539334,0.207694 -0.517234,0.01703 -0.969756,-0.138046 -0.373537,-0.128027 -0.815154,0.145467 -0.695903,-0.484762 z m 3.644196,0.574088 c -0.153254,0.131801 -0.332585,0.07357 -0.59372,0.133544 -0.07853,0.01807 -0.158863,0.04726 -0.239113,0.07604 0.220161,0.922162 0.395475,1.577627 0.521866,2.556322 0.404331,-0.304815 0.759925,-0.544141 1.282897,-0.633155 1.105963,-0.188255 2.486228,0.974825 2.000268,2.246845 -0.343642,0.899509 -1.479766,0.829342 -1.628889,-0.11369 1.25283,0.04662 0.479245,-1.553486 -0.572285,-0.930726 -1.434936,0.849812 -0.655903,2.283531 0.52266,2.803692 0.368629,0.07293 0.739704,0.132905 1.11254,0.179795 0.03072,-0.004 0.0615,-0.0072 0.09204,-0.01215 1.867082,-0.337 1.491262,-3.270775 1.171874,-4.235205 -0.396975,-0.750012 -1.526598,-0.948797 -2.492111,-1.199239 -0.136541,0.753371 -0.521245,0.939067 -1.220661,1.199239 0.371981,-0.840433 0.264839,-1.437669 0.03833,-2.06741 0.0015,-7.6e-4 0.003,-0.0024 0.0046,-0.004 z m 4.577175,0.360237 -0.609704,0.672512 0.657051,0.731653 0.637344,-0.806625 z m 8.277287,0.131921 c -0.746014,-0.0072 -1.581284,0.470033 -1.764332,0.856089 -0.429476,0.905778 -0.323713,2.87745 -1.32716,4.308546 1.068502,-0.357046 1.859925,-0.726103 2.830221,-1.298543 -0.350858,-0.232769 -0.614017,-0.745374 -0.73647,-1.284662 -0.225167,-0.991681 0.813789,-1.648345 1.490204,-1.647034 0.462818,7.68e-4 0.860763,0.327437 0.816367,1.106899 -0.454116,-0.238391 -1.378142,-0.196539 -1.013742,0.572744 0.148895,0.314346 0.385608,0.476773 0.6456,0.525598 0.483613,-0.329308 0.948847,-0.684819 1.393619,-1.064958 0.222316,-1.490085 -1.098744,-2.063852 -2.334307,-2.074679 z"
     sodipodi:nodetypes="sssssscccscccccccccccscscssccscscccccccccsccccsccccscscccscccscccsccccscccccccccccccscccccccscscccccsccccccccccccccccsccscccccccccccsccccsscsscscccccccccccscsscsccsccccccsccccccccccccccccccccscccccccsccccccccscccsscccscccccccccccccssscsssscccssccccccccccsccccsccsscsccscsccccccccccccsscccccccscccscccccccscccsccsscccccscccccsccscsccccsccscccccsccccccscccccccscscccccssccccsccccccscscccccccccccccccsccsccsccc"
     inkscape:label="HolubiceToken" /><style
     id="style1">
		tspan { white-space:pre } 
		.s0 { fill: none;stroke: #ff0000;stroke-miterlimit:100 } 
	</style></svg>
