<?xml version="1.0" encoding="UTF-8" standalone="no"?>
<!-- Created with Inkscape (http://www.inkscape.org/) -->

<svg
   width="50mm"
   height="60mm"
   viewBox="0 0 50 60"
   version="1.1"
   id="svg1"
   inkscape:version="1.4.2 (2aeb623e1d, 2025-05-12)"
   sodipodi:docname="Mrtvy1TokenLaser.svg"
   xml:space="preserve"
   xmlns:inkscape="http://www.inkscape.org/namespaces/inkscape"
   xmlns:sodipodi="http://sodipodi.sourceforge.net/DTD/sodipodi-0.dtd"
   xmlns="http://www.w3.org/2000/svg"
   xmlns:svg="http://www.w3.org/2000/svg"><sodipodi:namedview
     id="namedview1"
     pagecolor="#ffffff"
     bordercolor="#000000"
     borderopacity="0.25"
     inkscape:showpageshadow="2"
     inkscape:pageopacity="0.0"
     inkscape:pagecheckerboard="0"
     inkscape:deskcolor="#d1d1d1"
     inkscape:document-units="mm"
     inkscape:zoom="0.99343942"
     inkscape:cx="34.224533"
     inkscape:cy="272.78966"
     inkscape:window-width="1920"
     inkscape:window-height="1043"
     inkscape:window-x="0"
     inkscape:window-y="0"
     inkscape:window-maximized="1"
     inkscape:current-layer="layer8"
     showgrid="false" /><defs
     id="defs1"><clipPath
       clipPathUnits="userSpaceOnUse"
       id="cp1"><path
         d="m 275.5,535.5 c -143.78,0 -260,-116.22 -260,-260 0,-143.78 116.22,-260 260,-260 143.78,0 260,116.22 260,260 0,143.78 -116.22,260 -260,260 z"
         id="path1-5" /></clipPath></defs><style
     id="style1">
		tspan { white-space:pre } 
		.s0 { fill: none;stroke: #ff0000;stroke-miterlimit:100 } 
	</style><g
     inkscape:groupmode="layer"
     id="layer8"
     inkscape:label="Banner5"
     transform="translate(3.4531622,-1.0912023)"><path
       id="rect1-2-8"
       style="display:inline;fill:none;fill-opacity:1;stroke:#000000;stroke-width:0.05;stroke-dasharray:none;stroke-opacity:1"
       d="m 8.5142839,12.210489 v 42.01138 l 13.0322801,-10.50323 13.0328,10.50323 v -42.01138 z m 2.5290501,2.72601 h 6.90655 c 0.75246,0.35045 1.37948,0.90844 1.77871,1.75123 -0.0341,0.006 -0.0683,0.0122 -0.10232,0.0186 -2.70646,-1.63957 -6.87393,-1.69253 -8.58294,0.70952 z m 9.80095,0 h 1.47588 c -0.16776,0.4303 -0.36668,0.749 -0.60203,1.1523 -0.37306,-0.32066 -0.65748,-0.6533 -0.87385,-1.1523 z m 4.48345,0 h 6.72207 v 2.18893 c -0.17129,-0.20379 -0.3668,-0.38871 -0.58653,-0.54984 -2.59607,-1.9036 -5.19586,-1.03703 -7.88272,0.078 -0.0168,-0.003 -0.0334,-0.007 -0.0501,-0.01 0.40097,-0.81438 1.04846,-1.36392 1.79731,-1.70731 z m -9.28161,2.23027 c 0.45296,0.007 0.88182,0.1689 1.30483,0.30386 -0.73101,0.37926 -1.39275,0.88706 -1.93786,1.54823 -0.37199,0.45122 -0.70399,0.93823 -0.96583,1.46192 -0.38923,0.77845 -0.61593,1.5846 -0.72709,2.40554 -0.64357,-0.3742 -1.32044,-0.96106 -1.57355,-1.62264 -0.84403,-2.20609 1.2159,-3.79903 3.19309,-4.0566 0.23932,-0.0312 0.47484,-0.0439 0.70641,-0.0403 z m 10.91768,0.0222 c 0.82227,-0.0347 1.63732,0.0851 2.33526,0.35812 2.05753,0.80491 2.48419,3.11435 1.22938,4.79764 -0.26237,0.35197 -0.743,0.62761 -1.18028,0.78755 -0.006,-0.0421 -0.0108,-0.0844 -0.016,-0.12661 -0.12208,-0.98108 -0.28762,-2.04895 -0.77463,-2.92385 -0.54547,-0.97991 -1.37025,-1.59285 -2.28979,-2.19315 -0.21055,-0.13746 -0.42301,-0.27108 -0.63923,-0.39791 0.43371,-0.1271 0.89012,-0.28302 1.33531,-0.30179 z m -15.92047,5.35626 c 0.45249,0.66962 1.03299,1.26553 1.52807,1.96836 -0.5246,0.001 -1.03641,0.0688 -1.52807,0.19379 z m 21.00647,0.5209 v 1.65262 c -0.45878,-0.12768 -0.93517,-0.23294 -1.42679,-0.32557 v -0.1204 c 0.57537,-0.26832 1.05359,-0.69074 1.42679,-1.20665 z m -16.97157,2.99569 c 0,0.93057 -0.17831,1.93588 -0.4806,2.81739 -0.1512,0.44092 -0.5884,0.91078 -0.60564,1.38235 -0.0138,0.37812 0.25384,1.04141 0.5302,1.29656 0.10958,0.10116 0.24162,0.16635 0.37,0.23978 -1.28578,0.50978 -3.1559,0.83825 -3.22616,-0.90641 -0.0527,-1.30897 1.35031,-2.30543 2.41794,-2.27893 0.0507,10e-4 0.083,-0.037 0.10129,-0.10077 0.005,0.0251 0.0103,0.0499 0.0155,0.0749 h 0.0269 c 0.13282,-0.64385 0.25101,-1.32146 0.47697,-1.93993 0.0714,-0.19529 0.13754,-0.54766 0.37363,-0.58497 z m 15.16341,0.0362 c 0.16833,-0.006 0.3362,-0.004 0.50333,0.004 0.44567,0.0216 0.88488,0.0938 1.30483,0.22376 v 1.82107 c -0.32281,-0.22353 -0.71711,-0.38594 -1.18649,-0.46508 -0.56415,-0.0951 -1.18237,-0.15961 -1.66088,-0.0806 0.0713,-0.40865 -0.0196,-0.83416 0.0202,-1.24592 0.005,-0.0473 0.01,-0.0948 0.0155,-0.14211 0.31619,-0.055 0.70474,-0.10436 1.00356,-0.11472 z m -17.15916,0.005 c 0.18826,0.006 0.46763,0.0289 0.68833,0.0548 0.0547,0.41702 0.1226,0.83336 0.19792,1.24695 -0.52459,-0.088 -1.12971,0.14899 -1.75803,0.31109 -0.46577,0.12007 -0.85447,0.3315 -1.16737,0.60668 v -1.91202 c 0.644,-0.23466 1.33882,-0.33078 2.03915,-0.30748 z m 15.03423,0.29404 c 0.10428,-0.003 0.12635,0.26391 0.13797,0.33021 0.0682,0.38924 0.12667,0.77938 0.19069,1.16944 0.0584,0.35602 0.16267,0.70885 0.21497,1.06298 h 0.0796 c 0.003,-0.0184 0.007,-0.0365 0.0109,-0.0548 0.0146,0.0153 0.0344,0.021 0.061,0.0155 0.19816,-0.0413 0.65824,0.1873 0.87385,0.1943 0.64681,0.0224 1.31455,0.27479 1.6583,0.81907 0.72152,1.14232 -0.13922,2.50382 -1.44332,2.46652 -0.45457,-0.013 -0.94268,-0.35261 -1.37873,-0.56793 0.16654,-0.27063 0.29592,-0.56973 0.40928,-0.82579 0.18146,-0.40988 -0.28995,-0.85957 -0.43564,-1.22266 -0.3214,-0.801 -0.53602,-1.71227 -0.52606,-2.57813 0.002,-0.20038 0.0202,-0.41302 0.0491,-0.61134 0.008,-0.0565 0.0135,-0.18155 0.0879,-0.19585 0.004,-6.8e-4 0.007,-0.001 0.0103,-0.002 z m -10.47533,0.11731 c 0.34089,0.003 0.69998,0.14566 1.02474,0.2129 0.25971,0.0538 0.56151,0.0949 0.76946,0.2744 0.21514,0.1857 0.3191,0.49358 0.45734,0.73536 0.18046,0.31562 0.39338,0.5976 0.29455,0.9834 -0.20897,0.81577 -1.38949,1.2059 -2.02623,1.63039 -0.27718,0.18478 -0.58897,0.42311 -0.93069,0.46457 -1.12458,0.13646 -2.27613,-0.92248 -2.08773,-2.09496 0.18154,-1.12979 1.24703,-2.06245 2.35386,-2.19831 0.0478,-0.006 0.096,-0.008 0.1447,-0.008 z m 6.73705,0.0754 c 0.68547,-0.002 1.42353,0.22127 2.04897,0.42995 0.22643,0.0756 0.61584,0.16288 0.77308,0.3514 0.14999,0.17985 0.23632,0.43715 0.30128,0.65835 0.18778,0.63944 0.14441,1.43144 -0.3328,1.94045 -0.24789,0.2644 -0.58117,0.43156 -0.90124,0.59118 -0.26651,0.13292 -0.57547,0.28269 -0.87695,0.30748 -0.4859,0.04 -0.96146,-0.42732 -1.30224,-0.71055 -0.44195,-0.36732 -1.08452,-0.73965 -1.3317,-1.27796 -0.41505,-0.9039 0.37585,-2.17329 1.3317,-2.27531 0.0953,-0.0102 0.19198,-0.0147 0.2899,-0.015 z m -2.78846,3.48661 h 0.0264 c 0.37438,0.6117 0.82451,1.39471 0.87488,2.12597 0.0316,0.45964 -0.17523,0.89288 -0.68885,0.90382 -0.19095,-0.71428 -0.29249,-1.4128 -0.29249,-2.15284 0,-0.26608 -0.0264,-0.63 0.0801,-0.87695 z m -0.18603,0.13281 c -9e-5,0.90077 8.7e-4,2.00681 -0.4253,2.8174 -1.12488,-0.16861 -0.35515,-1.43216 -0.12816,-2.02004 0.10708,-0.27733 0.1993,-0.75792 0.55346,-0.79736 z m 4.75061,1.96525 c 0.0285,1e-4 0.0575,0.002 0.0868,0.004 0.25885,0.0213 0.42422,0.24052 0.63769,0.35967 0.0614,0.0342 0.12921,0.0585 0.19998,0.0739 0.0541,0.04 0.10714,0.0773 0.15968,0.1111 1.33818,0.86029 3.32991,1.88368 4.70308,0.66973 0.0367,-0.0325 0.0728,-0.0652 0.108,-0.0992 v 1.72238 c -0.15013,0.0507 -0.30472,0.0936 -0.46406,0.12764 -2.00025,0.42674 -3.8673,-0.45976 -5.52317,-1.49758 0.0326,-0.29996 0.056,-0.61031 -0.061,-0.88574 -0.90703,0.40416 -0.54669,1.34193 -0.54674,2.10013 -3e-5,0.32234 -0.11261,0.54504 -0.25063,0.82372 h -0.0527 c -0.0835,-0.30596 -0.0601,-0.51372 0,-0.82372 -0.28425,0.007 -0.31874,0.20644 -0.31884,0.45165 -10e-5,0.32934 0.092,0.97513 -0.34572,1.0635 0,-0.14083 -0.009,-0.28501 0.004,-0.42529 0.0115,-0.12099 0.0578,-0.28197 -0.009,-0.39481 -0.0869,-0.14666 -0.36488,-0.0779 -0.43511,0.0506 -0.24516,0.44844 0.32589,1.25692 -0.41083,1.43402 -0.043,-0.34017 0.12576,-0.85457 -0.0196,-1.16582 -0.0784,-0.16769 -0.51118,0.003 -0.56792,0.1323 -0.18884,0.43036 0.25715,0.90032 -0.34262,1.13946 v -1.11621 c -0.12163,-0.0226 -0.412,-0.10109 -0.51831,-0.0258 -0.2912,0.20606 0.14455,1.01216 -0.30489,1.13327 -0.13096,0.0353 -0.17306,-0.19685 -0.18242,-0.28319 -0.0264,-0.2444 0.06,-0.47948 0.0935,-0.71779 0.0116,-0.0825 0.0237,-0.20157 -0.0754,-0.23099 -0.0733,-0.0217 -0.15952,-0.006 -0.23513,-0.0129 -0.0709,-0.007 -0.14123,-0.0247 -0.21291,-0.0165 -0.38755,0.0449 -0.003,0.81171 -0.12144,1.0573 -0.0797,0.16475 -0.26497,0.25476 -0.3576,0.0532 -0.0755,-0.16433 -0.0397,-0.33309 -0.0238,-0.50488 0.0165,-0.17647 0.0202,-0.32857 -0.002,-0.50488 -0.13791,-0.0113 -0.50674,-0.15417 -0.61288,-0.0372 -0.17953,0.19786 0.0198,0.6771 -0.003,0.91415 -0.01,0.10172 -0.0572,0.28327 -0.1819,0.29869 -0.14589,0.018 -0.2158,-0.21973 -0.23616,-0.32504 -0.0492,-0.25438 0.10738,-0.94345 -0.21549,-1.00149 -0.43974,-0.079 -0.29197,0.7036 -0.29197,0.97462 0,0.0797 0.0395,0.33094 -0.0837,0.33899 -0.16733,0.0109 -0.27355,-0.23564 -0.30127,-0.36535 -0.0603,-0.28216 -0.0136,-0.61578 -0.014,-0.90382 -2.2e-4,-0.12888 0.004,-0.28277 -0.13539,-0.34158 -0.14916,-0.0626 -0.25445,0.0343 -0.262,0.18242 -0.008,0.16258 0.17169,0.68699 -0.10697,0.72708 -0.13144,0.0189 -0.21068,-0.23486 -0.23358,-0.32866 -0.0703,-0.28776 0.063,-0.96392 -0.25011,-1.13016 -0.14918,-0.0792 -0.18221,0.0897 -0.18087,0.19999 0.003,0.20715 0.0951,0.40037 0.077,0.61133 -0.005,0.0587 -0.0226,0.18035 -0.10387,0.18035 -0.17719,0 -0.22271,-0.58764 -0.23461,-0.7121 -0.0689,-0.72084 0.30195,-1.60444 -0.0315,-2.28565 -0.18129,0.042 -0.38384,0.11381 -0.47336,0.29249 -0.0614,0.12255 -0.0116,0.29593 0.006,0.42529 0.0101,0.0736 0.0198,0.14697 0.0289,0.22066 -1.58318,0.97349 -3.59626,1.62506 -5.31595,1.23042 -0.19528,-0.0448 -0.38378,-0.10344 -0.56534,-0.17415 v -1.82211 c 0.10383,0.10628 0.21546,0.20595 0.33538,0.29817 1.38184,1.06262 3.26954,0.20113 4.5992,-0.6134 0.0787,-0.0482 0.15713,-0.1001 0.23513,-0.15399 0.40593,-0.0398 0.65405,-0.32343 1.04438,-0.47439 0.0997,0.33563 0.47847,0.48804 0.59686,0.82372 0.1216,0.34477 -0.0314,0.71926 -0.0806,1.06298 -0.0289,0.20203 -0.0145,0.41788 0.17466,0.53175 l 0.26614,-1.22266 c 0.65066,0.31046 -0.0644,0.96337 0.0646,1.43505 0.0387,0.14157 0.27212,0.27033 0.36122,0.10284 0.0985,-0.18527 0.0791,-0.43206 0.0791,-0.63407 0,-0.22341 0.0217,-0.4034 0.10645,-0.61133 0.44689,0.19299 0.35728,0.59041 0.262,0.9834 -0.0414,0.17088 -0.13133,0.41155 0.0331,0.54105 0.0748,0.0589 0.17152,0.0835 0.26304,0.1018 0.7008,0.13992 0.3029,-0.68605 0.32452,-1.06815 0.007,-0.12671 0.0602,-0.35216 0.20723,-0.38654 0.22133,-0.0518 0.2832,0.37995 0.28938,0.51935 0.0173,0.38797 -0.20601,1.00826 0.40153,0.9524 0.0783,-0.007 0.1645,-0.0186 0.23926,-0.0434 0.22118,-0.0733 0.18604,-0.32144 0.18604,-0.51005 0,-0.36665 -0.0683,-0.78997 0.31884,-0.9834 0.12068,0.42944 -0.0358,1.05162 0.1974,1.43247 0.14101,0.23026 0.73572,0.16172 0.83871,-0.078 0.16929,-0.39405 -0.4125,-1.21752 0.26614,-1.35444 0.0537,0.42432 0.0339,0.95692 0.27337,1.3286 0.12757,0.19794 0.52227,0.26039 0.62941,-0.002 0.12851,-0.31526 -0.16822,-0.73733 -0.18241,-1.0604 -0.007,-0.15719 0.0836,-0.38644 0.26148,-0.41651 0.13472,-0.0228 0.12998,0.22593 0.14211,0.31006 0.0326,0.22669 0.0802,1.1698 0.49609,0.93224 0.16887,-0.0964 0.0992,-0.30224 0.0584,-0.45372 -0.0872,-0.32376 -0.26544,-0.7905 0.15554,-0.95704 0.0937,0.26397 0.0114,0.90337 0.26614,1.03663 -0.007,-0.16781 -0.0627,-0.33682 -0.0486,-0.50488 0.0628,-0.75446 0.56663,-1.83865 1.45004,-1.83555 z m -0.21704,2.77761 2.88148,1.83606 c -0.73512,0.36564 -1.37845,0.84842 -1.59267,1.68465 -0.35762,1.39602 0.98382,2.26977 2.19418,2.04587 v -0.24029 c -1.11564,-0.62036 -0.53536,-2.19599 0.72192,-1.71566 1.44345,0.55147 1.03017,2.47627 -0.1204,3.05873 -1.74379,0.88282 -4.42878,-1.52009 -5.43481,-2.92334 -0.0146,-0.0189 -0.0294,-0.0351 -0.0444,-0.0491 0.0858,-0.10042 0.15762,-0.21125 0.20723,-0.33331 0.11462,-0.28204 0.10874,-0.60113 0.24494,-0.87695 0.12775,-0.25869 0.38154,-0.42543 0.50023,-0.69091 0.2471,-0.55268 0.36806,-1.17596 0.44235,-1.79576 z m -8.87284,0.19792 c 0.0323,0.41373 0.0673,0.84398 0.21549,1.19889 0.19136,0.45819 0.60157,0.78701 0.83302,1.22267 0.15286,0.28774 0.23989,0.63675 0.39998,0.93069 -0.005,0.005 -0.0102,0.01 -0.015,0.0155 -0.78226,1.67732 -4.23481,4.34935 -5.78052,2.71043 -0.80275,-0.85116 -0.62426,-2.74143 0.81648,-2.74143 1.01849,0 1.30621,1.3097 0.36122,1.67121 v 0.36122 c 2.47306,0.45721 2.91032,-3.0074 0.60152,-3.61011 l 1.56476,-1.15394 z m -6.02134,1.64538 c 0.46302,0.12971 0.93775,0.21359 1.40767,0.23409 v 0.12041 c -0.68355,0.3546 -1.14032,0.80776 -1.40767,1.30793 z m 21.00647,0.0393 v 1.65365 c -0.26729,-0.50788 -0.66479,-1.00301 -1.18649,-1.45883 0.4025,-0.032 0.79946,-0.098 1.18649,-0.19482 z m -10.28309,2.38694 c 0.29052,0.0141 0.58101,0.12567 0.87023,0.18086 1.40148,1.67122 3.17153,3.22998 5.33921,3.5233 v 0.24081 c -0.65772,0.0985 -1.30297,0.32489 -1.9203,0.64286 l -4.5098,-3.63389 -4.51911,3.64216 c -0.56202,-0.29136 -1.16186,-0.5475 -1.80764,-0.77153 v -0.12041 c 2.41996,-0.32614 3.73487,-1.99819 5.23379,-3.53467 0.15474,0.003 0.30463,-0.003 0.44494,-0.0165 0.25395,-0.0243 0.49193,-0.13774 0.74465,-0.15245 0.0415,-0.002 0.0825,-0.003 0.12403,-5.1e-4 z m 1.04696,0.20618 c 0.0135,0.001 0.0276,3.3e-4 0.0413,0.001 -0.0139,1.9e-4 -0.0276,1.7e-4 -0.0413,-0.001 z m -11.77034,1.53945 c 0.39868,0.87527 1.16828,1.65122 2.12959,2.07946 -0.96626,0.45797 -1.74512,1.28082 -2.12959,2.19521 z m 21.00647,0.50901 v 3.1073 c -0.42183,-0.68638 -1.08088,-1.2546 -1.90841,-1.53685 0.90504,-0.40877 1.53635,-0.95381 1.90841,-1.57045 z m -3.09025,2.78484 c 0.58964,-0.002 1.1273,0.1475 1.53117,0.50333 0.72626,0.63985 0.854,2.09387 0.0243,2.6386 l -1.44694,-1.16582 c 0.108,-0.16363 0.265,-0.31208 0.47232,-0.42323 v -0.12041 c -0.20596,-0.0749 -0.4106,-0.11014 -0.60771,-0.11214 -0.19711,-0.002 -0.38639,0.0312 -0.56276,0.093 l -1.25367,-1.01027 c 0.61208,-0.24826 1.25367,-0.40108 1.8433,-0.40308 z m -14.57586,0.007 c 0.53973,-0.006 1.12032,0.11588 1.68414,0.32297 l -1.26556,1.01958 c -0.0727,-0.0126 -0.14627,-0.0208 -0.22117,-0.0238 -0.22459,-0.01 -0.45717,0.0243 -0.68575,0.10749 v 0.1204 c 0.13034,0.0754 0.23791,0.16572 0.32401,0.26562 l -1.48414,1.19631 c -0.72395,-0.63613 -0.57761,-1.97733 0.20877,-2.56884 0.40105,-0.30167 0.89997,-0.43376 1.4397,-0.43976 z m -3.34036,3.33261 c 0.11528,0.23175 0.27073,0.45358 0.47025,0.66042 l -0.47025,0.37931 z m 21.00647,0.39171 v 0.64802 l -0.33486,-0.27027 c 0.12642,-0.11914 0.23766,-0.24536 0.33486,-0.37775 z"
       sodipodi:nodetypes="cccccccccccccccccccsccccscsscsssssssccsscsscccccccccsssscsccccsssccccscccccsccsccsscsscccccsscssccscccssssssscccssssssssssssccscsscccscccsccscccccscccsccsscsscccsssscccsccscsssssssccssscssscsscsccssccssccssscssccsscsscsscscssssscccccccsccssccssssccssccssccccccccccccccscccccccccccsscccccccccccssccccsccssscccccccssscccccccc" /><rect
       style="fill:none;fill-opacity:1;stroke:#000000;stroke-width:0.0496146;stroke-dasharray:none;stroke-opacity:1"
       id="rect1"
       width="26.065218"
       height="2.7228351"
       x="8.5142288"
       y="7.9605355" /></g></svg>
