<?xml version="1.0" encoding="UTF-8" standalone="no"?>
<!-- Created with Inkscape (http://www.inkscape.org/) -->

<svg
   width="50mm"
   height="60mm"
   viewBox="0 0 50 60"
   version="1.1"
   id="svg1"
   inkscape:version="1.4.2 (2aeb623e1d, 2025-05-12)"
   sodipodi:docname="Mrtvy4TokenLaser.svg"
   xml:space="preserve"
   xmlns:inkscape="http://www.inkscape.org/namespaces/inkscape"
   xmlns:sodipodi="http://sodipodi.sourceforge.net/DTD/sodipodi-0.dtd"
   xmlns="http://www.w3.org/2000/svg"
   xmlns:svg="http://www.w3.org/2000/svg"><sodipodi:namedview
     id="namedview1"
     pagecolor="#ffffff"
     bordercolor="#000000"
     borderopacity="0.25"
     inkscape:showpageshadow="2"
     inkscape:pageopacity="0.0"
     inkscape:pagecheckerboard="0"
     inkscape:deskcolor="#d1d1d1"
     inkscape:document-units="mm"
     inkscape:zoom="2.2577422"
     inkscape:cx="91.241594"
     inkscape:cy="151.92168"
     inkscape:window-width="1920"
     inkscape:window-height="1043"
     inkscape:window-x="0"
     inkscape:window-y="0"
     inkscape:window-maximized="1"
     inkscape:current-layer="layer8"
     showgrid="false" /><defs
     id="defs1"><clipPath
       clipPathUnits="userSpaceOnUse"
       id="cp1"><path
         d="m 275.5,535.5 c -143.78,0 -260,-116.22 -260,-260 0,-143.78 116.22,-260 260,-260 143.78,0 260,116.22 260,260 0,143.78 -116.22,260 -260,260 z"
         id="path1-5" /></clipPath></defs><style
     id="style1">
		tspan { white-space:pre } 
		.s0 { fill: none;stroke: #ff0000;stroke-miterlimit:100 } 
	</style><g
     inkscape:groupmode="layer"
     id="layer8"
     inkscape:label="Banner5"
     transform="translate(3.4531622,-1.0912023)"><rect
       style="fill:none;fill-opacity:1;stroke:#000000;stroke-width:0.0496146;stroke-dasharray:none;stroke-opacity:1"
       id="rect1"
       width="26.065218"
       height="2.7228351"
       x="8.5142288"
       y="7.9605355" /><path
       id="path13-4"
       style="fill:none;fill-opacity:1;stroke:#000000;stroke-width:0.05;stroke-dasharray:none;stroke-opacity:1"
       d="m 8.514289,12.224113 v 42.011389 l 13.03228,-10.503235 13.03279,10.503235 -5.1e-4,-42.011389 z m 2.52904,2.62568 h 1.76889 c 0.0458,0.225725 0.085,0.436403 0.10955,0.624768 0.066,0.50825 -0.056,1.026302 0.0791,1.528072 0.1091,0.40522 0.48575,0.764422 0.52865,1.175122 0.046,0.44091 -0.42422,0.856972 -0.66817,1.175122 -0.49106,0.64048 -0.88179,1.361083 -1.17047,2.115633 -0.70379,1.83956 0.0522,2.966903 0.76791,4.583183 -0.80177,0.346094 -1.16291,0.878848 -1.41542,1.508435 z m 7.46363,0 h 1.6862 c -0.27688,0.291393 -0.5553,0.51745 -0.80047,0.58446 -0.29532,0.08072 -0.61711,-0.236972 -0.88573,-0.58446 z m 4.51548,0 h 1.68466 c -0.33902,0.34687 -0.70927,0.609517 -1.08366,0.74259 z m 7.42281,0 h 1.60455 v 12.980603 c -0.27007,-0.709387 -0.57104,-1.319363 -1.49293,-1.896009 l 5.2e-4,-5.16e-4 v -0.117306 c 1.73284,-1.51555 1.27131,-3.868459 0.23357,-5.640999 -0.31745,-0.54223 -1.12031,-1.256956 -1.19011,-1.880506 -0.0565,-0.5048 0.45479,-1.033935 0.55759,-1.527555 0.11967,-0.574616 0.21801,-1.243528 0.28681,-1.917712 z m -14.534,0.630969 c 0.93869,-0.03299 2.16321,0.55682 2.16421,1.288293 0.002,1.1188 -2.36295,1.815182 -2.23604,2.936772 0.10899,0.96325 1.64116,1.48766 1.80506,2.46755 0.0589,0.35258 -0.21992,0.753976 -0.36742,1.057816 -0.94587,-0.48323 -2.21352,-2.150227 -2.78949,-3.055627 -0.19308,-0.30347 -0.50917,-0.991877 -0.25839,-1.338937 0.5662,-0.78359 2.11482,0.35168 2.44223,-1.2361 0.32605,-1.58112 -2.23236,-0.67048 -1.72134,-1.64331 0.1669,-0.317716 0.53451,-0.461457 0.96118,-0.476457 z m 11.42514,0.0052 c 0.48468,0.01383 0.84273,0.317205 0.87023,1.16427 -0.71005,-0.0466 -2.24259,-0.30587 -1.78852,1.0573 0.45464,1.3649 1.95159,0.38253 2.46187,1.12913 0.23861,0.34913 -0.0924,1.031227 -0.27544,1.338937 -0.61212,1.02893 -1.8245,2.410559 -2.74815,3.173449 -0.79284,-1.48901 0.47452,-2.699108 1.64538,-3.643188 v -0.117822 c -0.91826,-0.71926 -2.21216,-1.884836 -2.7032,-2.937806 0.57021,-0.406388 1.73002,-1.18732 2.53783,-1.16427 z m -5.59345,0.458887 c 0.5982,0.86466 0.6552,1.098166 -0.11731,1.880506 h -0.11782 c -0.69272,-0.70156 -0.96254,-1.537216 0.23513,-1.880506 z m -2.35025,1.997811 1.29243,1.175122 c -0.4612,0.47092 -0.99917,1.409385 -1.64538,1.615405 -0.50504,0.161 -1.13788,-0.539657 -1.04128,-1.027327 0.13289,-0.67122 1.00706,-1.21775 1.39423,-1.7632 z m 4.04937,0.149345 c 0.0183,-0.0014 0.0369,-0.0012 0.0563,0 0.58187,0.03549 1.63485,1.243229 1.62885,1.73116 -0.0164,1.37267 -1.35944,0.776508 -1.85674,0.235128 -0.28192,-0.30692 -0.5486,-0.626781 -0.82269,-0.940511 0.20662,-0.35742 0.50404,-0.906752 0.94103,-1.016992 0.0171,-0.0043 0.035,-0.0074 0.0532,-0.0088 z m -1.88671,2.685624 c 0.0543,-0.0023 0.1058,0.0054 0.154,0.02429 0.42172,0.1656 1.23824,1.002265 1.07073,1.489315 -0.13838,0.40234 -0.67132,0.624126 -0.72812,1.057816 -0.0537,0.41025 0.73113,1.240222 1.15859,1.100192 0.40937,-0.13411 0.70089,-0.669801 1.11776,-0.865581 0,1.31832 0.0969,2.466229 -0.58756,3.643189 -0.77401,-0.36396 -1.34909,-1.918589 -2.12494,-2.041219 -0.55749,-0.0881 -1.67928,1.633929 -1.98851,2.041219 -1.10307,-0.57344 -1.12101,-2.584749 -0.82269,-3.643189 h 0.23513 c 0.91699,1.17263 1.25416,0.668815 2.23294,-0.117305 V 23.34905 c -0.33103,-0.26696 -0.8972,-0.721748 -0.9493,-1.175638 -0.0495,-0.431303 0.7073,-1.373111 1.23197,-1.395781 z m -8.27391,0.338481 c 1.2652,0.64056 3.24228,3.103447 3.64319,4.465877 -0.51118,0.10934 -0.90983,-0.0722 -1.41025,-0.174666 -0.43999,-0.09 -0.98924,0.04349 -1.3901,-0.181385 -1.27354,-0.71445 -1.12692,-2.916596 -0.84284,-4.109826 z m 16.45274,0 c 0.47938,1.13606 0.45673,3.389536 -0.75654,4.109826 -0.55775,0.33113 -2.09418,0.418187 -2.76883,0.473357 0.19909,-1.49691 2.34031,-3.710953 3.52537,-4.583183 z m -14.96188,5.797062 c 1.404,0.06674 2.89305,0.830121 3.21014,1.959053 -0.60048,0.4888 -2.0973,2.02903 -2.1549,2.8205 -0.0571,0.78509 1.57472,2.466042 2.1549,2.938322 -0.56986,2.02885 -4.79755,2.836116 -5.73195,0.700216 -0.44116,-1.0084 0.74634,-3.00716 1.50069,-1.64021 -1.00626,0.75041 -0.42908,2.043445 0.82269,1.950785 2.25232,-0.16671 1.7513,-2.926915 0.23512,-3.713985 V 31.57542 c 0.37941,-0.21946 0.72169,-0.462039 0.98134,-0.824239 0.19399,-0.2706 0.3434,-0.606204 0.3855,-0.938444 0.0414,-0.32743 -0.0452,-0.648862 -0.19172,-0.940512 -1.0171,-2.02506 -3.93752,-0.330668 -2.23293,0.940512 -0.74786,1.3518 -1.93655,-0.621903 -1.50999,-1.635043 0.39867,-0.946864 1.4391,-1.316432 2.53111,-1.264522 z m 13.69787,0.03101 c 1.26694,-0.02102 2.4289,0.497932 2.5306,1.810742 0.0652,0.84139 -1.0111,2.156677 -1.61902,1.057817 1.38525,-1.18787 -0.52892,-2.578815 -1.75752,-1.596285 -0.78724,0.62956 -0.892,1.719391 -0.32866,2.531111 0.20269,0.29208 0.75395,0.583789 0.80305,0.947229 0.0574,0.42542 -0.65411,0.853012 -0.86713,1.173572 -0.62436,0.93954 -0.19881,2.274567 0.85783,2.685107 1.24133,0.4823 2.46368,-0.933878 1.29243,-1.862418 0.63697,-1.15136 1.73855,0.310562 1.60507,1.175122 -0.48497,3.14138 -4.69932,1.2433 -5.95313,0 0.50972,-0.73222 2.30092,-2.215354 2.29392,-3.123324 -0.008,-0.98152 -2.63463,-2.37401 -2.01952,-3.36982 0.523,-0.846695 1.89513,-1.407833 3.16208,-1.428853 z m -6.94893,1.335319 c 0.23785,0.003 0.47975,0.129955 0.60359,0.364835 0.23273,0.44141 -0.33443,0.733685 -0.22376,1.168405 0.10874,0.42711 0.59142,0.766632 0.78186,1.175122 l 1.17564,-0.940511 c 0.8132,1.64162 0.91189,1.765417 0,3.408577 l -1.17564,-0.940511 c -0.19044,0.40848 -0.67311,0.748519 -0.78186,1.175639 -0.11067,0.43472 0.45649,0.726467 0.22376,1.167887 -0.23141,0.438958 -0.82576,0.505523 -1.11053,0.08423 -0.27996,-0.4142 0.20642,-0.724085 0.18862,-1.134815 -0.0205,-0.47541 -0.61105,-0.923574 -0.87023,-1.292944 h -0.11783 l -1.0573,0.940511 -0.81132,-1.645378 0.81132,-1.762683 1.0573,0.939995 h 0.11783 c 0.25712,-0.36935 0.82527,-0.819285 0.84697,-1.292945 0.0169,-0.36733 -0.39519,-0.659909 -0.23926,-1.035079 0.10894,-0.26209 0.34298,-0.383338 0.58084,-0.380338 z m -10.47791,2.80448 c 0.17399,0.03913 0.33046,0.192058 0.39326,0.494026 0.0781,0.375358 -0.13617,0.686682 -0.39326,0.788583 z m 21.00647,0.03411 v 1.287777 c -0.16938,-0.02698 -0.3323,-0.171722 -0.4253,-0.480074 -0.10602,-0.351478 0.14357,-0.70317 0.4253,-0.807703 z m -21.00647,4.990393 c 0.0469,0.0979 0.10242,0.193067 0.17002,0.284737 0.25737,0.34914 0.97695,0.769463 1.05885,1.197343 0.0805,0.42085 -0.48966,1.009576 -0.65061,1.388546 -0.28512,0.67135 -0.29439,1.520119 -0.16588,2.232939 0.17143,0.95083 0.67133,1.922314 1.22731,2.703194 0.26511,0.37234 0.89093,0.91558 0.84543,1.41025 -0.0376,0.40877 -0.41915,0.772252 -0.52762,1.175122 -0.0559,0.207487 -0.0678,0.418264 -0.0672,0.629419 l -1.89033,1.523421 z m 21.00647,0.02067 v 12.5243 l -1.86448,-1.502751 c 0.005,-0.177264 -0.002,-0.354496 -0.046,-0.532267 -0.11297,-0.45409 -0.59097,-0.93623 -0.53847,-1.41025 0.069,-0.62296 0.87299,-1.338855 1.19011,-1.880505 1.03773,-1.77253 1.49874,-4.125439 -0.23409,-5.640999 0.52884,-0.487096 1.14606,-0.913918 1.49293,-1.557528 z m -12.4225,0.147278 2.11564,2.232938 c 0.16764,-0.36161 0.39964,-0.632841 0.65422,-0.940511 0.28629,-0.34597 0.64376,-1.008917 1.10536,-1.134297 0.43191,-0.11734 0.63055,0.469934 0.71675,0.781864 0.23429,0.8479 0.10904,1.830774 0.10904,2.703194 -0.41925,-0.19715 -0.67185,-0.66228 -1.07746,-0.83199 -0.45214,-0.18918 -1.2381,0.624928 -1.1808,1.067118 0.0523,0.403104 0.50177,0.635004 0.66611,0.993221 l -1.19011,-0.959115 -0.77825,0.626835 c 0.12441,-0.180044 0.24874,-0.400976 0.30334,-0.718302 0.0704,-0.40974 -0.81931,-1.166095 -1.20251,-1.014925 -0.40839,0.16109 -0.66491,0.631588 -1.06402,0.837158 -0.13914,-1.10091 -0.35147,-3.032788 0.82269,-3.643188 z m -2.70267,1.527555 c -0.31318,1.44697 -2.36476,3.86368 -3.64319,4.5837 -0.31676,-1.16142 -0.40163,-3.412194 0.84284,-4.110344 0.58197,-0.32648 2.11359,-0.441976 2.80035,-0.473356 z m 9.28418,0 c 0.68163,0.0558 2.21918,0.142456 2.78536,0.473356 1.23539,0.72201 1.1677,2.968344 0.74001,4.110344 -1.16661,-0.89219 -3.32604,-3.08489 -3.52537,-4.5837 z m -9.16688,2.350761 h 0.23513 c 0.1195,0.34547 0.42952,0.803352 0.36742,1.175122 -0.16376,0.98018 -1.69519,1.497256 -1.80506,2.468066 -0.022,0.194592 0.10602,0.453935 0.31419,0.736906 l -0.59634,0.480591 c -0.51309,-0.02519 -1.06267,0.02029 -1.32809,-0.348299 -0.24767,-0.34393 0.0826,-1.035173 0.26769,-1.339453 0.70822,-1.16471 1.87472,-1.970293 2.54506,-3.172933 z m 8.81445,0 h 0.23461 c 0.57756,1.21408 1.71647,1.954327 2.43913,3.055627 0.21292,0.3245 0.61103,1.070279 0.34985,1.456759 -0.27499,0.406931 -0.83022,0.308711 -1.35651,0.338481 l -0.69453,-0.559656 c 0.2352,-0.202256 0.46454,-0.382766 0.67283,-0.530717 v -0.117306 c -1.15202,-0.92902 -2.42184,-2.184928 -1.64538,-3.643188 z" /></g></svg>
