<?xml version="1.0" encoding="UTF-8" standalone="no"?>
<!-- Created with Inkscape (http://www.inkscape.org/) -->

<svg
   width="50mm"
   height="60mm"
   viewBox="0 0 50 60"
   version="1.1"
   id="svg1"
   inkscape:version="1.4.2 (2aeb623e1d, 2025-05-12)"
   sodipodi:docname="Mrtvy3TokenLaser.svg"
   xml:space="preserve"
   xmlns:inkscape="http://www.inkscape.org/namespaces/inkscape"
   xmlns:sodipodi="http://sodipodi.sourceforge.net/DTD/sodipodi-0.dtd"
   xmlns="http://www.w3.org/2000/svg"
   xmlns:svg="http://www.w3.org/2000/svg"><sodipodi:namedview
     id="namedview1"
     pagecolor="#ffffff"
     bordercolor="#000000"
     borderopacity="0.25"
     inkscape:showpageshadow="2"
     inkscape:pageopacity="0.0"
     inkscape:pagecheckerboard="0"
     inkscape:deskcolor="#d1d1d1"
     inkscape:document-units="mm"
     inkscape:zoom="3.2524948"
     inkscape:cx="81.475918"
     inkscape:cy="144.50446"
     inkscape:window-width="1920"
     inkscape:window-height="1043"
     inkscape:window-x="0"
     inkscape:window-y="0"
     inkscape:window-maximized="1"
     inkscape:current-layer="layer8"
     showgrid="false" /><defs
     id="defs1"><clipPath
       clipPathUnits="userSpaceOnUse"
       id="cp1"><path
         d="m 275.5,535.5 c -143.78,0 -260,-116.22 -260,-260 0,-143.78 116.22,-260 260,-260 143.78,0 260,116.22 260,260 0,143.78 -116.22,260 -260,260 z"
         id="path1-5" /></clipPath></defs><style
     id="style1">
		tspan { white-space:pre } 
		.s0 { fill: none;stroke: #ff0000;stroke-miterlimit:100 } 
	</style><g
     inkscape:groupmode="layer"
     id="layer8"
     inkscape:label="Banner5"
     transform="translate(3.4531622,-1.0912023)"><path
       id="rect1-2-8"
       style="display:none;fill:none;fill-opacity:1;stroke:#000000;stroke-width:0.05;stroke-dasharray:none;stroke-opacity:1"
       d="m 8.5142839,12.210489 v 42.01138 l 13.0322801,-10.50323 13.0328,10.50323 v -42.01138 z m 2.5290501,2.72601 h 6.90655 c 0.75246,0.35045 1.37948,0.90844 1.77871,1.75123 -0.0341,0.006 -0.0683,0.0122 -0.10232,0.0186 -2.70646,-1.63957 -6.87393,-1.69253 -8.58294,0.70952 z m 9.80095,0 h 1.47588 c -0.16776,0.4303 -0.36668,0.749 -0.60203,1.1523 -0.37306,-0.32066 -0.65748,-0.6533 -0.87385,-1.1523 z m 4.48345,0 h 6.72207 v 2.18893 c -0.17129,-0.20379 -0.3668,-0.38871 -0.58653,-0.54984 -2.59607,-1.9036 -5.19586,-1.03703 -7.88272,0.078 -0.0168,-0.003 -0.0334,-0.007 -0.0501,-0.01 0.40097,-0.81438 1.04846,-1.36392 1.79731,-1.70731 z m -9.28161,2.23027 c 0.45296,0.007 0.88182,0.1689 1.30483,0.30386 -0.73101,0.37926 -1.39275,0.88706 -1.93786,1.54823 -0.37199,0.45122 -0.70399,0.93823 -0.96583,1.46192 -0.38923,0.77845 -0.61593,1.5846 -0.72709,2.40554 -0.64357,-0.3742 -1.32044,-0.96106 -1.57355,-1.62264 -0.84403,-2.20609 1.2159,-3.79903 3.19309,-4.0566 0.23932,-0.0312 0.47484,-0.0439 0.70641,-0.0403 z m 10.91768,0.0222 c 0.82227,-0.0347 1.63732,0.0851 2.33526,0.35812 2.05753,0.80491 2.48419,3.11435 1.22938,4.79764 -0.26237,0.35197 -0.743,0.62761 -1.18028,0.78755 -0.006,-0.0421 -0.0108,-0.0844 -0.016,-0.12661 -0.12208,-0.98108 -0.28762,-2.04895 -0.77463,-2.92385 -0.54547,-0.97991 -1.37025,-1.59285 -2.28979,-2.19315 -0.21055,-0.13746 -0.42301,-0.27108 -0.63923,-0.39791 0.43371,-0.1271 0.89012,-0.28302 1.33531,-0.30179 z m -15.92047,5.35626 c 0.45249,0.66962 1.03299,1.26553 1.52807,1.96836 -0.5246,0.001 -1.03641,0.0688 -1.52807,0.19379 z m 21.00647,0.5209 v 1.65262 c -0.45878,-0.12768 -0.93517,-0.23294 -1.42679,-0.32557 v -0.1204 c 0.57537,-0.26832 1.05359,-0.69074 1.42679,-1.20665 z m -16.97157,2.99569 c 0,0.93057 -0.17831,1.93588 -0.4806,2.81739 -0.1512,0.44092 -0.5884,0.91078 -0.60564,1.38235 -0.0138,0.37812 0.25384,1.04141 0.5302,1.29656 0.10958,0.10116 0.24162,0.16635 0.37,0.23978 -1.28578,0.50978 -3.1559,0.83825 -3.22616,-0.90641 -0.0527,-1.30897 1.35031,-2.30543 2.41794,-2.27893 0.0507,10e-4 0.083,-0.037 0.10129,-0.10077 0.005,0.0251 0.0103,0.0499 0.0155,0.0749 h 0.0269 c 0.13282,-0.64385 0.25101,-1.32146 0.47697,-1.93993 0.0714,-0.19529 0.13754,-0.54766 0.37363,-0.58497 z m 15.16341,0.0362 c 0.16833,-0.006 0.3362,-0.004 0.50333,0.004 0.44567,0.0216 0.88488,0.0938 1.30483,0.22376 v 1.82107 c -0.32281,-0.22353 -0.71711,-0.38594 -1.18649,-0.46508 -0.56415,-0.0951 -1.18237,-0.15961 -1.66088,-0.0806 0.0713,-0.40865 -0.0196,-0.83416 0.0202,-1.24592 0.005,-0.0473 0.01,-0.0948 0.0155,-0.14211 0.31619,-0.055 0.70474,-0.10436 1.00356,-0.11472 z m -17.15916,0.005 c 0.18826,0.006 0.46763,0.0289 0.68833,0.0548 0.0547,0.41702 0.1226,0.83336 0.19792,1.24695 -0.52459,-0.088 -1.12971,0.14899 -1.75803,0.31109 -0.46577,0.12007 -0.85447,0.3315 -1.16737,0.60668 v -1.91202 c 0.644,-0.23466 1.33882,-0.33078 2.03915,-0.30748 z m 15.03423,0.29404 c 0.10428,-0.003 0.12635,0.26391 0.13797,0.33021 0.0682,0.38924 0.12667,0.77938 0.19069,1.16944 0.0584,0.35602 0.16267,0.70885 0.21497,1.06298 h 0.0796 c 0.003,-0.0184 0.007,-0.0365 0.0109,-0.0548 0.0146,0.0153 0.0344,0.021 0.061,0.0155 0.19816,-0.0413 0.65824,0.1873 0.87385,0.1943 0.64681,0.0224 1.31455,0.27479 1.6583,0.81907 0.72152,1.14232 -0.13922,2.50382 -1.44332,2.46652 -0.45457,-0.013 -0.94268,-0.35261 -1.37873,-0.56793 0.16654,-0.27063 0.29592,-0.56973 0.40928,-0.82579 0.18146,-0.40988 -0.28995,-0.85957 -0.43564,-1.22266 -0.3214,-0.801 -0.53602,-1.71227 -0.52606,-2.57813 0.002,-0.20038 0.0202,-0.41302 0.0491,-0.61134 0.008,-0.0565 0.0135,-0.18155 0.0879,-0.19585 0.004,-6.8e-4 0.007,-0.001 0.0103,-0.002 z m -10.47533,0.11731 c 0.34089,0.003 0.69998,0.14566 1.02474,0.2129 0.25971,0.0538 0.56151,0.0949 0.76946,0.2744 0.21514,0.1857 0.3191,0.49358 0.45734,0.73536 0.18046,0.31562 0.39338,0.5976 0.29455,0.9834 -0.20897,0.81577 -1.38949,1.2059 -2.02623,1.63039 -0.27718,0.18478 -0.58897,0.42311 -0.93069,0.46457 -1.12458,0.13646 -2.27613,-0.92248 -2.08773,-2.09496 0.18154,-1.12979 1.24703,-2.06245 2.35386,-2.19831 0.0478,-0.006 0.096,-0.008 0.1447,-0.008 z m 6.73705,0.0754 c 0.68547,-0.002 1.42353,0.22127 2.04897,0.42995 0.22643,0.0756 0.61584,0.16288 0.77308,0.3514 0.14999,0.17985 0.23632,0.43715 0.30128,0.65835 0.18778,0.63944 0.14441,1.43144 -0.3328,1.94045 -0.24789,0.2644 -0.58117,0.43156 -0.90124,0.59118 -0.26651,0.13292 -0.57547,0.28269 -0.87695,0.30748 -0.4859,0.04 -0.96146,-0.42732 -1.30224,-0.71055 -0.44195,-0.36732 -1.08452,-0.73965 -1.3317,-1.27796 -0.41505,-0.9039 0.37585,-2.17329 1.3317,-2.27531 0.0953,-0.0102 0.19198,-0.0147 0.2899,-0.015 z m -2.78846,3.48661 h 0.0264 c 0.37438,0.6117 0.82451,1.39471 0.87488,2.12597 0.0316,0.45964 -0.17523,0.89288 -0.68885,0.90382 -0.19095,-0.71428 -0.29249,-1.4128 -0.29249,-2.15284 0,-0.26608 -0.0264,-0.63 0.0801,-0.87695 z m -0.18603,0.13281 c -9e-5,0.90077 8.7e-4,2.00681 -0.4253,2.8174 -1.12488,-0.16861 -0.35515,-1.43216 -0.12816,-2.02004 0.10708,-0.27733 0.1993,-0.75792 0.55346,-0.79736 z m 4.75061,1.96525 c 0.0285,1e-4 0.0575,0.002 0.0868,0.004 0.25885,0.0213 0.42422,0.24052 0.63769,0.35967 0.0614,0.0342 0.12921,0.0585 0.19998,0.0739 0.0541,0.04 0.10714,0.0773 0.15968,0.1111 1.33818,0.86029 3.32991,1.88368 4.70308,0.66973 0.0367,-0.0325 0.0728,-0.0652 0.108,-0.0992 v 1.72238 c -0.15013,0.0507 -0.30472,0.0936 -0.46406,0.12764 -2.00025,0.42674 -3.8673,-0.45976 -5.52317,-1.49758 0.0326,-0.29996 0.056,-0.61031 -0.061,-0.88574 -0.90703,0.40416 -0.54669,1.34193 -0.54674,2.10013 -3e-5,0.32234 -0.11261,0.54504 -0.25063,0.82372 h -0.0527 c -0.0835,-0.30596 -0.0601,-0.51372 0,-0.82372 -0.28425,0.007 -0.31874,0.20644 -0.31884,0.45165 -10e-5,0.32934 0.092,0.97513 -0.34572,1.0635 0,-0.14083 -0.009,-0.28501 0.004,-0.42529 0.0115,-0.12099 0.0578,-0.28197 -0.009,-0.39481 -0.0869,-0.14666 -0.36488,-0.0779 -0.43511,0.0506 -0.24516,0.44844 0.32589,1.25692 -0.41083,1.43402 -0.043,-0.34017 0.12576,-0.85457 -0.0196,-1.16582 -0.0784,-0.16769 -0.51118,0.003 -0.56792,0.1323 -0.18884,0.43036 0.25715,0.90032 -0.34262,1.13946 v -1.11621 c -0.12163,-0.0226 -0.412,-0.10109 -0.51831,-0.0258 -0.2912,0.20606 0.14455,1.01216 -0.30489,1.13327 -0.13096,0.0353 -0.17306,-0.19685 -0.18242,-0.28319 -0.0264,-0.2444 0.06,-0.47948 0.0935,-0.71779 0.0116,-0.0825 0.0237,-0.20157 -0.0754,-0.23099 -0.0733,-0.0217 -0.15952,-0.006 -0.23513,-0.0129 -0.0709,-0.007 -0.14123,-0.0247 -0.21291,-0.0165 -0.38755,0.0449 -0.003,0.81171 -0.12144,1.0573 -0.0797,0.16475 -0.26497,0.25476 -0.3576,0.0532 -0.0755,-0.16433 -0.0397,-0.33309 -0.0238,-0.50488 0.0165,-0.17647 0.0202,-0.32857 -0.002,-0.50488 -0.13791,-0.0113 -0.50674,-0.15417 -0.61288,-0.0372 -0.17953,0.19786 0.0198,0.6771 -0.003,0.91415 -0.01,0.10172 -0.0572,0.28327 -0.1819,0.29869 -0.14589,0.018 -0.2158,-0.21973 -0.23616,-0.32504 -0.0492,-0.25438 0.10738,-0.94345 -0.21549,-1.00149 -0.43974,-0.079 -0.29197,0.7036 -0.29197,0.97462 0,0.0797 0.0395,0.33094 -0.0837,0.33899 -0.16733,0.0109 -0.27355,-0.23564 -0.30127,-0.36535 -0.0603,-0.28216 -0.0136,-0.61578 -0.014,-0.90382 -2.2e-4,-0.12888 0.004,-0.28277 -0.13539,-0.34158 -0.14916,-0.0626 -0.25445,0.0343 -0.262,0.18242 -0.008,0.16258 0.17169,0.68699 -0.10697,0.72708 -0.13144,0.0189 -0.21068,-0.23486 -0.23358,-0.32866 -0.0703,-0.28776 0.063,-0.96392 -0.25011,-1.13016 -0.14918,-0.0792 -0.18221,0.0897 -0.18087,0.19999 0.003,0.20715 0.0951,0.40037 0.077,0.61133 -0.005,0.0587 -0.0226,0.18035 -0.10387,0.18035 -0.17719,0 -0.22271,-0.58764 -0.23461,-0.7121 -0.0689,-0.72084 0.30195,-1.60444 -0.0315,-2.28565 -0.18129,0.042 -0.38384,0.11381 -0.47336,0.29249 -0.0614,0.12255 -0.0116,0.29593 0.006,0.42529 0.0101,0.0736 0.0198,0.14697 0.0289,0.22066 -1.58318,0.97349 -3.59626,1.62506 -5.31595,1.23042 -0.19528,-0.0448 -0.38378,-0.10344 -0.56534,-0.17415 v -1.82211 c 0.10383,0.10628 0.21546,0.20595 0.33538,0.29817 1.38184,1.06262 3.26954,0.20113 4.5992,-0.6134 0.0787,-0.0482 0.15713,-0.1001 0.23513,-0.15399 0.40593,-0.0398 0.65405,-0.32343 1.04438,-0.47439 0.0997,0.33563 0.47847,0.48804 0.59686,0.82372 0.1216,0.34477 -0.0314,0.71926 -0.0806,1.06298 -0.0289,0.20203 -0.0145,0.41788 0.17466,0.53175 l 0.26614,-1.22266 c 0.65066,0.31046 -0.0644,0.96337 0.0646,1.43505 0.0387,0.14157 0.27212,0.27033 0.36122,0.10284 0.0985,-0.18527 0.0791,-0.43206 0.0791,-0.63407 0,-0.22341 0.0217,-0.4034 0.10645,-0.61133 0.44689,0.19299 0.35728,0.59041 0.262,0.9834 -0.0414,0.17088 -0.13133,0.41155 0.0331,0.54105 0.0748,0.0589 0.17152,0.0835 0.26304,0.1018 0.7008,0.13992 0.3029,-0.68605 0.32452,-1.06815 0.007,-0.12671 0.0602,-0.35216 0.20723,-0.38654 0.22133,-0.0518 0.2832,0.37995 0.28938,0.51935 0.0173,0.38797 -0.20601,1.00826 0.40153,0.9524 0.0783,-0.007 0.1645,-0.0186 0.23926,-0.0434 0.22118,-0.0733 0.18604,-0.32144 0.18604,-0.51005 0,-0.36665 -0.0683,-0.78997 0.31884,-0.9834 0.12068,0.42944 -0.0358,1.05162 0.1974,1.43247 0.14101,0.23026 0.73572,0.16172 0.83871,-0.078 0.16929,-0.39405 -0.4125,-1.21752 0.26614,-1.35444 0.0537,0.42432 0.0339,0.95692 0.27337,1.3286 0.12757,0.19794 0.52227,0.26039 0.62941,-0.002 0.12851,-0.31526 -0.16822,-0.73733 -0.18241,-1.0604 -0.007,-0.15719 0.0836,-0.38644 0.26148,-0.41651 0.13472,-0.0228 0.12998,0.22593 0.14211,0.31006 0.0326,0.22669 0.0802,1.1698 0.49609,0.93224 0.16887,-0.0964 0.0992,-0.30224 0.0584,-0.45372 -0.0872,-0.32376 -0.26544,-0.7905 0.15554,-0.95704 0.0937,0.26397 0.0114,0.90337 0.26614,1.03663 -0.007,-0.16781 -0.0627,-0.33682 -0.0486,-0.50488 0.0628,-0.75446 0.56663,-1.83865 1.45004,-1.83555 z m -0.21704,2.77761 2.88148,1.83606 c -0.73512,0.36564 -1.37845,0.84842 -1.59267,1.68465 -0.35762,1.39602 0.98382,2.26977 2.19418,2.04587 v -0.24029 c -1.11564,-0.62036 -0.53536,-2.19599 0.72192,-1.71566 1.44345,0.55147 1.03017,2.47627 -0.1204,3.05873 -1.74379,0.88282 -4.42878,-1.52009 -5.43481,-2.92334 -0.0146,-0.0189 -0.0294,-0.0351 -0.0444,-0.0491 0.0858,-0.10042 0.15762,-0.21125 0.20723,-0.33331 0.11462,-0.28204 0.10874,-0.60113 0.24494,-0.87695 0.12775,-0.25869 0.38154,-0.42543 0.50023,-0.69091 0.2471,-0.55268 0.36806,-1.17596 0.44235,-1.79576 z m -8.87284,0.19792 c 0.0323,0.41373 0.0673,0.84398 0.21549,1.19889 0.19136,0.45819 0.60157,0.78701 0.83302,1.22267 0.15286,0.28774 0.23989,0.63675 0.39998,0.93069 -0.005,0.005 -0.0102,0.01 -0.015,0.0155 -0.78226,1.67732 -4.23481,4.34935 -5.78052,2.71043 -0.80275,-0.85116 -0.62426,-2.74143 0.81648,-2.74143 1.01849,0 1.30621,1.3097 0.36122,1.67121 v 0.36122 c 2.47306,0.45721 2.91032,-3.0074 0.60152,-3.61011 l 1.56476,-1.15394 z m -6.02134,1.64538 c 0.46302,0.12971 0.93775,0.21359 1.40767,0.23409 v 0.12041 c -0.68355,0.3546 -1.14032,0.80776 -1.40767,1.30793 z m 21.00647,0.0393 v 1.65365 c -0.26729,-0.50788 -0.66479,-1.00301 -1.18649,-1.45883 0.4025,-0.032 0.79946,-0.098 1.18649,-0.19482 z m -10.28309,2.38694 c 0.29052,0.0141 0.58101,0.12567 0.87023,0.18086 1.40148,1.67122 3.17153,3.22998 5.33921,3.5233 v 0.24081 c -0.65772,0.0985 -1.30297,0.32489 -1.9203,0.64286 l -4.5098,-3.63389 -4.51911,3.64216 c -0.56202,-0.29136 -1.16186,-0.5475 -1.80764,-0.77153 v -0.12041 c 2.41996,-0.32614 3.73487,-1.99819 5.23379,-3.53467 0.15474,0.003 0.30463,-0.003 0.44494,-0.0165 0.25395,-0.0243 0.49193,-0.13774 0.74465,-0.15245 0.0415,-0.002 0.0825,-0.003 0.12403,-5.1e-4 z m 1.04696,0.20618 c 0.0135,0.001 0.0276,3.3e-4 0.0413,0.001 -0.0139,1.9e-4 -0.0276,1.7e-4 -0.0413,-0.001 z m -11.77034,1.53945 c 0.39868,0.87527 1.16828,1.65122 2.12959,2.07946 -0.96626,0.45797 -1.74512,1.28082 -2.12959,2.19521 z m 21.00647,0.50901 v 3.1073 c -0.42183,-0.68638 -1.08088,-1.2546 -1.90841,-1.53685 0.90504,-0.40877 1.53635,-0.95381 1.90841,-1.57045 z m -3.09025,2.78484 c 0.58964,-0.002 1.1273,0.1475 1.53117,0.50333 0.72626,0.63985 0.854,2.09387 0.0243,2.6386 l -1.44694,-1.16582 c 0.108,-0.16363 0.265,-0.31208 0.47232,-0.42323 v -0.12041 c -0.20596,-0.0749 -0.4106,-0.11014 -0.60771,-0.11214 -0.19711,-0.002 -0.38639,0.0312 -0.56276,0.093 l -1.25367,-1.01027 c 0.61208,-0.24826 1.25367,-0.40108 1.8433,-0.40308 z m -14.57586,0.007 c 0.53973,-0.006 1.12032,0.11588 1.68414,0.32297 l -1.26556,1.01958 c -0.0727,-0.0126 -0.14627,-0.0208 -0.22117,-0.0238 -0.22459,-0.01 -0.45717,0.0243 -0.68575,0.10749 v 0.1204 c 0.13034,0.0754 0.23791,0.16572 0.32401,0.26562 l -1.48414,1.19631 c -0.72395,-0.63613 -0.57761,-1.97733 0.20877,-2.56884 0.40105,-0.30167 0.89997,-0.43376 1.4397,-0.43976 z m -3.34036,3.33261 c 0.11528,0.23175 0.27073,0.45358 0.47025,0.66042 l -0.47025,0.37931 z m 21.00647,0.39171 v 0.64802 l -0.33486,-0.27027 c 0.12642,-0.11914 0.23766,-0.24536 0.33486,-0.37775 z"
       sodipodi:nodetypes="cccccccccccccccccccsccccscsscsssssssccsscsscccccccccsssscsccccsssccccscccccsccsccsscsscccccsscssccscccssssssscccssssssssssssccscsscccscccsccscccccscccsccsscsscccsssscccsccscsssssssccssscssscsscsccssccssccssscssccsscsscsscscssssscccccccsccssccssssccssccssccccccccccccccscccccccccccsscccccccccccssccccsccssscccccccssscccccccc" /><rect
       style="fill:none;fill-opacity:1;stroke:#000000;stroke-width:0.0496146;stroke-dasharray:none;stroke-opacity:1"
       id="rect1"
       width="26.065218"
       height="2.7228351"
       x="8.5142288"
       y="7.9605355" /><path
       id="rect1-28"
       style="fill:none;fill-opacity:1;stroke:#000000;stroke-width:0.05;stroke-dasharray:none;stroke-opacity:1"
       d="m 8.5142875,12.224113 v 42.01139 l 13.0322785,-10.50272 13.032794,10.50272 -5.1e-4,-42.01139 z m 3.7703115,2.62568 h 0.28112 l 1.497066,0.59893 c 0.75823,-1.13694 1.458531,1.93612 1.469161,2.44843 -0.8294,0 -1.699575,0.007 -2.445845,-0.41858 -0.4959,-0.2828 -0.784641,-0.83058 -0.124541,-1.05058 z m 3.669027,0 h 3.140893 c -0.974236,0.41547 -2.145347,0.42108 -3.140893,0 z m 8.157644,0 h 3.09387 c -0.96891,0.43872 -2.12278,0.40045 -3.09387,0 z m 6.40581,0 h 0.26768 l -0.5643,1.5782 c 0.64499,0.21638 0.35437,0.77004 -0.12765,1.05058 -0.73948,0.43038 -1.61819,0.41858 -2.44274,0.41858 0.003,-1.05175 0.17028,-2.48215 1.34669,-2.81533 l 0.12195,0.3669 z m -8.265131,0.44545 c 0.294903,0.0596 0.639848,0.14573 0.911573,0.27182 0.271728,0.1261 0.528648,0.28404 0.763778,0.46974 0.23512,0.1857 0.44846,0.3993 0.63355,0.63769 0.35605,0.45857 0.56481,1.16577 1.03456,1.51567 0.45078,0.33574 1.1629,0.16385 1.68724,0.31884 -0.2613,2.01672 0.72593,1.75405 1.91875,2.9745 0.64782,0.66284 1.0092,1.64088 1.1777,2.63291 l -1.3441,0.0145 c -0.12102,-0.36324 -0.33197,-1.2877 -0.57258,-1.58595 -0.48122,-0.59652 -1.20129,-1.01992 -2.15852,-1.09812 v -1.71359 l -1.71411,-0.12248 c -0.0773,-0.57144 -0.25259,-1.08031 -0.52141,-1.59163 -0.13394,-0.25477 -0.29699,-0.4777 -0.48266,-0.66818 -0.18567,-0.19048 -0.39367,-0.3487 -0.616502,-0.47439 -0.222832,-0.12569 -0.46047,-0.21865 -0.7059,-0.27905 z m -1.336352,0.0491 0.0067,1.24333 c -0.194203,0.0442 -0.385042,0.10877 -0.569475,0.19327 -0.184434,0.0845 -0.362371,0.18909 -0.5302,0.31419 -0.167829,0.1251 -0.325864,0.27075 -0.470255,0.43667 -0.436285,0.50135 -0.528157,1.61513 -1.043347,1.95337 -0.36735,0.24118 -1.011171,0.12609 -1.430921,0.12609 0,0.47775 0.148356,1.26634 -0.195854,1.65054 -0.58592,0.65402 -1.615906,0.59807 -2.207617,1.42059 -0.185645,0.25806 -0.460025,0.81727 -0.561206,1.09916 l -1.229899,-0.006 c 0.07559,-0.31239 0.216657,-0.70295 0.356567,-0.99839 0.13991,-0.29545 0.309233,-0.57698 0.502295,-0.83354 0.193062,-0.25656 0.409877,-0.48845 0.644922,-0.6842 0.443243,-0.36914 1.28983,-0.57166 1.58595,-1.06402 0.27911,-0.46407 0.125574,-1.28521 0.125574,-1.80867 0.46805,0 1.147029,0.12117 1.565279,-0.12558 0.48251,-0.28468 0.673467,-1.02774 0.996321,-1.46502 0.175393,-0.23756 0.373853,-0.45137 0.590662,-0.63976 0.216809,-0.18839 0.452154,-0.3511 0.7028,-0.48576 0.250646,-0.13465 0.884784,-0.24977 1.161686,-0.32607 z m 0.491959,2.43034 c 0.650462,0.33356 0.806313,0.8944 0.734323,1.59112 l 0.856795,-0.36742 c 0.350986,1.23187 -0.441298,3.32959 -1.591118,3.91707 -0.75835,-1.21026 -1.505327,-2.42937 -1.346687,-3.91707 l 0.856795,0.36742 z m 10.642244,0.65009 v 3.58376 c -0.36977,-0.82053 -0.90438,-1.58954 -1.5844,-2.27531 0.60241,-0.25215 1.14678,-0.72199 1.5844,-1.30845 z m -21.006469,0.093 c 0.414636,0.52077 0.937598,0.91589 1.55081,1.09295 -0.482217,0.81 -1.152322,1.44617 -1.55081,2.32079 z m 6.814055,2.68407 c 1.4862,0.13074 2.602255,1.41564 2.937805,2.81533 -1.53089,-0.1345 -2.801525,-1.2642 -2.937805,-2.81533 z m 7.040914,0.0848 c 0.13726,-0.005 0.27952,0.007 0.42633,0.0377 -0.46762,1.43469 -1.4307,2.64556 -3.060278,2.69286 0.427161,-1.09944 1.307098,-2.68508 2.633948,-2.73058 z m 1.09967,1.85518 c 0.13822,0.007 0.26885,0.0366 0.38913,0.093 0.33664,0.15793 1.12492,1.18466 1.38544,1.5167 -0.37344,0.32509 -1.01215,1.21962 -1.38544,1.39475 -0.97214,0.45606 -2.5985,-0.82587 -3.265953,-1.39475 v -0.12247 c 0.581323,-0.49425 1.909283,-1.53675 2.876823,-1.48725 z m -8.867155,0.0574 c 0.914778,0.005 2.532298,1.09833 2.80758,1.67484 -0.62785,0.38711 -3.642101,2.41607 -3.427181,0.48989 -1.19099,-0.21589 -1.19097,-1.1308 0,-1.34669 -0.06671,-0.59783 0.203793,-0.82004 0.619601,-0.81804 z m -3.186369,1.88981 c 0.04972,0.28299 0.09364,0.6911 0.209806,0.95136 0.232325,0.5205 0.591634,0.97982 1.053683,1.3162 0.462048,0.33639 1.026474,0.54965 1.670182,0.57775 v 1.83606 h 1.714107 c 0.05442,1.19107 0.734458,2.2319 1.656747,2.76779 0.230572,0.13397 0.643723,0.23649 0.898653,0.30179 l -0.01654,1.2609 c -0.486002,-0.0436 -0.893667,-0.14421 -1.332218,-0.36225 -0.43855,-0.21804 -0.837876,-0.52211 -1.166854,-0.91002 -0.45505,-0.53657 -0.763119,-1.1845 -1.019059,-1.834 h -1.714107 c 0,-0.52346 0.153526,-1.34462 -0.125574,-1.80867 -0.30044,-0.49954 -1.141427,-0.67069 -1.58595,-1.04697 -0.245625,-0.20791 -0.467383,-0.45105 -0.662492,-0.71881 -0.195109,-0.26776 -0.363428,-0.56009 -0.500744,-0.86662 -0.137315,-0.30654 -0.223349,-1.12632 -0.295589,-1.45056 z m 6.850745,0.15245 c -0.22523,1.44411 -1.454295,2.80729 -2.937805,2.9378 0.15184,-1.72836 1.436305,-2.4484 2.937805,-2.9378 z m 1.469161,0.12247 c 1.633008,0.14347 2.732588,1.24863 3.060278,2.81533 -1.58908,-0.13961 -2.573588,-1.38836 -3.060278,-2.81533 z m 8.105448,0.18604 c -0.47326,1.80274 -0.94084,2.1944 -1.50637,2.63808 -0.44408,0.34839 -1.24472,0.51211 -1.54151,1.00407 -0.3041,0.50409 -0.10143,1.24174 -0.16123,1.80247 -1.97484,10e-4 -1.85075,1.23427 -3.1936,2.32028 -0.39455,0.31909 -1.073272,0.64847 -1.544608,0.78393 l -0.03049,-1.30845 c 0.267784,-0.10528 0.712652,-0.30697 0.968938,-0.51418 0.76573,-0.6191 1.10137,-1.55973 1.22886,-2.50579 1.60928,0 1.71411,-0.26234 1.71411,-1.83606 0.96555,-0.0843 1.68765,-0.5125 2.16782,-1.11208 0.24009,-0.29978 0.52456,-0.88139 0.64389,-1.2454 z m -8.962244,0.9157 c 1.11993,0.57256 1.938154,2.71372 1.591118,3.91656 l -0.734322,-0.3669 c -0.16258,0.67322 -0.184726,1.24643 -0.856796,1.59111 l -0.489892,-1.59111 -0.856795,0.3669 c 0,-1.57327 0.535167,-2.59539 1.346687,-3.91656 z m -10.364225,0.65681 c 0.389711,0.88428 0.938445,1.75219 1.55081,2.6479 -0.709405,0.16279 -1.203039,0.49361 -1.55081,0.92811 z m 21.006469,0.37465 v 3.25303 c -0.42069,-0.50501 -0.9554,-0.86626 -1.5844,-0.97978 0.52509,-0.74834 1.16702,-1.356 1.55288,-2.20348 0.0106,-0.0233 0.0212,-0.0465 0.0315,-0.0698 z m -16.640327,3.86437 c 0.28571,0.99441 -0.200365,2.55873 -1.224215,2.9378 l -0.122473,-0.3669 -1.836064,0.73432 0.734839,-1.71359 h -0.489892 c 0.11136,-1.47312 1.834565,-1.38681 2.937805,-1.59163 z m 12.240597,0 c 1.17462,0.14845 2.61333,0.15821 3.06028,1.46916 l -0.48989,0.12247 0.61236,1.71359 -1.71411,-0.73432 -0.12195,0.3669 c -1.21075,-0.34295 -1.34598,-1.86891 -1.34669,-2.9378 z m -10.08414,2.86494 c 1.954082,0.0739 3.832863,1.53717 3.460771,3.74499 -0.24873,1.47584 -1.547763,2.14263 -1.994193,3.42511 -0.07805,0.22422 0.08385,0.40902 0.289904,0.58395 l -0.922424,0.7431 c -0.206719,-0.66423 -0.120754,-1.67919 0.06976,-2.05879 -0.94284,-0.2251 -1.852041,-0.14641 -2.403471,-1.10225 -0.94074,-1.63061 0.163555,-3.68724 2.158525,-3.11196 1.08137,0.3118 1.40583,2.13665 0.0015,2.11925 -0.80586,-0.01 -0.472946,-1.44572 -1.092956,-1.10122 -1.09404,0.60787 -0.0945,2.20545 0.84646,2.30787 2.8358,0.30865 2.826669,-3.9511 0.367419,-4.62918 -0.233128,-0.0642 -0.458075,-0.10044 -0.674377,-0.11214 -0.101391,-0.005 -0.200753,-0.005 -0.298173,0 -3.020063,0.15907 -4.090818,5.26089 -0.618567,6.11901 l -1.101742,0.61185 c 0.432007,0.69384 0.886283,1.38861 1.35754,2.07636 l -0.47749,0.3855 -1.614889,-2.33887 h -0.122473 c 0.358836,1.12029 0.786936,2.40607 0.251664,3.53622 l -0.01705,0.0134 h -0.234611 l -0.121956,-0.36742 h -0.244946 c -0.30249,0.88175 -1.297104,1.31382 -1.836064,0.36742 1.58533,-0.17658 1.580011,-1.95664 1.346171,-3.18275 -0.46826,-2.45531 -0.931336,-6.34256 1.836064,-7.67136 0.44016,-0.21135 0.917269,-0.3264 1.398364,-0.3545 0.130297,-0.008 0.260918,-0.009 0.39119,-0.004 z m 8.35143,0.008 c 0.70821,0.0419 1.40351,0.27268 1.97766,0.72502 1.7687,1.39349 1.8315,4.023 1.49913,6.0725 -0.29189,1.79996 -0.82628,3.551 1.07125,4.52892 v 5.2e-4 c -0.71559,0.77423 -1.45884,0.35993 -1.83606,-0.4899 h -0.24495 l -0.12247,0.36742 h -0.20051 l -0.0625,-0.0501 c -0.38136,-1.07324 -0.20971,-2.40977 0.3855,-3.37706 -0.71203,0.5797 -1.34432,1.32235 -1.93941,2.12494 l -0.24495,-0.19689 v -5.2e-4 c 0.51727,-0.75697 0.95128,-1.52898 1.20509,-2.29443 -0.47771,0.0276 -0.72185,-0.0848 -0.97927,-0.48989 0.62738,-0.20054 1.1898,-0.3083 1.61593,-0.86817 1.5665,-2.05817 -0.25475,-5.34005 -2.64532,-5.24515 -0.34151,0.0136 -0.69458,0.0962 -1.0511,0.26096 -2.147959,0.99273 -1.674723,5.14696 0.97927,4.45244 0.82414,-0.21567 1.79157,-2.17805 0.49351,-2.38745 -0.58373,-0.0942 -0.13745,1.82921 -1.45676,1.0728 -1.40984,-0.80831 0.36937,-2.10402 1.33015,-2.05362 1.83133,0.096 2.08668,2.1727 1.14619,3.41633 -0.55112,0.7287 -1.2918,0.73992 -2.12546,0.74001 0.1279,0.45482 0.3049,1.56837 0.0393,2.2288 l -0.86972,-0.70125 c 0.11094,-0.0364 0.22696,-0.0584 0.34107,-0.0594 -0.15131,-1.46768 -1.733094,-2.4111 -2.093414,-3.91708 -0.576412,-2.40915 1.663244,-3.98538 3.787884,-3.85971 z m 6.13244,2.28668 v 7.27243 c -0.33683,-0.23222 -0.73101,-0.45649 -0.77411,-0.81597 -0.24269,-2.02378 0.79516,-3.99347 0.16898,-6.10713 0.22602,-0.0887 0.42735,-0.2069 0.60513,-0.34933 z m -21.006469,0.0248 c 0.162548,0.0889 0.35184,0.15775 0.571541,0.20205 -0.17848,2.25811 -0.258637,4.26233 0.366903,6.48746 -0.38792,0.16262 -0.697014,0.34039 -0.938444,0.53123 z m 10.486699,1.54822 1.468644,2.93781 -0.540536,-0.10801 -0.911572,-0.99528 -1.046965,1.10329 h -0.438732 z m -10.486699,8.9979 c 0.139229,0.22362 0.291252,0.44807 0.449068,0.67231 -0.186454,0.11437 -0.334209,0.23483 -0.449068,0.36019 z m 21.006469,0.0744 v 0.95343 c -0.12035,-0.15751 -0.27859,-0.31676 -0.48266,-0.47801 v -0.12247 c 0.17457,-0.10177 0.33628,-0.22049 0.48266,-0.35295 z" /></g></svg>
