<?xml version="1.0" encoding="UTF-8" standalone="no"?>
<svg
   version="1.2"
   viewBox="0 0 113.38583 113.38583"
   width="30mm"
   height="30mm"
   id="svg1"
   sodipodi:docname="Pradlena2ReminderTokenLaser.svg"
   inkscape:version="1.4.2 (2aeb623e1d, 2025-05-12)"
   xml:space="preserve"
   xmlns:inkscape="http://www.inkscape.org/namespaces/inkscape"
   xmlns:sodipodi="http://sodipodi.sourceforge.net/DTD/sodipodi-0.dtd"
   xmlns="http://www.w3.org/2000/svg"
   xmlns:svg="http://www.w3.org/2000/svg"><sodipodi:namedview
     id="namedview1"
     pagecolor="#ffffff"
     bordercolor="#666666"
     borderopacity="1.0"
     inkscape:showpageshadow="2"
     inkscape:pageopacity="0.0"
     inkscape:pagecheckerboard="0"
     inkscape:deskcolor="#d1d1d1"
     inkscape:zoom="11.61406"
     inkscape:cx="45.46214"
     inkscape:cy="48.389626"
     inkscape:window-width="1920"
     inkscape:window-height="1043"
     inkscape:window-x="0"
     inkscape:window-y="0"
     inkscape:window-maximized="1"
     inkscape:current-layer="text2-6"
     showgrid="false"
     inkscape:document-units="mm" /><defs
     id="defs1"><clipPath
       clipPathUnits="userSpaceOnUse"
       id="cp1"><path
         d="m 275.5,535.5 c -143.78,0 -260,-116.22 -260,-260 0,-143.78 116.22,-260 260,-260 143.78,0 260,116.22 260,260 0,143.78 -116.22,260 -260,260 z"
         id="path1" /></clipPath><clipPath
       clipPathUnits="userSpaceOnUse"
       id="cp1-9"><path
         d="m 275.5,535.5 c -143.78,0 -260,-116.22 -260,-260 0,-143.78 116.22,-260 260,-260 143.78,0 260,116.22 260,260 0,143.78 -116.22,260 -260,260 z"
         id="path1-3" /></clipPath></defs><style
     id="style1">
		tspan { white-space:pre } 
		.s0 { fill: none;stroke: #ff0000;stroke-miterlimit:100 } 
	</style><g
     inkscape:groupmode="layer"
     id="layer1"
     inkscape:label="Template"
     transform="scale(0.1989225)"><path
       id="Path 0 copy"
       class="s0"
       d="m 253.96776,1.9812412 c -4.83809,0.7256238 -12.51049,1.8658898 -17.06826,2.5396834 -4.54737,0.6737937 -14.55576,2.8299332 -22.23856,4.8098491 -7.68279,1.9695513 -20.01678,5.7427953 -27.40888,8.3757733 -7.40247,2.632979 -20.89926,8.551995 -30.00441,13.164891 -9.10514,4.602528 -22.37354,12.263042 -29.48531,17.021062 -7.11177,4.747653 -17.57697,12.48073 -23.26639,17.176553 -5.689435,4.695823 -15.573238,13.828318 -21.968643,20.296736 -6.385022,6.468418 -15.147556,16.191781 -19.456148,21.592491 -4.318975,5.41108 -11.576098,15.42469 -16.133862,22.24555 -4.547382,6.83124 -12.178261,20.3382 -16.95405,30.00974 -5.533687,11.2368 -10.714379,23.75899 -14.316985,34.66408 -3.114645,9.39165 -6.8418376,22.43215 -8.2953386,28.97313 -1.453501,6.54097 -3.5922235,19.22903 -4.7446423,28.19566 -1.3912082,10.80144 -2.09719388,22.31812 -2.10757603,34.1458 0,12.12828 0.67483933,22.9919 2.10757603,33.88662 1.162801,8.82153 3.3222877,21.39554 4.7861709,27.93654 1.4638831,6.55133 4.44356,17.48752 6.623812,24.31875 2.180251,6.83123 6.104705,17.53937 8.721006,23.80046 2.616301,6.2611 7.57897,16.73082 11.015462,23.28217 3.446873,6.54098 9.676163,17.02106 13.86017,23.28215 4.173624,6.2611 11.119282,15.79787 15.427874,21.20896 4.308592,5.40071 13.071127,15.12406 19.466531,21.60285 6.385023,6.47879 16.279208,15.58018 21.968643,20.23455 5.68942,4.64399 13.36182,10.563 17.06825,13.15452 3.69605,2.59151 11.60724,7.66051 17.57698,11.25753 5.98013,3.6074 16.92291,9.43312 24.315,12.96793 7.39209,3.52447 18.80207,8.31359 25.34283,10.63558 6.54075,2.322 18.17914,5.82573 25.86193,7.7849 7.6828,1.94883 22.34238,4.7684 32.58957,6.24037 14.74265,2.1354 22.60194,2.69517 37.7495,2.69517 15.15794,0 23.01723,-0.55977 37.75988,-2.69517 10.24718,-1.47197 24.90677,-4.29154 32.58957,-6.24037 7.68278,-1.95917 19.31079,-5.4629 25.86193,-7.7849 6.54076,-2.32199 17.94035,-7.11111 25.34283,-10.63558 7.39208,-3.53481 18.33487,-9.36053 24.30461,-12.96793 5.98012,-3.59702 13.89132,-8.66602 17.58736,-11.25753 3.69605,-2.59152 11.37883,-8.51053 17.06826,-13.1649 5.68942,-4.65435 15.57322,-13.76612 21.95824,-20.23454 6.39541,-6.46842 15.14756,-16.19177 19.46654,-21.59248 4.30859,-5.41109 11.42035,-15.18628 15.79125,-21.72725 4.37088,-6.55136 11.24387,-18.42049 15.27214,-26.39199 4.02828,-7.96113 9.22972,-19.37415 11.5657,-25.345 2.336,-5.98121 5.92822,-16.45093 7.99426,-23.28216 2.06605,-6.83123 4.88999,-18.23389 6.27083,-25.35538 1.39121,-7.1111 3.22885,-18.75218 4.08018,-25.86329 0.86172,-7.11113 1.5677,-20.84614 1.5677,-30.52804 0,-9.81665 -0.70598,-23.07484 -1.59885,-30.00973 -0.8721,-6.82087 -2.30483,-16.368 -3.16655,-21.20894 -0.86172,-4.83059 -2.907,-13.91125 -4.54739,-20.17235 -1.64037,-6.2611 -4.91075,-16.96923 -7.27788,-23.80045 -2.35675,-6.83125 -8.17076,-20.33822 -12.9154,-30.00974 -4.74463,-9.67154 -12.35476,-23.1785 -16.90213,-30.00974 -4.55776,-6.82086 -11.81489,-16.83447 -16.13386,-22.24555 C 502.62025,101.55757 493.85772,91.844574 487.47269,85.386521 481.08767,78.918102 471.20387,69.816706 465.51445,65.151982 459.82502,60.487257 452.14224,54.557873 448.44619,51.96636 444.75015,49.374846 436.83895,44.31621 430.85883,40.708823 424.88909,37.101437 413.9463,31.275712 406.55422,27.751254 399.15174,24.226796 387.75215,19.448044 381.21139,17.136415 374.66025,14.814417 363.95626,11.528378 357.4155,9.8179792 350.87475,8.1075792 341.33354,5.9929045 336.20478,5.1325219 331.08637,4.2617733 321.77358,2.8416237 315.52353,1.970875 308.01724,0.92390344 297.0952,0.4366989 283.45307,0.52999334 272.07423,0.60255536 258.80584,1.2556173 253.96776,1.9812412 Z"
       style="stroke:#000000;stroke-width:1.03741;stroke-opacity:1"
       inkscape:label="vnejsi kruh" /><path
       id="Path 0"
       class="s0"
       d="m 267.84026,54.239696 c -1.95608,0.186876 -6.97966,0.783106 -11.14967,1.308142 -4.1789,0.533936 -9.7982,1.379333 -12.50114,1.886573 -2.69405,0.49834 -10.33168,2.251428 -16.95568,3.906629 -6.62399,1.6463 -17.07126,4.88551 -23.20625,7.190332 -6.13497,2.304822 -15.57752,6.407227 -20.97453,9.103601 -5.4059,2.705276 -13.83485,7.341616 -18.74282,10.304958 -4.90802,2.963342 -12.14551,7.804357 -16.06658,10.767704 -3.92993,2.963345 -10.55395,8.284895 -14.73283,11.817775 -4.17002,3.53287 -10.4206,9.38837 -13.88819,13.00132 -3.46761,3.62186 -9.3003,10.19817 -12.96351,14.62094 -3.66321,4.42276 -9.878209,12.86786 -13.817052,18.75894 -3.938841,5.89998 -9.62037,15.54643 -12.625623,21.4464 -3.005256,5.89111 -7.273069,15.13707 -9.495893,20.54763 -2.222817,5.40164 -5.485916,14.85231 -7.255284,20.99257 -1.769366,6.14026 -4.178908,16.39183 -5.361447,22.78124 -1.173647,6.38054 -2.551797,16.43633 -3.067489,22.32741 -0.515701,5.9 -0.94248,14.94131 -0.94248,20.10268 0,5.16137 0.426779,14.20269 0.94248,20.10269 0.515692,5.89107 1.893842,15.93797 3.067489,22.3274 1.182539,6.38943 3.529838,16.43631 5.219185,22.3363 1.69823,5.89109 4.756835,14.94131 6.801833,20.10267 2.04499,5.15249 6.419503,14.60315 9.718177,20.99257 3.28977,6.38052 9.175803,16.43632 13.061295,22.32741 3.88549,5.89999 10.945169,15.34175 15.693109,20.99257 4.73906,5.65082 11.98545,13.49077 16.10212,17.4241 4.10778,3.93333 10.89183,9.8956 15.06182,13.25051 4.17003,3.346 12.00324,9.0502 17.40914,12.67207 5.39702,3.61295 15.23967,9.39726 21.86368,12.85005 6.62401,3.44387 17.47138,8.3205 24.09538,10.82999 6.63289,2.50949 17.48028,5.93558 24.10427,7.60858 6.624,1.67299 17.47138,3.93333 24.09539,5.019 10.10049,1.6463 15.59531,1.96666 33.92024,1.96666 18.32494,0 23.81976,-0.32036 33.92026,-1.96666 6.62401,-1.08567 17.47137,-3.34601 24.09536,-5.019 6.62402,-1.673 17.47139,-5.09909 24.10429,-7.60858 6.624,-2.50949 17.26687,-7.27933 23.65081,-10.58971 6.38395,-3.31932 16.21773,-9.10361 21.86367,-12.85007 5.64597,-3.74644 13.6837,-9.53075 17.85371,-12.85004 4.17002,-3.3193 12.21662,-10.68762 17.88036,-16.37403 5.66375,-5.68641 13.02573,-13.75775 16.36885,-17.93133 3.34314,-4.18251 9.27363,-12.42291 13.18578,-18.314 3.91216,-5.89998 10.27834,-17.15713 14.14605,-25.01489 3.8588,-7.85774 8.50007,-18.31399 10.2961,-23.22619 1.80493,-4.9122 4.61458,-14.15819 6.24168,-20.54763 1.6271,-6.38943 3.8855,-17.4419 5.00579,-24.56102 1.70713,-10.8033 2.04501,-16.44524 2.04501,-33.94942 0,-17.2995 -0.34677,-23.1995 -1.97387,-33.50445 -1.08473,-6.87887 -3.33423,-17.93135 -5.0058,-24.56105 -1.66267,-6.6386 -4.4901,-16.08034 -6.28614,-20.99256 -1.79603,-4.91222 -6.5351,-15.57313 -10.52727,-23.68004 -3.99219,-8.10693 -10.37614,-19.35517 -14.17271,-25.00599 -3.79657,-5.65081 -9.64704,-13.67766 -12.99906,-17.83346 -3.35202,-4.15578 -9.30029,-10.94567 -13.23024,-15.09256 -3.92995,-4.14689 -10.55395,-10.42065 -14.72397,-13.93572 -4.17888,-3.52398 -10.80291,-8.82773 -14.73284,-11.791075 -3.92106,-2.963347 -11.15857,-7.804362 -16.06657,-10.767704 -4.90799,-2.963342 -13.33693,-7.599682 -18.74282,-10.304958 -5.39701,-2.696374 -14.83955,-6.798779 -20.97455,-9.103601 -6.13497,-2.304822 -16.58224,-5.552931 -23.20626,-7.208131 -6.62399,-1.655201 -14.45721,-3.417187 -17.40022,-3.924427 -2.95191,-0.507238 -7.96659,-1.361536 -11.15856,-1.886573 -3.19197,-0.533934 -14.23495,-1.112365 -24.54885,-1.290343 -10.305,-0.17798 -20.35215,-0.16908 -22.31713,0.01779 z"
       style="display:none;stroke:#000000;stroke-width:0.889511;stroke-opacity:1"
       inkscape:label="vnitrni kruh origo" /><g
       inkscape:groupmode="layer"
       id="layer3"
       inkscape:label="Positions"
       style="display:none"><rect
         style="display:inline;fill:#ff2121;fill-opacity:0.107692;stroke:#000000;stroke-width:1.05245;stroke-opacity:1"
         id="rect1"
         width="300"
         height="300"
         x="135"
         y="80.172386" /><rect
         style="display:inline;fill:#de0000;fill-opacity:0.0923077;stroke:#000000;stroke-width:1.00157;stroke-opacity:1"
         id="rect2"
         width="300"
         height="83.006134"
         x="135"
         y="401.53375" /></g><path
       id="path5-3"
       style="display:none;stroke-width:15.5809"
       d="m 270.08722,461.6585 h 29.82646 v 8.76855 h -29.82646 z"
       inkscape:label="spojovnik pismen" /></g><g
     inkscape:groupmode="layer"
     id="layer2"
     inkscape:label="Content"
     style="display:inline"
     transform="scale(0.1989225)"><path
       id="Path 0-9"
       style="display:inline;opacity:1;fill:none;stroke:#000000;stroke-width:0.941027;stroke-miterlimit:100;stroke-opacity:1"
       class="s0"
       inkscape:label="vnitrni kruh"
       d="m 290.45154,40.854873 c -10.90181,-0.188288 -21.52495,-0.178055 -23.60373,0.01964 -2.06936,0.197699 -7.39036,0.828968 -11.80187,1.384411 -4.42092,0.564859 -10.35625,1.456543 -13.21573,1.99316 -2.85008,0.527201 -10.93081,2.382536 -17.93844,4.133598 -7.00762,1.741644 -18.06582,5.171051 -24.55612,7.609356 -6.49027,2.438305 -16.48028,6.779437 -22.18986,9.63197 -5.71898,2.861951 -14.63139,7.763598 -19.8236,10.89856 -7.87387,4.754053 -12.66369,7.923648 -19.56485,13.375816 1.82535,2.129564 9.99311,8.782187 15.4632,12.649696 3.70486,2.61945 5.52229,3.09083 7.6879,3.00447 1.85755,-0.0741 3.26772,-0.13482 4.87981,0.54984 1.61209,0.68464 2.74378,2.49445 3.09283,3.82922 0.0737,0.28193 0.0771,0.34756 0.0786,0.36329 h 0.01 0.01 v 0.01 h 0.01 c 0.0104,0.006 0.0308,0.0134 0.0491,0.0295 0.14631,0.12844 0.90577,0.61227 2.651,1.23713 3.49046,1.24975 10.57808,3.11849 23.95719,6.52932 5.53858,1.41199 8.94554,1.61454 9.82835,1.36478 0.19309,-0.0546 0.2815,-0.0744 0.31419,-0.0884 l 0.01,-0.01 v -0.01 h 0.01 v -0.01 c 0.006,-0.0208 0.007,-0.0554 0.0393,-0.11782 0.10268,-0.19955 0.30437,-0.9373 0.30437,-2.20917 0,-1.21157 0.28031,-2.98958 1.79679,-4.11396 1.5165,-1.12437 2.98654,-0.94973 4.21215,-0.77566 0.69035,0.098 1.44539,0.22977 2.29753,0.67748 0.85215,0.44771 1.68262,1.31641 2.10117,2.19935 0.83708,1.76588 0.73639,3.22423 0.73639,5.41982 v 2.49391 l 5.41,1.39423 c 4.50987,1.15978 6.70455,1.56421 7.45226,1.62987 0.80977,-2.22096 2.75579,-3.97802 5.10563,-4.04523 2.26392,-0.0648 4.35039,1.63976 5.14491,3.79977 0.0739,0.0434 0.20894,0.10731 0.41238,0.18655 0.78323,0.30509 2.28739,0.65513 4.32015,0.87385 4.06549,0.43742 10.24661,0.44085 18.14463,-0.0589 l 8.84649,-0.55966 -0.12765,-0.78548 c -0.26322,-1.64612 -0.40316,-2.95372 -0.13745,-4.37906 0.26569,-1.42536 1.49793,-3.14838 2.96519,-3.7114 0.78182,-0.30003 1.63948,-0.55795 2.73937,-0.45166 1.0999,0.1063 2.36857,0.81429 3.04374,1.70843 1.35033,1.78827 1.26659,3.39212 1.26659,5.41 0,0.32866 0.0191,0.30707 0.0393,0.5302 0.65969,-0.1059 1.70368,-0.29106 3.0732,-0.75602 3.19163,-1.08359 7.35897,-1.87534 10.43709,-1.87534 1.79815,0 5.62173,-0.75409 7.17734,-1.40405 1.05507,-0.44084 1.36149,-0.64344 1.45314,-0.67748 h 0.01 0.01 0.01 c -0.0123,-0.0634 -0.005,-0.0466 -0.0295,-0.14728 -0.16952,-0.67543 -0.3214,-1.26917 -0.36328,-2.03243 -0.0419,-0.76325 0.0672,-1.93696 0.86403,-2.93574 0.79683,-0.99876 1.87685,-1.34359 2.62154,-1.48259 0.7447,-0.13907 1.36693,-0.14728 2.07171,-0.14728 0.70459,0 1.32756,0.008 2.07171,0.14728 0.74413,0.13888 1.82421,0.48592 2.62154,1.48259 0.66478,0.83098 0.80562,1.73874 0.82476,2.47427 1.074,-0.3727 2.0353,-0.70202 3.29902,-1.14877 2.20401,-0.77913 4.46726,-1.48932 6.4115,-2.01279 1.40789,-0.37907 2.40553,-0.52135 3.48557,-0.66766 -0.29258,-1.06597 -0.54575,-2.17623 0.39274,-3.7605 0.58352,-0.98502 1.67419,-1.60339 2.44482,-1.81642 0.77063,-0.21276 1.36561,-0.21601 1.97352,-0.21601 1.21188,0 2.38932,0.29022 3.43648,1.03094 0.37002,0.26175 0.66841,0.68732 0.97204,1.08986 0.76641,-0.2099 1.60437,-0.42045 3.73103,-1.2175 3.95473,-1.48215 8.81617,-2.99483 11.62514,-3.51503 1.68017,-0.31114 4.49693,-1.83611 4.6147,-1.95389 1.91508,-1.9151 4.41727,-3.05468 7.0497,-3.63285 0.27231,-0.0598 0.27946,-0.0885 0.46147,-0.14728 -0.0164,-0.0802 -0.0104,-0.069 -0.0294,-0.15709 -0.32683,-1.48778 -0.93041,-2.62778 0.0785,-4.663801 0.50449,-1.018011 1.64851,-1.793406 2.47427,-2.042253 0.82576,-0.249009 1.43897,-0.255281 2.05207,-0.255281 1.24649,0 2.7277,0.306837 3.8685,1.404049 0.60522,0.582094 0.96711,1.290786 1.19786,2.012796 0.3275,-0.1492 0.53322,-0.23944 0.9033,-0.41238 2.16441,-1.011477 4.99906,-2.398356 7.85482,-3.83904 2.85576,-1.440683 5.74077,-2.936415 8.03155,-4.172872 2.09736,-1.13206 3.96217,-2.288864 4.17288,-2.405538 v -0.0098 -0.0098 c 0.0536,-0.211874 0.78548,-1.588592 0.78548,-2.022616 0,-2.429338 1.03095,-4.717849 3.3383,-5.704561 1.15367,-0.493356 2.71021,-0.485551 3.91759,0.19637 0.25394,0.143429 0.40488,0.379536 0.61856,0.559656 0.74371,-0.445473 3.14468,-1.741128 4.51196,-2.815635 2.67762,-2.104265 -9.46194,-6.373078 -15.06936,-9.179209 -5.70957,-2.852533 -15.69955,-7.193665 -22.18986,-9.63197 -6.49027,-2.438305 -17.53866,-5.877933 -24.54631,-7.628993 -7.00761,-1.751061 -15.29628,-3.616618 -18.40973,-4.153235 -3.12287,-0.536614 -8.43484,-1.437716 -11.81168,-1.99316 -3.37683,-0.564857 -15.05877,-1.176489 -25.96999,-1.364774 z m 132.2555,41.777813 c -6.05477,4.635152 -7.58396,6.358817 -11.43858,9.04286 -0.79452,0.553225 -1.35178,1.105362 -1.71824,1.521871 1.45213,0.798184 2.46178,2.003634 2.68045,3.819405 l -0.01,-0.0098 v -0.0098 h -0.01 v 0.0098 0.0098 0.0098 c -10e-4,0.04515 0.0107,0.131459 0.0491,0.216007 v 0.0098 c 0.004,0.009 0.0147,0.02059 0.0196,0.02945 0.1572,0.280005 0.46278,0.759399 0.86403,1.305864 0.80249,1.092937 1.98521,2.497397 3.26956,3.848867 1.47911,1.55639 2.77025,3.15115 3.74086,4.58525 0.48531,0.71705 0.89394,1.3849 1.2175,2.08152 0.25988,0.55955 0.52761,1.18078 0.50074,2.20917 0.0494,0.0549 0.1356,0.14489 0.19637,0.17673 1.45972,0.76596 1.56236,1.31922 2.06189,2.03244 0.49953,0.71322 1.011,1.56702 1.58078,2.57245 1.13957,2.01087 2.47229,4.62405 3.8685,7.56026 2.79243,5.87245 5.82849,12.99615 7.87446,18.80247 0.74739,2.12103 2.77069,7.8332 4.48706,12.68554 1.50793,4.26301 2.39888,7.25986 2.64118,9.4356 0.0606,0.54393 0.17769,0.98059 -0.0884,1.9637 -0.13303,0.49156 -0.42249,1.33894 -1.47278,1.98334 -1.05029,0.64441 -2.42369,0.46424 -3.05356,0.17674 -0.57218,-0.26118 -0.86706,-0.4976 -1.09968,-0.72657 -0.0703,0.0847 -0.12323,0.19294 -0.19637,0.27491 -0.30543,0.34258 -0.62247,0.6737 -1.10949,1.00149 -1.84195,1.23981 -0.72444,-0.27233 -5.28236,2.28772 -1.05688,0.59361 -1.92313,1.06264 -2.88665,1.41387 -0.96351,0.35118 -2.28411,0.67326 -3.73104,0.0687 -1.44692,-0.60455 -2.18058,-1.87568 -2.55281,-2.83756 -0.37224,-0.96187 -0.56239,-1.89128 -0.77567,-3.0241 -1.51478,-8.04579 -3.88864,-14.95245 -6.45077,-19.62723 -1.28106,-2.33739 -2.61148,-4.10685 -3.76049,-5.16454 -1.14902,-1.05769 -1.98674,-1.3255 -2.44481,-1.3255 -1.21249,0 -0.97833,-0.16679 -1.46296,0.82475 -0.48464,0.99154 -0.98402,3.55994 -1.07022,7.63881 -0.29569,13.99032 -0.71282,23.18822 -1.41387,28.67991 -0.35053,2.74584 -0.46106,4.3833 -1.65933,6.21512 -0.29957,0.45795 -0.73333,0.99431 -1.51205,1.40405 -0.77873,0.40976 -1.92792,0.50556 -2.74919,0.24547 -1.10096,-0.34867 -1.61053,-0.87468 -2.00298,-1.41387 -0.38687,0.04 -0.75059,0.11762 -1.15858,0.0589 -0.47457,0.63694 -1.10344,1.22169 -2.22881,1.47278 -0.50106,0.11177 -1.03953,0.0736 -1.56114,-0.0393 -0.1084,0.20361 -0.17524,0.48506 -0.29456,0.67748 -0.30433,0.4908 -0.57611,0.96561 -1.34514,1.52187 -0.38451,0.27814 -0.96047,0.61565 -1.8557,0.66766 -0.0693,0.004 -0.14476,-0.0376 -0.216,-0.0393 -0.32224,0.44035 -0.59973,0.82721 -0.97204,1.22731 -0.39934,0.42915 -0.91616,1.19658 -2.53318,1.33532 -0.8085,0.0694 -1.73733,-0.24765 -2.27789,-0.6382 -0.54058,-0.39055 -0.8013,-0.77065 -0.99167,-1.07022 -0.38075,-0.59915 -0.50875,-1.00748 -0.6873,-1.47278 -0.52984,-1.38074 -0.45845,-2.4264 -0.34365,-3.58376 0.1148,-1.15737 0.37705,-2.33671 0.82476,-3.48558 0.26479,-0.6795 0.84105,-5.06219 0.7953,-9.87743 -0.0457,-4.81524 -0.46281,-10.43974 -1.2175,-15.1598 -0.64184,-4.01418 -1.57228,-9.86919 -2.07171,-13.00954 -0.61424,-3.86247 -3.65062,-10.83686 -7.00061,-16.41657 -1.67499,-2.78986 -3.43476,-5.29079 -4.89944,-6.96133 -0.73233,-0.83528 -1.39922,-1.46203 -1.83606,-1.78697 -0.0841,-0.0627 -0.0947,-0.0548 -0.1571,-0.0884 -0.14261,0.0422 -0.23357,0.0675 -0.42219,0.12764 -0.72886,0.23231 -1.76035,0.58896 -2.98484,1.03095 -2.44897,0.88396 -5.67696,2.12114 -9.06249,3.47575 -3.44255,1.37743 -6.72218,2.62803 -9.24905,3.54449 -1.26343,0.45823 -2.33674,0.82783 -3.1812,1.09967 -0.0101,0.003 -0.01,0.006 -0.0196,0.01 -2.1e-4,0.61882 -0.006,1.28208 0.11782,2.20917 0.33014,2.4882 1.32439,5.63206 1.76734,6.32313 0.0517,0.0807 1.44203,1.86659 3.15174,3.85868 1.70971,1.99209 3.89294,4.45843 6.10712,6.88278 7.08308,7.7554 12.38073,16.63776 15.26781,24.88014 2.88703,8.24237 3.65906,16.02613 0,21.61057 -0.94038,1.4352 -2.1782,2.8531 -3.93723,3.56412 -1.75856,0.7107 -3.47703,0.73641 -5.80275,0.71675 l -17.16277,-0.13746 12.44988,-6.75514 c -1.22947,-0.0839 -2.51643,-0.15288 -3.42666,-0.24546 -0.0119,-8.6e-4 -1.89815,0.60209 -2.19935,0.9033 -1.57313,1.57314 -3.7391,2.62858 -6.06785,2.84737 -2.32875,0.2188 -4.76226,-0.21152 -7.6879,-1.05058 -3.91858,-1.12384 -10.95011,0.16106 -21.40438,5.20382 l -13.20591,6.37222 -0.6873,-8.72867 c -0.25703,-3.27383 0.48537,-8.33457 1.54151,-12.78371 3.5163,-14.81313 4.47299,-24.50326 3.43648,-32.93133 -0.34066,-2.77006 -0.66666,-4.42771 -0.92294,-5.38055 h -0.01 -0.01 -0.01 c -0.006,-3.1e-4 -0.0239,-0.009 -0.0294,-0.01 h -0.01 c -0.92171,-0.33916 -1.55475,-1.00612 -1.91461,-1.58078 -0.71974,-1.14933 -0.77132,-2.07386 -0.78548,-3.00447 -0.006,-0.39868 0.10779,-0.81273 0.14727,-1.2175 -0.75131,0.20141 -0.65993,0.13182 -1.64951,0.43202 -3.31391,1.0053 -7.46471,1.78821 -10.37818,1.79679 -0.60434,0.002 -0.80744,0.0598 -1.20767,0.0982 0.14934,0.31219 0.16149,0.43706 0.41237,0.86403 l 3.27939,5.57693 -5.46892,4.88962 c -1.64481,1.47346 -1.96912,1.8363 -2.19935,2.53318 -0.23022,0.69687 -0.36328,2.45008 -0.36328,6.03839 0,8.11134 2.23293,20.92102 4.78162,27.73733 1.97879,5.29214 4.05222,11.26381 5.64565,16.13183 0.79671,2.43402 1.46816,4.58732 1.95389,6.26422 0.24287,0.83845 0.4441,1.55703 0.58911,2.16007 0.145,0.60305 0.27492,0.86998 0.27492,1.80661 0,0.52008 0.0867,1.10962 -0.49093,2.15026 -0.13457,0.2424 -0.51412,0.43744 -0.76585,0.68729 0.55395,1.08632 1.11419,2.16208 1.64952,3.45612 1.48168,3.58167 2.83233,7.71868 3.46593,11.21276 0.17241,0.95078 1.14867,4.72228 2.04226,7.66826 1.12557,3.7108 2.08121,5.36228 1.54151,8.12974 -0.26985,1.38373 -1.71401,2.88456 -2.85719,3.29902 -2.02033,0.73248 -2.52015,-0.0444 -5.81257,1.55133 -1.45849,0.70688 -3.14011,1.70266 -4.55579,2.71973 l -8.11992,5.8322 -4.43797,-5.53765 c -1.98909,-2.47635 -4.88827,-7.71299 -7.37372,-12.78371 -5.43217,-11.08252 -7.43713,-21.61894 -7.47189,-38.45915 l -0.0196,-9.79889 -1.15858,-0.47129 c -1.28637,-0.53284 -2.41237,-1.25267 -3.3383,-2.16989 -0.25257,0.86146 -0.43857,1.93274 -0.58911,3.79977 -0.27118,3.36342 -0.33812,8.92353 -0.33383,18.54718 l 0.01,20.91346 3.88813,6.12676 c 2.15829,3.40198 3.32521,4.83247 3.87832,7.05951 0.27655,1.11352 -0.0423,2.97413 -0.88367,3.92741 -0.10797,0.12235 -0.19153,0.15462 -0.29456,0.25528 0.0797,0.1035 0.16727,0.14814 0.24547,0.2651 0.78178,1.16954 0.74254,3.41873 0.0196,4.5558 -1.44581,2.27413 -3.27475,2.92301 -6.30349,4.5067 -3.35387,1.75369 -5.90932,2.84699 -8.46356,3.0732 -2.0081,0.17784 -4.14763,-0.68332 -5.56711,-2.09135 -0.473,0.40026 -0.94695,0.81664 -1.39423,1.12913 -0.31607,0.22083 -0.62227,0.41221 -0.97203,0.59893 -0.34976,0.18673 -0.48128,0.52038 -1.8557,0.52038 -0.97527,0 -1.92737,-0.44818 -2.51354,-0.95239 -0.58618,-0.50422 -0.91546,-1.03553 -1.17822,-1.54151 -0.52553,-1.01198 -0.80124,-2.04113 -1.05059,-3.29902 -0.49868,-2.51581 -0.79736,-5.91694 -0.97203,-10.42727 -0.19492,-5.03287 -0.84251,-13.49246 -1.42369,-18.52756 -0.58576,-5.07496 -1.30024,-13.10714 -1.83606,-20.05924 -0.26791,-3.47605 -0.48969,-6.67283 -0.62839,-9.10177 -0.0693,-1.21447 -0.11505,-2.23489 -0.13745,-3.0241 -0.0113,-0.39461 -0.0239,-0.72802 -0.0196,-1.03095 0.003,-0.19901 -0.0132,-0.30319 0.0196,-0.56947 h 0.01 0.01 v -0.01 h 0.01 v -0.01 c 0,-0.006 -0.006,-0.0804 -0.01,-0.18655 -0.008,-0.21421 -0.0302,-0.56169 -0.0589,-1.00149 -0.0579,-0.88544 -0.14733,-2.16119 -0.27492,-3.70158 -0.25517,-3.08079 -0.63366,-7.25225 -1.07022,-11.75278 -1.09117,-11.24881 -1.63264,-19.94773 -1.61023,-26.37255 0.0205,-5.88312 0.17717,-9.64149 1.8557,-12.6168 -0.95544,-0.19527 -1.8933,-0.38688 -3.02411,-0.58911 -2.53858,-0.45399 -4.52747,-0.68572 -5.89111,-0.84439 -0.22351,0.84508 -0.46741,1.90437 -0.62839,3.35793 -0.40134,3.62409 -1.24749,9.18663 -1.92443,12.66589 -0.31836,1.63637 -0.59049,2.86369 -0.98185,3.93723 -0.19569,0.53677 -0.36905,1.04255 -0.93276,1.71824 -0.28185,0.33785 -0.69309,0.76147 -1.41387,1.05059 -0.72077,0.28907 -1.74996,0.28479 -2.46445,0.01 -1.42898,-0.54995 -1.72747,-1.3404 -2.02261,-1.88515 v -0.01 h -0.01 c -0.58626,3.05581 -1.16654,6.21181 -1.97352,9.26868 -1.78707,6.76945 -2.63686,11.7628 -4.98781,29.33775 -0.20723,1.54912 0.20518,6.49414 1.08003,9.79889 1.05469,3.98409 1.86053,9.63948 1.88516,13.47101 0.0332,5.16115 1.06722,11.08738 2.70991,16.25947 1.64268,5.17209 3.99159,9.61844 5.97948,11.69386 1.4173,1.4797 2.76886,2.66763 3.0732,4.88963 0.30434,2.22198 -0.50112,3.6443 -1.40405,5.90093 -0.74193,1.85427 -0.91883,2.6772 -0.95239,2.759 0.0614,0.072 0.0225,0.0323 0.16691,0.17674 0.79316,0.79315 1.53581,1.62294 1.9637,2.9161 0.4279,1.29317 0.13688,3.1031 -0.6382,4.21215 -1.55016,2.21808 -3.6253,2.94154 -6.74532,4.22196 l -7.46208,3.06338 -4.04523,-5.04672 c -2.02385,-2.5247 -4.21488,-7.04415 -5.83221,-11.26185 -2.33261,-6.08148 -2.96519,-10.13208 -2.96519,-18.85156 0,-4.94295 -0.0922,-7.57413 -0.34365,-8.73849 -0.25146,-1.16435 -0.28182,-1.06742 -1.53169,-2.23862 -1.27913,-1.19863 -2.35097,-2.4224 -2.94555,-4.02559 -0.53135,-1.4327 -0.51397,-2.90655 -0.32401,-4.36925 -0.87095,0.65976 -1.78308,1.24227 -2.67064,1.69861 -0.51027,0.26236 -0.95741,0.50347 -1.49242,0.6873 -0.008,0.40557 -0.0158,0.79483 -0.0884,1.22731 -0.0931,0.5552 -0.12956,1.30054 -1.08985,2.23862 -0.48016,0.46904 -1.2879,0.87202 -2.03244,0.94258 -0.74453,0.0706 -1.3379,-0.11473 -1.74769,-0.29455 -0.81959,-0.35965 -1.1565,-0.72448 -1.51205,-1.08004 -1.95564,-3.08335 -1.12907,-5.94285 -0.1671,-9.2985 0.0137,-0.1649 0.0898,-0.35817 0.108,-0.5302 -0.92505,-0.17431 -1.83668,-0.5128 -2.25826,-0.99167 -0.45021,-0.51139 -0.54268,-0.8563 -0.69711,-1.22732 -0.16948,0.003 -0.55279,-0.0387 -1.73788,0.14728 -0.84481,0.13256 -1.7625,0.39937 -2.3859,0.66766 -0.34601,0.14891 -0.60008,0.40756 -0.65784,0.45165 0.007,-0.0166 0.0277,-0.0601 0.0687,-0.12764 -0.40875,0.66208 -0.87987,1.29832 -1.75752,1.87534 -1.02964,0.67695 -3.05573,0.79436 -4.20233,0.12764 -0.68315,-0.39725 -1.15712,-0.83148 -1.55132,-1.28623 -0.3374,3.23935 -0.73315,7.10551 -1.02113,9.8578 -0.29339,2.80404 0.0422,13.15586 0.71675,22.4255 0.33726,4.63483 0.73653,9.10587 1.13895,12.47935 0.20121,1.68674 0.40987,3.10715 0.58911,4.0845 0.0876,0.47768 0.17059,0.84814 0.22583,1.05058 v 0.01 c 0.001,0.002 -0.001,0.008 0,0.01 0.0143,0.0514 0.0516,0.10318 0.0687,0.12764 v 0.01 h 0.01 v -0.01 c 0.67499,1.10173 0.71975,2.08216 0.71675,3.03393 -0.003,1.09106 -0.20529,2.179 -0.60875,3.26956 -0.23989,0.64851 -0.41838,1.14993 -0.64802,1.65933 -0.11483,0.2547 -0.21957,0.5117 -0.49093,0.89349 -0.27136,0.38179 -0.77789,1.18821 -2.23862,1.40405 -1.46073,0.21584 -2.6547,-0.75604 -3.03392,-1.23714 -0.37923,-0.48109 -0.47762,-0.76506 -0.58911,-1.03094 -0.0434,-0.10342 -0.0705,-0.20554 -0.10801,-0.30437 l -0.0393,-0.0196 -0.14728,-0.47129 c -0.11887,0.0377 -0.14093,0.0182 -0.27492,0.0687 -1.61492,0.60954 -3.31525,1.24836 -5.29218,0.57929 -1.97694,-0.66907 -2.90368,-1.97018 -4.20233,-3.53467 -1.21894,-1.46845 -2.17748,-2.84443 -2.651,-4.54597 -0.47336,-1.70156 -0.3385,-3.39745 0,-5.16455 0.12033,-0.62818 0.35872,-2.97549 0.51056,-5.72419 0.15184,-2.7487 0.26383,-6.04323 0.29456,-9.18032 0.0319,-3.26414 0.17946,-6.40709 0.40256,-8.91522 0.11154,-1.25407 0.23806,-2.34521 0.39274,-3.25975 0.13644,-0.80671 0.0532,-1.26481 0.61856,-2.2779 l 0.01,-0.01 h 0.01 c 0.0174,-0.028 0.0444,-0.081 0.0589,-0.13746 0.0467,-0.19297 0.11445,-0.55695 0.18655,-1.0113 0.14423,-0.90873 0.29979,-2.21855 0.45166,-3.78013 0.30373,-3.12317 0.58834,-7.26505 0.76584,-11.61532 0.48544,-11.8971 0.90423,-17.12827 2.84737,-20.84472 0.64491,-1.23347 1.50224,-4.70969 1.50224,-6.20531 0,-3.46287 1.36609,-7.25537 3.42666,-10.73164 1.34465,-2.2685 1.83764,-3.19933 2.29754,-5.91075 0.45989,-2.71142 0.74217,-7.18786 1.13894,-15.40526 0.67405,-13.96002 1.12578,-22.23467 1.58079,-27.12858 0.2275,-2.44696 0.42303,-4.00803 0.76584,-5.28237 0.1714,-0.63716 0.32511,-1.22742 0.93276,-2.00298 0.17142,-0.21879 0.56405,-0.39259 0.88367,-0.58911 0.009,-0.0777 0.01,-0.0249 0.01,-0.11782 0,-0.2185 0.0185,-0.31508 0.0294,-0.34365 h -0.01 -0.01 -0.01 l -0.01,-0.01 -0.01,-0.01 c -0.0174,-0.0112 -0.0414,-0.0221 -0.0687,-0.0491 -0.21858,-0.21586 -1.18519,-0.85684 -3.04374,-1.67897 -8.62978,-3.81736 -20.14976,-12.74927 -28.66027,-22.327319 l -0.71675,-0.66766 c -0.54135,0.450817 -1.06529,0.885149 -1.55133,1.296049 -4.41153,3.73748 -11.02011,9.92374 -14.68851,13.74593 -3.66844,3.83162 -9.84111,10.79508 -13.716475,15.47399 -3.875363,4.67891 -10.452824,13.61098 -14.61978,19.84324 -4.166956,6.24167 -10.173882,16.44893 -13.35319,22.6906 -3.179298,6.23229 -7.692785,16.0143 -10.044349,21.73821 -2.351553,5.71447 -5.806243,15.71363 -7.678085,22.2095 -1.871842,6.49587 -4.42408,17.3352 -5.675106,24.09465 -1.241622,6.75007 -2.694556,17.39111 -3.240112,23.62337 -0.545566,6.2417 -1.00149,15.80663 -1.00149,21.26692 0,5.46028 0.455924,15.02523 1.00149,21.26692 0.545556,6.23225 1.99849,16.8639 3.240112,23.62337 1.251026,6.75947 3.740641,17.38167 5.527828,23.62336 1.796583,6.23227 5.033542,15.80664 7.196977,21.26692 2.163425,5.45089 6.790273,15.45004 10.279994,22.2095 3.480296,6.75004 9.704144,17.39109 13.814661,23.62336 4.110516,6.24169 11.580208,16.23141 16.603122,22.2095 5.013523,5.97808 12.680053,14.26825 17.035133,18.42937 4.34568,4.16113 11.52397,10.47164 15.93547,14.02085 4.41153,3.53978 12.69075,9.57065 18.40973,13.40228 5.70958,3.82219 16.12479,9.9459 23.13243,13.59866 7.00764,3.64332 18.48127,8.80339 25.48889,11.45821 7.01703,2.65483 18.5009,6.2813 25.50852,8.05119 7.00763,1.76988 18.48126,4.15346 25.48889,5.302 10.68546,1.74165 16.50049,2.08153 35.8867,2.08153 19.38622,0 25.19142,-0.33988 35.87688,-2.08153 7.00764,-1.14854 18.49109,-3.53212 25.4987,-5.302 7.00765,-1.76989 18.48166,-5.39636 25.4987,-8.05119 7.00762,-2.65482 18.26394,-7.70083 25.0176,-11.20293 6.75368,-3.51156 17.15952,-9.63522 23.13244,-13.59866 5.97295,-3.96341 14.4695,-10.07731 18.88102,-13.58883 4.41152,-3.51154 12.92854,-11.31395 18.92029,-17.32969 5.99176,-6.01573 13.78315,-14.5541 17.31988,-18.96939 3.53676,-4.42474 9.80358,-13.13967 13.9423,-19.37194 4.13873,-6.24167 10.88153,-18.14808 14.97324,-26.46092 4.08228,-8.31282 8.98871,-19.37908 10.88875,-24.57576 1.90947,-5.19669 4.88653,-14.97873 6.60786,-21.73821 1.72133,-6.75947 4.10702,-18.44839 5.29219,-25.97981 1.80599,-11.42897 2.16007,-17.39824 2.16007,-35.91616 0,-18.3014 -0.3602,-24.54311 -2.08153,-35.44487 -1.14756,-7.27725 -3.53362,-18.96615 -5.302,-25.97981 -1.75896,-7.02307 -4.74708,-17.01279 -6.64714,-22.2095 -1.90005,-5.19671 -6.91083,-16.48045 -11.1342,-25.05687 -4.2234,-8.57644 -10.97644,-20.47301 -14.99289,-26.4511 -4.01644,-5.97807 -10.2096,-14.47472 -13.75575,-18.8712 -3.54615,-4.39646 -9.84366,-11.57786 -14.00121,-15.96491 -4.15756,-4.38706 -11.16065,-11.01897 -15.57218,-14.73761 -4.42089,-3.728071 -11.42446,-9.344375 -15.58199,-12.479341 -1.93599,-1.463124 -4.64413,-3.357758 -7.50135,-5.282366 z"
       sodipodi:nodetypes="cccccscscssssccccccssscccccssssssscccscsscccssssscssscccccsscscscsscscsscsscsccscsscssscccssscscssccccsccccccccccsssssccsssssssssccsssssssssssssssccscssccssssssssssssscsssscccssssscccccssscccssccccccsscssccccsssssssscsssssccccsccccscccssccssscsssssssssssscccccsccssscscsssssscccssssssssccssccccsssscscsssssccscssccsscsssscccccccsssssssccccsscsssssccccssssssssssscscccccccsccccscccsccsccccccccccccscscsccsssccccscsccsssssccccs" /><g
       id="path1-91"
       style="display:inline;opacity:1"
       transform="matrix(0.81617275,0,0,0.81617275,65.175367,44.290636)" /><g
       id="text2-6"
       inkscape:label="Text"
       style="opacity:1"><path
         id="path10"
         style="font-size:106.743px;font-family:'New Rocker';-inkscape-font-specification:'New Rocker';letter-spacing:4.32329px;baseline-shift:baseline;white-space:pre;display:inline;overflow:visible;vector-effect:none;fill:none;stroke:#000000;stroke-opacity:1;enable-background:accumulate;stop-color:#000000;stop-opacity:1"
         d="m 411.65138,351.27728 v 2.40554 l 3.95686,1.70842 v 13.95213 h -9.49451 c 0.0473,-3.60141 0.18489,-6.383 0.38293,-8.28684 0.29191,-2.16443 0.86516,-3.61239 1.45314,-4.45761 z m -99.11259,2.80154 -0.47669,6.72243 h 8.85631 v 9.5436 h -10.34872 c 0.0491,-1.32973 0.10858,-2.44825 0.18655,-3.35793 l 0.46147,-5.31182 -5.41982,1.15859 -14.39396,1.08003 c -1.48906,0.23824 -2.94089,0.0906 -4.27105,0.38292 -0.0197,-0.72803 -0.0589,-1.46154 -0.0589,-2.18953 v -0.12764 c 0.61993,0.21 1.24499,0.44226 1.86552,0.63821 l 0.0295,0.01 0.0294,0.01 c 1.07402,0.3222 1.97425,0.35892 3.16157,0.37311 l 12.86226,-1.15859 c 0.64699,-0.3648 1.49581,-0.33919 2.07171,-0.81493 l 0.0393,-0.0393 4.38946,-6.86345 1.6885,-2.64131 2.0128,-4.79144 -6.33295,-0.45165 c -6.12068,-0.44069 -11.04316,-1.32076 -14.64923,-2.44481 v -5.52783 c 3.97045,-4.2166 7.06577,-7.53185 9.30796,-9.9658 l 0.0393,-0.0393 c 2.53133,-2.67209 4.31393,-4.56596 5.32164,-5.64566 l 3.35793,-3.59357 -3.84886,-3.0732 c -0.99023,-0.79217 -1.70396,-1.42904 -2.07171,-1.79679 -0.63647,-0.63648 -1.4839,-1.44847 -2.57245,-2.46445 l -2.86701,-2.67064 -3.07319,2.43499 c -1.67227,1.32388 -3.49435,2.71895 -5.4591,4.19251 -0.99203,0.73476 -1.91432,1.40547 -2.86701,2.10117 -0.99845,-0.7018 -1.95595,-1.37909 -2.99465,-2.1208 -1.93287,-1.45023 -3.68822,-2.82138 -5.25291,-4.11396 l -2.99465,-2.46445 -2.9161,2.54299 c -1.17907,1.03169 -2.07501,1.85901 -2.77864,2.56264 -0.34459,0.34459 -1.08437,1.02487 -2.11099,1.91461 l -3.70158,3.20084 3.46594,3.46594 c 2.44461,2.44461 4.99882,5.11209 7.66827,7.99227 l 0.0393,0.0393 0.0393,0.0393 c 2.52601,2.59079 5.02597,5.34142 7.50136,8.24756 v 3.68195 c -4.03946,1.68033 -7.40534,2.90113 -10.0149,3.67213 -2.78903,0.82404 -5.2681,1.20767 -7.45226,1.20767 h -6.40167 l 2.08152,6.04821 c 0.59367,1.72164 1.0257,3.6423 1.27641,5.77329 l 0.01,0.0589 0.01,0.0687 c 0.2478,1.68502 0.40579,3.65858 0.46147,5.91075 h -7.74682 c -0.14858,-0.82624 -0.27336,-1.67635 -0.38292,-2.55282 -0.2051,-1.64079 -0.37367,-3.27908 -0.51056,-4.91908 -0.13422,-1.67788 -0.19637,-3.19633 -0.19637,-4.54598 0,-1.75249 0.10258,-3.13884 0.25528,-4.05505 l 0.85421,-5.13508 -5.20382,-0.17674 c -4.11067,-0.13935 -8.2555,-0.37843 -12.44006,-0.72657 -0.33917,-0.034 -0.65937,-0.071 -0.96222,-0.108 v -4.65398 c 4.12241,-4.37694 7.32078,-7.80143 9.62215,-10.29963 l 0.0491,-0.0393 c 2.53063,-2.67135 4.30428,-4.56615 5.31182,-5.64566 l 3.35793,-3.59357 -3.83904,-3.0732 c -0.99023,-0.79218 -1.71375,-1.42902 -2.08153,-1.79679 -0.63647,-0.63648 -1.4839,-1.44847 -2.57245,-2.46445 l -2.86701,-2.67064 -3.0732,2.43499 c -1.67227,1.32388 -3.48453,2.71895 -5.44928,4.19251 -0.99203,0.73476 -1.91432,1.40547 -2.86701,2.10117 -0.99845,-0.7018 -1.96576,-1.37909 -3.00446,-2.1208 -1.93286,-1.45023 -3.68821,-2.82138 -5.25291,-4.11396 l -2.98483,-2.46445 -2.9161,2.54299 c -1.17908,1.03169 -2.08483,1.859 -2.78847,2.56264 -0.34459,0.34459 -1.08436,1.02487 -2.11098,1.91461 l -3.70158,3.20084 3.46594,3.46594 c 2.44461,2.44461 4.99881,5.11209 7.66826,7.99227 l 0.0393,0.0393 0.0393,0.0393 c 2.41793,2.47994 4.8156,5.10559 7.18716,7.87446 v 3.35793 c -0.2127,-0.0325 -0.41,-0.073 -0.58911,-0.108 l -2.3859,-0.46147 -1.70842,1.71824 c -2.29107,2.29106 -4.57157,4.1344 -6.81406,5.5671 l -0.0294,0.0196 -0.0196,0.0196 c -1.97719,1.2993 -4.15083,2.1651 -6.65696,2.63136 l -5.00745,0.93276 1.4826,4.87981 c 0.40166,1.31973 0.88527,3.46551 1.36477,6.27403 l 0.01,0.0589 0.01,0.0687 c 0.11284,0.56418 0.21437,1.17184 0.30438,1.83607 h -11.28149 c 0.67906,-1.7959 1.37575,-3.31854 2.07171,-4.5558 l 1.2175,-2.15025 -1.13895,-2.18954 c -1.68292,-3.23121 -2.93496,-6.16436 -3.76049,-8.76794 -0.80243,-2.53075 -1.16841,-4.87536 -1.16841,-7.05951 0,-2.0298 0.0938,-3.97819 0.28474,-5.85184 0.24519,-1.81521 0.63398,-3.51332 1.15858,-5.10564 0.55173,-1.47408 1.31244,-2.86679 2.32699,-4.22196 1.02392,-1.34488 2.40755,-2.6642 4.21215,-3.92741 l -3.31866,-8.23774 c -2.26161,0.35338 -4.63505,0.73683 -7.09879,1.15859 -2.44824,0.34976 -4.97196,0.70058 -7.56026,1.05058 -2.55224,0.27567 -5.09668,0.51882 -7.64863,0.72657 -2.54671,0.13715 -4.98419,0.20619 -7.30498,0.20619 h -1.35496 -0.01 c -0.006,-2.9e-4 -0.0156,0 -0.0294,0 -0.0285,-0.005 -0.0639,-0.021 -0.12765,-0.0393 l -4.1925,7.88428 c 1.46788,1.23302 2.55749,2.47194 3.33829,3.72122 l 0.0393,0.0589 0.0393,0.0589 c 0.60697,0.91047 1.16195,2.33134 1.72806,3.69176 l -12.99972,26.39219 -16.23002,-27.97297 c 0.0289,-0.2265 0.0266,-0.39754 0.0786,-0.65784 0.21302,-0.71711 0.46101,-1.41126 0.76584,-2.07171 0.32304,-0.69992 0.66317,-1.31473 1.01131,-1.87533 0.32557,-0.4296 0.63059,-0.74901 0.85421,-0.92295 l 12.48916,-9.71051 -15.74891,1.57096 c -0.56188,0.0562 -1.11934,0.0884 -1.67897,0.0884 h -2.02261 c -2.8368,0 -5.40603,-0.13277 -7.6879,-0.39275 -2.40544,-0.3444 -4.6424,-0.68888 -6.69624,-1.03094 l -0.0295,-0.01 c -2.0299,-0.34987 -3.93128,-0.66975 -5.69475,-0.9524 -1.91401,-0.39239 -3.74013,-0.60874 -5.50819,-0.60874 -1.27588,0 -2.53777,0.15062 -3.77031,0.52038 l -8.885762,2.66082 7.540622,5.41 c 3.8879,2.78632 6.70896,5.71717 8.61085,8.74831 l 0.0294,0.0491 0.0295,0.0393 c 1.86334,2.82323 2.76882,5.86641 2.76882,9.55343 0,4.2595 -1.45267,9.57316 -4.71289,15.82745 l -1.24695,2.38591 1.49241,2.24844 c 1.44846,2.17269 2.427,4.35573 3.00447,6.60786 l 0.0196,0.0589 0.01,0.0491 c 0.66669,2.3637 1.01131,4.82227 1.01131,7.41298 0,2.79695 -0.37901,5.54623 -1.12913,8.29665 l -0.01,0.0491 -0.01,0.0393 c -0.70787,2.83147 -1.70746,5.60239 -3.00447,8.32611 l -0.01,0.0294 -0.01,0.0196 c -1.23252,2.65966 -2.6816,5.13896 -4.35942,7.46208 l -0.0196,0.0294 -0.0196,0.0196 c -1.69807,2.4165 -3.49862,4.54419 -5.41001,6.39186 l 4.5067,7.62899 c 2.98212,-0.91757 5.64805,-1.9585 8.01192,-3.1812 2.28804,-1.18346 4.35175,-2.5212 6.18567,-4.01578 1.87264,-1.46934 3.51199,-3.10484 4.88962,-4.89944 0.25217,-0.29929 0.44406,-0.6629 0.6873,-0.97203 0.11209,0.085 0.27383,0.22256 0.38292,0.30437 l 0.0491,0.0393 0.0491,0.0393 c 1.33594,0.94302 2.63616,1.74697 3.90778,2.42517 l 0.0491,0.0295 0.0589,0.0294 c 1.27455,0.63728 2.55429,1.20332 3.84886,1.68879 l 0.0393,0.01 0.0491,0.0196 c 1.34206,0.47366 2.82708,0.92455 4.47724,1.37459 l 13.98158,3.8194 -9.2785,-11.1342 c -1.28544,-1.54252 -2.34449,-3.01739 -3.20084,-4.41834 -0.77528,-1.33326 -1.46367,-2.92946 -2.0128,-4.82089 -0.53715,-1.85021 -0.96323,-4.17862 -1.22732,-6.95151 -0.24079,-2.5283 -0.34022,-5.90531 -0.36328,-9.71052 l 12.67571,22.26841 7.2068,1.26659 13.65756,-26.10746 v 1.61024 c 0,2.18218 -0.0697,4.36622 -0.20619,6.54896 l -0.01,0.0687 v 0.0687 c -0.065,2.08154 -0.25727,4.00525 -0.56948,5.75365 l -0.01,0.0687 -0.0196,0.0786 c -0.23414,1.63893 -0.62811,3.05096 -1.15859,4.27106 l -0.0295,0.0785 -0.0393,0.0786 c -0.42071,1.07517 -0.89756,1.71934 -1.42369,2.17971 l -5.70456,4.99763 7.08898,2.7001 c 1.08093,0.41178 2.23472,1.03236 3.45612,1.90479 l 0.0589,0.0393 0.0589,0.0393 c 1.28593,0.85728 2.4725,1.80656 3.56412,2.83755 1.06459,1.00544 1.90525,1.98893 2.543,2.94556 l 0.0393,0.0687 0.0491,0.0687 c 0.73557,1.01847 1.14211,1.83573 1.29604,2.29753 l 3.62304,10.85929 4.83071,-10.37818 c 0.28466,-0.60997 0.81491,-1.45521 1.62987,-2.44481 0.8457,-1.02692 1.84218,-2.07765 2.97502,-3.15175 1.10425,-0.97777 2.30321,-1.90531 3.61321,-2.77864 l 0.0687,-0.0393 0.0589,-0.0491 c 1.3384,-0.956 2.6539,-1.76745 3.94705,-2.44481 l 3.11247,-1.62988 -1.0604,1.72806 h 8.15919 c 0.8587,0 2.23352,0.12889 3.9765,0.45166 l 0.01,0.01 h 0.0196 c 1.79462,0.32048 3.6326,0.76677 5.52783,1.35495 l 0.0884,0.0295 0.0884,0.0294 c 1.92766,0.51404 3.78913,1.14842 5.57692,1.91461 1.74563,0.74813 3.11235,1.52747 4.10414,2.25826 l 2.66082,1.96371 2.69028,-1.92443 c 0.60547,-0.43247 1.6581,-1.02123 3.04374,-1.62988 1.57558,-0.58761 3.22065,-1.1405 4.93872,-1.66914 l 0.0785,-0.0295 0.0687,-0.0196 c 1.65288,-0.57214 3.29031,-1.01227 4.91908,-1.3255 l 0.0884,-0.0196 0.0785,-0.0196 c 1.72124,-0.39721 3.16594,-0.64074 4.26124,-0.75603 l 5.82238,-0.61857 -2.02261,-5.49837 c -0.3875,-1.05179 -0.64844,-2.07274 -0.81494,-3.08301 -0.11111,-1.17087 -0.18655,-2.90131 -0.18655,-5.16455 v -2.34662 c 0,-0.72728 0.0277,-1.45113 0.0884,-2.17972 l -13.26483,-1.31568 c -0.97155,0.72112 -1.74694,1.63036 -2.00298,1.97353 -0.97493,1.12887 -1.6396,2.22252 -2.24844,3.58376 -1.30075,-0.19443 -2.62824,-0.38504 -3.98632,-0.5793 -1.1593,-0.22127 -2.24198,-0.4474 -3.30884,-0.66766 0.0521,-0.49785 0.09,-0.85949 0.14728,-1.39423 0.0911,-0.84995 0.1103,-1.73146 0.17673,-2.59209 3.10234,-0.48222 6.19839,-0.96601 9.41596,-1.37459 l 0.0393,-0.01 h 0.0294 c 1.50077,-0.2144 2.94488,-0.31903 4.42816,-0.50074 l 10.79055,-0.98186 3.7605,-0.47128 -0.8444,-2.26808 h 4.85035 c -0.0893,1.20763 -0.20962,2.64861 -0.36328,4.30051 l 17.02532,2.33681 c 2.13024,-0.40401 3.70697,-0.55107 5.53764,-0.81494 -0.0267,1.57469 -0.0832,3.12493 -0.24546,4.58525 -0.0101,0.0875 -0.0286,0.2156 -0.0393,0.30438 -2.91618,-1.21856 -6.13858,-2.62443 -8.33593,-3.39721 l -14.33504,1.30586 c -0.97643,1.5781 -1.83342,3.27143 -2.48409,5.22345 l -0.01,0.0491 -0.0196,0.0393 c -0.81085,2.59471 -1.30551,5.19339 -1.47278,7.78609 l -0.29456,4.60489 4.59507,0.24546 c 2.52908,0.1367 4.67984,0.34239 6.4115,0.59893 l 0.0785,0.01 0.0884,0.01 c 1.71258,0.19028 3.11969,0.47051 4.20233,0.7953 l 0.108,0.0294 0.0982,0.0295 c 1.11097,0.27774 1.93482,0.61469 2.47427,0.92294 l 0.0589,0.0294 0.0589,0.0393 c 0.74721,0.39851 1.38187,0.84943 1.94407,1.36477 l 2.70991,2.47427 3.00447,-2.11098 c 0.83693,-0.59078 2.01849,-1.23548 3.54448,-1.84588 1.55519,-0.62208 3.27214,-1.15819 5.14491,-1.61024 1.8844,-0.45486 3.88837,-0.8248 6.00893,-1.08986 2.09734,-0.26217 4.14633,-0.38292 6.15622,-0.38292 h 5.65547 l -1.20768,-5.52783 c -0.25424,-1.16952 -0.50201,-3.39967 -0.63821,-6.39186 -0.1193,-2.68565 -0.18943,-5.70879 -0.20618,-9.05267 h 10.45672 v 19.65668 l 2.52336,1.25677 c 1.07061,0.53531 2.46424,1.26033 4.14342,2.16989 1.64151,0.88915 3.2406,1.81289 4.81107,2.76883 l 2.87683,1.75751 2.52336,-2.23862 c 0.34274,-0.30465 1.06087,-0.83733 2.06189,-1.46296 1.00823,-0.63015 2.08986,-1.23639 3.24993,-1.81643 l 0.0884,-0.0491 0.0884,-0.0491 c 1.19317,-0.66287 2.41688,-1.29574 3.68194,-1.89498 1.23088,-0.58304 2.36927,-1.0476 3.40703,-1.41387 l 3.04374,-1.08003 v -9.04286 l -4.32015,-0.22583 c -1.70032,-0.0895 -2.71035,-0.55496 -3.79977,-1.62987 -0.7184,-0.7611 -1.38441,-2.19327 -1.38441,-5.13509 v -1.57096 h 13.97176 c 0.0174,0.43941 0.0196,0.89097 0.0196,1.35495 0,2.77048 -0.0677,5.54553 -0.20619,8.31629 -0.12547,2.43519 -0.50838,4.29681 -0.98185,5.52783 l -2.33681,6.08748 6.5195,0.10801 c 3.83338,0.0661 7.13559,0.50073 9.89707,1.23713 h 0.01 0.01 c 2.88168,0.75174 5.44924,1.83371 7.75664,3.23029 l 3.35793,2.03244 5.78311,-6.95152 c 1.44039,1.89974 3.09628,3.54352 4.99763,4.81108 l 4.30051,2.86701 2.30736,-4.62453 c 0.24571,-0.49141 0.74791,-1.29503 1.49241,-2.28771 0.71715,-0.9562 1.5305,-1.90361 2.45463,-2.82774 0.95996,-0.95996 1.90505,-1.80483 2.82774,-2.54299 l 0.01,-0.01 0.0196,-0.01 c 0.85548,-0.69506 1.52008,-1.04853 1.8557,-1.1684 l 3.02411,-1.08004 v -8.01192 l -3.53467,-0.81493 c -0.26552,-0.0613 -0.30276,-0.10845 -0.44183,-0.16692 -0.0216,-0.0513 -0.0227,-0.0489 -0.0491,-0.12764 -0.22896,-0.78717 -0.48492,-2.14372 -0.67748,-3.90777 -0.0408,-0.60547 -0.0791,-1.2795 -0.108,-2.03244 h 9.41596 v 11.52695 c 0,1.55826 -0.27965,2.47391 -0.3731,2.66082 l -0.0295,0.0589 -0.0294,0.0491 -2.45463,1.02113 v 9.19996 h 28.75845 V 393.31 l -2.44481,-0.91312 c -0.18401,-0.50343 -0.43202,-1.80453 -0.43202,-3.7114 v -19.99052 l 5.39037,-2.41535 v 7.29516 0.0393 c 0.0707,4.02958 0.10801,8.05703 0.10801,12.0866 0,0.50643 -0.0583,1.7497 -0.19637,3.47576 -0.13944,1.74291 -0.31921,3.6732 -0.5302,5.78311 -0.20264,1.95534 -0.46751,3.9133 -0.80512,5.87148 v 0.01 l -0.01,0.01 c -0.3342,2.00519 -0.69392,3.62553 -1.04076,4.78163 l -0.78549,2.61172 5.91075,5.90093 3.22048,-3.4463 c 0.88295,-0.94601 1.92165,-1.95578 3.11247,-3.01428 1.16877,-1.03891 2.40307,-2.05072 3.7114,-3.03393 1.37346,-0.97962 2.70564,-1.85122 3.98632,-2.62154 1.27143,-0.72405 2.46803,-1.27864 3.58376,-1.66915 l 3.74086,-1.31568 -0.77566,-3.88814 c -0.13438,-0.6719 -0.26683,-1.37543 -0.40256,-2.1208 -0.10054,-0.61095 -0.20092,-1.52514 -0.2651,-2.68046 -0.0673,-1.21121 -0.13704,-2.80931 -0.20619,-4.73252 v -7.71736 c 0,-3.67119 0.0387,-6.72464 0.108,-9.15087 0.0695,-2.43283 0.13746,-4.46363 0.20619,-6.12675 0.13123,-1.56271 0.26225,-2.81797 0.38292,-3.74086 0.18471,-0.96695 0.39686,-1.87007 0.62839,-2.68046 l 1.0604,-3.70158 -3.48558,-1.65933 c -1.39229,-0.663 -2.59135,-1.28874 -3.60339,-1.8557 -1.03537,-0.64847 -2.03456,-1.28871 -3.00447,-1.93425 -0.85485,-0.6125 -1.72632,-1.29333 -2.60191,-2.04225 -0.96326,-0.8949 -2.01452,-1.88677 -3.1812,-2.98483 l -3.30884,-3.11248 -3.13211,3.29903 c -2.45348,2.58978 -4.81178,4.81569 -7.05952,6.66677 -0.22103,0.18202 -0.52861,0.36728 -0.75603,0.54984 v -1.17822 l -4.31033,-7.18716 -3.27938,0.82476 c -2.20544,0.55136 -4.74347,1.13984 -7.59954,1.76733 -2.83552,0.55257 -5.45772,1.0041 -7.845,1.34514 l -3.91759,0.55965 v 3.87832 h -7.44244 c -3.08991,0 -5.47209,-0.51607 -7.27553,-1.35496 -1.88851,-0.98398 -3.87454,-2.53084 -5.91075,-4.75216 l -2.4939,-2.70991 -3.17138,1.86552 c -1.47535,0.86486 -4.01206,1.84986 -7.45226,2.70991 -3.22,0.805 -7.27665,1.24695 -12.12588,1.24695 h -0.99167 c -0.60282,-0.11946 -1.04446,-0.108 -1.46296,-0.108 h -3.55626 l -0.88229,5.59653 c 0.548,2.34856 1.18046,4.36854 2.02261,6.1464 l 0.0393,0.0884 0.0491,0.0884 c 0.89283,1.69638 1.94614,3.19784 3.29902,4.43798 l 0.0785,0.0687 0.0884,0.0687 c 1.29423,1.07852 2.80746,1.92004 4.43797,2.3859 l 0.17674,0.0491 0.18655,0.0294 c 1.39228,0.27846 2.83234,0.41238 4.31033,0.41238 2.34122,0 4.825,-0.45089 7.69772,-1.22731 0.63275,-0.17101 1.20365,-0.45762 1.82625,-0.64803 v 1.0604 c -0.30211,0.105 -0.43379,0.19949 -0.77567,0.30438 -1.4022,0.37993 -2.99325,0.73904 -4.78162,1.07022 -1.76441,0.32674 -3.65107,0.59412 -5.64565,0.7953 -1.93694,0.13193 -3.835,0.19637 -5.69474,0.19637 -1.67483,0 -3.17943,-0.0939 -4.5067,-0.27492 l -7.845,-1.07022 1.82624,4.42815 H 343.9134 v -8.08064 l 9.03304,1.13895 0.98186,-3.92741 c 0.23362,-0.9345 0.66058,-1.99201 1.31568,-3.15175 0.76097,-1.21849 1.58458,-2.30403 2.48408,-3.25974 l 1.23714,-8.1101 h -15.0518 v -1.09968 c 0,-0.47157 0.0383,-1.52135 0.10801,-2.98483 v -0.01 c 0.067,-1.4738 0.17079,-2.98776 0.30437,-4.53616 0.0839,-0.66962 0.16144,-1.31783 0.24546,-1.95388 h 8.67958 c -0.47706,1.21183 -1.161,2.35939 -2.04226,3.43648 2.56183,-0.21348 4.80432,-0.89384 6.72569,-2.03243 1.92137,-1.20975 3.55718,-2.63433 4.90926,-4.27106 1.42324,-1.63673 2.56291,-3.34622 3.41685,-5.12527 0.92511,-1.77905 1.63249,-3.37802 2.13062,-4.80126 -0.14232,-1.99253 -0.63847,-3.70203 -1.49242,-5.12527 -0.78278,-1.42324 -1.73823,-2.56289 -2.87682,-3.41684 -1.06743,-0.92511 -2.24394,-1.5588 -3.52485,-1.91461 -1.28091,-0.42697 -2.45742,-0.63821 -3.52485,-0.63821 -0.64046,2.41951 -1.34784,4.44094 -2.13062,6.07767 -0.71162,1.56556 -1.92497,3.06382 -3.63286,4.48706 0.78278,0.99627 1.46314,2.27349 2.03244,3.83905 0.0531,0.14593 0.0992,0.29466 0.14728,0.44183 h -6.34277 l 3.00447,-7.51117 -11.0262,5.90093 c -2.9309,1.56769 -5.65885,2.84818 -8.16901,3.83904 -2.22894,0.87983 -4.70755,1.42464 -7.49154,1.61024 l -8.70903,0.57929 4.99763,6.2544 c 0.0514,0.10061 0.20767,0.38423 0.28474,0.7953 v 0.0295 l 0.01,0.0294 c 0.17909,0.89545 0.34074,1.9704 0.47129,3.21066 v 0.01 0.0196 c 0.1331,1.19801 0.22806,2.39672 0.29455,3.59358 l 0.01,0.13746 0.0196,0.13745 c 0.13263,1.12732 0.17674,1.95114 0.17673,2.14044 v 1.16841 c -1.93572,1.51403 -3.87403,2.85624 -5.91511,3.64484 z m -80.02636,7.7141 c 0.20072,0.0333 0.36703,0.096 0.56948,0.12764 l 0.0786,0.01 0.0785,0.01 c 0.85304,0.10339 1.46917,0.0877 2.24845,0.1571 0.0407,0.38325 0.0267,0.7782 0.0785,1.15858 l 0.0196,0.10801 0.0196,0.0982 c 0.0191,0.10495 0.0395,0.19994 0.0589,0.30437 l -2.92592,0.72658 c -0.0282,-0.32605 -0.0279,-0.60003 -0.0589,-0.93276 -0.0328,-0.51817 -0.12406,-1.21882 -0.16692,-1.76734 z m -35.68051,12.45971 h 13.92267 c -0.0171,1.39579 -0.0804,2.94358 -0.19637,4.62452 v 0.0786 l -0.01,0.0786 c -0.0657,1.90493 -0.22992,3.76954 -0.49093,5.59656 l -0.01,0.0687 v 0.0687 c -0.192,1.72806 -0.48429,3.33639 -0.85421,4.8209 -0.35302,1.34366 -0.74707,2.24863 -0.95239,2.58227 l -1.2175,1.97352 -4.80126,-3.01428 c -1.61033,-1.0122 -2.91444,-2.539 -3.9765,-5.0369 -1.0446,-2.62777 -1.58078,-5.45391 -1.58078,-8.61085 0,-1.07424 0.053,-2.15319 0.16691,-3.23029 z m 186.3752,6.38204 v 3.40702 c -0.47922,-0.0453 -1.08326,-0.20656 -1.54151,-0.22582 -0.12209,-0.005 -0.23185,-0.0238 -0.35347,-0.0295 l 0.0491,-2.759 c 0.54604,-0.12378 0.98851,-0.15337 1.57096,-0.30438 l 0.0785,-0.0196 0.0687,-0.0196 c 0.0398,-0.0118 0.0878,-0.0373 0.12764,-0.0491 z"
         sodipodi:nodetypes="ccccccccccccccccccscccccccccccccccccccscccccccccsccscccccsscccccccscscccccccccccscccccccccsccsccccccccccccccccccccccssccccccccscccccccsccccsccccssccccsccccccsccccccsccsccccccccsccccccccscccccscssccccsccccccccccccccssccccccscccccccsccccccsccccccccccccccssccccccsccccccccccccccccccccccccscccccccccsssscccccccscccsccsscccccsccscccccccsccsccsscccsccccccccsscccccccsccccssccccccccsccccccscsscccccccccccscccccsccsccccsscscccccccccccsscccscsccccccsccccsccccccccccccccccsccccsccccccccccccscccccccccccccccccccscccccccsccccccccccccsc" /></g></g><style
     id="style1-7">
		tspan { white-space:pre } 
		.s0 { fill: none;stroke: #ff0000;stroke-miterlimit:100 } 
	</style></svg>
