<?xml version="1.0" encoding="UTF-8" standalone="no"?>
<svg
   version="1.2"
   viewBox="0 0 113.38583 113.38583"
   width="30mm"
   height="30mm"
   id="svg1"
   sodipodi:docname="Zabijak1ReminderTokenLaser.svg"
   inkscape:version="1.4.2 (2aeb623e1d, 2025-05-12)"
   xml:space="preserve"
   xmlns:inkscape="http://www.inkscape.org/namespaces/inkscape"
   xmlns:sodipodi="http://sodipodi.sourceforge.net/DTD/sodipodi-0.dtd"
   xmlns="http://www.w3.org/2000/svg"
   xmlns:svg="http://www.w3.org/2000/svg"><sodipodi:namedview
     id="namedview1"
     pagecolor="#ffffff"
     bordercolor="#666666"
     borderopacity="1.0"
     inkscape:showpageshadow="2"
     inkscape:pageopacity="0.0"
     inkscape:pagecheckerboard="0"
     inkscape:deskcolor="#d1d1d1"
     inkscape:zoom="3.1062058"
     inkscape:cx="-11.911638"
     inkscape:cy="87.405671"
     inkscape:window-width="1920"
     inkscape:window-height="940"
     inkscape:window-x="0"
     inkscape:window-y="0"
     inkscape:window-maximized="1"
     inkscape:current-layer="layer2"
     showgrid="false"
     inkscape:document-units="mm" /><defs
     id="defs1"><clipPath
       clipPathUnits="userSpaceOnUse"
       id="cp1"><path
         d="m 275.5,535.5 c -143.78,0 -260,-116.22 -260,-260 0,-143.78 116.22,-260 260,-260 143.78,0 260,116.22 260,260 0,143.78 -116.22,260 -260,260 z"
         id="path1" /></clipPath></defs><style
     id="style1">
		tspan { white-space:pre } 
		.s0 { fill: none;stroke: #ff0000;stroke-miterlimit:100 } 
	</style><g
     inkscape:groupmode="layer"
     id="layer1"
     inkscape:label="Template"
     transform="scale(0.1989225)"><path
       id="Path 0 copy"
       class="s0"
       d="m 253.96776,1.9812412 c -4.83809,0.7256238 -12.51049,1.8658898 -17.06826,2.5396834 -4.54737,0.6737937 -14.55576,2.8299332 -22.23856,4.8098491 -7.68279,1.9695513 -20.01678,5.7427953 -27.40888,8.3757733 -7.40247,2.632979 -20.89926,8.551995 -30.00441,13.164891 -9.10514,4.602528 -22.37354,12.263042 -29.48531,17.021062 -7.11177,4.747653 -17.57697,12.48073 -23.26639,17.176553 -5.689435,4.695823 -15.573238,13.828318 -21.968643,20.296736 -6.385022,6.468418 -15.147556,16.191781 -19.456148,21.592491 -4.318975,5.41108 -11.576098,15.42469 -16.133862,22.24555 -4.547382,6.83124 -12.178261,20.3382 -16.95405,30.00974 -5.533687,11.2368 -10.714379,23.75899 -14.316985,34.66408 -3.114645,9.39165 -6.8418376,22.43215 -8.2953386,28.97313 -1.453501,6.54097 -3.5922235,19.22903 -4.7446423,28.19566 -1.3912082,10.80144 -2.09719388,22.31812 -2.10757603,34.1458 0,12.12828 0.67483933,22.9919 2.10757603,33.88662 1.162801,8.82153 3.3222877,21.39554 4.7861709,27.93654 1.4638831,6.55133 4.44356,17.48752 6.623812,24.31875 2.180251,6.83123 6.104705,17.53937 8.721006,23.80046 2.616301,6.2611 7.57897,16.73082 11.015462,23.28217 3.446873,6.54098 9.676163,17.02106 13.86017,23.28215 4.173624,6.2611 11.119282,15.79787 15.427874,21.20896 4.308592,5.40071 13.071127,15.12406 19.466531,21.60285 6.385023,6.47879 16.279208,15.58018 21.968643,20.23455 5.68942,4.64399 13.36182,10.563 17.06825,13.15452 3.69605,2.59151 11.60724,7.66051 17.57698,11.25753 5.98013,3.6074 16.92291,9.43312 24.315,12.96793 7.39209,3.52447 18.80207,8.31359 25.34283,10.63558 6.54075,2.322 18.17914,5.82573 25.86193,7.7849 7.6828,1.94883 22.34238,4.7684 32.58957,6.24037 14.74265,2.1354 22.60194,2.69517 37.7495,2.69517 15.15794,0 23.01723,-0.55977 37.75988,-2.69517 10.24718,-1.47197 24.90677,-4.29154 32.58957,-6.24037 7.68278,-1.95917 19.31079,-5.4629 25.86193,-7.7849 6.54076,-2.32199 17.94035,-7.11111 25.34283,-10.63558 7.39208,-3.53481 18.33487,-9.36053 24.30461,-12.96793 5.98012,-3.59702 13.89132,-8.66602 17.58736,-11.25753 3.69605,-2.59152 11.37883,-8.51053 17.06826,-13.1649 5.68942,-4.65435 15.57322,-13.76612 21.95824,-20.23454 6.39541,-6.46842 15.14756,-16.19177 19.46654,-21.59248 4.30859,-5.41109 11.42035,-15.18628 15.79125,-21.72725 4.37088,-6.55136 11.24387,-18.42049 15.27214,-26.39199 4.02828,-7.96113 9.22972,-19.37415 11.5657,-25.345 2.336,-5.98121 5.92822,-16.45093 7.99426,-23.28216 2.06605,-6.83123 4.88999,-18.23389 6.27083,-25.35538 1.39121,-7.1111 3.22885,-18.75218 4.08018,-25.86329 0.86172,-7.11113 1.5677,-20.84614 1.5677,-30.52804 0,-9.81665 -0.70598,-23.07484 -1.59885,-30.00973 -0.8721,-6.82087 -2.30483,-16.368 -3.16655,-21.20894 -0.86172,-4.83059 -2.907,-13.91125 -4.54739,-20.17235 -1.64037,-6.2611 -4.91075,-16.96923 -7.27788,-23.80045 -2.35675,-6.83125 -8.17076,-20.33822 -12.9154,-30.00974 -4.74463,-9.67154 -12.35476,-23.1785 -16.90213,-30.00974 -4.55776,-6.82086 -11.81489,-16.83447 -16.13386,-22.24555 C 502.62025,101.55757 493.85772,91.844574 487.47269,85.386521 481.08767,78.918102 471.20387,69.816706 465.51445,65.151982 459.82502,60.487257 452.14224,54.557873 448.44619,51.96636 444.75015,49.374846 436.83895,44.31621 430.85883,40.708823 424.88909,37.101437 413.9463,31.275712 406.55422,27.751254 399.15174,24.226796 387.75215,19.448044 381.21139,17.136415 374.66025,14.814417 363.95626,11.528378 357.4155,9.8179792 350.87475,8.1075792 341.33354,5.9929045 336.20478,5.1325219 331.08637,4.2617733 321.77358,2.8416237 315.52353,1.970875 308.01724,0.92390344 297.0952,0.4366989 283.45307,0.52999334 272.07423,0.60255536 258.80584,1.2556173 253.96776,1.9812412 Z"
       style="stroke:#000000;stroke-width:1.03741;stroke-opacity:1"
       inkscape:label="vnejsi kruh" /><path
       id="Path 0"
       class="s0"
       d="m 267.84026,54.239696 c -1.95608,0.186876 -6.97966,0.783106 -11.14967,1.308142 -4.1789,0.533936 -9.7982,1.379333 -12.50114,1.886573 -2.69405,0.49834 -10.33168,2.251428 -16.95568,3.906629 -6.62399,1.6463 -17.07126,4.88551 -23.20625,7.190332 -6.13497,2.304822 -15.57752,6.407227 -20.97453,9.103601 -5.4059,2.705276 -13.83485,7.341616 -18.74282,10.304958 -4.90802,2.963342 -12.14551,7.804357 -16.06658,10.767704 -3.92993,2.963345 -10.55395,8.284895 -14.73283,11.817775 -4.17002,3.53287 -10.4206,9.38837 -13.88819,13.00132 -3.46761,3.62186 -9.3003,10.19817 -12.96351,14.62094 -3.66321,4.42276 -9.878209,12.86786 -13.817052,18.75894 -3.938841,5.89998 -9.62037,15.54643 -12.625623,21.4464 -3.005256,5.89111 -7.273069,15.13707 -9.495893,20.54763 -2.222817,5.40164 -5.485916,14.85231 -7.255284,20.99257 -1.769366,6.14026 -4.178908,16.39183 -5.361447,22.78124 -1.173647,6.38054 -2.551797,16.43633 -3.067489,22.32741 -0.515701,5.9 -0.94248,14.94131 -0.94248,20.10268 0,5.16137 0.426779,14.20269 0.94248,20.10269 0.515692,5.89107 1.893842,15.93797 3.067489,22.3274 1.182539,6.38943 3.529838,16.43631 5.219185,22.3363 1.69823,5.89109 4.756835,14.94131 6.801833,20.10267 2.04499,5.15249 6.419503,14.60315 9.718177,20.99257 3.28977,6.38052 9.175803,16.43632 13.061295,22.32741 3.88549,5.89999 10.945169,15.34175 15.693109,20.99257 4.73906,5.65082 11.98545,13.49077 16.10212,17.4241 4.10778,3.93333 10.89183,9.8956 15.06182,13.25051 4.17003,3.346 12.00324,9.0502 17.40914,12.67207 5.39702,3.61295 15.23967,9.39726 21.86368,12.85005 6.62401,3.44387 17.47138,8.3205 24.09538,10.82999 6.63289,2.50949 17.48028,5.93558 24.10427,7.60858 6.624,1.67299 17.47138,3.93333 24.09539,5.019 10.10049,1.6463 15.59531,1.96666 33.92024,1.96666 18.32494,0 23.81976,-0.32036 33.92026,-1.96666 6.62401,-1.08567 17.47137,-3.34601 24.09536,-5.019 6.62402,-1.673 17.47139,-5.09909 24.10429,-7.60858 6.624,-2.50949 17.26687,-7.27933 23.65081,-10.58971 6.38395,-3.31932 16.21773,-9.10361 21.86367,-12.85007 5.64597,-3.74644 13.6837,-9.53075 17.85371,-12.85004 4.17002,-3.3193 12.21662,-10.68762 17.88036,-16.37403 5.66375,-5.68641 13.02573,-13.75775 16.36885,-17.93133 3.34314,-4.18251 9.27363,-12.42291 13.18578,-18.314 3.91216,-5.89998 10.27834,-17.15713 14.14605,-25.01489 3.8588,-7.85774 8.50007,-18.31399 10.2961,-23.22619 1.80493,-4.9122 4.61458,-14.15819 6.24168,-20.54763 1.6271,-6.38943 3.8855,-17.4419 5.00579,-24.56102 1.70713,-10.8033 2.04501,-16.44524 2.04501,-33.94942 0,-17.2995 -0.34677,-23.1995 -1.97387,-33.50445 -1.08473,-6.87887 -3.33423,-17.93135 -5.0058,-24.56105 -1.66267,-6.6386 -4.4901,-16.08034 -6.28614,-20.99256 -1.79603,-4.91222 -6.5351,-15.57313 -10.52727,-23.68004 -3.99219,-8.10693 -10.37614,-19.35517 -14.17271,-25.00599 -3.79657,-5.65081 -9.64704,-13.67766 -12.99906,-17.83346 -3.35202,-4.15578 -9.30029,-10.94567 -13.23024,-15.09256 -3.92995,-4.14689 -10.55395,-10.42065 -14.72397,-13.93572 -4.17888,-3.52398 -10.80291,-8.82773 -14.73284,-11.791075 -3.92106,-2.963347 -11.15857,-7.804362 -16.06657,-10.767704 -4.90799,-2.963342 -13.33693,-7.599682 -18.74282,-10.304958 -5.39701,-2.696374 -14.83955,-6.798779 -20.97455,-9.103601 -6.13497,-2.304822 -16.58224,-5.552931 -23.20626,-7.208131 -6.62399,-1.655201 -14.45721,-3.417187 -17.40022,-3.924427 -2.95191,-0.507238 -7.96659,-1.361536 -11.15856,-1.886573 -3.19197,-0.533934 -14.23495,-1.112365 -24.54885,-1.290343 -10.305,-0.17798 -20.35215,-0.16908 -22.31713,0.01779 z"
       style="display:none;stroke:#000000;stroke-width:0.889511;stroke-opacity:1"
       inkscape:label="vnitrni kruh origo" /><path
       id="Path 0-9"
       class="s0"
       d="m 266.84597,40.874851 c -2.06936,0.197699 -7.38388,0.828459 -11.79539,1.383902 -4.42092,0.564859 -10.36566,1.459216 -13.22514,1.995833 -2.85008,0.527201 -10.93003,2.381818 -17.93766,4.13288 -7.00762,1.741644 -18.05993,5.168451 -24.55023,7.606756 -6.49027,2.438305 -16.47968,6.778298 -22.18926,9.630831 -5.71898,2.861951 -14.63609,7.766803 -19.8283,10.901765 -5.19226,3.134962 -12.84891,8.256342 -16.99707,11.39131 -4.15753,3.134966 -11.16517,8.764711 -15.58607,12.502192 -4.41153,3.73748 -11.02411,9.9321 -14.69251,13.75429 -3.66844,3.83162 -9.83893,10.78879 -13.71429,15.4677 -3.875363,4.67891 -10.450299,13.6131 -14.617255,19.84536 -4.166956,6.24167 -10.177529,16.44679 -13.356837,22.68846 -3.179298,6.23229 -7.694276,16.01372 -10.04584,21.73763 -2.351553,5.71447 -5.803624,15.71248 -7.675466,22.20835 -1.871842,6.49587 -4.420929,17.34115 -5.671955,24.1006 -1.241622,6.75007 -2.699587,17.38823 -3.245143,23.62049 -0.545566,6.2417 -0.997063,15.80663 -0.997063,21.26692 0,5.46028 0.451497,15.02523 0.997063,21.26692 0.545556,6.23225 2.003521,16.86101 3.245143,23.62048 1.251026,6.75947 3.734269,17.38821 5.521456,23.6299 1.796583,6.23227 5.03232,15.80663 7.195755,21.26691 2.163425,5.45089 6.791282,15.44888 10.281003,22.20834 3.480296,6.75004 9.707212,17.38822 13.817729,23.62049 4.110516,6.24169 11.579052,16.23026 16.601966,22.20835 5.013524,5.97808 12.679584,14.27208 17.034664,18.4332 4.34568,4.16113 11.52262,10.4687 15.93412,14.01791 4.41153,3.53978 12.6984,9.57434 18.41738,13.40597 5.70958,3.82219 16.12226,9.94149 23.1299,13.59425 7.00764,3.64332 18.48323,8.80238 25.49085,11.4572 7.01703,2.65483 18.49264,6.27934 25.50026,8.04923 7.00763,1.76988 18.48323,4.16113 25.49086,5.30967 10.68546,1.74165 16.49851,2.08056 35.88472,2.08056 19.38622,0 25.19927,-0.33891 35.88473,-2.08056 7.00764,-1.14854 18.48322,-3.53979 25.49083,-5.30967 7.00765,-1.76989 18.48324,-5.3944 25.50028,-8.04923 7.00762,-2.65482 18.26687,-7.7009 25.02053,-11.203 6.75368,-3.51156 17.15698,-9.63084 23.1299,-13.59428 5.97295,-3.96341 14.47618,-10.08272 18.8877,-13.59424 4.41152,-3.51154 12.92414,-11.30659 18.91589,-17.32233 5.99176,-6.01573 13.78011,-14.55452 17.31684,-18.96981 3.53676,-4.42474 9.81071,-13.14238 13.94943,-19.37465 4.13873,-6.24167 10.8736,-18.15077 14.96531,-26.46361 4.08228,-8.31282 8.99235,-19.37464 10.89239,-24.57132 1.90947,-5.19669 4.88184,-14.97816 6.60317,-21.73764 1.72133,-6.75947 4.11053,-18.45204 5.2957,-25.98346 1.80599,-11.42897 2.16344,-17.39766 2.16344,-35.91558 0,-18.3014 -0.36685,-24.54309 -2.08818,-35.44485 -1.14756,-7.27725 -3.52733,-18.96983 -5.29571,-25.98349 -1.75896,-7.02307 -4.75014,-17.01162 -6.6502,-22.20833 -1.90005,-5.19671 -6.91358,-16.47504 -11.13695,-25.05146 -4.2234,-8.57644 -10.97707,-20.47611 -14.99352,-26.4542 -4.01644,-5.97807 -10.20574,-14.46979 -13.75189,-18.86627 -3.54615,-4.39646 -9.83891,-11.57959 -13.99646,-15.96664 -4.15756,-4.38706 -11.16518,-11.02416 -15.57671,-14.7428 -4.42089,-3.728072 -11.42855,-9.338986 -15.58608,-12.473952 -4.14815,-3.134968 -11.80481,-8.256348 -16.99706,-11.39131 -5.19223,-3.134962 -14.10933,-8.039814 -19.8283,-10.901765 -5.70957,-2.852533 -15.69897,-7.192526 -22.18928,-9.630831 -6.49027,-2.438305 -17.54259,-5.874526 -24.55024,-7.625586 -7.00761,-1.751061 -15.29449,-3.615092 -18.40794,-4.151709 -3.12287,-0.536614 -8.42797,-1.440388 -11.80481,-1.995832 -3.37683,-0.564857 -15.05936,-1.176788 -25.97058,-1.365073 -10.90181,-0.188288 -21.53084,-0.178872 -23.60962,0.01882 z"
       style="display:inline;fill:none;stroke:#000000;stroke-width:0.941027;stroke-miterlimit:100;stroke-opacity:1"
       inkscape:label="vnitrni kruh" /><g
       inkscape:groupmode="layer"
       id="layer3"
       inkscape:label="Positions"
       style="display:none"><rect
         style="display:inline;fill:#ff2121;fill-opacity:0.107692;stroke:#000000;stroke-width:1.05245;stroke-opacity:1"
         id="rect1"
         width="300"
         height="300"
         x="135"
         y="80.172386" /><rect
         style="display:inline;fill:#de0000;fill-opacity:0.0923077;stroke:#000000;stroke-width:1.00157;stroke-opacity:1"
         id="rect2"
         width="300"
         height="83.006134"
         x="135"
         y="401.53375" /></g><text
       xml:space="preserve"
       style="font-size:133px;font-family:'Didact Gothic';-inkscape-font-specification:'Didact Gothic';text-align:start;letter-spacing:2.02104px;writing-mode:lr-tb;direction:ltr;text-anchor:start;display:none;fill:#de0000;fill-opacity:0.0923077;stroke:#000000;stroke-width:7.03727;stroke-dasharray:none;stroke-opacity:1"
       x="91.886414"
       y="400.07263"
       id="text2"
       inkscape:label="Text"><tspan
         sodipodi:role="line"
         id="tspan2"
         x="91.886414"
         y="400.07263"
         style="font-style:normal;font-variant:normal;font-weight:normal;font-stretch:normal;font-size:133px;font-family:'New Rocker';-inkscape-font-specification:'New Rocker';letter-spacing:2.02104px;fill:#000000;fill-opacity:1;stroke:#000000;stroke-width:7.03727;stroke-dasharray:none;stroke-opacity:1">Použit</tspan></text><path
       id="path5-3"
       style="display:none;stroke-width:15.5809"
       d="m 270.08722,461.6585 h 29.82646 v 8.76855 h -29.82646 z"
       inkscape:label="spojovnik pismen" /></g><g
     inkscape:groupmode="layer"
     id="layer2"
     inkscape:label="Content"
     style="display:inline"
     transform="scale(0.1989225)"><g
       id="path1-91"
       style="display:none;opacity:1"
       transform="matrix(0.81617275,0,0,0.81617275,64.438802,37.845602)"><g
         id="path7"
         style="opacity:1"><path
           style="baseline-shift:baseline;display:inline;overflow:visible;vector-effect:none;fill:#de0000;fill-opacity:0.0923077;enable-background:accumulate;stop-color:#000000;stop-opacity:1"
           d="m 381.79049,81.233856 c -1.19012,0.615756 -2.26147,1.390435 -3.75697,2.526605 -2.99099,2.27234 -7.36024,5.925572 -13.52043,11.261216 -9.89206,8.567993 -16.14251,14.203533 -20.30003,18.575583 -4.15753,4.37205 -6.38393,7.74568 -7.43838,11.26509 -0.47846,1.59697 -3.81163,5.96835 -7.10122,8.58154 -1.43027,1.13618 -2.6994,1.82742 -3.59034,2.23597 -1.63692,-1.58612 -3.55752,-2.20495 -5.50079,-2.76493 -2.56639,-0.73952 -5.16487,-1.33224 -8.33547,0.11238 -0.38318,0.17459 0.4456,0.14561 -0.26544,-0.0465 -0.71106,-0.1921 -2.54566,-0.96897 -5.58605,-2.50142 -7.03272,-3.5447 -18.25035,-8.0183 -23.98918,-9.25388 -0.43183,-0.093 -3.8152,-0.98164 -6.65947,-1.79226 -12.01926,-3.4255 -22.84542,-4.96084 -40.24547,-5.76818 -4.93629,-0.22903 -9.54568,-0.51096 -12.94886,-0.77503 -1.70158,-0.13203 -3.10718,-0.26125 -4.05535,-0.37007 -0.47409,-0.0544 -0.8413,-0.10485 -1.00948,-0.1337 -0.0841,-0.0144 -0.12299,-0.0266 -0.0407,-0.006 0.0823,0.0207 0.16223,-0.09 1.05404,0.46115 -1.70105,-1.0513 -3.1707,-0.94328 -4.36343,-0.70335 -1.19274,0.23995 -2.24885,0.72778 -3.23964,1.55006 1.49801,-1.24323 0.67073,-0.38786 -0.28095,-0.27706 -0.95167,0.11079 -2.3399,0.15728 -3.76084,0.0833 -2.09539,-0.10908 -3.0035,-0.2993 -3.24738,-0.35264 -0.75849,-1.62652 -1.12306,-3.15913 -3.69304,-4.50875 -1.3596,-0.714 -3.14991,-0.71099 -4.21036,-0.43014 -1.06044,0.28084 -1.70779,0.6484 -2.37159,1.00366 -2.53269,1.35545 -4.6897,4.686 -4.24524,7.76195 0.43352,3.00029 2.21687,5.04211 4.41381,6.91716 -0.11314,0.5437 -0.24148,1.09691 -0.14338,1.67214 0.26322,1.54367 1.10661,2.44667 1.6915,2.96255 0.58489,0.51589 1.06852,0.78357 1.54813,1.0308 1.91842,0.9889 4.16263,1.64407 8.14947,2.83855 0.97437,0.29193 1.34311,0.51204 1.54425,0.62584 0.0525,0.26318 0.0748,0.48177 0.18794,0.84866 0.10954,0.35518 0.18359,0.80087 0.82541,1.64694 0.0685,0.0902 0.28342,0.19973 0.37201,0.30032 l -2.19528,14.81087 7.68444,-9.24808 c 0.45938,1.1041 1.09753,2.13801 2.11197,3.15245 0.0857,0.0857 0.41464,1.77385 0.41464,0.28483 0,1.88931 0.32751,2.58326 0.7169,4.16192 0.38941,1.57865 0.90979,3.43851 1.48806,5.28572 1.0977,3.50637 2.96365,9.50978 4.14061,13.32086 0.60944,1.97338 1.24331,3.86952 1.79421,5.39423 0.27545,0.76235 0.52818,1.4274 0.76534,1.99958 0.23716,0.57217 0.1773,0.7734 0.96492,1.85427 -0.75344,-1.03397 -0.25023,-0.41138 -0.0736,0.0465 0.1766,0.45788 0.42459,1.1528 0.70721,1.98602 0.56524,1.66644 1.27677,3.90072 1.99571,6.26032 1.43789,4.71922 2.93879,10.09925 3.41401,12.32883 1.0041,4.71078 3.68459,13.79926 6.25645,21.42964 0.4589,1.36147 0.89501,2.93753 1.19937,4.27236 0.30436,1.33483 0.43983,2.64594 0.43983,2.51885 0,2.84591 0.77978,5.41824 1.8562,7.99446 0.13655,0.3268 0.16052,0.50527 0.25189,0.79635 -0.25436,0.28273 -0.48775,0.53375 -0.77504,0.86415 -1.01333,1.16542 -2.22442,2.61358 -3.43727,4.09993 -1.21284,1.48635 -2.42208,3.0044 -3.42176,4.3053 -0.99969,1.3009 -1.68103,2.15331 -2.31348,3.2532 0.17677,-0.30742 -0.24144,0.35496 -0.77115,1.06566 -0.52971,0.71071 -1.27194,1.6778 -2.17784,2.84437 -1.8118,2.33316 -4.28805,5.46585 -7.16323,9.06207 -5.75037,7.19244 -13.10163,16.25275 -20.01908,24.63439 -13.09061,15.86146 -19.1558,23.08089 -22.28411,27.5427 -3.12831,4.46182 -3.23576,7.87791 -3.23576,10.24012 v 9.56002 h 8.83923 c 4.1287,0 8.40995,-1.47501 12.59622,-4.91759 4.18626,-3.44256 8.83716,-8.73238 15.94241,-17.34327 17.92888,-21.72814 25.719,-30.77431 39.73977,-46.15122 l 10.79038,-11.83475 2.80368,0.29646 c 3.22209,0.33953 11.53788,0.78644 19.2363,1.07729 7.41055,0.27997 21.51121,1.39697 30.91603,2.45879 4.80566,0.54256 9.63652,1.03627 13.57275,1.39699 3.93623,0.36072 6.72035,0.59815 8.42265,0.60259 0.76244,0.002 1.64573,0.12756 2.24567,0.28676 0.59993,0.15921 0.94889,0.60981 0.23832,-0.10075 1.9199,1.91991 4.3725,2.5261 6.95785,2.75912 2.58534,0.23301 5.59375,0.0842 9.46895,-0.32164 0.56807,-0.0595 0.5659,-0.0356 0.9591,-0.0504 0.22885,0.18588 0.43585,0.45956 0.66654,0.57159 1.06797,0.51857 1.82314,0.4902 2.34252,0.46114 0.91343,-0.0511 1.39233,-0.19184 1.80777,-0.3507 0.50503,1.27225 1.1422,2.6534 1.86589,4.07473 1.47567,2.89819 3.14843,5.80299 4.93114,7.94601 0.48172,0.57908 0.8715,1.04507 1.31756,1.50745 0.44606,0.46236 0.53693,1.1254 2.67773,1.70119 0.7531,0.20255 1.93583,-0.006 3.00906,-0.42046 2.33435,1.79912 4.67423,3.16671 7.55657,3.22413 1.89354,0.0377 4.21494,-0.80801 5.59379,-2.48591 1.37885,-1.6779 1.76707,-3.65451 1.76707,-5.51435 0,-1.43925 0.16435,-3.13841 -1.45124,-5.12491 -0.8078,-0.99324 -2.03026,-1.65477 -2.97807,-1.9182 -0.9478,-0.26342 -1.68249,-0.28094 -2.3619,-0.28094 -0.15901,0 -0.32442,0.19324 -1.22456,-1.49388 -0.90013,-1.68712 -1.82883,-4.94185 -2.27278,-9.3682 -0.29425,-2.93393 -1.16544,-7.53059 -2.04609,-11.0539 -0.80363,-3.21526 -2.4658,-10.149 -3.66977,-15.30882 -3.73435,-16.00415 -9.30035,-30.29576 -17.2464,-44.26789 -1.64431,-2.89131 -4.1407,-6.80048 -6.55871,-10.38931 -2.418,-3.58883 -4.52292,-6.61094 -6.15375,-8.42266 -0.0367,-0.0408 -0.0184,-0.0235 -0.0484,-0.0581 0.0122,-0.0334 0.003,-0.0141 0.0175,-0.0523 0.5723,-1.5053 0.95203,-3.9463 0.25963,-5.96581 -0.6924,-2.0195 -1.77665,-3.39653 -3.30745,-5.40197 -0.91388,-1.19725 -1.45222,-2.11819 -1.7322,-2.69712 0.56285,-1.01549 2.12527,-3.46757 4.02823,-5.6616 1.10506,-1.2741 2.26437,-2.47435 3.23576,-3.3559 0.97139,-0.88154 1.94752,-1.43762 1.67407,-1.32336 2.25114,-0.94059 3.70521,-2.33925 5.60155,-4.22974 1.89633,-1.89049 3.98097,-4.28873 6.19444,-7.10898 4.88344,-6.22215 11.42499,-15.54052 16.82014,-23.67917 2.69756,-4.069328 5.0971,-7.829756 6.86291,-10.780697 0.88289,-1.47547 1.60429,-2.738934 2.15458,-3.81122 0.27514,-0.536143 0.50798,-1.017768 0.71496,-1.532625 0.207,-0.514859 2.03105,-4.876169 2.65674,-6.54163 0.28614,-0.761674 3.01217,-7.393556 2.47169,-7.813449 -0.54425,-0.422827 -6.10558,3.94328 -7.6073,4.760664 0,0 -3.92468,3.001135 -4.51974,3.309013 z m -152.60382,52.277854 5.69649,0.31971 c 15.96732,0.89441 36.06247,5.19701 47.52883,10.02504 2.4679,1.03912 7.67216,3.5761 12.22227,5.9193 2.24957,1.15849 4.35347,2.27678 5.94643,3.15826 -1.81481,2.57662 -3.32919,5.15736 -4.34987,7.62825 -1.14755,2.77806 -1.94643,5.34267 -1.36987,8.35872 0.0956,0.50036 0.0577,0.36211 0.0465,0.39334 -0.0112,0.0312 -0.17928,0.40223 -0.88355,1.15867 -1.80658,1.94043 -4.09546,5.06656 -5.81854,7.78132 -3.87966,6.11245 -15.91033,21.19121 -25.58576,31.85575 -3.97556,4.38201 -7.36845,8.17372 -9.74408,10.84658 -1.63564,-4.83247 -3.58223,-10.96154 -7.45194,-24.65958 -1.16204,-4.1134 -3.00358,-10.51629 -4.10767,-14.28191 -0.52038,-1.77479 -1.00019,-3.63674 -1.33693,-5.13265 -0.33674,-1.49591 -0.47664,-3.08478 -0.47664,-2.47041 0,-1.717 -0.30361,-2.68736 -0.68203,-4.35569 -0.37842,-1.66831 -0.88426,-3.6034 -1.44931,-5.49691 -3.51407,-11.77567 -7.38714,-26.85292 -8.18434,-31.04779 z m -14.15403,5.61705 c 0.43915,0.14166 0.86215,0.34877 1.3195,0.34877 -0.47869,0 -0.90232,-0.18154 -1.32531,-0.34296 z m 114.83652,38.78067 1.22648,1.33112 c 9.00152,9.76403 19.66679,28.52896 24.62083,43.64012 1.32648,4.0461 2.81938,9.49739 3.9546,14.24121 0.56762,2.37191 1.04856,4.57417 1.37762,6.31845 0.10804,0.57267 0.0852,0.58977 0.15501,1.06374 -1.17329,0.0553 -1.95029,0.12982 -5.46786,0.12982 -2.76166,0 -5.33184,-0.0544 -7.18067,-0.13758 -0.92441,-0.0416 -1.67901,-0.0922 -2.1139,-0.13563 -0.0721,-0.007 -0.0524,-0.007 -0.10463,-0.0136 -0.23631,-0.0774 -0.40125,-0.11667 -0.53089,-0.14532 -0.28586,-0.0632 -0.48478,-0.0926 -0.70528,-0.124 -0.441,-0.0629 -0.92927,-0.11602 -1.53456,-0.17438 -1.21061,-0.11675 -2.84845,-0.2456 -4.84201,-0.38365 -3.98715,-0.27608 -9.37821,-0.58755 -15.2507,-0.86997 -25.71319,-1.23658 -43.558,-2.4577 -50.40421,-3.23964 0.7201,-1.01791 1.25725,-1.62572 2.03639,-2.76492 9.52731,-13.93003 19.16542,-26.57781 24.72547,-32.59203 3.60884,-3.90365 8.68278,-9.60811 11.43947,-12.86748 1.22069,-1.44328 2.46222,-2.72553 3.32489,-3.5012 0.10813,-0.0972 0.11402,-0.0905 0.20926,-0.17051 0.85075,-0.05 1.60996,-0.23989 2.29603,-0.46114 1.28526,-0.4145 2.47282,-1.01409 3.7124,-1.7574 2.47918,-1.4866 5.12481,-3.57627 7.74258,-6.11306 z m -17.5758,9.24808 c 0.73205,0.26361 1.31445,0.25065 1.91433,0.27125 -0.44565,0.0639 -1.05174,0.0394 -1.91433,-0.27125 z m 61.80881,85.84835 c 0.0334,0.0265 0.22155,0.19712 0.29645,0.26159 -0.32403,-0.16601 -0.36243,-0.31396 -0.29645,-0.26159 z"
           id="path3" /><path
           style="baseline-shift:baseline;display:inline;overflow:visible;vector-effect:none;enable-background:accumulate;stop-color:#000000;stop-opacity:1"
           d="m 354.10547,83.005859 c -9.99465,8.656854 -16.47262,14.442344 -21.41211,19.636721 -4.20442,4.42135 -7.68849,9.14127 -9.92188,14.5039 -2.15673,-0.44621 -5.0782,-0.70746 -8.41992,-0.51562 -0.30936,-0.14113 -0.48931,-0.19067 -0.80078,-0.34766 -8.29942,-4.18315 -18.5084,-8.59936 -27.79883,-10.59961 l 0.002,0.002 c 1.61827,0.34851 -0.4866,-0.13086 -1.67188,-0.44727 -1.18528,-0.3164 -2.6817,-0.72415 -3.97851,-1.09375 -13.23502,-3.77199 -25.83801,-5.522934 -43.86524,-6.359374 -4.79062,-0.222271 -9.28564,-0.498208 -12.45508,-0.74414 h -0.002 c -1.57717,-0.122377 -2.87434,-0.24601 -3.4707,-0.314454 h -0.002 c -0.27901,-0.03202 -0.60607,-0.08987 -0.12695,-0.0078 0.28292,0.0485 0.40691,0.07182 0.76758,0.154297 -0.13444,-0.02804 -1.26342,-0.236291 -1.26367,-0.236328 0,0 -1.19078,-0.109654 -1.46094,-0.134766 -3.0613,-0.382944 -5.78652,-0.238112 -7.22266,0.05078 -0.23279,0.04683 -0.47717,0.185763 -0.71289,0.242188 -0.95936,-0.806251 -1.89158,-1.663477 -2.98242,-2.236328 -6.46178,-3.393432 -10.35812,-3.129952 -15.67187,-1.722657 -2.83099,0.749741 -5.36987,2.121847 -5.80274,2.353516 -8.77384,4.695603 -14.19441,12.164116 -12.47656,24.052736 0.68303,4.72711 2.80677,8.56477 5.10156,11.5957 1.54646,4.71885 4.55341,8.26065 6.07813,9.60547 1.50387,1.32646 2.99872,2.15259 3.99414,2.70703 l -2.08985,2.08984 3.56641,1.36133 17.21875,26.79883 c 0.55702,1.75424 1.12189,3.49221 1.6582,4.97656 0.32742,0.90618 0.6534,1.77669 1.0293,2.6836 -0.44323,-1.06934 0.43013,0.81777 1.48437,2.79297 -9.4e-4,5.7e-4 -0.0836,0.0505 -0.084,0.0508 -0.15764,-0.22974 -0.15873,-0.0239 -0.6543,-1.3086 0.0313,0.0813 0.24675,0.67053 0.48438,1.3711 0.48038,1.41627 1.16167,3.54849 1.84375,5.78711 1.35504,4.44729 2.93275,10.35523 3.07226,11.00976 1.33756,6.27519 4.01587,15.11051 6.74024,23.19336 0.24652,0.73139 0.58808,1.95842 0.76367,2.72852 0.015,0.0659 0.0754,0.38285 0.11328,0.63476 0.0189,0.12596 0.0326,0.22147 0.0547,0.38086 0.002,0.0178 0.0156,0.0992 0.0176,0.11524 0.009,0.1326 0.0145,0.26695 0.0254,0.39843 -0.0463,-0.0202 -0.0418,0.13349 0.0352,0.52149 0.0659,0.66292 0.13486,1.31078 0.23633,1.94336 -0.92008,1.14306 -1.85746,2.30289 -2.67383,3.36523 -0.48009,0.62475 -1.20148,1.75453 -1.82617,2.62305 -0.0194,0.0233 -0.0622,0.0702 -0.0801,0.0918 -0.25724,0.30994 -0.36896,0.46214 -0.46093,0.58398 -0.7358,0.9747 -0.48908,0.67918 -0.55664,0.77734 -0.13514,0.19634 -0.25411,0.3625 -0.30274,0.42774 -0.40692,0.54596 -1.11089,1.46836 -1.98633,2.5957 -1.73606,2.23562 -4.18007,5.32834 -7.02343,8.88477 -5.69002,7.11694 -13.0063,16.13303 -19.86329,24.4414 -13.06355,15.82869 -18.99535,22.76497 -23.04101,28.53516 -5.21972,7.44474 -6.11524,16.5229 -6.11524,19.36719 v 25.45703 h 24.73633 c 7.91498,0 16.12077,-3.13019 22.69336,-8.53516 5.89541,-4.84807 10.86888,-10.73147 18.10742,-19.5039 17.86873,-21.65524 25.32004,-30.30912 39.22461,-45.5586 l 5.3711,-5.89062 -5.19141,-0.54883 c 4.61119,0.48591 12.42197,0.8546 20.30273,1.15234 6.57674,0.24847 20.85279,1.36857 29.73243,2.3711 4.91752,0.55519 9.8344,1.05654 13.90625,1.42968 2.95625,0.27092 5.048,0.39272 7.29687,0.49805 3.94812,1.97711 7.89723,2.80987 10.5918,3.05273 2.30809,0.20803 4.5241,0.20615 6.74609,0.10547 1.23329,2.12868 2.62798,4.30821 4.5,6.5586 0.4965,0.59684 1.15899,1.4059 2.09766,2.3789 h 0.002 c -2.0388,-2.1133 -0.77109,-0.35354 1.82031,1.85938 2.59141,2.21291 5.67408,3.48549 8.16797,4.15625 1.44824,0.38951 2.56919,0.53578 3.67578,0.67187 2.97788,1.43339 6.54697,2.59104 10.70313,2.67383 6.88271,0.13704 12.91936,-1.87164 18.19141,-8.28711 4.33773,-5.27851 5.38281,-11.53534 5.38281,-15.60742 0,-0.22903 -0.26718,-9.31764 -5.01563,-15.15625 -1.81559,-2.23239 -3.56442,-3.74165 -5.38672,-4.85156 -0.44962,-4.32506 -1.35366,-8.87671 -2.40625,-13.08789 -0.75031,-3.00197 -2.42695,-9.99059 -3.61132,-15.06641 -4.05277,-17.36876 -10.23827,-33.26524 -18.91016,-48.51367 -2.0184,-3.54911 -4.61935,-7.5937 -7.19336,-11.41406 -0.96113,-1.42653 -1.85263,-2.72975 -2.76172,-4.03711 -0.1156,-2.01933 -0.43152,-4.17624 -1.30859,-6.73438 -0.14556,-0.42455 -0.36148,-0.67561 -0.52149,-1.07617 2.76456,-1.83488 4.86292,-3.83972 6.20703,-5.17969 2.5316,-2.5238 4.97253,-5.36031 7.47657,-8.55078 5.38579,-6.86221 11.98718,-16.29755 17.56445,-24.71094 10.60465,-15.997331 10.90175,-52.549997 11.36326,-51.818354 1.1194,1.774595 -17.36296,-5.494892 -49.56448,22.396413 z M 221.05469,96.898437 c 0.0326,0.0076 0.0445,0.0086 0.11328,0.02539 0.0103,0.0025 0.0472,0.01166 0.0703,0.01758 -0.052,-0.01292 -0.11338,-0.02643 -0.18359,-0.04297 z m -15.72852,1.574219 c -0.7205,0.316563 -0.93616,0.43926 -1.0039,0.47461 -0.35433,0.184899 0.0709,-0.103352 1.0039,-0.47461 z m 103.73438,19.066404 c -1.14022,0.30835 -2.28286,0.51053 -3.4043,1.02149 -0.62853,0.28638 -1.56101,0.78017 -2.74023,1.64062 2.8706,-2.39755 4.7009,-2.59428 6.14453,-2.66211 z m 11.94336,2.14258 c 0.009,0.007 0.018,0.0129 0.0273,0.0195 -7.5e-4,7.9e-4 -10e-4,0.001 -0.002,0.002 -0.008,-0.006 -0.0177,-0.0153 -0.0254,-0.0215 z m 0.61132,0.41797 c 0.003,0.002 0.005,0.004 0.008,0.006 -0.008,0.0271 -0.023,0.051 -0.0312,0.0781 l -0.004,-0.004 c 0.0195,-0.0643 0.009,-0.0185 0.0273,-0.0801 z m -71.26367,31.73047 c 10.25974,1.81677 20.45341,4.38834 25.89063,6.67773 0.41695,0.17556 2.45278,1.20597 3.54883,1.72461 -0.27651,1.11135 -0.4996,2.08555 -0.66407,3.34766 -1.56907,2.0296 -3.0262,4.07846 -4.34375,6.15429 -1.55651,2.45231 -8.10694,10.74101 -14.97851,19.04688 -1.09505,-3.83975 -2.35425,-8.2365 -3.23438,-11.23828 -0.41807,-1.42587 -0.83513,-3.05556 -1.08203,-4.15235 -0.007,-0.0317 -0.0854,-0.45539 -0.15625,-0.92187 -0.0311,-0.20494 -0.0267,-0.32368 -0.22461,-1.28711 -0.2595,-2.06995 -0.6054,-3.85869 -0.7832,-4.64258 -0.46784,-2.06253 -1.0504,-4.27917 -1.7207,-6.52539 -0.75277,-2.52252 -1.47641,-5.36897 -2.25196,-8.18359 z m 30.47656,10.23633 c -0.14885,0.2945 -0.27672,0.56738 -0.39257,0.83593 0.0188,-0.0474 0.0633,-0.17876 0.0762,-0.21093 0.0438,-0.0683 0.19062,-0.4617 0.22461,-0.49805 0.005,-0.007 0.0821,-0.11364 0.0918,-0.12695 z m -1.78125,7.42773 c 0.0715,0.8048 0.0413,1.57463 0.19922,2.40234 0.0247,0.14469 -0.0853,1.66142 -0.21093,-2.0664 -0.002,-0.0725 0.0139,-0.25502 0.0117,-0.33594 z m 47.67774,30.66211 c 5.39185,8.4396 11.09463,19.24913 13.83789,27.5625 -0.27817,-0.0199 -0.44876,-0.0384 -0.74023,-0.0586 -4.1503,-0.28738 -9.61957,-0.60174 -15.58594,-0.88868 -8.5157,-0.40953 -14.7425,-0.80314 -21.42969,-1.19921 3.5546,-4.61394 6.81069,-8.68588 8.69727,-10.72657 3.73675,-4.04201 8.60781,-9.52063 11.68359,-13.14648 1.29165,-0.4838 2.47385,-0.99173 3.53711,-1.54297 z m 6.86719,71.58203 c 0.0197,0.0118 0.23266,0.11505 0.24609,0.12695 0.0424,0.0278 0.0806,0.0702 0.12305,0.0977 -0.68626,-0.3577 -0.91801,-0.55158 -0.36914,-0.22461 z"
           id="path4"
           sodipodi:nodetypes="ssccsccscsccccscccscsscscsccccsccccsssssscccccsccsssssssscssssccssscscsccsscsssscsssscscssssssscsscsccsccscccscccccccsccscscscsscscccsssccsssccscscsssccss" /></g></g><g
       id="text3"
       inkscape:label="Text"
       style="opacity:1"><path
         id="path6"
         style="font-size:133px;font-family:'New Rocker';-inkscape-font-specification:'New Rocker';letter-spacing:2.02104px;baseline-shift:baseline;white-space:pre;display:inline;overflow:visible;fill:none;stroke:#000000;stroke-opacity:1;enable-background:accumulate;stop-color:#000000;stop-opacity:1;stroke-width:1.00038963;stroke-dasharray:none"
         d="m 366.81125,308.76452 -2.87682,2.28772 c -2.09463,1.65824 -4.37708,3.41043 -6.8337,5.2529 -1.52311,1.12814 -2.94937,2.15589 -4.39869,3.21066 -1.5154,-1.06126 -3.00466,-2.09453 -4.59507,-3.23029 -2.42514,-1.81949 -4.62735,-3.54639 -6.59805,-5.17436 l -2.79828,-2.31717 -2.73937,2.39571 c -1.45661,1.27454 -2.56198,2.27725 -3.39721,3.11248 -0.47679,0.47678 -1.40834,1.33511 -2.70009,2.45463 l -3.46594,3.00446 3.24011,3.24994 c 3.06017,3.06017 6.25589,6.38519 9.5927,9.98543 l 0.0393,0.0393 0.0393,0.0393 c 3.17347,3.25483 6.30944,6.71084 9.41596,10.35854 l -0.0393,8.9054 c -0.16531,-0.0115 -0.33355,-0.0277 -0.50075,-0.0393 -2.49153,-0.25826 -5.11131,-0.55971 -7.86463,-0.90331 -2.68234,-0.43335 -5.36814,-0.90438 -8.05119,-1.42368 l -3.09284,-0.59893 -1.48259,2.78846 c -1.66104,3.11444 -2.87966,6.72504 -3.74086,10.83965 -0.85273,4.07416 -1.31955,8.23491 -1.41387,12.47934 l -0.0589,2.23862 7.71736,5.6162 2.04225,-5.10563 c 0.81775,-2.04437 1.52948,-2.45692 1.62988,-2.49391 l 0.0589,-0.0196 0.0491,-0.0295 c 0.88409,-0.35363 3.09839,-0.75603 6.26422,-0.75603 3.43984,0 7.21069,0.13165 11.30112,0.39274 0.32082,0.0205 0.47353,0.0477 0.78548,0.0687 l -3.01429,2.82774 h -12.57752 l -1.2175,1.09967 c -1.65291,1.48762 -3.33716,2.84539 -5.05654,4.07469 -1.56034,1.09093 -3.02603,1.91439 -4.37906,2.48409 l -2.19935,0.92294 h -10.37818 c -0.005,-0.61786 -0.01,-1.257 -0.01,-1.91461 v -38.30206 l -6.18567,3.09283 c -2.63997,1.31998 -5.91398,2.47126 -9.82834,3.38739 h -0.01 l -0.01,0.01 c -3.83716,0.91758 -7.76592,1.49669 -11.78223,1.7477 l -4.00596,0.25528 v 9.02322 l 3.17138,0.8444 c 0.91313,0.2435 1.32829,0.53509 1.34514,0.54983 l 0.21601,0.18656 0.21601,0.14727 c 0.0328,0.0387 0.12313,0.16701 0.25528,0.51057 0.18768,0.48797 0.44465,1.65257 0.52038,3.31866 l 0.01,0.0982 0.01,0.0884 c 0.15937,1.75301 0.24546,4.13846 0.24546,7.06934 v 17.94825 l -7.90391,3.45612 -1.90479,-1.44332 v -24.75249 -5.96967 -0.0196 c 0.079,-1.56114 0.12302,-3.02171 0.12764,-4.38888 0.0851,-1.36216 0.17044,-2.63633 0.25528,-3.82923 0.17543,-1.23921 0.34732,-2.57423 0.52038,-4.04523 l 0.88367,-7.5799 -6.92206,3.20084 c -0.87982,0.40607 -2.29073,0.93553 -4.09433,1.51205 -1.86143,0.5061 -3.89676,1.01934 -6.11693,1.53169 -2.22528,0.51352 -4.44266,0.97523 -6.66678,1.40405 -2.20951,0.33873 -4.20017,0.60013 -5.94021,0.76585 l -3.53467,0.33383 -0.69711,7.66826 2.30735,1.3746 c 0.87498,0.52499 1.44705,1.07995 1.87534,1.6986 l 0.108,0.1571 0.11783,0.13746 c 0.4457,0.53484 0.9308,1.39949 1.33531,2.68045 0.39803,1.26044 0.72414,2.9912 0.88367,5.14491 l 0.01,0.0884 0.01,0.0884 c 0.24026,2.08224 0.36328,4.68332 0.36328,7.75663 1e-5,1.60887 -0.029,3.26258 -0.0884,4.96818 h -9.27851 c -0.1342,-2.69706 -0.19637,-5.41409 -0.19637,-8.15919 0,-7.60844 0.52037,-14.15335 1.52187,-19.57814 l 1.12913,-6.08748 -6.0973,1.10949 c -0.79658,0.14483 -1.64763,0.25599 -2.543,0.33383 h -4.13359 c -3.16583,0 -6.69672,-0.32708 -10.57455,-1.00149 -3.75295,-0.65269 -8.68994,-1.97043 -14.67869,-3.96668 l -2.50373,-0.83458 -1.86552,1.86552 c -3.77717,3.77717 -7.63773,6.88164 -11.57603,9.34724 -3.93902,2.37734 -7.36,3.7394 -10.10326,4.23178 l -7.05952,1.26659 1.74769,2.18953 h -3.7114 c -0.23534,-0.72826 -0.42503,-1.42042 -0.57929,-2.08153 -0.5204,-2.23028 -0.81494,-5.12423 -0.81494,-8.61084 0,-2.44741 0.0772,-4.98556 0.24547,-7.61918 0.20744,-2.13407 0.51591,-4.32393 0.83457,-6.51949 1.01625,-0.76488 2.06784,-1.46891 2.98483,-2.38591 1.40095,-1.40094 2.62498,-2.88744 3.67213,-4.44779 1.05744,-1.45003 2.0012,-2.91398 2.79828,-4.40851 0.73948,-1.38653 1.35006,-2.6108 1.84588,-3.70159 l 3.23029,-7.10861 -7.72717,1.1095 c -1.15673,0.16525 -2.25642,0.28233 -3.30885,0.36328 -1.03571,0.0797 -2.12996,0.11782 -3.26956,0.11782 -3.59524,0 -7.44435,-0.35879 -11.54659,-1.10949 -4.22108,-0.86246 -8.21607,-1.85354 -11.97859,-2.96519 -3.76715,-1.11302 -7.0203,-2.26048 -9.7498,-3.41685 -2.68293,-1.1752 -4.46943,-2.24562 -4.71289,-2.44481 l -2.30735,-1.88516 -2.56263,1.51206 c -4.93171,2.89101 -9.21879,4.81935 -12.72481,5.8322 h -0.01 -0.01 c -3.50485,1.03552 -7.12519,1.55132 -10.89856,1.55132 -2.14098,0 -4.38233,-0.12202 -6.725688,-0.3731 -2.4148,-0.25873 -5.111318,-0.6041 -8.08064,-1.04076 l -5.400187,-0.7953 0.5302,5.43946 c 0.5034,5.13468 2.075718,9.60228 5.056539,12.94081 1.964873,2.20065 4.390498,3.78554 6.990788,5.04672 0.007,0.33716 0.02946,0.67417 0.02946,1.01131 v 0.1571 l 0.0098,0.14727 c 0.0815,1.14036 0.12765,2.28707 0.12765,3.42667 0,4.33675 -0.41999,8.66808 -1.25678,13.01936 v 0.0393 l -0.0098,0.0295 c -0.69638,3.94619 -2.13014,7.45393 -4.359428,10.68255 l -1.973523,2.85719 2.395719,2.52336 c 1.136892,1.19102 2.340042,3.41996 3.200842,6.86315 l 0.0098,0.0393 0.01963,0.0491 c 0.95373,3.49702 1.44333,7.32044 1.44333,11.5073 0,3.67074 -0.40654,7.24179 -1.2175,10.73165 v 0.01 c -0.78915,3.30413 -1.93651,5.93564 -3.348118,7.98246 l -2.768823,4.01577 4.339791,2.20917 c 3.63097,1.85583 7.031698,4.24312 10.221078,7.18716 l 0.0196,0.0196 0.0196,0.0196 c 3.15624,2.84061 5.2509,5.76023 6.48023,8.7974 l 3.37757,8.35556 4.32997,-7.90391 c 1.96505,-3.58834 3.95712,-6.76042 5.95984,-9.51415 1.76422,-2.4258 4.34972,-4.85933 7.845,-7.21661 l 5.43946,-3.67213 -5.55728,-3.49539 c -2.27785,-1.4318 -4.08482,-3.59107 -5.49838,-6.92206 -1.37482,-3.45196 -2.08152,-7.16964 -2.08152,-11.27167 v -1.03094 c 3.77747,0.0986 7.6054,0.1954 10.9182,0.38292 4.45544,0.24752 8.3035,0.985 11.56622,2.15026 l 2.96519,1.0604 1.89497,-2.52336 c 1.24617,-1.66157 2.47513,-3.1306 3.68195,-4.41834 v -0.01 h 0.01 c 1.22818,-1.3042 2.51018,-2.42881 3.85868,-3.40703 1.40468,-0.95645 3.03709,-1.84147 4.90926,-2.62155 l 0.0589,-0.0294 0.0687,-0.0295 c 1.87535,-0.85954 4.1553,-1.68446 6.82387,-2.43499 l 4.98781,-1.39423 -0.80512,-1.61024 h 3.26957 c 0.11685,0.93982 0.22931,1.95391 0.33383,3.03392 l 0.01,0.0687 0.01,0.0589 c 0.34012,2.63589 0.59367,5.47013 0.76584,8.48321 0.17316,2.94358 0.2651,5.65662 0.2651,8.12973 0,4.87908 -0.31419,8.77918 -0.85421,11.55641 l -0.01,0.0491 -0.01,0.0491 c -0.42396,2.47311 -1.21296,3.64574 -1.23713,3.72122 v 0.01 l -12.41061,10.63346 16.03365,-3.21066 c 0.17474,-0.0349 0.33245,-0.0491 0.49092,-0.0491 h 0.35347 l 0.35347,-0.0589 c 0.30417,-0.0507 0.59887,-0.0687 0.89348,-0.0687 1.52287,0 3.69539,0.18743 6.39186,0.60875 2.70855,0.42321 5.41433,0.98047 8.12974,1.65933 2.71384,0.67846 5.18959,1.39209 7.44244,2.14044 2.13608,0.79794 3.54337,1.60485 3.78995,1.8066 l 2.99465,2.44482 2.73936,-2.72955 c 1.69414,-1.69414 3.60152,-3.33391 5.74384,-4.89945 l 0.0491,-0.0196 0.0393,-0.0393 c 2.12697,-1.63613 4.31709,-3.05437 6.58822,-4.27105 2.30846,-1.23667 4.60274,-2.2624 6.87297,-3.0732 2.23078,-0.7967 4.27055,-1.29049 6.11694,-1.51205 l 4.48706,-0.53021 -0.78548,-4.44779 c -0.59623,-3.37863 -1.07601,-6.80157 -1.44332,-10.26035 h 8.17883 c -0.0766,1.11833 -0.16959,2.20651 -0.27492,3.25975 -0.25711,2.57113 -0.55243,4.724 -0.87385,6.41149 l -0.0196,0.0982 -0.01,0.0982 c -0.16256,1.13795 -0.53756,2.03698 -0.54002,2.1699 h 0.01 v 0.01 h 0.01 l 0.01,-0.01 0.01,-0.01 c 0.0135,-0.0147 0.0373,-0.0395 0.0589,-0.0687 l -2.3859,3.58376 4.04523,2.24844 c 1.5314,0.85078 2.87942,1.64907 4.0256,2.3859 l 0.14728,0.0982 0.14727,0.0786 c 1.16475,0.6212 2.29485,1.32077 3.38739,2.10116 l 0.0589,0.0393 0.0589,0.0393 c 1.16591,0.77728 2.34723,1.68342 3.5543,2.72955 l 0.11782,0.108 0.11783,0.0884 c 1.28193,0.96145 2.79373,2.20802 4.49688,3.74085 l 3.01429,2.71974 2.867,-2.86701 c 1.36491,-1.36491 2.6758,-2.64128 3.94705,-3.82923 1.2934,-1.12978 2.67744,-2.22879 4.14342,-3.2892 1.57035,-1.07267 3.27647,-2.15214 5.11545,-3.24011 0.6087,-0.34384 1.44895,-0.75598 2.1208,-1.11932 0.46135,1.29096 0.96402,2.5503 1.62987,3.69177 l 0.0393,0.0589 0.0294,0.0491 c 1.68059,2.68894 4.10436,5.24804 7.24607,7.91373 l 4.28088,3.63285 2.35644,-5.10563 c 0.33983,-0.7363 0.95085,-1.70649 1.8557,-2.83755 l 0.0393,-0.0589 0.0393,-0.0491 c 0.93581,-1.24775 2.00513,-2.46659 3.20084,-3.66231 1.19572,-1.19571 2.41456,-2.26503 3.66231,-3.20084 1.24774,-0.93581 2.30886,-1.57695 3.08302,-1.93425 l 2.48408,-1.13895 v -7.65845 l -3.37757,-0.71675 c -0.58249,-0.12482 -0.80319,-0.2816 -0.98185,-0.4222 v -0.01 c -0.0415,-0.0755 -0.32125,-0.48885 -0.58911,-1.45315 -0.29021,-1.04473 -0.55548,-2.63959 -0.72657,-4.67361 h 16.98604 l -9.99526,9.42578 v 1.83606 c 0,1.23431 0.10897,2.55996 0.30438,4.0256 0.19131,1.43481 0.43582,2.83568 0.72657,4.19251 0.2791,1.30248 0.56227,2.48383 0.85421,3.5543 0.30348,1.11275 0.2599,1.65154 1.22732,3.10266 l 1.56114,2.3368 2.75901,-0.50074 c 1.87103,-0.34018 3.64873,-0.63836 5.34127,-0.89349 1.64384,-0.16227 3.56123,-0.2884 5.76347,-0.3731 2.22965,-0.0858 4.92821,-0.12764 8.08065,-0.12764 h 12.10624 2.77864 l 3.84886,0.25528 c 1.2538,0.0836 2.41573,0.16227 3.50521,0.24546 1.03556,0.15579 1.82448,0.34634 1.81643,0.34365 l 3.6034,1.19786 1.61023,-3.43648 c 0.93619,-1.98942 1.53562,-4.2405 1.93425,-6.7846 0.48652,-2.54737 0.73639,-5.10666 0.73639,-7.66827 0,-0.844 -0.0423,-1.64738 -0.13746,-2.42517 -0.0109,-0.78478 -0.0594,-1.5451 -0.16691,-2.29754 l -0.56948,-3.99613 -4.01577,0.34364 c -1.12708,0.0939 -2.77895,0.0958 -4.23178,0.13746 l 0.71675,-2.4939 h 17.04495 v 11.6644 c 0,6.27843 1.79099,12.09089 5.3511,16.9075 l 1.28622,1.72806 h 3.44631 l 0.59893,-0.17673 c 2.6016,-0.78048 5.10799,-1.46846 7.52098,-2.07171 2.34333,-0.58583 4.88472,-1.09614 7.60936,-1.52187 l 3.61322,-0.56948 v -8.62066 l -2.70992,-1.01131 c -0.0387,-0.0736 -0.11513,-0.23673 -0.24546,-0.58911 -0.32102,-0.86797 -0.6382,-2.64731 -0.6382,-5.13509 v -10.604 h 14.22704 v 22.28804 l 2.35644,1.17823 c 1.35497,0.67749 3.10272,1.59145 5.20382,2.72955 2.0658,1.11898 4.08078,2.28203 6.05803,3.48557 l 2.70009,1.6397 2.36626,-2.10117 c 0.51901,-0.46134 1.45945,-1.15761 2.74919,-1.9637 1.29653,-0.81033 2.68029,-1.58562 4.16305,-2.32699 l 0.0884,-0.0393 0.0786,-0.0491 c 1.51378,-0.84099 3.0705,-1.63635 4.67362,-2.39572 1.57109,-0.7442 3.03291,-1.35112 4.37906,-1.82624 l 2.85719,-1.01131 v -8.93486 l -4.05505,-0.21601 c -2.43005,-0.1279 -4.07924,-0.86369 -5.67511,-2.44481 -1.21935,-1.28269 -2.11098,-3.48024 -2.11098,-7.38353 v -24.5463 l 11.58585,1.46296 0.92295,-3.68195 c 0.3291,-1.31641 0.91625,-2.75813 1.79679,-4.31033 0.99832,-1.6019 2.09589,-3.03262 3.2892,-4.30051 l 1.15859,-1.23714 v -6.49986 h -18.75338 v -2.77864 c 0,-0.63974 0.0403,-1.9471 0.12764,-3.78013 v -0.01 c 0.0846,-1.86111 0.21427,-3.77149 0.38292,-5.7242 0.25997,-2.07645 0.51697,-4.03123 0.77566,-5.84202 0.24182,-1.69279 0.55925,-2.86108 0.66766,-3.13211 l 4.34961,-10.88874 -10.32909,5.52783 c -3.69172,1.97464 -7.14153,3.5921 -10.32908,4.85035 -2.92401,1.15421 -6.15176,1.8613 -9.74979,2.10116 l -8.16902,0.54984 4.84054,6.03839 c -0.0293,-0.0355 -0.0576,-0.0597 -0.0687,-0.0687 h -0.01 v 0.01 l 0.01,0.01 c 0.0224,0.0923 0.27989,0.5994 0.41237,1.30586 v 0.0295 l 0.01,0.0196 c 0.23377,1.16884 0.43263,2.55372 0.59893,4.1336 v 0.01 l 0.01,0.0196 c 0.1687,1.51831 0.28881,3.02874 0.3731,4.54597 l 0.01,0.13746 0.0196,0.12764 c 0.16825,1.43009 0.23565,2.47449 0.23565,2.82774 v 2.15025 c -2.68286,2.18275 -5.43219,3.92639 -8.30648,5.03691 l -2.73936,1.05058 v 8.66975 h 11.04584 v 16.78968 h -14.22704 v -30.62397 l -4.63435,-7.71736 -3.06338,0.76584 c -0.24379,0.0609 -0.49601,0.11503 -0.7462,0.17673 l -0.10801,-7.24607 c 0.001,-0.003 -0.001,-0.007 0,-0.01 1.1512,-2.04442 2.41869,-3.68513 3.77032,-4.97799 h 0.01 c 1.93629,-1.85561 4.34035,-3.81173 7.21662,-5.84203 l 5.48855,-3.86849 -5.8322,-3.3383 c -0.46712,-0.26693 -1.35823,-0.81339 -2.49391,-1.54151 -1.09647,-0.84123 -2.26348,-1.70978 -3.50521,-2.62154 l -0.01,-0.0196 c -1.16514,-0.91575 -2.28814,-1.82771 -3.36775,-2.73937 -0.91586,-0.84391 -1.55586,-1.54428 -1.82624,-1.90479 l -2.19935,-2.92592 -3.2303,1.71824 c -3.17098,1.69118 -6.02728,4.05395 -8.54211,6.97115 v 0.01 c -2.27795,2.6576 -4.25336,5.38789 -5.90093,8.19846 l -1.80661,3.08302 2.70991,2.31717 c 0.72245,0.61924 1.65131,1.36541 2.83755,2.2779 1.14008,0.87698 2.32358,1.79199 3.55431,2.759 1.16361,0.91426 2.23382,1.82431 3.21065,2.71974 l 0.13746,0.12764 0.14728,0.108 c 0.33282,0.25601 0.6295,0.5008 0.88367,0.71675 l 0.11782,8.06101 c -0.0213,0.005 -0.0475,0.005 -0.0687,0.01 -3.55322,0.69246 -6.83556,1.25984 -9.83816,1.68878 l -3.67213,0.52038 v 7.97265 l 4.9289,2.13061 v 23.04408 h -12.22406 c 0.11441,-0.12234 0.2196,-0.23924 0.33383,-0.35347 l 1.25677,-1.24695 v -6.98097 h -4.05505 l 5.92057,-5.24309 v -1.91461 c 0,-3.16742 0.0797,-6.00991 0.24547,-8.5323 0.23745,-2.42456 0.69959,-4.43448 1.31568,-6.00894 l 1.67896,-4.29069 -7.89409,-2.42518 -1.61024,0.92295 c -0.52206,0.29832 -2.25545,0.94245 -4.75216,1.51205 -2.31062,0.45847 -5.03419,0.71675 -8.15919,0.71675 -0.71708,0 -1.58794,-0.0192 -2.60191,-0.0491 l 0.0491,-10.46655 c 4.97406,-5.28297 8.84749,-9.43287 11.64477,-12.46952 l 0.0393,-0.0393 c 3.16347,-3.33934 5.3754,-5.68852 6.62751,-7.03006 l 3.15174,-3.36775 -3.6034,-2.88665 c -1.25766,-1.00613 -2.18942,-1.82613 -2.70991,-2.34662 -0.77228,-0.77228 -1.81178,-1.76431 -3.16156,-3.02411 z m -241.36874,30.63379 c 0.36054,0.11589 0.75456,0.21552 1.10949,0.33383 l 0.0982,0.0393 0.0982,0.0295 c 2.16579,0.60642 4.33242,1.25049 6.49987,1.94407 l 0.0982,0.0294 0.0982,0.0295 c 2.3319,0.62782 4.74999,1.24887 7.25588,1.87534 1.50517,0.37629 3.19164,0.70812 4.81108,1.05058 0.0245,1.2289 0.0687,2.2831 0.0687,3.72122 v 0.0687 l 0.2651,8.05119 c 0.0873,2.61892 0.12764,5.05443 0.12764,7.30498 v 0.0785 l 0.01,0.0884 c 0.0552,1.43451 0.11064,2.31131 0.16691,3.35794 -0.31027,0.29889 -0.6715,0.51422 -0.97203,0.84439 -0.14267,0.14458 -0.20755,0.35019 -0.34365,0.50074 -0.20559,-0.0557 -0.35559,-0.17218 -0.56947,-0.22582 -1.58461,-0.42005 -3.31931,-0.70982 -5.22346,-0.90331 -1.8606,-0.27418 -3.7901,-0.45583 -5.79292,-0.54983 -2.02997,-0.18175 -3.98764,-0.28474 -5.87148,-0.28474 -0.65323,0 -1.27066,0.0523 -1.90479,0.0786 -0.0274,-1.84076 -0.0785,-3.69578 -0.0785,-5.50819 v -10.64328 -8.3752 c 0,-0.96146 0.0388,-1.96345 0.0491,-2.93574 z m 166.01158,19.38176 0.32401,0.24547 c -0.0746,-0.0507 -0.15433,-0.0892 -0.22582,-0.14728 -0.0401,-0.0285 -0.0658,-0.0629 -0.0982,-0.0982 z m -85.13641,13.20592 c 1.0251,0.28215 1.96427,0.5812 3.12229,0.84439 l 0.0491,0.01 0.0491,0.01 c 2.78329,0.56931 5.65856,0.87523 8.52247,1.22731 l -0.20618,28.5719 c -1.72143,-0.4035 -3.30878,-0.90401 -5.14491,-1.21749 -2.26967,-0.38751 -4.21886,-0.63554 -6.26422,-0.92295 0.0828,-1.84364 0.1818,-3.67596 0.23565,-5.54746 v -0.108 c 0.1767,-3.29682 0.2651,-6.25522 0.2651,-8.89559 0,-3.35568 -0.0835,-6.67508 -0.2651,-9.94616 -0.0683,-1.26282 -0.25726,-2.70492 -0.36329,-4.02559 z m 146.73782,24.32048 13.44156,1.87534 c -2.88241,0.005 -5.88627,0.0438 -9.07232,0.12764 -2.31521,0.0609 -4.67668,0.22059 -7.03006,0.36328 z" /></g><g
       id="path1-91-9"
       style="display:inline;stroke-width:1.12667;stroke-dasharray:none"
       transform="matrix(0.88461385,-0.07655415,0.07655415,0.88461385,28.730823,47.174156)"><path
         style="baseline-shift:baseline;display:inline;overflow:visible;opacity:1;fill:none;stroke:#000000;stroke-width:1.12667;stroke-dasharray:none;stroke-opacity:1;enable-background:accumulate;stop-color:#000000;stop-opacity:1"
         d="m 395.05273,66.177734 c -0.91784,-0.150681 -1.67082,-0.05927 -2.17187,0.0039 -1.0021,0.126347 -1.50281,0.331638 -1.92578,0.496093 -0.84595,0.32891 -1.30188,0.602237 -1.7793,0.88086 -0.95484,0.557246 -1.8174,1.148007 -2.69726,1.757812 -3.73542,2.588898 -3.4117,2.26209 -4.42774,3.039063 0,0 -0.95798,0.732504 -1.97461,1.492187 -2.31041,1.836968 -1.33141,0.831217 -3.53515,2.207038 L 376.31836,76.5 c -0.82375,0.555418 -1.70345,1.051804 -2.52734,1.677734 -3.25437,2.472436 -7.66596,6.170085 -13.86915,11.542969 -9.93731,8.607188 -16.28858,14.310157 -20.79101,19.044927 -8.68424,9.13231 -7.58322,12.21939 -10.3125,15.60742 -0.86367,1.07213 -1.97027,2.14534 -2.9375,3 -1.24682,-0.52574 -2.45965,-0.93661 -3.35742,-1.19532 -2.21912,-0.63945 -5.93411,-1.36614 -9.92188,-0.53125 -0.4951,-0.22204 -0.98896,-0.38851 -3.05078,-1.42773 -7.59143,-3.82631 -18.3626,-8.2748 -25.66797,-9.84766 0.59311,0.12774 -0.8693,-0.22001 -2.09375,-0.54687 -1.22444,-0.32686 -2.75423,-0.74521 -4.12109,-1.13477 -12.5555,-3.57833 -24.16511,-5.20912 -41.8418,-6.02929 -4.87204,-0.22605 -9.43039,-0.50565 -12.73047,-0.76172 -1.6467,-0.12777 -3.00583,-0.25274 -3.79883,-0.34375 -0.3937,-0.0452 -0.78863,-0.10849 -0.62304,-0.0801 0.10388,0.0178 0.13997,0.0251 0.29492,0.0606 -0.0627,-0.0131 -0.56029,-0.10544 -0.56055,-0.10547 0,0 -0.1015,-0.009 -0.15234,-0.0137 -2.22545,-0.45721 -4.31614,-0.39089 -5.50195,-0.15235 -1.13459,0.22825 -2.287,0.63077 -3.39258,1.16406 -0.0228,0.009 -0.0522,0.0194 -0.0723,0.0273 -0.40129,0.0268 -0.92785,0.037 -1.55859,0.0273 -1.09802,-1.45902 -2.57246,-3.01567 -4.55469,-4.05664 -3.61006,-1.89584 -6.32913,-1.77965 -9.26562,-1.00195 -1.84139,0.48766 -3.32283,1.29886 -3.88477,1.59961 -5.28553,2.82872 -8.88308,7.98423 -7.87695,14.94726 0.52738,3.6499 2.34979,6.29648 4.29101,8.49805 0.0147,0.10522 -0.0107,0.15889 0.008,0.26758 0.60422,3.54354 2.84351,6.05394 3.96484,7.04297 1.12056,0.98836 2.36726,1.69183 2.97266,2.0039 2.09353,1.07917 4.27405,1.77938 6.83007,2.55078 l -5.33984,36.02539 15.98437,-19.23632 c 0.12715,0.42496 0.21363,0.80232 0.34766,1.23047 1.09281,3.49076 2.9598,9.49661 4.13281,13.29492 0.64026,2.07315 1.30033,4.0536 1.89844,5.70898 0.29837,0.82579 0.58446,1.58096 0.88281,2.30078 -0.0844,-0.20363 0.60111,1.05451 1.03125,1.91602 -0.002,0.001 -0.0912,0.0563 -0.0918,0.0566 -0.0465,-0.0964 1.8e-4,0.0617 -0.11328,-0.23242 0.0163,0.0422 0.0668,0.19163 0.0879,0.24804 -3e-5,2e-5 -0.0137,0.008 -0.0137,0.008 4e-5,6e-5 0.0301,0.05 0.041,0.0684 0.12575,0.33933 0.28105,0.76239 0.49414,1.39062 0.52781,1.5561 1.22505,3.74455 1.92773,6.05078 1.40135,4.59928 2.93653,10.21319 3.26368,11.74805 1.15118,5.40081 3.83157,14.37707 6.4707,22.20703 0.36523,1.08356 0.76025,2.50606 1.00781,3.5918 0.0917,0.40211 0.17945,0.91037 0.23633,1.28906 0.0284,0.18935 0.0489,0.3398 0.0684,0.48047 0.01,0.0703 0.0116,0.10066 0.0449,0.30469 0.005,0.0335 0.13106,0.4325 0.10742,0.41992 0.14757,2.05074 0.49072,3.94712 1.03125,5.69922 -0.59066,0.70547 -1.13967,1.33993 -1.75,2.08789 -1.24801,1.52945 -2.49038,3.08942 -3.54882,4.46679 -0.68077,0.88589 -1.33789,1.8605 -2,2.84766 -0.0342,0.0397 -0.0881,0.0967 -0.11329,0.12695 -0.11451,0.13799 -0.16488,0.20589 -0.20703,0.26172 -0.33719,0.44667 -0.25873,0.36118 -0.33008,0.46485 -0.14269,0.20733 -0.32661,0.47183 -0.49609,0.69921 -0.47555,0.63805 -1.20129,1.58511 -2.09375,2.73438 -1.77839,2.29014 -4.24041,5.40571 -7.10156,8.98437 -5.72375,7.15915 -13.06039,16.19951 -19.95117,24.54883 -13.07868,15.84701 -19.08426,22.94156 -22.61719,27.98047 C 169.45507,313.88494 169,319.7982 169,322.37305 v 16.57226 h 15.85156 c 5.79875,0 11.81001,-2.20552 17.04883,-6.51367 4.94013,-4.0625 9.73439,-9.61473 16.89844,-18.29687 17.90234,-21.69599 25.5422,-30.56797 39.51172,-45.88868 l 8.40039,-9.21289 c -0.25642,-0.027 4.85292,0.49928 18.98437,1.03318 7.04277,0.26607 21.22136,1.38425 30.39453,2.41992 4.855,0.54813 9.72271,1.04591 13.71875,1.41211 3.92026,0.35925 6.6405,0.6162 8.96094,0.62695 3.01591,1.97987 6.33791,2.68968 8.91406,2.92188 2.95134,0.26599 6.04033,0.0985 9.51758,-0.23047 0.6297,0.23135 1.24007,0.4106 1.8457,0.52929 0.048,0.0954 0.0803,0.18772 0.12891,0.28321 3.83586,7.41485 6.41102,11.70114 13.35352,14.74414 1.57275,0.423 2.74086,0.4612 3.76562,0.35742 2.37333,1.39817 5.07148,2.61763 8.48047,2.68555 4.09416,0.0815 8.05629,-1.27543 11.15234,-5.04297 2.68395,-3.26606 3.36133,-7.13119 3.36133,-9.9668 0,-0.90545 -0.026,-5.86325 -3.02344,-9.54883 -1.9629,-2.41351 -4.03935,-3.48908 -6.3125,-4.15429 -0.34932,-1.20586 -0.75705,-2.87814 -0.98828,-5.1836 -0.35881,-3.57773 -1.25595,-8.19489 -2.2207,-12.05469 -0.78012,-3.12118 -2.44725,-10.0784 -3.64258,-15.20117 -3.87479,-16.60605 -9.71426,-31.60554 -17.98047,-46.14062 -1.80931,-3.18145 -4.35107,-7.15085 -6.83789,-10.8418 -1.63035,-2.4198 -3.03897,-4.20134 -4.49218,-6.11328 0.27942,-1.99689 0.26703,-4.16694 -0.61524,-6.74024 -0.82141,-2.39579 -2.00198,-4.14638 -3.17383,-5.73632 0.36163,-0.48345 0.45004,-0.72258 0.82617,-1.15625 0.94276,-1.08697 1.96854,-2.13902 2.6504,-2.75782 0.16348,-0.14836 0.42534,-0.34959 0.64843,-0.50781 0.11155,-0.0791 0.14682,-0.0968 0.43946,-0.31055 0.0731,-0.0534 0.1588,-0.1121 0.375,-0.29101 0.005,-0.004 0.0198,-0.0188 0.0254,-0.0234 2.47439,-1.41208 4.47542,-3.1013 6.02539,-4.64648 2.17653,-2.16983 4.41813,-4.76255 6.75976,-7.7461 5.10502,-6.50447 11.67296,-15.87493 17.14844,-24.13476 2.73868,-4.13136 5.18185,-7.954267 7.03711,-11.054689 0.92437,-1.544796 1.7097,-2.912591 2.375,-4.208985 0.32027,-0.624083 0.6611,-1.319856 0.98242,-2.11914 10e-4,-0.003 1.92863,-4.598671 2.71485,-6.691407 -0.0788,0.209771 0.8621,-2.131591 1.58007,-4.126953 0.35899,-0.997681 0.70195,-1.990133 0.98633,-3.060547 0.14219,-0.535207 0.28205,-1.048668 0.375,-1.935547 0.0465,-0.443439 0.11132,-0.967879 -0.0195,-1.941406 -0.13085,-0.973527 -0.34987,-2.916148 -2.71289,-4.751953 -1.16522,-0.905255 -2.24817,-1.298537 -3.16602,-1.449219 z M 238.27927,141.22457 c 14.49173,1.26934 32.07455,5.16208 41.41211,9.09375 1.85533,0.7812 6.83809,3.20461 11.13281,5.40039 -0.35614,0.72297 -0.76819,1.42518 -1.07422,2.16602 -1.0091,2.44289 -2.05802,5.6311 -2.03711,9.24609 -1.93661,2.27709 -3.83184,4.85086 -5.42773,7.36523 -3.16102,4.98022 -15.45044,20.53154 -24.85938,30.90235 -0.5889,0.64911 -0.88135,0.98584 -1.44336,1.60742 -1.17679,-3.84094 -1.81271,-5.54328 -3.81055,-12.61524 -1.1714,-4.14653 -3.01134,-10.54276 -4.12695,-14.34765 -0.47525,-1.62089 -0.9275,-3.38131 -1.22461,-4.70117 -0.0973,-0.43202 -0.19911,-1.04971 -0.27344,-1.53907 -0.0372,-0.24467 -0.01,-0.23783 -0.16015,-0.9414 -0.002,-0.008 -0.0182,-0.0525 -0.0195,-0.0606 -0.16025,-1.71158 -0.45865,-3.19128 -0.70899,-4.29492 -0.41786,-1.84219 -0.95688,-3.90209 -1.56836,-5.95117 -2.15412,-7.21849 -4.19884,-14.96178 -5.81054,-21.33008 z m 113.24804,17.26367 c 0.004,0.004 0.0299,0.0365 0.0371,0.0449 v 0.008 c -0.0125,-0.014 -0.0246,-0.0388 -0.0371,-0.0527 z m 1.32032,7.01953 0.002,0.01 c -0.002,0.006 -0.0102,0.0352 -0.0117,0.0391 l -0.002,0.002 c 0.006,-0.0153 0.006,-0.0355 0.0117,-0.0508 z m -23.7539,22.53128 c 7.36031,9.45912 15.97082,24.8604 19.95898,37.02539 1.12354,3.42706 2.4119,8.21292 3.4668,12.4961 -1.26044,-0.0233 -2.74793,-0.0279 -3.64844,-0.0684 -0.66424,-0.0299 -1.0663,-0.0622 -1.36914,-0.0859 -0.0453,-0.0106 -0.14755,-0.0432 -0.18164,-0.0508 h -0.002 c -0.50693,-0.11197 -0.98632,-0.18426 -1.22852,-0.21875 -0.61092,-0.0871 -1.20024,-0.15009 -1.85156,-0.21289 -1.32143,-0.12744 -2.99981,-0.2579 -5.0293,-0.39844 -4.05911,-0.28106 -9.48453,-0.59449 -15.39843,-0.87891 -16.81316,-0.80856 -28.64226,-1.56386 -37.74024,-2.23242 7.57354,-10.63735 14.87449,-20.23624 18.91016,-24.60156 3.69637,-3.99833 8.75326,-9.68111 11.64453,-13.09961 0.66079,-0.78128 1.15629,-1.24835 1.70703,-1.80664 0.26758,-0.0747 0.68992,-0.10552 0.91992,-0.17969 1.96378,-0.63332 3.65911,-1.51444 5.16602,-2.41797 1.57731,-0.9458 3.13626,-2.04649 4.67578,-3.26953 z"
         id="path7-7"
         sodipodi:nodetypes="ssssscsccsssscscscsssssscccscccsscsccsscccsssccccsccssssssccccssccsssssscscsssscssscscccscsssscssssscscssssccsssssccssssssscscscsscssssccsscccccccccccccsscsccccssscsscssss" /></g></g></svg>
