<?xml version="1.0" encoding="UTF-8" standalone="no"?>
<!-- Created with Inkscape (http://www.inkscape.org/) -->

<svg
   width="500"
   height="500"
   viewBox="0 0 500 500"
   version="1.1"
   id="svg1"
   xml:space="preserve"
   inkscape:version="1.4.2 (2aeb623e1d, 2025-05-12)"
   sodipodi:docname="Byrokrat.svg"
   xmlns:inkscape="http://www.inkscape.org/namespaces/inkscape"
   xmlns:sodipodi="http://sodipodi.sourceforge.net/DTD/sodipodi-0.dtd"
   xmlns="http://www.w3.org/2000/svg"
   xmlns:svg="http://www.w3.org/2000/svg"><sodipodi:namedview
     id="namedview1"
     pagecolor="#ffffff"
     bordercolor="#000000"
     borderopacity="0.25"
     inkscape:showpageshadow="2"
     inkscape:pageopacity="0.0"
     inkscape:pagecheckerboard="0"
     inkscape:deskcolor="#d1d1d1"
     inkscape:document-units="px"
     inkscape:zoom="0.60168108"
     inkscape:cx="297.4998"
     inkscape:cy="317.44392"
     inkscape:window-width="1920"
     inkscape:window-height="1043"
     inkscape:window-x="0"
     inkscape:window-y="0"
     inkscape:window-maximized="1"
     inkscape:current-layer="layer1"
     showgrid="false"><inkscape:grid
       id="grid1"
       units="px"
       originx="0"
       originy="0"
       spacingx="1"
       spacingy="1"
       empcolor="#0099e5"
       empopacity="0.30196078"
       color="#0099e5"
       opacity="0.14901961"
       empspacing="5"
       enabled="true"
       visible="false" /></sodipodi:namedview><defs
     id="defs1" /><g
     inkscape:label="Layer 1"
     inkscape:groupmode="layer"
     id="layer1"><path
       id="path1"
       style="fill:#0a0a0a;stroke:none"
       d="m 307.5,112.5 -53,10 -34,3.32617 -24,7.66016 -49,4.01367 4,13 -15,1 9,21 c -11.64443,4.29532 -33.57134,11.56268 -34,26 19.99715,-4.51593 31.64728,22.16156 39.69141,37 15.62482,28.82201 28.5052,58.89197 43.5664,88 11.14203,21.53363 25.11745,40.43488 31.74219,64 h 1 c 4.26941,-10.18341 13.89567,-17.52197 25,-18 V 354.01172 L 277.5,343.5 v 1 c -12.85678,5.28183 -24.30486,7.36237 -23,23 21.46246,-1.88562 40.45679,-10.51197 61,-16.56055 17.62463,-5.18921 35.82523,-7.97241 53,-15.43945 l -4,-7 12,-2 -6,-8 18,-6 c -5.94919,-8.37006 -16.11425,-10.06445 -22.67187,-18 -13.95401,-16.88611 -23.16794,-37.94412 -33.64063,-57 -10.82324,-19.69369 -21.73841,-35.49747 -26.23828,-58 -4.64014,-23.20407 1.55078,-44.03 1.55078,-67 z m -154,28 c 5.95572,1.27127 5.97891,5.69287 7,11 1.98028,10.29263 4.52367,21.57568 5,32 h -1 z m 115.31641,9.73047 4,23 9,-7 c 1.82,7.97052 -3.66495,7.14667 -9,11 h -1 l -11,-3 -2,7 c -6.12035,-4.18332 -3.30931,-11.52875 -4,-18 l 5,7 v -6 h 8 z M 147.5,155.5 c 12.25308,5.65582 9.96486,25.30719 13.66992,37 8.35222,26.3588 17.5421,51.95166 26.76758,78 3.93869,11.12097 10.98015,22.71399 13.5625,34 -8.31058,-5.44293 -12.43306,-20.23437 -16.30859,-29 -12.5121,-28.29962 -24.58541,-57.40582 -30.11524,-88 -1.49064,-8.24707 -9.62953,-24.59631 -7.57617,-32 z m 48.31641,8.73047 2,16 h 1 l 4,-8 1,8 h 9 l 3,-14 h 1 v 16 c 8.82341,-1.7121 10.90886,-3.34592 13,-12 h 1 v 11 l 13,-1 -3,-5 c 4.06654,1.23462 6.78854,5.70788 1.85156,8.34765 -4.74182,2.53541 -11.90108,2.11565 -16.85156,0.65235 -2.16832,2.29509 -5.21744,0.97972 -7.85156,2.78125 -4.15553,2.84204 -3.14844,8.86676 -3.14844,13.21875 h -2 l -1,-12 -17,8 c -2.81801,-9.53372 -1.2841,-22.43271 1,-32 z m 45,22 c 3.3011,1.73401 4.35707,3.27393 4,7 l 7,1 c -10.68022,10.65781 -17.73856,5.76575 -11,-8 z m -14,1 h 2 v 17 c -4.82784,-0.11252 -9.67777,0.3295 -13,4 l -9,-1 -9,5 c -2.27016,-11.43799 18.86088,-6.29205 24.83789,-10.02344 3.72355,-2.32458 2.86957,-10.89767 4.16211,-14.97656 z m 15,1 -1,9 c 3.28184,-2.88968 3.59811,-5.42856 1,-9 z m 21.25195,2.57421 c 2.31671,-0.0315 4.48841,0.69954 5.74805,2.42579 l -15,3 c 1.12559,-3.20366 5.39077,-5.37331 9.25195,-5.42579 z m 25.74805,3.42579 h 2 l 3,20 -5,2 z m -30,13 -1,11 3,-3 17,-3 v 4 c -5.79157,0.11957 -16.69754,5.21072 -21.68164,3.16797 -5.66003,-2.3198 -1.84351,-11.18048 2.68164,-12.16797 z m -32,5 h 3 v 17 c -9.02399,-1.9313 -13.21397,5.79575 -21,8 l 2,-21 h 1 v 13 l 4,-6 h 1 l 4,-1 c 6.72507,1.65067 6.0795,-5.35223 6,-10 z m 23.08203,5.84375 c 0.63909,0.005 1.27953,0.0568 1.91797,0.15625 v 2 l -10,7 h -1 l -3,-2 -3,3 v 27 c -13.66606,-2.16098 -2.65317,-16.8432 -5,-25 l 3,1 2,-10 h 1 l 1,3 h 2 c 2.25797,-3.95005 6.60838,-6.1908 11.08203,-6.15625 z M 158.5,219.5 l 4,12 h -1 z m 142.31641,2.73047 h 2 l 2,22 -4.60352,-10.09766 -16.39648,6.09766 2,-14 2,9 4,-4 h 7 z m -38,5 3,13 h 2 l 1,-3 7,1 c -3.39246,5.54523 -16.8154,4.995 -23,5 l 3,-5 4,1 z m -16,8 2,5 3,-1 -3,8 h -1 z m 78.21289,31.85937 c 3.29635,0.21807 6.57061,1.61647 9.36914,4.53125 2.1682,2.25818 3.23139,5.50953 3.15039,8.60938 -0.0846,3.24139 -1.30902,6.16394 -2.73242,9 l 12,6 c -3.1217,5.02737 -8.7202,5.91553 -14,4 l -11,9 3,-14 c -3.2627,0 -6.76935,0.3565 -9.99805,-0.14844 -7.1594,-1.11966 -9.2044,-8.75995 -7.0332,-14.85156 2.63216,-7.38534 9.99215,-12.62039 17.24414,-12.14063 z m -42.21289,6.14063 c -2.6913,7.87915 -21.61066,12.13318 -29,15 0.34329,-10.46155 20.08256,-14.54327 29,-15 z m -32,9 c 2.69372,10.20111 -13.73732,11.29718 -21,13 l -1,-1 v -2 z m 41,10 c -1.6699,5.55026 -6.2381,5.46747 -11,7.52539 -9.07375,3.92136 -18.05414,9.0058 -28,10.47461 3.34973,-9.81323 29.51881,-16.59979 39,-18 z m -40,17 c -1.58478,4.55798 -7.40703,6.9148 -12,7 v -3 z m 110.59961,11.57812 c 0.61303,-0.0236 1.19682,-0.0218 1.74414,0.01 2.02085,0.11585 3.55704,0.62735 4.33984,1.68164 -11.31305,3.02429 -24.10989,8.22968 -36,7 4.73352,-2.125 20.72045,-8.33683 29.91602,-8.69141 z M 318.5,329.5 v 1 h -3 z m -104,1 4,8 h -1 z m 7,12 12,16 -7,2 z" /></g></svg>
