<?xml version="1.0" encoding="UTF-8" standalone="no"?>
<!-- Created with Inkscape (http://www.inkscape.org/) -->

<svg
   width="500"
   height="500"
   viewBox="0 0 500 500"
   version="1.1"
   id="svg1"
   xml:space="preserve"
   inkscape:version="1.4.2 (f4327f4, 2025-05-13)"
   sodipodi:docname="Hrobnik.svg"
   xmlns:inkscape="http://www.inkscape.org/namespaces/inkscape"
   xmlns:sodipodi="http://sodipodi.sourceforge.net/DTD/sodipodi-0.dtd"
   xmlns="http://www.w3.org/2000/svg"
   xmlns:svg="http://www.w3.org/2000/svg"><sodipodi:namedview
     id="namedview1"
     pagecolor="#ffffff"
     bordercolor="#000000"
     borderopacity="0.25"
     inkscape:showpageshadow="2"
     inkscape:pageopacity="0.0"
     inkscape:pagecheckerboard="0"
     inkscape:deskcolor="#d1d1d1"
     inkscape:document-units="px"
     inkscape:zoom="1.6699219"
     inkscape:cx="298.81637"
     inkscape:cy="238.03508"
     inkscape:window-width="1920"
     inkscape:window-height="1057"
     inkscape:window-x="-8"
     inkscape:window-y="-8"
     inkscape:window-maximized="1"
     inkscape:current-layer="layer1" /><defs
     id="defs1" /><g
     inkscape:label="Layer 1"
     inkscape:groupmode="layer"
     id="layer1"><path
       style="fill:#000000"
       d="M 126.24136,317.98791 C 114.3558,314.87357 105.42163,310.16947 98.81276,303.54598 94.787594,299.51191 94.118654,291.92743 96.813462,280.87785 101.78926,260.4755 113.58647,249.19029 138,241.47883 c 4.675,-1.47668 10.75,-3.46619 13.5,-4.42112 9.20468,-3.19629 17.97216,-5.91328 21.05578,-6.52505 2.97988,-0.5912 3.10234,-0.46253 4.93042,5.18054 1.03106,3.18274 1.93799,7.5868 2.01541,9.7868 0.18627,5.29322 0.69711,6.86348 2.49839,7.67971 2.80741,1.27216 6.49065,0.81494 12,-1.48963 6.81928,-2.85252 42.00525,-20.51124 43.85088,-22.00736 0.74299,-0.60228 1.86799,-1.17106 2.5,-1.26394 0.63202,-0.0929 7.44912,-3.20549 15.14912,-6.91688 7.7,-3.7114 17.375,-8.29278 21.5,-10.18084 14.75296,-6.7526 16.52186,-7.57034 18.17605,-8.40249 0.92183,-0.46373 7.22183,-3.15597 14,-5.98276 6.77817,-2.82678 13.44895,-5.71287 14.82395,-6.41353 3.23264,-1.64726 9.31493,-4.4161 20.5,-9.33222 4.95,-2.17564 14.75179,-6.70845 21.78177,-10.07289 7.02997,-3.36444 13.0083,-6.11717 13.28518,-6.11717 0.27688,0 1.56603,-0.69625 2.86477,-1.54722 l 2.36136,-1.54722 -2.55618,-6.6143 -2.55618,-6.61431 2.40964,-1.83812 c 1.3253,-1.01097 2.95315,-2.28829 3.61743,-2.83848 2.02472,-1.67696 2.64009,-1.16328 6.99705,5.84085 4.29714,6.90796 16.29516,29.08998 16.29516,30.12659 0,0.31569 -1.99012,1.66113 -4.42249,2.98987 -5.17865,2.82896 -5.75653,2.55518 -10.62683,-5.03452 C 392.21313,175.21541 390.62546,173 390.42251,173 c -0.20296,0 -2.29355,0.87426 -4.64576,1.94279 -2.35221,1.06853 -6.97675,3.14243 -10.27675,4.60866 -3.3,1.46623 -31.65,15.38242 -63,30.92486 -31.35,15.54243 -62.38281,30.68104 -68.9618,33.64133 -6.57899,2.9603 -18.27899,8.53236 -26,12.38236 -12.33936,6.15289 -14.55926,7.64813 -18.34389,12.35578 -4.69793,5.84367 -5.18122,9.20326 -1.45341,10.10323 2.37662,0.57375 10.2591,9.40574 10.2591,11.49489 0,2.21221 -4.95943,5.37762 -27.35642,17.46054 -7.10283,3.8319 -26.54023,9.80426 -35.96594,11.05094 -9.83277,1.30053 -9.71969,1.30652 -18.43628,-0.97747 z m 27.06698,-5.68702 c 1.71421,-1.07173 -9.44273,-3.13986 -11.4926,-2.13034 -4.19096,2.06394 -15.91092,-0.0303 -25.91474,-4.63081 -6.1688,-2.83685 -13.901,-9.5031 -13.901,-11.98463 0,-0.92023 -0.45,-1.39503 -1,-1.05511 -0.55,0.33992 -1,1.66229 -1,2.93861 0,5.15997 17.11008,15.73839 28.5,17.6203 5.59522,0.92448 22.96617,0.39371 24.80834,-0.75802 z m -12.54337,-16.75145 c 8.92612,-1.87767 16.78816,-4.85184 26.09336,-9.871 l 7.49001,-4.04006 3.32583,3.84742 c 4.28182,4.95333 4.22751,6.78637 -0.24904,8.40511 -1.96617,0.71098 -3.40936,1.4582 -3.20707,1.66048 0.52965,0.52965 11.41632,-2.98968 17.28194,-5.58673 l 5,-2.21379 -3.13403,-1.33098 c -1.72371,-0.73204 -4.74022,-3.20746 -6.70334,-5.50093 -2.80799,-3.2805 -4.0592,-4.05135 -5.86598,-3.61392 -1.26316,0.30581 -6.03405,1.42027 -10.60199,2.47658 -6.60654,1.52772 -9.06105,2.62542 -12,5.36662 -4.81096,4.48726 -9.66257,6.60304 -19.35896,8.44241 -4.34812,0.82483 -8.90243,1.90083 -10.12068,2.39113 -3.7581,1.51247 4.15419,1.22859 12.04995,-0.43234 z m -28.16996,-24.65777 c 1.04775,-1.15958 5.85662,-5.26071 10.68639,-9.11361 7.18387,-5.73087 11.13894,-7.9729 21.74056,-12.32419 12.90931,-5.29845 12.96479,-5.31087 14.42428,-3.22716 1.17976,1.68435 1.74786,1.85709 2.91684,0.88692 1.20299,-0.99839 1.65138,-0.59985 2.61705,2.32618 1.08926,3.30048 0.98106,3.69702 -1.6574,6.0742 -2.81159,2.53316 -2.8034,2.5322 2.07427,-0.24489 6.57427,-3.74305 7.35688,-5.16066 5.27316,-9.55178 C 169.75157,243.78156 169,241.47825 169,240.59887 c 0,-2.17146 -2.89995,-2.03748 -11.42905,0.52805 -25.95333,7.80669 -35.76971,14.08253 -47.89919,30.62308 -1.56189,2.1299 0.86785,1.41647 2.92325,-0.85833 z m 36.00706,-5.05649 c 8.86637,-6.69417 6.21732,-5.8461 -5.60207,1.79346 -4.25878,2.75269 -4.85635,3.41133 -2.64793,2.91849 1.56864,-0.35006 5.28114,-2.47043 8.25,-4.71195 z M 216.36163,248.5 c -0.31659,-0.825 -0.96334,-1.5 -1.43723,-1.5 -0.4739,0 -0.60261,0.675 -0.28603,1.5 0.31659,0.825 0.96334,1.5 1.43723,1.5 0.4739,0 0.60261,-0.675 0.28603,-1.5 z m 32.63057,-12.75 c 0.0116,-1.11115 -1.2659,-0.85818 -3.2422,0.64205 -2.54021,1.92829 -2.14421,2.60262 0.7422,1.26386 1.37071,-0.63575 2.49571,-1.49341 2.5,-1.90591 z M 273,224.01358 c 3.575,-2.05043 10.1,-5.65091 14.5,-8.00106 9.0165,-4.81593 12.015,-7.05914 6,-4.48867 -2.2,0.94016 -6.025,2.48153 -8.5,3.42528 -3.63811,1.38725 -22.99438,13.58625 -24.98512,15.7465 -0.7636,0.82862 5.59515,-2.44355 12.98512,-6.68205 z m 43.76508,-23.44533 c 1.27503,-1.27503 -0.525,-1.24435 -5.01508,0.0855 -2.6125,0.77374 -4.75,1.82166 -4.75,2.32871 0,0.88359 8.5913,-1.2404 9.76508,-2.41418 z M 358.25,183.68022 c 8.02102,-3.95335 9.35777,-4.90515 5.5,-3.91616 -2.60733,0.66843 -14.75,7.18105 -14.75,7.91104 0,0.58868 -0.40118,0.76194 9.25,-3.99488 z m 45.31184,-5.45172 c -0.3352,-0.3352 -1.38624,0.20383 -2.33565,1.19784 -1.65022,1.72775 -1.6234,1.75457 0.60946,0.60945 1.2846,-0.6588 2.06139,-1.47209 1.72619,-1.80729 z m -12.94465,-14.40874 c -3.06714,-5.67587 -5.58575,-9.7423 -5.59691,-9.03652 -0.0242,1.5311 4.1563,10.05138 7.80756,15.9126 4.74773,7.62134 3.46137,3.62018 -2.21065,-6.87608 z m -7.44111,5.72638 c 3.23305,0.0406 3.56023,-0.17033 2.71482,-1.75 -1.22451,-2.28801 -1.4074,-2.27008 -7.3909,0.72459 -3.29598,1.6496 -3.97759,2.24289 -2,1.74086 1.65,-0.41888 4.65424,-0.74083 6.67608,-0.71545 z M 394.97776,164.25 c -0.0122,-0.4125 -0.93931,-1.875 -2.06019,-3.25 l -2.03796,-2.5 1.58588,3.25 c 1.50699,3.08835 2.56081,4.13702 2.51227,2.5 z"
       id="path1"
       sodipodi:nodetypes="ssssssssssssssssssssscccsssssssssssssssssssssssssssscsssscsssssssssssssssssssssssssssssssssssssssssssssssssssssssssssssssscss" /></g></svg>
