<?xml version="1.0" encoding="UTF-8" standalone="no"?>
<!-- Created with Inkscape (http://www.inkscape.org/) -->

<svg
   width="500"
   height="500"
   viewBox="0 0 500 500"
   version="1.1"
   id="svg1"
   xml:space="preserve"
   inkscape:version="1.4.2 (f4327f4, 2025-05-13)"
   sodipodi:docname="Zabijak.svg"
   xmlns:inkscape="http://www.inkscape.org/namespaces/inkscape"
   xmlns:sodipodi="http://sodipodi.sourceforge.net/DTD/sodipodi-0.dtd"
   xmlns="http://www.w3.org/2000/svg"
   xmlns:svg="http://www.w3.org/2000/svg"><sodipodi:namedview
     id="namedview1"
     pagecolor="#ffffff"
     bordercolor="#000000"
     borderopacity="0.25"
     inkscape:showpageshadow="2"
     inkscape:pageopacity="0.0"
     inkscape:pagecheckerboard="0"
     inkscape:deskcolor="#d1d1d1"
     inkscape:document-units="px"
     inkscape:zoom="1.6699219"
     inkscape:cx="306.60116"
     inkscape:cy="253.00584"
     inkscape:window-width="1920"
     inkscape:window-height="1057"
     inkscape:window-x="-8"
     inkscape:window-y="-8"
     inkscape:window-maximized="1"
     inkscape:current-layer="layer1" /><defs
     id="defs1" /><g
     inkscape:label="Layer 1"
     inkscape:groupmode="layer"
     id="layer1"><path
       style="fill:#000000"
       d="m 144,351.86428 c 0,-5.66587 -1.70648,-3.23197 24.6955,-35.22239 13.97989,-16.93897 29.68484,-36.58238 30.8045,-38.52959 1.14518,-1.9916 9.57541,-12.32297 10.75912,-13.18545 0.43264,-0.31523 0.10132,-2.21328 -0.73625,-4.21788 C 208.68529,258.70437 208,255.85849 208,254.38479 c 0,-1.4737 -0.84979,-5.20065 -1.88842,-8.28212 -2.54517,-7.55118 -5.26006,-16.83809 -6.16904,-21.10267 -1.12495,-5.27783 -6.02516,-21.36055 -6.85546,-22.5 -0.40078,-0.55 -1.70151,-4.15 -2.89051,-8 -1.18899,-3.85 -3.06963,-9.89988 -4.17919,-13.44417 C 184.90782,177.51153 184,173.83118 184,172.87726 c 0,-0.95392 -0.78059,-2.515 -1.73465,-3.46906 -0.95406,-0.95406 -1.59686,-2.7862 -1.42844,-4.07143 C 181.00533,164.05155 180.70306,163 180.16519,163 c -0.53788,0 -0.75677,-1.0125 -0.48643,-2.25 0.48075,-2.20071 0.44601,-2.19524 -1.58589,0.25 l -2.0774,2.5 0.51895,-3.5 c 0.49158,-3.31542 0.45565,-3.36816 -0.68117,-1 -1.14607,2.3874 -1.21712,2.40511 -1.57749,0.39307 -0.26346,-1.471 -1.627,-2.48134 -4.51753,-3.34736 -7.93925,-2.37866 -9.31125,-3.08589 -7.79925,-4.02036 1.09025,-0.67381 0.70434,-1.43777 -1.78389,-3.53147 -3.6646,-3.08357 -4.07743,-5.9406 -1.08944,-7.53972 2.30383,-1.23297 2.69768,-1.02614 4.33804,2.27813 0.94516,1.9039 2.05781,2.31623 6.93541,2.57013 3.32852,0.17327 6.39551,-0.1838 7.18147,-0.83609 0.7545,-0.62618 1.84563,-0.84568 2.42473,-0.48778 0.5791,0.35791 9.26131,1.0316 19.29381,1.4971 17.36706,0.80581 27.7614,2.2905 39.5424,5.64809 2.91584,0.83102 6.06584,1.6755 7,1.87663 4.50518,0.96997 16.46256,5.60131 23.10272,8.94816 6.25138,3.15088 7.77569,3.56271 9.78991,2.64497 2.52533,-1.15062 8.33266,0.52282 9.74507,2.80814 2.20826,3.57304 15.33014,-6.85072 17.42474,-13.84187 1.61277,-5.38297 6.71588,-10.74939 26.59705,-27.96944 C 344.82248,115.38345 350,111.44994 350,112.76544 c 0,2.2395 -16.76584,27.53105 -26.32071,39.70521 -4.29193,5.46849 -8.03125,9.19629 -10.08582,10.05474 -3.09085,1.29144 -10.57223,9.91719 -11.92253,13.74621 -0.40793,1.15677 0.56943,3.33607 2.81619,6.27949 2.96269,3.88133 3.30242,4.87222 2.44431,7.12924 -0.79947,2.10276 -0.62281,3.03666 0.89294,4.72052 2.27236,2.52439 9.15312,12.73688 12.24713,18.17731 7.80574,13.72542 13.23822,27.67247 16.91312,43.42184 1.21918,5.225 2.89155,12.2 3.71637,15.5 0.82483,3.3 1.70278,8.025 1.95101,10.5 0.96649,9.63636 3.82816,15 8.00298,15 1.91782,0 2.34501,0.52526 2.34501,2.88337 0,4.82942 -4.29759,4.7438 -9.75,-0.19425 -2.18248,-1.9766 -2.251,-1.98 -2.28327,-0.11343 -0.0298,1.7237 -0.24925,1.66467 -2.105,-0.56615 C 336.22647,295.84166 332,287.54096 332,285.53324 c 0,-1.81001 -1.35264,-1.95006 -4.18642,-0.43347 -1.27092,0.68017 -1.81441,0.71059 -1.42451,0.0797 0.41011,-0.66357 -1.03299,-0.84583 -4.12932,-0.52153 -7.52425,0.78806 -11.29659,0.44806 -12.90805,-1.1634 -0.84446,-0.84446 -3.31215,-1.49929 -5.67313,-1.50544 -2.29821,-0.006 -12.05357,-0.89998 -21.67857,-1.98666 -9.625,-1.08668 -23.8,-2.2138 -31.5,-2.5047 -7.7,-0.29091 -16.29008,-0.77024 -19.08906,-1.06519 l -5.08906,-0.53627 -12.41094,13.61136 C 199.74443,305.04439 191.79708,314.27381 173.70717,336.1971 159.47415,353.4462 155.15263,357 148.41026,357 H 144 Z m 8.50555,-3.85815 C 151.50701,346.90276 150.23133,346 149.6707,346 c -0.56063,0 0.0359,1.12323 1.3256,2.49606 2.75147,2.92881 4.18271,2.46421 1.50925,-0.48993 z m 4.85181,-0.96934 c -0.94345,-4.71723 0.27106,-7.48748 6.4611,-14.7376 5.59643,-6.55483 19.63214,-27.18192 18.95603,-27.85804 -0.18156,-0.18156 -4.0381,4.25741 -8.57009,9.86437 -4.53199,5.60697 -11.59401,14.24448 -15.69337,19.19448 -4.09937,4.95 -7.46636,9.30288 -7.48221,9.67308 -0.03,0.70012 5.82417,6.82692 6.5231,6.82692 0.21895,0 0.13139,-1.33344 -0.19456,-2.96321 z M 207.91836,293.5 c 2.70463,-2.40141 5.97512,-6.58901 6.54275,-8.37747 0.33899,-1.06805 1.27392,-2.48766 2.07762,-3.15467 2.60996,-2.16608 1.71578,-3.96786 -1.96918,-3.96786 -2.76243,0 -3.51484,-0.43815 -3.86382,-2.25 -0.39851,-2.06904 -0.44432,-2.0442 -0.56955,0.30887 -0.0749,1.40738 0.52451,3.43238 1.33202,4.5 2.40001,3.1731 1.7872,5.08933 -3.24393,10.14351 -2.62666,2.63869 -6.07027,6.59762 -7.65249,8.79762 l -2.87674,4 4.54853,-4.5 c 2.50169,-2.475 5.05535,-4.95 5.67479,-5.5 z M 340,285.61663 c 0,-0.21085 -0.9,-0.61872 -2,-0.90638 -1.1,-0.28766 -2,-0.11514 -2,0.38337 0,0.49851 0.9,0.90638 2,0.90638 1.1,0 2,-0.17252 2,-0.38337 z m -9,-10.05328 c 0,-3.15352 -3.28204,-16.8684 -6.07649,-25.39221 -5.23291,-15.96178 -16.0079,-35.0321 -25.78693,-45.6395 l -4.36341,-4.73304 -4.63659,4.49316 c -4.85342,4.70328 -9.86842,7.71046 -11.73662,7.03769 -0.60502,-0.21788 -3.30117,2.20636 -5.99144,5.3872 -2.69028,3.18084 -7.82026,8.95145 -11.39997,12.82356 -5.96357,6.45071 -15.65154,19.21085 -25.33359,33.36713 -2.10377,3.07597 -4.47907,6.31724 -5.27845,7.20284 -1.311,1.4524 -0.98519,1.68033 3.32504,2.32614 5.8926,0.8829 25.96759,2.20092 54.20808,3.55903 11.78629,0.56682 21.64879,1.24974 21.91666,1.51761 C 310.11417,277.78083 314.98333,278 320.66667,278 330.95058,278 331,277.98835 331,275.56335 Z m 8.24931,-3.03948 C 338.59335,269.09242 338,269.34659 338,273.05902 c 0,1.68246 0.38965,2.8182 0.86589,2.52386 0.47624,-0.29433 0.64878,-1.67089 0.38342,-3.05901 z M 231.72583,263.75 c 4.14592,-5.48395 7.06387,-9.57527 15.15558,-21.25 2.66842,-3.85 7.04455,-9.43603 9.72472,-12.41341 2.68017,-2.97737 3.97773,-4.9268 2.88346,-4.33207 -2.13702,1.16145 -7.21525,6.40676 -9.5547,9.86905 -9.86831,14.60467 -18.38427,24.52321 -23.18836,27.0075 -1.62906,0.84243 -3.99578,1.2722 -5.25937,0.95506 -1.94567,-0.48833 -2.2142,-0.25835 -1.75384,1.50207 0.54131,2.06999 3.29614,3.72779 6.39507,3.84841 0.89562,0.0349 3.41446,-2.29911 5.59744,-5.18661 z m 105.95728,3.0625 c -0.31922,-0.79773 -0.55618,-0.56078 -0.60416,0.60417 -0.0434,1.05416 0.19293,1.64479 0.52522,1.3125 0.33229,-0.33229 0.36781,-1.1948 0.0789,-1.91667 z M 230.13546,241.72296 C 240.0473,230.79782 252.06163,215.82578 256.39404,209 c 1.57091,-2.475 3.98264,-5.70989 5.35939,-7.18864 1.86025,-1.99807 2.36629,-3.40475 1.97021,-5.47671 -0.54934,-2.87368 1.66679,-8.23857 5.60171,-13.56083 1.28236,-1.73449 1.70463,-3.13466 1.11778,-3.70639 -1.14059,-1.11121 -16.36567,-8.95181 -21.94313,-11.30026 -12.3688,-5.20801 -32.74043,-9.51742 -49.40359,-10.45081 l -11.40358,-0.63877 0.69986,4.41121 c 0.69643,4.38954 4.90772,20.45368 8.64643,32.98215 1.07848,3.61402 1.96088,7.50412 1.96088,8.64466 0,1.14055 0.90451,5.15862 2.01002,8.92905 1.1055,3.77044 2.96345,10.23034 4.12877,14.35534 4.6601,16.49588 7.37056,25.45742 9.07364,30 l 0.93729,2.5 3.05776,-3.5 c 1.68177,-1.925 7.04936,-7.89967 11.92798,-13.27704 z m 98.33293,9.04721 c -0.90328,-6.56766 -2.89076,-12.26589 -5.84924,-16.77017 -1.26437,-1.925 -3.08188,-4.77654 -4.03891,-6.33676 -3.39953,-5.54219 -2.47006,-1.92944 1.38815,5.39559 2.15567,4.09264 4.92857,10.92867 6.16201,15.19117 1.23344,4.2625 2.42591,7.75 2.64995,7.75 0.22403,0 0.0836,-2.35342 -0.31196,-5.22983 z M 267.74651,209 c 1.07373,0 0.69498,-0.78827 -1.24068,-2.58218 -2.98242,-2.76401 -3.04917,-2.73435 -5.97648,2.65501 -0.76861,1.41506 -2.10215,3.15766 -2.96341,3.87245 -3.62513,3.00859 -1.16867,2.65213 3.53455,-0.5129 C 263.90576,210.54457 266.89647,209 267.74651,209 Z m 42.24773,-4.75 c -4.17514,-7.50999 -6.59438,-10.04986 -8.11967,-8.52457 -0.86354,0.86354 0.12395,2.57437 3.98889,6.91073 2.8251,3.16969 5.13654,6.12325 5.13654,6.56346 0,0.44021 0.49296,0.80038 1.09546,0.80038 0.6025,0 -0.34305,-2.5875 -2.10122,-5.75 z m -26.61852,-8.73397 c 1.2791,-0.96859 1.72027,-2.23356 1.387,-3.97695 -0.40006,-2.0928 -0.23708,-2.34773 0.89845,-1.40532 1.75214,1.45414 3.1164,0.24381 1.52216,-1.35043 C 286.5325,188.1325 286,187.15 286,186.6 c 0,-0.55556 0.53333,-0.46667 1.2,0.2 1.76664,1.76664 2.43944,1.51511 4.79466,-1.7925 l 2.13085,-2.99251 -3.31275,-3.98947 c -1.82202,-2.19421 -3.59424,-3.99758 -3.93828,-4.00749 -0.84774,-0.0244 -14.99062,12.70277 -16.4823,14.83244 -0.6546,0.93457 -1.34813,2.81303 -1.54118,4.17437 -0.3245,2.28829 0.0265,2.51992 4.649,3.06806 7.8252,0.9279 7.89382,0.92389 9.87572,-0.57687 z m -8.94175,-19.4092 c 0.54776,-0.88629 -5.63619,-4.18472 -10.43397,-5.56533 -1.64222,-0.47256 -0.78444,0.49311 2.5,2.81445 5.1698,3.65386 6.98659,4.28378 7.93397,2.75088 z M 229,158.60772 c 0,-0.21576 -3.2625,-1.17313 -7.25,-2.12749 -4.27718,-1.0237 -8.27511,-2.67998 -9.75,-4.03926 -2.53305,-2.33451 -11.5513,-5.223 -12.70497,-4.06933 -0.3456,0.3456 0.12034,0.62836 1.03542,0.62836 0.91508,0 3.50422,1.66272 5.75363,3.69493 3.6124,3.26359 5.04278,3.83195 12.25288,4.8687 C 228.65742,159.04762 229,159.08117 229,158.60772 Z M 247.5,157 c -0.33992,-0.55 -1.37898,-0.96837 -2.30902,-0.92971 -1.37849,0.0573 -1.32139,0.2291 0.30902,0.92971 2.67591,1.14988 2.71066,1.14988 2,0 z m 79.51072,-20.68389 C 344.71206,118.41779 345.73388,117.03954 334,126.88883 320.39362,138.30987 305.75901,154 308.71268,154 c 0.44481,0 8.67893,-7.95775 18.29804,-17.68389 z M 177.28975,151 C 176.78805,149.0815 175,148.14442 175,149.8 c 0,0.69662 2.03899,3.2 2.60638,3.2 0.11351,0 -0.029,-0.9 -0.31663,-2 z m 6.79512,-2.10482 c -0.52695,-1.31735 -0.98662,-1.86948 -1.02148,-1.22697 -0.0847,1.56062 1.08023,4.52151 1.58163,4.0201 0.21887,-0.21887 -0.0332,-1.47578 -0.56015,-2.79313 z"
       id="path1"
       sodipodi:nodetypes="ssssssssssssssssscsssssssssssssssssssssssssssssssssssssssssssscssscsssssssssssssssssssssscsssssssssscsssssssssssssssssssssssssssssssssssssscsssssscsscssssscssssssssssssssssssscssssssssssssssssssssssssssssssssss" /></g></svg>
