<?xml version="1.0" encoding="UTF-8" standalone="no"?>
<!-- Created with Inkscape (http://www.inkscape.org/) -->

<svg
   width="500"
   height="500"
   viewBox="0 0 500 500"
   version="1.1"
   id="svg1"
   xml:space="preserve"
   inkscape:version="1.4.2 (2aeb623e1d, 2025-05-12)"
   sodipodi:docname="Zebrak.svg"
   xmlns:inkscape="http://www.inkscape.org/namespaces/inkscape"
   xmlns:sodipodi="http://sodipodi.sourceforge.net/DTD/sodipodi-0.dtd"
   xmlns="http://www.w3.org/2000/svg"
   xmlns:svg="http://www.w3.org/2000/svg"><sodipodi:namedview
     id="namedview1"
     pagecolor="#ffffff"
     bordercolor="#000000"
     borderopacity="0.25"
     inkscape:showpageshadow="2"
     inkscape:pageopacity="0.0"
     inkscape:pagecheckerboard="0"
     inkscape:deskcolor="#d1d1d1"
     inkscape:document-units="px"
     inkscape:zoom="0.74286615"
     inkscape:cx="-82.114389"
     inkscape:cy="168.26719"
     inkscape:window-width="1920"
     inkscape:window-height="1043"
     inkscape:window-x="0"
     inkscape:window-y="0"
     inkscape:window-maximized="1"
     inkscape:current-layer="layer1"
     showgrid="false"
     showguides="false"><inkscape:grid
       id="grid1"
       units="px"
       originx="0"
       originy="0"
       spacingx="1"
       spacingy="1"
       empcolor="#0099e5"
       empopacity="0.30196078"
       color="#0099e5"
       opacity="0.14901961"
       empspacing="5"
       enabled="true"
       visible="false" /></sodipodi:namedview><defs
     id="defs1" /><g
     inkscape:label="Layer 1"
     inkscape:groupmode="layer"
     id="layer1"><path
       id="path1"
       style="fill:#090909;stroke:none"
       d="m 248.30126,126.52708 c -38.88619,0.36429 -68.68919,-0.0656 -115.02333,28.38172 -8.14751,5.97431 -14.67635,15.96699 -16.53484,26.24366 -3.16631,14.33743 1.36287,28.91055 0.75117,43.39051 2.06733,41.44489 27.6722,79.6246 63.48121,99.86528 20.89991,12.04802 45.09115,19.67559 69.02013,20.47634 30.73305,-2.84559 61.66072,-12.81623 85.13531,-33.50577 25.1574,-20.12148 39.75171,-50.77017 44.61106,-82.18805 2.99413,-18.93987 16.13746,-39.67024 -1.1543,-61.13735 -15.99579,-16.0329 -40.43321,-24.54459 -61.25984,-32.04197 -21.13589,-6.86263 -46.82006,-9.42313 -69.02657,-9.48437 z m 7.8628,9.26394 c 7.62206,-2.86558 8.46261,12.31225 13.1135,2.44043 11.40864,-2.71545 23.26256,2.365 34.3708,5.14099 9.32555,2.83883 18.7068,5.89701 28.4825,6.67248 -1.293,3.17177 1.36045,14.48261 -4.1364,8.93545 -21.86565,-12.54778 -47.75912,-14.66186 -72.38829,-16.66697 -10.9404,3.66648 -9.92674,-9.53299 0.55789,-6.52238 z m -13.95703,0.22265 c -5.60822,12.21486 -22.58359,4.28243 -32.93091,7.80883 -15.60486,5.42784 -32.89814,6.58322 -47.08115,15.87617 -7.94091,1.87713 -11.70045,18.57798 -18.55716,7.9653 -14.25466,1.54326 5.56244,-11.92078 11.66439,-13.29049 27.10089,-12.53335 57.16115,-18.03763 86.90483,-18.35981 z m 5.92188,8.2793 c 1.38426,4.60364 -1.62734,13.63282 -1.81289,5.91766 0.96174,-1.84123 1.51984,-3.86918 1.81289,-5.91766 z m -21.09766,6.00976 c 12.76565,-1.02478 22.19762,11.35715 23.89344,24.07826 2.40309,4.3426 9.00115,18.30102 5.93517,3.15418 -4.93716,-9.44945 -7.80099,-29.57688 9.1052,-21.88472 17.21078,4.24139 34.18699,9.32457 51.1658,14.39447 -1.83238,1.87042 -7.85505,-1.62599 -11.30397,-1.82599 -1.53048,1.6687 5.98375,4.4019 8.01484,6.28684 9.66823,6.33468 19.93153,11.94673 29.2265,18.73469 3.68754,3.93482 7.37509,7.86964 11.06263,11.80446 l -12,-9 c 3.33333,3.66667 6.66667,7.33333 10,11 -17.04058,-8.07858 -29.77748,-24.5071 -49,-28 9.99033,9.7584 25.90494,12.59377 34.85375,24.41256 3.88787,3.92091 8.99403,13.50179 1.61832,5.4005 -10.01371,-8.78838 -22.81554,-13.3372 -35.47207,-16.81306 10.67092,7.31926 26.01799,13.43414 32.34729,26.74513 -4.51354,-1.29251 -23.67137,-14.45141 -29.47425,-12.68829 6.04232,7.31439 12.08464,14.62877 18.12696,21.94316 l -17,-11 c 1.33333,4.33333 2.66667,8.66667 4,13 -3.16063,-0.0724 -10.16663,-4.40009 -10.77464,-1.64784 2.99911,5.96103 -3.24435,5.03127 -7.38669,5.66801 l -31.83867,3.97983 c 4.02244,-2.28785 5.04215,-3.39485 -1.46708,-3.42054 -5.97827,0.2253 -10.78134,-1.35057 -1.11431,-3.36891 7.69493,0.71094 16.31462,0.15203 4.7972,-1.18654 -11.71322,-1.68509 -23.42643,-3.37017 -35.13964,-5.05526 7.65166,-2.70265 21.27287,-2.23685 29.92383,1.03125 l 13,-3 c -1.82959,-2.79762 -7.8431,-2.34873 -11.28677,-3.89391 -15.49099,-0.7802 -31.1006,-0.69057 -46.63706,-1.13734 1.88878,-2.32759 8.0968,-0.33382 11.65186,-0.99431 17.42399,0.008 34.84798,0.017 52.27197,0.0255 -1.83857,-2.76112 -7.88157,-2.19226 -11.34212,-3.66874 -10.7061,0.38978 -0.44744,-11.35609 -4.46178,-17.71833 -1.86084,-8.16764 -7.04047,-11.32578 -4.88504,-2.34675 -0.58891,4.30066 2.7533,12.86298 -1.69591,12.9235 -21.19475,0.54525 -42.39224,1.1632 -63.53898,2.77907 1.84041,-2.75322 7.88945,-2.15842 11.35347,-3.62003 5.30655,-3.00494 -4.63391,-2.49039 -7.26372,-2.37997 -5.87652,-0.88961 4.71866,-1.66631 6.79425,-1.68338 7.70835,-0.31404 1.39306,-1.91606 -2.7218,-0.84505 -7.3874,0.50948 -14.7748,1.01895 -22.1622,1.52843 -0.1831,-2.61988 10.99779,-3.40296 6.63323,-4.89486 -3.59558,-0.23489 -9.19794,1.69731 -11.63323,0.20946 3.09101,-2.14221 7.43091,-3.48024 11,-5.3146 -5.33333,0.66667 -10.66667,1.33333 -16,2 1.84041,-2.75322 7.88945,-2.15842 11.35347,-3.62003 4.67642,-2.37812 -5.74014,-0.279 -7.86495,-0.11177 -6.31124,1.63985 -6.37795,-0.83769 -0.10036,-1.28483 15.87061,-2.99446 31.74123,-5.98891 47.61184,-8.98337 -8.94153,-4.69808 -22.79722,-2.40386 -33.52571,-1.4918 -9.49627,0.51969 -21.63322,4.9037 -29.47429,3.4918 21.31959,-6.21327 42.41062,-15.1824 65,-15 -8.81698,-2.4193 -22.19231,-0.11499 -32.66732,-0.0293 -7.45064,-0.56044 -26.02297,4.64006 -27.01123,2.66478 9.22618,-2.54515 18.45237,-5.09031 27.67855,-7.63546 -1.88398,-2.19394 -8.07623,0.2391 -11.62225,-0.16984 -6.59885,-0.89349 11.21783,-3.86816 13.94657,-5.23258 11.58509,-3.17567 23.39785,-6.34256 35.4999,-6.30847 z m 113.27148,8.74805 c 7.08656,-0.10534 12.38338,3.49294 16.92834,8.44887 7.58694,6.24491 20.07267,8.84476 18.85674,21.82204 1.50255,15.28708 -11.00542,26.1249 -23.01491,32.90207 -6.41346,3.67684 5.10437,-9.44322 7.30692,-12.59246 10.51947,-7.44131 3.42098,-21.21442 7.17431,-29.00965 -0.004,-1.9952 -10.91474,-2.16087 -2.60498,-4.10405 4.01287,-3.44328 -5.3465,-4.1879 -7.83622,-5.75193 -7.99402,-2.90692 -15.98805,-5.81383 -23.98207,-8.72075 1.903,-1.83156 4.46558,-3.17854 7.17187,-2.99414 z M 137.5918,173.4668 c 9.72803,1.23304 7.50215,6.36584 -0.38477,4.54687 -4.45717,8.79684 -8.43004,20.29168 0.64736,27.58773 -4.75672,5.25912 -0.29827,4.39959 4.35264,3.41227 -5.72801,9.7361 14.31928,9.87786 19.75485,15.13501 7.36143,2.44018 20.51176,2.8364 7.33784,6.88694 -2.46601,0.36024 -11.1716,6.64827 -7.8666,1.52587 4.34903,-7.89423 -14.49339,-4.99661 -18.92865,-10.18808 -13.1581,-4.97338 -21.55622,-18.96063 -19.18003,-32.94192 -2.3507,-4.51001 6.61237,-12.06822 -1.11741,-10.41782 3.97194,-3.89191 9.9297,-5.56369 15.38477,-5.54687 z m 122.53906,35.03515 c 1.78406,5.98709 -5.53005,2.61107 -8.90658,3.28729 -9.00575,-0.25852 -18.0115,-0.51705 -27.01725,-0.77557 1.88714,-2.40714 8.08978,-0.67485 11.64176,-1.48507 8.17923,-0.29341 16.10936,-0.79791 24.28207,-1.02665 z m -6.73242,21.50196 c -0.98676,4.9317 -5.33259,4.17484 -9.23334,3.69837 l -21.95807,-1.68843 c 1.88779,-2.38964 8.09256,-0.5998 11.64576,-1.37708 6.51522,-0.21095 13.03043,-0.42191 19.54565,-0.63286 z m -69.19141,1.00976 c 9.42305,9.72563 26.35855,7.78378 39.13081,11.34279 30.06005,3.57114 60.83247,0.3182 89.93547,-7.56947 5.80983,-3.35631 19.75676,-7.06752 17.85755,4.25793 -14.0632,-3.30167 -27.4543,4.70555 -41.37176,5.75931 -28.7088,5.00686 -58.4889,6.99639 -86.87449,-1.01447 -6.89947,-2.95348 -24.13984,-3.12658 -25.13012,-7.13015 2.15085,-1.88198 4.30169,-3.76396 6.45254,-5.64594 z m -55,7 c 2.39669,0.0176 11.45939,4.96912 8.85942,1.28913 -1.3626,-2.56392 6.29957,3.47741 8.54424,4.35307 3.53211,2.11926 7.06423,4.23853 10.59634,6.3578 -13.52049,-2.72207 10.43746,7.50284 14.38106,7.72828 17.09775,4.83196 34.96964,5.57604 52.61894,6.27172 -1.88398,2.19394 -8.07623,-0.2391 -11.62225,0.16984 l -30.37775,-2.16984 c 5,1.33333 10,2.66667 15,4 -5.39197,3.27072 1.12145,1.93544 5.17454,2.90828 2.15806,0.51583 12.28777,0.52686 8.45465,2.09172 h -15.62919 c 6.33303,4.94504 -5.58423,4.29051 -1.63823,6.15716 l 67.92143,7.83894 c -1.878,2.52999 -8.0506,1.20148 -11.58538,2.24294 l -53.69782,5.76096 c 8.91552,2.98101 22.34454,0.99471 32.95138,2.0738 7.59756,0.82607 26.40333,0.20315 27.53163,3.99641 -11.49434,1.9766 -22.98867,3.95319 -34.48301,5.92979 0.12636,4.21511 7.53576,2.26056 10.81725,3.80288 3.26822,0.45723 9.69759,1.36887 8.5031,3.28577 l -22.32035,2.91135 c 11.22441,6.64377 25.28683,4.75331 37.86302,5.37355 4.71169,-0.50556 19.00081,-0.0123 6.37859,1.18998 -20.29829,1.19614 -41.20265,3.71866 -61.16222,-1.2998 -8.92951,-2.94544 3.18307,-3.46209 6.59555,-4.77548 6.33398,-1.3648 6.49168,-1.10417 1.32506,-3.17365 6.35289,-1.28566 2.76573,-3.15575 -2.121,-3.07972 -8.62633,-1.0783 -17.25267,-2.15659 -25.879,-3.23488 1.88878,-2.32851 8.0968,-0.33777 11.65186,-1 h 20.34814 c -1.43344,-9.20462 -24.26298,-2.99277 -20,-8 -6.17768,-5.11188 -19.58781,1.04292 -10,-6 -14.0541,-0.39503 -28.44738,-2.24759 -41,-9 1.79185,-1.73123 7.6813,2.22266 11.05393,2.68464 4.97952,1.79516 9.103,3.18044 2.33369,-0.64974 -2.82654,-2.5102 -7.97492,-3.75281 -9.38762,-7.0349 3.75208,-0.16457 9.39491,1.72572 12,0.3146 -4.98886,-3.78956 -17.85898,-10.62948 -16.71172,-14.84614 2.03471,0.34978 11.7775,5.13088 8.13209,2.21519 -3.47345,-2.89455 -6.94691,-5.7891 -10.42037,-8.68365 l 12,3 c -4.96971,-9.82227 -20.33471,-9.48924 -23,-21 z m 92,0 c 2.10444,-0.21917 12.7249,0.0526 6.95636,0.77293 -2.31878,-0.25764 -4.63757,-0.51529 -6.95636,-0.77293 z"
       sodipodi:nodetypes="cccccccccccccccccccccccccccsccccccccccccccccccccccccccccccccccccccccccccccccccccccccccssccccccccccccccccccccccccccccccccccccccccccccccccccccccccccccccccccccccccccccccccccccc" /></g></svg>
