<?xml version="1.0" encoding="UTF-8" standalone="no"?>
<!-- Created with Inkscape (http://www.inkscape.org/) -->

<svg
   width="500"
   height="500"
   viewBox="0 0 500 500"
   version="1.1"
   id="svg1"
   xml:space="preserve"
   inkscape:version="1.4.2 (2aeb623e1d, 2025-05-12)"
   sodipodi:docname="Baron.svg"
   xmlns:inkscape="http://www.inkscape.org/namespaces/inkscape"
   xmlns:sodipodi="http://sodipodi.sourceforge.net/DTD/sodipodi-0.dtd"
   xmlns="http://www.w3.org/2000/svg"
   xmlns:svg="http://www.w3.org/2000/svg"><sodipodi:namedview
     id="namedview1"
     pagecolor="#ffffff"
     bordercolor="#000000"
     borderopacity="0.25"
     inkscape:showpageshadow="2"
     inkscape:pageopacity="0.0"
     inkscape:pagecheckerboard="0"
     inkscape:deskcolor="#d1d1d1"
     inkscape:document-units="px"
     inkscape:zoom="1.4285739"
     inkscape:cx="184.79968"
     inkscape:cy="255.84956"
     inkscape:window-width="1920"
     inkscape:window-height="940"
     inkscape:window-x="0"
     inkscape:window-y="0"
     inkscape:window-maximized="1"
     inkscape:current-layer="layer1"
     showgrid="false"><inkscape:grid
       id="grid1"
       units="px"
       originx="0"
       originy="0"
       spacingx="1"
       spacingy="1"
       empcolor="#0099e5"
       empopacity="0.30196078"
       color="#0099e5"
       opacity="0.14901961"
       empspacing="5"
       enabled="true"
       visible="false" /></sodipodi:namedview><defs
     id="defs1" /><g
     inkscape:label="Layer 1"
     inkscape:groupmode="layer"
     id="layer1"><path
       style="fill:#000000"
       d="m 252,371.98974 c -15.72352,-1.25661 -24.25183,-2.8305 -35.93651,-6.63206 -15.90762,-5.17548 -38.57627,-16.73995 -50.08663,-25.55183 -4.85617,-3.71768 -26.82553,-28.78706 -35.74883,-40.79322 C 128.02847,296.05317 125,283.28033 125,276.963 c 0,-7.26353 1.99273,-11.64643 5.76819,-12.68682 4.78179,-1.3177 15.52048,-0.79473 22.06846,1.07473 3.48515,0.99502 6.55906,1.58671 6.8309,1.31487 0.27184,-0.27184 1.0395,-3.73023 1.70591,-7.68532 1.28675,-7.63675 1.10838,-10.26764 -2.43937,-35.98046 -1.10036,-7.975 -2.20922,-16.3 -2.46413,-18.5 -0.46386,-4.00326 -1.74788,-12.08002 -5.64368,-35.5 -1.14363,-6.875 -2.92238,-15.6787 -3.9528,-19.56379 C 145.84307,145.55113 145,139.80753 145,136.67264 c 0,-3.13488 -0.5625,-6.62049 -1.25,-7.7458 -1.0995,-1.79968 -0.87866,-2.38053 1.83416,-4.82416 2.85919,-2.57548 3.8936,-2.82444 14.18126,-3.41306 6.10341,-0.34921 15.14631,-1.17404 20.09532,-1.83296 6.97485,-0.92863 11.46696,-0.93027 19.97712,-0.007 11.93352,1.2943 16.36496,2.4698 20.06053,5.32129 2.34817,1.81185 2.42896,1.80697 3.85765,-0.23278 1.39156,-1.98672 2.06902,-2.05579 14.60161,-1.48858 7.22829,0.32714 19.21735,1.2638 26.64235,2.08146 7.425,0.81767 14.85,1.54101 16.5,1.60743 1.65,0.0664 9.75,0.94719 18,1.95726 8.25,1.01007 19.275,2.07023 24.5,2.35592 14.81156,0.80985 33.90459,4.96418 42.28849,9.20127 4.68865,2.36958 4.77505,2.49746 4.14335,6.13368 -0.35483,2.04251 -2.00208,6.63865 -3.66056,10.21365 -1.65848,3.575 -5.23683,13.475 -7.9519,22 -2.71506,8.525 -6.43633,20 -8.26949,25.5 -3.75026,11.25189 -10.21069,32.21445 -13.40622,43.5 -1.168,4.125 -3.02815,10.5849 -4.13365,14.35534 -2.04658,6.98002 -2.48189,12.28013 -1.35447,16.49128 0.52266,1.95223 1.10019,2.25223 3.43634,1.785 2.01854,-0.40371 5.70413,0.71547 13.1081,3.98043 5.66501,2.49813 10.91659,5.14003 11.67019,5.8709 0.87584,0.84941 1.53275,4.51971 1.82076,10.17295 0.45967,9.02258 -0.0106,11.14172 -5.84695,26.34517 -2.08689,5.43631 -6.51131,10.62309 -17.02891,19.9631 -11.03812,9.80226 -19.18915,14.28313 -36.80283,20.23165 C 284.51278,372.10602 271.83274,373.575 252,371.99 Z m 61.39244,-18.4334 c 9.40916,-4.64402 18.00756,-9.1757 19.10756,-10.07042 1.9194,-1.56118 1.85894,-1.60533 -1.5,-1.09525 -1.925,0.29232 -4.5884,0.84634 -5.91867,1.23115 -1.90239,0.55031 -2.29594,0.37983 -1.84371,-0.79866 0.49124,-1.28014 -0.12357,-1.36021 -4.22197,-0.54986 -3.10618,0.61417 -5.41985,0.59988 -6.56423,-0.0405 -1.54649,-0.86546 -1.32163,-1.2005 1.79973,-2.68169 3.24431,-1.53952 7.90834,-5.55106 6.45397,-5.55106 -0.33267,0 -2.60518,1.35 -5.05001,3 -2.44484,1.65 -4.65516,3 -4.91182,3 -0.25666,0 -3.5664,1.42507 -7.35497,3.16682 -6.24964,2.87319 -6.65652,3.23482 -4.38832,3.90032 1.375,0.40342 4.8625,0.77836 7.75,0.83318 2.8875,0.0548 5.25,0.51187 5.25,1.01565 0,1.18835 -6.21497,5.97886 -12.25,9.44234 -4.41954,2.53635 -5.66628,3.64169 -4.10756,3.64169 0.35335,0 8.34085,-3.79965 17.75,-8.44366 z m -38.87191,-7.06208 c 16.77357,-0.92772 29.25731,-5.42112 39.12156,-14.08145 3.54494,-3.11229 6.21155,-5.8925 5.9258,-6.17826 -0.28576,-0.28575 -1.09293,-0.0802 -1.79372,0.45682 -1.60841,1.23248 -16.71616,4.97937 -23.07573,5.72303 -5.90659,0.69069 -5.42036,-0.90631 0.52426,-1.72192 2.35251,-0.32277 7.6523,-1.76184 11.7773,-3.19793 4.125,-1.43609 7.95,-2.7228 8.5,-2.85937 6.85218,-1.70138 12.5,-6.64754 12.5,-10.94706 0,-2.24648 -1.7737,-2.12342 -5.93197,0.41158 -5.76593,3.51508 -19.78894,8.7712 -30.96192,11.60519 -9.80841,2.48787 -12.14793,2.6902 -31.10611,2.6902 -18.96515,0 -21.29523,-0.2017 -31.12143,-2.69396 -25.47023,-6.46015 -40.57461,-14.65057 -56.70845,-30.75043 -7.2626,-7.2473 -9.53037,-8.99343 -10.23469,-7.88047 -1.31788,2.0825 -1.13534,2.94371 0.49161,2.3194 1.03143,-0.3958 1.28124,0.01 0.90111,1.46351 -0.39815,1.52255 1.62377,4.26003 8.32297,11.26846 8.56424,8.95956 6.76292,9.09375 -2.40919,0.17948 -2.48658,-2.41669 -5.24576,-4.2492 -6.1315,-4.07225 -1.08898,0.21756 -1.98122,-0.81973 -2.75558,-3.20355 l -1.14514,-3.52528 -0.10486,3.32095 c -0.13271,4.20343 5.58971,11.01726 18.56008,22.09995 10.49133,8.96445 29.72613,20.14244 38.86696,22.5869 3.28246,0.8778 10.24311,2.77097 15.46811,4.20704 11.37901,3.12747 18.4472,4.1044 26.5,3.66272 3.3,-0.181 10.50924,-0.57849 16.02053,-0.8833 z m -74.70573,-23.5291 c -5.41049,-2.85771 -5.74264,-4.38995 -0.38766,-1.7883 2.51507,1.22192 4.57286,2.582 4.57286,3.02241 0,1.01508 0.16565,1.06392 -4.1852,-1.23411 z M 186,315 c -0.825,-0.53316 -1.05,-0.96937 -0.5,-0.96937 0.55,0 1.675,0.43621 2.5,0.96937 0.825,0.53316 1.05,0.96937 0.5,0.96937 -0.55,0 -1.675,-0.43621 -2.5,-0.96937 z m 95,6.58699 c 13.0942,-1.7414 24.54043,-4.64472 34.11233,-8.65254 4.06322,-1.70129 8.20859,-3.34375 9.21193,-3.64991 1.40405,-0.42842 1.67326,-1.15829 1.16872,-3.16854 -0.83983,-3.34615 -0.63521,-3.23826 -4.05892,-2.14023 -5.55582,1.78181 -17.59678,4.19484 -18.15361,3.63801 -0.66361,-0.66361 4.13039,-2.60178 6.53465,-2.6419 2.34487,-0.0391 13.47531,-6.19741 13.95685,-7.72209 0.26054,-0.82494 -1.2493,-0.54105 -4.43855,0.83455 -6.6007,2.84706 -13.44054,5.14186 -13.91413,4.66827 -0.2151,-0.2151 3.54007,-2.57636 8.34482,-5.24725 11.17954,-6.21455 14.40731,-9.57321 14.90109,-15.50536 0.29743,-3.57329 0.17346,-4.04284 -0.60197,-2.28005 -1.19802,2.72346 -18.10819,11.08783 -29.57793,14.63029 -4.3919,1.35646 -13.0888,3.45855 -19.32643,4.67132 -9.80252,1.90589 -13.60122,2.13912 -28,1.71911 -34.52956,-1.00722 -63.08167,-11.58078 -83.00565,-30.73908 -2.94074,-2.82772 -5.64074,-4.83506 -6,-4.46075 -0.91673,0.95515 12.99809,13.59985 21.09095,19.16582 3.70928,2.5511 6.56539,4.81713 6.34691,5.03562 -1.18014,1.18013 -13.33698,-6.87728 -23.51489,-15.5854 -5.80915,-4.97024 -6.60524,-4.33506 -1.77109,1.41312 1.81779,2.1615 4.33214,5.40473 5.58745,7.20718 3.19807,4.59201 14.50101,13.34946 21.45072,16.61989 6.86871,3.23232 6.81961,4.68633 -0.071,2.10139 -8.89212,-3.33579 -15.7499,-7.70017 -22.52229,-14.33346 -7.6694,-7.51188 -8.88909,-7.38446 -2.36892,0.24748 8.55884,10.01823 24.77048,20.587 40.66826,26.51264 7.61129,2.83698 20.61585,6.28406 25.45066,6.74612 2.2,0.21026 6.25,0.76731 9,1.2379 7.95629,1.36151 28.07366,1.19744 39.5,-0.32215 z m 7,-33.16414 2.5,-1.50628 -2.5,0.65411 c -1.375,0.35976 -2.9275,1.05353 -3.45,1.54171 -1.52746,1.42714 0.66379,0.98918 3.45,-0.68954 z m 17.09265,-4.54511 c 3.67006,-0.8005 5.77934,-2.2192 10.5,-7.06229 3.24904,-3.33331 4.73326,-5.32021 3.29825,-4.41532 -1.435,0.90488 -3.3475,1.36189 -4.25,1.01557 -0.90249,-0.34632 -1.63205,-0.69403 -1.62123,-0.77269 0.0108,-0.0786 0.70747,-3.74301 1.54811,-8.14301 0.84064,-4.4 1.70406,-9.12091 1.91872,-10.4909 0.21465,-1.37 1.41657,-3.32194 2.67093,-4.33766 2.09011,-1.69247 2.13657,-1.92741 0.5561,-2.81188 -1.55295,-0.86907 -1.37573,-1.42195 1.78096,-5.55614 3.87099,-5.06967 4.25737,-6.30342 1.97413,-6.30342 -2.39262,0 -2.8464,-2.69241 -1.22829,-7.28771 0.81578,-2.31676 2.73521,-8.26229 4.26541,-13.21229 5.26635,-17.03607 10.32046,-31.30512 11.9918,-33.8559 0.92117,-1.40588 1.41161,-2.98209 1.08986,-3.50268 -0.32175,-0.5206 0.87697,-1.88281 2.6638,-3.02713 l 3.2488,-2.0806 -3.80902,-0.0168 c -2.13015,-0.009 -3.55187,-0.43292 -3.22561,-0.96082 0.32088,-0.51919 3.97866,-3.21486 8.12842,-5.99039 l 7.545,-5.0464 -4.81939,0.59571 c -2.65067,0.32765 -7.2944,1.20553 -10.3194,1.95086 -11.33188,2.79205 -26.67157,5.42824 -31.60331,5.43116 -7.28548,0.004 -17.39669,1.16304 -17.39669,1.99361 0,0.81185 5.66511,3.32249 11.5,5.09652 2.2,0.66888 4.9,1.78032 6,2.46985 1.1,0.68954 4.7921,1.56312 8.20468,1.9413 6.97657,0.77314 9.02595,2.26804 7.36471,5.37209 -0.58816,1.099 -1.06939,5.1832 -1.06939,9.076 0,4.56573 -1.0307,11.06644 -2.90401,18.31574 -1.5972,6.18086 -3.21995,13.71292 -3.6061,16.73792 -0.38614,3.025 -1.76329,10.87323 -3.06032,17.44051 -1.64198,8.31386 -2.04626,12.31642 -1.33108,13.17817 0.7178,0.86489 0.55647,2.14787 -0.53566,4.25983 -2.11368,4.08739 -2.03982,6.23009 0.18717,5.42998 3.78793,-1.36094 -5.80061,8.07122 -13,12.78798 -2.6125,1.71161 -4.75,3.3105 -4.75,3.55309 0,0.49454 5.185,-0.26517 12.09265,-1.77182 z m -0.0997,-129.91994 c 20.57188,-0.0762 23.77477,-0.38248 48.48709,-4.63731 4.22289,-0.72707 15.51998,-5.36806 15.51998,-6.3758 0,-0.46345 -1.58412,-0.18075 -3.52027,0.62823 -1.93615,0.80897 -4.74865,1.63146 -6.25,1.82775 -1.50135,0.19629 -6.32973,1.04502 -10.72973,1.88606 -10.88158,2.07996 -34.74953,3.73265 -53.5,3.7045 -18.25525,-0.0274 -61.26569,-2.47519 -68.66778,-3.90797 -2.84228,-0.55017 -8.24228,-1.26865 -12,-1.59663 -3.75772,-0.32798 -9.53222,-1.20746 -12.83222,-1.95439 -3.3,-0.74693 -7.8,-1.62964 -10,-1.96157 -10.74025,-1.62048 -29.81668,-7.16109 -36.63877,-10.64147 -4.45224,-2.27136 -5.52032,-2.42829 -3.99177,-0.58649 1.98279,2.38911 23.84951,12.65729 26.95447,12.65729 2.53595,0 3.30063,0.62742 4.84371,3.9742 2.12333,4.60529 3.33236,5.12234 3.33236,1.42511 0,-2.47318 0.20839,-2.57563 4.25,-2.0894 2.3375,0.28122 6.275,1.02846 8.75,1.66054 2.475,0.63208 10.35,1.55907 17.5,2.05996 7.15,0.5009 16.375,1.42811 20.5,2.06046 6.71755,1.02979 44.57361,2.83658 46.12502,2.20145 0.34376,-0.14073 10.18432,-0.29126 21.86791,-0.33452 z"
       id="path3"
       sodipodi:nodetypes="cssssssssssssssssscssssssssssssssssssssssccsssssssssssssssssssssssssssssssssssssssscsssssssssssssssssssssssssssssssssssssssssssssssscsssssssssssssssssssccsscsscssssssssssssssssssssssssssssssssssssss" /></g></svg>
