<?xml version="1.0" encoding="UTF-8" standalone="no"?>
<!-- Created with Inkscape (http://www.inkscape.org/) -->

<svg
   width="500"
   height="500"
   viewBox="0 0 500 500"
   version="1.1"
   id="svg1"
   xml:space="preserve"
   inkscape:version="1.4.2 (2aeb623e1d, 2025-05-12)"
   sodipodi:docname="Beranek.svg"
   xmlns:inkscape="http://www.inkscape.org/namespaces/inkscape"
   xmlns:sodipodi="http://sodipodi.sourceforge.net/DTD/sodipodi-0.dtd"
   xmlns="http://www.w3.org/2000/svg"
   xmlns:svg="http://www.w3.org/2000/svg"><sodipodi:namedview
     id="namedview1"
     pagecolor="#ffffff"
     bordercolor="#000000"
     borderopacity="0.25"
     inkscape:showpageshadow="2"
     inkscape:pageopacity="0.0"
     inkscape:pagecheckerboard="0"
     inkscape:deskcolor="#d1d1d1"
     inkscape:document-units="px"
     inkscape:zoom="1.6379989"
     inkscape:cx="326.61804"
     inkscape:cy="216.11736"
     inkscape:window-width="1920"
     inkscape:window-height="1043"
     inkscape:window-x="0"
     inkscape:window-y="0"
     inkscape:window-maximized="1"
     inkscape:current-layer="layer1"
     showgrid="false"><inkscape:grid
       id="grid1"
       units="px"
       originx="0"
       originy="0"
       spacingx="1"
       spacingy="1"
       empcolor="#0099e5"
       empopacity="0.30196078"
       color="#0099e5"
       opacity="0.14901961"
       empspacing="5"
       enabled="true"
       visible="false" /></sodipodi:namedview><defs
     id="defs1" /><g
     inkscape:label="Layer 1"
     inkscape:groupmode="layer"
     id="layer1"><path
       id="path1"
       style="fill:#060606;stroke:none"
       d="M 234.50781 85.048828 L 225.07031 102.74219 C 219.3819 105.15384 212.77491 109.48414 208.66211 112.41211 L 208.66211 113.41211 C 208.79398 113.48257 208.92843 113.5516 209.06445 113.62109 C 203.25891 116.83749 199.4492 122.77833 197.77734 128.86523 C 196.95618 124.80868 196.77168 120.29259 198.07617 115.56641 L 187.07617 119.56641 L 187.07617 120.56641 L 187.41797 122.33789 L 192.49805 137.80078 C 188.6026 134.74625 184.77139 130.06665 184.07617 121.56641 C 170.90236 128.7854 177.55704 138.27393 184.07617 147.56641 C 178.7288 142.21848 173.06161 137.42569 172.07617 129.56641 C 168.8093 131.44376 166.78037 133.35675 165.68945 135.27539 C 158.49852 136.35681 155.39535 138.92728 153.64844 140.23633 C 151.82519 141.60259 147.02161 143.54159 145.78711 145.69531 C 147.2985 145.67748 149.83102 146.80318 152.00586 147.90234 C 151.38484 147.96708 150.75347 148.04132 150.15625 148.03711 C 145.86853 148.00691 140.24038 151.47292 138.07617 156.56641 C 142.43444 155.12433 146.01975 158.03161 148.75391 160.28906 C 142.2498 159.93105 134.69402 160.36149 132.86914 171.15234 C 138.76167 169.44768 143.91787 165.37578 148.78711 167.35742 C 143.06107 169.21802 133.97711 175.00287 132.69727 176.76562 C 129.70942 180.88085 133.8632 191.61576 136.07617 195.56641 C 139.66962 190.22435 141.89683 184.8633 145.92578 179.86328 C 143.6175 183.20829 142.47034 187.70328 141.1875 191.36328 C 139.15304 197.16769 139.41435 203.8733 142.07617 209.56641 L 143.07617 209.56641 L 144.07617 209.56641 C 146.05357 204.2074 149.45919 199.52372 151.91797 194.64648 C 152.00624 194.47139 152.0944 194.30303 152.18164 194.14062 C 150.46874 199.56586 148.76073 206.87434 147.97266 210.17383 C 146.86954 214.7924 147.46706 219.2085 152.07617 222.56641 C 153.21072 219.28376 154.10549 214.34158 155.59375 211.13086 L 155.59961 211.29883 C 152.99867 222.19319 164.38783 252.48356 176.93164 259.96289 C 176.9215 261.07225 177.13607 262.27562 177.59766 263.56641 C 183.31773 279.56226 191.19014 295.44529 193.64844 312.56641 C 195.2996 324.06604 189.59808 333.7251 195.07617 344.56641 L 197.07617 342.56641 L 212.07617 362.56641 L 210.07617 359.56641 L 213.07617 360.56641 C 214.9061 357.24305 218.12376 355.10394 219.70898 351.55078 C 223.40959 343.25616 224.02235 326.45795 234.07617 323.56641 C 231.31773 331.10071 226.03067 337.41736 224.61328 345.55078 C 223.23303 353.47113 230.33514 350.0376 233.47656 346.57227 C 235.00302 344.8884 236.50369 343.20926 238.07617 341.56641 L 242.07617 344.56641 L 252.07617 354.43359 L 251.05078 344.56641 L 252.70117 336.56641 L 248.55469 328.11914 L 250.07617 316.56641 C 261.45515 314.65989 264.07557 297.92899 264.07617 288.56641 L 264.07617 275 L 266.61328 290.44336 L 267.61328 290.44336 L 269.61328 283.44336 L 270.61328 283.44336 L 268.61328 292.44336 L 269.61328 292.44336 L 270.61328 288.44336 L 271.61328 288.44336 C 269.88052 299.8858 263.72471 303.8067 266.61328 316.44336 L 267.61328 316.44336 L 271.61328 305.44336 L 271.61328 311.44336 L 273.61328 311.44336 L 274.61328 304.44336 L 275.61328 304.44336 C 276.51321 310.44714 279.37155 319.0098 284.61328 322.44336 L 284.61328 311.44336 L 292.61328 327.44336 L 293.61328 327.44336 L 293.61328 320.44336 L 297.61328 322.44336 L 297.61328 317.44336 L 302.61328 327.44336 L 304.61328 324.44336 L 305.61328 324.44336 L 315.61328 333.44336 L 317.61328 330.44336 L 325.61328 338.44336 L 334.55859 351.44336 L 336.18555 330.44727 L 348.43359 316.42969 L 350.61328 294.44336 L 351.61328 294.44336 L 356.61328 303.44336 C 352.23569 285.05646 366.14297 276.11279 366.86328 259.44336 C 367.37219 247.66615 357.84534 237.29187 351.61328 228.44336 L 360.61328 232.44336 L 352.61328 226.44336 L 352.61328 225.44336 L 358.61328 226.44336 C 353.48974 215.90241 339.55316 209.17868 328.61328 214.44336 L 337.61328 201.44336 L 313.61328 212.44336 L 314.61328 206.44336 L 311.61328 209.44336 L 310.61328 209.44336 L 309.61328 202.44336 C 298.6672 207.36755 298.28006 202.21237 287.61328 199.08203 C 283.79576 197.96172 279.84934 197.54547 275.88867 197.53125 C 271.928 197.51705 267.95263 197.90497 264.07617 198.38672 L 245.07617 209.00195 L 231.07617 207.46094 L 211.11523 220.04297 L 203.07617 216.56641 L 202.07617 225.56641 L 201.07617 225.56641 C 201.07523 216.9825 196.24815 211.59558 188.13672 208.01758 C 188.37733 203.77535 187.01239 199.35597 183.09766 194.7207 C 183.31078 191.29731 182.43799 187.50374 180.01172 183.33984 C 180.77488 178.94712 179.11631 172.09451 178.0918 168.61719 C 180.48408 165.94557 183.08964 161.02578 187.07617 153.56641 C 190.15028 150.71506 194.46318 148.73695 195.88086 147.92578 L 202.31445 146.81836 C 202.31579 146.81853 202.31702 146.81819 202.31836 146.81836 C 207.75835 147.51849 219.5274 143.32129 223.68164 142.625 C 223.68286 142.6248 223.68629 142.62325 223.6875 142.62305 L 234.07617 141.56641 C 234.0727 141.55426 234.06987 141.54152 234.06641 141.5293 C 240.6855 141.09814 256.08502 141.58102 258.81055 126.45703 L 258.82812 126.47656 C 258.87893 126.14119 258.9331 125.55178 258.98828 125.1875 C 259.01495 124.97755 259.05413 124.78193 259.07617 124.56641 C 259.08008 124.52821 259.07731 124.49449 259.08008 124.45703 C 260.05197 117.99434 261.438 108.18389 259.63281 102.58203 C 259.21004 101.27008 257.8786 97.852978 256.05859 97.816406 C 255.63859 97.808006 255.19144 97.97937 254.72461 98.398438 C 252.50036 100.39511 254.59324 105.07889 254.60156 107.56641 C 254.61466 111.48893 251.81907 113.84488 250.5332 117.43945 L 253.54297 120.71875 C 251.9776 120.60068 250.38562 120.63994 249.2168 120.61719 C 247.68076 120.58729 246.01708 120.8766 244.07617 121.56641 L 247.49219 131.64453 C 240.54993 126.19623 243.96442 120.80547 234.07617 121.56641 C 232.75449 121.66812 232.25323 127.10271 232.33398 132.54297 C 231.01051 125.02942 229.22117 116.9636 225.07617 119.56641 C 222.89574 120.93559 220.80599 126.48415 220.76562 132.48438 C 219.83842 127.42511 220.2222 122.49539 222.07617 116.56641 L 221.72461 116.52148 C 223.93597 116.35097 226.00061 115.71356 227.66211 114.41211 L 220.66211 111.41211 L 220.66211 110.41211 L 236.66211 112.41211 L 230.66211 107.41211 C 232.94185 107.50821 237.05438 108.69312 239.03906 107.29883 C 242.58063 104.81077 235.95679 104.38138 232.33203 103.02344 L 241.61133 102.29102 C 239.91733 97.434721 239.94037 85.961761 234.50781 85.048828 z M 232.07617 103.89844 L 232.41016 104.23242 C 231.91663 104.39691 231.30285 103.89844 232.07617 103.89844 z M 211.72266 114.80273 C 212.47867 115.09327 213.26737 115.36062 214.07422 115.59375 L 212.47852 131.61133 C 210.02126 120.89269 209.00365 124.31747 211.72266 114.80273 z M 164.75781 140.17188 C 165.53602 145.30602 171.26112 150.29765 176.07617 154.56641 C 169.52575 152.32654 160.79797 147.32651 158.07617 156.56641 C 161.64253 156.56644 159.17798 161.85687 162.07617 164.23242 C 164.67894 166.36583 166.80776 168.02742 168.625 169.17773 C 164.1499 168.50669 160.24402 166.2881 156.07617 162.56641 C 156.27754 166.54969 155.57823 174.94137 157.19727 178.27734 C 161.54263 187.23071 168.82984 183.86111 175.01562 179.64648 C 169.16336 187.52447 165.78175 185.94025 157.07617 185.56641 C 159.23682 194.48349 167.52855 196.02437 173.97656 191.55078 C 169.91816 196.1 165.2035 198.18968 158.07617 199.56641 L 158.64258 201.97461 L 155.70508 196.1582 L 155.70508 196.15625 C 155.5345 193.92846 155.17591 191.68199 154.41016 189.52734 C 154.87578 187.22601 154.31055 183.80134 151.5332 175.83789 C 151.85642 175.42671 151.93898 174.94476 151.60742 174.3418 C 151.25988 173.70977 151.76941 171.59093 152.07812 169.75586 C 152.08325 169.76143 152.08863 169.76785 152.09375 169.77344 L 153.88281 161.46094 C 153.88336 161.45976 153.88422 161.45821 153.88477 161.45703 C 153.97693 161.25823 154.06313 161.03258 154.14453 160.77344 C 155.95908 154.99681 156.42073 151.7434 156.08984 149.94141 C 157.76228 148.78294 162.01341 143.9947 164.75781 140.17188 z M 257.07617 203.56641 C 263.69812 205.74292 263.66038 219.80451 262.07617 225.56641 L 261.07617 225.56641 L 259.07617 211.56641 L 258.07617 211.56641 L 252.07617 223.56641 L 257.07617 210.56641 L 256.07617 210.56641 L 238.07617 232.56641 L 239.07617 226.56641 L 238.07617 226.56641 L 229.07617 243.56641 L 227.07617 243.56641 L 226.07617 242.56641 C 227.84077 235.13739 231.47849 227.03479 237.16992 221.7793 C 244.3281 215.16941 252.42404 212.90467 257.07617 203.56641 z M 178.76953 205.05469 L 175.98242 212.55078 L 167.81055 220.12305 L 165.2793 215.11328 C 169.7852 212.90027 175.11469 209.54624 178.76953 205.05469 z M 185.21484 217.41211 C 183.05142 224.01131 180.06171 230.33993 175.41016 235.16797 L 174.17578 232.72461 C 177.9328 227.82167 182.36276 222.74836 185.21484 217.41211 z M 218.07617 262.56641 C 222.13865 273.65924 214.51025 279.71839 206.07617 285.56641 C 205.94337 270.71338 204.01105 269.9281 218.07617 262.56641 z " /></g></svg>
