<?xml version="1.0" encoding="UTF-8" standalone="no"?>
<!-- Created with Inkscape (http://www.inkscape.org/) -->

<svg
   width="500"
   height="500"
   viewBox="0 0 500 500"
   version="1.1"
   id="svg1"
   xml:space="preserve"
   inkscape:version="1.4.2 (2aeb623e1d, 2025-05-12)"
   sodipodi:docname="Pistolnik.svg"
   xmlns:inkscape="http://www.inkscape.org/namespaces/inkscape"
   xmlns:sodipodi="http://sodipodi.sourceforge.net/DTD/sodipodi-0.dtd"
   xmlns="http://www.w3.org/2000/svg"
   xmlns:svg="http://www.w3.org/2000/svg"><sodipodi:namedview
     id="namedview1"
     pagecolor="#ffffff"
     bordercolor="#000000"
     borderopacity="0.25"
     inkscape:showpageshadow="2"
     inkscape:pageopacity="0.0"
     inkscape:pagecheckerboard="0"
     inkscape:deskcolor="#d1d1d1"
     inkscape:document-units="px"
     inkscape:zoom="3.6192741"
     inkscape:cx="249.22125"
     inkscape:cy="283.20596"
     inkscape:window-width="1920"
     inkscape:window-height="1043"
     inkscape:window-x="0"
     inkscape:window-y="0"
     inkscape:window-maximized="1"
     inkscape:current-layer="layer1"
     showgrid="false"><inkscape:grid
       id="grid1"
       units="px"
       originx="0"
       originy="0"
       spacingx="1"
       spacingy="1"
       empcolor="#0099e5"
       empopacity="0.30196078"
       color="#0099e5"
       opacity="0.14901961"
       empspacing="5"
       enabled="true"
       visible="false" /></sodipodi:namedview><defs
     id="defs1" /><g
     inkscape:label="Layer 1"
     inkscape:groupmode="layer"
     id="layer1"><path
       style="fill:#090909;stroke:none"
       d="m 225.71301,185.65381 c -2.11511,-0.62823 -15.7727,-7.24251 -12.91725,1.75013 2.8568,0.55436 10.1633,2.33719 13.3773,3.60107 6.79665,2.67276 12.29256,7.47965 18.80556,9.9838 6.34434,2.43933 13.50673,2.19107 20.15509,3.72839 -0.27333,-8.32977 -6.86884,-7.56155 -13,-11 l 12,3 c 0.78375,-3.43005 0.42221,-4.86435 -3,-6 v -1 h 4 c -1.205,-7.24282 -12.89647,-8.6983 -19,-10.65588 -14.81285,-4.75092 -33.99818,-10.1658 -43,-23.34412 -7.27754,1.89972 -18.22299,14.25483 -9.6821,21.39585 3.21448,2.68762 7.96871,0.72384 11.6821,0.65817 7.88339,-0.1394 17.63725,4.89586 20.5793,7.88259 m 5.4207,-5.93661 30,9 v 1 c -8.82381,-0.18798 -19.21979,-3.90042 -27,-8 l -1,5 19,6 v 1 c -7.4406,-1.00277 -24.35231,-3.86682 -21,-14 m 29.44797,4.22161 v 7 c 1.7711,10.70765 27.35587,10.26142 35,17 l -35,-10 c 0.0482,13.64005 27.2301,19.23575 39,21 1.51288,9.57386 13.93283,8.41327 20.8912,12.53241 7.15476,4.23539 3.77918,14.32111 13.10956,17.9043 10.94992,4.20512 15.52051,-4.43585 24.99924,-4.74304 19.95364,-0.64664 15.25024,22.86538 13,34.30633 19.40259,8.12085 28.37109,11.8739 48,1 -2.22849,-4.72714 -6.69556,-6.80883 -9.53241,-11.05401 -8.20682,-12.28101 -15.62027,-25.09329 -27.46759,-34.42823 -7.88486,-6.21273 -17.56552,-9.84475 -25,-16.51776 2.5881,0.1037 6.32629,1.10108 8.68134,-0.26852 6.18597,-3.59747 -2.16797,-9.02008 -5.68134,-9.73148 l 2,-4 -7,1 1,-4 -5,-2 c -0.90024,6.85389 12.90045,13.33472 4,16 l 1,-6 -19,-7 4,4 c 0.58749,3.40293 1.64941,4.27204 5,5 v 4 l -17,-7 5,-12 -12.99615,7.19907 -12.00385,-6.19907 c 3.6174,8.79126 3.63788,12.15226 -7,13 3.22702,4.29712 11.06378,5.35605 16,7.18906 14.62286,5.43002 30.26364,15.13345 46,15.81094 v -4 l 5,6 c -16.28943,3.17707 -37.70581,-10.85672 -53,-15.80633 -4.14395,-1.3411 -15.14862,-3.49402 -16.65433,-8.19367 -1.61429,-5.03857 11.95474,-1.66929 14.19531,-1.25975 3.56204,-7.90994 -8.60073,-10.36409 -14.54098,-12.55043 -12.8537,-4.73089 -26.01672,-8.80475 -39,-13.18982 m 11,21 3,1 v 1 l -4,-1 1,-1 m -171.16387,30.16362 h 21 l -1,7 50.16975,1.04862 23.83025,3.95138 -0.21579,-0.0939 c 21.76122,7.36664 45.92525,2.27678 68.21579,5.09388 v -6 l -28,-2 c 0,0 17.02663,-0.0302 28,0 v -13 l -12,1 c -23.51132,0 -58.56151,-1.03876 -93,-7.0841 -12.67474,-2.22492 -25.2414,-5.10123 -38,-6.85031 -4.32935,-0.59351 -9.61694,-2.93097 -13.95988,-2.33179 -8.711419,1.2019 -7.324089,13.78836 -5.04012,19.2662 m 160.16387,-17.16362 4,7 -4,-2 3,3 c -1.66753,6.42908 -5.42455,12.68302 -1,19 -5.96243,7.88031 3.84512,9.91489 6.92514,15.26313 2.11777,3.67733 1.47098,7.8468 6.12964,9.58874 14.94507,5.58814 28.74707,-2.51727 35.94522,-14.85187 -13.00543,-8.84543 -27.87695,-18.59231 -44,-20 l 0.46714,-0.7046 18.53286,3.7046 v -6 l -15,-2 1,-3 -12,-9 m 80,3 4,2 1,-4 -5,2 m -159,11 v 1 l -80,-8 -1,6 h -0.999995 l 0.999995,-11 c 25.29059,7.21317 54.68582,9.92322 81,12 m 122,-12 9,3 v 1 c -2.56488,-0.51947 -10.20007,-0.7731 -9,-4 m 53,2 8,7 -8,-7 m -42,2 4,2 v 1 l -5,-2 1,-1 m 6,2 -1,1 1,-1 m 15,15 c 4.42389,3.88468 7.31281,-2.1698 9,-6 h 2 c 5.46579,11.42597 -9.70471,17.30086 -15.90585,7.78626 -3.39637,-5.21112 3.04083,-12.11872 8.30169,-8.51773 4.11435,2.81622 -0.60605,6.2659 -3.39584,6.73147 m -68,-6 -3,4 3,-4 m -123,2 v 1 h -5 l 5,-1 m 50,0 28,4 v 1 l -29,-4 1,-1 m 109,21 -29.68984,-13.17219 4.68984,8.17219 v 1 l -11,-12 c 6.53032,-0.5044 24.24493,8.59821 36,16 m -27,7 6,-5 c 17.28976,7.46125 -16.0943,14.24121 -8,-3 4.62708,1.70214 5.37793,4.37598 2,8 m 31.84867,-11.89187 -13,16 c 6.98358,0.67966 10.04767,9.60697 13.47067,15 7.76978,12.24146 16.86423,22.53986 27.52548,32.17362 2.67249,2.41491 6.1551,8.43063 10.04322,8.70907 5.33548,0.38211 11.62054,-8.5426 14.96063,-11.88269 3.96365,-3.96365 12.88318,-10.03253 13.46915,-16 1.30368,-13.27667 -22.10932,-20.25317 -31.46915,-19 v -1 l 4,-2 v -2 l -21.96063,-14.67207 -17.03937,-5.32793"
       id="path1"
       sodipodi:nodetypes="ccssccccccscssccccccccccccccsssccsscsccccccccccccccccscccsscsccccccccccccccccccsssccccccsscccccccccccccccccccccccccccccccccccccsscccccccccccccccccccccccccssssscccccc" /></g></svg>
