<?xml version="1.0" encoding="UTF-8" standalone="no"?>
<!-- Created with Inkscape (http://www.inkscape.org/) -->

<svg
   width="500"
   height="500"
   viewBox="0 0 500 500"
   version="1.1"
   id="svg1"
   xml:space="preserve"
   inkscape:version="1.4.2 (2aeb623e1d, 2025-05-12)"
   sodipodi:docname="Svaty.svg"
   xmlns:inkscape="http://www.inkscape.org/namespaces/inkscape"
   xmlns:sodipodi="http://sodipodi.sourceforge.net/DTD/sodipodi-0.dtd"
   xmlns="http://www.w3.org/2000/svg"
   xmlns:svg="http://www.w3.org/2000/svg"><sodipodi:namedview
     id="namedview1"
     pagecolor="#ffffff"
     bordercolor="#000000"
     borderopacity="0.25"
     inkscape:showpageshadow="2"
     inkscape:pageopacity="0.0"
     inkscape:pagecheckerboard="0"
     inkscape:deskcolor="#d1d1d1"
     inkscape:document-units="px"
     inkscape:zoom="1.0731789"
     inkscape:cx="140.70347"
     inkscape:cy="319.1453"
     inkscape:window-width="1920"
     inkscape:window-height="940"
     inkscape:window-x="0"
     inkscape:window-y="0"
     inkscape:window-maximized="1"
     inkscape:current-layer="layer1"
     showgrid="false"><inkscape:grid
       id="grid1"
       units="px"
       originx="0"
       originy="0"
       spacingx="1"
       spacingy="1"
       empcolor="#0099e5"
       empopacity="0.30196078"
       color="#0099e5"
       opacity="0.14901961"
       empspacing="5"
       enabled="true"
       visible="false" /></sodipodi:namedview><defs
     id="defs1" /><g
     inkscape:label="Layer 1"
     inkscape:groupmode="layer"
     id="layer1"><path
       style="fill:#000000"
       d="m 197.79422,332.91712 c -2.28378,-1.70454 -2.56058,-2.40144 -1.77475,-4.46832 1.22264,-3.21581 0.47396,-3.08922 -3.77056,0.63752 -3.02508,2.65605 -4.01936,2.99441 -7.13202,2.42706 -4.9403,-0.90049 -6.0652,-2.28135 -6.78084,-8.32375 C 177.998,320.33533 177.61054,318 177.47502,318 c -0.13553,0 -1.53534,0.67223 -3.11071,1.49384 -4.04534,2.10979 -6.67436,1.86949 -9.2226,-0.84299 -1.76936,-1.8834 -2.02149,-2.83686 -1.27168,-4.809 0.90485,-2.37993 0.6866,-2.53675 -6.7174,-4.82685 -4.20895,-1.30186 -8.1653,-2.75155 -8.79189,-3.22154 -1.87096,-1.40337 -2.26938,-6.06944 -0.76643,-8.97584 1.84413,-3.56616 1.8576,-3.53756 -1.4376,-3.05393 -2.41355,0.35424 -3.55226,-0.38986 -7.53414,-4.92319 -3.76883,-4.29077 -4.57056,-5.8319 -4.07881,-7.8405 0.83974,-3.42996 3.25169,-5.88981 6.63468,-6.76643 2.81181,-0.72862 2.7714,-0.78259 -3.91867,-5.23489 -3.71787,-2.47427 -9.79727,-7.38501 -13.50977,-10.91274 -5.60234,-5.32352 -6.75,-6.96044 -6.75,-9.62756 0,-4.52892 2.03267,-5.86281 7.74172,-5.0803 l 4.71384,0.6461 -5.05819,-5.26209 C 121.61536,235.86794 117.12536,230.8 114.41959,227.5 111.71381,224.2 109.1625,221.35 108.75,221.16667 107.75541,220.72463 107.78188,218 108.78076,218 c 0.42942,0 1.31282,-1.40957 1.96311,-3.13238 1.06096,-2.81082 1.49801,-3.06924 4.25729,-2.51739 4.47489,0.89498 4.62992,-1.05991 0.61307,-7.73054 -6.17087,-10.24776 -5.66945,-18.77482 1.14272,-19.43305 3.73878,-0.36126 3.68527,-0.15754 1.73223,-6.59557 -1.71186,-5.64296 -1.92574,-12.31263 -0.51393,-16.02597 0.79978,-2.10358 1.62869,-2.5651 4.60699,-2.5651 3.08816,0 3.51543,-0.26193 2.85465,-1.75 -0.42739,-0.9625 -0.96263,-3.55918 -1.18942,-5.77041 -0.32273,-3.14674 0.0425,-4.43201 1.68057,-5.91447 2.06158,-1.8657 2.13141,-1.85791 4.66397,0.52041 1.41409,1.32796 7.2331,9.38947 12.93114,17.91447 6.76161,10.11622 12.89858,17.9748 17.66847,22.62501 8.17142,7.96639 24.50027,20.6186 37.62523,29.15344 16.37346,10.64727 20.06143,14.18215 25.09949,24.05757 3.27121,6.4121 2.21495,16.37337 -1.84886,17.43608 -2.54913,0.66661 -4.45325,9.05579 -3.26042,14.3647 1.66594,7.41456 17.30113,24.20517 23.19294,24.90687 0.825,0.0983 2.25115,0.50032 3.16921,0.89347 0.97486,0.41748 2.72083,0.0258 4.19728,-0.94162 1.39044,-0.91105 2.88929,-1.60922 3.33079,-1.5515 0.44149,0.0577 3.54787,-1.71298 6.90305,-3.93491 4.32485,-2.86407 7.77462,-6.36524 11.85293,-12.02951 5.28691,-7.34287 5.75605,-8.42972 5.79533,-13.42584 0.0515,-6.54895 -1.52766,-10.76268 -4.5267,-12.07874 -1.84118,-0.80796 -2.31013,-2.00308 -2.73688,-6.97502 -0.56018,-6.52646 0.67941,-10.19047 6.14937,-18.1766 2.54661,-3.71803 13.71744,-13.26751 15.62679,-13.35868 0.80761,-0.0386 16.4342,-11.03977 28.88025,-20.33185 12.32994,-9.20539 23.76131,-21.03654 31.04707,-32.13287 10.21042,-15.55061 18.33297,-26.50305 19.62963,-26.46858 0.65003,0.0173 2.01483,1.17469 3.03288,2.57201 1.82908,2.51049 1.86867,5.74071 0.13664,11.14657 -0.65791,2.05338 -0.4027,2.25 2.92048,2.25 2.98865,0 3.8162,0.4598 4.61663,2.5651 1.51331,3.9803 1.0949,12.39956 -0.90373,18.1849 l -1.81369,5.25 3.09634,0.0153 c 5.12804,0.0254 6.09633,1.26004 6.09633,7.77346 0,5.05108 -0.53098,6.72198 -3.83946,12.08215 -2.11171,3.42123 -3.59933,6.84621 -3.30583,7.61106 0.2935,0.76485 2.24626,1.5318 4.33946,1.70433 3.06902,0.25296 3.8677,0.74929 4.12538,2.56369 0.17575,1.2375 0.73825,2.25 1.25,2.25 1.83532,0 0.87841,3.11194 -1.93003,6.27665 -1.57327,1.77284 -6.379,7.21404 -10.67941,12.09156 l -7.81892,8.86821 4.10454,-0.69346 c 5.81536,-0.9825 8.25427,0.56355 8.25427,5.23248 0,3.27546 -0.78268,4.44711 -6.75,10.10448 -3.7125,3.51968 -9.7405,8.32848 -13.39556,10.68624 -7.03587,4.53862 -8.93895,6.43384 -6.46051,6.43384 4.25012,0 8.60607,4.27114 8.60607,8.43852 0,0.73943 -2.13225,3.88045 -4.73834,6.98005 -4.17121,4.96113 -5.06887,5.56305 -7.5,5.02908 -3.04755,-0.66935 -3.2816,-0.28769 -1.67012,2.72339 0.60693,1.13407 0.80382,3.57321 0.44347,5.49402 -0.54801,2.92114 -1.37269,3.77554 -5.34154,5.53405 -2.58141,1.14376 -6.26847,2.37163 -8.19347,2.7286 -3.30623,0.6131 -3.48443,0.84914 -3.21883,4.26356 0.22648,2.91151 -0.23737,4.02242 -2.38486,5.71163 -3.33633,2.62436 -4.80303,2.62689 -9.02828,0.0155 -1.85241,-1.14486 -3.42428,-1.81986 -3.49303,-1.5 -0.0688,0.31986 -0.2375,1.03156 -0.375,1.58156 -0.1375,0.55 -0.31314,2.6875 -0.39031,4.75 -0.19136,5.11409 -1.12274,6.24084 -6.0793,7.35451 -3.76333,0.84556 -4.62647,0.68281 -7.39549,-1.39447 -5.73297,-4.30078 -6.01273,-4.34917 -5.32718,-0.92144 0.50308,2.51541 0.2498,3.21706 -1.3439,3.72288 -1.0801,0.34281 -1.96382,1.04297 -1.96382,1.55591 0,1.1052 -4.68306,1.27072 -5.16667,0.18261 -0.18333,-0.4125 -2.24592,-1.99394 -4.58352,-3.51431 -2.3376,-1.52038 -5.2626,-4.32731 -6.5,-6.23763 -2.63703,-4.0711 -3.07166,-4.17621 -5.83647,-1.4114 -4.00068,4.00068 -10.36649,0.10041 -16.05483,-9.83666 C 255.22021,306.89418 253,306.36173 253,311.84501 c 0,4.70708 -2.46668,7.35183 -6.03688,6.47267 C 243.1084,317.36845 242,316.02549 242,312.30423 c 0,-5.01629 -2.83849,-4.00422 -6.19338,2.20826 -5.15525,9.54633 -12.62647,13.4036 -16.03078,8.27643 -1.46304,-2.20346 -1.47745,-2.19694 -4.18503,1.8945 -1.53669,2.32208 -4.64437,5.12807 -7.15388,6.45936 -2.44031,1.29458 -4.43693,2.69206 -4.43693,3.1055 0,1.43242 -3.5126,0.67896 -6.20578,-1.33116 z m 14.21396,-10.43864 c 1.58799,-4.17672 1.53142,-5.89782 -0.20561,-6.25543 -1.14725,-0.23618 -2.35369,0.93692 -3.7221,3.61922 -1.11357,2.18277 -3.21953,4.90856 -4.67992,6.0573 -2.19448,1.72617 -2.43949,2.34858 -1.41194,3.58671 1.08095,1.30246 1.76113,1.08797 5.20848,-1.64238 2.18084,-1.72726 4.34583,-4.1417 4.81109,-5.36542 z m 82.81045,6.24006 c 0.79736,-0.96076 0.34021,-1.76759 -1.82666,-3.22394 -1.5896,-1.06836 -3.66623,-3.66344 -4.61474,-5.76685 -1.98127,-4.39369 -2.61864,-4.95608 -4.70808,-4.15428 -1.26181,0.4842 -1.31799,1.10387 -0.34024,3.75324 1.60784,4.35674 2.70217,5.88536 6.05595,8.45926 3.3428,2.56548 3.98684,2.67602 5.43377,0.93257 z m -105.3455,-3.69049 2.8473,-2.97195 -4.41021,-3.98704 c -2.42562,-2.19287 -4.75886,-4.00549 -5.18497,-4.02805 C 181.65624,313.98442 180,318.59849 180,321.63319 v 2.503 l 2.93381,-2.08906 2.93382,-2.08906 -1.5007,3.00823 c -2.74191,5.49628 0.54442,6.82322 5.1062,2.06175 z m 124.4478,2.04198 c 1.21095,-0.76644 1.174,-1.2762 -0.25,-3.4495 -2.31428,-3.53204 -2.09968,-3.94757 0.99238,-1.92157 l 2.66331,1.74507 -0.7145,-4.47202 c -0.39297,-2.4596 -1.12507,-4.88312 -1.62689,-5.38559 -0.83907,-0.84017 -9.6585,5.92471 -9.89104,7.58685 -0.16299,1.16508 5.02827,6.82746 6.2447,6.81142 0.63861,-0.008 1.80053,-0.42002 2.58204,-0.91466 z m -108.9828,-6.94875 c 1.08832,-2.13329 2.20107,-5.10462 2.47277,-6.60295 0.2717,-1.49833 1.20077,-3.80291 2.0646,-5.12128 1.73463,-2.64739 1.38882,-2.92999 -1.61694,-1.32136 -1.81141,0.96945 -1.9037,0.87716 -0.93425,-0.93425 2.38578,-4.45788 0.8392,-4.02185 -3.01088,0.84886 -4.96522,6.28148 -6.56035,5.79999 -2.03843,-0.6153 4.02614,-5.71193 3.46815,-6.79041 -0.86736,-1.67645 -3.31161,3.90621 -3.4408,3.79115 -1.06504,-0.94855 0.75814,-1.5125 1.8687,-2.75689 2.46792,-2.76531 0.59921,-0.008 0.46229,-0.41246 -0.30428,-0.89787 -2.31638,-1.46677 -6.85071,0.81599 -11.01265,5.5442 -3.07283,3.49092 -3.76388,4.94783 -3.24838,6.84849 0.65465,2.41375 11.56256,11.44353 13.88447,11.49384 0.67632,0.0147 2.12012,-1.71877 3.20845,-3.85207 z m 97.73385,-1.65335 c 6.6509,-5.00587 7.29237,-5.7906 6.74385,-8.25 -1.14263,-5.12323 -12.71223,-14.25486 -15.07149,-11.8956 -0.30939,0.30938 0.31278,1.82593 1.3826,3.37009 3.59994,5.19612 3.93081,6.02059 1.72868,4.30758 -1.06056,-0.825 -2.77273,-2.4 -3.80482,-3.5 -1.85034,-1.9721 -1.85409,-1.96512 -0.26846,0.5 6.00507,9.33586 5.77125,11.4762 -0.38234,3.5 -4.15224,-5.38208 -6.28348,-6.76671 -4.08102,-2.65139 1.51147,2.82421 1.34668,3.61676 -0.44315,2.13133 -2.32003,-1.92546 -2.80956,-0.52599 -1.02389,2.92713 0.87968,1.70111 1.35683,3.09293 1.06032,3.09293 -0.69498,0 2.14781,6.82333 4.06213,9.75 0.80945,1.2375 1.75878,2.25 2.10964,2.25 0.35086,0 3.94544,-2.48943 7.98795,-5.53207 z m -125.47734,-5.79609 c 1.63668,-2.31914 1.6124,-2.43873 -0.71012,-3.49694 -2.13432,-0.97246 -2.65573,-0.7432 -4.63663,2.03872 -1.22754,1.72392 -2.40892,2.60329 -2.6253,1.95416 -0.21637,-0.64913 -0.80498,-0.92588 -1.308,-0.61499 -1.03327,0.63859 -1.2434,4.78507 -0.29077,5.7377 0.98068,0.98068 7.69545,-2.9613 9.57082,-5.61865 z m 153.75566,3.42102 c 0.78666,-1.46988 0.56499,-2.4443 -0.96678,-4.25 -1.74124,-2.05262 -1.90665,-2.09509 -1.33521,-0.34286 0.50097,1.53613 -0.14856,1.24512 -2.80048,-1.25469 -3.11548,-2.9368 -3.64166,-3.11655 -5.38701,-1.84032 -1.90981,1.39649 -1.90915,1.44261 0.0525,3.64787 2.0129,2.26292 7.39133,5.93655 8.70154,5.9434 0.39315,0.002 1.17411,-0.85447 1.73548,-1.9034 z M 249,314.69113 c 0,-0.71988 -0.66069,-2.18238 -1.4682,-3.25 -1.38877,-1.83613 -1.46991,-1.76533 -1.5,1.30887 -0.0219,2.23636 0.43604,3.25 1.4682,3.25 0.825,0 1.5,-0.58899 1.5,-1.30887 z m -17.40681,-1.89542 c 3.52526,-2.41555 6.38152,-6.63473 5.72202,-8.45242 -0.23083,-0.63619 0.53178,-1.82314 1.69468,-2.63767 l 2.11437,-1.48095 -2.81213,-1.89837 c -1.54667,-1.04411 -4.09991,-2.54761 -5.67386,-3.34111 -1.57395,-0.79351 -3.29335,-2.57729 -3.82088,-3.96397 l -0.95915,-2.52122 -2.93385,3.5 -2.93386,3.5 0.62361,-4.19411 c 0.54948,-3.6956 0.25289,-4.64385 -2.49527,-7.97785 C 218.40349,281.24699 217,278.7734 217,277.83117 c 0,-2.36234 -1.78821,-3.25183 -3.56797,-1.77476 -2.68464,2.22805 -2.60782,0.21029 0.0949,-2.49242 2.10717,-2.10718 2.40791,-2.93759 1.47216,-4.0651 -0.75066,-0.90449 -0.90599,-2.60723 -0.42946,-4.70793 0.41058,-1.81003 0.65562,-5.00445 0.54453,-7.09872 -0.16521,-3.1144 0.36616,-4.33849 2.91809,-6.72236 2.39932,-2.24129 2.96707,-3.44075 2.4577,-5.19224 -1.39691,-4.80339 -6.29015,-10.32609 -11.78265,-13.29835 -3.07012,-1.66139 -5.94772,-3.42103 -6.39467,-3.91032 -0.45939,-0.50292 -0.26927,-0.57694 0.43738,-0.17028 0.6875,0.39564 1.25,0.48676 1.25,0.20248 0,-0.28427 -1.95204,-1.66083 -4.33786,-3.05902 -5.28136,-3.09508 -12.33376,-3.43839 -15.63978,-0.76134 -2.15039,1.74128 -2.16538,1.91033 -0.67515,7.61703 0.83822,3.20992 2.56551,6.95235 3.83842,8.31651 2.62962,2.81814 8.85419,6.25107 11.52453,6.35594 3.8134,0.14974 -2.15133,1.78823 -6.76903,1.85942 -6.47672,0.0999 -8.16194,1.68788 -8.70198,8.20006 l -0.45026,5.42948 5.10152,2.38942 c 3.30859,1.54966 7.03381,2.41788 10.59954,2.47038 3.0239,0.0445 5.50072,0.19114 5.50403,0.32583 0.003,0.13468 -1.94506,1.16199 -4.32971,2.28291 -2.38466,1.12092 -5.79765,3.54634 -7.58443,5.38984 l -3.24869,3.3518 3.42881,2.61528 c 3.64497,2.78015 6.65667,3.26546 9.80578,1.58011 2.72871,-1.46036 2.40748,-0.59188 -1.06574,2.88133 -1.65,1.65 -3,3.39597 -3,3.87992 0,0.48396 1.3832,2.76078 3.07378,5.05961 l 3.07377,4.17969 3.81705,-1.94731 c 2.09938,-1.07102 4.80292,-3.20073 6.00787,-4.73269 1.51884,-1.93104 1.96537,-2.17193 1.45581,-0.78537 -4.02978,10.96528 -4.38117,12.49371 -3.44092,14.96674 0.53722,1.41302 2.18108,3.027 3.653,3.58663 2.30498,0.87635 3.09023,0.6311 5.66058,-1.76794 l 2.98435,-2.78543 -0.60737,2.4731 c -0.42865,1.74541 0.022,3.14306 1.53167,4.75 2.61098,2.77926 2.43641,2.77727 6.3836,0.0726 z m 38.92722,-1.22705 c 2.16615,-2.00751 2.4366,-2.78047 1.55152,-4.43425 -1.90356,-3.55684 -1.14293,-3.64391 1.73348,-0.19844 2.53463,3.03609 3.0896,3.26661 5.75,2.38839 1.62146,-0.53527 3.55106,-2.21684 4.29426,-3.74232 1.18994,-2.4424 1.08687,-3.49884 -0.87084,-8.92616 -1.22129,-3.38573 -2.68027,-6.72925 -3.24218,-7.43005 -0.56191,-0.70079 -0.79528,-1.50054 -0.5186,-1.77721 0.27668,-0.27668 1.63794,0.98486 3.02503,2.80343 1.38709,1.81857 4.0924,4.15221 6.01179,5.18587 l 3.48981,1.87939 3.09835,-3.40866 c 4.0482,-4.45364 3.94119,-6.4928 -0.59303,-11.30053 -3.14302,-3.3326 -3.31058,-3.70362 -1.03518,-2.29216 4.11857,2.55481 8.259,2.12714 12.0194,-1.2415 l 3.26578,-2.92554 -2.79231,-2.92334 c -1.53577,-1.60784 -5.10624,-4.00384 -7.93437,-5.32446 l -5.14207,-2.40112 5.93437,-0.57648 c 3.27353,-0.318 8.17627,-1.69702 10.93438,-3.07557 l 5,-2.49908 -0.35092,-5.42443 c -0.43035,-6.65211 -1.378,-7.9083 -6.02152,-7.98207 -1.99516,-0.0317 -5.42756,-0.41263 -7.62756,-0.84652 -3.23146,-0.63732 -3.61573,-0.92681 -2,-1.50669 4.78219,-1.71632 10.8368,-5.25876 12.45286,-7.28595 0.9632,-1.20823 2.34285,-4.98442 3.06588,-8.39154 1.51825,-7.1543 0.8137,-8.25734 -6.01066,-9.41031 -4.1423,-0.69983 -12.8112,2.31771 -15.22659,5.3002 -0.98279,1.21353 -0.99013,1.40732 -0.0315,0.83138 0.6875,-0.41304 1.25,-0.49359 1.25,-0.17901 0,0.31457 -2.48219,1.74722 -5.51598,3.18365 -8.78649,4.16021 -14.93292,12.88701 -12.63252,17.93585 0.65817,1.44453 2.03021,2.84438 3.04898,3.1108 1.55698,0.40716 1.93187,1.78631 2.3513,8.65008 0.27444,4.49113 0.13344,8.84069 -0.31334,9.66569 -0.55138,1.01817 0.0353,2.3883 1.82643,4.26536 l 2.63875,2.76536 -3.20181,-0.64036 C 279.40408,272.83082 279,273.01782 279,274.87212 c 0,1.16716 -1.58724,3.87901 -3.52721,6.02632 -3.346,3.70362 -3.47864,4.12034 -2.58189,8.11152 l 0.94532,4.20731 -2.99214,-2.85863 -2.99215,-2.85864 -1.99873,2.73539 c -1.0993,1.50447 -3.87849,3.56884 -6.17597,4.58749 -3.84185,1.70339 -7.76744,5.00736 -6.29967,5.30212 0.34234,0.0688 1.07244,0.2375 1.62244,0.375 0.55,0.1375 1.47829,0.30625 2.06286,0.375 0.58457,0.0688 0.92207,0.95678 0.75,1.9734 -0.45049,2.66155 1.78884,6.30681 5.46837,8.9016 3.95735,2.79071 4.03438,2.78878 7.23918,-0.18134 z m -82.94042,-9.41467 c 2.70601,-2.66531 5.59501,-5.07871 6.42001,-5.3631 0.825,-0.28439 1.18117,-0.86002 0.79149,-1.27916 -0.38968,-0.41915 -2.63968,-0.027 -5,0.87154 l -4.29149,1.63362 4.5,-4.00574 c 2.475,-2.20316 4.0275,-4.00696 3.45,-4.00845 -0.5775,-10e-4 -1.49204,0.43934 -2.03232,0.97962 -0.54027,0.54027 -3.17102,1.64102 -5.8461,2.4461 -5.70763,1.71774 -4.97608,0.73013 1.42842,-1.92842 6.03333,-2.50448 6.99948,-3.49354 3.45,-3.5318 -2.86941,-0.0309 -2.89536,-0.0752 -0.95,-1.6217 1.89832,-1.50907 1.82207,-1.55098 -1.5,-0.82429 -1.925,0.42108 -5.075,0.84866 -7,0.95018 -3.66238,0.19313 -6.96415,1.71408 -10.75,4.95192 -2.24959,1.92397 -3.03548,6.80443 -1.48469,9.22012 0.90685,1.41262 10.15336,6.10538 12.31468,6.24991 0.869,0.0581 3.794,-2.07505 6.5,-4.74035 z m 135.0985,0.84881 c 7.2413,-3.61853 9.08898,-6.61799 6.80153,-11.04143 C 327.62158,288.36753 321.33779,285 316.49018,285 c -1.97423,0 -4.95897,-0.70818 -6.63277,-1.57374 -1.6738,-0.86555 -3.33895,-1.25394 -3.70034,-0.86309 -0.36139,0.39085 -0.15838,0.89026 0.45112,1.1098 0.6095,0.21954 1.9595,1.04343 3,1.83087 1.70081,1.28716 1.53911,1.334 -1.60159,0.46393 -4.26748,-1.18221 -4.0066,-1.18703 -4.0066,0.074 0,0.57301 2.925,2.35419 6.5,3.95818 3.575,1.60399 6.5,3.10754 6.5,3.34121 0,0.58462 -7.60064,-2.08333 -11.12027,-3.90341 -4.14636,-2.14416 -3.50015,-0.43175 1.12955,2.99323 4.53939,3.35817 4.60773,4.45652 0.13331,2.14271 -6.67077,-3.44959 -6.51268,-1.53915 0.40373,4.87871 3.82452,3.54884 7.4443,6.47384 8.04396,6.5 0.59965,0.0261 3.78934,-1.30119 7.08821,-2.94965 z m -157.30434,1.12028 c 1.6963,-0.66647 1.5704,-0.99195 -1.32672,-3.42972 -1.76048,-1.48135 -3.95385,-2.72499 -4.87416,-2.76365 -1.36068,-0.0571 -1.29964,-0.24597 0.32673,-1.01074 1.49647,-0.70368 0.99294,-0.82009 -2,-0.46236 -2.2,0.26295 -3.4375,0.23029 -2.75,-0.0726 0.6875,-0.30288 1.25,-0.97474 1.25,-1.49303 0,-0.51829 -1.37741,-0.23007 -3.06091,0.64051 -2.43186,1.25756 -2.99701,2.13148 -2.75,4.2525 0.19223,1.65057 1.26524,3.15004 2.81091,3.92809 2.71641,1.36736 9.37695,1.58858 12.37415,0.41099 z m 181.45003,-1.99326 c 0.79066,-0.50129 1.19357,-2.1806 1,-4.16798 C 347.5559,295.2073 346.89652,294.4002 344,293.2809 l -3.5,-1.35249 2.5,2.09848 c 2.42308,2.03391 2.43077,2.07909 0.25,1.46841 -1.32156,-0.37008 -2.25,-0.18963 -2.25,0.43731 0,0.58707 -0.87223,1.06739 -1.93828,1.06739 -1.06606,0 -3.41634,1.35 -5.22286,3 l -3.28458,3 7.47286,-0.0153 c 4.11007,-0.008 8.06874,-0.39311 8.79704,-0.85487 z m -7.09501,-7.73399 c -0.33229,-0.33229 -1.1948,-0.36781 -1.91667,-0.0789 -0.79773,0.31922 -0.56078,0.55618 0.60417,0.60416 1.05416,0.0434 1.64479,-0.19293 1.3125,-0.52522 z m -180.92185,-6.77458 c 1.23468,-1.23468 1.17002,-1.56301 -0.48193,-2.44711 -1.04937,-0.5616 -3.46437,-3.30466 -5.36666,-6.09568 C 149.1644,273.51148 148.82132,273.30545 147,275.5 c -0.68469,0.825 -2.20229,1.54486 -3.37244,1.59968 -1.90108,0.0891 -1.86144,0.18087 0.37244,0.86235 2.34292,0.71475 2.37434,0.80877 0.5,1.49626 -1.1,0.40347 -2.675,1.00735 -3.5,1.34197 -0.825,0.33461 0.975,0.85394 4,1.15406 6.01719,0.59699 5.61466,1.59311 -1.23464,3.0553 -3.99708,0.85329 -3.86487,0.89281 2.10185,0.62819 5.45285,-0.24183 6.11002,-0.0943 4.57626,1.02718 -0.98501,0.72026 -3.28776,1.59037 -5.1172,1.93358 -4.04514,0.75887 -4.25419,1.91422 -0.57627,3.18473 2.99217,1.03362 11.33041,-1.43513 14.05732,-4.16205 z m 198.1339,0.94957 c 0.98926,-1.19198 0.43405,-1.54196 -3.34533,-2.10871 -2.4923,-0.37374 -5.07453,-1.33391 -5.7383,-2.1337 -1.01109,-1.2183 -0.81356,-1.37356 1.21778,-0.95717 6.33479,1.29852 8.97857,1.52505 8.48539,0.72707 -0.29627,-0.47937 -2.16462,-1.17661 -4.1519,-1.54943 -4.54535,-0.85271 -3.68299,-1.78793 2.38317,-2.58448 4.68482,-0.61517 4.4277,-1.12127 -1.29203,-2.54311 l -3,-0.74576 2.7326,-0.58777 2.73261,-0.58776 -3.94492,-2.14628 -3.94492,-2.14628 -3.04911,4.75163 c -1.67701,2.6134 -3.94397,5.56147 -5.03769,6.55127 -2.75123,2.48984 -2.53578,3.153 1.76143,5.42157 4.46922,2.35939 12.46461,2.71935 14.19122,0.63891 z M 182.0032,282.99837 c 2.19824,-1.12146 3.9968,-2.44773 3.9968,-2.94727 0,-0.49953 0.7875,-1.70271 1.75,-2.67372 1.66765,-1.68239 1.65801,-1.73059 -0.20479,-1.02423 -1.07513,0.40769 -4.00013,0.97272 -6.5,1.25562 l -4.54521,0.51437 5,-2.55243 c 4.15746,-2.12232 4.57873,-2.5676 2.5,-2.64251 -2.22394,-0.0802 -2.07777,-0.28706 1.32378,-1.87385 4.00437,-1.86799 3.28714,-3.05435 -1.84655,-3.05435 -1.29756,0 -2.63731,-0.45 -2.97723,-1 -0.33992,-0.55 0.15852,-1 1.10765,-1 2.95215,0 0.95995,-0.94154 -4.18392,-1.97739 -2.70805,-0.54533 -7.76061,-1.60228 -11.2279,-2.34876 -6.04842,-1.30219 -6.36484,-1.27239 -7.79949,0.73445 -1.37718,1.92645 -1.59437,1.95959 -2.74917,0.41951 C 154.49106,261.28599 127,247.60143 127,248.56776 c 0,0.23571 2.1375,1.80718 4.75,3.49216 4.76175,3.07117 2.77275,3.22529 -3.09293,0.23966 -2.87686,-1.46432 -4.34876,-1.22777 -3.2656,0.52482 0.32546,0.5266 4.30802,2.72962 8.85014,4.89559 4.54211,2.16598 9.38339,4.47451 10.75839,5.13008 2.26917,1.0819 2.09641,1.15113 -1.87108,0.74986 -6.88164,-0.69602 -3.47104,1.35005 5.41099,3.24612 l 7.74781,1.65395 1.22414,4.16025 c 3.5971,12.22478 13.00718,16.1969 24.49134,10.33812 z m 151.29102,-1.6736 c 3.42126,-1.74094 6.37439,-6.40381 7.21796,-11.39685 l 0.63181,-3.73968 8.92801,-2.20603 c 9.35225,-2.31086 11.7381,-3.62246 4.92777,-2.70901 -2.27344,0.30494 -3.75881,0.14594 -3.44098,-0.36833 0.30758,-0.49768 1.15558,-0.90487 1.88443,-0.90487 2.0514,0 16.698,-7.63849 20.05678,-10.46001 l 3,-2.52012 -7,2.57478 c -7.87229,2.89564 -7.90109,2.71452 -0.35353,-2.22345 7.09147,-4.63958 5.72652,-4.14846 -11.47502,4.1288 -8.85031,4.25871 -14.90125,7.77519 -15.45132,8.97947 -0.88232,1.9317 -0.93294,1.92566 -2.09732,-0.25 -0.87015,-1.62589 -2.06352,-2.21084 -4.40799,-2.16067 -4.60724,0.0986 -21.50572,4.49284 -19.71482,5.12658 2.32272,0.82195 0.58836,1.91602 -4.01641,2.53365 l -4.18159,0.56087 3.849,1.82112 c 2.11695,1.00161 3.0615,1.83639 2.099,1.85505 -3.06056,0.0593 -1.89148,1.75644 2.5,3.62911 3.97099,1.69337 4.07623,1.8355 1.60305,2.16506 -1.45582,0.19399 -4.25329,-0.31846 -6.21659,-1.13878 l -3.56965,-1.49149 2.21659,3.40792 c 2.41748,3.71677 4.84221,5.03188 11.7166,6.35478 4.85324,0.93395 6.9495,0.64294 11.29422,-1.5679 z m -158.18945,-23.9022 c -6.20682,-1.94837 -6.44777,-2.79991 -0.60477,-2.1374 4.86418,0.55153 4.91851,0.52941 2,-0.81402 l -3,-1.38094 3.33333,-0.0451 c 6.69084,-0.0905 2.43366,-2.19642 -5.35674,-2.64981 -7.27634,-0.42347 -8.55931,-0.8343 -14.61442,-4.67976 -11.27633,-7.16134 -19.98078,-13.89156 -28.40883,-21.96553 -4.44944,-4.2625 -8.41956,-7.75 -8.8225,-7.75 -0.40294,0 0.50329,1.6875 2.01385,3.75 l 2.74647,3.75 -3.98774,-3.75 c -2.19326,-2.0625 -4.30627,-3.75 -4.69558,-3.75 -1.83393,0 -0.22789,2.82952 5.04216,8.88325 4.09099,4.69934 4.93153,6.07877 2.91324,4.781 -1.56022,-1.00323 -2.98833,-1.67249 -3.17358,-1.48724 -0.18525,0.18525 2.13646,3.38243 5.15936,7.10484 7.18233,8.84437 18.23045,16.71815 23.45812,16.71815 2.1298,0 4.14419,0.59382 4.59317,1.35402 1.90418,3.22411 10.12444,5.36709 20.79969,5.42236 l 5,0.0259 z M 126.43709,226.75 123.5,223.5 l 3.25,2.93709 c 3.02946,2.73778 3.70965,3.56291 2.93709,3.56291 -0.1721,0 -1.6346,-1.4625 -3.25,-3.25 z m 213.4655,26.6723 c 2.16869,-0.86774 4.18867,-2.21774 4.48885,-3 0.32455,-0.84576 1.93092,-1.4223 3.96287,-1.4223 1.87939,0 4.48475,-0.5625 5.78968,-1.25 6.02853,-3.17611 14.8751,-10.24868 17.64661,-14.10795 1.67995,-2.33929 4.52474,-5.69073 6.32176,-7.44765 3.64316,-3.56186 2.61599,-4.34176 -1.4775,-1.12182 -4.25007,3.34311 -3.0464,1.13925 2.86514,-5.24592 8.30305,-8.96829 6.88371,-10.77417 -1.63216,-2.07666 -3.90422,3.9875 -7.26984,7.25 -7.47915,7.25 -0.20932,0 1.8676,-2.78996 4.61537,-6.1999 2.74777,-3.40995 4.99594,-6.65945 4.99594,-7.22112 0,-0.56166 -2.8125,1.70418 -6.25,5.0352 -6.68855,6.48138 -23.12439,19.85231 -31.12924,25.32434 -3.60036,2.46117 -6.93129,3.6915 -12.70833,4.69403 -4.30601,0.74725 -8.63535,1.24812 -9.62077,1.11304 -3.2762,-0.44908 -2.42689,1.74378 0.91899,2.37277 1.80914,0.3401 2.38935,0.68449 1.28935,0.76531 -1.1,0.0808 -2.675,0.57857 -3.5,1.10611 -1.00204,0.64074 0.32584,0.75513 4,0.34457 6.61293,-0.73893 5.91073,0.80438 -0.79203,1.74073 -3.78812,0.52919 -2.90464,0.6838 4.52179,0.79131 6.34556,0.0919 10.46194,-0.35941 13.17283,-1.44409 z M 181.8276,245.25 c -0.18648,-0.4125 -1.60912,-3.16688 -3.16141,-6.12084 -2.74323,-5.22028 -2.84051,-6.3508 -1.06224,-12.34472 0.47116,-1.58813 0.0981,-1.57421 -5.02222,0.18744 -4.14104,1.42473 -6.3273,1.67468 -8.69883,0.99454 -1.7422,-0.49966 -3.62311,-0.62698 -4.17978,-0.28294 -0.57628,0.35616 -0.70487,0.12837 -0.29861,-0.52897 0.39244,-0.63498 1.69947,-1.17481 2.90451,-1.19961 1.20504,-0.0248 3.54098,-0.66326 5.19098,-1.41879 2.9044,-1.3299 2.78388,-1.37626 -3.78212,-1.45489 -3.73016,-0.0447 -8.34266,-0.73326 -10.25,-1.53019 -3.70876,-1.54962 -4.58894,-2.58434 -1.71788,-2.01951 0.9625,0.18936 4,0.56891 6.75,0.84345 l 5,0.49916 -5,-1.81323 c -16.25668,-5.89543 -14.66136,-5.55561 -16.23419,-3.45801 -1.32145,1.76236 -1.40086,1.67514 -1.11795,-1.22787 0.1675,-1.71874 -0.30235,-3.85624 -1.0441,-4.75 C 139.362,208.73126 139.06974,208 139.45428,208 c 0.38454,0 -0.60085,-1.09389 -2.18976,-2.43088 -1.58892,-1.33698 -5.53876,-5.61198 -8.77744,-9.5 -6.43691,-7.72747 -8.88187,-9.20598 -5.48873,-3.31912 l 2.16147,3.75 -4.0772,-4.5 c -2.24247,-2.475 -4.07843,-3.88809 -4.07992,-3.14021 -0.001,0.74789 2.25593,3.83109 5.01647,6.85157 2.76055,3.02047 5.49271,6.45857 6.07149,7.6402 0.57877,1.18164 -2.11123,-1.20768 -5.97779,-5.30961 -3.86655,-4.10193 -7.32774,-7.16042 -7.69152,-6.79663 -1.58897,1.58897 0.9386,8.0949 4.87816,12.5563 2.31027,2.61629 6.79882,8.16393 9.97457,12.32809 5.14424,6.74533 8.87159,9.87029 11.77297,9.87029 1.5357,0 1.1046,-1.97829 -1.10834,-5.08608 l -2.0613,-2.89482 2.2729,0.8408 c 1.76886,0.65434 2.6489,2.33066 3.96839,7.55904 0.93251,3.69504 2.48296,7.58841 3.44544,8.65194 2.8575,3.15749 10.5196,6.97615 16.93586,8.44053 9.10922,2.07899 17.87931,2.95895 17.3276,1.73859 z M 332,240.09658 c 10.57646,-2.58788 12.44765,-3.4916 17.32198,-8.36593 3.53192,-3.53192 4.55226,-5.42585 5.61104,-10.41502 1.01234,-4.77038 1.81369,-6.33482 3.68054,-7.18542 3.04397,-1.38692 3.00131,-0.8029 -0.25301,3.46373 -5.68505,7.45349 2.58692,4.68386 8.87227,-2.97062 2.31381,-2.81783 6.20381,-7.37332 8.64446,-10.12332 8.3201,-9.37469 12.10436,-17.15725 9.21192,-18.94487 -0.50094,-0.3096 -3.24649,2.37238 -6.10121,5.95996 -4.56564,5.73772 -8.98799,9.66436 -8.98799,7.98051 0,-0.31612 2.925,-3.68914 6.5,-7.4956 7.13335,-7.59519 9.34096,-13.04738 2.81253,-6.94617 -3.53469,3.30338 -3.61344,3.3274 -1.90065,0.57972 3.29407,-5.28438 -0.64054,-2.3086 -7.08461,5.35816 -3.395,4.03916 -7.33911,8.05165 -8.76468,8.91664 -1.42558,0.86499 -2.38001,2.12506 -2.12095,2.80015 0.25906,0.6751 0.0407,1.49342 -0.48531,1.81849 C 358.43035,204.85207 358,206.63992 358,208.5 c 0,1.86008 -0.45,3.66008 -1,4 -0.55,0.33992 -1,-0.30852 -1,-1.44098 0,-2.14527 -2.74789,-2.85371 -4.55,-1.17304 -0.5225,0.48728 -4.325,2.09094 -8.45,3.56368 l -7.5,2.67771 7,-0.47977 c 6.69106,-0.45859 6.84553,-0.42062 3.5,0.86024 -1.925,0.737 -5.75,1.42748 -8.5,1.5344 -2.75,0.10691 -6.35,0.48866 -8,0.84833 -2.75515,0.60056 -2.5103,0.76797 3,2.05116 l 6,1.39723 -3.3632,1.00764 c -3.19824,0.95823 -4.62051,0.75377 -14.33463,-2.06067 -1.50632,-0.43642 -1.58097,-0.0687 -0.66181,3.26026 1.22671,4.44277 -0.29884,11.17342 -3.25068,14.34185 -1.03932,1.11558 -1.88968,2.27215 -1.88968,2.57015 0,1.17039 9.88896,0.37833 17,-1.36161 z m -150.3151,-21.244 c 1.54831,-0.63108 4.5412,-1.41858 6.65087,-1.75 l 3.83576,-0.60258 -8.33576,-5.45583 C 179.2511,208.04347 172.8,203.05933 169.5,199.96831 c -3.3,-3.09103 -8.7,-7.72064 -12,-10.28803 -3.3,-2.56739 -7.37434,-5.78544 -9.05409,-7.15121 -1.67975,-1.36577 -4.15475,-2.60604 -5.5,-2.75615 -2.32978,-0.25996 -2.45986,0.0165 -2.73962,5.82274 -0.36736,7.62419 2.63455,16.21448 7.44744,21.31165 1.86578,1.97598 3.26946,2.91769 3.11929,2.09269 -0.20682,-1.13628 0.81814,-1.53273 4.22698,-1.63497 2.475,-0.0742 3.2625,0.0682 1.75,0.31643 -1.5125,0.24826 -2.75,0.8511 -2.75,1.33965 0,0.92356 3.65112,1.72481 10.5,2.30426 3.92031,0.33168 3.90654,0.34177 -0.69098,0.50653 -5.68313,0.20365 -6.83152,1.50192 -2.80415,3.17012 3.05891,1.26704 3.64535,1.20182 12.92235,-1.43709 2.98498,-0.8491 5.61754,-1.3535 5.85014,-1.1209 1.17677,1.17677 -1.3886,2.56817 -5.81846,3.15581 -2.72739,0.3618 -4.9589,0.95985 -4.9589,1.32899 0,2.96349 7.38587,4.08361 12.6849,1.92375 z m 145.09259,-4.40928 c 3.16579,-2.21741 2.75185,-3.4433 -1.16268,-3.4433 -1.86185,0 -4.89935,-0.65739 -6.75,-1.46086 l -3.36481,-1.46086 5,-0.007 c 2.85895,-0.004 5.83121,0.62135 6.94113,1.46085 1.06762,0.80751 3.13797,1.4682 4.60078,1.4682 3.35892,0 8.95809,-1.91665 8.95809,-3.06644 0,-0.47893 -0.5625,-0.65981 -1.25,-0.40194 -0.6875,0.25787 -3.275,0.10324 -5.75,-0.34362 l -4.5,-0.81248 7.25,-0.74831 c 7.0109,-0.72364 8.95439,-1.75919 5.66821,-3.02022 C 341.54823,202.27314 339.89823,202 338.75155,202 c -1.14669,0 -1.84848,-0.23641 -1.55954,-0.52535 0.88102,-0.88101 11.79735,0.73356 11.22466,1.66017 -0.29409,0.47585 -0.0811,0.86518 0.47342,0.86518 1.57466,0 5.55937,-5.96142 7.94303,-11.88335 C 358.2689,188.54962 359,184.57462 359,180.33526 c 0,-7.60506 -1.21384,-8.58667 -6.65113,-5.37859 -3.75544,2.21576 -5.20335,3.39811 -23.34887,19.06636 -5.775,4.98658 -11.85,9.73383 -13.5,10.54943 -1.65,0.8156 -4.575,2.80835 -6.5,4.42833 -3.44405,2.89832 -3.46003,2.94708 -1,3.04981 1.375,0.0574 4.75,0.93465 7.5,1.9494 6.27587,2.31579 8.48042,2.40244 11.27749,0.4433 z M 136.83128,187.35111 c -0.55413,-2.00689 -0.78932,-4.79029 -0.52264,-6.18532 0.39557,-2.0693 -0.83135,-3.97556 -6.66189,-10.35057 -3.93071,-4.29778 -7.48425,-7.81439 -7.89675,-7.81468 -1.60052,-0.001 -0.62576,2.99518 2,6.14783 l 2.75,3.30183 -3.25,-2.2932 c -2.26558,-1.59859 -3.28488,-1.89394 -3.36515,-0.97509 -0.31133,3.56355 0.46971,5.54922 3.16794,8.05399 3.41883,3.17371 3.80203,4.29196 0.94721,2.7641 -1.2955,-0.69333 -2,-0.71655 -2,-0.0659 0,0.55245 2.3625,2.51879 5.25,4.36964 2.8875,1.85086 5.8676,4.11469 6.62244,5.03073 2.55356,3.09889 4.07966,2.07592 2.95884,-1.98335 z M 374.55648,177 c 0.75524,0 1.87761,-0.94258 2.49416,-2.09463 1.01877,-1.90358 0.90797,-2.03287 -1.21481,-1.41755 -2.17868,0.63152 -2.14662,0.51977 0.47655,-1.66098 2.04886,-1.70331 2.97089,-3.5582 3.39627,-6.83244 0.56267,-4.33093 0.51493,-4.43628 -1.31237,-2.8965 -3.93137,3.31276 -4.80303,3.17809 -2.14628,-0.33159 4.61351,-6.09464 2.92032,-8.27106 -1.99229,-2.56087 -1.51674,1.76299 -4.72917,5.36019 -7.13873,7.99377 -4.224,4.61672 -4.38781,5.03619 -4.57042,11.70322 l -0.18939,6.91488 5.41208,-4.40866 C 370.7479,178.98389 373.80125,177 374.55648,177 Z m -237.03301,-8.75 c -1.37811,-2.0625 -3.64224,-5.8875 -5.03141,-8.5 -1.38916,-2.6125 -2.64256,-4.75 -2.78533,-4.75 -0.14277,0 -0.0912,1.9125 0.11458,4.25 0.29491,3.34983 1.24478,5.15017 4.48463,8.5 5.0811,5.25357 6.54582,5.48118 3.21753,0.5 z m 227.65532,-7 c 2.79336,-2.92219 3.69359,-4.79455 4.07806,-8.48183 0.54983,-5.27321 -0.31855,-5.47434 -2.32977,-0.53963 -0.73333,1.7993 -2.59193,5.02648 -4.13021,7.1715 -4.74465,6.61607 -3.26937,7.76187 2.38192,1.84996 z"
       id="path1"
       sodipodi:nodetypes="sssssssssssssssssssscsssssssssssssssssssssssssssssssssssssssscssssssssscsssssssssssssssssssssssssssssssssssssssssssssssssssscssscccssssscssscsssssssssscsssssssssssssssssssssssssssssssssssssssssssscssscccssssssssssssssssssssscsscsscssssscsssssscsssssssssssssscsssscsscsscsssssssssssssssscsssscccsssssssssssccscsssssssssssssssssssssssssssssssssssssssssssscsssssccsssssssssssssssssssssssssssssscccccssssssssscsssssssssssssssssscsssscssssscsssssssscssssscsssssscsssssscssssssssscsscssssssssssssssssssssssssssssssssssssssscsssssssscscsssssssscssssssssssssssssssssssssssscssssscsssssssscsssssssssssssssssssssscsssssscscsssssssssssssssscscssssssssssssssssssscsssssssssssss" /></g></svg>
