<?xml version="1.0" encoding="UTF-8" standalone="no"?>
<!-- Created with Inkscape (http://www.inkscape.org/) -->

<svg
   width="500"
   height="500"
   viewBox="0 0 500 500"
   version="1.1"
   id="svg1"
   xml:space="preserve"
   inkscape:version="1.4.2 (f4327f4, 2025-05-13)"
   sodipodi:docname="Vysetrovatel.svg"
   xmlns:inkscape="http://www.inkscape.org/namespaces/inkscape"
   xmlns:sodipodi="http://sodipodi.sourceforge.net/DTD/sodipodi-0.dtd"
   xmlns="http://www.w3.org/2000/svg"
   xmlns:svg="http://www.w3.org/2000/svg"><sodipodi:namedview
     id="namedview1"
     pagecolor="#ffffff"
     bordercolor="#000000"
     borderopacity="0.25"
     inkscape:showpageshadow="2"
     inkscape:pageopacity="0.0"
     inkscape:pagecheckerboard="0"
     inkscape:deskcolor="#d1d1d1"
     inkscape:document-units="px"
     inkscape:zoom="1.1808131"
     inkscape:cx="209.1779"
     inkscape:cy="294.28874"
     inkscape:window-width="1920"
     inkscape:window-height="1057"
     inkscape:window-x="-8"
     inkscape:window-y="-8"
     inkscape:window-maximized="1"
     inkscape:current-layer="layer1" /><defs
     id="defs1" /><g
     inkscape:label="Layer 1"
     inkscape:groupmode="layer"
     id="layer1"><path
       style="fill:#000000"
       d="m 357.93142,318.53705 c -4.5826,-0.83228 -13.19943,-4.33177 -28.5,-11.57448 -12.06228,-5.70983 -24.01461,-11.64243 -26.56073,-13.18356 -2.54613,-1.54112 -9.97113,-5.24148 -16.5,-8.22301 -6.52888,-2.98153 -14.79443,-6.85176 -18.3679,-8.60051 -3.57346,-1.74876 -8.52346,-3.98806 -11,-4.97623 -2.47653,-0.98818 -9.28394,-4.03963 -15.12756,-6.78101 -5.84362,-2.74138 -12.12568,-5.31398 -13.96012,-5.7169 -1.83444,-0.40291 -5.2658,-1.56005 -7.62523,-2.57142 -4.27315,-1.83169 -4.81183,-1.60458 -4.36453,1.84007 0.27284,2.10105 -1.66509,1.39632 -3.87062,-1.40755 l -2.09042,-2.65755 -2.48216,2.33187 C 206.11697,258.29929 205,260.19674 205,261.23333 c 0,1.05328 -0.45998,1.60042 -1.0427,1.24028 -0.57349,-0.35443 -3.16099,1.37297 -5.75,3.83867 -10.71826,10.20776 -15.03374,13.58888 -21.2073,16.61562 -3.575,1.75273 -7.6919,3.78887 -9.14866,4.52477 -2.90234,1.46614 -13.97712,0.70145 -19.10134,-1.31891 -1.5125,-0.59634 -2.75,-0.90192 -2.75,-0.67906 0,0.22285 -2.69106,-0.68829 -5.98013,-2.02476 C 136.7308,282.09347 132.43787,281 130.48003,281 118.70704,281 103.86836,262.13483 102.36032,245.25 102.00419,241.2625 101.32742,238 100.8564,238 100.38538,238 100,235.3 100,232 c 0,-3.3 0.35768,-6 0.79485,-6 0.43717,0 1.28496,-5.5125 1.88398,-12.25 0.85698,-9.63908 1.72394,-13.78037 4.0676,-19.43026 5.05227,-12.17957 13.77405,-23.04607 29.25357,-36.44712 16.09317,-13.9323 25.6383,-18.2721 39.73569,-18.06626 10.69159,0.15611 14.63253,1.28284 21.62879,6.18374 3.14838,2.20544 6.13853,4.0099 6.64477,4.0099 1.41233,0 18.80063,10.7379 21.48032,13.26487 1.63661,1.54333 2.73812,4.24695 3.55888,8.73513 1.493,8.16422 1.30122,38.87374 -0.25446,40.74823 -0.81489,0.98188 -0.80205,1.64371 0.0484,2.49415 C 229.47907,215.87907 230,217.21 230,218.2 c 0,0.99 0.64468,1.8 1.43261,1.8 0.78794,0 1.71536,0.89086 2.06094,1.97969 0.34558,1.08882 1.14239,1.87632 1.77068,1.75 0.6283,-0.12633 1.16338,0.63189 1.18906,1.68494 0.0284,1.16559 0.82914,1.98922 2.04671,2.10531 1.1,0.10489 4.475,0.91698 7.5,1.80465 3.025,0.88768 7.075,1.87605 9,2.19638 1.925,0.32033 5.8004,1.24804 8.612,2.06157 2.81161,0.81353 6.18661,1.67855 7.5,1.92227 1.3134,0.24372 5.313,1.16345 8.888,2.04384 16.15498,3.97837 21.93622,5.43283 28,7.04429 3.575,0.95007 8.3,2.05455 10.5,2.45441 2.2,0.39986 9.4,2.14382 16,3.87548 6.6,1.73166 13.53761,3.39712 15.41691,3.70103 1.87929,0.30391 4.50456,0.96608 5.83391,1.4715 1.32936,0.50542 2.78822,0.68953 3.24192,0.40913 1.03777,-0.64138 13.17658,2.37492 14.45726,3.5924 0.5225,0.49671 1.77346,0.90311 2.77992,0.90311 1.00645,0 3.97515,2.1375 6.59709,4.75 3.54341,3.53064 5.22434,6.24793 6.54802,10.58514 1.58028,5.17797 1.61323,6.02264 0.29256,7.5 -0.81856,0.91567 -2.25446,4.36486 -3.19089,7.66486 -3.57889,12.6121 -11.59388,24.5 -16.51824,24.5 -1.03845,0 -2.36976,0.9 -2.95846,2 -0.5887,1.1 -1.39203,1.93926 -1.78518,1.86502 -0.39315,-0.0742 -3.67068,-0.67183 -7.2834,-1.32797 z m 9.81858,-7.69656 c 1.7875,-1.10199 3.25,-2.11648 3.25,-2.25444 0,-0.13796 -2.23439,-0.11717 -4.96531,0.0462 -4.12041,0.24647 -5.48171,-0.1375 -8,-2.25651 -2.68602,-2.26013 -3.03426,-2.34224 -3.03095,-0.71462 0.002,1.01139 0.92205,3.34515 2.04444,5.18614 1.75369,2.87648 2.42124,3.25229 4.74626,2.67205 1.48806,-0.37136 4.16806,-1.57683 5.95556,-2.67881 z m -17.97855,-6.50328 c -1.70542,-2.89047 -2.1395,-5.15718 -2.05866,-10.75 l 0.10245,-7.08721 -0.95878,5.5 c -1.17383,6.73368 -0.50097,10.68505 2.33324,13.70193 2.97665,3.16849 3.09399,2.89321 0.58175,-1.36472 z M 366.64679,300.75 c 3.77274,-4.03452 7.78961,-10.64694 6.96728,-11.46927 -0.72286,-0.72285 -0.44859,-1.02572 -4.50006,4.96927 -1.76555,2.6125 -3.92597,4.75 -4.80094,4.75 -1.3398,0 -1.50418,-0.95575 -1.04166,-6.05651 0.6367,-7.02164 4.29408,-15.19496 8.67947,-19.39643 2.77337,-2.65706 3.30415,-2.80435 6.53385,-1.81313 4.08234,1.25291 4.82793,-0.23602 1.58693,-3.16908 -2.57461,-2.32999 -5.00189,-1.42677 -10.0232,3.72975 -6.12566,6.29062 -7.87455,10.72403 -8.66097,21.9554 -0.78103,11.15445 0.002,12.12214 5.2593,6.5 z m -15.63578,-7.5 c 0.006,-0.9625 0.29474,-3.55 0.64154,-5.75 0.34679,-2.2 0.32371,-3.71937 -0.0513,-3.37638 C 350.52384,285.10906 349.20347,295 350.14934,295 c 0.46787,0 0.85561,-0.7875 0.86167,-1.75 z m -5.62325,-8.4982 c 0.77848,-2.6115 1.02637,-4.50774 0.55086,-4.21386 -0.98016,0.60577 -2.96537,7.18724 -2.8541,9.46206 0.088,1.79864 0.44532,0.98441 2.30324,-5.2482 z m -176.90588,0.27752 c 0.32995,-0.53388 -0.43099,-1.17187 -1.69098,-1.41776 -1.26,-0.24589 -5.5534,-1.10622 -9.5409,-1.91184 -3.9875,-0.80562 -7.25,-1.06763 -7.25,-0.58224 0,0.48539 0.3375,0.93383 0.75,0.99654 0.4125,0.0627 1.875,0.25673 3.25,0.43114 1.375,0.17442 4.075,1.0055 6,1.84684 4.04093,1.76614 7.61811,2.03492 8.48188,0.63732 z m 173.23822,-1.68823 c 0.21427,-0.64356 -1.08293,-1.47531 -2.91713,-1.87044 -1.81663,-0.39134 -4.58448,-1.36664 -6.15076,-2.16734 -1.56629,-0.8007 -3.59129,-1.61527 -4.5,-1.81015 -0.90872,-0.19489 -9.75221,-3.5596 -19.65221,-7.47713 -9.9,-3.91753 -22.15756,-8.69072 -27.23903,-10.6071 -5.08146,-1.91638 -12.39396,-4.76824 -16.25,-6.33747 C 261.15494,251.50224 258,250.52055 258,250.88993 c 0,0.36938 1.2375,1.17786 2.75,1.79663 1.5125,0.61876 10.625,4.59047 20.25,8.82601 15.83269,6.96727 29.52454,12.36974 40.5,15.98031 2.2,0.72373 6.925,2.68097 10.5,4.34943 6.71439,3.13362 9.05563,3.49463 9.7201,1.49878 z M 173,281.61663 c 0,-0.21085 -0.9,-0.61872 -2,-0.90638 -1.1,-0.28766 -2,-0.11514 -2,0.38337 0,0.49851 0.9,0.90638 2,0.90638 1.1,0 2,-0.17252 2,-0.38337 z m 169.97617,-6.14534 c -1.35042,-1.62716 -8.10554,-4.17774 -24.97617,-9.43045 -7.425,-2.31179 -15.057,-4.87949 -16.95999,-5.706 -4.85954,-2.11062 -23.47367,-9.07049 -27.32953,-10.21859 -1.76577,-0.52577 -8.38548,-2.84471 -14.71048,-5.15321 -24.12815,-8.80631 -26,-9.32026 -26,-7.13874 0,0.38844 2.3625,1.54009 5.25,2.55922 2.8875,1.01913 10.425,3.87074 16.75,6.33692 16.43659,6.40879 36.89254,14.33607 48.5,18.79516 5.5,2.11287 16.525,6.4147 24.5,9.55963 13.90298,5.48262 14.53152,5.63465 15.26546,3.6925 0.43211,-1.14343 0.30613,-2.57901 -0.28929,-3.29644 z M 176,279 c 0,-0.55 -0.7875,-0.99311 -1.75,-0.98469 -1.49555,0.0131 -1.5319,0.15626 -0.25,0.98469 1.88721,1.21961 2,1.21961 2,0 z m -46.55,-1.89465 c -0.5225,-0.49205 -2.525,-1.18826 -4.45,-1.54712 -3.28664,-0.61269 -3.38167,-0.55816 -1.55887,0.89465 2.04154,1.62715 7.69581,2.24112 6.00887,0.65247 z M 178,275 c 0,-0.55 -0.19844,-1 -0.44098,-1 -0.24254,0 -0.7191,0.45 -1.05902,1 -0.33992,0.55 -0.14148,1 0.44098,1 0.58246,0 1.05902,-0.45 1.05902,-1 z m 6.78012,-3.17312 c 3.44851,-2.1313 3.4718,-2.18954 1.21029,-3.02613 -1.76702,-0.65366 -2.84605,-0.34554 -4.61733,1.31848 -1.27129,1.19432 -2.07375,2.55608 -1.78324,3.02613 0.761,1.23132 1.27648,1.10038 5.19028,-1.31848 z m 173.87331,-2.56411 c 1.89838,-2.07255 2.9221,-3.90426 2.29825,-4.11221 -1.165,-0.38833 -7.95168,5.62503 -7.95168,7.04561 0,1.83759 2.44576,0.56856 5.65343,-2.9334 z m -225.13866,1.0026 c -1.09188,-0.27644 -3.90438,-1.0802 -6.25,-1.78613 C 124.91915,267.77331 123,267.39842 123,267.64614 c 0,1.01216 6.70649,3.27029 9.5,3.19872 2.07975,-0.0533 2.39103,-0.23104 1.01477,-0.57949 z m -17.16709,-4.69635 c -1.56622,-1.96293 -3.23737,-3.56897 -3.71367,-3.56899 -0.47629,-2e-5 0.64871,1.72206 2.5,3.82684 4.18701,4.76031 5.06828,4.57308 1.21367,-0.25785 z m 32.21119,1.87581 c 1.83031,-1.46637 1.7984,-1.48719 -0.55887,-0.36454 -3.06103,1.45781 -3.62834,1.91971 -2.3578,1.91971 0.53655,0 1.84905,-0.69982 2.91667,-1.55517 z m 43.29789,-0.33514 c 1.53668,-0.97369 0.82682,-1.55059 -3.04547,-2.4751 -3.39996,-0.81174 -4.72268,1.06834 -1.62553,2.31048 2.95745,1.18612 3.05351,1.18951 4.671,0.16462 z m -44.09851,-3.48718 c 6.38818,-3.23714 18.73543,-15.47875 25.03133,-24.81718 9.27194,-13.75266 19.9197,-36.55717 24.65558,-52.80533 2.18957,-7.5121 2.17229,-19.77365 -0.0363,-25.76146 -3.4899,-9.46164 -7.32577,-11.70613 -19.90886,-11.64933 -7.86169,0.0355 -9.69563,0.39753 -14.5,2.86248 -10.09462,5.17919 -15.69233,9.30175 -25.78942,18.99318 -10.36948,9.95287 -12.59098,13.34947 -16.3166,24.94747 -6.89117,21.45248 -9.78593,39.66466 -7.96584,50.11643 1.24851,7.16944 3.80474,14.49123 5.05929,14.49123 0.42364,0 3.19694,1.4625 6.16288,3.25 4.78108,2.88144 6.14411,3.22941 12.01927,3.06848 4.83174,-0.13236 7.97066,-0.86259 11.58867,-2.69597 z M 146.67732,246.75 c 10.75593,-10.91044 17.15942,-19.74283 23.26174,-32.08515 6.66553,-13.48145 10.12308,-25.70037 10.36891,-36.64351 0.19078,-8.49265 0.16271,-8.59715 -4.30797,-16.03471 -2.475,-4.1175 -4.65437,-7.83703 -4.84304,-8.26562 -0.58335,-1.32516 8.15713,2.44324 11.64603,5.02111 4.47896,3.3094 8.276,12.01248 8.93736,20.48507 0.51848,6.64212 -0.56791,11.80114 -5.32197,25.27281 -1.599,4.53109 -14.29702,24.29502 -19.36394,30.13915 -5.16971,5.96267 -13.93007,13.14395 -20.65054,16.92819 -3.35285,1.88796 -6.49292,3.43266 -6.97792,3.43266 -0.485,0 2.7781,-3.7125 7.25134,-8.25 z m -23.20591,-1.79627 c -1.41151,-2.28386 -4.43734,-15.50114 -4.45427,-19.45691 -0.0234,-5.47578 2.95137,-15.32566 7.70042,-25.49682 3.37022,-7.21809 5.25385,-9.72794 12.48978,-16.64213 C 146.60951,176.28484 152,172.05205 152,173.31264 c 0,0.21066 -2.3625,2.86157 -5.25,5.89093 -2.8875,3.02935 -7.18318,7.80466 -9.54595,10.61178 C 131.81575,196.217 125,210.71487 125,215.77474 c 0,2.05615 -0.46503,5.31049 -1.03339,7.23186 -1.32117,4.46621 -1.33023,14.4905 -0.0171,18.92717 1.04866,3.54312 0.80326,5.09324 -0.47809,3.01996 z m 248.79762,21.39033 c -0.67703,-0.27392 -2.02703,-0.29059 -3,-0.0371 -0.97297,0.25354 -0.41903,0.47766 1.23097,0.49804 1.65,0.0204 2.44606,-0.18706 1.76903,-0.46099 z M 196.92315,262.5926 c 1.66761,-2.00935 -5.26115,-4.3869 -7.46185,-2.56048 -1.94228,1.61195 -1.84462,2.72106 0.2887,3.27855 3.49558,0.91349 6.0296,0.65982 7.17315,-0.71807 z M 369,262.61658 c 0,-0.21089 -1.125,-0.59848 -2.5,-0.86133 -1.375,-0.26285 -2.5,-0.0903 -2.5,0.38342 0,0.47373 1.125,0.86133 2.5,0.86133 1.375,0 2.5,-0.17254 2.5,-0.38342 z m -12.675,-2.0814 c 0.0962,-0.50314 -3.875,-2.11108 -8.825,-3.57318 -9.98485,-2.94927 -17.31944,-4.34874 -15.91369,-3.03641 1.03214,0.96357 10.12364,3.66209 15.41369,4.57506 1.925,0.33223 4.4,1.23041 5.5,1.99596 2.14753,1.49458 3.54378,1.50866 3.825,0.0386 z M 200,257.97525 c 0,-1.32355 -4.9435,-3.21091 -6.67245,-2.54745 -1.88254,0.7224 -1.64512,2.34256 0.42245,2.88287 3.26592,0.85348 6.25,0.69333 6.25,-0.33542 z M 177.12756,256.25 c 1.24387,-1.58606 1.2085,-1.62143 -0.37756,-0.37756 -0.9625,0.75485 -1.75,1.54235 -1.75,1.75 0,0.82304 0.82119,0.29331 2.12756,-1.37244 z m 25.83634,-2.18255 c 0.85681,-1.60097 0.53609,-2.2873 -1.86918,-4 C 197.93846,247.81999 197,247.54032 197,248.84719 c 0,0.46595 1.0125,1.35378 2.25,1.97296 2.13786,1.06968 2.10048,1.11467 -0.75,0.90282 -3.75796,-0.2793 -4.14919,2.3672 -0.5,3.38227 3.78023,1.05151 3.85399,1.03609 4.9639,-1.03779 z m -21.36889,-1.2091 c 1.89822,-2.13405 1.897,-2.13675 -0.34501,-0.75946 -1.2375,0.76021 -2.25,1.72396 -2.25,2.14166 0,1.20572 0.55693,0.90908 2.59501,-1.3822 z M 218,253.51342 c 0,-0.65148 -6.94503,-3.52616 -8.37212,-3.46539 -0.62034,0.0264 0.44712,0.87771 2.37212,1.89176 3.48966,1.83829 6,2.49668 6,1.57363 z m -39.65173,-5.17751 c 2.89791,-3.87693 0.94804,-4.1058 -2.32836,-0.27331 -1.61625,1.89057 -2.95692,3.77871 -2.97927,4.19587 -0.0665,1.24072 3.31767,-1.26031 5.30763,-3.92256 z m -68.91829,1.44349 c -0.38763,-1.22133 -1.06115,-5.60883 -1.49669,-9.75 l -0.79191,-7.5294 0.23889,8.53738 C 107.59795,248.81716 108.25008,252 109.6264,252 c 0.27961,0 0.19122,-0.99927 -0.19642,-2.2206 z m 95.67382,-6.0756 c -1.28349,-1.28349 -2.58505,-0.2915 -1.63484,1.24598 0.36808,0.59556 1.12735,0.79971 1.68727,0.45366 0.683,-0.42212 0.66575,-0.98146 -0.0524,-1.69964 z M 183.04498,241.25 c 0.76062,-1.5125 2.0961,-3.875 2.96774,-5.25 1.72824,-2.7263 4.12803,-8 3.64038,-8 -0.45307,0 -9.6531,14.65738 -9.6531,15.37919 0,1.60126 1.80299,0.34052 3.04498,-2.12919 z m 34.42657,-0.29603 c -1.35282,-2.18892 1.71782,-8.96022 5.55127,-12.24151 4.43908,-3.79969 5.04902,-5.71246 1.82157,-5.71246 -2.89106,0 -8.71503,4.55966 -10.02445,7.84827 -2.57657,6.47107 -2.71453,9.11215 -0.55498,10.62476 2.10004,1.47093 4.22399,1.12712 3.20659,-0.51906 z m -10.07854,-1.53576 c 0.82599,-2.15249 0.8384,-2.12443 -1.17254,-2.6503 -1.54666,-0.40447 -4.22047,1.25322 -4.22047,2.61656 0,0.40214 1.92785,1.09991 4.14301,1.49953 0.35366,0.0638 0.91616,-0.5958 1.25,-1.46579 z m 2.554,-9.69178 c 1.34585,-2.87454 2.62085,-5.56393 2.83333,-5.97643 0.21248,-0.4125 0.0113,-0.74443 -0.44701,-0.73762 -1.19861,0.0178 -4.88505,6.00451 -5.68825,9.23762 -1.10871,4.46285 0.66591,3.10656 3.30193,-2.52357 z M 225,232.87756 c 0,-1.77324 -0.2468,-1.91763 -1.5,-0.87756 -0.825,0.68469 -1.5,1.63979 -1.5,2.12244 0,0.48266 0.675,0.87756 1.5,0.87756 0.86218,0 1.5,-0.90249 1.5,-2.12244 z M 205,226.5 c 0.69443,-0.83674 0.80272,-1.5 0.24489,-1.5 -0.55,0 -1.5602,0.675 -2.24489,1.5 -0.69443,0.83674 -0.80272,1.5 -0.24489,1.5 0.55,0 1.5602,-0.675 2.24489,-1.5 z m 22,-9.61803 c 0,-0.55 -0.45,-0.72189 -1,-0.38197 -0.55,0.33992 -1,1.06803 -1,1.61803 0,0.55 0.45,0.72189 1,0.38197 0.55,-0.33992 1,-1.06803 1,-1.61803 z m -19.16667,-1.01415 c 0.18334,-0.4773 1.08334,-0.8815 2,-0.89823 1.42532,-0.026 1.44946,-0.15224 0.16667,-0.87177 -2.61349,-1.46593 -9,-2.27711 -9,-1.14313 0,0.57492 0.45,1.04531 1,1.04531 0.55,0 0.94671,0.3375 0.88158,0.75 -0.40765,2.58176 0.26142,3.34031 2.36842,2.6852 1.2375,-0.38476 2.4,-1.09009 2.58333,-1.56738 z m 12.13864,-5.82934 c 1.29597,-0.81958 1.29597,-0.98525 0,-1.38548 -0.80958,-0.25002 -4.71766,-1.60845 -8.68462,-3.01874 -4.28776,-1.52434 -7.45448,-2.17285 -7.80901,-1.59921 -1.08218,1.75101 0.48949,2.81638 5.7891,3.92419 2.87791,0.60158 5.90756,1.52497 6.73256,2.05196 1.85435,1.18453 2.13898,1.18648 3.97197,0.0273 z m 3.70907,-4.60098 c 0.35681,-1.09301 -17.55825,-7.89362 -18.44869,-7.00318 -1.07614,1.07614 1.1918,2.4633 8.15907,4.99044 3.76859,1.36692 7.10659,2.73992 7.41778,3.05111 0.75661,0.75661 2.49054,0.12967 2.87184,-1.03837 z M 224,196.12327 v -5.87672 l -7.45106,-3.03471 c -8.47598,-3.45215 -8.94003,-3.26656 -9.87974,3.95116 -0.59123,4.5412 -0.52301,4.69477 2.61185,5.87936 6.63828,2.50844 13.24421,4.81975 13.96895,4.88751 0.4125,0.0386 0.75,-2.5744 0.75,-5.8066 z m -104.48713,-12.9987 c 0.54292,-1.03148 1.82355,-3.39398 2.84584,-5.25 2.45157,-4.45095 -0.31308,-1.61112 -3.28607,3.37543 -1.22967,2.0625 -1.85577,3.75 -1.39133,3.75 0.46444,0 1.28864,-0.84394 1.83156,-1.87543 z M 223,175.21044 c 0,-1.19042 -2.36455,-3.06672 -7.06249,-5.60418 -7.1801,-3.87813 -10.43677,-4.12271 -5.92257,-0.44478 1.61759,1.31793 1.87418,1.82862 0.73506,1.46299 -2.41323,-0.77458 -2.19687,0.066 0.37068,1.44011 1.49047,0.79768 1.91869,0.80814 1.44098,0.0352 -1.06808,-1.7282 0.0135,-1.32517 5.09939,1.90023 5.57319,3.53441 5.33895,3.48131 5.33895,1.21044 z m -18.31557,-11.40856 c -1.31107,-6.63079 -1.83044,-5.49223 -1.02218,2.24081 0.41355,3.95661 0.91563,5.66067 1.32447,4.49517 0.36214,-1.03238 0.22611,-4.06357 -0.30229,-6.73598 z M 220.5,166.38524 c -8.17004,-6.23243 -12.85633,-9.36224 -13.32157,-8.897 -0.84225,0.84225 1.21977,2.53437 8.04845,6.60467 6.66497,3.97273 8.55036,4.79234 5.27312,2.29233 z M 192.50332,147.00538 C 191.59609,145.53745 188,143.78595 188,144.812 c 0,0.48531 1.0125,1.37068 2.25,1.96751 2.90111,1.39915 2.98356,1.40741 2.25332,0.22587 z m -10.23429,-3.66132 c -0.67703,-0.27392 -2.02703,-0.29059 -3,-0.0371 -0.97297,0.25354 -0.41903,0.47766 1.23097,0.49804 1.65,0.0204 2.44606,-0.18706 1.76903,-0.46099 z"
       id="path1"
       sodipodi:nodetypes="ssssssssssscsssssssssssssssssssssssssssssssssssssssssssssssssssssssssssssscssssssssssssssssssssssssssssssssssssssssssssssssssssssssssssssssssssssssssssssssssssssssssssssssssssssssssssssssssssssssssssssssssssssssssssssssssssssssssssssssssssssssssssssssssssssssssscsssssssssssssssssssssssssssssssssssssssssssssssssssssssssssssssssscsssssssssssssssssssssssssssssssccscc" /></g></svg>
