<?xml version="1.0" encoding="UTF-8" standalone="no"?>
<svg
   version="1.2"
   viewBox="0 0 219.2126 219.2126"
   width="58mm"
   height="58mm"
   id="svg1"
   sodipodi:docname="BabickaRoleTokenLaser.svg"
   inkscape:version="1.4.2 (2aeb623e1d, 2025-05-12)"
   xml:space="preserve"
   xmlns:inkscape="http://www.inkscape.org/namespaces/inkscape"
   xmlns:sodipodi="http://sodipodi.sourceforge.net/DTD/sodipodi-0.dtd"
   xmlns="http://www.w3.org/2000/svg"
   xmlns:svg="http://www.w3.org/2000/svg"><sodipodi:namedview
     id="namedview1"
     pagecolor="#ffffff"
     bordercolor="#666666"
     borderopacity="1.0"
     inkscape:showpageshadow="2"
     inkscape:pageopacity="0.0"
     inkscape:pagecheckerboard="0"
     inkscape:deskcolor="#d1d1d1"
     inkscape:zoom="5.432359"
     inkscape:cx="114.31498"
     inkscape:cy="133.45952"
     inkscape:window-width="1920"
     inkscape:window-height="1043"
     inkscape:window-x="0"
     inkscape:window-y="0"
     inkscape:window-maximized="1"
     inkscape:current-layer="layer1"
     inkscape:document-units="mm"
     showgrid="false" /><defs
     id="defs1"><clipPath
       clipPathUnits="userSpaceOnUse"
       id="cp1"><path
         d="m 275.5,535.5 c -143.78,0 -260,-116.22 -260,-260 0,-143.78 116.22,-260 260,-260 143.78,0 260,116.22 260,260 0,143.78 -116.22,260 -260,260 z"
         id="path1" /></clipPath></defs><style
     id="style1">
		tspan { white-space:pre } 
		.s0 { fill: none;stroke: #ff0000;stroke-miterlimit:100 } 
	</style><g
     inkscape:groupmode="layer"
     id="layer1"
     inkscape:label="Template"
     style="display:inline"><g
       inkscape:groupmode="layer"
       id="layer4"
       inkscape:label="Kruh"
       style="display:inline"><path
         id="path2"
         style="fill:none;stroke:#000000;stroke-width:0.189192"
         d="M 219.118,109.6063 A 109.5117,109.5117 0 0 1 109.6063,219.118 109.5117,109.5117 0 0 1 0.09459686,109.6063 109.5117,109.5117 0 0 1 109.6063,0.09459686 109.5117,109.5117 0 0 1 219.118,109.6063 Z"
         inkscape:label="Vnejsi kruh" /><path
         id="circle2"
         style="fill:none;stroke:#000000;stroke-width:0.188976"
         d="M 208.69732,109.6063 A 99.091019,99.091019 0 0 1 109.6063,208.69732 99.091019,99.091019 0 0 1 10.515282,109.6063 99.091019,99.091019 0 0 1 109.6063,10.515282 99.091019,99.091019 0 0 1 208.69732,109.6063 Z"
         inkscape:label="Vnitrni kruh" /></g><text
       xml:space="preserve"
       style="font-size:41.5223px;font-family:'Didact Gothic';-inkscape-font-specification:'Didact Gothic';text-align:start;letter-spacing:0.769167px;writing-mode:lr-tb;direction:ltr;text-anchor:start;display:none;fill:#de0000;fill-opacity:0.0923077;stroke:#000000;stroke-width:2.63811;stroke-dasharray:none;stroke-opacity:1"
       x="36.877132"
       y="153.4135"
       id="text2-9"
       inkscape:label="Text"><tspan
         sodipodi:role="line"
         id="tspan2-1"
         x="36.877132"
         y="153.4135"
         style="font-style:normal;font-variant:normal;font-weight:normal;font-stretch:normal;font-family:'New Rocker';-inkscape-font-specification:'New Rocker';letter-spacing:0.769167px;fill:#000000;fill-opacity:1;stroke:#000000;stroke-width:2.63811;stroke-dasharray:none;stroke-opacity:1">BabiÄka</tspan></text><path
       id="path5-1"
       style="display:inline;stroke-width:3.09939"
       d="m 62,147 h 5.93315 v 1.74426 H 62 Z"
       inkscape:label="spojovnik pismen" /><path
       id="path5-3"
       style="display:inline;stroke-width:3.09939"
       d="m 84,146 h 5.93315 v 1.74426 H 84 Z"
       inkscape:label="spojovnik pismen" /><path
       id="path5-6"
       style="display:inline;stroke-width:3.09939"
       d="m 106,146 h 5.93315 v 1.74426 H 106 Z"
       inkscape:label="spojovnik pismen" /><path
       id="path5-2"
       style="display:inline;stroke-width:3.09939"
       d="m 117,146 h 5.93315 v 1.74426 H 117 Z"
       inkscape:label="spojovnik pismen" /><path
       id="path5-5"
       style="display:inline;stroke-width:3.09939"
       d="m 137,146 h 5.93315 v 1.74426 H 137 Z"
       inkscape:label="spojovnik pismen" /><path
       id="path5-9"
       style="display:inline;stroke-width:3.09939"
       d="m 159,147 h 5.93315 v 1.74426 H 159 Z"
       inkscape:label="spojovnik pismen" /></g><g
     inkscape:groupmode="layer"
     id="layer2"
     inkscape:label="Content"><g
       id="text1"
       inkscape:label="Text"
       style="opacity:1"><path
         id="path3"
         style="font-size:41.5223px;font-family:'New Rocker';-inkscape-font-specification:'New Rocker';letter-spacing:0.769167px;baseline-shift:baseline;white-space:pre;display:inline;overflow:visible;vector-effect:none;enable-background:accumulate;stop-color:#000000;stop-opacity:1"
         d="M 135.85742 119.37109 L 134.96875 120.07422 C 134.31469 120.59201 133.60298 121.13956 132.83594 121.71484 L 132.84375 121.71094 C 132.36256 122.06737 131.91074 122.39161 131.45312 122.72461 C 130.98006 122.39335 130.51406 122.06937 130.01758 121.71484 L 130.00391 121.70508 C 129.99991 121.70208 129.99814 121.70027 129.99414 121.69727 C 129.24317 121.13351 128.56035 120.59664 127.94922 120.0918 L 127.08398 119.37891 L 126.24023 120.11719 C 125.78561 120.51498 125.44001 120.82953 125.17969 121.08984 C 125.03032 121.23921 124.73935 121.50584 124.33594 121.85547 L 123.26367 122.7832 L 124.26562 123.78516 C 125.22115 124.74069 126.21986 125.78214 127.26172 126.90625 L 127.27344 126.91797 L 127.28516 126.92969 C 128.34162 128.01324 129.38725 129.16576 130.41992 130.38867 L 131.37305 131.51758 L 132.38672 130.44336 C 134.20985 128.50973 135.6032 127.01928 136.57812 125.96094 L 136.5918 125.94727 C 137.579 124.90517 138.27137 124.17256 138.66211 123.75391 L 139.63281 122.71289 L 138.52148 121.82227 C 138.1286 121.50796 137.83894 121.253 137.67578 121.08984 C 137.4349 120.84896 137.10883 120.53777 136.6875 120.14453 L 135.85742 119.37109 z M 95.480468 119.50391 C 94.36884 120.03326 93.338162 120.43567 92.392578 120.7168 L 92.386718 120.71875 L 92.382812 120.71875 C 91.493996 120.99033 90.669273 121.11914 89.902343 121.11914 C 89.268931 121.11914 88.765662 121.03494 88.386718 120.90234 L 85.210937 119.79102 L 86.785156 122.76367 C 87.010936 123.19014 87.19596 123.59678 87.339843 123.98047 C 87.477382 124.34724 87.579239 124.72506 87.648437 125.11719 L 87.65625 125.1543 L 87.664062 125.18945 C 87.753992 125.57163 87.813659 126.0056 87.83789 126.49023 C 87.8642 127.01649 87.878906 127.61852 87.878906 128.29297 L 87.878906 142.66016 C 87.878906 145.70904 87.794235 148.10168 87.634765 149.80273 C 87.478151 151.47328 87.149086 152.66938 86.792968 153.32227 L 85.083984 156.45703 L 88.421875 155.18555 C 88.893632 155.00583 89.464459 154.861 90.130859 154.76172 C 90.858063 154.65783 91.492433 154.60742 92.021484 154.60742 C 92.783098 154.60742 93.703776 154.71778 94.767578 154.95117 L 94.769531 154.95117 C 95.866463 155.21939 97.018466 155.5409 98.230468 155.91797 L 98.845703 156.10937 L 99.376953 155.74219 C 99.963206 155.33436 100.59103 154.94911 101.25977 154.58789 C 101.97345 154.24499 102.68479 153.92862 103.39648 153.63867 C 104.11035 153.34784 104.80831 153.09789 105.48828 152.88867 C 106.16711 152.6798 106.78338 152.52713 107.33008 152.42773 L 109.14062 152.09766 L 108.24609 150.48828 C 108.20439 150.41318 108.12005 150.20178 108.05469 149.875 C 107.98559 149.50291 107.92155 148.9816 107.86914 148.32617 C 107.81624 147.66551 107.77524 146.85505 107.74805 145.90234 C 107.72085 144.95033 107.70703 143.82683 107.70703 142.53516 C 107.70703 141.50639 107.73311 140.49212 107.78711 139.49219 L 107.78711 139.49023 C 107.83711 138.53962 108.00235 137.52086 108.28711 136.43359 L 108.61523 135.17383 L 107.36133 134.82617 C 106.68455 134.63947 106.00898 134.34698 105.32812 133.93359 C 104.66512 133.53106 104.04125 133.018 103.45312 132.38086 L 102.93359 131.81836 L 102.1875 131.99023 C 101.42085 132.16716 100.65706 132.38839 99.894531 132.65234 C 99.135047 132.91524 98.389695 133.2212 97.660156 133.57031 C 97.04549 133.84138 96.473268 134.14725 95.914062 134.46289 L 95.914062 127.17187 C 95.914062 125.79987 96.008601 124.60746 96.183593 123.59961 C 96.373806 122.65694 96.685983 121.99089 97.0625 121.53906 L 95.480468 119.50391 z M 149.63867 119.50977 C 148.44684 120.09244 147.39274 120.50397 146.5 120.75195 C 145.59754 121.00263 144.78856 121.11914 144.07227 121.11914 C 143.37563 121.11914 142.8729 121.02504 142.59766 120.91797 L 139.00586 119.52148 L 140.99023 122.82617 C 141.19501 123.16746 141.34614 123.49544 141.45117 123.81055 L 141.46289 123.84766 L 141.47656 123.88281 C 141.60699 124.20889 141.70891 124.5634 141.77734 124.95117 L 141.7832 124.98828 L 141.79102 125.02344 C 141.87962 125.39998 141.94035 125.84661 141.96484 126.36133 L 141.9668 126.39258 L 141.9707 126.42383 C 142.021 126.95205 142.04687 127.57811 142.04687 128.29297 L 142.04687 150.13281 C 142.04687 150.77029 141.95467 151.20818 141.87109 151.40625 C 141.82929 151.50528 141.80994 151.54285 141.80078 151.55469 L 141.79883 151.55664 L 141.79883 151.55859 L 141.79687 151.55859 L 141.79492 151.55859 L 141.79297 151.55859 L 141.79297 151.55664 L 141.79102 151.55664 L 141.79102 151.55469 L 141.78906 151.55469 L 141.78711 151.55469 L 140.92578 151.87305 L 140.92578 154.73242 L 151.20312 154.73242 L 151.20312 151.87305 L 150.36523 151.5625 C 150.35289 151.5403 150.32505 151.4856 150.28125 151.36719 C 150.18005 151.09358 150.08203 150.53751 150.08203 149.75977 L 150.08203 145.97852 C 150.33774 146.10624 150.62387 146.21511 150.86914 146.34961 L 150.88477 146.35742 L 150.89844 146.36328 C 151.51196 146.67994 152.1162 147.07183 152.71875 147.4668 L 152.71875 150.17383 C 152.71875 150.65346 152.69292 151.18294 152.64062 151.75781 C 152.58722 152.34527 152.52114 152.91847 152.44141 153.47656 C 152.36501 154.01144 152.26317 154.51522 152.13867 154.98828 L 152.13086 155.01953 L 152.12305 155.05273 C 152.02266 155.52961 151.91202 155.90885 151.80859 156.17773 L 151.33203 157.41992 L 153.70508 158.31055 L 154.30469 157.70898 C 154.58258 157.4311 154.94031 157.12349 155.36914 156.79492 C 155.83427 156.45971 156.34039 156.12187 156.89062 155.78125 C 157.4511 155.43429 158.02518 155.10008 158.61328 154.7793 C 159.19646 154.4612 159.74896 154.18455 160.26758 153.95117 L 161.24219 153.51367 L 161.01367 152.4668 C 160.85484 151.74071 160.75391 150.57659 160.75391 149.05273 C 160.75391 148.30312 160.76922 147.65648 160.79492 147.10742 C 160.84632 146.57978 160.92068 146.05069 161.02148 145.52148 L 161.19531 144.60937 L 160.39453 144.13867 C 159.39465 143.5505 158.31309 143.02474 157.1543 142.56055 C 157.02234 142.50645 156.83189 142.47955 156.69531 142.42773 L 160.50195 140.98633 L 160.2168 139.84766 C 160.2022 139.78936 160.15431 139.48395 160.12891 139.05273 C 160.10221 138.59879 160.08984 138.23135 160.08984 137.9668 C 160.08984 136.92837 160.20732 136.08588 160.4043 135.45117 L 160.83594 134.05859 L 159.4082 133.76758 C 157.96132 133.47284 156.73132 133.15343 155.72266 132.81836 C 154.76368 132.46366 153.92166 132.04152 153.19141 131.55469 L 152.29102 130.95508 L 151.52734 131.71875 C 150.98688 132.25922 150.53186 132.67125 150.08203 133.07422 L 150.08203 127.17187 C 150.08203 125.57796 150.19429 124.32109 150.38281 123.44141 C 150.59817 122.56495 150.90365 121.93829 151.23828 121.5293 L 149.63867 119.50977 z M 50.185547 119.80664 L 49.265625 120.5293 C 48.199505 121.36696 47.199708 121.91588 46.277344 122.2168 C 45.336996 122.50488 44.313592 122.6543 43.189453 122.6543 C 42.419536 122.6543 41.632577 122.6033 40.830078 122.5 L 40.824219 122.5 C 40.00596 122.39085 39.159879 122.26753 38.285156 122.13086 L 36.601562 121.86914 L 36.767578 123.5625 C 36.921441 125.13189 37.318114 126.44865 38.150391 127.43945 L 38.160156 127.44922 L 38.169922 127.46094 C 38.740459 128.10928 39.554486 128.47476 40.351562 128.84766 C 40.508313 129.41284 40.655379 130.00419 40.763672 130.69727 C 40.890756 131.5106 40.955078 132.36935 40.955078 133.27539 C 40.955078 134.18643 40.867498 135.098 40.689453 136.01367 L 40.685547 136.03125 L 40.683594 136.04883 C 40.540623 136.90665 40.271583 137.68537 39.873047 138.41211 L 39.541015 139.01758 L 39.849609 139.63672 C 39.917229 139.77195 40.023272 140.06326 40.11914 140.4707 L 40.130859 140.51562 L 40.144531 140.56055 C 40.266137 140.94969 40.379158 141.40555 40.482422 141.92187 L 40.484375 141.92773 L 40.486328 141.93359 C 40.586965 142.4116 40.662078 142.90592 40.71289 143.41406 C 40.76479 143.93304 40.789062 144.38939 40.789062 144.77734 C 40.789062 145.33178 40.720222 145.96057 40.570312 146.66016 L 40.566406 146.67773 L 40.5625 146.69531 C 40.445222 147.32861 40.247787 147.93397 39.964844 148.52344 L 39.955078 148.54492 L 39.947265 148.56445 C 39.694632 149.13862 39.377413 149.64019 38.998047 150.08984 C 38.673779 150.44942 38.34888 150.65902 37.947266 150.78125 L 36.451172 151.23633 L 37.558594 153.44922 L 38.28125 153.52148 C 39.336531 153.62701 40.42313 153.79952 41.541015 154.03906 C 42.650511 154.27681 43.732532 154.58012 44.787109 154.94922 L 44.792969 154.95117 L 44.796875 154.95312 C 45.863467 155.31733 46.873013 155.75639 47.830078 156.27344 L 47.832031 156.27539 L 47.833984 156.27539 C 48.801908 156.81121 49.688765 157.43275 50.5 158.14258 L 51.427734 158.95508 L 52.300781 158.08398 C 53.12948 157.25529 54.037704 156.57204 55.035156 156.02344 C 56.075866 155.45105 57.106741 155.00017 58.128906 154.66797 L 58.138672 154.66406 L 58.148437 154.66211 C 59.232174 154.29205 60.251238 154.01835 61.205078 153.83789 L 61.222656 153.83398 L 61.238281 153.83008 C 62.250801 153.61115 63.13641 153.43546 63.890625 153.30078 L 65.730469 152.97266 L 65.384765 153.86914 L 67.269531 153.90234 C 68.79001 153.92854 70.112312 154.09831 71.230469 154.39648 L 71.234375 154.39844 L 71.236328 154.39844 C 72.396353 154.70105 73.437871 155.13787 74.375 155.70508 L 75.345703 156.29297 L 77.740234 153.41211 C 77.832564 153.54764 77.8831 153.68984 77.982422 153.82422 C 78.531284 154.56679 79.168605 155.19248 79.890625 155.67383 L 81.132812 156.50195 L 81.800781 155.16602 C 81.914434 154.93871 82.123309 154.60577 82.423828 154.20508 C 82.716434 153.81494 83.050061 153.43236 83.423828 153.05859 C 83.80796 152.67446 84.187195 152.33384 84.560547 152.03516 L 84.564453 152.03125 L 84.568359 152.0293 C 84.929364 151.73598 85.22935 151.57015 85.425781 151.5 L 86.300781 151.1875 L 86.300781 148.75195 L 85.277343 148.51562 C 85.074164 148.46874 84.959177 148.40904 84.867187 148.35547 L 84.865234 148.35547 L 84.865234 148.35352 C 84.855624 148.33842 84.810065 148.27068 84.75 148.08594 C 84.648707 147.73824 84.547578 147.18906 84.470703 146.48047 C 84.419843 145.72944 84.390625 144.70265 84.390625 143.40625 C 84.390625 141.42005 84.448305 139.92406 84.548828 138.95898 C 84.655861 138.15648 84.880322 137.63209 85.125 137.22461 L 85.3125 136.80664 L 83.136718 135.57422 C 82.31777 135.10273 81.968315 134.9084 81.076172 134.36914 C 80.282489 133.95691 79.469266 133.32336 78.646484 132.42578 L 77.925781 131.64062 L 77.005859 132.17969 C 76.373283 132.55051 75.354399 132.94216 73.990234 133.2832 C 72.689764 133.60832 71.075792 133.7832 69.162109 133.7832 L 68.798828 133.7832 C 68.520327 133.69488 68.386902 133.74219 68.207031 133.74219 L 66.544922 133.74219 L 66.921875 135.36133 C 67.130069 136.25359 67.372212 137.01104 67.679687 137.66016 L 67.691406 137.68555 L 67.703125 137.70898 C 68.032358 138.33453 68.41607 138.87571 68.892578 139.3125 L 68.916015 139.33398 L 68.939453 139.35352 C 69.398993 139.73647 69.930934 140.02827 70.501953 140.19141 L 70.552734 140.20508 L 70.605469 140.21484 C 71.114662 140.31668 71.64518 140.36523 72.193359 140.36523 C 73.040917 140.36523 73.97675 140.19985 75.070312 139.9043 C 75.515298 139.78403 75.924106 139.59842 76.355469 139.45312 L 76.355469 140.8125 C 76.140187 140.8966 75.992813 140.97688 75.71875 141.06055 C 75.158454 141.21245 74.527046 141.35545 73.820312 141.48633 C 73.113674 141.61719 72.362141 141.72306 71.566406 141.80273 L 71.564453 141.80273 L 71.5625 141.80273 C 70.803276 141.85413 70.058408 141.88086 69.328125 141.88086 C 68.659135 141.88086 68.053742 141.84126 67.513672 141.76758 L 65.242187 141.45703 L 66.115234 143.57617 C 66.257988 143.92285 66.372726 144.35312 66.443359 144.87109 L 66.443359 144.87695 L 66.443359 144.88086 C 66.516459 145.39253 66.554687 145.9531 66.554687 146.5625 C 66.554687 147.64778 66.528879 148.733 66.474609 149.81836 C 66.424109 150.79945 66.270395 151.56885 66.0625 152.10937 L 65.755859 152.9043 L 64.785156 151.31445 C 64.536819 150.90808 64.310136 150.42557 64.115234 149.86523 C 63.910591 149.27688 63.731756 148.65973 63.576172 148.01367 C 63.449431 147.37567 63.346703 146.73839 63.269531 146.10156 C 63.217961 145.42253 63.193359 144.78528 63.193359 144.19531 C 63.193359 142.29542 63.510915 140.62185 64.128906 139.13867 L 64.384765 138.52344 L 63.464844 136.98828 L 62.591797 137.11914 C 62.111518 137.19114 61.581281 137.22852 61.001953 137.22852 C 60.650266 137.22852 60.311788 137.18232 59.964844 137.16602 C 60.772682 136.70909 61.540334 136.29411 62.080078 136.07422 L 63.203125 135.61719 L 62.841797 134.45898 C 62.583884 133.63366 62.407963 132.86106 62.308594 132.14062 C 62.205518 131.36567 62.154297 130.62252 62.154297 129.91211 L 62.154297 129.19922 C 62.166057 129.08244 62.177713 128.97668 62.189453 128.86523 C 62.344142 128.69984 62.553365 128.58481 62.667969 128.39453 C 62.888731 128.04471 63.079466 127.67738 63.240234 127.29687 C 63.429173 126.88592 63.582601 126.47739 63.6875 126.06641 C 63.79087 125.73131 63.879691 125.44882 63.955078 125.22266 L 64.630859 123.19727 L 62.517578 123.49805 C 62.156186 123.54965 61.811297 123.58795 61.482422 123.61328 C 61.158645 123.63818 60.81709 123.65234 60.460937 123.65234 C 59.579667 123.65234 58.613053 123.5395 57.564453 123.31055 C 56.509127 123.04604 55.510325 122.74595 54.568359 122.40625 L 54.566406 122.4043 L 54.564453 122.4043 L 54.5625 122.4043 C 54.56165 122.40418 54.559419 122.40446 54.558594 122.4043 L 54.55664 122.40234 C 53.637344 122.0604 52.834456 121.70778 52.15039 121.35352 C 52.14809 121.35252 52.144878 121.35061 52.142578 121.34961 C 51.487751 120.99442 51.054921 120.67406 51.013672 120.63281 L 50.185547 119.80664 z M 115.38086 120.49219 L 114.38281 121.02539 C 113.39464 121.55242 112.50478 122.28578 111.7207 123.19531 L 111.7207 123.19727 L 111.71875 123.19922 C 111.0081 124.02831 110.39474 124.8812 109.88086 125.75781 L 109.32227 126.70898 L 110.16016 127.42578 C 110.38535 127.61881 110.6747 127.84998 111.04492 128.13477 C 111.40089 128.40859 111.77003 128.69612 112.1543 128.99805 C 112.51784 129.28369 112.85293 129.56587 113.1582 129.8457 L 113.19922 129.88477 L 113.24414 129.91992 C 113.56384 130.16584 113.7742 130.36547 113.83594 130.4375 L 115.12891 131.94727 L 116.01758 130.16992 C 116.43264 129.33979 116.90145 128.69361 117.41016 128.20703 L 117.41211 128.20703 C 118.01728 127.62707 118.76952 127.01506 119.66797 126.38086 L 121.36133 125.18555 L 119.5625 124.1582 C 119.41865 124.076 119.14075 123.90508 118.79492 123.68359 C 118.44881 123.41789 118.08017 123.14183 117.6875 122.85352 C 117.32056 122.56521 116.96872 122.27726 116.62891 121.99023 C 116.34522 121.72844 116.14341 121.50957 116.05859 121.39648 L 115.38086 120.49219 z M 49.238281 128.96875 C 49.945355 129.2089 50.625669 129.52522 51.365234 129.66992 L 51.367187 129.66992 L 51.36914 129.67187 C 52.335775 129.85698 53.48459 129.9055 54.607422 129.97461 C 54.592472 130.20045 54.576172 130.42494 54.576172 130.66016 L 54.576172 131.97852 L 54.576172 132.00977 C 54.588502 132.26865 54.600811 132.41799 54.613281 132.63086 C 53.756904 133.29299 52.872409 133.9072 51.86914 134.35547 L 51.863281 134.35742 L 51.859375 134.35937 C 51.114502 134.69943 50.123762 134.95076 49.199219 135.22656 L 49.199219 133.85742 L 49.199219 130.53516 C 49.199219 130.01983 49.226041 129.49058 49.238281 128.96875 z M 174.07617 131.64062 L 173.15625 132.17969 C 172.52368 132.55051 171.50479 132.94216 170.14062 133.2832 C 168.84015 133.60832 167.22423 133.7832 165.31055 133.7832 L 164.94727 133.7832 C 164.66937 133.69491 164.53728 133.74219 164.35742 133.74219 L 162.69336 133.74219 L 163.07227 135.36133 C 163.28046 136.25359 163.52064 137.01104 163.82812 137.66016 L 163.83984 137.68555 L 163.85352 137.70898 C 164.18275 138.33453 164.56646 138.87571 165.04297 139.3125 L 165.06641 139.33398 L 165.08984 139.35352 C 165.54938 139.73648 166.08132 140.02827 166.65234 140.19141 L 166.70312 140.20508 L 166.75586 140.21484 C 167.26505 140.31669 167.79362 140.36523 168.3418 140.36523 C 169.18935 140.36523 170.12519 140.19985 171.21875 139.9043 C 171.66373 139.78403 172.07254 139.59842 172.50391 139.45312 L 172.50391 140.81445 C 172.2892 140.89825 172.14219 140.97719 171.86914 141.06055 C 171.30885 141.21245 170.67744 141.35545 169.9707 141.48633 C 169.26407 141.61719 168.51253 141.72306 167.7168 141.80273 L 167.71484 141.80273 L 167.71289 141.80273 C 166.95367 141.85413 166.2088 141.88086 165.47852 141.88086 C 164.80953 141.88086 164.20218 141.84126 163.66211 141.76758 L 161.39258 141.45703 L 162.26562 143.57617 C 162.40838 143.92285 162.52117 144.35312 162.5918 144.87109 L 162.59375 144.87695 L 162.59375 144.88086 C 162.66685 145.39253 162.70508 145.9531 162.70508 146.5625 C 162.70508 147.64779 162.67725 148.73299 162.62305 149.81836 C 162.57255 150.79946 162.41883 151.56885 162.21094 152.10937 L 161.53516 153.86914 L 163.41992 153.90234 C 164.9404 153.92854 166.2627 154.09831 167.38086 154.39648 L 167.38281 154.39844 L 167.38672 154.39844 C 168.54675 154.70105 169.58826 155.13787 170.52539 155.70508 L 171.49609 156.29297 L 173.89062 153.41211 C 173.98292 153.54764 174.03349 153.68984 174.13281 153.82422 C 174.68168 154.56679 175.31704 155.19248 176.03906 155.67383 L 177.2832 156.50195 L 177.95117 155.16602 C 178.06482 154.93872 178.2737 154.60576 178.57422 154.20508 C 178.86683 153.81493 179.1985 153.43236 179.57227 153.05859 C 179.95639 152.67446 180.33563 152.33384 180.70898 152.03516 L 180.71289 152.03125 L 180.7168 152.0293 C 181.07781 151.73598 181.37779 151.57015 181.57422 151.5 L 182.45117 151.1875 L 182.45117 148.75195 L 181.42773 148.51562 C 181.22446 148.46875 181.10764 148.41101 181.01562 148.35742 C 181.0118 148.34933 180.96502 148.28456 180.90039 148.08594 C 180.79995 147.74119 180.69775 147.19403 180.62109 146.49414 C 180.56979 145.74235 180.54102 144.7084 180.54102 143.40625 C 180.54102 141.42005 180.59872 139.92406 180.69922 138.95898 C 180.78412 138.32281 180.97555 137.96794 181.1543 137.58398 L 182.85937 134.83203 L 179.65039 134.83008 C 178.72617 134.76458 177.84776 134.66032 177.22656 134.36914 C 176.43288 133.95691 175.61771 133.32337 174.79492 132.42578 L 174.07617 131.64062 z M 117.45898 131.75781 L 116.51172 131.99609 C 115.65017 132.21148 114.65849 132.44127 113.54687 132.68555 C 112.43047 132.90338 111.39977 133.08017 110.45703 133.21484 L 109.32617 133.37695 L 109.32617 135.84375 L 110.86133 136.50781 L 110.86133 150.0918 C 110.86133 152.04917 111.4217 153.85823 112.53125 155.35937 L 112.92773 155.89453 L 113.99414 155.89453 L 114.17969 155.83984 C 114.9921 155.59612 115.77377 155.3798 116.52734 155.19141 C 117.25942 155.00839 118.05328 154.84977 118.9043 154.7168 L 120.01953 154.54297 L 120.01953 153.36328 L 122.375 153.36328 C 123.11751 153.36328 123.9767 153.43668 124.94531 153.59375 C 125.93338 153.75398 126.90884 153.95524 127.86914 154.19531 L 127.87305 154.19531 L 127.87695 154.19727 C 128.85346 154.43479 129.74027 154.69672 130.54297 154.98047 C 130.70265 155.04237 130.75795 155.08824 130.90234 155.14844 L 132.52344 156.01953 C 132.63215 155.96503 135.69589 154.53546 135.80859 154.48242 L 135.82227 154.47656 L 135.83789 154.46875 C 136.28372 154.24584 136.72446 154.0632 137.16016 153.91797 L 137.17969 153.91016 L 137.19727 153.9043 C 137.66787 153.73091 138.08429 153.6131 138.4375 153.54687 L 139.87305 153.2793 L 139.46094 151.87891 C 139.3434 151.47929 139.2296 150.97692 139.12695 150.39258 C 139.05745 149.84873 139.01562 149.06205 139.01562 148.05664 L 139.01562 146.64453 C 139.01562 146.28838 139.03097 146.02206 139.04687 145.89453 L 139.29492 143.91602 L 137.37695 144.46289 C 136.01358 144.85243 134.82861 145.5564 133.93359 146.55469 L 133.93164 146.55469 L 133.93164 146.55664 C 133.37385 147.18137 132.99897 147.91991 132.71289 148.69922 C 132.25454 148.63242 131.8408 148.5967 131.30664 148.47461 L 131.31445 148.47461 C 130.80508 148.35476 130.49311 148.23217 130.10352 148.10937 C 130.17302 147.49707 130.25734 146.9164 130.29297 146.22656 C 130.29305 146.22556 130.29472 146.22162 130.29492 146.2207 L 130.29492 146.21875 L 130.29492 146.2168 L 130.29492 146.21484 C 130.37832 145.09375 130.42187 144.05917 130.42187 143.11523 C 130.42188 142.04115 130.37897 140.98019 130.29492 139.93164 L 130.29492 139.92187 C 130.28892 139.80525 130.26892 139.68888 130.26172 139.57227 C 130.41669 139.65987 130.5558 139.81599 130.71289 139.89453 C 131.71176 140.39397 132.64339 140.69727 133.58594 140.69727 C 134.84373 140.69727 136.0711 140.26761 137.16406 139.50586 L 137.16797 139.50391 L 137.16992 139.50195 C 138.28448 138.71521 139.174 137.6735 139.79102 136.43945 L 140.58008 134.85937 L 138.8418 134.55078 C 137.67239 134.34289 136.51385 134.03096 135.36523 133.61328 C 134.2219 133.19752 133.24327 132.72334 132.42578 132.20312 L 131.81445 131.81445 L 131.1582 132.12305 C 129.95508 132.68778 127.00093 133.76825 126.95312 133.78711 C 126.93492 133.79311 126.92054 133.80064 126.90234 133.80664 C 126.90134 133.80713 126.90044 133.80759 126.89844 133.80859 C 125.38236 134.28631 123.91164 134.64396 122.49023 134.88086 L 120.99414 135.13086 L 121.44922 136.57812 C 121.71914 137.43697 121.92904 138.5032 122.06055 139.76562 L 122.0625 139.7793 L 122.0625 139.79492 C 122.22055 141.03301 122.30273 142.37631 122.30273 143.82227 C 122.30273 144.70912 122.27606 145.5664 122.22266 146.39453 C 122.16946 147.21875 122.08865 147.98244 121.98437 148.6875 C 121.88098 149.35949 121.75343 149.93775 121.60937 150.41797 L 121.60156 150.44727 L 121.59375 150.47852 C 121.47793 150.94182 121.33639 151.22788 121.29492 151.28711 L 120.01953 153.10937 L 120.01953 151.87305 L 119.17773 151.5625 C 119.16538 151.54028 119.13949 151.48557 119.0957 151.36719 C 118.99451 151.09358 118.89844 150.53751 118.89844 149.75977 L 118.89844 134.15625 L 117.45898 131.75781 z M 150.08203 138.57617 L 152.77539 139.11328 L 150.08203 140.20312 L 150.08203 138.57617 z M 99.605468 139.6543 C 99.586358 139.94354 99.567928 140.19463 99.548828 140.5 L 99.546875 140.52148 L 99.546875 140.54102 C 99.518785 141.44054 99.503906 142.34069 99.503906 143.24023 L 99.503906 146.24805 L 99.503906 146.26562 C 99.523296 146.98391 99.55996 147.48212 99.59375 148.01367 C 99.34254 148.18367 99.094581 148.31103 98.835937 148.52344 C 98.572376 148.72568 98.379386 148.91393 98.15625 149.10742 C 97.648431 148.97071 97.160985 148.83137 96.548828 148.71289 C 96.191501 148.64369 95.956571 148.63539 95.646484 148.58789 C 95.713884 147.97056 95.813476 147.43757 95.830078 146.67383 C 95.885648 145.38497 95.914062 143.97905 95.914062 142.45117 L 95.914062 140.78125 C 96.047413 140.72035 96.111581 140.67189 96.277343 140.60742 L 96.30664 140.59766 L 96.333984 140.58398 C 96.770118 140.39015 97.253119 140.2173 97.78125 140.06641 C 98.320012 139.91247 98.871995 139.78286 99.439453 139.67969 L 99.46289 139.67578 L 99.484375 139.67187 C 99.527545 139.66287 99.562714 139.6629 99.605468 139.6543 z M 48.986328 141.86328 C 49.206535 141.90738 49.474532 141.95238 49.675781 141.99609 L 49.703125 142.00195 L 49.730469 142.00781 C 50.3274 142.11163 50.910311 142.23956 51.478515 142.39453 L 51.484375 142.39648 L 51.492187 142.39844 C 52.09874 142.55667 52.72109 142.74232 53.359375 142.95508 L 53.390625 142.96484 L 53.421875 142.97461 C 53.8475 143.09379 54.397385 143.25788 54.912109 143.41016 C 54.952739 144.2688 54.992569 145.12642 55.033203 146 L 55.033203 146.01562 L 55.035156 146.03125 C 55.093096 146.86168 55.185475 147.51886 55.271484 148.20508 C 54.682189 148.45819 54.055067 148.70963 53.585937 148.96289 C 53.089991 149.21176 52.571346 149.57845 52.05664 149.92187 C 51.96111 149.86797 51.889387 149.81679 51.787109 149.76172 C 51.391729 149.54882 50.980979 149.35094 50.558594 149.16992 C 50.171941 149.00422 49.784764 148.85327 49.396484 148.71289 L 49.365234 148.70117 C 49.263017 148.65757 49.182873 148.63667 49.085937 148.59766 C 49.018447 148.12197 48.941967 147.62382 48.908203 147.22461 C 48.882183 146.58935 48.867187 145.87321 48.867187 145.06836 C 48.867187 144.37263 48.881453 143.60389 48.908203 142.76758 C 48.929163 142.4442 48.961428 142.16952 48.986328 141.86328 z M 76.396484 145.99219 L 76.396484 148.47852 C 76.049048 148.43212 75.635425 148.32951 75.322265 148.31641 L 75.320312 148.31641 C 75.122254 148.30741 74.935272 148.28874 74.740234 148.27734 L 74.777344 146.4043 C 75.094671 146.3397 75.3661 146.3126 75.720703 146.2207 L 75.742187 146.21484 L 75.765625 146.20703 C 75.969722 146.14653 76.18912 146.05836 76.396484 145.99219 z M 172.54687 145.99219 L 172.54687 148.47852 C 172.19917 148.43202 171.78604 148.32952 171.47266 148.31641 L 171.4707 148.31641 C 171.27264 148.30741 171.08566 148.28874 170.89062 148.27734 L 170.92773 146.4043 C 171.24506 146.3397 171.51649 146.3126 171.87109 146.2207 L 171.89258 146.21484 L 171.91406 146.20703 C 172.11873 146.14643 172.33893 146.05856 172.54687 145.99219 z " /></g></g></svg>
