<?xml version="1.0" encoding="UTF-8" standalone="no"?>
<svg
   version="1.2"
   viewBox="0 0 219.2126 219.2126"
   width="58mm"
   height="58mm"
   id="svg1"
   sodipodi:docname="AmnéziakRoleTokenLaser.svg"
   inkscape:version="1.4.3 (fcd0343856, 2026-01-01)"
   xml:space="preserve"
   xmlns:inkscape="http://www.inkscape.org/namespaces/inkscape"
   xmlns:sodipodi="http://sodipodi.sourceforge.net/DTD/sodipodi-0.dtd"
   xmlns="http://www.w3.org/2000/svg"
   xmlns:svg="http://www.w3.org/2000/svg"><sodipodi:namedview
     id="namedview1"
     pagecolor="#ffffff"
     bordercolor="#666666"
     borderopacity="1.0"
     inkscape:showpageshadow="2"
     inkscape:pageopacity="0.0"
     inkscape:pagecheckerboard="0"
     inkscape:deskcolor="#d1d1d1"
     inkscape:zoom="0.70710678"
     inkscape:cx="-169.70563"
     inkscape:cy="197.28279"
     inkscape:window-width="1920"
     inkscape:window-height="940"
     inkscape:window-x="0"
     inkscape:window-y="0"
     inkscape:window-maximized="1"
     inkscape:current-layer="layer2"
     inkscape:document-units="mm"
     showgrid="false" /><defs
     id="defs1"><clipPath
       clipPathUnits="userSpaceOnUse"
       id="cp1"><path
         d="m 275.5,535.5 c -143.78,0 -260,-116.22 -260,-260 0,-143.78 116.22,-260 260,-260 143.78,0 260,116.22 260,260 0,143.78 -116.22,260 -260,260 z"
         id="path1" /></clipPath></defs><style
     id="style1">
		tspan { white-space:pre } 
		.s0 { fill: none;stroke: #ff0000;stroke-miterlimit:100 } 
	</style><g
     inkscape:groupmode="layer"
     id="layer2"
     inkscape:label="Content"><g
       inkscape:groupmode="layer"
       id="layer4"
       inkscape:label="Kruh"
       style="display:inline"><path
         id="path2"
         style="fill:none;stroke:#000000;stroke-width:0.189192"
         d="m 219.118,109.6063 c 0,60.48164 -49.03006,109.5117 -109.5117,109.5117 C 49.124657,219.118 0.09459686,170.08794 0.09459686,109.6063 0.09459513,49.124656 49.124656,0.09459513 109.6063,0.09459686 c 60.48164,0 109.5117,49.03006014 109.5117,109.51170314 z"
         inkscape:label="Vnejsi kruh"
         sodipodi:nodetypes="sssss" /><path
         id="circle2"
         style="fill:none;stroke:#000000;stroke-width:0.188976"
         d="m 208.69732,109.6063 c 0,54.72646 -44.36456,99.09102 -99.09102,99.09102 -54.726459,0 -99.091019,-44.36456 -99.091018,-99.09102 1e-6,-54.726458 44.36456,-99.091017 99.091018,-99.091018 54.72646,-10e-7 99.09102,44.364559 99.09102,99.091018 z"
         inkscape:label="Vnitrni kruh"
         sodipodi:nodetypes="sssss" /></g><path
       id="path3"
       style="opacity:1;font-size:39.472px;font-family:'New Rocker';-inkscape-font-specification:'New Rocker';letter-spacing:0.731187px;baseline-shift:baseline;white-space:pre;display:inline;overflow:visible;enable-background:accumulate;stop-color:#000000;stop-opacity:1;stroke-width:0.18897638;stroke-dasharray:none;fill:none;fill-opacity:1;stroke:#000000;stroke-opacity:1"
       d="M 117.21094 118.10547 L 116.0293 120.46875 C 115.81951 120.88833 115.53834 121.39237 115.1875 121.96875 L 115.17383 121.99023 L 115.16211 122.01367 C 114.83767 122.58769 114.48595 123.16281 114.10937 123.74023 L 114.10547 123.74805 L 114.09961 123.75586 C 113.73378 124.33074 113.38193 124.87891 113.04297 125.40039 L 113.02734 125.42578 L 113.01172 125.45117 C 112.69388 125.9809 112.44184 126.40495 112.25195 126.73047 L 111.54102 127.94727 L 112.64258 128.82812 C 112.97856 129.09692 113.18712 129.31647 113.24023 129.38477 L 113.30273 129.46484 L 113.375 129.53711 C 113.65767 129.81978 114.00238 130.11704 114.44727 130.47852 L 115 130.92773 L 115 131.20117 L 114.14844 131.03516 L 113.5332 131.64844 C 112.68366 132.49798 111.83884 133.18462 111.00586 133.7168 L 110.99805 133.72266 L 110.98828 133.72852 C 110.25112 134.21294 109.44104 134.53731 108.50781 134.71094 L 106.71289 135.04492 L 107.24414 136.79102 C 107.3938 137.28274 107.57247 138.07736 107.75 139.11719 L 107.75391 139.14062 L 107.75781 139.16211 C 107.93703 140.05818 108.04297 141.29626 108.04297 142.83008 C 108.04297 143.257 108.02887 143.7239 108.00195 144.22852 L 105.76172 144.22852 C 105.76309 142.96779 105.77648 141.90965 105.80078 141.06055 C 105.82668 140.15141 105.85321 139.38817 105.87891 138.76953 C 105.92671 138.20318 105.97541 137.74336 106.01953 137.40625 C 106.08823 137.04615 106.16366 136.71235 106.25 136.41016 L 106.63086 135.08203 L 105.38281 134.48633 C 104.86947 134.24188 104.42916 134.01624 104.05469 133.80664 C 103.6641 133.56212 103.28543 133.31765 102.91992 133.07422 C 102.60725 132.84975 102.29057 132.60148 101.9707 132.32812 C 101.61295 131.99579 101.22082 131.62695 100.78711 131.21875 L 99.601562 130.10352 L 98.482422 131.28516 C 97.57389 132.24416 96.700386 133.06774 95.867187 133.75391 C 95.760059 133.84211 95.609213 133.93293 95.498047 134.02148 L 95.498047 133.49609 L 93.933593 130.88672 L 92.759765 131.17969 C 91.943928 131.38364 91.003262 131.60197 89.947265 131.83398 C 88.897013 132.03869 87.927509 132.20567 87.042968 132.33203 L 85.640625 132.53125 L 85.640625 135.45508 L 87.101562 136.08594 L 87.101562 144.22852 L 84.503906 144.22852 C 84.505281 142.96777 84.518713 141.90968 84.542968 141.06055 C 84.568628 140.16225 84.59375 139.41165 84.61914 138.79687 C 84.66797 138.21466 84.71671 137.75027 84.761718 137.40625 C 84.830418 137.04614 84.907795 136.71236 84.99414 136.41016 L 85.373047 135.08203 L 84.126953 134.48633 C 83.617197 134.24359 83.179495 134.01895 82.80664 133.81055 C 82.413374 133.56445 82.03192 133.31921 81.664062 133.07422 C 81.351395 132.84975 81.034705 132.60148 80.714843 132.32812 C 80.357092 131.99579 79.964967 131.62695 79.53125 131.21875 L 78.30664 130.06836 L 77.191406 131.32422 C 76.383002 132.23367 75.606893 133.01942 74.871094 133.68164 C 74.620273 133.90738 74.294164 134.13776 74.021484 134.36523 C 73.619328 134.16891 73.237514 133.97893 72.929687 133.80664 C 72.539095 133.56212 72.160429 133.31765 71.794922 133.07422 C 71.482272 132.84976 71.167501 132.60147 70.847656 132.32812 C 70.489899 131.99578 70.095836 131.62696 69.662109 131.21875 L 68.423828 130.05469 L 67.310547 131.33789 C 66.4833 132.29047 65.678264 133.10622 64.902344 133.78516 C 64.886384 133.79906 64.863706 133.81422 64.847656 133.82812 L 64.847656 133.49609 L 63.28125 130.88672 L 62.107422 131.17969 C 61.29159 131.38364 60.352866 131.60197 59.296875 131.83398 C 58.246623 132.03869 57.277119 132.20567 56.392578 132.33203 L 54.990234 132.53125 L 54.990234 135.45508 L 56.451172 136.08594 L 56.451172 144 L 52.664062 144 C 52.314742 143.1805 52.003381 142.33933 51.728515 141.47656 C 51.244 139.8739 51.011719 138.39182 51.011719 137.02734 L 51.011719 136.10156 L 50.351562 135.70312 C 50.35691 135.70549 50.362129 135.70628 50.365234 135.70703 L 50.367187 135.70703 L 50.36914 135.70703 L 50.36914 135.70508 L 50.371094 135.70508 L 50.371094 135.70312 L 50.371094 135.70117 L 50.371094 135.69922 L 50.36914 135.69727 C 50.34525 135.64427 50.095727 135.38701 49.880859 134.97266 C 49.563348 134.36031 49.23652 133.57933 48.916015 132.64453 C 48.622779 131.71305 48.363417 130.69931 48.138672 129.60156 C 47.920542 128.51091 47.814453 127.48677 47.814453 126.52734 C 47.814453 125.79609 47.884403 125.14837 48.009765 124.57617 C 48.153629 124.01017 48.35063 123.5736 48.583984 123.24023 L 46.40625 120.9043 C 46.47537 120.8628 46.216634 120.9928 45.890625 121.12695 C 45.535418 121.24505 45.133789 121.37634 44.6875 121.51758 C 44.230859 121.6374 43.74426 121.74589 43.230469 121.84375 C 42.847323 121.91675 42.521834 121.94784 42.201172 121.97656 C 41.787467 121.72147 41.442938 121.34999 40.972656 121.23242 C 40.206517 121.04089 39.413292 120.94727 38.603516 120.94727 C 37.559981 120.94727 36.487403 121.06831 35.390625 121.29883 L 35.388672 121.29883 L 35.386719 121.29883 L 35.384766 121.29883 C 34.357334 121.49467 33.374424 121.74564 32.441406 122.05664 L 32.435547 122.06055 L 32.427734 122.0625 C 31.526776 122.3722 30.730415 122.70162 30.03125 123.06641 C 29.329219 123.43268 28.789434 123.67815 28.283203 124.4375 L 26.134766 127.66211 L 29.943359 126.94727 C 30.764236 126.79335 31.46228 126.68087 32.025391 126.60742 C 32.570443 126.53632 33.067059 126.50195 33.511719 126.50195 C 33.955627 126.50195 34.092834 126.54376 34.117187 126.53906 C 34.111887 126.63942 34.102809 126.76629 34.068359 126.99023 C 34.030559 127.23593 33.956257 127.56513 33.839844 127.96094 L 33.837891 127.96289 L 32.238281 133.44727 C 31.992199 133.34322 31.710765 133.17439 31.474609 133.0918 C 30.632163 132.76993 29.762194 132.5918 28.892578 132.5918 C 27.595328 132.5918 26.29277 132.97326 24.992187 133.63867 L 23.742187 134.27734 L 24.642578 136.98047 L 25.955078 136.83398 C 26.11785 136.81588 26.260241 136.80924 26.277344 136.80664 L 26.277344 136.80469 L 26.445312 136.80469 C 26.868401 136.80469 27.557898 137.00174 28.46875 137.60156 L 28.480469 137.60937 L 28.492187 137.61719 C 29.212672 138.07408 29.859621 138.68067 30.507812 139.28906 L 29.533203 142.69727 C 29.182933 143.92321 28.771172 145.07864 28.300781 146.16797 L 28.294922 146.18359 L 28.289062 146.19727 C 27.840863 147.29287 27.372341 148.26263 26.890625 149.10742 C 26.417051 149.91206 25.951171 150.52734 25.527344 150.95117 L 25.513672 150.96484 L 25.501953 150.97852 C 25.093568 151.40635 24.833798 151.48101 24.849609 151.47852 L 25.134766 154.72461 C 25.213856 154.72261 25.276894 154.68454 25.355469 154.68164 L 25.357422 154.70508 C 25.406562 154.69708 25.442122 154.664 25.490234 154.6543 C 26.855821 154.5902 28.16354 154.37958 29.339844 153.89453 C 30.203165 153.55612 30.998174 152.85805 31.808594 152.24219 C 31.829564 152.26299 31.862482 152.2922 31.882812 152.3125 L 31.935547 152.36523 L 31.992187 152.41211 C 32.31139 152.67811 32.618479 152.93163 32.912109 153.17187 L 32.9375 153.19336 L 32.964844 153.21484 C 33.344472 153.49956 33.743584 153.7533 34.158203 153.97656 L 34.179687 153.98828 L 34.201172 154 C 34.65302 154.22592 35.160035 154.43179 35.734375 154.63281 L 40.474609 156.29297 L 37.617187 152.16211 C 37.246373 151.62648 36.988393 151.06927 36.826172 150.46094 C 36.651731 149.80678 36.564453 149.14991 36.564453 148.47461 C 36.564453 148.01119 36.600692 147.56425 36.664062 147.13086 C 36.667362 147.11466 36.672461 147.09823 36.675781 147.08203 C 36.834226 147.32655 37.035181 147.61332 37.185547 147.84961 L 37.193359 147.86133 L 37.199219 147.87305 C 37.967952 149.0394 38.580616 149.94331 39.046875 150.60156 L 40.621094 152.82422 L 41.839844 150.38867 C 42.365897 149.33657 42.984744 148.22327 43.695312 147.05469 C 43.812576 146.86868 43.927877 146.72937 44.044922 146.54883 C 44.176803 146.98023 44.319102 147.48149 44.478515 148.11914 L 44.488281 148.1543 L 44.498047 148.1875 C 44.663331 148.74534 44.746094 149.32061 44.746094 149.93359 C 44.746094 150.28631 44.706694 150.61911 44.630859 150.94141 C 44.575459 151.17684 44.502997 151.3093 44.414062 151.41602 L 41.285156 155.16797 L 46.042969 154.04883 C 46.52244 153.93602 46.950256 153.8025 47.353515 153.64062 C 47.768191 153.50895 48.169086 153.34847 48.542969 153.14453 L 48.589844 153.11719 L 48.636719 153.08789 C 49.004504 152.85384 49.35368 152.58813 49.68164 152.29297 C 49.71561 152.26237 49.76016 152.21737 49.794922 152.18555 C 50.908261 152.79589 52.021885 153.40787 53.15625 153.88281 L 53.158203 153.88477 L 53.160156 153.88477 L 53.162109 153.88672 L 53.164062 153.88672 L 53.166015 153.88672 L 53.167969 153.88867 L 53.169922 153.88867 C 54.672474 154.53226 56.188571 155.1213 57.71875 155.6582 L 59.285156 156.20898 L 60.173828 153.54102 L 65.410156 153.54102 L 65.912109 153.54102 L 75.683594 153.54102 C 75.598054 153.96663 75.511302 154.42978 75.425781 154.71484 L 75.146484 155.64844 L 77.267578 157.76953 L 78.419922 156.53516 C 78.747751 156.18391 79.132816 155.81032 79.574218 155.41797 C 80.007096 155.03319 80.468759 154.65899 80.953125 154.29492 C 81.463688 153.93072 81.957272 153.60473 82.433593 153.31836 C 82.904833 153.05025 83.350671 152.84445 83.765625 152.69922 L 85.105468 152.23047 L 84.828125 150.83789 C 84.779025 150.59239 84.729255 150.33246 84.679687 150.06055 L 84.679687 150.05469 C 84.641807 149.82596 84.604028 149.48572 84.580078 149.05469 C 84.554698 148.59774 84.529966 148.00137 84.503906 147.27148 L 84.503906 145.97266 L 87.101562 145.97266 L 87.101562 148.78906 C 87.101562 149.37037 86.99913 149.71658 86.958984 149.79687 L 86.947265 149.81641 L 86.939453 149.83594 C 86.936253 149.84294 86.932287 149.84997 86.929687 149.85547 L 86.035156 150.22656 L 86.035156 153.54102 L 96.564453 153.54102 L 96.564453 150.17969 L 95.669922 149.84961 L 95.669922 149.84766 C 95.668122 149.84266 95.666062 149.83733 95.664062 149.83203 C 95.592462 149.63845 95.498047 149.14588 95.498047 148.43359 L 95.498047 141.00586 L 97.601562 140.06641 L 97.601562 142.84375 L 97.601562 142.85742 C 97.627712 144.34781 97.640625 145.83774 97.640625 147.32812 C 97.640625 147.51864 97.617516 147.98025 97.566406 148.61914 C 97.514816 149.26407 97.451097 149.97731 97.373047 150.75781 C 97.297967 151.48272 97.197424 152.20767 97.072265 152.93359 L 97.072265 152.9375 L 97.070312 152.94141 C 96.946477 153.68442 96.812785 154.2842 96.683593 154.71484 L 96.402343 155.64844 L 98.523437 157.76953 L 99.677734 156.53516 C 100.00556 156.18391 100.39063 155.81032 100.83203 155.41797 C 101.26491 155.03319 101.72462 154.65898 102.20898 154.29492 C 102.71799 153.93183 103.21057 153.608 103.68555 153.32227 C 104.15927 153.05227 104.60652 152.84514 105.02344 152.69922 L 106.3418 152.23828 L 108.49023 152.23828 C 108.81271 152.23828 109.32408 152.28848 109.9707 152.4082 L 109.97461 152.4082 L 109.98047 152.41016 C 110.64641 152.52908 111.3304 152.69595 112.0332 152.91406 L 112.06445 152.92578 L 112.0957 152.93555 C 112.58331 153.06558 113.04267 153.2464 113.50586 153.41992 L 116.48828 154.56641 L 119.87305 153.51172 C 120.10995 153.43312 120.33149 153.34873 120.57617 153.27344 L 120.60352 153.26367 L 120.62891 153.25391 C 121.24244 153.04153 121.85214 152.87804 122.45703 152.76172 L 122.48633 152.75586 L 122.51562 152.74805 C 123.15358 152.60079 123.68774 152.50972 124.0957 152.4668 L 126.18164 152.24609 L 125.67969 150.88086 L 126.26758 150.75 C 126.29208 150.88015 126.30844 151.01653 126.33594 151.14453 C 126.41994 151.53631 126.50489 151.89292 126.59375 152.21875 C 126.68705 152.56065 126.65375 152.7166 127.00781 153.24805 L 127.60156 154.14062 L 128.6582 153.94922 C 129.20024 153.85062 129.71286 153.76366 130.20312 153.68945 C 130.68345 153.64185 131.2506 153.60325 131.90234 153.57812 C 132.55758 153.55292 133.35491 153.54102 134.28711 153.54102 L 137.87891 153.54102 L 138.69727 153.54102 C 139.07236 153.56602 139.44717 153.59023 139.82227 153.61523 C 140.18763 153.63953 140.52406 153.66525 140.8418 153.68945 C 141.1289 153.73395 141.35537 153.78834 141.31055 153.77344 L 142.68555 154.23047 L 143.30273 152.91797 C 143.60072 152.28475 143.78223 151.58556 143.9043 150.80664 C 144.05148 150.03227 144.12891 149.25433 144.12891 148.47461 C 144.12891 148.25667 144.11024 148.04958 144.08984 147.8418 L 144.07422 147.61133 C 144.07294 147.57513 144.07156 147.5381 144.07031 147.50195 L 146.0957 147.50195 L 146.0957 148.75 C 146.0957 150.67997 146.65274 152.49193 147.75586 153.98437 L 148.24609 154.64648 L 149.50586 154.64648 L 149.73633 154.57617 C 150.50345 154.34604 151.24294 154.14239 151.95312 153.96484 C 152.63669 153.79395 153.37872 153.64633 154.17773 153.52148 L 155.55859 153.30469 L 155.55859 152.7168 L 157.50977 152.75 C 158.93074 152.7745 160.15532 152.9353 161.18164 153.20898 L 161.1875 153.21094 L 161.19141 153.21094 C 162.2616 153.49012 163.21633 153.89091 164.07422 154.41016 L 165.27539 155.13672 L 167.42578 152.55273 C 167.96416 153.27373 168.58768 153.89439 169.30273 154.37109 L 170.8418 155.39844 L 171.66797 153.74414 C 171.76097 153.55819 171.94802 153.2555 172.22461 152.88672 C 172.4914 152.53099 172.79527 152.18129 173.13867 151.83789 C 173.49491 151.48166 173.84461 151.16689 174.1875 150.89258 L 174.19336 150.88867 L 174.19727 150.88477 C 174.51692 150.62504 174.7705 150.4924 174.90234 150.44531 L 175.98437 150.05859 L 175.98437 147.17578 L 174.71875 146.88281 C 174.60674 146.85691 174.55858 146.83365 174.51367 146.81055 C 174.51167 146.80035 174.50465 146.7741 174.49805 146.75 C 174.41175 146.45654 174.31613 145.94549 174.24414 145.28906 L 174.24414 145.28711 L 176.92383 145.28711 L 176.92383 148.78906 C 176.92383 149.35505 176.83923 149.7124 176.78906 149.83594 L 175.85937 150.17969 L 175.85937 153.54102 L 186.38672 153.54102 L 186.38672 150.17969 L 185.49219 149.84766 C 185.49019 149.84266 185.48833 149.83763 185.48633 149.83203 C 185.41473 149.63844 185.32227 149.14588 185.32227 148.43359 L 185.32227 145.43555 C 185.38067 145.46685 185.45002 145.49174 185.50781 145.52344 L 185.52734 145.5332 L 185.54492 145.54297 C 186.05782 145.80769 186.56269 146.14269 187.06836 146.4668 L 187.06836 148.82812 C 187.06836 149.27085 187.04489 149.76209 186.99609 150.29883 C 186.94589 150.85111 186.88343 151.39018 186.80859 151.91406 C 186.73789 152.4092 186.6456 152.87406 186.53125 153.30859 L 186.51953 153.34766 L 186.51172 153.38672 C 186.41922 153.82595 186.31874 154.1709 186.23047 154.40039 L 185.63867 155.9375 L 188.48047 157.00391 L 189.22461 156.25977 C 189.47516 156.00921 189.80342 155.72586 190.20312 155.41992 L 190.20508 155.41992 L 190.20508 155.41797 L 190.20703 155.41797 L 190.20703 155.41602 C 190.63654 155.10715 191.10382 154.79584 191.61328 154.48047 C 192.14009 154.15434 192.67937 153.84072 193.23242 153.53906 C 193.77939 153.24071 194.29634 152.98296 194.7793 152.76562 L 195.98633 152.2207 L 195.70508 150.92773 C 195.56412 150.28338 195.46484 149.19677 195.46484 147.76367 C 195.46484 147.0629 195.48031 146.46002 195.50391 145.94922 C 195.55161 145.45944 195.61923 144.96827 195.71289 144.47656 L 195.92773 143.34766 L 194.9375 142.76367 C 194.11549 142.28014 193.20915 141.86612 192.2793 141.4707 L 195.29492 140.33008 L 194.94336 138.91992 C 194.94136 138.91092 194.89459 138.63304 194.87109 138.23437 C 194.84599 137.80764 194.83398 137.46456 194.83398 137.22461 C 194.83398 136.26518 194.94296 135.50041 195.11523 134.94531 L 195.65039 133.2207 L 193.88281 132.86133 C 192.51899 132.58351 191.36527 132.28272 190.42578 131.9707 C 189.54296 131.64337 188.77171 131.25536 188.10742 130.8125 L 186.99414 130.07031 L 186.04687 131.01758 C 185.7742 131.29025 185.56819 131.46221 185.32031 131.69727 L 185.32031 126.96094 C 185.32031 125.46476 185.4277 124.29722 185.59766 123.50195 C 185.79254 122.71277 186.06281 122.16933 186.33398 121.83789 L 184.35352 119.33789 C 183.236 119.88423 182.25441 120.26668 181.43555 120.49414 C 180.60466 120.72494 179.8687 120.82811 179.22852 120.82812 C 178.59676 120.82812 178.16244 120.74092 177.96484 120.66406 L 173.51758 118.93359 L 175.97266 123.02539 C 176.15458 123.3286 176.28669 123.61592 176.37695 123.88672 L 176.39258 123.93164 L 176.41016 123.97656 C 176.5239 124.26092 176.61298 124.57119 176.67383 124.91602 L 176.68164 124.96094 L 176.69141 125.00586 C 176.76931 125.33688 176.82525 125.7407 176.84766 126.21094 L 176.84961 126.24805 L 176.85352 126.28711 C 176.89992 126.77392 176.92383 127.35719 176.92383 128.02734 L 176.92383 143.54297 L 174.17773 143.54297 C 174.1719 143.18947 174.16992 142.80675 174.16992 142.39453 C 174.16992 140.51832 174.22392 139.11181 174.31641 138.21875 C 174.37961 137.74421 174.51975 137.5384 174.63672 137.23828 L 174.67578 135.27539 L 172.76953 133.83203 C 172.04045 133.75913 171.30048 133.69029 170.8125 133.46289 C 170.10645 133.09563 169.36688 132.52558 168.60937 131.69922 L 167.7168 130.72852 L 166.58008 131.39453 C 166.02761 131.71839 165.08768 132.0855 163.8125 132.4043 C 162.61615 132.70338 161.11084 132.86719 159.31445 132.86719 L 159.03711 132.86719 C 158.7252 132.77099 158.58901 132.82812 158.40625 132.82812 L 156.34766 132.82812 L 156.81641 134.83203 C 157.01847 135.69798 157.25345 136.44132 157.5625 137.09375 L 157.57617 137.125 L 157.5918 137.15625 C 157.91983 137.77951 158.30831 138.32998 158.80273 138.7832 L 158.83008 138.80859 L 158.86133 138.83398 C 159.33475 139.22851 159.88887 139.53103 160.48437 139.70117 L 160.54687 139.7207 L 160.61133 139.73242 C 161.12236 139.83462 161.65192 139.88281 162.19531 139.88281 C 163.05363 139.88281 163.96981 139.71799 165.0293 139.43164 C 165.28684 139.36204 165.52048 139.24823 165.77344 139.16992 L 165.77344 139.67187 C 165.64946 139.71567 165.59166 139.75507 165.44922 139.79883 C 164.92853 139.93999 164.33722 140.07441 163.67383 140.19727 C 163.01837 140.31865 162.3188 140.41759 161.57812 140.49219 C 160.86202 140.54089 160.15845 140.56445 159.4707 140.56445 C 158.84932 140.56445 158.29049 140.52825 157.79687 140.46094 L 154.98633 140.07812 L 156.06641 142.70117 C 156.18746 142.99515 156.28994 143.37359 156.35352 143.83984 L 156.35547 143.84375 L 156.35547 143.84961 C 156.42207 144.31601 156.45703 144.83101 156.45703 145.39453 C 156.45703 145.51586 156.45578 145.63648 156.45508 145.75781 L 154.49219 145.75781 L 154.49219 133.49609 L 152.92578 130.88672 L 151.75195 131.17969 C 151.62713 131.21089 151.47457 131.24506 151.32422 131.2793 L 151.32422 130.76172 L 151.71484 129.98047 C 152.09347 129.22321 152.51411 128.6481 152.96094 128.2207 L 152.96289 128.2207 L 152.96289 128.21875 C 153.52119 127.68371 154.22264 127.11375 155.06445 126.51953 L 157.1582 125.04102 L 154.93164 123.76758 C 154.8049 123.69518 154.54349 123.53409 154.21289 123.32227 C 153.89346 123.07742 153.55705 122.82286 153.19727 122.55859 C 152.85569 122.29021 152.52905 122.02269 152.21289 121.75586 C 151.95536 121.51785 151.77696 121.32371 151.71875 121.24609 L 150.87891 120.125 L 149.64258 120.78516 C 148.65789 121.31032 147.7757 122.04026 147.00391 122.93555 L 147.00195 122.9375 L 147.00195 122.93945 C 146.3131 123.74311 145.71578 124.57124 145.21484 125.42578 L 144.52344 126.60352 L 145.56055 127.49023 C 145.78364 127.68146 146.06109 127.90276 146.41602 128.17578 C 146.7533 128.43523 147.10439 128.70981 147.46875 128.99609 C 147.80745 129.26222 148.11793 129.52428 148.40039 129.7832 L 148.45312 129.83203 L 148.50781 129.875 C 148.80019 130.0999 148.98497 130.27901 149.01367 130.3125 L 149.58008 130.97266 L 149.58008 131.6875 C 149.38006 131.73512 149.17659 131.78231 148.94141 131.83398 C 147.89116 132.03869 146.92165 132.20567 146.03711 132.33203 L 145.06445 132.4707 L 145.17187 132.19531 L 142.30078 131.31055 L 141.6875 131.66211 C 141.5937 131.71571 141.10017 131.90625 140.38867 132.07031 C 139.73119 132.20098 138.94664 132.27539 138.03711 132.27539 C 137.68487 132.27539 137.19248 132.26308 136.58984 132.23828 C 135.96292 132.18618 135.2783 132.13371 134.5293 132.08203 C 134.5283 132.08194 134.52444 132.08202 134.52344 132.08203 C 134.52246 132.08208 134.51858 132.08202 134.51758 132.08203 C 133.80125 132.00753 133.04786 131.92064 132.25781 131.82227 C 132.25181 131.82131 132.24613 131.81936 132.24023 131.81836 C 131.44727 131.69027 130.65261 131.55197 129.85937 131.39844 L 128.67578 131.16797 L 128.10937 132.23242 C 127.59573 133.1955 127.22583 134.29998 126.96484 135.54687 L 126.96484 135.54883 C 126.70712 136.78026 126.5656 138.03895 126.53711 139.32031 L 126.51758 140.17383 L 128.55273 141.6543 C 128.30108 141.80315 128.03519 141.97964 127.81055 142.07422 L 126.8125 142.49609 L 126.8125 144.22852 L 125.22656 144.22852 L 125.24609 143.99414 L 126.56641 143.88477 L 125.80859 141.86133 C 125.68473 141.53104 125.55675 141.09696 125.4375 140.57227 C 125.31872 140.04965 125.2231 139.49771 125.15039 138.91602 C 125.07439 138.3086 125.00963 137.70088 124.95898 137.09375 L 124.95898 137.08789 C 124.90968 136.46879 124.88672 135.90727 124.88672 135.4082 C 124.88672 134.75818 124.92522 134.24347 124.98242 133.90039 L 125.28906 132.06445 L 123.42773 132 C 121.91024 131.9486 120.37865 131.85881 118.83398 131.73047 C 118.04043 131.65106 117.3632 131.56118 116.74414 131.4668 L 116.74414 130.25391 C 117.19217 129.8076 117.66199 129.35009 118.1543 128.88086 C 118.73139 128.35622 119.28258 127.85642 119.80664 127.38477 C 120.30723 126.93424 120.76208 126.55498 121.16602 126.24609 L 121.18945 126.22852 L 121.21289 126.20898 C 121.63945 125.8577 121.96349 125.61353 122.10742 125.51758 L 124.30469 124.05273 L 122.01172 122.74219 C 121.8852 122.66989 121.62267 122.50616 121.29297 122.29492 C 120.97348 122.05002 120.63525 121.79753 120.27539 121.5332 L 120.25977 121.52148 C 119.92899 121.26131 119.61158 121.00285 119.30469 120.74414 L 119.29883 120.73828 C 119.03363 120.49439 118.8561 120.29773 118.79687 120.21875 L 117.21094 118.10547 z M 144.63477 133.56836 L 144.63477 135.45508 L 146.0957 136.08594 L 146.0957 145.75781 L 143.85352 145.75781 L 143.81641 145.49609 L 142.2832 145.62305 C 142.08855 145.63925 138.04102 146.01439 137.81055 146.02539 L 141.74219 145.47656 L 141.74414 145.47461 L 141.74609 145.47461 C 141.747 145.47423 141.75105 145.4712 141.75195 145.4707 C 141.86364 145.39417 141.96552 144.40049 142.21094 143.96875 C 142.4939 143.49147 142.78124 143.11719 143.05859 142.83984 L 143.53711 142.36133 L 143.53711 139.77539 L 142.93164 139.77539 L 144.08984 138.74805 L 144.08984 138.01367 C 144.08984 137.08258 144.11576 136.25108 144.16406 135.51367 C 144.23216 134.82286 144.36403 134.25937 144.53125 133.83203 L 144.63477 133.56836 z M 40.382812 134.85156 L 41.613281 138.84375 C 41.281386 139.29769 40.95753 139.74832 40.574219 140.21875 L 40.572265 140.22266 L 40.570312 140.22461 C 40.476592 140.34065 40.40537 140.44068 40.314453 140.55469 C 40.250243 140.47519 40.200473 140.41534 40.134765 140.33398 L 40.132812 140.33203 C 39.787215 139.88285 39.434486 139.5008 39.083984 139.09961 L 40.382812 134.85156 z M 185.32227 138.26562 L 186.18555 138.4375 L 185.32227 138.78711 L 185.32227 138.26562 z M 115.96875 138.42187 C 116.06715 138.43847 116.15246 138.46692 116.25195 138.48242 L 116.2793 138.48633 L 116.30664 138.49023 C 116.63926 138.53053 116.88147 138.52643 117.18359 138.55273 C 117.19969 138.70834 117.19384 138.86912 117.21484 139.02344 L 117.21875 139.06055 L 117.22656 139.0957 C 117.23676 139.152 117.25122 139.20196 117.26172 139.25781 L 116.06641 139.55273 C 116.05521 139.42095 116.05352 139.31055 116.04102 139.17578 L 116.03906 139.1582 C 116.02546 138.94229 115.98705 138.65216 115.96875 138.42187 z M 132.1543 139.52734 C 132.97914 139.52734 133.91395 139.57009 134.86914 139.62109 L 134.70508 139.77539 L 130.97656 139.77539 L 130.50977 140.19531 C 130.33696 140.35084 130.15753 140.47551 129.98242 140.62109 L 130.11914 140.27734 C 130.28694 139.85787 130.41639 139.74534 130.42383 139.73242 L 130.43359 139.72656 C 130.6201 139.65196 131.23966 139.52734 132.1543 139.52734 z M 76.34375 140.0332 L 76.34375 142.84375 L 76.34375 142.85742 C 76.3699 144.34781 76.384765 145.83774 76.384765 147.32812 C 76.384765 147.51864 76.361657 147.98025 76.310547 148.61914 C 76.258957 149.26407 76.193285 149.97731 76.115234 150.75781 C 76.040154 151.48272 75.941566 152.20767 75.816406 152.93359 L 75.814453 152.9375 L 75.814453 152.94141 C 75.778313 153.15824 75.738733 153.26726 75.701172 153.45898 L 75.701172 150.17969 L 74.80664 149.84766 C 74.80474 149.84266 74.802881 149.83763 74.800781 149.83203 C 74.729181 149.63845 74.636719 149.14588 74.636719 148.43359 L 74.636719 144.8418 L 74.636719 141.96094 C 74.636719 141.45373 74.64872 141.14898 74.65625 140.75586 L 76.34375 140.0332 z M 66.476562 140.04102 L 66.476562 148.78906 C 66.476562 149.37037 66.372177 149.71658 66.332031 149.79687 L 66.322265 149.81641 L 66.314453 149.83594 C 66.311553 149.84194 66.30904 149.85027 66.30664 149.85547 L 65.707031 150.10352 L 65.017578 149.84766 C 65.015678 149.84266 65.013819 149.83763 65.011719 149.83203 C 64.940119 149.63845 64.847656 149.14588 64.847656 148.43359 L 64.847656 140.74414 L 66.476562 140.04102 z M 121.64844 144.375 C 120.87498 144.72217 120.17249 145.12744 119.63672 145.7168 L 119.62305 145.73242 L 119.60937 145.74805 C 119.26171 146.15059 119.17573 146.70189 118.95508 147.18555 C 118.86718 147.17755 118.81401 147.17336 118.7207 147.16406 L 118.71875 147.16406 C 118.22285 147.08986 117.71576 147.01358 117.19727 146.93945 C 116.75679 146.85535 116.34191 146.77126 115.9375 146.6875 C 115.9584 146.48739 115.97289 146.33753 115.99609 146.12109 C 116.03119 145.79347 116.04121 145.45499 116.06641 145.12305 C 117.22724 144.9422 118.3854 144.76037 119.58984 144.60742 L 119.60352 144.60547 L 119.61523 144.60352 C 120.30469 144.50502 120.96893 144.45486 121.64844 144.375 z M 165.8125 145.38281 L 165.8125 146.7793 C 165.61589 146.7597 165.37037 146.69139 165.18359 146.68359 L 165.1875 146.68555 C 165.1248 146.68255 165.0663 146.67653 165.00391 146.67383 L 165.02539 145.55664 C 165.24016 145.50854 165.41425 145.49524 165.64453 145.43555 L 165.67187 145.42969 L 165.69922 145.42187 C 165.73602 145.41097 165.77562 145.39391 165.8125 145.38281 z M 53.480469 145.74414 L 56.451172 145.74414 L 56.451172 148.78906 C 56.451172 149.37037 56.346785 149.71658 56.30664 149.79687 L 56.296875 149.81641 L 56.287109 149.83594 C 56.284009 149.84294 56.281797 149.84812 56.279297 149.85352 L 56.21289 149.88086 C 55.311627 148.7678 54.462616 147.5484 53.697265 146.1582 C 53.623981 146.02069 53.551423 145.88292 53.480469 145.74414 z M 105.76172 145.97266 L 107.89453 145.97266 C 107.86501 146.29822 107.82887 146.61993 107.7832 146.93945 L 107.7793 146.96484 L 107.77539 146.99023 C 107.70429 147.62988 107.59789 148.225 107.46094 148.77539 C 107.32922 149.27834 107.18003 149.61931 107.09961 149.75 L 106.16992 151.26172 L 106.08398 150.83789 C 106.03488 150.59223 105.98518 150.33259 105.93555 150.06055 L 105.93555 150.05469 C 105.89765 149.82587 105.86189 149.48576 105.83789 149.05469 C 105.81329 148.61226 105.78702 148.02663 105.76172 147.32812 L 105.76172 147.31641 L 105.76172 145.97266 z M 125.08984 145.97266 L 128.0957 145.97266 L 126.02344 147.92773 L 126.02344 148.63086 C 126.02344 149.01934 126.05563 149.42646 126.11523 149.87305 C 126.13503 150.02136 126.16811 150.1609 126.19141 150.30664 L 125.64648 150.79102 L 125.45703 150.27734 C 125.31236 149.88467 125.21445 149.50274 125.15234 149.125 C 125.11094 148.68918 125.08398 148.04968 125.08398 147.21094 L 125.08398 146.3418 C 125.08398 146.21856 125.08531 146.09569 125.08984 145.97266 z M 154.49219 147.50195 L 156.42187 147.50195 C 156.41091 147.82458 156.397 148.14806 156.38086 148.4707 C 156.33426 149.37528 156.19156 150.0707 156.01367 150.5332 L 155.55859 151.7168 L 155.55859 150.17969 L 154.66211 149.84766 C 154.66011 149.84266 154.65825 149.83763 154.65625 149.83203 C 154.58465 149.63845 154.49219 149.14588 154.49219 148.43359 L 154.49219 147.50195 z " /><path
       id="path5"
       style="baseline-shift:baseline;display:inline;overflow:visible;opacity:1;fill:none;fill-opacity:1;stroke:#000000;stroke-width:0.188976;stroke-dasharray:none;stroke-opacity:1;enable-background:accumulate;stop-color:#000000;stop-opacity:1"
       d="m 110.59608,26.086164 c -0.30862,0 -0.58952,0.03544 -0.88867,0.146484 -0.5368,0.40294 -0.90901,0.469492 -1.61335,0.582123 -3.9463,0.442342 -12.573013,3.172543 -17.023436,5.320313 -1.881803,0.908159 -3.13515,1.60514 -4.035156,2.410156 -0.900006,0.805016 -1.387803,1.816706 -1.507813,2.861328 -0.05931,0.516252 -0.312963,1.604956 -0.501953,2.140625 -0.263942,0.748078 -0.482422,1.445869 -0.482422,2.1875 0,0.276347 -0.296126,1.46484 -0.777343,2.587891 -0.481217,1.123051 -1.133768,2.298168 -1.644532,2.941406 -0.736423,0.927415 -1.699857,2.283694 -2.230468,3.152344 -0.761497,1.246598 -1.725417,2.912902 -2.50586,4.30664 -0.390221,0.69687 -0.733309,1.32368 -0.984375,1.800782 -1.499227,2.849011 0.957138,2.510488 1.220703,2.466798 0.01705,0.01572 0.03586,0.01925 0.173829,0.177735 0.375593,0.431434 1.066457,1.412062 2.222656,3.134765 l 2.876953,4.28711 3.953125,1.041015 c 1.950216,0.513359 4.339775,1.160504 5.267578,1.425782 1.957434,0.559666 2.977366,0.857607 3.851562,0.955078 0.874196,0.09747 1.577375,-0.106653 2.285157,-0.376953 1.027953,-0.392587 1.988265,-1.117121 2.707035,-2 0.44171,-0.542555 2.07521,-2.309277 3.48827,-3.751953 1.43064,-1.460567 3.63779,-3.725919 4.91016,-5.039063 1.24828,-1.288288 2.83394,-2.793922 3.29492,-3.164062 0.33836,-0.27168 0.66749,-0.572684 0.94922,-0.861329 0.28173,-0.288646 0.49805,-0.497637 0.70312,-0.880859 0.0476,-0.08887 0.0966,-0.182497 0.14454,-0.335937 0.048,-0.153441 0.1365,-0.404315 -0.0137,-0.804688 -0.15016,-0.400372 -0.62629,-0.686764 -0.89062,-0.734375 -0.26433,-0.04761 -0.40997,-0.01536 -0.54297,0.0098 -0.42467,0.08013 -0.91245,0.301211 -1.50586,0.550781 0.81614,-0.56648 1.8357,-1.254369 2.40234,-1.595703 0.71017,-0.427789 1.69957,-1.051299 2.30274,-1.449219 0.0616,0.01106 0.0856,0.03408 0.14648,0.03711 0.27757,0.01381 0.5607,-0.02095 0.92969,-0.103515 0.52946,-0.118473 1.04439,-0.362231 1.43359,-0.707031 0.38921,-0.344801 0.66249,-0.723297 1.04493,-1.222657 0.31811,-0.415369 0.52849,-0.595217 0.73242,-1.074218 0.10196,-0.239501 0.17579,-0.708517 0,-1.089844 -0.1758,-0.381327 -0.42224,-0.52787 -0.58203,-0.628906 -0.60852,-0.384774 -1.58586,-0.522832 -2.54493,-0.195313 -0.92849,0.317072 -2.06243,0.980728 -3.73242,2.078125 -0.21668,-0.311371 -0.54554,-0.645696 -1.0332,-0.806641 -0.64005,-0.211236 -1.46469,-0.399683 -2.33008,-0.107421 -0.86538,0.292262 -1.66176,0.896529 -2.86523,1.974609 -0.44431,0.398016 -0.82846,0.759028 -1.10742,1.041016 -0.13948,0.140994 -0.2486,0.255543 -0.35157,0.380859 -0.77265,0.940082 -0.0325,2.16997 1.23642,1.820309 0.11309,-0.03116 0.24415,-0.07115 0.40234,-0.121093 0.0493,-0.01556 0.13726,-0.04506 0.19141,-0.0625 -2.36416,0.902855 -4.42951,1.924053 -6.43164,3.195312 0.0302,-0.101335 0.0842,-0.167454 0.0859,-0.298828 0.004,-0.290408 -0.13467,-0.656288 -0.35742,-0.878906 -0.29082,-0.289799 -0.53973,-0.313894 -0.69531,-0.333985 -0.15594,-0.02014 -0.26273,-0.01333 -0.36133,-0.0039 -0.197194,0.01883 -0.361603,0.05784 -0.542966,0.107422 -0.362727,0.09916 -0.769133,0.248119 -1.197266,0.439453 -1.063976,0.475475 -2.00154,0.837862 -2.685547,1.050781 -0.342003,0.106459 -0.623705,0.17471 -0.796875,0.203125 -0.0032,5.28e-4 -0.0066,0.0015 -0.0098,0.002 -0.03439,-0.04205 -0.08004,-0.106835 -0.128906,-0.201172 -0.132731,-0.256231 -0.273535,-0.682703 -0.36914,-1.207032 -0.191211,-1.04866 -0.211077,-2.484293 0.01758,-3.916015 0.233471,-1.461916 1.331167,-4.737566 2.144531,-6.326172 1.02505,-2.002057 4.315849,-4.065804 9.437499,-5.306641 3.63669,-0.881105 6.73903,-0.908058 10.20312,-0.09766 2.99087,0.699716 3.70954,1.148914 6.3125,3.908203 1.66586,1.765888 3.18404,4.608411 3.53906,6.466797 0.0912,0.47728 0.31331,1.373464 0.52149,2.136719 0.15904,0.583097 0.17941,0.806667 0.18359,0.826172 v 0.002 c -0.008,0.01233 -0.0788,0.156651 -0.40625,0.585937 -0.4764,0.624585 -0.91326,1.118385 -0.9414,1.929688 -0.0281,0.811303 0.32589,1.321977 0.75195,2.101562 0.37139,0.679539 1.22576,2.241229 1.89648,3.470703 0.67083,1.229672 0.83409,1.908001 0.84961,1.951172 -0.0801,0.04942 -0.23667,0.136182 -0.5664,0.246094 -0.86299,0.287662 -1.54621,0.57657 -2.02344,1.271484 -0.23862,0.347457 -0.36933,0.849132 -0.29297,1.294922 0.0764,0.445791 0.30168,0.794038 0.56055,1.080078 0.0139,0.01539 0.007,0.011 0.0195,0.02539 -0.003,0.0019 -0.009,0.0047 -0.0117,0.0059 h -0.002 c -0.0142,0.0022 -0.0241,-0.0075 -0.28516,0.146485 l -2.19727,1.296875 1.52344,1.621094 c 0.14279,0.152002 0.11921,0.136019 0.15235,0.203125 -0.43581,0.214345 -0.83773,0.434144 -1.16602,0.796875 v 0.002 c -0.13106,0.145099 -0.26236,0.283386 -0.39844,0.505859 -0.13608,0.222474 -0.25321,0.566247 -0.25195,0.878906 0.003,0.625319 0.21906,0.955186 0.47266,1.517578 0.18055,0.400309 0.21433,0.526059 0.22851,0.529297 -0.0281,0.036 -0.0335,0.04461 -0.0937,0.115235 -0.55919,0.655726 -0.69998,0.781958 -0.89648,0.84375 -0.1965,0.06179 -0.79411,0.07953 -2.07032,-0.0059 -1.29458,-0.08657 -3.81305,-0.358444 -5.49804,-0.59375 -1.45254,-0.20284 -2.29742,-0.313117 -3.0625,-0.302734 -0.76508,0.01038 -1.38789,0.167814 -2.16797,0.40625 -2.54836,0.778918 -3.90902,1.57597 -5.56445,3.273437 -0.69795,0.715669 -1.53424,1.402092 -2.25586,1.884766 -0.58464,0.391042 -0.94195,0.488829 -1.04883,0.552734 -0.0671,-0.106043 -0.13164,-0.189959 -0.20117,-0.355468 -0.16077,-0.382708 -0.33775,-0.714381 -0.54883,-1.003907 -0.10553,-0.144763 -0.21283,-0.279751 -0.39453,-0.425781 -0.1817,-0.14603 -0.54175,-0.442056 -1.162108,-0.24414 -0.682129,0.217432 -0.648325,0.472441 -0.748047,0.640625 -0.09972,0.168183 -0.172388,0.332105 -0.246093,0.515625 -0.147411,0.367039 -0.283686,0.806552 -0.398438,1.283203 -0.665876,2.765994 -0.864322,3.259602 -2.103516,5.185546 -1.118867,1.738926 -1.736626,2.677035 -2.089843,3.720704 -0.353217,1.043669 -0.354965,2.00701 -0.359375,3.58789 -0.0062,2.302349 0.157945,3.535138 0.6875,4.992188 0.416772,1.146755 1.072139,2.819794 1.675781,4.308592 0.366089,0.90291 0.577381,1.35405 0.841797,1.96289 l -0.119141,0.0293 0.666016,1.24414 c 0.08132,0.15195 0.142672,0.32215 0.40039,0.56836 0.257717,0.24621 0.908742,0.41818 1.277344,0.31055 0.737205,-0.21526 0.868623,-0.52003 1.384763,-0.98633 0.39864,-0.36015 1.88061,-1.54559 3.41211,-2.7207 l 0.78515,0.82812 c -0.54504,0.40478 -1.11882,0.8632 -1.73437,1.38086 -1.19458,1.00462 -1.89203,1.94518 -2.29883,3.16992 l -0.658198,1.98242 2.423828,3.07227 c 0.5845,0.74099 1.16129,1.41326 1.64062,1.91992 0.23967,0.25334 0.45138,0.46331 0.65234,0.63672 0.10049,0.0867 0.1946,0.1644 0.31836,0.24414 0.0555,0.0357 0.23844,0.0581 0.32032,0.10156 0.24426,0.39322 0.60325,0.70118 1.09375,0.70118 0.43009,0 0.77551,-0.2296 1.02929,-0.54493 0.0861,-0.0135 0.16158,-0.0312 0.29883,-0.0312 0.52949,0 1.10447,-0.11475 1.62305,-0.38476 0.51857,-0.27001 0.98344,-0.64872 1.57617,-1.18164 0.92942,-0.83563 1.71501,-1.2777 3.0918,-1.72071 0.89581,-0.28826 1.46697,-0.47659 1.97851,-0.80468 0.51155,-0.3281 0.88094,-0.93425 1.00586,-1.40625 0.12177,-0.46005 0.10748,-0.83151 0.0918,-1.32032 -0.0157,-0.48882 -0.0625,-1.04447 -0.13086,-1.61523 -0.13674,-1.14152 -0.33559,-2.29463 -0.63672,-3.12695 -0.28182,-0.77898 -0.83552,-1.26225 -1.52734,-1.78711 -0.69182,-0.52487 -1.55551,-1.02898 -2.53321,-1.47852 -0.52235,-0.240195 -1.00287,-0.440333 -1.58007,-0.451172 -0.57721,-0.01084 -1.06317,0.136728 -1.77344,0.347657 -0.92509,0.274718 -1.83338,0.693425 -2.8125,1.298825 l -0.84766,-0.892575 c 3.30661,-2.550908 4.58758,-4.193129 5.79688,-7.322266 0.29875,-0.773055 0.49026,-1.312421 0.58203,-1.822266 0.0918,-0.509845 0.0356,-1.16757 -0.33594,-1.615234 -0.28766,-0.346607 -0.51676,-1.198237 -0.42187,-2.144531 0.0949,-0.946294 0.48572,-1.939719 1.01367,-2.541016 0.47026,-0.535597 1.42746,-1.008749 2.39062,-1.162109 0.96317,-0.15336 1.87206,0.04271 2.23242,0.326172 0.13794,0.108492 0.27652,0.247257 0.35352,0.341796 0.002,0.0024 0.004,0.0055 0.006,0.0078 0.0298,0.03738 0.0336,0.09249 0.0273,0.109375 h -0.002 v 0.002 h -0.002 v 0.002 h -0.002 v -0.002 h -0.002 l -0.002,-0.002 -0.002,-0.002 v -0.002 c -0.006,-0.01021 -0.0121,-0.03223 -0.0176,-0.07227 0.0565,0.54761 0.28581,0.817085 0.63671,1.167969 0.5247,0.524702 1.19074,0.463513 1.66016,0.349609 0.46942,-0.113903 0.94089,-0.323701 1.53125,-0.628906 1.18072,-0.610409 2.80115,-1.626987 5.06836,-3.146484 4.3827,-2.93731 8.21893,-6.201335 10.83984,-9.259766 1.01895,-1.189047 2.14298,-2.494937 2.47852,-2.878906 0.9001,-1.030066 2.01063,-2.59862 2.57227,-3.667969 0.21075,-0.401232 0.35498,-0.912085 0.36132,-1.4375 0.006,-0.525415 -0.0791,-1.072671 -0.22461,-1.84375 -0.17613,-0.933453 -0.24668,-3.249088 -0.16601,-5.443359 0.0807,-2.194271 0.34058,-4.447363 0.54297,-5.101563 0.12191,-0.393989 0.22237,-0.751582 0.29101,-1.033203 0.0343,-0.14081 0.0602,-0.256256 0.0801,-0.384766 0.01,-0.06426 0.0228,-0.121771 0.0215,-0.257812 -1.2e-4,-0.01201 -0.01,-0.04906 -0.01,-0.0625 0.007,-0.04291 0.0126,-0.08924 0.0312,-0.179688 0.0505,-0.243948 0.1394,-0.60899 0.24609,-1.009765 0.25655,-0.963689 0.44092,-2.251738 0.44336,-3.189453 l 0.008,-3.742188 -2.69727,2.269531 c -0.0676,0.0569 -0.12103,0.08277 -0.18945,0.132813 -0.24199,-0.378174 -0.54335,-0.890136 -0.8418,-1.449219 -2.58882,-4.849386 -4.42811,-6.905668 -11.0957,-12.384765 l -1.85938,-1.527344 -4.74609,-0.193359 c -4.09798,-0.165428 -4.26786,-0.187262 -7.11914,-1.203125 -0.82121,-0.292579 -1.56984,-0.588576 -2.08985,-0.816407 -0.21705,-0.0951 -0.39578,-0.181263 -0.50976,-0.240234 -0.0656,-0.08368 -0.13527,-0.150162 -0.19531,-0.199219 -0.18645,-0.152322 -0.3404,-0.214963 -0.48633,-0.265625 -0.29186,-0.101324 -0.56568,-0.132812 -0.86719,-0.132812 z"
       sodipodi:nodetypes="cscsssssssssscscccsssscsssccssccscsssssssscsssssssccccsssssscsssscssssccccsscsscscccccccccsccccscssssscssscsscsscsscccsssccscccssccscsssssssssssssccscsssssscccccccccccccssssscscscsscsccsccccccccsscsssc" /></g></svg>
