<?xml version="1.0" encoding="UTF-8" standalone="no"?>
<svg
   version="1.2"
   viewBox="0 0 570 570"
   width="570"
   height="570"
   id="svg1"
   sodipodi:docname="KnihovnikRoleTokenLaser.svg"
   inkscape:version="1.4.2 (2aeb623e1d, 2025-05-12)"
   xml:space="preserve"
   xmlns:inkscape="http://www.inkscape.org/namespaces/inkscape"
   xmlns:sodipodi="http://sodipodi.sourceforge.net/DTD/sodipodi-0.dtd"
   xmlns="http://www.w3.org/2000/svg"
   xmlns:svg="http://www.w3.org/2000/svg"><sodipodi:namedview
     id="namedview1"
     pagecolor="#ffffff"
     bordercolor="#666666"
     borderopacity="1.0"
     inkscape:showpageshadow="2"
     inkscape:pageopacity="0.0"
     inkscape:pagecheckerboard="0"
     inkscape:deskcolor="#d1d1d1"
     inkscape:zoom="0.68356603"
     inkscape:cx="23.406663"
     inkscape:cy="370.84932"
     inkscape:window-width="1920"
     inkscape:window-height="940"
     inkscape:window-x="0"
     inkscape:window-y="0"
     inkscape:window-maximized="1"
     inkscape:current-layer="layer2" /><defs
     id="defs1"><clipPath
       clipPathUnits="userSpaceOnUse"
       id="cp1"><path
         d="m 275.5,535.5 c -143.78,0 -260,-116.22 -260,-260 0,-143.78 116.22,-260 260,-260 143.78,0 260,116.22 260,260 0,143.78 -116.22,260 -260,260 z"
         id="path1" /></clipPath></defs><style
     id="style1">
		tspan { white-space:pre } 
		.s0 { fill: none;stroke: #ff0000;stroke-miterlimit:100 } 
	</style><g
     inkscape:groupmode="layer"
     id="layer1"
     inkscape:label="Template"><path
       id="Path 0 copy"
       class="s0"
       d="m 253.96776,1.9812412 c -4.83809,0.7256238 -12.51049,1.8658898 -17.06826,2.5396834 -4.54737,0.6737937 -14.55576,2.8299332 -22.23856,4.8098491 -7.68279,1.9695513 -20.01678,5.7427953 -27.40888,8.3757733 -7.40247,2.632979 -20.89926,8.551995 -30.00441,13.164891 -9.10514,4.602528 -22.37354,12.263042 -29.48531,17.021062 -7.11177,4.747653 -17.57697,12.48073 -23.26639,17.176553 -5.689435,4.695823 -15.573238,13.828318 -21.968643,20.296736 -6.385022,6.468418 -15.147556,16.191781 -19.456148,21.592491 -4.318975,5.41108 -11.576098,15.42469 -16.133862,22.24555 -4.547382,6.83124 -12.178261,20.3382 -16.95405,30.00974 -5.533687,11.2368 -10.714379,23.75899 -14.316985,34.66408 -3.114645,9.39165 -6.8418376,22.43215 -8.2953386,28.97313 -1.453501,6.54097 -3.5922235,19.22903 -4.7446423,28.19566 -1.3912082,10.80144 -2.09719388,22.31812 -2.10757603,34.1458 0,12.12828 0.67483933,22.9919 2.10757603,33.88662 1.162801,8.82153 3.3222877,21.39554 4.7861709,27.93654 1.4638831,6.55133 4.44356,17.48752 6.623812,24.31875 2.180251,6.83123 6.104705,17.53937 8.721006,23.80046 2.616301,6.2611 7.57897,16.73082 11.015462,23.28217 3.446873,6.54098 9.676163,17.02106 13.86017,23.28215 4.173624,6.2611 11.119282,15.79787 15.427874,21.20896 4.308592,5.40071 13.071127,15.12406 19.466531,21.60285 6.385023,6.47879 16.279208,15.58018 21.968643,20.23455 5.68942,4.64399 13.36182,10.563 17.06825,13.15452 3.69605,2.59151 11.60724,7.66051 17.57698,11.25753 5.98013,3.6074 16.92291,9.43312 24.315,12.96793 7.39209,3.52447 18.80207,8.31359 25.34283,10.63558 6.54075,2.322 18.17914,5.82573 25.86193,7.7849 7.6828,1.94883 22.34238,4.7684 32.58957,6.24037 14.74265,2.1354 22.60194,2.69517 37.7495,2.69517 15.15794,0 23.01723,-0.55977 37.75988,-2.69517 10.24718,-1.47197 24.90677,-4.29154 32.58957,-6.24037 7.68278,-1.95917 19.31079,-5.4629 25.86193,-7.7849 6.54076,-2.32199 17.94035,-7.11111 25.34283,-10.63558 7.39208,-3.53481 18.33487,-9.36053 24.30461,-12.96793 5.98012,-3.59702 13.89132,-8.66602 17.58736,-11.25753 3.69605,-2.59152 11.37883,-8.51053 17.06826,-13.1649 5.68942,-4.65435 15.57322,-13.76612 21.95824,-20.23454 6.39541,-6.46842 15.14756,-16.19177 19.46654,-21.59248 4.30859,-5.41109 11.42035,-15.18628 15.79125,-21.72725 4.37088,-6.55136 11.24387,-18.42049 15.27214,-26.39199 4.02828,-7.96113 9.22972,-19.37415 11.5657,-25.345 2.336,-5.98121 5.92822,-16.45093 7.99426,-23.28216 2.06605,-6.83123 4.88999,-18.23389 6.27083,-25.35538 1.39121,-7.1111 3.22885,-18.75218 4.08018,-25.86329 0.86172,-7.11113 1.5677,-20.84614 1.5677,-30.52804 0,-9.81665 -0.70598,-23.07484 -1.59885,-30.00973 -0.8721,-6.82087 -2.30483,-16.368 -3.16655,-21.20894 -0.86172,-4.83059 -2.907,-13.91125 -4.54739,-20.17235 -1.64037,-6.2611 -4.91075,-16.96923 -7.27788,-23.80045 -2.35675,-6.83125 -8.17076,-20.33822 -12.9154,-30.00974 -4.74463,-9.67154 -12.35476,-23.1785 -16.90213,-30.00974 -4.55776,-6.82086 -11.81489,-16.83447 -16.13386,-22.24555 C 502.62025,101.55757 493.85772,91.844574 487.47269,85.386521 481.08767,78.918102 471.20387,69.816706 465.51445,65.151982 459.82502,60.487257 452.14224,54.557873 448.44619,51.96636 444.75015,49.374846 436.83895,44.31621 430.85883,40.708823 424.88909,37.101437 413.9463,31.275712 406.55422,27.751254 399.15174,24.226796 387.75215,19.448044 381.21139,17.136415 374.66025,14.814417 363.95626,11.528378 357.4155,9.8179792 350.87475,8.1075792 341.33354,5.9929045 336.20478,5.1325219 331.08637,4.2617733 321.77358,2.8416237 315.52353,1.970875 308.01724,0.92390344 297.0952,0.4366989 283.45307,0.52999334 272.07423,0.60255536 258.80584,1.2556173 253.96776,1.9812412 Z"
       style="stroke-width:1.03741;stroke:#000000;stroke-opacity:1"
       inkscape:label="vnejsi kruh" /><path
       id="Path 0"
       class="s0"
       d="m 265.85013,27.483209 c -2.18288,0.208543 -7.78893,0.873904 -12.44244,1.459816 -4.66343,0.595844 -10.93427,1.539263 -13.95061,2.105316 -3.00642,0.556121 -11.52961,2.512475 -18.92164,4.359591 -7.39203,1.837184 -19.05063,5.451972 -25.89695,8.02403 -6.84631,2.57206 -17.3837,7.150127 -23.40647,10.159138 -6.0327,3.018944 -15.43895,8.192855 -20.916,11.499788 -5.47708,3.306933 -13.55374,8.70925 -17.92944,12.016186 -4.3856,3.306932 -11.77765,9.245508 -16.44107,13.188011 -4.65352,3.942499 -11.62883,10.476915 -15.49848,14.508775 -3.869674,4.04181 -10.37864,11.38062 -14.466589,16.3162 -4.087947,4.93557 -11.023564,14.35985 -15.419103,20.93398 -4.395538,6.58408 -10.735823,17.34899 -14.089528,23.93306 -3.353706,6.57416 -8.11636,16.89217 -10.596914,22.93007 -2.480545,6.02794 -6.121992,16.57439 -8.096512,23.42659 -1.974519,6.8522 -4.663441,18.29241 -5.983092,25.42266 -1.309727,7.12034 -2.847671,18.34207 -3.423155,24.91621 -0.575495,6.58408 -1.051758,16.67371 -1.051758,22.43353 0,5.75981 0.476263,15.84945 1.051758,22.43353 0.575484,6.57413 2.113428,17.78593 3.423155,24.9162 1.319651,7.13027 3.939113,18.34205 5.824335,24.92612 1.895135,6.57415 5.308376,16.67372 7.590486,22.43353 2.2821,5.7499 7.163825,16.29634 10.84497,23.42659 3.67121,7.12033 10.239712,18.34207 14.575715,24.91621 4.336003,6.58408 12.214231,17.12058 17.512683,23.4266 5.288538,6.30602 13.375129,15.05499 17.969109,19.44437 4.58407,4.38938 12.15471,11.04297 16.8082,14.78686 4.65353,3.73396 13.39498,10.09956 19.42768,14.14137 6.02278,4.03186 17.00667,10.48684 24.3987,14.33997 7.39205,3.84318 19.49714,9.28524 26.88918,12.0857 7.40195,2.80046 19.50706,6.62379 26.89909,8.49077 7.39203,1.86697 19.49713,4.38939 26.88918,5.60094 11.27161,1.83718 17.40353,2.19469 37.85319,2.19469 20.44967,0 26.58159,-0.35751 37.85321,-2.19469 7.39205,-1.21155 19.49713,-3.73397 26.88916,-5.60094 7.39204,-1.86698 19.49714,-5.69031 26.8991,-8.49077 7.39204,-2.80046 19.26892,-8.12334 26.39306,-11.81756 7.12415,-3.70418 18.09812,-10.15915 24.3987,-14.33999 6.3006,-4.18084 15.27028,-10.63581 19.92379,-14.33997 4.65352,-3.70417 13.6331,-11.92681 19.95354,-18.27255 6.32045,-6.34574 14.53603,-15.35292 18.26677,-20.01042 3.73076,-4.66745 10.34887,-13.86331 14.71463,-20.43745 4.36577,-6.58407 11.47009,-19.14645 15.78624,-27.91529 4.30622,-8.76883 9.48563,-20.43745 11.4899,-25.91921 2.01421,-5.48175 5.14963,-15.79979 6.96539,-22.93006 1.81576,-7.13026 4.33601,-19.46424 5.5862,-27.40881 1.90506,-12.0559 2.28212,-18.352 2.28212,-37.88574 0,-19.30534 -0.38698,-25.88942 -2.20273,-37.3892 -1.21051,-7.67646 -3.72083,-20.01044 -5.58621,-27.40883 -1.85545,-7.40833 -5.01072,-17.94482 -7.015,-23.42659 -2.00427,-5.48177 -7.29282,-17.37878 -11.74788,-26.42567 -4.45507,-9.04691 -11.57922,-21.59935 -15.816,-27.90537 -4.23677,-6.306 -10.76558,-15.26354 -14.50626,-19.90119 -3.74068,-4.63763 -10.37863,-12.21479 -14.76424,-16.8425 -4.38562,-4.62771 -11.77765,-11.628879 -16.43117,-15.551517 -4.66342,-3.932571 -12.05548,-9.851287 -16.44108,-13.158219 -4.37569,-3.306936 -12.45237,-8.709253 -17.92943,-12.016186 -5.47706,-3.306933 -14.88331,-8.480844 -20.916,-11.499788 -6.02278,-3.009011 -16.56016,-7.587078 -23.40649,-10.159138 -6.8463,-2.572058 -18.50491,-6.196777 -25.89695,-8.043892 -7.39203,-1.847117 -16.13349,-3.8134 -19.41774,-4.379453 -3.29417,-0.566051 -8.89029,-1.519402 -12.45236,-2.105315 -3.56207,-0.595842 -15.88545,-1.241341 -27.39521,-1.439955 -11.49984,-0.198616 -22.71193,-0.188684 -24.90474,0.01985 z"
       style="stroke-width:0.992647;stroke:#000000;stroke-opacity:1"
       inkscape:label="vnitrni kruh" /><g
       inkscape:groupmode="layer"
       id="layer3"
       inkscape:label="Positions"
       style="display:none"><rect
         style="display:inline;fill:#ff2121;fill-opacity:0.107692;stroke:#000000;stroke-width:1.05245;stroke-opacity:1"
         id="rect1"
         width="300"
         height="300"
         x="135"
         y="80.172386" /><rect
         style="display:inline;fill:#de0000;fill-opacity:0.0923077;stroke:#000000;stroke-width:1.00157;stroke-opacity:1"
         id="rect2"
         width="300"
         height="83.006134"
         x="135"
         y="401.53375" /></g><text
       xml:space="preserve"
       style="font-size:99.2749px;font-family:'Didact Gothic';-inkscape-font-specification:'Didact Gothic';text-align:start;letter-spacing:0px;writing-mode:lr-tb;direction:ltr;text-anchor:start;display:none;fill:#de0000;fill-opacity:0.0923077;stroke:#000000;stroke-width:5.26962;stroke-dasharray:none;stroke-opacity:1"
       x="71.55938"
       y="419.37173"
       id="text2"
       inkscape:label="Text"><tspan
         sodipodi:role="line"
         id="tspan2"
         x="71.55938"
         y="419.37173"
         style="font-style:normal;font-variant:normal;font-weight:normal;font-stretch:normal;font-family:'New Rocker';-inkscape-font-specification:'New Rocker';letter-spacing:0px;fill:#000000;fill-opacity:1;stroke:#000000;stroke-width:5.26962;stroke-dasharray:none;stroke-opacity:1">Knihovník</tspan></text><path
       id="path5"
       style="display:none;stroke-width:8.05907"
       d="m 276.32799,515.95806 h 15.42748 v 4.53544 h -15.42748 z"
       inkscape:label="spojovnik pismen" /></g><g
     inkscape:groupmode="layer"
     id="layer2"
     inkscape:label="Content"
     style="display:inline"><g
       id="path1-9"
       style="opacity:1"
       transform="matrix(1.1128126,0,0,1.1128126,-56.185481,-21.363935)"><path
         style="baseline-shift:baseline;display:inline;overflow:visible;vector-effect:none;fill:none;stroke:#000000;stroke-opacity:1;enable-background:accumulate;stop-color:#000000;stop-opacity:1"
         d="m 401.50195,88.486328 c -2.18275,-0.01238 -5.24219,0.01358 -8.91601,0.07031 -7.34766,0.11347 -17.14909,0.348179 -27.20508,0.640625 -10.05599,0.292445 -20.36372,0.641301 -28.7168,0.984375 -8.35308,0.343073 -14.63765,0.663576 -17.07617,0.955078 -2.85583,0.341387 -9.99295,0.334775 -16.75586,0.06055 -3.38145,-0.137114 -6.70221,-0.334341 -9.42773,-0.570313 -2.72552,-0.235971 -4.94628,-0.548499 -5.72657,-0.761719 -0.852,-0.232819 -2.07792,-0.215567 -3.19336,0.291016 -1.11543,0.506583 -2.25252,1.354453 -3.875,2.769531 -3.24495,2.830157 -8.40743,8.017959 -17.76757,17.541019 -11.28326,11.47966 -34.14489,35.25277 -50.83594,52.86132 -16.67803,17.59482 -36.29477,38.08126 -43.54883,45.47852 -5.87009,5.98598 -9.24667,9.52742 -11.41601,12.29492 -2.16935,2.7675 -3.12188,4.86691 -3.86524,7.38867 -2.05869,6.98395 -1.99218,8.9986 0.45703,15.42969 3.07829,8.08287 9.39084,14.55378 16.40821,16.2207 1.89806,0.45089 2.74186,0.80473 2.98632,0.91602 -0.42746,1.32011 -1.70006,6.02663 -2.96289,10.76367 -0.63428,2.37928 -1.24888,4.71264 -1.70898,6.4961 -0.23005,0.89173 -0.42124,1.64591 -0.5586,2.20507 -0.0687,0.27959 -0.12453,0.50973 -0.16601,0.69336 -0.0415,0.18364 -0.0676,0.12927 -0.0996,0.57813 -0.0216,0.30287 0.0387,0.85873 0.43555,1.31836 0.3968,0.45963 0.94934,0.60472 1.25781,0.625 0.61694,0.0405 0.74176,-0.0968 0.87695,-0.1543 0.27039,-0.11503 0.36668,-0.19098 0.5,-0.2793 0.26666,-0.17662 0.54925,-0.38957 0.90039,-0.66601 0.70228,-0.55288 1.63404,-1.33392 2.66407,-2.23828 3.99721,-3.5096 8.63503,-5.53125 11.71679,-5.53125 0.28952,0 0.31968,0.0124 0.50391,0.0215 -0.0375,0.50291 -0.14335,1.27634 -0.30078,2.32617 -0.76254,5.08492 0.8244,10.36998 4.49414,15.85352 0.41732,0.62359 0.58196,1.10913 1.43164,1.71094 0.21242,0.15045 0.50662,0.32252 0.9375,0.39062 0.43087,0.0681 0.98322,-0.0355 1.36133,-0.25976 0.75621,-0.44855 0.9028,-0.96126 1.05273,-1.36524 0.59973,-1.61589 0.73972,-3.86776 1.28516,-8.7793 0.59487,-5.35659 1.567,-10.41613 2.58984,-14.04687 0.51142,-1.81537 1.04471,-3.28124 1.49024,-4.17383 0.15897,-0.3185 0.26269,-0.44875 0.36523,-0.59375 0.10415,0.0138 0.0702,0.009 0.19336,0.0293 0.43145,0.0725 1.00727,0.18052 1.67383,0.31445 1.3331,0.26786 3.03138,0.6393 4.75195,1.04492 3.558,0.8388 8.47703,1.75344 11.20313,2.07227 2.41879,0.28288 7.023,1.15452 9.94531,1.89062 3.10736,0.78272 7.58533,1.68736 10.1914,2.05079 2.3617,0.32934 7.3364,1.26194 10.85938,2.04296 3.62011,0.80258 7.81048,1.6015 9.68359,1.81641 1.41015,0.16179 6.70134,1.10133 11.34766,2.04297 13.52258,2.74054 27.00714,5.39642 33.5293,6.60351 3.29429,0.60969 10.60859,1.9798 16.24414,3.04297 10.67472,2.01382 18.59342,3.47706 23.8789,4.41407 2.64274,0.4685 4.62556,0.80636 5.98047,1.01562 0.67746,0.10463 1.19356,0.17718 1.58594,0.2207 0.19619,0.0218 0.35591,0.0371 0.53516,0.043 0.0896,0.003 0.17788,0.006 0.33789,-0.01 0.16,-0.0154 0.38108,0.26836 1.17382,-0.55664 0.52522,-0.5466 0.3612,-0.51681 0.42383,-0.65235 0.0626,-0.13553 0.12149,-0.27762 0.19141,-0.45117 0.13984,-0.3471 0.31633,-0.81226 0.53906,-1.41797 0.44546,-1.21142 1.07296,-2.97623 1.88867,-5.3164 1.63142,-4.68034 4.01895,-11.66096 7.19922,-21.04688 2.97915,-8.79236 9.75497,-28.59467 15.05274,-43.99219 5.29885,-15.40068 10.52547,-30.62262 11.625,-33.85547 1.06577,-3.13358 3.0938,-8.32217 4.4375,-11.3496 1.43281,-3.22822 3.83927,-9.57046 5.43554,-14.30469 5.49728,-16.30386 7.28557,-20.39299 8.63672,-21.85352 1.28748,-1.39169 2.56003,-3.50252 3.25391,-5.33398 0.26036,-0.68716 0.4855,-1.21838 0.61523,-1.88086 0.0649,-0.33124 0.11526,-0.72133 0.0117,-1.20899 -0.10354,-0.48765 -0.43832,-1.04145 -0.84375,-1.36328 -0.81085,-0.64365 -1.48785,-0.63633 -2.21875,-0.6875 -0.7309,-0.0512 -1.58713,-0.0469 -2.71289,-0.0469 -2.31525,0 -3.42886,-0.53805 -3.46875,-0.58203 -0.0199,-0.022 -0.0209,0.0888 0.002,-0.16407 0.0229,-0.25287 0.18147,-0.80545 0.57618,-1.54296 0.49722,-0.92907 0.97417,-1.68487 0.77929,-2.92188 -0.0974,-0.6185 -0.48703,-1.24024 -0.90625,-1.59766 -0.41922,-0.35741 -0.83013,-0.53868 -1.23828,-0.69531 -0.011,-0.004 -0.31134,-0.34449 -0.35351,-0.82031 -0.0211,-0.23791 0.0283,-0.44772 0.0508,-0.49805 0.0225,-0.0503 -0.073,0.0816 -0.17969,0.11719 0.45767,-0.15255 1.00636,-0.46977 1.36914,-1.01367 0.36278,-0.5439 0.44849,-1.1924 0.40234,-1.69336 -0.0923,-1.00192 -0.49623,-1.71178 -1.04297,-2.63281 -0.18151,-0.30578 -0.18225,-0.39003 -0.26367,-0.59571 0.46425,-0.20557 0.98661,-0.40443 1.36524,-0.63086 0.66199,-0.39588 1.28976,-0.83629 1.67968,-1.70117 0.38993,-0.86488 0.15738,-2.02705 -0.2871,-2.68359 -0.44449,-0.65654 -0.98968,-1.08639 -1.64063,-1.54492 -1.19456,-0.84145 -1.37579,-1.33304 -1.38086,-1.44336 -0.005,-0.11032 0.15532,-0.68576 1.27734,-1.70117 1.341,-1.21359 2.25656,-2.5389 1.93555,-4.27344 -0.1605,-0.867272 -0.93411,-1.781247 -1.82617,-2.056643 -0.17235,-0.05321 -0.33376,-0.02403 -0.50195,-0.04687 0.29225,-0.625757 0.5644,-1.209801 1.01757,-2.142578 0.63995,-1.317204 1.14148,-2.58339 1.45704,-3.654297 0.15777,-0.535454 0.27188,-1.014761 0.32226,-1.50586 0.0252,-0.245549 0.0409,-0.492204 -0.002,-0.810546 -0.0428,-0.318343 -0.11922,-0.777434 -0.60156,-1.259766 -0.6753,-0.675298 -0.81659,-0.482848 -0.97266,-0.517578 -0.15607,-0.03473 -0.2665,-0.04903 -0.38672,-0.0625 -0.24043,-0.02694 -0.50106,-0.0425 -0.82226,-0.05664 -0.64242,-0.02829 -1.51019,-0.04264 -2.60157,-0.04883 z m -67.94338,25.380862 c 14.56077,0 22.84206,0.0493 27.69727,0.28125 4.8552,0.23196 6.02142,0.60768 6.87695,1.14258 0.88289,0.55199 1.21629,0.75989 1.78516,1.11523 -0.0171,0.0363 -0.0172,0.0423 -0.0352,0.0801 -0.45543,0.95577 -1.20259,2.40429 -2.20312,4.26953 -2.00106,3.73047 -5.02574,9.14717 -8.89844,15.91797 -1.57973,2.7619 -3.08615,5.46695 -4.24609,7.61328 -0.57997,1.07316 -1.07312,2.005 -1.44922,2.74219 -0.37611,0.73719 -0.60939,1.18976 -0.78516,1.67773 -0.0803,0.22289 0.0589,0.1295 -0.35547,0.27539 -0.41437,0.14589 -1.39196,0.28516 -2.92187,0.28516 -1.35963,0 -2.77067,0.18067 -4.04492,0.47851 -1.27426,0.29785 -2.36727,0.63119 -3.32227,1.35352 -0.64409,0.48716 -1.68342,0.86792 -5.10742,0.93555 -3.424,0.0676 -8.99038,-0.21078 -18.12891,-0.81446 -6.38385,-0.4217 -20.06575,-1.01121 -30.5039,-1.31836 -7.79186,-0.22928 -12.55974,-0.44104 -15.34961,-0.73632 -1.39494,-0.14765 -2.29725,-0.326 -2.74414,-0.47266 -0.4469,-0.14666 -0.30081,-0.16578 -0.18946,0.0332 -0.70912,-1.26714 -1.8634,-1.87254 -3.15234,-2.16601 0.50205,-0.60139 0.97884,-1.18059 1.60742,-1.89649 1.91037,-2.17573 7.86199,-9.07386 13.26367,-15.37304 7.61607,-8.8815 10.46167,-11.27527 12.33985,-11.75586 2.12768,-0.54445 4.53556,-1.50549 6.05859,-2.57227 -0.021,0.0147 1.95486,-0.61235 7.05273,-0.82031 5.09787,-0.20796 13.39121,-0.27539 26.75586,-0.27539 z m 62.4375,7.61523 0.23633,1.41406 c 0.40753,2.43738 0.91127,4.61126 1.45508,6.33008 0.13402,0.42361 0.2833,0.73685 0.42383,1.10547 -0.31522,-0.0382 -0.63348,-0.0443 -0.84766,0.0273 -0.98305,0.32876 -1.11432,0.74567 -1.41992,1.1543 -1.22239,1.63452 -2.66281,4.75823 -4.61328,9.63477 -2.14273,5.3572 -4.47617,11.12211 -5.14844,12.7207 -0.72109,1.71468 -2.48956,6.18845 -3.97461,10.05078 -1.47352,3.83232 -3.29078,8.3689 -3.9707,9.92774 -0.75946,1.74117 -2.54219,6.20458 -4.0293,10.07226 -1.47352,3.83232 -3.29078,8.3689 -3.9707,9.92774 -0.75606,1.73338 -2.54469,6.17897 -4.03711,10.01953 -1.47949,3.80728 -3.30978,8.33978 -4.00586,9.93164 -0.77317,1.76815 -2.55682,6.23316 -4.03125,10.07617 -1.46062,3.80702 -3.2705,8.33911 -3.95898,9.92969 -2.03365,4.69823 -4.16569,10.09444 -5.85938,14.71875 -0.0968,0.26418 -0.0919,0.32833 -0.18555,0.58593 0.5205,-1.88857 1.05531,-3.82271 1.51368,-5.3164 0.60959,-1.98651 1.25443,-3.67418 1.24804,-3.66211 0.71038,-1.34255 1.97717,-4.61196 3.18555,-7.95117 1.18954,-3.28718 2.78146,-7.57262 3.51562,-9.46094 0.75788,-1.9493 2.54407,-6.66531 3.98438,-10.52148 1.43463,-3.84099 3.24024,-8.57901 3.98828,-10.46875 0.77575,-1.95973 2.48214,-6.44789 3.81641,-10.03321 1.32665,-3.56485 3.79285,-10.09296 5.47265,-14.48633 1.6832,-4.40224 4.68386,-12.27536 6.66992,-17.50195 1.98529,-5.22452 4.89451,-12.87578 6.46485,-17 1.57076,-4.12533 4.56274,-11.98456 6.64844,-17.4668 z m -8.39062,44.60742 c -1.39311,3.96639 -2.89601,8.19263 -3.82031,10.89453 -1.68723,4.93204 -4.70032,13.485 -6.6836,18.97071 -1.99538,5.5192 -3.972,11.24259 -4.5039,13.12109 -0.3931,1.3883 -2.68618,8.07054 -4.96485,14.37891 -2.2872,6.33194 -5.00321,13.97148 -6.05273,17.02734 -1.03035,3 -3.96661,11.33489 -6.51172,18.48047 -2.55286,7.1673 -5.30024,15.21118 -6.16602,18.08398 -0.36382,1.20722 -0.77014,2.35045 -1.14062,3.31055 -0.60532,-2.09828 -1.21362,-5.68273 -1.67969,-10.57422 -0.32591,-3.42051 -0.3275,-5.14782 -0.33594,-7.09765 l 2.08203,0.64062 1.62696,-3.5 c 0.92707,-1.99396 2.23855,-5.13154 2.98047,-7.13281 1.6431,-4.43212 8.44004,-21.14089 9.48047,-23.36328 0.61532,-1.31436 2.21148,-5.17356 4.39648,-10.54883 2.185,-5.37527 4.91529,-12.17584 7.63867,-19.05078 4.42464,-11.16963 9.71744,-24.28915 11.48242,-28.46289 0.38196,-0.90322 1.36746,-3.25881 2.17188,-5.17774 z m -208.4336,59.23828 c 1.85034,0.05 3.76031,0.19666 5.54102,0.45118 3.78339,0.54075 14.04898,1.92731 22.85352,3.08789 3.45353,0.45523 6.40431,0.88597 10.20312,1.40429 -2.52943,-0.32934 -5.81199,-0.7361 -7.73047,-0.99218 -11.29127,-1.50717 -18.42106,-2.35225 -22.84179,-2.61524 -2.21037,-0.13149 -3.72056,-0.1371 -4.91797,0.0664 -0.59871,0.10175 -1.14307,0.23759 -1.70899,0.63281 -0.56592,0.39522 -1.07031,1.26341 -1.07031,2.00586 0,0.67627 0.33376,1.35323 0.73047,1.77148 0.39671,0.41826 0.83192,0.66761 1.29883,0.88086 0.9338,0.42651 2.06494,0.70589 3.59961,0.97852 3.06933,0.54525 7.71801,0.98838 14.55078,1.45117 3.75631,0.25443 12.10561,1.12202 18.39648,1.91602 6.35935,0.80265 14.8906,1.6942 19.09766,1.99414 4.03952,0.28799 12.60918,1.19571 18.89844,2.0039 6.36258,0.81763 15.34885,1.77099 20.09375,2.12891 4.60673,0.3475 12.26672,1.19251 16.875,1.86328 4.72182,0.68729 9.71192,1.26304 11.75,1.27539 0.29304,0.002 0.5225,-0.002 0.80859,-0.041 0.14339,-0.0198 0.29313,-0.0311 0.58594,-0.1543 0.1464,-0.0616 0.3425,-0.14825 0.58984,-0.38867 0.24734,-0.24042 0.54164,-0.73269 0.55664,-1.26367 0.03,-1.06198 -0.56002,-1.39866 -0.77539,-1.55664 -0.0991,-0.0727 -0.14462,-0.0828 -0.21484,-0.1211 5.72286,0.80845 6.02558,0.72173 14.02148,1.90235 7.62447,1.12578 15.31883,2.14339 17.64649,2.29296 1.9124,0.1229 3.31269,0.18729 4.20312,0.28321 0.47123,0.0508 0.31676,-0.006 0.44141,0.0293 -0.13951,0.53922 -0.43156,1.39452 -0.83399,2.6543 -0.81848,2.56219 -2.084,6.11863 -2.74023,7.71875 -0.21391,0.52157 -0.36375,0.99048 -0.51172,1.46484 -0.64091,-0.18627 -1.16517,-0.3762 -2.02734,-0.5664 -2.9386,-0.64828 -7.20729,-1.34758 -12.55274,-2.04883 -5.92712,-0.77755 -35.79993,-5.28441 -46.89453,-7.11133 -4.9856,-0.82096 -11.15511,-1.68761 -13.92188,-1.94726 -2.42763,-0.22783 -9.39159,-1.34633 -15.12695,-2.45313 -2.92631,-0.56472 -5.99572,-1.06024 -8.60937,-1.4082 -2.61365,-0.34796 -4.66499,-0.56289 -6.00196,-0.51367 -0.63124,0.0232 -1.13763,0.0506 -1.54882,0.0879 -0.4112,0.0373 -0.56849,-0.0265 -1.2168,0.24414 -0.16208,0.0676 -0.40259,0.12701 -0.75195,0.55469 -0.34936,0.42767 -0.46391,1.58166 -0.1504,2.10156 0.31352,0.51989 0.57885,0.60972 0.74415,0.69726 0.16529,0.0875 0.27624,0.12527 0.37695,0.15821 0.40283,0.13174 0.70037,0.17016 1.1543,0.23632 1.26808,0.18484 6.04971,1.00874 10.43945,1.80274 4.41143,0.79794 13.40857,2.38058 20.01367,3.52148 19.1895,3.31461 34.21177,5.98149 45.47852,8.07422 5.78379,1.07432 11.5353,2.10402 13.06836,2.32813 2.65621,0.3883 7.24225,0.80747 11.3125,1.03125 2.03512,0.11189 3.92672,0.17366 5.40234,0.15039 0.50894,-0.008 0.90623,-0.0448 1.32031,-0.0781 0.22466,0.40867 0.43872,0.81121 0.72656,1.25 0.81978,1.24968 1.01151,1.80066 1.01368,1.8418 0.002,0.0411 -0.0564,0.32244 -0.74219,1.36914 -0.69803,1.06533 -1.22098,2.08273 -1.31445,3.26953 -0.0935,1.1868 0.2681,2.27189 0.79296,3.42383 0.45801,1.00516 0.53967,3.03049 0.50782,3.13086 -0.47524,1.49731 -0.23959,2.9791 0.32422,4.38086 -0.5857,-0.0427 -1.93777,-0.22543 -3.64844,-0.54492 -1.82429,-0.34072 -3.9857,-0.79886 -6.01563,-1.28516 -4.18788,-1.00325 -9.52335,-2.05614 -12.16992,-2.38086 -2.29773,-0.28193 -6.82518,-1.17047 -9.76953,-1.92969 -3.1211,-0.80479 -7.13258,-1.63033 -9.27148,-1.88086 -1.7304,-0.20266 -7.21221,-1.16119 -11.85547,-2.09179 -4.68344,-0.93866 -13.23118,-2.6165 -19.01172,-3.73242 -5.7735,-1.11456 -14.77488,-2.85931 -19.99805,-3.87696 -12.23733,-2.38425 -29.9782,-5.77999 -37.01562,-7.08398 -4.35225,-0.80644 -6.39047,-1.35473 -6.78907,-1.51563 0.0676,-0.23958 0.11365,-0.43228 0.31836,-1.01953 0.24901,-0.7143 0.43885,-1.17432 0.5293,-1.32226 0.0905,-0.14795 -0.054,-0.022 0.0469,-0.0566 0.2018,-0.0694 1.73857,-0.11378 4.77149,0.11328 2.35926,0.17662 3.59413,0.28952 4.67578,0.13867 0.27041,-0.0377 0.54914,0.0785 1.22461,-0.52539 0.0902,-0.0807 0.0774,-0.31505 0.16211,-0.45117 11.13904,1.41373 18.01773,2.42975 24.89062,3.75586 h 0.002 c 5.10741,0.98536 9.22355,1.48818 11.36914,1.48632 0.5364,-4.6e-4 0.79653,0.11771 1.62304,-0.24218 0.20663,-0.09 0.51092,-0.22189 0.82227,-0.66016 0.31135,-0.43827 0.40215,-1.2698 0.2207,-1.74609 -0.36288,-0.9526 -0.75558,-0.95919 -1.0039,-1.09571 -0.9933,-0.54605 -2.08204,-0.77665 -4.29688,-1.27343 -3.37956,-0.75804 -8.30896,-1.6312 -11.17969,-1.97461 -2.61886,-0.31329 -7.66644,-1.22222 -10.97656,-1.98438 -3.50361,-0.80672 -8.82813,-1.69325 -12.10742,-2.01172 -1.99297,-0.19354 -3.5292,-0.38444 -4.60937,-0.59179 -0.75729,-0.14537 -0.9518,-0.25924 -1.2129,-0.36524 0.12971,-0.23469 0.18492,-0.39055 0.56446,-0.87305 0.60414,-0.76804 1.07325,-1.37875 1.4375,-1.91211 0.36425,-0.53335 0.65821,-0.93102 0.82422,-1.6582 0.083,-0.36359 0.11677,-0.89164 -0.1211,-1.42773 -0.23786,-0.53609 -0.71294,-0.91155 -1.07617,-1.08203 -0.72645,-0.34098 -1.16358,-0.29108 -1.6582,-0.29883 -1.93388,-0.0303 -6.87434,-0.67612 -11.25977,-1.42969 -2.19271,-0.37678 -4.28057,-0.77942 -5.85351,-1.13477 -0.78647,-0.17767 -1.44682,-0.34511 -1.90039,-0.48046 -0.45358,-0.13536 -0.86469,-0.47539 -0.36719,-0.0625 -0.27866,-0.23127 -0.51166,-0.41795 -0.81836,-0.59961 -0.15335,-0.0908 -0.31998,-0.18818 -0.61719,-0.27149 -0.2972,-0.0833 -0.84901,-0.18566 -1.47656,0.16211 -0.62755,0.34777 -0.90669,1.03394 -0.96094,1.4043 -0.0542,0.37035 -0.0128,0.5849 0.0215,0.77148 0.0685,0.37317 0.16787,0.64081 0.29296,0.9668 -0.13215,-0.3444 -0.009,0.0211 -0.17187,0.49219 -0.16303,0.47108 -0.48524,1.06485 -0.86133,1.52929 -0.43183,0.53329 -0.7404,0.87436 -0.91406,1.01954 -0.17366,0.14517 -0.1546,0.12898 -0.28711,0.15039 -0.26503,0.0428 -1.42507,-0.107 -3.73047,-0.6875 -1.7634,-0.44403 -3.07467,-0.70233 -4.19336,-0.73633 -0.55934,-0.017 -1.08314,0.004 -1.66992,0.2207 -0.58678,0.21649 -1.28475,0.79761 -1.5293,1.53125 0.11776,-0.35329 0.20534,-0.29858 0.10547,-0.24414 -0.0999,0.0544 -0.31012,0.11442 -0.45508,0.11719 -0.51492,0.01 -0.95675,0.0198 -1.55859,0.31054 -0.30092,0.14537 -0.67986,0.40122 -0.94531,0.86329 -0.26546,0.46206 -0.30973,1.07545 -0.21094,1.49218 0.19757,0.83348 0.58859,1.11512 0.91602,1.39844 0.32742,0.28332 0.6765,0.50918 1.07031,0.73438 1.57522,0.90079 3.90271,1.74512 6.35156,2.13671 l 1.07617,0.17188 -0.38281,0.51758 c -0.74243,1.00419 -1.27754,1.47827 -1.60938,1.65234 -0.33183,0.17407 -0.55641,0.21827 -1.27539,0.0879 -6.46739,-1.17276 -10.26367,-4.91723 -13.2832,-13.55859 l -1.51172,-4.32422 c 1.95743,-0.12285 3.5176,-1.20641 4.97461,-2.47266 0.7706,-0.6697 1.46631,-1.40325 2.01758,-2.18554 0.40116,-0.56928 0.69904,-1.20101 0.86914,-1.91993 0.10659,-0.0502 0.17896,-0.0943 0.43945,-0.17187 0.77368,-0.23028 2.07864,-0.45017 3.61914,-0.57813 1.54051,-0.12795 3.33131,-0.17495 5.18164,-0.125 z"
         id="path17"
         sodipodi:nodetypes="csssssssssssssssscsssssssssssscsssssssssccsssssssssssssscsssssssssssssssssssssscsscssscsssssssscssscssssccsssccssssssssssssssccssscsssccsccsssssssssssscscsssssssssccssssssscscccsssssccsscssssssssssssssccsssscssscsscsssssssssssssssssssscscsssccssssssssscsscssscccsssssssssscssssssssscsssscccsssssccscssssscccssccssccscc" /></g><g
       id="text1"
       inkscape:label="Text"
       style="opacity:1"><path
         id="path4"
         style="font-size:99.2749px;font-family:'New Rocker';-inkscape-font-specification:'New Rocker';letter-spacing:0px;baseline-shift:baseline;white-space:pre;display:inline;overflow:visible;vector-effect:none;enable-background:accumulate;stop-color:#000000;stop-opacity:1;fill:none;stroke:#000000;stroke-opacity:1"
         d="M 435.84375 337.14453 L 433.9375 340.95703 C 433.3855 342.06104 432.65799 343.36029 431.75977 344.83594 L 431.73828 344.87305 L 431.7168 344.91016 C 430.88489 346.38199 429.98887 347.85664 429.02539 349.33398 L 429.01758 349.3457 L 429.00781 349.35742 C 428.0854 350.80691 427.19713 352.18995 426.3418 353.50586 L 426.31641 353.54688 L 426.29102 353.58594 C 425.49349 354.91514 424.86113 355.9811 424.38867 356.79102 L 423.24414 358.75586 L 425.01953 360.17578 C 425.9175 360.89415 426.51779 361.4986 426.76953 361.82227 L 426.86914 361.95117 L 426.98633 362.06641 C 427.63224 362.71231 428.47289 363.44232 429.57031 364.33398 L 431.41406 365.83203 L 433.0957 364.15234 C 433.53818 363.70987 433.98954 363.26227 434.44922 362.81055 L 434.46094 369.86914 C 433.79671 370.0194 433.11126 370.17129 432.40625 370.32617 C 429.73308 370.84764 427.26378 371.27063 425.00195 371.59375 L 422.74023 371.91602 L 422.74023 377.02539 L 426.41211 378.61328 L 426.41211 403.14648 L 418.67773 403.14648 L 418.67773 400.60938 C 418.67773 397.18475 418.71019 394.32605 418.77539 392.04688 C 418.84049 389.76932 418.90607 387.86312 418.9707 386.30273 C 419.09693 384.7929 419.22195 383.58247 419.3418 382.67188 C 419.52425 381.70803 419.73206 380.80984 419.9668 379.98828 L 420.57812 377.84375 L 418.56445 376.88672 C 417.2335 376.25294 416.07907 375.6564 415.09375 375.10352 C 414.10319 374.4836 413.1416 373.86621 412.21289 373.24805 L 412.20117 373.24023 C 411.35628 372.63623 410.5056 371.9676 409.64844 371.23438 C 408.73812 370.38887 407.73546 369.45173 406.63086 368.41211 L 404.71875 366.61133 L 402.91211 368.51758 C 400.59212 370.96646 398.35216 373.07626 396.20117 374.84766 C 395.22752 375.64948 393.96336 376.46542 392.86523 377.27344 L 392.86523 373.47266 L 389.69922 368.19336 L 387.80469 368.66797 C 385.73346 369.18578 383.35543 369.73964 380.68555 370.32617 C 378.01238 370.84764 375.54113 371.27063 373.2793 371.59375 L 371.01758 371.91602 L 371.01758 377.02539 L 374.69141 378.61328 L 374.69141 403.14648 L 364.33984 403.14648 L 371.08203 382.57617 L 370.01953 381.4375 C 369.5663 380.95189 369.12959 380.08737 368.91602 378.59961 C 368.66987 376.81239 368.54297 374.9155 368.54297 372.91016 L 368.54297 372.42188 L 372.4043 366.62891 L 365.33203 368.80469 C 362.84526 369.56985 360.32755 370.20572 357.77734 370.7168 C 355.22182 371.16294 352.70339 371.48285 350.2207 371.67383 L 347.93555 371.84961 L 347.58203 377.51172 L 349.20117 378.27344 C 349.70496 378.51051 350.02198 378.80983 350.35742 379.64844 L 350.37891 379.69922 L 350.40234 379.75 C 350.72825 380.47423 351.0625 382.17528 351.0625 384.625 C 351.0625 386.42317 350.93766 388.59221 350.67969 391.10742 C 350.42403 393.53382 350.03941 396.03344 349.52539 398.60352 L 349.51953 398.63477 L 349.51367 398.66602 C 349.067 401.21839 348.49449 403.66716 347.79688 406.01367 L 347.79102 406.03516 L 347.78125 406.05859 C 347.40915 407.39817 346.94227 408.25652 346.50391 409.27344 L 345.04883 408.48828 C 345.07563 407.53938 345.11328 406.57144 345.11328 405.67188 L 345.11328 401.40234 C 345.11328 394.18687 344.78086 387.87784 344.10352 382.44531 L 344.10156 382.43555 C 343.4814 376.93031 342.41247 372.79196 340.38281 369.83203 L 338.77734 367.49414 L 336.5625 369.26562 C 336.19819 369.55708 335.36358 370.05473 334.18164 370.58984 C 332.94136 371.0843 331.57021 371.58331 330.06445 372.08594 C 328.61395 372.52683 327.13114 372.93839 325.61523 373.31836 C 324.1034 373.63215 322.82146 373.84879 321.81836 373.9668 L 320.07617 374.17383 L 320.54688 371.62109 L 316.79102 372.30469 C 316.17185 372.41725 315.5125 372.50098 314.82031 372.56055 L 311.70312 372.56055 C 309.30214 372.56055 306.63739 372.31262 303.7168 371.80469 C 300.87321 371.31015 297.16859 370.31791 292.68164 368.82227 L 289.21289 367.66797 L 289.21289 370.1543 C 286.60566 372.66925 283.94865 374.82324 281.23047 376.52344 C 278.25306 378.31964 275.65172 379.36429 273.51367 379.74805 L 269.15625 380.53125 L 271.74414 383.76562 C 271.76364 383.79872 271.80994 383.87579 271.84961 384.00977 C 271.93921 384.31208 272.05801 384.82488 272.17969 385.49414 C 272.4262 386.84994 272.6522 388.5377 272.8457 390.53711 L 272.85156 390.58008 L 272.85547 390.62109 C 273.11122 392.60324 273.30636 394.72556 273.43555 396.98633 L 273.43555 396.98828 L 273.43555 396.99023 C 273.56533 399.19663 273.62891 401.2311 273.62891 403.08984 C 273.62891 403.10897 273.62892 403.1274 273.62891 403.14648 L 266.78516 403.14648 L 266.78516 401.60156 C 266.78516 398.17692 266.81761 395.31823 266.88281 393.03906 C 266.94781 390.7615 267.01348 388.8553 267.07812 387.29492 C 267.20434 385.78509 267.32938 384.57466 267.44922 383.66406 C 267.63166 382.70022 267.83949 381.80203 268.07422 380.98047 L 268.68555 378.83789 L 266.67383 377.87891 C 265.34287 377.24511 264.18651 376.64859 263.20117 376.0957 C 262.19841 375.46816 261.22647 374.84255 260.28711 374.2168 C 259.44536 373.61402 258.59807 372.94781 257.74414 372.2168 C 256.8367 371.37391 255.83845 370.43975 254.73828 369.4043 L 252.82617 367.60352 L 251.01953 369.50977 C 248.69954 371.95865 246.45957 374.0704 244.30859 375.8418 C 243.33546 376.64319 242.07209 377.45806 240.97461 378.26562 L 240.97461 356.63086 C 240.97461 353.31951 241.2001 350.43312 241.62695 347.98242 C 242.09429 345.66851 242.86952 343.99213 243.83789 342.83008 L 240.68359 338.76367 C 238.00576 340.03883 235.51436 341.014 233.22266 341.69531 L 233.21289 341.69727 L 233.20312 341.70117 C 231.03571 342.36344 229.01434 342.67773 227.12305 342.67773 C 225.5638 342.67773 224.30285 342.47202 223.32812 342.13086 L 216.98438 339.91016 L 220.12891 345.84961 C 220.67791 346.88662 221.12577 347.87772 221.47852 348.81836 C 221.81859 349.72521 222.07325 350.65856 222.24414 351.62695 L 222.25781 351.70117 L 222.27539 351.77344 C 222.49857 352.72198 222.64577 353.78873 222.70508 354.97461 C 222.76858 356.24358 222.80078 357.69111 222.80078 359.31055 L 222.80078 403.14648 L 214.56836 403.14648 L 214.56836 373.47266 L 211.40234 368.19336 L 209.50781 368.66797 C 209.05702 368.78067 208.59117 368.89564 208.11133 369.01172 L 207.95508 363.14453 C 208.91618 361.31543 209.99637 359.85869 211.17383 358.73242 L 211.17578 358.73242 L 211.17578 358.73047 C 212.64597 357.32154 214.46597 355.84261 216.63086 354.31445 L 220.01172 351.92773 L 216.41797 349.875 C 216.05056 349.66505 215.38059 349.25221 214.52148 348.70117 C 213.6945 348.06636 212.81465 347.40464 211.875 346.71484 C 210.99214 346.02117 210.14237 345.32979 209.32422 344.63867 C 208.61998 343.99066 208.12229 343.45081 207.88672 343.13672 L 206.53125 341.33008 L 204.53906 342.39258 C 202.2385 343.61955 200.1607 345.33227 198.32227 347.46484 L 198.32031 347.4668 L 198.31836 347.46875 C 196.63751 349.42975 195.1862 351.44294 193.97461 353.50977 L 192.86133 355.41016 L 194.5332 356.84375 C 195.05924 357.29464 195.74587 357.84177 196.62695 358.51953 C 197.47957 359.17539 198.36709 359.86501 199.28711 360.58789 C 200.16574 361.27824 200.97439 361.96383 201.71484 362.64258 L 201.79883 362.71875 L 201.88867 362.78906 C 202.66883 363.38918 203.19223 363.88345 203.38086 364.10352 L 203.44531 364.17773 L 203.60156 370.05664 C 203.20377 370.14551 202.79837 370.23574 202.38672 370.32617 C 199.71355 370.84764 197.24425 371.27063 194.98242 371.59375 L 192.7207 371.91602 L 192.7207 377.02539 L 196.39258 378.61328 L 196.39258 403.14648 L 188.6582 403.14648 L 188.6582 400.60938 C 188.6582 397.18475 188.69066 394.32605 188.75586 392.04688 C 188.82096 389.76932 188.88654 387.86312 188.95117 386.30273 C 189.0774 384.7929 189.20242 383.58247 189.32227 382.67188 C 189.50471 381.70803 189.71254 380.80984 189.94727 379.98828 L 190.55859 377.84375 L 188.54492 376.88672 C 187.21397 376.25294 186.05954 375.6564 185.07422 375.10352 C 184.08365 374.4836 183.12206 373.86621 182.19336 373.24805 L 182.18164 373.24023 C 181.33675 372.63623 180.48608 371.96761 179.62891 371.23438 C 178.71859 370.38887 177.71592 369.45173 176.61133 368.41211 L 174.69922 366.61133 L 172.89258 368.51758 C 170.57258 370.96646 168.33262 373.07626 166.18164 374.84766 C 165.20799 375.64948 163.94383 376.46542 162.8457 377.27344 L 162.8457 373.47266 L 159.67969 368.19336 L 157.78516 368.66797 C 155.71392 369.18578 153.3359 369.73964 150.66602 370.32617 C 147.99285 370.84764 145.52159 371.27063 143.25977 371.59375 L 140.99805 371.91602 L 140.99805 377.02539 L 144.67188 378.61328 L 144.67188 403.14648 L 135.17969 403.14648 C 135.16651 402.99692 135.15416 402.84744 135.14258 402.69727 C 135.01481 400.97245 134.95117 399.28407 134.95117 397.63086 C 134.95117 395.38543 135.01677 393.41751 135.14062 391.72461 C 135.32661 390.09575 135.63109 388.96004 135.70703 388.79297 L 136.65039 386.71875 L 134.73242 385.48633 C 133.79519 384.88382 132.79386 384.24909 131.72656 383.58203 C 130.68213 382.92926 129.60497 382.27819 128.5 381.62695 C 127.60125 381.00846 126.73664 380.3924 125.88867 379.77539 C 125.95987 379.73369 126.03652 379.69209 126.10742 379.65039 C 127.20529 379.00458 128.23229 378.42546 129.1875 377.91602 C 130.14539 377.40514 130.96232 376.99777 131.61914 376.69922 C 132.33073 376.37577 132.84915 376.15136 133.0957 376.05273 L 135.52344 375.08203 L 134.57031 372.64648 C 134.04446 371.30264 133.59282 369.73361 133.22266 367.95703 C 132.92229 366.13702 132.76562 364.25144 132.76562 362.28906 C 132.76562 360.9528 132.85832 359.57748 133.04297 358.16211 L 133.04297 358.1543 L 133.04297 358.14844 C 133.22506 356.69179 133.50108 355.27007 133.86133 353.87891 C 134.27244 352.53879 134.789 351.29985 135.41797 350.15625 L 135.43164 350.13281 L 135.44336 350.10938 C 136.07058 348.91195 136.79412 347.8894 137.61328 347.01562 L 141.77344 342.57812 L 134.59961 342.57812 C 132.84828 342.57813 131.22873 342.803 129.75195 343.32422 C 128.56594 343.74281 127.46386 344.20198 126.44531 344.70703 C 125.52134 345.10369 124.62882 345.50004 123.76562 345.89844 C 123.25534 346.13395 122.73129 346.25195 122.08984 346.25195 L 120.75391 346.25195 C 120.16701 346.19155 119.46225 346.1045 118.61914 345.98438 L 118.60938 345.98242 C 118.60237 345.98143 118.5988 345.98151 118.5918 345.98047 C 117.82653 345.86232 116.98785 345.70973 116.0957 345.5332 C 115.34162 345.31342 114.65236 345.05079 114.03516 344.74219 L 111.08594 349.04883 C 111.53459 349.45669 111.9233 349.9785 112.25781 350.69531 C 112.64112 351.51668 112.94605 352.40158 113.17188 353.36133 L 113.17578 353.37891 L 113.17969 353.39648 C 113.40369 354.29254 113.54656 355.22152 113.60352 356.18945 L 113.60742 356.26562 L 113.61719 356.3418 C 113.73905 357.3776 113.79686 358.33529 113.79688 359.21094 C 113.79688 361.17763 113.70198 363.00079 113.51562 364.67773 C 113.36656 365.97132 113.32958 366.93731 113.28711 367.92578 C 112.98037 368.21748 112.84604 368.34757 112.14453 369.00781 C 111.06753 370.02146 109.6382 371.28736 107.87305 372.79102 C 106.1497 374.25905 104.18555 375.80544 101.98828 377.42188 C 101.14656 378.01562 100.315 378.44069 99.476562 378.97461 C 99.520482 375.57798 99.563562 371.97376 99.607422 369.42578 C 99.737969 365.57462 99.965569 362.33318 100.2832 359.72852 C 100.59816 357.14588 101.0385 354.99363 101.56641 353.2832 C 102.16529 351.55497 102.97376 349.8058 104.01172 348.03516 L 106.83594 343.21875 L 101.32227 344.10156 C 99.7165 344.35849 98.448462 344.58216 97.419922 344.78516 L 97.417969 344.78516 C 96.460295 344.9128 95.608493 345.00868 94.869141 345.07031 C 94.153431 345.13001 93.398275 345.16016 92.605469 345.16016 L 89.330078 345.16016 C 87.810016 345.16016 86.53551 345.12581 85.494141 345.06641 C 84.469953 344.94381 83.543398 344.79641 82.734375 344.62305 C 81.867836 344.43736 80.998316 344.22096 80.128906 343.97266 L 80.126953 343.9707 L 80.125 343.9707 C 79.261884 343.70539 78.281301 343.40949 77.167969 343.08203 L 73.398438 341.97461 L 73.802734 345.88086 C 74.22668 349.97901 75.082977 353.16573 76.947266 355.49609 L 76.964844 355.51758 L 76.980469 355.53711 C 78.264415 357.07785 80.00829 358.14467 81.923828 358.9668 C 81.965518 359.62067 82.029297 360.18667 82.029297 360.99805 L 82.029297 361.06055 L 82.03125 361.12305 C 82.09611 362.48511 82.128906 363.60882 82.128906 364.47266 C 82.128906 367.30707 81.791249 370.02697 81.119141 372.6543 L 81.111328 372.68359 L 81.105469 372.71094 C 80.513454 375.2566 79.349603 378.20034 77.578125 381.49023 L 76.746094 383.03711 L 77.853516 384.40039 C 79.284333 386.16139 80.390187 388.46354 81.111328 391.4082 L 81.113281 391.41406 L 81.115234 391.41992 C 81.85618 394.38371 82.226562 397.44068 82.226562 400.60938 C 82.226562 402.24295 82.023368 403.91714 81.605469 405.64844 C 81.187338 407.38069 80.593962 409.00934 79.824219 410.54883 L 79.806641 410.58594 L 79.789062 410.62305 C 79.086427 412.14542 78.214948 413.5398 77.164062 414.82422 L 77.160156 414.83008 L 77.15625 414.83398 C 76.197674 416.01811 75.165443 416.9333 74.044922 417.62695 L 68.367188 421.14258 L 74.914062 422.45117 C 75.443765 422.55714 75.979922 422.60156 76.523438 422.60156 L 77.615234 422.60156 C 79.252004 422.60156 80.776052 422.49557 82.195312 422.27148 C 83.466859 422.07071 84.673882 421.86959 85.816406 421.66797 L 85.873047 421.6582 L 85.929688 421.64648 C 87.086057 421.38951 88.172433 421.166 89.191406 420.97461 C 90.168498 420.80218 91.139251 420.7168 92.109375 420.7168 C 93.135732 420.7168 94.208591 420.84951 95.341797 421.13281 L 95.355469 421.13672 L 95.371094 421.14062 C 96.498759 421.40911 97.880922 421.92679 99.46875 422.7207 L 104.46484 425.21875 L 103.21484 419.77539 C 102.31278 415.84499 101.63429 411.77996 101.18164 407.57812 L 101.18164 407.57422 C 100.77523 403.74179 100.47511 399.68958 100.22266 395.53906 L 110.19531 389.29883 C 111.29656 390.27904 112.42821 391.28382 113.37305 392.13867 L 113.42188 392.18359 L 113.47266 392.22461 C 114.14411 392.77399 114.6718 393.18726 115.14453 393.54297 C 115.03893 396.89753 114.94568 399.99545 114.88867 402.33203 C 114.82367 404.99543 114.69374 407.18207 114.50781 408.85547 L 114.50391 408.90039 L 114.5 408.94531 C 114.37754 410.5373 114.15146 411.72334 113.93164 412.38281 L 113.91406 412.4375 L 113.89844 412.49219 C 113.73614 413.06025 113.52797 413.38609 113.27734 413.63672 L 110.7168 416.19727 L 113.94141 417.8457 C 116.69674 419.25399 118.88558 420.86759 120.5625 422.66016 L 120.57812 422.67773 L 120.59375 422.69336 C 122.26747 424.42286 123.33638 426.37449 123.89453 428.71875 L 125.95312 437.35938 L 128.93945 428.99414 C 129.86359 426.40656 130.94951 424.32838 132.14062 422.74023 C 133.27453 421.22838 135.17455 419.49429 137.85938 417.68359 L 138.79883 417.05078 L 139.20703 414.5957 L 138.24805 413.63672 C 137.77021 413.15888 137.28977 412.4208 136.86523 411.37109 C 136.4813 410.26323 136.1382 409.03874 135.8457 407.68359 L 144.67188 407.68359 L 144.67188 411.5293 C 144.67188 413.13149 144.40882 414.2097 144.1543 414.71875 L 144.13867 414.75 L 144.125 414.7832 C 143.85827 415.35478 143.70994 415.41008 143.61133 415.45117 L 141.99023 416.12695 L 141.99023 422.00586 L 165.52734 422.00586 L 165.52734 416.04883 L 163.80664 415.41211 C 163.75814 415.39411 163.62916 415.40511 163.35352 414.66016 C 163.07787 413.9149 162.8457 412.53134 162.8457 410.63477 L 162.8457 391 L 171.07812 387.31836 L 171.07812 396.5625 L 171.07812 396.58398 C 171.14402 400.34103 171.17773 404.09843 171.17773 407.85547 C 171.17773 408.4238 171.11823 409.59479 170.98828 411.21875 C 170.85758 412.85245 170.6932 414.65587 170.49609 416.62695 C 170.3038 418.48411 170.04704 420.34042 169.72656 422.19922 L 169.72461 422.20703 L 169.72461 422.21484 C 169.40618 424.12541 169.05783 425.6842 168.70703 426.85352 L 168.25586 428.36133 L 171.89258 431.99805 L 173.75391 430.00586 C 174.615 429.08327 175.61467 428.11227 176.75391 427.09961 C 177.88489 426.09429 179.08284 425.11758 180.3457 424.16992 C 181.65404 423.23682 182.92358 422.40034 184.1543 421.66016 L 184.16211 421.65625 C 185.42772 420.93363 186.63765 420.37497 187.78711 419.97266 L 189.94922 419.21484 L 189.5 416.96875 C 189.3733 416.33526 189.24661 415.66671 189.11914 414.9668 C 189.01027 414.31351 188.91417 413.40279 188.85156 412.27734 L 188.85156 412.27539 C 188.78756 411.12283 188.72332 409.62291 188.6582 407.80664 L 188.6582 407.68359 L 196.39258 407.68359 L 196.39258 411.42969 C 196.39258 416.01469 197.6986 420.21734 200.28516 423.7168 L 201.07422 424.78711 L 203.28711 424.78711 L 203.65625 424.67578 C 205.60574 424.09094 207.48671 423.57169 209.29688 423.11914 C 211.06409 422.67734 212.9731 422.29467 215.02148 421.97461 L 217.25 421.62695 L 217.25 416.04883 L 215.5293 415.41211 C 215.4808 415.39411 215.34986 415.40511 215.07422 414.66016 C 214.79857 413.9149 214.56836 412.53134 214.56836 410.63477 L 214.56836 407.68359 L 222.80078 407.68359 L 222.80078 411.5293 C 222.80078 413.13149 222.53968 414.2097 222.28516 414.71875 L 222.26758 414.75 L 222.25391 414.7832 C 221.98717 415.35478 221.8408 415.41008 221.74219 415.45117 L 220.11914 416.12695 L 220.11914 422.00586 L 243.65625 422.00586 L 243.65625 416.04883 L 241.93555 415.41211 C 241.88705 415.39411 241.75807 415.40511 241.48242 414.66016 C 241.20678 413.9149 240.97656 412.53134 240.97656 410.63477 L 240.97656 391.99219 L 249.20703 388.3125 L 249.20703 397.55469 L 249.20703 397.57812 C 249.27293 401.33517 249.30664 405.09063 249.30664 408.84766 C 249.30664 409.41599 249.24714 410.58893 249.11719 412.21289 C 248.98672 413.84367 248.82163 415.64438 248.625 417.61133 C 248.43261 419.47103 248.17639 421.332 247.85547 423.19336 L 247.85547 423.19922 L 247.85352 423.20703 C 247.53508 425.1176 247.18673 426.67834 246.83594 427.84766 L 246.38477 429.35352 L 250.02148 432.99219 L 251.88281 430.99805 C 252.7439 430.07545 253.74357 429.10445 254.88281 428.0918 C 256.0077 427.0919 257.19974 426.12059 258.45508 425.17773 C 259.77565 424.23511 261.05727 423.39073 262.29883 422.64453 C 263.23775 422.10887 264.1126 421.75239 264.98828 421.39453 L 274.09961 419.57227 C 274.26488 419.53917 274.42096 419.52539 274.57617 419.52539 L 274.79492 419.52539 L 275.00977 419.48828 C 275.26635 419.44548 275.51689 419.42578 275.76758 419.42578 C 276.94831 419.42578 278.59204 419.57328 280.62305 419.89062 C 282.6615 420.20914 284.70146 420.62214 286.74414 421.13281 C 288.78638 421.64337 290.65337 422.18485 292.35352 422.75 C 293.98145 423.35694 295.066 423.96416 295.34375 424.19141 L 297.18945 425.70117 L 298.875 424.01367 C 300.16134 422.72733 301.61218 421.49262 303.23242 420.30859 L 303.25977 420.28906 L 303.28516 420.26953 C 304.89594 419.03047 306.56051 417.95217 308.2832 417.0293 C 310.02892 416.09409 311.76223 415.32013 313.48438 414.70508 C 315.18219 414.09872 316.74757 413.71998 318.17383 413.54883 L 320.93945 413.2168 L 320.45508 410.47461 C 320.29152 409.54776 320.13871 408.61835 319.99805 407.68359 L 326.91406 407.68359 C 326.89858 408.16919 326.87623 408.67035 326.8457 409.18945 L 326.83984 409.26758 L 326.83984 409.3457 C 326.83984 410.34973 326.80879 411.35307 326.74609 412.35742 C 326.68099 413.33328 326.61518 414.2098 326.55078 414.98242 L 326.36328 417.23828 L 328.56445 417.76562 C 331.45576 418.45702 334.24715 419.39677 336.94727 420.58984 C 339.66519 421.79079 341.89124 423.03675 343.61523 424.28516 L 344.30664 424.78711 L 347.05469 424.78711 L 360.71484 414.20898 L 362.85352 407.68359 L 374.69141 407.68359 L 374.69141 411.5293 C 374.69141 413.13149 374.42835 414.2097 374.17383 414.71875 L 374.1582 414.75 L 374.14453 414.7832 C 373.87779 415.35478 373.72947 415.41008 373.63086 415.45117 L 372.00977 416.12695 L 372.00977 422.00586 L 395.54688 422.00586 L 395.54688 416.04883 L 393.82617 415.41211 C 393.77767 415.39411 393.64869 415.40511 393.37305 414.66016 C 393.0974 413.9149 392.86523 412.53134 392.86523 410.63477 L 392.86523 391 L 401.09766 387.31836 L 401.09766 396.5625 L 401.09766 396.58398 C 401.16356 400.34103 401.19727 404.09843 401.19727 407.85547 C 401.19727 408.4238 401.13777 409.59479 401.00781 411.21875 C 400.87712 412.85245 400.71273 414.65587 400.51562 416.62695 C 400.32333 418.4841 400.06658 420.34042 399.74609 422.19922 L 399.74414 422.20703 L 399.74414 422.21484 C 399.42571 424.12541 399.07736 425.6842 398.72656 426.85352 L 398.27539 428.36133 L 401.91211 431.99805 L 403.77344 430.00586 C 404.63453 429.08326 405.6342 428.11227 406.77344 427.09961 C 407.90443 426.09429 409.10237 425.11758 410.36523 424.16992 C 411.67357 423.23682 412.94311 422.40034 414.17383 421.66016 L 414.18164 421.65625 C 415.44726 420.93363 416.65718 420.37497 417.80664 419.97266 L 419.96875 419.21484 L 419.51953 416.96875 C 419.39283 416.33526 419.26614 415.66671 419.13867 414.9668 C 419.02981 414.3135 418.9337 413.40279 418.87109 412.27734 L 418.87109 412.27539 C 418.80709 411.12283 418.74285 409.62291 418.67773 407.80664 L 418.67773 407.68359 L 426.41211 407.68359 L 426.41211 411.42969 C 426.41211 416.01469 427.71813 420.21734 430.30469 423.7168 L 431.09375 424.78711 L 433.30664 424.78711 L 433.67578 424.67578 C 435.62527 424.09094 437.50623 423.57169 439.31641 423.11914 C 441.08361 422.67734 442.99263 422.29467 445.04102 421.97461 L 447.26953 421.62695 L 447.26953 416.04883 L 445.54883 415.41211 C 445.50033 415.39411 445.36939 415.40511 445.09375 414.66016 C 444.81811 413.9149 444.58789 412.53134 444.58789 410.63477 L 444.58789 407.68359 L 452.82031 407.68359 L 452.82031 411.5293 C 452.82031 413.09668 452.59784 414.20355 452.35742 414.77344 C 452.117 415.34332 452.02861 415.34943 451.85938 415.41211 L 450.13867 416.04883 L 450.13867 422.00586 L 473.67578 422.00586 L 473.67578 416.04883 L 471.95508 415.41211 C 471.90658 415.39411 471.7776 415.40511 471.50195 414.66016 C 471.22631 413.9149 470.99609 412.53134 470.99609 410.63477 L 470.99609 400.78125 C 471.87061 401.20204 472.82037 401.57236 473.64648 402.02539 L 473.67383 402.04102 L 473.70508 402.05664 C 475.2679 402.86326 476.80253 403.84965 478.33398 404.86523 L 478.33398 411.62891 C 478.33398 412.79394 478.27268 414.07302 478.14648 415.46094 C 478.01803 416.87395 477.85794 418.25223 477.66602 419.5957 C 477.48072 420.89281 477.23476 422.11572 476.93164 423.26758 L 476.91406 423.33203 L 476.90039 423.39648 C 476.65629 424.55594 476.38799 425.49122 476.12695 426.16992 L 475.17188 428.64844 L 480.04297 430.47656 L 481.24219 429.27539 C 481.92763 428.58995 482.79855 427.83864 483.83984 427.04102 C 484.96513 426.22973 486.18947 425.41201 487.51758 424.58984 C 488.8658 423.75523 490.24782 422.95307 491.66211 422.18164 C 493.06658 421.41557 494.39666 420.74972 495.65039 420.18555 L 497.59961 419.30859 L 497.14258 417.2207 C 496.74908 415.42188 496.50977 412.61185 496.50977 408.94727 C 496.50977 407.15104 496.54172 405.59782 496.60352 404.27539 C 496.728 402.98751 496.91229 401.69729 497.1582 400.40625 L 497.50391 398.58398 L 495.9043 397.64258 C 493.53194 396.24708 490.96558 395.00153 488.20898 393.89844 C 487.48712 393.60258 486.47219 393.4342 485.68945 393.16602 L 495.80664 389.33789 L 495.23828 387.06445 C 495.18738 386.86071 495.07721 386.11293 495.01562 385.06641 C 494.95142 383.97455 494.91992 383.08956 494.91992 382.44141 C 494.91992 379.92068 495.20385 377.85705 495.69531 376.27344 L 496.55859 373.49219 L 493.70508 372.91016 C 490.22759 372.20177 487.26716 371.4317 484.82812 370.62109 C 482.49795 369.75997 480.44399 368.73154 478.6582 367.54102 L 476.85938 366.34375 L 475.33203 367.87109 C 473.71481 369.48832 472.27938 370.82258 470.99609 371.93164 L 470.99609 356.63086 C 470.99609 352.78857 471.26383 349.7441 471.72852 347.58398 C 472.25671 345.43398 473.01187 343.86744 473.875 342.8125 L 470.67773 338.77539 C 467.80704 340.17884 465.26318 341.177 463.08789 341.78125 C 460.89321 342.39088 458.91094 342.67773 457.14258 342.67773 C 455.43526 342.67773 454.17745 342.45215 453.43164 342.16211 L 446.25586 339.37109 L 450.2168 345.97266 C 450.72385 346.81775 451.10292 347.6369 451.36719 348.42969 L 451.39062 348.50195 L 451.41992 348.57422 C 451.74578 349.38887 451.99666 350.27079 452.16602 351.23047 L 452.17773 351.30469 L 452.19531 351.37695 C 452.41585 352.31429 452.56513 353.41304 452.625 354.66992 L 452.62695 354.73242 L 452.63281 354.79492 C 452.75507 356.07868 452.82031 357.58866 452.82031 359.31055 L 452.82031 403.14648 L 444.58789 403.14648 L 444.58789 373.47266 L 441.42188 368.19336 L 439.52734 368.66797 C 439.35176 368.71187 439.17415 368.75637 438.99414 368.80078 L 438.97656 358.55078 C 439.71456 357.88322 440.43461 357.23365 441.13477 356.60352 C 442.41696 355.44955 443.59144 354.46695 444.64648 353.66016 L 444.68359 353.63086 L 444.7207 353.60156 C 445.81228 352.70262 446.64214 352.07061 447.08789 351.77344 L 450.63477 349.4082 L 446.93359 347.29297 C 446.56342 347.08144 445.89227 346.6669 445.02344 346.10938 C 444.20035 345.47773 443.32515 344.82082 442.39062 344.13477 C 441.50515 343.43903 440.65241 342.74394 439.83203 342.05078 C 439.1338 341.40741 438.63666 340.86711 438.40234 340.55469 L 435.84375 337.14453 z M 319.49414 378.2207 L 319.49414 380.41797 L 323.17969 381.17969 C 324.10065 382.97652 324.99276 385.44263 325.70508 388.83984 L 325.70898 388.85938 L 325.71289 388.87891 C 326.56166 392.63776 327.02156 397.41113 327.03906 403.14648 L 319.41016 403.14648 C 318.94218 398.87494 318.70703 394.52236 318.70703 390.08594 C 318.70703 385.58366 319.01972 381.72308 319.49414 378.2207 z M 470.99609 383.26758 L 479.75391 385.00781 L 470.99609 388.55664 L 470.99609 383.26758 z M 291.16797 384.37891 C 292.13383 384.66528 293.09967 384.94888 294.24414 385.20898 L 294.27148 385.21484 L 294.30078 385.2207 C 296.52402 385.67545 298.81983 385.93721 301.11328 386.20508 L 300.95312 408.70508 C 299.47091 408.33925 298.06568 407.91427 296.46289 407.64062 C 294.59235 407.32128 292.9705 407.11247 291.30664 406.88477 C 291.37907 405.34328 291.45729 403.80865 291.50195 402.24023 C 291.63632 399.75441 291.70508 397.52481 291.70508 395.54492 C 291.70508 393.04999 291.63698 390.58752 291.50195 388.15625 L 291.50195 388.15234 C 291.43795 386.96854 291.27672 385.63241 291.16797 384.37891 z M 266.78516 407.68359 L 273.48438 407.68359 C 273.37462 409.29014 273.20552 410.67292 272.98242 411.82031 L 272.97461 411.84961 L 272.9707 411.87891 C 272.62279 413.90837 271.97395 414.89678 271.86719 414.98828 L 267.74023 418.52539 L 267.62695 417.96094 C 267.50037 417.32805 267.37344 416.66013 267.24609 415.96094 C 267.13714 415.30718 267.04307 414.39609 266.98047 413.26953 C 266.91647 412.11677 266.8503 410.6159 266.78516 408.79883 L 266.78516 407.68359 z " /></g></g><g
     inkscape:groupmode="layer"
     id="layer7"
     inkscape:label="duplikaty"
     style="display:none"><path
       id="path6"
       style="display:inline;stroke-width:8.05907"
       d="m 130.68438,403.14722 h 15.42748 v 4.53544 h -15.42748 z"
       inkscape:label="spojovnik pismen" /><path
       id="path7"
       style="display:inline;stroke-width:8.05907"
       d="m 184,403.14722 h 15.42748 v 4.53544 H 184 Z"
       inkscape:label="spojovnik pismen" /><path
       id="path8"
       style="display:inline;stroke-width:8.05907"
       d="m 212,403.14722 h 15.42748 v 4.53544 H 212 Z"
       inkscape:label="spojovnik pismen" /><path
       id="path9"
       style="display:inline;stroke-width:8.05907"
       d="m 261.41337,403.14722 h 15.42748 v 4.53544 h -15.42748 z"
       inkscape:label="spojovnik pismen" /><path
       id="path10"
       style="display:inline;stroke-width:8.05907"
       d="m 317.56434,403.14722 h 15.42748 v 4.53544 h -15.42748 z"
       inkscape:label="spojovnik pismen" /><path
       id="path11"
       style="display:inline;stroke-width:8.05907"
       d="m 361.2877,403.14722 h 15.42748 v 4.53544 H 361.2877 Z"
       inkscape:label="spojovnik pismen" /><path
       id="path12"
       style="display:inline;stroke-width:8.05907"
       d="m 414.84417,403.14722 h 15.42748 v 4.53544 h -15.42748 z"
       inkscape:label="spojovnik pismen" /><path
       id="path13"
       style="display:inline;stroke-width:8.05907"
       d="m 441.57708,403.14722 h 15.42748 v 4.53544 h -15.42748 z"
       inkscape:label="spojovnik pismen" /><path
       id="path14"
       style="display:inline;stroke-width:8.05907"
       d="m 207.86435,359.79055 0.41381,15.42193 -4.53381,0.12165 -0.41381,-15.42193 z"
       inkscape:label="spojovnik pismen" /><path
       id="path15"
       style="display:inline;stroke-width:8.05907"
       d="m 438.97419,356.99213 0.0258,15.42746 -4.53543,0.008 -0.0258,-15.42746 z"
       inkscape:label="spojovnik pismen" /></g></svg>
