<?xml version="1.0" encoding="UTF-8" standalone="no"?>
<svg
   version="1.2"
   viewBox="0 0 570 570"
   width="570"
   height="570"
   id="svg1"
   sodipodi:docname="KrkavecRoleTokenLaser.svg"
   inkscape:version="1.4.2 (2aeb623e1d, 2025-05-12)"
   xml:space="preserve"
   xmlns:inkscape="http://www.inkscape.org/namespaces/inkscape"
   xmlns:sodipodi="http://sodipodi.sourceforge.net/DTD/sodipodi-0.dtd"
   xmlns="http://www.w3.org/2000/svg"
   xmlns:svg="http://www.w3.org/2000/svg"><sodipodi:namedview
     id="namedview1"
     pagecolor="#ffffff"
     bordercolor="#666666"
     borderopacity="1.0"
     inkscape:showpageshadow="2"
     inkscape:pageopacity="0.0"
     inkscape:pagecheckerboard="0"
     inkscape:deskcolor="#d1d1d1"
     inkscape:zoom="2.0241446"
     inkscape:cx="243.55967"
     inkscape:cy="207.24804"
     inkscape:window-width="1920"
     inkscape:window-height="940"
     inkscape:window-x="0"
     inkscape:window-y="0"
     inkscape:window-maximized="1"
     inkscape:current-layer="layer2"
     showgrid="false" /><defs
     id="defs1"><clipPath
       clipPathUnits="userSpaceOnUse"
       id="cp1"><path
         d="m 275.5,535.5 c -143.78,0 -260,-116.22 -260,-260 0,-143.78 116.22,-260 260,-260 143.78,0 260,116.22 260,260 0,143.78 -116.22,260 -260,260 z"
         id="path1" /></clipPath></defs><style
     id="style1">
		tspan { white-space:pre } 
		.s0 { fill: none;stroke: #ff0000;stroke-miterlimit:100 } 
	</style><g
     inkscape:groupmode="layer"
     id="layer1"
     inkscape:label="Template"><path
       id="Path 0 copy"
       class="s0"
       d="m 253.96776,1.9812412 c -4.83809,0.7256238 -12.51049,1.8658898 -17.06826,2.5396834 -4.54737,0.6737937 -14.55576,2.8299332 -22.23856,4.8098491 -7.68279,1.9695513 -20.01678,5.7427953 -27.40888,8.3757733 -7.40247,2.632979 -20.89926,8.551995 -30.00441,13.164891 -9.10514,4.602528 -22.37354,12.263042 -29.48531,17.021062 -7.11177,4.747653 -17.57697,12.48073 -23.26639,17.176553 -5.689435,4.695823 -15.573238,13.828318 -21.968643,20.296736 -6.385022,6.468418 -15.147556,16.191781 -19.456148,21.592491 -4.318975,5.41108 -11.576098,15.42469 -16.133862,22.24555 -4.547382,6.83124 -12.178261,20.3382 -16.95405,30.00974 -5.533687,11.2368 -10.714379,23.75899 -14.316985,34.66408 -3.114645,9.39165 -6.8418376,22.43215 -8.2953386,28.97313 -1.453501,6.54097 -3.5922235,19.22903 -4.7446423,28.19566 -1.3912082,10.80144 -2.09719388,22.31812 -2.10757603,34.1458 0,12.12828 0.67483933,22.9919 2.10757603,33.88662 1.162801,8.82153 3.3222877,21.39554 4.7861709,27.93654 1.4638831,6.55133 4.44356,17.48752 6.623812,24.31875 2.180251,6.83123 6.104705,17.53937 8.721006,23.80046 2.616301,6.2611 7.57897,16.73082 11.015462,23.28217 3.446873,6.54098 9.676163,17.02106 13.86017,23.28215 4.173624,6.2611 11.119282,15.79787 15.427874,21.20896 4.308592,5.40071 13.071127,15.12406 19.466531,21.60285 6.385023,6.47879 16.279208,15.58018 21.968643,20.23455 5.68942,4.64399 13.36182,10.563 17.06825,13.15452 3.69605,2.59151 11.60724,7.66051 17.57698,11.25753 5.98013,3.6074 16.92291,9.43312 24.315,12.96793 7.39209,3.52447 18.80207,8.31359 25.34283,10.63558 6.54075,2.322 18.17914,5.82573 25.86193,7.7849 7.6828,1.94883 22.34238,4.7684 32.58957,6.24037 14.74265,2.1354 22.60194,2.69517 37.7495,2.69517 15.15794,0 23.01723,-0.55977 37.75988,-2.69517 10.24718,-1.47197 24.90677,-4.29154 32.58957,-6.24037 7.68278,-1.95917 19.31079,-5.4629 25.86193,-7.7849 6.54076,-2.32199 17.94035,-7.11111 25.34283,-10.63558 7.39208,-3.53481 18.33487,-9.36053 24.30461,-12.96793 5.98012,-3.59702 13.89132,-8.66602 17.58736,-11.25753 3.69605,-2.59152 11.37883,-8.51053 17.06826,-13.1649 5.68942,-4.65435 15.57322,-13.76612 21.95824,-20.23454 6.39541,-6.46842 15.14756,-16.19177 19.46654,-21.59248 4.30859,-5.41109 11.42035,-15.18628 15.79125,-21.72725 4.37088,-6.55136 11.24387,-18.42049 15.27214,-26.39199 4.02828,-7.96113 9.22972,-19.37415 11.5657,-25.345 2.336,-5.98121 5.92822,-16.45093 7.99426,-23.28216 2.06605,-6.83123 4.88999,-18.23389 6.27083,-25.35538 1.39121,-7.1111 3.22885,-18.75218 4.08018,-25.86329 0.86172,-7.11113 1.5677,-20.84614 1.5677,-30.52804 0,-9.81665 -0.70598,-23.07484 -1.59885,-30.00973 -0.8721,-6.82087 -2.30483,-16.368 -3.16655,-21.20894 -0.86172,-4.83059 -2.907,-13.91125 -4.54739,-20.17235 -1.64037,-6.2611 -4.91075,-16.96923 -7.27788,-23.80045 -2.35675,-6.83125 -8.17076,-20.33822 -12.9154,-30.00974 -4.74463,-9.67154 -12.35476,-23.1785 -16.90213,-30.00974 -4.55776,-6.82086 -11.81489,-16.83447 -16.13386,-22.24555 C 502.62025,101.55757 493.85772,91.844574 487.47269,85.386521 481.08767,78.918102 471.20387,69.816706 465.51445,65.151982 459.82502,60.487257 452.14224,54.557873 448.44619,51.96636 444.75015,49.374846 436.83895,44.31621 430.85883,40.708823 424.88909,37.101437 413.9463,31.275712 406.55422,27.751254 399.15174,24.226796 387.75215,19.448044 381.21139,17.136415 374.66025,14.814417 363.95626,11.528378 357.4155,9.8179792 350.87475,8.1075792 341.33354,5.9929045 336.20478,5.1325219 331.08637,4.2617733 321.77358,2.8416237 315.52353,1.970875 308.01724,0.92390344 297.0952,0.4366989 283.45307,0.52999334 272.07423,0.60255536 258.80584,1.2556173 253.96776,1.9812412 Z"
       style="stroke-width:1.03741;stroke:#000000;stroke-opacity:1"
       inkscape:label="vnejsi kruh" /><path
       id="Path 0"
       class="s0"
       d="m 265.85013,27.483209 c -2.18288,0.208543 -7.78893,0.873904 -12.44244,1.459816 -4.66343,0.595844 -10.93427,1.539263 -13.95061,2.105316 -3.00642,0.556121 -11.52961,2.512475 -18.92164,4.359591 -7.39203,1.837184 -19.05063,5.451972 -25.89695,8.02403 -6.84631,2.57206 -17.3837,7.150127 -23.40647,10.159138 -6.0327,3.018944 -15.43895,8.192855 -20.916,11.499788 -5.47708,3.306933 -13.55374,8.70925 -17.92944,12.016186 -4.3856,3.306932 -11.77765,9.245508 -16.44107,13.188011 -4.65352,3.942499 -11.62883,10.476915 -15.49848,14.508775 -3.869674,4.04181 -10.37864,11.38062 -14.466589,16.3162 -4.087947,4.93557 -11.023564,14.35985 -15.419103,20.93398 -4.395538,6.58408 -10.735823,17.34899 -14.089528,23.93306 -3.353706,6.57416 -8.11636,16.89217 -10.596914,22.93007 -2.480545,6.02794 -6.121992,16.57439 -8.096512,23.42659 -1.974519,6.8522 -4.663441,18.29241 -5.983092,25.42266 -1.309727,7.12034 -2.847671,18.34207 -3.423155,24.91621 -0.575495,6.58408 -1.051758,16.67371 -1.051758,22.43353 0,5.75981 0.476263,15.84945 1.051758,22.43353 0.575484,6.57413 2.113428,17.78593 3.423155,24.9162 1.319651,7.13027 3.939113,18.34205 5.824335,24.92612 1.895135,6.57415 5.308376,16.67372 7.590486,22.43353 2.2821,5.7499 7.163825,16.29634 10.84497,23.42659 3.67121,7.12033 10.239712,18.34207 14.575715,24.91621 4.336003,6.58408 12.214231,17.12058 17.512683,23.4266 5.288538,6.30602 13.375129,15.05499 17.969109,19.44437 4.58407,4.38938 12.15471,11.04297 16.8082,14.78686 4.65353,3.73396 13.39498,10.09956 19.42768,14.14137 6.02278,4.03186 17.00667,10.48684 24.3987,14.33997 7.39205,3.84318 19.49714,9.28524 26.88918,12.0857 7.40195,2.80046 19.50706,6.62379 26.89909,8.49077 7.39203,1.86697 19.49713,4.38939 26.88918,5.60094 11.27161,1.83718 17.40353,2.19469 37.85319,2.19469 20.44967,0 26.58159,-0.35751 37.85321,-2.19469 7.39205,-1.21155 19.49713,-3.73397 26.88916,-5.60094 7.39204,-1.86698 19.49714,-5.69031 26.8991,-8.49077 7.39204,-2.80046 19.26892,-8.12334 26.39306,-11.81756 7.12415,-3.70418 18.09812,-10.15915 24.3987,-14.33999 6.3006,-4.18084 15.27028,-10.63581 19.92379,-14.33997 4.65352,-3.70417 13.6331,-11.92681 19.95354,-18.27255 6.32045,-6.34574 14.53603,-15.35292 18.26677,-20.01042 3.73076,-4.66745 10.34887,-13.86331 14.71463,-20.43745 4.36577,-6.58407 11.47009,-19.14645 15.78624,-27.91529 4.30622,-8.76883 9.48563,-20.43745 11.4899,-25.91921 2.01421,-5.48175 5.14963,-15.79979 6.96539,-22.93006 1.81576,-7.13026 4.33601,-19.46424 5.5862,-27.40881 1.90506,-12.0559 2.28212,-18.352 2.28212,-37.88574 0,-19.30534 -0.38698,-25.88942 -2.20273,-37.3892 -1.21051,-7.67646 -3.72083,-20.01044 -5.58621,-27.40883 -1.85545,-7.40833 -5.01072,-17.94482 -7.015,-23.42659 -2.00427,-5.48177 -7.29282,-17.37878 -11.74788,-26.42567 -4.45507,-9.04691 -11.57922,-21.59935 -15.816,-27.90537 -4.23677,-6.306 -10.76558,-15.26354 -14.50626,-19.90119 -3.74068,-4.63763 -10.37863,-12.21479 -14.76424,-16.8425 -4.38562,-4.62771 -11.77765,-11.628879 -16.43117,-15.551517 -4.66342,-3.932571 -12.05548,-9.851287 -16.44108,-13.158219 -4.37569,-3.306936 -12.45237,-8.709253 -17.92943,-12.016186 -5.47706,-3.306933 -14.88331,-8.480844 -20.916,-11.499788 -6.02278,-3.009011 -16.56016,-7.587078 -23.40649,-10.159138 -6.8463,-2.572058 -18.50491,-6.196777 -25.89695,-8.043892 -7.39203,-1.847117 -16.13349,-3.8134 -19.41774,-4.379453 -3.29417,-0.566051 -8.89029,-1.519402 -12.45236,-2.105315 -3.56207,-0.595842 -15.88545,-1.241341 -27.39521,-1.439955 -11.49984,-0.198616 -22.71193,-0.188684 -24.90474,0.01985 z"
       style="stroke-width:0.992647;stroke:#000000;stroke-opacity:1"
       inkscape:label="vnitrni kruh" /><g
       inkscape:groupmode="layer"
       id="layer3"
       inkscape:label="Positions"
       style="display:none"><rect
         style="display:inline;fill:#ff2121;fill-opacity:0.107692;stroke:#000000;stroke-width:1.05245;stroke-opacity:1"
         id="rect1"
         width="300"
         height="300"
         x="135"
         y="80.172386" /><rect
         style="display:inline;fill:#de0000;fill-opacity:0.0923077;stroke:#000000;stroke-width:1.00157;stroke-opacity:1"
         id="rect2"
         width="300"
         height="83.006134"
         x="135"
         y="401.53375" /></g><text
       xml:space="preserve"
       style="font-size:109.103px;font-family:'Didact Gothic';-inkscape-font-specification:'Didact Gothic';text-align:start;letter-spacing:2.02104px;writing-mode:lr-tb;direction:ltr;text-anchor:start;display:none;fill:#de0000;fill-opacity:0.0923077;stroke:#000000;stroke-width:7.03727;stroke-dasharray:none;stroke-opacity:1"
       x="113.22261"
       y="437.29196"
       id="text2"
       inkscape:label="Text"><tspan
         sodipodi:role="line"
         id="tspan2"
         x="113.22261"
         y="437.29196"
         style="font-style:normal;font-variant:normal;font-weight:normal;font-stretch:normal;font-family:'New Rocker';-inkscape-font-specification:'New Rocker';letter-spacing:2.02104px;fill:#000000;fill-opacity:1;stroke:#000000;stroke-width:7.03727;stroke-dasharray:none;stroke-opacity:1">Vědma</tspan></text><path
       id="path5"
       style="display:none;stroke-width:8.05907"
       d="m 276.32799,515.95806 h 15.42748 v 4.53544 h -15.42748 z"
       inkscape:label="spojovnik pismen" /></g><g
     inkscape:groupmode="layer"
     id="layer2"
     inkscape:label="Content"
     style="display:inline"><g
       id="path1-3"
       style="opacity:1;stroke:#000000;stroke-opacity:1;fill:none"
       transform="matrix(1.0300407,0,0,1.0300407,-10.92139,-10.893247)"><g
         id="path1-35"
         style="opacity:1;stroke:#000000;stroke-opacity:1;fill:none"><path
           style="baseline-shift:baseline;display:inline;overflow:visible;vector-effect:none;enable-background:accumulate;stop-color:#000000;stop-opacity:1;stroke:#000000;stroke-opacity:1;fill:none"
           d="m 303.32227,52.001953 c -6.27277,-0.189671 -12.63236,0.177172 -17.63672,1.132813 -12.51374,2.389646 -13.3898,2.627428 -20.50782,5.30664 -26.5236,9.983453 -47.46199,30.123882 -57.98828,55.837894 -7.39914,18.0749 -8.99555,42.0012 -4.07031,60.95117 2.63856,10.15192 5.43432,17.05908 10.43945,25.7793 l 1.83008,3.1875 -1.55859,2.86132 c -1.1769,2.16189 -3.96478,6.34684 -5.83594,8.72461 -2.17739,2.76694 -5.49942,7.55227 -7.64648,10.99414 -1.661,2.66269 -8.24432,10.79161 -13.97852,17.00391 -7.35649,7.96985 -11.71556,12.84796 -14.31641,16.35547 -1.30042,1.75375 -2.18776,3.17083 -2.74609,4.64453 -0.55833,1.4737 -0.68072,3.13596 -0.3418,4.48633 0.34061,1.35708 1.21379,2.98584 2.61133,3.91797 1.39754,0.93213 2.82532,1.18193 4.41211,1.36718 3.50084,0.40871 7.13502,-0.44552 10.91016,-2.6582 2.45072,-1.43642 5.2383,-3.66756 8.29492,-6.31836 -0.86743,1.63684 -1.76347,3.21683 -2.5332,4.9375 -2.26863,5.07138 -6.83682,13.55305 -9.87891,18.33789 -2.98873,4.70091 -4.94865,8.43538 -5.86914,11.69727 -0.46025,1.63094 -0.68908,3.18311 -0.39844,4.79883 0.29065,1.61571 1.33447,3.28359 2.77735,4.1875 1.29767,0.81294 2.00177,0.85726 3.14062,1.12695 0.7136,0.16899 1.54622,0.2857 2.34961,0.41797 l -0.60742,0.80664 c -2.65641,3.52879 -4.40151,6.12244 -4.62696,9.3164 -0.11272,1.59699 0.45819,3.45144 1.59766,4.66993 0.47917,0.51239 1.02508,0.86882 1.58203,1.19726 v 0.35938 l 2.42188,0.68945 c 1.77696,0.50599 3.59622,0.54053 6.10156,0.59961 2.50534,0.0591 5.44739,0.0197 8.35742,-0.0937 2.91004,-0.1135 5.77699,-0.30043 8.14649,-0.55078 1.18474,-0.12518 2.2406,-0.2644 3.1582,-0.43164 0.9176,-0.16724 1.58217,-0.24499 2.61719,-0.77539 1.11731,-0.57257 1.44088,-1.07562 1.91992,-1.64258 0.47904,-0.56696 0.93914,-1.20317 1.41406,-1.92188 0.94984,-1.4374 1.94138,-3.1897 2.82617,-5.0332 2.55747,-5.32856 2.23975,-5.03925 6.68164,-7.18359 3.32894,-1.60706 6.11654,-3.67951 7.72266,-7.03711 1.60612,-3.35761 2.22188,-7.47932 2.97461,-14.05469 0.33212,-2.90128 2.1247,-9.82034 4.8125,-18.18164 1.42539,-4.43416 3.55771,-9.9013 5.40234,-15.00195 0.7181,0.79341 1.56232,1.47965 2.51172,1.84961 2.70262,1.05313 5.52859,0.78383 9.35352,0.17187 5.33805,-0.85414 10.96451,-0.86207 18.9082,0.0469 2.89404,0.33114 4.01982,0.68507 3.92969,0.59765 0.0991,0.23191 0.27438,0.7299 0.5332,1.59375 0.69842,2.33111 1.39278,4.38343 3.25391,5.90625 1.86113,1.52282 3.91281,1.88543 6.63281,2.38281 2.33419,0.42684 3.97299,0.77614 6.2207,-0.33984 0.56193,-0.27899 1.26098,-0.73494 1.77735,-1.64648 0.51636,-0.91154 0.58085,-2.23628 0.28125,-3.11328 -0.59921,-1.75401 -1.58327,-2.22944 -2.51172,-2.77735 -0.29329,-0.17304 -0.63863,-0.69021 -0.91797,-1.13476 2.11822,-0.98517 6.07202,-1.64625 12.70508,-1.23243 2.95147,0.18414 5.18083,0.24212 6.89258,0.13868 0.46669,-0.0282 0.88451,-0.13875 1.30664,-0.20313 0.0874,0.85409 0.32693,1.70356 0.79882,2.24805 1.00855,1.16369 2.05119,1.47318 3.07422,1.72656 1.02303,0.25338 2.10894,0.35352 3.33789,0.35352 3.18112,0 6.18441,-1.06688 8.16797,-3.29102 0.6157,-0.69037 1.07054,-1.48247 1.45117,-2.31641 0.55282,0.41307 1.14128,0.74651 1.66016,0.88282 0.84972,0.22321 1.50452,0.22461 2.16211,0.22461 1.38249,0 3.34975,-0.39878 4.62305,-1.75782 1.2733,-1.35904 1.60508,-2.76479 2.00976,-4.40234 l 0.31641,-1.27539 5.6914,-0.41992 c 4.19708,-0.30978 9.95103,-0.0541 11.14649,0.20703 2.20786,0.48233 6.56988,1.42643 9.70703,2.10156 3.8982,0.83892 6.37966,1.57634 9.30273,0.31641 1.46154,-0.62997 2.69457,-2.17706 3.09766,-3.57422 0.40309,-1.39716 0.35395,-2.6406 0.24024,-3.99414 -0.14897,-1.77329 -0.2559,-3.47001 -1.59766,-5.08594 -1.34176,-1.61593 -3.02923,-2.02822 -4.7168,-2.45703 -1.12495,-0.28585 -3.33135,-1.52043 -4.03515,-2.06055 l 0.33789,-0.35156 c 1.09267,-1.1405 4.48402,-3.86796 6.79297,-5.34961 3.29135,-2.11205 5.91332,-3.99454 6.60546,-7.61523 v -0.002 c 0.16016,-0.83792 0.25436,-1.62776 0.27344,-2.38281 0.01,-0.37752 0.005,-0.73625 -0.0566,-1.1875 -0.062,-0.45124 0.17578,-1.01373 -1.0625,-2.25195 -1.16672,-1.16673 -1.83759,-0.96782 -2.20508,-0.99414 -0.36749,-0.0263 -0.56793,-0.003 -0.75195,0.0156 -0.36805,0.0381 -0.63535,0.0935 -0.93945,0.16016 -0.60821,0.13329 -1.30346,0.32124 -2.11719,0.55664 -1.62746,0.47079 -3.68841,1.13075 -5.77149,1.83398 -0.43767,0.14776 -0.79405,0.28946 -1.22851,0.43946 12.60537,-13.35958 20.12823,-27.64737 24.15234,-46.25977 3.44015,-15.91141 3.40059,-29.07965 -0.17773,-43.70117 -7.0935,-28.98494 -25.85703,-52.947822 -51.9082,-66.210939 -2.69349,-1.371299 -7.68039,-3.393669 -12.20704,-5.111328 -2.26332,-0.85883 -4.37309,-1.622251 -5.98242,-2.152344 -0.80466,-0.265046 -1.46781,-0.469784 -2.06445,-0.617187 -0.29832,-0.0737 -0.54475,-0.140979 -1.00781,-0.181641 -0.14853,-0.01304 -0.47457,0.02572 -0.74805,0.04687 -0.138,-0.02007 -0.2938,-0.04082 -0.60742,-0.103515 -0.83512,-0.166945 -2.09845,-0.467726 -3.48242,-0.845704 -4.65899,-1.272419 -10.84638,-2.019313 -17.11914,-2.208984 z m -9.50977,13.669922 c 2.59035,-0.250378 5.28839,-0.17049 9.82031,0.07422 12.68393,0.684892 22.275,3.053836 33.23828,8.191406 19.04235,8.923542 30.22303,20.18979 40.89258,41.349609 11.45589,22.7193 11.66301,54.33668 0.5918,76.25195 -8.56024,16.94484 -17.00519,26.80306 -30.37891,35.61719 -4.24448,2.79737 -6.23153,4.03826 -7.6875,4.53906 -1.45597,0.5008 -3.01348,0.54935 -7.00781,0.58594 -2.27381,0.0208 -4.55372,0.11514 -6.45313,0.25586 -1.8994,0.14072 -3.01413,0.13616 -4.57226,0.65625 1.00458,-0.33531 0.56398,-0.009 -0.26367,-0.4707 -0.82766,-0.46204 -1.98519,-1.3325 -3.08789,-2.37696 -2.2054,-2.08891 -4.14663,-5.20049 -4.33203,-6.05859 -0.47195,-2.18431 -1.50178,-4.90924 -2.59375,-7.21875 1.15383,-0.1863 2.26881,-0.65309 3.3496,-1.39649 1.37835,1.0339 2.7331,1.07104 4.0586,1.14844 0.84124,0.0491 1.67937,0.0124 2.5664,-0.1875 0.88704,-0.1999 1.9404,-0.47746 2.9375,-1.6914 0.64542,-0.78578 0.67429,-1.01275 0.99805,-1.61719 0.32377,-0.60444 0.70711,-1.35619 1.13672,-2.2207 0.85923,-1.72903 1.89948,-3.9018 2.91211,-6.07032 1.01263,-2.16851 1.99498,-4.32651 2.73633,-6.02539 0.37067,-0.84944 0.67972,-1.57849 0.91406,-2.17187 0.11717,-0.29669 0.21456,-0.55614 0.30273,-0.82032 0.0882,-0.26417 0.25586,-0.12728 0.25586,-1.39062 0,1.33042 -0.11475,0.7922 -0.0586,0.63672 0.0562,-0.15549 0.17295,-0.45202 0.33203,-0.82813 0.31817,-0.75221 0.80598,-1.8384 1.41211,-3.13867 1.21225,-2.60054 2.90269,-6.0763 4.75977,-9.75976 8.81081,-17.47604 13.84777,-28.73946 15.74414,-37.44727 1.89636,-8.70781 0.12892,-15.25495 -4.20117,-20.75976 -0.72655,-0.92365 -0.90765,-1.23122 -1.1543,-2.46485 -0.24665,-1.23363 -0.38513,-3.39926 -0.4336,-7.02539 -0.0669,-5.00013 -0.83349,-10.04103 -2.07031,-14.373045 -1.23681,-4.332016 -2.71619,-7.941559 -5.39648,-10.367188 -4.42799,-4.007266 -11.75587,-5.564483 -19.63086,-6.273437 -7.87499,-0.708954 -16.06029,-0.285616 -21.97266,2.257812 -1.59247,0.685062 -3.1434,1.569035 -4.50195,2.515625 -1.35855,0.94659 -2.48509,1.782061 -3.42774,3.220703 -0.13534,0.206559 -0.58393,1.384236 -0.87241,1.575828 -0.28847,0.191591 -0.56558,0.146484 -0.0566,0.146484 -3.3197,0 -6.17541,0.678368 -9.52798,2.492532 -3.35256,1.814164 -6.57424,3.944526 -8.71679,6.384766 -1.49602,1.70386 -2.97774,4.24111 -3.68658,5.83267 -0.35442,0.79577 -2.02577,5.54869 -1.91131,5.91103 0.14723,0.46604 3.03746,0.25559 9.11645,-0.37168 1.87874,-0.19386 4.00754,-0.2742 6.72362,-0.99702 2.08936,-0.55603 3.38365,-0.78332 4.09571,-0.80469 0.71206,-0.0214 0.86248,0.0223 1.52343,0.34375 0.0941,0.0458 0.97818,0.88995 1.42383,1.93945 0.40616,0.9565 0.34494,1.79979 0.36914,1.88672 -0.0616,0.0529 -0.0704,0.0772 -0.20507,0.15625 -0.50239,0.29487 -1.42686,0.68593 -2.62696,1.02539 -2.40019,0.67894 -5.89419,1.19026 -9.85156,1.3125 -2.21627,0.0685 -2.95135,0.88721 -4.11133,1.70899 -1.15998,0.82177 -2.33333,1.85385 -3.4082,3.02734 -2.54889,2.78275 -2.14311,2.59416 -5.70508,2.81836 -3.66332,0.23059 -6.84526,1.29533 -9.18164,3.49024 -4.57815,4.30094 -8.95635,11.91321 -11.40039,19.15039 -0.80686,2.38924 -1.3739,3.5657 -1.57031,3.88867 -0.87013,0.0264 -1.9643,0.17315 -3.00977,0.83008 -1.15341,0.72475 -1.89033,1.82335 -2.39062,2.91406 -1.0006,2.18142 -1.55423,4.89861 -2.53321,9.70117 -0.16082,0.78897 -1.87089,3.62705 -6.11914,7.68945 -1.81528,1.73588 -3.45973,3.42049 -4.69922,4.79688 -0.61974,0.68819 -1.13243,1.29061 -1.55468,1.84765 -0.21113,0.27853 -0.39827,0.53786 -0.59375,0.8711 -0.19548,0.33324 -0.58985,0.467 -0.58985,2.00976 0,1.66548 0.4733,2.12349 0.88086,2.83985 0.40756,0.71635 0.90035,1.40226 1.4961,2.06054 0.0331,0.0366 0.007,-0.006 0.0332,0.0215 -0.0349,0.0304 -0.13162,0.56008 -0.7461,2.04297 -0.0781,0.18859 -0.10709,0.22338 -0.18164,0.40039 -7.70472,-17.31383 -9.69476,-32.40145 -6.49804,-50.12695 3.63962,-20.1813 11.73401,-35.2188 26.80468,-49.757816 12.15877,-11.729846 22.95912,-17.70479 40.3711,-22.292969 4.10189,-1.080877 6.58543,-1.661731 9.17578,-1.912109 z m 2.90234,165.089845 c 0.92573,0.78801 1.63172,1.61719 3.85547,1.61719 -1.11647,0 -0.87015,-0.18389 -0.64062,-0.0527 0.22953,0.13115 0.65336,0.41436 1.14258,0.79297 0.97842,0.75723 2.24206,1.89419 3.41601,3.125 l 1.91016,2.00195 -0.50196,0.32813 -2.01367,1.31836 -1.44922,-0.96094 c -1.08176,-0.71587 -3.28066,-3.55587 -5.71875,-8.16992 z m -21.36132,2.06055 2.22851,1.51367 c 1.08475,0.73613 2.16098,1.39652 3.10156,1.91015 0.47029,0.25682 0.90076,0.47528 1.33789,0.66407 0.0762,0.0329 0.27444,0.0456 0.33985,0.082 0.12028,0.12912 0.25537,0.27103 0.47656,0.54492 0.5014,0.62087 1.44031,1.13615 2.09069,2.08457 -1.55452,-0.49139 -2.23998,-0.63475 -4.75391,-1.50977 -4.33313,-1.50822 -7.0882,-2.71454 -9.71093,-3.86914 0.42341,-0.15218 0.5704,-0.19562 1.00195,-0.35156 z m 80.38671,2.92187 c 0.1023,0.035 -0.0811,-0.0348 0.0859,0.041 0.42516,0.19314 1.16699,0.74625 1.49805,1.64843 0.33106,0.90218 0.12866,1.78019 -0.0684,2.20899 -0.0845,0.18389 -0.0354,0.0402 -0.0996,0.14453 -0.0584,-0.0199 0.0307,0.0116 -0.0371,-0.0137 -0.52301,-0.19507 -1.38683,-0.88865 -1.69141,-1.73633 -0.30457,-0.84768 -0.13757,-1.45514 -0.0547,-1.70703 0.23136,-0.7031 0.26713,-0.53983 0.36718,-0.58594 z m -73.22461,1.28516 c 0.28314,0.15748 0.41687,0.34961 1.45704,0.34961 -0.95318,0 -1.26497,-0.19706 -1.45704,-0.34961 z m -27.0558,4.18064 c 0,-0.79194 1.70208,0.30285 2.73438,0.74609 2.80382,1.20389 5.79491,2.30405 8.68164,3.31641 -2.2349,0.0659 -3.18002,-0.11689 -5.79967,-0.12791 l -9.57812,-0.041 c 0.21667,-0.55446 0.34947,-1.02581 0.56836,-1.58008 0.58389,-1.47858 1.32253,-2.09923 2.3789,-2.43946 0.52819,-0.17011 1.01451,0.91789 1.01451,0.12596 z"
           id="path7"
           sodipodi:nodetypes="ssssscccssssssssscssssssccsscccscsssssssssscscscssssssscsscsssscssscccsssssssccsccccsscssscssssssscsssssssssssssccssccssssssssscssssssssssssssscssssssssscsssssssscsssssssssscscsssssscsscccccssccsscscscccscssccsssscccsscccssss" /></g></g><g
       id="text1"
       inkscape:label="Text"
       style="opacity:1"><path
         id="path4"
         style="font-size:109.103px;font-family:'New Rocker';-inkscape-font-specification:'New Rocker';letter-spacing:2.02104px;baseline-shift:baseline;white-space:pre;display:inline;overflow:visible;vector-effect:none;enable-background:accumulate;stop-color:#000000;stop-opacity:1;stroke:#000000;stroke-opacity:1;fill:none"
         d="M 208.77344 343.3457 L 214.06445 352.16211 C 214.60075 353.05595 214.99486 353.91429 215.26953 354.73828 L 215.30273 354.83594 L 215.3418 354.93164 C 215.68308 355.78484 215.94579 356.71295 216.125 357.72852 L 216.14258 357.82617 L 216.16602 357.92188 C 216.39795 358.90758 216.55682 360.07984 216.62109 361.42969 L 216.625 361.51367 L 216.63281 361.5957 C 216.76479 362.98145 216.83594 364.62303 216.83594 366.5 L 216.83594 412.71094 L 190.86719 412.71094 L 190.86719 408.97266 L 197.63086 399.45117 L 205.63672 403.63477 L 207.45898 401.53906 C 209.22932 399.50317 210.6254 397.05559 211.69141 394.26758 L 211.69727 394.25195 L 211.70312 394.23633 C 212.75737 391.39797 213.47086 388.32376 213.86328 385.02734 L 214.23242 381.91406 L 211.18359 381.1875 C 208.24237 380.48721 205.57073 379.72226 203.16211 378.89844 C 200.77442 378.00938 198.99117 377.16219 197.95508 376.50781 L 194.28125 374.1875 L 192.77539 378.26367 C 192.18852 379.85168 191.50247 381.25384 190.86719 382.75195 L 190.86719 381.89062 L 187.06055 375.54688 L 184.53125 376.17773 C 182.25467 376.74688 179.63897 377.35594 176.69727 378.00195 C 173.78491 378.56944 171.09206 379.02926 168.63086 379.38086 L 165.60938 379.8125 L 165.60938 386.37695 L 169.64648 388.12305 L 169.64648 412.71094 L 158.19531 412.71094 C 158.1176 411.32332 158.07812 409.95615 158.07812 408.61328 C 158.07812 406.16508 158.15122 404.02663 158.28516 402.18945 C 158.48697 400.43367 158.8293 399.21147 158.85352 399.1582 L 160.11328 396.38867 L 157.55469 394.74414 C 156.52215 394.08036 155.41712 393.38082 154.24219 392.64648 C 153.099 391.93199 151.92121 391.21834 150.71289 390.50586 C 150.00574 390.01914 149.33636 389.53453 148.6582 389.04883 C 149.61923 388.49209 150.56244 387.95329 151.41602 387.49805 C 152.46049 386.94099 153.34773 386.49819 154.05273 386.17773 C 154.83087 385.82403 155.39745 385.57695 155.64844 385.47656 L 158.89062 384.17969 L 157.61914 380.92773 C 157.05851 379.49502 156.56998 377.80936 156.16992 375.89453 C 155.84641 373.93165 155.67773 371.89535 155.67773 369.77344 C 155.67773 368.3332 155.77693 366.8486 155.97656 365.31836 L 155.97656 365.30859 L 155.97852 365.29883 C 156.17431 363.73245 156.46948 362.20584 156.85547 360.71094 C 157.29534 359.27776 157.84632 357.95718 158.51562 356.74023 L 158.5332 356.70898 L 158.54883 356.67578 C 159.21431 355.40531 159.97672 354.33056 160.83594 353.41406 L 166.39062 347.48828 L 157.07031 347.48828 C 155.09144 347.48828 153.23934 347.74159 151.5332 348.34375 C 150.24844 348.79726 149.05382 349.2976 147.9375 349.8457 L 147.92578 349.85156 C 146.88388 350.29822 145.87533 350.74624 144.90234 351.19531 C 144.42431 351.41594 143.94414 351.52539 143.32227 351.52539 L 141.89453 351.52539 C 141.25937 351.45969 140.49856 351.36572 139.57812 351.23438 C 139.57313 351.23361 139.57015 351.23342 139.56445 351.23242 C 138.74695 351.10609 137.84929 350.9423 136.89453 350.75391 C 136.10533 350.52291 135.38792 350.25255 134.75 349.93359 L 130.80859 355.68359 C 131.23562 356.0718 131.61399 356.5724 131.95117 357.29492 C 132.35352 358.1571 132.67509 359.08982 132.91406 360.10547 L 132.91992 360.12891 L 132.92578 360.15234 C 133.16234 361.09856 133.31266 362.07892 133.37305 363.10547 L 133.37891 363.20898 L 133.39062 363.31055 C 133.52208 364.42779 133.58398 365.456 133.58398 366.39062 C 133.58398 368.53192 133.48118 370.51312 133.2793 372.33008 C 133.12674 373.65462 133.09532 374.63748 133.04297 375.68164 C 132.69048 376.01664 132.63111 376.07606 131.96484 376.70312 C 130.7926 377.80642 129.22772 379.19367 127.29297 380.8418 C 125.41431 382.44214 123.26902 384.12933 120.86719 385.89648 C 120.27672 386.31294 119.69609 386.59518 119.10742 386.98438 C 119.15052 383.74289 119.19522 380.11699 119.23828 377.61914 C 119.38145 373.40967 119.63125 369.8667 119.97656 367.03516 C 120.31862 364.23025 120.79566 361.90438 121.35938 360.07422 C 122.00283 358.21848 122.8712 356.33611 123.99219 354.42383 L 127.76172 347.99023 L 120.40039 349.16992 C 118.63265 349.45277 117.23362 349.69853 116.0918 349.92383 C 115.06267 350.06052 114.14364 350.16267 113.35352 350.22852 C 112.58549 350.29252 111.7733 350.32422 110.91797 350.32422 L 107.31836 350.32422 C 105.66509 350.32422 104.287 350.28841 103.16211 350.22461 C 102.0596 350.09217 101.06346 349.93282 100.20117 349.74805 C 99.267623 349.548 98.331878 349.31423 97.394531 349.04688 C 97.388131 349.04487 97.38145 349.04497 97.375 349.04297 C 96.425411 348.75113 95.348591 348.42767 94.126953 348.06836 L 89.095703 346.58789 L 89.634766 351.80469 C 90.107029 356.3699 91.047937 359.97642 93.224609 362.69727 L 93.246094 362.72461 L 93.269531 362.75195 C 94.666621 364.42846 96.539768 365.60185 98.578125 366.5332 C 98.609625 367.14398 98.671875 367.62051 98.671875 368.35352 L 98.671875 368.4375 L 98.675781 368.52148 C 98.746751 370.01182 98.78125 371.23931 98.78125 372.17383 C 98.78125 375.23918 98.416832 378.17596 97.691406 381.01172 L 97.681641 381.04883 L 97.671875 381.08594 C 97.03776 383.81263 95.783015 387.00036 93.855469 390.58008 L 92.742188 392.64648 L 94.222656 394.4668 C 95.72657 396.31777 96.90638 398.75624 97.681641 401.92188 L 97.683594 401.92969 L 97.685547 401.93945 C 98.487252 405.14629 98.890625 408.45319 98.890625 411.88672 C 98.890625 413.63009 98.67315 415.42105 98.224609 417.2793 C 97.77576 419.13882 97.14092 420.88417 96.316406 422.5332 L 96.291016 422.58203 L 96.267578 422.63086 C 95.517031 424.25704 94.588519 425.74424 93.466797 427.11523 L 93.460938 427.12109 L 93.455078 427.12891 C 92.44098 428.38161 91.359183 429.33764 90.191406 430.06055 L 82.609375 434.75391 L 91.353516 436.50195 C 91.982594 436.62777 92.612254 436.67969 93.244141 436.67969 L 94.443359 436.67969 C 96.269252 436.67969 97.978157 436.56286 99.576172 436.31055 C 100.97693 436.08937 102.30665 435.86684 103.56641 435.64453 L 103.64258 435.63086 L 103.7168 435.61523 C 104.98477 435.33346 106.17648 435.08814 107.29102 434.87891 C 108.32449 434.69745 109.34874 434.60742 110.37305 434.60742 C 111.44637 434.60742 112.57503 434.7468 113.77539 435.04688 L 113.79492 435.05273 L 113.8125 435.05664 C 114.98981 435.33696 116.46805 435.88735 118.18164 436.74414 L 124.85352 440.08008 L 123.18555 432.81055 C 122.20005 428.51659 121.4598 424.07427 120.96484 419.48047 C 120.53148 415.39446 120.21528 411.06241 119.94141 406.64453 L 130.18359 400.23242 C 131.25709 401.18929 132.39044 402.19422 133.32422 403.03906 L 133.38867 403.09766 L 133.45703 403.1543 C 134.09512 403.67637 134.57813 404.04781 135.05664 404.41406 C 134.94597 407.94746 134.84581 411.27672 134.78516 413.76367 C 134.71406 416.6789 134.57245 419.06864 134.37109 420.88086 L 134.36328 420.93945 L 134.35938 421 C 134.22714 422.71915 133.98095 423.98295 133.76562 424.62891 L 133.74219 424.70312 L 133.7207 424.77539 C 133.56655 425.31493 133.39114 425.5698 133.19727 425.76367 L 129.77734 429.18359 L 134.08398 431.38477 C 137.05938 432.90553 139.40383 434.63811 141.18945 436.54688 L 141.20898 436.56836 L 141.23047 436.58984 C 142.99616 438.41439 144.11032 440.45045 144.69922 442.92383 L 147.44727 454.46094 L 151.4375 443.29102 C 152.4369 440.49269 153.6032 438.26474 154.86523 436.58203 C 156.05086 435.00119 158.08746 433.13419 161 431.16992 L 164.53906 428.7832 L 161.52148 425.76367 C 161.07224 425.31443 160.58447 424.57855 160.14453 423.49805 C 159.7083 422.23764 159.31838 420.82968 158.99023 419.25781 C 158.85741 418.59273 158.73997 417.92301 158.63867 417.24609 L 169.64648 417.24609 L 169.64648 423.88867 C 169.64648 425.55931 169.40099 426.70026 169.18555 427.21094 C 169.07109 427.48223 169.02635 427.56699 169.00977 427.58594 L 169.00781 427.58789 L 169.00586 427.58789 L 169.00391 427.58789 L 169.00195 427.58594 L 169.00195 427.58398 C 169.00114 427.58101 169.00072 427.57503 169 427.57227 L 168.99805 427.57227 L 168.99805 427.57031 L 168.99609 427.57031 L 166.69922 428.42188 L 166.69922 436.02539 L 197.08594 436.02539 L 197.08594 427.64062 L 194.10938 427.17578 C 192.38 426.90556 191.64637 426.43236 191.42773 426.23438 C 191.26534 425.95418 190.86719 424.91446 190.86719 422.90625 L 190.86719 417.24609 L 216.83594 417.24609 L 216.83594 423.88867 C 216.83594 425.5593 216.59044 426.70027 216.375 427.21094 C 216.26055 427.48223 216.2158 427.56699 216.19922 427.58594 L 216.19922 427.58789 L 216.19727 427.58789 L 216.19531 427.58789 L 216.19336 427.58789 L 216.19336 427.58594 L 216.19141 427.58594 L 216.19141 427.58398 C 216.1906 427.58101 216.19017 427.57503 216.18945 427.57227 L 216.1875 427.57227 L 216.1875 427.57031 L 216.18555 427.57031 L 213.89062 428.42188 L 213.89062 436.02539 L 241.00195 436.02539 L 241.00195 428.42188 L 238.77539 427.5957 C 238.74417 427.53522 238.67936 427.39755 238.57422 427.11328 C 238.31174 426.40362 238.05664 424.94608 238.05664 422.90625 L 238.05664 413.05469 C 238.70184 413.37809 239.42711 413.65036 240.04688 413.99023 L 240.08594 414.01172 L 240.125 414.03125 C 241.72737 414.85828 243.30098 415.88344 244.875 416.91406 L 244.875 423.99609 C 244.875 425.2546 244.8091 426.64312 244.67188 428.15234 C 244.53162 429.69507 244.35584 431.19855 244.14648 432.66406 C 243.94598 434.06765 243.68007 435.38995 243.35352 436.63086 L 243.33203 436.71484 L 243.31445 436.80078 C 243.05107 438.05184 242.76059 439.05099 242.49023 439.75391 L 241.2168 443.06641 L 247.5332 445.43359 L 249.13672 443.83203 C 249.86527 443.10347 250.79954 442.29446 251.92578 441.43164 C 253.14613 440.55228 254.47612 439.66527 255.91992 438.77148 C 257.39178 437.86033 258.89893 436.98304 260.44336 436.14062 C 261.97468 435.30536 263.42384 434.5833 264.78516 433.9707 L 267.38867 432.79883 L 266.77734 430.00977 C 266.3614 428.1083 266.0957 425.05266 266.0957 421.05078 C 266.0957 419.64554 266.115 418.37992 266.15039 417.24609 L 271.09375 417.24609 C 271.06241 419.18295 270.99922 421.11913 270.90234 423.05664 C 270.76993 425.63138 270.36784 427.64909 269.82422 429.0625 L 268.01758 433.75586 L 273.04688 433.84375 C 277.03866 433.91255 280.5065 434.36046 283.43945 435.14258 L 283.44727 435.14453 L 283.45703 435.14844 C 286.50055 435.9424 289.22971 437.08466 291.6875 438.57227 L 294.2793 440.14062 L 300.55469 432.59375 C 300.78472 432.92977 300.90795 433.2839 301.1543 433.61719 C 302.5996 435.5726 304.27495 437.22171 306.17773 438.49023 L 309.49414 440.70117 L 311.27734 437.13477 C 311.57388 436.54168 312.11983 435.66835 312.9082 434.61719 C 313.67547 433.59416 314.54689 432.59374 315.52734 431.61328 C 316.53545 430.60518 317.53238 429.70926 318.51172 428.92578 L 318.52148 428.91797 L 318.53125 428.91016 C 319.47655 428.1421 320.26103 427.7109 320.76953 427.5293 L 323.10352 426.69531 L 323.10352 420.2168 L 320.37695 419.58594 C 319.85237 419.46488 319.55435 419.31626 319.31836 419.17969 L 319.31836 419.17773 C 319.31437 419.1642 319.19474 419.00964 319.02734 418.49805 C 318.92736 418.15504 318.82583 417.73564 318.72852 417.24609 L 329.25391 417.24609 C 329.24441 417.41792 329.23406 417.59495 329.22266 417.77734 L 329.2168 417.88672 L 329.2168 417.99609 C 329.2168 419.00893 329.1825 420.10531 329.11328 421.28125 L 329.10742 421.38477 L 329.10742 421.48828 C 329.10742 422.57354 329.07342 423.65846 329.00586 424.74414 C 328.93416 425.81964 328.86369 426.78417 328.79297 427.63281 L 328.54102 430.64453 L 331.48047 431.34766 C 334.62181 432.09884 337.65298 433.12006 340.58594 434.41602 C 343.54268 435.72249 345.95229 437.07355 347.80078 438.41211 L 348.72461 439.08008 L 352.1582 439.08008 L 367.49219 427.20898 L 370.75781 417.24609 L 382.10938 417.24609 C 382.04748 417.806 381.97557 418.36245 381.89648 418.91602 L 381.88867 418.9707 L 381.88281 419.02539 C 381.6811 420.84076 381.38085 422.53375 380.98828 424.10742 C 380.60899 425.55382 380.17352 426.57423 379.87305 427.0625 L 376.57422 432.42578 L 382.87109 432.42578 C 383.85453 432.42578 385.31247 432.57393 387.13867 432.91211 L 387.15039 432.91406 L 387.16211 432.91602 C 389.04599 433.25243 390.9777 433.72557 392.95703 434.33984 L 393.02344 434.36133 L 393.0918 434.37891 C 395.11398 434.91815 397.06281 435.59137 398.94141 436.39648 C 400.78748 437.18766 402.26323 438.01663 403.36719 438.83008 L 405.42188 440.3457 L 407.5 438.86133 C 408.21587 438.34999 409.35668 437.72279 410.83789 437.07422 C 412.48107 436.46056 414.19355 435.87464 415.98242 435.32422 L 416.04102 435.30664 L 416.09766 435.28711 C 417.83651 434.6852 419.56491 434.21949 421.28516 433.88867 L 421.34766 433.87695 L 421.41211 433.86328 C 423.20371 433.44983 424.71461 433.18516 425.89844 433.06055 L 430.39453 432.58789 L 430.33398 432.42578 L 435.29688 432.42578 C 437.24437 432.42578 439.50009 432.6228 442.04297 433.03516 C 444.63776 433.45593 447.19696 433.98088 449.71875 434.61133 L 449.72852 434.61328 L 449.74023 434.61719 C 452.31302 435.243 454.65299 435.93393 456.76562 436.68164 C 458.86707 437.49788 460.48353 438.26826 461.50195 438.89062 L 464.03125 440.4375 L 465.98438 438.20703 C 466.15553 438.01143 466.68605 437.54589 467.50391 437.01562 C 468.46909 436.43946 469.50364 435.8873 470.61719 435.36328 L 470.6543 435.3457 L 470.69336 435.32617 C 471.86272 434.74149 473.01783 434.26164 474.16016 433.88086 L 474.21094 433.86328 L 474.26367 433.8457 C 475.49801 433.39095 476.58916 433.0835 477.51367 432.91016 L 481.33984 432.19336 L 480.24023 428.45898 C 479.93336 427.41563 479.6397 426.10213 479.37109 424.57617 C 479.18808 423.1505 479.07422 421.0786 479.07422 418.43164 L 479.07422 414.72266 C 479.07422 413.78815 479.11485 413.09097 479.15625 412.75977 L 479.81641 407.47656 L 474.69922 408.93945 C 471.10883 409.96528 467.98567 411.81638 465.62695 414.44727 L 465.62305 414.44922 L 465.62109 414.45312 C 464.16143 416.08796 463.17971 418.0212 462.42578 420.05859 C 461.24088 419.88462 460.17476 419.79482 458.79688 419.48047 L 458.79492 419.48047 L 458.79492 419.47852 L 458.79297 419.47852 C 457.47519 419.16834 456.67379 418.85272 455.66211 418.53516 C 455.84239 416.9399 456.06147 415.42932 456.1543 413.63477 C 456.37559 410.67147 456.49023 407.94302 456.49023 405.44922 C 456.49023 402.61442 456.37691 399.81411 456.1543 397.04688 C 456.1424 396.82227 456.10695 396.59766 456.09375 396.37305 C 456.45945 396.57725 456.80948 396.84615 457.17969 397.03125 C 459.80882 398.34581 462.26508 399.14844 464.75391 399.14844 C 468.07039 399.14844 471.30655 398.01438 474.18555 396.00781 L 474.19531 396.00195 L 474.20312 395.99609 C 477.13864 393.92397 479.4786 391.1795 481.10352 387.92969 L 483.21094 383.7168 L 478.57227 382.89258 C 475.5026 382.34686 472.46452 381.52812 469.44922 380.43164 C 466.448 379.34029 463.87853 378.09688 461.73438 376.73242 L 460.10156 375.69336 L 458.34961 376.51562 C 455.19925 377.99437 451.728 379.33312 448.06836 380.58789 L 447.11133 379.69336 L 447.27148 380.9043 C 447.24538 380.9133 447.22532 380.92489 447.19922 380.93359 C 443.2049 382.19391 439.33534 383.13389 435.5918 383.75781 L 431.59961 384.42383 L 432.8125 388.2832 C 433.52036 390.5355 434.07075 393.33396 434.41602 396.64844 L 434.41992 396.68945 L 434.42578 396.73047 C 434.84076 399.98112 435.05078 403.5073 435.05078 407.30469 C 435.05078 409.15531 435.00668 410.95782 434.91797 412.71094 L 428.00977 412.71094 L 428.25977 409.70898 L 431.44141 409.44922 L 429.80664 405.08594 C 429.44357 404.11774 429.07931 402.87982 428.74219 401.39648 C 428.40608 399.91765 428.13447 398.35892 427.92969 396.7207 C 427.71745 395.0228 427.54183 393.32618 427.40039 391.62891 C 427.26186 389.89367 427.19336 388.31459 427.19336 386.90234 C 427.19336 385.06881 427.30135 383.59813 427.47266 382.57031 L 428.13281 378.61133 L 424.12109 378.47656 C 419.90601 378.33368 415.65292 378.08317 411.36328 377.72656 C 407.07734 377.29781 403.50009 376.79951 400.67383 376.24805 L 398.83594 375.88867 L 397.51172 377.21289 C 395.12001 379.6046 392.73143 381.54897 390.35938 383.06445 L 390.33984 383.07617 L 390.32031 383.08789 C 388.17078 384.50044 385.79987 385.4488 383.09961 385.95117 L 379.23242 386.67188 L 380.37695 390.43555 C 380.81166 391.86385 381.30796 394.08838 381.80273 396.98633 L 381.81055 397.03516 L 381.82031 397.08398 C 382.33473 399.6561 382.625 403.13102 382.625 407.41406 C 382.625 408.99646 382.56332 410.76416 382.43359 412.71094 L 372.24219 412.71094 L 379.05859 391.91211 L 377.63867 390.39258 C 377.25332 389.9797 376.81299 389.16138 376.58984 387.62109 L 376.58984 387.61719 C 376.32317 385.68246 376.18555 383.62682 376.18555 381.44727 L 376.18555 381.09375 L 381.29297 373.43359 L 371.84961 376.33789 C 369.13889 377.17195 366.39502 377.86649 363.61523 378.42383 C 360.82867 378.91003 358.08193 379.25872 355.37695 379.4668 L 352.32617 379.70117 L 351.87695 386.88672 L 354.03906 387.9043 C 354.44581 388.09571 354.67527 388.27509 354.99805 389.08203 L 355.02539 389.15039 L 355.05664 389.21875 C 355.35103 389.87294 355.72852 391.6748 355.72852 394.32031 C 355.72852 396.26786 355.59246 398.63224 355.31055 401.38086 C 355.03171 404.02677 354.61209 406.75404 354.05078 409.56055 L 354.04297 409.60156 L 354.03516 409.64258 C 353.5482 412.42518 352.9255 415.0938 352.16602 417.64844 L 352.15625 417.67773 L 352.14844 417.70898 C 351.81878 418.89576 351.40523 419.5852 351.0293 420.5293 L 350.375 420.17773 C 350.3977 419.2651 350.4375 418.32274 350.4375 417.45117 L 350.4375 412.75977 C 350.4375 404.80612 350.06986 397.8428 349.32031 391.83594 C 348.63288 385.73945 347.46283 381.11458 345.12891 377.71094 L 342.98633 374.58789 L 340.0293 376.95312 C 339.69909 377.21729 338.8165 377.75021 337.55664 378.32227 C 336.20845 378.85943 334.71812 379.40316 333.07617 379.95117 C 331.50224 380.42924 329.8914 380.87255 328.24609 381.28516 C 326.60423 381.62558 325.21374 381.86203 324.14062 381.98828 L 321.0332 382.35547 L 321.0332 383.92969 L 317.29492 383.92969 C 314.00137 383.92969 311.3893 383.37694 309.35742 382.42773 C 307.27702 381.34807 305.13691 379.68096 302.97656 377.32422 L 301.05664 375.22852 L 298.60352 376.66602 C 296.94817 377.63639 294.2748 378.66519 290.69336 379.56055 C 287.28183 380.41343 283.04276 380.87305 278.01758 380.87305 L 276.83398 380.87305 C 276.30831 380.76279 275.90572 380.76563 275.50781 380.76562 L 271.07422 380.76562 L 272.08203 385.08203 C 272.62965 387.42898 273.26397 389.42425 274.07422 391.13477 L 274.10547 391.20312 L 274.13867 391.26758 C 275.00585 392.91522 276.01757 394.3431 277.27539 395.49609 L 277.33789 395.55273 L 277.40039 395.60547 C 278.61295 396.61594 280.01378 397.38173 281.52148 397.8125 L 281.6582 397.85156 L 281.79883 397.88086 C 283.14053 398.1492 284.53699 398.27539 285.98047 398.27539 C 288.21482 398.27539 290.67654 397.83985 293.55273 397.0625 C 294.69921 396.75264 295.75113 396.26952 296.86328 395.89648 L 296.86328 399.36328 C 296.31083 399.57797 295.93918 399.7844 295.24023 399.99805 C 293.76831 400.39727 292.10815 400.77308 290.25 401.11719 C 288.40334 401.45916 286.43631 401.73252 284.35742 401.94141 C 282.35115 402.07816 280.38039 402.14844 278.45117 402.14844 C 276.69539 402.14844 275.10772 402.04665 273.69141 401.85352 L 267.63477 401.02734 L 269.96094 406.67969 C 270.334 407.58569 270.63521 408.71293 270.82031 410.07031 L 270.82422 410.08203 L 270.82422 410.09375 C 270.94186 410.9172 271.02524 411.79022 271.07227 412.71094 L 266.63086 412.71094 C 266.68308 412.40136 266.73786 412.09106 266.79688 411.78125 L 267.26172 409.3457 L 265.125 408.08984 C 262.48931 406.53944 259.64077 405.1562 256.58594 403.93359 C 256.28882 403.81185 255.93098 403.71893 255.625 403.60156 L 265.44141 399.88672 L 264.68164 396.84961 C 264.64494 396.70281 264.51968 395.90105 264.45312 394.76953 C 264.38302 393.57744 264.34961 392.61339 264.34961 391.91992 C 264.34961 389.19523 264.65834 386.98719 265.17383 385.32617 L 266.32617 381.61133 L 262.51562 380.83594 C 258.71501 380.06174 255.48764 379.22142 252.83984 378.3418 C 250.32439 377.41124 248.11365 376.30363 246.19922 375.02734 L 243.79883 373.42773 L 241.75977 375.4668 C 240.37505 376.85151 239.21463 377.89473 238.05664 378.93555 L 238.05664 363.55469 C 238.05664 359.3724 238.34842 356.07111 238.8418 353.76562 C 239.4064 351.46494 240.20645 349.82948 241.08008 348.76172 L 236.81055 343.37305 C 233.68109 344.903 230.91779 345.98432 228.57617 346.63477 C 226.20865 347.29241 224.08543 347.59766 222.20898 347.59766 C 220.38277 347.59766 219.06978 347.35005 218.35547 347.07227 L 208.77344 343.3457 z M 221.88086 352.33398 L 221.94336 352.50391 C 221.93198 352.47571 221.91403 352.44841 221.9043 352.41992 C 221.89356 352.39275 221.88956 352.36209 221.88086 352.33398 z M 321.0332 388.23633 L 321.0332 390.20312 L 325.27344 391.08203 C 326.20572 392.97821 327.12857 395.52948 327.87305 399.08008 L 327.87891 399.10547 L 327.88477 399.13281 C 328.7056 402.76798 329.19423 407.31092 329.30273 412.71094 L 318.20508 412.71094 C 318.12715 410.95437 318.08594 408.7856 318.08594 406.21289 C 318.08594 400.99279 318.23601 397.05958 318.5 394.52734 C 318.81423 392.17552 319.44476 390.5191 320.18359 389.45703 L 321.0332 388.23633 z M 238.05664 393.58984 L 244.89453 394.94727 L 238.05664 397.71875 L 238.05664 393.58984 z M 402.42578 393.97266 C 403.12477 394.10603 403.75272 394.30322 404.47461 394.41602 L 404.53516 394.42383 L 404.5957 394.43164 C 405.83123 394.5814 406.75137 394.58253 407.82812 394.66016 C 407.88513 395.35748 407.87502 396.0724 407.96875 396.75977 L 407.98047 396.83789 L 407.99414 396.91406 C 408.07984 397.38554 408.19312 397.81077 408.28516 398.27148 L 402.89844 399.60547 C 402.84074 398.8452 402.82234 398.17415 402.74805 397.375 L 402.74609 397.35938 C 402.68419 396.37041 402.52456 395.07586 402.42578 393.97266 z M 428.04883 409.72656 L 423.32617 411.13281 C 419.5552 412.25608 416.54366 413.72599 414.41602 416.06641 L 414.38672 416.09961 L 414.35742 416.13281 C 413.26101 417.40234 412.48764 418.89059 411.88086 420.46094 C 411.59528 420.43384 411.40999 420.42318 411.10352 420.39258 C 409.70285 420.18273 408.27115 419.97336 406.80469 419.76367 C 405.3382 419.48389 403.94154 419.20434 402.61719 418.92578 L 402.61328 418.92383 C 402.50962 418.90073 402.47458 418.87692 402.375 418.85352 C 402.4595 418.02863 402.52488 417.34074 402.625 416.40625 C 402.74881 415.25067 402.7943 414.06058 402.87305 412.88477 C 406.33904 412.33649 409.81979 411.79774 413.42578 411.33984 L 413.45312 411.33594 L 413.48047 411.33203 C 417.99571 410.687 422.435 410.18581 426.79883 409.82812 L 428.04883 409.72656 z M 296.97461 413.08398 L 296.97461 419.48047 C 296.0817 419.36271 295.01627 419.09631 294.20898 419.0625 L 294.20312 419.0625 C 293.70035 419.0406 293.22583 418.99354 292.73047 418.96484 L 292.82617 414.12891 C 293.6483 413.96073 294.34905 413.89388 295.26562 413.65625 L 295.32422 413.64062 L 295.38281 413.62305 C 295.89753 413.47054 296.45202 413.25028 296.97461 413.08398 z M 427.74023 417.24609 L 434.57422 417.24609 C 434.47194 418.22855 434.35285 419.17299 434.21875 420.08008 C 433.9474 421.84388 433.61399 423.36417 433.23633 424.62305 L 433.21289 424.70117 L 433.19336 424.7793 C 432.88993 425.99304 432.51694 426.74171 432.41406 426.88867 L 429.71484 430.74414 L 428.83203 428.34375 C 428.40805 427.19294 428.11751 426.06545 427.93555 424.94727 C 427.8145 423.68994 427.74023 421.87661 427.74023 419.52344 L 427.74023 417.24609 z M 440.01953 426.48633 L 439.97852 426.63477 C 439.98302 426.61577 439.98654 426.59388 439.99219 426.57617 C 440.00019 426.54427 440.01153 426.51843 440.01953 426.48633 z M 250.19922 438.25 L 250.17188 438.37305 C 250.17586 438.35049 250.17806 438.32794 250.18359 438.30664 C 250.18759 438.28544 250.19482 438.2712 250.19922 438.25 z " /></g></g></svg>
