<?xml version="1.0" encoding="UTF-8" standalone="no"?>
<svg
   version="1.2"
   viewBox="0 0 570 570"
   width="570"
   height="570"
   id="svg1"
   sodipodi:docname="KucharTokenLaser.svg"
   inkscape:version="1.4.2 (f4327f4, 2025-05-13)"
   xml:space="preserve"
   xmlns:inkscape="http://www.inkscape.org/namespaces/inkscape"
   xmlns:sodipodi="http://sodipodi.sourceforge.net/DTD/sodipodi-0.dtd"
   xmlns="http://www.w3.org/2000/svg"
   xmlns:svg="http://www.w3.org/2000/svg"><sodipodi:namedview
     id="namedview1"
     pagecolor="#ffffff"
     bordercolor="#666666"
     borderopacity="1.0"
     inkscape:showpageshadow="2"
     inkscape:pageopacity="0.0"
     inkscape:pagecheckerboard="0"
     inkscape:deskcolor="#d1d1d1"
     inkscape:zoom="0.52390185"
     inkscape:cx="-2.8631317"
     inkscape:cy="373.1615"
     inkscape:window-width="1920"
     inkscape:window-height="1057"
     inkscape:window-x="-8"
     inkscape:window-y="-8"
     inkscape:window-maximized="1"
     inkscape:current-layer="svg1" /><defs
     id="defs1"><clipPath
       clipPathUnits="userSpaceOnUse"
       id="cp1"><path
         d="m 275.5,535.5 c -143.78,0 -260,-116.22 -260,-260 0,-143.78 116.22,-260 260,-260 143.78,0 260,116.22 260,260 0,143.78 -116.22,260 -260,260 z"
         id="path1" /></clipPath></defs><style
     id="style1">
		tspan { white-space:pre } 
		.s0 { fill: none;stroke: #ff0000;stroke-miterlimit:100 } 
	</style><g
     inkscape:groupmode="layer"
     id="layer1"
     inkscape:label="Template"><path
       id="Path 0 copy"
       class="s0"
       d="m 253.96776,1.9812412 c -4.83809,0.7256238 -12.51049,1.8658898 -17.06826,2.5396834 -4.54737,0.6737937 -14.55576,2.8299332 -22.23856,4.8098491 -7.68279,1.9695513 -20.01678,5.7427953 -27.40888,8.3757733 -7.40247,2.632979 -20.89926,8.551995 -30.00441,13.164891 -9.10514,4.602528 -22.37354,12.263042 -29.48531,17.021062 -7.11177,4.747653 -17.57697,12.48073 -23.26639,17.176553 -5.689435,4.695823 -15.573238,13.828318 -21.968643,20.296736 -6.385022,6.468418 -15.147556,16.191781 -19.456148,21.592491 -4.318975,5.41108 -11.576098,15.42469 -16.133862,22.24555 -4.547382,6.83124 -12.178261,20.3382 -16.95405,30.00974 -5.533687,11.2368 -10.714379,23.75899 -14.316985,34.66408 -3.114645,9.39165 -6.8418376,22.43215 -8.2953386,28.97313 -1.453501,6.54097 -3.5922235,19.22903 -4.7446423,28.19566 -1.3912082,10.80144 -2.09719388,22.31812 -2.10757603,34.1458 0,12.12828 0.67483933,22.9919 2.10757603,33.88662 1.162801,8.82153 3.3222877,21.39554 4.7861709,27.93654 1.4638831,6.55133 4.44356,17.48752 6.623812,24.31875 2.180251,6.83123 6.104705,17.53937 8.721006,23.80046 2.616301,6.2611 7.57897,16.73082 11.015462,23.28217 3.446873,6.54098 9.676163,17.02106 13.86017,23.28215 4.173624,6.2611 11.119282,15.79787 15.427874,21.20896 4.308592,5.40071 13.071127,15.12406 19.466531,21.60285 6.385023,6.47879 16.279208,15.58018 21.968643,20.23455 5.68942,4.64399 13.36182,10.563 17.06825,13.15452 3.69605,2.59151 11.60724,7.66051 17.57698,11.25753 5.98013,3.6074 16.92291,9.43312 24.315,12.96793 7.39209,3.52447 18.80207,8.31359 25.34283,10.63558 6.54075,2.322 18.17914,5.82573 25.86193,7.7849 7.6828,1.94883 22.34238,4.7684 32.58957,6.24037 14.74265,2.1354 22.60194,2.69517 37.7495,2.69517 15.15794,0 23.01723,-0.55977 37.75988,-2.69517 10.24718,-1.47197 24.90677,-4.29154 32.58957,-6.24037 7.68278,-1.95917 19.31079,-5.4629 25.86193,-7.7849 6.54076,-2.32199 17.94035,-7.11111 25.34283,-10.63558 7.39208,-3.53481 18.33487,-9.36053 24.30461,-12.96793 5.98012,-3.59702 13.89132,-8.66602 17.58736,-11.25753 3.69605,-2.59152 11.37883,-8.51053 17.06826,-13.1649 5.68942,-4.65435 15.57322,-13.76612 21.95824,-20.23454 6.39541,-6.46842 15.14756,-16.19177 19.46654,-21.59248 4.30859,-5.41109 11.42035,-15.18628 15.79125,-21.72725 4.37088,-6.55136 11.24387,-18.42049 15.27214,-26.39199 4.02828,-7.96113 9.22972,-19.37415 11.5657,-25.345 2.336,-5.98121 5.92822,-16.45093 7.99426,-23.28216 2.06605,-6.83123 4.88999,-18.23389 6.27083,-25.35538 1.39121,-7.1111 3.22885,-18.75218 4.08018,-25.86329 0.86172,-7.11113 1.5677,-20.84614 1.5677,-30.52804 0,-9.81665 -0.70598,-23.07484 -1.59885,-30.00973 -0.8721,-6.82087 -2.30483,-16.368 -3.16655,-21.20894 -0.86172,-4.83059 -2.907,-13.91125 -4.54739,-20.17235 -1.64037,-6.2611 -4.91075,-16.96923 -7.27788,-23.80045 -2.35675,-6.83125 -8.17076,-20.33822 -12.9154,-30.00974 -4.74463,-9.67154 -12.35476,-23.1785 -16.90213,-30.00974 -4.55776,-6.82086 -11.81489,-16.83447 -16.13386,-22.24555 C 502.62025,101.55757 493.85772,91.844574 487.47269,85.386521 481.08767,78.918102 471.20387,69.816706 465.51445,65.151982 459.82502,60.487257 452.14224,54.557873 448.44619,51.96636 444.75015,49.374846 436.83895,44.31621 430.85883,40.708823 424.88909,37.101437 413.9463,31.275712 406.55422,27.751254 399.15174,24.226796 387.75215,19.448044 381.21139,17.136415 374.66025,14.814417 363.95626,11.528378 357.4155,9.8179792 350.87475,8.1075792 341.33354,5.9929045 336.20478,5.1325219 331.08637,4.2617733 321.77358,2.8416237 315.52353,1.970875 308.01724,0.92390344 297.0952,0.4366989 283.45307,0.52999334 272.07423,0.60255536 258.80584,1.2556173 253.96776,1.9812412 Z"
       style="stroke-width:1.03741;stroke:#000000;stroke-opacity:1"
       inkscape:label="vnejsi kruh" /><path
       id="Path 0"
       class="s0"
       d="m 265.85013,27.483209 c -2.18288,0.208543 -7.78893,0.873904 -12.44244,1.459816 -4.66343,0.595844 -10.93427,1.539263 -13.95061,2.105316 -3.00642,0.556121 -11.52961,2.512475 -18.92164,4.359591 -7.39203,1.837184 -19.05063,5.451972 -25.89695,8.02403 -6.84631,2.57206 -17.3837,7.150127 -23.40647,10.159138 -6.0327,3.018944 -15.43895,8.192855 -20.916,11.499788 -5.47708,3.306933 -13.55374,8.70925 -17.92944,12.016186 -4.3856,3.306932 -11.77765,9.245508 -16.44107,13.188011 -4.65352,3.942499 -11.62883,10.476915 -15.49848,14.508775 -3.869674,4.04181 -10.37864,11.38062 -14.466589,16.3162 -4.087947,4.93557 -11.023564,14.35985 -15.419103,20.93398 -4.395538,6.58408 -10.735823,17.34899 -14.089528,23.93306 -3.353706,6.57416 -8.11636,16.89217 -10.596914,22.93007 -2.480545,6.02794 -6.121992,16.57439 -8.096512,23.42659 -1.974519,6.8522 -4.663441,18.29241 -5.983092,25.42266 -1.309727,7.12034 -2.847671,18.34207 -3.423155,24.91621 -0.575495,6.58408 -1.051758,16.67371 -1.051758,22.43353 0,5.75981 0.476263,15.84945 1.051758,22.43353 0.575484,6.57413 2.113428,17.78593 3.423155,24.9162 1.319651,7.13027 3.939113,18.34205 5.824335,24.92612 1.895135,6.57415 5.308376,16.67372 7.590486,22.43353 2.2821,5.7499 7.163825,16.29634 10.84497,23.42659 3.67121,7.12033 10.239712,18.34207 14.575715,24.91621 4.336003,6.58408 12.214231,17.12058 17.512683,23.4266 5.288538,6.30602 13.375129,15.05499 17.969109,19.44437 4.58407,4.38938 12.15471,11.04297 16.8082,14.78686 4.65353,3.73396 13.39498,10.09956 19.42768,14.14137 6.02278,4.03186 17.00667,10.48684 24.3987,14.33997 7.39205,3.84318 19.49714,9.28524 26.88918,12.0857 7.40195,2.80046 19.50706,6.62379 26.89909,8.49077 7.39203,1.86697 19.49713,4.38939 26.88918,5.60094 11.27161,1.83718 17.40353,2.19469 37.85319,2.19469 20.44967,0 26.58159,-0.35751 37.85321,-2.19469 7.39205,-1.21155 19.49713,-3.73397 26.88916,-5.60094 7.39204,-1.86698 19.49714,-5.69031 26.8991,-8.49077 7.39204,-2.80046 19.26892,-8.12334 26.39306,-11.81756 7.12415,-3.70418 18.09812,-10.15915 24.3987,-14.33999 6.3006,-4.18084 15.27028,-10.63581 19.92379,-14.33997 4.65352,-3.70417 13.6331,-11.92681 19.95354,-18.27255 6.32045,-6.34574 14.53603,-15.35292 18.26677,-20.01042 3.73076,-4.66745 10.34887,-13.86331 14.71463,-20.43745 4.36577,-6.58407 11.47009,-19.14645 15.78624,-27.91529 4.30622,-8.76883 9.48563,-20.43745 11.4899,-25.91921 2.01421,-5.48175 5.14963,-15.79979 6.96539,-22.93006 1.81576,-7.13026 4.33601,-19.46424 5.5862,-27.40881 1.90506,-12.0559 2.28212,-18.352 2.28212,-37.88574 0,-19.30534 -0.38698,-25.88942 -2.20273,-37.3892 -1.21051,-7.67646 -3.72083,-20.01044 -5.58621,-27.40883 -1.85545,-7.40833 -5.01072,-17.94482 -7.015,-23.42659 -2.00427,-5.48177 -7.29282,-17.37878 -11.74788,-26.42567 -4.45507,-9.04691 -11.57922,-21.59935 -15.816,-27.90537 -4.23677,-6.306 -10.76558,-15.26354 -14.50626,-19.90119 -3.74068,-4.63763 -10.37863,-12.21479 -14.76424,-16.8425 -4.38562,-4.62771 -11.77765,-11.628879 -16.43117,-15.551517 -4.66342,-3.932571 -12.05548,-9.851287 -16.44108,-13.158219 -4.37569,-3.306936 -12.45237,-8.709253 -17.92943,-12.016186 -5.47706,-3.306933 -14.88331,-8.480844 -20.916,-11.499788 -6.02278,-3.009011 -16.56016,-7.587078 -23.40649,-10.159138 -6.8463,-2.572058 -18.50491,-6.196777 -25.89695,-8.043892 -7.39203,-1.847117 -16.13349,-3.8134 -19.41774,-4.379453 -3.29417,-0.566051 -8.89029,-1.519402 -12.45236,-2.105315 -3.56207,-0.595842 -15.88545,-1.241341 -27.39521,-1.439955 -11.49984,-0.198616 -22.71193,-0.188684 -24.90474,0.01985 z"
       style="stroke-width:0.992647;stroke:#000000;stroke-opacity:1"
       inkscape:label="vnitrni kruh" /><g
       inkscape:groupmode="layer"
       id="layer3"
       inkscape:label="Positions"
       style="display:none"><rect
         style="display:inline;fill:#ff2121;fill-opacity:0.107692;stroke:#000000;stroke-width:1.05245;stroke-opacity:1"
         id="rect1"
         width="300"
         height="300"
         x="135"
         y="80.172386" /><rect
         style="display:inline;fill:#de0000;fill-opacity:0.0923077;stroke:#000000;stroke-width:1.00157;stroke-opacity:1"
         id="rect2"
         width="300"
         height="83.006134"
         x="135"
         y="401.53375" /></g><text
       xml:space="preserve"
       style="font-size:107.967px;font-family:'Didact Gothic';-inkscape-font-specification:'Didact Gothic';text-align:start;letter-spacing:0px;writing-mode:lr-tb;direction:ltr;text-anchor:start;display:none;fill:#de0000;fill-opacity:0.0923077;stroke:#000000;stroke-width:5.731;stroke-dasharray:none;stroke-opacity:1"
       x="116.35541"
       y="463.8989"
       id="text2"
       inkscape:label="Text"><tspan
         sodipodi:role="line"
         id="tspan2"
         x="116.35541"
         y="463.8989"
         style="font-style:normal;font-variant:normal;font-weight:normal;font-stretch:normal;font-family:'New Rocker';-inkscape-font-specification:'New Rocker';letter-spacing:0px;fill:#000000;fill-opacity:1;stroke:#000000;stroke-width:5.731;stroke-dasharray:none;stroke-opacity:1">Kuchař</tspan></text></g><g
     inkscape:groupmode="layer"
     id="layer2"
     inkscape:label="Content"
     style="display:inline"><path
       id="path5"
       style="display:none;stroke-width:8.05907"
       d="m 276.32799,515.95806 h 15.42748 v 4.53544 h -15.42748 z"
       inkscape:label="spojovnik pismen" /><g
       id="text4"
       inkscape:label="Text"
       style="opacity:1"><path
         id="path6"
         style="font-size:107.967px;font-family:'New Rocker';-inkscape-font-specification:'New Rocker';letter-spacing:0px;baseline-shift:baseline;white-space:pre;display:inline;overflow:visible;vector-effect:none;enable-background:accumulate;stop-color:#000000;stop-opacity:1;stroke:#000000;stroke-opacity:1;fill:none"
         d="M 441.38281 376.125 L 439.44922 377.6543 C 437.7485 379.0007 435.90025 380.4218 433.9082 381.91602 C 432.54315 382.92716 431.26116 383.85802 429.96875 384.79688 C 428.61455 383.85037 427.26811 382.9108 425.83984 381.89062 L 425.83789 381.89062 L 425.83789 381.88867 L 425.83789 381.88672 L 425.83594 381.88672 C 423.87398 380.41405 422.08751 379.01251 420.48828 377.69141 L 418.60938 376.14062 L 416.77539 377.74414 C 415.5983 378.7741 414.70517 379.58976 414.04492 380.25 C 413.63756 380.65736 412.87433 381.35605 411.82031 382.26953 L 409.49414 384.28516 L 411.66992 386.46094 C 414.1602 388.95123 416.76321 391.66033 419.47656 394.58789 L 419.50195 394.61523 L 419.52734 394.64062 C 420.74697 395.89153 421.96072 397.17835 423.16797 398.5 L 423.16797 408.96484 C 421.11484 409.46868 418.80568 410.00316 416.25 410.56445 C 413.35144 411.12955 410.6703 411.587 408.2168 411.9375 L 405.75586 412.28906 L 405.75586 416.44336 L 400.74023 416.44336 C 397.40762 416.44336 394.72631 415.88589 392.61328 414.89648 C 390.47362 413.78801 388.29709 412.0851 386.11719 409.70703 L 384.55469 408 L 382.55664 409.16992 C 380.83899 410.17681 378.14379 411.20672 374.56445 412.10156 C 371.12349 412.9618 366.883 413.41992 361.87305 413.41992 L 360.61328 413.41992 C 360.14042 413.31593 359.7687 413.3125 359.38867 413.3125 L 355.77734 413.3125 L 356.59961 416.82812 C 357.13479 419.12176 357.7528 421.06017 358.52734 422.69531 L 358.55273 422.75 L 358.58008 422.80273 C 359.41373 424.38667 360.37938 425.7392 361.55664 426.81836 L 361.60547 426.86523 L 361.6582 426.9082 C 362.79861 427.85854 364.10548 428.57282 365.51172 428.97461 L 365.62305 429.00586 L 365.73633 429.02734 C 367.02013 429.2841 368.36172 429.4082 369.75391 429.4082 C 371.87937 429.4082 374.27406 428.98901 377.08789 428.22852 C 378.49241 427.84891 379.78961 427.27694 381.14062 426.80078 L 381.14062 431.51758 C 380.48944 431.78582 379.96756 432.05158 379.10156 432.31641 C 377.62036 432.71889 375.95113 433.09673 374.08984 433.44141 C 372.24647 433.78277 370.2884 434.05746 368.21875 434.26562 C 366.2097 434.40321 364.2378 434.47266 362.30469 434.47266 C 360.54347 434.47266 358.94354 434.3713 357.50977 434.17578 L 352.57617 433.50391 L 354.47266 438.10547 C 354.72903 438.72809 354.95024 439.44071 355.125 440.24609 L 349.31836 440.24609 C 349.3359 438.3717 349.36489 436.7095 349.40625 435.26172 C 349.47695 432.78669 349.54502 430.71584 349.61523 429.01953 C 349.75279 427.37311 349.89089 426.05658 350.02148 425.06445 C 350.21985 424.01664 350.44403 423.03965 350.69922 422.14648 L 351.36523 419.81445 L 349.17578 418.77344 C 347.72388 418.08206 346.46431 417.43097 345.39062 416.82812 C 344.3039 416.14792 343.25066 415.4693 342.23242 414.79102 C 341.31474 414.1339 340.39193 413.40665 339.46094 412.60938 C 338.47522 411.69376 337.39195 410.68104 336.19727 409.55664 L 334.11719 407.59961 L 332.15234 409.67188 C 329.62923 412.33517 327.19283 414.63014 324.85352 416.55664 C 323.79478 417.42854 322.42063 418.31473 321.22656 419.19336 L 321.22656 395.66406 C 321.22656 392.06477 321.47182 388.92801 321.93555 386.26367 C 322.44368 383.74414 323.28782 381.92102 324.3418 380.65625 L 320.9082 376.23438 C 317.99591 377.62119 315.28728 378.68092 312.79492 379.42188 L 312.78516 379.42383 L 312.77344 379.42773 C 310.41624 380.14799 308.21899 380.49023 306.16211 380.49023 C 304.46634 380.49023 303.09327 380.26556 302.0332 379.89453 L 295.13477 377.48047 L 298.55469 383.94141 C 299.15176 385.06921 299.6398 386.14496 300.02344 387.16797 C 300.39328 388.15423 300.66961 389.16949 300.85547 390.22266 L 300.87109 390.30273 L 300.88867 390.38281 C 301.1314 391.41438 301.29099 392.5736 301.35547 393.86328 C 301.42447 395.24336 301.46094 396.81689 301.46094 398.57812 L 301.46094 440.24609 L 295.04102 440.24609 L 295.07422 439.97852 L 290.90625 441.16992 C 287.44707 442.15826 284.47098 443.92734 282.21875 446.43945 L 282.2168 446.44141 L 282.21484 446.44336 C 280.70794 448.13108 279.73115 450.14307 279.01562 452.26953 C 277.68235 452.09108 276.42029 451.96432 274.8418 451.60352 C 273.33729 451.24896 272.35167 450.87975 271.23828 450.51367 C 271.44325 448.81405 271.66851 447.16098 271.76953 445.21875 C 271.76972 445.21625 271.76962 445.2112 271.76953 445.20898 C 271.76952 445.20787 271.76944 445.20625 271.76953 445.20508 C 271.98913 442.27312 272.10156 439.581 272.10156 437.12305 C 272.10156 434.3395 271.9915 431.59124 271.77344 428.875 C 271.77332 428.8725 271.77195 428.86745 271.77148 428.86523 L 271.77148 428.86328 L 271.77148 428.86133 C 271.73848 428.23498 271.64367 427.60872 271.59961 426.98242 C 272.29086 427.40814 272.97136 427.889 273.67773 428.24219 C 276.22665 429.51664 278.57653 430.27148 280.89648 430.27148 C 284.0434 430.27148 287.11181 429.20066 289.87695 427.27344 L 289.88477 427.26953 L 289.89062 427.26367 C 292.71454 425.27032 294.95801 422.64062 296.52344 419.50977 L 298.24023 416.07812 L 294.46289 415.4082 C 291.38955 414.86184 288.34835 414.04216 285.33203 412.94531 C 282.32717 411.85264 279.74288 410.60342 277.57617 409.22461 L 276.24805 408.37891 L 274.82031 409.04883 C 271.41204 410.64863 267.70757 412.11742 263.70898 413.45117 C 259.73114 414.70629 255.8742 415.64304 252.13867 416.26562 L 248.88867 416.80859 L 249.87695 419.95117 C 250.5936 422.23142 251.14143 425.04061 251.48633 428.35156 L 251.49023 428.38281 L 251.49414 428.41602 C 251.90855 431.66224 252.11914 435.1783 252.11914 438.95898 C 252.11914 439.39344 252.1162 439.82481 252.11133 440.25391 L 243.94531 440.25391 C 243.9293 439.28013 243.92188 438.23646 243.92188 437.12305 L 243.92188 407.00586 L 239.77539 409.08008 C 237.57941 410.17806 234.87153 411.12294 231.6582 411.875 L 231.65234 411.87695 L 231.64648 411.87891 C 228.49746 412.63194 225.27858 413.11247 221.98438 413.31836 L 219.29688 413.48633 L 219.29688 419.7832 L 221.42383 420.34961 C 222.22395 420.56297 222.64833 420.82828 222.75977 420.92578 L 222.90039 421.04883 L 223.05664 421.15234 C 223.11344 421.19024 223.2763 421.3137 223.48242 421.84961 C 223.67087 422.33956 223.88006 423.33584 223.94336 424.72852 L 223.94531 424.79297 L 223.95117 424.85742 C 224.08308 426.30838 224.15625 428.25347 224.15625 430.64453 L 224.15625 445.61328 L 217.05273 448.7207 L 214.98828 447.14844 L 214.98828 426.75781 L 214.98828 421.91211 L 214.98828 421.90039 C 215.05368 420.61547 215.08668 419.41708 215.08984 418.29883 C 215.09032 418.29083 215.0908 418.28504 215.0918 418.27734 C 215.1612 417.16743 215.23157 416.13031 215.30078 415.1582 C 215.44312 414.15382 215.58389 413.06527 215.72461 411.86914 L 216.32227 406.78906 L 211.67773 408.93359 C 210.92367 409.28162 209.75749 409.71783 208.26758 410.19336 C 206.74574 410.60724 205.08321 411.02332 203.27148 411.44141 C 201.45029 411.86169 199.63095 412.24696 197.81055 412.59766 C 196.00818 412.87395 194.38352 413.08094 192.95703 413.2168 L 190.58984 413.44141 L 190.10352 418.78906 L 191.64648 419.71484 C 192.42102 420.17956 192.95558 420.68606 193.35547 421.26367 L 193.42773 421.36914 L 193.50977 421.4668 C 193.93383 421.97568 194.36066 422.74494 194.70703 423.8418 C 195.04906 424.92489 195.31329 426.37594 195.44531 428.1582 L 195.44922 428.2168 L 195.45508 428.27344 C 195.65375 429.99527 195.76172 432.12902 195.76172 434.64062 C 195.76172 436.43907 195.71598 438.31012 195.625 440.25391 L 185.29688 440.25391 C 185.29688 437.81896 185.36797 435.68717 185.50195 433.84961 C 185.70389 432.06251 186.03609 430.82529 186.11914 430.64258 L 187.14453 428.38672 L 185.06055 427.04688 C 184.04125 426.39162 182.95177 425.70203 181.79102 424.97656 C 180.65759 424.26817 179.48805 423.56025 178.28906 422.85352 C 177.30881 422.17903 176.36612 421.50684 175.44141 420.83398 C 175.51821 420.78898 175.60115 420.74428 175.67773 420.69922 C 176.87173 419.99687 177.99045 419.3685 179.0293 418.81445 C 180.07105 418.25885 180.9595 417.81492 181.67383 417.49023 C 182.44771 417.13847 183.01118 416.89435 183.2793 416.78711 L 185.91992 415.73047 L 184.88281 413.08203 C 184.31112 411.62104 183.82047 409.91565 183.41797 407.98438 C 183.09124 406.0048 182.92189 403.95282 182.92188 401.81836 C 182.92188 400.36509 183.01997 398.86938 183.2207 397.33008 L 183.22266 397.32227 L 183.22266 397.31445 C 183.42048 395.73186 183.72013 394.18731 184.11133 392.67578 C 184.55863 391.21677 185.12195 389.86793 185.80664 388.62305 L 185.82031 388.59766 L 185.83398 388.57227 C 186.51613 387.27 187.30247 386.15732 188.19336 385.20703 L 192.7168 380.38281 L 184.91406 380.38281 C 183.00939 380.38281 181.24866 380.6265 179.64258 381.19336 C 178.37934 381.63921 177.20774 382.13007 176.11914 382.66602 L 176.09961 382.67578 C 176.0804 382.68526 176.05627 382.69166 176.03711 382.70117 C 175.03545 383.13119 174.0688 383.5602 173.13281 383.99219 C 172.57785 384.24833 172.00816 384.37695 171.31055 384.37695 L 169.86719 384.37695 C 169.22629 384.31115 168.45417 384.21749 167.53125 384.08594 C 166.69283 383.95689 165.7719 383.78938 164.79297 383.5957 C 163.9721 383.35656 163.22254 383.07221 162.55078 382.73633 L 159.3418 387.41992 C 159.82974 387.86351 160.25339 388.42942 160.61719 389.20898 C 161.03406 390.10228 161.36574 391.06562 161.61133 392.10938 L 161.61523 392.12891 L 161.62109 392.14844 C 161.86472 393.12293 162.01816 394.13094 162.08008 395.18359 L 162.08398 395.26758 L 162.09375 395.35156 C 162.22628 396.47806 162.29102 397.51839 162.29102 398.4707 C 162.29102 400.60959 162.18702 402.59224 161.98438 404.41602 L 161.98633 404.4043 C 161.82334 405.81686 161.78264 406.87075 161.73633 407.94922 C 161.40269 408.2665 161.25685 408.40715 160.49414 409.125 C 159.32284 410.2274 157.76737 411.60493 155.84766 413.24023 C 153.9722 414.83784 151.83686 416.52008 149.44531 418.2793 C 148.53153 418.92377 147.62702 419.38325 146.7168 419.96289 C 146.7645 416.27001 146.8117 412.35046 146.85938 409.58008 C 147.00135 405.39172 147.25025 401.86591 147.5957 399.0332 C 147.93822 396.22451 148.41613 393.8836 148.99023 392.02344 C 149.64158 390.14359 150.52137 388.24238 151.65039 386.31641 L 154.7207 381.07812 L 148.72461 382.03711 C 146.96007 382.31944 145.55944 382.56654 144.43555 382.78906 C 143.41367 382.92464 142.49668 383.02583 141.70508 383.0918 C 140.92668 383.1567 140.10638 383.18945 139.24414 383.18945 L 135.68164 383.18945 C 134.02648 383.18945 132.63914 383.15275 131.50586 383.08789 C 130.39439 382.95469 129.3861 382.79368 128.50781 382.60547 C 127.5691 382.40432 126.62931 382.1691 125.6875 381.90039 C 125.6825 381.89939 125.67708 381.89848 125.67188 381.89648 C 124.73261 381.60775 123.66694 381.28612 122.45508 380.92969 L 118.35547 379.72461 L 118.79492 383.97461 C 119.25599 388.43157 120.18733 391.89725 122.21484 394.43164 L 122.23242 394.45312 L 122.25195 394.47461 C 123.64839 396.15033 125.54357 397.31097 127.62695 398.20508 C 127.67225 398.91602 127.74219 399.53196 127.74219 400.41406 L 127.74219 400.48242 L 127.74414 400.55078 C 127.81464 402.03209 127.84961 403.25389 127.84961 404.19336 C 127.84961 407.27594 127.48291 410.23442 126.75195 413.0918 L 126.74414 413.12305 L 126.73633 413.15234 C 126.09248 415.9209 124.82892 419.12324 122.90234 422.70117 L 121.99609 424.38281 L 123.20117 425.86523 C 124.75727 427.78043 125.95986 430.28385 126.74414 433.48633 L 126.74609 433.49219 L 126.74805 433.5 C 127.55387 436.72328 127.95703 440.04605 127.95703 443.49219 C 127.95703 445.26878 127.73574 447.09173 127.28125 448.97461 C 126.82651 450.85854 126.18284 452.6304 125.3457 454.30469 L 125.32422 454.34375 L 125.30664 454.38477 C 124.54248 456.04044 123.59406 457.55625 122.45117 458.95312 L 122.44727 458.95898 L 122.44141 458.96484 C 121.3989 460.25265 120.27723 461.24756 119.05859 462.00195 L 112.88281 465.82422 L 120.00391 467.24805 C 120.57994 467.36326 121.16284 467.41211 121.75391 467.41211 L 122.94141 467.41211 C 124.72149 467.41211 126.3803 467.29645 127.92383 467.05273 C 129.30671 466.83438 130.61876 466.61577 131.86133 466.39648 L 131.92383 466.38672 L 131.98438 466.37305 C 133.24353 466.09324 134.42776 465.84895 135.53711 465.64062 C 136.59778 465.45378 137.65195 465.36133 138.70508 465.36133 C 139.8213 465.36133 140.98828 465.50634 142.2207 465.81445 L 142.23633 465.81836 L 142.25195 465.82227 C 143.47835 466.11426 144.98214 466.67759 146.70898 467.54102 L 152.14062 470.25781 L 150.7832 464.33789 C 149.80214 460.06325 149.06455 455.64212 148.57227 451.07227 L 148.57227 451.06836 C 148.13029 446.9006 147.80384 442.49413 147.5293 437.98047 L 158.375 431.19336 C 159.57243 432.25918 160.80269 433.35171 161.83008 434.28125 L 161.88281 434.33008 L 161.9375 434.375 C 162.6679 434.97259 163.24362 435.4217 163.75781 435.80859 C 163.64298 439.45629 163.54049 442.82631 163.47852 445.36719 C 163.40782 448.26378 163.26667 450.64102 163.06445 452.46094 L 163.05859 452.50977 L 163.05469 452.55859 C 162.92151 454.28997 162.67657 455.58163 162.4375 456.29883 L 162.41797 456.35742 L 162.40039 456.41797 C 162.22388 457.03577 161.99914 457.38954 161.72656 457.66211 L 158.94141 460.44727 L 162.44922 462.24023 C 165.4458 463.77182 167.82665 465.52704 169.65039 467.47656 L 169.66602 467.49414 L 169.68359 467.51172 C 171.50385 469.39265 172.66641 471.51495 173.27344 474.06445 L 175.51172 483.46094 L 178.75977 474.36328 C 179.76482 471.54914 180.94484 469.2897 182.24023 467.5625 C 183.47341 465.91827 185.54104 464.03369 188.46094 462.06445 L 191.3418 460.11914 L 188.88477 457.66211 C 188.36567 457.14301 187.84025 456.34271 187.37891 455.20312 C 186.93447 453.92136 186.54193 452.49341 186.21094 450.90625 C 186.21034 450.90325 186.20998 450.90144 186.20898 450.89844 C 185.87439 449.22101 185.63867 447.50788 185.50391 445.75586 C 185.48 445.43257 185.45725 445.1101 185.4375 444.78906 L 195.41797 444.78906 C 195.34355 446.07455 195.24562 447.31137 195.12695 448.49805 C 194.91698 450.59779 194.67382 452.35939 194.4082 453.75391 L 194.39453 453.81836 L 194.38672 453.88477 C 194.23962 454.91441 193.9251 455.69939 193.93945 455.7832 L 193.94141 455.78516 L 193.94141 455.78711 L 193.94336 455.78711 L 193.94336 455.78906 L 193.94531 455.78906 L 193.94727 455.78906 L 193.94922 455.78906 L 193.95117 455.78711 L 193.95312 455.78516 L 193.95508 455.78516 C 193.97528 455.76985 194.01594 455.71438 194.08203 455.61523 L 192.35938 458.20117 L 195.07617 459.70898 C 196.32845 460.4047 197.42916 461.05924 198.37305 461.66602 L 198.4707 461.73047 L 198.57422 461.78516 C 199.54307 462.30188 200.47882 462.88274 201.38672 463.53125 L 201.42578 463.55859 L 201.46289 463.58398 C 202.43252 464.2304 203.41879 464.98339 204.41602 465.84766 L 204.49219 465.91406 L 204.57227 465.97461 C 205.63223 466.76958 206.86923 467.7995 208.26172 469.05273 L 210.2832 470.87109 L 212.20508 468.94727 C 213.31952 467.83283 214.39436 466.79327 215.43359 465.82227 C 216.5043 464.88655 217.64702 463.98184 218.85938 463.10547 C 220.15033 462.22364 221.54799 461.33551 223.05664 460.44336 C 223.72322 460.06683 224.62329 459.61905 225.38086 459.21484 C 225.78332 460.48238 226.28924 461.66744 226.92188 462.75195 L 226.94336 462.78906 L 226.9668 462.82617 C 228.28158 464.92981 230.20468 466.96931 232.72461 469.10742 L 235.60156 471.54688 L 237.18164 468.12305 C 237.48464 467.46655 238.00276 466.63571 238.75977 465.68945 L 238.78906 465.6543 L 238.81445 465.61914 C 239.59223 464.58211 240.47523 463.56775 241.46484 462.57812 C 242.45446 461.58851 243.46688 460.70745 244.50391 459.92969 C 245.54094 459.15192 246.4353 458.60965 247.11719 458.29492 L 248.78125 457.52734 L 248.78125 452.18945 L 246.51562 451.70312 C 245.94261 451.58035 245.65283 451.40296 245.42578 451.2168 C 245.37048 451.1476 245.05909 450.71624 244.78906 449.74414 C 244.50937 448.73725 244.26839 447.20693 244.13281 445.24609 L 244.13281 445.24023 C 244.12304 445.09347 244.11264 444.94249 244.10352 444.78906 L 251.96289 444.78906 C 251.9464 445.08842 251.92929 445.38705 251.91016 445.68359 C 251.77093 447.84153 251.56303 449.84761 251.28906 451.69922 C 251.01722 453.46513 250.68059 454.9944 250.29688 456.27344 L 250.27734 456.33789 L 250.26172 456.40234 C 249.95089 457.64567 249.57142 458.44623 249.39844 458.69336 L 246.24219 463.20117 L 251.74609 463.20117 C 253.7144 463.20117 255.97909 463.40022 258.52148 463.8125 C 261.10616 464.23163 263.65354 464.7547 266.16602 465.38281 L 266.17578 465.38477 L 266.18359 465.38672 C 268.74772 466.01042 271.08351 466.70104 273.19727 467.44922 C 275.30891 468.26841 276.93979 469.04351 278 469.69141 L 280.06055 470.94922 L 281.65039 469.13281 C 281.878 468.87269 282.4417 468.38589 283.28516 467.83984 C 284.26308 467.25537 285.3109 466.69722 286.43555 466.16797 L 286.4668 466.15234 L 286.49805 466.13867 C 287.67975 465.54783 288.85009 465.06039 290.00977 464.67383 L 290.05078 464.66016 L 290.09375 464.64453 C 291.34111 464.18498 292.45336 463.87081 293.41016 463.69141 L 296.52539 463.10742 L 295.63086 460.06641 C 295.31755 459.00117 295.01961 457.67914 294.75 456.14453 C 294.56254 454.69087 294.45117 452.61291 294.45117 449.9707 L 294.45117 446.30078 C 294.45117 445.68562 294.46942 445.1686 294.49414 444.78125 L 301.46094 444.78125 L 301.46094 455.36914 C 301.46094 457.11162 301.17525 458.28428 300.89844 458.83789 L 300.88281 458.87305 L 300.86523 458.9082 C 300.57515 459.52982 300.41584 459.59008 300.30859 459.63477 L 298.54492 460.36914 L 298.54492 466.76367 L 324.14258 466.76367 L 324.14258 460.28516 L 322.27148 459.5918 C 322.21868 459.5723 322.07712 459.5858 321.77734 458.77539 C 321.47757 457.96488 321.22656 456.46107 321.22656 454.39844 L 321.22656 434.12305 L 330.17969 430.11914 L 330.17969 440.17188 L 330.17969 440.19727 C 330.25139 444.28326 330.28711 448.36909 330.28711 452.45508 C 330.28711 453.07318 330.22141 454.34713 330.08008 456.11328 C 329.93817 457.8871 329.76078 459.84485 329.54688 461.98438 C 329.33765 464.00691 329.058 466.03036 328.70898 468.05469 L 328.70898 468.0625 L 328.70703 468.07031 C 328.36072 470.14817 327.98307 471.84549 327.60156 473.11719 L 327.10938 474.75586 L 331.06445 478.71094 L 333.08789 476.54297 C 334.02437 475.53959 335.11454 474.48413 336.35352 473.38281 C 337.58148 472.29129 338.88105 471.2302 340.25195 470.20117 C 341.68252 469.18064 343.07272 468.26748 344.41797 467.45898 C 345.79104 466.67565 347.10427 466.06741 348.35156 465.63086 L 350.70312 464.80859 L 350.21484 462.36523 C 350.07561 461.66906 349.93697 460.934 349.79688 460.16406 C 349.67969 459.45447 349.57724 458.47628 349.50977 457.26172 C 349.44007 456.00704 349.36972 454.3748 349.29883 452.39648 L 349.29883 444.78125 L 355.63672 444.78125 C 355.65188 445.20592 355.66016 445.64054 355.66016 446.08398 C 355.66016 448.91534 355.58886 451.7466 355.44727 454.57812 C 355.3139 457.17158 354.90992 459.22873 354.33984 460.71094 L 352.86914 464.5332 L 356.96484 464.60547 C 360.95481 464.67427 364.43448 465.12224 367.39648 465.91211 L 367.4043 465.91406 L 367.41211 465.91602 C 370.47691 466.71553 373.23486 467.86846 375.7207 469.37305 L 377.83008 470.65039 L 384.25977 462.91797 C 384.62514 463.4846 384.84981 464.07093 385.26367 464.63086 C 386.65734 466.51641 388.26482 468.09517 390.08203 469.30664 L 392.7832 471.10742 L 394.23438 468.20312 C 394.55234 467.56721 395.11129 466.67909 395.90625 465.61914 C 396.68403 464.58211 397.56703 463.56774 398.55664 462.57812 C 399.56877 461.56599 400.56989 460.66597 401.55859 459.875 L 401.56836 459.86719 L 401.57617 459.86133 C 402.54991 459.07017 403.38013 458.6042 403.97266 458.39258 L 405.87305 457.71289 L 405.87305 452.22656 L 403.65234 451.71289 C 403.04711 451.57322 402.65974 451.38568 402.35938 451.20312 C 402.31658 451.16163 402.09611 450.92786 401.86719 450.21875 C 401.58746 449.26188 401.3162 447.79748 401.11328 445.91992 C 401.0891 445.56369 401.06701 445.18361 401.04688 444.78125 L 409.75195 444.78125 L 409.75195 455.36914 C 409.75195 457.07376 409.50952 458.27865 409.24805 458.89844 C 408.98658 459.51822 408.89107 459.52363 408.70703 459.5918 L 406.83594 460.28516 L 406.83594 466.76367 L 435.67188 466.76367 L 435.67188 459.61133 L 433.25 459.23242 C 431.4095 458.94484 430.52349 458.41083 430.20117 458.08398 C 429.93531 457.67677 429.51758 456.49757 429.51758 454.39844 L 429.51758 440.41211 L 436.63672 430.39258 L 444.60547 434.55664 L 446.08984 432.84961 C 447.78645 430.89851 449.13221 428.54169 450.16602 425.83789 L 450.17188 425.82617 L 450.17578 425.8125 C 451.20001 423.05497 451.89599 420.05962 452.2793 416.83984 L 452.58008 414.30469 L 450.09766 413.71289 C 447.16788 413.01532 444.50075 412.25324 442.09375 411.42969 C 439.7014 410.53951 437.90648 409.68991 436.82031 409.00391 L 433.82812 407.11523 L 432.60156 410.43359 C 431.6536 412.99867 430.5932 415.35737 429.51758 417.68945 L 429.51758 413.98047 L 427.70312 410.95508 L 427.70312 403.66602 L 429.77344 406.11914 L 431.97656 403.7832 C 436.7193 398.75302 440.34448 394.87816 442.87695 392.12891 L 442.9043 392.09961 C 445.47624 389.38471 447.27416 387.47803 448.28906 386.39062 L 450.40039 384.12891 L 447.98438 382.19727 C 446.95322 381.37234 446.18747 380.69919 445.73828 380.25 C 445.12025 379.63197 444.27654 378.82672 443.18359 377.80664 L 441.38281 376.125 z M 405.75586 417.11719 L 405.75586 417.84375 L 409.75195 419.57227 L 409.75195 440.24609 L 400.91992 440.24609 C 400.91128 439.49923 400.90625 438.71043 400.90625 437.87891 C 400.90625 432.69686 401.05435 428.78629 401.32031 426.24023 C 401.63989 423.83926 402.28819 422.1033 403.09375 420.94531 L 405.75586 417.11719 z M 381.24805 443.81836 L 381.24805 451.72266 C 380.127 451.55333 378.84263 451.25172 377.86719 451.21094 L 377.86328 451.21094 C 377.16052 451.18034 376.4931 451.11804 375.80469 451.07422 L 375.92188 445.20508 C 376.86629 445.02486 377.70341 444.92744 378.78711 444.64648 L 378.83398 444.63477 L 378.88086 444.62109 C 379.64537 444.39457 380.46516 444.07604 381.24805 443.81836 z M 306.05469 461.33984 L 306.0293 461.39258 C 306.03242 461.38225 306.03404 461.37093 306.03906 461.36133 C 306.04274 461.35352 306.04973 461.34693 306.05469 461.33984 z " /></g><path
       style="fill:none;stroke-width:1.10345;stroke:#000000;stroke-opacity:1"
       d="m 264.18194,352.79074 c -1.51723,-0.28398 -8.22068,-1.52554 -14.89654,-2.75904 -23.53554,-4.34867 -41.79184,-12.24624 -45.85381,-19.83609 -1.00771,-1.88293 0.006,-1.60968 6.50376,1.75284 7.19918,3.72556 18.52426,6.83411 14.52248,3.98616 -0.91035,-0.64786 -2.51085,-1.18554 -3.55669,-1.19483 -2.11595,-0.0188 -11.89271,-4.52345 -11.8896,-5.47815 0.005,-1.23817 9.58714,-6.42194 15.99801,-8.65376 9.08502,-3.16276 18.76253,-5.78112 23.56919,-6.37691 2.20935,-0.27385 9.2308,-1.27379 15.6032,-2.22209 13.82824,-2.05783 41.9622,-2.2917 55.17239,-0.45864 5.15862,0.71582 11.36963,1.43945 13.80227,1.60807 21.73511,1.82114 -21.6322,-4.1409 -22.86844,-4.29736 -10.69689,-1.30439 -55.75218,2.19331 -70.62065,5.48238 -9.82911,2.1743 -27.81452,7.86068 -32.37035,10.153 -8.76555,4.41049 -6.41343,-2.77828 -7.25488,-24.16965 -1.36304,-34.65038 -2.70776,-51.83876 -4.32591,-55.29364 -0.79064,-1.68807 -6.19207,-6.87964 -12.00319,-11.53683 -5.81112,-4.65717 -15.5327,-13.48437 -21.60352,-19.616 -8.95522,-9.04491 -11.99549,-13.01003 -16.11329,-21.01489 -2.7915,-5.42655 -4.4736,-9.88692 -5.85734,-15.10785 -1.04161,-3.93006 -1.73386,-7.99819 -1.80228,-12.06336 -0.077,-4.57506 0.7365,-9.13793 1.57037,-13.63703 0.98491,-5.31405 2.21357,-10.42874 4.04075,-15.70208 6.74461,-19.46533 17.46235,-32.36318 33.47023,-40.278459 9.2173,-4.557602 17.99389,-6.262522 32.4165,-6.297162 8.60302,-0.0207 9.39121,-0.23044 14.40805,-3.834679 16.4563,-11.822668 20.8872,-10.472809 32.21517,-12.669531 2.70826,-0.525185 5.53709,-0.400518 8.27585,-0.06941 10.53603,1.273798 18.98353,0.8415 30.85623,7.846563 3.43059,2.024095 4.03062,2.074812 6.91293,0.584317 8.51724,-4.40443 27.6063,-6.953022 38.15567,-5.094185 3.75856,0.662262 7.82684,1.375985 9.04064,1.586047 8.39348,1.4526 19.90868,7.80528 28.13792,15.52309 2.12413,1.99213 6.34482,4.44554 9.3793,5.452 24.82139,8.232739 42.21821,30.757729 44.34161,57.412459 0.78535,9.85829 -2.68739,23.68004 -8.31728,33.10344 -2.33374,3.90626 -11.47153,14.31156 -22.28773,25.37929 -30.30599,31.01076 -29.03576,27.83272 -29.32869,73.37927 -0.12686,19.72413 -0.17378,36.25559 -0.31927,36.68964 -2.13066,6.48301 -8.05194,10.23205 -13.77427,13.47264 -16.68685,9.26854 -39.33636,13.9657 -69.62457,14.43903 -11.53103,0.18021 -22.20689,0.0953 -23.72412,-0.18866 z m 96.94875,-64.59289 c 0.24858,-15.5047 0.15542,-16.2848 -2.20787,-18.48653 -1.35708,-1.26431 -1.63663,-1.79261 -2.06467,-1.79261 -0.42802,0 -1.1184,4.5931 -1.53418,10.20689 -0.41576,5.61379 -1.25635,12.15778 -1.868,14.54222 -0.61163,2.38443 -0.78363,6.52544 -0.38222,9.20223 0.68931,4.59668 -3.34096,4.63169 2.29328,7.21112 6.41082,-3.69355 5.65744,-11.80876 5.76366,-20.88332 z m -148.74136,19.52852 c 0.35498,-5.83558 2.29448,-20.90824 3.87124,-30.08494 1.67991,-9.77701 1.74574,-12.09644 0.49172,-17.32375 -0.79633,-3.31947 -2.11276,-6.29054 -2.92542,-6.60239 -0.81265,-0.31183 -2.76432,0.53986 -4.33704,1.89266 -3.18455,2.73923 -0.79816,0.4123 -0.25454,23.0195 0.16094,6.69236 0.27358,16.38565 0.24685,21.48025 l -0.0458,8.72182 c 0,0 2.91477,-0.47538 2.95295,-1.10315 z m 7.40637,-1.7719 c 2.86533,-0.99886 3.49541,-1.89735 4.06245,-5.7931 0.36911,-2.53598 1.14146,-7.59018 1.71633,-11.23156 0.86389,-5.47218 3.29714,-34.24895 3.29714,-38.99351 0,-2.15882 -5.81092,-1.08435 -6.52457,1.16415 -0.32757,1.03208 -0.12218,4.81603 0.45641,8.40879 0.77814,4.83178 0.63752,8.80889 -0.54017,15.27747 -0.87569,4.80983 -2.03706,11.22792 -2.58081,14.2624 -0.54374,3.03448 -1.51144,7.75172 -2.15045,10.48275 -1.97294,8.43216 -3.65517,8.48594 2.26367,6.42261 z m 128.09679,-18.65926 c 0.72722,-3.95535 0.90008,-10.45382 0.43451,-16.33606 -0.64243,-8.11704 0.11438,-8.6301 -2.1582,-11.33092 -3.49264,-4.15075 -5.2844,-3.90065 -6.40929,0.12178 -0.46673,1.66896 -0.84861,11.65661 -0.84861,22.19478 v 19.16028 l 3.61582,1.5067 3.61584,0.157 0.27115,-4.4527 c 0.14913,-2.44897 0.81459,-7.40837 1.47878,-11.02086 z m -109.3657,13.08589 c 2.47636,-0.91157 2.48276,-0.97935 2.48276,-26.32053 v -25.4066 h -3.73513 -1.11059 l -1.24076,8.55172 c -0.68242,4.70345 -1.51014,12.02757 -1.83937,16.27585 -0.32924,4.24827 -1.05956,10.95172 -1.62293,14.89655 -0.5634,3.94482 -1.03418,8.75498 -1.0462,10.68924 -0.0214,3.44553 -2.56254,3.50376 1.49153,2.87226 2.27587,-0.35452 5.25517,-1.05584 6.62069,-1.55849 z m 93.51428,-25.19879 0.35398,-23.17241 -4.26088,-1.03938 c -4.22156,-1.02978 -3.26261,3.88236 -3.26261,10.18227 0,3.04484 -0.77032,9.64708 -1.71184,14.67162 -0.94151,5.02454 -1.5622,12.01496 -1.37931,15.53425 l 0.33254,6.39873 4.96551,1.24074 c 2.73103,0.68243 3.44694,0.42457 3.85916,0.0456 0.4122,-0.37896 0.90876,-11.11662 1.10345,-23.86143 z m -77.08786,22.0355 c 2.92802,-0.0151 0.40146,-1.40012 1.97991,-28.56315 1.30436,-22.44653 4.11493,-23.31103 -3.99655,-23.31103 -7.99268,0 -5.51682,0.25117 -5.75667,28.14589 l -0.21161,24.61049 4.16342,-0.68809 c 2.28988,-0.37845 2.5249,-0.18743 3.8215,-0.19411 z m 59.58561,-5.97395 c 0.32285,-3.18621 0.86766,-13.48965 1.21066,-22.89654 0.529,-14.50779 0.35874,-17.48023 -1.1219,-19.5862 -2.1229,-3.01948 -4.12582,-3.13978 -6.58442,-0.38301 -2.34754,2.63225 -3.46598,17.89937 -4.37557,34.12566 l -0.75317,13.43601 2.21938,0.45635 c 2.0286,0.41712 5.56412,0.53581 7.7963,0.63294 l 1.02172,0.008 z m -37.77438,3.52482 c 0.48776,-0.4868 0.88683,-11.64449 0.88683,-24.79487 v -23.90975 l -4.19084,-0.49268 c -4.48012,-0.52669 -5.2484,0.14658 -6.02666,1.10344 -0.67273,0.82713 -1.50101,11.57626 -1.96954,25.5598 l -0.80858,24.13238 5.94842,-0.44097 c 4.28741,-0.31784 5.67263,-0.67056 6.16037,-1.15735 z m 20.34409,-14.49774 c 0.38426,-7.88965 0.95799,-18.06896 1.27497,-22.62068 0.45512,-6.53569 0.21424,-8.6819 -1.14554,-10.20689 -2.10327,-2.35879 -1.06404,-2.81141 -5.26119,-0.64097 -2.67913,1.38542 -3.24857,2.49311 -3.82895,7.44826 -1.27112,10.85252 -2.69099,36.70657 -2.12518,38.69674 0.48152,1.69369 -0.73707,2.10131 5.55934,1.82388 l 4.82789,-0.15552 z m 85.56483,-63.90899 c 2.41027,-2.74342 17.00961,-18.42718 19.68578,-22.17969 6.01459,-8.43364 11.91733,-14.75763 13.192,-19.55151 0.65932,-2.47965 1.67758,-13.12459 1.81969,-14.297 0.40357,-3.32939 -0.18009,-13.68629 -3.28391,-19.5021 -5.33289,-9.9926 -14.29851,-23.18856 -24.69622,-23.33929 -0.87755,-0.0127 3.89462,1.12749 3.89462,16.01958 v 8.90502 l -2.79728,-0.53474 c -1.75822,-0.33609 -3.33561,0.60041 -4.9882,1.44803 -7.83343,4.01782 -0.95004,-2.93298 -3.69204,-13.37017 -4.71669,-17.95361 -12.96601,-25.45781 -20.83809,-30.565959 -9.44716,-6.13022 -20.96258,-8.556072 -32.05531,-8.168642 -5.82671,0.2035 -23.63548,2.157862 -20.52782,4.171032 3.04119,1.9701 5.17905,2.08514 3.71344,2.08514 -0.23485,0 -1.01699,9.010709 -4.26641,7.052479 -24.10814,-14.528601 -39.96701,-16.946041 -57.72446,-12.323861 -11.96761,3.115122 -20.18291,8.032451 -30.39366,18.192351 -5.21181,5.18588 -8.40719,11.92503 -10.15179,10.47255 l -6.2298,-5.18664 0.64697,-3.80439 c 0.35582,-2.09241 1.38113,-4.82345 2.27846,-6.06896 0.89733,-1.24552 1.69416,-2.34881 1.69416,-2.34881 l -7.21797,0.68822 c -12.74806,0.7366 -13.49975,2.81635 -20.81089,7.46405 -6.11399,3.88666 -10.76476,7.9294 -16.994,17.32605 -2.40162,3.62278 -5.79449,16.03255 -6.77975,18.11315 -2.3661,4.99653 -1.95205,12.66719 -0.8075,20.84242 0.3505,2.5035 1.3483,9.67388 3.37566,14.45256 4.18896,9.87389 13.0226,20.70925 15.48561,22.9557 1.4148,1.29042 3.99077,2.84119 1.21228,-1.03799 -0.94475,-1.34882 -0.52477,-2.36216 -0.52477,-3.27249 0,-1.17007 -0.71654,-1.81008 0.43255,-0.16952 0.89402,1.2764 3.50091,3.0826 5.79309,4.01378 5.1191,2.07958 18.35041,16.37713 27.26937,29.46685 3.51494,5.15862 6.90994,9.5712 7.54447,9.80573 1.88178,0.69555 0.38922,-2.02901 -7.42628,-13.55629 -5.74548,-8.47414 -7.51441,-12.03231 -7.89036,-15.87114 -0.2665,-2.72151 -0.75054,-5.37859 -1.07564,-5.90462 -0.32511,-0.52603 -0.3202,-0.95642 0.011,-0.95642 0.33113,0 1.35963,1.81314 2.28556,4.0292 0.92593,2.21607 3.53949,6.1481 5.80791,8.73787 2.26842,2.58974 6.05023,7.76838 8.40403,11.50806 2.35379,3.73968 4.96452,7.06224 5.80162,7.38346 0.83708,0.32121 2.81793,-0.2651 4.40186,-1.30293 3.14987,-2.06387 3.11709,-0.8046 0.50305,-19.32118 -0.5569,-3.94483 -2.10446,-9.90345 -3.43904,-13.24137 -1.33457,-3.33794 -3.3511,-9.04828 -4.48117,-12.68965 -1.13005,-3.64138 -3.76965,-11.67404 -5.86576,-17.85035 -2.87233,-8.46348 -3.59099,-11.99701 -2.9175,-14.34481 0.80937,-2.82151 6.03118,-3.58197 6.76352,-1.58313 0.44471,1.2138 1.94665,4.68966 3.33766,7.72414 3.59097,7.83367 4.689,11.10734 6.662,19.86205 2.86946,12.73257 4.58063,17.31632 12.50269,33.49107 1.59064,3.24769 4.54469,7.36315 6.56456,9.14548 3.49632,3.08517 -0.92987,3.9087 8.18002,3.77459 5.26289,-0.0775 10.70347,-0.40286 12.09018,-0.72306 5.40782,-1.2487 7.08315,-11.15767 4.6828,-27.69723 -2.71462,-18.7051 -3.58063,-26.50374 -3.44352,-31.00987 0.10008,-3.28913 -0.75698,-6.59716 -2.64445,-10.20689 -2.98323,-5.70533 -2.91698,-6.11465 0.64134,-3.96129 2.02644,1.22632 2.63676,0.95554 5.50227,-2.44108 3.76856,-4.46703 8.15897,-4.45771 5.78875,3.34426 -2.06393,6.79374 -2.31661,16.9874 -0.61735,24.90509 0.63318,2.95027 2.23969,11.57102 3.57004,19.15722 3.57608,20.39258 0.90927,25.36319 5.44068,28.40495 2.08267,1.39802 4.31715,2.36973 4.96551,2.15937 2.74099,-0.88931 4.31509,-7.41385 5.17394,-21.44547 0.49508,-8.08857 -0.082,-17.92158 0.57339,-18.96427 1.20743,-1.92095 8.72567,-22.22074 6.54893,3.74903 l -3.06483,36.56503 1.33013,0.61735 c 3.29824,0.31454 5.41928,-0.11372 7.09616,-1.43276 3.551,-2.79321 14.85787,-19.84354 21.49381,-32.41184 6.45157,-12.21909 16.29163,-26.0271 20.52405,-28.80029 1.50953,-0.98909 2.77064,-2.85847 2.80248,-4.15419 0.0578,-2.35471 0.0587,-2.35465 1.78975,0.12691 1.05519,1.51266 2.86497,2.47871 4.63178,2.4724 4.0639,-0.0145 13.2794,-5.55891 18.08993,-10.8836 l 4.05106,-4.48404 -0.65788,3.55107 c -1.71622,9.26361 -19.48097,15.0402 -27.4108,24.33554 -3.72743,4.36929 -6.60891,9.43427 -9.26602,14.52585 -1.04184,1.99639 -2.59434,6.23767 -2.59434,6.23767 -2.26201,3.33793 -4.35308,8.32262 -5.67783,9.83985 -3.35675,3.84434 -13.75511,21.11857 -13.75511,22.85041 0,0.88899 -0.93196,0.24446 1.43781,0.24446 3.05796,0 4.4556,-0.80781 7.15923,-4.13792 12.71599,-15.14564 0.12503,-4.02199 8.26814,2.49411 2.98678,2.27812 4.77552,2.81031 8.53361,2.53891 4.52884,-0.32706 5.00451,-0.71036 10.01158,-8.06751 2.89126,-4.24827 6.57968,-10.08523 8.19648,-12.97103 1.61681,-2.88581 1.77333,-3.68204 3.37246,-4.81409 4.38569,-3.1047 11.95761,-8.35329 15.52612,-4.33594 0.60521,0.68134 -0.14366,1.46232 -1.04075,2.52811 -3.88386,4.61426 -13.1042,18.10984 -16.39086,25.32947 -2.84434,6.24801 -3.02101,6.00891 -1.01645,3.55918 0.4307,-0.52635 13.82158,-19.87716 16.89977,-23.38083 z"
       id="path1-43"
       sodipodi:nodetypes="ssscsscsssssssssssssaaasssssaassssssssssssssssssssssssssssssssssssssssssssssscccsssscccssssssccsssscssscssscscscssscsscscscssscscssssssscssssassscssssssssssscsscssssssssssssssssssssssssssssssssssssssssssssssscsssssssscaacscssssssaassssss" /></g></svg>
