<?xml version="1.0" encoding="UTF-8" standalone="no"?>
<svg
   version="1.2"
   viewBox="0 0 570 570"
   width="570"
   height="570"
   id="svg1"
   sodipodi:docname="MnichRoleTokenLaser.svg"
   inkscape:version="1.4.2 (2aeb623e1d, 2025-05-12)"
   xml:space="preserve"
   xmlns:inkscape="http://www.inkscape.org/namespaces/inkscape"
   xmlns:sodipodi="http://sodipodi.sourceforge.net/DTD/sodipodi-0.dtd"
   xmlns="http://www.w3.org/2000/svg"
   xmlns:svg="http://www.w3.org/2000/svg"><sodipodi:namedview
     id="namedview1"
     pagecolor="#ffffff"
     bordercolor="#666666"
     borderopacity="1.0"
     inkscape:showpageshadow="2"
     inkscape:pageopacity="0.0"
     inkscape:pagecheckerboard="0"
     inkscape:deskcolor="#d1d1d1"
     inkscape:zoom="0.99770433"
     inkscape:cx="109.2508"
     inkscape:cy="208.97975"
     inkscape:window-width="1920"
     inkscape:window-height="940"
     inkscape:window-x="0"
     inkscape:window-y="0"
     inkscape:window-maximized="1"
     inkscape:current-layer="layer2"
     showgrid="false" /><defs
     id="defs1"><clipPath
       clipPathUnits="userSpaceOnUse"
       id="cp1"><path
         d="m 275.5,535.5 c -143.78,0 -260,-116.22 -260,-260 0,-143.78 116.22,-260 260,-260 143.78,0 260,116.22 260,260 0,143.78 -116.22,260 -260,260 z"
         id="path1" /></clipPath></defs><style
     id="style1">
		tspan { white-space:pre } 
		.s0 { fill: none;stroke: #ff0000;stroke-miterlimit:100 } 
	</style><g
     inkscape:groupmode="layer"
     id="layer1"
     inkscape:label="Template"><path
       id="Path 0 copy"
       class="s0"
       d="m 253.96776,1.9812412 c -4.83809,0.7256238 -12.51049,1.8658898 -17.06826,2.5396834 -4.54737,0.6737937 -14.55576,2.8299332 -22.23856,4.8098491 -7.68279,1.9695513 -20.01678,5.7427953 -27.40888,8.3757733 -7.40247,2.632979 -20.89926,8.551995 -30.00441,13.164891 -9.10514,4.602528 -22.37354,12.263042 -29.48531,17.021062 -7.11177,4.747653 -17.57697,12.48073 -23.26639,17.176553 -5.689435,4.695823 -15.573238,13.828318 -21.968643,20.296736 -6.385022,6.468418 -15.147556,16.191781 -19.456148,21.592491 -4.318975,5.41108 -11.576098,15.42469 -16.133862,22.24555 -4.547382,6.83124 -12.178261,20.3382 -16.95405,30.00974 -5.533687,11.2368 -10.714379,23.75899 -14.316985,34.66408 -3.114645,9.39165 -6.8418376,22.43215 -8.2953386,28.97313 -1.453501,6.54097 -3.5922235,19.22903 -4.7446423,28.19566 -1.3912082,10.80144 -2.09719388,22.31812 -2.10757603,34.1458 0,12.12828 0.67483933,22.9919 2.10757603,33.88662 1.162801,8.82153 3.3222877,21.39554 4.7861709,27.93654 1.4638831,6.55133 4.44356,17.48752 6.623812,24.31875 2.180251,6.83123 6.104705,17.53937 8.721006,23.80046 2.616301,6.2611 7.57897,16.73082 11.015462,23.28217 3.446873,6.54098 9.676163,17.02106 13.86017,23.28215 4.173624,6.2611 11.119282,15.79787 15.427874,21.20896 4.308592,5.40071 13.071127,15.12406 19.466531,21.60285 6.385023,6.47879 16.279208,15.58018 21.968643,20.23455 5.68942,4.64399 13.36182,10.563 17.06825,13.15452 3.69605,2.59151 11.60724,7.66051 17.57698,11.25753 5.98013,3.6074 16.92291,9.43312 24.315,12.96793 7.39209,3.52447 18.80207,8.31359 25.34283,10.63558 6.54075,2.322 18.17914,5.82573 25.86193,7.7849 7.6828,1.94883 22.34238,4.7684 32.58957,6.24037 14.74265,2.1354 22.60194,2.69517 37.7495,2.69517 15.15794,0 23.01723,-0.55977 37.75988,-2.69517 10.24718,-1.47197 24.90677,-4.29154 32.58957,-6.24037 7.68278,-1.95917 19.31079,-5.4629 25.86193,-7.7849 6.54076,-2.32199 17.94035,-7.11111 25.34283,-10.63558 7.39208,-3.53481 18.33487,-9.36053 24.30461,-12.96793 5.98012,-3.59702 13.89132,-8.66602 17.58736,-11.25753 3.69605,-2.59152 11.37883,-8.51053 17.06826,-13.1649 5.68942,-4.65435 15.57322,-13.76612 21.95824,-20.23454 6.39541,-6.46842 15.14756,-16.19177 19.46654,-21.59248 4.30859,-5.41109 11.42035,-15.18628 15.79125,-21.72725 4.37088,-6.55136 11.24387,-18.42049 15.27214,-26.39199 4.02828,-7.96113 9.22972,-19.37415 11.5657,-25.345 2.336,-5.98121 5.92822,-16.45093 7.99426,-23.28216 2.06605,-6.83123 4.88999,-18.23389 6.27083,-25.35538 1.39121,-7.1111 3.22885,-18.75218 4.08018,-25.86329 0.86172,-7.11113 1.5677,-20.84614 1.5677,-30.52804 0,-9.81665 -0.70598,-23.07484 -1.59885,-30.00973 -0.8721,-6.82087 -2.30483,-16.368 -3.16655,-21.20894 -0.86172,-4.83059 -2.907,-13.91125 -4.54739,-20.17235 -1.64037,-6.2611 -4.91075,-16.96923 -7.27788,-23.80045 -2.35675,-6.83125 -8.17076,-20.33822 -12.9154,-30.00974 -4.74463,-9.67154 -12.35476,-23.1785 -16.90213,-30.00974 -4.55776,-6.82086 -11.81489,-16.83447 -16.13386,-22.24555 C 502.62025,101.55757 493.85772,91.844574 487.47269,85.386521 481.08767,78.918102 471.20387,69.816706 465.51445,65.151982 459.82502,60.487257 452.14224,54.557873 448.44619,51.96636 444.75015,49.374846 436.83895,44.31621 430.85883,40.708823 424.88909,37.101437 413.9463,31.275712 406.55422,27.751254 399.15174,24.226796 387.75215,19.448044 381.21139,17.136415 374.66025,14.814417 363.95626,11.528378 357.4155,9.8179792 350.87475,8.1075792 341.33354,5.9929045 336.20478,5.1325219 331.08637,4.2617733 321.77358,2.8416237 315.52353,1.970875 308.01724,0.92390344 297.0952,0.4366989 283.45307,0.52999334 272.07423,0.60255536 258.80584,1.2556173 253.96776,1.9812412 Z"
       style="stroke-width:1.03741;stroke:#000000;stroke-opacity:1"
       inkscape:label="vnejsi kruh" /><path
       id="Path 0"
       class="s0"
       d="m 265.85013,27.483209 c -2.18288,0.208543 -7.78893,0.873904 -12.44244,1.459816 -4.66343,0.595844 -10.93427,1.539263 -13.95061,2.105316 -3.00642,0.556121 -11.52961,2.512475 -18.92164,4.359591 -7.39203,1.837184 -19.05063,5.451972 -25.89695,8.02403 -6.84631,2.57206 -17.3837,7.150127 -23.40647,10.159138 -6.0327,3.018944 -15.43895,8.192855 -20.916,11.499788 -5.47708,3.306933 -13.55374,8.70925 -17.92944,12.016186 -4.3856,3.306932 -11.77765,9.245508 -16.44107,13.188011 -4.65352,3.942499 -11.62883,10.476915 -15.49848,14.508775 -3.869674,4.04181 -10.37864,11.38062 -14.466589,16.3162 -4.087947,4.93557 -11.023564,14.35985 -15.419103,20.93398 -4.395538,6.58408 -10.735823,17.34899 -14.089528,23.93306 -3.353706,6.57416 -8.11636,16.89217 -10.596914,22.93007 -2.480545,6.02794 -6.121992,16.57439 -8.096512,23.42659 -1.974519,6.8522 -4.663441,18.29241 -5.983092,25.42266 -1.309727,7.12034 -2.847671,18.34207 -3.423155,24.91621 -0.575495,6.58408 -1.051758,16.67371 -1.051758,22.43353 0,5.75981 0.476263,15.84945 1.051758,22.43353 0.575484,6.57413 2.113428,17.78593 3.423155,24.9162 1.319651,7.13027 3.939113,18.34205 5.824335,24.92612 1.895135,6.57415 5.308376,16.67372 7.590486,22.43353 2.2821,5.7499 7.163825,16.29634 10.84497,23.42659 3.67121,7.12033 10.239712,18.34207 14.575715,24.91621 4.336003,6.58408 12.214231,17.12058 17.512683,23.4266 5.288538,6.30602 13.375129,15.05499 17.969109,19.44437 4.58407,4.38938 12.15471,11.04297 16.8082,14.78686 4.65353,3.73396 13.39498,10.09956 19.42768,14.14137 6.02278,4.03186 17.00667,10.48684 24.3987,14.33997 7.39205,3.84318 19.49714,9.28524 26.88918,12.0857 7.40195,2.80046 19.50706,6.62379 26.89909,8.49077 7.39203,1.86697 19.49713,4.38939 26.88918,5.60094 11.27161,1.83718 17.40353,2.19469 37.85319,2.19469 20.44967,0 26.58159,-0.35751 37.85321,-2.19469 7.39205,-1.21155 19.49713,-3.73397 26.88916,-5.60094 7.39204,-1.86698 19.49714,-5.69031 26.8991,-8.49077 7.39204,-2.80046 19.26892,-8.12334 26.39306,-11.81756 7.12415,-3.70418 18.09812,-10.15915 24.3987,-14.33999 6.3006,-4.18084 15.27028,-10.63581 19.92379,-14.33997 4.65352,-3.70417 13.6331,-11.92681 19.95354,-18.27255 6.32045,-6.34574 14.53603,-15.35292 18.26677,-20.01042 3.73076,-4.66745 10.34887,-13.86331 14.71463,-20.43745 4.36577,-6.58407 11.47009,-19.14645 15.78624,-27.91529 4.30622,-8.76883 9.48563,-20.43745 11.4899,-25.91921 2.01421,-5.48175 5.14963,-15.79979 6.96539,-22.93006 1.81576,-7.13026 4.33601,-19.46424 5.5862,-27.40881 1.90506,-12.0559 2.28212,-18.352 2.28212,-37.88574 0,-19.30534 -0.38698,-25.88942 -2.20273,-37.3892 -1.21051,-7.67646 -3.72083,-20.01044 -5.58621,-27.40883 -1.85545,-7.40833 -5.01072,-17.94482 -7.015,-23.42659 -2.00427,-5.48177 -7.29282,-17.37878 -11.74788,-26.42567 -4.45507,-9.04691 -11.57922,-21.59935 -15.816,-27.90537 -4.23677,-6.306 -10.76558,-15.26354 -14.50626,-19.90119 -3.74068,-4.63763 -10.37863,-12.21479 -14.76424,-16.8425 -4.38562,-4.62771 -11.77765,-11.628879 -16.43117,-15.551517 -4.66342,-3.932571 -12.05548,-9.851287 -16.44108,-13.158219 -4.37569,-3.306936 -12.45237,-8.709253 -17.92943,-12.016186 -5.47706,-3.306933 -14.88331,-8.480844 -20.916,-11.499788 -6.02278,-3.009011 -16.56016,-7.587078 -23.40649,-10.159138 -6.8463,-2.572058 -18.50491,-6.196777 -25.89695,-8.043892 -7.39203,-1.847117 -16.13349,-3.8134 -19.41774,-4.379453 -3.29417,-0.566051 -8.89029,-1.519402 -12.45236,-2.105315 -3.56207,-0.595842 -15.88545,-1.241341 -27.39521,-1.439955 -11.49984,-0.198616 -22.71193,-0.188684 -24.90474,0.01985 z"
       style="stroke-width:0.992647;stroke:#000000;stroke-opacity:1"
       inkscape:label="vnitrni kruh" /><g
       inkscape:groupmode="layer"
       id="layer3"
       inkscape:label="Positions"
       style="display:none"><rect
         style="display:inline;fill:#ff2121;fill-opacity:0.107692;stroke:#000000;stroke-width:1.05245;stroke-opacity:1"
         id="rect1"
         width="300"
         height="300"
         x="135"
         y="80.172386" /><rect
         style="display:inline;fill:#de0000;fill-opacity:0.0923077;stroke:#000000;stroke-width:1.00157;stroke-opacity:1"
         id="rect2"
         width="300"
         height="83.006134"
         x="135"
         y="401.53375" /></g><text
       xml:space="preserve"
       style="font-size:109.103px;font-family:'Didact Gothic';-inkscape-font-specification:'Didact Gothic';text-align:start;letter-spacing:2.02104px;writing-mode:lr-tb;direction:ltr;text-anchor:start;display:none;fill:#de0000;fill-opacity:0.0923077;stroke:#000000;stroke-width:7.03727;stroke-dasharray:none;stroke-opacity:1"
       x="87.22261"
       y="431.29196"
       id="text2"
       inkscape:label="Text"><tspan
         sodipodi:role="line"
         id="tspan2"
         x="87.22261"
         y="431.29196"
         style="font-style:normal;font-variant:normal;font-weight:normal;font-stretch:normal;font-family:'New Rocker';-inkscape-font-specification:'New Rocker';letter-spacing:2.02104px;fill:#000000;fill-opacity:1;stroke:#000000;stroke-width:7.03727;stroke-dasharray:none;stroke-opacity:1">Hrobník</tspan></text><path
       id="path4"
       style="display:none;stroke-width:8.05907"
       d="m 276.32799,515.95806 h 15.42748 v 4.53544 h -15.42748 z"
       inkscape:label="spojovnik pismen" /></g><g
     inkscape:groupmode="layer"
     id="layer2"
     inkscape:label="Content"
     style="display:inline"><path
       id="text7"
       style="font-size:109.103px;font-family:'New Rocker';-inkscape-font-specification:'New Rocker';letter-spacing:2.02104px;baseline-shift:baseline;white-space:pre;display:inline;overflow:visible;opacity:1;vector-effect:none;enable-background:accumulate;stop-color:#000000;stop-opacity:1;fill:none;stroke:#000000;stroke-opacity:1"
       d="M 404.59766 343.7793 C 401.67881 345.16922 398.96972 346.22712 396.48828 346.96484 L 396.47461 346.96875 L 396.46289 346.97266 C 394.13177 347.68494 391.97219 348.01953 389.96289 348.01953 C 388.30313 348.01953 386.9848 347.79918 385.99609 347.45312 L 377.52539 344.48828 L 381.72461 352.42188 C 382.31693 353.54071 382.79861 354.60553 383.17578 355.61133 C 383.53603 356.572 383.80701 357.56069 383.98828 358.58789 L 384.00586 358.68555 L 384.02734 358.78125 C 384.2628 359.78191 384.42085 360.91684 384.48438 362.1875 C 384.55347 363.56918 384.58984 365.15041 384.58984 366.92188 L 384.58984 416.09375 L 376.73047 416.09375 L 376.73047 415.14453 C 376.73047 414.21002 376.7711 413.51286 376.8125 413.18164 L 377.47266 407.89844 L 372.35547 409.36133 C 368.76507 410.38716 365.64194 412.23824 363.2832 414.86914 L 363.2793 414.87305 L 363.27734 414.875 C 361.81778 416.5097 360.83597 418.44326 360.08203 420.48047 C 358.89718 420.30649 357.83094 420.21667 356.45312 419.90234 L 356.45117 419.90234 L 356.45117 419.90039 L 356.44922 419.90039 C 355.1322 419.59039 354.33159 419.27442 353.32031 418.95703 C 353.50181 417.35097 353.72158 415.83153 353.81445 414.02344 C 354.03397 411.07411 354.14648 408.35477 354.14648 405.87109 C 354.14648 403.03629 354.03316 400.23598 353.81055 397.46875 C 353.79865 397.24349 353.7633 397.01822 353.75 396.79297 C 354.11633 396.99756 354.46703 397.2677 354.83789 397.45312 C 357.46703 398.7677 359.92326 399.57031 362.41211 399.57031 C 365.72862 399.57031 368.96278 398.43627 371.8418 396.42969 L 371.85156 396.42383 L 371.85938 396.41797 C 374.79489 394.34584 377.13485 391.6014 378.75977 388.35156 L 380.86719 384.13867 L 376.22852 383.31445 C 373.15886 382.76874 370.12076 381.94999 367.10547 380.85352 C 364.10425 379.76216 361.53479 378.51875 359.39062 377.1543 L 357.75781 376.11523 L 356.00586 376.9375 C 352.85551 378.41624 349.38425 379.755 345.72461 381.00977 L 344.76758 380.11523 L 344.92773 381.32617 C 344.90163 381.33517 344.88157 381.34677 344.85547 381.35547 C 340.86115 382.61579 336.99159 383.55576 333.24805 384.17969 L 329.25586 384.8457 L 330.46875 388.70703 C 331.17661 390.95931 331.727 393.75779 332.07227 397.07227 L 332.07617 397.11133 L 332.08203 397.15234 C 332.497 400.403 332.70703 403.92918 332.70703 407.72656 C 332.70703 410.05575 332.63643 412.30768 332.49609 414.48242 C 332.46082 415.02921 332.42094 415.56693 332.37695 416.09375 L 323.86914 416.09375 L 323.86914 382.3125 L 320.0625 375.96875 L 317.5332 376.59961 C 317.00656 376.73127 316.4613 376.86602 315.89844 377.00195 L 315.93164 372.60547 L 316.29688 371.87695 C 317.38527 369.70017 318.61378 368.00997 319.94531 366.73633 L 319.94727 366.73438 C 321.53504 365.21276 323.51011 363.6066 325.86914 361.94141 L 330.38477 358.75391 L 325.58594 356.01172 C 325.2007 355.79158 324.46984 355.33764 323.5293 354.73438 C 322.63316 354.04701 321.68221 353.33456 320.66797 352.58984 L 320.64453 352.57227 C 319.69095 351.82259 318.77626 351.07444 317.89258 350.32812 C 317.14534 349.63905 316.62074 349.06723 316.40039 348.77344 L 314.58984 346.35938 L 311.92969 347.7793 C 309.32685 349.16747 306.98384 351.10195 304.91992 353.49609 L 304.91602 353.5 L 304.91211 353.50391 C 303.04298 355.68455 301.42816 357.92609 300.07617 360.23242 L 298.58789 362.76953 L 300.82031 364.68359 C 301.41328 365.19185 302.17523 365.79826 303.14844 366.54688 C 304.08363 367.26626 305.05489 368.02318 306.06445 368.81641 C 307.01874 369.56621 307.89621 370.30867 308.69727 371.04297 L 308.81055 371.14648 L 308.92969 371.23828 C 309.76811 371.88322 310.31854 372.40939 310.47656 372.59375 L 311.38867 373.6582 L 311.35547 378.05664 C 310.813 378.17834 310.25809 378.30134 309.69141 378.42578 C 306.78234 378.99249 304.08965 379.45343 301.63086 379.80469 L 298.61133 380.23633 L 298.61133 386.79883 L 302.64648 388.54492 L 302.64648 416.09375 L 293.37109 416.09375 L 293.37109 412.30859 C 293.37109 408.54892 293.40719 405.41398 293.47852 402.91797 C 293.54972 400.42459 293.62077 398.33901 293.69141 396.63086 C 293.82881 394.98848 293.96476 393.67587 294.09375 392.69336 C 294.29018 391.65868 294.51316 390.69513 294.76367 389.81836 L 295.58203 386.95508 L 292.89258 385.67383 C 291.44132 384.98276 290.18599 384.33483 289.11914 383.73633 C 288.03873 383.05992 286.98903 382.38502 285.97656 381.71094 C 285.07261 381.06395 284.16026 380.34704 283.24023 379.56055 C 282.24329 378.63454 281.14518 377.60918 279.93555 376.4707 L 277.38086 374.06641 L 274.96875 376.61328 C 272.43389 379.28897 269.99085 381.59014 267.65039 383.51758 C 266.87931 384.15258 265.84776 384.80191 265.00391 385.44141 L 265.00391 382.3125 L 261.19727 375.96875 L 258.66797 376.59961 C 256.39139 377.16875 253.7757 377.7778 250.83398 378.42383 C 247.92162 378.99131 245.22878 379.45308 242.76758 379.80469 L 239.74609 380.23633 L 239.74609 386.79883 L 243.7832 388.54492 L 243.7832 416.09375 L 228.93945 416.09375 C 228.72346 414.74146 228.61523 413.33669 228.61523 411.87305 C 228.61523 408.73933 229.07137 405.60228 229.99219 402.42969 C 231.02819 399.11847 232.15007 396.42636 233.29297 394.39453 L 234.22656 392.73438 L 233.3457 391.04492 C 231.6015 387.69605 230.3023 384.63628 229.43359 381.89648 C 228.5827 379.21288 228.17969 376.70448 228.17969 374.3418 C 228.17969 372.22351 228.28374 370.18474 228.48438 368.22266 C 228.74484 366.28651 229.1634 364.47178 229.72852 362.76172 C 230.33264 361.14232 231.1671 359.60709 232.27148 358.13281 C 233.40013 356.64969 234.89903 355.22399 236.82617 353.875 L 234.26367 347.51562 C 231.94351 347.87815 229.51477 348.27755 226.98438 348.71094 C 224.47486 349.0694 221.89305 349.42845 219.24023 349.78711 C 216.61921 350.07025 213.9997 350.31987 211.37891 350.5332 C 211.37391 350.5335 211.36868 350.53291 211.36328 350.5332 C 208.73599 350.67495 206.22131 350.74805 203.82227 350.74805 L 202.4043 350.74805 C 202.3589 350.74805 202.20693 350.73656 201.95312 350.66406 L 198.72266 356.74219 C 200.30093 358.06794 201.49538 359.43051 202.36523 360.82227 L 202.39258 360.86523 L 202.42188 360.91016 C 203.17014 362.03256 203.84836 363.6576 204.50977 365.33594 L 190.04102 394.71289 L 172.19336 363.95508 C 172.22726 363.57085 172.24176 363.21312 172.33594 362.75195 C 172.57193 361.94804 172.8529 361.17354 173.19531 360.43164 C 173.55247 359.65779 173.93271 358.97049 174.32617 358.3418 C 174.72301 357.8104 175.10373 357.40891 175.43359 357.15234 L 185.06836 349.66016 L 172.92383 350.87305 C 172.31203 350.93425 171.70186 350.96484 171.0918 350.96484 L 169.01758 350.96484 C 166.07941 350.96484 163.41612 350.82278 161.03125 350.55078 C 158.55033 350.19576 156.24311 349.84147 154.12305 349.48828 C 152.03682 349.1286 150.09019 348.80351 148.28125 348.51367 C 146.37069 348.11964 144.56058 347.91016 142.83398 347.91016 C 141.61775 347.91016 140.44182 348.04792 139.3125 348.38672 L 132.45312 350.44531 L 138.27539 354.61719 C 142.34488 357.53365 145.34292 360.63486 147.38086 363.88281 L 147.40234 363.91602 L 147.42578 363.95117 C 149.45179 367.02088 150.44336 370.37385 150.44336 374.3418 C 150.44336 378.94755 148.88518 384.54147 145.49609 391.04297 L 144.5332 392.89062 L 145.68945 394.62109 C 147.23491 396.93928 148.29413 399.2936 148.91797 401.72656 L 148.92773 401.76758 L 148.93945 401.80859 C 149.64995 404.32765 150.00781 406.94176 150.00781 409.68945 C 150.00781 412.64977 149.61497 415.56803 148.82227 418.47461 L 148.8125 418.50977 L 148.80273 418.54688 C 148.06045 421.51601 147.0155 424.4192 145.6582 427.26953 L 145.65039 427.28711 L 145.64258 427.30469 C 144.35287 430.08775 142.83036 432.69072 141.07227 435.125 L 141.05859 435.14258 L 141.04492 435.16211 C 139.2712 437.68625 137.37876 439.91284 135.36914 441.85547 L 138.84961 447.74805 C 141.84586 446.82613 144.51061 445.77529 146.85156 444.56445 C 149.13398 443.38389 151.18078 442.06224 152.98828 440.58789 C 154.84388 439.13267 156.45589 437.52414 157.80469 435.76367 C 158.30285 435.17343 158.69841 434.46748 159.16211 433.83789 C 159.57394 434.15737 160.09619 434.59021 160.4707 434.87109 L 160.51172 434.90234 L 160.55273 434.93164 C 161.8866 435.87319 163.16742 436.67783 164.41602 437.34375 L 164.45703 437.36523 L 164.5 437.38477 C 165.76867 438.0191 167.04402 438.579 168.32812 439.06055 L 168.36133 439.07227 L 168.39258 439.08398 C 169.73118 439.55643 171.22711 440.01649 172.89258 440.4707 L 183.67969 443.41211 L 176.52148 434.82227 C 175.17132 433.20207 174.04945 431.64083 173.13867 430.14844 C 172.29251 428.69332 171.56189 426.97425 170.97852 424.96484 C 170.40361 422.98462 169.96062 420.5367 169.68555 417.64844 C 169.4101 414.75623 169.26367 411.06868 169.26367 406.63477 L 169.26367 403.23438 L 184.12695 429.3418 L 190.14453 430.4043 L 205.86719 400.33594 L 205.86719 406.63477 C 205.86719 408.88898 205.79719 411.14378 205.65625 413.39844 L 205.65234 413.45312 L 205.65234 413.50781 C 205.58434 415.68436 205.38082 417.69673 205.05078 419.54492 L 205.03906 419.60547 L 205.03125 419.66602 C 204.77929 421.42974 204.34734 422.97475 203.75977 424.32617 L 203.73047 424.38477 L 203.70898 424.44531 C 203.22393 425.6849 202.63257 426.51242 201.94141 427.11719 L 197.53711 430.9707 L 203.00586 433.05273 C 204.21425 433.51308 205.47814 434.19812 206.79492 435.13867 L 206.8418 435.16992 L 206.88867 435.20312 C 208.25525 436.11417 209.51652 437.11629 210.67969 438.21484 C 211.822 439.2937 212.7354 440.36873 213.44141 441.42773 L 213.47852 441.48242 L 213.51758 441.53516 C 214.31687 442.64187 214.78625 443.56577 214.99414 444.18945 L 217.78711 452.56641 L 221.52148 444.56445 C 221.8659 443.82642 222.46145 442.88888 223.33984 441.82227 C 224.24166 440.72721 225.29538 439.61028 226.49023 438.47852 C 227.66333 437.43863 228.93672 436.45299 230.32227 435.5293 L 230.36914 435.49805 L 230.41602 435.46484 C 231.82308 434.4598 233.21379 433.60156 234.58594 432.88281 L 240.00586 430.04297 L 234.82617 426.78516 C 232.95952 425.61183 231.47531 423.84344 230.31641 421.11133 C 230.25261 420.95106 230.18916 420.79059 230.12891 420.62891 L 243.7832 420.62891 L 243.7832 424.31055 C 243.7832 426.01202 243.4979 427.10772 243.2832 427.53711 L 243.26172 427.58008 L 243.24023 427.62305 C 243.08607 427.9534 243.00772 428.04616 242.98633 428.0625 L 242.98438 428.06445 L 242.98242 428.06445 L 242.98242 428.0625 L 242.98242 428.06055 L 242.98438 428.06055 L 242.98633 428.05859 C 242.98701 428.05779 242.98933 428.05361 242.99023 428.05273 C 242.99249 428.05094 242.99494 428.04853 242.99805 428.04688 L 240.83789 428.94727 L 240.83789 436.44727 L 267.95117 436.44727 L 267.95117 428.84375 L 265.72461 428.01758 C 265.69338 427.95707 265.62856 427.81939 265.52344 427.53516 C 265.26097 426.82551 265.00391 425.36795 265.00391 423.32812 L 265.00391 402.15234 L 272.80469 398.66406 L 272.80469 407.86719 L 272.80664 407.89648 C 272.87904 412.02183 272.91406 416.1481 272.91406 420.27344 C 272.91406 420.86026 272.84926 422.14243 272.70703 423.91992 C 272.56379 425.71042 272.38425 427.68876 272.16797 429.85156 C 271.95814 431.87736 271.67778 433.90366 271.32812 435.93164 L 271.32812 435.94141 L 271.32617 435.95117 C 270.97918 438.03317 270.60113 439.72604 270.22656 440.97461 L 269.62109 442.98633 L 274.33789 447.70312 L 276.82422 445.04102 C 277.75507 444.04367 278.84037 442.98868 280.08008 441.88672 C 281.30326 440.79945 282.60012 439.74326 283.9668 438.7168 C 285.40078 437.69374 286.79044 436.77869 288.13477 435.9707 C 289.48963 435.19853 290.77943 434.60357 291.99609 434.17773 L 294.88477 433.16602 L 294.28516 430.16602 C 294.14732 429.47683 294.008 428.74847 293.86914 427.98633 C 293.75494 427.30112 293.65191 426.3204 293.58398 425.09766 C 293.51903 423.92869 293.45297 422.43101 293.38672 420.62891 L 302.64648 420.62891 L 302.64648 424.20117 C 302.64648 429.35398 304.12473 434.12267 307.04688 438.07617 L 308.10156 439.50195 L 310.9375 439.50195 L 311.43164 439.35352 C 313.5656 438.71333 315.62429 438.14715 317.60352 437.65234 C 319.52535 437.17188 321.60316 436.75542 323.83789 436.40625 L 326.81445 435.94141 L 326.81445 432.84766 L 332.95312 432.84766 C 334.9006 432.84766 337.15633 433.04467 339.69922 433.45703 C 342.29401 433.87781 344.85322 434.40276 347.375 435.0332 L 347.38477 435.03711 L 347.39648 435.03906 C 349.96928 435.66488 352.30924 436.35776 354.42188 437.10547 C 356.5233 437.92171 358.1398 438.6921 359.1582 439.31445 L 361.6875 440.85938 L 363.64062 438.62891 C 363.81092 438.43429 364.3417 437.97021 365.15234 437.44336 C 366.11956 436.86564 367.15713 436.31048 368.27344 435.78516 L 368.3125 435.76758 L 368.34961 435.75 C 369.51897 435.16532 370.67409 434.6835 371.81641 434.30273 L 371.86719 434.28711 L 371.91992 434.26758 C 373.15425 433.81282 374.24543 433.50537 375.16992 433.33203 L 378.99609 432.61523 L 377.89844 428.88086 C 377.59172 427.83801 377.29585 426.52694 377.02734 425.00195 C 376.88723 423.91163 376.78707 422.44406 376.74805 420.62891 L 384.58984 420.62891 L 384.58984 424.31055 C 384.58984 426.01202 384.30259 427.10771 384.08789 427.53711 L 384.06641 427.58008 L 384.04688 427.62305 C 383.885 427.96991 383.80842 428.05474 383.79102 428.06445 L 383.78906 428.06445 L 383.78711 428.06445 L 383.78711 428.0625 L 383.78906 428.06055 L 383.79102 428.05859 C 383.79168 428.05779 383.79403 428.05361 383.79492 428.05273 C 383.79716 428.05094 383.79964 428.04853 383.80273 428.04688 L 381.64258 428.94727 L 381.64258 436.44727 L 408.75586 436.44727 L 408.75586 428.84375 L 406.5293 428.01953 L 406.5293 428.01758 C 406.49794 427.95674 406.4329 427.81841 406.32812 427.53516 C 406.06565 426.82551 405.81055 425.36795 405.81055 423.32812 L 405.81055 403.24219 L 413.60938 399.75586 L 413.60938 408.95703 L 413.61133 408.98828 C 413.68373 413.11363 413.71875 417.2399 413.71875 421.36523 C 413.71875 421.95207 413.65395 423.23422 413.51172 425.01172 C 413.36848 426.80222 413.18894 428.78056 412.97266 430.94336 C 412.76284 432.96853 412.48431 434.99608 412.13477 437.02344 L 412.13281 437.0332 L 412.13086 437.04297 C 411.78386 439.12497 411.40582 440.81588 411.03125 442.06445 L 410.42773 444.07812 L 415.14258 448.79297 L 417.62891 446.13086 C 418.55975 445.13352 419.64506 444.08048 420.88477 442.97852 C 422.10794 441.89125 423.40481 440.83505 424.77148 439.80859 C 426.2019 438.78809 427.58848 437.87487 428.92969 437.06836 C 430.28852 436.29317 431.58283 435.69455 432.80273 435.26758 L 435.68945 434.25781 L 435.08984 431.25781 C 434.95077 430.56246 434.81198 429.82821 434.67188 429.05859 C 434.55861 428.37404 434.45614 427.40199 434.38867 426.1875 C 434.31857 424.92587 434.24732 423.2799 434.17578 421.2832 L 434.17578 413.40039 C 434.17578 409.64071 434.21388 406.50383 434.28516 404.00781 C 434.35636 401.51444 434.42546 399.43081 434.49609 397.72266 C 434.63363 396.07865 434.77129 394.76405 434.90039 393.78125 C 435.09673 392.74735 435.31802 391.78635 435.56836 390.91016 L 436.38672 388.04688 L 433.69727 386.76562 C 432.24602 386.07455 430.99069 385.42663 429.92383 384.82812 C 428.83985 384.14949 427.78901 383.47123 426.77344 382.79492 C 425.86436 382.14386 424.94877 381.42301 424.02344 380.63086 C 423.03176 379.70964 421.94175 378.69139 420.74023 377.56055 L 418.1875 375.1582 L 415.77539 377.70312 C 413.24053 380.37881 410.79554 382.67998 408.45508 384.60742 C 407.68465 385.24189 406.65364 385.89034 405.81055 386.5293 L 405.81055 363.97656 C 405.81055 360.36875 406.05716 357.23468 406.51758 354.58789 C 407.01635 352.124 407.83185 350.38576 408.8125 349.20898 L 404.59766 343.7793 z M 323.86914 420.62891 L 331.85547 420.62891 C 331.58773 422.33906 331.26119 423.8162 330.89258 425.04492 L 330.86914 425.12305 L 330.84961 425.20312 C 330.54618 426.41686 330.17317 427.1636 330.07031 427.31055 L 326.81445 431.96289 L 326.81445 428.84375 L 324.58984 428.01953 L 324.58984 428.01758 C 324.55862 427.95707 324.49185 427.81939 324.38672 427.53516 C 324.12425 426.82551 323.86914 425.36795 323.86914 423.32812 L 323.86914 420.62891 z " /><g
       id="path1-9"
       style="display:inline;opacity:1;fill:none;stroke:#000000;stroke-width:9.31653;stroke-dasharray:none;stroke-opacity:1"
       transform="translate(-7.0161067,11.02531)"><path
         id="path9"
         style="baseline-shift:baseline;display:inline;overflow:visible;fill:none;stroke:#000000;stroke-width:1;stroke-dasharray:none;stroke-opacity:1;enable-background:accumulate;stop-color:#000000;stop-opacity:1"
         d="m 347.08594,52.21875 c -0.70093,0.122678 -1.26898,0.371684 -1.80274,0.589844 -2.13503,0.872638 -3.95764,2.2538 -6.01758,4.140625 -1.15466,1.057624 -2.10172,2.004533 -2.85546,2.892578 -0.37688,0.444022 -0.68751,0.764297 -1.13086,1.617187 -0.1552,0.298558 -0.37965,0.797702 -0.48828,1.603516 -0.69965,0.795723 -1.35709,1.640135 -1.74415,3.152344 -0.15782,0.616624 -0.16802,1.416314 -0.0508,2.251953 -0.83458,0.506647 -1.6039,1.063083 -2.46875,1.736328 -1.43374,1.116102 -2.95176,2.445903 -4.34375,3.837891 -1.73522,1.735219 -2.3957,2.195933 -2.49414,2.318359 -1.0859,-0.394268 -1.83785,-0.506727 -2.83593,-0.644531 -1.08541,-0.149861 -2.34351,-0.27369 -3.75,-0.376953 -2.81299,-0.206527 -6.20828,-0.330358 -9.62305,-0.330079 -10.65112,8.78e-4 -14.28618,0.534044 -21.08789,3.001954 -4.63283,1.68097 -10.51471,4.591732 -14.26367,7.130859 -1.40348,0.950555 -2.69728,1.776856 -3.73633,2.416016 -0.30418,-0.187673 -0.49067,-0.29362 -0.85156,-0.521485 -1.80872,-1.142006 -4.26503,-2.748538 -6.88282,-4.513672 -6.74357,-4.547101 -10.68217,-7.640439 -16.15625,-7.394531 -2.73704,0.122954 -5.2278,1.489458 -7.10937,3.167969 -1.88158,1.678511 -3.49046,3.714328 -5.44531,6.253906 -2.53967,3.299324 -4.11267,5.401266 -5.20508,7.642578 -1.09241,2.241312 -1.38141,4.78795 -1.21289,6.806641 0.16674,1.997413 0.98609,4.858823 2.82422,6.845703 1.83812,1.98688 4.13351,3.53787 8.17773,6.33984 4.14468,2.87158 7.18668,4.9402 9.12109,6.20118 -0.14105,0.55884 -0.16065,0.74293 -0.70898,2.48242 -0.8481,2.69048 -1.42505,4.15978 -1.50391,6.31054 -0.0394,1.07539 0.20815,2.52857 0.89063,3.67188 0.44992,0.75373 0.89953,1.04021 1.35156,1.42578 0.0812,0.68775 0.0793,2.63497 -0.12109,5.82813 -0.12839,2.04575 -0.35664,3.99317 -0.58789,5.32617 -0.0816,0.47009 -0.14554,0.7121 -0.20899,0.97265 -1.12004,1.42885 -1.33769,3.1432 -1.33398,4.35352 0.005,1.61031 0.33058,3.06319 0.81445,4.71094 0.96775,3.2955 2.69042,7.28189 5.13477,12.07226 l 3.23632,6.34375 -3.00195,4.25977 c -2.49747,3.54466 -7.25221,10.10641 -10.48437,14.46679 -3.27158,4.41355 -8.51765,11.54024 -11.67969,15.86719 -3.14826,4.30812 -8.09246,11.05836 -10.98047,14.99024 -6.39377,8.70484 -9.45626,12.71978 -11.11914,15.77734 -0.77283,1.42102 -1.48381,3.20435 -1.01563,5.39648 -1.74269,0.58535 -0.51419,-1.68554 -2.00525,-0.35336 -0.3143,0.28082 -1.04202,-0.75919 -1.9662,-0.58807 -1.05277,-0.75203 -3.59112,-1.75999 -4.49044,-1.92002 -1.39868,-0.2489 -2.68747,-0.21037 -3.98828,-0.0449 -2.60162,0.33089 -13.31115,2.27728 -15.73297,4.95334 0.30434,-0.33628 -1.43758,0.46875 -1.13086,0.46875 -4.81875,0 -11.33724,2.31891 -12.27984,7.15481 -0.10534,0.069 -0.16614,0.12455 -0.36914,0.20117 -1.38967,0.52454 -1.35519,2.20416 -2.4107,3.08672 -1.0555,0.88255 -2.10636,1.7434 -2.74414,3.86132 -0.0864,0.28681 -1.01605,2.57865 -1.6875,3.89063 -2.3253,4.54476 -0.37046,10.74454 2.60406,14.67723 -0.0231,-0.0306 0.5254,1.82204 0.5254,1.31835 0,3.01285 4.42454,8.10937 6.90633,10.16906 -0.74245,-0.61618 1.11004,1.60374 1.60938,2.79883 1.2851,3.0757 3.70602,5.80789 7.14844,6.67188 -0.53041,-0.13313 2.37219,1.35266 3.40039,2.38086 1.99367,1.99368 4.53505,3.66874 7.60937,3.73437 3.07432,0.0656 5.65413,-1.45646 7.79492,-3.33008 0.11477,-0.10044 0.38371,-0.28353 0.51758,-0.35351 0.13387,-0.07 0.41529,0.125 -0.94141,0.125 1.8071,0 2.78281,-0.65199 3.56446,-1.32227 1.46624,0.66588 2.94298,1.06876 4.44336,1.21875 2.37864,0.2378 4.73841,0.40905 7.48242,-1.49218 1.18564,-0.82151 1.1153,-0.98521 1.47656,-1.40235 0.36127,-0.41714 0.75515,-0.90178 1.20508,-1.4707 0.89985,-1.13783 2.01149,-2.60596 3.24023,-4.26953 2.4575,-3.32714 5.36127,-7.41076 7.72852,-10.92578 0.39773,-0.59058 1.60771,-2.43845 3.88761,-5.68693 0.20766,0.0745 0.4439,0.19092 0.66016,0.26758 2.11008,0.74794 8.96851,5.13003 12.31037,12.07238 1.29728,2.69496 3.59494,4.50282 4.05788,5.43095 1.38133,2.76945 2.83252,3.58765 4.95312,4.66406 0.53622,0.27219 2.4541,1.58752 3.05664,2.13282 2.47756,2.24216 5.18638,2.95923 8.35156,2.63867 0.33957,-0.0344 2.49027,0.5566 2.00391,0.27148 1.80176,1.05626 3.86397,1.82481 6.10937,1.77539 1.93089,-0.0425 3.69854,-0.79374 5.23047,-1.75976 1.17584,0.7376 2.64664,1.48079 4.42578,1.57031 1.92731,0.097 3.4304,-0.47032 4.87891,-1.07031 0.6604,-0.27355 1.19557,-0.66559 1.77734,-1.00586 1.53068,1.18076 3.25584,2.19165 5.45508,2.24804 2.53557,0.065 4.53281,-1.05763 6.32227,-2.36328 1.45015,1.22467 3.17192,2.261 5.23437,2.37891 2.53488,0.14492 4.69234,-0.86631 6.58008,-2.14258 0.13127,0.0681 0.12906,0.0509 0.30078,0.15234 1.40879,0.83218 2.94337,1.81012 5.24219,1.81641 2.29882,0.006 3.72651,-0.86277 5.29492,-1.67383 0.51308,-0.26532 0.7087,-0.33573 0.92578,-0.42578 0.16992,0.0851 0.25684,0.11758 0.65625,0.35352 1.4111,0.83355 2.72206,1.74166 4.99219,1.82812 2.27013,0.0865 3.92541,-0.94996 5.13086,-1.73047 0.0933,-0.0604 1.51987,-0.52056 3.00781,-0.34179 1.5175,0.18232 2.98279,0.1685 4.4043,-0.0508 0.90574,-0.13973 1.81946,-0.40944 2.76367,-0.84766 0.70308,0.33175 1.36843,0.51846 2.00977,0.67578 1.19234,0.29247 2.37071,0.42182 3.55468,0.45313 1.18398,0.0313 2.34128,-0.0271 3.5625,-0.28907 0.82358,-0.17666 1.84098,-0.31196 2.89258,-1.11718 0.49208,-0.0289 1.09532,-0.0565 2.05274,-0.0195 2.37761,0.0919 5.81261,0.44026 9.59375,1.03321 1.50279,0.23566 2.94824,0.29473 4.37109,0.13281 1.08059,-0.12297 2.2042,-0.44199 3.38672,-1.10547 2.35713,1.12496 4.99582,1.69248 7.57031,1.16797 2.79489,-0.56941 5.20923,-2.25274 7.04102,-4.42969 0.44444,-0.52818 1.03913,-1.07191 1.43359,-1.36133 0.39446,-0.28941 1.09561,0.0215 -0.91015,0.0215 1.55119,0 2.40299,-0.36915 3.1875,-0.78711 1.21037,2.03624 2.95558,3.68343 5.05468,4.54492 3.62863,1.48923 8.07995,0.91567 11.4961,-1.77148 2.50114,-1.9674 4.32929,-4.88956 4.40039,-8.1211 0.0711,-3.23154 -1.56804,-6.18472 -3.90821,-8.35351 -0.25935,-0.24037 -0.65218,-0.74058 -0.86914,-1.12696 -0.21695,-0.38637 -0.13867,-0.80839 -0.13867,0.0918 0,-3.55427 -1.30416,-5.37056 -3.36328,-7.42969 -2.21883,-2.21883 -4.7239,-3.15542 -7.34375,-3.36132 -1.30992,-0.10296 -2.77321,-0.19333 -4.64062,1.07226 -0.11424,0.0774 -0.21587,0.22891 -0.33008,0.32227 -0.469,-0.0123 -0.97509,-0.11691 -1.36328,0.002 -2.87866,0.88139 -2.97147,2.11163 -3.54493,3.01758 0.76382,-1.20668 0.33262,-0.41602 -0.16796,-0.41602 -1.62674,0 -3.56433,0.3149 -5.22266,1.3711 -1.65833,1.05619 -2.69687,2.51714 -3.52734,3.97656 -0.19309,0.33932 -0.52416,0.71052 -0.6875,0.8457 -0.16335,0.13518 -0.22761,-0.19629 1.0957,-0.20117 -2.59357,0.009 -4.16099,0.82599 -5.75391,2.07617 -2.42118,-1.53078 -4.8456,-2.45009 -8.1875,-1.57617 0.13259,-0.0347 -0.0456,-0.007 -0.0957,-0.0137 -0.0501,-0.007 0.0428,-0.15849 0.76562,0.4414 -1.82056,-1.51095 -3.2044,-1.53484 -4.58984,-1.64257 -1.38544,-0.10774 -2.79512,-0.0135 -4.26172,0.25 -1.51004,0.27134 -5.25263,0.55731 -7.22461,0.51953 -1.55239,-0.0298 -3.05831,0.1011 -4.45898,0.36523 -0.87792,0.16556 -1.70371,0.361 -2.61524,0.75977 -0.7174,-0.34432 -1.40181,-0.54543 -2.05859,-0.70508 -1.21135,-0.29446 -2.40687,-0.41716 -3.60547,-0.43555 -1.1986,-0.0184 -2.37001,0.0587 -3.60547,0.34961 -0.82632,0.19456 -1.83143,0.38685 -2.84961,1.17578 -0.25747,-0.0125 -0.40597,0.004 -0.77929,-0.0664 -1.59096,-0.29847 -3.1827,-0.44837 -4.88282,-0.10938 -1.32646,0.26449 -2.53023,0.92749 -3.57226,1.68164 -1.83085,-1.13155 -3.80694,-1.87682 -5.88477,-1.99414 -1.93252,-0.10911 -4.04693,0.34191 -5.8457,1.59375 -0.25965,-0.0522 -0.53642,-0.0793 -1.5625,-0.41797 -1.89128,-0.62418 -3.30305,-1.19536 -5.47461,-1.03906 -1.73248,0.1247 -3.13534,0.99059 -4.2207,1.82422 -1.78049,-1.18728 -3.40241,-2.0293 -6.19141,-2.0293 -2.60482,0 -4.19102,0.81954 -5.79687,2.07422 -1.83123,-1.13605 -3.80592,-1.87935 -5.88086,-2.00391 -1.87288,-0.11242 -3.92989,0.28374 -5.70508,1.45899 -0.19194,-0.0569 -0.0164,7.7e-4 -0.36719,-0.14453 -1.21563,-0.50351 -2.42245,-0.83569 -3.63086,-1.02539 -1.20841,-0.18971 -2.1731,-0.54258 -4.30469,0.27539 0.67126,-0.25758 -0.0546,-0.0144 -1.02734,-0.57227 -0.9727,-0.55788 -1.97201,-1.62412 -2.3125,-2.34961 -1.16171,-2.47531 -3.88183,-4.14442 -5.58663,-6.19322 -0.90413,-1.08659 -2.20856,-3.6445 -2.04492,-3.12891 -0.88415,-2.78574 -2.89811,-3.15737 -6.06677,-4.2105 1.28257,0.42627 0.74899,0.41957 0.45508,0.0703 -0.29391,-0.34925 -0.67926,-0.94145 -0.89649,-1.41016 -0.662,-1.42839 -1.51388,-2.63412 -2.53711,-3.68359 -1.02323,-1.04948 -2.02628,-2.11964 -4.3789,-2.53516 0.42227,0.0746 -1.07904,-0.58814 -1.41602,-0.79102 0.84556,-1.29585 4.19315,-5.89961 4.71004,-6.75252 1.78833,-2.95089 4.91838,-7.91676 6.85156,-10.86914 2.00232,-3.05797 4.74023,-7.31901 6.1543,-9.58399 1.0047,-1.60926 4.12639,-5.54717 6.23438,-7.73633 4.53203,-4.70654 7.33073,-8.39573 18.16406,-23.91015 l 3.82031,-5.47071 0.69336,0.26563 c 4.46548,1.7102 10.22315,2.09947 16.39844,2.01367 6.17528,-0.0858 12.44524,-0.76118 17.33398,-2.36133 7.42147,-2.42914 14.50762,-5.75607 19.45899,-9.33984 l -0.0566,0.0391 8.34765,6.13672 c 3.41568,2.5112 6.51222,4.61001 9.05469,6.14453 1.27124,0.76726 2.39455,1.39389 3.44141,1.88477 1.04685,0.49087 1.66102,1.02539 3.76367,1.02539 2.23866,0 3.66055,-0.84472 4.92773,-1.69922 1.26719,-0.8545 2.36121,-1.87737 3.35547,-3.01172 1.98853,-2.26869 3.88016,-4.58913 3.9082,-8.50976 0.01,-1.3725 0.17466,-1.7411 0.24024,-1.9961 1.4097,-0.22061 2.92979,-0.70052 4.06836,-1.71289 1.4764,-1.31276 2.19953,-2.79774 2.85937,-4.37695 0.9802,-2.34594 1.5292,-4.82278 1.07617,-7.3711 -0.45302,-2.54831 -2.01341,-4.8209 -3.92382,-6.36718 -0.92904,-0.75196 -1.89723,-1.38392 -3.68555,-2.6211 -1.78832,-1.23717 -4.04072,-2.7776 -6.27344,-4.29492 -2.23272,-1.51732 -4.44223,-3.00949 -6.15039,-4.14844 -0.15759,-0.10507 -0.24591,-0.16096 -0.39453,-0.25976 0.27005,-1.07917 0.5527,-2.20414 0.94336,-3.61914 1.69562,-6.14161 2.24302,-14.05539 2.04101,-21.07813 -0.101,-3.51137 -0.39492,-6.75568 -0.95117,-9.50976 -0.27812,-1.37704 -0.61166,-2.62983 -1.1289,-3.84571 -0.39326,-0.92442 -1.00735,-1.90025 -2.00391,-2.82812 l 1.43359,-1.93945 -6.3164,-9.85352 c -1.2138,-1.893649 -2.30955,-3.66683 -3.09766,-4.996094 0.29467,-0.420936 0.4966,-0.722201 0.875,-1.25 1.50798,-2.103334 3.61751,-4.964322 5.93555,-8.035156 2.3704,-3.140201 4.52111,-6.104556 6.11328,-8.402344 0.79609,-1.148894 1.44973,-2.12171 1.95117,-2.925781 0.25072,-0.402036 0.46044,-0.75207 0.66602,-1.142578 0.10278,-0.195254 0.20485,-0.395249 0.32812,-0.701172 0.12328,-0.305923 0.38086,-0.526777 0.38086,-1.902344 0,-2.323355 -0.72803,-2.788977 -1.17187,-3.447265 -0.44385,-0.658288 -0.90919,-1.210213 -1.43555,-1.791016 -1.05272,-1.161606 -2.34288,-2.387534 -3.75781,-3.628906 -2.82987,-2.482746 -5.81896,-4.884167 -8.77735,-6.294922 -0.6389,-0.30467 -1.15286,-0.621557 -1.52734,-0.867188 -0.0871,-0.171945 -0.11239,-0.338113 -0.22461,-0.509765 -0.72025,-1.101657 -1.99302,-1.924245 -3.05859,-2.214844 -1.06558,-0.290599 -1.89868,-0.294553 -2.59961,-0.171875 z m 5.9414,3.03125 c 0.0969,0.09092 0.12075,0.303397 0.21485,0.490234 -0.0578,-0.162583 -0.13707,-0.32531 -0.21485,-0.490234 z m -0.5625,41.578125 c -0.10067,0.263279 -0.19304,0.336369 -0.24218,0.376953 0.051,-0.08142 0.12724,-0.20366 0.24218,-0.376953 z m -48.32031,4.749955 c -1.33445,1.65916 -2.49438,3.00153 -3.81445,4.75976 -0.69928,0.93138 -1.22515,1.60566 -1.81836,2.37891 -1.30125,-0.89404 -2.74455,-1.89915 -4.28516,-3.01172 -0.7246,-0.52329 -1.27067,-0.94627 -1.96094,-1.45508 1.67259,-0.69668 3.41046,-1.45945 4.91016,-1.86328 1.25395,-0.33766 4.26088,-0.61621 6.96875,-0.80859 z m 30.91797,18.46289 c 0.53246,1.35384 1.50086,5.61088 1.88086,9.83789 0.18413,2.04819 0.22065,4.13016 0.19726,5.96093 -2.28628,-1.8424 -4.95559,-3.67257 -7.50976,-4.99804 -0.68493,-0.35545 -1.18568,-0.72864 -1.75781,-1.10743 0.0471,-0.075 0.0563,-0.10258 0.10547,-0.17968 1.08749,-1.70595 2.67233,-3.94737 4.29687,-6.0918 0.99429,-1.31248 1.86294,-2.30657 2.78711,-3.42187 z m -8.9082,8.46484 c -0.0129,-0.0142 0.0769,-0.013 0.20507,0.17969 -0.0542,-0.0508 -0.19633,-0.17007 -0.20507,-0.17969 z m -55.90625,6.79297 c 3.83989,2.4019 5.25603,3.44271 5.98632,3.98633 -0.25302,0.45009 -0.47089,0.8852 -1.17578,1.97265 -1.00489,1.55028 -2.30555,3.42313 -3.60547,5.16211 l -0.0176,0.0234 c -0.79529,-2.38498 -1.20315,-4.68497 -1.23633,-9.25781 -0.005,-0.71943 0.038,-1.21002 0.0488,-1.88672 z m -24.10547,7.85351 c -0.49018,0.32335 -0.86727,0.6966 -1.19922,1.08594 0.15628,-0.26432 0.47974,-0.61136 1.19922,-1.08594 z m 60.71484,18.1543 c 1.80188,1.44439 3.87197,3.00039 6.28906,4.59961 -2.38087,0.72571 -6.21521,1.54775 -9.81054,1.9668 -0.35875,0.0418 -0.57329,0.0276 -0.92188,0.0625 1.08678,-1.68455 2.63136,-3.97767 4.44336,-6.62891 z m -144.15629,91.17838 c 0.53247,0 -0.34094,0.96194 -0.3418,1.53125 -6.5e-4,1e-5 -0.001,-2e-5 -0.002,0 0.003,-0.87539 0.0513,-1.53125 0.34375,-1.53125 z m 23.7289,10.91681 c 1.30891,-0.0964 3.06128,-0.0393 2.60084,0.65642 -0.97996,1.48075 -4.42672,5.23359 -5.93716,6.81532 -0.018,-10e-4 -0.0479,-0.0139 -0.0664,-0.0156 l -1.47287,-1.42852 c -0.32069,-0.63931 0.93806,-3.31631 1.88783,-4.1384 1.72229,-1.49074 0.89291,-1.73492 2.98776,-1.88922 z m 11.32233,25.49372 c -1.68625,-0.0474 -7.20242,-3.48471 -8.79993,-5.64442 -1.60855,-2.17466 -0.77003,-1.83031 3.20971,-7.6754 l 4.19225,-6.15721 -3.49725,6.69473 c -3.3827,6.47545 -3.43266,6.72929 -1.52545,7.75 2.80809,1.50284 2.69155,1.5762 6.66409,-4.19473 3.5153,-5.10671 3.93744,-3.69215 0.76098,2.54998 -0.78363,1.53999 -1.14633,3.67749 -0.80593,4.75 0.3404,1.07251 0.25109,1.93965 -0.19847,1.92705 z m 41.51334,-83.01152 c -0.25851,0 1.59439,-2.8125 4.11756,-6.25 12.78575,-17.41895 23.23416,-31.42166 34.38261,-46.07874 7.20843,-9.47708 10.20755,-14.23276 10.19755,-16.17126 -0.003,-0.55 -3.825,-3.64848 -8.49383,-6.8855 -4.66884,-3.23703 -8.48879,-6.25491 -8.48879,-6.70641 0,-0.45149 3.35664,1.58738 7.4592,4.53083 9.41882,6.7577 11.90398,8.68282 11.90398,9.33415 0,0.57491 -4.91029,7.09941 -32.37253,43.01466 -10.3799,13.57487 -18.44723,25.21227 -18.70575,25.21227 z m 57.28852,-22.39731 c 0,1.60641 1.52803,0.46798 -0.19466,0.46798 -2.90202,0 -4.46947,-0.6147 -4.46947,-1.50448 0,-2.34075 3.32942,-2.16423 11.21195,-2.73496 4.675,-0.3385 11.81047,-1.49054 15.85661,-2.56011 7.03069,-1.85852 10.49951,-3.74603 9.35903,-1.9007 -0.29171,0.472 -2.20163,1.3308 -4.24425,1.90844 -4.61637,1.30547 -22.87005,3.87233 -26.11266,3.672 -2.85375,-0.17631 -1.40655,-0.0248 -1.40655,2.65182 z m 44.89205,-12.86148 c -6.06899,-3.98267 -15.51899,-10.11664 -21,-13.63106 -11.73326,-7.52336 -10.97173,-6.93722 -10.11984,-7.78912 0.37343,-0.37343 1.91093,0.22723 3.41667,1.33479 1.50573,1.10757 10.6127,7.31061 20.2377,13.78454 9.625,6.47393 17.9275,12.17328 18.45,12.66521 2.20713,2.07802 -0.58322,0.46131 -10.98453,-6.36436 z m 26.53453,2.75879 c -3.35073,3.21021 -3.72974,2.81184 -1.47432,-1.54966 1.37848,-2.66568 4.47432,-4.1446 4.47432,-2.13743 0,0.4471 -1.35,2.10629 -3,3.68709 z M 257.31338,134.79787 c -0.17877,-2.70535 0.12209,-2.01197 1.03903,3.59107 1.76276,10.77145 -0.66613,2.05206 -1.03903,-3.59107 z m 90.93053,12.77396 c -4.26438,-2.18471 -2.24633,-4.51848 -0.86952,-9.1818 0.84939,-2.87692 2.28114,-7.08238 2.28114,-9.53702 0,-4.06507 0.0489,-4.74412 2.2723,-4.74412 1.34254,0 1.81946,0.16886 2.15938,0.71886 0.33992,0.55 -0.2062,1 -1.2136,1 -1.86774,0 -3.2502,4.18892 -4.90027,14.84803 -0.6146,3.97014 -0.42163,4.55365 2.22039,6.71403 3.62843,2.96698 2.70548,2.567 -1.94982,0.18202 z M 316.3473,129.24444 c -0.42553,0 -1.10881,-0.54653 -2.44219,-1.99618 -2.29615,-2.49638 -2.30884,-2.57568 -0.24005,-1.5 1.20134,0.62465 2.61755,1.13572 3.14713,1.13572 0.52958,0 3.28468,-3.0375 6.12246,-6.75 2.83778,-3.7125 8.25546,-10.8 12.03929,-15.75 7.4931,-9.802449 12.60419,-15.870309 11.37135,-13.499999 -0.4291,0.825 -4.92997,5.422038 -9.07815,10.997299 -4.14819,5.57526 -10.37806,14.01276 -13.84415,18.75 -3.4661,4.73724 -6.65016,8.61316 -7.07569,8.61316 z m -52.8665,-21.81581 c -3.3,-2.41266 -9.26151,-6.69844 -13.2478,-9.523969 l -8.28721,-5.724826 -2.31233,2.989098 -2.53829,3.621776 4.64762,3.928071 c 2.37726,2.00921 4.41367,3.1615 4.01725,3.1625 -0.98704,0.004 -9.78238,-6.245939 -9.76658,-6.939799 0.0256,-1.12573 9.13447,-12.34645 9.13447,-11.25109 0,0.62302 -0.42434,1.92565 -0.94299,2.89474 -1.01865,1.90337 4.49487,4.615778 18.54875,15.608429 3.7125,2.90384 7.24711,5.05691 7.24711,5.2817 0,0.67607 -0.27169,0.50693 -6.5,-4.04663 z m 15.11865,-10.174749 c -2.50009,-1.20575 -2.81893,-2.240821 -0.91808,-3.746491 1.66509,-1.31891 11.59029,-4.379165 12.17962,-3.789825 0.25514,0.25514 -1.56546,1.03207 -4.04578,1.72652 -5.95367,1.66693 -8.59347,2.22 -6.21857,4.84424 1.96782,2.17442 2.46891,2.637186 -0.99719,0.965556 z m 35.48306,-8.098143 c -0.6875,-0.10766 -5.975,-0.44516 -11.75,-0.75 -12.60163,-0.66519 -10.15262,-0.914152 3.70904,-0.934652 7.56162,-0.01116 9.25,0.26014 9.25,1.48635 0,0.825 -0.52154,0.305962 -1.20904,0.198302 z m 43.22607,-13.565662 c -0.78904,1.06762 -1.31353,1.70309 -1.35873,1.46047 -0.0452,-0.24262 -0.40111,-1.672539 -0.64591,-3.322539 -0.5136,-3.46173 -6.05602,-8.82393 -8.16652,-8.01406 -1.13085,0.43395 -1.27679,0.111744 -0.39813,-1.37686 0.75163,-1.27338 -0.0309,-2.196572 8.10774,6.444522 2.88516,3.06329 3.76126,3.049867 2.46155,4.808467 z"
         sodipodi:nodetypes="csssscscsscssssscssssssssscssscssccscccsssscscsscccsssccccscssssccsssssscsssssscscsscscscscscssssscssscssscsssccssssscssscccsssscccccsssscsssccscscsscscscsscsssccsssccsssscccsscccsssssccssssssscssssccccssssssssssscsscccccccccscscsccscsccscscsscsccccscccccsccsccsssscccssssscssscssssscssssssssssssssssssssssssssssssssssssssssssssssssssscccsccsssssssssssssssssssssss" /></g></g></svg>
