<?xml version="1.0" encoding="UTF-8" standalone="no"?>
<svg
   version="1.2"
   viewBox="0 0 219.2126 219.2126"
   width="58mm"
   height="58mm"
   id="svg1"
   sodipodi:docname="MnichRoleTokenLaser.svg"
   inkscape:version="1.4.2 (2aeb623e1d, 2025-05-12)"
   xml:space="preserve"
   xmlns:inkscape="http://www.inkscape.org/namespaces/inkscape"
   xmlns:sodipodi="http://sodipodi.sourceforge.net/DTD/sodipodi-0.dtd"
   xmlns="http://www.w3.org/2000/svg"
   xmlns:svg="http://www.w3.org/2000/svg"><sodipodi:namedview
     id="namedview1"
     pagecolor="#ffffff"
     bordercolor="#666666"
     borderopacity="1.0"
     inkscape:showpageshadow="2"
     inkscape:pageopacity="0.0"
     inkscape:pagecheckerboard="0"
     inkscape:deskcolor="#d1d1d1"
     inkscape:zoom="0.99770433"
     inkscape:cx="109.2508"
     inkscape:cy="292.17073"
     inkscape:window-width="1920"
     inkscape:window-height="940"
     inkscape:window-x="0"
     inkscape:window-y="0"
     inkscape:window-maximized="1"
     inkscape:current-layer="layer2"
     showgrid="false"
     inkscape:document-units="mm" /><defs
     id="defs1"><clipPath
       clipPathUnits="userSpaceOnUse"
       id="cp1"><path
         d="m 275.5,535.5 c -143.78,0 -260,-116.22 -260,-260 0,-143.78 116.22,-260 260,-260 143.78,0 260,116.22 260,260 0,143.78 -116.22,260 -260,260 z"
         id="path1" /></clipPath></defs><style
     id="style1">
		tspan { white-space:pre } 
		.s0 { fill: none;stroke: #ff0000;stroke-miterlimit:100 } 
	</style><g
     inkscape:groupmode="layer"
     id="layer1"
     inkscape:label="Template"><path
       id="Path 0 copy"
       class="s0"
       d="M 97.671812,0.76195273 C 95.811163,1.0410157 92.860484,1.4795432 91.107641,1.7386731 89.358798,1.997803 85.509736,2.8270187 82.555058,3.5884617 79.600383,4.3459187 74.856934,5.7970461 72.014054,6.809646 c -2.846867,1.0126003 -8.03751,3.288956 -11.539201,5.063 -3.501687,1.770056 -8.604494,4.716164 -11.339564,6.54602 -2.735069,1.825869 -6.759813,4.799883 -8.94787,6.605819 -2.188063,1.805936 -5.98921,5.318143 -8.448778,7.80579 -2.455574,2.487647 -5.8255,6.227092 -7.482513,8.304116 -1.661007,2.081012 -4.451977,5.932081 -6.204818,8.555271 -1.748848,2.627183 -4.683558,7.821737 -6.520248,11.541252 C 9.4028976,65.552402 7.4104889,70.368229 6.0249861,74.562147 4.827145,78.174021 3.3937281,83.189182 2.8347356,85.704735 2.2757431,88.220284 1.4532257,93.099903 1.0100244,96.548321 0.47498871,100.70238 0.20347826,105.1315 0.19948545,109.68023 c 0,4.66434 0.25953208,8.84231 0.81053895,13.03224 0.4471941,3.39261 1.2776971,8.22837 1.8406824,10.74393 0.5629853,2.51953 1.7089199,6.72541 2.5474089,9.35259 0.8384886,2.62718 2.3477689,6.74535 3.3539551,9.15327 1.0061862,2.40791 2.9147472,6.43439 4.2363652,8.95393 1.32561,2.51556 3.721293,6.54602 5.330393,8.95393 1.605107,2.40792 4.276292,6.0756 5.933306,8.15662 1.657013,2.07702 5.026939,5.81646 7.486506,8.3081 2.455575,2.49164 6.260715,5.99188 8.448778,7.78188 2.188057,1.786 5.138736,4.06235 6.564168,5.05901 1.42144,0.99665 4.463953,2.9461 6.759816,4.32946 2.29986,1.38734 6.508272,3.62782 9.351148,4.98725 2.842876,1.35545 7.230966,3.19727 9.746435,4.09027 2.515464,0.893 6.991397,2.24048 9.946072,2.99394 2.954678,0.74949 8.592511,1.83385 12.533411,2.39995 5.669781,0.82123 8.692331,1.03651 14.517831,1.03651 5.8295,0 8.85205,-0.21528 14.52183,-1.03651 3.9409,-0.5661 9.57873,-1.65046 12.53341,-2.39995 2.95467,-0.75346 7.42661,-2.10094 9.94607,-2.99394 2.51547,-0.893 6.89957,-2.73482 9.74644,-4.09027 2.84287,-1.35943 7.05129,-3.59991 9.34715,-4.98725 2.29986,-1.38336 5.34237,-3.33281 6.76381,-4.32946 1.42144,-0.99666 4.37611,-3.27301 6.56417,-5.06301 2.18806,-1.78998 5.9892,-5.29422 8.44478,-7.78187 2.45957,-2.48765 5.8255,-6.22709 7.48651,-8.30411 1.65701,-2.08102 4.39208,-5.84039 6.07305,-8.35594 1.68097,-2.51955 4.32421,-7.08422 5.87342,-10.14993 1.54921,-3.06171 3.54959,-7.45097 4.44797,-9.74726 0.89839,-2.30028 2.2799,-6.32676 3.07446,-8.95394 0.79457,-2.62718 1.88061,-7.01245 2.41166,-9.75126 0.53504,-2.73481 1.24176,-7.21178 1.56917,-9.94659 0.3314,-2.73483 0.60291,-8.01709 0.60291,-11.74059 0,-3.77532 -0.27151,-8.8742 -0.61489,-11.541243 -0.33539,-2.623194 -0.8864,-6.294863 -1.2178,-8.156609 -0.3314,-1.857765 -1.11799,-5.350037 -1.74885,-7.757953 -0.63086,-2.407916 -1.8886,-6.526086 -2.79896,-9.15326 -0.90636,-2.627186 -3.14233,-7.821744 -4.96704,-11.541251 -1.82471,-3.719515 -4.75144,-8.914069 -6.50029,-11.541252 -1.75283,-2.62319 -4.54381,-6.474259 -6.20481,-8.555271 -1.66101,-2.077024 -5.03093,-5.812482 -7.48651,-8.296143 -2.45558,-2.487647 -6.25672,-5.987894 -8.44478,-7.78187 -2.18806,-1.793976 -5.14273,-4.07432 -6.56417,-5.070973 -1.42144,-0.996653 -4.46395,-2.942121 -6.76381,-4.329463 -2.29586,-1.387341 -6.50428,-3.627819 -9.34715,-4.983267 -2.84687,-1.3554487 -7.23097,-3.1932779 -9.74644,-4.0822923 -2.51946,-0.8930022 -6.63603,-2.1567586 -9.1515,-2.8145498 -2.51547,-0.6577916 -6.18486,-1.4710606 -8.1573,-1.8019496 -1.96845,-0.3348755 -5.55,-0.8810416 -7.95366,-1.21591724 -2.8868,-0.40264799 -7.08724,-0.59001883 -12.33377,-0.55413932 -4.37612,0.0279061 -9.478922,0.27906301 -11.339568,0.55812599 z"
       style="stroke:#000000;stroke-width:0.398971;stroke-opacity:1"
       inkscape:label="vnejsi kruh" /><path
       id="Path 0"
       class="s0"
       d="m 102.24158,10.569589 c -0.8395,0.0802 -2.995498,0.336089 -4.785161,0.561421 -1.793479,0.229152 -4.20514,0.591975 -5.365175,0.80967 -1.156219,0.213875 -4.434098,0.966256 -7.27695,1.676627 -2.842853,0.70655 -7.326559,2.096738 -9.95954,3.085909 -2.632978,0.989172 -6.685485,2.749821 -9.001743,3.907037 -2.320077,1.161036 -5.937565,3.150837 -8.043948,4.422629 -2.106395,1.271792 -5.212545,3.349434 -6.895367,4.621227 -1.68663,1.271792 -4.52949,3.55567 -6.322965,5.071892 -1.789667,1.51622 -4.472256,4.029248 -5.96046,5.579835 -1.488212,1.554414 -3.991453,4.376799 -5.563611,6.274942 -1.572157,1.898139 -4.239481,5.522561 -5.929933,8.050863 -1.690451,2.532129 -4.12882,6.672136 -5.4186,9.20426 -1.28978,2.528314 -3.121418,6.49645 -4.075398,8.818527 -0.953977,2.318247 -2.354418,6.374237 -3.113785,9.00948 -0.759368,2.635244 -1.793483,7.03496 -2.300999,9.777136 -0.503699,2.738366 -1.095167,7.054058 -1.316489,9.582366 -0.221326,2.53213 -0.404489,6.41243 -0.404489,8.62756 0,2.21513 0.183163,6.09544 0.404489,8.62757 0.221322,2.5283 0.81279,6.84017 1.316489,9.58236 0.507516,2.74218 1.514918,7.05405 2.239943,9.58617 0.728838,2.52831 2.041514,6.41244 2.919176,8.62757 0.877658,2.21132 2.755089,6.2673 4.170797,9.00948 1.411886,2.73836 3.938024,7.05406 5.605579,9.58236 1.667555,2.53213 4.697392,6.5843 6.735089,9.00949 2.033885,2.42519 5.143854,5.7899 6.910623,7.47798 1.762958,1.68808 4.674501,4.24695 6.464157,5.68678 1.789671,1.43602 5.151488,3.88413 7.471565,5.43854 2.316262,1.55059 6.540485,4.03307 9.383338,5.51492 2.84286,1.47802 7.498278,3.57095 10.341135,4.64796 2.846668,1.07701 7.502094,2.5474 10.344947,3.26541 2.842852,0.718 7.498274,1.68809 10.341135,2.15403 4.334875,0.70655 6.693111,0.84404 14.557711,0.84404 7.86461,0 10.22284,-0.13749 14.55772,-0.84404 2.84286,-0.46594 7.49828,-1.43603 10.34113,-2.15403 2.84286,-0.71801 7.49828,-2.1884 10.34495,-3.26541 2.84286,-1.07701 7.41051,-3.1241 10.15034,-4.54484 2.73983,-1.42457 6.96023,-3.90704 9.38333,-5.51492 2.42311,-1.60789 5.8727,-4.09036 7.66236,-5.51492 1.78967,-1.42456 5.24307,-4.58685 7.67381,-7.02732 2.43074,-2.44047 5.59031,-5.90448 7.02509,-7.69568 1.43479,-1.79502 3.98001,-5.3316 5.65901,-7.85991 1.679,-2.53212 4.41121,-7.3634 6.07113,-10.73576 1.6561,-3.37234 3.64801,-7.8599 4.41882,-9.9681 0.77463,-2.10819 1.98047,-6.07634 2.67878,-8.81852 0.69831,-2.74218 1.66755,-7.48563 2.14836,-10.54098 0.73265,-4.6365 0.87766,-7.05787 0.87766,-14.57023 0,-7.42451 -0.14882,-9.956641 -0.84713,-14.379266 -0.46554,-2.95224 -1.43097,-7.695686 -2.14837,-10.540984 -0.71357,-2.849122 -1.92704,-6.901282 -2.69785,-9.009481 -0.77081,-2.108198 -2.8047,-6.683592 -4.51804,-10.162876 -1.71335,-3.479293 -4.45318,-8.306754 -6.08257,-10.731946 -1.62939,-2.425183 -4.14027,-5.870105 -5.57887,-7.653669 -1.4386,-1.783556 -3.99145,-4.697607 -5.67808,-6.477348 -1.68664,-1.779741 -4.52949,-4.472275 -6.31916,-5.980857 -1.79348,-1.512402 -4.63634,-3.788642 -6.32297,-5.060434 -1.68282,-1.271793 -4.78898,-3.349435 -6.89536,-4.621227 -2.10639,-1.271792 -5.72388,-3.261593 -8.04395,-4.422629 -2.31626,-1.157216 -6.36877,-2.917865 -9.00175,-3.907037 -2.63297,-0.989171 -7.11668,-2.383178 -9.95954,-3.093548 -2.84285,-0.710371 -6.20467,-1.466571 -7.46774,-1.684265 -1.26689,-0.217694 -3.41906,-0.584337 -4.78898,-0.80967 -1.36991,-0.229151 -6.10928,-0.477399 -10.53574,-0.553783 -4.42265,-0.07638 -8.73464,-0.07256 -9.57795,0.0076 z"
       style="stroke:#000000;stroke-width:0.381756;stroke-opacity:1"
       inkscape:label="vnitrni kruh" /><g
       inkscape:groupmode="layer"
       id="layer3"
       inkscape:label="Positions"
       style="display:none"><rect
         style="display:inline;fill:#ff2121;fill-opacity:0.107692;stroke:#000000;stroke-width:1.05245;stroke-opacity:1"
         id="rect1"
         width="300"
         height="300"
         x="135"
         y="80.172386" /><rect
         style="display:inline;fill:#de0000;fill-opacity:0.0923077;stroke:#000000;stroke-width:1.00157;stroke-opacity:1"
         id="rect2"
         width="300"
         height="83.006134"
         x="135"
         y="401.53375" /></g><text
       xml:space="preserve"
       style="font-size:109.103px;font-family:'Didact Gothic';-inkscape-font-specification:'Didact Gothic';text-align:start;letter-spacing:2.02104px;writing-mode:lr-tb;direction:ltr;text-anchor:start;display:none;fill:#de0000;fill-opacity:0.0923077;stroke:#000000;stroke-width:7.03727;stroke-dasharray:none;stroke-opacity:1"
       x="87.22261"
       y="431.29196"
       id="text2"
       inkscape:label="Text"><tspan
         sodipodi:role="line"
         id="tspan2"
         x="0"
         y="0"
         style="font-style:normal;font-variant:normal;font-weight:normal;font-stretch:normal;font-family:'New Rocker';-inkscape-font-specification:'New Rocker';letter-spacing:2.02104px;fill:#000000;fill-opacity:1;stroke:#000000;stroke-width:7.03727;stroke-dasharray:none;stroke-opacity:1">Hrobník</tspan></text><path
       id="path4"
       style="display:none;stroke-width:8.05907"
       d="m 276.32799,515.95806 h 15.42748 v 4.53544 h -15.42748 z"
       inkscape:label="spojovnik pismen" /></g><g
     inkscape:groupmode="layer"
     id="layer2"
     inkscape:label="Content"
     style="display:inline"><path
       id="text7"
       style="font-size:109.103px;font-family:'New Rocker';-inkscape-font-specification:'New Rocker';letter-spacing:2.02104px;baseline-shift:baseline;white-space:pre;display:inline;overflow:visible;opacity:1;vector-effect:none;fill:none;stroke:#000000;stroke-width:0.384584;stroke-opacity:1;enable-background:accumulate;stop-color:#000000;stop-opacity:1"
       d="m 155.60159,132.21185 c -1.12254,0.53454 -2.16441,0.94139 -3.11874,1.22511 l -0.005,0.001 -0.005,0.002 c -0.89651,0.27393 -1.72705,0.40261 -2.49979,0.40261 -0.63832,0 -1.14533,-0.0847 -1.52557,-0.21783 l -3.25769,-1.14023 1.61495,3.05113 c 0.2278,0.43029 0.41304,0.8398 0.5581,1.22661 0.13854,0.36946 0.24276,0.7497 0.31247,1.14474 l 0.007,0.0376 0.008,0.0368 c 0.0906,0.38484 0.15134,0.82131 0.17577,1.30999 0.0266,0.53137 0.0406,1.13949 0.0406,1.82076 v 18.91069 h -3.02258 v -0.36505 c 0,-0.3594 0.0156,-0.62751 0.0315,-0.75489 l 0.25389,-2.03184 -1.96799,0.56261 c -1.38081,0.39451 -2.58191,1.10641 -3.48904,2.11821 l -0.001,0.001 -7.6e-4,7.5e-4 c -0.56132,0.62868 -0.93891,1.3723 -1.22886,2.15577 -0.45567,-0.0669 -0.86573,-0.10145 -1.39562,-0.22233 h -7.5e-4 v -7.5e-4 h -7.5e-4 c -0.5065,-0.11923 -0.8144,-0.24074 -1.20333,-0.36281 0.0698,-0.61766 0.15433,-1.20201 0.19004,-1.89737 0.0844,-1.13427 0.1277,-2.18008 0.1277,-3.13526 0,-1.09022 -0.0436,-2.16717 -0.1292,-3.2314 -0.005,-0.0866 -0.0182,-0.17327 -0.0233,-0.2599 0.14088,0.0787 0.27575,0.18258 0.41838,0.25389 1.01112,0.50556 1.95575,0.81423 2.91292,0.81423 1.27548,0 2.51928,-0.43613 3.6265,-1.20783 l 0.004,-0.002 0.003,-0.002 c 1.12894,-0.7969 2.02885,-1.85237 2.65377,-3.1022 l 0.81048,-1.62021 -1.78396,-0.31698 c -1.18054,-0.20987 -2.34894,-0.52475 -3.50857,-0.94644 -1.15422,-0.41972 -2.14239,-0.89791 -2.967,-1.42266 l -0.62796,-0.3996 -0.67377,0.31623 c -1.21157,0.5687 -2.54656,1.08356 -3.954,1.56612 l -0.36805,-0.34402 0.0616,0.46571 c -0.01,0.003 -0.0178,0.008 -0.0278,0.0113 -1.53615,0.48469 -3.02432,0.84619 -4.46403,1.08614 l -1.53533,0.25614 0.46646,1.485 c 0.27223,0.86619 0.4839,1.94244 0.61669,3.21714 l 0.002,0.015 0.002,0.0158 c 0.15959,1.25015 0.24037,2.60626 0.24037,4.06667 0,0.89577 -0.0271,1.76182 -0.0811,2.59819 -0.0136,0.21029 -0.0289,0.41709 -0.0458,0.61969 h -3.27196 v -12.99171 l -1.46397,-2.4397 -0.97273,0.24262 c -0.20253,0.0506 -0.41223,0.10246 -0.6287,0.15473 l 0.0128,-1.69081 0.14046,-0.28018 c 0.41858,-0.83715 0.89105,-1.48717 1.40313,-1.977 l 7.5e-4,-7.5e-4 c 0.61063,-0.58519 1.37021,-1.20289 2.27746,-1.84329 l 1.73663,-1.22586 -1.84555,-1.0546 c -0.14815,-0.0847 -0.42923,-0.25924 -0.79095,-0.49125 -0.34464,-0.26435 -0.71036,-0.53834 -1.10042,-0.82475 l -0.009,-0.007 c -0.36673,-0.28831 -0.71851,-0.57604 -1.05836,-0.86306 -0.28737,-0.26501 -0.48912,-0.48492 -0.57387,-0.59791 l -0.69631,-0.9284 -1.02305,0.54607 c -1.001,0.53387 -1.90209,1.27784 -2.69584,2.19859 l -0.001,0.001 -0.002,0.002 c -0.71884,0.83864 -1.33987,1.7007 -1.85982,2.58768 l -0.57237,0.97573 0.85855,0.73611 c 0.22805,0.19547 0.52108,0.42869 0.89536,0.7166 0.35966,0.27666 0.73319,0.56776 1.12145,0.87282 0.367,0.28836 0.70447,0.5739 1.01254,0.8563 l 0.0436,0.0398 0.0458,0.0353 c 0.32245,0.24803 0.53413,0.45039 0.59491,0.52129 l 0.35078,0.40937 -0.0128,1.69157 c -0.20863,0.0468 -0.42203,0.0941 -0.63997,0.14196 -1.11878,0.21795 -2.15435,0.39522 -3.09996,0.53031 l -1.16126,0.166 v 2.52383 l 1.55186,0.67152 v 10.59482 h -3.56717 v -1.45571 c 0,-1.4459 0.0139,-2.65155 0.0413,-3.61147 0.0274,-0.95892 0.0547,-1.761 0.0819,-2.41792 0.0528,-0.63163 0.10513,-1.13644 0.15474,-1.5143 0.0755,-0.39792 0.16129,-0.76849 0.25764,-1.10568 l 0.31472,-1.10117 -1.03431,-0.49274 c -0.55813,-0.26578 -1.04091,-0.51496 -1.45121,-0.74514 -0.4155,-0.26013 -0.8192,-0.51969 -1.20858,-0.77893 -0.34765,-0.24882 -0.69852,-0.52453 -1.05235,-0.827 -0.3834,-0.35613 -0.80572,-0.75047 -1.27092,-1.18831 l -0.9825,-0.92465 -0.92765,0.97949 c -0.97487,1.02902 -1.91442,1.91402 -2.81452,2.65528 -0.29655,0.24421 -0.69327,0.49393 -1.0178,0.73987 v -1.20333 l -1.46397,-2.4397 -0.972724,0.24262 c -0.875535,0.21888 -1.881487,0.45311 -3.012824,0.70156 -1.120045,0.21825 -2.155667,0.39584 -3.102204,0.53106 l -1.162015,0.166 v 2.52383 l 1.552606,0.67152 v 10.59482 h -5.708662 c -0.08307,-0.52006 -0.12469,-1.06032 -0.12469,-1.62321 0,-1.20517 0.175424,-2.41163 0.529557,-3.63176 0.398428,-1.27344 0.829885,-2.30878 1.269425,-3.09019 l 0.359043,-0.63846 -0.338764,-0.64974 c -0.67079,-1.28792 -1.170441,-2.46466 -1.504533,-3.51834 -0.327238,-1.03207 -0.482229,-1.99676 -0.482229,-2.90541 0,-0.81466 0.04002,-1.59873 0.117179,-2.35332 0.100168,-0.74461 0.26114,-1.44252 0.478475,-2.10018 0.232335,-0.6228 0.553255,-1.21322 0.977981,-1.78021 0.43406,-0.57038 1.010512,-1.11868 1.751659,-1.63748 l -0.985496,-2.44571 c -0.892295,0.13942 -1.826348,0.29302 -2.799495,0.4597 -0.96512,0.13785 -1.958041,0.27594 -2.978272,0.41387 -1.008001,0.1089 -2.015421,0.2049 -3.023334,0.28694 -0.0019,1.1e-4 -0.0039,-1.1e-4 -0.006,0 -1.010412,0.0545 -1.977517,0.0826 -2.900148,0.0826 h -0.545328 c -0.01746,0 -0.07591,-0.004 -0.173516,-0.0323 l -1.242382,2.33755 c 0.606977,0.50987 1.066342,1.03389 1.400872,1.56913 l 0.01052,0.0165 0.01127,0.0173 c 0.287768,0.43165 0.548601,1.05662 0.802968,1.70208 l -5.564443,11.29789 -6.863915,-11.82895 c 0.01304,-0.14777 0.01861,-0.28534 0.05483,-0.4627 0.09076,-0.30917 0.198814,-0.60703 0.330499,-0.89235 0.137358,-0.29761 0.283592,-0.56194 0.43491,-0.80372 0.152618,-0.20437 0.299037,-0.35878 0.425896,-0.45745 l 3.705373,-2.88137 -4.670586,0.46646 c -0.235288,0.0235 -0.469949,0.0353 -0.704568,0.0353 h -0.797711 c -1.129972,0 -2.154229,-0.0546 -3.071411,-0.15924 -0.954121,-0.13654 -1.841439,-0.27279 -2.65678,-0.40862 -0.802329,-0.13833 -1.550971,-0.26335 -2.246659,-0.37482 -0.73477,-0.15154 -1.430909,-0.2321 -2.094931,-0.2321 -0.467742,0 -0.919985,0.053 -1.354303,0.18328 l -2.638004,0.7917 2.239149,1.60443 c 1.565059,1.12163 2.718055,2.3143 3.501813,3.56341 l 0.0083,0.0128 0.009,0.0135 c 0.77917,1.18056 1.160511,2.47006 1.160511,3.99606 0,1.7713 -0.59925,3.92263 -1.902638,6.423 l -0.370312,0.71057 0.444675,0.66551 c 0.594358,0.89154 1.001717,1.79697 1.241636,2.73265 l 0.0038,0.0158 0.0045,0.0158 c 0.273247,0.96879 0.410874,1.97413 0.410874,3.03085 0,1.13849 -0.15108,2.2608 -0.455939,3.37862 l -0.0038,0.0135 -0.0038,0.0143 c -0.285468,1.14188 -0.687339,2.2584 -1.209334,3.35459 l -0.003,0.007 -0.003,0.007 c -0.496002,1.07032 -1.081534,2.07138 -1.757666,3.00756 l -0.0053,0.007 -0.0053,0.008 c -0.682143,0.97074 -1.409944,1.82705 -2.182811,2.57416 l 1.338531,2.26619 c 1.152309,-0.35456 2.177128,-0.75869 3.077418,-1.22436 0.877781,-0.45403 1.664947,-0.96231 2.360082,-1.52932 0.713633,-0.55966 1.333585,-1.17827 1.852312,-1.85532 0.191584,-0.227 0.343709,-0.49849 0.522041,-0.74062 0.158383,0.12287 0.359232,0.28933 0.503262,0.39735 l 0.01578,0.012 0.01577,0.0113 c 0.512985,0.3621 1.005567,0.67155 1.485758,0.92765 l 0.01577,0.008 0.01653,0.008 c 0.48791,0.24395 0.978388,0.45928 1.472232,0.64448 l 0.01277,0.005 0.01202,0.005 c 0.514804,0.18169 1.090114,0.35863 1.730626,0.53331 l 4.148545,1.13122 -2.75293,-3.30352 c -0.519249,-0.6231 -0.950702,-1.22352 -1.300973,-1.79747 -0.325419,-0.55962 -0.606403,-1.22074 -0.830758,-1.99353 -0.221101,-0.76156 -0.391467,-1.70299 -0.497255,-2.81377 -0.105933,-1.11229 -0.162248,-2.53046 -0.162248,-4.23567 v -1.30774 l 5.716173,10.04049 2.314262,0.40862 6.046675,-11.5638 v 2.42243 c 0,0.86693 -0.02692,1.73409 -0.08112,2.60119 l -0.0015,0.021 v 0.021 c -0.02615,0.83707 -0.104422,1.61099 -0.23135,2.32178 l -0.0045,0.0233 -0.003,0.0233 c -0.0969,0.6783 -0.263021,1.27248 -0.488991,1.79222 l -0.01127,0.0225 -0.0083,0.0233 c -0.186542,0.47672 -0.413969,0.79497 -0.679778,1.02756 l -1.693821,1.48199 2.103191,0.80072 c 0.464727,0.17704 0.950798,0.4405 1.45721,0.80222 l 0.01803,0.012 0.01803,0.0128 c 0.525564,0.35038 1.010628,0.73578 1.457964,1.15826 0.439313,0.41491 0.790592,0.82835 1.062112,1.23563 l 0.01427,0.021 0.01502,0.0203 c 0.307394,0.42562 0.48791,0.78094 0.567861,1.0208 l 1.07413,3.22164 1.436177,-3.07742 c 0.132458,-0.28384 0.361497,-0.6444 0.699311,-1.0546 0.346826,-0.42114 0.752069,-0.8507 1.211589,-1.28595 0.451154,-0.39993 0.940879,-0.77899 1.473739,-1.13422 l 0.01802,-0.012 0.01803,-0.0128 c 0.541132,-0.38653 1.075976,-0.71659 1.603682,-0.99301 l 2.084412,-1.09216 -1.992023,-1.2529 c -0.717883,-0.45124 -1.288686,-1.13133 -1.73438,-2.18206 -0.02454,-0.0616 -0.04894,-0.12335 -0.07211,-0.18553 h 5.251215 v 1.4159 c 0,0.65436 -0.109722,1.07575 -0.192292,1.24088 l -0.0083,0.0165 -0.0083,0.0165 c -0.05929,0.12705 -0.08942,0.16272 -0.09764,0.16901 l -7.5e-4,7.5e-4 h -7.54e-4 v -7.5e-4 -7.5e-4 h 7.54e-4 l 7.5e-4,-7.6e-4 c 2.61e-4,-3e-4 0.0012,-0.002 0.0015,-0.002 8.7e-4,-6.9e-4 0.0018,-0.002 0.003,-0.002 l -0.830762,0.34628 v 2.88437 H 103.0496 v -2.92419 l -0.8563,-0.31773 c -0.012,-0.0233 -0.0369,-0.0762 -0.0774,-0.18553 -0.10095,-0.27292 -0.19981,-0.83347 -0.19981,-1.61796 v -8.14385 l 3.00006,-1.34154 v 3.53938 l 7.5e-4,0.0113 c 0.0278,1.58654 0.0413,3.17344 0.0413,4.75997 0,0.22569 -0.0249,0.71879 -0.0796,1.40238 -0.0551,0.6886 -0.12414,1.44943 -0.20732,2.28121 -0.0807,0.77909 -0.18852,1.55837 -0.32299,2.3383 v 0.004 l -7.5e-4,0.004 c -0.13345,0.8007 -0.27884,1.45175 -0.42289,1.93193 l -0.23285,0.77368 1.814,1.814 0.9562,-1.0238 c 0.35799,-0.38357 0.77538,-0.7893 1.25215,-1.21309 0.47041,-0.41815 0.96917,-0.82434 1.49477,-1.2191 0.55148,-0.39346 1.08592,-0.74537 1.60293,-1.05611 0.52106,-0.29696 1.01709,-0.52577 1.485,-0.68954 l 1.11094,-0.38909 -0.2306,-1.15375 c -0.053,-0.26505 -0.10659,-0.54517 -0.15999,-0.83828 -0.0439,-0.26352 -0.0836,-0.64068 -0.10967,-1.11093 -0.025,-0.44957 -0.0504,-1.02555 -0.0759,-1.71861 h 3.56116 v 1.37383 c 0,1.98169 0.56851,3.81565 1.69232,5.3361 l 0.40561,0.54833 h 1.09065 l 0.19004,-0.0571 c 0.82069,-0.24621 1.61243,-0.46395 2.37361,-0.65425 0.7391,-0.18477 1.53819,-0.34494 2.39763,-0.47922 l 1.14474,-0.17877 v -1.18981 h 2.36083 c 0.74897,0 1.61648,0.0758 2.59444,0.23436 0.99791,0.16182 1.98214,0.36371 2.95198,0.60616 l 0.004,0.002 0.005,7.5e-4 c 0.98945,0.24068 1.88936,0.50715 2.70185,0.79471 0.80817,0.31391 1.42985,0.61019 1.82151,0.84953 l 0.97273,0.59416 0.75114,-0.8578 c 0.0655,-0.0748 0.26962,-0.25333 0.58138,-0.45595 0.37198,-0.22218 0.77101,-0.43568 1.20032,-0.63771 l 0.015,-0.007 0.0143,-0.007 c 0.44971,-0.22485 0.89395,-0.41015 1.33327,-0.55659 l 0.0195,-0.006 0.0203,-0.008 c 0.4747,-0.17489 0.89435,-0.29313 1.24989,-0.3598 l 1.47149,-0.27567 -0.42214,-1.43617 c -0.11796,-0.40107 -0.23175,-0.90528 -0.33501,-1.49177 -0.0539,-0.41932 -0.0924,-0.98372 -0.10741,-1.6818 h 3.01582 v 1.4159 c 0,0.65436 -0.11047,1.07574 -0.19304,1.24088 l -0.008,0.0165 -0.008,0.0165 c -0.0623,0.1334 -0.0917,0.16602 -0.0984,0.16976 h -7.6e-4 -7.5e-4 v -7.5e-4 l 7.5e-4,-7.5e-4 7.6e-4,-7.6e-4 c 2.5e-4,-3e-4 10e-4,-0.002 10e-4,-0.002 8.6e-4,-6.9e-4 0.002,-0.002 0.003,-0.002 l -0.83076,0.34628 v 2.88437 h 10.42732 v -2.92419 l -0.8563,-0.31698 v -7.5e-4 c -0.0121,-0.0234 -0.0371,-0.0766 -0.0774,-0.18553 -0.10094,-0.27292 -0.19904,-0.83347 -0.19904,-1.61796 v -7.72471 l 2.9993,-1.34079 v 3.53862 l 7.5e-4,0.012 c 0.0278,1.58654 0.0413,3.17344 0.0413,4.75997 0,0.22569 -0.0249,0.71878 -0.0796,1.40238 -0.0551,0.6886 -0.12414,1.44943 -0.20732,2.28121 -0.0807,0.77885 -0.18781,1.55861 -0.32223,2.3383 l -7.6e-4,0.004 -7.5e-4,0.004 c -0.13345,0.8007 -0.27884,1.451 -0.42289,1.93118 l -0.2321,0.77442 1.81325,1.81326 0.9562,-1.02381 c 0.35799,-0.38356 0.77538,-0.78854 1.25215,-1.21234 0.47041,-0.41814 0.96917,-0.82434 1.49477,-1.2191 0.55011,-0.39247 1.08337,-0.74368 1.59918,-1.05385 0.52258,-0.29812 1.02035,-0.52834 1.4895,-0.69255 l 1.11019,-0.38834 -0.2306,-1.15375 c -0.0535,-0.26742 -0.10686,-0.5498 -0.16074,-0.84578 -0.0436,-0.26327 -0.083,-0.6371 -0.10892,-1.10418 -0.027,-0.4852 -0.0544,-1.11821 -0.0819,-1.88611 v -3.0316 c 0,-1.44591 0.0146,-2.6523 0.0421,-3.61223 0.0274,-0.95891 0.054,-1.76024 0.0811,-2.41716 0.0529,-0.63226 0.10584,-1.13784 0.15549,-1.5158 0.0755,-0.39763 0.16061,-0.76721 0.25689,-1.10418 l 0.31473,-1.10117 -1.03432,-0.49275 c -0.55813,-0.26577 -1.04091,-0.51495 -1.4512,-0.74513 -0.41689,-0.26099 -0.82102,-0.52184 -1.21159,-0.78194 -0.34962,-0.25038 -0.70174,-0.52761 -1.05761,-0.83226 -0.38138,-0.35428 -0.80058,-0.74589 -1.26267,-1.18079 l -0.98173,-0.9239 -0.92766,0.97873 c -0.97487,1.02903 -1.91517,1.91402 -2.81527,2.65528 -0.2963,0.24401 -0.69281,0.49339 -1.01704,0.73912 v -8.67341 c 0,-1.3875 0.0948,-2.59281 0.27191,-3.61072 0.19182,-0.94758 0.50544,-1.61607 0.88259,-2.06864 z m -31.04686,29.55509 h 3.07141 c -0.10297,0.6577 -0.22855,1.22578 -0.37031,1.69833 l -0.009,0.03 -0.008,0.0308 c -0.11669,0.46678 -0.26014,0.75397 -0.2997,0.81048 l -1.25215,1.78921 v -1.19957 l -0.85555,-0.31698 v -7.5e-4 c -0.012,-0.0233 -0.0377,-0.0762 -0.0781,-0.18553 -0.10094,-0.27292 -0.19905,-0.83347 -0.19905,-1.61796 z" /><g
       id="path1-9"
       style="display:inline;opacity:1;fill:none;stroke:#000000;stroke-width:9.31653;stroke-dasharray:none;stroke-opacity:1"
       transform="matrix(0.38458351,0,0,0.38458351,-2.6982789,4.2401525)"><path
         id="path9"
         style="baseline-shift:baseline;display:inline;overflow:visible;fill:none;stroke:#000000;stroke-width:1;stroke-dasharray:none;stroke-opacity:1;enable-background:accumulate;stop-color:#000000;stop-opacity:1"
         d="m 347.08594,52.21875 c -0.70093,0.122678 -1.26898,0.371684 -1.80274,0.589844 -2.13503,0.872638 -3.95764,2.2538 -6.01758,4.140625 -1.15466,1.057624 -2.10172,2.004533 -2.85546,2.892578 -0.37688,0.444022 -0.68751,0.764297 -1.13086,1.617187 -0.1552,0.298558 -0.37965,0.797702 -0.48828,1.603516 -0.69965,0.795723 -1.35709,1.640135 -1.74415,3.152344 -0.15782,0.616624 -0.16802,1.416314 -0.0508,2.251953 -0.83458,0.506647 -1.6039,1.063083 -2.46875,1.736328 -1.43374,1.116102 -2.95176,2.445903 -4.34375,3.837891 -1.73522,1.735219 -2.3957,2.195933 -2.49414,2.318359 -1.0859,-0.394268 -1.83785,-0.506727 -2.83593,-0.644531 -1.08541,-0.149861 -2.34351,-0.27369 -3.75,-0.376953 -2.81299,-0.206527 -6.20828,-0.330358 -9.62305,-0.330079 -10.65112,8.78e-4 -14.28618,0.534044 -21.08789,3.001954 -4.63283,1.68097 -10.51471,4.591732 -14.26367,7.130859 -1.40348,0.950555 -2.69728,1.776856 -3.73633,2.416016 -0.30418,-0.187673 -0.49067,-0.29362 -0.85156,-0.521485 -1.80872,-1.142006 -4.26503,-2.748538 -6.88282,-4.513672 -6.74357,-4.547101 -10.68217,-7.640439 -16.15625,-7.394531 -2.73704,0.122954 -5.2278,1.489458 -7.10937,3.167969 -1.88158,1.678511 -3.49046,3.714328 -5.44531,6.253906 -2.53967,3.299324 -4.11267,5.401266 -5.20508,7.642578 -1.09241,2.241312 -1.38141,4.78795 -1.21289,6.806641 0.16674,1.997413 0.98609,4.858823 2.82422,6.845703 1.83812,1.98688 4.13351,3.53787 8.17773,6.33984 4.14468,2.87158 7.18668,4.9402 9.12109,6.20118 -0.14105,0.55884 -0.16065,0.74293 -0.70898,2.48242 -0.8481,2.69048 -1.42505,4.15978 -1.50391,6.31054 -0.0394,1.07539 0.20815,2.52857 0.89063,3.67188 0.44992,0.75373 0.89953,1.04021 1.35156,1.42578 0.0812,0.68775 0.0793,2.63497 -0.12109,5.82813 -0.12839,2.04575 -0.35664,3.99317 -0.58789,5.32617 -0.0816,0.47009 -0.14554,0.7121 -0.20899,0.97265 -1.12004,1.42885 -1.33769,3.1432 -1.33398,4.35352 0.005,1.61031 0.33058,3.06319 0.81445,4.71094 0.96775,3.2955 2.69042,7.28189 5.13477,12.07226 l 3.23632,6.34375 -3.00195,4.25977 c -2.49747,3.54466 -7.25221,10.10641 -10.48437,14.46679 -3.27158,4.41355 -8.51765,11.54024 -11.67969,15.86719 -3.14826,4.30812 -8.09246,11.05836 -10.98047,14.99024 -6.39377,8.70484 -9.45626,12.71978 -11.11914,15.77734 -0.77283,1.42102 -1.48381,3.20435 -1.01563,5.39648 -1.74269,0.58535 -0.51419,-1.68554 -2.00525,-0.35336 -0.3143,0.28082 -1.04202,-0.75919 -1.9662,-0.58807 -1.05277,-0.75203 -3.59112,-1.75999 -4.49044,-1.92002 -1.39868,-0.2489 -2.68747,-0.21037 -3.98828,-0.0449 -2.60162,0.33089 -13.31115,2.27728 -15.73297,4.95334 0.30434,-0.33628 -1.43758,0.46875 -1.13086,0.46875 -4.81875,0 -11.33724,2.31891 -12.27984,7.15481 -0.10534,0.069 -0.16614,0.12455 -0.36914,0.20117 -1.38967,0.52454 -1.35519,2.20416 -2.4107,3.08672 -1.0555,0.88255 -2.10636,1.7434 -2.74414,3.86132 -0.0864,0.28681 -1.01605,2.57865 -1.6875,3.89063 -2.3253,4.54476 -0.37046,10.74454 2.60406,14.67723 -0.0231,-0.0306 0.5254,1.82204 0.5254,1.31835 0,3.01285 4.42454,8.10937 6.90633,10.16906 -0.74245,-0.61618 1.11004,1.60374 1.60938,2.79883 1.2851,3.0757 3.70602,5.80789 7.14844,6.67188 -0.53041,-0.13313 2.37219,1.35266 3.40039,2.38086 1.99367,1.99368 4.53505,3.66874 7.60937,3.73437 3.07432,0.0656 5.65413,-1.45646 7.79492,-3.33008 0.11477,-0.10044 0.38371,-0.28353 0.51758,-0.35351 0.13387,-0.07 0.41529,0.125 -0.94141,0.125 1.8071,0 2.78281,-0.65199 3.56446,-1.32227 1.46624,0.66588 2.94298,1.06876 4.44336,1.21875 2.37864,0.2378 4.73841,0.40905 7.48242,-1.49218 1.18564,-0.82151 1.1153,-0.98521 1.47656,-1.40235 0.36127,-0.41714 0.75515,-0.90178 1.20508,-1.4707 0.89985,-1.13783 2.01149,-2.60596 3.24023,-4.26953 2.4575,-3.32714 5.36127,-7.41076 7.72852,-10.92578 0.39773,-0.59058 1.60771,-2.43845 3.88761,-5.68693 0.20766,0.0745 0.4439,0.19092 0.66016,0.26758 2.11008,0.74794 8.96851,5.13003 12.31037,12.07238 1.29728,2.69496 3.59494,4.50282 4.05788,5.43095 1.38133,2.76945 2.83252,3.58765 4.95312,4.66406 0.53622,0.27219 2.4541,1.58752 3.05664,2.13282 2.47756,2.24216 5.18638,2.95923 8.35156,2.63867 0.33957,-0.0344 2.49027,0.5566 2.00391,0.27148 1.80176,1.05626 3.86397,1.82481 6.10937,1.77539 1.93089,-0.0425 3.69854,-0.79374 5.23047,-1.75976 1.17584,0.7376 2.64664,1.48079 4.42578,1.57031 1.92731,0.097 3.4304,-0.47032 4.87891,-1.07031 0.6604,-0.27355 1.19557,-0.66559 1.77734,-1.00586 1.53068,1.18076 3.25584,2.19165 5.45508,2.24804 2.53557,0.065 4.53281,-1.05763 6.32227,-2.36328 1.45015,1.22467 3.17192,2.261 5.23437,2.37891 2.53488,0.14492 4.69234,-0.86631 6.58008,-2.14258 0.13127,0.0681 0.12906,0.0509 0.30078,0.15234 1.40879,0.83218 2.94337,1.81012 5.24219,1.81641 2.29882,0.006 3.72651,-0.86277 5.29492,-1.67383 0.51308,-0.26532 0.7087,-0.33573 0.92578,-0.42578 0.16992,0.0851 0.25684,0.11758 0.65625,0.35352 1.4111,0.83355 2.72206,1.74166 4.99219,1.82812 2.27013,0.0865 3.92541,-0.94996 5.13086,-1.73047 0.0933,-0.0604 1.51987,-0.52056 3.00781,-0.34179 1.5175,0.18232 2.98279,0.1685 4.4043,-0.0508 0.90574,-0.13973 1.81946,-0.40944 2.76367,-0.84766 0.70308,0.33175 1.36843,0.51846 2.00977,0.67578 1.19234,0.29247 2.37071,0.42182 3.55468,0.45313 1.18398,0.0313 2.34128,-0.0271 3.5625,-0.28907 0.82358,-0.17666 1.84098,-0.31196 2.89258,-1.11718 0.49208,-0.0289 1.09532,-0.0565 2.05274,-0.0195 2.37761,0.0919 5.81261,0.44026 9.59375,1.03321 1.50279,0.23566 2.94824,0.29473 4.37109,0.13281 1.08059,-0.12297 2.2042,-0.44199 3.38672,-1.10547 2.35713,1.12496 4.99582,1.69248 7.57031,1.16797 2.79489,-0.56941 5.20923,-2.25274 7.04102,-4.42969 0.44444,-0.52818 1.03913,-1.07191 1.43359,-1.36133 0.39446,-0.28941 1.09561,0.0215 -0.91015,0.0215 1.55119,0 2.40299,-0.36915 3.1875,-0.78711 1.21037,2.03624 2.95558,3.68343 5.05468,4.54492 3.62863,1.48923 8.07995,0.91567 11.4961,-1.77148 2.50114,-1.9674 4.32929,-4.88956 4.40039,-8.1211 0.0711,-3.23154 -1.56804,-6.18472 -3.90821,-8.35351 -0.25935,-0.24037 -0.65218,-0.74058 -0.86914,-1.12696 -0.21695,-0.38637 -0.13867,-0.80839 -0.13867,0.0918 0,-3.55427 -1.30416,-5.37056 -3.36328,-7.42969 -2.21883,-2.21883 -4.7239,-3.15542 -7.34375,-3.36132 -1.30992,-0.10296 -2.77321,-0.19333 -4.64062,1.07226 -0.11424,0.0774 -0.21587,0.22891 -0.33008,0.32227 -0.469,-0.0123 -0.97509,-0.11691 -1.36328,0.002 -2.87866,0.88139 -2.97147,2.11163 -3.54493,3.01758 0.76382,-1.20668 0.33262,-0.41602 -0.16796,-0.41602 -1.62674,0 -3.56433,0.3149 -5.22266,1.3711 -1.65833,1.05619 -2.69687,2.51714 -3.52734,3.97656 -0.19309,0.33932 -0.52416,0.71052 -0.6875,0.8457 -0.16335,0.13518 -0.22761,-0.19629 1.0957,-0.20117 -2.59357,0.009 -4.16099,0.82599 -5.75391,2.07617 -2.42118,-1.53078 -4.8456,-2.45009 -8.1875,-1.57617 0.13259,-0.0347 -0.0456,-0.007 -0.0957,-0.0137 -0.0501,-0.007 0.0428,-0.15849 0.76562,0.4414 -1.82056,-1.51095 -3.2044,-1.53484 -4.58984,-1.64257 -1.38544,-0.10774 -2.79512,-0.0135 -4.26172,0.25 -1.51004,0.27134 -5.25263,0.55731 -7.22461,0.51953 -1.55239,-0.0298 -3.05831,0.1011 -4.45898,0.36523 -0.87792,0.16556 -1.70371,0.361 -2.61524,0.75977 -0.7174,-0.34432 -1.40181,-0.54543 -2.05859,-0.70508 -1.21135,-0.29446 -2.40687,-0.41716 -3.60547,-0.43555 -1.1986,-0.0184 -2.37001,0.0587 -3.60547,0.34961 -0.82632,0.19456 -1.83143,0.38685 -2.84961,1.17578 -0.25747,-0.0125 -0.40597,0.004 -0.77929,-0.0664 -1.59096,-0.29847 -3.1827,-0.44837 -4.88282,-0.10938 -1.32646,0.26449 -2.53023,0.92749 -3.57226,1.68164 -1.83085,-1.13155 -3.80694,-1.87682 -5.88477,-1.99414 -1.93252,-0.10911 -4.04693,0.34191 -5.8457,1.59375 -0.25965,-0.0522 -0.53642,-0.0793 -1.5625,-0.41797 -1.89128,-0.62418 -3.30305,-1.19536 -5.47461,-1.03906 -1.73248,0.1247 -3.13534,0.99059 -4.2207,1.82422 -1.78049,-1.18728 -3.40241,-2.0293 -6.19141,-2.0293 -2.60482,0 -4.19102,0.81954 -5.79687,2.07422 -1.83123,-1.13605 -3.80592,-1.87935 -5.88086,-2.00391 -1.87288,-0.11242 -3.92989,0.28374 -5.70508,1.45899 -0.19194,-0.0569 -0.0164,7.7e-4 -0.36719,-0.14453 -1.21563,-0.50351 -2.42245,-0.83569 -3.63086,-1.02539 -1.20841,-0.18971 -2.1731,-0.54258 -4.30469,0.27539 0.67126,-0.25758 -0.0546,-0.0144 -1.02734,-0.57227 -0.9727,-0.55788 -1.97201,-1.62412 -2.3125,-2.34961 -1.16171,-2.47531 -3.88183,-4.14442 -5.58663,-6.19322 -0.90413,-1.08659 -2.20856,-3.6445 -2.04492,-3.12891 -0.88415,-2.78574 -2.89811,-3.15737 -6.06677,-4.2105 1.28257,0.42627 0.74899,0.41957 0.45508,0.0703 -0.29391,-0.34925 -0.67926,-0.94145 -0.89649,-1.41016 -0.662,-1.42839 -1.51388,-2.63412 -2.53711,-3.68359 -1.02323,-1.04948 -2.02628,-2.11964 -4.3789,-2.53516 0.42227,0.0746 -1.07904,-0.58814 -1.41602,-0.79102 0.84556,-1.29585 4.19315,-5.89961 4.71004,-6.75252 1.78833,-2.95089 4.91838,-7.91676 6.85156,-10.86914 2.00232,-3.05797 4.74023,-7.31901 6.1543,-9.58399 1.0047,-1.60926 4.12639,-5.54717 6.23438,-7.73633 4.53203,-4.70654 7.33073,-8.39573 18.16406,-23.91015 l 3.82031,-5.47071 0.69336,0.26563 c 4.46548,1.7102 10.22315,2.09947 16.39844,2.01367 6.17528,-0.0858 12.44524,-0.76118 17.33398,-2.36133 7.42147,-2.42914 14.50762,-5.75607 19.45899,-9.33984 l -0.0566,0.0391 8.34765,6.13672 c 3.41568,2.5112 6.51222,4.61001 9.05469,6.14453 1.27124,0.76726 2.39455,1.39389 3.44141,1.88477 1.04685,0.49087 1.66102,1.02539 3.76367,1.02539 2.23866,0 3.66055,-0.84472 4.92773,-1.69922 1.26719,-0.8545 2.36121,-1.87737 3.35547,-3.01172 1.98853,-2.26869 3.88016,-4.58913 3.9082,-8.50976 0.01,-1.3725 0.17466,-1.7411 0.24024,-1.9961 1.4097,-0.22061 2.92979,-0.70052 4.06836,-1.71289 1.4764,-1.31276 2.19953,-2.79774 2.85937,-4.37695 0.9802,-2.34594 1.5292,-4.82278 1.07617,-7.3711 -0.45302,-2.54831 -2.01341,-4.8209 -3.92382,-6.36718 -0.92904,-0.75196 -1.89723,-1.38392 -3.68555,-2.6211 -1.78832,-1.23717 -4.04072,-2.7776 -6.27344,-4.29492 -2.23272,-1.51732 -4.44223,-3.00949 -6.15039,-4.14844 -0.15759,-0.10507 -0.24591,-0.16096 -0.39453,-0.25976 0.27005,-1.07917 0.5527,-2.20414 0.94336,-3.61914 1.69562,-6.14161 2.24302,-14.05539 2.04101,-21.07813 -0.101,-3.51137 -0.39492,-6.75568 -0.95117,-9.50976 -0.27812,-1.37704 -0.61166,-2.62983 -1.1289,-3.84571 -0.39326,-0.92442 -1.00735,-1.90025 -2.00391,-2.82812 l 1.43359,-1.93945 -6.3164,-9.85352 c -1.2138,-1.893649 -2.30955,-3.66683 -3.09766,-4.996094 0.29467,-0.420936 0.4966,-0.722201 0.875,-1.25 1.50798,-2.103334 3.61751,-4.964322 5.93555,-8.035156 2.3704,-3.140201 4.52111,-6.104556 6.11328,-8.402344 0.79609,-1.148894 1.44973,-2.12171 1.95117,-2.925781 0.25072,-0.402036 0.46044,-0.75207 0.66602,-1.142578 0.10278,-0.195254 0.20485,-0.395249 0.32812,-0.701172 0.12328,-0.305923 0.38086,-0.526777 0.38086,-1.902344 0,-2.323355 -0.72803,-2.788977 -1.17187,-3.447265 -0.44385,-0.658288 -0.90919,-1.210213 -1.43555,-1.791016 -1.05272,-1.161606 -2.34288,-2.387534 -3.75781,-3.628906 -2.82987,-2.482746 -5.81896,-4.884167 -8.77735,-6.294922 -0.6389,-0.30467 -1.15286,-0.621557 -1.52734,-0.867188 -0.0871,-0.171945 -0.11239,-0.338113 -0.22461,-0.509765 -0.72025,-1.101657 -1.99302,-1.924245 -3.05859,-2.214844 -1.06558,-0.290599 -1.89868,-0.294553 -2.59961,-0.171875 z m 5.9414,3.03125 c 0.0969,0.09092 0.12075,0.303397 0.21485,0.490234 -0.0578,-0.162583 -0.13707,-0.32531 -0.21485,-0.490234 z m -0.5625,41.578125 c -0.10067,0.263279 -0.19304,0.336369 -0.24218,0.376953 0.051,-0.08142 0.12724,-0.20366 0.24218,-0.376953 z m -48.32031,4.749955 c -1.33445,1.65916 -2.49438,3.00153 -3.81445,4.75976 -0.69928,0.93138 -1.22515,1.60566 -1.81836,2.37891 -1.30125,-0.89404 -2.74455,-1.89915 -4.28516,-3.01172 -0.7246,-0.52329 -1.27067,-0.94627 -1.96094,-1.45508 1.67259,-0.69668 3.41046,-1.45945 4.91016,-1.86328 1.25395,-0.33766 4.26088,-0.61621 6.96875,-0.80859 z m 30.91797,18.46289 c 0.53246,1.35384 1.50086,5.61088 1.88086,9.83789 0.18413,2.04819 0.22065,4.13016 0.19726,5.96093 -2.28628,-1.8424 -4.95559,-3.67257 -7.50976,-4.99804 -0.68493,-0.35545 -1.18568,-0.72864 -1.75781,-1.10743 0.0471,-0.075 0.0563,-0.10258 0.10547,-0.17968 1.08749,-1.70595 2.67233,-3.94737 4.29687,-6.0918 0.99429,-1.31248 1.86294,-2.30657 2.78711,-3.42187 z m -8.9082,8.46484 c -0.0129,-0.0142 0.0769,-0.013 0.20507,0.17969 -0.0542,-0.0508 -0.19633,-0.17007 -0.20507,-0.17969 z m -55.90625,6.79297 c 3.83989,2.4019 5.25603,3.44271 5.98632,3.98633 -0.25302,0.45009 -0.47089,0.8852 -1.17578,1.97265 -1.00489,1.55028 -2.30555,3.42313 -3.60547,5.16211 l -0.0176,0.0234 c -0.79529,-2.38498 -1.20315,-4.68497 -1.23633,-9.25781 -0.005,-0.71943 0.038,-1.21002 0.0488,-1.88672 z m -24.10547,7.85351 c -0.49018,0.32335 -0.86727,0.6966 -1.19922,1.08594 0.15628,-0.26432 0.47974,-0.61136 1.19922,-1.08594 z m 60.71484,18.1543 c 1.80188,1.44439 3.87197,3.00039 6.28906,4.59961 -2.38087,0.72571 -6.21521,1.54775 -9.81054,1.9668 -0.35875,0.0418 -0.57329,0.0276 -0.92188,0.0625 1.08678,-1.68455 2.63136,-3.97767 4.44336,-6.62891 z m -144.15629,91.17838 c 0.53247,0 -0.34094,0.96194 -0.3418,1.53125 -6.5e-4,1e-5 -0.001,-2e-5 -0.002,0 0.003,-0.87539 0.0513,-1.53125 0.34375,-1.53125 z m 23.7289,10.91681 c 1.30891,-0.0964 3.06128,-0.0393 2.60084,0.65642 -0.97996,1.48075 -4.42672,5.23359 -5.93716,6.81532 -0.018,-10e-4 -0.0479,-0.0139 -0.0664,-0.0156 l -1.47287,-1.42852 c -0.32069,-0.63931 0.93806,-3.31631 1.88783,-4.1384 1.72229,-1.49074 0.89291,-1.73492 2.98776,-1.88922 z m 11.32233,25.49372 c -1.68625,-0.0474 -7.20242,-3.48471 -8.79993,-5.64442 -1.60855,-2.17466 -0.77003,-1.83031 3.20971,-7.6754 l 4.19225,-6.15721 -3.49725,6.69473 c -3.3827,6.47545 -3.43266,6.72929 -1.52545,7.75 2.80809,1.50284 2.69155,1.5762 6.66409,-4.19473 3.5153,-5.10671 3.93744,-3.69215 0.76098,2.54998 -0.78363,1.53999 -1.14633,3.67749 -0.80593,4.75 0.3404,1.07251 0.25109,1.93965 -0.19847,1.92705 z m 41.51334,-83.01152 c -0.25851,0 1.59439,-2.8125 4.11756,-6.25 12.78575,-17.41895 23.23416,-31.42166 34.38261,-46.07874 7.20843,-9.47708 10.20755,-14.23276 10.19755,-16.17126 -0.003,-0.55 -3.825,-3.64848 -8.49383,-6.8855 -4.66884,-3.23703 -8.48879,-6.25491 -8.48879,-6.70641 0,-0.45149 3.35664,1.58738 7.4592,4.53083 9.41882,6.7577 11.90398,8.68282 11.90398,9.33415 0,0.57491 -4.91029,7.09941 -32.37253,43.01466 -10.3799,13.57487 -18.44723,25.21227 -18.70575,25.21227 z m 57.28852,-22.39731 c 0,1.60641 1.52803,0.46798 -0.19466,0.46798 -2.90202,0 -4.46947,-0.6147 -4.46947,-1.50448 0,-2.34075 3.32942,-2.16423 11.21195,-2.73496 4.675,-0.3385 11.81047,-1.49054 15.85661,-2.56011 7.03069,-1.85852 10.49951,-3.74603 9.35903,-1.9007 -0.29171,0.472 -2.20163,1.3308 -4.24425,1.90844 -4.61637,1.30547 -22.87005,3.87233 -26.11266,3.672 -2.85375,-0.17631 -1.40655,-0.0248 -1.40655,2.65182 z m 44.89205,-12.86148 c -6.06899,-3.98267 -15.51899,-10.11664 -21,-13.63106 -11.73326,-7.52336 -10.97173,-6.93722 -10.11984,-7.78912 0.37343,-0.37343 1.91093,0.22723 3.41667,1.33479 1.50573,1.10757 10.6127,7.31061 20.2377,13.78454 9.625,6.47393 17.9275,12.17328 18.45,12.66521 2.20713,2.07802 -0.58322,0.46131 -10.98453,-6.36436 z m 26.53453,2.75879 c -3.35073,3.21021 -3.72974,2.81184 -1.47432,-1.54966 1.37848,-2.66568 4.47432,-4.1446 4.47432,-2.13743 0,0.4471 -1.35,2.10629 -3,3.68709 z M 257.31338,134.79787 c -0.17877,-2.70535 0.12209,-2.01197 1.03903,3.59107 1.76276,10.77145 -0.66613,2.05206 -1.03903,-3.59107 z m 90.93053,12.77396 c -4.26438,-2.18471 -2.24633,-4.51848 -0.86952,-9.1818 0.84939,-2.87692 2.28114,-7.08238 2.28114,-9.53702 0,-4.06507 0.0489,-4.74412 2.2723,-4.74412 1.34254,0 1.81946,0.16886 2.15938,0.71886 0.33992,0.55 -0.2062,1 -1.2136,1 -1.86774,0 -3.2502,4.18892 -4.90027,14.84803 -0.6146,3.97014 -0.42163,4.55365 2.22039,6.71403 3.62843,2.96698 2.70548,2.567 -1.94982,0.18202 z M 316.3473,129.24444 c -0.42553,0 -1.10881,-0.54653 -2.44219,-1.99618 -2.29615,-2.49638 -2.30884,-2.57568 -0.24005,-1.5 1.20134,0.62465 2.61755,1.13572 3.14713,1.13572 0.52958,0 3.28468,-3.0375 6.12246,-6.75 2.83778,-3.7125 8.25546,-10.8 12.03929,-15.75 7.4931,-9.802449 12.60419,-15.870309 11.37135,-13.499999 -0.4291,0.825 -4.92997,5.422038 -9.07815,10.997299 -4.14819,5.57526 -10.37806,14.01276 -13.84415,18.75 -3.4661,4.73724 -6.65016,8.61316 -7.07569,8.61316 z m -52.8665,-21.81581 c -3.3,-2.41266 -9.26151,-6.69844 -13.2478,-9.523969 l -8.28721,-5.724826 -2.31233,2.989098 -2.53829,3.621776 4.64762,3.928071 c 2.37726,2.00921 4.41367,3.1615 4.01725,3.1625 -0.98704,0.004 -9.78238,-6.245939 -9.76658,-6.939799 0.0256,-1.12573 9.13447,-12.34645 9.13447,-11.25109 0,0.62302 -0.42434,1.92565 -0.94299,2.89474 -1.01865,1.90337 4.49487,4.615778 18.54875,15.608429 3.7125,2.90384 7.24711,5.05691 7.24711,5.2817 0,0.67607 -0.27169,0.50693 -6.5,-4.04663 z m 15.11865,-10.174749 c -2.50009,-1.20575 -2.81893,-2.240821 -0.91808,-3.746491 1.66509,-1.31891 11.59029,-4.379165 12.17962,-3.789825 0.25514,0.25514 -1.56546,1.03207 -4.04578,1.72652 -5.95367,1.66693 -8.59347,2.22 -6.21857,4.84424 1.96782,2.17442 2.46891,2.637186 -0.99719,0.965556 z m 35.48306,-8.098143 c -0.6875,-0.10766 -5.975,-0.44516 -11.75,-0.75 -12.60163,-0.66519 -10.15262,-0.914152 3.70904,-0.934652 7.56162,-0.01116 9.25,0.26014 9.25,1.48635 0,0.825 -0.52154,0.305962 -1.20904,0.198302 z m 43.22607,-13.565662 c -0.78904,1.06762 -1.31353,1.70309 -1.35873,1.46047 -0.0452,-0.24262 -0.40111,-1.672539 -0.64591,-3.322539 -0.5136,-3.46173 -6.05602,-8.82393 -8.16652,-8.01406 -1.13085,0.43395 -1.27679,0.111744 -0.39813,-1.37686 0.75163,-1.27338 -0.0309,-2.196572 8.10774,6.444522 2.88516,3.06329 3.76126,3.049867 2.46155,4.808467 z"
         sodipodi:nodetypes="csssscscsscssssscssssssssscssscssccscccsssscscsscccsssccccscssssccsssssscsssssscscsscscscscscssssscssscssscsssccssssscssscccsssscccccsssscsssccscscsscscscsscsssccsssccsssscccsscccsssssccssssssscssssccccssssssssssscsscccccccccscscsccscsccscscsscsccccscccccsccsccsssscccssssscssscssssscssssssssssssssssssssssssssssssssssssssssssssssssssscccsccsssssssssssssssssssssss" /></g></g></svg>
