<?xml version="1.0" encoding="UTF-8" standalone="no"?>
<svg
   version="1.2"
   viewBox="0 0 570 570"
   width="570"
   height="570"
   id="svg1"
   sodipodi:docname="PannaRoleTokenLaser.svg"
   inkscape:version="1.4.2 (2aeb623e1d, 2025-05-12)"
   xml:space="preserve"
   xmlns:inkscape="http://www.inkscape.org/namespaces/inkscape"
   xmlns:sodipodi="http://sodipodi.sourceforge.net/DTD/sodipodi-0.dtd"
   xmlns="http://www.w3.org/2000/svg"
   xmlns:svg="http://www.w3.org/2000/svg"><sodipodi:namedview
     id="namedview1"
     pagecolor="#ffffff"
     bordercolor="#666666"
     borderopacity="1.0"
     inkscape:showpageshadow="2"
     inkscape:pageopacity="0.0"
     inkscape:pagecheckerboard="0"
     inkscape:deskcolor="#d1d1d1"
     inkscape:zoom="1.3164658"
     inkscape:cx="167.87371"
     inkscape:cy="271.56041"
     inkscape:window-width="1920"
     inkscape:window-height="940"
     inkscape:window-x="0"
     inkscape:window-y="0"
     inkscape:window-maximized="1"
     inkscape:current-layer="layer2"
     showgrid="false" /><defs
     id="defs1"><clipPath
       clipPathUnits="userSpaceOnUse"
       id="cp1"><path
         d="m 275.5,535.5 c -143.78,0 -260,-116.22 -260,-260 0,-143.78 116.22,-260 260,-260 143.78,0 260,116.22 260,260 0,143.78 -116.22,260 -260,260 z"
         id="path1" /></clipPath></defs><style
     id="style1">
		tspan { white-space:pre } 
		.s0 { fill: none;stroke: #ff0000;stroke-miterlimit:100 } 
	</style><g
     inkscape:groupmode="layer"
     id="layer1"
     inkscape:label="Template"><path
       id="Path 0 copy"
       class="s0"
       d="m 253.96776,1.9812412 c -4.83809,0.7256238 -12.51049,1.8658898 -17.06826,2.5396834 -4.54737,0.6737937 -14.55576,2.8299332 -22.23856,4.8098491 -7.68279,1.9695513 -20.01678,5.7427953 -27.40888,8.3757733 -7.40247,2.632979 -20.89926,8.551995 -30.00441,13.164891 -9.10514,4.602528 -22.37354,12.263042 -29.48531,17.021062 -7.11177,4.747653 -17.57697,12.48073 -23.26639,17.176553 -5.689435,4.695823 -15.573238,13.828318 -21.968643,20.296736 -6.385022,6.468418 -15.147556,16.191781 -19.456148,21.592491 -4.318975,5.41108 -11.576098,15.42469 -16.133862,22.24555 -4.547382,6.83124 -12.178261,20.3382 -16.95405,30.00974 -5.533687,11.2368 -10.714379,23.75899 -14.316985,34.66408 -3.114645,9.39165 -6.8418376,22.43215 -8.2953386,28.97313 -1.453501,6.54097 -3.5922235,19.22903 -4.7446423,28.19566 -1.3912082,10.80144 -2.09719388,22.31812 -2.10757603,34.1458 0,12.12828 0.67483933,22.9919 2.10757603,33.88662 1.162801,8.82153 3.3222877,21.39554 4.7861709,27.93654 1.4638831,6.55133 4.44356,17.48752 6.623812,24.31875 2.180251,6.83123 6.104705,17.53937 8.721006,23.80046 2.616301,6.2611 7.57897,16.73082 11.015462,23.28217 3.446873,6.54098 9.676163,17.02106 13.86017,23.28215 4.173624,6.2611 11.119282,15.79787 15.427874,21.20896 4.308592,5.40071 13.071127,15.12406 19.466531,21.60285 6.385023,6.47879 16.279208,15.58018 21.968643,20.23455 5.68942,4.64399 13.36182,10.563 17.06825,13.15452 3.69605,2.59151 11.60724,7.66051 17.57698,11.25753 5.98013,3.6074 16.92291,9.43312 24.315,12.96793 7.39209,3.52447 18.80207,8.31359 25.34283,10.63558 6.54075,2.322 18.17914,5.82573 25.86193,7.7849 7.6828,1.94883 22.34238,4.7684 32.58957,6.24037 14.74265,2.1354 22.60194,2.69517 37.7495,2.69517 15.15794,0 23.01723,-0.55977 37.75988,-2.69517 10.24718,-1.47197 24.90677,-4.29154 32.58957,-6.24037 7.68278,-1.95917 19.31079,-5.4629 25.86193,-7.7849 6.54076,-2.32199 17.94035,-7.11111 25.34283,-10.63558 7.39208,-3.53481 18.33487,-9.36053 24.30461,-12.96793 5.98012,-3.59702 13.89132,-8.66602 17.58736,-11.25753 3.69605,-2.59152 11.37883,-8.51053 17.06826,-13.1649 5.68942,-4.65435 15.57322,-13.76612 21.95824,-20.23454 6.39541,-6.46842 15.14756,-16.19177 19.46654,-21.59248 4.30859,-5.41109 11.42035,-15.18628 15.79125,-21.72725 4.37088,-6.55136 11.24387,-18.42049 15.27214,-26.39199 4.02828,-7.96113 9.22972,-19.37415 11.5657,-25.345 2.336,-5.98121 5.92822,-16.45093 7.99426,-23.28216 2.06605,-6.83123 4.88999,-18.23389 6.27083,-25.35538 1.39121,-7.1111 3.22885,-18.75218 4.08018,-25.86329 0.86172,-7.11113 1.5677,-20.84614 1.5677,-30.52804 0,-9.81665 -0.70598,-23.07484 -1.59885,-30.00973 -0.8721,-6.82087 -2.30483,-16.368 -3.16655,-21.20894 -0.86172,-4.83059 -2.907,-13.91125 -4.54739,-20.17235 -1.64037,-6.2611 -4.91075,-16.96923 -7.27788,-23.80045 -2.35675,-6.83125 -8.17076,-20.33822 -12.9154,-30.00974 -4.74463,-9.67154 -12.35476,-23.1785 -16.90213,-30.00974 -4.55776,-6.82086 -11.81489,-16.83447 -16.13386,-22.24555 C 502.62025,101.55757 493.85772,91.844574 487.47269,85.386521 481.08767,78.918102 471.20387,69.816706 465.51445,65.151982 459.82502,60.487257 452.14224,54.557873 448.44619,51.96636 444.75015,49.374846 436.83895,44.31621 430.85883,40.708823 424.88909,37.101437 413.9463,31.275712 406.55422,27.751254 399.15174,24.226796 387.75215,19.448044 381.21139,17.136415 374.66025,14.814417 363.95626,11.528378 357.4155,9.8179792 350.87475,8.1075792 341.33354,5.9929045 336.20478,5.1325219 331.08637,4.2617733 321.77358,2.8416237 315.52353,1.970875 308.01724,0.92390344 297.0952,0.4366989 283.45307,0.52999334 272.07423,0.60255536 258.80584,1.2556173 253.96776,1.9812412 Z"
       style="stroke-width:1.03741;stroke:#000000;stroke-opacity:1"
       inkscape:label="vnejsi kruh" /><path
       id="Path 0"
       class="s0"
       d="m 265.85013,27.483209 c -2.18288,0.208543 -7.78893,0.873904 -12.44244,1.459816 -4.66343,0.595844 -10.93427,1.539263 -13.95061,2.105316 -3.00642,0.556121 -11.52961,2.512475 -18.92164,4.359591 -7.39203,1.837184 -19.05063,5.451972 -25.89695,8.02403 -6.84631,2.57206 -17.3837,7.150127 -23.40647,10.159138 -6.0327,3.018944 -15.43895,8.192855 -20.916,11.499788 -5.47708,3.306933 -13.55374,8.70925 -17.92944,12.016186 -4.3856,3.306932 -11.77765,9.245508 -16.44107,13.188011 -4.65352,3.942499 -11.62883,10.476915 -15.49848,14.508775 -3.869674,4.04181 -10.37864,11.38062 -14.466589,16.3162 -4.087947,4.93557 -11.023564,14.35985 -15.419103,20.93398 -4.395538,6.58408 -10.735823,17.34899 -14.089528,23.93306 -3.353706,6.57416 -8.11636,16.89217 -10.596914,22.93007 -2.480545,6.02794 -6.121992,16.57439 -8.096512,23.42659 -1.974519,6.8522 -4.663441,18.29241 -5.983092,25.42266 -1.309727,7.12034 -2.847671,18.34207 -3.423155,24.91621 -0.575495,6.58408 -1.051758,16.67371 -1.051758,22.43353 0,5.75981 0.476263,15.84945 1.051758,22.43353 0.575484,6.57413 2.113428,17.78593 3.423155,24.9162 1.319651,7.13027 3.939113,18.34205 5.824335,24.92612 1.895135,6.57415 5.308376,16.67372 7.590486,22.43353 2.2821,5.7499 7.163825,16.29634 10.84497,23.42659 3.67121,7.12033 10.239712,18.34207 14.575715,24.91621 4.336003,6.58408 12.214231,17.12058 17.512683,23.4266 5.288538,6.30602 13.375129,15.05499 17.969109,19.44437 4.58407,4.38938 12.15471,11.04297 16.8082,14.78686 4.65353,3.73396 13.39498,10.09956 19.42768,14.14137 6.02278,4.03186 17.00667,10.48684 24.3987,14.33997 7.39205,3.84318 19.49714,9.28524 26.88918,12.0857 7.40195,2.80046 19.50706,6.62379 26.89909,8.49077 7.39203,1.86697 19.49713,4.38939 26.88918,5.60094 11.27161,1.83718 17.40353,2.19469 37.85319,2.19469 20.44967,0 26.58159,-0.35751 37.85321,-2.19469 7.39205,-1.21155 19.49713,-3.73397 26.88916,-5.60094 7.39204,-1.86698 19.49714,-5.69031 26.8991,-8.49077 7.39204,-2.80046 19.26892,-8.12334 26.39306,-11.81756 7.12415,-3.70418 18.09812,-10.15915 24.3987,-14.33999 6.3006,-4.18084 15.27028,-10.63581 19.92379,-14.33997 4.65352,-3.70417 13.6331,-11.92681 19.95354,-18.27255 6.32045,-6.34574 14.53603,-15.35292 18.26677,-20.01042 3.73076,-4.66745 10.34887,-13.86331 14.71463,-20.43745 4.36577,-6.58407 11.47009,-19.14645 15.78624,-27.91529 4.30622,-8.76883 9.48563,-20.43745 11.4899,-25.91921 2.01421,-5.48175 5.14963,-15.79979 6.96539,-22.93006 1.81576,-7.13026 4.33601,-19.46424 5.5862,-27.40881 1.90506,-12.0559 2.28212,-18.352 2.28212,-37.88574 0,-19.30534 -0.38698,-25.88942 -2.20273,-37.3892 -1.21051,-7.67646 -3.72083,-20.01044 -5.58621,-27.40883 -1.85545,-7.40833 -5.01072,-17.94482 -7.015,-23.42659 -2.00427,-5.48177 -7.29282,-17.37878 -11.74788,-26.42567 -4.45507,-9.04691 -11.57922,-21.59935 -15.816,-27.90537 -4.23677,-6.306 -10.76558,-15.26354 -14.50626,-19.90119 -3.74068,-4.63763 -10.37863,-12.21479 -14.76424,-16.8425 -4.38562,-4.62771 -11.77765,-11.628879 -16.43117,-15.551517 -4.66342,-3.932571 -12.05548,-9.851287 -16.44108,-13.158219 -4.37569,-3.306936 -12.45237,-8.709253 -17.92943,-12.016186 -5.47706,-3.306933 -14.88331,-8.480844 -20.916,-11.499788 -6.02278,-3.009011 -16.56016,-7.587078 -23.40649,-10.159138 -6.8463,-2.572058 -18.50491,-6.196777 -25.89695,-8.043892 -7.39203,-1.847117 -16.13349,-3.8134 -19.41774,-4.379453 -3.29417,-0.566051 -8.89029,-1.519402 -12.45236,-2.105315 -3.56207,-0.595842 -15.88545,-1.241341 -27.39521,-1.439955 -11.49984,-0.198616 -22.71193,-0.188684 -24.90474,0.01985 z"
       style="stroke-width:0.992647;stroke:#000000;stroke-opacity:1"
       inkscape:label="vnitrni kruh" /><g
       inkscape:groupmode="layer"
       id="layer3"
       inkscape:label="Positions"
       style="display:none"><rect
         style="display:inline;fill:#ff2121;fill-opacity:0.107692;stroke:#000000;stroke-width:1.05245;stroke-opacity:1"
         id="rect1"
         width="300"
         height="300"
         x="135"
         y="80.172386" /><rect
         style="display:inline;fill:#de0000;fill-opacity:0.0923077;stroke:#000000;stroke-width:1.00157;stroke-opacity:1"
         id="rect2"
         width="300"
         height="83.006134"
         x="135"
         y="401.53375" /></g><text
       xml:space="preserve"
       style="font-size:109.103px;font-family:'Didact Gothic';-inkscape-font-specification:'Didact Gothic';text-align:start;letter-spacing:2.02104px;writing-mode:lr-tb;direction:ltr;text-anchor:start;display:none;fill:#de0000;fill-opacity:0.0923077;stroke:#000000;stroke-width:7.03727;stroke-dasharray:none;stroke-opacity:1"
       x="113.22261"
       y="437.29196"
       id="text2"
       inkscape:label="Text"><tspan
         sodipodi:role="line"
         id="tspan2"
         x="113.22261"
         y="437.29196"
         style="font-style:normal;font-variant:normal;font-weight:normal;font-stretch:normal;font-family:'New Rocker';-inkscape-font-specification:'New Rocker';letter-spacing:2.02104px;fill:#000000;fill-opacity:1;stroke:#000000;stroke-width:7.03727;stroke-dasharray:none;stroke-opacity:1">Vědma</tspan></text><path
       id="path7"
       style="display:none;stroke-width:8.05907"
       d="m 276.32799,515.95806 h 15.42748 v 4.53544 h -15.42748 z"
       inkscape:label="spojovnik pismen" /></g><g
     inkscape:groupmode="layer"
     id="layer2"
     inkscape:label="Content"
     style="display:inline"><g
       id="text7"
       inkscape:label="Text"
       style="opacity:1;fill:none;stroke:#000000;stroke-opacity:1"><path
         id="path9"
         style="font-size:109.103px;font-family:'New Rocker';-inkscape-font-specification:'New Rocker';letter-spacing:2.02104px;baseline-shift:baseline;white-space:pre;display:inline;overflow:visible;vector-effect:none;enable-background:accumulate;stop-color:#000000;stop-opacity:1;fill:none;stroke:#000000;stroke-opacity:1"
         d="m 183.76024,349.58044 -2.11328,1.23828 c -4.04494,2.37117 -7.55905,3.95278 -10.43359,4.7832 l -0.0117,0.004 -0.01,0.002 c -2.87387,0.8491 -5.83749,1.27539 -8.93164,1.27539 -1.75578,0 -3.59374,-0.10268 -5.51562,-0.30859 -1.98071,-0.21222 -4.1913,-0.49728 -6.62696,-0.85547 l -4.45312,-0.6543 0.43945,4.48047 c 0.41314,4.21403 1.70275,7.87779 4.15039,10.61914 1.61105,1.80437 3.59878,3.10745 5.73047,4.14258 0.006,0.27419 0.0293,0.5481 0.0293,0.82227 v 0.12695 l 0.01,0.125 c 0.0668,0.93515 0.0996,1.87016 0.0996,2.80469 0,3.55668 -0.34106,7.11299 -1.02734,10.68164 l -0.006,0.0254 -0.004,0.0273 c -0.57094,3.23534 -1.7485,6.11085 -3.57617,8.75781 l -1.62695,2.35743 1.97656,2.07226 c 0.93034,0.97464 1.91727,2.80191 2.62305,5.625 l 0.01,0.0352 0.01,0.0371 c 0.78202,2.86742 1.18555,6.00592 1.18555,9.43945 0,3.00839 -0.33383,5.93085 -0.99805,8.79102 -0.64715,2.71515 -1.58548,4.87853 -2.74414,6.55859 l -2.2793,3.30273 3.57422,1.82813 c 2.97745,1.5218 5.76343,3.47438 8.37891,5.88867 l 0.0176,0.0156 0.0156,0.0137 c 2.58791,2.32912 4.30297,4.72553 5.31055,7.21484 l 2.78515,6.87891 3.5625,-6.50782 c 1.61174,-2.94317 3.24619,-5.54432 4.88867,-7.80273 1.4461,-1.98838 3.56538,-3.9849 6.43164,-5.91797 l 4.47852,-3.02148 -4.57422,-2.875 c -1.86667,-1.17334 -3.3489,-2.94171 -4.50781,-5.67383 -1.12619,-2.82906 -1.70117,-5.8782 -1.70117,-9.24023 v -0.83204 c 3.09343,0.0808 6.22414,0.15501 8.9375,0.3086 h 0.002 0.002 c 3.65386,0.20299 6.8113,0.81025 9.48633,1.76562 l 2.44141,0.8711 1.55664,-2.07422 c 1.02196,-1.36261 2.03193,-2.57103 3.02148,-3.62696 1.00933,-1.07241 2.06743,-2.00096 3.17578,-2.80468 1.1508,-0.78326 2.48187,-1.50351 4.01563,-2.14258 l 0.0566,-0.0234 0.0566,-0.0254 c 1.53761,-0.70474 3.40714,-1.3786 5.5957,-1.99414 l 4.09766,-1.15234 -1.9043,-3.80664 c -0.88641,-1.77284 -1.5533,-3.40174 -2.01562,-4.86524 h 7.70703 c 0.0136,0.0292 0.0273,0.0589 0.041,0.0879 l 0.0312,0.0684 0.0352,0.0645 c 0.86718,1.64764 1.87891,3.07553 3.13672,4.22852 l 0.0606,0.0566 0.0644,0.0527 c 1.21255,1.01047 2.61341,1.77626 4.12109,2.20704 l 0.13868,0.0391 0.13867,0.0293 c 1.34169,0.26833 2.73816,0.39453 4.18164,0.39453 2.23434,0 4.69607,-0.43554 7.57226,-1.21289 1.14649,-0.30986 2.1984,-0.79298 3.31055,-1.16602 v 3.4668 c -0.55245,0.21468 -0.92409,0.42111 -1.62305,0.63476 -1.47191,0.39923 -3.13209,0.77505 -4.99023,1.11914 -1.84666,0.34198 -3.8137,0.61533 -5.89258,0.82422 -2.00629,0.13675 -3.97704,0.20703 -5.90625,0.20703 -1.75579,0 -3.34344,-0.10179 -4.75977,-0.29492 l -6.05664,-0.82617 2.32618,5.65234 c 0.37306,0.90601 0.67427,2.03325 0.85937,3.39063 l 0.002,0.0117 v 0.0117 c 0.19167,1.34167 0.29297,2.81112 0.29297,4.41015 0,2.85077 -0.0723,5.70175 -0.21484,8.55274 -0.13242,2.57473 -0.5345,4.59244 -1.07813,6.00586 l -1.80664,4.69336 5.0293,0.0879 c 3.99178,0.0688 7.45963,0.5167 10.39258,1.29882 l 0.008,0.002 0.01,0.004 c 3.04352,0.79397 5.77268,1.93622 8.23047,3.42383 l 2.59179,1.56836 6.27539,-7.54883 c 0.23032,0.33647 0.35294,0.69167 0.59961,1.02539 1.44531,1.95542 3.12065,3.60452 5.02344,4.87305 l 3.31641,2.21094 1.7832,-3.56641 c 0.29653,-0.59306 0.84248,-1.46641 1.63086,-2.51758 0.76727,-1.02302 1.63869,-2.02346 2.61914,-3.0039 1.0081,-1.0081 2.00504,-1.90404 2.98437,-2.6875 l 0.01,-0.008 0.01,-0.008 c 0.9453,-0.76805 1.72977,-1.19925 2.23828,-1.38086 l 2.33593,-0.83398 v -6.48047 l -2.72851,-0.62891 c -0.52458,-0.12105 -0.82064,-0.26966 -1.05664,-0.40625 -5e-4,-0.009 -0.12308,-0.16241 -0.29297,-0.68164 -0.0725,-0.24879 -0.14513,-0.53838 -0.2168,-0.86523 h 8.87891 v 6.25391 c 0,1.70148 -0.28724,2.79908 -0.50195,3.22851 l -0.0215,0.041 -0.0195,0.0449 c -0.15417,0.33035 -0.23195,0.42311 -0.25391,0.43945 l -0.002,0.002 h -0.002 v -0.002 -0.002 l 0.002,-0.002 c 0.002,-0.002 0.006,-0.007 0.01,-0.01 l -2.15625,0.89844 v 7.5 h 27.11132 v -7.60352 l -2.22461,-0.82422 v -0.002 c -0.0312,-0.0605 -0.098,-0.19815 -0.20312,-0.48242 -0.26248,-0.70967 -0.51758,-2.1672 -0.51758,-4.20703 v -21.17579 l 7.80078,-3.48828 v 9.20118 0.0312 c 0.0724,4.12534 0.10938,8.25161 0.10938,12.37695 0,0.58684 -0.0648,1.869 -0.20703,3.64648 -0.14297,1.787 -0.32335,3.76208 -0.53907,5.91992 -0.20996,2.02972 -0.48951,4.05989 -0.83984,6.0918 l -0.002,0.01 -0.002,0.01 c -0.34699,2.082 -0.72502,3.77292 -1.09961,5.02149 l -0.60351,2.01367 4.7168,4.7168 2.48437,-2.66407 c 0.93085,-0.99734 2.01616,-2.05038 3.25586,-3.15234 1.22318,-1.08727 2.52005,-2.14346 3.88672,-3.16992 1.43041,-1.02051 2.817,-1.93372 4.1582,-2.74024 1.35884,-0.77518 2.65313,-1.37185 3.87305,-1.79882 l 2.88867,-1.01172 -0.60156,-3 c -0.13907,-0.69537 -0.27785,-1.42958 -0.41797,-2.19922 -0.11328,-0.68455 -0.21378,-1.6566 -0.28125,-2.8711 -0.0695,-1.25009 -0.142,-2.88751 -0.21289,-4.85937 v -2.18164 h 9.38477 v 6.25391 c 0,1.70148 -0.28724,2.79908 -0.50196,3.22851 l -0.0215,0.041 -0.0195,0.0449 c -0.16188,0.34688 -0.23846,0.4317 -0.25586,0.4414 h -0.002 -0.002 v -0.002 -0.002 h 0.002 l 0.002,-0.002 c 6.6e-4,-8.1e-4 0.003,-0.005 0.004,-0.006 0.001,-9e-4 0.003,-0.003 0.004,-0.004 l -2.1543,0.89844 v 7.5 h 27.11133 v -7.60352 l -2.22656,-0.82617 c -0.0312,-0.0605 -0.096,-0.19815 -0.20117,-0.48242 -0.26248,-0.70967 -0.51758,-2.1672 -0.51758,-4.20703 v -21.17579 l 7.80078,-3.48828 v 9.20118 0.0312 c 0.0724,4.12534 0.10937,8.25161 0.10937,12.37695 0,0.58684 -0.0648,1.869 -0.20703,3.64648 -0.14295,1.787 -0.32335,3.76209 -0.53906,5.91992 -0.20997,2.02972 -0.48951,4.05989 -0.83984,6.0918 l -0.002,0.01 -0.002,0.01 c -0.347,2.082 -0.72504,3.77292 -1.09961,5.02149 l -0.60351,2.01367 4.71679,4.7168 2.48438,-2.66407 c 0.93085,-0.99734 2.01615,-2.05038 3.25586,-3.15234 1.22318,-1.08727 2.52004,-2.14346 3.88672,-3.16992 1.43041,-1.02051 2.81699,-1.93372 4.1582,-2.74024 1.35883,-0.77518 2.65312,-1.37185 3.87305,-1.79882 l 2.88867,-1.01172 -0.60156,-3 c -0.13908,-0.69537 -0.27786,-1.42958 -0.41797,-2.19922 -0.11328,-0.68457 -0.21378,-1.65659 -0.28125,-2.8711 -0.0701,-1.26164 -0.14135,-2.90759 -0.21289,-4.90429 v -2.13672 h 6.95703 c -0.0328,1.80783 -0.0951,3.61593 -0.18555,5.42383 -0.13242,2.57473 -0.53646,4.59244 -1.08008,6.00586 l -1.80469,4.69336 5.02735,0.0879 c 3.99178,0.0688 7.45963,0.5167 10.39258,1.29882 l 0.01,0.002 0.008,0.004 c 3.04353,0.79397 5.77464,1.93622 8.23243,3.42383 l 2.58984,1.56836 6.27539,-7.54883 c 0.23032,0.33647 0.35294,0.69167 0.59961,1.02539 1.4453,1.95541 3.12066,3.60452 5.02344,4.87305 l 3.3164,2.21094 1.78321,-3.56641 c 0.29654,-0.59308 0.84443,-1.46641 1.63281,-2.51758 0.76726,-1.02301 1.63674,-2.02346 2.61719,-3.0039 1.00808,-1.0081 2.00504,-1.90404 2.98437,-2.6875 l 0.01,-0.008 0.0117,-0.008 c 0.9453,-0.76805 1.72978,-1.19925 2.23828,-1.38086 l 2.33594,-0.83398 v -6.48047 l -2.72852,-0.62891 c -0.52606,-0.12139 -0.82255,-0.2713 -1.05859,-0.4082 h -0.002 v -0.002 c 0.002,-0.008 -0.11593,-0.16076 -0.28515,-0.66992 -0.26491,-0.90685 -0.53417,-2.35367 -0.73633,-4.2129 -0.1338,-1.97194 -0.20899,-4.67062 -0.20899,-8.08007 0,-5.22447 0.15162,-9.16335 0.41602,-11.69532 0.31474,-2.3458 0.94399,-4.00018 1.68164,-5.06054 l 3.8457,-5.5293 h -6.73437 c -3.29355,0 -5.90563,-0.5508 -7.9375,-1.5 -2.08039,-1.07965 -4.21857,-2.74677 -6.37891,-5.10351 l -1.92383,-2.09571 -2.45117,1.4375 c -1.65533,0.97037 -4.33067,1.99917 -7.91211,2.89453 -3.41153,0.85289 -7.65061,1.3125 -12.67578,1.3125 h -1.18359 c -0.52566,-0.11024 -0.92828,-0.10742 -1.32617,-0.10742 h -4.4336 l 1.00781,4.31641 c 0.54763,2.34695 1.18194,4.34222 1.99219,6.05273 l 0.0312,0.0684 0.0352,0.0645 c 0.86718,1.64764 1.87891,3.07553 3.13672,4.22852 l 0.0605,0.0566 0.0645,0.0527 c 1.21255,1.01047 2.61536,1.77626 4.12304,2.20704 l 0.13672,0.0391 0.13867,0.0293 c 1.34169,0.26833 2.73817,0.39453 4.18165,0.39453 2.23435,0 4.69802,-0.43554 7.57421,-1.21289 1.14592,-0.30971 2.19699,-0.79125 3.3086,-1.16407 v 3.46485 c -0.55245,0.21468 -0.9241,0.42111 -1.62305,0.63476 -1.47192,0.39923 -3.13209,0.77505 -4.99023,1.11914 -1.84666,0.34198 -3.8137,0.61533 -5.89258,0.82422 -2.00628,0.13675 -3.97509,0.20703 -5.9043,0.20703 -1.75579,0 -3.34541,-0.10179 -4.76172,-0.29492 l -6.05664,-0.82617 2.32813,5.65234 c 0.37306,0.90601 0.67232,2.03325 0.85742,3.39063 l 0.002,0.0117 0.002,0.01 c 0.1341,0.93868 0.22236,1.94091 0.26368,3.00586 h -6.95703 v -1.21093 c 0,-3.75969 0.0361,-6.89657 0.10742,-9.39258 0.0716,-2.50501 0.14388,-4.60205 0.21484,-6.31446 0.13636,-1.62547 0.27236,-2.93302 0.40039,-3.9082 0.19644,-1.03469 0.41746,-1.99822 0.66797,-2.875 l 0.81836,-2.86328 -2.6875,-1.28125 c -1.45483,-0.69278 -2.71468,-1.34167 -3.7832,-1.94141 -1.07724,-0.67452 -2.1212,-1.34927 -3.13086,-2.02148 -0.91228,-0.65289 -1.83309,-1.37689 -2.76172,-2.17188 -0.99167,-0.92121 -2.07974,-1.93947 -3.28125,-3.07031 l -2.55469,-2.40234 -2.41211,2.54492 c -2.53486,2.67569 -4.97985,4.97686 -7.32031,6.9043 -0.77062,0.63462 -1.80122,1.28471 -2.64453,1.92382 v -3.12695 l -3.80664,-6.34375 -2.5293,0.63086 c -2.26759,0.5669 -4.87523,1.17518 -7.80273,1.81836 -2.92529,0.5705 -5.627,1.03181 -8.09766,1.38477 l -3.02148,0.43164 v 6.56445 l 4.03711,1.74609 v 24.97461 h -9.38477 v -1.21093 c 0,-3.75969 0.0361,-6.89657 0.10742,-9.39258 0.0716,-2.50501 0.1439,-4.60205 0.21485,-6.31446 0.13636,-1.62548 0.27236,-2.93301 0.40039,-3.9082 0.19642,-1.03468 0.41745,-1.99823 0.66796,-2.875 l 0.81836,-2.86328 -2.6875,-1.28125 c -1.45483,-0.69278 -2.71469,-1.34168 -3.7832,-1.94141 -1.07724,-0.67452 -2.12118,-1.34927 -3.13086,-2.02148 -0.91227,-0.65289 -1.83308,-1.37689 -2.76172,-2.17188 -0.99167,-0.92121 -2.07974,-1.93947 -3.28125,-3.07031 l -2.55468,-2.40234 -2.41211,2.54492 c -2.53487,2.67569 -4.97986,4.97686 -7.32032,6.9043 -0.77062,0.63462 -1.80122,1.28471 -2.64453,1.92382 v -3.12695 l -3.80664,-6.34375 -2.5293,0.63086 c -2.26758,0.5669 -4.87523,1.17518 -7.80273,1.81836 -2.92528,0.5705 -5.62699,1.03181 -8.09766,1.38477 l -3.02148,0.43164 v 4.11523 h -6.35742 c -3.29356,0 -5.90564,-0.5508 -7.9375,-1.5 -2.08041,-1.07965 -4.22051,-2.74676 -6.38086,-5.10351 l -1.91992,-2.09571 -2.45313,1.4375 c -1.65533,0.97037 -4.3287,1.99917 -7.91016,2.89453 -3.41152,0.85289 -7.65061,1.3125 -12.67578,1.3125 h -1.18359 c -0.52565,-0.11024 -0.92828,-0.10742 -1.32617,-0.10742 h -4.4336 l 1.00782,4.31641 c 0.11477,0.4919 0.2342,0.96806 0.35742,1.42969 h -7.02344 c -0.12552,-1.22187 -0.19336,-2.58553 -0.19336,-4.08399 0,-2.01339 0.0702,-4.10439 0.20899,-6.27148 0.16972,-1.74309 0.41756,-3.52721 0.67773,-5.32032 0.83268,-0.62701 1.69584,-1.2056 2.44727,-1.95703 1.14986,-1.14987 2.15606,-2.36756 3.01562,-3.64844 0.8675,-1.18966 1.63895,-2.39481 2.29297,-3.62109 0.60671,-1.13758 1.10874,-2.14195 1.51562,-3.03711 l 2.65821,-5.84765 -6.35938,0.9082 c -0.94862,0.13552 -1.85379,0.23635 -2.71679,0.30273 -0.84926,0.0653 -1.74126,0.0996 -2.67578,0.0996 -2.94949,0 -6.11064,-0.30375 -9.47657,-0.91992 -3.46057,-0.70719 -6.73562,-1.51635 -9.82031,-2.42773 -3.09435,-0.91424 -5.76736,-1.85496 -8.00781,-2.80469 -2.19104,-0.96096 -3.65659,-1.83888 -3.85352,-2 z m -5.61523,23.81836 c 0.29026,0.0934 0.61065,0.17425 0.89648,0.26953 l 0.0801,0.0273 0.084,0.0215 c 1.77649,0.49741 3.55418,1.0307 5.33203,1.59961 l 0.0781,0.0254 0.0781,0.0215 c 1.91299,0.51504 3.89741,1.02904 5.95313,1.54297 1.23101,0.30775 2.60946,0.5714 3.93359,0.85156 0.0199,1.00569 0.0566,1.86852 0.0566,3.04492 v 0.0586 l 0.002,0.0586 c 0.0727,2.18206 0.14601,4.36481 0.21875,6.54688 0.0716,2.14823 0.10742,4.14618 0.10742,5.99218 v 0.0684 l 0.002,0.0664 c 0.0452,1.17432 0.0926,1.89445 0.13867,2.75195 -0.25309,0.24404 -0.54584,0.41817 -0.79101,0.6875 -0.11518,0.11672 -0.16933,0.27893 -0.2793,0.40039 -0.16698,-0.0452 -0.28926,-0.13616 -0.46289,-0.17968 -1.2973,-0.34369 -2.71584,-0.57963 -4.27344,-0.73829 -1.53894,-0.22707 -3.13552,-0.38019 -4.79297,-0.45703 -1.65458,-0.1473 -3.25279,-0.22656 -4.78906,-0.22656 -0.53129,0 -1.03292,0.0413 -1.54883,0.0625 -0.0223,-1.50504 -0.0605,-3.02588 -0.0605,-4.50781 v -8.72852 -6.87304 c 0,-0.78263 0.0288,-1.59534 0.0371,-2.38672 z m 96.0332,16.31836 v 1.9082 l 4.03711,1.74609 v 24.97461 h -9.46484 c -0.0896,-1.82174 -0.13868,-4.11955 -0.13868,-6.88476 0,-5.22011 0.15008,-9.15333 0.41407,-11.68555 0.31423,-2.35183 0.94476,-4.00824 1.68359,-5.07031 z m -26.67773,28.61523 v 6.39648 c -0.8929,-0.11775 -1.95834,-0.38416 -2.76563,-0.41796 h -0.006 c -0.50278,-0.0219 -0.9773,-0.069 -1.47266,-0.0977 l 0.0957,-4.83594 c 0.82212,-0.16817 1.52288,-0.23502 2.43945,-0.47265 l 0.0586,-0.0156 0.0586,-0.0176 c 0.51471,-0.1525 1.0692,-0.37277 1.5918,-0.53906 z m 172.11718,0 v 6.39648 c -0.89291,-0.11775 -1.95834,-0.38416 -2.76562,-0.41796 h -0.006 c -0.50279,-0.0219 -0.9773,-0.069 -1.47266,-0.0977 l 0.0957,-4.83594 c 0.82214,-0.16817 1.52288,-0.23502 2.43946,-0.47265 l 0.0586,-0.0156 0.0586,-0.0176 c 0.51471,-0.1525 1.0692,-0.37277 1.59179,-0.53906 z" /></g><g
       id="path1-6"
       style="opacity:1"
       transform="matrix(1.1060091,0,0,1.1060091,-25.580659,-6.763405)"><path
         style="baseline-shift:baseline;display:inline;overflow:visible;vector-effect:none;fill:none;stroke:#000000;stroke-opacity:1;enable-background:accumulate;stop-color:#000000;stop-opacity:1"
         d="m 292.11719,71.470703 c -3.47977,0.04583 -8.96341,1.102771 -14.50977,2.435547 -5.54636,1.332776 -10.74885,2.81698 -13.72851,4.363281 -0.65634,0.34061 -5.50407,2.747076 -10.44922,5.181641 -19.02187,9.36475 -38.78931,24.053378 -57.93164,42.955078 -8.02589,7.92499 -14.26339,14.32881 -18.79493,19.30664 -4.53153,4.97783 -7.31671,8.36238 -8.68945,11.01953 -0.64646,1.25133 -3.10966,4.82367 -5.04883,7.14649 -7.04704,8.44126 -16.6939,25.93999 -21.01953,37.93164 -1.94306,5.38663 -3.06286,8.49285 -3.03125,11.50586 0.0158,1.5065 0.4435,2.98268 1.16797,4.1914 0.72447,1.20873 1.64781,2.16678 2.70899,3.19531 0.25518,0.24734 0.40814,0.43543 0.64648,0.67774 -1.28876,0.22751 -2.50483,0.57079 -3.56055,1.07422 -1.12693,0.53739 -2.27796,0.96264 -2.98633,2.80859 -0.62314,1.62387 -0.50429,3.12335 -0.25585,4.81445 0.24844,1.69111 0.7359,3.54579 1.40429,5.50977 1.33678,3.92796 3.39567,8.26698 5.875,12.02344 3.38717,5.13194 8.72057,11.25014 14.08008,16.57226 5.35951,5.32213 10.44686,9.74681 14.45508,11.61328 13.52844,6.2997 33.88499,1.18013 59.53906,-13.02148 l 2.04492,-1.13281 1.48438,1.6914 c 4.8463,5.51963 14.18443,12.29183 24.98047,18.88477 10.79603,6.59294 22.95167,12.85696 33.17578,16.7207 16.70308,6.31217 37.06059,11.48242 46.96289,11.48242 1.07501,0 2.0616,0.11114 2.5918,0.22852 0.005,10e-4 4.6e-4,7.2e-4 0.006,0.002 0.11994,0.12565 0.24612,0.31156 0.34766,0.39063 0.4492,0.34979 0.78616,0.48076 1.10547,0.59961 0.63861,0.23769 1.22888,0.35267 1.91992,0.45898 1.38208,0.21263 3.10188,0.32031 5.04492,0.32031 1.94305,0 3.6648,-0.10768 5.04688,-0.32031 0.69104,-0.10631 1.28131,-0.22129 1.91992,-0.45898 0.31931,-0.11885 0.65627,-0.24982 1.10547,-0.59961 0.0755,-0.0588 0.17044,-0.20641 0.25781,-0.29102 0.12016,-0.0314 0.13231,-0.0423 0.33985,-0.0781 0.81603,-0.14094 2.15406,-0.25196 3.62109,-0.25196 15.88266,0 34.35596,-8.45975 44.11719,-20.32031 2.50437,-3.04299 5.32812,-7.53865 7.62695,-11.75 1.14942,-2.10567 2.15629,-4.12464 2.90234,-5.87109 0.74606,-1.74645 1.33203,-2.92165 1.33203,-4.71289 0,0.34991 0.1484,-0.98536 0.47266,-2.30469 0.32427,-1.31933 0.78387,-2.95487 1.2832,-4.5293 2.69533,-8.49841 4.28237,-22.36412 3.11914,-29.72265 -1.05416,-6.66859 -5.1349,-17.49644 -8.68359,-22.63282 -3.08179,-4.46058 -10.41207,-13.33242 -15.37891,-18.66796 -2.15306,-2.31289 -5.62022,-5.3451 -8.81835,-7.91602 -1.59907,-1.28546 -3.11602,-2.43886 -4.37696,-3.31055 -0.63047,-0.43584 -1.19,-0.80011 -1.72265,-1.09765 -0.53265,-0.29755 -0.65694,-0.70117 -2.2168,-0.70117 1.01587,0 0.76508,0.13491 0.67773,0.0957 -0.0873,-0.0392 -0.29521,-0.14475 -0.54297,-0.28516 -0.4955,-0.28081 -1.17392,-0.70979 -1.83398,-1.17383 -1.94848,-1.36982 -4.43992,-2.44802 -6.75586,-2.86523 -1.5235,-0.27445 -3.82575,-0.82186 -4.66601,-1.08398 -0.54788,-0.17092 -1.2938,-0.17776 -2.03125,-0.10547 0.006,-0.56198 0.18029,-1.12891 0.0586,-1.70118 -0.28029,-1.31795 -1.07332,-2.55445 -2.06055,-3.38476 -0.98722,-0.83031 -2.10577,-1.34959 -3.34765,-1.80078 -1.82087,-0.66155 -6.80893,-2.60414 -10.91211,-4.25391 -5.05308,-2.03169 -11.4841,-4.16138 -18.09961,-6.21484 0.12463,-0.0688 0.25057,-0.0882 0.375,-0.16992 2.02779,-1.33207 2.45177,-3.35979 2.97656,-5.67774 0.21704,-0.95863 1.41836,-4.83351 2.51562,-7.91601 1.59943,-4.49321 2.32528,-11.0187 2.45118,-17.25391 0.063,-3.1176 -0.043,-6.13148 -0.33985,-8.73828 -0.29683,-2.60681 -0.66043,-4.73114 -1.69922,-6.56641 -0.89444,-1.58027 -2.10448,-3.89508 -2.55078,-4.85742 -0.52284,-1.12738 -0.92909,-1.44095 -1.66797,-2.31836 -0.73887,-0.877403 -1.70412,-1.962254 -2.84765,-3.205077 -2.28706,-2.485647 -5.28143,-5.598537 -8.46094,-8.771484 -6.80038,-6.786325 -11.76197,-11.099173 -16.75977,-13.759766 -4.99779,-2.660592 -9.96047,-3.485277 -15.96093,-3.40625 z m -6.57223,10.986328 c 0.39326,-0.0049 0.85833,0.05546 2.38867,1.183594 1.53035,1.128137 3.84927,3.234799 7.31641,6.632812 4.53085,4.440514 9.61691,8.880757 12.88281,11.205083 l -2.57422,0.43945 c -7.10679,1.21329 -12.13788,2.87103 -18.39257,6.06641 -0.11789,0.0602 -0.19536,0.0947 -0.3125,0.15429 0.01,-0.12124 0.0684,-0.11937 0.0684,-0.26367 10e-6,-1.83812 -0.7985,-2.18036 -1.26171,-2.625 -0.46322,-0.44464 -0.95132,-0.80145 -1.51368,-1.16992 -1.1247,-0.73694 -2.52949,-1.47608 -4.08789,-2.14649 -2.35016,-1.01101 -7.47391,-4.195923 -10.53711,-6.654293 -2.91123,-2.33642 -4.54004,-3.706385 -6.61132,-4.496094 -0.59917,-0.228441 -1.19686,-0.238226 -1.79102,-0.324219 10e-4,-7e-4 0.002,-0.0013 0.004,-0.002 10.77265,-5.263902 19.47588,-7.938361 24.42187,-8 z m 25.72656,36.964849 c -0.22155,0 1.82784,0.76199 3.49219,2.38085 1.66436,1.61887 3.23856,3.85122 3.86914,5.50977 0.22585,0.59403 0.65521,3.37059 0.70703,6.32031 0.0518,2.94973 -0.14193,6.28574 -0.56054,8.81836 -0.0158,0.0953 -0.0358,0.13545 -0.0527,0.22852 -0.93398,-0.4972 -1.93286,-1.03023 -3.08203,-1.67578 -4.11798,-2.31331 -8.01761,-3.48057 -12.88281,-3.8711 -1.07006,-0.0859 -1.83646,-0.23537 -2.67969,-0.37109 0.57221,-1.00356 1.21154,-2.10191 1.99219,-3.32227 1.06993,-1.67256 2.07492,-3.54373 2.8789,-5.29101 0.80399,-1.74729 1.41397,-3.24493 1.65821,-4.75 0.44156,-2.72102 1.91809,-3.97656 4.66015,-3.97656 z m -14.60937,1.08593 c -1.10931,2.34932 -2.57784,5.3978 -4.22461,8.74805 -3.42715,6.97228 -6.32696,12.87273 -6.5625,13.35742 -0.18933,0.38962 -0.23893,1.04566 -0.15234,1.71289 -4.42162,0.0374 -9.54958,0.64628 -15.06055,1.63281 -8.96279,1.60446 -18.24081,4.15601 -24.35547,7.27344 -3.0155,1.53739 -6.47212,4.11762 -9.56445,6.83789 -0.86485,0.7608 -1.56564,1.49344 -2.33789,2.23633 7.31523,-7.2649 14.46143,-13.97862 20.10351,-18.25977 15.17242,-11.51266 26.97502,-18.64511 35.0586,-21.46679 2.69534,-0.94085 5.05975,-1.5762 7.0957,-2.07227 z m -2.61143,20.68398 c 0,-0.77257 0.65849,1.25819 0.95117,1.48437 0.40777,0.31512 0.70903,0.44371 1.00391,0.56641 0.58976,0.24539 1.1604,0.39714 1.83203,0.54687 1.34327,0.29947 3.02964,0.53601 4.89258,0.68555 3.50632,0.28145 6.0495,1.06789 8.79687,2.38086 -4.23481,-0.92211 -9.25849,-1.96303 -11.84179,-2.55664 -2.01294,-0.46255 -4.03347,-0.82559 -5.73828,-1.04688 -0.32093,-0.0417 -0.57162,-0.0508 -0.86914,-0.082 0.22663,-0.46157 0.97265,-1.26287 0.97265,-1.97851 z m -97.81045,-1.21327 8.0586,6.5 c 8.09485,6.53002 12.83512,9.4442 17.59961,10.5 l -2.74219,2.71679 c -7.48776,7.42143 -15.11947,16.88365 -20.74219,25.72071 -0.93346,1.4671 -1.94758,2.81415 -2.74219,3.70898 -0.3973,0.44742 -0.74893,0.78541 -0.92382,0.92773 -0.17489,0.14233 -0.40422,-0.16796 0.89648,-0.16796 -1.82349,0 -2.21466,0.73799 -2.80078,1.26171 -0.58612,0.52373 -1.13801,1.13858 -1.75,1.88282 -1.22397,1.48847 -2.64568,3.48357 -4.20703,5.85937 -3.12271,4.7516 -6.77376,10.99733 -9.9707,17.24805 -1.28546,2.51333 -2.51069,4.80092 -3.42969,6.42383 -0.12068,0.21311 -0.17952,0.29713 -0.28906,0.48632 -0.0694,-0.0381 -0.0998,-0.052 -0.17188,-0.0918 -1.36196,-0.7517 -3.2013,-1.80209 -5.16016,-2.95508 -4.29934,-2.53059 -8.50572,-5.70422 -11.53711,-8.5293 -1.51569,-1.41253 -2.73849,-2.74658 -3.50781,-3.78515 -0.76932,-1.03857 -0.89844,-1.90699 -0.89844,-1.42969 1e-5,0.61807 0.054,-0.20842 0.31055,-1.02539 0.25654,-0.81697 0.65137,-1.93254 1.14258,-3.22656 0.98242,-2.58805 2.35714,-5.90378 3.86523,-9.26368 7.68826,-17.12874 21.67036,-35.78951 39,-52.76171 z m 69.85352,17.01367 c -0.9108,1.05944 -1.46365,1.80316 -2.65234,3.09179 -2.4976,2.70758 -5.56336,7.11661 -8.15039,11.29297 -1.29352,2.08818 -2.44823,4.099 -3.31055,5.80664 -0.43116,0.85383 -0.78866,1.62749 -1.06445,2.34571 -0.17309,0.45073 -0.23519,0.97539 -0.33399,1.46093 -1.72251,0.13113 -3.45432,0.62743 -5.49805,1.39649 -2.33483,0.8786 -4.93823,2.07093 -7.53906,3.41992 -5.10914,2.65 -10.04669,5.73277 -12.95703,8.70703 0.36371,-0.78357 0.61079,-1.43999 1.12305,-2.3457 1.91928,-3.39347 4.76202,-7.72746 8.31836,-12.60742 7.13632,-9.79239 11.41672,-15.25458 14.49609,-18.00977 3.07938,-2.75519 4.58107,-3.04461 8.16797,-3.0957 2.52735,-0.036 6.25402,-0.67366 9.40039,-1.46289 z m -33.81836,7.46875 c -1.04519,1.17815 -1.97387,2.34709 -2.57617,3.52148 -0.7164,1.39687 -2.81575,5.01615 -4.49219,7.70703 -3.89459,6.25129 -7.49037,13.94753 -8.85547,19.27539 -0.86415,3.3727 -1.8317,7.98438 -2.54687,11.86133 -0.35759,1.93848 -0.64902,3.68358 -0.83399,5.02149 -0.0925,0.66895 -0.16021,1.22872 -0.19336,1.72265 -0.0166,0.24697 -0.0281,0.46697 -0.0137,0.76563 0.007,0.14933 0.015,0.31506 0.0742,0.58789 0.0429,0.19774 0.28616,0.62492 0.56445,1.04492 -2.2694,1.27581 -4.96156,2.71969 -6.22656,3.51758 -2.33865,1.4751 -9.34248,4.85767 -15.56641,7.58398 -2.47666,1.08487 -4.60342,1.94257 -6.57226,2.72266 0.96037,-2.11937 2.06627,-4.49874 3.44336,-7.28516 3.30932,-6.69611 7.37152,-14.36892 9.71875,-18.13281 6.15958,-9.87716 20.26358,-25.97547 34.07617,-39.91406 z m 159.46289,30.5957 c 1.09946,0.89713 2.89852,2.63146 5.81641,5.72461 4.29398,4.55188 8.94809,9.46693 10.38867,10.96875 1.18573,1.23612 -1.6817,1.13477 -2.32813,1.13477 -1.16892,0 -1.5977,0.45262 -1.88867,0.68945 -0.29096,0.23683 -0.44719,0.42325 -0.59179,0.60156 -0.28922,0.35662 -0.49956,0.69081 -0.72266,1.07227 -0.4462,0.76291 -0.89844,1.68843 -1.32813,2.71679 -0.60163,1.43992 -2.33834,4.30087 -3.375,5.54493 -1.69379,2.03264 -3.28446,4.96863 -4.12109,7.53515 -0.0237,0.0726 -0.0462,0.10812 -0.0703,0.17969 -1.4374,-1.37775 -3.31922,-3.25111 -5.33789,-5.33594 -2.49478,-2.57653 -5.95504,-5.65308 -9.52149,-8.69531 0.0492,-0.0938 0.10454,-0.19466 0.17578,-0.27734 0.24267,-0.28162 0.45802,-0.56982 0.69922,-0.91016 0.4824,-0.68069 1.04768,-1.55545 1.69727,-2.60938 1.29917,-2.10785 2.9167,-4.91548 4.57422,-7.96679 1.62305,-2.98787 3.23813,-5.85026 4.51758,-8.03125 0.55946,-0.95369 1.01852,-1.70466 1.41601,-2.3418 z M 283.25,198.60156 c 2.76566,-0.0958 5.35519,-0.0934 7.40039,0.01 0.45011,0.0227 0.43715,0.064 0.83789,0.10351 -0.74976,0.7859 -0.96558,1.10266 -2.4043,2.46289 -3.04165,2.87574 -5.0908,4.68697 -6.83593,6.19336 -0.0191,-0.0236 -0.0196,-0.0547 -0.0391,-0.0781 -0.92197,-1.11092 -1.84133,-1.61074 -3.07226,-2.35547 -1.23093,-0.74473 -2.68077,-1.51814 -4.1582,-2.23828 -1.47744,-0.72014 -2.9718,-1.38326 -4.30274,-1.88672 -0.87346,-0.33041 -1.61211,-0.57323 -2.41016,-0.73828 4.19764,-0.74599 9.84744,-1.29478 14.98438,-1.47266 z m 22.32422,0.82617 2.46875,0.39454 c 4.94466,0.79068 14.19879,3.947 23.79101,8.04101 9.59223,4.09401 19.68196,9.13826 26.84961,13.62695 12.82063,8.02886 29.10614,24.72679 33.35547,33.53711 l 0.99805,2.07032 c -0.42209,0.15127 -1.53679,0.54428 -3.23828,1.03711 -1.96205,0.56829 -4.40802,1.22866 -6.83203,1.83593 -7.65617,1.91805 -9.98263,2.08978 -21.68555,1.65625 -16.95282,-0.628 -33.46615,-5.66572 -49.53906,-10.91797 -10.88109,-3.55568 -21.31262,-8.48377 -31.43031,-13.83853 -2.23457,-1.18264 -5.05762,-3.16304 -6.43104,-4.0211 -1.06151,-0.6632 1.64326,-1.47056 0.37893,-1.72826 7.16597,-6.55779 14.78311,-14.02199 21.11328,-20.78906 z m -91.03125,32.99414 c 7.30525,0 13.54484,0.68226 17.72656,1.74805 2.09086,0.5329 3.66493,1.18587 4.49024,1.71485 0.0595,0.0381 -0.004,-0.0122 0.0449,0.0215 -0.5519,0.43226 -1.2508,0.94217 -2.28321,1.54883 -2.44064,1.43415 -5.96782,3.13022 -9.88086,4.66797 -1.70955,0.67182 -3.42142,1.41278 -4.8457,2.08398 -1.42427,0.6712 -2.36128,1.07439 -3.34961,1.84961 -1.87605,1.47152 -7.3295,4.11355 -11.94922,5.51563 -1.22638,0.37219 -2.46055,0.70505 -3.41601,0.93359 -0.47773,0.11427 -0.88802,0.20347 -1.16602,0.25391 -0.278,0.0504 -0.59195,0.0192 -0.0957,0.0488 -0.051,-0.003 -2.54901,-0.66264 -4.59766,-1.54101 -2.04865,-0.87837 -4.24795,-2.20236 -4.38476,-2.32617 -0.10133,-0.0917 -0.82395,-0.91955 -1.53516,-1.90821 -0.7112,-0.98866 -1.51213,-2.19904 -2.23242,-3.35937 -0.57974,-0.93392 -1.02338,-1.73688 -1.41016,-2.45703 0.49452,-0.37271 0.99367,-0.74883 1.58008,-1.19336 l 1.07031,-0.81055 0.76953,0.70703 c 0.61795,0.56759 1.0838,0.99626 1.47461,1.33399 0.19541,0.16886 0.36493,0.31352 0.5918,0.47656 0.22687,0.16303 0.15987,0.53459 1.65625,0.62695 0.3741,0.0231 0.929,-0.0197 1.5,-0.32422 0.57101,-0.30447 1.03835,-0.87434 1.24609,-1.3457 0.41549,-0.94272 0.2452,-1.39376 0.19336,-1.68164 -0.10366,-0.57575 -0.21091,-0.72462 -0.30664,-0.93945 -0.16383,-0.36771 -0.36456,-0.74598 -0.59179,-1.18164 0.45087,-0.2528 1.6359,-0.96594 4.83203,-2.45899 1.93706,-0.90488 3.16915,-1.33496 5.20898,-1.62305 2.03983,-0.28808 4.92578,-0.38085 9.66016,-0.38086 z m -20.2168,4.72461 c 0.007,0.032 0.0425,0.0833 0.0488,0.0879 0.0105,0.008 -0.0593,-0.0505 -0.084,-0.0703 8.9e-4,-4.5e-4 0.0341,-0.017 0.0351,-0.0176 z m 53.86133,14.99024 c -0.23435,0.80799 -0.45045,1.63723 -0.39063,2.43359 0.0577,0.76795 0.29076,1.52069 0.51954,2.27539 -0.23664,-0.20604 -0.61024,-0.49236 -0.83008,-0.6875 -0.80776,-0.71701 -1.36638,-1.26274 -1.875,-1.76758 0.42857,-0.44233 0.87217,-0.9012 1.61133,-1.53515 0.22566,-0.19354 0.71435,-0.51217 0.96484,-0.71875 z m 156.65625,2.30664 c 0.11178,0.23803 0.18933,0.264 0.29883,0.54687 0.92485,2.3892 1.71074,6.25282 2.0039,10.88477 0.43481,6.87 0.49036,6.66735 -2.28125,12.06055 -0.53366,1.03845 -1.01292,1.57736 -1.66601,2.66406 0.36718,-1.38919 0.72131,-2.7947 1,-4.2793 1.25566,-6.68893 1.43371,-14.28625 0.64453,-21.87695 z m -98.0086,4.2711 c 0,-0.5325 0.95139,0.27145 1.63867,0.48438 2.18196,0.67597 5.10304,1.63134 8.03321,2.62109 2.93016,0.98975 5.87542,2.01563 8.11133,2.83203 0.8272,0.30204 1.41794,0.53315 2.00586,0.76172 -0.19182,0.73718 -0.21093,0.8245 -0.68281,2.23085 -1.19383,3.55795 -3.31101,9.24768 -6.58594,17.76367 -0.47862,1.24458 -1.0248,2.33496 -1.46289,3.07032 -0.64004,-0.17155 -1.40788,-0.38333 -2.37696,-0.66016 -2.17717,-0.62194 -5.04395,-1.46969 -8.05468,-2.38867 -3.05505,-0.93251 -6.02519,-1.78213 -8.37891,-2.40821 -1.17686,-0.31303 -2.19702,-0.56931 -3.01758,-0.75586 -0.23042,-0.0524 -0.41048,-0.054 -0.59179,-0.0976 0.30895,-0.73116 0.66416,-1.55942 1.14843,-2.63477 1.16042,-2.57674 2.73291,-5.94285 4.3418,-9.31054 1.60889,-3.3677 3.25788,-6.74275 4.56836,-9.33789 0.59401,-1.17633 1.3039,-1.29528 1.3039,-2.17031 z m 29.08087,9.18202 c 0.15948,0.0334 0.24458,0.0396 0.43164,0.0859 1.0071,0.24977 2.35313,0.67942 3.67187,1.19922 1.91645,0.75539 3.79582,1.23748 5.9668,1.58398 -0.47737,0.60819 -0.79443,1.23932 -1.06836,1.95704 -0.5762,1.5097 -1.0687,3.50902 -1.83008,6.80664 -0.13424,0.5814 -0.23557,1.06203 -0.30469,1.50586 -0.0336,0.21597 0.018,0.58746 -0.004,0.8164 -0.25287,0.23404 -0.52091,0.48013 -0.62696,0.63867 -0.30865,0.46145 -0.45449,0.80818 -0.6289,1.23047 -0.34883,0.84459 -0.68832,1.8958 -1.01563,3.11133 -0.53193,1.97544 -0.91243,2.34815 -0.53515,2.0625 0.37728,-0.28565 -0.13069,-0.01 -2.20899,-0.01 -1.97767,0 -5.4456,-0.55821 -6.6289,-0.97071 -0.66842,-0.23301 -0.99206,-0.4009 -1.15821,-0.47851 0.14273,0.2241 0.0347,0.0827 0.20508,-1.32618 0.17949,-1.48456 1.15307,-4.98555 1.96289,-6.85546 1.9162,-4.42456 2.12126,-5.04893 3.2207,-9.81446 0.13327,-0.57763 0.35136,-1.10704 0.55079,-1.54297 z m 16.1289,3.28321 c 1.81741,0.082 3.18246,0.24218 5.64453,0.24218 4.21203,0 6.72431,0.0911 8.25196,0.24415 -0.0702,0.25501 -0.10918,0.42867 -0.19336,0.71875 -0.44391,1.52962 -1.06767,3.49732 -1.75196,5.48632 -1.41301,4.10718 -3.11928,9.4172 -3.85742,12.02735 l -0.7207,2.54687 -4.41016,0.13281 c -3.22091,0.0961 -6.01758,-0.18494 -7.76562,-0.6289 -0.62427,-0.15855 -0.88769,-0.30497 -1.17578,-0.44141 0.0347,-0.23115 0.0235,-0.17718 0.082,-0.45117 0.1629,-0.76247 0.39702,-1.70346 0.64843,-2.58008 0.30045,-1.04753 0.52302,-2.03871 0.6504,-2.90429 0.0637,-0.4328 0.10733,-0.82384 0.10742,-1.27149 0,-0.0339 -0.009,-0.0863 -0.01,-0.12109 0.42797,-0.3824 0.65182,-0.67367 0.85547,-0.97461 0.94244,-1.39266 1.48522,-2.68783 1.51172,-4.51172 v -0.002 c -0.004,0.30504 0.0731,-0.37614 0.29687,-1.02344 0.22418,-0.64844 0.55319,-1.42677 0.88477,-2.0625 0.55067,-1.0558 0.95656,-1.72167 1.10937,-2.96875 0.0414,-0.33755 0.0199,-0.8774 -0.1582,-1.45703 z"
         id="path11"
         sodipodi:nodetypes="cssssssssssscssssssscccsssccsssssssccsssscsssssssscssssscssssccsssssssssscccsscsscssssssccccssssscsscssssscsscssscsscssssscsscssccccssscsssssccssssssssccsssscsscssssccsssssscscsscssscsssssssssscscssssssscscsccssscccccssccsssaascccssscssssssscssssccccssssssscsssscccsccscscsccssscscsssscsscsssscsssssccscssscsssssscsssccsscsscccsccssscsscssscs" /></g></g></svg>
