<?xml version="1.0" encoding="UTF-8" standalone="no"?>
<svg
   version="1.2"
   viewBox="0 0 570 570"
   width="570"
   height="570"
   id="svg1"
   sodipodi:docname="SarlatovaZenaRoleTokenLaser.svg"
   inkscape:version="1.4.2 (2aeb623e1d, 2025-05-12)"
   xml:space="preserve"
   xmlns:inkscape="http://www.inkscape.org/namespaces/inkscape"
   xmlns:sodipodi="http://sodipodi.sourceforge.net/DTD/sodipodi-0.dtd"
   xmlns="http://www.w3.org/2000/svg"
   xmlns:svg="http://www.w3.org/2000/svg"><sodipodi:namedview
     id="namedview1"
     pagecolor="#ffffff"
     bordercolor="#666666"
     borderopacity="1.0"
     inkscape:showpageshadow="2"
     inkscape:pageopacity="0.0"
     inkscape:pagecheckerboard="0"
     inkscape:deskcolor="#d1d1d1"
     inkscape:zoom="3.6677208"
     inkscape:cx="393.43235"
     inkscape:cy="292.68858"
     inkscape:window-width="1920"
     inkscape:window-height="940"
     inkscape:window-x="0"
     inkscape:window-y="0"
     inkscape:window-maximized="1"
     inkscape:current-layer="text4"
     showgrid="false" /><defs
     id="defs1"><clipPath
       clipPathUnits="userSpaceOnUse"
       id="cp1"><path
         d="m 275.5,535.5 c -143.78,0 -260,-116.22 -260,-260 0,-143.78 116.22,-260 260,-260 143.78,0 260,116.22 260,260 0,143.78 -116.22,260 -260,260 z"
         id="path1" /></clipPath></defs><style
     id="style1">
		tspan { white-space:pre } 
		.s0 { fill: none;stroke: #ff0000;stroke-miterlimit:100 } 
	</style><g
     inkscape:groupmode="layer"
     id="layer1"
     inkscape:label="Template"><path
       id="Path 0 copy"
       class="s0"
       d="m 253.96776,1.9812412 c -4.83809,0.7256238 -12.51049,1.8658898 -17.06826,2.5396834 -4.54737,0.6737937 -14.55576,2.8299332 -22.23856,4.8098491 -7.68279,1.9695513 -20.01678,5.7427953 -27.40888,8.3757733 -7.40247,2.632979 -20.89926,8.551995 -30.00441,13.164891 -9.10514,4.602528 -22.37354,12.263042 -29.48531,17.021062 -7.11177,4.747653 -17.57697,12.48073 -23.26639,17.176553 -5.689435,4.695823 -15.573238,13.828318 -21.968643,20.296736 -6.385022,6.468418 -15.147556,16.191781 -19.456148,21.592491 -4.318975,5.41108 -11.576098,15.42469 -16.133862,22.24555 -4.547382,6.83124 -12.178261,20.3382 -16.95405,30.00974 -5.533687,11.2368 -10.714379,23.75899 -14.316985,34.66408 -3.114645,9.39165 -6.8418376,22.43215 -8.2953386,28.97313 -1.453501,6.54097 -3.5922235,19.22903 -4.7446423,28.19566 -1.3912082,10.80144 -2.09719388,22.31812 -2.10757603,34.1458 0,12.12828 0.67483933,22.9919 2.10757603,33.88662 1.162801,8.82153 3.3222877,21.39554 4.7861709,27.93654 1.4638831,6.55133 4.44356,17.48752 6.623812,24.31875 2.180251,6.83123 6.104705,17.53937 8.721006,23.80046 2.616301,6.2611 7.57897,16.73082 11.015462,23.28217 3.446873,6.54098 9.676163,17.02106 13.86017,23.28215 4.173624,6.2611 11.119282,15.79787 15.427874,21.20896 4.308592,5.40071 13.071127,15.12406 19.466531,21.60285 6.385023,6.47879 16.279208,15.58018 21.968643,20.23455 5.68942,4.64399 13.36182,10.563 17.06825,13.15452 3.69605,2.59151 11.60724,7.66051 17.57698,11.25753 5.98013,3.6074 16.92291,9.43312 24.315,12.96793 7.39209,3.52447 18.80207,8.31359 25.34283,10.63558 6.54075,2.322 18.17914,5.82573 25.86193,7.7849 7.6828,1.94883 22.34238,4.7684 32.58957,6.24037 14.74265,2.1354 22.60194,2.69517 37.7495,2.69517 15.15794,0 23.01723,-0.55977 37.75988,-2.69517 10.24718,-1.47197 24.90677,-4.29154 32.58957,-6.24037 7.68278,-1.95917 19.31079,-5.4629 25.86193,-7.7849 6.54076,-2.32199 17.94035,-7.11111 25.34283,-10.63558 7.39208,-3.53481 18.33487,-9.36053 24.30461,-12.96793 5.98012,-3.59702 13.89132,-8.66602 17.58736,-11.25753 3.69605,-2.59152 11.37883,-8.51053 17.06826,-13.1649 5.68942,-4.65435 15.57322,-13.76612 21.95824,-20.23454 6.39541,-6.46842 15.14756,-16.19177 19.46654,-21.59248 4.30859,-5.41109 11.42035,-15.18628 15.79125,-21.72725 4.37088,-6.55136 11.24387,-18.42049 15.27214,-26.39199 4.02828,-7.96113 9.22972,-19.37415 11.5657,-25.345 2.336,-5.98121 5.92822,-16.45093 7.99426,-23.28216 2.06605,-6.83123 4.88999,-18.23389 6.27083,-25.35538 1.39121,-7.1111 3.22885,-18.75218 4.08018,-25.86329 0.86172,-7.11113 1.5677,-20.84614 1.5677,-30.52804 0,-9.81665 -0.70598,-23.07484 -1.59885,-30.00973 -0.8721,-6.82087 -2.30483,-16.368 -3.16655,-21.20894 -0.86172,-4.83059 -2.907,-13.91125 -4.54739,-20.17235 -1.64037,-6.2611 -4.91075,-16.96923 -7.27788,-23.80045 -2.35675,-6.83125 -8.17076,-20.33822 -12.9154,-30.00974 -4.74463,-9.67154 -12.35476,-23.1785 -16.90213,-30.00974 -4.55776,-6.82086 -11.81489,-16.83447 -16.13386,-22.24555 C 502.62025,101.55757 493.85772,91.844574 487.47269,85.386521 481.08767,78.918102 471.20387,69.816706 465.51445,65.151982 459.82502,60.487257 452.14224,54.557873 448.44619,51.96636 444.75015,49.374846 436.83895,44.31621 430.85883,40.708823 424.88909,37.101437 413.9463,31.275712 406.55422,27.751254 399.15174,24.226796 387.75215,19.448044 381.21139,17.136415 374.66025,14.814417 363.95626,11.528378 357.4155,9.8179792 350.87475,8.1075792 341.33354,5.9929045 336.20478,5.1325219 331.08637,4.2617733 321.77358,2.8416237 315.52353,1.970875 308.01724,0.92390344 297.0952,0.4366989 283.45307,0.52999334 272.07423,0.60255536 258.80584,1.2556173 253.96776,1.9812412 Z"
       style="stroke-width:1.03741;stroke:#000000;stroke-opacity:1"
       inkscape:label="vnejsi kruh" /><path
       id="Path 0"
       class="s0"
       d="m 265.85013,27.483209 c -2.18288,0.208543 -7.78893,0.873904 -12.44244,1.459816 -4.66343,0.595844 -10.93427,1.539263 -13.95061,2.105316 -3.00642,0.556121 -11.52961,2.512475 -18.92164,4.359591 -7.39203,1.837184 -19.05063,5.451972 -25.89695,8.02403 -6.84631,2.57206 -17.3837,7.150127 -23.40647,10.159138 -6.0327,3.018944 -15.43895,8.192855 -20.916,11.499788 -5.47708,3.306933 -13.55374,8.70925 -17.92944,12.016186 -4.3856,3.306932 -11.77765,9.245508 -16.44107,13.188011 -4.65352,3.942499 -11.62883,10.476915 -15.49848,14.508775 -3.869674,4.04181 -10.37864,11.38062 -14.466589,16.3162 -4.087947,4.93557 -11.023564,14.35985 -15.419103,20.93398 -4.395538,6.58408 -10.735823,17.34899 -14.089528,23.93306 -3.353706,6.57416 -8.11636,16.89217 -10.596914,22.93007 -2.480545,6.02794 -6.121992,16.57439 -8.096512,23.42659 -1.974519,6.8522 -4.663441,18.29241 -5.983092,25.42266 -1.309727,7.12034 -2.847671,18.34207 -3.423155,24.91621 -0.575495,6.58408 -1.051758,16.67371 -1.051758,22.43353 0,5.75981 0.476263,15.84945 1.051758,22.43353 0.575484,6.57413 2.113428,17.78593 3.423155,24.9162 1.319651,7.13027 3.939113,18.34205 5.824335,24.92612 1.895135,6.57415 5.308376,16.67372 7.590486,22.43353 2.2821,5.7499 7.163825,16.29634 10.84497,23.42659 3.67121,7.12033 10.239712,18.34207 14.575715,24.91621 4.336003,6.58408 12.214231,17.12058 17.512683,23.4266 5.288538,6.30602 13.375129,15.05499 17.969109,19.44437 4.58407,4.38938 12.15471,11.04297 16.8082,14.78686 4.65353,3.73396 13.39498,10.09956 19.42768,14.14137 6.02278,4.03186 17.00667,10.48684 24.3987,14.33997 7.39205,3.84318 19.49714,9.28524 26.88918,12.0857 7.40195,2.80046 19.50706,6.62379 26.89909,8.49077 7.39203,1.86697 19.49713,4.38939 26.88918,5.60094 11.27161,1.83718 17.40353,2.19469 37.85319,2.19469 20.44967,0 26.58159,-0.35751 37.85321,-2.19469 7.39205,-1.21155 19.49713,-3.73397 26.88916,-5.60094 7.39204,-1.86698 19.49714,-5.69031 26.8991,-8.49077 7.39204,-2.80046 19.26892,-8.12334 26.39306,-11.81756 7.12415,-3.70418 18.09812,-10.15915 24.3987,-14.33999 6.3006,-4.18084 15.27028,-10.63581 19.92379,-14.33997 4.65352,-3.70417 13.6331,-11.92681 19.95354,-18.27255 6.32045,-6.34574 14.53603,-15.35292 18.26677,-20.01042 3.73076,-4.66745 10.34887,-13.86331 14.71463,-20.43745 4.36577,-6.58407 11.47009,-19.14645 15.78624,-27.91529 4.30622,-8.76883 9.48563,-20.43745 11.4899,-25.91921 2.01421,-5.48175 5.14963,-15.79979 6.96539,-22.93006 1.81576,-7.13026 4.33601,-19.46424 5.5862,-27.40881 1.90506,-12.0559 2.28212,-18.352 2.28212,-37.88574 0,-19.30534 -0.38698,-25.88942 -2.20273,-37.3892 -1.21051,-7.67646 -3.72083,-20.01044 -5.58621,-27.40883 -1.85545,-7.40833 -5.01072,-17.94482 -7.015,-23.42659 -2.00427,-5.48177 -7.29282,-17.37878 -11.74788,-26.42567 -4.45507,-9.04691 -11.57922,-21.59935 -15.816,-27.90537 -4.23677,-6.306 -10.76558,-15.26354 -14.50626,-19.90119 -3.74068,-4.63763 -10.37863,-12.21479 -14.76424,-16.8425 -4.38562,-4.62771 -11.77765,-11.628879 -16.43117,-15.551517 -4.66342,-3.932571 -12.05548,-9.851287 -16.44108,-13.158219 -4.37569,-3.306936 -12.45237,-8.709253 -17.92943,-12.016186 -5.47706,-3.306933 -14.88331,-8.480844 -20.916,-11.499788 -6.02278,-3.009011 -16.56016,-7.587078 -23.40649,-10.159138 -6.8463,-2.572058 -18.50491,-6.196777 -25.89695,-8.043892 -7.39203,-1.847117 -16.13349,-3.8134 -19.41774,-4.379453 -3.29417,-0.566051 -8.89029,-1.519402 -12.45236,-2.105315 -3.56207,-0.595842 -15.88545,-1.241341 -27.39521,-1.439955 -11.49984,-0.198616 -22.71193,-0.188684 -24.90474,0.01985 z"
       style="stroke-width:0.992647;stroke:#000000;stroke-opacity:1"
       inkscape:label="vnitrni kruh" /><g
       inkscape:groupmode="layer"
       id="layer3"
       inkscape:label="Positions"
       style="display:none"><rect
         style="display:inline;fill:#ff2121;fill-opacity:0.107692;stroke:#000000;stroke-width:1.05245;stroke-opacity:1"
         id="rect1"
         width="300"
         height="300"
         x="135"
         y="80.172386" /><rect
         style="display:inline;fill:#de0000;fill-opacity:0.0923077;stroke:#000000;stroke-width:1.00157;stroke-opacity:1"
         id="rect2"
         width="300"
         height="83.006134"
         x="135"
         y="401.53375" /></g><text
       xml:space="preserve"
       style="font-size:103.79px;font-family:'Didact Gothic';-inkscape-font-specification:'Didact Gothic';text-align:start;letter-spacing:1.92262px;writing-mode:lr-tb;direction:ltr;text-anchor:start;display:none;fill:#de0000;fill-opacity:0.0923077;stroke:#000000;stroke-width:6.59806;stroke-dasharray:none;stroke-opacity:1"
       x="65.993752"
       y="391.8826"
       id="text2"
       inkscape:label="Text"><tspan
         sodipodi:role="line"
         id="tspan2"
         x="65.993752"
         y="391.8826"
         style="font-style:normal;font-variant:normal;font-weight:normal;font-stretch:normal;font-family:'New Rocker';-inkscape-font-specification:'New Rocker';letter-spacing:1.92262px;fill:#000000;fill-opacity:1;stroke:#000000;stroke-width:6.59806;stroke-dasharray:none;stroke-opacity:1">Šarlatová</tspan></text><path
       id="path5"
       style="display:none;stroke-width:8.05907"
       d="m 276.32799,515.95806 h 15.42748 v 4.53544 h -15.42748 z"
       inkscape:label="spojovnik pismen" /><text
       xml:space="preserve"
       style="font-size:100.705px;font-family:'Didact Gothic';-inkscape-font-specification:'Didact Gothic';text-align:start;letter-spacing:1.8655px;writing-mode:lr-tb;direction:ltr;text-anchor:start;display:none;fill:#de0000;fill-opacity:0.0923077;stroke:#000000;stroke-width:6.40202;stroke-dasharray:none;stroke-opacity:1"
       x="184.0005"
       y="505.37195"
       id="text1"
       inkscape:label="Text"><tspan
         sodipodi:role="line"
         id="tspan1"
         x="184.0005"
         y="505.37195"
         style="font-style:normal;font-variant:normal;font-weight:normal;font-stretch:normal;font-family:'New Rocker';-inkscape-font-specification:'New Rocker';letter-spacing:1.8655px;fill:#000000;fill-opacity:1;stroke:#000000;stroke-width:6.40202;stroke-dasharray:none;stroke-opacity:1">Žena</tspan></text></g><g
     id="text3"
     inkscape:label="Text"
     style="opacity:1" /><g
     id="text4"
     inkscape:label="Text"
     style="opacity:1"><path
       id="path10"
       style="font-size:100.705px;font-family:'New Rocker';-inkscape-font-specification:'New Rocker';letter-spacing:1.8655px;baseline-shift:baseline;white-space:pre;display:inline;overflow:visible;opacity:1;vector-effect:none;fill:none;stroke:#000000;stroke-opacity:1;enable-background:accumulate;stop-color:#000000;stop-opacity:1"
       d="M 115.50781 274.7168 L 113.38867 275.95312 C 112.64094 276.3893 111.73461 276.87454 110.68359 277.40039 C 110.67859 277.40339 110.67562 277.4052 110.66992 277.4082 C 109.61406 277.87175 108.53144 278.36274 107.41992 278.88477 L 103.98633 280.29688 C 103.3188 280.54658 102.77277 280.72217 102.19922 280.91406 C 101.53537 280.67804 100.89192 280.44744 100.14453 280.18359 L 96.714844 278.77148 L 96.691406 278.76172 C 95.587168 278.24353 94.510178 277.75336 93.460938 277.29297 C 92.447007 276.75316 91.516248 276.26789 90.683594 275.85156 L 88.701172 274.86133 L 87.035156 276.32031 C 85.898768 277.31465 85.035511 278.10317 84.384766 278.75391 C 84.011497 279.12718 83.281808 279.796 82.273438 280.66992 L 79.167969 283.35938 L 82.466797 285.81055 C 84.956361 287.65994 87.81158 289.6334 91.039062 291.73828 L 91.072266 291.75977 L 91.107422 291.78125 C 93.029172 293.21633 94.783315 294.85459 96.519531 296.50781 C 93.929592 298.6935 90.245382 298.98571 88.146484 300.03516 C 85.939391 301.13871 83.112856 301.76367 79.554688 301.76367 C 77.882547 301.76367 76.522653 301.66132 75.53125 301.49609 C 74.246681 301.282 73.232095 301.13493 72.410156 301.05273 L 64.857422 300.29688 L 69.458984 306.33398 C 71.378191 308.85294 72.647444 311.65146 73.314453 314.86523 C 74.027758 318.30206 74.388672 321.87953 74.388672 325.61133 C 74.388672 329.03237 74.220211 332.34339 73.886719 335.54492 C 73.544568 338.82957 73.168187 341.90277 72.759766 344.76172 L 72.066406 349.61914 L 76.826172 348.42969 C 78.985448 347.88988 81.252585 347.38112 83.626953 346.90625 C 86.019096 346.42782 88.41105 345.98422 90.802734 345.57422 C 93.174648 345.1676 95.475093 344.83038 97.701172 344.56055 C 99.059711 344.39588 100.18167 344.30528 101.38086 344.19141 C 101.58907 344.75989 101.76241 344.93113 101.92969 346.03516 C 102.24682 348.12822 102.41211 350.45611 102.41211 353.01367 C 102.41211 355.98075 102.21371 358.8721 101.82031 361.69141 L 101.81641 361.72266 L 101.8125 361.75586 C 101.68252 362.84768 101.47075 363.34253 101.30469 364.22656 C 99.353578 363.25156 97.315044 362.26313 95.544922 361.31641 C 95.542522 361.31541 95.539509 361.3135 95.537109 361.3125 C 92.642081 359.65921 90.004162 358.20062 87.636719 356.94727 C 85.252665 355.68513 83.170109 354.66098 81.347656 353.85742 C 79.425246 352.93729 77.815461 352.30859 75.921875 352.30859 L 71.603516 352.30859 L 72.740234 356.47656 C 72.905525 357.08263 73.006079 357.62914 73.054688 358.11523 C 73.111968 358.68799 73.142578 359.30565 73.142578 359.9668 C 73.142578 361.78365 72.770725 363.45559 71.998047 365.11133 L 71.988281 365.13281 L 71.978516 365.15625 C 71.219741 366.8489 70.152554 368.51979 68.740234 370.17773 L 64.367188 375.3125 L 71.103516 375.61328 C 75.628097 375.81587 79.50355 376.22235 82.695312 376.80859 L 82.732422 376.81445 L 82.769531 376.82031 C 86.121629 377.35664 89.000394 377.98957 91.380859 378.69727 C 93.797457 379.41572 95.800667 380.18655 97.371094 380.9707 C 99.165543 381.90201 100.74808 382.79252 102.10547 383.63281 L 104.28906 384.98438 L 106.13477 383.20117 C 107.79639 381.59493 110.03085 380.27031 112.98047 379.28711 C 115.9627 378.29303 119.05672 377.79688 122.31641 377.79688 L 126.5625 377.79688 L 125.51367 373.68164 C 124.66022 370.33348 124.0675 366.84505 123.73633 363.20898 C 123.63361 361.76455 123.54999 360.32452 123.48633 358.89062 L 131.51562 358.89062 C 131.52263 359.17568 131.52734 359.46572 131.52734 359.75977 C 131.52734 362.47252 131.45795 365.18549 131.32227 367.89844 C 131.19595 370.34988 130.81241 372.27445 130.29297 373.625 L 128.59961 378.02539 L 133.31641 378.10742 C 137.11691 378.17292 140.4181 378.60042 143.21289 379.3457 L 143.2207 379.34766 L 143.23047 379.34961 C 146.12993 380.10599 148.72997 381.19557 151.07227 382.61328 L 153.50195 384.08398 L 159.48828 376.88281 C 159.71876 377.22108 159.8439 377.57671 160.0918 377.91211 C 161.46386 379.76842 163.05439 381.33184 164.85938 382.53516 L 167.96875 384.60938 L 169.64062 381.26562 C 169.92463 380.69759 170.44612 379.8648 171.19727 378.86328 C 171.92862 377.88815 172.75914 376.93422 173.69336 376 C 174.6535 375.03986 175.60198 374.18796 176.53516 373.44141 L 176.54492 373.43359 L 176.55469 373.42578 C 177.45695 372.69269 178.20653 372.27878 178.69727 372.10352 L 180.88672 371.32227 L 180.88672 365.23047 L 178.32812 364.64062 C 177.82185 364.5238 177.53247 364.37765 177.30273 364.24414 L 177.30273 364.24219 C 177.29043 364.21979 177.16897 364.05862 177.00977 363.57227 C 176.75723 362.70605 176.50263 361.33278 176.31055 359.56836 C 176.29585 359.35192 176.28273 359.12548 176.26953 358.89062 L 185.44727 358.89062 L 185.44727 368.68555 C 185.44727 370.27885 185.21459 371.37047 185.00586 371.86523 C 184.88968 372.14063 184.84572 372.22339 184.82617 372.24219 L 184.82422 372.24414 L 184.82227 372.24414 L 184.82031 372.24414 L 184.81836 372.24414 L 184.81641 372.24414 L 184.81445 372.24219 L 184.8125 372.24023 L 184.81055 372.23828 L 184.80859 372.23828 L 184.80859 372.23633 L 184.80664 372.23633 L 184.80664 372.23438 L 184.80469 372.23438 L 184.80273 372.23438 L 184.80078 372.23438 L 184.79883 372.23438 L 182.64648 373.03125 L 182.64648 380.18359 L 211.45508 380.18359 L 211.45508 372.29688 L 208.66406 371.86133 C 207.00737 371.60248 206.29723 371.14479 206.08203 370.94727 C 205.91989 370.67121 205.53906 369.67151 205.53906 367.75195 L 205.53906 358.89062 L 230.44336 358.89062 L 230.44336 367.33594 C 230.44336 369.74628 230.05205 371.70408 229.36523 373.28906 C 228.71562 374.78814 227.95696 375.56937 226.86914 376.11328 L 224.74219 377.17773 L 225.58789 383.08984 L 228.44922 383.08984 C 230.93642 383.08984 233.44808 382.77617 235.9668 382.16602 L 235.96875 382.16602 L 235.9707 382.16602 L 235.97266 382.16602 C 237.74659 381.74781 239.34428 381.15521 240.95898 380.58008 C 241.26187 380.83141 241.5353 381.16108 241.85742 381.37695 C 242.68316 381.95183 243.56751 382.47613 244.51367 382.94922 L 244.56055 382.97266 L 244.60742 382.99414 C 245.54804 383.42827 246.64303 383.88254 247.86719 384.36133 C 249.06605 384.89415 250.59891 385.61005 252.44727 386.5 L 255.03125 387.74414 L 258.56445 382.44531 L 257.10352 380.56836 C 256.33802 379.58415 255.83279 378.86354 255.21094 378.02539 L 259.89453 378.10742 C 263.69503 378.17292 266.99818 378.60042 269.79297 379.3457 L 269.80078 379.34766 L 269.80859 379.34961 C 272.70805 380.10599 275.31004 381.19557 277.65234 382.61328 L 280.08203 384.08398 L 286.06836 376.88281 C 286.29881 377.22102 286.42401 377.57676 286.67188 377.91211 C 288.04393 379.76842 289.63252 381.33184 291.4375 382.53516 L 294.54688 384.60938 L 296.21875 381.26562 C 296.50277 380.69759 297.02425 379.8648 297.77539 378.86328 C 298.50674 377.88815 299.33725 376.93422 300.27148 376 C 301.23162 375.03986 302.1801 374.18796 303.11328 373.44141 L 303.12305 373.43359 L 303.13477 373.42578 C 304.03703 372.69269 304.78661 372.27878 305.27734 372.10352 L 307.4668 371.32227 L 307.4668 365.23047 L 304.91016 364.64062 C 304.40229 364.52342 304.1107 364.37606 303.88086 364.24219 L 303.88086 364.24023 C 303.88586 364.23623 303.7625 364.08761 303.59375 363.58008 C 303.34073 362.71414 303.0831 361.33627 302.89062 359.56836 C 302.87592 359.35203 302.86086 359.12535 302.84766 358.89062 L 314.00195 358.89062 L 314.00195 376.84766 L 315.82422 377.75977 C 316.88213 378.28873 318.24098 379.0004 319.88086 379.88867 C 321.49348 380.76217 323.07172 381.66986 324.61523 382.60938 L 326.69727 383.87695 L 328.52148 382.25586 C 328.92883 381.89377 329.66627 381.35042 330.67383 380.7207 C 331.68662 380.0877 332.77164 379.47941 333.92969 378.90039 L 333.99219 378.86914 L 334.05469 378.83398 C 335.23668 378.17732 336.45336 377.5519 337.70508 376.95898 C 338.93206 376.37778 340.07707 375.90444 341.12891 375.5332 L 343.32812 374.75586 L 343.32812 367.83789 L 340.20312 367.67383 C 338.29962 367.57364 337.00485 366.99293 335.75391 365.75391 C 334.79316 364.74476 334.09181 363.02081 334.0918 359.9668 L 334.0918 358.89062 L 348.71484 358.89062 C 348.71884 359.21956 348.7207 359.54449 348.7207 359.86328 C 348.7207 363.67225 348.47677 366.71598 348.05469 368.88672 L 348.04883 368.92188 L 348.04297 368.95898 C 347.7115 370.89256 347.09446 371.8212 347.06641 371.88867 L 347.06836 371.88867 L 347.07031 371.88867 L 344.77539 377.60156 L 349.86523 377.62891 C 350.00383 377.60121 350.12983 377.58789 350.25586 377.58789 L 350.5293 377.58789 L 350.79883 377.54492 C 351.03809 377.50502 351.27007 377.48438 351.50195 377.48438 C 352.69318 377.48438 354.38675 377.63587 356.49219 377.96484 C 358.60694 378.29527 360.72369 378.7239 362.84375 379.25391 C 364.96525 379.78429 366.90307 380.34643 368.66406 380.93164 C 370.32719 381.55375 371.42505 382.18174 371.62305 382.34375 L 373.93359 384.23438 L 376.04492 382.12305 C 377.36838 380.79959 378.86394 379.52543 380.53711 378.30273 L 380.57031 378.2793 L 380.60156 378.25391 C 382.26288 376.97598 383.97982 375.86447 385.75391 374.91406 C 387.55683 373.94821 389.34378 373.15096 391.11719 372.51758 C 392.86013 371.89511 394.45643 371.51116 395.90039 371.33789 L 399.36328 370.92188 L 398.75781 367.48828 C 398.25848 364.6587 397.86024 361.79223 397.56641 358.89062 L 406.47266 358.89062 C 406.47866 359.34636 406.48047 359.80927 406.48047 360.27734 C 406.48047 360.9385 406.44911 361.81488 406.38281 362.875 L 406.37695 362.97656 L 406.37695 363.08008 C 406.37695 364.04467 406.345 365.08948 406.2793 366.20898 L 406.27344 366.30469 L 406.27344 366.40234 C 406.27344 367.4407 406.24078 368.47883 406.17578 369.51758 C 406.10788 370.53474 406.03962 371.44834 405.97266 372.25195 L 405.73828 375.07422 L 408.49414 375.73438 C 411.48531 376.44966 414.37126 377.42222 417.16406 378.65625 C 419.97917 379.90013 422.27506 381.18692 424.03711 382.46289 L 424.90234 383.08984 L 428.13672 383.08984 L 442.69922 371.81641 L 446.93555 358.89062 L 455.51367 358.89062 C 455.52067 359.17568 455.52344 359.46572 455.52344 359.75977 C 455.52344 362.47252 455.45594 365.18549 455.32031 367.89844 C 455.19402 370.35009 454.81049 372.27437 454.29102 373.625 L 452.59766 378.02539 L 457.3125 378.10742 C 461.113 378.17292 464.41615 378.60042 467.21094 379.3457 L 467.21875 379.34766 L 467.22656 379.34961 C 470.12602 380.10599 472.72802 381.19557 475.07031 382.61328 L 477.5 384.08398 L 483.48633 376.88281 C 483.71678 377.22102 483.84197 377.57676 484.08984 377.91211 C 485.46189 379.76842 487.05049 381.33184 488.85547 382.53516 L 491.9668 384.60938 L 493.63672 381.26562 C 493.92074 380.69759 494.44222 379.8648 495.19336 378.86328 C 495.92471 377.88815 496.75523 376.93422 497.68945 376 C 498.6496 375.03986 499.59807 374.18796 500.53125 373.44141 L 500.54102 373.43359 L 500.55273 373.42578 C 501.45499 372.69269 502.20458 372.27878 502.69531 372.10352 L 504.88477 371.32227 L 504.88477 365.23047 L 502.32812 364.64062 C 501.82027 364.52342 501.53062 364.37606 501.30078 364.24219 L 501.30078 364.24023 L 501.30078 364.23828 C 501.29018 364.21658 501.16992 364.0559 501.01172 363.58008 C 500.7587 362.71414 500.50106 361.33627 500.30859 359.56836 C 500.18099 357.6903 500.11133 355.11772 500.11133 351.87109 C 500.11133 346.90291 500.25426 343.15809 500.50586 340.74609 C 500.80558 338.50444 501.40684 336.92065 502.11523 335.90234 L 505.7207 330.7207 L 499.40625 330.7207 C 496.2689 330.7207 493.7784 330.19511 491.83789 329.28906 C 489.85167 328.25889 487.81126 326.6684 485.75195 324.42188 L 485.40039 324.03906 L 485.38281 314.79492 C 486.58178 313.70724 487.73741 312.66348 488.8457 311.66602 C 490.17764 310.46728 491.39387 309.44962 492.48242 308.61719 L 492.5293 308.58008 L 492.57617 308.54297 C 493.71045 307.60885 494.57276 306.95606 495.00781 306.66602 L 499.44922 303.70508 L 494.81445 301.05664 C 494.44916 300.8479 493.75259 300.41724 492.86719 299.84961 C 492.00016 299.18437 491.08122 298.49333 490.09766 297.77148 C 489.19482 297.06152 488.32725 296.35332 487.49023 295.64648 C 486.77457 294.98705 486.27363 294.44036 486.06055 294.15625 L 482.85742 289.88672 L 480.4707 294.66016 C 479.90261 295.79636 479.15002 297.14264 478.2168 298.67578 L 478.1875 298.7207 L 478.16211 298.76758 C 477.29826 300.29595 476.36648 301.82803 475.36523 303.36328 L 475.35352 303.37891 L 475.34375 303.39453 C 474.38025 304.9086 473.4518 306.35242 472.55859 307.72656 L 472.52734 307.77734 L 472.49609 307.82812 C 471.66162 309.21893 470.99974 310.33358 470.50391 311.18359 L 469.06836 313.64258 L 471.29297 315.42188 C 472.21219 316.15726 472.81371 316.76857 473.0332 317.05078 L 473.1582 317.21289 L 473.30469 317.35938 C 474.00403 318.05872 474.89159 318.82695 476.04688 319.76562 L 478.35742 321.64258 L 480.46094 319.53711 C 480.59166 319.40638 480.72331 319.27597 480.85547 319.14453 L 480.86523 324.22852 C 479.27712 325.02484 477.00492 325.8391 474.11133 326.5625 C 470.86084 327.37512 466.82633 327.81445 462.04297 327.81445 L 460.91406 327.81445 C 460.41521 327.70866 460.03271 327.71094 459.6543 327.71094 L 455.49805 327.71094 L 456.44336 331.75977 C 456.96378 333.99017 457.56533 335.8851 458.33398 337.50781 L 458.36328 337.57031 L 458.39648 337.63086 C 459.21951 339.19462 460.17786 340.54861 461.36914 341.64062 L 461.42773 341.69336 L 461.48633 341.74414 C 462.63518 342.70151 463.96307 343.42611 465.39062 343.83398 L 465.51953 343.87109 L 465.65039 343.89648 C 466.92331 344.15107 468.24879 344.27148 469.61914 344.27148 C 471.73798 344.27148 474.07697 343.85795 476.81055 343.11914 C 477.922 342.81875 478.94209 342.35307 480.01953 341.99023 L 480.01953 345.38867 C 479.48463 345.5975 479.11925 345.79815 478.43945 346.00586 C 477.03802 346.38592 475.45763 346.74287 473.68945 347.07031 C 471.93304 347.39557 470.06259 347.6567 468.08594 347.85547 C 466.1734 347.98601 464.29611 348.05273 462.45703 348.05273 C 460.78489 348.05273 459.27175 347.95553 457.92188 347.77148 L 452.24219 346.99805 L 454.42578 352.29688 C 454.66809 352.88534 454.8764 353.57043 455.04102 354.35547 L 448.42383 354.35547 L 453.69141 338.2793 L 452.35938 336.85352 C 451.98296 336.45021 451.56022 335.66096 451.34766 334.17969 L 451.34766 334.17773 L 451.3457 334.17773 L 451.3457 334.17578 C 451.09271 332.33618 450.96484 330.38174 450.96484 328.31055 L 450.96484 327.95898 L 455.75586 320.77344 L 446.90234 323.49609 C 444.31953 324.2908 441.70533 324.95164 439.05664 325.48242 C 436.4064 325.94464 433.79358 326.27669 431.2207 326.47461 L 428.35938 326.69531 L 427.9375 333.45508 L 429.96484 334.41016 C 430.36316 334.59761 430.59173 334.7801 430.90234 335.55664 L 430.92773 335.62109 L 430.95703 335.68359 C 431.24202 336.31691 431.59961 338.03828 431.59961 340.55859 C 431.59961 342.41352 431.46948 344.66333 431.20117 347.2793 C 430.93575 349.7978 430.53812 352.39341 430.00391 355.06445 L 429.99414 355.10352 L 429.98633 355.14258 C 429.52278 357.79143 428.92814 360.33156 428.20508 362.76367 L 428.19727 362.79102 L 428.18945 362.82031 C 427.86964 363.97163 427.46916 364.64635 427.10352 365.55859 L 426.4082 365.18359 C 426.4303 364.30565 426.46875 363.40045 426.46875 362.5625 L 426.46875 358.09766 C 426.46875 350.52858 426.11978 343.9053 425.40625 338.19141 C 424.75262 332.39949 423.637 328.00985 421.42578 324.78516 L 419.41797 321.85547 L 416.64453 324.07422 C 416.32471 324.33008 415.48261 324.8368 414.2793 325.38281 C 412.99569 325.8942 411.57646 326.41204 410.01367 326.93359 C 408.51611 327.38846 406.98532 327.8125 405.41992 328.20508 C 403.85461 328.52977 402.52991 328.75452 401.50586 328.875 L 398.59375 329.2168 L 398.59375 336.60156 L 402.61133 337.43359 C 403.50437 339.24342 404.38629 341.68351 405.09766 345.07617 L 405.10352 345.09961 L 405.10938 345.125 C 405.69612 347.72351 406.10387 350.80624 406.31445 354.35547 L 397.19336 354.35547 C 397.0235 351.6888 396.93945 348.99291 396.93945 346.26562 C 396.93945 340.32657 397.34685 335.2225 398.12891 330.98633 L 398.99805 326.28516 L 394.29492 327.14062 C 393.67446 327.25344 393.01128 327.33763 392.31445 327.39844 L 389.07422 327.39844 C 386.60125 327.39844 383.84425 327.14377 380.81641 326.61719 C 377.88499 326.10738 374.03392 325.07771 369.35938 323.51953 L 367.42383 322.875 L 365.98242 324.31836 C 363.02937 327.27141 360.00965 329.69814 356.92969 331.625 C 353.85866 333.47694 351.19444 334.53907 349.05078 334.92383 L 345.35156 335.58789 C 346.11038 334.38717 346.92869 333.29366 347.83008 332.33594 L 348.72656 331.38281 L 348.72656 326.36133 L 334.0918 326.36133 L 334.0918 324.16016 C 334.0918 323.65961 334.12331 322.63382 334.19141 321.20312 L 334.19141 321.19922 L 334.19141 321.19531 C 334.25781 319.73394 334.35938 318.23481 334.49219 316.70117 C 334.69399 315.0903 334.89487 313.57768 335.0957 312.17188 C 335.28462 310.84945 335.53444 309.92952 335.62109 309.71289 L 338.98047 301.30859 L 331.00195 305.57812 C 328.12002 307.11962 325.42845 308.38078 322.93945 309.36328 C 320.65392 310.26546 318.12748 310.8204 315.31641 311.00781 L 309.01367 311.42773 L 312.76172 316.11328 C 312.72912 316.07348 312.70657 316.05092 312.69727 316.04492 L 312.69727 316.04297 L 312.69531 316.04297 L 312.69336 316.04297 L 312.69336 316.04492 L 312.69336 316.04688 C 312.69536 316.09418 312.90922 316.50787 313.01758 317.08594 L 313.02344 317.10547 L 313.02734 317.125 C 313.21004 318.03848 313.37013 319.11975 313.5 320.35352 L 313.50195 320.36328 L 313.50195 320.37109 C 313.63367 321.55659 313.73301 322.74306 313.79883 323.92773 L 313.80469 324.0293 L 313.81641 324.12891 C 313.94778 325.24556 314.00195 326.05926 314.00195 326.33789 L 314.00195 328.03516 C 311.90083 329.74705 309.74838 331.11027 307.49609 331.98047 L 307.40039 332.01758 L 308.30273 330.7207 L 301.98828 330.7207 C 298.849 330.7207 296.35705 330.1942 294.41602 329.28711 C 292.43052 328.2569 290.39252 326.66755 288.33398 324.42188 L 286.53125 322.45703 L 284.23242 323.80469 C 282.65146 324.73146 280.10314 325.71005 276.69336 326.5625 C 273.44287 327.37512 269.40837 327.81445 264.625 327.81445 L 263.49609 327.81445 C 262.99724 327.70866 262.61475 327.71094 262.23633 327.71094 L 258.08008 327.71094 L 259.02344 331.75977 C 259.54386 333.99017 260.14737 335.8851 260.91602 337.50781 L 260.94531 337.57031 L 260.97852 337.63086 C 261.80155 339.19462 262.75989 340.54861 263.95117 341.64062 L 264.00977 341.69336 L 264.06836 341.74414 C 265.21721 342.70151 266.5451 343.42611 267.97266 343.83398 L 268.10156 343.87109 L 268.23242 343.89648 C 269.50534 344.15107 270.83082 344.27148 272.20117 344.27148 C 274.32001 344.27148 276.65898 343.85795 279.39258 343.11914 C 280.50401 342.81875 281.52412 342.35307 282.60156 341.99023 L 282.60156 345.38867 C 282.06666 345.5975 281.70128 345.79815 281.02148 346.00586 C 279.62005 346.38592 278.03966 346.74287 276.27148 347.07031 C 274.51507 347.39557 272.64462 347.6567 270.66797 347.85547 C 268.75544 347.98601 266.87815 348.05273 265.03906 348.05273 C 263.36692 348.05273 261.85378 347.95553 260.50391 347.77148 L 254.82422 346.99805 L 257.00781 352.29688 C 257.25013 352.88536 257.45842 353.57041 257.62305 354.35547 L 250.53516 354.35547 L 250.53516 311.28906 C 250.53516 307.85631 250.77076 304.8742 251.20898 302.35352 C 251.6845 300.00026 252.46412 298.33917 253.4043 297.21094 L 249.44922 292.11914 C 246.67065 293.44227 244.092 294.44968 241.72852 295.15234 L 241.7168 295.15625 L 241.70508 295.16211 C 239.48353 295.84092 237.42268 296.16016 235.50586 296.16016 C 233.92274 296.16016 232.66571 295.95058 231.71875 295.61914 L 223.77539 292.83789 L 227.71289 300.27539 C 228.27723 301.34136 228.73608 302.35742 229.0957 303.31641 C 229.43946 304.23309 229.69816 305.17621 229.87109 306.15625 L 229.88672 306.24805 L 229.9082 306.33789 C 230.13295 307.29307 230.28319 308.37658 230.34375 309.58789 C 230.40955 310.90329 230.44336 312.40791 230.44336 314.09375 L 230.44336 354.35742 L 205.62695 354.35742 L 212.00586 345.37891 L 219.62695 349.36133 L 221.33594 347.39453 C 223.01574 345.46278 224.33912 343.14012 225.35156 340.49219 L 225.35742 340.47852 L 225.36523 340.46289 C 226.36665 337.76677 227.04504 334.84546 227.41797 331.71289 L 227.76367 328.79492 L 224.90625 328.11328 C 222.10421 327.44613 219.55649 326.71486 217.26172 325.92969 C 214.99382 325.08469 213.29535 324.27875 212.30664 323.6543 L 208.86133 321.48047 L 207.44922 325.30078 C 206.8619 326.89 206.17735 328.29827 205.53906 329.79297 L 205.53906 328.74805 L 201.94336 322.75586 L 199.57031 323.34766 C 197.40903 323.88798 194.92567 324.46506 192.13477 325.07812 C 189.35557 325.61996 186.7876 326.06103 184.43945 326.39648 L 181.60742 326.80078 L 181.60742 330.72266 L 175.4082 330.72266 C 172.26893 330.72266 169.77696 330.19614 167.83594 329.28906 C 165.85043 328.25885 163.81049 326.6695 161.75195 324.42383 L 159.95117 322.45898 L 157.65234 323.80664 C 156.07138 324.73341 153.52307 325.712 150.11328 326.56445 C 146.8628 327.37707 142.82634 327.81641 138.04297 327.81641 L 136.91602 327.81641 C 136.41693 327.7105 136.03478 327.71289 135.65625 327.71289 L 131.49805 327.71289 L 132.44336 331.76172 C 132.96379 333.99212 133.56729 335.88706 134.33594 337.50977 L 134.36523 337.57227 L 134.39648 337.63281 C 135.21951 339.19657 136.17981 340.55057 137.37109 341.64258 L 137.42773 341.69531 L 137.48828 341.74609 C 138.63713 342.70346 139.96502 343.42807 141.39258 343.83594 L 141.52148 343.87305 L 141.65234 343.89844 C 142.92525 344.15303 144.24879 344.27344 145.61914 344.27344 C 147.73798 344.27344 150.07891 343.8599 152.8125 343.12109 C 153.92394 342.8207 154.94404 342.35503 156.02148 341.99219 L 156.02148 345.39062 C 155.48776 345.59902 155.12335 345.79856 154.44531 346.00586 C 153.04258 346.38647 151.45986 346.74442 149.68945 347.07227 C 147.93305 347.39753 146.06454 347.65865 144.08789 347.85742 C 142.17468 347.98805 140.29869 348.05469 138.45898 348.05469 C 136.78683 348.05469 135.27173 347.95749 133.92188 347.77344 L 128.24414 347 L 130.42578 352.29883 C 130.66809 352.8873 130.87777 353.57238 131.04297 354.35742 L 123.34961 354.35742 C 123.33731 353.56196 123.33203 352.76874 123.33203 351.97656 C 123.33203 348.02022 123.43516 344.27765 123.63867 340.75 C 123.84541 337.16652 124.05207 334.001 124.25781 331.25781 L 124.5332 327.57617 L 120.84375 327.71484 C 117.16713 327.85358 113.90335 327.99171 111.05078 328.13086 C 108.1767 328.27106 105.57266 328.44741 103.23242 328.66016 L 103.22656 328.66016 L 103.22266 328.66016 C 100.92474 328.87559 98.788153 329.16431 96.806641 329.53125 L 96.794922 329.5332 L 96.783203 329.53516 C 96.102419 329.66608 95.474712 329.85953 94.810547 330.00977 C 94.660947 329.19041 94.456629 328.36915 94.34375 327.55078 C 94.087315 325.69163 93.958984 323.83734 93.958984 321.98242 C 93.958984 319.78058 94.180007 317.66115 94.615234 315.60938 L 94.617188 315.59766 L 94.619141 315.58789 C 94.816721 314.62821 95.270587 313.79728 95.583984 312.89844 C 96.002384 313.09076 96.317641 313.31888 96.761719 313.50391 C 98.494436 314.22588 100.22987 314.8774 101.96875 315.45703 L 102.04492 315.48242 L 102.12305 315.50391 C 103.89844 316.00102 105.57486 316.42921 107.1582 316.78906 L 107.24023 316.80859 L 107.32422 316.82227 C 109.02699 317.11841 110.44757 317.28711 111.73047 317.28711 C 115.53297 317.28711 119.10502 315.48783 121.91211 312.51562 C 124.59787 309.67188 126.6903 306.19385 128.20508 302.17969 L 130.50195 296.0957 L 124.23633 297.83594 C 123.09669 298.15251 121.91952 298.43656 120.71094 298.69336 C 119.5883 298.86784 118.4312 298.96094 117.23047 298.96094 C 115.28047 298.96094 113.41295 298.80113 111.61523 298.49414 C 109.76488 298.10883 108.02213 297.63508 106.38867 297.07031 C 106.16241 296.98871 105.97779 296.88471 105.75586 296.80078 C 109.38907 294.32986 112.79632 292.02135 115.40039 290.28516 L 115.42773 290.26562 C 118.62773 288.17811 120.68521 286.77149 121.97266 285.66797 L 124.99805 283.07422 L 121.88672 280.58594 C 120.90467 279.8003 120.17922 279.16166 119.77148 278.75391 C 119.16933 278.15177 118.3559 277.3736 117.30273 276.39062 L 115.50781 274.7168 z M 181.60742 330.88281 L 181.60742 332.96875 L 185.44727 334.63086 L 185.44727 354.35547 L 176.12695 354.35547 C 176.11675 353.57671 176.11133 352.74878 176.11133 351.87109 C 176.11133 346.89856 176.2558 343.14807 176.50781 340.73633 C 176.80805 338.50067 177.40803 336.91894 178.11523 335.90234 L 181.60742 330.88281 z M 305.38672 334.91211 L 305.38672 339.49805 L 314.00195 339.49805 L 314.00195 354.35547 L 302.70703 354.35547 C 302.69703 353.5766 302.69336 352.74892 302.69336 351.87109 C 302.69336 346.90291 302.83629 343.15809 303.08789 340.74609 C 303.38761 338.50444 303.98888 336.92065 304.69727 335.90234 L 305.38672 334.91211 z M 344.63477 337.20508 L 346.85156 339.97461 L 346.85156 339.97656 C 346.86276 340.00376 346.87497 340.03516 346.88477 340.06836 C 346.96957 340.35459 347.0918 340.87494 347.2168 341.5625 C 347.47076 342.95925 347.705 344.71148 347.90625 346.79102 L 347.91211 346.84375 L 347.91797 346.89648 C 348.18351 348.9544 348.38512 351.15963 348.51953 353.51172 L 348.51953 353.51562 L 348.51953 353.51758 C 348.53613 353.79987 348.55191 354.07864 348.56641 354.35547 L 334.0918 354.35547 L 334.0918 340.77148 L 343.14258 341.91406 L 343.85352 339.07422 C 343.99651 338.50224 344.36447 337.8339 344.63477 337.20508 z M 346.77539 339.83984 L 346.77734 339.83984 L 346.77734 339.8418 L 346.7793 339.8418 L 346.78125 339.84375 C 346.79025 339.85385 346.81194 339.88775 346.83594 339.93945 C 346.79864 339.88485 346.78114 339.8521 346.77734 339.8418 L 346.77539 339.8418 L 346.77539 339.83984 z M 368.21094 341.0293 C 369.02428 341.25415 369.774 341.48983 370.69531 341.69922 L 370.73047 341.70703 L 370.76562 341.7168 C 372.9472 342.16303 375.2041 342.4065 377.44922 342.68164 L 377.29102 365.04883 C 375.93445 364.72981 374.67668 364.33319 373.22852 364.08594 C 371.44602 363.78161 369.91562 363.59042 368.31055 363.36523 C 368.37585 361.9161 368.45275 360.478 368.49414 359.00586 C 368.63504 356.39932 368.70703 354.059 368.70703 351.97656 C 368.70703 349.35894 368.63583 346.77424 368.49414 344.22266 L 368.49414 344.21484 C 368.44004 343.21465 368.29538 342.07606 368.21094 341.0293 z M 156.125 358.33984 L 156.125 364.54883 C 155.25748 364.43301 154.2254 364.1773 153.44336 364.14453 C 152.94722 364.12293 152.47878 364.07538 151.99023 364.04688 L 152.08203 359.36133 C 152.87498 359.19999 153.55341 359.13402 154.43945 358.9043 L 154.49414 358.89062 L 154.54883 358.875 C 155.05853 358.72397 155.60715 358.50509 156.125 358.33984 z M 282.70312 358.3418 L 282.70312 364.54883 C 281.83628 364.43315 280.80492 364.17727 280.02344 364.14453 C 279.5273 364.12293 279.05886 364.07538 278.57031 364.04688 L 278.66211 359.36133 C 279.45506 359.19999 280.13349 359.13402 281.01953 358.9043 L 281.07422 358.89062 L 281.12891 358.875 C 281.63785 358.7242 282.18604 358.50678 282.70312 358.3418 z M 480.12109 358.3418 L 480.12109 364.54883 C 479.25425 364.43315 478.22289 364.17727 477.44141 364.14453 C 476.94527 364.12293 476.47683 364.07538 475.98828 364.04688 L 476.08008 359.36133 C 476.87303 359.19999 477.55146 359.13402 478.4375 358.9043 L 478.49219 358.89062 L 478.54688 358.875 C 479.05581 358.7242 479.60404 358.50678 480.12109 358.3418 z M 250.53516 358.89062 L 258.0957 358.89062 C 258.1027 359.17568 258.10742 359.46574 258.10742 359.75977 C 258.10742 362.47252 258.03992 365.18549 257.9043 367.89844 C 257.77802 370.35009 257.39447 372.27437 256.875 373.625 L 255.19141 377.99805 C 254.66073 377.28235 253.99593 376.4275 253.57227 375.82227 L 253.54883 375.79102 L 253.52539 375.75781 C 252.73648 374.68715 252.14271 373.58825 251.70117 372.44531 C 251.31605 371.27242 251.00979 369.8694 250.82617 368.2168 C 250.63883 366.53074 250.53516 364.27991 250.53516 361.52344 L 250.53516 358.89062 z M 236.81836 391.24219 L 234.76172 392.44336 C 234.04229 392.86303 233.16706 393.33065 232.1582 393.83594 C 231.11255 394.29463 230.04143 394.78291 228.93945 395.30078 C 227.85426 395.74763 226.76879 396.19378 225.68359 396.64062 C 225.0162 396.8909 224.47564 397.06472 223.9043 397.25586 C 223.25807 397.0261 222.63212 396.80185 221.9043 396.54492 C 220.79941 396.08996 219.69472 395.63464 218.58984 395.17969 C 218.57984 395.17569 218.57025 395.17167 218.56055 395.16797 C 217.49464 394.66777 216.45449 394.19469 215.44141 393.75 C 214.4512 393.22268 213.54283 392.74993 212.73047 392.34375 L 210.80859 391.38281 L 209.19141 392.79883 C 208.0888 393.76361 207.25055 394.52876 206.61914 395.16016 C 206.25696 395.52234 205.54871 396.16964 204.57031 397.01758 L 201.55859 399.62891 L 204.75781 402.00781 C 207.17338 403.80223 209.94462 405.71549 213.07617 407.75781 L 213.10938 407.7793 L 213.14258 407.80078 C 216.11009 410.65311 217.37228 411.8411 220.19336 413.98828 C 219.26837 413.97548 220.36049 414.01004 219.26172 413.96484 C 217.71316 413.83502 215.82698 413.64109 213.59766 413.37891 C 211.41187 413.11397 208.64281 412.74746 205.29883 412.2793 L 203.71875 412.05859 L 202.5918 413.18555 C 200.64384 415.13352 198.49704 416.76484 196.13086 418.09961 L 196.11523 418.10742 L 196.10156 418.11914 C 193.77835 419.46416 190.98771 420.69356 187.73047 421.7793 L 183.94336 423.04297 L 187.70117 429.30469 L 190.16406 428.32031 L 190.95703 428.32031 C 193.19612 428.32031 195.47474 428.50624 197.79688 428.88281 L 197.84375 428.89062 L 197.89062 428.89648 C 200.39789 429.22638 203.01105 429.62427 205.72656 430.08789 L 205.76953 430.09375 L 205.8125 430.10156 C 208.64632 430.5064 211.61281 430.91205 214.71289 431.31641 L 214.75 431.32031 L 214.78711 431.32422 C 216.97898 431.55739 219.48527 431.59508 221.92773 431.67188 C 220.81767 433.63124 219.6513 435.88942 218.625 437.41211 C 216.77311 440.09256 214.9839 442.24592 213.30664 443.86328 C 211.66377 445.44511 210.11111 446.59834 208.69141 447.36523 C 207.26 448.10705 205.87825 448.60131 204.5293 448.87109 L 198.81641 450.01172 L 202.84375 454.22266 C 203.9043 455.33142 204.17187 456.10066 204.17188 456.94336 C 204.17188 457.70993 203.7832 459.21999 202.66406 461.22266 C 201.49929 463.30698 199.65262 466.076 197.15234 469.43164 L 176.62891 496.57812 L 184.23047 495.56445 C 187.17891 495.17133 189.77752 494.91399 192.01758 494.78516 C 194.23965 494.72216 196.2594 494.69341 198.10156 494.69141 C 199.64359 494.88009 201.06901 495.0935 202.3418 495.33594 L 202.35547 495.33789 L 202.36914 495.33984 C 203.85455 495.60992 205.37197 495.8805 206.92383 496.15039 L 206.93555 496.15234 L 206.94727 496.1543 C 208.65163 496.43836 210.47626 496.6447 212.41602 496.78516 C 214.43856 496.99991 216.73772 497.10352 219.35547 497.10352 C 221.97239 497.10352 224.82841 496.9254 227.92969 496.58203 C 231.22003 496.29306 234.47544 495.64826 237.68164 494.6543 C 241.00281 493.7128 244.21498 492.37856 247.30078 490.65625 C 250.52038 488.85926 253.35265 486.51531 255.74219 483.67773 L 256.70703 482.5332 C 256.69903 482.5642 256.69705 482.60201 256.68945 482.63281 C 256.33822 483.97422 255.93775 484.91952 255.65625 485.37695 L 252.65234 490.25586 L 258.38086 490.25586 C 259.29293 490.25586 260.64262 490.39258 262.33008 490.70508 L 262.33984 490.70703 L 262.34961 490.70898 C 264.09051 491.01986 265.87639 491.45786 267.70508 492.02539 L 267.76562 492.04492 L 267.82812 492.06055 C 269.69678 492.55885 271.49632 493.17979 273.23242 493.92383 C 274.93893 494.65519 276.30544 495.42418 277.32812 496.17773 L 279.19727 497.55469 L 281.08789 496.20508 C 281.75205 495.73068 282.80781 495.14993 284.17578 494.55078 C 285.69482 493.98337 287.27599 493.44243 288.92969 492.93359 L 288.98242 492.91797 L 289.03516 492.89844 C 290.64219 492.34216 292.23997 491.91322 293.83008 491.60742 L 293.88867 491.59766 L 293.94531 491.58398 C 295.60033 491.20206 296.99645 490.9571 298.0918 490.8418 L 302.18359 490.41211 L 300.76172 486.55273 C 300.36939 485.48785 300.1001 484.44146 299.93164 483.40625 C 299.83105 482.36177 299.76445 480.90342 299.75195 479.04297 L 307.5 479.04297 L 307.5 482.41992 C 307.5 483.99488 307.23432 485.01378 307.03125 485.41992 L 307.01172 485.45898 L 306.99414 485.49805 C 306.84966 485.80766 306.77214 485.89997 306.74609 485.91992 L 306.74414 485.92188 L 306.74219 485.92188 L 306.74023 485.92188 L 306.73828 485.92188 L 306.73828 485.91992 L 306.73828 485.91797 L 304.7793 486.73047 L 304.7793 493.57617 L 329.71094 493.57617 L 329.71094 486.63672 L 327.67383 485.88281 C 327.64373 485.82811 327.57873 485.69562 327.47461 485.41406 C 327.2293 484.7508 326.99219 483.39982 326.99219 481.51367 L 326.99219 461.9375 L 334.28711 458.67578 L 334.28711 467.24219 L 334.28711 467.26953 C 334.35391 471.07762 334.38672 474.88529 334.38672 478.69336 C 334.38672 479.23786 334.32662 480.42323 334.19531 482.06445 C 334.0633 483.71457 333.89841 485.53686 333.69922 487.5293 C 333.50531 489.40384 333.24737 491.27777 332.92383 493.1543 L 332.92188 493.16406 L 332.91992 493.17383 C 332.59941 495.0969 332.25086 496.65924 331.9043 497.81445 L 331.35547 499.64648 L 335.6543 503.94531 L 337.91406 501.52344 C 338.77443 500.60162 339.77862 499.62735 340.92383 498.60938 C 342.05744 497.60172 343.25849 496.62291 344.52539 495.67188 C 345.84707 494.72933 347.1277 493.88549 348.36719 493.14062 C 349.61913 492.42728 350.81405 491.87826 351.93945 491.48438 L 354.56641 490.56445 L 354.01953 487.83398 C 353.89224 487.1975 353.76495 486.52606 353.63672 485.82227 L 353.63477 485.81055 C 353.5295 485.17599 353.43554 484.27325 353.37305 483.14844 C 353.31325 482.07349 353.25242 480.69732 353.19141 479.04297 L 359.62891 479.04297 C 359.59981 479.91418 359.56311 480.78501 359.51953 481.65625 C 359.39711 484.03609 359.02372 485.90201 358.51953 487.21289 L 356.87695 491.48438 L 361.45312 491.5625 C 365.14065 491.6261 368.34492 492.04054 371.05664 492.76367 L 371.06445 492.76562 L 371.07227 492.76758 C 373.88554 493.50148 376.40897 494.55802 378.68164 495.93359 L 381.03906 497.36133 L 386.84766 490.37305 C 387.07148 490.70158 387.19284 491.04732 387.43359 491.37305 C 388.76487 493.1742 390.30726 494.69181 392.05859 495.85938 L 395.07617 497.87109 L 396.69727 494.62695 C 396.97284 494.0758 397.47822 493.26862 398.20703 492.29688 C 398.91664 491.35073 399.72246 490.42404 400.62891 489.51758 C 401.56052 488.58598 402.48128 487.75952 403.38672 487.03516 L 403.39648 487.02734 L 403.40625 487.01953 C 404.28169 486.30824 405.00824 485.90638 405.48438 485.73633 L 407.60938 484.97852 L 407.60938 479.06836 L 405.12891 478.49609 C 404.63563 478.38225 404.35388 478.23741 404.13086 478.10742 C 404.12186 478.08842 404.00486 477.93447 403.84961 477.46484 C 403.60353 476.62244 403.35484 475.28591 403.16797 473.56445 C 403.04447 471.74279 402.97656 469.25145 402.97656 466.10547 C 402.97656 461.28391 403.11516 457.65079 403.35938 455.31055 C 403.65024 453.13617 404.23467 451.60115 404.92188 450.61328 L 408.41992 445.58398 L 402.29297 445.58398 C 399.24574 445.58398 396.82701 445.0722 394.94336 444.19141 C 393.01805 443.19176 391.04099 441.64822 389.04492 439.4707 L 387.29688 437.56445 L 385.06641 438.87305 C 383.53245 439.77227 381.05844 440.72366 377.75 441.55078 C 374.59614 442.33925 370.68025 442.76367 366.03906 442.76367 L 364.94531 442.76367 C 364.4615 442.66114 364.0917 442.66406 363.72461 442.66406 L 359.68945 442.66406 L 360.60547 446.5918 C 361.11043 448.7559 361.6956 450.59544 362.44141 452.16992 L 362.4707 452.23047 L 362.50195 452.28906 C 363.30052 453.80634 364.23084 455.12014 365.38672 456.17969 L 365.44336 456.23047 L 365.50195 456.2793 C 366.61666 457.20822 367.90393 457.91283 369.28906 458.30859 L 369.41406 458.34375 L 369.54102 458.36914 C 370.77611 458.61617 372.06101 458.73242 373.39062 458.73242 C 375.44648 458.73242 377.7168 458.33208 380.36914 457.61523 C 381.44732 457.32383 382.43722 456.87151 383.48242 456.51953 L 383.48242 459.81641 C 382.96978 460.01655 382.61862 460.20904 381.96875 460.4082 C 380.60472 460.77874 379.06279 461.1282 377.33984 461.44727 C 375.64211 461.76166 373.83559 462.01637 371.92578 462.20898 C 370.06248 462.33665 368.23484 462.40234 366.44336 462.40234 C 364.82093 462.40234 363.35075 462.30755 362.04102 462.12891 L 356.53125 461.37695 L 358.64844 466.51953 C 358.99459 467.36022 359.27207 468.40403 359.44336 469.66016 L 359.44531 469.66992 L 359.44727 469.67969 C 359.62453 470.92056 359.7168 472.28186 359.7168 473.75977 C 359.7168 474.00899 359.71606 474.25859 359.71484 474.50781 L 353.17578 474.50781 L 353.17578 471.3418 C 353.17578 467.87121 353.20959 464.97642 353.27539 462.67188 C 353.34129 460.36496 353.40729 458.43632 353.47266 456.85742 C 353.59933 455.34498 353.72474 454.1303 353.84375 453.22461 C 354.02512 452.26988 354.23156 451.37996 354.46289 450.57031 L 355.20703 447.96484 L 352.76172 446.80078 C 351.4259 446.16468 350.27092 445.56913 349.28711 445.01758 C 348.28564 444.39078 347.31529 443.76529 346.37695 443.14062 C 345.5302 442.53478 344.67427 441.86503 343.8125 441.12695 C 343.8085 441.12395 343.80448 441.12119 343.80078 441.11719 C 342.88929 440.27039 341.89211 439.33504 340.78906 438.29688 L 338.4668 436.10938 L 336.27148 438.42578 C 333.93062 440.89669 331.67379 443.0222 329.51172 444.80273 C 328.77751 445.40737 327.79775 446.02579 326.99219 446.63477 L 326.99219 443.66797 L 323.50391 437.85352 L 321.20312 438.42773 C 319.10809 438.95149 316.6989 439.51322 313.99414 440.10742 C 311.29473 440.63381 308.80189 441.06095 306.52148 441.38672 L 303.77344 441.7793 L 303.77344 447.76562 L 307.5 449.37695 L 307.5 474.50781 L 299.80469 474.50781 C 299.81509 474.34749 299.82644 474.18779 299.83984 474.02734 L 300.22852 469.35547 L 295.73633 470.69336 C 292.26031 471.72877 289.48813 473.08396 287.5332 475.23438 L 287.50586 475.26367 L 287.48047 475.29492 C 286.46458 476.47121 285.75222 477.85183 285.19336 479.30859 C 284.91677 479.28239 284.73549 479.27189 284.4375 479.24219 C 283.14076 479.04791 281.81489 478.85235 280.45703 478.6582 C 279.10571 478.40035 277.81828 478.14347 276.59766 477.88672 C 276.48384 477.86142 276.44446 477.83429 276.33594 477.80859 C 276.41504 477.03611 276.47634 476.38877 276.57031 475.51172 C 276.68585 474.43334 276.72779 473.32212 276.80078 472.22461 C 280.012 471.71624 283.2387 471.21922 286.58008 470.79492 L 286.60352 470.79102 L 286.62891 470.78711 C 290.79749 470.1916 294.89688 469.72867 298.92578 469.39844 L 303.14844 469.05273 L 301.66016 465.08398 C 301.32406 464.18772 300.98925 463.04257 300.67773 461.67188 C 300.36713 460.30525 300.11497 458.86511 299.92578 457.35156 C 299.7302 455.78694 299.56797 454.22422 299.4375 452.66016 L 299.4375 452.64844 C 299.30949 451.04527 299.24611 449.58659 299.24609 448.28125 C 299.24609 446.58712 299.34519 445.22784 299.50391 444.27539 L 300.10547 440.67383 L 296.45508 440.55078 C 292.565 440.41891 288.64045 440.18842 284.68164 439.85938 L 284.67969 439.85938 L 284.67773 439.85938 L 284.67578 439.85938 L 284.67383 439.85742 L 284.67188 439.85742 C 280.71726 439.46169 277.41425 439.00137 274.80469 438.49219 L 273.13281 438.16602 L 271.92969 439.37109 C 269.72002 441.58075 267.51111 443.37641 265.31836 444.77734 L 265.30078 444.78906 L 265.28516 444.80078 C 263.29582 446.10805 261.09966 446.9864 258.60156 447.45117 L 255.08203 448.10547 L 256.125 451.5293 C 256.52724 452.85092 256.98453 454.90605 257.44141 457.58203 L 257.44922 457.625 L 257.45898 457.66992 C 257.9347 460.04854 258.20117 463.25749 258.20117 467.21289 C 258.20117 468.73526 258.13787 470.44359 258.00781 472.33008 L 258.00391 472.38672 L 258.00195 472.44141 C 257.94055 474.22378 257.78234 475.9671 257.54297 477.68164 L 252.78125 478.45508 C 250.38116 478.84429 248.19788 479.10026 246.24023 479.22656 C 244.26416 479.35404 242.25174 479.41382 240.20703 479.41602 C 237.93643 479.28976 235.40397 478.95042 232.61328 478.38086 C 229.80894 477.74186 226.42382 476.76888 222.48242 475.45508 L 218.26953 474.05078 L 218.26953 478.49219 C 218.26953 479.31607 218.45981 480.09498 218.5918 480.88867 C 217.62982 480.77385 216.32167 480.78615 215.54688 480.60938 C 214.69575 480.40895 213.74466 480.06607 212.85742 479.81445 L 220.36719 469.15039 L 220.37305 469.14258 C 221.4224 467.63415 222.46917 466.19513 223.51367 464.82422 C 224.4988 463.53125 225.46008 462.45516 226.37891 461.59375 L 226.38086 461.5918 L 226.38281 461.58984 C 227.33167 460.6968 228.25614 460.04869 229.14648 459.60352 L 229.20898 459.57227 L 229.26953 459.53906 C 229.97675 459.14616 230.68038 458.98382 231.51758 458.96484 L 231.72656 459.03516 L 232.95117 459.03516 L 234.45703 453.00977 C 233.70362 452.60794 233.2704 452.26771 233.03125 452.04883 C 233.0313 452.02333 233.03125 451.97903 233.03125 451.90625 C 233.03125 451.63489 233.25023 450.54147 233.93555 449.04492 C 234.70117 447.45809 236.00514 445.24133 237.83008 442.50391 L 237.83984 442.49023 L 237.85156 442.47461 C 239.68119 439.66483 242.09957 436.21572 245.0957 432.1543 L 245.10352 432.14453 L 245.11133 432.13477 C 248.12019 427.98922 251.80445 422.99857 256.16211 417.16602 L 260.66406 411.14062 L 253.20117 412.07422 C 250.53843 412.40706 248.0787 412.70443 245.81641 412.9707 C 243.55557 413.17031 241.39221 413.37047 239.32617 413.57031 C 239.31497 413.57131 239.30222 413.57322 239.29102 413.57422 C 237.27085 413.7047 235.31248 413.8343 233.41797 413.96484 C 231.51824 414.03004 231.54477 413.87891 229.57617 413.87891 L 227.26562 413.87891 L 227.55273 413.68359 C 231.97058 410.67829 233.80386 408.53431 236.7168 406.34961 L 236.73242 406.33789 C 239.84633 404.30676 241.84051 402.94168 243.0918 401.86914 L 246.02734 399.35352 L 243.00977 396.93945 C 242.05692 396.17716 241.35266 395.55774 240.95703 395.16211 C 240.37278 394.57786 239.58243 393.82289 238.56055 392.86914 L 236.81836 391.24219 z M 306.73828 485.91797 L 306.74023 485.91797 L 306.74219 485.91602 L 306.73828 485.91797 z M 276.37891 454.74414 C 277.0439 454.8718 277.6425 455.06053 278.33008 455.16797 L 278.38477 455.17578 L 278.43945 455.18555 C 279.59539 455.32566 280.45786 455.32682 281.46289 455.39844 C 281.51579 456.05494 281.50559 456.7281 281.59375 457.375 L 281.60352 457.44531 L 281.61719 457.51367 C 281.69909 457.96411 281.80638 458.37077 281.89453 458.81055 L 276.82422 460.06641 C 276.76992 459.34637 276.75212 458.70915 276.68164 457.95117 L 276.67773 457.91211 C 276.61953 456.98678 276.47199 455.77983 276.37891 454.74609 L 276.37891 454.74414 z M 383.58398 472.38086 L 383.58398 478.40625 C 382.7423 478.29389 381.74116 478.04351 380.98242 478.01172 L 380.97656 478.01172 C 380.49708 477.99082 380.04445 477.94537 379.57227 477.91797 L 379.66211 473.37305 C 380.4315 473.21652 381.08951 473.15062 381.94922 472.92773 L 382.00195 472.91406 L 382.05469 472.89844 C 382.54911 472.75195 383.08165 472.54115 383.58398 472.38086 z " /></g><g
     inkscape:groupmode="layer"
     id="layer2"
     inkscape:label="Content"
     style="display:inline"><g
       id="path3"
       style="opacity:1"><path
         style="baseline-shift:baseline;display:inline;overflow:visible;vector-effect:none;fill:none;stroke:#000000;stroke-opacity:1;enable-background:accumulate;stop-color:#000000;stop-opacity:1"
         d="m 268.82227,51.798828 c -0.54233,0.145464 -1.06613,0.443032 -1.42969,0.867188 -0.36356,0.424155 -0.55284,0.911417 -0.67969,1.396484 -0.046,0.175806 -0.26293,0.505227 -0.88867,0.857422 -0.62574,0.352195 -1.6013,0.685392 -2.8418,0.904297 -2.39893,0.42332 -6.68529,1.486231 -9.70312,2.40039 -2.95971,0.896558 -9.25965,2.795671 -13.99805,4.21875 -10.95697,3.290704 -24.53117,7.600646 -35.85938,11.330078 -5.6641,1.864717 -10.76469,3.583794 -14.70117,4.958985 -3.93648,1.375191 -6.62019,2.358063 -7.78711,2.93164 -2.46207,1.210184 -6.36351,3.510253 -8.84961,5.212891 -2.27202,1.55601 -8.75555,5.214851 -14.16796,7.964844 -5.07093,2.57648 -9.20438,5.132461 -12.125,7.468753 -1.46031,1.16814 -2.61936,2.27907 -3.45118,3.35351 -0.83182,1.07444 -1.38476,2.12871 -1.38476,3.28516 0,0.11736 -0.11057,0.60092 -0.34961,1.07812 -0.23904,0.47721 -0.58784,0.97652 -0.91797,1.30664 -1.40579,1.4058 -2.25579,3.54827 -2.50977,5.74415 -0.25397,2.19587 0.10282,4.56056 1.77539,6.07421 1.30648,1.18237 3.11387,1.73444 5.4004,1.73829 2.28652,0.004 5.12847,-0.49039 8.875,-1.44532 0.97192,-0.24773 1.62492,-0.24723 2.62109,0.10938 0.99616,0.35661 2.31881,1.14142 4.21875,2.50586 1.61956,1.16307 3.05878,1.91046 4.42383,2.20507 1.36505,0.29462 2.73493,0.0563 3.73047,-0.76757 1.99106,-1.64785 2.43091,-4.75675 2.25,-9.08008 -0.007,-0.16789 0.004,-0.26334 -0.002,-0.42774 0.0807,0.26528 0.14461,0.42339 0.22657,0.69922 0.94049,3.1654 1.94709,6.93541 2.63476,9.31055 0.42533,1.46906 0.92403,2.62912 1.50586,3.50781 0.58183,0.8787 1.25867,1.57805 2.27734,1.71485 0.50934,0.0684 1.06635,-0.0728 1.48243,-0.35547 0.41608,-0.28272 0.70943,-0.66798 0.93945,-1.09961 0.46003,-0.86327 0.70167,-1.96123 0.80469,-3.38281 0.22468,-3.10054 0.72957,-4.85024 1.18554,-5.71094 0.45598,-0.86071 0.68613,-0.85392 0.92188,-0.88477 0.0944,-0.0124 0.22238,-0.001 0.36133,0.0117 0.35142,0.6986 0.50154,1.05357 0.92578,1.86328 1.16692,2.22723 2.5504,4.73962 3.85937,6.84375 0.65449,1.05207 1.28971,2.0006 1.88477,2.77539 0.59506,0.7748 1.09488,1.37251 1.77344,1.78516 0.56937,0.34625 1.9414,1.59738 3.33789,3.21875 1.39649,1.62137 2.89984,3.64293 4.09179,5.65625 l 3.26172,5.50976 -3.0957,3.33204 0.26367,-0.21289 c -1.41979,0.8432 -2.57804,2.27485 -3.63672,3.67187 -1.05868,1.39702 -2.01376,2.80148 -2.55273,3.39063 -2.12068,2.31809 -1.54087,2.08373 -6.04688,4.32617 -3.80659,1.89437 -7.35382,4.36612 -11.01758,7.66015 -0.88798,0.79838 -1.58581,1.31558 -2.36132,1.9375 0.20165,-0.27246 0.27108,-0.42814 0.5,-0.72265 1.87674,-2.41453 4.61501,-5.52962 7.42773,-8.66407 2.91513,-3.24854 4.95619,-5.57444 5.97266,-7.87304 1.01647,-2.29861 0.72936,-4.67176 -0.85352,-6.93164 -1.51355,-2.16089 -3.97032,-4.54223 -6.80664,-6.34766 -2.83631,-1.80543 -6.06941,-3.07189 -9.17969,-2.60547 -3.32481,0.49859 -4.74535,0.26916 -6.26757,-0.80078 -1.59233,-1.11922 -4.47691,-2.33498 -6.85743,-2.97851 -1.9317,-0.5222 -5.34855,-2.37062 -7.07226,-3.85938 -2.06522,-1.78368 -5.83426,-4.20952 -8.66992,-5.60547 -2.74922,-1.35338 -5.20176,-1.86627 -7.29883,-1.58789 -2.09708,0.27838 -3.81524,1.42772 -4.78321,3.12305 -1.93593,3.39065 -1.15188,8.52483 2.3418,13.98633 1.0275,1.60624 2.04767,3.47343 2.8457,5.15625 0.79804,1.68281 1.37263,3.23489 1.51172,3.96484 0.37295,1.95718 1.5619,4.78746 3.01563,7.69727 1.45373,2.9098 3.14924,5.80279 4.63086,7.64843 0.17785,0.22156 0.59238,1.00468 0.92773,1.91602 0.33536,0.91133 0.63716,1.98296 0.81055,2.9375 1.01069,5.56413 5.35746,14.56267 9.40625,19.65039 1.65969,2.08559 3.43719,5.41913 3.75976,6.73828 0.49721,2.03335 1.95586,5.03452 3.40235,7.16602 0.54379,0.80132 1.55163,2.89081 2.57226,5.4082 1.02064,2.51739 2.10044,5.51326 2.98243,8.35156 3.54759,11.41629 7.39027,16.67873 16.98046,23.24805 2.95242,2.02242 6.98987,4.24369 10.64454,5.98437 1.82733,0.87035 3.5557,1.61872 5.01367,2.15821 1.45796,0.53948 2.54942,0.90234 3.56445,0.90234 0.92917,0 1.6799,-0.41123 2.53906,-0.97852 0.85917,-0.56728 1.7971,-1.34981 2.81836,-2.32421 1.88162,-1.79527 4.06732,-4.37177 6.28125,-7.26172 -0.30572,0.82425 -0.52725,1.50374 -0.90429,2.43164 -1.20244,2.95922 -1.88557,4.81184 -2.12305,6.42773 -0.23748,1.61589 0.0674,2.96116 0.66601,4.40625 1.6627,4.01409 6.68141,6.86112 14.6836,9.19336 2.42585,0.70702 6.99924,2.94497 9.74805,4.81055 6.05988,4.1127 12.36726,5.02624 16.79101,1.92773 0.97088,-0.68003 1.72676,-1.79299 2.52344,-3.18554 0.79668,-1.39255 1.54604,-3.04509 2.08398,-4.6875 1.24764,-3.80921 3.29511,-8.50384 5.08008,-11.98047 0.43319,-0.84373 0.73978,-1.28015 1.125,-1.94922 -0.22804,1.40891 -0.52258,3.00754 -0.93359,4.70898 -1.30273,5.39275 -1.99126,10.18335 -2.04297,14.03321 -0.0517,3.84985 0.41244,6.79314 2.02734,8.57812 1.549,1.71213 4.96912,3.79695 8.51172,5.69727 1.7713,0.95015 3.54525,1.81366 5.07227,2.45117 1.52702,0.63751 2.6754,1.0918 3.79297,1.0918 0.99716,0 2.14289,-0.32238 3.5625,-0.77344 1.4196,-0.45107 3.02886,-1.05472 4.55859,-1.69531 1.52972,-0.6406 2.97247,-1.31469 4.07617,-1.92383 0.0308,-0.017 0.0479,-0.0319 0.0781,-0.0488 -0.0174,0.0285 -0.0175,0.0417 -0.0352,0.0703 l -2.9668,4.79883 3.41407,2.73828 c 1.21083,0.97123 2.49434,1.63126 4.33593,1.87695 1.8416,0.2457 4.25477,0.17405 8.22657,-0.0488 5.14202,-0.28853 11.36474,-1.27008 14.3457,-2.36524 2.2944,-0.84294 9.43977,-1.9852 15.27344,-2.31055 9.50004,-0.5298 12.09748,-1.15179 18.77343,-4.46679 5.18682,-2.57555 10.27824,-4.78714 14.49024,-6.34571 4.212,-1.55856 7.66603,-2.43164 9.03906,-2.43164 2.08696,0 5.26232,-0.94507 7.75586,-2.1289 2.20127,-1.04508 5.91997,-2.27355 7.9043,-2.63086 3.01295,-0.54253 5.44731,-1.56498 7.05468,-2.98438 0.80369,-0.70969 1.41042,-1.53927 1.68555,-2.49218 0.27513,-0.95292 0.1651,-2.01618 -0.33008,-2.94141 -0.0342,-0.0639 -0.0161,-0.0367 -0.0449,-0.0957 0.27301,-0.0218 0.38506,-0.0542 0.89844,-0.043 0.89622,0.0196 2.14376,0.0922 3.79297,0.19726 5.97963,0.38076 8.64939,-0.13522 16.05664,-3.12109 3.70122,-1.49196 6.5478,-3.16122 8.52148,-4.78125 1.97369,-1.62003 3.22852,-3.11213 3.22852,-4.86719 0,-1.90634 -0.68721,-3.64966 -2.36719,-4.70508 -1.67997,-1.05542 -4.10433,-1.63957 -7.96094,-2.33789 -11.40976,-2.06598 -18.77413,-6.17552 -27.97656,-15.65039 -2.27639,-2.34378 -4.34922,-4.64237 -5.83594,-6.43359 -0.74336,-0.89561 -1.34066,-1.66761 -1.73242,-2.23242 -0.19588,-0.28241 -0.34133,-0.51427 -0.41797,-0.65821 -0.0766,-0.14393 -0.0326,-0.27534 -0.0312,0.082 -0.008,-1.99987 -1.38676,-3.63265 -2.77148,-5.20704 -1.38472,-1.57438 -2.9382,-3.06416 -3.61914,-3.95703 -0.37969,-0.49785 -0.68654,-0.8948 -1.04297,-1.23828 -0.35644,-0.34348 -0.84673,-0.68643 -1.46875,-0.72656 -0.62202,-0.0401 -1.13137,0.22036 -1.54492,0.50195 -0.41356,0.28159 -0.80411,0.62967 -1.29102,1.07031 -0.46299,0.41901 -0.777,0.64134 -0.91406,0.69727 -0.13706,0.0559 -0.12541,0.0793 -0.45117,-0.043 -0.65153,-0.24447 -2.21218,-1.38343 -5.02149,-3.67187 -2.91267,-2.37265 -5.11624,-4.80559 -6.41211,-6.91602 -1.29586,-2.11043 -1.58766,-3.81561 -1.22461,-4.76172 0.0205,-0.0533 0.39698,-0.58696 0.9668,-1.05273 0.56983,-0.46578 1.31599,-0.93379 2.02539,-1.2461 1.18409,-0.52128 2.62503,-1.71264 4.65039,-3.46289 2.02537,-1.75024 4.47624,-4.02066 7.03516,-6.5 5.11783,-4.95866 10.65427,-10.73892 14.03711,-14.86914 0.89374,-1.09119 1.70904,-1.91841 2.42578,-2.60547 -1.8e-4,8.1e-4 1.8e-4,0.001 0,0.002 -0.28679,1.27884 -0.806,3.00238 -1.44727,4.82422 -1.28253,3.64368 -3.1019,7.75099 -4.39258,9.65039 -1.23568,1.81846 -4.8063,5.54211 -7.66015,7.90039 -1.50912,1.24707 -2.87504,2.52939 -3.89258,3.62304 -0.50877,0.54683 -0.9294,1.04368 -1.25,1.4961 -0.3206,0.45241 -0.64062,0.71752 -0.64062,1.55273 0,0.59899 0.21734,1.23578 0.64062,1.67969 0.42328,0.44391 0.97032,0.67058 1.51758,0.77734 1.09452,0.21354 2.30915,0.0332 3.73047,-0.35937 2.84263,-0.78521 6.47319,-2.53977 10.21289,-5.04883 3.5316,-2.36945 6.02104,-3.83417 7.44726,-4.41992 0.11453,-0.047 0.0737,-0.0175 0.17383,-0.0508 -0.11127,0.1413 -0.17241,0.24459 -0.3164,0.4082 -0.6457,0.73368 -1.5905,1.65128 -2.66016,2.58594 -2.13931,1.86931 -4.81921,3.82731 -6.62891,4.74023 -3.76367,1.89864 -6.12765,3.62868 -6.73437,5.97461 -0.30336,1.17297 0.01,2.42604 0.74609,3.44531 0.73639,1.01928 1.84554,1.89655 3.3086,2.75977 1.75986,1.03835 2.89317,1.67362 4.16796,1.81445 1.2748,0.14083 2.38169,-0.3318 3.72461,-1.04492 2.12805,-1.13001 6.5002,-2.68363 10.39453,-3.79883 1.7432,-0.49918 3.31339,-0.87138 4.64258,-1.14258 -0.95426,0.42498 -1.99376,0.92265 -2.69726,0.9375 -1.25173,0.0264 -1.95616,0.77157 -2.81055,1.61719 -0.85439,0.84563 -1.73061,1.93598 -2.54297,3.09766 -0.81236,1.16168 -1.55469,2.39023 -2.11133,3.51367 -0.55663,1.12344 -0.97265,2.05188 -0.97265,3.07813 0,1.1516 0.75005,1.98195 1.62304,2.63281 0.873,0.65085 1.99666,1.19146 3.30469,1.6582 2.61606,0.93349 5.96883,1.54492 9.2832,1.54492 2.73656,0 3.7727,-0.009 5.36915,0.94922 1.59644,0.95791 3.83395,3.08711 8.21093,7.35938 3.16403,3.08832 5.52457,5.22337 7.32422,6.57031 0.89983,0.67347 1.65454,1.15326 2.36328,1.45898 0.70875,0.30572 1.44874,0.4851 2.20899,0.19336 1.11122,-0.42641 1.49616,-1.31449 1.93554,-2.29687 0.43938,-0.98239 0.7911,-2.15757 1.04102,-3.36524 0.24992,-1.20766 0.39661,-2.43681 0.37695,-3.5332 -0.0197,-1.09639 -0.0705,-2.10374 -0.90234,-2.93555 0.0792,0.0792 -0.18344,-0.28909 -0.34961,-0.74023 -0.16617,-0.45114 -0.31671,-1.01936 -0.39453,-1.5293 -0.22872,-1.49875 -1.05417,-3.72848 -1.93164,-5.44922 -0.75119,-1.47308 -2.25627,-6.75825 -3.61524,-12.89843 -1.35896,-6.14019 -2.67702,-13.29799 -3.4375,-19.11914 -0.6637,-5.08037 -2.29976,-12.20397 -3.72656,-16.13477 -4.14348,-11.41517 -17.89741,-30.59586 -33.13476,-46.53516 -7.42446,-7.76648 -17.39454,-18.253362 -22.14649,-23.296871 -5.46495,-5.800247 -10.606,-10.214432 -14.18555,-11.947266 -2.46077,-1.191238 -3.98519,-1.88013 -5.72461,-2.046875 -1.73941,-0.166745 -3.45828,0.201228 -6.34179,0.878906 -3.43819,0.808029 -8.09224,2.30192 -10.60938,3.425782 -2.65883,1.187105 -6.61847,1.828108 -12.13867,1.84375 -3.86819,0.01101 -5.93963,-0.05936 -7.31445,-0.433594 -1.37482,-0.374233 -2.24227,-1.032438 -3.98047,-2.558594 -0.86675,-0.761022 -2.43285,-2.635753 -4.06836,-4.908203 -1.63551,-2.27245 -3.38966,-4.973691 -4.84766,-7.521484 -1.49459,-2.611761 -3.07721,-5.185369 -4.43359,-7.246094 -1.35638,-2.060725 -2.34117,-3.505944 -3.19141,-4.275391 -0.84992,-0.769174 -2.14209,-1.435538 -3.83398,-2.203125 -1.69189,-0.767587 -3.74725,-1.572132 -5.91406,-2.330078 -4.33362,-1.515893 -9.0719,-2.845143 -12.29297,-3.246094 -1.86675,-0.232372 -3.07942,-0.341708 -4.16406,-0.05078 z m -19.74219,23.410156 c -0.43313,0.102943 -0.69437,0.31903 -0.91211,0.535157 -0.43549,0.432252 -0.72503,0.962248 -0.9707,1.607421 -0.15298,0.401768 -0.26489,0.718936 -0.3418,1.019532 -0.0385,0.150298 -0.0736,0.292533 -0.082,0.5 -0.008,0.207467 -0.0524,0.586319 0.3789,1.017578 0.21563,0.215629 0.54821,0.345308 0.79688,0.363281 0.24866,0.01797 0.42019,-0.03131 0.54687,-0.07617 0.25336,-0.08972 0.37292,-0.182487 0.49805,-0.27539 0.25027,-0.185808 0.47155,-0.397483 0.75391,-0.677735 0.47208,-0.468578 0.82914,-0.975557 1.04297,-1.537109 0.10691,-0.280776 0.18234,-0.580129 0.17187,-0.935547 -0.0105,-0.355418 -0.14023,-0.808202 -0.47656,-1.144531 -0.33633,-0.336337 -0.97312,-0.499427 -1.40625,-0.396485 z m -1.62891,5.603516 c -0.29986,-0.0645 -0.66231,0.01499 -0.87695,0.142578 -0.42929,0.255181 -0.46514,0.475708 -0.52149,0.607422 -0.11268,0.263428 -0.12339,0.397949 -0.15039,0.576172 -0.10799,0.712892 -0.14453,1.838497 -0.14453,3.492187 0,1.65369 0.0365,2.779296 0.14453,3.492188 0.027,0.178223 0.0377,0.310792 0.15039,0.574219 0.0564,0.131713 0.0922,0.352239 0.52149,0.607421 0.21464,0.127592 0.57709,0.209025 0.87695,0.144532 0.29987,-0.06449 0.4926,-0.216136 0.60742,-0.330078 0.45929,-0.455772 0.35031,-0.57663 0.39649,-0.75586 0.0462,-0.17923 0.0808,-0.364425 0.11523,-0.591797 0.27556,-1.818988 0.27556,-4.462268 0,-6.28125 -0.0344,-0.227371 -0.0691,-0.412567 -0.11523,-0.591797 -0.0462,-0.179229 0.0628,-0.30009 -0.39649,-0.755859 -0.11482,-0.113942 -0.30756,-0.265582 -0.60742,-0.330078 z m -31.04687,1.726562 c 0.54939,0.02463 2.26805,0.59648 3.14843,1.240235 0.81625,0.596855 0.96251,0.835803 0.98829,0.980469 0.0258,0.144665 -0.0717,0.716402 -0.59961,1.875 -0.39204,0.860418 -0.72525,1.417928 -0.94922,1.707031 -0.0622,-0.06729 -0.0761,-0.05278 -0.3086,-0.4375 -0.35109,-0.580999 -0.79302,-1.507303 -1.3125,-2.744141 -0.6965,-1.658332 -0.86551,-2.300462 -0.96679,-2.621094 z m -9.19336,5.609375 c 0.37974,2.075948 0.62007,7.068488 0.91406,16.369143 0.14086,4.45631 0.35385,8.83958 0.58398,12.32226 0.11507,1.74135 0.23566,3.25675 0.35352,4.45118 0.0815,0.82592 0.16645,1.28436 0.25195,1.79882 -0.29731,-0.52628 -0.56896,-0.93479 -0.89648,-1.63671 -0.95603,-2.04892 -1.53698,-4.07691 -1.93945,-7.85547 -0.40248,-3.77857 -0.60178,-9.2604 -0.75391,-17.984379 -0.0579,-3.317744 0.64438,-6.280539 1.35351,-7.292969 0.0548,-0.07821 0.0813,-0.100862 0.13282,-0.171875 z m 27.68359,0.521485 c 0.0266,0.761963 0.15958,0.890789 0.0625,1.935547 -0.36146,3.889892 0.3602,8.013189 2.38281,14.169921 1.80702,5.50039 2.84794,9.36073 3.22266,12.14453 0.37472,2.7838 0.11126,4.4117 -0.60742,5.76758 -0.61923,1.16824 -1.21089,1.91214 -1.59766,2.21289 -0.38677,0.30075 -0.3546,0.26577 -0.57226,0.16016 -0.21767,-0.10561 -0.72184,-0.57725 -1.25196,-1.53907 -0.53011,-0.96181 -1.1031,-2.36471 -1.6875,-4.17773 -0.24999,-0.77558 -0.54476,-3.23902 -0.68554,-6.25195 -0.14078,-3.01293 -0.18284,-6.67945 -0.13086,-10.31836 0.052,-3.638914 0.1968,-7.254431 0.42187,-10.158206 0.11254,-1.451887 0.24652,-2.726054 0.39453,-3.724609 0.0165,-0.111625 0.0314,-0.115521 0.0488,-0.220703 z m 56.63477,3.626953 c -0.0987,0.175511 -0.14427,0.274991 -0.25196,0.462891 -1.0397,1.814197 -2.48496,4.182936 -4.07422,6.646484 -2.67418,4.14533 -4.31836,6.38603 -5.52148,7.81836 0.16116,-0.56111 0.16488,-0.87633 0.48047,-1.60938 0.62897,-1.46094 1.5236,-3.17282 2.53516,-4.87109 2.02311,-3.396533 4.61039,-6.78669 6.20117,-8.029296 0.25471,-0.198967 0.39132,-0.246048 0.63086,-0.417969 z m -96.69141,10.517535 c 0.0672,0.55382 0.13551,1.18406 0.19727,2.03125 0.14858,2.03823 0.26703,4.78891 0.31836,7.73243 0.0515,2.95341 0.0639,5.6386 0.043,7.57421 -2.1e-4,0.02 -0.002,0.027 -0.002,0.0469 -0.51891,-0.77239 -1.05968,-2.61224 -1.31836,-4.79883 -0.26252,-2.21913 -0.30506,-4.79708 -0.15625,-7.125 0.14558,-2.27747 0.50333,-4.30007 0.91797,-5.46094 z m 160.46484,0.45508 c -0.0234,-0.004 0.0569,-0.0161 0.25,0.3086 0.38627,0.64929 0.79835,2.40143 0.8086,4.85937 0.004,0.90042 -0.59765,3.2467 -1.64453,5.99609 -1.04689,2.7494 -2.50508,6.00502 -4.10352,9.21485 -1.59844,3.20982 -3.33844,6.37847 -4.94531,8.95703 -1.60687,2.57856 -3.14919,4.59631 -4.03516,5.3418 -0.59058,0.49694 -1.13349,0.87254 -1.68359,1.26953 0.58884,-1.58785 1.49749,-3.74801 2.62695,-6.15821 2.37505,-5.06823 4.68376,-11.15956 5.23047,-14.08593 0.45201,-2.41949 1.71177,-5.93967 3.13281,-9.01563 0.71053,-1.53798 1.46117,-2.97191 2.16016,-4.11523 0.69899,-1.14332 1.38823,-2.00673 1.75195,-2.3086 0.35022,-0.29065 0.47456,-0.26003 0.45117,-0.26367 z m -132.48242,1.51367 c 0.0993,0.20557 0.2149,0.45942 0.38477,0.91602 0.1264,0.33975 0.32099,1.63477 0.35547,3.12305 0.0345,1.48827 -0.0378,3.24566 -0.22461,4.86523 -0.33238,2.88219 -0.4549,4.75964 0.0918,6.9043 0.5467,2.14465 1.68818,4.42694 3.76758,8.42382 2.57895,4.95704 4.56233,8.29876 6.38672,10.49415 1.82439,2.19538 3.65465,3.32031 5.61524,3.32031 3.61847,0 6.68701,-2.09994 8.80468,-5.69531 2.11768,-3.59538 3.4544,-8.69815 4.05469,-15.20899 0.56226,-6.0983 1.60786,-10.11485 3.62305,-14.07617 0.7665,-1.50673 1.28201,-2.20269 1.80468,-2.95117 -0.0287,0.20412 -0.023,0.32031 -0.0645,0.55273 -0.26877,1.50785 -0.80877,3.59193 -1.64648,6.15821 -3.20819,9.82803 -4.93358,19.42142 -4.94532,27.6621 -0.004,2.78236 -0.0663,4.34379 0.66211,5.71485 0.36422,0.68553 0.94166,1.21139 1.59961,1.60937 0.65796,0.39798 1.41464,0.71755 2.3711,1.11719 1.66715,0.69657 2.91931,1.11057 4.20117,1.16016 1.28186,0.0496 2.47247,-0.29183 3.89453,-0.88086 1.59386,-0.6602 3.43607,-2.01491 5.52734,-3.82227 2.09128,-1.80735 4.38587,-4.06843 6.65039,-6.52148 4.52906,-4.90612 8.91762,-10.53525 11.20118,-14.88086 0.72584,-1.38128 1.24373,-2.28809 1.79101,-3.26172 -0.25631,1.23969 -0.53404,2.55144 -0.69922,3.42383 -0.16115,0.85118 -1.11864,2.97696 -3.12304,6.29883 -2.00441,3.32186 -5.03532,7.92651 -9.31055,14.16992 -1.86194,2.7191 -2.89028,4.24667 -3.33594,5.53515 -0.22283,0.64424 -0.30415,1.39686 0.0566,2.04493 0.36079,0.64807 0.93973,0.91806 1.44336,1.11132 0.945,0.36264 1.94689,0.31419 3.21289,0.20899 1.26601,-0.10521 2.70366,-0.34932 4.07032,-0.71485 1.25869,-0.33664 2.63175,-0.6455 3.80859,-0.86718 1.17684,-0.22168 2.21696,-0.34766 2.55273,-0.34766 1.91223,0 3.65059,-1.09918 5.0586,-3.20312 1.408,-2.10395 2.72542,-5.25983 4.35547,-9.98438 0.68378,-1.98189 1.35505,-3.75024 1.97461,-5.33398 -0.2496,1.00693 -0.56719,1.98297 -0.93555,2.69531 -1.03261,1.99686 -2.15656,6.12665 -2.77149,9.71484 -0.59253,3.4575 -1.42155,7.47222 -1.7539,8.61914 -0.29639,1.02278 -0.35498,1.99271 0.01,2.86328 0.36474,0.87058 1.19089,1.48772 2.08594,1.72071 1.79011,0.46598 3.97054,-0.0779 6.69531,-1.30664 2.11635,-0.95434 3.10905,-1.28686 3.47461,-1.25586 0.18278,0.0155 0.32961,0.0616 0.67383,0.31054 0.34422,0.24893 0.82951,0.69386 1.49219,1.31641 l 3.48828,3.2793 3.41602,-3.20899 c 0.80292,-0.75431 1.57414,-1.66251 2.20312,-2.60937 -0.10739,1.32864 -0.17651,2.66021 -0.0723,3.81445 0.12367,1.36937 0.32157,2.53562 1.0879,3.45899 1.07207,1.29177 2.7783,2.03515 4.46875,2.03515 0.27007,0 1.01877,0.18893 1.77148,0.5625 0.75271,0.37357 1.54588,0.90907 2.125,1.45313 0.76131,0.71521 1.36395,1.27367 2.08203,1.64843 0.35904,0.18739 0.77414,0.33337 1.24609,0.32618 0.47196,-0.007 0.95486,-0.19904 1.3086,-0.47461 0.70748,-0.55115 1.07579,-1.30068 1.51758,-2.32813 0.44179,-1.02745 0.90961,-2.36542 1.5,-4.10937 0.759,-2.24202 2.70406,-5.15695 4.78515,-7.40235 1.04055,-1.1227 2.11626,-2.08658 3.05664,-2.74023 0.70236,-0.4882 1.13509,-0.58951 1.53125,-0.70117 -0.0638,0.52772 -0.24257,1.31904 -0.66992,2.35351 -0.95834,2.31982 -2.7695,5.40754 -4.93359,8.06446 -3.27183,4.01691 -5.10728,6.78813 -4.7793,9.6289 0.16399,1.42039 0.93231,2.68052 2.0918,3.8086 1.15948,1.12807 2.72772,2.18893 4.74219,3.3789 1.63469,0.96564 2.65229,2.30113 3.13476,3.99219 0.48248,1.69106 0.40242,3.77135 -0.375,6.12695 -1.61032,4.87932 -4.48997,7.10764 -10.39648,7.91992 -2.67449,0.36781 -6.32512,1.48297 -9.4043,2.67579 -1.53959,0.5964 -2.92272,1.20887 -3.97266,1.7832 -0.52497,0.28716 -0.96542,0.56003 -1.33398,0.86133 -0.36856,0.30129 -0.85547,0.57354 -0.85547,1.49023 0,0.69685 0.21538,0.79352 0.36719,1.01758 0.15181,0.22406 0.3303,0.44294 0.54101,0.67969 0.42142,0.47349 0.96799,1.00592 1.57422,1.52929 0.80636,0.69615 1.95797,3.29349 2.39258,6.69532 0.0377,0.29492 0.0397,0.46918 0.0723,0.75195 -1.14845,-2.39367 -3.6116,-6.54498 -5.72266,-9.63477 -1.52094,-2.22608 -2.73213,-3.75336 -4.01758,-4.83984 -1.28544,-1.08648 -2.6651,-1.68314 -4.21875,-1.97461 -2.55263,-0.47887 -6.84662,-0.32788 -10.98437,0.0898 -2.06888,0.20887 -4.07248,0.49207 -5.7461,0.82813 -1.67362,0.33606 -2.95216,0.64928 -3.89843,1.24023 -1.07934,0.67406 -1.66278,0.71354 -2.60938,0.1875 -0.9466,-0.52603 -2.21061,-1.88848 -3.68164,-4.21875 -1.69021,-2.67747 -3.69588,-4.57485 -6.4707,-5.69531 -2.77483,-1.12046 -6.2301,-1.50195 -10.98633,-1.50195 -3.22536,0 -4.87253,-0.13981 -5.22266,-0.2461 0.017,-0.14301 0.035,-0.34288 0.1543,-0.81836 0.15023,-0.59856 0.2535,-1.15214 0.21484,-1.74218 -0.0387,-0.59004 -0.27123,-1.21326 -0.66797,-1.68946 -0.79347,-0.9524 -1.94295,-1.42719 -3.74218,-2.14062 -2.34522,-0.9299 -5.75255,-2.00204 -7.80664,-2.44531 -1.25642,-0.27115 -1.94205,-0.58838 -2.20899,-0.82813 -0.26694,-0.23975 -0.35351,-0.42403 -0.35351,-1.1543 0,-1.53507 -0.87593,-2.92197 -2.0586,-4.46289 -1.18267,-1.54092 -2.76209,-3.1617 -4.48242,-4.66406 -1.72033,-1.50236 -3.57762,-2.88179 -5.33203,-3.91015 -1.75441,-1.02837 -3.35529,-1.75402 -4.89453,-1.76563 -1.99044,-0.015 -2.89543,-0.4924 -3.01563,-0.66992 -0.0601,-0.0888 -0.10716,-0.18086 -0.0254,-0.55469 0.0818,-0.37383 0.33766,-0.96188 0.81055,-1.68359 0.46834,-0.71478 0.84317,-1.27622 1.11328,-1.87696 0.27011,-0.60073 0.41384,-1.32575 0.24805,-2.01757 -0.33158,-1.38366 -1.3459,-2.25304 -3.04102,-4.00196 -1.00895,-1.04097 -1.74126,-2.01711 -2.14258,-2.77148 -0.40132,-0.75438 -0.3668,-1.2288 -0.3789,-1.19727 0.26347,-0.68661 0.31233,-1.40024 0.17187,-2.07031 -0.14045,-0.67007 -0.48163,-1.34628 -1.16015,-1.76562 -0.3322,-0.20531 -0.45003,-0.38391 -0.52149,-0.64258 -0.0715,-0.25868 -0.0696,-0.65039 0.10742,-1.18946 0.35403,-1.07812 1.42764,-2.63291 3.20899,-4.2539 1.08397,-0.98639 2.06233,-2.03376 2.79687,-2.9668 0.36728,-0.46652 0.67257,-0.90217 0.90821,-1.31641 0.23563,-0.41423 0.45312,-0.74814 0.45312,-1.38476 0,-0.52014 -0.10705,-0.8507 -0.25586,-1.44922 -0.1488,-0.59852 -0.3567,-1.34781 -0.61328,-2.21094 -0.51315,-1.72624 -1.21634,-3.90172 -1.99023,-6.1289 -2.0754,-5.97285 -3.13334,-9.56941 -3.3086,-11.67969 -0.0876,-1.05514 0.0299,-1.69469 0.25391,-2.16797 0.22405,-0.47328 0.58592,-0.8581 1.24023,-1.31641 0.55527,-0.38892 0.95523,-0.65045 1.22461,-0.80078 z m 115.22852,1.82618 c -0.28421,0.94261 -0.48983,1.70817 -1.21485,3.64843 -0.46523,1.24505 -0.84179,1.59731 -0.95507,1.76953 -0.0657,-0.11493 -0.0837,-0.0988 -0.15821,-0.29296 0.0631,0.16438 -8e-5,-0.45674 0.24219,-1.20313 0.24227,-0.74639 0.65916,-1.66841 1.14258,-2.5332 0.30112,-0.53869 0.6228,-0.9409 0.94336,-1.38867 z m -24.20313,5.33789 c -0.20213,0.41115 -0.27286,0.64916 -0.56445,1.16796 -1.42861,2.54187 -2.36937,3.67503 -2.98828,4.34766 0.0101,-1.20636 0.96788,-3.23933 2.46094,-4.62305 0.4711,-0.4366 0.71594,-0.58254 1.09179,-0.89257 z m -46.95898,7.36914 c 0.003,0.0136 0.003,0.007 0.006,0.0215 0.10414,0.50926 0.1244,1.43301 0.006,2.49805 -0.23709,2.13008 -0.99144,4.87445 -2.04883,6.8789 -0.78528,1.48861 -1.37053,2.51192 -1.86719,3.31055 -0.039,-0.62764 -0.0898,-1.13406 -0.0898,-2.12109 0,-2.57835 0.69655,-5.44775 1.66797,-7.57617 0.48571,-1.06422 1.04339,-1.94246 1.55078,-2.49415 0.37445,-0.40714 0.57848,-0.44689 0.77539,-0.51757 z m 51.33789,6.64648 c -1.39243,3.17191 -3.15491,6.81457 -4.70703,9.41406 -0.40728,0.68213 -0.63498,0.84156 -1.00781,1.37891 0.1419,-0.3274 0.22351,-0.57039 0.38671,-0.92578 0.9738,-2.12053 2.29796,-4.68316 3.6543,-7.11328 0.59063,-1.05822 1.09689,-1.79217 1.67383,-2.75391 z m 10.28711,3.24219 c -0.12198,0.33047 -0.15476,0.53958 -0.32617,0.92773 -0.64056,1.45054 -1.87997,3.46671 -3.09766,5.4375 0.44246,-0.8914 0.92434,-1.92317 1.32617,-2.69726 0.93766,-1.80632 1.69688,-3.09106 2.09766,-3.66797 z m 41.63476,6.81054 c -0.0796,0.008 -0.009,-0.0336 0.25,0.18165 0.45334,0.37623 0.85797,1.31828 0.92188,2.75195 0.0639,1.43367 -0.1927,3.26636 -0.72461,5.1582 -1.06383,3.78368 -3.26728,7.81238 -5.69141,9.81055 -2.48916,2.05178 -4.46917,4.97434 -5.24023,7.83789 -0.5718,2.12349 -2.48936,5.09191 -4.54688,6.89844 -0.65223,0.57266 -0.98333,0.7718 -1.49609,1.17773 0.40077,-0.62883 0.64132,-1.08598 1.23828,-1.91601 2.65533,-3.69208 6.26189,-9.93512 9.2461,-15.64844 1.4921,-2.85666 2.82354,-5.5733 3.79101,-7.76953 0.48373,-1.09812 0.87566,-2.06427 1.15625,-2.8711 0.2806,-0.80682 0.47461,-1.38444 0.47461,-2.0625 0,-1.8101 0.35307,-3.07563 0.59766,-3.44726 0.12229,-0.18582 0.10303,-0.10993 0.0234,-0.10157 z m -206.06213,29.80418 c -0.57702,0.0695 -0.87852,0.26231 -1.39062,0.5293 -0.5121,0.26698 -1.14971,0.63429 -1.96485,1.11523 -2.3739,1.40064 -3.00028,2.03877 -4.61931,3.4407 -0.62434,0.54062 -0.72726,1.25728 -1.26687,1.77112 -0.17957,0.171 -0.25023,1.15807 1.824,0.48468 0.85742,-0.27835 1.82581,-1.08865 2.73045,-1.83612 1.8093,-1.49494 2.14187,-1.75864 4.39194,-3.51539 0.38838,-0.30322 1.73631,-1.38301 1.84145,-1.88337 0.0317,-0.99704 -0.71012,-0.46305 -1.54619,-0.10615 z m 49.93909,4.79543 c -0.63766,0.76678 -1.56923,1.73064 -2.78907,2.82813 -2.8543,2.56802 -7.81387,8.03196 -11.21875,12.33008 -2.03889,2.57378 -3.78466,4.58138 -5.1621,5.98437 -0.66442,0.67675 -0.84876,0.72192 -1.32618,1.10547 0.29921,-0.8479 0.50028,-1.56196 1.26758,-3.06055 0.43559,-0.85072 1.62496,-2.46479 3.17969,-4.28711 1.55473,-1.82231 3.48601,-3.90377 5.48242,-5.92187 3.99283,-4.0362 8.42646,-7.89311 10.15625,-8.8125 0.22002,-0.11694 0.21741,-0.0767 0.41016,-0.16602 z m 152.85547,0.61329 c -0.1209,0.37995 -0.18725,0.69925 -0.57422,1.44726 -0.56915,1.10015 -1.37244,2.40311 -2.24805,3.59375 -0.89192,1.21283 -1.7863,2.30425 -2.47656,3.05469 -0.32478,0.35309 -0.59423,0.61179 -0.78321,0.77539 -2.0499,-0.39001 -4.31204,-0.94097 -6.06445,-1.48047 -0.51786,-0.15943 -0.83613,-0.29136 -1.24414,-0.4375 0.60607,-0.28806 1.24236,-0.58932 2.05274,-0.87695 2.41365,-0.85667 6.2583,-2.87039 8.8789,-4.61914 1.41646,-0.94522 1.91631,-1.17566 2.45899,-1.45703 z m -133.95704,6.97265 c -0.64935,-0.008 -1.15058,0.19937 -1.75976,0.49805 -0.60918,0.29867 -1.28354,0.72119 -2.01367,1.27344 -0.45158,0.34155 -0.80322,0.62012 -1.08985,0.88476 -0.28662,0.26465 -0.58926,0.41173 -0.73632,1.11524 -0.0735,0.35175 0.0649,0.91932 0.33984,1.20898 0.27497,0.28966 0.52975,0.36607 0.72851,0.42188 0.39753,0.11162 0.71023,0.11321 1.11329,0.12109 1.57111,0.0308 3.02346,-0.79546 4.03125,-2.00977 l 0.27343,-0.33007 v -0.1836 c 0.28451,-0.38531 0.59836,-0.73514 0.66797,-1.25781 0.049,-0.36812 -0.0477,-0.92719 -0.41797,-1.29492 -0.37024,-0.36773 -0.81204,-0.44324 -1.13672,-0.44727 z m -47.16406,0.95508 c -1.67452,1.93479 -3.59321,4.24059 -4.75,5.99023 -1.28252,1.93983 -4.38202,5.72502 -6.72656,8.1836 -1.17865,1.23599 -2.34667,2.36256 -3.25586,3.16015 -0.12457,0.10929 -0.19258,0.15373 -0.30664,0.25 0.30465,-0.65284 0.65667,-1.3926 1.39258,-2.05859 1.51043,-1.36692 3.17453,-3.96499 4.12109,-6.23047 0.84009,-2.01062 2.17489,-4.09616 3.48633,-5.62109 0.65572,-0.76247 1.309,-1.38621 1.85156,-1.78516 0.54256,-0.39894 0.98607,-0.51562 1.00781,-0.51562 0.89714,0 1.47228,-0.34725 2.27149,-0.77539 0.29217,-0.15652 0.60273,-0.40704 0.9082,-0.59766 z m 29.75977,11.66406 c -0.30713,0.71926 -0.59511,1.42818 -1.12891,2.35547 -1.49606,2.59889 -3.75771,5.74133 -6.0957,8.25586 -2.94176,3.16388 -6.38044,7.47732 -7.83399,9.89258 -0.62995,1.04676 -1.43216,2.13666 -2.1875,3.00976 -0.75533,0.87311 -1.54194,1.54186 -1.78125,1.66993 -0.54124,0.28966 -0.86795,0.42334 -1.19726,0.56054 0.0483,-0.31089 0.0763,-0.57089 0.20312,-1.07617 0.0544,-0.21662 0.44731,-1.06143 1.08399,-2.07812 0.63667,-1.0167 1.51066,-2.27574 2.54101,-3.67188 2.06072,-2.79228 4.74284,-6.13529 7.43164,-9.30078 2.68881,-3.16549 5.39027,-6.15991 7.47461,-8.25 0.60842,-0.6101 1.00858,-0.93355 1.49024,-1.36719 z m 14.06836,4.78321 c -0.51811,0.75312 -0.87217,1.35304 -1.54883,2.23242 -2.08319,2.70726 -4.64459,5.4295 -6.63281,7.21289 -0.14807,0.13281 -0.2077,0.14936 -0.34961,0.27148 0.12915,-0.20305 0.19374,-0.35335 0.33984,-0.56836 1.05012,-1.54538 2.51315,-3.36402 4.06055,-5.08203 1.39785,-1.55197 2.83698,-2.93971 4.13086,-4.0664 z m 28.43554,8.37304 c -0.1227,0.19936 -0.22794,0.38477 -0.41211,0.63281 -0.55697,0.75019 -1.35974,1.65421 -2.23242,2.47657 -5.70664,5.37759 -15.29945,17.7705 -20.54297,26.47265 -2.25305,3.73918 -4.02189,6.138 -5.14257,7.27539 0.0815,-0.32904 0.12214,-0.60031 0.41211,-1.29882 0.42298,-1.01895 1.05097,-2.32439 1.82617,-3.81055 1.55039,-2.97233 3.68901,-6.67035 5.99023,-10.39649 2.30123,-3.72613 4.7678,-7.48432 6.97461,-10.59375 2.20681,-3.10942 4.20409,-5.60041 5.3418,-6.63085 1.7743,-1.60702 4.22376,-3.01845 6.11133,-3.72657 0.738,-0.27686 1.24106,-0.34679 1.67382,-0.40039 z m 94.60743,0.24805 c -0.11158,0 0.18976,0.0464 0.59375,0.33203 0.40399,0.28559 0.92552,0.75197 1.49023,1.33984 1.12941,1.17574 2.44138,2.84121 3.66602,4.62891 1.22464,1.7877 2.36755,3.70245 3.1875,5.38086 0.81994,1.67841 1.27343,3.19563 1.27343,3.77148 0,0.15314 -0.039,0.22071 -0.0684,0.33008 -0.007,-0.006 -0.004,1.3e-4 -0.0117,-0.006 -0.21783,-0.1645 -0.55251,-0.51196 -0.9629,-1.08398 -0.82077,-1.14404 -1.94002,-3.15299 -3.49414,-6.25 -0.77365,-1.54175 -1.66561,-3.092 -2.49609,-4.37695 -0.83048,-1.28496 -1.50022,-2.24979 -2.24414,-2.86719 -0.76072,-0.63134 -0.89636,-1.0218 -0.98828,-1.19336 0.0376,-0.002 0.0103,-0.006 0.0547,-0.006 z m -168.20704,6.95312 c -0.15043,0.26276 -0.16883,0.36081 -0.35351,0.66211 -1.25913,2.05423 -3.41319,4.88445 -4.73242,6.30274 0.40016,-1.99665 1.70316,-4.18873 3.65429,-5.85547 0.6111,-0.52203 0.9577,-0.7446 1.43164,-1.10938 z m 110.21485,3.49219 c 0.0343,0.12659 0.0872,0.19028 0.041,0.31055 -0.35183,0.91688 -0.23105,1.69847 -0.11718,2.8164 0.11386,1.11794 0.34324,2.41981 0.66601,3.69141 0.55871,2.20116 0.72299,5.92171 0.39063,7.69336 -0.33452,1.78312 -0.85888,2.5716 -1.06055,2.69141 -0.10083,0.0599 -0.17721,0.0922 -0.48633,0.0254 -0.30911,-0.0668 -0.80279,-0.27696 -1.41992,-0.66797 -0.34508,-0.21865 -0.35819,-0.15682 -0.39062,-0.87695 -0.0324,-0.72014 0.15919,-2.09629 0.62695,-4.27735 0.33436,-1.55915 0.56684,-3.14496 0.67578,-4.48437 0.0545,-0.66971 0.0784,-1.27684 0.0645,-1.80469 -0.0139,-0.52785 -0.0302,-0.9442 -0.21875,-1.43555 -0.15597,-0.40646 0.0341,-1.82268 0.57227,-2.82226 0.22095,-0.4104 0.46106,-0.66802 0.65625,-0.85938 z m -17.42383,2.96289 c -0.33594,1.98492 -0.78925,4.11109 -1.43555,5.94727 -0.51741,1.47002 -1.12305,2.64066 -1.69726,3.59961 0.0744,-0.27319 0.12347,-0.48244 0.21484,-0.79688 0.40808,-1.40433 0.96977,-3.17533 1.57031,-4.96094 0.44917,-1.33551 0.90398,-2.57738 1.34766,-3.78906 z m 32.99609,0.85352 c 0.0904,0.37293 0.14172,0.45617 0.23438,0.86914 0.42866,1.91052 0.89249,4.23484 1.31641,6.58203 0.84783,4.69439 1.5332,9.62149 1.5332,11.19922 0,1.7484 -0.74002,6.83489 -1.64649,10.82031 -0.72146,3.17204 -1.83982,6.0387 -2.88671,7.82422 -0.32698,0.55768 -0.56538,0.76236 -0.83594,1.07227 0.0246,-0.38196 0.0362,-0.70079 0.0879,-1.20899 0.16999,-1.67156 0.48119,-3.93635 0.88867,-6.35937 0.85189,-5.06563 1.33299,-13.33892 1.10156,-18.83204 -0.20131,-4.77854 -0.0712,-9.04459 0.20703,-11.96679 z m 27.74024,6.52734 c -0.29958,-0.0602 -0.74238,-0.0202 -1.08008,0.20313 -0.3377,0.22328 -0.50817,0.53972 -0.59375,0.79297 -0.17118,0.50649 -0.12842,0.88545 -0.0742,1.30859 0.0542,0.42314 0.15875,0.8741 0.30078,1.35742 0.28406,0.96664 0.72162,2.05741 1.26758,3.10938 0.54597,1.05195 1.07713,1.86434 1.64844,2.43945 0.28565,0.28755 0.54537,0.57099 1.14453,0.69141 0.29958,0.0602 0.74042,0.0201 1.07812,-0.20313 0.33771,-0.22327 0.51012,-0.54167 0.59571,-0.79492 0.17117,-0.50649 0.12842,-0.8835 0.0742,-1.30664 -0.0542,-0.42314 -0.15875,-0.8741 -0.30078,-1.35742 -0.28407,-0.96664 -0.72357,-2.05741 -1.26954,-3.10938 -0.54596,-1.05195 -1.07518,-1.8663 -1.64648,-2.44141 -0.28565,-0.28755 -0.54537,-0.56903 -1.14453,-0.68945 z m -80.75195,0.0977 c -0.008,0.0169 -0.005,0.0162 -0.0137,0.0332 -0.58126,1.20744 -1.49057,2.83972 -2.54101,4.63281 -0.004,-0.25047 0.0539,-0.48808 -0.0488,-0.75586 0.089,0.23203 0.0127,0.1404 0.0781,-0.0898 0.0654,-0.23024 0.2137,-0.58577 0.43165,-0.98828 0.43588,-0.80502 1.14683,-1.80915 1.98632,-2.73242 0.0543,-0.0597 0.0544,-0.0424 0.10743,-0.0996 z m 92.76171,0.33008 c 0.59521,0.91627 1.34975,1.97033 1.86133,2.79882 0.82827,1.34135 1.52776,2.54319 2.03516,3.50391 0.5074,0.96072 0.81671,1.74432 0.85742,1.9375 0.30513,1.44799 1.27465,5.17658 2.1875,8.45117 0.36242,1.30012 0.55768,2.81824 0.90625,4.44336 -2.99019,-10.41873 -5.05433,-16.2231 -7.84766,-21.13476 z m -138.99609,1.01171 c -0.31973,0.34974 -0.48258,0.57155 -0.82617,0.93946 -3.64309,3.90098 -5.91559,6.10559 -7.20899,7.06836 0.0513,-0.0864 0.008,-0.0284 0.082,-0.13086 0.3975,-0.55038 1.07326,-1.33203 2.04882,-2.3418 1.17959,-1.22094 3.77867,-3.5667 5.9043,-5.53516 z m 42.25195,6.04102 c -2.19528,4.0234 -4.68013,9.30907 -6.0625,13.20703 -0.77376,2.18182 -1.62284,4.26007 -2.35156,5.82227 -0.36436,0.7811 -0.70132,1.43641 -0.96875,1.89062 -0.26743,0.45422 -0.63428,0.74048 -0.33594,0.55078 -0.42779,0.27201 -0.42755,0.24222 -0.71093,0.3711 0.21557,-1.32647 1.2261,-4.388 3.46679,-9.98633 1.19863,-2.99476 2.39445,-5.55302 3.46094,-7.45313 1.06649,-1.9001 2.1228,-3.15566 2.48438,-3.39257 0.42903,-0.28111 0.68005,-0.66837 1.01757,-1.00977 z m 126.09961,0.76367 c -0.31217,-0.002 -0.80093,0.15893 -1.07812,0.50196 -0.2772,0.34302 -0.31641,0.69009 -0.31641,0.9375 0,0.81911 0.28583,1.5185 0.66016,2.3496 0.37432,0.83111 0.8724,1.73349 1.42773,2.61329 1.11067,1.75958 2.25197,3.37361 3.61914,4.16992 0.66222,0.3857 1.1585,0.67757 1.59766,0.88281 0.21958,0.10262 0.40941,0.19505 0.73242,0.24414 0.16151,0.0246 0.37439,0.044 0.6582,-0.0449 0.28382,-0.0889 0.61662,-0.35117 0.76758,-0.63867 0.30193,-0.575 0.15183,-0.89837 0.0859,-1.14649 -0.0659,-0.24812 -0.15378,-0.46381 -0.26563,-0.71484 -0.22368,-0.50207 -0.54805,-1.12643 -0.97656,-1.95508 -0.8772,-1.69629 -2.422,-3.63401 -3.8125,-5.08008 -0.69525,-0.72303 -1.32318,-1.30567 -1.92773,-1.69922 -0.30228,-0.19677 -0.54753,-0.41516 -1.17188,-0.41992 z m -55.13086,6.75196 c 0.24386,0.89659 0.50653,1.84468 0.69336,3.78906 0.19684,2.04855 0.19034,3.34066 -0.0312,4.28515 -0.22158,0.9445 -0.63465,1.63707 -1.51953,2.6543 l -0.0449,0.0508 0.25781,-4.36719 c 0.12594,-2.1318 0.31774,-4.14913 0.51953,-5.65429 0.0423,-0.31566 0.0825,-0.49181 0.125,-0.75781 z m 15.65039,8.17382 c 0.003,0.007 9.2e-4,0.006 0.004,0.0137 0.004,-0.006 -0.0109,0.0299 -0.002,0.0215 0.002,-0.002 0.006,-0.002 0.008,-0.004 0.0174,0.0465 0.007,0.007 0.0234,0.0762 0.13736,0.5671 0.16907,1.75582 -0.01,3.25781 -0.19357,1.6257 -0.64284,3.6716 -1.2539,5.89844 0.49364,-2.92957 0.98856,-5.88584 1.23046,-9.26368 z m -51.10156,1.0918 c 7.4e-4,0.36683 0.0274,0.66236 -0.0469,1.2207 -0.233,1.751 -0.86186,4.31204 -1.86133,7.39649 -1.11542,3.44222 -2.32926,5.09361 -4.08203,6 -0.85995,0.4447 -1.52437,0.72039 -1.92383,0.8164 -0.39946,0.096 -0.39463,0.0315 -0.34961,0.0645 0.045,0.0329 -0.0894,-0.0757 -0.18945,-0.58789 -0.10009,-0.51214 -0.1543,-1.33376 -0.1543,-2.41993 0,-2.01838 1.10378,-4.24052 4.51953,-8.24218 1.29692,-1.51938 2.57326,-2.86933 3.55274,-3.79102 0.22134,-0.20829 0.34927,-0.29668 0.53515,-0.45703 z"
         id="path6"
         sodipodi:nodetypes="cssssssssssssssscsscsssscsccsssssssccsssssccccsssscsssssssssssssssssssssssssssssscsscsssssscsssssssssccccsssssssssssscscssssssssscssssssscssssssssccssssssssssscsssscsssscsssssssscssssssscssssssssssssssssssssssccsssscssssssssssssssssssssscscsscssscssccssscsssscssssssssssssssscsscssscsssscsssscccsssscsssssccsscsssssssccsssssssssscsssssssssssscssscssssccccsssssscssssscsssssssssssssssscsssssssssscsssssssssssssssssscsssssssssssssscccsccssccscsccccscssscccscssccscscscssssscsssssssssssssssssscssscssssccssscscssccssssssccccssccssscssssssccssssscsssssccsscssccssscssssssccsssssccssssccccscscscsssssssssssssscscsscsssssscssssssssssssssssssssccccssssccssssccsscsssscsssccssscssssssssssssssssscsscccsscscsccccssssssssssssss" /></g></g><g
     inkscape:groupmode="layer"
     id="layer4"
     inkscape:label="duplikat spojovniku"
     style="display:none"><path
       id="path20"
       style="display:inline;opacity:1;stroke-width:8.05907"
       d="m 246.16716,369.35419 h 15.42748 v 4.53544 h -15.42748 z"
       inkscape:label="spojovnik pismen" /><path
       id="path21"
       style="display:inline;opacity:1;stroke-width:8.05907"
       d="m 294.24255,489.50436 h 15.42748 v 4.53544 h -15.42748 z"
       inkscape:label="spojovnik pismen" /><path
       id="path22"
       style="display:inline;opacity:1;stroke-width:8.05907"
       d="m 348.36483,489.50436 h 15.42748 v 4.53544 h -15.42748 z"
       inkscape:label="spojovnik pismen" /><path
       id="path23"
       style="display:inline;opacity:1;stroke-width:8.05907"
       d="m 118,369.35419 h 15.42748 v 4.53544 H 118 Z"
       inkscape:label="spojovnik pismen" /><path
       id="path24"
       style="display:inline;opacity:1;stroke-width:8.05907"
       d="m 173.3024,369.35419 h 15.42748 v 4.53544 H 173.3024 Z"
       inkscape:label="spojovnik pismen" /><path
       id="path25"
       style="display:inline;opacity:1;stroke-width:12.9159"
       d="m 202.05217,369.35419 h 39.62553 v 4.53544 h -39.62553 z"
       inkscape:label="spojovnik pismen" /><path
       id="path26"
       style="display:inline;opacity:1;stroke-width:8.05907"
       d="m 298.4608,369.35419 h 15.42748 v 4.53544 H 298.4608 Z"
       inkscape:label="spojovnik pismen" /><path
       id="path27"
       style="display:inline;opacity:1;stroke-width:10.421"
       d="m 328.52484,369.35419 h 25.79553 v 4.53544 h -25.79553 z"
       inkscape:label="spojovnik pismen" /><path
       id="path28"
       style="display:inline;opacity:1;stroke-width:8.05907"
       d="m 392.40453,369.35419 h 15.42748 v 4.53544 h -15.42748 z"
       inkscape:label="spojovnik pismen" /><path
       id="path29"
       style="display:inline;opacity:1;stroke-width:8.05907"
       d="m 442.96649,369.35419 h 15.42748 v 4.53544 h -15.42748 z"
       inkscape:label="spojovnik pismen" /></g></svg>
