<?xml version="1.0" encoding="UTF-8" standalone="no"?>
<svg
   version="1.2"
   viewBox="0 0 570 570"
   width="570"
   height="570"
   id="svg1"
   sodipodi:docname="SpehTokenLaser.svg"
   inkscape:version="1.4.2 (2aeb623e1d, 2025-05-12)"
   xml:space="preserve"
   xmlns:inkscape="http://www.inkscape.org/namespaces/inkscape"
   xmlns:sodipodi="http://sodipodi.sourceforge.net/DTD/sodipodi-0.dtd"
   xmlns="http://www.w3.org/2000/svg"
   xmlns:svg="http://www.w3.org/2000/svg"><sodipodi:namedview
     id="namedview1"
     pagecolor="#ffffff"
     bordercolor="#666666"
     borderopacity="1.0"
     inkscape:showpageshadow="2"
     inkscape:pageopacity="0.0"
     inkscape:pagecheckerboard="0"
     inkscape:deskcolor="#d1d1d1"
     inkscape:zoom="0.29700156"
     inkscape:cx="1033.6646"
     inkscape:cy="540.4012"
     inkscape:window-width="1920"
     inkscape:window-height="940"
     inkscape:window-x="0"
     inkscape:window-y="0"
     inkscape:window-maximized="1"
     inkscape:current-layer="layer2"
     showgrid="false" /><defs
     id="defs1"><clipPath
       clipPathUnits="userSpaceOnUse"
       id="cp1"><path
         d="m 275.5,535.5 c -143.78,0 -260,-116.22 -260,-260 0,-143.78 116.22,-260 260,-260 143.78,0 260,116.22 260,260 0,143.78 -116.22,260 -260,260 z"
         id="path1" /></clipPath></defs><style
     id="style1">
		tspan { white-space:pre } 
		.s0 { fill: none;stroke: #ff0000;stroke-miterlimit:100 } 
	</style><g
     inkscape:groupmode="layer"
     id="layer1"
     inkscape:label="Template"><path
       id="Path 0 copy"
       class="s0"
       d="m 253.96776,1.9812412 c -4.83809,0.7256238 -12.51049,1.8658898 -17.06826,2.5396834 -4.54737,0.6737937 -14.55576,2.8299332 -22.23856,4.8098491 -7.68279,1.9695513 -20.01678,5.7427953 -27.40888,8.3757733 -7.40247,2.632979 -20.89926,8.551995 -30.00441,13.164891 -9.10514,4.602528 -22.37354,12.263042 -29.48531,17.021062 -7.11177,4.747653 -17.57697,12.48073 -23.26639,17.176553 -5.689435,4.695823 -15.573238,13.828318 -21.968643,20.296736 -6.385022,6.468418 -15.147556,16.191781 -19.456148,21.592491 -4.318975,5.41108 -11.576098,15.42469 -16.133862,22.24555 -4.547382,6.83124 -12.178261,20.3382 -16.95405,30.00974 -5.533687,11.2368 -10.714379,23.75899 -14.316985,34.66408 -3.114645,9.39165 -6.8418376,22.43215 -8.2953386,28.97313 -1.453501,6.54097 -3.5922235,19.22903 -4.7446423,28.19566 -1.3912082,10.80144 -2.09719388,22.31812 -2.10757603,34.1458 0,12.12828 0.67483933,22.9919 2.10757603,33.88662 1.162801,8.82153 3.3222877,21.39554 4.7861709,27.93654 1.4638831,6.55133 4.44356,17.48752 6.623812,24.31875 2.180251,6.83123 6.104705,17.53937 8.721006,23.80046 2.616301,6.2611 7.57897,16.73082 11.015462,23.28217 3.446873,6.54098 9.676163,17.02106 13.86017,23.28215 4.173624,6.2611 11.119282,15.79787 15.427874,21.20896 4.308592,5.40071 13.071127,15.12406 19.466531,21.60285 6.385023,6.47879 16.279208,15.58018 21.968643,20.23455 5.68942,4.64399 13.36182,10.563 17.06825,13.15452 3.69605,2.59151 11.60724,7.66051 17.57698,11.25753 5.98013,3.6074 16.92291,9.43312 24.315,12.96793 7.39209,3.52447 18.80207,8.31359 25.34283,10.63558 6.54075,2.322 18.17914,5.82573 25.86193,7.7849 7.6828,1.94883 22.34238,4.7684 32.58957,6.24037 14.74265,2.1354 22.60194,2.69517 37.7495,2.69517 15.15794,0 23.01723,-0.55977 37.75988,-2.69517 10.24718,-1.47197 24.90677,-4.29154 32.58957,-6.24037 7.68278,-1.95917 19.31079,-5.4629 25.86193,-7.7849 6.54076,-2.32199 17.94035,-7.11111 25.34283,-10.63558 7.39208,-3.53481 18.33487,-9.36053 24.30461,-12.96793 5.98012,-3.59702 13.89132,-8.66602 17.58736,-11.25753 3.69605,-2.59152 11.37883,-8.51053 17.06826,-13.1649 5.68942,-4.65435 15.57322,-13.76612 21.95824,-20.23454 6.39541,-6.46842 15.14756,-16.19177 19.46654,-21.59248 4.30859,-5.41109 11.42035,-15.18628 15.79125,-21.72725 4.37088,-6.55136 11.24387,-18.42049 15.27214,-26.39199 4.02828,-7.96113 9.22972,-19.37415 11.5657,-25.345 2.336,-5.98121 5.92822,-16.45093 7.99426,-23.28216 2.06605,-6.83123 4.88999,-18.23389 6.27083,-25.35538 1.39121,-7.1111 3.22885,-18.75218 4.08018,-25.86329 0.86172,-7.11113 1.5677,-20.84614 1.5677,-30.52804 0,-9.81665 -0.70598,-23.07484 -1.59885,-30.00973 -0.8721,-6.82087 -2.30483,-16.368 -3.16655,-21.20894 -0.86172,-4.83059 -2.907,-13.91125 -4.54739,-20.17235 -1.64037,-6.2611 -4.91075,-16.96923 -7.27788,-23.80045 -2.35675,-6.83125 -8.17076,-20.33822 -12.9154,-30.00974 -4.74463,-9.67154 -12.35476,-23.1785 -16.90213,-30.00974 -4.55776,-6.82086 -11.81489,-16.83447 -16.13386,-22.24555 C 502.62025,101.55757 493.85772,91.844574 487.47269,85.386521 481.08767,78.918102 471.20387,69.816706 465.51445,65.151982 459.82502,60.487257 452.14224,54.557873 448.44619,51.96636 444.75015,49.374846 436.83895,44.31621 430.85883,40.708823 424.88909,37.101437 413.9463,31.275712 406.55422,27.751254 399.15174,24.226796 387.75215,19.448044 381.21139,17.136415 374.66025,14.814417 363.95626,11.528378 357.4155,9.8179792 350.87475,8.1075792 341.33354,5.9929045 336.20478,5.1325219 331.08637,4.2617733 321.77358,2.8416237 315.52353,1.970875 308.01724,0.92390344 297.0952,0.4366989 283.45307,0.52999334 272.07423,0.60255536 258.80584,1.2556173 253.96776,1.9812412 Z"
       style="stroke-width:1.03741;stroke:#000000;stroke-opacity:1"
       inkscape:label="vnejsi kruh" /><path
       id="Path 0"
       class="s0"
       d="m 265.85013,27.483209 c -2.18288,0.208543 -7.78893,0.873904 -12.44244,1.459816 -4.66343,0.595844 -10.93427,1.539263 -13.95061,2.105316 -3.00642,0.556121 -11.52961,2.512475 -18.92164,4.359591 -7.39203,1.837184 -19.05063,5.451972 -25.89695,8.02403 -6.84631,2.57206 -17.3837,7.150127 -23.40647,10.159138 -6.0327,3.018944 -15.43895,8.192855 -20.916,11.499788 -5.47708,3.306933 -13.55374,8.70925 -17.92944,12.016186 -4.3856,3.306932 -11.77765,9.245508 -16.44107,13.188011 -4.65352,3.942499 -11.62883,10.476915 -15.49848,14.508775 -3.869674,4.04181 -10.37864,11.38062 -14.466589,16.3162 -4.087947,4.93557 -11.023564,14.35985 -15.419103,20.93398 -4.395538,6.58408 -10.735823,17.34899 -14.089528,23.93306 -3.353706,6.57416 -8.11636,16.89217 -10.596914,22.93007 -2.480545,6.02794 -6.121992,16.57439 -8.096512,23.42659 -1.974519,6.8522 -4.663441,18.29241 -5.983092,25.42266 -1.309727,7.12034 -2.847671,18.34207 -3.423155,24.91621 -0.575495,6.58408 -1.051758,16.67371 -1.051758,22.43353 0,5.75981 0.476263,15.84945 1.051758,22.43353 0.575484,6.57413 2.113428,17.78593 3.423155,24.9162 1.319651,7.13027 3.939113,18.34205 5.824335,24.92612 1.895135,6.57415 5.308376,16.67372 7.590486,22.43353 2.2821,5.7499 7.163825,16.29634 10.84497,23.42659 3.67121,7.12033 10.239712,18.34207 14.575715,24.91621 4.336003,6.58408 12.214231,17.12058 17.512683,23.4266 5.288538,6.30602 13.375129,15.05499 17.969109,19.44437 4.58407,4.38938 12.15471,11.04297 16.8082,14.78686 4.65353,3.73396 13.39498,10.09956 19.42768,14.14137 6.02278,4.03186 17.00667,10.48684 24.3987,14.33997 7.39205,3.84318 19.49714,9.28524 26.88918,12.0857 7.40195,2.80046 19.50706,6.62379 26.89909,8.49077 7.39203,1.86697 19.49713,4.38939 26.88918,5.60094 11.27161,1.83718 17.40353,2.19469 37.85319,2.19469 20.44967,0 26.58159,-0.35751 37.85321,-2.19469 7.39205,-1.21155 19.49713,-3.73397 26.88916,-5.60094 7.39204,-1.86698 19.49714,-5.69031 26.8991,-8.49077 7.39204,-2.80046 19.26892,-8.12334 26.39306,-11.81756 7.12415,-3.70418 18.09812,-10.15915 24.3987,-14.33999 6.3006,-4.18084 15.27028,-10.63581 19.92379,-14.33997 4.65352,-3.70417 13.6331,-11.92681 19.95354,-18.27255 6.32045,-6.34574 14.53603,-15.35292 18.26677,-20.01042 3.73076,-4.66745 10.34887,-13.86331 14.71463,-20.43745 4.36577,-6.58407 11.47009,-19.14645 15.78624,-27.91529 4.30622,-8.76883 9.48563,-20.43745 11.4899,-25.91921 2.01421,-5.48175 5.14963,-15.79979 6.96539,-22.93006 1.81576,-7.13026 4.33601,-19.46424 5.5862,-27.40881 1.90506,-12.0559 2.28212,-18.352 2.28212,-37.88574 0,-19.30534 -0.38698,-25.88942 -2.20273,-37.3892 -1.21051,-7.67646 -3.72083,-20.01044 -5.58621,-27.40883 -1.85545,-7.40833 -5.01072,-17.94482 -7.015,-23.42659 -2.00427,-5.48177 -7.29282,-17.37878 -11.74788,-26.42567 -4.45507,-9.04691 -11.57922,-21.59935 -15.816,-27.90537 -4.23677,-6.306 -10.76558,-15.26354 -14.50626,-19.90119 -3.74068,-4.63763 -10.37863,-12.21479 -14.76424,-16.8425 -4.38562,-4.62771 -11.77765,-11.628879 -16.43117,-15.551517 -4.66342,-3.932571 -12.05548,-9.851287 -16.44108,-13.158219 -4.37569,-3.306936 -12.45237,-8.709253 -17.92943,-12.016186 -5.47706,-3.306933 -14.88331,-8.480844 -20.916,-11.499788 -6.02278,-3.009011 -16.56016,-7.587078 -23.40649,-10.159138 -6.8463,-2.572058 -18.50491,-6.196777 -25.89695,-8.043892 -7.39203,-1.847117 -16.13349,-3.8134 -19.41774,-4.379453 -3.29417,-0.566051 -8.89029,-1.519402 -12.45236,-2.105315 -3.56207,-0.595842 -15.88545,-1.241341 -27.39521,-1.439955 -11.49984,-0.198616 -22.71193,-0.188684 -24.90474,0.01985 z"
       style="stroke-width:0.992647;stroke:#000000;stroke-opacity:1"
       inkscape:label="vnitrni kruh" /><g
       inkscape:groupmode="layer"
       id="layer3"
       inkscape:label="Positions"
       style="display:none"><rect
         style="display:inline;fill:#ff2121;fill-opacity:0.107692;stroke:#000000;stroke-width:1.05245;stroke-opacity:1"
         id="rect1"
         width="300"
         height="300"
         x="135"
         y="80.172386" /><rect
         style="display:inline;fill:#de0000;fill-opacity:0.0923077;stroke:#000000;stroke-width:1.00157;stroke-opacity:1"
         id="rect2"
         width="300"
         height="83.006134"
         x="135"
         y="401.53375" /></g><text
       xml:space="preserve"
       style="font-size:107.967px;font-family:'Didact Gothic';-inkscape-font-specification:'Didact Gothic';text-align:start;letter-spacing:2px;writing-mode:lr-tb;direction:ltr;text-anchor:start;display:none;fill:#de0000;fill-opacity:0.0923077;stroke:#000000;stroke-width:6.86362;stroke-dasharray:none;stroke-opacity:1"
       x="169.1749"
       y="458.02887"
       id="text2"
       inkscape:label="Text"><tspan
         sodipodi:role="line"
         id="tspan2"
         x="169.1749"
         y="458.02887"
         style="font-style:normal;font-variant:normal;font-weight:normal;font-stretch:normal;font-family:'New Rocker';-inkscape-font-specification:'New Rocker';letter-spacing:2px;fill:#000000;fill-opacity:1;stroke:#000000;stroke-width:6.86362;stroke-dasharray:none;stroke-opacity:1">Špeh</tspan></text><path
       id="path5"
       style="display:none;stroke-width:8.05907"
       d="m 276.32799,515.95806 h 15.42748 v 4.53544 h -15.42748 z"
       inkscape:label="spojovnik pismen" /></g><g
     inkscape:groupmode="layer"
     id="layer2"
     inkscape:label="Content"
     style="display:inline"><g
       id="text2-0"
       inkscape:label="Text"
       style="opacity:1"><path
         id="path59"
         style="font-size:107.967px;font-family:'New Rocker';-inkscape-font-specification:'New Rocker';letter-spacing:2px;baseline-shift:baseline;white-space:pre;display:inline;overflow:visible;vector-effect:none;enable-background:accumulate;stop-color:#000000;stop-opacity:1;stroke:#000000;stroke-opacity:1;fill:none"
         d="M 219.20703 351.75 L 217.00195 353.03516 C 216.23142 353.48464 215.29507 353.98819 214.21484 354.5293 C 213.09928 355.01863 211.9527 355.53963 210.77734 356.0918 C 209.60446 356.57475 208.43069 357.05806 207.25781 357.54102 C 206.5483 357.80692 205.97134 357.99185 205.36328 358.19531 C 204.67325 357.94998 204.00337 357.71174 203.22656 357.4375 C 202.04207 356.94977 200.85832 356.46234 199.67383 355.97461 C 198.50403 355.42525 197.36444 354.90701 196.25391 354.41992 C 195.20741 353.86296 194.24324 353.3599 193.38281 352.92969 L 191.32227 351.90039 L 189.58789 353.41797 C 188.40576 354.45233 187.50702 355.27227 186.83008 355.94922 C 186.44179 356.33751 185.68372 357.03231 184.63477 357.94141 L 181.4043 360.74023 L 184.83594 363.28906 C 187.4257 365.21288 190.39458 367.26549 193.75195 369.45508 L 193.78906 369.47852 L 193.82422 369.50195 C 194.91819 370.17695 195.87191 370.92968 196.92578 371.62695 L 196.6582 372.08594 C 194.89667 375.1057 192.92751 376.99425 190.74414 378.08594 C 188.44823 379.2339 185.508 379.88477 181.80664 379.88477 C 180.0672 379.88477 178.65239 379.7793 177.62109 379.60742 C 176.28483 379.38471 175.23001 379.23003 174.375 379.14453 L 166.51953 378.35938 L 171.30273 384.64062 C 173.29918 387.26096 174.62256 390.17057 175.31641 393.51367 C 176.05842 397.08882 176.43164 400.81137 176.43164 404.69336 C 176.43164 408.25209 176.25707 411.69503 175.91016 415.02539 C 175.55424 418.44223 175.16314 421.63928 174.73828 424.61328 L 174.01758 429.66602 L 178.96875 428.42773 C 181.21492 427.86619 183.57304 427.33774 186.04297 426.84375 C 188.53138 426.34607 191.01987 425.88549 193.50781 425.45898 C 195.97518 425.03601 198.36597 424.68303 200.68164 424.40234 C 202.09534 424.23099 203.26391 424.138 204.51172 424.01953 C 204.72834 424.61088 204.90798 424.78879 205.08203 425.9375 C 205.41192 428.1148 205.58203 430.53678 205.58203 433.19727 C 205.58203 436.28375 205.37797 439.28988 204.96875 442.22266 L 204.96289 442.25781 L 204.95898 442.29102 C 204.82378 443.42674 204.60242 443.94174 204.42969 444.86133 C 202.3979 443.846 200.27669 442.81592 198.43359 441.83008 C 195.42164 440.11 192.67785 438.59301 190.21484 437.28906 C 187.73559 435.97652 185.56923 434.91196 183.67383 434.07617 C 181.6731 433.11844 179.99785 432.46289 178.02734 432.46289 L 173.53516 432.46289 L 174.7168 436.79883 C 174.88874 437.42929 174.99435 437.99825 175.04492 438.50391 C 175.10452 439.09971 175.13672 439.74192 175.13672 440.42969 C 175.13672 442.31965 174.75104 444.05888 173.94727 445.78125 L 173.93555 445.80469 L 173.92578 445.82812 C 173.13647 447.58889 172.0258 449.32807 170.55664 451.05273 L 166.00781 456.39258 L 173.01562 456.70703 C 177.7223 456.91778 181.754 457.33938 185.07422 457.94922 L 185.11328 457.95703 L 185.15234 457.96289 C 188.63934 458.52081 191.63311 459.17787 194.10938 459.91406 C 196.62044 460.6606 198.69921 461.46258 200.33203 462.27734 C 202.20173 463.24751 203.85177 464.17357 205.26562 465.04883 L 207.53516 466.45508 L 209.45703 464.59961 C 211.18553 462.92873 213.50979 461.55207 216.57812 460.5293 C 219.68037 459.49522 222.89819 458.97656 226.28906 458.97656 L 230.70508 458.97656 L 229.61523 454.69727 C 228.72851 451.21856 228.11232 447.59387 227.76758 443.81641 C 227.75807 443.68276 227.74747 443.54957 227.73828 443.41602 L 238.24609 443.41602 L 238.24609 471.74023 C 238.24609 475.3071 237.967 478.40131 237.44727 481 L 237.43945 481.04102 L 237.43359 481.08203 C 237.00532 483.52929 236.22707 485.2283 235.26172 486.38672 L 239.37305 491.68164 C 242.27003 490.30212 244.92433 489.25424 247.31445 488.52344 C 249.70306 487.815 251.88828 487.48047 253.87695 487.48047 C 255.52378 487.48047 256.83329 487.69819 257.81836 488.04297 L 266.08008 490.93555 L 261.98438 483.19922 C 261.39733 482.09035 260.91902 481.03469 260.54492 480.03711 L 260.5332 480.00195 L 260.51953 479.9668 C 260.19021 479.14349 259.92645 478.19737 259.74609 477.11523 L 259.74219 477.09766 L 259.74023 477.08203 C 259.54548 475.97845 259.38132 474.74949 259.24609 473.41406 C 259.18099 472.14269 259.14453 470.6185 259.14453 468.82617 L 259.14453 461.99609 C 259.75153 462.11924 260.42453 462.17155 261.00586 462.32227 L 261.01953 462.32617 L 261.03516 462.33008 C 262.8547 462.78496 264.81608 463.44606 266.91016 464.32422 L 268.64844 465.05469 L 270.19727 463.97656 C 273.37069 461.76897 276.52198 459.92198 279.65039 458.42578 L 279.66406 458.41992 L 279.67773 458.41211 C 282.81339 456.87764 285.81942 455.87398 288.70312 455.36133 L 293.01172 454.5957 L 290.97852 457.89844 L 297.12109 457.89844 C 298.09894 457.89844 299.54437 458.04584 301.35352 458.38086 L 301.36523 458.38281 L 301.37695 458.38477 C 303.24339 458.71806 305.15465 459.18647 307.11523 459.79492 L 307.18164 459.81641 L 307.25 459.83398 C 309.25341 460.36823 311.18168 461.03238 313.04297 461.83008 C 314.87254 462.61418 316.33717 463.4382 317.43359 464.24609 L 319.43945 465.72266 L 321.46484 464.27734 C 322.1799 463.76659 323.31324 463.14134 324.78906 462.49609 C 326.4134 461.88968 328.10516 461.3135 329.87305 460.76953 L 329.92969 460.75195 L 329.98633 460.73242 C 331.70924 460.13603 333.42023 459.67549 335.125 459.34766 L 335.1875 459.33594 L 335.24805 459.32227 C 337.02242 458.91279 338.52098 458.65096 339.69531 458.52734 L 344.08008 458.06445 L 342.55664 453.92773 C 342.1361 452.78628 341.84858 451.6663 341.66797 450.55664 C 341.54781 449.30969 341.47266 447.51248 341.47266 445.18164 L 341.47266 443.41602 L 349.7793 443.41602 L 349.7793 449.5 C 349.7793 451.18854 349.49701 452.27941 349.2793 452.71484 L 349.25781 452.75586 L 349.23828 452.79883 C 349.07564 453.14736 348.99265 453.23846 348.96875 453.25391 L 348.9668 453.25391 L 348.9668 453.25586 L 348.96484 453.25586 L 348.96484 453.25391 L 348.96484 453.25195 L 348.96484 453.25 L 348.9668 453.24805 C 348.96752 453.24737 348.96978 453.24677 348.9707 453.24609 L 346.86523 454.12109 L 346.86523 461.46094 L 373.59375 461.46094 L 373.59375 454.02148 L 371.4082 453.21094 C 371.37578 453.15237 371.3072 453.01149 371.19531 452.70898 C 370.93231 451.9979 370.67969 450.54952 370.67969 448.52734 L 370.67969 428.61914 L 378.5 425.12109 L 378.5 434.30664 L 378.5 434.33594 C 378.5716 438.41863 378.60742 442.50131 378.60742 446.58398 C 378.60742 447.16775 378.54312 448.43769 378.40234 450.19727 C 378.26084 451.96601 378.08263 453.92104 377.86914 456.05664 C 377.66124 458.06637 377.38398 460.07603 377.03711 462.08789 L 377.03711 462.09766 L 377.03516 462.10742 C 376.69153 464.16917 376.31687 465.84547 375.94531 467.08398 L 375.35547 469.04688 L 379.96484 473.65625 L 382.38867 471.05859 C 383.31108 470.0703 384.38744 469.02692 385.61523 467.93555 C 386.82834 466.85722 388.11327 465.8108 389.46875 464.79297 C 390.88723 463.78112 392.26355 462.87373 393.59375 462.07422 C 394.93673 461.30885 396.21664 460.7194 397.42383 460.29688 L 400.24219 459.31055 L 399.65625 456.38477 C 399.51858 455.69644 399.38086 454.96879 399.24219 454.20703 C 399.12966 453.52698 399.02777 452.56433 398.96094 451.36133 C 398.89224 450.12398 398.8221 448.50183 398.75195 446.55078 L 398.75195 438.70312 C 398.75195 434.98226 398.78685 431.87893 398.85742 429.4082 C 398.92832 426.92711 399.00002 424.84798 399.07031 423.15234 C 399.20545 421.54198 399.33983 420.24346 399.4668 419.27734 C 399.66122 418.25393 399.88288 417.30152 400.13086 416.43359 L 400.92773 413.64062 L 398.30664 412.39062 C 396.86838 411.70574 395.62204 411.06411 394.56445 410.4707 C 393.49676 409.80224 392.46165 409.13496 391.46094 408.46875 C 390.56033 407.82439 389.65084 407.11007 388.73438 406.32617 C 387.7493 405.41116 386.66537 404.39782 385.4707 403.27344 L 382.98047 400.92969 L 380.62695 403.41211 C 378.11729 406.0612 375.69689 408.34108 373.37891 410.25 C 372.59218 410.89789 371.54282 411.56036 370.67969 412.21289 L 370.67969 389.79297 C 370.67969 386.21834 370.92603 383.11407 371.38281 380.49023 C 371.87767 378.04763 372.68543 376.32045 373.66211 375.14844 L 369.55078 369.85156 C 366.66038 371.22794 363.97814 372.27687 361.51953 373.00781 L 361.50586 373.01172 L 361.49414 373.01562 C 359.18319 373.72175 357.04084 374.05273 355.04688 374.05273 C 353.40004 374.05273 352.09249 373.83501 351.10742 373.49023 L 342.84375 370.59961 L 346.93945 378.33594 C 347.5265 379.4448 348.00481 380.50047 348.37891 381.49805 C 348.73649 382.45161 349.00564 383.43168 349.18555 384.45117 L 349.20117 384.54688 L 349.22461 384.64062 C 349.4584 385.63425 349.61278 386.76142 349.67578 388.02148 C 349.74418 389.38982 349.7793 390.95529 349.7793 392.70898 L 349.7793 438.88086 L 341.70312 438.88086 L 341.98633 435.49023 L 337.16797 436.92578 C 333.44129 438.03586 330.47089 439.48748 328.375 441.79297 L 328.3457 441.82422 L 328.31641 441.85742 C 327.22708 443.11874 326.46636 444.6 325.86719 446.16211 C 325.56693 446.13371 325.37065 446.12019 325.04688 446.08789 C 323.67035 445.88168 322.26106 445.67677 320.82031 445.4707 C 319.35337 445.191 317.9563 444.91131 316.63281 444.63281 C 316.51784 444.60711 316.47707 444.58079 316.36719 444.55469 C 316.45199 443.72613 316.51834 443.03258 316.61914 442.0918 C 316.74304 440.93545 316.78892 439.74327 316.86719 438.56641 C 320.3098 438.02141 323.76942 437.48807 327.35156 437.0332 L 327.37891 437.0293 L 327.4043 437.02539 C 331.87349 436.38693 336.26846 435.89116 340.58789 435.53711 L 345.11523 435.16602 L 343.52148 430.91211 C 343.16115 429.95121 342.80078 428.72347 342.4668 427.25391 C 342.1338 425.78874 341.86495 424.24379 341.66211 422.62109 C 341.452 420.94019 341.27675 419.26038 341.13672 417.58008 C 340.99955 415.86184 340.93164 414.29754 340.93164 412.89844 C 340.93164 411.08213 341.0388 409.62465 341.20898 408.60352 L 341.85352 404.74219 L 337.94141 404.60938 C 333.77084 404.46801 329.56262 404.2219 325.31836 403.86914 L 325.31641 403.86914 L 325.31445 403.86719 L 325.3125 403.86719 L 325.31055 403.86719 C 321.06935 403.44286 317.52696 402.95034 314.72852 402.4043 L 312.93555 402.05469 L 311.64453 403.3457 C 309.27553 405.71471 306.90947 407.64063 304.55859 409.14258 L 304.53906 409.1543 L 304.52148 409.16602 C 302.38869 410.56757 300.03566 411.50954 297.35742 412.00781 L 293.58398 412.70898 L 294.70117 416.38086 C 295.13241 417.79779 295.62346 420.00017 296.11328 422.86914 L 296.12109 422.91797 L 296.13086 422.96484 C 296.64089 425.515 296.92773 428.95663 296.92773 433.19727 C 296.92773 434.82941 296.86023 436.65911 296.7207 438.68164 L 296.7168 438.74219 L 296.71484 438.80078 C 296.71393 438.8274 296.71189 438.85425 296.71094 438.88086 L 289.82031 438.88086 C 289.81526 438.71851 289.81137 438.55433 289.80664 438.38867 C 289.73594 435.91328 289.69922 432.99144 289.69922 429.63281 C 289.69922 426.95785 289.76962 424.32066 289.91016 421.7207 L 289.91016 421.71875 L 289.91016 421.7168 C 290.04024 419.24514 290.46663 416.59458 291.20703 413.76758 L 292.06445 410.49219 L 288.79883 409.58984 C 287.03925 409.10445 285.28392 408.34043 283.51367 407.26562 C 281.7899 406.21906 280.16978 404.8851 278.64062 403.22852 L 277.28906 401.76562 L 275.34766 402.21289 C 273.3809 402.66675 271.38478 403.23222 269.36328 403.9043 C 267.39626 404.51042 265.43559 405.22692 263.48047 406.05273 C 261.58851 406.81056 259.76404 407.64629 258.01172 408.56055 C 257.4113 408.87381 256.94207 409.19921 256.38086 409.51562 C 255.9069 408.74307 255.57801 407.94574 255.01758 407.1875 C 253.5903 405.25648 251.93622 403.6287 250.05859 402.37695 L 246.82422 400.2207 L 245.08594 403.69922 C 244.79049 404.29011 244.24817 405.15544 243.4668 406.19727 C 242.70601 407.21165 241.84096 408.20396 240.86914 409.17578 C 239.89062 410.1543 238.88266 411.06161 237.84766 411.90625 C 236.89428 412.61546 236.09375 413.0625 235.58594 413.25781 L 233.38672 414.10547 L 233.38672 420.18359 L 235.80859 420.92969 C 236.31879 421.08667 236.53934 421.25027 236.66016 421.37109 L 236.81055 421.52344 L 236.86719 421.57031 L 236.87109 421.57227 C 236.87018 421.57181 236.86793 421.57058 236.86719 421.57031 L 236.86523 421.57031 L 236.86328 421.57031 L 236.86328 421.57227 L 236.86328 421.57422 L 236.86328 421.57617 C 236.87628 421.62264 237.09855 421.93814 237.2793 422.625 L 237.30664 422.73242 L 237.3418 422.83789 C 237.60485 423.62705 237.90093 425.28649 238.03516 427.56836 L 238.03516 427.57031 L 238.03516 427.57422 C 238.17215 429.83458 238.24609 432.94999 238.24609 436.86719 L 238.24609 438.88086 L 227.48828 438.88086 C 227.39345 436.61385 227.3457 434.35876 227.3457 432.11719 C 227.3457 428.00163 227.45235 424.10711 227.66406 420.4375 C 227.87912 416.70979 228.09457 413.41805 228.30859 410.56445 L 228.5957 406.73242 L 224.75586 406.87891 C 220.93127 407.02323 217.53768 407.16775 214.57031 407.3125 C 211.58056 407.45835 208.87191 407.64002 206.4375 407.86133 L 206.43164 407.86133 L 206.42773 407.86328 C 204.03734 408.08738 201.81321 408.38587 199.75195 408.76758 L 199.74023 408.77148 L 199.72852 408.77344 C 199.02019 408.90966 198.36681 409.10931 197.67578 409.26562 C 197.5201 408.41303 197.30886 407.55859 197.19141 406.70703 C 196.92465 404.77306 196.79102 402.84364 196.79102 400.91406 C 196.79102 398.62362 197.01991 396.41951 197.47266 394.28516 L 197.47461 394.27539 L 197.47656 394.26367 C 197.68195 393.26609 198.15478 392.40313 198.48047 391.46875 C 198.91548 391.66869 199.24339 391.90529 199.70508 392.09766 C 201.50753 392.84868 203.31418 393.52595 205.12305 394.12891 L 205.20117 394.15625 L 205.2832 394.17773 C 207.13005 394.69485 208.87441 395.1413 210.52148 395.51562 L 210.60742 395.53516 L 210.69336 395.55078 C 212.46466 395.85883 213.94281 396.0332 215.27734 396.0332 C 219.23287 396.0332 222.94908 394.16215 225.86914 391.07031 C 228.66299 388.11212 230.84028 384.49211 232.41602 380.31641 L 234.80273 373.98828 L 228.28516 375.79883 C 227.09761 376.12871 225.87084 376.42392 224.61133 376.69141 C 223.44581 376.87215 222.24642 376.96875 221 376.96875 C 218.97013 376.96875 217.02359 376.8022 215.15234 376.48242 C 213.23354 376.08262 211.425 375.58928 209.73047 375.00391 C 209.49264 374.91821 209.29768 374.81085 209.06445 374.72266 C 212.84405 372.15218 216.38679 369.74944 219.0957 367.94336 L 219.12305 367.92383 C 222.45276 365.75172 224.59216 364.28874 225.93164 363.14062 L 229.07812 360.44336 L 225.8418 357.85547 C 224.82022 357.0382 224.06675 356.37339 223.64258 355.94922 C 223.01619 355.32283 222.16979 354.51276 221.07422 353.49023 L 219.20703 351.75 z M 316.41602 419.83008 C 317.12893 419.96694 317.77069 420.16803 318.50781 420.2832 L 318.56641 420.29297 L 318.625 420.30078 C 319.86474 420.45105 320.78935 420.45251 321.86719 420.5293 C 321.92389 421.23322 321.91319 421.95479 322.00781 422.64844 L 322.01758 422.72266 L 322.03125 422.79688 C 322.11895 423.27925 322.23569 423.71459 322.33008 424.18555 L 316.89258 425.5332 C 316.83438 424.76153 316.81578 424.07795 316.74023 423.26562 L 316.73828 423.24609 C 316.67578 422.2485 316.51644 420.94536 316.41602 419.83008 z M 268.63086 422.16016 C 268.58146 422.90785 268.53176 423.55661 268.48242 424.3457 L 268.47852 424.39844 L 268.47852 424.45117 C 268.40542 426.79016 268.36719 429.1297 268.36719 431.46875 L 268.36719 439.28906 L 268.36914 439.33594 C 268.41744 441.12374 268.50939 442.34539 268.5918 443.6875 C 267.8115 444.12627 267.08065 444.45623 266.23242 445.02148 L 266.23047 445.02148 L 266.23047 445.02344 L 266.22852 445.02344 L 266.22656 445.02344 L 266.22461 445.02539 C 265.35069 445.59454 264.73059 446.1411 264.01562 446.69141 C 262.99167 446.36566 262.01455 446.0261 260.86328 445.73828 C 260.21622 445.57652 259.73565 445.56065 259.14453 445.44141 L 259.14453 425.07617 C 259.4908 424.91817 259.65762 424.79428 260.08789 424.62695 L 260.16406 424.59766 L 260.23828 424.56445 C 261.37223 424.06047 262.62487 423.60913 263.99805 423.2168 C 265.39891 422.81655 266.83508 422.48116 268.31055 422.21289 L 268.36914 422.20312 L 268.42578 422.18945 C 268.50108 422.17305 268.55622 422.17586 268.63086 422.16016 z M 290.0293 443.41602 L 296.36133 443.41602 C 296.31426 443.80823 296.26261 444.19888 296.20703 444.58789 L 296.19922 444.64062 L 296.19336 444.69336 C 295.99337 446.49326 295.69421 448.17172 295.30469 449.73242 C 294.92879 451.16487 294.49832 452.17876 294.19727 452.66797 L 293.25781 454.19531 L 291.10352 450.31641 C 290.99623 450.12328 290.77665 449.57014 290.60742 448.73438 C 290.42695 447.76617 290.25795 446.40212 290.12109 444.69141 C 290.0888 444.28774 290.05809 443.86245 290.0293 443.41602 z " /></g><path
       id="path55"
       style="display:none;stroke-width:8.05907"
       d="m 285.60376,438.8803 h 15.42748 v 4.53544 h -15.42748 z"
       inkscape:label="spojovnik pismen" /><path
       id="path56"
       style="display:none;stroke-width:8.05907"
       d="m 224.5674,438.8803 h 15.42748 v 4.53544 H 224.5674 Z"
       inkscape:label="spojovnik pismen" /><path
       id="path57"
       style="display:none;stroke-width:8.05907"
       d="m 338.91464,438.8803 h 15.42748 v 4.53544 h -15.42748 z"
       inkscape:label="spojovnik pismen" /><g
       id="path71"
       style="opacity:1"
       transform="matrix(0.97354967,0,0,0.97354967,-3.3945243,-4.0732995)"><path
         style="baseline-shift:baseline;display:inline;overflow:visible;vector-effect:none;fill:none;stroke:#000000;stroke-opacity:1;enable-background:accumulate;stop-color:#000000;stop-opacity:1"
         d="m 197.74862,189.17595 3.4773,-2.46898 c -0.84129,0.12308 -3.12174,-1.33066 -1.89024,-2.69146 1.27637,-1.41037 1.34042,-2.04188 0.33553,-3.30822 -0.68308,-0.86081 -1.91696,-1.80634 -2.74196,-2.10119 -0.89927,-0.32139 -0.49879,-0.57353 1,-0.62959 1.375,-0.0514 4.38264,-0.74944 6.68364,-1.55116 4.83869,-1.68589 20.25509,-2.20653 22.82079,-0.77069 1.3172,0.73714 -0.0201,1.14839 -5.48568,1.68695 -3.97513,0.3917 -8.19304,1.10178 -9.37313,1.57796 l -2.14562,0.86578 2.25,0.0634 c 2.68505,0.0756 2.9347,1.56521 0.5,2.98329 -1.66667,0.97075 -1.66667,1.02073 0,1.04969 7.34436,0.12749 -8.62428,3.45365 4.61629,3.45365 3.98824,0 8.81811,2.24919 10.17253,1.10422 5.10861,-4.3186 5.7681,-3.29464 7.51759,-8.43619 -0.29842,-0.48286 0.61127,-1.16752 2.02154,-1.52148 1.41027,-0.35395 2.38057,-1.18946 2.15622,-1.85667 -0.22435,-0.66722 0.92289,-1.77669 2.54943,-2.4655 2.24775,-0.95188 2.70073,-1.56158 1.88785,-2.54104 -0.80978,-0.97572 -0.5768,-1.32577 0.95943,-1.44149 2.0454,-0.15407 4.87099,-1.97563 4.86692,-3.13753 -0.001,-0.34516 -7.84814,-0.63198 -17.43762,-0.63737 -16.99014,-0.01 -17.39232,0.0381 -15.7478,1.86803 0.92819,1.03281 2.57873,2.21049 3.66787,2.61706 1.44078,0.53783 0.19255,1.05053 -4.58191,1.88197 -3.60919,0.62851 -7.73351,1.14275 -9.16515,1.14275 -1.43165,0 -3.73948,0.43209 -5.12852,0.9602 -2.42927,0.92361 -2.48162,0.86383 -1.37336,-1.56852 0.63369,-1.3908 2.30338,-3.18933 3.71043,-3.99674 l 2.55826,-1.46801 -2.5,0.64815 c -9.9271,2.5737 -55.50153,25.96235 -56.70609,29.10138 -1.41852,3.6966 2.93441,1.48592 13.28247,-4.77155 7.30725,-4.41869 4.92102,-1.1383 -3.83251,4.84802 -3.57878,2.44744 -0.89034,2.52061 4.96061,-0.77716 3.18754,-1.79659 6.80802,-3.92786 8.04552,-4.73616 1.2375,-0.80829 2.25,-1.20659 2.25,-0.88509 0,0.32149 -3.34398,2.84103 -7.43107,5.59897 -6.77759,4.57346 -9.6232,7.04651 -8.10808,7.04651 0.31839,0 2.36101,-1.125 4.53915,-2.5 5.42736,-3.42614 6.0084,-3.13562 2,1 -1.86578,1.925 -2.88062,3.5 -2.25518,3.5 0.62543,0 1.41526,-0.45 1.75518,-1 0.99018,-1.60214 1.80308,-1.15203 1.14964,0.5508 -0.88935,2.31763 32.69659,-15.24102 34.16973,-16.28699 z"
         id="path74"
         sodipodi:nodetypes="scsssssssscsssssssssssccssssssscsssssssssssssss" /></g><g
       id="path70"
       style="opacity:1"
       transform="matrix(0.97354967,0,0,0.97354967,-3.3945243,-4.0732995)"><path
         style="baseline-shift:baseline;display:inline;overflow:visible;vector-effect:none;fill:none;stroke:#000000;stroke-opacity:1;enable-background:accumulate;stop-color:#000000;stop-opacity:1"
         d="m 192.04126,211.34319 c 3.5134,-0.96242 8.63799,-2.85537 11.38799,-4.20655 5.20293,-2.55641 17.3748,-11.21284 17.45436,-12.41325 0.0753,-1.13638 -8.23013,-2.24889 -13.56143,-1.67371 -3.36251,0.36276 -11.04751,3.36478 -23.65066,9.23871 -10.2683,4.78574 -18.74227,9.26978 -18.74227,9.69817 0,2.15952 18.48077,1.72096 27.11201,-0.64337 z"
         id="path72"
         sodipodi:nodetypes="sssssss" /></g><path
       style="display:inline;fill:none;stroke:#000000;stroke-width:0.973551;stroke-opacity:1"
       d="m 351.37369,148.86238 c 1.5485,0 -8.96539,-9.33123 -13.35108,-11.84928 -5.10323,-2.93 -15.82703,-6.69926 -18.67476,-6.56387 -1.29806,0.0617 -1.29806,0.12677 0,0.58552 8.09728,2.86174 18.81413,8.52174 25.73845,13.59351 3.17938,2.32877 6.0087,4.23412 6.28739,4.23412 z"
       id="path69" /><path
       style="display:inline;fill:none;stroke:#000000;stroke-width:0.973551;stroke-opacity:1"
       d="m 298.8318,126.83369 c 1.17575,-0.26588 5.20442,-1.04256 8.95258,-1.72594 l 6.81485,-1.24251 -7.13163,-1.29769 c -7.80598,-1.4204 -11.9789,2.48823 -20.22215,8.14022 -6.38873,4.38045 -20.7926,6.70933 11.58635,-3.87408 z"
       id="path68" /><path
       style="display:inline;fill:none;stroke:#000000;stroke-width:0.973551;stroke-opacity:1"
       d="m 351.84345,195.43999 c -0.61095,-1.34089 -1.29419,-2.25461 -1.51832,-2.03048 -0.22413,0.22413 0.0815,1.32123 0.67917,2.43798 1.52754,2.85425 2.18078,2.53704 0.83915,-0.4075 z"
       id="path67" /><path
       style="display:inline;fill:none;stroke:#000000;stroke-width:0.973551;stroke-opacity:1"
       d="m 244.62349,195.15653 c 3.30774,-0.41862 17.81626,-5.43225 17.27788,-5.97062 -0.19882,-0.19882 -2.0727,0.23144 -4.16416,0.95613 -2.09147,0.7247 -6.54079,1.915 -9.88737,2.6451 -3.34657,0.7301 -6.08468,1.64329 -6.08468,2.0293 0,0.38604 1.28625,0.53904 2.85833,0.34009 z"
       id="path66" /><path
       style="display:inline;fill:none;stroke:#000000;stroke-width:0.973551;stroke-opacity:1"
       d="m 227.14192,199.99481 c 0.16546,0.0634 0.17134,-0.25228 -0.30085,-0.85836 -0.38686,-0.49656 -1.7806,-0.92173 -3.22149,-0.85837 l -2.61981,0.11518 2.92066,0.74319 c 1.60635,0.40874 3.05602,0.79501 3.22149,0.85836 z"
       id="path65" /><path
       style="display:inline;fill:none;stroke:#000000;stroke-width:0.973551;stroke-opacity:1"
       d="m 302.62293,232.58332 c 1.52291,-0.43542 -1.93877,-0.94057 -9.24871,-1.34964 -6.83019,-0.38221 -14.66592,-1.48389 -18.86522,-2.65237 -3.95043,-1.09925 -7.37503,-1.8062 -7.61023,-1.571 -0.66761,0.6676 6.2017,2.73106 15.27963,4.58982 8.69943,1.78126 16.36409,2.14985 20.44453,0.98319 z"
       id="path64" /><path
       style="display:inline;fill:none;stroke:#000000;stroke-width:0.973551;stroke-opacity:1"
       d="m 329.73089,239.22856 c 0.97054,-0.97975 8.40897,-14.60324 7.97337,-14.60324 -0.7759,0 -6.93344,10.10448 -7.71248,12.65614 -0.4087,1.33864 -0.52609,2.21483 -0.26089,1.9471 z"
       id="path63" /><path
       style="display:inline;fill:none;stroke:#000000;stroke-width:0.973551;stroke-opacity:1"
       d="m 338.19045,212.2221 c -2.90785,-8.53661 -9.72414,-15.71548 -20.36107,-20.98222 -6.15917,-3.04966 -6.61455,-3.12267 -19.47099,-3.12267 -14.30387,0 -11.56619,-0.65504 -34.58241,8.27455 -4.28362,1.66191 -8.44554,3.18259 -9.24872,3.37927 -0.80318,0.19669 -3.06941,1.04205 -5.03606,1.87859 -3.09107,1.31484 -4.01476,1.34031 -6.81485,0.1879 -1.78152,-0.7332 -5.21055,-1.60795 -7.62009,-1.94389 l -4.38097,-0.61079 5.35452,2.01398 c 2.94499,1.10768 10.83074,4.59639 17.5239,7.7527 13.57458,6.40139 19.05903,8.37791 25.38977,9.15013 2.36692,0.28871 8.85249,1.21364 14.41238,2.05541 10.02327,1.5175 10.21968,1.50869 23.18752,-1.04039 7.19324,-1.41396 13.1951,-2.00515 13.57041,-2.07906 10.28121,-2.0246 9.47724,-0.80178 8.07666,-4.91351 z"
       id="path62" /><path
       style="display:inline;fill:none;stroke:#000000;stroke-width:0.973551;stroke-opacity:1"
       d="m 321.75254,297.42953 c 3.99796,-4.37719 3.57979,-5.18191 -0.9773,-1.88077 -5.2675,3.81577 -11.4857,5.39422 -18.6801,4.74185 -7.12195,-0.64579 -6.39511,0.67797 1.1096,2.02088 8.50832,1.52251 14.02428,0.0707 18.5478,-4.88196 z"
       id="path61" /><path
       style="display:inline;fill:none;stroke:#000000;stroke-width:0.973551;stroke-opacity:1"
       d="m 301.17651,305.061 c -0.2231,-0.20292 -3.62386,-1.71138 -7.55723,-3.35213 -21.28592,-8.87914 -46.91495,-29.13728 -60.87823,-48.12044 -3.0524,-4.14977 -5.75464,-7.54502 -6.00495,-7.54502 -0.25032,0 13.93397,22.38866 17.54716,25.70425 6.24498,5.73062 8.10506,7.95168 14.83796,12.38981 7.5552,4.98017 28.41037,18.65306 36.7819,20.61117 2.53069,0.59194 5.79326,0.78519 5.27339,0.31236 z"
       id="path60" /><g
       id="path3"
       style="opacity:1"><path
         style="baseline-shift:baseline;display:inline;overflow:visible;vector-effect:none;fill:none;stroke:#000000;stroke-width:0.973551;stroke-opacity:1;enable-background:accumulate;stop-color:#000000;stop-opacity:1"
         d="m 301.70301,103.07611 c -1.1613,0.0527 -2.30906,0.22065 -3.48158,0.58755 -2.34503,0.73382 -4.22105,1.94288 -6.92894,3.71356 -3.40554,2.22688 -7.48012,5.18157 -9.77162,7.16662 -1.82895,1.58437 -6.88494,5.90446 -11.1597,9.53394 -4.44986,3.77816 -12.08739,10.75836 -17.2729,15.77835 -6.04247,5.84962 -10.75899,8.92605 -11.20153,9.06999 -0.0218,0.006 -1.95091,0.38769 -4.31252,0.59135 -2.36159,0.20367 -5.38611,0.35914 -8.69919,0.44875 -6.62615,0.17921 -14.44101,0.0963 -20.7697,-0.30613 -4.07055,-0.25885 -7.54638,-0.17115 -11.56851,0.94503 -4.02212,1.11616 -8.48042,3.0708 -15.83919,6.44406 -1.63089,0.74759 -3.1825,1.4306 -4.32013,1.90716 -0.56881,0.23827 -1.04065,0.42586 -1.31961,0.53051 -0.13948,0.0522 -0.23774,0.0852 -0.21486,0.078 0.0229,-0.006 -0.35333,-0.16733 1.22073,-0.16733 -1.24271,0 -1.41939,0.18736 -1.72463,0.28523 -0.30523,0.0979 -0.53413,0.18877 -0.77389,0.28711 -0.47952,0.1967 -0.97678,0.42463 -1.56111,0.70355 -1.16863,0.55784 -2.65531,1.31277 -4.40759,2.22661 -3.50455,1.82769 -8.04188,4.28225 -12.7322,6.8757 -9.38064,5.1869 -19.01924,10.67091 -22.84609,13.30835 -2.97811,2.05247 -4.99058,3.52515 -6.60569,5.17577 -1.61511,1.65064 -2.8449,3.95708 -3.08988,6.05997 -0.14446,1.24008 -0.11999,2.39279 0.10458,3.58617 0.172,0.91402 0.10954,2.02956 1.31011,3.28002 0.0878,0.32587 0.17317,0.61665 0.28713,1.15419 0.33156,1.56406 0.70148,3.80882 0.99066,6.19117 0.87062,7.17249 1.52527,12.04719 4.78598,16.07877 3.26072,4.0316 7.90693,5.51562 14.35035,7.35677 13.66963,3.90597 22.267,6.03405 29.872,6.30526 7.605,0.27121 13.87962,-1.54564 21.59113,-4.77648 2.92842,-1.22689 5.72948,-2.4607 7.9329,-3.48348 0.28253,-0.13114 0.46245,-0.22607 0.72446,-0.34987 0.54776,1.38626 0.75531,1.8107 1.88245,4.90388 5.71729,15.6897 9.91011,23.81182 20.86857,40.43653 17.01181,25.80803 33.89186,38.31475 59.69076,43.91242 5.5683,1.20816 11.73626,1.85094 17.28242,1.9528 5.54615,0.10186 10.13841,-0.0522 14.07274,-1.69611 4.77156,-1.99369 8.94512,-5.13578 12.56487,-10.43333 3.61976,-5.29755 7.08308,-12.69061 12.14464,-24.50226 1.25889,-2.93774 2.51168,-5.67962 3.55194,-7.84925 1.5298,1.37789 3.13321,2.83634 6.3623,6.1132 5.14547,5.2216 7.76332,8.01881 8.51667,9.10422 0.75332,1.08541 0.35556,-0.55978 0.10647,1.14658 -0.90667,6.21128 -1.41555,9.5694 -1.35004,12.50403 0.0655,2.93462 1.44878,5.76168 2.70198,7.35486 3.04043,3.86529 8.74013,5.29688 13.37489,3.70215 4.63478,-1.59472 8.86886,-5.06686 13.57456,-10.1272 5.30797,-5.708 11.57254,-13.4567 17.04473,-20.82863 5.47219,-7.37193 10.04152,-14.07836 12.24353,-18.73513 2.81424,-5.95152 3.46429,-9.18248 3.5101,-18.60772 0.0368,-7.59071 -0.50008,-12.76867 -2.00034,-17.68172 -1.4814,-4.85128 -1.49152,-4.51947 -0.66552,-7.79981 0.31807,-1.26316 0.60496,-2.49259 0.82143,-3.50629 0.10825,-0.50686 0.20006,-0.95571 0.27192,-1.36145 0.0719,-0.40576 0.16203,-0.4598 0.16162,-1.50407 -9.2e-4,-2.75097 -1.7713,-3.8545 -2.42437,-4.24786 -0.65306,-0.39337 -0.99455,-0.47753 -1.2949,-0.56855 -0.60067,-0.18202 -0.99135,-0.2402 -1.4413,-0.30803 -0.89989,-0.13566 -1.92246,-0.22693 -3.16594,-0.31185 -2.48695,-0.1698 -5.7784,-0.2832 -9.40654,-0.30993 -4.77932,-0.0351 -8.06139,-0.28275 -11.4373,-0.48678 4.76304,-2.82967 10.64456,-6.14155 16.45145,-9.13082 4.58632,-2.36096 7.45934,-3.84642 9.89523,-6.20448 2.4359,-2.35807 3.72012,-5.1205 5.20431,-8.67068 3.61306,-8.64248 3.08571,-17.18782 -1.39377,-26.53493 -1.83552,-3.83006 -4.71601,-10.09959 -6.32047,-13.7552 -3.08509,-7.02908 -7.09251,-13.41504 -11.26047,-18.26546 -4.16797,-4.85042 -8.00208,-8.85702 -14.00239,-8.85702 -2.53005,0 -5.27874,1.14709 -7.931,3.09939 -2.65227,1.95229 -5.84145,4.85831 -10.86687,9.60619 -2.63815,2.49246 -4.88386,4.4242 -6.48019,5.62833 -0.44453,0.33532 -0.66712,0.45678 -0.98877,0.66932 -0.5121,-0.28835 -1.01827,-0.56847 -1.75694,-1.04391 -2.04194,-1.31426 -4.73927,-3.23678 -7.5317,-5.41537 -10.61093,-8.27837 -20.28936,-14.93277 -28.59613,-19.68015 -8.30676,-4.74738 -15.03044,-7.71252 -20.99977,-8.1877 -1.21946,-0.0971 -2.39254,-0.16106 -3.55383,-0.10839 z m -169.73344,90.06307 c 0.14089,0.34194 0.0259,2.97692 0.0239,2.96607 -0.003,-0.016 -0.0298,-2.74522 -0.0239,-2.96607 z m 80.75705,30.42672 c 1.0459,-1.05523 -0.67929,1.67061 -3.52262,3.49273 -2.22914,0.86297 2.53687,-2.49818 3.52262,-3.49273 z"
         id="path77"
         sodipodi:nodetypes="sssssscsssssssccssssssssscssssssscssssssscsssssssssssssssssssscsssssssssscsssssscscscs" /></g></g></svg>
