<?xml version="1.0" encoding="UTF-8" standalone="no"?>
<svg
   version="1.2"
   viewBox="0 0 570 570"
   width="570"
   height="570"
   id="svg1"
   sodipodi:docname="TravicTokenLaser.svg"
   inkscape:version="1.4.2 (2aeb623e1d, 2025-05-12)"
   xml:space="preserve"
   xmlns:inkscape="http://www.inkscape.org/namespaces/inkscape"
   xmlns:sodipodi="http://sodipodi.sourceforge.net/DTD/sodipodi-0.dtd"
   xmlns="http://www.w3.org/2000/svg"
   xmlns:svg="http://www.w3.org/2000/svg"><sodipodi:namedview
     id="namedview1"
     pagecolor="#ffffff"
     bordercolor="#666666"
     borderopacity="1.0"
     inkscape:showpageshadow="2"
     inkscape:pageopacity="0.0"
     inkscape:pagecheckerboard="0"
     inkscape:deskcolor="#d1d1d1"
     inkscape:zoom="0.79280795"
     inkscape:cx="-58.021618"
     inkscape:cy="370.20315"
     inkscape:window-width="1920"
     inkscape:window-height="940"
     inkscape:window-x="0"
     inkscape:window-y="0"
     inkscape:window-maximized="1"
     inkscape:current-layer="layer2"
     showgrid="false" /><defs
     id="defs1"><clipPath
       clipPathUnits="userSpaceOnUse"
       id="cp1"><path
         d="m 275.5,535.5 c -143.78,0 -260,-116.22 -260,-260 0,-143.78 116.22,-260 260,-260 143.78,0 260,116.22 260,260 0,143.78 -116.22,260 -260,260 z"
         id="path1" /></clipPath></defs><style
     id="style1">
		tspan { white-space:pre } 
		.s0 { fill: none;stroke: #ff0000;stroke-miterlimit:100 } 
	</style><g
     inkscape:groupmode="layer"
     id="layer1"
     inkscape:label="Template"><path
       id="Path 0 copy"
       class="s0"
       d="m 253.96776,1.9812412 c -4.83809,0.7256238 -12.51049,1.8658898 -17.06826,2.5396834 -4.54737,0.6737937 -14.55576,2.8299332 -22.23856,4.8098491 -7.68279,1.9695513 -20.01678,5.7427953 -27.40888,8.3757733 -7.40247,2.632979 -20.89926,8.551995 -30.00441,13.164891 -9.10514,4.602528 -22.37354,12.263042 -29.48531,17.021062 -7.11177,4.747653 -17.57697,12.48073 -23.26639,17.176553 -5.689435,4.695823 -15.573238,13.828318 -21.968643,20.296736 -6.385022,6.468418 -15.147556,16.191781 -19.456148,21.592491 -4.318975,5.41108 -11.576098,15.42469 -16.133862,22.24555 -4.547382,6.83124 -12.178261,20.3382 -16.95405,30.00974 -5.533687,11.2368 -10.714379,23.75899 -14.316985,34.66408 -3.114645,9.39165 -6.8418376,22.43215 -8.2953386,28.97313 -1.453501,6.54097 -3.5922235,19.22903 -4.7446423,28.19566 -1.3912082,10.80144 -2.09719388,22.31812 -2.10757603,34.1458 0,12.12828 0.67483933,22.9919 2.10757603,33.88662 1.162801,8.82153 3.3222877,21.39554 4.7861709,27.93654 1.4638831,6.55133 4.44356,17.48752 6.623812,24.31875 2.180251,6.83123 6.104705,17.53937 8.721006,23.80046 2.616301,6.2611 7.57897,16.73082 11.015462,23.28217 3.446873,6.54098 9.676163,17.02106 13.86017,23.28215 4.173624,6.2611 11.119282,15.79787 15.427874,21.20896 4.308592,5.40071 13.071127,15.12406 19.466531,21.60285 6.385023,6.47879 16.279208,15.58018 21.968643,20.23455 5.68942,4.64399 13.36182,10.563 17.06825,13.15452 3.69605,2.59151 11.60724,7.66051 17.57698,11.25753 5.98013,3.6074 16.92291,9.43312 24.315,12.96793 7.39209,3.52447 18.80207,8.31359 25.34283,10.63558 6.54075,2.322 18.17914,5.82573 25.86193,7.7849 7.6828,1.94883 22.34238,4.7684 32.58957,6.24037 14.74265,2.1354 22.60194,2.69517 37.7495,2.69517 15.15794,0 23.01723,-0.55977 37.75988,-2.69517 10.24718,-1.47197 24.90677,-4.29154 32.58957,-6.24037 7.68278,-1.95917 19.31079,-5.4629 25.86193,-7.7849 6.54076,-2.32199 17.94035,-7.11111 25.34283,-10.63558 7.39208,-3.53481 18.33487,-9.36053 24.30461,-12.96793 5.98012,-3.59702 13.89132,-8.66602 17.58736,-11.25753 3.69605,-2.59152 11.37883,-8.51053 17.06826,-13.1649 5.68942,-4.65435 15.57322,-13.76612 21.95824,-20.23454 6.39541,-6.46842 15.14756,-16.19177 19.46654,-21.59248 4.30859,-5.41109 11.42035,-15.18628 15.79125,-21.72725 4.37088,-6.55136 11.24387,-18.42049 15.27214,-26.39199 4.02828,-7.96113 9.22972,-19.37415 11.5657,-25.345 2.336,-5.98121 5.92822,-16.45093 7.99426,-23.28216 2.06605,-6.83123 4.88999,-18.23389 6.27083,-25.35538 1.39121,-7.1111 3.22885,-18.75218 4.08018,-25.86329 0.86172,-7.11113 1.5677,-20.84614 1.5677,-30.52804 0,-9.81665 -0.70598,-23.07484 -1.59885,-30.00973 -0.8721,-6.82087 -2.30483,-16.368 -3.16655,-21.20894 -0.86172,-4.83059 -2.907,-13.91125 -4.54739,-20.17235 -1.64037,-6.2611 -4.91075,-16.96923 -7.27788,-23.80045 -2.35675,-6.83125 -8.17076,-20.33822 -12.9154,-30.00974 -4.74463,-9.67154 -12.35476,-23.1785 -16.90213,-30.00974 -4.55776,-6.82086 -11.81489,-16.83447 -16.13386,-22.24555 C 502.62025,101.55757 493.85772,91.844574 487.47269,85.386521 481.08767,78.918102 471.20387,69.816706 465.51445,65.151982 459.82502,60.487257 452.14224,54.557873 448.44619,51.96636 444.75015,49.374846 436.83895,44.31621 430.85883,40.708823 424.88909,37.101437 413.9463,31.275712 406.55422,27.751254 399.15174,24.226796 387.75215,19.448044 381.21139,17.136415 374.66025,14.814417 363.95626,11.528378 357.4155,9.8179792 350.87475,8.1075792 341.33354,5.9929045 336.20478,5.1325219 331.08637,4.2617733 321.77358,2.8416237 315.52353,1.970875 308.01724,0.92390344 297.0952,0.4366989 283.45307,0.52999334 272.07423,0.60255536 258.80584,1.2556173 253.96776,1.9812412 Z"
       style="stroke-width:1.03741;stroke:#000000;stroke-opacity:1"
       inkscape:label="vnejsi kruh" /><path
       id="Path 0"
       class="s0"
       d="m 265.85013,27.483209 c -2.18288,0.208543 -7.78893,0.873904 -12.44244,1.459816 -4.66343,0.595844 -10.93427,1.539263 -13.95061,2.105316 -3.00642,0.556121 -11.52961,2.512475 -18.92164,4.359591 -7.39203,1.837184 -19.05063,5.451972 -25.89695,8.02403 -6.84631,2.57206 -17.3837,7.150127 -23.40647,10.159138 -6.0327,3.018944 -15.43895,8.192855 -20.916,11.499788 -5.47708,3.306933 -13.55374,8.70925 -17.92944,12.016186 -4.3856,3.306932 -11.77765,9.245508 -16.44107,13.188011 -4.65352,3.942499 -11.62883,10.476915 -15.49848,14.508775 -3.869674,4.04181 -10.37864,11.38062 -14.466589,16.3162 -4.087947,4.93557 -11.023564,14.35985 -15.419103,20.93398 -4.395538,6.58408 -10.735823,17.34899 -14.089528,23.93306 -3.353706,6.57416 -8.11636,16.89217 -10.596914,22.93007 -2.480545,6.02794 -6.121992,16.57439 -8.096512,23.42659 -1.974519,6.8522 -4.663441,18.29241 -5.983092,25.42266 -1.309727,7.12034 -2.847671,18.34207 -3.423155,24.91621 -0.575495,6.58408 -1.051758,16.67371 -1.051758,22.43353 0,5.75981 0.476263,15.84945 1.051758,22.43353 0.575484,6.57413 2.113428,17.78593 3.423155,24.9162 1.319651,7.13027 3.939113,18.34205 5.824335,24.92612 1.895135,6.57415 5.308376,16.67372 7.590486,22.43353 2.2821,5.7499 7.163825,16.29634 10.84497,23.42659 3.67121,7.12033 10.239712,18.34207 14.575715,24.91621 4.336003,6.58408 12.214231,17.12058 17.512683,23.4266 5.288538,6.30602 13.375129,15.05499 17.969109,19.44437 4.58407,4.38938 12.15471,11.04297 16.8082,14.78686 4.65353,3.73396 13.39498,10.09956 19.42768,14.14137 6.02278,4.03186 17.00667,10.48684 24.3987,14.33997 7.39205,3.84318 19.49714,9.28524 26.88918,12.0857 7.40195,2.80046 19.50706,6.62379 26.89909,8.49077 7.39203,1.86697 19.49713,4.38939 26.88918,5.60094 11.27161,1.83718 17.40353,2.19469 37.85319,2.19469 20.44967,0 26.58159,-0.35751 37.85321,-2.19469 7.39205,-1.21155 19.49713,-3.73397 26.88916,-5.60094 7.39204,-1.86698 19.49714,-5.69031 26.8991,-8.49077 7.39204,-2.80046 19.26892,-8.12334 26.39306,-11.81756 7.12415,-3.70418 18.09812,-10.15915 24.3987,-14.33999 6.3006,-4.18084 15.27028,-10.63581 19.92379,-14.33997 4.65352,-3.70417 13.6331,-11.92681 19.95354,-18.27255 6.32045,-6.34574 14.53603,-15.35292 18.26677,-20.01042 3.73076,-4.66745 10.34887,-13.86331 14.71463,-20.43745 4.36577,-6.58407 11.47009,-19.14645 15.78624,-27.91529 4.30622,-8.76883 9.48563,-20.43745 11.4899,-25.91921 2.01421,-5.48175 5.14963,-15.79979 6.96539,-22.93006 1.81576,-7.13026 4.33601,-19.46424 5.5862,-27.40881 1.90506,-12.0559 2.28212,-18.352 2.28212,-37.88574 0,-19.30534 -0.38698,-25.88942 -2.20273,-37.3892 -1.21051,-7.67646 -3.72083,-20.01044 -5.58621,-27.40883 -1.85545,-7.40833 -5.01072,-17.94482 -7.015,-23.42659 -2.00427,-5.48177 -7.29282,-17.37878 -11.74788,-26.42567 -4.45507,-9.04691 -11.57922,-21.59935 -15.816,-27.90537 -4.23677,-6.306 -10.76558,-15.26354 -14.50626,-19.90119 -3.74068,-4.63763 -10.37863,-12.21479 -14.76424,-16.8425 -4.38562,-4.62771 -11.77765,-11.628879 -16.43117,-15.551517 -4.66342,-3.932571 -12.05548,-9.851287 -16.44108,-13.158219 -4.37569,-3.306936 -12.45237,-8.709253 -17.92943,-12.016186 -5.47706,-3.306933 -14.88331,-8.480844 -20.916,-11.499788 -6.02278,-3.009011 -16.56016,-7.587078 -23.40649,-10.159138 -6.8463,-2.572058 -18.50491,-6.196777 -25.89695,-8.043892 -7.39203,-1.847117 -16.13349,-3.8134 -19.41774,-4.379453 -3.29417,-0.566051 -8.89029,-1.519402 -12.45236,-2.105315 -3.56207,-0.595842 -15.88545,-1.241341 -27.39521,-1.439955 -11.49984,-0.198616 -22.71193,-0.188684 -24.90474,0.01985 z"
       style="stroke-width:0.992647;stroke:#000000;stroke-opacity:1"
       inkscape:label="vnitrni kruh" /><g
       inkscape:groupmode="layer"
       id="layer3"
       inkscape:label="Positions"
       style="display:none"><rect
         style="display:inline;fill:#ff2121;fill-opacity:0.107692;stroke:#000000;stroke-width:1.05245;stroke-opacity:1"
         id="rect1"
         width="300"
         height="300"
         x="135"
         y="80.172386" /><rect
         style="display:inline;fill:#de0000;fill-opacity:0.0923077;stroke:#000000;stroke-width:1.00157;stroke-opacity:1"
         id="rect2"
         width="300"
         height="83.006134"
         x="135"
         y="401.53375" /></g><text
       xml:space="preserve"
       style="font-size:107.967px;font-family:'Didact Gothic';-inkscape-font-specification:'Didact Gothic';text-align:start;letter-spacing:2px;writing-mode:lr-tb;direction:ltr;text-anchor:start;display:none;fill:#de0000;fill-opacity:0.0923077;stroke:#000000;stroke-width:6.86362;stroke-dasharray:none;stroke-opacity:1"
       x="142.81688"
       y="457.19803"
       id="text2"
       inkscape:label="Text"><tspan
         sodipodi:role="line"
         id="tspan2"
         x="142.81688"
         y="457.19803"
         style="font-style:normal;font-variant:normal;font-weight:normal;font-stretch:normal;font-family:'New Rocker';-inkscape-font-specification:'New Rocker';letter-spacing:2px;fill:#000000;fill-opacity:1;stroke:#000000;stroke-width:6.86362;stroke-dasharray:none;stroke-opacity:1">TraviÄ</tspan></text><path
       id="path5"
       style="display:none;stroke-width:8.05907"
       d="m 276.32799,515.95806 h 15.42748 v 4.53544 h -15.42748 z"
       inkscape:label="spojovnik pismen" /></g><g
     inkscape:groupmode="layer"
     id="layer2"
     inkscape:label="Content"
     style="display:inline"><g
       id="path3"
       style="opacity:1"
       inkscape:label="Znak" /><path
       id="path31-2"
       style="display:inline;opacity:1;stroke-width:1;stroke-dasharray:none;stroke:#000000;stroke-opacity:1;fill:none"
       inkscape:label="text"
       d="m 182.23633,365.80273 0.45117,6.76172 c 0.06,0.90018 0.26892,1.76703 0.45508,2.63867 -0.75152,-0.0151 -1.65957,-0.0112 -2.35156,-0.0332 -2.03808,-0.13717 -4.1538,-0.37565 -6.34961,-0.71875 -2.11998,-0.34239 -4.4752,-0.8262 -7.06055,-1.45508 -2.53012,-0.63285 -5.65399,-1.48526 -9.36133,-2.55468 l -1.84765,-0.53125 -1.41993,1.29687 c -2.40097,2.19518 -4.77745,4.06085 -7.125,5.60352 l -0.0195,0.0117 -0.0195,0.0137 c -2.05475,1.38998 -4.90727,2.68158 -8.55273,3.76172 l -3.4043,1.00781 2.18945,6.56641 2.97071,-0.59376 c 1.60962,-0.32191 3.07686,-0.4746 4.40039,-0.4746 3.22343,0 6.87014,0.43146 10.92187,1.32421 l 0.0332,0.008 0.0332,0.006 c 3.51373,0.70274 7.26616,1.40343 11.06054,2.10547 v 0.35937 9.39258 c 0,2.63227 -0.0349,5.04508 -0.10546,7.23242 l -0.002,0.0547 v 0.0547 c 0,2.19442 -0.0353,4.23991 -0.10547,6.13477 l -0.002,0.0644 v 0.0625 c 0,1.90105 -0.0367,3.87899 -0.10742,5.92969 l -0.002,0.0586 v 6.86133 8.20508 c 0,2.90581 -0.33007,5.93913 -1.00391,9.10742 v 0.002 0.002 c -0.65059,2.98458 -1.59933,5.25712 -2.70703,6.86328 l -2.49024,3.60938 4.10157,1.54882 c 3.00925,1.13683 5.67575,2.49264 8.02148,4.05274 2.06503,1.43975 3.50396,3.22482 4.49023,5.60351 l 2.80665,6.77344 3.40234,-6.49609 c 1.41158,-2.69483 2.94329,-4.62482 4.49219,-5.91016 1.84371,-1.39234 4.17272,-2.78472 7.00781,-4.13476 l 5.63477,-2.6836 -5.28516,-3.32031 c -1.79531,-1.12848 -3.27963,-2.95471 -4.44531,-5.88086 -0.47887,-1.31001 -0.85763,-2.62937 -1.13672,-3.96484 h 18.08789 v 8.53906 c 0,1.65742 -0.24186,2.79392 -0.45899,3.30859 -0.12213,0.2895 -0.16897,0.37276 -0.18945,0.39063 h -0.002 l -0.002,0.002 h -0.002 -0.002 -0.002 -0.002 v -0.002 h -0.002 v -0.002 l -0.002,-0.002 h -0.002 l -0.002,-0.002 v -0.002 h -0.002 -0.002 -0.002 -0.002 l -2.24024,0.83007 v 7.43946 h 29.96875 v -8.20313 l -2.90234,-0.45312 c -1.72418,-0.26941 -2.46409,-0.74589 -2.6875,-0.95118 -0.16885,-0.28798 -0.56445,-1.32859 -0.56445,-3.32421 v -7.56836 h 22.88281 c -0.0115,2.57355 -0.0823,5.14707 -0.21094,7.7207 l 0.002,-0.004 c -0.13097,2.55394 -0.53135,4.55456 -1.07226,5.96094 l -1.76172,4.57813 4.90625,0.0859 c 3.95345,0.0682 7.38766,0.51184 10.29492,1.28711 l 0.01,0.002 0.008,0.004 c 3.01615,0.78682 5.72165,1.91782 8.1582,3.39258 l 2.52735,1.53125 6.22851,-7.49219 c 0.23964,0.35169 0.36923,0.72162 0.62695,1.07031 1.42728,1.93104 3.08136,3.55881 4.95899,4.81055 l 3.23437,2.15625 1.73829,-3.47656 c 0.29544,-0.59088 0.83776,-1.45622 1.61914,-2.49805 0.76077,-1.01437 1.62583,-2.00864 2.59765,-2.98047 0.99878,-0.99877 1.98434,-1.88551 2.95508,-2.66211 l 0.01,-0.008 0.0117,-0.008 c 0.93858,-0.76259 1.71804,-1.19269 2.22852,-1.375 l 2.27734,-0.81445 v -6.33594 l -2.66015,-0.61328 c -0.5274,-0.12171 -0.82928,-0.27308 -1.06836,-0.41211 l -0.002,-0.002 c 0.005,-0.005 -0.12303,-0.15958 -0.29883,-0.68946 -0.21634,-0.74023 -0.435,-1.83933 -0.61719,-3.22851 h 10.9043 c -0.006,0.66007 -0.0392,1.49949 -0.10157,2.49609 l -0.008,0.10547 v 0.10742 c 0,1.0034 -0.0331,2.08935 -0.10156,3.25391 l -0.006,0.10156 v 0.0996 c 0,1.08015 -0.034,2.16161 -0.10156,3.24219 -0.0706,1.05746 -0.14131,2.00822 -0.21094,2.84375 l -0.24414,2.9375 2.86719,0.68554 c 3.11155,0.74407 6.11433,1.75538 9.01953,3.03907 2.9284,1.29394 5.31546,2.63166 7.14844,3.95898 l 0.90039,0.65234 h 3.36523 l 15.14648,-11.72656 3.86719,-11.79687 h 12.17383 v 8.43164 c 0,5.08995 1.45844,9.79752 4.34375,13.70117 l 1.02734,1.39062 h 2.77539 l 0.48243,-0.14453 c 2.11243,-0.63372 4.14799,-1.19569 6.10742,-1.68554 1.90347,-0.47587 3.96299,-0.88863 6.17578,-1.23438 l 2.90234,-0.45312 v -3.06836 h 6.12696 c 1.93055,0 4.16507,0.1951 6.68359,0.60351 2.56916,0.41662 5.10075,0.93828 7.59766,1.5625 l 0.0117,0.002 0.01,0.002 c 2.54858,0.61993 4.86771,1.30591 6.96094,2.04687 2.08001,0.80805 3.68202,1.57141 4.69336,2.18946 l 2.46875,1.50781 1.90429,-2.17578 c 0.17318,-0.19791 0.69938,-0.65877 1.50391,-1.18164 0.95955,-0.57329 1.98845,-1.12347 3.0957,-1.64453 l 0.0371,-0.0176 0.0371,-0.0176 c 1.15918,-0.57959 2.30469,-1.05599 3.4375,-1.43359 l 0.0508,-0.0156 0.0508,-0.0195 c 1.22358,-0.4508 2.30631,-0.7536 3.2246,-0.92578 l 3.73047,-0.70117 -1.07031,-3.64063 c -0.30415,-1.03413 -0.59737,-2.33558 -0.86328,-3.8457 -0.18184,-1.41437 -0.29297,-3.4688 -0.29297,-6.0918 v -3.66992 c 0,-0.92598 0.0387,-1.61788 0.0801,-1.94922 l 0.64453,-5.15234 -4.99219,1.42578 c -3.54536,1.01296 -6.62563,2.8395 -8.95312,5.43555 l -0.004,0.004 -0.002,0.002 c -1.44969,1.62366 -2.42207,3.54509 -3.16602,5.57032 -1.18526,-0.17278 -2.2564,-0.26518 -3.63672,-0.58008 h -0.002 v -0.002 h -0.002 c -1.32049,-0.31082 -2.12798,-0.62886 -3.13867,-0.94727 0.18038,-1.58805 0.39766,-3.09425 0.49023,-4.88281 0.2192,-2.93368 0.33203,-5.63361 0.33203,-8.10156 0,-2.81757 -0.1136,-5.60157 -0.33594,-8.35157 -0.0129,-0.2416 -0.0519,-0.48302 -0.0664,-0.72461 0.38946,0.21928 0.76359,0.50387 1.1582,0.70118 2.59746,1.29872 5.02138,2.08984 7.47266,2.08984 3.27096,0 6.46249,-1.11869 9.30468,-3.09961 l 0.008,-0.006 0.008,-0.006 c 2.89834,-2.04589 5.20798,-4.75384 6.8125,-7.96289 l 2.05469,-4.10938 -4.52344,-0.80468 c -3.0406,-0.54056 -6.05056,-1.35149 -9.03711,-2.4375 -2.97281,-1.08102 -5.51709,-2.31147 -7.64258,-3.66406 l -0.5,-0.31836 0.0703,-3.91016 0.32813,-0.34766 c 4.7411,-5.02843 8.36337,-8.90231 10.89844,-11.65429 l 0.0332,-0.0352 c 2.56795,-2.71071 4.36655,-4.61623 5.38281,-5.70508 l 2.52735,-2.70703 -2.89258,-2.31445 c -1.02157,-0.81725 -1.77508,-1.48211 -2.19922,-1.90625 -0.62637,-0.62637 -1.47281,-1.43451 -2.56836,-2.45703 l -2.1582,-2.01368 -2.31446,1.83204 c -1.69563,1.34237 -3.53964,2.75901 -5.52734,4.25 -1.2506,0.92636 -2.42001,1.77319 -3.60937,2.63867 -1.22933,-0.86083 -2.44229,-1.70377 -3.73243,-2.625 l -0.0195,-0.0156 c -1.97019,-1.4781 -3.76027,-2.88051 -5.36133,-4.20312 l -2.24804,-1.85938 -2.19727,1.92188 c -1.18212,1.03435 -2.08088,1.85433 -2.75781,2.53125 -0.38827,0.38827 -1.14636,1.08311 -2.19531,1.99218 l -2.78516,2.41407 2.60547,2.60547 c 2.48457,2.48456 5.08198,5.19037 7.79101,8.11328 l 0.0293,0.0312 0.0312,0.0312 c 2.74701,2.81745 5.46327,5.81629 8.14844,8.99609 l 0.25781,0.30469 -0.0898,4.99414 c -2.64604,1.1589 -17.07618,5.75716 -20.7832,6.375 l -3.89258,0.65039 1.18359,3.76367 c 0.70181,2.23303 1.24597,5.00658 1.58789,8.28906 l 0.004,0.0391 0.004,0.0391 c 0.41096,3.2192 0.6211,6.71099 0.6211,10.4707 0,1.12996 -0.0153,2.24249 -0.0488,3.33594 h -8.79883 v -28.4707 l -3.74219,-6.23438 -2.46679,0.61524 c -0.4892,0.12229 -0.99465,0.24684 -1.51563,0.37304 l 0.0879,-4.81836 0.14844,-0.29882 c 1.07918,-2.15836 2.29855,-3.83653 3.62109,-5.10157 l 0.002,-0.002 c 1.5735,-1.50794 3.53108,-3.09904 5.86718,-4.74805 l 4.4043,-3.10937 -4.68164,-2.67383 c -0.3808,-0.2176 -1.10338,-0.66539 -2.02734,-1.25781 -0.89063,-0.68331 -1.8369,-1.39209 -2.84571,-2.13281 l -0.0156,-0.0117 c -0.94628,-0.74379 -1.85559,-1.48607 -2.73242,-2.22657 -0.74151,-0.68369 -1.26326,-1.254 -1.48438,-1.54882 l -1.76562,-2.35352 -2.59571,1.38477 c -2.56972,1.37051 -4.88296,3.28133 -6.92187,5.64648 l -0.004,0.004 -0.002,0.004 c -1.8479,2.15588 -3.44499,4.37089 -4.78125,6.65039 l -1.45117,2.47461 2.17773,1.86719 c 0.58559,0.50193 1.33811,1.10128 2.30078,1.8418 0.9256,0.712 1.88754,1.46102 2.88672,2.24609 0.94526,0.7427 1.8137,1.47945 2.60742,2.20703 l 0.10938,0.0996 0.11719,0.0899 c 0.83122,0.6394 1.3787,1.16252 1.53906,1.3496 l 0.96289,1.12305 -0.0781,4.35547 c -0.53863,0.12103 -1.08973,0.24358 -1.65234,0.36719 -2.89545,0.56468 -5.57171,1.02168 -8.01758,1.37109 L 359,405.0957 v 6.41992 l 3.99414,1.72657 v 22.35156 h -10.6875 l 6.08008,-18.55469 -1.38477,-1.48242 c -0.39172,-0.41971 -0.8317,-1.24119 -1.05273,-2.7832 v -0.002 h -0.002 v -0.002 c -0.26307,-1.91327 -0.39649,-3.94553 -0.39649,-6.09961 v -0.36523 l 4.98438,-7.47657 -9.21094,2.83399 c -2.68337,0.82565 -5.40061,1.51266 -8.15234,2.06445 -2.76025,0.48173 -5.48057,0.82708 -8.16016,1.03321 l -2.97461,0.22851 -0.43945,7.0332 2.10742,0.99219 c 0.41435,0.19499 0.65149,0.38558 0.97461,1.19336 l 0.0273,0.0664 0.0293,0.0664 c 0.29646,0.65881 0.66992,2.44858 0.66992,5.07032 0,1.92957 -0.13496,4.26898 -0.41406,6.99023 -0.27611,2.62055 -0.69023,5.32028 -1.2461,8.09961 l -0.008,0.041 -0.008,0.041 c -0.4822,2.75544 -1.10136,5.3958 -1.85352,7.92578 l -0.008,0.0293 -0.008,0.0312 c -0.33285,1.19826 -0.75029,1.9003 -1.13086,2.84961 l -0.72266,-0.39063 c 0.023,-0.91395 0.0625,-1.85621 0.0625,-2.72851 v -4.64258 c 0,-7.87076 -0.36379,-14.7608 -1.10547,-20.70313 -0.67985,-6.02769 -1.83777,-10.59569 -4.13867,-13.95117 l -2.08984,-3.04687 -2.88477,2.30664 c -0.33303,0.26642 -1.20907,0.79658 -2.46289,1.36523 -1.332,0.53061 -2.80681,1.06631 -4.42773,1.60743 -1.55739,0.47318 -3.14943,0.91383 -4.77735,1.32226 -1.63364,0.33912 -3.01218,0.57359 -4.08007,0.69922 l -3.03125,0.35742 v 1.5625 h -3.75 c -3.26572,0 -5.8578,-0.54659 -7.87696,-1.49023 -2.06534,-1.07168 -4.18682,-2.72654 -6.32812,-5.0625 l -1.87305,-2.04297 -2.39258,1.40039 c -1.64457,0.96406 -4.29479,1.98434 -7.84179,2.87109 -3.38131,0.84533 -7.57882,1.30078 -12.55469,1.30078 h -1.17774 c -0.51726,-0.10915 -0.91367,-0.10742 -1.30664,-0.10742 h -4.32422 l 0.26172,1.125 -2.97265,-0.70703 c -2.91326,-0.69363 -5.55917,-1.45326 -7.94532,-2.26953 -2.36295,-0.88003 -4.13056,-1.71887 -5.16015,-2.36914 l -3.58203,-2.26172 -1.46875,3.97461 c -0.61106,1.65346 -1.32419,3.11871 -1.98828,4.67383 v -1.08789 l -3.74024,-6.23438 -2.4668,0.61524 c -2.24264,0.56066 -4.82244,1.16288 -7.71679,1.79882 -2.89875,0.56546 -5.57516,1.0233 -8.02344,1.37305 l -2.94531,0.41992 v 6.41992 l 3.99414,1.72657 v 22.35156 h -18.65039 c -0.0161,-0.39048 -0.0234,-0.78378 -0.0234,-1.17773 0,-6.99366 -0.0353,-13.59177 -0.10742,-19.79688 -0.0718,-6.17696 -0.10742,-12.3172 -0.10742,-18.42187 0,-1.03479 0.10164,-2.03078 0.15039,-3.04688 h 1.16797 c 2.65259,0 5.30377,-0.32341 7.93359,-0.96094 l 0.0488,-0.0117 0.0469,-0.0117 c 2.54789,-0.69489 5.02371,-1.58386 7.41992,-2.66602 2.40403,-1.08568 4.69478,-2.36937 6.86914,-3.84375 2.19613,-1.44087 4.22281,-2.96742 6.07032,-4.58398 l 1.99414,-1.7461 -2.50781,-5.01562 -2.44727,0.34961 c -0.92843,0.13263 -1.8566,0.23264 -2.7832,0.29882 h -0.01 l -0.01,0.002 c -0.82839,0.0637 -1.78704,0.0976 -2.86719,0.0976 -1.97453,0 -3.87311,-0.0353 -5.69727,-0.10547 -1.67637,-0.0645 -3.35596,-0.2629 -5.04101,-0.58398 -1.65455,-0.38515 -3.44221,-0.93445 -5.34961,-1.6543 -1.78578,-0.7694 -3.80368,-1.85216 -6.03711,-3.27343 z m 69.67383,41.3711 0.71875,3.08203 c 0.54137,2.32016 1.16916,4.29245 1.96875,5.98047 l 0.0312,0.0644 0.0332,0.0645 c 0.85615,1.62669 1.85258,3.03397 3.0918,4.16993 l 0.0605,0.0547 0.0625,0.0527 c 1.19509,0.9959 2.57553,1.74954 4.06055,2.17383 l 0.13477,0.0391 0.13476,0.0273 c 1.32415,0.26484 2.7034,0.39063 4.12891,0.39063 2.20411,0 4.63686,-0.43068 7.48047,-1.19922 1.15672,-0.31263 2.21851,-0.79812 3.33984,-1.17578 v 3.53515 c -0.55373,0.21622 -0.93167,0.42552 -1.63477,0.64063 -1.46013,0.39631 -3.10788,0.76802 -4.95117,1.10937 -1.82271,0.33754 -3.76371,0.60982 -5.81445,0.81641 -1.99449,0.13646 -3.95143,0.20703 -5.86914,0.20703 -1.73944,0 -3.31457,-0.10148 -4.71875,-0.29297 l -5.9082,-0.80664 2.27148,5.51367 c 0.37112,0.90129 0.66792,2.02048 0.85156,3.36719 l 0.002,0.0117 0.002,0.01 c 0.0274,0.19171 0.0526,0.38696 0.0762,0.58398 h -22.67187 v -1.70117 l 6.72851,-9.46875 7.92774,4.14062 1.77734,-2.04492 c 1.74741,-2.00952 3.12455,-4.42519 4.17773,-7.17969 l 0.006,-0.0156 0.006,-0.0156 c 1.04172,-2.80462 1.74684,-5.84291 2.13477,-9.10156 z m 49.16211,6.05273 v 2.06836 l 4.18164,0.86524 c 0.92878,1.88263 1.84609,4.42074 2.58593,7.94922 l 0.006,0.0254 0.006,0.0254 c 0.70908,3.1402 1.16854,6.96261 1.34571,11.43359 h -11.0918 c -0.0332,-1.30528 -0.0508,-2.77837 -0.0508,-4.41602 0,-5.17251 0.14997,-9.07322 0.41211,-11.58203 0.31223,-2.32672 0.93599,-3.96952 1.67187,-5.02734 z m -23.8086,24.67969 v 6.45898 c -0.90207,-0.12039 -1.97584,-0.38585 -2.78906,-0.41992 -0.51614,-0.0224 -1.00347,-0.0719 -1.51172,-0.10156 l 0.0957,-4.87305 c 0.82495,-0.16783 1.52937,-0.23757 2.45118,-0.47656 l 0.0586,-0.0137 0.0566,-0.0176 c 0.53003,-0.15705 1.10016,-0.38481 1.63867,-0.55664 z m 106.63086,2.22266 h 8.55469 c -0.13293,1.69653 -0.31064,3.28957 -0.53125,4.78125 -0.26875,1.74633 -0.6002,3.25194 -0.97461,4.5 l -0.0234,0.0762 -0.0195,0.0781 c -0.30114,1.20455 -0.66974,1.9498 -0.77734,2.10352 l -3.31446,4.73437 v -3.21289 l -2.18554,-0.81054 c -0.0319,-0.0583 -0.10067,-0.19854 -0.21289,-0.50196 -0.26301,-0.71108 -0.51563,-2.15751 -0.51563,-4.17968 z"
       sodipodi:nodetypes="ccccccccccccccccscccccsccsccssccscccccccccccccccccssccccccccccccccccccccccccscccccccccccccsscsssscccccccccccccsccscccssccccccsccccscccssccccccccscccccccccsscccccccccccccsccsscccsccscccccscccsccccccccccsccsccccccccccccsccccccccssccccccccccccccccsscccccccccccccccccccscccccccccccscccccccccssccccccccccsccccsscsccccccccccccccccccssscscccsccccscccsscccccccccccccccsscccscsccccccccccccccsccccccccccscccccccccccccccccsccccssc" /><path
       id="path31"
       style="display:none;opacity:1;stroke-width:9.96511"
       d="m 185.77971,435.59302 h 23.58791 v 4.53544 h -23.58791 z"
       inkscape:label="spojovnik pismen" /><path
       id="path31-4"
       style="display:none;opacity:1;stroke-width:10.802"
       d="m 227.51336,435.59302 h 27.71625 v 4.53544 h -27.71625 z"
       inkscape:label="spojovnik pismen" /><path
       id="path31-4-6"
       style="display:none;opacity:1;stroke-width:8.45549"
       d="m 294.74188,435.59302 h 16.98256 v 4.53544 h -16.98256 z"
       inkscape:label="spojovnik pismen" /><path
       id="path31-4-6-1"
       style="display:none;opacity:1;stroke-width:8.45549"
       d="m 349.2745,435.59302 h 16.98256 v 4.53544 H 349.2745 Z"
       inkscape:label="spojovnik pismen" /><path
       id="path31-4-6-1-6"
       style="display:none;opacity:1;stroke-width:8.45549"
       d="m 378.53118,435.59302 h 16.98256 v 4.53544 h -16.98256 z"
       inkscape:label="spojovnik pismen" /><path
       id="path31-4-6-1-6-6"
       style="display:none;opacity:1;stroke-width:8.45549"
       d="m 418.75557,391.44414 -0.3069,16.97978 -4.5347,-0.082 0.3069,-16.97978 z"
       inkscape:label="spojovnik pismen" /><path
       id="path31-4-6-1-6-6-4"
       style="display:none;opacity:1;stroke-width:8.45549"
       d="m 376.29115,395.18433 -0.3069,16.97978 -4.5347,-0.082 0.3069,-16.97978 z"
       inkscape:label="spojovnik pismen" /><g
       id="path39"
       style="opacity:1;fill:none;stroke:#000000;stroke-opacity:1"><path
         style="baseline-shift:baseline;display:inline;overflow:visible;vector-effect:none;fill:none;stroke:#000000;stroke-opacity:1;enable-background:accumulate;stop-color:#000000;stop-opacity:1"
         d="m 235.77535,109.43309 c 2.21188,-1.44927 2.37217,-2.02899 1.83508,-0.62936 -0.43321,1.12891 -0.037,1.52786 1.40923,1.41892 1.62899,-0.12271 1.41016,-0.58952 1.10307,-3.01607 -0.20861,-1.64829 0.20268,-3.07128 0.86002,-3.86333 0.99878,-1.20346 0.82673,-1.32316 -1.04698,-0.72847 -2.76628,0.87798 -2.86778,-0.0891 -0.28629,-3.370906 2.41935,-3.0757 2.1262,-6.223384 -0.0603,-9.345034 -1.37211,-1.95896 -1.15781,-2.916411 -4.23507,-2.354571 -1.99704,0.36462 -4.62765,1.30465 -5.8458,2.08897 -1.21815,0.78431 -2.90565,1.42602 -3.75,1.42602 -0.84435,0 -1.53518,0.44343 -1.53518,0.98541 0,0.54197 2.26666,0.092 5.03702,-1 5.6827,-2.23991 6.96298,-2.4211 6.96298,-0.98541 0,0.55 -0.51173,1 -1.13717,1 -0.62545,0 -4.22545,2.03456 -8,4.52125 -6.66521,4.39106 -8.68587,6.223771 -5.11283,4.637261 5.25987,-2.335491 10.98469,-5.338821 12.69113,-6.657951 1.06762,-0.82531 2.41137,-1.50056 2.98612,-1.50056 0.57474,0 -2.00686,2.7544 -5.7369,6.1209 -3.73004,3.366491 -6.55584,6.346951 -6.27956,6.623221 0.27628,0.27628 2.61023,-1.35312 5.18656,-3.62089 4.7154,-4.150671 5.91441,-4.751971 6.72622,-3.373231 0.78575,1.33449 -1.21627,5.250001 -2.68436,5.250001 -0.78388,0 -1.69838,0.7118 -2.03222,1.58179 -0.94143,2.45332 -0.73443,2.76887 0.91718,1.39815 2.43363,-2.01973 2.69623,-0.52984 0.41725,2.3674 -2.3955,3.04539 -1.92653,3.34424 1.61079,1.02649 z"
         id="path54"
         sodipodi:nodetypes="sssssssssssscsssssssssssssss" /></g><g
       id="path38"
       style="opacity:1;fill:none;stroke:#000000;stroke-opacity:1"><path
         style="baseline-shift:baseline;display:inline;overflow:visible;vector-effect:none;enable-background:accumulate;stop-color:#000000;stop-opacity:1;fill:none;stroke:#000000;stroke-opacity:1"
         d="m 247.74895,112.55338 c 2.83829,-1.66334 4.1099,-3.01228 3.7424,-3.96997 -0.4259,-1.10986 -1.59119,-0.5858 -4.96118,2.23116 -2.42249,2.02495 -4.40453,3.81144 -4.40453,3.96997 0,0.74705 1.67632,0.0819 5.62331,-2.23116 z"
         id="path52" /></g><g
       id="path37"
       style="opacity:1;fill:none;stroke:#000000;stroke-opacity:1"><path
         style="baseline-shift:baseline;display:inline;overflow:visible;vector-effect:none;fill:none;stroke:#000000;stroke-opacity:1;enable-background:accumulate;stop-color:#000000;stop-opacity:1"
         d="m 249.61328,116.74805 c -3.19886,2.4202 -5.68366,4.36323 -9.42187,7.07812 -8.44392,6.13241 -12.71717,9.20298 -14.7793,10.33594 -1.03107,0.56648 -1.34656,0.55899 -1.28125,0.56055 0.0653,0.002 -0.0136,0.007 -0.73828,-0.35743 -0.55638,-0.27966 -0.68036,-0.40684 -0.875,-0.55468 0.11351,-0.0987 0.76038,-1.31916 2.95898,-3.42578 2.85366,-2.73429 8.62469,-6.2711 19.1836,-11.42188 2.51902,-1.22881 3.01695,-1.31068 4.95312,-2.21484 z"
         id="path51"
         sodipodi:nodetypes="csscccssc" /></g><g
       id="path36"
       style="opacity:1;fill:none;stroke:#000000;stroke-opacity:1"><path
         style="baseline-shift:baseline;display:inline;overflow:visible;vector-effect:none;enable-background:accumulate;stop-color:#000000;stop-opacity:1;fill:none;stroke:#000000;stroke-opacity:1"
         d="m 227.62564,145.25745 c 3.3,-2.08798 6.80149,-4.09995 7.78109,-4.47105 1.68935,-0.63996 15.05572,-9.36622 26.46891,-17.28027 2.8875,-2.00223 5.25,-4.04383 5.25,-4.53689 0,-1.51002 -4.34793,-0.98664 -7.13444,0.8588 -15.43131,10.21985 -19.9479,13.10003 -23.90616,15.24474 -4.80178,2.60175 -12.4316,7.89942 -16.87707,11.7184 l -2.58233,2.2184 2.5,0.0221 c 1.375,0.0121 5.2,-1.68625 8.5,-3.77423 z"
         id="path48" /></g><g
       id="path35"
       style="opacity:1;fill:none;stroke:#000000;stroke-opacity:1"><path
         style="baseline-shift:baseline;display:inline;overflow:visible;vector-effect:none;fill:none;stroke:#000000;stroke-opacity:1;enable-background:accumulate;stop-color:#000000;stop-opacity:1"
         d="m 319.28516,229.34375 c 0.005,0.009 0.009,0.008 0.0137,0.0176 0.27616,0.51203 0.39068,1.3492 0.21875,1.96679 -0.17194,0.6176 -0.48405,0.97031 -0.69922,1.17774 -0.0179,0.0172 10e-4,-0.006 -0.0156,0.01 -0.33815,-0.29718 -0.96021,-0.99011 -0.85546,-2.15039 0.007,-0.0724 0.0515,-0.0943 0.0625,-0.16211 z"
         id="path47"
         sodipodi:nodetypes="ccsscccc" /></g><g
       id="path34"
       style="opacity:1;fill:none;stroke:#000000;stroke-opacity:1"><path
         style="baseline-shift:baseline;display:inline;overflow:visible;vector-effect:none;fill:none;stroke:#000000;stroke-opacity:1;enable-background:accumulate;stop-color:#000000;stop-opacity:1"
         d="m 264.8457,142.28906 c 0.45835,0.798 0.70206,1.11761 1.21289,2.03516 1.14681,2.05984 3.88795,6.50456 6.24805,10.1543 2.29491,3.54889 6.33767,10.11012 8.91016,14.46679 2.61305,4.4254 7.75594,12.97012 11.45507,19.03321 11.93283,19.55855 17.79436,29.15304 20.42188,33.94921 1.28692,2.3491 1.70923,3.53229 1.75977,3.75586 -0.95339,1.26943 -2.19945,1.83205 -3.74224,2.12112 -0.94356,0.10441 -2.21788,0.2044 -3.69727,0.28711 -2.95878,0.1654 -6.74835,0.2669 -10.59961,0.26172 -6.50251,-0.009 -10.10729,-0.079 -12.5,-0.38868 -2.39271,-0.30962 -3.63827,-0.78913 -6.11914,-1.92187 -3.87882,-1.77103 -5.05535,-2.78951 -6.23633,-5.01367 -1.21246,-2.28349 -3.21525,-5.26 -4.83984,-7.17578 -1.12491,-1.32656 -2.18242,-2.99933 -3.31055,-4.7754 0.36243,-0.12722 0.73443,-0.27152 1.01563,-0.55273 0.67783,-0.67783 0.86883,-1.50236 0.89648,-2.07031 0.0277,-0.56796 -0.0673,-0.98844 -0.18554,-1.36719 -0.23647,-0.7575 -0.6016,-1.36608 -1.08789,-1.95703 0.14558,0.17691 -0.20813,-0.30743 -0.55469,-0.88281 -0.34656,-0.57539 -0.80017,-1.35674 -1.31836,-2.27344 -1.03638,-1.83341 -2.33523,-4.21025 -3.63281,-6.66406 -2.65572,-5.02214 -5.61654,-10.20864 -7.20118,-12.34571 -2.1402,-2.8863 -7.39887,-13.02401 -10.05078,-19.75195 l -1.25781,-3.19141 1.89258,-1.83593 c 1.30479,-1.26466 4.6906,-3.35724 6.45703,-3.98047 2.89129,-1.02011 6.80055,-3.28227 9.63086,-5.44336 1.22399,-0.93459 2.43674,-1.7892 3.35156,-2.37891 0.45741,-0.29485 0.8468,-0.52437 1.07617,-0.64648 0.11469,-0.0611 0.19336,-0.0946 0.17188,-0.0859 -0.0215,0.009 -0.0393,0.12305 -0.74219,0.12305 1.06819,0 1.9512,-0.7189 2.57617,-1.48438 z"
         id="path45"
         sodipodi:nodetypes="cssssscsscsssscssscsssscccssssccsc" /></g><g
       id="path33"
       style="opacity:1;fill:none;stroke:#000000;stroke-opacity:1"><path
         style="baseline-shift:baseline;display:inline;overflow:visible;vector-effect:none;fill:none;stroke:#000000;stroke-opacity:1;enable-background:accumulate;stop-color:#000000;stop-opacity:1"
         d="m 363.13581,333.82278 c 4.77997,-3.25322 7.14076,-6.90939 7.70738,-11.93651 0.4416,-3.9178 -0.1878,-5.76059 -5.58915,-16.36423 -1.79376,-2.57418 4.72082,8.68636 0.0229,18.94775 -1.8592,5.45647 -5.06096,5.67652 -11.6118,8.09661 -4.11022,1.51844 -4.62443,1.96396 -3,2.59918 3.84308,1.50281 9.12526,0.93404 12.47064,-1.3428 z"
         id="path42"
         sodipodi:nodetypes="ssccsss" /></g><g
       id="path2"
       style="opacity:1;fill:none;stroke:#000000;stroke-opacity:1"><path
         style="baseline-shift:baseline;display:inline;overflow:visible;vector-effect:none;enable-background:accumulate;stop-color:#000000;stop-opacity:1;fill:none;stroke:#000000;stroke-opacity:1"
         d="m 238.05273,76.373047 c -1.56172,0 -1.866,0.629148 -2.19336,0.943359 -0.32735,0.314212 -0.54677,0.602671 -0.76757,0.916016 -0.44161,0.62669 -0.84315,1.347091 -1.21094,2.154297 -0.0238,0.0523 -0.0224,0.03807 -0.0449,0.08594 -0.19485,-0.04929 -0.26942,-0.04754 -0.57813,-0.164062 -1.5099,-0.569925 -3.39156,-0.859477 -5.29492,-0.378907 -1.90336,0.480571 -3.89483,1.447789 -7.17187,3.09375 -5.8006,2.913468 -9.01184,4.553201 -11.02735,5.845704 -1.00775,0.646251 -1.76471,1.203179 -2.39844,2.03125 -0.63372,0.82807 -0.93945,2.028308 -0.93945,2.792968 0,-0.125207 -0.25452,0.679951 -0.42969,1.277344 -0.27563,-0.187338 -0.44074,-0.3975 -0.82031,-0.548828 -0.87017,-0.346925 -2.00075,-0.366217 -2.86719,-0.130859 -1.73287,0.470715 -2.96417,1.411727 -5.2539,2.970703 -3.47573,2.366458 -5.74246,4.053748 -7.04297,6.460938 -1.30051,2.40719 -0.79541,5.26121 0.38867,7.63476 0.70822,1.41966 1.88515,2.94215 3.46875,4.89649 1.58361,1.95433 3.51187,4.16164 5.44922,6.20117 1.84793,1.94539 3.53221,3.83113 4.7207,5.25781 0.59425,0.71334 1.06864,1.31749 1.34961,1.71094 0.1169,0.1637 0.17235,0.2554 0.20508,0.30859 0.16203,0.6866 0.42216,1.20326 0.72461,1.6582 0.42811,0.64396 0.94329,1.22967 1.58203,1.75977 0.1254,0.10407 0.33514,0.13512 0.46094,0.23242 -2.29697,2.18935 -4.6786,4.61373 -6.45117,6.86719 -1.55794,1.9806 -2.26166,4.41909 -2.38086,6.83008 -0.11921,2.41098 0.31618,4.8704 1.83789,6.875 1.67991,2.21301 4.31756,2.81836 7.11914,2.81836 0.70704,0 0.81317,0.049 1.09765,0.0937 0.13286,0.50779 0.36892,1.03687 0.81641,1.53711 0.86019,0.96157 2.12776,1.24432 3.03906,1.24218 1.82261,-0.004 3.43669,-0.59868 6.09375,-1.54687 0.74734,-0.26669 1.26971,-0.36297 1.75977,-0.45899 0.10544,0.16454 0.16085,0.33439 0.28906,0.54493 0.52702,0.8654 1.18838,1.89362 1.88086,2.91406 0.64751,0.95416 1.23861,1.86809 1.64844,2.53516 0.20491,0.33353 0.36676,0.61061 0.45117,0.76562 0.0119,0.0219 0.005,0.0109 0.0137,0.0273 8.9e-4,0.002 0.003,0.0152 0.004,0.0176 0.0428,0.12465 0.0719,0.19214 0.0996,0.25586 0.0553,0.12745 0.1017,0.22118 0.15429,0.32617 0.10519,0.21 0.23242,0.44935 0.39258,0.74414 0.32033,0.5896 0.76555,1.38563 1.31446,2.34961 1.09781,1.92796 2.60373,4.51919 4.25976,7.32422 1.64475,2.78593 3.14032,5.35701 4.21875,7.24219 0.64504,1.10424 1.28568,2.2094 1.82045,3.36912 0.10145,0.19855 0.22548,0.42652 0.38086,0.70898 0.31078,0.56493 0.74373,1.33202 1.27735,2.26172 1.06723,1.85941 2.53018,4.36406 4.14062,7.08008 3.20172,5.39974 6.97811,11.8797 8.32617,14.28516 1.4137,2.52256 5.15902,9.0297 8.36719,14.53906 3.19407,5.48515 6.81492,11.82729 7.95703,13.92969 1.25556,2.31123 4.61048,8.11727 7.55664,13.08789 2.91533,4.9186 7.85041,13.47371 10.92969,18.94726 3.10795,5.52452 11.69732,20.59016 19.10938,33.51954 7.39552,12.90052 15.03076,26.72552 16.6914,30.14648 4.68935,9.66014 11.96594,15.15362 22.57422,17.04883 4.98847,0.8912 10.65827,0.01 15.87305,-1.89063 5.21477,-1.90052 9.9877,-4.80072 12.94336,-8.67578 4.03903,-5.29545 6.85937,-13.36422 6.85937,-19.8418 0,-3.00917 -0.62234,-5.98306 -2.36328,-9.82617 -1.74094,-3.8431 -4.57104,-8.7037 -9.19531,-16.21875 -4.86162,-7.90077 -16.37779,-27.33617 -26.62696,-44.94336 -1.94562,-3.34241 -4.29887,-7.19887 -5.4375,-8.87109 -1.80262,-2.64744 -0.79905,-1.511 -2.6056,-4.76581 -0.6314,-1.13752 -1.58264,-2.79324 -2.92774,-5.09179 -2.69019,-4.59711 -6.94654,-11.75749 -13.24805,-22.29883 -2.62637,-4.39348 -5.62124,-9.44448 -6.61328,-11.1543 -6.14721,-10.59504 -13.50516,-23.12391 -18.70312,-31.84375 -7.57148,-12.70151 -13.2057,-22.3788 -17.07031,-29.33593 -3.86462,-6.95714 -6.00227,-11.47912 -6.35547,-12.69727 -0.23554,-0.81236 -0.17928,-0.96232 -0.16602,-1.00586 0.0133,-0.0435 0.14363,-0.34368 0.86719,-1.02344 2.31278,-2.17274 3.1347,-5.28005 3.36523,-8.35547 0.23054,-3.07541 -0.063,-6.24078 -2.2207,-8.625 -1.44871,-1.60081 -3.64063,-2.68257 -5.92969,-2.64843 -2.28906,0.0341 -4.57961,0.83834 -7.48437,2.15625 -0.86,0.39019 -1.54708,0.66265 -2.21875,0.93164 -0.0961,-0.18173 -0.17254,-0.3196 -0.27149,-0.50977 -0.54847,-1.05419 -1.30455,-1.87572 -2.1875,-2.52148 -0.786,-0.57486 -1.71308,-1.00529 -2.88086,-1.10547 0.49326,-1.05505 0.7109,-2.255589 0.5293,-3.337889 -0.236,-1.406495 -0.77774,-2.835533 -1.60351,-4.728516 -1.34764,-3.089281 -3.39519,-6.970306 -5.25391,-10.166015 -0.92936,-1.597855 -1.80421,-3.010948 -2.55078,-4.09375 -0.37329,-0.541401 -0.70458,-0.994716 -1.06446,-1.40625 -0.17993,-0.205767 -0.35808,-0.400684 -0.64453,-0.632813 -0.28644,-0.232128 -0.5971,-0.710937 -1.91211,-0.710937 z"
         id="path41"
         sodipodi:nodetypes="cssscsssssccssssssssscsscsssscscscsssscccssssssssssssssssssssssssssssssssssssscsscsssssscc" /></g></g></svg>
