<?xml version="1.0" encoding="UTF-8" standalone="no"?>
<svg
   version="1.2"
   viewBox="0 0 570 570"
   width="570"
   height="570"
   id="svg1"
   sodipodi:docname="VedmaRoleTokenLaser.svg"
   inkscape:version="1.4.2 (2aeb623e1d, 2025-05-12)"
   xml:space="preserve"
   xmlns:inkscape="http://www.inkscape.org/namespaces/inkscape"
   xmlns:sodipodi="http://sodipodi.sourceforge.net/DTD/sodipodi-0.dtd"
   xmlns="http://www.w3.org/2000/svg"
   xmlns:svg="http://www.w3.org/2000/svg"><sodipodi:namedview
     id="namedview1"
     pagecolor="#ffffff"
     bordercolor="#666666"
     borderopacity="1.0"
     inkscape:showpageshadow="2"
     inkscape:pageopacity="0.0"
     inkscape:pagecheckerboard="0"
     inkscape:deskcolor="#d1d1d1"
     inkscape:zoom="1.6988485"
     inkscape:cx="288.43067"
     inkscape:cy="270.47733"
     inkscape:window-width="1920"
     inkscape:window-height="940"
     inkscape:window-x="0"
     inkscape:window-y="0"
     inkscape:window-maximized="1"
     inkscape:current-layer="path1-3"
     showgrid="false" /><defs
     id="defs1"><clipPath
       clipPathUnits="userSpaceOnUse"
       id="cp1"><path
         d="m 275.5,535.5 c -143.78,0 -260,-116.22 -260,-260 0,-143.78 116.22,-260 260,-260 143.78,0 260,116.22 260,260 0,143.78 -116.22,260 -260,260 z"
         id="path1" /></clipPath></defs><style
     id="style1">
		tspan { white-space:pre } 
		.s0 { fill: none;stroke: #ff0000;stroke-miterlimit:100 } 
	</style><g
     inkscape:groupmode="layer"
     id="layer1"
     inkscape:label="Template"><path
       id="Path 0 copy"
       class="s0"
       d="m 253.96776,1.9812412 c -4.83809,0.7256238 -12.51049,1.8658898 -17.06826,2.5396834 -4.54737,0.6737937 -14.55576,2.8299332 -22.23856,4.8098491 -7.68279,1.9695513 -20.01678,5.7427953 -27.40888,8.3757733 -7.40247,2.632979 -20.89926,8.551995 -30.00441,13.164891 -9.10514,4.602528 -22.37354,12.263042 -29.48531,17.021062 -7.11177,4.747653 -17.57697,12.48073 -23.26639,17.176553 -5.689435,4.695823 -15.573238,13.828318 -21.968643,20.296736 -6.385022,6.468418 -15.147556,16.191781 -19.456148,21.592491 -4.318975,5.41108 -11.576098,15.42469 -16.133862,22.24555 -4.547382,6.83124 -12.178261,20.3382 -16.95405,30.00974 -5.533687,11.2368 -10.714379,23.75899 -14.316985,34.66408 -3.114645,9.39165 -6.8418376,22.43215 -8.2953386,28.97313 -1.453501,6.54097 -3.5922235,19.22903 -4.7446423,28.19566 -1.3912082,10.80144 -2.09719388,22.31812 -2.10757603,34.1458 0,12.12828 0.67483933,22.9919 2.10757603,33.88662 1.162801,8.82153 3.3222877,21.39554 4.7861709,27.93654 1.4638831,6.55133 4.44356,17.48752 6.623812,24.31875 2.180251,6.83123 6.104705,17.53937 8.721006,23.80046 2.616301,6.2611 7.57897,16.73082 11.015462,23.28217 3.446873,6.54098 9.676163,17.02106 13.86017,23.28215 4.173624,6.2611 11.119282,15.79787 15.427874,21.20896 4.308592,5.40071 13.071127,15.12406 19.466531,21.60285 6.385023,6.47879 16.279208,15.58018 21.968643,20.23455 5.68942,4.64399 13.36182,10.563 17.06825,13.15452 3.69605,2.59151 11.60724,7.66051 17.57698,11.25753 5.98013,3.6074 16.92291,9.43312 24.315,12.96793 7.39209,3.52447 18.80207,8.31359 25.34283,10.63558 6.54075,2.322 18.17914,5.82573 25.86193,7.7849 7.6828,1.94883 22.34238,4.7684 32.58957,6.24037 14.74265,2.1354 22.60194,2.69517 37.7495,2.69517 15.15794,0 23.01723,-0.55977 37.75988,-2.69517 10.24718,-1.47197 24.90677,-4.29154 32.58957,-6.24037 7.68278,-1.95917 19.31079,-5.4629 25.86193,-7.7849 6.54076,-2.32199 17.94035,-7.11111 25.34283,-10.63558 7.39208,-3.53481 18.33487,-9.36053 24.30461,-12.96793 5.98012,-3.59702 13.89132,-8.66602 17.58736,-11.25753 3.69605,-2.59152 11.37883,-8.51053 17.06826,-13.1649 5.68942,-4.65435 15.57322,-13.76612 21.95824,-20.23454 6.39541,-6.46842 15.14756,-16.19177 19.46654,-21.59248 4.30859,-5.41109 11.42035,-15.18628 15.79125,-21.72725 4.37088,-6.55136 11.24387,-18.42049 15.27214,-26.39199 4.02828,-7.96113 9.22972,-19.37415 11.5657,-25.345 2.336,-5.98121 5.92822,-16.45093 7.99426,-23.28216 2.06605,-6.83123 4.88999,-18.23389 6.27083,-25.35538 1.39121,-7.1111 3.22885,-18.75218 4.08018,-25.86329 0.86172,-7.11113 1.5677,-20.84614 1.5677,-30.52804 0,-9.81665 -0.70598,-23.07484 -1.59885,-30.00973 -0.8721,-6.82087 -2.30483,-16.368 -3.16655,-21.20894 -0.86172,-4.83059 -2.907,-13.91125 -4.54739,-20.17235 -1.64037,-6.2611 -4.91075,-16.96923 -7.27788,-23.80045 -2.35675,-6.83125 -8.17076,-20.33822 -12.9154,-30.00974 -4.74463,-9.67154 -12.35476,-23.1785 -16.90213,-30.00974 -4.55776,-6.82086 -11.81489,-16.83447 -16.13386,-22.24555 C 502.62025,101.55757 493.85772,91.844574 487.47269,85.386521 481.08767,78.918102 471.20387,69.816706 465.51445,65.151982 459.82502,60.487257 452.14224,54.557873 448.44619,51.96636 444.75015,49.374846 436.83895,44.31621 430.85883,40.708823 424.88909,37.101437 413.9463,31.275712 406.55422,27.751254 399.15174,24.226796 387.75215,19.448044 381.21139,17.136415 374.66025,14.814417 363.95626,11.528378 357.4155,9.8179792 350.87475,8.1075792 341.33354,5.9929045 336.20478,5.1325219 331.08637,4.2617733 321.77358,2.8416237 315.52353,1.970875 308.01724,0.92390344 297.0952,0.4366989 283.45307,0.52999334 272.07423,0.60255536 258.80584,1.2556173 253.96776,1.9812412 Z"
       style="stroke-width:1.03741;stroke:#000000;stroke-opacity:1"
       inkscape:label="vnejsi kruh" /><path
       id="Path 0"
       class="s0"
       d="m 265.85013,27.483209 c -2.18288,0.208543 -7.78893,0.873904 -12.44244,1.459816 -4.66343,0.595844 -10.93427,1.539263 -13.95061,2.105316 -3.00642,0.556121 -11.52961,2.512475 -18.92164,4.359591 -7.39203,1.837184 -19.05063,5.451972 -25.89695,8.02403 -6.84631,2.57206 -17.3837,7.150127 -23.40647,10.159138 -6.0327,3.018944 -15.43895,8.192855 -20.916,11.499788 -5.47708,3.306933 -13.55374,8.70925 -17.92944,12.016186 -4.3856,3.306932 -11.77765,9.245508 -16.44107,13.188011 -4.65352,3.942499 -11.62883,10.476915 -15.49848,14.508775 -3.869674,4.04181 -10.37864,11.38062 -14.466589,16.3162 -4.087947,4.93557 -11.023564,14.35985 -15.419103,20.93398 -4.395538,6.58408 -10.735823,17.34899 -14.089528,23.93306 -3.353706,6.57416 -8.11636,16.89217 -10.596914,22.93007 -2.480545,6.02794 -6.121992,16.57439 -8.096512,23.42659 -1.974519,6.8522 -4.663441,18.29241 -5.983092,25.42266 -1.309727,7.12034 -2.847671,18.34207 -3.423155,24.91621 -0.575495,6.58408 -1.051758,16.67371 -1.051758,22.43353 0,5.75981 0.476263,15.84945 1.051758,22.43353 0.575484,6.57413 2.113428,17.78593 3.423155,24.9162 1.319651,7.13027 3.939113,18.34205 5.824335,24.92612 1.895135,6.57415 5.308376,16.67372 7.590486,22.43353 2.2821,5.7499 7.163825,16.29634 10.84497,23.42659 3.67121,7.12033 10.239712,18.34207 14.575715,24.91621 4.336003,6.58408 12.214231,17.12058 17.512683,23.4266 5.288538,6.30602 13.375129,15.05499 17.969109,19.44437 4.58407,4.38938 12.15471,11.04297 16.8082,14.78686 4.65353,3.73396 13.39498,10.09956 19.42768,14.14137 6.02278,4.03186 17.00667,10.48684 24.3987,14.33997 7.39205,3.84318 19.49714,9.28524 26.88918,12.0857 7.40195,2.80046 19.50706,6.62379 26.89909,8.49077 7.39203,1.86697 19.49713,4.38939 26.88918,5.60094 11.27161,1.83718 17.40353,2.19469 37.85319,2.19469 20.44967,0 26.58159,-0.35751 37.85321,-2.19469 7.39205,-1.21155 19.49713,-3.73397 26.88916,-5.60094 7.39204,-1.86698 19.49714,-5.69031 26.8991,-8.49077 7.39204,-2.80046 19.26892,-8.12334 26.39306,-11.81756 7.12415,-3.70418 18.09812,-10.15915 24.3987,-14.33999 6.3006,-4.18084 15.27028,-10.63581 19.92379,-14.33997 4.65352,-3.70417 13.6331,-11.92681 19.95354,-18.27255 6.32045,-6.34574 14.53603,-15.35292 18.26677,-20.01042 3.73076,-4.66745 10.34887,-13.86331 14.71463,-20.43745 4.36577,-6.58407 11.47009,-19.14645 15.78624,-27.91529 4.30622,-8.76883 9.48563,-20.43745 11.4899,-25.91921 2.01421,-5.48175 5.14963,-15.79979 6.96539,-22.93006 1.81576,-7.13026 4.33601,-19.46424 5.5862,-27.40881 1.90506,-12.0559 2.28212,-18.352 2.28212,-37.88574 0,-19.30534 -0.38698,-25.88942 -2.20273,-37.3892 -1.21051,-7.67646 -3.72083,-20.01044 -5.58621,-27.40883 -1.85545,-7.40833 -5.01072,-17.94482 -7.015,-23.42659 -2.00427,-5.48177 -7.29282,-17.37878 -11.74788,-26.42567 -4.45507,-9.04691 -11.57922,-21.59935 -15.816,-27.90537 -4.23677,-6.306 -10.76558,-15.26354 -14.50626,-19.90119 -3.74068,-4.63763 -10.37863,-12.21479 -14.76424,-16.8425 -4.38562,-4.62771 -11.77765,-11.628879 -16.43117,-15.551517 -4.66342,-3.932571 -12.05548,-9.851287 -16.44108,-13.158219 -4.37569,-3.306936 -12.45237,-8.709253 -17.92943,-12.016186 -5.47706,-3.306933 -14.88331,-8.480844 -20.916,-11.499788 -6.02278,-3.009011 -16.56016,-7.587078 -23.40649,-10.159138 -6.8463,-2.572058 -18.50491,-6.196777 -25.89695,-8.043892 -7.39203,-1.847117 -16.13349,-3.8134 -19.41774,-4.379453 -3.29417,-0.566051 -8.89029,-1.519402 -12.45236,-2.105315 -3.56207,-0.595842 -15.88545,-1.241341 -27.39521,-1.439955 -11.49984,-0.198616 -22.71193,-0.188684 -24.90474,0.01985 z"
       style="stroke-width:0.992647;stroke:#000000;stroke-opacity:1"
       inkscape:label="vnitrni kruh" /><g
       inkscape:groupmode="layer"
       id="layer3"
       inkscape:label="Positions"
       style="display:none"><rect
         style="display:inline;fill:#ff2121;fill-opacity:0.107692;stroke:#000000;stroke-width:1.05245;stroke-opacity:1"
         id="rect1"
         width="300"
         height="300"
         x="135"
         y="80.172386" /><rect
         style="display:inline;fill:#de0000;fill-opacity:0.0923077;stroke:#000000;stroke-width:1.00157;stroke-opacity:1"
         id="rect2"
         width="300"
         height="83.006134"
         x="135"
         y="401.53375" /></g><text
       xml:space="preserve"
       style="font-size:109.103px;font-family:'Didact Gothic';-inkscape-font-specification:'Didact Gothic';text-align:start;letter-spacing:2.02104px;writing-mode:lr-tb;direction:ltr;text-anchor:start;display:none;fill:#de0000;fill-opacity:0.0923077;stroke:#000000;stroke-width:7.03727;stroke-dasharray:none;stroke-opacity:1"
       x="113.22261"
       y="437.29196"
       id="text2"
       inkscape:label="Text"><tspan
         sodipodi:role="line"
         id="tspan2"
         x="113.22261"
         y="437.29196"
         style="font-style:normal;font-variant:normal;font-weight:normal;font-stretch:normal;font-family:'New Rocker';-inkscape-font-specification:'New Rocker';letter-spacing:2.02104px;fill:#000000;fill-opacity:1;stroke:#000000;stroke-width:7.03727;stroke-dasharray:none;stroke-opacity:1">Vědma</tspan></text><path
       id="path5"
       style="display:none;stroke-width:8.05907"
       d="m 276.32799,515.95806 h 15.42748 v 4.53544 h -15.42748 z"
       inkscape:label="spojovnik pismen" /></g><g
     inkscape:groupmode="layer"
     id="layer2"
     inkscape:label="Content"
     style="display:inline"><g
       id="text3"
       inkscape:label="Text"
       style="opacity:1"><path
         id="path4"
         style="font-size:109.103px;font-family:'New Rocker';-inkscape-font-specification:'New Rocker';letter-spacing:2.02104px;baseline-shift:baseline;white-space:pre;display:inline;overflow:visible;vector-effect:none;enable-background:accumulate;stop-color:#000000;stop-opacity:1;fill:none;stroke:#000000;stroke-opacity:1"
         d="M 233.48047 347.77344 L 231.10938 349.65039 C 229.39121 351.01061 227.52295 352.44763 225.50781 353.95898 C 224.2609 354.88255 223.09483 355.72622 221.9082 356.58984 C 220.66702 355.72058 219.44313 354.86963 218.14062 353.93945 C 216.15257 352.44783 214.34606 351.03189 212.73047 349.69727 L 210.42383 347.79102 L 208.17383 349.76172 C 206.97882 350.80735 206.06837 351.63671 205.38281 352.32227 C 205.34981 352.35527 205.23368 352.45475 205.19531 352.49219 L 200.94141 352.49219 C 198.73727 352.49219 196.74731 352.64551 194.9375 352.99023 C 193.39611 353.28383 191.92354 353.61744 190.50586 353.98633 L 186.36133 354.85742 C 185.25943 355.0894 183.97284 355.21875 182.50391 355.21875 L 179.57617 355.21875 C 178.53476 355.15235 177.38364 355.0536 176.13477 354.92383 C 174.96166 354.72599 173.74831 354.46635 172.48828 354.13477 C 171.35903 353.8376 170.30611 353.42746 169.31055 352.90039 L 164.79102 358.03906 C 165.6076 359.1959 166.43273 360.46927 167.26562 361.85742 L 167.29883 361.91211 L 167.33398 361.96484 C 167.95826 362.92526 168.18359 363.72179 168.18359 364.62891 L 168.18359 365.61133 C 168.18359 365.60933 168.17958 365.71561 168.14258 365.90234 L 168.14062 365.91016 L 156.98828 422.95703 L 156.31641 423.66797 L 155.48438 422.79102 L 141.84766 365.77539 C 141.80866 365.58478 141.76706 365.4113 141.72656 365.23242 L 141.72656 364.62891 C 141.72656 363.54827 141.92349 362.52331 142.34766 361.46289 L 142.35742 361.43555 L 142.36719 361.4082 C 142.85316 360.13253 143.44509 359.01886 144.13672 358.03906 L 149.0625 351.06055 L 140.65039 352.54492 C 139.43327 352.75971 138.36518 352.93781 137.45312 353.07812 L 137.50195 353.07227 C 136.3362 353.19104 135.19041 353.49412 134.09375 353.94336 C 132.94369 354.37078 131.85248 354.97307 130.75 355.73633 L 130.69336 355.77344 L 130.64062 355.81445 C 130.31811 356.05635 129.9072 356.4893 129.56836 356.77539 C 128.43324 355.79783 127.13273 355.06214 125.62695 354.47656 C 123.95001 353.82442 122.01828 353.39864 119.75977 353.08398 C 117.36074 352.67468 114.53004 352.49219 111.15039 352.49219 L 111.15039 359.5293 C 111.14031 359.5293 111.13279 359.53052 111.12891 359.53125 L 111.12695 359.53125 L 111.12695 359.5332 L 111.12695 359.53516 L 111.12891 359.53711 C 111.17971 359.57212 111.79655 359.78123 112.82031 361 C 114.09229 362.51425 115.45872 364.68119 116.82422 367.48047 L 116.83984 367.51172 L 116.85547 367.54297 C 118.29346 370.35047 119.69145 373.66285 121.03125 377.4707 L 121.04102 377.49805 L 121.05078 377.52539 C 122.47994 381.38411 123.84034 385.42814 125.13086 389.6582 L 125.13477 389.66602 L 125.13867 389.67578 C 126.42603 393.82396 127.56994 397.96893 128.57031 402.11328 L 128.57617 402.14062 L 128.58398 402.16992 C 129.66462 406.34839 130.59817 410.26587 131.38672 413.92188 L 131.38867 413.92969 L 131.39062 413.93555 C 132.17937 417.52074 132.78521 420.65851 133.20703 423.33008 C 133.60497 425.85039 133.76004 427.58116 133.78125 428.56055 L 131.49805 430.84375 L 135.4668 433.13867 C 138.6019 434.95007 141.67416 437.00924 144.68555 439.32031 L 144.72266 439.34766 L 144.75781 439.37305 C 147.70437 441.516 150.72509 444.31927 153.78711 447.79883 L 156.51758 450.90234 L 159.14453 447.71094 C 161.07029 445.3725 163.53371 442.73402 166.51367 439.82422 C 169.3775 437.09927 172.54651 434.67684 176.04102 432.55273 L 177.73242 431.52539 L 177.73242 429.54492 C 177.73242 429.31605 177.65143 429.10616 177.62305 428.88086 L 177.62305 427.9082 C 177.62305 426.82077 177.68189 425.4113 177.80273 423.7168 L 197.83984 423.7168 L 197.83398 423.75586 L 197.82812 423.81055 C 197.62643 425.62592 197.32615 427.3189 196.93359 428.89258 C 196.55431 430.33897 196.12078 431.35939 195.82031 431.84766 L 192.51953 437.21094 L 198.81641 437.21094 C 199.79984 437.21094 201.25974 437.35908 203.08594 437.69727 L 203.0957 437.69922 L 203.10742 437.70117 C 204.99129 438.03757 206.92302 438.51072 208.90234 439.125 L 208.96875 439.14648 L 209.03906 439.16406 C 211.06124 439.70331 213.00812 440.37653 214.88672 441.18164 C 216.7328 441.97282 218.20854 442.80179 219.3125 443.61523 L 221.36914 445.13086 L 223.44531 443.64648 C 224.16036 443.13574 225.30062 442.5091 226.7793 441.86133 C 228.42416 441.2469 230.13685 440.66042 231.92773 440.10938 L 231.98633 440.0918 L 232.04297 440.07227 C 233.78181 439.47036 235.51023 439.00465 237.23047 438.67383 L 237.29492 438.66211 L 237.35742 438.64844 C 239.14903 438.235 240.6599 437.97032 241.84375 437.8457 L 246.33984 437.37305 L 244.77734 433.12891 C 244.35336 431.9781 244.06282 430.8506 243.88086 429.73242 C 243.75981 428.4751 243.68555 426.66176 243.68555 424.30859 L 243.68555 423.7168 L 250.13281 423.7168 C 250.13142 423.74359 250.13032 423.77009 250.12891 423.79688 C 249.99799 426.21116 249.56894 428.85058 248.82031 431.70898 L 247.94141 435.06836 L 251.28906 435.99219 C 253.06232 436.48137 254.83193 437.25203 256.61719 438.33594 C 258.35478 439.39091 259.98894 440.73541 261.53125 442.40625 L 262.93164 443.92188 L 264.9375 443.44141 C 266.84194 442.98434 268.8072 442.41312 270.83203 441.74023 C 272.87926 441.13223 274.8599 440.4494 276.76953 439.68555 L 276.80273 439.67383 L 276.83398 439.66016 C 278.80506 438.82623 280.67343 437.94968 282.4375 437.0293 C 283.02855 436.72092 283.48942 436.39933 284.04297 436.08789 C 284.51569 436.85562 284.84145 437.64878 285.39844 438.40234 C 286.84374 440.35775 288.51909 442.00686 290.42188 443.27539 L 293.73828 445.48633 L 295.52148 441.91992 C 295.81803 441.32684 296.36592 440.45352 297.1543 439.40234 C 297.92157 438.37932 298.79104 437.37888 299.77148 436.39844 C 300.77958 435.39034 301.77653 434.4944 302.75586 433.71094 L 302.76562 433.70312 L 302.77539 433.69531 C 303.72069 432.92726 304.50517 432.49606 305.01367 432.31445 L 307.34961 431.48047 L 307.34961 425.20117 L 304.86523 424.4375 C 304.37307 424.28606 304.09665 424.11159 303.83984 423.94336 C 303.82352 423.91698 303.77866 423.84359 303.71094 423.7168 L 312.36914 423.7168 L 312.36914 428.67188 C 312.36914 430.37336 312.08386 431.47096 311.86914 431.90039 L 311.84766 431.94141 L 311.82812 431.98633 C 311.66625 432.3332 311.58967 432.41802 311.57227 432.42773 L 311.57031 432.42773 L 311.56836 432.42773 L 311.56836 432.42578 L 311.56836 432.42383 L 311.57031 432.42383 L 311.57227 432.42188 C 311.57293 432.42107 311.57528 432.41689 311.57617 432.41602 C 311.57841 432.41422 311.58089 432.41181 311.58398 432.41016 L 309.42383 433.31055 L 309.42383 440.81055 L 336.53711 440.81055 L 336.53711 433.20703 L 334.31055 432.38086 C 334.27933 432.32037 334.21452 432.18271 334.10938 431.89844 C 333.8469 431.18877 333.58984 429.73124 333.58984 427.69141 L 333.58984 405.78125 L 340.08203 402.97461 L 340.08203 428.67188 C 340.08203 430.37336 339.79479 431.47096 339.58008 431.90039 L 339.56055 431.94141 L 339.53906 431.98633 C 339.38489 432.31669 339.30654 432.40945 339.28516 432.42578 L 339.2832 432.42773 L 339.28125 432.42773 L 339.28125 432.42578 L 339.28125 432.42383 L 339.2832 432.42383 L 339.28516 432.42188 C 339.28584 432.42107 339.28815 432.41689 339.28906 432.41602 C 339.29019 432.41512 339.29163 432.41299 339.29297 432.41211 L 337.13672 433.31055 L 337.13672 440.81055 L 363.59375 440.81055 L 363.59375 433.20703 L 361.36719 432.38086 C 361.33597 432.32037 361.27116 432.18272 361.16602 431.89844 C 360.90354 431.18877 360.64844 429.73124 360.64844 427.69141 L 360.64844 417.76172 L 360.64844 409.79883 C 360.64844 408.12647 360.6873 407.03808 360.7168 405.80859 L 367.35742 402.96094 L 367.35742 412.22852 L 367.35938 412.25977 C 367.43178 416.38511 367.4668 420.51138 367.4668 424.63672 C 367.4668 425.22356 367.402 426.50572 367.25977 428.2832 C 367.11653 430.07371 366.93698 432.05204 366.7207 434.21484 C 366.51087 436.24064 366.23052 438.26693 365.88086 440.29492 L 365.88086 440.30469 L 365.87891 440.31445 C 365.53191 442.39645 365.15387 444.08737 364.7793 445.33594 L 364.17578 447.34961 L 368.89062 452.06641 L 371.37695 449.40234 C 372.3078 448.405 373.3931 447.35196 374.63281 446.25 C 375.85599 445.16273 377.15286 444.10654 378.51953 443.08008 C 379.94995 442.05957 381.33653 441.14636 382.67773 440.33984 C 384.03657 439.56466 385.32891 438.96799 386.54883 438.54102 L 389.4375 437.5293 L 388.83789 434.5293 C 388.70006 433.84011 388.56075 433.11175 388.42188 432.34961 C 388.30768 431.66439 388.20465 430.68175 388.13672 429.45898 C 388.06662 428.19734 387.99537 426.55139 387.92383 424.55469 L 387.92383 423.7168 L 394.63281 423.7168 C 394.59697 425.09183 394.54532 426.46674 394.47656 427.8418 C 394.34415 430.41653 393.94206 432.43424 393.39844 433.84766 L 391.5918 438.54102 L 396.62109 438.62891 C 400.61287 438.69771 404.08072 439.14561 407.01367 439.92773 L 407.02148 439.92969 L 407.03125 439.93359 C 410.07477 440.72756 412.80393 441.86981 415.26172 443.35742 L 417.85352 444.92578 L 424.12891 437.37695 C 424.35919 437.71336 424.48188 438.06867 424.72852 438.40234 C 426.17382 440.35775 427.84917 442.00686 429.75195 443.27539 L 433.06836 445.48633 L 434.85156 441.91992 C 435.1481 441.32684 435.69405 440.45352 436.48242 439.40234 C 437.24969 438.37932 438.12112 437.37888 439.10156 436.39844 C 440.10966 435.39034 441.10465 434.4944 442.08398 433.71094 L 442.0957 433.70312 L 442.10547 433.69531 C 443.05077 432.92726 443.83524 432.49606 444.34375 432.31445 L 446.67773 431.48047 L 446.67773 425 L 443.95117 424.37109 C 443.42583 424.24987 443.12866 424.09967 442.89258 423.96289 L 442.89258 423.96094 C 442.89343 423.95197 442.77235 423.79896 442.60352 423.29102 C 442.33872 422.38458 442.06931 420.93808 441.86719 419.08008 C 441.73332 417.10801 441.66016 414.40833 441.66016 410.99805 C 441.66016 405.77794 441.81023 401.84472 442.07422 399.3125 C 442.38844 396.96067 443.01898 395.30425 443.75781 394.24219 L 447.60352 388.71289 L 440.86914 388.71289 C 437.57559 388.71289 434.96352 388.16209 432.93164 387.21289 C 430.85124 386.13324 428.71113 384.46612 426.55078 382.10938 L 424.63086 380.01367 L 422.17773 381.45117 C 420.52239 382.42154 417.84902 383.45034 414.26758 384.3457 C 410.85605 385.19859 406.61697 385.6582 401.5918 385.6582 L 400.4082 385.6582 C 399.88256 385.54796 399.47993 385.55078 399.08203 385.55078 L 394.64844 385.55078 L 395.65625 389.86719 C 396.20388 392.21413 396.8382 394.20942 397.64844 395.91992 L 397.67969 395.98828 L 397.71484 396.05273 C 398.58202 397.70038 399.59179 399.12826 400.84961 400.28125 L 400.91211 400.33789 L 400.97656 400.39062 C 402.18912 401.40109 403.58996 402.16688 405.09766 402.59766 L 405.23438 402.63672 L 405.375 402.66602 C 406.71669 402.93435 408.11317 403.06055 409.55664 403.06055 C 411.79099 403.06055 414.25272 402.62501 417.12891 401.84766 C 418.27539 401.5378 419.3273 401.05468 420.43945 400.68164 L 420.43945 404.14844 C 419.887 404.36312 419.51536 404.56955 418.81641 404.7832 C 417.34449 405.18244 415.68237 405.55824 413.82422 405.90234 C 411.97817 406.24421 410.01367 406.5177 407.93555 406.72656 C 405.92789 406.86349 403.95782 406.93359 402.02734 406.93359 C 400.27155 406.93359 398.68194 406.8318 397.26562 406.63867 L 391.21094 405.8125 L 393.53711 411.46484 C 393.91017 412.37085 394.21139 413.49809 394.39648 414.85547 L 394.39648 414.86719 L 394.39844 414.87891 C 394.58579 416.19036 394.68695 417.62433 394.69141 419.18164 L 387.92383 419.18164 L 387.92383 416.67188 C 387.92383 412.91219 387.95993 409.77531 388.03125 407.2793 C 388.10285 404.77429 388.17513 402.67725 388.24609 400.96484 C 388.38245 399.33937 388.51846 398.03182 388.64648 397.05664 C 388.84292 396.02195 389.0659 395.05842 389.31641 394.18164 L 390.13477 391.31836 L 387.44531 390.03711 C 385.99406 389.34604 384.73875 388.69812 383.67188 388.09961 C 382.59195 387.4235 381.54329 386.74801 380.53125 386.07422 C 379.62294 385.42416 378.70579 384.70302 377.78125 383.91211 C 376.78718 382.98871 375.69349 381.96635 374.48828 380.83203 L 371.85156 378.35156 L 369.44727 381.05664 C 367.19228 383.5935 365.02545 385.79253 362.95898 387.65234 C 362.10276 388.42294 361.01151 389.2083 360.06641 389.98438 C 358.66134 389.31277 357.42605 388.67905 356.38672 388.0957 C 355.30948 387.42118 354.26553 386.74643 353.25586 386.07422 C 352.34755 385.42416 351.4304 384.70302 350.50586 383.91211 C 349.51178 382.98871 348.4181 381.96635 347.21289 380.83203 L 344.54492 378.32227 L 342.14453 381.08789 C 339.83292 383.74975 337.57755 386.03542 335.39258 387.94727 C 334.86522 388.4065 334.15325 388.89759 333.58984 389.36328 L 333.58984 386.67578 L 329.7832 380.33203 L 327.25391 380.96289 C 324.9847 381.53019 322.37537 382.13756 319.44531 382.78125 C 316.52319 383.35101 313.82187 383.81339 311.35352 384.16602 L 308.33398 384.59766 L 308.33398 391.16211 L 312.36914 392.9082 L 312.36914 419.18164 L 302.74805 419.18164 C 302.71138 418.77153 302.67823 418.33631 302.65039 417.87695 C 302.51219 415.59666 302.43945 412.4102 302.43945 408.37891 L 302.43945 368.33984 C 302.43945 364.73202 302.68607 361.59797 303.14648 358.95117 C 303.64526 356.48727 304.4627 354.74906 305.44336 353.57227 L 301.22656 348.14258 C 298.30772 349.5325 295.59863 350.59041 293.11719 351.32812 L 293.10547 351.33203 L 293.0918 351.33594 C 290.76067 352.04823 288.6011 352.38281 286.5918 352.38281 C 284.93202 352.38281 283.61567 352.16246 282.62695 351.81641 L 274.1543 348.85156 L 278.35547 356.7832 C 278.9478 357.90204 279.42946 358.96686 279.80664 359.97266 C 280.16689 360.93334 280.43592 361.92201 280.61719 362.94922 L 280.63477 363.04688 L 280.6582 363.14453 C 280.89366 364.14521 281.04974 365.28011 281.11328 366.55078 C 281.18238 367.93246 281.21875 369.51368 281.21875 371.28516 L 281.21875 382.9375 C 280.59495 382.81272 279.88079 382.75982 279.29297 382.60742 C 277.52466 382.14897 275.56794 381.47771 273.44141 380.58594 L 271.66016 379.83984 L 270.07227 380.94336 C 266.86769 383.17263 263.6447 385.07646 260.40234 386.66406 C 257.31458 388.13945 254.31548 389.12065 251.39062 389.64062 L 247.13281 390.39844 L 248.74023 394.41211 C 248.9035 394.82028 249.12203 395.57398 249.3125 396.58984 L 249.31641 396.61133 L 249.32031 396.63281 C 249.49428 397.50266 249.66981 398.85119 249.80859 400.58594 L 249.81445 400.66406 L 249.82422 400.74219 C 250.02228 402.32669 250.16385 404.37548 250.23438 406.84375 L 250.23438 406.8457 C 250.30568 409.27007 250.3418 412.22259 250.3418 415.68945 C 250.3418 416.85325 250.32903 418.01771 250.30273 419.18164 L 243.81445 419.18164 L 244.20508 414.49414 L 247.38867 414.23438 L 245.75195 409.87109 C 245.38888 408.90289 245.02658 407.66498 244.68945 406.18164 C 244.35336 404.70279 244.08173 403.14408 243.87695 401.50586 C 243.66471 399.80796 243.48715 398.11135 243.3457 396.41406 C 243.20718 394.67882 243.13867 393.09975 243.13867 391.6875 C 243.13867 389.85396 243.24667 388.3833 243.41797 387.35547 L 244.07812 383.39648 L 240.06641 383.25977 C 235.85262 383.11693 231.60275 382.86816 227.31445 382.51172 L 227.3125 382.51172 L 227.31055 382.50977 L 227.30859 382.50977 L 227.30664 382.50977 C 223.02186 382.08108 219.44482 381.58456 216.61914 381.0332 L 214.78125 380.67383 L 213.45703 381.99805 C 211.06531 384.38976 208.67674 386.33413 206.30469 387.84961 L 206.28516 387.86133 L 206.26758 387.87305 C 204.11805 389.28559 201.74518 390.23395 199.04492 390.73633 L 195.17773 391.45703 L 196.32227 395.2207 C 196.75697 396.64902 197.25328 398.87354 197.74805 401.77148 L 197.75586 401.82031 L 197.76562 401.86914 C 198.28006 404.44127 198.57031 407.91618 198.57031 412.19922 C 198.57031 413.84713 198.50221 415.69542 198.36133 417.73828 L 198.35742 417.79883 L 198.35547 417.85938 C 198.34021 418.30203 198.32046 418.74299 198.29492 419.18164 L 178.32617 419.18164 C 178.57587 417.62945 178.89055 416.04438 179.27344 414.42773 C 179.88605 411.84117 180.6689 409.36893 181.61328 407.00195 C 182.55525 404.81628 183.65092 403.20972 184.82617 402.08789 L 186.39844 400.58594 L 185.75977 398.50781 C 185.19467 396.67123 184.85263 395.34472 184.76758 394.87695 C 184.66575 394.3169 184.60547 393.65183 184.60547 392.88672 C 184.60547 388.97657 184.98484 385.51316 185.70508 382.49219 C 186.52542 379.28694 187.53568 376.51066 188.70703 374.16797 L 188.71484 374.15039 L 188.72461 374.13281 C 189.93443 371.64594 191.2525 369.55197 192.65234 367.83398 C 194.16456 365.97807 195.57807 364.46958 196.85938 363.31641 L 196.89453 363.28516 L 196.92969 363.25195 C 198.26819 361.98038 199.42563 361.06724 200.29883 360.52148 C 201.4103 359.82682 202.18824 359.35511 202.61523 359.10938 L 202.98633 359.48047 C 205.49653 361.99066 208.12026 364.72254 210.85742 367.67578 L 210.88672 367.70898 L 210.91797 367.74023 C 213.69299 370.58642 216.4377 373.61575 219.15039 376.82812 L 221.69531 379.83984 L 224.39844 376.9707 C 229.18883 371.88999 232.85017 367.97647 235.41211 365.19531 L 235.44727 365.1582 C 238.0411 362.42018 239.85984 360.4928 240.88672 359.39258 L 243.47656 356.61719 L 240.51172 354.24414 C 239.48025 353.41897 238.71934 352.74864 238.29297 352.32227 C 237.65924 351.68853 236.80264 350.87139 235.69531 349.83789 L 233.48047 347.77344 z M 276.36914 398.50977 C 277.39433 398.83496 278.36889 399.17718 279.51953 399.46484 C 280.15853 399.62459 280.63355 399.63896 281.21875 399.75781 L 281.21875 420.32227 C 280.8592 420.50222 280.6577 420.64042 280.2168 420.83789 C 279.04176 421.29191 277.75697 421.72345 276.35156 422.125 C 274.92438 422.53277 273.41752 422.90942 271.83984 423.25391 C 271.77614 423.26541 271.72354 423.26429 271.66016 423.27539 C 271.69566 422.48371 271.75116 421.78828 271.77734 420.95312 C 271.77787 420.94513 271.7783 420.93623 271.7793 420.92773 C 271.9248 418.56377 272 416.19835 272 413.83398 C 272 411.35648 271.96241 408.77315 271.89062 406.08789 C 271.89035 406.07709 271.88867 406.06744 271.88867 406.05664 C 271.88825 404.20978 271.80517 402.94839 271.73828 401.5625 C 272.48884 401.14706 273.19829 400.83166 274 400.31055 L 274.01562 400.29883 L 274.0332 400.28711 C 274.97585 399.65868 275.61803 399.09369 276.36914 398.50977 z M 218.37109 398.75586 C 219.07055 398.88934 219.69948 399.08634 220.42188 399.19922 L 220.48047 399.20898 L 220.54102 399.2168 C 221.77654 399.36656 222.69668 399.36768 223.77344 399.44531 C 223.83044 400.14263 223.82034 400.85755 223.91406 401.54492 L 223.92578 401.62305 L 223.93945 401.69922 C 224.02515 402.17069 224.13843 402.59593 224.23047 403.05664 L 218.84375 404.39062 C 218.78605 403.63036 218.76765 402.95931 218.69336 402.16016 L 218.69141 402.14453 C 218.62941 401.155 218.46995 399.85976 218.37109 398.75586 z M 243.99414 414.51172 L 239.27148 415.91797 C 235.50051 417.04124 232.48897 418.51115 230.36133 420.85156 L 230.33203 420.88477 L 230.30273 420.91797 C 229.20601 422.18786 228.43298 423.67522 227.82617 425.24609 C 227.54111 425.21899 227.35666 425.20823 227.05078 425.17773 C 225.65009 424.96789 224.21648 424.75852 222.75 424.54883 C 221.28416 424.26917 219.88827 423.98937 218.56445 423.71094 C 218.45822 423.68734 218.42227 423.66267 218.32031 423.63867 C 218.40491 422.81353 218.47015 422.12623 218.57031 421.19141 C 218.69419 420.03519 218.7396 418.84445 218.81836 417.66797 C 222.28434 417.11969 225.76513 416.5829 229.37109 416.125 L 229.39844 416.12109 L 229.42578 416.11719 C 233.94102 415.47216 238.38031 414.97098 242.74414 414.61328 L 243.99414 414.51172 z M 420.54883 417.86914 L 420.54883 424.26562 C 419.65366 424.14754 418.58453 423.88137 417.77539 423.84766 C 417.27328 423.82576 416.79939 423.7786 416.30469 423.75 L 416.40039 418.91406 C 417.22251 418.74589 417.92327 418.67904 418.83984 418.44141 L 418.89844 418.42578 L 418.95703 418.4082 C 419.47175 418.2557 420.02623 418.03543 420.54883 417.86914 z " /></g><g
       id="path1-3"
       style="opacity:1"><path
         id="path8"
         style="baseline-shift:baseline;display:inline;overflow:visible;enable-background:accumulate;stop-color:#000000;stop-opacity:1;stroke-width:1.0015748;stroke-dasharray:none;fill:none;stroke:#000000;stroke-opacity:1"
         d="M 281.76758 54.546875 C 277.29115 54.425191 272.79046 54.532895 268.30469 55.128906 C 258.51162 56.430091 247.24297 59.582873 239.8125 63.105469 C 227.01896 69.17057 206.74372 86.631541 197.26367 99.626953 C 193.65622 104.57211 189.84411 111.48147 186.75781 118.22266 C 183.67152 124.96384 181.31525 131.43949 180.7207 135.85156 C 180.50309 137.46637 179.85902 140.91556 179.31836 143.32812 C 177.19209 152.81593 176.91496 171.00825 178.78516 180.10938 C 179.6907 184.51609 180.65132 189.33348 180.90039 190.70703 C 181.88371 196.1297 185.75973 204.36795 190.72852 212.93359 C 195.69731 221.49924 201.75043 230.2468 207.20117 236.16016 C 210.54648 239.78939 215.35658 243.37694 221.08789 246.74609 L 221.08789 249.29492 C 218.45658 247.79498 216.14158 246.40623 214.47461 245.30273 C 209.15064 241.77841 205.64938 239.59802 203.04492 238.33984 C 200.44046 237.08167 198.49991 236.69199 196.79102 237.23438 C 194.57034 237.9392 193.28422 239.98372 192.40039 242.11523 C 191.51656 244.24675 190.97028 246.59717 192.07227 248.65625 C 193.34108 251.02706 196.2278 253.63352 199.79297 256.38477 C 203.35813 259.13601 207.551 261.84073 211.28125 263.61328 C 213.27667 264.56148 215.12535 265.45674 216.48828 266.13086 C 216.96332 266.36582 217.28627 266.53002 217.62695 266.70312 C 217.3455 267.35649 216.93435 268.21636 216.43164 269.1543 C 212.99444 275.56738 213.43548 284.1115 217.37891 291.00391 C 218.23176 292.49454 219.26962 294.00474 220.29102 295.28516 C 221.31241 296.56557 222.22837 297.58888 223.23438 298.24805 C 224.18917 298.87364 224.96307 300.52977 225.02539 302.58594 C 225.08769 304.64211 224.44778 306.94073 223.23047 308.48828 C 222.00502 310.04619 219.9193 311.59889 217.81641 312.60352 C 215.71351 313.60814 213.55595 313.99143 212.56641 313.77539 C 211.19631 313.47626 209.21881 312.87252 207.64648 312.30859 C 207.30297 312.18539 207.10001 312.09205 206.80469 311.97656 C 207.36299 311.38422 207.99104 310.72381 208.75391 309.96094 C 210.90998 307.80486 212.26621 305.53509 212.55273 303.11328 C 212.83926 300.69147 211.98017 298.28073 210.26758 296.10352 C 209.02281 294.52105 207.72734 293.3333 205.98633 293.08594 C 204.24532 292.83857 202.61214 293.50226 200.54297 294.57227 C 198.14896 295.81026 196.64581 297.9765 195.80273 301.10742 C 194.58619 305.62534 195.00986 309.98201 197.03906 313.74805 C 199.06827 317.51408 202.62651 320.6516 207.4707 323.07227 C 209.1832 323.92801 210.96144 324.69998 212.48633 325.26953 C 214.01122 325.83908 215.04312 326.25609 216.25977 326.25391 C 218.0881 326.25091 219.94742 325.37285 222.11328 324.17383 C 224.27915 322.9748 226.57637 321.3847 228.47656 319.67383 C 230.34667 317.99002 232.04671 315.15672 233.44727 312.14844 C 234.84782 309.14016 235.90448 306.10598 235.91211 303.65625 C 235.91411 302.99511 235.94563 302.53252 235.99023 302.31055 C 236.0051 302.23656 236.01415 302.19397 236.01953 302.17188 C 236.08483 302.15496 236.77454 301.86546 238.35156 301.61328 C 241.26577 301.14727 243.72334 299.74415 245.64453 297.46094 C 246.96598 295.89049 247.86616 294.71675 248.33789 293.07617 C 248.80962 291.43559 248.85957 289.58944 248.93555 286.33398 C 248.95785 285.37656 248.9828 284.67691 249.0332 284.28125 C 249.03489 284.26873 249.03545 284.25989 249.03516 284.25586 L 249.03516 284.25391 L 249.0332 284.25391 L 249.03125 284.25391 L 249.03125 284.25586 L 249.0293 284.25781 C 249.02825 284.25932 249.02631 284.26233 249.02539 284.26367 L 249.02344 284.26367 L 249.02344 284.26172 C 249.02358 284.25957 249.02432 284.25546 249.02539 284.25 C 249.33629 284.247 249.86345 284.2859 250.64453 284.36328 C 252.26246 284.52355 255.20982 285.26216 256.66406 285.86719 C 258.7344 286.72853 262.57803 287.55844 265.82422 287.95703 C 268.5038 288.28606 269.93286 288.66857 271.35352 289.04688 C 271.26722 289.10688 271.10906 289.08637 271.03906 289.15039 C 270.18442 289.93155 269.822 290.84794 269.23047 292.26367 C 268.23158 294.65435 267.59222 296.29734 267.8418 298.17969 C 268.09137 300.06203 269.09265 301.65694 270.75195 304.29883 C 272.48941 307.06514 274.44565 309.01881 276.78125 309.94336 C 279.11685 310.86791 281.71486 310.61726 284.22852 309.41406 C 286.3056 308.41984 287.81987 306.50202 288.77344 304.0293 C 289.727 301.55657 290.18508 298.48369 290.22461 294.80859 L 290.26172 291.31445 L 293.35742 291.31445 C 296.30638 291.31445 301.74492 290.42253 306.04688 289.32227 C 308.11948 288.79218 310.12916 288.30997 311.68164 287.96289 C 312.41777 287.79832 313.03088 287.67126 313.51172 287.57812 C 313.58082 288.00941 313.65006 288.5568 313.60547 289.36328 C 313.39693 293.13923 313.80536 296.07024 315.67383 298.30078 C 317.5423 300.53132 320.48239 301.7688 324.82227 302.99805 C 326.67492 303.5228 327.39349 303.87186 327.62305 304.12305 C 327.8526 304.37423 328.08536 305.02681 328.36133 306.82617 C 329.91935 316.98493 338.29256 323.16175 346.53906 325.39844 C 350.91256 326.58466 355.58818 324.74115 358.86719 322.17383 C 363.44362 318.59069 368.47254 312.94827 367.53516 306.10938 C 366.93733 301.74775 364.6609 298.27943 361.66797 296.48242 C 358.67504 294.68542 354.75915 294.75201 351.92969 297.41016 C 349.94318 299.27638 348.96502 301.78275 349.11914 304.30469 C 349.27326 306.82662 350.50142 309.32564 352.60938 311.43359 C 353.42982 312.25403 353.94262 312.90331 354.14844 313.26562 C 354.10224 313.28312 354.11674 313.31032 353.61328 313.45898 C 352.90753 313.66743 351.77741 313.86523 350.28711 314.0332 C 348.30984 314.25607 347.48383 314.26206 346.73828 313.96875 C 345.99274 313.67549 344.98862 312.88016 343.11328 311.13086 C 339.64421 307.89495 339.44896 307.54827 339.05078 303.4043 C 338.83965 301.20706 338.86209 300.03615 338.96484 299.69141 C 339.01624 299.51904 339.01934 299.51964 339.13672 299.41211 C 339.25411 299.30458 339.53252 299.11991 340.00391 298.87695 C 345.14732 296.22591 348.42295 291.93996 350.42773 285.44922 C 351.2984 282.63035 351.78719 281.00421 351.87109 279.57031 C 351.95499 278.13641 351.30989 276.8533 350.54297 276.00586 C 350.27383 275.70846 349.96958 275.2425 349.76758 274.81445 C 349.56557 274.3864 349.49023 273.95109 349.49023 273.97656 C 349.49023 272.99488 349.16132 272.31502 348.75781 271.49023 C 348.35431 270.66544 347.82427 269.80654 347.21289 269.0293 L 346.375 267.96484 L 347.16406 267.44727 C 348.2645 266.72623 350.79609 265.35104 352.52539 264.55273 C 357.51922 262.24742 362.66709 258.92753 366.64062 255.70508 C 368.62741 254.09385 370.31721 252.51402 371.5625 251.04492 C 372.80779 249.57583 373.75586 248.31944 373.75586 246.62695 C 373.75586 245.44517 373.29341 244.4895 372.69336 243.45703 C 372.09331 242.42456 371.30177 241.39222 370.38477 240.51367 L 366.49219 236.78516 L 361.82422 240.47461 C 356.06433 245.02516 351.19882 248.51008 346.53516 251.3457 L 346.53516 248.10547 C 348.2089 247.10189 349.78645 246.11389 351.19336 245.17969 C 368.81585 233.47809 381.21887 214.79335 388.22852 189.66602 C 392.82957 173.17271 393.55012 159.28973 390.83398 139.98633 C 388.51264 123.48875 374.5493 98.657548 358.85156 82.517578 C 350.2501 73.673804 335.8162 65.367173 321.6543 61 C 318.45618 60.013778 313.4322 58.446176 310.50195 57.521484 C 307.11247 56.451865 300.19844 55.723569 295.08789 55.345703 C 290.69598 55.020964 286.244 54.668559 281.76758 54.546875 z M 283.48438 64.53125 C 287.24021 64.343458 300.74972 64.820144 306.83594 66.484375 C 327.94557 72.256666 339.11449 78.512244 352.69336 92.136719 C 371.87381 111.38157 381.02152 129.39185 383.41992 152.45312 C 385.33398 170.85739 376.58604 191.21667 367.94336 209.21875 C 376.4555 186.16848 384.02119 163.75575 379.9043 146.69141 C 378.39704 140.44388 376.97749 135.93117 375.45117 132.86328 C 374.688 131.32934 373.90473 130.14082 372.94727 129.27539 C 371.9898 128.40996 370.73093 127.88575 369.47852 128.02344 C 367.38245 128.25388 362.83007 125.27101 356.38281 123.50391 C 349.93554 121.73681 342.99952 119.29314 338.58984 117.05859 C 330.14044 112.77695 317.62605 101.85142 309.75977 91.734375 C 307.45003 88.763752 305.28134 84.211304 303.10547 80.203125 C 301.0326 76.384694 299.16092 72.997417 297.88086 68.695312 C 297.45404 67.617627 296.54097 66.688624 295.4082 66.183594 C 293.14265 65.173535 290.08214 65.157668 284.6582 65.164062 C 277.44448 65.172562 271.97966 65.854449 264.81055 67.638672 C 262.1606 68.298176 259.54458 68.89764 257.48242 69.330078 C 256.45133 69.546296 255.55677 69.720376 254.87695 69.837891 C 254.19713 69.955407 253.63864 70.005859 253.68359 70.005859 C 253.02046 70.005859 252.59094 70.150628 251.94922 70.339844 C 251.30751 70.529061 250.55201 70.788147 249.70508 71.105469 C 248.01122 71.740113 245.96308 72.602442 243.92969 73.554688 C 241.94596 74.483678 240.20769 75.514529 238.85742 76.210938 C 238.10303 76.600015 240.36935 75.522231 234.20508 78.671875 C 233.51759 79.02315 231.82468 80.13798 230.93359 80.720703 C 229.15139 81.886148 226.19003 83.705112 225.2793 84.347656 C 220.39286 87.795138 215.4782 93.296725 211.61719 97.189453 C 204.43732 104.42832 202.16952 111.17152 197.20508 120.73047 C 202.05604 110.44921 208.99723 96.470119 212.70117 93.146484 C 215.67562 90.477434 235.92207 75.367089 252.65234 69.228516 C 265.08579 64.666506 272.89581 64.758202 283.48438 64.53125 z M 277.34375 104.07617 C 279.44843 104.08517 281.71547 104.51395 286.23633 105.37109 C 296.31625 107.28223 308.52566 111.96378 317.57227 117.39258 C 321.69246 119.86506 324.40631 121.61241 326.00586 122.83984 C 326.58213 123.28206 326.84829 123.565 327.13867 123.85742 C 326.85279 123.88812 326.72734 123.94629 326.32422 123.93359 C 321.54695 123.78313 318.3738 122.7946 312.68555 119.625 C 309.59286 117.90171 304.59018 115.62536 301.2832 114.43555 C 284.63887 108.44709 282.62616 108.02306 272.15625 108.03711 C 263.5619 108.04861 258.01059 109.07179 252.94141 111.69531 C 257.49204 109.01414 263.20819 106.6479 269.43164 105.31055 C 273.29781 104.47975 275.23907 104.06748 277.34375 104.07617 z M 282.8418 124.89844 C 292.35607 124.86374 292.80691 124.92894 299.06836 127.88672 C 305.4854 130.91798 310.34336 134.22124 314.82812 138.64062 C 304.08578 130.89837 291.36473 126.46385 280.29688 127.16602 C 272.10134 127.68595 262.1861 131.82039 255.9082 137.31055 C 256.61737 136.48975 257.39508 135.49686 258.02734 134.84375 C 259.97068 132.83648 264.43027 129.54489 267.48633 127.91016 C 270.25917 126.42692 271.68055 125.73988 273.58398 125.36133 C 275.48742 124.98277 278.04405 124.9159 282.8418 124.89844 z M 288.56641 144.75586 C 302.63884 144.77296 314.51026 148.76472 324.2832 156.69531 C 326.1838 158.23762 327.55034 159.50224 328.33594 160.50391 C 329.12154 161.50557 329.29493 162.10866 329.24023 162.66406 C 329.18553 163.21947 328.8144 164.00557 327.77148 165.11133 C 326.72857 166.21708 325.0792 167.57374 322.85156 169.23047 C 321.31461 170.37353 319.86312 171.4796 318.75391 172.34961 C 318.1993 172.78461 317.73216 173.16094 317.37305 173.45898 C 317.01394 173.75703 316.89405 173.78123 316.51562 174.25391 C 316.53056 174.23525 316.5401 174.22038 316.54297 174.21289 L 316.54297 174.21094 L 316.54297 174.20898 L 316.54297 174.20703 L 316.54102 174.20703 L 316.53906 174.20703 L 316.53711 174.20703 L 316.53516 174.20703 L 316.5332 174.20703 C 316.44171 174.23565 315.71014 174.82614 314.79297 175.32422 C 313.70594 175.91454 312.24787 176.6217 310.62695 177.34766 C 307.38513 178.79958 303.4758 180.33282 300.45703 181.26367 C 290.78069 184.24743 276.31726 183.92429 266.38086 180.47656 C 261.40632 178.75051 257.69054 177.34002 255.05078 176.16992 C 252.41102 174.99982 250.84037 174.0103 250.2832 173.45312 C 249.49606 172.78233 248.85496 172.36249 248.79492 172.28711 C 248.79429 172.28615 248.79335 172.28401 248.79297 172.2832 L 248.79297 172.28125 L 248.79297 172.2793 L 248.79492 172.27734 L 248.79688 172.27734 C 248.84647 172.27417 249.27523 172.48425 250.28516 172.94922 C 262.01124 178.72724 267.84772 180.68355 276.34375 181.65234 C 280.25284 182.09809 286.94729 182.25333 291.54688 182.01562 C 298.55953 181.65322 301.43237 180.90827 308.38867 177.64844 C 312.1198 175.89997 316.85042 173.07237 320.71484 170.45898 C 322.64706 169.15229 324.35298 167.90584 325.62305 166.84961 C 326.25808 166.32149 326.7813 165.84573 327.19922 165.38672 C 327.40818 165.15721 327.59373 164.93565 327.76172 164.66406 C 327.92971 164.39247 328.13477 164.07729 328.13477 163.45898 C 328.13477 162.61991 327.84602 162.35554 327.62305 162.02734 C 327.40008 161.69915 327.14208 161.39299 326.83789 161.06445 C 326.22952 160.40738 325.44325 159.67893 324.56445 158.93164 C 322.80685 157.43707 320.72981 155.90168 319.01172 155.00781 C 317.08887 154.00742 314.35702 152.85597 311.87305 151.92773 C 310.63106 151.46362 309.45722 151.05702 308.47461 150.75977 C 307.492 150.46251 306.86555 150.24023 305.99805 150.24023 C 305.45301 150.24023 304.84135 150.49729 304.46484 150.87695 C 304.08834 151.25661 303.91317 151.68564 303.81836 152.07617 C 303.62875 152.85724 303.71338 153.59107 303.91992 154.38086 C 303.92792 154.41006 303.95452 155.52785 303.71094 156.82617 C 303.46734 158.12449 303.04798 159.7201 302.53906 161.31641 C 301.54676 164.42891 292.01172 166.34766 292.01172 166.34766 C 289.83877 165.70675 288.41947 165.11801 287.4668 164.48438 C 286.51412 163.85075 285.96247 163.19663 285.38281 162.0918 C 284.12063 159.68604 284.19445 156.54328 285.80859 153.42188 L 288.73633 147.75977 L 279.57812 148.79492 C 275.72339 149.23012 273.07493 149.80231 271.16992 151.29492 C 269.26492 152.78754 268.59766 155.14315 268.59766 157.88086 C 268.59766 159.60939 268.82639 161.13194 269.65039 162.61523 C 270.47439 164.09852 271.75281 165.48523 273.79492 167.52734 C 275.15567 168.88808 276.64564 170.15872 277.99805 171.15039 C 279.35045 172.14207 280.34605 172.88133 281.67578 173.13281 C 286.22691 173.99355 288.47751 173.75293 292.10156 172.0332 C 292.10156 172.0332 293.94159 171.56058 294.11523 171.69727 L 294.11719 171.69922 C 294.11795 171.70006 294.12044 171.70419 294.12109 171.70508 C 294.12164 171.706 294.12457 171.70997 294.125 171.71094 C 294.12532 171.71194 294.12479 171.71575 294.125 171.7168 C 294.1317 171.79302 293.85735 171.97194 293.08789 172.31836 C 290.27387 173.58525 287.08676 174.50781 286.22461 174.50781 C 284.74182 174.50781 282.24814 173.84946 279.82227 172.76562 C 277.39639 171.6818 274.98664 170.18366 273.42969 168.73242 C 269.91903 165.46011 267.95313 161.15663 267.95312 157.01367 C 267.95313 156.24063 267.94511 155.62223 267.87891 155.05273 C 267.81291 154.48324 267.72841 153.90022 267.23828 153.29688 C 266.74815 152.69355 265.84839 152.43288 265.26172 152.45508 C 264.67505 152.47728 264.21745 152.61568 263.68555 152.77539 C 261.57067 153.4104 257.65067 155.40116 253.54883 157.62305 C 249.44699 159.84493 245.49462 162.1419 243.67773 163.60352 L 240.29492 166.32617 C 240.28692 166.31437 240.25339 166.28494 240.24609 166.27344 C 240.10141 166.04702 240.03222 165.91131 240 165.83008 C 240.09902 165.70246 240.28173 165.45641 240.52148 165.23828 C 241.00043 164.80249 241.70742 164.22336 242.56641 163.56445 C 244.28439 162.24664 246.61603 160.59985 249.13281 158.91406 C 254.16638 155.54249 260.01466 151.98705 263.13281 150.54102 C 273.29285 145.82933 278.07046 144.74311 288.56641 144.75586 z M 356.53516 160.87695 C 357.93258 160.87095 358.87096 161.11637 358.91992 161.14258 C 359.28855 161.33986 359.21713 161.33226 359.34766 161.47461 C 356.8066 162.16747 353.01646 162.18498 349.00977 161.6582 C 349.71599 161.55379 350.09197 161.47447 350.92773 161.35938 C 353.24074 161.04092 355.13774 160.88346 356.53516 160.87695 z M 239.98047 165.71289 L 239.98242 165.71289 L 239.98242 165.71484 C 239.9795 165.72246 239.97733 165.72918 239.97461 165.73633 C 239.97441 165.73156 239.97414 165.72578 239.97461 165.72266 L 239.97656 165.7207 L 239.97656 165.71875 L 239.97656 165.7168 L 239.97852 165.71484 L 239.98047 165.71484 L 239.98047 165.71289 z M 219.38086 166.0293 C 216.73897 166.66008 213.92528 167.36414 212.73242 167.46289 C 211.02299 167.6044 210.28679 167.36779 208.4082 166.68164 C 208.28097 166.63514 208.25261 166.60094 208.13867 166.55469 C 208.29553 166.53489 208.26328 166.53418 208.44922 166.51758 C 209.12167 166.45738 210.01618 166.39548 211.05273 166.33789 C 213.12584 166.22271 215.76867 166.11974 218.43164 166.04492 C 218.7681 166.03592 219.04477 166.03789 219.38086 166.0293 z M 339.28906 181.2168 C 339.88029 181.36935 340.5736 181.37936 341.0332 181.58398 C 341.34667 181.72355 341.45618 181.83296 341.66016 181.96484 L 341.66016 181.9668 L 341.6582 181.9668 L 341.6582 181.96875 L 341.65625 181.96875 L 341.6543 181.96875 C 341.24643 181.97575 340.20983 181.55944 339.28906 181.2168 z M 228.83008 185.25977 C 228.27237 185.88789 227.82578 186.53287 227.32617 186.88281 C 226.19259 187.6768 225.59237 187.90763 225.54688 187.94922 L 225.54688 187.95117 L 225.54492 187.95117 L 225.54492 187.95312 C 225.44929 187.87354 225.27318 187.70926 224.99414 187.37305 C 224.98876 187.36657 224.98291 187.36029 224.97852 187.35547 C 225.01411 187.27678 225.13139 187.07092 225.41211 186.81836 C 225.99187 186.29674 227.2675 185.70029 228.83008 185.25977 z M 269.24805 197.48633 C 269.68487 197.55963 269.97665 197.59172 270.43164 197.67188 C 275.23925 198.51893 281.3518 198.97113 286.85742 199.0332 C 291.22913 199.0825 294.78344 198.83958 297.54688 198.31055 C 296.44232 198.8031 295.75241 199.25289 294.24414 199.75586 C 286.93622 202.19286 281.33654 202.181 274.17578 199.71875 C 272.5192 199.14912 270.89082 198.28761 269.24805 197.48633 z M 243.20117 199.6543 C 242.70837 200.46543 242.41854 201.10677 241.7832 202.00195 C 240.47171 203.84982 238.9325 205.76378 237.50195 207.28516 C 236.07141 208.80653 234.62774 209.93086 234.09766 210.15234 C 233.34084 210.46856 232.87515 210.64801 232.39258 210.83398 C 232.72262 210.36149 233.22044 209.72604 233.8457 208.99609 C 235.13108 207.49554 236.90258 205.62024 238.72852 203.80664 C 240.29178 202.25394 241.82251 200.85868 243.20117 199.6543 z M 332.17188 200.27344 C 332.42134 200.42839 332.62014 200.52832 332.87109 200.6875 C 334.44272 201.68438 336.02282 202.75103 337.30078 203.6875 C 338.57874 204.62397 339.60523 205.52485 339.81641 205.7793 C 340.05006 206.06082 340.15497 207.00638 340.18359 207.08008 L 340.18555 207.08203 C 340.1467 207.18299 340.11325 207.25932 340.08594 207.31445 C 340.00547 207.28396 339.88977 207.23355 339.73242 207.14844 C 338.64894 206.5623 336.39795 204.61362 333.00391 201.19336 C 332.6441 200.83078 332.50419 200.62054 332.17188 200.27344 z M 310.12305 212.12891 C 310.54747 212.28453 310.90464 212.31915 311.29883 212.60156 C 311.81708 212.97287 311.87191 213.12848 311.98828 213.25781 C 311.50243 213.25381 310.79343 213.0532 310.38281 212.64258 C 310.21033 212.4701 310.22655 212.32521 310.12305 212.12891 z M 263.15039 212.40039 C 263.05129 212.70377 263.02595 213.10504 262.93164 213.28125 C 262.78121 213.56232 262.50563 213.87511 262.25391 214.07422 C 262.35538 213.65147 262.6854 213.05622 263.15039 212.40039 z M 285.00781 218.67383 C 285.27509 220.47105 285.62094 222.06773 285.70117 224.04102 C 285.76757 225.67369 285.76224 227.22592 285.68164 228.44141 C 285.60104 229.65689 285.31235 230.64697 285.35547 230.56641 C 284.97609 231.27527 284.62572 231.55382 284.50781 231.62891 C 284.49837 231.61765 284.48667 231.60366 284.4707 231.58789 C 284.15149 231.27279 283.45223 229.5333 283.84961 227.12109 C 284.17536 225.14366 284.6742 221.46946 285.00781 218.67383 z M 225.62305 249.26758 C 229.14855 251.12414 232.93014 252.89479 236.86719 254.54492 C 249.43645 259.81307 263.55979 263.79638 275.88086 265.02734 C 276.90276 265.12944 277.94336 265.21458 279 265.28125 L 279 267.87695 C 270.42946 267.34829 258.21884 265.43095 253.54883 263.82422 C 252.02359 263.29946 250.49312 262.82438 249.23047 262.47461 C 248.59914 262.29972 248.03522 262.15721 247.55859 262.05273 C 247.08196 261.94826 246.7682 261.86719 246.27344 261.86719 C 246.32561 261.86719 246.35798 261.86529 246.36914 261.86133 L 246.36914 261.85938 L 246.37109 261.85938 L 246.37109 261.85742 L 246.37109 261.85547 L 246.36914 261.85352 C 246.31873 261.81771 245.7307 261.70924 245.11133 261.47266 C 244.31853 261.16982 243.24965 260.71217 242 260.14258 C 239.50071 259.0034 236.26807 257.4125 232.85352 255.6543 C 230.47416 254.42913 228.0021 253.11841 225.62305 251.82031 L 225.62305 249.26758 z M 342 250.73047 L 342 253.93555 C 338.31772 255.89793 334.61938 257.53056 330.55078 259.04688 C 318.20578 263.64771 295.69201 267.9072 283.53516 268.01562 L 283.53516 265.45898 C 297.59331 265.69166 313.66893 263.12101 326.11133 258.48633 C 330.0612 257.01504 336.20078 253.9761 342 250.73047 z M 335.61914 275.7832 C 336.81003 275.7832 337.3677 276.0843 337.87695 276.79883 C 338.38621 277.51336 338.78516 278.85942 338.78516 280.87891 C 338.78516 284.09053 336.36845 288.47544 333.08203 290.77734 C 331.85939 291.63371 330.81419 291.93728 329.75 291.86914 C 328.68581 291.80104 327.51053 291.32894 326.15625 290.26367 C 325.31362 289.60086 325.06049 289.24926 324.97852 289.15625 C 325.11147 289.03672 326.3602 288.40234 327.00195 288.40234 C 328.95784 288.40234 331.26676 287.65907 333.3418 286.77539 C 334.37932 286.33355 335.32416 285.8555 336.09375 285.33984 C 336.47855 285.08202 336.82085 284.81967 337.13477 284.48047 C 337.44868 284.14127 337.8418 283.695 337.8418 282.85547 C 337.8418 282.39432 337.7652 282.15168 337.67773 281.80273 C 337.59033 281.45378 337.47418 281.06356 337.33398 280.63281 C 337.05359 279.77132 336.67931 278.75724 336.26172 277.75781 C 335.8891 276.86602 335.65677 276.29986 335.45508 275.78516 C 335.53658 275.78488 335.53138 275.7832 335.61914 275.7832 z M 226.41992 276.18164 C 226.09393 276.9679 225.9292 277.7936 226.00977 278.64844 C 226.17409 280.39192 227.14339 281.93795 228.61133 283.64453 C 229.62078 284.81809 230.60701 285.71181 231.85547 286.23438 C 233.10393 286.75694 234.44879 286.858 236.10938 286.81445 C 237.64371 286.77425 238.48166 286.91075 238.67188 286.99414 C 238.8621 287.07754 238.79062 286.93884 238.96484 287.57812 C 239.18959 288.40278 239.0991 288.75525 238.00781 289.66211 C 237.37158 290.19081 236.91835 290.51668 236.61719 290.66211 C 236.31602 290.80753 236.18308 290.83834 235.80469 290.79883 C 235.04791 290.71983 233.32918 290.01626 230.16602 288.45312 C 227.70455 287.23676 226.52339 286.52093 226.05273 285.98633 C 225.58208 285.45172 225.42181 284.84421 225.17773 283.01562 C 224.85881 280.62628 224.94501 279.01002 225.35352 277.86328 C 225.57984 277.22795 225.94026 276.69271 226.41992 276.18164 z " /></g></g></svg>
