<?xml version="1.0" encoding="UTF-8" standalone="no"?>
<svg
   version="1.2"
   viewBox="0 0 21.92126 21.92126"
   width="5.8000002mm"
   height="5.8000002mm"
   id="svg1"
   sodipodi:docname="VojakRoleTokenLaser.svg"
   inkscape:version="1.4.2 (2aeb623e1d, 2025-05-12)"
   xml:space="preserve"
   xmlns:inkscape="http://www.inkscape.org/namespaces/inkscape"
   xmlns:sodipodi="http://sodipodi.sourceforge.net/DTD/sodipodi-0.dtd"
   xmlns="http://www.w3.org/2000/svg"
   xmlns:svg="http://www.w3.org/2000/svg"><sodipodi:namedview
     id="namedview1"
     pagecolor="#ffffff"
     bordercolor="#666666"
     borderopacity="1.0"
     inkscape:showpageshadow="2"
     inkscape:pageopacity="0.0"
     inkscape:pagecheckerboard="0"
     inkscape:deskcolor="#d1d1d1"
     inkscape:zoom="73.185632"
     inkscape:cx="11.716781"
     inkscape:cy="15.658811"
     inkscape:window-width="1920"
     inkscape:window-height="1043"
     inkscape:window-x="0"
     inkscape:window-y="0"
     inkscape:window-maximized="1"
     inkscape:current-layer="text1"
     showgrid="false"
     inkscape:document-units="mm" /><defs
     id="defs1"><clipPath
       clipPathUnits="userSpaceOnUse"
       id="cp1"><path
         d="m 275.5,535.5 c -143.78,0 -260,-116.22 -260,-260 0,-143.78 116.22,-260 260,-260 143.78,0 260,116.22 260,260 0,143.78 -116.22,260 -260,260 z"
         id="path1" /></clipPath></defs><style
     id="style1">
		tspan { white-space:pre } 
		.s0 { fill: none;stroke: #ff0000;stroke-miterlimit:100 } 
	</style><g
     inkscape:groupmode="layer"
     id="layer1"
     inkscape:label="Template"
     transform="scale(0.03845835)"><path
       id="Path 0 copy"
       class="s0"
       d="m 253.96776,1.9812412 c -4.83809,0.7256238 -12.51049,1.8658898 -17.06826,2.5396834 -4.54737,0.6737937 -14.55576,2.8299332 -22.23856,4.8098491 -7.68279,1.9695513 -20.01678,5.7427953 -27.40888,8.3757733 -7.40247,2.632979 -20.89926,8.551995 -30.00441,13.164891 -9.10514,4.602528 -22.37354,12.263042 -29.48531,17.021062 -7.11177,4.747653 -17.57697,12.48073 -23.26639,17.176553 -5.689435,4.695823 -15.573238,13.828318 -21.968643,20.296736 -6.385022,6.468418 -15.147556,16.191781 -19.456148,21.592491 -4.318975,5.41108 -11.576098,15.42469 -16.133862,22.24555 -4.547382,6.83124 -12.178261,20.3382 -16.95405,30.00974 -5.533687,11.2368 -10.714379,23.75899 -14.316985,34.66408 -3.114645,9.39165 -6.8418376,22.43215 -8.2953386,28.97313 -1.453501,6.54097 -3.5922235,19.22903 -4.7446423,28.19566 -1.3912082,10.80144 -2.09719388,22.31812 -2.10757603,34.1458 0,12.12828 0.67483933,22.9919 2.10757603,33.88662 1.162801,8.82153 3.3222877,21.39554 4.7861709,27.93654 1.4638831,6.55133 4.44356,17.48752 6.623812,24.31875 2.180251,6.83123 6.104705,17.53937 8.721006,23.80046 2.616301,6.2611 7.57897,16.73082 11.015462,23.28217 3.446873,6.54098 9.676163,17.02106 13.86017,23.28215 4.173624,6.2611 11.119282,15.79787 15.427874,21.20896 4.308592,5.40071 13.071127,15.12406 19.466531,21.60285 6.385023,6.47879 16.279208,15.58018 21.968643,20.23455 5.68942,4.64399 13.36182,10.563 17.06825,13.15452 3.69605,2.59151 11.60724,7.66051 17.57698,11.25753 5.98013,3.6074 16.92291,9.43312 24.315,12.96793 7.39209,3.52447 18.80207,8.31359 25.34283,10.63558 6.54075,2.322 18.17914,5.82573 25.86193,7.7849 7.6828,1.94883 22.34238,4.7684 32.58957,6.24037 14.74265,2.1354 22.60194,2.69517 37.7495,2.69517 15.15794,0 23.01723,-0.55977 37.75988,-2.69517 10.24718,-1.47197 24.90677,-4.29154 32.58957,-6.24037 7.68278,-1.95917 19.31079,-5.4629 25.86193,-7.7849 6.54076,-2.32199 17.94035,-7.11111 25.34283,-10.63558 7.39208,-3.53481 18.33487,-9.36053 24.30461,-12.96793 5.98012,-3.59702 13.89132,-8.66602 17.58736,-11.25753 3.69605,-2.59152 11.37883,-8.51053 17.06826,-13.1649 5.68942,-4.65435 15.57322,-13.76612 21.95824,-20.23454 6.39541,-6.46842 15.14756,-16.19177 19.46654,-21.59248 4.30859,-5.41109 11.42035,-15.18628 15.79125,-21.72725 4.37088,-6.55136 11.24387,-18.42049 15.27214,-26.39199 4.02828,-7.96113 9.22972,-19.37415 11.5657,-25.345 2.336,-5.98121 5.92822,-16.45093 7.99426,-23.28216 2.06605,-6.83123 4.88999,-18.23389 6.27083,-25.35538 1.39121,-7.1111 3.22885,-18.75218 4.08018,-25.86329 0.86172,-7.11113 1.5677,-20.84614 1.5677,-30.52804 0,-9.81665 -0.70598,-23.07484 -1.59885,-30.00973 -0.8721,-6.82087 -2.30483,-16.368 -3.16655,-21.20894 -0.86172,-4.83059 -2.907,-13.91125 -4.54739,-20.17235 -1.64037,-6.2611 -4.91075,-16.96923 -7.27788,-23.80045 -2.35675,-6.83125 -8.17076,-20.33822 -12.9154,-30.00974 -4.74463,-9.67154 -12.35476,-23.1785 -16.90213,-30.00974 -4.55776,-6.82086 -11.81489,-16.83447 -16.13386,-22.24555 C 502.62025,101.55757 493.85772,91.844574 487.47269,85.386521 481.08767,78.918102 471.20387,69.816706 465.51445,65.151982 459.82502,60.487257 452.14224,54.557873 448.44619,51.96636 444.75015,49.374846 436.83895,44.31621 430.85883,40.708823 424.88909,37.101437 413.9463,31.275712 406.55422,27.751254 399.15174,24.226796 387.75215,19.448044 381.21139,17.136415 374.66025,14.814417 363.95626,11.528378 357.4155,9.8179792 350.87475,8.1075792 341.33354,5.9929045 336.20478,5.1325219 331.08637,4.2617733 321.77358,2.8416237 315.52353,1.970875 308.01724,0.92390344 297.0952,0.4366989 283.45307,0.52999334 272.07423,0.60255536 258.80584,1.2556173 253.96776,1.9812412 Z"
       style="stroke:#000000;stroke-width:1.03741;stroke-opacity:1"
       inkscape:label="vnejsi kruh" /><path
       id="Path 0"
       class="s0"
       d="m 265.85013,27.483209 c -2.18288,0.208543 -7.78893,0.873904 -12.44244,1.459816 -4.66343,0.595844 -10.93427,1.539263 -13.95061,2.105316 -3.00642,0.556121 -11.52961,2.512475 -18.92164,4.359591 -7.39203,1.837184 -19.05063,5.451972 -25.89695,8.02403 -6.84631,2.57206 -17.3837,7.150127 -23.40647,10.159138 -6.0327,3.018944 -15.43895,8.192855 -20.916,11.499788 -5.47708,3.306933 -13.55374,8.70925 -17.92944,12.016186 -4.3856,3.306932 -11.77765,9.245508 -16.44107,13.188011 -4.65352,3.942499 -11.62883,10.476915 -15.49848,14.508775 -3.869674,4.04181 -10.37864,11.38062 -14.466589,16.3162 -4.087947,4.93557 -11.023564,14.35985 -15.419103,20.93398 -4.395538,6.58408 -10.735823,17.34899 -14.089528,23.93306 -3.353706,6.57416 -8.11636,16.89217 -10.596914,22.93007 -2.480545,6.02794 -6.121992,16.57439 -8.096512,23.42659 -1.974519,6.8522 -4.663441,18.29241 -5.983092,25.42266 -1.309727,7.12034 -2.847671,18.34207 -3.423155,24.91621 -0.575495,6.58408 -1.051758,16.67371 -1.051758,22.43353 0,5.75981 0.476263,15.84945 1.051758,22.43353 0.575484,6.57413 2.113428,17.78593 3.423155,24.9162 1.319651,7.13027 3.939113,18.34205 5.824335,24.92612 1.895135,6.57415 5.308376,16.67372 7.590486,22.43353 2.2821,5.7499 7.163825,16.29634 10.84497,23.42659 3.67121,7.12033 10.239712,18.34207 14.575715,24.91621 4.336003,6.58408 12.214231,17.12058 17.512683,23.4266 5.288538,6.30602 13.375129,15.05499 17.969109,19.44437 4.58407,4.38938 12.15471,11.04297 16.8082,14.78686 4.65353,3.73396 13.39498,10.09956 19.42768,14.14137 6.02278,4.03186 17.00667,10.48684 24.3987,14.33997 7.39205,3.84318 19.49714,9.28524 26.88918,12.0857 7.40195,2.80046 19.50706,6.62379 26.89909,8.49077 7.39203,1.86697 19.49713,4.38939 26.88918,5.60094 11.27161,1.83718 17.40353,2.19469 37.85319,2.19469 20.44967,0 26.58159,-0.35751 37.85321,-2.19469 7.39205,-1.21155 19.49713,-3.73397 26.88916,-5.60094 7.39204,-1.86698 19.49714,-5.69031 26.8991,-8.49077 7.39204,-2.80046 19.26892,-8.12334 26.39306,-11.81756 7.12415,-3.70418 18.09812,-10.15915 24.3987,-14.33999 6.3006,-4.18084 15.27028,-10.63581 19.92379,-14.33997 4.65352,-3.70417 13.6331,-11.92681 19.95354,-18.27255 6.32045,-6.34574 14.53603,-15.35292 18.26677,-20.01042 3.73076,-4.66745 10.34887,-13.86331 14.71463,-20.43745 4.36577,-6.58407 11.47009,-19.14645 15.78624,-27.91529 4.30622,-8.76883 9.48563,-20.43745 11.4899,-25.91921 2.01421,-5.48175 5.14963,-15.79979 6.96539,-22.93006 1.81576,-7.13026 4.33601,-19.46424 5.5862,-27.40881 1.90506,-12.0559 2.28212,-18.352 2.28212,-37.88574 0,-19.30534 -0.38698,-25.88942 -2.20273,-37.3892 -1.21051,-7.67646 -3.72083,-20.01044 -5.58621,-27.40883 -1.85545,-7.40833 -5.01072,-17.94482 -7.015,-23.42659 -2.00427,-5.48177 -7.29282,-17.37878 -11.74788,-26.42567 -4.45507,-9.04691 -11.57922,-21.59935 -15.816,-27.90537 -4.23677,-6.306 -10.76558,-15.26354 -14.50626,-19.90119 -3.74068,-4.63763 -10.37863,-12.21479 -14.76424,-16.8425 -4.38562,-4.62771 -11.77765,-11.628879 -16.43117,-15.551517 -4.66342,-3.932571 -12.05548,-9.851287 -16.44108,-13.158219 -4.37569,-3.306936 -12.45237,-8.709253 -17.92943,-12.016186 -5.47706,-3.306933 -14.88331,-8.480844 -20.916,-11.499788 -6.02278,-3.009011 -16.56016,-7.587078 -23.40649,-10.159138 -6.8463,-2.572058 -18.50491,-6.196777 -25.89695,-8.043892 -7.39203,-1.847117 -16.13349,-3.8134 -19.41774,-4.379453 -3.29417,-0.566051 -8.89029,-1.519402 -12.45236,-2.105315 -3.56207,-0.595842 -15.88545,-1.241341 -27.39521,-1.439955 -11.49984,-0.198616 -22.71193,-0.188684 -24.90474,0.01985 z"
       style="stroke:#000000;stroke-width:0.992647;stroke-opacity:1"
       inkscape:label="vnitrni kruh" /><g
       inkscape:groupmode="layer"
       id="layer3"
       inkscape:label="Positions"
       style="display:none"><rect
         style="display:inline;fill:#ff2121;fill-opacity:0.107692;stroke:#000000;stroke-width:1.05245;stroke-opacity:1"
         id="rect1"
         width="300"
         height="300"
         x="135"
         y="80.172386" /><rect
         style="display:inline;fill:#de0000;fill-opacity:0.0923077;stroke:#000000;stroke-width:1.00157;stroke-opacity:1"
         id="rect2"
         width="300"
         height="83.006134"
         x="135"
         y="401.53375" /></g><text
       xml:space="preserve"
       style="font-size:107.967px;font-family:'Didact Gothic';-inkscape-font-specification:'Didact Gothic';text-align:start;letter-spacing:2px;writing-mode:lr-tb;direction:ltr;text-anchor:start;display:none;fill:#de0000;fill-opacity:0.0923077;stroke:#000000;stroke-width:6.86362;stroke-dasharray:none;stroke-opacity:1"
       x="142.81688"
       y="457.19803"
       id="text2"
       inkscape:label="Text"><tspan
         sodipodi:role="line"
         id="tspan2"
         x="142.81688"
         y="457.19803"
         style="font-style:normal;font-variant:normal;font-weight:normal;font-stretch:normal;font-family:'New Rocker';-inkscape-font-specification:'New Rocker';letter-spacing:2px;fill:#000000;fill-opacity:1;stroke:#000000;stroke-width:6.86362;stroke-dasharray:none;stroke-opacity:1">Baron</tspan></text><path
       id="path5"
       style="display:none;stroke-width:8.05907"
       d="m 276.32799,515.95806 h 15.42748 v 4.53544 h -15.42748 z"
       inkscape:label="spojovnik pismen" /></g><g
     inkscape:groupmode="layer"
     id="layer2"
     inkscape:label="Content"
     style="display:inline"><g
       id="text1"
       inkscape:label="Text"
       style="opacity:1"
       transform="scale(0.03845835)"><path
         id="path6"
         style="font-size:107.967px;font-family:'New Rocker';-inkscape-font-specification:'New Rocker';letter-spacing:2px;baseline-shift:baseline;white-space:pre;display:inline;overflow:visible;vector-effect:none;enable-background:accumulate;stop-color:#000000;stop-opacity:1"
         d="M 338.02801 366.72179 L 335.53952 371.64798 C 334.94857 372.8299 334.17417 374.26834 333.20339 375.86318 L 333.20339 375.91396 L 333.15261 375.91396 C 332.254 377.50382 331.29938 379.14154 330.25783 380.73858 L 330.20705 380.73858 C 329.20478 382.31358 328.24142 383.82904 327.31228 385.25849 L 327.31228 385.30927 L 327.26149 385.36006 C 326.39343 386.80683 325.69508 387.98003 325.17929 388.86425 L 323.70651 391.40353 L 325.99186 393.28259 C 326.94807 394.04756 327.5918 394.66495 327.82013 394.95851 L 327.9217 395.11086 L 328.07406 395.26322 C 328.80155 395.99071 329.76705 396.82604 330.96883 397.80249 L 333.35575 399.73234 L 335.53952 397.54857 C 336.868 396.22009 338.28357 394.83688 339.75472 393.43494 C 341.33129 392.00172 342.84236 390.66115 344.27462 389.37211 C 345.66016 388.12513 346.90038 387.03855 348.03274 386.17262 L 348.08353 386.12184 L 348.13432 386.12184 C 349.31424 385.15013 350.22104 384.44291 350.67359 384.14121 L 355.29507 381.09408 L 350.47045 378.30088 C 350.08965 378.08328 349.36303 377.67448 348.43903 377.08203 C 347.54879 376.39901 346.60336 375.6894 345.59504 374.94904 C 344.64282 374.20086 343.73459 373.40855 342.85263 372.66369 C 342.11037 371.97943 341.60109 371.43513 341.37985 371.14013 L 338.02801 366.72179 z M 357.68198 369.05792 L 362.81131 377.64067 C 363.34371 378.528 363.75708 379.4115 364.03016 380.23073 L 364.08095 380.3323 L 364.08095 380.43387 C 364.42003 381.28158 364.71561 382.16813 364.89352 383.17628 L 364.89352 383.27785 L 364.9443 383.37942 C 365.17466 384.35843 365.28685 385.54529 365.35059 386.88362 L 365.40137 386.93441 L 365.40137 387.03598 C 365.53216 388.40933 365.60451 390.00192 365.60451 391.8606 L 365.60451 437.77065 L 356.10763 437.77065 C 356.02511 435.99917 356.00606 433.80494 356.00606 431.16854 C 356.00606 426.00039 356.15062 422.09852 356.41235 419.58946 C 356.72406 417.25673 357.3512 415.62124 358.08827 414.5617 L 361.7956 409.17844 L 355.24428 409.17844 C 351.97857 409.17844 349.39168 408.6493 347.37253 407.70566 C 345.30718 406.63398 343.16566 404.96308 341.02435 402.62711 L 339.19608 400.59569 L 336.75837 401.9669 C 335.11379 402.93096 332.48443 403.97492 328.93741 404.86167 C 325.55611 405.707 321.36927 406.13131 316.3934 406.13131 L 315.22534 406.13131 C 314.70808 406.02216 314.29788 406.02974 313.90492 406.02974 L 309.58815 406.02974 L 310.55308 410.24493 C 311.09445 412.56509 311.73411 414.54959 312.53371 416.23762 L 312.53371 416.2884 L 312.5845 416.38997 C 313.44065 418.01666 314.44319 419.41842 315.68241 420.55438 L 315.73319 420.60516 L 315.78398 420.65595 C 316.97907 421.65185 318.36181 422.41543 319.84682 422.83972 L 319.99917 422.83972 L 320.15153 422.89051 C 321.47568 423.15535 322.83965 423.29679 324.26515 423.29679 C 326.46927 423.29679 328.887 422.84648 331.73061 422.07794 C 332.88673 421.76547 333.96169 421.28731 335.08245 420.90988 L 335.08245 424.41407 C 334.52834 424.63041 334.16095 424.85906 333.45732 425.07428 C 331.99799 425.47026 330.32225 425.85048 328.48034 426.19157 C 326.65762 426.52911 324.74154 426.79754 322.6908 427.00413 C 320.69632 427.14059 318.71741 427.20727 316.79969 427.20727 C 315.06026 427.20727 313.48082 427.09405 312.07664 426.90256 L 306.18553 426.08999 L 308.47087 431.62561 C 308.84199 432.5269 309.15059 433.63074 309.33423 434.97745 L 309.33423 435.02823 C 309.45896 435.90136 309.54352 436.78782 309.58815 437.77065 L 302.17348 437.77065 L 302.17348 407.14702 L 298.41535 400.90041 L 295.92686 401.50983 C 293.68421 402.07049 291.15261 402.65138 288.25826 403.28732 C 285.35951 403.85278 282.68245 404.30878 280.23416 404.65853 L 277.2886 405.1156 L 277.2886 411.51457 L 281.24987 413.24127 L 281.24987 437.77065 L 273.53048 437.77065 C 273.14029 433.69116 272.97184 429.54683 272.97184 425.32821 C 272.97184 419.15014 273.37715 413.83904 274.19069 409.43236 L 275.10483 404.55696 L 270.17864 405.4711 C 269.53208 405.58866 268.8735 405.66177 268.14722 405.72503 L 264.74459 405.72503 C 262.1721 405.72503 259.31154 405.46023 256.16185 404.91246 C 253.11245 404.38213 249.14073 403.28308 244.27805 401.66219 L 242.24664 401.00198 L 240.72307 402.52554 C 237.65281 405.5958 234.5299 408.08868 231.32776 410.09257 C 228.13089 412.02105 225.38247 413.14552 223.1513 413.54599 L 217.46333 414.5617 L 220.76439 418.67532 L 220.81517 418.67532 L 220.81517 418.7261 L 220.81517 418.77689 L 220.86596 418.82767 L 220.86596 418.87846 C 220.95416 419.17621 221.09141 419.73758 221.22146 420.45281 C 221.48563 421.90576 221.7231 423.72361 221.93245 425.88685 L 221.93245 425.93764 L 221.93245 425.98842 C 222.20868 428.12916 222.45285 430.4485 222.59266 432.89525 C 222.69466 434.62915 222.76779 436.23656 222.79581 437.77065 L 207.4586 437.77065 C 207.65594 436.7077 207.86008 435.66358 208.11881 434.57117 C 208.7252 432.01081 209.52023 429.55065 210.45494 427.20727 C 211.38983 425.03608 212.48428 423.44881 213.65442 422.33187 L 215.17799 420.85909 L 214.56856 418.82767 C 214.0091 417.00943 213.63787 415.68952 213.55285 415.22191 C 213.45146 414.66425 213.4005 414.001 213.4005 413.24127 C 213.4005 409.3687 213.80399 405.97663 214.51778 402.98261 C 215.3303 399.80801 216.30231 397.02663 217.46333 394.70458 L 217.46333 394.6538 C 218.66199 392.18991 219.98568 390.11079 221.37381 388.40718 C 222.87155 386.56905 224.26777 385.08146 225.53822 383.93806 L 225.58901 383.93806 L 225.63979 383.88728 C 226.96601 382.62737 228.07259 381.73832 228.94085 381.19565 C 230.07615 380.48609 230.91559 379.95839 231.32776 379.72287 L 242.55135 373.3239 L 229.60106 373.3239 C 227.42225 373.3239 225.49688 373.49139 223.70994 373.83176 C 222.15625 374.1277 220.66715 374.47424 219.24082 374.84747 L 215.22877 375.66003 C 214.13437 375.89044 212.82563 376.01553 211.36908 376.01553 L 208.47431 376.01553 C 207.44137 375.94963 206.31037 375.89037 205.07168 375.76161 C 203.90993 375.5656 202.71332 375.2773 201.46591 374.94904 C 200.3448 374.65401 199.30585 374.25358 198.31721 373.73019 L 193.89888 378.75795 C 194.70777 379.90387 195.51179 381.14142 196.33658 382.51607 L 196.38737 382.56686 L 196.38737 382.61764 C 197.00972 383.57511 197.25072 384.40172 197.25072 385.30927 L 197.25072 386.27419 L 197.25072 386.32498 C 197.24509 386.37602 197.21843 386.48525 197.19993 386.57891 L 186.17949 443.05234 L 185.46849 443.81412 L 184.60514 442.8492 L 171.09621 386.42655 C 171.05671 386.23323 171.03578 386.04894 170.99464 385.86791 L 170.99464 385.30927 C 170.99464 384.23352 171.18205 383.21557 171.60406 382.16057 L 171.60406 382.10979 C 172.08633 380.84381 172.69454 379.7312 173.38155 378.75795 L 178.15539 371.9527 L 169.97893 373.37469 C 168.8148 373.58012 167.76373 373.74588 166.88102 373.88254 C 165.71381 373.99608 164.57631 374.29545 163.47839 374.7459 C 162.34734 375.16687 161.26421 375.77094 160.17734 376.52339 L 160.12655 376.57417 L 160.07576 376.62496 C 159.75011 376.8692 159.35223 377.29962 159.00927 377.58988 C 157.88433 376.61193 156.60068 375.8886 155.09879 375.30454 C 153.44545 374.66157 151.48967 374.24431 149.25846 373.93333 C 146.88774 373.52848 144.12193 373.3239 140.77729 373.3239 L 140.77729 380.17994 L 140.82808 380.23073 C 141.00701 380.3152 141.56544 380.59589 142.45321 381.65272 C 143.71558 383.15554 145.06192 385.32972 146.41448 388.10247 L 146.46526 388.10247 L 146.46526 388.15326 C 147.88956 390.93403 149.25243 394.23574 150.57888 398.00564 L 150.62967 398.05642 C 152.04431 401.87595 153.36436 405.8549 154.64172 410.04179 C 155.91599 414.14778 157.05416 418.2804 158.04435 422.38266 L 158.04435 422.43344 C 159.11389 426.56897 160.05705 430.4446 160.83755 434.06331 C 161.61823 437.61191 162.24818 440.71197 162.66582 443.35705 C 163.06123 445.86127 163.20457 447.61697 163.22446 448.58795 L 160.9899 450.82251 L 164.8496 453.05707 C 167.95402 454.85074 171.00929 456.86306 173.99098 459.15133 L 174.04177 459.20211 C 176.96126 461.32537 179.9479 464.13613 182.98001 467.58171 L 185.67164 470.57806 L 188.21091 467.48014 C 190.11813 465.16424 192.57418 462.53958 195.52401 459.65918 C 198.36065 456.96013 201.50911 454.55141 204.97011 452.44765 L 206.59524 451.48272 L 206.59524 449.55288 C 206.59524 449.32624 206.52209 449.11573 206.49367 448.89266 L 206.49367 447.92774 C 206.49367 446.55704 206.60438 444.66549 206.79839 442.34134 L 222.74502 442.34134 C 222.65255 445.00119 222.41342 447.20266 222.08481 448.89266 L 222.08481 448.94345 C 221.76297 450.82076 221.16824 451.813 221.0691 451.99058 L 211.11515 460.52253 L 223.96387 457.98326 C 224.10803 457.95446 224.23905 457.93248 224.37015 457.93248 L 224.67487 457.93248 L 224.92879 457.88169 C 225.17769 457.84019 225.44936 457.83091 225.69058 457.83091 C 226.92976 457.83091 228.68053 457.99655 230.87069 458.33876 C 233.07056 458.68249 235.26742 459.10784 237.4728 459.65918 C 239.67559 460.20988 241.68711 460.77836 243.51627 461.38589 C 245.25552 462.03504 246.40757 462.68963 246.61418 462.85867 L 249.0011 464.8393 L 251.23566 462.65552 C 252.61238 461.2788 254.16741 459.96617 255.90792 458.69426 L 255.90792 458.64347 L 255.95871 458.64347 C 257.68688 457.3141 259.44569 456.12793 261.29118 455.13928 C 263.16665 454.13456 265.03281 453.30964 266.87758 452.65079 C 268.69066 452.00326 270.35249 451.61219 271.85456 451.43194 L 275.46033 450.97487 L 274.8509 447.41989 C 274.55338 445.73396 274.26568 444.05171 274.03833 442.34134 L 281.24987 442.34134 L 281.24987 462.35081 C 280.37214 466.1017 279.162 469.5953 277.59331 472.8634 L 277.59331 472.91419 C 275.95968 476.38568 273.8851 479.85188 271.39749 483.37599 L 269.31528 486.37233 L 278.71059 492.26345 L 280.64044 489.92732 C 282.57452 487.5788 284.57581 485.41634 286.63313 483.42678 C 288.69826 481.50096 290.6751 479.79306 292.57502 478.29745 C 294.5619 476.86105 296.4278 475.64105 298.16142 474.64089 C 299.88658 473.6456 301.41358 472.96435 302.63055 472.55869 L 304.96668 471.74612 L 304.96668 467.42936 L 303.95097 466.41365 C 303.66267 466.12536 303.44745 465.78503 303.23997 465.24558 C 303.03037 464.70063 302.77344 463.66952 302.57976 462.24924 L 302.52897 462.19845 C 302.33984 460.87454 302.24305 459.15 302.17348 457.01834 L 302.17348 448.79109 L 302.17348 442.34134 L 309.58815 442.34134 C 309.55577 444.18141 309.477 445.98622 309.38501 447.82617 C 309.25378 450.37779 308.85909 452.41337 308.31852 453.81885 L 306.54103 458.38955 L 311.46722 458.49112 C 315.42067 458.55932 318.86939 458.98548 321.77666 459.76075 C 324.79281 460.54757 327.51655 461.68862 329.95312 463.16338 L 332.44161 464.68694 L 338.68822 457.17069 C 338.92785 457.52238 339.03991 457.93927 339.29765 458.28797 C 340.72493 460.219 342.397 461.81007 344.27462 463.06181 L 347.52489 465.24558 L 349.2516 461.74139 C 349.54704 461.15051 350.09536 460.29473 350.87673 459.2529 C 351.63751 458.23853 352.49498 457.22839 353.46679 456.25656 C 354.46558 455.25778 355.44162 454.39231 356.41235 453.61571 L 356.46313 453.61571 C 357.4017 452.85312 358.18722 452.42682 358.69769 452.24451 L 360.93225 451.43194 L 360.93225 445.08376 L 358.29141 444.47433 C 357.76283 444.35235 357.46397 444.20733 357.22491 444.06805 L 357.22491 444.01726 L 357.17413 444.01726 C 357.13108 443.94812 357.05341 443.76483 356.9202 443.35705 C 356.83633 443.06945 356.74849 442.73243 356.66627 442.34134 L 365.60451 442.34134 L 365.60451 448.68952 C 365.60451 450.34694 365.36457 451.47591 365.14744 451.99058 C 365.06602 452.18358 364.97256 452.29516 364.9443 452.34608 L 364.89352 452.34608 L 362.65896 453.20943 L 362.65896 460.62411 L 389.42289 460.62411 L 389.42289 453.20943 L 387.18833 452.39686 L 387.18833 452.34608 L 387.13755 452.34608 C 387.0997 452.27029 387.07468 452.13097 386.98519 451.88901 C 386.72219 451.17793 386.47735 449.69598 386.47734 447.67381 L 386.47734 437.87222 C 387.14134 438.20391 387.87184 438.48786 388.50876 438.83714 L 388.55954 438.83714 L 388.61033 438.88793 C 390.20546 439.71122 391.76677 440.70505 393.33337 441.73192 L 393.33337 448.79109 C 393.33337 450.03827 393.26615 451.40991 393.13023 452.90472 C 392.99136 454.43221 392.82968 455.92269 392.62238 457.37384 C 392.4237 458.76459 392.1335 460.0543 391.80981 461.28432 L 391.80981 461.38589 L 391.80981 461.43667 C 391.54878 462.67657 391.21533 463.68317 390.94646 464.38223 L 389.72761 467.6325 L 395.92343 469.91784 L 397.447 468.39428 C 398.17071 467.67057 399.12266 466.8633 400.2402 466.00736 C 401.44842 465.1368 402.77248 464.25112 404.20146 463.36652 C 405.65878 462.46437 407.14143 461.55976 408.67058 460.72568 C 410.18692 459.89858 411.63888 459.1995 412.98735 458.59269 L 415.52662 457.47541 L 414.91719 454.73299 C 414.50424 452.84524 414.25698 449.8078 414.25698 445.84554 C 414.25698 443.91314 414.29289 442.28846 414.35855 440.86856 C 414.49225 439.48203 414.65231 438.04401 414.91719 436.65337 L 415.37426 434.31724 L 413.29206 433.09839 C 410.68744 431.56626 407.88091 430.19337 404.86167 428.98477 C 404.52653 428.84739 404.14178 428.71025 403.79518 428.57848 L 413.59677 424.87114 L 412.83499 421.92559 C 412.79709 421.77412 412.6978 420.96462 412.63185 419.84338 C 412.56245 418.66307 412.53028 417.73794 412.53028 417.05018 C 412.53028 414.35019 412.83073 412.14898 413.34284 410.49886 L 414.46012 406.89309 L 410.75279 406.13131 C 406.98889 405.3646 403.77764 404.51448 401.15433 403.64282 C 398.66313 402.72098 396.44955 401.60666 394.55222 400.34177 L 392.21609 398.8182 L 390.23546 400.79884 C 388.83258 402.20171 387.64536 403.25644 386.47734 404.30303 L 386.47734 388.96582 C 386.47735 384.82304 386.80011 381.55282 387.2899 379.2658 C 387.84987 376.98541 388.60344 375.35246 389.47368 374.28883 L 385.30927 369.05792 C 382.21034 370.57295 379.50478 371.61263 377.1836 372.25741 C 374.83715 372.9092 372.69772 373.22233 370.83542 373.22233 C 369.02418 373.22233 367.74188 372.99268 367.02651 372.71448 L 357.68198 369.05792 z M 293.03209 371.5972 L 290.44204 372.9684 C 287.87232 374.33891 285.52335 376.24045 283.48443 378.60559 L 283.48443 378.65638 C 281.63654 380.81226 280.04685 382.97899 278.71059 385.25849 L 277.23782 387.74697 L 279.42159 389.62604 C 280.00718 390.12797 280.79505 390.71379 281.75772 391.45431 C 282.68333 392.16631 283.60253 392.9038 284.60171 393.68887 C 285.54697 394.43158 286.44881 395.19584 287.24255 395.92343 L 287.34412 396.025 L 287.44569 396.12657 C 288.27691 396.76598 288.80891 397.25992 288.96926 397.447 L 292.37188 401.40826 L 294.65723 396.736 C 295.73641 394.57764 296.99123 392.92249 298.31378 391.65745 C 299.88728 390.14951 301.81801 388.53263 304.15411 386.88362 L 308.57244 383.78571 L 303.90018 381.14486 C 303.51937 380.92725 302.79276 380.46768 301.86876 379.87523 C 300.97852 379.19221 300.03309 378.48261 299.02478 377.74224 C 298.06992 376.992 297.11579 376.25458 296.23158 375.50768 C 295.49556 374.82822 294.97892 374.22682 294.7588 373.93333 L 293.03209 371.5972 z M 386.47734 418.62453 L 393.48573 419.99574 L 386.47734 422.83972 L 386.47734 418.62453 z M 243.0592 419.89417 C 243.9054 420.12811 244.6907 420.3873 245.64926 420.60516 L 245.70005 420.60516 L 245.75083 420.60516 C 248.01987 421.06928 250.32255 421.33466 252.65765 421.62087 L 252.5053 444.88061 C 251.09406 444.54872 249.79664 444.12212 248.29011 443.8649 C 246.43501 443.54818 244.83113 443.38824 243.16077 443.15391 C 243.23007 441.61614 243.32052 440.09512 243.36392 438.53243 C 243.50694 435.86104 243.56706 433.40975 243.56706 431.27011 C 243.56706 428.54508 243.51147 425.85145 243.36392 423.19522 C 243.30762 422.15334 243.14716 420.98463 243.0592 419.89417 z M 335.18402 437.92301 L 335.18402 444.37276 C 334.28188 444.25231 333.2041 444.00061 332.39082 443.96648 C 331.87402 443.94398 331.37615 443.89456 330.86726 443.8649 L 330.96883 438.9895 C 331.79352 438.8217 332.53584 438.72055 333.45732 438.48165 L 333.5081 438.48165 L 333.55889 438.48165 C 334.08934 438.32448 334.64508 438.09499 335.18402 437.92301 z " /></g><g
       id="path3"
       style="opacity:1"
       inkscape:label="Znak"
       transform="scale(0.03845835)"><path
         style="display:inline;fill:none;stroke:#000000;stroke-opacity:1"
         d="m 289.16729,347.8926 c -15.72352,-1.25661 -24.25183,-2.8305 -35.93651,-6.63206 -15.90762,-5.17548 -38.57627,-16.73995 -50.08663,-25.55183 -4.85617,-3.71768 -26.82553,-28.78706 -35.74883,-40.79322 -2.19956,-2.95946 -5.22803,-15.7323 -5.22803,-22.04963 0,-7.26353 1.99273,-11.64643 5.76819,-12.68682 4.78179,-1.3177 15.52048,-0.79473 22.06846,1.07473 3.48515,0.99502 6.55906,1.58671 6.8309,1.31487 0.27184,-0.27184 1.0395,-3.73023 1.70591,-7.68532 1.28675,-7.63675 1.10838,-10.26764 -2.43937,-35.98046 -1.10036,-7.975 -2.20922,-16.3 -2.46413,-18.5 -0.46386,-4.00326 -1.74788,-12.08002 -5.64368,-35.5 -1.14363,-6.875 -2.92238,-15.6787 -3.9528,-19.56379 -1.03041,-3.88508 -1.87348,-9.62868 -1.87348,-12.76357 0,-3.13488 -0.5625,-6.62049 -1.25,-7.7458 -1.0995,-1.79968 -0.87866,-2.38053 1.83416,-4.82416 2.85919,-2.575482 3.8936,-2.824442 14.18126,-3.413062 6.10341,-0.34921 15.14631,-1.17404 20.09532,-1.83296 6.97485,-0.92863 11.46696,-0.93027 19.97712,-0.007 11.93352,1.2943 16.36496,2.4698 20.06053,5.321292 2.34817,1.81185 2.42896,1.80697 3.85765,-0.232782 1.39156,-1.98672 2.06902,-2.05579 14.60161,-1.48858 7.22829,0.32714 19.21735,1.2638 26.64235,2.081462 7.425,0.81767 14.85,1.54101 16.5,1.60743 1.65,0.0664 9.75,0.94719 18,1.95726 8.25,1.01007 19.275,2.07023 24.5,2.35592 14.81156,0.80985 33.90459,4.96418 42.28849,9.20127 4.68865,2.36958 4.77505,2.49746 4.14335,6.13368 -0.35483,2.04251 -2.00208,6.63865 -3.66056,10.21365 -1.65848,3.575 -5.23683,13.475 -7.9519,22 -2.71506,8.525 -6.43633,20 -8.26949,25.5 -3.75026,11.25189 -10.21069,32.21445 -13.40622,43.5 -1.168,4.125 -3.02815,10.5849 -4.13365,14.35534 -2.04658,6.98002 -2.48189,12.28013 -1.35447,16.49128 0.52266,1.95223 1.10019,2.25223 3.43634,1.785 2.01854,-0.40371 5.70413,0.71547 13.1081,3.98043 5.66501,2.49813 10.91659,5.14003 11.67019,5.8709 0.87584,0.84941 1.53275,4.51971 1.82076,10.17295 0.45967,9.02258 -0.0106,11.14172 -5.84695,26.34517 -2.08689,5.43631 -6.51131,10.62309 -17.02891,19.9631 -11.03812,9.80226 -19.18915,14.28313 -36.80283,20.23165 -17.49947,5.90994 -30.17951,7.37892 -50.01225,5.79392 z"
         id="path3-2" /><g
         id="path20"
         style="opacity:1;fill:none;stroke:#000000;stroke-opacity:1"><path
           style="baseline-shift:baseline;display:inline;overflow:visible;vector-effect:none;fill:none;stroke:#000000;stroke-opacity:1;enable-background:accumulate;stop-color:#000000;stop-opacity:1"
           d="m 199.04492,107.7832 c 0.67903,0.24603 1.368,0.48271 3.01367,1.32227 6.958,3.54971 25.83575,9.89277 36.70313,11.5332 8.79704,1.39947 15.51303,3.1366 24.50976,3.77149 3.85133,0.74548 16.37677,1.6973 30.34375,2.49218 13.96699,0.79488 29.28377,1.414 38.4375,1.42774 18.75897,0.0282 30.76099,-0.3507 41.70899,-2.44336 4.33424,-0.82847 9.03518,-1.65157 10.55078,-1.85547 -2.09194,0.7388 -4.4462,1.66236 -5.66992,1.87305 -24.72056,4.25624 -15.89433,3.2792 -36.48438,3.35547 -5.84374,0.0216 -11.22638,0.0702 -15.19336,0.13085 -1.98348,0.0303 -3.61269,0.0649 -4.77148,0.0996 -0.5794,0.0174 -1.04121,0.0346 -1.375,0.0527 -1.1613,0.0626 -0.39267,0.16383 -2.68164,0.1816 -1.18493,0.009 -2.81375,-0.0126 -4.7461,-0.0606 -3.86468,-0.096 -8.94986,-0.29457 -14.19531,-0.54492 -10.4909,-0.50071 -21.69363,-1.22147 -24.9375,-1.71875 h -0.002 -0.004 c -12.87498,-1.84125 -23.87126,-1.14783 -36.39843,-4.0332 l -0.0312,-0.008 -0.0312,-0.004 c -2.02699,-0.24386 -3.09853,-0.43948 -3.97657,-0.008 -0.43901,0.21583 -0.72685,0.66399 -0.83398,1.11718 -0.10713,0.4532 -0.11133,0.94945 -0.11133,1.57618 0,0.84264 -0.0861,1.39527 -0.17578,1.67968 -0.11551,-0.0975 -0.31891,-0.25666 -0.63477,-0.74609 -0.38689,-0.59951 -0.85339,-1.47579 -1.37695,-2.61133 -0.78135,-1.69467 -1.37471,-2.76541 -2.21289,-3.45312 -0.83818,-0.68772 -1.85832,-0.86914 -3.17578,-0.86914 -0.22277,0 -0.90969,-0.13937 -1.78711,-0.41797 -0.87742,-0.2786 -1.984,-0.68501 -3.23438,-1.18164 -2.50074,-0.99327 -5.57862,-2.34671 -8.62109,-3.77539 -3.04246,-1.42869 -6.05069,-2.93275 -8.41211,-4.22266 -1.18071,-0.64495 -2.19988,-1.23716 -2.97461,-1.73438 -0.64583,-0.41448 -0.99232,-0.71341 -1.21875,-0.92578 z"
           id="path30"
           sodipodi:nodetypes="csccssscssssscsscccccccsscssssssssscc" /></g><g
         id="path19"
         style="opacity:1;fill:none;stroke:#000000;stroke-opacity:1"><path
           style="baseline-shift:baseline;display:inline;overflow:visible;vector-effect:none;fill:none;stroke:#000000;stroke-opacity:1;enable-background:accumulate;stop-color:#000000;stop-opacity:1"
           d="m 388.875,136.82812 -5.44727,3.64258 c -2.08177,1.39238 -4.04015,2.76234 -5.52343,3.85547 -0.74165,0.54657 -1.36271,1.02303 -1.82813,1.40235 -0.23271,0.18965 -0.42614,0.35521 -0.58008,0.49804 -0.15393,0.14284 -0.25996,0.23305 -0.37304,0.41602 -0.10145,0.16415 -0.16469,0.40205 -0.12305,0.62109 0.0416,0.21905 0.16364,0.38521 0.28711,0.50195 0.24694,0.2335 0.52739,0.3427 0.86523,0.44336 0.67568,0.20133 1.59882,0.30589 2.70313,0.31055 l 1.77734,0.008 -1.53711,0.98438 c -0.93315,0.59761 -1.71426,1.24862 -2.25,1.85742 -0.26786,0.3044 -0.47656,0.59409 -0.61133,0.9043 -0.13476,0.3102 -0.21978,0.71451 0.01,1.08593 -0.0266,-0.043 0.0167,0.0424 0.006,0.2168 -0.0109,0.17438 -0.058,0.42472 -0.14648,0.70899 -0.1769,0.56853 -0.51041,1.2758 -0.94141,1.93359 -0.4824,0.73624 -1.09639,2.09909 -1.89258,4.07422 -0.79619,1.97513 -1.7511,4.53567 -2.81836,7.54883 -2.13452,6.02631 -4.71635,13.86014 -7.35156,22.38476 -1.52843,4.94426 -3.45092,10.89792 -4.25781,13.18946 -0.82709,2.34885 -1.15727,4.2346 -0.91602,5.66601 0.12063,0.71571 0.39945,1.33561 0.875,1.77149 0.47555,0.43587 1.12525,0.64843 1.83594,0.64843 0.51677,0 0.79033,0.11253 0.80469,0.125 0.007,0.006 -0.007,-0.0285 -0.002,0.01 0.005,0.0383 0.003,0.15501 -0.0547,0.33789 -0.22911,0.73153 -1.27213,2.34336 -3.19922,4.86719 -1.58289,2.07304 -2.44079,3.21285 -2.75196,4.18359 -0.15558,0.48537 -0.12999,1.01319 0.1211,1.40625 0.25109,0.39307 0.61706,0.62063 1.0332,0.85352 0.38415,0.21497 0.6513,0.39084 0.75781,0.49023 0.10651,0.0994 0.0396,-2e-4 0.0449,-0.0273 0.005,-0.0271 -0.0578,0.13183 -0.29882,0.37304 -0.24098,0.24122 -0.62644,0.5668 -1.14453,0.98633 -1.40085,1.13434 -2.63255,3.08865 -2.88672,4.71094 -0.20921,1.33516 -1.07406,6.07598 -1.91407,10.47266 -0.42034,2.20014 -0.80529,4.21521 -1.08593,5.6914 -0.14033,0.7381 -0.25394,1.34186 -0.33399,1.76563 -0.04,0.21188 -0.0719,0.37901 -0.0937,0.49609 -0.0109,0.0585 -0.0192,0.10319 -0.0254,0.13672 -0.006,0.0335 -0.007,0.0193 -0.0156,0.084 -0.0336,0.24501 0.0629,0.37683 0.11328,0.44727 0.0503,0.0704 0.0884,0.10282 0.12109,0.13086 0.0655,0.0561 0.11581,0.0871 0.17188,0.12109 0.11212,0.0679 0.24102,0.13396 0.39843,0.20899 0.31484,0.15004 0.73381,0.32801 1.19727,0.50586 0.45942,0.17629 1.02403,0.0579 1.57227,-0.0117 -1.93758,1.41746 -4.55597,3.21384 -6.54297,4.27343 -3.26464,1.74092 -7.43712,3.58151 -10.78125,4.91797 -1.20723,0.48246 -2.10579,0.79611 -3.01368,1.11914 0.73633,-0.52695 1.47441,-1.05759 2.41797,-1.67578 3.65091,-2.39193 7.85898,-5.94067 10.71289,-8.74804 1.42696,-1.40369 2.50456,-2.59646 3.04688,-3.46485 0.13558,-0.21709 0.2392,-0.41268 0.30664,-0.62695 0.0674,-0.21427 0.12863,-0.50144 -0.0625,-0.80469 -0.19113,-0.30325 -0.55095,-0.38701 -0.79492,-0.3789 -0.24397,0.008 -0.47055,0.0711 -0.74024,0.16796 -0.47555,0.17086 -0.72671,0.12957 -0.7832,0.0996 -0.0565,-0.03 -0.1245,-0.0831 -0.13672,-0.4375 -0.0244,-0.70883 0.43287,-2.24879 1.46875,-4.25195 l 0.006,-0.0117 0.004,-0.01 c 1.01743,-2.19009 1.34923,-5.61655 1.84961,-9.05079 0.50038,-3.43423 1.17329,-6.84908 2.52929,-8.75976 l 0.0742,-0.10547 0.0254,-0.12695 c 1.299,-6.57722 2.67409,-14.40703 3.06641,-17.48047 0.37525,-2.93966 1.99951,-10.50221 3.5918,-16.66406 1.88171,-7.28181 2.92382,-13.80882 2.92382,-18.46485 0,-1.92167 0.11799,-3.89791 0.3086,-5.51562 0.19061,-1.61772 0.50915,-2.94045 0.68945,-3.27735 0.44898,-0.83892 0.68512,-1.63004 0.59766,-2.39257 -0.0875,-0.76254 -0.53172,-1.43583 -1.2168,-1.93555 -1.37016,-0.99945 -3.68501,-1.5333 -7.20898,-1.92383 -1.67957,-0.18613 -3.43599,-0.49623 -4.89649,-0.8418 -1.46049,-0.34556 -2.66403,-0.76683 -3.05469,-1.01172 -1.22852,-0.77009 -3.89826,-1.85221 -6.14453,-2.53515 -2.89378,-0.87982 -5.75241,-1.94473 -7.86914,-2.88281 -1.05836,-0.46904 -1.93328,-0.90944 -2.51758,-1.26368 -0.1468,-0.089 -0.20969,-0.14718 -0.3164,-0.22265 0.23601,-0.0732 0.46893,-0.14849 0.8457,-0.22852 1.02864,-0.21848 2.5094,-0.43908 4.2168,-0.63476 3.41479,-0.39137 7.7522,-0.68161 11.36328,-0.6836 5.10708,-0.003 17.81621,-2.18258 29.17969,-4.98242 2.99276,-0.73739 7.64415,-1.61539 10.25,-1.9375 z"
           id="path28"
           sodipodi:nodetypes="ccsssssssccsssccssssssssssscssssscsssssssccssssscsscssssscssssccscccssssssssssssscsscscc" /></g><g
         id="path18"
         style="opacity:1;fill:none;stroke:#000000;stroke-opacity:1"><path
           style="baseline-shift:baseline;display:inline;overflow:visible;vector-effect:none;fill:none;stroke:#000000;stroke-opacity:1;enable-background:accumulate;stop-color:#000000;stop-opacity:1"
           d="m 327.54102,262.33594 -2.5,0.65429 c -0.71907,0.18814 -1.47191,0.45903 -2.12305,0.75 -0.65114,0.29098 -1.18755,0.57808 -1.54297,0.91016 -0.20806,0.1944 -0.36245,0.36288 -0.47852,0.53711 -0.11606,0.17423 -0.2386,0.37533 -0.16015,0.68164 0.0392,0.15316 0.15286,0.29849 0.26953,0.375 0.11667,0.0765 0.22777,0.10302 0.32812,0.11719 0.20072,0.0283 0.38035,0.006 0.58789,-0.0352 0.83017,-0.16592 2.07764,-0.71292 3.50391,-1.57226 l 2.5,-1.50586 z"
           id="path26" /></g><g
         id="path17"
         style="opacity:1;fill:none;stroke:#000000;stroke-opacity:1"><path
           style="baseline-shift:baseline;display:inline;overflow:visible;vector-effect:none;fill:none;stroke:#000000;stroke-opacity:1;enable-background:accumulate;stop-color:#000000;stop-opacity:1"
           d="m 210.83203,251.78516 c 0.12194,0.0731 0.12254,0.0877 0.25391,0.16601 1.48065,0.88207 3.48596,2.01568 5.92968,3.31641 4.88745,2.60146 11.52482,5.87127 19.17188,9.10547 15.29412,6.46839 34.61048,12.80993 52.10742,13.32031 14.41549,0.4205 18.39577,0.17424 28.23242,-1.73828 6.28128,-1.22126 14.96246,-3.31768 19.43555,-4.69922 5.75562,-1.77764 11.53279,-3.75573 16.05859,-5.64844 2.26291,-0.94635 4.21043,-1.86877 5.71094,-2.75586 0.66596,-0.39371 1.21662,-0.76381 1.70703,-1.15039 -0.004,0.0546 -0.003,0.0747 -0.008,0.13086 -0.12848,1.54353 -0.0901,2.66385 -0.13086,3.45703 -0.0408,0.79319 -0.12173,1.18913 -0.45508,1.67578 -0.66669,0.97331 -2.84503,2.42422 -8.42383,5.52539 -2.41569,1.34285 -4.56642,2.6077 -6.10351,3.57422 -0.76855,0.48327 -1.3809,0.88759 -1.81836,1.21094 -0.21873,0.16167 -0.38849,0.29476 -0.55078,0.45508 -0.0811,0.0802 -0.16422,0.15246 -0.27149,0.3418 -0.0536,0.0947 -0.12554,0.22575 -0.14648,0.46679 -0.0209,0.24104 0.0859,0.63274 0.3125,0.85938 0.32795,0.32794 0.59988,0.33649 0.79102,0.35742 0.19113,0.0209 0.34764,0.0136 0.51367,-0.002 0.33205,-0.0311 0.69434,-0.10407 1.12695,-0.20704 0.86521,-0.20593 1.98939,-0.54308 3.30469,-0.98437 2.6306,-0.88258 6.00868,-2.17619 9.33594,-3.61133 0.0334,-0.0144 0.0372,-0.0112 0.0703,-0.0254 -0.90019,0.57003 -1.77763,1.14102 -2.83594,1.72656 -1.54443,0.85452 -3.149,1.66352 -4.48828,2.25196 -1.33928,0.58844 -2.55661,0.91757 -2.69727,0.91992 -1.47253,0.0246 -3.28511,0.55445 -4.79297,1.16406 -0.75392,0.30481 -1.41003,0.62072 -1.92382,0.98047 -0.2569,0.17988 -0.48848,0.34831 -0.70118,0.69141 -0.10634,0.17155 -0.21569,0.41483 -0.21093,0.73437 0.005,0.31954 0.17074,0.66684 0.36914,0.86524 0.43631,0.43631 0.66342,0.34972 0.86914,0.37109 0.20572,0.0214 0.40254,0.021 0.6289,0.0117 0.45274,-0.0186 1.01039,-0.0776 1.67579,-0.16797 1.33079,-0.18076 3.07479,-0.48998 4.97656,-0.87109 3.80353,-0.76224 8.2097,-1.80844 11.0664,-2.72461 0.86359,-0.27697 1.49245,-0.48642 1.88086,-0.57813 0.38842,-0.0917 0.4307,-0.0244 0.30664,-0.0898 -0.12405,-0.0654 -0.0701,-0.10346 0.0508,0.24804 0.12085,0.35151 0.27033,0.9714 0.48242,1.81641 0.23423,0.93326 0.20749,1.43889 0.16406,1.55664 -0.0434,0.11775 -0.0604,0.18046 -0.62109,0.35156 -0.61691,0.18825 -1.86171,0.66549 -3.53907,1.33008 -1.67735,0.6646 -3.73357,1.50219 -5.77148,2.35547 -9.46347,3.96242 -20.82342,6.84824 -33.8457,8.58008 -11.27649,1.49966 -31.53313,1.63763 -39.18555,0.32812 -2.78315,-0.47626 -6.82282,-1.03268 -9.07617,-1.24804 -4.53343,-0.43326 -17.70371,-3.76361 -25.13867,-6.66993 -3.75424,-1.70375 -10.3419,-6.06119 -16.93555,-10.65625 0.12251,0.0476 0.25515,0.13595 0.37695,0.18165 1.75335,0.65774 3.07814,1.06492 4.04297,1.26171 0.48241,0.0984 0.862,0.15403 1.26367,0.125 0.20084,-0.0145 0.41965,-0.0369 0.69922,-0.19921 0.27957,-0.16229 0.59397,-0.60549 0.60742,-1.00391 0.0269,-0.79685 -0.35426,-1.00004 -0.64257,-1.26953 -0.28832,-0.2695 -0.64663,-0.53029 -1.10547,-0.82617 -0.91769,-0.59177 -2.23346,-1.30185 -3.97852,-2.12305 -3.34658,-1.57485 -7.88598,-4.55578 -11.93555,-7.69336 -4.04957,-3.13758 -7.65321,-6.49934 -9.09961,-8.57617 -0.55379,-0.79517 -0.49066,-0.88119 -0.62304,-1.42383 -0.13238,-0.54264 -0.45195,-1.32166 -1.41992,-2.47266 -0.15329,-0.18227 -0.18069,-0.24439 -0.32227,-0.41601 0.24096,0.20072 0.34326,0.25221 0.60547,0.47656 5.1289,4.38824 9.84878,7.76102 13.47851,9.91211 1.81487,1.07555 3.35023,1.84697 4.58204,2.29297 0.6159,0.223 1.15237,0.36936 1.66796,0.41406 0.5156,0.0447 1.11516,0.0177 1.60938,-0.47656 0.18814,-0.18815 0.29906,-0.47178 0.31641,-0.68164 0.0173,-0.20987 -0.0211,-0.35335 -0.0566,-0.45899 -0.071,-0.21127 -0.14581,-0.305 -0.2129,-0.39648 -0.13417,-0.18296 -0.26938,-0.31925 -0.43945,-0.48242 -0.34013,-0.32634 -0.80697,-0.71978 -1.39648,-1.1875 -1.17904,-0.93544 -2.83452,-2.14905 -4.70508,-3.43555 -5.49647,-3.78027 -8.30611,-6.1674 -10.17383,-7.95898 z"
           id="path24"
           sodipodi:nodetypes="scsssssssccsssssssssscssscsssssscssssssssssssssssscccsssssssssssccsssssssssscs" /></g><g
         id="path16"
         style="opacity:1;stroke:#000000;stroke-opacity:1"><path
           style="baseline-shift:baseline;display:inline;overflow:visible;vector-effect:none;fill:none;stroke:#000000;stroke-opacity:1;enable-background:accumulate;stop-color:#000000;stop-opacity:1"
           d="m 201.52148,264.98437 c 1.4852,1.18471 3.64596,3.19225 7.07422,6.61329 16.23975,16.20554 31.61207,24.53561 57.19141,31.02343 9.85146,2.49867 12.40826,2.72657 31.38086,2.72657 18.96565,0 21.52945,-0.22834 31.36328,-2.72266 11.26993,-2.85858 25.23523,-8.05978 31.25,-11.72656 2.02893,-1.23689 3.49475,-1.80894 4.05273,-1.84766 0.279,-0.0194 0.21689,0.008 0.20118,-0.01 -0.0157,-0.018 0.082,0.12733 0.082,0.55078 0,1.6545 -1.21644,3.34412 -3.44336,4.87304 -2.22692,1.52893 -5.36346,2.80943 -8.69531,3.63672 -0.47101,0.11696 -1.44688,0.44696 -2.99219,0.9668 -1.54531,0.51984 -3.5339,1.20076 -5.59961,1.91992 -4.06697,1.41589 -9.42966,2.85588 -11.57617,3.15039 -1.57226,0.21572 -2.78824,0.57262 -3.69141,1.03906 -0.90317,0.46645 -1.67938,1.0551 -1.70312,2.11133 -0.0119,0.52812 0.27123,1.03835 0.625,1.34571 0.35376,0.30735 0.76684,0.48438 1.23632,0.61132 0.93896,0.2539 2.14696,0.29617 3.71094,0.11328 3.28657,-0.38431 8.64834,-1.5105 13.44922,-2.70117 2.40044,-0.59533 4.65324,-1.20496 6.42383,-1.75 0.62872,-0.19354 1.11113,-0.36775 1.60742,-0.54297 -0.96881,0.95975 -1.99493,1.97105 -3.35156,3.16211 -9.66911,8.48901 -21.87179,12.90304 -38.48633,13.82227 -6.9e-4,4e-5 -10e-4,-4e-5 -0.002,0 -5.51088,0.30479 -12.72037,0.70186 -16.01954,0.88281 -7.93471,0.43521 -14.83831,-0.51412 -26.16406,-3.62695 -5.22739,-1.43673 -12.18604,-3.32955 -15.47461,-4.20899 -8.72421,-2.33304 -28.11984,-13.53835 -38.45703,-22.37109 -6.46237,-5.52185 -11.10188,-9.97128 -14.07031,-13.50586 -1.18381,-1.40959 -1.89211,-2.55952 -2.54688,-3.67187 1.47632,0.77726 0.97149,-0.30098 3.26563,1.22265 1.04168,0.69184 2.31641,1.72121 3.51562,2.88672 2.30629,2.24146 4.15115,3.91785 5.50977,5.04688 0.67931,0.56451 1.23367,0.99086 1.6875,1.29492 0.22691,0.15203 0.4279,0.27394 0.63281,0.37304 0.20492,0.0991 0.37455,0.22578 0.83594,0.19141 0.2307,-0.0172 0.59771,-0.14695 0.82227,-0.43555 0.22455,-0.2886 0.25116,-0.59591 0.24023,-0.78906 -0.0219,-0.3863 -0.13104,-0.55336 -0.23828,-0.75781 -0.21448,-0.4089 -0.53262,-0.85412 -0.99805,-1.44531 -0.93086,-1.1824 -2.43713,-2.8826 -4.5918,-5.13672 -3.33887,-3.493 -5.50367,-5.91832 -6.73828,-7.58985 -1.2346,-1.67152 -1.37816,-2.49613 -1.32812,-2.6875 0.19126,-0.73131 0.35108,-1.32016 0.01,-2.03711 z"
           id="path22"
           sodipodi:nodetypes="csssssssssssssssssssscsscssssscssssssssssssscc" /></g></g><text
       xml:space="preserve"
       style="font-size:12.1761px;line-height:normal;font-family:'New Rocker';-inkscape-font-specification:'New Rocker';text-align:start;text-decoration-color:#000000;letter-spacing:2px;writing-mode:lr-tb;direction:ltr;text-anchor:start;fill:none;fill-opacity:0.0923077;stroke:#000000"
       x="-1.9556594"
       y="16.27"
       id="text6"><tspan
         sodipodi:role="line"
         id="tspan6"></tspan></text></g></svg>
