<?xml version="1.0" encoding="UTF-8" standalone="no"?>
<svg
   version="1.2"
   viewBox="0 0 570 570"
   width="570"
   height="570"
   id="svg1"
   sodipodi:docname="VysetrovatelTokenLaser.svg"
   inkscape:version="1.4.2 (2aeb623e1d, 2025-05-12)"
   xml:space="preserve"
   xmlns:inkscape="http://www.inkscape.org/namespaces/inkscape"
   xmlns:sodipodi="http://sodipodi.sourceforge.net/DTD/sodipodi-0.dtd"
   xmlns="http://www.w3.org/2000/svg"
   xmlns:svg="http://www.w3.org/2000/svg"><sodipodi:namedview
     id="namedview1"
     pagecolor="#ffffff"
     bordercolor="#666666"
     borderopacity="1.0"
     inkscape:showpageshadow="2"
     inkscape:pageopacity="0.0"
     inkscape:pagecheckerboard="0"
     inkscape:deskcolor="#d1d1d1"
     inkscape:zoom="0.67329249"
     inkscape:cx="57.924306"
     inkscape:cy="134.41409"
     inkscape:window-width="1920"
     inkscape:window-height="940"
     inkscape:window-x="0"
     inkscape:window-y="0"
     inkscape:window-maximized="1"
     inkscape:current-layer="layer2" /><defs
     id="defs1"><clipPath
       clipPathUnits="userSpaceOnUse"
       id="cp1"><path
         d="m 275.5,535.5 c -143.78,0 -260,-116.22 -260,-260 0,-143.78 116.22,-260 260,-260 143.78,0 260,116.22 260,260 0,143.78 -116.22,260 -260,260 z"
         id="path1" /></clipPath></defs><style
     id="style1">
		tspan { white-space:pre } 
		.s0 { fill: none;stroke: #ff0000;stroke-miterlimit:100 } 
	</style><g
     inkscape:groupmode="layer"
     id="layer1"
     inkscape:label="Template"><path
       id="Path 0 copy"
       class="s0"
       d="m 253.96776,1.9812412 c -4.83809,0.7256238 -12.51049,1.8658898 -17.06826,2.5396834 -4.54737,0.6737937 -14.55576,2.8299332 -22.23856,4.8098491 -7.68279,1.9695513 -20.01678,5.7427953 -27.40888,8.3757733 -7.40247,2.632979 -20.89926,8.551995 -30.00441,13.164891 -9.10514,4.602528 -22.37354,12.263042 -29.48531,17.021062 -7.11177,4.747653 -17.57697,12.48073 -23.26639,17.176553 -5.689435,4.695823 -15.573238,13.828318 -21.968643,20.296736 -6.385022,6.468418 -15.147556,16.191781 -19.456148,21.592491 -4.318975,5.41108 -11.576098,15.42469 -16.133862,22.24555 -4.547382,6.83124 -12.178261,20.3382 -16.95405,30.00974 -5.533687,11.2368 -10.714379,23.75899 -14.316985,34.66408 -3.114645,9.39165 -6.8418376,22.43215 -8.2953386,28.97313 -1.453501,6.54097 -3.5922235,19.22903 -4.7446423,28.19566 -1.3912082,10.80144 -2.09719388,22.31812 -2.10757603,34.1458 0,12.12828 0.67483933,22.9919 2.10757603,33.88662 1.162801,8.82153 3.3222877,21.39554 4.7861709,27.93654 1.4638831,6.55133 4.44356,17.48752 6.623812,24.31875 2.180251,6.83123 6.104705,17.53937 8.721006,23.80046 2.616301,6.2611 7.57897,16.73082 11.015462,23.28217 3.446873,6.54098 9.676163,17.02106 13.86017,23.28215 4.173624,6.2611 11.119282,15.79787 15.427874,21.20896 4.308592,5.40071 13.071127,15.12406 19.466531,21.60285 6.385023,6.47879 16.279208,15.58018 21.968643,20.23455 5.68942,4.64399 13.36182,10.563 17.06825,13.15452 3.69605,2.59151 11.60724,7.66051 17.57698,11.25753 5.98013,3.6074 16.92291,9.43312 24.315,12.96793 7.39209,3.52447 18.80207,8.31359 25.34283,10.63558 6.54075,2.322 18.17914,5.82573 25.86193,7.7849 7.6828,1.94883 22.34238,4.7684 32.58957,6.24037 14.74265,2.1354 22.60194,2.69517 37.7495,2.69517 15.15794,0 23.01723,-0.55977 37.75988,-2.69517 10.24718,-1.47197 24.90677,-4.29154 32.58957,-6.24037 7.68278,-1.95917 19.31079,-5.4629 25.86193,-7.7849 6.54076,-2.32199 17.94035,-7.11111 25.34283,-10.63558 7.39208,-3.53481 18.33487,-9.36053 24.30461,-12.96793 5.98012,-3.59702 13.89132,-8.66602 17.58736,-11.25753 3.69605,-2.59152 11.37883,-8.51053 17.06826,-13.1649 5.68942,-4.65435 15.57322,-13.76612 21.95824,-20.23454 6.39541,-6.46842 15.14756,-16.19177 19.46654,-21.59248 4.30859,-5.41109 11.42035,-15.18628 15.79125,-21.72725 4.37088,-6.55136 11.24387,-18.42049 15.27214,-26.39199 4.02828,-7.96113 9.22972,-19.37415 11.5657,-25.345 2.336,-5.98121 5.92822,-16.45093 7.99426,-23.28216 2.06605,-6.83123 4.88999,-18.23389 6.27083,-25.35538 1.39121,-7.1111 3.22885,-18.75218 4.08018,-25.86329 0.86172,-7.11113 1.5677,-20.84614 1.5677,-30.52804 0,-9.81665 -0.70598,-23.07484 -1.59885,-30.00973 -0.8721,-6.82087 -2.30483,-16.368 -3.16655,-21.20894 -0.86172,-4.83059 -2.907,-13.91125 -4.54739,-20.17235 -1.64037,-6.2611 -4.91075,-16.96923 -7.27788,-23.80045 -2.35675,-6.83125 -8.17076,-20.33822 -12.9154,-30.00974 -4.74463,-9.67154 -12.35476,-23.1785 -16.90213,-30.00974 -4.55776,-6.82086 -11.81489,-16.83447 -16.13386,-22.24555 C 502.62025,101.55757 493.85772,91.844574 487.47269,85.386521 481.08767,78.918102 471.20387,69.816706 465.51445,65.151982 459.82502,60.487257 452.14224,54.557873 448.44619,51.96636 444.75015,49.374846 436.83895,44.31621 430.85883,40.708823 424.88909,37.101437 413.9463,31.275712 406.55422,27.751254 399.15174,24.226796 387.75215,19.448044 381.21139,17.136415 374.66025,14.814417 363.95626,11.528378 357.4155,9.8179792 350.87475,8.1075792 341.33354,5.9929045 336.20478,5.1325219 331.08637,4.2617733 321.77358,2.8416237 315.52353,1.970875 308.01724,0.92390344 297.0952,0.4366989 283.45307,0.52999334 272.07423,0.60255536 258.80584,1.2556173 253.96776,1.9812412 Z"
       style="stroke-width:1.03741;stroke:#000000;stroke-opacity:1"
       inkscape:label="vnejsi kruh" /><path
       id="Path 0"
       class="s0"
       d="m 265.85013,27.483209 c -2.18288,0.208543 -7.78893,0.873904 -12.44244,1.459816 -4.66343,0.595844 -10.93427,1.539263 -13.95061,2.105316 -3.00642,0.556121 -11.52961,2.512475 -18.92164,4.359591 -7.39203,1.837184 -19.05063,5.451972 -25.89695,8.02403 -6.84631,2.57206 -17.3837,7.150127 -23.40647,10.159138 -6.0327,3.018944 -15.43895,8.192855 -20.916,11.499788 -5.47708,3.306933 -13.55374,8.70925 -17.92944,12.016186 -4.3856,3.306932 -11.77765,9.245508 -16.44107,13.188011 -4.65352,3.942499 -11.62883,10.476915 -15.49848,14.508775 -3.869674,4.04181 -10.37864,11.38062 -14.466589,16.3162 -4.087947,4.93557 -11.023564,14.35985 -15.419103,20.93398 -4.395538,6.58408 -10.735823,17.34899 -14.089528,23.93306 -3.353706,6.57416 -8.11636,16.89217 -10.596914,22.93007 -2.480545,6.02794 -6.121992,16.57439 -8.096512,23.42659 -1.974519,6.8522 -4.663441,18.29241 -5.983092,25.42266 -1.309727,7.12034 -2.847671,18.34207 -3.423155,24.91621 -0.575495,6.58408 -1.051758,16.67371 -1.051758,22.43353 0,5.75981 0.476263,15.84945 1.051758,22.43353 0.575484,6.57413 2.113428,17.78593 3.423155,24.9162 1.319651,7.13027 3.939113,18.34205 5.824335,24.92612 1.895135,6.57415 5.308376,16.67372 7.590486,22.43353 2.2821,5.7499 7.163825,16.29634 10.84497,23.42659 3.67121,7.12033 10.239712,18.34207 14.575715,24.91621 4.336003,6.58408 12.214231,17.12058 17.512683,23.4266 5.288538,6.30602 13.375129,15.05499 17.969109,19.44437 4.58407,4.38938 12.15471,11.04297 16.8082,14.78686 4.65353,3.73396 13.39498,10.09956 19.42768,14.14137 6.02278,4.03186 17.00667,10.48684 24.3987,14.33997 7.39205,3.84318 19.49714,9.28524 26.88918,12.0857 7.40195,2.80046 19.50706,6.62379 26.89909,8.49077 7.39203,1.86697 19.49713,4.38939 26.88918,5.60094 11.27161,1.83718 17.40353,2.19469 37.85319,2.19469 20.44967,0 26.58159,-0.35751 37.85321,-2.19469 7.39205,-1.21155 19.49713,-3.73397 26.88916,-5.60094 7.39204,-1.86698 19.49714,-5.69031 26.8991,-8.49077 7.39204,-2.80046 19.26892,-8.12334 26.39306,-11.81756 7.12415,-3.70418 18.09812,-10.15915 24.3987,-14.33999 6.3006,-4.18084 15.27028,-10.63581 19.92379,-14.33997 4.65352,-3.70417 13.6331,-11.92681 19.95354,-18.27255 6.32045,-6.34574 14.53603,-15.35292 18.26677,-20.01042 3.73076,-4.66745 10.34887,-13.86331 14.71463,-20.43745 4.36577,-6.58407 11.47009,-19.14645 15.78624,-27.91529 4.30622,-8.76883 9.48563,-20.43745 11.4899,-25.91921 2.01421,-5.48175 5.14963,-15.79979 6.96539,-22.93006 1.81576,-7.13026 4.33601,-19.46424 5.5862,-27.40881 1.90506,-12.0559 2.28212,-18.352 2.28212,-37.88574 0,-19.30534 -0.38698,-25.88942 -2.20273,-37.3892 -1.21051,-7.67646 -3.72083,-20.01044 -5.58621,-27.40883 -1.85545,-7.40833 -5.01072,-17.94482 -7.015,-23.42659 -2.00427,-5.48177 -7.29282,-17.37878 -11.74788,-26.42567 -4.45507,-9.04691 -11.57922,-21.59935 -15.816,-27.90537 -4.23677,-6.306 -10.76558,-15.26354 -14.50626,-19.90119 -3.74068,-4.63763 -10.37863,-12.21479 -14.76424,-16.8425 -4.38562,-4.62771 -11.77765,-11.628879 -16.43117,-15.551517 -4.66342,-3.932571 -12.05548,-9.851287 -16.44108,-13.158219 -4.37569,-3.306936 -12.45237,-8.709253 -17.92943,-12.016186 -5.47706,-3.306933 -14.88331,-8.480844 -20.916,-11.499788 -6.02278,-3.009011 -16.56016,-7.587078 -23.40649,-10.159138 -6.8463,-2.572058 -18.50491,-6.196777 -25.89695,-8.043892 -7.39203,-1.847117 -16.13349,-3.8134 -19.41774,-4.379453 -3.29417,-0.566051 -8.89029,-1.519402 -12.45236,-2.105315 -3.56207,-0.595842 -15.88545,-1.241341 -27.39521,-1.439955 -11.49984,-0.198616 -22.71193,-0.188684 -24.90474,0.01985 z"
       style="stroke-width:0.992647;stroke:#000000;stroke-opacity:1"
       inkscape:label="vnitrni kruh" /><g
       inkscape:groupmode="layer"
       id="layer3"
       inkscape:label="Positions"
       style="display:none"><rect
         style="display:inline;fill:#ff2121;fill-opacity:0.107692;stroke:#000000;stroke-width:1.05245;stroke-opacity:1"
         id="rect1"
         width="300"
         height="300"
         x="135"
         y="80.172386" /><rect
         style="display:inline;fill:#de0000;fill-opacity:0.0923077;stroke:#000000;stroke-width:1.00157;stroke-opacity:1"
         id="rect2"
         width="300"
         height="83.006134"
         x="135"
         y="401.53375" /></g><text
       xml:space="preserve"
       style="font-size:77.6357px;font-family:'Didact Gothic';-inkscape-font-specification:'Didact Gothic';text-align:start;letter-spacing:0.55px;writing-mode:lr-tb;direction:ltr;text-anchor:start;display:none;fill:#de0000;fill-opacity:0.0923077;stroke:#000000;stroke-width:4.12098;stroke-dasharray:none;stroke-opacity:1"
       x="63.093266"
       y="415.9144"
       id="text2"
       inkscape:label="Text"><tspan
         sodipodi:role="line"
         id="tspan2"
         x="63.093266"
         y="415.9144"
         style="font-style:normal;font-variant:normal;font-weight:normal;font-stretch:normal;font-family:'New Rocker';-inkscape-font-specification:'New Rocker';letter-spacing:0.55px;writing-mode:lr-tb;fill:#000000;fill-opacity:1;stroke:#000000;stroke-width:4.12098;stroke-dasharray:none;stroke-opacity:1">Vyšetřovatel</tspan></text></g><g
     inkscape:groupmode="layer"
     id="layer2"
     inkscape:label="Content"
     style="display:inline"><path
       id="path5"
       style="display:none;stroke-width:8.05907"
       d="m 276.32799,515.95806 h 15.42748 v 4.53544 h -15.42748 z"
       inkscape:label="spojovnik pismen" /><path
       id="path5-0"
       style="display:inline;stroke-width:1;stroke:#000000;stroke-opacity:1;fill:none;stroke-dasharray:none"
       inkscape:label="Znak"
       d="m 204.60352,100.01562 c -17.52455,-0.25588 -35.15467,3.63772 -55.16016,20.95704 -19.24269,16.65891 -30.73317,33.547 -37.01367,48.6875 -2.91342,7.02341 -4.67133,18.45691 -6.16211,27.8457 -1.19878,7.54975 -2.18731,15.17997 -2.22461,22.82422 -0.0289,5.9274 0.39659,4.76959 1.55273,17.71484 1.87466,20.98962 10.78304,26.38344 21.29883,35.17578 10.00967,8.36917 23.74212,11.50852 36.54492,14.02344 11.23962,2.20786 30.74755,2.56084 34.35547,0.73828 1.81089,-0.9148 6.92896,-3.44617 11.37305,-5.625 7.6744,-3.76255 13.03933,-7.96495 26.36328,-20.6543 7.7293,-7.14628 4.40884,-4.44662 11.5293,-11.55468 l 4.57617,-4.56836 8.35156,3.83594 c 3.11952,0.67222 10.61022,4.88974 12.89063,5.39062 2.28039,0.50085 10.09124,3.69959 17.35547,7.10742 7.26422,3.40782 15.72607,7.19933 18.80468,8.42774 3.07859,1.22841 9.23165,4.01361 13.67383,6.1875 4.44222,2.17388 14.71789,6.98504 22.83399,10.6914 8.11606,3.70636 17.34463,8.30494 20.50976,10.22071 3.1651,1.91579 18.0229,9.29075 33.01758,16.38867 19.02022,9.00346 41.21954,14.38867 35.42969,14.38867 -0.47413,0 -0.7104,0.009 -0.75196,0.0215 h -0.002 l -0.002,0.002 -0.002,0.002 0.002,0.002 0.002,0.002 c 0.27784,0.0946 9.00538,0.32705 12.02734,-0.69727 1.40142,-0.47502 2.63206,-1.43934 3.67774,-2.48633 8.65234,-8.66313 14.72942,-19.67413 20.5332,-30.45507 1.63076,-3.02925 3.35852,-6.1432 3.9668,-9.5293 0.54991,-3.06112 0.54539,-6.34784 -0.36328,-9.32227 -1.50684,-4.93251 -3.7358,-8.76924 -8.14063,-13.1582 -3.25935,-3.24761 -6.95004,-5.90625 -8.20117,-5.90625 -1.25114,0 -2.80556,-0.50365 -3.45508,-1.12109 -1.59203,-1.51347 -16.46803,-4.27692 -17.97265,-4.4668 l -4.0293,-0.50781 -7.25195,-1.83008 c -2.29465,-0.57879 -10.96154,-2.44699 -19.16602,-4.59961 -8.20451,-2.15265 -17.15384,-4.32131 -19.88867,-4.81836 -2.73483,-0.49707 -8.60863,-1.86974 -13.05274,-3.05078 -7.53791,-2.00321 -14.7243,-3.81228 -34.80664,-8.75781 -4.4441,-1.09442 -9.41613,-2.23609 -11.04883,-2.53907 -1.63267,-0.30296 -5.82907,-1.37933 -9.32421,-2.39062 -3.4951,-1.01132 -8.31209,-2.1643 -10.70508,-2.5625 -2.39299,-0.39822 -7.4271,-1.627 -11.1875,-2.73047 -3.76039,-1.10348 -7.9568,-2.11377 -9.32422,-2.24414 -1.51356,-0.14434 -2.50767,-1.16824 -2.54297,-2.61719 -0.0319,-1.30906 -0.69747,-2.2508 -1.47852,-2.09375 -0.781,0.15702 -1.77158,-0.82225 -2.20117,-2.17578 -0.42958,-1.35351 -1.58301,-2.46094 -2.5625,-2.46094 -0.97949,0 -1.78125,-1.00565 -1.78125,-2.23633 0,-1.23069 -0.64798,-2.88626 -1.43945,-3.67773 -1.05714,-1.05719 -1.07157,-1.87904 -0.0586,-3.09961 1.93388,-2.33019 2.17237,-40.50531 0.3164,-50.6543 -1.02028,-5.57928 -2.10418,-9.79826 -4.13867,-11.71679 -6.52778,-6.15579 -31.71216,-21.86948 -37.03711,-25.59961 -8.69709,-6.09234 -15.21899,-8.53252 -28.50976,-8.72657 z m -10.40235,16.99805 c 4.02998,-0.0902 8.60275,0.8691 14.69531,1.30469 8.04992,0.57553 12.81795,2.39639 17.15625,14.1582 2.34622,6.36079 6.71397,16.0552 6.23633,24.56836 l -7.73633,-3.46289 c -0.56677,-8.83849 -4.51013,-21.28081 -11.16406,-26.19726 -4.33708,-3.20455 -15.20174,-7.8895 -14.47656,-6.24219 0.23454,0.53279 -0.40676,4.94596 2.66992,10.06445 5.55754,9.24567 5.59264,9.37634 5.35547,19.93359 -0.30558,13.60349 -4.60468,28.79192 -12.89062,45.55079 -7.58585,15.34281 -15.54526,26.3239 -28.91602,39.88671 -5.56071,5.64058 -6.26696,10.46485 -5.66406,10.46485 0.60292,0 4.50589,-1.92065 8.67382,-4.26758 7.0527,-3.9713 15.91318,-10.9519 22.36915,-17.49023 l 8.80468,3.94336 c -8.17428,11.23194 -22.06787,24.77199 -29.49023,28.5332 -4.49758,2.27908 -8.39989,3.18701 -14.40625,3.35156 -7.30344,0.20004 -8.34125,-0.73401 -14.29492,-4.29883 -8.75491,-5.24209 -11.32664,-9.22641 -13.14258,-21.73242 -1.89512,-13.05129 -5.43754,-31.43779 3.12891,-58.10547 4.63132,-14.41754 10.13504,-24.34042 23.02539,-36.71289 12.55175,-12.04748 20.63686,-15.17697 33.18554,-21.61523 2.23963,-1.14908 4.46287,-1.58064 6.88086,-1.63477 z m 49.65821,8.75586 c 1.15373,-0.0207 6.86916,3.8519 16.39062,11.11524 4.07395,3.10777 1.73058,2.08892 -6.55469,-2.84961 -8.48876,-5.05981 -11.05287,-7.16394 -10.00586,-8.21094 0.0361,-0.0361 0.093,-0.0533 0.16993,-0.0547 z m 1.39648,11.58399 c 1.48946,0.0194 4.85946,1.12469 9.32226,3.53515 3.74184,2.02106 7.69437,5.82074 10.05079,7.90039 -1.6346,-0.007 -4.23662,-0.11409 -7.90821,-2.4375 l -9.5039,-6.01562 c -3.05829,-1.9353 -3.4504,-3.00186 -1.96094,-2.98242 z m 0.8125,19.9082 c 1.19154,-0.0735 3.54782,1.9075 8.97266,4.57226 l 11.4082,5.60547 0.17969,3.24219 c 0.16575,4.01456 -0.42081,7.26675 -0.9336,7.21875 -0.90092,-0.0842 -11.25768,-4.78995 -19.50976,-7.9082 -3.89697,-1.47258 -2.5963,-1.14973 -1.86133,-6.79492 0.54757,-4.20581 0.69278,-5.87071 1.74414,-5.93555 z m -21.57983,1.90806 6.98046,3.125 c -5.7574,19.75268 -17.81652,45.06539 -29.15773,62.26042 l -8.20703,-3.67578 c -0.14506,-0.065 0.20971,-0.23692 0.3125,-0.35547 6.29871,-7.26486 21.47835,-30.62569 23.46608,-36.25833 4.61437,-13.0758 5.64861,-19.98753 6.60572,-25.09584 z m 18.28491,15.12319 c 2.91377,-0.13351 23.76261,8.69716 23.33984,9.99219 -0.47399,1.452 -4.41493,-0.32311 -5.35547,-1.26368 -0.38684,-0.38683 -4.53594,-2.09372 -9.2207,-3.79296 -8.66106,-3.1415 -10.39635,-3.50991 -9.05859,-4.84766 0.0519,-0.0519 0.15162,-0.0813 0.29492,-0.0879 z m -1.91016,9.91797 c 0.81488,-0.0244 3.15168,0.55802 7.48242,2.09765 4.93135,1.75312 9.79048,3.44116 10.79688,3.75196 1.61104,0.49753 2.06221,0.071 0.45117,1.08984 -2.27858,1.44103 -2.63234,1.43931 -4.9375,-0.0332 -1.02554,-0.65511 -4.79161,-1.80295 -8.36914,-2.55078 -6.58799,-1.37711 -6.86158,-1.9413 -5.75,-4.2461 0.0318,-0.0659 0.13812,-0.10375 0.32617,-0.10937 z m -1.18164,10.34765 c 2.1877,-0.074 5.48511,0.49973 7.51563,1.63868 1.59464,0.89445 1.56479,1.05168 -0.20704,1.08398 -1.13949,0.0208 -2.25841,0.5219 -2.48632,1.11523 -0.2279,0.59333 -1.6726,1.47092 -3.21094,1.94922 -2.61923,0.81438 -2.00479,0.50432 -1.49805,-2.70508 0.081,-0.51276 -0.412,-0.93164 -1.0957,-0.93164 -0.68371,0 -1.24219,-0.58612 -1.24219,-1.30078 0,-0.52863 0.91199,-0.80523 2.22461,-0.84961 z m 10.41602,12.72071 c 0.5699,-0.008 0.82077,0.40324 0.55664,0.91601 -0.26414,0.51279 -1.84845,3.85635 -3.52149,7.42969 -3.27685,6.99885 -5.48372,8.68453 -4.10547,3.13672 0.99846,-4.0191 5.58034,-11.46032 7.07032,-11.48242 z m 18.96484,2.17773 c 4.01205,0 3.25458,2.3762 -2.26367,7.09961 -4.76537,4.079 -11.99421,10.30434 -10.3125,13.02539 1.26472,2.04639 -1.37575,2.47305 -3.98633,0.64453 -2.68454,-1.88034 -2.51348,-5.16281 0.68945,-13.20703 1.62776,-4.08808 12.27916,-7.5625 15.87305,-7.5625 z m -44.85742,6.1582 c 0.60621,0 -2.37701,6.55624 -4.52539,9.94532 -1.08353,1.70927 -2.74394,4.6452 -3.68946,6.52539 -1.54392,3.07013 -3.78515,4.63896 -3.78515,2.64844 0,-0.89729 11.43679,-19.11915 12,-19.11915 z m 56.45117,10.91993 c 2.70113,0.0425 10.24446,2.69648 30.86523,10.22265 7.86265,2.86971 16.09206,5.75268 18.28711,6.40625 4.79324,1.42721 27.93174,10.07941 33.97266,12.70313 2.36562,1.02744 11.85393,4.21994 21.08398,7.09375 20.97197,6.52967 29.36817,9.69991 31.04688,11.72265 0.74017,0.89184 0.89653,2.67627 0.35937,4.09766 -0.91238,2.41429 -1.69369,2.22563 -18.97656,-4.58984 -9.91377,-3.90947 -23.61799,-9.2563 -30.45508,-11.88282 -14.42929,-5.54311 -39.85859,-15.39843 -60.29101,-23.36523 -7.86265,-3.06573 -17.23281,-6.61006 -20.82227,-7.87695 -3.58947,-1.26688 -6.52539,-2.69875 -6.52539,-3.18164 0,-0.84745 0.22729,-1.36893 1.45508,-1.34961 z m -52.22461,9.27343 c 0.68663,-0.0492 2.06145,0.74212 4.51367,2.48829 2.99001,2.12905 3.38933,2.98247 2.32422,4.97265 -1.37973,2.57806 -1.47265,2.59816 -6.17187,1.29102 -4.53633,-1.26185 -4.04851,-4.55227 0.62304,-4.20508 3.54344,0.26338 3.58923,0.20669 0.93164,-1.12305 -1.53834,-0.76969 -2.79687,-1.8739 -2.79687,-2.45312 0,-0.60922 0.16419,-0.94117 0.57617,-0.97071 z m -16.91406,1.31836 c 0.74684,0.003 0.49226,1.28256 -1.36524,3.76758 -2.47373,3.30946 -6.68025,6.41928 -6.59765,4.87695 0.0278,-0.51858 1.69397,-2.86661 3.70312,-5.21679 1.97282,-2.30765 3.55818,-3.43074 4.25977,-3.42774 z m 98.93945,6.9043 c 0.81622,-0.0473 4.34282,1.09977 8.53711,2.80664 4.79346,1.95071 13.88243,5.49663 20.19922,7.87891 6.3168,2.38225 21.5546,8.31565 33.86133,13.18554 12.30673,4.86991 23.30004,9.05266 24.42969,9.29493 1.12961,0.24228 3.64669,1.25466 5.59374,2.25 1.94705,0.99535 5.38823,2.20688 7.64649,2.69335 2.2801,0.4912 3.89333,1.52616 3.62695,2.32618 -0.82599,2.48105 -3.73729,2.03215 -12.08398,-1.86328 -4.44412,-2.07406 -10.31792,-4.50656 -13.05274,-5.40625 -13.64364,-4.4883 -30.66401,-11.20421 -50.3457,-19.86524 -11.9649,-5.26524 -23.29169,-10.20348 -25.17187,-10.97265 -1.88021,-0.76921 -3.41993,-1.77322 -3.41993,-2.23243 0,-0.0574 0.0631,-0.0889 0.17969,-0.0957 z m 89.41602,4.52148 c 1.96611,-0.0108 9.42405,2.05565 19.12109,4.91993 6.15338,1.81754 10.9707,3.80461 10.9707,4.4414 0,1.86056 -1.7132,1.18995 -4.38281,-0.66797 -1.36743,-0.95166 -4.44296,-2.06745 -6.83594,-2.48047 -6.5761,-1.13489 -17.87905,-4.48968 -19.16211,-5.6875 -0.38226,-0.35685 -0.26145,-0.52237 0.28907,-0.52539 z m -179.66993,2.04297 c 3.47942,-0.01 7.93563,2.12077 6.38086,3.99414 -1.42155,1.71289 -3.39681,1.30549 -7.74218,0.16993 -2.65194,-0.69303 -3.94768,-1.34774 -1.53321,-3.35157 0.68393,-0.5676 1.73474,-0.80933 2.89453,-0.8125 z m -7.89453,10.5918 c 0.57176,0.005 1.1749,0.14256 1.86133,0.39648 2.8113,1.03995 2.78099,1.11229 -1.50586,3.76172 -4.86528,3.0069 -5.50517,3.16934 -6.45117,1.63868 -0.36114,-0.58432 0.63645,-2.27706 2.2168,-3.76172 1.51379,-1.42214 2.62104,-2.04718 3.8789,-2.03516 z m 225.79297,0.64453 c 0.0584,-4e-5 0.111,0.006 0.15625,0.0215 0.77549,0.25849 -1.89206,2.07009 -4.25195,4.64648 -3.98747,4.35331 -5.63281,6.39566 -5.63281,4.11133 0,-1.71075 7.91703,-8.77805 9.72851,-8.7793 z m 20.375,4.42969 c 1.01564,0.0287 1.96078,0.50307 2.96094,1.4082 4.02892,3.6461 3.69003,3.9247 -1.38477,2.36719 -4.01486,-1.23217 -4.67349,-1.0491 -8.12109,2.25391 -5.4515,5.22287 -9.99757,15.38464 -10.78906,24.11328 -0.57494,6.3408 -0.82957,9.42773 0.83594,9.42773 1.08769,0 4.88531,-3.77191 7.08007,-7.01953 5.03637,-7.45241 4.04087,-7.86147 4.93946,-6.96289 1.02224,1.02223 -3.97026,9.24248 -8.66016,14.25781 -6.53587,6.98893 -6.72285,5.72163 -5.75195,-8.14453 0.97761,-13.96178 2.16835,-17.44376 9.7832,-25.26367 4.29138,-4.40694 6.87303,-6.50059 9.10742,-6.4375 z m -258.90234,6.77734 c 1.1965,-0.0104 2.17578,0.54089 2.17578,1.22461 0,1.51611 -0.14033,1.51611 -2.48633,0 -1.59354,-1.02984 -1.54857,-1.20831 0.31055,-1.22461 z m -5.42774,3.17969 c 0.39697,-0.018 0.8759,0.0358 1.38868,0.16992 1.36742,0.35759 2.48632,0.86485 2.48632,1.12695 0,0.26212 -1.1189,0.47657 -2.48632,0.47657 -1.36741,0 -2.48633,-0.50726 -2.48633,-1.12696 0,-0.3873 0.43604,-0.61648 1.09765,-0.64648 z m 227.78125,12.17383 -0.12695,8.81054 c -0.10049,6.95245 0.43858,9.77014 2.5586,13.36329 3.12297,5.29308 2.97762,5.63601 -0.72266,1.69726 -3.52322,-3.75031 -4.3596,-8.66252 -2.90039,-17.0332 z"
       sodipodi:nodetypes="ssssscssssccccssssssssccccccsssssssscccsssssssssssssssssssssccccssssssssccsssssssscssscsscccssccccssscccccscccssscssssssssssssssssscssscsssssssssssssssssssssssssssssssscsssccsssssscscssscsssscsscsssccsssscscssssssscssscssscsscssssssccssccsscc" /><g
       id="text1"
       inkscape:label="Text"
       style="opacity:1"><path
         id="path3"
         style="font-size:77.6357px;font-family:'New Rocker';-inkscape-font-specification:'New Rocker';letter-spacing:0.55px;baseline-shift:baseline;white-space:pre;display:inline;overflow:visible;vector-effect:none;enable-background:accumulate;stop-color:#000000;stop-opacity:1;fill:none;stroke:#000000;stroke-opacity:1"
         d="M 188.75391 352.79883 L 187.36328 353.89844 C 186.14025 354.86667 184.81146 355.88835 183.37891 356.96289 C 182.3972 357.69008 181.47438 358.35801 180.54492 359.0332 C 179.58345 358.36117 178.62668 357.69437 177.61328 356.9707 C 176.18606 355.90029 174.89173 354.88508 173.73047 353.92578 L 172.37891 352.80859 L 171.06055 353.96289 C 170.21414 354.7035 169.57242 355.29087 169.09766 355.76562 C 168.80474 356.05856 168.25401 356.55993 167.49609 357.2168 L 165.82422 358.66602 L 167.38867 360.23242 C 169.17936 362.02311 171.05087 363.97106 173.00195 366.07617 L 173.01953 366.09375 L 173.03906 366.11328 C 174.52935 367.64178 176.00619 369.24432 177.4707 370.91992 L 177.28125 377.15234 C 174.66568 378.21985 172.45232 379.01773 170.66797 379.54492 C 168.54524 380.1721 166.61852 380.4707 164.88672 380.4707 L 161.99609 380.4707 L 162.93945 383.20312 C 163.40373 384.54951 163.73605 386.03274 163.92773 387.66211 L 163.92969 387.69336 L 163.93555 387.72266 C 164.1753 389.35294 164.30078 391.30193 164.30078 393.55469 C 164.30078 393.97616 164.29521 394.42616 164.28516 394.90234 L 157.1582 394.90234 L 157.1582 375.00391 L 154.17578 376.49609 C 152.59673 377.28562 150.65045 377.96508 148.33984 378.50586 L 148.33594 378.50781 L 148.33008 378.50781 C 146.06571 379.04929 143.75158 379.39492 141.38281 379.54297 L 139.45117 379.66406 L 139.45117 384.19141 L 140.98047 384.59961 C 141.55581 384.75304 141.86126 384.94355 141.94141 385.01367 L 142.04297 385.10156 L 142.1543 385.17773 C 142.1952 385.20493 142.31272 385.29237 142.46094 385.67773 C 142.59644 386.03001 142.74552 386.74664 142.79102 387.74805 L 142.79297 387.79492 L 142.79883 387.8418 C 142.89363 388.88515 142.94531 390.28261 142.94531 392.00195 L 142.94531 401.21289 L 137.83789 403.44727 L 136.35156 402.31641 L 136.35156 389.20703 L 136.35156 385.75391 C 136.39996 384.81425 136.42348 383.94115 136.42578 383.125 L 136.42578 383.11914 C 136.47598 382.31606 136.52614 381.56616 136.57617 380.86328 C 136.67839 380.14178 136.7798 379.361 136.88086 378.50195 L 137.31055 374.84961 L 133.9707 376.39062 C 133.42733 376.64141 132.58834 376.95604 131.51367 377.29883 C 130.42093 377.59592 129.2282 377.89325 127.92773 378.19336 C 126.6221 378.49466 125.31678 378.77187 124.01172 379.02344 C 122.71056 379.2231 121.53888 379.37269 120.50977 379.4707 L 118.80859 379.63281 L 118.45898 383.47656 L 119.56836 384.14258 C 120.15417 384.49407 120.55731 384.86287 120.8418 385.24219 L 120.90039 385.32031 L 120.9668 385.39258 C 121.24604 385.69975 121.53754 386.18291 121.7793 386.9082 L 121.7832 386.92578 L 121.79102 386.94336 C 122.01997 387.59207 122.20736 388.51397 122.30078 389.68164 L 122.30273 389.72266 L 122.30859 389.76367 C 122.4507 390.94789 122.52734 392.40046 122.52734 394.09961 C 122.52734 394.31853 122.52754 394.53936 122.52539 394.76172 L 111.125 394.76172 C 111.19708 394.57205 111.27075 394.38316 111.3457 394.19531 C 112.03529 392.59214 112.84581 391.39301 113.73633 390.54297 L 114.6582 389.66406 L 114.2832 388.44727 C 113.87897 387.13352 113.63258 386.18525 113.56445 385.81055 C 113.48645 385.38177 113.44336 384.88358 113.44336 384.31641 C 113.44336 381.50394 113.7156 379.00324 114.23828 376.8125 C 114.82857 374.50546 115.55754 372.50017 116.4082 370.79883 L 116.41406 370.78711 L 116.41797 370.77734 C 117.29138 368.98199 118.24624 367.46245 119.26758 366.20898 C 120.35473 364.87475 121.37695 363.78555 122.31055 362.94531 L 122.33008 362.92773 L 122.35156 362.9082 C 123.31865 361.98947 124.16039 361.32139 124.81836 360.91016 C 125.63667 360.39872 126.22788 360.04083 126.53516 359.86523 L 133.27148 356.01562 L 125.51172 356.01562 C 123.9644 356.01562 122.57452 356.1228 121.32227 356.36133 C 120.22731 356.56989 119.18209 356.80653 118.17773 357.06836 L 115.22852 357.68945 C 114.40914 357.86196 113.46354 357.95703 112.39258 357.95703 L 110.30078 357.95703 C 109.53937 357.90883 108.69997 357.83544 107.78711 357.74023 C 106.9384 357.59708 106.06074 357.40898 105.15234 357.16992 C 104.31695 356.95009 103.53564 356.64503 102.79688 356.25391 L 100.15039 359.26367 C 100.73854 360.09689 101.33199 361.01164 101.92969 362.00781 L 101.94922 362.04102 L 101.96875 362.07031 C 102.45345 362.816 102.64453 363.47619 102.64453 364.20898 L 102.64453 364.9082 C 102.64453 364.9436 102.63852 365.04791 102.60742 365.20312 L 102.60742 365.20703 L 94.646484 405.92578 L 93.757812 406.86328 L 92.761719 405.81445 L 83.039062 365.15625 C 83.004635 364.98837 82.967409 364.83699 82.931641 364.68164 L 82.931641 364.20898 C 82.931641 363.38373 83.084551 362.59526 83.40625 361.79102 L 83.412109 361.77539 L 83.417969 361.75977 C 83.775861 360.8203 84.213539 359.99322 84.728516 359.26367 L 87.613281 355.17773 L 82.6875 356.04688 C 81.852517 356.19424 81.114686 356.31743 80.478516 356.41602 C 79.670328 356.49084 78.875171 356.70162 78.109375 357.01562 C 77.33286 357.30287 76.58229 357.71391 75.816406 358.24414 L 75.785156 358.26758 L 75.753906 358.29102 C 75.453892 358.51603 75.065863 358.91682 74.738281 359.20312 C 74.677941 359.14763 74.625441 359.08419 74.564453 359.0293 C 73.787393 358.32994 72.84928 357.82214 71.759766 357.39844 C 70.614851 356.95319 69.269534 356.65244 67.685547 356.43164 C 66.013256 356.14526 64.013731 356.01564 61.619141 356.01562 L 61.619141 360.13672 C 61.698801 360.13672 62.25643 360.2822 63.146484 361.3418 C 64.083781 362.45762 65.071783 364.02997 66.054688 366.04492 L 66.064453 366.0625 L 66.072266 366.08008 C 67.106784 368.09986 68.109669 370.47453 69.068359 373.19922 L 69.074219 373.2168 L 69.080078 373.23242 C 70.100257 375.98691 71.071515 378.87286 71.992188 381.89062 L 71.992188 381.89453 L 71.994141 381.90039 C 72.912963 384.86104 73.729263 387.81894 74.443359 390.77734 L 74.447266 390.79492 L 74.451172 390.81055 C 75.221444 393.78893 75.8886 396.58312 76.451172 399.19141 L 76.451172 399.19531 L 76.453125 399.19922 C 77.01581 401.75687 77.447998 403.99747 77.75 405.91016 C 78.047582 407.79485 78.177027 409.15299 78.181641 409.86719 L 76.816406 411.23047 L 79.142578 412.57422 C 81.390843 413.87322 83.592505 415.35011 85.75 417.00586 L 85.771484 417.02148 L 85.792969 417.03711 C 87.505849 418.28284 89.262413 420.05599 91.021484 421.91406 L 89.470703 423.79688 L 98.394531 423.79688 L 96.615234 421.77539 C 97.816031 420.40414 99.047756 419.01352 100.69336 417.40625 L 100.69727 417.40234 C 102.76093 415.4375 105.04608 413.6917 107.5625 412.16211 L 108.55273 411.56055 L 108.55273 410.40234 C 108.55273 410.23916 108.49731 410.08799 108.47461 409.92773 L 108.47461 409.23828 C 108.47461 408.20336 108.54811 406.78046 108.69727 405.0293 C 108.89444 403.25849 109.21494 401.43099 109.66211 399.54297 C 109.68156 399.46083 109.70078 399.3787 109.7207 399.29688 L 122.36133 399.29688 C 122.30773 400.82212 122.2106 402.25451 122.07227 403.5918 C 121.92173 404.99504 121.74753 406.21023 121.55469 407.22266 L 121.54688 407.26172 L 121.54102 407.30078 C 121.44756 407.92374 121.2145 408.41343 121.21484 408.48633 L 121.21484 408.48828 L 121.21484 408.49023 L 121.2168 408.49023 L 121.2168 408.49219 L 121.21875 408.49219 L 121.2207 408.49219 L 121.22266 408.49219 L 121.22461 408.49219 C 121.24685 408.48211 121.30749 408.40959 121.42578 408.26172 L 119.90234 410.16602 L 122.0332 411.34961 C 122.93368 411.84988 123.72558 412.31954 124.4043 412.75586 L 124.47461 412.80273 L 124.54883 412.8418 C 125.2455 413.21335 125.91942 413.63134 126.57227 414.09766 L 126.59961 414.11719 L 126.62695 414.13477 C 127.32418 414.59959 128.03292 415.1422 128.75 415.76367 L 128.80469 415.81055 L 128.86328 415.85547 C 129.62546 416.4271 130.51433 417.16524 131.51562 418.06641 L 132.96875 419.375 L 134.35156 417.99219 C 135.14932 417.19443 135.91619 416.4781 136.65039 415.8418 L 136.6543 415.83789 L 136.6582 415.83398 C 137.436 415.15341 138.26455 414.49438 139.14648 413.85742 C 140.01938 413.227 141.00218 412.58837 142.09375 411.94336 C 142.33565 411.80042 142.6848 411.62527 142.94531 411.47656 L 142.94531 415.24414 L 142.94531 415.27344 C 142.99731 417.14303 143.04924 418.70257 143.10156 419.95898 L 143.10352 419.99805 L 143.10742 420.03906 C 143.21052 421.32753 143.28717 422.35605 143.33789 423.11719 L 143.3418 423.17578 L 143.34961 423.23438 C 143.37521 423.43914 143.40213 423.59895 143.42773 423.79492 L 140.20898 424.82422 C 139.29713 424.14914 138.38114 423.47569 137.25195 422.78906 C 137.24795 422.78706 137.24393 422.7852 137.24023 422.7832 C 135.80581 421.88041 134.34539 421.02759 132.85742 420.23047 C 131.36022 419.42839 129.95784 418.75391 128.64062 418.20508 L 128.61914 418.19531 L 128.59961 418.1875 C 127.32949 417.69047 126.39006 417.36976 125.39453 417.2793 L 124.46094 417.19336 L 123.7832 417.8418 C 122.40366 419.16135 121.22053 420.79678 120.20508 422.71484 L 120.1875 422.74609 L 120.17188 422.77734 C 119.20598 424.76594 118.50512 426.93555 118.06055 429.26953 L 117.59375 431.7168 L 120.08398 431.7168 C 122.63721 431.7168 125.03772 432.16159 127.33594 433.05273 C 129.64598 433.94847 132.24528 435.43083 135.08789 437.52539 L 136.48438 438.55469 L 137.73633 437.35352 C 138.92371 436.21364 140.29296 435.13293 141.84375 434.11328 C 143.41762 433.13049 145.00989 432.271 146.62305 431.53711 C 148.28395 430.8049 149.90883 430.22597 151.49805 429.79102 C 153.06329 429.4138 154.47443 429.23242 155.71875 429.23242 L 158.32812 429.23242 L 157.72266 426.69336 C 157.52361 425.85737 157.33712 424.27325 157.23633 422.12305 C 157.18553 419.97777 157.1582 417.28805 157.1582 414.05078 L 157.1582 399.4375 L 164.05273 399.4375 C 163.99582 400.14939 163.92563 400.94602 163.84375 401.82617 L 163.56836 404.79297 L 163.92969 404.69336 C 163.02128 405.91977 162.26249 407.33361 161.68945 409.05273 L 161.68359 409.07031 L 161.67773 409.08984 C 161.11532 410.88955 160.77104 412.68369 160.65625 414.46289 L 160.52344 416.53906 L 162.60156 416.65234 C 164.46962 416.75332 166.06719 416.90528 167.37891 417.09961 L 167.41602 417.10352 L 167.45312 417.10742 C 168.75623 417.25221 169.85705 417.46805 170.73828 417.73242 L 170.7832 417.74609 L 170.83008 417.75781 C 171.72412 417.98132 172.42909 418.26054 172.94727 418.55664 L 172.97461 418.57227 L 173 418.58594 C 173.63167 418.92283 174.18457 419.31323 174.67383 419.76172 L 175.89844 420.88477 L 177.25391 419.92773 C 177.96532 419.42556 178.91222 418.92105 180.0918 418.44922 C 181.28457 417.97211 182.58726 417.56023 184.00195 417.21875 C 185.42189 416.87601 186.92431 416.60444 188.50977 416.40625 C 190.08474 416.20938 191.63064 416.11133 193.14648 416.11133 L 195.70312 416.11133 L 195.16016 413.61328 C 194.94728 412.63405 194.7609 410.97226 194.66016 408.75781 L 194.66016 408.75586 C 194.55841 406.46575 194.50781 403.85696 194.50781 400.93164 C 194.50781 400.23019 194.51111 399.5633 194.51758 398.93164 L 199.70117 398.93164 C 199.68307 399.88461 199.63532 400.91831 199.55859 402.03125 L 199.55664 402.06641 L 199.55469 402.10156 C 199.50539 403.53078 199.38384 404.93224 199.1875 406.30664 L 199.18164 406.33789 L 199.17969 406.37109 C 199.03452 407.67763 198.81679 408.89861 198.5332 410.03711 C 198.25518 411.10284 197.93584 411.86671 197.68555 412.27344 L 195.75391 415.41211 L 199.44141 415.41211 C 200.18225 415.41211 201.24176 415.52372 202.55859 415.76758 L 202.56641 415.76758 L 202.57227 415.76953 C 203.93203 416.01235 205.32516 416.35273 206.75 416.79492 L 206.78906 416.80859 L 206.82812 416.81836 C 208.28722 417.20745 209.6941 417.692 211.05078 418.27344 C 212.38842 418.84671 213.46848 419.452 214.28906 420.05664 L 214.83398 420.45898 L 216.17188 420.45898 L 216.70898 420.07617 C 217.25715 419.68463 218.09439 419.22441 219.17578 418.75195 C 220.35693 418.31059 221.58646 417.89137 222.87109 417.49609 L 222.90625 417.48438 L 222.93945 417.47266 C 224.19597 417.03771 225.44578 416.70243 226.69141 416.46289 L 226.72852 416.45508 L 226.76562 416.44727 C 228.05304 416.15017 229.14435 415.95849 230.01172 415.86719 L 232.64453 415.58984 L 231.73047 413.10547 C 231.41851 412.25872 231.20248 411.4252 231.06836 410.59766 C 230.97906 409.67882 230.92578 408.36733 230.92578 406.67578 L 230.92578 404.9668 C 230.92578 404.40293 230.94909 403.83986 230.99609 403.27539 L 231.24609 400.26758 L 228.35352 401.12891 C 225.71457 401.91498 223.64601 402.94155 222.2168 404.51367 L 222.19922 404.5332 L 222.18164 404.55273 C 221.36429 405.49914 220.81995 406.62535 220.40234 407.81445 C 220.07256 407.78425 219.83148 407.76962 219.45898 407.73242 C 219.45298 407.7318 219.44996 407.73147 219.44336 407.73047 C 218.45569 407.58255 217.4459 407.43299 216.41211 407.28516 C 215.3504 407.08274 214.33903 406.88136 213.38086 406.67969 L 213.37891 406.67969 L 213.37695 406.67773 L 213.375 406.67773 C 213.14799 406.62693 213.04254 406.57235 212.8418 406.51953 C 212.9118 405.82839 212.97038 405.21524 213.05664 404.41016 C 213.15668 403.47655 213.1994 402.5171 213.25781 401.56445 C 215.838 401.15243 218.44001 400.75356 221.12891 400.41211 L 221.14453 400.41016 L 221.16016 400.4082 C 224.38157 399.948 227.54964 399.59122 230.66406 399.33594 L 233.38281 399.11328 L 233.27539 398.82617 L 238.37891 398.82617 L 238.37891 415.63477 L 239.51758 416.20508 C 240.31498 416.60378 241.33329 417.13887 242.5625 417.80469 C 243.77468 418.46129 244.96062 419.14128 246.12109 419.84766 L 247.42383 420.64062 L 248.5625 419.62891 C 248.89378 419.33444 249.46062 418.91621 250.22656 418.4375 C 250.99578 417.95674 251.81829 417.4971 252.69531 417.05859 L 252.73633 417.03906 L 252.77539 417.01758 C 253.66738 416.52203 254.58524 416.0507 255.5293 415.60352 C 256.45792 415.16364 257.3248 414.80265 258.12695 414.51953 L 259.50195 414.0332 L 259.50195 409.53516 L 257.54883 409.43164 C 256.03355 409.35194 254.95217 408.86762 253.94727 407.86914 C 253.13583 407.0168 252.5918 405.6091 252.5918 403.25977 L 252.5918 398.38477 L 264.4707 398.38477 L 264.4707 409.78125 C 264.4707 411.00699 264.2974 411.87269 264.10938 412.31836 C 263.92136 412.76402 263.85109 412.76934 263.71875 412.81836 L 262.375 413.31641 L 262.375 417.97461 L 283.10938 417.97461 L 283.10938 412.83008 L 281.36719 412.55859 C 280.02529 412.34892 279.41018 411.95647 279.1875 411.72266 C 278.99687 411.44134 278.68359 410.61057 278.68359 409.08203 L 278.68359 399.34961 L 296.12891 399.34961 C 296.19653 400.71721 296.23047 401.99535 296.23047 403.18164 C 296.23047 406.04745 296.04802 408.34652 295.72461 410.00977 L 295.7207 410.03125 L 295.7168 410.05469 C 295.44473 411.64179 294.937 412.41477 294.85352 412.48633 L 293.74805 415.95703 L 296.59766 416.07227 C 296.72698 416.04637 296.84923 416.0332 296.9707 416.0332 L 297.14062 416.0332 L 297.30859 416.00586 C 297.50933 415.97246 297.70622 415.95703 297.90234 415.95703 C 298.82571 415.95703 300.11092 416.07214 301.69922 416.32031 C 303.29335 416.5694 304.88889 416.89361 306.48633 417.29297 C 308.0857 417.69281 309.54782 418.11594 310.87891 418.55859 C 312.14759 419.03225 312.99417 419.50624 313.21094 419.68359 L 314.6543 420.86328 L 315.97266 419.54492 C 316.97861 418.53897 318.11378 417.57243 319.38086 416.64648 L 319.40234 416.63086 L 319.42188 416.61523 C 320.68156 415.64626 321.98288 414.80375 323.33008 414.08203 C 324.69528 413.35068 326.05167 412.74661 327.39844 412.26562 C 328.72618 411.79143 329.95103 411.49517 331.06641 411.36133 L 333.22852 411.10156 L 332.84961 408.95703 C 332.30602 405.87669 331.92458 402.74016 331.70508 399.54688 L 338.45117 399.54688 C 338.51529 400.79015 338.54883 402.10594 338.54883 403.49219 C 338.54883 403.9991 338.52451 404.66215 338.47461 405.46094 L 338.4707 405.52539 L 338.4707 405.58789 C 338.4707 406.31848 338.44608 407.10872 338.39648 407.95312 L 338.39258 408.01172 L 338.39258 408.07227 C 338.39258 408.85747 338.36746 409.64422 338.31836 410.42969 L 338.32031 410.41992 C 338.26911 411.18722 338.21853 411.87544 338.16797 412.48242 L 338.01953 414.24609 L 339.74219 414.6582 C 342.00328 415.1989 344.18532 415.93417 346.29688 416.86719 C 348.42237 417.80636 350.16351 418.78152 351.51172 419.75781 L 352.05273 420.14844 L 354.20117 420.14844 L 364.88477 411.87695 L 368.84961 399.77539 L 374.11523 399.77539 C 374.12069 399.8131 374.12565 399.8505 374.13086 399.88867 L 374.13086 399.89648 L 374.13281 399.90234 C 374.27254 400.88045 374.34375 401.94915 374.34375 403.10547 C 374.34375 405.14141 374.29325 407.17683 374.19141 409.21289 C 374.09541 411.07713 373.80435 412.55555 373.39453 413.62109 L 372.33789 416.37109 L 375.2832 416.42188 C 378.15226 416.47138 380.65332 416.79336 382.7832 417.36133 L 382.78906 417.36328 L 382.79492 417.36523 C 384.99873 417.94014 386.98205 418.76966 388.76953 419.85156 L 390.28711 420.76953 L 394.91016 415.20703 C 395.17309 415.61485 395.33495 416.03646 395.63281 416.43945 C 396.63496 417.79529 397.78901 418.9316 399.0957 419.80273 L 401.03906 421.09766 L 402.08203 419.00977 C 402.31067 418.55249 402.71352 417.91257 403.28516 417.15039 C 403.84443 416.40469 404.47785 415.67645 405.18945 414.96484 C 405.91725 414.23705 406.63866 413.5883 407.34961 413.01953 L 407.35547 413.01562 L 407.36328 413.00977 C 408.06345 412.44087 408.65989 412.10724 409.08594 411.95508 L 410.45312 411.4668 L 410.45312 407.52148 L 408.85547 407.15234 C 408.41939 407.05171 408.13986 406.91668 407.92383 406.78516 C 407.89273 406.75496 407.73587 406.59018 407.57031 406.07227 C 407.37046 405.3875 407.17671 404.34055 407.03125 403.00195 C 406.97075 402.11493 406.92793 401.02832 406.9043 399.74219 L 415.26758 399.74219 L 415.26758 415.63477 L 416.40625 416.20508 C 417.20365 416.60378 418.22197 417.13887 419.45117 417.80469 C 420.66335 418.46129 421.8493 419.14128 423.00977 419.84766 L 424.3125 420.64062 L 425.45117 419.62891 C 425.78245 419.33444 426.34929 418.91621 427.11523 418.4375 C 427.88444 417.95674 428.70696 417.4971 429.58398 417.05859 L 429.62305 417.03906 L 429.66211 417.01758 C 430.55408 416.52203 431.47196 416.0507 432.41602 415.60352 C 433.34464 415.16364 434.21348 414.80265 435.01562 414.51953 L 436.39062 414.0332 L 436.39062 409.53516 L 434.4375 409.43164 C 432.92223 409.35194 431.84085 408.86762 430.83594 407.86914 C 430.02451 407.0168 429.48047 405.6091 429.48047 403.25977 L 429.48047 399.36133 L 440.48633 399.36133 C 440.46358 400.19338 440.42081 401.08337 440.35547 402.03125 L 440.35156 402.06641 L 440.35156 402.10156 C 440.30226 403.53078 440.17877 404.93224 439.98242 406.30664 L 439.97852 406.33789 L 439.97461 406.37109 C 439.82905 407.68112 439.61088 408.90579 439.32617 410.04688 C 439.04902 411.10526 438.73161 411.8685 438.48242 412.27344 L 436.54883 415.41211 L 440.23633 415.41211 C 440.97718 415.41211 442.03864 415.52372 443.35547 415.76758 L 443.36133 415.76758 L 443.36719 415.76953 C 444.72697 416.01235 446.12009 416.35273 447.54492 416.79492 L 447.58398 416.80859 L 447.625 416.81836 C 449.08408 417.20745 450.48902 417.692 451.8457 418.27344 C 453.18334 418.84671 454.2634 419.452 455.08398 420.05664 L 455.63086 420.45898 L 456.9668 420.45898 L 457.50391 420.07617 C 458.0526 419.68425 458.8917 419.22294 459.97461 418.75 C 461.15457 418.30917 462.38473 417.89094 463.66797 417.49609 L 463.70117 417.48438 L 463.73633 417.47266 C 464.99285 417.03771 466.24266 416.70243 467.48828 416.46289 L 467.52539 416.45508 L 467.5625 416.44727 C 468.84991 416.15017 469.94122 415.95849 470.80859 415.86719 L 473.44141 415.58984 L 472.52539 413.10547 C 472.21223 412.25548 471.99725 411.41855 471.86328 410.58789 C 471.77438 409.66929 471.7207 408.36312 471.7207 406.67578 L 471.7207 404.9668 C 471.7207 404.40293 471.74402 403.83986 471.79102 403.27539 L 472.04102 400.26758 L 469.15039 401.12891 C 466.51143 401.91498 464.44093 402.94154 463.01172 404.51367 L 462.99414 404.5332 L 462.97656 404.55273 C 462.15921 405.49914 461.61488 406.62535 461.19727 407.81445 C 460.86952 407.78445 460.62971 407.76932 460.25977 407.73242 C 459.26349 407.58317 458.2444 407.43237 457.20117 407.2832 C 456.14176 407.08119 455.13205 406.88096 454.17578 406.67969 L 454.17383 406.67969 L 454.17188 406.67969 L 454.16992 406.67773 C 453.94347 406.62703 453.83899 406.57221 453.63867 406.51953 C 453.70867 405.82842 453.76727 405.2152 453.85352 404.41016 C 453.95356 403.47656 453.99432 402.51708 454.05273 401.56445 C 456.63292 401.15243 459.23494 400.75356 461.92383 400.41211 L 461.93945 400.41016 L 461.95508 400.4082 C 465.1765 399.948 468.34455 399.59122 471.45898 399.33594 L 474.17773 399.11328 L 473.99023 398.61328 L 477.69727 398.61328 L 477.69727 408.77148 C 477.69727 410.61855 477.39742 412.14056 476.85742 413.38672 C 476.34066 414.57923 475.70031 415.25043 474.79883 415.70117 L 473.4707 416.36523 L 474.01172 420.14844 L 475.79883 420.14844 C 477.62613 420.14844 479.4726 419.91843 481.32812 419.46875 L 481.33008 419.46875 C 482.72705 419.1395 483.98979 418.68226 485.25 418.22266 C 485.51757 418.45503 485.77095 418.74537 486.05469 418.93555 C 486.65643 419.35495 487.30392 419.73887 487.99805 420.08594 L 488.02539 420.10156 L 488.05469 420.11523 C 488.76186 420.44162 489.58558 420.78483 490.51758 421.14844 C 491.41657 421.54842 492.55254 422.07905 493.92578 422.74023 L 495.53906 423.51758 L 497.82227 420.0918 L 496.91211 418.91992 C 495.84035 417.54194 494.9527 416.34901 494.25586 415.35352 L 494.24023 415.33398 L 494.22656 415.3125 C 493.61419 414.48143 493.14879 413.62561 492.80469 412.73242 C 492.50461 411.82101 492.27116 410.73928 492.13086 409.47656 C 491.98823 408.1929 491.91016 406.49561 491.91016 404.42383 L 491.91016 366.84961 C 491.91016 364.25893 492.08778 361.99908 492.42188 360.08203 C 492.78742 358.27412 493.39353 356.96487 494.15039 356.05664 L 491.68164 352.87695 C 489.5875 353.87416 487.63984 354.63711 485.84766 355.16992 L 485.83984 355.17188 L 485.83203 355.17383 C 484.13705 355.69174 482.55717 355.9375 481.07812 355.9375 C 479.85874 355.9375 478.87164 355.77656 478.10938 355.50977 L 473.14844 353.77344 L 475.60742 358.41797 C 476.03676 359.22894 476.3882 360.00462 476.66406 360.74023 C 476.93001 361.44942 477.12807 362.1802 477.26172 362.9375 L 477.27344 362.99414 L 477.28516 363.05078 C 477.4597 363.79252 477.57475 364.62734 477.62109 365.55469 C 477.67069 366.54708 477.69727 367.67885 477.69727 368.94531 L 477.69727 394.07617 L 472.49023 394.07617 C 472.47464 394.00969 472.46074 393.94286 472.44531 393.875 C 472.20267 392.8074 472.00679 391.68317 471.85938 390.50391 C 471.70761 389.28969 471.58163 388.07714 471.48047 386.86328 L 471.48242 386.86914 C 471.38252 385.62093 471.33203 384.48438 471.33203 383.46289 C 471.33203 382.14176 471.40933 381.07542 471.53711 380.30859 L 471.92383 377.99023 L 469.57422 377.91016 C 466.56598 377.80818 463.53173 377.62955 460.4707 377.375 C 457.40926 377.06886 454.85195 376.71283 452.82031 376.31641 L 451.74414 376.10547 L 450.96875 376.88086 C 449.24744 378.60216 447.52365 380.00725 445.80469 381.10547 L 445.79297 381.11328 L 445.78125 381.11914 C 444.20176 382.15709 442.45576 382.85516 440.48047 383.22266 L 438.95703 383.50586 C 439.26287 383.11257 439.5356 382.66482 439.86719 382.3125 L 440.42773 381.71875 L 440.42773 378.5293 L 429.48047 378.5293 L 429.48047 376.47461 C 429.48047 376.08508 429.50554 375.31708 429.55664 374.24414 L 429.55664 374.24219 L 429.55664 374.24023 C 429.60654 373.14272 429.68164 372.0181 429.78125 370.86719 C 429.93338 369.65198 430.08483 368.51173 430.23633 367.45117 C 430.37995 366.44586 430.56405 365.7383 430.65234 365.51758 L 432.75 360.26953 L 427.76562 362.93555 C 425.59841 364.09477 423.57247 365.04341 421.69336 365.78516 C 419.94133 366.47675 418.00919 366.90226 415.86914 367.04492 L 411.93164 367.30664 L 414.37109 370.35547 C 414.32179 370.29429 414.28538 370.25096 414.27148 370.24023 L 414.26953 370.24023 L 414.26758 370.24023 L 414.26562 370.24023 L 414.26367 370.24023 L 414.26367 370.24219 L 414.26367 370.24414 C 414.26364 370.2884 414.43314 370.62816 414.52344 371.10938 L 414.52539 371.12305 L 414.5293 371.13477 C 414.66902 371.83343 414.79047 372.65307 414.88867 373.58594 L 414.88867 373.5918 L 414.88867 373.59766 C 414.98807 374.49179 415.06366 375.38568 415.11328 376.2793 L 415.11719 376.3418 L 415.12305 376.40625 C 415.22215 377.24887 415.26562 377.86312 415.26562 378.10547 L 415.26562 379.57617 C 413.61755 380.94317 411.91978 382.01693 410.13867 382.70508 L 408.82031 383.21484 L 408.82031 381.79102 L 406.75977 381.79102 C 404.36272 381.79102 402.43562 381.38956 400.91602 380.67773 C 399.37771 379.88066 397.81332 378.65697 396.24609 376.94727 L 395.12109 375.71875 L 393.68555 376.56055 C 392.45045 377.28457 390.51324 378.02453 387.93945 378.66797 C 385.46516 379.28654 382.415 379.61719 378.8125 379.61719 L 378.05273 379.61719 C 377.58674 379.46652 377.34888 379.53906 377.02539 379.53906 L 374.42969 379.53906 L 375.01953 382.06836 C 375.40436 383.71763 375.8493 385.10938 376.40625 386.28516 L 376.42383 386.32422 L 376.44531 386.36328 C 377.04477 387.50224 377.73745 388.47597 378.58398 389.25195 L 378.61914 389.28516 L 378.65625 389.31641 C 379.47628 389.99977 380.41849 390.51187 381.42969 390.80078 L 381.50977 390.82422 L 381.58984 390.83984 C 382.51299 391.02448 383.47744 391.11328 384.47852 391.11328 C 386.00687 391.11328 387.72861 390.81249 389.75195 390.26562 C 390.76161 389.99275 391.69481 389.58251 392.66602 389.24023 L 392.66602 392.63086 C 392.19972 392.82289 391.82645 393.0135 391.20703 393.20312 C 390.14058 393.49311 388.93839 393.76539 387.59766 394.01367 C 386.27241 394.25909 384.86289 394.45774 383.375 394.60742 C 381.93048 394.70632 380.51296 394.75586 379.12305 394.75586 C 377.85661 394.75586 376.70482 394.68156 375.67383 394.54102 L 372.12695 394.05859 L 372.61328 395.24023 L 370.33594 395.24023 L 372.99023 387.13867 L 372.16016 386.25 C 371.80512 385.86961 371.46361 385.19242 371.29688 384.02539 C 371.10471 382.62873 371.00586 381.14702 371.00586 379.58008 L 371.00586 379.19531 L 374.02344 374.66797 L 368.49414 376.36914 C 366.55092 376.96706 364.58455 377.46376 362.5918 377.86328 C 360.59172 378.2126 358.61881 378.46382 356.67578 378.61328 L 354.89062 378.75 L 354.61328 383.17773 L 355.87891 383.77344 C 356.27288 383.95884 356.52283 384.19379 356.78516 384.84961 L 356.80078 384.88867 L 356.81836 384.92969 C 357.07323 385.49606 357.33594 386.82644 357.33594 388.74219 C 357.33594 390.14841 357.23884 391.84359 357.03711 393.81055 C 356.83717 395.70821 356.53482 397.66185 356.13281 399.67188 L 356.12891 399.69727 L 356.125 399.7207 C 355.7757 401.71672 355.3268 403.63176 354.78125 405.4668 L 354.77734 405.48438 L 354.77148 405.50391 C 354.48062 406.55101 354.11412 407.22062 353.77148 408.01562 L 352.63477 407.40234 C 352.65567 406.66087 352.68359 405.90411 352.68359 405.20117 L 352.68359 401.86328 C 352.68359 396.21959 352.42442 391.28599 351.89453 387.03711 L 351.89453 387.0332 C 351.40963 382.72575 350.57218 379.48936 348.98438 377.17383 L 347.73047 375.34375 L 345.99805 376.73047 C 345.71266 376.95878 345.05961 377.3483 344.13281 377.76758 C 343.16065 378.15506 342.08687 378.54556 340.90625 378.93945 C 339.77237 379.28394 338.61273 379.6035 337.42773 379.90039 C 336.24959 380.14472 335.24916 380.31421 334.4668 380.40625 L 332.64844 380.62109 L 332.64844 385.45117 L 335.5293 386.04688 C 336.24967 387.45207 336.9487 389.37986 337.50586 392.03711 L 337.50781 392.05273 L 337.51172 392.06836 C 337.71635 392.97459 337.89156 393.95598 338.03711 395.01172 L 331.50391 395.01172 C 331.49026 394.34746 331.48242 393.6808 331.48242 393.01172 C 331.48242 388.55075 331.78992 384.70878 332.38086 381.50781 L 332.92188 378.57227 L 329.98633 379.10547 C 329.50145 379.19367 328.98553 379.26009 328.44336 379.30664 L 326.00586 379.30664 C 324.12822 379.30664 322.04375 379.11205 319.75977 378.71484 C 317.89895 378.39122 315.30674 377.63673 312.53906 376.76562 L 312.53906 373.36328 L 309.02344 376.88086 C 306.7959 379.1084 304.51393 380.945 302.18164 382.4043 C 299.8511 383.81085 297.81385 384.62741 296.14062 384.92773 L 294.30469 385.25781 C 294.55119 384.19562 294.91484 383.21806 295.05078 382.07617 L 295.26758 380.25391 L 293.48242 379.82812 C 291.37383 379.32608 289.45466 378.77639 287.72266 378.18359 C 286.00572 377.5444 284.71558 376.93406 283.93555 376.44141 L 281.7832 375.08203 L 280.90234 377.46875 C 280.22087 379.31276 279.45683 381.00899 278.68359 382.68555 L 278.68359 380.01953 L 276.67969 376.67969 L 278.85352 374.34766 L 278.86914 374.36719 L 280.45117 372.6875 C 283.86107 369.07094 286.46807 366.28348 288.28906 364.30664 L 288.31055 364.28516 C 290.15913 362.33382 291.45206 360.96137 292.18164 360.17969 L 293.69922 358.55469 L 291.96289 357.16602 C 291.22142 356.57284 290.67064 356.08862 290.34766 355.76562 C 289.90325 355.32124 289.29566 354.74132 288.50977 354.00781 L 287.21484 352.79883 L 285.82617 353.89844 C 284.60313 354.86667 283.27435 355.88835 281.8418 356.96289 C 280.86041 357.68985 279.93699 358.35821 279.00781 359.0332 C 278.04593 358.36089 277.08807 357.69469 276.07422 356.9707 C 274.647 355.90029 273.35267 354.88508 272.19141 353.92578 L 270.83984 352.80859 L 269.52148 353.96289 C 268.67508 354.7035 268.03335 355.29088 267.55859 355.76562 C 267.26567 356.05856 266.7169 356.55993 265.95898 357.2168 L 264.28516 358.66602 L 265.84961 360.23242 C 267.6403 362.02311 269.5118 363.97106 271.46289 366.07617 L 271.48242 366.09375 L 271.5 366.11328 C 272.97653 367.62767 274.44134 369.21426 275.89258 370.87305 L 269.99219 377.20508 L 270.13867 377.3418 C 269.81366 377.41449 269.48151 377.48849 269.14453 377.5625 C 267.10474 377.9602 265.22555 378.27939 263.49219 378.5293 L 252.5918 378.5293 L 252.5918 376.47461 C 252.5918 376.08508 252.61687 375.31708 252.66797 374.24414 L 252.66797 374.24219 L 252.66797 374.24023 C 252.71787 373.14272 252.79297 372.01809 252.89258 370.86719 C 253.04471 369.65198 253.19615 368.51172 253.34766 367.45117 C 253.49127 366.44586 253.67735 365.7383 253.76562 365.51758 L 255.86328 360.26953 L 250.87891 362.93555 C 248.71167 364.09477 246.68575 365.0434 244.80664 365.78516 C 243.05461 366.47675 241.12248 366.90226 238.98242 367.04492 L 235.04492 367.30664 L 237.41992 370.27734 C 237.40475 370.25975 237.39173 370.24564 237.38477 370.24023 L 237.38281 370.24023 L 237.38086 370.24023 L 237.37891 370.24023 L 237.37695 370.24023 L 237.37695 370.24219 L 237.37695 370.24414 C 237.37675 370.28813 237.54639 370.62793 237.63672 371.10938 L 237.64062 371.12305 L 237.64258 371.13477 C 237.78231 371.83341 237.90376 372.65308 238.00195 373.58594 L 238.00195 373.5918 L 238.00391 373.59766 C 238.10331 374.49179 238.17694 375.38569 238.22656 376.2793 L 238.23047 376.3418 L 238.23828 376.40625 C 238.33738 377.24887 238.37891 377.86312 238.37891 378.10547 L 238.37891 379.57617 C 236.73082 380.94317 235.03306 382.01693 233.25195 382.70508 L 231.93555 383.21484 L 231.93555 387.54102 L 238.37891 387.54102 L 238.37891 394.29102 L 231.74805 394.29102 C 231.71522 394.1554 231.68258 394.01662 231.65039 393.875 C 231.40776 392.8074 231.21186 391.68317 231.06445 390.50391 C 230.91292 389.29163 230.78662 388.08106 230.68555 386.86914 L 230.68555 386.86328 C 230.58605 385.61759 230.53711 384.48263 230.53711 383.46289 C 230.53711 382.14176 230.61441 381.07542 230.74219 380.30859 L 231.12891 377.99023 L 228.7793 377.91016 C 225.77107 377.80818 222.73681 377.62955 219.67578 377.375 C 216.61434 377.06886 214.05509 376.71283 212.02344 376.31641 L 210.94727 376.10547 L 210.17188 376.88086 C 208.45057 378.60217 206.72677 380.00725 205.00781 381.10547 L 204.99805 381.11328 L 204.98633 381.11914 C 203.40684 382.15709 201.66085 382.85516 199.68555 383.22266 L 197.41992 383.64453 L 198.0918 385.84766 C 198.4105 386.89483 198.76331 388.49172 199.11719 390.56445 L 199.12305 390.5918 L 199.12891 390.62109 C 199.34112 391.68216 199.49865 392.94432 199.5957 394.39648 L 194.64844 394.39648 C 194.67329 393.95295 194.70139 393.54951 194.73242 393.1875 L 194.93945 390.78906 L 192.53711 390.95703 C 190.29938 391.11315 188.34409 391.26846 186.66602 391.42578 C 184.97669 391.58416 183.43575 391.7698 182.04102 391.98438 L 182.03516 391.98633 L 182.0293 391.98633 C 180.69199 392.2003 179.45233 392.44206 178.30664 392.71484 L 178.29492 392.71875 L 178.2832 392.7207 C 178.04849 392.7794 177.82813 392.86987 177.5957 392.93359 C 177.5917 392.86699 177.58348 392.82152 177.58008 392.75391 C 177.53008 391.75296 177.50586 390.75277 177.50586 389.75195 L 177.50586 387.90039 C 178.50027 388.26578 179.49636 388.60742 180.49219 388.92188 L 180.50586 388.92578 L 180.51953 388.92969 C 181.63616 389.26468 182.73595 389.51855 183.81836 389.68945 C 184.88426 389.85775 185.86557 389.94922 186.7793 389.94922 C 188.92285 389.94922 190.94282 389.30284 192.51758 388.00195 L 192.53711 387.98438 L 192.55664 387.9668 C 194.09797 386.62651 195.28067 384.72731 196.28906 382.31836 L 197.39648 379.67188 L 194.53516 379.4668 C 188.97206 379.06625 184.70353 378.19151 181.82422 377.00391 L 181.95312 372.72656 L 181.99023 372.6875 C 185.40053 369.07052 188.00712 366.28353 189.82812 364.30664 L 189.84766 364.28516 C 191.69694 362.33307 192.99095 360.96156 193.7207 360.17969 L 195.23828 358.55469 L 193.50195 357.16602 C 192.76048 356.57284 192.20972 356.08863 191.88672 355.76562 C 191.44231 355.32123 190.83473 354.74132 190.04883 354.00781 L 188.75391 352.79883 z M 119.55273 359.88281 C 119.54773 359.88781 119.54231 359.89569 119.53711 359.90039 C 119.53511 359.90217 119.53314 359.90289 119.53125 359.9043 L 119.55273 359.88281 z M 79.578125 360.26953 C 79.577937 360.2709 79.576458 360.27404 79.576172 360.27539 L 79.576172 360.27734 C 79.575647 360.27884 79.574884 360.27994 79.574219 360.28125 L 79.576172 360.27539 L 79.578125 360.26953 z M 144.45898 381.76367 L 144.63672 381.90039 C 144.61259 381.88828 144.5836 381.88488 144.5625 381.86719 C 144.52224 381.83783 144.49631 381.79574 144.45898 381.76367 z M 124.02539 382.63281 L 124.13281 382.76172 C 124.11213 382.73945 124.08112 382.72528 124.0625 382.70117 C 124.04598 382.68247 124.03834 382.65456 124.02539 382.63281 z M 262.35742 383.12695 L 264.4707 384.04102 L 264.4707 393.84961 L 252.5918 393.84961 L 252.5918 388.43945 L 259.46289 389.30664 L 259.90625 387.5332 C 260.10969 386.71946 260.47015 385.84091 261.00195 384.9043 C 261.4127 384.24407 261.88976 383.69306 262.35742 383.12695 z M 438.39648 384.24023 L 438.88672 385.84766 C 439.20542 386.89483 439.56018 388.49172 439.91406 390.56445 L 439.91797 390.5918 L 439.92383 390.62109 C 440.1567 391.78542 440.32397 393.19212 440.41797 394.82617 L 429.48047 394.82617 L 429.48047 388.43945 L 436.35156 389.30664 L 436.79492 387.5332 C 436.99836 386.71946 437.35883 385.84091 437.89062 384.9043 C 438.04404 384.65772 438.23516 384.47346 438.39648 384.24023 z M 408.82227 384.49609 L 408.82227 387.54102 L 415.26758 387.54102 L 415.26758 395.20508 L 406.89258 395.20508 C 406.92419 392.45756 407.02427 390.32141 407.17969 388.83398 C 407.40958 387.10853 407.87408 385.85971 408.45312 385.02734 L 408.82227 384.49609 z M 293.89844 386.99609 L 294.75977 388.07422 C 294.77587 388.10182 294.80954 388.15752 294.83984 388.25977 C 294.90994 388.49619 295.00445 388.89851 295.09961 389.42188 C 295.29238 390.48215 295.46782 391.80164 295.61914 393.36523 L 295.62109 393.39844 L 295.62695 393.43164 C 295.68526 393.88352 295.74117 394.34413 295.79102 394.81445 L 289.5332 394.81445 L 281.67578 394.81445 L 283.80273 391.82227 L 289.5332 394.81445 L 290.59961 393.58789 C 291.81958 392.18492 292.78787 390.49108 293.53125 388.54688 L 293.53516 388.53711 L 293.53906 388.52734 C 293.71389 388.05666 293.75012 387.48591 293.89844 386.99609 z M 454.00391 388.45898 C 454.68532 388.59901 454.99104 388.78687 455.70508 388.89844 L 455.74023 388.9043 L 455.77539 388.9082 C 456.79841 389.0322 457.19306 389.01493 458.05859 389.06836 C 458.10049 389.68419 458.06994 389.78418 458.15234 390.38867 L 458.1582 390.43359 L 458.16797 390.47852 C 458.25477 390.95569 458.13076 391.24384 458.22656 391.70508 L 454.16797 392.91406 C 454.11847 392.20461 454.32854 391.70297 454.25781 390.94336 C 454.20301 390.06632 454.09993 389.46579 454.00391 388.45898 z M 213.56641 388.54883 C 214.24598 388.6889 214.34527 388.92174 215.05859 389.0332 L 215.09375 389.03906 L 215.12891 389.04297 C 216.15192 389.16697 216.92745 389.17899 217.79297 389.23242 C 217.83487 389.84825 217.65775 389.81348 217.74023 390.41797 L 217.74609 390.46289 L 217.75391 390.50781 C 217.84071 390.98512 217.71096 390.375 218.00586 391.74805 L 213.77148 392.88477 C 213.72198 392.17534 213.69959 391.52717 213.62891 390.76758 C 213.57411 389.89054 213.66241 389.55564 213.56641 388.54883 z M 310.5918 393.24609 C 311.41033 393.54373 311.34267 393.63008 312.35156 393.85938 L 312.37305 393.86328 L 312.39648 393.86719 C 314.13489 394.22277 315.1735 394.05224 316.9668 394.26172 L 316.70898 404.06641 C 315.55022 403.78045 315.20806 403.82526 313.95508 403.61133 C 312.492 403.36154 311.88342 403.38707 310.58203 403.20898 C 310.59461 402.94142 310.61588 402.82049 310.63867 402.78711 C 310.63949 402.78613 310.6437 402.78202 310.64453 402.78125 L 310.64648 402.78125 L 310.64844 402.7793 L 310.65039 402.7793 L 310.65234 402.7793 L 310.6543 402.7793 L 310.65625 402.7793 L 310.65625 402.78125 C 310.65713 402.78158 310.66123 402.78271 310.66211 402.7832 C 310.70658 402.81593 310.76104 403.04355 310.80273 403.08789 C 310.80356 403.08863 310.80778 403.09121 310.80859 403.0918 L 310.80859 403.09375 L 310.81055 403.09375 L 310.8125 403.09375 L 310.81445 403.09375 L 310.81641 403.09375 L 310.81836 403.09375 L 310.82031 403.0918 L 310.82227 403.08984 L 310.82422 403.08789 L 310.82617 403.08594 C 310.84527 403.0576 310.85871 402.93699 310.86719 402.70703 C 310.97228 400.76304 311.02539 399.01903 311.02539 397.4707 C 311.02539 396.95252 311.0211 396.76214 311.01367 396.73047 L 311.01367 396.72852 L 311.01172 396.72852 L 311.00977 396.73047 L 311.00977 396.73242 L 311.00977 396.73438 C 310.99789 396.77581 310.97748 397.01127 310.95312 397.05859 C 310.95256 397.05947 310.95174 397.06183 310.95117 397.0625 L 310.94922 397.0625 L 310.94922 397.06445 L 310.94727 397.06445 L 310.94531 397.06445 L 310.94336 397.06445 L 310.94141 397.0625 C 310.92083 397.03702 310.89524 396.85848 310.86719 396.35352 L 310.86719 396.34961 C 310.81449 395.37597 310.68314 394.28003 310.5918 393.24609 z M 180.29492 401.36133 L 180.29492 402.17383 C 180.29492 403.60103 180.22002 404.97047 180.07422 406.28516 C 180.01132 406.8302 179.87772 407.52739 179.78711 408.13281 C 176.88091 406.88652 174.00121 405.65515 172.00586 404.96289 C 170.21533 404.34169 168.80876 403.98509 167.51758 403.76758 C 169.79394 403.17651 172.14912 402.6269 174.70898 402.18555 L 174.72461 402.18164 L 174.74219 402.17969 C 176.86605 401.77689 178.56389 401.57687 180.29492 401.36133 z M 392.74414 401.47461 L 392.74414 407.1582 C 391.93845 407.03651 391.01556 406.82036 390.31445 406.79102 L 390.31055 406.79102 C 389.80522 406.76902 389.32509 406.72291 388.83008 406.69141 L 388.91211 402.4707 C 389.5918 402.34106 390.19456 402.27255 390.97461 402.07031 L 391.00781 402.0625 L 391.04297 402.05273 C 391.59266 401.88986 392.18124 401.65988 392.74414 401.47461 z M 296.94922 411.91406 C 296.93366 411.91643 296.91808 411.91992 296.90234 411.91992 C 296.85827 411.92573 296.81383 411.92764 296.76953 411.92969 L 296.94922 411.91406 z " /></g></g></svg>
