<?xml version="1.0" encoding="UTF-8" standalone="no"?>
<svg
   version="1.2"
   viewBox="0 0 219.2126 219.2126"
   width="58mm"
   height="58mm"
   id="svg1"
   sodipodi:docname="ZabijakRoleTokenLaser.svg"
   inkscape:version="1.4.2 (2aeb623e1d, 2025-05-12)"
   xml:space="preserve"
   xmlns:inkscape="http://www.inkscape.org/namespaces/inkscape"
   xmlns:sodipodi="http://sodipodi.sourceforge.net/DTD/sodipodi-0.dtd"
   xmlns="http://www.w3.org/2000/svg"
   xmlns:svg="http://www.w3.org/2000/svg"><sodipodi:namedview
     id="namedview1"
     pagecolor="#ffffff"
     bordercolor="#666666"
     borderopacity="1.0"
     inkscape:showpageshadow="2"
     inkscape:pageopacity="0.0"
     inkscape:pagecheckerboard="0"
     inkscape:deskcolor="#d1d1d1"
     inkscape:zoom="4.0559228"
     inkscape:cx="99.853972"
     inkscape:cy="116.74285"
     inkscape:window-width="1920"
     inkscape:window-height="940"
     inkscape:window-x="0"
     inkscape:window-y="0"
     inkscape:window-maximized="1"
     inkscape:current-layer="text1"
     showgrid="false"
     inkscape:document-units="mm" /><defs
     id="defs1"><clipPath
       clipPathUnits="userSpaceOnUse"
       id="cp1"><path
         d="m 275.5,535.5 c -143.78,0 -260,-116.22 -260,-260 0,-143.78 116.22,-260 260,-260 143.78,0 260,116.22 260,260 0,143.78 -116.22,260 -260,260 z"
         id="path1" /></clipPath></defs><style
     id="style1">
		tspan { white-space:pre } 
		.s0 { fill: none;stroke: #ff0000;stroke-miterlimit:100 } 
	</style><g
     inkscape:groupmode="layer"
     id="layer1"
     inkscape:label="Template"><path
       id="Path 0 copy"
       class="s0"
       d="M 97.671812,0.76195292 C 95.811166,1.0410159 92.860484,1.4795434 91.107641,1.7386733 c -1.74884,0.2591299 -5.597905,1.0883456 -8.55258,1.8497886 -2.954678,0.7574569 -7.698127,2.2085843 -10.541007,3.2211842 -2.846868,1.0126003 -8.03751,3.2889559 -11.539201,5.0629999 -3.501687,1.770056 -8.604494,4.716165 -11.339564,6.546021 -2.735069,1.825869 -6.759813,4.799883 -8.94787,6.605819 -2.188062,1.805936 -5.989209,5.318143 -8.448777,7.80579 -2.455574,2.487647 -5.8255,6.227091 -7.482513,8.304115 -1.661007,2.081012 -4.451978,5.932081 -6.204819,8.555271 -1.748848,2.627183 -4.683557,7.821737 -6.520248,11.541251 C 9.4028981,65.552401 7.410489,70.368229 6.0249865,74.562147 4.8271454,78.174021 3.3937283,83.189182 2.8347358,85.704735 2.2757433,88.220284 1.4532259,93.099903 1.0100246,96.548321 0.47498889,100.70238 0.20347843,105.1315 0.19948562,109.68023 c 0,4.66434 0.25953209,8.84231 0.81053898,13.03224 0.4471941,3.39261 1.2776971,8.22837 1.8406824,10.74393 0.5629853,2.51953 1.7089198,6.72541 2.5474088,9.35259 0.838489,2.62718 2.3477692,6.74535 3.3539555,9.15327 1.0061862,2.40791 2.9147477,6.43439 4.2363647,8.95393 1.32561,2.51556 3.721293,6.54602 5.330393,8.95393 1.605107,2.40792 4.276293,6.0756 5.933306,8.15662 1.657013,2.07702 5.026939,5.81646 7.486507,8.3081 2.455575,2.49164 6.260715,5.99188 8.448777,7.78188 2.188057,1.786 5.138736,4.06235 6.564168,5.05901 1.42144,0.99665 4.463953,2.9461 6.759816,4.32946 2.29986,1.38734 6.508272,3.62782 9.351148,4.98725 2.842876,1.35546 7.230966,3.19727 9.746435,4.09027 2.515464,0.893 6.991397,2.24048 9.946075,2.99395 2.954675,0.74948 8.592511,1.83384 12.533412,2.39994 5.669777,0.82123 8.692327,1.03651 14.517827,1.03651 5.8295,0 8.85205,-0.21528 14.52183,-1.03651 3.9409,-0.5661 9.57873,-1.65046 12.53341,-2.39994 2.95467,-0.75347 7.42661,-2.10095 9.94607,-2.99395 2.51547,-0.893 6.89957,-2.73481 9.74644,-4.09027 2.84287,-1.35943 7.05129,-3.59991 9.34715,-4.98725 2.29986,-1.38336 5.34237,-3.33281 6.76381,-4.32946 1.42144,-0.99666 4.37611,-3.27301 6.56417,-5.06301 2.18806,-1.78998 5.9892,-5.29422 8.44478,-7.78187 2.45957,-2.48765 5.8255,-6.22709 7.48651,-8.30411 1.65701,-2.08102 4.39208,-5.84039 6.07305,-8.35594 1.68097,-2.51955 4.32421,-7.08422 5.87342,-10.14993 1.54921,-3.06171 3.54959,-7.45097 4.44797,-9.74726 0.89839,-2.30028 2.2799,-6.32676 3.07446,-8.95394 0.79457,-2.62718 1.88061,-7.01245 2.41166,-9.75126 0.53505,-2.73481 1.24176,-7.21178 1.56917,-9.94659 0.3314,-2.73483 0.60291,-8.01709 0.60291,-11.74059 0,-3.77532 -0.27151,-8.8742 -0.61488,-11.541243 -0.3354,-2.62319 -0.8864,-6.294863 -1.21781,-8.156609 -0.3314,-1.857765 -1.11799,-5.350037 -1.74885,-7.757953 -0.63086,-2.407916 -1.8886,-6.526086 -2.79896,-9.15326 -0.90636,-2.627187 -3.14233,-7.821744 -4.96704,-11.541252 -1.82471,-3.719514 -4.75144,-8.914068 -6.50029,-11.541251 -1.75283,-2.62319 -4.54381,-6.474259 -6.20481,-8.555271 -1.66101,-2.077024 -5.03093,-5.812481 -7.48651,-8.296142 -2.45558,-2.487647 -6.25672,-5.987894 -8.44478,-7.78187 -2.18806,-1.793977 -5.14273,-4.074321 -6.56417,-5.070973 -1.42144,-0.996654 -4.46395,-2.942122 -6.76381,-4.329463 -2.29586,-1.387342 -6.50428,-3.62782 -9.34715,-4.983268 -2.84687,-1.3554483 -7.23097,-3.1932775 -9.74644,-4.0822919 -2.51946,-0.8930025 -6.63603,-2.1567589 -9.1515,-2.81455 -2.51547,-0.6577916 -6.18486,-1.4710606 -8.1573,-1.8019496 -1.96845,-0.3348755 -5.55,-0.8810416 -7.95366,-1.21591725 -2.8868,-0.402648 -7.08724,-0.59001885 -12.33377,-0.55413933 -4.37612,0.0279061 -9.478922,0.27906301 -11.339568,0.558126 z"
       style="stroke:#000000;stroke-width:0.398971;stroke-opacity:1"
       inkscape:label="vnejsi kruh" /><path
       id="Path 0"
       class="s0"
       d="m 102.24158,10.569589 c -0.8395,0.0802 -2.995494,0.33609 -4.785158,0.561421 -1.793482,0.229152 -4.205139,0.591975 -5.365178,0.80967 -1.156216,0.213875 -4.434098,0.966257 -7.276947,1.676627 -2.842853,0.706551 -7.326562,2.096738 -9.959544,3.085909 -2.632977,0.989172 -6.685484,2.749821 -9.001742,3.907037 -2.320077,1.161036 -5.937565,3.150838 -8.043949,4.42263 -2.106394,1.271791 -5.212544,3.349434 -6.895366,4.621227 -1.68663,1.271792 -4.52949,3.55567 -6.322965,5.071892 -1.789667,1.51622 -4.472256,4.029247 -5.96046,5.579834 -1.488211,1.554414 -3.991452,4.376799 -5.56361,6.274942 -1.572157,1.898139 -4.239481,5.522561 -5.929934,8.050863 -1.690451,2.532129 -4.12882,6.672136 -5.4186,9.20426 -1.28978,2.528314 -3.121417,6.49645 -4.075398,8.818527 -0.953977,2.318246 -2.354418,6.374237 -3.113785,9.00948 -0.759367,2.635247 -1.793483,7.034963 -2.300999,9.777136 -0.503699,2.738369 -1.095167,7.054062 -1.316488,9.582366 -0.221327,2.53213 -0.40449,6.41243 -0.40449,8.62756 0,2.21513 0.183163,6.09544 0.40449,8.62757 0.221321,2.5283 0.812789,6.84017 1.316488,9.58236 0.507516,2.74218 1.514918,7.05405 2.239943,9.58617 0.728838,2.52831 2.041515,6.41244 2.919176,8.62757 0.877658,2.21132 2.755089,6.2673 4.170797,9.00948 1.411886,2.73836 3.938025,7.05406 5.60558,9.58236 1.667554,2.53213 4.697392,6.5843 6.735089,9.00949 2.033885,2.42519 5.143853,5.7899 6.910622,7.47798 1.762958,1.68808 4.674501,4.24695 6.464157,5.68678 1.789671,1.43602 5.151488,3.88413 7.471565,5.43854 2.316262,1.55059 6.540485,4.03307 9.383338,5.51492 2.84286,1.47802 7.498278,3.57095 10.341135,4.64797 2.846668,1.077 7.502097,2.54739 10.34495,3.2654 2.842849,0.718 7.498271,1.68809 10.341135,2.15403 4.334872,0.70655 6.693108,0.84404 14.557708,0.84404 7.86461,0 10.22284,-0.13749 14.55772,-0.84404 2.84286,-0.46594 7.49828,-1.43603 10.34113,-2.15403 2.84286,-0.71801 7.49828,-2.1884 10.34495,-3.2654 2.84286,-1.07702 7.41051,-3.12411 10.15034,-4.54485 2.73983,-1.42457 6.96023,-3.90703 9.38333,-5.51492 2.42311,-1.60789 5.8727,-4.09036 7.66236,-5.51492 1.78967,-1.42456 5.24307,-4.58685 7.67381,-7.02732 2.43074,-2.44047 5.59031,-5.90448 7.02509,-7.69568 1.43479,-1.79502 3.98001,-5.3316 5.65901,-7.85991 1.679,-2.53212 4.41121,-7.3634 6.07113,-10.73576 1.6561,-3.37234 3.64801,-7.8599 4.41882,-9.9681 0.77463,-2.10819 1.98047,-6.07634 2.67878,-8.81852 0.69832,-2.74218 1.66755,-7.48563 2.14836,-10.54098 0.73266,-4.6365 0.87766,-7.05787 0.87766,-14.57023 0,-7.42451 -0.14882,-9.956641 -0.84713,-14.379263 -0.46554,-2.95224 -1.43097,-7.695689 -2.14837,-10.540984 -0.71357,-2.849125 -1.92704,-6.901285 -2.69785,-9.009484 -0.77081,-2.108198 -2.8047,-6.683592 -4.51804,-10.162877 -1.71335,-3.479292 -4.45318,-8.306753 -6.08256,-10.731945 -1.6294,-2.425183 -4.14028,-5.870105 -5.57888,-7.653669 -1.4386,-1.783556 -3.99145,-4.697607 -5.67808,-6.477348 -1.68664,-1.779741 -4.52949,-4.472274 -6.31916,-5.980856 -1.79348,-1.512402 -4.63634,-3.788642 -6.32297,-5.060434 -1.68282,-1.271793 -4.78898,-3.349436 -6.89536,-4.621227 -2.10639,-1.271792 -5.72388,-3.261594 -8.04395,-4.42263 -2.31626,-1.157216 -6.36877,-2.917865 -9.00175,-3.907037 -2.63297,-0.989171 -7.11668,-2.383178 -9.95954,-3.093548 -2.84285,-0.71037 -6.20467,-1.46657 -7.46774,-1.684265 -1.26689,-0.217694 -3.41906,-0.584337 -4.78898,-0.80967 -1.36991,-0.229151 -6.10928,-0.477399 -10.53574,-0.553783 -4.42265,-0.07638 -8.73464,-0.07256 -9.57795,0.0076 z"
       style="stroke:#000000;stroke-width:0.381756;stroke-opacity:1"
       inkscape:label="vnitrni kruh" /><g
       inkscape:groupmode="layer"
       id="layer3"
       inkscape:label="Positions"
       style="display:none"><rect
         style="display:inline;fill:#ff2121;fill-opacity:0.107692;stroke:#000000;stroke-width:0.404755;stroke-opacity:1"
         id="rect1"
         width="115.37505"
         height="115.37505"
         x="51.918774"
         y="30.832977" /><rect
         style="display:inline;fill:#de0000;fill-opacity:0.0923077;stroke:#000000;stroke-width:0.385187;stroke-opacity:1"
         id="rect2"
         width="115.37505"
         height="31.922791"
         x="51.918774"
         y="154.42326" /></g><text
       xml:space="preserve"
       style="font-size:41.9592px;font-family:'Didact Gothic';-inkscape-font-specification:'Didact Gothic';text-align:start;letter-spacing:0.777259px;writing-mode:lr-tb;direction:ltr;text-anchor:start;display:none;fill:#de0000;fill-opacity:0.0923077;stroke:#000000;stroke-width:2.70642;stroke-dasharray:none;stroke-opacity:1"
       x="33.544376"
       y="165.86778"
       id="text2"
       inkscape:label="Text"
       sodipodi:insensitive="true"><tspan
         sodipodi:role="line"
         id="tspan2"
         x="33.544376"
         y="165.86778"
         style="font-style:normal;font-variant:normal;font-weight:normal;font-stretch:normal;font-family:'New Rocker';-inkscape-font-specification:'New Rocker';letter-spacing:0.777259px;fill:#000000;fill-opacity:1;stroke:#000000;stroke-width:2.70642;stroke-dasharray:none;stroke-opacity:1">Hrobník</tspan></text><path
       id="path4"
       style="display:none;stroke-width:3.09939"
       d="m 106.27119,198.42896 h 5.93315 v 1.74426 h -5.93315 z"
       inkscape:label="spojovnik pismen" /></g><g
     inkscape:groupmode="layer"
     id="layer2"
     inkscape:label="Content"
     style="display:inline"><g
       id="path1-91"
       style="opacity:1"
       transform="scale(0.38458351)"><path
         id="path7"
         style="baseline-shift:baseline;display:inline;overflow:visible;fill:none;stroke:#000000;stroke-width:1;stroke-dasharray:none;stroke-opacity:1;enable-background:accumulate;stop-color:#000000;stop-opacity:1"
         d="m 381.79049,81.233856 c -1.19012,0.615756 -2.26147,1.390435 -3.75697,2.526605 -2.99099,2.27234 -7.36024,5.925572 -13.52043,11.261216 -9.89206,8.567993 -16.14251,14.203533 -20.30003,18.575583 -4.15753,4.37205 -6.38393,7.74568 -7.43838,11.26509 -0.47846,1.59697 -3.81163,5.96835 -7.10122,8.58154 -1.43027,1.13618 -2.6994,1.82742 -3.59034,2.23597 -1.63692,-1.58612 -3.55752,-2.20495 -5.50079,-2.76493 -2.56639,-0.73952 -5.16487,-1.33224 -8.33547,0.11238 -0.38318,0.17459 0.4456,0.14561 -0.26544,-0.0465 -0.71106,-0.1921 -2.54566,-0.96897 -5.58605,-2.50142 -7.03272,-3.5447 -18.25035,-8.0183 -23.98918,-9.25388 -0.43183,-0.093 -3.8152,-0.98164 -6.65947,-1.79226 -12.01926,-3.4255 -22.84542,-4.96084 -40.24547,-5.76818 -4.93629,-0.22903 -9.54568,-0.51096 -12.94886,-0.77503 -1.70158,-0.13203 -3.10718,-0.26125 -4.05535,-0.37007 -0.47409,-0.0544 -0.8413,-0.10485 -1.00948,-0.1337 -0.0841,-0.0144 -0.12299,-0.0266 -0.0407,-0.006 0.0823,0.0207 0.16223,-0.09 1.05404,0.46115 -1.70105,-1.0513 -3.1707,-0.94328 -4.36343,-0.70335 -1.19274,0.23995 -2.24885,0.72778 -3.23964,1.55006 1.49801,-1.24323 0.67073,-0.38786 -0.28095,-0.27706 -0.95167,0.11079 -2.3399,0.15728 -3.76084,0.0833 -2.09539,-0.10908 -3.0035,-0.2993 -3.24738,-0.35264 -0.75849,-1.62652 -1.12306,-3.15913 -3.69304,-4.50875 -1.3596,-0.714 -3.14991,-0.71099 -4.21036,-0.43014 -1.06044,0.28084 -1.70779,0.6484 -2.37159,1.00366 -2.53269,1.35545 -4.6897,4.686 -4.24524,7.76195 0.43352,3.00029 2.21687,5.04211 4.41381,6.91716 -0.11314,0.5437 -0.24148,1.09691 -0.14338,1.67214 0.26322,1.54367 1.10661,2.44667 1.6915,2.96255 0.58489,0.51589 1.06852,0.78357 1.54813,1.0308 1.91842,0.9889 4.16263,1.64407 8.14947,2.83855 0.97437,0.29193 1.34311,0.51204 1.54425,0.62584 0.0525,0.26318 0.0748,0.48177 0.18794,0.84866 0.10954,0.35518 0.18359,0.80087 0.82541,1.64694 0.0685,0.0902 0.28342,0.19973 0.37201,0.30032 l -2.19528,14.81087 7.68444,-9.24808 c 0.45938,1.1041 1.09753,2.13801 2.11197,3.15245 0.0857,0.0857 0.41464,1.77385 0.41464,0.28483 0,1.88931 0.32751,2.58326 0.7169,4.16192 0.38941,1.57865 0.90979,3.43851 1.48806,5.28572 1.0977,3.50637 2.96365,9.50978 4.14061,13.32086 0.60944,1.97338 1.24331,3.86952 1.79421,5.39423 0.27545,0.76235 0.52818,1.4274 0.76534,1.99958 0.23716,0.57217 0.1773,0.7734 0.96492,1.85427 -0.75344,-1.03397 -0.25023,-0.41138 -0.0736,0.0465 0.1766,0.45788 0.42459,1.1528 0.70721,1.98602 0.56524,1.66644 1.27677,3.90072 1.99571,6.26032 1.43789,4.71922 2.93879,10.09925 3.41401,12.32883 1.0041,4.71078 3.68459,13.79926 6.25645,21.42964 0.4589,1.36147 0.89501,2.93753 1.19937,4.27236 0.30436,1.33483 0.43983,2.64594 0.43983,2.51885 0,2.84591 0.77978,5.41824 1.8562,7.99446 0.13655,0.3268 0.16052,0.50527 0.25189,0.79635 -0.25436,0.28273 -0.48775,0.53375 -0.77504,0.86415 -1.01333,1.16542 -2.22442,2.61358 -3.43727,4.09993 -1.21284,1.48635 -2.42208,3.0044 -3.42176,4.3053 -0.99969,1.3009 -1.68103,2.15331 -2.31348,3.2532 0.17677,-0.30742 -0.24144,0.35496 -0.77115,1.06566 -0.52971,0.71071 -1.27194,1.6778 -2.17784,2.84437 -1.8118,2.33316 -4.28805,5.46585 -7.16323,9.06207 -5.75037,7.19244 -13.10163,16.25275 -20.01908,24.63439 -13.09061,15.86146 -19.1558,23.08089 -22.28411,27.5427 -3.12831,4.46182 -3.23576,7.87791 -3.23576,10.24012 v 9.56002 h 8.83923 c 4.1287,0 8.40995,-1.47501 12.59622,-4.91759 4.18626,-3.44256 8.83716,-8.73238 15.94241,-17.34327 17.92888,-21.72814 25.719,-30.77431 39.73977,-46.15122 l 10.79038,-11.83475 2.80368,0.29646 c 3.22209,0.33953 11.53788,0.78644 19.2363,1.07729 7.41055,0.27997 21.51121,1.39697 30.91603,2.45879 4.80566,0.54256 9.63652,1.03627 13.57275,1.39699 3.93623,0.36072 6.72035,0.59815 8.42265,0.60259 0.76244,0.002 1.64573,0.12756 2.24567,0.28676 0.59993,0.15921 0.94889,0.60981 0.23832,-0.10075 1.9199,1.91991 4.3725,2.5261 6.95785,2.75912 2.58534,0.23301 5.59375,0.0842 9.46895,-0.32164 0.56807,-0.0595 0.5659,-0.0356 0.9591,-0.0504 0.22885,0.18588 0.43585,0.45956 0.66654,0.57159 1.06797,0.51857 1.82314,0.4902 2.34252,0.46114 0.91343,-0.0511 1.39233,-0.19184 1.80777,-0.3507 0.50503,1.27225 1.1422,2.6534 1.86589,4.07473 1.47567,2.89819 3.14843,5.80299 4.93114,7.94601 0.48172,0.57908 0.8715,1.04507 1.31756,1.50745 0.44606,0.46236 0.53693,1.1254 2.67773,1.70119 0.7531,0.20255 1.93583,-0.006 3.00906,-0.42046 2.33435,1.79912 4.67423,3.16671 7.55657,3.22413 1.89354,0.0377 4.21494,-0.80801 5.59379,-2.48591 1.37885,-1.6779 1.76707,-3.65451 1.76707,-5.51435 0,-1.43925 0.16435,-3.13841 -1.45124,-5.12491 -0.8078,-0.99324 -2.03026,-1.65477 -2.97807,-1.9182 -0.9478,-0.26342 -1.68249,-0.28094 -2.3619,-0.28094 -0.15901,0 -0.32442,0.19324 -1.22456,-1.49388 -0.90013,-1.68712 -1.82883,-4.94185 -2.27278,-9.3682 -0.29425,-2.93393 -1.16544,-7.53059 -2.04609,-11.0539 -0.80363,-3.21526 -2.4658,-10.149 -3.66977,-15.30882 -3.73435,-16.00415 -9.30035,-30.29576 -17.2464,-44.26789 -1.64431,-2.89131 -4.1407,-6.80048 -6.55871,-10.38931 -2.418,-3.58883 -4.52292,-6.61094 -6.15375,-8.42266 -0.0367,-0.0408 -0.0184,-0.0235 -0.0484,-0.0581 0.0122,-0.0334 0.003,-0.0141 0.0175,-0.0523 0.5723,-1.5053 0.95203,-3.9463 0.25963,-5.96581 -0.6924,-2.0195 -1.77665,-3.39653 -3.30745,-5.40197 -0.91388,-1.19725 -1.45222,-2.11819 -1.7322,-2.69712 0.56285,-1.01549 2.12527,-3.46757 4.02823,-5.6616 1.10506,-1.2741 2.26437,-2.47435 3.23576,-3.3559 0.97139,-0.88154 1.94752,-1.43762 1.67407,-1.32336 2.25114,-0.94059 3.70521,-2.33925 5.60155,-4.22974 1.89633,-1.89049 3.98097,-4.28873 6.19444,-7.10898 4.88344,-6.22215 11.42499,-15.54052 16.82014,-23.67917 2.69756,-4.069328 5.0971,-7.829756 6.86291,-10.780697 0.88289,-1.47547 1.60429,-2.738934 2.15458,-3.81122 0.27514,-0.536143 0.50798,-1.017768 0.71496,-1.532625 0.207,-0.514859 2.03105,-4.876169 2.65674,-6.54163 0.28614,-0.761674 3.01217,-7.393556 2.47169,-7.813449 -0.54425,-0.422827 -6.10558,3.94328 -7.6073,4.760664 0,0 -3.92468,3.001135 -4.51974,3.309013 z m -152.60382,52.277854 5.69649,0.31971 c 15.96732,0.89441 36.06247,5.19701 47.52883,10.02504 2.4679,1.03912 7.67216,3.5761 12.22227,5.9193 2.24957,1.15849 4.35347,2.27678 5.94643,3.15826 -1.81481,2.57662 -3.32919,5.15736 -4.34987,7.62825 -1.14755,2.77806 -1.94643,5.34267 -1.36987,8.35872 0.0956,0.50036 0.0577,0.36211 0.0465,0.39334 -0.0112,0.0312 -0.17928,0.40223 -0.88355,1.15867 -1.80658,1.94043 -4.09546,5.06656 -5.81854,7.78132 -3.87966,6.11245 -15.91033,21.19121 -25.58576,31.85575 -3.97556,4.38201 -7.36845,8.17372 -9.74408,10.84658 -1.63564,-4.83247 -3.58223,-10.96154 -7.45194,-24.65958 -1.16204,-4.1134 -3.00358,-10.51629 -4.10767,-14.28191 -0.52038,-1.77479 -1.00019,-3.63674 -1.33693,-5.13265 -0.33674,-1.49591 -0.47664,-3.08478 -0.47664,-2.47041 0,-1.717 -0.30361,-2.68736 -0.68203,-4.35569 -0.37842,-1.66831 -0.88426,-3.6034 -1.44931,-5.49691 -3.51407,-11.77567 -7.38714,-26.85292 -8.18434,-31.04779 z m -14.15403,5.61705 c 0.43915,0.14166 0.86215,0.34877 1.3195,0.34877 -0.47869,0 -0.90232,-0.18154 -1.32531,-0.34296 z m 114.83652,38.78067 1.22648,1.33112 c 9.00152,9.76403 19.66679,28.52896 24.62083,43.64012 1.32648,4.0461 2.81938,9.49739 3.9546,14.24121 0.56762,2.37191 1.04856,4.57417 1.37762,6.31845 0.10804,0.57267 0.0852,0.58977 0.15501,1.06374 -1.17329,0.0553 -1.95029,0.12982 -5.46786,0.12982 -2.76166,0 -5.33184,-0.0544 -7.18067,-0.13758 -0.92441,-0.0416 -1.67901,-0.0922 -2.1139,-0.13563 -0.0721,-0.007 -0.0524,-0.007 -0.10463,-0.0136 -0.23631,-0.0774 -0.40125,-0.11667 -0.53089,-0.14532 -0.28586,-0.0632 -0.48478,-0.0926 -0.70528,-0.124 -0.441,-0.0629 -0.92927,-0.11602 -1.53456,-0.17438 -1.21061,-0.11675 -2.84845,-0.2456 -4.84201,-0.38365 -3.98715,-0.27608 -9.37821,-0.58755 -15.2507,-0.86997 -25.71319,-1.23658 -43.558,-2.4577 -50.40421,-3.23964 0.7201,-1.01791 1.25725,-1.62572 2.03639,-2.76492 9.52731,-13.93003 19.16542,-26.57781 24.72547,-32.59203 3.60884,-3.90365 8.68278,-9.60811 11.43947,-12.86748 1.22069,-1.44328 2.46222,-2.72553 3.32489,-3.5012 0.10813,-0.0972 0.11402,-0.0905 0.20926,-0.17051 0.85075,-0.05 1.60996,-0.23989 2.29603,-0.46114 1.28526,-0.4145 2.47282,-1.01409 3.7124,-1.7574 2.47918,-1.4866 5.12481,-3.57627 7.74258,-6.11306 z m -17.5758,9.24808 c 0.73205,0.26361 1.31445,0.25065 1.91433,0.27125 -0.44565,0.0639 -1.05174,0.0394 -1.91433,-0.27125 z m 61.80881,85.84835 c 0.0334,0.0265 0.22155,0.19712 0.29645,0.26159 -0.32403,-0.16601 -0.36243,-0.31396 -0.29645,-0.26159 z m -180.18274,47.51868 c -0.69337,0 -6.50094,-6.07804 -6.47118,-6.77258 0.0158,-0.36726 3.35591,-4.68549 7.42266,-9.5961 4.06673,-4.9106 11.07254,-13.47936 15.56846,-19.04171 4.49593,-5.56233 8.26687,-9.88409 8.50189,-9.78586 0.35808,0.14967 -15.96285,20.03941 -21.51473,26.54207 -6.14078,7.19242 -7.50194,8.06477 -6.566,12.74446 0.32335,1.61679 3.27611,5.90972 3.0589,5.90972 z m 42.38228,-51.24531 -4.51233,4.46418 2.85385,-3.96816 c 1.56963,-2.1825 4.54727,-3.91712 7.15302,-6.53481 4.99109,-5.01396 8.31809,-9.54629 5.93719,-12.69413 -0.80109,-1.05912 -3.67624,-2.62945 -3.60193,-4.02563 0.12423,-2.33434 0.16968,-2.35898 0.56501,-0.30641 0.34621,1.79743 1.09263,2.23209 3.83307,2.23209 3.65563,0 4.5427,1.78744 1.95351,3.93628 -0.7973,0.66171 -1.72479,2.07002 -2.06109,3.12957 -0.56311,1.77422 -3.80757,5.92849 -6.49067,8.31079 -0.61451,0.54562 -3.14784,3.00093 -5.62963,5.45623 z m 24.03559,-31.66542 c -3.07427,-0.11966 -5.80717,-1.76427 -6.34418,-3.81778 -0.45669,-1.74641 2.25994,-1.02194 3.55819,0.48631 2.9928,3.4769 3.60142,-0.11173 5.21752,-0.94746 4.76585,-2.46451 11.39572,-14.28054 21.18549,-28.76897 2.32083,-3.43474 7.35864,-8.6383 9.47866,-9.79051 1.08556,-0.58999 -0.20168,1.34392 -2.86051,4.29759 -2.65884,2.95369 -7.00014,8.49526 -9.64733,12.31462 -8.0273,11.58181 -10.92203,15.64057 -15.03495,21.08087 -2.16561,2.86452 -4.6644,5.17995 -5.55289,5.14533 z m 103.44777,-10.34113 c -0.22226,0 -1.40524,-3.45974 -2.62886,-7.68832 -1.22363,-4.22857 -3.97446,-11.01019 -6.11297,-15.07026 -3.8275,-7.26673 -4.74958,-10.85073 -1.3771,-5.35265 0.94941,1.5478 2.54433,4.46809 3.43649,6.57146 2.45972,5.79905 0.24943,1.85246 4.18694,10.83899 1.15596,2.63824 2.71774,10.70078 2.4955,10.70078 z m -66.93072,-43.60719 c -2.35843,2.17844 -5.12119,3.53369 -1.52491,0.54904 0.8544,-0.7091 1.02629,-1.68691 1.78878,-3.09071 2.90401,-5.34647 2.06115,-4.75971 3.96267,-3.15436 1.18674,1.0019 1.48636,1.752 0.42118,1.752 -0.84327,0 -2.18363,1.66799 -4.64772,3.94403 z m 51.51915,-0.12581 c -0.5977,0 -1.08674,-0.3573 -1.08674,-0.79401 0,-0.4367 -0.96242,-4.5073 -3.76504,-7.65176 -3.83418,-4.30185 -4.90885,-4.95357 -4.05218,-5.81024 1.51315,-1.51315 1.53702,1.67182 6.81946,8.55178 2.18604,2.84714 2.6822,5.70423 2.0845,5.70423 z m -34.51801,-17.46129 c -4.58571,-0.54378 -4.93392,-0.77357 -4.612,-3.04364 0.19151,-1.35051 0.44809,-1.89598 1.09748,-2.82311 1.47981,-2.11272 12.25257,-13.09926 13.09356,-13.07505 0.3413,0.01 0.87761,0.60546 2.68513,2.7822 l 3.28638,3.95772 -2.11389,2.96869 c -2.33647,3.28129 -3.00392,3.53082 -4.7565,1.77824 -0.66136,-0.66137 -1.19045,-0.74955 -1.19045,-0.19841 0,0.54562 0.52826,1.5203 1.17391,2.16595 1.58156,1.58155 0.22815,2.78225 -1.51004,1.33969 -1.12649,-0.93491 -1.28818,-0.68201 -0.8913,1.39413 0.33062,1.72952 -0.10704,2.98442 -1.37596,3.9453 -1.96613,1.48881 2.8766,-0.2712 -4.88632,-1.19171 z m -14.2312,-24.02351 c -3.2583,-2.30287 -7.05562,-3.35589 -5.42647,-2.88709 4.75959,1.36962 10.89433,4.6418 10.35093,5.52103 -0.93984,1.5207 0.20419,0.99084 -4.92446,-2.63394 z m -45.4036,-12.43512 c -7.15272,-1.0285 -8.00144,-2.25765 -11.58509,-5.49526 -2.23151,-2.01604 -5.37031,-3.00021 -6.27811,-3.00021 -0.9078,0 -1.37003,-0.28051 -1.02718,-0.62336 1.14449,-1.14449 8.95043,2.57641 11.46332,4.89234 1.46315,1.34846 5.42926,2.99156 9.6724,4.00711 3.95577,0.94677 8.33283,1.04112 8.33283,1.25516 0,0.46968 -0.33985,0.4364 -10.57817,-1.03578 z m 89.65642,-3.53527 c -2.93016,0 5.09663,-9.63836 18.59471,-20.96851 11.64049,-9.770901 15.33069,-14.330506 -2.22977,3.42537 -9.54255,9.64873 -15.92367,17.54314 -16.36494,17.54314 z m -130.06283,-0.99204 c -0.56288,0 -2.58564,-2.48346 -2.58564,-3.17453 0,-1.6424 1.77382,-0.71278 2.27153,1.19045 0.28534,1.09124 0.42672,1.98408 0.31411,1.98408 z m 6.98262,-1.30125 c -0.49741,0.49742 -1.65307,-2.43991 -1.56904,-3.9881 0.0346,-0.6374 0.49059,-0.0897 1.01335,1.2172 0.52275,1.30687 0.77282,2.55377 0.55569,2.7709 z"
         sodipodi:nodetypes="sssssscssssssssssccscsscsssscsssscsccccscssssscsssssscscssscsssssscssscccssssscsscsscsssscsssssssssssssccsscsscsssssssscssccsscsssssscssscssscccccccssscssccscssscsssscsssccccscsssssssssscsssssssssscsssssssscsssssssssssssssssssssscscssssssssssssssssssssssssssssssss" /></g><g
       id="text1"
       inkscape:label="Text"
       style="opacity:1"
       transform="scale(0.38458351)"><path
         id="path5"
         style="font-size:109.103px;font-family:'New Rocker';-inkscape-font-specification:'New Rocker';letter-spacing:2.02104px;baseline-shift:baseline;white-space:pre;display:inline;overflow:visible;vector-effect:none;fill:none;stroke:#000000;stroke-opacity:1;enable-background:accumulate;stop-color:#000000;stop-opacity:1"
         d="M 389.90536 342.64949 L 387.36101 347.73819 C 386.76468 348.93086 385.97484 350.34774 384.9944 351.95846 L 384.96393 352.00417 L 384.93346 352.05496 C 384.02594 353.66057 383.05001 355.27167 381.99806 356.88465 L 381.98791 356.89989 L 381.97267 356.9202 C 380.95993 358.51165 379.98624 360.02625 379.04743 361.47058 L 379.01188 361.52137 L 378.98141 361.57723 C 378.10415 363.03934 377.40536 364.213 376.88397 365.10682 L 375.35532 367.73243 L 377.72701 369.62673 C 378.69146 370.39829 379.31847 371.04171 379.54513 371.33312 L 379.68225 371.50579 L 379.8346 371.65814 C 380.57198 372.39552 381.50912 373.20501 382.72429 374.19234 L 385.18739 376.19328 L 387.43211 373.95365 C 387.65511 373.73065 387.88057 373.50327 388.10755 373.2782 L 388.10755 378.64114 C 386.43508 379.52556 383.94045 380.44343 380.70811 381.25152 C 377.29658 382.1044 373.05723 382.56686 368.03206 382.56686 L 366.85384 382.56686 C 366.325 382.45493 365.92247 382.45513 365.52326 382.45513 L 361.08969 382.45513 L 362.09524 386.7719 C 362.64286 389.11885 363.27578 391.115 364.08603 392.82552 L 364.12158 392.89154 L 364.15713 392.95756 C 365.0243 394.60519 366.03279 396.02991 367.29059 397.18291 L 367.35154 397.24386 L 367.41756 397.29464 C 368.63011 398.3051 370.03365 399.07304 371.54134 399.50381 L 371.67846 399.54444 L 371.81558 399.56983 C 373.15727 399.83817 374.55174 399.96596 375.99522 399.96596 C 378.22957 399.96596 380.69622 399.52954 383.57241 398.75219 C 384.71914 398.44227 385.77124 397.95725 386.88362 397.58412 L 386.88362 401.05277 C 386.33236 401.26703 385.96076 401.47435 385.26357 401.68759 C 383.79035 402.08736 382.12668 402.46035 380.26628 402.80487 C 378.42573 403.14571 376.46674 403.42402 374.39548 403.63267 C 372.38163 403.77042 370.40503 403.83581 368.46882 403.83581 C 366.71303 403.83581 365.12146 403.73438 363.70514 403.54125 L 357.65151 402.71853 L 359.97749 408.37095 C 360.35055 409.27695 360.65067 410.40097 360.83576 411.75834 L 360.83576 411.77358 L 360.84084 411.78373 C 360.97303 412.70904 361.05779 413.69651 361.09985 414.74453 L 353.71056 414.74453 L 353.71056 383.57749 L 349.90673 377.23439 L 347.37762 377.8692 C 346.74806 378.02659 346.08828 378.18316 345.40714 378.34659 L 345.40714 374.60878 L 346.13845 373.14616 C 347.22685 370.96937 348.45331 369.27523 349.78485 368.00159 L 349.78992 368.00159 C 351.37771 366.47996 353.35247 364.87265 355.71151 363.20744 L 360.22634 360.02319 L 355.42711 357.28078 C 355.04186 357.06063 354.31085 356.60424 353.3703 356.00099 C 352.47417 355.31362 351.52532 354.60256 350.51108 353.85784 L 350.48569 353.83753 C 349.53199 353.08779 348.6169 352.34428 347.73311 351.59789 C 346.9866 350.90936 346.46023 350.33239 346.24002 350.03877 L 344.43206 347.62646 L 341.7709 349.04846 C 339.16809 350.43663 336.82642 352.3677 334.76251 354.76182 L 334.75743 354.7669 L 334.75743 354.77198 C 332.88831 356.95263 331.26955 359.19473 329.91757 361.50105 L 328.42956 364.03525 L 330.66412 365.94986 C 331.25708 366.4581 332.0169 367.06506 332.9901 367.81368 C 333.92529 368.53306 334.9007 369.29056 335.91026 370.08379 C 336.86455 370.83359 337.73989 371.57898 338.54095 372.31328 L 338.65267 372.40977 L 338.77456 372.50626 C 339.61298 373.1512 340.16042 373.67787 340.31844 373.86223 L 340.872 374.50721 L 340.872 379.39785 C 340.43561 379.49532 339.99324 379.59318 339.54142 379.6924 C 336.62906 380.25988 333.93789 380.72217 331.47669 381.07377 L 328.45495 381.50544 L 328.45495 388.06693 L 332.4924 389.81394 L 332.4924 414.74453 L 322.67049 414.74453 L 322.67049 383.57749 L 318.86158 377.23439 L 316.33246 377.8692 C 315.88724 377.98051 315.42724 378.09005 314.95618 378.20439 L 314.95618 373.4204 L 315.0933 373.14616 C 316.1817 370.96937 317.41323 369.27523 318.74477 368.00159 L 318.74985 368.00159 C 320.33763 366.47997 322.31241 364.87265 324.67144 363.20744 L 329.18626 360.02319 L 324.38704 357.28078 C 324.00178 357.06063 323.27081 356.60427 322.33023 356.00099 C 321.4345 355.31392 320.48475 354.60221 319.47101 353.85784 C 318.50929 353.10221 317.58374 352.35012 316.69304 351.59789 C 315.94653 350.90936 315.42018 350.33241 315.19995 350.03877 L 313.39199 347.62646 L 310.73083 349.04846 C 308.12801 350.43663 305.78127 352.3677 303.71736 354.76182 L 303.71736 354.7669 L 303.71228 354.77198 C 301.84316 356.95263 300.2244 359.19473 298.87242 361.50105 L 297.38949 364.03525 L 299.61897 365.94986 C 300.21193 366.4581 300.97173 367.06506 301.94494 367.81368 C 302.88012 368.53306 303.85555 369.29056 304.86511 370.08379 C 305.8194 370.83359 306.69474 371.57898 307.49579 372.31328 L 307.60752 372.40977 L 307.72941 372.50626 C 308.56784 373.1512 309.12033 373.67785 309.27836 373.86223 L 310.42104 375.19281 L 310.42104 379.26581 C 309.79608 379.40651 309.15396 379.54797 308.49627 379.6924 C 305.58391 380.25988 302.89274 380.72217 300.43154 381.07377 L 297.4098 381.50544 L 297.4098 388.06693 L 301.44725 389.81394 L 301.44725 414.74453 L 293.37744 414.74453 C 293.37444 414.64963 293.37028 414.55103 293.36728 414.45505 C 293.29578 411.95426 293.26063 409.0069 293.26063 405.6133 C 293.26063 402.91108 293.33194 400.24605 293.47393 397.61967 L 293.47393 397.61459 C 293.60518 395.12082 294.03676 392.44433 294.78419 389.59049 L 295.66278 386.23357 L 292.31602 385.30927 C 290.54277 384.8201 288.77388 384.04689 286.98863 382.96299 C 285.25104 381.90803 283.6149 380.56591 282.07259 378.89507 L 280.68615 377.39182 L 278.69536 377.85397 C 276.67904 378.31927 274.66738 378.89668 272.66205 379.59083 C 270.66089 380.28354 268.70315 381.09301 266.78109 382.0133 C 265.19699 382.7124 263.72063 383.50204 262.27642 384.31388 L 262.27642 365.24394 C 262.27642 361.63612 262.52193 358.50051 262.98234 355.85371 C 263.48112 353.38981 264.29718 351.65233 265.27784 350.47553 L 261.06265 345.04656 C 258.14381 346.43648 255.43874 347.49308 252.95729 348.23081 L 252.94206 348.23589 L 252.9319 348.24097 C 250.60077 348.95326 248.44067 349.28715 246.43136 349.28715 C 244.77158 349.28715 243.45374 349.0644 242.46502 348.71835 L 233.994 345.75756 L 238.19396 353.68517 C 238.78628 354.804 239.26925 355.8687 239.64642 356.8745 C 240.00667 357.83517 240.27264 358.8284 240.45391 359.8556 L 240.47423 359.9521 L 240.49454 360.04859 C 240.73 361.04928 240.88807 362.18561 240.95161 363.45629 C 241.02071 364.83797 241.05826 366.41804 241.05826 368.1895 L 241.05826 405.93833 C 241.05826 409.15255 241.02148 412.09157 240.95161 414.74453 L 232.13525 414.74453 C 232.04665 412.9299 231.99813 410.64541 231.99813 407.90373 C 231.99813 402.67927 232.15017 398.73979 232.41457 396.20783 C 232.72932 393.86202 233.35794 392.20996 234.09557 391.1496 L 237.94003 385.61907 L 231.20588 385.61907 C 227.91041 385.61907 225.30049 385.06605 223.26811 384.11582 C 221.18841 383.03612 219.04904 381.37287 216.88946 379.01696 L 214.96977 376.91952 L 212.51683 378.35675 C 210.86148 379.32712 208.18589 380.35616 204.60446 381.25152 C 201.19292 382.1044 196.95358 382.56686 191.92841 382.56686 L 190.75018 382.56686 C 190.22159 382.45506 189.81872 382.45513 189.4196 382.45513 L 184.98603 382.45513 L 185.99666 386.77697 C 186.54428 389.12392 187.17721 391.11502 187.98745 392.82552 L 188.01792 392.89662 L 188.05347 392.95756 C 188.92065 394.60519 189.93421 396.03499 191.19202 397.18799 L 191.24788 397.24386 L 191.3139 397.29464 C 192.52646 398.3051 193.92998 399.07304 195.43768 399.50381 L 195.5748 399.54444 L 195.71192 399.56983 C 197.05361 399.83817 198.45316 399.96596 199.89664 399.96596 C 202.13099 399.96596 204.59257 399.52954 207.46876 398.75219 C 208.61467 398.44249 209.66836 397.96202 210.77997 397.5892 L 210.77997 401.05277 C 210.22752 401.26746 209.85378 401.47394 209.15483 401.68759 C 207.68291 402.08682 206.02077 402.46584 204.16262 402.80994 C 202.32206 403.15078 200.36308 403.42402 198.29182 403.63267 C 196.27797 403.77042 194.30137 403.84089 192.36516 403.84089 C 190.60937 403.84089 189.02287 403.73946 187.60656 403.54633 L 181.54786 402.71853 L 183.87891 408.37095 C 184.25197 409.27696 184.54701 410.40604 184.73211 411.76342 L 184.73718 411.77358 L 184.73718 411.78373 C 184.92885 413.12541 185.03174 414.59796 185.03174 416.19699 C 185.03174 417.63702 184.95633 419.07877 184.92001 420.51883 L 180.50676 421.22983 C 177.90785 421.65128 175.54621 421.93108 173.42726 422.06779 C 171.29295 422.20548 169.11984 422.27329 166.91149 422.27601 C 164.45485 422.14011 161.71071 421.76976 158.68932 421.15365 C 155.65187 420.46191 151.9821 419.40884 147.70951 417.98464 L 143.07787 416.44076 L 143.07787 421.32632 C 143.07787 422.19872 143.28198 423.01869 143.41814 423.86052 C 142.4036 423.7376 141.01308 423.75791 140.19326 423.57104 C 139.29236 423.35894 138.2826 422.99312 137.34419 422.728 L 145.4394 411.23017 L 145.44955 411.22002 C 146.58601 409.58636 147.72105 408.02728 148.85218 406.54267 C 149.91804 405.14372 150.9571 403.98463 151.95009 403.05371 L 151.95009 403.04864 L 151.95517 403.04864 C 152.98011 402.084 153.97673 401.38527 154.93628 400.90549 L 155.0023 400.86994 L 155.06832 400.83439 C 155.82613 400.41339 156.57863 400.2409 157.47555 400.21989 L 157.69901 400.29606 L 159.03466 400.29606 L 160.69027 393.67364 C 159.88891 393.24624 159.42932 392.8863 159.17178 392.65285 C 159.17247 392.62785 159.17178 392.58537 159.17178 392.52081 C 159.17178 392.23902 159.40386 391.05906 160.14687 389.43813 C 160.97474 387.7226 162.38624 385.32744 164.36206 382.36372 L 164.37222 382.34848 L 164.38237 382.32817 C 166.36379 379.28529 168.98315 375.54986 172.22873 371.15029 L 172.23888 371.14013 L 172.24904 371.12997 C 175.50864 366.63898 179.5033 361.23299 184.22425 354.91418 L 189.16568 348.28668 L 180.96382 349.31254 C 178.06651 349.6747 175.38919 350.00329 172.92957 350.2927 C 172.92557 350.29319 172.91903 350.29165 172.91433 350.2927 C 170.47413 350.50828 168.13645 350.72185 165.90594 350.93768 C 165.9051 350.93767 165.89678 350.93772 165.89578 350.93768 C 163.71924 351.07826 161.60981 351.21855 159.56791 351.3592 L 159.56283 351.3592 C 157.49711 351.4304 155.39118 351.46584 153.2502 351.46584 L 148.66935 351.46584 C 147.3684 351.46584 145.86674 351.43329 144.19007 351.36427 C 142.51695 351.2238 140.48138 351.01235 138.0755 350.72946 L 138.06027 350.72946 C 135.69451 350.44259 132.69801 350.04233 129.0814 349.536 L 127.34454 349.29731 L 126.10537 350.53647 C 123.99814 352.6437 121.68188 354.4048 119.12237 355.84863 L 119.10206 355.85879 L 119.08682 355.86894 C 116.57348 357.32403 113.55293 358.6548 110.0267 359.83021 L 105.86229 361.21665 L 109.99115 368.093 L 112.68785 367.01635 L 113.53597 367.01635 C 115.95896 367.01635 118.42728 367.21823 120.94049 367.62578 L 120.99128 367.63594 L 121.04206 367.64101 C 123.75771 367.99833 126.58693 368.42876 129.52831 368.93096 L 129.5791 368.94112 L 129.6248 368.9462 C 132.69516 369.38482 135.91016 369.82343 139.26896 370.26154 L 139.30959 370.26662 L 139.35022 370.2717 C 141.70052 370.52174 144.38797 370.55831 147.00359 370.64243 C 145.81647 372.73409 144.567 375.15836 143.46892 376.78747 C 141.46473 379.6882 139.53342 382.02168 137.72001 383.77048 C 135.94167 385.48296 134.26161 386.72566 132.7278 387.55399 C 131.1816 388.35505 129.68894 388.88801 128.23328 389.17913 L 121.9562 390.43353 L 126.37961 395.06516 C 127.52201 396.25948 127.80161 397.07649 127.80161 397.97517 C 127.80161 398.79229 127.38646 400.42125 126.17647 402.58649 C 124.91632 404.84149 122.91716 407.84461 120.20918 411.47902 L 97.899129 440.98537 L 106.25842 439.86809 C 109.4535 439.44208 112.26777 439.16446 114.69388 439.02505 C 117.09653 438.95705 119.28343 438.92574 121.27568 438.92348 C 122.94402 439.12768 124.48488 439.35701 125.8616 439.61924 L 125.87684 439.61924 L 125.89207 439.62432 C 127.50148 439.91694 129.14704 440.2105 130.82842 440.50291 L 130.83858 440.50291 L 130.85381 440.50799 C 132.69775 440.81531 134.67297 441.03625 136.77032 441.18851 C 138.96638 441.42218 141.46507 441.53386 144.30688 441.53386 C 147.14106 441.53386 150.2335 441.34656 153.59046 440.97522 C 157.16725 440.66178 160.70448 439.95931 164.18939 438.87778 C 167.78545 437.85693 171.26423 436.41066 174.60549 434.54578 C 178.09885 432.59599 181.16948 430.05241 183.7621 426.97366 L 184.43755 426.93812 C 184.24819 428.79654 184.16807 429.63056 183.73671 430.7521 L 181.93383 435.44976 L 186.96159 435.53609 C 190.95337 435.60489 194.41933 436.05408 197.35229 436.8362 L 197.36245 436.8362 L 197.37261 436.84128 C 200.41613 437.63525 203.14715 438.77661 205.60493 440.26422 L 208.19499 441.83349 L 214.46699 434.28169 C 214.69736 434.61824 214.81952 434.97375 215.06626 435.30756 C 216.51156 437.26297 218.19123 438.91443 220.09402 440.18296 L 223.41031 442.39213 L 225.19288 438.82699 C 225.48942 438.23391 226.03471 437.36428 226.82309 436.31311 C 227.59035 435.2901 228.45809 434.28707 229.43854 433.30661 C 230.44663 432.29852 231.44538 431.40354 232.42473 430.62006 L 232.43489 430.6099 L 232.44504 430.59975 C 233.39033 429.8317 234.17618 429.40506 234.68468 429.22346 L 237.02081 428.3855 L 237.02081 421.91035 L 234.28856 421.27554 C 233.76251 421.15414 233.46827 421.00615 233.23222 420.86925 C 233.23622 420.86325 233.11332 420.71213 232.94274 420.19888 C 232.86614 419.93684 232.78977 419.62858 232.71421 419.27967 L 240.7891 419.27967 C 240.6913 421.31304 240.56661 423.12212 240.41836 424.70355 C 240.00722 429.089 239.14431 432.22619 238.21427 433.93127 L 233.65374 442.29564 L 242.55643 438.90317 C 243.79636 438.43082 245.29451 438.04636 247.05094 437.78589 L 247.05602 437.78589 C 248.95635 437.51518 250.61546 437.38976 251.99745 437.38976 C 253.98752 437.38976 256.3971 437.67488 259.17851 438.28359 C 262.067 438.98928 265.10674 439.83969 268.29958 440.83302 L 269.93995 441.34087 L 271.35178 440.35563 C 272.89286 439.28358 274.54484 438.27834 276.30337 437.32882 C 278.17372 436.43048 280.04503 435.59508 281.91008 434.83525 C 283.78448 434.0716 285.61491 433.41912 287.39999 432.86986 C 289.18204 432.32154 290.79568 431.91681 292.22969 431.65608 L 297.05938 430.7775 L 294.67755 426.48612 C 294.5727 426.29738 294.35026 425.74441 294.17985 424.90162 C 293.99815 423.92602 293.82532 422.54959 293.68723 420.82355 C 293.64843 420.33905 293.61446 419.82531 293.58058 419.27967 L 301.44725 419.27967 L 301.44725 425.47042 C 301.44725 430.6232 302.92313 435.39151 305.84527 439.345 L 306.90161 440.77207 L 309.74051 440.77207 L 310.23313 440.61972 C 312.36709 439.97953 314.42434 439.41321 316.40356 438.9184 C 318.32541 438.43794 320.40528 438.02334 322.64002 437.67416 L 325.61605 437.20693 L 325.61605 430.11221 L 323.38656 429.28948 L 323.38656 429.2844 C 323.35516 429.2236 323.29327 429.08525 323.1885 428.80194 C 322.92602 428.09228 322.67049 426.63674 322.67049 424.59691 L 322.67049 419.27967 L 332.4924 419.27967 L 332.4924 439.39579 C 331.60631 443.18086 330.38311 446.72257 328.80029 450.02011 L 328.79522 450.03534 L 328.79014 450.0455 C 327.1407 453.55057 325.06593 457.08539 322.55368 460.64442 L 320.41054 463.67632 L 329.99375 469.69947 L 331.96423 467.30748 C 333.91452 464.93927 335.92338 462.75764 337.99754 460.75107 C 340.09171 458.7977 342.10528 457.06579 344.03085 455.55064 C 346.03115 454.10527 347.91272 452.87044 349.65788 451.86362 C 351.39904 450.85911 352.91682 450.16449 354.14224 449.75602 L 356.54947 448.95361 L 356.54947 444.52004 L 355.51852 443.49417 C 355.23252 443.20815 354.99462 442.85522 354.78721 442.31595 C 354.57762 441.77103 354.31224 440.71686 354.11685 439.28406 L 354.11685 439.2739 L 354.11177 439.26375 C 353.92102 437.92852 353.78081 436.15533 353.71056 434.00237 L 353.71056 425.68879 L 353.71056 419.27967 L 361.10493 419.27967 C 361.07233 421.10265 361.00817 422.92621 360.91702 424.74926 C 360.78447 427.32283 360.38382 429.33914 359.84037 430.7521 L 358.0324 435.44468 L 363.06524 435.53101 C 367.05701 435.59981 370.523 436.049 373.45595 436.83112 L 373.46611 436.8362 L 373.47626 436.8362 C 376.51978 437.63017 379.24574 438.77661 381.70351 440.26422 L 384.29864 441.82841 L 390.57065 434.28169 C 390.80069 434.61771 390.92358 434.97427 391.16992 435.30756 C 392.61523 437.26297 394.28981 438.90935 396.1926 440.17788 L 399.51397 442.39213 L 401.29654 438.82699 C 401.59308 438.23391 402.13837 437.3592 402.92675 436.30803 C 403.69401 435.28502 404.56174 434.28199 405.5422 433.30153 C 406.55029 432.29344 407.54905 431.39846 408.52839 430.61498 L 408.53854 430.6099 L 408.5487 430.59975 C 409.49399 429.8317 410.27477 429.39998 410.78326 429.21838 L 413.11939 428.3855 L 413.11939 421.90528 L 410.39221 421.27554 C 409.86685 421.1543 409.57198 421.00602 409.33588 420.86925 L 409.33588 420.86417 C 409.33674 420.85517 409.21523 420.70176 409.0464 420.19381 C 408.97 419.93223 408.89328 419.62783 408.81786 419.27967 L 417.70532 419.27967 L 417.70532 425.57706 C 417.70532 427.2477 417.46369 428.38776 417.24825 428.89843 C 417.14222 429.14978 417.09464 429.24714 417.07558 429.27425 L 417.0705 429.27932 L 417.06542 429.27932 L 417.06542 429.27425 L 417.06034 429.27425 L 417.06034 429.26917 L 417.06034 429.26409 L 417.06034 429.25901 L 417.05526 429.25901 L 414.75976 430.11221 L 414.75976 437.71479 L 441.87412 437.71479 L 441.87412 430.11221 L 439.64464 429.2844 C 439.61344 429.2239 439.55174 429.08623 439.44657 428.80194 C 439.18409 428.09228 438.92348 426.63675 438.92348 424.59691 L 438.92348 414.74453 C 439.56884 415.068 440.29435 415.33902 440.91427 415.67898 L 440.9549 415.69929 L 440.99553 415.71961 C 442.59801 416.5467 444.16984 417.5735 445.74397 418.60422 L 445.74397 425.68879 C 445.74397 426.9473 445.67801 428.33382 445.54083 429.84304 C 445.40059 431.38577 445.2271 432.88727 445.01774 434.35279 C 444.81723 435.75637 444.55205 437.07822 444.22549 438.31914 L 444.20517 438.40547 L 444.18486 438.49181 C 443.92148 439.74288 443.63249 440.73952 443.36213 441.44244 L 442.08742 444.75365 L 448.40513 447.12533 L 450.00487 445.52051 C 450.73343 444.79195 451.67182 443.98119 452.79807 443.11836 C 454.01841 442.239 455.34602 441.35605 456.78981 440.46228 C 458.26167 439.55113 459.77036 438.67401 461.31479 437.8316 C 462.8461 436.99634 464.29056 436.27056 465.65187 435.65798 L 468.25716 434.48991 L 467.64774 431.69671 C 467.2318 429.79524 466.96721 426.74004 466.96721 422.73816 C 466.96721 420.78109 467.00211 419.0957 467.06878 417.65961 C 467.20372 416.26507 467.40162 414.86855 467.66805 413.46981 L 468.1302 411.03719 L 465.99721 409.77771 C 463.36273 408.22801 460.51342 406.84565 457.46018 405.62346 C 457.16118 405.50089 456.80324 405.4064 456.49525 405.28827 L 466.31208 401.57586 L 465.5503 398.53889 C 465.5136 398.39204 465.38832 397.58822 465.32176 396.45668 C 465.25166 395.26459 465.22019 394.30108 465.22019 393.60762 C 465.22019 390.88294 465.52743 388.6767 466.04292 387.01567 L 467.19575 383.29817 L 463.38684 382.52623 C 459.58622 381.75203 456.36002 380.91229 453.71221 380.03267 C 451.19676 379.10211 448.98389 377.99266 447.06947 376.71638 L 444.66732 375.11663 L 442.63082 377.15821 C 441.24535 378.54367 440.08198 379.58566 438.92348 380.62686 L 438.92348 365.24394 C 438.92348 361.05673 439.22131 357.75325 439.71574 355.44742 C 440.28019 353.15282 441.07813 351.51613 441.9503 350.45014 L 437.67924 345.0618 C 434.54978 346.59176 431.78854 347.67178 429.44692 348.32223 C 427.0794 348.97987 424.95488 349.28715 423.07842 349.28715 C 421.25221 349.28715 419.93811 349.03677 419.2238 348.75898 L 409.64059 345.03641 L 414.93243 353.85276 C 415.46872 354.74658 415.86648 355.6036 416.14113 356.42758 L 416.1716 356.52408 L 416.21223 356.62057 C 416.55351 357.47377 416.8151 358.40328 416.99432 359.41885 L 417.00956 359.51534 L 417.03495 359.61183 C 417.26688 360.59753 417.42775 361.77125 417.49202 363.12111 L 417.49202 363.20236 L 417.50218 363.28362 C 417.63416 364.66937 417.70533 366.31253 417.70532 368.1895 L 417.70532 414.74453 L 408.23891 414.74453 C 408.15021 412.92961 408.10179 410.64633 408.10179 407.90373 C 408.10179 402.68362 408.25425 398.75021 408.51823 396.21799 C 408.83247 393.86615 409.4604 392.20658 410.19923 391.14452 L 414.04369 385.61907 L 407.30954 385.61907 C 404.01601 385.61907 401.40364 385.06501 399.37177 384.11582 C 397.29136 383.03616 395.15346 381.36863 392.99311 379.01188 L 392.64269 378.63099 L 392.64269 368.93096 C 393.88949 367.80013 395.09017 366.71351 396.24338 365.67562 C 397.6427 364.41624 398.91953 363.35013 400.06245 362.47613 L 400.11324 362.4355 L 400.16402 362.39488 C 401.35572 361.41348 402.25904 360.72734 402.71345 360.4244 L 407.45173 357.26554 L 402.51031 354.44187 C 402.12754 354.22314 401.39504 353.76937 400.46366 353.17224 C 399.56429 352.48222 398.60767 351.77185 397.5892 351.02401 C 396.6305 350.27075 395.71459 349.51394 394.82647 348.76406 C 394.07292 348.07013 393.54469 347.50026 393.32322 347.20495 L 389.90536 342.64949 z M 422.76355 354.07114 L 422.78386 354.13208 L 422.80418 354.17779 C 422.79668 354.16264 422.79076 354.14729 422.78386 354.13208 C 422.78157 354.12701 422.77548 354.12205 422.77371 354.11685 C 422.76761 354.10125 422.76755 354.08765 422.76355 354.07114 z M 438.92348 395.27846 L 445.75921 396.63443 L 438.92348 399.40732 L 438.92348 395.27846 z M 271.86472 398.10213 C 271.81592 398.8422 271.77131 399.48548 271.72252 400.26559 L 271.71744 400.31638 L 271.71744 400.37224 C 271.64354 402.73636 271.60571 405.10278 271.60571 407.46697 L 271.60571 415.36919 L 271.60571 415.41489 C 271.65641 417.29002 271.75138 418.58924 271.83932 419.98051 C 271.18689 420.42338 270.5399 420.75503 269.86885 421.30601 C 269.18268 421.83252 268.68382 422.3254 268.10151 422.82957 C 266.77281 422.4727 265.50039 422.103 263.90156 421.79355 C 262.98244 421.61566 262.37596 421.59712 261.57558 421.4736 C 261.74849 419.87274 262.00931 418.49431 262.05297 416.52202 C 262.19984 413.12704 262.27642 409.42106 262.27642 405.39492 L 262.27642 401.03753 C 262.61713 400.88285 262.77515 400.7643 263.19564 400.60078 L 263.2769 400.5703 L 263.35307 400.53476 C 264.49657 400.02654 265.76116 399.56958 267.14675 399.1737 C 268.56071 398.76971 270.00966 398.43387 271.49906 398.16307 L 271.55493 398.15292 L 271.61587 398.13768 C 271.70567 398.11818 271.77564 398.12063 271.86472 398.10213 z M 210.88662 414.775 L 210.88662 421.16889 C 209.99371 421.05114 208.9261 420.78626 208.11881 420.75245 L 208.11373 420.75245 C 207.61094 420.73055 207.13632 420.68465 206.64095 420.65595 L 206.73744 415.8161 C 207.55956 415.64793 208.25858 415.58142 209.17515 415.34379 L 209.23609 415.32856 L 209.29703 415.31332 C 209.81175 415.16081 210.36402 414.94129 210.88662 414.775 z M 386.99027 414.775 L 386.99027 421.16889 C 386.09736 421.05114 385.02975 420.78626 384.22247 420.75245 L 384.21739 420.75245 C 383.71505 420.73055 383.23954 420.68455 382.74461 420.65595 L 382.8411 415.82118 C 383.66333 415.65299 384.36209 415.58146 385.2788 415.34379 L 385.33975 415.32856 L 385.40069 415.31332 C 385.91484 415.16098 386.46826 414.94109 386.99027 414.775 z " /></g></g></svg>
