<?xml version="1.0" encoding="UTF-8" standalone="no"?>
<svg
   version="1.2"
   viewBox="0 0 570 570"
   width="570"
   height="570"
   id="svg1"
   sodipodi:docname="ZabijakRoleTokenLaser.svg"
   inkscape:version="1.4.2 (2aeb623e1d, 2025-05-12)"
   xml:space="preserve"
   xmlns:inkscape="http://www.inkscape.org/namespaces/inkscape"
   xmlns:sodipodi="http://sodipodi.sourceforge.net/DTD/sodipodi-0.dtd"
   xmlns="http://www.w3.org/2000/svg"
   xmlns:svg="http://www.w3.org/2000/svg"><sodipodi:namedview
     id="namedview1"
     pagecolor="#ffffff"
     bordercolor="#666666"
     borderopacity="1.0"
     inkscape:showpageshadow="2"
     inkscape:pageopacity="0.0"
     inkscape:pagecheckerboard="0"
     inkscape:deskcolor="#d1d1d1"
     inkscape:zoom="1.1906642"
     inkscape:cx="161.25453"
     inkscape:cy="343.92568"
     inkscape:window-width="1920"
     inkscape:window-height="940"
     inkscape:window-x="0"
     inkscape:window-y="0"
     inkscape:window-maximized="1"
     inkscape:current-layer="layer1"
     showgrid="false" /><defs
     id="defs1"><clipPath
       clipPathUnits="userSpaceOnUse"
       id="cp1"><path
         d="m 275.5,535.5 c -143.78,0 -260,-116.22 -260,-260 0,-143.78 116.22,-260 260,-260 143.78,0 260,116.22 260,260 0,143.78 -116.22,260 -260,260 z"
         id="path1" /></clipPath></defs><style
     id="style1">
		tspan { white-space:pre } 
		.s0 { fill: none;stroke: #ff0000;stroke-miterlimit:100 } 
	</style><g
     inkscape:groupmode="layer"
     id="layer1"
     inkscape:label="Template"><path
       id="Path 0 copy"
       class="s0"
       d="m 253.96776,1.9812412 c -4.83809,0.7256238 -12.51049,1.8658898 -17.06826,2.5396834 -4.54737,0.6737937 -14.55576,2.8299332 -22.23856,4.8098491 -7.68279,1.9695513 -20.01678,5.7427953 -27.40888,8.3757733 -7.40247,2.632979 -20.89926,8.551995 -30.00441,13.164891 -9.10514,4.602528 -22.37354,12.263042 -29.48531,17.021062 -7.11177,4.747653 -17.57697,12.48073 -23.26639,17.176553 -5.689435,4.695823 -15.573238,13.828318 -21.968643,20.296736 -6.385022,6.468418 -15.147556,16.191781 -19.456148,21.592491 -4.318975,5.41108 -11.576098,15.42469 -16.133862,22.24555 -4.547382,6.83124 -12.178261,20.3382 -16.95405,30.00974 -5.533687,11.2368 -10.714379,23.75899 -14.316985,34.66408 -3.114645,9.39165 -6.8418376,22.43215 -8.2953386,28.97313 -1.453501,6.54097 -3.5922235,19.22903 -4.7446423,28.19566 -1.3912082,10.80144 -2.09719388,22.31812 -2.10757603,34.1458 0,12.12828 0.67483933,22.9919 2.10757603,33.88662 1.162801,8.82153 3.3222877,21.39554 4.7861709,27.93654 1.4638831,6.55133 4.44356,17.48752 6.623812,24.31875 2.180251,6.83123 6.104705,17.53937 8.721006,23.80046 2.616301,6.2611 7.57897,16.73082 11.015462,23.28217 3.446873,6.54098 9.676163,17.02106 13.86017,23.28215 4.173624,6.2611 11.119282,15.79787 15.427874,21.20896 4.308592,5.40071 13.071127,15.12406 19.466531,21.60285 6.385023,6.47879 16.279208,15.58018 21.968643,20.23455 5.68942,4.64399 13.36182,10.563 17.06825,13.15452 3.69605,2.59151 11.60724,7.66051 17.57698,11.25753 5.98013,3.6074 16.92291,9.43312 24.315,12.96793 7.39209,3.52447 18.80207,8.31359 25.34283,10.63558 6.54075,2.322 18.17914,5.82573 25.86193,7.7849 7.6828,1.94883 22.34238,4.7684 32.58957,6.24037 14.74265,2.1354 22.60194,2.69517 37.7495,2.69517 15.15794,0 23.01723,-0.55977 37.75988,-2.69517 10.24718,-1.47197 24.90677,-4.29154 32.58957,-6.24037 7.68278,-1.95917 19.31079,-5.4629 25.86193,-7.7849 6.54076,-2.32199 17.94035,-7.11111 25.34283,-10.63558 7.39208,-3.53481 18.33487,-9.36053 24.30461,-12.96793 5.98012,-3.59702 13.89132,-8.66602 17.58736,-11.25753 3.69605,-2.59152 11.37883,-8.51053 17.06826,-13.1649 5.68942,-4.65435 15.57322,-13.76612 21.95824,-20.23454 6.39541,-6.46842 15.14756,-16.19177 19.46654,-21.59248 4.30859,-5.41109 11.42035,-15.18628 15.79125,-21.72725 4.37088,-6.55136 11.24387,-18.42049 15.27214,-26.39199 4.02828,-7.96113 9.22972,-19.37415 11.5657,-25.345 2.336,-5.98121 5.92822,-16.45093 7.99426,-23.28216 2.06605,-6.83123 4.88999,-18.23389 6.27083,-25.35538 1.39121,-7.1111 3.22885,-18.75218 4.08018,-25.86329 0.86172,-7.11113 1.5677,-20.84614 1.5677,-30.52804 0,-9.81665 -0.70598,-23.07484 -1.59885,-30.00973 -0.8721,-6.82087 -2.30483,-16.368 -3.16655,-21.20894 -0.86172,-4.83059 -2.907,-13.91125 -4.54739,-20.17235 -1.64037,-6.2611 -4.91075,-16.96923 -7.27788,-23.80045 -2.35675,-6.83125 -8.17076,-20.33822 -12.9154,-30.00974 -4.74463,-9.67154 -12.35476,-23.1785 -16.90213,-30.00974 -4.55776,-6.82086 -11.81489,-16.83447 -16.13386,-22.24555 C 502.62025,101.55757 493.85772,91.844574 487.47269,85.386521 481.08767,78.918102 471.20387,69.816706 465.51445,65.151982 459.82502,60.487257 452.14224,54.557873 448.44619,51.96636 444.75015,49.374846 436.83895,44.31621 430.85883,40.708823 424.88909,37.101437 413.9463,31.275712 406.55422,27.751254 399.15174,24.226796 387.75215,19.448044 381.21139,17.136415 374.66025,14.814417 363.95626,11.528378 357.4155,9.8179792 350.87475,8.1075792 341.33354,5.9929045 336.20478,5.1325219 331.08637,4.2617733 321.77358,2.8416237 315.52353,1.970875 308.01724,0.92390344 297.0952,0.4366989 283.45307,0.52999334 272.07423,0.60255536 258.80584,1.2556173 253.96776,1.9812412 Z"
       style="stroke-width:1.03741;stroke:#000000;stroke-opacity:1"
       inkscape:label="vnejsi kruh" /><path
       id="Path 0"
       class="s0"
       d="m 265.85013,27.483209 c -2.18288,0.208543 -7.78893,0.873904 -12.44244,1.459816 -4.66343,0.595844 -10.93427,1.539263 -13.95061,2.105316 -3.00642,0.556121 -11.52961,2.512475 -18.92164,4.359591 -7.39203,1.837184 -19.05063,5.451972 -25.89695,8.02403 -6.84631,2.57206 -17.3837,7.150127 -23.40647,10.159138 -6.0327,3.018944 -15.43895,8.192855 -20.916,11.499788 -5.47708,3.306933 -13.55374,8.70925 -17.92944,12.016186 -4.3856,3.306932 -11.77765,9.245508 -16.44107,13.188011 -4.65352,3.942499 -11.62883,10.476915 -15.49848,14.508775 -3.869674,4.04181 -10.37864,11.38062 -14.466589,16.3162 -4.087947,4.93557 -11.023564,14.35985 -15.419103,20.93398 -4.395538,6.58408 -10.735823,17.34899 -14.089528,23.93306 -3.353706,6.57416 -8.11636,16.89217 -10.596914,22.93007 -2.480545,6.02794 -6.121992,16.57439 -8.096512,23.42659 -1.974519,6.8522 -4.663441,18.29241 -5.983092,25.42266 -1.309727,7.12034 -2.847671,18.34207 -3.423155,24.91621 -0.575495,6.58408 -1.051758,16.67371 -1.051758,22.43353 0,5.75981 0.476263,15.84945 1.051758,22.43353 0.575484,6.57413 2.113428,17.78593 3.423155,24.9162 1.319651,7.13027 3.939113,18.34205 5.824335,24.92612 1.895135,6.57415 5.308376,16.67372 7.590486,22.43353 2.2821,5.7499 7.163825,16.29634 10.84497,23.42659 3.67121,7.12033 10.239712,18.34207 14.575715,24.91621 4.336003,6.58408 12.214231,17.12058 17.512683,23.4266 5.288538,6.30602 13.375129,15.05499 17.969109,19.44437 4.58407,4.38938 12.15471,11.04297 16.8082,14.78686 4.65353,3.73396 13.39498,10.09956 19.42768,14.14137 6.02278,4.03186 17.00667,10.48684 24.3987,14.33997 7.39205,3.84318 19.49714,9.28524 26.88918,12.0857 7.40195,2.80046 19.50706,6.62379 26.89909,8.49077 7.39203,1.86697 19.49713,4.38939 26.88918,5.60094 11.27161,1.83718 17.40353,2.19469 37.85319,2.19469 20.44967,0 26.58159,-0.35751 37.85321,-2.19469 7.39205,-1.21155 19.49713,-3.73397 26.88916,-5.60094 7.39204,-1.86698 19.49714,-5.69031 26.8991,-8.49077 7.39204,-2.80046 19.26892,-8.12334 26.39306,-11.81756 7.12415,-3.70418 18.09812,-10.15915 24.3987,-14.33999 6.3006,-4.18084 15.27028,-10.63581 19.92379,-14.33997 4.65352,-3.70417 13.6331,-11.92681 19.95354,-18.27255 6.32045,-6.34574 14.53603,-15.35292 18.26677,-20.01042 3.73076,-4.66745 10.34887,-13.86331 14.71463,-20.43745 4.36577,-6.58407 11.47009,-19.14645 15.78624,-27.91529 4.30622,-8.76883 9.48563,-20.43745 11.4899,-25.91921 2.01421,-5.48175 5.14963,-15.79979 6.96539,-22.93006 1.81576,-7.13026 4.33601,-19.46424 5.5862,-27.40881 1.90506,-12.0559 2.28212,-18.352 2.28212,-37.88574 0,-19.30534 -0.38698,-25.88942 -2.20273,-37.3892 -1.21051,-7.67646 -3.72083,-20.01044 -5.58621,-27.40883 -1.85545,-7.40833 -5.01072,-17.94482 -7.015,-23.42659 -2.00427,-5.48177 -7.29282,-17.37878 -11.74788,-26.42567 -4.45507,-9.04691 -11.57922,-21.59935 -15.816,-27.90537 -4.23677,-6.306 -10.76558,-15.26354 -14.50626,-19.90119 -3.74068,-4.63763 -10.37863,-12.21479 -14.76424,-16.8425 -4.38562,-4.62771 -11.77765,-11.628879 -16.43117,-15.551517 -4.66342,-3.932571 -12.05548,-9.851287 -16.44108,-13.158219 -4.37569,-3.306936 -12.45237,-8.709253 -17.92943,-12.016186 -5.47706,-3.306933 -14.88331,-8.480844 -20.916,-11.499788 -6.02278,-3.009011 -16.56016,-7.587078 -23.40649,-10.159138 -6.8463,-2.572058 -18.50491,-6.196777 -25.89695,-8.043892 -7.39203,-1.847117 -16.13349,-3.8134 -19.41774,-4.379453 -3.29417,-0.566051 -8.89029,-1.519402 -12.45236,-2.105315 -3.56207,-0.595842 -15.88545,-1.241341 -27.39521,-1.439955 -11.49984,-0.198616 -22.71193,-0.188684 -24.90474,0.01985 z"
       style="stroke-width:0.992647;stroke:#000000;stroke-opacity:1"
       inkscape:label="vnitrni kruh" /><g
       inkscape:groupmode="layer"
       id="layer3"
       inkscape:label="Positions"
       style="display:none"><rect
         style="display:inline;fill:#ff2121;fill-opacity:0.107692;stroke:#000000;stroke-width:1.05245;stroke-opacity:1"
         id="rect1"
         width="300"
         height="300"
         x="135"
         y="80.172386" /><rect
         style="display:inline;fill:#de0000;fill-opacity:0.0923077;stroke:#000000;stroke-width:1.00157;stroke-opacity:1"
         id="rect2"
         width="300"
         height="83.006134"
         x="135"
         y="401.53375" /></g><text
       xml:space="preserve"
       style="font-size:109.103px;font-family:'Didact Gothic';-inkscape-font-specification:'Didact Gothic';text-align:start;letter-spacing:2.02104px;writing-mode:lr-tb;direction:ltr;text-anchor:start;display:none;fill:#de0000;fill-opacity:0.0923077;stroke:#000000;stroke-width:7.03727;stroke-dasharray:none;stroke-opacity:1"
       x="87.22261"
       y="431.29196"
       id="text2"
       inkscape:label="Text"><tspan
         sodipodi:role="line"
         id="tspan2"
         x="87.22261"
         y="431.29196"
         style="font-style:normal;font-variant:normal;font-weight:normal;font-stretch:normal;font-family:'New Rocker';-inkscape-font-specification:'New Rocker';letter-spacing:2.02104px;fill:#000000;fill-opacity:1;stroke:#000000;stroke-width:7.03727;stroke-dasharray:none;stroke-opacity:1">Hrobník</tspan></text><path
       id="path4"
       style="display:none;stroke-width:8.05907"
       d="m 276.32799,515.95806 h 15.42748 v 4.53544 h -15.42748 z"
       inkscape:label="spojovnik pismen" /></g><g
     inkscape:groupmode="layer"
     id="layer2"
     inkscape:label="Content"
     style="display:inline"><g
       id="path1-91"
       style="opacity:1"><path
         id="path7"
         style="baseline-shift:baseline;display:inline;overflow:visible;stroke-width:1;enable-background:accumulate;stop-color:#000000;stop-opacity:1;stroke:#000000;stroke-opacity:1;fill:none;stroke-dasharray:none"
         d="m 381.79049,81.233856 c -1.19012,0.615756 -2.26147,1.390435 -3.75697,2.526605 -2.99099,2.27234 -7.36024,5.925572 -13.52043,11.261216 -9.89206,8.567993 -16.14251,14.203533 -20.30003,18.575583 -4.15753,4.37205 -6.38393,7.74568 -7.43838,11.26509 -0.47846,1.59697 -3.81163,5.96835 -7.10122,8.58154 -1.43027,1.13618 -2.6994,1.82742 -3.59034,2.23597 -1.63692,-1.58612 -3.55752,-2.20495 -5.50079,-2.76493 -2.56639,-0.73952 -5.16487,-1.33224 -8.33547,0.11238 -0.38318,0.17459 0.4456,0.14561 -0.26544,-0.0465 -0.71106,-0.1921 -2.54566,-0.96897 -5.58605,-2.50142 -7.03272,-3.5447 -18.25035,-8.0183 -23.98918,-9.25388 -0.43183,-0.093 -3.8152,-0.98164 -6.65947,-1.79226 -12.01926,-3.4255 -22.84542,-4.96084 -40.24547,-5.76818 -4.93629,-0.22903 -9.54568,-0.51096 -12.94886,-0.77503 -1.70158,-0.13203 -3.10718,-0.26125 -4.05535,-0.37007 -0.47409,-0.0544 -0.8413,-0.10485 -1.00948,-0.1337 -0.0841,-0.0144 -0.12299,-0.0266 -0.0407,-0.006 0.0823,0.0207 0.16223,-0.09 1.05404,0.46115 -1.70105,-1.0513 -3.1707,-0.94328 -4.36343,-0.70335 -1.19274,0.23995 -2.24885,0.72778 -3.23964,1.55006 1.49801,-1.24323 0.67073,-0.38786 -0.28095,-0.27706 -0.95167,0.11079 -2.3399,0.15728 -3.76084,0.0833 -2.09539,-0.10908 -3.0035,-0.2993 -3.24738,-0.35264 -0.75849,-1.62652 -1.12306,-3.15913 -3.69304,-4.50875 -1.3596,-0.714 -3.14991,-0.71099 -4.21036,-0.43014 -1.06044,0.28084 -1.70779,0.6484 -2.37159,1.00366 -2.53269,1.35545 -4.6897,4.686 -4.24524,7.76195 0.43352,3.00029 2.21687,5.04211 4.41381,6.91716 -0.11314,0.5437 -0.24148,1.09691 -0.14338,1.67214 0.26322,1.54367 1.10661,2.44667 1.6915,2.96255 0.58489,0.51589 1.06852,0.78357 1.54813,1.0308 1.91842,0.9889 4.16263,1.64407 8.14947,2.83855 0.97437,0.29193 1.34311,0.51204 1.54425,0.62584 0.0525,0.26318 0.0748,0.48177 0.18794,0.84866 0.10954,0.35518 0.18359,0.80087 0.82541,1.64694 0.0685,0.0902 0.28342,0.19973 0.37201,0.30032 l -2.19528,14.81087 7.68444,-9.24808 c 0.45938,1.1041 1.09753,2.13801 2.11197,3.15245 0.0857,0.0857 0.41464,1.77385 0.41464,0.28483 0,1.88931 0.32751,2.58326 0.7169,4.16192 0.38941,1.57865 0.90979,3.43851 1.48806,5.28572 1.0977,3.50637 2.96365,9.50978 4.14061,13.32086 0.60944,1.97338 1.24331,3.86952 1.79421,5.39423 0.27545,0.76235 0.52818,1.4274 0.76534,1.99958 0.23716,0.57217 0.1773,0.7734 0.96492,1.85427 -0.75344,-1.03397 -0.25023,-0.41138 -0.0736,0.0465 0.1766,0.45788 0.42459,1.1528 0.70721,1.98602 0.56524,1.66644 1.27677,3.90072 1.99571,6.26032 1.43789,4.71922 2.93879,10.09925 3.41401,12.32883 1.0041,4.71078 3.68459,13.79926 6.25645,21.42964 0.4589,1.36147 0.89501,2.93753 1.19937,4.27236 0.30436,1.33483 0.43983,2.64594 0.43983,2.51885 0,2.84591 0.77978,5.41824 1.8562,7.99446 0.13655,0.3268 0.16052,0.50527 0.25189,0.79635 -0.25436,0.28273 -0.48775,0.53375 -0.77504,0.86415 -1.01333,1.16542 -2.22442,2.61358 -3.43727,4.09993 -1.21284,1.48635 -2.42208,3.0044 -3.42176,4.3053 -0.99969,1.3009 -1.68103,2.15331 -2.31348,3.2532 0.17677,-0.30742 -0.24144,0.35496 -0.77115,1.06566 -0.52971,0.71071 -1.27194,1.6778 -2.17784,2.84437 -1.8118,2.33316 -4.28805,5.46585 -7.16323,9.06207 -5.75037,7.19244 -13.10163,16.25275 -20.01908,24.63439 -13.09061,15.86146 -19.1558,23.08089 -22.28411,27.5427 -3.12831,4.46182 -3.23576,7.87791 -3.23576,10.24012 v 9.56002 h 8.83923 c 4.1287,0 8.40995,-1.47501 12.59622,-4.91759 4.18626,-3.44256 8.83716,-8.73238 15.94241,-17.34327 17.92888,-21.72814 25.719,-30.77431 39.73977,-46.15122 l 10.79038,-11.83475 2.80368,0.29646 c 3.22209,0.33953 11.53788,0.78644 19.2363,1.07729 7.41055,0.27997 21.51121,1.39697 30.91603,2.45879 4.80566,0.54256 9.63652,1.03627 13.57275,1.39699 3.93623,0.36072 6.72035,0.59815 8.42265,0.60259 0.76244,0.002 1.64573,0.12756 2.24567,0.28676 0.59993,0.15921 0.94889,0.60981 0.23832,-0.10075 1.9199,1.91991 4.3725,2.5261 6.95785,2.75912 2.58534,0.23301 5.59375,0.0842 9.46895,-0.32164 0.56807,-0.0595 0.5659,-0.0356 0.9591,-0.0504 0.22885,0.18588 0.43585,0.45956 0.66654,0.57159 1.06797,0.51857 1.82314,0.4902 2.34252,0.46114 0.91343,-0.0511 1.39233,-0.19184 1.80777,-0.3507 0.50503,1.27225 1.1422,2.6534 1.86589,4.07473 1.47567,2.89819 3.14843,5.80299 4.93114,7.94601 0.48172,0.57908 0.8715,1.04507 1.31756,1.50745 0.44606,0.46236 0.53693,1.1254 2.67773,1.70119 0.7531,0.20255 1.93583,-0.006 3.00906,-0.42046 2.33435,1.79912 4.67423,3.16671 7.55657,3.22413 1.89354,0.0377 4.21494,-0.80801 5.59379,-2.48591 1.37885,-1.6779 1.76707,-3.65451 1.76707,-5.51435 0,-1.43925 0.16435,-3.13841 -1.45124,-5.12491 -0.8078,-0.99324 -2.03026,-1.65477 -2.97807,-1.9182 -0.9478,-0.26342 -1.68249,-0.28094 -2.3619,-0.28094 -0.15901,0 -0.32442,0.19324 -1.22456,-1.49388 -0.90013,-1.68712 -1.82883,-4.94185 -2.27278,-9.3682 -0.29425,-2.93393 -1.16544,-7.53059 -2.04609,-11.0539 -0.80363,-3.21526 -2.4658,-10.149 -3.66977,-15.30882 -3.73435,-16.00415 -9.30035,-30.29576 -17.2464,-44.26789 -1.64431,-2.89131 -4.1407,-6.80048 -6.55871,-10.38931 -2.418,-3.58883 -4.52292,-6.61094 -6.15375,-8.42266 -0.0367,-0.0408 -0.0184,-0.0235 -0.0484,-0.0581 0.0122,-0.0334 0.003,-0.0141 0.0175,-0.0523 0.5723,-1.5053 0.95203,-3.9463 0.25963,-5.96581 -0.6924,-2.0195 -1.77665,-3.39653 -3.30745,-5.40197 -0.91388,-1.19725 -1.45222,-2.11819 -1.7322,-2.69712 0.56285,-1.01549 2.12527,-3.46757 4.02823,-5.6616 1.10506,-1.2741 2.26437,-2.47435 3.23576,-3.3559 0.97139,-0.88154 1.94752,-1.43762 1.67407,-1.32336 2.25114,-0.94059 3.70521,-2.33925 5.60155,-4.22974 1.89633,-1.89049 3.98097,-4.28873 6.19444,-7.10898 4.88344,-6.22215 11.42499,-15.54052 16.82014,-23.67917 2.69756,-4.069328 5.0971,-7.829756 6.86291,-10.780697 0.88289,-1.47547 1.60429,-2.738934 2.15458,-3.81122 0.27514,-0.536143 0.50798,-1.017768 0.71496,-1.532625 0.207,-0.514859 2.03105,-4.876169 2.65674,-6.54163 0.28614,-0.761674 3.01217,-7.393556 2.47169,-7.813449 -0.54425,-0.422827 -6.10558,3.94328 -7.6073,4.760664 0,0 -3.92468,3.001135 -4.51974,3.309013 z m -152.60382,52.277854 5.69649,0.31971 c 15.96732,0.89441 36.06247,5.19701 47.52883,10.02504 2.4679,1.03912 7.67216,3.5761 12.22227,5.9193 2.24957,1.15849 4.35347,2.27678 5.94643,3.15826 -1.81481,2.57662 -3.32919,5.15736 -4.34987,7.62825 -1.14755,2.77806 -1.94643,5.34267 -1.36987,8.35872 0.0956,0.50036 0.0577,0.36211 0.0465,0.39334 -0.0112,0.0312 -0.17928,0.40223 -0.88355,1.15867 -1.80658,1.94043 -4.09546,5.06656 -5.81854,7.78132 -3.87966,6.11245 -15.91033,21.19121 -25.58576,31.85575 -3.97556,4.38201 -7.36845,8.17372 -9.74408,10.84658 -1.63564,-4.83247 -3.58223,-10.96154 -7.45194,-24.65958 -1.16204,-4.1134 -3.00358,-10.51629 -4.10767,-14.28191 -0.52038,-1.77479 -1.00019,-3.63674 -1.33693,-5.13265 -0.33674,-1.49591 -0.47664,-3.08478 -0.47664,-2.47041 0,-1.717 -0.30361,-2.68736 -0.68203,-4.35569 -0.37842,-1.66831 -0.88426,-3.6034 -1.44931,-5.49691 -3.51407,-11.77567 -7.38714,-26.85292 -8.18434,-31.04779 z m -14.15403,5.61705 c 0.43915,0.14166 0.86215,0.34877 1.3195,0.34877 -0.47869,0 -0.90232,-0.18154 -1.32531,-0.34296 z m 114.83652,38.78067 1.22648,1.33112 c 9.00152,9.76403 19.66679,28.52896 24.62083,43.64012 1.32648,4.0461 2.81938,9.49739 3.9546,14.24121 0.56762,2.37191 1.04856,4.57417 1.37762,6.31845 0.10804,0.57267 0.0852,0.58977 0.15501,1.06374 -1.17329,0.0553 -1.95029,0.12982 -5.46786,0.12982 -2.76166,0 -5.33184,-0.0544 -7.18067,-0.13758 -0.92441,-0.0416 -1.67901,-0.0922 -2.1139,-0.13563 -0.0721,-0.007 -0.0524,-0.007 -0.10463,-0.0136 -0.23631,-0.0774 -0.40125,-0.11667 -0.53089,-0.14532 -0.28586,-0.0632 -0.48478,-0.0926 -0.70528,-0.124 -0.441,-0.0629 -0.92927,-0.11602 -1.53456,-0.17438 -1.21061,-0.11675 -2.84845,-0.2456 -4.84201,-0.38365 -3.98715,-0.27608 -9.37821,-0.58755 -15.2507,-0.86997 -25.71319,-1.23658 -43.558,-2.4577 -50.40421,-3.23964 0.7201,-1.01791 1.25725,-1.62572 2.03639,-2.76492 9.52731,-13.93003 19.16542,-26.57781 24.72547,-32.59203 3.60884,-3.90365 8.68278,-9.60811 11.43947,-12.86748 1.22069,-1.44328 2.46222,-2.72553 3.32489,-3.5012 0.10813,-0.0972 0.11402,-0.0905 0.20926,-0.17051 0.85075,-0.05 1.60996,-0.23989 2.29603,-0.46114 1.28526,-0.4145 2.47282,-1.01409 3.7124,-1.7574 2.47918,-1.4866 5.12481,-3.57627 7.74258,-6.11306 z m -17.5758,9.24808 c 0.73205,0.26361 1.31445,0.25065 1.91433,0.27125 -0.44565,0.0639 -1.05174,0.0394 -1.91433,-0.27125 z m 61.80881,85.84835 c 0.0334,0.0265 0.22155,0.19712 0.29645,0.26159 -0.32403,-0.16601 -0.36243,-0.31396 -0.29645,-0.26159 z m -180.18274,47.51868 c -0.69337,0 -6.50094,-6.07804 -6.47118,-6.77258 0.0158,-0.36726 3.35591,-4.68549 7.42266,-9.5961 4.06673,-4.9106 11.07254,-13.47936 15.56846,-19.04171 4.49593,-5.56233 8.26687,-9.88409 8.50189,-9.78586 0.35808,0.14967 -15.96285,20.03941 -21.51473,26.54207 -6.14078,7.19242 -7.50194,8.06477 -6.566,12.74446 0.32335,1.61679 3.27611,5.90972 3.0589,5.90972 z m 42.38228,-51.24531 -4.51233,4.46418 2.85385,-3.96816 c 1.56963,-2.1825 4.54727,-3.91712 7.15302,-6.53481 4.99109,-5.01396 8.31809,-9.54629 5.93719,-12.69413 -0.80109,-1.05912 -3.67624,-2.62945 -3.60193,-4.02563 0.12423,-2.33434 0.16968,-2.35898 0.56501,-0.30641 0.34621,1.79743 1.09263,2.23209 3.83307,2.23209 3.65563,0 4.5427,1.78744 1.95351,3.93628 -0.7973,0.66171 -1.72479,2.07002 -2.06109,3.12957 -0.56311,1.77422 -3.80757,5.92849 -6.49067,8.31079 -0.61451,0.54562 -3.14784,3.00093 -5.62963,5.45623 z m 24.03559,-31.66542 c -3.07427,-0.11966 -5.80717,-1.76427 -6.34418,-3.81778 -0.45669,-1.74641 2.25994,-1.02194 3.55819,0.48631 2.9928,3.4769 3.60142,-0.11173 5.21752,-0.94746 4.76585,-2.46451 11.39572,-14.28054 21.18549,-28.76897 2.32083,-3.43474 7.35864,-8.6383 9.47866,-9.79051 1.08556,-0.58999 -0.20168,1.34392 -2.86051,4.29759 -2.65884,2.95369 -7.00014,8.49526 -9.64733,12.31462 -8.0273,11.58181 -10.92203,15.64057 -15.03495,21.08087 -2.16561,2.86452 -4.6644,5.17995 -5.55289,5.14533 z m 103.44777,-10.34113 c -0.22226,0 -1.40524,-3.45974 -2.62886,-7.68832 -1.22363,-4.22857 -3.97446,-11.01019 -6.11297,-15.07026 -3.8275,-7.26673 -4.74958,-10.85073 -1.3771,-5.35265 0.94941,1.5478 2.54433,4.46809 3.43649,6.57146 2.45972,5.79905 0.24943,1.85246 4.18694,10.83899 1.15596,2.63824 2.71774,10.70078 2.4955,10.70078 z m -66.93072,-43.60719 c -2.35843,2.17844 -5.12119,3.53369 -1.52491,0.54904 0.8544,-0.7091 1.02629,-1.68691 1.78878,-3.09071 2.90401,-5.34647 2.06115,-4.75971 3.96267,-3.15436 1.18674,1.0019 1.48636,1.752 0.42118,1.752 -0.84327,0 -2.18363,1.66799 -4.64772,3.94403 z m 51.51915,-0.12581 c -0.5977,0 -1.08674,-0.3573 -1.08674,-0.79401 0,-0.4367 -0.96242,-4.5073 -3.76504,-7.65176 -3.83418,-4.30185 -4.90885,-4.95357 -4.05218,-5.81024 1.51315,-1.51315 1.53702,1.67182 6.81946,8.55178 2.18604,2.84714 2.6822,5.70423 2.0845,5.70423 z m -34.51801,-17.46129 c -4.58571,-0.54378 -4.93392,-0.77357 -4.612,-3.04364 0.19151,-1.35051 0.44809,-1.89598 1.09748,-2.82311 1.47981,-2.11272 12.25257,-13.09926 13.09356,-13.07505 0.3413,0.01 0.87761,0.60546 2.68513,2.7822 l 3.28638,3.95772 -2.11389,2.96869 c -2.33647,3.28129 -3.00392,3.53082 -4.7565,1.77824 -0.66136,-0.66137 -1.19045,-0.74955 -1.19045,-0.19841 0,0.54562 0.52826,1.5203 1.17391,2.16595 1.58156,1.58155 0.22815,2.78225 -1.51004,1.33969 -1.12649,-0.93491 -1.28818,-0.68201 -0.8913,1.39413 0.33062,1.72952 -0.10704,2.98442 -1.37596,3.9453 -1.96613,1.48881 2.8766,-0.2712 -4.88632,-1.19171 z m -14.2312,-24.02351 c -3.2583,-2.30287 -7.05562,-3.35589 -5.42647,-2.88709 4.75959,1.36962 10.89433,4.6418 10.35093,5.52103 -0.93984,1.5207 0.20419,0.99084 -4.92446,-2.63394 z m -45.4036,-12.43512 c -7.15272,-1.0285 -8.00144,-2.25765 -11.58509,-5.49526 -2.23151,-2.01604 -5.37031,-3.00021 -6.27811,-3.00021 -0.9078,0 -1.37003,-0.28051 -1.02718,-0.62336 1.14449,-1.14449 8.95043,2.57641 11.46332,4.89234 1.46315,1.34846 5.42926,2.99156 9.6724,4.00711 3.95577,0.94677 8.33283,1.04112 8.33283,1.25516 0,0.46968 -0.33985,0.4364 -10.57817,-1.03578 z m 89.65642,-3.53527 c -2.93016,0 5.09663,-9.63836 18.59471,-20.96851 11.64049,-9.770901 15.33069,-14.330506 -2.22977,3.42537 -9.54255,9.64873 -15.92367,17.54314 -16.36494,17.54314 z m -130.06283,-0.99204 c -0.56288,0 -2.58564,-2.48346 -2.58564,-3.17453 0,-1.6424 1.77382,-0.71278 2.27153,1.19045 0.28534,1.09124 0.42672,1.98408 0.31411,1.98408 z m 6.98262,-1.30125 c -0.49741,0.49742 -1.65307,-2.43991 -1.56904,-3.9881 0.0346,-0.6374 0.49059,-0.0897 1.01335,1.2172 0.52275,1.30687 0.77282,2.55377 0.55569,2.7709 z"
         sodipodi:nodetypes="sssssscssssssssssccscsscsssscsssscsccccscssssscsssssscscssscsssssscssscccssssscsscsscsssscsssssssssssssccsscsscsssssssscssccsscsssssscssscssscccccccssscssccscssscsssscsssccccscsssssssssscsssssssssscsssssssscsssssssssssssssssssssscscssssssssssssssssssssssssssssssss" /></g><g
       id="text1"
       inkscape:label="Text"
       style="opacity:1"><path
         id="path5"
         style="font-size:109.103px;font-family:'New Rocker';-inkscape-font-specification:'New Rocker';letter-spacing:2.02104px;baseline-shift:baseline;white-space:pre;display:inline;overflow:visible;vector-effect:none;enable-background:accumulate;stop-color:#000000;stop-opacity:1;stroke:#000000;stroke-opacity:1;fill:none"
         d="M 389.90625 342.64844 L 387.36133 347.74023 C 386.765 348.9329 385.97263 350.34826 384.99219 351.95898 L 384.96289 352.00586 L 384.93555 352.05664 C 384.02803 353.66225 383.04804 355.27179 381.99609 356.88477 L 381.98633 356.90039 L 381.97461 356.91797 C 380.96187 358.50942 379.98569 360.02637 379.04688 361.4707 L 379.01367 361.52344 L 378.98047 361.57812 C 378.10321 363.04023 377.40616 364.2136 376.88477 365.10742 L 375.35547 367.73047 L 377.72656 369.62695 C 378.69101 370.39851 379.32022 371.04062 379.54688 371.33203 L 379.68164 371.50391 L 379.83594 371.66016 C 380.57332 372.39754 381.50944 373.20603 382.72461 374.19336 L 385.1875 376.19336 L 387.43164 373.95117 C 388.79179 372.59102 390.22613 371.19229 391.73438 369.75586 C 393.30759 368.32585 394.81345 366.96535 396.24414 365.67773 C 397.64346 364.41835 398.92153 363.34861 400.06445 362.47461 L 400.11523 362.43555 L 400.16406 362.39453 C 401.35576 361.41313 402.26043 360.72872 402.71484 360.42578 L 407.45312 357.26758 L 402.50977 354.44141 C 402.127 354.22268 401.39622 353.77096 400.46484 353.17383 C 399.56547 352.48381 398.61027 351.76932 397.5918 351.02148 C 396.6331 350.26822 395.71234 349.5155 394.82422 348.76562 C 394.07067 348.07169 393.54374 347.49843 393.32227 347.20312 L 389.90625 342.64844 z M 409.64258 345.03711 L 414.93164 353.85156 C 415.46793 354.74538 415.86402 355.60375 416.13867 356.42773 L 416.17188 356.52539 L 416.21094 356.62109 C 416.55222 357.47429 416.81492 358.4024 416.99414 359.41797 L 417.01172 359.51562 L 417.0332 359.61133 C 417.26513 360.59703 417.42596 361.76928 417.49023 363.11914 L 417.49414 363.20312 L 417.50195 363.28516 C 417.63393 364.67091 417.70313 366.31248 417.70312 368.18945 L 417.70312 414.74414 L 408.23828 414.74414 C 408.14961 412.92922 408.09961 410.64494 408.09961 407.90234 C 408.09961 402.68223 408.25164 398.74902 408.51562 396.2168 C 408.82986 393.86496 409.45844 392.20854 410.19727 391.14648 L 414.04297 385.61914 L 407.30859 385.61914 C 404.01506 385.61914 401.40492 385.06638 399.37305 384.11719 C 397.29264 383.03753 395.15254 381.37042 392.99219 379.01367 L 391.07227 376.91797 L 388.61914 378.35547 C 386.9638 379.32584 384.28847 380.35464 380.70703 381.25 C 377.2955 382.10288 373.05837 382.56445 368.0332 382.56445 L 366.85547 382.56445 C 366.32663 382.45252 365.92265 382.45508 365.52344 382.45508 L 361.08984 382.45508 L 362.0957 386.77344 C 362.64332 389.12039 363.27764 391.11565 364.08789 392.82617 L 364.12109 392.89258 L 364.1543 392.95703 C 365.02147 394.60466 366.03322 396.03255 367.29102 397.18555 L 367.35352 397.24219 L 367.41602 397.29492 C 368.62857 398.30538 370.03137 399.07118 371.53906 399.50195 L 371.67578 399.54297 L 371.81641 399.57031 C 373.1581 399.83865 374.55261 399.96484 375.99609 399.96484 C 378.23044 399.96484 380.69412 399.5293 383.57031 398.75195 C 384.71704 398.44203 385.76848 397.95907 386.88086 397.58594 L 386.88086 401.05273 C 386.3296 401.26699 385.95891 401.47231 385.26172 401.68555 C 383.7885 402.08532 382.12602 402.46212 380.26562 402.80664 C 378.42507 403.14748 376.46579 403.42221 374.39453 403.63086 C 372.38068 403.76861 370.40496 403.83789 368.46875 403.83789 C 366.71296 403.83789 365.12335 403.7361 363.70703 403.54297 L 357.65039 402.7168 L 359.97852 408.36914 C 360.35158 409.27514 360.65085 410.4024 360.83594 411.75977 L 360.83789 411.77148 L 360.83984 411.7832 C 360.97203 412.70851 361.0595 413.69612 361.10156 414.74414 L 353.71094 414.74414 L 353.71094 383.58008 L 349.9043 377.23633 L 347.375 377.86719 C 345.09841 378.43633 342.48273 379.04538 339.54102 379.69141 C 336.62866 380.25889 333.93581 380.72067 331.47461 381.07227 L 328.45312 381.50391 L 328.45312 388.06641 L 332.49023 389.8125 L 332.49023 414.74414 L 322.66797 414.74414 L 322.66797 383.58008 L 318.86133 377.23633 L 316.33203 377.86719 C 314.05545 378.43633 311.43976 379.04538 308.49805 379.69141 C 305.58569 380.25889 302.89284 380.72067 300.43164 381.07227 L 297.41016 381.50391 L 297.41016 388.06641 L 301.44727 389.8125 L 301.44727 414.74414 L 293.37695 414.74414 C 293.3741 414.64926 293.37188 414.55301 293.36914 414.45703 C 293.29764 411.95624 293.26172 409.00493 293.26172 405.61133 C 293.26172 402.90911 293.33262 400.24552 293.47461 397.61914 L 293.47461 397.61719 L 293.47461 397.61328 C 293.60586 395.11951 294.03577 392.44564 294.7832 389.5918 L 295.66406 386.23242 L 292.31641 385.30859 C 290.54316 384.81942 288.77158 384.04874 286.98633 382.96484 C 285.24874 381.90988 283.61653 380.56537 282.07422 378.89453 L 280.6875 377.39453 L 278.69727 377.85352 C 276.68095 378.31882 274.66939 378.8996 272.66406 379.59375 C 270.6629 380.28646 268.70136 381.09533 266.7793 382.01562 C 265.1952 382.71472 263.72155 383.50457 262.27734 384.31641 L 262.27734 365.24414 C 262.27734 361.63632 262.52397 358.50227 262.98438 355.85547 C 263.48316 353.39157 264.29864 351.65336 265.2793 350.47656 L 261.06445 345.04688 C 258.14561 346.4368 255.43653 347.49469 252.95508 348.23242 L 252.94141 348.23633 L 252.92969 348.24023 C 250.59856 348.95252 248.439 349.28711 246.42969 349.28711 C 244.76991 349.28711 243.45356 349.06675 242.46484 348.7207 L 233.99219 345.75586 L 238.19141 353.6875 C 238.78373 354.80633 239.26736 355.87115 239.64453 356.87695 C 240.00478 357.83762 240.27381 358.82632 240.45508 359.85352 L 240.47266 359.95117 L 240.49609 360.04883 C 240.73155 361.04952 240.88763 362.1844 240.95117 363.45508 C 241.02027 364.83676 241.05664 366.41799 241.05664 368.18945 L 241.05664 405.93945 C 241.05664 409.15367 241.021 412.09118 240.95117 414.74414 L 232.13477 414.74414 C 232.04615 412.92951 231.99805 410.64598 231.99805 407.9043 C 231.99805 402.67984 232.14966 398.74094 232.41406 396.20898 C 232.72881 393.86317 233.35807 392.2088 234.0957 391.14844 L 237.94141 385.62109 L 231.20703 385.62109 C 227.91156 385.62109 225.29996 385.06742 223.26758 384.11719 C 221.18788 383.03749 219.0502 381.37153 216.89062 379.01562 L 214.96875 376.91992 L 212.51758 378.35742 C 210.86223 379.32779 208.1869 380.35659 204.60547 381.25195 C 201.19393 382.10483 196.95486 382.56641 191.92969 382.56641 L 190.75195 382.56641 C 190.22336 382.45461 189.81904 382.45703 189.41992 382.45703 L 184.98633 382.45703 L 185.99414 386.77539 C 186.54176 389.12234 187.17609 391.11762 187.98633 392.82812 L 188.01758 392.89453 L 188.05273 392.95898 C 188.91991 394.60661 189.93164 396.0345 191.18945 397.1875 L 191.25 397.24414 L 191.31445 397.29688 C 192.52701 398.30734 193.9298 399.07314 195.4375 399.50391 L 195.57422 399.54492 L 195.71289 399.57227 C 197.05458 399.84061 198.45105 399.9668 199.89453 399.9668 C 202.12888 399.9668 204.59256 399.53126 207.46875 398.75391 C 208.61466 398.44421 209.66573 397.96266 210.77734 397.58984 L 210.77734 401.05469 C 210.22489 401.26938 209.85325 401.4758 209.1543 401.68945 C 207.68238 402.08868 206.02221 402.46449 204.16406 402.80859 C 202.3235 403.14943 200.36423 403.42416 198.29297 403.63281 C 196.27912 403.77056 194.3034 403.83984 192.36719 403.83984 C 190.6114 403.83984 189.02178 403.73805 187.60547 403.54492 L 181.54883 402.71875 L 183.87695 408.37109 C 184.25001 409.2771 184.54928 410.40434 184.73438 411.76172 L 184.73633 411.77344 L 184.73828 411.78516 C 184.92995 413.12684 185.0293 414.59824 185.0293 416.19727 C 185.0293 417.6373 184.95821 419.07752 184.92188 420.51758 L 180.50781 421.23242 C 177.9089 421.65387 175.54473 421.93165 173.42578 422.06836 C 171.29147 422.20605 169.11851 422.27267 166.91016 422.27539 C 164.45352 422.13949 161.70889 421.77236 158.6875 421.15625 C 155.65005 420.46451 151.98157 419.41053 147.70898 417.98633 L 143.07617 416.44336 L 143.07617 421.32422 C 143.07617 422.19662 143.28181 423.02145 143.41797 423.86328 C 142.40343 423.74036 141.01318 423.75718 140.19336 423.57031 C 139.29246 423.35821 138.28411 422.99168 137.3457 422.72656 L 145.44141 411.23242 L 145.44727 411.22266 C 146.58373 409.589 147.71848 408.02953 148.84961 406.54492 C 149.91547 405.14597 150.95428 403.98365 151.94727 403.05273 L 151.95117 403.05078 L 151.95312 403.04883 C 152.97806 402.08419 153.97404 401.38408 154.93359 400.9043 L 155.00195 400.87109 L 155.06836 400.83398 C 155.82617 400.41298 156.57964 400.24171 157.47656 400.2207 L 157.69922 400.29492 L 159.0332 400.29492 L 160.68945 393.67188 C 159.88809 393.24448 159.42746 392.88579 159.16992 392.65234 C 159.17061 392.62732 159.16992 392.58605 159.16992 392.52148 C 159.16992 392.23969 159.40347 391.06038 160.14648 389.43945 C 160.97435 387.72392 162.38551 385.327 164.36133 382.36328 L 164.37109 382.34766 L 164.38281 382.33008 C 166.36423 379.2872 168.98489 375.55191 172.23047 371.15234 L 172.24023 371.14258 L 172.24805 371.13086 C 175.50765 366.63987 179.49975 361.23287 184.2207 354.91406 L 189.16602 348.28906 L 180.96289 349.31445 C 178.06558 349.67661 175.38735 350.00161 172.92773 350.29102 C 172.92373 350.29151 172.91876 350.29197 172.91406 350.29297 C 170.47386 350.50855 168.13481 350.72362 165.9043 350.93945 L 165.90234 350.93945 C 165.9015 350.93944 165.89736 350.93949 165.89648 350.93945 L 165.89453 350.93945 C 163.71799 351.08003 161.60831 351.22068 159.56641 351.36133 C 159.56441 351.36139 159.56255 351.36126 159.56055 351.36133 C 157.49483 351.43253 155.39098 351.46875 153.25 351.46875 L 148.66797 351.46875 C 147.36702 351.46875 145.86612 351.43425 144.18945 351.36523 C 142.5122 351.22441 140.4742 351.01443 138.06055 350.73047 L 138.07227 350.73047 C 135.70467 350.44349 132.70467 350.04624 129.08203 349.53906 L 127.3457 349.29688 L 126.10547 350.53516 C 123.99824 352.64239 121.67865 354.40773 119.11914 355.85156 L 119.10156 355.86133 L 119.08398 355.87109 C 116.57064 357.32618 113.54967 358.65662 110.02344 359.83203 L 105.86328 361.21875 L 109.98828 368.0957 L 112.6875 367.01562 L 113.53711 367.01562 C 115.9601 367.01562 118.42624 367.21745 120.93945 367.625 L 120.99023 367.63672 L 121.04297 367.64258 C 123.75862 367.9999 126.58792 368.42944 129.5293 368.93164 L 129.57617 368.93945 L 129.62305 368.94727 C 132.69341 369.38589 135.90878 369.82361 139.26758 370.26172 L 139.30859 370.26758 L 139.34961 370.27148 C 141.69991 370.52152 144.38829 370.56041 147.00391 370.64453 C 145.81679 372.73619 144.56878 375.15995 143.4707 376.78906 C 141.46651 379.68979 139.53021 382.01878 137.7168 383.76758 C 135.93846 385.48006 134.25842 386.72636 132.72461 387.55469 C 131.17841 388.35575 129.68613 388.88857 128.23047 389.17969 L 121.95312 390.43555 L 126.37891 395.0625 C 127.52131 396.25682 127.80273 397.07788 127.80273 397.97656 C 127.80273 398.79368 127.38577 400.42265 126.17578 402.58789 C 124.91563 404.84289 122.91501 407.84215 120.20703 411.47656 L 97.900391 440.98242 L 106.25586 439.86914 C 109.45094 439.44313 112.26725 439.16285 114.69336 439.02344 C 117.09601 438.95544 119.28119 438.92413 121.27344 438.92188 C 122.94178 439.12608 124.48461 439.35691 125.86133 439.61914 L 125.87695 439.62109 L 125.89062 439.625 C 127.50003 439.91762 129.14674 440.20954 130.82812 440.50195 L 130.83984 440.50391 L 130.85156 440.50586 C 132.6955 440.81318 134.67023 441.03719 136.76758 441.18945 C 138.96364 441.42312 141.46288 441.53516 144.30469 441.53516 C 147.13887 441.53516 150.23093 441.344 153.58789 440.97266 C 157.16468 440.65922 160.70454 439.95848 164.18945 438.87695 C 167.78551 437.8561 171.26226 436.40785 174.60352 434.54297 C 178.09688 432.59318 181.17105 430.05141 183.76367 426.97266 L 184.43555 426.9375 C 184.24619 428.79592 184.16769 429.63237 183.73633 430.75391 L 181.93164 435.44727 L 186.95898 435.53516 C 190.95076 435.60396 194.4186 436.05186 197.35156 436.83398 L 197.36133 436.83789 L 197.36914 436.83984 C 200.41266 437.63381 203.14378 438.77606 205.60156 440.26367 L 208.19141 441.83203 L 214.4668 434.2832 C 214.69717 434.61975 214.81967 434.97478 215.06641 435.30859 C 216.51171 437.264 218.18901 438.91311 220.0918 440.18164 L 223.4082 442.39258 L 225.18945 438.82617 C 225.48599 438.23309 226.03389 437.36172 226.82227 436.31055 C 227.58953 435.28754 228.459 434.28515 229.43945 433.30469 C 230.44754 432.2966 231.44448 431.40067 232.42383 430.61719 L 232.43359 430.60938 L 232.44336 430.60156 C 233.38865 429.83351 234.17314 429.4023 234.68164 429.2207 L 237.01758 428.38672 L 237.01758 421.9082 L 234.28906 421.27734 C 233.76301 421.15594 233.46847 421.00409 233.23242 420.86719 C 233.23622 420.86114 233.11394 420.71052 232.94336 420.19727 C 232.86681 419.93523 232.7904 419.62821 232.71484 419.2793 L 240.78516 419.2793 C 240.68737 421.31267 240.56427 423.12169 240.41602 424.70312 C 240.00488 429.08857 239.14293 432.22461 238.21289 433.92969 L 233.65039 442.29492 L 242.55469 438.90234 C 243.79462 438.42999 245.29435 438.04758 247.05078 437.78711 L 247.05469 437.78711 C 248.95502 437.5164 250.61215 437.38867 251.99414 437.38867 C 253.98421 437.38867 256.39437 437.67449 259.17578 438.2832 C 262.06427 438.98889 265.10404 439.83675 268.29688 440.83008 L 269.93945 441.33984 L 271.35156 440.35742 C 272.89264 439.28537 274.5442 438.27764 276.30273 437.32812 C 278.17308 436.42978 280.0412 435.59577 281.90625 434.83594 C 283.78065 434.07229 285.6114 433.4184 287.39648 432.86914 C 289.17853 432.32082 290.79451 431.91893 292.22852 431.6582 L 297.05859 430.7793 L 294.67383 426.48633 C 294.56898 426.29759 294.3501 425.74318 294.17969 424.90039 C 293.99799 423.92479 293.82559 422.55026 293.6875 420.82422 C 293.64874 420.33972 293.61197 419.82494 293.57812 419.2793 L 301.44727 419.2793 L 301.44727 425.46875 C 301.44727 430.62153 302.92356 435.39026 305.8457 439.34375 L 306.90039 440.76953 L 309.73633 440.76953 L 310.23242 440.62109 C 312.36638 439.9809 314.42312 439.41473 316.40234 438.91992 C 318.32419 438.43946 320.40393 438.02301 322.63867 437.67383 L 325.61328 437.20898 L 325.61328 430.11133 L 323.38672 429.28711 L 323.38672 429.28516 C 323.35537 429.22434 323.29033 429.08604 323.18555 428.80273 C 322.92307 428.09307 322.66797 426.63553 322.66797 424.5957 L 322.66797 419.2793 L 332.49023 419.2793 L 332.49023 439.39648 C 331.60414 443.18155 330.38165 446.72394 328.79883 450.02148 L 328.79297 450.0332 L 328.78711 450.04492 C 327.13767 453.54999 325.06303 457.08355 322.55078 460.64258 L 320.41016 463.67578 L 329.99219 469.69922 L 331.96094 467.30859 C 333.91123 464.94038 335.92389 462.75657 337.99805 460.75 C 340.09222 458.79663 342.10373 457.06398 344.0293 455.54883 C 346.0296 454.10346 347.91304 452.8701 349.6582 451.86328 C 351.39936 450.85877 352.9152 450.16238 354.14062 449.75391 L 356.54688 448.95312 L 356.54688 444.52148 L 355.51562 443.49219 C 355.22962 443.20617 354.99257 442.85568 354.78516 442.31641 C 354.57557 441.77149 354.31062 440.71796 354.11523 439.28516 L 354.11328 439.27344 L 354.11133 439.26367 C 353.92058 437.92844 353.78119 436.15296 353.71094 434 L 353.71094 425.6875 L 353.71094 419.2793 L 361.10352 419.2793 C 361.07093 421.10228 361.00915 422.925 360.91797 424.74805 C 360.78542 427.32162 360.38134 429.33899 359.83789 430.75195 L 358.0332 435.44531 L 363.0625 435.5332 C 367.05427 435.602 370.52017 436.04991 373.45312 436.83203 L 373.46289 436.83594 L 373.47266 436.83789 C 376.51618 437.63186 379.24535 438.77411 381.70312 440.26172 L 384.29492 441.83008 L 390.57031 434.2832 C 390.80035 434.61922 390.92358 434.97335 391.16992 435.30664 C 392.61523 437.26205 394.29057 438.91116 396.19336 440.17969 L 399.50977 442.39062 L 401.29297 438.82422 C 401.58951 438.23114 402.13545 437.35976 402.92383 436.30859 C 403.69109 435.28558 404.56251 434.28319 405.54297 433.30273 C 406.55106 432.29464 407.54605 431.39871 408.52539 430.61523 L 408.53516 430.60742 L 408.54688 430.59961 C 409.49217 429.83156 410.27471 429.40035 410.7832 429.21875 L 413.11914 428.38477 L 413.11914 421.90625 L 410.39258 421.27539 C 409.86722 421.15415 409.57008 421.00396 409.33398 420.86719 L 409.33398 420.86523 C 409.33484 420.85626 409.21375 420.70326 409.04492 420.19531 C 408.96851 419.93373 408.89183 419.62746 408.81641 419.2793 L 417.70312 419.2793 L 417.70312 425.57812 C 417.70312 427.24876 417.45958 428.38972 417.24414 428.90039 C 417.12296 429.18764 417.0829 429.26479 417.06836 429.27734 L 417.06641 429.27734 L 417.06445 429.27734 L 417.0625 429.27734 L 417.0625 429.27539 L 417.06055 429.27539 L 417.06055 429.27344 C 417.05974 429.27046 417.05931 429.26448 417.05859 429.26172 L 417.05664 429.25977 L 417.05469 429.25977 L 414.75781 430.11133 L 414.75781 437.71484 L 441.87109 437.71484 L 441.87109 430.11133 L 439.64453 429.28516 C 439.61331 429.22467 439.5485 429.08702 439.44336 428.80273 C 439.18088 428.09307 438.92383 426.63554 438.92383 424.5957 L 438.92383 414.74414 C 439.56919 415.06761 440.29414 415.33973 440.91406 415.67969 L 440.95312 415.70117 L 440.99219 415.7207 C 442.59467 416.54779 444.17001 417.5728 445.74414 418.60352 L 445.74414 425.6875 C 445.74414 426.94601 445.67624 428.33258 445.53906 429.8418 C 445.39882 431.38453 445.22498 432.888 445.01562 434.35352 C 444.81511 435.7571 444.54922 437.07939 444.22266 438.32031 L 444.20117 438.4043 L 444.18164 438.49023 C 443.91826 439.7413 443.62974 440.74044 443.35938 441.44336 L 442.08594 444.75586 L 448.40234 447.125 L 450.00391 445.52148 C 450.73247 444.79292 451.66867 443.98392 452.79492 443.12109 C 454.01526 442.24173 455.34332 441.35471 456.78711 440.46094 C 458.25897 439.54979 459.76807 438.67444 461.3125 437.83203 C 462.84381 436.99677 464.29103 436.27274 465.65234 435.66016 L 468.25586 434.48828 L 467.64648 431.69922 C 467.23054 429.79775 466.96484 426.74211 466.96484 422.74023 C 466.96484 420.78316 466.99974 419.09625 467.06641 417.66016 C 467.20135 416.26562 467.39959 414.86944 467.66602 413.4707 L 468.12891 411.03711 L 465.99414 409.7793 C 463.35966 408.2296 460.51222 406.84719 457.45898 405.625 C 457.15998 405.50243 456.80018 405.40915 456.49219 405.29102 L 466.30859 401.57617 L 465.55078 398.53906 C 465.51408 398.39221 465.38883 397.59052 465.32227 396.45898 C 465.25217 395.26689 465.21875 394.30284 465.21875 393.60938 C 465.21875 390.8847 465.52748 388.67665 466.04297 387.01562 L 467.19531 383.30078 L 463.38477 382.52539 C 459.58415 381.75119 456.35679 380.91087 453.70898 380.03125 C 451.19353 379.10069 448.98278 377.99308 447.06836 376.7168 L 444.66797 375.11719 L 442.62891 377.15625 C 441.24344 378.54171 440.08233 379.58575 438.92383 380.62695 L 438.92383 365.24414 C 438.92383 361.05693 439.21846 357.75114 439.71289 355.44531 C 440.27734 353.15071 441.0751 351.51716 441.94727 350.45117 L 437.67969 345.0625 C 434.55023 346.59246 431.78693 347.67377 429.44531 348.32422 C 427.07779 348.98186 424.95458 349.28711 423.07812 349.28711 C 421.25191 349.28711 419.93892 349.03951 419.22461 348.76172 L 409.64258 345.03711 z M 313.39062 347.62695 L 310.72852 349.04688 C 308.1257 350.43505 305.78266 352.36955 303.71875 354.76367 L 303.7168 354.76758 L 303.71289 354.77148 C 301.84377 356.95213 300.22698 359.19368 298.875 361.5 L 297.38867 364.03711 L 299.62109 365.95117 C 300.21405 366.45941 300.97406 367.06583 301.94727 367.81445 C 302.88245 368.53383 303.85567 369.29075 304.86523 370.08398 C 305.81952 370.83378 306.697 371.57625 307.49805 372.31055 L 307.60938 372.41211 L 307.73047 372.50586 C 308.5689 373.1508 309.11931 373.67695 309.27734 373.86133 L 312.72656 377.88477 L 315.0957 373.14453 C 316.1841 370.96774 317.4126 369.27755 318.74414 368.00391 L 318.74609 368.00391 L 318.74805 368.00195 C 320.33583 366.48033 322.31089 364.87419 324.66992 363.20898 L 329.18555 360.02148 L 324.38672 357.2793 C 324.00146 357.05915 323.2687 356.60523 322.32812 356.00195 C 321.43239 355.31488 320.48249 354.60179 319.46875 353.85742 C 318.50703 353.10179 317.58211 352.34793 316.69141 351.5957 C 315.9449 350.90717 315.41945 350.3327 315.19922 350.03906 L 313.39062 347.62695 z M 344.43164 347.62695 L 341.77148 349.04688 C 339.16867 350.43505 336.82563 352.36955 334.76172 354.76367 L 334.75781 354.76758 L 334.75586 354.77148 C 332.88674 356.95213 331.26995 359.19368 329.91797 361.5 L 328.42969 364.03711 L 330.66406 365.95117 C 331.25702 366.45941 332.01703 367.06583 332.99023 367.81445 C 333.92542 368.53383 334.89864 369.29075 335.9082 370.08398 C 336.86249 370.83378 337.73996 371.57625 338.54102 372.31055 L 338.65234 372.41211 L 338.77344 372.50586 C 339.61186 373.1508 340.16034 373.67697 340.31836 373.86133 L 343.76758 377.88477 L 346.13867 373.14453 C 347.22707 370.96774 348.45557 369.27755 349.78711 368.00391 L 349.78906 368.00391 L 349.78906 368.00195 C 351.37685 366.48032 353.35385 364.87419 355.71289 363.20898 L 360.22656 360.02148 L 355.42773 357.2793 C 355.04248 357.05915 354.31164 356.6052 353.37109 356.00195 C 352.47496 355.31458 351.52401 354.60214 350.50977 353.85742 L 350.48828 353.83984 C 349.53458 353.0901 348.61817 352.34209 347.73438 351.5957 C 346.98787 350.90717 346.4624 350.33268 346.24219 350.03906 L 344.43164 347.62695 z M 422.74805 354.02148 L 422.80469 354.17969 C 422.79476 354.15949 422.78249 354.13994 422.77539 354.11914 C 422.76315 354.08795 422.75845 354.05358 422.74805 354.02148 z M 261.42188 384.74805 C 261.40192 384.76004 261.38486 384.77141 261.36328 384.7832 C 261.3534 384.78913 261.34166 384.79334 261.33203 384.79883 L 261.42188 384.74805 z M 438.92383 395.2793 L 445.76172 396.63672 L 438.92383 399.4082 L 438.92383 395.2793 z M 271.86719 398.10352 C 271.81839 398.84359 271.76949 399.48356 271.7207 400.26367 L 271.7168 400.31836 L 271.7168 400.37305 C 271.6429 402.73717 271.60547 405.10261 271.60547 407.4668 L 271.60547 415.36914 L 271.60547 415.41602 C 271.65617 417.29115 271.7519 418.59115 271.83984 419.98242 C 271.18741 420.42529 270.54214 420.75566 269.87109 421.30664 C 269.18492 421.83315 268.68192 422.32395 268.09961 422.82812 C 266.77091 422.47125 265.49922 422.10437 263.90039 421.79492 C 262.98127 421.61703 262.3785 421.59618 261.57812 421.47266 C 261.75103 419.8718 262.01103 418.49182 262.05469 416.51953 C 262.20156 413.12455 262.27734 409.41872 262.27734 405.39258 L 262.27734 401.03906 C 262.61805 400.88438 262.77678 400.76313 263.19727 400.59961 L 263.27539 400.56836 L 263.35156 400.53516 C 264.49506 400.02694 265.75894 399.57166 267.14453 399.17578 C 268.55849 398.77179 270.00865 398.43486 271.49805 398.16406 L 271.55664 398.15234 L 271.61523 398.13867 C 271.70503 398.11917 271.77811 398.12202 271.86719 398.10352 z M 210.88672 414.77344 L 210.88672 421.16992 C 209.99381 421.05217 208.92838 420.78576 208.12109 420.75195 L 208.11523 420.75195 C 207.61244 420.73005 207.13795 420.683 206.64258 420.6543 L 206.73828 415.81836 C 207.5604 415.65019 208.26116 415.58333 209.17773 415.3457 L 209.23633 415.33008 L 209.29492 415.3125 C 209.80964 415.15999 210.36412 414.93973 210.88672 414.77344 z M 386.98828 414.77344 L 386.98828 421.16992 C 386.09537 421.05217 385.02994 420.78576 384.22266 420.75195 L 384.2168 420.75195 C 383.71446 420.73005 383.24102 420.6829 382.74609 420.6543 L 382.8418 415.82031 C 383.66403 415.65212 384.36454 415.58337 385.28125 415.3457 L 385.33984 415.33008 L 385.39844 415.3125 C 385.91259 415.16016 386.46627 414.93953 386.98828 414.77344 z M 451.05664 439.98242 L 451.04102 440.05664 C 451.04453 440.03644 451.04778 440.01515 451.05273 439.99609 C 451.05373 439.99082 451.05533 439.98706 451.05664 439.98242 z " /></g></g></svg>
