<?xml version="1.0" encoding="UTF-8" standalone="no"?>
<!-- Created with Inkscape (http://www.inkscape.org/) -->

<svg
   width="500"
   height="500"
   viewBox="0 0 500 500"
   version="1.1"
   id="svg1"
   xml:space="preserve"
   inkscape:version="1.4.2 (f4327f4, 2025-05-13)"
   sodipodi:docname="Mnich.svg"
   xmlns:inkscape="http://www.inkscape.org/namespaces/inkscape"
   xmlns:sodipodi="http://sodipodi.sourceforge.net/DTD/sodipodi-0.dtd"
   xmlns="http://www.w3.org/2000/svg"
   xmlns:svg="http://www.w3.org/2000/svg"><sodipodi:namedview
     id="namedview1"
     pagecolor="#ffffff"
     bordercolor="#000000"
     borderopacity="0.25"
     inkscape:showpageshadow="2"
     inkscape:pageopacity="0.0"
     inkscape:pagecheckerboard="0"
     inkscape:deskcolor="#d1d1d1"
     inkscape:document-units="px"
     inkscape:zoom="1.6699219"
     inkscape:cx="307.79883"
     inkscape:cy="240.43041"
     inkscape:window-width="1920"
     inkscape:window-height="1057"
     inkscape:window-x="-8"
     inkscape:window-y="-8"
     inkscape:window-maximized="1"
     inkscape:current-layer="layer1" /><defs
     id="defs1" /><g
     inkscape:label="Layer 1"
     inkscape:groupmode="layer"
     id="layer1"><path
       style="fill:#000000"
       d="m 144.0348,337.18864 c -1.6229,-1.6229 -4.1243,-3.24527 -5.55866,-3.60527 -1.68365,-0.42257 -3.09572,-1.82199 -3.98426,-3.94857 -0.75698,-1.81171 -2.07733,-3.87579 -2.9341,-4.58685 C 130.701,324.33689 130,322.77122 130,321.56868 c 0,-1.20253 -0.66069,-3.05993 -1.4682,-4.12755 -1.88124,-2.48723 -1.90904,-5.54194 -0.0829,-9.11009 0.79688,-1.55707 1.69791,-3.65802 2.00227,-4.66876 0.30437,-1.01075 1.90237,-2.34691 3.55112,-2.96924 C 135.72211,300.04388 137,298.83286 137,297.85219 137,295.2888 139.79082,293 142.91644,293 c 1.52547,0 3.58807,-0.9 4.58356,-2 1.8478,-2.04179 7.88184,-2.80922 8.91712,-1.13411 0.29433,0.47624 1.67089,0.64878 3.05901,0.38342 1.38813,-0.26535 2.52387,-0.1857 2.52387,0.17702 0,0.36272 -1.87824,3.1472 -4.17387,6.18774 -2.93333,3.88517 -4.69603,5.39171 -5.93067,5.06884 -1.0137,-0.26508 -2.70583,0.55079 -4.00044,1.92884 -1.23401,1.31354 -2.72771,2.39341 -3.31933,2.39972 -0.59163,0.006 -1.87649,1.69381 -2.85525,3.75 -1.71362,3.60001 -1.71076,3.87276 0.0773,7.36128 2.13559,4.16648 5.67439,8.87725 6.66874,8.87725 0.37326,0 -0.254,-1.18569 -1.39392,-2.63486 -3.21244,-4.08395 -2.55172,-6.69517 3.94943,-15.60862 3.31211,-4.54109 7.92461,-11.06889 10.25,-14.50624 3.47852,-5.14187 4.93705,-6.445 8.22799,-7.35133 5.54909,-1.52823 5.81994,-1.81642 3.49739,-3.72125 -2.29639,-1.88338 -2.5492,-1.41853 10.24442,-18.83649 2.89201,-3.93733 7.83676,-10.68733 10.98835,-15 3.15159,-4.31266 8.39869,-11.44121 11.66023,-15.84121 3.26153,-4.4 8.00926,-10.951 10.5505,-14.55779 l 4.62046,-6.55779 -4.51447,-8.84735 c -4.73068,-9.27108 -6.50403,-15.30994 -4.81496,-16.39658 0.54758,-0.35227 1.22121,-4.23527 1.49695,-8.62888 0.40977,-6.52913 0.21255,-8.19957 -1.07965,-9.14445 -1.43495,-1.04926 -1.41129,-1.69447 0.25605,-6.98389 1.70809,-5.41867 1.71999,-5.89998 0.16958,-6.85555 -0.91712,-0.56525 -5.58414,-3.74131 -10.37117,-7.05792 -8.03031,-5.56367 -8.72766,-6.31745 -9.01363,-9.7431 -0.26827,-3.21357 0.46717,-4.72248 5.46851,-11.2198 7.65735,-9.94779 9.06115,-10.01086 22.41447,-1.0069 5.30191,3.575 9.93453,6.5 10.29471,6.5 0.36018,0 3.23729,-1.74904 6.39357,-3.88675 3.15628,-2.13771 9.11369,-5.11133 13.23869,-6.60804 6.59669,-2.39352 8.9453,-2.7214 19.5,-2.72227 6.6,-5.4e-4 13.23699,0.48674 14.74887,1.08285 2.5319,0.9983 3.10393,0.72878 7.24747,-3.41476 2.47424,-2.47424 5.62475,-4.92677 7.00114,-5.45007 2.63657,-1.00242 3.2199,-2.43956 1.43738,-3.54122 -0.69725,-0.43092 -0.47102,-1.31479 0.65498,-2.55902 0.94608,-1.04539 1.33745,-1.90072 0.86973,-1.90072 -0.46772,0 0.86909,-1.575 2.97071,-3.5 C 309.02851,96.204141 312,94.98962 312,96.814788 c 0,0.448133 1.57947,1.567983 3.50993,2.488555 C 319.41923,101.16756 328,108.69577 328,110.26132 c 0,0.55364 -3.825,6.0738 -8.5,12.26703 -4.675,6.19323 -8.5,11.52835 -8.5,11.85581 0,0.32746 2.06272,3.81343 4.58382,7.7466 l 4.58382,7.15123 -2.08382,2.81851 c -2.61516,3.53719 -2.63102,4.26272 -0.0632,2.88844 1.11136,-0.59479 2.44913,-0.81662 2.97282,-0.49296 3.31432,2.04836 3.89557,22.25578 0.94734,32.93441 -1.05236,3.81171 -1.80706,6.97536 -1.67711,7.03033 0.67525,0.28565 17.46365,11.6948 18.79825,12.77502 2.54626,2.06094 3.00835,4.6602 1.47912,8.32016 -1.08142,2.5882 -2.04401,3.4441 -3.87343,3.4441 -2.4476,0 -3.62287,2.06029 -3.65401,6.40561 -0.0224,3.13126 -4.8109,8.59439 -7.53304,8.59439 -1.45225,0 -6.8436,-3.25397 -13.50183,-8.14908 l -11.08422,-8.14908 -2.69728,1.95227 c -4.30692,3.11732 -11.14509,6.38544 -18.17607,8.68677 -8.12404,2.6591 -24.20094,2.88247 -30.61663,0.42538 l -4.09543,-1.56847 -5.90457,8.45592 C 228.58655,251.14615 226.06829,254.46762 221.70396,259 c -2.38323,2.475 -5.45692,6.3 -6.83043,8.5 -1.3735,2.2 -4.11788,6.475 -6.09861,9.5 -1.98073,3.025 -5.10289,7.9777 -6.93813,11.00599 -1.83523,3.0283 -6.93679,10.60307 -11.33679,16.83283 -4.4,6.22976 -8.675,12.32912 -9.5,13.55412 -4.62892,6.87327 -11.52243,16.20623 -12.43965,16.84175 -1.88575,1.30658 -6.85354,0.80995 -8.71076,-0.87081 -1.67386,-1.51483 -1.85444,-1.51483 -2.43573,0 -0.34531,0.89987 -1.10676,1.63612 -1.69211,1.63612 -0.58535,0 -1.7747,0.62177 -2.64301,1.38172 -3.38601,2.96344 -5.94199,2.90888 -9.04394,-0.19308 z m 21.48106,-7.13866 c -0.3404,-1.07251 0.0223,-3.21001 0.80593,-4.75 3.17646,-6.24213 2.75432,-7.65669 -0.76098,-2.54998 -3.97254,5.77093 -3.856,5.69757 -6.66409,4.19473 -1.90721,-1.02071 -1.85725,-1.27455 1.52545,-7.75 l 3.49725,-6.69473 -4.86912,5.432 c -4.7199,5.26553 -4.81826,5.50074 -3.20971,7.6754 1.59751,2.15971 7.79055,6.32224 9.4768,6.36963 0.44956,0.0126 0.53887,-0.85454 0.19847,-1.92705 z m 0.6117,-19.79998 c 1.24387,-1.58606 1.2085,-1.62143 -0.37756,-0.37756 -0.9625,0.75485 -1.75,1.54235 -1.75,1.75 0,0.82304 0.82119,0.29331 2.12756,-1.37244 z m -32.68035,-7.33541 c -0.32197,-0.52097 -1.01165,-0.68378 -1.53262,-0.3618 -0.52097,0.32197 -0.68378,1.01165 -0.3618,1.53262 0.32197,0.52097 1.01165,0.68378 1.53262,0.3618 0.52097,-0.32197 0.68378,-1.01165 0.3618,-1.53262 z M 141.5,296 c 0.33992,-0.55 -0.0835,-1 -0.94098,-1 -0.85746,0 -1.55902,0.45 -1.55902,1 0,0.55 0.42344,1 0.94098,1 0.51754,0 1.2191,-0.45 1.55902,-1 z m 9.5,-5 c 0,-0.55 -0.45,-1 -1,-1 -0.55,0 -1,0.45 -1,1 0,0.55 0.45,1 1,1 0.55,0 1,-0.45 1,-1 z m 70.62747,-70.68159 C 249.08971,184.40316 254,177.87866 254,177.30375 c 0,-0.65133 -3.12198,-3.10713 -12.5408,-9.86483 C 237.35664,164.49547 234,162.4566 234,162.90809 c 0,0.4515 3.81995,3.46938 8.48879,6.70641 4.66883,3.23702 8.49105,6.3355 8.49383,6.8855 0.01,1.9385 -2.98912,6.69418 -10.19755,16.17126 -11.14845,14.65708 -21.59686,28.65979 -34.38261,46.07874 -2.52317,3.4375 -4.37607,6.25 -4.11756,6.25 0.25852,0 8.96267,-11.10672 19.34257,-24.68159 z m 38.06719,3.98161 c -2.59101,-0.67165 -1.4472,-2.82813 1.40655,-2.65182 3.24261,0.20033 21.49629,-2.36653 26.11266,-3.672 2.04262,-0.57764 3.95254,-1.43644 4.24425,-1.90844 1.14048,-1.84533 -2.57082,-1.83702 -9.60151,0.0215 -4.04614,1.06957 -11.18161,2.22161 -15.85661,2.56011 -7.88253,0.57073 -12,2.09155 -12,4.4323 0,0.88978 2.59798,1.68634 5.5,1.68634 1.72269,0 1.74968,-0.0649 0.19466,-0.46798 z M 315.45,216.10557 c -0.5225,-0.49193 -8.825,-6.19128 -18.45,-12.66521 -9.625,-6.47393 -18.73197,-12.67697 -20.2377,-13.78454 -1.50574,-1.10756 -3.04324,-1.70822 -3.41667,-1.33479 -0.85189,0.8519 -1.61342,0.26576 10.11984,7.78912 5.48101,3.51442 14.93101,9.64839 21,13.63106 10.40131,6.82567 13.19166,8.44238 10.98453,6.36436 z M 334,208.81291 c 0,-2.00717 -3.09584,-0.52825 -4.47432,2.13743 -2.25542,4.3615 -1.87641,4.75987 1.47432,1.54966 1.65,-1.5808 3,-3.23999 3,-3.68709 z m -54.75,0.17297 c 3.1625,-1.24489 5.75,-2.58728 5.75,-2.98308 0,-0.3958 -2.5875,-2.41508 -5.75,-4.48728 -3.1625,-2.07221 -6.7862,-4.71163 -8.05267,-5.86538 -1.40859,-1.28322 -2.57343,-1.70702 -3,-1.09146 -8.28009,11.94847 -10.97442,16.33454 -10.39837,16.92737 1.38583,1.42623 15.72098,-0.24457 21.45104,-2.50017 z m -35.14205,-29.76981 c 1.06246,-2.79449 0.90757,-2.95605 -8.42312,-8.78579 -3.19834,-1.9983 -6.12334,-3.32457 -6.5,-2.94726 -0.37666,0.37732 -0.65814,4.36049 -0.62553,8.8515 0.0454,6.25599 0.59901,9.38998 2.36724,13.40176 l 2.30794,5.23628 4.9685,-6.64669 c 2.73267,-3.65568 5.38991,-7.75509 5.90497,-9.1098 z m -18.64462,9.32834 c -0.80483,-2.67425 -1.50201,-7.82825 -1.54928,-11.45334 -0.074,-5.67709 -0.21812,-6.17506 -1.03903,-3.59107 -1.24458,3.91755 -0.48008,12.0008 1.5944,16.85809 2.22611,5.21231 2.79564,4.17303 0.99391,-1.81368 z m 88.14319,-1.98235 c -2.64202,-2.16038 -2.83499,-2.74389 -2.22039,-6.71403 C 313.0362,169.18892 314.41866,165 316.2864,165 c 1.0074,0 1.55352,-0.45 1.2136,-1 -0.33992,-0.55 -1.71648,-1 -3.05902,-1 -2.22335,0 -2.44098,0.39791 -2.44098,4.46298 0,2.45464 -0.9,6.7463 -2,9.53702 -2.61381,6.63128 -2.55145,7.10955 1.26311,9.68785 4.33361,2.92913 5.97184,2.84119 2.34341,-0.12579 z m -9.25462,-5.82801 c 1.31934,-5.25667 0.067,-19.18762 -2.15071,-23.92341 -1.20776,-2.57914 -2.58974,-4.93274 -3.07106,-5.23022 -1.22364,-0.75625 -14.26659,16.46071 -13.91232,18.36455 0.15915,0.85526 2.53775,2.72182 5.28578,4.1479 2.74803,1.42607 6.5065,4.01357 8.35217,5.75 3.99459,3.75816 4.746,3.87999 5.49614,0.89118 z m -17.15389,-20.34721 c 3.46609,-4.73724 9.69596,-13.17474 13.84415,-18.75 4.14818,-5.57526 7.89323,-10.81184 8.32233,-11.63684 1.23284,-2.37031 -3.87825,3.69755 -11.37135,13.5 -3.78383,4.95 -9.20151,12.0375 -12.03929,15.75 -2.83778,3.7125 -5.59288,6.75 -6.12246,6.75 -0.52958,0 -1.94579,-0.51107 -3.14713,-1.13572 -2.06879,-1.07568 -2.0561,-0.99638 0.24005,1.5 1.33338,1.44965 2.77248,2.63572 3.19801,2.63572 0.42553,0 3.60959,-3.87592 7.07569,-8.61316 z M 267.07388,148.25 c 2.3744,-3.1625 5.43382,-6.98281 6.79871,-8.48957 1.36488,-1.50676 2.20691,-3.01426 1.87117,-3.35 -1.05494,-1.05495 -12.08854,-0.66395 -16.75991,0.59392 -5.13611,1.38301 -11.99552,4.69018 -11.95924,5.76597 0.0192,0.56826 14.78237,11.22968 15.55009,11.22968 0.10015,0 2.12478,-2.5875 4.49918,-5.75 z M 233,150.59128 c 0,-0.22479 -3.0375,-2.78459 -6.75,-5.68843 -14.05388,-10.99265 -18.21164,-15.10601 -17.19299,-17.00938 0.51865,-0.96909 0.94299,-2.27172 0.94299,-2.89474 0,-1.09536 -10.96179,11.93304 -10.98734,13.05877 -0.0158,0.69386 8.77954,6.9435 9.76658,6.9398 0.39642,-0.001 -1.18764,-1.68899 -3.52014,-3.75 l -4.24089,-3.7473 2.4931,-2.80832 2.4931,-2.80833 7.24779,5.13733 c 3.98629,2.82553 9.9478,7.11131 13.2478,9.52397 6.22831,4.55356 6.5,4.7227 6.5,4.04663 z m 10.51698,-14.57252 c -2.3749,-2.62424 -0.92297,-4.36518 5.0307,-6.03211 2.48032,-0.69445 4.30092,-1.47138 4.04578,-1.72652 -0.58933,-0.58934 -10.67837,2.67572 -12.34346,3.99463 -1.90085,1.50567 -1.50009,3.319 1,4.52475 3.4661,1.67163 4.2348,1.41367 2.26698,-0.76075 z M 277,127.5 c 0,-1.22621 -1.68838,-1.49751 -9.25,-1.48635 -13.86166,0.0205 -16.35163,1.37541 -3.75,2.0406 5.775,0.30484 11.0625,0.64234 11.75,0.75 0.6875,0.10766 1.25,-0.47925 1.25,-1.30425 z m 42.68462,-19.38123 c -8.13864,-8.641094 -7.55376,-8.231794 -8.70069,-6.08875 -0.81564,1.52405 -0.73272,1.81081 0.39813,1.37686 2.1105,-0.80987 7.49479,4.63139 8.00839,8.09312 0.2448,1.65 0.48209,3.19851 0.52732,3.44113 0.0452,0.24262 0.72781,-0.43238 1.51685,-1.5 1.29971,-1.7586 1.13516,-2.25907 -1.75,-5.32236 z M 226.5,338.76672 c -1.1,-0.64485 -3.27298,-1.04353 -4.82884,-0.88595 -1.63612,0.1657 -3.64177,-0.44918 -4.75689,-1.45835 -1.06042,-0.95967 -2.89327,-2.23481 -4.073,-2.83364 -1.17973,-0.59883 -2.48163,-1.76378 -2.89312,-2.58878 -0.41149,-0.825 -1.80566,-3.69684 -3.09815,-6.38186 -3.71712,-7.72191 -9.4872,-14.20397 -14.09896,-15.83867 -2.66975,-0.94632 -2.70346,-1.05084 -1.16993,-3.62693 0.86846,-1.4589 2.64477,-3.9808 3.94735,-5.60423 2.19984,-2.74171 2.49649,-2.83798 4.16993,-1.35324 0.99089,0.87915 2.70161,1.75741 3.80161,1.95169 1.1,0.19428 2.675,1.80968 3.5,3.58977 0.825,1.78009 2.26448,3.49061 3.19885,3.80115 0.93436,0.31054 1.97796,1.44403 2.3191,2.51887 0.34114,1.07483 1.64794,3.18931 2.90401,4.69885 1.25607,1.50953 3.03041,4.33549 3.94297,6.27992 1.70896,3.64132 6.44599,6.3582 9.22592,5.29145 0.79479,-0.30499 2.81202,0.0117 4.48275,0.70371 2.28059,0.94466 3.32288,0.97304 4.18203,0.11389 1.61698,-1.61698 4.90655,-1.4195 7.58308,0.45521 2.09317,1.46612 2.43121,1.46612 4.05125,0 0.97214,-0.87977 2.64446,-1.59958 3.71627,-1.59958 1.07182,0 2.97643,0.71981 4.23248,1.59958 2.10768,1.47628 2.43351,1.46404 4.22662,-0.1587 1.7326,-1.56798 2.37862,-1.61448 5.96881,-0.42961 3.07386,1.01446 4.3026,1.05199 5.19589,0.1587 1.64057,-1.64057 4.91722,-1.45556 7.60868,0.42961 2.10428,1.4739 2.43293,1.46456 4.18252,-0.11879 1.39849,-1.26562 2.81095,-1.54725 5.3608,-1.0689 2.0192,0.37881 3.72748,0.21994 4.09901,-0.38121 0.86517,-1.39988 6.84142,-1.30822 8.27658,0.12694 0.87682,0.87682 1.50138,0.87232 2.57482,-0.0186 0.77947,-0.6469 3.38604,-1.13844 5.79239,-1.09232 2.40634,0.0461 6.06887,-0.22049 8.13894,-0.59246 2.22751,-0.40026 4.28961,-0.23991 5.05204,0.39286 0.70854,0.58803 2.27655,0.81072 3.48446,0.49484 1.2685,-0.33172 3.28868,0.14151 4.78252,1.12031 2.35909,1.54573 2.73958,1.55594 4.33051,0.11617 0.9593,-0.86815 2.60875,-1.58131 3.66544,-1.58478 1.08364,-0.004 2.66394,-1.3115 3.62475,-3 C 344.50087,319.7137 345.62143,319 347.9038,319 c 1.76545,0 3.45198,-0.71906 4.10455,-1.75 0.79327,-1.25321 1.25685,-1.39515 1.63302,-0.5 0.75323,1.7924 2.68781,1.55022 1.997,-0.25 -0.87851,-2.28937 3.95191,-1.90972 6.36163,0.5 1.1,1.1 2,2.9609 2,4.13533 0,1.17443 1.125,3.17794 2.5,4.45225 3.29761,3.05612 3.21738,6.70297 -0.20672,9.39636 -4.38213,3.44699 -10.33074,1.00561 -10.64186,-4.36753 C 355.46982,327.48025 355.51033,327.48967 353,330 c -1.1,1.1 -2.70405,2 -3.56456,2 -0.86051,0 -2.70051,1.35 -4.08889,3 -2.662,3.1636 -5.92876,3.82914 -9.47621,1.93061 -1.45167,-0.77691 -2.38719,-0.74655 -3.42049,0.11101 -0.85953,0.71334 -2.91156,0.94687 -5.18608,0.59019 -7.8503,-1.23106 -14.24076,-1.47806 -14.80069,-0.57206 -0.82146,1.32913 -6.83315,1.17018 -8.2207,-0.21737 -0.87682,-0.87682 -1.5284,-0.8499 -2.68623,0.11102 -0.89924,0.7463 -3.07823,1.08245 -5.29238,0.81642 -2.3536,-0.28277 -4.63702,0.11321 -6.09451,1.0569 -2.09818,1.35853 -2.61924,1.33868 -5.22215,-0.19889 -2.69949,-1.59463 -3.10375,-1.59819 -6.0907,-0.0536 -2.97981,1.54092 -3.39334,1.53979 -6.02798,-0.0165 -2.57148,-1.51901 -3.03077,-1.5294 -5.05107,-0.11433 -2.97351,2.08273 -5.10135,1.96108 -7.25128,-0.41457 -1.7752,-1.96158 -1.79611,-1.96158 -4.28985,0 -3.22174,2.53422 -5.05812,2.48713 -7.92178,-0.20313 C 247.0415,336.62981 246,336.12522 246,336.70437 c 0,0.57914 -1.34734,1.61108 -2.9941,2.29319 -2.48478,1.02923 -3.38522,0.98392 -5.29338,-0.26635 -1.97215,-1.29221 -2.56928,-1.30912 -4.19703,-0.11888 -2.29062,1.67494 -4.34461,1.72015 -7.01549,0.15439 z M 346,322 c 0,-0.55 -0.45,-1 -1,-1 -0.55,0 -1,0.45 -1,1 0,0.55 0.45,1 1,1 0.55,0 1,-0.45 1,-1 z"
       id="path1"
       sodipodi:nodetypes="sssssssssssssssssscsssssssssssscssssssssssssssssssssssssssscssssssssssscssscsssssssssssssscssscsssssssssssssssssssssssssssscssssssssssssssssssssssssssssssssssssscssssssssssssssssssssssssssssssssssssssssssssccscccssssssssssssssssssssssssssssssssssssssssssssssssssssssssssscssssssssssssssssssssssssssssssssssssss" /></g></svg>
