<?xml version="1.0" encoding="UTF-8" standalone="no"?>
<!-- Created with Inkscape (http://www.inkscape.org/) -->

<svg
   width="500"
   height="500"
   viewBox="0 0 500 500"
   version="1.1"
   id="svg1"
   xml:space="preserve"
   inkscape:version="1.4.2 (2aeb623e1d, 2025-05-12)"
   sodipodi:docname="Opilec.svg"
   xmlns:inkscape="http://www.inkscape.org/namespaces/inkscape"
   xmlns:sodipodi="http://sodipodi.sourceforge.net/DTD/sodipodi-0.dtd"
   xmlns="http://www.w3.org/2000/svg"
   xmlns:svg="http://www.w3.org/2000/svg"><sodipodi:namedview
     id="namedview1"
     pagecolor="#ffffff"
     bordercolor="#000000"
     borderopacity="0.25"
     inkscape:showpageshadow="2"
     inkscape:pageopacity="0.0"
     inkscape:pagecheckerboard="0"
     inkscape:deskcolor="#d1d1d1"
     inkscape:document-units="px"
     inkscape:zoom="1.0731789"
     inkscape:cx="140.23757"
     inkscape:cy="201.7371"
     inkscape:window-width="1920"
     inkscape:window-height="940"
     inkscape:window-x="0"
     inkscape:window-y="0"
     inkscape:window-maximized="1"
     inkscape:current-layer="layer1"
     showgrid="false"><inkscape:grid
       id="grid1"
       units="px"
       originx="0"
       originy="0"
       spacingx="1"
       spacingy="1"
       empcolor="#0099e5"
       empopacity="0.30196078"
       color="#0099e5"
       opacity="0.14901961"
       empspacing="5"
       enabled="true"
       visible="false" /></sodipodi:namedview><defs
     id="defs1" /><g
     inkscape:label="Layer 1"
     inkscape:groupmode="layer"
     id="layer1"><path
       style="fill:#000000"
       d="m 235.02664,380.32442 c -1.91034,-0.83184 -6.86034,-1.75546 -11,-2.05248 -4.13965,-0.29703 -8.02903,-0.93494 -8.64307,-1.41758 -0.61403,-0.48265 -6.85579,-1.99964 -13.87057,-3.3711 -10.82836,-2.11705 -13.59763,-3.05901 -18.34048,-6.23841 -7.13876,-4.78552 -11.11926,-11.17762 -10.11603,-16.24485 0.89321,-4.51153 1.94908,-7 2.97013,-7 1.26224,0 3.94685,-8.99926 4.4893,-15.04888 0.80333,-8.95907 2.54928,-20.03766 4.24739,-26.95112 1.92979,-7.85665 2.19546,-52.46774 0.37519,-63 -0.61787,-3.575 -1.1733,-14.6 -1.2343,-24.5 -0.086,-13.95388 -0.33479,-17.15706 -1.10689,-14.25 -0.67834,2.55403 -1.56311,3.75 -2.7742,3.75 -2.9995,0 -4.29192,-2.57269 -3.63266,-7.23119 0.95733,-6.76472 0.66054,-10.16077 -0.96761,-11.07193 -0.86925,-0.48646 -1.27353,-1.59194 -0.95231,-2.60404 0.38519,-1.21362 -0.20619,-2.107 -1.90807,-2.88243 -5.87111,-2.67505 -7.78682,-13.89901 -3.06557,-17.96091 2.45209,-2.10965 2.5184,-2.38958 1.05946,-4.47251 -2.17113,-3.09973 -1.94135,-6.59135 0.68611,-10.42589 2.61768,-3.82026 4.26701,-4.7048 11.89427,-6.37895 6.13239,-1.34603 11.99529,-0.72293 13.81369,1.46811 1.94343,2.34169 9.94933,5.62183 12.3189,5.04724 7.09099,-1.71947 16.22241,-2.11179 18.66757,-0.80204 2.40706,1.28935 2.71532,1.17687 5.06311,-1.84749 8.51638,-10.97053 12.50598,-12.34242 19.39042,-6.66768 4.25582,3.508 6.50447,3.14038 7.73716,-1.26493 0.37018,-1.32295 0.71792,-1.89932 0.77274,-1.28082 0.0621,0.70085 1.67948,0.34292 4.2927,-0.95 5.9762,-2.95679 9.89858,-2.66594 15.17801,1.12546 2.45076,1.76 5.05736,3.19563 5.79245,3.19029 0.73508,-0.005 3.31235,-1.58033 5.72725,-3.5 2.4149,-1.91966 5.42026,-3.49029 6.67857,-3.49029 2.82528,0 5.73972,2.75232 4.98821,4.71073 -0.30663,0.79906 -0.55751,1.86604 -0.55751,2.37106 0,0.50501 -0.9,0.0182 -2,-1.08179 -1.1,-1.1 -2.5625,-1.9926 -3.25,-1.98355 -2.58591,0.034 -9.27522,4.6392 -11.47043,7.89666 C 284.01879,147.26788 284,147.27424 284,144.684 c 0,-3.86129 -7.4658,-10.62607 -11.76357,-10.659 -4.13691,-0.0317 -7.09987,1.7812 -6.52211,3.99056 0.3266,1.24891 -0.36826,1.86523 -2.60788,2.31315 -6.08346,1.21669 -5.08074,9.5306 1.48008,12.27189 7.45831,3.11628 16.61892,-0.88297 15.12327,-6.60237 -0.61687,-2.35892 0.80227,-2.71217 1.68233,-0.41877 1.04387,2.72028 -0.4371,6.11992 -3.21904,7.38948 -1.47019,0.67093 -5.91752,1.46598 -9.88295,1.76677 -9.48945,0.71981 -12.26563,-0.85648 -12.34392,-7.00876 -0.0529,-4.15992 -0.1493,-4.27369 -6.0758,-7.17402 -6.79478,-3.32525 -7.91937,-3.07898 -11.60309,2.5409 -1.22797,1.87339 -2.69047,3.94968 -3.25,4.61396 -1.53699,1.82476 -1.25162,2.29221 1.39935,2.29221 1.32916,0 2.58817,0.51453 2.7978,1.1434 0.28234,0.84703 0.96631,0.83022 2.63877,-0.0649 3.49042,-1.86801 4.51649,-0.8183 2.14594,2.19538 -2.45211,3.11735 -4.98274,3.43818 -8.57155,1.0867 -2.36466,-1.54938 -2.62532,-1.52353 -4.74822,0.47083 l -2.24621,2.11021 -3.24077,-1.97083 c -3.93232,-2.39138 -5.93902,-2.57456 -3.70243,-0.33797 0.99177,0.99176 1.51059,2.84419 1.32143,4.71811 l -0.31143,3.08525 7.5,1.34055 c 7.16028,1.27984 25.84018,1.07448 33.5,-0.36829 2.29336,-0.43196 2.64668,-0.31468 1.5,0.49792 -0.825,0.58464 -3.16094,1.06987 -5.19098,1.07829 -2.03004,0.008 -3.9691,0.46531 -4.30902,1.01531 -0.33992,0.55 -2.55047,1 -4.91233,1 -10.50107,0 -22.33124,2.31186 -13.33767,2.60646 1.7875,0.0585 6.2875,0.46112 10,0.8946 6.57336,0.76752 6.75,0.86287 6.75,3.64354 0,1.57047 0.45,2.8554 1,2.8554 0.55,0 1,-0.45 1,-1 0,-1.34314 7.70612,-1.28452 8.54015,0.065 0.362,0.58573 1.90632,0.93405 3.43182,0.77403 1.5255,-0.16001 4.41096,0.59082 6.41213,1.66853 3.02259,1.62777 3.97514,1.74922 5.6272,0.7175 2.49497,-1.55814 2.6055,-0.0932 0.15996,2.11999 -2.37495,2.1493 -3.95775,2.08255 -7.92126,-0.33405 -2.16854,-1.32218 -3.2449,-1.57051 -3.23469,-0.74626 0.0272,2.19484 1.59089,3.80295 4.43841,4.56449 l 2.78326,0.74436 0.25113,11.78111 0.25114,11.7811 3.32654,3.43212 c 2.78186,2.87015 4.03638,3.43212 7.66176,3.43212 2.62436,0 4.4663,-0.4933 4.66737,-1.25 1.70395,-6.41268 2.26024,-7.25894 5.12705,-7.79958 1.87225,-0.35308 2.87609,-1.09794 2.70349,-2.00601 -0.49755,-2.61773 -3.57354,-9.412 -5.06807,-11.19441 -1.301,-1.55159 -1.28172,-1.75 0.17006,-1.75 2.20651,0 10.28938,-7.862 11.58421,-11.26766 0.57136,-1.50279 0.65923,-2.73234 0.19526,-2.73234 -0.46397,0 -1.0988,-1.90282 -1.41074,-4.2285 -0.31194,-2.32567 -1.10991,-4.40941 -1.77328,-4.63053 -2.95768,-0.9859 -8.9229,-7.50896 -8.9229,-9.75733 0,-2.60178 1.73398,-3.24046 2.60874,-0.96088 0.81178,2.11548 7.22466,4.83587 9.84779,4.17751 1.25786,-0.31571 3.9215,-2.38318 5.91919,-4.59439 3.13074,-3.46535 3.4659,-4.28662 2.42778,-5.94892 -1.48405,-2.37634 -4.76052,-3.33752 -6.48848,-1.90344 -2.1963,1.82277 -6.21863,0.11717 -6.88331,-2.91875 -1.12806,-5.15234 -1.3496,-5.39695 -4.68039,-5.16776 -1.78823,0.12305 -4.37632,0.12668 -5.75132,0.008 -2.31579,-0.19976 -2.35263,-0.27898 -0.5,-1.07508 4.24291,-1.82324 8.22729,-1.10932 11.16199,2 2.30173,2.43869 3.64457,3 7.17703,3 6.6724,0 10.70341,4.24943 8.29675,8.74631 -0.68949,1.28832 -0.42899,2.4083 0.95876,4.1221 1.04801,1.29424 1.91535,3.54081 1.92743,4.99237 0.0341,4.10088 3.32817,10.3889 7.07533,13.50615 1.87149,1.55689 6.97322,5.15216 11.33718,7.9895 8.53608,5.54995 9.46237,6.75705 18.0716,23.55004 5.35973,10.45457 5.26499,10.09071 6.66417,25.59353 1.00955,11.18565 0.93548,12.50897 -1.09145,19.5 -1.19597,4.125 -2.77003,9.57229 -3.49791,12.1051 -2.01476,7.0108 -16.67888,30.09379 -24.21909,38.12359 -1.68952,1.79922 -4.44216,5.29631 -6.11697,7.77131 -1.67481,2.475 -4.44005,5.82169 -6.14497,7.43709 -1.70492,1.6154 -3.09985,3.3029 -3.09985,3.75 0,1.65758 5.74912,0.74761 7.5,-1.18709 3.70085,-4.08939 7.37886,-1.34982 5.93125,4.41791 -0.61777,2.46139 -4.88335,6.84932 -7.6443,7.86355 -0.83707,0.3075 0.24675,2.06356 3.10039,5.02344 l 4.38734,4.55068 -2.56662,4.32221 c -3.61123,6.08134 -7.75772,10.29674 -12.51644,12.72445 -2.24896,1.14733 -5.19113,3.18818 -6.53817,4.53522 -1.34704,1.34704 -3.95763,3.27326 -5.80131,4.28049 -1.84368,1.00722 -4.50617,2.60479 -5.91665,3.55015 -3.44821,2.31114 -17.1366,5.7319 -22.93652,5.7319 -2.57461,0 -6.89013,0.67013 -9.59004,1.48918 -6.70116,2.03286 -27.57932,1.92664 -32.38229,-0.16476 z m 51.20192,-15.79055 c 5.90071,-1.18671 11.07571,-2.53375 11.5,-2.99341 0.42429,-0.45967 -0.35356,-0.50551 -1.72856,-0.10187 -1.375,0.40364 -14.38757,1.17204 -28.91682,1.70757 -23.26466,0.8575 -27.32168,0.77632 -34,-0.6803 -4.17075,-0.9097 -13.20818,-2.04144 -20.08318,-2.515 -16.65978,-1.14755 -20.60885,-1.77462 -22.04068,-3.49987 C 190.29701,355.65295 189.31718,355 188.78193,355 c -0.53526,0 -2.32668,-0.96377 -3.98096,-2.14172 -2.47874,-1.76502 -3.16277,-1.89694 -3.88905,-0.75 -1.30481,2.06052 -1.10985,2.88688 0.83808,3.55229 0.9625,0.3288 2.90077,1.93545 4.30726,3.57034 2.37013,2.75502 3.24822,3.03379 12,3.80977 9.76278,0.86561 29.68269,3.66617 31.44274,4.42056 0.55,0.23574 11.125,0.159 23.5,-0.17055 17.18438,-0.45761 25.03462,-1.10891 33.22856,-2.75682 z m -23.83227,-23.49376 c 3.52018,-0.80903 5.5466,-2.34359 5.5884,-4.23193 0.008,-0.3805 -3.15864,-0.42572 -7.03791,-0.1005 l -7.05323,0.59132 2.30323,-3.64178 c 1.72451,-2.72675 3.37534,-3.92589 6.57022,-4.7725 7.14059,-1.89219 6.39904,-3.2837 -1.35952,-2.55114 -3.79912,0.35871 -9.38248,0.71668 -12.40748,0.79549 -3.025,0.0788 -4.375,0.32049 -3,0.53707 6.93735,1.09269 7,1.14195 7,5.50361 v 4.13164 l -19.75,-0.68514 C 210.24194,335.81809 206,335.31596 206,333.39059 206,332.42802 207.26887,332 210.12244,332 c 3.45632,0 3.93118,-0.23047 2.93874,-1.42628 -0.65104,-0.78446 -3.17946,-2.24696 -5.6187,-3.25 -3.38938,-1.39375 -4.43587,-2.35419 -4.43873,-4.07372 -0.004,-2.63761 0.24045,-2.6723 5.49625,-0.77884 2.2,0.79258 5.35,1.42871 7,1.41363 2.37497,-0.0217 1.74994,-0.44681 -3,-2.04039 -3.3,-1.10714 -6.929,-2.87504 -8.06445,-3.92869 C 203.3001,316.86207 201.8927,316 201.30799,316 c -0.5847,0 -1.6233,-0.675 -2.30799,-1.5 -0.68469,-0.825 -2.55562,-1.5 -4.15763,-1.5 -2.60286,0 -2.79886,0.21277 -1.84237,2 0.93954,1.75554 0.76049,2 -1.46482,2 -1.80512,0 -2.53518,0.53575 -2.53518,1.86043 0,1.02323 -0.28617,3.94823 -0.63592,6.5 -0.7529,5.49294 0.64499,6.14297 2.98825,1.38957 l 1.60213,-3.25 0.0228,4.11514 c 0.0251,4.53834 3.0392,9.38071 5.84535,9.39102 0.92258,0.003 2.80242,0.59067 4.17742,1.30508 2.17729,1.13124 5.56016,2.16256 13.5,4.1157 3.13793,0.7719 41.55426,-0.3889 45.89629,-1.38683 z m -74.94831,-3.93952 c 1.29145,-2.49738 1.30284,-3.0625 0.0821,-4.07559 -1.13761,-0.94413 -1.39453,-0.81601 -1.30225,0.64941 0.0632,1.00407 -0.21749,2.83809 -0.62384,4.07559 -1.04527,3.18332 0.064,2.79265 1.84395,-0.64941 z m 77.1174,-23.16461 c 18.97968,-3.96343 20.83949,-4.56866 26.13762,-8.50579 2.85884,-2.12445 5.06428,-3.99625 4.90098,-4.15954 -0.16329,-0.1633 -1.88346,0.36601 -3.8226,1.17623 -12.15732,5.07965 -38.91288,6.60533 -68.78138,3.92209 -13.38508,-1.20244 -19.52579,-2.1744 -22.21016,-3.51546 C 198.74925,301.83408 196.68398,301 196.20035,301 195.30232,301 193,305.3381 193,307.03021 c 0,1.90235 9.90077,5.96927 14.71676,6.04517 2.63078,0.0415 8.60824,0.65737 13.28324,1.3687 13.80809,2.10098 32.09247,1.88773 43.56538,-0.5081 z m 54.80731,-18.19506 c 3.37002,-3.44249 9.34887,-9.22243 13.28633,-12.8443 9.43381,-8.67769 13.60218,-16.7079 15.35617,-29.58308 1.7496,-12.84296 0.92151,-19.50404 -3.53491,-28.43439 C 337.9866,211.86626 320.17814,199.661 316.93408,206 c -2.54325,4.9696 -3.89694,9.30803 -4.83636,15.5 -0.5841,3.85 -1.52399,9.23138 -2.08863,11.95862 -0.73678,3.55865 -0.59023,13.66197 0.51907,35.78573 0.85014,16.95491 1.27753,31.26104 0.94976,31.79138 -0.32778,0.53035 -0.0642,0.96427 0.58575,0.96427 0.64994,0 3.939,-2.81659 7.30902,-6.25908 z M 237,293.60699 c 0,-0.21616 -0.675,-0.65203 -1.5,-0.96862 -0.825,-0.31658 -1.5,-0.13972 -1.5,0.39301 0,0.53274 0.675,0.96862 1.5,0.96862 0.825,0 1.5,-0.17686 1.5,-0.39301 z m -36.16382,-3.12585 c 1.08973,-1.38537 2.29969,-4.83362 2.6888,-7.66277 0.38911,-2.82916 1.48272,-7.43317 2.43025,-10.23114 1.5459,-4.56493 2.05303,-5.11983 4.93938,-5.40474 1.76914,-0.17462 6.31792,0.38788 10.1084,1.25 3.79049,0.86213 9.95297,1.50619 13.6944,1.43125 l 6.80259,-0.13627 -8.29608,-0.80139 c -4.56284,-0.44076 -9.73784,-1.23915 -11.5,-1.77419 -1.76216,-0.53503 -5.22892,-1.26083 -7.70392,-1.61288 -5.58277,-0.79411 -9,-2.94161 -9,-5.6559 0,-1.91645 0.38161,-2.0183 5.12025,-1.36657 2.81614,0.38732 7.65364,1.89204 10.75,3.34384 4.99638,2.34265 6.75479,2.62506 15.62975,2.51019 9.03052,-0.11688 32.60319,-3.07937 41.5,-5.2155 1.925,-0.46219 5.3,-1.79127 7.5,-2.95351 l 4,-2.11317 -3.69924,-0.0442 c -2.03458,-0.0243 -8.55958,0.90591 -14.5,2.06717 -9.35396,1.82854 -13.07796,2.03707 -27.80076,1.55673 -21.9235,-0.71526 -39.0968,-3.4397 -38.18806,-6.05831 0.48926,-1.40984 25.14006,-1.08629 39.06836,0.51279 7.97539,0.91564 10.96376,0.86957 15.5,-0.23894 l 5.6197,-1.37327 -5,-0.76246 c -2.75,-0.41936 -13.1,-1.19897 -23,-1.73249 -18.18305,-0.97989 -23.92462,-1.69662 -30.75,-3.83858 -9.31467,-2.92316 -10.93006,-3.33012 -11.39059,-2.86958 -0.26997,0.26997 0.038,2.44878 0.68434,4.8418 0.81394,3.01341 0.99922,10.42679 0.60272,24.11555 -0.6869,23.71463 -0.24379,25.8528 4.18971,20.21653 z m 62.52425,-52.11706 c 8.13578,-1.11514 5.01305,-1.93337 -7.61043,-1.99412 -6.7375,-0.0324 -18.95718,-0.58425 -27.15485,-1.22628 -13.45104,-1.05345 -18.36105,-0.96978 -14.48828,0.24692 9.25201,2.90666 37.36054,4.6036 49.25356,2.97348 z M 203.45,233.07076 c -1.3705,-1.34054 -7.22976,-2.6177 -5.95,-1.29693 0.55,0.56762 1.9,1.24852 3,1.5131 3.41009,0.82024 3.96778,0.77937 2.95,-0.21617 z m 151.97022,-8.76909 c -1.31606,-9.48219 -4.55558,-19.33919 -7.03107,-21.39367 -0.84443,-0.70081 -2.4052,-2.9793 -3.46838,-5.0633 C 342.74462,193.57909 337.26461,187 335.88775,187 c -0.49779,0 -2.79218,-1.36702 -5.09865,-3.03782 l -4.19358,-3.03781 -1.19871,2.28781 c -0.65929,1.2583 -1.19445,2.73782 -1.18924,3.28782 0.005,0.55 2.91455,3.39625 6.4652,6.325 6.6638,5.4966 18.56091,22.14629 19.94798,27.91665 0.36468,1.51709 1.56573,4.55835 2.66901,6.75835 1.10328,2.2 1.93943,4.1125 1.8581,4.25 -0.51482,0.87044 -0.005,2.27976 0.67305,1.86068 0.4515,-0.27904 0.27119,-4.4681 -0.40069,-9.30901 z M 199.2679,200.39876 c 0.41619,-0.41618 2.08294,0.22384 3.70391,1.42227 1.84715,1.36566 4.40841,2.17897 6.86197,2.17897 2.15312,0 5.82792,0.675 8.16622,1.5 4.55894,1.60849 17,2.07016 17,0.63084 0,-1.04364 -5.881,-2.10464 -11.75,-2.11983 -2.90585,-0.008 -4.88254,-0.64355 -6.25,-2.01101 -1.1,-1.1 -2.9,-2 -4,-2 -2.42419,0 -2.68128,-2.80134 -0.33956,-3.69994 0.91325,-0.35045 5.59649,-0.0801 10.4072,0.6008 10.09155,1.4283 31.56879,-0.11949 35.93236,-2.58953 l 2.5,-1.41515 -2.5,0.50456 c -14.92101,3.01141 -30.93427,3.04589 -55.46309,0.1194 -6.5797,-0.78501 -12.16444,-1.22594 -12.41054,-0.97985 -0.24609,0.2461 0.24553,1.23771 1.09251,2.20358 2.94614,3.35973 4.78203,8.18643 4.92814,12.95647 l 0.14702,4.79966 0.60859,-5.67227 c 0.33472,-3.11975 0.94909,-6.01279 1.36527,-6.42897 z m -13.44744,-11.25215 c 0.17625,-1.83535 -0.0359,-4.08166 -0.47154,-4.99181 -0.43559,-0.91014 -0.8048,-5.5685 -0.82045,-10.3519 -0.0248,-7.58998 0.20375,-8.75804 1.79574,-9.17579 1.00332,-0.26328 2.08094,-1.46039 2.39471,-2.66026 0.47633,-1.82148 1.09722,-2.09609 3.76161,-1.66372 1.75511,0.28481 3.7681,0.16124 4.47332,-0.27461 0.77768,-0.48063 2.01813,-0.0565 3.15242,1.07775 1.62745,1.62745 2.87771,1.79017 9.63197,1.25358 8.76893,-0.69665 10.29171,-1.48099 8.48672,-4.37124 C 217.55123,156.9098 217,155.14142 217,154.05888 c 0,-1.45699 -0.90743,-2.13849 -3.49343,-2.62362 -1.92138,-0.36046 -4.50888,-0.40731 -5.75,-0.10412 -1.24111,0.30319 -3.13008,-0.0973 -4.1977,-0.88994 -3.17027,-2.35378 -5.33275,-1.71996 -7.1423,2.09338 -1.92232,4.05098 -3.5804,5.14817 -9.11819,6.0337 -3.58492,0.57325 -4.20523,0.33113 -6.67672,-2.60606 -2.68902,-3.19572 -3.18057,-6.95733 -1.00276,-7.67353 0.69219,-0.22763 0.94527,0.54039 0.6636,2.01384 -1.14365,5.9826 7.45884,7.80229 12.59656,2.66456 3.29703,-3.29702 3.24689,-4.88419 -0.27807,-8.80256 -1.75455,-1.95037 -2.73447,-2.23457 -5.94276,-1.72351 -5.9023,0.94019 -11.53097,4.20377 -12.26002,7.10852 -0.39697,1.58165 0.16119,4.43817 1.49378,7.64473 1.17016,2.81573 2.01067,5.1614 1.86779,5.21262 -0.14288,0.0512 -1.60978,0.79866 -3.25978,1.661 -2.72475,1.42404 -2.97605,1.97453 -2.73899,6 0.21518,3.65378 0.87186,4.95895 3.7394,7.43211 2.81714,2.4297 3.60171,3.9505 4.12713,8 0.35682,2.75 1.10771,5.5818 1.66865,6.29289 1.81006,2.29457 4.18308,0.90657 4.52427,-2.64628 z m 6.30762,-11.9398 c -0.20689,-3.89803 0.25514,-6.19114 1.76202,-8.74512 1.12335,-1.90393 1.86943,-3.46169 1.65796,-3.46169 -0.21147,0 -1.09629,-0.27314 -1.96627,-0.60699 -1.02893,-0.39484 -1.58179,-0.0576 -1.58179,0.96482 0,0.86449 -0.9,2.05347 -2,2.64217 -1.1,0.5887 -2,1.96064 -2,3.04875 0,1.08811 -0.50535,2.78759 -1.12301,3.77661 -1.49045,2.38659 1.4603,8.44892 3.8851,7.98194 1.32507,-0.25518 1.59168,-1.34826 1.36599,-5.60049 z M 309,175 c 0,-0.55 -0.47656,-1 -1.05902,-1 -0.58246,0 -0.7809,0.45 -0.44098,1 0.33992,0.55 0.81648,1 1.05902,1 0.24254,0 0.44098,-0.45 0.44098,-1 z m 8.46273,-2.03093 c 2.19635,1.82281 2.50846,-3.48732 0.40798,-6.94127 -2.24537,-3.69222 -5.23234,-3.88686 -9.24819,-0.60262 -2.74347,2.24365 -2.95317,5.02267 -0.30224,4.00541 0.69092,-0.26513 2.58901,0.91261 4.21797,2.61721 2.34012,2.44878 3.03176,2.75786 3.2953,1.47263 0.24812,-1.21003 0.66539,-1.35124 1.62918,-0.55136 z m -103.49076,-4.93059 c 1.89703,-1.1997 0.61194,-1.65567 -6.8144,-2.41784 -4.51057,-0.46293 -5.16102,-0.32972 -4.17738,0.85549 1.82771,2.20225 8.48392,3.14835 10.99178,1.56235 z M 227.5,152 c -1.80201,-1.9912 -5.5,-2.76631 -5.5,-1.15281 0,0.9797 3.83937,2.98563 5.90499,3.08513 1.0587,0.051 0.95888,-0.42526 -0.40499,-1.93232 z m 4.5,-1 c 0,-0.55 -0.47656,-1 -1.05902,-1 -0.58246,0 -0.7809,0.45 -0.44098,1 0.33992,0.55 0.81648,1 1.05902,1 0.24254,0 0.44098,-0.45 0.44098,-1 z m 51.57143,55.42857 c -2.11653,-2.11653 -1.98371,-3.51956 0.71293,-7.53069 2.80746,-4.17596 5.93941,-4.84419 8.11908,-1.73227 2.49936,3.56833 1.91509,5.60822 -2.38357,8.32185 -4.7023,2.96843 -4.45693,2.93262 -6.44844,0.94111 z m 6.67155,-23.58559 c -1.62387,-1.62387 -1.59128,-5.30903 0.0591,-6.67868 0.71612,-0.59433 2.29112,-0.82195 3.5,-0.50582 1.62286,0.42439 2.19796,1.32922 2.19796,3.45815 0,1.58585 0.014,3.22087 0.0311,3.63337 0.0544,1.31264 -4.49536,1.38573 -5.78811,0.093 z M 273.51197,168.25 c 0.18426,-0.9625 0.36944,-2.3125 0.41152,-3 0.10947,-1.78847 2.07651,-1.55165 2.07651,0.25 0,0.94383 0.95193,1.5 2.56739,1.5 2.11231,0 2.45487,-0.3545 1.93261,-2 -0.70759,-2.22942 0.46331,-2.63669 2.3,-0.8 1.58146,1.58146 1.5146,2.34254 -0.37143,4.22857 -0.88295,0.88295 -3.25386,1.57143 -5.41151,1.57143 -3.11819,0 -3.77711,-0.32899 -3.50509,-1.75 z M 224.272,120.78932 c -6.06706,-2.92819 -3.79356,-13.03804 3.22822,-14.35534 4.71697,-0.88491 10.49978,3.23504 10.49978,7.48055 0,6.08921 -7.53615,9.86321 -13.728,6.87479 z m 7.98276,-3.53932 c 2.07175,-2.31704 2.3025,-4.17724 0.93036,-7.5 -1.50256,-3.63857 -5.29863,-3.69245 -8.11254,-0.11514 -2.31797,2.94682 -2.68224,6.35548 -0.87258,8.16514 1.76641,1.76641 6.25779,1.45973 8.05476,-0.55 z m 40.06441,-16.25026 C 264.09711,97.343856 262.35394,89.706264 267.90136,81.643367 271.58143,76.294568 273.5909,75 278.21342,75 284.28441,75 292,84.523775 292,92.017541 c 0,3.798843 -2.37379,8.576959 -4.94461,9.952819 -2.93718,1.57193 -10.07547,1.10176 -14.73622,-0.97062 z m 13.62234,-4.437475 c 1.39699,-1.487038 2.48365,-4.154631 2.78634,-6.840123 0.4575,-4.058879 0.18744,-4.726975 -3.46098,-8.562265 C 283.09041,78.871945 280.40157,77 279.29168,77 c -1.12901,0 -4.06065,2.183764 -6.65484,4.957159 -6.78258,7.251132 -6.32197,11.052837 1.86316,15.377644 4.4872,2.370919 8.75937,2.082459 11.44151,-0.772538 z"
       id="path1"
       sodipodi:nodetypes="sssssssssssssssssssssssssssssscsssssssssssssssssssssscssscssscssscssssssssssssssscccssssssssssssssssssscsssssssssssssssssssscsssssssssssssssssssssssssscscsssssscssssscsssssssssssscscssssssssssssssssssssssssssssssssssssssssssscssssssssscsssssscsssssssssssssssssssssscscssssssssssscssssscssssscsssssssssssssssssssssssssssssssssssssssssssssssssssssssssssssssssssssssssssssssssssssssssssssssssssssssssssssss" /></g></svg>
