<?xml version="1.0" encoding="UTF-8" standalone="no"?>
<!-- Created with Inkscape (http://www.inkscape.org/) -->

<svg
   width="500"
   height="500"
   viewBox="0 0 500 500"
   version="1.1"
   id="svg1"
   xml:space="preserve"
   inkscape:version="1.4.2 (2aeb623e1d, 2025-05-12)"
   sodipodi:docname="Panna.svg"
   xmlns:inkscape="http://www.inkscape.org/namespaces/inkscape"
   xmlns:sodipodi="http://sodipodi.sourceforge.net/DTD/sodipodi-0.dtd"
   xmlns="http://www.w3.org/2000/svg"
   xmlns:svg="http://www.w3.org/2000/svg"><sodipodi:namedview
     id="namedview1"
     pagecolor="#ffffff"
     bordercolor="#000000"
     borderopacity="0.25"
     inkscape:showpageshadow="2"
     inkscape:pageopacity="0.0"
     inkscape:pagecheckerboard="0"
     inkscape:deskcolor="#d1d1d1"
     inkscape:document-units="px"
     inkscape:zoom="1.0731789"
     inkscape:cx="140.23757"
     inkscape:cy="201.7371"
     inkscape:window-width="1920"
     inkscape:window-height="940"
     inkscape:window-x="0"
     inkscape:window-y="0"
     inkscape:window-maximized="1"
     inkscape:current-layer="layer1"
     showgrid="false"><inkscape:grid
       id="grid1"
       units="px"
       originx="0"
       originy="0"
       spacingx="1"
       spacingy="1"
       empcolor="#0099e5"
       empopacity="0.30196078"
       color="#0099e5"
       opacity="0.14901961"
       empspacing="5"
       enabled="true"
       visible="false" /></sodipodi:namedview><defs
     id="defs1" /><g
     inkscape:label="Layer 1"
     inkscape:groupmode="layer"
     id="layer1"><path
       style="fill:#000000"
       d="m 311.75086,369.38199 c 0,-0.55 -2.03264,-1 -4.51698,-1 -8.84046,0 -29.5309,-5.08605 -45.98302,-11.30338 -19.94908,-7.53885 -48.26412,-24.83031 -57.05472,-34.84225 l -2.95563,-3.36629 -3.99483,2.21146 c -25.33954,14.02749 -45.07403,18.50368 -57.03096,12.93578 -6.34209,-2.95328 -20.98631,-17.49534 -27.39246,-27.20137 -4.64737,-7.04129 -7.94212,-16.72252 -6.7491,-19.83147 0.33912,-0.88372 2.36145,-1.84809 4.63943,-2.21235 2.22105,-0.35516 4.03827,-0.94996 4.03827,-1.32177 0,-0.37182 -1.54601,-2.17447 -3.43557,-4.00591 -4.01276,-3.88933 -4.0272,-5.26533 -0.16753,-15.96525 4.16216,-11.53847 13.92913,-29.17892 20.53957,-37.0972 2.06621,-2.475 4.48913,-5.91764 5.38427,-7.65031 2.12402,-4.11137 10.95893,-13.8164 26.96995,-29.62614 18.97397,-18.73545 38.53585,-33.24738 57.20931,-42.4406 4.95,-2.43695 9.67509,-4.78117 10.50019,-5.20936 4.68963,-2.43369 21.24629,-6.41221 26.99981,-6.48798 11.49637,-0.15141 17.25882,2.91625 30.72922,16.3588 6.30746,6.29443 11.8971,12.36943 12.42142,13.5 0.52432,1.13057 1.71742,3.40559 2.65133,5.05559 2.52478,4.46066 2.16098,22.47826 -0.6111,30.26578 -1.12265,3.15382 -2.29589,6.85922 -2.60719,8.23422 -0.99091,4.3768 -1.76889,4.88785 -6.08753,3.99894 -8.95731,-1.8437 -23.41419,-4.96609 -29.99615,-6.47854 -3.85,-0.88469 -7.8132,-1.3991 -8.8071,-1.14315 -0.99391,0.25596 -1.66031,0.16329 -1.48089,-0.20594 0.17943,-0.36922 3.13012,-6.37564 6.55711,-13.34759 3.42698,-6.97195 6.23088,-12.9232 6.23088,-13.225 0,-0.86485 -5.94536,0.42599 -12.5,2.71398 -8.64305,3.01697 -20.53888,10.28248 -35.81883,21.87674 -17.29971,13.12682 -46.8087,44.75007 -56.9843,61.0671 -4.95414,7.94418 -16.15848,30.61518 -15.47049,31.30317 0.74147,0.74147 22.74063,-8.89498 28.27362,-12.3849 2.2,-1.38764 7.375,-4.31038 11.5,-6.49497 4.125,-2.18459 8.85,-4.96868 10.5,-6.18688 3.8282,-2.82637 13.56385,-7.35573 17.50508,-8.14398 1.6701,-0.33402 3.32599,-1.07565 3.67977,-1.64808 0.41456,-0.67076 -0.0372,-0.77236 -1.27081,-0.28576 -1.05272,0.41526 -3.48904,0.99617 -5.41404,1.29092 -1.925,0.29475 -6.9875,2.28502 -11.25,4.42283 -7.8365,3.93031 -10.31875,3.83641 -4.68225,-0.17713 C 205.72935,258.27668 234.30342,250.19 250,250 c 5.36203,-0.0649 9.74953,-0.44694 9.75,-0.84896 0.004,-2.98383 -24.41047,-1.9539 -37.99914,1.60304 -16.49871,4.31865 -23.09281,7.23332 -29.25,12.92883 -2.47481,2.28925 -3.75,4.34936 -3.75,6.05827 0,1.88304 -0.84376,3.02577 -3.09293,4.18887 -1.70111,0.87968 -3.26996,1.42239 -3.48632,1.20602 -0.39541,-0.39541 1.78711,-12.22691 3.45951,-18.75408 1.22311,-4.77369 4.77525,-12.48336 8.52365,-18.5 1.71327,-2.75 3.78577,-6.30783 4.60556,-7.9063 1.8213,-3.55123 10.13133,-10.86142 15.40118,-13.54815 11.25146,-5.73632 36.73488,-10.29818 44.72563,-8.00647 1.84278,0.52851 5.16381,0.96092 7.38005,0.96092 6.99261,0 36.06098,8.04152 51.48367,14.24252 4.125,1.65854 9.075,3.58775 11,4.28713 4.2953,1.56055 4.72957,3.60251 2.08048,9.78259 -2.45239,5.7212 -1.15933,6.28461 1.50864,0.65733 1.54042,-3.24906 2.29862,-3.90947 3.91088,-3.40651 1.1,0.34315 3.35,0.86711 5,1.16435 1.65,0.29724 4.19447,1.38017 5.65437,2.40651 1.4599,1.02635 2.94162,1.86608 3.2927,1.86608 1.31385,0 11.20074,7.94787 15.10742,12.14454 4.84261,5.20209 12.25075,14.19055 15.12826,18.35546 2.97572,4.30706 7.29331,15.58616 8.2268,21.49135 0.99462,6.29194 -0.52242,20.56424 -3.02433,28.45282 -1.03687,3.2693 -1.88522,6.72096 -1.88522,7.67036 0,2.82858 -6.6457,15.00317 -11.23101,20.57464 -9.04635,10.99194 -27.13046,19.31083 -41.97909,19.31083 -3.19327,0 -5.7899,0.44848 -5.7899,1 0,0.5641 -2.83333,1 -6.5,1 -3.66667,0 -6.5,-0.4359 -6.5,-1 z m 17.64885,-18 c 0.69992,-2.475 2.41526,-7.8214 3.81187,-11.8809 1.3966,-4.05949 2.53928,-7.99699 2.53928,-8.75 0,-1.07918 -2.42742,-1.3691 -11.46298,-1.3691 -9.19272,0 -12.49152,-0.40541 -16.65629,-2.04701 -2.85633,-1.12586 -5.734,-1.83954 -6.39483,-1.58595 -0.66084,0.25358 -1.54785,1.96224 -1.97115,3.79701 -1.09818,4.76006 -1.14957,4.9167 -3.06347,9.33595 -0.95278,2.2 -1.92954,5.63112 -2.17057,7.62472 -0.40366,3.33877 -0.18358,3.71349 2.78975,4.75 1.77539,0.6189 5.16849,1.12528 7.54022,1.12528 4.20245,0 4.34035,-0.10441 5.4165,-4.10094 0.60735,-2.25552 1.292,-3.91322 1.52144,-3.68377 0.22945,0.22945 -0.0251,1.9594 -0.56572,3.84434 -0.5406,1.88494 -0.9829,3.95514 -0.9829,4.60043 0,1.9392 5.10543,3.23586 11.93813,3.03201 l 6.43813,-0.19207 z m -17.01694,-10.5 c 1.51056,-6.54241 2.02295,-7.88495 3.15318,-8.2617 0.78784,-0.26261 0.68935,0.54112 -0.29836,2.43484 -0.81092,1.55477 -1.48407,3.50186 -1.49588,4.32686 -0.0118,0.825 -0.47825,2.175 -1.03654,3 -0.73871,1.09161 -0.82648,0.68323 -0.3224,-1.5 z m 56.17568,7.57949 c 1.26917,-1.41872 3.68421,-5.25823 5.36674,-8.53225 2.81413,-5.47595 3.0209,-6.55728 2.58149,-13.5 -0.612,-9.6696 -3.16824,-16.27321 -6.13543,-15.84981 -1.62508,0.23189 -2.04327,0.88655 -1.79026,2.80257 2.11528,16.01852 -0.99093,32.56538 -7.41432,39.49634 -1.32869,1.43369 -2.41581,2.83142 -2.41581,3.10607 0,0.85291 7.37612,-4.80496 9.80759,-7.52292 z m -80.02092,-1.32949 c 6.5594,-17.05679 8.48903,-22.80763 7.86292,-23.43375 -0.75001,-0.75001 -23.77591,-8.52769 -24.12129,-8.14768 -1.20486,1.32567 -13.5283,27.12083 -13.5283,28.31715 0,0.83285 0.7875,1.5295 1.75,1.5481 0.9625,0.0186 6.7,1.54475 12.75,3.39143 6.05,1.84668 11.51024,3.40646 12.13386,3.46618 0.62362,0.0597 2.04238,-2.25393 3.15281,-5.14143 z M 230.1509,331.53961 c -10.18587,-7.42355 -15.7506,-16.82293 -11.65715,-19.69008 1.06697,-0.74734 4.30964,-3.29576 7.20595,-5.66317 2.8963,-2.3674 7.21831,-5.71622 9.60446,-7.44183 2.38615,-1.7256 4.06281,-3.4131 3.72591,-3.75 -0.3369,-0.33689 -0.0159,-0.61254 0.71325,-0.61254 2.40336,0 11.97524,7.92061 11.39601,9.43005 -0.30978,0.80727 0.35001,1.89481 1.53397,2.52844 1.14266,0.61153 2.07756,1.77104 2.07756,2.57669 0,1.60615 0.6808,1.74493 9.5,1.9365 4.22211,0.0917 8.07421,1.01873 13,3.1285 15.27537,6.54259 33.222,10.49982 50.52529,11.14081 11.7556,0.43548 14.69447,0.20814 22.46102,-1.73756 4.91465,-1.23123 9.88347,-2.67042 11.04182,-3.1982 l 2.10608,-0.9596 -2.25376,-4.67281 c -4.79497,-9.94163 -21.03666,-26.326 -34.38045,-34.68248 -14.72986,-9.22449 -40.66522,-20.29383 -51.67212,-22.0539 l -3.92394,-0.62746 -11.20617,11.9796 c -12.66318,13.53718 -30.92544,30.20614 -39.32887,35.8976 -7.11209,4.81687 -11.8689,8.8966 -11.8689,10.17949 0,1.70609 22.15566,19.13433 24.32453,19.13433 0.53655,0 -0.77947,-1.27907 -2.92449,-2.84238 z m -69.90004,-1.1483 6,-1.96122 -8.83935,0.11388 c -8.30838,0.10703 -8.99897,-0.0458 -11.49686,-2.54364 -2.41997,-2.41997 -2.70248,-3.52726 -3.16065,-12.38793 -0.4692,-9.07394 -0.6002,-9.56174 -1.94179,-7.23041 -1.95534,3.39787 -2.57918,18.94535 -0.84627,21.09081 2.10211,2.60255 7.04494,4.82738 10.78492,4.85442 1.925,0.0139 6.2,-0.85723 9.5,-1.93591 z m 11.64753,-15.44147 c 4.91046,-1.49031 10.35269,-4.02483 12.85247,-5.98558 0.825,-0.64711 4.2,-2.2376 7.5,-3.53444 8.05762,-3.1665 14.5,-6.95213 14.5,-8.52041 0,-3.80932 -10.66465,-6.52742 -25.6108,-6.52742 -9.5337,0 -11.9086,0.33541 -16.0399,2.26531 -7.45948,3.48464 -7.51817,3.54172 -6.21629,6.04538 1.13764,2.18779 1.13671,2.18774 -1.33484,-0.0824 l -2.47327,-2.2717 -2.91245,2.20777 c -1.60185,1.21428 -3.06462,2.31372 -3.25061,2.4432 -0.58127,0.40466 4.76375,9.01512 6.6634,10.73428 1.70122,1.53957 8.47988,4.44597 10.67476,4.57686 0.55,0.0328 3.09139,-0.57509 5.64753,-1.35086 z M 372.82186,292.5047 c 1.70108,-4.05751 3.24117,-8.14737 3.42243,-9.08858 0.18126,-0.94121 0.90006,-3.61543 1.59733,-5.94272 1.20402,-4.01868 1.13851,-4.36618 -1.30296,-6.91142 -1.4139,-1.474 -6.08168,-6.40181 -10.37284,-10.9507 -6.23848,-6.61318 -8.04682,-8.01605 -9.0232,-7 -0.67161,0.69889 -3.89907,6.20057 -7.17215,12.22595 -3.27307,6.02538 -6.40482,11.1065 -6.95943,11.29137 -0.55462,0.18487 -2.30255,-0.72258 -3.88429,-2.01657 -4.35512,-3.56282 -12.37589,-7.95185 -12.37589,-6.77219 0,0.57318 0.41103,1.04215 0.91341,1.04215 2.03807,0 18.02179,12.82687 25.12429,20.16214 4.17403,4.31082 7.86321,7.83786 8.19817,7.83786 0.33497,0 1.15911,-1.6875 1.83145,-3.75 0.67233,-2.0625 2.29888,-5.04182 3.61457,-6.62072 1.31568,-1.5789 3.02753,-4.3914 3.8041,-6.25 0.77658,-1.8586 1.66596,-3.37928 1.9764,-3.37928 0.31045,0 -0.15458,1.6875 -1.03339,3.75 -0.87882,2.0625 -2.84189,7.22774 -4.36238,11.47832 l -2.76452,7.72832 2.09895,1.40292 c 2.51577,1.68152 2.50747,1.69177 6.66995,-8.23685 z M 145.97947,278.12742 c 6.29581,-12.30967 14.4685,-24.74543 16.2625,-24.74543 0.79609,0 3.09377,-2.5875 5.10596,-5.75 5.49268,-8.63268 13.03637,-17.9872 20.35446,-25.24046 l 6.54847,-6.49047 -4,-0.5833 c -4.49167,-0.65499 -8.85565,-3.19792 -17.61694,-10.26555 l -5.98717,-4.82977 3.39461,-3.67023 c 6.62882,-7.16701 15.25108,-16.71224 17.71243,-19.60847 l 2.49707,-2.93825 -2.64783,1.93825 c -29.68898,21.73271 -54.68784,50.54084 -66.29157,76.39291 -3.05833,6.81368 -5.5606,13.40555 -5.5606,14.6486 0,3.08157 8.3327,10.84715 17.30795,16.12998 3.95563,2.32829 7.41705,4.23873 7.69205,4.24543 0.275,0.007 2.62787,-4.14826 5.22861,-9.23324 z m 111.60364,-14.20799 c 5.35436,-5.06229 6.03187,-6.07085 4.48716,-6.67972 -3.42681,-1.35073 -19.81603,-0.78322 -28.81941,0.99793 l -9,1.78048 3.87212,1.68194 c 2.12967,0.92506 4.56125,1.68193 5.40351,1.68193 2.18408,0 11.66519,4.6213 13.14889,6.40906 0.69338,0.83547 0.89748,2.06993 0.45942,2.77872 -1.10336,1.78528 3.03099,-1.63762 10.44831,-8.65034 z m -64.59841,-6.60236 c 4.72446,-4.95041 20.11873,-12.93508 24.93857,-12.93508 1.09172,0 1.82759,-0.72314 1.82759,-1.79598 0,-2.36322 7.86744,-15.06399 12.32408,-19.89531 5.08362,-5.51103 7.94378,-9.31048 6.9985,-9.29684 -0.45242,0.007 -3.29758,0.67619 -6.32258,1.48813 -3.025,0.81194 -7.3,1.5019 -9.5,1.53324 -7.7588,0.11051 -10.55271,2.61028 -24.86051,22.2433 -7.20314,9.88407 -11.56854,17.6025 -11.61753,20.54085 -0.0291,1.74495 3.8809,0.56015 6.21188,-1.88231 z m 95.12431,-53.68508 c 0.91674,-5.54625 0.77214,-13.7771 -0.29116,-16.57381 -1.6955,-4.45949 -7.05878,-9.67619 -9.94808,-9.67619 -3.89931,0 -6.76714,2.44489 -7.39321,6.30287 -0.30182,1.85994 -2.16358,5.90607 -4.13724,8.99139 -1.97365,3.08532 -3.58846,6.01967 -3.58846,6.52079 0,0.50112 2.87386,1.14182 6.38636,1.42377 4.57181,0.36698 7.91034,1.36874 11.75,3.5257 2.95,1.65719 5.64226,3.06311 5.9828,3.12427 0.34053,0.0612 0.89808,-1.57629 1.23899,-3.63879 z m 14.69645,-8.5 c 0.03,-0.6875 0.20282,-3.275 0.38399,-5.75 0.18117,-2.475 -0.0319,-7.58211 -0.47341,-11.34914 -1.05116,-8.96785 -3.35793,-11.65086 -10.01705,-11.65086 -2.82881,0 -5.16993,0.56233 -5.87424,1.41097 -1.49373,1.79984 -0.75026,2.20169 5.67749,3.06873 8.14817,1.0991 9.50857,3.45993 9.0847,15.76556 -0.18485,5.36618 10e-4,9.75625 0.41392,9.75572 0.4125,-5.4e-4 0.77457,-0.56348 0.8046,-1.25098 z M 244.75086,176.775 c 0,-0.21615 -0.675,-0.39301 -1.5,-0.39301 -0.825,0 -1.5,0.43588 -1.5,0.96861 0,0.53274 0.675,0.7096 1.5,0.39302 0.825,-0.31659 1.5,-0.75246 1.5,-0.96862 z m 10.2722,-5.5964 c 6.07586,-3.10401 10.67865,-4.62181 17.59844,-5.80318 l 9.37065,-1.59979 -4.69391,-3.05335 c -2.58165,-1.67935 -8.66261,-6.94292 -13.51323,-11.69682 -6.99084,-6.85145 -9.41174,-8.63609 -11.67674,-8.60785 -5.81748,0.0725 -14.65258,2.93014 -25.60364,8.28122 -6.18958,3.02444 -12.10568,5.77602 -13.1469,6.11461 -1.04122,0.3386 -1.61815,0.89061 -1.28206,1.22669 0.33608,0.33608 1.86299,0.13579 3.39313,-0.4451 1.53013,-0.58089 5.0647,-1.32137 7.85459,-1.64551 4.91224,-0.57071 5.26181,-0.43743 11.06204,4.21757 3.29423,2.64379 8.32409,5.81121 11.17747,7.0387 2.85338,1.22749 5.18796,2.75716 5.18796,3.39928 0,0.64211 -1.20919,2.42961 -2.68709,3.9722 -1.4779,1.5426 -2.36791,2.80472 -1.9778,2.80472 0.39011,0 4.4118,-1.89153 8.93709,-4.20339 z"
       id="path1"
       sodipodi:nodetypes="sssscssssssssssssssssssssssssssssssssssssssscssssssssssssssssssssssssssssssssssssssssssssscssssssssssssssssssssssssssssssssssssscssscsssssscssssssssssssssscssssssssssssssssssssssssscsssssscsscsscsssscsssscssssssssscssssssssssssssssscssssssssssssscssssssssssssss" /></g></svg>
