<?xml version="1.0" encoding="UTF-8" standalone="no"?>
<!-- Created with Inkscape (http://www.inkscape.org/) -->

<svg
   width="500"
   height="500"
   viewBox="0 0 500 500"
   version="1.1"
   id="svg1"
   xml:space="preserve"
   inkscape:version="1.4.2 (2aeb623e1d, 2025-05-12)"
   sodipodi:docname="Samotar.svg"
   xmlns:inkscape="http://www.inkscape.org/namespaces/inkscape"
   xmlns:sodipodi="http://sodipodi.sourceforge.net/DTD/sodipodi-0.dtd"
   xmlns="http://www.w3.org/2000/svg"
   xmlns:svg="http://www.w3.org/2000/svg"><sodipodi:namedview
     id="namedview1"
     pagecolor="#ffffff"
     bordercolor="#000000"
     borderopacity="0.25"
     inkscape:showpageshadow="2"
     inkscape:pageopacity="0.0"
     inkscape:pagecheckerboard="0"
     inkscape:deskcolor="#d1d1d1"
     inkscape:document-units="px"
     inkscape:zoom="1.0731789"
     inkscape:cx="140.23757"
     inkscape:cy="319.1453"
     inkscape:window-width="1920"
     inkscape:window-height="940"
     inkscape:window-x="0"
     inkscape:window-y="0"
     inkscape:window-maximized="1"
     inkscape:current-layer="layer1"
     showgrid="false"><inkscape:grid
       id="grid1"
       units="px"
       originx="0"
       originy="0"
       spacingx="1"
       spacingy="1"
       empcolor="#0099e5"
       empopacity="0.30196078"
       color="#0099e5"
       opacity="0.14901961"
       empspacing="5"
       enabled="true"
       visible="false" /></sodipodi:namedview><defs
     id="defs1" /><g
     inkscape:label="Layer 1"
     inkscape:groupmode="layer"
     id="layer1"><path
       style="fill:#000000"
       d="m 219,350.9642 c -26.65859,-0.82815 -42.73652,-2.17984 -53,-4.45575 -8.26574,-1.83292 -22.0814,-7.11444 -23.23469,-8.88228 -1.41329,-2.16638 -0.73648,-5.00111 2.95223,-12.36503 4.4687,-8.92107 9.36908,-13.61545 16.38913,-15.70018 2.87421,-0.85355 5.98158,-2.23584 6.90526,-3.07176 1.51294,-1.36919 2.26474,-1.25092 7.58375,1.19304 4.96657,2.28202 7.96905,2.84386 18.90432,3.53747 7.15,0.45351 16.79624,1.08922 21.43608,1.41269 12.59653,0.87816 52.24477,-2.16664 62.81392,-4.82383 2.53333,-0.6369 4.25,-1.6491 4.25,-2.50592 0,-0.95989 -0.66443,-1.24893 -2,-0.87004 -1.1,0.31207 -2.7875,0.78236 -3.75,1.04511 -2.3739,0.64803 -15.77431,2.62147 -20.92638,3.08177 -2.29701,0.20522 -7.02201,0.83489 -10.5,1.39926 -8.34077,1.35347 -23.32204,1.31482 -33.84985,-0.0873 -4.66058,-0.62072 -9.37377,-1.09004 -10.47377,-1.04294 -1.1,0.0471 -5.58965,-0.83071 -9.977,-1.95068 -4.38735,-1.11997 -8.88735,-2.05304 -10,-2.07349 -1.11265,-0.0205 -3.29228,-0.50255 -4.84362,-1.07133 -3.34865,-1.22773 -3.19023,-2.9681 1.09057,-11.98069 l 2.73005,-5.74771 6.71505,-0.002 c 3.69328,-10e-4 8.64328,0.6459 11,1.43814 2.35672,0.79224 6.75995,1.71155 9.78495,2.0429 3.025,0.33136 7.16685,1.04495 9.20412,1.58576 4.74784,1.26034 36.04706,-0.53576 47.7952,-2.74273 15.75917,-2.96046 15.41672,-2.98128 17.81477,1.08311 1.3271,2.24926 2.87817,3.59052 4.15218,3.59052 1.14109,0 2.03373,0.65838 2.03373,1.5 0,0.825 0.39137,1.5 0.86971,1.5 0.47835,0 6.66585,-5.39316 13.75,-11.98479 13.68918,-12.73745 25.26164,-20.54131 31.93534,-21.53552 9.99641,-1.48921 17.3518,-1.66554 20.88161,-0.50059 5.02823,1.65946 12.04608,11.08588 13.00274,17.46536 0.37573,2.50555 1.10557,4.55554 1.62187,4.55554 0.53491,0 0.93873,5.37727 0.93873,12.5 0,6.875 -0.40582,12.5 -0.90181,12.5 -0.496,0 -1.21832,2.8125 -1.60516,6.25 -1.0875,9.66379 -6.56291,18.47093 -13.22589,21.27372 -5.28754,2.22421 -22.38784,5.6247 -27.76714,5.52166 -2.75,-0.0527 -6.125,-0.12202 -7.5,-0.15409 -3.4515,-0.0805 -9.99672,1.48615 -13,3.11163 -1.375,0.7442 -8.575,2.44715 -16,3.78433 -15.43289,2.77935 -35.55393,3.37127 -74,2.17695 z M 212.5,348 c -0.33992,-0.55 -3.40398,-0.95514 -6.80902,-0.90032 -4.61462,0.0743 -5.55442,0.30354 -3.69098,0.90032 3.71285,1.18906 11.23488,1.18906 10.5,0 z m 130.63539,-15.55014 c 5.15054,-1.95258 11.54596,-5.13877 14.21206,-7.08044 l 4.84745,-3.53029 -0.34745,-17.16957 c -0.32269,-15.9458 -0.52564,-17.52474 -2.84745,-22.15279 -3.5541,-7.08435 -7.29099,-8.98874 -17.90229,-9.12337 -7.66278,-0.0972 -8.9989,0.19188 -15.18105,3.28468 -5.61368,2.80841 -7.64814,4.56401 -11.83703,10.2145 -4.46462,6.02244 -12.12339,13.19136 -15.42951,14.44263 -1.51639,0.57391 2.27709,3.59058 4.5685,3.63299 1.0337,0.0191 1.5101,0.57517 1.1954,1.39526 -0.36634,0.95468 0.65146,1.5513 3.39478,1.98998 2.898,0.4634 4.95369,1.75011 7.89629,4.94245 2.18807,2.37377 4.43154,5.12583 4.98549,6.11569 0.93725,1.67477 1.18812,1.61881 3.61285,-0.80592 2.02413,-2.02413 3.59539,-2.60566 7.04033,-2.60566 6.09288,0 9.14392,2.50313 8.21364,6.73864 -0.78945,3.59437 -1.95356,4.72177 -5.83284,5.64891 l -2.77543,0.66332 2.12543,-2.12543 c 2.86783,-2.86783 1.17908,-4.64678 -2.63631,-2.77713 -4.47117,2.19101 -6.73259,5.94732 -5.51248,9.15645 0.8717,2.29274 1.60865,2.69524 4.93487,2.69524 2.15058,0 8.12422,-1.59756 13.27475,-3.55014 z m -111.29026,-6.18578 c 1.85408,-0.69463 0.46933,-1.12835 -6.61334,-2.07134 C 220.30464,323.53673 214.24341,323 211.76239,323 c -2.48102,0 -6.25501,-0.60704 -8.38666,-1.34898 -2.13165,-0.74194 -6.28645,-1.42691 -9.23288,-1.52216 -2.94643,-0.0952 -6.17935,-0.61321 -7.18426,-1.15102 C 185.95368,318.44003 183.97079,318 182.55217,318 c -1.41862,0 -3.3607,-0.39684 -4.31574,-0.88187 C 175.69057,315.82518 167.41381,314 164.09643,314 c -1.58117,0 -3.92991,0.85433 -5.21942,1.89851 l -2.34456,1.8985 3.98378,0.99517 c 15.02902,3.75432 24.39486,5.48553 33.98377,6.28166 6.05,0.50231 12.575,1.35023 14.5,1.88427 3.96898,1.10108 19.29658,0.63544 22.84513,-0.69403 z M 217.5,300.50178 c -2.75,-0.74977 -8.15,-1.8705 -12,-2.49051 -7.30122,-1.1758 -11.5,-2.72361 -11.5,-4.23927 0,-0.48952 0.3375,-0.69131 0.75,-0.44843 0.4125,0.24288 1.875,-2.5e-4 3.25,-0.5403 2.33444,-0.91689 2.14173,-1.07602 -2.91008,-2.40306 l -5.41008,-1.42116 -2.79928,3.27048 c -1.5396,1.79876 -2.81757,3.59641 -2.83992,3.99479 -0.0223,0.39838 1.42186,1.50319 3.20936,2.45515 2.33203,1.24195 6.78067,1.90751 15.75,2.35635 20.60128,1.03092 20.2829,1.04265 14.5,-0.53404 z M 365.61501,288.25 c -0.33998,-1.5125 -1.03264,-5.04369 -1.53926,-7.84708 -1.11908,-6.19251 -3.21279,-11.3971 -5.50827,-13.69258 -2.02754,-2.02754 -11.05216,-2.35789 -15.02043,-0.54982 -3.88788,1.77144 -3.04735,2.6502 1.99167,2.08223 9.50966,-1.07188 14.83903,3.94561 17.5333,16.50725 0.73729,3.4375 1.75017,6.25 2.25083,6.25 0.50067,0 0.63214,-1.2375 0.29216,-2.75 z M 223.5,288.94595 c -4.4,-0.30472 -9.26534,-1.09166 -10.81186,-1.74876 -1.54652,-0.6571 -6.04652,-1.48159 -10,-1.83221 -7.07348,-0.62731 -10.16499,-1.78441 -9.151,-3.42507 1.65327,-2.67506 18.89626,-12.06833 24.79443,-13.507 2.43724,-0.59449 3.25054,-0.18239 5.84,2.95907 1.65464,2.00736 4.39781,4.36822 6.09594,5.24636 2.89229,1.49565 3.17742,1.47853 4.50931,-0.27086 0.78199,-1.02712 2.26111,-3.77998 3.28695,-6.11748 1.28911,-2.9374 2.4756,-4.25 3.84168,-4.25 1.08708,0 2.21296,0.38257 2.50194,0.85016 0.28899,0.46759 3.80305,1.87585 7.80902,3.12948 9.83031,3.07628 14.21564,5.41401 16.69938,8.90209 2.69782,3.78875 2.63811,4.11827 -0.74631,4.11827 -1.55679,0 -5.00985,1.10331 -7.67347,2.45181 -2.66362,1.3485 -5.20558,2.22769 -5.64881,1.95376 -0.44323,-0.27393 -1.76504,0.0153 -2.93736,0.64268 -2.40443,1.28681 -16.40403,1.72917 -28.40984,0.8977 z m 23.10718,-8.45364 c 7.57111,-2.29745 7.99651,-2.79771 4.96067,-5.83356 C 248.81674,271.90765 245.78487,270 244.16357,270 c -0.53236,0 -1.40006,1.2375 -1.92823,2.75 -0.52817,1.5125 -2.37587,4.26402 -4.10599,6.1145 -2.38204,2.54773 -3.68991,3.21863 -5.38752,2.76365 -1.233,-0.33046 -3.43657,-0.60699 -4.89681,-0.6145 -2.08929,-0.0107 -3.22612,-0.98824 -5.3356,-4.58779 -1.94019,-3.31068 -3.12529,-4.40351 -4.29046,-3.95639 -0.88541,0.33977 -3.77189,1.32493 -6.4144,2.18925 -2.64251,0.86432 -4.80456,1.89767 -4.80456,2.29632 0,0.7704 3.76103,2.02428 13.5,4.50072 6.95442,1.76838 18.50987,1.34194 26.10718,-0.96345 z m -58.33988,0.80284 c -0.67799,-0.24766 -2.64406,-3.09825 -4.36904,-6.33466 -1.72499,-3.23641 -5.60185,-8.71401 -8.61524,-12.17244 -3.01339,-3.45843 -5.83751,-7.20541 -6.27582,-8.32663 -1.78885,-4.57592 -2.14347,-16.94277 -0.67277,-23.46142 2.45665,-10.88873 5.60856,-22.22163 6.50581,-23.392 0.46718,-0.6094 1.43231,-3.26187 2.14474,-5.89438 0.71242,-2.63252 3.55055,-8.70752 6.30696,-13.5 2.7564,-4.79249 6.06804,-10.96362 7.35919,-13.71362 1.29116,-2.75 3.14662,-6.35 4.12324,-8 0.97662,-1.65 3.08996,-5.25 4.69632,-8 1.60635,-2.75 4.56877,-6.90335 6.58315,-9.22967 3.74492,-4.32483 6.24221,-10.50191 10.01812,-24.77989 1.98965,-7.52351 2.49352,-18.26815 1.61619,-34.463557 C 217.41364,84.959605 220.84766,83.5 233.04398,83.5 c 7.50041,0 10.13121,0.38477 12.2865,1.79697 2.47835,1.623879 2.66676,2.153657 1.95602,5.5 -0.43257,2.036666 -0.71997,9.94346 -0.63865,17.57066 0.14689,13.77768 0.17103,13.91389 3.72114,21 1.96531,3.9228 4.20498,8.7401 4.97705,10.7051 0.77207,1.965 2.70327,5.115 4.29154,7 1.58828,1.885 4.66335,6.12727 6.8335,9.42727 2.17015,3.3 5.14324,7.575 6.60686,9.5 1.46362,1.925 3.97631,5.975 5.58376,9 1.60746,3.025 4.89099,8.39799 7.29675,11.93999 2.40576,3.54199 5.47242,9.61699 6.81479,13.5 1.34237,3.883 2.80208,7.51001 3.24379,8.06001 0.98616,1.22793 5.8936,19.07592 7.21034,26.22349 0.6664,3.61741 0.59588,7.39572 -0.22936,12.28833 -1.249,7.40487 -1.79953,8.32715 -11.26863,18.87768 -2.66039,2.96423 -5.91697,7.52057 -7.23684,10.12521 -2.92795,5.77804 -5.2556,6.95087 -7.60734,3.83309 -1.63615,-2.16908 -1.58384,-2.38262 1.4589,-5.95543 1.73575,-2.03812 4.69044,-6.33518 6.566,-9.54902 1.87555,-3.21384 4.57555,-7.6068 6,-9.76212 2.47988,-3.7523 2.58644,-4.49573 2.5084,-17.5 -0.088,-14.6703 -1.8401,-23.40903 -7.13386,-35.58123 -2.87841,-6.61847 -14.73678,-27.04337 -16.24052,-27.97273 -2.02532,-1.25172 -19.61914,-28.40421 -23.96426,-36.98399 L 241.5,127.5 l 0.0854,-17.5666 0.0854,-17.566603 -9.3316,0.0666 -9.33161,0.0666 -0.004,16.630943 c -0.003,15.14707 -0.21906,17.19921 -2.41639,23 -2.90135,7.65937 -10.49297,22.418 -14.60808,28.3991 -1.63863,2.38167 -2.97933,4.73713 -2.97933,5.23435 0,0.49723 -1.77565,3.43887 -3.94588,6.53698 -4.7665,6.8047 -13.36182,23.76995 -16.56631,32.69863 -3.70387,10.32011 -6.4876,25.14389 -6.4876,34.54743 0,8.19083 0.19721,8.95569 4.32329,16.76745 5.17728,9.80194 9.24859,16.4423 11.80587,19.25554 1.84823,2.03321 1.84152,2.1073 -0.37355,4.12272 -1.24059,1.12876 -2.81033,1.84967 -3.48831,1.60201 z M 243,87.5 c 1.08182,-1.30351 0.41014,-1.529521 -5.12756,-1.725363 -8.9177,-0.315376 -14.93321,-0.0472 -15.67942,0.699007 -1.49019,1.490189 2.89305,2.496771 10.93454,2.511043 C 239.59077,88.996159 242.06741,88.623705 243,87.5 Z M 231.66667,269.33333 C 231.3,268.96667 231,267.64322 231,266.39235 c 0,-3.31189 -1.67596,-3.81955 -2.44847,-0.74166 l -0.66181,2.63688 -1.68756,-2.39379 C 225.27401,264.5772 224.50985,263.275 224.50404,263 c -0.006,-0.275 -1.17337,-2.075 -2.59458,-4 -6.31248,-8.55013 -8.71415,-20.78007 -5.55394,-28.28212 0.74554,-1.76983 3.33594,-5.46788 5.75645,-8.21788 7.72843,-8.78046 9.14112,-12.34763 8.73802,-22.0642 -0.1925,-4.63985 -0.26982,-8.43602 -0.17184,-8.43594 0.098,7e-5 1.12771,2.53806 2.28828,5.63997 1.16057,3.1019 3.43288,7.4894 5.04957,9.75 2.90323,4.05954 6.20378,15.04406 8.92936,29.71765 1.20621,6.49386 1.1751,6.71093 -1.80968,12.62373 -1.67034,3.30894 -4.38615,7.36541 -6.03512,9.01439 -1.64898,1.64897 -3.28377,4.29329 -3.63287,5.87627 -1.22632,5.56062 -1.99682,6.51567 -3.80102,4.71146 z m 5.57634,-17.16756 c 4.36502,-7.3894 4.16113,-24.44956 -0.46636,-39.02135 l -2.0183,-6.35558 -1.49345,3.35558 c -4.03622,9.06889 -7.81637,15.70637 -10.88256,19.10846 C 219.323,232.64737 219,233.58533 219,239.07481 c 0,4.78585 0.56956,7.04094 2.69381,10.66569 1.66267,2.83713 2.86559,4.05364 3.14258,3.17807 0.24683,-0.78021 1.28462,-2.61304 2.30619,-4.07294 1.02158,-1.4599 1.8961,-4.1599 1.94337,-6 0.0842,-3.27676 0.10261,-3.29044 0.89513,-0.66441 0.44504,1.47468 1.53136,3.7123 2.41404,4.97251 0.88269,1.26021 1.60488,3.54115 1.60488,5.06878 0,3.54966 1.12427,3.52999 3.24301,-0.0567 z"
       id="path2"
       sodipodi:nodetypes="cssssssssssssssssssssccsssssssssssssssssssssccsssssscssssssssssssssscssssssssssssssscsssssssssscsssssssssssssssssssssssssssssssssssssssssssssssssssssssssssssssssssssssssssssssssssccccccssscsssssssssssssscscsssssssssssssscssssssssssss" /></g></svg>
