<?xml version="1.0" encoding="UTF-8" standalone="no"?>
<!-- Created with Inkscape (http://www.inkscape.org/) -->

<svg
   width="500"
   height="500"
   viewBox="0 0 500 500"
   version="1.1"
   id="svg1"
   xml:space="preserve"
   inkscape:version="1.4.2 (2aeb623e1d, 2025-05-12)"
   sodipodi:docname="Starosta.svg"
   xmlns:inkscape="http://www.inkscape.org/namespaces/inkscape"
   xmlns:sodipodi="http://sodipodi.sourceforge.net/DTD/sodipodi-0.dtd"
   xmlns="http://www.w3.org/2000/svg"
   xmlns:svg="http://www.w3.org/2000/svg"><sodipodi:namedview
     id="namedview1"
     pagecolor="#ffffff"
     bordercolor="#000000"
     borderopacity="0.25"
     inkscape:showpageshadow="2"
     inkscape:pageopacity="0.0"
     inkscape:pagecheckerboard="0"
     inkscape:deskcolor="#d1d1d1"
     inkscape:document-units="px"
     inkscape:zoom="1.3906832"
     inkscape:cx="369.24298"
     inkscape:cy="257.0679"
     inkscape:window-width="1920"
     inkscape:window-height="940"
     inkscape:window-x="0"
     inkscape:window-y="0"
     inkscape:window-maximized="1"
     inkscape:current-layer="layer1"
     showgrid="false"><inkscape:grid
       id="grid1"
       units="px"
       originx="0"
       originy="0"
       spacingx="1"
       spacingy="1"
       empcolor="#0099e5"
       empopacity="0.30196078"
       color="#0099e5"
       opacity="0.14901961"
       empspacing="5"
       enabled="true"
       visible="false" /></sodipodi:namedview><defs
     id="defs1" /><g
     inkscape:label="Layer 1"
     inkscape:groupmode="layer"
     id="layer1"><path
       style="fill:#000000"
       d="m 247,322.00769 c 0,-0.64282 -21.57275,-1.08308 -61.25,-1.25 L 124.5,320.5 v -6.5 -6.5 l 4.7401,-2.35132 4.7401,-2.35133 40.2599,1.03936 c 41.99137,1.08405 46.93592,1.46553 48.8473,3.76861 0.79954,0.96338 3.44986,1.39468 8.57023,1.39468 5.38288,0 8.13888,0.47921 10.06452,1.75 1.45848,0.9625 5.38015,3.1 8.71482,4.75 4.37683,2.16567 6.1519,3.62575 6.38258,5.25 0.29533,2.07947 -0.0647,2.25 -4.75,2.25 C 249.2813,323 247,322.55346 247,322.00769 Z m 29,0.12817 c 0,-0.47528 -2.1375,-1.65958 -4.75,-2.63177 -2.6125,-0.9722 -9.49018,-3.94823 -15.28373,-6.6134 -9.10128,-4.18681 -11.71904,-4.93688 -19.25,-5.51576 -9.27314,-0.71279 -11.1015,-1.71899 -4.96627,-2.73308 4.29853,-0.71051 93.25,-0.8816 93.25,-0.17936 0,0.25437 -0.91274,2.90199 -2.0283,5.88361 -1.50269,4.01629 -3.05753,6.13438 -6,8.17351 C 314.78726,320.03343 313,321.6608 313,322.136 313,322.6112 304.675,323 294.5,323 284.325,323 276,322.61114 276,322.13586 Z m 40,0.60749 C 316,321.61667 328.03344,310 329.20054,310 c 0.82587,0 3.7061,-1.2375 6.40052,-2.75 4.77328,-2.67946 5.27816,-2.74619 19.68382,-2.60148 14.6228,0.14689 14.81434,0.17797 17.4713,2.83493 2.10945,2.10946 2.80873,3.96588 3.256,8.64393 0.31327,3.27663 0.36369,6.16341 0.11204,6.41507 C 375.65669,323.00998 316,323.20931 316,322.74335 Z M 202,299.56809 c 0,-1.46683 -5.75474,-6.14668 -6.56371,-5.33772 -0.2467,0.24671 0.45421,1.26554 1.55758,2.26408 C 198.09724,297.49299 199,298.69023 199,299.15499 199,299.61974 183.475,300 164.5,300 H 130 v -3.2656 c 0,-1.79608 0.83971,-4.83358 1.86602,-6.75 l 1.86603,-3.4844 18.38397,-0.5 c 10.11119,-0.275 43.13398,-0.275 73.38398,0 l 55,0.5 0.30728,5.5 c 0.16901,3.025 0.67563,5.87162 1.12583,6.32582 0.45019,0.4542 0.60462,-0.29321 0.34317,-1.66091 -0.73143,-3.82619 1.03543,-5.88136 6.87345,-7.99504 4.81455,-1.74313 8.8548,-1.97721 40.35027,-2.33777 21.41215,-0.24513 35.55871,-0.0279 36.43915,0.55953 1.36429,0.91026 3.27814,11.72747 2.36345,13.35837 -0.23135,0.4125 -37.74408,0.75 -83.36162,0.75 C 213.63533,301 202,300.79913 202,299.56809 Z m -8.55,-6.46632 c -1.29024,-1.21993 -13.17067,-5.77121 -17.24027,-6.60459 -1.80965,-0.37058 -5.63465,-0.34568 -8.5,0.0553 l -5.20973,0.7291 5.5,1.98848 c 3.025,1.09366 9.775,2.53977 15,3.21357 5.225,0.6738 9.9275,1.29063 10.45,1.37072 0.6,0.092 0.6,-0.1853 0,-0.7526 z m -33.72083,-5.70594 c -0.3323,-0.33229 -1.1948,-0.36781 -1.91667,-0.0789 -0.79773,0.31922 -0.56078,0.55618 0.60417,0.60416 1.05416,0.0434 1.64479,-0.19293 1.3125,-0.52522 z m 123.53986,-1.08882 c 0.97297,-0.25354 2.32297,-0.23687 3,0.0371 0.67703,0.27393 -0.11903,0.48137 -1.76903,0.46099 -1.65,-0.0204 -2.20394,-0.2445 -1.23097,-0.49804 z M 175.75,283.25043 141,282.97408 v -3.29995 c 0,-2.31018 0.84123,-4.1059 2.80472,-5.98704 L 146.60944,271 h 47.12385 c 42.29224,0 47.29156,0.16771 48.75957,1.63571 1.12443,1.12444 1.95833,1.3131 2.66785,0.60358 0.60156,-0.60156 3.43774,-0.81402 6.79855,-0.50927 3.7285,0.33809 6.01244,0.12478 6.46259,-0.60357 0.50114,-0.81087 12.93659,-1.0883 44.38717,-0.99027 24.03004,0.0749 42.67848,0.3312 41.44098,0.56955 -4.4323,0.8537 -2.1391,2.29427 3.65217,2.29427 5.72106,0 5.93587,0.0966 7,3.14922 0.60381,1.73208 1.09783,3.98208 1.09783,5 0,1.78625 -2.53665,1.84253 -72.75,1.61417 -40.0125,-0.13014 -88.3875,-0.36097 -107.5,-0.51296 z m -17.5031,-16.07667 c -0.9491,-0.60261 -0.51946,-2.23012 1.77101,-6.70877 1.66325,-3.25223 2.81639,-6.45441 2.56253,-7.11596 -0.25386,-0.66154 0.12119,-1.68644 0.83344,-2.27756 0.95902,-0.79592 1.47795,-7.49561 2.00015,-25.82311 0.38783,-13.6116 0.91695,-32.21946 1.17583,-41.3508 0.39911,-14.07835 0.23802,-16.79551 -1.05959,-17.87244 C 164.68862,165.32661 164,164.13521 164,163.37756 c 0,-0.75766 -0.5625,-1.38041 -1.25,-1.38388 -1.22364,-0.006 -4.75,-5.25841 -4.75,-7.07472 0,-0.52637 8.11702,-0.91896 19,-0.91896 20.91515,0 21.50727,0.20627 16.02778,5.58333 -1.63472,1.60417 -2.98472,3.45681 -3,4.11698 -0.0153,0.66017 -0.76383,1.61223 -1.66346,2.11568 -1.40339,0.78538 -1.75055,4.23617 -2.44458,24.29969 -1.15237,33.31301 -1.11737,59.64415 0.0803,60.38432 0.55,0.33992 1,1.87868 1,3.41947 0,1.54079 1.125,4.45922 2.5,6.48539 2.89304,4.26313 3.13911,6.13591 0.91821,6.98815 -2.34504,0.89988 -30.71318,0.70654 -32.17131,-0.21925 z M 170.59357,216.25 c -0.0509,-38.97974 0.52275,-46.75 3.45119,-46.75 1.51455,0 1.73683,18.21642 0.80734,66.16226 -0.30933,15.95628 0.0789,20.77345 1.55194,19.25441 0.22222,-0.22917 0.68063,-14.36667 1.0187,-31.41667 0.75649,-38.15326 1.54651,-55.5 2.52761,-55.5 1.23428,0 2.58346,21.7039 2.08247,33.5 -0.9437,22.21991 -0.58897,52.81311 0.61705,53.21589 0.85644,0.28603 1.11162,-10.91435 1,-43.89278 L 183.5,166.5463 l -4.9536,-0.83046 c -8.95808,-1.50179 -9.14588,-1.2945 -9.89325,10.92034 C 168.29392,182.5074 168,202.54112 168,221.15556 168,248.54835 168.25202,255 169.32206,255 c 1.07422,0 1.31259,-7.26465 1.27151,-38.75 z M 168,161.28678 c -0.825,-0.30543 -2.175,-1.0574 -3,-1.67105 -1.30346,-0.96954 -1.32017,-0.88643 -0.12756,0.63427 0.75485,0.9625 2.10485,1.71447 3,1.67105 1.36145,-0.066 1.38231,-0.16974 0.12756,-0.63427 z M 172.5,158 l 2,-0.85943 h -2 c -1.1,0 -2.9,0.38674 -4,0.85943 l -2,0.85943 h 2 c 1.1,0 2.9,-0.38674 4,-0.85943 z M 208,265.55902 c 0,-1.34254 0.43796,-2.71166 0.97324,-3.04248 1.5348,-0.94856 4.26786,-7.30471 3.75321,-8.72865 -0.25601,-0.70834 0.14063,-1.98708 0.88143,-2.84165 1.07646,-1.24178 1.35601,-9.173 1.39222,-39.5 0.0249,-20.87043 0.0288,-39.52124 0.008,-41.44624 -0.0277,-2.63005 -1.00219,-4.57025 -3.92067,-7.80582 -2.13612,-2.3682 -4.11264,-5.1807 -4.39227,-6.25 C 206.20494,154.06768 206.86624,154 225.69182,154 h 19.50458 l -1.8482,2.88166 c -1.01651,1.58491 -3.28412,4.55129 -5.03913,6.59197 l -3.19093,3.71031 -0.0849,41.26415 c -0.0748,36.35974 0.10187,41.41915 1.48644,42.56825 0.86424,0.71725 1.34421,1.89596 1.06662,2.61937 -0.63811,1.66289 2.10767,8.36429 3.42712,8.36429 0.54262,0 0.98658,1.35 0.98658,3 v 3 H 225 208 Z M 219.71817,217.75 c -0.23235,-38.60541 0.27746,-46.09058 3.10207,-45.54536 1.51047,0.29156 1.66903,2.33846 1.57326,20.3098 -0.0586,10.99206 -0.45616,29.03436 -0.88354,40.09401 -0.60477,15.65049 -0.50095,20.27908 0.4683,20.87812 0.69896,0.43197 1.58921,0.21329 2.02908,-0.49845 0.43105,-0.69746 0.84091,-19.26453 0.91079,-41.26017 0.0699,-21.99563 0.37299,-40.38998 0.67357,-40.87632 1.9877,-3.21616 2.4083,4.06792 2.4083,41.70739 0,25.26836 0.36773,41.44098 0.94228,41.44098 0.56707,0 1.02335,-13.43893 1.14587,-33.75 0.25558,-42.37032 0.12684,-49.43501 -0.91995,-50.4818 -2.1516,-2.1516 -14.0805,-2.05335 -12.74657,0.10499 0.27688,0.448 0.0643,15.84731 -0.47251,34.22068 -0.948,32.45019 -0.54346,49.90613 1.15657,49.90613 0.45686,0 0.73247,-16.3125 0.61248,-36.25 z m 37.79045,48 c 0.35386,-1.2375 1.46395,-4.05 2.46686,-6.25 4.25677,-9.33773 4.31192,-10.11877 3.48979,-49.41868 -0.43239,-20.66973 -0.82647,-38.51689 -0.87572,-39.66036 -0.10032,-2.32911 -3.665,-9.42096 -4.73539,-9.42096 -0.62969,0 -4.86571,-6.22263 -4.84557,-7.11803 0.005,-0.21009 8.77973,-0.49156 19.5,-0.6255 21.53785,-0.26909 21.76552,-0.19203 16.49141,5.58239 -1.65,1.80652 -3,3.6517 -3,4.10041 0,0.44871 -0.71188,1.40665 -1.58195,2.12874 -1.41572,1.17495 -1.50867,5.46985 -0.88452,40.87245 0.80311,45.553 0.69237,43.42188 2.36088,45.43231 0.70277,0.84679 0.98493,2.01345 0.62701,2.59257 -0.35792,0.57913 0.72834,3.0964 2.41391,5.59394 5.6859,8.42491 5.65873,8.44072 -14.50272,8.44072 h -17.56739 z m 11.74895,-52.8276 c -0.21472,-35.52846 0.23456,-42.92504 2.65618,-43.72892 1.20857,-0.4012 1.32239,4.74998 0.78425,35.49224 C 272.09374,239.20565 272.36352,248 274.02674,248 c 0.42078,0 0.9244,-17.73761 1.11916,-39.41691 0.19475,-21.6793 0.6916,-39.7543 1.1041,-40.16666 0.4125,-0.41237 1.0875,-0.41209 1.5,6.1e-4 0.4125,0.41271 0.6396,18.23745 0.50467,39.61054 -0.15274,24.19366 0.11926,39.08549 0.72068,39.45719 1.8623,1.15096 2.31719,-4.95239 1.55765,-20.89886 -0.42141,-8.84725 -0.60122,-20.81091 -0.3996,-26.58591 0.20163,-5.775 0.3666,-15.37425 0.3666,-21.33167 0,-9.56838 -0.22639,-10.99708 -1.94113,-12.25 -2.39892,-1.75282 -8.96473,-1.8601 -10.3022,-0.16833 -1.12596,1.42423 -2.41868,64.43115 -1.53954,75.03671 0.35265,4.25414 0.97044,6.65077 1.65553,6.4224 0.7678,-0.25593 1.03106,-10.60509 0.88491,-34.78671 z m 38.23432,54.06448 c -0.34438,-0.55722 0.55936,-3.43621 2.0083,-6.39774 1.44895,-2.96154 2.50974,-5.99314 2.35733,-6.73688 -0.15242,-0.74374 0.20204,-2.25226 0.7877,-3.35226 0.72524,-1.36218 0.81312,-7.58088 0.27557,-19.5 -0.43409,-9.625 -0.8144,-26.64827 -0.84513,-37.82949 -0.0307,-11.18121 -0.38394,-20.85621 -0.78491,-21.5 -0.40097,-0.64378 -0.60294,-2.14699 -0.44882,-3.34047 0.1894,-1.46667 -1.35374,-3.89743 -4.7613,-7.5 -2.77284,-2.93152 -5.05033,-5.89254 -5.06108,-6.58004 -0.0142,-0.90725 2.40558,-1.25 8.82489,-1.25 4.86444,0 13.63944,-0.29338 19.5,-0.65197 12.73206,-0.77902 13.06632,-0.32986 6.33826,8.51695 -5.34562,7.02904 -5.2709,5.79569 -3.15864,52.13502 1.18111,25.9115 1.93478,35.16213 3.0275,37.15977 0.80021,1.46288 1.20798,3.30328 0.90617,4.08979 -0.30181,0.78651 0.14673,2.00721 0.99676,2.71267 0.85003,0.70546 1.54551,1.84746 1.54551,2.53777 0,0.69031 0.675,1.81531 1.5,2.5 0.825,0.68469 1.5,2.31479 1.5,3.62244 V 268 h -16.94098 c -10.3616,0 -17.18416,-0.39347 -17.56713,-1.01312 z m 12.13598,-37.44839 c -0.37485,-9.60383 -1.13472,-19.91295 -1.6886,-22.90917 -1.64069,-8.87535 -1.82398,-35.48011 -0.25341,-36.78357 0.85393,-0.7087 1.31414,-0.73188 1.31414,-0.0662 0,0.56345 0.93701,12.65605 2.08224,26.87245 1.14524,14.21639 2.38274,31.24799 2.75,37.84799 0.39868,7.16442 1.07072,11.90389 1.66776,11.7615 1.68108,-0.40094 1.70422,-11.10338 0.0525,-24.2615 -2.02572,-16.13703 -3.5166,-34.58005 -3.53662,-43.75 -0.0123,-5.63358 0.30358,-7.25 1.41678,-7.25 2.22305,0 3.15778,5.26406 4.08407,23 0.27288,5.225 0.93691,17.15 1.47561,26.5 0.53871,9.35 0.98582,18.93906 0.99359,21.30902 0.009,2.61496 0.40726,4.06604 1.01412,3.69098 1.47462,-0.91137 1.20043,-19.5099 -0.57497,-39 -0.85171,-9.35 -1.79224,-21.5 -2.09007,-27 -0.61995,-11.44895 -1.29662,-12.5 -8.04753,-12.5 -6.42418,0 -6.88846,1.65838 -5.38794,19.24528 0.66892,7.8401 1.63175,24.29656 2.13964,36.56991 0.86972,21.01761 1.21998,24.18481 2.67459,24.18481 0.32763,0 0.289,-7.85768 -0.0859,-17.46151 z M 153.64127,147.3867 c 0.35227,-2.68768 0.74029,-5.0124 0.86227,-5.16603 0.31676,-0.39894 186.62367,-3.43009 186.99216,-3.0423 0.16809,0.1769 0.46282,2.57163 0.65496,5.32163 l 0.34934,5 -34,0.61325 c -18.7,0.33729 -61.33732,0.9613 -94.74961,1.3867 l -60.7496,0.77346 z M 156,139.75294 c 0.47539,-0.49909 8.60241,-3.73028 19.5,-7.75294 11.75873,-4.34053 21.21994,-7.95399 51.26052,-19.57761 5.72074,-2.21353 7.68792,-2.42239 22.81574,-2.42239 10.10841,0 17.35406,0.42753 18.60662,1.09788 1.87134,1.00151 14.75625,5.89804 20.81712,7.91093 1.375,0.45666 8.125,2.81274 15,5.23574 6.875,2.42301 17.45,6.11365 23.5,8.20143 6.05,2.08779 11.3535,4.11753 11.78555,4.51055 0.43205,0.39301 -27.69295,1.01156 -62.5,1.37456 -34.80705,0.36299 -76.33555,0.94951 -92.28555,1.30338 -15.95,0.35386 -28.775,0.40718 -28.5,0.11847 z"
       id="path1"
       sodipodi:nodetypes="sscccccsssssssssssssssssssssssssssssssscsscsscsssssssssssscsssssssssssssssscsscsssssssssssssssssssscssssssssssssssssssssscssssssssssscsscssssssscscscsscssssscccsssssssssssssscssssssscssssssssscsssssssssssssssssssssssssssssssssssssscsssssssssssssscssssssssssssscsscsssssssssssss" /></g></svg>
