<?xml version="1.0" encoding="UTF-8" standalone="no"?>
<!-- Created with Inkscape (http://www.inkscape.org/) -->

<svg
   width="500"
   height="500"
   viewBox="0 0 500 500"
   version="1.1"
   id="svg1"
   xml:space="preserve"
   inkscape:version="1.4.2 (f4327f4, 2025-05-13)"
   sodipodi:docname="Vedma.svg"
   xmlns:inkscape="http://www.inkscape.org/namespaces/inkscape"
   xmlns:sodipodi="http://sodipodi.sourceforge.net/DTD/sodipodi-0.dtd"
   xmlns="http://www.w3.org/2000/svg"
   xmlns:svg="http://www.w3.org/2000/svg"><sodipodi:namedview
     id="namedview1"
     pagecolor="#ffffff"
     bordercolor="#000000"
     borderopacity="0.25"
     inkscape:showpageshadow="2"
     inkscape:pageopacity="0.0"
     inkscape:pagecheckerboard="0"
     inkscape:deskcolor="#d1d1d1"
     inkscape:document-units="px"
     inkscape:zoom="1.6699219"
     inkscape:cx="268.27602"
     inkscape:cy="219.47134"
     inkscape:window-width="1920"
     inkscape:window-height="1057"
     inkscape:window-x="-8"
     inkscape:window-y="-8"
     inkscape:window-maximized="1"
     inkscape:current-layer="layer1" /><defs
     id="defs1" /><g
     inkscape:label="Layer 1"
     inkscape:groupmode="layer"
     id="layer1"><path
       style="fill:#000000"
       d="m 172.10375,360.89398 c -9.53473,-4.76456 -13.47688,-12.08086 -11.15516,-20.70307 0.80391,-2.9855 1.95629,-4.60748 4.0385,-5.68423 4.07625,-2.10791 5.56073,-1.897 7.94033,1.12818 3.14914,4.00348 2.68149,7.95623 -1.42742,12.06514 -1.925,1.925 -3.5,3.62541 -3.5,3.77868 0,0.43066 5.18283,2.28951 8.25167,2.95951 3.38366,0.73873 9.68589,-2.27206 12.6538,-6.04515 3.11052,-3.95438 2.9025,-10.81753 -0.39333,-12.97704 -1.36832,-0.89656 -3.84332,-3.99921 -5.5,-6.89478 -3.78876,-6.62207 -4.16613,-14.89775 -0.95272,-20.89327 1.13268,-2.11334 1.92018,-3.97687 1.75,-4.14118 -0.17018,-0.16431 -3.68442,-1.9025 -7.80942,-3.86264 -7.36673,-3.50055 -17.04329,-10.96798 -19.03484,-14.68923 -1.34913,-2.52088 1.1363,-8.51494 3.89357,-9.39006 2.44342,-0.77551 5.85874,0.87438 16.79242,8.11219 8.40488,5.56381 31.2808,17.34297 33.68121,17.34297 0.745,0 3.87339,0.86661 6.95198,1.9258 6.08477,2.09347 21.94271,4.37022 30.71566,4.40989 12.73714,0.0576 36.47277,-4.40273 49.73869,-9.34677 11.30435,-4.21298 19.9805,-9.3616 32.67138,-19.38793 l 3.66943,-2.89901 2.96025,2.8361 c 1.62814,1.55986 2.96025,3.85194 2.96025,5.09353 0,3.48319 -10.93304,12.34965 -20.90364,16.95239 -1.872,0.86418 -4.45418,2.25957 -5.73819,3.10089 l -2.33456,1.52966 1.98819,2.52758 c 1.09351,1.39018 1.9882,3.21897 1.9882,4.06399 0,0.84502 0.68183,2.28981 1.51518,3.21065 1.35742,1.49994 1.30797,2.34515 -0.47499,8.1177 -1.98136,6.41489 -4.98026,10.30171 -9.90798,12.84157 -2.13477,1.1003 -2.31969,1.72097 -1.87906,6.30676 0.42266,4.39871 1.0591,5.61839 4.70764,9.0217 3.90322,3.64089 4.55539,3.89742 8.71602,3.42846 6.32672,-0.71311 7.03485,-1.86746 3.38473,-5.51758 -3.8711,-3.8711 -4.17366,-8.82197 -0.73646,-12.05105 4.81761,-4.52591 12.17237,-0.10999 13.28037,7.97375 0.83481,6.09062 -3.80285,11.48435 -8.305,15.00933 -3.05377,2.39096 -7.49166,4.04148 -11.23484,3.02622 -8.02856,-2.17758 -16.03051,-8.0987 -17.51487,-17.77712 -0.58182,-3.7936 -0.94732,-4.19355 -4.84004,-5.29614 -8.73292,-2.47356 -10.7576,-4.89058 -10.34562,-12.35037 0.12349,-2.23594 -0.24757,-3.75 -0.91903,-3.75 -0.61937,0 -4.64509,0.9 -8.94605,2 -4.30096,1.1 -9.99794,2 -12.65996,2 H 255 l -0.0564,5.25 c -0.0786,7.30733 -1.86964,11.95182 -5.22917,13.5599 -4.58575,2.19503 -8.39834,0.68581 -11.75055,-4.65147 -3.39581,-5.40671 -3.47453,-6.00041 -1.44089,-10.8676 1.16802,-2.79546 1.79727,-3.37061 2.7,-2.46788 1.61922,1.61922 2.77705,1.47425 2.77705,-0.3477 0,-1.91251 -2.88604,-3.00922 -10.32146,-3.92221 -3.2018,-0.39314 -7.2518,-1.30989 -9,-2.03722 -1.7482,-0.72732 -4.75354,-1.47842 -6.67854,-1.66911 -3.46168,-0.34291 -3.50102,-0.30292 -3.59334,3.65329 -0.15597,6.68328 -0.31555,7.23827 -2.99788,10.42604 -1.76279,2.09496 -3.8409,3.27933 -6.5,3.70454 -3.57405,0.57151 -3.90962,0.89241 -3.91855,3.74723 -0.0123,3.93483 -3.97503,12.44645 -7.10788,15.2672 -3.6794,3.31283 -9.16039,6.34712 -11.47263,6.35125 -1.14965,0.002 -4.88734,-1.39397 -8.30597,-3.10228 z M 252.01096,341.75 c 2.28201,-3.74277 2.377,-4.59938 0.93162,-8.40102 -0.84654,-2.22659 -1.24233,-2.48884 -1.98468,-1.3151 -0.51,0.80637 -0.93417,2.64293 -0.94259,4.08126 -0.008,1.43833 -0.91531,3.75931 -2.01531,5.15773 -2.50469,3.18419 -2.50254,3.72713 0.0147,3.72713 1.19985,0 2.81614,-1.31447 3.99626,-3.25 z M 331,341.69113 c 0,-2.69509 -2.5751,-4.96076 -4.8262,-4.24629 -2.86781,0.91021 -2.74194,1.73968 0.5762,3.79693 3.33542,2.06797 4.25,2.16467 4.25,0.44936 z m -158,-2.16808 c 0,-1.64701 -4.71976,-5.13662 -5.66667,-4.18972 -0.9469,0.94691 2.54271,5.66667 4.18972,5.66667 0.81232,0 1.47695,-0.66463 1.47695,-1.47695 z m 128.7222,-9.04102 c 3.84547,-2.69348 6.58549,-7.50516 6.58549,-11.56462 0,-4.56861 -1.67402,-6.91741 -4.93013,-6.91741 -2.81122,0 -2.77281,-0.19021 -0.87756,4.34576 0.825,1.9745 1.5,4.04842 1.5,4.6087 0,1.28074 -6.49227,4.04554 -9.49968,4.04554 -1.24049,0 -2.77747,0.62902 -3.41551,1.39781 -0.91893,1.10725 -0.60454,1.83481 1.51241,3.5 3.15866,2.4846 6.13934,2.67544 9.12498,0.58422 z M 203.88435,329.25 c 1.42365,-1.18304 1.91876,-2.43672 1.52824,-3.86965 -0.47341,-1.73708 -1.30259,-2.10064 -4.59405,-2.01434 -3.22895,0.0847 -4.48712,-0.44196 -6.41746,-2.68611 -2.82464,-3.28385 -3.01846,-5.34023 -0.74054,-7.85729 2.31289,-2.55572 0.93219,-3.441 -2.18312,-1.39977 -3.31235,2.17033 -4.22482,4.73182 -3.53272,9.91697 0.51637,3.86853 0.94089,4.35074 6.0553,6.87809 6.54661,3.2351 7.15664,3.2988 9.88435,1.0321 z M 301,317.19113 c 0,-0.44488 -0.6263,-1.66539 -1.39179,-2.71225 -1.20761,-1.65152 -1.61355,-1.71934 -3.06766,-0.51253 -1.54517,1.28237 -1.49511,1.49116 0.64178,2.67682 2.71905,1.50867 3.81767,1.66635 3.81767,0.54796 z m -96,-2.08414 C 205,314.1098 202.58668,313 200.41821,313 c -2.0147,0 -1.76146,1.76365 0.33179,2.31067 2.99645,0.78306 4.25,0.72298 4.25,-0.20368 z m 37,-14.17989 c -24.92628,-2.49033 -57.7417,-16.24424 -69.69379,-29.21073 -10.95036,-11.87974 -24.83408,-35.81374 -26.68,-45.9934 -0.26827,-1.47942 -1.25218,-6.4098 -2.18647,-10.95641 -1.82576,-8.88486 -1.54863,-27.85629 0.54328,-37.19078 0.56885,-2.53834 1.23016,-6.0688 1.46958,-7.84547 1.12109,-8.31948 9.52017,-26.66503 16.73759,-36.55879 9.50862,-13.03458 30.54471,-31.10012 43.20009,-37.099718 7.40775,-3.511829 18.95771,-6.755436 28.85972,-8.071088 9.00453,-1.196406 18.19107,-0.437854 27.25,0.231961 5.20285,0.384697 12.475,1.215449 15.5,2.170043 3.025,0.954593 8.2,2.568235 11.5,3.585872 14.32093,4.416212 29.04686,12.92557 37.61653,21.73666 15.91308,16.36138 30.20175,41.98702 32.49357,58.27475 2.77749,19.73939 2.04792,33.6954 -2.63997,50.5 -7.14245,25.60342 -19.6953,44.44793 -37.47013,56.25068 -7.27411,4.83011 -19.37466,11.25248 -25.5,13.53411 -14.9179,5.55679 -35.29771,8.21109 -51,6.64231 z m 11.06776,-33.0537 c 1.06493,-1.98986 0.63697,-12.51436 -0.69631,-17.1234 -0.94579,-3.26955 -2.12186,-1.76651 -2.7386,3.5 -0.33814,2.8875 -0.89382,6.9437 -1.23484,9.01377 -0.93717,5.68882 2.35366,8.93728 4.66975,4.60963 z m 90.50619,-22.13471 c 9.92048,-19.37153 14.47924,-42.44093 12.37845,-62.64063 -2.50725,-24.10791 -12.18894,-43.13387 -32.13172,-63.14362 -14.13591,-14.18338 -26.08093,-20.869508 -47.98436,-26.858857 -6.39027,-1.747376 -10.46125,-2.091619 -24.5,-2.071726 -18.14604,0.02571 -19.50624,0.233554 -32.33632,4.941092 -17.41089,6.388301 -33.37215,15.555791 -41.58135,23.882611 -10.13644,10.28167 -20.85686,29.4472 -24.67499,44.11292 -2.70681,10.39703 -3.11593,13.29571 -1.20528,8.53952 C 161.83642,146.86501 167.12568,137.89383 179,125.92196 186.7936,118.06434 200.98728,107 203.27369,107 c 0.30142,0 3.91125,-1.575 8.02183,-3.5 4.11058,-1.925 8.31424,-3.5 9.34146,-3.5 1.02722,0 6.36663,-1.119679 11.86535,-2.488175 7.29185,-1.814761 12.71766,-2.491375 20.04767,-2.5 11.11603,-0.01308 12.45,0.581651 12.45,5.550635 0,4.78404 5.3378,16.73631 10.35757,23.19239 8.26779,10.63346 21.14717,21.93354 30.26523,26.55401 9.46056,4.79402 28.75957,10.0836 34.49104,9.45348 3.10003,-0.34082 5.85883,5.20433 8.93699,17.9632 4.64967,19.27272 0.53427,46.77185 -10.95432,73.19691 -2.25308,5.18234 -4.09458,9.68234 -4.09223,10 0.009,1.20189 6.24745,-8.69651 9.56967,-15.18376 z m -113.60913,4.32705 C 230.53417,249.0019 231,247.12346 231,245.89143 v -2.24006 L 228.5,246 c -2.74884,2.5824 -3.33848,6 -1.03518,6 0.80565,0 1.93065,-0.87042 2.5,-1.93426 z M 281,249.53518 C 281,248.07809 278.09948,246 276.06574,246 c -1.43441,0 -1.35269,2.31305 0.13426,3.8 1.67356,1.67356 4.8,1.50108 4.8,-0.26482 z m -81.56828,-1.9422 C 203.73138,245.79646 214.23291,231 211.20829,231 209.28724,231 195,245.19071 195,247.09878 c 0,2.2748 0.13429,2.28978 4.43172,0.4942 z m 110.21154,-4.10571 c 0.31927,-0.83201 0.0237,-2.18369 -0.65692,-3.00373 C 307.11165,238.22468 295.72166,231 294.03516,231 c -0.81484,0 1.64434,3.15 5.46484,7 7.04608,7.10049 9.0982,8.21064 10.14326,5.48727 z m -48.36171,-6.56097 c 6.22425,-2.07563 9.66087,-4.31721 8.45997,-5.51811 -0.35168,-0.35169 -2.07955,-0.1374 -3.8397,0.47619 -4.41133,1.5378 -19.76483,1.36469 -29.39116,-0.33138 -4.39414,-0.7742 -8.13255,-1.26444 -8.30758,-1.08941 -0.77361,0.77361 5.88735,4.54619 11.33305,6.41872 7.64285,2.62803 13.95829,2.6408 21.74542,0.044 z m -68.51179,-13.47758 c 1.21812,-0.85321 2.70787,-2.47267 3.31056,-3.5988 1.02929,-1.92324 0.8932,-2.00441 -2.24226,-1.33742 -4.53632,0.96499 -7.19283,3.35511 -5.71208,5.13929 1.42339,1.71509 1.9373,1.69262 4.64378,-0.20307 z m 74.8749,-5.5626 c 6.42669,-1.9817 16.23625,-6.37512 17.35534,-7.77295 0.275,-0.3435 3.07402,-2.53888 6.22005,-4.87864 9.30296,-6.91877 9.51479,-9.06985 1.5311,-15.54849 -10.37123,-8.41609 -23.02978,-12.6551 -37.8446,-12.67314 -10.9386,-0.0133 -16.33909,1.21396 -26.90655,6.11459 -6.85242,3.17779 -23.97656,14.64784 -24.70588,16.54844 -0.45036,1.1736 0.51524,2.68464 3.19693,5.00277 2.11319,1.82672 4.41005,3.3213 5.10413,3.3213 0.69408,0 1.90352,0.64156 2.68765,1.42568 1.78036,1.78037 6.92232,4.05959 17.21717,7.63168 10.66547,3.70069 25.71212,4.04569 36.14466,0.82876 z M 242.5,215.0359 c -8.59347,-0.9799 -14.27591,-2.88278 -26.29644,-8.80589 l -9.29645,-4.58082 2.79645,-2.24963 c 3.15336,-2.53677 16.61409,-9.82817 20.04644,-10.85876 2.02868,-0.60912 2.25,-0.33668 2.25,2.76969 0,4.79057 2.24997,9.63612 6.17183,13.29171 3.60622,3.36137 10.40252,6.3978 14.31989,6.3978 3.22578,0 12.56205,-4.20326 14.67239,-6.60562 2.35938,-2.68586 5.84853,-13.63005 5.1712,-16.22017 C 272.00686,186.91825 272.22978,186 272.86313,186 c 1.46509,0 8.90157,2.77894 12.63687,4.72228 3.09161,1.60846 8.5,6.20748 8.5,7.22798 0,1.53886 -11.97122,9.6346 -19.38198,13.1074 -7.10629,3.33013 -9.58569,3.97374 -16.73034,4.34297 -4.61322,0.23841 -11.53768,0.0743 -15.38768,-0.36473 z m 5.61516,-8.7593 c -1.31166,-0.24807 -4.57416,-2.64036 -7.25,-5.3162 C 236.7114,196.80664 236,195.52605 236,192.20261 c 0,-5.19417 2.086,-6.8286 9.83134,-7.70305 l 6.33133,-0.71481 -1.58133,3.05796 c -1.86647,3.60935 -2.02577,7.44168 -0.43536,10.47303 1.37856,2.62755 3.21321,3.84778 7.83467,5.21087 l 3.48064,1.02661 -3.63177,1.72339 c -3.60477,1.71058 -5.12806,1.86738 -9.71436,0.99999 z m 63.63326,10.97955 C 312.21881,215.84338 308.07846,214 304.4349,214 c -3.38897,0 -3.03765,1.45061 0.8151,3.36555 3.62063,1.79958 5.87545,1.76162 6.49842,-0.1094 z M 187,201.57527 c 5.225,-1.31266 8.825,-2.49227 8,-2.62136 -2.57032,-0.40219 -22.40669,0.15512 -24.25,0.68131 -2.55541,0.72947 -2.14147,2.05514 1,3.2025 3.95267,1.44364 4.73693,1.37872 15.25,-1.26245 z m 141.75,-4.12914 c 1.81814,-0.5576 1.53032,-2.22574 -0.57879,-3.3545 -1.19771,-0.641 -4.38971,-0.62612 -9.25,0.0431 -10.47771,1.44272 -11.25776,2.03743 -4.42121,3.37069 5.37672,1.04858 10.70998,1.02638 14.25,-0.0593 z M 222.30713,172.30349 c 6.1045,-5.35983 16.21504,-9.5739 24.18279,-10.07939 13.48179,-0.85531 29.99702,6.08513 41.89774,17.60732 7.70915,7.46393 7.70949,6.7417 0.001,-2.83142 -6.30731,-7.83334 -12.67533,-12.82486 -21.95226,-17.20706 -6.49133,-3.06636 -7.61094,-3.2743 -17.43674,-3.23845 -9.90606,0.0361 -10.84506,0.22288 -16.60014,3.30135 -3.35507,1.79468 -7.9258,5.14881 -10.15718,7.45361 C 216.30965,173.43772 207,186.87757 207,189.3145 c 0,1.47028 1.76513,-0.30051 5.85836,-5.87714 3.22209,-4.38979 7.47404,-9.40004 9.44877,-11.13387 z M 296.96858,157.75 c -0.0366,-1.45448 -2.79618,-3.5721 -11.32354,-8.68929 -9.52217,-5.71417 -22.20162,-10.57768 -32.83027,-12.59285 -9.32891,-1.76874 -9.9902,-1.77076 -17.97497,-0.0549 -11.84644,2.54567 -22.43429,8.26684 -26.34525,14.23573 -2.6482,4.04166 -0.98553,3.87859 4.19732,-0.41165 7.22643,-5.98187 12.86112,-7.69992 25.30813,-7.7166 10.75065,-0.0144 12.30398,0.3282 29.43961,6.49342 3.26678,1.17535 8.44178,3.53126 11.5,5.23535 5.97171,3.32755 9.66377,4.48635 14.81039,4.64845 2.00284,0.0631 3.23794,-0.37732 3.21858,-1.14764 z"
       id="path1"
       sodipodi:nodetypes="ssssssssssssssssssssscsssscsssssssssssaasssssscsssssssssssssssssssscssssssssssssssssssssssssssssssssssssssssssssssaasssssssssssssssssssssssssssssssssscssscsssssssssssscsssssssssssssssssssssssssssssscssssssssssssssssscssscsssssssssssssssssssscssscsssssssssssssss" /></g></svg>
