<?xml version="1.0" encoding="UTF-8" standalone="no"?>
<!-- Created with Inkscape (http://www.inkscape.org/) -->

<svg
   width="210mm"
   height="297mm"
   viewBox="0 0 210 297"
   version="1.1"
   id="svg1"
   inkscape:version="1.4.2 (2aeb623e1d, 2025-05-12)"
   sodipodi:docname="KlarkaFigurkaLaser.svg"
   xml:space="preserve"
   xmlns:inkscape="http://www.inkscape.org/namespaces/inkscape"
   xmlns:sodipodi="http://sodipodi.sourceforge.net/DTD/sodipodi-0.dtd"
   xmlns="http://www.w3.org/2000/svg"
   xmlns:svg="http://www.w3.org/2000/svg"><sodipodi:namedview
     id="namedview1"
     pagecolor="#ffffff"
     bordercolor="#000000"
     borderopacity="0.25"
     inkscape:showpageshadow="2"
     inkscape:pageopacity="0.0"
     inkscape:pagecheckerboard="0"
     inkscape:deskcolor="#d1d1d1"
     inkscape:document-units="mm"
     inkscape:zoom="0.67944444"
     inkscape:cx="156.00981"
     inkscape:cy="654.94686"
     inkscape:window-width="1920"
     inkscape:window-height="1043"
     inkscape:window-x="0"
     inkscape:window-y="0"
     inkscape:window-maximized="1"
     inkscape:current-layer="layer1" /><defs
     id="defs1" /><g
     inkscape:label="Layer 1"
     inkscape:groupmode="layer"
     id="layer1"><path
       style="fill:#020202;stroke:none;stroke-width:0.565502"
       d="m 108.9492,12.884257 c -4.44716,-1.657718 -7.47417,2.970659 -6.50811,7.032252 0.51698,2.17352 2.54882,3.97553 4.86226,3.29169 0.80955,2.08721 1.90008,3.89974 3.89019,5.05241 0.79765,0.462 2.77652,0.61944 3.2783,1.27929 1.09081,1.43446 0.3042,3.90021 -0.28586,5.33885 -2.24599,-1.00027 -4.86863,-1.55655 -7.3315,-1.3212 -2.48479,0.23746 -4.66257,1.22152 -7.181871,0.58878 -1.99459,-0.50096 -4.06627,-1.27327 -5.83527,-2.32781 -1.34377,-0.80104 -2.54087,-1.99378 -4.03981,-2.51158 -3.690139,-1.27473 -7.844189,-0.83763 -11.670539,-1.35309 -3.93011,-0.52945 -7.83664,-2.19566 -11.82017,-2.20207 -4.01696,-0.006 -7.88875,0.097 -11.82017,1.03005 -1.19098,0.28264 -2.80907,0.52652 -3.86744,1.14976 -0.93429,0.55018 0.10965,1.1923 0.72537,1.26151 v 0.14962 c -0.76354,0.32032 -2.01377,1.4275 -0.44655,1.70217 1.95762,0.34312 4.28369,-1.60425 6.1322,-2.07946 0.98134,-0.25227 2.79202,-0.54627 3.72717,-0.0448 0.57571,0.30872 0.90321,0.88511 1.50962,1.17018 v 0.29925 c -1.3509,0.36858 -2.93014,0.63105 -4.18874,1.24593 -0.37882,0.18507 -1.15346,0.6705 -0.84336,1.2075 0.3178,0.55029 2.3734,0.23977 2.93738,0.23977 1.54027,0 3.3851,-0.0294 4.78792,-0.74754 1.7229,-0.88196 2.32051,-2.48289 4.48867,-1.96078 5.01241,1.207 9.16302,4.75047 14.06451,6.33736 2.81013,0.9098 5.747889,0.47682 8.528469,1.27583 3.05309,0.87731 5.795,2.7712 8.827721,3.77311 2.48323,0.82038 5.43482,1.10137 7.47512,2.89167 1.39852,1.22716 0.83208,3.49962 1.11523,5.18806 0.53123,3.16769 1.76436,6.63995 1.19271,9.87508 -0.48954,2.77045 -2.57304,4.50014 -5.44401,3.74055 -0.36985,0.92184 -0.13501,1.62155 0.74811,2.09472 -1.42313,0.68581 -3.24794,0.44946 -4.78791,0.44887 -4.982871,-0.002 -9.996681,-1.86805 -14.81262,-3.00977 -4.59308,-1.08889 -9.46587,-1.8398 -13.91488,-3.43751 -2.7896,-1.00178 -5.18033,-3.05188 -7.92999,-4.19439 -0.98688,-0.41006 -1.59045,0.4404 -2.39396,0.19396 -0.72938,-0.22371 -1.38386,-0.92042 -2.09471,-1.24316 -1.73171,-0.78624 -3.55661,-1.35253 -5.3864,-1.86128 -4.35354,-1.21044 -8.86095,-2.1419 -13.3164,-2.89419 -2.910774,-0.49148 -6.068217,-0.67981 -8.827718,-1.79698 -0.959636,-0.3885 -1.726391,-1.12121 -2.693202,-1.49657 -1.514879,-0.58813 -2.950919,-0.61506 -4.339049,-1.55798 -4.06876,-2.76382 -9.783678,-10.10022 -15.5607299,-7.2926 -3.168123,1.5397 -1.588212,4.48474 0.1437389,6.29673 1.047841,1.09627 1.9021,2.43106 3.147957,3.32333 1.769574,1.26733 4.05512,1.69206 5.984895,2.65694 1.228975,0.61449 2.303651,1.53501 3.590937,2.02949 1.236738,0.47507 2.608553,0.47618 3.890181,0.76567 3.300473,0.74552 6.782412,1.56496 9.875077,2.96035 4.241603,1.91377 7.523523,5.46165 11.969793,7.01262 2.77235,0.96707 5.7073,1.28104 8.52847,2.05073 1.01726,0.27752 2.52844,0.4627 3.2073,1.36114 1.08804,1.439969 0.57637,4.967499 0.69628,6.716849 0.28933,4.22108 1.0547,8.47355 2.62012,12.41866 1.26931,3.19885 3.2264,6.16718 5.89496,8.36626 1.9076,1.572 4.27232,2.3509 5.64975,4.50126 3.32311,5.187822 3.00268,11.906712 6.68325,17.056952 1.42927,1.99999 3.20939,3.61269 5.32244,4.86977 2.323389,1.38221 4.765839,2.15013 6.733009,4.10768 2.79884,2.78517 4.5334,6.86347 8.378851,8.37875 -1.22888,4.9882 -2.439261,9.49725 -1.28299,14.66299 1.00009,4.46793 3.75159,8.36691 4.65711,12.86753 0.34996,1.73938 0.42167,3.59026 -0.33225,5.23678 -0.61671,1.34686 -1.9515,2.25769 -1.81671,3.89018 0.24108,2.92003 3.21851,4.55077 4.59603,6.88263 1.20145,2.0338 0.11152,3.5717 0.1659,5.68565 0.0261,1.01598 0.67935,1.74924 0.81034,2.69321 0.10381,0.74816 -0.47225,1.44028 -0.32938,2.24433 0.29182,1.64207 2.91231,1.32655 4.15514,1.16927 1.29808,-0.16427 2.03894,-1.28508 2.5796,-2.36625 1.11936,-2.23842 1.42174,-5.00899 1.11813,-7.48112 -0.69536,-5.66196 -4.078,-10.73851 -4.14602,-16.45846 -0.0705,-5.92843 0.80544,-11.7567 1.20979,-17.65544 0.1622,-2.36619 0.66547,-5.48377 -0.0134,-7.78037 4.10033,0.52093 8.12546,0.22437 11.96979,-1.43329 2.10659,-0.90837 4.23842,-2.51112 4.80292,-4.85085 0.61525,-2.55006 -2.77193,-1.33007 -4.20443,-1.58834 -2.17277,-0.39175 -3.26582,-2.11934 -3.29112,-4.24693 -0.055,-4.6252 1.72793,-8.89621 2.21894,-13.46601 1.07976,-10.04917 1.67067,-20.267022 1.67067,-30.373352 1.90929,1.18544 5.36257,0.54089 5.3864,-2.09471 -4.03071,-0.003 -4.95352,-3.8427 -4.93742,-7.18187 0.0237,-4.917049 3.83075,-9.861299 6.43365,-13.765259 0.92144,-1.38203 2.14399,-2.74281 2.6775,-4.33905 0.90682,-2.71312 -2.98463,-5.92412 -1.25402,-8.21573 0.72467,-0.95957 2.02275,-1.47432 3.06519,-1.99553 1.90926,-0.95464 3.83171,-1.90191 5.53602,-3.20304 3.53503,-2.69875 5.76087,-6.61592 9.06347,-9.51544 1.17279,-1.02966 2.61644,-1.50545 3.95368,-2.27078 1.71723,-0.98281 3.33983,-2.19201 4.78792,-3.54037 3.47532,-3.23598 6.40071,-9.315067 11.07206,-10.91401 1.06043,-0.362969 1.79727,0.506145 2.6932,0.917478 1.61838,0.743017 3.52737,0.715967 5.23678,1.164889 0.54134,0.14217 1.47767,0.615859 2.02982,0.370019 0.65891,-0.293381 0.24451,-1.295935 -0.1189,-1.640421 -0.54419,-0.51588 -3.44522,-1.011632 -2.97006,-2.128192 0.12775,-0.300195 0.4987,-0.548646 0.76001,-0.722031 2.13948,-1.4196037 2.66706,1.516297 3.70881,2.576822 0.30745,0.312998 0.66583,0.341326 1.07899,0.364138 l -0.74811,-2.992447 c 0.38761,0.05005 3.50842,0.73666 3.17926,-0.252835 -0.17737,-0.533194 -1.51077,-0.7456297 -1.98228,-0.8801797 -2.15427,-0.614746 -4.35302,-0.961076 -6.58338,-1.124597 -2.64353,-0.193809 -5.42867,-0.331209 -7.92999,0.742357 -2.8469,1.2218917 -5.13005,3.7166327 -7.78036,5.3155027 -3.22681,1.946647 -6.74535,3.303567 -9.87508,5.427047 -2.72922,1.85174 -3.49544,4.94802 -5.9849,6.98942 -3.93169,3.22406 -8.55947,4.40801 -13.01715,6.56457 -2.08532,1.00885 -4.59866,3.64634 -7.03225,3.38624 -0.97396,-0.1041 -1.5854,-0.99904 -2.04795,-1.77908 -1.03386,-1.7435 -2.27783,-5.99364 -0.59988,-7.73927 1.19945,-1.2478 3.44999,-0.66762 4.48186,-2.28773 0.65291,-1.02511 -0.12049,-1.72993 -0.32256,-2.6909 -0.13961,-0.66393 0.37971,-1.21592 -0.46411,-1.49622 0.55275,-0.85841 -0.20685,-0.96475 -0.27314,-1.79547 -0.0493,-0.61698 0.72348,-1.01185 0.59756,-1.63927 -0.22559,-1.12396 -2.55036,-1.08955 -3.23029,-1.977184 -0.44523,-0.581248 -0.22313,-1.529338 -0.40961,-2.218821 -0.32183,-1.189892 -1.02396,-2.150602 -1.92142,-2.978475 -3.49422,-3.2232897 -12.42888,-2.5924717 -14.06439,2.529608 z"
       id="path1" /></g></svg>
