<?xml version="1.0" encoding="UTF-8" standalone="no"?>
<!-- Created with Inkscape (http://www.inkscape.org/) -->

<svg
   width="210mm"
   height="297mm"
   viewBox="0 0 210 297"
   version="1.1"
   id="svg1"
   inkscape:version="1.4.2 (2aeb623e1d, 2025-05-12)"
   sodipodi:docname="ObecnaFigurkaLaser.svg"
   xml:space="preserve"
   xmlns:inkscape="http://www.inkscape.org/namespaces/inkscape"
   xmlns:sodipodi="http://sodipodi.sourceforge.net/DTD/sodipodi-0.dtd"
   xmlns="http://www.w3.org/2000/svg"
   xmlns:svg="http://www.w3.org/2000/svg"><sodipodi:namedview
     id="namedview1"
     pagecolor="#ffffff"
     bordercolor="#000000"
     borderopacity="0.25"
     inkscape:showpageshadow="2"
     inkscape:pageopacity="0.0"
     inkscape:pagecheckerboard="0"
     inkscape:deskcolor="#d1d1d1"
     inkscape:document-units="mm"
     inkscape:zoom="1.4045168"
     inkscape:cx="27.055569"
     inkscape:cy="195.08489"
     inkscape:window-width="1920"
     inkscape:window-height="1043"
     inkscape:window-x="0"
     inkscape:window-y="0"
     inkscape:window-maximized="1"
     inkscape:current-layer="layer1" /><defs
     id="defs1"><clipPath
       clipPathUnits="userSpaceOnUse"
       id="cp1"><path
         d="m 275.5,535.5 c -143.78,0 -260,-116.22 -260,-260 0,-143.78 116.22,-260 260,-260 143.78,0 260,116.22 260,260 0,143.78 -116.22,260 -260,260 z"
         id="path1-5" /></clipPath></defs><g
     inkscape:label="Layer 1"
     inkscape:groupmode="layer"
     id="layer1"><g
       id="g10266"
       transform="translate(78.610598,173.58396)"
       style="display:none"><path
         style="fill:#6b4d25;fill-opacity:1"
         d="m 234.32293,269.25574 c 0,-0.14552 0.17859,-0.26458 0.39687,-0.26458 0.21828,0 0.39688,0.11906 0.39688,0.26458 0,0.14552 -0.1786,0.26458 -0.39688,0.26458 -0.21828,0 -0.39687,-0.11906 -0.39687,-0.26458 z m 1.24625,-0.79375 c 0.0761,-0.29104 0.23616,-0.52917 0.35566,-0.52917 0.1195,0 0.19934,0.23813 0.17742,0.52917 -0.0219,0.29104 -0.18197,0.52917 -0.35566,0.52917 -0.18554,0 -0.25872,-0.21827 -0.17742,-0.52917 z m 1.0548,0.16057 c -0.10826,-0.27549 -0.13451,-0.56323 -0.0583,-0.63941 0.24131,-0.24132 0.45364,0.15414 0.35252,0.65657 l -0.0974,0.48373 z m 0.75866,0.0265 c 0.0994,-0.26094 0.24731,-0.40778 0.32877,-0.32632 0.0815,0.0815 1.7e-4,0.29495 -0.18065,0.47443 -0.26131,0.25936 -0.2917,0.22897 -0.14812,-0.14811 z m -4.34086,-3.3625 c 0,-0.3638 0.0601,-0.51263 0.13346,-0.33073 0.0734,0.1819 0.0734,0.47956 0,0.66146 -0.0734,0.1819 -0.13346,0.0331 -0.13346,-0.33073 z m 0.1644,-2.79344 c 0.32368,-0.22671 0.70736,-0.33875 0.85263,-0.24897 0.14526,0.0898 0.26412,0.0371 0.26412,-0.11696 0,-0.15411 0.18709,-0.2802 0.41577,-0.2802 h 0.41577 l -0.42257,0.42257 c -0.23242,0.23242 -0.59811,0.35521 -0.81265,0.27289 -0.21454,-0.0823 -0.39007,-0.0344 -0.39007,0.10659 0,0.14095 -0.20509,0.25628 -0.45575,0.25628 h -0.45575 z m -13.10937,-0.64613 c 0,-0.50933 0.0545,-0.71769 0.121,-0.46302 0.0666,0.25466 0.0666,0.67138 0,0.92604 -0.0665,0.25466 -0.121,0.0463 -0.121,-0.46302 z m 16.0782,0.55336 0.39687,-0.28068 -0.47863,-0.004 c -0.26325,-0.002 -0.40827,-0.11791 -0.32226,-0.25708 0.20531,-0.33219 0.98327,-0.0295 0.86169,0.33524 -0.0516,0.15487 -0.26502,0.32786 -0.47421,0.38442 l -0.38034,0.10282 z m -21.96042,-1.18242 c 0,-0.055 0.20836,-0.26331 0.46302,-0.46303 l 0.46302,-0.36312 -0.36312,0.46302 c -0.34565,0.44073 -0.56292,0.58089 -0.56292,0.36313 z m 4.36563,-0.16469 c -0.0899,-0.14552 0.0291,-0.26459 0.26458,-0.26459 0.23546,0 0.35452,0.11907 0.26458,0.26459 -0.0899,0.14552 -0.209,0.26458 -0.26458,0.26458 -0.0556,0 -0.17465,-0.11906 -0.26458,-0.26458 z m 16.20573,-0.44697 c -0.67224,-0.17568 -0.56763,-0.54522 0.15434,-0.54522 0.34743,0 0.61736,0.15906 0.61736,0.3638 0,0.20009 -0.0695,0.34999 -0.15434,0.33311 -0.0849,-0.0169 -0.3627,-0.0851 -0.61736,-0.15169 z m -2.93247,-1.05229 c -0.27447,-0.27447 -0.20739,-1.14653 0.0882,-1.14653 0.14552,0 0.26458,0.29766 0.26458,0.66146 0,0.6927 -0.0611,0.77673 -0.35278,0.48507 z m 1.6757,-0.10381 c 0,-0.15411 0.11906,-0.20661 0.26458,-0.11667 0.14552,0.0899 0.26458,0.21602 0.26458,0.28019 0,0.0642 -0.11906,0.11668 -0.26458,0.11668 -0.14552,0 -0.26458,-0.12609 -0.26458,-0.2802 z m -16.6647,-1.45522 c 0.002,-0.13695 0.11633,-0.4266 0.25356,-0.64367 0.19872,-0.31431 0.3164,-0.32778 0.57803,-0.0661 0.26164,0.26163 0.25595,0.39585 -0.0279,0.65924 l -0.35644,0.33073 0.17188,-0.52916 0.17188,-0.52917 -0.39752,0.51359 c -0.21864,0.28247 -0.3957,0.40154 -0.39347,0.26458 z m 19.86058,-0.80022 c 0.0127,-0.30822 0.0754,-0.37092 0.15986,-0.15985 0.0764,0.19099 0.067,0.4192 -0.0209,0.50712 -0.0879,0.0879 -0.15046,-0.0684 -0.13897,-0.34727 z m -18.79899,-0.23372 -0.33669,-0.40569 h 0.7159 c 0.43504,0 0.67482,0.12327 0.61118,0.31419 -0.16439,0.49316 -0.62195,0.53543 -0.99039,0.0915 z m -2.61137,-3.05152 c 0,-0.36381 0.0601,-0.51263 0.13345,-0.33073 0.0734,0.1819 0.0734,0.47955 0,0.66146 -0.0734,0.1819 -0.13345,0.0331 -0.13345,-0.33073 z m 21.93953,0.11024 c 0.0127,-0.30822 0.0754,-0.37092 0.15985,-0.15985 0.0764,0.19099 0.067,0.4192 -0.0209,0.50712 -0.0879,0.0879 -0.15045,-0.0684 -0.13896,-0.34727 z m -18.40943,-0.11024 c 0.0899,-0.14552 0.21603,-0.26459 0.2802,-0.26459 0.0642,0 0.11667,0.11907 0.11667,0.26459 0,0.14552 -0.12608,0.26458 -0.28019,0.26458 -0.15411,0 -0.20662,-0.11906 -0.11668,-0.26458 z m -3.55099,-2.27101 c 0.0127,-0.30822 0.0754,-0.37092 0.15986,-0.15985 0.0764,0.19099 0.067,0.4192 -0.0209,0.50712 -0.0879,0.0879 -0.15046,-0.0684 -0.13897,-0.34727 z m 21.98131,-0.37483 c 0,-0.3638 0.0601,-0.51263 0.13345,-0.33073 0.0734,0.18191 0.0734,0.47956 0,0.66146 -0.0734,0.1819 -0.13345,0.0331 -0.13345,-0.33073 z m -22.24589,-2.00642 c 0.0127,-0.30823 0.0754,-0.37092 0.15985,-0.15985 0.0764,0.19099 0.067,0.4192 -0.0209,0.50712 -0.0879,0.0879 -0.15045,-0.0684 -0.13896,-0.34727 z m 22.48958,-0.26458 c 0.0127,-0.30823 0.0754,-0.37092 0.15986,-0.15986 0.0764,0.191 0.067,0.4192 -0.0209,0.50712 -0.0879,0.0879 -0.15046,-0.0684 -0.13897,-0.34726 z m -5.31255,-1.16849 -0.66146,-0.21184 0.8599,-0.0264 c 0.47294,-0.0145 0.85989,0.0927 0.85989,0.23821 0,0.29901 -0.12467,0.29901 -1.05833,0 z m 5.03646,0.11906 c 0.005,-0.13824 0.18871,-0.54901 0.40791,-0.91281 l 0.39854,-0.66146 -0.17307,0.66146 c -0.18057,0.69013 -0.65033,1.36713 -0.63338,0.91281 z m -8.21146,-1.27729 c 0,-0.0549 0.20836,-0.2633 0.46302,-0.46302 l 0.46302,-0.36313 -0.36313,0.46303 c -0.34564,0.44072 -0.56291,0.58088 -0.56291,0.36312 z m -11.3059,-0.61262 c 0.25743,-0.0671 0.61461,-0.0627 0.79375,0.01 0.17913,0.0725 -0.0315,0.12736 -0.46806,0.12197 -0.43656,-0.005 -0.58313,-0.0647 -0.32569,-0.13177 z m 20.03715,-0.0812 c 0,-0.14552 -0.16586,-0.26459 -0.36857,-0.26459 -0.20271,0 -0.44356,-0.19543 -0.53522,-0.4343 l -0.16666,-0.43429 0.39134,0.32478 c 0.21524,0.17863 0.51562,0.24798 0.66752,0.1541 0.15769,-0.0975 0.27617,0.063 0.27617,0.3741 0,0.29963 -0.0595,0.54478 -0.13229,0.54478 -0.0728,0 -0.13229,-0.11906 -0.13229,-0.26458 z m -4.74045,-0.36857 c 0.3529,-0.33246 2.09434,-1.17791 2.09294,-1.0161 -0.002,0.23568 -1.51481,1.11996 -1.91595,1.11996 -0.15798,0 -0.23763,-0.0467 -0.17699,-0.10386 z m 0.24253,-1.21905 c 0.21828,-0.14107 0.51594,-0.25648 0.66146,-0.25648 0.14552,0 0.086,0.11541 -0.13229,0.25648 -0.21828,0.14106 -0.51594,0.25648 -0.66146,0.25648 -0.14552,0 -0.086,-0.11542 0.13229,-0.25648 z m 2.68761,-3.70413 c 0,-0.3638 0.06,-0.51263 0.13345,-0.33073 0.0734,0.1819 0.0734,0.47956 0,0.66146 -0.0734,0.1819 -0.13345,0.0331 -0.13345,-0.33073 z m -21.16667,-0.79375 c 0,-0.3638 0.0601,-0.51263 0.13346,-0.33073 0.0734,0.1819 0.0734,0.47956 0,0.66146 -0.0734,0.1819 -0.13346,0.0331 -0.13346,-0.33073 z m 12.54595,-2.18285 c -0.24277,-0.32743 -0.37378,-0.45369 -0.29113,-0.2806 0.0927,0.19418 -0.0546,0.29929 -0.38462,0.27443 -0.48751,-0.0367 -0.56615,-0.13047 -0.51935,-0.6191 0.0139,-0.14465 -1.24484,-0.89609 -1.50099,-0.89609 -0.0561,0 -0.10205,0.18562 -0.10205,0.41249 0,0.22687 0.10557,0.34725 0.23461,0.2675 0.12903,-0.0798 0.38056,0.0309 0.55896,0.24584 l 0.32436,0.39083 -0.42667,0.13542 c -0.23467,0.0745 -0.61305,0.1942 -0.84085,0.26605 -0.31308,0.0987 -0.37331,0.002 -0.24676,-0.39688 0.0959,-0.30204 0.0467,-0.5275 -0.11499,-0.5275 -0.15532,0 -0.26831,0.0893 -0.25108,0.19844 0.11529,0.73015 -0.11318,0.81546 -2.00458,0.74846 -1.18123,-0.0418 -2.14774,-0.2147 -2.40795,-0.43065 -0.23907,-0.19842 -0.61911,-0.38783 -0.84452,-0.42091 -0.22542,-0.0331 -0.50924,-0.2169 -0.63072,-0.40848 -0.20092,-0.31685 -0.33856,-0.11631 -0.26031,0.37929 0.0376,0.2378 -1.0786,0.26356 -1.6653,0.0384 -0.22935,-0.088 -0.35112,-0.2666 -0.27061,-0.39688 0.0805,-0.13027 0.076,-0.23685 -0.01,-0.23685 -0.086,0 -0.2744,0.26789 -0.41858,0.59531 l -0.26214,0.59531 0.14342,-0.7276 c 0.0811,-0.41158 0.0263,-0.72761 -0.12621,-0.72761 -0.14829,0 -0.26962,0.16806 -0.26962,0.37347 0,0.20649 -0.20701,0.34154 -0.46302,0.30206 -0.25466,-0.0393 -0.5505,0.0605 -0.65741,0.22184 -0.13564,0.20464 -0.19561,0.19331 -0.19844,-0.0375 -0.002,-0.1819 -0.23225,-0.33073 -0.51117,-0.33073 -0.27891,0 -0.56717,0.14883 -0.64057,0.33073 -0.0734,0.1819 -0.14285,0.0699 -0.15434,-0.24897 -0.0255,-0.7066 0.40919,-1.02255 0.87494,-0.636 0.38383,0.31855 0.69167,0.1265 0.69167,-0.43151 0,-0.20262 -0.11906,-0.29481 -0.26458,-0.20488 -0.14552,0.0899 -0.26458,-0.0816 -0.26458,-0.38126 0,-0.30786 -0.1726,-0.54478 -0.39688,-0.54478 -0.21828,0 -0.39687,0.1786 -0.39687,0.39688 0,0.21828 -0.11906,0.39687 -0.26459,0.39687 -0.34415,0 -0.33281,-0.15314 0.1225,-1.65364 0.2208,-0.72764 0.27317,-1.25677 0.12439,-1.25677 -0.23836,0 -0.13621,-0.91365 0.20707,-1.85209 0.0798,-0.21828 0.18287,-0.68373 0.22893,-1.03434 0.0461,-0.3506 0.20672,-0.71346 0.35701,-0.80635 0.1503,-0.0929 0.22613,-0.41359 0.16853,-0.71269 -0.19342,-1.00436 1.79952,-10.93103 2.12853,-10.60202 0.0441,0.0441 -0.0982,1.26589 -0.3161,2.71516 -0.21793,1.44927 -0.40656,3.14105 -0.41918,3.75951 -0.0126,0.61847 -0.13965,1.12448 -0.28229,1.12448 -0.14263,0 -0.17897,0.20836 -0.0807,0.46302 0.0982,0.25466 0.18708,1.56112 0.19747,2.90325 0.0104,1.34212 0.12136,2.37689 0.2466,2.29948 0.12524,-0.0774 0.22771,-0.84808 0.22771,-1.71261 0,-0.86454 0.0972,-1.57189 0.21595,-1.57189 0.11877,0 0.36293,-1.69664 0.54257,-3.77031 0.37231,-4.2977 0.60951,-5.6525 0.97212,-5.55223 0.13955,0.0386 0.32904,-0.67578 0.42107,-1.5875 0.16556,-1.64012 0.11914,0.69635 -0.21006,10.57305 l -0.16955,5.08696 0.63531,0.23509 c 1.05006,0.38856 1.23096,-0.25813 1.47151,-5.26055 l 0.22212,-4.6193 0.13229,1.98438 0.1323,1.98437 0.16092,-2.08515 c 0.11557,-1.49749 0.27818,-2.15078 0.57698,-2.318 0.46045,-0.25768 0.88611,-2.06401 1.12959,-4.79356 0.10477,-1.17462 0.25704,-1.72811 0.44367,-1.61276 0.17409,0.10759 0.2067,0.0503 0.0842,-0.1479 -0.10996,-0.17792 -0.39625,-0.25556 -0.63619,-0.17252 l -0.43626,0.15098 0.48438,-0.37616 c 0.26641,-0.2069 0.6236,-0.56673 0.79375,-0.79965 0.23883,-0.32692 0.26745,0.31673 0.1255,2.82292 -0.1893,3.34236 -0.0634,5.39305 0.34669,5.6465 0.12873,0.0796 0.23406,-0.24232 0.23406,-0.71528 v -0.85993 l 0.41349,0.51359 c 0.29329,0.36428 0.45354,0.41744 0.55122,0.18286 0.0757,-0.1819 0.30639,-0.33073 0.51255,-0.33073 0.44717,0 0.44533,-0.0166 0.10551,0.95816 -0.3294,0.94491 -1.28731,1.63657 -1.58947,1.14767 -0.31414,-0.5083 -0.55701,1.08152 -0.30479,1.99521 l 0.2191,0.79375 0.22159,-0.79375 c 0.12187,-0.43656 0.19697,-0.94258 0.16688,-1.12448 -0.0301,-0.1819 0.0766,-0.33073 0.2371,-0.33073 0.16049,0 0.21821,0.11906 0.12828,0.26459 -0.0899,0.14552 0.0816,0.26458 0.38126,0.26458 0.29963,0 0.54478,-0.11906 0.54478,-0.26458 0,-0.14553 0.10958,-0.26459 0.24352,-0.26459 0.13394,0 0.32658,0.77556 0.42809,1.72347 0.10152,0.94791 0.30686,1.79905 0.45633,1.89143 0.18368,0.11352 0.21539,-0.80945 0.0978,-2.84795 -0.43725,-7.58293 -0.50896,-8.89986 -0.53575,-9.83866 -0.0161,-0.56545 -0.20147,-1.12049 -0.42546,-1.2741 -0.30584,-0.20976 -0.25849,-0.23319 0.20645,-0.10219 0.44774,0.12616 0.84245,-0.04 1.53056,-0.64413 0.9543,-0.83788 1.79537,-1.04154 2.12158,-0.51373 0.10211,0.16522 0.46405,1.9744 0.80432,4.0204 0.34026,2.046 0.77011,3.87146 0.95522,4.05656 l 0.33655,0.33656 1.51667,-0.35256 c 1.75883,-0.40885 2.40606,-0.85317 2.22901,-1.53021 -0.0693,-0.26503 -0.0133,-0.4122 0.1245,-0.32704 0.29599,0.18293 0.085,-0.90412 -0.4547,-2.34226 -0.41865,-1.11566 -0.48062,-1.56418 -0.1424,-1.03062 0.17017,0.26846 0.2584,0.22089 0.36806,-0.19844 0.0793,-0.30334 0.0363,-0.55153 -0.0956,-0.55153 -0.1319,0 -0.23981,-0.23812 -0.23981,-0.52916 0,-0.72985 0.51845,-0.67014 0.57442,0.0661 0.0249,0.32742 0.0628,0.83344 0.0843,1.12448 0.0215,0.29104 0.10478,0.70776 0.18513,0.92604 0.0804,0.21828 0.38781,1.46844 0.68326,2.77813 0.29544,1.30968 0.71444,3.09562 0.9311,3.96875 0.21666,0.87312 0.47489,2.71859 0.57385,4.10104 0.099,1.38245 0.24788,2.8112 0.33095,3.175 0.0831,0.3638 0.0745,0.59177 -0.019,0.50659 -0.0935,-0.0852 -0.35544,-1.2758 -0.58204,-2.64583 -0.22659,-1.37003 -0.57246,-2.91215 -0.76858,-3.42692 -0.19612,-0.51477 -0.44094,-1.4985 -0.54405,-2.18606 -0.1031,-0.68757 -0.30029,-1.31985 -0.43819,-1.40508 -0.3186,-0.1969 -1.36802,0.7314 -1.05782,0.93574 0.22091,0.14551 0.42707,1.30602 0.81186,4.56993 0.28221,2.39375 0.50817,2.05548 0.42226,-0.63213 -0.0433,-1.35471 -0.02,-2.10593 0.0518,-1.66937 0.0718,0.43657 0.22122,0.91282 0.33208,1.05834 0.46948,0.61624 0.83178,3.4631 0.59567,4.68055 -0.14918,0.76926 -0.14544,1.33619 0.01,1.49149 0.15765,0.15764 0.14389,0.31643 -0.0371,0.42829 -0.1582,0.0978 -0.28764,0.28981 -0.28764,0.42674 0,0.3906 0.5722,0.29204 1.10527,-0.19038 0.26701,-0.24164 0.57386,-0.35097 0.68188,-0.24295 0.10802,0.10802 -0.041,0.36996 -0.33107,0.58209 l -0.52746,0.38569 0.39559,0.24983 c 0.21757,0.13741 0.51465,0.295 0.66017,0.35021 0.14552,0.0552 0.16987,0.20146 0.0541,0.32501 -0.11576,0.12356 -0.44157,0.0803 -0.72401,-0.0961 -0.70531,-0.44047 -0.9811,-0.40542 -1.64001,0.20846 l -0.568,0.52916 h 0.46238 c 0.25431,0 0.3888,0.11907 0.29886,0.26459 -0.39461,0.6385 0.21763,0.73603 0.86312,0.1375 0.51209,-0.47484 0.75821,-0.56385 0.90785,-0.32833 0.15008,0.23621 0.20748,0.21637 0.21341,-0.0738 l 0.008,-0.39687 0.25648,0.39687 c 0.40337,0.62417 0.31524,0.79375 -0.41249,0.79375 -0.38401,0 -0.6063,0.11453 -0.51355,0.26459 0.15427,0.24961 0.0346,0.29845 -0.92604,0.37807 -0.44399,0.0368 -1.07965,-0.6587 -0.88697,-0.97047 0.0684,-0.11074 0.0129,-0.20135 -0.12336,-0.20135 -0.31769,0 -0.87878,0.66853 -0.70605,0.84126 0.0721,0.0721 -0.16296,0.2651 -0.52238,0.42886 l -0.65349,0.29775 -0.4573,-0.45321 -0.4573,-0.45321 0.17532,0.46303 c 0.11857,0.3131 0.0468,0.46302 -0.22154,0.46302 -0.21828,0 -0.46792,0.18512 -0.55474,0.41139 -0.12064,0.31437 -0.43482,0.38253 -1.33229,0.28901 -0.85213,-0.0888 -1.21365,-0.0202 -1.31735,0.25006 -0.17709,0.46149 -0.78331,0.48709 -0.98786,0.0417 -0.0835,-0.1819 -0.0854,-0.0628 -0.004,0.26459 0.0812,0.32742 0.0946,0.59531 0.0298,0.59531 -0.0648,0 -0.31647,-0.26789 -0.55925,-0.59531 z m -4.28469,-0.34447 c 0.0904,-0.23546 0.046,-0.34167 -0.10398,-0.24897 -0.14385,0.0889 -0.26155,0.27368 -0.26155,0.41061 0,0.38059 0.18964,0.29672 0.36553,-0.16164 z m -3.01137,-0.26646 c 0,-0.22687 -0.121,-0.33771 -0.26889,-0.2463 -0.1479,0.0914 -0.2004,0.27702 -0.11668,0.41249 0.22681,0.36699 0.38557,0.29856 0.38557,-0.16619 z m 13.75834,-1.71979 c 0,-0.13694 -0.23813,-0.24897 -0.52917,-0.24897 -0.29104,0 -0.52916,0.12609 -0.52916,0.2802 0,0.15411 0.11906,0.20661 0.26458,0.11667 0.14552,-0.0899 0.26458,-0.0304 0.26458,0.1323 0,0.16269 0.11906,0.22222 0.26459,0.13229 0.14552,-0.0899 0.26458,-0.27556 0.26458,-0.41249 z m -3.175,-1.57189 c 0.21828,-0.14106 0.27781,-0.25648 0.13229,-0.25648 -0.14552,0 -0.44318,0.11542 -0.66146,0.25648 -0.21828,0.14107 -0.27781,0.25648 -0.13229,0.25648 0.14552,0 0.44318,-0.11541 0.66146,-0.25648 z m 0.89606,-3.4238 c -0.19898,-1.51929 -0.482,-2.88255 -0.62892,-3.02948 -0.37679,-0.37678 -0.34318,0.3917 0.13776,3.14958 0.37566,2.15422 0.59845,2.93315 0.77969,2.72599 0.0403,-0.0461 -0.0895,-1.3268 -0.28853,-2.84609 z m -0.57966,1.90245 c -0.0767,-0.40018 -0.19044,-0.57485 -0.25285,-0.38815 -0.11254,0.33668 0.0888,1.11575 0.28833,1.11575 0.0572,0 0.0412,-0.32742 -0.0355,-0.7276 z m -7.30795,-1.58964 c -0.31923,-0.31923 -0.47135,0.20678 -0.26487,0.91586 l 0.21547,0.73992 0.1008,-0.75179 c 0.0554,-0.41349 0.0323,-0.82028 -0.0514,-0.90399 z m 8.54583,-2.57755 c -0.37171,-2.54834 -0.72883,-3.83646 -1.06362,-3.83646 -0.16094,0 -0.2057,0.19941 -0.10393,0.46302 0.0983,0.25466 0.28444,1.35599 0.4136,2.4474 0.12915,1.09141 0.32212,2.57969 0.42881,3.30729 l 0.19399,1.32292 0.20065,-0.92604 c 0.11036,-0.50933 0.0791,-1.75948 -0.0695,-2.77813 z m 0.47303,2.71198 c -0.0734,-0.1819 -0.13345,-0.0331 -0.13345,0.33073 0,0.3638 0.06,0.51263 0.13345,0.33073 0.0734,-0.1819 0.0734,-0.47956 0,-0.66146 z m -8.90648,-1.25677 c 0,-0.29104 -0.11906,-0.52917 -0.26458,-0.52917 -0.14552,0 -0.26459,0.23813 -0.26459,0.52917 0,0.29104 0.11907,0.52917 0.26459,0.52917 0.14552,0 0.26458,-0.23813 0.26458,-0.52917 z m -4.23333,-0.11668 c 0,-0.0642 -0.11906,-0.19026 -0.26459,-0.2802 -0.14552,-0.0899 -0.26458,-0.0374 -0.26458,0.11668 0,0.15411 0.11906,0.2802 0.26458,0.2802 0.14553,0 0.26459,-0.0525 0.26459,-0.11668 z m 6.08541,-0.56039 c 0,-0.22687 -0.121,-0.33771 -0.26889,-0.24631 -0.1479,0.0914 -0.2004,0.27703 -0.11668,0.41249 0.22681,0.36699 0.38557,0.29856 0.38557,-0.16618 z m 4.64603,-3.35326 c -0.23445,-0.49407 -0.45298,-1.27607 -0.48563,-1.73777 -0.0594,-0.83993 -0.52665,-1.2623 -1.04325,-0.94302 -0.17359,0.10728 -0.13344,0.24881 0.10911,0.38454 0.26433,0.14793 0.36217,0.58178 0.31433,1.39387 l -0.0695,1.17909 0.64569,0.16206 c 0.35513,0.0891 0.64568,0.2987 0.64568,0.4657 0,0.167 0.0697,0.23393 0.15491,0.14874 0.0852,-0.0852 -0.0369,-0.55914 -0.27138,-1.05321 z m 1.09097,-2.36928 c -0.0845,-0.21107 -0.14716,-0.14837 -0.15986,0.15985 -0.0115,0.27892 0.0511,0.43519 0.13897,0.34727 0.0879,-0.0879 0.0973,-0.31612 0.0209,-0.50712 z m -2.79714,-1.97024 c 0.15826,-0.19069 0.15571,-0.53274 -0.007,-0.9271 -0.14173,-0.34371 -0.33454,-1.55337 -0.42845,-2.68812 l -0.17076,-2.0632 -0.40045,0.33234 -0.40044,0.33234 0.17861,2.52461 c 0.0982,1.38853 0.31495,3.00085 0.48159,3.58294 l 0.30298,1.05833 0.0965,-0.92498 c 0.0531,-0.50874 0.20938,-1.06096 0.34731,-1.22716 z m -9.20787,-1.81666 c 0.001,-0.87312 0.0509,-1.19841 0.10977,-0.72287 0.0589,0.47555 0.0577,1.18993 -0.003,1.5875 -0.0604,0.39758 -0.10855,0.008 -0.10707,-0.86463 z m 12.61802,-1.19062 c 0,-0.14553 0.14882,-0.26634 0.33072,-0.26849 0.18191,-0.002 0.0425,-0.15097 -0.30983,-0.33073 -0.35231,-0.17975 -0.6888,-0.50542 -0.74775,-0.7237 -0.0783,-0.28983 -0.0447,-0.30875 0.12454,-0.0702 0.12744,0.1797 0.67205,0.35829 1.21023,0.39688 1.14864,0.0824 1.2152,0.25179 0.32744,0.83347 -0.75736,0.49624 -0.93535,0.52721 -0.93535,0.16273 z m -12.39578,-2.16711 c -0.0456,-0.81825 0.39256,-1.21174 0.84331,-0.75741 0.23453,0.23639 0.20225,0.27 -0.13577,0.14136 -0.33812,-0.12868 -0.47009,0.009 -0.55567,0.57964 l -0.11223,0.7484 z m 12.46483,-0.79233 -0.0392,-0.5201 0.38194,0.31698 c 0.46733,0.38786 0.46989,0.42641 0.0392,0.59169 -0.20304,0.0779 -0.35873,-0.0805 -0.38193,-0.38857 z m -15.73888,-1.07521 c 0.073,-0.27936 0.2056,-0.39665 0.29455,-0.26065 0.089,0.136 0.34033,0.30496 0.55861,0.37546 0.25391,0.082 0.1478,0.1759 -0.29456,0.26065 l -0.69143,0.13247 z m 14.87608,0.0942 c 0,-0.12995 0.19543,-0.31127 0.43429,-0.40293 l 0.4343,-0.16666 -0.3344,0.40294 c -0.38103,0.45911 -0.53419,0.5069 -0.53419,0.16665 z m -12.8323,-0.82205 c -0.0899,-0.14553 -0.0374,-0.26459 0.11668,-0.26459 0.15411,0 0.2802,0.11906 0.2802,0.26459 0,0.14552 -0.0525,0.26458 -0.11668,0.26458 -0.0642,0 -0.19026,-0.11906 -0.2802,-0.26458 z m 12.79653,-0.13661 c 1.0723,-0.47283 1.00805,-0.46941 1.16416,-0.0618 0.0866,0.22624 -0.21787,0.35026 -0.96388,0.39256 l -1.09056,0.0618 z m 2.35334,-0.67593 c -0.25331,-0.44507 -0.58073,-0.73494 -0.72761,-0.64417 -0.41042,0.25366 -0.31659,-0.28944 0.11138,-0.64462 l 0.37842,-0.31406 0.34232,0.61239 c 0.28516,0.51015 0.57771,1.80705 0.40633,1.80135 -0.0277,-9.2e-4 -0.25754,-0.36582 -0.51084,-0.81089 z m -3.6098,-0.0473 c 0.0231,-0.44824 0.0606,-0.48088 0.15172,-0.13213 0.0898,0.34349 0.30404,0.42791 0.82921,0.32666 l 0.70817,-0.13652 -0.52917,0.25006 c -0.86575,0.4091 -1.19243,0.32234 -1.15993,-0.30807 z m -14.29631,-0.53487 -0.63957,-0.78019 0.34587,-2.28596 c 0.38035,-2.51386 0.38644,-4.49775 0.02,-6.51929 -0.13189,-0.72761 -0.31079,-2.33495 -0.39755,-3.57188 l -0.15775,-2.24896 1.95374,-0.0792 1.95375,-0.0792 0.91683,0.54094 c 1.31347,0.77497 3.03761,0.94554 4.74,0.46893 0.78609,-0.22007 1.9055,-0.47839 2.48758,-0.57404 0.58208,-0.0957 1.56338,-0.36182 2.18066,-0.59149 0.77895,-0.28982 1.46704,-0.35953 2.24896,-0.22785 0.61965,0.10434 1.41922,0.21963 1.77683,0.25618 l 0.65021,0.0665 0.0604,1.3003 c 0.0332,0.71516 -0.007,1.1217 -0.0904,0.90342 -0.30028,-0.79038 -0.66398,-1.07741 -1.00577,-0.79375 -0.22981,0.19073 -0.4244,0.15334 -0.65633,-0.12612 -0.18132,-0.21847 -0.44045,-0.32875 -0.57586,-0.24507 -0.13541,0.0837 -0.4183,0.009 -0.62864,-0.16524 -0.3016,-0.25031 -0.73263,-0.20323 -2.03893,0.22268 -4.4577,1.4534 -8.14808,1.86729 -9.79242,1.09826 -0.56342,-0.2635 -0.87968,-0.271 -1.40152,-0.0332 -0.37065,0.16888 -0.90416,0.30705 -1.18558,0.30705 -0.681,0 -0.89154,0.92668 -0.67845,2.98621 0.46222,4.4675 0.46516,4.84663 0.0499,6.44469 -0.23232,0.89413 -0.41404,2.02522 -0.40381,2.51354 l 0.0186,0.88785 0.21684,-0.52916 0.21685,-0.52917 0.3044,0.77291 c 0.46482,1.18025 0.22441,1.48048 -0.48882,0.61045 z m 6.06353,0.343 c 0,-0.14311 -0.33913,-0.19015 -0.76166,-0.10564 -0.43374,0.0867 -0.8393,0.0267 -0.94201,-0.13948 -0.1137,-0.18397 -0.59002,-0.2291 -1.28886,-0.12213 -0.60968,0.0933 -1.04298,0.0975 -0.96288,0.009 0.0801,-0.0882 0.79446,-0.22267 1.5875,-0.29878 1.03304,-0.0991 1.32934,-0.0613 1.045,0.13339 -0.28761,0.19696 -0.12372,0.22455 0.59531,0.10023 l 0.99219,-0.17156 v 0.42632 c 0,0.23448 -0.0595,0.42632 -0.13229,0.42632 -0.0728,0 -0.1323,-0.11608 -0.1323,-0.25796 z m 3.175,-0.13891 c 0,-0.21828 -0.1389,-0.39688 -0.30868,-0.39688 -0.16977,0 -0.24634,-0.0623 -0.17016,-0.13851 0.0762,-0.0762 0.33416,-0.0635 0.57327,0.0283 0.46911,0.18002 0.60539,0.90396 0.17016,0.90396 -0.14552,0 -0.26459,-0.17859 -0.26459,-0.39687 z m 5.95313,-0.13229 -0.52917,-0.22739 0.44741,-0.0186 c 0.24607,-0.0102 0.52099,0.10047 0.61093,0.24599 0.18803,0.30424 0.17883,0.30424 -0.52917,0 z m -8.11145,-2.27461 c -0.11106,-1.8146 0.17331,-2.13922 0.40341,-0.46049 0.22336,1.62961 0.21169,1.94135 -0.0727,1.94135 -0.13205,0 -0.28088,-0.66639 -0.33073,-1.48086 z m -2.87305,0.37166 c -0.90778,-1.21188 -1.14075,-1.69841 -1.68605,-3.52101 -0.65096,-2.17578 -0.77425,-2.81665 -0.38176,-1.98438 0.51968,1.10198 1.56835,3.23284 2.25327,4.57856 0.80074,1.5733 0.69492,2.10214 -0.18546,0.92683 z m 5.99586,0.64213 c 0.16666,-0.10692 0.49737,-1.26595 0.7349,-2.57564 0.6703,-3.69577 0.70673,-3.83646 0.99345,-3.83646 0.33223,0 0.003,3.26534 -0.34214,3.39549 -0.38571,0.14536 -0.26416,0.57326 0.16285,0.57326 0.2473,0 0.39687,0.25013 0.39687,0.6637 v 0.6637 l 0.54431,-0.33297 c 0.29937,-0.18313 0.7261,-0.74969 0.94829,-1.25901 0.22218,-0.50932 0.51302,-1.13279 0.64631,-1.38547 0.13329,-0.25269 0.24308,-0.66941 0.24397,-0.92605 9e-4,-0.25663 0.17949,-0.80764 0.39688,-1.22445 0.21738,-0.41682 0.39524,-0.92284 0.39524,-1.12448 0,-0.20165 0.11337,-0.36664 0.25193,-0.36664 0.14441,0 0.10168,0.49925 -0.10015,1.16986 -0.22956,0.76277 -0.26198,1.25994 -0.0932,1.42875 0.1688,0.1688 0.0656,0.45224 -0.29673,0.81452 -0.3056,0.30559 -0.55563,0.78672 -0.55563,1.06918 0,0.28245 -0.11906,0.58713 -0.26458,0.67707 -0.43667,0.26988 -0.32391,1.27001 0.12382,1.0982 0.45017,-0.17275 0.80674,0.24122 0.41586,0.4828 -0.26879,0.16612 -1.22644,0.3555 -2.98874,0.59103 -0.54661,0.073 -1.05965,0.23931 -1.14009,0.36946 -0.0804,0.13015 -0.28805,0.23481 -0.46136,0.23258 -0.23287,-0.003 -0.23603,-0.0548 -0.0121,-0.19843 z m 1.87427,-0.75112 c -0.0879,-0.0879 -0.31612,-0.0973 -0.50711,-0.0209 -0.21107,0.0845 -0.14838,0.14716 0.15985,0.15986 0.27891,0.0115 0.43518,-0.0511 0.34726,-0.13897 z m -2.29099,-0.30318 c 0.0102,-0.40018 0.12263,-0.96573 0.24979,-1.25677 0.16781,-0.38407 0.21712,-0.18492 0.17984,0.7263 -0.0282,0.69051 -0.14065,1.25605 -0.24979,1.25677 -0.10914,7.2e-4 -0.19007,-0.32611 -0.17984,-0.7263 z m 5.87378,-0.66144 c 0.0636,-0.18191 0.3236,-0.293 0.57777,-0.24689 0.31063,0.0564 0.39582,-0.0234 0.25987,-0.2434 -0.14072,-0.22771 -0.0693,-0.27622 0.23486,-0.15951 0.26373,0.1012 0.41213,0.0451 0.37414,-0.14145 -0.0346,-0.17005 0.11562,-0.32 0.3339,-0.33323 0.21828,-0.0132 0.36711,-0.16747 0.33073,-0.34276 -0.0364,-0.17529 0.0616,-0.3187 0.21784,-0.3187 0.56779,0 0.0872,0.9223 -0.78797,1.51205 -0.98222,0.66192 -1.72284,0.79354 -1.54114,0.27389 z m 2.30971,-6.03489 c 0,-2.58887 0.0927,-3.92709 0.26458,-3.82084 0.15662,0.0968 0.26458,1.72254 0.26458,3.98436 0,2.37084 -0.10041,3.82084 -0.26458,3.82084 -0.16468,0 -0.26458,-1.50451 -0.26458,-3.98436 z m 0.60122,-6.06981 c 0,-0.65485 0.0516,-0.92274 0.11467,-0.59531 0.0631,0.32742 0.0631,0.8632 0,1.19062 -0.0631,0.32742 -0.11467,0.0595 -0.11467,-0.59531 z m -13.01963,-0.50618 c -0.27411,-0.17815 -0.30257,-0.34457 -0.10221,-0.59778 0.15271,-0.19299 0.34132,-1.06527 0.41913,-1.93839 l 0.14148,-1.5875 -0.2753,1.12448 c -0.15141,0.61846 -0.37371,1.12448 -0.49398,1.12448 -0.12028,0 -0.14392,0.19484 -0.0525,0.43297 0.1143,0.29786 0.0498,0.39401 -0.20674,0.3081 -0.22337,-0.0748 -0.35394,-0.43409 -0.32563,-0.896 0.026,-0.42411 0.0707,-1.27013 0.0994,-1.88004 0.0558,-1.18653 0.50353,-1.593 1.26515,-1.1485 0.25845,0.15084 0.3037,0.26028 0.10955,0.26501 -0.1819,0.004 -0.33073,0.13984 -0.33073,0.30093 0,0.16109 0.18806,0.22073 0.4179,0.13253 0.60437,-0.23192 1.69877,0.10061 1.69877,0.51616 0,0.19527 0.17085,0.45066 0.37967,0.56752 0.24713,0.1383 0.40878,0.76636 0.46302,1.79909 l 0.0833,1.5866 -1.45521,0.0686 c -0.80036,0.0377 -1.62614,-0.0425 -1.83507,-0.17827 z m -7.29118,-0.2842 c -0.0927,-0.14998 0.0135,-0.19434 0.24897,-0.10399 0.45837,0.1759 0.54223,0.36554 0.16165,0.36554 -0.13694,0 -0.32171,-0.1177 -0.41062,-0.26155 z m 0.59344,-0.57514 c -0.93879,-0.34287 -0.92648,-0.85299 0.0739,-3.05921 0.44081,-0.97219 0.74789,-1.90726 0.6824,-2.07793 -0.097,-0.25276 0.84488,-0.90534 1.3067,-0.90534 0.29175,0 0.085,0.79564 -0.21089,0.81166 -0.1819,0.01 -0.0628,0.14711 0.26459,0.30502 0.32742,0.15791 0.59531,0.4475 0.59531,0.64355 0,0.49174 0.43717,0.44864 0.63329,-0.0624 0.22105,-0.57604 0.77101,-0.33818 0.82213,0.35557 0.023,0.31237 -0.0551,0.50803 -0.17355,0.43482 -0.32144,-0.19866 -1.29727,1.54443 -1.14072,2.03765 0.0745,0.2346 -0.0459,0.577 -0.26747,0.76088 -0.22157,0.18389 -0.40285,0.49835 -0.40285,0.69882 0,0.42607 -1.09401,0.45462 -2.18281,0.057 z m 4.96094,0.0429 c -0.0899,-0.14552 -0.0374,-0.26458 0.11667,-0.26458 0.15411,0 0.2802,0.11906 0.2802,0.26458 0,0.14552 -0.0525,0.26458 -0.11668,0.26458 -0.0642,0 -0.19026,-0.11906 -0.28019,-0.26458 z m 15.47812,-0.39037 c 0,-0.069 0.38695,-0.31304 0.8599,-0.54225 l 0.85989,-0.41676 -0.62462,0.54225 c -0.58526,0.50808 -1.09517,0.70212 -1.09517,0.41676 z m -10.19747,-1.31093 c -0.0966,-0.64451 -0.0969,-1.29935 -6e-4,-1.4552 0.0963,-0.15586 0.0193,-0.28699 -0.17121,-0.29142 -0.20485,-0.005 -0.14908,-0.12275 0.13652,-0.28883 0.58075,-0.33771 0.72011,-0.22969 0.76816,0.59544 0.14424,2.4771 -0.41312,3.57226 -0.73287,1.44001 z m 3.58289,0.11268 c 0,-0.56276 -0.14707,-1.07308 -0.33073,-1.1476 -0.55973,-0.22712 0.27474,-0.64097 1.00929,-0.50056 0.65105,0.12446 0.86713,0.68633 0.37977,0.98753 -0.40842,0.25242 -0.31297,0.66146 0.15434,0.66146 0.6588,0 0.28508,0.61201 -0.50231,0.82259 l -0.71036,0.18998 z m -16.44979,-1.69833 c 0.38575,-1.08006 0.76919,-1.85397 0.85211,-1.71981 0.0829,0.13416 0.38186,0.0565 0.66432,-0.17254 0.28246,-0.22907 0.38882,-0.35598 0.23635,-0.28203 -0.15247,0.074 -0.45013,0.0183 -0.66146,-0.1237 l -0.38424,-0.25816 0.39687,0.0424 c 1.17143,0.1251 1.64157,-0.027 1.46954,-0.47527 -0.096,-0.25022 -0.094,-0.37435 0.005,-0.27583 0.0985,0.0985 0.3727,-0.0298 0.6093,-0.28512 0.2366,-0.25533 0.3263,-0.3098 0.19934,-0.12104 -0.15227,0.22639 -0.10725,0.34458 0.13229,0.34725 l 0.36313,0.004 -0.35333,0.22397 c -0.19433,0.12318 -0.34085,0.30165 -0.32561,0.39661 0.0726,0.45195 -1.14092,1.69756 -1.51423,1.55431 -0.31041,-0.11912 -0.37026,-0.0211 -0.25538,0.41821 0.0825,0.31559 0.0421,0.5738 -0.0898,0.5738 -0.1319,0 -0.24818,0.38695 -0.25841,0.85989 -0.0114,0.52732 -0.0881,0.7064 -0.19844,0.46302 -0.29258,-0.64566 -0.8344,-0.58175 -1.10515,0.13036 -0.13872,0.36487 -0.30417,0.66339 -0.36767,0.66339 -0.0635,0 0.20016,-0.88368 0.5859,-1.96374 z m 22.79979,1.14536 c 0,-0.14111 0.17859,-0.32509 0.39687,-0.40885 0.21828,-0.0838 0.39688,-0.34831 0.39688,-0.58787 0,-0.61304 -1.42648,-1.88906 -2.1118,-1.88906 h -0.57183 l 0.41577,-0.41578 c 0.22868,-0.22867 0.41578,-0.57235 0.41578,-0.76372 0,-0.50444 -1.62977,-0.69186 -2.13751,-0.2458 -0.22973,0.20183 -0.64196,0.36696 -0.91604,0.36696 h -0.49834 l 0.85158,-0.7276 c 0.54683,-0.46722 0.77554,-0.8441 0.63907,-1.05312 -0.15871,-0.24311 -0.457,-0.15939 -1.17827,0.33073 -0.53116,0.36093 -1.1209,0.65398 -1.31052,0.65122 -0.18962,-0.003 0.19101,-0.34165 0.84586,-0.75308 1.44055,-0.90506 1.96321,-1.49387 1.70169,-1.91702 -0.12887,-0.20851 -0.0835,-0.24755 0.13256,-0.11402 0.18068,0.11167 0.2737,0.41263 0.20671,0.6688 -0.0869,0.33223 0.004,0.43298 0.31539,0.35144 0.24045,-0.0629 0.71982,0.1308 1.06527,0.43041 0.68239,0.59184 0.93691,0.69679 0.67942,0.28016 -0.28184,-0.45602 0.0892,-0.28872 0.61764,0.2785 0.27828,0.2987 0.74609,0.56118 1.03957,0.58328 0.31756,0.0239 0.48059,0.17836 0.40266,0.38144 -0.072,0.18768 -0.23753,0.27537 -0.3678,0.19485 -0.13027,-0.0805 -0.23686,-0.024 -0.23686,0.12551 0,0.14954 -0.15952,0.21068 -0.35449,0.13587 -0.45438,-0.17437 -1.10999,0.56308 -0.71669,0.80615 0.15258,0.0943 0.27743,-0.0142 0.27743,-0.24103 0,-0.7365 0.41646,-0.43711 0.89234,0.64149 0.65658,1.48817 0.93065,2.54052 0.73267,2.81319 -0.23618,0.32529 -1.62501,0.39105 -1.62501,0.077 z m 1.68589,-1.95341 c -0.71863,-2.30419 -0.30443,-2.73685 0.8224,-0.85907 1.20065,2.00078 1.25599,2.22986 0.58225,2.41056 -0.31735,0.0851 -0.64298,0.15637 -0.72363,0.15836 -0.0806,0.002 -0.3871,-0.76745 -0.68102,-1.70985 z m -7.50673,0.12595 c 0,-0.14552 0.1786,-0.26458 0.39688,-0.26458 0.21828,0 0.39687,0.11906 0.39687,0.26458 0,0.14552 -0.17859,0.26458 -0.39687,0.26458 -0.21828,0 -0.39688,-0.11906 -0.39688,-0.26458 z m -9.78958,-0.23335 c 0,-0.14552 0.11906,-0.33817 0.26458,-0.42811 0.14553,-0.0899 0.26459,-0.0445 0.26459,0.10106 0,0.14553 -0.11906,0.33817 -0.26459,0.42811 -0.14552,0.0899 -0.26458,0.0445 -0.26458,-0.10106 z m 5.76024,-1.65959 -0.15771,-0.41098 -1.94137,0.0762 -1.94137,0.0762 -1.24995,-0.84243 c -1.33193,-0.89768 -1.59684,-1.2769 -0.73442,-1.05137 0.63945,0.16722 0.72768,-0.48754 0.13229,-0.98167 -0.47976,-0.39817 -0.52983,-1.34951 -0.0661,-1.25677 0.50283,0.10056 1.27548,1.33784 1.11024,1.77787 -0.0803,0.21385 -0.0587,0.30147 0.0481,0.19473 0.10674,-0.10674 0.53782,0.13501 0.95795,0.53723 l 0.76388,0.73131 1.34013,-0.0412 c 0.73707,-0.0227 1.41361,-0.15369 1.50342,-0.29112 0.0898,-0.13743 0.46096,-0.39333 0.82476,-0.56867 l 0.66146,-0.31878 -0.51359,0.41147 c -0.64552,0.51716 -0.3956,0.52208 0.81553,0.016 0.63816,-0.26663 0.89831,-0.52077 0.79873,-0.78027 -0.092,-0.23967 -0.0209,-0.3362 0.18838,-0.25589 0.18483,0.0709 0.61329,-0.23279 0.95214,-0.67493 0.55892,-0.72931 1.3245,-1.17145 0.93381,-0.53931 -0.0899,0.14552 0.0618,0.26459 0.33716,0.26459 0.27538,0 0.57506,0.0744 0.66597,0.16528 0.25912,0.25912 -2.1805,2.16411 -3.692,2.88292 -0.75127,0.35728 -1.41403,0.79384 -1.4728,0.97013 -0.0716,0.2149 -0.15882,0.18509 -0.26455,-0.0905 z m -2.63485,-1.72738 c 0.191,-0.0764 0.4192,-0.067 0.50712,0.0209 0.0879,0.0879 -0.0684,0.15046 -0.34727,0.13897 -0.30822,-0.0127 -0.37091,-0.0754 -0.15985,-0.15985 z m -5.50664,-1.27447 c 0.34178,-0.3638 0.68094,-0.66146 0.7537,-0.66146 0.0728,0 -0.14734,0.29766 -0.48912,0.66146 -0.34177,0.3638 -0.68093,0.66146 -0.7537,0.66146 -0.0728,0 0.14735,-0.29766 0.48912,-0.66146 z"
         id="path10269"
         sodipodi:nodetypes="ssssssssssssscssssssssssssscsssscssssscccsssccsscssssssssssssssssssssssssscccssssssssscssssssssssssssssssssssssssssssssssssccsssccscscsscsscccccssscssssscsscssssssssssssscssssssscsssssssssssssscssssscssssssssssssssssssssssssssssscsscccsssssscssssscsssssscssssssssscssssssscsssssssssssssssssssssssssssssssscssssscssssscsssssssscccsssssscsccsssssssssssssssssssssssssssssssscssssssscssssssssssssssssssssssssscssssssssssssscccsscssscscccscssssssssssscsccssscsssscssscsssssssssscsssscsssssscssccssscccsssssscscssscssssssscccssccssscssscssccssssssscssssssssssssssssssscssssssssssssssssssssssssssssssssssssssssssssssssssscssssssscssssscssssssssssscssssssssssssssssscsssscssssssssscscsssscsscssscsssssscssccsssscsssscssscssssssssssssssssssssssssssssssssssccccssssssscssscssssssssssscssssssssss" /><path
         style="fill:#6b4d25;fill-opacity:1"
         d="m 234.99059,271.64662 c -0.0943,-0.1526 -0.003,-0.20618 0.21052,-0.12409 0.20708,0.0795 0.57045,-0.0495 0.80749,-0.28652 0.23705,-0.23704 0.42917,-0.33319 0.42694,-0.21365 -0.0122,0.65306 -1.12896,1.13554 -1.44495,0.62426 z m 1.83163,-0.56227 c -0.0978,-0.1582 -0.0708,-0.39462 0.06,-0.52539 0.14061,-0.14061 0.23775,-0.0231 0.23775,0.28764 0,0.60119 -0.0489,0.64028 -0.29773,0.23775 z m -2.23471,-0.24153 c 0,-0.14552 -0.29766,-0.26458 -0.66146,-0.26458 -0.3638,0 -0.66146,-0.11533 -0.66146,-0.25628 0,-0.25149 0.40208,-0.17939 1.45521,0.26092 0.29104,0.12169 0.70776,0.28008 0.92604,0.352 0.21828,0.0719 0.0695,0.14015 -0.33073,0.15164 -0.40018,0.0115 -0.7276,-0.0982 -0.7276,-0.2437 z m -1.05833,-3.37345 c 0,-0.12629 0.17267,-0.46074 0.38371,-0.74322 l 0.38372,-0.51359 -0.15107,0.59944 c -0.15052,0.59722 -0.61636,1.09407 -0.61636,0.65737 z m -22.62853,-1.39989 c -0.0936,-0.15144 -0.37296,-0.21099 -0.6208,-0.13233 -0.35847,0.11378 -0.45569,-0.0328 -0.47541,-0.71684 -0.0152,-0.52598 0.0215,-0.6287 0.0944,-0.26455 0.13667,0.68257 0.48406,0.78004 0.70724,0.19844 0.0838,-0.21828 0.27136,-0.39688 0.41688,-0.39688 0.14552,0 0.19899,0.17095 0.11881,0.37988 l -0.14577,0.37987 1.45571,-0.0556 c 0.80063,-0.0306 1.39872,0.0366 1.32908,0.14929 -0.0696,0.11268 -0.74467,0.2067 -1.50006,0.20893 -0.98434,0.003 -1.26101,0.0767 -0.97658,0.26053 0.23847,0.15411 0.2711,0.2581 0.0818,0.26053 -0.17332,0.002 -0.3917,-0.11985 -0.48529,-0.27129 z m 22.40572,-0.78299 c 0,-0.3638 0.0601,-0.51263 0.13345,-0.33073 0.0734,0.1819 0.0734,0.47956 0,0.66146 -0.0734,0.1819 -0.13345,0.0331 -0.13345,-0.33073 z m -21.07349,-0.26889 c 0.0914,-0.14789 0.27703,-0.2004 0.41249,-0.11668 0.36699,0.22682 0.29856,0.38558 -0.16619,0.38558 -0.22687,0 -0.3377,-0.121 -0.2463,-0.2689 z m 1.07815,-0.32641 c 0.0864,-0.27507 0.004,-0.47373 -0.20309,-0.4894 -0.4992,-0.0378 0.85558,-0.44491 1.58529,-0.47642 0.33601,-0.0145 0.55686,0.0629 0.49079,0.17207 -0.0661,0.10914 0.066,0.37064 0.29341,0.58111 l 0.41355,0.38268 -0.1475,-0.56403 c -0.0912,-0.34859 -0.007,-0.61791 0.22014,-0.7051 0.74224,-0.28482 0.33796,-0.68685 -0.6907,-0.68685 -0.58208,0 -1.05833,-0.11906 -1.05833,-0.26458 0,-0.14552 0.24663,-0.26459 0.54807,-0.26459 0.30143,0 0.72775,-0.17968 0.94737,-0.3993 0.21962,-0.21962 0.52148,-0.3238 0.67081,-0.23151 0.17292,0.10687 0.14115,0.25586 -0.0875,0.41034 l -0.35898,0.24254 0.39688,-0.0665 c 0.21828,-0.0366 0.69453,0.0841 1.05833,0.26814 l 0.66146,0.33469 -0.39688,-0.34532 c -0.21828,-0.18993 -0.39687,-0.52392 -0.39687,-0.7422 0,-0.21828 -0.26789,-0.51441 -0.59531,-0.65806 -0.70486,-0.30923 -0.75517,-0.5469 -0.16381,-0.77383 0.43076,-0.1653 2.21433,0.97403 2.21433,1.41449 0,0.12115 0.22303,0.27859 0.49562,0.34987 0.37483,0.098 0.46541,0.0141 0.37166,-0.34444 -0.0682,-0.26074 0.007,-0.69213 0.167,-0.95865 0.22994,-0.38293 0.28165,-0.13843 0.24652,1.16552 l -0.0445,1.65012 -0.3661,-0.30385 -0.36611,-0.30384 0.34325,-0.21774 c 0.47218,-0.29952 -0.25985,-0.27058 -0.97966,0.0387 -0.40714,0.17495 -0.42986,0.23168 -0.0985,0.24599 0.23685,0.0102 0.58829,0.22695 0.78099,0.48161 l 0.35037,0.46303 -0.37089,-0.33073 c -0.41491,-0.36999 -0.89882,-0.44946 -0.69119,-0.11351 0.15677,0.25367 -2.39595,1.22383 -3.08531,1.17257 -0.2578,-0.0192 -0.40103,0.0747 -0.31829,0.20858 0.0842,0.13624 -0.31902,0.21657 -0.91567,0.18243 l -1.06612,-0.061 z m 1.43273,0.0661 c 0,-0.14552 -0.0525,-0.26458 -0.11668,-0.26458 -0.0642,0 -0.19026,0.11906 -0.2802,0.26458 -0.0899,0.14552 -0.0374,0.26459 0.11668,0.26459 0.15411,0 0.2802,-0.11907 0.2802,-0.26459 z m 19.31458,0.24897 c 0,-0.15411 0.11906,-0.20661 0.26459,-0.11667 0.14552,0.0899 0.26458,0.21602 0.26458,0.28019 0,0.0642 -0.11906,0.11668 -0.26458,0.11668 -0.14553,0 -0.26459,-0.12609 -0.26459,-0.2802 z m 1.34381,-0.13872 c 0.0127,-0.30823 0.0754,-0.37092 0.15985,-0.15986 0.0764,0.191 0.067,0.4192 -0.0209,0.50712 -0.0879,0.0879 -0.15045,-0.0683 -0.13896,-0.34726 z m -24.77501,-0.78012 c 0.28247,-0.21365 0.63265,-0.38846 0.77817,-0.38846 0.14552,0 0.0335,0.17481 -0.249,0.38846 -0.28248,0.21365 -0.63266,0.38846 -0.77818,0.38846 -0.14552,0 -0.0335,-0.17481 0.24901,-0.38846 z m 23.31196,-0.0667 c -0.0799,-0.0799 -0.13697,-0.33386 -0.12675,-0.56426 0.0137,-0.30811 0.0787,-0.27895 0.24599,0.11024 l 0.22739,0.52917 0.0186,-0.61472 c 0.0129,-0.42649 0.15366,-0.58852 0.45969,-0.52916 0.2426,0.0471 0.47971,0.2046 0.52691,0.35013 0.0962,0.29653 -1.12483,0.9456 -1.35183,0.7186 z m 2.13008,-0.48043 c -0.0942,-0.24539 -0.11168,-0.50569 -0.0389,-0.57845 0.0728,-0.0728 0.20934,0.0685 0.3035,0.31387 0.0942,0.24538 0.11167,0.50568 0.0389,0.57844 -0.0728,0.0728 -0.20933,-0.0685 -0.30349,-0.31386 z m -23.44209,-0.6433 c 0,-0.14096 0.17859,-0.25628 0.39688,-0.25628 0.21828,0 0.39687,0.0468 0.39687,0.10398 0,0.0572 -0.17859,0.17252 -0.39687,0.25628 -0.21829,0.0838 -0.39688,0.037 -0.39688,-0.10398 z m 19.79414,-0.43702 c 0.191,-0.0764 0.4192,-0.067 0.50712,0.0209 0.0879,0.0879 -0.0683,0.15046 -0.34727,0.13897 -0.30822,-0.0127 -0.37091,-0.0754 -0.15985,-0.15985 z m -19.00039,-0.18783 c 0,-0.0572 0.18478,-0.17489 0.41062,-0.26155 0.23546,-0.0904 0.34166,-0.046 0.24897,0.10398 -0.15538,0.25141 -0.65959,0.37186 -0.65959,0.15757 z m 19.21822,-0.55926 c -0.10206,-0.26597 -0.0646,-0.60456 0.0833,-0.75242 0.4044,-0.4044 0.583,-0.0635 0.32795,0.62596 l -0.22567,0.61003 z m 0.89012,-0.37345 c 0,-0.13362 -0.0723,-0.43128 -0.1606,-0.66146 -0.20057,-0.52266 0.3754,-0.53962 1.04699,-0.0308 0.27383,0.20746 0.40498,0.50764 0.29765,0.68129 -0.1423,0.23025 -0.25061,0.21771 -0.41932,-0.0485 -0.16736,-0.26414 -0.22853,-0.2716 -0.23151,-0.0283 -0.002,0.18191 -0.12311,0.33073 -0.26863,0.33073 -0.14552,0 -0.26458,-0.10932 -0.26458,-0.24294 z m -18.34445,-0.99176 c -0.30456,-0.30456 -0.19289,-1.13996 0.24088,-1.80198 l 0.41727,-0.63683 -0.16896,-3.38876 c -0.0929,-1.86381 -0.2769,-4.09087 -0.40883,-4.94902 -0.13194,-0.85814 -0.1822,-1.65359 -0.11171,-1.76765 0.0705,-0.11406 0.0228,-0.27255 -0.1061,-0.35218 -0.12886,-0.0796 -0.19261,-0.63633 -0.14167,-1.2371 l 0.0926,-1.09231 -0.44533,0.35892 -0.44533,0.35892 0.44286,-0.64342 c 0.30977,-0.45006 0.36175,-0.74116 0.17297,-0.96863 -0.18446,-0.22226 -0.18,-0.38077 0.0141,-0.50072 0.15619,-0.0965 0.25127,-0.0295 0.21128,0.14888 -0.04,0.17842 0.34402,0.61114 0.85334,0.96161 0.50932,0.35046 0.97366,0.77888 1.03186,0.95203 0.1806,0.53731 0.64127,0.70346 1.9621,0.70766 1.46549,0.005 2.34175,-0.36707 2.13504,-0.90573 -0.0846,-0.22038 0.10859,-0.49487 0.47288,-0.67202 l 0.61583,-0.29947 -0.51359,0.41147 c -0.28248,0.22631 -0.38451,0.41147 -0.22675,0.41147 0.15777,0 0.3562,0.18073 0.44096,0.40161 0.1095,0.28535 -0.14988,0.52325 -0.89602,0.82179 -0.57757,0.2311 -0.99239,0.5136 -0.92182,0.62778 0.0706,0.11418 -0.15297,0.3919 -0.49674,0.61714 -0.34377,0.22525 -1.01767,0.76816 -1.49755,1.20647 l -0.87252,0.79692 0.57378,-0.15005 c 0.80359,-0.21014 0.72692,0.33442 -0.15381,1.09248 -0.40019,0.34444 -0.63156,0.72251 -0.51417,0.84016 0.40724,0.40811 1.58927,-0.57262 2.27363,-1.88644 0.37836,-0.72637 0.76118,-1.38122 0.85071,-1.45521 0.0895,-0.074 0.24638,-0.40242 0.34856,-0.72984 0.13653,-0.43748 0.38885,-0.59531 0.95172,-0.59531 h 0.76594 l -0.0171,-1.43034 c -0.009,-0.78668 0.11054,-1.64988 0.26652,-1.91822 0.166,-0.28557 0.28694,-0.34427 0.29165,-0.14155 0.004,0.19048 0.12711,0.27275 0.27263,0.18282 0.14552,-0.0899 0.26458,0.0367 0.26458,0.28136 v 0.44489 l -0.39687,-0.32938 c -0.47915,-0.39765 -0.53192,0.0133 -0.0661,0.51507 l 0.33073,0.35631 -0.33805,-0.19124 c -0.25175,-0.14243 -0.30363,0.004 -0.20322,0.57406 0.0742,0.42093 -0.10114,1.59047 -0.38955,2.59899 -0.28841,1.00852 -0.52439,2.2768 -0.52439,2.8184 0,0.74423 -0.0922,0.94934 -0.37757,0.83983 -0.25477,-0.0978 -0.35317,0.0125 -0.30255,0.33904 0.0412,0.26615 0.0236,0.33363 -0.0393,0.14995 -0.0629,-0.18368 -0.22303,-0.2668 -0.35587,-0.1847 -0.13284,0.0821 -0.17062,-0.0355 -0.084,-0.26134 0.0867,-0.22584 0.2768,-0.41062 0.42253,-0.41062 0.15337,0 0.19208,-0.29036 0.0919,-0.68947 -0.11144,-0.44398 -0.0199,-0.92319 0.25704,-1.34587 0.62948,-0.96071 0.2081,-1.1192 -0.54043,-0.20328 -0.35213,0.43088 -0.64452,0.86849 -0.64975,0.97248 -0.005,0.10399 -0.35366,0.69378 -0.77428,1.31066 -0.42063,0.61687 -0.70496,1.27745 -0.63186,1.46794 0.197,0.5134 -0.45957,1.16773 -0.99971,0.9963 -0.54598,-0.17329 -0.84603,0.18283 -0.6295,0.7471 0.11178,0.2913 0.42056,0.35703 1.19148,0.25363 1.32902,-0.17826 1.34488,0.20555 0.0484,1.17184 -0.54571,0.40673 -1.0954,0.90332 -1.22154,1.10354 l -0.22935,0.36404 -0.22962,-0.36248 -0.22962,-0.36247 -0.004,0.40415 c -0.002,0.22228 0.17721,0.66294 0.39875,0.97923 l 0.40281,0.57509 1.18469,-0.79954 c 0.65159,-0.43975 1.1847,-0.91017 1.1847,-1.04538 0,-0.13521 0.16986,-0.24584 0.37747,-0.24584 0.20761,0 0.43193,-0.20836 0.49848,-0.46302 0.0666,-0.25466 0.13481,-0.0858 0.15169,0.37523 0.0169,0.46105 0.0959,1.05636 0.17565,1.32292 l 0.14497,0.48466 -0.31699,-0.42329 -0.31698,-0.42329 -0.50618,0.50618 c -0.30475,0.30475 -0.77987,0.47319 -1.19396,0.42329 -1.07548,-0.12961 -1.03698,0.52256 0.0428,0.72513 0.94122,0.17658 1.12965,0.47248 0.71608,1.12452 l -0.21885,0.34504 -1.124,-0.34504 c -1.15174,-0.35355 -1.75531,-1.02744 -1.50484,-1.68016 0.0776,-0.20225 0.0272,-0.43809 -0.11192,-0.5241 -0.13916,-0.086 -0.25303,0.0292 -0.25303,0.25611 0,0.22687 -0.10632,0.41249 -0.23627,0.41249 -0.12995,0 -0.30426,0.17716 -0.38735,0.3937 -0.0847,0.22075 -0.0169,0.36604 0.15441,0.33073 0.16802,-0.0346 0.35098,0.14497 0.40658,0.39912 0.0757,0.34618 -0.0142,0.41786 -0.35842,0.28576 -0.31282,-0.12004 -0.39843,-0.0775 -0.26819,0.13322 0.20779,0.33622 0.091,0.41689 -0.1927,0.13316 z m 1.14526,-8.75679 c -0.21641,-0.34501 -0.25475,0.068 -0.15384,1.65714 0.19247,3.03114 0.25013,3.1715 0.35184,0.8564 0.0522,-1.18796 -0.0313,-2.24777 -0.198,-2.51354 z m -0.0696,-4.09755 c -0.0557,-0.61846 -0.10128,-0.11245 -0.10128,1.12448 0,1.23693 0.0456,1.74294 0.10128,1.12448 0.0557,-0.61846 0.0557,-1.6305 0,-2.24896 z m 2.71669,-0.0661 c 0,-0.21828 -0.0468,-0.39687 -0.10398,-0.39687 -0.0572,0 -0.17252,0.17859 -0.25628,0.39687 -0.0838,0.21829 -0.037,0.39688 0.10398,0.39688 0.14096,0 0.25628,-0.17859 0.25628,-0.39688 z m -2.64583,-1.57819 c 0,-0.21316 -0.23813,-0.515 -0.52917,-0.67076 l -0.52917,-0.28321 v 0.51908 c 0,0.28549 0.20836,0.57353 0.46303,0.64008 0.25466,0.0666 0.49278,0.13481 0.52916,0.15169 0.0364,0.0169 0.0661,-0.14372 0.0661,-0.35688 z m 3.6322,13.70049 c -0.0687,-0.11883 0.11337,-0.45417 0.40466,-0.74521 l 0.5296,-0.52917 -0.33469,0.66146 c -0.42957,0.84894 -0.45061,0.87046 -0.59957,0.61292 z m 14.29332,-0.40346 c -0.40018,-0.13946 -0.7276,-0.41928 -0.7276,-0.62183 0,-0.28096 0.15287,-0.31016 0.64474,-0.12315 l 0.64475,0.24513 0.10128,-0.58241 0.10128,-0.58241 0.21356,0.74698 c 0.26961,0.94302 -0.0486,1.24158 -0.97801,0.91769 z m 2.20371,-1.68676 c 0.0127,-0.30822 0.0754,-0.37092 0.15985,-0.15985 0.0764,0.191 0.067,0.4192 -0.0209,0.50712 -0.0879,0.0879 -0.15045,-0.0684 -0.13896,-0.34727 z m -2.66672,-0.38278 c 0,-0.15009 -0.20836,-0.35107 -0.46302,-0.44662 -0.61112,-0.22931 -1.10562,-0.88458 -1.11607,-1.47892 -0.005,-0.26325 -0.11366,-0.41359 -0.24229,-0.33409 -0.30281,0.18715 -0.81807,-1.07799 -0.85432,-2.09769 -0.0486,-1.36648 -0.26823,-2.25948 -0.5178,-2.10523 -0.13201,0.0816 -0.16692,-0.0422 -0.0776,-0.27499 0.0942,-0.2456 -0.0252,-0.56057 -0.28462,-0.75024 -0.24589,-0.17979 -0.48382,-0.66158 -0.52872,-1.07064 l -0.0816,-0.74373 0.95855,0.18395 c 0.5272,0.10118 1.79199,0.21543 2.81063,0.25391 l 1.85209,0.0699 1.00439,-0.78995 c 0.55241,-0.43447 1.0537,-0.74063 1.11398,-0.68035 0.20884,0.20884 -0.19524,1.27049 -0.42866,1.12623 -0.12898,-0.0797 -0.2345,-0.0376 -0.2345,0.0936 0,0.1312 -0.40576,0.45705 -0.90168,0.72412 l -0.90168,0.48559 -0.18184,2.29747 c -0.13424,1.6961 -0.0915,2.44208 0.16317,2.84992 0.26058,0.41725 0.43018,0.48176 0.69304,0.26361 0.53889,-0.44724 0.73909,-0.0121 0.24542,0.53339 -0.24164,0.26701 -0.43935,0.60671 -0.43935,0.75489 0,0.3874 -0.93365,1.40871 -1.28781,1.40871 -0.16483,0 -0.29969,-0.1228 -0.29969,-0.27289 z m 0.7355,-1.37431 0.42912,-0.70723 -0.4618,-0.51028 -0.4618,-0.51028 0.14142,-2.54584 c 0.0888,-1.59887 0.044,-2.54584 -0.12051,-2.54584 -0.25425,0 -0.36103,0.35223 -0.28992,0.95633 0.0253,0.21468 -0.25175,0.21841 -1.01864,0.0137 -0.57935,-0.15464 -1.13361,-0.20091 -1.2317,-0.10282 -0.27693,0.27693 0.43312,0.98487 0.98781,0.98487 0.28185,0 0.49677,0.18572 0.49677,0.42927 v 0.42927 l 0.39687,-0.32938 0.39688,-0.32937 v 1.12076 1.12076 l -0.79375,-0.1165 -0.79375,-0.1165 v 0.73231 c 0,0.40277 0.11906,0.8059 0.26458,0.89583 0.14552,0.0899 0.26459,0.063 0.26459,-0.06 0,-0.12292 0.23812,-0.2235 0.52916,-0.2235 0.64498,0 0.74878,1.14186 0.12554,1.38102 -0.31605,0.12128 -0.33614,0.23621 -0.0926,0.52968 0.40618,0.48941 0.70722,0.36811 1.23171,-0.49629 z m -1.26467,-3.39095 c 0,-0.1516 -0.25311,-0.53856 -0.56246,-0.85989 -0.30936,-0.32134 -0.48803,-0.40566 -0.39705,-0.18738 0.091,0.21828 0.23892,0.60524 0.32874,0.8599 0.17686,0.5014 0.63077,0.63624 0.63077,0.18737 z m -1.68318,3.31836 c -0.0838,-0.21828 -0.037,-0.39688 0.10399,-0.39688 0.14095,0 0.25628,0.1786 0.25628,0.39688 0,0.21828 -0.0468,0.39687 -0.10399,0.39687 -0.0572,0 -0.17252,-0.17859 -0.25628,-0.39687 z m 5.43893,-1.58756 c 0.005,-0.43656 0.0647,-0.58313 0.13177,-0.3257 0.0671,0.25744 0.0627,0.61462 -0.01,0.79375 -0.0725,0.17914 -0.12736,-0.0315 -0.12197,-0.46805 z m -16.83561,-1.11338 c -0.14359,-0.37708 -0.1132,-0.40747 0.14811,-0.14811 0.18082,0.17947 0.26211,0.39297 0.18065,0.47443 -0.0815,0.0815 -0.2294,-0.0654 -0.32876,-0.32632 z m 16.80492,-1.02586 c 0.0127,-0.30822 0.0754,-0.37092 0.15985,-0.15985 0.0764,0.191 0.067,0.4192 -0.0209,0.50712 -0.0879,0.0879 -0.15045,-0.0683 -0.13896,-0.34727 z m -1.60839,-0.39039 c 0,-0.15411 0.11906,-0.20661 0.26458,-0.11668 0.14552,0.0899 0.26459,-0.0221 0.26459,-0.24896 0,-0.22687 0.1318,-0.41249 0.29289,-0.41249 0.16109,0 0.22062,0.18833 0.13229,0.41851 -0.0883,0.23018 -0.1606,0.46831 -0.1606,0.52917 0,0.0609 -0.1786,0.11065 -0.39688,0.11065 -0.21828,0 -0.39687,-0.12609 -0.39687,-0.2802 z m 1.87297,-1.46146 c 0.0127,-0.30823 0.0754,-0.37092 0.15985,-0.15985 0.0764,0.19099 0.067,0.4192 -0.0209,0.50712 -0.0879,0.0879 -0.15045,-0.0684 -0.13896,-0.34727 z m -7.46805,-2.82301 c 0.13331,-0.13331 0.524,-0.19808 0.86821,-0.14393 l 0.62583,0.0984 -0.86821,0.14394 c -0.52579,0.0872 -0.77262,0.0483 -0.62583,-0.0984 z m 3.67993,0.14446 c 0.32912,-0.0633 0.80537,-0.0609 1.05834,0.005 0.25296,0.0662 -0.0163,0.118 -0.5984,0.11506 -0.58208,-0.003 -0.78905,-0.0571 -0.45994,-0.1204 z m 1.65057,-1.10981 c 0,-0.27476 0.50329,-0.6725 0.65237,-0.51557 0.0484,0.051 -0.0786,0.24617 -0.28219,0.43381 -0.2036,0.18763 -0.37018,0.22443 -0.37018,0.0818 z m -2.64584,-0.31895 c 0,-0.16109 -0.17478,-0.22582 -0.3884,-0.14385 -0.21362,0.082 -0.46512,0.0249 -0.55889,-0.12681 -0.10418,-0.16857 0.0726,-0.24443 0.45455,-0.19505 0.34377,0.0445 0.80363,-0.0277 1.02191,-0.16025 l 0.39687,-0.24106 -0.34177,0.42193 -0.34177,0.42194 0.34177,0.13713 c 0.21735,0.0872 0.17321,0.14474 -0.12125,0.15802 -0.25466,0.0115 -0.46302,-0.11091 -0.46302,-0.272 z m -13.95171,-0.15505 c 0.25743,-0.0671 0.61461,-0.0627 0.79375,0.01 0.17913,0.0725 -0.0315,0.12736 -0.46806,0.12197 -0.43656,-0.005 -0.58313,-0.0647 -0.32569,-0.13178 z m 16.39911,-0.89617 c 0.25466,-0.14833 0.46302,-0.44939 0.46302,-0.66903 0,-0.21964 0.12682,-0.32096 0.28182,-0.22517 0.32374,0.20009 -0.44788,1.18499 -0.91814,1.17193 -0.15935,-0.004 -0.0814,-0.1294 0.1733,-0.27773 z m -0.70536,-0.33827 c 0.0917,-0.23886 0.35236,-0.4343 0.57932,-0.4343 0.22697,0 0.36306,0.0337 0.30243,0.0749 -0.0606,0.0412 -0.32133,0.23661 -0.57932,0.4343 l -0.46908,0.35943 z m -2.4035,-0.58718 c -0.58208,-0.34769 -0.91915,-0.63412 -0.74904,-0.63651 0.41753,-0.006 1.9359,0.87171 1.938,1.12012 0.002,0.24353 0.0845,0.27708 -1.18896,-0.48361 z m -12.03854,0.0531 c 0,-0.0549 0.18132,-0.25038 0.40293,-0.4343 l 0.40294,-0.3344 -0.16666,0.43429 c -0.14232,0.37088 -0.63921,0.63083 -0.63921,0.33441 z m -2.11667,-0.69386 c 0.90466,-0.28972 1.60026,-0.28972 0.92605,0 -0.29105,0.12507 -0.7673,0.22389 -1.05834,0.21962 l -0.52916,-0.008 z m 16.93334,0 c -0.23847,-0.15411 -0.2711,-0.25809 -0.0818,-0.26053 0.17331,-0.002 0.3887,0.11501 0.47863,0.26053 0.20302,0.32849 0.11143,0.32849 -0.39687,0 z m -3.04084,-0.52617 c -0.0927,-0.14998 0.0135,-0.19434 0.24897,-0.10399 0.45837,0.1759 0.54224,0.36554 0.16165,0.36554 -0.13693,0 -0.32171,-0.1177 -0.41062,-0.26155 z m 1.18876,-0.003 0.39687,-0.25648 -0.39687,-0.0144 c -0.21829,-0.008 -0.01,-0.1826 0.46302,-0.38816 0.47294,-0.20556 0.85989,-0.51129 0.85989,-0.67941 0,-0.16811 0.17253,-0.23945 0.3834,-0.15853 0.25626,0.0983 0.33461,0.02 0.23628,-0.23628 -0.0809,-0.21087 -0.25345,-0.3834 -0.3834,-0.3834 -0.12995,0 -0.23628,-0.16586 -0.23628,-0.36857 0,-0.38131 0.76346,-0.80825 1.00801,-0.5637 0.0762,0.0762 0.0195,0.13852 -0.12606,0.13852 -0.14552,0 -0.26459,0.17859 -0.26459,0.39687 0,0.21829 0.14552,0.39688 0.32338,0.39688 0.74571,0 0.0305,1.57777 -0.7234,1.59591 -0.1923,0.005 -0.58075,0.18323 -0.86322,0.39688 -0.28248,0.21365 -0.63966,0.38664 -0.79375,0.38441 -0.15409,-0.002 -0.10157,-0.11947 0.11672,-0.26053 z m -16.0073,-1.05833 c -0.2088,-0.33784 0.66785,-0.33784 1.19063,0 0.31042,0.20061 0.24177,0.25737 -0.31512,0.26053 -0.39159,0.002 -0.78557,-0.11501 -0.87551,-0.26053 z m 14.89935,-0.18079 c 0.191,-0.0764 0.4192,-0.067 0.50712,0.0209 0.0879,0.0879 -0.0684,0.15045 -0.34727,0.13896 -0.30822,-0.0127 -0.37091,-0.0754 -0.15985,-0.15985 z m -3.12539,-3.59092 c 0,-0.0728 0.168,-0.27172 0.37332,-0.44212 0.28763,-0.23871 0.41883,-0.23096 0.57159,0.0337 0.10904,0.18896 0.10083,0.25531 -0.0182,0.14743 -0.11908,-0.10788 -0.37629,-0.0635 -0.57159,0.0985 -0.19529,0.16208 -0.35507,0.23516 -0.35507,0.1624 z m -10.00259,-6.94396 c 0.005,-0.43657 0.0647,-0.58313 0.13178,-0.3257 0.0671,0.25743 0.0627,0.61462 -0.01,0.79375 -0.0725,0.17914 -0.12736,-0.0315 -0.12197,-0.46805 z m -1.55709,-1.5875 c 0.001,-0.87313 0.0509,-1.19842 0.10977,-0.72287 0.0589,0.47555 0.0577,1.18993 -0.003,1.5875 -0.0604,0.39758 -0.10855,0.008 -0.10707,-0.86463 z m 1.57224,-0.79371 c 0.003,-0.58209 0.0571,-0.78906 0.1204,-0.45994 0.0633,0.32912 0.0609,0.80537 -0.005,1.05833 -0.0662,0.25297 -0.118,-0.0163 -0.11506,-0.59839 z m -0.0718,-4.23338 -0.0575,-1.32291 -0.2046,0.79375 -0.20459,0.79375 -0.21218,-0.66146 -0.21218,-0.66146 -0.2066,0.66146 c -0.11362,0.3638 -0.14623,-0.64823 -0.0725,-2.24896 0.0738,-1.60073 0.14429,-4.26395 0.1567,-5.91827 0.0136,-1.80786 0.11405,-2.86342 0.25189,-2.64583 0.12614,0.19911 0.23117,0.68944 0.2334,1.08962 0.005,0.84302 0.19412,0.91335 0.71269,0.26458 l 0.37011,-0.46302 -0.12904,3.96875 c -0.0755,2.32254 -0.0379,3.63951 0.0908,3.175 0.34079,-1.23059 0.29645,-0.22799 -0.0995,2.24896 l -0.35949,2.24896 z m 13.76346,-4.03444 c -0.3638,-0.0454 -0.91698,-0.1376 -1.22929,-0.20498 l -0.56783,-0.12251 -0.29206,-1.67717 c -0.3816,-2.1913 -0.37413,-2.29232 0.17095,-2.31206 0.35475,-0.0128 0.32382,-0.0727 -0.13229,-0.25606 -0.43108,-0.17327 -0.58668,-0.44237 -0.56401,-0.97542 l 0.0313,-0.73613 0.16714,0.66146 c 0.19213,0.7604 1.35776,1.11539 1.35776,0.41351 0,-0.53354 0.42574,-0.5355 0.63012,-0.003 0.0867,0.22584 0.0523,0.34558 -0.0763,0.2661 -0.12861,-0.0795 -0.30719,0.0466 -0.39685,0.2803 -0.11383,0.29664 -0.0482,0.38076 0.21751,0.27879 0.40113,-0.15392 1.13694,0.51592 0.86521,0.78765 -0.0872,0.0872 -0.37207,0.063 -0.63301,-0.0538 -0.74077,-0.33166 -1.40087,-0.33888 -1.39642,-0.0153 0.006,0.42578 0.32107,0.82979 0.88982,1.14049 0.33058,0.18059 0.39702,0.33329 0.19844,0.45603 -0.16421,0.10148 -0.29856,0.0584 -0.29856,-0.0957 0,-0.15411 -0.11907,-0.2802 -0.26459,-0.2802 -0.33025,0 -0.33809,0.79702 -0.0129,1.3111 l 0.24357,0.38505 0.99496,-0.70792 c 0.54722,-0.38936 1.05113,-0.65175 1.11978,-0.5831 0.2621,0.26211 -0.59401,1.42503 -1.12613,1.52973 -0.35881,0.0706 -0.25104,0.1226 0.30208,0.14578 0.47294,0.0198 0.85989,-0.0901 0.85989,-0.24417 0,-0.15411 0.11906,-0.20661 0.26459,-0.11668 0.14552,0.0899 0.26458,0.0176 0.26458,-0.16077 0,-0.17836 0.0623,-0.26196 0.13852,-0.18578 0.24885,0.24885 -0.16456,0.95348 -0.61984,1.05648 -0.2446,0.0553 -0.74238,0.0635 -1.10618,0.0181 z m 0,-3.88746 c 0,-0.0642 -0.11906,-0.19026 -0.26458,-0.2802 -0.14553,-0.0899 -0.26459,-0.0374 -0.26459,0.11668 0,0.15411 0.11906,0.2802 0.26459,0.2802 0.14552,0 0.26458,-0.0525 0.26458,-0.11668 z m 1.62927,1.7042 c 0,-0.36381 0.0601,-0.51264 0.13346,-0.33073 0.0734,0.1819 0.0734,0.47955 0,0.66145 -0.0734,0.18191 -0.13346,0.0331 -0.13346,-0.33072 z m -14.55208,-1.32292 c 0,-0.3638 0.0601,-0.51263 0.13345,-0.33073 0.0734,0.1819 0.0734,0.47956 0,0.66146 -0.0734,0.1819 -0.13345,0.0331 -0.13345,-0.33073 z m 14.15753,-0.17639 c -0.097,-0.097 -0.17639,-0.29942 -0.17639,-0.44979 0,-0.16579 0.12324,-0.15017 0.31309,0.0397 0.1722,0.1722 0.25158,0.3746 0.17639,0.44979 -0.0752,0.0752 -0.21608,0.0573 -0.31309,-0.0397 z m -0.78029,-1.3274 c -0.12044,-0.20373 0.22649,-1.40667 0.40568,-1.40667 0.14511,0 0.0326,1.31217 -0.12615,1.4709 -0.0835,0.0835 -0.20928,0.0546 -0.27953,-0.0642 z m -12.97862,-0.52528 c -0.0973,-0.0973 0.0169,-0.39116 0.25379,-0.65295 0.33734,-0.37275 0.55263,-0.41728 0.99276,-0.20531 l 0.56201,0.27067 -0.46595,-0.37664 -0.46596,-0.37664 0.42844,-0.35558 0.42844,-0.35557 0.36825,0.5036 c 0.42828,0.58571 0.48668,1.03606 0.10366,0.79934 -0.14552,-0.0899 -0.26459,-0.0565 -0.26459,0.0742 0,0.13075 -0.30325,0.3759 -0.6739,0.54478 -0.77405,0.35268 -1.01919,0.37785 -1.26695,0.13009 z m 5.29494,-1.07021 c -0.10031,-0.1623 -0.0328,-0.3554 0.15,-0.4291 0.20051,-0.0808 0.14869,-0.14229 -0.13065,-0.15489 -0.25466,-0.0115 -0.46302,0.0982 -0.46302,0.2437 0,0.35455 -1.24532,0.3396 -1.46609,-0.0176 -0.0959,-0.1552 0.0459,-0.4617 0.31512,-0.68109 l 0.48951,-0.39891 -0.57663,0.12227 c -0.43641,0.0925 -0.56769,0.003 -0.53983,-0.36632 l 0.0368,-0.4886 0.85291,0.65055 c 0.4691,0.35779 1.03944,0.65054 1.26743,0.65054 0.48159,0 0.55403,-0.81301 0.11183,-1.2552 -0.2272,-0.22721 -0.1509,-0.263 0.30596,-0.14353 0.41931,0.10965 0.55035,0.0648 0.42125,-0.14406 -0.12535,-0.20283 -0.0371,-0.24554 0.26661,-0.12901 0.29492,0.11317 0.39094,0.0722 0.27401,-0.11704 -0.099,-0.1602 -0.0406,-0.37742 0.12977,-0.48272 0.19347,-0.11957 0.2389,-0.0768 0.12099,0.11401 -0.16547,0.26775 -0.0164,0.34973 0.52394,0.28809 0.0838,-0.01 0.35167,0.20993 0.59531,0.48775 0.24364,0.27782 0.60839,0.44879 0.81054,0.37993 0.22359,-0.0762 0.2952,-0.008 0.18283,0.1737 -0.26104,0.42237 -1.5202,0.3711 -2.17655,-0.0886 -0.68238,-0.47796 -0.89349,-0.29222 -0.86649,0.76236 0.0115,0.44869 0.0809,0.66697 0.15434,0.48507 0.0734,-0.1819 0.25717,-0.33073 0.40839,-0.33073 0.16689,0 0.14644,0.15481 -0.052,0.39396 -0.17983,0.21668 -0.42236,0.335 -0.53897,0.26293 -0.1166,-0.0721 -0.2599,0.0127 -0.31845,0.18832 -0.0764,0.2291 -0.15799,0.23595 -0.28883,0.0242 z m -5.15045,-1.02848 c -0.18764,-0.2036 -0.22444,-0.37019 -0.0818,-0.37019 0.27476,0 0.6725,0.5033 0.51557,0.65238 -0.051,0.0484 -0.24617,-0.0786 -0.4338,-0.28219 z m -2.17239,-0.37023 c 0,-0.14552 0.12609,-0.26458 0.2802,-0.26458 0.15411,0 0.20662,0.11906 0.11668,0.26458 -0.0899,0.14552 -0.21603,0.26458 -0.2802,0.26458 -0.0642,0 -0.11668,-0.11906 -0.11668,-0.26458 z m 1.32292,0.0156 c 0,-0.13694 0.1177,-0.32171 0.26155,-0.41062 0.14999,-0.0927 0.19434,0.0135 0.10399,0.24897 -0.17589,0.45837 -0.36554,0.54223 -0.36554,0.16165 z m 7.15141,-0.005 c -0.21406,-0.13538 -0.32033,-0.31503 -0.23614,-0.39922 0.0842,-0.0842 0.30368,0.0284 0.48776,0.2502 0.38168,0.4599 0.3085,0.50324 -0.25162,0.14902 z m 5.4276,0.008 c -0.0837,-0.13546 -0.0312,-0.32108 0.11668,-0.41249 0.14789,-0.0914 0.2689,0.0194 0.2689,0.24631 0,0.46474 -0.15877,0.53317 -0.38558,0.16618 z m -2.06833,-1.32612 c -0.0739,-0.28262 -0.0777,-0.57049 -0.008,-0.63973 0.1977,-0.1977 1.12828,0.69307 0.97803,0.93618 -0.24809,0.40142 -0.83387,0.2223 -0.96953,-0.29645 z m -2.11016,-0.45514 c 0.1819,-0.0734 0.47956,-0.0734 0.66146,0 0.1819,0.0734 0.0331,0.13346 -0.33073,0.13346 -0.3638,0 -0.51263,-0.0601 -0.33073,-0.13346 z m 3.575,-0.60641 c -0.20988,-0.33608 -0.16337,-0.42837 0.21588,-0.42837 0.26587,0 0.43057,0.0528 0.36601,0.11739 -0.0646,0.0646 -0.001,0.25734 0.14069,0.42838 0.17601,0.21208 0.14469,0.31097 -0.0985,0.31097 -0.19611,0 -0.47695,-0.19276 -0.62409,-0.42837 z m 2.88292,-12.18296 c 0,-0.3638 0.0601,-0.51263 0.13346,-0.33073 0.0734,0.1819 0.0734,0.47956 0,0.66146 -0.0734,0.1819 -0.13346,0.0331 -0.13346,-0.33073 z m -13.80011,-0.82105 c -0.50932,-0.29387 -0.68791,-0.44933 -0.39687,-0.34546 0.29104,0.10386 0.91612,0.24325 1.38906,0.30976 0.47294,0.0665 0.8599,0.22696 0.8599,0.35656 0,0.39474 -0.87438,0.24326 -1.85209,-0.32086 z m 3.3073,0.29191 -0.79375,-0.20197 0.71199,-0.0313 c 0.39159,-0.0172 0.78557,0.0878 0.87551,0.23328 0.0899,0.14552 0.12673,0.2505 0.0818,0.23328 -0.045,-0.0172 -0.43895,-0.12219 -0.87551,-0.23328 z m 1.71979,-0.52922 -0.39688,-0.25648 0.44741,-0.004 c 0.24607,-0.002 0.52099,0.11501 0.61093,0.26053 0.20695,0.33486 -0.14331,0.33486 -0.66146,0 z m 1.45521,-0.26458 -0.79375,-0.20197 1.09216,-0.0313 c 0.6007,-0.0172 1.50986,-0.20582 2.02036,-0.41912 0.58065,-0.24261 1.63313,-0.36651 2.81092,-0.33089 1.0355,0.0313 1.73369,0.10462 1.55152,0.16291 -0.18217,0.0583 -0.39074,0.19349 -0.4635,0.30044 -0.0728,0.10696 -0.70474,0.10694 -1.40439,-5e-5 -1.49673,-0.22887 -2.4305,-0.0924 -2.85327,0.417 -0.32923,0.3967 -0.72421,0.41746 -1.96005,0.10299 z m 7.06717,-0.15898 c -0.18764,-0.2036 -0.22443,-0.37019 -0.0818,-0.37019 0.27475,0 0.6725,0.5033 0.51556,0.65238 -0.051,0.0484 -0.24616,-0.0786 -0.4338,-0.28219 z m -17.65051,-0.1055 -0.79375,-0.20198 0.97658,-0.0313 c 0.53711,-0.0172 1.05015,0.0878 1.14009,0.23328 0.18336,0.29669 -0.15695,0.29669 -1.32292,0 z m 1.91823,0.0893 c 0.1819,-0.0734 0.47956,-0.0734 0.66146,0 0.1819,0.0734 0.0331,0.13345 -0.33073,0.13345 -0.3638,0 -0.51263,-0.0601 -0.33073,-0.13345 z m -4.28423,-0.59388 c -0.0815,-0.13195 0.09,-0.1776 0.38126,-0.10144 0.6178,0.16156 0.6959,0.34134 0.14827,0.34134 -0.20969,0 -0.44798,-0.10795 -0.52953,-0.2399 z m 4.08166,-0.22312 c -0.007,-0.77683 1.40662,-3.24279 1.84594,-3.22025 0.22767,0.0117 0.27374,0.0756 0.10451,0.14497 -0.16645,0.0683 -0.24221,0.35517 -0.16836,0.6376 0.0739,0.28243 0.25857,0.43669 0.41047,0.34281 0.17844,-0.11028 0.21589,0.0547 0.10582,0.466 -0.0937,0.35018 -0.17198,0.72258 -0.17397,0.82756 -0.002,0.10498 -0.39056,0.29615 -0.8635,0.42483 -0.47295,0.12867 -0.83013,0.3702 -0.79375,0.53673 0.0364,0.16653 -0.0529,0.30277 -0.19844,0.30277 -0.14552,0 -0.26645,-0.20836 -0.26872,-0.46302 z m 1.428,-1.27051 c 0.0904,-0.23546 0.046,-0.34166 -0.10398,-0.24897 -0.14385,0.0889 -0.26155,0.27369 -0.26155,0.41062 0,0.38058 0.18964,0.29672 0.36553,-0.16165 z m 6.51363,0.54291 c 0,-0.65484 0.11907,-1.19063 0.26459,-1.19063 0.14552,0 0.26458,-0.29765 0.26458,-0.66145 0,-0.68506 0.17323,-0.79557 0.71105,-0.45359 0.46611,0.29638 0.91281,1.64202 0.73307,2.20832 -0.10762,0.33908 -0.0267,0.49422 0.25784,0.49422 0.22809,0 0.41471,0.12134 0.41471,0.26963 0,0.1522 -0.2755,0.20048 -0.6326,0.11085 -0.34792,-0.0873 -0.71214,-0.0301 -0.80936,0.12725 -0.0972,0.15731 -0.40787,0.28602 -0.69032,0.28602 h -0.51356 z m 8.38951,0.76069 c -0.083,-0.083 -0.0864,-0.31927 -0.007,-0.52498 0.0995,-0.25937 0.0129,-0.32386 -0.28281,-0.2104 l -0.42634,0.1636 v -1.88039 c 0,-1.03422 0.10537,-1.8804 0.23416,-1.8804 0.40886,0 1.08876,1.27624 1.08876,2.04372 0,0.44614 0.2043,0.867 0.5151,1.0611 l 0.51511,0.32169 0.4976,-0.63259 c 0.35129,-0.44659 0.60825,-0.56255 0.87395,-0.39439 l 0.37636,0.2382 -0.46302,0.004 c -0.25466,0.002 -0.46302,0.12005 -0.46302,0.26184 0,0.14178 -0.35719,0.44249 -0.79375,0.66825 l -0.79375,0.41046 v -0.41928 c 0,-0.23061 -0.11386,-0.34891 -0.25303,-0.26291 -0.13916,0.086 -0.19058,0.31912 -0.11425,0.51802 0.14534,0.37875 -0.24282,0.77521 -0.50363,0.5144 z m -21.26949,-0.57054 c -0.21932,-0.13947 -0.12087,-0.38282 0.33073,-0.81746 0.35365,-0.34038 0.643,-0.49434 0.643,-0.34214 0,0.15221 -0.11386,0.34711 -0.25302,0.43312 -0.13917,0.086 -0.18596,0.33116 -0.10399,0.54478 0.16085,0.41917 -0.11537,0.50055 -0.61672,0.1817 z m 17.29212,-1.05005 c -0.0703,-0.40018 -0.10591,-1.38151 -0.0791,-2.18074 l 0.0487,-1.45313 0.48631,-0.0936 c 0.28404,-0.0547 0.41611,0.0199 0.31754,0.17941 -0.0928,0.15019 -0.0541,0.72718 0.0859,1.28221 0.14008,0.55502 0.36938,1.46183 0.50955,2.01512 0.29227,1.15364 -0.11409,1.24759 -0.70825,0.16374 l -0.35116,-0.64056 0.15776,0.7276 c 0.0868,0.40019 0.0459,0.72761 -0.0908,0.72761 -0.13673,0 -0.30613,-0.32742 -0.37643,-0.72761 z m -16.57471,-0.77813 c 0.011,-0.28572 1.31157,-2.38887 1.3133,-2.12379 0.003,0.41378 -0.74595,1.98209 -1.02998,2.15763 -0.16037,0.0991 -0.28786,0.0839 -0.28332,-0.0338 z m 18.59386,-0.11312 c -0.19716,-0.23943 -0.22739,-0.526 -0.0805,-0.7636 0.31383,-0.50779 0.59261,-0.19002 0.48365,0.55132 l -0.0875,0.59554 z m -0.56534,-2.0696 -0.27123,-0.77806 0.37764,0.14491 c 0.20771,0.0797 0.37765,0.42984 0.37765,0.77807 0,0.84481 -0.15524,0.79833 -0.48406,-0.14492 z m 4.08862,-0.42278 c -0.25532,-0.66535 -0.18,-0.83703 0.1319,-0.30066 0.15443,0.26558 0.22505,0.5386 0.15693,0.60672 -0.0681,0.0681 -0.1981,-0.0696 -0.28883,-0.30606 z m -14.58477,-0.3867 c -0.0899,-0.14552 0.0746,-0.26458 0.36564,-0.26458 0.29104,0 0.60275,0.11906 0.69269,0.26458 0.0899,0.14552 -0.0746,0.26458 -0.36565,0.26458 -0.29104,0 -0.60275,-0.11906 -0.69268,-0.26458 z m -2.50407,-1.10987 c -0.64577,-0.40819 -1.06091,-0.74399 -0.92253,-0.74621 0.13838,-0.002 0.073,-0.11947 -0.14528,-0.26054 -0.23265,-0.15034 -0.26784,-0.25815 -0.085,-0.26053 0.1715,-0.002 0.49467,0.1788 0.71815,0.40228 0.22348,0.22347 0.49987,0.43183 0.61421,0.46302 0.11434,0.0312 0.17955,0.1417 0.14492,0.24561 -0.0346,0.1039 0.0844,0.13578 0.26458,0.0708 0.18016,-0.0649 0.62521,0.11214 0.98901,0.39351 l 0.66146,0.51158 -0.53267,-0.0387 c -0.29297,-0.0213 -1.06103,-0.37267 -1.70681,-0.78086 z m 7.57079,0.44058 c 0.0989,-0.25778 0.33851,-0.34662 0.6598,-0.24465 0.33447,0.10616 0.47995,0.0441 0.43169,-0.18427 -0.04,-0.18941 0.19509,-0.38526 0.52252,-0.43521 0.32742,-0.05 0.59531,0.0445 0.59531,0.20998 0,0.18632 -0.21403,0.23289 -0.5623,0.12235 -0.37888,-0.12025 -0.50315,-0.0828 -0.38096,0.11496 0.10572,0.17105 -0.10832,0.40356 -0.51325,0.55751 -0.9036,0.34355 -0.93628,0.33744 -0.75281,-0.14067 z m -10.49073,-0.7576 c 0,-0.0572 0.18478,-0.17489 0.41061,-0.26155 0.23546,-0.0904 0.34167,-0.046 0.24897,0.10398 -0.15538,0.25141 -0.65958,0.37186 -0.65958,0.15757 z m 6.82956,-0.34134 c 0.19099,-0.0764 0.41919,-0.067 0.50711,0.0209 0.0879,0.0879 -0.0684,0.15045 -0.34726,0.13896 -0.30823,-0.0127 -0.37092,-0.0754 -0.15985,-0.15985 z m 6.13502,-0.0323 c 0,-0.11941 0.35719,-0.55932 0.79375,-0.97757 0.43656,-0.41826 0.79375,-0.6121 0.79375,-0.43077 0,0.18134 0.12101,0.25492 0.2689,0.16351 0.1479,-0.0914 0.20548,-0.26879 0.12798,-0.3942 -0.0775,-0.12541 -0.002,-0.31418 0.16885,-0.41948 0.18464,-0.11411 0.23916,-0.0772 0.13496,0.0914 -0.0961,0.15557 -0.0619,0.3228 0.0761,0.37161 0.138,0.0488 -0.33751,0.47661 -1.05668,0.95067 -0.71917,0.47406 -1.30759,0.76423 -1.30759,0.64481 z m -7.89566,-0.84528 c -0.32277,-0.43657 -0.54343,-0.79375 -0.49037,-0.79375 0.0531,0 0.41473,0.35718 0.80371,0.79375 0.38898,0.43656 0.60965,0.79375 0.49037,0.79375 -0.11928,0 -0.48095,-0.35719 -0.80371,-0.79375 z m -4.53976,0.41016 c 0,-0.0563 0.47625,-0.59808 1.05834,-1.20391 l 1.05833,-1.10152 v 0.55076 c 0,0.30794 -0.17131,0.55076 -0.38857,0.55076 -0.25042,0 -0.33562,0.16462 -0.23962,0.46302 l 0.14894,0.46302 -0.27531,-0.38946 -0.27531,-0.38946 -0.16698,0.43515 c -0.14502,0.37791 -0.91982,0.90154 -0.91982,0.62164 z m 3.57375,-1.73008 c -0.0927,-0.14998 0.0135,-0.19434 0.24897,-0.10398 0.45837,0.17589 0.54223,0.36553 0.16165,0.36553 -0.13693,0 -0.32171,-0.11769 -0.41062,-0.26155 z m -1.0602,-1.06136 c 0.72826,-0.31295 0.98716,-0.31295 0.79375,0 -0.0899,0.14552 -0.42439,0.25621 -0.74322,0.24598 l -0.5797,-0.0186 z m 10.09595,-0.38322 c -0.0981,-0.25575 -0.02,-0.33461 0.23475,-0.23686 0.21004,0.0806 0.31601,0.25313 0.2355,0.3834 -0.20279,0.32811 -0.2997,0.29791 -0.47025,-0.14654 z m -8.69035,-0.0619 c 0.19099,-0.0764 0.41919,-0.067 0.50711,0.0209 0.0879,0.0879 -0.0684,0.15045 -0.34726,0.13897 -0.30823,-0.0127 -0.37092,-0.0754 -0.15985,-0.15986 z"
         id="path10267"
         sodipodi:nodetypes="ssssssssssssssssssscssssssssscsssscssssssssssssssscsssssssscsscssssssssscccsssscssssscsssssssssssssssssssssssscssssssssssssssssssssssssssscsssssscssssscssssscccsssssscsscssssssscsssssssccscsscsscssssssssssssscsssssssccccscsssssscccsssscssssssssssssssssssssssssssscssssssscssssscccssssssssscsssssscsscssssscssssssssccccssssssscccccccssssssscsssssssssscscccsssssssssssssssssssssssscsssccsccsssssssssscccssscccccssscssssscsscsssscsscscccscssssssscccsssssssssscscscsscsssssscsssscccsccccsccccscccccccccsssscscscscccscsssscsssssssscssssscsssssssssccsssssssssssssssssssssssssscccccsssssssssssscsscssssssssscsscsssssssssssssssssssssssssssssssccsccssssssscssssssssssssccssssccccsscccsssssssscsssssscsssssssssssssssssssssssssssssssssssscsccscsssscssccsscsssccsssssssscssssscssssscsssssscsscssssssssssssscscssssscsssssssssssssssssssssssssscsssssssssssscssscccssssssssscssssssssss" /></g><path
       id="path1-8"
       style="fill:none;fill-opacity:1;stroke:#000000;stroke-width:0.05;stroke-dasharray:none;stroke-opacity:1"
       d="m 11.994093,1.1920328 -1.004073,0.987537 -1.0040727,0.988053 -0.09457,1.387512 c -0.100384,1.474602 0.09024,2.287845 0.7276037,3.1078207 0.204017,0.2624677 0.399927,0.7090517 0.435632,0.9921864 l 0.06511,0.5146977 -0.833024,0.193786 c -0.4601827,0.107 -0.9245534,0.3469617 -1.0386964,0.5369177 -0.113588,0.1890197 -0.4402967,0.5378157 -0.7260527,0.7751467 -0.2857637,0.23733 -0.5198647,0.512414 -0.5198647,0.611332 0,0.250133 -0.7082927,0.803638 -1.6055867,1.254187 -0.920605,0.462266 -0.878742,0.400704 -1.612305,2.351278 -0.60561,1.61034 -0.453624,2.103479 -0.188619,2.113049 0.226375,0.0082 0.060644,0.328011 0.055294,0.420646 l -0.233572,0.619084 c -0.586009,1.727407 -2.214065,12.96448 -2.807064,14.15366 -0.32753,0.65682 -0.425224,0.29659 0.058911,0.90123 0.22019,0.27495 0.254401,0.68013 0.162264,1.91358 l -0.116789,1.56477 0.607715,0.65887 c 0.334378,0.36223 0.69821,0.84624 0.808219,1.0759 0.115558,0.24124 0.408207,0.44799 0.693498,0.4899 l 5.17e-4,5.1e-4 c 0.951641,0.13971 1.110302,0.12396 1.331185,-0.12919 0.244476,-0.28019 0.652291,-3.54617 0.523482,-4.19251 -0.0602,-0.30194 0.0082,-0.40411 0.270785,-0.40411 0.19342,0 0.319732,-0.12469 0.351916,-0.26975 0.350922,-1.58175 1.123069,-8.9512 1.129647,-8.6589 0.0365,1.62102 -0.098274,2.48703 0.01344,2.98431 0.05663,0.25221 0.14625,0.43484 0.235644,0.94413 0.0367,0.20891 0.2347647,0.36036 0.149862,0.51625 -0.26342,0.48364 -1.28606,5.19929 -1.617989,7.08949 -0.173561,0.98837 -0.48416,2.52405 -0.690397,3.41271 -0.207808,0.89541 -0.391583,2.41749 -0.411862,3.41426 l -0.03669,1.79834 1.025777,0.01137 1.025261,0.01137 -0.011369,2.03657 0.078548,2.63291 -0.305408,0.16278 c -0.395323,0.21043 -0.385749,0.50978 0.072864,2.21537 0.226489,0.84231 0.457463,2.58792 0.573609,4.33875 l 0.194303,2.92954 -0.306441,0.56276 c -0.168384,0.30969 -0.264727,0.71269 -0.214457,0.89555 0.101886,0.37058 -1.407321,1.08779 -1.891875,1.08779 -0.153025,0 -0.345817,0.10564 -0.428914,0.23461 -0.0831,0.12896 -0.470983,0.41913 -0.861963,0.64492 -1.262459,0.72908 -1.337002,1.44784 -0.253731,1.82676 v 2.73627 H 23.739117 v -2.96933 h -0.24288 c 0.262947,-0.48881 0.169237,-1.12838 -0.261482,-2.78277 -0.293111,-1.12578 -0.380164,-1.80627 -0.275953,-2.15646 0.08373,-0.28139 0.133422,-1.36051 0.110071,-2.3983 -0.02328,-1.03778 0.242492,-1.61738 0.375171,-3.19877 0.132688,-1.58139 0.285602,-3.4855 0.339514,-4.23127 l 0.09767,-1.35547 -0.494027,-0.21446 c -0.653451,-0.28319 -0.675889,0.85734 -0.735872,-0.77411 -0.02728,-0.74128 -0.113035,-1.67952 -0.19017,-2.08515 l -0.140043,-0.73742 0.633553,-0.13953 c 0.348565,-0.0767 0.76139,-0.14935 0.917257,-0.16123 0.33779,-0.0257 0.336177,-0.06182 -0.171049,-3.13727 -0.394638,-2.39285 -0.513332,-4.24197 -0.227376,-3.54811 0.257537,0.62489 0.754251,0.49717 0.881083,-0.22634 0.09771,-0.55738 0.164509,-0.83569 0.205672,-0.84749 2.72e-4,-6e-5 0.0013,-4.9e-4 0.0016,-5.2e-4 2.68e-4,-10e-6 0.0013,-2e-5 0.0016,0 5.26e-4,8e-5 0.0021,8.6e-4 0.0026,0.001 0.02517,0.01085 0.03995,0.13504 0.04599,0.36949 0.0077,0.29652 -0.07638,0.84787 -0.186552,1.22525 -0.232029,0.79476 -0.0072,1.20096 0.665075,1.20096 0.500006,0 1.005271,-0.50678 1.680518,-1.68517 0.558822,-0.97521 0.627359,-1.79438 0.285771,-3.41219 l -0.216525,-1.02423 0.405143,-0.41031 c 0.424201,-0.42949 0.579148,-1.79102 0.227377,-1.99781 l -0.690397,-2.3425 c -0.06391,-0.29651 -0.270291,-1.14542 -0.45837,-1.8867 -0.188079,-0.74127 -0.44075,-1.8332 -0.561206,-2.42621 -0.120457,-0.59303 -0.604855,-2.54953 -1.07642,-4.348056 l -0.857312,-3.270085 0.399458,-0.483174 c 0.405884,-0.490792 0.538376,-1.153418 0.230477,-1.153418 -0.09305,0 -0.334035,-0.303226 -0.535368,-0.673861 -0.201331,-0.370643 -0.592691,-1.09001 -0.869714,-1.598352 l -0.503849,-0.923975 -1.251087,-0.476456 c -0.688133,-0.262026 -1.502064,-0.715564 -1.809191,-1.007691 -0.307128,-0.292128 -0.648629,-0.5312337 -0.75861,-0.5312337 -0.109981,0 -0.398204,-0.20372 -0.640788,-0.4526847 C 17.847893,9.1156646 17.39146,8.8633289 17.076584,8.8034239 16.432036,8.6808089 16.309996,8.1849612 16.770143,7.5600895 c 0.146163,-0.19848 0.324548,-0.7365217 0.396875,-1.1952757 0.159124,-1.009274 -0.211048,-3.273787 -0.583427,-3.567741 -0.147448,-0.116394 -0.268201,-0.363751 -0.268201,-0.54932 0,-0.185569 -0.116008,-0.336931 -0.257865,-0.336931 -0.14185,0 -0.47425,-0.161989 -0.738456,-0.359668 -0.383733,-0.287102 -0.766699,-0.359151 -1.902727,-0.359151 z m 3.15898,44.5295832 c 0.138175,-0.0055 0.346065,0.02055 0.561723,0.07493 0.720625,0.18189 1.03252,0.74086 1.476913,2.64583 0.503333,2.1576 0.308527,0.7257 -0.04238,1.09451 l -0.324011,0.34003 0.855761,2.39934 c 0.652312,1.82914 0.910414,2.3852 1.086239,3.95841 0.131004,1.17211 0.165538,1.13012 0.311609,1.29501 0.177438,0.20032 0.218668,0.51972 0.132808,1.03043 -0.09334,0.55521 -0.04085,0.86139 0.209807,1.22525 l 0.333829,0.48524 -0.112137,2.11977 -0.111622,2.11976 0.232028,0.15658 H 8.0408472 c 0.07061,-0.02058 0.137723,-0.04059 0.201021,-0.05994 0.5407867,-0.16532 1.0280174,-0.33331 1.2257644,-0.33331 0.4726197,0 1.7035014,-0.14005 1.8805054,-0.38499 0.07636,-0.10565 0.140166,-0.73508 0.141593,-1.39888 0.0015,-0.74071 0.12206,-1.44456 0.311609,-1.82263 0.24472,-0.48812 0.267076,-0.73119 0.106453,-1.16944 -0.139701,-0.3812 -0.143439,-0.73606 -0.01137,-1.14205 0.43314,-1.33146 0.716527,-2.60559 0.722953,-3.24941 0.0036,-0.37595 0.261873,-1.61806 0.573608,-2.76004 0.311734,-1.14198 0.566891,-2.15008 0.566891,-2.24069 0,-0.0906 -0.223798,-0.24617 -0.497644,-0.3452 l -0.498161,-0.17983 0.03979,-1.79731 c 0.07113,-0.66022 0.215081,-1.29893 0.319877,-1.41904 0.104809,-0.1201 0.546723,-0.2749 0.982369,-0.34416 0.435639,-0.0692 0.834784,-0.18338 0.886767,-0.25373 0.0195,-0.0264 0.07729,-0.04114 0.160197,-0.04444 z" /></g><style
     id="style1">
		tspan { white-space:pre } 
		.s0 { fill: none;stroke: #ff0000;stroke-miterlimit:100 } 
	</style></svg>
