<?xml version="1.0" encoding="UTF-8" standalone="no"?>
<svg
   version="1.2"
   viewBox="0 0 113.38583 113.38583"
   width="30mm"
   height="30mm"
   id="svg1"
   sodipodi:docname="CertReminderTokenLaser.svg"
   inkscape:version="1.4.2 (2aeb623e1d, 2025-05-12)"
   xml:space="preserve"
   xmlns:inkscape="http://www.inkscape.org/namespaces/inkscape"
   xmlns:sodipodi="http://sodipodi.sourceforge.net/DTD/sodipodi-0.dtd"
   xmlns="http://www.w3.org/2000/svg"
   xmlns:svg="http://www.w3.org/2000/svg"><sodipodi:namedview
     id="namedview1"
     pagecolor="#ffffff"
     bordercolor="#666666"
     borderopacity="1.0"
     inkscape:showpageshadow="2"
     inkscape:pageopacity="0.0"
     inkscape:pagecheckerboard="0"
     inkscape:deskcolor="#d1d1d1"
     inkscape:zoom="4.2505537"
     inkscape:cx="36.936364"
     inkscape:cy="65.991403"
     inkscape:window-width="1920"
     inkscape:window-height="940"
     inkscape:window-x="0"
     inkscape:window-y="0"
     inkscape:window-maximized="1"
     inkscape:current-layer="layer2"
     showgrid="false"
     inkscape:document-units="mm"
     showguides="false" /><defs
     id="defs1"><clipPath
       clipPathUnits="userSpaceOnUse"
       id="cp1"><path
         d="m 275.5,535.5 c -143.78,0 -260,-116.22 -260,-260 0,-143.78 116.22,-260 260,-260 143.78,0 260,116.22 260,260 0,143.78 -116.22,260 -260,260 z"
         id="path1" /></clipPath></defs><style
     id="style1">
		tspan { white-space:pre } 
		.s0 { fill: none;stroke: #ff0000;stroke-miterlimit:100 } 
	</style><g
     inkscape:groupmode="layer"
     id="layer2"
     inkscape:label="Content"
     style="display:inline"
     transform="scale(0.1989225)"><g
       inkscape:groupmode="layer"
       id="layer3"
       inkscape:label="Kruh"
       transform="scale(5.0270836)"><path
         id="path2"
         style="fill:none;stroke:#000000;stroke-width:0.949978"
         inkscape:label="vnejsi kruh"
         d="M 569.5184,284.99338 A 284.52502,284.52502 0 0 1 284.99338,569.5184 284.52502,284.52502 0 0 1 0.46835327,284.99338 284.52502,284.52502 0 0 1 284.99338,0.46835327 284.52502,284.52502 0 0 1 569.5184,284.99338 Z"
         transform="scale(0.19892249)" /><path
         id="path2-9"
         style="fill:none;stroke:#000000;stroke-width:0.815568"
         inkscape:label="vnitrni kruh"
         transform="scale(0.19892249)"
         d="M 529.26178,284.99338 A 244.2684,244.2684 0 0 1 284.99338,529.26178 244.2684,244.2684 0 0 1 40.724976,284.99338 244.2684,244.2684 0 0 1 284.99338,40.724976 244.2684,244.2684 0 0 1 529.26178,284.99338 Z" /></g><path
       style="display:inline;opacity:1;baseline-shift:baseline;overflow:visible;enable-background:accumulate;stop-color:#000000;stop-opacity:1;stroke-width:0.95000006;stroke-dasharray:none;fill:none;stroke:#000000;stroke-opacity:1"
       d="m 287.27344,65.613281 c -7.47726,10.039513 -10.86349,16.393137 -18.77523,25.953652 -6.7812,11.419927 -18.70656,26.691697 -16.73214,39.570227 5.0184,2.40775 18.8387,-3.72477 20.39225,0.40751 -1.19054,24.2623 -2.89688,48.59707 -1.10888,72.8743 -2.11761,11.48908 -1.92641,21.35858 -1.45886,31.31035 2.0584,12.44646 -14.33928,-0.0103 -17.92687,-4.71819 -12.07729,-14.78566 -15.7627,-42.40354 -18.4944,-51.47341 -2.98363,-8.33212 -7.14496,-19.01717 -8.47437,-22.34932 3.55855,-1.74234 19.53107,-5.61847 18.68787,-8.58268 -11.97195,-11.12307 -26.39204,-19.00137 -40.07233,-27.74334 -8.4022,-4.2578 -17.82204,-5.59816 -27.06639,-6.72366 -2.69111,25.21951 -0.46123,51.07032 6.50586,75.45899 6.30633,-4.73159 12.38945,-9.81585 19.17383,-13.85938 6.5972,10.65844 7.02131,23.04277 7.34918,34.80667 2.32075,20.13618 9.47972,40.33525 22.30357,56.19583 9.39912,10.2461 22.8448,15.92777 36.39221,18.05992 3.60582,7.95241 -2.22494,20.75096 5.47329,26.46075 9.6003,4.75217 19.89917,-2.47092 29.76005,0.97446 3.12585,-3.82854 -0.71801,-15.52377 0.1677,-21.88248 -0.42333,-10.53927 17.74164,-5.36921 24.26482,-12.82312 22.67277,-12.36087 33.47249,-38.41679 35.87963,-63.03064 2.78006,-11.00167 3.58952,-27.15357 12.48585,-33.51151 5.31769,4.36774 11.05565,8.16592 16.72266,12.05469 1.14114,-12.56075 2.73976,-24.63337 5.51658,-36.51283 2.57029,-13.17356 3.51524,-26.57315 4.50096,-39.93639 -14.07739,4.63135 -27.86188,10.26315 -41.97726,14.60326 -13.62288,6.13245 -26.08107,14.47943 -37.52078,24.03151 7.93933,3.3357 15.91854,6.63939 24.35156,8.5332 -6.26914,7.94688 -9.93827,19.37641 -11.35646,27.27639 -4.02529,15.01662 -7.72667,31.42148 -19.63963,42.34861 -5.60076,7.03702 -16.38169,12.49158 -12.70859,-1.01459 -0.22626,-34.20956 -0.0803,-68.41998 -0.10785,-102.62994 6.70879,-0.11707 13.378,0.55054 20.0293,1.34179 -2.94105,-14.89944 -11.28601,-27.78577 -17.45727,-41.435962 -5.36131,-8.742407 -12.97451,-15.819177 -19.07986,-24.034667 z"
       id="path4"
       sodipodi:nodetypes="cccccccccccccccccccccccccccccccccccc"
       inkscape:label="znak" /><path
       id="path6"
       style="font-size:133px;font-family:'New Rocker';-inkscape-font-specification:'New Rocker';letter-spacing:2.02104px;baseline-shift:baseline;white-space:pre;display:inline;overflow:visible;opacity:1;fill:none;stroke:#000000;stroke-width:0.95;stroke-dasharray:none;stroke-opacity:1;enable-background:accumulate;stop-color:#000000;stop-opacity:1"
       d="m 440.38873,339.69206 v 12.99972 c -0.53294,0.0455 -1.06411,0.0843 -1.60042,0.11782 l -4.19251,0.2651 v 9.34724 l 3.31866,0.88366 c 0.8944,0.23851 1.28085,0.52304 1.26659,0.51057 l 0.216,0.19637 0.20619,0.12764 v 0.01 c 0.0305,0.0437 0.11055,0.15781 0.21601,0.43201 0.17619,0.4581 0.4256,1.60645 0.50075,3.25975 v 0.0982 l 0.01,0.108 c 0.15855,1.74413 0.25529,4.11276 0.25529,7.03988 v 15.16962 l -7.68791,3.35793 -1.73788,-1.3255 v -21.99349 -5.95984 -0.0196 c 0.0795,-1.57331 0.12363,-3.05028 0.12764,-4.42815 0.0843,-1.34652 0.17133,-2.60954 0.25529,-3.78995 0.17492,-1.23665 0.34791,-2.56947 0.52038,-4.03541 l 0.9033,-7.68791 1.4826,1.20768 2.84737,-2.84737 c 0.99631,-0.99631 2.03076,-2.01348 3.09284,-3.04374 z m -153.56949,14.55057 -3.86849,-0.92294 c -3.57865,-0.85206 -6.83097,-1.78698 -9.75962,-2.78846 -2.90406,-1.08132 -5.06709,-2.10939 -6.31331,-2.89647 l -4.66379,-2.94555 -1.91462,5.17436 c -0.61138,1.65434 -1.32884,3.09963 -1.98334,4.67361 v -0.23564 l -4.73253,-7.89409 -3.21065,0.80512 c -2.76669,0.69167 -5.94944,1.43379 -9.52397,2.21898 -3.5546,0.69289 -6.83636,1.25015 -9.83816,1.67897 l -3.83904,0.54984 v 8.26719 l 4.9289,2.13062 v 24.84086 H 214.4169 c 0.23571,-2.65513 0.74044,-5.31617 1.52187,-8.00209 1.25751,-4.01344 2.62452,-7.27427 4.00596,-9.73016 l 1.18804,-2.11098 -1.11932,-2.15026 c -2.12254,-4.07528 -3.70682,-7.78675 -4.76198,-11.11456 -1.03255,-3.2565 -1.52187,-6.30053 -1.52187,-9.16069 0,-2.57758 0.12898,-5.05612 0.3731,-7.44244 0.31628,-2.34832 0.82713,-4.54539 1.51206,-6.61768 0.731,-1.9572 1.73609,-3.81267 3.07319,-5.59656 1.36275,-1.78922 3.17416,-3.51107 5.5082,-5.1449 l -3.24994,-8.07083 c -2.83006,0.4422 -5.78961,0.92452 -8.87594,1.45314 -3.06605,0.43794 -6.22345,0.87749 -9.46506,1.31568 -3.18774,0.34405 -6.37579,0.64402 -9.56324,0.90331 -3.19746,0.1724 -6.26127,0.2651 -9.18032,0.2651 h -1.72806 c -0.0359,0 -0.20409,-0.0135 -0.50074,-0.0982 l -4.09432,7.71736 c 1.91198,1.60606 3.34935,3.24996 4.39869,4.9289 l 0.0393,0.0589 0.0393,0.0491 c 0.89246,1.33869 1.69967,3.29961 2.49391,5.30201 l -17.45734,35.43504 -21.56147,-37.1631 c 0.0414,-0.4445 0.0585,-0.8529 0.16691,-1.38442 0.28482,-0.96867 0.61846,-1.89472 1.03095,-2.78846 0.43123,-0.93434 0.89098,-1.7656 1.36477,-2.52336 0.47418,-0.63398 0.92926,-1.11331 1.31568,-1.41386 l 12.22407,-9.50433 -15.41509,1.5415 c -0.74004,0.074 -1.47133,0.10801 -2.20916,0.10801 h -2.53318 c -3.56931,0 -6.79572,-0.17131 -9.69088,-0.50075 -3.02773,-0.43318 -5.84779,-0.8652 -8.43411,-1.29604 l -0.0196,-0.01 c -2.50041,-0.43101 -4.83659,-0.80989 -7.01043,-1.15859 l -0.0884,-0.0196 c -0.0338,-0.007 -0.0645,-0.0128 -0.0982,-0.0196 h -0.0196 c -2.29269,-0.46583 -4.47722,-0.71674 -6.55877,-0.71675 -1.49613,10e-6 -2.94305,0.16027 -4.33979,0.57929 l -8.709025,2.61173 7.393345,5.29218 c 4.94613,3.54473 8.58581,7.31569 11.05566,11.25203 l 0.0295,0.0393 0.0196,0.0491 c 2.45109,3.71378 3.65249,7.7613 3.65249,12.5677 0,5.57581 -1.88627,12.36646 -6.00893,20.27525 l -1.2175,2.34663 1.46296,2.19935 c 1.87397,2.81096 3.15245,5.65532 3.90777,8.60103 l 0.0196,0.0589 0.01,0.0491 c 0.86165,3.05496 1.29604,6.22904 1.29604,9.56324 0,3.59311 -0.48099,7.13437 -1.44332,10.66292 l -0.01,0.0393 -0.01,0.0491 c -0.90198,3.60792 -2.16966,7.13957 -3.8194,10.60401 l -0.01,0.0196 -0.01,0.0196 c -1.5676,3.38272 -3.42075,6.54605 -5.55728,9.50433 l -0.0196,0.0196 -0.01,0.0294 c -2.15637,3.06868 -4.46124,5.76992 -6.90242,8.12974 l 4.41833,7.48171 c 3.66049,-1.1263 6.91401,-2.4061 9.77925,-3.88813 2.8015,-1.44904 5.32084,-3.07591 7.54063,-4.88962 2.24199,-1.76141 4.19316,-3.71319 5.8322,-5.84203 0.58508,-0.69123 1.04435,-1.5131 1.5906,-2.24844 0.45395,0.35119 1.0367,0.82663 1.45314,1.13895 l 0.0491,0.0393 0.0589,0.0393 c 1.63089,1.15121 3.19277,2.1394 4.72271,2.95537 l 0.0589,0.0295 0.0491,0.0196 c 1.55179,0.7759 3.11204,1.4628 4.68343,2.05207 l 0.0393,0.01 0.0491,0.0196 c 1.63688,0.57772 3.46487,1.1342 5.49837,1.68879 l 13.68702,3.74086 -9.08213,-10.89856 c -1.64021,-1.96825 -3.0092,-3.86526 -4.11396,-5.67511 -1.02316,-1.75957 -1.90402,-3.84617 -2.61173,-6.28385 -0.69685,-2.40026 -1.23643,-5.37319 -1.57096,-8.88577 -0.33501,-3.51757 -0.51056,-8.01078 -0.51056,-13.4121 v -3.47576 l 17.83043,31.32109 7.54063,1.3255 18.89084,-36.13216 v 6.96133 c 0,2.74432 -0.0838,5.49288 -0.25529,8.23774 v 0.0687 0.0687 c -0.0827,2.64576 -0.33573,5.09083 -0.73638,7.33444 l -0.01,0.0786 -0.01,0.0785 c -0.3052,2.13643 -0.83222,4.00446 -1.54151,5.63584 l -0.0295,0.0687 -0.0294,0.0785 c -0.58284,1.48948 -1.292,2.47442 -2.11098,3.19102 l -5.58674,4.88963 6.94169,2.64118 c 1.45715,0.55511 2.98075,1.3843 4.57543,2.52336 l 0.0589,0.0393 0.0589,0.0393 c 1.65788,1.10525 3.19422,2.3202 4.60488,3.65249 1.38418,1.30729 2.48599,2.60966 3.3383,3.88813 l 0.0393,0.0687 0.0491,0.0687 c 0.96707,1.33903 1.53149,2.44422 1.77715,3.1812 l 3.55431,10.63346 4.73252,-10.15235 c 0.41164,-0.88207 1.12572,-2.01707 2.18953,-3.30884 1.09378,-1.32816 2.37801,-2.68034 3.82923,-4.05505 1.42299,-1.26118 2.96259,-2.45289 4.64416,-3.57394 l 0.0687,-0.0393 0.0589,-0.0491 c 1.70925,-1.2209 3.3916,-2.26 5.05654,-3.13211 l 6.88278,-3.60339 -6.57841,-4.1336 c -2.24225,-1.40941 -4.02795,-3.5289 -5.42964,-6.83369 -0.74938,-1.8832 -1.298,-3.84767 -1.63969,-5.91076 h 17.41806 v 9.87744 c 0,2.02192 -0.30097,3.3964 -0.54984,3.98632 -0.0769,0.18229 -0.11321,0.28846 -0.13746,0.34365 h -0.01 l -2.89646,1.07022 v 9.57306 h 37.38893 v -10.55492 l -3.77031,-0.58911 c -2.06927,-0.32332 -2.92248,-0.87176 -3.16157,-1.08004 -0.17156,-0.31024 -0.64802,-1.536 -0.64802,-3.94704 v -8.67958 h 33.52044 v 20.48144 l 2.47427,1.23714 c 1.35211,0.67606 3.08429,1.58229 5.18418,2.71973 2.06301,1.11747 4.08357,2.28373 6.05802,3.48557 l 2.81792,1.71824 2.47427,-2.19934 c 0.50648,-0.4502 1.43579,-1.14161 2.71973,-1.94407 1.29104,-0.8069 2.67556,-1.57833 4.15323,-2.31717 l 0.0884,-0.0491 0.0884,-0.0393 c 1.51008,-0.83894 3.06435,-1.63808 4.6638,-2.39572 1.56599,-0.74178 3.0205,-1.35369 4.35942,-1.82624 l 2.97501,-1.05059 v -9.25886 l -4.23178,-0.21601 c -2.38692,-0.12563 -3.97454,-0.84844 -5.53765,-2.39572 -1.03735,-1.09158 -1.85618,-2.88183 -2.03243,-5.95003 h 21.37492 c -0.0179,0.68807 -0.0505,1.49618 -0.108,2.41536 l -0.01,0.13746 v 0.13746 c 0,1.23078 -0.0435,2.56566 -0.12764,3.99614 l -0.01,0.13746 v 0.12764 c 0,1.31979 -0.0357,2.63654 -0.11782,3.95686 -0.0874,1.31029 -0.17899,2.48172 -0.2651,3.51503 l -0.3142,3.81941 3.73104,0.89349 c 3.81919,0.91328 7.49983,2.15551 11.06548,3.73103 3.59583,1.58886 6.52759,3.23785 8.76794,4.86017 l 1.1684,0.8444 h 4.30052 l 18.78283,-14.54124 4.59507,-14.03067 h 13.81466 c -0.23387,2.03709 -0.4994,3.81969 -0.78548,5.32164 l -0.0196,0.0786 -0.01,0.0884 c -0.13895,0.92633 -0.51487,1.68857 -0.54983,1.83606 v 0.01 0.01 h 0.01 v -0.01 h 0.01 l -2.76882,3.47576 4.6147,2.57245 c 1.52849,0.84917 2.87388,1.64201 4.01578,2.37608 l 0.14728,0.0982 0.15709,0.0884 c 1.15733,0.61724 2.28191,1.31573 3.36776,2.09134 l 0.0589,0.0393 0.0589,0.0393 c 1.15854,0.77235 2.34295,1.67839 3.54449,2.71973 l 0.11782,0.0982 0.12764,0.0982 c 1.27579,0.95684 2.77726,2.20105 4.47725,3.73104 l 1.36477,1.22731 c -1.81517,-0.91961 -3.64016,-1.85056 -5.302,-2.54299 l -0.0491,-0.0196 -0.0393,-0.0196 c -2.21201,-0.86557 -3.85497,-1.44744 -5.75365,-1.62005 l -2.02262,-0.18656 -1.46296,1.40405 c -2.44916,2.34268 -4.53568,5.23348 -6.31331,8.59121 l -0.0393,0.0687 -0.0295,0.0687 c -1.69373,3.4871 -2.92613,7.28891 -3.70158,11.36003 l -1.00149,5.29218 h 5.39037 c 4.26433,0 8.25741,0.74402 12.0866,2.22881 3.85481,1.49472 8.24749,3.98834 13.06845,7.54062 l 3.02411,2.23863 2.70991,-2.61173 c 1.98873,-1.90918 4.289,-3.72107 6.90242,-5.43946 2.65635,-1.65752 5.34308,-3.10331 8.06101,-4.33979 2.79652,-1.23235 5.52342,-2.20516 8.18865,-2.93574 2.6192,-0.63059 4.96951,-0.93276 7.01042,-0.93276 h 5.64565 l -1.30586,-5.49837 c -0.31407,-1.31909 -0.63367,-4.00757 -0.80512,-7.65845 -0.0865,-3.6619 -0.13746,-8.25104 -0.13746,-13.7852 v -68.40565 l -6.46059,3.23029 c -2.62314,1.31157 -5.88606,2.45429 -9.78906,3.36776 l -0.0196,0.01 h -0.01 c -0.45539,0.1089 -0.90698,0.21465 -1.36477,0.31419 v -19.71559 c 1.26927,-1.1082 2.44735,-2.08231 3.52485,-2.90629 l 0.0589,-0.0491 0.0687,-0.0491 c 1.45048,-1.19451 2.54885,-2.02324 3.09283,-2.3859 l 6.00894,-4.01578 -6.27404,-3.58376 c -0.46047,-0.26312 -1.3433,-0.80669 -2.47427,-1.53169 -1.09354,-0.83888 -2.258,-1.71291 -3.49539,-2.62154 h -0.01 c -1.16546,-0.91587 -2.27837,-1.83761 -3.35793,-2.74919 -0.90699,-0.83631 -1.54815,-1.53071 -1.80661,-1.87534 l -4.32997,-5.77329 -3.23029,6.46059 c -0.72404,1.44809 -1.68352,3.16485 -2.87683,5.12527 l -0.0393,0.0687 -0.0393,0.0589 c -1.1044,1.95395 -2.29354,3.90819 -3.57394,5.87147 l -0.0196,0.0295 -0.01,0.0196 c -1.23428,1.93959 -2.42,3.78728 -3.56412,5.54746 l -0.0491,0.0687 -0.0393,0.0687 c -1.06963,1.78271 -1.9166,3.20987 -2.55281,4.30051 l -1.94407,3.32848 3.01428,2.40554 c 1.16937,0.9355 1.92735,1.71496 2.18954,2.05207 l 0.16691,0.21601 0.19637,0.19637 c 0.90666,0.90666 2.05078,1.89698 3.53467,3.10265 l 1.47278,1.19786 -7.0497,3.24993 c -0.86868,0.40093 -2.26506,0.9368 -4.06487,1.51206 -1.85626,0.50455 -3.89255,1.01082 -6.10712,1.52187 -2.21913,0.51211 -4.42922,0.97627 -6.64714,1.40405 -2.20829,0.33861 -4.2036,0.59063 -5.94021,0.75602 l -3.68194,0.35347 -0.72657,7.94318 2.40553,1.44333 c 0.9171,0.55027 1.50954,1.1094 1.91462,1.64951 l 0.12764,0.16691 0.14727,0.1571 c 0.37023,0.40726 0.8149,1.10938 1.19786,2.25826 l 0.01,0.0393 0.01,0.0393 c 0.3552,1.0064 0.66932,2.51454 0.82476,4.45761 l 0.01,0.0884 0.01,0.0884 c 0.23747,1.97892 0.36329,4.43146 0.36329,7.3148 0,2.56078 -0.0829,5.25583 -0.25528,8.10028 v 0.0687 l -0.01,0.0491 h -11.53676 l 6.67659,-20.37343 -1.79679,-1.93425 c -0.4391,-0.47047 -0.96901,-1.42964 -1.23713,-3.2892 -0.32363,-2.34899 -0.49092,-4.843 -0.49093,-7.49154 v -0.38292 l 6.47041,-9.7007 -11.9786,3.68195 c -3.29845,1.0149 -6.64224,1.86478 -10.02471,2.54299 -3.39088,0.59157 -6.73372,1.01343 -10.02471,1.26659 l -3.8685,0.29456 -0.56948,9.03304 2.74919,1.28623 c 0.45441,0.21384 0.6995,0.39378 1.08004,1.34513 l 0.0393,0.0884 0.0295,0.0884 c 0.34089,0.75752 0.80512,2.9346 0.80512,6.14639 0,2.36605 -0.15755,5.24495 -0.50075,8.59121 -0.33931,3.21978 -0.84843,6.53964 -1.53169,9.95598 l -0.0196,0.0491 v 0.0491 c -0.59251,3.38574 -1.35409,6.6326 -2.2779,9.73997 l -0.01,0.0393 -0.0196,0.0393 c -0.37942,1.3659 -0.84685,2.14107 -1.27641,3.24011 l -0.5302,-0.28474 c 0.026,-1.07621 0.0687,-2.19098 0.0687,-3.22047 v -5.7242 c 0,-9.69624 -0.44097,-18.17886 -1.35495,-25.50852 -0.83941,-7.45307 -2.26852,-13.11532 -5.14491,-17.31006 l -2.71973,-3.96668 -3.75067,3.00447 c -0.38313,0.3065 -1.4486,0.94632 -2.97502,1.63969 -1.62955,0.64913 -3.4359,1.31079 -5.41982,1.97352 -1.92331,0.58465 -3.88977,1.1255 -5.90093,1.62988 l -3.70159,12.26333 c 1.11519,2.29001 2.21569,5.3648 3.11248,9.64179 l 0.01,0.0295 0.01,0.0294 c 0.73179,3.24076 1.24681,7.08506 1.52187,11.49749 h -21.18837 v -16.8584 l 11.53677,1.46296 0.96221,-3.84886 c 0.19509,-0.78036 0.68393,-1.69366 1.07022,-2.56263 l 5.18528,-11.39993 v -2.62154 h -18.75338 v -2.58228 c 0,-0.63263 0.0404,-1.9484 0.12764,-3.78013 v -0.01 c 0.0847,-1.86408 0.21372,-3.77753 0.38293,-5.73401 0.25879,-2.06603 0.5182,-4.00054 0.77566,-5.80275 0.24074,-1.68519 0.56049,-2.85928 0.65784,-3.10265 l 4.54598,-11.36985 -10.80038,5.77329 c -3.68629,1.97173 -7.13007,3.58551 -10.30945,4.84053 -2.90401,1.14631 -6.12029,1.85266 -9.7007,2.09135 l -8.52248,0.56947 4.96818,6.21512 h -0.01 v 0.01 c 0.0161,0.0766 0.27185,0.57931 0.40256,1.27641 l 0.01,0.0295 0.01,0.0196 c 0.23232,1.16161 0.43312,2.53879 0.59893,4.11396 v 0.0196 0.01 c 0.16831,1.51483 0.29884,3.03229 0.38293,4.54598 l 0.01,0.13746 0.01,0.13746 c 0.16784,1.42662 0.23565,2.46102 0.23565,2.79827 v 2.06189 c -1.73891,1.40768 -3.51756,2.56896 -5.33146,3.51503 l -2.47593,11.52742 h 7.80573 v 18.51773 h -33.14733 l 7.74681,-10.91819 9.74979,5.09581 2.31717,-2.66082 c 2.17386,-2.49994 3.87867,-5.50081 5.18418,-8.91522 z m 153.76623,55.78931 v 4.87981 0.0687 c 0.089,3.20577 0.17514,5.88244 0.2651,8.04137 l 0.01,0.0786 v 0.0884 c 0.17639,2.20488 0.30628,3.96558 0.39275,5.26273 l 0.01,0.12764 0.0196,0.12764 c 0.009,0.0713 0.0206,0.12572 0.0295,0.19637 l -4.32997,1.38442 c -1.49602,-1.088 -2.94345,-2.1705 -4.75217,-3.26957 -2.38131,-1.4982 -4.80848,-2.91197 -7.27552,-4.2416 l 2.50372,-2.50373 c 1.35289,-1.35289 2.64948,-2.56917 3.88814,-3.64267 h 0.01 l 0.01,-0.01 c 1.30963,-1.14593 2.70419,-2.26341 4.19251,-3.3383 1.46873,-1.06076 3.12936,-2.13791 4.97799,-3.23029 0.0129,-0.008 0.0358,-0.0119 0.0491,-0.0196 z"
       sodipodi:nodetypes="ccccccccccsccsscccccccccccscccccscccccccccccccccccssccccccccsscccccccccsccccsscccccccsccccccsccccccscccccccccccsccccccccccccccscsssccccsccccccccccccccssccccccsccccccccccssccccccscscccssccsscccscccccccccsccsccccsccccccccccccccccccccccsccccccccccccccccssccccccscccscscccccccccccccccccsccccccccccccccsccccsccccscccccccccscccccccscccccccccccscccccccccssccccccccccccccscccccscccscccsccccccccccccccsccccccccccccccccccccccscccsccccc"
       inkscape:label="text" /></g></svg>
