<?xml version="1.0" encoding="UTF-8" standalone="no"?>
<svg
   version="1.2"
   viewBox="0 0 113.38583 113.38583"
   width="30mm"
   height="30mm"
   id="svg1"
   sodipodi:docname="ReminderTokenLaserTemplate.svg"
   inkscape:version="1.4.2 (2aeb623e1d, 2025-05-12)"
   xml:space="preserve"
   xmlns:inkscape="http://www.inkscape.org/namespaces/inkscape"
   xmlns:sodipodi="http://sodipodi.sourceforge.net/DTD/sodipodi-0.dtd"
   xmlns="http://www.w3.org/2000/svg"
   xmlns:svg="http://www.w3.org/2000/svg"><sodipodi:namedview
     id="namedview1"
     pagecolor="#ffffff"
     bordercolor="#666666"
     borderopacity="1.0"
     inkscape:showpageshadow="2"
     inkscape:pageopacity="0.0"
     inkscape:pagecheckerboard="0"
     inkscape:deskcolor="#d1d1d1"
     inkscape:zoom="3.8578369"
     inkscape:cx="49.380003"
     inkscape:cy="81.392761"
     inkscape:window-width="1920"
     inkscape:window-height="1043"
     inkscape:window-x="0"
     inkscape:window-y="0"
     inkscape:window-maximized="1"
     inkscape:current-layer="layer1"
     showgrid="false"
     inkscape:document-units="mm" /><defs
     id="defs1"><clipPath
       clipPathUnits="userSpaceOnUse"
       id="cp1"><path
         d="m 275.5,535.5 c -143.78,0 -260,-116.22 -260,-260 0,-143.78 116.22,-260 260,-260 143.78,0 260,116.22 260,260 0,143.78 -116.22,260 -260,260 z"
         id="path1" /></clipPath></defs><style
     id="style1">
		tspan { white-space:pre } 
		.s0 { fill: none;stroke: #ff0000;stroke-miterlimit:100 } 
	</style><g
     inkscape:groupmode="layer"
     id="layer1"
     inkscape:label="Template"
     transform="scale(0.1989225)"><g
       id="text4-1-6"
       style="opacity:1;fill:none;stroke:#000000;stroke-opacity:1;stroke-width:0.95000006;stroke-dasharray:none"><path
         id="path6"
         style="font-size:133px;line-height:1;font-family:'New Rocker';-inkscape-font-specification:'New Rocker';letter-spacing:4.32329px;word-spacing:0px;baseline-shift:baseline;white-space:pre;display:inline;overflow:visible;enable-background:accumulate;stop-color:#000000;stop-opacity:1;fill:none;stroke:#000000;stroke-opacity:1;stroke-width:0.95000006;stroke-dasharray:none"
         d="M 335.54801 316.2448 L 332.66137 318.53251 C 330.56676 320.19075 328.2941 321.94296 325.83749 323.78542 C 324.31386 324.91395 322.88859 325.94097 321.43879 326.99608 C 319.92399 325.93523 318.43347 324.89126 316.84373 323.75597 C 314.4186 321.93649 312.21635 320.20955 310.24568 318.5816 L 307.43758 316.27425 L 304.70803 318.66015 C 303.2514 319.9347 302.14611 320.94715 301.31082 321.78244 C 300.8341 322.25916 299.89264 323.11757 298.60091 324.23707 L 295.13497 327.24154 L 298.3849 330.49147 C 301.44505 333.55162 304.64082 336.88652 307.9776 340.48673 L 308.01687 340.526 L 308.04633 340.56528 C 308.40005 340.92806 308.75384 341.28748 309.10673 341.65513 L 309.10673 357.86551 C 307.62787 358.2086 306.07082 358.55413 304.42329 358.91609 C 300.85704 359.6116 297.55799 360.17458 294.54586 360.60488 L 290.87373 361.13508 L 290.87373 369.11754 L 295.80263 371.23834 L 295.80263 406.13337 L 282.59672 406.13337 L 282.59672 400.22262 C 282.59672 395.63936 282.64722 391.81714 282.73418 388.77422 C 282.82138 385.72164 282.90298 383.16365 282.98946 381.0765 C 283.15629 379.08732 283.32379 377.48591 283.48039 376.29488 C 283.71937 375.03793 283.99081 373.86528 284.29532 372.79949 L 285.29681 369.32373 L 282.02724 367.76258 C 280.25752 366.91985 278.72342 366.13607 277.42236 365.40614 C 276.10464 364.58117 274.82796 363.75402 273.59313 362.93187 C 272.48511 362.13881 271.37278 361.25559 270.24502 360.29069 C 269.03349 359.16529 267.69798 357.92235 266.22924 356.54001 L 263.0284 353.52573 L 260.10248 356.81493 C 257.35329 359.90777 254.7083 362.5887 252.18875 364.8563 C 251.14273 365.79772 249.80889 366.75558 248.65409 367.70367 C 246.9416 366.88529 245.44429 366.11721 244.17684 365.40614 C 242.85912 364.58117 241.58245 363.75402 240.34762 362.93187 C 239.2396 362.13881 238.11744 361.25559 236.98968 360.29069 C 235.77815 359.16529 234.44264 357.92235 232.9739 356.54001 L 229.73379 353.49627 L 226.81769 356.8542 C 223.9994 360.09951 221.2539 362.88848 218.58977 365.21959 C 217.94017 365.78527 217.06522 366.38377 216.37078 366.95746 L 216.37078 363.65844 L 211.73644 355.93126 L 208.66324 356.70693 C 205.89886 357.39803 202.71783 358.13203 199.14909 358.91609 C 195.58284 359.6116 192.29361 360.17458 189.28148 360.60488 L 185.60935 361.13508 L 185.60935 369.11754 L 190.52843 371.23834 L 190.52843 406.13337 L 167.62182 406.13337 L 167.62182 406.07446 C 167.62182 403.87874 167.7072 401.63214 167.8771 399.33895 L 167.8771 399.32913 C 168.03764 397.0816 168.3587 394.9359 168.8295 392.87836 C 169.37892 390.85588 170.07336 388.97073 170.91102 387.21308 C 171.78098 385.48035 172.82937 384.00851 174.08241 382.75547 L 177.88217 378.96552 L 173.56202 376.24579 L 173.57184 376.24579 L 173.58166 376.24579 L 173.58166 376.23597 L 173.57184 376.23597 C 173.52949 376.14335 173.07079 375.64622 172.62926 374.76319 C 171.98322 373.47112 171.30451 371.74144 170.65574 369.64774 C 170.08638 367.43713 169.58195 365.00152 169.16333 362.32312 C 168.7536 359.61237 168.55458 356.90678 168.55458 354.2032 L 168.55458 349.71614 C 169.33085 349.40486 170.09639 349.06274 170.84229 348.64592 C 172.79784 347.60335 174.54987 346.19294 176.01666 344.5025 C 177.60572 342.68452 178.84256 340.53923 179.78697 338.14992 C 180.87499 335.62598 181.53159 332.82082 181.82922 329.74526 L 182.42815 323.58905 L 176.45849 325.19929 C 173.3035 326.052 170.52953 326.68008 168.1422 327.09426 C 165.77048 327.41832 163.54953 327.58519 161.48524 327.58519 C 156.80938 327.58519 152.12789 326.82145 147.38584 325.26802 L 141.32781 323.28468 L 141.7991 329.64708 C 142.32673 336.85806 142.71343 343.66315 142.97733 350.06961 C 142.89003 356.67502 142.84969 363.15472 142.84969 369.50046 C 142.84969 375.86467 142.80049 381.7817 142.71223 387.25235 L 142.71223 387.28181 L 142.71223 387.32108 C 142.71223 392.72648 142.54367 397.49301 142.20166 401.59721 L 142.19184 401.63649 L 142.19184 401.68558 C 142.03385 404.21342 141.74401 406.12739 141.426 407.72397 C 138.5411 408.03773 135.7656 408.50091 133.2079 409.30475 L 133.18826 409.31457 L 133.16862 409.31457 C 131.25767 409.93282 129.52346 410.65545 127.87644 411.43537 L 121.03293 403.06017 C 121.38429 394.28034 121.86147 385.65816 122.52534 377.27673 C 123.24424 368.20072 123.59556 358.77847 123.59556 349.00921 L 123.59556 348.59683 L 123.51701 348.19427 C 122.59026 343.46784 121.43484 339.62128 119.83507 336.50041 C 118.34883 333.34121 116.29801 330.68756 113.61994 328.8616 C 111.06488 327.11951 108.0429 326.03675 104.72436 325.51348 C 101.71672 324.95309 98.222974 324.49921 94.169451 324.13889 L 85.038224 323.33377 L 90.281316 330.84494 C 92.676154 334.27754 94.299788 337.78656 95.229851 341.42931 L 95.239669 341.46858 L 95.249488 341.50785 C 96.294164 345.28475 96.83027 349.28112 96.83027 353.53554 C 96.83027 358.28375 96.333105 362.68057 95.357492 366.75128 C 94.413707 370.6028 92.930148 373.74343 90.939157 376.32434 L 88.288155 379.76082 L 91.528268 382.20563 L 91.528268 382.21545 L 91.538086 382.22527 C 91.580728 382.3172 91.873354 382.7205 92.127198 383.48204 L 92.137016 383.52131 L 92.146835 383.55077 C 92.550417 384.69425 92.958672 386.37307 93.285783 388.4993 L 93.305421 388.59749 L 93.315239 388.68586 C 93.711279 390.66606 94.011448 393.01113 94.179269 395.69628 L 94.179269 395.7061 C 94.350138 398.35456 94.434551 401.15046 94.434551 404.0813 C 94.434551 405.22085 94.393096 406.65816 94.30691 408.38181 C 94.22321 409.96611 94.096331 411.31883 93.943624 412.38777 L 93.609795 414.74421 L 95.445858 416.2759 C 99.65475 419.78331 103.44961 423.10734 106.84516 426.2417 L 106.87462 426.25152 L 106.89426 426.28098 C 110.08963 429.14863 112.05538 431.68787 112.92283 433.54669 L 114.92581 437.8472 L 119.00049 435.40239 C 120.4164 434.55284 124.35242 433.04467 130.11506 431.49461 C 135.54688 430.1195 142.76239 429.36399 151.64708 429.36399 C 154.75391 429.36399 158.21585 429.65509 162.02526 430.24766 C 165.75048 430.82714 170.23339 431.88337 175.41773 433.43868 L 181.47575 435.25511 L 180.90628 428.96143 C 180.61206 425.72504 179.96941 422.82805 178.86403 420.26222 C 178.0781 418.27427 177.07489 416.46716 175.82028 414.90131 L 190.52843 414.90131 C 190.5226 416.94677 190.18068 418.26745 189.91968 418.78945 L 189.89023 418.83854 L 189.86077 418.89745 C 189.70989 419.22077 189.61079 419.36493 189.56622 419.41783 L 189.5564 419.41783 L 189.5564 419.42765 L 189.54658 419.42765 L 186.93485 420.50769 L 186.93485 429.62909 L 219.95454 429.62909 L 219.95454 420.38005 L 217.25445 419.37856 C 217.21615 419.30533 217.12986 419.1428 216.99917 418.78945 C 216.67827 417.92183 216.37078 416.14201 216.37078 413.65436 L 216.37078 386.93816 L 224.31397 383.50168 L 224.31397 414.85222 C 224.31397 416.92774 223.95863 418.26298 223.6954 418.78945 L 223.67576 418.83854 L 223.64631 418.89745 C 223.49543 419.22077 223.39632 419.36493 223.35175 419.41783 L 223.34193 419.41783 L 223.33212 419.42765 L 223.33212 419.43747 L 223.3223 419.43747 L 223.3223 419.42765 L 220.72039 420.50769 L 220.72039 429.62909 L 252.94478 429.62909 L 252.94478 420.38005 L 250.23487 419.37856 C 250.19657 419.30533 250.11028 419.1428 249.97959 418.78945 C 249.65869 417.92183 249.3512 416.14201 249.3512 413.65436 L 249.3512 401.54812 L 249.3512 391.8376 C 249.3512 389.79467 249.40347 388.46848 249.43957 386.96761 L 257.55949 383.48204 L 257.55949 394.80279 L 257.55949 394.84207 C 257.64769 399.87108 257.69694 404.89432 257.69694 409.92332 C 257.69694 410.63957 257.61501 412.20413 257.44166 414.37111 C 257.26703 416.5539 257.04748 418.97076 256.78382 421.60736 C 256.52799 424.07742 256.18903 426.54763 255.7627 429.02035 L 255.75288 429.03016 L 255.75288 429.03998 C 255.32981 431.57841 254.87442 433.64384 254.41756 435.16674 L 253.68117 437.61155 L 259.41519 443.34557 L 262.42947 440.10546 C 263.56457 438.88929 264.89444 437.61001 266.40597 436.26642 C 267.89832 434.93989 269.48082 433.65019 271.14832 432.39792 C 272.89254 431.15361 274.57918 430.04299 276.21468 429.05962 C 277.87085 428.115 279.45012 427.38081 280.93739 426.86027 L 284.4426 425.63296 L 283.71603 421.99028 C 283.54802 421.15024 283.37472 420.2584 283.20547 419.32946 C 283.06622 418.49346 282.9446 417.29473 282.86182 415.80461 C 282.84593 415.51858 282.8287 415.21933 282.81273 414.90131 L 295.80263 414.90131 C 295.79753 416.91039 295.49463 418.28748 295.23316 418.90727 C 295.10128 419.21986 295.05083 419.33657 295.02697 419.36874 L 295.01715 419.36874 L 295.00733 419.36874 L 295.00733 419.35892 L 295.00733 419.3491 L 294.99751 419.3491 L 292.20905 420.38005 L 292.20905 429.62909 L 329.21506 429.62909 L 329.21506 419.43747 L 325.60185 418.86799 C 323.48917 418.53789 322.59052 417.96302 322.32246 417.71923 C 322.15932 417.4379 321.80973 416.54197 321.68426 414.90131 L 351.91549 414.90131 C 351.89847 414.97116 351.87389 415.03803 351.85658 415.1075 C 351.39312 416.87907 350.87001 418.13189 350.50162 418.73053 L 346.48584 425.24021 L 354.13447 425.24021 C 355.33464 425.24021 357.12136 425.42678 359.34811 425.83914 L 359.35793 425.83914 L 359.36775 425.83914 C 361.66488 426.24935 364.02369 426.82804 366.43708 427.57702 L 366.51563 427.60648 L 366.604 427.62612 C 369.06975 428.28365 371.44154 429.09902 373.73225 430.08075 C 375.98345 431.04555 377.78554 432.06331 379.13243 433.05576 L 381.62634 434.89182 L 384.1497 433.09503 C 385.02424 432.47035 386.41592 431.6971 388.22438 430.9055 C 390.22732 430.15751 392.31798 429.44579 394.49842 428.77488 L 394.56715 428.75525 L 394.63588 428.72579 C 396.75621 427.99183 398.86129 427.4306 400.95901 427.02719 L 401.03756 427.00755 L 401.1161 426.99773 C 403.30052 426.49363 405.14108 426.16787 406.58502 426.01588 L 412.05394 425.4464 L 410.14915 420.29168 C 409.63221 418.88854 409.28129 417.5118 409.05929 416.14826 C 409.02327 415.77438 408.98984 415.35554 408.9611 414.90131 L 420.89061 414.90131 C 420.73458 417.18538 420.27659 419.1143 419.57493 420.73351 C 418.74611 422.64618 417.78727 423.63523 416.40354 424.32709 L 413.64454 425.70169 L 414.7344 433.36013 L 418.4458 433.36013 C 421.6374 433.36013 424.85613 432.95501 428.08759 432.17209 C 430.35453 431.63789 432.39529 430.88359 434.45981 430.14948 C 434.84293 430.46633 435.19135 430.87797 435.59876 431.15097 C 436.65897 431.8891 437.79143 432.56641 439.00578 433.17358 L 439.06469 433.20304 L 439.13342 433.23249 C 440.39338 433.81401 441.83632 434.41454 443.49285 435.05874 C 445.00347 435.73308 446.89229 436.61915 449.17777 437.71956 L 452.52589 439.32979 L 457.0915 432.47647 L 455.19653 430.05129 C 453.36594 427.69767 451.85393 425.6647 450.67019 423.97363 L 450.64073 423.92453 L 450.61128 423.88526 C 449.60314 422.51707 448.84845 421.11331 448.28429 419.65348 C 447.79211 418.15439 447.39995 416.35826 447.16498 414.24347 C 446.9252 412.08552 446.79187 409.20297 446.79187 405.6719 L 446.79187 341.30166 C 446.79187 336.90159 447.09411 333.08147 447.6559 329.85327 C 448.26433 326.84975 449.25727 324.72098 450.45418 323.28468 L 445.33873 316.69645 C 441.78002 318.39108 438.47729 319.6752 435.45148 320.57476 L 435.43184 320.58458 L 435.4122 320.58458 C 432.56931 321.45324 429.93966 321.86099 427.48866 321.86099 C 425.46411 321.86099 423.8553 321.59621 422.64812 321.17369 L 412.35831 317.5703 L 417.45413 327.21209 C 418.17645 328.57647 418.77125 329.87347 419.23128 331.10022 C 419.67075 332.27213 420.00183 333.48002 420.22295 334.73307 L 420.24259 334.8509 L 420.27204 334.96872 C 420.55929 336.18954 420.74439 337.57222 420.82188 339.12195 C 420.90608 340.80655 420.94952 342.73558 420.94952 344.89524 L 420.94952 406.13337 L 408.82365 406.13337 C 408.83425 405.34391 408.8756 404.55736 408.94147 403.76711 L 409.45203 397.55198 L 413.33035 397.23779 L 411.33719 391.93579 C 410.89429 390.75473 410.45221 389.2476 410.04114 387.4389 C 409.63131 385.63565 409.29916 383.73182 409.04947 381.73434 C 408.7913 379.66893 408.58352 377.60352 408.41127 375.53885 C 408.24153 373.41703 408.15599 371.49184 408.15599 369.76556 C 408.15599 367.52989 408.29062 365.73729 408.49963 364.4832 L 409.29493 359.67212 L 404.42495 359.50521 C 399.28125 359.33084 394.08753 359.02752 388.85277 358.59208 C 383.63555 358.06979 379.27548 357.45711 375.83341 356.78548 L 373.6046 356.35346 L 371.99437 357.9637 C 369.07817 360.8799 366.16813 363.2439 363.27552 365.09195 L 363.25588 365.11158 L 363.22643 365.1214 C 360.60447 366.8444 357.71265 368.00406 354.41921 368.61679 L 349.71614 369.49064 L 351.11037 374.06607 C 351.64059 375.80822 352.24505 378.51551 352.84825 382.04853 L 352.85807 382.10745 L 352.8777 382.17617 C 353.50507 385.31305 353.84974 389.54174 353.84974 394.76352 C 353.84974 396.77277 353.76622 399.02809 353.59446 401.51866 L 353.59446 401.59721 L 353.59446 401.66594 C 353.54248 403.17396 353.43884 404.66273 353.29008 406.13337 L 321.63516 406.13337 L 321.63516 396.6585 L 329.89254 385.04318 L 339.65215 390.139 L 341.87114 387.596 C 344.02796 385.11566 345.72686 382.13709 347.02586 378.73969 L 347.03568 378.72005 L 347.03568 378.70042 C 348.3204 375.24157 349.1986 371.49529 349.67686 367.47785 L 350.1187 363.69772 L 346.41712 362.81405 C 342.83205 361.96046 339.57407 361.01997 336.63787 360.01577 C 333.72467 358.93124 331.55024 357.89859 330.28528 357.09967 L 325.81785 354.28175 L 323.99161 359.24011 C 323.26785 361.19852 322.41932 362.92165 321.63516 364.76793 L 321.63516 363.65844 L 317.87467 357.37459 L 317.87467 351.39511 C 317.94415 351.47715 318.02123 351.55833 318.09068 351.64057 L 321.17369 355.30288 L 324.4629 351.8173 C 330.30338 345.62286 334.76175 340.84312 337.88482 337.4528 L 337.93391 337.41353 C 341.09738 334.0742 343.30929 331.72501 344.56141 330.38347 L 347.71316 327.01571 L 344.10976 324.12907 C 342.85214 323.12297 341.92025 322.30284 341.39985 321.78244 C 340.62754 321.01013 339.58809 320.01815 338.23829 318.75834 L 335.54801 316.2448 z M 377.96403 378.35677 C 378.82205 378.52071 379.5912 378.76811 380.47757 378.90661 L 380.5463 378.91643 L 380.62485 378.92624 C 382.13591 379.1094 383.25574 379.11636 384.57189 379.21098 C 384.64149 380.06465 384.63385 380.9322 384.74863 381.77362 L 384.75845 381.8718 L 384.77808 381.96017 C 384.88343 382.53959 385.01837 383.06325 385.13155 383.62932 L 378.54332 385.26901 C 378.47002 384.30141 378.44231 383.45079 378.34695 382.43146 C 378.27165 381.24108 378.08289 379.68239 377.96403 378.35677 z M 409.34403 397.5618 L 403.45291 399.31932 C 398.85741 400.6882 395.19437 402.47823 392.60345 405.32825 L 392.56417 405.36753 L 392.53472 405.4068 C 391.19683 406.95594 390.24994 408.77238 389.51061 410.68916 C 389.16345 410.65616 388.94057 410.6379 388.56803 410.6008 C 386.85687 410.3444 385.10686 410.09116 383.31512 409.83495 C 381.52716 409.49386 379.82417 409.15345 378.20949 408.81383 L 378.19967 408.81383 C 378.06803 408.78453 378.03137 408.75516 377.90512 408.72546 C 378.00851 407.71644 378.08695 406.87449 378.20949 405.73081 C 378.36087 404.3179 378.40795 402.85822 378.50405 401.42048 C 382.73273 400.75144 386.98635 400.094 391.38595 399.53532 L 391.4154 399.53532 L 391.45468 399.5255 C 396.95918 398.73914 402.36475 398.13532 407.6847 397.69926 L 409.34403 397.5618 z " /></g><path
       id="path5-3"
       style="display:inline;stroke-width:0.95000006;fill:none;stroke:#000000;stroke-opacity:1;stroke-dasharray:none"
       inkscape:label="text"
       d="m 273.88094,193.2427 -1.58078,0.25528 c -3.61654,0.60276 -7.22583,1.07883 -10.83965,1.42369 -3.63848,0.25916 -7.54388,0.47373 -11.7135,0.64802 -4.24319,0.0884 -8.8832,0.17669 -13.92266,0.2651 h -29.53412 l 10.14253,7.6879 c 2.85841,2.16546 5.165,4.05312 6.89261,5.6162 l 0.0393,0.0294 0.0295,0.0295 c 1.68009,1.45099 2.87421,2.85609 3.65249,4.15323 l 0.0687,0.10801 0.0687,0.108 c 0.84294,1.23199 1.41583,2.55793 1.74769,4.08451 0.35591,1.63718 0.56948,3.787 0.56948,6.40167 0,2.25053 -0.0499,4.7787 -0.13746,7.5799 -0.0843,2.60813 -0.29322,5.16431 -0.62839,7.67809 l -0.01,0.0687 v 0.0589 c -0.24267,2.34581 -0.64463,4.49288 -1.18804,6.44095 -0.50464,1.72185 -1.12327,2.73386 -1.44332,3.08301 l -2.34663,2.56264 2.03244,2.82773 c 0.81589,1.12969 1.50557,2.55773 2.01279,4.36925 l 0.0295,0.0982 0.0294,0.0982 c 0.61358,1.84073 1.04284,3.76865 1.27641,5.79292 l 0.01,0.0786 0.01,0.0786 c 0.32335,2.1018 0.48111,4.14792 0.48111,6.13658 v 0.0786 l 0.01,0.0884 c 0.0868,2.17117 0.12764,4.11048 0.12764,5.81257 0,0.91833 -0.29719,2.2439 -1.14877,3.94704 l -0.01,0.0295 -0.0196,0.0294 c -0.84949,1.77621 -1.90868,3.54133 -3.17138,5.28237 -1.28997,1.68969 -2.60308,3.19802 -3.93723,4.53616 -1.33064,1.24387 -2.40997,2.03217 -2.78846,2.23862 l 2.05207,8.03155 c 10.55078,0 20.41332,0.60572 29.59303,1.81643 v 0.01 h 0.01 c 9.17878,1.28722 17.13311,3.41396 23.88847,6.33294 l 3.04374,1.31569 2.03243,-2.61173 c 3.58828,-4.61351 7.18385,-8.49329 10.7611,-11.65459 l 0.0196,-0.0196 0.0196,-0.0196 c 3.25233,-2.94978 6.93607,-4.77717 11.36003,-5.6162 l 4.71289,-0.89348 -1.00149,-3.19102 h 14.42341 v 1.08004 c 0,2.07553 -0.34551,3.41074 -0.60875,3.93722 l -0.0295,0.0589 -0.0294,0.0491 c -0.15088,0.32332 -0.24999,0.46747 -0.29456,0.52038 v 0.01 h -0.01 v 0.01 h -0.01 v -0.01 l -2.61173,1.08985 v 9.11159 h 33.01969 v -9.23923 l -2.70009,-1.00149 c -0.0388,-0.0735 -0.12491,-0.24644 -0.25528,-0.59893 -0.3209,-0.86762 -0.62839,-2.64744 -0.62839,-5.13508 v -25.82272 l 9.53379,-4.26124 v 11.23239 0.0393 c 0.0882,5.02901 0.13745,10.06207 0.13745,15.09107 0,0.71624 -0.0819,2.28081 -0.25528,4.44779 -0.17463,2.1828 -0.39418,4.58983 -0.65784,7.22643 -0.25583,2.47006 -0.59479,4.94027 -1.02112,7.41298 v 0.01 0.01 c -0.42307,2.53844 -0.88828,4.60387 -1.34514,6.12676 l -0.73639,2.44481 5.73402,5.73402 3.0241,-3.2303 c 1.1351,-1.21617 2.45515,-2.50528 3.96668,-3.84886 1.49235,-1.32654 3.07485,-2.61622 4.74235,-3.86849 1.74749,-1.24664 3.43782,-2.3634 5.07618,-3.34812 1.6525,-0.94183 3.22863,-1.66022 4.71289,-2.17971 l 3.50521,-1.22732 -0.72657,-3.65249 c -0.16949,-0.84743 -0.33981,-1.74257 -0.51056,-2.68045 -0.13823,-0.83527 -0.26137,-2.01437 -0.34365,-3.4954 -0.0338,-0.60736 -0.0641,-1.28954 -0.0982,-2.04225 h 10.15236 c -0.0986,0.45932 -0.20349,0.91125 -0.3142,1.35495 -0.46256,1.76386 -0.98756,3.00639 -1.35495,3.6034 l -4.00596,6.50968 h 7.64863 c 1.20017,0 2.97707,0.18657 5.20382,0.59893 h 0.0196 0.01 c 2.29713,0.4102 4.64613,0.9889 7.05952,1.73788 l 0.0884,0.0295 0.0785,0.0196 c 2.46575,0.65754 4.84736,1.48271 7.13807,2.46445 2.2512,0.9648 4.0533,1.97276 5.40019,2.9652 l 2.4939,1.83606 2.52336,-1.79679 c 0.87455,-0.62467 2.26624,-1.39794 4.07469,-2.18953 2.00295,-0.74799 4.08378,-1.45972 6.26422,-2.13062 l 0.0687,-0.0196 0.0785,-0.0196 c 2.12033,-0.73397 4.22541,-1.30502 6.32313,-1.70843 l 0.0786,-0.01 0.0687,-0.0196 c 2.18443,-0.5041 4.0348,-0.82985 5.47874,-0.98185 l 5.4591,-0.56948 -1.89498,-5.15472 c -0.51694,-1.40314 -0.87767,-2.77988 -1.09967,-4.14342 -0.064,-0.66495 -0.11684,-1.45757 -0.1571,-2.37608 h 7.49153 c -0.92016,3.0258 -1.48522,6.0497 -1.67897,9.05268 l -0.27491,4.31033 4.31033,0.23564 c 3.18325,0.17207 5.90378,0.42771 8.11992,0.75603 l 0.0785,0.01 0.0687,0.01 c 2.19825,0.24425 4.04435,0.60455 5.49838,1.04076 l 0.0982,0.0294 0.0982,0.0196 c 1.48058,0.37015 2.62343,0.83145 3.43648,1.29605 l 0.0491,0.0294 0.0589,0.0295 c 1.0298,0.54923 1.91943,1.18018 2.70992,1.90479 l 2.54299,2.32699 2.81792,-1.98334 c 1.15781,-0.81728 2.72365,-1.65304 4.70307,-2.44481 2.0068,-0.80272 4.2057,-1.50407 6.59805,-2.08153 2.40324,-0.5801 4.94831,-1.03828 7.63881,-1.37459 2.66874,-0.3336 5.29002,-0.50075 7.85482,-0.50075 h 5.302 l -1.12913,-5.18418 c -0.34809,-1.60123 -0.66299,-4.41768 -0.83458,-8.18865 -0.17368,-3.9092 -0.2651,-8.37028 -0.2651,-13.37282 0,-5.87686 0.13675,-10.33385 0.38293,-13.20592 l 0.43201,-4.97799 -4.98781,0.35347 c -3.83792,0.26776 -7.19114,0.53487 -10.0738,0.80512 -2.906,0.27243 -5.56554,0.59189 -7.97264,0.96221 h -0.01 -0.01 c -2.30667,0.36907 -4.44717,0.78439 -6.43113,1.25677 l -0.0295,0.01 -0.0196,0.01 c -0.10071,0.0252 -0.19409,0.0627 -0.29456,0.0884 -0.0648,-1.48552 -0.108,-2.97227 -0.108,-4.45761 v -2.13062 c 1.38164,0.49381 2.75988,0.98679 4.14341,1.42369 l 0.0295,0.01 0.0294,0.01 c 1.94238,0.58271 3.85374,1.02707 5.74384,1.3255 1.85585,0.29303 3.579,0.45166 5.194,0.45166 3.81099,0 7.46287,-1.17163 10.29963,-3.51504 l 0.0393,-0.0294 0.0491,-0.0393 c 2.7674,-2.40643 4.83295,-5.76282 6.58822,-9.95598 l 2.29754,-5.47873 -5.93039,-0.43202 c -10.77267,-0.77563 -18.66545,-2.604 -23.3779,-4.99763 l -1.77715,-0.9033 -1.83607,0.77566 c -5.75654,2.44217 -10.5096,4.21127 -14.16813,5.29219 -3.58062,1.05791 -6.80905,1.55132 -9.69088,1.55132 h -5.99912 l 1.95389,5.66529 c 0.77609,2.25065 1.33649,4.74735 1.65933,7.49153 l 0.01,0.0589 0.01,0.0589 c 0.40384,2.74607 0.61857,6.05558 0.61857,9.88725 0,1.60966 -0.041,3.45654 -0.12765,5.53765 -0.0831,1.90776 -0.30696,4.78979 -0.65784,8.56175 l -0.35346,3.84886 H 447.0306 c 0.0195,-0.41051 0.0443,-0.82604 0.0785,-1.23714 l 0.52039,-6.21512 3.86849,-0.31419 -1.98334,-5.30201 c -0.44289,-1.18106 -0.88497,-2.68817 -1.29604,-4.49688 -0.40983,-1.80325 -0.74198,-3.70708 -0.99167,-5.70456 -0.25817,-2.06542 -0.47578,-4.13083 -0.64803,-6.19549 -0.16974,-2.12182 -0.25528,-4.04701 -0.25528,-5.77329 0,-2.23567 0.13464,-4.02827 0.34365,-5.28237 l 0.80512,-4.81107 -4.87981,-0.16692 c -5.15207,-0.17464 -10.3484,-0.47655 -15.59181,-0.91312 -5.2038,-0.52161 -9.5545,-1.12647 -12.98991,-1.79679 l -2.23862,-0.44183 -1.60042,1.61024 c -2.9162,2.9162 -5.83606,5.29 -8.72867,7.13806 l -0.0196,0.01 -0.0196,0.0196 c -2.62195,1.723 -5.51377,2.87284 -8.80721,3.48557 l -4.70308,0.88367 1.39423,4.56561 c 0.53022,1.74215 1.13468,4.45925 1.73788,7.99228 l 0.01,0.0589 0.01,0.0589 c 0.62738,3.13687 0.98185,7.37539 0.98185,12.59717 0,2.00925 -0.0835,4.25474 -0.25528,6.74532 l -0.01,0.0786 v 0.0687 c -0.0386,1.12085 -0.10465,2.23778 -0.19637,3.3383 h -11.53676 v -4.78162 c 0,-4.58327 0.0407,-8.40548 0.12764,-11.4484 0.0873,-3.05413 0.17858,-5.61 0.2651,-7.69772 0.16621,-1.98156 0.32502,-3.57261 0.48111,-4.76199 0.23974,-1.26345 0.51887,-2.44445 0.82475,-3.51503 l 0.99167,-3.47575 -3.26957,-1.56115 c -1.76972,-0.84273 -3.30382,-1.62652 -4.60488,-2.35644 -1.31771,-0.82498 -2.5944,-1.65212 -3.82923,-2.47427 -1.10803,-0.79307 -2.22034,-1.66647 -3.34811,-2.63137 -1.21153,-1.12541 -2.54704,-2.37814 -4.01578,-3.76049 l -3.10265,-2.9161 -2.92592,3.09283 c -3.09042,3.26211 -6.0714,6.06442 -8.92504,8.41448 -0.94627,0.77928 -2.21378,1.58145 -3.24993,2.36626 v -3.83904 l -4.63434,-7.71736 -3.0732,0.76584 c -2.76384,0.69096 -5.94627,1.4351 -9.51415,2.21899 -3.56704,0.69569 -6.8549,1.2584 -9.86761,1.68879 l -3.67213,0.52038 v 7.98246 l 4.91908,2.13062 v 33.75608 h -15.71946 c -0.003,-0.26227 0,-0.53026 0,-0.7953 0,-1.98903 0.0856,-4.37294 0.25529,-7.10861 0.2561,-2.71962 0.59586,-5.48411 1.02112,-8.29665 0.51163,-2.80722 1.05807,-5.48143 1.64951,-8.02174 0.65517,-2.53249 1.37896,-4.52524 2.07171,-5.91075 l 0.73639,-1.4826 -0.44183,-1.58078 c -1.24956,-4.4627 -2.37215,-8.18415 -3.37757,-11.20293 l -0.01,-0.0393 c -0.94932,-2.93596 -1.77003,-5.6502 -2.45463,-8.12973 v -0.01 c -0.67194,-2.52094 -1.25859,-5.13322 -1.76734,-7.83518 -0.41288,-2.73969 -0.76215,-6.19544 -1.02112,-10.33891 l -0.18656,-3.05356 -2.96519,-0.80512 c -4.06912,-1.10206 -8.14133,-2.50691 -12.23388,-4.21214 -4.11396,-1.71414 -7.4364,-3.35962 -9.91671,-4.87981 z m 1.39423,24.62485 c 0.2389,1.4534 0.39032,2.75569 0.72657,4.38888 v 0.01 l 0.01,0.01 c 0.636,2.99827 1.3545,6.04104 2.16989,9.12141 l 0.01,0.0196 v 0.01 c 0.80377,2.94715 1.6105,5.80909 2.41536,8.58139 v 0.0196 l 0.01,0.0196 c 0.61824,2.06079 1.14479,3.64446 1.66914,5.21363 -0.70148,1.64884 -1.31781,3.45508 -1.86552,5.71438 l -0.01,0.0589 -0.01,0.0589 c -0.63834,3.0093 -1.23494,6.23724 -1.77715,9.67125 v 0.0393 l -0.01,0.0491 c -0.45346,3.35563 -0.81767,6.71687 -1.08986,10.07381 -0.1812,2.17598 -0.21301,3.71532 -0.27492,5.38055 -1.78064,0.94902 -3.51866,2.01567 -5.16454,3.31866 -1.6368,1.2958 -3.01143,2.75534 -4.25142,4.30051 -0.51177,-0.0832 -0.90141,-0.14054 -1.47278,-0.23564 -1.4699,-0.34508 -2.97615,-0.68646 -4.52634,-1.03095 -1.5595,-0.34656 -3.07466,-0.69483 -4.54597,-1.04076 h -0.01 c -0.1738,-0.0435 -0.24746,-0.0759 -0.41238,-0.11782 -0.41006,-5.50245 -0.77916,-10.92997 -1.00149,-16.1122 -0.17546,-6.24261 -0.2651,-12.17459 -0.2651,-17.79116 0,-5.83041 0.0493,-11.31167 0.13746,-16.42639 0.0678,-4.00221 0.18493,-7.29909 0.30437,-10.55491 1.15126,-0.29713 2.21405,-0.63697 3.48558,-0.86403 l 0.0589,-0.01 0.0589,-0.0196 c 2.44245,-0.50533 4.82958,-0.87863 7.16752,-1.12913 l 0.0687,-0.01 0.0589,-0.01 c 2.46097,-0.33944 4.68446,-0.54661 6.64714,-0.62839 h 0.0785 l 0.0786,-0.01 c 0.63997,-0.0512 0.96789,-0.0334 1.53169,-0.0687 z m 140.85652,33.27498 c 0.85874,0.16411 1.62642,0.40139 2.51355,0.54001 l 0.0785,0.01 0.0687,0.01 c 1.51181,0.18325 2.64016,0.19012 3.95687,0.28474 0.0696,0.85405 0.062,1.73066 0.17673,2.57245 l 0.01,0.0884 0.0196,0.0982 c 0.10532,0.57923 0.24032,1.10325 0.35346,1.66915 l -6.59804,1.62988 c -0.0707,-0.93298 -0.0954,-1.75831 -0.18655,-2.73937 -6.1e-4,-0.01 10e-4,-0.0198 0,-0.0295 -0.0758,-1.20809 -0.27188,-2.7857 -0.39275,-4.13359 z m 31.38982,19.19521 -5.89111,1.75751 c -4.5955,1.36887 -8.25855,3.15892 -10.84947,6.00894 l -0.0393,0.0393 -0.0393,0.0393 c -1.33787,1.54911 -2.27495,3.36562 -3.01428,5.28236 -0.34839,-0.0331 -0.57843,-0.0511 -0.9524,-0.0884 -1.69908,-0.25458 -3.43512,-0.50164 -5.21364,-0.75603 -1.80152,-0.34346 -3.51907,-0.689 -5.1449,-1.03095 -0.13243,-0.0294 -0.17741,-0.0585 -0.30438,-0.0884 0.10339,-1.00905 0.18184,-1.85092 0.30438,-2.99465 0.15131,-1.41225 0.20828,-2.86346 0.30437,-4.30051 4.22917,-0.66913 8.47195,-1.32642 12.87209,-1.88516 l 0.0393,-0.01 h 0.0294 c 5.50449,-0.78635 10.91989,-1.4 16.23984,-1.83606 z m 38.99917,3.73104 v 0.5302 c 0,2.42392 -0.12565,4.74411 -0.3731,6.97115 -0.0745,0.64448 -0.24617,1.4939 -0.34365,2.18953 -4.56361,-1.9404 -9.27152,-3.9795 -12.48916,-5.09582 -1.66804,-0.57871 -3.04596,-0.95609 -4.43797,-1.34513 2.92649,-0.68517 5.75789,-1.42409 8.94467,-1.97353 h 0.0393 l 0.0294,-0.01 c 3.30613,-0.62703 5.88839,-0.90644 8.63048,-1.26659 z"
       sodipodi:nodetypes="cccccccccccccssccccccccccccccsccsccccccccccccccccccccsscccccccccccccssccccssccccccccsccccccscccscsccccccsccccccccccccccccccccccsccccccccsssscccscccscccccccsccccsscccccccccsscccccsccccccccsscscccccccccccccsccscccccsscccccccccccscccccccccccsccccccccccccccssccccccccccccccccccccsccsccccscccccccccccccccccccccccccscccccccccccscccccccsccscccccc" /></g><g
     inkscape:groupmode="layer"
     id="layer2"
     inkscape:label="Content"
     style="display:inline"
     transform="scale(0.1989225)"><g
       inkscape:groupmode="layer"
       id="layer3"
       inkscape:label="Kruh"
       transform="scale(5.0270836)"><path
         id="path2"
         style="fill:none;stroke:#000000;stroke-width:0.949978"
         inkscape:label="vnejsi kruh"
         transform="scale(0.19892249)"
         d="M 569.5184,284.99338 A 284.52502,284.52502 0 0 1 284.99338,569.5184 284.52502,284.52502 0 0 1 0.46835327,284.99338 284.52502,284.52502 0 0 1 284.99338,0.46835327 284.52502,284.52502 0 0 1 569.5184,284.99338 Z" /><path
         id="path2-9"
         style="fill:none;stroke:#000000;stroke-width:0.95000007;stroke-dasharray:none"
         inkscape:label="vnitrni kruh"
         transform="scale(0.19892249)"
         d="M 529.26178,284.99338 A 244.2684,244.2684 0 0 1 284.99338,529.26178 244.2684,244.2684 0 0 1 40.724976,284.99338 244.2684,244.2684 0 0 1 284.99338,40.724976 244.2684,244.2684 0 0 1 529.26178,284.99338 Z" /></g><path
       style="baseline-shift:baseline;display:inline;overflow:visible;opacity:1;fill:none;stroke:#000000;stroke-width:0.950003;stroke-dasharray:none;stroke-opacity:1;enable-background:accumulate;stop-color:#000000;stop-opacity:1"
       d="m 361.9245,66.13107 c -0.91778,0.174888 -1.49245,0.652301 -2.05118,1.115077 -0.59589,0.493525 -2.72913,1.457441 -4.01043,2.434843 l -5.66623,2.776548 4.14738,7.102429 3.66393,5.821566 -1.19078,0.779512 c -0.59821,0.391969 -1.20168,0.751293 -1.65539,0.996337 -0.2268,0.122518 -0.41784,0.217567 -0.52656,0.265009 -0.10882,0.0474 -0.33853,-0.01901 0.28737,-0.01901 -0.70251,0 -0.55135,0.08616 -0.65564,0.122174 -0.10423,0.03604 -0.20091,0.07294 -0.31488,0.118737 -0.22817,0.09166 -0.51532,0.214314 -0.87073,0.369968 -0.71082,0.311326 -1.68729,0.752765 -2.87027,1.297478 -2.366,1.089421 -5.55228,2.588332 -8.99629,4.236579 -6.85731,3.281809 -16.45235,7.718183 -21.25518,9.829143 -10.94658,4.8113 -16.89352,7.51663 -20.13494,9.16836 -1.05354,0.53685 -7.76813,3.4598 -14.38408,6.21893 -3.31876,1.38407 -6.51895,2.7347 -9.00659,3.79778 -2.48765,1.06307 -4.13811,1.77365 -4.79241,2.1028 -1.58355,0.79662 -3.29228,1.58691 -17.72067,8.19095 -4.06516,1.86068 -13.51787,6.33797 -21.0573,9.97197 -3.75635,1.81057 -7.2996,3.47493 -9.97024,4.69432 -1.33535,0.60969 -2.45418,1.10825 -3.26261,1.45406 -0.40423,0.1729 -0.7317,0.30878 -0.95678,0.39579 -0.22496,0.087 -0.51845,0.12819 -0.14959,0.074 -1.30023,0.19109 -2.28156,0.80558 -3.24713,1.58829 0.15487,-0.12558 -0.7305,0.45716 -1.83952,1.06517 -1.10901,0.60801 -2.62082,1.40917 -4.40693,2.34027 -3.57222,1.86222 -8.24723,4.2428 -13.07283,6.66461 -9.6512,4.84364 -20.01556,9.89586 -23.16354,11.21267 -5.21795,2.18267 -4.60237,0.55871 -6.71665,-0.39936 -0.57101,-0.25875 -0.65867,-0.30272 -0.92406,-1.11851 -0.2654,-0.81581 -1.10587,-2.2536 -1.19529,-4.79467 -0.089,-2.52808 -2.0052,-6.81893 -3.06386,-10.08689 -0.89617,-2.76635 -1.41289,-4.98854 -2.56324,-6.19725 -0.12339,-0.12964 -2.12418,1.00058 -6.19325,1.80783 -3.34597,0.66382 -11.7791,3.30335 -20.81465,6.44091 -2.649,0.91985 -8.60103,2.86918 -13.15888,4.30886 -24.173379,7.6356 -36.415974,19.31658 -41.391835,39.71924 -2.691853,11.03744 -0.583851,23.59592 4.020721,28.21067 6.713695,6.72855 15.756068,11.45993 27.579074,14.55787 8.52239,2.23311 9.05265,2.26628 18.66712,0.99462 9.60656,-1.2706 28.31945,-6.98682 35.74422,-10.9924 10.9607,-5.91316 17.65621,-9.63996 21.69742,-12.21933 2.0206,-1.28967 3.37924,-2.28199 4.3295,-3.21098 0.95027,-0.92898 2.59085,-1.66768 2.59085,-2.82697 0,-0.77575 -1.23357,-1.52135 -1.50159,-2.06008 -0.26801,-0.5387 -0.61351,-1.09617 -1.02215,-1.69153 -0.81727,-1.19072 -1.8873,-2.51839 -3.03375,-3.80294 -1.14645,-1.28455 -2.55427,-2.33651 -3.48459,-3.5018 -1.42337,-1.78287 -3.9818,-5.47828 -0.92751,-9.30603 1.79713,-2.25223 3.08509,-3.5718 5.46695,-5.17613 2.38185,-1.60433 5.89993,-3.46063 11.92162,-6.46328 7.52456,-3.75204 18.97424,-9.2057 25.36959,-12.08338 6.5839,-2.9625 36.83558,-17.72493 67.50311,-32.92901 15.32887,-7.59962 29.92376,-14.80054 41.08898,-20.28121 11.1652,-5.48067 19.01825,-9.29193 20.46361,-9.93411 3.2324,-1.4362 7.75313,-3.46425 10.06316,-4.51363 1.13693,-0.51647 2.21313,-0.98631 3.01483,-1.32157 0.14135,-0.0591 0.21603,-0.0858 0.33901,-0.13594 0.11248,0.15024 0.18739,0.24041 0.32349,0.4302 0.6013,0.83903 1.40373,2.02577 2.24046,3.32972 2.39285,3.72892 3.63047,5.87217 5.76811,6.88488 1.0688,0.50636 2.31072,0.49407 3.39509,0.17379 1.08438,-0.32027 2.12835,-0.87294 3.41579,-1.57624 1.22904,-0.67141 2.34288,-1.34348 3.18862,-1.91524 0.42285,-0.28588 0.77492,-0.5407 1.07548,-0.79672 0.15029,-0.12802 0.2865,-0.25076 0.44052,-0.43192 0.15395,-0.18116 0.48354,-0.32407 0.48354,-1.23209 0,-0.43075 -0.0671,-0.51562 -0.11019,-0.65217 -0.0431,-0.13656 -0.0893,-0.25605 -0.14295,-0.3889 -0.10676,-0.26571 -0.24451,-0.57376 -0.41642,-0.94127 -0.34384,-0.73503 -0.82324,-1.70244 -1.41106,-2.85307 -1.1756,-2.30127 -2.77806,-5.326152 -4.51189,-8.531662 -3.46767,-6.41103 -9.06783,-17.985293 -11.22396,-21.451417 -2.1395,-3.439402 -3.24981,-5.290271 -4.62204,-6.435753 -0.68612,-0.572739 -1.71332,-0.966459 -2.63108,-0.791564 z"
       id="path3"
       sodipodi:nodetypes="sscccccsscscsssssssssssssccssssssssssssssssssssssssssssssssscssssssssssssssssss"
       inkscape:label="znak" /></g></svg>
