<?xml version="1.0" encoding="UTF-8" standalone="no"?>
<svg
   version="1.2"
   viewBox="0 0 113.38583 113.38583"
   width="30mm"
   height="30mm"
   id="svg1"
   sodipodi:docname="KomornikReminderTokenLaser.svg"
   inkscape:version="1.4.2 (2aeb623e1d, 2025-05-12)"
   xml:space="preserve"
   xmlns:inkscape="http://www.inkscape.org/namespaces/inkscape"
   xmlns:sodipodi="http://sodipodi.sourceforge.net/DTD/sodipodi-0.dtd"
   xmlns="http://www.w3.org/2000/svg"
   xmlns:svg="http://www.w3.org/2000/svg"><sodipodi:namedview
     id="namedview1"
     pagecolor="#ffffff"
     bordercolor="#666666"
     borderopacity="1.0"
     inkscape:showpageshadow="2"
     inkscape:pageopacity="0.0"
     inkscape:pagecheckerboard="0"
     inkscape:deskcolor="#d1d1d1"
     inkscape:zoom="6.4253655"
     inkscape:cx="63.8096"
     inkscape:cy="50.58078"
     inkscape:window-width="1920"
     inkscape:window-height="1043"
     inkscape:window-x="0"
     inkscape:window-y="0"
     inkscape:window-maximized="1"
     inkscape:current-layer="layer3"
     showgrid="false"
     inkscape:document-units="mm" /><defs
     id="defs1"><clipPath
       clipPathUnits="userSpaceOnUse"
       id="cp1"><path
         d="m 275.5,535.5 c -143.78,0 -260,-116.22 -260,-260 0,-143.78 116.22,-260 260,-260 143.78,0 260,116.22 260,260 0,143.78 -116.22,260 -260,260 z"
         id="path1" /></clipPath></defs><style
     id="style1">
		tspan { white-space:pre } 
		.s0 { fill: none;stroke: #ff0000;stroke-miterlimit:100 } 
	</style><g
     inkscape:groupmode="layer"
     id="layer1"
     inkscape:label="Template"
     transform="scale(0.1989225)" /><g
     inkscape:groupmode="layer"
     id="layer2"
     inkscape:label="Content"
     style="display:inline"
     transform="scale(0.1989225)"><g
       inkscape:groupmode="layer"
       id="layer3"
       inkscape:label="Kruh"
       transform="scale(5.0270836)"><path
         id="path2"
         style="fill:none;stroke:#000000;stroke-width:0.949978"
         inkscape:label="vnejsi kruh"
         transform="scale(0.19892249)"
         d="M 569.5184,284.99338 A 284.52502,284.52502 0 0 1 284.99338,569.5184 284.52502,284.52502 0 0 1 0.46835327,284.99338 284.52502,284.52502 0 0 1 284.99338,0.46835327 284.52502,284.52502 0 0 1 569.5184,284.99338 Z" /><path
         id="path2-9"
         style="fill:none;stroke:#000000;stroke-width:0.95000007;stroke-dasharray:none"
         inkscape:label="vnitrni kruh"
         transform="scale(0.19892249)"
         d="M 529.26178,284.99338 A 244.2684,244.2684 0 0 1 284.99338,529.26178 244.2684,244.2684 0 0 1 40.724976,284.99338 244.2684,244.2684 0 0 1 284.99338,40.724976 244.2684,244.2684 0 0 1 529.26178,284.99338 Z" /></g><path
       style="baseline-shift:baseline;display:inline;overflow:visible;fill:none;stroke:#000000;stroke-width:0.95;stroke-dasharray:none;stroke-opacity:1;enable-background:accumulate;stop-color:#000000"
       d="m 322.94549,160.61364 c 6.89215,-0.005 35.84701,-0.021 40.30726,-0.0564 8.92051,-0.0706 15.59244,-0.16045 20.03791,-0.26694 2.22276,-0.0532 3.88811,-0.11092 5.00499,-0.17361 0.55844,-0.0313 0.97822,-0.0628 1.27254,-0.0982 0.14713,-0.0177 0.25991,-0.0352 0.36194,-0.0606 0.051,-0.0127 0.097,-0.0244 0.16541,-0.059 0.0342,-0.0173 0.0759,-0.0386 0.12938,-0.0933 0.0537,-0.0548 0.12611,-0.16621 0.12611,-0.30626 0,-0.12954 -0.0182,-0.24576 -0.0459,-0.44056 -0.0277,-0.19477 -0.0663,-0.44246 -0.11464,-0.72881 -0.0968,-0.57266 -0.22994,-1.29642 -0.37669,-2.03244 -0.14674,-0.736 -0.30619,-1.48372 -0.45857,-2.10288 -0.15237,-0.61914 -0.26929,-1.0727 -0.43727,-1.3839 -0.41378,-0.76659 -1.64926,-3.32167 -2.71377,-5.61913 -7.74432,-16.71398 -27.56488,-35.56596 -47.26066,-45.0104 -9.47246,-4.542187 -23.33128,-8.965416 -33.18253,-10.588083 -4.61436,-0.760051 -8.82853,-1.634987 -12.07353,-2.47628 -1.6225,-0.420646 -3.00367,-0.832655 -4.0649,-1.215212 -1.06122,-0.382567 -1.81372,-0.756447 -2.1127,-1.002308 -0.59407,-0.48852 -1.23915,-1.699775 -1.5788,-3.285331 -0.33964,-1.585557 -0.40007,-3.539905 0.0229,-5.530689 -0.0204,0.09564 -0.046,0.06104 0.0752,0.0021 0.12137,-0.05936 0.3367,-0.129636 0.60432,-0.194887 0.53527,-0.130513 1.28277,-0.249687 2.07832,-0.396339 1.5911,-0.293302 3.38845,-0.626479 4.28109,-1.695076 0.47841,-0.572716 0.49508,-1.364012 0.46676,-2.014438 -0.0265,-0.610164 -0.12452,-1.054268 -0.13757,-1.115317 -0.0414,-1.048353 -0.43739,-2.587529 -2.12908,-3.783212 -1.69169,-1.195673 -4.61083,-2.062777 -9.70205,-2.024262 l 8.1e-4,-0.0012 c -2.60798,0.01975 -6.28192,-0.03428 -9.60706,0.699329 -3.32513,0.733655 -6.36869,2.298438 -7.48945,5.571636 l -0.007,0.01797 -0.005,0.01965 c -0.23287,0.967266 -0.31549,1.683904 0.0408,2.287944 0.35643,0.604028 1.0294,0.928792 2.05865,1.32167 l 0.0164,0.0073 6.39544,1.827733 c 0.18886,2.283366 0.30397,4.029714 0.13102,5.36036 -0.18203,1.400555 -0.63264,2.43774 -1.61156,3.5703 -0.75708,0.875915 -1.46078,1.406912 -2.84149,1.891612 -1.38072,0.48471 -3.43463,0.893721 -6.76065,1.426481 -38.71976,6.202228 -70.31486,27.604599 -84.87492,57.560519 -0.77417,1.59275 -1.27287,4.12555 -1.605,6.36593 -0.16608,1.1202 -0.28643,2.16153 -0.36522,2.9627 -0.0788,0.80118 -0.11791,1.31949 -0.11791,1.53621 0,0.24607 0.17203,0.3802 0.27186,0.43892 0.0998,0.0589 0.1896,0.0884 0.29806,0.11793 0.21694,0.059 0.5013,0.1043 0.88767,0.14903 0.77275,0.0895 1.9469,0.16764 3.62435,0.23748 3.3549,0.13966 8.71293,0.24477 16.7575,0.32427 8.04456,0.0795 18.77485,0.13268 32.86782,0.16608 7.04648,0.0167 9.77073,-0.18672 18.58316,-0.17922 l -0.19662,3.03961 c -13.06353,0.0231 -31.46887,0.009 -41.94311,0.0616 -10.47425,0.053 -19.22203,0.12102 -25.38192,0.20471 -3.07993,0.0419 -5.51255,0.0877 -7.19301,0.13757 -0.84023,0.0249 -1.49222,0.0513 -1.9473,0.0785 -0.22751,0.0136 -0.40396,0.027 -0.53881,0.0425 -0.0674,0.007 -0.12435,0.0146 -0.18015,0.0262 -0.028,0.006 -0.0546,0.0133 -0.0917,0.0262 -0.0372,0.0128 -0.0836,0.0132 -0.18017,0.10973 -0.22747,0.22748 -0.24239,0.43071 -0.29971,0.70916 -0.0573,0.27842 -0.0994,0.61958 -0.13265,1.01048 -0.0666,0.78182 -0.092,1.76029 -0.0803,2.74159 0.0118,0.98132 0.0601,1.96187 0.14905,2.75308 0.0446,0.3956 0.0989,0.74319 0.16704,1.02851 0.0682,0.28531 0.10555,0.50188 0.32264,0.71898 0.22021,0.2202 0.45305,0.27686 0.79267,0.37341 0.33962,0.0966 0.77579,0.18734 1.3102,0.28006 1.06884,0.1854 2.5267,0.37104 4.31221,0.55355 3.57103,0.36502 8.44306,0.71948 14.029,1.03178 11.1719,0.62461 25.19654,1.07921 37.32442,1.0973 l 20.24754,0.0311 -0.30788,1.37572 c -2.06996,9.2832 -2.89579,13.27776 -3.33939,16.16954 -1.38045,8.99896 -5.29374,19.58286 -9.9166,28.27582 -2.31143,4.34649 -4.80028,8.22209 -7.2274,11.18914 -2.42714,2.96704 -4.8063,5.01558 -6.79832,5.73869 -1.93062,0.70082 -3.48665,2.28277 -4.81664,4.80024 -2.62586,4.97043 -8.52252,11.51664 -15.27368,16.90328 -1.91031,1.52419 -3.35815,2.77201 -4.363,3.92569 -1.00482,1.15368 -1.57698,2.23719 -1.64102,3.3885 -0.0641,1.15132 0.3814,2.30747 1.24796,3.60471 0.86658,1.29722 2.16348,2.75849 3.88803,4.56605 2.68666,2.81599 6.32808,7.38362 8.03318,10.06893 1.79139,2.82112 6.95506,8.63764 11.56911,13.07417 4.62749,4.44951 7.42361,7.45135 9.19926,10.24907 1.77565,2.79773 2.55368,5.4008 3.14612,9.15997 0.24161,1.53301 0.5914,2.95129 0.99085,4.07963 0.2386,0.67403 0.49074,1.20013 0.76483,1.64103 h -0.39307 l 0.99413,0.75337 c 0.46874,0.35508 1.15805,0.61417 1.94564,0.81233 0.7876,0.19816 1.66643,0.321 2.47465,0.321 1.2569,0 2.17882,-0.15334 3.02984,-0.83689 0.85104,-0.68356 1.61386,-1.81588 2.80875,-3.7652 4.75755,-7.76129 7.97797,-12.60223 10.81737,-15.86328 2.83938,-3.26106 5.28084,-4.94974 8.58346,-6.46914 2.95553,-1.35967 5.59388,-3.21444 7.50911,-5.15729 1.91522,-1.94284 3.13958,-3.96468 3.13958,-5.77634 0,-0.39516 -0.13976,-0.86702 -0.3685,-1.52803 -0.22876,-0.66101 -0.55575,-1.48249 -0.96464,-2.43043 -0.8178,-1.89587 -1.95954,-4.29847 -3.26568,-6.89495 -2.61228,-5.19294 -5.88123,-11.15561 -8.53433,-15.35065 l -2.59912,-4.11078 1.92108,-3.79632 c 1.26475,-2.49819 2.28566,-4.16809 3.27223,-5.267 0.9866,-1.09891 1.91903,-1.6377 3.11993,-1.93911 0.71023,-0.17824 1.49634,-0.7586 2.34691,-1.54604 0.85056,-0.78742 1.73069,-1.79115 2.45334,-2.84149 1.38269,-2.00967 4.78709,-5.11954 7.74003,-7.02924 3.85257,-2.49152 6.37277,-4.98333 8.89791,-8.79639 2.84975,-4.30322 4.43875,-5.74311 9.54319,-8.64735 1.70413,-0.96955 3.32088,-1.85066 4.54805,-2.48774 0.61359,-0.31853 1.13139,-0.57676 1.50837,-0.75172 0.1885,-0.0875 0.34115,-0.15477 0.44875,-0.19653 0.1076,-0.0418 0.22348,-0.0425 0.095,-0.0425 0.18172,0 0.25972,-0.0501 0.36686,-0.0999 0.10713,-0.0497 0.22269,-0.11365 0.35375,-0.19325 0.26213,-0.15921 0.58402,-0.37982 0.95481,-0.65018 0.74159,-0.54076 1.67169,-1.27958 2.62205,-2.09306 0.92907,-0.79525 1.90045,-1.51986 2.7023,-2.039 0.40091,-0.25958 0.76032,-0.46824 1.04324,-0.60596 0.28293,-0.13774 0.51596,-0.18835 0.51589,-0.18835 0.80655,0 1.66455,-0.46111 2.62696,-1.20211 0.96241,-0.74101 2.0189,-1.78844 3.11337,-3.0626 2.18893,-2.5483 4.52554,-6.00524 6.43637,-9.70533 2.15662,-4.17605 5.70327,-9.95163 7.82847,-12.75976 1.08361,-1.43181 2.02655,-2.77372 2.67936,-3.79302 0.32641,-0.50966 0.57987,-0.93735 0.74681,-1.26763 0.0744,-0.14728 0.12613,-0.26867 0.16706,-0.38978 0.0494,-0.006 0.0688,-0.0106 0.13265,-0.0163 0.3217,-0.0295 0.82193,-0.0623 1.47399,-0.0966 1.3041,-0.0686 3.22071,-0.14479 5.60112,-0.22272 4.7608,-0.1559 11.38068,-0.31972 18.70805,-0.45531 7.33114,-0.13566 14.24931,-0.32112 19.49091,-0.50934 2.62081,-0.094 4.82254,-0.18801 6.44949,-0.27842 0.81347,-0.0452 1.48236,-0.0902 1.9915,-0.13265 0.50914,-0.0424 0.83545,-0.0751 1.05964,-0.12939 0.79016,-0.19128 1.31098,-0.95336 1.76877,-1.8998 0.45777,-0.94643 0.82857,-2.13274 1.09893,-3.33447 0.27034,-1.20172 0.43914,-2.41591 0.47495,-3.4147 0.0179,-0.49941 0.003,-0.94433 -0.0542,-1.32003 -0.0578,-0.37573 -0.13396,-0.6924 -0.38487,-0.94336 -0.0965,-0.0965 -0.14305,-0.0969 -0.18016,-0.10973 -0.0371,-0.0128 -0.0655,-0.0187 -0.0933,-0.0246 -0.0558,-0.0116 -0.11109,-0.0201 -0.17851,-0.0279 -0.13486,-0.0157 -0.31292,-0.0287 -0.54045,-0.0425 -0.45509,-0.0277 -1.10541,-0.0547 -1.94567,-0.0803 -1.68047,-0.0512 -4.11304,-0.0996 -7.19301,-0.14413 -6.15993,-0.0891 -14.90926,-0.16543 -25.38354,-0.22765 -5.36108,-0.0318 -27.45131,-0.22235 -36.34397,-0.27874 z m -11.96973,2.78553 c -9.49865,-0.0543 -20.66545,-0.10089 -27.84448,-0.12645 -7.17902,-0.0255 -17.62975,-0.24522 -19.56356,-0.21534 l -0.0548,-2.73601 c 8.99432,0 23.45037,0.22522 32.60955,0.23822 9.15918,0.013 6.58337,0.0288 15.04183,0.0403 z m 12.01034,-57.2373 1.39208,0.37178 c 3.02787,0.80817 7.54593,3.5534 11.2399,6.72952 1.84698,1.58807 3.49439,3.28493 4.66596,4.88543 1.17158,1.60047 1.84843,3.10831 1.84083,4.24833 -0.006,0.94059 -0.0907,1.64262 -0.21453,2.07176 -0.0619,0.21456 -0.13565,0.35822 -0.18671,0.42418 -0.0511,0.0659 -0.0513,0.0498 -0.0442,0.0492 0.007,-6.5e-4 -0.031,0.003 -0.12611,-0.0655 -0.0951,-0.0691 -0.22951,-0.20491 -0.3783,-0.40779 -0.29761,-0.40579 -0.65416,-1.07259 -1.03015,-1.9817 -1.02454,-2.47706 -4.15978,-6.85378 -9.77739,-10.94674 z m -3.57541,70.24819 c 0.49571,-0.0559 1.47458,-0.0465 3.19199,0.16704 l 2.69575,0.33574 -3.15759,3.33119 c -1.00389,1.05942 -1.76557,1.8523 -2.30924,2.36657 -0.22246,0.21042 -0.3824,0.34078 -0.52736,0.45364 0.007,-0.0547 8.7e-4,-0.0594 0.013,-0.12447 0.0938,-0.51042 0.31854,-1.32783 0.63054,-2.41569 0.30871,-1.07641 0.46319,-1.86937 0.42909,-2.51558 -0.0342,-0.64621 -0.32116,-1.17462 -0.79758,-1.46906 -0.11957,-0.0737 -0.0895,-0.0649 -0.1687,-0.12938 z m 17.52397,0.064 c 0.0226,0.0225 0.0725,0.0991 0.072,0.0982 -4.1e-4,-8.7e-4 0.0476,0.16458 0.0475,0.16379 -2e-5,-2.1e-4 -0.004,0.0276 -0.007,0.0442 -0.003,-0.0889 -8.6e-4,-0.19426 -0.11301,-0.30627 z m -70.94914,0.12445 h 2.57947 l -1.15789,1.23324 c -1.0767,1.14608 -1.69356,2.55147 -1.84084,4.28274 -0.1473,1.73124 0.15549,3.78888 0.87292,6.33646 0.49804,1.76844 0.89485,5.17436 0.85492,7.42557 -0.0403,2.26892 -0.41116,5.30497 -0.78285,6.5936 -0.12267,0.42522 -0.19826,0.65164 -0.28333,0.91059 -0.0214,-0.0684 -0.0373,-0.1019 -0.0606,-0.18179 -0.15272,-0.52313 -0.34662,-1.29073 -0.60432,-2.31415 -0.54266,-2.15506 -1.17565,-8.33169 -1.36099,-13.55405 -0.0932,-2.62751 -0.23465,-5.10835 -0.38814,-6.99321 -0.0767,-0.94243 -0.15676,-1.73512 -0.23584,-2.3289 -0.0396,-0.29686 -0.0774,-0.54355 -0.11792,-0.74025 -0.0267,-0.12937 -0.0686,-0.22306 -0.10645,-0.32428 0.0507,-0.0302 0.13224,-0.0812 0.32428,-0.13266 0.47173,-0.12644 1.28578,-0.21291 2.30758,-0.21291 z m 21.99013,0 h 12.36013 l -2.78256,5.47011 c -1.95973,3.85371 -5.15761,8.17734 -8.92575,12.05549 -1.61815,1.66542 -3.19276,3.18051 -4.4203,4.27292 -0.61375,0.5462 -1.14147,0.9871 -1.53622,1.284 -0.19735,0.14845 -0.36226,0.26136 -0.47822,0.32919 -0.11594,0.0679 -0.21942,0.0671 -0.095,0.0671 0.10674,0 0.0418,0.0194 -0.064,-0.1261 -0.10562,-0.1456 -0.23829,-0.39715 -0.36522,-0.71898 -0.25388,-0.64364 -0.49667,-1.56661 -0.64855,-2.57945 -0.52236,-3.48333 -3.81701,-15.72875 -5.18842,-19.30257 -0.0419,-0.10936 -0.0418,-0.16859 -0.0408,-0.17359 8.6e-4,-0.005 -0.0199,0.01 0.0393,-0.0327 0.11843,-0.0836 0.57943,-0.23621 1.42977,-0.32591 1.70067,-0.17937 4.95206,-0.21946 10.71582,-0.21946 z"
       id="path35"
       sodipodi:nodetypes="csssssssssssssssssssscssssscsccscccscccsssssssscsssssccssscccssccsssssssscccssssssssssssssscccssssssssssscccsssssssssscsssssscssssssccsssssssssscssccscsccccsccsccccsscssscssccscsccssssscscccccccsssscsssssscssccccsssssssssscsscc"
       inkscape:label="znak" /><path
       id="path5"
       style="opacity:1;font-size:133px;font-family:'New Rocker';-inkscape-font-specification:'New Rocker';letter-spacing:2.02104px;baseline-shift:baseline;white-space:pre;display:inline;overflow:visible;enable-background:accumulate;stop-color:#000000;stop-opacity:1;stroke-width:0.95000006;stroke-dasharray:none;stroke:#000000;stroke-opacity:1;fill:none"
       d="M 300.46643 329.922 L 297.23614 336.38259 C 296.5121 337.83068 295.54279 339.55725 294.34949 341.51767 L 294.32003 341.57658 L 294.28076 341.63549 C 293.17635 343.58944 291.98722 345.55352 290.70682 347.51679 L 290.68718 347.53643 L 290.67736 347.55606 C 289.44308 349.49565 288.25736 351.34336 287.11324 353.10353 L 287.06415 353.17226 L 287.02487 353.24099 C 285.95524 355.02371 285.10827 356.46068 284.47206 357.55132 L 282.52799 360.8798 L 285.53246 363.28534 C 286.70183 364.22084 287.4598 364.99048 287.72199 365.32759 L 287.89872 365.55342 L 288.09509 365.74979 C 289.00175 366.65645 290.14587 367.64677 291.62976 368.85244 L 294.75205 371.38562 L 297.59942 368.53825 C 298.00992 368.12775 298.42465 367.71723 298.84637 367.30111 L 298.84637 373.62424 L 298.83655 373.63406 C 296.8413 374.80369 293.5899 376.06013 289.23404 377.14909 C 285.09378 378.18416 279.94406 378.73969 273.82878 378.73969 L 272.41491 378.73969 C 271.75673 378.60171 271.25624 378.61205 270.7654 378.61205 L 265.13938 378.61205 L 266.41579 384.09079 C 266.42371 384.1247 266.43731 384.15518 266.44525 384.18897 L 258.95372 384.18897 C 258.88611 383.13652 258.84571 382.00942 258.84571 380.8114 C 258.84571 378.36464 258.93248 375.81651 259.10099 373.18241 C 259.30554 371.08085 259.60333 368.93246 259.91593 366.77091 C 260.91531 366.01381 261.95841 365.31754 262.86149 364.41447 C 264.27223 363.00372 265.50748 361.51108 266.56307 359.93722 C 267.62154 358.48465 268.56199 357.00788 269.36135 355.50907 C 270.10219 354.12 270.71888 352.90346 271.21705 351.80748 L 274.59462 344.38468 L 266.5238 345.53345 C 265.37087 345.69815 264.26287 345.82594 263.21495 345.90655 C 262.18449 345.98585 261.10987 346.02437 259.97484 346.02437 C 256.39383 346.02437 252.54841 345.65343 248.45772 344.90506 C 244.24086 344.04352 240.2561 343.05982 236.49875 341.94969 C 232.73481 340.83762 229.48073 339.69611 226.75878 338.54266 C 224.08982 337.37256 222.3053 336.29938 222.09498 336.1273 L 219.69926 334.15378 L 217.00899 335.72474 C 212.08676 338.61018 207.81754 340.53074 204.33327 341.53731 L 204.32346 341.54713 L 204.30382 341.54713 C 200.81679 342.57739 197.22966 343.09845 193.47399 343.09845 C 191.34039 343.09845 189.10505 342.97575 186.76794 342.72535 C 184.35619 342.46694 181.65457 342.12095 178.68729 341.68459 L 173.04164 340.85001 L 173.6013 346.53494 C 174.1074 351.69716 175.68195 356.19697 178.69711 359.57394 C 180.65158 361.76295 183.06686 363.35159 185.64863 364.62066 C 185.65463 364.91744 185.67808 365.21738 185.67808 365.51414 L 185.67808 365.67124 L 185.6879 365.83815 C 185.769 366.97399 185.81554 368.11016 185.81554 369.24518 C 185.81554 373.56963 185.40314 377.88564 184.56859 382.22527 L 184.55877 382.26454 L 184.54895 382.294 C 183.85713 386.21432 182.4329 389.70145 180.21898 392.90782 L 178.15709 395.89265 L 180.66082 398.52401 C 181.76513 399.6809 182.96673 401.87619 183.82238 405.2988 L 183.8322 405.34789 L 183.84202 405.39698 C 184.79079 408.87583 185.28534 412.68339 185.28534 416.8552 C 185.28534 420.5104 184.87488 424.06347 184.06784 427.53775 C 183.28299 430.82838 182.14618 433.43566 180.74918 435.4613 L 177.86254 439.65381 L 182.39869 441.9808 C 186.01353 443.82839 189.39337 446.19577 192.57068 449.12868 L 192.59032 449.14832 L 192.60996 449.16795 C 195.74865 451.99277 197.82425 454.89032 199.04109 457.89662 L 202.57576 466.62529 L 207.09228 458.36791 C 209.05399 454.78567 211.04521 451.61939 213.0423 448.8734 C 214.79017 446.47007 217.35719 444.05355 220.83821 441.70588 L 226.52314 437.86684 L 220.72039 434.22416 C 218.47814 432.81475 216.69243 430.68545 215.29075 427.38065 C 213.92734 423.95445 213.22886 420.26446 213.22886 416.18754 L 213.22886 415.35296 C 216.92854 415.45126 220.68978 415.54205 223.94086 415.72607 C 228.38136 415.97277 232.216 416.70864 235.45799 417.8665 L 238.56064 418.976 L 240.53417 416.34463 C 241.77666 414.68799 243.00493 413.21804 244.20629 411.93612 L 244.20629 411.9263 C 245.42657 410.63051 246.70715 409.50969 248.04534 408.53891 C 249.4372 407.5916 251.04549 406.72183 252.90551 405.94682 L 252.98405 405.91736 L 253.05278 405.87809 C 254.91679 405.02376 257.1862 404.21114 259.8472 403.46273 L 265.05102 401.99977 L 262.63566 397.16906 C 261.88968 395.67709 261.2756 394.27 260.77996 392.95691 L 269.67554 392.95691 C 270.57334 394.44311 271.59476 395.75286 272.80765 396.86468 L 272.8862 396.94323 L 272.96475 397.01196 C 274.45986 398.25788 276.18837 399.19959 278.05074 399.73169 L 278.22748 399.78079 L 278.40421 399.82006 C 280.05229 400.14968 281.76932 400.30117 283.5393 400.30117 C 286.28744 400.30117 289.3024 399.76868 292.8178 398.81857 C 294.13884 398.46154 295.34351 397.89916 296.62739 397.47343 L 296.62739 401.33211 C 295.98866 401.57698 295.57896 401.81468 294.7815 402.05868 C 292.99195 402.54418 290.97624 403.00447 288.71366 403.42346 C 286.47381 403.83825 284.0782 404.171 281.55595 404.42495 C 279.10921 404.59203 276.71111 404.67041 274.35898 404.67041 C 272.22538 404.67041 270.29322 404.55112 268.57587 404.31694 L 260.89778 403.26636 L 263.84334 410.4437 C 264.29132 411.53165 264.66012 412.88564 264.8841 414.52821 L 264.8841 414.54784 L 264.8841 414.55766 C 265.11642 416.18392 265.23757 417.9668 265.23757 419.90876 C 265.23757 423.38101 265.15595 426.85368 264.98229 430.32621 C 264.8215 433.45164 264.32993 435.89283 263.67643 437.59192 L 261.38871 443.55176 L 267.76093 443.65976 C 272.61571 443.74346 276.82918 444.29165 280.38755 445.24055 L 280.40719 445.24055 L 280.41701 445.25036 C 284.11207 446.21429 287.42161 447.59941 290.40244 449.4036 L 293.69165 451.39676 L 301.28137 442.26553 C 301.51963 442.60907 301.63799 442.975 301.89012 443.31612 C 303.66242 445.71394 305.71786 447.73674 308.05615 449.2956 L 312.26829 452.10369 L 314.52655 447.57735 C 314.88105 446.86834 315.54324 445.8094 316.50008 444.53361 C 317.43013 443.29354 318.49161 442.08062 319.68128 440.89094 C 320.90604 439.66618 322.11604 438.5818 323.30431 437.63119 L 323.31413 437.62137 L 323.32395 437.61155 C 324.46539 436.68414 325.40998 436.16451 326.00441 435.95222 L 328.9696 434.89182 L 328.9696 426.73263 L 325.50366 425.93733 C 324.89434 425.79671 324.56456 425.62903 324.29598 425.47586 C 324.29089 425.4546 324.17024 425.27108 323.99161 424.73947 C 323.9133 424.47135 323.8339 424.16296 323.75597 423.81653 L 333.76104 423.81653 L 333.76104 431.34734 C 333.76104 433.40477 333.41534 434.7192 333.17193 435.20602 L 333.14247 435.25511 L 333.11302 435.31402 C 332.98981 435.57804 332.91373 435.70329 332.87737 435.75585 L 330.16746 436.88498 L 330.16746 446.32058 L 363.57007 446.32058 L 363.57007 436.75734 L 360.81107 435.73622 L 360.81107 435.7264 C 360.77683 435.64991 360.70853 435.50593 360.60488 435.22565 C 360.29632 434.39139 359.9765 432.63336 359.9765 430.15929 L 359.9765 404.4544 L 369.13718 400.36008 L 369.13718 411.30773 L 369.13718 411.34701 C 369.22538 416.37491 369.27464 421.40037 369.27464 426.42826 C 369.27464 427.13298 369.1925 428.70145 369.01935 430.86623 C 368.84485 433.04751 368.62507 435.4571 368.36151 438.09266 C 368.10614 440.55779 367.76589 443.01811 367.34039 445.48601 L 367.34039 445.49583 L 367.34039 445.51546 C 366.91822 448.04849 366.4586 450.10101 366.00507 451.61277 L 365.23922 454.16558 L 371.18925 460.11561 L 374.34099 456.73804 C 375.47136 455.52693 376.79008 454.24906 378.29786 452.90881 C 379.78747 451.58471 381.36529 450.30041 383.03039 449.05013 C 384.7676 447.81113 386.44926 446.70045 388.07711 445.72165 C 389.72326 444.78299 391.29647 444.0578 392.77036 443.54194 L 396.43267 442.26553 L 395.67664 438.45595 C 395.50899 437.61768 395.33502 436.73217 395.16608 435.80495 L 395.16608 435.79513 C 395.02869 434.96936 394.90487 433.78353 394.82243 432.29973 C 394.73693 430.761 394.64466 428.74918 394.55733 426.31043 L 394.55733 416.71774 C 394.55733 412.1357 394.60793 408.3194 394.69479 405.27916 C 394.78149 402.24263 394.86408 399.70101 394.95007 397.62071 C 395.11721 395.62298 395.2845 394.03192 395.441 392.83909 C 395.67938 391.58415 395.95255 390.4154 396.25594 389.35351 L 397.28688 385.72066 L 393.87985 384.09079 C 392.1168 383.25124 390.58932 382.47022 389.2946 381.74416 C 387.97914 380.92061 386.70777 380.10031 385.4752 379.27971 C 384.37597 378.49284 383.26641 377.61568 382.14672 376.65816 C 380.9346 375.53223 379.60091 374.29098 378.13094 372.90749 L 374.89083 369.85393 L 371.82745 373.08422 C 368.74155 376.34157 365.76853 379.14472 362.92205 381.48888 C 362.06639 382.19354 360.9061 382.91006 359.9765 383.6195 L 359.9765 380.10447 L 355.24397 372.22019 L 352.04313 373.02531 C 349.27645 373.71699 346.09369 374.44929 342.51916 375.23448 C 338.96456 375.92737 335.67298 376.49445 332.67118 376.92327 L 328.84196 377.4731 L 328.84196 382.46091 L 321.71371 382.46091 C 317.72021 382.46091 314.55888 381.79691 312.1112 380.6543 C 310.63668 379.88881 309.13308 378.87373 307.61431 377.59092 L 307.61431 359.11247 C 307.85581 358.89485 308.09298 358.67872 308.33107 358.46444 C 310.03411 356.9317 311.59646 355.62836 312.98505 354.56649 L 313.04396 354.5174 L 313.11269 354.4683 C 314.56318 353.27379 315.66154 352.43523 316.20552 352.07258 L 322.21446 348.06663 L 315.94042 344.48287 C 315.47995 344.21975 314.59714 343.66638 313.46615 342.94136 C 312.36216 342.09446 311.19191 341.21817 309.9413 340.30018 C 308.78463 339.39078 307.66515 338.48561 306.59319 337.58044 C 305.6862 336.74414 305.05486 336.04973 304.7964 335.70511 L 300.46643 329.922 z M 213.00303 363.6388 C 213.28222 363.7293 213.59128 363.80216 213.86706 363.89409 L 213.97506 363.93336 L 214.07325 363.96282 C 216.23676 364.5686 218.40787 365.214 220.57311 365.90688 L 220.6713 365.94616 L 220.76948 365.96579 C 223.10257 366.59393 225.52826 367.22422 228.03519 367.85095 C 229.49536 368.216 231.13194 368.52912 232.69899 368.86226 C 232.72149 370.04835 232.7579 371.05719 232.7579 372.4362 L 232.7579 372.50493 L 233.03282 380.55612 C 233.12002 383.17319 233.16046 385.61302 233.16046 387.8611 L 233.16046 387.94947 L 233.16046 388.02801 C 233.21416 389.42335 233.27267 390.2784 233.32737 391.3074 C 233.0389 391.58825 232.7038 391.78582 232.42407 392.09288 C 232.30829 392.21014 232.25089 392.37424 232.13933 392.49544 C 231.97451 392.45164 231.85762 392.36132 231.68768 392.31871 C 230.09574 391.89684 228.35897 391.6096 226.45441 391.4154 C 224.58187 391.13916 222.6368 390.95004 220.6222 390.85575 C 218.59278 390.67448 216.63591 390.58083 214.75073 390.58083 C 214.1627 390.58083 213.60531 390.61854 213.03249 390.63974 C 213.00709 388.86698 212.96376 387.0743 212.96376 385.32792 L 212.96376 374.69446 L 212.96376 366.30944 C 212.96376 365.43191 212.99443 364.52539 213.00303 363.6388 z M 328.84196 384.49335 L 328.84196 385.7403 L 333.76104 387.87092 L 333.76104 415.04859 L 322.90175 415.04859 C 322.86412 413.49056 322.84284 411.74258 322.84284 409.8055 C 322.84284 403.44232 323.03253 398.6438 323.35341 395.56864 C 323.73431 392.72644 324.49726 390.74437 325.37602 389.48116 L 328.84196 384.49335 z M 296.76485 418.42616 L 296.76485 425.78023 C 295.73828 425.6495 294.49945 425.32829 293.56401 425.28931 C 293.00965 425.26521 292.49087 425.21218 291.94395 425.1813 L 292.05196 419.60438 C 293.01536 419.40442 293.83181 419.3215 294.89933 419.04473 L 294.96806 419.02509 L 295.0466 419.00545 C 295.60128 418.8411 296.20275 418.60359 296.76485 418.42616 z "
       inkscape:label="text" /></g></svg>
