<?xml version="1.0" encoding="UTF-8" standalone="no"?>
<svg
   version="1.2"
   viewBox="0 0 113.38583 113.38583"
   width="30mm"
   height="30mm"
   id="svg1"
   sodipodi:docname="Pradlena2ReminderTokenLaser.svg"
   inkscape:version="1.4.2 (2aeb623e1d, 2025-05-12)"
   xml:space="preserve"
   xmlns:inkscape="http://www.inkscape.org/namespaces/inkscape"
   xmlns:sodipodi="http://sodipodi.sourceforge.net/DTD/sodipodi-0.dtd"
   xmlns="http://www.w3.org/2000/svg"
   xmlns:svg="http://www.w3.org/2000/svg"><sodipodi:namedview
     id="namedview1"
     pagecolor="#ffffff"
     bordercolor="#666666"
     borderopacity="1.0"
     inkscape:showpageshadow="2"
     inkscape:pageopacity="0.0"
     inkscape:pagecheckerboard="0"
     inkscape:deskcolor="#d1d1d1"
     inkscape:zoom="6.0458509"
     inkscape:cx="52.763458"
     inkscape:cy="58.139045"
     inkscape:window-width="1920"
     inkscape:window-height="940"
     inkscape:window-x="0"
     inkscape:window-y="0"
     inkscape:window-maximized="1"
     inkscape:current-layer="layer2"
     showgrid="false"
     inkscape:document-units="mm" /><defs
     id="defs1"><clipPath
       clipPathUnits="userSpaceOnUse"
       id="cp1"><path
         d="m 275.5,535.5 c -143.78,0 -260,-116.22 -260,-260 0,-143.78 116.22,-260 260,-260 143.78,0 260,116.22 260,260 0,143.78 -116.22,260 -260,260 z"
         id="path1" /></clipPath><clipPath
       clipPathUnits="userSpaceOnUse"
       id="cp1-9"><path
         d="m 275.5,535.5 c -143.78,0 -260,-116.22 -260,-260 0,-143.78 116.22,-260 260,-260 143.78,0 260,116.22 260,260 0,143.78 -116.22,260 -260,260 z"
         id="path1-3" /></clipPath></defs><style
     id="style1">
		tspan { white-space:pre } 
		.s0 { fill: none;stroke: #ff0000;stroke-miterlimit:100 } 
	</style><g
     inkscape:groupmode="layer"
     id="layer2"
     inkscape:label="Content"
     style="display:inline"
     transform="scale(0.1989225)"><path
       id="Path 0-9"
       style="display:inline;opacity:1;fill:none;stroke:#000000;stroke-width:0.941027;stroke-miterlimit:100;stroke-opacity:1"
       class="s0"
       inkscape:label="vnitrni kruh"
       d="m 290.45154,40.854873 c -10.90181,-0.188288 -21.52495,-0.178055 -23.60373,0.01964 -2.06936,0.197699 -7.39036,0.828968 -11.80187,1.384411 -4.42092,0.564859 -10.35625,1.456543 -13.21573,1.99316 -2.85008,0.527201 -10.93081,2.382536 -17.93844,4.133598 -7.00762,1.741644 -18.06582,5.171051 -24.55612,7.609356 -6.49027,2.438305 -16.48028,6.779437 -22.18986,9.63197 -5.71898,2.861951 -14.63139,7.763598 -19.8236,10.89856 -7.87387,4.754053 -12.66369,7.923648 -19.56485,13.375816 1.82535,2.129564 9.99311,8.782187 15.4632,12.649696 3.70486,2.61945 5.52229,3.09083 7.6879,3.00447 1.85755,-0.0741 3.26772,-0.13482 4.87981,0.54984 1.61209,0.68464 2.74378,2.49445 3.09283,3.82922 0.0737,0.28193 0.0771,0.34756 0.0786,0.36329 h 0.01 0.01 v 0.01 h 0.01 c 0.0104,0.006 0.0308,0.0134 0.0491,0.0295 0.14631,0.12844 0.90577,0.61227 2.651,1.23713 3.49046,1.24975 10.57808,3.11849 23.95719,6.52932 5.53858,1.41199 8.94554,1.61454 9.82835,1.36478 0.19309,-0.0546 0.2815,-0.0744 0.31419,-0.0884 l 0.01,-0.01 v -0.01 h 0.01 v -0.01 c 0.006,-0.0208 0.007,-0.0554 0.0393,-0.11782 0.10268,-0.19955 0.30437,-0.9373 0.30437,-2.20917 0,-1.21157 0.28031,-2.98958 1.79679,-4.11396 1.5165,-1.12437 2.98654,-0.94973 4.21215,-0.77566 0.69035,0.098 1.44539,0.22977 2.29753,0.67748 0.85215,0.44771 1.68262,1.31641 2.10117,2.19935 0.83708,1.76588 0.73639,3.22423 0.73639,5.41982 v 2.49391 l 5.41,1.39423 c 4.50987,1.15978 6.70455,1.56421 7.45226,1.62987 0.80977,-2.22096 2.75579,-3.97802 5.10563,-4.04523 2.26392,-0.0648 4.35039,1.63976 5.14491,3.79977 0.0739,0.0434 0.20894,0.10731 0.41238,0.18655 0.78323,0.30509 2.28739,0.65513 4.32015,0.87385 4.06549,0.43742 10.24661,0.44085 18.14463,-0.0589 l 8.84649,-0.55966 -0.12765,-0.78548 c -0.26322,-1.64612 -0.40316,-2.95372 -0.13745,-4.37906 0.26569,-1.42536 1.49793,-3.14838 2.96519,-3.7114 0.78182,-0.30003 1.63948,-0.55795 2.73937,-0.45166 1.0999,0.1063 2.36857,0.81429 3.04374,1.70843 1.35033,1.78827 1.26659,3.39212 1.26659,5.41 0,0.32866 0.0191,0.30707 0.0393,0.5302 0.65969,-0.1059 1.70368,-0.29106 3.0732,-0.75602 3.19163,-1.08359 7.35897,-1.87534 10.43709,-1.87534 1.79815,0 5.62173,-0.75409 7.17734,-1.40405 1.05507,-0.44084 1.36149,-0.64344 1.45314,-0.67748 h 0.01 0.01 0.01 c -0.0123,-0.0634 -0.005,-0.0466 -0.0295,-0.14728 -0.16952,-0.67543 -0.3214,-1.26917 -0.36328,-2.03243 -0.0419,-0.76325 0.0672,-1.93696 0.86403,-2.93574 0.79683,-0.99876 1.87685,-1.34359 2.62154,-1.48259 0.7447,-0.13907 1.36693,-0.14728 2.07171,-0.14728 0.70459,0 1.32756,0.008 2.07171,0.14728 0.74413,0.13888 1.82421,0.48592 2.62154,1.48259 0.66478,0.83098 0.80562,1.73874 0.82476,2.47427 1.074,-0.3727 2.0353,-0.70202 3.29902,-1.14877 2.20401,-0.77913 4.46726,-1.48932 6.4115,-2.01279 1.40789,-0.37907 2.40553,-0.52135 3.48557,-0.66766 -0.29258,-1.06597 -0.54575,-2.17623 0.39274,-3.7605 0.58352,-0.98502 1.67419,-1.60339 2.44482,-1.81642 0.77063,-0.21276 1.36561,-0.21601 1.97352,-0.21601 1.21188,0 2.38932,0.29022 3.43648,1.03094 0.37002,0.26175 0.66841,0.68732 0.97204,1.08986 0.76641,-0.2099 1.60437,-0.42045 3.73103,-1.2175 3.95473,-1.48215 8.81617,-2.99483 11.62514,-3.51503 1.68017,-0.31114 4.49693,-1.83611 4.6147,-1.95389 1.91508,-1.9151 4.41727,-3.05468 7.0497,-3.63285 0.27231,-0.0598 0.27946,-0.0885 0.46147,-0.14728 -0.0164,-0.0802 -0.0104,-0.069 -0.0294,-0.15709 -0.32683,-1.48778 -0.93041,-2.62778 0.0785,-4.663801 0.50449,-1.018011 1.64851,-1.793406 2.47427,-2.042253 0.82576,-0.249009 1.43897,-0.255281 2.05207,-0.255281 1.24649,0 2.7277,0.306837 3.8685,1.404049 0.60522,0.582094 0.96711,1.290786 1.19786,2.012796 0.3275,-0.1492 0.53322,-0.23944 0.9033,-0.41238 2.16441,-1.011477 4.99906,-2.398356 7.85482,-3.83904 2.85576,-1.440683 5.74077,-2.936415 8.03155,-4.172872 2.09736,-1.13206 3.96217,-2.288864 4.17288,-2.405538 v -0.0098 -0.0098 c 0.0536,-0.211874 0.78548,-1.588592 0.78548,-2.022616 0,-2.429338 1.03095,-4.717849 3.3383,-5.704561 1.15367,-0.493356 2.71021,-0.485551 3.91759,0.19637 0.25394,0.143429 0.40488,0.379536 0.61856,0.559656 0.74371,-0.445473 3.14468,-1.741128 4.51196,-2.815635 2.67762,-2.104265 -9.46194,-6.373078 -15.06936,-9.179209 -5.70957,-2.852533 -15.69955,-7.193665 -22.18986,-9.63197 -6.49027,-2.438305 -17.53866,-5.877933 -24.54631,-7.628993 -7.00761,-1.751061 -15.29628,-3.616618 -18.40973,-4.153235 -3.12287,-0.536614 -8.43484,-1.437716 -11.81168,-1.99316 -3.37683,-0.564857 -15.05877,-1.176489 -25.96999,-1.364774 z m 132.2555,41.777813 c -6.05477,4.635152 -7.58396,6.358817 -11.43858,9.04286 -0.79452,0.553225 -1.35178,1.105362 -1.71824,1.521871 1.45213,0.798184 2.46178,2.003634 2.68045,3.819405 l -0.01,-0.0098 v -0.0098 h -0.01 v 0.0098 0.0098 0.0098 c -10e-4,0.04515 0.0107,0.131459 0.0491,0.216007 v 0.0098 c 0.004,0.009 0.0147,0.02059 0.0196,0.02945 0.1572,0.280005 0.46278,0.759399 0.86403,1.305864 0.80249,1.092937 1.98521,2.497397 3.26956,3.848867 1.47911,1.55639 2.77025,3.15115 3.74086,4.58525 0.48531,0.71705 0.89394,1.3849 1.2175,2.08152 0.25988,0.55955 0.52761,1.18078 0.50074,2.20917 0.0494,0.0549 0.1356,0.14489 0.19637,0.17673 1.45972,0.76596 1.56236,1.31922 2.06189,2.03244 0.49953,0.71322 1.011,1.56702 1.58078,2.57245 1.13957,2.01087 2.47229,4.62405 3.8685,7.56026 2.79243,5.87245 5.82849,12.99615 7.87446,18.80247 0.74739,2.12103 2.77069,7.8332 4.48706,12.68554 1.50793,4.26301 2.39888,7.25986 2.64118,9.4356 0.0606,0.54393 0.17769,0.98059 -0.0884,1.9637 -0.13303,0.49156 -0.42249,1.33894 -1.47278,1.98334 -1.05029,0.64441 -2.42369,0.46424 -3.05356,0.17674 -0.57218,-0.26118 -0.86706,-0.4976 -1.09968,-0.72657 -0.0703,0.0847 -0.12323,0.19294 -0.19637,0.27491 -0.30543,0.34258 -0.62247,0.6737 -1.10949,1.00149 -1.84195,1.23981 -0.72444,-0.27233 -5.28236,2.28772 -1.05688,0.59361 -1.92313,1.06264 -2.88665,1.41387 -0.96351,0.35118 -2.28411,0.67326 -3.73104,0.0687 -1.44692,-0.60455 -2.18058,-1.87568 -2.55281,-2.83756 -0.37224,-0.96187 -0.56239,-1.89128 -0.77567,-3.0241 -1.51478,-8.04579 -3.88864,-14.95245 -6.45077,-19.62723 -1.28106,-2.33739 -2.61148,-4.10685 -3.76049,-5.16454 -1.14902,-1.05769 -1.98674,-1.3255 -2.44481,-1.3255 -1.21249,0 -0.97833,-0.16679 -1.46296,0.82475 -0.48464,0.99154 -0.98402,3.55994 -1.07022,7.63881 -0.29569,13.99032 -0.71282,23.18822 -1.41387,28.67991 -0.35053,2.74584 -0.46106,4.3833 -1.65933,6.21512 -0.29957,0.45795 -0.73333,0.99431 -1.51205,1.40405 -0.77873,0.40976 -1.92792,0.50556 -2.74919,0.24547 -1.10096,-0.34867 -1.61053,-0.87468 -2.00298,-1.41387 -0.38687,0.04 -0.75059,0.11762 -1.15858,0.0589 -0.47457,0.63694 -1.10344,1.22169 -2.22881,1.47278 -0.50106,0.11177 -1.03953,0.0736 -1.56114,-0.0393 -0.1084,0.20361 -0.17524,0.48506 -0.29456,0.67748 -0.30433,0.4908 -0.57611,0.96561 -1.34514,1.52187 -0.38451,0.27814 -0.96047,0.61565 -1.8557,0.66766 -0.0693,0.004 -0.14476,-0.0376 -0.216,-0.0393 -0.32224,0.44035 -0.59973,0.82721 -0.97204,1.22731 -0.39934,0.42915 -0.91616,1.19658 -2.53318,1.33532 -0.8085,0.0694 -1.73733,-0.24765 -2.27789,-0.6382 -0.54058,-0.39055 -0.8013,-0.77065 -0.99167,-1.07022 -0.38075,-0.59915 -0.50875,-1.00748 -0.6873,-1.47278 -0.52984,-1.38074 -0.45845,-2.4264 -0.34365,-3.58376 0.1148,-1.15737 0.37705,-2.33671 0.82476,-3.48558 0.26479,-0.6795 0.84105,-5.06219 0.7953,-9.87743 -0.0457,-4.81524 -0.46281,-10.43974 -1.2175,-15.1598 -0.64184,-4.01418 -1.57228,-9.86919 -2.07171,-13.00954 -0.61424,-3.86247 -3.65062,-10.83686 -7.00061,-16.41657 -1.67499,-2.78986 -3.43476,-5.29079 -4.89944,-6.96133 -0.73233,-0.83528 -1.39922,-1.46203 -1.83606,-1.78697 -0.0841,-0.0627 -0.0947,-0.0548 -0.1571,-0.0884 -0.14261,0.0422 -0.23357,0.0675 -0.42219,0.12764 -0.72886,0.23231 -1.76035,0.58896 -2.98484,1.03095 -2.44897,0.88396 -5.67696,2.12114 -9.06249,3.47575 -3.44255,1.37743 -6.72218,2.62803 -9.24905,3.54449 -1.26343,0.45823 -2.33674,0.82783 -3.1812,1.09967 -0.0101,0.003 -0.01,0.006 -0.0196,0.01 -2.1e-4,0.61882 -0.006,1.28208 0.11782,2.20917 0.33014,2.4882 1.32439,5.63206 1.76734,6.32313 0.0517,0.0807 1.44203,1.86659 3.15174,3.85868 1.70971,1.99209 3.89294,4.45843 6.10712,6.88278 7.08308,7.7554 12.38073,16.63776 15.26781,24.88014 2.88703,8.24237 3.65906,16.02613 0,21.61057 -0.94038,1.4352 -2.1782,2.8531 -3.93723,3.56412 -1.75856,0.7107 -3.47703,0.73641 -5.80275,0.71675 l -17.16277,-0.13746 12.44988,-6.75514 c -1.22947,-0.0839 -2.51643,-0.15288 -3.42666,-0.24546 -0.0119,-8.6e-4 -1.89815,0.60209 -2.19935,0.9033 -1.57313,1.57314 -3.7391,2.62858 -6.06785,2.84737 -2.32875,0.2188 -4.76226,-0.21152 -7.6879,-1.05058 -3.91858,-1.12384 -10.95011,0.16106 -21.40438,5.20382 l -13.20591,6.37222 -0.6873,-8.72867 c -0.25703,-3.27383 0.48537,-8.33457 1.54151,-12.78371 3.5163,-14.81313 4.47299,-24.50326 3.43648,-32.93133 -0.34066,-2.77006 -0.66666,-4.42771 -0.92294,-5.38055 h -0.01 -0.01 -0.01 c -0.006,-3.1e-4 -0.0239,-0.009 -0.0294,-0.01 h -0.01 c -0.92171,-0.33916 -1.55475,-1.00612 -1.91461,-1.58078 -0.71974,-1.14933 -0.77132,-2.07386 -0.78548,-3.00447 -0.006,-0.39868 0.10779,-0.81273 0.14727,-1.2175 -0.75131,0.20141 -0.65993,0.13182 -1.64951,0.43202 -3.31391,1.0053 -7.46471,1.78821 -10.37818,1.79679 -0.60434,0.002 -0.80744,0.0598 -1.20767,0.0982 0.14934,0.31219 0.16149,0.43706 0.41237,0.86403 l 3.27939,5.57693 -5.46892,4.88962 c -1.64481,1.47346 -1.96912,1.8363 -2.19935,2.53318 -0.23022,0.69687 -0.36328,2.45008 -0.36328,6.03839 0,8.11134 2.23293,20.92102 4.78162,27.73733 1.97879,5.29214 4.05222,11.26381 5.64565,16.13183 0.79671,2.43402 1.46816,4.58732 1.95389,6.26422 0.24287,0.83845 0.4441,1.55703 0.58911,2.16007 0.145,0.60305 0.27492,0.86998 0.27492,1.80661 0,0.52008 0.0867,1.10962 -0.49093,2.15026 -0.13457,0.2424 -0.51412,0.43744 -0.76585,0.68729 0.55395,1.08632 1.11419,2.16208 1.64952,3.45612 1.48168,3.58167 2.83233,7.71868 3.46593,11.21276 0.17241,0.95078 1.14867,4.72228 2.04226,7.66826 1.12557,3.7108 2.08121,5.36228 1.54151,8.12974 -0.26985,1.38373 -1.71401,2.88456 -2.85719,3.29902 -2.02033,0.73248 -2.52015,-0.0444 -5.81257,1.55133 -1.45849,0.70688 -3.14011,1.70266 -4.55579,2.71973 l -8.11992,5.8322 -4.43797,-5.53765 c -1.98909,-2.47635 -4.88827,-7.71299 -7.37372,-12.78371 -5.43217,-11.08252 -7.43713,-21.61894 -7.47189,-38.45915 l -0.0196,-9.79889 -1.15858,-0.47129 c -1.28637,-0.53284 -2.41237,-1.25267 -3.3383,-2.16989 -0.25257,0.86146 -0.43857,1.93274 -0.58911,3.79977 -0.27118,3.36342 -0.33812,8.92353 -0.33383,18.54718 l 0.01,20.91346 3.88813,6.12676 c 2.15829,3.40198 3.32521,4.83247 3.87832,7.05951 0.27655,1.11352 -0.0423,2.97413 -0.88367,3.92741 -0.10797,0.12235 -0.19153,0.15462 -0.29456,0.25528 0.0797,0.1035 0.16727,0.14814 0.24547,0.2651 0.78178,1.16954 0.74254,3.41873 0.0196,4.5558 -1.44581,2.27413 -3.27475,2.92301 -6.30349,4.5067 -3.35387,1.75369 -5.90932,2.84699 -8.46356,3.0732 -2.0081,0.17784 -4.14763,-0.68332 -5.56711,-2.09135 -0.473,0.40026 -0.94695,0.81664 -1.39423,1.12913 -0.31607,0.22083 -0.62227,0.41221 -0.97203,0.59893 -0.34976,0.18673 -0.48128,0.52038 -1.8557,0.52038 -0.97527,0 -1.92737,-0.44818 -2.51354,-0.95239 -0.58618,-0.50422 -0.91546,-1.03553 -1.17822,-1.54151 -0.52553,-1.01198 -0.80124,-2.04113 -1.05059,-3.29902 -0.49868,-2.51581 -0.79736,-5.91694 -0.97203,-10.42727 -0.19492,-5.03287 -0.84251,-13.49246 -1.42369,-18.52756 -0.58576,-5.07496 -1.30024,-13.10714 -1.83606,-20.05924 -0.26791,-3.47605 -0.48969,-6.67283 -0.62839,-9.10177 -0.0693,-1.21447 -0.11505,-2.23489 -0.13745,-3.0241 -0.0113,-0.39461 -0.0239,-0.72802 -0.0196,-1.03095 0.003,-0.19901 -0.0132,-0.30319 0.0196,-0.56947 h 0.01 0.01 v -0.01 h 0.01 v -0.01 c 0,-0.006 -0.006,-0.0804 -0.01,-0.18655 -0.008,-0.21421 -0.0302,-0.56169 -0.0589,-1.00149 -0.0579,-0.88544 -0.14733,-2.16119 -0.27492,-3.70158 -0.25517,-3.08079 -0.63366,-7.25225 -1.07022,-11.75278 -1.09117,-11.24881 -1.63264,-19.94773 -1.61023,-26.37255 0.0205,-5.88312 0.17717,-9.64149 1.8557,-12.6168 -0.95544,-0.19527 -1.8933,-0.38688 -3.02411,-0.58911 -2.53858,-0.45399 -4.52747,-0.68572 -5.89111,-0.84439 -0.22351,0.84508 -0.46741,1.90437 -0.62839,3.35793 -0.40134,3.62409 -1.24749,9.18663 -1.92443,12.66589 -0.31836,1.63637 -0.59049,2.86369 -0.98185,3.93723 -0.19569,0.53677 -0.36905,1.04255 -0.93276,1.71824 -0.28185,0.33785 -0.69309,0.76147 -1.41387,1.05059 -0.72077,0.28907 -1.74996,0.28479 -2.46445,0.01 -1.42898,-0.54995 -1.72747,-1.3404 -2.02261,-1.88515 v -0.01 h -0.01 c -0.58626,3.05581 -1.16654,6.21181 -1.97352,9.26868 -1.78707,6.76945 -2.63686,11.7628 -4.98781,29.33775 -0.20723,1.54912 0.20518,6.49414 1.08003,9.79889 1.05469,3.98409 1.86053,9.63948 1.88516,13.47101 0.0332,5.16115 1.06722,11.08738 2.70991,16.25947 1.64268,5.17209 3.99159,9.61844 5.97948,11.69386 1.4173,1.4797 2.76886,2.66763 3.0732,4.88963 0.30434,2.22198 -0.50112,3.6443 -1.40405,5.90093 -0.74193,1.85427 -0.91883,2.6772 -0.95239,2.759 0.0614,0.072 0.0225,0.0323 0.16691,0.17674 0.79316,0.79315 1.53581,1.62294 1.9637,2.9161 0.4279,1.29317 0.13688,3.1031 -0.6382,4.21215 -1.55016,2.21808 -3.6253,2.94154 -6.74532,4.22196 l -7.46208,3.06338 -4.04523,-5.04672 c -2.02385,-2.5247 -4.21488,-7.04415 -5.83221,-11.26185 -2.33261,-6.08148 -2.96519,-10.13208 -2.96519,-18.85156 0,-4.94295 -0.0922,-7.57413 -0.34365,-8.73849 -0.25146,-1.16435 -0.28182,-1.06742 -1.53169,-2.23862 -1.27913,-1.19863 -2.35097,-2.4224 -2.94555,-4.02559 -0.53135,-1.4327 -0.51397,-2.90655 -0.32401,-4.36925 -0.87095,0.65976 -1.78308,1.24227 -2.67064,1.69861 -0.51027,0.26236 -0.95741,0.50347 -1.49242,0.6873 -0.008,0.40557 -0.0158,0.79483 -0.0884,1.22731 -0.0931,0.5552 -0.12956,1.30054 -1.08985,2.23862 -0.48016,0.46904 -1.2879,0.87202 -2.03244,0.94258 -0.74453,0.0706 -1.3379,-0.11473 -1.74769,-0.29455 -0.81959,-0.35965 -1.1565,-0.72448 -1.51205,-1.08004 -1.95564,-3.08335 -1.12907,-5.94285 -0.1671,-9.2985 0.0137,-0.1649 0.0898,-0.35817 0.108,-0.5302 -0.92505,-0.17431 -1.83668,-0.5128 -2.25826,-0.99167 -0.45021,-0.51139 -0.54268,-0.8563 -0.69711,-1.22732 -0.16948,0.003 -0.55279,-0.0387 -1.73788,0.14728 -0.84481,0.13256 -1.7625,0.39937 -2.3859,0.66766 -0.34601,0.14891 -0.60008,0.40756 -0.65784,0.45165 0.007,-0.0166 0.0277,-0.0601 0.0687,-0.12764 -0.40875,0.66208 -0.87987,1.29832 -1.75752,1.87534 -1.02964,0.67695 -3.05573,0.79436 -4.20233,0.12764 -0.68315,-0.39725 -1.15712,-0.83148 -1.55132,-1.28623 -0.3374,3.23935 -0.73315,7.10551 -1.02113,9.8578 -0.29339,2.80404 0.0422,13.15586 0.71675,22.4255 0.33726,4.63483 0.73653,9.10587 1.13895,12.47935 0.20121,1.68674 0.40987,3.10715 0.58911,4.0845 0.0876,0.47768 0.17059,0.84814 0.22583,1.05058 v 0.01 c 0.001,0.002 -0.001,0.008 0,0.01 0.0143,0.0514 0.0516,0.10318 0.0687,0.12764 v 0.01 h 0.01 v -0.01 c 0.67499,1.10173 0.71975,2.08216 0.71675,3.03393 -0.003,1.09106 -0.20529,2.179 -0.60875,3.26956 -0.23989,0.64851 -0.41838,1.14993 -0.64802,1.65933 -0.11483,0.2547 -0.21957,0.5117 -0.49093,0.89349 -0.27136,0.38179 -0.77789,1.18821 -2.23862,1.40405 -1.46073,0.21584 -2.6547,-0.75604 -3.03392,-1.23714 -0.37923,-0.48109 -0.47762,-0.76506 -0.58911,-1.03094 -0.0434,-0.10342 -0.0705,-0.20554 -0.10801,-0.30437 l -0.0393,-0.0196 -0.14728,-0.47129 c -0.11887,0.0377 -0.14093,0.0182 -0.27492,0.0687 -1.61492,0.60954 -3.31525,1.24836 -5.29218,0.57929 -1.97694,-0.66907 -2.90368,-1.97018 -4.20233,-3.53467 -1.21894,-1.46845 -2.17748,-2.84443 -2.651,-4.54597 -0.47336,-1.70156 -0.3385,-3.39745 0,-5.16455 0.12033,-0.62818 0.35872,-2.97549 0.51056,-5.72419 0.15184,-2.7487 0.26383,-6.04323 0.29456,-9.18032 0.0319,-3.26414 0.17946,-6.40709 0.40256,-8.91522 0.11154,-1.25407 0.23806,-2.34521 0.39274,-3.25975 0.13644,-0.80671 0.0532,-1.26481 0.61856,-2.2779 l 0.01,-0.01 h 0.01 c 0.0174,-0.028 0.0444,-0.081 0.0589,-0.13746 0.0467,-0.19297 0.11445,-0.55695 0.18655,-1.0113 0.14423,-0.90873 0.29979,-2.21855 0.45166,-3.78013 0.30373,-3.12317 0.58834,-7.26505 0.76584,-11.61532 0.48544,-11.8971 0.90423,-17.12827 2.84737,-20.84472 0.64491,-1.23347 1.50224,-4.70969 1.50224,-6.20531 0,-3.46287 1.36609,-7.25537 3.42666,-10.73164 1.34465,-2.2685 1.83764,-3.19933 2.29754,-5.91075 0.45989,-2.71142 0.74217,-7.18786 1.13894,-15.40526 0.67405,-13.96002 1.12578,-22.23467 1.58079,-27.12858 0.2275,-2.44696 0.42303,-4.00803 0.76584,-5.28237 0.1714,-0.63716 0.32511,-1.22742 0.93276,-2.00298 0.17142,-0.21879 0.56405,-0.39259 0.88367,-0.58911 0.009,-0.0777 0.01,-0.0249 0.01,-0.11782 0,-0.2185 0.0185,-0.31508 0.0294,-0.34365 h -0.01 -0.01 -0.01 l -0.01,-0.01 -0.01,-0.01 c -0.0174,-0.0112 -0.0414,-0.0221 -0.0687,-0.0491 -0.21858,-0.21586 -1.18519,-0.85684 -3.04374,-1.67897 -8.62978,-3.81736 -20.14976,-12.74927 -28.66027,-22.327319 l -0.71675,-0.66766 c -0.54135,0.450817 -1.06529,0.885149 -1.55133,1.296049 -4.41153,3.73748 -11.02011,9.92374 -14.68851,13.74593 -3.66844,3.83162 -9.84111,10.79508 -13.716475,15.47399 -3.875363,4.67891 -10.452824,13.61098 -14.61978,19.84324 -4.166956,6.24167 -10.173882,16.44893 -13.35319,22.6906 -3.179298,6.23229 -7.692785,16.0143 -10.044349,21.73821 -2.351553,5.71447 -5.806243,15.71363 -7.678085,22.2095 -1.871842,6.49587 -4.42408,17.3352 -5.675106,24.09465 -1.241622,6.75007 -2.694556,17.39111 -3.240112,23.62337 -0.545566,6.2417 -1.00149,15.80663 -1.00149,21.26692 0,5.46028 0.455924,15.02523 1.00149,21.26692 0.545556,6.23225 1.99849,16.8639 3.240112,23.62337 1.251026,6.75947 3.740641,17.38167 5.527828,23.62336 1.796583,6.23227 5.033542,15.80664 7.196977,21.26692 2.163425,5.45089 6.790273,15.45004 10.279994,22.2095 3.480296,6.75004 9.704144,17.39109 13.814661,23.62336 4.110516,6.24169 11.580208,16.23141 16.603122,22.2095 5.013523,5.97808 12.680053,14.26825 17.035133,18.42937 4.34568,4.16113 11.52397,10.47164 15.93547,14.02085 4.41153,3.53978 12.69075,9.57065 18.40973,13.40228 5.70958,3.82219 16.12479,9.9459 23.13243,13.59866 7.00764,3.64332 18.48127,8.80339 25.48889,11.45821 7.01703,2.65483 18.5009,6.2813 25.50852,8.05119 7.00763,1.76988 18.48126,4.15346 25.48889,5.302 10.68546,1.74165 16.50049,2.08153 35.8867,2.08153 19.38622,0 25.19142,-0.33988 35.87688,-2.08153 7.00764,-1.14854 18.49109,-3.53212 25.4987,-5.302 7.00765,-1.76989 18.48166,-5.39636 25.4987,-8.05119 7.00762,-2.65482 18.26394,-7.70083 25.0176,-11.20293 6.75368,-3.51156 17.15952,-9.63522 23.13244,-13.59866 5.97295,-3.96341 14.4695,-10.07731 18.88102,-13.58883 4.41152,-3.51154 12.92854,-11.31395 18.92029,-17.32969 5.99176,-6.01573 13.78315,-14.5541 17.31988,-18.96939 3.53676,-4.42474 9.80358,-13.13967 13.9423,-19.37194 4.13873,-6.24167 10.88153,-18.14808 14.97324,-26.46092 4.08228,-8.31282 8.98871,-19.37908 10.88875,-24.57576 1.90947,-5.19669 4.88653,-14.97873 6.60786,-21.73821 1.72133,-6.75947 4.10702,-18.44839 5.29219,-25.97981 1.80599,-11.42897 2.16007,-17.39824 2.16007,-35.91616 0,-18.3014 -0.3602,-24.54311 -2.08153,-35.44487 -1.14756,-7.27725 -3.53362,-18.96615 -5.302,-25.97981 -1.75896,-7.02307 -4.74708,-17.01279 -6.64714,-22.2095 -1.90005,-5.19671 -6.91083,-16.48045 -11.1342,-25.05687 -4.2234,-8.57644 -10.97644,-20.47301 -14.99289,-26.4511 -4.01644,-5.97807 -10.2096,-14.47472 -13.75575,-18.8712 -3.54615,-4.39646 -9.84366,-11.57786 -14.00121,-15.96491 -4.15756,-4.38706 -11.16065,-11.01897 -15.57218,-14.73761 -4.42089,-3.728071 -11.42446,-9.344375 -15.58199,-12.479341 -1.93599,-1.463124 -4.64413,-3.357758 -7.50135,-5.282366 z"
       sodipodi:nodetypes="cccccscscssssccccccssscccccssssssscccscsscccssssscssscccccsscscscsscscsscsscsccscsscssscccssscscssccccsccccccccccsssssccsssssssssccsssssssssssssssccscssccssssssssssssscsssscccssssscccccssscccssccccccsscssccccsssssssscsssssccccsccccscccssccssscsssssssssssscccccsccssscscsssssscccssssssssccssccccsssscscsssssccscssccsscsssscccccccsssssssccccsscsssssccccssssssssssscscccccccsccccscccsccsccccccccccccscscsccsssccccscsccsssssccccs" /><path
       id="path10"
       style="font-size:106.743px;font-family:'New Rocker';-inkscape-font-specification:'New Rocker';letter-spacing:4.32329px;baseline-shift:baseline;white-space:pre;display:inline;overflow:visible;opacity:1;vector-effect:none;fill:none;stroke:#000000;stroke-width:1.05903;stroke-opacity:1;enable-background:accumulate;stop-color:#000000;stop-opacity:1"
       d="m 414.91987,344.27685 v 2.54752 l 4.19041,1.80926 v 14.77562 h -10.05491 c 0.0501,-3.81397 0.19581,-6.75974 0.40554,-8.77595 0.30913,-2.29218 0.91622,-3.8256 1.5389,-4.72071 z m -104.96251,2.96689 -0.50482,7.11921 h 9.37903 v 10.10689 h -10.95953 c 0.052,-1.40821 0.11498,-2.59275 0.19755,-3.55612 l 0.48872,-5.62535 -5.73972,1.22698 -15.24353,1.14378 c -1.57695,0.2523 -3.11447,0.0959 -4.52314,0.40552 -0.0208,-0.771 -0.0623,-1.54781 -0.0623,-2.31877 v -0.13516 c 0.65652,0.22238 1.31848,0.46836 1.97563,0.67587 l 0.0313,0.0106 0.0312,0.0106 c 1.13741,0.34122 2.09078,0.38011 3.34817,0.39513 l 13.62143,-1.22697 c 0.68518,-0.38633 1.5841,-0.35921 2.19399,-0.86303 l 0.0416,-0.0416 4.64854,-7.26856 1.78815,-2.7972 2.13161,-5.07425 -6.70674,-0.47831 c -6.48194,-0.4667 -11.69496,-1.39872 -15.51387,-2.58911 v -5.85418 c 4.20479,-4.46547 7.48281,-7.9764 9.85734,-10.55401 l 0.0416,-0.0416 c 2.68074,-2.82981 4.56855,-4.83546 5.63574,-5.97889 l 3.55613,-3.80567 -4.07603,-3.25459 c -1.04868,-0.83893 -1.80453,-1.51339 -2.194,-1.90284 -0.67403,-0.67405 -1.57148,-1.53397 -2.72428,-2.60992 l -3.03623,-2.82827 -3.25457,2.57872 c -1.77097,1.40202 -3.7006,2.87943 -5.78131,4.43996 -1.05059,0.77812 -2.02731,1.48843 -3.03624,2.22519 -1.05738,-0.74322 -2.07139,-1.46049 -3.1714,-2.24598 -2.04695,-1.53582 -3.90591,-2.9879 -5.56295,-4.35678 l -3.17141,-2.6099 -3.08821,2.69308 c -1.24867,1.09258 -2.19749,1.96873 -2.94264,2.7139 -0.36494,0.36492 -1.14838,1.08536 -2.23559,2.02761 l -3.92006,3.38977 3.67051,3.6705 c 2.5889,2.5889 5.29386,5.41382 8.12087,8.464 l 0.0416,0.0416 0.0416,0.0416 c 2.67511,2.74371 5.32262,5.65669 7.94412,8.73436 v 3.89927 c -4.27788,1.7795 -7.84243,3.07236 -10.60602,3.88887 -2.95364,0.87267 -5.57903,1.27895 -7.89211,1.27895 h -6.77952 l 2.20438,6.40519 c 0.62872,1.82326 1.08625,3.85728 1.35175,6.11404 l 0.0106,0.0624 0.0106,0.0728 c 0.26243,1.78448 0.42974,3.87453 0.48871,6.25963 h -8.20415 c -0.15735,-0.87501 -0.2895,-1.7753 -0.40552,-2.7035 -0.2172,-1.73763 -0.39573,-3.47262 -0.5407,-5.20941 -0.14214,-1.77692 -0.20796,-3.385 -0.20796,-4.81431 0,-1.85592 0.10864,-3.3241 0.27035,-4.29439 l 0.90463,-5.43816 -5.51097,-0.18718 c -4.35329,-0.14758 -8.74276,-0.40076 -13.1743,-0.76945 -0.35919,-0.036 -0.69829,-0.0752 -1.01902,-0.11438 v -4.92866 c 4.36573,-4.63528 7.75288,-8.2619 10.19008,-10.90755 l 0.052,-0.0416 c 2.67999,-2.82902 4.55833,-4.83566 5.62534,-5.97888 l 3.55613,-3.80567 -4.06564,-3.2546 c -1.04868,-0.83893 -1.8149,-1.51336 -2.20439,-1.90284 -0.67403,-0.67404 -1.57149,-1.53396 -2.72428,-2.60991 l -3.03623,-2.82827 -3.25459,2.57871 c -1.77097,1.40203 -3.6902,2.87944 -5.77092,4.43997 -1.05057,0.77812 -2.0273,1.48842 -3.03622,2.22519 -1.05739,-0.74323 -2.08179,-1.46049 -3.18179,-2.24598 -2.04695,-1.53582 -3.9059,-2.9879 -5.56296,-4.35678 l -3.161,-2.6099 -3.08822,2.69308 c -1.24867,1.09258 -2.20788,1.96872 -2.95305,2.71389 -0.36493,0.36493 -1.14837,1.08536 -2.23558,2.02762 l -3.92006,3.38977 3.67051,3.6705 c 2.58891,2.5889 5.29386,5.41382 8.12087,8.464 l 0.0416,0.0416 0.0416,0.0416 c 2.56065,2.62632 5.09984,5.40693 7.61138,8.33923 v 3.55613 c -0.22526,-0.0344 -0.4342,-0.0773 -0.62388,-0.11438 l -2.52673,-0.48871 -1.80925,1.81966 c -2.4263,2.42628 -4.8414,4.37842 -7.21625,5.89569 l -0.0312,0.0208 -0.0207,0.0208 c -2.0939,1.37599 -4.39582,2.29289 -7.04988,2.78667 l -5.30301,0.98782 1.57012,5.16783 c 0.42536,1.39762 0.93752,3.67005 1.44532,6.64434 l 0.0106,0.0623 0.0106,0.0728 c 0.1195,0.59748 0.22702,1.24101 0.32234,1.94444 h -11.94735 c 0.71914,-1.9019 1.45695,-3.51441 2.19399,-4.8247 l 1.28935,-2.27716 -1.20617,-2.31878 c -1.78225,-3.42192 -3.10819,-6.5282 -3.98244,-9.28545 -0.8498,-2.68011 -1.23738,-5.16311 -1.23738,-7.47617 0,-2.14961 0.0993,-4.213 0.30155,-6.19724 0.25966,-1.92235 0.6714,-3.72069 1.22697,-5.40699 0.58429,-1.56109 1.38989,-3.036 2.46433,-4.47115 1.08436,-1.42426 2.54965,-2.82146 4.46077,-4.15922 l -3.51454,-8.72396 c -2.3951,0.37424 -4.90862,0.78032 -7.51779,1.22698 -2.59274,0.3704 -5.26542,0.74192 -8.00649,1.11258 -2.70288,0.29195 -5.3975,0.54944 -8.10007,0.76946 -2.69702,0.14525 -5.27837,0.21836 -7.73614,0.21836 h -1.43494 -0.0106 c -0.006,-3e-4 -0.0165,0 -0.0312,0 -0.0302,-0.005 -0.0677,-0.0223 -0.13519,-0.0416 l -4.43995,8.34963 c 1.55452,1.30579 2.70845,2.61783 3.53533,3.94085 l 0.0416,0.0624 0.0416,0.0623 c 0.6428,0.96422 1.23053,2.46894 1.83007,3.90966 l -13.76701,27.94994 -17.18796,-29.62402 c 0.0306,-0.23986 0.0282,-0.421 0.0832,-0.69667 0.22558,-0.75943 0.48821,-1.49455 0.81103,-2.19399 0.34211,-0.74122 0.70231,-1.39232 1.07101,-1.98601 0.34478,-0.45496 0.66781,-0.79322 0.90463,-0.97743 l 13.2263,-10.28365 -16.67845,1.66368 c -0.59505,0.0596 -1.18541,0.0936 -1.77807,0.0936 h -2.14199 c -3.00424,0 -5.72512,-0.14061 -8.14166,-0.41593 -2.54743,-0.36473 -4.91642,-0.72955 -7.09148,-1.09179 l -0.0313,-0.0106 c -2.14971,-0.37053 -4.16331,-0.70928 -6.03087,-1.00861 -2.02698,-0.41556 -3.960884,-0.64468 -5.833302,-0.64468 -1.351184,0 -2.687552,0.15951 -3.992845,0.5511 l -9.410223,2.81787 7.985691,5.72931 c 4.117377,2.95078 7.104947,6.05461 9.119089,9.26466 l 0.0312,0.052 0.0313,0.0416 c 1.97331,2.98986 2.93224,6.21266 2.93224,10.1173 0,4.51092 -1.53841,10.1382 -4.991059,16.76164 l -1.32055,2.52673 1.5805,2.38115 c 1.533949,2.30093 2.570249,4.61282 3.181799,6.99787 l 0.0208,0.0624 0.0106,0.052 c 0.70604,2.50321 1.071,5.10689 1.071,7.85051 0,2.96204 -0.40138,5.87359 -1.19578,8.78635 l -0.0106,0.052 -0.0106,0.0416 c -0.74964,2.99859 -1.80824,5.93306 -3.181797,8.81754 l -0.01063,0.0312 -0.01063,0.0208 c -1.305263,2.81664 -2.839871,5.44228 -4.616727,7.90251 l -0.02075,0.0312 -0.02075,0.0207 c -1.798297,2.55913 -3.705118,4.8124 -5.729323,6.76912 l 4.772695,8.07928 c 3.158133,-0.97173 5.981415,-2.0741 8.484812,-3.36897 2.42308,-1.2533 4.60859,-2.67001 6.55076,-4.2528 1.98317,-1.55606 3.71928,-3.2881 5.17822,-5.18861 0.26705,-0.31696 0.47027,-0.70204 0.72786,-1.02941 0.11871,0.09 0.28999,0.23569 0.40552,0.32233 l 0.052,0.0416 0.052,0.0416 c 1.41478,0.99868 2.79175,1.85009 4.13842,2.56832 l 0.052,0.0313 0.0623,0.0312 c 1.34978,0.67489 2.70506,1.27435 4.07604,1.78847 l 0.0416,0.0106 0.052,0.0208 c 1.42127,0.50161 2.99394,0.97911 4.74149,1.45572 l 14.80681,4.04483 -9.82614,-11.79138 c -1.3613,-1.63355 -2.48286,-3.19548 -3.38976,-4.67911 -0.82104,-1.41196 -1.55006,-3.10237 -2.1316,-5.10545 -0.56885,-1.9594 -1.02009,-4.42525 -1.29976,-7.36179 -0.255,-2.67753 -0.3603,-6.25387 -0.38472,-10.28367 l 13.42386,23.58275 7.63218,1.34135 14.46366,-27.64839 v 1.70528 c 0,2.31098 -0.0738,4.62392 -0.21836,6.93549 l -0.0106,0.0728 v 0.0728 c -0.0689,2.20439 -0.27245,4.24164 -0.60309,6.09324 l -0.0106,0.0728 -0.0207,0.0832 c -0.24796,1.73565 -0.66518,3.23103 -1.22697,4.52315 l -0.0313,0.0831 -0.0416,0.0832 c -0.44555,1.13863 -0.95054,1.82081 -1.50772,2.30836 l -6.04126,5.2926 7.50739,2.85947 c 1.14473,0.43609 2.36662,1.0933 3.66011,2.01722 l 0.0624,0.0416 0.0623,0.0416 c 1.36183,0.90788 2.61844,1.91319 3.77449,3.00503 1.12742,1.06478 2.0177,2.10633 2.69309,3.11941 l 0.0416,0.0728 0.052,0.0728 c 0.77899,1.07859 1.20952,1.94408 1.37254,2.43314 l 3.83688,11.50024 5.11583,-10.99074 c 0.30146,-0.64596 0.86301,-1.54109 1.72607,-2.5891 0.89561,-1.08754 1.95091,-2.20028 3.15062,-3.33778 1.16942,-1.03548 2.43915,-2.01777 3.82647,-2.94264 l 0.0728,-0.0416 0.0623,-0.052 c 1.41739,-1.01243 2.81054,-1.87177 4.18002,-2.58911 l 3.29617,-1.72608 -1.12299,1.83005 h 8.64077 c 0.90939,0 2.36535,0.1365 4.21121,0.47832 l 0.0106,0.0106 h 0.0208 c 1.90054,0.33939 3.847,0.81202 5.8541,1.43491 l 0.0936,0.0313 0.0936,0.0312 c 2.04144,0.54437 4.01278,1.2162 5.90609,2.02761 1.84866,0.79229 3.29605,1.61763 4.34638,2.39155 l 2.81786,2.07961 2.84908,-2.03802 c 0.6412,-0.45798 1.75596,-1.0815 3.22339,-1.72607 1.66857,-0.6223 3.41073,-1.20781 5.23021,-1.76766 l 0.0831,-0.0313 0.0728,-0.0208 c 1.75044,-0.60591 3.48451,-1.07201 5.20942,-1.40373 l 0.0936,-0.0208 0.0831,-0.0207 c 1.82284,-0.42065 3.35281,-0.67855 4.51276,-0.80065 l 6.16603,-0.65508 -2.14199,-5.8229 c -0.41038,-1.11387 -0.68672,-2.19508 -0.86304,-3.26498 -0.11767,-1.23997 -0.19756,-3.07255 -0.19756,-5.46937 v -2.48513 c 0,-0.7702 0.0294,-1.53678 0.0936,-2.30837 l -14.04776,-1.39333 c -1.02889,0.76368 -1.85005,1.72658 -2.1212,2.09001 -1.03247,1.1955 -1.73637,2.35369 -2.38115,3.79528 -1.37752,-0.2059 -2.78336,-0.40777 -4.22161,-0.61349 -1.22772,-0.23434 -2.3743,-0.47381 -3.50413,-0.70707 0.0551,-0.52723 0.0953,-0.91022 0.15597,-1.47652 0.0964,-0.90012 0.11681,-1.83365 0.18716,-2.74508 3.28546,-0.51069 6.56424,-1.02303 9.97172,-1.45573 l 0.0416,-0.0106 h 0.0312 c 1.58936,-0.22706 3.1187,-0.33785 4.68953,-0.53029 l 11.42744,-1.03981 3.98246,-0.4991 -0.89425,-2.40195 h 5.13664 c -0.0945,1.27891 -0.222,2.80494 -0.38472,4.55434 l 18.0302,2.47473 c 2.25597,-0.42785 3.92577,-0.58359 5.86449,-0.86304 -0.0283,1.66764 -0.0881,3.30938 -0.25995,4.85589 -0.0107,0.0926 -0.0303,0.22832 -0.0416,0.32235 -3.0883,-1.29049 -6.5009,-2.77934 -8.82794,-3.59773 l -15.18114,1.38294 c -1.03406,1.67124 -1.94163,3.46452 -2.63071,5.53175 l -0.0106,0.052 -0.0207,0.0416 c -0.85871,2.74785 -1.38256,5.49992 -1.55971,8.24564 l -0.31195,4.87669 4.86628,0.25995 c 2.67836,0.14477 4.95606,0.3626 6.78994,0.63428 l 0.0831,0.0106 0.0936,0.0106 c 1.81366,0.20151 3.30382,0.49828 4.45036,0.84224 l 0.11438,0.0312 0.10399,0.0313 c 1.17654,0.29414 2.04901,0.65097 2.62031,0.97741 l 0.0624,0.0312 0.0623,0.0416 c 0.79132,0.42203 1.46344,0.89957 2.05882,1.44532 l 2.86985,2.62031 3.1818,-2.23558 c 0.88633,-0.62564 2.13763,-1.3084 3.75369,-1.95482 1.64698,-0.6588 3.46528,-1.22656 5.44858,-1.70529 1.99562,-0.4817 4.11787,-0.87348 6.36359,-1.15418 2.22114,-0.27765 4.39106,-0.40553 6.51958,-0.40553 h 5.98927 l -1.27895,-5.85409 c -0.26925,-1.23855 -0.53164,-3.60034 -0.67588,-6.76914 -0.12635,-2.84416 -0.20062,-6.04574 -0.21835,-9.58698 h 11.0739 v 20.81688 l 2.6723,1.33095 c 1.1338,0.56691 2.60968,1.33472 4.38797,2.29796 1.7384,0.94163 3.43188,1.91989 5.09504,2.93226 l 3.04663,1.86124 2.6723,-2.37075 c 0.36297,-0.32263 1.12348,-0.88676 2.18359,-1.54931 1.06773,-0.66734 2.2132,-1.30937 3.44175,-1.92364 l 0.0936,-0.052 0.0936,-0.052 c 1.26359,-0.70199 2.55953,-1.37221 3.89926,-2.00682 1.30353,-0.61746 2.50911,-1.10944 3.60812,-1.49733 l 3.22339,-1.14377 v -9.5766 l -4.57513,-0.23915 c -1.80069,-0.0948 -2.87033,-0.58772 -4.02405,-1.72608 -0.7608,-0.80602 -1.46613,-2.32272 -1.46613,-5.43818 v -1.66368 h 14.79642 c 0.0184,0.46535 0.0208,0.94356 0.0208,1.43493 0,2.934 -0.0717,5.87284 -0.21836,8.80714 -0.13287,2.57892 -0.53839,4.55042 -1.0398,5.8541 l -2.47474,6.44678 6.9043,0.11439 c 4.05964,0.07 7.55675,0.53028 10.48123,1.31014 h 0.0106 0.0106 c 3.05178,0.79611 5.77088,1.94195 8.21447,3.42095 l 3.55613,2.15241 6.12444,-7.36182 c 1.5254,2.01186 3.27903,3.75266 5.2926,5.09503 l 4.55435,3.03624 2.44354,-4.89749 c 0.26021,-0.52041 0.79206,-1.37146 1.5805,-2.42274 0.75948,-1.01263 1.62084,-2.01596 2.59951,-2.99463 1.01661,-1.01663 2.01749,-1.91137 2.99463,-2.69309 l 0.0106,-0.0106 0.0208,-0.0106 c 0.90597,-0.73608 1.6098,-1.11042 1.96523,-1.23736 l 3.2026,-1.14379 v -8.48481 l -3.74329,-0.86302 c -0.28119,-0.065 -0.32064,-0.11486 -0.46791,-0.17678 -0.0229,-0.0543 -0.0241,-0.0518 -0.052,-0.13517 -0.24248,-0.83363 -0.51354,-2.27025 -0.71747,-4.13842 -0.0432,-0.64121 -0.0838,-1.35502 -0.11437,-2.1524 h 9.97172 v 12.20731 c 0,1.65023 -0.29616,2.61992 -0.39512,2.81787 l -0.0313,0.0623 -0.0312,0.052 -2.59951,1.0814 v 9.74297 h 30.45586 v -9.87813 l -2.58911,-0.96702 c -0.19487,-0.53315 -0.45752,-1.91104 -0.45752,-3.93046 v -21.17042 l 5.70852,-2.55791 v 7.72574 0.0416 c 0.0749,4.26742 0.11439,8.53258 0.11439,12.79999 0,0.53632 -0.0617,1.85297 -0.20795,3.68091 -0.14768,1.84578 -0.33806,3.89001 -0.56151,6.12445 -0.2146,2.07075 -0.4951,4.14427 -0.85263,6.21803 v 0.0106 l -0.0106,0.0106 c -0.35391,2.12354 -0.73487,3.83951 -1.10218,5.06385 l -0.83185,2.76587 6.25961,6.24922 3.41057,-3.64971 c 0.93506,-1.00184 2.03507,-2.07121 3.29618,-3.19218 1.23775,-1.10024 2.5449,-2.17177 3.93045,-3.21301 1.45453,-1.03743 2.86533,-1.96048 4.22161,-2.77627 1.34647,-0.76679 2.61369,-1.35411 3.79528,-1.76767 l 3.96166,-1.39334 -0.82144,-4.11763 c -0.14232,-0.71155 -0.28258,-1.45661 -0.42633,-2.24597 -0.10646,-0.64701 -0.21277,-1.61516 -0.28074,-2.83867 -0.0713,-1.28269 -0.14513,-2.97513 -0.21836,-5.01184 v -8.17287 c 0,-3.88787 0.041,-7.12154 0.11437,-9.69098 0.0736,-2.57642 0.14557,-4.72708 0.21836,-6.48836 0.13898,-1.65495 0.27773,-2.9843 0.40552,-3.96166 0.19562,-1.02402 0.42029,-1.98045 0.66549,-2.83867 l 1.12299,-3.92006 -3.69132,-1.75727 c -1.47446,-0.70213 -2.7443,-1.3648 -3.81607,-1.96523 -1.09648,-0.68674 -2.15465,-1.36477 -3.18181,-2.04841 -0.9053,-0.64865 -1.82821,-1.36967 -2.75547,-2.16279 -1.02012,-0.94772 -2.13343,-1.99814 -3.36897,-3.161 l -3.50414,-3.29619 -3.31697,3.49375 c -2.59829,2.74263 -5.09579,5.09992 -7.4762,7.06025 -0.23407,0.19277 -0.55981,0.38897 -0.80065,0.5823 v -1.24776 l -4.56474,-7.61137 -3.47294,0.87344 c -2.33561,0.58391 -5.02344,1.20712 -8.04808,1.87165 -3.00289,0.58518 -5.77986,1.06336 -8.30804,1.42453 l -4.14882,0.59268 v 4.10723 h -7.88171 c -3.27228,0 -5.79507,-0.54652 -7.70496,-1.43494 -1.99997,-1.04205 -4.10322,-2.68021 -6.25961,-5.03264 l -2.6411,-2.86986 -3.35857,1.97563 c -1.56243,0.91591 -4.24886,1.95905 -7.89212,2.86986 -3.41005,0.85251 -7.70613,1.32054 -12.84157,1.32054 h -1.05021 c -0.6384,-0.1265 -1.10611,-0.11436 -1.5493,-0.11436 h -3.76617 l -0.93436,5.92685 c 0.58034,2.48718 1.25014,4.62638 2.14199,6.50917 l 0.0416,0.0936 0.052,0.0936 c 0.94554,1.79651 2.06101,3.38658 3.49374,4.69993 l 0.0831,0.0728 0.0936,0.0728 c 1.37061,1.14217 2.97316,2.03336 4.69991,2.52672 l 0.18717,0.052 0.19756,0.0312 c 1.47445,0.2949 2.99951,0.43672 4.56474,0.43672 2.4794,0 5.10978,-0.47751 8.15206,-1.29975 0.6701,-0.18111 1.27469,-0.48463 1.93404,-0.68628 v 1.12299 c -0.31994,0.1112 -0.45939,0.21126 -0.82145,0.32234 -1.48497,0.40236 -3.16992,0.78267 -5.06385,1.1334 -1.86855,0.34602 -3.86657,0.62918 -5.97887,0.84224 -2.05127,0.13971 -4.06135,0.20795 -6.03086,0.20795 -1.77368,0 -3.36709,-0.0994 -4.7727,-0.29114 l -8.30804,-1.13339 1.93404,4.68951 H 343.1835 v -8.55758 l 9.5662,1.20617 1.03981,-4.15922 c 0.24741,-0.98965 0.69957,-2.10958 1.39334,-3.33777 0.80588,-1.2904 1.67811,-2.44002 2.63069,-3.45214 l 1.31017,-8.58878 H 343.1835 v -1.16459 c 0,-0.4994 0.0406,-1.61114 0.11439,-3.16101 v -0.0106 c 0.071,-1.56079 0.18087,-3.16411 0.32233,-4.8039 0.0888,-0.70914 0.17098,-1.39561 0.25995,-2.06921 h 9.19187 c -0.50521,1.28336 -1.22952,2.49866 -2.1628,3.63932 2.71304,-0.22609 5.08789,-0.9466 7.12266,-2.15239 2.03478,-1.28116 3.76714,-2.78981 5.19902,-4.52315 1.50724,-1.73333 2.71419,-3.54372 3.61853,-5.42778 0.97971,-1.88405 1.72884,-3.57741 2.25637,-5.08465 -0.15072,-2.11013 -0.67615,-3.92053 -1.5805,-5.42777 -0.82899,-1.50725 -1.84083,-2.71417 -3.04663,-3.61852 -1.13042,-0.97971 -2.37637,-1.6508 -3.73289,-2.02761 -1.35652,-0.45218 -2.60247,-0.67588 -3.7329,-0.67588 -0.67826,2.56232 -1.42739,4.70306 -2.25637,6.43639 -0.75363,1.65796 -2.03859,3.24466 -3.84729,4.7519 0.82898,1.05508 1.54951,2.40768 2.15241,4.06564 0.0562,0.15455 0.10505,0.31205 0.15597,0.46791 h -6.71714 l 3.1818,-7.9545 -11.677,6.24921 c -3.10389,1.66023 -5.99285,3.01629 -8.65117,4.06564 -2.3605,0.93176 -4.9854,1.50872 -7.93371,1.70528 l -9.22306,0.61349 5.2926,6.62355 c 0.0544,0.10654 0.21994,0.4069 0.30155,0.84224 v 0.0313 l 0.0106,0.0312 c 0.18966,0.9483 0.36085,2.08669 0.49911,3.40016 v 0.0106 0.0208 c 0.14095,1.26873 0.24151,2.53818 0.31193,3.80568 l 0.0106,0.14558 0.0208,0.14556 c 0.14046,1.19386 0.18717,2.06631 0.18716,2.26678 v 1.23737 c -2.04997,1.6034 -4.10269,3.02482 -6.26424,3.85998 z m -84.74976,8.16942 c 0.21258,0.0353 0.38871,0.10166 0.60311,0.13516 l 0.0832,0.0106 0.0831,0.0106 c 0.90339,0.10949 1.55589,0.0928 2.38116,0.16637 0.0431,0.40587 0.0283,0.82414 0.0831,1.22696 l 0.0207,0.11439 0.0207,0.10399 c 0.0203,0.11115 0.0418,0.21174 0.0624,0.32234 l -3.09862,0.76947 c -0.0299,-0.3453 -0.0296,-0.63545 -0.0623,-0.98782 -0.0347,-0.54876 -0.13138,-1.29075 -0.17677,-1.87165 z m -37.78647,13.19511 h 14.74443 c -0.0181,1.47817 -0.0851,3.11732 -0.20796,4.89748 v 0.0832 l -0.0106,0.0832 c -0.0696,2.01737 -0.24349,3.99204 -0.51991,5.92688 l -0.0106,0.0728 v 0.0728 c -0.20333,1.83005 -0.51288,3.53331 -0.90463,5.10544 -0.37385,1.42297 -0.79117,2.38135 -1.0086,2.73468 l -1.28936,2.09001 -5.08465,-3.1922 c -1.70537,-1.07193 -3.08646,-2.68885 -4.2112,-5.33418 -1.10625,-2.78288 -1.67408,-5.77582 -1.67408,-9.11909 0,-1.13765 0.0561,-2.28028 0.17676,-3.42096 z m 197.37562,6.75873 v 3.60811 c -0.50751,-0.048 -1.1472,-0.21875 -1.6325,-0.23915 -0.1293,-0.005 -0.24553,-0.0252 -0.37433,-0.0313 l 0.052,-2.92184 c 0.57827,-0.13109 1.04686,-0.16243 1.66368,-0.32234 l 0.0831,-0.0208 0.0728,-0.0208 c 0.0422,-0.0125 0.093,-0.0395 0.13518,-0.052 z"
       sodipodi:nodetypes="ccccccccccccccccccscccccccccccccccccccscccccccccsccscccccsscccccccscscccccccccccscccccccccsccsccccccccccccccccccccccssccccccccscccccccsccccsccccssccccsccccccsccccccsccsccccccccsccccccccscccccscssccccsccccccccccccccssccccccscccccccsccccccsccccccccccccccssccccccsccccccccccccccccccccccccscccccccccsssscccccccscccsccsscccccsccscccccccsccsccsscccsccccccccsscccccccsccccssccccccccsccccccscsscccccccccccscccccsccsccccsscscccccccccccsscccscsccccccsccccsccccccccccccccccsccccsccccccccccccscccccccccccccccccccscccccccsccccccccccccsc"
       inkscape:label="text" /><path
       id="Path 0 copy"
       class="s0"
       d="m 253.96776,1.9812412 c -4.83809,0.7256238 -12.51049,1.8658898 -17.06826,2.5396834 -4.54737,0.6737937 -14.55576,2.8299332 -22.23856,4.8098491 -7.68279,1.9695513 -20.01678,5.7427953 -27.40888,8.3757733 -7.40247,2.632979 -20.89926,8.551995 -30.00441,13.164891 -9.10514,4.602528 -22.37354,12.263042 -29.48531,17.021062 -7.11177,4.747653 -17.57697,12.48073 -23.26639,17.176553 -5.689435,4.695823 -15.573238,13.828318 -21.968643,20.296736 -6.385022,6.468418 -15.147556,16.191781 -19.456148,21.592491 -4.318975,5.41108 -11.576098,15.42469 -16.133862,22.24555 -4.547382,6.83124 -12.178261,20.3382 -16.95405,30.00974 -5.533687,11.2368 -10.714379,23.75899 -14.316985,34.66408 -3.114645,9.39165 -6.8418376,22.43215 -8.2953386,28.97313 -1.453501,6.54097 -3.5922235,19.22903 -4.7446423,28.19566 -1.3912082,10.80144 -2.09719388,22.31812 -2.10757603,34.1458 0,12.12828 0.67483933,22.9919 2.10757603,33.88662 1.162801,8.82153 3.3222877,21.39554 4.7861709,27.93654 1.4638831,6.55133 4.44356,17.48752 6.623812,24.31875 2.180251,6.83123 6.104705,17.53937 8.721006,23.80046 2.616301,6.2611 7.57897,16.73082 11.015462,23.28217 3.446873,6.54098 9.676163,17.02106 13.86017,23.28215 4.173624,6.2611 11.119282,15.79787 15.427874,21.20896 4.308592,5.40071 13.071127,15.12406 19.466531,21.60285 6.385023,6.47879 16.279208,15.58018 21.968643,20.23455 5.68942,4.64399 13.36182,10.563 17.06825,13.15452 3.69605,2.59151 11.60724,7.66051 17.57698,11.25753 5.98013,3.6074 16.92291,9.43312 24.315,12.96793 7.39209,3.52447 18.80207,8.31359 25.34283,10.63558 6.54075,2.322 18.17914,5.82573 25.86193,7.7849 7.6828,1.94883 22.34238,4.7684 32.58957,6.24037 14.74265,2.1354 22.60194,2.69517 37.7495,2.69517 15.15794,0 23.01723,-0.55977 37.75988,-2.69517 10.24718,-1.47197 24.90677,-4.29154 32.58957,-6.24037 7.68278,-1.95917 19.31079,-5.4629 25.86193,-7.7849 6.54076,-2.32199 17.94035,-7.11111 25.34283,-10.63558 7.39208,-3.53481 18.33487,-9.36053 24.30461,-12.96793 5.98012,-3.59702 13.89132,-8.66602 17.58736,-11.25753 3.69605,-2.59152 11.37883,-8.51053 17.06826,-13.1649 5.68942,-4.65435 15.57322,-13.76612 21.95824,-20.23454 6.39541,-6.46842 15.14756,-16.19177 19.46654,-21.59248 4.30859,-5.41109 11.42035,-15.18628 15.79125,-21.72725 4.37088,-6.55136 11.24387,-18.42049 15.27214,-26.39199 4.02828,-7.96113 9.22972,-19.37415 11.5657,-25.345 2.336,-5.98121 5.92822,-16.45093 7.99426,-23.28216 2.06605,-6.83123 4.88999,-18.23389 6.27083,-25.35538 1.39121,-7.1111 3.22885,-18.75218 4.08018,-25.86329 0.86172,-7.11113 1.5677,-20.84614 1.5677,-30.52804 0,-9.81665 -0.70598,-23.07484 -1.59885,-30.00973 -0.8721,-6.82087 -2.30483,-16.368 -3.16655,-21.20894 -0.86172,-4.83059 -2.907,-13.91125 -4.54739,-20.17235 -1.64037,-6.2611 -4.91075,-16.96923 -7.27788,-23.80045 -2.35675,-6.83125 -8.17076,-20.33822 -12.9154,-30.00974 -4.74463,-9.67154 -12.35476,-23.1785 -16.90213,-30.00974 -4.55776,-6.82086 -11.81489,-16.83447 -16.13386,-22.24555 C 502.62025,101.55757 493.85772,91.844574 487.47269,85.386521 481.08767,78.918102 471.20387,69.816706 465.51445,65.151982 459.82502,60.487257 452.14224,54.557873 448.44619,51.96636 444.75015,49.374846 436.83895,44.31621 430.85883,40.708823 424.88909,37.101437 413.9463,31.275712 406.55422,27.751254 399.15174,24.226796 387.75215,19.448044 381.21139,17.136415 374.66025,14.814417 363.95626,11.528378 357.4155,9.8179792 350.87475,8.1075792 341.33354,5.9929045 336.20478,5.1325219 331.08637,4.2617733 321.77358,2.8416237 315.52353,1.970875 308.01724,0.92390344 297.0952,0.4366989 283.45307,0.52999334 272.07423,0.60255536 258.80584,1.2556173 253.96776,1.9812412 Z"
       style="stroke:#000000;stroke-width:1.03741;stroke-opacity:1"
       inkscape:label="vnejsi kruh" /></g><style
     id="style1-7">
		tspan { white-space:pre } 
		.s0 { fill: none;stroke: #ff0000;stroke-miterlimit:100 } 
	</style></svg>
