<?xml version="1.0" encoding="UTF-8" standalone="no"?>
<svg
   version="1.2"
   viewBox="0 0 113.38583 113.38583"
   width="30mm"
   height="30mm"
   id="svg1"
   sodipodi:docname="SarlatovaZenaReminderTokenLaser.svg"
   inkscape:version="1.4.2 (2aeb623e1d, 2025-05-12)"
   xml:space="preserve"
   xmlns:inkscape="http://www.inkscape.org/namespaces/inkscape"
   xmlns:sodipodi="http://sodipodi.sourceforge.net/DTD/sodipodi-0.dtd"
   xmlns="http://www.w3.org/2000/svg"
   xmlns:svg="http://www.w3.org/2000/svg"><sodipodi:namedview
     id="namedview1"
     pagecolor="#ffffff"
     bordercolor="#666666"
     borderopacity="1.0"
     inkscape:showpageshadow="2"
     inkscape:pageopacity="0.0"
     inkscape:pagecheckerboard="0"
     inkscape:deskcolor="#d1d1d1"
     inkscape:zoom="5.1566937"
     inkscape:cx="56.334547"
     inkscape:cy="46.347527"
     inkscape:window-width="1920"
     inkscape:window-height="1043"
     inkscape:window-x="0"
     inkscape:window-y="0"
     inkscape:window-maximized="1"
     inkscape:current-layer="layer2"
     showgrid="false"
     inkscape:document-units="mm" /><defs
     id="defs1"><clipPath
       clipPathUnits="userSpaceOnUse"
       id="cp1"><path
         d="m 275.5,535.5 c -143.78,0 -260,-116.22 -260,-260 0,-143.78 116.22,-260 260,-260 143.78,0 260,116.22 260,260 0,143.78 -116.22,260 -260,260 z"
         id="path1" /></clipPath><clipPath
       clipPathUnits="userSpaceOnUse"
       id="cp1-5"><path
         d="m 275.5,535.5 c -143.78,0 -260,-116.22 -260,-260 0,-143.78 116.22,-260 260,-260 143.78,0 260,116.22 260,260 0,143.78 -116.22,260 -260,260 z"
         id="path1-3" /></clipPath></defs><style
     id="style1">
		tspan { white-space:pre } 
		.s0 { fill: none;stroke: #ff0000;stroke-miterlimit:100 } 
	</style><g
     inkscape:groupmode="layer"
     id="layer1"
     inkscape:label="Template"
     transform="scale(0.1989225)"><g
       id="text2"
       inkscape:label="Text"
       style="opacity:1" /><g
       id="text2-2"
       inkscape:label="Text"
       style="opacity:1" /></g><g
     inkscape:groupmode="layer"
     id="layer2"
     inkscape:label="Content"
     style="display:inline"
     transform="scale(0.1989225)"><g
       inkscape:groupmode="layer"
       id="layer3"
       inkscape:label="Kruh"
       transform="scale(5.0270836)"><path
         id="path2"
         style="fill:none;stroke:#000000;stroke-width:0.949978"
         inkscape:label="vnejsi kruh"
         transform="scale(0.19892249)"
         d="M 569.5184,284.99338 A 284.52502,284.52502 0 0 1 284.99338,569.5184 284.52502,284.52502 0 0 1 0.46835327,284.99338 284.52502,284.52502 0 0 1 284.99338,0.46835327 284.52502,284.52502 0 0 1 569.5184,284.99338 Z" /><path
         id="path2-9"
         style="fill:none;stroke:#000000;stroke-width:0.95000007;stroke-dasharray:none"
         inkscape:label="vnitrni kruh"
         transform="scale(0.19892249)"
         d="M 529.26178,284.99338 A 244.2684,244.2684 0 0 1 284.99338,529.26178 244.2684,244.2684 0 0 1 40.724976,284.99338 244.2684,244.2684 0 0 1 284.99338,40.724976 244.2684,244.2684 0 0 1 529.26178,284.99338 Z" /></g><g
       id="layer2-6"
       inkscape:label="Content"
       style="display:inline;fill:none;stroke:#000000;stroke-width:0.475979;stroke-dasharray:none;stroke-opacity:1"
       transform="matrix(1.8200837,-0.81905676,0.81905676,1.8200837,69.295811,289.19604)"><path
         style="baseline-shift:baseline;display:inline;overflow:visible;opacity:1;fill:none;stroke:#000000;stroke-width:0.475979;stroke-dasharray:none;stroke-opacity:1;enable-background:accumulate;stop-color:#000000;stop-opacity:1"
         d="m 140.77868,2.3083677 c -0.92259,0.1628019 -2.57106,0.5715799 -3.73166,0.9231504 -1.13826,0.344801 -3.56111,1.075169 -5.38342,1.622462 -4.21387,1.26555 -9.43429,2.923083 -13.79093,4.357361 -2.17832,0.717139 -4.13992,1.3782679 -5.65383,1.9071439 -1.5139,0.528875 -2.54601,0.906872 -2.99479,1.12746 -0.94687,0.465417 -2.4473,1.349986 -3.40342,2.004792 -0.87378,0.598416 -3.36724,2.005546 -5.44876,3.063148 -1.950196,0.990871 -3.539853,1.97386 -4.663075,2.872359 -0.561611,0.449247 -1.007362,0.876493 -1.327267,1.289705 -0.319904,0.413211 -0.532556,0.818666 -0.532556,1.263418 0,0.04513 -0.04252,0.231104 -0.134454,0.414627 -0.09193,0.183527 -0.226073,0.375554 -0.353036,0.502512 -0.540644,0.540648 -0.86754,1.364606 -0.965216,2.209106 -0.09767,0.844495 0.03954,1.753916 0.682786,2.336041 0.50245,0.45472 1.197543,0.667037 2.076904,0.668517 0.879358,0.0015 1.972325,-0.188596 3.413179,-0.555846 0.373784,-0.09527 0.624917,-0.09508 1.008028,0.04207 0.383107,0.137146 0.891777,0.438971 1.622457,0.963712 0.62286,0.447298 1.17636,0.734732 1.70134,0.848034 0.52497,0.113306 1.05181,0.02165 1.43467,-0.295195 0.76573,-0.633736 0.93489,-1.829368 0.86532,-3.492049 -0.003,-0.06457 10e-4,-0.101276 -7.7e-4,-0.164502 0.031,0.102023 0.0556,0.162829 0.0871,0.268909 0.36169,1.21736 0.74882,2.667244 1.01328,3.580684 0.16358,0.564976 0.35537,1.011116 0.57913,1.349046 0.22376,0.337933 0.48407,0.606892 0.87583,0.659503 0.19588,0.02631 0.4101,-0.028 0.57012,-0.136708 0.16001,-0.10873 0.27283,-0.256894 0.36129,-0.422892 0.17692,-0.331999 0.26985,-0.754257 0.30947,-1.300973 0.0864,-1.192417 0.28059,-1.865322 0.45594,-2.196333 0.17537,-0.331015 0.26388,-0.328404 0.35454,-0.340268 0.0363,-0.0048 0.0855,-3.85e-4 0.13897,0.0045 0.13515,0.26867 0.19288,0.405186 0.35603,0.716587 0.44878,0.856556 0.98085,1.82278 1.48425,2.631993 0.25171,0.404609 0.49601,0.769398 0.72486,1.06737 0.22885,0.297975 0.42107,0.527844 0.68203,0.686543 0.21897,0.133162 0.74663,0.614326 1.2837,1.237878 0.53707,0.623552 1.11523,1.401011 1.57363,2.1753 l 1.25441,2.118963 -1.19056,1.281448 0.10141,-0.08187 c -0.54603,0.324281 -0.99148,0.87487 -1.39863,1.412141 -0.40715,0.53727 -0.77446,1.077403 -0.98173,1.30398 -0.81558,0.891499 -0.5926,0.801368 -2.32553,1.663774 -1.46396,0.728543 -2.82816,1.679137 -4.23718,2.945967 -0.34151,0.307044 -0.60988,0.50595 -0.90813,0.745131 0.0775,-0.104784 0.10425,-0.164656 0.19229,-0.27792 0.72177,-0.928588 1.77486,-2.1266 2.85659,-3.332058 1.12111,-1.249335 1.90606,-2.143838 2.29698,-3.027842 0.39092,-0.884007 0.2805,-1.796681 -0.32825,-2.665794 -0.58208,-0.831043 -1.52692,-1.746867 -2.61772,-2.441205 -1.0908,-0.694339 -2.33419,-1.181399 -3.53036,-1.002021 -1.27866,0.191749 -1.82498,0.103514 -2.4104,-0.307967 -0.61238,-0.430433 -1.72175,-0.897995 -2.63726,-1.145486 -0.742895,-0.200829 -2.056959,-0.911701 -2.719869,-1.484254 -0.79425,-0.685974 -2.243761,-1.618912 -3.334309,-2.155771 -1.057304,-0.520488 -2.000511,-0.717737 -2.807009,-0.610676 -0.806503,0.10706 -1.467279,0.549077 -1.839544,1.201073 -0.744527,1.303988 -0.442994,3.278509 0.900618,5.378912 0.395159,0.617734 0.7875,1.335824 1.094409,1.983009 0.306913,0.647181 0.527891,1.244085 0.581383,1.524812 0.14343,0.752699 0.600681,1.841178 1.159761,2.960243 0.559081,1.119061 1.211146,2.231657 1.780953,2.94146 0.0684,0.08521 0.227819,0.386383 0.356789,0.73687 0.128974,0.350482 0.245041,0.762613 0.311724,1.129714 0.388695,2.139872 2.060391,5.600563 3.617489,7.557216 0.638289,0.802083 1.321885,2.084108 1.445945,2.591431 0.19121,0.781993 0.75219,1.936194 1.30848,2.755933 0.20914,0.308175 0.59674,1.111758 0.98925,2.079905 0.39252,0.968147 0.8078,2.120309 1.147,3.211872 1.36434,4.390517 2.84217,6.414365 6.5304,8.940817 1.13545,0.777789 2.68819,1.632053 4.09372,2.30149 0.70276,0.334722 1.36746,0.622533 1.92817,0.830012 0.56071,0.207475 0.98047,0.347025 1.37083,0.347025 0.35734,0 0.64606,-0.158152 0.97648,-0.376323 0.33042,-0.218166 0.69113,-0.519114 1.08389,-0.893853 0.72364,-0.690431 1.56423,-1.68131 2.41567,-2.792737 -0.11758,0.316993 -0.20277,0.578313 -0.34778,0.935168 -0.46243,1.138067 -0.72515,1.850555 -0.81649,2.471999 -0.0913,0.621445 0.0259,1.138813 0.25614,1.694571 0.63945,1.543753 2.56956,2.638674 5.64707,3.535615 0.93294,0.271908 2.69179,1.132587 3.74894,1.850058 2.33053,1.581677 4.75624,1.933009 6.45754,0.741373 0.37339,-0.261528 0.66409,-0.689554 0.97048,-1.225106 0.30639,-0.535552 0.59458,-1.171091 0.80146,-1.802735 0.47982,-1.464959 1.26725,-3.270437 1.95372,-4.607491 0.16659,-0.324485 0.2845,-0.492325 0.43265,-0.749638 -0.0877,0.541843 -0.20097,1.15665 -0.35904,1.810996 -0.50101,2.073963 -0.76581,3.916348 -0.78569,5.396941 -0.0199,1.480589 0.15861,2.61253 0.77968,3.299004 0.59572,0.658457 1.91104,1.460244 3.27346,2.191076 0.68122,0.365412 1.36345,0.697503 1.95072,0.942679 0.58726,0.245176 1.02891,0.419889 1.45871,0.419889 0.38349,0 0.82412,-0.123983 1.37008,-0.297453 0.54595,-0.173474 1.16485,-0.405628 1.75316,-0.651988 0.5883,-0.246364 1.14316,-0.505608 1.56763,-0.739873 0.0118,-0.0065 0.0184,-0.01227 0.03,-0.01877 -0.007,0.01096 -0.007,0.01604 -0.0135,0.02704 l -1.14098,1.845551 1.313,1.053097 c 0.46566,0.373519 0.95928,0.627356 1.66752,0.721844 0.70825,0.09449 1.63632,0.06694 3.16381,-0.01877 1.97753,-0.110964 4.37069,-0.488452 5.51712,-0.909633 0.88238,-0.32418 3.63038,-0.763475 5.87391,-0.888599 3.65356,-0.203752 4.65249,-0.442959 7.21995,-1.717854 1.99477,-0.990514 3.95284,-1.841055 5.57271,-2.440455 1.61986,-0.599397 2.94823,-0.935169 3.47627,-0.935169 0.80261,0 2.0238,-0.363458 2.98278,-0.81874 0.84657,-0.40192 2.27672,-0.874369 3.03986,-1.011785 1.15873,-0.208648 2.09495,-0.601865 2.71311,-1.147743 0.30909,-0.272935 0.54243,-0.591978 0.64824,-0.958452 0.10581,-0.366477 0.0635,-0.775389 -0.12694,-1.131217 -0.0132,-0.02457 -0.006,-0.01411 -0.0173,-0.03681 0.10499,-0.0084 0.14809,-0.02084 0.34552,-0.01654 0.34468,0.0075 0.82446,0.03546 1.45872,0.07586 2.29966,0.146434 3.32641,-0.052 6.17512,-1.20032 1.42342,-0.573783 2.51817,-1.215753 3.27722,-1.83879 0.75905,-0.623037 1.24163,-1.196874 1.24163,-1.871841 0,-0.733147 -0.26429,-1.403599 -0.91038,-1.809496 -0.64609,-0.405897 -1.57846,-0.630552 -3.06165,-0.899114 -4.388,-0.794542 -7.22022,-2.375003 -10.75932,-6.018882 -0.87546,-0.901379 -1.67264,-1.785379 -2.24441,-2.474253 -0.28588,-0.344436 -0.51559,-0.641335 -0.66626,-0.858551 -0.0753,-0.108611 -0.13127,-0.19778 -0.16074,-0.253137 -0.0295,-0.05535 -0.0125,-0.105891 -0.012,0.03154 -0.003,-0.769117 -0.53332,-1.397058 -1.06586,-2.002542 -0.53255,-0.605481 -1.12999,-1.178425 -1.39187,-1.521809 -0.14602,-0.191464 -0.26403,-0.344125 -0.40111,-0.476222 -0.13708,-0.132096 -0.32563,-0.263989 -0.56485,-0.279423 -0.23922,-0.01542 -0.43511,0.08475 -0.59415,0.193042 -0.15905,0.108295 -0.30925,0.242161 -0.49651,0.411624 -0.17806,0.161144 -0.29882,0.246648 -0.35153,0.268158 -0.0527,0.0215 -0.0482,0.0305 -0.17351,-0.01654 -0.25057,-0.09402 -0.85077,-0.532044 -1.93119,-1.412141 -1.12016,-0.912482 -1.96762,-1.84815 -2.46599,-2.659787 -0.49836,-0.811636 -0.61059,-1.46742 -0.47096,-1.831279 0.008,-0.0205 0.15267,-0.225735 0.37181,-0.404862 0.21915,-0.179132 0.50611,-0.359121 0.77893,-0.47923 0.45539,-0.200476 1.00955,-0.658653 1.78847,-1.33177 0.77892,-0.673114 1.72149,-1.54628 2.7056,-2.499793 1.96824,-1.907019 2.60947,-4.054534 3.91046,-5.642948 1.24702,-1.977704 1.23043,-2.168668 0.54025,0.13192 -0.49324,1.401299 -1.19294,2.980903 -1.68931,3.711381 -0.47522,0.699349 -1.84842,2.131404 -2.94597,3.038359 -0.58038,0.479603 -1.10569,0.972762 -1.49702,1.393362 -0.19566,0.210301 -0.35743,0.401382 -0.48073,0.575375 -0.1233,0.17399 -0.24637,0.275946 -0.24637,0.597154 0,0.230362 1.40765,1.121927 1.57042,1.292648 0.16279,0.17072 0.37317,0.257894 0.58364,0.298952 0.42093,0.08212 0.88806,0.01277 1.43468,-0.138208 1.09322,-0.301979 2.48948,-0.976754 3.9277,-1.941697 1.3582,-0.911251 2.3156,-1.474558 2.8641,-1.699828 0.044,-0.01808 0.0283,-0.0067 0.0668,-0.01954 -0.0428,0.05434 -0.0663,0.09407 -0.12168,0.156987 -0.24833,0.282161 -0.61168,0.635055 -1.02306,0.99451 -0.82274,0.718906 -1.85338,1.47192 -2.54937,1.823014 -1.44744,0.730186 -2.35659,1.395531 -2.58992,2.297737 -0.11667,0.451104 0.004,0.933015 0.28693,1.325009 0.2832,0.391998 0.70977,0.729382 1.27243,1.061362 0.67682,0.399332 1.11267,0.643647 1.60293,0.697808 0.49027,0.05416 0.91596,-0.127605 1.43243,-0.401859 0.81841,-0.434584 2.49987,-1.03208 3.99756,-1.460968 0.67041,-0.191976 1.27428,-0.335118 1.78546,-0.439417 -0.36699,0.16344 -0.76677,0.354836 -1.03732,0.360547 -0.4814,0.01015 -0.75231,0.296733 -1.08089,0.621944 -0.32859,0.325216 -0.66557,0.744546 -0.97799,1.191309 -0.31242,0.446763 -0.5979,0.919243 -0.81198,1.3513 -0.21407,0.432056 -0.37406,0.789119 -0.37406,1.183798 0,0.442886 0.28845,0.762225 0.62419,1.012535 0.33574,0.250306 0.76788,0.458216 1.27093,0.637717 1.00609,0.359005 2.29551,0.59415 3.57016,0.59415 1.05244,0 1.45092,-0.0035 2.06489,0.365055 0.61397,0.368396 1.47448,1.187251 3.15779,2.830296 1.21683,1.187717 2.12466,2.008822 2.81677,2.526833 0.34606,0.259005 0.63631,0.443525 0.90888,0.561099 0.27258,0.117575 0.55716,0.186562 0.84954,0.07436 0.42736,-0.163991 0.5754,-0.505532 0.74438,-0.883339 0.16898,-0.377811 0.30424,-0.829766 0.40036,-1.294216 0.0961,-0.464446 0.15253,-0.937157 0.14497,-1.35881 -0.008,-0.421654 -0.0271,-0.809064 -0.34703,-1.128964 0.0305,0.03046 -0.0705,-0.111179 -0.13445,-0.28468 -0.0639,-0.173501 -0.1218,-0.392029 -0.15173,-0.588144 -0.088,-0.576395 -0.40542,-1.433912 -0.74288,-2.09568 -0.28889,-0.566522 -0.86772,-2.599112 -1.39036,-4.960524 -0.52263,-2.361415 -1.02954,-5.114187 -1.32201,-7.352906 -0.25524,-1.953826 -0.88445,-4.693445 -1.43317,-6.205166 -1.59351,-4.390086 -6.88305,-11.766663 -12.74308,-17.896655 -2.85533,-2.98686 -6.68965,-7.019942 -8.51718,-8.959593 -2.10173,-2.230679 -4.07889,-3.928302 -5.45552,-4.594721 -0.94638,-0.458131 -1.53264,-0.723067 -2.2016,-0.787195 -0.66894,-0.06413 -1.32999,0.07739 -2.43894,0.338013 -1.32227,0.310755 -3.11215,0.885281 -4.0802,1.317499 -1.02254,0.456542 -2.54535,0.703061 -4.66833,0.709076 -1.48764,0.0042 -2.28428,-0.02283 -2.81301,-0.166753 -0.52874,-0.143924 -0.86234,-0.397058 -1.53083,-0.983993 -0.33334,-0.292676 -0.93563,-1.013667 -1.56462,-1.887614 -0.62899,-0.873947 -1.30361,-1.9127989 -1.86433,-2.8926379 -0.5748,-1.004441 -1.18345,-1.994208 -1.70509,-2.786729 -0.52164,-0.792521 -0.90037,-1.348328 -1.22736,-1.644245 -0.32687,-0.295811 -0.82381,-0.552084 -1.47449,-0.8472852 -0.65067,-0.2952013 -1.44113,-0.604616 -2.27445,-0.8961095 -1.66664,-0.5829875 -3.66704,-0.5213049 -4.91434,-0.4705931 -2.21785,0.090172 -0.84804,0.2544788 -3.66058,0.7508004 z M 116.07421,17.061011 c 0.14432,-0.158751 0.0521,0.45537 0.0759,0.781185 0.0571,0.78387 0.1027,1.841736 0.12244,2.973765 0.0198,1.135833 0.0246,2.168513 0.0165,2.912917 -8e-5,0.0077 -7.7e-4,0.01038 -7.7e-4,0.01804 -0.19957,-0.297049 -0.40754,-1.004625 -0.50702,-1.845551 -0.10096,-0.853441 -0.11732,-1.844878 -0.0601,-2.740158 0.056,-0.875877 0.19357,-1.653736 0.35304,-2.100187 z m 9.25878,4.076158 c 0.0382,0.07906 0.0827,0.176685 0.14798,0.352286 0.0486,0.130662 0.12344,0.628706 0.1367,1.201074 0.0133,0.572364 -0.0145,1.248227 -0.0864,1.871087 -0.12782,1.108443 -0.17494,1.830479 0.0353,2.65528 0.21026,0.824797 0.64925,1.702528 1.44895,3.239662 0.99183,1.906396 1.7546,3.191566 2.45623,4.035877 0.70164,0.844307 1.40552,1.276937 2.15953,1.276937 1.39161,0 2.57172,-0.807603 3.38614,-2.190323 0.81442,-1.382724 1.3285,-3.345165 1.55937,-5.849126 0.21623,-2.345306 0.61835,-3.890005 1.39336,-5.413463 0.29478,-0.579464 0.49304,-0.847119 0.69405,-1.134972 -0.011,0.0785 -0.009,0.123186 -0.0248,0.212571 -0.10336,0.579894 -0.31103,1.381397 -0.6332,2.368346 -1.23382,3.779698 -1.89738,7.469158 -1.90189,10.638388 -0.002,1.07005 -0.0255,1.67055 0.25463,2.197837 0.14008,0.263643 0.36215,0.46588 0.61519,0.618937 0.25304,0.153057 0.54404,0.275958 0.91188,0.429653 0.64116,0.267889 1.12272,0.427107 1.6157,0.446178 0.49299,0.01908 0.95088,-0.112233 1.49778,-0.338764 0.61297,-0.253902 1.32145,-0.774901 2.12572,-1.469982 0.80427,-0.695077 1.68673,-1.564651 2.55763,-2.508054 1.7418,-1.886813 3.42957,-4.051683 4.30779,-5.722933 0.27915,-0.531218 0.47832,-0.879962 0.68879,-1.254404 -0.0986,0.476765 -0.20538,0.981242 -0.26891,1.316749 -0.062,0.32735 -0.43021,1.144889 -1.20107,2.422426 -0.77086,1.277532 -1.9365,3.048405 -3.58068,5.449517 -0.71607,1.045722 -1.11155,1.6332 -1.28295,2.128728 -0.0857,0.247764 -0.11697,0.537209 0.0218,0.786446 0.13875,0.249237 0.3614,0.353071 0.55509,0.427396 0.36343,0.139465 0.74874,0.120832 1.23563,0.08037 0.48688,-0.04046 1.03978,-0.134343 1.56538,-0.27492 0.48407,-0.129466 1.01212,-0.248248 1.46472,-0.333503 0.45259,-0.08525 0.8526,-0.133704 0.98173,-0.133704 0.73542,0 1.40396,-0.422727 1.94546,-1.231867 0.54149,-0.809145 1.04815,-2.022844 1.67504,-3.839828 0.26297,-0.762202 0.52113,-1.442281 0.7594,-2.051361 -0.096,0.387249 -0.21813,0.762618 -0.35979,1.036572 -0.39713,0.767959 -0.82938,2.356208 -1.06587,3.736167 -0.22788,1.329698 -0.54671,2.873693 -0.67453,3.314779 -0.11398,0.393344 -0.13651,0.766364 0.004,1.10117 0.14027,0.334811 0.458,0.572153 0.80222,0.661757 0.68845,0.179208 1.527,-0.02996 2.5749,-0.502512 0.81392,-0.367024 1.19569,-0.494905 1.33628,-0.482983 0.0703,0.006 0.12677,0.02369 0.25915,0.119428 0.13238,0.09573 0.31901,0.266848 0.57387,0.50627 l 1.34153,1.261165 1.31375,-1.234125 c 0.30879,-0.290095 0.60539,-0.639374 0.84728,-1.003521 -0.0413,0.510973 -0.0679,1.023073 -0.0278,1.466975 0.0476,0.526637 0.12367,0.975158 0.41838,1.33027 0.41231,0.496794 1.06849,0.782686 1.71861,0.782686 0.10387,0 0.3918,0.07266 0.68128,0.216328 0.28948,0.143669 0.59452,0.349613 0.81724,0.55885 0.29279,0.275058 0.52456,0.489832 0.80072,0.633959 0.13808,0.07207 0.29772,0.128208 0.47922,0.125443 0.18151,-0.0027 0.36723,-0.07655 0.50327,-0.182527 0.27209,-0.211963 0.41373,-0.50022 0.58364,-0.89536 0.1699,-0.395141 0.34982,-0.909702 0.57687,-1.580396 0.2919,-0.862244 1.03994,-1.983278 1.84029,-2.846822 0.40018,-0.431772 0.81388,-0.802464 1.17553,-1.053847 0.27012,-0.187754 0.43654,-0.226716 0.5889,-0.269659 -0.0245,0.202953 -0.0933,0.507281 -0.25764,0.905121 -0.36856,0.892165 -1.06511,2.079651 -1.89738,3.101459 -1.25829,1.544837 -1.96417,2.610602 -1.83804,3.703116 0.0631,0.546258 0.35855,1.030884 0.80447,1.464725 0.44592,0.433837 1.04904,0.841826 1.82377,1.299469 0.62868,0.371369 1.02003,0.884976 1.20558,1.53533 0.18555,0.650354 0.15476,1.450399 -0.14422,2.356324 -0.6193,1.876506 -1.72677,2.733481 -3.99832,3.045871 -1.02856,0.141453 -2.43253,0.570326 -3.61673,1.029064 -0.59211,0.229366 -1.12403,0.464912 -1.52782,0.68579 -0.2019,0.110437 -0.37129,0.215378 -0.51303,0.331253 -0.14174,0.115871 -0.329,0.220574 -0.329,0.573118 0,0.267997 0.0828,0.305175 0.14121,0.391344 0.0584,0.08617 0.12703,0.170348 0.20807,0.261398 0.16207,0.182096 0.37227,0.38686 0.60542,0.58814 0.31011,0.267728 0.753,1.266622 0.92014,2.574909 0.0145,0.113422 0.0153,0.180439 0.0278,0.289188 -0.44168,-0.920566 -1.38896,-2.517091 -2.20084,-3.705374 -0.58493,-0.856113 -1.05073,-1.44348 -1.5451,-1.861322 -0.49436,-0.417843 -1.02495,-0.647308 -1.62246,-0.759403 -0.9817,-0.184165 -2.6331,-0.126097 -4.22441,0.03454 -0.79565,0.08033 -1.5662,0.189242 -2.20985,0.318485 -0.64365,0.129243 -1.13535,0.249702 -1.49927,0.476972 -0.4151,0.259232 -0.63948,0.274416 -1.00353,0.07211 -0.36404,-0.202302 -0.85016,-0.726278 -1.4159,-1.622461 -0.65002,-1.029711 -1.42137,-1.759412 -2.48852,-2.190323 -1.06715,-0.43091 -2.39599,-0.577625 -4.22516,-0.577625 -1.24042,0 -1.8739,-0.05377 -2.00855,-0.09465 0.007,-0.055 0.0135,-0.131866 0.0593,-0.314728 0.0578,-0.230196 0.0975,-0.443094 0.0826,-0.670013 -0.0149,-0.22692 -0.10432,-0.4666 -0.2569,-0.649739 -0.30515,-0.366277 -0.74722,-0.548873 -1.43918,-0.823247 -0.90193,-0.357624 -2.21233,-0.769951 -3.0023,-0.940426 -0.4832,-0.10428 -0.74688,-0.226281 -0.84954,-0.318485 -0.10266,-0.0922 -0.13596,-0.163075 -0.13596,-0.443925 0,-0.590362 -0.33686,-1.123741 -0.7917,-1.716354 -0.45484,-0.592612 -1.06225,-1.215937 -1.72386,-1.79372 -0.66162,-0.577783 -1.3759,-1.108289 -2.05062,-1.503779 -0.67471,-0.395494 -1.29039,-0.674568 -1.88236,-0.679033 -0.76549,-0.0058 -1.11353,-0.189368 -1.15976,-0.25764 -0.0231,-0.03415 -0.0412,-0.06956 -0.01,-0.213324 0.0315,-0.143769 0.12986,-0.369924 0.31173,-0.647481 0.18011,-0.274893 0.32427,-0.490813 0.42815,-0.721848 0.10388,-0.231031 0.15915,-0.509862 0.0954,-0.775924 -0.12752,-0.532133 -0.51761,-0.866482 -1.16953,-1.539088 -0.38802,-0.40034 -0.66966,-0.775747 -0.824,-1.065866 -0.15434,-0.290122 -0.14107,-0.472576 -0.14572,-0.46045 0.10133,-0.264059 0.12012,-0.538509 0.0661,-0.796207 -0.054,-0.257698 -0.18523,-0.517757 -0.44617,-0.679028 -0.12776,-0.07896 -0.17308,-0.147646 -0.20056,-0.247126 -0.0275,-0.09948 -0.0268,-0.250129 0.0413,-0.457447 0.13615,-0.414627 0.54905,-1.012574 1.23413,-1.63598 0.41687,-0.379349 0.79313,-0.78215 1.07563,-1.140982 0.14125,-0.179416 0.25865,-0.34696 0.34928,-0.506269 0.0906,-0.159306 0.17426,-0.287723 0.17426,-0.532556 0,-0.200038 -0.0412,-0.327166 -0.0984,-0.557346 -0.0572,-0.230181 -0.13718,-0.518346 -0.23586,-0.850292 -0.19735,-0.663883 -0.46778,-1.500537 -0.76541,-2.357073 -0.79816,-2.29706 -1.20503,-3.680238 -1.27243,-4.491817 -0.0337,-0.405789 0.0115,-0.651749 0.0976,-0.833765 0.0862,-0.182016 0.22534,-0.330011 0.47697,-0.50627 0.21355,-0.149572 0.36737,-0.250152 0.47097,-0.307966 z m -3.38313,25.317913 c -0.24524,0.294891 -0.6035,0.665576 -1.07263,1.087652 -1.09772,0.987618 -3.00509,3.08896 -4.31455,4.741946 -0.78412,0.989833 -1.45552,1.761923 -1.98526,2.30149 -0.25552,0.260267 -0.32642,0.277638 -0.51002,0.425145 0.11507,-0.326088 0.1924,-0.600704 0.48749,-1.177037 0.16752,-0.327173 0.62493,-0.947917 1.22285,-1.648752 0.59793,-0.70083 1.34066,-1.501325 2.10845,-2.277453 1.53558,-1.552256 3.24068,-3.03556 3.90593,-3.389142 0.0846,-0.04497 0.0836,-0.0295 0.15774,-0.06385 z m 59.46566,-5.035607 c -0.0465,0.146123 -0.072,0.26892 -0.22083,0.556593 -0.21889,0.423099 -0.52782,0.924196 -0.86457,1.382097 -0.34301,0.466434 -0.68698,0.886176 -0.95244,1.174783 -0.1249,0.135793 -0.22853,0.235284 -0.30121,0.298202 -0.78836,-0.149991 -1.65834,-0.361881 -2.33229,-0.569364 -0.19916,-0.06131 -0.32156,-0.112052 -0.47847,-0.168255 0.23308,-0.110783 0.47779,-0.226643 0.78945,-0.337261 0.92825,-0.329461 2.40684,-1.103905 3.41468,-1.776445 0.54474,-0.363516 0.73698,-0.452139 0.94568,-0.56035 z M 138.87078,59.2853 c -0.0472,0.07667 -0.0877,0.147976 -0.15849,0.243368 -0.2142,0.288511 -0.52293,0.636182 -0.85855,0.952448 -2.19468,2.068132 -5.88392,6.834241 -7.90049,10.180944 -0.86649,1.438027 -1.54675,2.360574 -1.97775,2.797995 0.0314,-0.126543 0.047,-0.230869 0.15849,-0.499504 0.16267,-0.391872 0.40419,-0.893922 0.70232,-1.465475 0.59625,-1.143109 1.41873,-2.565307 2.30374,-3.998319 0.88502,-1.433008 1.83362,-2.878346 2.68232,-4.074181 0.8487,-1.195832 1.61683,-2.153825 2.05437,-2.550116 0.68237,-0.618033 1.62439,-1.160846 2.35032,-1.433177 0.28382,-0.106476 0.47729,-0.13337 0.64372,-0.153983 z m 20.07045,5.580213 c 0.0348,0.143423 0.0545,0.175435 0.0901,0.334257 0.16486,0.734754 0.34324,1.628649 0.50627,2.53134 0.32606,1.805385 0.58964,3.700266 0.58964,4.307035 0,0.672406 -0.2846,2.628586 -0.63321,4.161313 -0.27746,1.219914 -0.70756,2.322384 -1.11018,3.009066 -0.12575,0.214475 -0.21744,0.293191 -0.32149,0.412377 0.009,-0.146895 0.0139,-0.269512 0.0338,-0.464957 0.0654,-0.642855 0.18505,-1.513856 0.34176,-2.445709 0.32763,-1.948158 0.51265,-5.129929 0.42365,-7.242492 -0.0774,-1.837748 -0.0274,-3.4784 0.0796,-4.60223 z m 15.2872,2.67482 c 0.2289,0.352383 0.51909,0.757757 0.71583,1.07638 0.31854,0.515861 0.58756,0.978069 0.78269,1.347546 0.19514,0.369477 0.3141,0.670837 0.32975,0.745131 0.11735,0.556873 0.49021,1.990827 0.84128,3.25018 0.13938,0.500005 0.21447,1.083849 0.34853,1.708843 -1.14998,-4.006871 -1.94381,-6.239136 -3.01808,-8.12808 z"
         id="path6-2"
         sodipodi:nodetypes="sssssssssssscsscsssscsccsssssssccsssssccccsssscsssssssssssssssssssssssssssssscsscsssssscsssssssssccccsssssssssssscscssssssssscssssssscssssssssssssssssssscsssscsssscsssssssscssssssscsssssssssssssssssssssssssscsssscsssssssssccsssssssssscsssssssssssscssscssssccccsssssscssssscsssssssssssssssscsssssssssscsssssssssssssssssscsssssssssssssscccsssssssccssssscssccssssssssccssssssssssssssssssssssscs"
         inkscape:label="znak" /></g><path
       id="path6"
       style="font-size:126.083px;font-family:'New Rocker';-inkscape-font-specification:'New Rocker';letter-spacing:1.91593px;baseline-shift:baseline;white-space:pre;display:inline;overflow:visible;opacity:1;fill:none;stroke:#000000;stroke-width:0.95;stroke-dasharray:none;stroke-opacity:1;enable-background:accumulate;stop-color:#000000;stop-opacity:1"
       d="m 244.71438,84.581874 c -1.77171,3.281126 -3.57309,6.108487 -5.37866,8.48089 l -0.01,0.01964 -0.008,0.0059 c -1.68043,2.242997 -3.45167,4.01936 -5.31125,5.378827 -1.53682,1.123506 -2.90041,1.803469 -4.03646,2.148179 l -10.33092,3.13754 9.70645,4.72593 c 1.31,0.63704 2.47766,1.29472 3.50885,1.97143 0.98269,0.6449 1.90131,1.37225 2.76372,2.19994 l 0.0854,0.0836 0.0934,0.0777 c 0.89343,0.7655 1.80593,1.71222 2.72634,2.84755 1.00463,1.23917 2.11004,2.68665 3.3169,4.33748 l 7.83429,10.71634 c -0.60337,0.27596 -1.23676,0.6761 -1.8277,0.91048 -1.95346,0.7748 -4.22506,1.47971 -6.81075,2.09656 l -2.26896,0.53979 -0.75543,2.1942 c -1.46581,4.25548 -3.16586,8.22064 -5.10238,11.90334 -1.86867,3.47257 -3.99217,6.42214 -6.35577,8.89115 l -3.59862,3.76193 4.41241,2.7582 c 0.4169,0.2608 1.12384,0.80997 1.98917,1.62291 l 0.0254,0.0178 0.0116,0.0158 c 0.74771,0.68566 1.83841,1.821 3.14841,3.34171 l 0.0522,0.0714 0.0738,0.0677 c 1.26017,1.33753 2.78243,3.14537 4.52939,5.39708 l 0.006,0.008 c 1.02244,1.31555 2.15286,2.81285 3.40537,4.49173 l -7.20499,5.26728 c -0.33378,-0.44978 -0.67718,-0.90935 -1.02792,-1.38912 l -21.60243,-29.54947 -3.1381,6.08882 c -1.27368,2.47133 -3.13915,5.17503 -5.61503,8.05773 l -0.008,0.006 -0.008,0.006 c -2.41634,2.84097 -5.07585,5.47224 -8.00121,7.90482 l -3.05155,2.54711 5.23251,7.15743 3.02896,-1.18053 c 0.81792,-0.31787 1.26885,-0.31698 1.25094,-0.31856 l 0.27656,0.0289 0.22805,-0.0208 0.006,0.008 c 0.0481,0.0163 0.16803,0.0663 0.40189,0.217 0.39113,0.252 1.23119,0.98964 2.21368,2.21286 l 0.0602,0.0655 0.066,0.0734 c 1.09714,1.24606 2.48498,3.01649 4.12264,5.25661 l 9.97828,13.64906 -4.00386,6.86771 -2.0596,-0.0389 -13.79693,-18.8725 -3.33768,-4.56554 -0.0116,-0.0158 c -0.81048,-1.23488 -1.59024,-2.3672 -2.3502,-3.41443 l -0.006,-0.008 c -0.69608,-1.08871 -1.3463,-2.10477 -1.94798,-3.06388 -0.55839,-1.04505 -1.16685,-2.16731 -1.85565,-3.38677 l -3.72742,-6.57933 -3.6609,6.60481 c -0.43944,0.79096 -1.22315,1.98411 -2.27481,3.42659 -1.13975,1.42669 -2.40556,2.94536 -3.81679,4.57818 -1.41321,1.63513 -2.8569,3.23992 -4.31646,4.8097 -1.49831,1.4922 -2.87014,2.80429 -4.10504,3.90105 l -2.63053,2.32444 3.89754,6.47929 2.65013,-0.23466 c 0.94083,-0.0857 1.6549,0.0135 2.30266,0.2383 l 0.1799,0.0631 0.18203,0.0494 c 0.61186,0.15284 1.44145,0.51606 2.45316,1.25937 0.99453,0.7307 2.20215,1.86977 3.52253,3.42092 l 0.0602,0.0655 0.0602,0.0655 c 1.34234,1.45209 2.88373,3.3623 4.60019,5.71021 0.88486,1.21037 1.77769,2.47334 2.67167,3.78753 l -9.59081,7.01146 c -2.88705,-4.21755 -4.80385,-8.44123 -5.83605,-12.72449 l -0.49891,-2.07993 -5.26146,-2.22263 -2.00983,1.99228 c -1.03911,1.02829 -2.25888,2.06491 -3.67101,3.09725 -0.63312,0.46286 -1.30914,0.82004 -1.95173,1.25656 1.00851,-2.16944 2.03711,-4.38584 2.85461,-5.71131 l 2.03976,-3.31556 -3.12566,-2.31237 c -2.10135,-1.55361 -3.91309,-3.13228 -5.43725,-4.70905 -1.63447,-1.70779 -3.08919,-3.42708 -4.35555,-5.15931 l -1.2864,-1.75963 c -0.072,-0.12278 -0.12743,-0.23327 -0.19794,-0.35396 0.1249,-0.79876 0.14474,-1.60499 0.0764,-2.39104 -0.0868,-1.28241 -0.28554,-2.55818 -0.58186,-3.80716 -0.26517,-1.29552 -0.61688,-2.51833 -1.07242,-3.67963 l -0.0436,-0.12624 c -0.34572,-1.00269 -0.62948,-1.85623 -0.84872,-2.54178 l -2.08431,-6.52781 -4.9034,4.78876 c -0.79018,0.77108 -1.56089,1.47213 -2.31775,2.1201 -0.74428,0.63715 -1.55068,1.2796 -2.41932,1.91463 -2.14656,1.56926 -4.70796,3.02349 -7.67868,4.33651 -3.05532,1.24003 -6.04356,2.28797 -8.95431,3.14063 -2.8646,0.80945 -5.45639,1.38858 -7.76089,1.7452 -2.2554,0.30757 -3.88487,0.28875 -4.01151,0.26908 l -3.70464,-0.57558 -1.01829,3.61479 c -1.106547,3.94365 -2.55886,7.06375 -4.261018,9.42739 -1.773457,2.36946 -4.000538,4.5544 -6.737646,6.55539 -1.87917,1.37378 -3.888465,2.64599 -6.032627,3.82641 l -0.01586,0.0116 c -2.199784,1.19793 -4.495009,2.41339 -6.882722,3.64516 l -4.857792,2.50537 3.638223,4.07825 c 3.207809,3.59173 6.568236,6.13635 10.449334,7.08968 l 0.04698,0.0143 0.0549,0.009 c 2.674174,0.59203 5.43059,0.39148 8.163952,-0.179 1.261895,1.02476 2.523618,2.05534 3.876228,3.40561 1.760118,1.75706 3.445478,3.73141 5.062758,5.94366 1.62394,2.22135 3.03645,4.60621 4.23489,7.15702 l 0.0211,0.0454 0.0268,0.0533 c 1.17591,2.33736 1.90748,4.70564 2.22956,7.17569 l 0.28337,2.20102 1.97106,1.01585 c 0.38385,0.19783 1.15932,0.71052 2.11599,1.5302 l 0.11862,0.0957 0.11862,0.0957 c 0.98764,0.7302 2.0729,1.63439 3.24648,2.71056 l 0.0195,0.01 0.0116,0.0158 c 1.09704,0.98578 2.16145,2.05215 3.19138,3.20085 1.05324,1.17469 1.92854,2.23872 2.61817,3.18204 0.98239,1.34379 1.92951,3.00404 2.81029,4.97543 l 0.0269,0.0533 0.0268,0.0533 c 0.83875,1.74454 1.42947,3.55848 1.78866,5.4912 l 0.0168,0.0729 0.011,0.0649 c 0.40706,1.84844 0.53659,3.63594 0.41111,5.40365 -0.14967,1.4092 -0.56386,2.45193 -1.29883,3.43068 l -3.01256,4.01457 7.0335,3.61508 2.00967,-1.17729 c 2.76817,-1.62788 5.73862,-3.14827 8.90098,-4.56116 3.13723,-1.40166 6.31937,-2.59873 9.55671,-3.58102 l 0.0138,0.002 0.0159,-0.0116 c 3.25787,-1.01571 6.51313,-1.7382 9.77528,-2.18402 l 0.008,-0.006 c 3.31596,-0.4187 6.5884,-0.47863 9.83145,-0.19394 l 3.93722,0.3447 0.60754,-3.91044 c 0.54316,-3.49605 1.54522,-6.7779 2.99803,-9.8906 1.51982,-3.25625 3.23033,-6.20184 5.13162,-8.83544 l 0.0178,-0.0254 0.0179,-0.0255 c 1.98807,-2.84159 3.98842,-5.32912 5.99475,-7.47179 l 0.0416,-0.0428 0.0337,-0.037 c 2.08831,-2.3496 3.93638,-4.36659 5.54132,-6.04568 l 4.28695,-4.48405 -5.72524,-2.35793 c -1.31983,-0.54404 -2.72142,-1.30708 -4.1919,-2.32346 -1.5452,-1.06804 -3.08332,-2.25211 -4.61287,-3.54815 -1.08593,-0.99824 -2.13977,-2.02278 -3.15569,-3.06883 l 8.925,-6.52471 c 0.49041,0.78367 0.95772,1.56113 1.40328,2.3188 1.23979,2.10825 2.21458,3.91285 2.90946,5.37727 l 0.0421,0.0908 0.0499,0.0852 c 0.48395,0.90869 0.70043,1.76173 0.77785,1.91249 l 0.006,0.008 0.006,0.008 0.006,0.008 0.008,-0.006 -0.006,-0.008 0.008,-0.006 -0.002,0.014 0.18921,4.11855 4.55722,-0.57073 c 1.64484,-0.20529 3.11565,-0.34238 4.40023,-0.41946 l 0.17106,-0.0155 0.17107,-0.0156 c 1.23102,-0.17513 2.47582,-0.27612 3.74076,-0.29007 l 0.0707,-0.003 0.0707,-0.003 c 1.31874,-0.0571 2.72683,-0.0298 4.22898,0.0949 l 0.14514,0.0155 0.15307,0.01 c 1.51169,0.0185 3.36115,0.12462 5.51814,0.34441 l 3.99731,0.41024 0.61606,-3.96533 c 0.28038,-1.80471 0.5742,-3.51569 0.88172,-5.13254 0.3562,-1.581 0.7972,-3.18598 1.32356,-4.81096 0.60067,-1.69645 1.30177,-3.47025 2.09975,-5.32974 0.24836,-0.54814 0.62921,-1.27841 0.90855,-1.86828 1.02879,0.68452 2.06244,1.34721 3.15911,1.82575 l 0.0586,0.0301 0.0665,0.0243 c 2.8167,1.12805 6.1147,1.73061 10.02243,2.0138 l 5.55078,0.40567 -1.09777,-5.46115 c -0.148,-0.73445 -0.23451,-1.80688 -0.1753,-3.16787 l -0.003,-0.0707 0.0107,-0.0686 c 0.018,-1.46936 0.14089,-2.98714 0.38575,-4.5632 0.24486,-1.57605 0.58244,-3.06753 1.01111,-4.47307 0.42868,-1.40556 0.88019,-2.47099 1.26413,-3.16203 l 1.31732,-2.3739 -4.43286,-6.06361 -3.12586,1.39733 c -0.47783,0.2135 -0.69122,0.20622 -0.87442,0.2014 l -0.008,0.006 c -0.0456,-0.0266 -0.45522,-0.1781 -1.18284,-0.75287 -0.73855,-0.58342 -1.73361,-1.54732 -2.88733,-2.85149 l 6.91965,-5.05868 c 0.98306,1.4135 1.94658,2.84191 2.88943,4.28512 1.51749,2.33082 2.91695,5.07347 4.16466,8.24217 l 1.53133,3.89145 3.90457,-1.48012 c 1.9725,-0.74718 4.13493,-1.23304 6.5258,-1.43822 2.32406,-0.19947 4.75137,-0.0631 7.31585,0.44103 l 2.43318,0.48341 1.60799,-1.89312 c 1.46944,-1.73055 2.91837,-3.61227 4.35198,-5.62622 1.49549,-1.96435 2.87676,-3.95219 4.13819,-5.96859 l 0.0202,-0.039 0.0258,-0.0313 c 1.27221,-2.12582 2.42278,-4.22124 3.44295,-6.28737 0.31604,-0.64007 0.50587,-1.20968 0.79026,-1.83047 0.92127,0.37105 1.7229,0.86489 2.7056,1.17214 2.69785,0.84347 5.40378,1.24884 8.06541,1.1336 l 4.79634,-0.21037 -0.8043,-4.72701 c -0.12537,-0.74093 -0.20819,-1.92541 -0.1897,-3.43709 0.018,-1.46936 0.14089,-2.98716 0.38575,-4.5632 0.25207,-1.62252 0.57137,-3.1326 0.94891,-4.52489 l 0.002,-0.014 0.002,-0.014 c 0.35467,-1.34836 0.78964,-2.27396 1.12578,-2.769 l 1.67587,-2.46574 -4.42128,-6.04776 -2.95428,1.01648 c -0.53993,0.18662 -0.88846,0.20552 -1.22231,0.22464 -0.0646,-0.0306 -0.48775,-0.19122 -1.22887,-0.68273 -0.70688,-0.5836 -1.67063,-1.52507 -2.81506,-2.81918 l 6.96721,-5.09346 c 0.92338,1.43804 1.78834,2.89411 2.57418,4.36965 l 0.0189,0.0591 0.0405,0.0555 c 1.04464,1.82191 1.91223,3.5993 2.61553,5.32457 0.63203,1.60408 0.92003,2.83719 0.97084,3.47415 l 0.59691,7.55438 6.11909,-4.47342 c 0.90502,-0.66163 2.35714,-1.51257 4.28551,-2.4397 l 0.0158,-0.0116 0.008,-0.006 c 1.98033,-0.96777 4.09817,-1.84185 6.35757,-2.61663 l 0.0808,-0.0225 0.0829,-0.0363 c 2.247,-0.87325 4.517,-1.56824 6.81075,-2.09655 2.25226,-0.51875 4.17521,-0.75064 5.74356,-0.74474 l 3.07522,0.014 0.96659,-2.9202 c 0.3135,-0.94835 0.94447,-2.29693 1.87806,-3.90277 1.11206,-1.68949 2.30277,-3.4025 3.59378,-5.13274 l 0.0439,-0.0564 0.0439,-0.0564 c 1.20734,-1.74119 2.49525,-3.34718 3.86886,-4.82302 l 0.0519,-0.0622 0.0576,-0.0545 c 1.38628,-1.60397 2.60629,-2.88364 3.61874,-3.80096 l 4.03131,-3.65254 -4.52925,-3.00118 c -1.16979,-0.77739 -2.19585,-1.62691 -3.11899,-2.53618 -0.96436,-1.08381 -2.27138,-2.72431 -3.87346,-4.91577 l -1.63407,-2.23521 c -0.5259,-0.71936 -1.02811,-1.46342 -1.49474,-2.22762 l -2.99566,-4.91289 2.84822,-2.45925 -4.68537,-3.08164 c -0.99079,-0.65022 -2.17216,-1.54965 -3.49405,-2.69984 -1.31771,-1.146548 -2.62941,-2.416114 -3.93423,-3.801044 -1.35444,-1.437593 -2.66856,-2.895435 -3.9566,-4.380659 -1.30963,-1.520889 -2.44653,-2.947269 -3.40623,-4.260018 -1.24687,-1.705563 -2.1491,-3.140423 -2.68421,-4.20406 l -2.16835,-4.31361 -3.99032,2.710397 c -4.03773,2.746876 -8.18483,5.425589 -12.43899,8.023345 -4.26984,2.509527 -7.94363,4.476112 -10.9399,5.881452 l -2.03837,0.955032 -0.34534,2.222783 c -0.5985,3.852282 -1.49493,7.288312 -2.66927,10.307022 l -0.01,0.0196 -0.0122,0.0332 c -1.03409,2.76279 -2.5841,5.23689 -4.74648,7.53222 l -3.24714,3.44415 3.78679,2.8507 c 1.37,1.02875 3.3446,2.76433 5.77973,5.12762 l 0.037,0.0337 0.0506,0.036 c 2.14098,1.96329 4.66493,4.85713 7.45522,8.63395 l -7.52205,5.49907 c -0.72285,-0.96369 -1.48587,-1.99928 -2.29889,-3.1114 l -27.3098,-37.35657 c -2.45681,-3.360618 -4.36324,-6.450767 -5.73355,-9.223654 -1.20437,-2.617492 -1.61531,-4.770085 -1.5053,-6.501079 z M 116.72058,214.92017 c 2.0283,-0.65542 4.01815,-1.44218 5.96552,-2.35434 l 0.008,-0.006 0.014,0.002 c 2.71136,-1.28332 5.5279,-2.95176 8.41096,-4.79888 0.30655,0.46914 0.58656,0.93536 0.9275,1.40172 l 2.36999,3.24186 0.066,0.0734 c 0.50279,0.6232 0.81263,0.97738 1.23086,1.48402 -0.90375,3.07205 -2.07422,6.03908 -3.68852,8.86291 l -0.01,0.0196 -0.002,0.014 c -1.22142,2.17716 -2.83463,4.47312 -4.6219,6.82087 l -2.42214,-3.31319 -5.95105,-8.1403 c -0.78152,-1.06903 -1.52816,-2.21149 -2.29651,-3.30774 z m 139.44181,-66.18259 c 1.15641,-0.3906 2.27173,-0.72603 3.51465,-1.23155 0.65833,-0.26776 1.08466,-0.56669 1.67557,-0.83574 l 13.88384,18.99139 c -0.19991,0.38481 -0.29069,0.62143 -0.54526,1.06756 -0.78219,1.21749 -1.67571,2.48968 -2.7077,3.81602 -1.05041,1.35 -2.20214,2.7233 -3.43605,4.11741 -0.45304,-0.68036 -0.83138,-1.3026 -1.30504,-2.00142 l -0.0673,-0.10894 c -1.47826,-2.30739 -3.03165,-4.56284 -4.64613,-6.77125 -1.69305,-2.31589 -3.49131,-4.70044 -5.3935,-7.16137 -1.2406,-1.6966 -2.15633,-2.79303 -3.15373,-4.03109 0.40342,-0.87698 0.83608,-1.62775 1.21636,-2.62847 l 0.01,-0.0196 0.004,-0.0274 c 0.43981,-1.19919 0.65041,-2.13839 0.95007,-3.17571 z m 50.90789,-36.83968 c 0.67655,-0.3234 1.33152,-0.53647 2.014,-0.88855 l 0.0614,-0.0325 0.0693,-0.0383 c 1.20846,-0.67698 2.03311,-1.28115 3.05961,-1.92053 0.50132,0.57628 0.94315,1.21419 1.46904,1.75991 l 0.066,0.0734 0.068,0.0598 c 0.36236,0.34418 0.71892,0.62919 1.08014,0.96175 l -3.87653,4.64618 c -0.55503,-0.64789 -1.02058,-1.23794 -1.6145,-1.90898 -0.67698,-0.81284 -1.62423,-1.83046 -2.39611,-2.71193 z M 138.93882,246.60966 c 0.53972,-0.24873 1.18787,-0.57532 1.69083,-0.79824 l 0.0829,-0.0363 0.0829,-0.0363 c 1.64308,-0.81218 3.29016,-1.5385 4.9539,-2.17427 l 0.0297,-0.009 0.0217,-0.003 c 1.76543,-0.69714 3.61501,-1.36142 5.55642,-1.98229 l 0.0966,-0.0342 0.0967,-0.0341 c 1.21306,-0.4542 2.8136,-1.01259 4.28629,-1.54025 1.60462,1.99026 3.20595,3.97447 4.83624,5.99981 l 0.029,0.0396 0.029,0.0396 c 1.58992,1.88408 2.96089,3.2805 4.37195,4.78243 -0.95454,1.62265 -2.01889,3.32096 -2.69746,4.74506 -0.75371,1.46795 -1.35498,3.26439 -1.98945,4.98152 -0.28942,0.0351 -0.51653,0.0345 -0.81986,0.0764 -1.3576,0.18762 -2.71418,0.44256 -4.08033,0.75723 -1.24457,0.28665 -2.47271,0.60899 -3.67629,0.96051 l -0.008,0.006 c -0.31846,0.0734 -0.53848,0.16024 -0.83751,0.23525 -0.97977,-1.00917 -2.03807,-2.05683 -2.8096,-2.9448 -1.19569,-1.50305 -2.50807,-3.2311 -3.94272,-5.19352 -1.24243,-1.69949 -2.57682,-3.60407 -4.00533,-5.69508 -0.47956,-0.75391 -0.85127,-1.41581 -1.29745,-2.14075 z m 201.37984,-136.34743 -2.46298,3.23575 c -2.76244,3.63364 -4.58078,7.08232 -4.97453,10.76389 l -5.4e-4,0.0491 -0.009,0.0549 c -0.15527,1.91063 0.1161,3.80526 0.60233,5.66523 -0.25201,0.14967 -0.40592,0.24993 -0.67464,0.4081 -1.44126,0.75511 -2.9003,1.53075 -4.40201,2.33026 -1.56217,0.74067 -3.06939,1.43937 -4.49718,2.08363 -0.0455,0.0199 -0.0654,0.0127 -0.11038,0.032 -0.46286,-0.79207 -0.84836,-1.43978 -1.36578,-2.33406 -0.65161,-1.12618 -1.39782,-2.2257 -2.1017,-3.34069 2.82965,-2.84337 5.67264,-5.68807 8.69046,-8.54248 l 0.0258,-0.0313 0.0237,-0.0173 c 3.72463,-3.63461 7.47811,-7.08497 11.25584,-10.35713 z"
       inkscape:label="text" /><path
       id="path4"
       style="font-size:123.002px;font-family:'New Rocker';-inkscape-font-specification:'New Rocker';letter-spacing:1.86911px;baseline-shift:baseline;white-space:pre;display:inline;overflow:visible;opacity:1;fill:none;stroke:#000000;stroke-width:0.95;stroke-dasharray:none;stroke-opacity:1;enable-background:accumulate;stop-color:#000000;stop-opacity:1"
       d="m 225.60019,316.36261 -2.98483,5.97948 c -0.66962,1.33923 -1.56703,2.9293 -2.67063,4.74235 l -0.0295,0.0589 -0.0393,0.0589 c -1.02138,1.80706 -2.11489,3.61396 -3.29903,5.42965 l -0.0196,0.0196 -0.01,0.0196 c -1.1415,1.79378 -2.24092,3.50724 -3.29903,5.13509 l -0.0393,0.0589 -0.0393,0.0589 c -0.98922,1.64871 -1.77788,2.97767 -2.36626,3.98632 l -1.79679,3.0732 2.78846,2.2288 c 1.08147,0.86518 1.78014,1.58321 2.02262,1.89498 l 0.15709,0.20619 0.18656,0.17673 c 0.8385,0.83851 1.89722,1.75198 3.26956,2.86701 l 2.88665,2.35644 2.63136,-2.64118 c 0.3452,-0.3452 0.69657,-0.69114 1.05059,-1.04076 v 6.17585 c -2.10388,-0.28755 -3.9844,-0.59089 -5.63584,-0.91312 l -2.16007,-0.4222 -1.55133,1.55133 c -2.68929,2.68929 -5.37851,4.87714 -8.04137,6.57841 l -0.0196,0.0196 -0.0196,0.01 c -2.40507,1.58048 -5.05612,2.63813 -8.08065,3.20084 l -4.54597,0.84439 1.34514,4.41834 c 0.48665,1.59898 1.05309,4.10065 1.61023,7.36389 l 0.01,0.0589 0.01,0.0589 c 0.57684,2.88422 0.9033,6.79376 0.9033,11.61532 0,1.17855 -0.0345,2.44912 -0.0982,3.80958 h -10.59419 c 0.0272,-0.52958 0.0633,-1.0775 0.0982,-1.63969 0.23583,-2.50345 0.54168,-5.04973 0.93276,-7.63881 0.47307,-2.59689 0.98489,-5.06392 1.53169,-7.41299 0.60414,-2.33625 1.27148,-4.17284 1.90479,-5.43946 l 0.70693,-1.4335 -0.42219,-1.53169 c -1.16013,-4.14333 -2.20826,-7.5968 -3.14193,-10.39782 l 0.0196,0.0295 c -0.88233,-2.72722 -1.64268,-5.24015 -2.2779,-7.54063 v -0.01 c -0.61913,-2.3229 -1.17054,-4.73639 -1.63969,-7.22643 -0.38111,-2.52732 -0.69331,-5.71246 -0.93276,-9.5436 l -0.18655,-2.95538 -2.85719,-0.77566 c -3.75555,-1.01713 -7.52295,-2.3139 -11.30112,-3.88814 -3.79887,-1.58286 -6.86804,-3.10755 -9.15087,-4.5067 l -1.31568,-0.80512 -1.52187,0.25528 c -3.3308,0.55513 -6.65726,0.98755 -9.98544,1.30587 -3.36008,0.23957 -6.96879,0.44749 -10.82001,0.60875 -0.007,1.5e-4 -0.0125,-1.5e-4 -0.0196,0 -3.9249,0.0817 -8.22011,0.16367 -12.8819,0.24546 l -22.52462,0.71769 4.47818,6.70511 c 2.64074,2.00057 4.78001,3.74361 6.37222,5.18418 l 0.0295,0.0295 0.0393,0.0294 c 1.54267,1.33231 2.63027,2.61971 3.3383,3.79977 l 0.0687,0.0982 0.0687,0.108 c 0.76685,1.12078 1.27846,2.32065 1.58079,3.7114 0.32556,1.49757 0.52038,3.47233 0.52038,5.8813 0,2.07909 -0.0369,4.42127 -0.11782,7.01042 -0.0778,2.40625 -0.27014,4.77022 -0.5793,7.08898 l -0.01,0.0589 v 0.0589 c -0.22357,2.16115 -0.59993,4.12931 -1.09967,5.92057 -0.46171,1.57331 -1.01729,2.49507 -1.28623,2.78846 l -2.26807,2.47427 1.9637,2.72955 c 0.74072,1.02561 1.37164,2.32765 1.83606,3.98632 l 0.0196,0.0982 0.0393,0.0884 c 0.56351,1.69055 0.95373,3.46109 1.16841,5.32164 l 0.01,0.0785 0.01,0.0785 c 0.29776,1.93544 0.44183,3.81585 0.44183,5.64565 v 0.0785 0.0786 c 0.0802,2.0061 0.11782,3.79952 0.11782,5.37073 0,0.81416 -0.25211,2.00648 -1.03094,3.56413 l -0.0196,0.0393 -0.0196,0.0295 c -0.78314,1.63749 -1.74941,3.25323 -2.9161,4.86016 -1.18228,1.54721 -2.39222,2.93774 -3.61321,4.16306 -1.22693,1.14731 -2.21636,1.8739 -2.543,2.05207 l -7.47164,7.75663 c 9.75353,0 28.31654,0.5598 36.79956,1.67897 8.47516,1.18873 15.82295,3.1601 22.05241,5.85184 l 2.93573,1.26659 1.96371,-2.52336 c 3.31297,-4.25953 6.63768,-7.84601 9.93634,-10.7611 l 0.01,-0.0196 0.0295,-0.01 c 2.98481,-2.70716 6.3556,-4.38437 10.41745,-5.15472 l 4.5558,-0.86403 -1.38442,-4.42816 c -0.31817,-1.01814 -0.54895,-2.12566 -0.68729,-3.32848 -0.006,-0.10776 -0.0143,-0.21576 -0.0196,-0.32401 h 9.97562 c -0.0167,0.12251 -0.0414,0.24106 -0.0589,0.36329 l -0.01,0.0687 v 0.0687 c -0.22638,2.03737 -0.57152,3.93028 -1.01131,5.69474 -0.4256,1.6256 -0.91062,2.75863 -1.23713,3.28921 l -3.8685,6.29367 h 7.38353 c 1.09368,0 2.73896,0.16975 4.79144,0.54984 h 0.01 0.01 c 2.11682,0.378 4.29402,0.91957 6.5195,1.61023 l 0.0785,0.0196 0.0786,0.0196 c 2.2724,0.60598 4.45798,1.36352 6.56859,2.26808 2.07246,0.88819 3.7266,1.82194 4.95836,2.72955 l 2.41535,1.77715 2.435,-1.7477 c 0.79337,-0.5667 2.06981,-1.26554 3.73103,-1.99316 1.8476,-0.68987 3.77131,-1.34468 5.78311,-1.9637 l 0.0687,-0.0295 0.0687,-0.0196 c 1.95333,-0.67615 3.89088,-1.19952 5.82239,-1.57096 l 0.0786,-0.01 0.0785,-0.0196 c 2.01524,-0.46506 3.71141,-0.76377 5.03691,-0.9033 l 5.27254,-0.54984 -1.83606,-4.97799 c -0.47437,-1.28756 -0.79806,-2.55046 -1.00149,-3.79977 -0.13527,-1.40873 -0.21601,-3.45134 -0.21601,-6.0973 v -1.07022 h 8.73849 v 5.99912 c 0,1.90276 -0.32473,3.11389 -0.54984,3.56412 l -0.0196,0.0491 -0.0294,0.0491 c -0.10929,0.23418 -0.18072,0.36027 -0.21601,0.41238 l -2.50372,1.04076 v 8.72867 h 30.88907 v -8.84649 l -2.55282,-0.9524 c -0.0318,-0.0709 -0.10089,-0.21311 -0.19637,-0.47129 -0.28536,-0.77155 -0.56947,-2.39534 -0.56947,-4.68343 v -24.5954 l 6.99079,-3.02411 v 28.729 c 0,1.90276 -0.32473,3.11389 -0.54984,3.56412 l -0.0196,0.0491 -0.0294,0.0491 c -0.10928,0.23417 -0.18072,0.36027 -0.21601,0.41238 l -2.50372,1.04076 v 8.72867 h 30.15268 v -8.84649 l -2.56264,-0.9524 c -0.0318,-0.0709 -0.0911,-0.21316 -0.18655,-0.47129 -0.28537,-0.77155 -0.56947,-2.39535 -0.56947,-4.68343 v -11.19312 -8.98395 c 0,-1.84151 0.037,-3.02466 0.0687,-4.38888 l 7.16752,-3.07319 v 10.21126 0.0294 c 0.0816,4.64994 0.12764,9.3022 0.12764,13.95213 0,0.65174 -0.0754,2.09228 -0.23564,4.09432 -0.16115,2.01437 -0.36549,4.25313 -0.60875,6.68641 -0.23623,2.2814 -0.54879,4.55954 -0.94258,6.84351 v 0.01 l -0.01,0.0196 c -0.39044,2.34261 -0.80787,4.23771 -1.22731,5.63583 l -0.71676,2.36626 5.50819,5.49838 2.91611,-3.12229 c 1.04541,-1.12007 2.26787,-2.305 3.6623,-3.54449 1.37685,-1.22386 2.84011,-2.40845 4.37907,-3.56412 1.60797,-1.1469 3.16693,-2.17714 4.67361,-3.08302 0.74091,-0.42241 1.39704,-0.65401 2.10117,-0.98185 l -1.86552,1.61024 15.49363,-3.10266 c 0.15043,-0.0301 0.28749,-0.0393 0.42219,-0.0393 h 0.33383 l 0.34365,-0.0589 c 0.27184,-0.0453 0.5327,-0.0687 0.7953,-0.0687 1.39431,0 3.39338,0.18074 5.8813,0.56947 2.49959,0.39056 5.00495,0.89532 7.51117,1.52187 2.50361,0.6259 4.78619,1.2838 6.86314,1.97353 1.9666,0.73473 3.25788,1.48732 3.45612,1.64951 l 2.88665,2.36626 2.64118,-2.651 c 1.55981,-1.55981 3.3275,-3.05397 5.302,-4.49688 l 0.0393,-0.0393 0.0393,-0.0294 c 1.95966,-1.50743 3.98605,-2.81672 6.07767,-3.93723 2.12769,-1.13983 4.23238,-2.08103 6.32313,-2.82773 2.05263,-0.73308 3.9338,-1.18135 5.62601,-1.38442 l 4.32997,-0.52038 -0.75603,-4.30051 c -0.26549,-1.50444 -0.5102,-3.01452 -0.72657,-4.53616 h 7.18716 v 5.99912 c 0,1.90276 -0.3149,3.11389 -0.54002,3.56412 l -0.0295,0.0491 -0.0196,0.0491 c -0.10928,0.23417 -0.19054,0.36026 -0.22583,0.41238 l -2.50372,1.04076 v 8.72867 h 30.88907 v -8.84649 l -2.55282,-0.9524 c -0.0315,-0.0707 -0.0908,-0.21239 -0.18655,-0.47129 -0.28537,-0.77155 -0.57929,-2.39535 -0.57929,-4.68343 v -23.77065 l 8.47338,-3.78995 v 10.13272 0.0294 c 0.0816,4.64994 0.11783,9.3022 0.11783,13.95213 0,0.65174 -0.0755,2.09228 -0.23565,4.09432 -0.16138,2.01731 -0.35518,4.24897 -0.59893,6.68641 -0.23618,2.28006 -0.55883,4.56088 -0.95239,6.84351 v 0.01 0.0196 c -0.39043,2.34261 -0.81771,4.23771 -1.23714,5.63583 l -0.70693,2.36626 5.50819,5.49838 2.9161,-3.12229 c 1.0454,-1.12007 2.26789,-2.305 3.66231,-3.54449 1.37686,-1.22386 2.83029,-2.40845 4.36924,-3.56412 1.60798,-1.1469 3.16695,-2.17714 4.67362,-3.08302 1.52162,-0.86751 2.96752,-1.53594 4.32997,-2.0128 l 3.38739,-1.18804 -0.69712,-3.51503 c -0.15622,-0.7811 -0.31385,-1.60966 -0.47129,-2.47427 -0.1264,-0.76329 -0.24811,-1.85422 -0.32401,-3.22047 -0.0784,-1.41065 -0.15558,-3.25987 -0.23564,-5.48856 v -8.91521 c 0,-4.2376 0.0473,-7.77269 0.12764,-10.58437 0.0807,-2.82362 0.15568,-5.1889 0.23564,-7.11843 0.1534,-1.82754 0.30803,-3.30484 0.45166,-4.3987 0.22017,-1.1582 0.46611,-2.23035 0.7462,-3.21066 l 0.96222,-3.36775 -3.15175,-1.50223 c -1.63148,-0.77689 -3.04376,-1.49809 -4.2416,-2.1699 -1.2177,-0.76238 -2.39376,-1.52807 -3.53467,-2.28771 -1.01668,-0.72801 -2.0474,-1.52951 -3.08301,-2.41536 -1.11972,-1.04013 -2.35393,-2.19813 -3.71141,-3.47576 l -2.99464,-2.81791 -2.82774,2.98483 c -2.85392,3.01248 -5.60524,5.60832 -8.23774,7.77627 -0.79114,0.65152 -1.86025,1.31759 -2.71973,1.97352 v -3.24993 l -4.37906,-7.29516 -2.9652,0.73639 c -2.56022,0.64005 -5.50885,1.32543 -8.81703,2.05207 -3.28526,0.64031 -6.31737,1.16477 -9.09195,1.56114 l -3.54449,0.50075 v 7.64863 l 4.54598,1.97352 v 25.44961 h -8.14938 c -0.30683,-3.88047 -0.46147,-7.8116 -0.46147,-11.80186 0,-7.02841 0.48043,-13.07298 1.40405,-18.0759 l 1.08986,-5.8813 -5.89111,1.07022 c -0.72393,0.13162 -1.49312,0.23291 -2.30736,0.30438 h -3.83904 c -2.9157,0 -6.1718,-0.30069 -9.74979,-0.92295 -3.4573,-0.60127 -8.00656,-1.81791 -13.53975,-3.6623 l -2.42517,-0.80512 -1.80661,1.79679 c -3.48543,3.48543 -7.04253,6.35796 -10.67273,8.63048 -3.62833,2.18933 -6.77188,3.43822 -9.27851,3.88813 l -6.82387,1.2175 4.06487,5.08599 v 0.01 c 0.006,0.0179 0.0138,0.0391 0.0196,0.0589 0.0969,0.32717 0.24548,0.93778 0.39274,1.7477 0.29944,1.64694 0.57685,3.71573 0.81493,6.17585 l 0.01,0.0687 v 0.0687 c 0.31395,2.43306 0.55773,5.03271 0.71675,7.81554 v 0.01 c 0.0648,1.10153 0.10906,2.17047 0.14728,3.20084 h -8.03155 c 0.007,-3.69435 0.0454,-6.81294 0.11782,-9.34723 0.0807,-2.82362 0.16552,-5.1889 0.24547,-7.11843 0.15341,-1.82754 0.2982,-3.30484 0.44183,-4.3987 0.22017,-1.1582 0.47595,-2.23035 0.75603,-3.21066 l 0.95239,-3.36775 -3.15174,-1.49241 c -1.63149,-0.7769 -3.04377,-1.5079 -4.2416,-2.17972 -1.21771,-0.76238 -2.39376,-1.52807 -3.53467,-2.28771 -1.01667,-0.72801 -2.04743,-1.52952 -3.08302,-2.41536 -1.11972,-1.04013 -2.34409,-2.19813 -3.70158,-3.47576 l -3.09284,-2.90628 -2.82773,3.17138 c -2.53891,2.85626 -4.9806,5.33087 -7.30498,7.42281 -0.93875,0.84488 -2.13736,1.71164 -3.17138,2.56263 -1.53234,-0.73463 -2.89597,-1.43264 -4.03542,-2.07171 -1.21771,-0.76238 -2.39376,-1.52807 -3.53467,-2.28771 -1.01667,-0.72801 -2.0376,-1.52952 -3.07319,-2.41536 -1.11972,-1.04013 -2.35391,-2.19813 -3.7114,-3.47576 l -3.13211,-2.94555 -2.81792,3.24993 c -2.60201,2.99625 -5.14279,5.56771 -7.59954,7.71736 -0.51534,0.44876 -1.21147,0.93009 -1.75751,1.38441 v -2.73937 l -4.37906,-7.29516 -2.9652,0.73639 c -2.55846,0.63961 -5.50178,1.32598 -8.80721,2.05207 -3.28855,0.64107 -6.32478,1.16443 -9.10177,1.56114 l -3.54449,0.50075 v 7.64863 l 4.54598,1.97352 v 25.44961 h -8.24756 l 0.0884,-1.07022 3.6623,-0.30437 -1.92443,-5.11545 c -0.40593,-1.0825 -0.8092,-2.47651 -1.18804,-4.14342 -0.37765,-1.66163 -0.68288,-3.41096 -0.91312,-5.25291 -0.23901,-1.91199 -0.43966,-3.82274 -0.59893,-5.73401 -0.15586,-1.95249 -0.23564,-3.72497 -0.23564,-5.31183 0,-2.06109 0.12322,-3.71439 0.31419,-4.86016 l 0.77566,-4.64417 -4.70307,-0.15709 c -3.97157,-0.13462 -7.97771,-0.3543 -12.00805,-0.65784 V 342.853 c 0.0375,-0.0337 0.0804,-0.0645 0.11782,-0.0982 1.57502,-1.41751 3.00648,-2.62135 4.29069,-3.60339 l 0.0589,-0.0491 0.0589,-0.0393 c 1.34144,-1.10472 2.36394,-1.8836 2.86701,-2.21899 l 5.55729,-3.70158 -5.80275,-3.31866 c -0.42718,-0.2441 -1.24667,-0.7499 -2.29753,-1.42369 -1.01958,-0.78206 -2.10501,-1.59721 -3.25975,-2.44481 -1.06714,-0.83906 -2.09384,-1.67838 -3.08302,-2.51354 -0.8427,-0.77644 -1.42945,-1.40846 -1.66915,-1.72806 z M 160.20883,345.828 c 0.2163,1.30169 0.34844,2.46245 0.64803,3.91759 v 0.01 l 0.01,0.01 c 0.58882,2.77586 1.25798,5.59241 2.0128,8.44393 v 0.01 l 0.01,0.0196 c 0.74358,2.72646 1.48417,5.36849 2.2288,7.93337 l 0.01,0.0196 v 0.0196 c 0.5642,1.88068 1.05161,3.32261 1.53169,4.76199 -0.64266,1.52389 -1.20703,3.18468 -1.70842,5.25291 l -0.0196,0.0589 -0.01,0.0589 c -0.59107,2.78651 -1.13782,5.76616 -1.63969,8.94467 v 0.0491 l -0.01,0.0393 c -0.41979,3.10647 -0.75933,6.21988 -1.01131,9.3276 -0.16412,1.97099 -0.18694,3.35995 -0.24546,4.8798 -1.62539,0.87328 -3.21972,1.84407 -4.72271,3.03393 -1.49515,1.18366 -2.74643,2.52756 -3.88813,3.93722 -0.42755,-0.0697 -0.75551,-0.11788 -1.22732,-0.19637 -1.36788,-0.32124 -2.76919,-0.64155 -4.21214,-0.96221 -1.44135,-0.3203 -2.8426,-0.64252 -4.20233,-0.96222 l -0.0295,-0.01 c -0.008,-0.002 -0.0114,0.002 -0.0196,0 -0.087,-0.0218 -0.1315,-0.0376 -0.21601,-0.0589 -0.37453,-5.0423 -0.70929,-10.02602 -0.91312,-14.77687 -0.16225,-5.7721 -0.24547,-11.25329 -0.24547,-16.44603 0,-5.39124 0.0461,-10.45035 0.12764,-15.17943 0.0619,-3.65137 0.1666,-6.65313 0.27492,-9.63198 1.02262,-0.26048 1.9573,-0.56482 3.08302,-0.76584 l 0.0589,-0.01 0.0491,-0.0196 c 2.25354,-0.46625 4.46145,-0.80974 6.61769,-1.04076 l 0.0589,-0.01 0.0687,-0.01 c 2.27144,-0.31331 4.31842,-0.50395 6.12675,-0.57929 h 0.0786 l 0.0786,-0.01 c 0.5242,-0.0419 0.77818,-0.0286 1.24695,-0.0589 z m 188.87892,30.24105 h 0.01 v 0.01 c 0.0164,0.0221 0.0516,0.0728 0.0786,0.13746 -0.0469,-0.069 -0.0789,-0.12642 -0.0884,-0.14728 z m -128.59319,0.56948 c 0.71897,0.1348 1.36102,0.34583 2.10117,0.46147 l 0.0687,0.01 0.0687,0.01 c 1.34131,0.16259 2.33863,0.15801 3.51503,0.24547 0.063,0.74268 0.0474,1.50587 0.14727,2.23862 l 0.01,0.0884 0.0196,0.0884 c 0.0872,0.47952 0.20158,0.9147 0.29456,1.38441 l -5.73402,1.42369 c -0.0614,-0.79439 -0.0798,-1.49539 -0.1571,-2.32699 v -0.0393 c -0.0658,-1.0472 -0.23156,-2.41399 -0.33383,-3.57395 z m 154.44536,1.04076 c 0.87919,0.23761 1.66911,0.4936 2.651,0.71675 l 0.0393,0.01 0.0491,0.01 c 2.5276,0.51701 5.14767,0.7957 7.74682,1.11931 l -0.18656,26.03872 c -1.52838,-0.35355 -2.94084,-0.80264 -4.56561,-1.08004 -2.04272,-0.34876 -3.78895,-0.56352 -5.63583,-0.82475 0.0734,-1.65242 0.16883,-3.29061 0.21601,-4.96817 v -0.0491 c 0.16506,-3.06858 0.24546,-5.8295 0.24546,-8.28683 0,-3.10648 -0.0773,-6.18137 -0.24546,-9.20977 -0.059,-1.09014 -0.22489,-2.33929 -0.3142,-3.47576 z m -127.31678,16.81913 -3.79977,1.12913 c -4.26764,1.27122 -7.69313,2.93362 -10.12289,5.60637 l -0.0295,0.0393 -0.0393,0.0393 c -1.22227,1.41525 -2.09071,3.06642 -2.77865,4.81108 -0.27666,-0.0265 -0.45248,-0.0296 -0.7462,-0.0589 -1.57124,-0.23538 -3.17631,-0.47174 -4.8209,-0.70694 -1.65553,-0.31577 -3.22815,-0.62823 -4.72271,-0.94257 l -0.01,-0.01 c -0.0546,-0.0122 -0.074,-0.0173 -0.12764,-0.0295 0.0915,-0.89021 0.15773,-1.62927 0.2651,-2.63136 0.13525,-1.26235 0.1873,-2.5554 0.27492,-3.83904 3.86608,-0.61024 7.74191,-1.21749 11.76259,-1.72806 h 0.0295 l 0.0393,-0.01 c 5.02842,-0.71835 9.96458,-1.26713 14.82597,-1.66915 z m 95.63241,9.67124 h 8.01192 c -0.12588,2.4721 -0.35808,4.54304 -0.67748,6.18567 l -0.01,0.0491 -0.01,0.0491 c -0.37602,2.19343 -1.06518,3.25586 -1.08986,3.34811 l -4.93871,4.2416 -0.2651,-1.30586 c -0.15498,-0.77491 -0.30529,-1.59752 -0.46147,-2.45463 -0.12731,-0.76384 -0.24764,-1.86557 -0.32401,-3.24011 -0.0784,-1.41065 -0.15558,-3.25987 -0.23565,-5.48856 z"
       inkscape:label="text"
       sodipodi:nodetypes="ccccccccccccccccccccccccscccccccccsccccccccccccccccscccccccccccccccsscccccsccccccccsccsscccccccccccccscccccscccccsccccccsccccccccccccccsccscccccccccssccscccccccccsscsccccssccccccccscccccsccssscccccccsscccccscccccccccssccccssccccccccsccccccscssccscccccccsscccccccccccsccccsscccccccccscccccccscccccccccccsccccccccccccccccccccccsscscccccsccccccccccccccccccccccccccccccsccscccccscccccccccccccccccccccccccccccccccccccscccscccccccccccccsccccccccccccccscccscc" /></g><style
     id="style1-5">
		tspan { white-space:pre } 
		.s0 { fill: none;stroke: #ff0000;stroke-miterlimit:100 } 
	</style></svg>
