<?xml version="1.0" encoding="UTF-8" standalone="no"?>
<!-- Created with Inkscape (http://www.inkscape.org/) -->

<svg
   width="210mm"
   height="297mm"
   viewBox="0 0 210 297"
   version="1.1"
   id="svg1"
   xml:space="preserve"
   inkscape:version="1.4.2 (2aeb623e1d, 2025-05-12)"
   sodipodi:docname="Babicka.svg"
   xmlns:inkscape="http://www.inkscape.org/namespaces/inkscape"
   xmlns:sodipodi="http://sodipodi.sourceforge.net/DTD/sodipodi-0.dtd"
   xmlns="http://www.w3.org/2000/svg"
   xmlns:svg="http://www.w3.org/2000/svg"><sodipodi:namedview
     id="namedview1"
     pagecolor="#ffffff"
     bordercolor="#000000"
     borderopacity="0.25"
     inkscape:showpageshadow="2"
     inkscape:pageopacity="0.0"
     inkscape:pagecheckerboard="0"
     inkscape:deskcolor="#d1d1d1"
     inkscape:document-units="mm"
     inkscape:zoom="0.9540482"
     inkscape:cx="179.76031"
     inkscape:cy="253.65595"
     inkscape:window-width="1920"
     inkscape:window-height="1043"
     inkscape:window-x="0"
     inkscape:window-y="0"
     inkscape:window-maximized="1"
     inkscape:current-layer="layer1"
     showgrid="false" /><defs
     id="defs1" /><g
     inkscape:label="Layer 1"
     inkscape:groupmode="layer"
     id="layer1"><path
       style="fill:#0a0a0a;stroke:none"
       d="m 85.201991,27.347643 c 0.83085,-1.18628 0.28575,-2.15758 0,-3.43958 h 0.26459 l 0.52916,0.79375 v -2.38125 h -0.26458 l -0.26458,1.32292 h -0.26459 c 0.25289,-5.888919 0.19502,-8.85249 -4.23333,-13.228152 -1.48407,-1.4664148 -3.21413,-3.4600198 -5.02708,-4.4926038 -0.92386,-0.526195 -2.14151,-0.444805 -2.30939,0.801914 -0.61867,4.5943328 7.86078,5.9232408 9.09505,9.7514068 0.82993,2.574045 -0.2056,6.833635 -0.58143,9.473145 -0.77761,5.46132 -0.4316,11.39019 -1.70632,16.74429 -1.65463,-0.46955 -4.95826,-0.59735 -6.23547,-1.74327 -1.45712,-1.30734 -2.07678,-4.72974 -3.30096,-6.45881 -3.43289,-4.84876 -9.67467,-7.12088 -15.3344,-5.3817 -2.26981,0.69748 -3.82665,1.75859 -5.82083,3.00045 -1.77798,-6.43552 -14.302171,-11.59151 -17.462504,-3.43959 h -0.529166 c -2.814461,-6.69082 -11.412374,-9.68415 -17.991668,-7.15559 -2.429808,0.93383 -3.8510805,3.8028 -6.0958285,4.61082 -1.148454,0.41339 -2.783046,-0.21633 -3.958338,-0.36565 2.566702,-3.87506 5.586961,-7.36644 7.9734315,-11.377079 1.768622,-2.972299 3.478603,-7.1267288 6.578652,-8.9354048 2.219353,-1.294841 6.17734,-1.263521 8.73125,-1.648946 1.062008,-0.16027 5.281877,-1.489339 3.543292,-3.242172 -1.565812,-1.578642 -6.712898,0.666893 -8.570375,1.014441 -7.96306,1.489953 -12.8986075,10.4162088 -17.2073075,16.5162488 -1.41173,1.998662 -3.82863003,4.297132 -4.62510603,6.614582 -0.179953,0.5236 -0.07539,1.04927 -0.114733,1.5875 -0.38113,5.21314 4.94492003,2.06586 7.16824803,4.84661 2.211192,2.76558 1.659796,6.50441 4.7257525,9.09015 5.040725,4.25121 15.095619,5.03988 19.376035,-0.70861 3.036338,-4.07773 2.223273,-11.07701 9.197945,-10.24015 6.21676,0.74591 5.75931,6.64911 6.42941,11.2995 0.51061,3.54356 2.46898,7.62746 5.47704,9.66587 4.69282,3.18009 11.93022,3.59269 16.66855,0.3299 1.61155,-1.10969 2.87235,-3.84827 4.54691,-4.54424 2.38709,-0.99213 5.17832,1.73722 7.57513,0.73882 4.90306,-2.04238 4.28213,-10.05652 4.28213,-14.39243 0,-1.43422 0.50599,-3.83345 -0.26459,-5.02709 M 30.433244,1.6830642 24.347827,1.9476472 c 1.07401,-1.328214 5.175823,-1.932957 6.085417,-0.264583 m 49.477087,8.9958328 -5.29167,-3.9687498 c 1.74975,-0.457587 4.36183,2.659673 5.29167,3.9687498 m 4.23333,5.027084 -0.26458,0.264583 0.26458,-0.264583 m 0.26458,0.529166 c 0.72706,2.459736 0.0653,5.167036 0.004,7.672916 -0.14209,5.79884 0.69656,12.9726 -1.06221,18.52084 h -0.26458 l 0.78987,-13.22917 0.53304,-12.964586 M 31.226994,29.993483 c -1.999281,-1.20963 -3.31818,-3.70802 -5.291667,-5.12304 -3.932201,-2.81945 -7.684149,-2.28825 -12.170834,-2.2853 4.86729,-4.289947 17.261177,1.0744 17.462501,7.40834 m -13.493751,-6.27426 c 4.641796,-0.56295 9.737585,2.42719 11.793148,6.53884 2.171601,4.34376 -0.679355,9.57647 -5.443147,10.26322 -4.168432,0.60094 -8.724367,-0.34603 -11.58614,-3.64965 -4.8492555,-5.59799 -1.693232,-12.31202 5.236139,-13.15241 m 30.956248,9.44926 h -0.52916 c -2.38611,-4.031 -4.74631,-6.08542 -9.525004,-6.08542 v -0.26458 l 1.058334,-0.26459 v -0.26458 l -2.116667,-0.26458 c 4.071497,-2.79748 12.046797,2.3371 11.112497,7.14375 m -41.5395805,-6.35 v 0.79375 l -5.820834,-0.79375 c 1.53106,-1.15245 4.062004,-0.139 5.820834,0 m 20.9020835,9.78958 c -4.392247,0 -9.323305,0.30477 -12.170834,-3.70416 l 0.79375,0.52916 -2.910417,-6.87917 c -2.932825,1.02105 -2.843245,5.33286 -1.610774,7.67292 2.715423,5.1557 12.338717,8.52162 15.898275,2.38125 m 44.449997,4.7625 c -3.69376,-7.79529 -9.43001,-12.46238 -18.25625,-10.05416 4.62259,-4.59404 12.64017,-1.00227 15.93829,3.43958 1.11977,1.50809 3.4858,4.72581 2.31796,6.61458 m -15.08125,-9.44823 c 5.05375,-0.56055 10.46751,2.58578 12.67469,7.06698 2.42803,4.9296 -1.44796,10.23455 -6.58927,10.87589 -3.71968,0.464 -8.31917,-0.35923 -10.93632,-3.25176 -5.09842,-5.63489 -3.12513,-13.80643 4.8509,-14.69111 m -24.07708,1.24615 -2.116667,5.55625 h -0.264583 l 2.38125,-5.55625 m 18.52083,3.175 c -0.73648,3.18346 -1.53077,11.44977 4.23334,10.84792 2.59221,3.95742 11.20688,1.90674 12.96458,-1.85209 l -6.87917,0.52917 -3.70416,-2.30776 -5.55625,-6.42349 0.26458,1.85208 h -0.26458 l -1.05834,-2.64583 m -39.158331,1.32292 c 4.338196,3.69751 8.179632,3.58555 13.49375,2.91041 v 0.26459 c -3.484538,1.13382 -7.195192,1.4473 -10.583333,-0.23948 -0.965082,-0.48046 -3.033484,-1.72316 -2.910417,-2.93552 m 40.745831,1.32291 0.26459,0.79375 -0.26459,-0.79375 m 0.52917,1.05834 -0.26458,0.26458 0.26458,-0.26458 m 26.9875,3.43958 c -1.18955,1.54151 -5.46737,-0.20407 -7.14375,-0.52917 1.4806,-1.46714 5.24798,0.27389 7.14375,0.52917 m -28.83958,3.43958 c 2.94709,2.35639 5.97387,3.62541 9.78958,3.70417 v 0.26458 c -2.62754,0 -9.54908,-0.16551 -9.78958,-3.96875 m 3.43958,0 -0.26458,0.26459 0.26458,-0.26459"
       id="path1"
       sodipodi:nodetypes="ccccccccssssscssscccsscssssssscsssssssssscccccccccccccccccscccssscccccccccccccccccscccsccssscccccccccccccccccsccccccccccccccccc" /></g></svg>
