<?xml version="1.0" encoding="UTF-8" standalone="no"?>
<!-- Created with Inkscape (http://www.inkscape.org/) -->

<svg
   width="210mm"
   height="297mm"
   viewBox="0 0 210 297"
   version="1.1"
   id="svg1"
   xml:space="preserve"
   inkscape:version="1.4.2 (2aeb623e1d, 2025-05-12)"
   sodipodi:docname="Biskup.svg"
   xmlns:inkscape="http://www.inkscape.org/namespaces/inkscape"
   xmlns:sodipodi="http://sodipodi.sourceforge.net/DTD/sodipodi-0.dtd"
   xmlns="http://www.w3.org/2000/svg"
   xmlns:svg="http://www.w3.org/2000/svg"><sodipodi:namedview
     id="namedview1"
     pagecolor="#ffffff"
     bordercolor="#000000"
     borderopacity="0.25"
     inkscape:showpageshadow="2"
     inkscape:pageopacity="0.0"
     inkscape:pagecheckerboard="0"
     inkscape:deskcolor="#d1d1d1"
     inkscape:document-units="mm"
     inkscape:zoom="1.0778716"
     inkscape:cx="387.33741"
     inkscape:cy="308.94217"
     inkscape:window-width="1920"
     inkscape:window-height="1043"
     inkscape:window-x="0"
     inkscape:window-y="0"
     inkscape:window-maximized="1"
     inkscape:current-layer="layer1"
     showgrid="false" /><defs
     id="defs1" /><g
     inkscape:label="Layer 1"
     inkscape:groupmode="layer"
     id="layer1"><path
       id="path2"
       style="fill:#070707;stroke:none"
       d="m 25.378293,0.00548181 c -1.13441,-0.059644 -2.36793,0.37874 -3.41788,0.764294 V 1.0343598 l 5.29167,-0.26458399 c -0.54806,-0.513534 -1.19314,-0.728508 -1.87379,-0.764294 z m 1.69086,0.86248 1.55132,4.23333299 -1.43299,3.607532 c -3.92889,0.06706 -8.2681,-1.936998 -6.2854,-6.616134 -3.39633,1.765848 -1.97512,7.436158 1.05833,8.7312502 -1.29269,1.834909 -3.20283,3.055474 -4.64622,4.762504 -5.12139,6.05682 -10.271107,12.10935 -13.687024,19.31458 -1.357149,2.86265 -3.03067805,5.75118 -3.098003,8.99583 H 0.79374995 C 3.926912,36.828557 7.302322,30.363027 11.885063,24.053107 c 2.31999,-3.19437 5.44092,-5.82318 7.6941,-8.99583 h 0.26459 c 1.11797,0.97644 6.28122,2.22875 7.22695,0.48679 l -0.0016,0.14056 c 3.76544,-1.11343 7.53348,5.4117 9.62318,8.20312 3.97843,5.3144 7.48974,10.95897 10.86755,16.66771 1.28022,2.16367 3.49818,5.14829 3.80029,7.67292 0.2684,2.24294 -1.41606,4.44467 -1.80144,6.61458 h -0.26458 l 0.52916,-2.38125 h -0.26458 l -5.35678,12.7 -2.89698,4.76716 -4.71082,1.07642 -9.34207,0.49661 v -0.08837 c -5.07147,0 -10.2477,-0.54443 -15.08125,-2.11667 v -0.26458 c -0.63398,0.15202 -0.65802,0.1257 -0.79375,-0.52917 l 0.79375,0.52917 8.46667,1.34307 3.175,-0.28474 3.12849,0.24081 0.12816,0.12196 5.29166,-0.26458 -6.0973,-1.09658 c -0.78383,-0.48956 -1.84264,-0.66404 -2.7156,-1.12499 -3.53109,-1.86454 -7.89576,-3.05225 -11.10216,-5.42034 -4.451129,-3.28738 -5.544406,-9.17762 -9.535337,-12.56461 L 5.5562,56.861447 H 5.291666 C 4.282135,53.896657 2.530837,47.641147 0,45.748947 c 0.365138,2.12195 1.466335,4.05465 2.146122,6.08541 2.012579,6.01223 4.755996,12.10125 8.169531,17.4625 1.29605,2.03555 2.23654,4.73251 4.09225,6.33863 2.74461,2.37546 8.53254,3.96163 12.05043,2.92179 l 0.79375,0.52917 v -0.71572 c 0.02806,0.04411 0.05755,0.08521 0.08888,0.12402 0.66063,0.81839 3.07649,0.11748 3.96152,-0.05219 3.49134,-0.66921 8.84806,-1.39269 11.27425,-4.29638 3.42131,-4.09465 5.03342,-9.79755 7.29154,-14.54072 1.04233,-2.18941 2.86585,-4.6564 3.09025,-7.13961 0.24454,-2.70611 -1.42958,-5.49672 -1.54771,-8.20622 h 0.26459 l 0.26458,2.38125 h 0.26458 l -0.79375,-5.02708 h -0.26458 l -0.26458,0.52916 c -2.14656,-9.39054 -5.89281,-17.02135 -11.90729,-24.60625 -1.57927,-1.99163 -3.40251,-3.943343 -5.26789,-5.66735 -0.60295,-0.557257 -1.23115,-1.411251 -2.14303,-1.363224 -1.14433,0.06027 -2.18361,1.234784 -3.17138,1.738912 -0.53092,-1.832414 0.94352,-2.6193402 1.51877,-4.2333332 0.9245,-2.59385 -0.61847,-5.744183 -2.84168,-7.14374999 z M 21.141343,27.701467 c -2.83975,0.10087 -1.10834,6.62982 -2.13889,8.17418 -0.87618,1.31303 -3.38281,0.2333 -4.63072,1.13895 -1.02405,0.7432 -0.6134,2.86538 -0.6134,3.97185 1.16188,1.3e-4 4.59373,-0.40429 5.28443,0.61443 0.56145,0.82809 0.27182,2.40344 0.27182,3.35432 0,2.4493 -0.32758,5.5627 0.37931,7.92199 0.3835,1.27996 3.91641,1.75551 4.47776,0.46096 0.66428,-1.53196 -0.35644,-4.58099 -0.35915,-6.26629 -0.003,-2.08971 -0.1083,-4.07448 0.52916,-6.08541 h 2.91042 v -0.03721 c 0.55011,0.01965 1.26958,-0.01967 2.19832,-0.12919 v -4.23334 h -2.19832 v -0.09818 c -0.88068,0 -2.08167,0.19562 -2.87114,-0.27182 -2.38456,-1.41189 0.80371,-6.85245 -1.44643,-7.99848 -0.74163,-0.37772 -1.32848,-0.53327 -1.79317,-0.51676 z m 30.54077,13.19713 0.08785,0.17621 z m 0.4408,2.99826 -0.26458,0.26459 z M 0,44.690607 l 0.79374995,0.79375 z m 53.005033,2.2934 0.08785,0.17622 z m -7.15047,7.85895 -0.52916,3.43959 h 0.26458 l 1.05833,-2.38125 z m -2.11666,3.96875 -0.52917,1.85209 h 0.26458 z m 1.32291,0.26459 -0.79375,3.175 c 0.839,-0.90846 1.2884,-1.98463 0.79375,-3.175 z" /></g></svg>
