<?xml version="1.0" encoding="UTF-8" standalone="no"?>
<!-- Created with Inkscape (http://www.inkscape.org/) -->

<svg
   width="210mm"
   height="297mm"
   viewBox="0 0 210 297"
   version="1.1"
   id="svg1"
   xml:space="preserve"
   inkscape:version="1.4.2 (2aeb623e1d, 2025-05-12)"
   sodipodi:docname="DabluvAdvokat.svg"
   xmlns:inkscape="http://www.inkscape.org/namespaces/inkscape"
   xmlns:sodipodi="http://sodipodi.sourceforge.net/DTD/sodipodi-0.dtd"
   xmlns="http://www.w3.org/2000/svg"
   xmlns:svg="http://www.w3.org/2000/svg"><sodipodi:namedview
     id="namedview1"
     pagecolor="#ffffff"
     bordercolor="#000000"
     borderopacity="0.25"
     inkscape:showpageshadow="2"
     inkscape:pageopacity="0.0"
     inkscape:pagecheckerboard="0"
     inkscape:deskcolor="#d1d1d1"
     inkscape:document-units="mm"
     inkscape:zoom="1.1820244"
     inkscape:cx="263.95395"
     inkscape:cy="275.37504"
     inkscape:window-width="1920"
     inkscape:window-height="940"
     inkscape:window-x="0"
     inkscape:window-y="0"
     inkscape:window-maximized="1"
     inkscape:current-layer="layer1" /><defs
     id="defs1" /><g
     inkscape:label="Layer 1"
     inkscape:groupmode="layer"
     id="layer1"><path
       style="fill:#090909;stroke:none"
       d="m 8.202084,0.01227791 v 0.264583 C 9.442516,1.2246959 10.404453,2.1102439 10.583334,3.7164449 H 9.525001 c -0.03364,1.629681 -1.404356,4.946936 1.322916,4.497917 C 10.907547,10.419492 9.699893,12.072322 8.843534,14.035195 7.079111,18.079458 5.622732,22.265701 3.638635,26.206029 2.739251,27.992169 1.875247,30.079234 0,30.968529 v 0.529167 c 1.926135,0.990096 1.107493,2.397003 2.289381,3.892192 1.281828,1.621615 3.287338,2.039471 5.118953,2.722392 v 0.264583 l -0.79375,0.79375 h 8.202084 L 14.287501,38.11228 c 2.097147,-0.0058 5.004794,-0.51511 6.428803,-2.24059 0.718423,-0.870518 0.737552,-2.074215 1.317607,-3.013111 0.351521,-0.56899 1.66428,-1.060312 1.534831,-1.822475 C 23.466281,30.43283 22.29103,30.066622 21.904478,29.606621 20.829738,28.32767 19.993629,26.598649 19.1631,25.147696 16.405625,20.330322 14.215784,14.876714 12.700001,9.5372779 l 0.79375,-1.058333 14.816667,2.3361301 7.14375,-0.219463 c -1.024735,11.172138 0,22.827362 0,34.131251 0,2.304042 0.316369,4.869228 -0.0592,7.14375 -0.295598,1.790153 -1.678843,2.760806 -0.469961,4.497917 -1.497797,0.526389 -1.53022,1.474878 -1.5875,2.910417 L 28.83959,60.49101 17.462506,64.041447 v 0.529167 c 2.63159,1.830331 7.984667,0.79375 11.1125,0.79375 h 27.781247 l 0.26458,-1.058333 c -2.805344,-1.472359 -6.439385,-2.465806 -9.524992,-3.201743 -1.609406,-0.383851 -3.939602,-0.717963 -5.041989,-2.149126 -0.626876,-0.813839 -0.59742,-2.403875 -0.916038,-3.380382 -1.304402,-3.997769 -1.450307,-7.135336 -1.450307,-11.377084 0,-10.963971 0.271761,-21.915604 0.264583,-32.808334 3.011654,2.425288 7.098639,2.480824 10.847917,3.023725 4.260763,0.61696 8.656526,1.991489 12.964576,2.003358 L 53.181252,41.551863 c 1.971626,1.113684 1.169551,2.303009 2.312041,3.922815 1.19728,1.697474 3.45893,2.255749 5.36088,2.691769 l -1.05834,1.322916 h 8.20209 l -0.26459,-1.058333 c 2.06895,-0.493946 4.68912,-0.531783 6.26692,-2.206697 0.79184,-0.840582 0.73334,-2.080776 1.28902,-3.049854 0.61775,-1.077341 3.22187,-2.354306 0.38156,-2.680949 -0.95322,-5.539375 -3.7199,-11.682492 -5.77101,-16.933334 -0.90944,-2.328161 -2.77869,-4.809663 -2.43107,-7.408334 2.40262,1.164714 3.32154,1.820173 4.23333,4.497917 l 1.32292,-0.529167 c -1.57506,-2.421921 -2.40921,-4.230903 -5.55625,-4.233333 0.54133,-1.995486 2.73424,-3.229842 2.94594,-5.291465 0.15415,-1.5011931 -1.50181,-2.0973931 -2.65359,-1.4666421 -1.27317,0.697228 -1.55718,2.4801221 -2.40902,3.5831071 l -0.52916,-0.529167 c -1.90955,1.126966 -5.55285,-0.05234 -7.67292,-0.476295 C 51.400248,10.557016 45.508893,9.7438149 39.687502,9.0081119 l 1.058333,-4.7625 -5.820833,-0.264584 0.529166,4.233334 -21.695834,-3.439584 3.175,-2.116666 c -0.998348,-1.489598 -2.643027,0.20899 -3.175,1.322916 h -0.529166 l -0.79375,-1.058333 -0.264584,1.058333 C 11.233605,2.3694819 10.456222,-0.19919209 8.202084,0.01227791 m 3.615974,4.14513599 -0.0882,0.176395 0.0882,-0.176395 m 27.869444,1.146531 -1.322917,2.910417 -1.322917,-3.175 2.645834,0.264583 M 11.377084,10.066445 10.847917,30.968529 H 1.852084 l 6.532717,-13.229167 2.992283,-7.672917 m 57.149999,0.264583 -0.26458,2.116667 -1.5875,0.529167 1.85208,-2.645834 m -55.827082,1.587501 4.204342,11.1125 4.791492,7.672917 h -9.789584 c 0.549223,-2.956595 1.221716,-6.52247 1.009539,-9.525 -0.195304,-2.763753 -1.324693,-6.617749 -0.215789,-9.260417 m 51.858332,6.085416 0.275,5.556251 -0.53958,17.4625 h -9.260417 c 0.206294,-2.014113 1.538187,-3.652417 2.146477,-5.55625 1.87153,-5.857524 3.80228,-12.103049 6.84936,-17.462501 h 0.52916 m 9.78959,23.018751 c -2.20029,-0.505629 -6.74639,1.173661 -8.57161,-0.271931 -1.1958,-0.9471 -0.22689,-4.515919 -0.17006,-5.813486 0.24316,-5.552624 0.44328,-11.150062 -0.25417,-16.66875 2.43925,0.257106 2.71499,3.32818 3.49348,5.291667 1.68708,4.255086 3.68646,8.476695 4.71147,12.964583 0.33196,1.453485 1.0117,3.011566 0.79089,4.497917 m -53.975005,-9.525 -1.5875,3.704167 H 18.520834 C 18.392693,31.264102 9.698577,32.728879 6.879167,33.085196 l 3.727849,-1.089977 9.765902,-0.497523 m 18.256251,4.233333 0.235184,17.462501 1.352316,5.820834 -3.439584,0.264583 1.54238,-17.462501 0.309704,-6.085417 m 35.718754,6.085417 v 0.529167 l -10.31875,0.529167 c 2.3008,-1.829613 7.49041,-1.058334 10.31875,-1.058334 m -31.485421,19.050006 -6.879167,0.79375 c 0.849532,-1.388602 5.878776,-2.17557 6.879167,-0.79375"
       id="path2"
       sodipodi:nodetypes="cccccssccscccccsssssccccsscccccsccsssscsccsccccsscsccccssccscccccccccccccccccccccccccccccccscccccscccsccsscccccccccccccccccccc" /></g></svg>
