<?xml version="1.0" encoding="UTF-8" standalone="no"?>
<!-- Created with Inkscape (http://www.inkscape.org/) -->

<svg
   width="210mm"
   height="297mm"
   viewBox="0 0 210 297"
   version="1.1"
   id="svg1"
   xml:space="preserve"
   inkscape:version="1.4.2 (2aeb623e1d, 2025-05-12)"
   sodipodi:docname="DiteMesice.svg"
   xmlns:inkscape="http://www.inkscape.org/namespaces/inkscape"
   xmlns:sodipodi="http://sodipodi.sourceforge.net/DTD/sodipodi-0.dtd"
   xmlns="http://www.w3.org/2000/svg"
   xmlns:svg="http://www.w3.org/2000/svg"><sodipodi:namedview
     id="namedview1"
     pagecolor="#ffffff"
     bordercolor="#000000"
     borderopacity="0.25"
     inkscape:showpageshadow="2"
     inkscape:pageopacity="0.0"
     inkscape:pagecheckerboard="0"
     inkscape:deskcolor="#d1d1d1"
     inkscape:document-units="mm"
     inkscape:zoom="1.2936786"
     inkscape:cx="106.67255"
     inkscape:cy="191.3149"
     inkscape:window-width="1920"
     inkscape:window-height="940"
     inkscape:window-x="0"
     inkscape:window-y="0"
     inkscape:window-maximized="1"
     inkscape:current-layer="layer1" /><defs
     id="defs1" /><g
     inkscape:label="Layer 1"
     inkscape:groupmode="layer"
     id="layer1"><path
       style="fill:#080808;stroke:none"
       d="m 25.295631,29.297171 c -1.572348,0.336931 -1.397404,5.927731 0,6.614584 v 0.264583 l -1.852084,0.529167 v 0.264583 c 1.071709,1.948549 -0.656129,4.770159 1.852084,6.085419 v 0.26458 l -4.497917,0.79375 v -0.26458 l 1.5875,-0.26459 v -0.26458 c -17.246647,0.14275 -27.834895,21.58862 -15.341955,34.39584 1.829463,1.87548 3.961964,3.51304 6.346121,4.63306 3.057352,1.43628 6.685591,2.180513 10.054167,2.2461 6.40122,0.124632 17.047511,-6.07091 19.579171,-15.34583 -2.16774,0.61354 -3.6344,3.27088 -5.55625,4.50812 -5.51484,3.55032 -12.135996,3.0667 -17.197719,-0.94095 -2.058147,-1.62954 -4.000458,-4.4249 -4.623672,-7.00675 -0.442197,-1.83193 0.124811,-4.64186 -2.255697,-5.02709 4.048001,-4.06451 5.819502,-11.50358 12.700001,-12.43542 v 0.26459 c -1.820347,0.96706 -3.034533,3.5483 -0.529167,4.49792 v 0.26458 c -3.422284,0.009 -5.791168,1.89295 -7.14375,5.02708 l -0.529167,-0.26458 c -2.783656,4.89706 -1.059419,11.40982 3.96875,14.0807 2.778081,1.47567 8.786721,2.50892 10.583331,-0.85153 h 0.26459 l -0.26459,0.79375 c 9.06739,-3.98826 5.52311,-17.7313 -3.43958,-19.05 0.51949,-2.27263 0.53072,-3.70557 -1.852084,-4.76251 v -0.26458 c 3.312884,-1.05018 5.984884,0.26163 9.260414,0.52917 -0.97426,-3.19443 -6.54172,-4.01373 -9.260414,-5.02709 1.519651,-1.45032 1.965884,-4.57543 0,-5.820829 l 1.322917,-0.529167 v -1.322916 h -2.116667 v -0.264584 c 1.24235,-0.848567 1.272944,-3.734664 0.264584,-4.7625 v -0.264583 -1.322917 c 0.839588,-1.415312 -0.405935,-3.331927 -0.859694,-4.7625 -1.381202,-4.354499 -4.778532,-8.895501 -5.167337,-13.493751 -0.531811,-6.289487 8.25787,-8.2348778 12.062641,-4.4213529 2.18207,2.1870998 1.94909,5.3230749 1.68222,8.1255199 -0.36653,3.849015 -0.67848,7.969605 0.84091,11.641667 0.82572,1.995599 2.63178,5.707453 5.19959,5.291667 -1.10691,-3.338386 -3.52333,-5.531276 -3.92281,-9.260417 -0.59684,-5.571478 1.61612,-14.0179018 -2.06972,-18.7576454 -0.95827,-1.232272 -2.3947,-1.362642 -3.79705,-1.725306 -4.957926,-1.28217297 -11.44516,1.2182313 -12.454606,6.7246183 -0.956571,5.2179551 2.877045,10.2195791 5.048315,14.5520831 0.960217,1.916001 1.46518,4.05438 2.114624,6.085417 m 1.852083,9.789586 v 2.64583 l -1.852083,-0.26458 -0.529167,-1.85209 0.264584,-0.26458 2.116666,-0.26458 m -2.910416,6.61458 v 0.26458 l -12.700001,4.23334 v 0.26458 c 3.134462,0.0263 5.362516,1.70122 3.439583,4.7625 h -0.264583 c 1.223311,-5.34137 -4.986934,-2.65391 -7.143751,-1.32291 2.348492,-5.6111 10.636226,-9.63432 16.668752,-8.20209 m -4.497917,3.175 -1.852084,2.11667 -2.38125,-1.32292 4.233334,-0.79375 m 6.35,1.32292 1.5875,0.26458 v 1.5875 h -1.5875 -0.264583 l -0.264584,-1.85208 h 0.529167 m -16.404168,8.20208 c 2.249492,0.89891 3.517228,-1.55932 1.057925,-2.13586 -1.142986,-0.26795 -2.139917,0.80427 -2.769958,1.60792 -1.632838,2.08277 -3.186897,5.31415 -3.579634,7.93628 -1.279162,-3.05526 1.606414,-8.22562 3.728051,-10.29099 1.153212,-1.12263 3.292763,-2.36593 4.602651,-0.78232 2.126938,2.5714 -2.521948,6.76338 -3.039035,3.66497 m 24.870835,7.40834 -0.26458,-1.5875 h -0.26459 c -9.3e-4,1.41377 0.1219,3.47645 -0.57653,4.74698 -0.45698,0.83131 -1.6611,1.40788 -2.33041,0.46037 -1.3728,-1.9434 -0.22793,-4.65625 -2.12014,-6.53027 0.58393,1.72493 1.23683,5.06939 0.36952,6.79383 -0.949023,1.88691 -2.286288,-1.68281 -2.486187,-2.29591 -1.002563,1.28112 -0.785563,1.91852 -0.529167,3.43958 l -2.645833,-5.82083 v 1.05833 h -0.529167 v -4.23333 h -0.264583 c -0.700224,2.93297 -0.648426,5.61629 0.264583,8.46666 -2.808299,-2.39281 -1.933829,-6.9399 -1.058333,-10.05416 -2.223992,1.57112 -2.137164,2.81609 -2.116667,5.29166 -1.485669,-1.6856 -0.963261,-3.65623 -0.210686,-5.55625 2.486189,-6.27686 9.45391,-7.53525 13.65544,-1.85208 1.21801,1.64752 3.31001,6.13595 1.10733,7.67292 m -24.077085,-1.32292 c -0.551731,-0.6827 -1.389765,-0.11044 -1.160819,0.76741 0.485157,1.86024 3.050494,1.49127 4.33582,1.08467 -3.505666,4.52573 -10.651588,0.51591 -5.500723,-3.85401 1.798291,-1.52565 4.582061,0.71956 2.325722,2.00193 m 23.371535,-0.61736 0.0882,0.17638 -0.0882,-0.17638 m -19.667368,4.32153 v 0.26458 c -1.376111,1.0603 -3.544608,4.3368 -0.264583,4.23333 l -0.264583,-1.05833 0.264583,-0.26458 c 2.684175,1.50615 0.167121,3.79829 -2.116667,3.23727 -5.22863,-1.28445 -1.101645,-6.09897 2.38125,-6.41227 m -8.731251,1.05833 1.852084,0.79375 -1.058334,1.5875 H 5.716462 l -0.264583,-2.38125 m 23.812499,3.52777 0.0882,0.0882 c -0.13057,0.0435 -0.29283,-0.0882 -0.0882,-0.0882 m -22.489582,0.70556 c 2.283036,1.75462 4.966235,3.13579 7.672918,4.11983 1.24933,0.4542 2.942424,0.59639 3.570038,-0.91135 0.874616,-2.10111 -2.006665,-1.19793 -2.776288,-0.56264 -0.475169,-3.32359 5.819917,-0.96209 4.601831,2.08788 -0.548251,1.37276 -2.61704,1.15861 -3.808081,1.06242 -2.843262,-0.22963 -8.53344,-2.79704 -9.260418,-5.79614 m 15.081251,2.64584 c 3.053658,0.9172 1.935347,3.52537 0.264584,5.29166 4.373498,-0.35722 9.635757,-2.20384 13.493747,-4.23333 -0.49643,1.50745 -2.38546,2.25456 -3.70416,2.98167 -4.854924,2.67688 -9.948839,2.6571 -15.081254,0.98708 v -0.26458 c 2.155363,0 8.152842,-1.50357 4.7625,-4.49792 l 0.264583,-0.26458 m 7.143751,1.85208 v 0.26458 l -3.704167,1.5875 0.529167,-2.38125 3.175,0.52917"
       id="path1"
       sodipodi:nodetypes="cccccccccccssscssscccccccsccccccccccccccccssssscssssscccccccccccccccccccccccccccsscssccccsscsccccccccccssccscscccccccccsccccccccccsscsscccccccccccccc" /></g></svg>
