<?xml version="1.0" encoding="UTF-8" standalone="no"?>
<!-- Created with Inkscape (http://www.inkscape.org/) -->

<svg
   width="210mm"
   height="297mm"
   viewBox="0 0 210 297"
   version="1.1"
   id="svg1"
   xml:space="preserve"
   inkscape:version="1.4.2 (2aeb623e1d, 2025-05-12)"
   sodipodi:docname="Dratenik.svg"
   xmlns:inkscape="http://www.inkscape.org/namespaces/inkscape"
   xmlns:sodipodi="http://sodipodi.sourceforge.net/DTD/sodipodi-0.dtd"
   xmlns="http://www.w3.org/2000/svg"
   xmlns:svg="http://www.w3.org/2000/svg"><sodipodi:namedview
     id="namedview1"
     pagecolor="#ffffff"
     bordercolor="#000000"
     borderopacity="0.25"
     inkscape:showpageshadow="2"
     inkscape:pageopacity="0.0"
     inkscape:pagecheckerboard="0"
     inkscape:deskcolor="#d1d1d1"
     inkscape:document-units="mm"
     inkscape:zoom="1.4605796"
     inkscape:cx="298.51163"
     inkscape:cy="46.21453"
     inkscape:window-width="1920"
     inkscape:window-height="940"
     inkscape:window-x="0"
     inkscape:window-y="0"
     inkscape:window-maximized="1"
     inkscape:current-layer="layer1" /><defs
     id="defs1" /><g
     inkscape:label="Layer 1"
     inkscape:groupmode="layer"
     id="layer1"><path
       style="fill:#060606;stroke:none"
       d="m 21.456705,13.152134 c -0.991679,1.593015 -0.584262,3.400148 -1.941911,5.022998 C 13.712503,25.110845 8.1569298,16.076778 4.2587861,12.093801 h -0.264583 c -4.88703303,4.108204 0.735383,13.90675 5.8208337,15.438722 2.7971252,0.842625 6.5581562,-0.867897 9.1838602,0.419742 2.03084,0.995918 3.778169,3.479027 5.368225,5.042393 0.7089,0.697002 1.784557,1.958957 2.910417,1.832688 1.043274,-0.117006 1.953668,-1.404412 2.645833,-2.096044 -2.30487,4.161447 -0.140778,5.680055 2.910417,8.731251 2.155105,2.1551 4.134204,4.7642 6.398794,6.75769 1.753575,1.54366 4.309169,2.85868 5.500109,4.95951 1.08114,1.90715 0.15957,5.7037 0.28336,7.86197 0.11113,1.93739 1.43323,3.87584 2.6832,5.29146 2.14644,2.43092 5.01861,3.8221 8.14941,4.43667 1.05384,0.20687 1.98885,0.80402 3.02535,0.23478 2.08144,-1.14312 0.47892,-3.10188 -0.66411,-4.40666 -2.23204,-2.54791 -6.51899,-6.96949 -4.71207,-10.58334 0.3877,-0.7754 0.97177,-1.48437 1.58484,-2.09196 4.69144,-4.64944 8.70632,0.23904 12.14695,3.67946 0.95998,0.95993 4.43157,4.72352 5.35169,1.57587 1.39008,-4.75531 -2.00823,-11.15584 -5.88086,-13.70771 -3.57273,-2.35426 -8.81,-0.61488 -12.43541,-2.42759 -1.56787,-0.78393 -2.62832,-2.537986 -3.96875,-3.636388 -0.87735,-0.718933 -2.0109,-0.809875 -2.88674,-1.497874 C 44.526742,35.643907 42.39275,32.446452 39.963046,29.820885 36.664361,26.256293 32.595367,23.484305 29.478317,19.7218 28.063331,18.013813 28.957435,14.196329 28.854421,12.093801 28.739877,9.7560163 27.144072,7.5718877 25.424434,6.0880067 c -2.201448,-1.899634 -5.523771,-3.438711 -8.465646,-3.51533 -0.871664,-0.02271 -2.251562,-0.243089 -2.799356,0.609403 -0.448984,0.698714 -0.476271,1.609051 -0.0022,2.286722 0.850796,1.216318 2.293937,2.064377 3.281978,3.185417 1.309784,1.4860843 2.187742,3.6057303 4.017544,4.4979153 M 18.017171,6.0083847 C 20.5992,7.7183497 28.498032,13.153418 23.308838,16.327135 23.991015,13.717127 23.469777,11.408402 21.452673,9.4716503 20.428954,8.4887087 18.396993,7.3997727 18.017171,6.0083847 m 10.31875,5.0270833 v 1.058333 h -0.264632 l -0.529167,-1.058333 h 0.79375 M 5.5817028,16.062551 c 2.451053,2.451046 4.4867592,5.525503 8.2020852,5.55625 v 0.529167 c -3.296687,0 -7.7146842,-2.31969 -8.2020852,-6.085417 M 42.623373,36.964635 h -0.264584 c -2.901914,-3.564043 -6.221188,-6.829121 -9.225915,-10.31875 -1.95676,-2.272544 -3.709952,-4.368233 -6.913669,-3.704167 1.2733,-1.007553 3.245293,-0.823714 4.422381,0.303777 2.435781,2.333142 4.565681,5.061723 6.826085,7.558187 1.737221,1.918641 4.016527,3.803208 5.155702,6.160953 M 25.690039,23.206301 c -1.559393,4.144346 -0.923842,4.633608 1.5875,8.202084 -3.332379,-1.554153 -4.374168,-5.627233 -1.5875,-8.202084 m 4.7625,2.381251 -4.497917,0.79375 c 0.297192,-1.125037 0.67527,-1.664942 1.852083,-1.852084 l -0.264583,-0.79375 2.910417,1.852084 m 2.38125,1.322916 5.820834,7.143751 c -1.69523,-1.194146 -6.271368,-4.823051 -5.820834,-7.143751 m -2.645833,0.79375 c -0.853368,1.707147 -2.966991,2.023649 -3.968751,0.264584 l 3.968751,-0.264584 m 0,4.7625 -0.264584,0.264584 0.264584,-0.264584 m 1.852083,3.704167 c 1.434958,1.434005 2.861292,3.089977 5.027083,3.175 l 0.264584,0.264584 c 0.142611,1.139964 1.065277,1.709564 1.657118,2.645834 1.308447,2.06991 2.798602,5.23035 5.486628,5.88351 1.57355,0.38235 3.02358,-0.52331 4.49792,-0.85643 -5.074649,5.55175 -9.336421,-3.26866 -12.171035,-6.08439 -1.408481,-1.399102 -4.281586,-3.04496 -4.762298,-5.028108 m 17.197913,6.349998 h -0.26458 l -2.91042,-3.174998 c 2.17463,0.319958 2.99777,0.951238 3.175,3.174998 m -2.38125,-1.32291 -3.174996,4.49791 c -1.806543,-2.38507 0.904116,-4.47736 3.174996,-4.49791 m 1.05834,1.32291 c 1.07751,2.55421 -0.34305,3.48252 -2.64584,4.23334 l 2.64584,-4.23334 m 11.37708,2.11667 v 0.52917 h -0.52917 v -0.52917 h 0.52917 m 8.73125,3.43958 -8.46667,-2.91041 c 2.74965,-1.12147 6.88346,0.6693 8.46667,2.91041 m -5.29167,3.70417 c 1.2181,0.80575 2.30463,1.78004 3.43959,2.6979 0.80686,0.65251 1.56948,1.36414 2.38125,2.00805 0.85293,0.67655 1.97436,0.52776 2.76097,1.12203 0.79928,0.60385 0.52084,2.17268 -0.64961,1.91067 -2.18174,-0.4884 -4.68961,-4.02242 -6.34449,-5.46968 -0.72057,-0.63017 -1.60876,-1.27375 -1.58771,-2.26897 m -10.31875,4.23333 -0.39034,3.175 6.21118,9.525 c -3.36302,-2.41916 -8.9667,-8.49449 -5.82084,-12.7"
       id="path1"
       sodipodi:nodetypes="csccsssscssssssssscsssssssssssscscccsccccccccccccscsscccccccccccccccccccccsscsccccccccccccccccccccsssssccccc" /></g></svg>
