<?xml version="1.0" encoding="UTF-8" standalone="no"?>
<!-- Created with Inkscape (http://www.inkscape.org/) -->

<svg
   width="210mm"
   height="297mm"
   viewBox="0 0 210 297"
   version="1.1"
   id="svg1"
   xml:space="preserve"
   inkscape:version="1.4.2 (2aeb623e1d, 2025-05-12)"
   sodipodi:docname="Klepna.svg"
   xmlns:inkscape="http://www.inkscape.org/namespaces/inkscape"
   xmlns:sodipodi="http://sodipodi.sourceforge.net/DTD/sodipodi-0.dtd"
   xmlns="http://www.w3.org/2000/svg"
   xmlns:svg="http://www.w3.org/2000/svg"><sodipodi:namedview
     id="namedview1"
     pagecolor="#ffffff"
     bordercolor="#000000"
     borderopacity="0.25"
     inkscape:showpageshadow="2"
     inkscape:pageopacity="0.0"
     inkscape:pagecheckerboard="0"
     inkscape:deskcolor="#d1d1d1"
     inkscape:document-units="mm"
     inkscape:zoom="0.97566402"
     inkscape:cx="295.18358"
     inkscape:cy="196.27658"
     inkscape:window-width="1920"
     inkscape:window-height="940"
     inkscape:window-x="0"
     inkscape:window-y="0"
     inkscape:window-maximized="1"
     inkscape:current-layer="layer1" /><defs
     id="defs1" /><g
     inkscape:label="Layer 1"
     inkscape:groupmode="layer"
     id="layer1"><path
       style="fill:#070707;stroke:none"
       d="m 76.014077,56.893144 c 2.62215,-0.42804 1.0129,-7.421526 -0.4571,-8.835167 -1.14457,-1.100692 -4.39456,0.425281 -5.62831,0.897668 -1.3945,-5.317376 -6.49435,-2.508592 -10.58334,-3.636793 -5.14412,-1.419334 -9.08366,-4.781718 -11.786406,-9.32779 -0.516982,-0.869569 -1.416806,-2.217578 -1.126723,-3.287082 0.365933,-1.349142 2.179187,-2.385118 3.122529,-3.328519 1.77263,-1.772744 3.23343,-3.822167 4.31989,-6.0844 C 58.060767,14.574643 51.290687,6.8246242 43.999497,2.7697272 33.581766,-3.0239598 17.711582,1.0938522 8.5453285,7.5683612 3.2178415,11.33139 -1.2411765,17.178046 0.31364152,24.084811 2.5830795,34.166024 13.735052,39.263262 23.361996,39.684812 c 3.954636,0.173173 8.905618,-1.021344 12.700001,-0.149845 2.302613,0.528868 4.458255,3.013656 6.614583,4.097368 3.878535,1.949243 7.954607,2.785747 12.170837,3.57412 3.48818,0.652237 8.19057,-0.164008 11.37688,1.3715 1.58466,0.763665 1.58335,2.760439 2.94879,3.457959 1.29798,0.66306 2.40651,-0.62888 3.66599,-0.64022 2.54523,-0.0229 2.94643,3.69036 3.175,5.49745 M 49.820327,42.870228 C 44.737655,41.588895 40.872839,36.632084 35.797413,35.385745 32.710562,34.627728 28.382362,35.751638 25.21408,35.967379 17.817357,36.471047 11.726401,34.635338 6.4288655,29.375461 4.7628135,27.721249 2.3634845,25.463466 1.9870925,23.026478 0.94543852,16.282202 6.7807885,11.009494 12.249496,8.2751412 c 9.024235,-4.51212 20.483945,-6.63372 30.162501,-2.724228 2.598307,1.04954 6.002387,2.588682 7.75234,4.8615088 3.61799,4.699027 0.75524,11.742888 -2.749141,15.524473 -1.21308,1.309036 -4.401185,3.206991 -4.7035,5.027083 -0.165332,0.995401 0.719134,2.014594 1.032201,2.910417 0.427666,1.223746 0.426278,2.312924 1.187972,3.435708 1.400052,2.063763 3.622082,3.369303 4.888458,5.560125 M 21.24533,8.2098102 v 0.264584 l 1.322916,0.79375 c -0.2109,2.0746548 0.566217,4.8310198 1.028733,6.8791668 0.318076,1.408514 0.654135,2.839022 1.023423,4.233333 0.327165,1.235269 0.689332,3.456282 1.604033,4.386038 1.030004,1.046964 3.129973,-0.685884 3.40345,-1.74429 0.912481,-3.531479 -0.08849,-8.041402 -0.176592,-11.637581 -0.03395,-1.3857278 0.457409,-3.6810738 -0.163528,-4.9429718 -0.993249,-2.018538 -7.076736,0.638171 -8.042435,1.767971 m 29.633337,16.1395838 -3.175003,3.704167 3.175003,-3.704167 m -22.225004,3.647614 c -2.646725,0.854437 -2.826971,6.554506 0.263768,5.451928 2.440286,-0.870538 2.819482,-6.447289 -0.263768,-5.451928"
       id="path2"
       sodipodi:nodetypes="cscsssssssssssssssccsssssssssssccccsssssscccccsc" /></g></svg>
