<?xml version="1.0" encoding="UTF-8" standalone="no"?>
<!-- Created with Inkscape (http://www.inkscape.org/) -->

<svg
   width="210mm"
   height="297mm"
   viewBox="0 0 210 297"
   version="1.1"
   id="svg1"
   xml:space="preserve"
   inkscape:version="1.4.2 (2aeb623e1d, 2025-05-12)"
   sodipodi:docname="Dvoran.svg"
   xmlns:inkscape="http://www.inkscape.org/namespaces/inkscape"
   xmlns:sodipodi="http://sodipodi.sourceforge.net/DTD/sodipodi-0.dtd"
   xmlns="http://www.w3.org/2000/svg"
   xmlns:svg="http://www.w3.org/2000/svg"><sodipodi:namedview
     id="namedview1"
     pagecolor="#ffffff"
     bordercolor="#000000"
     borderopacity="0.25"
     inkscape:showpageshadow="2"
     inkscape:pageopacity="0.0"
     inkscape:pagecheckerboard="0"
     inkscape:deskcolor="#d1d1d1"
     inkscape:document-units="mm"
     inkscape:zoom="0.903542"
     inkscape:cx="202.53624"
     inkscape:cy="276.13548"
     inkscape:window-width="1920"
     inkscape:window-height="940"
     inkscape:window-x="0"
     inkscape:window-y="0"
     inkscape:window-maximized="1"
     inkscape:current-layer="layer1" /><defs
     id="defs1" /><g
     inkscape:label="Layer 1"
     inkscape:groupmode="layer"
     id="layer1"><path
       style="fill:#090909;stroke:none"
       d="m 21.112389,4.3416351 c -3.80301,0.499331 -8.893062,-0.017 -12.4343911,1.4766463 C 3.2443303,8.1100732 3.6878473,17.473769 4.9728103,21.956434 c 1.096869,3.826478 2.704361,8.198571 5.1671337,11.376881 2.950865,3.808223 7.050255,6.600668 10.051105,10.322828 1.02287,1.26874 1.12473,2.76345 1.6955,4.22946 1.22905,3.15677 3.07441,6.03857 3.1605,9.525 0.0721,2.91895 -1.41778,5.390337 -1.72061,8.202077 -0.11626,1.07947 0.6457,2.13324 0.15577,3.175 -0.48116,1.0231 -1.53789,1.6655 -2.09891,2.64584 -0.58644,1.02476 -0.25882,2.15246 -1.12611,3.05884 -2.52722,2.64109 -5.87903,2.48762 -8.654281,4.31172 -0.897273,0.58975 -1.303898,1.68799 -0.801712,2.67973 1.024752,2.02371 4.053023,2.83396 6.077863,3.29095 5.62927,1.2705 11.48613,1.46526 17.19792,0.60879 2.2389,-0.33572 9.8941,-1.66033 8.57058,-5.20817 -1.01519,-2.72134 -6.46448,-3.5469 -8.55895,-5.38925 -1.17077,-1.02985 -1.23275,-2.33922 -1.96089,-3.6172 -0.63779,-1.11938 -1.88261,-1.93991 -2.29796,-3.175 -0.35213,-1.04709 0.0983,-2.33758 -0.0349,-3.43958 -0.33138,-2.74128 -1.24047,-5.088977 -0.96462,-7.937497 0.32382,-3.34382 2.24695,-5.85136 3.75357,-8.73125 1.0664,-2.03845 1.61298,-4.62769 2.82324,-6.51149 1.00351,-1.56198 3.38056,-2.58049 4.63919,-4.071846 3.88776,-4.606631 7.19387,-10.47801 8.44687,-16.404167 0.60339,-2.853823 0.18422,-4.873532 0.13719,-7.673119 -0.0356,-2.116965 0.28251,-4.3149491 -1.20043,-6.0566292 -1.25475,-1.4736907 -3.58938,-1.9644797 -5.41538,-2.2871347 -2.90712,-0.513688 -6.04882,-0.35324 -8.99584,-0.388299 -3.93277,-0.04678 -7.96829,-0.66833 -11.90625,-0.151283 m 12.43542,33.2252159 c 1.14653,-1.98184 3.6605,-2.949344 5.29147,-4.508535 2.51288,-2.4023 3.80586,-5.410046 4.69226,-8.720632 0.32624,-1.21841 1.20143,-3.213612 0.70066,-4.459741 -0.68779,-1.71154 -6.38505,-1.951932 -8.03856,-2.109925 -6.48299,-0.619455 -13.91414,-0.502577 -20.37291,0.23294 -2.246091,0.255782 -5.655068,0.535691 -7.1437521,2.367975 -1.3197636,0.173464 -0.209782,2.803988 0.08819,3.704167 1.2276814,3.70881 3.7044241,6.556375 5.2034721,10.054167 C 11.004998,33.796982 9.3370816,29.945174 8.2631642,27.512684 6.2020663,22.844162 4.7594013,17.482732 6.1034213,12.431433 6.4840543,11.000876 7.1761303,8.5126159 8.5126409,7.6762825 9.2566156,7.2107268 10.469695,7.3428808 11.322816,7.1397678 10.844995,7.7760335 9.2540236,7.9973782 9.1085626,8.7730009 8.9457776,9.6410033 10.728093,10.2251 11.322816,10.421131 c 2.513627,0.828543 5.327873,0.922093 7.937503,1.292089 8.10157,1.148638 18.3848,1.313534 25.92917,-2.1922037 -1.58179,-2.6721135 -5.15363,-2.3206415 -7.9375,-2.7174922 -8.21266,-1.170737 -16.16574,0.2497347 -24.341673,0.6008274 1.657443,-1.3569661 4.815073,-1.1508011 6.879173,-1.3427231 6.48649,-0.6031123 12.85072,0.2736027 19.31458,0.2843897 2.6569,0.0044 6.30634,0.374776 7.84033,2.9218485 1.1362,1.8865934 0.62634,4.7511634 0.62634,6.8677334 0,8.204619 -4.73074,20.172817 -14.02292,21.431251 m 9.78958,-28.5750004 v 0.264583 c -2.20777,1.3707254 -4.6882,1.0768154 -7.14375,1.5356454 -7.62815,1.425349 -16.44168,1.476291 -23.8125,-1.2710627 2.4673,-1.8673018 5.59183,-2.0096788 8.54221,-2.0860468 4.23791,-0.1096907 8.39978,-0.03224 12.62446,-0.03062 3.18685,0.0012 6.94504,-0.05455 9.78958,1.5874991 M 8.4124002,15.341848 h 7.4083388 l 11.1125,-0.529167 v -0.264583 h -0.79375 v -0.264583 l 1.85208,-0.264584 c -1.60106,-0.574246 -3.86137,0.411272 -5.54584,0.532025 -2.90193,0.20803 -5.76699,-0.439193 -8.58936,-1.028119 -1.173627,-0.244889 -3.511731,-2.127413 -4.5458974,-1.757563 -1.1872494,0.424594 -0.8979667,2.618824 -0.8980714,3.576574 m 34.9249988,-2.910417 1.91925,2.145452 0.462,3.410798 h 0.52917 v -6.35 l -2.91042,0.79375 m -1.05833,7.408334 c -2.2418,3.676673 -9.22176,3.264965 -12.96458,4.233333 v -0.264583 c 2.70624,-1.015289 8.37652,-0.926139 9.78958,-3.704167 -2.12999,-0.395421 -4.20956,-0.141682 -6.35,-0.288266 -5.01567,-0.343478 -9.57253,-1.003564 -14.55208,0.02368 v 0.264583 l 3.175,0.529167 v 0.264583 L 11.058226,20.633517 c 1.383059,-2.019095 5.509923,-1.72764 7.672913,-1.875766 5.56972,-0.38142 11.36678,-0.550968 16.93334,-0.02124 2.28783,0.21772 4.45293,0.173213 6.61458,1.103252 m 1.32292,0.264583 -1.5875,1.5875 1.5875,-1.5875 m -2.64584,1.852084 -0.26458,0.264583 0.26458,-0.264583 m -0.52916,2.38125 c -0.32435,3.96577 -3.16262,9.147261 -7.14375,10.31875 1.49492,-2.422454 4.12201,-5.700234 3.70416,-8.73125 l 3.43959,-1.5875 m -25.66459,10.054167 4.7625,3.704167 c -1.60461,-0.463142 -4.62611,-1.804461 -4.7625,-3.704167 m 24.60625,1.5875 c -0.84915,1.623157 -3.29776,3.834286 -5.29166,3.605566 -0.99414,-0.11404 -1.91276,-0.98172 -2.91042,-0.90012 -1.53145,0.12526 -2.84938,1.52733 -4.49792,1.64487 -1.56505,0.1116 -2.77176,-0.98378 -4.22843,-1.31495 -1.06879,-0.24299 -1.28285,0.72187 -2.15566,1.03342 -1.2588,0.44933 -2.24646,-0.80393 -2.87632,-1.687536 l 2.91041,1.058336 1.05834,-2.381253 h 0.26458 c 1.44324,1.185813 4.14072,2.768993 6.08542,2.120753 1.48574,-0.49525 2.55595,-1.75582 3.96875,-2.385336 1.89793,3.458296 5.22415,-0.01857 7.67291,-0.79375 m -5.02708,5.556256 v 1.32291 h -0.26458 l 0.26458,-1.32291 m -1.05833,0.26458 -1.05834,1.5875 1.05834,-1.5875 m -1.85209,0.52917 -0.79375,1.32291 v -1.32291 h 0.79375 m -8.20208,1.32291 -1.05833,-1.05833 1.05833,1.05833 m 1.5875,-1.05833 0.26458,1.05833 -0.26458,-1.05833 m 2.64583,0.26458 -0.26458,0.79375 -1.05833,-0.79375 h 1.32291 m 2.11667,-0.26458 -0.26458,1.05833 h -0.52917 l -0.26458,-1.05833 h 1.05833 m 2.64583,1.85208 c -0.65983,2.84405 -2.01126,7.39675 -5.29166,7.40834 l 0.26458,-7.40834 h 5.02708 m -4.23333,8.73126 -0.26458,3.175 h -0.26459 l -0.79375,-3.175 h 1.32292 m -0.26458,8.202077 0.26458,2.64583 h -1.05833 l 0.79375,-2.64583 m 1.05833,4.49792 -3.70417,0.26458 c 0.68889,-1.22286 2.89924,-1.50503 3.70417,-0.26458 m 0.26458,3.96875 c -1.63274,-0.26026 -2.16146,-1.05664 -2.38125,-2.64584 1.88052,-0.39126 2.14598,1.04678 2.38125,2.64584 m -5.02708,1.32291 v 0.52917 h -0.52917 v -0.52917 h 0.52917 m 3.175,1.5875 -0.26458,0.26459 h -0.52917 l -0.26458,-1.5875 -0.79375,1.5875 -0.79375,-1.85209 c 1.4384,0.005 2.24022,0.0841 2.64583,1.5875 m 1.05833,-1.5875 0.26459,1.5875 h -0.26459 v -1.5875 m 1.32292,0 0.26458,1.5875 -0.26458,-1.5875 m 1.32292,0.26459 c 0.29684,0.70372 0.36875,0.882 -0.26459,1.32291 l 0.26459,-1.32291 m 1.85208,4.49791 c -1.72696,0.33701 -5.81806,0.58493 -6.87917,-1.05833 2.28795,-0.17588 5.6364,-1.52021 6.87917,1.05833 m 4.49792,1.32292 -1.05834,1.05833 1.05834,-1.05833 m -7.9375,0.52917 0.79375,0.79375 -0.79375,0.26458 v -1.05833 m 3.70416,0.79375 -1.85208,-0.79375 1.85208,0.79375 m 2.38125,-0.79375 v 0.52916 l -1.32291,-0.26458 1.32291,-0.26458 m 4.23334,2.64583 c -3.68498,0.63451 -7.95015,2.30566 -11.64167,0.52917 v -0.52917 c 2.29963,-1.57213 4.72158,-1.15938 7.40833,-1.37845 0.85413,-0.0696 1.79273,-0.65797 2.64461,-0.47302 0.94207,0.20453 1.35415,1.02331 1.58873,1.85147 m 1.85208,-0.52917 h 0.26458 c 0.71486,3.17909 -5.51134,3.95872 -7.67291,4.23334 v -0.26459 c 2.80612,-1.14506 6.02008,-1.02318 7.40833,-3.96875 m -28.310416,2.11667 1.587496,1.05833 -1.85208,-0.79375 0.264584,-0.26458 m 4.233336,1.5875 6.35,0.79375 v 0.26458 l -6.61459,-0.79375 0.26459,-0.26458 m 7.14375,1.14653 c 0.20461,0 0.0424,0.13172 -0.0882,0.0882 l 0.0882,-0.0882"
       id="path1"
       sodipodi:nodetypes="csssssssssssssssssscssssscsssccssssscscssscssscscscsscccscssccccccccssscccccccccccscccccsscccccccccccccccsssssccccsccccccccccccccccccccccccccccccccccccccccccccccccccccccccccccccccccccccccccccccccccccccccccscccccccccccccccccc" /></g></svg>
