<?xml version="1.0" encoding="UTF-8" standalone="no"?>
<!-- Created with Inkscape (http://www.inkscape.org/) -->

<svg
   width="210mm"
   height="297mm"
   viewBox="0 0 210 297"
   version="1.1"
   id="svg1"
   xml:space="preserve"
   inkscape:version="1.4.2 (2aeb623e1d, 2025-05-12)"
   sodipodi:docname="Gambler.svg"
   xmlns:inkscape="http://www.inkscape.org/namespaces/inkscape"
   xmlns:sodipodi="http://sodipodi.sourceforge.net/DTD/sodipodi-0.dtd"
   xmlns="http://www.w3.org/2000/svg"
   xmlns:svg="http://www.w3.org/2000/svg"><sodipodi:namedview
     id="namedview1"
     pagecolor="#ffffff"
     bordercolor="#000000"
     borderopacity="0.25"
     inkscape:showpageshadow="2"
     inkscape:pageopacity="0.0"
     inkscape:pagecheckerboard="0"
     inkscape:deskcolor="#d1d1d1"
     inkscape:document-units="mm"
     inkscape:zoom="0.97566402"
     inkscape:cx="295.18358"
     inkscape:cy="256.74822"
     inkscape:window-width="1920"
     inkscape:window-height="940"
     inkscape:window-x="0"
     inkscape:window-y="0"
     inkscape:window-maximized="1"
     inkscape:current-layer="layer1" /><defs
     id="defs1" /><g
     inkscape:label="Layer 1"
     inkscape:groupmode="layer"
     id="layer1"><path
       style="fill:#080808;stroke:none"
       d="m 38.634814,31.220796 c -0.864555,3.30638 -2.995469,7.101925 -1.903941,10.583334 0.859032,2.739873 4.398863,4.514293 6.401858,6.373683 2.807532,2.60624 7.384972,8.2253 11.407712,8.77167 1.31938,0.1792 3.24863,-0.66311 4.46729,-1.10835 2.90033,-1.05965 6.34725,-1.8715 8.99481,-3.47327 3.59715,-2.17626 4.86263,-6.65179 6.10726,-10.29915 1.38175,-4.049163 3.12913,-8.069194 4.27008,-12.190636 1.09289,-3.947801 -3.99212,-7.127969 -6.40757,-9.284507 -3.1503,-2.812627 -8.50197,-7.965252 -12.96458,-8.123076 -3.61596,-0.127874 -6.98554,2.1736 -10.05417,3.733566 -2.20973,1.123341 -5.805063,2.176248 -6.614582,4.697986 -0.866557,-2.931685 -0.264583,-6.736096 -0.264583,-9.789584 0,-1.375305 0.314572,-3.235261 -0.701879,-4.336639 C 39.400566,4.639124 35.268797,3.840279 32.549397,3.229673 29.268747,2.493042 25.893925,0.91573996 22.49523,1.06871 19.273209,1.213727 16.023532,2.917281 12.97023,3.853569 10.685081,4.554302 6.001831,5.220742 4.388011,7.020196 1.585585,10.144973 1.857728,15.730801 1.857728,19.579129 c 0,2.948851 -2.01634706,9.924064 0.355637,12.121838 1.721942,1.595478 4.861394,1.868297 7.052697,2.403293 5.039535,1.230392 10.41621,3.353333 15.610418,3.707026 4.588775,0.312464 9.668956,-4.828356 13.758334,-6.59049 M 38.370231,7.143711 34.666064,6.879128 v 0.264583 l 1.058333,1.058333 c -3.129956,0.903409 -5.466636,3.743539 -8.73125,4.347459 -1.765114,0.32653 -3.615675,-0.707895 -5.291667,-1.110188 C 17.469988,10.423622 12.863768,9.704625 9.001479,7.672878 V 7.143711 c 4.752182,-1.94913 10.360734,-5.007083 15.610418,-4.751882 2.177851,0.105872 4.273544,1.141451 6.35,1.712234 2.283675,0.627747 5.807979,1.207097 7.408334,3.039648 M 21.437099,4.924765 C 19.590373,5.426543 19.48484,6.841759 21.176395,7.715341 22.427623,8.361523 24.332194,8.417172 25.669007,7.989315 27.034646,7.552229 27.53386,6.187721 26.164079,5.328576 24.953821,4.56949 22.778268,4.560357 21.437099,4.924765 m 3.174798,8.03978 c 0.753515,3.528031 1.918552,9.391369 0.798243,12.964584 -0.593189,1.891971 -2.895329,3.795368 -3.973243,5.55625 0.842536,-0.182361 1.740438,-1.035123 2.607657,-0.935024 1.419213,0.163814 1.371037,3.581883 1.625676,4.639191 -2.711733,0.794073 -6.269502,-0.749534 -8.995833,-1.207775 -0.833852,-0.140156 -2.334487,-0.05434 -2.903065,-0.80008 -0.507225,-0.66527 -0.271935,-1.96731 -0.271935,-2.754645 L 12.441063,33.07288 C 10.004789,32.620307 6.103069,32.636843 4.32309,30.63508 3.266073,29.446353 3.709812,27.141265 3.709812,25.664546 c 0,-4.415186 -0.490652,-10.003993 0.529166,-14.287501 h 0.529167 l 1.322917,2.116667 -0.264583,-5.027084 18.785418,4.497917 m 14.2875,-1.852083 v 2.38125 c -0.921039,-0.597194 -0.817682,-1.394133 -0.529166,-2.38125 h 0.529166 m 33.337506,12.700001 c -0.67177,-0.02385 -1.24746,0.05798 -1.85495,0.382583 -5.54745,2.964176 5.15839,5.765527 2.91328,0.146583 1.05816,0.449319 3.45214,2.114406 2.21752,3.501854 -0.7834,0.880372 -2.49101,1.258935 -3.54044,1.746534 -2.34934,1.09158 -4.65609,2.347689 -6.87916,3.677214 -1.19498,0.714669 -3.04526,2.431522 -4.49792,2.339602 -1.89501,-0.119889 -4.09822,-2.72921 -5.55625,-3.82339 -2.96693,-2.226535 -5.76623,-4.701106 -8.42073,-7.289514 -1.06097,-1.034546 -2.257375,-2.80192 -1.32149,-4.312955 0.78774,-1.271846 3.18808,-1.744298 4.45055,-2.436576 1.27831,-0.700967 2.21573,-1.304289 3.70417,-1.340269 l 1.05833,1.852083 -0.26458,-2.910416 c 2.03276,-0.470272 4.21525,-1.529478 6.3498,-0.943596 1.4408,0.395462 2.4088,1.950067 3.4849,2.901228 2.40535,2.12609 6.53603,3.707542 8.15697,6.509035 M 29.903564,14.552045 c 3.639151,1.909727 -2.150721,4.17515 0,0 m 29.897919,0.279691 c -2.86458,0.114673 -3.04761,4.120235 0,4.120235 3.15663,0 2.92571,-4.237355 0,-4.120235 M 20.1101,15.525856 c -3.146925,0.267764 -2.910089,4.892426 0.267442,4.418706 2.464829,-0.367468 2.144197,-4.62391 -0.267442,-4.418706 m 18.524714,3.524106 0.264583,2.645834 C 37.55952,21.224652 37.748511,19.918708 38.634814,19.049962 m 10.054169,0.142094 c -3.26281,0.747855 -2.52324,4.545492 0.79375,3.679056 2.97927,-0.778223 2.17439,-4.359376 -0.79375,-3.679056 m 10.58353,1.923535 c -3.51655,0.859354 -2.50101,5.164591 1.05814,4.26232 3.46907,-0.879436 1.88574,-4.981721 -1.05814,-4.26232 m -28.575199,2.961455 h -0.529167 c -1.526078,-3.175517 2.055241,-3.175509 0.529167,0 m 13.229167,-1.322917 c 2.107442,2.436334 4.641582,4.985743 7.143752,7.020034 1.72359,1.401307 4.07301,2.466399 5.0034,4.621633 0.49809,1.153822 0.19962,2.486024 0.28827,3.704167 0.73553,-0.346474 1.87398,-1.444695 2.71422,-0.785175 0.85171,0.668516 0.41696,2.546922 0.24784,3.431008 -0.5941,3.105737 -1.38855,6.163727 -2.02275,9.260417 -0.24008,1.1723 -0.54439,3.81019 -1.77124,4.33827 -1.69629,0.73014 -3.53708,-0.3206 -4.72433,-1.43929 -3.42153,-3.22397 -10.995133,-6.59993 -12.010975,-11.365646 -0.502368,-2.356809 -1.002713,-9.570206 3.015146,-8.202084 l 0.264584,-0.264583 c -1.891657,-3.824694 -0.795276,-6.68962 1.322916,-10.318751 h 0.529167 M 6.355645,23.999677 C 3.381101,24.976393 4.013768,29.806957 7.137962,28.639066 9.5000353,27.756069 9.08425,23.10372 6.355645,23.999677 m 33.602086,4.04612 c -3.183862,-0.242903 -0.08989,-3.705822 0,0 m 4.247625,-1.03935 c -2.376761,1.130551 -0.877563,5.669131 1.516657,4.383187 1.98791,-1.067716 0.65802,-5.417612 -1.516657,-4.383187 m -13.508042,1.568517 -0.264583,3.175 h -0.529167 c -0.582604,-1.265193 -0.503716,-2.466492 0.79375,-3.175 m 28.843459,0.460978 c -3.66705,1.438252 -1.10642,5.076846 2.11177,3.711926 3.49844,-1.483788 0.90509,-4.895163 -2.11177,-3.711926 m 14.81279,2.714022 c -0.0513,1.177173 -0.087,2.47732 -1.32291,2.910417 0.004,-1.324144 -0.0506,-2.384949 1.32291,-2.910417 m -8.46666,4.7625 c 0.32373,1.344225 -0.25539,2.114874 -1.32292,2.910417 -0.34977,-1.387722 0.0257,-2.295144 1.32292,-2.910417 m -18.76991,0.537742 c -1.90638,1.005373 -1.17524,5.449167 1.29577,4.213325 2.1956,-1.0981 1.1522,-5.504316 -1.29577,-4.213325 m 22.47407,7.399757 c 0.3787,1.31861 0.21162,2.4914 -1.05833,3.175 0.0108,-1.2824 0.0828,-2.27346 1.05833,-3.175 m -17.94655,3.12232 c -2.86727,0.96751 -1.33011,6.06953 1.48583,4.7619 1.96501,-0.91249 0.52546,-5.44055 -1.48583,-4.7619 m 11.06739,-0.2119 c 0.2802,1.53866 0.14949,2.63918 -1.5875,2.91041 0.0593,-1.35655 0.21649,-2.40783 1.5875,-2.91041"
       id="path2"
       sodipodi:nodetypes="csssssssssscsssssssssscccccssccssccsssccscscssccssccccccccccscsssssssscccssccccsccscccccsccscccccsscsssssscccccsccccsccccccsccccccccscccccscccc" /></g></svg>
