<?xml version="1.0" encoding="UTF-8" standalone="no"?>
<!-- Created with Inkscape (http://www.inkscape.org/) -->

<svg
   width="210mm"
   height="297mm"
   viewBox="0 0 210 297"
   version="1.1"
   id="svg1"
   xml:space="preserve"
   inkscape:version="1.4.2 (2aeb623e1d, 2025-05-12)"
   sodipodi:docname="Hostinsky.svg"
   xmlns:inkscape="http://www.inkscape.org/namespaces/inkscape"
   xmlns:sodipodi="http://sodipodi.sourceforge.net/DTD/sodipodi-0.dtd"
   xmlns="http://www.w3.org/2000/svg"
   xmlns:svg="http://www.w3.org/2000/svg"><sodipodi:namedview
     id="namedview1"
     pagecolor="#ffffff"
     bordercolor="#000000"
     borderopacity="0.25"
     inkscape:showpageshadow="2"
     inkscape:pageopacity="0.0"
     inkscape:pagecheckerboard="0"
     inkscape:deskcolor="#d1d1d1"
     inkscape:document-units="mm"
     inkscape:zoom="1.0778716"
     inkscape:cx="387.33741"
     inkscape:cy="308.94217"
     inkscape:window-width="1920"
     inkscape:window-height="1043"
     inkscape:window-x="0"
     inkscape:window-y="0"
     inkscape:window-maximized="1"
     inkscape:current-layer="layer1"
     showgrid="false" /><defs
     id="defs1" /><g
     inkscape:label="Layer 1"
     inkscape:groupmode="layer"
     id="layer1"><path
       style="fill:#060606;stroke:none"
       d="m 8.0504495,22.055185 v -7.14375 c -2.057202,0 -4.821245,0.604227 -5.027083,-2.116667 h 0.529167 l -0.264584,1.322917 c 4.337143,1.281987 10.0465925,0.635693 14.5520835,0.525291 2.052067,-0.05028 4.643967,-0.730325 5.81328,1.592603 0.802511,1.59425 -0.784319,2.190887 -1.312707,3.44979 -0.420702,1.002337 -0.04043,1.929646 0.261927,2.898983 -1.430157,-0.633157 -5.696216,-2.434202 -7.11905,-1.64365 -3.508697,1.949502 0.288068,7.635371 3.1503,7.729067 l -2.165461,6.69012 -0.306433,2.298366 5.646894,0.536514 v 0.264584 c -1.698241,0 -4.554829,-0.529345 -6.011717,0.51284 -2.437263,1.74349 -1.008821,6.840216 -1.396616,9.276743 h 2.116666 c -1.372538,1.594994 -2.489891,5.954401 0.337262,7.248686 2.864267,1.311274 7.614357,-0.162595 10.775239,0.424231 v 0.264584 c -3.080655,0.243121 -7.539943,-0.543507 -10.318751,0.79375 2.34389,7.080968 8.376597,7.143748 14.552084,7.143748 v 0.26459 l -6.614583,0.26458 v 0.26458 l 6.614583,3.44265 3.130082,1.68856 2.690752,-1.53831 5.556248,-2.79915 v -0.26458 l -0.79375,-0.52917 c 3.55352,-3.9e-4 6.33968,-1.97467 8.49627,-4.762498 0.5194,-0.671439 2.12524,-2.329598 1.52278,-3.279936 -0.43278,-0.682694 -1.93656,-0.424183 -2.61071,-0.424231 h -7.40834 v -0.264583 c 2.63624,-0.113188 5.3101,-0.234224 7.9375,-0.484257 0.93979,-0.08943 2.23975,0.208095 3.07456,-0.316841 3.07885,-1.93605 2.58668,-9.661523 2.261,-12.692653 -0.12076,-1.123954 -0.13596,-2.697849 -1.02342,-3.544721 -1.65977,-1.583882 -5.89678,-0.448575 -8.0163,-0.953196 v -0.264583 l 7.9375,-0.264583 c -0.66159,-2.423774 -2.18474,-5.095353 -1.79574,-7.672917 0.37836,-2.507099 3.12437,-4.022187 3.50471,-6.350001 0.82922,-5.075142 -6.53831,-2.09275 -8.58814,-1.058333 l -0.26458,-0.264583 c 1.20725,-2.553147 -1.71155,-3.582348 -1.23371,-5.816958 0.22824,-1.067288 1.27844,-1.687761 2.29204,-1.820642 2.75593,-0.361307 6.23818,-0.329655 8.99583,-0.03532 V 6.4447647 L 7.5212835,6.7093477 c 0.547439,-1.291943 1.167851,-5.310867 -0.158627,-6.34265199 -0.788574,-0.613383 -2.603257,-0.271931 -3.54554,-0.271931 -0.926882,0 -2.556587,-0.299118 -3.27993603,0.424231 -0.913498,0.91349399 -0.35387,3.41604699 -0.384626,4.60285199 -0.107345,4.14202 -0.03961,8.2928893 -0.03961,12.4354183 0,1.111689 -0.4425,3.486851 0.424231,4.337251 1.03640303,1.016871 5.99212903,0.160665 7.51326903,0.160665 M 5.4046115,3.0051817 3.2879445,2.2114317 c 1.014994,-0.225164 1.456081,0.0021 2.116667,0.79375 m -1.852083,-0.264584 1.5875,0.79375 v 0.264584 c -0.892965,0.199099 -1.81889,0.04201 -1.5875,-1.058334 m 54.2395935,3.96875 0.26458,7.9375013 c 2.21851,-0.0064 4.28419,-2.656605 1.85208,-4.233334 1.56657,-2.1778473 0.74109,-4.5486563 -2.11666,-3.7041673 M 44.033782,9.3551847 34.2442,9.0906017 h -19.05 c 1.537051,-1.050074 4.279224,-0.529167 6.085417,-0.529167 5.109491,0 10.549711,0.81677 15.610417,0.1523 1.764177,-0.231632 5.884978,-0.854801 7.143748,0.64145 m 9.525,0 -8.46666,-0.264583 c 1.45334,-0.609847 7.41757,-0.93599 8.46666,0.264583 M 21.5442,10.942685 v 0.264583 c -4.896128,0 -11.451264,1.121209 -16.1395835,-0.264583 4.391156,-1.9712863 11.4668835,-0.200658 16.1395835,0 m 21.695832,11.641667 -8.202082,-1.514006 -7.9375,1.514006 c 0.643364,-2.458417 -2.347374,-5.0367 -0.922368,-7.015948 0.872654,-1.212063 2.532061,-0.921552 3.832785,-0.921552 h 9.789585 c 1.30357,0 2.90499,-0.270325 3.85401,0.832943 1.62839,1.893045 -0.47979,3.037307 -0.99729,4.723307 -0.25774,0.839702 0.2543,1.639112 0.58286,2.38125 m -38.8937485,-4.7625 -1.058334,1.852083 1.852084,-1.058333 c -0.815366,2.685568 -3.727712,-0.325788 -0.79375,-0.79375 m 19.8437495,1.852083 1.852084,0.264584 c 0.509961,2.771794 -2.92267,2.360854 -2.38125,-0.264584 h 0.529166 m 20.108339,0 2.11666,0.264584 c 0.57157,3.089403 -3.56538,1.90732 -2.11666,-0.264584 m 2.38125,8.995834 v 0.264583 H 34.773367 c 3.515855,-1.578343 8.206035,-0.274773 11.906255,-0.264583 m -11.112505,1.058333 v 0.264584 h -1.852083 v -0.529167 l 1.852083,0.264583 m 8.466665,4.233334 -0.41443,3.439583 4.91235,6.614584 -5.82083,0.529167 v 0.264583 l 2.11666,0.264583 v 7.143751 c -3.10076,0 -6.167685,0.274321 -9.260415,0.264381 -1.022854,-0.0033 -2.68837,0.26028 -3.620055,-0.199051 -1.694366,-0.835342 0.781291,-6.735385 -2.173422,-6.36879 -2.014759,0.249985 -1.350273,4.955997 -1.350273,6.30346 -0.715186,-8.1e-5 -1.886146,0.203403 -2.486186,-0.271932 -1.256205,-0.995142 -0.424231,-6.384397 -0.424231,-7.930152 h -2.645833 c 0.901539,-2.023262 3.40211,-5.924978 5.55625,-6.719519 2.110542,-0.778457 5.43217,-0.158647 7.672917,-0.159648 0.886574,-4.04e-4 2.388606,0.208345 2.80385,-0.832947 0.280538,-0.703494 -0.267934,-1.648681 -0.4226,-2.342053 h 5.556248 m -20.902082,3.96875 -0.79375,0.529167 0.79375,-0.529167 m 28.310422,15.875001 v 0.264583 h -1.5875 l 1.5875,-0.264583 M 32.921284,65.446855 v 0.26458 h -2.116667 l 2.116667,-0.26458"
       id="path2"
       sodipodi:nodetypes="cccccssscscccccsccscccccccccccccsscccscsscccssccsscccsssssscccccccccccccccsscccccccccccsssssccccccccccccccccccccccccccccssscsccsssccccccccccccc" /></g></svg>
