<?xml version="1.0" encoding="UTF-8" standalone="no"?>
<!-- Created with Inkscape (http://www.inkscape.org/) -->

<svg
   width="210mm"
   height="297mm"
   viewBox="0 0 210 297"
   version="1.1"
   id="svg1"
   xml:space="preserve"
   inkscape:version="1.4.2 (2aeb623e1d, 2025-05-12)"
   sodipodi:docname="Lunetik.svg"
   xmlns:inkscape="http://www.inkscape.org/namespaces/inkscape"
   xmlns:sodipodi="http://sodipodi.sourceforge.net/DTD/sodipodi-0.dtd"
   xmlns="http://www.w3.org/2000/svg"
   xmlns:svg="http://www.w3.org/2000/svg"><sodipodi:namedview
     id="namedview1"
     pagecolor="#ffffff"
     bordercolor="#000000"
     borderopacity="0.25"
     inkscape:showpageshadow="2"
     inkscape:pageopacity="0.0"
     inkscape:pagecheckerboard="0"
     inkscape:deskcolor="#d1d1d1"
     inkscape:document-units="mm"
     inkscape:zoom="0.51442667"
     inkscape:cx="711.47167"
     inkscape:cy="531.65984"
     inkscape:window-width="1920"
     inkscape:window-height="940"
     inkscape:window-x="0"
     inkscape:window-y="0"
     inkscape:window-maximized="1"
     inkscape:current-layer="layer1" /><defs
     id="defs1" /><g
     inkscape:label="Layer 1"
     inkscape:groupmode="layer"
     id="layer1"><path
       style="fill:#060606;stroke:none"
       d="m 19.777408,8.4548779 c -2.54625,-1.3933971 -5.11679,0.6431297 -7.14355,2.2626361 -4.7463111,3.792574 -7.6574911,10.419405 -8.9960391,16.258195 l 4.497918,-4.23333 c -2.07714,3.90269 -6.3432991,8.86004 -5.9994691,13.49375 0.5482811,7.389 5.7739091,11.97877 11.2911402,16.07589 11.74277,8.72024 29.47736,13.94008 41.275,2.18036 1.13381,-1.13016 2.51472,-2.14194 3.45489,-3.44346 2.13011,-2.94881 2.79483,-7.84893 2.88184,-11.37321 0.23275,-9.42721 -2.45287,-19.41463 -11.89298,-23.70981 -2.60751,-1.186391 -5.40786,-1.161021 -8.20209,-1.161021 -8.20249,0 -13.59753,2.014071 -19.53404,7.982421 -5.37168,5.40048 -8.92857,14.58128 -4.71147,21.64704 1.7822,2.98607 5.8365,5.15689 8.89968,6.44227 7.3395,3.07984 17.30256,5.27651 24.55726,0.34747 2.03333,-1.3815 3.25173,-5.58628 4.01672,-7.8442 1.86561,-5.5065 3.85331,-11.73521 -0.64431,-16.64405 -1.30143,-1.42042 -3.09225,-2.3632 -4.64634,-3.4749 -1.51743,-1.08548 -2.77409,-2.84367 -4.7625,-3.05373 -1.43213,-0.1513 -3.08959,0.45578 -4.49791,0.70535 -6.87827,1.21892 -13.46028,4.75323 -15.6978,11.61941 -0.99059,3.0398 -1.3886,7.3723 0.71985,10.05397 2.36557,3.0087 8.72485,6.1479 12.5967,4.9987 4.63625,-1.37608 8.58625,-5.68031 9.42333,-10.29017 0.25542,-1.40662 0.7719,-2.58282 0.12269,-3.96875 -3.94685,-8.42571 -20.92437,-3.09818 -15.1037,5.81022 3.09283,4.7335 7.15765,-0.47934 8.20351,-3.69355 l -3.175,1.85208 c -0.37348,-0.8928 -1.36751,-2.1555 -0.82682,-3.12886 0.81693,-1.47066 4.61478,-1.77622 5.50092,-0.22661 1.97918,3.46101 -0.15664,5.41549 -2.55743,7.44039 -0.82152,0.69288 -1.71053,1.9536 -2.79814,2.21057 -1.09462,0.25863 -2.36494,-0.5724 -3.28728,-1.03118 -2.75574,-1.37069 -3.55743,-2.04858 -3.71478,-5.26431 -0.0519,-1.05961 -0.56146,-2.12814 -0.20416,-3.175 1.29387,-3.79091 5.76767,-5.11567 6.82936,-8.99583 1.87263,1.03015 3.29241,0.36093 5.29166,0.5751 2.3259,0.24915 5.65266,1.81487 7.29217,3.47327 1.50181,1.51911 2.40054,3.32569 2.45393,5.47663 0.0339,1.3667 -0.69809,3.67092 0.57265,4.49792 v 0.26458 c -2.13201,0.16609 -2.51211,3.70996 -3.7156,5.29065 -2.14203,2.81339 -5.04656,4.19298 -8.45523,4.70717 -5.53419,0.83483 -10.48886,-1.32524 -14.55208,-4.8954 -1.89068,-1.66125 -3.86741,-4.01734 -3.93425,-6.68992 -0.0372,-1.48854 0.75596,-2.84303 1.17246,-4.23333 1.72965,-5.77367 6.60024,-11.24249 12.28679,-13.59726 7.77906,-3.22128 14.54748,-0.97026 20.09812,4.86601 1.51496,1.59291 3.84267,4.12084 4.29131,6.35 0.30315,1.50624 -0.30241,3.75641 -0.50241,5.29166 -0.84948,6.52064 -3.34991,12.75974 -8.80577,16.61343 -3.49203,2.46655 -7.55706,4.1033 -11.90625,3.43856 -1.148,-0.17546 -2.04754,-0.97583 -3.175,-1.19389 -2.508,-0.48509 -5.16867,-1.06122 -7.67292,-1.48664 -0.70799,-0.12028 -1.43769,0.28728 -2.11667,0.052 -1.07278,-0.37166 -1.89514,-1.53329 -2.91041,-2.08278 -2.83254,-1.53299 -6.77634,-3.18943 -8.50423,-6.08051 -0.76133,-1.27385 -0.11528,-2.62926 -0.52305,-3.96855 -0.803921,-2.64049 -2.078281,-5.65498 -1.991311,-8.46667 0.0365,-1.17951 0.8263,-2.07343 1.12223,-3.175 0.848771,-3.1594 1.598361,-6.11243 3.248091,-8.99583 1.54231,-2.69567 3.68455,-4.12888 6.1191,-5.897187 6.38419,-4.637088 14.29073,-7.3830105 22.225,-6.1468704 2.21122,0.344504 4.24772,1.6074354 6.35,2.3218454 3.32586,1.130212 7.66043,2.552695 10.23281,5.049542 5.98347,5.80779 6.96511,13.99759 6.96511,21.87059 h 0.26458 l 1.05833,-1.32292 c 0.002,1.68814 -1.1222,3.14439 -1.48542,4.7625 -0.67965,3.02775 -0.56747,6.40508 -1.93272,9.26042 -2.6886,5.62302 -9.58064,8.79754 -14.83811,11.21498 -2.83789,1.30489 -4.9924,3.107 -8.20208,3.52512 -7.0709,0.92115 -13.93097,-1.2875 -20.37292,-3.76786 -5.89269,-2.26887 -12.9417111,-5.84684 -15.6104111,-12.03058 h -0.26459 c 0.0597,3.31567 1.66761,5.74613 2.91042,8.73125 -0.90216,0.0695 -1.29676,0.17958 -1.5875,1.05834 7.9522011,1.36839 13.9161711,7.06198 21.4312511,9.31329 1.42375,0.42652 2.8009,-0.15185 4.23313,0.0249 1.18705,0.14649 2.22387,0.76396 3.44081,0.70044 2.68191,-0.13996 6.08994,-0.0767 8.73023,-0.58632 3.96227,-0.76484 8.19972,-2.9803 11.90625,-4.58713 3.58389,-1.55366 6.42817,-4.69312 9.0185,-7.51103 5.04672,-5.49011 8.50411,-12.31502 8.87395,-19.84375 0.12114,-2.46605 -0.87078,-5.33073 -1.56219,-7.67291 -1.57171,-5.32422 -3.37214,-10.81934 -7.11864,-15.081255 -4.04853,-4.6055087 -10.39535,-8.2256749 -16.09079,-10.2819997 -4.5455,-1.641147 -10.83604,-2.514673 -15.61042,-1.809209 -1.83108,0.270567 -3.47021,1.299453 -5.29166,1.648947 -3.21596,0.6170567 -7.16551,1.0753377 -8.73125,4.3568456 M 8.4003169,22.477739 l -0.26458,0.26458 0.26458,-0.26458"
       id="path1"
       sodipodi:nodetypes="csccssssssssssssssssssssssccssssscscsssccsssssssssssssccssssssssscccsssssccccssscsssssssscccc" /></g></svg>
