<?xml version="1.0" encoding="UTF-8" standalone="no"?>
<!-- Created with Inkscape (http://www.inkscape.org/) -->

<svg
   width="210mm"
   height="297mm"
   viewBox="0 0 210 297"
   version="1.1"
   id="svg1"
   xml:space="preserve"
   inkscape:version="1.4.2 (2aeb623e1d, 2025-05-12)"
   sodipodi:docname="Matróna.svg"
   xmlns:inkscape="http://www.inkscape.org/namespaces/inkscape"
   xmlns:sodipodi="http://sodipodi.sourceforge.net/DTD/sodipodi-0.dtd"
   xmlns="http://www.w3.org/2000/svg"
   xmlns:svg="http://www.w3.org/2000/svg"><sodipodi:namedview
     id="namedview1"
     pagecolor="#ffffff"
     bordercolor="#000000"
     borderopacity="0.25"
     inkscape:showpageshadow="2"
     inkscape:pageopacity="0.0"
     inkscape:pagecheckerboard="0"
     inkscape:deskcolor="#d1d1d1"
     inkscape:document-units="mm"
     inkscape:zoom="3.8783899"
     inkscape:cx="172.36534"
     inkscape:cy="39.707199"
     inkscape:window-width="1920"
     inkscape:window-height="1043"
     inkscape:window-x="0"
     inkscape:window-y="0"
     inkscape:window-maximized="1"
     inkscape:current-layer="layer1"
     showgrid="false" /><defs
     id="defs1" /><g
     inkscape:label="Layer 1"
     inkscape:groupmode="layer"
     id="layer1"><path
       style="fill:#0a0a0a;stroke:none"
       d="m 32.801237,2.3962451 c 3.20055,-0.250469 9.41551,1.729651 5.50644,5.793066 -1.63445,1.698975 -3.70874,1.533482 -5.77102,2.1444349 l 0.26458,1.5875 c 2.40651,0.254475 8.43167,-0.471499 7.9375,-3.9687509 1.02601,-0.165897 2.42492,-2.252293 3.30566,-1.653242 0.88215,0.600012 1.06481,2.546897 1.28453,3.505326 0.61657,2.6895089 1.97964,4.9521209 2.68013,7.6729179 2.50421,9.726708 5.30834,19.389983 7.88116,29.104167 0.94428,3.565327 1.45424,11.670477 5.48602,12.435417 0.22109,1.25278 1.65452,2.10225 2.79486,1.12652 0.63795,-0.54585 1.69035,-3.46562 1.7198,-4.30152 0.0562,-1.59324 -1.13472,-3.30064 -1.64814,-4.7625 -1.44175,-4.10516 -3.12889,-8.132175 -4.73923,-12.170834 -3.26311,-8.18377 -6.90661,-16.482319 -9.5895,-24.870834 -0.67912,-2.123368 -1.27048,-4.9085269 -1.69979,-7.1437509 -0.16635,-0.866105 0.19699,-1.787189 -0.19231,-2.61725 -1.148,-2.447711 -3.2753,-0.168683 -4.90194,-0.514261 -0.93256,-0.198123 -1.66731,-1.015232 -2.38125,-1.585256 -2.13922,-1.70799496 -7.92209,-4.144732 -7.9375,0.21885 M 1.2951539,3.7802015 c -3.072939,0.891451 0.09253,5.829037 1.587501,7.1437505 l 0.79375,-0.79375 c 0,0.972462 -0.198773,2.245349 0.311948,3.119472 1.938379,3.317643 8.6682651,2.503513 11.3297191,0.813961 2.744067,-1.742005 3.045348,-4.1574345 3.95487,-6.8438505 0.451761,-1.334342 2.016605,-2.755226 3.453465,-2.835696 2.63215,-0.147407 3.3582,2.412208 4.64205,4.082051 1.52181,1.9793535 3.5491,3.0506465 5.94128,3.5161455 -0.0329,-2.7772775 -3.47873,-2.5309505 -3.61903,-5.2916665 -0.14723,-2.897111 3.60864,-3.149211 3.61903,-6.08541695 -2.43257,0.384763 -3.9227,2.86204995 -6.35,3.23522695 -2.10383,0.323446 -3.63639,-1.686816 -6.08542,-0.950741 -1.408888,0.423456 -2.385718,2.292326 -3.704162,2.472297 -0.825394,0.112671 -1.900082,-0.849528 -2.646855,-1.15714 -1.486711,-0.612406 -2.89757,-0.756462 -4.496895,-0.678609 -2.3371681,0.113769 -8.2626381,4.414799 -8.7312511,0.253966 m 44.9998331,0.2035436 -1.05833,1.852083 c -0.26123,-1.071858 -0.0761,-1.655075 1.05833,-1.852083 m 0.79375,0.79375 c 0.21852,1.049976 0.16192,1.774101 -1.05833,1.5875 l 1.05833,-1.5875 M 9.7618209,5.7184385 C 15.802256,4.7194605 18.788233,12.3761 11.878488,13.540588 5.5755819,14.602805 2.5236239,6.9155075 9.7618209,5.7184385 m 36.7977461,1.9694736 1.85209,3.7041679 h -1.5875 c -0.3447,-1.214671 -1.06924,-2.5979049 -0.26459,-3.7041679 m 2.11667,5.8208339 0.26458,1.587501 h -0.26458 l -0.79375,-1.587501 h 0.79375 m 1.56684,2.44229 -0.26459,0.264583 0.26459,-0.264583 m -0.24392,0.732711 c 3.20649,9.478257 7.3301,18.587323 10.60395,28.045834 1.08888,3.1459 3.88269,7.51915 3.68355,10.84792 -1.33588,-1.08537 -1.77382,-2.85789 -2.11667,-4.49792 h -0.26458 l 1.32291,5.55625 -0.26458,0.26458 c -1.65935,-0.90542 -2.48698,-4.54193 -2.64583,-6.35 l 0.79375,0.26459 -3.175,-10.318754 h -0.26459 l 1.85209,13.229164 h -0.26459 c -0.58235,-7.31767 -3.13348,-14.325414 -4.7625,-21.431247 h 0.26459 l 0.26458,1.322917 h 0.26458 l -2.11666,-7.143751 c -1.57152,-0.207012 -2.26008,-4.254545 -1.85209,-5.55625 l -0.79375,-0.264583 0.26459,-1.058334 c -0.79786,-0.105436 -0.94274,-0.669815 -0.52917,-1.322916 l -0.26458,-1.5875 m 0.77308,0.590205 0.26459,0.264584 -0.26459,-0.264584 m -0.77308,1.261878 0.26458,0.264583 -0.26458,-0.264583 m 0.26458,0.529167 0.26458,0.264583 -0.26458,-0.264583 m 0.61736,1.234719 0.0882,0.176395 -0.0882,-0.176395 m 1.23472,4.321531 0.26459,0.264583 -0.26459,-0.264583 m 0.26459,0.79375 0.26458,0.264583 -0.26458,-0.264583 m 0.26458,0.529167 0.26458,0.264583 -0.26458,-0.264583 m 1.76389,5.732636 -0.0882,0.176394 0.0882,-0.176394 m 0.88194,1.940281 1.5875,4.7625 h 0.26459 l -1.85209,-4.7625 m 2.20487,6.526394 0.0882,0.176378 -0.0882,-0.176378 m 6.52638,18.344436 -0.52916,1.05834 -1.32292,-0.52917 c 0.63184,-0.71812 0.94347,-0.8338 1.85208,-0.52917"
       id="path2"
       sodipodi:nodetypes="cscccsssscscsssssssccccssssscscsssssccccccccsccccccccccccccscccccccccccccccccccccccccccccccccccccccccccccccccccccccc" /></g></svg>
