<?xml version="1.0" encoding="UTF-8" standalone="no"?>
<!-- Created with Inkscape (http://www.inkscape.org/) -->

<svg
   width="210mm"
   height="297mm"
   viewBox="0 0 210 297"
   version="1.1"
   id="svg1"
   xml:space="preserve"
   inkscape:version="1.4.2 (2aeb623e1d, 2025-05-12)"
   sodipodi:docname="Namornik.svg"
   xmlns:inkscape="http://www.inkscape.org/namespaces/inkscape"
   xmlns:sodipodi="http://sodipodi.sourceforge.net/DTD/sodipodi-0.dtd"
   xmlns="http://www.w3.org/2000/svg"
   xmlns:svg="http://www.w3.org/2000/svg"><sodipodi:namedview
     id="namedview1"
     pagecolor="#ffffff"
     bordercolor="#000000"
     borderopacity="0.25"
     inkscape:showpageshadow="2"
     inkscape:pageopacity="0.0"
     inkscape:pagecheckerboard="0"
     inkscape:deskcolor="#d1d1d1"
     inkscape:document-units="mm"
     inkscape:zoom="1.3103342"
     inkscape:cx="277.02855"
     inkscape:cy="159.88287"
     inkscape:window-width="1920"
     inkscape:window-height="940"
     inkscape:window-x="0"
     inkscape:window-y="0"
     inkscape:window-maximized="1"
     inkscape:current-layer="layer1" /><defs
     id="defs1" /><g
     inkscape:label="Layer 1"
     inkscape:groupmode="layer"
     id="layer1"><path
       style="fill:#0c0c0c;stroke:none"
       d="m 34.208109,13.141623 c -1.478213,0.410836 -2.449952,2.003706 -3.96875,2.218744 -3.172909,0.449238 -5.824265,-2.766837 -8.017938,0.956257 -0.298944,0.507365 -0.65927,1.01637 -0.828454,1.586482 -0.777589,2.620302 3.198105,2.013613 4.53405,2.907349 2.270727,1.519101 2.383236,3.368157 3.641287,5.560336 0.574028,1.000262 1.794561,2.223927 1.752663,3.439583 -0.04975,1.443371 -1.079945,3.162469 -1.594646,4.497917 -1.244405,3.228735 -2.531911,6.36774 -3.947519,9.525 -0.679896,1.516397 -1.412567,3.820407 -2.770163,4.867638 -2.212474,1.706671 -7.246869,0.50391 -8.908864,3.069863 -1.068386,-0.16002 -1.909021,0.80004 -2.906335,0.573874 -1.8723987,-0.42461 -3.7456047,-5.248767 -4.2374157,-6.923875 1.700551,0.301443 3.3238447,0.02151 4.4979167,-1.322916 -5.1465367,0.13804 -3.9581927,-8.422823 -3.7041657,-11.641668 -3.572485,2.51443 -6.098171,6.357914 -7.40731295,10.471051 -0.679218,2.134003 -0.566022,5.384717 2.38022895,4.345617 0,2.323518 0.290765,4.533702 1.433161,6.614583 0.595046,1.083873 2.460295,2.183766 2.532323,3.439584 0.139256,2.427875 -5.182121,7.699115 -1.848817,10.054165 l 0.79375,-2.91041 h 0.264583 c 0.763471,1.70706 1.269403,2.93304 2.910417,3.96875 -1.154948,-3.74781 -1.620105,-5.43687 -0.529167,-9.26042 h 0.529167 c 1.4124697,4.26712 5.6036307,6.87822 7.4657017,10.84792 0.618442,1.31843 1.091645,4.28476 2.854272,4.38849 2.39838,0.14112 5.276648,-1.68591 7.671693,-2.10911 4.852337,-0.85739 9.721597,-0.45459 14.55596,-1.86945 1.78385,-0.52206 3.4147,-1.61897 5.02321,-2.5266 0.5643,-0.31842 1.56725,-1.072 2.2216,-0.57776 0.52951,0.39994 0.51042,1.56892 0.68881,2.16526 1.71198,-0.81805 2.15722,-2.6217 2.939,-4.23333 1.73121,-3.56892 3.32756,-7.070714 3.411,-11.112505 -1.47872,0.241361 -1.48141,1.557463 -2.66114,2.271825 -2.66114,1.6114 -6.69707,2.75322 -9.77427,2.75526 0.77639,1.76397 2.04785,2.56699 3.70416,3.43958 v 0.26458 c -1.03508,0.70423 -1.95596,1.49704 -3.175,1.8772 -3.1297,0.97602 -11.345513,0.0205 -12.32558,-3.72928 -0.596161,-2.28092 0.08666,-8.694462 2.330829,-10.046818 0.808381,-0.487131 1.953732,-0.211566 2.851005,-0.357875 2.584306,-0.421413 5.182806,-1.220517 6.612136,-3.618223 1.63482,-2.742411 0.17297,-7.778446 -1.28862,-10.31875 -0.58232,-1.012091 -1.93653,-2.005094 -2.11647,-3.175 -0.23777,-1.545925 1.60394,-6.373206 3.40835,-6.456777 1.1972,-0.05545 2.08805,1.333502 3.17806,1.692032 2.44985,0.805797 5.60906,1.24109 8.19821,1.589745 0.44583,-1.155711 1.4686,-2.954495 1.11734,-4.2219 -0.41732,-1.505811 -2.83437,-1.992135 -4.02653,-2.681967 -1.21139,-0.700958 -1.34047,-2.078983 -2.42167,-2.733207 -1.52866,-0.924984 -4.50456,-1.271499 -6.31081,-1.74001 l 0.52917,-1.5875 c 1.71885,2.52248 6.12644,0.191841 7.93363,-1.238394 3.40118,-2.691752 4.09694,-8.7996727 1.4505,-12.2551547 -3.04465,-3.97543601 -9.01232,-4.955673 -13.35288,-2.669306 -4.067379,2.142465 -7.49649,7.347953 -5.291666,11.9295207 M 43.203945,0.70620629 v 0.264584 l -1.5875,1.05833301 -0.52917,-0.529167 h -0.26458 l -0.26459,1.5875 -0.79375,-0.529166 v 1.058333 h -0.26458 l -0.264583,-1.058333 -1.058333,2.116666 -0.529167,-1.852083 c 1.837233,-0.91376 3.375003,-2.31000101 5.556253,-2.11666701 m 9.26041,7.14375101 h -0.26458 l -0.79375,-0.529167 c 0.17955,-1.077292 -0.32815,-3.15911 -1.32292,-2.910417 l 0.52917,-1.322917 -1.05833,0.79375 0.52916,-1.322916 c -2.5707,-0.733572 -2.84626,-1.494531 -5.02708,0.264583 l 0.79375,-1.85208301 -2.11667,0.26458301 -0.26458,-0.79375001 c 4.94662,0.0033 8.9923,2.04640301 8.99583,7.40833401 m -8.20208,6.6145827 0.79375,-4.7624997 -3.06169,-0.46118 -4.346643,1.7840967 c 1.38e-4,-1.2646357 -0.07693,-2.5492147 0.542441,-3.7002907 1.760412,-3.271635 7.571412,-4.462995 10.190742,-1.504205 3.27502,3.699468 -0.28254,8.0796667 -4.1186,8.6440787 m -6.614583,-7.9374997 -0.79375,5.0270827 c -1.746865,-0.987464 -0.290163,-3.9099107 0.79375,-5.0270827 m 6.614583,3.439583 -0.79375,4.2333337 h -0.26458 l 0.52916,-2.116667 -0.79375,0.529167 0.26459,-1.322917 h -0.26459 l -0.79375,1.852083 h -0.26458 l 0.26458,-0.79375 h -0.26458 l -0.26458,0.79375 -0.52917,-0.529166 -0.52917,1.5875 c -0.70959,-2.39991 1.53601,-4.3788667 3.70417,-4.2333337 m -4.7625,1.3229167 v 0.79375 l -0.793749,-0.264583 0.793749,-0.529167 m -1.322916,0.529167 0.529167,1.058333 -0.529167,-1.058333 m -0.264583,0.79375 v 0.529166 c -0.872936,0.134521 -1.12687,-0.0429 -1.5875,-0.79375 l 1.5875,0.264584 m 11.906249,0 0.26458,0.79375 h -1.05833 v 1.322916 l -1.05833,0.264584 -0.79375,-0.264584 v 1.058334 h -0.26459 l -0.26458,-0.79375 h -0.26458 l -0.26459,0.79375 -0.52916,-0.264584 -0.26459,0.793751 h -0.26458 c 0.3079,-1.936373 3.17652,-2.824699 4.7625,-3.704167 m -13.493749,1.322916 -1.322917,-0.529166 c 0.691285,-0.396342 1.152126,-0.267862 1.322917,0.529166 m 5.027079,-0.529166 -0.26458,0.264583 0.26458,-0.264583 m -0.26458,0.529166 -0.26458,0.264584 0.26458,-0.264584 m -6.349999,0.79375 -1.852084,-0.264583 1.852084,0.264583 m 8.466669,-0.264583 -0.26459,0.264583 0.26459,-0.264583 m -9.789586,1.322917 h -1.852084 c 0.511145,-0.844571 1.353164,-0.864434 1.852084,0 m 0.529167,0.264583 c 1.988476,-2.229644 4.273818,1.303328 1.07017,0.415454 -0.377335,-0.10458 -0.711447,-0.261111 -1.07017,-0.415454 m -6.614584,0 -0.79375,2.645834 h -0.264583 l 0.264583,-1.322917 h -0.264583 l -0.529167,1.322917 H 25.476859 V 16.84579 h -0.264584 l -0.529167,1.852084 H 24.418525 V 16.84579 h -0.264583 l -0.529167,1.5875 c -0.696037,-2.620689 1.960862,-2.884239 3.704167,-2.38125 m 4.497917,0 v 1.058334 h -1.852084 l 1.852084,-1.058334 m -2.645834,0.264584 c -0.235006,1.020512 -0.562792,1.76894 -1.5875,2.116666 0.119599,-1.15609 0.372071,-1.907563 1.5875,-2.116666 m 4.762501,0.79375 -1.587501,1.058333 0.529167,-1.322917 1.058334,0.264584 m 11.641669,7.408333 h -0.26459 l 0.52917,-2.910417 h -0.26458 l -1.05834,3.439584 h -0.26458 c 0,-1.64562 0.4541,-3.266274 -0.79375,-4.497917 l -1.5875,3.704167 0.26458,-2.38125 -1.32291,2.116666 0.26458,-2.910416 h -0.26458 l -0.79375,2.645833 h -0.26459 c 0.12181,-1.541209 0.89255,-3.247307 -0.26458,-4.497917 l -0.264583,1.322917 h -0.264583 l 0.264583,-1.058333 c -1.362134,-0.169128 -2.060646,-0.923143 -2.645833,0.79375 h -0.264583 l -0.529167,-1.058334 -1.322917,2.645834 c -0.307999,-1.004404 -0.03537,-3.52745 1.097527,-3.994879 0.821728,-0.339046 1.819438,0.160059 2.60664,0.400137 1.976986,0.602935 6.717266,1.151859 7.926276,2.969828 0.58745,0.883328 -0.23119,2.389171 -0.51794,3.270747 m -14.287503,-6.35 c -0.664244,0.751254 -1.124693,0.978001 -2.116667,0.79375 l 2.116667,-0.79375 m 2.910417,1.058333 -0.529167,1.322917 h -0.264583 l 0.79375,-1.322917 m -3.704167,0.529167 c -0.279578,0.923845 -0.639661,1.172627 -1.5875,1.322917 l 1.5875,-1.322917 m 8.466667,1.058333 -0.264583,0.264584 0.264583,-0.264584 m 10.054166,0.529167 -1.05833,5.291667 h -0.26459 v -1.322917 h -1.05833 c 0.36107,-1.520159 0.93641,-3.218093 2.38125,-3.96875 m -18.520833,0.529167 -1.5875,1.058333 1.5875,-1.058333 m 2.38125,4.497917 c -1.374738,-1.02149 -1.891325,-2.303534 -2.116667,-3.968751 2.713377,0.740637 3.485221,1.353455 2.116667,3.968751 m -2.38125,-2.910417 -1.058333,1.058333 1.058333,-1.058333 m 19.843753,0.529166 c 1.54981,0.692957 5.14096,0.984671 4.23333,3.175001 h -0.26458 v -1.058334 l -0.79375,-0.529166 -0.26459,0.79375 -0.26458,-0.529167 h -0.26458 l -0.26459,1.852083 h -0.26458 v -2.116666 h -0.52917 l -0.26458,1.852083 h -0.26458 l 0.26458,-2.116667 -1.05833,-0.264583 -0.26459,1.058333 h -0.26458 l 0.52917,-2.116667 m -19.314586,0.529167 -1.058334,1.5875 1.058334,-1.5875 m 5.55625,0.529167 c -0.804416,3.263722 -1.925214,6.334449 -2.961657,9.525 -0.719518,2.214941 -1.567569,4.387023 -2.255087,6.614584 -0.674204,2.184427 -1.285472,5.874302 -2.976357,7.513269 -0.627542,0.608272 -3.263387,0.765764 -3.384867,-0.415253 -0.149809,-1.456419 1.66258,-3.895741 2.229152,-5.245933 1.938217,-4.618936 3.753037,-9.33454 5.521134,-14.022917 0.663211,-1.758597 1.470042,-5.029869 3.827682,-3.96875 m 8.731246,-0.264583 -0.26458,0.264583 0.26458,-0.264583 m -11.906246,18.25625 2.910417,-5.027083 h 0.264583 l -2.910417,7.672917 h -0.264583 v -0.79375 l -0.529167,0.529166 h -0.264583 l -0.264584,-0.79375 -0.264583,0.529167 -0.264583,-0.79375 h -0.264584 l -0.264583,1.058333 h -0.264583 c 1.50315,-6.494347 4.319528,-14.077678 7.672917,-19.84375 1.998049,0.659302 2.426769,1.714858 1.375799,3.66599 -0.63981,1.187799 -2.263802,1.482412 -3.032505,2.685027 -1.644207,2.572324 -3.331096,8.079699 -3.634961,11.111483 m -1.5875,-17.197917 -0.79375,1.5875 0.79375,-1.5875 m 5.55625,1.5875 -0.264583,0.264583 0.264583,-0.264583 m 2.645836,7.408334 -0.793753,2.38125 c -0.758497,-1.018301 -0.399959,-2.004206 0.793753,-2.38125 M 6.1622743,35.895791 c 0,4.380208 -0.922279,8.581082 1.079973,12.7 0.956172,1.966983 2.251486,3.93936 3.7284627,5.552375 1.047554,1.144035 2.603011,1.822854 2.864481,3.443459 l 1.058334,-0.264583 v 1.322915 h 0.264583 l 0.264583,-1.058332 h 0.264584 l 0.264583,2.381252 h 0.264583 l 0.529167,-1.852085 h 0.264584 v 1.852085 h 0.264583 c 0.03493,-0.63684 0.516062,-2.189492 0.79375,-0.79375 h 0.264583 l 0.79375,-1.058335 v 2.116665 h 0.529167 l 0.264583,-2.116665 h 0.264584 v 1.852085 h 0.264583 l 0.264583,-1.852085 h 0.264584 l -1.322917,6.350005 h -0.264583 l -0.529167,-1.05834 h -0.264583 l 0.529166,2.64584 c 1.806435,-1.80841 2.610447,-6.03087 3.439584,-8.466672 l 0.529166,0.529167 c 0.408301,-1.718968 1.392499,-4.077788 3.439584,-2.645834 0.518226,-0.962732 3.134349,-2.264316 3.798484,-0.709638 0.855601,2.002873 -1.230077,4.410447 0.02266,6.795057 3.696282,7.03594 12.993279,5.15014 18.139269,1.41968 1.72664,-1.25168 2.719,-3.59269 4.49792,-4.59468 -0.15908,2.90573 -3.6435,5.39692 -5.82083,7.01717 -2.91374,2.16825 -6.91907,4.57107 -10.583337,5.09813 -3.271982,0.47064 -6.321247,-0.58237 -9.525,-0.7278 -2.673901,-0.12139 -5.118156,0.6349 -7.672917,1.3125 -0.806359,-2.1374 -1.190763,-4.33701 -2.501087,-6.27447 C 11.706008,57.145335 2.8475093,51.612646 4.5535423,41.187458 c 0.313898,-1.918165 0.312133,-3.726533 1.608731,-5.291667 m 34.9250017,0.264583 0.79375,1.322917 -1.5875,0.79375 0.26458,-2.116667 h 0.52917 m -2.910417,1.058333 c 2.653187,2.052604 4.587767,7.204978 1.201447,9.809794 -1.279591,0.984282 -3.141824,0.934285 -4.64103,1.302706 -0.398192,-2.393854 1.307664,-4.905143 2.001323,-7.14375 0.401776,-1.296614 0.596079,-2.899783 1.43826,-3.96875 M 3.7810233,38.27704 c -0.138283,1.737624 -0.406104,6.123157 -1.852083,7.14375 l 0.529167,-1.852083 h -0.264584 l -0.529166,1.058333 h -0.264584 l 1.322917,-2.910417 -0.79375,0.264584 V 40.65829 l 1.852083,-2.38125 m 38.6291717,0.529167 0.26458,2.116666 h -1.05833 c -0.23538,-1.036597 -0.31281,-1.749118 0.79375,-2.116666 M 7.4851903,41.45204 v 0.529167 h -0.529167 l 0.529167,-0.529167 m 35.4541647,0 c 0.29297,1.100208 0.10766,1.657473 -1.05833,1.852084 l 0.52917,-1.852084 h 0.52916 m -35.1895807,1.5875 -0.529167,0.79375 v -0.79375 h 0.529167 m 0.529166,0.529167 0.264584,0.529167 h -0.529167 l 0.264583,-0.529167 m 34.6604147,2.645833 -1.5875,-0.264583 c 0.32276,-2.066726 1.96527,-1.900788 1.5875,0.264583 m -0.26458,0.529167 c -0.76454,0.906187 -1.293,0.955546 -2.38125,0.529167 v -0.529167 h 2.38125 m -3.439584,0 0.264584,0.264583 -0.264584,-0.264583 m 1.322914,2.116667 c -1.05994,0.497951 -1.778231,0.560689 -2.381247,-0.529167 l 2.381247,0.529167 m -2.910414,1.058333 -2.116666,-1.058333 c 1.009733,0.0245 1.755327,0.03072 2.116666,1.058333 m -6.085417,0.79375 c -1.068608,-0.254135 -2.004464,-0.487389 -2.38125,-1.5875 1.303074,0.03159 2.089739,0.221797 2.38125,1.5875 m 3.175001,-0.529167 -2.116667,-0.529166 c 0.900187,-0.667619 1.589817,-0.425636 2.116667,0.529166 m -6.350001,0.793751 c -1.217133,0.0968 -2.043956,-0.269856 -1.852083,-1.587501 l 1.852083,1.587501 m -2.38125,0.264583 c -1.25168,-0.06872 -1.944536,-0.373201 -2.38125,-1.5875 l 2.38125,1.5875 m -2.645833,0.264583 -2.645834,-1.322917 c 1.383435,-0.24065 2.153688,-0.07763 2.645834,1.322917 m -3.175,-0.264583 h -2.38125 c 0.679856,-1.012624 1.732892,-1.047336 2.38125,0 m -3.175,1.322917 4.7625,-0.529167 c -1.2438,3.183527 -5.23664,3.631351 -7.937501,2.116667 l 3.175001,-1.322917 v -0.264583 l -1.852084,-0.264584 c 0.446262,-1.267873 1.874571,-1.129792 1.852084,0.264584 m 14.022917,-1.058334 v 0.529167 l -2.38125,0.264583 2.38125,-0.79375 m -3.704167,0.264584 -1.058333,0.79375 1.058333,-0.79375 m -2.645834,0.264583 -2.38125,1.5875 c 0.299074,-1.401126 1.09137,-1.483324 2.38125,-1.5875 m -10.31875,0.79375 v 0.529167 h -1.5875 v -0.529167 h 1.5875 m 11.72986,2.822228 0.0882,0.176378 -0.0882,-0.176378 m 12.876391,12.259025 -6.879167,-1.32292 v -0.79375 l -0.529167,0.52917 h -0.264583 v -1.05833 h -0.264583 l -0.264584,1.05833 h -0.264583 l 0.264583,-1.05833 -1.058333,1.32291 h -0.264583 l 0.264583,-2.11666 h -0.264583 l -0.79375,1.5875 h -0.264583 l 0.79375,-2.11667 -1.5875,1.32292 0.79375,-1.85209 -1.058333,0.79375 0.79375,-1.5875 -1.852083,1.32292 1.322916,-2.11667 -2.116666,0.79375 2.38125,-2.38125 -1.852084,0.52917 2.38125,-2.38125 -1.852083,0.79375 2.116667,-1.852086 v -0.264584 l -2.116667,0.79375 1.5875,-1.5875 c -3.635086,-0.609063 -4.159884,6.01559 -5.01953,8.73125 -0.299424,0.94591 -1.096493,3.18198 -0.112489,3.9614 1.2027,0.95266 3.841836,-0.0244 5.132019,-0.31194 3.187241,-0.71033 7.607926,-1.09881 10.847917,-0.73904 m -31.4854177,-9.525 v 0.79375 l -0.79375,-0.26459 0.79375,-0.52916 m 15.1694437,0.17639 0.0882,0.17638 -0.0882,-0.17638 m 26.89931,0.61736 c -0.42672,2.04462 -1.7668,1.13177 -3.175,0.52916 l 3.175,-0.52916 m -42.0687537,0.52916 c -0.493482,0.9789 -1.034877,1.24132 -2.116667,1.32292 l 2.116667,-1.32292 m -0.79375,1.85209 c 0.07639,1.30901 -0.720878,1.8728 -1.852083,2.38125 0.101055,-1.31199 0.696542,-1.82484 1.852083,-2.38125 m 20.6375007,2.64583 -0.264583,0.26459 0.264583,-0.26459 m 23.812503,0.26459 -1.05834,1.5875 1.05834,-1.5875"
       id="path2"
       sodipodi:nodetypes="cssssssssscscccscssccccccsssssscscscccssssssssscsssccsssccccccccccccccccccccccccccccccssccccccccccccccccccccccccccccccccccccccccccccccccccccccccccccccccscccccccccccccccccccccccccccccccccccccccccccccccccsssccccccccccccccccccccccccccccccccccccccccccccccccccccsssssscccccccccccccccccccsscccccccccccsscccccccccccccccccccccccccccccccssscsssccscccccccscsccccccccccccccccccccccccccccccccccccccccccccccccccccccccccccccccccccccccccccccccccccccccccccccccccccccccccccccccccccccccccsssccccccccccccccccccccccc" /></g></svg>
