<?xml version="1.0" encoding="UTF-8" standalone="no"?>
<!-- Created with Inkscape (http://www.inkscape.org/) -->

<svg
   width="210mm"
   height="297mm"
   viewBox="0 0 210 297"
   version="1.1"
   id="svg1"
   xml:space="preserve"
   inkscape:version="1.4.2 (2aeb623e1d, 2025-05-12)"
   sodipodi:docname="Pevec.svg"
   xmlns:inkscape="http://www.inkscape.org/namespaces/inkscape"
   xmlns:sodipodi="http://sodipodi.sourceforge.net/DTD/sodipodi-0.dtd"
   xmlns="http://www.w3.org/2000/svg"
   xmlns:svg="http://www.w3.org/2000/svg"><sodipodi:namedview
     id="namedview1"
     pagecolor="#ffffff"
     bordercolor="#000000"
     borderopacity="0.25"
     inkscape:showpageshadow="2"
     inkscape:pageopacity="0.0"
     inkscape:pagecheckerboard="0"
     inkscape:deskcolor="#d1d1d1"
     inkscape:document-units="mm"
     inkscape:zoom="2.1451368"
     inkscape:cx="192.06234"
     inkscape:cy="82.279135"
     inkscape:window-width="1920"
     inkscape:window-height="940"
     inkscape:window-x="0"
     inkscape:window-y="0"
     inkscape:window-maximized="1"
     inkscape:current-layer="layer1" /><defs
     id="defs1" /><g
     inkscape:label="Layer 1"
     inkscape:groupmode="layer"
     id="layer1"><path
       style="fill:#080808;stroke:none"
       d="m 11.774967,5.1896384 h 0.264584 C 14.227079,11.765206 9.8239243,17.709861 7.0034843,23.445889 2.5008487,32.603072 -1.9866193,42.446292 0.92705066,52.814642 H 1.1916347 l -0.52916704,-2.38125 h 0.264583 c 1.52307404,7.38314 5.37692864,14.31231 12.96458334,16.80982 3.284663,1.08116 6.641298,1.16285 10.054167,1.18185 v 0.26458 c -1.179115,0.26952 -3.428509,0.1563 -4.384204,0.8011 -0.725598,0.48955 -0.648757,1.56981 -1.496857,1.94967 -2.243294,1.00475 -2.89191,-0.0126 -3.908522,2.80548 7.149713,2.44005 16.088077,2.84408 23.01875,-0.53836 1.666485,-0.8133 5.668925,-2.19973 6.133795,-4.24782 0.77933,-3.43347 -3.640972,-1.23106 -4.810878,-0.77007 -1.126619,-3.09258 -2.443585,-1.81447 -5.027083,-1.5875 v -0.26459 c 6.318332,-1.72463 11.389781,-6.10117 13.289801,-12.43541 0.83824,-2.79452 0.67246,-5.72843 1.52687,-8.46667 -1.38923,-1.83372 -0.83405,-5.44967 -1.68692,-7.67292 -2.69674,-7.029776 -6.38286,-13.598319 -9.037486,-20.637497 -0.904403,-2.398174 -3.640662,-6.654092 -1.446432,-8.9958336 0.348299,4.6204066 6.936508,3.2219366 5.647098,-1.058333 C 39.806179,1.0727224 30.814681,4.6652514 30.560385,10.216721 H 30.295801 C 29.927736,8.6750444 30.82974,6.4969874 30.385431,5.2808954 30.0337,4.3182044 28.429147,4.3669494 28.37676,5.4830074 c -0.06594,1.404824 0.860711,3.128103 0.860711,4.7337136 -3.511406,-1.4240406 -0.121997,-4.9903276 -1.335367,-7.0792346 -0.528586,-0.90999 -1.801619,-0.575385 -1.839229,0.466081 -0.06766,1.873561 1.057929,4.232712 1.057929,6.348571 -2.946182,-0.224744 -1.771908,-4.288514 -2.38125,-6.35 1.241688,-0.809697 0.758962,-2.99352706 -0.709432,-2.097684 -0.917209,0.559575 -0.166382,1.637949 0.03613,2.362267 0.481596,1.722473 0.407529,4.028259 0.408716,5.820834 -3.857291,-0.294249 -0.559607,-4.927025 -1.649358,-6.764227 -0.876473,-1.47764 -2.197569,0.169732 -1.514003,1.47256 0.423791,0.807719 0.724508,1.453941 0.771493,2.38125 0.04896,0.966357 0.01062,1.942913 0.01062,2.910417 -3.704276,-0.120608 -1.214199,-3.021973 -2.016633,-4.965629 -0.374694,-0.907584 -1.696077,-0.765433 -1.830032,0.221708 -0.10263,0.756309 0.563673,1.60503 0.680034,2.366546 0.107237,0.701807 0.200408,1.40564 0.256214,2.112791 -1.407416,-0.776075 -0.948537,-2.316339 -1.297191,-3.704166 -0.418414,-1.665508 -1.409891,-3.061651 -2.672581,-4.20475 C 11.70431,-1.6628106 2.4213657,0.27474134 4.3147783,6.2469544 5.6704813,10.523122 10.82049,8.4952834 11.774969,5.1896384 m 5.291667,1.852083 h -0.264583 c -1.560104,-4.114825 -4.874977,-5.81246 -8.9958337,-5.291667 3.9594887,-2.961826 9.1569637,0.891314 9.2604167,5.291667 m 8.202084,-5.291667 -0.264583,0.793751 H 24.739553 L 24.47497,1.7500544 h 0.79375 m -2.910417,1.058334 v 0.79375 h -0.529167 v -0.79375 h 0.529167 m 5.55625,0.264583 v 0.529167 h -0.529166 v -0.529167 h 0.529166 m -8.466667,1.322917 h 0.264584 l 0.264583,0.264583 v 0.529167 c -0.595522,-0.12521 -0.824901,-0.227635 -0.529167,-0.79375 M 38.76247,10.745888 c 2.294152,-4.2816096 -1.217747,-5.7028246 -5.027083,-4.2333326 1.79184,-2.281499 5.075328,-2.34783 6.652146,0.2656 1.050929,1.741827 0.435729,3.7361256 -1.625063,3.9677326 M 29.766637,4.9250554 h 0.264583 l 0.264583,0.264583 v 0.529167 c -0.595522,-0.125211 -0.824909,-0.227611 -0.529166,-0.79375 M 19.447886,12.862555 c 0.09637,11.639584 1.84304,23.298557 2.370838,34.924997 0.05582,1.22971 0.58,3.09788 0.0031,4.22292 -1.356321,2.64487 -3.937175,3.30228 -2.109315,6.625 -4.819207,-0.24734 -8.960686,-5.27867 -9.7673307,-9.78958 -1.476008,-8.25415 0.9417217,-17.063496 3.6214847,-24.870837 1.060206,-3.088854 2.114926,-11.099161 5.881262,-11.1125 m 3.17496,38.629167 -2.381251,-38.629167 c 3.258987,0.07906 2.358723,5.657027 2.60092,8.202084 0.722319,7.590283 1.023754,15.398893 1.357419,23.018753 0.100127,2.28662 0.820734,6.25264 -1.577088,7.40833 m 2.116666,-38.364584 c 1.197012,9.471386 2.180915,20.205084 1.109372,29.629464 -0.102533,0.9018 0.748122,1.53671 0.91502,2.39554 0.292957,1.50753 -0.771941,2.98488 -1.495225,4.22291 H 25.004135 L 23.152051,13.127138 h 1.5875 m 5.027084,35.454164 c -1.252572,-0.88302 -2.537846,-1.99545 -2.344915,-3.68048 0.09621,-0.8403 0.914285,-1.58576 0.533252,-2.43576 -1.390855,-3.10267 -1.151642,-6.87003 -1.38702,-10.287923 -0.430723,-6.254585 -0.51179,-12.554709 -1.299234,-18.785417 3.448627,0.04086 2.420258,5.628896 2.758117,8.202083 1.140749,8.688173 1.715649,18.220097 1.7398,26.987497 m 0,-34.924997 2.910417,37.041667 c -3.435208,-1.8396 -2.362066,-6.08506 -2.690752,-9.525 -0.864442,-9.046993 -1.801174,-18.425886 -1.807165,-27.516667 h 1.5875 m 1.058333,0 c 1.527015,2.401032 1.9046,5.329859 2.998816,7.9375 3.146425,7.498275 6.790768,15.556077 6.790768,23.812497 0,3.60847 -0.331803,9.12387 -3.96875,11.1125 -7.51e-4,-1.13403 0.06317,-2.21373 -0.643905,-3.17398 -0.746377,-1.01362 -2.269039,-1.60935 -2.492104,-2.92287 -1.450727,-8.54265 -1.588154,-17.54947 -2.17934,-26.182313 -0.172923,-2.525097 -2.034155,-8.533766 -0.505485,-10.583334 m 4.233334,1.852083 c 5.010547,11.627763 12.757551,24.184934 9.525001,37.306254 h -0.26458 c 0.86518,-6.72938 -0.12618,-13.91606 -2.99576,-20.10834 -1.742037,-3.759158 -3.383692,-7.513265 -4.891522,-11.37708 -0.652503,-1.672056 -1.634315,-4.009042 -1.373139,-5.820834 m -22.489585,8.202084 -0.264583,0.264583 0.264583,-0.264583 m -0.264583,0.529167 c -2.013919,8.784773 -5.7024017,16.465213 -3.2393087,25.664583 0.685654,2.56084 2.2773357,4.58412 3.5038917,6.87917 -1.930026,-0.94053 -3.2271037,-3.42212 -4.1618777,-5.29167 -3.368751,-6.73749 -1.818829,-14.79108 1.045676,-21.43125 0.8483897,-1.966643 1.3560257,-4.223361 2.8516187,-5.820833 m 15.610417,19.050003 -1.322916,-0.26459 v -0.52916 l 0.264583,-0.26459 1.058333,1.05834 m 6.614584,6.35 c 0.494713,1.49056 2.003616,1.02345 3.175,0.52916 l -0.79375,2.11667 c 1.216988,-0.3186 3.752387,-2.8615 1.287599,-3.42733 -1.203576,-0.2763 -2.413233,0.83579 -3.668849,0.7815 m -16.668751,4.7625 c -0.522008,-0.006 -3.732532,-0.68796 -2.237731,-1.65161 1.265318,-0.8157 4.705717,1.52794 3.825231,-1.78798 -1.875786,1.32688 -4.000159,-1.47137 -5.670576,0.5896 -2.03694,2.51319 2.025058,5.07698 4.083076,2.84999 m 14.552084,0.26458 c -2.631146,0.40605 -2.743421,2.54487 -0.529166,3.70417 v 0.26458 l -6.614584,0.79375 v -0.26458 c 0.617792,-0.48374 1.395692,-1.00499 1.51462,-1.85209 0.255653,-1.82102 -1.857909,-2.05468 -2.837537,-1.05833 l 1.058334,-0.26458 c 0.210129,1.45136 -1.716748,2.45962 -2.192817,0.77803 -0.530213,-1.87284 3.591431,-4.41014 4.574067,-5.80512 1.324346,0.50124 8.283296,3.33528 5.662413,5.60893 -1.360794,1.1805 -1.104842,-1.24165 -0.63533,-1.90476 m 1.5875,5.55625 c -2.543401,3.84249 -6.7053,3.70397 -10.31875,1.32292 l 4.7625,0.2409 5.55625,-1.56382 m 4.497917,9.78959 v 0.26458 c -5.906859,3.72798 -13.743126,3.53859 -20.372917,2.64583 l 7.9375,-0.28724 12.435417,-2.62317"
       id="path2"
       sodipodi:nodetypes="ccsccccsccsscsscccscsscsccsscssccsscssscssscssscccccccccccccccccccccccccccscccccccsccsscccssccsscccccssscscccscccsscsssccccsscccccscsscccccccccsccscsccccccsccscscccccccccc" /></g></svg>
