<?xml version="1.0" encoding="UTF-8" standalone="no"?>
<!-- Created with Inkscape (http://www.inkscape.org/) -->

<svg
   width="210mm"
   height="297mm"
   viewBox="0 0 210 297"
   version="1.1"
   id="svg1"
   xml:space="preserve"
   inkscape:version="1.4.2 (2aeb623e1d, 2025-05-12)"
   sodipodi:docname="Po.svg"
   xmlns:inkscape="http://www.inkscape.org/namespaces/inkscape"
   xmlns:sodipodi="http://sodipodi.sourceforge.net/DTD/sodipodi-0.dtd"
   xmlns="http://www.w3.org/2000/svg"
   xmlns:svg="http://www.w3.org/2000/svg"><sodipodi:namedview
     id="namedview1"
     pagecolor="#ffffff"
     bordercolor="#000000"
     borderopacity="0.25"
     inkscape:showpageshadow="2"
     inkscape:pageopacity="0.0"
     inkscape:pagecheckerboard="0"
     inkscape:deskcolor="#d1d1d1"
     inkscape:document-units="mm"
     inkscape:zoom="1.7481329"
     inkscape:cx="187.62875"
     inkscape:cy="164.46118"
     inkscape:window-width="1920"
     inkscape:window-height="940"
     inkscape:window-x="0"
     inkscape:window-y="0"
     inkscape:window-maximized="1"
     inkscape:current-layer="layer1" /><defs
     id="defs1" /><g
     inkscape:label="Layer 1"
     inkscape:groupmode="layer"
     id="layer1"><path
       style="fill:#060606;stroke:none"
       d="m 17.604452,1.7322956 c -2.080841,0.963668 -1.376834,6.3158996 0.998724,5.3686312 1.975835,-0.7878797 1.16758,-6.37188117 -0.998724,-5.3686312 m 3.702939,2.622966 c -0.22481,0.9412461 -0.19474,2.0467655 -0.76557,2.8616222 -0.640231,0.9139134 -1.689763,1.3582171 -2.142598,2.4339185 -0.573104,1.3613987 -0.629677,4.0355007 -2.620516,4.3270447 -0.985231,0.144282 -1.37186,-1.530963 -1.870662,-2.1034 -1.55666,-1.786463 -3.4031,0.02533 -4.2423171,1.476646 -0.37314,-0.87615 -1.402809,-1.711322 -1.764092,-0.248863 -0.32041,1.297006 0.430408,2.880267 0.439952,4.217613 0.01906,2.670041 -0.764545,5.236212 -0.500179,7.9375 0.209019,2.135771 1.374532,4.167131 1.671817,6.350001 0.114165,0.838288 -0.556886,6.693527 1.3580331,5.533383 0.960216,-0.581739 0.122194,-3.003313 0.117588,-3.945883 -0.0159,-3.25212 -0.01007,-5.030217 3.174798,-6.614584 -0.522348,1.771137 -0.406782,6.439998 0.18333,8.182487 0.731908,2.161181 1.910999,-0.644324 1.933337,-1.567903 h 0.264583 c 0.354985,2.794161 1.878907,4.962839 2.358997,7.672917 0.642221,3.625295 0.02809,7.218422 0.02225,10.847917 -0.0021,1.328722 -0.616572,4.887734 1.333329,5.137734 1.69948,0.2179 2.00432,-2.371769 2.03766,-3.550234 0.12126,-4.285648 -0.285,-8.65196 -0.19599,-12.964584 2.54691,1.081733 5.68375,1.166547 8.20209,0 2.57146,10.770919 1.05833,23.123268 1.05833,34.131248 3.98253,-0.0472 1.88521,-6.03296 1.8531,-8.73125 -0.10148,-8.53 -1.63628,-19.25806 2.64482,-26.987498 1.94645,2.426241 1.5875,5.531421 1.5875,8.466667 0,5.309091 -0.34165,10.953011 0.26458,16.139581 2.84737,-1.95582 1.32292,-7.14095 1.32292,-10.054164 0,-7.146633 0.0766,-13.113675 2.62889,-19.843751 0.70144,-1.849597 0.57446,-4.523166 2.13361,-5.820834 0,1.549228 -0.85227,5.814738 1.5875,5.027084 -0.97854,-4.163974 -0.10575,-8.479142 -0.91563,-12.700001 -0.41845,-2.180842 -1.6423,-3.603002 -2.50149,-5.55625 -1.87777,-4.268845 -3.49078,-6.6087035 -8.48913,-7.1984612 -1.55097,-0.182999 -2.78498,0.4353737 -4.23334,0.8484624 0.61552,-2.5865335 -1.1109,-4.8667156 -3.96875,-4.6265336 -1.51026,0.126931 -2.35062,1.174735 -3.96875,0.922368 m -6.349999,2.6458332 v 1.8520821 c 1.19308,-0.396181 1.193068,-1.4559024 0,-1.8520821 M 4.9309889,12.58021 c -0.966147,0.456319 -1.148246,1.682956 -0.998106,2.622966 0.553023,3.462418 0.607699,6.564934 0.841724,10.049064 0.0473,0.704277 0.574634,1.443694 1.371505,1.116106 1.056016,-0.434122 0.416859,-2.402728 0.344613,-3.227669 -0.263957,-3.013972 0.432237,-5.796037 0.252948,-8.731251 -0.0568,-0.929917 -0.584485,-2.409309 -1.812684,-1.829216 m 34.3680721,5.2688 v 0.79375 h -0.52917 v -0.79375 h 0.52917 m -16.40417,12.700003 v 0.529167 h -0.52916 v -0.529167 h 0.52916 m 1.05834,2.38125 0.26458,3.439584 c -1.03753,-0.789818 -1.01203,-2.452992 -0.26458,-3.439584 m 2.64583,3.439584 -0.79375,-0.529167 0.79375,0.529167 m -16.005862,4.809046 c -1.1693571,0.683122 -0.9822111,5.878558 -0.8129431,7.096999 0.09842,0.70846 0.3448641,2.184613 1.4176461,1.744492 1.778142,-0.72951 0.713829,-5.856281 0.507935,-7.300338 -0.06572,-0.460938 -0.294959,-2.018829 -1.112638,-1.541153"
       id="path2"
       sodipodi:nodetypes="csccsssscsssssscsccscsscccscscssccssscscccccsssssccccccccccccccccccsssc" /></g></svg>
