<?xml version="1.0" encoding="UTF-8" standalone="no"?>
<!-- Created with Inkscape (http://www.inkscape.org/) -->

<svg
   width="210mm"
   height="297mm"
   viewBox="0 0 210 297"
   version="1.1"
   id="svg1"
   xml:space="preserve"
   inkscape:version="1.4.2 (2aeb623e1d, 2025-05-12)"
   sodipodi:docname="Pokojska.svg"
   xmlns:inkscape="http://www.inkscape.org/namespaces/inkscape"
   xmlns:sodipodi="http://sodipodi.sourceforge.net/DTD/sodipodi-0.dtd"
   xmlns="http://www.w3.org/2000/svg"
   xmlns:svg="http://www.w3.org/2000/svg"><sodipodi:namedview
     id="namedview1"
     pagecolor="#ffffff"
     bordercolor="#000000"
     borderopacity="0.25"
     inkscape:showpageshadow="2"
     inkscape:pageopacity="0.0"
     inkscape:pagecheckerboard="0"
     inkscape:deskcolor="#d1d1d1"
     inkscape:document-units="mm"
     inkscape:zoom="3.9532254"
     inkscape:cx="119.90209"
     inkscape:cy="179.4737"
     inkscape:window-width="1920"
     inkscape:window-height="940"
     inkscape:window-x="0"
     inkscape:window-y="0"
     inkscape:window-maximized="1"
     inkscape:current-layer="layer1" /><defs
     id="defs1" /><g
     inkscape:label="Layer 1"
     inkscape:groupmode="layer"
     id="layer1"><path
       style="fill:#0a090a;stroke:none"
       d="m 62.970838,6.0996574 -1.87413,2.6286815 -4.06062,3.1933771 -1.75532,4.756371 -8.184932,6.107469 -4.680432,5.009933 -0.950539,3.439584 -6.010696,7.672917 h -0.264584 l -0.79375,-4.233334 h -0.264583 c -0.717398,4.02207 -5.665352,5.181249 -6.085417,9.260417 -5.135596,-2.167027 -7.598894,3.677126 -12.435417,3.683343 -3.918963,0.005 -5.249741,-3.958423 -8.4666679,-4.477093 l 1.058333,3.704167 -0.79375,0.264583 1.852084,2.38125 -5.820834,-1.5875 c 0.0089,3.221582 1.216774,6.636175 4.233334,8.202084 V 56.37049 L 1.5875,55.841324 c 0.5712791,3.811346 3.9082991,6.8989 7.6729171,7.408333 v 0.264583 l -2.645834,-0.529166 c -0.02936,1.87994 2.915334,2.843689 4.4979179,3.149678 4.382275,0.847324 10.107947,-1.235099 14.022917,1.348239 0.989568,-0.70322 2.773858,-0.666279 3.96875,-0.959317 4.615425,-1.131899 10.377472,-3.181346 9.123431,-9.09485 -0.262323,-1.236989 -0.718125,-2.547003 -1.224312,-3.704167 -0.607731,-1.389289 -1.256545,-2.897207 -2.342868,-3.96875 v -0.264584 l 0.529166,-1.5875 c 3.726138,-0.674967 4.934656,-5.599731 8.995834,-6.614583 v -0.264584 c -1.649189,-0.601065 -2.96714,-0.67315 -4.497917,0.264584 3.053294,-5.484267 7.125736,-11.019184 11.400766,-15.610418 2.05818,-2.210411 4.54755,-4.075268 6.51128,-6.351017 1.40462,-1.627808 2.28546,-3.628162 3.64292,-5.290448 2.98786,-3.658813 7.0397,-4.4575527 8.34295,-9.5251987 -0.91494,-0.6463507 -1.74696,-2.1481729 -2.74505,-2.5380399 -1.73927,-0.679375 -3.6608,2.8113916 -3.86953,4.125539 m -51.32917,16.6687486 -0.529167,0.79375 c 0.941993,1.701559 2.023294,0.438789 2.645834,-0.79375 h -2.116667 m -4.7625009,11.90625 h 2.645833 l -0.529167,-2.645833 c -1.598885,-0.05177 -1.882427,1.268672 -2.116666,2.645833 m 8.5785429,0.805999 c -0.912598,0.609241 -0.155736,2.089238 0.83193,1.539118 1.010714,-0.562958 0.224785,-2.244566 -0.83193,-1.539118 m 18.938125,2.898168 -1.322916,2.910417 0.264583,0.264583 2.910417,-0.529167 -0.264584,1.852084 4.233334,-1.058334 v 0.264584 l -6.35,3.96875 1.058333,-1.5875 -2.645833,1.058333 -0.264584,-1.322917 h -0.264583 l -0.264583,1.322917 h -0.264584 v -2.910417 h -0.264583 l -0.529167,2.116667 c -1.449023,-0.450263 -0.996447,-1.494886 -0.488334,-2.645631 0.932715,-2.112368 2.692278,-2.492839 4.457084,-3.704369 m 6.350001,3.263189 c 0.204622,0 0.04238,0.131726 -0.0882,0.08821 l 0.0882,-0.08821 m -23.812501,2.293061 c -0.436367,-3.226083 -3.610249,-0.04278 0,0 m 9.789583,0.79375 v 0.529167 l -4.497916,0.79375 v 0.264583 c 1.584141,0.344456 3.575044,-0.61528 4.497916,1.058334 l -5.291666,0.79375 v 0.264583 l 5.820833,-0.415454 3.704167,1.738371 0.79375,3.704166 h 0.264583 l 0.264584,-2.116666 h 0.264583 l 2.38125,3.175 -0.79375,-2.38125 h 0.264583 c 1.189547,2.315201 3.443355,4.968737 2.645834,7.672917 h -0.264584 l -1.058333,-3.175 c -0.08357,1.594024 0.214308,3.057258 -1.058333,4.233333 1.05925,-2.906347 0.250315,-4.990732 -1.852084,-7.14375 v 4.7625 H 32.543752 L 32.014585,56.37049 c -0.08728,4.228772 -2.848041,6.947461 -7.14375,7.14375 v -0.264583 l 3.704167,-2.910417 c -4.143667,1.410953 -8.572382,3.869096 -12.700001,0.79375 l 8.995834,-0.264583 c -2.405918,-0.469497 -6.381616,0.436068 -7.9375,-2.116667 3.70019,0.04859 6.768321,1.650352 10.31875,-0.404626 2.059859,-1.19224 3.735649,-5.800793 0,-5.680791 1.488027,3.717999 -2.696375,4.719908 -5.291667,5.291667 1.20153,-1.633217 4.123856,-1.141887 4.233334,-3.704167 h -0.264584 c -0.995603,1.831284 -2.789025,2.45057 -4.7625,2.645834 l 2.38125,-2.910417 -1.852083,0.529167 c 1.057647,-1.267123 2.599034,-1.85952 4.233333,-1.5875 -2.59016,-2.396156 -6.201535,3.187903 -8.995833,3.439583 v -0.264583 c 3.975149,-1.888838 6.451831,-7.325546 11.377083,-5.027084 -2.175259,-4.15795 -7.876501,1.395111 -9.525,3.439584 -1.228074,-0.10492 -2.235325,0.405894 -3.439583,0.504467 C 11.479561,55.339335 4.6649711,54.248769 4.2333331,49.491323 l 5.027084,1.058334 v 0.79375 l 6.6145839,0.744956 6.350001,-1.80329 c -1.669174,-1.160499 -2.808259,0.145171 -4.497917,0.698617 -1.779708,0.582935 -3.50751,0.659327 -5.291667,0.09513 1.412991,-0.752538 3.063003,-0.857667 4.497917,-1.676916 2.802122,-1.599854 6.193953,-5.725579 9.789583,-4.673084 M 8.7312501,44.993403 c 2.9332639,2.931314 5.0161759,3.424355 8.9958349,2.910417 -1.432314,1.972344 -4.636317,2.53158 -6.879168,2.116667 L 8.7312501,44.993403 m 19.8437519,0 -0.79375,1.322917 h -0.264584 l 0.529167,-1.322917 h 0.529167 m 1.058333,0.264584 -0.529167,2.910417 h -0.264583 c -0.181037,-1.158328 -0.02313,-2.049278 0.79375,-2.910417 m 7.9375,0.264583 -0.264583,0.264583 0.264583,-0.264583 m -6.35,0.79375 -0.264583,2.38125 C 30.029928,48.096476 30.19268,47.314951 30.427085,46.31632 h 0.79375 m 1.058334,0.79375 0.79375,0.529167 v 0.264583 l -0.529167,1.5875 h -0.264583 v -2.38125 m 2.116666,1.322917 -1.058333,1.322917 0.264583,-1.5875 0.79375,0.264583 m 12.700001,6.879167 -0.529167,-1.322917 c -1.234485,0.685133 -0.823609,1.631038 0.529167,1.322917 m -30.162501,3.175 -6.614585,0.529167 c 0.975095,-1.380133 5.276553,-1.443275 6.614585,-0.529167 m 17.197917,4.76248 -2.910417,1.852084 v -0.264561 l 2.910417,-1.5875 m -15.081251,0.529167 v 0.264583 c -1.770454,0.575886 -6.996642,2.12395 -8.202084,0.264584 l 8.202084,-0.529167"
       id="path1"
       sodipodi:nodetypes="ccccccccccccccccccccccccscsssccccccssscsccccccccccsccccccccccccccccccsccccccccccccccccccccccccccccccccccccsccccccccccccscccccscsccccccccccccccccccccccccccccccccccccccccccccc" /></g></svg>
