<?xml version="1.0" encoding="UTF-8" standalone="no"?>
<!-- Created with Inkscape (http://www.inkscape.org/) -->

<svg
   width="210mm"
   height="297mm"
   viewBox="0 0 210 297"
   version="1.1"
   id="svg1"
   xml:space="preserve"
   inkscape:version="1.4.2 (2aeb623e1d, 2025-05-12)"
   sodipodi:docname="Profesor.svg"
   xmlns:inkscape="http://www.inkscape.org/namespaces/inkscape"
   xmlns:sodipodi="http://sodipodi.sourceforge.net/DTD/sodipodi-0.dtd"
   xmlns="http://www.w3.org/2000/svg"
   xmlns:svg="http://www.w3.org/2000/svg"><sodipodi:namedview
     id="namedview1"
     pagecolor="#ffffff"
     bordercolor="#000000"
     borderopacity="0.25"
     inkscape:showpageshadow="2"
     inkscape:pageopacity="0.0"
     inkscape:pagecheckerboard="0"
     inkscape:deskcolor="#d1d1d1"
     inkscape:document-units="mm"
     inkscape:zoom="1.1655535"
     inkscape:cx="339.75273"
     inkscape:cy="252.66964"
     inkscape:window-width="1920"
     inkscape:window-height="940"
     inkscape:window-x="0"
     inkscape:window-y="0"
     inkscape:window-maximized="1"
     inkscape:current-layer="layer1" /><defs
     id="defs1" /><g
     inkscape:label="Layer 1"
     inkscape:groupmode="layer"
     id="layer1"><path
       style="fill:#080808;stroke:none"
       d="M 23.27444,15.085629 C 17.403492,14.833513 9.3232964,13.105089 5.2827734,18.789796 11.682887,15.619422 15.831192,16.044808 22.745273,16.937712 22.043172,25.834255 21.3307,36.326832 24.06819,44.983547 l -5.556048,-4.422582 -1.760826,-2.192204 1.760624,-2.910214 -3.175,2.116666 C 14.344207,35.651324 12.021,33.933858 11.57255,31.75438 10.989042,28.918506 13.199037,26.861663 10.7151,24.1276 7.3684624,20.443967 -1.0888146,22.827025 0.11666144,28.507719 c 0.97084096,4.575003 3.98519596,4.002283 7.13047796,5.861052 2.248656,1.328884 4.0813886,3.557438 6.2377166,5.058526 V 39.69188 C 7.6323314,43.814933 0.04739344,55.841412 8.9869394,60.616427 c 1.1048426,0.590145 2.4740776,0.95624 3.7041666,1.177553 7.26154,1.306437 14.796647,-1.517067 21.431251,-4.086952 2.173398,-0.841858 4.590789,-2.437416 6.879164,-2.819983 2.72934,-0.456287 5.92667,1.874595 8.73125,2.002752 -0.30537,3.50208 -1.79917,7.505251 -3.90546,10.318549 -1.09833,1.46701 -2.73861,2.69895 -4.53242,1.52727 -1.968325,-1.285667 -1.06331,-4.721156 -3.207865,-6.450847 -3.55091,-2.863989 -9.089086,-0.732546 -9.729769,3.865445 -0.379402,2.722862 1.554072,5.647462 4.1776,6.405732 1.213625,0.35078 2.535771,-0.007 3.704167,0.50937 2.816297,1.245713 5.483907,3.187643 8.731247,2.015203 6.16519,-2.225923 7.29283,-11.802053 7.40834,-17.396972 5.26978,1.269157 11.95255,2.590443 17.19791,0.678407 4.10359,-1.495831 6.69758,-4.693343 5.44295,-9.145074 -0.9441,-3.349876 -3.1174,-6.469534 -5.46663,-8.995833 -0.93184,-1.002071 -3.51707,-2.638042 -3.7895,-3.992433 -0.22369,-1.112077 1.37034,-2.754451 1.87862,-3.680484 0.81763,-1.489662 1.20461,-3.347495 2.1575,-4.734934 1.27009,-1.84929 2.90989,-2.545016 3.17051,-5.05465 0.44479,-4.283161 -2.89176,-6.177239 -6.56845,-6.662352 -5.74158,-0.75756 -12.09805,-1.329231 -17.72708,0.576935 -0.90853,-5.279652 -3.95959,-12.4737304 -8.73125,-15.3262374 -8.686736,-5.192941 -16.498643,5.75279 -16.668751,13.7387374 m 23.018751,2.116667 -7.14375,3.064146 -3.968751,-1.391315 -7.9375,-2.731165 c 0.467866,-1.624077 1.341549,-3.117994 2.307551,-4.497916 1.358581,-1.9407254 3.464654,-4.5739874 5.894533,-5.1769294 5.512357,-1.367811 9.719867,6.5238914 10.847917,10.7331794 m 16.66875,16.933334 -8.46667,-5.410281 -3.66067,-2.56152 -1.89558,-8.167783 c 3.24409,-0.83933 6.50225,-1.499731 9.78959,-0.519574 0.91502,0.272827 2.44638,0.634223 2.84672,1.627718 0.60965,1.512877 -0.77485,3.385235 0.0792,5.241856 0.66615,1.448135 2.41878,2.173083 2.99596,3.538802 0.7286,1.724007 -0.97044,4.735273 -1.68856,6.250782 m 3.1699,-16.497258 c 2.89362,0.147028 -0.20371,4.343009 -2.10646,4.182901 -2.76915,-0.233013 0.10326,-4.284687 2.10646,-4.182901 m -29.099067,4.061841 -8.995834,6.35 c 2.412599,-1.343184 4.737724,-2.866799 7.14375,-4.233334 0.976515,-0.554625 2.25887,-1.508499 3.439584,-1.363337 2.634757,0.323922 5.690607,2.428962 7.937497,3.741519 0.89707,0.524032 2.09548,0.94274 2.64236,1.88292 1.52355,2.619244 1.05294,7.342834 1.40193,10.290982 0.25993,2.195853 1.15794,7.039324 -0.23518,8.91622 -0.81685,1.100482 -2.4057,1.846383 -3.54452,2.570087 -1.55772,0.989903 -3.69334,2.709759 -5.55625,2.951249 -3.095188,0.401235 -7.601793,-2.244808 -10.318754,-3.531664 -1.837699,-0.870401 -5.326492,-2.204791 -6.346528,-4.038158 -1.089008,-1.957334 -0.797222,-5.477985 -0.797222,-7.661484 0,-6.676353 0.229213,-13.532225 2.645833,-19.843751 l 10.583334,3.968751 m 10.054167,-2.910417 1.5875,6.35 c -2.52352,-0.726974 -5.91444,-2.292488 -7.9375,-3.96875 l 6.35,-2.38125 M 5.0181794,23.419794 c 3.180955,-0.873194 3.557741,2.369987 0.529167,3.146223 -3.16626,0.811522 -3.390021,-2.360902 -0.529167,-3.146223 m 46.3020816,5.688752 c 2.47093,1.613742 4.8368,3.342997 7.14375,5.185916 0.77146,0.616274 2.23549,1.426237 2.41249,2.490877 0.16054,0.965615 -0.91183,1.975219 -1.47011,2.641958 -1.88657,2.2531 -4.11603,4.734062 -6.76321,6.085417 l -0.76027,-10.847918 -0.56265,-5.55625 m -13.75833,2.768937 c -7.813453,1.381109 -5.541531,13.159081 2.11667,11.693117 7.39824,-1.416205 5.31994,-13.007612 -2.11667,-11.693117 m 0.01551,1.314551 c 1.057271,-0.316857 2.74389,-0.19897 3.57391,0.587141 0.80928,0.766475 0.69957,2.021801 -0.42994,2.358384 -1.876582,0.559195 -6.022893,-2.082722 -3.14397,-2.945525 m 15.06575,21.84568 0.27193,-6.834047 3.69682,-3.018009 6.35,-6.287528 c 4.3364,2.039075 8.11496,10.929275 3.4355,14.383457 -3.65282,2.696347 -9.49857,2.293966 -13.75425,1.756127 m -13.49375,-1.322917 c -1.398942,1.353131 -3.747822,1.820965 -5.556251,2.441679 -5.957356,2.044772 -18.120349,4.818069 -22.585331,-1.384363 -2.4145966,-3.354188 -0.484232,-7.998745 1.435814,-11.111483 0.484531,-0.78551 1.34666,-2.787637 2.391662,-2.880404 1.767714,-0.156919 5.075611,3.246306 6.587022,4.186381 5.210203,3.240645 11.579877,7.655799 17.727084,8.74819 m -14.816668,-6.35 v 0.79375 h 0.264584 l -0.264584,-0.79375 m 26.458338,2.116667 -0.52917,5.291667 -6.61458,-1.058334 c 1.18061,-1.788699 5.16154,-3.403684 7.14375,-4.233333 M 33.0628,62.313554 c 3.034715,-0.328258 0.529046,4.277113 -1.835345,4.270282 -2.564156,-0.0074 0.08327,-4.080767 1.835345,-4.270282"
       id="path2"
       sodipodi:nodetypes="ccccccccssssccscsscssssscscsssssssscscccccsscccccssssccscccssssssssssscccccccsccsssccccsccsscccccsccsssssccccccccccsc" /></g></svg>
