<?xml version="1.0" encoding="UTF-8" standalone="no"?>
<!-- Created with Inkscape (http://www.inkscape.org/) -->

<svg
   width="210mm"
   height="297mm"
   viewBox="0 0 210 297"
   version="1.1"
   id="svg1"
   xml:space="preserve"
   inkscape:version="1.4.2 (2aeb623e1d, 2025-05-12)"
   sodipodi:docname="Pukka.svg"
   xmlns:inkscape="http://www.inkscape.org/namespaces/inkscape"
   xmlns:sodipodi="http://sodipodi.sourceforge.net/DTD/sodipodi-0.dtd"
   xmlns="http://www.w3.org/2000/svg"
   xmlns:svg="http://www.w3.org/2000/svg"><sodipodi:namedview
     id="namedview1"
     pagecolor="#ffffff"
     bordercolor="#000000"
     borderopacity="0.25"
     inkscape:showpageshadow="2"
     inkscape:pageopacity="0.0"
     inkscape:pagecheckerboard="0"
     inkscape:deskcolor="#d1d1d1"
     inkscape:document-units="mm"
     inkscape:zoom="0.99867569"
     inkscape:cx="207.2745"
     inkscape:cy="329.93694"
     inkscape:window-width="1920"
     inkscape:window-height="940"
     inkscape:window-x="0"
     inkscape:window-y="0"
     inkscape:window-maximized="1"
     inkscape:current-layer="layer1" /><defs
     id="defs1" /><g
     inkscape:label="Layer 1"
     inkscape:groupmode="layer"
     id="layer1"><path
       style="fill:#0a0a0a;stroke:none"
       d="m 23.812937,15.279364 c 4.019712,4.892338 1.135185,11.877724 -1.587501,16.668751 -5.7569,10.130253 -14.6054444,27.392483 -0.79375,35.684663 6.312854,3.79006 12.794803,0.36517 18.256251,-3.26912 12.804532,-8.520723 17.237657,-22.125279 23.489937,-35.32596 0.78463,-1.656633 1.7287,-3.484808 3.23686,-4.593873 1.57463,-1.157948 3.56697,-1.39197 4.43748,-3.343829 2.42535,-5.438073 0.74394,-14.4835143 -4.70594,-17.4874083 -6.68219,-3.68312491 -7.94257,7.9395653 -9.43416,12.1959433 -3.899905,11.128738 -8.584478,22.541196 -16.118144,31.750001 -2.631941,3.217165 -5.768725,7.695122 -10.241986,8.303959 -7.166319,0.975387 -6.580041,-7.478646 -5.351281,-12.008126 2.107325,-7.768046 9.303107,-15.36237 9.305739,-23.547917 C 34.307642,16.670655 32.245073,12.7195 29.962456,9.9887153 28.106433,7.7682847 25.671492,6.1083577 22.754603,5.7437557 19.56995,5.3456857 17.743224,7.6473707 14.862017,8.1058042 12.379634,8.5007819 12.380515,4.2647927 10.586627,4.9967487 9.0246936,5.6340567 7.9240546,8.3290462 7.1472446,9.7231143 4.8267086,13.887557 2.5759995,19.163284 2.6474925,24.010615 c 0.0168,1.138763 0.212261,3.963954 1.0195441,4.803946 1.9823,2.062616 3.829686,-1.800237 5.065669,-2.872451 C 13.302483,21.977833 20.482398,20.58928 23.812937,15.279364 M 69.056684,9.7231143 c -1.7329,1.6970057 -0.0823,4.5932757 -1.28535,6.6145837 -1.10286,1.853036 -2.93915,3.042046 -3.93486,5.027083 -7.07791,14.11038 -10.102018,30.262802 -23.354787,40.510857 -6.053119,4.68073 -12.94877,7.00615 -19.579167,2.02398 -1.246408,-0.93657 -2.748161,-1.87171 -3.348528,-3.3767 -0.893704,-2.24034 -0.804158,-5.307852 -0.575308,-7.672719 0.331859,-3.429313 1.306457,-7.001713 2.910211,-10.054167 1.460751,-2.780273 3.776275,-5.769763 3.924042,-8.995834 h -0.264584 l -5.291667,9.260417 h -0.264583 c 2.312629,-8.455387 9.46355,-14.99965 10.050287,-24.073208 0.246796,-3.816547 -0.710228,-9.4183847 -5.816954,-8.205959 0.633481,-1.0841797 1.498879,-1.0564687 2.645834,-0.7937497 -1.439774,-1.7283261 -3.786078,-0.7210237 -5.55625,0.08268 -4.582089,2.08038 -7.51145,6.113056 -11.1125024,9.442318 -0.271119,-2.355024 2.6952454,-5.780494 4.2439534,-7.408334 5.999048,-6.3055893 15.330956,-7.0817853 19.035301,2.116667 5.254823,13.048534 -10.607585,24.547582 -8.915194,37.570835 0.578033,4.448081 4.500359,5.539834 8.390109,5.068124 5.8541,-0.709944 11.866815,-5.448059 14.552084,-10.624374 l -2.910417,2.116666 4.018771,-6.879167 7.887479,-15.08125 h 0.26458 l -3.174996,9.260417 c 5.429766,-5.952746 5.972446,-14.895377 8.400106,-22.225001 1.00968,-3.048417 2.04303,-7.0178523 5.88739,-5.8208323 l -2.91041,-2.38125 c 1.95263,-2.673859 5.59523,2.7963735 6.08541,4.4979156 M 10.848352,7.3418637 11.891986,9.9876963 10.341846,12.104362 5.5566846,17.131446 C 6.0457576,13.81977 7.8865606,9.1360766 10.848352,7.3418637 m 12.700001,5.5562483 c -2.324394,4.984354 -8.674652,7.313669 -12.964585,10.191562 -1.8255794,1.224683 -3.3230414,3.177915 -5.2916674,4.095939 0.769695,-4.470133 3.928435,-7.051242 6.7668844,-10.318751 1.355922,-1.560886 3.566253,-3.999626 5.667513,-4.529358 1.409156,-0.355252 4.19712,0.560608 5.821855,0.560608 m 0.264584,20.637503 0.264583,0.264583 -0.264583,-0.264583 m 27.516667,2.116667 -0.264583,0.79375 0.264583,-0.79375 m -5.820833,10.31875 0.264583,0.264584 -0.264583,-0.264584"
       id="path1"
       sodipodi:nodetypes="cssssssssssscssssssssccccsssssccccsccscssssccccccscccccccccscsscccccccccc" /></g></svg>
