<?xml version="1.0" encoding="UTF-8" standalone="no"?>
<!-- Created with Inkscape (http://www.inkscape.org/) -->

<svg
   width="210mm"
   height="297mm"
   viewBox="0 0 210 297"
   version="1.1"
   id="svg1"
   xml:space="preserve"
   inkscape:version="1.4.2 (2aeb623e1d, 2025-05-12)"
   sodipodi:docname="NajemnyRvac.svg"
   xmlns:inkscape="http://www.inkscape.org/namespaces/inkscape"
   xmlns:sodipodi="http://sodipodi.sourceforge.net/DTD/sodipodi-0.dtd"
   xmlns="http://www.w3.org/2000/svg"
   xmlns:svg="http://www.w3.org/2000/svg"><sodipodi:namedview
     id="namedview1"
     pagecolor="#ffffff"
     bordercolor="#000000"
     borderopacity="0.25"
     inkscape:showpageshadow="2"
     inkscape:pageopacity="0.0"
     inkscape:pagecheckerboard="0"
     inkscape:deskcolor="#d1d1d1"
     inkscape:document-units="mm"
     inkscape:zoom="0.58867119"
     inkscape:cx="295.58097"
     inkscape:cy="315.11649"
     inkscape:window-width="1920"
     inkscape:window-height="940"
     inkscape:window-x="0"
     inkscape:window-y="0"
     inkscape:window-maximized="1"
     inkscape:current-layer="layer1" /><defs
     id="defs1" /><g
     inkscape:label="Layer 1"
     inkscape:groupmode="layer"
     id="layer1"><path
       style="fill:#080808;stroke:none"
       d="m 15.593955,13.009367 c 1.491608,-0.526316 0.806144,-2.155295 0.09289,-3.1749997 C 14.383628,7.9712232 12.562582,7.0205948 10.302286,7.3900325 0.65737683,8.9664616 1.2963778,22.118372 9.2439516,25.444785 v 0.26458 c -1.7486756,0.50724 -3.9396976,1.2771 -4.4979156,3.175 3.42622,-1.08837 6.992519,-0.90192 10.318752,0.52917 l -2.116668,1.5875 h 11.377085 l -1.322917,2.38125 c 1.649674,-0.37728 3.126796,-1.35515 4.7625,-1.84086 3.310235,-0.98293 6.632865,-1.39182 9.525001,-3.45081 l -4.7625,5.82084 c 4.360146,-0.77483 8.622637,-3.97114 12.435417,-6.08542 l -2.645834,5.29167 c 6.802169,-0.88968 13.609801,-9.914063 13.493751,-16.404171 l -2.416362,3.704167 -4.198222,4.497914 c 0.234825,-3.824276 4.510049,-5.738334 5.556251,-8.995831 -2.502109,0.07953 -4.048393,2.231614 -5.600143,3.96875 -2.33609,2.615175 -4.492624,4.962241 -7.629025,6.614581 0.825467,-2.887539 2.489262,-5.991234 4.543853,-8.191665 1.228744,-1.315965 3.096686,-2.087744 3.922814,-3.714583 -5.109741,0.910854 -7.50234,6.064096 -10.706029,9.448438 -1.919977,2.02825 -4.242506,2.81816 -6.756471,3.78073 l 5.207147,-7.672918 2.994936,-3.439583 c -3.615303,0.187949 -5.542915,4.206664 -7.718852,6.613562 -2.281761,2.523949 -5.897258,4.382589 -9.214482,5.028109 v -0.26459 c 2.746078,-1.40183 7.351914,-5.173204 8.202084,-8.202081 -5.07163,2.146793 -8.018802,7.143101 -14.022917,7.143751 v -0.26458 c 4.864819,-1.40147 7.305227,-5.830398 11.1125,-8.731254 v -0.264584 c -3.052228,0.331165 -5.69227,3.111014 -8.202083,4.685943 -2.65061,1.663285 -6.241593,2.124595 -9.260418,1.231865 C 9.3599136,23.019787 6.885505,21.328046 5.966467,19.094784 4.581293,15.728807 6.435654,10.534728 10.302286,9.8343673 6.166096,16.100894 15.13678,19.467799 19.939573,19.013119 30.235261,18.038429 37.538433,8.8456199 47.608539,7.7636375 c 1.998296,-0.214708 3.962573,9.85e-4 5.820834,0.7725134 0.851228,0.353418 1.721221,1.2456034 2.645833,1.3335344 1.283736,0.122085 3.165561,-1.4967831 4.497917,-1.8461561 2.813007,-0.7376244 5.781237,-0.1408267 8.466667,0.8157927 7.406849,2.6384931 13.494109,8.5771891 21.431249,9.9153421 2.90163,0.489198 6.32473,0.655177 8.995837,-0.811304 2.773644,-1.522767 4.692454,-5.263777 2.645844,-8.1089927 7.73076,1.9540147 5.06834,12.1489637 -1.32293,13.8626557 -7.567731,2.029142 -10.680061,-4.43383 -17.197921,-5.925156 2.17273,3.658999 6.69402,7.799168 10.84792,8.995838 v 0.26458 c -3.87673,-4.2e-4 -7.00944,-2.09789 -10.05417,-4.359909 -1.28859,-0.957334 -2.40183,-2.344205 -3.96875,-2.783842 1.50079,3.544567 5.37112,6.051901 8.20209,8.466671 -3.37832,-0.69917 -6.81377,-2.51781 -9.18386,-5.05077 -2.29398,-2.451631 -4.26562,-6.500701 -8.014059,-6.590901 v 0.264583 c 3.729479,2.683226 5.494749,7.148948 8.466669,10.583338 -8.17756,-0.71396 -9.619691,-11.566538 -17.462503,-12.964588 l 4.713505,4.7625 4.017746,7.408338 c -3.500231,-2.1075 -5.804023,-4.66549 -8.511787,-7.672921 -1.308552,-1.453367 -2.881042,-3.285604 -4.981964,-3.175 1.515218,3.253847 4.884198,5.214047 5.556251,8.995831 l -4.205768,-4.497914 -2.408816,-3.704167 c 0,6.397817 6.674286,15.664261 13.49375,16.404171 l -2.645833,-5.29167 11.641669,5.82083 -3.96875,-5.55625 c 3.80466,2.70864 9.82358,4.00619 14.2875,5.29167 l -1.32292,-2.38125 h 7.9375 5.027091 l -3.704171,-1.5875 v -0.26458 l 5.556261,-1.03465 4.49793,0.2409 c -1.18459,-1.5019 -2.57302,-2.336 -4.49793,-2.38125 3.3853,-2.829887 5.34612,-2.648577 6.61459,-7.937504 0,-3.168065 -0.72562,-6.40326 -3.1997,-8.6450954 C 102.1852,5.6434677 96.784149,7.3424908 95.762709,12.744784 l 1.05833,0.264583 c 0.46708,-1.958908 3.160524,-3.8215204 4.080831,-1.057106 1.29114,3.87822 -4.895301,5.263261 -7.520411,4.95032 C 85.603879,15.975401 79.174349,9.5479103 71.950209,6.7812441 68.089291,5.3026127 64.587817,4.5767373 60.573123,5.4734437 59.142477,5.7929894 57.463046,7.4914965 56.085618,7.4263755 55.252223,7.3869755 54.442344,6.4376041 53.690076,6.0975414 52.095721,5.3768167 49.64015,4.7075513 47.883329,4.82178 41.139098,5.2603027 34.763138,9.4470606 29.087705,12.705179 c -3.417286,1.961774 -6.756984,4.179735 -10.847917,4.258646 -2.634753,0.05082 -8.5565187,-1.754334 -6.493726,-5.526447 1.207365,-2.2078344 3.517369,-0.06145 3.847893,1.571989 m 25.929167,13.493748 -0.264583,0.26459 0.264583,-0.26459"
       id="path1"
       sodipodi:nodetypes="csscccccccsccccccccscscscccscccccccssscsssssssscscccsccsccccccsccccccccccccccccccsccsssssssssscccc" /></g></svg>
