<?xml version="1.0" encoding="UTF-8" standalone="no"?>
<!-- Created with Inkscape (http://www.inkscape.org/) -->

<svg
   width="210mm"
   height="297mm"
   viewBox="0 0 210 297"
   version="1.1"
   id="svg1"
   xml:space="preserve"
   inkscape:version="1.4.2 (2aeb623e1d, 2025-05-12)"
   sodipodi:docname="Sabalot.svg"
   xmlns:inkscape="http://www.inkscape.org/namespaces/inkscape"
   xmlns:sodipodi="http://sodipodi.sourceforge.net/DTD/sodipodi-0.dtd"
   xmlns="http://www.w3.org/2000/svg"
   xmlns:svg="http://www.w3.org/2000/svg"><sodipodi:namedview
     id="namedview1"
     pagecolor="#ffffff"
     bordercolor="#000000"
     borderopacity="0.25"
     inkscape:showpageshadow="2"
     inkscape:pageopacity="0.0"
     inkscape:pagecheckerboard="0"
     inkscape:deskcolor="#d1d1d1"
     inkscape:document-units="mm"
     inkscape:zoom="1.0765177"
     inkscape:cx="394.79147"
     inkscape:cy="330.23145"
     inkscape:window-width="1920"
     inkscape:window-height="940"
     inkscape:window-x="0"
     inkscape:window-y="0"
     inkscape:window-maximized="1"
     inkscape:current-layer="layer1" /><defs
     id="defs1" /><g
     inkscape:label="Layer 1"
     inkscape:groupmode="layer"
     id="layer1"><path
       style="fill:#080808;stroke:none"
       d="m 6.4447026,17.218688 0.264584,-3.439583 c -1.545101,1.137664 -3.520223,7.059776 -3.380174,8.995833 0.106692,1.47491 1.166222,2.761016 1.185724,4.233334 0.02426,1.831429 -1.393126,2.314692 -0.451384,4.233333 l -1.852083,-0.529166 2.38125,2.645833 -1.5875,-0.529167 c -0.20522,1.619596 0.811966,2.668107 2.38125,2.910417 v 0.264583 c -0.616205,0.05659 -2.557035,-0.421833 -2.555394,0.572244 0.0028,1.704757 2.734566,3.450169 3.639045,4.723299 3.2414797,4.562674 5.7146524,10.912888 9.7881484,14.736228 3.86021,3.62316 9.260425,4.14327 14.263617,4.61939 4.525757,0.43069 8.955025,0.95329 13.49375,0.40872 2.491297,-0.29892 4.95473,-1.29415 7.40833,-1.48726 3.78064,-0.29755 5.76494,4.34979 9.78939,2.11708 3.59439,-1.99413 1.18264,-4.56328 2.21078,-7.43345 0.47564,-1.32781 1.5099,-2.39076 2.04153,-3.704167 1.93414,-4.778358 3.46617,-9.770609 7.65414,-13.229167 v -0.79375 l -3.43959,0.264583 2.91042,-2.645833 -1.85208,0.264583 1.5875,-2.645833 -1.32292,0.264583 0.64492,-3.704167 1.27883,-2.941043 -0.56613,-2.615207 -1.88679,-8.202083 h -0.26458 v 2.645833 c -2.20674,-1.255188 -1.34878,-3.247484 -2.57744,-4.971757 -3.14788,-4.4176475 -10.11316,-12.15954434 -16.47154,-9.1124034 -1.23454,0.591631 -1.75477,1.765566 -2.64685,2.707078 l 1.32291,-2.910417 c -3.938693,-2.28757797 -6.131171,1.775126 -10.054163,2.091967 -3.335767,0.269412 -6.522031,-1.475652 -9.789584,-0.97729 -4.181286,0.637728 -8.359729,3.9942736 -12.435417,5.322704 -1.709372,0.5571527 -4.432805,0.2269077 -5.8094,1.3196464 -2.0824597,1.653056 -3.3811998,4.603256 -5.3030994,6.530472 m 57.6791634,24.341668 -0.26458,-1.058334 1.5875,-2.116667 c -0.824,0.544509 -1.6084,1.146612 -2.38125,1.763483 -0.45674,0.364569 -0.88083,0.760508 -1.32292,1.141621 -1.06666,0.919574 -2.56272,1.112142 -2.16198,-0.788639 0.58505,-2.775065 2.46678,-5.270503 2.16198,-8.201881 h -0.52916 c -0.86747,4.191625 -3.76004,9.274757 -7.67292,11.333594 -2.20518,1.160298 -4.88785,1.360625 -7.14375,2.459443 -2.278066,1.109623 -4.023317,3.16825 -6.35,4.140244 -2.132125,0.890716 -5.197842,0.411748 -7.408334,-0.01083 -2.722201,-0.52039 -4.395125,-2.109683 -5.80246,-4.428703 -0.771206,-1.270804 -1.240004,-2.835906 0.24621,-3.704167 v -0.264583 c -3.979118,1.879044 0.817881,5.441997 1.852084,7.672917 -2.804513,0.871668 -3.520546,-4.056511 -5.188367,-5.736722 -0.844187,-0.850457 -2.476121,-0.809471 -3.542884,-1.407028 v -0.529167 h 3.439584 v -0.264581 c -0.722566,-0.206642 -4.77246,-2.461769 -4.518741,-0.513446 0.175215,1.345485 2.077296,2.214319 2.666657,3.423862 l -1.322916,-0.79375 0.529166,3.175 c -1.283283,-0.438345 -2.43698,-2.534551 -1.058333,-3.439583 v -0.264583 h -1.058333 l 1.525028,5.291667 0.06247,4.497913 c -1.404525,-0.91056 -0.618135,-3.28841 -0.930737,-4.762497 -0.753879,-3.554951 -2.310676,-7.690842 -3.56718,-11.1125 h -0.529167 l -0.79375,6.35 H 14.3822 c -0.509401,-2.427501 -2.041353,-3.320494 -4.233334,-4.233334 v -0.264583 c 0.847889,0.01806 2.487066,0.710365 3.21379,0.381566 1.173709,-0.531048 1.410964,-3.514878 1.617715,-4.614899 0.889743,-4.733909 0.989329,-9.21168 0.989329,-14.022918 1.548678,0.735195 2.179235,-0.175958 3.439583,-1.058333 -0.911205,3.16301 -2.756283,5.783554 -2.304692,9.260417 0.322958,2.486468 0.988445,5.344006 2.473323,7.408132 3.985993,5.540933 10.971347,4.07501 15.441787,0.264785 l -6.614584,2.38125 c 4.504211,-4.928389 11.380867,-6.531683 15.480774,-12.170834 2.233908,-3.072592 4.367415,-7.299425 4.843555,-11.1125 0.3167,-2.536288 -0.3315,-5.226966 0.43056,-7.6729158 0.79611,-2.5552536 3.88142,-4.1495126 6.4972,-3.8787196 3.12335,0.323341 5.77064,3.0831212 7.50326,5.4662187 4.25736,5.8557147 7.40419,14.3620117 6.50536,21.6958337 -0.34334,2.80146 -2.60486,9.449747 -5.54196,10.318751 M 43.221784,7.1645228 l 0.79375,3.1749982 c 0.390238,-1.1527634 0.21621,-3.6189549 1.599136,-4.0581734 1.945276,-0.617824 2.717516,3.3278727 2.852846,4.5873404 0.17008,1.58293 0.48744,4.763097 -0.86153,5.925979 -0.663402,0.571888 -1.75459,0.530676 -2.532118,0.930935 -0.790488,0.406927 -1.682634,1.349958 -2.606641,1.390701 -1.228687,0.05418 -0.832943,-2.477263 -0.832943,-3.220532 0,-2.744551 -0.855608,-6.8755164 1.5875,-8.7312482 M 29.992617,13.514521 h -0.264581 l 0.264583,-1.852083 c -1.316397,1.387488 -0.429758,5.498114 -2.177096,6.179734 -1.406406,0.548626 -3.179425,-0.939921 -3.529004,-2.211186 -0.660703,-2.402696 0.147278,-5.572407 1.82432,-7.3793448 1.535932,-1.6548971 4.542459,-0.5629667 5.120383,1.5862801 0.375664,1.3970557 -0.598841,2.5467347 -1.238603,3.6765997 m 7.14375,-2.910417 c 0.860712,-2.4549518 2.368969,-2.8188915 3.132949,0 0.490094,1.808345 1.105722,7.036425 -0.0053,8.643264 -0.885092,1.280065 -2.947656,-0.449529 -3.921386,-0.789261 -1.238272,-0.432031 -2.570026,-0.242847 -3.329137,-1.519513 -1.241684,-2.088261 -0.855576,-5.7018 0.48466,-7.6469894 0.52106,-0.7562607 1.896635,-2.3093868 2.949413,-1.5454481 0.655677,0.4757867 0.550967,2.1154468 0.688814,2.8579475 m -16.404167,6.350001 0.264583,-1.322917 c -0.745501,1.04103 -2.303921,4.788169 -3.693754,4.828242 -0.873365,0.02518 -1.182668,-1.272257 -1.353338,-1.917825 -0.534495,-2.021768 -0.492359,-4.753611 1.093857,-6.274254 0.727677,-0.697592 1.633731,-1.548743 2.630319,-1.81289 4.274335,-1.1329004 3.197301,4.906774 1.058333,6.499644 m 38.100001,-6.614584 3.01229,9.525 0.69187,7.408334 c 2.77131,-4.626268 0.41654,-13.772117 -3.70416,-16.933334 m -44.714585,3.704167 c 0.713604,2.963014 0.253114,3.974216 -0.965239,6.614583 -0.341581,0.740257 -0.587549,2.213028 -1.657118,2.213028 -2.6831841,0 -1.4995327,-6.023478 -0.817226,-7.240111 h 0.264583 v 1.852083 c 0.933789,-1.682261 0.979648,-3.090622 3.175,-3.439583 m 54.504165,4.233333 1.5875,2.116667 c -0.90375,-0.431829 -1.73111,-1.039496 -1.5875,-2.116667 M 6.9738828,19.599938 4.5926326,21.716605 c 0.362831,-1.225612 1.249181,-1.641736 2.3812502,-2.116667 m 2.3812358,15.875001 -2.3812488,0.79375 c 0.7271117,-0.823642 1.3075784,-1.05277 2.3812488,-0.79375 m -3.704166,0 -0.264583,0.264583 0.264583,-0.264583 m 29.3687504,0.79375 0.264583,0.264583 -0.264583,-0.264583 m -25.9291674,0.79375 -1.5874991,0.79375 1.0583324,0.529166 C 6.5283986,39.741628 6.1992516,36.430468 9.0905356,37.062439 m 59.5312504,0 0.52917,0.79375 -0.52917,-0.79375 m -0.79375,1.852083 0.52917,1.058334 h -1.05834 l 0.52917,-1.058334 m -57.679168,1.5875 c 0.233792,1.601114 -1.1262794,1.68948 -2.3812485,1.322917 v -0.529167 l 2.3812485,-0.79375 m 2.910417,2.116667 -2.38125,1.058333 c -0.225548,-1.562251 1.502771,-2.630443 2.38125,-1.058333 m 48.947921,3.175 c -1.06362,1.228607 -0.54682,2.762889 -0.26459,4.233334 0.30221,1.574483 0.05,3.214753 0.40464,4.762503 0.291,1.27016 1.07251,2.34124 0.85785,3.70396 -0.58885,3.73817 -7.19236,4.363 -8.13166,0.52549 -0.44137,-1.80326 2.41351,-3.27801 3.31588,-4.49424 1.07802,-1.45297 0.90746,-3.31707 0.90746,-5.02688 h 0.26458 l 0.26459,4.23333 c 2.33828,-1.28938 0.32983,-4.697837 0,-6.61458 1.04754,0 2.08147,-4.867355 3.43958,-5.423959 0.93631,-0.38373 1.83339,1.580128 2.02847,2.248959 0.40653,1.393826 0.9133,4.274061 -0.70555,5.159375 -2.17808,1.191142 -2.61203,-2.05451 -2.38125,-3.307292 M 16.498868,43.147856 c 0.603077,1.033254 1.139308,2.108503 1.682432,3.175 0.349781,0.686844 0.60767,1.342642 0.673913,2.116667 0.07242,0.846242 0.343584,2.963793 -0.807836,3.219503 -0.959232,0.21304 -1.806935,-0.946241 -2.351855,-1.557492 -1.696594,-1.903114 -1.658333,-5.69132 0.803346,-6.953678 m 3.615974,0.352772 0.176386,0.08821 -0.176386,-0.08821 m 36.381034,0.15557 c 1.13371,-0.189176 1.52699,2.203879 1.70794,2.931241 0.64769,2.603475 1.27251,7.754967 -2.28203,8.379287 -5.55734,0.97609 -2.1078,-5.652709 -1.17062,-8.114704 0.29227,-0.767782 0.7664,-3.032583 1.74471,-3.195824 m -33.117841,0.02082 c 0.646953,1.677078 1.19377,3.494958 2.150757,5.027084 0.832807,1.333308 2.503607,2.973724 2.217113,4.727184 -0.396544,2.42703 -5.311195,1.53318 -6.288142,0.0249 -1.527115,-2.35764 0.25011,-7.392556 1.126522,-9.779168 h 0.79375 m -9.789583,0.529167 c -1.999947,2.622926 -3.39121,-1.000423 0,0 m 38.364584,5.027088 c -0.002,2.546113 -0.66682,5.170443 -3.175,6.350003 l 0.52917,-1.5875 h -0.26459 c -0.51373,1.3113 -1.25954,1.89587 -2.64583,2.11666 0.286304,-3.27921 2.17744,-6.227637 5.55625,-6.879163 m 2.11667,0.264583 0.26458,0.264583 -0.26458,-0.264583 m -22.225004,6.35 0.264584,1.05833 c -1.517959,-0.9574 -3.001412,-2.46321 -3.532472,-4.23333 -0.268399,-0.89462 -0.224542,-2.58232 1.156325,-2.041542 1.788634,0.700482 3.770603,2.633502 4.466071,4.422792 0.894511,2.30138 -1.252701,1.80927 -2.354508,0.79375 m 11.377084,1.32292 0.264584,-0.79375 c -2.738294,2.12974 -3.115694,-0.12299 -1.904963,-2.64094 0.548666,-1.14105 2.95007,-2.663754 4.247019,-2.699112 1.077946,-0.02939 0.79849,1.526542 0.630824,2.165052 -0.449746,1.71272 -1.471438,3.47162 -3.237464,3.96875 m -3.704167,0.52916 -1.5875,-0.52916 0.264584,0.79375 c -1.859141,-0.88463 -3.310647,-2.21877 -3.889742,-4.23334 -0.164053,-0.5707 -0.552708,-1.61497 0.08166,-2.0446 0.615381,-0.41678 1.609135,0.084 2.220581,0.27969 2.70927,0.86695 3.585496,2.89023 2.910416,5.73366 m -24.870834,-5.82083 c 2.236358,3.14667 4.609813,5.11899 8.202084,6.61458 v 0.26459 c -2.803479,-0.37937 -8.819654,-3.33479 -8.202084,-6.87917 m 42.068752,6.35 c 0.32525,4.30227 6.27796,2.38137 5.02708,-1.85208 -2.0337,0.69136 -2.69073,2.41374 -5.02708,1.85208 m -19.050001,-1.32292 0.264583,0.26459 -0.264583,-0.26459 m 7.9375,3.175 v 0.26459 l -12.964584,0.26458 4.497917,-0.26458 8.466667,-0.26459"
       id="path1"
       sodipodi:nodetypes="ccssccccccssssssssscccccccccccccssccssssccccsssccssssscccsccccsccccccccsccccccssccssccsssssscccssssssccccssssccsssssscccssssccccccssccccccccccccccccccccccccccccccccccccccscsssccccsssccsssscccccsssccssscccccccccccccccssscccsssccccssccccccccccccccccc" /></g></svg>
