<?xml version="1.0" encoding="UTF-8" standalone="no"?>
<!-- Created with Inkscape (http://www.inkscape.org/) -->

<svg
   width="210mm"
   height="297mm"
   viewBox="0 0 210 297"
   version="1.1"
   id="svg1"
   xml:space="preserve"
   inkscape:version="1.4.2 (2aeb623e1d, 2025-05-12)"
   sodipodi:docname="Sasek.svg"
   xmlns:inkscape="http://www.inkscape.org/namespaces/inkscape"
   xmlns:sodipodi="http://sodipodi.sourceforge.net/DTD/sodipodi-0.dtd"
   xmlns="http://www.w3.org/2000/svg"
   xmlns:svg="http://www.w3.org/2000/svg"><sodipodi:namedview
     id="namedview1"
     pagecolor="#ffffff"
     bordercolor="#000000"
     borderopacity="0.25"
     inkscape:showpageshadow="2"
     inkscape:pageopacity="0.0"
     inkscape:pagecheckerboard="0"
     inkscape:deskcolor="#d1d1d1"
     inkscape:document-units="mm"
     inkscape:zoom="1.3571951"
     inkscape:cx="223.25456"
     inkscape:cy="270.77904"
     inkscape:window-width="1920"
     inkscape:window-height="940"
     inkscape:window-x="0"
     inkscape:window-y="0"
     inkscape:window-maximized="1"
     inkscape:current-layer="layer1" /><defs
     id="defs1" /><g
     inkscape:label="Layer 1"
     inkscape:groupmode="layer"
     id="layer1"><path
       style="fill:#070707;stroke:none"
       d="m 42.615718,7.9159949 c 5.14456,3.7890861 5.29697,14.7693511 1.93068,19.8437511 -1.39537,2.103425 -3.60098,3.431105 -5.63484,4.81395 -1.14401,0.77782 -3.9533,3.644602 -5.26779,3.638215 -0.94132,-0.0046 -2.20048,-1.959829 -2.93818,-2.532315 -4.50311,-3.494602 -6.629963,-10.57605 0.26847,-12.534434 0.0127,1.510115 0.29865,2.926429 1.11488,4.229248 3.54836,5.663721 11.60632,0.192737 9.26613,-5.552164 -1.91555,-4.702451 -5.42749,-2.13733 -8.79351,-2.787718 C 28.559738,16.261287 25.220803,15.13382 21.18447,16.90285 14.055055,20.027498 11.406727,30.812297 14.305303,37.54933 6.5717321,35.252312 8.9743666,23.371545 9.8073863,17.705579 11.4467,17.701079 13.189701,17.560562 14.52089,16.478409 19.304283,12.589894 14.61855,3.8683499 8.7490529,6.7749789 2.1648257,10.035553 7.5116535,14.782138 5.7263547,19.557662 c -3.206896,8.578159 -5.49290994,18.318311 -1.219616,26.987501 1.9789854,4.014742 5.1278056,6.725559 7.5741033,10.318751 0.796508,1.169938 -0.124916,2.776671 0.796608,3.855037 1.174465,1.374359 3.920978,1.51678 5.396603,2.80854 5.829449,5.10311 10.367405,10.24893 18.785415,10.24893 3.86639,0 8.13103,-1.30981 11.37688,-3.41059 0.90914,-0.58841 1.5012,-1.58507 2.42637,-2.12136 1.85952,-1.07789 4.54725,-1.08875 6.56967,-1.96784 5.50872,-2.39449 10.9289,-7.678989 12.48054,-13.646051 0.79986,-3.076007 1.21974,-6.11723 0.62695,-9.260417 -0.30908,-1.63889 -1.32182,-3.402098 -1.41764,-5.027083 -0.0896,-1.519045 1.30126,-2.960115 1.49032,-4.497917 0.49219,-4.00339 -3.11124,-7.329535 -7.09475,-6.434314 -4.75933,1.069573 -5.89764,7.212553 -2.37064,10.346511 1.13596,1.009365 3.98351,1.181286 4.40319,2.717696 2.49935,9.149845 -9.30598,10.42744 -14.99714,8.186774 2.09016,-3.057283 4.15132,-5.713863 5.44091,-9.260417 3.66369,-10.075605 1.13829,-21.537624 -5.35231,-29.8979177 -2.50131,-3.2218564 -4.90788,-4.0497614 -8.28026,-5.8632974 -1.38711,-0.745925 -2.10887,-1.9414351 -3.71459,-2.3785931 -2.838,-0.77264397 -6.04232,0.696275 -6.77974,3.7439731 -1.75463,7.2516901 9.37247,10.5072651 10.74849,2.910417 m -9.78958,0.264583 h -0.52917 c -0.90301,-3.837378 2.86653,-8.34712406 6.87897,-6.2330171 4.67997,2.4658221 2.40644,10.9877342 -3.1748,9.5250002 -2.77012,-0.725997 -2.88317,-3.5069001 -0.52815,-4.9168431 1.08423,-0.649121 2.04794,-0.08586 3.16969,-0.321541 0.54748,-0.115028 1.1733,-0.51271 1.24391,-1.121217 0.13049,-1.124447 -1.37611,-1.931067 -2.28754,-1.473577 -1.79883,0.902916 -3.96258,2.700118 -4.77291,4.541195 m 9.78958,-3.175 c 4.2638,0.09978 6.4702,3.840867 8.78311,6.8791671 4.98865,6.553234 6.89002,17.531481 4.52017,25.400001 -0.79,2.622983 -1.75904,5.410684 -3.8234,7.32218 -0.74843,0.693013 -2.0447,1.759897 -3.12988,1.720405 -1.37446,-0.05002 -2.78201,-1.640242 -3.96875,-2.260392 -2.66791,-1.394165 -10.05361,-1.065641 -10.46002,-4.957671 -0.16771,-1.60606 2.78616,-3.733255 3.84544,-4.69002 3.70761,-3.348803 6.97868,-5.654331 8.59528,-10.60457 1.31773,-4.035041 0.93829,-9.467381 -0.99484,-13.252849 -1.01536,-1.9882841 -3.24031,-3.2415991 -3.36711,-5.5562511 M 6.6323881,8.9743279 H 7.1615538 C 7.3024608,9.7005123 6.5356641,12.195393 7.9591832,11.982333 10.382444,11.619629 6.8364248,7.3483619 10.601136,6.9246229 15.592538,6.3628199 17.543873,13.395522 13.510531,15.921684 11.189678,17.375278 11.084306,14.872903 9.5150383,14.052862 8.6118079,13.580863 7.8068875,14.273836 6.9114648,14.051062 4.6558497,13.489784 5.9352044,10.212892 6.6323881,8.9743689 M 10.336552,35.697287 C 7.7578275,35.613397 7.0798248,33.173442 6.8969708,30.934787 H 6.3678041 c -0.1344147,3.130558 -0.4710017,5.410337 -1.8520824,8.202084 l 3.4395815,0.880514 3.4395828,2.029902 c -1.325505,-1.86331 -2.0643804,-3.74663 -0.79375,-5.820833 h 0.264583 c 3.919981,3.884925 8.698428,3.384677 13.758334,4.355213 2.985165,0.572583 5.287335,1.702299 7.937505,3.05312 -0.88951,3.087667 -3.24222,5.485373 -4.3742,8.466667 -1.283,3.379026 -0.56128,7.169153 0.93461,10.318747 -2.62267,-0.38736 -4.982127,-1.760169 -7.408332,-2.750806 -2.813438,-1.148743 -5.932051,-2.09321 -8.466667,-3.797459 C 6.2473744,51.165473 3.1928047,43.544983 3.1928047,35.432663 c 0,-5.513319 1.302638,-10.68789 3.1390684,-15.875001 0.325909,-0.920543 1.2897504,-4.948697 2.8593765,-4.186784 1.2032574,0.584073 -0.4464717,4.036777 -0.6722777,4.980534 -1.3426371,5.611593 0.8761457,10.064478 1.8175801,15.345834 M 50.024058,16.911829 c -0.21945,1.994088 0.16005,3.502467 -2.11667,4.233333 1.20771,2.400185 2.82813,3.361698 2.11667,6.350001 l 4.49791,-6.085417 v -0.264584 l -4.49791,-4.233333 m -8.73125,6.085417 c -1.55588,0.179713 -2.77463,-2.547721 -4.11451,-1.204094 -2.47348,2.480372 3.58282,1.550124 2.71544,3.577786 -0.86325,2.017997 -4.5422,2.055753 -5.95272,0.727612 -1.26138,-1.18771 -1.11488,-2.842801 -1.11488,-4.424221 3.0574,-0.48701 0.96594,-2.459209 2.47598,-3.741729 1.65539,-1.405971 4.61219,-0.04776 5.45417,1.625264 0.5005,0.994481 0.27794,2.353313 0.53652,3.439382 m -19.843755,-2.38125 2.645833,1.5875 v 0.264583 c -1.224259,0.912226 -1.65067,1.952384 -1.852083,3.439583 l -2.910417,-2.645833 v -0.529167 l 1.5875,-2.116666 h 0.529167 m 41.804165,7.408333 c -0.50303,1.881685 -3.11588,5.748672 -1.21941,7.210712 1.01907,0.785627 2.60942,-0.15037 2.64257,-1.39008 0.0282,-1.055136 -1.05134,-1.825422 -1.09835,-2.910215 -0.12423,-2.866669 3.09308,-3.275777 4.86274,-1.680388 2.6179,2.360103 1.11817,7.268306 -1.74796,8.6208 -1.58398,0.747463 -3.59743,0.140067 -5.01647,-0.752514 -3.81879,-2.402042 -2.10966,-7.727872 1.57688,-9.098315 m -39.952082,1.5875 c 1.701294,2.4096 3.361782,3.099843 5.820832,4.497917 -0.8977,1.633823 -0.57043,2.543837 0,4.233334 -3.05867,-1.284572 -5.030085,-2.38125 -8.466665,-2.38125 l 1.856779,-2.798134 0.789054,-3.551867 m 16.404172,4.497917 c 0.72183,3.390265 -1.5472,3.921967 -2.91042,6.614584 4.21651,-0.794445 7.40977,-1.499336 11.64167,-0.529167 l -0.60471,-4.497917 1.13387,-5.291667 c -3.46346,1.61283 -5.1152,3.703715 -9.26041,3.704167 m -7.0823,6.509648 c 1.60118,-0.73431 4.79915,0.818878 2.30428,2.137289 -1.56901,0.829132 -4.21986,-1.258797 -2.30428,-2.137289 M 18.274053,41.51808 c -0.881931,3.040431 -2.380487,3.570599 -5.291667,2.645833 1.67388,3.587039 5.982431,3.452454 9.260417,4.511393 1.40901,0.455173 2.546203,1.420012 3.968755,1.838607 -0.62606,-1.723489 -1.913474,-3.862345 -0.20416,-5.445598 0.9826,-0.910135 2.35908,-1.050541 3.11457,-2.227319 -4.269731,0 -7.045927,1.021232 -10.847915,-1.322916 m 19.314585,2.910417 9.78958,2.910416 v 0.264584 c -3.27836,1.706711 -1.82012,4.280496 0.52917,6.085417 v 0.264583 l -12.7,-2.38125 v -0.264584 c 1.5451,-1.022725 3.01555,-2.193858 2.83447,-4.223942 -0.0842,-0.944484 -0.7069,-1.727746 -0.45322,-2.655224 m 24.60625,8.202083 v 0.264584 c -2.37936,1.132166 -4.28682,3.278829 -5.55625,5.55625 h -0.26458 c -0.80127,-2.291398 -2.65033,-3.330716 -5.02709,-3.439584 l 4.23334,-2.695443 2.91041,0.532841 3.70417,-0.218648 m -14.2875,15.610421 c -3.3659,7.0152 -15.94586,4.82436 -19.31458,-1.05834 2.40153,0.98526 4.49466,2.07756 7.14375,1.5875 v -0.26458 l -3.70417,-2.91042 8.46667,2.30183 7.40833,0.34401"
       id="path2"
       sodipodi:nodetypes="csssscssssccsssssssssssssssssscssssscccssssssccssssssssscccssssccccccccccscscssssssccccccccssscssccccccccccssssssccccccccccccccscccscscccccccccccccccccccccccccc" /></g></svg>
