<?xml version="1.0" encoding="UTF-8" standalone="no"?>
<!-- Created with Inkscape (http://www.inkscape.org/) -->

<svg
   width="210mm"
   height="297mm"
   viewBox="0 0 210 297"
   version="1.1"
   id="svg1"
   xml:space="preserve"
   inkscape:version="1.4.2 (2aeb623e1d, 2025-05-12)"
   sodipodi:docname="Soudce.svg"
   xmlns:inkscape="http://www.inkscape.org/namespaces/inkscape"
   xmlns:sodipodi="http://sodipodi.sourceforge.net/DTD/sodipodi-0.dtd"
   xmlns="http://www.w3.org/2000/svg"
   xmlns:svg="http://www.w3.org/2000/svg"><sodipodi:namedview
     id="namedview1"
     pagecolor="#ffffff"
     bordercolor="#000000"
     borderopacity="0.25"
     inkscape:showpageshadow="2"
     inkscape:pageopacity="0.0"
     inkscape:pagecheckerboard="0"
     inkscape:deskcolor="#d1d1d1"
     inkscape:document-units="mm"
     inkscape:zoom="0.94810451"
     inkscape:cx="369.68498"
     inkscape:cy="355.44605"
     inkscape:window-width="1920"
     inkscape:window-height="1043"
     inkscape:window-x="0"
     inkscape:window-y="0"
     inkscape:window-maximized="1"
     inkscape:current-layer="layer1"
     showgrid="false" /><defs
     id="defs1" /><g
     inkscape:label="Layer 1"
     inkscape:groupmode="layer"
     id="layer1"><path
       style="fill:#080808;stroke:none"
       d="m 12.884664,3.6505263 c -2.019947,0.06577 -1.716723,1.275262 -2.9363435,2.493534 -2.916319,2.913089 -5.123185,6.1615417 -6.108485,10.2025907 -0.395321,1.62134 -1.737588,1.983027 -0.744755,3.708043 -3.15141803,-0.58262 -4.03838803,1.630682 -2.000298,3.958334 2.228377,2.544967 5.420023,4.353279 8.614882,5.389053 2.5175905,0.816205 4.6211325,-0.816181 2.9104165,-3.26197 1.755339,0.269113 2.766433,-0.620505 2.116666,-2.381251 l 4.233334,-0.883578 3.704167,1.148162 0.79375,1.5875 c 0,-1.430355 0.594037,-4.57477 -0.529167,-5.55625 l 0.529167,-1.058334 -1.058334,0.529167 V 18.20261 l -1.058333,0.529167 2.116667,-0.264583 -1.852084,-5.820834 c 2.034413,-0.06679 2.525044,-2.6888377 1.69223,-4.4140147 -0.311766,-0.645826 -1.25411,-0.737762 -1.768993,-1.201437 -2.044078,-1.840763 -4.291131,-3.288672 -6.273237,-5.232465 l 5.026062,1.756337 3.176022,2.74158 C 23.366474,3.1934973 16.620135,-0.21122875 13.678616,0.01026125 11.393028,0.18235925 12.022911,2.3843083 12.884664,3.6505263 m 7.408334,6.3500007 c -3.095887,-1.0541747 -5.71306,-2.6210367 -7.937501,-5.0270837 2.107103,-0.09454 6.607377,3.421844 7.937501,5.0270837 m 3.439583,-4.4979167 0.79375,2.645833 -0.79375,-0.264583 V 10.26511 c 3.58175,-0.08663 2.462786,-3.5889037 0,-4.7624997 M 13.149247,19.525527 h -0.264583 l 2.910417,-6.614584 -4.497917,6.350001 1.322917,-3.439584 h -0.264584 l -2.3812495,3.439584 1.8520835,-4.762501 h -0.264584 l -2.3812495,4.233334 h -0.264583 l 2.9104165,-7.14375 -3.4395835,5.55625 H 8.1221645 L 11.297164,9.2067773 8.1221645,15.292193 H 7.8575805 L 10.238831,9.4713603 H 9.9742475 L 7.8575805,13.44011 h -0.264583 l 1.5875,-3.7041667 -0.79375,0.5291667 c 2.1264645,-4.5594197 6.5606865,-0.7747427 7.5587965,2.645833 0.581493,1.992805 -1.819931,4.943352 -2.796297,6.614584 M 9.4450815,9.2067773 l -0.264584,0.529166 0.264584,-0.529166 m 0.7937495,0 0.264583,0.264583 -0.264583,-0.264583 m 1.5875,1.8520827 0.264583,0.264583 -0.264583,-0.264583 m 1.5875,0 -0.529167,1.322917 h 0.264583 l 0.264584,-1.322917 m -0.79375,1.5875 -0.264584,0.79375 h 0.264584 v -0.79375 m -0.705557,1.499303 0.0882,0.176394 -0.0882,-0.176394 m 9.436807,0.881947 c -2.020609,0.461212 -3.613208,2.792344 -3.96875,4.7625 -0.768392,-1.893053 2.255277,-7.101327 3.96875,-4.7625 m -5.027084,-0.264583 v 1.852083 l -0.529166,-0.264583 v 0.264583 c 0.002,1.479852 -1.120931,3.204141 -2.38125,3.96875 l 2.910416,-5.820833 m -3.615973,0.705553 0.0882,0.176394 -0.0882,-0.176394 m 2.55764,1.675697 -0.79375,1.5875 0.79375,-1.5875 m 8.466667,0.79375 c 0.288686,2.122957 -0.912501,5.980433 0.271935,7.816028 1.36205,2.110853 4.901562,3.665184 6.871815,5.224092 5.72144,4.526924 11.62389,8.848047 17.4625,13.221007 2.10341,1.57539 5.59091,5.27161 8.46667,4.88866 2.94358,-0.39198 8.08042,-7.949555 5.47214,-10.673565 -1.4511,-1.515492 -4.40912,-2.368125 -6.26589,-3.356086 -5.33834,-2.840444 -10.7336,-5.613619 -16.13959,-8.323555 -5.51042,-2.762292 -10.695476,-6.292058 -16.13958,-8.796581 m -19.8437505,0.529167 7.9375005,5.820833 v 0.264584 C 9.4308015,23.911952 3.6342315,21.568119 3.8888305,18.467194 m 17.4625005,0.264583 -0.264583,0.264583 0.264583,-0.264583 m -7.14375,0.264583 0.264583,0.264584 -0.264583,-0.264584 m -8.2020835,0.529167 7.4083335,4.233333 v 0.264584 C 10.502518,23.33194 8.1240575,21.501989 5.7409145,19.79011 l 0.264583,-0.264583 m 16.4041665,0 -0.529166,0.529167 0.529166,-0.529167 m -9.525,0.264583 -0.264583,0.264584 0.264583,-0.264584 m 14.552084,0.264584 -1.852084,2.116666 0.264584,-1.058333 -1.058334,0.264583 c 0.734056,-1.00815 1.373059,-1.603204 2.645834,-1.322916 m -4.497917,0 -0.529167,1.058333 h -0.264583 l 0.79375,-1.058333 m 36.5125,18.25625 v 0.529167 c -2.54781,1.004219 -3.07386,2.378473 -4.49792,4.497913 l 1.32292,-4.497913 -12.17083,-6.35 v -0.264584 h 1.32291 v -0.264583 c -4.27604,-1.710425 -8.15456,-4.614528 -12.17083,-6.84242 -2.706658,-1.501435 -4.142923,-3.050339 -6.879166,-1.359664 1.554249,-3.776974 6.317952,0.347226 8.731246,1.395595 8.44293,3.667735 16.05263,9.235193 24.34167,13.156489 m -47.625,-11.377083 v 0.264583 l -0.529167,0.264583 0.79375,1.058334 C 8.5436215,28.212037 5.1389405,26.130873 3.0950805,23.229694 c 3.067243,-0.109021 5.167422,3.895055 8.7312505,3.704167 m 0.529166,-2.293053 c 0.204619,0 0.04238,0.13171 -0.08819,0.08819 l 0.08819,-0.08819 m 49.741664,14.72847 -0.52916,2.645833 -0.52917,-0.529167 h -0.26458 l -0.52917,0.529167 0.52917,-1.5875 c -1.75147,1.564504 -3.08383,3.552773 -3.70417,5.820833 l 1.85208,-0.79375 -2.91041,2.38125 c -0.80113,-3.74517 2.37304,-8.213024 6.08541,-8.466666"
       id="path2"
       sodipodi:nodetypes="csscssccccccccccccsscccsccccccccccccccccccccccccccccccccscccccccccccccccccccccccccccccccccccccssssssscccccccccccccccccccccccccccccccccccccccscscccccccccccccccccccc" /></g></svg>
