<?xml version="1.0" encoding="UTF-8" standalone="no"?>
<!-- Created with Inkscape (http://www.inkscape.org/) -->

<svg
   width="210mm"
   height="297mm"
   viewBox="0 0 210 297"
   version="1.1"
   id="svg1"
   xml:space="preserve"
   inkscape:version="1.4.2 (2aeb623e1d, 2025-05-12)"
   sodipodi:docname="Strujce.svg"
   xmlns:inkscape="http://www.inkscape.org/namespaces/inkscape"
   xmlns:sodipodi="http://sodipodi.sourceforge.net/DTD/sodipodi-0.dtd"
   xmlns="http://www.w3.org/2000/svg"
   xmlns:svg="http://www.w3.org/2000/svg"><sodipodi:namedview
     id="namedview1"
     pagecolor="#ffffff"
     bordercolor="#000000"
     borderopacity="0.25"
     inkscape:showpageshadow="2"
     inkscape:pageopacity="0.0"
     inkscape:pagecheckerboard="0"
     inkscape:deskcolor="#d1d1d1"
     inkscape:document-units="mm"
     inkscape:zoom="0.94810451"
     inkscape:cx="369.68498"
     inkscape:cy="355.44605"
     inkscape:window-width="1920"
     inkscape:window-height="1043"
     inkscape:window-x="0"
     inkscape:window-y="0"
     inkscape:window-maximized="1"
     inkscape:current-layer="layer1"
     showgrid="false" /><defs
     id="defs1" /><g
     inkscape:label="Layer 1"
     inkscape:groupmode="layer"
     id="layer1"><path
       style="fill:#050505;stroke:none"
       d="m 0,44.480786 c 6.97885,4.896754 13.15122,10.970284 20.0967,15.936444 1.22064,0.87279 3.07843,5.2436 2.3396,6.74423 -0.40979,0.83234 -1.8106,1.04309 -2.59255,1.35885 -2.16202,0.87304 -8.4763,1.98148 -9.26042,4.27089 h 18.52084 l 9.26041,-0.26458 v -0.52917 c -3.6225,-1.90881 -8.66032,-3.81125 -12.7,-4.49791 0.58072,-1.7847 0.83003,-4.23468 1.85352,-5.79695 1.00098,-1.52794 3.08568,-2.63928 4.49648,-3.78012 3.03698,-2.45582 6.03105,-5.00089 8.99584,-7.54531 1.83047,-1.57094 5.9324,-3.64144 6.81526,-5.940266 0.68297,-1.778315 -2.74103,-2.555545 -3.90485,-2.462302 -2.55808,0.204946 -4.95332,2.581513 -7.67291,2.955739 -1.1537,0.158752 -2.90435,-0.05643 -3.07884,-1.511964 -0.33281,-2.776017 1.89636,-7.07523 2.61418,-9.785498 1.93816,-7.317835 3.77242,-14.668525 5.83309,-21.960417 0.6908,-2.444457 1.12662,-5.023305 1.98988,-7.408334 C 43.99379,3.193358 44.63465,1.458734 43.9145,0.38069903 43.02541,-0.95024397 40.60199,1.598244 39.6875,2.078245 35.54941,4.250263 30.84535,5.108325 26.19375,5.312036 21.24084,5.528939 15.5633,5.290086 10.84792,3.643694 9.47189,3.163249 6.03045,0.17889403 4.81231,0.66774503 3.80436,1.072243 4.4098,2.492602 4.63062,3.205785 c 0.80916,2.613374 1.50234,5.292983 2.20751,7.9375 1.97008,7.388212 3.63112,14.919754 5.86881,22.225203 0.82136,2.681514 3.20531,7.835463 2.5509,10.571497 -0.46345,1.937648 -3.01481,1.54854 -4.40992,1.130607 C 7.94154,44.199909 1.55769,39.294814 0,44.480786 M 41.80417,1.882868 c -0.23155,2.834953 -1.67891,5.504025 -2.5113,8.202084 -2.16781,7.026663 -5.41257,14.70201 -6.48454,21.960417 h -0.26458 l 2.14361,-9.525 3.94181,-17.991667 C 31.81552,8.402545 23.25065,6.797636 15.875,6.645368 c 1.60283,-0.672568 3.61316,-0.13863 5.29167,-0.02368 2.59997,0.17805 5.35071,-0.03549 7.9375,-0.285819 4.96433,-0.480421 8.27343,-2.750293 12.7,-4.452999 m -9.26042,30.427085 v 0.79375 h -0.26458 l 0.26458,-0.79375 m 13.75833,11.112498 v 0.529167 c -8.54794,4.98821 -17.11161,9.48921 -27.25208,7.78806 -2.71324,-0.45517 -7.556,-1.18776 -8.99583,-3.81931 4.24171,1.04543 7.98207,2.69779 12.43541,2.64482 4.04066,-0.0481 7.90832,-1.91622 11.90625,-0.79274 0.72993,-2.05378 -0.4322,-2.55435 -1.32291,-4.23333 4.83946,1.13882 8.89799,-3.967684 13.22916,-2.116667 M 5.55625,43.687036 3.43958,44.216203 4.7625,45.274537 v 0.264583 l -3.175,-2.116667 c 1.4193,-0.449916 2.82214,-0.906275 3.96875,0.264583 M 23.54792,70.14537 15.875,70.93912 c 2.08676,-1.56131 6.02121,-3.66555 7.67292,-0.79375"
       id="path2"
       sodipodi:nodetypes="cssscccccssssssssssssssssssssccscccccsscccccccscccccccccccccc" /></g></svg>
