<?xml version="1.0" encoding="UTF-8" standalone="no"?>
<!-- Created with Inkscape (http://www.inkscape.org/) -->

<svg
   width="210mm"
   height="297mm"
   viewBox="0 0 210 297"
   version="1.1"
   id="svg1"
   xml:space="preserve"
   inkscape:version="1.4.2 (2aeb623e1d, 2025-05-12)"
   sodipodi:docname="Ucen.svg"
   xmlns:inkscape="http://www.inkscape.org/namespaces/inkscape"
   xmlns:sodipodi="http://sodipodi.sourceforge.net/DTD/sodipodi-0.dtd"
   xmlns="http://www.w3.org/2000/svg"
   xmlns:svg="http://www.w3.org/2000/svg"><sodipodi:namedview
     id="namedview1"
     pagecolor="#ffffff"
     bordercolor="#000000"
     borderopacity="0.25"
     inkscape:showpageshadow="2"
     inkscape:pageopacity="0.0"
     inkscape:pagecheckerboard="0"
     inkscape:deskcolor="#d1d1d1"
     inkscape:document-units="mm"
     inkscape:zoom="2.061412"
     inkscape:cx="69.61248"
     inkscape:cy="28.621159"
     inkscape:window-width="1920"
     inkscape:window-height="1043"
     inkscape:window-x="0"
     inkscape:window-y="0"
     inkscape:window-maximized="1"
     inkscape:current-layer="layer1"
     showgrid="false" /><defs
     id="defs1" /><g
     inkscape:label="Layer 1"
     inkscape:groupmode="layer"
     id="layer1"><path
       id="path2"
       style="fill:#0b0a0b;stroke:none"
       d="M 15.699817 0.0020670573 C 15.457768 -0.0072762669 15.218781 0.018160363 14.987716 0.085266113 C 13.001915 0.66198312 10.435208 4.677831 9.1219238 6.2481974 C 7.6231698 8.0403425 6.1751177 9.8872951 4.8870402 11.826668 L 5.7035278 11.010697 C 6.5438558 13.679067 8.7282805 11.496851 9.4076945 9.9523641 C 8.4164475 10.931794 7.6948325 11.777745 6.2326945 11.539864 C 7.1613525 8.1797979 11.040452 4.8501887 13.641028 2.6603027 C 14.589004 1.8620317 16.932566 0.14281316 17.827852 2.1244181 C 18.366078 3.3157141 15.693212 5.2771158 14.963944 5.9732788 C 14.290382 6.6162626 13.431596 7.6521972 12.494845 8.7328003 C 14.366346 6.7771757 16.539468 4.9154346 18.403528 3.6023641 L 18.668111 7.3065308 L 18.403528 7.3065308 L 18.138944 5.1898641 L 17.874361 5.1898641 C 18.195332 7.7295675 17.714326 8.6561329 16.286861 10.746114 C 15.279929 10.458922 14.190138 9.8023327 13.111861 10.040214 C 9.12196 10.920441 8.9931 14.962144 10.730611 17.625281 C 10.090134 17.611991 9.2511237 17.185942 8.6377157 17.403589 C 7.7287957 17.72609 6.9787206 19.016345 6.4078776 19.741947 C 4.4814226 22.190675 3.0665235 24.215769 3.0576945 27.414864 L 2.7931112 27.414864 C 2.1302222 23.844248 4.2657135 21.817442 6.0704305 18.948197 C 7.4064655 16.824093 8.1784799 14.355543 9.5317179 12.333614 C 9.9642762 11.687311 10.474938 11.019569 11.040153 10.348206 C 9.8505179 11.597649 8.6264527 12.657495 7.5556112 12.918591 C 6.6257862 13.145305 5.551389 12.454087 4.70979 12.095903 C 2.3771047 15.665104 0.59800197 19.549326 0.041341146 23.975281 C -0.17675586 25.709349 0.5354665 28.009781 0.6764445 29.796114 C 4.1354425 29.683879 7.3755025 23.626594 9.3089925 21.064864 C 9.9817085 20.173567 10.888568 18.331794 12.063863 18.065564 C 13.979872 17.631546 17.980786 20.4839 19.726444 21.28759 C 24.488286 23.479906 29.237286 25.714176 34.013944 27.865999 C 36.393789 28.93809 38.909778 30.563148 41.487907 31.081307 L 41.491007 31.1335 L 47.039506 34.055802 L 63.443673 41.555603 L 63.179089 40.761853 C 65.457229 41.763883 68.014046 43.606148 70.058256 45.074768 C 71.214816 45.905658 72.244043 47.154774 73.762423 47.220374 C 75.092443 47.277874 77.279331 47.237014 78.445341 46.536694 C 80.610951 45.236034 82.563519 39.377998 80.550639 37.426656 C 78.386229 35.328431 72.902016 34.595195 70.058256 33.387626 C 64.090026 30.853284 58.062849 28.45331 52.066589 25.981877 C 48.583167 24.546136 44.98498 22.603279 41.314274 21.734591 C 39.595599 20.120465 36.655173 19.493671 34.543111 18.612301 C 28.78877 16.210985 23.007615 13.471691 17.080611 11.539864 C 19.617561 8.8869649 19.861284 6.8520132 19.416903 3.3377808 C 19.229998 1.8597115 17.394159 0.067470327 15.699817 0.0020670573 z M 4.70979 12.095903 C 4.7681991 12.006532 4.8269144 11.917198 4.8860067 11.828219 L 4.6451945 12.069031 C 4.6666105 12.077815 4.6880572 12.086653 4.70979 12.095903 z M 14.699361 8.3648641 L 15.228528 8.8940308 L 15.228528 8.3648641 L 14.699361 8.3648641 z M 9.4076945 9.6877808 L 9.6722778 9.9523641 L 9.4076945 9.6877808 z M 13.70769 10.870654 C 15.668216 10.860268 17.893184 12.400057 19.726444 13.111344 C 24.898448 15.118021 29.933012 17.501402 35.072278 19.595186 C 37.116107 20.427858 39.301755 21.751964 41.496175 22.095809 C 43.153173 23.953447 47.9753 23.747124 48.097839 26.474353 C 52.128399 26.382603 55.844633 28.466019 59.474923 30.097904 C 65.114593 32.633045 70.909449 35.086263 76.672839 37.32227 L 76.672839 37.586853 C 70.428639 37.591653 65.436613 32.954295 59.474923 31.236853 L 59.474923 31.501436 L 61.062423 32.824353 L 57.093673 31.76602 L 57.358256 32.55977 L 49.949923 28.59102 C 51.597543 30.822877 54.170486 31.412973 56.564506 32.504993 C 59.998386 34.071334 63.289766 36.449705 66.883256 37.586853 L 66.883256 37.851436 L 57.622839 33.588131 L 41.747839 27.532686 L 41.747839 27.268103 L 44.658256 27.79727 L 44.658256 27.532686 L 41.502376 26.318807 L 41.422278 24.239864 C 39.296588 25.373031 37.915318 24.18773 35.866028 23.293669 C 32.280386 21.729327 28.787511 19.49659 25.018111 18.419031 L 25.811861 19.477364 C 21.367644 16.948182 16.397373 12.995638 11.259778 12.069031 C 11.980019 11.200609 12.816543 10.875375 13.70769 10.870654 z M 16.816028 12.862781 C 17.851159 14.286725 19.887142 14.099988 21.313944 14.983582 C 25.96073 17.861257 32.691355 21.053843 37.982694 22.387781 C 36.866314 20.698026 33.466755 19.966562 31.632694 19.20968 C 26.563433 17.117705 22.032719 14.560222 16.816028 12.862781 z M 4.6451945 13.127364 L 7.8201945 14.185697 L 3.0571777 22.123197 L 0.6764445 24.769031 C 1.0575675 20.966219 3.0565535 16.563282 4.6451945 13.127364 z M 0.6764445 25.562781 L 1.4701945 25.562781 L 1.9993612 29.266947 C 0.58554312 28.797701 0.8401575 26.858188 0.6764445 25.562781 z M 18.830892 26.660905 C 14.464606 26.724034 11.876976 33.117702 15.13241 36.238098 C 16.616238 37.660379 18.810593 36.600221 20.520194 36.558492 C 22.725801 36.504652 25.002931 37.557002 27.134778 37.998197 L 26.605611 39.056531 C 30.496537 41.270836 36.038193 44.355163 40.613025 45.448905 C 42.130334 46.339913 44.423581 47.221883 45.726408 47.820854 C 50.212458 49.883294 54.764148 51.820558 59.220158 53.946578 C 61.225678 54.903428 64.080048 56.797044 66.363908 56.782064 C 67.902728 56.771964 69.444601 54.91395 70.597241 54.04528 C 67.842001 50.21462 63.116535 48.571256 58.955575 46.790426 C 52.78505 44.149536 46.533274 40.800413 40.274544 38.368201 C 37.650003 36.289151 32.083216 35.780623 29.780611 34.928101 C 27.693033 34.155191 24.52997 31.095632 22.939685 29.482955 C 21.866494 28.39465 21.425828 27.040549 19.726444 26.735319 C 19.420749 26.680413 19.121978 26.656696 18.830892 26.660905 z M 19.270142 27.370939 C 19.853357 27.392019 20.389847 27.634491 20.784778 28.208614 L 15.757694 29.266947 C 16.478443 28.349127 17.987068 27.324564 19.270142 27.370939 z M 20.784778 28.473197 C 22.923334 30.765241 27.267062 32.524936 28.193111 35.616947 C 27.203415 35.362958 25.531996 35.415869 25.282694 34.294031 L 24.488944 34.823197 L 24.753528 33.500281 L 21.843111 32.971114 L 21.313944 31.648197 L 20.255611 32.177364 L 20.520194 31.383614 L 18.932694 32.177364 L 19.726444 30.854447 L 18.138944 30.854447 L 20.784778 28.473197 z M 17.874361 29.266947 L 17.874361 29.796114 L 15.228528 33.235697 C 15.268838 31.521097 15.875355 29.352875 17.874361 29.266947 z M 64.237423 34.411853 L 72.968673 38.645186 L 72.704089 39.438936 L 63.972839 34.676436 L 64.237423 34.411853 z M 29.251444 35.881531 L 32.691028 37.733614 L 28.457694 37.733614 L 29.251444 35.881531 z M 32.26263 36.006588 C 34.654516 36.043728 38.950749 38.443986 40.363944 39.585697 C 37.757314 39.737045 33.672723 37.374729 31.368111 36.146114 C 31.618124 36.044417 31.920932 36.001282 32.26263 36.006588 z M 17.345194 36.233964 C 17.549805 36.233964 17.387408 36.365848 17.256828 36.322331 L 17.345194 36.233964 z M 78.789506 37.851436 L 79.318673 39.438936 C 77.605983 39.471396 76.767113 41.773143 76.143673 43.143103 L 75.879089 43.143103 L 76.937423 39.968103 L 76.672839 39.968103 C 75.839039 41.65355 74.704699 43.016706 75.085339 44.995186 C 77.292429 44.303336 78.378059 42.79817 78.260339 40.49727 L 79.054089 40.761853 C 78.749559 42.331263 76.616516 47.662041 74.186686 45.109391 C 71.590406 42.381891 76.845296 38.601439 78.789506 37.851436 z M 33.606217 37.858671 C 33.655342 37.858641 33.703645 37.860533 33.749878 37.865389 C 35.142223 38.011641 36.716524 39.024944 37.982694 39.5981 C 39.144947 40.124225 40.385855 40.669528 41.640869 40.900346 C 43.83389 42.997804 48.436565 44.72301 50.488908 45.31403 L 50.488908 45.578613 L 45.726408 44.255697 L 45.726408 44.52028 L 51.018075 47.166113 L 51.018075 47.430697 L 40.607857 43.00616 C 38.637048 41.215336 34.480639 41.452538 32.549951 39.192957 C 31.87194 38.399453 32.869355 37.859128 33.606217 37.858671 z M 68.206173 38.380603 L 69.529089 38.90977 L 69.529089 39.174353 L 67.941589 38.645186 L 68.206173 38.380603 z M 70.058256 39.174353 L 72.174923 40.49727 L 69.793673 39.438936 L 70.058256 39.174353 z M 61.072241 49.018197 C 64.427381 50.274717 67.500695 50.24188 69.274325 54.04528 C 68.472945 54.53982 67.361168 55.672521 66.363908 55.603841 C 64.152438 55.451521 61.006881 51.103537 61.072241 49.018197 z M 60.013908 51.487813 L 60.101758 51.57618 C 59.971188 51.61968 59.809278 51.487813 60.013908 51.487813 z " /></g></svg>
