<?xml version="1.0" encoding="UTF-8" standalone="no"?>
<!-- Created with Inkscape (http://www.inkscape.org/) -->

<svg
   width="210mm"
   height="297mm"
   viewBox="0 0 210 297"
   version="1.1"
   id="svg1"
   xml:space="preserve"
   inkscape:version="1.4.2 (2aeb623e1d, 2025-05-12)"
   sodipodi:docname="Vrah.svg"
   xmlns:inkscape="http://www.inkscape.org/namespaces/inkscape"
   xmlns:sodipodi="http://sodipodi.sourceforge.net/DTD/sodipodi-0.dtd"
   xmlns="http://www.w3.org/2000/svg"
   xmlns:svg="http://www.w3.org/2000/svg"><sodipodi:namedview
     id="namedview1"
     pagecolor="#ffffff"
     bordercolor="#000000"
     borderopacity="0.25"
     inkscape:showpageshadow="2"
     inkscape:pageopacity="0.0"
     inkscape:pagecheckerboard="0"
     inkscape:deskcolor="#d1d1d1"
     inkscape:document-units="mm"
     inkscape:zoom="0.63839909"
     inkscape:cx="-151.15936"
     inkscape:cy="281.95529"
     inkscape:window-width="1920"
     inkscape:window-height="1043"
     inkscape:window-x="0"
     inkscape:window-y="0"
     inkscape:window-maximized="1"
     inkscape:current-layer="layer1"
     showgrid="false" /><defs
     id="defs1" /><g
     inkscape:label="Layer 1"
     inkscape:groupmode="layer"
     id="layer1"><path
       style="fill:#0b0a0b;stroke:none"
       d="m 33.936697,16.156259 v 0.264583 c -3.910804,0.003 -6.200784,4.827629 -8.411954,7.672917 -6.265372,8.06215 -12.789821,15.92966 -18.9391468,24.07708 -1.880719,2.49182 -7.25895204,7.03331 -6.51556704,10.31875 10.96393884,-7.6929 20.62705684,-17.72529 30.95625184,-26.25989 3.384677,-2.796626 6.706591,-6.721015 10.583333,-8.813935 1.896377,-1.023791 4.635477,1.145142 6.614587,1.285758 1.49601,0.106292 2.75224,-1.237699 3.96875,-1.93068 -0.55393,-2.783446 -5.38835,-4.822404 -5.28758,-7.408333 0.0338,-0.868584 1.12361,-1.772566 1.65895,-2.38125 1.60893,-1.829362 3.67431,-5.6685337 5.77286,-6.7950557 1.26482,-0.678972 3.11073,0.187101 3.90178,-1.310256 2.24731,-4.25385796 -5.09215,-5.29372596 -7.63351,-4.73861596 -0.98321,0.214764 -2.69436,0.582854 -2.94411,1.74204496 -0.14332,0.665245 0.37387,1.231433 -0.10962,1.83738 -1.8264,2.288975 -5.745534,5.49943 -8.323357,6.8571237 -3.24113,1.70705 -10.225825,-3.4289977 -12.687545,0.458523 -0.637486,1.006714 0.683275,1.943454 1.311685,2.522941 2.244021,2.069326 3.069778,2.601246 6.084193,2.600915 M 55.897111,0.81042534 V 1.0750083 l -2.38125,1.5875 3.43959,1.5875 v 0.264584 l -7.9375,-3.175 3.43958,0.139235 3.43958,-0.66840196 m -2.91041,4.76249996 v 0.264583 c -1.68878,-0.03487 -3.67852,-0.136223 -3.96875,-2.116666 l 3.96875,1.852083 m -6.35,0 5.29166,1.058333 c -0.7254,2.553567 -4.38138,1.47554 -5.82083,0 l 1.05833,0.264584 0.79375,-0.529167 v -0.264583 l -1.5875,-0.264584 0.26459,-0.264583 m 3.43958,3.439584 c -0.83098,2.8889947 -3.77129,1.0953057 -5.82083,0.79375 v -0.264584 l 1.32291,-0.529166 -0.26458,-0.79375 4.7625,0.79375 M 31.555447,10.864592 c -1.086214,1.787076 -2.490105,1.237626 -3.96875,0.264583 1.252923,-0.981618 2.517882,-0.383084 3.96875,-0.264583 m 1.852084,0 -2.645834,2.116667 2.645834,-2.116667 m 15.08125,0.79375 c -1.81878,2.376236 -3.84734,1.856694 -6.35,0.79375 v -0.264583 l 2.11667,0.264583 v -0.264583 l -1.85209,-0.529167 c 1.82331,-0.87623 4.22068,-0.631252 6.08542,0 m -8.466667,0.529167 c -1.613144,2.99343 -3.945738,2.204928 -6.614583,1.5875 v -0.264584 c 2.496795,0.367089 3.242139,0.177872 5.55625,-0.79375 v -0.264583 l -3.704167,-0.79375 4.7625,0.529167 m -2.38125,0.264583 c -1.148509,1.374367 -3.125124,0.954197 -4.497917,0 h 4.497917 m 4.762497,1.058333 -0.529163,1.058334 1.058333,-0.529167 h 0.26458 c 0.78885,0.968586 3.0166,2.37911 3.34813,3.491034 0.31349,1.051413 -1.42563,2.02574 -2.28979,1.800019 -1.69305,-0.442229 -3.127041,-2.659043 -4.49792,-3.703553 v -0.529167 l 2.64583,-1.5875 m -1.05833,1.852084 2.64583,2.645833 -1.5875,-1.852083 v -0.264583 l 0.52917,-0.529167 h 0.26458 l 2.64584,2.38125 c -1.17337,-1.665725 -2.38679,-3.125738 -4.49792,-2.38125 m -3.704167,1.5875 c -2.091313,4.031351 -6.467411,7.202354 -9.449464,10.583334 -4.592376,5.206726 -9.402991,10.197016 -14.053539,15.345836 -2.846338,3.15129 -5.6848558,7.25413 -9.3053308,9.525 2.477255,-3.55857 5.8309668,-6.54145 8.6902158,-9.78959 5.143759,-5.84336 10.194173,-11.9116 15.652267,-17.462496 2.213939,-2.251583 5.237971,-7.703948 8.465851,-8.202084 m -6.35,12.435417 c -8e-6,-1.051212 -3.354943,2.020543 -3.880557,2.645833 -3.775408,4.49143 -9.069089,10.04669 -14.375694,12.7 5.134207,-7.28861 13.072233,-12.88738 18.974465,-19.579166 1.493529,-1.693324 2.981366,-3.426415 4.57447,-5.026882 0.51502,-0.517402 1.273647,-1.53299 2.086864,-1.53299 1.532231,0 1.510656,3.297013 0.926655,4.155956 -1.582065,2.326893 -5.724965,5.546045 -8.306203,6.637249 m 17.727087,-9.525 c 0.22782,0.955699 1.53378,1.678644 1.53278,2.605412 -10e-4,1.393359 -3.16556,-0.735161 -3.64945,-1.017912 v -0.264584 c 0.45186,-0.45476 0.58813,-0.51854 0,-0.79375 v -0.264583 l 2.11667,-0.264583"
       id="path2"
       sodipodi:nodetypes="ccsscsssccsssssssssccccccccccccccccccccccccccccccccccccccccccccccccccccccssccccccccccccsscssccccsssscccccccc" /></g></svg>
