<?xml version="1.0" encoding="UTF-8" standalone="no"?>
<!-- Created with Inkscape (http://www.inkscape.org/) -->

<svg
   width="210mm"
   height="297mm"
   viewBox="0 0 210 297"
   version="1.1"
   id="svg1"
   xml:space="preserve"
   inkscape:version="1.4.2 (2aeb623e1d, 2025-05-12)"
   sodipodi:docname="Vudon.svg"
   xmlns:inkscape="http://www.inkscape.org/namespaces/inkscape"
   xmlns:sodipodi="http://sodipodi.sourceforge.net/DTD/sodipodi-0.dtd"
   xmlns="http://www.w3.org/2000/svg"
   xmlns:svg="http://www.w3.org/2000/svg"><sodipodi:namedview
     id="namedview1"
     pagecolor="#ffffff"
     bordercolor="#000000"
     borderopacity="0.25"
     inkscape:showpageshadow="2"
     inkscape:pageopacity="0.0"
     inkscape:pagecheckerboard="0"
     inkscape:deskcolor="#d1d1d1"
     inkscape:document-units="mm"
     inkscape:zoom="0.66478928"
     inkscape:cx="-250.4553"
     inkscape:cy="461.80047"
     inkscape:window-width="1920"
     inkscape:window-height="1043"
     inkscape:window-x="0"
     inkscape:window-y="0"
     inkscape:window-maximized="1"
     inkscape:current-layer="layer1"
     showgrid="false" /><defs
     id="defs1" /><g
     inkscape:label="Layer 1"
     inkscape:groupmode="layer"
     id="layer1"><path
       style="fill:#0a0a0a;stroke:none"
       d="m 6.2837213,47.624999 c -1.580766,1.50243 2.471547,4.85269 3.439584,5.82083 -0.522974,0.6757 0.164056,1.6453 0.4638357,2.38125 0.868378,2.13187 1.816306,4.2547 2.772207,6.349997 2.140292,4.69144 3.47637,14.01683 9.199374,15.59551 1.831845,0.50532 4.413975,-0.50891 6.35,-0.51426 v -0.79375 l -7.14375,0.26459 v -0.26459 h 0.79375 v -0.26458 c -2.822187,-1.40969 -3.819958,-4.41385 -4.993397,-7.14375 -1.292759,-3.00749 -2.944616,-5.88924 -4.002437,-8.995827 1.097378,0.59025 1.25969,1.542067 1.707337,2.645827 0.90328,2.22721 2.313138,4.17923 3.312399,6.35 0.389818,0.84683 0.803181,2.41678 1.694269,2.87428 0.873218,0.44834 3.409667,-1.36053 3.869329,-2.08053 1.327584,0.46846 4.216317,0.4947 4.7625,-1.05833 -3.233636,0.63137 -4.50996,0.1362 -4.7625,-3.175 1.774787,0.13539 1.711746,1.26489 2.38125,2.64583 h 0.264584 c 0.460053,-1.55237 0.22981,-2.78975 2.116666,-3.175 v -1.32292 l -2.38125,0.26459 0.535497,-3.11559 1.845753,-2.176077 -2.116666,0.52917 -0.264584,-1.5875 h -0.264583 c -0.625644,1.24417 -1.572809,1.53108 -2.910417,1.32291 l 0.264583,-2.38125 h -0.264583 c -1.078834,1.85959 -2.225829,1.97464 -4.233333,2.11667 0.245503,-1.66237 0.943555,-3.40225 1.98213,-4.73882 0.715585,-0.92091 2.143038,-1.82585 1.44602,-3.18316 -0.59285,-1.15447 -2.046815,-1.17325 -3.163567,-0.9877 -2.428457,0.4035 -5.448941,1.90589 -7.9375,1.21084 -1.1253877,-0.31433 -4.3823027,-3.87409 -1.8220707,-4.3101 0.772486,-0.13156 2.9352247,1.25569 3.9387367,1.42561 v -0.26459 c -2.517034,-1.97407 -5.5206247,-5.182576 -4.5897827,-8.730226 0.326316,-1.24368 1.6290427,-2.06001 2.2299707,-3.17704 0.524592,-0.97512 0.679113,-2.02347 1.39253,-2.90838 1.415382,-1.7556 4.165065,-3.05632 4.374201,-5.55727 0.371077,-4.43752 -6.223749,-3.57058 -7.7533547,-0.78313 -1.530103,2.78836 1.3339867,3.14057 3.2881027,2.63522 l -4.4979167,2.64583 -0.102691,-2.33674 -1.749392,-2.69034 -0.79375,0.26458 0.264583,-4.7625 h -0.529167 l -1.5875,8.99583 h -0.264583 c -0.183254,-4.26802 -0.583201,-7.17044 0.763535,-11.37708 0.585668,-1.82939 1.72175,-3.79299 3.998965,-3.40774 3.4283757,0.58001 3.0687527,4.71612 0,5.52441 v -2.91042 l 1.058334,0.52917 c 0.01829,-1.16015 -1.530148,-2.22955 -2.373899,-0.97402 -2.221663,3.30592 2.425329,5.72518 4.5587537,2.29673 0.891838,-1.4332 0.633937,-4.18118 -0.300721,-5.54175 -0.6836257,-0.99516 -1.9256327,-1.42255 -1.6356797,-2.84326 0.252993,-1.23961 2.2789707,-1.15271 3.0314807,-0.41422 0.724572,0.71106 0.424231,2.32016 0.424231,3.24318 h 0.529167 l 1.852083,-3.43958 2.910417,2.38125 -1.837384,-3.15112 2.101968,-2.40513 -2.645834,1.32292 -0.79375,-2.64584 h -0.264583 l -0.79375,2.91042 -4.2333337,0.52917 C 12.475325,5.218863 22.010855,1.591779 28.508722,1.5875 V 0 C 21.072806,1.261454 12.838368,3.604617 7.1013563,9.044623 c -7.54128003,7.15088 -8.219274,19.06875 -5.970478,28.52621 0.925223,3.89108 3.617327,6.54109 5.152843,10.054166 M 29.037889,0 v 1.852083 c 9.411797,0.07893 18.526651,5.61766 23.018751,14.02292 -1.66391,-0.75024 -3.72592,-1.5811 -5.55523,-0.83131 -2.29565,0.94091 -3.4684,4.39526 -1.71204,6.30039 1.96528,2.13173 7.1028,0.62345 5.36374,-2.47803 -1.25344,-2.2354 -4.77957,-0.35133 -2.3298,1.24228 v -1.32292 c 2.49859,0.11035 0.653,2.79077 -1.28373,1.95682 -2.21637,-0.95436 0.39446,-4.25049 2.07748,-4.19148 6.21733,0.21798 8.17036,9.55947 7.34913,14.40162 -0.17706,1.04397 -0.91669,1.91941 -1.26372,2.91429 l -1.85208,-5.82083 c 0.4258,1.86272 0.89592,4.10997 -1.05833,5.29167 l 0.26458,0.79375 -1.85208,-2.91042 c -1.55177,0.17213 -6.72647,-3.11038 -4.4034,-4.75515 1.86999,-1.32399 4.65248,2.05848 1.75756,1.58015 l 0.79375,-0.52917 v -0.26458 l -1.5875,-0.26458 c 0.19528,3.56452 4.52548,2.89272 3.62006,-0.51774 -0.52537,-1.97886 -5.10891,-2.84275 -6.37083,-1.26065 -1.10902,1.39042 0.0971,3.20705 0.10494,4.6888 3.33657,1.16921 6.87068,6.38631 5.93903,10.04376 -0.61108,2.39899 -2.27175,3.98347 -3.2932,6.095826 l -1.32291,0.79375 h -1.05834 v 0.26458 l 1.32292,-0.26458 -0.52917,0.79375 v 0.26458 c 1.64058,0.55709 2.11971,-1.38527 3.70417,-1.32516 1.84474,0.07 3.49497,2.80193 1.4105,3.85544 -1.15157,0.58202 -2.44959,0.0977 -3.63945,0.2505 -1.44437,0.18549 -2.57512,1.32086 -4.09737,1.07834 -1.29255,-0.20593 -3.75729,-2.16856 -5.043214,-0.72883 -1.241478,1.38997 0.963822,5.44041 1.315364,6.92388 l -2.116664,0.52917 -0.529167,-1.85209 h -0.264583 v 1.85209 c -1.689214,-0.13041 -1.930809,-1.30503 -2.645834,-2.64584 h -0.264583 v 2.64584 l -3.175,0.26458 -0.529167,-5.82083 h -0.264583 l 0.03818,6.61458 0.76578,2.456577 -0.803956,5.48092 c 1.463452,-1.10768 1.177189,-2.35453 3.439583,-2.38125 l -0.264583,2.64583 2.910417,-2.64583 v 2.91042 h 0.264583 l 0.79375,-2.64584 c 1.632515,1.00154 0.755913,2.49184 0.264584,3.96875 l -1.5875,-1.05833 h -0.264584 c -0.891136,0.68959 -1.325137,0.86765 -2.116667,0 -1.298895,0.71368 -2.049842,0.77001 -3.439583,0.26458 0.609479,1.29065 1.908596,2.2964 2.910417,0.79375 h 0.264583 0.264583 c 0.748081,1.03989 1.561945,0.42142 2.381251,-0.26458 0.548577,1.49075 1.437711,1.18994 2.645833,0.52917 0.598809,3.83489 3.61991,-0.30486 4.36195,-1.8531 0.58537,-1.22138 0.24588,-3.12137 0.51385,-4.49589 0.52803,-2.708387 1.65885,-5.781687 2.53253,-8.467677 h 0.26458 v 4.23333 l 1.85209,-3.70416 h 0.26458 c -0.12674,6.107097 -2.72583,12.337167 -6.40287,16.933327 -1.02521,1.28147 -3.332409,5.32521 -5.238793,3.96875 l -6.614584,0.26458 c 0.460243,1.38669 1.931544,1.05834 3.175,1.05834 2.767459,0 6.054338,0.36902 8.122667,-1.86658 2.23956,-2.42067 4.98216,-5.8705 6.13993,-8.98134 1.60477,-4.3119 1.55335,-9.257397 3.2391,-13.492727 0.8765,-2.20215 3.60995,-2.57259 4.19413,-5.0281 -0.89937,-0.74826 -1.57911,-1.67996 -1.18675,-2.91042 1.66277,-5.214566 4.62412,-9.297116 4.62634,-15.081246 C 57.35431,14.441943 44.3493,1.663367 29.037893,0 m -2.116667,1.852083 c -1.043117,2.614416 -2.668446,2.374024 -5.291667,2.38125 v 0.264584 l 2.645834,1.058336 -1.5875,3.70416 c 2.134362,-1.06295 3.332694,-3.19048 5.820833,-2.11666 0,-2.11145 -0.05013,-3.684815 -1.5875,-5.29167 m 2.116667,2.645834 c 0,2.636146 0.507685,3.735106 3.175,4.497916 l -2.38125,-3.175 L 33.271226,4.7625 29.037893,4.497917 m 12.699997,2.910416 -0.79375,2.38125 -3.968747,-0.79375 v 0.26458 c 2.939047,1.85978 2.672057,2.91711 2.645827,6.08542 h 0.26459 l 1.32291,-3.43958 h 0.26459 l 2.38125,3.43958 -1.05834,-3.70417 3.43959,-0.52916 v -0.52917 c -2.86721,0 -3.96841,-0.0491 -3.96875,-3.175 h -0.52917 m -15.34583,0.52917 c -0.944315,1.76338 -1.523583,2.314 -3.439584,1.5875 l -2.116667,3.175 -0.529166,-1.05834 -1.217982,2.57602 -3.544519,1.39273 c 0.465621,1.16249 0.182382,1.65603 -1.058333,1.85209 l 0.264583,1.32291 c 2.615736,-0.14321 4.122524,1.91756 6.350001,3.03904 2.30797,1.162 4.990231,1.28726 7.408333,2.25263 v -2.11667 c -2.702819,-0.0576 -5.772467,-1.09651 -8.202083,-2.24508 -0.696449,-0.32923 -2.037974,-0.78833 -2.402074,-1.52114 -0.436299,-0.87813 1.053056,-1.71138 1.608324,-2.12566 1.745932,-1.30261 4.107711,-4.08533 6.35,-4.16228 -1.450126,3.36614 -2.078729,6.21087 2.38125,7.14375 l -0.264583,-2.11667 0.264583,-0.79375 c -1.64564,-0.91102 0.410896,-3.48205 0.249068,-5.28758 -0.112509,-1.25526 -1.288398,-2.04344 -2.101151,-2.9145 m 2.910416,11.1125 c 3.220242,-0.94308 3.62029,-3.96885 1.852084,-6.61459 3.104357,0.87135 3.457702,4.77654 6.879167,5.29167 l -8.723899,4.39461 -0.271935,5.65956 c 2.827331,-1.35297 3.131027,-2.49989 1.322917,-5.02709 3.28176,-1.34638 10.19605,-2.75995 11.1125,-6.61458 l -2.91042,0.79375 0.79375,-2.11667 c -2.357354,1.30965 -2.89026,0.81584 -2.116663,-1.85208 l -2.116667,1.05833 -0.264583,-3.96875 c -2.064014,1.67201 -2.900784,-1.16345 -4.987887,-0.5114 -2.169203,0.67771 -0.07513,4.56884 -0.07513,5.80307 0,1.41494 -0.935202,2.19087 -0.493236,3.70417 m 1.852084,-6.87917 -0.264584,0.26458 0.264584,-0.26458 m 21.960412,5.82083 c -3.20894,-1.38276 -7.87168,-3.78622 -7.9375,2.11667 -1.4343,-1.10702 -0.0143,-3.009 1.06242,-3.86443 1.90539,-1.51383 5.99407,-0.57832 6.87508,1.74776 m -37.637997,3.18725 c -0.737075,0.61024 0.233828,1.82668 0.955441,1.13673 0.666218,-0.63698 -0.232722,-1.73508 -0.955441,-1.13673 m 23.350497,-0.27683 c -0.359728,3.22384 3.33929,0.2549 0,0 m -5.027079,3.175 c 2.321653,-0.3875 0.09689,-2.95062 0,0 m -11.548165,-0.21926 c -0.675706,0.3637 -0.06416,1.32112 0.575304,0.96769 0.66571,-0.36794 0.07637,-1.31845 -0.575304,-0.96769 m -9.883086,6.56926 h -0.264583 c 0.325525,-1.44075 1.420359,-3.58309 -1.058333,-3.175 v 0.26458 l 1.058333,0.26459 c -0.587351,1.85949 -3.5384787,1.35807 -2.6333787,-0.52427 0.9369947,-1.94867 5.7907157,-2.07092 5.4106887,0.77354 -0.140298,1.05012 -1.827836,1.65068 -2.512727,2.39656 m 5.556251,-2.11667 c 2.368339,-0.132 4.499919,1.23438 6.614583,2.11667 -0.556547,-2.75076 -5.679442,-6.40104 -6.614583,-2.11667 m 10.31875,-1.5875 c -2.10745,1.12355 -2.156458,3.77023 0.264583,4.49792 v -1.32292 l -0.264583,-3.175 m 3.439583,6.87917 5.291667,-4.01427 2.645829,-1.54198 c -3.414346,0.17938 -7.849565,1.45048 -7.937496,5.55625 m -15.08125,-4.7625 -0.529167,1.32292 h 1.322917 l -0.264583,-1.32292 h -0.529167 m 24.606246,0 0.26459,1.32292 0.79375,-1.32292 H 41.20872 M 9.1941403,40.745833 c 1.7052737,0.9143 1.2892907,2.21486 2.1403487,3.703966 1.130374,1.97783 3.369978,2.81632 5.532568,2.91062 v -0.26459 l -3.175,-0.79375 v -0.26458 l 6.614584,0.52917 c -1.273889,1.94925 1.333252,1.605 0.264583,0 l 1.322917,-1.05834 h 0.264583 c 1.214687,0.82584 2.168299,-0.34967 2.909395,-1.323936 1.621825,-2.13208 2.9342,-4.95156 2.646855,-7.67189 l -0.79375,1.5875 c -1.320668,-2.27909 -1.837997,-5.26955 -3.99345,-7.0329 -3.906173,-3.19558 -9.335335,1.41666 -11.201109,4.72025 -0.488245,0.8645 -0.288124,1.93057 -0.764553,2.79302 -0.464741,0.84129 -1.3230297,1.29308 -1.7679717,2.16546 M 29.037891,30.162503 v 4.49791 c 1.568129,-1.06628 1.419439,-3.03113 0.529167,-4.49791 h -0.529167 m 3.175,8.46666 -0.79375,-0.26458 c -0.571097,2.49233 2.999728,6.725706 5.291667,7.408336 l 0.264583,-0.79375 c 5.603659,2.7969 9.480519,-2.513036 10.344879,-7.408336 0.23241,-1.31621 0.78521,-2.86538 0.24682,-4.19291 -0.35675,-0.87963 -2.80459,-0.91444 -3.71253,-1.36048 -1.56923,-0.77092 -5.13202,-2.11181 -6.878151,-1.61343 -3.322666,0.94835 -4.422793,5.38543 -4.763518,8.22515 m -30.9562507,-6.87916 -0.26458303,0.26458 0.26458303,-0.26458 m 2.38125,2.38125 0.79375,1.5875 h 0.529167 l 0.264583,-1.05834 h 0.264583 l 0.264584,5.82084 h -0.264584 c -0.679965,-1.5077 -2.690755,-4.81107 -1.852083,-6.35 m 24.6062507,0.52916 v 2.11667 h 0.264583 l -0.264583,-2.11667 m 26.458329,0 -2.11666,6.08542 h -0.26459 l -0.26458,-5.55625 0.52917,0.79375 h 0.26458 l 0.52917,-0.79375 v 1.05833 h 0.26458 l 1.05833,-1.5875 m -25.576386,2.02847 0.0882,0.1764 -0.0882,-0.1764 m 5.37986,0.26459 -0.08819,0.17639 0.08819,-0.17639 m -0.176386,0.61736 c 0.220747,4.24615 4.953442,5.67143 8.466662,4.7625 -2.77846,3.148526 -10.595602,-0.22145 -8.466662,-4.7625 m -28.3104177,3.175 -0.264583,0.26459 0.264583,-0.26459 m 44.7145797,1.05834 v 1.5875 h -0.26458 l 0.26458,-1.5875 m -30.691663,1.85208 v 0.26458 c -2.98439,0.838986 -4.086927,0.394796 -6.879167,-0.52916 l 0.264584,-1.05834 c 2.40446,1.0499 3.962827,1.32292 6.614583,1.32292 m 2.910417,-1.32292 v 0.26459 l -1.5875,0.79375 v -0.26459 l 1.5875,-0.79375 m 6.085417,0 v 7.937496 l 4.233333,3.175 c 0.49515,-2.709 -1.286581,-10.240016 -4.233333,-11.112496 m -0.79375,0.26459 c -1.305024,2.382796 -2.296319,4.835796 -3.154992,7.408326 -0.224497,0.67258 -0.919913,2.33721 0.05471,2.73525 0.946296,0.38647 2.160228,-1.06528 2.644404,-1.7006 1.231239,-1.61561 1.229487,-6.59936 0.455875,-8.442976 m -7.672917,0.79375 -0.264583,0.26458 0.264583,-0.26458 m 0.529167,0 -0.264584,0.26458 0.264584,-0.26458 m 2.910416,2.645826 c -0.153103,0.90562 -0.105117,1.28712 0.79375,1.5875 0.1531,-0.90561 0.105114,-1.28712 -0.79375,-1.5875 m 11.271939,0.83519 c -0.458467,0.30634 0.0163,1.01728 0.474874,0.71087 0.458475,-0.30634 -0.01631,-1.01727 -0.474874,-0.71087 m 3.741127,0.50936 c -0.536558,0.39912 -0.14206,1.34516 0.52386,0.99138 0.74249,-0.39446 0.15253,-1.49449 -0.52386,-0.99138 m 2.9786,1.0367 c 2.24899,0.52397 0.8731,-2.37093 0,0 m -27.092434,-0.51039 c -0.669981,0.47058 0.125493,1.42961 0.728626,0.85623 0.534379,-0.50802 -0.146616,-1.26501 -0.728626,-0.85623 m 3.809103,2.45066 c 0.204622,0 0.04238,0.13173 -0.08819,0.0882 l 0.08819,-0.0882 m 31.220831,0.44098 v 0.26458 h -0.79375 l 0.79375,-0.26458 m -31.749998,0.26458 v 0.26459 l -4.233334,3.175 -2.116666,-2.38125 6.35,-1.05834 m -5.55625,0.52917 -0.264584,0.26458 0.264584,-0.26458 m 24.341667,11.906247 c -0.08182,-0.61061 -0.270534,-1.23793 -0.296631,-1.85249 -0.04342,-1.022587 1.100531,-2.821077 2.215882,-1.690797 1.50146,1.521567 -0.388982,3.459217 -1.919251,3.543287 m -15.875,0.26458 c -0.458092,-0.23815 -0.759983,-0.39334 -1.066295,-0.83315 -2.413487,-3.465347 2.419797,-3.451337 1.816972,-1.01832 -0.157182,0.63438 -0.503224,1.24817 -0.750677,1.85147 m 10.84526,-3.681297 c 2.352441,0.0986 2.639592,4.098987 -0.260699,3.934047 -2.369058,-0.13474 -1.637719,-4.013577 0.260699,-3.934047 m 4.23599,3.416717 -2.116666,0.26458 c 0,-0.95154 -0.334226,-2.82099 0.460776,-3.528997 1.622155,-1.44465 1.65589,2.612877 1.65589,3.264417 M 23.751123,60.440959 c 2.385897,-0.63967 2.529077,3.668187 0.993003,4.021627 -2.433435,0.55989 -3.402542,-3.37563 -0.993003,-4.021627 m -0.269484,8.615287 h -1.5875 l -0.529167,-2.91042 c 1.677486,0.26526 1.759328,1.46445 2.116667,2.91042 m 3.96875,2.11667 -0.529167,2.11666 h 1.5875 l -0.264583,-2.11666 h -0.79375 m 4.233333,0 -0.529166,2.38125 5.027083,-0.52917 v -0.52917 l -0.264583,-0.26458 c -0.991776,0.23929 -1.389846,0.21237 -2.116667,-0.52917 h -0.529167 l -1.058333,0.79375 v -1.32291 h -0.529167 m -8.202083,0.26458 c -0.238515,1.14704 -0.734851,1.55322 -1.852084,1.85208 v 0.26459 h 3.175 l -1.322916,-2.11667 m 5.644443,1.23473 0.0882,0.17638 -0.0882,-0.17638 m -8.025693,3.26319 0.264583,0.52916 h -0.529167 l 0.264584,-0.52916"
       id="path3"
       sodipodi:nodetypes="ccsssccccccscssscccccccccccccccccsssssccssssscccccccccsscccssssscccccccccccccssccccsssccssscccccsccccsscscccccccsssssccccccccccccccccccccccccccccccsscccccsccsssscsscccccccccccccccccccccccccccccccccccsccsssccccscccccccccccccsscccccccccsccccccsccccccssccccccccccccccccccccccsccccccccsccssscccccccccsssscccccccccccccccccccccccccccccccccccccccccccccccccccccccccssscccccccccccsccsccccscccccccccccccccccssccssccscccsccscccccccccccccccccccccccccccccccc" /></g></svg>
