<?xml version="1.0" encoding="UTF-8" standalone="no"?>
<!-- Created with Inkscape (http://www.inkscape.org/) -->

<svg
   width="210mm"
   height="297mm"
   viewBox="0 0 210 297"
   version="1.1"
   id="svg1"
   xml:space="preserve"
   inkscape:version="1.4.2 (2aeb623e1d, 2025-05-12)"
   sodipodi:docname="Zombuul.svg"
   xmlns:inkscape="http://www.inkscape.org/namespaces/inkscape"
   xmlns:sodipodi="http://sodipodi.sourceforge.net/DTD/sodipodi-0.dtd"
   xmlns="http://www.w3.org/2000/svg"
   xmlns:svg="http://www.w3.org/2000/svg"><sodipodi:namedview
     id="namedview1"
     pagecolor="#ffffff"
     bordercolor="#000000"
     borderopacity="0.25"
     inkscape:showpageshadow="2"
     inkscape:pageopacity="0.0"
     inkscape:pagecheckerboard="0"
     inkscape:deskcolor="#d1d1d1"
     inkscape:document-units="mm"
     inkscape:zoom="1.1054277"
     inkscape:cx="189.97173"
     inkscape:cy="245.6063"
     inkscape:window-width="1920"
     inkscape:window-height="940"
     inkscape:window-x="0"
     inkscape:window-y="0"
     inkscape:window-maximized="1"
     inkscape:current-layer="layer1" /><defs
     id="defs1" /><g
     inkscape:label="Layer 1"
     inkscape:groupmode="layer"
     id="layer1"><path
       style="fill:#0b0a0b;stroke:none"
       d="m 16.030892,8.3451552 2.116667,8.9958338 h 1.322917 c -1.653069,3.826455 0.268039,7.954724 -0.730261,11.906251 -0.275734,1.091422 -0.768231,3.36114 -1.97192,3.78542 -1.143648,0.403116 -2.846221,-0.450336 -3.912403,-0.814574 -0.868128,-0.296574 -2.090194,-0.341404 -2.774451,-1.003411 -2.2205555,-2.148359 2.665107,-5.654234 -2.2526305,-5.671602 0.9296544,-3.183147 -3.1803414,-3.660726 -2.9104164,-0.79375 h -2.910417 c 0.609499,1.319122 1.498354,2.443811 1.552384,3.96875 0.09182,2.591549 -2.353837,6.671105 1.8872,7.14375 0.222907,1.995793 1.8564107,2.444587 3.1711188,3.715601 1.2246424,1.183939 2.0182621,2.725076 3.2276731,3.901788 1.085746,1.056396 2.561342,1.600089 3.599025,2.726062 5.107824,5.542426 8.460191,12.697941 11.897268,19.554467 2.046152,4.081809 4.817656,9.138703 9.325747,10.847917 -0.367993,-1.081071 -0.820533,-2.132137 -1.28617,-3.175 -0.3285,-0.735719 -1.159603,-1.790927 -0.955852,-2.635215 0.353612,-1.465286 2.42574,-2.081422 3.540239,-1.21778 3.128604,2.424384 3.794294,7.819686 7.004111,10.01864 1.009758,0.691765 2.420145,-0.29592 2.477812,-1.40723 0.07422,-1.430355 -1.204295,-2.981359 -1.784306,-4.229248 1.703134,1.386947 3.381625,3.689915 5.55625,4.324187 1.385251,0.404029 2.906824,-0.566616 2.032353,-2.05543 -2.177943,-3.70801 -7.160456,-5.425792 -9.70527,-8.883341 l 4.7625,-1.322916 c -1.048474,-1.586774 -3.560781,-1.552619 -5.01565,-2.749954 -0.332505,-0.273643 -0.660723,-0.595595 -0.897054,-0.958299 -2.449278,-3.758863 3.927901,-2.906331 5.912704,-2.906331 -1.863468,-3.457945 -8.486053,-4.402162 -8.554452,-9.260417 -0.01752,-1.244643 1.270473,-2.478228 1.933135,-3.439583 1.131366,-1.641321 2.170022,-3.376385 3.711918,-4.676346 1.314374,-1.108137 3.020391,-1.715448 4.175763,-3.008005 3.161717,-3.537114 -0.432968,-5.09054 -3.647614,-5.011774 -1.237707,0.03033 -2.502367,0.235854 -3.704167,0.525291 1.639112,-3.074579 4.291276,-7.087504 4.638784,-10.583334 0.235653,-2.370632 -1.682972,-4.344672 -4.1086,-3.51818 -2.382291,0.811732 -2.918846,3.949702 -4.526702,5.623211 -0.533204,0.554981 -1.644118,1.638442 -2.523546,1.240033 -1.209002,-0.547722 0.192059,-3.150712 0.543257,-3.874231 0.956539,-1.970608 2.414194,-4.321506 1.866779,-6.614583 -0.449044,-1.881014 -3.797039,-4.247198 -5.651787,-2.978606 -1.3766,0.941553 -1.79918,3.086561 -2.327559,4.566106 -0.530693,1.48602 -1.172587,2.928415 -1.404376,4.497917 l -1.322917,-0.529167 -0.264583,0.79375 h -0.529167 l -2.35716,-10.847917 2.092577,-6.3500008 c -1.167633,0.116901 -2.617561,0.972752 -3.568202,-0.07105 -0.855834,-0.939704 -0.671838,-4.8625511 -2.757095,-4.2384371 -3.44486,1.0310501 1.692379,7.7419051 -3.993454,6.6907341 m 4.762501,-6.0854171 0.529166,2.9104171 c -1.911907,0.07175 -2.000911,-2.098871 -0.529166,-2.9104171 m 1.5875,5.5562501 -0.79375,0.79375 0.264583,-0.79375 h 0.529167 m 1.852083,0.529167 -2.910417,11.6416678 3.175,-2.38125 c 0.308165,2.425619 0.302461,8.131803 3.704167,7.9375 0.438111,2.165154 3.915063,4.832191 5.820834,5.820834 l -1.322917,1.058333 c 0.355292,1.693227 -0.489885,5.520723 2.382267,5.536645 0.791901,0.0044 1.601098,-0.377205 2.380233,-0.509561 -1.141048,2.25696 -2.451433,2.514882 -0.264583,4.7625 -0.258366,1.338928 1.459875,2.053783 2.032353,3.175202 0.628006,1.230181 -0.414744,4.319681 -1.242075,5.370271 -2.374282,3.014981 -9.716958,-1.180612 -11.072076,-3.529823 -0.709667,-1.230267 -0.770964,-3.095112 -0.830703,-4.486484 l -1.549937,4.866415 -3.741729,0.425252 2.38125,2.116667 C 16.495908,49.993035 17.845789,44.046151 16.824642,39.56599 l -1.5875,3.439584 h -0.264583 l -0.79375,-5.027084 c -3.056136,2.087106 -4.7535774,0.05885 -4.7624994,-3.175 l -1.8520831,0.79375 -3.4395824,-1.058333 0.529167,-6.35 c 1.097736,0.968715 1.057416,2.051094 1.058333,3.439583 l 2.6458321,-3.439583 0.2645837,5.820833 c 1.7518661,-0.621845 3.8249591,-1.390734 5.5172571,-0.0786 0.58528,0.4538 0.728545,1.480054 1.369256,1.793689 0.729066,0.356891 1.770879,-0.251712 2.638486,0.08615 1.988808,0.774492 3.656261,2.69252 5.291667,4.019587 -0.44883,-1.647437 -1.793354,-2.389575 -2.737906,-3.714583 -1.486299,-2.084967 -1.478277,-9.146333 2.473323,-7.662501 -0.07229,-1.671353 -1.795765,-1.552223 -2.49925,-2.916335 -1.736127,-3.366478 -0.198115,-6.574494 1.440916,-9.519082 -3.215978,-0.038 -2.831376,-2.901261 -3.704167,-5.291668 l 1.322917,1.058334 C 20.65163,9.8665412 22.526979,9.4579992 24.232976,8.3451472 M 35.874643,21.838898 c -1.76299,-2.496585 -2.601634,-2.285196 -5.291667,-1.322916 l 2.116667,-3.175001 c -0.687595,-3.000729 2.143135,-3.531333 3.758064,-1.219822 0.90118,1.289892 0.08854,4.45484 -0.583064,5.717739 m -3.439583,3.704167 -0.264584,-1.852083 -1.058333,0.529166 c 0.16765,-0.903021 0.05425,-2.285123 0.572652,-3.05373 0.753381,-1.117002 2.749755,-0.432402 3.108446,0.687789 0.49024,1.531012 -1.13517,3.106117 -2.358181,3.688858 m 11.377083,3.175 -1.058333,-0.264583 c 0,2.666552 -0.219714,4.357018 -2.910417,5.55625 0.705747,-2.438498 -0.560188,-4.291655 -3.175,-3.439583 0.84604,-2.148004 1.600266,-2.655063 3.704167,-3.439584 v -0.264583 l -0.79375,-0.264584 c 0.287733,-1.613128 1.466254,-3.924138 2.956352,-4.755152 1.357088,-0.756834 3.296706,0.321758 3.457339,1.844736 0.167941,1.592272 -1.411711,3.710142 -2.180358,5.027083 M 7.2996438,23.426406 c -0.236408,0.993439 0.1427397,2.823229 -0.4834367,3.604545 -1.530963,1.910259 -0.9323237,-3.376345 -0.8394797,-3.869128 l 1.3229164,0.264583 m 17.7270822,7.143751 -0.79375,3.96875 1.935989,-2.373903 4.149428,-0.0073 c -0.985631,-1.300559 -3.742464,-1.555348 -5.291667,-1.5875 m 11.641667,4.7625 c -0.498379,-1.144746 -0.734871,-4.677073 1.586273,-4.111248 2.986292,0.727967 -0.217929,3.70478 -1.586273,4.111248 m 5.820834,5.820833 c 0.303389,-1.738573 -0.39673,-2.561051 -1.322917,-3.96875 1.804808,-0.695032 6.213211,-3.102613 8.087346,-2.217726 1.143769,0.540035 0.571065,2.90772 -0.1084,3.612707 -1.264982,1.312501 -4.884464,2.163927 -6.656029,2.573769 m -16.404168,-5.291667 -0.79375,2.381251 c 4.228683,-0.496151 6.975027,4.181003 10.054167,6.35 L 35.61006,44.328537 C 33.944431,41.021359 29.458113,37.4326 26.085059,35.86187 m 15.610418,4.762501 -3.968751,-0.264584 c 1.231466,-1.993329 3.481668,-2.415049 3.968751,0.264584 m -11.906251,9.789536 5.55625,2.876529 4.233132,0.854179 3.968952,3.413043 v 0.264583 c -0.982127,-0.177129 -2.170975,-1.140257 -3.139682,-1.01587 -0.817853,0.105008 -1.037211,1.148113 -1.181033,1.80962 -0.681846,3.13613 2.217363,3.821706 3.526965,6.085417 l -4.497917,-2.186075 -4.233333,-0.988925 -1.322917,3.96875 -1.322917,-0.264583 1.322917,6.614583 -2.811404,-4.7625 -5.126096,-11.1125 1.322916,-3.704167 3.704167,1.852083 -0.529166,-1.852083 2.910416,1.322916 -2.38125,-3.175 m 3.175,2.645834 c 1.00912,1.845817 3.909718,4.151685 5.820834,5.027083 -0.754129,-2.123732 -3.604012,-4.580001 -5.820834,-5.027083 m 6.879167,13.758334 c 2.752957,2.874598 5.676657,7.570476 6.879167,11.377083 l -1.058333,0.264584 C 44.065608,75.591183 38.387272,70.289488 39.843393,66.818075 m 6.085417,3.96875 6.35,5.027083 -0.264583,1.322917 c -2.367209,-0.427194 -7.277245,-3.502273 -6.085417,-6.35"
       id="path1"
       sodipodi:nodetypes="cccsssscccscsssscssssscssccsccssssscssssssssccccccssccccccccccccccsccssscccccccccccccccssscscscccccccsccccssccccccccssccsccccccccscccssccccccccccccccsscccccccccccccccccccccccc" /></g></svg>
