<?xml version="1.0" encoding="UTF-8" standalone="no"?>
<svg
   version="1.2"
   viewBox="0 0 113.38583 113.38583"
   width="30mm"
   height="30mm"
   id="svg1"
   sodipodi:docname="Hostinsky1ReminderTokenLaser.svg"
   inkscape:version="1.4.2 (f4327f4, 2025-05-13)"
   xml:space="preserve"
   xmlns:inkscape="http://www.inkscape.org/namespaces/inkscape"
   xmlns:sodipodi="http://sodipodi.sourceforge.net/DTD/sodipodi-0.dtd"
   xmlns="http://www.w3.org/2000/svg"
   xmlns:svg="http://www.w3.org/2000/svg"><sodipodi:namedview
     id="namedview1"
     pagecolor="#ffffff"
     bordercolor="#666666"
     borderopacity="1.0"
     inkscape:showpageshadow="2"
     inkscape:pageopacity="0.0"
     inkscape:pagecheckerboard="0"
     inkscape:deskcolor="#d1d1d1"
     inkscape:zoom="2.7279026"
     inkscape:cx="-14.846571"
     inkscape:cy="88.162971"
     inkscape:window-width="1920"
     inkscape:window-height="1057"
     inkscape:window-x="-8"
     inkscape:window-y="410"
     inkscape:window-maximized="1"
     inkscape:current-layer="layer2"
     showgrid="false"
     inkscape:document-units="mm" /><defs
     id="defs1"><clipPath
       clipPathUnits="userSpaceOnUse"
       id="cp1"><path
         d="m 275.5,535.5 c -143.78,0 -260,-116.22 -260,-260 0,-143.78 116.22,-260 260,-260 143.78,0 260,116.22 260,260 0,143.78 -116.22,260 -260,260 z"
         id="path1" /></clipPath><clipPath
       clipPathUnits="userSpaceOnUse"
       id="cp1-1"><path
         d="m 275.5,535.5 c -143.78,0 -260,-116.22 -260,-260 0,-143.78 116.22,-260 260,-260 143.78,0 260,116.22 260,260 0,143.78 -116.22,260 -260,260 z"
         id="path1-1" /></clipPath></defs><style
     id="style1">
		tspan { white-space:pre } 
		.s0 { fill: none;stroke: #ff0000;stroke-miterlimit:100 } 
	</style><g
     inkscape:groupmode="layer"
     id="layer2"
     inkscape:label="Content"
     style="display:inline"
     transform="scale(0.1989225)"><g
       inkscape:groupmode="layer"
       id="layer3"
       inkscape:label="Kruh"
       transform="scale(5.0270836)"><path
         id="path2"
         style="fill:none;stroke:#000000;stroke-width:0.949978"
         inkscape:label="vnejsi kruh"
         transform="scale(0.19892249)"
         d="M 569.5184,284.99338 A 284.52502,284.52502 0 0 1 284.99338,569.5184 284.52502,284.52502 0 0 1 0.46835327,284.99338 284.52502,284.52502 0 0 1 284.99338,0.46835327 284.52502,284.52502 0 0 1 569.5184,284.99338 Z" /><path
         id="path2-9"
         style="fill:none;stroke:#000000;stroke-width:0.95000007;stroke-dasharray:none"
         inkscape:label="vnitrni kruh"
         transform="scale(0.19892249)"
         d="M 529.26178,284.99338 A 244.2684,244.2684 0 0 1 284.99338,529.26178 244.2684,244.2684 0 0 1 40.724976,284.99338 244.2684,244.2684 0 0 1 284.99338,40.724976 244.2684,244.2684 0 0 1 529.26178,284.99338 Z" /></g><path
       id="path8"
       style="font-size:133px;font-family:'New Rocker';-inkscape-font-specification:'New Rocker';letter-spacing:2.02104px;baseline-shift:baseline;white-space:pre;display:inline;overflow:visible;fill:none;stroke:#000000;stroke-width:0.95000006;stroke-dasharray:none;stroke-opacity:1;enable-background:accumulate;stop-color:#000000"
       d="m 414.61722,313.04757 -2.66378,5.31731 c -0.77188,1.54374 -1.78705,3.35668 -3.04286,5.41977 l -0.0307,0.0512 -0.0308,0.0512 c -1.16308,2.05775 -2.41301,4.12271 -3.76003,6.18815 l -0.0104,0.0104 -0.0104,0.0204 c -1.28948,2.02635 -2.53356,3.95925 -3.72929,5.79884 l -0.041,0.0512 -0.0308,0.0615 c -1.11488,1.85812 -2.00334,3.34504 -2.66377,4.47719 l -1.59827,2.7355 2.47936,1.98759 c 1.25572,1.00458 2.09576,1.84125 2.44863,2.29495 l 0.14344,0.18441 0.15367,0.16393 c 0.90242,0.90243 2.08263,1.91945 3.6166,3.1658 l 2.57157,2.09004 2.33593,-2.34617 c 0.5346,-0.53459 1.07662,-1.07469 1.62901,-1.61877 v 13.86191 l -2.75599,0.17417 v 8.07331 l 2.72524,0.72741 c 1.02961,0.27457 1.57608,0.61065 1.72123,0.73766 l 0.17416,0.16393 0.20491,0.13319 c 0.0754,0.0503 0.28766,0.21108 0.55324,0.90158 0.24293,0.63164 0.51284,1.90762 0.59424,3.69856 v 0.082 l 0.0104,0.0819 c 0.16961,1.86562 0.25614,4.37462 0.25614,7.44835 v 16.46421 l -9.13881,4.00591 -2.66379,-2.02857 v -23.44127 -6.1984 c 0.0858,-1.67053 0.1291,-3.22005 0.13319,-4.67187 0.0903,-1.44399 0.17641,-2.79428 0.26638,-4.05714 0.18225,-1.28704 0.36279,-2.67911 0.543,-4.21082 l 0.7684,-6.51602 -5.95253,2.74574 c -0.96928,0.44737 -2.47153,1.0182 -4.38499,1.62901 -1.95744,0.53243 -4.09325,1.06044 -6.42381,1.59827 -2.33278,0.53833 -4.66576,1.03604 -6.99754,1.48557 -2.32858,0.35742 -4.41834,0.62376 -6.25989,0.79913 l -3.03261,0.28687 -0.62496,6.85411 1.97734,1.18846 c 1.04828,0.62897 1.77512,1.28765 2.2847,1.9671 l 0.10247,0.14343 0.1127,0.12295 c 0.50054,0.55059 1.02226,1.4173 1.45483,2.71501 l 0.0104,0.0307 0.0104,0.0308 c 0.40974,1.16094 0.74479,2.81946 0.91183,4.9075 l 0.0104,0.0717 0.0104,0.0717 c 0.25411,2.11752 0.38932,4.70774 0.38932,7.74545 0,2.69403 -0.0956,5.53797 -0.27662,8.5241 v 0.0512 0.0615 c -0.0676,2.23182 -0.18933,4.36033 -0.35859,6.37258 h -13.84141 v -63.71558 c 0,-4.62275 0.31669,-8.65567 0.91184,-12.07921 0.65327,-3.24389 1.73669,-5.59409 3.09408,-7.22295 l -4.39525,-5.66566 c -3.74392,1.78282 -7.22532,3.14547 -10.42971,4.09813 h -0.0205 l -0.0104,0.0104 c -3.03091,0.92611 -5.85837,1.36263 -8.5036,1.36263 -2.18077,0 -3.94291,-0.29094 -5.30708,-0.7684 l -8.84169,-3.09409 4.38499,8.27822 c 0.76769,1.45006 1.39181,2.84409 1.88513,4.15959 0.47565,1.26842 0.83674,2.5695 1.07576,3.92395 l 0.0104,0.10247 0.0307,0.10247 c 0.31218,1.32677 0.51132,2.81883 0.59424,4.4772 0.0887,1.77421 0.13319,3.79091 0.13319,6.05498 v 59.97604 h -13.7697 v -40.17186 l -4.42598,-7.36638 -2.64329,0.65571 c -0.2786,0.0696 -0.56388,0.14448 -0.85035,0.21515 v -10.22482 c 0.98784,-1.52491 2.05173,-2.81779 3.17604,-3.89322 v -0.0104 c 2.05577,-1.97011 4.59573,-4.03111 7.62251,-6.16767 l 4.71284,-3.32973 -4.99971,-2.85843 c -0.51495,-0.29426 -1.45932,-0.87687 -2.66378,-1.6495 -1.1555,-0.88694 -2.38572,-1.8025 -3.69855,-2.76623 l -0.0205,-0.0205 c -1.22475,-0.96272 -2.39904,-1.91972 -3.53463,-2.87892 -0.98677,-0.90769 -1.68791,-1.66999 -2.01833,-2.11054 l -1.88514,-2.52034 -2.77648,1.48556 c -3.21467,1.71449 -6.1188,4.10948 -8.68801,7.08976 h -0.0104 c -2.34933,2.7409 -4.37188,5.56373 -6.06523,8.45238 l -1.55728,2.64329 2.33593,1.99783 c 0.7351,0.63009 1.6883,1.39877 2.91991,2.34618 1.19196,0.91688 2.43287,1.8786 3.71905,2.88918 1.2285,0.96525 2.36609,1.91961 3.40144,2.86868 l 0.11271,0.1127 0.12294,0.0923 c 0.23239,0.17875 0.44652,0.34884 0.64545,0.51226 v 10.06089 c -3.71912,0.72475 -7.15788,1.3021 -10.30678,1.75195 l -3.14531,0.45079 v 7.13073 l 5.1329,2.213 v 33.00014 h -11.38254 c -0.0137,-0.40345 -0.029,-0.82003 -0.041,-1.23969 -0.0912,-3.19133 -0.13319,-6.9474 -0.13319,-11.26984 0,-3.45137 0.0849,-6.85895 0.26637,-10.21458 0.17021,-3.23388 0.7277,-6.69215 1.69048,-10.36824 l 0.92209,-3.5039 -3.49366,-0.96306 c -2.33242,-0.64343 -4.65898,-1.65997 -6.9873,-3.07359 -2.27859,-1.38343 -4.41548,-3.14163 -6.42381,-5.31732 l -1.44459,-1.56753 -2.0798,0.48153 c -2.51269,0.57986 -5.05598,1.30079 -7.643,2.16176 -2.50713,0.77298 -5.01544,1.69135 -7.5098,2.74574 -2.40671,0.96434 -4.71928,2.02436 -6.94632,3.18629 -0.9957,0.51949 -1.79554,1.05229 -2.70477,1.57778 -0.69603,-1.1867 -1.21947,-2.39117 -2.07979,-3.55512 -1.79073,-2.42275 -3.86382,-4.45761 -6.19842,-6.014 l -3.45267,-2.30519 -1.86464,3.71904 c -0.40916,0.81835 -1.12938,1.96689 -2.15152,3.32973 -1.0001,1.33347 -2.12901,2.63105 -3.40144,3.90347 -1.27944,1.27944 -2.59938,2.47042 -3.95469,3.5756 -1.27011,0.94674 -2.34955,1.55781 -3.09408,1.84417 l -2.35642,0.90158 v 6.7619 l 2.59206,0.79914 c 0.74752,0.23001 1.13999,0.49452 1.39336,0.74791 l 0.16393,0.16391 0.14344,0.11271 v 0.0104 h 0.0104 v 0.0104 c 0.0473,0.0935 0.39705,0.5888 0.67619,1.64949 l 0.0307,0.12294 0.0308,0.1127 c 0.37452,1.12355 0.75769,3.30136 0.93233,6.27013 0.17758,2.93023 0.27662,6.95311 0.27662,11.99726 v 3.20678 h -18.34935 c 0.0832,-4.58526 0.76327,-8.99822 2.04906,-13.25743 l 0.0104,-0.0104 c 1.38672,-4.6802 3.12087,-8.18726 5.0202,-10.54243 l 1.79293,-2.20274 -1.70072,-2.2847 c -2.04368,-2.7511 -3.73117,-6.46913 -4.93824,-11.20837 -1.22269,-4.89624 -1.83391,-9.77082 -1.83391,-14.64055 0,-3.22481 0.26313,-6.28929 0.77864,-9.21053 v -0.0104 -0.0104 c 0.4974,-2.90151 1.30862,-5.1415 2.29495,-6.76191 l 3.17605,-5.21486 -6.09596,-0.35859 c -1.01308,-0.0596 -3.48921,-0.51146 -6.88485,-1.4036 l -0.0307,-0.0104 c -3.42071,-0.92448 -7.20677,-1.93477 -11.36204,-3.04285 -4.16418,-1.11045 -8.37785,-2.1783 -12.63247,-3.19654 -4.25666,-1.13511 -7.97968,-1.94763 -11.21861,-2.43838 l -1.09626,-0.16393 -0.99379,0.46104 c -2.23321,1.03072 -4.87658,2.04348 -7.89913,3.02236 -3.06529,0.90032 -6.26408,1.75768 -9.6101,2.57158 -3.33224,0.81054 -6.66135,1.47867 -9.98918,2.01833 l -0.0104,0.0104 h -0.0104 c -3.22743,0.53791 -6.1998,0.88977 -8.92367,1.06551 l -11.84357,0.75815 10.20432,6.06522 c 2.16591,1.28601 3.70967,3.20417 4.78456,6.35209 1.1596,3.39598 1.74171,7.00729 1.74171,10.89077 0,2.27142 -0.20852,4.59776 -0.63521,6.9873 l -0.0104,0.0615 -0.0104,0.0615 c -0.34299,2.40098 -0.85832,4.70637 -1.5368,6.91558 -0.68525,2.13826 -1.49249,4.13247 -2.41789,5.98327 l -0.0104,0.0307 -0.0204,0.0308 c -0.79585,1.67129 -1.662,2.96569 -2.56133,3.93419 l -4.12885,4.44647 5.41977,1.48557 v 0.0104 0.0104 0.0104 l 0.0104,0.0104 0.0104,0.0104 c 0.0996,0.13792 0.51398,0.56319 0.94256,1.50605 0.77259,1.69969 1.50217,4.00659 2.11054,6.87461 l 0.0205,0.0615 0.0104,0.0717 c 0.68996,2.75987 1.22264,5.87093 1.57777,9.33349 v 0.0512 l 0.0104,0.0512 c 0.44358,3.37125 0.66594,6.5877 0.66594,9.65109 0,3.32255 -0.26151,6.23546 -0.75815,8.71875 l -0.0104,0.0512 -0.0104,0.041 c -0.38072,2.2082 -1.05888,3.34554 -1.51631,3.77028 l -5.76811,5.35829 7.80692,0.97331 c 1.00391,0.12548 3.41894,0.68637 6.76191,1.68023 l 0.0512,0.0104 0.041,0.0104 c 3.42006,0.92434 7.16023,1.94347 11.22886,3.0531 h 0.0104 l 0.0104,0.0104 c 4.18797,1.1168 8.38263,2.18296 12.571,3.20678 4.26482,1.04252 7.99495,1.7673 11.24935,2.16176 l 1.06551,0.12294 0.96306,-0.46103 c 2.09511,-1.00566 4.71365,-2.00747 7.80692,-2.98139 3.16536,-0.90359 6.42285,-1.76636 9.77403,-2.58182 3.42823,-0.81195 6.80487,-1.48853 10.13261,-2.02857 3.42594,-0.54095 6.51234,-0.89969 9.24127,-1.07575 l 11.38254,-0.72743 -9.67158,-6.04472 c -2.23184,-1.39491 -3.79634,-3.37641 -4.86652,-6.43406 -0.28868,-0.82479 -0.54135,-1.6616 -0.75815,-2.52034 h 17.38629 v 32.46738 c 0,4.6228 -0.36486,8.64768 -1.04502,12.04848 l -0.0104,0.041 v 0.041 c -0.56678,3.2388 -1.60759,5.56002 -2.95066,7.17171 l 4.39524,5.66566 c 3.74979,-1.78561 7.19199,-3.1559 10.30678,-4.10837 3.13165,-0.9297 6.01628,-1.36262 8.65728,-1.36263 2.18077,0 3.94291,0.28069 5.30708,0.75815 l 8.8417,3.09409 -4.38499,-8.27821 c -0.76769,-1.45008 -1.39183,-2.83384 -1.88514,-4.14935 l -0.0204,-0.041 -0.0104,-0.0308 c -0.44541,-1.11353 -0.79528,-2.38451 -1.03478,-3.8215 l -0.0104,-0.0204 v -0.0104 c -0.255,-1.44493 -0.46969,-3.05481 -0.64545,-4.7948 -0.0851,-1.65469 -0.13319,-3.6314 -0.13319,-5.95253 v -9.65108 c 1.09935,0.20143 2.28096,0.30449 3.31948,0.57374 l 0.0204,0.0104 h 0.0104 c 2.38105,0.59525 4.94217,1.46111 7.66349,2.60231 l 1.8544,0.77864 1.65974,-1.14748 c 4.10877,-2.85827 8.19276,-5.26042 12.25339,-7.20245 h 0.0104 l 0.0204,-0.0104 c 4.08389,-1.9985 8.00904,-3.31283 11.79235,-3.98542 l 5.07143,-0.90159 -2.49985,-4.49769 c -0.19138,-0.34446 -0.48985,-1.12226 -0.71718,-2.24372 -0.15294,-0.81861 -0.30005,-1.83496 -0.4303,-3.04286 h 10.80881 v 3.73954 c 0,6.40743 1.82588,12.2811 5.44025,17.17113 l 1.09624,1.48558 h 3.08385 l 0.5225,-0.15369 c 2.72544,-0.81763 5.34793,-1.53932 7.87865,-2.172 2.47085,-0.61772 5.13774,-1.15079 8.00158,-1.59827 l 3.10433,-0.49178 v -7.77618 l -2.3974,-0.89135 c -0.0716,-0.0265 -0.24911,-0.0114 -0.63521,-1.05526 -0.38609,-1.04389 -0.70693,-2.97252 -0.70693,-5.62467 v -2.63305 h 13.7697 v 2.06955 c 0,3.30308 -0.52976,6.02834 -1.49582,8.25772 -0.92464,2.13379 -2.07429,3.34234 -3.6883,4.14935 l -2.36667,1.17821 0.96306,6.74142 h 3.18629 c 3.26262,0 6.56331,-0.40673 9.87647,-1.20895 2.50402,-0.58969 4.75989,-1.40959 7.01804,-2.23348 0.48073,0.41769 0.94499,0.93934 1.45483,1.28066 1.07402,0.74826 2.22413,1.42967 3.46292,2.04906 l 0.0512,0.0308 0.0512,0.0205 c 1.25367,0.57861 2.70515,1.18989 4.35426,1.8339 1.61349,0.7171 3.66099,1.67657 6.13694,2.86869 l 2.87893,1.38312 4.06738,-6.11645 -1.61875,-2.0798 c -1.91597,-2.46339 -3.50799,-4.60306 -4.75383,-6.38283 l -0.0204,-0.0307 -0.0308,-0.041 c -1.0943,-1.4851 -1.92546,-3.01423 -2.54083,-4.61038 -0.53759,-1.63126 -0.94757,-3.56926 -1.19871,-5.82958 -0.10883,-0.97955 -0.20044,-2.08796 -0.26637,-3.32973 h 12.47878 c -0.18793,0.81973 -0.46625,1.42443 -0.48153,1.55728 v 0.0104 0.0104 h 0.0104 0.0104 v -0.0104 h 0.0104 c 0.0194,-0.0154 0.0548,-0.0497 0.0922,-0.0922 l -2.46912,3.08384 3.80101,2.11054 c 1.60986,0.89436 3.02803,1.74021 4.24156,2.52034 l 0.12294,0.0717 0.13319,0.0717 c 1.24583,0.66444 2.44915,1.42009 3.61659,2.25397 l 0.0512,0.0307 0.0512,0.0308 c 1.24681,0.83121 2.50859,1.79845 3.79077,2.90967 l 0.10247,0.0922 0.10247,0.0717 c 1.36284,1.02213 2.95347,2.3436 4.74357,3.95469 l 2.59207,2.33594 2.45888,-2.46913 c 1.42624,-1.42624 2.79567,-2.70431 4.10836,-3.84198 l 0.0104,-0.0104 c 1.39068,-1.21684 2.8799,-2.39581 4.45672,-3.53463 1.56072,-1.1272 3.31454,-2.26875 5.26608,-3.42194 0.43704,-0.25825 1.06581,-0.58159 1.5368,-0.85036 v 6.76191 l 0.0104,0.0512 c 0.0929,3.34207 0.18304,6.1245 0.27662,8.37043 v 0.0717 l 0.0104,0.0717 c 0.18426,2.30333 0.3191,4.14094 0.40982,5.50173 l 0.0104,0.10247 0.0104,0.1127 c 0.0462,0.37007 0.097,0.65004 0.14343,1.00404 l -5.76811,1.84415 c -1.64338,-1.21698 -3.29904,-2.42966 -5.3378,-3.66782 -2.55689,-1.60853 -5.1549,-3.11794 -7.80693,-4.53867 -2.67611,-1.43363 -5.18634,-2.64591 -7.54054,-3.62683 l -0.041,-0.0104 -0.0307,-0.0205 c -2.26998,-0.88825 -3.95013,-1.45722 -5.72713,-1.61876 l -1.65974,-0.15367 -1.20894,1.15771 c -2.46498,2.3578 -4.58861,5.27045 -6.40332,8.69826 l -0.0205,0.0615 -0.0307,0.0615 c -1.72614,3.5538 -2.98599,7.42638 -3.78053,11.59768 l -0.81962,4.36452 h 4.43622 c 4.5655,0 8.85067,0.79362 12.96031,2.38715 4.13072,1.6017 8.77985,4.24667 13.86191,7.99134 l 2.48961,1.8339 2.23347,-2.14126 c 2.1281,-2.04298 4.57538,-3.97202 7.35614,-5.79884 2.80818,-1.75239 5.65616,-3.29087 8.53434,-4.60015 2.96594,-1.30751 5.86007,-2.33721 8.69827,-3.11457 2.8039,-0.67661 5.33218,-1.00404 7.56104,-1.00404 h 4.65137 l -1.07576,-4.51818 c -0.35684,-1.49869 -0.70116,-4.34087 -0.8811,-8.19625 -0.0906,-3.83299 -0.13318,-8.63437 -0.13318,-14.41515 v -13.88239 l 3.9e-4,-9.14925 v -46.7391 l -5.30707,2.65354 c -2.82375,1.41187 -6.30886,2.62924 -10.43997,3.5961 h -0.0104 -0.0104 c -1.30843,0.31288 -2.62788,0.58972 -3.95469,0.82987 v -21.32049 c 0.15361,-0.13843 0.30867,-0.27268 0.46104,-0.40981 1.79261,-1.61336 3.44254,-2.98027 4.91776,-4.10837 l 0.0512,-0.041 0.0512,-0.0512 c 1.52611,-1.25678 2.68544,-2.13521 3.30924,-2.55108 l 4.93824,-3.29899 -5.1534,-2.9404 c -0.51783,-0.29591 -1.4594,-0.88032 -2.67402,-1.65975 -1.15144,-0.88364 -2.37057,-1.79615 -3.67806,-2.75598 l -0.0308,-0.0205 c -1.22477,-0.96273 -2.39903,-1.92997 -3.53463,-2.88918 -0.98676,-0.90769 -1.6879,-1.65973 -2.01831,-2.10029 z M 165.8099,340.90456 c 1.54769,0.29681 3.03728,0.60946 4.16984,0.94257 h 0.0204 l 0.0308,0.0104 c 1.49306,0.41473 2.83477,0.90351 4.01616,1.45483 l 0.12294,0.0615 0.13319,0.0512 c 1.3312,0.4992 2.61666,1.07727 3.86248,1.74171 0.82369,0.4393 1.80784,0.98774 2.7355,1.49581 0.0858,1.44879 0.18441,2.87902 0.18441,4.42597 v 6.80289 c 0,8.85649 -0.092,18.22367 -0.27662,28.10288 v 0.0205 0.0104 c -0.0843,8.93824 -0.21786,17.43191 -0.37907,25.67473 -0.64196,0.24306 -0.76494,0.33796 -1.93636,0.66595 -2.46584,0.60824 -5.35924,1.81377 -8.72901,3.44242 -1.55575,-0.29657 -3.0704,-0.60301 -4.29279,-0.94256 -1.5273,-0.42424 -2.9446,-0.89567 -4.28254,-1.39336 -1.28033,-0.60051 -2.56755,-1.24096 -3.85223,-1.92612 -0.80328,-0.42842 -1.7616,-0.95078 -2.66378,-1.4446 -0.0132,-3.22716 -0.0366,-6.60078 -0.1127,-10.57315 v -0.0717 -13.39062 -12.2124 -11.85383 c 0.0925,-3.78898 0.18428,-7.28969 0.27663,-10.52193 v -0.0104 c 0.0666,-2.39625 0.13857,-4.21419 0.2049,-6.07546 0.65824,-0.27018 0.85932,-0.39758 2.0798,-0.7889 l 0.0205,-0.0104 c 2.37673,-0.73551 5.37081,-2.09132 8.66753,-3.68831 z m 97.44313,40.11038 c -0.0838,1.24662 -0.17241,2.36904 -0.25613,3.7088 v 0.0615 0.0512 c -0.0937,2.99886 -0.14344,5.99648 -0.14344,8.99538 v 10.0404 0.0512 c 0.0672,2.48471 0.18906,4.22778 0.30737,6.03448 -1.10324,0.60158 -2.14911,1.09193 -3.37072,1.90563 -1.24861,0.81217 -2.15002,1.58029 -3.13505,2.35642 -1.40263,-0.45649 -2.76292,-0.92125 -4.3645,-1.32165 -1.0528,-0.26319 -1.84419,-0.30909 -2.77648,-0.48153 v -27.26274 c 0.56499,-0.27263 0.93601,-0.50572 1.69047,-0.79912 l 0.0717,-0.041 0.082,-0.0307 c 1.49243,-0.66331 3.13308,-1.24937 4.92799,-1.7622 1.82453,-0.52129 3.70482,-0.96233 5.62468,-1.3114 l 0.0615,-0.0104 0.0615,-0.0104 c 0.44505,-0.0967 0.79156,-0.0958 1.21919,-0.17416 z"
       inkscape:label="text"
       sodipodi:nodetypes="ccccccccccccccscccccccccccccscccscccccccccccsccccccccccccccscccccsccccccscccscccssccccccccccccccccccccccccsscccccccccccssccccscccccscscccsscccccscccccccccsccccccccscccccsccscccccsccccccsscccccccscccccccsccccccsccccccccccccsccccccccssccsccccccsccccccccccsccccccccccscccccsccccsccccssccsscccscccccccccccccccsccccccccccccccccccccccccccssccccccccccccscccccccccccssccccccscscscccscccccsccccccccccccsccccccscssccccccscscccccccccccssscccscccccscccccsccccs" /><path
       d="m 197.43301,86.633363 c -2.20356,0.02747 -4.46749,0.296552 -6.01696,0.296552 -3.04832,0 -8.40869,-0.94131 -10.78761,1.341983 -3.00429,2.88351 -1.16613,10.784508 -1.26729,14.530742 -0.35304,13.07455 -0.13093,26.17343 -0.13093,39.24958 0,3.50914 -1.45226,11.00705 1.3982,13.6914 3.4085,3.20981 19.7041,0.50763 24.70678,0.50763 v -22.54753 c -6.76566,0 17.37775,-0.50093 32.19524,-0.84944 6.74878,-0.15873 12.4144,-2.56763 16.25996,4.76486 2.63931,5.03233 0.28195,7.17931 -1.45578,11.15313 -1.3836,3.16394 -0.13559,6.08791 0.85882,9.14769 -4.70346,-1.9986 -18.73395,-7.68247 -23.4133,-5.18705 -11.53928,6.15374 0.95022,24.10142 10.36343,24.39717 l -7.12191,21.1201 -1.0107,7.2528 c 0,0 -2.48341,25.19607 -3.75877,32.88713 -0.53842,9.75852 -0.98335,10.00274 1.83516,16.10753 4.27095,9.25073 2.10305,4.25324 5.70452,11.99829 10.55474,20.99622 23.25874,23.80963 23.25874,23.80963 l 2.84624,1.24598 21.75326,10.86666 10.29536,5.32776 8.85005,-4.85532 18.27085,-8.83605 3.64183,-2.08024 c 0,0 14.59559,-6.65619 21.68807,-15.45616 1.7082,-2.11944 4.91312,-6.48592 6.5702,-9.67631 1.08408,-2.08719 1.62053,-3.26689 4.07567,-8.09289 1.41363,-2.77873 6.13539,-27.78519 5.06428,-37.35316 -0.97836,-5.74432 -3.5142,-13.90907 -3.6238,-15.86771 -1.90389,-6.69465 -5.97975,-13.99049 -6.11124,-21.1603 -0.0188,-1.024 0.0445,-2.04414 0.2043,-3.06096 1.2444,-7.91383 10.27515,-12.69659 11.52599,-20.04449 2.72713,-16.02002 -21.50012,-6.60763 -28.24153,-3.34241 l -0.86929,-0.83437 c 3.97036,-8.05917 -3.65574,-11.53821 -2.08423,-18.5919 0.75063,-3.36897 2.22788,-5.0943 5.56138,-5.51374 9.06361,-1.14049 20.51815,-1.0447 29.58739,-0.11556 7.29614,-0.0203 13.51812,-8.65903 5.51946,-13.63608 5.1521,-6.87451 3.87904,-14.91956 -5.51946,-12.25388 l -164.45871,0.8394 c 1.8004,-4.07811 3.83881,-16.767495 -0.52365,-20.024388 -1.29675,-0.968115 -3.43645,-1.183465 -5.64002,-1.156032 z m 90.27269,45.264727 14.80234,0.12079 c 4.28699,0.035 7.28946,-0.80358 10.41055,2.67896 5.35541,5.97554 0.68601,9.54051 -1.01591,14.86247 -0.84768,2.65058 0.83609,5.17157 1.91664,7.51418 l -17.31155,-3.92941 -18.37479,3.80862 c 2.1159,-7.76015 -5.94854,-15.89781 -1.26202,-22.14543 4.59776,-1.99648 6.0006,-2.94963 10.83474,-2.91018 z m 11.16225,71.49892 11.71978,0.13576 -0.98976,7.87102 11.91349,13.82206 -13.88771,1.21131 v 0.60818 l 5.05341,0.60314 -0.39275,15.60133 c -7.39714,0 -13.77307,0.1132 -21.15104,0.0905 -2.44009,-0.007 -2.85702,0.78534 -5.07964,-0.26639 -4.04203,-1.91266 2.2572,-14.66646 -4.79156,-13.82708 -4.80634,0.57238 -3.61333,10.59103 -3.61333,13.67629 -1.70612,-1.8e-4 -4.50173,0.4651 -5.93318,-0.62326 -2.99678,-2.27856 -0.61793,-13.85638 -0.61793,-17.39566 h -6.31024 c 2.15068,-4.63265 7.92147,-12.23903 13.06035,-14.05829 5.03489,-1.78243 9.40106,-0.5556 14.74656,-0.55791 2.11501,-0.001 6.29363,0.85626 7.28425,-1.52796 0.66924,-1.61079 -0.6417,-3.77536 -1.0107,-5.36297 z"
       style="fill:none;stroke:#000000;stroke-width:0.95000006;stroke-dasharray:none;stroke-opacity:1"
       id="path1-3"
       sodipodi:nodetypes="ssssssccssscsccccsccccccccsssscscsccssccccssssssscccsscccccccccsscsccscssc" /></g><style
     id="style1-5">
		tspan { white-space:pre } 
		.s0 { fill: none;stroke: #ff0000;stroke-miterlimit:100 } 
	</style></svg>
