<?xml version="1.0" encoding="UTF-8" standalone="no"?>
<svg
   version="1.2"
   viewBox="0 0 113.38583 113.38583"
   width="30mm"
   height="30mm"
   id="svg1"
   sodipodi:docname="Profesor2ReminderTokenLaser.svg"
   inkscape:version="1.4.2 (f4327f4, 2025-05-13)"
   xml:space="preserve"
   xmlns:inkscape="http://www.inkscape.org/namespaces/inkscape"
   xmlns:sodipodi="http://sodipodi.sourceforge.net/DTD/sodipodi-0.dtd"
   xmlns="http://www.w3.org/2000/svg"
   xmlns:svg="http://www.w3.org/2000/svg"><sodipodi:namedview
     id="namedview1"
     pagecolor="#ffffff"
     bordercolor="#666666"
     borderopacity="1.0"
     inkscape:showpageshadow="2"
     inkscape:pageopacity="0.0"
     inkscape:pagecheckerboard="0"
     inkscape:deskcolor="#d1d1d1"
     inkscape:zoom="1.9289185"
     inkscape:cx="1.5552757"
     inkscape:cy="107.05481"
     inkscape:window-width="1920"
     inkscape:window-height="1057"
     inkscape:window-x="-8"
     inkscape:window-y="410"
     inkscape:window-maximized="1"
     inkscape:current-layer="layer2"
     showgrid="false"
     inkscape:document-units="mm" /><defs
     id="defs1"><clipPath
       clipPathUnits="userSpaceOnUse"
       id="cp1"><path
         d="m 275.5,535.5 c -143.78,0 -260,-116.22 -260,-260 0,-143.78 116.22,-260 260,-260 143.78,0 260,116.22 260,260 0,143.78 -116.22,260 -260,260 z"
         id="path1" /></clipPath><clipPath
       clipPathUnits="userSpaceOnUse"
       id="cp1-9"><path
         d="m 275.5,535.5 c -143.78,0 -260,-116.22 -260,-260 0,-143.78 116.22,-260 260,-260 143.78,0 260,116.22 260,260 0,143.78 -116.22,260 -260,260 z"
         id="path1-3" /></clipPath></defs><style
     id="style1">
		tspan { white-space:pre } 
		.s0 { fill: none;stroke: #ff0000;stroke-miterlimit:100 } 
	</style><g
     inkscape:groupmode="layer"
     id="layer2"
     inkscape:label="Content"
     style="display:inline"
     transform="scale(0.1989225)"><g
       inkscape:groupmode="layer"
       id="layer3"
       inkscape:label="Kruh"
       transform="scale(5.0270836)"><path
         id="path2"
         style="fill:none;stroke:#000000;stroke-width:0.949978"
         inkscape:label="vnejsi kruh"
         transform="scale(0.19892249)"
         d="M 569.5184,284.99338 A 284.52502,284.52502 0 0 1 284.99338,569.5184 284.52502,284.52502 0 0 1 0.46835327,284.99338 284.52502,284.52502 0 0 1 284.99338,0.46835327 284.52502,284.52502 0 0 1 569.5184,284.99338 Z" /><path
         id="path2-9"
         style="fill:none;stroke:#000000;stroke-width:0.95000007;stroke-dasharray:none"
         inkscape:label="vnitrni kruh"
         transform="scale(0.19892249)"
         d="M 529.26178,284.99338 A 244.2684,244.2684 0 0 1 284.99338,529.26178 244.2684,244.2684 0 0 1 40.724976,284.99338 244.2684,244.2684 0 0 1 284.99338,40.724976 244.2684,244.2684 0 0 1 529.26178,284.99338 Z" /></g><path
       id="path3"
       style="baseline-shift:baseline;display:inline;overflow:visible;opacity:1;fill:none;stroke:#000000;stroke-width:0.95;stroke-linejoin:round;stroke-dasharray:none;stroke-opacity:1;enable-background:accumulate;stop-color:#000000;stop-opacity:1"
       d="m 277.99681,79.361817 c -1.89934,0.03934 -3.76828,0.268967 -5.57692,0.657841 -7.20684,1.549528 -13.39331,5.585075 -18.40973,10.643278 -8.076,8.143191 -13.16207,19.080874 -15.12053,29.946494 -6.38032,-0.49247 -13.50879,-1.13046 -21.04109,-0.55966 -10.24178,0.77613 -21.39652,4.31222 -28.61117,14.46268 -1.86351,2.62028 -1.6914,5.82066 -0.2651,8.24756 -0.13797,0.0467 -0.29514,0.0496 -0.43202,0.0982 -4.50826,1.60004 -8.79106,4.39184 -11.75277,8.62066 -3.03086,4.32757 -4.33079,10.02603 -3.08302,15.90601 1.73091,8.15681 6.40471,13.42714 11.53677,16.10238 4.70128,2.45071 8.72786,3.29255 11.76259,5.08599 2.89412,1.71032 6.38875,4.88182 10.20144,8.17883 -7.18625,6.65944 -14.04294,15.38497 -17.79116,25.60671 -2.43498,6.64041 -3.63437,13.91118 -1.89498,21.04109 1.76582,7.23821 6.77022,13.74697 14.58051,17.9188 4.17253,2.22873 8.64733,3.3442 12.48916,4.03542 13.55713,2.43908 26.83563,0.29805 39.25445,-3.27939 -0.99229,2.0943 -1.7983,4.31942 -2.14043,6.77478 -1.61494,11.59002 5.84495,22.86773 16.98604,26.08782 2.97963,0.86122 5.59584,0.7904 7.05952,0.83457 1.28641,0.0388 2.13279,0.23031 2.2288,0.23564 h 0.01 v -0.01 c 3.3162,1.46893 7.32714,3.83165 12.18479,5.51801 4.97228,1.72614 11.17255,2.58077 17.61443,0.25528 11.64441,-4.20422 17.86788,-14.94734 21.18837,-25.43979 2.28173,-7.21015 3.12083,-14.30228 3.59358,-20.79564 13.33502,2.89444 28.90411,5.23407 43.28986,-0.01 6.82319,-2.48718 12.94263,-6.56388 16.85841,-12.57753 3.97273,-6.10101 5.16009,-13.94728 2.90628,-21.9444 -3.09716,-10.98938 -9.84878,-20.44409 -16.86822,-27.99261 -2.14153,-2.30297 -4.62895,-4.06771 -6.46059,-5.68492 -0.51324,-0.45314 -0.89994,-0.91825 -1.31568,-1.38441 0.82881,-1.25072 2.32726,-2.99487 3.59358,-5.30201 2.95963,-5.39222 4.39759,-10.73723 5.5671,-12.44006 1.09757,-1.5981 2.87243,-3.20523 4.98781,-5.73402 2.27109,-2.71492 4.54115,-6.62035 5.07618,-11.77241 0.84271,-8.11509 -2.22252,-15.23047 -7.40317,-19.70578 -5.01724,-4.33414 -11.30909,-6.26382 -17.33951,-7.05951 -13.77463,-1.81747 -29.3517,-2.9881 -44.55646,0.29455 -3.78644,-14.73875 -11.47745,-31.564165 -25.70489,-40.069384 -3.73953,-2.235469 -7.60194,-3.678418 -11.45821,-4.349606 -1.92249,-0.334604 -3.845,-0.481162 -5.74384,-0.441833 z m 4.07469,32.676043 c 0.22304,-0.0119 0.43356,-0.009 0.62838,0 0.19839,0.009 0.40757,0.0283 0.61857,0.0589 0.81885,0.11916 1.68599,0.4086 2.71973,0.94258 1.94581,1.00509 4.31484,3.03511 6.44095,5.66528 2.79224,3.45429 4.88635,7.74602 6.5195,11.77241 l -10.17199,4.35943 -8.17883,-2.86701 a 3.3253325,3.3253325 0 0 0 -0.29455,-0.0884 c -0.0636,-0.0166 -0.21664,-0.0523 -0.43202,-0.0786 a 3.3253325,3.3253325 0 0 0 -0.33383,-0.0196 h 0.49093 l -13.35319,-4.59507 c 0.62608,-1.29351 1.2897,-2.52561 2.0717,-3.64268 1.698,-2.42562 3.91812,-5.19945 6.15622,-7.37371 2.2187,-2.15542 4.68286,-3.65433 5.74383,-3.91759 0.49664,-0.12325 0.9415,-0.19289 1.3746,-0.216 z m -59.64753,27.59986 c 1.75015,-0.0338 3.53994,0.0119 5.40019,0.13746 2.40048,0.16201 5.17269,0.51108 7.92355,0.83458 -0.85918,11.95741 -1.30562,24.66391 -0.66766,37.46748 -2.23833,-0.97663 -4.96042,-0.93422 -7.27553,0.60875 l -2.759,1.83606 c -0.545,-0.7469 -1.05739,-1.48809 -1.6397,-2.20917 -1.84556,-2.28536 -2.97538,-4.44783 -3.10265,-5.06635 -0.31846,-1.54776 0.30095,-3.95923 0.87385,-8.06101 0.65045,-4.65688 -0.0608,-11.10328 -5.06636,-16.61294 -2.6506,-2.9175 -5.86712,-4.88428 -9.30796,-6.05803 5.46808,-1.91609 10.37081,-2.77554 15.62127,-2.87683 z m 110.70384,1.93425 c 2.76284,-0.0409 5.37243,0.26445 7.94319,1.03095 1.08203,0.32262 1.92677,0.6019 2.66082,0.86403 -0.0612,0.54885 -0.11598,1.09488 -0.25528,1.8557 -0.48,2.61614 -1.30964,7.28049 0.93276,12.15533 1.74371,3.79064 4.52259,6.07459 6.06784,7.46208 0.73946,0.66395 1.34109,1.26779 1.73788,1.70842 0.0997,0.1107 0.14268,0.13796 0.1571,0.14728 v 0.01 h 0.01 v 0.01 l 0.01,0.01 c 0.004,0.008 0.0106,0.0162 0.0196,0.0295 -7.4e-4,0.14933 0.002,0.27861 -0.0196,0.45165 -0.089,0.72411 -0.34356,1.81384 -0.73639,2.9161 L 335.769,160.07007 328.17928,154.75825 325.381,142.7011 c 1.69513,-0.37312 3.49526,-0.84034 4.93872,-0.97203 0.94947,-0.0866 1.88585,-0.14343 2.80809,-0.1571 z m -74.02184,4.49689 7.98246,2.99464 -10.36836,7.3148 c 0.61233,-3.50762 1.4339,-6.93486 2.3859,-10.30944 z m 28.05152,10.69237 c 1.87444,0.33431 4.90665,1.52873 8.15919,3.24011 3.46446,1.82289 7.15974,4.08051 10.42727,5.9893 1.56592,0.91474 2.98333,1.64316 3.87832,2.17971 0.34291,0.20557 0.58358,0.38772 0.76585,0.5302 0.78967,1.51692 1.77989,5.73386 2.06189,10.27999 0.11638,1.87632 0.17023,3.83466 0.22582,5.82239 h -2.68045 c -1.2957,-4.76917 -3.92661,-9.26612 -7.98246,-12.59717 -3.58879,-2.94747 -8.23953,-4.78825 -13.37283,-4.96817 -1.71183,-0.06 -3.46626,0.0671 -5.25291,0.38292 -7.35613,1.30027 -13.13604,5.39747 -16.38712,10.8102 -1.21619,2.02482 -2.07626,4.17206 -2.62154,6.37222 h -10.02471 c 0.0974,-4.5633 0.30096,-9.08618 0.61856,-13.5692 0.38453,0.20251 0.70779,0.47245 1.13895,0.60875 1.93953,0.61314 4.07212,0.38662 5.94021,-0.63821 a 3.3253325,3.3253325 0 0 0 0.0294,-0.01 c 6.99014,-3.89167 13.4375,-8.11718 19.80396,-11.73313 1.50878,-0.85691 3.0344,-1.72235 4.16306,-2.26808 0.40237,-0.19456 0.7895,-0.32926 1.10949,-0.43201 z m 44.84119,26.8242 c 1.92555,1.38075 3.93614,2.72093 5.75366,4.17287 1.08762,0.86883 1.87274,1.42334 2.66082,2.00298 -0.41352,0.48066 -0.64637,0.7667 -1.13895,1.35496 -1.90748,2.27809 -4.05751,4.39508 -6.29367,6.43113 z m -77.74306,9.99526 h 9.54361 c 0.074,0.69371 0.17689,1.3801 0.30437,2.06189 1.06399,5.69046 3.99794,11.17698 8.85631,15.0027 4.939,3.8892 11.75202,5.68354 19.02829,4.29069 7.13138,-1.36513 12.69535,-5.52313 15.78819,-10.88874 1.8919,-3.28223 2.87916,-6.87103 3.11247,-10.46654 h 2.2779 c 0.0142,0.12874 0.0241,0.25471 0.0393,0.38292 0.4002,3.38103 1.14563,7.99327 1.34514,12.13569 0.0947,1.96578 -0.005,3.90139 -0.21601,5.32164 -0.0963,0.64897 -0.2455,1.23631 -0.3731,1.6397 -0.03,0.0949 -0.0789,0.16204 -0.12764,0.25528 -0.0778,0.0439 -1.03512,0.91511 -2.435,1.83606 -1.49644,0.98448 -3.36723,2.11755 -5.16454,3.25975 -2.40645,1.52923 -5.00056,3.31639 -7.32462,4.71289 -2.28204,1.37128 -4.76815,2.29506 -4.93871,2.31717 -1.33845,0.1735 -6.2328,-0.72887 -10.75129,-2.61172 -4.62014,-1.92519 -9.44713,-4.54182 -13.53974,-6.48023 -2.83846,-1.34439 -6.32883,-2.80443 -9.22941,-4.38888 -1.34503,-0.73472 -2.62686,-1.62158 -3.57394,-2.3859 -0.71154,-0.57423 -1.29296,-1.28402 -1.40405,-1.36477 l -0.01,-0.01 c -0.30485,-0.80588 -1.08315,-3.86138 -1.2175,-6.83369 -0.11198,-2.47752 -0.037,-5.19001 0.01,-7.78609 z m 101.05224,11.32075 c 2.61329,2.5769 5.22649,6.32804 6.46059,10.30945 0.96034,3.09824 1.20902,6.19262 0.83457,8.33593 -0.40424,2.3136 -0.98873,3.39283 -2.67064,4.63434 -5.22121,3.85406 -15.73881,4.4637 -25.60671,3.76049 l 0.32402,-7.94318 7.55044,-6.16603 a 3.3253325,3.3253325 0 0 0 0.01,0 c 0.23692,-0.1926 0.41047,-0.36312 0.54002,-0.49093 z m -131.68603,3.52485 c 0.89838,0.55955 1.84367,1.14504 2.97501,2.0128 3.0422,2.33343 6.15657,5.30236 9.45524,7.35407 1.44772,0.90046 3.04532,1.85011 4.58525,2.78846 0.0727,0.74146 0.21124,1.49059 0.61857,2.1208 a 3.3253325,3.3253325 0 0 0 0.01,0.01 c 0.31419,0.48298 0.79552,0.80955 1.20768,1.20768 l 0.19637,0.25528 0.0294,-0.0294 c 0.10391,0.0922 0.18564,0.20806 0.29456,0.29455 0.80066,1.2881 1.90602,2.61344 3.87831,3.16157 a 3.3253325,3.3253325 0 0 0 0.0196,0 c 0.41163,0.11194 0.83109,0.16965 1.25677,0.16691 h 0.70693 c 0.0495,4.7e-4 0.0978,0.001 0.14728,0 a 3.3253325,3.3253325 0 0 0 0.0687,-0.01 c 1.02058,-0.0459 1.76441,-0.34231 2.3859,-0.68729 5.35088,3.22682 10.88514,6.27089 16.68167,8.8563 -7.6616,2.41875 -17.87279,4.97682 -27.48204,5.36092 -10.80717,0.43196 -19.30007,-1.89949 -23.19135,-7.30498 -1.8369,-2.55168 -2.14225,-5.38246 -1.24695,-9.57306 0.87375,-4.0898 3.16737,-8.89435 5.51801,-12.70517 0.76651,-1.24264 1.31728,-2.28549 1.88515,-3.27939 z m 72.31342,37.80131 c 1.34402,-0.0376 4.34538,0.64492 7.67809,1.85571 1.76085,0.63971 3.74646,1.15036 5.6751,1.6986 -1.49229,6.71737 -4.25777,13.71334 -7.82536,18.47846 -0.83483,1.11506 -1.91843,1.90375 -2.21899,2.14044 v -0.01 l -0.01,-0.01 -0.01,-0.01 -0.01,-0.01 c -0.003,-0.006 -0.005,-0.0177 -0.01,-0.0294 -0.27146,-0.66717 -0.62503,-1.84973 -1.00149,-3.46594 -0.78115,-3.35352 -1.99524,-9.34586 -7.25589,-13.58884 -1.67432,-1.35042 -3.46404,-2.30059 -5.302,-3.04374 4.02742,-1.89191 7.67086,-3.60436 9.83816,-3.96668 0.11936,-0.02 0.26734,-0.0342 0.45165,-0.0393 z" /><path
       id="path6"
       style="font-size:149.808px;font-family:'New Rocker';-inkscape-font-specification:'New Rocker';letter-spacing:2.27644px;baseline-shift:baseline;white-space:pre;display:inline;overflow:visible;fill:none;stroke:#000000;stroke-width:0.95;stroke-dasharray:none;stroke-opacity:1;enable-background:accumulate;stop-color:#000000"
       d="m 377.64628,436.92378 c -2.28778,-0.88701 -4.10638,-1.52921 -6.29368,-1.72806 l -2.7099,-0.24546 -1.98334,1.88516 c -2.84815,2.72432 -5.25324,6.05973 -7.29516,9.9167 l -0.0491,0.0982 -0.0491,0.0884 c -1.94848,4.01157 -3.35372,8.3776 -4.2416,13.03899 l -1.35496,7.12825 h 7.25589 c 4.68892,0 9.05444,0.8062 13.25502,2.43499 4.23503,1.64215 9.11281,4.41148 14.49214,8.3752 l 4.07468,3.00447 3.64267,-3.50521 c 2.19182,-2.10415 4.74172,-4.11352 7.63882,-6.01876 2.94884,-1.8391 5.9226,-3.44013 8.93485,-4.81107 3.10317,-1.36744 6.12612,-2.45113 9.07232,-3.25975 2.88347,-0.69326 5.44538,-1.02113 7.64862,-1.02113 h 7.60935 l -1.76733,-7.39334 c -0.32545,-1.3669 -0.69166,-4.35152 -0.88367,-8.4243 -0.0971,-4.11208 -0.14728,-9.26876 -0.14728,-15.49363 v -78.62672 l -8.68939,4.33978 c -2.86915,1.43458 -6.48147,2.70581 -10.82001,3.72122 h -0.01 -0.0196 c -1.59377,0.38112 -3.20034,0.71422 -4.82089,0.99167 v -17.43769 c 0.98846,-0.8944 1.95419,-1.76369 2.89646,-2.61173 1.90292,-1.71263 3.63622,-3.16356 5.17436,-4.33979 l 0.0884,-0.0589 0.0786,-0.0687 c 1.62138,-1.33525 2.84975,-2.26966 3.40702,-2.64118 l 8.09047,-5.39037 -8.44393,-4.81108 c -0.48797,-0.27884 -1.47846,-0.90036 -2.73937,-1.70842 -1.21416,-0.93075 -2.50015,-1.89142 -3.8685,-2.89646 -1.29959,-1.0211 -2.54764,-2.03818 -3.75067,-3.05356 -0.98502,-0.90995 -1.66244,-1.66348 -1.89498,-1.97353 l -5.8322,-7.76645 -4.33979,8.68939 c -0.7994,1.5988 -1.87704,3.51362 -3.21066,5.70457 l -0.0491,0.0785 -0.0393,0.0884 c -1.23345,2.18224 -2.57458,4.3738 -4.00596,6.56859 l -0.01,0.0196 -0.0196,0.0295 c -1.38872,2.18228 -2.72895,4.26483 -4.01578,6.24458 l -0.0589,0.0884 -0.0589,0.0982 c -1.20604,2.01006 -2.15682,3.62588 -2.87683,4.86017 l -2.61173,4.47724 4.04523,3.2303 c 1.28208,1.02566 2.09029,1.87116 2.30736,2.15025 l 0.22582,0.29456 0.2651,0.25528 c 1.06432,1.06432 2.36938,2.19451 4.05505,3.56412 l 0.45166,0.36329 -6.5195,3.00447 c -0.91727,0.42336 -2.47374,1.0116 -4.46743,1.64951 -2.07059,0.56244 -4.32946,1.12749 -6.80424,1.6986 -2.48247,0.57287 -4.96161,1.10209 -7.44244,1.58079 -2.46364,0.37741 -4.6806,0.66084 -6.60786,0.84439 l -4.63435,0.44183 7.54063,-11.30112 -16.1122,4.95836 c -3.67751,1.13154 -7.40249,2.07091 -11.17348,2.82773 -3.78815,0.66073 -7.52005,1.13133 -11.19311,1.41387 l -5.20382,0.40256 -0.73639,11.67422 3.69177,1.73788 c 0.28197,0.13269 0.36972,0.0996 0.72657,0.99167 l 0.0491,0.11782 0.0491,0.11783 c 0.28416,0.63148 0.82476,2.97491 0.82476,6.51949 0,2.62024 -0.18541,5.83812 -0.56948,9.58288 -0.37883,3.59411 -0.94448,7.29487 -1.70842,11.11457 l -0.0196,0.0687 -0.01,0.0786 c -0.66124,3.7785 -1.51369,7.39704 -2.543,10.85928 l -0.01,0.0491 -0.0196,0.0491 c -0.0154,0.0555 -0.0336,0.0922 -0.0491,0.14728 8e-5,-0.0608 0.01,-0.12594 0.01,-0.18656 v -6.44095 c 0,-10.96588 -0.50263,-20.57911 -1.54151,-28.89591 -0.9551,-8.45098 -2.56284,-14.93837 -5.95984,-19.89232 l -3.65249,-5.33146 -5.04672,4.04523 c -0.32359,0.25887 -1.47058,0.95136 -3.13211,1.70842 -1.80823,0.71968 -3.81041,1.45176 -6.01876,2.18953 -2.13698,0.64918 -4.32349,1.25549 -6.55877,1.81643 -2.21738,0.45907 -4.08956,0.77568 -5.50819,0.94258 l -5.302,0.62838 v 12.7739 l 6.17585,1.27641 c 1.14097,2.46248 2.29279,5.68345 3.24011,10.20144 l 0.01,0.0393 0.01,0.0491 c 1.11385,4.93279 1.77606,11.16605 1.91461,18.61592 H 276.2406 v -42.87749 l -5.84201,-9.73016 -4.32016,1.07022 c -0.42054,0.10514 -0.91021,0.21781 -1.41386,0.33383 v -3.05356 l 1.05059,-2.10116 c 1.44511,-2.89022 3.05725,-5.0955 4.7718,-6.73551 h 0.01 c 2.12755,-2.0389 4.79109,-4.21075 7.99228,-6.4704 l 7.70755,-5.43947 -8.18865,-4.68343 c -0.48517,-0.27724 -1.47944,-0.88793 -2.72955,-1.68879 -1.23067,-0.94359 -2.52834,-1.91574 -3.91759,-2.93573 -1.28558,-1.0108 -2.52047,-2.01892 -3.71141,-3.02411 -0.98665,-0.91119 -1.67204,-1.66317 -1.9048,-1.97352 l -3.08301,-4.11396 -4.54598,2.41535 c -3.71413,1.98087 -7.04023,4.73765 -9.95598,8.11992 l -0.01,0.01 v 0.01 c -2.60762,3.04222 -4.87009,6.17371 -6.76496,9.40614 l -2.543,4.32997 3.81941,3.26957 c 0.84213,0.72183 1.89459,1.55708 3.24011,2.59209 1.28064,0.98511 2.61283,2.02557 3.99614,3.11247 1.28899,1.01278 2.46848,2.00832 3.54448,2.99465 l 0.18656,0.17673 0.20618,0.1571 c 1.11553,0.8581 1.82966,1.55367 1.95389,1.6986 l 0.108,0.12765 v 5.85183 c -0.15978,0.0359 -0.32415,0.0714 -0.49092,0.10801 -3.99313,0.77848 -7.6719,1.40457 -11.03602,1.88515 l -5.15473,0.73639 v 10.80038 l 5.53765,2.39572 v 6.61768 h -34.22737 l 0.78548,-3.12229 c -0.77043,-0.4109 -1.01164,-0.63204 -1.35495,-0.89348 0.0445,-0.31642 0.23496,-1.45318 1.11931,-3.38739 1.09823,-2.27339 3.00398,-5.52711 5.69474,-9.56324 l 0.0196,-0.0295 0.0196,-0.0295 c 2.70226,-4.14991 6.29416,-9.25887 10.74146,-15.28744 l 0.01,-0.0196 0.01,-0.0196 c 4.4712,-6.16033 9.9562,-13.58536 16.4362,-22.25859 l 8.44393,-11.2913 -14.00121,1.7477 c -3.96366,0.49546 -7.62148,0.93924 -10.98693,1.33531 -3.32647,0.29383 -6.51938,0.58942 -9.56324,0.88367 -3.01781,0.19481 -5.92818,0.38437 -8.75812,0.57929 -2.60619,0.0894 -5.26778,0.13088 -7.96282,0.13746 5.08658,-3.45823 9.91146,-6.73502 13.57901,-9.18031 4.66748,-3.04401 7.63401,-5.06083 9.62216,-6.76497 l 5.49837,-4.71289 -5.65547,-4.52634 c -1.39644,-1.11715 -2.42174,-2.029 -2.95537,-2.56263 -0.88741,-0.8874 -2.0677,-2.01232 -3.59358,-3.43648 l -3.25975,-3.04375 -3.85868,2.24845 c -1.04186,0.60776 -2.32554,1.29903 -3.80959,2.04225 -1.51905,0.66699 -3.07723,1.37143 -4.67362,2.1208 l -4.8798,2.0128 c -0.81194,0.30399 -1.44898,0.49359 -2.16008,0.73639 -0.82959,-0.29463 -1.60672,-0.56987 -2.52336,-0.89349 l -4.8798,-2.00298 c -1.59776,-0.75002 -3.15333,-1.46312 -4.67362,-2.13062 -1.45142,-0.7723 -2.79604,-1.47166 -3.99614,-2.07171 l -3.6034,-1.79679 -3.03392,2.65101 c -1.65127,1.44487 -2.91227,2.58826 -3.88814,3.56412 -0.49694,0.49694 -1.54049,1.45815 -2.98483,2.70991 l -5.64565,4.89944 5.99912,4.45761 c 3.61892,2.68834 7.76481,5.55195 12.44007,8.60103 l 0.0589,0.0393 0.0589,0.0393 c 3.54162,2.18525 6.80013,4.52054 10.03453,6.87296 -0.0799,-0.003 -0.12566,0.003 -0.20619,0 -2.2826,-0.19183 -5.06581,-0.48567 -8.36538,-0.87385 l 0.0196,0.01 c -3.24004,-0.39273 -7.35276,-0.94396 -12.32225,-1.63969 l -2.96519,-0.41238 -2.11098,2.1208 c -2.82,2.82 -5.92519,5.1684 -9.34724,7.09879 l -0.0294,0.0196 -0.0295,0.0196 c -3.36752,1.94962 -7.43349,3.74769 -12.21424,5.34128 l -7.10861,2.36626 6.93188,11.54658 4.42815,-1.76733 h 0.93276 c 3.26183,0 6.58407,0.27477 9.97562,0.82475 l 0.0982,0.01 0.0786,0.0196 c 3.71274,0.48852 7.59011,1.07028 11.61531,1.75751 l 0.0786,0.0196 0.0786,0.01 c 4.22105,0.603 8.63877,1.20449 13.25501,1.80661 l 0.0687,0.01 0.0785,0.01 c 2.75534,0.29312 5.94383,0.30395 8.9545,0.43201 -1.43283,2.48399 -2.8249,4.72561 -4.15324,6.69623 -2.71448,3.92726 -5.32316,7.05843 -7.73699,9.38651 -2.37292,2.28503 -4.58544,3.92309 -6.5686,4.99763 -2.03853,1.05685 -3.98782,1.75389 -5.87147,2.13062 l -10.71201,2.14044 7.55044,7.89409 c 1.41606,1.48042 1.62988,2.28779 1.62988,3.19102 0,0.81252 -0.47743,2.89298 -2.08153,5.76347 -1.68969,3.02366 -4.41045,7.11146 -8.1101,12.07678 l -32.32258,42.74985 14.2565,-1.90479 c 4.35576,-0.58077 8.18896,-0.95914 11.47785,-1.14877 3.25254,-0.092 6.19767,-0.13349 8.89558,-0.13746 2.24623,0.27603 4.33109,0.58138 6.17585,0.93276 h 0.0196 l 0.0295,0.01 c 2.21294,0.40235 4.47307,0.80567 6.7846,1.20768 h 0.0196 l 0.0196,0.01 c 2.57551,0.42925 5.32337,0.74105 8.23774,0.95239 3.06058,0.3237 6.51226,0.47129 10.42727,0.47129 3.94118,0 8.23177,-0.26268 12.87209,-0.77566 4.97955,-0.43755 9.89984,-1.41398 14.74742,-2.9161 5.02792,-1.4271 9.89583,-3.45429 14.56087,-6.05803 4.91858,-2.74525 9.25327,-6.33063 12.90153,-10.66292 l 1.49242,-1.76733 c 0.19466,6.89109 2.23563,13.33702 6.19549,18.69447 l 1.79679,2.43499 h 4.65398 l 0.84439,-0.24546 c 2.91408,-0.87423 5.72577,-1.65237 8.42429,-2.32699 2.60062,-0.65016 5.41619,-1.21417 8.45375,-1.68879 l 5.08599,-0.7953 v -11.56622 l -3.38739,-1.24695 v -0.01 -0.01 -0.01 h 0.01 v -0.01 -0.01 l -0.01,-0.01 c -0.004,-0.0154 -0.005,-0.0402 -0.0196,-0.0786 -0.28426,-0.76855 -0.63821,-2.65362 -0.63821,-5.37073 v -4.99763 h 12.71499 c -0.0218,0.86181 -0.0626,1.76118 -0.11782,2.70009 l -0.01,0.17674 v 0.17673 c 0,1.47288 -0.0454,2.94474 -0.13746,4.41834 -0.0975,1.461 -0.19869,2.76727 -0.29456,3.91759 l -0.42219,5.13508 5.00744,1.20768 c 4.24519,1.01515 8.34028,2.39262 12.30261,4.14342 4.00293,1.76874 7.24948,3.5859 9.7007,5.36091 l 1.57097,1.13895 h 5.49837 l 21.64984,-16.76022 3.80959,-11.61531 h 14.44305 c -0.0613,0.35722 -0.12334,0.69904 -0.18656,1.03094 l -0.0196,0.11783 -0.0196,0.108 c -0.1567,1.04466 -0.65442,1.90245 -0.62839,1.92443 l -3.61321,4.51652 6.21512,3.4463 c 1.70693,0.94829 3.19311,1.83811 4.45761,2.651 l 0.20619,0.12764 0.21601,0.11783 c 1.26588,0.67513 2.49281,1.43833 3.68194,2.28771 l 0.0786,0.0491 0.0786,0.0589 c 1.26751,0.84501 2.57261,1.8362 3.89795,2.98483 l 0.1571,0.13746 0.16692,0.12764 13.24518,3.93723 c 1.50951,-1.5095 2.95472,-2.86316 4.32997,-4.05505 l 0.01,-0.01 0.01,-0.01 c 1.45134,-1.26992 3.00109,-2.49802 4.65398,-3.69177 1.2095,-0.87354 2.66434,-1.77208 4.11396,-2.67063 v 3.73103 l 0.01,0.0786 c 0.10039,3.6139 0.19295,6.63381 0.29455,9.07232 l 0.01,0.11782 0.01,0.11782 c 0.19029,2.37852 0.32521,4.22996 0.4222,5.66529 l -3.66231,1.17822 c -1.60596,-1.14968 -3.11514,-2.30068 -5.01727,-3.45612 -2.32629,-1.46295 -4.71976,-2.81232 -7.11843,-4.1336 z m 23.72156,-84.62584 v 10.10326 l -5.09582,0.32401 v 12.20442 l 4.45761,1.18804 c 0.68425,0.18246 1.01629,0.37827 1.07022,0.40256 h 0.01 v 0.01 l 0.25528,0.20619 0.0785,0.0589 c 0.0124,0.0275 0.0108,0.0165 0.0687,0.16691 0.14013,0.36436 0.41905,1.57043 0.50074,3.36776 l 0.01,0.12764 0.01,0.13746 c 0.1745,1.91945 0.27492,4.56708 0.27492,7.845 v 16.44602 l -7.54063,3.30884 -1.11931,-0.85421 v -24.29102 -6.69623 c 0.0883,-1.75137 0.13152,-3.39469 0.13745,-4.93872 0.0949,-1.51719 0.19027,-2.93228 0.28474,-4.26124 0.19626,-1.3903 0.38626,-2.8856 0.5793,-4.52634 l 0.81493,-6.91224 0.98186,0.80512 3.82922,-3.82922 c 0.13017,-0.13017 0.26155,-0.26205 0.39274,-0.39274 z m -44.82156,10.94765 -0.47129,5.20382 c -0.083,-1.32778 -0.25528,-2.56969 -0.25528,-3.97651 v -0.12764 z m 0.0295,10.37818 2.30735,1.39423 c 0.94285,0.56572 1.51467,1.10644 1.88515,1.60042 l 0.16692,0.22582 0.19637,0.20619 c 0.30427,0.33469 0.74013,1.01271 1.13895,2.20917 l 0.0196,0.0491 0.0196,0.0491 c 0.36148,1.02422 0.70353,2.64292 0.87385,4.77181 l 0.01,0.11782 0.01,0.11782 c 0.26126,2.17711 0.41238,4.90086 0.41238,8.11992 10e-6,2.86274 -0.1015,5.89601 -0.29456,9.08213 v 0.0884 l -0.01,0.0884 c -0.0623,2.05472 -0.1625,4.02024 -0.30437,5.89111 H 350.3804 l 9.53378,-29.08247 -2.41535,-2.59209 c -0.25842,-0.27687 -0.6299,-1.07767 -0.92294,-2.3368 z M 203.613,389.79487 h 41.13962 v 24.69359 l -6.97115,1.13895 c -3.53779,0.57369 -6.74809,0.94434 -9.61233,1.12913 -2.89257,0.18662 -5.84194,0.28024 -8.83667,0.28473 -3.29676,-0.18387 -6.99516,-0.67827 -11.08512,-1.51205 -4.11564,-0.93804 -9.11033,-2.37567 -14.94379,-4.32015 l -6.31331,-2.10116 3.78995,-5.39037 0.01,-0.01 c 1.55137,-2.23008 3.10189,-4.35781 4.64416,-6.38204 1.4309,-1.87805 2.81723,-3.42909 4.12378,-4.65398 l 0.01,-0.01 c 1.33682,-1.25818 2.60859,-2.13887 3.80959,-2.73937 l 0.11782,-0.0589 z m -18.21335,21.56148 v 5.54746 c 0,0.81061 0.24291,1.57822 0.32401,2.37609 -0.96704,-0.13947 -2.03726,-0.24745 -2.84737,-0.43202 -0.71819,-0.16913 -1.5412,-0.48328 -2.2779,-0.67748 z"
       sodipodi:nodetypes="cccccccccssccccccscccscccccccsccccccccccccccccccccsscccccccccscccccccccccccsccccccccsscccccccccccccccccccccscccccccccccccccccsscccccccsccccccccscccccccccccccsccscccccccccccccsccccccccccccccccccccsccccccccccccccccssccccccccccccsccsccccccsccccccccccccsccccsccccscccccccccccccccccccccccccscccccccccccccccccccccccccsccccccccccscccscccccccccccccsccccccccccccsccccccsccscccscccc" /></g><style
     id="style1-1">
		tspan { white-space:pre } 
		.s0 { fill: none;stroke: #ff0000;stroke-miterlimit:100 } 
	</style></svg>
