<?xml version="1.0" encoding="UTF-8" standalone="no"?>
<!-- Created with Inkscape (http://www.inkscape.org/) -->

<svg
   width="500"
   height="500"
   viewBox="0 0 500 500"
   version="1.1"
   id="svg1"
   xml:space="preserve"
   inkscape:version="1.4.2 (2aeb623e1d, 2025-05-12)"
   sodipodi:docname="Speh.svg"
   xmlns:inkscape="http://www.inkscape.org/namespaces/inkscape"
   xmlns:sodipodi="http://sodipodi.sourceforge.net/DTD/sodipodi-0.dtd"
   xmlns="http://www.w3.org/2000/svg"
   xmlns:svg="http://www.w3.org/2000/svg"><sodipodi:namedview
     id="namedview1"
     pagecolor="#ffffff"
     bordercolor="#000000"
     borderopacity="0.25"
     inkscape:showpageshadow="2"
     inkscape:pageopacity="0.0"
     inkscape:pagecheckerboard="0"
     inkscape:deskcolor="#d1d1d1"
     inkscape:document-units="px"
     inkscape:zoom="1.5510737"
     inkscape:cx="233.38671"
     inkscape:cy="261.4318"
     inkscape:window-width="1920"
     inkscape:window-height="940"
     inkscape:window-x="0"
     inkscape:window-y="0"
     inkscape:window-maximized="1"
     inkscape:current-layer="layer1"
     showgrid="false"><inkscape:grid
       id="grid1"
       units="px"
       originx="0"
       originy="0"
       spacingx="1"
       spacingy="1"
       empcolor="#0099e5"
       empopacity="0.30196078"
       color="#0099e5"
       opacity="0.14901961"
       empspacing="5"
       enabled="true"
       visible="false" /></sodipodi:namedview><defs
     id="defs1" /><g
     inkscape:label="Layer 1"
     inkscape:groupmode="layer"
     id="layer1"><path
       style="fill:#000000"
       d="M 257.12121,340.96549 C 231.61423,335.43117 216.00172,323.9035 198.92328,297.99438 187.74922,281.0426 183.80981,273.4145 178.01061,257.5 c -3.94027,-10.81311 -3.9365,-10.80639 -5.38818,-9.60161 -0.73025,0.60606 -6.16092,3.12685 -12.06817,5.60176 -15.35549,6.43338 -21.63901,6.2093 -49.55426,-1.7672 -12.938026,-3.69692 -14.311077,-5.39458 -16.06771,-19.86634 -0.625323,-5.15164 -1.576936,-9.64044 -2.114696,-9.97512 -0.53776,-0.33468 -0.829212,-1.8835 -0.64767,-3.44184 0.26184,-2.2476 1.880536,-3.9019 7.830076,-8.00226 C 106.53161,205.94586 140.7956,187 142.40509,187 c 0.32426,0 3.40327,-1.2898 6.84224,-2.86621 15.03472,-6.89189 17.77939,-7.65355 25.75267,-7.14654 13.42739,0.85384 32.48082,0.33852 36.56176,-0.98885 2.64013,-0.85873 7.06961,-4.31238 13.43824,-10.47774 5.225,-5.05823 13.1,-12.25336 17.5,-15.98919 4.4,-3.73582 9.575,-8.15677 11.5,-9.82434 1.925,-1.66757 6.2,-4.79745 9.5,-6.95531 5.43298,-3.55259 6.49255,-3.88416 11.21194,-3.50848 9.12859,0.72667 26.74489,10.79452 48.26425,27.58339 5.94285,4.63646 11.43787,8.17327 12.69853,8.17327 1.41264,0 5.42911,-3.02968 11.02381,-8.3154 C 356.95174,146.99765 359.66561,145 362.57247,145 c 5.69212,0 15.42745,11.32936 21.37013,24.86922 1.68674,3.84308 4.63968,10.26947 6.5621,14.28088 4.24005,8.8475 4.61049,15.3116 1.3275,23.16452 -2.96652,7.09594 -3.86506,7.96577 -13.18451,12.76325 -12.9091,6.64536 -26.71529,14.93473 -27.26646,16.37103 -0.47441,1.23629 2.47738,13.07488 3.0856,12.37525 0.15499,-0.17828 -0.033,-2.70243 -0.41773,-5.60921 l -0.69954,-5.28507 4.57522,0.6875 c 2.51637,0.37812 10.53759,0.73139 17.82492,0.78506 7.28734,0.0537 13.24984,0.4608 13.25,0.90475 1.7e-4,0.44395 -0.51122,2.83859 -1.1364,5.32143 -0.95761,3.80299 -0.83944,5.48772 0.75,10.69282 1.35849,4.44878 1.87243,9.11822 1.83572,16.67857 -0.0466,9.58967 -0.31745,11.06354 -3.12457,17 -3.7161,7.85877 -18.72986,28.08476 -29.22493,39.37079 -9.08257,9.76706 -15.97931,12.14008 -20.09102,6.91288 -2.20222,-2.79966 -2.22613,-3.87084 -0.37022,-16.5851 0.54361,-3.72412 0.33527,-4.0243 -10.24495,-14.76103 -8.66761,-8.79582 -11.0466,-10.71063 -12.0497,-9.69857 -0.68742,0.69357 -3.51783,6.55355 -6.28979,13.02219 -10.33331,24.11375 -14.11513,29.64847 -22.71319,33.24097 -4.84544,2.02456 -18.5776,1.77235 -29.21944,-0.53664 z m 13.79546,-9.34446 c -0.22917,-0.20843 -3.72232,-1.75787 -7.76256,-3.4432 -21.86424,-9.12037 -48.18957,-29.92891 -62.53223,-49.42783 -3.13533,-4.2625 -5.91098,-7.75 -6.1681,-7.75 -0.25712,0 1.72853,3.4875 4.41255,7.75 17.33735,27.53348 24.2892,35.2224 38.09473,42.13369 8.31146,4.16086 19.93997,8.40519 28.53894,10.4165 2.59945,0.60802 5.95066,0.80652 5.41667,0.32084 z m 21.13506,-7.83881 c 4.10657,-4.49611 3.67705,-5.32269 -1.00386,-1.93186 -5.41061,3.91943 -11.79775,5.54077 -19.18762,4.87068 -7.31544,-0.66334 -6.56885,0.69639 1.13975,2.07579 8.73949,1.56387 14.40531,0.0726 19.05173,-5.01461 z m 16.8845,-87.52242 c -2.98685,-8.76855 -9.98833,-16.14246 -20.91425,-21.55229 -6.32651,-3.13251 -6.79427,-3.20751 -20,-3.20751 -14.69249,0 -11.88043,-0.67284 -35.52198,8.49936 -4.4,1.70707 -8.675,3.26906 -9.5,3.47108 -0.825,0.20203 -3.1528,1.07037 -5.17288,1.92964 -3.17505,1.35056 -4.12384,1.37672 -7,0.193 -1.82992,-0.75312 -5.35212,-1.65164 -7.82712,-1.9967 l -4.5,-0.62738 5.5,2.06869 c 3.025,1.13777 11.125,4.72127 18,7.96333 13.94339,6.57531 19.57685,8.60553 26.07958,9.39873 2.43123,0.29656 9.09301,1.24662 14.80396,2.11125 10.29558,1.55874 10.49734,1.54969 23.81749,-1.06865 7.38868,-1.45238 13.5536,-2.05963 13.93911,-2.13555 10.56055,-2.0796 9.73473,-0.82356 8.29609,-5.047 z M 300.24684,264 c 0.99691,-1.00637 8.63743,-15 8.19,-15 -0.79698,0 -7.12182,10.37901 -7.92203,13 -0.41979,1.375 -0.54038,2.275 -0.26797,2 z M 274,249.08585 c 1.56428,-0.44725 -1.99145,-0.96613 -9.5,-1.3863 -7.01576,-0.3926 -15.06438,-1.52421 -19.37776,-2.72444 -4.05776,-1.12911 -7.57541,-1.85527 -7.817,-1.61369 -0.68574,0.68575 6.3702,2.80527 15.69476,4.71453 8.93579,1.82965 16.80869,2.20826 21,1.0099 z m -76.19098,-25.20416 c 0.16996,0.0651 0.0309,-0.33169 -0.30902,-0.88169 -0.33992,-0.55 -1.82898,-0.94679 -3.30902,-0.88169 L 191.5,222.23663 194.5,223 c 1.65,0.41985 3.13906,0.81661 3.30902,0.88169 z m 15.12697,-0.3989 c 3.39761,-0.42999 18.30031,-5.57983 17.7473,-6.13283 -0.20422,-0.20422 -2.12901,0.23773 -4.2773,0.98211 -2.14829,0.74439 -6.71849,1.96702 -10.15599,2.71696 -3.4375,0.74994 -6.25,1.68793 -6.25,2.08443 0,0.39653 1.32119,0.55369 2.93599,0.34933 z m 107.88013,-2.98702 c -0.62755,-1.37732 -1.32936,-2.31586 -1.55958,-2.08564 -0.23022,0.23022 0.0837,1.35712 0.69762,2.50422 1.56905,2.9318 2.24003,2.60596 0.86196,-0.41858 z m -88.31613,-53.20504 c -1.99974,1.93644 -1.99973,1.93656 0.0112,0.9156 1.10615,-0.56159 2.90615,-2.01904 4,-3.23877 4.49139,-5.00828 26.53842,-18.18542 32.79299,-19.59982 1.2077,-0.27311 5.34582,-1.07088 9.19582,-1.77283 l 7,-1.27627 -7.32539,-1.33295 c -8.50192,-1.54703 -11.16983,-0.91496 -20.17461,4.77969 -4.59968,2.90885 -17.65945,13.93301 -25.5,21.52535 z M 318.89595,167 c 1.59058,0 -9.20897,-9.58474 -13.71382,-12.1712 -5.24188,-3.00961 -16.25703,-6.88127 -19.18213,-6.74221 -1.33333,0.0634 -1.33333,0.13021 0,0.60143 8.31727,2.93949 19.32529,8.75327 26.43774,13.96284 3.26576,2.39203 6.17195,4.34914 6.45821,4.34914 z m -168.78394,58.43107 c 3.5134,-0.96242 8.63799,-2.85537 11.38799,-4.20655 5.20293,-2.55641 17.3748,-11.21284 17.45436,-12.41325 0.0753,-1.13638 -8.30277,-2.03096 -13.63407,-1.45578 -3.36251,0.36276 -11.04751,3.36478 -23.65066,9.23871 C 131.40133,221.37994 123,225.64605 123,226.07444 c 0,2.15952 18.48077,1.72096 27.11201,-0.64337 z m -9.45674,-12.09578 C 147.91891,209.85088 154.28228,207 154.79609,207 c 0.5138,0 2.1712,-0.97303 3.68311,-2.1623 l 2.74891,-2.16229 -2.69958,-1.41446 c -2.48914,-1.30418 -2.57661,-1.55034 -1.1221,-3.15756 1.27637,-1.41037 1.34042,-2.04188 0.33553,-3.30822 -0.68308,-0.86081 -1.91696,-1.80634 -2.74196,-2.10119 -0.89927,-0.32139 -0.49879,-0.57353 1,-0.62959 1.375,-0.0514 4.38264,-0.74944 6.68364,-1.55116 4.83869,-1.68589 20.25509,-2.20653 22.82079,-0.77069 1.3172,0.73714 -0.0201,1.14839 -5.48568,1.68695 -3.97513,0.3917 -8.19304,1.10178 -9.37313,1.57796 l -2.14562,0.86578 2.25,0.0634 c 2.68505,0.0756 2.9347,1.56521 0.5,2.98329 -1.66667,0.97075 -1.66667,1.02073 0,1.04969 2.13723,0.0371 2.3303,2.8705 0.25,3.66878 -3.2909,1.26284 -1.18082,2.36163 4.53518,2.36163 3.98824,0 6.91228,-0.57469 8.62118,-1.69441 2.37916,-1.55888 2.43633,-1.75322 0.71482,-2.42971 -1.76762,-0.69461 -1.76049,-0.73941 0.12882,-0.80933 2.65348,-0.0982 8.74547,-3.86035 8.05641,-4.97528 -0.29842,-0.48286 0.61127,-1.16752 2.02154,-1.52148 1.41027,-0.35395 2.38057,-1.18946 2.15622,-1.85667 -0.22435,-0.66722 0.92289,-1.77669 2.54943,-2.4655 2.24775,-0.95188 2.70073,-1.56158 1.88785,-2.54104 -0.80978,-0.97572 -0.5768,-1.32577 0.95943,-1.44149 2.0454,-0.15407 4.87099,-1.97563 4.86692,-3.13753 -0.001,-0.34516 -7.84814,-0.63198 -17.43762,-0.63737 -16.99014,-0.01 -17.39232,0.0381 -15.7478,1.86803 0.92819,1.03281 2.57873,2.21049 3.66787,2.61706 1.44078,0.53783 0.19255,1.05053 -4.58191,1.88197 -3.60919,0.62851 -7.73351,1.14275 -9.16515,1.14275 -1.43165,0 -3.73948,0.43209 -5.12852,0.9602 -2.42927,0.92361 -2.48162,0.86383 -1.37336,-1.56852 0.63369,-1.3908 2.30338,-3.18933 3.71043,-3.99674 L 164.5,181.92695 162,182.5751 c -9.9271,2.5737 -55.50153,25.96235 -56.70609,29.10138 -1.41852,3.6966 3.27129,2.01185 13.28247,-4.77155 6.14374,-4.16289 19.38521,-11.08438 20.49669,-10.71389 0.53832,0.17944 -0.7204,1.22094 -2.79715,2.31444 -6.01456,3.16691 -19.61096,11.53202 -21.53205,13.24747 -3.23395,2.88777 -0.89034,2.52061 4.96061,-0.77716 3.18754,-1.79659 6.80802,-3.92786 8.04552,-4.73616 1.2375,-0.80829 2.25,-1.20659 2.25,-0.88509 0,0.32149 -3.34398,2.84103 -7.43107,5.59897 -6.77759,4.57346 -9.6232,7.04651 -8.10808,7.04651 0.31839,0 2.36101,-1.125 4.53915,-2.5 5.42736,-3.42614 6.0084,-3.13562 2,1 -1.86578,1.925 -2.88062,3.5 -2.25518,3.5 0.62543,0 1.41526,-0.45 1.75518,-1 0.99018,-1.60214 2.49557,-1.15203 1.84213,0.5508 -0.92763,2.41737 3.32762,0.97313 18.31314,-6.21551 z m -11.92194,-1.45938 c 0.67834,-0.68342 1.48524,-0.99067 1.79313,-0.68278 0.30789,0.30789 -0.24711,0.86705 -1.23333,1.24258 -1.4252,0.54268 -1.54006,0.42782 -0.5598,-0.5598 z"
       id="path3"
       sodipodi:nodetypes="sssssssssssssssssssssssssssssscsssssssssssssssssssssssssssssssssssscsssssssssssssssssssscssssssssssssssssscsssssssssssssssssssscssssssssscssssssssssssssccssssssscssssssssssssssssssssss" /></g></svg>
