<?xml version="1.0" encoding="UTF-8" standalone="no"?>
<!-- Created with Inkscape (http://www.inkscape.org/) -->

<svg
   width="1000mm"
   height="1000mm"
   viewBox="0 0 1000 1000"
   version="1.1"
   id="svg1"
   sodipodi:docname="HracuvDil.svg"
   xml:space="preserve"
   inkscape:version="1.4.2 (2aeb623e1d, 2025-05-12)"
   xmlns:inkscape="http://www.inkscape.org/namespaces/inkscape"
   xmlns:sodipodi="http://sodipodi.sourceforge.net/DTD/sodipodi-0.dtd"
   xmlns="http://www.w3.org/2000/svg"
   xmlns:svg="http://www.w3.org/2000/svg"><sodipodi:namedview
     id="namedview1"
     pagecolor="#ffffff"
     bordercolor="#000000"
     borderopacity="0.25"
     inkscape:showpageshadow="2"
     inkscape:pageopacity="0.0"
     inkscape:pagecheckerboard="0"
     inkscape:deskcolor="#d1d1d1"
     inkscape:document-units="mm"
     inkscape:zoom="4.4777137"
     inkscape:cx="195.41222"
     inkscape:cy="480.9374"
     inkscape:window-width="1920"
     inkscape:window-height="940"
     inkscape:window-x="0"
     inkscape:window-y="0"
     inkscape:window-maximized="1"
     inkscape:current-layer="svg1"
     showguides="false"
     showgrid="false" /><defs
     id="defs1"><inkscape:perspective
       sodipodi:type="inkscape:persp3d"
       inkscape:vp_x="0 : 500 : 1"
       inkscape:vp_y="0 : 1000 : 0"
       inkscape:vp_z="1000 : 500 : 1"
       inkscape:persp3d-origin="500 : 333.33333 : 1"
       id="perspective54" /><clipPath
       clipPathUnits="userSpaceOnUse"
       id="cp1"><path
         d="m 275.5,535.5 c -143.78,0 -260,-116.22 -260,-260 0,-143.78 116.22,-260 260,-260 143.78,0 260,116.22 260,260 0,143.78 -116.22,260 -260,260 z"
         id="path1" /></clipPath><clipPath
       clipPathUnits="userSpaceOnUse"
       id="cp1-0"><path
         d="m 275.5,535.5 c -143.78,0 -260,-116.22 -260,-260 0,-143.78 116.22,-260 260,-260 143.78,0 260,116.22 260,260 0,143.78 -116.22,260 -260,260 z"
         id="path1-5" /></clipPath><clipPath
       clipPathUnits="userSpaceOnUse"
       id="cp1-3"><path
         d="m 275.5,535.5 c -143.78,0 -260,-116.22 -260,-260 0,-143.78 116.22,-260 260,-260 143.78,0 260,116.22 260,260 0,143.78 -116.22,260 -260,260 z"
         id="path1-6" /></clipPath><clipPath
       clipPathUnits="userSpaceOnUse"
       id="cp1-06"><path
         d="m 275.5,535.5 c -143.78,0 -260,-116.22 -260,-260 0,-143.78 116.22,-260 260,-260 143.78,0 260,116.22 260,260 0,143.78 -116.22,260 -260,260 z"
         id="path1-5-1" /></clipPath><clipPath
       clipPathUnits="userSpaceOnUse"
       id="cp1-37"><path
         d="m 275.5,535.5 c -143.78,0 -260,-116.22 -260,-260 0,-143.78 116.22,-260 260,-260 143.78,0 260,116.22 260,260 0,143.78 -116.22,260 -260,260 z"
         id="path1-5-4" /></clipPath></defs><path
     id="path40-7"
     style="display:inline;fill:#ad0606;fill-opacity:1;stroke:none;stroke-width:0.0487644;stroke-dasharray:none;stroke-opacity:1"
     d="m 77.846611,1.8455613 c -1.95731,0.42671 -3.87286,0.77277 -5.77536,1.04851 -0.83464,0.12097 -1.66703,0.22825 -2.49907,0.32298 -2.70504,0.30798 -5.4089,0.48205 -8.19537,0.55139 -0.35055,0.009 -0.70242,0.0157 -1.05575,0.0212 -0.62588,0.01 -1.25637,0.0145 -1.89239,0.0145 -2.22579,4e-5 -4.40574,-0.0574 -6.56497,-0.18603 -3.03205,-0.18061 -6.02325,-0.50176 -9.04234,-1.00253 -1.32983,-0.22057 -2.66503,-0.47591 -4.01164,-0.76946 l -0.49248,2.31097 -0.76791,3.60082 -2.57246,12.0659297 -0.16019,0.74982 -0.26149,1.22628 -2.18229,10.23659 -0.54674,2.5647 v 5.2e-4 l -2.45153,11.49697 -0.53485,2.50941 -0.57981,2.71973 -0.18293,0.85628 -0.25994,1.21956 -3.48402,16.34267 -0.16898,0.7922 -0.51677,2.42259 -0.30437,1.42886 -1.57355,7.37939 -0.40307,1.89187 -0.56276,2.63912 -0.15348,0.71934 -0.27027,1.26658 -1.58336,7.42642 -0.38138,1.78904 -2.389,11.206549 -0.52606,2.46549 -0.64699,3.03599 -0.10439,0.48989 -0.32039,1.5012 v 5.2e-4 l -0.18294,0.85886 -0.3452,1.61954 -0.22685,1.06247 -0.28681,1.34617 -2.15749,10.11773 -0.35863,1.68413 -1.5291095,7.17114 -0.35708,1.67587 -0.87437,4.09949 -0.25528,1.19889 -0.75964,3.56102 -1.11312,5.22191 -0.55707,2.61224 -0.26665,1.25005 -0.83922,3.93671 -0.25735,1.20768 -1.05007,4.92425 -0.36328,1.70532 -0.75965,3.56206 c 3.20117,0.6979 6.42609,1.32986 9.6686695,1.89756 0.52715,0.0923 1.05478,0.18291 1.58284,0.27181 2.55964,0.43097 5.12966,0.822 7.70703,1.17461 v 5.2e-4 c 0.37355,0.0511 0.747,0.10141 1.12086,0.15089 v -5.1e-4 c 2.96718,0.39273 5.94351,0.73473 8.92452,1.02681 0.562,0.0551 1.1239,0.10813 1.6862,0.15968 7.4e-4,-0.012 0.001,-0.0221 0.002,-0.0341 3.70674,0.3398 7.41774,0.63777 11.12748,0.82786 0.71201,0.0365 1.42405,0.0702 2.13579,0.10128 4.20499,0.18367 8.4041,0.27336 12.58476,0.27337 0.30709,0 0.61428,-0.007 0.92139,-0.008 -4.2e-4,0.002 -6.3e-4,0.005 -0.001,0.007 1.37689,-0.004 2.75389,-0.0183 4.13101,-0.0424 1.59949,-0.0279 4.57473,-0.14864 4.46485,-0.11317 0.71,-0.0235 1.41972,-0.0496 2.12958,-0.0785 0.0341,-0.0631 11.19957,-0.62565 16.72043,-1.19217 v 5.1e-4 c 0.59267,-0.0608 1.18492,-0.12379 1.77715,-0.18862 2.62566,-0.28744 5.24704,-0.61471 7.86257,-0.98236 v 5.1e-4 c 0.37898,-0.0533 0.75763,-0.10781 1.13637,-0.16278 -5.2e-4,-0.008 -0.002,-0.0126 -0.003,-0.0207 3.006499,-0.43644 6.008259,-0.90631 8.996859,-1.45211 v 5.2e-4 c 0.62116,-0.11344 1.24214,-0.22954 1.86242,-0.34778 2.07648,-0.39584 4.14793,-0.81884 6.21358,-1.26918 l -0.42892,-2.01951 -0.24236,-1.1405 -2.63705,-12.40958 -0.28474,-1.33997 -2.23139,-10.50323 -1.27744,-6.01204 v -5.2e-4 c -1.2e-4,-2.9e-4 -3.9e-4,-7.8e-4 -5.1e-4,-0.001 l -0.33487,-1.57561 -0.5736,-2.69958 -0.0744,-0.3514 -1.156,-5.44049 -0.0134,-0.0636 -0.98857,-4.65346 -1.10122,-5.1816 -1.05782,-4.97747 v -5.2e-4 l -0.56275,-2.64945 -0.46768,-2.20141 -0.64647,-3.04116 -0.35243,-1.65933 -1.975069,-9.296589 -0.12144,-0.57103 -0.13126,-0.6165 -1.74305,-8.20311 -1.33583,-6.28799 -2.01435,-9.48056 -0.31471,-1.48105 -0.99426,-4.6793 -0.31626,-1.48879 -1.55649,-7.32411 -0.86713,-4.0814 -1.66657,-7.84448 -0.18035,-0.84801 -0.4532,-2.13476 -0.26923,-1.26503 -1.11466,-5.24723 -0.62994,-2.96468 -2.88819,-13.594 -0.25219,-1.18546 -1.04748,-4.93096 -0.25166,-1.18494 -0.88263,-4.1537497 -0.18191,-0.85577 z m -1.29553,1.63245 0.77256,3.64474 c -0.75753,-0.16169 -1.4364,-0.37889 -1.95853,-0.63303 -1.04564,-0.50896 -1.79097,-1.15273 -2.58796,-2.26653 1.21793,-0.21046 2.46781,-0.45708 3.77393,-0.74518 z m -36.48201,10e-4 c 0.81768,0.18033 1.61807,0.34433 2.40605,0.49351 0.64143,0.44306 1.29697,0.89052 1.91152,1.30431 1.7274,1.16312 1.94933,1.36881 2.0748,1.92081 0.071,0.31248 0.12686,1.08136 0.10542,1.44746 -0.0617,1.05423 -0.53661,1.7273997 -2.09858,2.9744997 -0.66907,0.5342 -1.02034,0.79608 -1.17305,0.87436 -0.18119,0.0929 -0.5393,0.112 -0.73949,0.0393 -0.19141,-0.0696 -0.37851,-0.1997 -0.54312,-0.37828 -0.2214,-0.24019 -0.74567,-1.23301 -0.94878,-1.79679 -0.0478,-0.13264 -0.39566,-0.9258297 -0.77308,-1.7621597 -0.35444,-0.78543 -0.64759,-1.43682 -0.8909,-1.97869 v -5.2e-4 z m 5.49631,1.01234 c 0.86487,0.12634 1.72168,0.23549 2.5771,0.32918 -0.29716,0.18369 -0.53904,0.31945 -0.65009,0.35863 -0.23309,0.0822 -0.50279,0.0621 -0.80357,-0.0599 -0.26848,-0.1089 -0.58361,-0.28268 -1.12344,-0.62787 z m 24.93491,0.34882 v 5.1e-4 c 0.51153,0.0125 1.19369,0.36746 2.81016,1.44436 1.67506,1.11593 2.04562,1.58676 2.17558,2.76365 0.0565,0.51134 0.0256,2.1731197 -0.0475,2.5693597 -0.1102,0.59659 -0.32432,0.97534 -0.82579,1.45934 -0.40291,0.38888 -0.57374,0.52503 -2.57711,2.04742 -3.19233,2.42588 -3.76907,2.80478 -4.73769,3.11505 -0.73621,0.23584 -1.10383,0.26045 -4.42919,0.29714 -3.97656,0.0439 -4.20962,0.0586 -6.63577,0.4222 -0.7335,0.10994 -0.93698,0.11423 -1.20199,0.0253 -0.67647,-0.22688 -0.79744,-0.43173 -0.63976,-1.0852 0.0792,-0.32806 0.15282,-0.52242 0.56224,-1.48363 0.66444,-1.55992 0.74589,-2.03118 0.46147,-2.66496 -0.13098,-0.29187 -0.38565,-0.61755 -0.98702,-1.26297 -0.94148,-1.01045 -1.28265,-1.45001 -1.4118,-1.81746 -0.15253,-0.434 -0.004,-0.7209497 0.57568,-1.1094897 0.1259,-0.0844 0.67018,-0.37166 1.20974,-0.63821 1.77043,-0.87458 3.10497,-1.3926 4.54546,-1.76578 1.55338,-0.40243 2.88421,-0.59104 5.42861,-0.76843 2.81029,-0.19592 3.13202,-0.27153 4.47363,-1.05265 0.66144,-0.3851 0.87208,-0.47562 1.15084,-0.49351 0.0328,-0.002 0.0662,-0.002 0.10025,-0.002 z m -3.33417,0.12609 c -0.6221,0.34262 -1.1845,0.46551 -2.34146,0.65319 -1.38014,0.22387 -2.27804,0.28586 -2.64893,0.18293 -0.30282,-0.084 -0.5034,-0.2526 -0.6227,-0.52245 1.94454,-0.0476 3.78558,-0.14593 5.61309,-0.31367 z m -15.72048,0.14262 c 2.24757,0.14814 4.54544,0.20674 7.01301,0.20671 0.54104,-1e-5 1.07193,-0.003 1.59421,-0.009 -0.22264,0.37072 -0.64502,0.59911 -1.91513,1.07746 -0.99307,0.37401 -1.81454,0.70254 -2.40398,0.9617 -0.66794,0.29366 -0.92477,0.37514 -1.22628,0.38912 -0.19632,0.009 -0.3041,-0.003 -0.43202,-0.0491 -0.3593,-0.12821 -0.82007,-0.49612 -1.62677,-1.29812 -0.57524,-0.57186 -0.88402,-0.94995 -1.00304,-1.27899 z m -1.85312,1.10071 c 0.70958,0.002 1.4565,0.39562 1.74356,0.92036 0.0821,0.15006 0.0968,0.21762 0.10801,0.48834 0.0317,0.76596 -0.38723,1.5961 -0.89349,1.77043 -0.17301,0.0596 -0.5227,0.0945 -0.68678,0.0687 -0.72704,-0.11397 -1.51475,-0.59147 -1.89239,-1.14721 -0.19978,-0.29401 -0.28123,-0.59305 -0.22273,-0.81649 0.19895,-0.75979 0.95522,-1.28627 1.84382,-1.28416 z m 27.96005,1.99264 0.92397,4.3578797 c -0.41059,0.0332 -0.70471,0.0382 -0.96376,0.0207 -0.37605,-0.0255 -0.63131,-0.1148 -0.8015,-0.28009 -0.32223,-0.31296 -0.37515,-0.83345 -0.21033,-2.07532 0.19629,-1.4790397 0.36301,-1.9148097 1.05162,-2.0231397 z m -38.56612,0.35295 c 0.11047,0.17832 0.22759,0.39352 0.35863,0.65268 0.51893,1.0262397 1.11893,2.3792597 1.32757,2.9936097 0.20406,0.60087 0.24947,0.83329 0.27905,1.4211 l 0.0274,0.54881 -0.15968,0.97152 c -0.19425,1.18033 -0.25788,1.47997 -0.56896,2.67994 -0.41032,1.58281 -0.61616,2.12233 -0.93379,2.44842 -0.29895,0.30693 -0.62435,0.39954 -1.60404,0.45527 -0.73834,0.042 -0.89694,0.04 -1.19734,-0.0145 -0.0392,-0.007 -0.0781,-0.0153 -0.11679,-0.0243 z m 10.4836,1.7161797 v 5.2e-4 c 0.37132,0.0131 0.65319,0.0729 1.01596,0.20257 0.62863,0.22468 1.15344,0.59924 1.59628,1.1405 0.44644,0.54564 1.34244,1.69391 1.48673,1.90531 0.30343,0.44452 0.41009,0.74611 0.40928,1.15806 -8e-4,0.4713 -0.19328,1.09004 -0.709,2.28307 -0.42552,0.98437 -0.65934,1.30945 -1.11725,1.54978 -0.46215,0.24254 -1.00745,0.35785 -3.04012,0.64698 -1.6446,0.23393 -2.74158,0.40223 -4.6762,0.71624 -1.82957,0.29695 -2.17549,0.33538 -2.61018,0.29197 -0.5711,-0.057 -0.65786,-0.35797 -0.45062,-1.56373 0.4251,-2.4733 0.82752,-3.59226 1.66088,-4.61729 0.21804,-0.26818 0.82268,-0.86545 1.15446,-1.1405 0.79801,-0.66155 2.41875,-1.79399 2.95124,-2.06189 0.69699,-0.35066 1.20531,-0.48548 1.92133,-0.50952 0.14997,-0.005 0.28344,-0.006 0.40721,-0.002 z m 29.2318,3.35328 1.03767,4.89479 c -0.10449,8.2e-4 -0.20914,10e-4 -0.3142,0.002 -1.36689,0.009 -2.80174,0.0206 -3.18843,0.0258 -0.38669,0.005 -1.49788,-4e-4 -2.4691,-0.0124 -0.98042,-0.0122 -1.88952,-0.0384 -2.04484,-0.0589 -0.63378,-0.0835 -0.95757,-0.22704 -1.02681,-0.45424 -0.0617,-0.20232 0.30056,-0.66594 0.91364,-1.1684 0.50232,-0.41167 0.83165,-0.64571 2.73368,-1.94614 l 1.76372,-1.20613 1.75752,-0.0512 c 0.28628,-0.008 0.56507,-0.0169 0.83715,-0.0253 z m -17.21238,5.73815 c 0.28195,-0.0103 0.68716,0.0159 1.04593,0.0724 1.15483,0.18154 5.20268,0.5358 8.04499,0.70383 1.31569,0.0778 1.65466,0.10935 2.13527,0.19896 0.46304,0.0863 0.7714,0.20359 0.94929,0.36018 0.18781,0.16532 0.23129,0.27508 0.20826,0.52969 -0.0293,0.32486 -0.25853,0.72531 -1.12862,1.96938 -0.42767,0.61151 -1.30579,1.88453 -1.95078,2.82877 -2.26965,3.32266 -2.35496,3.42139 -3.07268,3.54656 -0.59588,0.1039 -1.91717,0.13223 -3.73052,0.0801 -0.48561,-0.014 -1.1254,-0.0421 -1.42214,-0.0625 -1.56825,-0.10786 -1.76378,-0.32197 -1.76785,-1.93994 -0.002,-0.99437 -0.0574,-2.24499 -0.10904,-2.47943 -0.10464,-0.47521 -0.30486,-0.71673 -0.84542,-1.0232 -0.46918,-0.266 -0.72578,-0.45464 -0.87333,-0.6413 -0.43938,-0.55587 -0.25637,-1.26164 0.69918,-2.69648 0.29615,-0.44469 0.46806,-0.66505 0.70383,-0.90227 0.34244,-0.34454 0.52325,-0.45221 0.87902,-0.52193 0.0603,-0.0118 0.14063,-0.0193 0.23461,-0.0227 z m 18.52962,0.47543 3.12642,14.74793 c -0.17328,0.0602 -0.36521,0.1091 -0.58084,0.15038 -0.84783,0.16232 -1.91585,0.19065 -5.49372,0.14521 -3.31173,-0.0421 -4.4266,-0.0183 -5.51026,0.11782 -1.09672,0.13772 -1.82451,0.17997 -2.51768,0.14625 -1.22142,-0.0594 -1.81595,-0.43051 -1.96577,-1.22628 -0.0709,-0.37682 0.0116,-1.06092 0.21187,-1.74718 0.24705,-0.84658 0.39014,-1.0017 1.05059,-1.1405 0.41535,-0.0873 0.62338,-0.18936 0.88831,-0.43718 0.29727,-0.27808 0.56246,-0.6957 1.06557,-1.67587 0.77128,-1.50268 0.76366,-1.49366 3.44165,-4.254 1.24851,-1.28692 2.03191,-2.11164 2.80655,-2.95538 1.33115,-1.44994 1.6617,-1.6845 3.47731,-1.8712 z m -31.44821,0.59686 c 0.87269,-0.0678 5.84161,-0.0234 7.29361,0.0651 1.28985,0.0786 1.7839,0.22918 1.89911,0.57826 0.0803,0.2434 -0.051,0.8887 -0.28009,1.37563 -0.23271,0.49462 -0.53277,0.85853 -0.92036,1.11776 -0.43268,0.28939 -0.95087,0.39666 -1.87585,0.38809 -0.31475,-0.003 -0.63086,-0.0107 -0.7028,-0.0171 -0.0719,-0.006 -0.38103,-0.0405 -0.68678,-0.076 -1.02886,-0.11936 -1.80796,-0.18147 -3.89175,-0.31006 -1.91133,-0.11794 -2.53984,-0.27943 -2.77038,-0.71107 -0.15979,-0.29917 -0.0572,-1.43232 0.16175,-1.78645 0.23499,-0.38008 0.68935,-0.54004 1.77354,-0.62425 z m -4.61264,0.72502 c 0.45905,0.0138 0.61528,0.0332 0.79788,0.0992 0.29215,0.10566 0.47249,0.25339 0.5917,0.48524 0.0866,0.16834 0.0945,0.226 0.0904,0.62425 -0.005,0.48149 -0.021,0.55391 -0.52245,2.36058 -0.13656,0.49204 -0.53323,1.98239 -0.8816,3.31194 -0.34837,1.32956 -0.71812,2.72578 -0.82217,3.10266 -0.46415,1.68112 -0.6495,2.03427 -1.16944,2.2288 -0.58243,0.21792 -1.58279,0.16919 -3.63853,-0.17622 -2.22798,-0.37434 -3.92272,-0.34989 -4.66484,0.0672 -0.009,0.005 -0.0177,0.0101 -0.0263,0.015 l 2.41329,-11.31507 c 1.39887,-0.0856 4.14526,-0.3752 5.56917,-0.59997 1.07766,-0.17011 1.65086,-0.22196 2.26291,-0.2036 z m 4.49636,4.18166 c 0.66304,-0.0316 1.51919,-0.0267 2.6846,0.01 1.0142,0.0316 2.59125,0.0533 3.90777,0.0532 1.21402,-6e-5 2.4045,0.0147 2.64583,0.0331 1.16626,0.089 1.54351,0.31263 1.72289,1.02061 0.0692,0.27312 0.098,1.62652 0.0496,2.32183 -0.0602,0.86262 -0.176,1.26573 -0.43925,1.52342 -0.22191,0.21722 -0.39092,0.27355 -0.85266,0.2837 -0.21767,0.005 -0.4843,0.003 -0.59221,-0.005 -0.10791,-0.007 -0.8658,-0.0642 -1.68414,-0.12661 -0.81833,-0.0624 -2.84873,-0.20934 -4.51238,-0.32659 -5.29763,-0.37336 -5.21043,-0.36546 -5.35833,-0.47077 -0.12036,-0.0857 -0.22237,-0.29125 -0.27027,-0.54519 -0.0461,-0.24441 -0.0172,-1.08653 0.0527,-1.53479 0.0827,-0.53067 0.27862,-1.45918 0.32815,-1.55494 0.10241,-0.19805 0.35683,-0.34983 0.79116,-0.47181 0.3938,-0.1106 0.86349,-0.17874 1.52652,-0.21032 z m -1.06246,5.67924 c 0.46884,0.007 1.00077,0.0349 1.45934,0.0816 0.77961,0.0796 1.96883,0.16475 3.23443,0.23152 2.15891,0.11389 2.74454,0.22897 3.07526,0.60564 0.14655,0.16692 0.19584,0.33237 0.22221,0.74673 0.0374,0.58856 -0.1319,1.22263 -0.41031,1.53892 -0.26166,0.29726 -0.38639,0.34184 -0.98392,0.35088 -0.28266,0.004 -0.70244,-0.0149 -0.93276,-0.0429 -1.6712,-0.20286 -2.23038,-0.26535 -3.57859,-0.40049 -2.30694,-0.23123 -2.95403,-0.33054 -3.46956,-0.53072 -0.36345,-0.14113 -0.55601,-0.29868 -0.68419,-0.56069 -0.0883,-0.18055 -0.1072,-0.2744 -0.12144,-0.62011 -0.036,-0.87264 0.23489,-1.20526 1.10536,-1.35754 0.20878,-0.0365 0.61533,-0.0501 1.08417,-0.0429 z m 17.7586,0.11989 c 0.29464,0.037 0.44456,0.14499 0.58291,0.42168 0.10997,0.21995 0.11369,0.24821 0.11369,0.7431 0,0.59528 -0.0588,0.87185 -0.28784,1.35444 -0.27109,0.57127 -0.57372,0.81039 -1.12706,0.89039 -0.24973,0.0361 -0.73908,0.0419 -1.05937,0.0124 -0.0837,-0.008 -0.46028,-0.0644 -0.83715,-0.12609 -0.76585,-0.12528 -1.27424,-0.18938 -2.41743,-0.30438 -1.83849,-0.18493 -2.49245,-0.35603 -2.89388,-0.75809 -0.355,-0.35556 -0.46947,-0.78429 -0.30179,-1.13068 0.20525,-0.42399 0.85164,-0.77099 1.5813,-0.84904 1.28378,-0.13733 6.10648,-0.3215 6.64662,-0.25373 z m -28.74501,2.8391 c 0.53956,-0.0509 1.76714,0.0153 2.26084,0.12196 0.59954,0.12946 0.90574,0.50153 1.21491,1.47691 0.17817,0.5621 0.88844,3.39876 1.07332,4.28656 0.11948,0.57368 0.14264,0.76027 0.14521,1.17667 0.003,0.41846 -0.0104,0.53857 -0.0858,0.77876 -0.10224,0.32559 -1.42951,3.24699 -1.74769,3.8468 -0.37473,0.7064 -0.63799,1.03066 -0.98031,1.20871 -0.25472,0.13249 -0.73363,0.15328 -1.19941,0.0517 -0.40755,-0.0889 -0.86427,-0.21339 -1.92236,-0.52349 -0.46063,-0.13499 -0.97455,-0.28027 -1.14205,-0.32297 -0.1675,-0.0427 -0.33033,-0.0993 -0.36173,-0.12609 -0.0314,-0.0268 -0.16536,-0.10572 -0.29766,-0.17519 -0.46747,-0.24547 -0.78971,-0.66861 -0.92604,-1.21698 -0.0746,-0.2999 -0.0637,-1.24893 0.0196,-1.76992 0.10678,-0.66781 0.30258,-1.51001 0.6904,-2.96261 0.40675,-1.5235 0.53923,-2.10059 0.57516,-2.50682 0.0319,-0.36011 0.47806,-1.91854 0.63562,-2.22054 0.33755,-0.64697 1.03139,-1.02758 2.04794,-1.12344 z m 5.67149,0.55914 c 0.43142,-10e-4 1.11384,0.0919 2.22363,0.27957 1.51562,0.25633 1.88471,0.31324 4.55631,0.70383 3.49185,0.51051 3.49017,0.51012 4.05402,1.52239 0.40469,0.72652 0.78451,1.69469 0.98495,2.51251 0.13582,0.55415 0.12662,0.69877 -0.0687,1.08675 -0.29112,0.57813 -0.9197,1.47284 -1.54409,2.22726 a 29.499998,29.499998 0 0 0 -4.38113,1.27227 c -0.10438,-0.0297 -0.197,-0.0583 -0.26768,-0.0832 -0.4196,-0.1481 -1.00838,-0.44365 -1.37253,-0.68936 -0.39375,-0.2657 -1.72046,-1.26565 -2.14509,-1.61644 -0.47514,-0.39253 -1.0552,-0.95998 -1.32395,-1.29501 -0.6308,-0.78639 -0.92481,-1.61275 -1.31516,-3.69849 -0.20302,-1.08478 -0.24036,-1.7071 -0.11679,-1.93321 0.10468,-0.19155 0.28482,-0.2875 0.71624,-0.28887 z m 12.87828,1.21129 0.66869,0.004 c 0.54377,0.003 0.81072,0.0259 1.42989,0.12144 1.28814,0.19879 2.15105,0.24377 6.35672,0.33228 2.74958,0.0579 3.15373,0.0843 3.77031,0.24339 0.79331,0.20463 1.48501,0.58915 2.73988,1.52394 0.55425,0.41289 3.72557,2.8577 4.16823,3.21324 0.42441,0.34088 0.9566,0.89248 1.07642,1.11621 0.0581,0.10836 0.13963,0.33131 0.18138,0.49455 0.10317,0.4034 0.16359,1.4443 0.14004,2.41173 -0.0158,0.65086 -0.0326,0.82767 -0.1018,1.06557 -0.10915,0.37519 -0.27681,0.68942 -0.58756,1.0201 a 29.499998,29.499998 0 0 0 -16.49977,-5.04569 29.499998,29.499998 0 0 0 -4.17597,0.29714 c 0.0666,-0.0741 0.13685,-0.15063 0.21032,-0.23048 0.87785,-0.95409 1.12846,-1.33173 1.22215,-1.8402 0.0861,-0.46714 -0.0368,-0.96318 -0.48576,-1.9606 -0.57354,-1.27429 -0.69866,-1.63952 -0.69866,-2.03812 0,-0.32818 0.0839,-0.47014 0.36328,-0.61392 z m 28.53624,0.46767 v 5.2e-4 l 1.09348,5.15731 c -2.46403,-0.16097 -5.3749,-0.3138 -6.38411,-0.31574 -0.81981,-0.002 -1.54525,-0.052 -1.89032,-0.13178 -0.45423,-0.10509 -0.82922,-0.32738 -2.50683,-1.48673 -1.93899,-1.33998 -2.5814,-1.81203 -2.9037,-2.13372 -0.52323,-0.52225 -0.43476,-0.72066 0.39584,-0.88728 0.56353,-0.11305 1.1582,-0.15255 3.00292,-0.19844 1.5414,-0.0383 6.38181,-0.0332 9.19272,-0.004 z m -5.23689,5.76089 c 0.12791,0.004 0.25711,0.0214 0.38551,0.0548 0.12479,0.0325 0.28335,0.0921 0.35243,0.13281 0.0834,0.0492 0.2815,0.0929 0.59015,0.13022 0.86001,0.10398 3.21012,0.27114 5.27771,0.37931 l 0.55811,2.6324 c -1.48914,0.37119 -3.15014,0.72724 -4.67517,0.98547 -1.51879,0.25716 -2.55051,0.31713 -3.07578,0.17983 -0.79927,-0.20892 -1.07694,-0.70715 -1.18391,-2.12545 -0.0234,-0.31095 -0.0335,-0.69013 -0.0222,-0.84284 0.0648,-0.88484 0.89783,-1.55249 1.79317,-1.52653 z m -35.47225,0.1633 v 5.2e-4 h 5.2e-4 c 0.39011,3.7e-4 0.95221,0.33536 1.92081,1.13688 0.38983,0.32258 1.02323,0.9484 1.25832,1.24282 0.087,0.1089 0.16676,0.21636 0.23926,0.32298 a 29.499998,29.499998 0 0 0 -7.50962,4.8643 c 0.13239,-0.3082 0.28047,-0.64553 0.44442,-1.01131 0.2134,-0.4761 0.43327,-0.97482 0.48783,-1.10846 0.0546,-0.13364 0.26539,-0.59868 0.46922,-1.03301 0.20383,-0.43434 0.39792,-0.8575 0.43098,-0.94103 0.0331,-0.0835 0.15346,-0.36519 0.26768,-0.62528 0.11422,-0.2601 0.23075,-0.5522 0.2589,-0.64906 0.0282,-0.0969 0.14885,-0.36854 0.26872,-0.60461 0.55527,-1.09357 0.94203,-1.53687 1.387,-1.58957 0.0245,-0.003 0.05,-0.005 0.076,-0.005 z m 42.8563,4.20543 1.93683,9.13691 c -0.0911,0.0388 -0.19318,0.0696 -0.31109,0.0946 -0.18727,0.0397 -0.41813,0.049 -0.53434,0.0217 -0.0313,-0.007 -0.28169,-0.0643 -0.55603,-0.12661 -0.27433,-0.0623 -0.66001,-0.15099 -0.85732,-0.19688 -2.08807,-0.48568 -2.57595,-1.08673 -2.70732,-3.33675 -0.0464,-0.79444 -0.0189,-3.2365 0.0398,-3.53725 0.12416,-0.6366 0.35019,-0.92784 0.95963,-1.23352 0.24994,-0.12536 0.71487,-0.31446 1.82418,-0.74207 0.0596,-0.023 0.12891,-0.0502 0.20567,-0.0801 z m -5.17746,0.91674 c 0.1591,0.005 0.28058,0.0199 0.35605,0.0424 0.39732,0.11855 0.58297,0.41952 0.68006,1.1033 0.0625,0.4403 0.0891,1.00411 0.13022,2.79311 0.0385,1.67365 0.0651,2.29985 0.15245,2.69286 a 29.499998,29.499998 0 0 0 -5.96398,-5.87975 c 0.68562,-0.27098 1.47844,-0.45976 2.43448,-0.58704 0.9188,-0.12233 1.73343,-0.1812 2.21072,-0.16485 z m -47.5878,0.13436 c 0.07,-0.004 0.14995,-0.004 0.24495,10e-4 0.1726,0.009 0.3434,0.0322 0.37982,0.0517 0.0364,0.0195 0.10391,0.0402 0.14935,0.0465 0.33367,0.0462 2.22168,0.39941 2.52749,0.47284 0.70151,0.16844 0.81558,0.22272 1.31207,0.62683 0.22032,0.17934 0.26558,0.26513 0.2744,0.5147 0.004,0.11955 -0.029,0.23041 -0.1726,0.57309 -0.20029,0.47806 -0.51998,1.18386 -0.88677,1.96887 a 29.499998,29.499998 0 0 0 -4.71857,6.76238 c -0.19185,-0.12533 -0.33949,-0.30294 -0.44856,-0.53847 -0.0675,-0.14578 -0.0824,-0.22612 -0.0915,-0.49299 -0.01,-0.29082 -1.0596,-3.99738 -0.9493,-5.72162 0.1763,-2.75593 1.56805,-3.6545 1.92805,-4.05298 0.12556,-0.13898 0.24115,-0.19869 0.45113,-0.21187 z m -3.75946,7.43779 c 0.99815,1.32913 1.64793,2.84559 1.88774,4.42247 0.0412,0.27073 0.0584,0.74703 0.0522,1.17718 a 29.499998,29.499998 0 0 0 -2.1823,9.23148 c -0.56928,0.0186 -1.82049,0.0441 -2.93367,0.061 z m 53.87423,0.77101 c 0.0688,0.0708 0.14263,0.14639 0.2217,0.22738 0.62621,0.64139 0.89712,0.97277 1.03766,1.26814 0.0758,0.15942 0.088,0.21668 0.0879,0.41289 -1.4e-4,0.14233 -0.006,0.20989 -0.0388,0.29611 a 29.499998,29.499998 0 0 0 -1.30845,-2.20452 z m 4.30207,1.4795 c 0.19329,-0.007 0.40197,0.006 0.63458,0.0434 l 1.55288,7.3272 c -0.26327,-0.011 -0.59366,-0.0128 -1.03766,-0.0134 -0.39477,-4.7e-4 -0.97842,0.003 -1.5596,0.008 a 29.499998,29.499998 0 0 0 -2.1394,-5.77743 c 0.77519,-0.88595 1.32084,-1.29721 1.92546,-1.48259 0.19695,-0.0604 0.40006,-0.097 0.62374,-0.10542 z m -0.0439,8.98808 c 1.13186,0.004 1.96834,0.0196 2.58486,0.0491 l 1.24488,5.87148 c -1.42658,0.77858 -2.77827,1.46488 -3.34191,1.6893 a 29.499998,29.499998 0 0 0 0.0636,-1.93373 29.499998,29.499998 0 0 0 -0.55139,-5.67614 z m -61.50942,4.59558 c 0.47582,0.031 1.02633,0.0617 1.67535,0.0935 0.56483,0.0277 1.02413,0.0545 1.3994,0.0858 a 29.499998,29.499998 0 0 0 -0.014,0.90124 29.499998,29.499998 0 0 0 0.83768,6.98097 c -0.0519,-0.0419 -0.10247,-0.0836 -0.14935,-0.12299 -0.75894,-0.63717 -1.00418,-0.7373 -1.91254,-0.7829 -0.31233,-0.0157 -0.63342,-0.0449 -0.71365,-0.0646 -0.48198,-0.11813 -0.7607,-0.4079 -1.16169,-1.20768 -0.20041,-0.39972 -0.47657,-0.90523 -0.8754,-1.59783 z m 65.64819,2.78381 1.5353,7.24194 c -0.0207,-0.0164 -0.0416,-0.0329 -0.0625,-0.0496 -1.46337,-1.16606 -1.53009,-1.26525 -2.1916,-3.25097 -0.61811,-1.85546 -0.70461,-2.41618 -0.45372,-2.9347 0.1051,-0.21719 0.44634,-0.55164 0.79272,-0.77618 0.11796,-0.0765 0.2183,-0.13858 0.37982,-0.23048 z m -3.75946,1.47743 c 0.0774,0.0532 0.15051,0.1187 0.22479,0.19637 0.32498,0.33983 0.48926,0.62021 1.34462,2.29547 0.68647,1.34447 1.09204,2.10261 1.43454,2.68097 0.64206,1.0842 0.73059,1.27049 0.81132,1.70946 0.10634,0.5782 -0.10371,1.09976 -0.68575,1.70222 -0.42873,0.44379 -1.27125,1.11664 -1.6154,1.29036 -0.32624,0.16468 -0.63713,0.20565 -0.98599,0.12971 -0.0947,-0.0206 -0.3961,-0.12355 -0.66973,-0.22841 -0.54132,-0.20744 -1.44992,-0.5698 -2.26291,-0.89917 a 29.499998,29.499998 0 0 0 2.40451,-8.87698 z m -63.12328,1.52497 c 0.27639,0.50323 0.49372,0.9099 0.601,1.12862 0.55682,1.13527 0.50864,1.31321 -0.5948,2.21485 -0.26618,0.21749 -0.55951,0.44509 -0.86248,0.67127 z m 2.75384,3.06545 h 1.0051 1.00459 l 0.0615,0.20257 c 0.0516,0.16986 0.0589,0.24739 0.0465,0.49041 -0.009,0.18256 -0.0352,0.34707 -0.0708,0.44597 -0.0674,0.18726 -1.10225,2.54821 -1.77147,4.04161 -0.26306,0.58703 -0.6792,1.52832 -0.92449,2.09186 -1.08234,2.48669 -1.40952,2.9785 -2.00453,3.01946 -0.0906,0.006 -0.22565,-0.007 -0.31264,-0.0315 -0.46722,-0.1308 -1.09458,-0.5597 -2.06603,-1.4118 -0.078,-0.0684 -0.15183,-0.13368 -0.22117,-0.19585 l 1.25677,-5.89215 h 5.2e-4 c 0.0783,-0.0534 0.15965,-0.10869 0.24391,-0.16588 1.2514,-0.8493 2.04444,-1.39576 3.05718,-2.10633 z m 66.2466,3.92121 0.60461,2.85254 c -0.15723,0.0787 -0.33027,0.14997 -0.51831,0.21342 -0.27544,0.0929 -0.33849,0.1033 -0.67438,0.11214 -0.25618,0.007 -0.40539,-0.002 -0.48421,-0.0284 -0.29738,-0.099 -0.52847,-0.27345 -0.68471,-0.51728 -0.28436,-0.44379 -0.38861,-1.25748 -0.20981,-1.63917 0.20636,-0.44051 0.78281,-0.82134 1.44746,-0.95602 0.14925,-0.0303 0.33615,-0.0423 0.51935,-0.0372 z m -8.77104,1.40404 c 2.132,0.50558 4.09604,1.08289 4.86533,1.47123 0.19312,0.0975 0.3804,0.25633 0.4408,0.37311 0.21154,0.40908 -0.36648,0.65019 -1.86862,0.77876 -0.27434,0.0235 -0.9601,0.0625 -1.52445,0.0868 -1.34938,0.0581 -2.51721,0.1196 -3.55947,0.18862 a 29.499998,29.499998 0 0 0 1.64641,-2.89854 z m -54.64111,0.19793 v 5.1e-4 c 0.0975,0.002 0.14959,0.0206 0.27233,0.0811 0.42822,0.21082 0.78293,0.80915 1.00821,1.69758 0.0478,0.18859 0.13278,0.60892 0.1881,0.93431 0.0553,0.32539 0.1527,0.84349 0.21601,1.15135 0.10795,0.52491 0.17561,0.82015 0.53537,2.32647 0.5716,2.39335 0.59257,3.26787 0.10283,4.26692 -0.0844,0.17219 -0.29629,0.53125 -0.47077,0.79737 -0.8646,1.31876 -0.92167,1.64005 -0.9958,5.620839 -0.0663,3.56228 -0.10686,4.12027 -0.30696,4.22352 -0.18745,0.0967 -1.35863,0.31545 -2.82412,0.52762 -0.9748,0.14113 -4.57278,0.5913 -4.88084,0.61081 -0.12523,0.008 -0.2662,0.004 -0.31316,-0.008 -0.19971,-0.0518 -0.2935,-0.15301 -0.38292,-0.41289 -0.11638,-0.33827 -0.15628,-0.80809 -0.22841,-2.70733 -0.10142,-2.67046 -0.11432,-2.78436 -0.48111,-4.230229 -0.20645,-0.81381 -0.26998,-1.19817 -0.25476,-1.54616 0.0145,-0.33159 0.094,-0.48727 0.30076,-0.58911 0.1183,-0.0583 0.17335,-0.0665 0.43408,-0.063 0.45251,0.006 0.85315,0.0977 2.17506,0.49661 0.95903,0.28934 1.24142,0.34884 1.65364,0.34985 0.42541,0.001 0.5978,-0.0562 0.81029,-0.26872 0.26501,-0.26503 0.42858,-0.69293 0.61185,-1.60352 0.13885,-0.68994 0.18757,-1.1054 0.18862,-1.60093 0.001,-0.66771 -0.0974,-1.17323 -0.48524,-2.4815 -0.4846,-1.63477 -0.53561,-2.22179 -0.25373,-2.93212 0.0874,-0.22032 1.24129,-2.49001 1.52652,-3.00292 0.33015,-0.5937 0.6873,-1.05419 1.03146,-1.33015 0.26049,-0.20886 0.45147,-0.29169 0.7059,-0.30541 0.0469,-0.002 0.0843,-0.004 0.11679,-0.003 z m 2.25722,0.73638 a 29.499998,29.499998 0 0 0 7.52564,9.00876 c -0.19379,0.5961 -0.35268,0.88721 -0.55862,1.09812 -0.24985,0.25588 -0.53905,0.36521 -1.12448,0.42426 -0.40663,0.041 -1.45517,0.0614 -1.61799,0.0315 -1.12248,-0.20556 -1.9633,-1.02698 -2.65978,-2.59726 -0.15761,-0.35533 -0.17759,-0.42206 -0.21859,-0.74001 -0.17224,-1.3356 -0.63016,-3.59229 -1.16376,-5.73246 -0.0697,-0.27963 -0.14115,-0.60056 -0.15813,-0.71314 -0.0269,-0.17853 -0.0344,-0.50126 -0.0243,-0.7798 z m 62.10681,2.15181 1.74356,8.22586 c -3.90407,-0.9872 -5.73065,-1.42307 -6.12934,-1.464 -0.35119,-0.0361 -0.58186,-0.11658 -0.74414,-0.25941 -0.21008,-0.18492 -0.25806,-0.30144 -0.2558,-0.62219 0.002,-0.22423 0.0157,-0.3048 0.0801,-0.46974 0.11127,-0.28505 0.29128,-0.56019 0.60978,-0.93069 0.40434,-0.47037 0.85778,-1.02752 1.49603,-1.83761 0.96343,-1.22283 1.55153,-1.83993 2.1146,-2.21847 0.35773,-0.2405 0.70931,-0.38501 1.08521,-0.42375 z m -5.44463,0.69402 c 1.09643,0.002 1.50085,0.22547 1.38751,0.76584 -0.0868,0.41417 -0.40442,0.88723 -1.21646,1.81229 -0.55357,0.63062 -0.91731,1.0636 -1.26763,1.51051 -0.53431,0.68159 -0.82687,0.9556 -1.23144,1.15083 -0.16611,0.0802 -0.21586,0.089 -0.65009,0.11627 -0.57628,0.0362 -1.76758,0.0781 -3.33468,0.11782 -0.71477,0.0181 -2.96093,0.0321 -5.18935,0.0382 a 29.499998,29.499998 0 0 0 4.64209,-5.02966 c 2.39594,-0.10373 4.00959,-0.21909 5.27823,-0.37001 0.77507,-0.0922 1.07322,-0.11315 1.58182,-0.11213 z m -67.21915,0.54208 c 0.58956,0.42921 1.27193,0.98178 2.07894,1.67639 0.50791,0.43715 0.67623,0.62999 0.91002,1.04593 0.5385,0.95806 1.05457,2.64296 1.18701,3.87314 0.0441,0.40918 0.0227,1.00191 -0.0424,1.18133 -0.0297,0.0818 -0.0963,0.17826 -0.17311,0.24908 -0.11945,0.1101 -0.13374,0.1153 -0.30386,0.11369 -0.0982,-7.9e-4 -0.36471,-0.0399 -0.59169,-0.0873 -0.22699,-0.0474 -1.21935,-0.29016 -2.20556,-0.5395 -0.86091,-0.21765 -1.63718,-0.41375 -2.33629,-0.58963 z m 62.67266,5.903 c 0.38075,4e-5 0.62487,0.0359 0.78961,0.10852 0.18837,0.0831 0.36149,0.26357 0.47336,0.49299 0.12162,0.2494 0.19257,0.49615 0.41909,1.4516 0.0954,0.40271 0.28295,1.13997 0.41652,1.63865 0.66263,2.473919 0.75476,2.959599 0.69349,3.660249 -0.0561,0.6419 -0.19577,1.01932 -0.89555,2.41845 -0.57461,1.14886 -0.8824,1.82073 -1.31155,2.86546 -0.16742,0.40759 -0.3723,0.88227 -0.45578,1.05472 -0.56925,1.17588 -1.11774,1.51552 -2.7249,1.68827 -0.42906,0.0461 -0.80679,0.0493 -4.56148,0.0408 -4.25727,-0.01 -4.77337,9.6e-4 -5.6255,0.11007 -0.23514,0.0301 -0.61399,0.0752 -0.84129,0.10025 -0.32573,0.0359 -1.04685,0.0588 -1.57613,0.0584 -0.69806,-0.51456 -1.4338,-0.98131 -2.20193,-1.39527 -0.002,-0.0247 -0.003,-0.0495 -0.005,-0.0749 -0.0343,-0.69536 0.27274,-1.92243 0.58342,-2.33009 0.0972,-0.12762 0.36696,-0.25006 0.70539,-0.31987 0.41827,-0.0862 0.65855,-0.21058 0.92501,-0.47904 0.29865,-0.3009 0.48356,-0.59396 0.97771,-1.55495 0.47351,-0.92086 0.68086,-1.27007 0.98444,-1.65261 0.38509,-0.48527 0.62339,-0.739 2.84169,-3.029789 1.07426,-1.10936 1.76052,-1.83351 2.49648,-2.63395 0.93044,-1.012 1.24138,-1.27552 1.76527,-1.49603 0.48915,-0.20589 0.93168,-0.27971 2.55023,-0.42581 0.61138,-0.0552 1.49705,-0.13962 1.96733,-0.18759 0.71143,-0.0726 1.22896,-0.10857 1.60972,-0.10852 z m 4.15788,1.5012 c 0.55749,-0.0187 1.44558,0.0995 2.86391,0.34727 1.99773,0.34893 2.83386,0.57276 3.31659,0.88728 0.23935,0.15594 0.38813,0.32928 0.52142,0.60823 0.11736,0.24562 0.76595,2.368679 0.91002,2.979149 0.51358,2.17616 0.4789,4.54041 -0.0827,5.68596 -0.20494,0.41809 -0.34529,0.54643 -0.77722,0.709 -0.65948,0.24823 -2.94441,0.81074 -4.22558,1.04024 -1.2306,0.22046 -2.85951,0.32896 -3.85144,0.25735 -0.44727,-0.0323 -0.80906,-0.16586 -0.93431,-0.34468 -0.0663,-0.0946 -0.0559,-0.30855 0.0274,-0.55914 0.0911,-0.27438 0.46122,-1.03727 0.94413,-1.94355 0.89989,-1.6888 1.20887,-2.40636 1.38079,-3.20756 0.0581,-0.27083 0.0672,-0.38865 0.0661,-0.88263 -0.002,-0.81308 -0.0846,-1.21491 -0.54157,-2.614829 -0.34946,-1.07068 -0.49939,-1.66586 -0.51832,-2.06189 -0.0102,-0.21417 -0.004,-0.35222 0.0212,-0.42788 0.0957,-0.29849 0.32204,-0.45364 0.87953,-0.47232 z m -14.73347,0.22118 c -0.007,0.10298 -0.0399,0.2203 -0.10231,0.37672 -0.11946,0.29879 -0.26938,0.53604 -0.96894,1.5353 -0.71662,1.02364 -1.05787,1.519459 -2.2872,3.322279 -1.61673,2.37094 -1.99268,2.85023 -2.38176,3.03858 -0.33896,0.1641 -1.03166,0.21671 -2.75384,0.20877 -0.70998,-0.003 -1.4139,-0.01 -1.56425,-0.014 -0.71877,-0.0213 -1.61079,-0.0775 -1.896,-0.11938 -0.50715,-0.0744 -0.74068,-0.18652 -0.90744,-0.43511 -0.19174,-0.28583 -0.21583,-0.49747 -0.24702,-2.18902 -0.0132,-0.71755 -0.0247,-1.12049 -0.0419,-1.3689 a 29.499998,29.499998 0 0 0 13.15061,-4.355289 z m -31.13763,0.0269 a 29.499998,29.499998 0 0 0 2.68356,1.47691 c -0.0337,0.28034 -0.10693,0.58675 -0.27182,1.1684 -0.28131,0.992259 -0.65848,2.403359 -1.26556,4.731499 -0.91685,3.51613 -1.07651,4.03471 -1.36374,4.4235 -0.27449,0.37157 -0.6485,0.49847 -1.47071,0.49971 -0.60336,8.1e-4 -1.29498,-0.0802 -2.77192,-0.32556 -1.41703,-0.23548 -2.60355,-0.30396 -3.47266,-0.2005 -0.62482,0.0744 -0.91535,0.166 -1.30793,0.41237 -0.28462,0.17863 -0.42227,0.20516 -0.61288,0.11834 -0.12941,-0.0589 -0.2986,-0.2343 -0.37982,-0.39377 -0.12519,-0.24579 -0.1499,-0.39775 -0.14987,-0.93379 4e-5,-0.54443 0.0123,-0.77224 0.14573,-2.78898 0.10864,-1.64159 0.17933,-2.84668 0.26924,-4.5682 0.0786,-1.505109 0.1306,-2.113279 0.21652,-2.540929 0.12014,-0.59792 0.25504,-0.79759 0.58756,-0.87023 0.0955,-0.0208 0.13784,-0.008 0.37776,0.11059 0.3723,0.18445 0.88556,0.38622 1.12344,0.44131 0.22199,0.0514 0.5861,0.0369 1.89343,-0.0739 1.84874,-0.15655 3.47035,-0.34214 4.81004,-0.55087 0.39726,-0.0619 0.70126,-0.10565 0.95963,-0.13591 z m -22.98051,1.82263 c 0.25213,0.72069 0.79441,2.592429 0.91571,3.196179 0.27636,1.37561 0.33522,3.03529 0.14624,4.1274 -0.1233,0.71251 -0.43271,1.44232 -0.68109,1.60507 -0.27122,0.1777 -1.28666,0.48292 -2.44895,0.76584 z m 34.42012,2.406569 c 0.29481,0.006 0.57011,0.0115 0.82682,0.0171 a 29.499998,29.499998 0 0 0 3.28094,0.18293 29.499998,29.499998 0 0 0 0.31161,-0.002 c 0.0712,0.0192 0.12393,0.0409 0.17002,0.0656 0.55035,0.29496 0.64354,0.60592 0.64078,2.14406 -0.004,2.18722 -0.20461,2.62498 -1.23661,2.69699 -0.30601,0.0213 -3.13493,-0.1549 -6.28644,-0.39171 -5.64489,-0.42417 -5.73314,-0.43405 -5.92522,-0.67127 -0.24756,-0.30571 -0.25878,-1.14109 -0.0326,-2.42363 0.1817,-1.02994 0.36272,-1.28891 1.04335,-1.48983 0.62397,-0.1842 2.67921,-0.22047 7.20731,-0.12867 z m 43.37565,1.55804 0.9896,4.66897 c -0.21277,0.0136 -0.31053,0.006 -0.36742,-0.015 -0.18054,-0.0674 -0.2905,-0.22519 -0.36587,-0.52503 -0.095,-0.37818 -0.13665,-0.95362 -0.20515,-2.86288 -0.0184,-0.51168 -0.034,-0.92217 -0.0512,-1.26607 z m -50.04139,4.0597 v 5.2e-4 c 0.4531,0.01 0.99369,0.041 1.63866,0.0925 1.10017,0.088 2.66994,0.20665 3.48816,0.26407 1.31918,0.0926 1.99621,0.18236 2.33732,0.43149 -2.14931,0.38814 -4.16909,1.14779 -5.99136,2.20969 -2.953,-0.35168 -3.20753,-0.45823 -3.52795,-0.86558 -0.22817,-0.29007 -0.28692,-1.22184 -0.0992,-1.57252 0.22523,-0.42085 0.79508,-0.58934 2.15439,-0.56017 z m 16.14578,0.13953 c 1.66017,-0.019 1.74122,-0.0108 1.91151,0.19947 0.29334,0.36227 0.31072,1.06681 0.14522,1.70687 -2.27375,-0.9981 -4.7867,-1.55236 -7.42901,-1.55236 -0.12801,0 -0.25552,0.002 -0.38292,0.004 0.0104,-0.003 0.0206,-0.007 0.031,-0.01 0.4872,-0.14573 3.37422,-0.3214 5.72419,-0.3483 z m -34.50022,1.23713 c 0.73516,-0.008 1.59877,0.24773 1.95596,0.68885 0.73368,0.90608 0.78408,2.11196 0.24391,5.79138 -0.28218,1.92206 -0.58247,4.19958 -0.66818,5.06119 -0.15932,1.60176 -0.43301,2.41019 -0.81493,2.41019 -0.11817,0 -0.533,-0.56964 -0.92191,-1.26556 -2.56359,-4.58732 -2.79291,-5.10009 -2.77141,-6.19704 0.0257,-1.31143 1.36987,-5.61406 1.92857,-6.17275 0.2118,-0.21182 0.6069,-0.31145 1.04799,-0.31626 z m -3.45663,0.80357 c 0.42539,0.16325 0.38985,0.61711 -0.22376,2.87579 -0.47829,1.76058 -0.66746,2.09418 -1.88929,3.32383 -2.30122,2.31595 -4.06651,3.20003 -5.29942,2.65359 -0.20329,-0.0901 -0.58634,-0.32671 -0.85111,-0.52555 -0.24694,-0.18545 -0.75653,-0.73995 -1.33067,-1.4149 l 1.07177,-5.02657 c 3.41424,-0.86047 8.29329,-1.97413 8.52248,-1.88619 z m 73.22912,0.25528 h 5.2e-4 l 1.121369,5.29167 v 5.2e-4 c -1.051969,1.19511 -3.054769,2.87647 -4.002849,3.31452 -0.41655,0.19246 -0.67356,0.25031 -1.15084,0.26097 -0.28605,0.006 -0.48945,-0.003 -0.6134,-0.0289 -0.67567,-0.14158 -1.33976,-0.54137 -1.87275,-1.12758 -0.0784,-0.0862 -0.65528,-0.798 -1.28209,-1.58182 -0.62679,-0.7838 -1.33364,-1.66589 -1.57097,-1.95957 -0.70864,-0.87695 -0.801,-1.17097 -0.46973,-1.49293 0.25441,-0.24727 0.72431,-0.42566 1.79369,-0.68006 1.68552,-0.40098 2.84643,-0.68746 5.19761,-1.28364 1.36523,-0.34618 2.23328,-0.56399 2.84944,-0.71314 z m -62.42255,0.4961 c 0.80868,-0.0361 1.94788,0.0394 2.36833,0.18758 0.65727,0.23175 0.90051,0.82636 1.69964,4.14859 0.58555,2.43432 0.63544,2.94247 0.36019,3.66695 -0.1551,0.40822 -1.19487,2.67591 -1.5844,3.45509 -0.49803,0.99615 -0.87492,1.43157 -1.30018,1.50327 -0.3394,0.0572 -0.38281,0.0587 -0.71055,0.0176 -0.39365,-0.0494 -3.60651,-0.94747 -3.71606,-1.0387 -0.042,-0.035 -0.17442,-0.1127 -0.29455,-0.17311 -0.30246,-0.15209 -0.60889,-0.47274 -0.75396,-0.78962 -0.38812,-0.84776 -0.26093,-2.04411 0.53692,-5.03535 0.43605,-1.63482 0.54495,-2.10122 0.58963,-2.52595 0.0431,-0.41003 0.4481,-1.86159 0.62425,-2.2381 0.2526,-0.53994 0.78097,-0.92292 1.52135,-1.10329 0.15726,-0.0383 0.38983,-0.0629 0.65939,-0.0749 z m 5.78673,0.57722 c 0.47537,0.0226 1.17667,0.11661 2.17093,0.28629 0.59673,0.10188 1.65938,0.26953 2.68355,0.42478 -1.79295,1.35372 -3.33182,3.02646 -4.53202,4.93355 -0.52162,-0.75993 -0.77076,-1.59138 -1.03043,-2.88096 -0.40386,-2.00567 -0.4078,-2.48899 -0.0222,-2.68924 0.0729,-0.0379 0.18008,-0.0626 0.32763,-0.0734 0.11066,-0.008 0.2441,-0.009 0.40256,-0.001 z m 35.77663,1.66347 c 5.97238,-0.0452 7.91808,0.0158 8.54625,0.26716 0.25863,0.10348 0.61213,0.44382 1.49034,1.43506 1.93323,2.1821 2.31131,2.71127 2.25775,3.15743 -0.0469,0.39006 -0.37773,0.54101 -1.2454,0.56844 -0.42686,0.0135 -1.03833,-0.008 -1.35858,-0.0481 -0.32023,-0.0402 -1.76131,-0.14914 -3.20239,-0.24236 -3.78731,-0.24497 -3.9992,-0.25662 -6.2084,-0.33228 -1.89858,-0.065 -2.0333,-0.0804 -2.47065,-0.28061 -0.3218,-0.14732 -1.63995,-1.02123 -2.83342,-1.85725 -0.64008,-0.84576 -1.35118,-1.63455 -2.12442,-2.35799 0.5491,-0.22157 1.79017,-0.26899 7.14892,-0.30954 z m -53.52748,4.2664 v 5.2e-4 c 0.42685,-0.006 0.83629,0.47503 1.39371,1.62109 0.39967,0.82175 2.66779,5.9514 2.99,6.76238 0.50516,1.27145 0.53271,1.75164 0.12299,2.14974 -0.324,0.31479 -0.62864,0.38016 -1.04955,0.22582 -0.28794,-0.10557 -0.50428,-0.2439 -1.21026,-0.77359 -0.68037,-0.51046 -1.8889,-1.35698 -3.31453,-2.32234 -2.20195,-1.49103 -2.49983,-1.73799 -2.6262,-2.17506 -0.0429,-0.14839 -0.0673,-0.58862 -0.0677,-1.22112 -5.3e-4,-0.90717 0.01,-1.01441 0.12247,-1.29966 0.15349,-0.38806 0.56058,-0.8335 1.40973,-1.54202 1.1841,-0.98798 1.73244,-1.35078 2.14354,-1.41749 0.0287,-0.005 0.0573,-0.007 0.0858,-0.008 z m 75.627419,0.0186 c 0.0885,-2.7e-4 0.17441,0.0195 0.26148,0.0641 l 2.11822,9.99113 c -0.13769,-0.0976 -0.28812,-0.20679 -0.45372,-0.32918 -0.51919,-0.38373 -1.786,-1.27121 -2.815329,-1.97249 -2.88334,-1.9644 -2.80362,-1.87913 -2.88148,-3.10162 -0.0612,-0.96067 0.0616,-1.65989 0.36897,-2.09962 0.2917,-0.41732 1.97415,-1.84874 2.63498,-2.24172 0.30698,-0.18257 0.54485,-0.30978 0.766879,-0.31057 z m -21.971789,1.51205 c 0.23197,-0.003 0.46432,0.037 0.68007,0.12712 0.46289,0.19341 2.90445,0.3955 7.50962,0.62167 2.45522,0.12059 3.42888,0.27556 3.61373,0.57464 0.30162,0.48806 -1.16605,1.08752 -4.90306,2.00298 -2.90235,0.71099 -5.50254,1.1653 -6.66781,1.1653 -0.51832,0 -0.73568,-0.0396 -1.02423,-0.18707 -0.46616,-0.23819 -0.65571,-0.50168 -0.79943,-1.11259 -0.13677,-0.5814 -0.15307,-1.83815 -0.0284,-2.16782 0.23172,-0.61331 0.92364,-1.01421 1.61953,-1.02423 z m -3.19463,0.0935 c 0.19863,0.26265 0.29153,0.49677 0.35191,0.78187 8.6e-4,0.004 0.002,0.008 0.003,0.0124 -0.11217,-0.26803 -0.23026,-0.53282 -0.3545,-0.79427 z m -57.79441,1.58389 v 5.1e-4 c 0.79316,0.0172 1.95796,0.63355 2.2593,1.22422 0.13085,0.25651 0.13133,0.59735 0.002,0.88315 -0.12186,0.26833 -0.63934,0.78923 -0.93637,0.94206 -0.26842,0.13811 -0.91035,0.17572 -1.25936,0.0739 -0.59834,-0.17454 -1.14454,-0.57148 -1.33945,-0.97411 -0.2321,-0.47946 -0.0504,-1.4046 0.3545,-1.80454 0.22215,-0.21945 0.42679,-0.30999 0.76584,-0.34003 0.0491,-0.004 0.10077,-0.006 0.15348,-0.005 z m 75.64241,0.016 c 0.0488,10e-4 0.0984,0.005 0.14883,0.0114 1.0474,0.12915 2.20348,0.97022 2.20452,1.60456 7.9e-4,0.46034 -0.71667,1.32574 -1.20613,1.45521 -0.39388,0.10418 -0.60243,0.11654 -0.92759,0.0543 -0.49136,-0.0942 -0.95942,-0.35251 -1.26246,-0.69764 -0.30944,-0.35244 -0.38203,-0.59335 -0.32659,-1.0852 0.0946,-0.83948 0.63727,-1.36242 1.36942,-1.34256 z m -4.33927,1.65003 c 0.4267,0.0176 0.91125,0.3459 1.75287,1.16427 0.86676,0.84285 1.168,1.25748 1.20406,1.65468 0.0427,0.47041 -0.0372,0.67841 -0.59221,1.53583 -0.32186,0.49714 -1.08611,1.8973 -1.69809,3.11143 -0.61198,1.21413 -1.20047,2.28964 -1.30741,2.38952 -0.46759,0.43672 -0.87381,0.44952 -2.35697,0.0739 -0.59474,-0.15061 -1.25755,-0.35746 -1.47277,-0.4594 -0.54284,-0.25711 -1.02299,-0.8027 -1.18598,-1.34773 -0.19601,-0.65543 -0.32174,-2.51675 -0.26562,-3.92999 0.0592,-1.49117 0.19223,-1.85981 0.80357,-2.23035 0.44357,-0.26886 4.53607,-1.88604 4.9382,-1.9513 0.0595,-0.01 0.11939,-0.0134 0.18035,-0.0109 z m -48.38516,1.1188 c -0.22482,1.15267 -0.34261,2.34359 -0.34261,3.56205 0,0.8222 0.0536,1.63187 0.15761,2.4257 -0.58717,0.38315 -0.79495,0.45125 -1.07125,0.44906 -0.18062,-0.001 -0.35402,-0.0385 -0.47387,-0.1018 -0.22901,-0.12094 -0.43483,-0.45273 -0.47853,-0.77153 -0.0234,-0.17049 -0.001,-0.32429 0.0832,-0.58136 0.25795,-0.78496 0.98876,-2.50487 1.9973,-4.701 0.0425,-0.0925 0.0852,-0.18656 0.12815,-0.28112 z m -25.39173,0.0863 c 0.0262,0.0257 0.0526,0.0518 0.0796,0.0785 0.81003,0.80237 1.02928,1.13677 1.05989,1.61747 0.0276,0.43416 -0.0502,0.62908 -0.55139,1.38286 -0.55787,0.83906 -0.92876,1.52072 -1.95492,3.58893 -0.0334,0.0673 -0.0657,0.13269 -0.0971,0.19585 z m 65.78978,0.74207 h 5.2e-4 c 0.39103,0.006 0.43721,0.0512 0.58291,0.22014 0.10855,0.12588 0.23821,0.36854 0.28784,0.54002 0.0497,0.17148 0.126,1.43512 0.17001,2.80758 0.0811,2.5294 0.14076,3.08982 0.37828,3.54914 0.0726,0.14045 0.52821,0.67215 1.01182,1.18132 0.95465,1.0051 1.35186,1.55297 1.35186,1.86501 0,0.35937 -0.24147,0.72248 -1.17823,1.77095 -0.50766,0.56817 -1.01716,1.15593 -1.13274,1.30689 -0.46407,0.60606 -1.32044,0.84243 -2.47169,0.68213 -0.51781,-0.0721 -3.13145,-0.65027 -4.94595,-1.09399 -0.25441,-0.0622 -0.47886,-0.11934 -0.67799,-0.17363 1.82532,-2.86717 2.88302,-6.27115 2.88302,-9.92188 0,-0.76736 -0.0467,-1.52367 -0.13746,-2.26652 0.98846,-0.28839 2.12115,-0.44718 3.35587,-0.46406 0.22343,-0.003 0.39151,-0.005 0.52193,-0.003 z m -47.61466,0.0796 c 0.11281,-0.005 0.25262,0.0141 0.49093,0.0589 0.25904,0.0487 0.92614,0.17283 1.48259,0.27596 1.15334,0.21375 1.79466,0.36856 2.03192,0.49041 0.0903,0.0464 0.3018,0.19259 0.47026,0.32452 0.34893,0.2733 0.42704,0.47816 0.30799,0.80874 -0.30188,0.83827 -2.24831,4.93863 -3.13521,6.60425 -0.71307,1.33918 -0.80163,1.51985 -0.88574,1.80454 -0.0886,0.29982 -0.47549,0.69161 -0.76894,0.77876 -0.27678,0.0822 -0.41996,0.0781 -0.68833,-0.0201 -0.28195,-0.10319 -0.59314,-0.41377 -0.70332,-0.70228 -0.10477,-0.27436 -0.0949,-0.65895 0.11421,-4.40025 0.27396,-4.90065 0.43721,-5.79391 1.0945,-5.99085 0.0635,-0.019 0.12146,-0.0297 0.18914,-0.0326 z m -12.78113,0.52607 c 0.0507,-1.5e-4 0.10269,0.002 0.15761,0.007 0.4405,0.0353 0.76112,0.2033 2.14044,1.12293 2.08939,1.39304 2.59612,1.78722 2.84582,2.2133 0.11871,0.20256 0.13573,0.28432 0.11731,0.57361 -0.0245,0.38355 -0.15097,0.68998 -1.2237,2.58847 -0.97769,-1.31819 -1.92731,-2.6907 -2.99982,-3.90622 -0.61369,2.02635 -0.77035,5.53441 -0.69453,8.83718 -0.0345,-0.007 -0.0672,-0.0142 -0.0977,-0.0232 -0.38786,-0.11477 -0.82355,-0.32622 -1.51619,-0.73639 -0.35704,-0.21144 -1.27353,-0.72639 -2.03656,-1.14463 -1.61312,-0.88419 -1.99149,-1.14124 -2.19729,-1.49242 -0.30578,-0.52178 -0.24849,-0.9536 0.37983,-2.85926 0.49119,-1.48976 0.70753,-1.99051 1.0144,-2.34352 0.25899,-0.29792 2.24904,-1.89358 2.91869,-2.34043 0.55827,-0.37253 0.83649,-0.4945 1.19166,-0.49557 z m 75.6667,0.0165 c 0.24391,10e-4 0.48946,0.0674 0.75034,0.19843 0.71996,0.3616 3.593049,2.34892 4.009059,2.77296 0.52113,0.53117 0.5842,0.87827 0.28008,1.54254 -0.47809,1.04428 -3.756469,6.70267 -3.954279,6.82491 -0.18183,0.11238 -0.59615,0.11615 -0.95446,0.0165 0.29854,-2.94737 0.31778,-5.99129 -0.52452,-8.77259 -1.64475,1.83835 -2.99195,4.09988 -4.60075,5.94848 -0.64277,-0.47364 -0.79988,-0.86333 -0.71572,-1.45366 0.0942,-0.66083 1.12333,-3.64533 1.37821,-3.99717 0.39472,-0.5449 2.8262,-2.49998 3.59255,-2.88871 0.25378,-0.12873 0.49559,-0.19282 0.73949,-0.19172 z m -69.00199,4.95318 c 0.44518,0.0175 0.98471,0.41768 1.74149,1.27486 1.49617,1.69461 2.38273,3.73862 2.48409,5.70456 -1.0222,-0.31568 -2.02185,-0.65717 -2.87424,-1.2423 -1.28553,-0.88248 -2.35495,-2.08511 -3.36362,-3.38842 l 5.1e-4,-5.2e-4 c 0.72598,-1.35765 1.31581,-2.14751 1.71721,-2.30012 0.0942,-0.0359 0.19182,-0.0521 0.29456,-0.0481 z m 75.573679,0.0305 c 0.20278,0 0.46012,0.11208 0.74621,0.31006 h 5.1e-4 l 3.4153,16.11271 c -7.4e-4,2.4e-4 -0.001,2.7e-4 -0.002,5.2e-4 -0.68256,0.22451 -1.49557,0.29145 -4.21731,0.34881 l -2.668569,0.0563 -0.21808,-0.28629 c -0.0784,-0.10277 -0.14022,-0.21451 -0.18603,-0.33641 1.133509,-2.83477 1.974689,-5.83103 2.180739,-8.05636 l -4.082439,0.37311 c -0.0278,-0.0575 -0.0466,-0.10365 -0.0553,-0.13591 -0.16902,-0.62766 0.0594,-1.14988 1.36788,-3.12643 0.47663,-0.71995 1.0824,-1.70244 1.346169,-2.18281 0.96137,-1.75084 1.24883,-2.20647 1.66139,-2.63756 0.35084,-0.36659 0.46892,-0.43977 0.71159,-0.43977 z m -64.307699,1.08107 c 0.14114,0.002 0.29902,0.009 0.47697,0.0196 0.79211,0.0453 1.33054,0.14666 1.75493,0.34778 0.7595,3.17419 2.33746,6.03081 4.49792,8.33386 -0.28643,0.58534 -0.93009,0.79021 -2.45825,0.82527 -0.67079,0.0154 -1.52438,-0.009 -1.89704,-0.0537 -0.68893,-0.0827 -2.61882,-0.38503 -4.29018,-0.66146 -0.086,-0.15824 -0.18622,-0.30684 -0.30127,-0.4439 -0.80922,-0.96396 -1.85417,-1.4998 -2.9652,-1.90428 0.10873,-0.11768 0.23259,-0.23021 0.36846,-0.33279 0.2692,-0.20326 0.52912,-0.48485 0.57826,-0.6258 0.0491,-0.14096 0.42514,-0.757 0.83509,-1.36891 0.40994,-0.61188 1.00569,-1.60184 1.32446,-2.19987 0.89455,-1.67819 1.08782,-1.94886 2.07585,-1.9358 z m 49.23782,3.13418 c 0.62922,-0.0247 1.361,0.16471 2.33371,0.5426 -0.34582,0.31664 -0.70706,0.60989 -1.08728,0.87333 -1.53479,1.06338 -3.55452,1.34586 -5.32939,2.08773 0.23975,-0.32949 0.51175,-0.68394 0.81649,-1.06402 1.31071,-1.63474 2.11822,-2.39453 3.26647,-2.43964 z m -74.82541,0.0455 c 0.30909,0.0585 0.64599,0.15312 1.01958,0.28319 1.45338,0.50589 4.27284,1.83706 5.25032,2.47892 0.49999,0.32832 1.29949,0.59506 1.77922,0.87643 0.082,1.87356 0.23194,3.59076 0.40463,4.81418 l -4.78472,-0.43719 c -0.0285,-0.0164 -0.0517,-0.028 -0.0698,-0.0351 -0.17641,-0.0694 -0.53222,-0.22698 -0.79013,-0.35036 -0.80672,-0.38587 -0.83903,-0.38879 -4.31498,-0.37052 -0.0142,7e-5 -0.0283,-8e-5 -0.0424,0 z m 60.73635,3.80184 c 0.0123,0.002 0.0248,0.004 0.0372,0.007 0.74838,0.1384 2.0086,0.43275 2.41794,0.56534 0.20995,0.068 0.8886,0.23712 1.50844,0.37568 1.26822,0.2835 1.77146,0.43896 2.26963,0.70074 0.67345,0.35391 0.86419,0.74189 0.54415,1.10639 -0.27275,0.31065 -0.61365,0.43812 -1.22318,0.45837 -0.29089,0.01 -0.63214,0.008 -0.7581,-0.004 -0.12597,-0.0116 -0.71051,-0.0894 -1.29914,-0.17312 -1.41767,-0.2015 -2.25595,-0.25041 -4.30103,-0.25166 -0.80289,-4.4e-4 -1.3203,-0.008 -1.66967,-0.0357 0.91286,-0.83103 1.74191,-1.752 2.47376,-2.74918 z m 22.49216,0.19533 c 0.0961,0.1337 0.17113,0.26407 0.22428,0.39326 l -0.28216,0.0258 c 0.0197,-0.13923 0.0389,-0.27901 0.0579,-0.4191 z m -59.13747,3.04271 c 0.10435,0.008 0.20873,0.0156 0.31212,0.0233 2.76815,0.20403 3.33496,0.38742 4.593,1.48776 0.39496,0.34543 0.97591,0.75919 1.2914,0.91933 0.60175,0.30543 1.51466,1.18318 1.79834,1.72961 0.2166,0.41721 0.19093,0.96906 -0.0687,1.48156 -0.19246,0.3798 -0.80843,1.45863 -1.45573,2.56832 -2.35136,-0.51863 -4.80713,-1.26908 -6.6983,-2.71043 -0.71303,-0.54338 -0.0984,-1.85143 0.0599,-2.67271 0.17297,-0.89719 0.28036,-1.90945 0.16795,-2.8267 z m 9.43146,0.11111 v 5.1e-4 c 0.19645,0.008 0.40829,0.0345 0.63097,0.0806 0.50938,0.41392 1.04155,0.80091 1.5937,1.15962 -0.31029,0.44769 -1.0244,1.17148 -1.34565,1.30638 -0.35433,0.14879 -0.44577,0.14816 -0.79737,-0.005 -0.6109,-0.26611 -1.47678,-1.52679 -1.36219,-1.98334 0.0844,-0.33631 0.47109,-0.53134 1.02216,-0.55811 0.0827,-0.004 0.1688,-0.004 0.25838,-5.1e-4 z m 23.42183,0.49351 c 0.27679,0.31219 0.5047,0.67037 0.66559,1.05265 0.11729,0.27867 0.15565,0.45812 0.17363,0.81545 0.021,0.41752 0.0124,0.47377 -0.0966,0.63614 -0.18498,0.27521 -0.50858,0.40924 -1.04335,0.43253 -0.2477,0.0108 -0.58228,-9.2e-4 -0.74362,-0.0264 -0.50778,-0.0802 -1.76564,-0.42679 -2.69648,-0.72347 1.33665,-0.58316 2.59094,-1.31932 3.74086,-2.18694 z m 5.20382,0.0372 c 1.31698,0.002 1.96345,0.0545 2.87217,0.2341 1.38503,0.27375 2.36253,0.8115 2.58744,1.418 0.0152,0.0969 0.0316,0.19316 0.0486,0.28887 -0.0133,0.0637 -0.0496,0.13761 -0.11576,0.26458 -0.20176,0.38711 -0.49979,0.66501 -0.97513,0.90951 -0.64669,0.33264 -1.50629,0.58035 -2.6107,0.75293 -0.61692,0.0963 -2.88584,0.14571 -3.39979,0.0739 -0.73148,-0.10221 -1.31755,-0.35766 -1.52032,-0.66404 -0.18429,-0.27849 -0.22821,-0.49045 -0.19224,-0.92139 l 0.0326,-0.39016 0.45682,-0.57671 c 0.64178,-0.81008 0.93882,-1.10584 1.26401,-1.25935 0.27847,-0.13148 0.28654,-0.13203 1.55236,-0.13023 z m -64.05501,1.25678 c 0.14544,0 0.29669,-1e-4 0.45372,0 3.21148,0.002 3.77561,0.0136 4.1584,0.0889 0.0466,0.009 0.0907,0.0181 0.13229,0.0269 0.32694,1.73281 1.01076,3.34457 1.83968,4.7873 -1.02236,0.59716 -2.5715,1.43982 -3.8194,2.06293 -1.29178,0.64503 -1.68505,0.78153 -2.02417,0.70331 -0.34219,-0.0789 -0.6379,-0.35282 -1.9523295,-1.98747 z m 39.25135,0.38137 c 2.53726,1.30848 5.41622,2.04742 8.4677,2.04742 0.32377,0 0.64564,-0.008 0.96532,-0.0248 -0.47406,0.59421 -0.98931,1.24856 -1.40147,1.78336 -0.88638,1.15013 -1.26919,1.56133 -1.58646,1.70532 -0.25323,0.11492 -0.66107,0.1261 -1.00718,0.0274 -0.5993,-0.1709 -1.34705,-0.54241 -3.51193,-1.74512 -1.80099,-1.00055 -2.47086,-1.41632 -2.69647,-1.67328 -0.23022,-0.26219 -0.21192,-0.48399 0.093,-1.12396 0.19537,-0.41001 0.33052,-0.60966 0.67748,-0.99632 z m 13.88649,1.24126 c 0.44716,0.10172 1.02296,0.24004 1.78077,0.42582 1.18969,0.29165 2.46124,0.60042 2.82515,0.68626 1.37088,0.3234 1.93435,0.58144 2.12029,0.96945 0.0621,0.12954 0.10075,0.44357 0.14314,1.16944 0.0267,0.45762 0.0805,1.2882 0.12919,1.99833 -0.10841,0.0264 -0.21699,0.0526 -0.32556,0.0786 -3.28781,0.78498 -6.627,1.18155 -9.97562,1.26813 -0.0897,-0.0947 -0.18339,-0.19253 -0.27853,-0.29093 -0.94029,-0.97253 -1.14284,-1.22 -1.25419,-1.53118 -0.13585,-0.37963 0.0253,-0.79625 0.99064,-2.56625 0.43462,-0.79692 0.70069,-1.25522 0.91829,-1.56786 1.00313,-0.13508 1.98098,-0.35058 2.92643,-0.63976 z m 16.34112,1.27383 c 0.14083,-0.006 0.27275,-0.002 0.4284,0.005 0.0355,0.002 0.0701,0.003 0.10387,0.006 -0.0126,0.24278 -0.0801,0.45571 -0.23668,0.60978 -0.79137,0.77837 -2.07124,1.00731 -2.98534,1.34566 -1.79989,0.66623 -3.60157,1.22029 -5.4219,1.69808 0.0157,-0.61449 0.0682,-0.87349 0.16795,-1.13998 0.15602,-0.417 0.39938,-0.66591 0.88109,-0.90123 0.635,-0.31019 0.88697,-0.37439 4.69222,-1.19476 1.44748,-0.31207 1.94789,-0.41122 2.37039,-0.4284 z m -33.49408,0.33538 c 0.35987,0.003 1.12539,0.3368 2.20762,0.96221 0.5148,0.29748 1.4243,0.8019 2.02055,1.12087 0.67589,0.36157 1.26235,0.75233 1.55804,1.03714 0.45884,0.44193 0.47491,0.47265 0.47491,0.95137 0,0.12153 -0.0377,0.33532 -0.10077,0.60358 -2.14592,-0.2203 -4.28199,-0.5443 -6.39754,-0.95085 -0.70649,-0.13577 -1.46241,-0.27251 -2.24121,-0.42788 0.0843,-0.1479 0.17213,-0.30117 0.26304,-0.46044 1.53186,-2.68396 1.65386,-2.84075 2.21536,-2.836 z m 52.13481,1.08934 c 0.17403,0.01 0.39046,0.0324 0.65732,0.0667 0.53769,0.0692 2.006849,0.18465 3.264919,0.25683 3.04177,0.17448 3.41293,0.26344 3.57187,0.8537 0.0858,0.31878 0.0768,0.41461 -0.19688,1.96163 -0.17713,1.00138 -0.16553,1.50069 0.0692,2.89595 0.11016,0.65472 0.22157,1.39584 0.24702,1.64745 0.0516,0.50994 -0.0845,1.0243 -0.28061,1.06091 -0.0686,0.0128 -0.4553,-0.23873 -0.85938,-0.55914 -0.81508,-0.64632 -1.28101,-0.83457 -2.0655,-0.83457 -0.98083,0 -1.23665,-0.22512 -2.0805,-1.82986 -0.25259,-0.48036 -1.026659,-1.8261 -1.719789,-2.99103 -0.3957,-0.66502 -0.75047,-1.28282 -0.98185,-1.70533 0.12688,-0.27067 0.25173,-0.54535 0.37414,-0.8232 z m -80.75942,1.82831 c 0.58405,0.87122 1.20277,1.665 1.79731,2.3673 0.69384,0.81959 1.7994,1.51636 2.3518,2.52026 0.33756,0.61339 -0.24679,2.05621 -0.14677,2.89646 0.0571,0.47935 0.17737,0.93543 0.339,1.36839 -0.68664,0.45936 -1.30249,0.82622 -1.61179,0.93018 -0.29364,0.0987 -0.60196,0.0921 -0.91415,-0.0201 -0.49866,-0.17929 -1.36619,-0.77338 -2.72025,-1.86397 -0.79811,-0.64282 -1.17592,-1.05584 -1.40353,-1.53273 -0.20717,-0.43405 -0.81879,-2.22228 -1.00097,-2.92747 -0.25181,-0.97468 -0.20333,-1.40325 0.20877,-1.85415 0.29251,-0.32005 0.68742,-0.57193 1.96009,-1.25212 0.3512,-0.18771 0.7805,-0.42625 1.14049,-0.632 z m 79.81891,0.14883 c 0.30705,0.48457 0.68323,1.12355 1.16427,1.96215 1.485949,2.59051 2.118209,3.84816 2.118209,4.2137 0,0.26625 -0.0634,0.3723 -0.45165,0.74827 -0.979019,0.94827 -3.645029,2.77913 -4.359419,2.99414 -0.44015,0.13246 -0.39139,0.13286 -0.78394,-0.007 -0.32568,-0.11621 -0.73158,-0.3475 -1.28726,-0.73949 0.42513,-1.27147 0.52151,-2.70738 0.0543,-4.35012 1.1479,-0.79363 2.40466,-2.60445 3.54552,-4.82141 z m 9.502259,0.30851 2.13165,10.05468 c -0.66731,0.0913 -0.9459,0.0687 -1.1715,-0.0465 -0.52826,-0.26987 -0.64746,-0.82948 -0.81494,-3.82095 -0.0666,-1.18947 -0.1643,-2.8484 -0.21704,-3.68608 -0.079,-1.25511 -0.0688,-2.00441 0.0718,-2.50114 z m -51.353459,0.41754 c 0.58952,7.9e-4 2.38739,0.4592 3.03238,0.77308 0.24849,0.12093 0.45721,0.26485 0.63097,0.43667 -1.64654,0.0172 -3.29446,-0.0389 -4.93872,-0.15917 0.19437,-0.33553 0.37648,-0.61315 0.47956,-0.72243 0.28177,-0.29877 0.35341,-0.32867 0.79581,-0.32815 z m -44.5673,1.62626 c 0.48255,0.004 0.78821,0.19458 1.10587,0.63975 0.13242,0.18557 0.64738,1.11757 1.1436,2.07068 0.93771,1.8011 1.23673,2.35176 1.73891,3.19722 0.37826,0.6368 0.48605,0.95004 0.48783,1.42213 0.002,0.47129 -0.15909,0.82274 -0.59893,1.30949 -0.35778,0.39595 -1.28271,1.14628 -1.67845,1.36167 -0.35787,0.19478 -0.8128,0.22867 -1.22266,0.0904 -0.32501,-0.10955 -3.8622195,-1.52449 -4.3330695,-1.73322 -0.4346,-0.19266 -0.6934,-0.41163 -0.83975,-0.89866 v -5.1e-4 l 1.44901,-6.79339 c 0.56118,-0.23569 1.31627,-0.44699 2.1993495,-0.60926 0.20707,-0.0381 0.38744,-0.0575 0.54829,-0.0563 z m 92.798979,4.2354 h 5.2e-4 c 0.30366,0.005 0.53733,0.17164 0.71572,0.50695 0.0902,0.16961 0.11125,0.29277 0.11007,0.64233 l -0.002,0.43305 -0.84594,1.90841 c -0.46532,1.04974 -1.21364,2.73964 -1.66295,3.75585 -1.22243,2.7648 -1.50745,3.27053 -1.96267,3.4773 -0.25526,0.11594 -0.34185,0.11608 -0.671279,0.002 -0.37872,-0.13089 -0.76679,-0.37911 -1.41024,-0.90279 -0.89752,-0.73044 -1.63811,-1.46311 -1.78698,-1.76785 -0.17495,-0.35819 -0.24851,-0.96782 -0.2222,-1.84226 0.0377,-1.25255 0.0824,-1.30238 2.89181,-3.20497 0.57385,-0.38864 1.569989,-1.07379 2.213819,-1.52291 1.50691,-1.05119 1.96796,-1.33868 2.30477,-1.4366 0.11735,-0.0342 0.2264,-0.0502 0.32762,-0.0486 z m -81.307209,3.5807 c 0.34835,0.6147 0.74895,1.17155 1.11621,1.6707 0.77187,1.04905 1.6168,1.99108 2.51303,2.84375 -0.71793,1.62092 -0.96324,2.07333 -1.27021,2.39521 -0.26807,0.28109 -0.58739,0.37055 -0.93638,0.26355 -0.55419,-0.16994 -1.49568,-0.87176 -2.60914,-1.94562 -0.78492,-0.75699 -0.89932,-1.10024 -0.86093,-2.57401 0.0165,-0.63379 0.0341,-0.78156 0.11679,-0.96531 0.17601,-0.39092 0.52431,-0.71369 1.93063,-1.68827 z m -5.07772,0.86455 c 0.30753,-0.0114 0.60333,0.0386 0.84956,0.15503 0.34023,0.16095 0.78527,0.62889 0.88986,0.93586 0.23253,0.68242 -0.15235,1.32288 -1.05781,1.75958 -0.39088,0.18852 -0.98983,0.35416 -1.24179,0.34313 -0.0585,-0.003 -0.18504,-0.0233 -0.28112,-0.046 -0.60976,-0.14365 -0.96171,-0.60648 -1.04799,-1.3777 -0.0675,-0.60339 0.0428,-0.92236 0.42633,-1.23351 0.4051,-0.32867 0.9504,-0.5173 1.46296,-0.5364 z m 75.54991,0.0207 c 0.0832,-0.003 0.16913,-0.002 0.25786,0.003 0.52546,0.0247 0.723,0.10349 1.10794,0.44287 0.63682,0.56145 0.66231,1.38167 0.0605,1.9482 -0.59413,0.55921 -1.76618,0.89805 -2.36627,0.68368 -0.40212,-0.14366 -0.67594,-0.46814 -0.80977,-0.95447 0.6093,-0.64804 1.19845,-1.3498 1.68931,-2.12028 0.0199,-0.001 0.0402,-0.002 0.0605,-0.003 z m -86.6112495,0.8692 c 0.10023,0.0195 0.20178,0.0394 0.30437,0.0599 2.86542,0.57298 5.8297395,1.38943 6.9065595,1.90221 0.5464,0.26021 0.69306,0.60427 0.34519,0.80977 -0.38956,0.23012 -1.20255,0.33363 -3.45612,0.43977 -1.8862495,0.0888 -3.5086495,0.18864 -4.8487995,0.29817 z m 103.0365985,0.0289 2.53111,11.94191 c -0.0939,-0.006 -0.1684,-0.0157 -0.21652,-0.0284 -0.85332,-0.22574 -1.6712,-0.9836 -2.24896,-2.08308 -0.29275,-0.55708 -0.37964,-0.87067 -0.60927,-2.20141 -0.28406,-1.64627 -0.4439,-2.40526 -0.88676,-4.2168 -0.26641,-1.08972 -0.35076,-2.1042 -0.21704,-2.60346 0.0577,-0.2153 0.78589,-0.65041 1.09089,-0.65164 0.0601,-1.8e-4 0.28117,-0.0636 0.55655,-0.1571 z m -4.17235,0.70022 c 0.78514,0 1.27169,0.85591 1.61437,2.84014 0.0778,0.4503 0.33998,1.67756 0.58239,2.72696 0.84077,3.63986 0.8189,4.04809 -0.30851,5.79345 -0.21663,0.33533 -0.45953,0.80295 -0.5395,1.03921 -0.13354,0.39455 -0.23285,1.05372 -0.28784,1.87637 -3.08029,0.59291 -6.1543,1.11826 -9.226819,1.58078 -0.0766,-0.42827 -0.18276,-0.90746 -0.33797,-1.58285 -0.14739,-0.64137 -0.17658,-1.16333 -0.0729,-1.31878 0.26494,-0.39678 0.83352,-0.35609 2.68666,0.19275 2.392789,0.70865 2.783969,0.53533 3.219949,-1.42523 0.31582,-1.42017 0.27051,-2.19379 -0.23616,-4.04368 -0.29844,-1.08968 -0.43471,-1.76309 -0.43925,-2.16783 -0.006,-0.56686 0.0222,-0.6454 0.83716,-2.25878 0.46427,-0.91923 1.00439,-1.90697 1.19941,-2.19469 0.3967,-0.5853 0.98114,-1.05782 1.30897,-1.05782 z m -86.521339,2.90111 c 0.74508,0 1.22938,0.18475 2.23346,0.85112 1.06017,0.70361 2.9691,2.28367 3.25975,2.69802 0.73579,1.04894 1.439,3.3496 1.44849,4.73873 0.004,0.57041 -0.0498,0.77836 -0.24495,0.94258 -0.16865,0.14191 -0.24404,0.14235 -0.89814,0.003 -0.28065,-0.0597 -2.16981,-0.52686 -4.19819,-1.03818 -4.30582,-1.08539 -5.7409,-1.42869 -6.23941,-1.4919 -0.6366,-0.0807 -0.95229,-0.36925 -0.94981,-0.86816 0.002,-0.41556 0.23985,-0.85426 0.84025,-1.55133 0.18091,-0.21004 0.61171,-0.73838 0.95757,-1.17357 1.0715,-1.34824 1.13492,-1.42371 1.58285,-1.89188 0.52227,-0.54586 0.88285,-0.8266 1.34979,-1.05109 0.33462,-0.1609 0.36755,-0.16744 0.85834,-0.16744 z m 75.57368,0.006 c 0.81453,-0.0187 1.7388,0.44367 3.02463,1.41386 1.63842,1.23622 2.457709,2.00495 2.778639,2.60708 0.5666,1.06303 1.19682,3.3453 1.19682,4.3341 0,0.169 -0.0593,0.44833 -0.13126,0.62064 -0.11754,0.28131 -0.16553,0.31302 -0.47387,0.3085 -0.18886,-0.003 -2.599619,-0.57178 -5.357289,-1.264 -2.75767,-0.69224 -5.21686,-1.285 -5.4653,-1.31723 -0.60038,-0.0779 -0.90037,-0.24044 -1.03302,-0.56069 -0.13902,-0.33562 -0.0113,-0.82951 0.33487,-1.2945 0.7164,-0.96243 2.86768,-3.52717 3.30729,-3.94291 0.61805,-0.58445 1.18496,-0.89027 1.81849,-0.90485 z m -67.07549,0.0837 c 1.51509,1.27661 3.14237,2.33733 4.78679,3.26233 0.29566,1.25733 0.3821,1.79085 0.40979,2.47014 0.0221,0.54185 0.0121,0.68007 -0.0734,1.01802 -0.11614,0.45928 -0.3158,0.86923 -0.73535,1.50896 -0.3607,0.54997 -0.57857,0.97258 -0.68162,1.3224 -0.17298,0.58724 -0.25445,1.77016 -0.31574,4.74286 -3.03424,-0.29988 -6.06291,-0.65498 -9.08627,-1.06867 -0.0555,-0.39931 -0.12798,-0.72739 -0.23151,-1.11776 -0.31964,-1.20533 -0.39927,-1.89899 -0.25063,-2.18643 0.21508,-0.41593 0.91378,-0.36622 2.73627,0.19379 0.91714,0.28181 1.33712,0.37039 1.75028,0.36948 0.84774,-0.002 1.1214,-0.37808 1.45676,-2.00349 0.11107,-0.53833 0.12843,-0.73166 0.12971,-1.43402 0.002,-0.90643 -0.0123,-0.98323 -0.48266,-2.61742 -0.32359,-1.12437 -0.38293,-1.42264 -0.38447,-1.92908 -10e-4,-0.33854 0.0224,-0.51044 0.10232,-0.74207 0.0706,-0.20481 0.45801,-0.99028 0.86971,-1.78904 z m -14.23944,0.5917 c 0.44083,-0.005 0.78895,0.0198 0.97048,0.0744 0.86371,0.25993 0.65971,0.91406 -0.80098,2.56884 -0.28548,0.32343 -0.78989,0.92525 -1.12138,1.33687 -0.59586,0.7399 -0.8242,0.96352 -1.21646,1.19062 -0.17704,0.1025 -0.3292,0.12324 -1.2567695,0.17105 -1.03909,0.0535 -3.07349,0.0974 -5.26221,0.12454 l 1.05885,-4.96352 c 2.5406,-0.0995 4.6847395,-0.239 6.1019495,-0.40049 0.55213,-0.0629 1.08569,-0.0974 1.52652,-0.10232 z m 75.69822,0.0315 v 5.2e-4 c 1.72551,0.003 1.81879,0.52474 0.39481,2.21123 -0.40811,0.48332 -1.04719,1.24859 -1.42007,1.70067 -0.37288,0.4521 -0.84356,0.93883 -1.04593,1.08107 l -0.36794,0.25787 -2.1611,0.0811 c -1.29267,0.0486 -3.3935,0.0745 -5.53765,0.0806 3.20992,-1.31656 6.40222,-3.07517 9.30021,-5.3821 0.32975,-0.0197 0.63106,-0.0313 0.83767,-0.031 z m -55.44468,3.30471 c 1.02108,0.53454 2.03973,1.02428 3.03341,1.48828 1.07481,0.50188 2.16281,0.96031 3.26182,1.37614 -0.0679,0.20772 -0.13052,0.37718 -0.18397,0.49506 -0.18191,0.40119 -0.45962,0.69127 -0.7736,0.80874 -0.33098,0.12384 -0.91296,0.18702 -1.71152,0.18603 -0.56967,-7.9e-4 -0.69108,-0.015 -0.9896,-0.11679 -0.82588,-0.28132 -1.50295,-0.9528 -2.04639,-2.03088 -0.34304,-0.68053 -0.40512,-0.86156 -0.46457,-1.35289 -0.0298,-0.24593 -0.0719,-0.53246 -0.12558,-0.85369 z m -24.7442195,3.10368 c 1.11956,0 1.2576695,0.15951 1.6918795,1.94872 0.13932,0.57406 0.39842,1.58612 0.5762,2.24948 0.0292,0.10902 0.0571,0.2127 0.0832,0.31109 -2.4690595,-0.45677 -4.9349595,-0.95596 -7.3974895,-1.49913 l 0.56121,-2.63033 c 1.76948,-0.1896 4.01042,-0.37983 4.485,-0.37983 z m 75.6899495,0.006 c 0.59838,0 0.98202,0.17709 1.16996,0.54053 0.13194,0.25517 0.92193,3.20427 1.36787,5.10615 0.14434,0.61562 0.2237,1.05332 0.20516,1.4857 -5.3997,0.57528 -10.81507,0.96869 -16.2755,1.20096 0.43357,-0.64638 0.99242,-1.26373 2.15181,-2.46393 0.84145,-0.87107 2.20012,-2.28937 3.01997,-3.15175 1.59685,-1.67967 1.87859,-1.90693 2.63188,-2.12287 0.50243,-0.14401 4.84462,-0.59479 5.72885,-0.59479 z m -43.14775,0.29507 c 0.32714,0.11142 0.65508,0.21934 0.98392,0.32349 -0.50493,0.0276 -0.79062,-0.006 -0.86558,-0.0997 -0.0531,-0.0664 -0.0926,-0.13682 -0.11834,-0.22376 z m 31.66783,0.65112 c 0.46729,0.14085 0.86093,0.44861 0.86093,0.69143 0,0.28859 -0.33007,0.85826 -1.3534,2.33733 -0.53286,0.77017 -1.46962,2.13179 -2.08153,3.02617 -0.385,0.56273 -0.70008,1.01946 -0.96377,1.39113 -2.85916,0.10626 -5.73146,0.16903 -8.62118,0.1912 -0.0182,-0.28121 -0.0331,-0.64158 -0.0475,-1.10691 -0.0687,-2.21494 -0.1023,-2.30789 -1.05988,-2.90473 -0.84899,-0.52916 -1.09826,-0.91312 -0.88625,-1.61282 4.78637,-0.0834 9.55539,-0.78247 14.15262,-2.0128 z m -59.99789,0.53537 c 0.49063,-0.0135 1.24634,0.0812 2.42466,0.28009 2.00042,0.3376 3.03776,0.58388 3.54397,0.84077 0.31297,0.15881 0.61166,0.47802 0.74156,0.79272 0.13097,0.3173 0.61565,1.90232 0.81029,2.64222 -2.60214,-0.3708 -5.20037,-0.78564 -7.79488,-1.24644 -0.0866,-0.27754 -0.19726,-0.63014 -0.28215,-0.89969 -0.36182,-1.14889 -0.4396,-1.71937 -0.27802,-2.03967 0.11839,-0.23469 0.34394,-0.35647 0.83457,-0.37 z m 75.86307,0.0543 c 0.74806,0 3.36937,0.41305 4.63383,0.73019 1.35979,0.34105 1.69582,0.65064 2.08153,1.92133 0.21595,0.71144 0.38728,1.30695 0.52141,1.83038 -2.43186,0.3523 -4.86356,0.66545 -7.29774,0.94103 -0.0237,-0.62704 -0.20009,-1.3985 -0.58446,-2.66031 -0.74787,-2.45532 -0.67575,-2.76262 0.64543,-2.76262 z m -45.16416,0.15503 c 0.65715,-0.003 0.83006,0.0114 1.03766,0.0837 0.59592,0.20754 0.8082,0.72247 0.65267,1.58595 -0.0273,0.15139 -0.18293,0.7552 -0.34571,1.34203 -0.15603,0.56245 -0.57468,2.12924 -0.94827,3.55017 -3.82231,-0.18527 -7.63502,-0.44906 -11.43909,-0.7984 0.0462,-0.77465 0.0859,-1.46718 0.11782,-2.05672 0.12404,-2.2887 0.19705,-2.84241 0.42271,-3.20755 0.0525,-0.085 0.0991,-0.15516 0.10336,-0.15555 0.004,-2.6e-4 0.0903,-0.0299 0.19172,-0.0651 0.17839,-0.0621 0.19605,-0.0584 0.53381,0.10903 0.43284,0.21455 0.80063,0.35932 1.0511,0.41342 0.46133,0.0996 3.97643,-0.22554 6.53449,-0.60462 1.10823,-0.16423 1.41487,-0.19329 2.08773,-0.19637 z m 3.00033,0.0951 c 3.54331,0.77111 7.15098,1.15228 10.75697,1.17977 -0.1525,0.3149 -0.34964,0.6065 -0.56741,0.82475 -0.32238,0.3231 -0.54526,0.45058 -0.99322,0.56638 -0.36426,0.0941 -1.37432,0.15452 -1.80558,0.108 -0.10205,-0.011 -0.55085,-0.0602 -0.99735,-0.10955 -0.88746,-0.0979 -2.18882,-0.20132 -3.52485,-0.27957 -1.88693,-0.11051 -2.5283,-0.24201 -2.8267,-0.58188 -0.18472,-0.21038 -0.20583,-0.31209 -0.17674,-0.84801 0.0198,-0.36491 0.0578,-0.64345 0.13488,-0.85989 z m 62.501609,0.21755 c 0.16001,0.007 0.39303,0.0907 0.7798,0.25528 0.46315,0.19709 0.77981,0.27099 1.16117,0.27079 0.22606,-1.1e-4 0.72978,-0.0333 1.36374,-0.0863 l 0.11885,0.56121 c -1.37081,0.30237 -2.73946,0.59128 -4.10672,0.86661 0.0773,-1.04082 0.15707,-1.37772 0.34158,-1.65933 0.0946,-0.14432 0.18157,-0.21496 0.34158,-0.20826 z m -58.961259,3.8561 c 0.7144,0.0184 2.771,0.0504 4.56975,0.0708 3.51756,0.04 3.6237,0.0479 4.05505,0.293 0.49944,0.28388 0.60192,0.64263 0.59583,2.07429 -4.3e-4,0.102 -0.001,0.19982 -0.003,0.29352 -0.33793,0.001 -0.67598,0.002 -1.01441,0.002 -4.23488,-1e-5 -8.4573,-0.0847 -12.66848,-0.26355 0.0423,-0.3312 0.107,-0.70831 0.1943,-1.13378 0.13364,-0.6513 0.15744,-0.70683 0.36691,-0.86661 0.49334,-0.37629 1.7325,-0.52529 3.90363,-0.46922 z" /><path
     id="path40"
     style="display:inline;fill:none;fill-opacity:1;stroke:#000000;stroke-width:0.05;stroke-dasharray:none;stroke-opacity:1"
     d="M 79.085811,0.02965126 A 99.992225,99.992225 0 0 1 58.297931,2.2145313 99.992225,99.992225 0 0 1 37.510051,0.03016126 L 0.02965147,176.36307 a 280.26474,280.26474 0 0 0 58.26827953,6.12417 280.26474,280.26474 0 0 0 58.268799,-6.12417 z" /><style
     id="style1">
		tspan { white-space:pre } 
		.s0 { fill: none;stroke: #ff0000;stroke-miterlimit:100 } 
	</style><style
     id="style1-9">
		tspan { white-space:pre } 
		.s0 { fill: none;stroke: #ff0000;stroke-miterlimit:100 } 
	</style><style
     id="style1-1">
		tspan { white-space:pre } 
		.s0 { fill: none;stroke: #ff0000;stroke-miterlimit:100 } 
	</style><style
     id="style1-5">
		tspan { white-space:pre } 
		.s0 { fill: none;stroke: #ff0000;stroke-miterlimit:100 } 
	</style><style
     id="style1-52">
		tspan { white-space:pre } 
		.s0 { fill: none;stroke: #ff0000;stroke-miterlimit:100 } 
	</style><rect
     style="fill:none;fill-opacity:1;stroke:#000000;stroke-width:0.0450734;stroke-dasharray:none;stroke-opacity:1"
     id="rect9"
     width="20.054926"
     height="3.0549266"
     x="48.237167"
     y="124.13606" /></svg>
