<?xml version="1.0" encoding="UTF-8" standalone="no"?>
<!-- Created with Inkscape (http://www.inkscape.org/) -->

<svg
   width="210mm"
   height="297mm"
   viewBox="0 0 210 297"
   version="1.1"
   id="svg1"
   sodipodi:docname="KruhKolemStromu1.svg"
   xml:space="preserve"
   inkscape:version="1.4.2 (2aeb623e1d, 2025-05-12)"
   xmlns:inkscape="http://www.inkscape.org/namespaces/inkscape"
   xmlns:sodipodi="http://sodipodi.sourceforge.net/DTD/sodipodi-0.dtd"
   xmlns="http://www.w3.org/2000/svg"
   xmlns:svg="http://www.w3.org/2000/svg"><sodipodi:namedview
     id="namedview1"
     pagecolor="#ffffff"
     bordercolor="#000000"
     borderopacity="0.25"
     inkscape:showpageshadow="2"
     inkscape:pageopacity="0.0"
     inkscape:pagecheckerboard="0"
     inkscape:deskcolor="#d1d1d1"
     inkscape:document-units="mm"
     inkscape:zoom="0.37910231"
     inkscape:cx="21.102483"
     inkscape:cy="639.669"
     inkscape:window-width="1920"
     inkscape:window-height="940"
     inkscape:window-x="0"
     inkscape:window-y="0"
     inkscape:window-maximized="1"
     inkscape:current-layer="layer1" /><defs
     id="defs1" /><g
     inkscape:label="Layer 1"
     inkscape:groupmode="layer"
     id="layer1"><path
       style="fill:#000000;stroke:none;stroke-width:0.426569;stroke-opacity:1"
       d="m 52.226899,273.32006 c -0.375628,-0.79401 -1.150345,-1.483 -3.335264,-2.96619 -3.44747,-2.34027 -4.748325,-4.07902 -4.964433,-6.6356 l -0.06635,-0.78493 -0.642445,-0.23424 c -0.838336,-0.30568 -1.804222,-0.9363 -2.450778,-1.60008 l -0.518106,-0.53192 -0.732977,-10e-4 c -0.977307,-0.002 -2.045803,-0.23978 -2.944004,-0.65378 l -0.736612,-0.33953 -0.506695,0.44601 c -1.946928,1.71375 -4.12032,2.00992 -8.376673,1.1415 -2.69543,-0.54995 -3.492068,-0.58896 -4.276373,-0.20941 -0.540581,0.26161 -0.694335,0.11704 -0.463387,-0.43568 0.302238,-0.72337 0.217706,-1.86148 -0.325252,-4.37909 -0.938866,-4.35338 -0.693274,-6.66112 0.905331,-8.50705 l 0.447151,-0.51632 -0.255691,-0.50544 c -0.515906,-1.01984 -0.729094,-1.93419 -0.747186,-3.20471 l -0.01699,-1.19349 -0.59155,-0.6391 c -0.628763,-0.67927 -1.183048,-1.62006 -1.494711,-2.53696 l -0.190107,-0.55928 -0.851575,-0.12748 c -2.835941,-0.42449 -4.48994,-1.90636 -7.309866,-6.54916 -0.60981,-1.00401 -1.430217,-1.85253 -2.0701463,-2.14109 -0.596316,-0.26892 -0.596353,-0.52436 -1.04e-4,-0.70301 0.7397813,-0.22163 1.7021223,-1.3026 2.8281473,-3.17676 2.398671,-3.99235 4.117673,-5.4156 6.925186,-5.73376 l 0.673989,-0.0764 0.298748,-0.76868 c 0.400206,-1.02972 0.679525,-1.46727 1.466105,-2.29663 l 0.663048,-0.69909 0.06869,-0.9364 c 0.06876,-0.93732 0.433466,-2.28212 0.807656,-2.97803 l 0.196319,-0.3651 -0.523899,-0.69216 c -1.637181,-2.16302 -1.77721,-4.05 -0.680612,-9.17176 0.331797,-1.54969 0.335299,-2.80479 0.0096,-3.42721 -0.279602,-0.53428 -0.101276,-0.64801 0.608483,-0.38807 0.845869,0.30979 1.937696,0.25094 4.167936,-0.22467 4.05694,-0.86514 6.270647,-0.58454 8.263401,1.04745 l 0.669175,0.54803 0.738897,-0.34059 c 0.898391,-0.41408 1.967863,-0.65232 2.939585,-0.65483 0.709967,-0.001 0.735002,-0.0117 1.115087,-0.43223 0.479562,-0.53082 1.610737,-1.28269 2.430073,-1.61523 0.603241,-0.24483 0.615645,-0.25852 0.672513,-0.74212 0.365656,-3.10955 1.315336,-4.3854 5.328534,-7.15865 2.012053,-1.39039 2.794266,-2.10225 3.08385,-2.80648 0.251266,-0.61105 0.465191,-0.60448 0.722954,0.0222 0.285953,0.69523 1.088316,1.45404 2.650543,2.5067 4.078842,2.74841 5.431055,4.46576 5.661344,7.19009 0.04998,0.59124 0.111115,0.80912 0.238792,0.85104 0.785714,0.25796 2.038653,1.00171 2.670419,1.58517 l 0.727832,0.67218 1.02177,0.0636 c 1.020808,0.0634 2.01322,0.32282 2.83082,0.73993 l 0.412295,0.21034 0.610203,-0.50238 c 2.118225,-1.74396 4.210844,-1.95118 9.107012,-0.90181 1.397204,0.29946 2.512037,0.30717 3.243299,0.0224 0.736742,-0.28687 0.880152,-0.19174 0.628892,0.41721 -0.314796,0.76291 -0.2455,1.89168 0.2532,4.12466 1.00376,4.49438 0.74901,6.74596 -0.974874,8.61614 l -0.419932,0.45558 0.281954,0.55641 c 0.396021,0.7815 0.698096,2.05065 0.698096,2.93299 v 0.74949 l 0.672216,0.71536 c 0.70526,0.75051 1.15327,1.47904 1.47987,2.40645 l 0.1953,0.55457 0.95051,0.13445 c 2.54399,0.35985 4.17706,1.60574 6.24697,4.76592 0.56183,0.85774 1.14875,1.7529 1.30427,1.98925 0.47585,0.72314 1.2771,1.4522 1.89752,1.72657 0.7363,0.32565 0.73523,0.40112 -0.0108,0.7664 -0.79652,0.39002 -1.44912,1.12683 -2.30309,2.60031 -2.66175,4.59268 -4.38246,6.13269 -7.20227,6.44589 l -0.69538,0.0773 -0.2897,0.78512 c -0.36786,0.99694 -0.86336,1.81463 -1.51132,2.49397 l -0.51005,0.53477 v 1.12555 c 0,1.26921 -0.17673,2.09965 -0.668195,3.13984 l -0.323847,0.68542 0.479882,0.61895 c 1.59497,2.0572 1.79053,4.09398 0.81331,8.47045 -0.549133,2.45925 -0.621713,3.28934 -0.36248,4.14551 0.23912,0.78979 0.19223,0.84265 -0.514743,0.58036 -0.809035,-0.30015 -1.950495,-0.25522 -3.788856,0.14917 -3.793344,0.83444 -5.285426,0.81725 -7.206162,-0.083 -0.47324,-0.22182 -1.132374,-0.62915 -1.464739,-0.90521 l -0.604307,-0.5019 -0.63441,0.31476 c -0.872333,0.43282 -1.861355,0.67066 -2.827874,0.68003 l -0.814392,0.008 -0.740468,0.68456 c -0.679076,0.62781 -1.512532,1.12287 -2.658179,1.57894 l -0.387124,0.15409 -0.05929,0.84581 c -0.176988,2.52474 -1.562636,4.24089 -5.526735,6.84495 -1.683531,1.10593 -2.425846,1.79734 -2.79473,2.60309 -0.336886,0.73585 -0.397202,0.73666 -0.741021,0.009 z m 2.419165,-4.60315 c 3.94379,-2.71256 4.815134,-4.02054 4.405635,-6.61334 -0.08208,-0.51971 -0.150629,-0.99315 -0.152327,-1.05209 -0.0018,-0.059 0.168013,-0.0924 0.377137,-0.0745 1.402832,0.12085 3.83267,-0.98703 3.148274,-1.43547 -2.357185,-1.54449 -3.782295,-5.09675 -3.098288,-7.72285 0.233603,-0.89685 0.272108,-0.85607 -0.725989,-0.76895 -1.45387,0.12687 -4.369485,1.11839 -4.257672,1.44789 0.03275,0.0965 0.633488,0.81699 2.818851,3.38061 1.017324,1.19341 1.622223,1.6029 1.842149,1.24705 0.319053,-0.51623 0.743671,0.39711 0.674786,1.45144 -0.09966,1.52529 -1.124482,2.72319 -2.821078,3.29755 l -0.53578,0.18137 -0.185075,0.75293 c -0.323911,1.31771 -1.186681,2.56896 -2.7138,3.93571 l -0.787967,0.70523 -0.781064,-0.72548 c -1.550995,-1.44064 -2.349093,-2.60684 -2.68252,-3.91981 l -0.191351,-0.75348 -0.528539,-0.17893 c -2.103421,-0.71208 -3.320624,-2.68988 -2.739361,-4.45111 0.137597,-0.41692 0.297303,-0.48636 0.665478,-0.28932 0.370516,0.1983 0.893309,-0.25927 2.512275,-2.19882 0.844987,-1.01232 1.639228,-1.93277 1.76498,-2.04546 0.3708,-0.33229 0.276199,-0.4679 -0.651843,-0.93452 -1.22795,-0.6174 -4.174581,-1.27453 -4.174581,-0.93097 0,0.0148 0.07176,0.3657 0.159465,0.77976 0.578478,2.73104 -0.587133,5.62995 -3.052873,7.59258 l -0.47343,0.37683 0.554297,0.35568 c 0.687655,0.44127 1.575101,0.72366 2.587824,0.82345 l 0.776468,0.0765 -0.08766,0.44253 c -0.593535,2.99641 0.282875,4.512 4.160752,7.19529 0.739436,0.51165 1.513829,1.07289 1.720872,1.2472 l 0.376443,0.31693 0.322661,-0.25705 c 0.177466,-0.14136 0.975247,-0.70587 1.772845,-1.25447 z m -0.870025,-5.70629 c 0.332822,-0.68753 0.443563,-1.44759 0.342415,-2.35015 -0.102941,-0.91858 -0.06361,-0.99937 0.406635,-0.83546 0.603527,0.2104 1.643019,0.0779 2.227,-0.28405 0.672033,-0.41644 0.685065,-0.5079 0.119619,-0.83927 -0.623507,-0.3654 -1.322244,-1.14268 -2.899853,-3.2258 l -1.298953,-1.71519 -0.256794,0.31101 c -0.141233,0.17105 -0.747715,0.94019 -1.347732,1.7092 -1.350494,1.73088 -2.014969,2.44352 -2.680364,2.87469 -1.035619,0.67105 0.75442,1.54518 2.344386,1.14481 0.599683,-0.15101 0.574294,-0.19369 0.449058,0.75487 -0.181271,1.37295 0.147528,2.47046 1.025445,3.4229 l 0.447719,0.48571 0.449061,-0.496 c 0.246979,-0.2728 0.54954,-0.70357 0.672358,-0.95727 z m -21.90815,-3.74768 c 1.23069,-0.26134 2.428386,-1.12768 3.160091,-2.28583 0.380798,-0.60272 0.376312,-0.60243 0.987195,-0.0646 1.517791,1.33602 3.170561,1.75461 2.927507,0.74145 -0.623863,-2.60055 0.82276,-6.17238 3.076535,-7.59621 0.586146,-0.37028 0.588244,-0.33938 -0.06279,-0.92471 -1.006631,-0.90506 -2.763377,-1.87989 -3.739548,-2.07513 l -0.314526,-0.063 -0.07059,0.73614 c -0.314648,3.28127 -0.184274,5.73864 0.309177,5.82758 0.354289,0.0638 0.39624,0.18554 0.214315,0.62169 -0.662166,1.58747 -2.989915,2.24584 -4.803464,1.35858 -0.860905,-0.42118 -0.740153,-0.41868 -1.299022,-0.0269 -0.903225,0.63323 -2.560667,0.96418 -4.843102,0.96708 l -0.725994,8.3e-4 -0.02472,-1.04867 c -0.05915,-2.50914 0.07197,-3.47495 0.620581,-4.57099 l 0.363348,-0.72592 -0.318865,-0.51293 c -0.856952,-1.37856 -0.751734,-3.35893 0.238215,-4.48357 0.690342,-0.78428 1.303384,-1.02431 1.420839,-0.55632 0.144161,0.57438 0.636959,0.59828 4.584099,0.22238 2.227959,-0.21217 2.010656,-0.0881 1.718491,-0.98167 -0.844304,-2.58244 -2.322508,-4.37851 -2.838199,-3.4485 -1.323561,2.38689 -4.514911,3.80874 -7.532959,3.35616 l -0.522745,-0.0785 0.0717,0.52313 c 0.09841,0.71797 0.607021,1.76077 1.257534,2.57828 l 0.544079,0.68374 -0.297787,0.24635 c -2.539944,2.1011 -2.838976,3.35517 -1.87961,7.88271 0.23816,1.12394 0.46174,2.22319 0.496844,2.44277 0.05785,0.36183 0.101217,0.4051 0.463051,0.46214 0.219575,0.0346 1.246219,0.22779 2.281432,0.42931 1.035213,0.20151 2.003205,0.38625 2.151092,0.41052 0.569482,0.0935 1.842915,0.0681 2.387796,-0.0476 z m 45.635338,-0.25449 c 0.769015,-0.16319 1.785405,-0.35178 2.258649,-0.4191 l 0.860435,-0.12239 0.03332,-0.37505 c 0.01834,-0.20627 0.199002,-1.15057 0.40149,-2.09843 0.572301,-2.67901 0.596211,-2.83608 0.598664,-3.93286 0.0038,-1.7303 -0.568335,-2.91667 -1.942108,-4.02664 l -0.755832,-0.61068 0.482265,-0.55129 c 1.371832,-1.56822 1.827215,-3.35953 0.805746,-3.16953 -2.678187,0.49818 -5.813339,-0.83266 -7.301403,-3.09936 l -0.528744,-0.8054 -0.399576,0.40897 c -1.894084,1.93869 -2.706451,4.54842 -1.416954,4.55198 0.425383,8.3e-4 1.426817,0.0728 2.225409,0.15919 2.505533,0.27102 3.20017,0.19471 3.499641,-0.3844 0.177646,-0.34352 0.281187,-0.33352 0.928262,0.0896 1.408721,0.92122 1.715142,3.2068 0.678572,5.06143 l -0.26565,0.47529 0.380969,0.77085 c 0.484569,0.98045 0.685142,2.09866 0.689957,3.84656 0.0049,1.81623 0.08247,1.70297 -1.163969,1.7019 -2.184501,-10e-4 -3.527907,-0.28831 -4.56083,-0.97249 l -0.489504,-0.32423 -0.642456,0.32647 c -1.903827,0.96745 -4.021703,0.4447 -4.872055,-1.20256 -0.270798,-0.52457 -0.262283,-0.58206 0.105158,-0.71016 0.482879,-0.16833 0.593528,-0.66149 0.509988,-2.27309 -0.03848,-0.74257 -0.101323,-2.01779 -0.139633,-2.83385 l -0.06965,-1.48375 -0.318621,0.07 c -1.09055,0.23953 -3.145898,1.41682 -3.983675,2.28183 l -0.410017,0.42335 0.538252,0.34539 c 2.377379,1.52556 3.721343,4.95089 3.09834,7.89668 l -0.08743,0.41337 0.356308,-0.072 c 0.652156,-0.13174 1.853668,-0.76567 2.550118,-1.34546 0.592512,-0.49326 0.704516,-0.54941 0.806659,-0.40428 1.041565,1.47978 1.381233,1.80869 2.402477,2.32635 1.056811,0.53569 2.822673,0.55899 5.137406,0.0678 z m -13.194136,-2.54222 c 0.07686,-2.1122 -0.860333,-3.94775 -2.43009,-4.75952 l -0.33899,-0.1753 -0.165653,0.55783 c -0.568419,1.91409 0.39658,4.39222 2.167002,5.5649 0.654588,0.43358 0.711957,0.34481 0.767731,-1.18791 z m -21.746587,0.3192 c 1.256741,-1.31898 1.812633,-3.34121 1.348761,-4.90653 l -0.136387,-0.46025 -0.333175,0.19136 c -1.960729,1.1261 -3.247774,4.61405 -2.280244,6.17955 0.07657,0.12388 0.863928,-0.44042 1.401045,-1.00413 z m -12.04482,-2.79745 c 0.673442,-0.24821 1.400817,-0.86954 1.865309,-1.5934 0.401231,-0.62526 0.467346,-0.64907 0.640672,-0.23061 0.323149,0.78014 1.499441,1.62006 2.27551,1.62478 l 0.387576,0.002 -0.145578,-0.56122 c -0.187756,-0.72381 -0.181891,-2.23637 0.01576,-4.06364 0.294809,-2.72551 0.499089,-2.52508 -2.173632,-2.13257 -1.606203,0.23589 -3.55559,0.31593 -4.198978,0.1724 -0.999586,-0.22298 0.147589,1.91892 1.364896,2.5484 0.309753,0.16018 0.44469,0.37977 0.233369,0.37977 -0.832192,0 -2.467755,3.33281 -2.00389,4.08335 0.09638,0.15596 1.025751,0.0332 1.738989,-0.22964 z m 46.05251,-0.19686 c 0.08258,-1.1432 -0.640296,-2.5864 -1.696962,-3.38797 -0.516366,-0.3917 -0.52314,-0.43305 -0.106225,-0.64865 0.871488,-0.45066 1.510544,-1.29395 1.659894,-2.19037 0.0767,-0.46034 0.07206,-0.47083 -0.175333,-0.39781 -0.601657,0.17764 -2.029571,0.18675 -3.265634,0.0209 -3.99006,-0.53547 -3.566733,-0.78657 -3.277144,1.94386 0.240725,2.26972 0.242799,3.74898 0.0061,4.36813 -0.370223,0.96848 1.648973,0.0777 2.35695,-1.03975 0.441234,-0.69645 0.437736,-0.69491 0.673475,-0.29583 0.748948,1.26786 2.302946,2.20743 3.521022,2.12885 0.238668,-0.0154 0.272817,-0.0717 0.303845,-0.50134 z M 53.06895,250.79389 c 1.763849,-1.20977 4.293759,-1.92435 6.448238,-1.82135 l 0.989286,0.0473 0.915775,-0.92924 c 1.593793,-1.61725 4.576813,-3.22651 5.980826,-3.22651 0.08099,0 0.176006,-0.1331 0.211155,-0.29578 0.557939,-2.58245 1.506692,-4.407 3.136146,-6.03118 l 0.898363,-0.89544 0.03169,-1.79342 c 0.04202,-2.37798 0.460256,-3.81761 1.637965,-5.63817 l 0.479846,-0.74177 -0.481971,-0.7733 c -1.24988,-2.00534 -1.676646,-3.40636 -1.758239,-5.77208 l -0.0575,-1.6671 -0.547958,-0.43452 c -1.537729,-1.2194 -2.906413,-3.57242 -3.503591,-6.02332 l -0.105944,-0.43478 -0.808019,-0.18798 c -2.137826,-0.49738 -4.376663,-1.85809 -5.590892,-3.39804 l -0.425898,-0.54015 -0.928239,0.0659 c -2.009134,0.14262 -4.647987,-0.59439 -6.394116,-1.78584 -0.429606,-0.29313 -0.429111,-0.29321 -1.397478,0.25863 -1.792659,1.02159 -3.835765,1.53086 -5.672691,1.41397 l -1.047112,-0.0666 -0.829467,0.86819 c -1.370676,1.43467 -2.986222,2.38888 -5.048442,2.98179 l -1.03414,0.29734 -0.262651,0.90976 c -0.655945,2.27206 -1.940717,4.34524 -3.414927,5.51052 l -0.545366,0.43107 -0.01329,1.35772 c -0.02119,2.16551 -0.525135,3.91052 -1.669025,5.77936 l -0.65103,1.06362 0.283749,0.484 c 1.283273,2.18891 1.8561,4.34913 1.755822,6.62149 l -0.05478,1.24137 0.644329,0.61276 c 1.553472,1.47734 2.651736,3.37132 3.240073,5.58761 l 0.242884,0.91495 0.778153,0.19762 c 2.045128,0.51937 3.929712,1.60046 5.364942,3.07761 l 0.887243,0.91315 0.726077,-0.072 c 1.918806,-0.19026 4.788301,0.60968 6.544147,1.82436 0.641193,0.44357 0.511581,0.43508 1.046041,0.0685 z m -24.556848,-9.60005 c 1.920143,-0.92121 2.974892,-2.52711 1.822167,-2.77433 -2.019491,-0.4331 -5.877383,1.64642 -5.447415,2.93633 0.15277,0.45831 2.556165,0.35091 3.625248,-0.162 z m 51.280925,0.34504 c 0.633481,-0.12249 0.637951,-0.13881 0.225784,-0.82447 -1.055793,-1.75635 -3.343358,-2.76297 -5.243179,-2.30721 -0.667682,0.16018 -0.68274,0.25543 -0.163931,1.03705 1.060464,1.59765 3.225325,2.47283 5.181326,2.09463 z m -56.048359,-2.48273 c 1.766279,-2.14446 4.873807,-3.28974 7.212578,-2.65818 0.943578,0.25479 0.901107,-1.47074 -0.09795,-3.97896 -0.61261,-1.53805 -0.574326,-1.5263 -1.627426,-0.49931 -0.484609,0.47258 -1.405312,1.33742 -2.046006,1.92184 -1.245502,1.13612 -1.694461,1.77637 -1.483026,2.11493 0.43292,0.69322 -1.399784,1.01119 -2.514698,0.43631 -1.036017,-0.53421 -1.986984,-1.82518 -2.165131,-2.93926 -0.06154,-0.38485 -0.09222,-0.41136 -0.616911,-0.53331 -1.149069,-0.26706 -4.693004,-3.09336 -4.693004,-3.74269 0,-0.6463 3.597215,-3.41658 4.780195,-3.68132 0.547627,-0.12255 0.583089,-0.15083 0.649555,-0.5179 0.311919,-1.72256 1.915739,-3.18275 3.497284,-3.18408 1.121152,-8.3e-4 1.589442,0.28765 1.277425,0.78729 -0.228879,0.36649 3.794487,4.80496 4.355585,4.80496 0.456376,0 1.573149,-3.26235 1.573149,-4.59552 v -0.69693 l -0.564663,0.15247 c -2.50041,0.67512 -6.017077,-0.77401 -7.504893,-3.09256 -0.597642,-0.93135 -1.332907,0.16864 -1.638272,2.45093 -0.119498,0.8931 -0.124713,0.9042 -0.396142,0.84304 -2.794637,-0.6297 -4.717063,0.39639 -6.668526,3.55932 -1.169008,1.89473 -1.839999,2.91047 -2.045503,3.09645 -0.206125,0.18653 -0.198833,0.20611 0.416817,1.11853 0.344637,0.51078 1.038995,1.55788 1.54302,2.32689 2.063928,3.14903 3.464569,3.88715 6.506031,3.42856 l 0.457106,-0.0688 v 0.75571 c 0,1.31387 0.911624,3.56519 1.248796,3.084 0.08028,-0.11458 0.325347,-0.42611 0.544601,-0.6923 z m 59.029128,-0.10836 c 0.328666,-0.64858 0.479156,-1.23835 0.570646,-2.23619 0.0684,-0.74585 0.0973,-0.82514 0.29022,-0.7962 3.38943,0.50841 4.76644,-0.35056 7.20704,-4.49567 0.40055,-0.68028 0.93547,-1.53647 1.18872,-1.90264 0.38938,-0.56301 0.43664,-0.68555 0.30613,-0.79386 -0.0849,-0.0705 -0.76565,-1.04983 -1.51282,-2.17642 -2.40876,-3.63189 -3.88063,-4.64022 -6.25436,-4.28469 -0.45539,0.0682 -0.9244,0.13591 -1.04226,0.15041 -0.19182,0.0237 -0.22206,-0.0583 -0.28845,-0.7818 -0.1969,-2.14579 -1.000031,-3.35668 -1.594583,-2.40417 -1.444101,2.31352 -4.778982,3.78153 -7.355495,3.23786 l -0.740886,-0.15632 0.06011,0.97963 c 0.08262,1.34645 0.625222,3.03215 1.271401,3.9498 l 0.198085,0.28132 2.149545,-2.10975 c 2.204869,-2.16403 2.447702,-2.49344 2.168155,-2.94105 -0.388178,-0.62157 1.199358,-0.95699 2.401181,-0.50733 1.088637,0.40731 2.169217,1.69043 2.379927,2.82601 0.0824,0.44412 0.1108,0.46303 1.14409,0.76205 0.89888,0.2601 1.82002,0.92188 3.18768,2.29009 l 1.21716,1.21767 -0.92783,1.00887 c -1.57601,1.71363 -2.52797,2.40894 -3.71781,2.71545 -0.71988,0.18545 -0.7365,0.19768 -0.80293,0.59084 -0.37197,2.2017 -2.749184,3.87083 -4.427629,3.10881 -0.442011,-0.20066 -0.448366,-0.21113 -0.325608,-0.53636 0.180152,-0.47728 -0.08977,-0.91368 -1.149574,-1.85861 -0.478734,-0.42685 -1.394474,-1.25855 -2.034975,-1.84823 -0.922622,-0.84941 -1.185874,-1.04012 -1.267169,-0.91797 -1.046779,1.57284 -1.880717,5.30237 -1.144472,5.11828 2.920857,-0.73034 6.09684,0.4499 7.777572,2.89024 l 0.417764,0.60657 0.202364,-0.24991 c 0.111303,-0.13745 0.313379,-0.46898 0.449061,-0.73673 z m -58.721728,-4.95771 c 0.119895,-0.37776 1.518861,-1.76995 3.250045,-3.23432 1.999931,-1.69169 2.093075,-1.2849 -0.887325,-3.87524 -1.114591,-0.96871 -1.717248,-1.62217 -2.110099,-2.28801 -0.623047,-1.05598 -1.374972,1.29752 -0.899501,2.81542 0.07393,0.23602 0.07137,0.23644 -1.046894,0.17312 -1.384741,-0.0785 -1.929537,0.0763 -2.825839,0.80281 -0.94756,0.76798 -0.958335,0.81297 -0.331627,1.38487 0.980598,0.89485 1.429925,1.0595 2.89047,1.05919 1.220574,-2.6e-4 1.266771,0.008 1.202243,0.2151 -0.28571,0.91701 -0.150343,2.245 0.293302,2.87736 0.248686,0.35448 0.369112,0.37253 0.465225,0.0697 z m 57.84309,-0.42783 c 0.310482,-0.58932 0.356586,-1.51564 0.122757,-2.46637 l -0.06642,-0.27008 1.217617,8.3e-4 c 1.45586,8.2e-4 2.05794,-0.23583 2.98778,-1.17735 l 0.55643,-0.56343 -0.57175,-0.51677 c -1.07217,-0.96908 -2.51534,-1.33298 -3.893637,-0.98178 -0.304707,0.0776 -0.308993,0.0726 -0.235325,-0.27618 0.255911,-1.21159 0.171856,-1.99187 -0.287632,-2.67003 -0.331546,-0.48933 -0.420429,-0.4907 -0.694535,-0.0106 -0.349112,0.61139 -1.203444,1.50739 -2.49288,2.61445 -2.632488,2.26018 -2.612938,1.82719 -0.173895,3.85138 1.477174,1.22592 2.385052,2.11949 2.7098,2.66709 0.334728,0.56442 0.43057,0.54093 0.821694,-0.20145 z M 76.402924,220.3987 c 2.103077,-0.44565 4.65252,-2.97878 3.233864,-3.21317 -2.215371,-0.36603 -4.432569,0.68017 -5.372505,2.53504 -0.290945,0.57415 -0.299115,0.56233 0.4963,0.71791 0.692923,0.13554 0.830709,0.1322 1.642341,-0.0398 z m -45.596765,-0.15774 c 2.174154,-0.5046 -2.224506,-3.49541 -4.688073,-3.18759 -0.898402,0.11223 -0.927504,0.16277 -0.501678,0.87109 1.063944,1.76978 3.28116,2.75945 5.189751,2.3165 z m 42.628388,-2.90285 c 1.4864,-1.64252 3.534809,-2.4526 5.950139,-2.35308 1.357137,0.0559 1.321168,0.089 0.979854,-0.903 -0.226921,-0.65954 -0.604315,-1.3012 -1.182103,-2.00979 l -0.384641,-0.47173 0.374485,-0.28116 c 2.561617,-1.92325 2.83573,-3.11656 1.831063,-7.9713 -0.238716,-1.15352 -0.434204,-2.19999 -0.434418,-2.32543 -3.46e-4,-0.19975 -0.08333,-0.23749 -0.667444,-0.30357 -0.366878,-0.0415 -1.371171,-0.22029 -2.23176,-0.39727 -4.011584,-0.82502 -6.053394,-0.28791 -7.372656,1.93946 -0.394678,0.66635 -0.337847,0.66604 -1.155669,0.007 -1.814661,-1.46367 -2.950627,-1.6337 -2.760155,-0.41315 0.427214,2.73763 -0.924238,5.8867 -3.135211,7.30549 -0.857855,0.55048 0.50486,1.81694 2.94215,2.73434 1.131189,0.42577 1.151395,0.41688 1.149735,-0.50658 -8.26e-4,-0.42886 0.05688,-1.68194 0.128112,-2.78461 0.147977,-2.29058 0.0744,-2.83431 -0.399601,-2.95329 -0.744324,-0.18681 0.210502,-1.63481 1.409045,-2.13683 0.99957,-0.41867 2.537274,-0.28157 3.473968,0.30973 l 0.420166,0.26524 0.446408,-0.32829 c 0.918091,-0.67517 2.745055,-1.05313 5.104837,-1.05606 l 0.740289,-8.2e-4 -0.05778,1.96286 c -0.06415,2.17908 -0.209065,2.93077 -0.727151,3.77157 -0.378212,0.6138 -0.377581,0.60759 -0.108312,1.06398 0.926904,1.57098 0.568445,3.92026 -0.745301,4.88462 -0.586506,0.43053 -0.834531,0.45408 -0.972086,0.0923 -0.211962,-0.55751 -0.775076,-0.58293 -4.489671,-0.20262 -2.268645,0.23226 -2.142398,0.12239 -1.639384,1.42675 0.40794,1.05784 0.966588,1.97993 1.708599,2.82018 l 0.5801,0.65691 0.321736,-0.5996 c 0.176953,-0.32977 0.583149,-0.88846 0.902662,-1.24153 z m -39.645944,1.09446 c 0.95229,-1.06965 2.137027,-3.2699 2.142799,-3.97951 0.0019,-0.22704 -0.04291,-0.24213 -0.724025,-0.24423 -0.399297,-0.001 -1.403588,-0.0724 -2.231758,-0.15815 -2.677321,-0.27722 -3.30778,-0.20931 -3.512654,0.3784 -0.255956,0.73423 -1.784271,-0.56582 -2.130467,-1.81226 -0.262477,-0.94504 0.0086,-2.68436 0.521099,-3.34371 0.199617,-0.25681 0.198536,-0.26411 -0.111596,-0.75289 -0.613964,-0.96762 -0.763747,-1.68473 -0.817709,-3.91491 l -0.04895,-2.02314 1.490596,0.0724 c 2.323681,0.11281 3.661601,0.44338 4.516701,1.11599 l 0.272173,0.21409 0.394398,-0.25978 c 1.163249,-0.76618 2.911562,-0.76415 4.076719,0.005 0.967627,0.63855 1.484761,1.72871 0.88875,1.87358 -0.540246,0.1313 -0.59286,0.65512 -0.374427,3.72779 l 0.193683,2.72453 0.278592,-0.0659 c 1.979327,-0.46847 4.805955,-2.49691 3.962339,-2.84345 -2.187975,-0.89876 -3.947791,-5.0368 -3.310682,-7.78476 0.194597,-0.83933 -1.558959,-0.29463 -2.926347,0.909 -0.623165,0.54854 -0.647507,0.54556 -1.084911,-0.13224 -1.469798,-2.27762 -3.209767,-2.73064 -7.332376,-1.90903 -0.887325,0.17683 -1.912636,0.35231 -2.278467,0.38995 l -0.665151,0.0685 -0.0685,0.44297 c -0.03767,0.24364 -0.243118,1.31418 -0.456535,2.37898 -0.846372,4.22274 -0.488776,5.93311 1.554019,7.43288 0.802452,0.58914 0.790169,0.52906 0.242634,1.18667 -1.418626,1.70381 -1.709823,3.00027 -0.634119,2.82321 2.636762,-0.43396 5.641067,0.93077 7.092302,3.22176 0.576588,0.91023 0.51494,0.89549 1.081872,0.25868 z m 37.852897,-6.387 c 1.579371,-0.23761 3.680379,-0.32311 4.22152,-0.17178 0.846689,0.23679 0.02577,-1.63665 -1.011761,-2.30894 -0.639636,-0.41447 -0.662232,-0.30225 0.226534,-1.12511 0.996966,-0.92304 1.31979,-1.57482 1.337122,-2.69966 l 0.01275,-0.82846 -0.43022,0.0304 c -1.280278,0.0905 -2.270684,0.63666 -3.029291,1.67029 -0.610876,0.83235 -0.592989,0.82882 -0.983555,0.19407 -0.501859,-0.81561 -1.402448,-1.39701 -2.184314,-1.41011 l -0.281655,-0.005 0.145533,0.61843 c 0.198319,0.84276 0.18533,1.59369 -0.06465,3.73753 -0.304558,2.61192 -0.302161,2.65855 0.132876,2.58875 0.192254,-0.0308 1.051347,-0.16168 1.909095,-0.29073 z m -35.49302,-0.33798 c 0,-0.25295 -0.04775,-0.84586 -0.106119,-1.31753 -0.314329,-2.5402 -0.32878,-4.19301 -0.04317,-4.9373 0.0719,-0.18735 0.03727,-0.19738 -0.451082,-0.13064 -0.874938,0.1196 -1.570021,0.65404 -2.273268,1.74791 -0.124477,0.19361 -0.136861,0.19427 -0.248775,0.013 -0.803191,-1.30105 -1.994279,-2.09955 -3.286477,-2.20328 l -0.720047,-0.0578 0.05226,0.8143 c 0.07272,1.13319 0.420946,1.80642 1.406153,2.71856 0.678943,0.62861 0.749934,0.72953 0.589828,0.83858 -0.871781,0.59373 -1.096634,0.80465 -1.374634,1.28936 -0.374765,0.65342 -0.454182,1.43891 -0.132386,1.30939 0.478037,-0.19244 1.994043,-0.15684 3.845077,0.0903 1.064791,0.14214 2.117481,0.26445 2.339313,0.27179 l 0.40333,0.0134 z m 23.335516,-3.49271 c -0.0021,-0.0443 -0.07395,-0.37105 -0.15965,-0.72598 -0.600473,-2.48685 0.623515,-5.67893 2.847555,-7.42625 l 0.663834,-0.52153 -0.248851,-0.18973 c -0.812425,-0.6194 -2.067699,-1.05843 -3.026309,-1.05843 h -0.527389 l 0.09288,-0.51088 c 0.525724,-2.89177 -0.330049,-4.53368 -3.514845,-6.74368 -0.677729,-0.47029 -1.585483,-1.11764 -2.017231,-1.43856 l -0.784997,-0.58348 -0.398103,0.28956 c -0.218959,0.15926 -1.098931,0.78045 -1.955502,1.38041 -3.424779,2.3988 -4.422303,3.90304 -4.110396,6.19838 0.06909,0.50834 0.138402,1.02098 0.154053,1.13922 0.02572,0.19425 -0.05437,0.22204 -0.831981,0.28865 -0.99549,0.0853 -1.609666,0.28231 -2.339025,0.75034 -0.617752,0.39642 -0.62698,0.34989 0.206392,1.04022 2.366547,1.96031 3.241394,4.49307 2.65926,7.69878 l -0.07638,0.42057 0.850419,-0.0679 c 1.103603,-0.0882 2.242572,-0.40973 3.363847,-0.94977 l 0.90011,-0.43353 -0.37271,-0.39407 c -0.204988,-0.21674 -0.982119,-1.12616 -1.726955,-2.02093 -1.790919,-2.15142 -2.332742,-2.58142 -2.739791,-2.17438 -0.329671,0.32967 -0.744074,-0.73185 -0.637383,-1.63268 0.170714,-1.44142 1.252175,-2.6515 2.831247,-3.16799 0.544852,-0.17822 0.551715,-0.18599 0.620286,-0.7029 0.139454,-1.05125 0.833554,-2.16925 2.251119,-3.62594 l 1.294197,-1.32991 0.955308,0.94594 c 1.612141,1.59632 2.215001,2.50237 2.537232,3.81324 l 0.185074,0.75292 0.53578,0.18138 c 1.826135,0.61821 2.916284,2.03871 2.825681,3.68195 -0.05288,0.959 -0.308431,1.37377 -0.691698,1.12264 -0.504107,-0.3303 -0.792787,-0.081 -3.087261,2.6655 -1.890408,2.26288 -1.917269,2.11136 0.519329,2.9293 1.113059,0.37364 2.963515,0.62403 2.95285,0.39955 z m 3.397612,-1.47581 c 1.214169,-1.20803 1.818612,-3.64903 1.261837,-5.09582 -0.235713,-0.61251 -2.054682,1.29353 -2.618435,2.74375 -0.277527,0.71392 -0.352031,2.54051 -0.125361,3.07333 l 0.125117,0.2941 0.406631,-0.23726 c 0.223646,-0.13049 0.651243,-0.48064 0.950211,-0.7781 z m -18.726536,0.70612 c 0.366887,-0.59364 0.203655,-2.55687 -0.300003,-3.6082 -0.552845,-1.15401 -2.043258,-2.646 -2.343389,-2.34587 -0.45145,0.45146 -0.319918,2.58764 0.230319,3.74055 0.565138,1.18414 2.150489,2.6384 2.413073,2.21352 z m 10.113218,-3.88204 c 1.411542,-1.8576 1.987175,-2.49254 2.647956,-2.9207 0.627086,-0.40634 0.622431,-0.47229 -0.06334,-0.8975 -0.547612,-0.33954 -1.575868,-0.44352 -2.36636,-0.2393 l -0.322665,0.0834 v -1.37403 c 0,-1.75495 -0.902572,-3.69041 -1.537362,-3.2967 -1.015506,0.62985 -1.473104,2.17905 -1.282719,4.34266 0.01677,0.19067 -0.02324,0.2583 -0.13767,0.23249 -1.300134,-0.29333 -2.106499,-0.18079 -2.787059,0.38898 l -0.367078,0.30731 0.379584,0.2346 c 0.460294,0.28447 1.78958,1.6687 2.448654,2.54983 0.264422,0.35352 0.792727,1.04231 1.174016,1.53064 0.827961,1.06042 0.628165,1.14539 2.214049,-0.94166 z"
       id="path6-2"
       sodipodi:nodetypes="csscssccscsssssscsscsscsssssscsscsscsssssscsccsssssssssccscsssssscsscsscssssssccsscsscssssssscsccsscssscccsccsssssssscsscsscssssssssscsscssscsccssscsscsssssscsscscsssccscsssccsscsssscsccsscssssssccsscsscscssscscsscscsccscssssscsscsscsscssssscssssscssscssccsssssssccssssccssssssssscsssscsscsscsscsscsssscsscsscsscsscsscsscssssssssssssscssssssssssscssscssssssssccssccsssssssscssscsscsssssscsssssssssscsssssssccssssscsccscssssssssccsssssssssscssscsssssscssscsssscsccsssssssscscccccsssssscsscscsscssssssccsssscscccsssscsssccsscccssssscscssssssccsssscsscssscssssssssccscssssssscsscssssssssssscssssssssssscssscscsssss" /></g></svg>
