<?xml version="1.0" encoding="UTF-8" standalone="no"?>
<!-- Created with Inkscape (http://www.inkscape.org/) -->

<svg
   width="210mm"
   height="297mm"
   viewBox="0 0 210 297"
   version="1.1"
   id="svg1"
   sodipodi:docname="KruhKolemStromu2.svg"
   xml:space="preserve"
   inkscape:version="1.4.2 (2aeb623e1d, 2025-05-12)"
   xmlns:inkscape="http://www.inkscape.org/namespaces/inkscape"
   xmlns:sodipodi="http://sodipodi.sourceforge.net/DTD/sodipodi-0.dtd"
   xmlns="http://www.w3.org/2000/svg"
   xmlns:svg="http://www.w3.org/2000/svg"><sodipodi:namedview
     id="namedview1"
     pagecolor="#ffffff"
     bordercolor="#000000"
     borderopacity="0.25"
     inkscape:showpageshadow="2"
     inkscape:pageopacity="0.0"
     inkscape:pagecheckerboard="0"
     inkscape:deskcolor="#d1d1d1"
     inkscape:document-units="mm"
     inkscape:zoom="0.70510012"
     inkscape:cx="329.03129"
     inkscape:cy="519.78434"
     inkscape:window-width="1920"
     inkscape:window-height="940"
     inkscape:window-x="0"
     inkscape:window-y="0"
     inkscape:window-maximized="1"
     inkscape:current-layer="layer1"
     showgrid="false" /><defs
     id="defs1" /><g
     inkscape:label="Layer 1"
     inkscape:groupmode="layer"
     id="layer1"><path
       style="fill:#000000;stroke-width:0.547493"
       d="m 44.912858,73.901078 c -4.335556,-0.461941 -8.822772,-1.895064 -12.51027,-3.995518 -0.591954,-0.337186 -0.946532,-0.554649 -1.694229,-1.039071 -4.414285,-2.859954 -8.392748,-7.1498 -10.888592,-11.74081 -0.489945,-0.901234 -1.463802,-2.873133 -1.463802,-2.963954 0,-0.02125 -0.09445,-0.245225 -0.209893,-0.497717 -0.62278,-1.362149 -1.600206,-4.743961 -1.908855,-6.604478 -0.510574,-3.077716 -0.701133,-6.842817 -0.448706,-8.86563 0.04428,-0.354807 0.129706,-1.040165 0.189843,-1.523018 0.214832,-1.724919 0.369067,-2.55337 0.742307,-3.987191 0.21174,-0.81341 0.801839,-2.719136 0.940119,-3.03612 0.05266,-0.120712 0.185704,-0.466392 0.295651,-0.768174 0.828875,-2.275076 3.503446,-6.850321 4.875966,-8.341052 0.09306,-0.101071 0.363232,-0.41383 0.600387,-0.695015 4.156824,-4.928589 10.35377,-8.816669 16.541812,-10.3786448 3.011434,-0.76014 4.276312,-0.923126 7.574035,-0.975945 3.2036,-0.05132 5.3121,0.114609 7.35051,0.57842 0.36213,0.0824 0.77365,0.174511 0.91449,0.20469 1.06711,0.228682 3.80758,1.1014768 4.71878,1.5028588 0.12072,0.05317 0.51578,0.220585 0.87792,0.372026 1.16371,0.486645 2.83186,1.371718 4.17009,2.212536 4.2586,2.6757 7.9591,6.355798 10.45662,10.398962 0.88779,1.437225 1.28743,2.215595 2.37731,4.630209 0.57827,1.281125 1.34721,3.793686 1.80261,5.890088 0.91525,4.213293 0.8348,10.413094 -0.18524,14.275227 -0.038,0.143881 -0.14022,0.557898 -0.22714,0.920038 -0.49811,2.075055 -1.25343,4.092614 -2.37518,6.344381 -1.69215,3.396744 -3.58965,6.042258 -6.2094,8.657201 -5.51663,5.506533 -11.9821,8.59557 -19.80996,9.464703 -0.97841,0.108635 -5.3583,0.08234 -6.497183,-0.03901 z m 3.930343,-0.461072 c 1.53948,-0.491805 3.33462,-1.953859 2.70888,-2.20626 -0.90886,-0.366605 -2.22934,-1.439416 -2.89794,-2.354396 -0.3692,-0.505241 -0.35376,-0.503583 -0.6479,-0.06963 -0.53945,0.795885 -1.69019,1.775678 -2.69673,2.296123 -0.575873,0.297761 -0.575923,0.300931 -0.0125,0.839334 1.26645,1.210347 2.63326,1.786489 3.54625,1.494827 z m -3.755123,-0.08 c -0.0405,-0.04044 -0.46019,-0.220225 -0.9328,-0.39953 -0.47262,-0.179306 -1.103095,-0.458258 -1.401082,-0.619894 l -0.541803,-0.293885 -0.53362,0.0693 c -0.293494,0.03812 -0.97807,0.073 -1.52128,0.07752 -0.904354,0.0076 -0.968299,0.01671 -0.758178,0.108824 0.961382,0.421449 5.986916,1.355799 5.688763,1.057659 z m 8.487223,-0.186835 c 1.13443,-0.190013 3.25228,-0.694448 3.65327,-0.870144 0.21187,-0.09283 0.14572,-0.10196 -0.79308,-0.109505 -0.56334,-0.0046 -1.26467,-0.03945 -1.5585,-0.0776 -0.49706,-0.06455 -0.55312,-0.05754 -0.80476,0.100563 -0.33677,0.211592 -1.46251,0.716825 -1.96056,0.879896 -1.15677,0.378752 -0.53418,0.411418 1.46363,0.07679 z m -8.646073,-0.913656 -0.66671,-0.661648 -0.51617,0.15678 c -0.759024,0.230548 -0.717775,0.272127 0.87203,0.878959 1.128513,0.430752 1.125503,0.434376 0.31085,-0.374091 z m 6.756363,0.489132 c 1.62911,-0.555517 1.88831,-0.772081 1.18337,-0.988686 l -0.53041,-0.162976 -0.68111,0.662211 c -0.7371,0.716637 -0.73519,0.749747 0.0281,0.489451 z m 5.90888,-1.139867 c 0.0339,-0.03388 -0.0649,-0.102354 -0.21947,-0.152151 -0.15459,-0.04981 -0.53467,-0.205373 -0.84462,-0.345719 l -0.56354,-0.255176 -0.40582,0.346709 c -0.47173,0.403018 -0.48884,0.453943 -0.16806,0.500468 0.35906,0.05208 2.13108,-0.02369 2.20151,-0.09413 z M 41.397744,71.58625 c -0.002,-0.0503 -0.180595,-0.233127 -0.397089,-0.406289 l -0.393629,-0.31484 -0.352795,0.177427 c -0.194037,0.09758 -0.557917,0.251671 -0.808621,0.342414 -0.250705,0.09075 -0.438063,0.193731 -0.416349,0.228862 0.06644,0.1075 2.372579,0.08065 2.368483,-0.02757 z M 43.1923,71.385398 c 0.767428,-0.196275 0.807378,-0.235873 0.588188,-0.583091 -0.31434,-0.497924 -0.696615,-1.640422 -0.696615,-2.081904 0,-0.326092 -0.119549,-0.263104 -0.467694,0.246429 -0.189022,0.276648 -0.60991,0.757348 -0.935297,1.068222 l -0.591614,0.565224 0.247417,0.232838 c 0.77051,0.725108 0.959708,0.781416 1.855615,0.552282 z m 11.434621,-0.05521 c 0.98072,-0.716923 0.96312,-0.605588 0.21417,-1.354538 -0.33372,-0.333709 -0.73137,-0.811887 -0.88367,-1.062617 -0.31542,-0.519229 -0.3736,-0.523904 -0.43968,-0.03533 -0.0714,0.527453 -0.31548,1.246695 -0.59743,1.759988 -0.32939,0.599675 -0.34547,0.578246 0.58879,0.784939 0.64929,0.143647 0.81343,0.130073 1.11782,-0.09244 z M 38.484707,71.127096 c 0.517071,-0.102747 1.429952,-0.43529 1.580705,-0.575825 0.07118,-0.06636 0.0226,-0.163302 -0.224805,-0.448479 -0.85049,-0.980361 -1.535872,-2.351742 -1.705498,-3.412532 -0.05804,-0.362973 -0.12378,-0.397787 -0.391358,-0.207254 -0.828845,0.590189 -2.728316,1.170512 -3.832248,1.170823 l -0.356653,1e-4 0.04748,0.237768 c 0.17211,0.861931 1.318641,2.504047 2.151149,3.080976 0.469679,0.325487 1.560049,0.387137 2.73123,0.154423 z m 22.249134,-0.09667 c 0.5945,-0.367423 1.58091,-1.619312 1.98943,-2.524885 0.34638,-0.767798 0.32597,-0.84833 -0.21555,-0.850589 -0.45431,-0.002 -1.40547,-0.188775 -2.0289,-0.398634 -0.56067,-0.188731 -0.86663,-0.333708 -1.53732,-0.728452 -0.26096,-0.153591 -0.35525,-0.179954 -0.3796,-0.10613 -0.0178,0.05402 -0.10149,0.358142 -0.18589,0.67582 -0.25798,0.970763 -0.89096,2.168401 -1.51206,2.8609 -0.10826,0.120712 -0.26258,0.293175 -0.34291,0.38325 l -0.14607,0.163771 0.46922,0.212037 c 0.43081,0.194685 1.07688,0.396321 1.53002,0.477517 0.56786,0.101754 2.10179,-0.0053 2.35963,-0.164605 z M 45.046828,70.685011 c 0.984283,-0.531598 1.966533,-1.350139 2.487263,-2.072691 0.35472,-0.492203 0.37244,-0.482211 -1.03,-0.581228 -0.69411,-0.04901 -1.632843,-0.14358 -2.086073,-0.210166 -1.04051,-0.152867 -1.187086,0.299384 -0.60297,1.860573 0.48454,1.295024 0.56727,1.36242 1.23178,1.003512 z m 7.255483,0.04115 c 0.34647,-0.486572 0.75268,-1.728806 0.83118,-2.541822 l 0.0442,-0.457247 -0.20007,0.0012 c -0.11004,7.12e-4 -0.48564,0.0481 -0.83468,0.105319 -0.34904,0.05722 -1.24616,0.144287 -1.9936,0.193476 -0.74744,0.04918 -1.35897,0.113399 -1.35897,0.14269 0,0.428193 1.69599,1.975978 2.75932,2.518208 0.60431,0.308154 0.5619,0.306007 0.75267,0.0381 z m -11.143454,-0.89573 c 0.616026,-0.530661 1.045963,-1.063729 1.477239,-1.831577 0.242242,-0.43129 0.228865,-0.444275 -0.682198,-0.662237 -0.903365,-0.21612 -2.701777,-0.78801 -3.059089,-0.972783 -0.249206,-0.128869 -0.353893,-0.05097 -0.29443,0.219099 0.24192,1.098763 0.965958,2.508905 1.680333,3.27263 0.408759,0.436997 0.339372,0.438982 0.878145,-0.02513 z m 15.241774,-0.107265 c 0.93121,-1.018888 2.08154,-3.677641 1.47976,-3.42013 -0.51506,0.220395 -2.27195,0.788257 -3.07265,0.993137 -1.12967,0.289055 -1.1024,0.243387 -0.62851,1.052933 0.88328,1.508914 1.65939,1.988983 2.2214,1.37406 z M 32.320159,68.84277 c -0.463552,-0.472792 -0.950784,-1.012947 -1.082737,-1.200342 -0.197389,-0.280321 -0.300181,-0.355459 -0.579898,-0.423887 -0.503617,-0.123201 -1.280384,-0.425345 -2.015981,-0.784172 -1.050025,-0.512205 -0.955334,-0.373433 0.489799,0.717804 1.40496,1.060904 3.691025,2.545002 3.925789,2.5486 0.05822,8.76e-4 -0.273421,-0.38521 -0.736972,-0.858003 z m 31.792822,0.554514 c 0.82063,-0.484891 2.3868,-1.542972 3.44126,-2.324874 1.3871,-1.028556 1.4191,-1.124522 0.18439,-0.552891 -0.46274,0.214229 -1.07179,0.460901 -1.35345,0.548158 -0.81286,0.251812 -0.86229,0.28161 -1.16451,0.701838 -0.15764,0.219179 -0.63479,0.743741 -1.06033,1.165694 -0.83812,0.831055 -0.84884,0.935648 -0.0474,0.462075 z M 33.547726,69.020572 c -0.09962,-0.178434 -0.262427,-0.550459 -0.361795,-0.826721 l -0.18067,-0.502295 -0.566988,-0.09457 c -0.814951,-0.135934 -0.756696,-0.0076 0.590409,1.300658 0.662525,0.64342 0.832044,0.68357 0.519044,0.122932 z m 30.374675,-0.525879 c 1.02905,-1.070436 1.02512,-1.044207 0.1334,-0.887702 l -0.50038,0.08782 -0.16569,0.473384 c -0.0911,0.260361 -0.25278,0.64513 -0.35923,0.85504 -0.34809,0.686353 -0.18063,0.587118 0.8919,-0.528544 z m -12.79098,-1.024811 c 11.31379,-1.254106 20.67294,-9.944424 22.88728,-21.251685 0.56771,-2.89894 0.63583,-7.090684 0.15474,-9.520522 -0.0427,-0.215924 -0.10574,-0.540737 -0.13996,-0.721807 -0.50283,-2.660222 -1.20431,-4.66996 -2.5025,-7.169631 -1.96598,-3.78548 -5.20374,-7.330122 -8.94195,-9.789481 -0.31741,-0.208828 -0.60548,-0.379688 -0.64014,-0.379688 -0.0347,0 -0.063,-0.03292 -0.063,-0.07316 0,-0.04024 -0.0323,-0.07316 -0.0717,-0.07316 -0.0395,0 -0.24522,-0.109721 -0.45725,-0.243824 -1.12217,-0.709752 -3.78383,-1.874569 -5.43351,-2.377858 -13.082804,-3.991348 -27.118119,2.864675 -32.137152,15.698475 -0.757408,1.936713 -1.326109,4.30303 -1.586937,6.60311 -1.160337,10.232269 4.3369,21.111679 13.12969,25.984563 1.044258,0.578718 1.802437,0.959884 2.450843,1.232136 0.402377,0.168948 0.863283,0.364373 1.024233,0.434279 0.160951,0.06991 0.506629,0.201229 0.768176,0.291831 0.261544,0.0906 0.541379,0.193141 0.621855,0.227866 0.870373,0.375555 3.655889,0.963475 5.486962,1.158096 1.02222,0.10865 4.36727,0.09052 5.45038,-0.02954 z M 32.856392,66.190739 c -0.01146,-0.581999 0.01965,-1.087391 0.08555,-1.390031 0.117249,-0.538398 0.104334,-0.584928 -0.122014,-0.43962 -0.587556,0.377188 -1.320347,0.752593 -1.730466,0.886507 -0.65006,0.212261 -0.649588,0.211329 -0.374559,0.739688 0.409869,0.7874 0.526084,0.902403 1.006305,0.995812 0.233926,0.0455 0.491165,0.09675 0.57164,0.113874 0.08047,0.01713 0.244247,0.02599 0.363936,0.0197 l 0.217616,-0.01143 z m 2.728633,0.698207 c 2.012528,-0.585868 2.262086,-0.906244 1.131728,-1.45288 -0.869233,-0.420356 -1.509021,-0.778981 -2.450742,-1.373731 -0.27399,-0.173042 -0.509954,-0.277271 -0.544858,-0.240673 -0.24344,0.255238 -0.47172,2.339255 -0.335674,3.06444 l 0.05181,0.276189 0.744648,-0.04084 c 0.480096,-0.02633 0.978574,-0.108931 1.403084,-0.232512 z m 27.578496,0.183975 c 0.25456,-0.411888 0.006,-2.896374 -0.32505,-3.247521 -0.0316,-0.03345 -0.33283,0.112123 -0.66957,0.323492 -0.84362,0.529537 -1.35085,0.809416 -2.3315,1.286467 -1.01295,0.492767 -0.95232,0.441892 -0.7305,0.612959 0.89114,0.68725 3.80955,1.424371 4.05662,1.024603 z m 1.67438,-0.092 c 0.50038,-0.09414 0.61073,-0.194327 0.9623,-0.873682 0.33039,-0.638437 0.32589,-0.686229 -0.0742,-0.786959 -0.47457,-0.119499 -1.10032,-0.408619 -1.6293,-0.752793 -0.56337,-0.366562 -0.53669,-0.400657 -0.41157,0.525855 0.0663,0.4915 0.0867,1.00228 0.0565,1.418158 l -0.0473,0.649983 0.35772,-0.05002 c 0.19674,-0.02751 0.55033,-0.08625 0.78575,-0.130544 z M 30.427282,66.562722 c 0,-0.03683 -0.11052,-0.275519 -0.2456,-0.530406 l -0.2456,-0.463434 -0.961532,-0.01649 c -1.111519,-0.01906 -1.105872,-0.02222 -0.504285,0.282814 1.072882,0.544016 1.957017,0.87269 1.957017,0.727514 z m 36.395509,-0.151975 c 0.5801,-0.230439 1.7206,-0.785478 1.7206,-0.837354 0,-0.01674 -0.42976,-0.02449 -0.95502,-0.01723 l -0.955,0.01321 -0.25212,0.471891 c -0.3709,0.694188 -0.3725,0.69285 0.44154,0.369474 z M 29.61063,64.919121 c 0.01449,-0.0757 -0.0078,-0.207391 -0.04952,-0.292637 -0.359822,-0.735248 -0.56525,-2.621858 -0.413893,-3.801096 l 0.05481,-0.427084 -0.429898,0.06129 c -1.118344,0.159433 -2.642514,0.01234 -3.540731,-0.341703 -0.658452,-0.259537 -0.671164,-0.241381 -0.57846,0.826248 0.122784,1.414034 0.550109,2.727622 1.034263,3.17929 0.711388,0.663657 3.827784,1.295682 3.923423,0.795695 z m 39.011301,0.05699 c 0.70204,-0.119352 1.55216,-0.408738 2.07965,-0.707916 0.59779,-0.33905 1.18173,-1.933327 1.25864,-3.436383 0.0496,-0.968381 0.0403,-0.982187 -0.50915,-0.752646 -0.94038,0.392917 -2.49336,0.553614 -3.65733,0.378449 l -0.42042,-0.06327 0.0546,0.355907 c 0.17039,1.110224 0.0454,2.50442 -0.3229,3.60111 -0.27419,0.816484 -0.0804,0.8963 1.51689,0.624747 z M 31.291916,64.639316 c 0.564536,-0.234318 1.178441,-0.615078 1.649418,-1.023013 l 0.282687,-0.244849 -0.645488,-0.474215 c -0.703504,-0.516836 -1.562321,-1.235946 -2.280655,-1.909653 -0.482904,-0.452903 -0.60075,-0.511802 -0.604451,-0.3021 -0.0012,0.07042 -0.03484,0.374943 -0.07467,0.676726 -0.10134,0.767867 0.07735,2.214359 0.370516,2.99954 0.03756,0.100595 0.102633,0.276996 0.14461,0.392004 0.09356,0.25636 0.318141,0.234165 1.158033,-0.11444 z m 35.200645,-0.01601 c 0.48335,-1.127614 0.69914,-3.686087 0.3411,-4.044131 -0.0198,-0.01979 -0.46275,0.340233 -0.98436,0.800051 -0.5216,0.459819 -1.28062,1.080311 -1.68669,1.378872 -0.77548,0.570164 -0.81905,0.627172 -0.61213,0.800927 0.69912,0.587038 1.33155,0.959952 2.05054,1.209096 0.68913,0.238796 0.72994,0.232166 0.89154,-0.144815 z M 23.273948,61.021019 c -0.375611,-0.757368 -0.635087,-1.40659 -0.821239,-2.05478 -0.08378,-0.291723 -0.17745,-0.530406 -0.208154,-0.530406 -0.140506,0 -1.087153,-0.869882 -1.670649,-1.535174 -0.354403,-0.404084 -0.655459,-0.701428 -0.669014,-0.660764 -0.0743,0.222927 2.653644,4.429404 3.455184,5.327856 0.249546,0.279719 0.215006,0.06046 -0.08613,-0.546732 z m 50.178093,0.282668 c 0.10444,-0.148881 0.48577,-0.682215 0.84741,-1.185186 0.94427,-1.313317 2.43401,-3.7593 2.34427,-3.849045 -0.0169,-0.01686 -0.36857,0.33272 -0.78158,0.776849 -0.413,0.44413 -0.94051,0.956465 -1.17223,1.138521 -0.41366,0.324987 -0.42619,0.345808 -0.68809,1.143842 -0.14672,0.447056 -0.41432,1.118211 -0.59466,1.491454 -0.42906,0.887997 -0.40683,1.127531 0.0449,0.483565 z m -49.310099,-0.744527 -0.04296,-0.912791 -0.4892,-0.256291 c -0.621941,-0.325832 -0.626389,-0.317241 -0.285346,0.55107 0.75628,1.925531 0.883563,2.021753 0.817503,0.618012 z m 48.608889,0.601863 c 0.30806,-0.666646 0.7674,-1.839718 0.7674,-1.959851 0,-0.08155 -0.13087,-0.039 -0.51088,0.16608 l -0.51087,0.275713 -0.002,0.475536 c -10e-4,0.261545 -0.0228,0.697759 -0.0484,0.969363 -0.0586,0.620373 0.0407,0.644208 0.30452,0.07316 z M 28.872643,59.927958 c 0.239668,-0.06698 0.204352,-0.165259 -0.221582,-0.616644 -0.210091,-0.222645 -0.530133,-0.580855 -0.711203,-0.796023 -0.181069,-0.215167 -0.362758,-0.428064 -0.403754,-0.473105 -0.041,-0.04505 -0.349808,-0.45226 -0.686252,-0.904935 -0.336444,-0.452674 -0.648582,-0.822868 -0.693639,-0.822652 -0.347067,0.0017 -1.435372,2.239773 -1.435372,2.95186 0,0.480847 3.055948,0.967746 4.151802,0.661499 z m 41.592608,-0.06738 c 1.35418,-0.341266 1.48324,-0.425569 1.36066,-0.888879 -0.4379,-1.655148 -1.29001,-2.948132 -1.63231,-2.476857 -0.54263,0.747092 -1.45815,1.943916 -1.64733,2.153506 -0.12365,0.137001 -0.40795,0.445506 -0.63177,0.685567 -0.26455,0.28376 -0.38195,0.461453 -0.33554,0.507863 0.21699,0.21699 2.05242,0.228944 2.88629,0.0188 z M 24.286797,58.783341 c 0.217862,-0.809193 0.36692,-1.180254 0.683751,-1.702117 0.396163,-0.652533 0.396297,-0.651553 -0.07539,-0.544896 -0.196469,0.04442 -0.808903,0.07199 -1.360964,0.06126 -1.200171,-0.02333 -1.107258,-0.09536 -0.963405,0.746849 0.151147,0.884907 0.149904,0.88295 0.856507,1.349322 0.724808,0.478388 0.754003,0.48143 0.859501,0.08959 z m 48.936574,-0.131056 c 0.3194,-0.204886 0.59583,-0.42794 0.6143,-0.495676 0.10894,-0.399557 0.19645,-0.900672 0.21172,-1.212253 l 0.0175,-0.357502 -0.98766,0.01394 c -0.54321,0.0077 -1.16276,-0.02397 -1.37678,-0.07031 -0.3683,-0.07974 -0.56931,-0.04957 -0.4135,0.06204 0.18073,0.129471 0.67446,1.108874 0.8774,1.740481 0.10222,0.318094 0.20155,0.622923 0.22076,0.677394 0.0454,0.128907 0.14033,0.08827 0.83623,-0.358123 z m -51.16829,-1.368714 c -0.08054,-0.693181 -0.126758,-0.896204 -0.204015,-0.896204 -0.04039,0 -0.418822,-0.166598 -0.840966,-0.370216 -1.047152,-0.505089 -0.967543,-0.30414 0.443741,1.1201 0.671993,0.678163 0.662775,0.675919 0.60124,0.14632 z m 53.28274,-0.402377 c 1.19621,-1.227434 1.28211,-1.393431 0.51155,-0.988465 -0.25607,0.134574 -0.63368,0.313586 -0.83912,0.397803 -0.36899,0.151254 -0.37416,0.15781 -0.42455,0.537613 -0.028,0.211471 -0.0698,0.478641 -0.0928,0.593712 -0.0685,0.342357 0.072,0.25247 0.84496,-0.540663 z M 24.513763,56.094411 c 0.495118,-0.07162 1.145076,-0.259862 1.255104,-0.36351 0.0332,-0.03128 -0.149359,-0.399434 -0.405698,-0.818123 -0.435957,-0.712065 -0.969842,-1.748898 -1.457078,-2.829723 -0.246954,-0.547811 -0.300857,-0.545234 -0.617184,0.02952 -0.49353,0.89672 -0.835976,2.248872 -0.835998,3.300948 l -1.2e-5,0.599084 0.347508,0.04682 c 0.191129,0.02575 0.380429,0.05809 0.420666,0.07186 0.148369,0.0508 0.818756,0.03168 1.292692,-0.03687 z m 49.184438,-0.01165 0.42385,-0.08512 -0.0381,-0.92082 c -0.067,-1.622519 -1.05122,-4.158763 -1.27772,-3.292653 -0.0633,0.24216 -1.15682,2.435982 -1.42673,2.862386 -0.13486,0.213049 -0.33525,0.542918 -0.44531,0.733045 l -0.20012,0.345683 0.27569,0.115193 c 0.66994,0.279917 1.93383,0.393824 2.68838,0.242289 z M 21.941074,55.381424 c 8.77e-4,-1.256671 0.493846,-2.977354 1.111084,-3.878203 0.153299,-0.223737 0.186614,-0.320702 0.118075,-0.343663 -0.05252,-0.01759 -0.358854,-0.120349 -0.680756,-0.228349 -1.088795,-0.365296 -2.449787,-1.179355 -3.030582,-1.812701 -0.480401,-0.523869 -1.0136,0.844971 -1.082533,2.7791 l -0.03945,1.106942 0.220788,0.320905 c 0.593377,0.862444 1.526356,1.663181 2.562722,2.199477 0.755035,0.390713 0.820289,0.379301 0.820654,-0.143508 z m 53.424017,0.197911 c 1.03349,-0.525182 2.03569,-1.36094 2.58042,-2.151865 l 0.27169,-0.394468 -0.003,-0.93827 c -0.008,-2.160734 -0.5844,-3.496348 -1.2372,-2.867357 -0.80874,0.779248 -1.95842,1.448525 -3.001,1.747005 -0.69462,0.19886 -0.67924,0.169925 -0.35855,0.674489 0.5316,0.836402 0.99679,2.468186 0.99802,3.500883 0.001,0.76273 0.0449,0.78794 0.75015,0.429583 z M 23.257651,50.54273 c 0,-0.03577 -0.145992,-0.488445 -0.324429,-1.005943 -0.178436,-0.517499 -0.443739,-1.434733 -0.589563,-2.038299 -0.145822,-0.603565 -0.290277,-1.12282 -0.321009,-1.153897 -0.227775,-0.230337 -2.140377,1.220756 -2.503635,1.899509 -0.114,0.213011 0.321192,0.67989 1.178054,1.263828 0.937333,0.638779 2.560582,1.294779 2.560582,1.034802 z m 50.83295,-0.122813 c 1.1061,-0.369983 3.01244,-1.679386 3.01244,-2.06915 0,-0.418224 -2.15903,-2.173006 -2.50857,-2.038875 -0.0501,0.01922 -0.13572,0.244683 -0.19031,0.501031 -0.17196,0.80766 -0.43157,1.752158 -0.73697,2.681311 -0.41651,1.267166 -0.44053,1.214664 0.42341,0.925683 z m 4.53115,-1.914043 c -0.0314,-0.910211 -0.0731,-1.019825 -0.28685,-0.751327 -0.0801,0.100594 -0.2007,0.249777 -0.26806,0.33152 -0.32307,0.392065 -0.3175,0.359931 -0.12276,0.708362 0.10098,0.180733 0.24784,0.515142 0.32628,0.743131 0.0784,0.227988 0.1681,0.455058 0.19924,0.504598 0.099,0.157463 0.18167,-0.677404 0.15215,-1.536284 z m -60.409517,1.242268 c 0.0479,-0.150891 0.199471,-0.49831 0.33682,-0.772042 0.272194,-0.542484 0.275489,-0.518319 -0.139172,-1.020365 -0.410318,-0.49679 -0.419714,-0.477545 -0.419714,0.859624 0,1.214563 0.05683,1.453276 0.222066,0.932783 z m -0.62844,-2.711451 c 0.04551,-0.203486 -0.0036,-0.361759 -0.307045,-0.987653 -0.198685,-0.409934 -0.469162,-1.049861 -0.60106,-1.42206 -0.131896,-0.372199 -0.271066,-0.676725 -0.309265,-0.676725 -0.171242,0 0.418042,3.819466 0.790115,5.121164 0.287754,1.006711 0.281276,1.015359 0.328814,-0.438957 0.02433,-0.744398 0.06864,-1.462494 0.09844,-1.595769 z m 61.859557,1.869441 c 0.28203,-1.18536 0.53748,-2.525866 0.69047,-3.623234 0.20267,-1.453857 0.13591,-1.600138 -0.24638,-0.539917 -0.12883,0.357263 -0.39178,0.963709 -0.58434,1.347657 -0.32762,0.653226 -0.34636,0.720896 -0.2918,1.05297 0.0321,0.195183 0.0603,0.908263 0.0627,1.584619 0.005,1.460908 0.058,1.486373 0.36936,0.177905 z M 19.258466,47.799161 c 0.257257,-0.392623 0.955052,-1.070272 1.401832,-1.361362 0.514635,-0.335298 0.582077,-0.439081 0.28533,-0.439081 -0.276384,0 -1.43459,-0.402464 -1.894332,-0.65826 -0.516862,-0.287577 -0.515202,-0.288083 -0.659519,0.201014 -0.06827,0.231367 -0.153638,0.516114 -0.189708,0.632772 -0.140021,0.452856 -0.02573,0.750988 0.57077,1.488853 0.291418,0.360483 0.331267,0.371648 0.485627,0.136064 z m 58.996825,-0.771414 c 0.20075,-0.379581 0.20289,-0.53899 0.0172,-1.276061 -0.0799,-0.316938 -0.14519,-0.588543 -0.14519,-0.603566 0,-0.07979 -0.239,-0.0027 -0.60346,0.194731 -0.48002,0.259986 -1.30437,0.558491 -1.73055,0.626639 -0.39752,0.06357 -0.37378,0.161082 0.114,0.468185 0.22369,0.140832 0.67478,0.542219 1.00243,0.89197 l 0.59572,0.635913 0.29264,-0.313275 c 0.16094,-0.1723 0.36671,-0.453342 0.45724,-0.624536 z M 17.912264,45.413442 c 0.180441,-0.67024 0.184517,-0.637501 -0.115865,-0.930706 -0.155755,-0.152034 -0.421211,-0.439868 -0.589903,-0.639631 -0.512003,-0.606312 -0.383405,0.10715 0.27616,1.532145 0.247212,0.534102 0.294957,0.538347 0.429608,0.0382 z m 61.145907,0.05486 c 0.26175,-0.500924 0.6887,-1.668094 0.66439,-1.816332 -0.017,-0.103509 -0.16902,0.02168 -0.63059,0.519207 l -0.60823,0.655605 0.16086,0.476224 c 0.19013,0.56288 0.20311,0.568069 0.41357,0.165296 z m -57.169718,-0.05486 c -0.0087,-0.100594 -0.08271,-0.841334 -0.164553,-1.646089 -0.08185,-0.804754 -0.148831,-1.683468 -0.148862,-1.952699 -7e-5,-0.619579 -0.06368,-0.652894 -0.542014,-0.283863 -1.06175,0.819134 -2.419108,2.699825 -2.200055,3.048292 0.366682,0.583313 3.098088,1.329176 3.055484,0.834359 z m 53.521718,0.142866 c 0.81863,-0.132833 2.30678,-0.746457 2.4001,-0.989657 0.13483,-0.351337 -1.27864,-2.298293 -2.15626,-2.970112 -0.66329,-0.507744 -0.64278,-0.530096 -0.69953,0.762495 -0.0466,1.060921 -0.11688,1.920691 -0.23333,2.85322 -0.0605,0.484397 -0.0888,0.470263 0.68902,0.344054 z M 18.495794,43.911305 c 0.415985,-0.940402 1.33947,-2.094191 2.203722,-2.753295 0.603935,-0.46058 0.591869,-0.405066 0.15275,-0.702788 -0.790414,-0.535902 -1.680577,-1.609815 -2.181718,-2.632077 -0.348992,-0.7119 -0.757796,-0.510626 -1.597368,0.786465 -1.257829,1.943273 -1.060511,3.337679 0.732317,5.17513 0.533439,0.546718 0.506619,0.5418 0.690297,0.126565 z m 60.336337,-0.198821 c 1.92617,-2.022743 1.96025,-3.845405 0.10934,-5.846896 -0.68893,-0.744961 -0.68113,-0.744034 -0.99974,-0.118838 -0.33172,0.650898 -0.74618,1.279936 -1.17081,1.776966 -0.27853,0.326036 -0.53997,0.556086 -1.29127,1.136301 -0.13913,0.107456 -0.12923,0.122267 0.26201,0.391724 0.84017,0.578649 1.82888,1.761462 2.32364,2.779833 0.21059,0.433468 0.24587,0.427989 0.76683,-0.11909 z m -57.183308,-4.69855 c 0.04643,-0.642732 0.144613,-1.58072 0.218174,-2.084416 0.159181,-1.089956 0.172494,-1.057186 -0.407493,-1.003026 -2.815265,0.262894 -3.155599,1.390159 -1.054987,3.494353 1.076702,1.078539 1.138447,1.058347 1.244306,-0.406911 z m 54.203228,0.706201 c 0.77634,-0.681984 1.99994,-2.524933 1.88144,-2.833749 -0.1094,-0.285093 -1.73681,-0.875871 -2.64686,-0.960852 l -0.47102,-0.04398 0.001,0.211769 c 5.5e-4,0.116472 0.0467,0.509845 0.10222,0.874163 0.0554,0.364317 0.14048,1.220284 0.18889,1.902146 0.0484,0.681863 0.10067,1.282231 0.11613,1.334148 0.0406,0.136092 0.28505,-0.0067 0.82792,-0.48364 z m 3.67373,-2.451058 c -0.56019,-1.647022 -0.73874,-1.860324 -0.95969,-1.146457 l -0.15863,0.512549 0.64562,0.652659 c 0.76497,0.773309 0.7424,0.774204 0.4727,-0.01875 z m -61.961287,0.0054 c 0.435626,-0.451723 0.572574,-0.640376 0.544358,-0.749885 -0.02073,-0.08047 -0.07793,-0.302698 -0.127097,-0.493827 -0.135537,-0.526861 -0.311568,-0.318707 -0.81976,0.969362 -0.414977,1.0518 -0.374113,1.079654 0.402499,0.27435 z m -0.899235,-0.276369 c 0.09728,-0.32472 0.477871,-1.185593 0.816064,-1.845931 l 0.215791,-0.421339 -0.0684,-0.964554 c -0.03761,-0.530504 -0.05374,-1.24625 -0.03582,-1.590546 l 0.03257,-0.625992 -0.120396,0.256057 c -0.324763,0.690701 -1.12441,4.546869 -1.12441,5.422279 0,0.308773 0.162538,0.177433 0.284601,-0.229974 z m 63.438642,-0.543034 c -0.23358,-1.630006 -0.9248,-4.656462 -1.10125,-4.821717 -0.07,-0.06558 -0.0807,0.07406 -0.0497,0.64799 0.0218,0.402378 0.0135,1.108048 -0.0184,1.568156 l -0.0581,0.836559 0.30955,0.590051 c 0.17025,0.324528 0.41697,0.869885 0.54829,1.211906 0.1313,0.34202 0.27423,0.704159 0.31763,0.804754 l 0.0789,0.182899 0.0288,-0.215843 c 0.0158,-0.118715 -0.009,-0.480854 -0.0557,-0.804755 z m -60.8884,-0.363741 c 0.591704,-0.299899 1.326854,-0.553994 1.607289,-0.555539 0.429554,-0.0024 0.43225,-0.117683 0.0091,-0.388383 -0.405733,-0.259545 -1.056591,-0.851874 -1.384279,-1.259797 -0.30502,-0.379706 -0.325926,-0.37282 -0.796998,0.262516 -0.498641,0.672517 -0.49311,0.645628 -0.294141,1.429952 0.231137,0.91113 0.157065,0.867047 0.859051,0.511251 z m 58.8564,-0.0057 c 0.14905,-0.504117 0.26981,-1.035468 0.27225,-1.197842 0.003,-0.177171 -0.50789,-0.952649 -0.8004,-1.215737 l -0.16192,-0.145638 -0.18304,0.218794 c -0.45458,0.54336 -1.11573,1.175024 -1.46749,1.40203 -0.47954,0.309468 -0.50459,0.270423 0.29264,0.456149 0.3723,0.08673 0.92355,0.28404 1.22542,0.438614 0.64579,0.330676 0.73625,0.335474 0.82254,0.04362 z M 22.18445,35.116278 c 0.01873,-0.07042 0.123027,-0.473707 0.231775,-0.896202 0.108748,-0.422497 0.362191,-1.245542 0.563206,-1.828988 0.492921,-1.430702 0.468802,-1.316871 0.279024,-1.316871 -0.94117,0 -3.658778,1.570681 -3.658778,2.114643 0,0.577243 2.456656,2.409127 2.584773,1.927418 z m 52.736171,-0.05421 c 0.68224,-0.342669 1.48028,-1.044956 1.97603,-1.73894 l 0.14425,-0.201934 -0.24953,-0.237023 c -0.9799,-0.930737 -2.25814,-1.634453 -3.336,-1.836564 -0.31801,-0.05963 -0.30368,0.06497 0.15879,1.380063 0.28464,0.80941 0.56828,1.809872 0.74151,2.615452 0.0531,0.247013 0.10727,0.24883 0.56495,0.01895 z M 18.558118,33.530526 c 0.305705,-0.391423 0.374538,-0.578812 0.242573,-0.660371 -0.03707,-0.02291 -0.173256,-0.337607 -0.302649,-0.699333 -0.340736,-0.952551 -0.432724,-0.765057 -0.434079,0.884762 -8.75e-4,1.033314 0.0328,1.065656 0.494155,0.474942 z m 59.929813,-0.718807 c -0.003,-0.613625 -0.0322,-1.181525 -0.0653,-1.262001 l -0.0601,-0.146319 -0.049,0.146319 c -0.14981,0.447149 -0.36825,0.98088 -0.48825,1.193024 -0.18588,0.328593 -0.18326,0.33884 0.20124,0.788904 0.46419,0.543333 0.46731,0.538461 0.46151,-0.719927 z M 19.650475,32.351278 c 0.871784,-0.811769 2.111668,-1.480704 3.186509,-1.719167 0.499064,-0.110723 0.492828,-0.08134 0.14137,-0.666134 -0.556858,-0.926559 -0.959085,-2.399536 -0.963137,-3.527064 -0.0012,-0.350406 -0.0041,-0.354759 -0.202466,-0.307461 -0.942895,0.224851 -2.705888,1.553506 -3.188148,2.402707 -0.294665,0.518864 -0.05,2.653993 0.422337,3.685724 0.211565,0.462117 0.241389,0.468611 0.603535,0.131395 z m 57.868456,-0.110293 c 0.49549,-1.008917 0.73079,-3.283877 0.39573,-3.826004 -0.71427,-1.155735 -3.30573,-2.719259 -3.35301,-2.023006 -0.10803,1.590608 -0.45545,2.774233 -1.10034,3.748733 -0.2167,0.327462 -0.19228,0.361684 0.34956,0.489779 0.95416,0.22558 2.21112,0.912904 3.07269,1.68019 0.39474,0.351543 0.43043,0.347628 0.63537,-0.06969 z M 24.283552,29.229518 c 0.260627,-0.531713 0.728653,-1.391403 1.040057,-1.910425 0.311403,-0.519021 0.548695,-0.971978 0.527315,-1.006571 -0.163344,-0.264295 -1.996582,-0.514935 -2.9213,-0.399398 l -0.424793,0.05307 0.04371,0.779875 c 0.06235,1.112597 0.43656,2.355191 0.936638,3.110171 0.296485,0.447611 0.256316,0.479144 0.798378,-0.626726 z m 48.797139,0.562292 c 0.52967,-0.769835 0.86714,-1.877039 0.92874,-3.047115 l 0.0411,-0.781253 -0.27656,-0.05189 c -0.38017,-0.07132 -2.06361,0.0099 -2.37741,0.114792 -0.80692,0.269574 -0.798,0.224716 -0.22414,1.126476 0.23887,0.375344 0.69105,1.197207 1.00485,1.826362 0.64683,1.296831 0.59953,1.254283 0.90339,0.812621 z M 20.614309,26.12709 c 0.0931,-0.06521 0.421415,-0.22224 0.729584,-0.348954 0.745125,-0.306383 0.715991,-0.27916 0.769703,-0.719265 0.02592,-0.212379 0.06732,-0.460219 0.09201,-0.550753 0.03121,-0.114489 0.01325,-0.164609 -0.05899,-0.164609 -0.123003,0 -1.815338,1.694328 -1.815338,1.817477 0,0.116121 0.08306,0.106173 0.283037,-0.03389 z m 55.608232,-0.03257 c -0.13098,-0.244743 -1.73854,-1.841891 -1.80966,-1.797938 -0.0767,0.04738 0.0783,1.124861 0.17446,1.213131 0.0357,0.03273 0.22947,0.11455 0.43065,0.181806 0.20119,0.06725 0.54687,0.217896 0.76819,0.334759 0.48434,0.255761 0.54151,0.264702 0.43636,0.06824 z m -49.79924,-0.453349 c 0.06738,-0.17559 1.58435,-2.067762 2.096093,-2.614533 0.722441,-0.771893 0.716237,-0.781246 -0.567616,-0.855713 -0.877162,-0.05088 -1.779353,0.06078 -2.528763,0.312982 -0.67755,0.228014 -0.676406,0.226227 -0.521073,0.81411 0.327016,1.237637 1.344331,2.804478 1.521359,2.343154 z m 44.28897,-0.364879 c 0.81411,-1.096126 1.27855,-2.688611 0.78412,-2.688611 -0.056,0 -0.15895,-0.03148 -0.22881,-0.06996 -0.7284,-0.401151 -3.75147,-0.502824 -3.74753,-0.126038 4.9e-4,0.04745 0.15846,0.250872 0.35103,0.45206 0.58141,0.607429 1.27678,1.431655 1.83982,2.180723 0.63129,0.839879 0.57511,0.825751 1.00137,0.25183 z m -50.21561,-0.03658 c 0.526072,-0.586393 1.121365,-1.154563 1.562451,-1.491264 0.351666,-0.268443 0.388713,-0.328989 0.610424,-0.997626 0.129821,-0.391511 0.414652,-1.070602 0.632958,-1.509092 0.492365,-0.988963 0.435073,-1.109441 -0.155897,-0.327837 -1.33944,1.771517 -1.772043,2.399132 -2.584942,3.7502 -0.688357,1.144074 -0.704682,1.288654 -0.06499,0.575619 z m 55.55123,-0.515405 c -0.69807,-1.176011 -1.39248,-2.204328 -2.19442,-3.249638 -1.06145,-1.383547 -1.13898,-1.404777 -0.5317,-0.145589 0.21385,0.443415 0.4819,1.097299 0.59568,1.453073 0.20199,0.631633 0.21796,0.655345 0.67818,1.007207 0.25922,0.198189 0.78952,0.698995 1.17844,1.112899 0.85181,0.906546 0.89926,0.875705 0.27382,-0.177952 z m -50.668614,0.822326 c 0,-0.02233 -0.12947,-0.255249 -0.287709,-0.517613 -0.29456,-0.488389 -0.736524,-1.604445 -0.736524,-1.859887 0,-0.212177 -0.19143,-0.176408 -0.768291,0.143557 -0.683606,0.379173 -0.753361,0.471273 -0.884813,1.168228 -0.179124,0.949712 -0.249278,0.887279 1.031248,0.917764 0.603566,0.01437 1.196158,0.05984 1.316871,0.101039 0.266235,0.09088 0.329218,0.09985 0.329218,0.04691 z m 47.425644,-0.158789 1.15226,-0.0394 v -0.212918 c 0,-1.032257 -0.24115,-1.453275 -1.09724,-1.915671 -0.516,-0.278702 -0.65859,-0.290744 -0.65859,-0.05562 0,0.321805 -0.38256,1.268978 -0.77566,1.920431 -0.30469,0.504943 -0.30481,0.510048 -0.0108,0.41745 0.13078,-0.04119 0.75629,-0.09261 1.39004,-0.114279 z m -49.036222,-2.738181 0.440026,-0.230656 6.57e-4,-0.555809 c 3.49e-4,-0.305695 0.02139,-0.728648 0.04677,-0.939896 0.08634,-0.71883 -0.375007,-0.02611 -0.882836,1.325582 -0.280451,0.746476 -0.274873,0.752129 0.395403,0.400779 z m 49.605922,0.02947 c -0.0716,-0.239333 -0.19941,-0.58354 -0.29191,-0.786464 -0.80019,-1.755445 -0.79753,-1.753707 -0.75212,-0.493827 0.0379,1.050738 0.007,0.977901 0.53705,1.263286 0.50653,0.27268 0.58431,0.275289 0.50698,0.01701 z m -47.978595,-0.70855 c 0.964678,-0.323047 2.550152,-0.416515 3.634066,-0.214237 0.235303,0.04391 0.246178,0.03692 0.199068,-0.128096 -0.214659,-0.75189 -0.08049,-2.686664 0.250543,-3.613042 0.08628,-0.241426 0.161931,-0.521261 0.168131,-0.621856 l 0.01128,-0.182899 -0.786582,0.01102 c -1.202594,0.01685 -2.61035,0.415552 -3.152458,0.892835 -0.414985,0.365359 -0.915584,2.026022 -0.97908,3.247945 -0.04676,0.900048 -0.09164,0.858374 0.655038,0.608329 z m 46.438095,-0.38885 c -0.003,-1.225052 -0.52925,-3.055241 -0.9966,-3.466736 -0.52736,-0.46433 -1.87853,-0.869905 -3.07042,-0.921638 -1.03743,-0.04503 -1.05001,-0.03666 -0.79874,0.531508 0.40074,0.906136 0.57316,2.622166 0.38935,3.875155 -0.0172,0.116911 0.0153,0.14249 0.16144,0.127265 1.51982,-0.158335 2.74705,-0.07916 3.65797,0.236019 0.69539,0.240597 0.65863,0.261943 0.657,-0.381573 z m -41.804722,-0.07531 c 0.708506,-0.65035 1.617988,-1.410842 2.330089,-1.948375 l 0.856365,-0.646434 -0.168864,-0.181775 c -0.512238,-0.551399 -2.111061,-1.404263 -2.640597,-1.408578 -0.378316,-0.0031 -0.839912,2.025859 -0.76374,3.357019 0.05526,0.965651 0.109772,1.082384 0.386747,0.828143 z m 36.811622,-0.071 c 0.0867,-0.310047 0.057,-1.977484 -0.0441,-2.469133 -0.13415,-0.653011 -0.46543,-1.584055 -0.57917,-1.627702 -0.24114,-0.09253 -1.63929,0.505622 -2.21572,0.947915 -0.78336,0.601068 -0.77993,0.590725 -0.30366,0.915401 0.60181,0.410256 1.87906,1.428788 2.4339,1.94088 0.60584,0.559176 0.63121,0.569649 0.70868,0.292639 z M 34.641834,18.011225 c 0.43828,-0.263739 1.300005,-0.73078 1.914944,-1.03787 l 1.118071,-0.558345 -0.203578,-0.169734 c -0.812196,-0.677175 -3.649259,-1.412877 -3.936035,-1.020687 -0.294874,0.403266 -0.140899,2.607756 0.223301,3.197044 0.05835,0.09442 -0.003,0.122901 0.883297,-0.410408 z m 28.290527,-0.0011 c 0.15661,-0.493611 0.24092,-1.921449 0.1444,-2.445689 l -0.0606,-0.329218 -0.64542,-0.02124 c -1.00102,-0.03295 -2.28005,0.357496 -3.31979,1.013409 -0.24878,0.156942 -0.24922,0.156602 1.02424,0.79059 0.65386,0.325525 1.50159,0.787734 1.88385,1.027133 0.82267,0.515215 0.79848,0.516085 0.97334,-0.03498 z m -29.94759,-0.570073 c -0.05069,-0.314178 -0.07491,-0.913372 -0.05644,-1.395951 l 0.03236,-0.8455 H 32.72465 c -0.53233,0 -1.379198,0.215505 -1.508952,0.383987 -0.161485,0.209686 -0.642106,1.114198 -0.642106,1.208423 0,0.03918 0.156377,0.113564 0.347506,0.165291 0.479771,0.129844 1.30044,0.526099 1.731727,0.836154 0.443186,0.31861 0.440622,0.321332 0.331937,-0.352404 z m 30.90473,0.324808 c 0.42394,-0.291682 1.09665,-0.621123 1.58118,-0.774338 0.54454,-0.172194 0.55392,-0.189115 0.32853,-0.592829 -0.55312,-0.990736 -0.67936,-1.075386 -1.75316,-1.17566 l -0.45212,-0.04221 0.005,0.942177 c 0.003,0.518197 -0.0224,1.147938 -0.0565,1.399424 -0.0714,0.526132 -0.068,0.528555 0.34644,0.243444 z M 30.233399,16.285036 c 0.431072,-0.726272 0.355926,-0.739801 -0.956055,-0.172116 -1.343707,0.581414 -1.358736,0.62203 -0.230174,0.62203 h 0.919187 z m 38.118092,0.36221 c -0.10929,-0.176838 -2.23147,-1.049358 -2.32495,-0.955884 -0.0358,0.03581 0.31045,0.718188 0.47385,0.933849 0.0724,0.0955 1.91003,0.117382 1.8511,0.02204 z m -39.52622,-0.855824 c 0.418372,-0.197034 1.056972,-0.446892 1.419112,-0.555242 0.881026,-0.2636 0.912746,-0.282256 1.203116,-0.707639 0.138623,-0.203079 0.609873,-0.702592 1.047222,-1.110028 1.121495,-1.044791 0.990587,-1.027059 -0.896887,0.121484 -1.702339,1.035886 -3.85083,2.609665 -3.562663,2.609665 0.01618,0 0.371729,-0.161208 0.7901,-0.35824 z m 39.67077,0.267671 c -0.18462,-0.298723 -2.23496,-1.731194 -3.97643,-2.778137 -1.40182,-0.842752 -1.59726,-0.837769 -0.60736,0.01549 0.30343,0.261545 0.75087,0.72245 0.99428,1.024233 0.24342,0.301783 0.46237,0.572414 0.48657,0.601403 0.0242,0.02899 0.389,0.15511 0.81067,0.28027 0.42167,0.12516 1.11236,0.38909 1.53486,0.586511 0.8648,0.404105 0.83318,0.392817 0.75741,0.270233 z M 39.929369,15.610937 c 0.668678,-0.215823 1.586148,-0.48727 2.038826,-0.603214 0.452672,-0.115943 0.82304,-0.236967 0.82304,-0.268942 0,-0.48101 -1.69795,-2.53973 -2.09467,-2.53973 -0.428896,0 -1.897692,2.487991 -2.040727,3.456786 -0.06234,0.422235 -0.187438,0.426645 1.273531,-0.0449 z m 18.005882,0.322849 c 0,-0.783959 -0.8747,-2.481362 -1.74549,-3.387228 -0.50783,-0.52828 -1.50945,0.24541 -2.26934,1.752913 -0.24631,0.488644 -0.24332,0.491694 0.70436,0.718329 0.47279,0.113066 1.36992,0.378532 1.9936,0.589922 1.20312,0.407782 1.31687,0.435949 1.31687,0.326064 z M 38.227544,15.28588 c 0.318587,-1.103518 0.761434,-1.924465 1.521316,-2.820207 0.506834,-0.597452 0.509858,-0.567919 -0.08519,-0.831927 -0.794242,-0.352382 -1.192115,-0.422349 -2.401725,-0.422349 H 36.1588 l -0.408683,0.308592 c -0.753775,0.569169 -1.514847,1.59593 -1.917532,2.586945 -0.224653,0.552876 -0.233938,0.54414 0.642079,0.604208 1.045283,0.07168 1.963437,0.34817 2.853458,0.859297 0.738464,0.42409 0.690451,0.439282 0.899425,-0.284559 z m 20.918427,0.315342 c 1.05192,-0.599466 2.1161,-0.906383 3.16286,-0.912197 0.5469,-0.003 0.6095,-0.08406 0.41477,-0.536893 -0.43685,-1.015971 -1.28884,-2.149716 -2.05368,-2.732857 -0.53971,-0.411488 -2.55918,-0.299452 -3.81376,0.211581 -0.59542,0.242531 -0.62603,0.304036 -0.3033,0.609377 0.72715,0.687963 1.82135,2.610659 1.82135,3.200433 0,0.52314 0.0993,0.543792 0.77176,0.160556 z M 32.683475,14.709461 c 0.331278,-0.038 0.402587,-0.07372 0.469346,-0.235086 0.0433,-0.104654 0.221769,-0.499946 0.396608,-0.878427 0.464133,-1.004725 0.398739,-0.977563 -0.943792,0.392016 -0.649649,0.662739 -0.791971,0.905435 -0.477397,0.814099 0.09054,-0.02629 0.340391,-0.06795 0.555235,-0.0926 z m 31.909286,0.04696 c 0,-0.179943 -1.7806,-1.898538 -1.87218,-1.806973 -0.0201,0.02004 0.0939,0.303335 0.25339,0.629533 0.1594,0.326198 0.32656,0.704391 0.37145,0.840429 0.0791,0.23987 0.0976,0.249531 0.60962,0.31975 0.2904,0.03982 0.55268,0.07718 0.58286,0.08302 0.0302,0.0058 0.0548,-0.02375 0.0548,-0.06576 z m -20.035893,-0.25076 c 0.42178,-0.05921 1.307463,-0.143534 1.968163,-0.187393 1.39998,-0.09294 1.31744,-0.05786 1.05822,-0.449573 -0.58541,-0.884614 -2.538053,-2.401242 -3.091583,-2.401242 -0.30957,0 -1.042,2.163517 -1.042,3.077993 0,0.09324 0.21445,0.08553 1.1072,-0.03979 z m 8.476703,-0.283025 c 0,-0.714659 -0.46197,-2.125841 -0.84963,-2.595413 l -0.13989,-0.169449 -0.35091,0.150414 c -1.04909,0.449692 -3.15155,2.341824 -2.89131,2.602063 0.0199,0.01986 0.56038,0.06996 1.20114,0.111313 0.64077,0.04135 1.47779,0.119967 1.86004,0.174686 0.38226,0.05472 0.80202,0.10344 0.93278,0.108275 l 0.23778,0.0088 z m -9.937583,-0.730565 c 0.07273,-0.508146 0.3382,-1.271117 0.62208,-1.787609 0.18143,-0.330099 0.22508,-0.466425 0.15628,-0.488149 -1.338402,-0.422648 -1.507664,-0.423208 -2.041038,-0.0067 -0.104364,0.08149 -0.30959,0.241909 -0.456058,0.356495 l -0.266305,0.20834 0.675535,0.671537 c 0.371543,0.369345 0.774305,0.842785 0.895012,1.052086 0.261,0.452537 0.349097,0.451273 0.414494,-0.0059 z m 5.480073,0.04214 c 0.59817,-0.833114 1.80038,-1.846616 2.71997,-2.293017 0.74209,-0.360236 -1.062,-1.8726418 -2.68926,-2.2544688 -1.1827,-0.27751 -4.423253,1.8101858 -3.456143,2.2265828 0.891743,0.383942 2.366773,1.599925 2.878163,2.372703 0.24429,0.369135 0.2451,0.369058 0.54727,-0.0518 z m 5.28288,-0.07316 c 0.24626,-0.397074 1.13508,-1.348888 1.39593,-1.49486 0.24676,-0.1381 0.10727,-0.297464 -0.81684,-0.933236 -0.50065,-0.344441 -2.09508,0.108309 -1.74475,0.495434 0.1995,0.220431 0.54948,1.07108 0.67186,1.632928 0.19068,0.875466 0.15148,0.851676 0.4938,0.299734 z M 41.083519,11.165923 c 0.551376,-0.425383 0.531178,-0.436095 -0.779863,-0.413583 -1.268242,0.02178 -1.425961,0.07835 -0.804597,0.288622 0.221307,0.0749 0.534064,0.199848 0.695015,0.277683 0.404785,0.195754 0.447195,0.188471 0.889445,-0.152722 z m 15.187792,0.182111 c 0.12702,-0.06569 0.44538,-0.194412 0.70748,-0.286066 0.78369,-0.27405 0.66874,-0.326106 -0.72011,-0.326106 -1.30418,0 -1.41613,0.0316 -1.00723,0.28431 0.13342,0.08246 0.30314,0.21683 0.37715,0.298605 0.16275,0.179851 0.33622,0.187748 0.64271,0.02926 z M 44.944278,10.184526 c 0.791323,-0.7477968 0.778393,-0.7763158 -0.18689,-0.4121308 -1.645456,0.6208028 -1.811542,0.9361538 -0.53955,1.0244018 0.0403,0.0028 0.36714,-0.272731 0.72644,-0.612271 z m 7.792693,0.487503 c 0.73241,-0.20478 0.56984,-0.345806 -1.11672,-0.9686498 -0.81439,-0.300755 -0.81832,-0.280942 -0.0865,0.4348938 0.77889,0.761827 0.62756,0.694692 1.20316,0.533756 z M 42.869813,10.07443 c 0.295784,-0.1625888 0.950555,-0.4506538 1.455025,-0.6401458 0.74068,-0.27821 0.87499,-0.349447 0.69776,-0.370074 -0.76676,-0.08925 -5.742448,0.907169 -5.743151,1.1501018 -7.4e-5,0.0253 0.403218,0.03692 0.896204,0.02582 0.492985,-0.01109 1.143249,0.0093 1.445033,0.04538 0.301783,0.03606 0.585285,0.06982 0.630011,0.07504 0.04469,0.0052 0.323324,-0.123536 0.619118,-0.286125 z m 13.396318,0.189613 c 0.59091,0.002 1.06074,-0.01851 1.04409,-0.04545 -0.15944,-0.2579928 -4.62153,-1.1654208 -5.73071,-1.1654208 -0.27012,0 -0.17941,0.05009 0.84377,0.465952 0.51673,0.210018 1.12058,0.4843718 1.34188,0.6096758 0.37861,0.21437 0.43263,0.224987 0.9145,0.179767 0.28166,-0.02643 0.99558,-0.04648 1.58647,-0.04453 z"
       id="path8"
       sodipodi:nodetypes="ssssssssssssssssssssssssscssssssssssssssscsssssscssssscssssscssssscssssscsssssssssscssssssssssssssscsssssscssccsscssssssssscsccssssccsssssssssssssssssscssssssssssscssssscsssssscssssssssssssssssssssssssscsssssscssssssssssssssscssssscssssssscsssssscsssssscssssccsccsscsscssssscsssssssssssscssssssccscssscsscccccssssscssssssssssssssssssscsssscsssssssssscsssssssscsssccsssscsscsssssscssscsccssscccssssssssssssscssssscsssssscsssssssssscssssssssscsscssscsccssssssssscssssssssssscsssssssssssssssssssssscssccscsccsscsssssssssccccsssscscccssscccscsssssscscsssssssssssssscssssssssscsccccssccsssscsssssssssssssscsssscccssssccssssssssscssssssssssssssssssssssssssssssssssssssccsssssccccccsccsssssssssscsssscsssscscsscscsssssssssssscsssssscsssssssscssssssssssscccssssscsssssssssssssssssssssssssssssssssssssscsssssscsssssssssssssssssssssssssssscssssscsssssscsssssssssssssssssssssssssssssssssssssssssscssscssssss" /></g></svg>
