<?xml version="1.0" encoding="UTF-8" standalone="no"?>
<!-- Created with Inkscape (http://www.inkscape.org/) -->

<svg
   width="210mm"
   height="297mm"
   viewBox="0 0 210 297"
   version="1.1"
   id="svg1"
   sodipodi:docname="KruhKolemStromu.svg"
   xml:space="preserve"
   inkscape:version="1.4.2 (2aeb623e1d, 2025-05-12)"
   xmlns:inkscape="http://www.inkscape.org/namespaces/inkscape"
   xmlns:sodipodi="http://sodipodi.sourceforge.net/DTD/sodipodi-0.dtd"
   xmlns="http://www.w3.org/2000/svg"
   xmlns:svg="http://www.w3.org/2000/svg"><sodipodi:namedview
     id="namedview1"
     pagecolor="#ffffff"
     bordercolor="#000000"
     borderopacity="0.25"
     inkscape:showpageshadow="2"
     inkscape:pageopacity="0.0"
     inkscape:pagecheckerboard="0"
     inkscape:deskcolor="#d1d1d1"
     inkscape:document-units="mm"
     inkscape:zoom="0.78157691"
     inkscape:cx="438.85636"
     inkscape:cy="600.0689"
     inkscape:window-width="1920"
     inkscape:window-height="1043"
     inkscape:window-x="0"
     inkscape:window-y="0"
     inkscape:window-maximized="1"
     inkscape:current-layer="layer1" /><defs
     id="defs1" /><g
     inkscape:label="Layer 1"
     inkscape:groupmode="layer"
     id="layer1"><path
       style="fill:#000000;stroke:#000000;stroke-opacity:1"
       d="m 103.86304,245.86364 c -0.88058,-1.86138 -2.69674,-3.47658 -7.818825,-6.95363 -8.081859,-5.48625 -11.131435,-9.56239 -11.638059,-15.55575 l -0.155544,-1.84008 -1.50608,-0.54914 c -1.9653,-0.71659 -4.229616,-2.19493 -5.745326,-3.75105 l -1.214594,-1.24698 -1.718308,-0.004 c -2.29109,-0.006 -4.79595,-0.5621 -6.901592,-1.53265 l -1.726832,-0.79595 -1.187838,1.04558 c -4.564162,4.01754 -9.65922,4.71185 -19.637337,2.67601 -6.318865,-1.28925 -8.186413,-1.38069 -10.02505,-0.49091 -1.267279,0.61329 -1.627722,0.27439 -1.086313,-1.02138 0.708531,-1.69576 0.510364,-4.36381 -0.762483,-10.26582 -2.200974,-10.20559 -1.625235,-15.6156 2.122354,-19.94298 l 1.048252,-1.21043 -0.599412,-1.18489 c -1.209434,-2.39076 -1.709207,-4.5343 -1.751621,-7.51274 l -0.03984,-2.7979 -1.386764,-1.49823 c -1.474011,-1.59248 -2.773413,-3.79797 -3.504043,-5.94745 l -0.445664,-1.31112 -1.996336,-0.29882 c -6.648262,-0.99513 -10.525713,-4.46907 -17.1364318,-15.35312 -1.4295721,-2.35369 -3.3528426,-4.34288 -4.8530201,-5.01936 -1.3979359,-0.63039 -1.3980242,-1.22924 -2.429e-4,-1.64803 1.734259,-0.51959 3.9902625,-3.05369 6.6299918,-7.44725 5.623176,-9.35922 9.65301,-12.69575 16.234631,-13.4416 l 1.580023,-0.17905 0.700354,-1.80201 c 0.938196,-2.41397 1.593001,-3.43971 3.436973,-5.38396 l 1.554375,-1.6389 0.161012,-2.19517 c 0.161171,-2.19734 1.016175,-5.34994 1.893381,-6.98133 l 0.460228,-0.85591 -1.228167,-1.62264 c -3.838026,-5.070732 -4.166292,-9.494357 -1.595552,-21.501228 0.777829,-3.632919 0.786037,-6.575222 0.02241,-8.034385 -0.655471,-1.252499 -0.237417,-1.519114 1.42646,-0.909726 1.982958,0.72625 4.542515,0.588286 9.770842,-0.526664 9.510637,-2.02816 14.700203,-1.370348 19.371794,2.455504 l 1.568739,1.284736 1.732188,-0.798417 c 2.106086,-0.970758 4.613235,-1.529261 6.891233,-1.535118 1.664369,-0.0043 1.723059,-0.02703 2.614085,-1.013289 1.124233,-1.244392 3.776034,-3.006996 5.696791,-3.786556 1.414172,-0.573956 1.44325,-0.606044 1.576565,-1.739757 0.857202,-7.289675 3.083527,-10.280643 12.491621,-16.781929 4.716831,-3.259477 6.550561,-4.928278 7.229431,-6.579208 0.58904,-1.432472 1.09054,-1.417062 1.69481,0.05208 0.67036,1.629816 2.55133,3.408706 6.21364,5.876444 9.56198,6.443053 12.73196,10.469026 13.27182,16.855629 0.11717,1.386057 0.26048,1.896808 0.5598,1.995079 1.84194,0.604736 4.77919,2.348306 6.26023,3.716111 l 1.70625,1.575794 2.39532,0.148837 c 2.39307,0.148698 4.71957,0.756818 6.63626,1.734643 l 0.96654,0.493093 1.43049,-1.177734 c 4.96573,-4.088349 9.87143,-4.574127 21.34946,-2.114095 3.27545,0.702012 5.88894,0.720079 7.60323,0.05256 1.72713,-0.672522 2.06332,-0.449494 1.47429,0.978052 -0.73796,1.788491 -0.57551,4.434653 0.59359,9.669358 2.3531,10.536122 1.75588,15.814487 -2.28539,20.198736 l -0.98444,1.068 0.66098,1.30438 c 0.92839,1.83208 1.63654,4.80732 1.63654,6.87579 v 1.75701 l 1.57587,1.67701 c 1.65333,1.75944 2.70359,3.46731 3.46924,5.64143 l 0.45783,1.30007 2.22828,0.31518 c 5.96384,0.84357 9.79222,3.7643 14.6447,11.17268 1.31708,2.01081 2.69299,4.10933 3.05758,4.66337 1.11554,1.69524 2.9939,3.40439 4.44832,4.0476 1.72612,0.76338 1.72363,0.94032 -0.0252,1.79666 -1.86727,0.91431 -3.39713,2.64161 -5.3991,6.09588 -6.23991,10.76657 -10.27374,14.37677 -16.88419,15.11101 l -1.63018,0.18107 -0.67914,1.84055 c -0.86236,2.33713 -2.02397,4.25402 -3.54297,5.8466 l -1.19571,1.25363 v 2.63863 c 0,2.9754 -0.4143,4.92219 -1.56643,7.36067 l -0.75919,1.60683 1.12498,1.45101 c 3.73906,4.82265 4.19752,9.59745 1.90663,19.85715 -1.28732,5.7652 -1.45747,7.71116 -0.84976,9.71829 0.56058,1.85149 0.45065,1.97544 -1.2067,1.36054 -1.89661,-0.70366 -4.57252,-0.59831 -8.88217,0.3497 -8.89269,1.95616 -12.39056,1.91585 -16.89332,-0.19468 -1.10941,-0.52 -2.65461,-1.47493 -3.43377,-2.12207 l -1.41667,-1.17661 -1.48724,0.7379 c -2.045,1.01463 -4.36355,1.57218 -6.62935,1.59417 l -1.90917,0.0185 -1.73587,1.60483 c -1.59195,1.47178 -3.54581,2.63235 -6.23154,3.70148 l -0.90753,0.36126 -0.13899,1.98282 c -0.41491,5.91871 -3.66327,9.94187 -12.95626,16.04653 -3.94668,2.59261 -5.68688,4.21349 -6.55165,6.10239 -0.78976,1.72506 -0.93116,1.72694 -1.73717,0.0232 z m 1.40213,-1.80749 c 0.63234,-1.18153 3.16553,-3.27812 7.21913,-5.97488 8.49998,-5.65482 11.10584,-9.09812 11.63481,-15.37388 l 0.16952,-2.01121 1.94368,-0.68529 c 4.76953,-1.68163 7.07285,-4.00078 4.77658,-4.80944 l -1.33359,-0.46964 -1.26504,0.90884 c -1.53213,1.10072 -4.05916,2.05302 -5.9807,2.25379 l -1.41874,0.14824 v 3.31156 c 0,6.13723 -2.03835,8.79769 -11.70833,15.28175 -1.30855,0.87744 -2.86104,2.03949 -3.44997,2.58235 l -1.07078,0.98701 -1.85096,-1.4663 c -1.01803,-0.80646 -3.266536,-2.43036 -4.996686,-3.60865 -7.872754,-5.36165 -11.200252,-11.45692 -9.158769,-16.77694 0.107325,-0.27969 -0.06617,-0.36934 -0.714761,-0.36934 -2.012726,0 -5.17125,-1.14934 -7.013773,-2.55222 l -1.134626,-0.86389 -1.465079,0.52464 -1.465079,0.52463 1.23235,1.15272 c 1.699041,1.58925 3.135801,2.462 5.353824,3.25212 l 1.891043,0.67365 0.152176,2.36322 c 0.393369,6.10885 3.269678,9.7187 12.832982,16.10578 3.038508,2.02934 4.577778,3.32077 5.438588,4.56292 0.80499,1.16161 0.92149,1.1893 1.3822,0.32846 z m 4.26909,-8.98362 c 9.24538,-6.359 11.28806,-9.4253 10.32808,-15.50358 -0.19242,-1.21835 -0.35312,-2.32824 -0.3571,-2.46642 -0.004,-0.13819 0.39387,-0.21669 0.88412,-0.17445 3.28864,0.28333 8.98488,-2.31389 7.38046,-3.36515 -5.52592,-3.62072 -8.86679,-11.94826 -7.26328,-18.10458 0.54763,-2.10247 0.6379,-2.00686 -1.70193,-1.80266 -3.40829,0.29746 -10.24333,2.62183 -9.98121,3.39428 0.0768,0.22637 1.48508,1.91529 6.6082,7.92513 2.3849,2.7977 3.80296,3.75766 4.31853,2.92346 0.74795,-1.21021 1.74338,0.93094 1.58189,3.40261 -0.23364,3.57569 -2.63611,6.38392 -6.61342,7.73038 l -1.25602,0.4252 -0.43387,1.76506 c -0.75934,3.0891 -2.78192,6.02239 -6.36193,9.22647 l -1.84722,1.65326 -1.83104,-1.70075 c -3.635983,-3.37728 -5.506947,-6.1112 -6.288602,-9.18916 l -0.448575,-1.76637 -1.239058,-0.41946 c -4.931022,-1.66931 -7.784493,-6.30585 -6.421849,-10.4347 0.322569,-0.97739 0.696966,-1.14016 1.560075,-0.67824 0.868597,0.46486 2.094172,-0.60781 5.889499,-5.15469 1.980893,-2.37315 3.842824,-4.53097 4.13762,-4.79514 0.86926,-0.77897 0.64749,-1.0969 -1.528111,-2.19077 -2.878674,-1.44737 -9.786419,-2.98788 -9.786419,-2.18249 0,0.0347 0.168224,0.85732 0.373831,1.828 1.356121,6.40235 -1.376407,13.19822 -7.156813,17.79919 l -1.109855,0.8834 1.299428,0.83384 c 1.612064,1.03446 3.692492,1.69645 6.066608,1.93039 l 1.820267,0.17936 -0.20549,1.0374 c -1.391416,7.02444 0.66314,10.57743 9.754001,16.86782 1.733453,1.19945 3.548853,2.51516 4.034223,2.9238 l 0.88249,0.74297 0.75641,-0.60257 c 0.41603,-0.33141 2.28626,-1.65479 4.15606,-2.94084 z m 1.3637,-11.57383 c 0.50212,-1.02221 1.03665,-2.53934 1.18786,-3.3714 0.28528,-1.56986 0.50927,-1.88052 1.36083,-1.88738 0.92773,-0.007 3.5181,-1.42899 4.6199,-2.53527 2.45456,-2.46454 3.18399,-6.44454 1.18112,-6.44454 -1.34157,0 -2.73122,-1.14676 -5.63209,-4.6477 -5.91047,-7.13311 -5.87547,-7.10316 -7.10261,-6.0787 l -0.8633,0.72072 1.01827,1.23336 c 0.56004,0.67835 1.91087,2.42472 3.00183,3.88082 3.58163,4.7804 5.34495,6.52724 7.01087,6.94536 2.68636,0.67423 -1.95305,4.24613 -5.50324,4.23696 l -1.76497,-0.005 -4e-5,2.42192 c -5e-5,2.96831 -0.7766,4.80866 -3.09067,7.32466 l -1.45675,1.58386 -1.48571,-1.60474 c -2.1943,-2.37011 -3.0026,-4.26948 -3.12829,-7.35098 l -0.10027,-2.45836 h -1.643356 c -2.138964,0 -3.363923,-0.38597 -4.609986,-1.45255 -0.879598,-0.75291 -1.951353,-2.27382 -1.712008,-2.42949 0.04489,-0.0292 0.577868,-0.26913 1.184385,-0.53319 1.513279,-0.65883 3.498555,-2.68532 6.689145,-6.82802 6.37476,-8.27704 11.14,-11.21826 18.83813,-11.62737 l 2.67682,-0.14225 0.54948,-1.131 c 0.68819,-1.41649 0.80376,-1.34414 -2.16397,-1.35468 -8.52152,-0.0303 -14.52524,3.30474 -21.833946,12.12854 -4.915245,5.93418 -5.872591,6.82219 -7.610278,7.05915 l -1.021668,0.13932 0.02075,1.63597 c 0.04332,3.41566 3.030887,6.63573 6.744856,7.26976 l 1.013259,0.17297 0.456301,2.1211 c 0.599443,2.78648 1.522397,4.29008 4.61973,7.52603 l 2.5172,2.62986 2.55974,-2.64481 c 1.9482,-2.01294 2.77786,-3.08884 3.47268,-4.50337 z m -3.40329,-1.80337 c 0.78023,-1.61174 1.03984,-3.39356 0.80272,-5.50943 -0.24132,-2.15341 -0.14912,-2.34282 0.95327,-1.95853 1.41484,0.49322 3.85171,0.18238 5.22073,-0.66593 1.57544,-0.97623 1.60599,-1.19064 0.28042,-1.96748 -1.46168,-0.8566 -3.09972,-2.67876 -6.79809,-7.56222 l -3.04512,-4.02088 -0.602,0.72908 c -0.33109,0.40099 -1.75286,2.20409 -3.15947,4.00688 -3.165953,4.05767 -4.723669,5.72831 -6.283547,6.73908 -2.427787,1.57315 1.768581,3.62233 5.495917,2.68377 1.40583,-0.35399 1.34631,-0.45405 1.05272,1.76963 -0.42495,3.2186 0.34585,5.7915 2.40394,8.02426 l 1.04958,1.13867 1.05273,-1.16277 c 0.57899,-0.63952 1.28828,-1.64938 1.5762,-2.24413 z m -49.644667,-4.86087 c 2.251656,-0.68173 4.284336,-1.83837 5.842208,-3.32432 l 1.460158,-1.39276 1.706771,0.89478 c 8.679331,4.55017 18.487175,-0.39394 21.148032,-10.66066 0.951348,-3.6707 0.271357,-8.99787 -1.106015,-8.6647 -1.468891,0.35531 -1.874794,0.59443 -1.71516,1.01043 4.43496,11.55732 -10.068807,22.11492 -19.403847,14.12448 l -1.013084,-0.86717 -1.316699,1.60872 c -3.98219,4.86536 -8.165243,5.69965 -18.131329,3.6162 -2.053701,-0.42934 -4.528239,-0.85711 -5.498974,-0.95061 l -1.764973,-0.17 -0.163652,-1.76497 c -0.09001,-0.97073 -0.570777,-3.54349 -1.068372,-5.71723 -2.302452,-10.05825 -1.409378,-14.96502 3.373692,-18.53591 l 1.238663,-0.92475 -0.50544,-0.64835 c -4.850452,-6.2219 -4.45333,-13.6487 0.986126,-18.44214 8.183458,-7.21154 19.611667,-2.02826 23.378887,10.60353 0.584473,1.95978 1.301809,2.50423 2.924636,2.21973 1.665491,-0.29198 -3.036697,-9.94712 -6.60944,-13.57135 -12.732042,-12.91556 -33.736203,1.80168 -25.177082,17.64113 0.922068,1.70637 0.922378,1.69958 -0.127201,2.78116 -4.080082,4.20446 -4.710364,9.51295 -2.35129,19.80354 0.855933,3.73369 1.043481,5.0172 1.057619,7.23798 0.01917,3.01114 -0.183637,2.7483 1.800765,2.33383 0.863962,-0.18045 4.102416,0.27771 7.531754,1.06556 6.162946,1.41586 10.399541,1.63355 13.503247,0.69385 z m 104.889827,-0.11207 c 6.73081,-1.48923 7.17286,-1.55734 9.48353,-1.46113 l 2.29756,0.0957 0.001,-2.27938 c 7.7e-4,-1.74561 0.24004,-3.34221 1.02174,-6.81789 2.47859,-11.02062 2.00978,-15.7775 -1.98578,-20.14928 l -1.25947,-1.37806 0.80264,-1.59001 c 6.11148,-12.10678 -5.1013,-26.39568 -17.76776,-22.64218 l -0.97698,0.28951 0.15861,1.1572 c 0.20032,1.46151 -0.0157,1.37713 2.31109,0.90263 11.14384,-2.27255 19.60396,11.37262 12.70355,20.48932 l -1.22681,1.62084 1.85,1.82515 c 4.18934,4.13307 4.75054,7.74064 2.71577,17.45777 -0.55174,2.63485 -1.08039,5.4862 -1.17476,6.33634 l -0.1716,1.54571 -1.55461,0.1734 c -0.85504,0.0954 -3.57234,0.56243 -6.03846,1.0379 -10.21144,1.96876 -14.33356,0.9852 -18.37637,-4.38473 l -0.63122,-0.83844 -1.96123,1.40712 c -4.91307,3.52497 -10.57929,3.23173 -14.76872,-0.7643 -8.55238,-8.15759 -3.97796,-20.73335 9.16491,-25.1957 l 2.14499,-0.72828 0.0838,-1.20824 c 0.1038,-1.49628 -0.0826,-1.52385 -3.17998,-0.47035 -12.78384,4.34812 -18.72061,16.3869 -12.87122,26.10071 4.38437,7.28091 12.00015,9.65561 19.0279,5.93314 l 1.88432,-0.99809 1.14134,1.11767 c 1.90458,1.86505 5.04442,3.47703 7.82303,4.0163 1.4065,0.27297 7.01264,-0.0878 9.32915,-0.60032 z M 56.135654,212.90976 c 2.885092,-0.61264 5.692833,-2.64359 7.408164,-5.35862 0.892697,-1.41296 0.882181,-1.41227 2.314267,-0.1517 3.558141,3.132 7.432711,4.1133 6.86292,1.73815 -1.462513,-6.09644 1.92879,-14.46982 7.212288,-17.80767 1.374094,-0.86808 1.379013,-0.79564 -0.147199,-2.16783 -2.359834,-2.1217 -6.478153,-4.407 -8.766579,-4.86469 l -0.737339,-0.14747 -0.165482,1.72572 c -0.737625,7.69226 -0.431991,13.45305 0.7248,13.66153 0.830557,0.14969 0.928899,0.43496 0.502414,1.45741 -1.552308,3.72151 -7.009223,5.26491 -11.260702,3.18492 -2.018212,-0.98739 -1.735133,-0.98153 -3.045283,-0.063 -2.117419,1.48445 -6.002942,2.26031 -11.353627,2.26709 l -1.701938,0.002 -0.05796,-2.45836 c -0.138672,-5.88214 0.168719,-8.14628 1.454823,-10.71572 l 0.851791,-1.70175 -0.74751,-1.20249 c -2.008945,-3.23171 -1.762283,-7.87428 0.558443,-10.51076 1.618363,-1.83856 3.055509,-2.40128 3.330857,-1.3042 0.337955,1.34652 1.493216,1.40256 10.746449,0.52135 5.222979,-0.4974 4.713558,-0.2064 4.028637,-2.30133 -1.979292,-6.05398 -5.444629,-10.26448 -6.653556,-8.0843 -3.102806,5.5956 -10.584252,8.92882 -17.659427,7.86783 l -1.225464,-0.18377 0.16809,1.22635 c 0.2307,1.68314 1.423032,4.12773 2.948024,6.04422 l 1.275476,1.60291 -0.6981,0.57748 c -5.95436,4.92559 -6.655375,7.86551 -4.406344,18.47936 0.558314,2.63485 1.082448,5.21179 1.164742,5.72654 0.135612,0.84824 0.237279,0.94971 1.085526,1.0834 0.514746,0.0811 2.921496,0.53402 5.348334,1.00643 2.426838,0.4724 4.696089,0.90548 5.04278,0.9624 1.335029,0.21918 4.320324,0.15968 5.597682,-0.11156 z m 106.982386,-0.59658 c 1.80279,-0.38256 4.1855,-0.82468 5.29492,-0.98249 l 2.01711,-0.28692 0.0781,-0.87922 c 0.043,-0.48358 0.46652,-2.69727 0.94121,-4.91933 1.34164,-6.28036 1.39769,-6.64859 1.40344,-9.21974 0.009,-4.05633 -1.33234,-6.83754 -4.55286,-9.4396 l -1.77189,-1.43162 1.13057,-1.29241 c 3.21597,-3.67634 4.28352,-7.87568 1.8889,-7.43026 -6.27844,1.16785 -13.62814,-1.95202 -17.11659,-7.26581 l -1.23953,-1.88812 -0.93672,0.95878 c -4.44028,4.54483 -6.3447,10.66279 -3.32175,10.67115 0.99722,0.003 3.34487,0.17069 5.217,0.37319 5.87369,0.63534 7.50212,0.45647 8.20417,-0.90114 0.41645,-0.80532 0.65918,-0.78189 2.17611,0.21008 3.30245,2.15959 4.02079,7.51766 1.59077,11.86544 l -0.62276,1.11423 0.8931,1.80706 c 1.13597,2.29848 1.60617,4.9199 1.61746,9.01747 0.0117,4.25774 0.19332,3.99222 -2.72868,3.98974 -5.1211,-0.004 -8.27043,-0.67588 -10.6919,-2.27979 l -1.14754,-0.7601 -1.5061,0.76534 c -4.46312,2.26799 -9.42803,1.04251 -11.4215,-2.81915 -0.63483,-1.22975 -0.61487,-1.36452 0.24651,-1.6648 1.13201,-0.39462 1.3914,-1.55076 1.19556,-5.32881 -0.0902,-1.74077 -0.23754,-4.73028 -0.32734,-6.64336 l -0.16327,-3.47833 -0.74694,0.16405 c -2.55656,0.56152 -7.37489,3.32143 -9.33888,5.34926 l -0.9612,0.99245 1.26182,0.8097 c 5.57326,3.57635 8.7239,11.60633 7.2634,18.5121 l -0.20494,0.96903 0.83529,-0.16873 c 1.52884,-0.30885 4.34553,-1.79495 5.97821,-3.15415 1.38902,-1.15635 1.65159,-1.28795 1.89104,-0.94775 2.44173,3.46903 3.23801,4.24008 5.6321,5.45364 2.47747,1.25581 6.61716,1.31044 12.04356,0.15892 z m -27.15894,-3.02785 c 1.05023,-4.90048 -0.76615,-11.01209 -4.355,-14.65333 -2.87186,-2.9138 -4.01735,-3.29862 -4.97287,-1.67062 l -0.43093,0.73421 1.53518,0.98711 c 4.39716,2.82737 6.65791,8.74013 5.39051,14.09835 -0.3748,1.58456 -0.33047,1.76205 0.49178,1.96903 1.58043,0.39782 1.99817,0.13648 2.34133,-1.46475 z m -59.72513,1.10457 c 0.595172,-0.20748 0.767404,-0.39105 0.650538,-0.69338 -4.746319,-12.27852 8.945651,-21.46216 22.233211,-14.91251 3.021121,1.48915 2.824771,1.46196 3.730361,0.51672 0.94672,-0.98817 0.78468,-1.16054 -2.72641,-2.9002 -13.800981,-6.83807 -27.963025,1.07323 -26.543699,14.82802 0.354035,3.43098 0.700288,3.84312 2.655999,3.16135 z m 55.95321,-4.03643 c 0.18018,-4.9516 -2.01687,-9.25467 -5.69683,-11.15766 l -0.79469,-0.41095 -0.38834,1.3077 c -1.33254,4.48715 0.9297,10.29663 5.08008,13.04572 1.53454,1.01644 1.66903,0.80834 1.79978,-2.78481 z m -50.980267,0.74829 c 2.946162,-3.09206 4.249333,-7.83274 3.161886,-11.50232 l -0.319733,-1.07894 -0.78106,0.44859 c -4.596512,2.63993 -7.613716,10.81667 -5.345547,14.48665 0.179492,0.29042 2.025295,-1.03247 3.284454,-2.35398 z m -27.369669,-2.69907 c 0.913203,-0.29311 2.149853,-0.90291 2.748112,-1.3551 0.59826,-0.45218 1.22847,-0.92713 1.400467,-1.05543 0.210097,-0.15672 0.714903,0.0227 1.538251,0.54681 3.449291,2.19558 7.839857,1.88934 10.017548,-0.69869 0.757861,-0.90067 0.811742,-1.14279 0.298167,-1.33987 -1.272337,-0.48824 -1.495622,-3.08904 -1.047889,-12.20566 l 0.225989,-4.60153 h -1.277511 -1.277512 l -0.15953,1.70194 c -0.08774,0.93606 -0.281284,2.77983 -0.430093,4.09725 -0.489803,4.33627 -0.381234,8.50584 0.258855,9.94125 1.294059,2.90196 -4.384629,2.31429 -6.917532,-0.71587 l -0.8947,-1.07035 -1.684731,1.68171 c -2.044962,2.04129 -3.68612,2.75622 -6.790546,2.95814 l -2.080146,0.13529 v -2.13295 c 0,-3.42881 0.776793,-5.45653 3.009791,-7.85671 1.067649,-1.14757 1.105438,-1.23571 0.638386,-1.48892 -1.952447,-1.05853 -3.269969,-3.43817 -3.269969,-5.90604 0,-2.19482 0.07376,-2.28259 1.439339,-1.71277 1.447139,0.60385 4.611549,0.56932 9.02443,-0.0985 10.306673,-1.55974 16.178853,-0.19148 21.845306,5.09008 l 1.8496,1.72397 1.20074,-0.44497 c 0.660407,-0.24474 1.251119,-0.48468 1.312693,-0.53321 0.213373,-0.16815 -3.144945,-3.4007 -4.687893,-4.51232 -5.622887,-4.05104 -11.695741,-5.26057 -21.425308,-4.26727 -7.18555,0.73358 -8.266828,0.66086 -10.263528,-0.69023 -0.402234,-0.27218 -0.587602,-0.17064 -1.453343,0.79605 -2.381814,2.65954 -2.228343,7.74256 0.317689,10.52195 0.488491,0.53327 0.487134,0.54174 -0.280815,1.75267 -1.562559,2.4639 -1.837195,3.61529 -1.972844,8.27104 l -0.124005,4.25608 3.626082,-0.12746 c 2.728421,-0.0959 4.037116,-0.25939 5.28645,-0.66039 z m 110.915966,-2.74457 c -0.005,-4.65646 -0.6102,-7.09932 -2.33766,-9.43583 l -0.50975,-0.68948 0.68519,-0.89833 c 2.50113,-3.27915 2.49919,-7.80129 -0.004,-10.41425 l -1.06324,-1.10966 -0.53642,0.53642 c -1.22541,1.22541 -3.40788,1.36492 -10.32199,0.65985 -2.13425,-0.21764 -4.36038,-0.39571 -4.94696,-0.39571 h -1.06651 l -0.13496,1.19737 c -0.16911,1.50034 -0.11738,1.57616 1.07536,1.57616 0.53691,0 2.7711,0.23444 4.96486,0.52097 4.93704,0.64485 8.17222,0.67596 9.63012,0.0926 1.34461,-0.53801 1.41842,-0.44747 1.41842,1.7397 0,2.23951 -0.49524,3.33979 -2.30454,5.12004 l -1.31708,1.29593 0.63607,0.59511 c 2.27988,2.13307 3.36376,4.74553 3.36376,8.10766 v 2.26475 l -2.23639,-0.12751 c -3.27896,-0.18696 -5.93597,-1.50952 -7.46489,-3.71577 l -0.68178,-0.9838 -1.42712,1.45615 c -2.66785,2.72211 -8.06745,3.32386 -6.68984,0.74553 0.64324,-1.2039 0.74931,-5.69303 0.24273,-10.27308 -1.10245,-9.96745 0.51693,-16.42639 5.48205,-21.86523 l 1.47062,-1.61093 -0.4282,-1.28919 -0.4282,-1.28919 -1.63132,1.6027 c -6.18053,6.07212 -8.09285,12.69128 -7.31044,25.30377 0.43662,7.03831 0.0903,10.21163 -1.11445,10.21163 -0.42226,0 -0.22142,0.48869 0.57244,1.39285 2.37816,2.70857 6.64268,2.79558 10.59197,0.21611 0.66128,-0.43192 0.68569,-0.42635 1.58288,0.3614 2.10753,1.85043 4.50569,2.51793 9.15477,2.5481 l 3.0887,0.02 z M 52.97038,200.54375 c 1.578745,-0.58187 3.283923,-2.03847 4.372826,-3.73538 0.940601,-1.4658 1.095594,-1.52159 1.501919,-0.54063 0.757553,1.82889 3.515121,3.79789 5.334453,3.80897 l 0.908586,0.006 -0.341274,-1.31564 c -0.440154,-1.69684 -0.426406,-5.24272 0.03693,-9.52634 0.691116,-6.38939 1.170007,-5.91954 -5.095619,-4.99938 -3.765404,0.55299 -8.33533,0.74062 -9.843617,0.40415 -2.343317,-0.52274 0.345992,4.4985 3.199711,5.97421 0.726149,0.37551 1.04248,0.89028 0.547083,0.89028 -1.950898,0 -5.785126,7.81307 -4.697694,9.57257 0.225956,0.36561 2.404654,0.0779 4.076691,-0.53835 z m 107.96036,-0.4615 c 0.19358,-2.67998 -1.50104,-6.06327 -3.97817,-7.94238 -1.21051,-0.91827 -1.22639,-1.0152 -0.24902,-1.52062 2.04302,-1.05648 3.54115,-3.03339 3.89127,-5.13486 0.17979,-1.07915 0.16894,-1.10377 -0.41103,-0.93255 -1.41046,0.41639 -4.7579,0.43778 -7.65559,0.0489 -9.35385,-1.25529 -8.36145,-1.84393 -7.68257,4.55698 0.56433,5.32088 0.56919,8.78866 0.0143,10.24014 -0.86791,2.27039 3.86567,0.18223 5.52537,-2.43745 1.03438,-1.63268 1.02618,-1.62908 1.57882,-0.69353 1.75575,2.97224 5.39877,5.17486 8.25429,4.99065 0.55951,-0.0361 0.63956,-0.16817 0.7123,-1.17529 z m -55.09369,-7.02637 c 4.13497,-2.83605 10.06581,-4.51126 15.11653,-4.26978 l 2.31917,0.11088 2.14684,-2.17842 c 3.73631,-3.79128 10.72937,-7.56385 14.02078,-7.56385 0.18986,0 0.41261,-0.31202 0.49501,-0.69338 1.30797,-6.054 3.53212,-10.3313 7.35203,-14.13883 l 2.10602,-2.09919 0.0743,-4.20428 c 0.0985,-5.57467 1.07897,-8.94957 3.83986,-13.21748 l 1.1249,-1.73893 -1.12988,-1.81283 c -2.93008,-4.70111 -3.93054,-7.98551 -4.12182,-13.53143 l -0.13479,-3.90816 -1.28457,-1.01864 c -3.60488,-2.85864 -6.81347,-8.37478 -8.21343,-14.12039 l -0.24835,-1.01926 -1.89423,-0.44069 c -5.01168,-1.16597 -10.26016,-4.35589 -13.10666,-7.96599 l -0.99843,-1.266264 -2.17606,0.154461 c -4.70999,0.334325 -10.89622,-1.393453 -14.98965,-4.186524 -1.00712,-0.687193 -1.00596,-0.687409 -3.27609,0.606284 -4.202515,2.394905 -8.992141,3.588767 -13.298425,3.314765 l -2.454733,-0.156191 -1.944511,2.035296 c -3.21326,3.363283 -7.000562,5.600193 -11.835,6.990163 l -2.424322,0.69702 -0.615731,2.13277 c -1.537723,5.32635 -4.549599,10.18648 -8.005572,12.91824 l -1.278496,1.01058 -0.03114,3.18286 c -0.04967,5.07656 -1.231066,9.16739 -3.912675,13.5485 l -1.5262,2.49344 0.665187,1.13462 c 3.008365,5.13144 4.351234,10.19562 4.116153,15.52268 l -0.128423,2.91013 1.510493,1.43647 c 3.641786,3.46332 6.216432,7.90338 7.595664,13.09899 l 0.569391,2.14491 1.824214,0.46326 c 4.794369,1.21755 9.212379,3.75195 12.57697,7.21482 l 2.079954,2.14071 1.702131,-0.16878 c 4.498235,-0.44603 11.225158,1.42929 15.341375,4.27684 1.50314,1.03985 1.19929,1.01995 2.45222,0.1606 z M 47.764443,174.87056 c 4.513555,-1.4974 10.584206,-7.18875 9.308024,-8.72645 -0.328348,-0.39564 -1.744663,-1.21144 -1.848483,-1.06474 -0.03177,0.0449 -0.382049,0.64728 -0.778394,1.33864 -2.764886,4.82285 -10.113102,7.84417 -14.551565,5.98308 -0.817258,-0.34268 -0.875086,-0.26931 -1.095127,1.38944 l -0.170929,1.28852 1.101326,0.26248 c 1.752047,0.41757 6.130406,0.16093 8.035148,-0.47097 z M 169.0433,175.3561 c 2.04802,-0.33097 2.073,-0.35876 1.69114,-1.88136 -0.25841,-1.0304 -0.40342,-1.23904 -0.81369,-1.17076 -13.70573,2.28096 -21.27697,-10.15047 -14.41944,-23.67568 l 1.35124,-2.66505 -0.8409,-0.97277 c -1.03083,-1.1925 -1.00201,-1.21936 -2.97526,2.77293 -7.1529,14.47183 1.7914,29.89001 16.00691,27.59269 z m -134.545571,-5.1642 0.440885,-1.39865 -0.936184,-1.41042 c -1.105173,-1.66501 -1.992481,-4.14825 -2.235409,-6.25605 l -0.174356,-1.51284 h -3.210408 -3.210408 l -2.004036,-0.98647 c -2.774776,-1.36587 -4.99506,-3.63419 -7.800901,-7.96969 -3.287059,-5.07905 -3.968251,-6.08003 -4.744012,-6.97106 l -0.7074575,-0.81259 1.0984575,-1.3486 c 0.604151,-0.74174 1.649717,-2.25129 2.32348,-3.35456 7.014635,-11.48633 10.832287,-14.1961 18.064926,-12.82249 0.628564,0.11937 0.664259,0.0651 0.817968,-1.24268 0.261513,-2.22506 1.113106,-4.58037 2.291429,-6.33756 l 1.104217,-1.64668 -0.406771,-1.32453 c -0.519705,-1.69226 -0.449239,-1.63832 -1.210194,-0.9263 -1.571425,1.47038 -3.531262,4.77973 -4.111168,6.94206 l -0.278057,1.03681 -1.701586,0.17372 c -6.821505,0.69647 -10.292605,3.51141 -16.194464,13.13314 -2.6614276,4.33889 -3.7130566,5.70567 -5.1923298,6.74836 l -1.0529082,0.74216 1.8113696,1.8018 c 1.2729826,1.26625 2.4005912,2.77605 3.7937694,5.0796 5.633182,9.31421 9.752099,12.76493 15.763325,13.20608 l 2.143181,0.15729 0.536336,1.67156 c 0.697522,2.17392 1.862081,4.33456 3.14207,5.82957 1.282221,1.49763 1.304566,1.49519 1.839236,-0.20098 z m 13.770992,0.3587 c 4.501369,-2.15958 6.974005,-5.92427 4.271684,-6.50382 -4.734271,-1.01532 -13.778279,3.85967 -12.770309,6.88358 0.358134,1.0744 5.992386,0.82264 8.498625,-0.37976 z m 120.217269,0.80885 c 1.48506,-0.28714 1.49554,-0.32539 0.5293,-1.93277 -2.47508,-4.11739 -7.83779,-6.4772 -12.29152,-5.40877 -1.56524,0.3755 -1.60054,0.59879 -0.3843,2.43113 2.48603,3.74536 7.56109,5.79703 12.14652,4.91041 z m 10.16397,-3.46927 c 0.44358,-0.7753 1.06206,-2.21565 1.3744,-3.2008 l 0.5679,-1.79117 2.2329,-0.29909 c 6.49118,-0.8695 9.96742,-3.83413 15.32637,-13.07074 2.62872,-4.53083 3.86162,-6.21558 5.1936,-7.09705 0.9459,-0.62596 1.27491,-1.09747 0.76581,-1.09747 -0.82707,0 -3.38486,-3.04493 -6.4534,-7.68249 -5.59832,-8.46086 -9.22208,-11.2653 -15.11051,-11.69408 l -2.25496,-0.1642 -0.42767,-1.44308 c -3.75804,-12.68047 -21.57265,-13.74751 -27.73849,-1.66146 l -0.48092,0.94269 0.94138,0.63968 c 1.23933,0.84215 1.1773,0.86805 2.10955,-0.88103 5.58433,-10.47727 21.61334,-7.48649 22.8968,4.27221 l 0.14938,1.36855 3.27781,0.0201 c 5.81406,0.0357 8.73624,2.08545 13.68804,9.60141 1.46185,2.21882 3.19527,4.71693 3.85207,5.55134 l 1.19416,1.51712 -1.1252,1.48832 c -0.61886,0.81858 -1.92954,2.85898 -2.91262,4.53422 -5.56634,9.48545 -9.40352,12.3847 -15.73063,11.8856 l -2.04273,-0.16114 -0.14356,1.71237 c -0.17649,2.10523 -0.91579,4.1403 -2.20596,6.07234 l -0.98049,1.4683 0.54296,1.47394 0.54296,1.47394 1.07227,-1.18436 c 0.58975,-0.6514 1.4352,-1.8187 1.87878,-2.59399 z M 37.09248,165.53921 c 4.140668,-5.02723 11.42561,-7.71207 16.908363,-6.23153 2.212022,0.59733 2.112453,-3.4478 -0.229601,-9.32782 -1.436136,-3.60561 -1.34639,-3.57807 -3.815158,-1.17053 -1.136064,1.10788 -3.294456,3.13529 -4.796426,4.50535 -2.919816,2.66338 -3.972306,4.16433 -3.476641,4.95801 1.01489,1.6251 -3.281496,2.37054 -5.895177,1.02283 -2.428722,-1.25233 -4.658062,-4.27875 -5.075692,-6.89046 -0.144266,-0.9022 -0.216184,-0.96437 -1.446216,-1.25024 -2.69375,-0.62605 -11.001753,-7.25173 -11.001753,-8.77395 0,-1.51511 8.432906,-8.00945 11.206153,-8.63008 1.283795,-0.2873 1.366928,-0.35358 1.522746,-1.21408 0.731227,-4.0382 4.491043,-7.46131 8.198639,-7.46443 2.628304,-0.002 3.726112,0.67437 2.994653,1.84563 -0.536559,0.85917 8.895373,11.26422 10.210747,11.26422 1.069878,0 3.687913,-7.64787 3.687913,-10.77322 v -1.63379 l -1.32373,0.35741 c -5.861685,1.58268 -14.105764,-1.81448 -17.593633,-7.24985 -1.401046,-2.18334 -3.124716,0.39535 -3.840585,5.74569 -0.280135,2.09371 -0.292362,2.11973 -0.928669,1.97635 -6.551433,-1.47621 -11.058153,0.92925 -15.632945,8.34407 -2.740492,4.44179 -4.313489,6.82296 -4.79525,7.25895 -0.483215,0.4373 -0.466121,0.48318 0.97714,2.62217 0.807927,1.1974 2.435704,3.6521 3.617281,5.45489 4.838443,7.38226 8.12195,9.11261 15.252012,8.03755 l 1.071591,-0.16157 v 1.77161 c 0,3.08008 2.13711,8.35783 2.927538,7.22977 0.188192,-0.26858 0.762707,-0.99891 1.2767,-1.62295 z m 138.38129,-0.25396 c 0.77048,-1.52046 1.12329,-2.90303 1.33775,-5.24229 0.16031,-1.74846 0.22807,-1.93435 0.68038,-1.8665 7.9458,1.19186 11.17391,-0.8218 16.89537,-10.53912 0.93899,-1.59478 2.19301,-3.60194 2.7867,-4.46037 0.91283,-1.31985 1.02361,-1.60711 0.71766,-1.86102 -0.19899,-0.16515 -1.79491,-2.46111 -3.5465,-5.10213 -5.64681,-8.51422 -9.0973,-10.87806 -14.66202,-10.04457 -1.06756,0.1599 -2.16706,0.31857 -2.44335,0.3526 -0.44968,0.0554 -0.52057,-0.13673 -0.6762,-1.83276 -0.46159,-5.03036 -2.34437,-7.86903 -3.73817,-5.63609 -3.38539,5.42357 -11.20331,8.865 -17.2434,7.59052 l -1.73685,-0.36648 0.14091,2.29653 c 0.19367,3.15647 1.4657,7.10823 2.98053,9.25947 l 0.46437,0.65947 5.03915,-4.94583 c 5.16885,-5.07313 5.73812,-5.84533 5.08278,-6.89469 -0.91,-1.45714 2.81164,-2.24346 5.62906,-1.18933 2.55209,0.95486 5.08528,3.96287 5.57924,6.62499 0.19318,1.04116 0.25974,1.08549 2.68209,1.78646 2.10722,0.60977 4.26664,2.16115 7.47281,5.36864 l 2.85339,2.85457 -2.1751,2.36506 c -3.69463,4.01728 -5.92628,5.64727 -8.71562,6.36582 -1.6876,0.43473 -1.72657,0.4634 -1.88229,1.38511 -0.87201,5.16142 -6.44489,9.07435 -10.37965,7.28796 -1.0362,-0.47044 -1.0511,-0.49499 -0.76332,-1.25741 0.42233,-1.11887 -0.21044,-2.14193 -2.69493,-4.35713 -1.12229,-1.00065 -3.26905,-2.9504 -4.77057,-4.33278 -2.16289,-1.99127 -2.78003,-2.43834 -2.97061,-2.15199 -2.45395,3.6872 -4.40894,12.43029 -2.68297,11.99873 6.84733,-1.71212 14.29275,1.0547 18.23287,6.77557 l 0.97936,1.42198 0.4744,-0.58586 c 0.26093,-0.32223 0.73465,-1.09944 1.05273,-1.72713 z M 59.221048,156.8423 c -0.550361,-7.9092 -3.753236,-13.6222 -12.509244,-22.31288 -5.358907,-5.31893 -5.65197,-5.694 -5.812046,-7.43842 -0.343142,-3.73939 -7.557421,0.87943 -8.706689,5.57431 l -0.439453,1.79521 -1.386764,0.26209 c -2.900911,0.54826 -5.23859,2.05343 -8.661621,5.57697 l -1.979938,2.03808 1.953382,2.15161 c 3.146046,3.46531 5.642263,5.13963 8.458978,5.67381 0.728949,0.13824 1.343125,0.27891 1.364835,0.3126 0.02171,0.0337 0.183934,0.74203 0.360499,1.57409 1.048641,4.94171 8.589425,9.94541 8.589425,5.69953 0,-1.4047 0.810842,-2.36599 6.270204,-7.43362 2.653151,-2.46277 4.823912,-4.54441 4.823912,-4.62585 0,-0.11576 -0.830429,-1.31382 -1.435866,-2.07151 -0.04872,-0.061 -0.624921,0.4007 -1.280439,1.02596 -0.655517,0.62526 -2.751458,2.46639 -4.657647,4.0914 -3.473616,2.96123 -5.240021,4.93102 -5.760324,6.42356 -0.331689,0.95149 -0.409989,0.96344 -1.515534,0.23137 -1.484119,-0.98275 -2.36976,-3.15338 -2.368631,-5.80533 l 9.42e-4,-2.21236 -1.025194,0.15374 c -2.653747,0.39796 -5.445818,-0.72268 -8.113024,-3.25626 l -1.856899,-1.76387 1.714532,-1.73298 c 2.515645,-2.54271 4.272181,-3.34784 7.303949,-3.34784 h 2.322214 l -0.142642,-1.52752 c -0.255567,-2.73681 1.025913,-5.54754 2.993041,-6.56478 0.416436,-0.21535 0.783212,-0.35481 0.815059,-0.30991 0.03185,0.0449 0.251687,0.60506 0.488535,1.24481 0.562951,1.52059 2.32946,3.44201 6.644962,7.22769 7.324625,6.42535 10.510643,12.20428 10.845672,19.6723 l 0.139135,3.10142 1.16313,0.59279 1.163129,0.59279 0.197097,-1.17282 c 0.108403,-0.64505 0.126099,-2.19313 0.03932,-3.44018 z m 114.294912,1.21708 c 2.13431,-1.00656 4.08439,-3.90047 4.48059,-6.64921 l 0.16488,-1.14388 1.51676,-0.28825 c 2.78842,-0.52991 10.29265,-6.19345 10.29265,-7.76799 0,-1.66694 -7.73797,-7.28361 -10.50848,-7.62768 -1.399,-0.17374 -1.47167,-0.21794 -1.54344,-0.93875 -0.42683,-4.28687 -4.48826,-8.07303 -8.05617,-7.51014 -0.71264,0.11243 -0.81945,0.22739 -0.81945,0.88201 0,1.51115 -0.85228,2.60202 -5.88724,7.53533 l -5.04323,4.94143 0.56909,0.92081 c 0.76794,1.24255 0.60087,1.32067 4.63662,-2.1679 4.80174,-4.1507 6.3468,-5.77952 7.27951,-7.67413 0.89514,-1.81827 0.77829,-1.74951 1.84874,-1.08794 1.69057,1.04483 2.64785,3.19215 2.64785,5.93951 v 1.82979 l 2.45835,0.0867 c 3.23056,0.11388 8.63576,3.16007 8.63576,4.86683 0,2.06715 -6.86699,5.6799 -9.99795,5.25995 l -0.99352,-0.13326 -2e-5,2.23253 c -3e-5,2.63615 -0.55897,4.07029 -2.14475,5.50295 -1.27115,1.1484 -1.30615,1.14024 -2.10404,-0.4906 -0.80878,-1.65309 -2.58392,-3.50119 -6.47203,-6.73807 -7.76767,-6.46663 -11.3426,-12.49627 -11.70144,-19.73614 l -0.11215,-2.26259 -1.14399,-0.58139 c -1.46451,-0.74428 -1.50812,-0.64254 -1.30847,3.05292 0.46431,8.59453 3.82711,13.91733 15.58477,24.66832 2.72205,2.489 3.50028,3.59019 3.50028,4.95286 0,1.21529 1.79705,1.26894 4.22052,0.12602 z M 37.813116,153.66295 c 0.28107,-0.88557 3.560647,-4.14928 7.619041,-7.58217 4.688414,-3.9658 4.906771,-3.01217 -2.080147,-9.08466 -2.612921,-2.27094 -4.025723,-3.80287 -4.946677,-5.36377 -1.460603,-2.47554 -3.223333,3.04176 -2.108693,6.60015 0.173317,0.5533 0.167314,0.5543 -2.454219,0.40584 -3.24623,-0.18383 -4.523391,0.179 -6.624581,1.882 -2.221353,1.80038 -2.246612,1.90587 -0.777429,3.24657 2.298801,2.09777 3.352156,2.48376 6.776093,2.48303 2.861379,-6e-4 2.969677,0.0188 2.818407,0.50428 -0.669786,2.14972 -0.352447,5.2629 0.687583,6.74535 0.582993,0.831 0.865307,0.87329 1.090622,0.16338 z M 173.41399,152.66 c 0.72786,-1.38153 0.83594,-3.55308 0.28778,-5.78187 l -0.15572,-0.63314 2.85444,0.003 c 3.41296,0.003 4.8244,-0.55285 7.0042,-2.76006 l 1.30444,-1.32085 -1.34034,-1.21146 c -2.51346,-2.27179 -5.89667,-3.12486 -9.1278,-2.30155 -0.71432,0.18201 -0.72437,0.17021 -0.55167,-0.64745 0.59993,-2.84033 0.40288,-4.66953 -0.67429,-6.25934 -0.77724,-1.14713 -0.98561,-1.15033 -1.62819,-0.025 -0.81842,1.43327 -2.82122,3.53374 -5.84403,6.12904 -6.17131,5.29851 -6.12548,4.28343 -0.40766,9.02871 3.46292,2.87392 5.59125,4.96871 6.35255,6.25244 0.7847,1.32318 1.00938,1.2681 1.92629,-0.47226 z M 57.222808,137.42571 c 5.591752,-11.38897 2.046447,-22.81399 -8.239373,-26.55202 -2.105806,-0.76529 -8.413735,-1.02321 -9.066239,-0.3707 -0.45213,0.45213 0.02427,2.75711 0.540138,2.61335 13.424686,-3.74116 21.877502,12.69134 13.140198,25.54489 l -0.497069,0.73125 0.798901,1.08614 0.798901,1.08615 0.581398,-0.68276 c 0.319769,-0.37553 1.194185,-1.93086 1.943145,-3.4563 z M 163.76243,124.77988 c 5.63171,-2.22188 10.34065,-7.45375 8.10388,-9.00383 -1.23149,-0.85343 -1.0774,-0.916 -2.26452,0.91962 -7.23738,11.19101 -22.77262,6.65928 -26.06481,-7.60327 l -0.29846,-1.29302 h -1.34346 c -1.56374,0 -1.53105,-0.12195 -0.68925,2.57141 3.63203,11.62065 13.55606,17.96008 22.55662,14.40909 z m -109.608904,0.31493 c 1.824571,-0.42928 1.904858,-0.52231 1.619182,-1.87619 -0.202988,-0.96201 -0.298129,-1.0772 -0.778907,-0.9431 -12.028651,3.3551 -21.209452,-10.14215 -13.507232,-19.8578 l 0.968256,-1.22137 -1.219066,-0.96362 c -4.999238,-3.951666 -5.658926,-7.637286 -3.430107,-19.163707 0.484983,-2.508105 0.881787,-5.000183 0.881787,-5.53795 v -0.977758 l 1.449799,-0.149158 c 0.797389,-0.08204 3.662319,-0.558707 6.36651,-1.059267 9.870557,-1.827092 14.214132,-0.865485 17.74292,3.928034 l 1.101145,1.4958 1.35691,-1.027659 c 5.254236,-3.979308 11.023342,-3.719242 15.60444,0.703436 8.372051,8.082534 3.772691,20.302509 -9.204751,24.455979 l -1.764973,0.56488 -0.200141,1.18944 c -0.566946,3.36934 9.952154,-1.6173 14.216199,-6.739271 C 95.903994,85.244665 81.948584,66.17573 67.623196,73.685778 l -1.699132,0.890765 -1.57271,-1.456051 c -4.371399,-4.047145 -8.832133,-4.667776 -18.878062,-2.626542 -4.486305,0.911573 -5.457351,1.031694 -7.565224,0.935837 l -2.418275,-0.109973 0.225556,1.157364 c 0.307046,1.575505 0.07035,3.595724 -1.076369,9.186874 -1.976717,9.638033 -1.414608,14.194509 2.270633,18.405838 1.512915,1.72889 1.474184,1.39018 0.40786,3.56696 -5.448896,11.12333 4.868868,24.27357 16.836053,21.45796 z m 8.786102,-4.87759 c 6.184644,-6.36312 7.51116,-11.72639 6.660496,-26.929212 -0.256623,-4.586306 -0.14345,-5.583386 0.754928,-6.651048 0.715438,-0.850249 0.631652,-1.19376 -0.569783,-2.336027 -2.339537,-2.224318 -6.011946,-2.33351 -9.652598,-0.287 l -1.215169,0.68308 -0.819557,-0.689611 c -2.071418,-1.742984 -4.774763,-2.474393 -9.324946,-2.52293 l -3.151738,-0.03362 -0.07737,1.891043 c -0.184159,4.501089 0.623971,8.225539 2.287065,10.540444 l 0.872661,1.214681 -0.506322,0.615017 c -3.068995,3.727832 -1.49359,12.996604 1.79568,10.564744 1.394753,-1.03119 2.348896,-1.04989 11.958995,-0.23447 4.233225,0.3592 4.218621,0.36356 4.218621,-1.26069 v -1.26861 h -1.01801 c -0.559906,0 -2.914254,-0.23678 -5.231885,-0.52618 -4.861213,-0.60701 -8.292248,-0.56785 -9.576357,0.10931 -2.385501,1.25795 -1.49954,-4.494077 1.054868,-6.848648 1.391104,-1.282275 1.408196,-0.949248 -0.130657,-2.54578 -2.027882,-2.103893 -2.994499,-4.773101 -2.998368,-8.279671 l -0.0015,-1.32373 1.323729,0.0044 c 3.456896,0.01143 6.127828,1.117241 8.215294,3.401263 l 1.233094,1.3492 1.106521,-1.146302 c 2.66314,-2.758885 8.242852,-3.420743 6.896978,-0.81811 -0.702085,1.357682 -0.750374,4.730797 -0.142582,9.959672 1.162391,10.000138 -0.279479,15.575918 -5.443413,21.049968 l -1.640922,1.73946 0.324653,1.26673 c 0.423268,1.65151 0.556003,1.61889 2.797555,-0.68735 z m 97.598982,1.58362 c 4.93022,-1.04474 10.90685,-6.98311 7.58111,-7.53259 -5.19347,-0.85807 -10.39122,1.59451 -12.5947,5.94286 -0.68206,1.34598 -0.70121,1.31826 1.16347,1.683 1.62441,0.31774 1.94742,0.30992 3.85012,-0.0933 z M 53.64665,121.43092 c 5.096845,-1.1829 -5.214879,-8.19423 -10.990193,-7.47265 -2.106114,0.26314 -2.174336,0.3816 -1.176076,2.04211 2.494192,4.14886 7.691982,6.46894 12.166269,5.43054 z m 99.93323,-6.8051 c 3.48455,-3.85056 8.28661,-5.74961 13.94884,-5.51632 3.18152,0.13108 3.0972,0.20879 2.29706,-2.11687 -0.53197,-1.54618 -1.41669,-3.05038 -2.77119,-4.71154 l -0.90171,-1.10585 0.8779,-0.65912 c 6.00517,-4.508663 6.64777,-7.306143 4.29254,-18.68706 -0.55962,-2.704191 -1.0179,-5.157346 -1.0184,-5.451456 -8.1e-4,-0.468255 -0.19536,-0.556742 -1.56468,-0.711664 -0.86007,-0.09731 -3.21442,-0.51639 -5.23189,-0.931298 -9.40431,-1.934073 -14.1909,-0.674912 -17.28363,4.546633 -0.92524,1.562122 -0.79201,1.561384 -2.70922,0.01501 -4.25409,-3.431245 -6.91712,-3.829853 -6.4706,-0.968534 1.00151,6.417813 -2.16668,13.800132 -7.34984,17.126159 -2.01106,1.290493 1.18354,4.259455 6.89725,6.410092 2.65183,0.99814 2.6992,0.97727 2.69531,-1.18755 -0.002,-1.005404 0.13334,-3.942982 0.30033,-6.527951 0.3469,-5.369773 0.17442,-6.644442 -0.93678,-6.923337 -1.74491,-0.437944 0.49348,-3.832483 3.30321,-5.009361 2.34328,-0.981501 5.9481,-0.660107 8.14398,0.726093 l 0.98499,0.621797 1.04651,-0.769611 c 2.15227,-1.582799 6.4352,-2.468823 11.96721,-2.475698 l 1.73545,-0.0022 -0.13546,4.601537 c -0.15037,5.108376 -0.49011,6.870552 -1.70465,8.841618 -0.88664,1.438923 -0.88516,1.4244 -0.25392,2.494282 2.17293,3.682834 1.3326,9.190237 -1.7472,11.450977 -1.37494,1.00927 -1.95638,1.06446 -2.27885,0.21629 -0.4969,-1.30696 -1.817,-1.36654 -10.52508,-0.47499 -5.31836,0.5445 -5.0224,0.28693 -3.84319,3.34473 0.95633,2.47986 2.26596,4.6415 4.00545,6.6113 l 1.35992,1.53998 0.75424,-1.40561 c 0.41483,-0.77308 1.36707,-2.08282 2.1161,-2.91052 z m -92.941519,2.56573 c 2.232441,-2.50759 5.009809,-7.66561 5.023337,-9.32914 0.0043,-0.53224 -0.100612,-0.56763 -1.697324,-0.57255 -0.936066,-0.003 -3.290414,-0.16971 -5.231885,-0.37074 -6.276409,-0.64989 -7.754388,-0.49068 -8.234671,0.88706 -0.600035,1.72126 -4.182845,-1.32642 -4.994429,-4.24846 -0.615321,-2.21541 0.02014,-6.292895 1.221608,-7.838598 0.46796,-0.602034 0.465423,-0.619152 -0.261607,-1.764973 -1.439312,-2.268399 -1.790446,-3.94951 -1.916947,-9.17769 l -0.114758,-4.74284 3.494387,0.169623 c 5.447376,0.264424 8.58385,1.039387 10.588449,2.616205 l 0.638051,0.501891 0.924584,-0.608988 c 2.726989,-1.796164 6.82554,-1.791415 9.557004,0.01107 2.268397,1.496912 3.48071,4.052577 2.083488,4.392178 -1.266495,0.307828 -1.389835,1.535798 -0.877767,8.739032 l 0.454049,6.387076 0.653102,-0.15458 c 4.640111,-1.09824 11.26654,-5.85348 9.288863,-6.665854 -5.129243,-2.106949 -9.254759,-11.807711 -7.761192,-18.249709 0.45619,-1.967619 -3.654653,-0.690692 -6.860201,2.130944 -1.460877,1.285915 -1.517943,1.278959 -2.543346,-0.310015 -3.445631,-5.339381 -7.524618,-6.401369 -17.1892,-4.475305 -2.080147,0.414554 -4.483771,0.825938 -5.341387,0.914186 l -1.559302,0.160451 -0.160591,1.038469 c -0.08832,0.571158 -0.569939,3.080795 -1.070252,5.576971 -1.984138,9.899305 -1.145829,13.908942 3.643071,17.424825 1.88118,1.381117 1.852382,1.240267 0.568805,2.781877 -3.32567,3.99421 -4.00832,7.0335 -1.486559,6.61845 6.181331,-1.01736 13.224287,2.18197 16.626401,7.55272 1.351685,2.13383 1.207167,2.09928 2.536219,0.60641 z m 113.951999,-6.8486 c 0,-1.60974 -0.78824,-4.7 -1.66244,-6.51754 -0.58225,-1.21055 -0.84145,-2.02864 -0.70193,-2.21549 0.12165,-0.16292 0.763,-0.96437 1.42522,-1.780989 3.71983,-4.587157 4.09341,-8.928511 1.66826,-19.386636 -0.63667,-2.745573 -0.82263,-4.126779 -0.83687,-6.215901 l -0.0183,-2.685955 -2.26925,0.127054 c -1.98644,0.11122 -2.91344,-0.0057 -7.4381,-0.938423 -9.68174,-1.995738 -14.44875,-1.330334 -18.81615,2.626453 l -1.54462,1.399405 -1.73318,-0.885081 c -7.51527,-3.837803 -15.75009,-0.768836 -19.63529,7.317713 -1.8475,3.845334 -2.36845,10.943164 -0.87111,11.868574 0.67921,0.41977 2.31154,-0.414355 2.14335,-1.095249 -3.03211,-12.274497 9.88847,-21.571219 19.42701,-13.978292 l 1.28431,1.022345 0.42862,-0.725603 c 3.04082,-5.14769 8.71782,-6.679892 17.76178,-4.793835 2.12614,0.443393 4.76757,0.909029 5.86985,1.034746 2.47486,0.282264 2.49318,0.29388 2.49318,1.580666 0,0.577415 0.47697,3.322186 1.05993,6.099491 2.08145,9.916316 1.26165,14.322442 -3.33706,17.935397 l -1.47995,1.16271 0.96767,1.29636 c 1.35402,1.81393 1.97459,3.14406 2.49418,5.34604 0.44815,1.89922 0.45118,1.9037 1.69582,2.49956 1.60821,0.76993 1.62508,0.76892 1.62508,-0.0975 z m -12.68464,-4.11944 c 2.14172,-2.25685 2.46478,-6.273473 0.75359,-9.369632 l -0.96301,-1.742425 0.49182,-0.665215 c 1.7732,-2.398379 2.31668,-4.592265 2.31668,-9.351782 v -3.517535 h -2.28399 c -4.36219,0 -7.59089,0.80412 -9.70346,2.41668 -1.15744,0.883493 -1.73017,1.055718 -2.00923,0.604193 -1.49692,-2.422069 -8.06361,-2.223727 -10.35518,0.312771 l -0.90715,1.004107 0.67045,0.699806 c 0.92138,0.961713 1.13763,2.817026 0.83818,7.191184 -0.13292,1.941471 -0.26129,4.778035 -0.28528,6.303478 l -0.0436,2.77353 1.16499,0.0755 c 1.31878,0.0855 1.47258,-0.13975 1.47902,-2.16615 0.002,-0.59514 0.18543,-2.574723 0.40785,-4.399064 0.49739,-4.079751 0.39597,-8.275658 -0.22839,-9.448429 -1.31294,-2.466179 4.41549,-1.601802 6.83275,1.031011 l 1.0835,1.180118 1.28235,-1.403092 c 2.56018,-2.801238 8.9444,-4.723374 9.41561,-2.834811 0.60024,2.4057 -0.82142,6.818974 -2.91491,9.048824 -1.49576,1.593181 -1.47846,1.258158 -0.12917,2.501891 1.51741,1.398702 2.23133,2.939355 2.25946,4.875922 0.034,2.34156 -0.0942,2.51475 -1.41668,1.91452 -1.52491,-0.69209 -4.84892,-0.64926 -10.1158,0.13035 -9.8574,1.4591 -15.39009,0.10161 -20.90353,-5.128876 l -1.44525,-1.371078 -1.14567,0.320768 c -4.28075,1.198534 6.88819,8.467996 14.33898,9.332736 2.60355,0.30217 4.52414,0.22387 10.37259,-0.42287 6.32147,-0.69904 9.70735,-0.46279 9.70735,0.67735 0,0.49535 0.67765,0.22442 1.43514,-0.57379 z m -12.52926,-4.00494 c 3.7025,-0.55704 8.62787,-0.75746 9.89646,-0.40269 1.98488,0.55508 0.0604,-3.836787 -2.37186,-5.412842 -1.49949,-0.971633 -1.55246,-0.708542 0.53106,-2.637565 2.33718,-2.163865 3.09397,-3.691846 3.1346,-6.328793 l 0.0299,-1.942149 -1.00856,0.07135 c -3.00134,0.212317 -5.32314,1.492516 -7.10153,3.915659 -1.43207,1.951258 -1.39014,1.942986 -2.30574,0.454955 -1.1765,-1.912051 -3.28774,-3.275001 -5.12066,-3.305723 l -0.66028,-0.01107 0.34117,1.449799 c 0.46492,1.97567 0.43447,3.736055 -0.15155,8.761831 -0.71398,6.123079 -0.70836,6.232409 0.31149,6.068769 0.4507,-0.0723 2.46466,-0.37901 4.47547,-0.68153 z m -83.20587,-0.79232 c 0,-0.59301 -0.111953,-1.982927 -0.248784,-3.0887 -0.736876,-5.95493 -0.770752,-9.829587 -0.101194,-11.574426 0.168535,-0.439197 0.08736,-0.462706 -1.057466,-0.306234 -2.051108,0.28034 -3.680584,1.53323 -5.329197,4.097569 -0.29181,0.453896 -0.320841,0.455411 -0.583199,0.03043 -1.882911,-3.050022 -4.675167,-4.921977 -7.704448,-5.165139 l -1.688,-0.135496 0.122509,1.90894 c 0.170485,2.656527 0.98682,4.234781 3.296428,6.373124 1.591637,1.473612 1.758062,1.710222 1.382725,1.965849 -2.043705,1.391889 -2.570827,1.88631 -3.222539,3.02262 -0.878554,1.53183 -1.064731,3.37325 -0.310349,3.06958 1.120657,-0.45111 4.674611,-0.36767 9.013969,0.21163 2.496176,0.33323 4.963987,0.61996 5.484024,0.63717 l 0.945521,0.0313 z m 57.42573,-4.75832 c 8.37468,-1.586718 15.10284,-12.7271 12.04546,-19.944685 -0.34198,-0.807301 -3.09313,-0.278094 -2.77777,0.534328 4.62591,11.917332 -9.23807,21.189732 -22.25965,14.887528 l -2.59016,-1.253587 -1.00501,0.807647 -1.00501,0.807647 0.69557,0.473832 c 4.84561,3.300916 11.39372,4.729892 16.89657,3.68729 z M 95.983672,96.097823 c 6.498308,-1.648432 9.821928,-4.133205 16.885438,-12.623718 3.84642,-4.623507 5.05892,-5.679269 6.52241,-5.679269 1.07962,0 1.15303,-0.183771 1.00721,-2.52139 -0.16701,-2.677302 -4.11094,-6.538433 -6.69994,-6.559276 -0.83367,-0.0067 -1.03962,-0.302217 -1.3588,-1.949613 -0.5692,-2.937855 -1.70919,-4.858484 -4.93917,-8.32139 -2.36345,-2.533877 -2.08652,-2.535643 -4.59311,0.0293 -3.185492,3.259639 -5.119745,6.757552 -5.119745,9.258568 0,0.585659 -0.133306,0.754569 -0.693382,0.878573 -4.637211,1.026702 -7.297966,3.910916 -7.077966,7.672398 0.06876,1.175609 0.150607,1.374952 0.537541,1.309189 1.488222,-0.25294 3.387389,1.393201 7.94366,6.885328 1.380552,1.664118 2.835132,3.398563 3.232402,3.854323 l 0.72232,0.828654 0.94552,-0.67982 c 0.93824,-0.674586 1.17672,-1.183045 0.69463,-1.480995 -0.13799,-0.08528 -1.46957,-1.765552 -2.95906,-3.733931 -3.250022,-4.294926 -6.139334,-7.288138 -7.453963,-7.722005 -2.584079,-0.852823 1.287844,-4.144511 4.900347,-4.165995 l 1.926676,-0.01146 0.095,-2.535988 c 0.12048,-3.215563 0.92338,-5.022883 3.24191,-7.297433 l 1.54208,-1.512834 0.55054,0.658914 c 0.30279,0.362403 0.97294,1.164568 1.48921,1.782589 1.71746,2.055948 2.32936,3.766736 2.33457,6.527169 l 0.005,2.413057 1.89104,-0.0047 c 3.80138,-0.0094 7.79004,3.39946 5.11115,4.368161 -1.39693,0.505135 -3.58117,2.724266 -6.71397,6.821218 -6.32167,8.267239 -10.917739,11.156174 -18.345525,11.531393 l -2.676824,0.135222 -0.537948,1.10726 c -0.295872,0.608993 -0.537949,1.160956 -0.537949,1.226585 0,0.424268 5.93795,0.06772 8.129128,-0.488114 z M 83.570945,94.120836 c 0.708368,-1.161809 0.678764,-1.226311 -1.099408,-2.395392 -4.23102,-2.781735 -6.537987,-9.004468 -5.104314,-13.7682 0.412594,-1.370945 0.228548,-1.581822 -1.502335,-1.72135 l -0.991949,-0.07996 -0.325666,1.512834 c -1.254777,5.828891 1.612501,12.959493 6.532137,16.244699 1.851837,1.23661 1.863409,1.237573 2.491535,0.207371 z M 120.87577,93.23835 c -0.005,-0.104008 -0.17336,-0.86988 -0.37427,-1.701939 -1.40768,-5.829887 1.4617,-13.313042 6.67549,-17.409229 l 1.55622,-1.222636 -0.58338,-0.444781 c -1.90456,-1.452051 -4.84728,-2.481238 -7.09454,-2.481238 h -1.23635 l 0.21773,-1.19766 c 1.23245,-6.779161 -0.77373,-10.628273 -8.23981,-15.809146 -1.58879,-1.102495 -3.71683,-2.620072 -4.72897,-3.372394 l -1.84026,-1.367857 -0.93327,0.678827 c -0.5133,0.373355 -2.57621,1.829587 -4.584259,3.236072 -8.02867,5.62348 -10.367153,9.149855 -9.635951,14.530784 0.161939,1.191712 0.324454,2.393504 0.361144,2.67065 0.06029,0.455397 -0.127451,0.520535 -1.950402,0.676711 -2.333717,0.199934 -3.773521,0.661809 -5.483351,1.759003 -1.448189,0.929301 -1.469823,0.820267 0.483843,2.438571 5.547869,4.595533 7.598761,10.533025 6.234073,18.048127 l -0.17904,0.985942 1.993627,-0.159218 c 2.587164,-0.206621 5.257233,-0.960508 7.885829,-2.226541 l 2.110117,-1.016314 -0.87374,-0.923809 C 100.1757,88.42218 98.353879,86.290249 96.607768,84.192652 92.409339,79.14909 91.139151,78.14103 90.184909,79.095273 c -0.772843,0.772842 -1.744324,-1.71565 -1.494209,-3.827482 0.400202,-3.379077 2.935459,-6.215864 6.63726,-7.426662 1.27729,-0.417781 1.293384,-0.436018 1.454133,-1.647802 0.326919,-2.464435 1.954083,-5.085356 5.277267,-8.500242 l 3.03397,-3.117695 2.23952,2.217545 c 3.77932,3.742242 5.1926,5.866283 5.948,8.939345 l 0.43387,1.76506 1.25602,0.425206 c 4.28099,1.449257 6.83661,4.779316 6.62421,8.631547 -0.12396,2.248169 -0.72305,3.220501 -1.62154,2.631788 -1.18177,-0.774326 -1.85852,-0.19003 -7.23743,6.248693 -4.43166,5.304837 -4.49463,4.94963 1.21746,6.867114 2.60933,0.875924 6.94733,1.462899 6.92233,0.936662 z m 7.96498,-3.45973 c 2.84636,-2.831975 4.26335,-8.554394 2.95811,-11.946088 -0.55258,-1.435872 -4.81677,3.032411 -6.13837,6.432147 -0.6506,1.673651 -0.82526,5.955676 -0.29388,7.20476 l 0.29331,0.689444 0.95326,-0.556193 c 0.52429,-0.305907 1.5267,-1.126738 2.22757,-1.82407 z m -43.9004,1.655337 c 0.86009,-1.391654 0.477427,-5.994035 -0.703292,-8.458667 -1.29603,-2.705331 -4.789986,-6.202981 -5.49358,-5.499387 -1.058329,1.058329 -0.749979,6.06616 0.539935,8.768931 1.324848,2.77597 5.041365,6.18514 5.656937,5.189123 z m 23.7083,-9.100619 c 3.30906,-4.354764 4.65851,-5.843216 6.20757,-6.846968 1.47007,-0.952576 1.45916,-1.107175 -0.1485,-2.103967 -1.28376,-0.795968 -3.69429,-1.039742 -5.54743,-0.561005 l -0.75642,0.195412 v -3.22108 c 0,-4.114083 -2.11589,-8.651363 -3.60402,-7.728391 -2.38064,1.476531 -3.45338,5.1083 -3.00706,10.180439 0.0393,0.44698 -0.0545,0.605525 -0.32274,0.545019 -3.047891,-0.68764 -4.938242,-0.423812 -6.533667,0.911874 l -0.86054,0.720442 0.889859,0.549963 c 1.079054,0.666892 4.195289,3.91189 5.740348,5.977542 0.61988,0.828734 1.85838,2.443444 2.75223,3.588244 1.94098,2.485907 1.4726,2.685116 5.19037,-2.207524 z M 81.861128,71.237224 c 1.453398,-1.105274 3.385245,-1.929382 5.050505,-2.1545 2.357727,-0.318728 2.166087,-0.03568 2.015943,-2.977521 -0.307829,-6.031453 1.796671,-9.097019 10.347045,-15.072249 2.247559,-1.570654 4.510469,-3.238305 5.028679,-3.70589 l 0.94221,-0.850155 1.22469,1.097936 c 0.67358,0.603865 2.85923,2.228575 4.85699,3.610466 8.636,5.973687 11.61667,11.135916 9.91941,17.179392 -0.13597,0.484132 -0.0201,0.542796 1.35618,0.686646 1.99338,0.208349 3.93768,0.960741 5.73347,2.218694 l 1.46858,1.028747 1.46523,-0.443635 c 1.76958,-0.535785 1.77419,-0.566917 0.26757,-1.806484 -1.9971,-1.643104 -2.79996,-2.123888 -4.94246,-2.95976 l -2.0544,-0.8015 -0.15715,-2.50384 c -0.37248,-5.934766 -3.10945,-9.478315 -11.99505,-15.530004 -3.7069,-2.524642 -6.03217,-4.525744 -6.8375,-5.884261 l -0.29893,-0.504278 -0.28628,0.504278 c -0.63008,1.109899 -3.28223,3.395802 -6.269339,5.403588 -9.559848,6.42565 -12.355807,10.0227 -12.785021,16.448152 l -0.145949,2.184898 -0.793828,0.148923 c -1.27709,0.239584 -4.20075,1.754595 -5.549166,2.875521 -1.845414,1.534078 -1.864264,1.664637 -0.325558,2.254881 0.725694,0.278375 1.345508,0.51882 1.377364,0.534323 0.03186,0.0155 0.6559,-0.426563 1.386765,-0.982368 z"
       id="path6" /></g></svg>
