<?xml version="1.0" encoding="UTF-8" standalone="no"?>
<!-- Created with Inkscape (http://www.inkscape.org/) -->

<svg
   width="1000mm"
   height="1000mm"
   viewBox="0 0 1000 1000"
   version="1.1"
   id="svg1"
   sodipodi:docname="NameBanner.svg"
   xml:space="preserve"
   inkscape:version="1.4.2 (2aeb623e1d, 2025-05-12)"
   xmlns:inkscape="http://www.inkscape.org/namespaces/inkscape"
   xmlns:sodipodi="http://sodipodi.sourceforge.net/DTD/sodipodi-0.dtd"
   xmlns="http://www.w3.org/2000/svg"
   xmlns:svg="http://www.w3.org/2000/svg"><sodipodi:namedview
     id="namedview1"
     pagecolor="#ffffff"
     bordercolor="#000000"
     borderopacity="0.25"
     inkscape:showpageshadow="2"
     inkscape:pageopacity="0.0"
     inkscape:pagecheckerboard="0"
     inkscape:deskcolor="#d1d1d1"
     inkscape:document-units="mm"
     inkscape:zoom="1.1109013"
     inkscape:cx="139.52635"
     inkscape:cy="256.99853"
     inkscape:window-width="1920"
     inkscape:window-height="940"
     inkscape:window-x="0"
     inkscape:window-y="0"
     inkscape:window-maximized="1"
     inkscape:current-layer="svg1"
     showguides="false"
     showgrid="false" /><defs
     id="defs1"><inkscape:perspective
       sodipodi:type="inkscape:persp3d"
       inkscape:vp_x="0 : 500 : 1"
       inkscape:vp_y="0 : 1000 : 0"
       inkscape:vp_z="1000 : 500 : 1"
       inkscape:persp3d-origin="500 : 333.33333 : 1"
       id="perspective54" /><clipPath
       clipPathUnits="userSpaceOnUse"
       id="cp1"><path
         d="m 275.5,535.5 c -143.78,0 -260,-116.22 -260,-260 0,-143.78 116.22,-260 260,-260 143.78,0 260,116.22 260,260 0,143.78 -116.22,260 -260,260 z"
         id="path1" /></clipPath><clipPath
       clipPathUnits="userSpaceOnUse"
       id="cp1-0"><path
         d="m 275.5,535.5 c -143.78,0 -260,-116.22 -260,-260 0,-143.78 116.22,-260 260,-260 143.78,0 260,116.22 260,260 0,143.78 -116.22,260 -260,260 z"
         id="path1-5" /></clipPath><clipPath
       clipPathUnits="userSpaceOnUse"
       id="cp1-3"><path
         d="m 275.5,535.5 c -143.78,0 -260,-116.22 -260,-260 0,-143.78 116.22,-260 260,-260 143.78,0 260,116.22 260,260 0,143.78 -116.22,260 -260,260 z"
         id="path1-6" /></clipPath><clipPath
       clipPathUnits="userSpaceOnUse"
       id="cp1-06"><path
         d="m 275.5,535.5 c -143.78,0 -260,-116.22 -260,-260 0,-143.78 116.22,-260 260,-260 143.78,0 260,116.22 260,260 0,143.78 -116.22,260 -260,260 z"
         id="path1-5-1" /></clipPath><clipPath
       clipPathUnits="userSpaceOnUse"
       id="cp1-37"><path
         d="m 275.5,535.5 c -143.78,0 -260,-116.22 -260,-260 0,-143.78 116.22,-260 260,-260 143.78,0 260,116.22 260,260 0,143.78 -116.22,260 -260,260 z"
         id="path1-5-4" /></clipPath></defs><path
     style="display:inline;fill:#463929;fill-opacity:1;stroke:none;stroke-width:0.535286"
     d="M 0,14.203643 5.6234082,14.71725 C 5.1247095,11.184177 4.8212605,3.4223121 5.8577331,0 c 2.3194417,2.6286941 4.0507098,6.0108793 6.7949739,7.8947288 2.253074,1.5466125 5.564499,1.3429208 7.495738,3.6434142 0.934038,1.112666 0.83577,3.010176 0.537764,4.555942 -0.154188,0.799684 -0.752614,2.073325 -0.05832,2.602404 2.736893,2.085866 6.688391,2.685374 9.715238,3.267062 7.717796,1.483126 15.719993,1.835154 23.430953,-0.0049 2.290902,-0.547005 4.544462,-1.1996 6.794964,-2.032624 0.890084,-0.329447 2.136266,-0.552214 2.906827,-1.310097 0.548368,-0.5394 -0.02736,-1.821454 -0.162066,-2.52067 -0.304919,-1.581364 -0.423469,-3.410871 0.537735,-4.555932 1.95423,-2.3278742 5.333222,-2.1376976 7.612906,-3.7171439 2.69222,-1.8652905 4.389768,-5.2637075 6.677817,-7.82100869 1.036448,3.42237329 0.733038,7.25339319 0.23431,10.78651459 L 84,10.273957 c -0.455875,4.923335 -4.105403,13.723114 -7.029289,15.744579 1.153991,4.057204 -1.223387,6.817948 -3.397492,8.959647 C 68.92159,39.560455 63.110673,42.36248 57.640197,43.961703 45.721127,47.446128 32.493692,47.264286 20.853591,41.829078 16.600982,39.843329 11.87832,37.372056 8.5523478,32.851732 7.7543968,31.767285 6.7950425,30.402893 6.5992086,28.757922 6.5018077,27.939795 7.0709061,26.535073 6.7422183,25.937805 6.204347,24.9603 5.1275333,24.281766 4.45192,23.483757 2.5285668,21.211842 0.34641916,17.960855 3.8948665e-5,14.204783 M 76.619239,27.90185 74.158978,30.127649 v -0.171491 c 0.272212,-0.203059 2.150814,-2.231885 1.046999,-2.377572 -0.545243,-0.07206 -1.354489,1.036784 -1.867073,1.350272 0.238804,-0.304851 1.688542,-1.743605 1.317819,-2.271447 -0.321473,-0.457764 -1.688805,1.129258 -2.020754,1.415423 0.334442,-0.60423 1.381645,-1.38407 1.381645,-2.216286 0,-1.33443 -1.854258,0.490539 -2.20171,0.675351 v -0.17119 c 0.279886,-0.208833 2.10244,-2.276442 0.93026,-2.368458 -0.5283,-0.04148 -1.257389,1.030358 -1.750353,1.341168 0.203594,-0.274053 1.847491,-2.117678 1.132043,-2.491702 -0.492408,-0.257451 -1.504051,1.154633 -1.952117,1.464411 l 1.640158,-2.22577 v -0.171189 c -0.794076,-0.705516 -1.694043,0.887212 -2.460261,1.369708 v -0.171199 c 0.744913,-0.5646 1.845709,-1.730781 1.523019,-3.081833 h -0.234315 l -1.874472,2.225771 2.108787,-3.937905 c -0.855117,0.582779 -1.516242,-2.159061 -2.343103,-1.440156 -1.482259,1.288684 -3.174014,2.183988 -4.803334,2.987489 -7.339661,3.619597 -15.396154,4.729848 -23.079489,4.454734 -7.367813,-0.26379 -14.833892,-1.376835 -21.790804,-5.211701 -1.240164,-0.683647 -3.041527,-1.475904 -4.164106,-2.519017 -0.730901,-0.679128 -0.974953,0.92888 -1.57645,1.728651 0.394092,1.430049 1.164993,2.879991 2.108798,3.595468 v 0.171199 l -1.874483,-2.054571 h -0.234315 c -0.317266,1.331021 0.785234,2.522529 1.523019,3.081852 v 0.171179 c -0.557326,-0.341336 -1.414742,-1.689204 -1.973752,-1.677354 -0.931828,0.02016 0.987592,2.481118 1.153649,2.704644 -0.425553,-0.331053 -1.473798,-1.71451 -1.952117,-1.464411 -0.715467,0.374024 0.928459,2.217649 1.132053,2.491702 -0.83205,-0.524639 -1.500127,-1.858737 -2.343103,-0.856082 v 0.171218 l 1.52299,1.712135 v 0.171179 c -0.539224,-0.231812 -1.322687,-1.347283 -1.865777,-1.214604 -1.1016825,0.269135 0.870405,2.363765 1.162851,2.584302 v 0.171199 c -0.451288,-0.284199 -1.6101959,-1.772807 -2.064649,-1.489144 -0.575447,0.359175 1.041439,2.085857 1.244585,2.345207 -0.551201,-0.33716 -1.1761911,-1.228149 -1.754978,-1.342103 -0.8918368,-0.175571 -0.1329415,1.270554 0.1148791,1.578949 0.2503231,0.311599 0.4868388,0.600297 0.702926,0.961643 l -2.3431127,-2.22577 c 0.146262,2.432694 1.6923,4.090675 2.9288906,5.456643 3.222087,3.559178 7.387481,5.907403 11.246855,7.531426 13.578031,5.713594 29.335405,5.92084 42.761467,-0.890853 3.355895,-1.702573 6.752267,-3.76177 9.606688,-6.896874 1.172433,-1.287672 2.557438,-2.919255 2.694566,-5.200342 M 16.987538,37.831689 C 14.0915,35.946866 10.47092,34.278344 8.5523575,30.29839 l 3.1631765,2.876295 5.389132,4.485873 -0.117157,0.17118 m 49.907913,0 v -0.17118 l 8.552309,-7.362168 c -1.827121,3.788132 -5.630166,6.141439 -8.552309,7.533396 M 22.845231,21.573587 v -0.171179 l 14.644358,3.595497 c -1.087992,0.667172 -2.829085,0.130956 -3.983251,0.01597 -3.73101,-0.373712 -7.131462,-1.694539 -10.661107,-3.439556 m 23.54813,3.595458 v -0.171189 l 8.55228,-1.613575 6.209206,-1.981922 c -0.960854,1.061662 -2.484068,1.456466 -3.631798,1.933022 -3.647688,1.514752 -7.362563,1.833674 -11.129688,1.833674 M 8.3180424,27.730914 8.5523673,27.217278 C 8.0109321,26.299005 7.6081445,27.201309 8.3180424,27.730914 M 75.447731,27.046079 v 0.171189 l 0.234325,0.513617 c 0.646655,-0.48198 0.431931,-1.319825 -0.234325,-0.684835 m -63.185455,-0.399496 0.07819,-0.05706 -0.07819,0.05706 m 59.43651,0.05696 0.117148,-0.171189 -0.117148,0.171189 M 8.6695346,25.333818 v 1.027252 c 0.4067506,-0.338172 0.4067506,-0.689061 0,-1.027252 M 75.213406,26.36107 75.564879,25.847454 V 25.67608 c -0.482428,-0.277539 -0.724835,0.09862 -0.351473,0.684844 m -62.209148,-0.856053 0.117148,-0.171179 -0.117148,0.171179 m 57.874425,0 0.117157,-0.171179 -0.117157,0.171179 M 19.91636,12.842173 C 17.844243,10.698624 14.959189,10.760387 12.652785,9.2703177 10.142719,7.6487388 8.5056289,4.8127502 6.3264413,2.5693655 6.9865823,5.4782076 9.1187588,6.6413316 10.42684,8.7330501 8.8630413,7.3852705 7.3297784,6.0883287 6.209274,3.9390537 H 6.0921164 c -0.081111,2.7574779 0.010711,9.0160803 0.7029455,11.6354073 l -5.2719744,0.342466 c 0.5731588,1.188265 1.4519576,2.261866 2.3431128,2.910653 v 0.17117 l -1.99164,-1.540936 c 0.8957803,2.628061 2.781772,4.942985 4.451881,6.496881 0.458903,0.426935 1.3088018,1.524606 1.8740345,1.085927 2.2445332,-1.742047 3.2205482,-10.592917 5.6238752,-12.089217 1.30961,-0.815391 2.998191,0.576031 4.334714,0.818671 0.666129,0.120946 1.488753,0.09802 1.757324,-0.927922 m 60.327976,6.38352 c 1.282395,-2.249178 1.295647,-4.841299 2.232664,-7.239573 l -5.271973,-0.342437 c 0.62091,-2.6821994 0.702926,-4.9013775 0.702926,-7.7046103 h -0.117148 c -1.110981,2.131047 -2.665695,3.456509 -4.217546,4.7939964 1.302881,-2.0777457 3.464542,-3.2535085 4.100398,-6.1636846 -2.172021,2.2360331 -3.809939,5.1197533 -6.326373,6.6991314 -2.313171,1.4517921 -5.201721,1.4344601 -7.263566,3.5736761 0.281297,1.074769 1.076259,1.02213 1.757315,0.9047 1.331022,-0.229534 3.031054,-1.596701 4.33303,-0.822674 2.396618,1.42481 3.386742,10.391426 5.625219,12.116433 0.588602,0.453577 1.523448,-0.730745 1.991523,-1.191615 M 9.9582388,24.648779 V 24.4776 L 9.606805,23.963974 H 9.4896377 l -0.1171576,1.198509 0.5857782,-0.513665 m 64.6694187,0.513665 -0.117148,-1.198509 h -0.117148 l -0.351473,0.513626 0.585788,0.684883 M 10.778361,23.27913 V 23.107941 L 9.9582583,23.27913 c 0.3196317,0.432652 0.4640047,0.341395 0.8201027,0 m 63.263547,0.171189 V 23.27913 l -0.820074,-0.171189 c 0.281473,0.480422 0.415349,0.572107 0.820074,0.342407 M 11.012686,21.567005 v 1.027271 c 0.406761,-0.338172 0.406761,-0.68907 0,-1.027271 m 61.857715,1.027271 0.117138,-1.027271 c -0.372281,0.30935 -0.410266,0.567151 -0.117138,1.027271 M 15.230252,22.251849 15.34741,22.08068 15.230252,22.251849 m -3.280334,-0.684912 c 0.588339,-1.31848 -0.664951,-0.991438 0,0 m 60.217537,0 c 0.419818,-1.322054 -0.778584,-0.980484 0,0 m -6.560659,-4.444481 -0.117148,-0.17116 0.117148,0.17116 m -52.836785,3.245962 0.117138,-1.198489 h -0.351473 l 0.234335,1.198489 m 5.389093,-3.930796 -0.117148,-0.17118 0.117148,0.17118 m 53.188248,3.930796 0.234344,-1.027271 -0.46864,-0.171208 0.234296,1.198538 M 3.8662587,19.169939 3.9833968,18.99875 3.8662587,19.169939 m 7.8493533,-9.5808167 6.560659,2.5681487 v 0.342466 c -1.827374,0 -5.453407,-0.389721 -6.560659,-2.9106147 M 65.606786,12.499737 V 12.328538 L 72.40176,9.589132 c -1.560351,2.468274 -4.642836,2.910634 -6.794974,2.910634 z"
     id="path3"
     sodipodi:nodetypes="cccsssssssssssccccsssssssccccscscsccscscccccccccssssscccccccccscccccsccscssccsssscccccccccccccccccccsccccccccccccccccccccccccccccscccccccccssssccccccccscssscccccccccccccccccccccccccccccccccccccccccccccccccccccccccsc"
     inkscape:label="Banner" /><style
     id="style1">
		tspan { white-space:pre } 
		.s0 { fill: none;stroke: #ff0000;stroke-miterlimit:100 } 
	</style><style
     id="style1-9">
		tspan { white-space:pre } 
		.s0 { fill: none;stroke: #ff0000;stroke-miterlimit:100 } 
	</style><style
     id="style1-1">
		tspan { white-space:pre } 
		.s0 { fill: none;stroke: #ff0000;stroke-miterlimit:100 } 
	</style><style
     id="style1-5">
		tspan { white-space:pre } 
		.s0 { fill: none;stroke: #ff0000;stroke-miterlimit:100 } 
	</style><style
     id="style1-52">
		tspan { white-space:pre } 
		.s0 { fill: none;stroke: #ff0000;stroke-miterlimit:100 } 
	</style></svg>
