<?xml version="1.0" encoding="UTF-8" standalone="no"?>
<!-- Created with Inkscape (http://www.inkscape.org/) -->

<svg
   width="500mm"
   height="500mm"
   viewBox="0 0 500 500"
   version="1.1"
   id="svg1"
   inkscape:version="1.4.2 (2aeb623e1d, 2025-05-12)"
   sodipodi:docname="StromNormalLaser.svg"
   xml:space="preserve"
   xmlns:inkscape="http://www.inkscape.org/namespaces/inkscape"
   xmlns:sodipodi="http://sodipodi.sourceforge.net/DTD/sodipodi-0.dtd"
   xmlns="http://www.w3.org/2000/svg"
   xmlns:svg="http://www.w3.org/2000/svg"><sodipodi:namedview
     id="namedview1"
     pagecolor="#ffffff"
     bordercolor="#000000"
     borderopacity="0.25"
     inkscape:showpageshadow="2"
     inkscape:pageopacity="0.0"
     inkscape:pagecheckerboard="0"
     inkscape:deskcolor="#d1d1d1"
     inkscape:document-units="mm"
     inkscape:zoom="2.2714153"
     inkscape:cx="229.37241"
     inkscape:cy="306.19676"
     inkscape:window-width="1920"
     inkscape:window-height="940"
     inkscape:window-x="0"
     inkscape:window-y="0"
     inkscape:window-maximized="1"
     inkscape:current-layer="layer3" /><defs
     id="defs1" /><g
     inkscape:label="Layer 1"
     inkscape:groupmode="layer"
     id="layer1"><path
       id="path1"
       style="display:inline;fill:none;fill-opacity:1;stroke:#000000;stroke-width:0.05;stroke-dasharray:none;stroke-opacity:1"
       inkscape:label="Strom NORMAL 2"
       d="m 88.33621,170.09091 c -1.31898,3.47694 -3.874569,11.51436 -3.948079,15.34428 l -5.587773,-5.72523 4.679301,7.63416 3.001884,6.60321 4.795573,13.67824 c -5.6077,-0.47865 -7.681793,-10.49897 -12.681913,-12.54859 2.2159,3.39985 5.453151,9.96332 7.379911,12.19616 1.12687,1.30589 3.520349,3.77125 4.634859,5.25032 1.1757,1.56027 -2.577012,5.19347 -3.011702,7.08071 -0.49418,2.14558 -2.784661,4.20387 -3.919141,6.04356 -2.34668,3.80537 -4.362351,8.18405 -5.987231,12.40492 h -0.588078 c -1.5907,-3.68996 -6.162557,-6.1036 -5.663737,-10.81432 0.20096,-1.89794 0.544794,-3.08766 1.642794,-4.49947 3.5171,-4.52234 3.96631,-5.39285 6.66781,-9.31778 l 0.923974,-7.62021 c -0.79145,5.5003 -7.637871,14.2844 -11.120251,17.57464 0.27308,-3.73683 1.271444,-7.05115 0.462504,-10.81484 -0.63674,-2.96258 -1.014809,-5.34166 -2.041219,-8.14421 -1.38916,-3.79305 -1.880842,-6.47662 -1.524972,-10.51822 0.40119,-4.55629 7.913815,-10.89279 6.994405,-15.9706 -4.29999,6.55262 -10.361124,12.8643 -10.361124,20.31866 l -5.893697,-6.84971 -4.745964,-4.29587 -2.59519,-11.11973 h -0.294039 l 1.470194,11.45046 -7.352523,-0.13022 -5.882845,-4.00441 c 1.24932,1.9409 3.033911,4.7247 5.294251,5.28237 2.52625,0.62331 4.522021,-0.77823 7.059001,0.52606 5.65612,2.90787 9.774019,8.42647 13.294279,13.91285 2.61867,4.08127 4.215265,10.68504 3.715535,15.58613 -0.39435,3.86753 0.141496,6.90751 0.665076,10.86032 0.82853,6.25478 5.691664,9.75164 7.521504,15.58613 l -0.294038,0.31832 c -4.23007,-2.67015 -11.324925,-3.38373 -14.206885,-7.95352 -2.55828,-4.05658 -1.835907,-10.67062 -1.431437,-15.26728 0.535,-6.08019 0.341365,-11.89594 -2.597775,-17.17622 h -0.294039 c 1.37246,5.44019 1.820348,10.62456 0.588078,16.22227 -2.59528,-0.97279 -4.52307,-2.74307 -6.17585,-5.08909 h -0.294039 c 1.03014,3.75232 5.108726,4.75796 6.293156,7.9809 0.50068,1.36238 -0.0484,3.02538 -0.104903,4.42454 -0.14768,3.64737 -0.0445,8.78414 2.203483,11.74037 4.14381,5.4491 12.532292,5.20769 15.726172,12.11605 1.69288,3.66171 0.294419,9.10985 0.294039,13.04107 H 74.75151 c -2.52407,-5.88857 -9.618378,-11.17421 -15.000118,-13.6772 -4.26331,-1.98285 -10.264791,-3.39684 -11.893331,-8.90592 -1.08717,-3.67773 1.660948,-7.12297 2.973978,-10.17922 1.01499,-2.36255 1.270704,-5.06103 1.272274,-7.63416 h -0.294039 l -6.470923,13.99553 c -2.71493,-5.03061 -6.317368,-15.63823 -2.705778,-20.98115 2.00769,-2.97013 7.41152,-4.70252 7.93595,-8.60051 0.55318,-4.11172 -4.229198,-9.10585 -6.112288,-12.40596 h -0.294039 c 0.5086,3.67245 4.882367,8.13993 4.253487,11.7569 -0.29842,1.71635 -2.767718,2.89761 -3.959448,3.83336 -3.63135,2.85129 -5.580594,5.98612 -8.979814,0.62787 -1.74179,-2.74562 -1.621256,-6.67257 -1.987476,-9.85573 -0.5426,-4.71643 -1.815218,-9.87188 -4.032828,-13.99656 h -0.294039 l 2.352828,13.04158 c -5.69739,-2.56193 -13.308312,-5.26101 -10.273792,-13.67772 0.60326,-1.67327 1.723293,-2.97388 2.626713,-4.45244 -1.68846,0.9473 -3.203389,2.47954 -3.823539,4.45244 h -0.294039 c -0.38366,-1.74612 -1.006885,-3.0526 -2.353345,-4.13463 l 3.148129,13.98158 10.548193,6.54017 1.731677,8.42377 5.446696,7.321 0.596346,9.5374 c -4.3697,-1.60918 -7.200914,-4.95842 -10.587984,-8.1349 -1.47369,-1.38207 -3.670096,-2.88128 -4.406966,-4.90771 -1.50113,-4.12813 0.275738,-10.84293 -3.240112,-13.67617 l 1.176155,13.35991 c -5.09363,-1.79245 -12.7640032,-1.63218 -15.1525632,-7.95249 -1.0023,-2.65216 -0.6969802,-5.79209 -1.0237102,-8.5881 H 5.0456868 c 0,5.1694 -0.8476275,11.04374 3.8230225,14.27096 3.8103097,2.63275 8.8013207,1.79769 12.3532507,4.89738 4.19846,3.66389 8.036309,7.7559 12.058179,11.63288 2.19972,2.12049 5.082661,3.96681 6.936011,6.44353 1.10695,1.47929 1.469309,3.67901 2.255159,5.379 1.18049,2.55375 2.878205,4.7803 4.044715,7.31635 -1.74097,-0.14861 -4.286205,0.181 -5.882845,-0.48007 -4.78768,-1.98234 -8.129527,-8.34085 -9.999907,-13.19816 h -0.294039 c 0.43978,5.44795 3.609001,10.26238 7.059001,13.99604 -4.74647,0.40512 -11.375425,3.69422 -15.533935,-0.40669 -5.72813,-5.64878 -0.529697,-16.08218 -10.054167,-18.67897 v 0.31781 c 6.35765,3.97449 4.552759,11.32917 6.469889,17.81339 -3.70851,-0.31654 -8.039271,0.36031 -11.4701008,-1.37563 -2.692,-1.36209 -4.3976549,-3.81879 -6.76444494,-5.62188 2.68027004,9.08103 10.91804774,7.93924 17.64646774,9.30693 2.67248,0.54322 5.023929,2.10583 7.647079,2.77967 v 0.63614 c -2.25075,1.26116 -3.809207,3.55907 -6.176367,4.6638 -4.9104,2.29162 -10.2849516,-0.13852 -14.9996016,-1.80041 v 0.31781 c 4.50545,3.22373 11.8377966,5.75146 17.0589066,3.0763 4.25694,-2.18115 7.355709,-6.46989 12.058179,-7.91528 10.71266,-3.29276 28.087058,3.15595 33.235698,14.06374 -6.89031,0 -13.750419,0.24775 -20.294369,-2.11408 -4.10282,-1.48078 -7.526306,-3.26508 -8.235156,-8.38347 h -0.294039 c 0,6.39969 2.796057,8.53521 7.941117,11.13317 v 0.63614 c -3.1707,1.09269 -5.633464,3.95376 -8.823234,5.18573 -7.27141,2.80843 -11.387441,-2.30126 -17.647501,-4.86741 4.94083,7.56481 13.504555,10.03705 21.176485,6.40116 3.16483,-1.49988 5.793338,-4.77783 9.411828,-5.09891 9.39378,-0.83354 22.151728,2.50111 23.445598,14.28388 0.49441,4.50242 0.279351,8.86071 0.0956,13.35991 -0.1665,4.07611 -0.508377,8.62688 -1.888257,12.57236 -4.34302,6.80198 -7.303565,11.84456 -14.331425,13.63483 -1.80744,0.46043 -4.217706,2.03432 -5.256526,3.36775 l -0.611333,2.02623 h 15.415597 v 2.47634 h 12.361003 v -2.47634 H 79.45 v -40.00014 h 3.1 v 40.00014 h 0.470772 v 2.47582 h 12.306226 v -2.47582 h 11.238072 l -0.21187,-2.02623 c -0.3399,-0.63767 -1.37467,-1.50511 -3.33727,-2.68252 -7.104532,-4.26223 -8.239343,-6.69095 -13.056563,-14.79393 -0.92967,-6.69187 -4.97363,-28.25129 6.26215,-33.45119 6.120033,-2.83233 13.415383,-1.27324 19.705773,-3.68091 5.80222,-2.22082 8.28129,-8.50587 14.70608,-9.50175 8.85227,-1.37215 18.38754,4.76694 24.70599,-4.90719 l -7.64708,3.75791 -11.17658,-1.53169 v -0.31833 c 6.05423,-2.67185 16.29548,-5.09361 16.47083,-13.99553 h -0.29404 c -1.65166,6.07048 -8.56605,9.49931 -13.82396,10.81485 0.004,-5.09634 2.71668,-6.6672 4.70617,-10.81485 -2.15961,1.46067 -4.58006,3.43833 -5.60173,6.04356 -0.63884,1.629 -0.23899,3.90729 -1.3286,5.28392 -2.65788,3.35803 -8.14605,3.30223 -11.89333,3.62251 1.8634,-5.09151 3.92107,-10.28369 7.94112,-13.84773 4.79838,-4.25407 11.29872,-5.49734 16.47031,-9.14983 4.2281,-2.98614 9.6207,-0.62664 10.88254,-7.22075 h -0.29404 c -1.88783,4.64125 -6.0001,3.58582 -9.70638,5.08962 l 0.88315,-6.04408 h -0.29404 c -1.79883,8.40902 -7.06758,10.02595 -14.118,11.76982 0.8322,-6.67821 6.23556,-11.89252 6.76496,-18.44952 h -0.29404 c -1.03817,4.73801 -4.33621,8.42735 -6.29315,12.72378 -0.85489,1.87693 -1.08092,4.68312 -2.38642,6.23734 -1.87934,2.23731 -4.87641,3.05362 -6.7722,5.53196 -2.47872,3.24039 -4.88468,6.98761 -6.5164,10.81485 -0.97164,2.27899 -1.23499,5.17323 -3.04477,6.89363 -2.9062,2.76269 -7.07872,2.72527 -10.57558,3.92121 l 5.00021,-11.13265 c -3.46157,2.63739 -4.69173,7.25099 -7.94164,10.01334 -2.89388,2.4597 -6.332844,1.40896 -9.705864,2.16473 -2.69133,0.60302 -5.206638,2.19485 -7.941118,2.45308 0.62078,-3.46205 1.136534,-7.22109 2.380734,-10.49652 4.53086,-11.92777 17.538378,-5.42926 25.854748,-9.18549 2.68121,-1.21104 4.83371,-3.41816 6.3345,-6.08283 0.77763,-1.38069 1.24856,-3.49805 2.38177,-4.57905 1.33163,-1.27027 4.56223,-1.119 6.28385,-2.10013 v -0.31833 l -5.88233,1.27228 c 1.17372,-2.94204 2.97967,-5.13748 5.88233,-6.04356 v -0.31833 c -7.31788,0.64727 -8.11208,10.43794 -13.5294,14.31386 -1.40632,-4.79797 1.97676,-8.625 1.17615,-13.35939 H 117.398 l -2.61999,10.1787 -0.4191,4.08244 -6.37274,1.09709 -16.17627,2.13631 c 1.2004,-2.91428 2.031458,-6.29298 4.047298,-8.71058 5.273522,-6.32452 14.069612,-8.2354 20.364132,-13.15631 5.72292,-4.47406 10.90619,-10.67984 18.23506,-11.85044 v -0.31781 c -5.54463,0.26146 -10.2192,3.08854 -14.70504,6.36137 0,0 0.59874,-6.13407 -0.13229,-4.13515 -0.66284,1.81249 -1.14185,4.51593 -2.30994,5.98982 -5.41656,6.83447 -14.80387,5.43558 -21.376991,10.49652 1.39801,-5.6558 1.410224,-10.54369 -0.593246,-16.16853 h -0.294038 c 1.06376,6.19711 0.216332,12.60856 -2.753838,18.13171 -1.10736,2.05916 -2.861316,3.59661 -3.915006,5.72524 -1.04303,2.10703 -1.323003,4.46913 -2.099613,6.67969 -0.90324,2.57098 -1.744125,-1.70598 -1.663465,-5.51697 0.22772,-10.75759 2.408118,-25.49719 12.197188,-30.2147 5.629949,-2.71316 12.121509,-0.26316 17.941029,-2.13165 2.51923,-0.80883 4.93019,-1.96191 7.059,-3.64319 1.22283,-0.96576 1.38322,-0.91262 2.9533,-1.09451 4.68374,-0.54262 9.00826,0.74884 13.22297,1.72135 2.24228,0.51734 4.35151,-0.0441 6.47041,-0.78962 v -0.31781 c -4.07406,0.56903 -5.98071,0.38021 -9.70587,-1.5906 v -0.31781 c 4.72454,-0.41736 6.09384,-3.62294 7.64656,-7.95249 -1.53865,1.37887 -2.00314,3.5847 -3.54139,4.96508 -3.23899,2.90657 -8.91656,1.80008 -12.63488,0.75964 2.90945,-5.98028 5.27677,-12.53341 5.29425,-19.40243 h -0.29404 l -4.11758,13.67771 c -8.04015,-5.93901 -7.07672,-13.43065 -8.82375,-22.58466 h -0.29404 c 0.60906,5.10063 -0.25087,11.11969 1.60765,15.90445 0.86722,2.23273 2.24349,4.20262 3.81166,5.9092 0.72037,0.78394 2.10121,1.77855 2.13733,2.99775 0.0394,1.33185 -1.52013,2.92346 -2.28926,3.81682 -2.96142,3.43969 -6.46439,4.89675 -10.56111,6.04356 1.75241,-3.61719 2.05659,-6.49814 1.76475,-10.49703 h -0.29404 c -0.10128,1.38634 -0.3062,2.78816 -0.63459,4.13463 -2.1704,8.89923 -8.82397,5.42023 -14.953608,6.99854 0.49759,-6.81863 1.903058,-11.29868 4.999178,-17.17673 -5.994296,3.02313 -6.541939,13.65612 -6.926709,15.26832 -0.34539,1.44722 -0.200909,1.1611 -2.531629,2.11511 -0.0312,-4.07326 0.672557,-5.41719 -0.403593,-9.32242 -0.48636,-1.76493 -2.288269,-4.56812 -2.111499,-6.36241 0.19236,-1.95266 3.33694,-4.41634 4.40955,-6.04252 2.35987,-3.5778 3.490962,-7.71006 3.502112,-12.08764 h -0.294039 c -0.60321,4.41733 -2.69174,8.4433 -5.379,11.76879 -0.7098,0.87837 -2.390604,3.20839 -3.675744,2.75746 -1.1582,-0.40636 -1.679241,-2.93267 -2.016931,-4.02921 -1.21495,-3.94499 -1.676065,-8.26993 -1.155485,-12.40596 0.31513,-2.5038 1.814897,-6.17923 1.345137,-8.58811 z m 46.61111,49.93752 0.19585,0.10542 z"
       sodipodi:nodetypes="cccccccssssccsscccssscccccccccsssssccsscccccsccsccssscccssccscsscccscccccccccssccsccssssscccccscccscsccsccsscsccccscsssscsccccccccccccccccscsssccccccccsscssccccccccsssssccsscssssccccccccccccsscccsccccssssssssscccccsccccccsscscccsccscsssccsscscccc" /><path
       id="path1-2"
       style="display:inline;fill:none;fill-opacity:1;stroke:#000000;stroke-width:0.05;stroke-dasharray:none;stroke-opacity:1"
       inkscape:label="Strom NORMAL 1"
       d="M 88.33621,0.09095052 C 87.01723,3.5677085 85.468298,7.0755726 85.394788,10.905278 l -2.060857,-5.548499 1.152385,7.457426 1.995227,11.132137 4.795573,13.677201 c -5.6077,-0.478627 -3.080007,-9.589058 -8.080127,-11.638566 2.2159,3.399662 0.851365,9.05341 2.778125,11.286133 1.12687,1.30581 3.520349,3.770829 4.634859,5.249809 1.1757,1.56019 -2.577012,5.193048 -3.011702,7.080188 -0.49418,2.14546 -2.784661,4.203959 -3.919141,6.043559 -0.38496,0.6242 -0.76227,1.263795 -1.12913,1.915645 v 62.530549 h -3.100028 l 5.6e-5,-56.605846 c -1.343683,0.895388 -1.175949,3.051852 -1.758129,4.564062 h -0.588078 c -1.5907,-3.68975 -6.162557,-6.103867 -5.663737,-10.814327 0.20096,-1.89784 0.581414,-3.058436 1.642794,-4.497916 2.28307,-3.09636 2.103492,-9.627529 1.337902,-14.256494 h -0.294038 c -0.53696,5.469725 -1.014761,11.531024 -4.572331,14.892114 0.27308,-3.73662 1.271444,-7.050847 0.462504,-10.814327 -0.63674,-2.962412 -2.398704,-5.467384 -3.425114,-8.26978 C 65.202641,30.495513 64.83705,25.925318 65.19292,21.883936 65.59411,17.327905 68.074234,9.1045785 64.261194,5.6627035 66.503334,12.844067 63.084005,20.790833 63.084005,28.244788 L 57.190308,21.395593 52.444344,17.099731 49.849154,5.9805135 h -0.294039 l 1.470194,11.4499475 -7.352523,-0.129708 -5.882845,-4.004407 c 1.24932,1.9408 3.033911,4.724205 5.294251,5.281848 2.52625,0.623278 4.522021,-0.778155 7.059001,0.526066 5.65612,2.907704 9.774019,8.426246 13.294279,13.912329 2.61867,4.081045 4.215265,10.684266 3.715535,15.585096 -0.39435,3.86732 0.141496,6.907212 0.665076,10.859802 0.82853,6.25442 5.691664,9.751442 7.521504,15.585612 l -0.294038,0.31781 c -4.23007,-2.67 -11.324925,-3.383453 -14.206885,-7.953003 -2.55828,-4.05634 -1.835907,-10.669852 -1.431437,-15.266252 0.535,-6.07986 0.341365,-11.895706 -2.597775,-17.175696 h -0.294039 c 1.37246,5.43989 1.820348,10.624349 0.588078,16.221749 -2.59528,-0.97273 -4.52307,-2.742678 -6.17585,-5.088578 h -0.294039 c 1.03014,3.75211 5.108726,4.757105 6.293156,7.979875 0.50068,1.3623 -0.0484,3.025456 -0.104903,4.424536 -0.14768,3.64717 -0.0445,8.783782 2.203483,11.739852 4.14381,5.4488 12.532292,5.207033 15.726172,12.115023 1.69288,3.66151 0.294419,9.109547 0.294039,13.040547 H 74.75151 c -2.52407,-5.88825 -9.618378,-11.173834 -15.000118,-13.676684 -4.26331,-1.98273 -10.264791,-3.39662 -11.893331,-8.9054 -1.08717,-3.67752 1.660948,-7.122627 2.973978,-10.178707 1.01499,-2.36242 1.270704,-5.060652 1.272274,-7.633642 H 51.810274 L 45.339351,69.00354 c -2.71493,-5.03033 -6.317368,-15.637495 -2.705778,-20.980115 2.00769,-2.96997 7.41152,-4.702205 7.93595,-8.599992 0.55318,-4.111487 -4.229198,-9.10551 -6.112288,-12.405444 h -0.294039 c 0.5086,3.672253 4.882367,8.139619 4.253487,11.756388 -0.29842,1.716253 -2.767718,2.897151 -3.959448,3.832841 -3.63135,2.85114 -5.580594,5.985819 -8.979814,0.627869 -1.74179,-2.74547 -1.621256,-6.672226 -1.987476,-9.855212 -0.5426,-4.716173 -1.815218,-9.87107 -4.032828,-13.995528 h -0.294039 l 2.352828,13.041581 C 25.818516,29.86414 18.207594,27.164459 21.242114,18.74821 c 0.60326,-1.67317 1.723293,-2.973958 2.626713,-4.452442 -1.68846,0.947253 -3.203389,2.479659 -3.823539,4.452442 h -0.294039 c -0.38366,-1.746015 -1.006885,-3.052659 -2.353345,-4.134632 l 3.148129,13.981059 10.548193,6.540169 1.731677,8.422742 5.446696,7.321 0.596346,9.536886 c -4.3697,-1.60909 -7.200914,-4.958087 -10.587984,-8.134387 -1.47369,-1.38199 -3.670096,-2.881401 -4.406966,-4.907711 -1.50113,-4.1279 0.275738,-10.842562 -3.240112,-13.675651 l 1.176155,13.359391 C 16.716408,45.264736 9.0460348,45.425076 6.6574748,39.105107 5.6551748,36.453103 5.9604946,33.312855 5.6337646,30.517 H 5.0456868 c 0,5.169118 -0.8476275,11.044441 3.8230225,14.271481 3.8103097,2.63261 8.8013207,1.796305 12.3532507,4.895825 4.19846,3.66368 8.036309,7.755595 12.058179,11.632365 2.19972,2.12038 5.082661,3.966954 6.936011,6.443534 1.10695,1.47921 1.469309,3.678573 2.255159,5.378483 1.18049,2.5536 2.878205,4.779923 4.044715,7.315833 -1.74097,-0.1486 -4.286205,0.181999 -5.882845,-0.479041 -4.78768,-1.98222 -8.129527,-8.341121 -9.999907,-13.198161 h -0.294039 c 0.43978,5.44765 3.609001,10.261552 7.059001,13.995012 -4.74647,0.4051 -11.375425,3.693996 -15.533935,-0.406694 -5.72813,-5.64846 -0.529697,-16.081279 -10.054167,-18.677929 v 0.31781 c 6.35765,3.97426 4.552759,11.328996 6.469889,17.812866 -3.70851,-0.31652 -8.039271,0.360213 -11.4701008,-1.375627 -2.692,-1.36202 -4.397655,-3.818889 -6.76444494,-5.621879 2.68026994,9.08053 10.91804774,7.939306 17.64646774,9.306926 2.67248,0.54319 5.023929,2.105358 7.647079,2.779158 v 0.636137 c -2.25075,1.26109 -3.809207,3.558621 -6.176367,4.663281 -4.9104,2.2915 -10.2849516,-0.138607 -14.9996016,-1.800407 V 88.7243 c 4.50545,3.22355 11.8377966,5.751308 17.0589066,3.076298 4.25694,-2.18103 7.355709,-6.469969 12.058179,-7.915279 10.71266,-3.29259 28.087058,3.156034 33.235698,14.063224 -6.89031,0 -13.750419,0.247617 -20.294369,-2.114083 -4.10282,-1.48071 -7.526306,-3.26484 -8.235156,-8.38295 h -0.294039 c 0,6.39933 2.796057,8.53535 7.941117,11.13317 v 0.63562 c -3.1707,1.09263 -5.633464,3.95279 -8.823234,5.1847 -7.27141,2.80828 -11.387441,-2.30036 -17.647501,-4.866373 4.94083,7.564403 13.504555,10.036333 21.176485,6.400643 3.16483,-1.4998 5.793338,-4.77784 9.411828,-5.09891 9.39378,-0.83349 22.151728,2.50124 23.445598,14.28336 0.49441,4.50217 0.279351,8.85992 0.0956,13.35888 -0.1665,4.07588 -0.508377,8.62658 -1.888257,12.57184 -4.34302,6.80161 -7.303565,11.84414 -14.331425,13.63431 -1.81128,0.46138 -4.228064,2.041 -5.263244,3.37602 0,0 -0.535914,1.24741 -0.425814,1.45263 v 0.5736 H 66.62074 v 2.45825 H 78.981742 V 160.091 h 4.039547 v 2.45773 H 95.326998 V 160.091 h 11.417392 l -0.38654,-2.02623 c -0.33508,-0.63845 -1.37035,-1.50858 -3.34192,-2.69131 -7.104531,-4.26198 -8.239343,-6.69035 -13.056563,-14.79289 -0.92967,-6.69151 -4.97363,-28.24901 6.26215,-33.44861 6.120033,-2.83218 13.415383,-1.27337 19.705773,-3.68091 5.80222,-2.2207 8.28129,-8.505906 14.70608,-9.501746 8.85227,-1.37207 18.38754,4.766416 24.70599,-4.907194 l -7.64708,3.758427 -11.17658,-1.531689 v -0.318327 c 6.05423,-2.6717 16.29548,-5.094088 16.47083,-13.995528 h -0.29404 c -1.65166,6.07015 -8.56605,9.499383 -13.82396,10.814843 0.004,-5.09605 2.71668,-6.667413 4.70617,-10.814843 -2.15961,1.46059 -4.58006,3.438468 -5.60173,6.043558 -0.63884,1.6289 -0.23899,3.906849 -1.3286,5.283399 -2.65788,3.35784 -8.14605,3.302775 -11.89333,3.623035 1.8634,-5.09123 3.92107,-10.283377 7.94112,-13.847217 4.79838,-4.25384 11.29872,-5.497549 16.47031,-9.149829 4.2281,-2.98598 9.6207,-0.626481 10.88254,-7.220231 h -0.29404 c -1.88783,4.641 -6.0001,3.585891 -9.70638,5.089611 l 0.88315,-6.043558 h -0.29404 c -1.79883,8.40856 -7.06758,10.02501 -14.118,11.76879 0.8322,-6.67785 6.23556,-11.891846 6.76496,-18.448486 h -0.29404 c -1.03817,4.73775 -4.33621,8.427054 -6.29315,12.723254 -0.85489,1.87682 -1.08092,4.683216 -2.38642,6.237346 -1.87934,2.23719 -4.87641,3.053245 -6.7722,5.531445 -2.47872,3.24022 -4.88468,6.987297 -6.5164,10.814327 -0.97164,2.27886 -1.23499,5.172303 -3.04477,6.892603 -2.9062,2.76254 -7.07872,2.725844 -10.57558,3.92172 l 5.00021,-11.13265 c -3.46157,2.63725 -4.69173,7.251659 -7.94164,10.013859 -2.89388,2.459581 -6.332844,1.407961 -9.705864,2.163691 -2.69133,0.60299 -5.206638,2.19487 -7.941118,2.45308 0.62078,-3.46186 1.136534,-7.220748 2.380734,-10.495998 4.53086,-11.92711 17.538378,-5.42894 25.854748,-9.18497 2.68121,-1.21097 4.83371,-3.417786 6.3345,-6.082316 0.77763,-1.38061 1.24856,-3.498108 2.38177,-4.579048 1.33163,-1.2702 4.56223,-1.118544 6.28385,-2.099614 v -0.318843 l -5.88233,1.27279 c 1.17372,-2.94187 2.97967,-5.137529 5.88233,-6.043559 v -0.318326 c -7.31788,0.64724 -8.11208,10.437638 -13.5294,14.313338 -1.40632,-4.7977 1.97676,-8.624755 1.17615,-13.358875 H 117.398 l -2.61999,10.177674 -0.4191,4.082955 -6.37274,1.09709 -16.17627,2.135787 c 1.2004,-2.91413 2.031458,-6.292592 4.047298,-8.710062 5.273522,-6.32416 14.069612,-8.23462 20.364132,-13.15527 5.72292,-4.47382 10.90619,-10.679899 18.23506,-11.850439 v -0.31781 c -5.54463,0.26144 -10.2192,3.088728 -14.70504,6.361368 l 1.17615,-10.177673 h -0.29404 c -8e-4,2.13629 -0.28337,4.044232 -1.0144,6.043042 -0.66284,1.81239 -1.14185,4.515489 -2.30994,5.989299 -5.41656,6.8341 -15.69115,6.12522 -22.264275,11.18588 1.39801,-5.65548 2.297508,-11.232849 0.294038,-16.857369 h -0.294038 c 1.06376,6.19676 0.216332,12.60733 -2.753838,18.13016 -1.10736,2.05905 -2.861316,3.596712 -3.915006,5.725232 -1.04303,2.10691 -1.323003,4.468748 -2.099613,6.679178 -0.90324,2.57084 -0.974618,1.656747 -0.974618,1.656747 -4e-4,-3.81669 -0.217086,-1.874661 -0.136426,-5.685441 0.22772,-10.757 1.855697,-26.983648 11.644767,-31.700908 5.629949,-2.713 12.121509,-0.263272 17.941029,-2.131652 2.51923,-0.80879 4.93019,-1.961999 7.059,-3.643189 1.22283,-0.96572 1.26902,-0.987041 2.8391,-1.168921 4.68374,-0.54259 9.12246,0.823296 13.33717,1.795756 2.24228,0.51732 4.35151,-0.04364 6.47041,-0.789099 v -0.318327 c -4.07406,0.56901 -5.98071,0.380619 -9.70587,-1.590084 v -0.31781 c 4.72454,-0.417332 6.09384,-3.622655 7.64656,-7.951969 -1.53865,1.378797 -2.00314,3.584776 -3.54139,4.965072 -3.23899,2.906405 -8.91656,1.800023 -12.63488,0.759643 2.90945,-5.979951 5.27677,-12.533276 5.29425,-19.401916 h -0.29404 l -4.11758,13.677201 c -8.04015,-5.938678 -7.07672,-13.430129 -8.82375,-22.5836344 h -0.29404 c 0.60906,5.1003424 -0.25087,11.1194394 1.60765,15.9039384 0.86722,2.232602 2.24349,4.201675 3.81166,5.908167 0.72037,0.78389 2.10121,1.778616 2.13733,2.99775 0.0394,1.331773 -1.52013,2.922986 -2.28926,3.816304 -2.96142,3.439493 -6.46439,4.896819 -10.56111,6.043559 1.75241,-3.616991 2.05659,-6.497322 1.76475,-10.496 h -0.29404 c -0.10128,1.386267 -0.3062,2.788237 -0.63459,4.134631 -2.1704,8.898737 -8.82397,5.419286 -14.953608,6.997506 0.49759,-6.818255 1.903058,-11.297963 4.999178,-17.175696 -5.994295,3.022963 -6.541939,13.655175 -6.926709,15.267285 -0.34539,1.44714 -0.200909,1.161673 -2.531629,2.115633 -0.0312,-4.07305 0.672557,-5.417417 -0.403593,-9.322428 -0.48636,-1.764837 -2.288269,-4.567181 -2.111499,-6.361369 0.19236,-1.952551 3.33694,-4.416956 4.40955,-6.043042 2.35987,-3.577606 3.490962,-7.709779 3.502112,-12.087117 h -0.294039 c -0.60321,4.417091 -2.69174,8.442967 -5.379,11.768274 -0.7098,0.878318 -2.390604,3.208875 -3.675744,2.757971 -1.1582,-0.406332 -1.679241,-2.932738 -2.016931,-4.029212 C 86.931608,17.139209 86.470493,12.814339 86.991073,8.67854 87.306203,6.174876 88.80597,2.4996965 88.33621,0.09095052 Z m 46.61111,49.93441948 0.19585,0.10542 z"
       sodipodi:nodetypes="cccccccssssccccccsscccsssccccccccccccscccsscccccsccsccssscccssccscsccccccccccccccscccsccsccsscccccccccsccccsccsccsccccscscsccscccccccccccccscsssccccccccsscssccccccccscsssccsscsssscccccccccccccscccccsccccscsccssssccccccsccccccssccccccccscsssccsccscccc" /></g><g
     inkscape:groupmode="layer"
     id="layer3"
     inkscape:label="Engrave"><path
       id="rect2"
       style="fill:#770000;stroke-width:0.0511908"
       d="m 62.057568,330.02426 h 38.533202 v 5.92103 H 62.057568 Z" /><path
       id="rect2-2"
       style="fill:#770000;stroke-width:0.0511908"
       d="m 61.300129,160.03421 h 38.533207 v 5.92103 H 61.300129 Z" /></g></svg>
