<?xml version="1.0" encoding="UTF-8" standalone="no"?>
<!-- Created with Inkscape (http://www.inkscape.org/) -->

<svg
   width="500mm"
   height="500mm"
   viewBox="0 0 500 500"
   version="1.1"
   id="svg1"
   inkscape:version="1.4.2 (2aeb623e1d, 2025-05-12)"
   sodipodi:docname="StromNormalLaser.svg"
   xml:space="preserve"
   xmlns:inkscape="http://www.inkscape.org/namespaces/inkscape"
   xmlns:sodipodi="http://sodipodi.sourceforge.net/DTD/sodipodi-0.dtd"
   xmlns="http://www.w3.org/2000/svg"
   xmlns:svg="http://www.w3.org/2000/svg"><sodipodi:namedview
     id="namedview1"
     pagecolor="#ffffff"
     bordercolor="#000000"
     borderopacity="0.25"
     inkscape:showpageshadow="2"
     inkscape:pageopacity="0.0"
     inkscape:pagecheckerboard="0"
     inkscape:deskcolor="#d1d1d1"
     inkscape:document-units="mm"
     inkscape:zoom="0.73521986"
     inkscape:cx="222.38246"
     inkscape:cy="616.14223"
     inkscape:window-width="1920"
     inkscape:window-height="1043"
     inkscape:window-x="0"
     inkscape:window-y="0"
     inkscape:window-maximized="1"
     inkscape:current-layer="layer3" /><defs
     id="defs1" /><g
     inkscape:label="Layer 1"
     inkscape:groupmode="layer"
     id="layer1"><path
       id="path1"
       style="display:inline;fill:none;fill-opacity:1;stroke:#000000;stroke-width:0.05;stroke-dasharray:none;stroke-opacity:1"
       inkscape:label="Strom NORMAL 2"
       d="M 88.33621 170.09091 C 87.01723 173.56785 84.461641 181.60527 84.388131 185.43519 L 78.800358 179.70996 L 83.479659 187.34412 L 86.481543 193.94733 L 91.277116 207.62557 C 85.669416 207.14692 83.595323 197.1266 78.595203 195.07698 C 80.811103 198.47683 84.048354 205.0403 85.975114 207.27314 C 87.101984 208.57903 89.495463 211.04439 90.609973 212.52346 C 91.785673 214.08373 88.032961 217.71693 87.598271 219.60417 C 87.104091 221.74975 84.81361 223.80804 83.67913 225.64773 C 81.33245 229.4531 79.316779 233.83178 77.691899 238.05265 L 77.103821 238.05265 C 75.513121 234.36269 70.941264 231.94905 71.440084 227.23833 C 71.641044 225.34039 71.984878 224.15067 73.082878 222.73886 C 76.599978 218.21652 77.049188 217.34601 79.750688 213.42108 L 80.674662 205.80087 C 79.883212 211.30117 73.036791 220.08527 69.554411 223.37551 C 69.827491 219.63868 70.825855 216.32436 70.016915 212.56067 C 69.380175 209.59809 69.002106 207.21901 67.975696 204.41646 C 66.586536 200.62341 66.094854 197.93984 66.450724 193.89824 C 66.851914 189.34195 74.364539 183.00545 73.445129 177.92764 C 69.145139 184.48026 63.084005 190.79194 63.084005 198.2463 L 57.190308 191.39659 L 52.444344 187.10072 L 49.849154 175.98099 L 49.555115 175.98099 L 51.025309 187.43145 L 43.672786 187.30123 L 37.789941 183.29682 C 39.039261 185.23772 40.823852 188.02152 43.084192 188.57919 C 45.610442 189.2025 47.606213 187.80096 50.143193 189.10525 C 55.799313 192.01312 59.917212 197.53172 63.437472 203.0181 C 66.056142 207.09937 67.652737 213.70314 67.153007 218.60423 C 66.758657 222.47176 67.294503 225.51174 67.818083 229.46455 C 68.646613 235.71933 73.509747 239.21619 75.339587 245.05068 L 75.045549 245.369 C 70.815479 242.69885 63.720624 241.98527 60.838664 237.41548 C 58.280384 233.3589 59.002757 226.74486 59.407227 222.1482 C 59.942227 216.06801 59.748592 210.25226 56.809452 204.97198 L 56.515413 204.97198 C 57.887873 210.41217 58.335761 215.59654 57.103491 221.19425 C 54.508211 220.22146 52.580421 218.45118 50.927641 216.10516 L 50.633602 216.10516 C 51.663742 219.85748 55.742328 220.86312 56.926758 224.08606 C 57.427438 225.44844 56.878355 227.11144 56.821855 228.5106 C 56.674175 232.15797 56.777358 237.29474 59.025338 240.25097 C 63.169148 245.70007 71.55763 245.45866 74.75151 252.36702 C 76.44439 256.02873 75.045929 261.47687 75.045549 265.40809 L 74.75151 265.40809 C 72.22744 259.51952 65.133132 254.23388 59.751392 251.73089 C 55.488082 249.74804 49.486601 248.33405 47.858061 242.82497 C 46.770891 239.14724 49.519009 235.702 50.832039 232.64575 C 51.847029 230.2832 52.102743 227.58472 52.104313 225.01159 L 51.810274 225.01159 L 45.339351 239.00712 C 42.624421 233.97651 39.021983 223.36889 42.633573 218.02597 C 44.641263 215.05584 50.045093 213.32345 50.569523 209.42546 C 51.122703 205.31374 46.340325 200.31961 44.457235 197.0195 L 44.163196 197.0195 C 44.671796 200.69195 49.045563 205.15943 48.416683 208.7764 C 48.118263 210.49275 45.648965 211.67401 44.457235 212.60976 C 40.825885 215.46105 38.876641 218.59588 35.477421 213.23763 C 33.735631 210.49201 33.856165 206.56506 33.489945 203.3819 C 32.947345 198.66547 31.674727 193.51002 29.457117 189.38534 L 29.163078 189.38534 L 31.515906 202.42692 C 25.818516 199.86499 18.207594 197.16591 21.242114 188.7492 C 21.845374 187.07593 22.965407 185.77532 23.868827 184.29676 C 22.180367 185.24406 20.665438 186.7763 20.045288 188.7492 L 19.751249 188.7492 C 19.367589 187.00308 18.744364 185.6966 17.397904 184.61457 L 20.546033 198.59615 L 31.094226 205.13632 L 32.825903 213.56009 L 38.272599 220.88109 L 38.868945 230.41849 C 34.499245 228.80931 31.668031 225.46007 28.280961 222.28359 C 26.807271 220.90152 24.610865 219.40231 23.873995 217.37588 C 22.372865 213.24775 24.149733 206.53295 20.633883 203.69971 L 21.810038 217.05962 C 16.716408 215.26717 9.0460348 215.42744 6.6574748 209.10713 C 5.6551748 206.45497 5.9604946 203.31504 5.6337646 200.51903 L 5.0456868 200.51903 C 5.0456868 205.68843 4.1980593 211.56277 8.8687093 214.78999 C 12.679019 217.42274 17.67003 216.58768 21.22196 219.68737 C 25.42042 223.35126 29.258269 227.44327 33.280139 231.32025 C 35.479859 233.44074 38.3628 235.28706 40.21615 237.76378 C 41.3231 239.24307 41.685459 241.44279 42.471309 243.14278 C 43.651799 245.69653 45.349514 247.92308 46.516024 250.45913 C 44.775054 250.31052 42.229819 250.64013 40.633179 249.97906 C 35.845499 247.99672 32.503652 241.63821 30.633272 236.7809 L 30.339233 236.7809 C 30.779013 242.22885 33.948234 247.04328 37.398234 250.77694 C 32.651764 251.18206 26.022809 254.47116 21.864299 250.37025 C 16.136169 244.72147 21.334602 234.28807 11.810132 231.69128 L 11.810132 232.00909 C 18.167782 235.98358 16.362891 243.33826 18.280021 249.82248 C 14.571511 249.50594 10.24075 250.18279 6.8099202 248.44685 C 4.1179202 247.08476 2.4122653 244.62806 0.04547526 242.82497 C 2.7257453 251.906 10.963523 250.76421 17.691943 252.1319 C 20.364423 252.67512 22.715872 254.23773 25.339022 254.91157 L 25.339022 255.54771 C 23.088272 256.80887 21.529815 259.10678 19.162655 260.21151 C 14.252255 262.50313 8.8777034 260.07299 4.1630534 258.4111 L 4.1630534 258.72891 C 8.6685034 261.95264 16.00085 264.48037 21.22196 261.80521 C 25.4789 259.62406 28.577669 255.33532 33.280139 253.88993 C 43.992799 250.59717 61.367197 257.04588 66.515837 267.95367 C 59.625527 267.95367 52.765418 268.20142 46.221468 265.83959 C 42.118648 264.35881 38.695162 262.57451 37.986312 257.45612 L 37.692273 257.45612 C 37.692273 263.85581 40.48833 265.99133 45.63339 268.58929 L 45.63339 269.22543 C 42.46269 270.31812 39.999926 273.17919 36.810156 274.41116 C 29.538746 277.21959 25.422715 272.1099 19.162655 269.54375 C 24.103485 277.10856 32.66721 279.5808 40.33914 275.94491 C 43.50397 274.44503 46.132478 271.16708 49.750968 270.846 C 59.144748 270.01246 71.902696 273.34711 73.196566 285.12988 C 73.690976 289.6323 73.475917 293.99059 73.292167 298.48979 C 73.125667 302.5659 72.78379 307.11667 71.40391 311.06215 C 67.06089 317.86413 64.100345 322.90671 57.072485 324.69698 C 55.265045 325.15741 52.854779 326.7313 51.815959 328.06473 L 51.204626 330.09096 L 66.620223 330.09096 L 66.620223 332.5673 L 78.981226 332.5673 L 78.981226 330.09096 L 79.249943 330.09096 L 79.249943 290.09082 L 82.749988 290.09082 L 82.749988 330.09096 L 83.020772 330.09096 L 83.020772 332.56678 L 95.326998 332.56678 L 95.326998 330.09096 L 106.56507 330.09096 L 106.3532 328.06473 C 106.0133 327.42706 104.97853 326.55962 103.01593 325.38221 C 95.911398 321.11998 94.776587 318.69126 89.959367 310.58828 C 89.029697 303.89641 84.985737 282.33699 96.221517 277.13709 C 102.34155 274.30476 109.6369 275.86385 115.92729 273.45618 C 121.72951 271.23536 124.20858 264.95031 130.63337 263.95443 C 139.48564 262.58228 149.02091 268.72137 155.33936 259.04724 L 147.69228 262.80515 L 136.5157 261.27346 L 136.5157 260.95513 C 142.56993 258.28328 152.81118 255.86152 152.98653 246.9596 L 152.69249 246.9596 C 151.04083 253.03008 144.12644 256.45891 138.86853 257.77445 C 138.87253 252.67811 141.58521 251.10725 143.5747 246.9596 C 141.41509 248.42027 138.99464 250.39793 137.97297 253.00316 C 137.33413 254.63216 137.73398 256.91045 136.64437 258.28708 C 133.98649 261.64511 128.49832 261.58931 124.75104 261.90959 C 126.61444 256.81808 128.67211 251.6259 132.69216 248.06186 C 137.49054 243.80779 143.99088 242.56452 149.16247 238.91203 C 153.39057 235.92589 158.78317 238.28539 160.04501 231.69128 L 159.75097 231.69128 C 157.86314 236.33253 153.75087 235.2771 150.04459 236.7809 L 150.92774 230.73682 L 150.6337 230.73682 C 148.83487 239.14584 143.56612 240.76277 136.5157 242.50664 C 137.3479 235.82843 142.75126 230.61412 143.28066 224.05712 L 142.98662 224.05712 C 141.94845 228.79513 138.65041 232.48447 136.69347 236.7809 C 135.83858 238.65783 135.61255 241.46402 134.30705 243.01824 C 132.42771 245.25555 129.43064 246.07186 127.53485 248.5502 C 125.05613 251.79059 122.65017 255.53781 121.01845 259.36505 C 120.04681 261.64404 119.78346 264.53828 117.97368 266.25868 C 115.06748 269.02137 110.89496 268.98395 107.3981 270.17989 L 112.39831 259.04724 C 108.93674 261.68463 107.70658 266.29823 104.45667 269.06058 C 101.56279 271.52028 98.123826 270.46954 94.750806 271.22531 C 92.059476 271.82833 89.544168 273.42016 86.809688 273.67839 C 87.430468 270.21634 87.946222 266.4573 89.190422 263.18187 C 93.721282 251.2541 106.7288 257.75261 115.04517 253.99638 C 117.72638 252.78534 119.87888 250.57822 121.37967 247.91355 C 122.1573 246.53286 122.62823 244.4155 123.76144 243.3345 C 125.09307 242.06423 128.32367 242.2155 130.04529 241.23437 L 130.04529 240.91604 L 124.16296 242.18832 C 125.33668 239.24628 127.14263 237.05084 130.04529 236.14476 L 130.04529 235.82643 C 122.72741 236.4737 121.93321 246.26437 116.51589 250.14029 C 115.10957 245.34232 118.49265 241.51529 117.69204 236.7809 L 117.398 236.7809 L 114.77801 246.9596 L 114.35891 251.04204 L 107.98617 252.13913 L 91.8099 254.27544 C 93.0103 251.36116 93.841358 247.98246 95.857198 245.56486 C 101.13072 239.24034 109.92681 237.32946 116.22133 232.40855 C 121.94425 227.93449 127.12752 221.72871 134.45639 220.55811 L 134.45639 220.2403 C 128.91176 220.50176 124.23719 223.32884 119.75135 226.60167 C 119.75135 226.60167 120.35009 220.4676 119.61906 222.46652 C 118.95622 224.27901 118.47721 226.98245 117.30912 228.45634 C 111.89256 235.29081 102.50525 233.89192 95.932129 238.95286 C 97.330139 233.29706 97.342353 228.40917 95.338883 222.78433 L 95.044845 222.78433 C 96.108605 228.98144 95.261177 235.39289 92.291007 240.91604 C 91.183647 242.9752 89.429691 244.51265 88.376001 246.64128 C 87.332971 248.74831 87.052998 251.11041 86.276388 253.32097 C 85.373148 255.89195 84.532263 251.61499 84.612923 247.804 C 84.840643 237.04641 87.021041 222.30681 96.810111 217.5893 C 102.44006 214.87614 108.93162 217.32614 114.75114 215.45765 C 117.27037 214.64882 119.68133 213.49574 121.81014 211.81446 C 123.03297 210.8487 123.19336 210.90184 124.76344 210.71995 C 129.44718 210.17733 133.7717 211.46879 137.98641 212.4413 C 140.22869 212.95864 142.33792 212.39719 144.45682 211.65168 L 144.45682 211.33387 C 140.38276 211.9029 138.47611 211.71408 134.75095 209.74327 L 134.75095 209.42546 C 139.47549 209.0081 140.84479 205.80252 142.39751 201.47297 C 140.85886 202.85184 140.39437 205.05767 138.85612 206.43805 C 135.61713 209.34462 129.93956 208.23813 126.22124 207.19769 C 129.13069 201.21741 131.49801 194.66428 131.51549 187.79526 L 131.22145 187.79526 L 127.10387 201.47297 C 119.06372 195.53396 120.02715 188.04232 118.28012 178.88831 L 117.98608 178.88831 C 118.59514 183.98894 117.73521 190.008 119.59373 194.79276 C 120.46095 197.02549 121.83722 198.99538 123.40539 200.70196 C 124.12576 201.4859 125.5066 202.48051 125.54272 203.69971 C 125.58212 205.03156 124.02259 206.62317 123.25346 207.51653 C 120.29204 210.95622 116.78907 212.41328 112.69235 213.56009 C 114.44476 209.9429 114.74894 207.06195 114.4571 203.06306 L 114.16306 203.06306 C 114.06178 204.4494 113.85686 205.85122 113.52847 207.19769 C 111.35807 216.09692 104.7045 212.61792 98.574862 214.19623 C 99.072452 207.3776 100.47792 202.89755 103.57404 197.0195 C 97.579744 200.04263 97.032101 210.67562 96.647331 212.28782 C 96.301941 213.73504 96.446422 213.44892 94.115702 214.40293 C 94.084502 210.32967 94.788259 208.98574 93.712109 205.08051 C 93.225749 203.31558 91.42384 200.51239 91.60061 198.7181 C 91.79297 196.76544 94.93755 194.30176 96.01016 192.67558 C 98.37003 189.09778 99.501122 184.96552 99.512272 180.58794 L 99.218233 180.58794 C 98.615023 185.00527 96.526493 189.03124 93.839233 192.35673 C 93.129433 193.2351 91.448629 195.56512 90.163489 195.11419 C 89.005289 194.70783 88.484248 192.18152 88.146558 191.08498 C 86.931608 187.13999 86.470493 182.81505 86.991073 178.67902 C 87.306203 176.17522 88.80597 172.49979 88.33621 170.09091 z M 134.94732 220.02843 L 135.14317 220.13385 L 134.94732 220.02843 z " /><path
       id="path1-2"
       style="display:inline;fill:none;fill-opacity:1;stroke:#000000;stroke-width:0.05;stroke-dasharray:none;stroke-opacity:1"
       inkscape:label="Strom NORMAL 1"
       d="M 88.33621 0.090950521 C 87.01723 3.5677085 85.468298 7.0755726 85.394788 10.905278 L 83.333931 5.356779 L 84.486316 12.814205 L 86.481543 23.946342 L 91.277116 37.623543 C 85.669416 37.144916 88.197109 28.034485 83.196989 25.984977 C 85.412889 29.384639 84.048354 35.038387 85.975114 37.27111 C 87.101984 38.57692 89.495463 41.041939 90.609973 42.520919 C 91.785673 44.081109 88.032961 47.713967 87.598271 49.601107 C 87.104091 51.746567 84.81361 53.805066 83.67913 55.644666 C 83.29417 56.268866 83.116848 56.908461 82.749988 57.560311 L 82.749988 120.09086 L 79.249943 120.09086 L 79.249943 63.485014 C 77.906259 64.380402 78.274079 66.536866 77.691899 68.049076 L 77.103821 68.049076 C 75.513121 64.359326 70.941264 61.945209 71.440084 57.234749 C 71.641044 55.336909 72.021498 54.176313 73.082878 52.736833 C 75.365948 49.640473 75.18637 43.109304 74.42078 38.480339 L 74.126742 38.480339 C 73.589782 43.950064 73.111981 50.011363 69.554411 53.372453 C 69.827491 49.635833 70.825855 46.321606 70.016915 42.558126 C 69.380175 39.595714 67.618211 37.090742 66.591801 34.288346 C 65.202641 30.495513 64.83705 25.925318 65.19292 21.883936 C 65.59411 17.327905 68.074234 9.1045785 64.261194 5.6627035 C 66.503334 12.844067 63.084005 20.790833 63.084005 28.244788 L 57.190308 21.395593 L 52.444344 17.099731 L 49.849154 5.9805135 L 49.555115 5.9805135 L 51.025309 17.430461 L 43.672786 17.300753 L 37.789941 13.296346 C 39.039261 15.237146 40.823852 18.020551 43.084192 18.578194 C 45.610442 19.201472 47.606213 17.800039 50.143193 19.10426 C 55.799313 22.011964 59.917212 27.530506 63.437472 33.016589 C 66.056142 37.097634 67.652737 43.700855 67.153007 48.601685 C 66.758657 52.469005 67.294503 55.508897 67.818083 59.461487 C 68.646613 65.715907 73.509747 69.212929 75.339587 75.047099 L 75.045549 75.364909 C 70.815479 72.694909 63.720624 71.981456 60.838664 67.411906 C 58.280384 63.355566 59.002757 56.742054 59.407227 52.145654 C 59.942227 46.065794 59.748592 40.249948 56.809452 34.969958 L 56.515413 34.969958 C 57.887873 40.409848 58.335761 45.594307 57.103491 51.191707 C 54.508211 50.218977 52.580421 48.449029 50.927641 46.103129 L 50.633602 46.103129 C 51.663742 49.855239 55.742328 50.860234 56.926758 54.083004 C 57.427438 55.445304 56.878355 57.10846 56.821855 58.50754 C 56.674175 62.15471 56.777358 67.291322 59.025338 70.247392 C 63.169148 75.696192 71.55763 75.454425 74.75151 82.362415 C 76.44439 86.023925 75.045929 91.471962 75.045549 95.402962 L 74.75151 95.402962 C 72.22744 89.514712 65.133132 84.229128 59.751392 81.726278 C 55.488082 79.743548 49.486601 78.329658 47.858061 72.820878 C 46.770891 69.143358 49.519009 65.698251 50.832039 62.642171 C 51.847029 60.279751 52.102743 57.581519 52.104313 55.008529 L 51.810274 55.008529 L 45.339351 69.00354 C 42.624421 63.97321 39.021983 53.366045 42.633573 48.023425 C 44.641263 45.053455 50.045093 43.32122 50.569523 39.423433 C 51.122703 35.311946 46.340325 30.317923 44.457235 27.017989 L 44.163196 27.017989 C 44.671796 30.690242 49.045563 35.157608 48.416683 38.774377 C 48.118263 40.49063 45.648965 41.671528 44.457235 42.607218 C 40.825885 45.458358 38.876641 48.593037 35.477421 43.235087 C 33.735631 40.489617 33.856165 36.562861 33.489945 33.379875 C 32.947345 28.663702 31.674727 23.508805 29.457117 19.384347 L 29.163078 19.384347 L 31.515906 32.425928 C 25.818516 29.86414 18.207594 27.164459 21.242114 18.74821 C 21.845374 17.07504 22.965407 15.774252 23.868827 14.295768 C 22.180367 15.243021 20.665438 16.775427 20.045288 18.74821 L 19.751249 18.74821 C 19.367589 17.002195 18.744364 15.695551 17.397904 14.613578 L 20.546033 28.594637 L 31.094226 35.134806 L 32.825903 43.557548 L 38.272599 50.878548 L 38.868945 60.415434 C 34.499245 58.806344 31.668031 55.457347 28.280961 52.281047 C 26.807271 50.899057 24.610865 49.399646 23.873995 47.373336 C 22.372865 43.245436 24.149733 36.530774 20.633883 33.697685 L 21.810038 47.057076 C 16.716408 45.264736 9.0460348 45.425076 6.6574748 39.105107 C 5.6551748 36.453103 5.9604946 33.312855 5.6337646 30.517 L 5.0456868 30.517 C 5.0456868 35.686118 4.1980593 41.561441 8.8687093 44.788481 C 12.679019 47.421091 17.67003 46.584786 21.22196 49.684306 C 25.42042 53.347986 29.258269 57.439901 33.280139 61.316671 C 35.479859 63.437051 38.3628 65.283625 40.21615 67.760205 C 41.3231 69.239415 41.685459 71.438778 42.471309 73.138688 C 43.651799 75.692288 45.349514 77.918611 46.516024 80.454521 C 44.775054 80.305921 42.229819 80.63652 40.633179 79.97548 C 35.845499 77.99326 32.503652 71.634359 30.633272 66.777319 L 30.339233 66.777319 C 30.779013 72.224969 33.948234 77.038871 37.398234 80.772331 C 32.651764 81.177431 26.022809 84.466327 21.864299 80.365637 C 16.136169 74.717177 21.334602 64.284358 11.810132 61.687708 L 11.810132 62.005518 C 18.167782 65.979778 16.362891 73.334514 18.280021 79.818384 C 14.571511 79.501864 10.24075 80.178597 6.8099202 78.442757 C 4.1179202 77.080737 2.4122652 74.623868 0.04547526 72.820878 C 2.7257452 81.901408 10.963523 80.760184 17.691943 82.127804 C 20.364423 82.670994 22.715872 84.233162 25.339022 84.906962 L 25.339022 85.543099 C 23.088272 86.804189 21.529815 89.10172 19.162655 90.20638 C 14.252255 92.49788 8.8777034 90.067773 4.1630534 88.405973 L 4.1630534 88.7243 C 8.6685034 91.94785 16.00085 94.475608 21.22196 91.800598 C 25.4789 89.619568 28.577669 85.330629 33.280139 83.885319 C 43.992799 80.592729 61.367197 87.041353 66.515837 97.948543 C 59.625527 97.948543 52.765418 98.19616 46.221468 95.83446 C 42.118648 94.35375 38.695162 92.56962 37.986312 87.45151 L 37.692273 87.45151 C 37.692273 93.85084 40.48833 95.98686 45.63339 98.58468 L 45.63339 99.2203 C 42.46269 100.31293 39.999926 103.17309 36.810156 104.405 C 29.538746 107.21328 25.422715 102.10464 19.162655 99.538627 C 24.103485 107.10303 32.66721 109.57496 40.33914 105.93927 C 43.50397 104.43947 46.132478 101.16143 49.750968 100.84036 C 59.144748 100.00687 71.902696 103.3416 73.196566 115.12372 C 73.690976 119.62589 73.475917 123.98364 73.292167 128.4826 C 73.125667 132.55848 72.78379 137.10918 71.40391 141.05444 C 67.06089 147.85605 64.100345 152.89858 57.072485 154.68875 C 55.261205 155.15013 52.844421 156.72975 51.809241 158.06477 C 51.809241 158.06477 51.273327 159.31218 51.383427 159.5174 L 51.383427 160.091 L 66.62074 160.091 L 66.62074 162.54925 L 78.981742 162.54925 L 78.981742 160.091 L 83.021289 160.091 L 83.021289 162.54873 L 95.326998 162.54873 L 95.326998 160.091 L 106.74439 160.091 L 106.35785 158.06477 C 106.02277 157.42632 104.9875 156.55619 103.01593 155.37346 C 95.911399 151.11148 94.776587 148.68311 89.959367 140.58057 C 89.029697 133.88906 84.985737 112.33156 96.221517 107.13196 C 102.34155 104.29978 109.6369 105.85859 115.92729 103.45105 C 121.72951 101.23035 124.20858 94.945144 130.63337 93.949304 C 139.48564 92.577234 149.02091 98.71572 155.33936 89.04211 L 147.69228 92.800537 L 136.5157 91.268848 L 136.5157 90.950521 C 142.56993 88.278821 152.81118 85.856433 152.98653 76.954993 L 152.69249 76.954993 C 151.04083 83.025143 144.12644 86.454376 138.86853 87.769836 C 138.87253 82.673786 141.58521 81.102423 143.5747 76.954993 C 141.41509 78.415583 138.99464 80.393461 137.97297 82.998551 C 137.33413 84.627451 137.73398 86.9054 136.64437 88.28195 C 133.98649 91.63979 128.49832 91.584725 124.75104 91.904985 C 126.61444 86.813755 128.67211 81.621608 132.69216 78.057768 C 137.49054 73.803928 143.99088 72.560219 149.16247 68.907939 C 153.39057 65.921959 158.78317 68.281458 160.04501 61.687708 L 159.75097 61.687708 C 157.86314 66.328708 153.75087 65.273599 150.04459 66.777319 L 150.92774 60.733761 L 150.6337 60.733761 C 148.83487 69.142321 143.56612 70.758771 136.5157 72.502551 C 137.3479 65.824701 142.75126 60.610705 143.28066 54.054065 L 142.98662 54.054065 C 141.94845 58.791815 138.65041 62.481119 136.69347 66.777319 C 135.83858 68.654139 135.61255 71.460535 134.30705 73.014665 C 132.42771 75.251855 129.43064 76.06791 127.53485 78.54611 C 125.05613 81.78633 122.65017 85.533407 121.01845 89.360437 C 120.04681 91.639297 119.78346 94.53274 117.97368 96.25304 C 115.06748 99.01558 110.89496 98.978884 107.3981 100.17476 L 112.39831 89.04211 C 108.93674 91.67936 107.70658 96.293769 104.45667 99.055969 C 101.56279 101.51555 98.123826 100.46393 94.750806 101.21966 C 92.059476 101.82265 89.544168 103.41453 86.809688 103.67274 C 87.430468 100.21088 87.946222 96.451992 89.190422 93.176742 C 93.721282 81.249632 106.7288 87.747802 115.04517 83.991772 C 117.72638 82.780802 119.87888 80.573986 121.37967 77.909456 C 122.1573 76.528846 122.62823 74.411348 123.76144 73.330408 C 125.09307 72.060208 128.32367 72.211864 130.04529 71.230794 L 130.04529 70.911951 L 124.16296 72.184741 C 125.33668 69.242871 127.14263 67.047212 130.04529 66.141182 L 130.04529 65.822856 C 122.72741 66.470096 121.93321 76.260494 116.51589 80.136194 C 115.10957 75.338494 118.49265 71.511439 117.69204 66.777319 L 117.398 66.777319 L 114.77801 76.954993 L 114.35891 81.037948 L 107.98617 82.135038 L 91.8099 84.270825 C 93.0103 81.356695 93.841358 77.978233 95.857198 75.560763 C 101.13072 69.236603 109.92681 67.326143 116.22133 62.405493 C 121.94425 57.931673 127.12752 51.725594 134.45639 50.555054 L 134.45639 50.237244 C 128.91176 50.498684 124.23719 53.325972 119.75135 56.598612 L 120.9275 46.420939 L 120.63346 46.420939 C 120.63266 48.557229 120.35009 50.465171 119.61906 52.463981 C 118.95622 54.276371 118.47721 56.97947 117.30912 58.45328 C 111.89256 65.28738 101.61797 64.5785 95.044845 69.63916 C 96.442855 63.98368 97.342353 58.406311 95.338883 52.781791 L 95.044845 52.781791 C 96.108605 58.978551 95.261177 65.389121 92.291007 70.911951 C 91.183647 72.971001 89.429691 74.508663 88.376001 76.637183 C 87.332971 78.744093 87.052998 81.105931 86.276388 83.316361 C 85.373148 85.887201 85.30177 84.973108 85.30177 84.973108 C 85.30137 81.156418 85.084684 83.098447 85.165344 79.287667 C 85.393064 68.530667 87.021041 52.304019 96.810111 47.586759 C 102.44006 44.873759 108.93162 47.323487 114.75114 45.455107 C 117.27037 44.646317 119.68133 43.493108 121.81014 41.811918 C 123.03297 40.846198 123.07916 40.824877 124.64924 40.642997 C 129.33298 40.100407 133.7717 41.466293 137.98641 42.438753 C 140.22869 42.956073 142.33792 42.395114 144.45682 41.649654 L 144.45682 41.331327 C 140.38276 41.900337 138.47611 41.711946 134.75095 39.741243 L 134.75095 39.423433 C 139.47549 39.006101 140.84479 35.800778 142.39751 31.471464 C 140.85886 32.850261 140.39437 35.05624 138.85612 36.436536 C 135.61713 39.342941 129.93956 38.236559 126.22124 37.196179 C 129.13069 31.216228 131.49801 24.662903 131.51549 17.794263 L 131.22145 17.794263 L 127.10387 31.471464 C 119.06372 25.532786 120.02715 18.041335 118.28012 8.8878296 L 117.98608 8.8878296 C 118.59514 13.988172 117.73521 20.007269 119.59373 24.791768 C 120.46095 27.02437 121.83722 28.993443 123.40539 30.699935 C 124.12576 31.483825 125.5066 32.478551 125.54272 33.697685 C 125.58212 35.029458 124.02259 36.620671 123.25346 37.513989 C 120.29204 40.953482 116.78907 42.410808 112.69235 43.557548 C 114.44476 39.940557 114.74894 37.060226 114.4571 33.061548 L 114.16306 33.061548 C 114.06178 34.447815 113.85686 35.849785 113.52847 37.196179 C 111.35807 46.094916 104.7045 42.615465 98.574862 44.193685 C 99.072452 37.37543 100.47792 32.895722 103.57404 27.017989 C 97.579745 30.040952 97.032101 40.673164 96.647331 42.285274 C 96.301941 43.732414 96.446422 43.446947 94.115702 44.400907 C 94.084502 40.327857 94.788259 38.98349 93.712109 35.078479 C 93.225749 33.313642 91.42384 30.511298 91.60061 28.71711 C 91.79297 26.764559 94.93755 24.300154 96.01016 22.674068 C 98.37003 19.096462 99.501122 14.964289 99.512272 10.586951 L 99.218233 10.586951 C 98.615023 15.004042 96.526493 19.029918 93.839233 22.355225 C 93.129433 23.233543 91.448629 25.5641 90.163489 25.113196 C 89.005289 24.706864 88.484248 22.180458 88.146558 21.083984 C 86.931608 17.139209 86.470493 12.814339 86.991073 8.67854 C 87.306203 6.174876 88.80597 2.4996965 88.33621 0.090950521 z M 134.94732 50.02537 L 135.14317 50.13079 L 134.94732 50.02537 z " /></g><g
     inkscape:groupmode="layer"
     id="layer3"
     inkscape:label="Engrave"><path
       id="rect2"
       style="fill:#770000;stroke-width:0.0511908"
       d="m 62.057568,330.02426 h 38.533202 v 5.92103 H 62.057568 Z" /><path
       id="rect2-2"
       style="fill:#770000;stroke-width:0.0511908"
       d="m 61.300129,160.03421 h 38.533207 v 5.92103 H 61.300129 Z" /></g></svg>
