<?xml version="1.0" encoding="UTF-8" standalone="no"?>
<!-- Created with Inkscape (http://www.inkscape.org/) -->

<svg
   width="500mm"
   height="500mm"
   viewBox="0 0 500 500"
   version="1.1"
   id="svg1"
   inkscape:version="1.4.2 (2aeb623e1d, 2025-05-12)"
   sodipodi:docname="StromNormal.svg"
   xml:space="preserve"
   xmlns:inkscape="http://www.inkscape.org/namespaces/inkscape"
   xmlns:sodipodi="http://sodipodi.sourceforge.net/DTD/sodipodi-0.dtd"
   xmlns="http://www.w3.org/2000/svg"
   xmlns:svg="http://www.w3.org/2000/svg"><sodipodi:namedview
     id="namedview1"
     pagecolor="#ffffff"
     bordercolor="#000000"
     borderopacity="0.25"
     inkscape:showpageshadow="2"
     inkscape:pageopacity="0.0"
     inkscape:pagecheckerboard="0"
     inkscape:deskcolor="#d1d1d1"
     inkscape:document-units="mm"
     inkscape:zoom="0.57747955"
     inkscape:cx="287.45607"
     inkscape:cy="564.52215"
     inkscape:window-width="1920"
     inkscape:window-height="1043"
     inkscape:window-x="0"
     inkscape:window-y="0"
     inkscape:window-maximized="1"
     inkscape:current-layer="layer1" /><defs
     id="defs1" /><g
     inkscape:label="Layer 1"
     inkscape:groupmode="layer"
     id="layer1"><path
       id="path1"
       style="display:inline;fill:none;fill-opacity:1;stroke:#000000;stroke-width:0.05;stroke-opacity:1;stroke-dasharray:none"
       inkscape:label="Strom NORMAL 2"
       d="m 88.29074,169.99998 c -1.31898,3.47694 -3.87457,11.51436 -3.94808,15.34428 l -5.58777,-5.72523 4.6793,7.63416 3.00188,6.60321 4.79557,13.67824 c -5.6077,-0.47865 -7.68179,-10.49897 -12.68191,-12.54859 2.2159,3.39985 5.45315,9.96331 7.37991,12.19615 1.12687,1.30589 3.52035,3.77126 4.63486,5.25033 1.1757,1.56027 -2.57701,5.19346 -3.0117,7.0807 -0.49418,2.14558 -2.78466,4.20387 -3.91914,6.04356 -2.34668,3.80537 -4.36235,8.18406 -5.98723,12.40493 h -0.58808 c -1.5907,-3.68996 -6.16256,-6.10361 -5.66374,-10.81433 0.20096,-1.89794 0.54479,-3.08765 1.64279,-4.49946 3.5171,-4.52234 3.96631,-5.39285 6.66781,-9.31778 l 0.92398,-7.62021 c -0.79145,5.5003 -7.63787,14.2844 -11.12025,17.57464 0.27308,-3.73683 1.27144,-7.05115 0.4625,-10.81484 -0.63674,-2.96258 -1.01481,-5.34166 -2.04122,-8.14421 -1.38916,-3.79305 -1.88084,-6.47662 -1.52497,-10.51822 0.40119,-4.55629 7.91382,-10.89279 6.99441,-15.9706 -4.29999,6.55262 -10.36113,12.86429 -10.36113,20.31865 l -5.8937,-6.84971 -4.74596,-4.29586 -2.59519,-11.11973 h -0.29404 l 1.4702,11.45046 -7.35253,-0.13022 -5.88284,-4.00441 c 1.24932,1.9409 3.03391,4.72469 5.29425,5.28236 2.52625,0.62331 4.52202,-0.77822 7.059,0.52607 5.65612,2.90787 9.77402,8.42647 13.29428,13.91285 2.61867,4.08127 4.21526,10.68502 3.71553,15.58611 -0.39435,3.86753 0.1415,6.90751 0.66508,10.86032 0.82853,6.25478 5.69166,9.75165 7.5215,15.58614 l -0.29403,0.31833 c -4.23007,-2.67015 -11.32493,-3.38373 -14.20689,-7.95352 -2.55828,-4.05658 -1.83591,-10.67064 -1.43144,-15.2673 0.535,-6.08019 0.34137,-11.89593 -2.59777,-17.17621 h -0.29404 c 1.37246,5.44019 1.82035,10.62456 0.58808,16.22227 -2.59528,-0.97279 -4.52307,-2.74308 -6.17585,-5.0891 h -0.29404 c 1.03014,3.75232 5.10872,4.75797 6.29315,7.98091 0.50068,1.36238 -0.0484,3.02538 -0.1049,4.42454 -0.14768,3.64737 -0.0445,8.78414 2.20348,11.74037 4.14381,5.4491 12.5323,5.20769 15.72618,12.11605 1.69288,3.66171 0.29442,9.10985 0.29404,13.04107 h -0.29404 c -2.52407,-5.88857 -9.61838,-11.17422 -15.00012,-13.67721 -4.26331,-1.98285 -10.26479,-3.39683 -11.89333,-8.90591 -1.08717,-3.67773 1.66095,-7.12297 2.97398,-10.17922 1.01499,-2.36255 1.2707,-5.06103 1.27227,-7.63416 H 51.7648 l -6.47092,13.99552 c -2.71493,-5.03061 -6.31737,-15.63822 -2.70578,-20.98114 2.00769,-2.97013 7.41152,-4.70252 7.93595,-8.60051 0.55318,-4.11172 -4.2292,-9.10585 -6.11229,-12.40596 h -0.29404 c 0.5086,3.67245 4.88237,8.13993 4.25349,11.7569 -0.29842,1.71635 -2.76772,2.89761 -3.95945,3.83336 -3.63135,2.85129 -5.58059,5.98612 -8.97981,0.62787 -1.74179,-2.74562 -1.62126,-6.67257 -1.98748,-9.85573 -0.5426,-4.71643 -1.81522,-9.87188 -4.03283,-13.99656 H 29.1176 l 2.35283,13.04158 c -5.69739,-2.56193 -13.30831,-5.26101 -10.27379,-13.67772 0.60326,-1.67327 1.72329,-2.97388 2.62671,-4.45244 -1.68846,0.9473 -3.20338,2.47954 -3.82353,4.45244 h -0.29404 c -0.38366,-1.74612 -1.00689,-3.0526 -2.35335,-4.13463 l 3.14813,13.98157 10.54819,6.54017 1.73168,8.42378 5.4467,7.321 0.59634,9.5374 c -4.3697,-1.60918 -7.20091,-4.95842 -10.58798,-8.1349 -1.47369,-1.38207 -3.6701,-2.88128 -4.40697,-4.90771 -1.50113,-4.12813 0.27574,-10.84293 -3.24011,-13.67617 l 1.17616,13.35991 C 16.67094,215.17623 9.00056,215.3365 6.612,209.01619 5.6097,206.36403 5.91502,203.22409 5.58829,200.42808 H 5.00021 c 0,5.1694 -0.84762,11.04375 3.82303,14.27097 3.81031,2.63275 8.80132,1.79768 12.35325,4.89737 4.19846,3.66389 8.03631,7.7559 12.05818,11.63288 2.19972,2.12049 5.08266,3.96682 6.93601,6.44354 1.10695,1.47929 1.46931,3.67901 2.25516,5.379 1.18049,2.55375 2.8782,4.7803 4.04471,7.31635 -1.74097,-0.14861 -4.2862,0.18099 -5.88284,-0.48008 -4.78768,-1.98234 -8.12953,-8.34085 -9.99991,-13.19816 h -0.29404 c 0.43978,5.44795 3.609,10.26239 7.059,13.99605 -4.74647,0.40512 -11.37542,3.69421 -15.53393,-0.4067 -5.72813,-5.64878 -0.5297,-16.08217 -10.05417,-18.67896 v 0.31781 c 6.35765,3.97449 4.55276,11.32916 6.46989,17.81338 -3.70851,-0.31654 -8.03927,0.36032 -11.4701,-1.37562 -2.692,-1.36209 -4.39766,-3.81879 -6.76445,-5.62188 2.68027,9.08103 10.91805,7.93923 17.64647,9.30692 2.67248,0.54322 5.02393,2.10584 7.64708,2.77968 v 0.63614 c -2.25075,1.26116 -3.80921,3.55906 -6.17637,4.66379 -4.9104,2.29162 -10.28495,-0.13851 -14.9996,-1.8004 v 0.31781 c 4.50545,3.22373 11.8378,5.75146 17.05891,3.0763 4.25694,-2.18115 7.35571,-6.46989 12.05818,-7.91528 10.71266,-3.29276 28.08705,3.15595 33.23569,14.06374 -6.89031,0 -13.75041,0.24774 -20.29436,-2.11409 -4.10282,-1.48078 -7.52631,-3.26507 -8.23516,-8.38346 H 37.6468 c 0,6.39969 2.79606,8.53521 7.94112,11.13317 v 0.63613 c -3.1707,1.09269 -5.63347,3.95376 -8.82324,5.18573 -7.27141,2.80843 -11.38744,-2.30125 -17.6475,-4.8674 4.94083,7.56481 13.50456,10.03705 21.17649,6.40116 3.16483,-1.49988 5.79334,-4.77783 9.41183,-5.09891 9.39378,-0.83354 22.15172,2.50111 23.44559,14.28388 0.49441,4.50242 0.27935,8.86071 0.0956,13.35991 -0.1665,4.07611 -0.50837,8.62688 -1.88825,12.57236 -4.34302,6.80198 -7.30357,11.84455 -14.33143,13.63482 -1.80744,0.46043 -4.2177,2.03433 -5.25652,3.36776 l -0.61134,2.02623 H 79.5321 v -40.00011 h 2.9807 v 40.00011 h 24.0068 l -0.21187,-2.02623 c -0.3399,-0.63767 -1.37467,-1.50511 -3.33727,-2.68252 -7.10454,-4.26223 -8.23935,-6.69095 -13.05657,-14.79393 -0.92967,-6.69187 -4.97363,-28.25129 6.26215,-33.45119 6.12004,-2.83233 13.41539,-1.27325 19.70578,-3.68092 5.80222,-2.22082 8.28129,-8.50585 14.70608,-9.50173 8.85227,-1.37215 18.38753,4.76693 24.70598,-4.9072 l -7.64708,3.7579 -11.17657,-1.53169 v -0.31832 c 6.05423,-2.67185 16.29547,-5.09361 16.47082,-13.99553 h -0.29403 c -1.65166,6.07048 -8.56606,9.4993 -13.82397,10.81484 0.004,-5.09634 2.71669,-6.66719 4.70618,-10.81484 -2.15961,1.46067 -4.58006,3.43833 -5.60173,6.04356 -0.63884,1.629 -0.23899,3.90728 -1.3286,5.28391 -2.65788,3.35803 -8.14605,3.30224 -11.89333,3.62252 1.8634,-5.09151 3.92107,-10.28369 7.94112,-13.84773 4.79838,-4.25407 11.29872,-5.49734 16.47031,-9.14983 4.2281,-2.98614 9.6207,-0.62664 10.88254,-7.22075 h -0.29404 c -1.88783,4.64125 -6.0001,3.58581 -9.70638,5.08961 l 0.88315,-6.04407 h -0.29404 c -1.79883,8.40902 -7.06758,10.02595 -14.118,11.76982 0.8322,-6.67821 6.23556,-11.89252 6.76496,-18.44952 h -0.29404 c -1.03817,4.73801 -4.33622,8.42734 -6.29316,12.72377 -0.85489,1.87693 -1.08092,4.68313 -2.38642,6.23735 -1.87934,2.23731 -4.8764,3.05362 -6.77219,5.53196 -2.47872,3.24039 -4.88468,6.9876 -6.5164,10.81484 -0.97164,2.27899 -1.235,5.17324 -3.04478,6.89364 -2.9062,2.76269 -7.07872,2.72527 -10.57558,3.92121 l 5.00021,-11.13266 c -3.46157,2.63739 -4.69172,7.251 -7.94163,10.01335 -2.89388,2.4597 -6.33285,1.40895 -9.70587,2.16472 -2.69133,0.60302 -5.20663,2.19485 -7.94111,2.45308 0.62078,-3.46205 1.13653,-7.22108 2.38073,-10.49651 4.53086,-11.92777 17.53838,-5.42926 25.85475,-9.18549 2.68121,-1.21104 4.83371,-3.41816 6.3345,-6.08283 0.77763,-1.38069 1.24856,-3.49805 2.38177,-4.57905 1.33163,-1.27027 4.56223,-1.119 6.28385,-2.10013 v -0.31833 l -5.88233,1.27228 c 1.17372,-2.94204 2.97967,-5.13748 5.88233,-6.04356 v -0.31833 c -7.31788,0.64727 -8.11209,10.43793 -13.52941,14.31385 -1.40632,-4.79797 1.97677,-8.625 1.17616,-13.35939 h -0.29404 l -2.62,10.17871 -0.41909,4.08244 -6.37274,1.09709 -16.17627,2.1363 c 1.2004,-2.91428 2.03146,-6.29298 4.0473,-8.71058 5.27353,-6.32452 14.06961,-8.23539 20.36413,-13.1563 5.72292,-4.47406 10.90619,-10.67984 18.23506,-11.85044 v -0.31781 c -5.54463,0.26146 -10.21921,3.08855 -14.70505,6.36138 0,0 0.59874,-6.13407 -0.13229,-4.13515 -0.66284,1.81249 -1.14184,4.51593 -2.30993,5.98982 -5.41656,6.83447 -14.80377,5.43579 -21.3769,10.49673 1.39801,-5.6558 1.41013,-10.5439 -0.59334,-16.16874 h -0.29404 c 1.06376,6.19711 0.21633,12.60856 -2.75384,18.13171 -1.10736,2.05916 -2.86131,3.5966 -3.915,5.72523 -1.04303,2.10703 -1.32301,4.46914 -2.09962,6.6797 -0.90324,2.57098 -1.74412,-1.70599 -1.66346,-5.51698 0.22772,-10.75759 2.40812,-25.49718 12.19719,-30.21469 5.62995,-2.71316 12.1215,-0.26316 17.94102,-2.13165 2.51923,-0.80883 4.93019,-1.96191 7.059,-3.64319 1.22283,-0.96576 1.38323,-0.91262 2.95331,-1.09451 4.68374,-0.54262 9.00826,0.74883 13.22297,1.72134 2.24228,0.51734 4.3515,-0.0441 6.4704,-0.78961 v -0.31781 c -4.07406,0.56903 -5.9807,0.38021 -9.70586,-1.5906 v -0.31781 c 4.72454,-0.41736 6.09384,-3.62294 7.64656,-7.95249 -1.53865,1.37887 -2.00314,3.58469 -3.54139,4.96507 -3.23899,2.90657 -8.91657,1.80009 -12.63489,0.75965 2.90945,-5.98028 5.27677,-12.53342 5.29425,-19.40244 h -0.29404 l -4.11757,13.67772 c -8.04015,-5.93901 -7.07672,-13.43066 -8.82375,-22.58467 h -0.29404 c 0.60906,5.10063 -0.25087,11.1197 1.60765,15.90446 0.86722,2.23273 2.24348,4.20262 3.81165,5.9092 0.72037,0.78394 2.10122,1.77855 2.13734,2.99775 0.0394,1.33185 -1.52013,2.92346 -2.28926,3.81682 -2.96142,3.43969 -6.4644,4.89675 -10.56112,6.04356 1.75241,-3.61719 2.05659,-6.49815 1.76475,-10.49704 h -0.29404 c -0.10128,1.38634 -0.30619,2.78817 -0.63458,4.13464 -2.1704,8.89923 -8.82397,5.42023 -14.95361,6.99854 0.49759,-6.81863 1.90306,-11.29868 4.99918,-17.17673 -5.9943,3.02313 -6.54194,13.65611 -6.92671,15.26831 -0.34539,1.44722 -0.20091,1.16111 -2.53163,2.11512 -0.0312,-4.07326 0.67256,-5.4172 -0.40359,-9.32243 -0.48636,-1.76493 -2.28827,-4.56811 -2.1115,-6.3624 0.19236,-1.95266 3.33694,-4.41635 4.40955,-6.04253 2.35987,-3.5778 3.49096,-7.71005 3.50211,-12.08763 h -0.29404 c -0.60321,4.41733 -2.69174,8.4433 -5.379,11.76879 -0.7098,0.87837 -2.3906,3.20839 -3.67574,2.75746 -1.1582,-0.40636 -1.67925,-2.93268 -2.01694,-4.02922 -1.21495,-3.94499 -1.67606,-8.26993 -1.15548,-12.40596 0.31513,-2.5038 1.8149,-6.17922 1.34514,-8.5881 z m 46.61111,49.93752 0.19585,0.10541 z"
       sodipodi:nodetypes="cccccccssssccsscccssscccccccccsssssccsscccccsccsccssscccssccsssscccscccccccccssccsccssssscscccscccscsccsccsscsccccscsssscsccccccccscsssccccccccsscssccccccccsssssccsscssssccccccccccccsscccsscccssssssssscccccsccccccsssscccsccscsssccsssscccc" /><path
       id="path1-2"
       style="display:inline;fill:none;fill-opacity:1;stroke:#000000;stroke-width:0.05;stroke-opacity:1;stroke-dasharray:none"
       inkscape:label="Strom NORMAL 1"
       d="m 88.29074,0 c -1.31898,3.476758 -2.86792,6.984423 -2.94143,10.814128 l -2.06085,-5.54841 1.15238,7.457485 1.99523,11.132479 4.79557,13.677223 c -5.6077,-0.478627 -3.08,-9.589439 -8.08012,-11.638947 2.2159,3.399662 0.85136,9.053764 2.77812,11.286487 1.12687,1.30581 3.52035,3.77071 4.63486,5.24969 1.1757,1.56019 -2.57701,5.19308 -3.0117,7.08022 -0.49418,2.14546 -2.78466,4.20392 -3.91914,6.04352 -0.38496,0.6242 -0.76124,1.26393 -1.1281,1.91578 V 120.00005 H 79.54088 V 63.394305 c -0.67969,1.51914 -1.31227,3.05168 -1.89445,4.56389 h -0.58808 c -1.5907,-3.68975 -6.16256,-6.10366 -5.66374,-10.81412 0.20096,-1.89784 0.58141,-3.05879 1.64279,-4.49827 2.28307,-3.09636 2.1035,-9.62759 1.33791,-14.256555 h -0.29404 c -0.53696,5.469725 -1.01476,11.531135 -4.57233,14.892225 0.27308,-3.73662 1.27144,-7.05064 0.4625,-10.81412 -0.63674,-2.962412 -2.3987,-5.467508 -3.42511,-8.269904 -1.38916,-3.792833 -1.75475,-8.362953 -1.39888,-12.404335 0.40119,-4.556031 2.88131,-12.779575 -0.93173,-16.22145 2.24214,7.181364 -1.17719,15.128321 -1.17719,22.582276 L 57.14483,21.304737 52.39887,17.00906 49.80368,5.8895 h -0.29404 l 1.4702,11.450315 -7.35253,-0.129718 -5.88284,-4.004716 c 1.24932,1.9408 3.03391,4.724096 5.29425,5.281739 2.52625,0.623278 4.52202,-0.778114 7.059,0.526107 5.65612,2.907704 9.77402,8.426285 13.29428,13.912368 2.61867,4.081045 4.21526,10.68443 3.71553,15.58526 -0.39435,3.86732 0.1415,6.90702 0.66508,10.85961 0.82853,6.25442 5.69166,9.75161 7.5215,15.58578 l -0.29403,0.31784 c -4.23007,-2.67 -11.32493,-3.38356 -14.20689,-7.95311 -2.55828,-4.05634 -1.83591,-10.66999 -1.43144,-15.26639 0.535,-6.07986 0.34137,-11.89548 -2.59777,-17.17547 h -0.29404 c 1.37246,5.43989 1.82035,10.62405 0.58808,16.22145 -2.59528,-0.97273 -4.52307,-2.74255 -6.17585,-5.08845 h -0.29404 c 1.03014,3.75211 5.10872,4.7572 6.29315,7.97997 0.50068,1.3623 -0.0484,3.02528 -0.1049,4.42436 -0.14768,3.64717 -0.0445,8.78417 2.20348,11.74024 4.14381,5.4488 12.5323,5.20694 15.72618,12.11493 1.69288,3.66151 0.29442,9.10951 0.29404,13.04051 h -0.29404 c -2.52407,-5.88825 -9.61838,-11.17385 -15.00012,-13.6767 -4.26331,-1.98273 -10.26479,-3.39679 -11.89333,-8.90557 -1.08717,-3.67752 1.66095,-7.12237 2.97398,-10.17845 1.01499,-2.36242 1.2707,-5.06073 1.27227,-7.63372 H 51.7648 l -6.47092,13.99506 c -2.71493,-5.03033 -6.31737,-15.63757 -2.70578,-20.98019 2.00769,-2.96997 7.41152,-4.70235 7.93595,-8.600137 0.55318,-4.111487 -4.2292,-9.105434 -6.11229,-12.405368 h -0.29404 c 0.5086,3.672253 4.88237,8.139493 4.25349,11.756262 -0.29842,1.716253 -2.76772,2.897443 -3.95945,3.833133 -3.63135,2.85114 -5.58059,5.98587 -8.97981,0.62792 -1.74179,-2.74547 -1.62126,-6.67247 -1.98748,-9.855456 -0.5426,-4.716173 -1.81522,-9.871116 -4.03283,-13.995574 H 29.1176 l 2.35283,13.041554 c -5.69739,-2.561788 -13.30831,-5.261491 -10.27379,-13.67774 0.60326,-1.67317 1.72329,-2.973785 2.62671,-4.452269 -1.68846,0.947253 -3.20338,2.479486 -3.82353,4.452269 h -0.29404 c -0.38366,-1.746015 -1.00689,-3.052461 -2.35335,-4.134434 l 3.14813,13.981104 10.54819,6.540157 1.73168,8.422869 5.4467,7.32106 0.59634,9.53658 c -4.3697,-1.60909 -7.20091,-4.95819 -10.58798,-8.13449 -1.47369,-1.38199 -3.6701,-2.88127 -4.40697,-4.90758 -1.50113,-4.1279 0.27574,-10.842582 -3.24011,-13.675671 l 1.17616,13.359381 C 16.67094,45.173785 9.00056,45.334035 6.612,39.014066 5.6097,36.362062 5.91502,33.222186 5.58829,30.426331 H 5.00021 c 0,5.169118 -0.84762,11.043994 3.82303,14.271034 3.81031,2.63261 8.80132,1.79668 12.35325,4.8962 4.19846,3.66368 8.03631,7.75545 12.05818,11.63222 2.19972,2.12038 5.08266,3.96694 6.93601,6.44352 1.10695,1.47921 1.46931,3.67848 2.25516,5.37839 1.18049,2.5536 2.8782,4.77996 4.04471,7.31587 -1.74097,-0.1486 -4.2862,0.18196 -5.88284,-0.47908 -4.78768,-1.98222 -8.12953,-8.34109 -9.99991,-13.19813 h -0.29404 c 0.43978,5.44765 3.609,10.26159 7.059,13.99505 -4.74647,0.4051 -11.37542,3.69396 -15.53393,-0.40673 -5.72813,-5.64846 -0.5297,-16.08117 -10.05417,-18.67782 v 0.31784 c 6.35765,3.97426 4.55276,11.32882 6.46989,17.81269 -3.70851,-0.31652 -8.03927,0.36011 -11.4701,-1.37573 -2.692,-1.36202 -4.39766,-3.81881 -6.76445,-5.6218 2.68027,9.08053 10.91805,7.93951 17.64647,9.30713 2.67248,0.54319 5.02393,2.10505 7.64708,2.77885 v 0.63619 c -2.25075,1.26109 -3.80921,3.55898 -6.17637,4.66364 -4.9104,2.2915 -10.28495,-0.13875 -14.9996,-1.80055 v 0.31836 c 4.50545,3.22355 11.8378,5.75103 17.05891,3.07602 4.25694,-2.18103 7.35571,-6.46955 12.05818,-7.91486 10.71266,-3.29259 28.08705,3.15557 33.23569,14.06276 -6.89031,0 -13.75041,0.24797 -20.29436,-2.11373 -4.10282,-1.48071 -7.52631,-3.26497 -8.23516,-8.38308 H 37.6468 c 0,6.39933 2.79606,8.53517 7.94112,11.13299 v 0.63567 c -3.1707,1.092625 -5.63347,3.953185 -8.82324,5.185095 -7.27141,2.80828 -11.38744,-2.30074 -17.6475,-4.866745 4.94083,7.564395 13.50456,10.036315 21.17649,6.400625 3.16483,-1.4998 5.79334,-4.77773 9.41183,-5.0988 9.39378,-0.833485 22.15172,2.50132 23.44559,14.28344 0.49441,4.50217 0.27935,8.85991 0.0956,13.35887 -0.1665,4.07588 -0.50837,8.62652 -1.88825,12.57178 -4.34302,6.80161 -7.30357,11.84416 -14.33143,13.63433 -1.81128,0.46138 -4.22806,2.04126 -5.26324,3.37628 0,0 -0.53592,1.247 -0.42582,1.45222 V 160 h 55.36097 l -0.38654,-2.02588 c -0.33508,-0.63845 -1.37035,-1.50879 -3.34192,-2.69152 -7.10454,-4.26198 -8.23935,-6.69046 -13.05657,-14.793 -0.92967,-6.69151 -4.97363,-28.249 6.26215,-33.4486 6.12004,-2.83218 13.41539,-1.27315 19.70578,-3.68069 5.80222,-2.2207 8.28129,-8.506115 14.70608,-9.501955 8.85227,-1.37207 18.38753,4.76656 24.70598,-4.90705 l -7.64708,3.7582 -11.17657,-1.53181 v -0.31783 c 6.05423,-2.6717 16.29547,-5.09414 16.47082,-13.99558 h -0.29403 c -1.65166,6.07015 -8.56606,9.49918 -13.82397,10.81464 0.004,-5.09605 2.71669,-6.66721 4.70618,-10.81464 -2.15961,1.46059 -4.58006,3.43842 -5.60173,6.04351 -0.63884,1.6289 -0.23899,3.90674 -1.3286,5.28329 -2.65788,3.35784 -8.14605,3.30253 -11.89333,3.62279 1.8634,-5.09123 3.92107,-10.2834 7.94112,-13.84724 4.79838,-4.25384 11.29872,-5.49722 16.47031,-9.1495 4.2281,-2.98598 9.6207,-0.62653 10.88254,-7.22028 h -0.29404 c -1.88783,4.641 -6.0001,3.58578 -9.70638,5.0895 l 0.88315,-6.04352 h -0.29404 c -1.79883,8.40856 -7.06758,10.02489 -14.118,11.76867 0.8322,-6.67785 6.23556,-11.89172 6.76496,-18.44836 h -0.29404 c -1.03817,4.73775 -4.33622,8.42701 -6.29316,12.72321 -0.85489,1.87682 -1.08092,4.68318 -2.38642,6.23731 -1.87934,2.23719 -4.8764,3.05314 -6.77219,5.53134 -2.47872,3.24022 -4.88468,6.98762 -6.5164,10.81465 -0.97164,2.27886 -1.235,5.17232 -3.04478,6.89262 -2.9062,2.76254 -7.07872,2.72563 -10.57558,3.921505 l 5.00021,-11.132475 c -3.46157,2.63725 -4.69172,7.2514 -7.94163,10.0136 -2.89388,2.459575 -6.33285,1.408115 -9.70587,2.163845 -2.69133,0.60299 -5.20663,2.19506 -7.94111,2.45327 0.62078,-3.46186 1.13653,-7.221035 2.38073,-10.496285 4.53086,-11.92711 17.53838,-5.42861 25.85475,-9.18464 2.68121,-1.21097 4.83371,-3.41826 6.3345,-6.08279 0.77763,-1.38061 1.24856,-3.49794 2.38177,-4.57888 1.33163,-1.2702 4.56223,-1.11871 6.28385,-2.09978 v -0.31835 l -5.88233,1.27237 c 1.17372,-2.94187 2.97967,-5.13747 5.88233,-6.0435 v -0.31836 c -7.31788,0.64724 -8.11209,10.43772 -13.52941,14.31342 -1.40632,-4.7977 1.97677,-8.62475 1.17616,-13.35887 h -0.29404 l -2.62,10.17793 -0.41909,4.08276 -6.37274,1.09717 -16.17627,2.13596 c 1.2004,-2.91413 2.03146,-6.29276 4.0473,-8.71023 5.27353,-6.32416 14.06961,-8.23459 20.36413,-13.15524 5.72292,-4.47382 10.90619,-10.67979 18.23506,-11.85033 v -0.31783 c -5.54463,0.26144 -10.21921,3.0887 -14.70505,6.36134 l 1.17616,-10.17794 h -0.29404 c -8e-4,2.13629 -0.28338,4.04418 -1.01441,6.04299 -0.66284,1.81239 -1.14184,4.51543 -2.30993,5.98924 -5.41656,6.8341 -15.69115,6.12558 -22.26428,11.18624 1.39801,-5.65548 2.29751,-11.23312 0.29404,-16.85764 h -0.29404 c 1.06376,6.19676 0.21633,12.60769 -2.75384,18.13052 -1.10736,2.05905 -2.86131,3.59664 -3.915,5.72516 -1.04303,2.10691 -1.32301,4.46875 -2.09962,6.67918 -0.90324,2.57084 -0.97461,1.65635 -0.97461,1.65635 -4e-4,-3.81669 -0.21709,-1.87458 -0.13643,-5.68536 0.22772,-10.757 1.8557,-26.98351 11.64477,-31.70077 5.62995,-2.713 12.1215,-0.26344 17.94102,-2.13182 2.51923,-0.80879 4.93019,-1.96176 7.059,-3.64295 1.22283,-0.96572 1.26903,-0.98713 2.83911,-1.16901 4.68374,-0.54259 9.12246,0.82344 13.33717,1.7959 2.24228,0.51732 4.3515,-0.0437 6.4704,-0.78916 v -0.31836 c -4.07406,0.56901 -5.9807,0.3805 -9.70586,-1.590203 v -0.317834 c 4.72454,-0.417332 6.09384,-3.622753 7.64656,-7.952067 -1.53865,1.378797 -2.00314,3.585159 -3.54139,4.965455 -3.23899,2.906405 -8.91657,1.800082 -12.63489,0.759702 2.90945,-5.979951 5.27677,-12.53374 5.29425,-19.40238 h -0.29404 l -4.11757,13.677223 c -8.04015,-5.938678 -7.07672,-13.429803 -8.82375,-22.583309 h -0.29404 c 0.60906,5.100343 -0.25087,11.119116 1.60765,15.903615 0.86722,2.232602 2.24348,4.202131 3.81165,5.908623 0.72037,0.78389 2.10122,1.77833 2.13734,2.997464 0.0394,1.331773 -1.52013,2.92328 -2.28926,3.816598 -2.96142,3.439493 -6.4644,4.896763 -10.56112,6.043503 1.75241,-3.616991 2.05659,-6.497609 1.76475,-10.496287 h -0.29404 c -0.10128,1.386267 -0.30619,2.788556 -0.63458,4.13495 -2.1704,8.898737 -8.82397,5.419307 -14.95361,6.997527 0.49759,-6.818255 1.90306,-11.298252 4.99918,-17.175985 -5.9943,3.022963 -6.54194,13.655325 -6.92671,15.267435 -0.34539,1.44714 -0.20091,1.16131 -2.53163,2.11527 -0.0312,-4.07305 0.67256,-5.417099 -0.40359,-9.32211 -0.48636,-1.764837 -2.28827,-4.567155 -2.1115,-6.361343 0.19236,-1.952551 3.33694,-4.416906 4.40955,-6.042992 2.35987,-3.577606 3.49096,-7.709678 3.50211,-12.087016 h -0.29404 c -0.60321,4.417091 -2.69174,8.442841 -5.379,11.768148 -0.7098,0.878318 -2.3906,3.208571 -3.67574,2.757667 -1.1582,-0.406332 -1.67925,-2.932531 -2.01694,-4.029005 C 86.88613,17.048329 86.42502,12.723535 86.9456,8.587736 87.26073,6.084072 88.7605,2.408746 88.29074,0 Z m 46.61111,49.934655 0.19585,0.10543 z"
       sodipodi:nodetypes="cccccccssssccccccsscccssscccccccccsssssccsscccccsccsccssscccssccsssscccscccccccccssccsccssssscscccscccscsccsccsscsccccscsssscscccccscsssccccccccsscssccccccccsssssccsscssssccccccccccccsscccccsccccssscsssssscccccsccccccsssscccsccscsssccsssscccc" /></g></svg>
