<?xml version="1.0" encoding="UTF-8" standalone="no"?>
<!-- Created with Inkscape (http://www.inkscape.org/) -->

<svg
   width="500mm"
   height="500mm"
   viewBox="0 0 500 500"
   version="1.1"
   id="svg1"
   inkscape:version="1.4.2 (2aeb623e1d, 2025-05-12)"
   sodipodi:docname="StromNormalLaser.svg"
   xml:space="preserve"
   xmlns:inkscape="http://www.inkscape.org/namespaces/inkscape"
   xmlns:sodipodi="http://sodipodi.sourceforge.net/DTD/sodipodi-0.dtd"
   xmlns="http://www.w3.org/2000/svg"
   xmlns:svg="http://www.w3.org/2000/svg"><sodipodi:namedview
     id="namedview1"
     pagecolor="#ffffff"
     bordercolor="#000000"
     borderopacity="0.25"
     inkscape:showpageshadow="2"
     inkscape:pageopacity="0.0"
     inkscape:pagecheckerboard="0"
     inkscape:deskcolor="#d1d1d1"
     inkscape:document-units="mm"
     inkscape:zoom="0.38461514"
     inkscape:cx="59.800038"
     inkscape:cy="497.90032"
     inkscape:window-width="1920"
     inkscape:window-height="940"
     inkscape:window-x="0"
     inkscape:window-y="0"
     inkscape:window-maximized="1"
     inkscape:current-layer="layer1" /><defs
     id="defs1" /><g
     inkscape:label="Layer 1"
     inkscape:groupmode="layer"
     id="layer1"><path
       id="path1"
       style="display:inline;fill:none;fill-opacity:1;stroke:#000000;stroke-width:0.05;stroke-dasharray:none;stroke-opacity:1"
       inkscape:label="Strom NORMAL 2"
       d="m 88.86538,178.34592 c -1.31898,3.47694 -3.874569,11.51436 -3.948079,15.34428 l -5.587773,-5.72523 3.576652,8.18548 3.112149,7.37507 5.787957,12.35506 c -5.6077,-0.47865 -7.681793,-10.49897 -12.681913,-12.54859 2.2159,3.39985 4.350502,10.62491 6.277262,12.85775 1.12687,1.30589 3.189554,3.99178 4.304064,5.47085 1.1757,1.56027 -1.143568,4.31135 -1.578258,6.19859 -0.49418,2.14558 -2.784661,4.20387 -3.919141,6.04356 -2.34668,3.80537 -4.362351,8.18405 -5.987231,12.40492 h -0.588078 c -1.5907,-3.68996 -3.957257,-6.32413 -4.671352,-10.37326 -0.331471,-1.87954 -0.447591,-3.52872 0.650409,-4.94053 3.5171,-4.52234 3.966311,-5.39285 6.66781,-9.31778 l 0.923974,-7.62021 c -0.791449,5.5003 -7.19681,10.86619 -10.679191,14.15643 0.27308,-3.73683 0.830384,-3.63294 0.02144,-7.39663 -0.63674,-2.96258 -0.13269,-5.34166 -1.1591,-8.14421 -1.38916,-3.79305 -2.762961,-6.47662 -2.40709,-10.51822 0.40119,-4.55629 7.913815,-10.89279 6.994405,-15.9706 -4.29999,6.55262 -10.361124,12.8643 -10.361124,20.31866 L 57.719474,199.6516 52.97351,195.35573 50.37832,184.236 h -0.294039 l -0.18378,10.78887 -5.698549,0.53137 -5.882845,-4.00441 c 1.24932,1.9409 2.813381,5.82735 5.073721,6.38502 2.52625,0.62331 4.742551,-0.22691 7.279531,1.07738 5.65612,2.90787 8.781635,7.21356 12.301895,12.69994 2.61867,4.08127 4.435795,10.24398 3.936065,15.14507 -0.39435,3.86753 0.91335,6.90751 1.43693,10.86032 0.82853,6.25478 5.691665,9.75164 7.521504,15.58613 l -0.294038,0.31832 c -4.23007,-2.67015 -10.222276,-3.71452 -13.104236,-8.28431 -2.55828,-4.05658 -1.725642,-9.67824 -1.321172,-14.2749 0.535,-6.08019 -0.871549,-12.55753 -3.810689,-17.83781 h -0.294039 c 1.37246,5.44019 1.820348,10.62456 0.588078,16.22227 -2.59528,-0.97279 -4.52307,-2.74307 -6.17585,-5.08909 h -0.294038 c 1.03014,3.75232 4.116342,5.97087 5.300772,9.19381 0.50068,1.36238 0.943984,1.81247 0.887481,3.21163 -0.14768,3.64737 -0.0445,8.78414 2.203483,11.74037 4.14381,5.4491 12.532292,5.20769 15.726172,12.11605 1.69288,3.66171 0.294419,9.10985 0.294039,13.04107 H 75.28068 c -2.52407,-5.88857 -9.618378,-11.17421 -15.000118,-13.6772 -4.26331,-1.98285 -10.264791,-3.39684 -11.893331,-8.90592 -1.08717,-3.67773 1.660948,-5.91006 2.973978,-8.96631 1.01499,-2.36255 1.270704,-6.27394 1.272274,-8.84707 h -0.294039 l -6.911983,12.56209 c -2.71493,-5.03061 -5.876308,-14.20479 -2.264718,-19.54771 2.00769,-2.97013 7.41152,-4.70252 7.93595,-8.60051 0.55318,-4.11172 -4.229198,-9.10585 -6.112288,-12.40596 h -0.294039 c 0.5086,3.67245 3.338658,7.58861 2.709778,11.20558 -0.29842,1.71635 -1.885599,2.89761 -3.077329,3.83336 -3.63135,2.85129 -4.919004,6.53744 -8.318224,1.17919 -1.74179,-2.74562 -1.621256,-6.67257 -1.987476,-9.85573 -0.5426,-4.71643 -1.815218,-9.87188 -4.032828,-13.99656 h -0.294039 l 1.250179,12.26973 c -5.69739,-2.56193 -12.205663,-4.48916 -9.171143,-12.90587 0.60326,-1.67327 1.723293,-2.97388 2.626713,-4.45244 -1.68846,0.9473 -3.203389,2.47954 -3.823539,4.45244 h -0.294039 c -0.38366,-1.74612 -1.006885,-3.0526 -2.353345,-4.13463 0,0 0.553547,9.97037 3.148129,13.98158 2.238123,3.46013 9.886603,7.42229 9.886603,7.42229 l 1.180353,8.75456 5.336431,6.43888 1.919525,9.20661 c -4.3697,-1.60918 -7.200914,-4.95842 -10.587984,-8.1349 -1.47369,-1.38207 -3.670096,-2.88128 -4.406966,-4.90771 -1.50113,-4.12813 0.275738,-10.84293 -3.240112,-13.67617 l -0.257289,12.80859 c -5.09363,-1.79245 -9.78685,-1.19112 -12.1754102,-7.51143 -1.0023,-2.65216 -2.2406892,-5.68183 -2.5674192,-8.47784 H 5.5748568 c 0,5.1694 -0.8476275,13.02851 3.8230225,16.25573 3.8103097,2.63275 7.9192017,0.8053 11.4711317,3.90499 4.19846,3.66389 8.256838,7.64564 12.278708,11.52262 2.19972,2.12049 5.744251,3.08469 7.597601,5.56141 1.10695,1.47929 1.469309,3.67901 2.255159,5.379 1.18049,2.55375 2.878205,4.7803 4.044715,7.31635 -1.74097,-0.14861 -4.286205,0.181 -5.882845,-0.48007 -4.78768,-1.98234 -8.129527,-8.34085 -9.999907,-13.19816 h -0.294039 c 0.43978,5.44795 1.624232,10.04185 5.074232,13.77551 -4.74647,0.40512 -9.059861,2.8121 -13.218371,-1.28881 -5.72813,-5.64878 -0.860492,-14.97953 -10.384962,-17.57632 v 0.31781 c 6.35765,3.97449 3.119315,10.44705 5.036445,16.93127 -3.70851,-0.31654 -6.605827,1.24243 -10.0366568,-0.49351 -2.692,-1.36209 -4.3976549,-3.81879 -6.76444493,-5.62188 2.68027003,9.08103 10.36672273,9.04189 17.09514273,10.40958 2.67248,0.54322 5.575254,1.00318 8.198404,1.67702 v 0.63614 c -2.25075,1.26116 -3.809207,3.55907 -6.176367,4.6638 -4.9104,2.29162 -10.2849516,-0.13852 -14.9996016,-1.80041 v 0.31781 c 4.50545,3.22373 11.6172666,6.41305 16.8383766,3.73789 4.25694,-2.18115 8.348093,-5.47751 13.050563,-6.9229 10.71266,-3.29276 27.315204,1.50198 32.463844,12.40977 -6.89031,0 -12.537505,-0.8549 -19.081455,-3.21673 -4.10282,-1.48078 -8.73922,-2.16243 -9.44807,-7.28082 h -0.294039 c 0,6.39969 2.796057,8.53521 7.941117,11.13317 v 0.63614 c -3.1707,1.09269 -5.633464,3.95376 -8.823234,5.18573 -7.27141,2.80843 -11.387441,-2.30126 -17.647501,-4.86741 4.94083,7.56481 12.732701,12.57314 20.404631,8.93725 3.16483,-1.49988 7.778106,-5.65995 11.396596,-5.98103 9.39378,-0.83354 20.938815,0.84714 22.232685,12.62991 0.49441,4.50242 0.279351,8.86071 0.0956,13.35991 -0.1665,4.07611 -0.508377,13.38938 -1.888257,17.33486 -4.34302,6.80198 -7.303565,11.84456 -14.331425,13.63483 -1.80744,0.46043 -4.217706,2.03432 -5.256526,3.36775 l -0.611333,2.02623 h 15.415597 v 2.47634 h 12.361003 v -2.47634 h 0.468774 v -44.76264 h 3.1 v 44.76264 h 0.470772 v 2.47582 h 12.306226 v -2.47582 h 11.238072 l -0.21187,-2.02623 c -0.3399,-0.63767 -1.37467,-1.50511 -3.33727,-2.68252 -7.104532,-4.26223 -8.239343,-6.69095 -13.056563,-14.79393 -0.92967,-6.69187 -4.97363,-33.01379 6.26215,-38.21369 6.120033,-2.83233 13.415383,-1.27324 19.705773,-3.68091 5.80222,-2.22082 8.28129,-7.09434 14.70608,-8.09022 8.85227,-1.37215 18.38754,3.35541 24.70599,-6.31872 l -8.417,3.11631 -10.40666,-0.89009 v -0.31833 c 6.05423,-2.67185 16.29548,-5.09361 16.47083,-13.99553 h -0.29404 c -1.65166,6.07048 -7.41116,8.85771 -12.66907,10.17325 0.004,-5.09634 1.56179,-6.0256 3.55128,-10.17325 -2.15961,1.46067 -4.58006,3.43833 -5.60173,6.04356 -0.63884,1.629 -0.23899,3.90729 -1.3286,5.28392 -2.65788,3.35803 -8.14605,3.30223 -11.89333,3.62251 1.8634,-5.09151 3.92107,-10.28369 7.94112,-13.84773 4.79838,-4.25407 11.42704,-3.57253 16.59863,-7.22502 4.2281,-2.98614 9.49238,-2.55145 10.75422,-9.14556 h -0.29404 c -2.78607,4.51293 -5.10186,3.32918 -8.80814,4.83298 l -0.0151,-5.78744 h -0.29404 c -1.79883,8.40902 -5.14277,8.87106 -12.19319,10.61493 0.8322,-6.67821 4.31075,-10.73763 4.84015,-17.29463 h -0.29404 c -1.03817,4.73801 -4.33621,8.42735 -6.29315,12.72378 -0.85489,1.87693 -1.08092,4.68312 -2.38642,6.23734 -1.87934,2.23731 -4.87641,3.05362 -6.7722,5.53196 -2.47872,3.24039 -4.88468,6.98761 -6.5164,10.81485 -0.97164,2.27899 -1.23499,5.17323 -3.04477,6.89363 -2.9062,2.76269 -7.07872,2.72527 -10.57558,3.92121 l 5.00021,-11.13265 c -3.46157,2.63739 -4.69173,7.25099 -7.94164,10.01334 -2.89388,2.4597 -6.332843,1.40896 -9.705863,2.16473 -2.69133,0.60302 -5.206638,2.19485 -7.941118,2.45308 0.62078,-3.46205 1.402254,-7.13214 2.380734,-10.49652 2.34941,-8.07815 17.538377,-5.42926 25.854747,-9.18549 2.68121,-1.21104 4.83371,-2.36847 6.3345,-5.03314 0.77763,-1.38069 1.38852,-2.79825 2.52173,-3.87925 1.33163,-1.27027 4.42227,-2.86849 6.14389,-3.84962 v -0.31833 l -4.2728,0.36255 c 1.17372,-2.94204 1.37014,-4.22775 4.2728,-5.13383 v -0.31833 c -7.31788,0.64727 -7.6922,8.40853 -13.10952,12.28445 -1.40632,-4.79797 1.55688,-6.59559 0.75627,-11.32998 h -0.29403 l -3.86333,10.1787 -0.66777,4.26894 -5.1294,-0.0219 -15.9276,3.06881 c 1.2004,-2.91428 2.031458,-6.29298 4.047298,-8.71058 5.273522,-6.32452 14.007442,-7.24073 20.301962,-12.16164 5.72292,-4.47406 10.96836,-11.67451 18.29723,-12.84511 v -0.31781 c -5.54463,0.26146 -9.22453,2.4047 -13.71037,5.67753 0,0 -0.39593,-5.45023 -1.12696,-3.45131 -0.66284,1.81249 -1.14185,4.51593 -2.30994,5.98982 -5.41656,6.83447 -13.49836,4.25441 -20.071485,9.31535 1.39801,-5.6558 0.104719,-9.36252 -1.898752,-14.98736 h -0.294038 c 1.06376,6.19711 -0.778339,12.73289 -3.748509,18.25604 -1.10736,2.05916 -1.866645,3.47228 -2.920334,5.60091 -1.04303,2.10703 -1.323003,4.46913 -2.099614,6.67969 -0.903239,2.57098 -1.744124,-1.70598 -1.663465,-5.51697 0.227721,-10.75759 2.283784,-24.31602 12.072854,-29.03353 5.629953,-2.71316 12.245843,-0.26316 18.065363,-2.13165 2.51923,-0.80883 5.67619,-1.77541 7.805,-3.45669 1.22283,-0.96576 1.44539,-1.22345 3.01547,-1.40534 4.68374,-0.54262 8.20009,-0.308 12.4148,0.66451 2.24228,0.51734 4.35151,-0.0441 6.47041,-0.78962 v -0.31781 c -4.44706,-0.98514 -4.98604,0.0694 -8.7112,-1.90143 0,0 6.21817,0.16226 6.65189,-7.95947 -1.53865,1.37887 -2.00314,3.5847 -3.54139,4.96508 -3.23899,2.90657 -7.23805,1.11624 -10.95637,0.0758 -0.50973,-4.36394 3.59826,-11.84957 3.61574,-18.71859 h -0.29404 l -5.29875,11.75053 c -6.23731,-5.50384 -5.89555,-11.50347 -7.64258,-20.65748 h -0.29404 c 0.60906,5.10063 -0.25087,11.11969 1.60765,15.90445 0.86722,2.23273 1.37315,5.19729 2.94132,6.90387 0.72037,0.78394 1.41738,1.52988 1.4535,2.74908 0.0394,1.33185 0.034,2.17746 -0.73509,3.07082 -2.96142,3.43969 -6.46439,4.89675 -10.56111,6.04356 1.75241,-3.61719 2.05659,-6.49814 1.76475,-10.49703 h -0.29404 c -0.84728,1.38634 -1.43977,3.1115 -1.81576,4.44546 -2.5434,9.02357 -6.64813,4.61206 -12.77777,6.19037 0.49759,-6.81863 0.90839,-10.80134 4.00451,-16.67939 -5.994295,3.02313 -7.10144,13.53179 -7.48621,15.14399 -0.34539,1.44722 0.855929,0.10426 -1.474791,1.05827 -0.0312,-4.07326 0.921224,-4.73336 -0.154926,-8.63859 -0.48636,-1.76493 -1.915267,-3.44911 -1.738497,-5.2434 0.19236,-1.95266 2.466603,-4.60284 3.539213,-6.22902 2.35987,-3.5778 3.242291,-8.14523 3.253441,-12.52281 h -0.294036 c -0.60321,4.41733 -3.748578,7.8838 -6.435838,11.20929 -0.7098,0.87837 -1.520267,2.77322 -2.805407,2.32229 -1.1582,-0.40636 -0.941415,-2.70985 -1.279105,-3.80639 -1.21495,-3.94499 -1.78633,-6.5057 -1.26575,-10.64173 0.31513,-2.5038 1.373837,-7.17161 0.904077,-9.58049 z m 46.61111,49.93752 0.19585,0.10542 z"
       sodipodi:nodetypes="cccccccssssccsscccssscccccccccsssssccsscccccsccsccssscccssccscsscccsccccsccccssccsccssssscccccscccscsccsccsscsccccscsssscsccccccccccccccccscsssccccccccsscssccccccccsssssccsscssssccccccccccccsscccsccccsssssssssccccsccccccsscscccsccscsssccsscsccccc" /><path
       id="path1-2"
       style="display:inline;fill:none;fill-opacity:1;stroke:#000000;stroke-width:0.05;stroke-dasharray:none;stroke-opacity:1"
       inkscape:label="Strom NORMAL 1"
       d="M 88.33621,0.09095052 C 87.01723,3.5677085 85.468298,7.0755726 85.394788,10.905278 l -2.060857,-5.548499 -0.144835,7.601562 2.499701,11.492475 5.588319,13.172727 c -5.6077,-0.478627 -3.080007,-9.589058 -8.080127,-11.638566 2.2159,3.399662 0.202755,10.206494 2.129515,12.439217 1.12687,1.30581 2.799671,3.266355 3.914181,4.745335 1.1757,1.56019 -1.207724,4.544438 -1.642414,6.431578 -0.49418,2.14546 -2.784661,4.203959 -3.919141,6.043559 -0.38496,0.6242 -0.76227,1.263795 -1.12913,1.915645 v 62.530549 h -3.100028 l 5.6e-5,-56.605846 c -1.343683,0.895388 -1.175949,3.051852 -1.758129,4.564062 h -0.588078 c -1.5907,-3.68975 -5.130521,-6.03015 -4.631701,-10.74061 0.20096,-1.89784 1.023715,-2.911002 2.085095,-4.350482 2.28307,-3.09636 0.629155,-9.84868 -0.136435,-14.477645 h -0.294038 c -0.53696,5.469725 0.06626,9.513126 -3.491314,12.874216 0.27308,-3.73662 0.190427,-5.032949 -0.618513,-8.796429 -0.63674,-2.962412 -2.398704,-5.467384 -3.425114,-8.26978 -1.38916,-3.792833 -0.385463,-7.786486 -0.02959,-11.827868 0.40119,-4.556031 1.512026,-13.3558995 -2.301014,-16.7977745 2.24214,7.1813635 -1.177189,15.1281295 -1.177189,22.5820845 l -5.8937,-6.849195 -3.737015,-4.295862 -3.604139,-11.1192175 h -0.294039 l 1.470194,11.4499475 -7.352523,-0.129708 -5.882845,-4.004407 c 1.24932,1.9408 2.961843,6.093493 5.222183,6.651136 2.52625,0.623278 4.161682,-0.922291 6.698662,0.38193 5.65612,2.907704 9.053342,8.354178 12.573602,13.840261 2.61867,4.081045 4.143197,10.107724 3.643467,15.008554 -0.39435,3.86732 1.366648,6.33067 1.890228,10.28326 0.82853,6.25442 5.691664,9.751442 7.521504,15.585612 l -0.294038,0.31781 c -4.23007,-2.67 -11.324925,-3.383453 -14.206885,-7.953003 -2.55828,-4.05634 -1.835907,-10.669852 -1.431437,-15.266252 0.535,-6.07986 0.341365,-11.895706 -2.597775,-17.175696 h -0.294039 c 1.37246,5.43989 1.460009,9.110926 0.227739,14.708326 -2.59528,-0.97273 -4.162731,-1.229255 -5.815511,-3.575155 h -0.294039 c 1.03014,3.75211 5.108726,4.757105 6.293156,7.979875 0.50068,1.3623 -0.0484,3.025456 -0.104903,4.424536 -0.14768,3.64717 -0.0445,8.783782 2.203483,11.739852 4.14381,5.4488 12.532292,5.207033 15.726172,12.115023 1.69288,3.66151 0.294419,9.109547 0.294039,13.040547 H 74.75151 c -2.52407,-5.88825 -9.618378,-11.173834 -15.000118,-13.676684 -4.26331,-1.98273 -10.264791,-3.39662 -11.893331,-8.9054 -1.08717,-3.67752 1.660948,-7.122627 2.973978,-10.178707 1.01499,-2.36242 1.270704,-5.060652 1.272274,-7.633642 H 51.810274 L 45.339351,69.00354 c -2.71493,-5.03033 -6.317368,-15.637495 -2.705778,-20.980115 2.00769,-2.96997 7.41152,-4.702205 7.93595,-8.599992 0.55318,-4.111487 -4.229198,-9.10551 -6.112288,-12.405444 h -0.294039 c 0.5086,3.672253 4.882367,8.139619 4.253487,11.756388 -0.29842,1.716253 -2.767718,2.897151 -3.959448,3.832841 -3.63135,2.85114 -4.42751,4.97687 -7.82673,-0.38108 -1.74179,-2.74547 -1.765391,-5.23087 -2.131611,-8.413856 -0.5426,-4.716173 -2.824167,-10.303477 -5.041777,-14.427935 h -0.294039 l 2.352828,13.041581 C 25.818516,29.86414 18.207594,27.164459 21.242114,18.74821 c 0.60326,-1.67317 1.723293,-2.973958 2.626713,-4.452442 -1.68846,0.947253 -3.203389,2.479659 -3.823539,4.452442 h -0.294039 c -0.38366,-1.746015 -1.006885,-3.052659 -2.353345,-4.134632 0,0 0.900756,12.343159 1.870672,13.55524 1.577433,1.971282 11.436628,8.366468 11.436628,8.366468 l 2.120699,7.022262 5.446696,7.321 0.596346,9.536886 c -4.3697,-1.60909 -6.336101,-5.606697 -9.723171,-8.782997 -1.47369,-1.38199 -3.742163,-2.737265 -4.479033,-4.763575 -1.50113,-4.1279 -0.517008,-10.338088 -4.032858,-13.171177 l 1.176155,13.359391 C 16.716408,45.264736 9.0460348,45.425076 6.6574748,39.105107 5.6551748,36.453103 5.9604946,33.312855 5.6337646,30.517 H 5.0456868 c 0,5.169118 -1.5683053,12.557864 3.1023447,15.784904 3.8103095,2.63261 9.0175245,1.580102 12.5694545,4.679622 4.19846,3.66368 8.540783,6.458375 12.562653,10.335145 2.19972,2.12038 5.082661,3.966954 6.936011,6.443534 1.10695,1.47921 1.469309,3.678573 2.255159,5.378483 1.18049,2.5536 2.878205,4.779923 4.044715,7.315833 -1.74097,-0.1486 -4.286205,0.181999 -5.882845,-0.479041 -4.78768,-1.98222 -8.129527,-8.341121 -9.999907,-13.198161 h -0.294039 c 0.43978,5.44765 1.484604,9.825778 4.934604,13.559238 -4.74647,0.4051 -8.597367,2.767977 -12.755877,-1.332713 -5.72813,-5.64846 -1.183358,-14.719486 -10.707828,-17.316136 v 0.31781 c 6.35765,3.97426 4.552759,11.328996 6.469889,17.812866 -3.70851,-0.31652 -8.039271,0.360213 -11.4701008,-1.375627 -2.692,-1.36202 -4.397655,-3.818889 -6.76444494,-5.621879 2.68026994,9.08053 10.48227374,9.301099 17.21069374,10.668719 2.67248,0.54319 5.459703,0.743565 8.082853,1.417365 v 0.636137 c -2.25075,1.26109 -3.809207,3.558621 -6.176367,4.663281 -4.9104,2.2915 -10.2849516,-0.138607 -14.9996016,-1.800407 V 88.7243 c 4.50545,3.22355 11.8377966,5.751308 17.0589066,3.076298 4.25694,-2.18103 7.682539,-5.54395 12.385009,-6.98926 10.71266,-3.29259 27.760228,2.230015 32.908868,13.137205 -6.89031,0 -13.750419,0.247617 -20.294369,-2.114083 -4.10282,-1.48071 -7.526306,-3.26484 -8.235156,-8.38295 h -0.294039 c 0,6.39933 0.126942,9.134539 5.272002,11.732359 v 0.63562 c -3.1707,1.092631 -4.326142,1.828391 -7.515912,3.060301 -7.27141,2.80828 -10.025648,-0.77515 -16.285708,-3.341163 4.94083,7.564403 13.504555,10.036333 21.176485,6.400643 3.16483,-1.4998 6.773829,-3.96076 10.392319,-4.28183 9.39378,-0.83349 21.171237,1.68416 22.465107,13.46628 0.49441,4.50217 0.279351,8.85992 0.0956,13.35888 -0.1665,4.07588 -0.508377,13.38908 -1.888257,17.33434 -4.34302,6.80161 -7.303565,11.84414 -14.331425,13.63431 -1.81128,0.46138 -4.228064,2.041 -5.263244,3.37602 0,0 -0.535914,1.24741 -0.425814,1.45263 v 0.5736 H 66.62074 v 2.45825 h 12.361002 v -2.45825 h 4.039547 v 2.45773 h 12.305709 v -2.45773 h 11.417392 l -0.38654,-2.02623 c -0.33508,-0.63845 -1.37035,-1.50858 -3.34192,-2.69131 -7.104531,-4.26198 -8.239343,-6.69035 -13.056563,-14.79289 -0.92967,-6.69151 -4.97363,-33.01151 6.26215,-38.21111 6.120033,-2.83218 13.415383,-1.27337 19.705773,-3.68091 5.80222,-2.2207 8.28129,-8.505906 14.70608,-9.501746 8.85227,-1.37207 18.38754,4.766416 24.70599,-4.907194 l -8.7281,2.605343 -10.09556,-0.378605 v -0.318327 c 6.05423,-2.6717 16.29548,-5.094088 16.47083,-13.995528 h -0.29404 c -1.65166,6.07015 -7.5571,8.202163 -12.81501,9.517623 0.004,-2.789881 1.70773,-5.370193 3.69722,-9.517623 -2.15961,1.46059 -4.58006,3.438468 -5.60173,6.043558 -0.63884,1.6289 -2.18482,3.762713 -3.27443,5.139263 -2.65788,3.35784 -6.77676,2.942437 -10.52404,3.262697 1.8634,-5.09123 4.49761,-9.778903 8.51766,-13.342743 4.79838,-4.25384 11.80319,-4.344465 16.97478,-7.996745 4.2281,-2.98598 9.11623,-1.779565 10.37807,-8.373315 h -0.29404 c -1.88783,4.641 -4.91908,3.009349 -8.62536,4.513069 l -0.19787,-5.467016 h -0.29404 c -1.79883,8.40856 -6.63517,9.808807 -13.68559,11.552587 0.8322,-6.67785 5.80315,-11.675643 6.33255,-18.232283 h -0.29404 c -1.03817,4.73775 -5.9217,7.850512 -7.87864,12.146712 -0.85489,1.87682 -1.00885,5.043555 -2.31435,6.597685 -1.87934,2.23719 -3.36299,3.269448 -5.25878,5.747648 -2.47872,3.24022 -4.88468,6.987297 -6.5164,10.814327 -0.97164,2.27886 -1.23499,5.172303 -3.04477,6.892603 -2.9062,2.76254 -7.07872,2.725844 -10.57558,3.92172 l 5.00021,-11.13265 c -3.46157,2.63725 -4.69173,7.251659 -7.94164,10.013859 -2.89388,2.459581 -6.332844,1.407961 -9.705864,2.163691 -2.69133,0.60299 -5.206638,2.19487 -7.941118,2.45308 0.62078,-3.46186 0.693525,-7.425392 2.380734,-10.495998 4.098453,-7.458908 17.538378,-4.059652 25.854748,-7.815682 2.68121,-1.21097 4.97785,-4.2826 6.47864,-6.94713 0.77763,-1.38061 1.24856,-2.921565 2.38177,-4.002505 1.33163,-1.2702 4.41809,-2.199561 6.13971,-3.180631 v -0.318843 l -5.88233,1.27279 c 1.17372,-2.94187 2.97967,-5.137529 5.88233,-6.043559 v -0.318326 c -7.31788,0.64724 -7.82381,8.996282 -13.24113,12.871982 -1.40632,-4.7977 1.68849,-7.183399 0.88788,-11.917519 H 117.398 l -4.42168,9.168725 -0.70738,4.371226 -4.28277,1.817768 -16.17627,2.135787 c 1.2004,-2.91413 2.031458,-6.292592 4.047298,-8.710062 5.273522,-6.32416 14.141682,-7.802213 20.436202,-12.722863 5.72292,-4.47382 10.83412,-11.112306 18.16299,-12.282846 v -0.31781 c -5.54463,0.26144 -9.64266,1.359101 -14.1285,4.631741 l 0.59961,-8.448046 -1.59126,0.144136 c -8e-4,2.13629 -0.13923,3.539757 -0.87026,5.538567 -0.66284,1.81239 -2.51114,4.731692 -3.67923,6.205502 -5.41656,6.8341 -11.00675,4.755933 -17.579872,9.816593 1.39801,-5.65548 0.135475,-9.719426 -1.867995,-15.343946 h -0.294038 c 1.06376,6.19676 0.216332,12.60733 -2.753838,18.13016 -1.10736,2.05905 -2.861316,3.596712 -3.915006,5.725232 -1.04303,2.10691 -1.323003,4.468748 -2.099613,6.679178 -0.90324,2.57084 -0.974618,1.656747 -0.974618,1.656747 -4e-4,-3.81669 -0.217086,-1.874661 -0.136426,-5.685441 0.22772,-10.757 1.855697,-26.983648 11.644767,-31.700908 5.629949,-2.713 12.121509,-0.263272 17.941029,-2.131652 2.51923,-0.80879 4.93019,-1.961999 7.059,-3.643189 1.22283,-0.96572 1.26902,-0.987041 2.8391,-1.168921 4.68374,-0.54259 9.12246,0.823296 13.33717,1.795756 2.24228,0.51732 4.35151,-0.04364 6.47041,-0.789099 v -0.318327 c -4.07406,0.56901 -5.98071,0.380619 -9.70587,-1.590084 v -0.31781 c 4.72454,-0.417332 6.09384,-3.622655 7.64656,-7.951969 -1.53865,1.378797 -3.58863,2.864098 -5.12688,4.244394 -3.23899,2.906405 -5.0249,1.58382 -8.74322,0.54344 2.90945,-5.979951 2.9706,-11.596395 2.98808,-18.465035 h -0.29404 l -4.54999,12.235845 C 118.63131,24.09143 120.02715,18.041335 118.28012,8.8878296 h -0.29404 c 0.60906,5.1003424 -1.33189,11.6239134 0.52663,16.4084124 0.86722,2.232602 2.53176,4.345811 4.09993,6.052303 0.72037,0.78389 1.52467,1.274142 1.56079,2.493276 0.0394,1.331773 -1.23186,2.346443 -2.00099,3.239761 -2.96142,3.439493 -5.0951,4.248209 -9.19182,5.394949 1.75241,-3.616991 1.76832,-5.416305 1.47648,-9.414983 h -0.29404 c -0.10128,1.386267 -1.53135,3.941321 -1.85974,5.287715 -2.1704,8.898737 -7.09435,2.536575 -13.223984,4.114795 0.49759,-6.818255 1.398584,-9.568336 4.494704,-15.446069 -5.994295,3.022963 -7.767091,11.132803 -8.151861,12.744913 -0.34539,1.44714 0.952175,2.098554 -1.378545,3.052514 -0.0312,-4.07305 0.744625,-3.831926 -0.331525,-7.736937 -0.48636,-1.764837 -2.288269,-4.567181 -2.111499,-6.361369 0.19236,-1.952551 3.33694,-4.416956 4.40955,-6.043042 2.35987,-3.577606 3.490962,-7.709779 3.502112,-12.087117 h -0.294039 c -0.60321,4.417091 -2.69174,8.442967 -5.379,11.768274 -0.7098,0.878318 -2.390604,3.208875 -3.675744,2.757971 -1.1582,-0.406332 -1.679241,-2.932738 -2.016931,-4.029212 C 86.931608,17.139209 86.470493,12.814339 86.991073,8.67854 87.306203,6.174876 88.80597,2.4996965 88.33621,0.09095052 Z m 46.61111,49.93441948 0.19585,0.10542 z"
       sodipodi:nodetypes="cccccccssssccccccsscccsssccccccccccccscccsscccccsccsccssscccssccscscccccccccsccccscccsccsccsscccccccccsccccsccsccsccccscscsccscccccccccccccscsssccccccccsscssccccccccscsssccsscsssscccccccccccccscccccsccccscsccssssccccccsccccccssccccccccscsssccsccscccc" /></g><g
     inkscape:groupmode="layer"
     id="layer3"
     inkscape:label="Engrave"><path
       id="rect2"
       style="fill:#770000;stroke-width:0.0511908"
       d="m 62.586738,343.04177 h 38.533202 v 5.92103 H 62.586738 Z"
       sodipodi:nodetypes="ccccc" /><path
       id="rect2-2"
       style="fill:#770000;stroke-width:0.0511908"
       d="m 61.300129,164.79671 h 38.533207 v 5.92103 H 61.300129 Z"
       sodipodi:nodetypes="ccccc" /></g></svg>
