<?xml version="1.0" encoding="UTF-8" standalone="no"?>
<!-- Created with Inkscape (http://www.inkscape.org/) -->

<svg
   width="500mm"
   height="500mm"
   viewBox="0 0 500 500"
   version="1.1"
   id="svg1"
   inkscape:version="1.4.2 (2aeb623e1d, 2025-05-12)"
   sodipodi:docname="Stromy.svg"
   xml:space="preserve"
   xmlns:inkscape="http://www.inkscape.org/namespaces/inkscape"
   xmlns:sodipodi="http://sodipodi.sourceforge.net/DTD/sodipodi-0.dtd"
   xmlns="http://www.w3.org/2000/svg"
   xmlns:svg="http://www.w3.org/2000/svg"><sodipodi:namedview
     id="namedview1"
     pagecolor="#ffffff"
     bordercolor="#000000"
     borderopacity="0.25"
     inkscape:showpageshadow="2"
     inkscape:pageopacity="0.0"
     inkscape:pagecheckerboard="0"
     inkscape:deskcolor="#d1d1d1"
     inkscape:document-units="mm"
     inkscape:zoom="0.31915644"
     inkscape:cx="585.91955"
     inkscape:cy="717.51646"
     inkscape:window-width="1920"
     inkscape:window-height="1043"
     inkscape:window-x="0"
     inkscape:window-y="0"
     inkscape:window-maximized="1"
     inkscape:current-layer="layer1"
     showgrid="false"
     showguides="false" /><defs
     id="defs1" /><g
     inkscape:label="Layer 1"
     inkscape:groupmode="layer"
     id="layer1"
     style="display:inline"><path
       id="path3"
       style="display:inline;fill:#000000;fill-opacity:1;stroke:none;stroke-width:0.415006"
       inkscape:label="Strom EVIL"
       d="M 61.327521,2.6066607e-4 C 60.904101,0.00893267 60.514211,0.23536267 60.221651,0.84000267 c -0.15309,0.31626703 -0.06367,0.72459703 -0.0646,1.09760803 -0.0037,0.084403 -0.01499,0.173411 -0.01964,0.260966 -0.01531,0.081796 -0.03959,0.160383 -0.07854,0.23306 l 0.05891,0.021704 c -0.04157,0.544883 -0.11869,1.090849 -0.4098,1.437639 -0.78579,0.93611 1.06597,3.245935 2.14457,2.602425 0.59031,2.33955 -1.58808,2.075792 -3.05149,3.134692 -1.91718,1.3872003 -4.70489,3.8645413 -5.31389,6.1438113 -0.76036,-0.5503 -2.40012,-2.201138 -2.22157,-3.199288 0.11598,-0.64822 0.8798,-1.277136 1.25884,-1.813326 0.86326,-1.2212003 2.04303,-2.8011593 2.31976,-4.2658893 h -0.11317 c -0.94102,1.42099 -2.41904,3.6589833 -4.06952,4.3723433 -0.18451,-0.9411403 0.25069,-1.3837673 0.50746,-2.2396573 0.40865,-1.36218 0.19934,-2.435975 1.2578,-3.624585 0.81038,-0.90999 2.05282,-1.486771 2.64377,-2.561601 h -5.2e-4 c -4.27358,1.28717 -6.62214,6.257079 -5.66528,10.2391693 0.5597,2.32923 2.16312,4.299856 2.56366,6.719486 0.42949,2.59464 -0.34921,5.05335 -0.74207,7.57266 -1.01007,-0.84592 -1.6193,-2.07507 -2.60966,-2.95537 -2.26046,-2.00927 -5.86738,-2.50754 -8.807215,-1.63039 v 0.10645 c 1.953345,0 4.680425,0.46751 6.196005,1.74822 1.33986,1.1322 2.27316,4.05793 2.28358,5.71799 0.006,0.80883 -0.92419,1.28686 -1.46916,1.81333 -0.835,0.80666 -1.39501,1.71854 -1.80454,2.77244 -2.11997,5.45562 -4.708875,14.57315 -10.235035,18.24643 0.37695,-1.9158 0.140117,-5.29545 0.230477,-7.24245 0.1459,-3.14347 2.654472,-6.52959 3.329512,-9.61699 -1.02416,0.7815 -2.330047,2.52698 -3.935677,1.67277 -0.89357,-0.47539 -0.693609,-2.14454 -0.699699,-2.95279 -0.0223,-2.96907 0.282712,-5.80618 0.678512,-8.74572 -1.34736,1.0534 -1.379342,3.28366 -1.582332,4.79919 h -0.113172 l 1.130681,-12.37185 h -0.113172 l -2.713013,9.38599 h -0.113171 c 0,-2.23841 -4.137863,-4.7961 -4.303613,-7.02748 -0.13475,-1.81403 -0.142963,-3.960517 -0.914673,-5.652887 h -0.113171 c -0.006,2.15202 -0.46163,4.376127 -0.77618,6.506067 -0.64697,4.38096 1.335953,10.02955 0.617533,14.40015 -0.48339,2.94075 -1.082621,5.87003 -1.082621,8.85217 -0.92112,-0.24846 -5.231553,-1.97962 -5.766573,-2.77864 -0.44672,-0.66716 -0.236617,-1.50287 -0.227377,-2.235 0.013,-1.03355 -0.117592,-2.00068 -0.451652,-2.98639 h -0.113171 l -0.677995,4.79919 C 13.738919,40.20262 8.826251,38.93759 8.418091,34.76972 8.248661,33.03945 9.156547,31.20723 9.156547,29.43722 H 9.043892 L 6.783048,33.16981 C 5.865588,31.31048 6.020483,29.15764 6.421313,27.19705 7.345383,22.67712 9.968078,17.944293 13.904578,15.145073 v -0.10697 c -3.06873,1.05404 -6.24863,3.744417 -7.68687,6.506067 -0.58787,1.12883 -0.916434,2.52492 -1.291394,3.7331 -0.35656,1.14891 -0.796034,2.31045 -0.852144,3.51968 -0.0644,1.38732 0.35003,2.81946 0.68678,4.15996 0.32967,1.31239 0.417531,3.43646 1.381311,4.47001 1.36416,1.46293 3.368574,2.43958 5.049304,3.53208 1.83953,1.19572 3.486053,2.55379 5.199683,3.8995 1.44935,1.13819 3.063843,2.28942 3.792533,3.99046 1.15772,2.7025 0.706532,5.8581 0.309542,8.63875 -0.52384,3.66907 0.563694,7.22647 0.460954,10.92905 -2.84632,-0.64677 -8.763362,-0.43609 -9.676412,-3.7822 -0.18376,-0.67344 -0.02963,-1.35049 0.02687,-2.02675 l 0.677995,-0.10697 v -0.10645 l -0.564823,-0.10697 c 0.54347,-1.33919 1.211595,-2.81532 1.243335,-4.26641 H 12.548071 C 11.833421,58.9597 10.7935,59.96284 10.51357,61.11436 9.52684,60.42325 8.695562,59.2563 7.929232,58.3507 7.702052,58.08224 7.14155,57.70587 7.37526,57.30839 7.60451,56.91849 8.427466,57.06086 8.818066,57.06086 8.210606,56.2912 6.259937,55.25876 5.361947,56.14309 4.842557,56.6546 5.210038,57.2199 5.088578,57.8081 4.952998,58.46461 4.48571,58.90151 4.53254,59.62091 c 0.0254,0.39031 0.495228,2.13349 1.119828,1.70636 H 5.76554 C 5.67024,62.15534 5.040566,63.08454 4.070036,62.59282 2.525266,61.81015 1.78478,60.31332 0,59.83433 c 0.86719,1.16262 1.985837,3.01378 3.175517,3.87832 1.66142,1.20741 3.771407,1.8316 5.416207,3.1042 1.67314,1.29452 2.793969,3.07245 4.634859,4.19355 1.2379,0.75387 2.358656,1.35324 3.843176,1.51102 0.53355,0.0568 1.680957,0.36352 2.257227,0.37155 1.47035,0.0204 0.992659,2.58114 1.250569,3.89795 0.36967,3.60427 1.228071,6.89379 1.395781,10.50737 0.2177,4.69115 0.336087,1.70469 0.126607,8.59948 -0.23608,7.77063 -0.864515,8.06615 -1.877405,12.36513 -0.48996,1.21207 -1.117376,2.38471 -1.939416,3.50108 -0.95871,1.30198 -1.622732,2.31186 -2.162142,3.11299 -1.42812,1.77673 -3.004274,3.01138 -5.930904,3.82871 -0.35657,0.0847 -0.742326,0.17275 -1.160136,0.26561 -1.22381,0.27197 -2.760933,1.04972 -3.823023,1.86036 l -1.646411,1.93114 -1.381828,2.67684 H 27.936279 V 78.4518 h 3.975468 v 46.98783 h 22.768124 l -1.38183,-2.62826 -1.46865,-1.97972 c -0.49275,-0.37383 -1.21587,-0.81421 -2.20658,-1.33274 -2.32942,-1.21921 -3.92686,-2.06641 -5.23276,-2.96881 -0.74885,-0.79296 -1.35497,-2.00945 -3.4494,-5.07721 -2.041322,-2.99 -2.061852,-12.03873 -2.616892,-15.42697 -0.2301,-7.54212 0.73012,-6.04757 1.27279,-8.98911 0.27039,-1.46576 1.327912,-2.87659 1.878952,-4.26641 0.53839,-1.35791 0.87194,-2.72882 1.7415,-3.94601 1.26163,-1.76595 4.45537,-1.52967 6.17378,-2.87528 0.74787,-0.58564 1.66761,-1.09137 2.26033,-1.82211 -2.92753,2.9e-4 -3.41532,0.45377 -5.96036,1.45883 0.36859,-1.20728 0.0566,-0.33518 0.40411,-1.56528 0.28777,-1.01821 0.18541,-2.2823 0.75034,-3.19981 1.13109,-1.83702 3.09441,-3.08834 4.41214,-4.79919 1.25348,-1.62744 2.07222,-4.15579 2.65513,-6.07973 -1.30731,0.86947 -1.7523,2.30961 -2.60036,3.51968 -0.93226,1.3302 -1.93266,2.08234 -3.27835,2.98638 l 0.11317,-3.7331 h -0.11317 l -1.35599,3.7331 h -0.11317 c -1.88888,-5.47719 1.58164,-9.76777 3.73052,-14.61202 -3.30417,1.18201 -4.5861,5.20705 -5.4591,8.10596 -2.08049,6.90857 -2.75534,14.02844 -7.989691,19.73575 -0.89577,-4.51916 -0.457688,-4.39536 -0.04186,-9.82989 0.0924,-1.27162 0.139606,-2.56422 0.123506,-3.84008 -0.008,-0.6334 -0.231374,-1.29387 -0.04082,-1.91978 0.73798,-2.42313 2.184512,-4.59041 3.696932,-6.612 1.462495,-1.95481 2.719115,-4.09075 3.938775,-6.18618 0.54297,-0.93283 0.99592,-2.03311 1.68,-2.8789 0.84575,-1.04567 2.29972,-1.78789 3.32952,-2.68665 3.9599,-3.45602 7.44936,-7.84327 13.33768,-7.97936 0.95093,-0.0219 1.96446,-0.055 2.82619,0.38757 0.95493,0.49028 1.56368,1.44663 2.31303,2.16214 0.98958,0.94494 2.42779,1.87844 3.79099,2.24896 -1.42861,-1.91384 -3.31902,-4.4776 -5.42603,-5.75004 -1.21979,-0.73665 -2.90506,-1.14519 -4.29534,-1.50326 v -0.31988 l 2.71301,-1.66812 5.08651,-0.47387 7.12205,-0.41754 v -0.10646 l -5.65237,-0.85318 V 31.3446 h 0.45217 l -1.24334,-2.34663 c 0.88013,0.31527 1.44675,-0.93381 1.6397,-1.5999 0.32748,-1.13037 -0.26167,-1.64133 -0.47336,-2.6665 -0.10466,-0.50696 0.23515,-0.98145 0.15141,-1.49293 -0.28939,-1.76768 -2.00801,-1.15155 -3.12642,-0.73639 -0.63219,0.23464 -1.2518,0.33841 -1.58285,0.94929 0.52095,0 1.76976,-0.19152 1.84691,0.5364 0.0533,0.50254 -0.7854,1.04553 -1.10329,1.38183 -1.0391,1.09923 -2.65607,2.11331 -3.23029,3.52175 h 1.46916 v 0.10645 l -3.27784,0.96015 1.24334,0.21291 -0.11266,0.21342 2.03399,-0.32039 c 0.079,0.43728 1.1992,-0.20377 1.58285,-0.14521 0.64633,0.0986 0.66188,0.73352 0.79168,1.21233 -2.34246,0.45777 -4.97335,0.82194 -7.2347,1.70739 -1.72577,0.67574 -3.09588,1.91074 -4.63486,2.87889 -2.58866,1.62847 -5.33475,3.05016 -7.57421,5.11958 0.66702,-1.93483 1.20349,-3.93524 2.17661,-5.75985 0.97379,-1.82587 2.3528,-3.44074 2.93987,-5.43946 0.20771,-0.70716 0.12003,-1.42814 0.29869,-2.13269 0.72372,-2.85391 1.62846,-5.63968 2.20297,-8.53281 0.34949,-1.75979 0.31808,-3.826638 1.19734,-5.439978 0.60194,-1.10452 1.67835,-1.9975 2.71508,-2.73265 2.56597,-1.8195503 6.04836,-3.5775873 9.2692,-3.9868373 v -0.106453 l -5.65185,0.640271 c -0.22785,-1.75002 2.71486,-1.331161 3.73052,-2.560051 l -2.60036,0.212907 v -0.106453 l 0.90434,-0.319877 v -0.106454 l -3.05408,-1.235067 c -1.6e-4,-1.85e-4 -3.6e-4,-3.31e-4 -5.1e-4,-5.16e-4 -0.23489,-0.273163 -0.46708,-0.55458 -0.34055,-0.858863 0.28099,-0.675912 1.42344,-0.136795 1.92288,0.011369 -0.14364,-0.679807 -0.70812,-0.955889 -1.24747,-1.36064 -0.59634,-0.44756403 -1.39494,-1.03713003 -2.10065,-1.02267703393 z m 0.55707,0.66507600393 0.50282,0.066662 c -0.06072,0.176088 -0.38163,0.237706 -0.56379,0.137976 z m 1.00408,5.80533003 v 5.17e-4 c 0.60408,0.01 1.35412,1.259722 0.09456,1.440222 -0.22332,0.032 -0.45684,-0.010239 -0.67902,-0.032039 0.0709,-0.36024 0.02149,-0.930467 0.24701,-1.233517 0.0935,-0.12569 0.21207,-0.177103 0.33745,-0.175183 z m 6.94014,16.0486333 0.50126,0.07906 v 0.21343 c -0.203,0.0438 -0.37933,-0.15169 -0.50126,-0.29249 z m -0.262,6.93498 c 0.14712,-0.003 0.30601,0.06139 0.46561,0.21755 0.17189,0.1682 0.27727,0.40334 0.39532,0.60565 0.14458,0.2478 0.26481,0.47776 0.35502,0.74673 -0.48892,0.0539 -0.81348,0.4159 -1.35444,0.27337 -1.01126,-0.26646 -0.57037,-1.82976 0.13849,-1.8433 z M 6.330363,56.20768 H 6.89622 c -0.20034,0.286 -0.365517,0.286 -0.565857,0 z m 3.27887,5.22656 h 0.564823 c 0.0593,0 0.09113,0.005 0.101286,0.01395 h 5.17e-4 v 5.2e-4 l 5.16e-4,5.1e-4 v 5.2e-4 5.2e-4 h 5.17e-4 v 5.1e-4 l 5.17e-4,5.2e-4 v 5.2e-4 5.1e-4 l 5.17e-4,5.2e-4 v 5.2e-4 5.1e-4 c 4e-5,2.8e-4 -1e-5,0.0011 0,0.0021 v 5.2e-4 5.1e-4 l -5.17e-4,5.2e-4 v 5.2e-4 c -0.0183,0.0627 -0.770933,0.22007 -0.668693,-0.02222 z m -3.063379,0.3762 c 0.69398,-0.0168 0.7737,1.97636 -0.42168,1.50585 -0.21125,-0.0831 -0.401677,-0.26297 -0.584977,-0.38912 0.10933,-0.22054 0.220652,-0.4361 0.366902,-0.6382 0.24576,-0.33957 0.462865,-0.47425 0.639755,-0.47853 z m 1.519804,0.35244 c 0.53469,0.0163 1.439322,0.69228 1.317232,0.23151 0.46686,0.32142 0.293411,1.06947 -0.241329,1.29087 C 8.461551,63.9668 7.912695,63.56744 7.912695,63.56744 L 7.461043,63.24756 c 0,-0.41833 -0.0032,-0.92382 0.451652,-1.06712 0.0458,-0.0144 0.152963,0.03464 0.152963,-0.01756 z" /><path
       id="path3-5"
       style="display:inline;fill:#000000;fill-opacity:1;stroke:none;stroke-width:0.415006"
       inkscape:label="Strom EVIL"
       d="m 9.579002,145.17951 c -0.95612,-0.0428 -2.164137,0.68753 -2.617412,1.26659 0.390591,-0.002 1.212512,-0.14712 1.443323,0.24185 0.235292,0.39655 -0.323219,0.77501 -0.549321,1.04438 -0.762701,0.90866 -1.589535,2.07893 -2.573486,2.77399 -0.557074,0.47147 -0.04149,0.059 -0.870748,0.69246 l -0.894002,0.64183 0.42323,0.0227 -0.262516,0.33848 1.92443,-0.32091 0.815454,-0.0997 c -0.120232,0.46127 0.781586,-0.21756 1.316199,-0.23616 2.16e-4,0.0521 0.107162,0.002 0.152962,0.0165 0.328043,0.28301 0.496978,0.57594 0.498678,0.99426 l 0.170532,0.69711 -0.389124,0.88729 h -5.16e-4 c -1.01543,0.98247 -1.87047,2.07694 -2.446363,3.18275 -0.58787,1.12883 -0.916941,2.52492 -1.291911,3.7331 -0.35655,1.14891 -0.795517,2.30994 -0.851627,3.51917 -0.0644,1.38732 0.35003,2.81997 0.68678,4.16047 0.32966,1.31239 0.417541,3.43646 1.381311,4.47001 1.36417,1.46293 3.368564,2.43907 5.049304,3.53157 1.83953,1.19572 3.486063,2.55379 5.199683,3.8995 1.44936,1.13819 3.063853,2.28993 3.792533,3.99097 1.15773,2.7025 0.706532,5.8581 0.309542,8.63875 -0.52383,3.66907 0.563694,7.22595 0.460954,10.92853 -2.84632,-0.64677 -8.763372,-0.43609 -9.676412,-3.7822 -0.18376,-0.67344 -0.02973,-1.35049 0.02687,-2.02675 l 0.113172,-0.31987 c 0.54346,-1.33919 -0.82653,-2.71595 -1.382345,-3.31608 l -1.355473,-0.78548 c 0.06539,0.59426 0.484735,0.86675 1.35444,2.11408 0.922108,1.57803 -0.02846,4.50038 0.0078,5.18625 -1.745429,-0.27718 -3.82765,-2.59479 -4.312915,-2.84065 -1.544775,-0.78266 -2.949815,-4.90932 -4.734595,-5.38831 0.86719,1.16262 1.560152,3.54086 2.316138,4.87309 0.642604,1.13242 3.636015,3.41394 5.280815,4.68654 1.67314,1.29452 2.793979,3.07244 4.634859,4.19354 1.23791,0.75387 2.358646,1.35272 3.843176,1.5105 0.53354,0.0568 1.681463,0.36404 2.257743,0.37207 1.47035,0.0204 0.992153,2.58115 1.250053,3.89796 0.36967,3.60427 1.228081,6.89327 1.395781,10.50685 0.21771,4.69115 0.336087,1.7052 0.126607,8.59999 -0.23607,7.77063 -0.864505,8.06616 -1.877405,12.36514 -0.48995,1.21207 -1.117386,2.3847 -1.939416,3.50107 -0.95871,1.30198 -1.622732,2.31186 -2.162142,3.11299 -1.42813,1.77673 -3.004274,3.01138 -5.930904,3.82871 -0.35657,0.0847 -0.742336,0.17276 -1.160136,0.26562 -1.22381,0.27197 -2.760943,1.04919 -3.823023,1.85983 l -1.646411,1.93167 -1.381828,2.67684 h 52.501189 l -1.38183,-2.62827 -1.46865,-1.98024 c -0.49276,-0.37383 -1.21587,-0.81369 -2.20658,-1.33222 -2.32942,-1.21921 -3.92686,-2.06641 -5.23276,-2.96881 -0.74885,-0.79296 -1.35497,-2.00996 -3.449396,-5.07772 -2.041329,-2.99 -2.061862,-12.03821 -2.616892,-15.42645 -0.23011,-7.54212 0.73013,-6.04758 1.27279,-8.98912 0.27039,-1.46576 1.327902,-2.87658 1.878948,-4.2664 0.53839,-1.35791 0.87194,-2.72883 1.7415,-3.94602 1.26164,-1.76595 4.45537,-1.52966 6.17378,-2.87527 0.74787,-0.58564 1.6676,-1.09137 2.26033,-1.82211 -2.92754,2.9e-4 -3.41532,0.45376 -5.96036,1.45882 0.36859,-1.20728 0.0566,-0.33569 0.40411,-1.56579 0.28777,-1.01821 0.1854,-2.28178 0.75034,-3.19929 1.13109,-1.83702 3.0944,-3.08886 4.41214,-4.79971 1.25348,-1.62744 2.07221,-4.15579 2.65513,-6.07973 -1.30732,0.86947 -1.7523,2.31013 -2.60036,3.5202 -0.93227,1.3302 -1.93266,2.08182 -3.27835,2.98586 l 0.11317,-3.73259 h -0.11317 l -1.35599,3.73259 h -0.11317 c -1.88888,-5.47719 1.58163,-9.76726 3.73052,-14.61151 -3.30417,1.18201 -4.58611,5.20654 -5.4591,8.10545 -2.08049,6.90857 -2.75533,14.02895 -7.989687,19.73626 -0.89576,-4.51916 -0.457171,-4.39588 -0.04134,-9.83041 0.0924,-1.27162 0.139089,-2.56421 0.122989,-3.84007 -0.008,-0.6334 -0.231374,-1.29336 -0.04082,-1.91927 0.73798,-2.42313 2.185019,-4.5904 3.697449,-6.61199 1.462484,-1.95481 2.718584,-4.09128 3.938254,-6.18671 0.54297,-0.93283 0.99591,-2.0331 1.68,-2.87889 0.84575,-1.04567 2.29971,-1.7879 3.32952,-2.68666 3.95989,-3.45602 7.44936,-7.84275 13.33768,-7.97884 0.95093,-0.0219 1.96445,-0.055 2.82619,0.38757 0.95492,0.49028 1.56368,1.44664 2.31303,2.16215 0.98959,0.94494 2.42778,1.87792 3.79099,2.24844 -1.42861,-1.91384 -3.31903,-4.4776 -5.42603,-5.75004 -1.21979,-0.73665 -2.90506,-1.14468 -4.29534,-1.50275 v -0.31988 l 2.71301,-1.66811 5.08651,-0.47439 7.12205,-0.41703 V 168.083 l -5.65237,-0.85318 -4.1491,0.0568 c 0,0 -3.76309,0.44522 -6.02444,1.33067 -1.72578,0.67574 -3.09589,1.91074 -4.63486,2.87889 -2.58866,1.62847 -5.33475,3.05017 -7.57421,5.11959 0.66702,-1.93483 1.20349,-3.93525 2.17661,-5.75986 0.97378,-1.82587 2.3528,-3.44074 2.93987,-5.43946 0.20771,-0.70716 0.12003,-1.42814 0.29869,-2.13269 0.72372,-2.85391 1.62845,-5.63968 2.20297,-8.53281 0.34947,-1.75978 -4.9644,5.47966 -5.3573,7.999 -1.01007,-0.84592 -1.6193,-2.0756 -2.60966,-2.95589 -2.26046,-2.00927 -7.39136,-0.82443 -5.4405,-0.46199 6.83325,1.26954 4.37847,5.27078 4.38888,6.93084 0.006,0.80883 -0.20021,0.76027 -0.74517,1.28674 -0.83501,0.80666 -1.39501,1.71906 -1.80454,2.77296 -2.11997,5.45562 -4.708871,14.57264 -10.235031,18.24592 0.37694,-1.9158 0.140107,-5.29546 0.230477,-7.24246 0.1459,-3.14347 2.654472,-6.52906 3.329512,-9.61646 -1.02416,0.7815 -2.330057,2.52697 -3.935677,1.67276 -0.89358,-0.47539 -0.693609,-2.14505 -0.699699,-2.9533 -0.0223,-2.96907 0.282712,-5.80567 0.678512,-8.74521 -1.34736,1.0534 -1.379352,3.28366 -1.582332,4.79919 h -0.113225 l 1.130681,-12.37237 H 33.20805 l -1.796273,6.21461 v 53.87785 h -3.969783 v -55.20438 c -0.7196,-0.86556 -1.303531,-1.71864 -1.363741,-2.52905 -0.13474,-1.81403 -0.142953,-3.96051 -0.914673,-5.65288 h -0.113171 c -0.006,2.15202 -0.46163,4.37612 -0.77618,6.50606 -0.64698,4.38096 1.335953,10.02955 0.617533,14.40015 -0.48339,2.94075 -1.082621,5.87004 -1.082621,8.85218 -0.92111,-0.24846 -5.231553,-1.97963 -5.766573,-2.77865 -0.44672,-0.66716 -0.236617,-1.50339 -0.227377,-2.23552 0.013,-1.03355 -0.117602,-2.00015 -0.451652,-2.98586 h -0.113171 l -0.677995,4.79919 c -3.33084,-1.39303 -8.243508,-2.65807 -8.651668,-6.82594 -0.16944,-1.73027 0.738456,-3.56248 0.738456,-5.33249 H 8.54599 l -2.260328,3.73259 c -0.91746,-1.85933 -0.762575,-4.01218 -0.361735,-5.97277 0.92407,-4.51993 3.546765,-9.25327 7.483265,-12.05249 v -0.10645 c -0.827833,0.28434 -1.664047,0.68799 -2.471684,1.17977 -0.403266,-0.28563 -0.842908,-0.78049 -0.904338,-1.29605 l 0.113172,-0.001 c 0.626307,0.42462 1.088753,-1.3206 1.112593,-1.71101 0.04395,-0.71959 -0.42507,-1.15426 -0.563273,-1.81022 -0.123816,-0.5877 0.241351,-1.15457 -0.280086,-1.66398 -0.225383,-0.22019 -0.515868,-0.3206 -0.834574,-0.33487 z m -0.133326,0.40308 c -0.199189,0.28653 -0.364362,0.28726 -0.565857,0.002 z m -3.257682,5.23999 5.17e-4,0.001 c 0.103213,0.24232 -0.650143,0.088 -0.668693,0.0253 v -5.1e-4 -5.2e-4 l -5.17e-4,-5.2e-4 v -5.1e-4 c 2.1e-5,-0.001 -4.1e-5,-0.002 0,-0.002 v -5.2e-4 -5.1e-4 l 5.17e-4,-5.2e-4 v -5.2e-4 -5.1e-4 -5.2e-4 h 5.17e-4 v -5.2e-4 l 5.16e-4,-5.1e-4 v -5.2e-4 -5.2e-4 h 5.17e-4 v -5.1e-4 l 5.17e-4,-5.2e-4 c 0.01013,-0.008 0.042,-0.0139 0.101286,-0.0145 z m 3.064412,0.3638 c 0.176916,0.004 0.394701,0.13737 0.641822,0.47594 0.14706,0.20152 0.259283,0.41655 0.369486,0.63666 -0.182792,0.12687 -0.372514,0.30719 -0.583427,0.39119 -1.193495,0.47531 -1.121912,-1.51779 -0.427881,-1.50379 z" /><rect
       style="display:none;fill:#000000;fill-opacity:1;stroke:#000000;stroke-width:0.0421438"
       id="rect1"
       width="2.9578562"
       height="173.83746"
       x="72.632607"
       y="4.2315402" /></g></svg>
