<?xml version="1.0" encoding="UTF-8" standalone="no"?>
<svg
   version="1.2"
   viewBox="0 0 113.38583 113.38583"
   width="30mm"
   height="30mm"
   id="svg1"
   sodipodi:docname="HrobnikReminderTokenLaser.svg"
   inkscape:version="1.4.2 (f4327f4, 2025-05-13)"
   xml:space="preserve"
   xmlns:inkscape="http://www.inkscape.org/namespaces/inkscape"
   xmlns:sodipodi="http://sodipodi.sourceforge.net/DTD/sodipodi-0.dtd"
   xmlns="http://www.w3.org/2000/svg"
   xmlns:svg="http://www.w3.org/2000/svg"><sodipodi:namedview
     id="namedview1"
     pagecolor="#ffffff"
     bordercolor="#666666"
     borderopacity="1.0"
     inkscape:showpageshadow="2"
     inkscape:pageopacity="0.0"
     inkscape:pagecheckerboard="0"
     inkscape:deskcolor="#d1d1d1"
     inkscape:zoom="2.706943"
     inkscape:cx="-77.947708"
     inkscape:cy="96.234019"
     inkscape:window-width="1920"
     inkscape:window-height="1057"
     inkscape:window-x="-8"
     inkscape:window-y="-8"
     inkscape:window-maximized="1"
     inkscape:current-layer="layer2"
     showgrid="false"
     inkscape:document-units="mm" /><defs
     id="defs1"><clipPath
       clipPathUnits="userSpaceOnUse"
       id="cp1"><path
         d="m 275.5,535.5 c -143.78,0 -260,-116.22 -260,-260 0,-143.78 116.22,-260 260,-260 143.78,0 260,116.22 260,260 0,143.78 -116.22,260 -260,260 z"
         id="path1" /></clipPath></defs><style
     id="style1">
		tspan { white-space:pre } 
		.s0 { fill: none;stroke: #ff0000;stroke-miterlimit:100 } 
	</style><g
     inkscape:groupmode="layer"
     id="layer2"
     inkscape:label="Content"
     style="display:inline"
     transform="scale(0.1989225)"><g
       inkscape:groupmode="layer"
       id="layer3"
       inkscape:label="Kruh"
       transform="scale(5.0270836)"><path
         id="path2"
         style="fill:none;stroke:#000000;stroke-width:0.949978"
         inkscape:label="vnejsi kruh"
         transform="scale(0.19892249)"
         d="M 569.5184,284.99338 A 284.52502,284.52502 0 0 1 284.99338,569.5184 284.52502,284.52502 0 0 1 0.46835327,284.99338 284.52502,284.52502 0 0 1 284.99338,0.46835327 284.52502,284.52502 0 0 1 569.5184,284.99338 Z" /><path
         id="path2-9"
         style="fill:none;stroke:#000000;stroke-width:0.815568"
         inkscape:label="vnitrni kruh"
         transform="scale(0.19892249)"
         d="M 529.26178,284.99338 A 244.2684,244.2684 0 0 1 284.99338,529.26178 244.2684,244.2684 0 0 1 40.724976,284.99338 244.2684,244.2684 0 0 1 284.99338,40.724976 244.2684,244.2684 0 0 1 529.26178,284.99338 Z" /></g><path
       id="path5-3-0"
       style="display:inline;fill:none;stroke:#000000;stroke-width:0.95;stroke-dasharray:none;stroke-opacity:1"
       inkscape:label="text"
       d="m 281.2614,194.05328 -1.62006,0.2651 c -3.51561,0.57201 -7.03225,1.01729 -10.54509,1.34514 -3.5518,0.24715 -7.36655,0.45239 -11.43858,0.61857 -4.11642,0.0837 -8.61588,0.17155 -13.50047,0.25528 h -29.56357 l 10.42727,7.70754 c 2.7857,2.06024 5.03708,3.85844 6.71587,5.34127 l 0.0393,0.0295 0.0294,0.0295 c 1.62534,1.37036 2.78027,2.69629 3.52485,3.90777 l 0.0589,0.108 0.0785,0.108 c 0.80642,1.15062 1.35112,2.3814 1.66915,3.80959 0.34274,1.53917 0.54984,3.57856 0.54984,6.05803 0,2.1411 -0.0423,4.54016 -0.12765,7.2068 -0.082,2.47743 -0.29252,4.91772 -0.61856,7.30498 v 0.0589 l -0.01,0.0589 c -0.23591,2.22621 -0.63124,4.26297 -1.15859,6.10712 -0.48557,1.61122 -1.06758,2.54196 -1.34513,2.83755 l -2.41536,2.58227 2.09134,2.82774 c 0.77862,1.05247 1.43539,2.38922 1.92444,4.09432 l 0.0294,0.0982 0.0393,0.108 c 0.59374,1.73891 1.00109,3.55484 1.22731,5.46892 l 0.01,0.0786 0.01,0.0786 c 0.31389,1.99186 0.47129,3.92971 0.47129,5.81256 v 0.0785 0.0884 c 0.0846,2.06598 0.12764,3.91001 0.12764,5.52782 0,0.83138 -0.26995,2.06145 -1.08986,3.66231 l -0.0196,0.0295 -0.0196,0.0393 c -0.82347,1.6809 -1.84705,3.33782 -3.0732,4.98781 -1.24853,1.59585 -2.52042,3.0276 -3.80959,4.2907 -1.29378,1.18115 -16.77586,10.87608 -17.11555,11.05697 l 16.54608,-0.8948 c 10.28635,0 19.90054,0.57623 28.84682,1.72806 l 0.01,0.01 c 8.94058,1.22405 16.69041,3.24744 23.26008,6.01875 l 3.12229,1.31568 2.09134,-2.62154 c 3.49436,-4.38603 6.98814,-8.07438 10.46655,-11.0753 l 0.0196,-0.0196 0.0196,-0.0196 c 3.14444,-2.78419 6.69764,-4.49985 10.97711,-5.29219 l 4.85035,-0.9033 -0.44183,-1.36477 h 10.7611 c -0.0766,1.49482 -0.35007,2.45732 -0.54984,2.84737 l -0.0295,0.0491 -0.0294,0.0589 c -0.11437,0.23925 -0.18135,0.35186 -0.21601,0.40256 l -2.66082,1.08004 v 9.05268 h 32.66623 v -9.1705 l -2.7001,-0.98186 c -0.0325,-0.073 -0.10029,-0.21765 -0.19637,-0.47129 -0.29869,-0.78837 -0.60875,-2.45681 -0.60875,-4.81107 v -24.45794 l 8.86613,-3.87832 v 10.37818 0.0393 c 0.086,4.78946 0.12764,9.57507 0.12764,14.3645 0,0.66914 -0.0765,2.1602 -0.24546,4.22197 -0.17026,2.07764 -0.38104,4.3723 -0.63821,6.88278 -0.24911,2.34794 -0.57654,4.69909 -0.99167,7.0497 l -0.01,0.01 v 0.01 c -0.41178,2.41197 -0.85414,4.37455 -1.29604,5.81256 l -0.75603,2.45464 5.85184,5.70456 3.10266,-3.24012 c 1.10209,-1.15276 2.38812,-2.37639 3.85867,-3.65249 1.45373,-1.26151 2.9895,-2.49073 4.61471,-3.68194 1.69379,-1.17919 3.34195,-2.23011 4.9289,-3.16157 1.60329,-0.89226 3.13087,-1.58147 4.56561,-2.0717 l 3.6034,-1.22732 -0.0589,-0.30437 h 7.74681 c 1.15052,0 2.87277,0.1684 5.03691,0.55965 l 0.01,0.01 h 0.0196 c 2.23187,0.38908 4.5164,0.93851 6.86315,1.64951 l 0.0884,0.0196 0.0786,0.0294 c 2.39596,0.62375 4.7066,1.39596 6.93188,2.32699 2.18465,0.91405 3.92674,1.87533 5.22345,2.8081 l 2.57246,1.84588 2.59209,-1.8066 c 0.83384,-0.58146 2.17702,-1.31335 3.92741,-2.06189 1.94861,-0.7103 3.97539,-1.38524 6.0973,-2.02262 l 0.0786,-0.0196 0.0687,-0.0294 c 2.05937,-0.69594 4.10042,-1.22797 6.13657,-1.61024 l 0.0884,-0.01 0.0786,-0.0196 c 2.12525,-0.4788 3.91535,-0.78925 5.31182,-0.93276 l 5.25291,-0.54001 -0.10801,1.5906 4.42816,0.23564 c 3.10112,0.16364 5.75066,0.40534 7.90391,0.71675 l 0.0785,0.01 0.0786,0.01 c 2.13485,0.23157 3.91943,0.58101 5.32163,0.99167 l 0.0982,0.0295 0.0982,0.0196 c 1.42951,0.34888 2.52793,0.77752 3.29903,1.20768 l 0.0589,0.0393 0.0589,0.0294 c 0.98925,0.51507 1.84479,1.09962 2.60191,1.77715 l 2.61173,2.33681 2.88664,-1.99316 c 1.1116,-0.76601 2.63664,-1.55792 4.5558,-2.30735 1.9473,-0.76041 4.07655,-1.41579 6.40167,-1.9637 2.33633,-0.55055 4.8149,-0.98643 7.43262,-1.30587 2.59538,-0.31672 5.13586,-0.48111 7.629,-0.48111 h 5.44928 l -1.15859,-5.19399 c -0.33463,-1.50275 -0.63796,-4.18208 -0.80512,-7.76646 v -0.01 c -0.16924,-3.71946 -0.25528,-7.96263 -0.25528,-12.72481 0,-5.59515 0.13392,-9.83366 0.3731,-12.55789 l 0.43202,-4.99763 -5.11545,0.35347 c -3.74633,0.25515 -7.02291,0.50818 -9.83816,0.76584 -2.83924,0.25986 -5.43196,0.56937 -7.78609,0.92294 h -0.0196 -0.01 c -2.25552,0.35231 -4.35139,0.7464 -6.29368,1.19786 l -0.0196,0.01 -0.0295,0.01 c -0.007,0.002 -0.0122,-0.002 -0.0196,0 -0.055,-1.31755 -0.0982,-2.62965 -0.0982,-3.94704 v -1.72806 c 1.25128,0.43284 2.50753,0.87049 3.76049,1.25677 l 0.0295,0.01 0.0294,0.01 c 1.90417,0.55769 3.7808,0.98065 5.63584,1.26659 1.81984,0.28052 3.50506,0.43202 5.09581,0.43202 3.76019,0 7.39184,-1.12155 10.20144,-3.38739 l 0.0393,-0.0393 0.0393,-0.0393 c 2.7383,-2.32457 4.76897,-5.53962 6.49004,-9.55342 l 2.36627,-5.50819 -6.0973,-0.43202 c -10.49574,-0.73774 -18.17696,-2.48468 -22.72988,-4.74235 l -1.81643,-0.9033 -1.88516,0.78548 c -5.61223,2.32439 -10.2475,4.00102 -13.80484,5.02709 -3.47726,1.00297 -6.60962,1.47277 -9.39633,1.47277 h -6.16603 l 2.0128,5.68493 c 0.75155,2.12771 1.28704,4.48857 1.60042,7.08897 l 0.01,0.0589 0.01,0.0589 c 0.392,2.6023 0.59893,5.74446 0.59893,9.38651 0,1.52958 -0.0333,3.29242 -0.11783,5.27255 -0.0808,1.81068 -0.296,4.54834 -0.6382,8.13955 l -0.48111,5.10564 h -7.90391 c 0.003,-0.85785 0.0346,-1.72324 0.108,-2.58228 l 0.49093,-5.73401 3.88814,-0.30438 -2.04226,-5.32164 c -0.42754,-1.11302 -0.85733,-2.54544 -1.25677,-4.26124 -0.39817,-1.7103 -0.71942,-3.5138 -0.96221,-5.41 -0.25154,-1.96444 -0.46057,-3.92743 -0.62839,-5.89111 -0.16523,-2.01646 -0.24546,-3.84115 -0.24546,-5.47874 0,-2.12168 0.12302,-3.82034 0.32401,-4.99763 l 0.82476,-4.83071 -5.00745,-0.16692 c -5.02335,-0.16623 -10.08645,-0.45829 -15.19907,-0.87385 -5.07216,-0.49638 -9.31402,-1.0718 -12.65608,-1.70842 l -2.29753,-0.44183 -1.65933,1.62005 c -2.83589,2.76851 -5.65655,5.0142 -8.46357,6.76497 l -0.0295,0.0196 -0.0196,0.01 c -2.53344,1.62529 -5.32597,2.72024 -8.51266,3.29903 l -4.83072,0.87384 1.42369,4.58525 c 0.51269,1.64451 1.1011,4.2293 1.68879,7.58972 l 0.01,0.0589 0.0196,0.0589 c 0.60793,2.96742 0.9524,6.9843 0.9524,11.94915 0,1.908 -0.088,4.05285 -0.25528,6.42131 v 0.0786 l -0.01,0.0687 c -0.0549,1.55431 -0.15857,3.0927 -0.32401,4.60489 h -8.43411 v -5.97948 c 0,-4.3647 0.0429,-8.0029 0.12764,-10.89856 0.0847,-2.89447 0.17133,-5.31295 0.25528,-7.29517 0.16255,-1.89586 0.31913,-3.41258 0.47129,-4.54597 0.23271,-1.19697 0.49906,-2.30646 0.7953,-3.31866 l 1.02112,-3.48558 -3.35793,-1.56114 c -1.71486,-0.79721 -3.19742,-1.5491 -4.45761,-2.23863 -1.28401,-0.78463 -2.52798,-1.56482 -3.73104,-2.34662 -1.08158,-0.75547 -2.16749,-1.59246 -3.26957,-2.51355 -1.17783,-1.06817 -2.47112,-2.24331 -3.89795,-3.5543 l -3.19102,-2.93574 -3.01429,3.10265 c -3.01033,3.10209 -5.91321,5.77014 -8.68939,8.0021 -0.8173,0.65709 -1.92157,1.33166 -2.8081,1.99316 v -3.28921 l -4.63434,-7.55044 -3.15174,0.77566 c -2.69513,0.65778 -5.79735,1.36435 -9.27851,2.11099 -3.47406,0.66133 -6.68933,1.19139 -9.62215,1.60042 l -3.77031,0.5302 v 7.93336 l 4.80125,2.02262 v 33.44189 h -12.6168 c -0.0201,-0.71313 -0.0294,-1.44402 -0.0294,-2.17972 0,-1.89237 0.0795,-4.15605 0.24546,-6.76496 0.24903,-2.57734 0.57897,-5.1991 0.99167,-7.86464 0.49942,-2.67522 1.04282,-5.21919 1.62006,-7.63881 0.63526,-2.39313 1.32885,-4.28968 1.99316,-5.58674 l 0.76584,-1.47277 -0.46147,-1.60042 c -1.21998,-4.25354 -2.31623,-7.79202 -3.29902,-10.67274 l -0.01,-0.0393 c -0.92536,-2.7939 -1.71895,-5.37886 -2.3859,-7.737 v -0.01 c -0.65386,-2.39489 -1.23277,-4.87487 -1.72806,-7.44244 -0.40138,-2.60062 -0.73932,-5.87673 -0.99167,-9.81852 l -0.19637,-3.0732 -3.03393,-0.80511 c -3.96089,-1.04726 -7.9347,-2.37518 -11.91968,-3.99614 -4.00698,-1.62992 -7.2453,-3.20436 -9.65161,-4.64416 z m 1.12913,23.9081 c 0.22709,1.33105 0.36402,2.51966 0.67748,4.00596 v 0.01 l 0.01,0.01 c 0.62139,2.85986 1.32424,5.76147 2.1208,8.69921 l 0.01,0.01 v 0.0196 c 0.78461,2.80858 1.5707,5.5367 2.35644,8.17883 l 0.01,0.0196 v 0.0196 c 0.59379,1.93228 1.10468,3.4093 1.61024,4.88962 -0.67689,1.56953 -1.26878,3.2739 -1.79679,5.40019 l -0.0196,0.0687 -0.01,0.0589 c -0.6238,2.87094 -1.19844,5.94502 -1.72806,9.21959 l -0.01,0.0393 -0.01,0.0491 c -0.44301,3.20044 -0.79448,6.40077 -1.0604,9.60252 -0.17254,2.02285 -0.20312,3.44549 -0.2651,5.00744 -1.70975,0.89838 -3.37719,1.9101 -4.95835,3.13211 -1.57378,1.21632 -2.90057,2.58723 -4.10414,4.03541 -0.44895,-0.0714 -0.79121,-0.12578 -1.28623,-0.20619 -1.43799,-0.3296 -2.91159,-0.65285 -4.42815,-0.98185 -1.53926,-0.33393 -3.03605,-0.6682 -4.48707,-1.00149 -0.0796,-0.0195 -0.11872,-0.0299 -0.19637,-0.0491 -0.39426,-5.1851 -0.74749,-10.31332 -0.96221,-15.19907 -0.17117,-5.94513 -0.25528,-11.58865 -0.25528,-16.93695 0,-5.55304 0.0416,-10.76997 0.12764,-15.64091 0.0651,-3.7508 0.18071,-6.82555 0.29455,-9.88725 1.06937,-0.26515 2.04416,-0.58042 3.22048,-0.78549 l 0.0589,-0.01 0.0589,-0.01 c 2.37662,-0.48004 4.69733,-0.84221 6.97115,-1.08004 l 0.0687,-0.01 0.0687,-0.01 c 2.39566,-0.32258 4.55402,-0.51156 6.46059,-0.58911 l 0.0786,-0.01 h 0.0884 c 0.53982,-0.0422 0.80216,-0.038 1.28623,-0.0687 z m 133.39445,31.75311 c 0.74299,0.13549 1.40553,0.33506 2.16989,0.45165 l 0.0687,0.0196 h 0.0786 c 1.40287,0.16601 2.43999,0.16525 3.67213,0.25528 0.0662,0.75485 0.0531,1.53298 0.15709,2.27789 l 0.0196,0.0982 0.0196,0.0884 c 0.09,0.48308 0.20856,0.92079 0.30437,1.39423 l -5.97948,1.44332 c -0.0639,-0.80408 -0.0771,-1.50563 -0.1571,-2.34663 v -0.0294 c -0.0686,-1.069 -0.24698,-2.46948 -0.35346,-3.65249 z m 56.23068,14.54123 v 0.01 c -0.0173,0.003 -0.0336,-0.002 -0.0491,0 z m -28.05152,3.87831 -3.61322,1.05059 c -4.50655,1.31049 -8.1216,3.03226 -10.69237,5.79292 l -0.0393,0.0393 -0.0393,0.0393 c -1.28639,1.45413 -2.20908,3.14746 -2.93574,4.93872 -0.28419,-0.0266 -0.45484,-0.0296 -0.75602,-0.0589 -1.65643,-0.24223 -3.35232,-0.48453 -5.086,-0.72657 -1.74392,-0.32477 -3.40346,-0.64876 -4.97799,-0.97204 l -0.01,-0.01 c -0.0448,-0.01 -0.054,-0.0197 -0.0982,-0.0295 0.0956,-0.90825 0.16287,-1.64963 0.27492,-2.67064 0.1417,-1.29111 0.19257,-2.62451 0.28473,-3.93723 4.06931,-0.62676 8.14951,-1.24274 12.38116,-1.76733 h 0.0393 l 0.0295,-0.01 c 5.16595,-0.72047 10.23959,-1.26748 15.23835,-1.67897 z m 37.78167,3.38739 v 0.25529 c 0,2.30157 -0.12279,4.50465 -0.36328,6.61768 -0.063,0.53122 -0.20496,1.23848 -0.28474,1.80661 -4.33233,-1.79344 -8.8599,-3.69936 -11.93932,-4.74235 -1.32263,-0.44797 -2.38406,-0.71925 -3.52485,-1.05058 2.60171,-0.57863 5.07419,-1.22562 7.88427,-1.6986 h 0.0393 l 0.0393,-0.01 c 3.1268,-0.57892 5.5419,-0.83868 8.14937,-1.17823 z m -98.73506,13.48084 h 6.66678 c -0.40291,1.34849 -0.84052,2.29539 -1.13895,2.76882 l -4.0256,6.40168 -0.66766,-3.21066 c -0.16501,-0.80547 -0.32462,-1.66105 -0.49092,-2.55282 -0.1329,-0.78422 -0.25387,-1.90371 -0.33383,-3.30884 -0.002,-0.0326 -0.008,-0.0651 -0.01,-0.0982 z m 63.05455,0 h 3.96668 c -0.58711,2.26402 -0.96077,4.52445 -1.10949,6.77478 l -0.12764,1.88515 -1.63969,-4.35942 c -0.49946,-1.32346 -0.84613,-2.62402 -1.0604,-3.90777 -0.0126,-0.12755 -0.0178,-0.25519 -0.0295,-0.39274 z m -71.86177,25.90126 -2.81791,2.20917 c -1.9079,1.49767 -3.97664,3.07765 -6.21513,4.74234 -1.33191,0.9782 -2.57894,1.87137 -3.84886,2.78846 -1.33418,-0.92722 -2.6474,-1.82804 -4.04523,-2.81791 -2.19971,-1.63689 -4.19236,-3.19014 -5.97948,-4.65398 l -2.73937,-2.24844 -2.67063,2.31717 c -1.33078,1.15461 -2.35237,2.07413 -3.1223,2.83755 -0.42532,0.42174 -1.26937,1.19905 -2.44481,2.20917 l -3.38739,2.90628 3.17139,3.15175 c 2.78773,2.76421 5.69779,5.77016 8.73848,9.02322 l 0.0393,0.0393 0.0393,0.0393 c 3.08015,3.13248 6.11958,6.46876 9.13122,10.00507 l 3.02411,3.54449 3.21066,-3.37757 c 1.22264,-1.28581 2.3753,-2.51172 3.46593,-3.66231 v 6.90242 l -2.57245,-1.61024 -1.78697,4.79144 c -0.51521,1.38233 -1.13019,2.58765 -1.67897,3.90777 l -4.30051,-7.10861 -3.00447,0.73639 c -2.52288,0.6254 -5.41884,1.30261 -8.67957,2.0128 -3.2375,0.62565 -6.23085,1.12485 -8.96431,1.51205 l -3.59358,0.51056 v 7.63881 l 4.48706,1.92443 v 28.36572 h -9.36687 v -2.34663 c 0,-4.14244 0.0386,-7.59139 0.11782,-10.3389 0.0795,-2.75894 0.15688,-5.07599 0.23565,-6.96134 0.15097,-1.78317 0.30072,-3.2146 0.44183,-4.28087 0.21647,-1.12875 0.46137,-2.17766 0.73639,-3.13211 l 0.97204,-3.37757 -3.19102,-1.50224 c -1.60263,-0.75671 -2.98656,-1.46687 -4.16306,-2.1208 -1.20173,-0.74594 -2.36967,-1.4856 -3.49539,-2.2288 -1.00367,-0.71267 -2.01097,-1.50785 -3.03393,-2.37609 -1.10035,-1.01357 -2.30969,-2.13359 -3.64267,-3.37757 l -3.13211,-2.9161 -2.85719,3.1812 c -2.50123,2.79016 -4.89874,5.2137 -7.18715,7.25589 -0.90758,0.80993 -2.07501,1.62898 -3.0732,2.44481 -1.4813,-0.70553 -2.80332,-1.36916 -3.90777,-1.98334 -1.19873,-0.74418 -2.36251,-1.48735 -3.48558,-2.2288 -1.00367,-0.71267 -2.01097,-1.50785 -3.03392,-2.37609 -1.10035,-1.01357 -2.3097,-2.13359 -3.64267,-3.37757 l -3.17139,-2.95537 -2.84737,3.25975 c -2.56297,2.92639 -5.06359,5.4328 -7.48171,7.5308 -0.4564,0.39409 -1.08025,0.81896 -1.56115,1.2175 v -2.4939 l -4.36924,-7.21662 -3.00447,0.73639 c -2.52289,0.6254 -5.42866,1.30261 -8.68939,2.0128 -3.2375,0.62565 -6.22103,1.12485 -8.95449,1.51205 l -3.59358,0.51056 v 7.63881 l 4.48706,1.92443 v 28.36572 h -8.2181 l 0.3731,-4.49689 3.66231,-0.30437 -1.93425,-5.12527 c -0.39806,-1.05254 -0.80547,-2.40916 -1.17822,-4.03541 -0.37153,-1.62097 -0.66686,-3.32758 -0.89349,-5.12527 -0.2349,-1.86339 -0.43238,-3.7339 -0.58911,-5.59656 -0.1543,-1.91242 -0.22582,-3.65168 -0.22582,-5.20382 0,-2.01126 0.11749,-3.61088 0.30437,-4.72271 l 0.78548,-4.66379 -4.76198,-0.1571 c -4.68568,-0.15749 -9.41887,-0.44125 -14.18777,-0.83457 -4.74951,-0.47157 -8.71558,-1.01535 -11.84113,-1.62006 l -2.17972,-0.4222 -1.57096,1.56115 c -2.64707,2.62473 -5.29549,4.75285 -7.91373,6.41149 l -0.0196,0.01 -0.0196,0.0196 c -2.35955,1.53748 -4.96397,2.5745 -7.93337,3.12229 l -4.58525,0.84439 1.35496,4.42816 c 0.47761,1.55603 1.03186,3.99919 1.58078,7.18715 l 0.01,0.0589 0.01,0.0589 c 0.31066,1.54022 0.54631,3.3826 0.69711,5.50819 h -37.86022 c 0.22716,-0.22854 0.44491,-0.45078 0.66766,-0.65784 h 0.01 c 1.12337,-1.04837 2.2097,-1.80143 3.24994,-2.31717 l 0.0785,-0.0393 0.0785,-0.0491 c 0.79678,-0.43892 1.58211,-0.61215 2.52336,-0.63821 l 0.23565,0.0786 h 1.52187 l 1.9637,-7.7959 c -0.83431,-0.44122 -1.26222,-0.78965 -1.54151,-1.03095 v -0.01 c 0,-0.24536 0.24209,-1.51964 1.06041,-3.2892 0.91172,-1.87227 2.47345,-4.49885 4.66379,-7.75664 l 0.01,-0.0196 0.01,-0.0196 c 2.19843,-3.34769 5.11301,-7.46576 8.71885,-12.31243 l 0.01,-0.01 0.01,-0.01 c 3.62245,-4.94883 8.05663,-10.90545 13.30409,-17.86972 l 5.87148,-7.80572 -9.73997,1.20768 c -3.21865,0.39893 -6.19268,0.76124 -8.92504,1.08003 -0.006,7e-4 -0.0137,-9.9e-4 -0.0196,0 -2.70144,0.23668 -5.28617,0.46997 -7.75663,0.70694 -0.0112,9.9e-4 -0.028,0.009 -0.0393,0.01 -2.42562,0.15536 -4.77441,0.30604 -7.04969,0.46147 -2.2847,0.0778 -4.61304,0.11782 -6.98097,0.11782 h -5.086 c -1.43393,0 -3.09964,-0.0426 -4.94853,-0.11782 -1.85848,-0.15452 -4.12485,-0.3847 -6.80424,-0.69712 h -0.01 c -2.62753,-0.31592 -5.95595,-0.74786 -9.97562,-1.30586 l -2.06189,-0.29456 -1.47278,1.46296 c -2.32583,2.3062 -4.88325,4.23282 -7.70754,5.81257 l -0.0294,0.01 -0.0196,0.0196 c -2.77498,1.59302 -6.10886,3.04876 -10.01489,4.33979 l -4.938719,1.63969 4.869989,8.05119 3.16156,-1.25677 h 0.89349 c 2.6787,0 5.40831,0.2206 8.18865,0.66766 l 0.0589,0.01 0.0589,0.01 c 3.01517,0.39338 6.15912,0.87066 9.42578,1.42368 l 0.0589,0.01 h 0.0491 c 3.4143,0.48364 6.99691,0.97012 10.73165,1.45314 l 0.0491,0.01 h 0.0491 c 2.48523,0.26216 5.33148,0.29579 8.08065,0.39274 -1.2385,2.14586 -2.54341,4.69263 -3.69177,6.38204 -2.22047,3.18657 -4.36298,5.74671 -6.3624,7.65845 -1.96187,1.87296 -3.81112,3.22529 -5.48855,4.12378 -1.69849,0.87236 -3.33783,1.4518 -4.9289,1.76733 l -7.45226,1.4826 5.25291,5.43946 c 1.23533,1.28059 1.51205,2.11773 1.51205,3.03393 0,0.83108 -0.44509,2.58496 -1.77715,4.94853 -1.39129,2.46869 -3.60285,5.77026 -6.60787,9.76943 l -25.184507,33.02951 9.916708,-1.31568 c 3.540307,-0.46805 6.662119,-0.76948 9.347229,-0.92294 2.66476,-0.0749 5.08589,-0.1151 7.29517,-0.11782 1.84556,0.22417 3.54556,0.47861 5.06635,0.76584 h 0.0196 l 0.0196,0.01 c 1.78978,0.32267 3.61881,0.63979 5.48855,0.96222 h 0.01 l 0.0196,0.01 c 2.0584,0.34018 4.26036,0.58768 6.59805,0.75603 2.45222,0.25841 5.2316,0.38292 8.39483,0.38292 3.16301,0 6.61819,-0.21808 10.35854,-0.62838 3.98845,-0.34716 7.92654,-1.12249 11.81169,-2.31717 4.01988,-1.13103 7.91133,-2.73506 11.64476,-4.80126 3.64674,-2.01821 6.83853,-4.65527 9.61234,-7.76645 -0.12685,0.28024 -0.28236,0.85907 -0.38292,1.02112 l -3.91759,6.31331 h 7.47189 c 1.0686,0 2.68341,0.15935 4.70307,0.5302 h 0.01 l 0.01,0.01 c 2.08264,0.36877 4.22103,0.88708 6.4115,1.56115 l 0.0785,0.0196 0.0786,0.0196 c 2.23584,0.59119 4.39403,1.33662 6.47041,2.21899 2.03776,0.86595 3.6638,1.76973 4.86999,2.651 l 2.43499,1.77715 2.46445,-1.73788 c 0.77421,-0.54834 2.02734,-1.24399 3.66231,-1.95388 1.81727,-0.67264 3.71585,-1.31087 5.69474,-1.91462 l 0.0687,-0.0196 0.0687,-0.0196 c 1.92146,-0.65951 3.83466,-1.16951 5.73402,-1.53169 l 0.0687,-0.0196 0.0785,-0.01 c 1.98409,-0.45401 3.65734,-0.74788 4.95836,-0.88367 l 5.33146,-0.55966 -1.8557,-4.98781 c -0.46423,-1.24939 -0.78224,-2.48053 -0.98186,-3.69176 -0.0824,-0.85042 -0.14006,-1.92973 -0.17673,-3.24993 h 8.36538 v 2.11098 c 0,1.85035 -0.30945,3.028 -0.52038,3.4463 l -0.0295,0.0491 -0.0196,0.0491 c -0.097,0.20618 -0.16594,0.31466 -0.19637,0.36328 l -2.50373,1.03095 v 8.70903 h 30.67307 v -8.82686 l -2.55282,-0.94257 c -0.0293,-0.0694 -0.0863,-0.19629 -0.16691,-0.41238 -0.27451,-0.73594 -0.55966,-2.31639 -0.55966,-4.54598 v -23.97683 l 6.68642,-2.85719 v 27.91406 c 0,1.85035 -0.31927,3.028 -0.5302,3.4463 l -0.0295,0.0491 -0.0196,0.0491 c -0.095,0.20177 -0.1555,0.3133 -0.18655,0.36328 l -2.51354,1.03095 v 8.70903 h 29.94649 v -8.82686 l -2.55281,-0.94257 c -0.0293,-0.0694 -0.0765,-0.19629 -0.1571,-0.41238 -0.27451,-0.73594 -0.56947,-2.31639 -0.56947,-4.54598 v -10.93783 -8.77776 c 0,-1.77237 0.0482,-2.91222 0.0785,-4.23178 l 6.85333,-2.90629 v 9.81853 0.0295 c 0.0804,4.54564 0.11783,9.09229 0.11783,13.63793 0,0.63086 -0.0679,2.04977 -0.22583,4.00596 -0.15906,1.97151 -0.35864,4.1468 -0.59893,6.52931 -0.23256,2.2249 -0.54544,4.45895 -0.93276,6.68642 v 0.01 0.01 c -0.38448,2.2874 -0.80579,4.13757 -1.2175,5.49838 l -0.71675,2.37608 5.54747,5.49837 2.95537,-3.13211 c 1.02816,-1.0923 2.23055,-2.24609 3.6034,-3.45612 1.3514,-1.19111 2.78037,-2.3506 4.29069,-3.47575 1.58712,-1.12289 3.12847,-2.1282 4.61471,-3.01429 1.49527,-0.84524 2.91505,-1.49992 4.25142,-1.9637 l 3.42666,-1.18805 -0.71675,-3.52485 c -0.15385,-0.76279 -0.30638,-1.57088 -0.46147,-2.41535 -0.12368,-0.74073 -0.22969,-1.80889 -0.30437,-3.14193 -0.047,-0.83848 -0.0999,-1.82487 -0.14728,-2.96519 h 9.2785 v 2.11098 c 0,1.81948 -0.26244,3.05018 -0.4811,3.56412 -0.0598,0.14059 -0.0988,0.22749 -0.11783,0.27492 l -2.67063,0.98185 v 8.82686 h 34.30591 v -9.73016 l -3.52485,-0.54984 c -1.85946,-0.28808 -2.61371,-0.78183 -2.81791,-0.95239 -0.14137,-0.26289 -0.56948,-1.33823 -0.56948,-3.4954 v -1.03094 h 25.41034 c -0.14847,0.79137 -0.31403,1.55551 -0.50074,2.29753 -0.41703,1.57489 -0.89511,2.67755 -1.20768,3.1812 l -3.91759,6.31331 h 7.48171 c 1.0686,0 2.6736,0.15935 4.69325,0.5302 h 0.01 0.0196 c 2.08263,0.36877 4.21122,0.8969 6.40168,1.57097 l 0.0884,0.0196 0.0786,0.0196 c 2.23584,0.59119 4.38422,1.3268 6.46059,2.20917 2.03776,0.86595 3.66381,1.77955 4.86999,2.66082 l 2.44481,1.77715 2.46445,-1.7477 c 0.7742,-0.54834 2.02733,-1.23417 3.66231,-1.94406 1.81727,-0.67264 3.70604,-1.31087 5.68492,-1.91462 l 0.0687,-0.0196 0.0687,-0.0196 c 1.92145,-0.65951 3.83465,-1.16951 5.73402,-1.53169 l 0.0786,-0.0196 0.0687,-0.01 c 1.98408,-0.45401 3.65733,-0.74788 4.95835,-0.88367 l 4.04523,-0.4222 1.01131,7.05952 h 3.62303 c 2.92638,0 5.88706,-0.36099 8.84649,-1.07022 2.02583,-0.47286 3.85318,-1.15061 5.70456,-1.79679 0.32159,0.25856 0.60094,0.59782 0.94258,0.82476 0.97728,0.67421 2.01597,1.29252 3.13211,1.84588 l 0.0589,0.0294 0.0589,0.0295 c 1.10322,0.50489 2.39038,1.02636 3.81941,1.58078 1.39636,0.61537 3.18333,1.44403 5.34128,2.47427 l 3.26956,1.56115 4.41834,-6.55878 -1.8557,-2.35644 c -1.66727,-2.12555 -3.03827,-3.96481 -4.11396,-5.48856 l -0.0295,-0.0393 -0.0294,-0.0393 c -0.90451,-1.21718 -1.5863,-2.4658 -2.09135,-3.76049 -0.44026,-1.33197 -0.78936,-2.92788 -1.00149,-4.82089 -0.21694,-1.93597 -0.34365,-4.54112 -0.34365,-7.72718 v -58.2042 c 0,-3.96218 0.27769,-7.39262 0.78548,-10.28982 0.54805,-2.68411 1.43897,-4.55732 2.49391,-5.81256 l -5.00745,-6.39186 c -3.23441,1.5272 -6.23151,2.6869 -8.97413,3.49539 h -0.01 l -0.0196,0.01 c -2.56965,0.77855 -4.94382,1.13895 -7.14789,1.13895 -1.82208,0 -3.25627,-0.23953 -4.32015,-0.60875 l -10.05416,-3.49539 4.98781,9.33741 c 0.65374,1.22443 1.18561,2.38877 1.60041,3.48558 0.39471,1.04369 0.68495,2.12356 0.88367,3.24011 l 0.0196,0.11782 0.0295,0.10801 c 0.25755,1.08532 0.43081,2.3246 0.50075,3.7114 0.0765,1.51749 0.11782,3.25472 0.11782,5.20382 v 52.372 h -8.22792 l 0.38292,-4.49689 3.66231,-0.30437 -1.94407,-5.13509 c -0.39806,-1.05254 -0.80547,-2.39934 -1.17822,-4.02559 -0.37154,-1.62097 -0.66687,-3.3374 -0.89349,-5.13509 -0.23548,-1.86794 -0.43218,-3.72935 -0.58911,-5.59656 -0.15348,-1.90651 -0.22582,-3.64592 -0.22582,-5.194 0,-2.01126 0.11749,-3.61088 0.30437,-4.72271 l 0.78548,-4.66379 -4.76198,-0.16692 c -4.68568,-0.15749 -9.41887,-0.43143 -14.18777,-0.82475 -4.74951,-0.47157 -8.71558,-1.01535 -11.84113,-1.62006 l -2.17972,-0.4222 -1.57096,1.56115 c -2.64707,2.62473 -5.28567,4.75285 -7.90391,6.41149 l -0.0295,0.01 -0.0196,0.0196 c -2.35955,1.53748 -4.95415,2.56469 -7.92355,3.11247 l -2.10116,0.39274 c 0.0542,-0.37966 0.15014,-0.73427 0.19637,-1.11931 l 0.44183,-3.66231 -3.62304,-0.85421 c -2.76129,-0.65191 -5.31371,-1.36159 -7.64862,-2.11098 v -20.3538 h 0.01 l 0.0393,-0.0491 c 2.88279,-3.01737 4.90574,-5.13884 6.04821,-6.35259 l 3.0732,-3.26957 -3.52485,-2.78846 c -1.14211,-0.90598 -1.98259,-1.64284 -2.44482,-2.10116 -0.70837,-0.7024 -1.65447,-1.59904 -2.88664,-2.73937 z m 11.89024,53.07893 c 0.46068,1.5622 0.98036,3.80283 1.50223,6.83369 l 0.01,0.0589 0.01,0.0589 c 0.56674,2.80986 0.89348,6.6211 0.89348,11.33057 0,1.80909 -0.0794,3.84071 -0.23564,6.08749 v 0.0687 l -0.01,0.0785 c -0.0121,0.3479 -0.0214,0.69509 -0.0393,1.04077 H 361.7831 v -5.46892 l 7.33444,-10.24072 8.88576,4.60489 2.16008,-2.47427 c 1.99183,-2.27128 3.55804,-4.99374 4.75216,-8.09046 l 0.01,-0.0196 0.01,-0.0196 c 0.46201,-1.23339 0.81261,-2.53691 1.15859,-3.84886 z m -178.83458,3.79977 c 0.6636,0.12194 1.25253,0.30676 1.93425,0.41238 l 0.0687,0.01 0.0786,0.01 c 1.28874,0.15489 2.24259,0.15031 3.37757,0.23564 0.0612,0.69803 0.0427,1.42187 0.13746,2.11098 l 0.01,0.0884 0.0196,0.0884 c 0.0798,0.43546 0.18032,0.82954 0.2651,1.25677 l -5.42965,1.33532 c -0.061,-0.77354 -0.0708,-1.4489 -0.14727,-2.25826 -0.0617,-0.96417 -0.22084,-2.22808 -0.3142,-3.28921 z m 203.82272,0 c 0.6636,0.12194 1.25251,0.30676 1.93424,0.41238 l 0.0786,0.01 0.0687,0.01 c 1.28873,0.15489 2.24259,0.15031 3.37757,0.23564 0.0612,0.69803 0.0427,1.42187 0.13746,2.11098 l 0.0196,0.0884 0.01,0.0884 c 0.0798,0.43546 0.19014,0.82954 0.27492,1.25677 l -5.42965,1.33532 c -0.0609,-0.77354 -0.0806,-1.4489 -0.15709,-2.25826 -0.0617,-0.96417 -0.22083,-2.22808 -0.31419,-3.28921 z M 139.77649,385.2101 h 44.84119 c -0.0388,0.99665 -0.0904,2.04168 -0.16691,3.14193 l -0.01,0.0687 v 0.0785 c -0.0717,2.06107 -0.26649,4.07417 -0.54002,6.05803 l -5.07618,0.81494 c -2.88206,0.46342 -5.49976,0.77291 -7.845,0.92294 -2.36619,0.15137 -4.77767,0.2228 -7.22643,0.22583 -2.71295,-0.14952 -5.74767,-0.55102 -9.09195,-1.22732 -3.3634,-0.75984 -7.43448,-1.91875 -12.17497,-3.48557 l -5.49837,-1.81643 v 5.74383 c 0,0.92942 0.23354,1.80933 0.3731,2.70992 -1.16751,-0.13657 -2.31685,-0.28004 -3.24993,-0.49093 -0.88301,-0.20616 -1.88228,-0.57287 -2.79828,-0.82476 z m 92.94213,0.12764 -2.60191,0.77566 c -4.21857,1.246 -7.60867,2.87298 -10.02471,5.50819 l -0.0393,0.0393 -0.0393,0.0393 c -1.19609,1.37327 -2.0588,2.97465 -2.73936,4.6638 -0.24022,-0.0229 -0.38512,-0.0339 -0.63821,-0.0589 -1.54684,-0.22977 -3.13327,-0.45771 -4.75216,-0.6873 -1.63245,-0.30873 -3.18048,-0.61565 -4.65398,-0.92294 h -0.01 -0.01 l -0.01,-0.01 h -0.01 c 0.0877,-0.84441 0.153,-1.52768 0.25529,-2.47427 0.13052,-1.20795 0.16971,-2.45411 0.25528,-3.68194 3.78424,-0.59141 7.5826,-1.18356 11.51712,-1.67897 h 0.0295 0.0393 c 4.55345,-0.645 9.01746,-1.12806 13.43174,-1.51205 z m 203.82271,0 -2.6019,0.77566 c -4.21859,1.246 -7.60869,2.87298 -10.02472,5.50819 l -0.0393,0.0393 -0.0295,0.0393 c -1.19608,1.37327 -2.05881,2.97465 -2.73936,4.6638 -0.24081,-0.023 -0.39428,-0.0339 -0.64803,-0.0589 -1.54679,-0.22977 -3.12348,-0.45771 -4.74234,-0.6873 -1.63245,-0.30873 -3.1903,-0.61565 -4.6638,-0.92294 h -0.01 -0.01 v -0.01 h -0.01 -0.01 c 0.0877,-0.84441 0.15299,-1.52768 0.25528,-2.47427 0.13052,-1.20795 0.17952,-2.45411 0.2651,-3.68194 3.78424,-0.59141 7.57278,-1.18356 11.50731,-1.67897 h 0.0393 0.0295 c 4.55405,-0.64509 9.01689,-1.12805 13.43173,-1.51205 z m 2.68046,12.97027 h 8.3752 v 0.54983 c 0,2.75819 -0.45534,4.98585 -1.23713,6.77479 -0.73468,1.68108 -1.55734,2.5167 -2.75901,3.11247 l -1.62005,0.7953 -1.60042,-4.30052 c -0.46423,-1.24939 -0.77243,-2.47072 -0.97204,-3.68194 -0.0824,-0.85005 -0.14987,-1.93051 -0.18655,-3.24993 z"
       sodipodi:nodetypes="cccccccccccccssccccccccccccccsccsccccccccccccccccccccccccccccssccccssccccccccscccccsccccccsccccccccccccccccccccccccccssssccccscccscccccccsccccsscccccccccsscccccsccccccccsscsscccccccccccccccscccccssccccsccccccscccccccccccsccccccccccccccscccccccccccccccccccccsccscccsccccccccccccccccccccccccccccccccccccccccsccccccsccscccccccccccscccccccccccccccsscccccccccccccccccccccccsscccccccccccsccccccccccccccccccccccsscsccccccccccccccccccccccccccccsccccccccccsccccsscccccccccccccsccccccccccccccccssccccccccccccsccscccsccccccsccccccccccccccccscccccccccssccscccccccccsscsccccssccccccccsccccccsccsscccccccscccccsccccccsccccccccccsccscccccccccccccccsssccccccscccscccsscccccsscsccccccccccccccccccccccsccccccsccccccccccccccccccccccccccccccccccccccccccccsccccscccccccccccccccccscccccccccccccccccccscccccccssccccc" /><path
       id="path5"
       style="display:inline;opacity:1;baseline-shift:baseline;overflow:visible;fill:none;fill-opacity:1;stroke:#000000;stroke-linejoin:round;stroke-opacity:1;enable-background:accumulate;stop-color:#000000;stop-opacity:1;stroke-width:0.95000006;stroke-dasharray:none"
       d="m 412.4565,95.180758 c -7.18921,2.33042 -15.77871,4.81888 -18.06608,13.785202 2.44155,6.22943 7.50286,12.31029 -4.64416,15.54273 -40.57417,19.33449 -59.46959,26.85043 -99.79547,46.72634 -16.87673,7.81943 -55.23547,25.95122 -72.25451,33.34371 -2.09214,-9.00479 -5.46509,-29.35505 -18.74356,-22.99498 -17.23498,4.57031 -34.29685,10.1794 -50.81085,16.88786 -23.09042,9.90555 -38.26142,35.93362 -34.32556,60.8552 4.89303,15.42468 22.26752,22.08853 36.47582,26.28418 19.73609,5.30813 40.22431,-2.42007 58.40057,-9.79888 11.26061,-6.58466 24.13485,-11.41 33.21606,-21.04109 2.96312,-11.47954 -5.64203,-13.27566 -12.64626,-22.30769 13.09033,-6.95459 26.93222,-12.31594 39.13663,-18.83192 48.22481,-22.38015 93.56396,-49.33553 141.79911,-71.68504 4.86531,15.01595 23.18786,15.42268 30.97744,-0.0393 -4.62407,-11.29107 -11.00218,-24.70818 -16.81913,-36.07325 -2.67963,-4.54125 -6.00202,-10.265979 -11.90005,-10.653102 z M 180.74918,205.12857 c -1.82269,0.71245 -4.07925,1.64278 -7.1577,2.90629 -10.58067,4.34268 -18.57084,10.45139 -26.41183,15.32671 -1.09239,0.87144 -2.00702,1.65394 -3.05356,2.51354 7.82626,-8.11706 21.44939,-15.73493 36.62309,-20.74654 z"
       sodipodi:nodetypes="sccccccccccccccccssccss"
       inkscape:label="znak"
       transform="rotate(-11.961536,162.75353,516.28154)" /></g></svg>
