<?xml version="1.0" encoding="UTF-8" standalone="no"?>
<svg
   version="1.2"
   viewBox="0 0 113.38583 113.38583"
   width="30mm"
   height="30mm"
   id="svg1"
   sodipodi:docname="OpilecReminderTokenLaser.svg"
   inkscape:version="1.4.2 (f4327f4, 2025-05-13)"
   xml:space="preserve"
   xmlns:inkscape="http://www.inkscape.org/namespaces/inkscape"
   xmlns:sodipodi="http://sodipodi.sourceforge.net/DTD/sodipodi-0.dtd"
   xmlns="http://www.w3.org/2000/svg"
   xmlns:svg="http://www.w3.org/2000/svg"><sodipodi:namedview
     id="namedview1"
     pagecolor="#ffffff"
     bordercolor="#666666"
     borderopacity="1.0"
     inkscape:showpageshadow="2"
     inkscape:pageopacity="0.0"
     inkscape:pagecheckerboard="0"
     inkscape:deskcolor="#d1d1d1"
     inkscape:zoom="4.3578316"
     inkscape:cx="108.88443"
     inkscape:cy="41.419682"
     inkscape:window-width="1920"
     inkscape:window-height="1057"
     inkscape:window-x="-8"
     inkscape:window-y="-8"
     inkscape:window-maximized="1"
     inkscape:current-layer="layer2"
     showgrid="false"
     inkscape:document-units="mm" /><defs
     id="defs1"><clipPath
       clipPathUnits="userSpaceOnUse"
       id="cp1"><path
         d="m 275.5,535.5 c -143.78,0 -260,-116.22 -260,-260 0,-143.78 116.22,-260 260,-260 143.78,0 260,116.22 260,260 0,143.78 -116.22,260 -260,260 z"
         id="path1" /></clipPath></defs><style
     id="style1">
		tspan { white-space:pre } 
		.s0 { fill: none;stroke: #ff0000;stroke-miterlimit:100 } 
	</style><g
     inkscape:groupmode="layer"
     id="layer2"
     inkscape:label="Content"
     style="display:inline"
     transform="scale(0.1989225)"><g
       inkscape:groupmode="layer"
       id="layer3"
       inkscape:label="Kruh"
       transform="scale(5.0270836)"><path
         id="path2"
         style="fill:none;stroke:#000000;stroke-width:0.949978"
         inkscape:label="vnejsi kruh"
         transform="scale(0.19892249)"
         d="M 569.5184,284.99338 A 284.52502,284.52502 0 0 1 284.99338,569.5184 284.52502,284.52502 0 0 1 0.46835327,284.99338 284.52502,284.52502 0 0 1 284.99338,0.46835327 284.52502,284.52502 0 0 1 569.5184,284.99338 Z" /><path
         id="path2-9"
         style="fill:none;stroke:#000000;stroke-width:0.815568"
         inkscape:label="vnitrni kruh"
         transform="scale(0.19892249)"
         d="M 529.26178,284.99338 A 244.2684,244.2684 0 0 1 284.99338,529.26178 244.2684,244.2684 0 0 1 40.724976,284.99338 244.2684,244.2684 0 0 1 284.99338,40.724976 244.2684,244.2684 0 0 1 529.26178,284.99338 Z" /></g><path
       style="baseline-shift:baseline;display:inline;overflow:visible;fill:none;fill-opacity:1;stroke:#000000;stroke-width:0.95;stroke-dasharray:none;stroke-opacity:1;enable-background:accumulate;stop-color:#000000"
       d="m 318.56943,60.276143 c -6.06613,1.248901 -10.82417,10.155173 -16.47511,2.342781 -6.98389,-4.125842 -16.40016,0.388931 -19.90325,4.614875 -7.19139,-8.707343 -17.40926,-2.2114 -21.65956,5.833092 -7.48461,-3.201516 -16.90029,2.61363 -24.42275,-1.421753 -7.25302,-6.897671 -20.95664,-5.307139 -27.07278,2.279829 -4.58041,6.030552 1.54626,24.50889 -4.26148,29.581543 -2.56887,8.27332 5.77515,12.36918 7.97303,18.35098 0.72304,4.85946 -2.87574,17.52313 6.08276,14.56287 0.0201,12.93466 0.73137,25.83111 1.98936,38.6928 0.42943,18.31781 1.12088,36.89958 -3.15566,54.8495 -1.24669,10.21749 -1.98265,20.8774 -7.56524,29.4534 -2.24645,10.5994 8.99278,18.31163 17.97696,20.58129 7.65655,1.56354 15.38312,3.39311 22.51047,5.22791 7.94624,-0.0304 14.65581,3.6187 22.24745,3.42628 11.2491,1.08342 22.09221,-2.18799 33.1764,-3.16539 10.68985,-1.28955 19.73645,-7.3821 27.86446,-13.98925 7.26202,-3.21079 11.58466,-10.05451 15.3277,-16.70012 -4.72012,-4.28145 -8.35446,-7.91183 -1.32591,-12.07116 5.27758,-8.27671 -4.22763,-11.50503 -9.58152,-5.99258 6.61849,-7.29056 24.32698,-14.34847 30.40931,-22.09651 7.54714,-10.66989 12.71285,-17.0383 15.28867,-30.05298 2.80078,-9.66422 -0.59416,-25.66461 -3.00416,-35.23623 -6.1952,-12.94209 -24.66841,-27.60896 -38.64739,-32.40972 -7.28442,-2.93494 0.90944,-23.63924 -3.47615,-29.550892 -3.65444,-5.663446 -0.0335,-16.114679 -10.69732,-15.186911 -5.04968,-0.525151 -7.37088,-2.343635 -4.1171,-6.118278 0.99443,-3.156099 -2.64766,-5.815525 -5.48119,-5.805376 z M 295.84452,81.19512 c 4.45581,1.371316 11.34628,3.156546 4.68424,3.863673 2.79795,13.350746 -23.94668,6.785599 -10.78793,1.114246 3.24105,-1.75142 0.34698,-5.804937 6.10369,-4.977919 z m -22.5335,5.337899 c 12.46423,-0.482171 5.73896,12.856404 18.45155,12.109036 7.61744,1.653995 10.54893,3.016445 12.04643,-1.542798 2.81443,-5.76778 14.71093,-12.943221 14.92759,-4.837694 2.56247,3.464808 12.32461,-4.442204 5.99385,2.833514 -4.48081,11.309683 -15.37679,-8.928095 -15.10846,3.186176 4.434,5.921847 10.06575,11.062647 2.32762,18.865097 -3.09549,4.38387 -10.52838,7.24313 -3.87511,13.23377 5.91637,6.65282 -0.66541,7.25418 -0.92502,13.8601 -4.8704,1.55641 -7.33174,-2.60693 -6.50984,-7.84202 -0.12268,-5.74603 -0.24481,-11.4921 -0.36705,-17.23815 4.29267,0.485 9.36606,-14.60672 2.13836,-10.33557 -5.75352,-4.06669 -17.65752,3.02291 -21.22034,-0.13767 -1.36582,-3.96046 -13.49216,-2.21079 -4.06222,-3.00592 3.61496,-1.95842 17.09487,1.58336 15.02114,-4.08981 -11.78419,1.225 -25.80041,0.29856 -37.50806,-2.201456 -1.66358,-8.051846 3.08054,0.540735 5.79548,-3.831224 34.25987,4.76825 4.61859,-1.732113 7.58903,-7.235316 0.92048,-1.200535 3.75573,-1.201732 5.28505,-1.790065 z m -39.63097,6.360894 c 4.88632,3.971492 15.21378,1.778062 15.04299,5.179917 -6.07739,3.06032 -18.61077,-0.829196 -19.73219,-1.352392 2.54569,-1.357013 2.43863,-2.295065 4.6892,-3.827525 z m -6.03998,12.199817 c -3.19797,1.931 0.21914,17.70043 -3.77291,7.75345 0.93019,-2.74748 0.77168,-6.24038 3.77291,-7.75345 z m 1.00974,22.36383 c 5.88703,1.62176 15.70064,-1.62867 14.44211,5.58785 11.83935,5.99244 -7.87952,-2.28173 -11.06,-0.54472 -0.12175,2.53757 -2.28047,-5.33287 -3.38211,-5.04313 z m 108.38459,19.28171 c 8.73587,0.97161 13.27538,2.3678 17.7859,9.40033 6.63391,11.57588 3.95886,22.48458 -1.10037,34.21158 -5.91343,10.22626 -10.55037,11.29519 -18.52921,19.79864 -1.17138,-5.90679 -1.16483,-10.66572 -1.8829,-18.28848 -0.56308,-13.92879 -2.42134,-22.28613 0.96769,-35.99131 0.85765,-4.54466 -0.31008,-5.57097 2.75889,-9.13076 z M 228.1893,254.45115 c 6.56913,4.64272 13.97389,7.1787 22.4633,6.91845 13.55225,0.35525 26.72775,4.69989 40.35319,3.31086 4.42635,-0.009 17.96367,-0.82903 16.10207,-0.5023 -12.7111,1.17887 -25.50451,1.37422 -38.26145,1.25841 -9.51121,-2.03891 -21.0448,-3.18572 -31.39613,-4.25789 -3.6135,-0.11704 -8.09013,-4.78392 -9.26098,-6.72753 z"
       id="path23"
       inkscape:label="znak"
       sodipodi:nodetypes="cccccccccccccccccccccccccccccccccccccccccccccccccccccccccccccccccccccccccccc" /><path
       id="text2"
       style="font-size:133px;font-family:'New Rocker';-inkscape-font-specification:'New Rocker';letter-spacing:2.02104px;baseline-shift:baseline;white-space:pre;display:inline;overflow:visible;opacity:1;vector-effect:none;enable-background:accumulate;stop-color:#000000;stop-opacity:1;fill:none;stroke:#000000;stroke-opacity:1"
       d="M 411.47465 300.27006 L 407.55706 308.10524 C 406.84875 309.52186 405.90259 311.21815 404.7195 313.16178 L 404.67041 313.24033 L 404.63114 313.31888 C 403.53701 315.25465 402.3565 317.19417 401.08665 319.14126 L 401.06701 319.17071 L 401.04738 319.19035 C 399.8146 321.12758 398.62554 322.97063 397.48325 324.728 L 397.43416 324.81637 L 397.38507 324.89491 C 396.31424 326.67962 395.46194 328.11874 394.82243 329.21506 L 392.46599 333.25048 L 396.11848 336.16658 C 397.25368 337.07474 397.96498 337.81268 398.15091 338.05173 L 398.3571 338.32665 L 398.59274 338.5623 C 399.54139 339.51094 400.70819 340.50691 402.20596 341.72386 L 402.4907 341.96932 L 396.82541 344.58105 C 396.01809 344.95366 394.64965 345.47018 392.88818 346.03419 C 391.04966 346.53368 389.03839 347.03892 386.83997 347.54625 C 384.63736 348.05455 382.44308 348.51572 380.24193 348.94048 C 378.05708 349.27513 376.0886 349.52398 374.38027 349.68668 L 369.91284 350.1187 L 369.05863 359.43648 L 371.97473 361.18417 C 372.80398 361.68172 373.30276 362.15958 373.62424 362.58822 L 373.77152 362.79441 L 373.94825 362.98096 C 374.2086 363.26734 374.58867 363.85164 374.93992 364.90539 L 374.95956 364.95449 L 374.9792 364.99376 C 375.29678 365.89357 375.59426 367.33087 375.74504 369.21572 L 375.75486 369.32373 L 375.76468 369.42191 C 375.99608 371.35025 376.12796 373.7733 376.12796 376.62871 C 376.12796 379.16837 376.04404 381.8528 375.87268 384.6799 L 375.86286 384.75845 L 375.86286 384.84681 C 375.82923 385.95741 375.78434 387.03775 375.72541 388.08693 L 366.05416 388.08693 L 366.05416 329.94163 C 366.05416 325.59732 366.35222 321.84342 366.89855 318.69943 C 367.47977 315.84429 368.40773 313.91341 369.45137 312.66103 L 362.96133 304.30547 C 359.44669 305.97911 356.19885 307.24551 353.24099 308.12488 L 353.22135 308.1347 L 353.20171 308.14451 C 350.45193 308.98473 347.93634 309.37183 345.612 309.37183 C 343.68596 309.37183 342.20078 309.11311 341.14457 308.74344 L 328.10557 304.17783 L 334.56616 316.38225 C 335.2683 317.7085 335.84356 318.96717 336.2844 320.14275 C 336.66822 321.16626 336.94085 322.22394 337.14843 323.31413 L 330.04964 319.25908 C 329.61994 319.01354 328.73941 318.47127 327.62446 317.75685 C 326.53476 316.92151 325.37809 316.05754 324.14871 315.15494 C 323.01281 314.26177 321.92184 313.36263 320.86932 312.47448 C 319.99084 311.6639 319.39271 311.00642 319.19035 310.7366 L 316.40189 307.0252 L 312.30757 309.20491 C 309.00004 310.96893 306.03595 313.42172 303.44144 316.43135 L 303.44144 316.44117 L 303.43162 316.44117 C 301.1136 319.14553 299.10774 321.94187 297.42269 324.81637 L 295.13497 328.71432 L 298.56164 331.65988 C 299.31129 332.30244 300.25306 333.04784 301.44828 333.96723 C 302.58499 334.84163 303.76487 335.76145 304.99277 336.72623 C 306.13561 337.62417 307.19098 338.51298 308.14451 339.38705 L 308.31143 339.54415 L 308.49798 339.69143 C 308.85471 339.96583 309.16598 340.21801 309.42092 340.43763 L 309.42092 346.54476 C 306.07136 347.19089 302.97541 347.71942 300.1326 348.12554 L 295.47862 348.7932 L 295.47862 354.38976 L 291.13883 353.1919 C 289.08469 352.62524 287.01958 351.72502 284.92371 350.45253 C 282.90118 349.22457 280.99496 347.65688 279.17987 345.69054 L 277.04925 343.38319 L 273.97606 344.09013 C 271.51089 344.65901 269.02162 345.36049 266.49434 346.20111 C 264.04575 346.95697 261.59974 347.85538 259.16972 348.88156 C 256.80948 349.82755 254.53585 350.87106 252.34585 352.01367 C 251.96439 352.21269 251.67433 352.4222 251.30509 352.62242 C 250.88338 351.97991 250.62402 351.30131 250.15632 350.66854 C 248.32764 348.19445 246.19427 346.08966 243.75464 344.46323 L 238.64901 341.0562 L 235.90964 346.54476 C 235.5929 347.17824 234.95853 348.19584 234.02449 349.44122 C 233.12294 350.64329 232.10129 351.82589 230.94147 352.98571 C 229.77005 354.15713 228.56417 355.23568 227.32825 356.24546 C 226.22808 357.06026 225.32323 357.55361 224.84417 357.73787 L 221.36841 359.07319 L 221.36841 364.51265 L 220.07237 362.76496 C 218.3008 360.38015 216.7652 357.05178 215.65403 352.69115 C 214.51799 348.14245 213.95543 343.63154 213.95543 339.12195 C 213.95543 336.13399 214.1986 333.30273 214.67218 330.61911 L 214.67218 330.60929 L 214.67218 330.58966 C 215.11905 327.98294 215.84038 326.06784 216.62606 324.77709 L 221.29968 317.08919 L 212.31573 316.55899 C 211.62856 316.51859 209.28143 316.11034 206.06133 315.26294 C 202.78188 314.37665 199.15453 313.40869 195.17259 312.34684 C 191.18129 311.28249 187.1433 310.25959 183.06635 309.28346 C 178.93885 308.18279 175.30882 307.39222 172.10888 306.90738 L 170.50846 306.66192 L 169.03569 307.3394 C 166.98839 308.28431 164.52695 309.23121 161.70125 310.14749 C 158.80017 310.99921 155.77212 311.81077 152.59948 312.58249 C 149.45307 313.34783 146.30378 313.98792 143.16388 314.4971 L 143.15406 314.4971 L 143.14424 314.4971 C 140.10462 315.00371 137.31474 315.33498 134.77886 315.49859 L 117.31171 316.62772 L 132.3635 325.55275 C 134.02869 326.54145 135.19789 327.94551 136.11418 330.62893 C 137.15539 333.67819 137.68514 336.91813 137.68514 340.44745 C 137.68514 342.50719 137.49624 344.63352 137.10585 346.81967 L 137.09603 346.90804 L 137.07639 347.00623 C 136.76168 349.20927 136.29076 351.31346 135.67235 353.32936 C 135.04396 355.2886 134.31236 357.09992 133.473 358.77864 L 133.45336 358.82773 L 133.4239 358.867 C 132.72801 360.32837 131.99841 361.40667 131.29328 362.16603 L 125.2058 368.7248 L 132.68751 370.76705 C 132.77361 370.84975 132.88851 370.91664 133.11953 371.42489 C 133.7811 372.88034 134.45176 374.96746 135.0145 377.62038 L 135.03414 377.70875 L 135.05378 377.80693 C 135.68908 380.34812 136.18412 383.24347 136.51674 386.48651 L 136.52656 386.56505 L 136.53638 386.6436 C 136.95166 389.79974 137.15494 392.80172 137.15494 395.64719 C 137.15494 398.73153 136.91343 401.40079 136.46765 403.62965 L 136.44801 403.69838 L 136.43819 403.76711 C 136.11562 405.63804 135.56995 406.30489 135.56434 406.3101 L 127.05168 414.21401 L 138.57863 415.64752 C 139.29465 415.73702 141.59226 416.25871 144.75448 417.19884 L 144.82321 417.21848 L 144.88212 417.2283 C 148.15804 418.11369 151.74524 419.09113 155.64322 420.15422 L 155.66286 420.16404 L 155.67268 420.16404 C 159.69886 421.23769 163.7227 422.27255 167.74946 423.25687 C 171.88898 424.26876 175.54308 424.9674 178.76584 425.35804 L 180.32699 425.55441 L 181.76049 424.86711 C 183.66257 423.95411 186.08486 423.02161 188.98692 422.10811 C 191.97607 421.25557 195.04962 420.44382 198.21633 419.67311 L 198.22615 419.67311 C 201.46647 418.90581 204.64945 418.26812 207.78939 417.7585 C 211.02447 417.2478 213.92676 416.9112 216.46897 416.74719 L 227.35771 416.04026 L 227.35771 430.89568 C 227.35771 435.22865 227.01632 438.96498 226.39549 442.06916 L 226.38568 442.12807 L 226.37586 442.1968 C 225.87444 445.06204 224.98558 446.94618 223.9605 448.17628 L 230.45054 456.53185 C 233.97457 454.85374 237.17889 453.58177 240.05306 452.70262 C 242.90239 451.8577 245.48224 451.46549 247.79987 451.46549 C 249.72591 451.46549 251.2111 451.7242 252.2673 452.09387 L 265.29648 456.65949 L 258.83589 444.45506 C 258.13376 443.12881 257.56831 441.87015 257.12747 440.69457 L 257.10783 440.63566 L 257.0882 440.58657 C 256.71802 439.6611 256.41439 438.57616 256.20453 437.317 L 256.19471 437.28754 L 256.19471 437.26791 C 255.96258 435.95254 255.75911 434.47385 255.59578 432.86921 C 255.51748 431.33384 255.47796 429.4867 255.47796 427.3021 L 255.47796 420.3015 C 255.73324 420.3624 256.03201 420.37384 256.28308 420.43896 L 256.30271 420.44878 L 256.33217 420.44878 C 258.50582 420.99219 260.85957 421.79245 263.39169 422.85431 L 266.14087 424.00308 L 268.58569 422.30448 C 272.44729 419.61816 276.27297 417.37203 280.06354 415.55915 L 280.08318 415.54933 L 280.10281 415.53951 C 283.87992 413.69114 287.48362 412.49668 290.91301 411.88702 L 298.3849 410.56152 L 294.69314 403.9242 C 294.64774 403.8424 294.41336 403.26506 294.22185 402.3336 C 294.01121 401.20328 293.79916 399.5537 293.63274 397.47343 C 293.6165 397.27051 293.59919 397.06702 293.58365 396.85487 L 300.3977 396.85487 L 300.3977 403.36455 C 300.3977 409.85172 302.27857 415.92587 305.98444 420.9397 L 307.6045 423.13905 L 311.797 423.13905 L 312.56285 422.91323 C 315.14883 422.13744 317.63055 421.44993 320.02493 420.85134 C 322.33101 420.27482 324.84157 419.77012 327.5361 419.3491 L 331.23768 418.76981 L 331.86606 423.13905 L 336.56914 423.13905 C 339.84937 423.13906 343.14933 422.7311 346.45639 421.93137 C 348.53538 421.44186 350.39962 420.72267 352.31805 420.06585 C 352.58191 420.26884 352.79623 420.54703 353.07407 420.73351 C 354.18117 421.50362 355.3628 422.2068 356.61856 422.83468 L 356.69711 422.87395 L 356.77566 422.91323 C 357.99779 423.47729 359.40168 424.05733 360.96817 424.67074 C 362.48676 425.34579 364.44217 426.25504 366.80037 427.39047 L 370.57068 429.2069 C 369.72688 431.55259 368.99612 433.97301 368.50879 436.53152 L 367.28148 442.95283 L 373.83043 442.95283 C 377.98334 442.95283 381.85387 443.68046 385.57338 445.12272 C 389.32397 446.57703 393.64464 449.02978 398.41601 452.54553 L 402.08814 455.24562 L 405.37734 452.08406 C 407.31927 450.21981 409.57397 448.4416 412.14231 446.7526 C 414.75563 445.12285 417.39681 443.7063 420.06585 442.49136 C 422.8175 441.27868 425.49577 440.32157 428.10722 439.60471 C 430.66149 438.99067 432.93419 438.70141 434.882 438.70141 L 441.73533 438.70141 L 440.14473 432.03463 C 439.85773 430.82924 439.52936 428.17527 439.35925 424.55292 C 439.27325 420.90521 439.23161 416.32669 439.23161 410.80699 L 439.23161 340.86965 L 431.38661 344.78724 C 428.84678 346.05715 425.65049 347.17614 421.80373 348.07645 L 421.79391 348.08626 L 421.78409 348.08626 C 421.39948 348.17824 421.01196 348.26612 420.62551 348.35136 L 420.62551 330.87439 C 422.12416 329.54338 423.49754 328.40957 424.72965 327.46737 L 424.8082 327.40846 L 424.88675 327.33973 C 426.32513 326.15517 427.42092 325.33936 427.91085 325.01274 L 435.1962 320.14275 L 427.58684 315.80296 C 427.15951 315.55877 426.27719 315.00897 425.17149 314.30073 C 424.07783 313.4622 422.9302 312.59534 421.69573 311.689 C 420.55755 310.79401 419.46098 309.9083 418.40652 309.01836 C 417.53475 308.21296 416.93882 307.54908 416.73737 307.28048 L 411.47465 300.27006 z M 337.22698 323.62832 L 337.24662 323.71669 L 337.27607 323.87379 C 337.54535 325.0182 337.73176 326.33072 337.80627 327.82083 C 337.88927 329.48177 337.93391 331.39074 337.93391 333.53521 L 337.93391 388.08693 L 328.51795 388.08693 L 328.51795 351.98422 L 323.28468 343.26537 L 319.39654 344.2374 C 319.03824 344.32698 318.619 344.42397 318.18886 344.52214 L 318.18886 342.04787 L 319.17071 340.08417 C 320.45012 337.52534 321.8787 335.57248 323.39268 334.12432 C 325.27773 332.31782 327.64238 330.38468 330.48165 328.38049 L 337.22698 323.62832 z M 173.53257 332.54354 C 174.71624 332.78441 175.95279 333.02435 176.82177 333.27993 L 176.86105 333.28975 L 176.90032 333.29957 C 178.24218 333.67231 179.41925 334.10721 180.44481 334.5858 L 180.64118 334.67416 L 180.83755 334.75271 C 182.03627 335.20223 183.19272 335.71621 184.31331 336.31386 C 184.81333 336.58053 185.4312 336.93304 185.97264 337.22698 C 186.01754 338.25599 186.10028 339.23577 186.10028 340.31981 L 186.10028 346.83931 C 186.10028 355.3137 186.0119 364.27518 185.83518 373.73225 L 185.83518 373.7617 L 185.83518 373.78134 C 185.75878 381.88437 185.63393 389.54632 185.49153 397.05124 C 185.19529 397.14724 185.33617 397.1242 185.0006 397.21815 C 182.60123 397.81852 179.93557 398.92754 176.9396 400.35026 C 175.74291 400.10933 174.49178 399.86777 173.54239 399.60405 C 172.15091 399.21753 170.86334 398.79481 169.65425 398.34728 C 168.48228 397.79602 167.31733 397.2181 166.13922 396.58977 C 165.6701 396.33958 165.08366 396.00974 164.57808 395.73555 C 164.56078 392.88388 164.54569 390.05583 164.47989 386.63378 L 164.47989 373.83043 L 164.47989 362.12675 L 164.47989 350.74708 C 164.56779 347.14879 164.65722 343.81374 164.74499 340.74201 L 164.74499 340.73219 C 164.79499 338.9318 164.84244 337.65948 164.89227 336.1764 C 165.26488 336.03863 165.20572 336.04277 165.57957 335.92111 L 165.62866 335.90148 L 165.63848 335.90148 C 167.88134 335.20441 170.63444 333.92394 173.53257 332.54354 z M 411.85757 338.97468 L 411.85757 349.68668 C 411.3058 349.73448 410.75361 349.77961 410.19824 349.81432 L 405.12206 350.12852 L 405.12206 361.10563 L 409.14766 362.17584 C 409.73056 362.33128 410.0182 362.49522 410.0706 362.51949 L 410.08042 362.52931 L 410.29642 362.71586 L 410.35533 362.75514 C 410.36703 362.78144 410.35963 362.75692 410.40443 362.87296 C 410.52378 363.18329 410.77398 364.24812 410.84626 365.83815 L 410.85608 365.95598 L 410.8659 366.08362 C 411.02046 367.7838 411.11136 370.12664 411.11136 373.03513 L 411.11136 387.58618 L 404.5035 390.47283 L 403.58055 389.77571 L 403.58055 368.25351 L 403.58055 362.27403 L 403.58055 362.26421 C 403.65715 360.73456 403.70251 359.29582 403.70819 357.94406 C 403.79299 356.58756 403.87908 355.32159 403.96348 354.13447 C 404.13735 352.9021 404.31288 351.58182 404.48386 350.12852 L 405.18097 344.14904 L 405.99591 344.80688 L 409.44221 341.36058 C 410.22561 340.57718 411.03063 339.77991 411.85757 338.97468 z M 295.47862 357.6986 L 295.47862 358.50372 L 300.3977 360.63434 L 300.3977 388.08693 L 293.20072 388.08693 C 293.14217 385.43453 293.11236 382.41195 293.11236 379.02443 C 293.11236 375.7501 293.20554 372.52427 293.37746 369.34337 L 293.37746 369.33355 C 293.53291 366.37999 294.0443 363.19473 294.9386 359.78012 L 295.47862 357.6986 z M 221.36841 367.60549 L 221.36841 368.25351 L 225.19763 369.43173 C 225.55856 369.54279 225.70492 369.6428 225.74747 369.6772 L 225.74747 369.68701 L 225.91439 369.84411 C 225.92439 369.87601 226.052 370.09214 226.20894 370.6885 L 226.24822 370.85542 L 226.30713 371.02233 C 226.57276 371.81922 226.94045 373.79646 227.10243 376.55016 L 227.10243 376.55998 C 227.26878 379.30466 227.35771 383.1188 227.35771 387.92983 L 227.35771 388.08693 L 213.70996 388.08693 C 213.97031 384.9189 214.55449 381.84929 215.45766 378.85751 L 215.45766 378.8477 L 215.45766 378.82806 C 216.73827 374.506 218.32837 371.37475 219.93491 369.38264 L 221.36841 367.60549 z M 264.68773 371.30707 C 264.66233 371.7049 264.63468 372.02948 264.60918 372.4362 L 264.59937 372.51475 L 264.59937 372.60312 C 264.50897 375.49678 264.46191 378.38895 264.46191 381.28269 L 264.46191 390.9343 L 264.46191 391.00303 C 264.51341 392.90883 264.62453 394.16469 264.70737 395.66682 C 263.92813 396.12531 263.20606 396.43261 262.38038 396.98251 C 261.47459 397.57206 260.84062 398.1527 260.06321 398.7302 C 258.94998 398.38894 257.91833 398.0148 256.69546 397.70908 C 256.24361 397.59612 255.90895 397.6001 255.47796 397.50289 L 255.47796 374.15444 C 255.65411 374.08164 255.68973 374.03226 255.88052 373.95807 L 255.99834 373.9188 L 256.11616 373.85989 C 257.45709 373.26392 258.94972 372.7291 260.59341 372.25947 C 261.92074 371.88024 263.3033 371.58836 264.68773 371.30707 z M 213.92597 396.85487 L 227.35771 396.85487 L 227.35771 411.97539 L 218.99233 406.75194 C 217.22989 405.65041 216.02334 404.16583 215.11401 401.56776 C 214.588 400.06486 214.18779 398.49902 213.92597 396.85487 z M 328.51795 396.85487 L 337.93391 396.85487 L 337.93391 401.76413 C 337.93391 404.72418 337.45125 407.06746 336.64769 408.92183 C 335.90522 410.63522 335.14446 411.38677 334.0065 411.95575 L 332.11153 412.89833 L 332.11153 408.23453 L 329.09724 407.11522 L 329.08742 407.1054 L 329.08742 407.09559 L 329.09724 407.09559 L 329.09724 407.08577 L 329.09724 407.07595 L 329.08742 407.06613 C 329.08393 407.05819 329.08239 407.0496 329.0776 407.03667 C 328.83073 406.36919 328.51795 404.70055 328.51795 402.29433 L 328.51795 396.85487 z M 366.08362 396.85487 L 374.8221 396.85487 C 374.71665 397.53496 374.61031 398.17051 374.49809 398.75966 L 374.47845 398.85784 L 374.45882 398.96585 C 374.3242 399.86334 373.89917 400.60221 373.89916 400.65463 L 370.64923 404.7195 L 376.25561 407.83197 C 377.76974 408.67316 379.09172 409.45813 380.21247 410.1786 L 380.39902 410.29642 L 380.59539 410.40443 C 381.71597 411.00208 382.79255 411.66524 383.84532 412.41722 L 383.92387 412.47614 L 383.9926 412.52523 C 385.11465 413.27327 386.26469 414.14876 387.4389 415.16641 L 387.58618 415.29405 L 387.73346 415.40206 C 387.87826 415.51066 388.10263 415.71742 388.25384 415.83407 C 386.44178 415.14381 384.90271 414.62344 383.09912 414.45948 L 380.64449 414.23365 L 378.86733 415.94207 C 377.67848 417.07923 376.59121 418.35446 375.56831 419.72221 L 374.22317 417.99415 C 372.40095 415.65129 370.89468 413.62488 369.72629 411.95575 L 369.68701 411.90666 L 369.64774 411.85757 C 368.70141 410.57326 368.00336 409.26426 367.47785 407.91052 C 367.0196 406.50689 366.64392 404.80384 366.41745 402.76562 C 366.24381 401.20287 366.13172 399.21714 366.08362 396.85487 z M 411.11136 409.71713 L 411.11136 412.87869 L 411.11136 412.95724 C 411.20046 416.16593 411.28623 418.84292 411.37646 421.00843 L 411.38628 421.11644 L 411.38628 421.21462 C 411.55297 423.29818 411.67337 424.91475 411.75938 426.18279 L 408.60764 427.1941 C 407.19562 426.18477 405.87696 425.17404 404.20894 424.16018 C 402.16764 422.87595 400.06842 421.68876 397.96436 420.52732 L 399.60405 418.89745 C 400.94294 417.55856 402.22387 416.36053 403.44309 415.30387 L 403.45291 415.29405 L 403.46273 415.28423 C 404.74916 414.1586 406.12111 413.0632 407.58651 412.00485 C 408.62035 411.25818 409.87892 410.48491 411.11136 409.71713 z " /></g></svg>
