<?xml version="1.0" encoding="UTF-8" standalone="no"?>
<!-- Created with Inkscape (http://www.inkscape.org/) -->

<svg
   width="500mm"
   height="300mm"
   viewBox="0 0 500 300"
   version="1.1"
   id="svg1"
   inkscape:version="1.4.2 (2aeb623e1d, 2025-05-12)"
   sodipodi:docname="PrintTableTemplate.svg"
   xml:space="preserve"
   xmlns:inkscape="http://www.inkscape.org/namespaces/inkscape"
   xmlns:sodipodi="http://sodipodi.sourceforge.net/DTD/sodipodi-0.dtd"
   xmlns="http://www.w3.org/2000/svg"
   xmlns:svg="http://www.w3.org/2000/svg"><sodipodi:namedview
     id="namedview1"
     pagecolor="#ffffff"
     bordercolor="#000000"
     borderopacity="0.25"
     inkscape:showpageshadow="2"
     inkscape:pageopacity="0.0"
     inkscape:pagecheckerboard="0"
     inkscape:deskcolor="#d1d1d1"
     inkscape:document-units="mm"
     inkscape:zoom="0.24901346"
     inkscape:cx="297.17269"
     inkscape:cy="220.87159"
     inkscape:window-width="1920"
     inkscape:window-height="1043"
     inkscape:window-x="0"
     inkscape:window-y="0"
     inkscape:window-maximized="1"
     inkscape:current-layer="layer1"
     showgrid="false" /><defs
     id="defs1"><clipPath
       clipPathUnits="userSpaceOnUse"
       id="cp1"><path
         d="m 275.5,535.5 c -143.78,0 -260,-116.22 -260,-260 0,-143.78 116.22,-260 260,-260 143.78,0 260,116.22 260,260 0,143.78 -116.22,260 -260,260 z"
         id="path1-2" /></clipPath><clipPath
       clipPathUnits="userSpaceOnUse"
       id="cp1-9"><path
         d="m 275.5,535.5 c -143.78,0 -260,-116.22 -260,-260 0,-143.78 116.22,-260 260,-260 143.78,0 260,116.22 260,260 0,143.78 -116.22,260 -260,260 z"
         id="path1-20" /></clipPath><clipPath
       clipPathUnits="userSpaceOnUse"
       id="cp1-93"><path
         d="m 275.5,535.5 c -143.78,0 -260,-116.22 -260,-260 0,-143.78 116.22,-260 260,-260 143.78,0 260,116.22 260,260 0,143.78 -116.22,260 -260,260 z"
         id="path1-1" /></clipPath><clipPath
       clipPathUnits="userSpaceOnUse"
       id="cp1-5"><path
         d="m 275.5,535.5 c -143.78,0 -260,-116.22 -260,-260 0,-143.78 116.22,-260 260,-260 143.78,0 260,116.22 260,260 0,143.78 -116.22,260 -260,260 z"
         id="path1-5" /></clipPath><clipPath
       clipPathUnits="userSpaceOnUse"
       id="cp1-8"><path
         d="m 275.5,535.5 c -143.78,0 -260,-116.22 -260,-260 0,-143.78 116.22,-260 260,-260 143.78,0 260,116.22 260,260 0,143.78 -116.22,260 -260,260 z"
         id="path1-43" /></clipPath><clipPath
       clipPathUnits="userSpaceOnUse"
       id="cp1-2"><path
         d="m 275.5,535.5 c -143.78,0 -260,-116.22 -260,-260 0,-143.78 116.22,-260 260,-260 143.78,0 260,116.22 260,260 0,143.78 -116.22,260 -260,260 z"
         id="path1-7" /></clipPath><clipPath
       clipPathUnits="userSpaceOnUse"
       id="cp1-97"><path
         d="m 275.5,535.5 c -143.78,0 -260,-116.22 -260,-260 0,-143.78 116.22,-260 260,-260 143.78,0 260,116.22 260,260 0,143.78 -116.22,260 -260,260 z"
         id="path1-76" /></clipPath><clipPath
       clipPathUnits="userSpaceOnUse"
       id="cp1-3"><path
         d="m 275.5,535.5 c -143.78,0 -260,-116.22 -260,-260 0,-143.78 116.22,-260 260,-260 143.78,0 260,116.22 260,260 0,143.78 -116.22,260 -260,260 z"
         id="path1-68" /></clipPath><clipPath
       clipPathUnits="userSpaceOnUse"
       id="cp1-6"><path
         d="m 275.5,535.5 c -143.78,0 -260,-116.22 -260,-260 0,-143.78 116.22,-260 260,-260 143.78,0 260,116.22 260,260 0,143.78 -116.22,260 -260,260 z"
         id="path1-18" /></clipPath></defs><g
     inkscape:label="Tisk"
     inkscape:groupmode="layer"
     id="layer1" /><g
     inkscape:groupmode="layer"
     id="layer4"
     inkscape:label="Cary"
     style="display:inline"><path
       style="fill:none;fill-opacity:0.0923077;stroke:#000000;stroke-width:0.0526521"
       d="M 60,0 V 300"
       id="path1"
       sodipodi:nodetypes="cc" /><path
       style="fill:none;fill-opacity:0.0923077;stroke:#000000;stroke-width:0.0526521"
       d="M 0.02632605,60 H 500"
       id="path1-50"
       sodipodi:nodetypes="cc" /><path
       style="fill:none;fill-opacity:0.0923077;stroke:#000000;stroke-width:0.0526521"
       d="M 0,120.02633 H 499.97367"
       id="path1-50-8"
       sodipodi:nodetypes="cc" /><path
       style="fill:none;fill-opacity:0.0923077;stroke:#000000;stroke-width:0.0526521"
       d="M 0,180.02633 H 499.97367"
       id="path1-50-2"
       sodipodi:nodetypes="cc" /><path
       style="fill:none;fill-opacity:0.0923077;stroke:#000000;stroke-width:0.0526521"
       d="M 0,240.02633 H 499.97367"
       id="path1-50-9"
       sodipodi:nodetypes="cc" /><path
       style="fill:none;fill-opacity:0.0923077;stroke:#000000;stroke-width:0.0526521"
       d="M 120.02633,0 V 300"
       id="path1-3"
       sodipodi:nodetypes="cc" /><path
       style="fill:none;fill-opacity:0.0923077;stroke:#000000;stroke-width:0.0526521"
       d="M 180.02633,0 V 300"
       id="path1-3-1"
       sodipodi:nodetypes="cc" /><path
       style="fill:none;fill-opacity:0.0923077;stroke:#000000;stroke-width:0.0526521"
       d="M 240.02633,0 V 300"
       id="path1-3-3"
       sodipodi:nodetypes="cc" /><path
       style="fill:none;fill-opacity:0.0923077;stroke:#000000;stroke-width:0.0526521"
       d="M 300.02633,0 V 300"
       id="path1-3-3-3"
       sodipodi:nodetypes="cc" /><path
       style="fill:none;fill-opacity:0.0923077;stroke:#000000;stroke-width:0.0526521"
       d="M 360.02633,0 V 300"
       id="path1-3-3-3-1"
       sodipodi:nodetypes="cc" /><path
       style="fill:none;fill-opacity:0.0923077;stroke:#000000;stroke-width:0.0526521"
       d="M 420.02633,0 V 300"
       id="path1-3-3-3-1-3"
       sodipodi:nodetypes="cc" /><path
       style="fill:none;fill-opacity:0.0923077;stroke:#000000;stroke-width:0.0526521"
       d="M 480.02633,0 V 300"
       id="path1-3-3-3-1-3-1"
       sodipodi:nodetypes="cc" /></g><style
     id="style1">
		tspan { white-space:pre } 
		.s0 { fill: none;stroke: #ff0000;stroke-miterlimit:100 } 
	</style><style
     id="style1-2">
		tspan { white-space:pre } 
		.s0 { fill: none;stroke: #ff0000;stroke-miterlimit:100 } 
	</style><style
     id="style1-9">
		tspan { white-space:pre } 
		.s0 { fill: none;stroke: #ff0000;stroke-miterlimit:100 } 
	</style><style
     id="style1-4">
		tspan { white-space:pre } 
		.s0 { fill: none;stroke: #ff0000;stroke-miterlimit:100 } 
	</style><style
     id="style1-1">
		tspan { white-space:pre } 
		.s0 { fill: none;stroke: #ff0000;stroke-miterlimit:100 } 
	</style><style
     id="style1-22">
		tspan { white-space:pre } 
		.s0 { fill: none;stroke: #ff0000;stroke-miterlimit:100 } 
	</style><style
     id="style1-7">
		tspan { white-space:pre } 
		.s0 { fill: none;stroke: #ff0000;stroke-miterlimit:100 } 
	</style><style
     id="style1-0">
		tspan { white-space:pre } 
		.s0 { fill: none;stroke: #ff0000;stroke-miterlimit:100 } 
	</style><style
     id="style1-79">
		tspan { white-space:pre } 
		.s0 { fill: none;stroke: #ff0000;stroke-miterlimit:100 } 
	</style></svg>
