<?xml version="1.0" encoding="UTF-8" standalone="no"?>
<svg
   version="1.2"
   viewBox="0 0 570 570"
   width="570"
   height="570"
   id="svg1"
   sodipodi:docname="RoleTokenLaserTemplate.svg"
   inkscape:version="1.4.2 (f4327f4, 2025-05-13)"
   xml:space="preserve"
   xmlns:inkscape="http://www.inkscape.org/namespaces/inkscape"
   xmlns:sodipodi="http://sodipodi.sourceforge.net/DTD/sodipodi-0.dtd"
   xmlns="http://www.w3.org/2000/svg"
   xmlns:svg="http://www.w3.org/2000/svg"><sodipodi:namedview
     id="namedview1"
     pagecolor="#ffffff"
     bordercolor="#666666"
     borderopacity="1.0"
     inkscape:showpageshadow="2"
     inkscape:pageopacity="0.0"
     inkscape:pagecheckerboard="0"
     inkscape:deskcolor="#d1d1d1"
     inkscape:zoom="1.4818182"
     inkscape:cx="260.82822"
     inkscape:cy="282.42331"
     inkscape:window-width="1920"
     inkscape:window-height="1057"
     inkscape:window-x="-8"
     inkscape:window-y="-8"
     inkscape:window-maximized="1"
     inkscape:current-layer="layer2" /><defs
     id="defs1"><clipPath
       clipPathUnits="userSpaceOnUse"
       id="cp1"><path
         d="m 275.5,535.5 c -143.78,0 -260,-116.22 -260,-260 0,-143.78 116.22,-260 260,-260 143.78,0 260,116.22 260,260 0,143.78 -116.22,260 -260,260 z"
         id="path1" /></clipPath></defs><style
     id="style1">
		tspan { white-space:pre } 
		.s0 { fill: none;stroke: #ff0000;stroke-miterlimit:100 } 
	</style><g
     id="Background" /><g
     inkscape:groupmode="layer"
     id="layer1"
     inkscape:label="Template"><path
       id="Path 0 copy"
       class="s0"
       d="m 253.96776,1.9812412 c -4.83809,0.7256238 -12.51049,1.8658898 -17.06826,2.5396834 -4.54737,0.6737937 -14.55576,2.8299332 -22.23856,4.8098491 -7.68279,1.9695513 -20.01678,5.7427953 -27.40888,8.3757733 -7.40247,2.632979 -20.89926,8.551995 -30.00441,13.164891 -9.10514,4.602528 -22.37354,12.263042 -29.48531,17.021062 -7.11177,4.747653 -17.57697,12.48073 -23.26639,17.176553 -5.689435,4.695823 -15.573238,13.828318 -21.968643,20.296736 -6.385022,6.468418 -15.147556,16.191781 -19.456148,21.592491 -4.318975,5.41108 -11.576098,15.42469 -16.133862,22.24555 -4.547382,6.83124 -12.178261,20.3382 -16.95405,30.00974 -5.533687,11.2368 -10.714379,23.75899 -14.316985,34.66408 -3.114645,9.39165 -6.8418376,22.43215 -8.2953386,28.97313 -1.453501,6.54097 -3.5922235,19.22903 -4.7446423,28.19566 -1.3912082,10.80144 -2.09719388,22.31812 -2.10757603,34.1458 0,12.12828 0.67483933,22.9919 2.10757603,33.88662 1.162801,8.82153 3.3222877,21.39554 4.7861709,27.93654 1.4638831,6.55133 4.44356,17.48752 6.623812,24.31875 2.180251,6.83123 6.104705,17.53937 8.721006,23.80046 2.616301,6.2611 7.57897,16.73082 11.015462,23.28217 3.446873,6.54098 9.676163,17.02106 13.86017,23.28215 4.173624,6.2611 11.119282,15.79787 15.427874,21.20896 4.308592,5.40071 13.071127,15.12406 19.466531,21.60285 6.385023,6.47879 16.279208,15.58018 21.968643,20.23455 5.68942,4.64399 13.36182,10.563 17.06825,13.15452 3.69605,2.59151 11.60724,7.66051 17.57698,11.25753 5.98013,3.6074 16.92291,9.43312 24.315,12.96793 7.39209,3.52447 18.80207,8.31359 25.34283,10.63558 6.54075,2.322 18.17914,5.82573 25.86193,7.7849 7.6828,1.94883 22.34238,4.7684 32.58957,6.24037 14.74265,2.1354 22.60194,2.69517 37.7495,2.69517 15.15794,0 23.01723,-0.55977 37.75988,-2.69517 10.24718,-1.47197 24.90677,-4.29154 32.58957,-6.24037 7.68278,-1.95917 19.31079,-5.4629 25.86193,-7.7849 6.54076,-2.32199 17.94035,-7.11111 25.34283,-10.63558 7.39208,-3.53481 18.33487,-9.36053 24.30461,-12.96793 5.98012,-3.59702 13.89132,-8.66602 17.58736,-11.25753 3.69605,-2.59152 11.37883,-8.51053 17.06826,-13.1649 5.68942,-4.65435 15.57322,-13.76612 21.95824,-20.23454 6.39541,-6.46842 15.14756,-16.19177 19.46654,-21.59248 4.30859,-5.41109 11.42035,-15.18628 15.79125,-21.72725 4.37088,-6.55136 11.24387,-18.42049 15.27214,-26.39199 4.02828,-7.96113 9.22972,-19.37415 11.5657,-25.345 2.336,-5.98121 5.92822,-16.45093 7.99426,-23.28216 2.06605,-6.83123 4.88999,-18.23389 6.27083,-25.35538 1.39121,-7.1111 3.22885,-18.75218 4.08018,-25.86329 0.86172,-7.11113 1.5677,-20.84614 1.5677,-30.52804 0,-9.81665 -0.70598,-23.07484 -1.59885,-30.00973 -0.8721,-6.82087 -2.30483,-16.368 -3.16655,-21.20894 -0.86172,-4.83059 -2.907,-13.91125 -4.54739,-20.17235 -1.64037,-6.2611 -4.91075,-16.96923 -7.27788,-23.80045 -2.35675,-6.83125 -8.17076,-20.33822 -12.9154,-30.00974 -4.74463,-9.67154 -12.35476,-23.1785 -16.90213,-30.00974 -4.55776,-6.82086 -11.81489,-16.83447 -16.13386,-22.24555 C 502.62025,101.55757 493.85772,91.844574 487.47269,85.386521 481.08767,78.918102 471.20387,69.816706 465.51445,65.151982 459.82502,60.487257 452.14224,54.557873 448.44619,51.96636 444.75015,49.374846 436.83895,44.31621 430.85883,40.708823 424.88909,37.101437 413.9463,31.275712 406.55422,27.751254 399.15174,24.226796 387.75215,19.448044 381.21139,17.136415 374.66025,14.814417 363.95626,11.528378 357.4155,9.8179792 350.87475,8.1075792 341.33354,5.9929045 336.20478,5.1325219 331.08637,4.2617733 321.77358,2.8416237 315.52353,1.970875 308.01724,0.92390344 297.0952,0.4366989 283.45307,0.52999334 272.07423,0.60255536 258.80584,1.2556173 253.96776,1.9812412 Z"
       style="stroke-width:1.03741"
       inkscape:label="vnejsi kruh" /><path
       id="Path 0"
       class="s0"
       d="m 265.85013,27.483209 c -2.18288,0.208543 -7.78893,0.873904 -12.44244,1.459816 -4.66343,0.595844 -10.93427,1.539263 -13.95061,2.105316 -3.00642,0.556121 -11.52961,2.512475 -18.92164,4.359591 -7.39203,1.837184 -19.05063,5.451972 -25.89695,8.02403 -6.84631,2.57206 -17.3837,7.150127 -23.40647,10.159138 -6.0327,3.018944 -15.43895,8.192855 -20.916,11.499788 -5.47708,3.306933 -13.55374,8.70925 -17.92944,12.016186 -4.3856,3.306932 -11.77765,9.245508 -16.44107,13.188011 -4.65352,3.942499 -11.62883,10.476915 -15.49848,14.508775 -3.869674,4.04181 -10.37864,11.38062 -14.466589,16.3162 -4.087947,4.93557 -11.023564,14.35985 -15.419103,20.93398 -4.395538,6.58408 -10.735823,17.34899 -14.089528,23.93306 -3.353706,6.57416 -8.11636,16.89217 -10.596914,22.93007 -2.480545,6.02794 -6.121992,16.57439 -8.096512,23.42659 -1.974519,6.8522 -4.663441,18.29241 -5.983092,25.42266 -1.309727,7.12034 -2.847671,18.34207 -3.423155,24.91621 -0.575495,6.58408 -1.051758,16.67371 -1.051758,22.43353 0,5.75981 0.476263,15.84945 1.051758,22.43353 0.575484,6.57413 2.113428,17.78593 3.423155,24.9162 1.319651,7.13027 3.939113,18.34205 5.824335,24.92612 1.895135,6.57415 5.308376,16.67372 7.590486,22.43353 2.2821,5.7499 7.163825,16.29634 10.84497,23.42659 3.67121,7.12033 10.239712,18.34207 14.575715,24.91621 4.336003,6.58408 12.214231,17.12058 17.512683,23.4266 5.288538,6.30602 13.375129,15.05499 17.969109,19.44437 4.58407,4.38938 12.15471,11.04297 16.8082,14.78686 4.65353,3.73396 13.39498,10.09956 19.42768,14.14137 6.02278,4.03186 17.00667,10.48684 24.3987,14.33997 7.39205,3.84318 19.49714,9.28524 26.88918,12.0857 7.40195,2.80046 19.50706,6.62379 26.89909,8.49077 7.39203,1.86697 19.49713,4.38939 26.88918,5.60094 11.27161,1.83718 17.40353,2.19469 37.85319,2.19469 20.44967,0 26.58159,-0.35751 37.85321,-2.19469 7.39205,-1.21155 19.49713,-3.73397 26.88916,-5.60094 7.39204,-1.86698 19.49714,-5.69031 26.8991,-8.49077 7.39204,-2.80046 19.26892,-8.12334 26.39306,-11.81756 7.12415,-3.70418 18.09812,-10.15915 24.3987,-14.33999 6.3006,-4.18084 15.27028,-10.63581 19.92379,-14.33997 4.65352,-3.70417 13.6331,-11.92681 19.95354,-18.27255 6.32045,-6.34574 14.53603,-15.35292 18.26677,-20.01042 3.73076,-4.66745 10.34887,-13.86331 14.71463,-20.43745 4.36577,-6.58407 11.47009,-19.14645 15.78624,-27.91529 4.30622,-8.76883 9.48563,-20.43745 11.4899,-25.91921 2.01421,-5.48175 5.14963,-15.79979 6.96539,-22.93006 1.81576,-7.13026 4.33601,-19.46424 5.5862,-27.40881 1.90506,-12.0559 2.28212,-18.352 2.28212,-37.88574 0,-19.30534 -0.38698,-25.88942 -2.20273,-37.3892 -1.21051,-7.67646 -3.72083,-20.01044 -5.58621,-27.40883 -1.85545,-7.40833 -5.01072,-17.94482 -7.015,-23.42659 -2.00427,-5.48177 -7.29282,-17.37878 -11.74788,-26.42567 -4.45507,-9.04691 -11.57922,-21.59935 -15.816,-27.90537 -4.23677,-6.306 -10.76558,-15.26354 -14.50626,-19.90119 -3.74068,-4.63763 -10.37863,-12.21479 -14.76424,-16.8425 -4.38562,-4.62771 -11.77765,-11.628879 -16.43117,-15.551517 -4.66342,-3.932571 -12.05548,-9.851287 -16.44108,-13.158219 -4.37569,-3.306936 -12.45237,-8.709253 -17.92943,-12.016186 -5.47706,-3.306933 -14.88331,-8.480844 -20.916,-11.499788 -6.02278,-3.009011 -16.56016,-7.587078 -23.40649,-10.159138 -6.8463,-2.572058 -18.50491,-6.196777 -25.89695,-8.043892 -7.39203,-1.847117 -16.13349,-3.8134 -19.41774,-4.379453 -3.29417,-0.566051 -8.89029,-1.519402 -12.45236,-2.105315 -3.56207,-0.595842 -15.88545,-1.241341 -27.39521,-1.439955 -11.49984,-0.198616 -22.71193,-0.188684 -24.90474,0.01985 z"
       style="stroke-width:0.992647"
       inkscape:label="vnitrni kruh" /><g
       inkscape:groupmode="layer"
       id="layer3"
       inkscape:label="Positions"
       style="display:none"><rect
         style="display:inline;fill:#ff2121;fill-opacity:0.107692;stroke:#000000;stroke-width:1.05245;stroke-opacity:1"
         id="rect1"
         width="300"
         height="300"
         x="135"
         y="80.172386" /><rect
         style="display:inline;fill:#de0000;fill-opacity:0.0923077;stroke:#000000;stroke-width:1.00157;stroke-opacity:1"
         id="rect2"
         width="300"
         height="83.006134"
         x="135"
         y="401.53375" /></g><text
       xml:space="preserve"
       style="font-size:107.967px;font-family:'Didact Gothic';-inkscape-font-specification:'Didact Gothic';text-align:start;letter-spacing:0px;writing-mode:lr-tb;direction:ltr;text-anchor:start;display:none;fill:#de0000;fill-opacity:0.0923077;stroke:#000000;stroke-width:5.731;stroke-dasharray:none;stroke-opacity:1"
       x="134.16965"
       y="460.08139"
       id="text2"
       inkscape:label="Text"><tspan
         sodipodi:role="line"
         id="tspan2"
         x="134.16965"
         y="460.08139"
         style="font-style:normal;font-variant:normal;font-weight:normal;font-stretch:normal;font-family:'New Rocker';-inkscape-font-specification:'New Rocker';letter-spacing:0px;fill:#000000;fill-opacity:1;stroke:#000000;stroke-width:5.731;stroke-dasharray:none;stroke-opacity:1">Empat</tspan></text></g><g
     inkscape:groupmode="layer"
     id="layer2"
     inkscape:label="Content"><path
       style="fill:none;stroke-width:1.12811;stroke:#ff1818;stroke-opacity:1;fill-opacity:1"
       d="m 281.8223,370.9259 c -5.68587,-20.87201 -17.57794,-34.36662 -34.23906,-38.853 -6.99271,-1.88294 -11.88611,-6.831 -19.45725,-19.67461 -6.30154,-10.68988 -23.69912,-31.41379 -25.17757,-29.99138 -0.64904,0.62445 8.42609,19.4095 10.70108,22.15068 0.71043,0.85602 1.05779,1.79028 0.77194,2.07615 -0.28586,0.28586 -2.99427,-2.89923 -6.01867,-7.07797 -3.0244,-4.17874 -9.84305,-12.62902 -15.15254,-18.7784 -13.42741,-15.55143 -21.41034,-25.52039 -23.26238,-29.0497 -0.86663,-1.65149 -2.76792,-3.94052 -4.22511,-5.08674 -10.75809,-8.46231 -23.11451,-27.72562 -26.28877,-40.98343 -1.89956,-7.93384 -1.90076,-7.89678 0.256,-7.89678 1.62493,0 1.60165,-0.33541 -0.21537,-3.10231 -1.7392,-2.64839 -2.00043,-5.24809 -1.78545,-17.76776 0.66468,-38.70985 4.12634,-44.70414 34.1023,-59.05251 7.79977,-3.73347 14.88045,-7.63041 15.73482,-8.65985 3.31883,-3.99896 -9.2983,-0.48852 -24.55772,6.83263 -8.22112,3.94432 -14.94749,6.96423 -14.94749,6.71093 0,-0.9116 13.14233,-9.21024 21.149,-13.35441 12.69797,-6.57235 18.41637,-7.98927 31.51938,-7.80999 6.32076,0.0865 14.44317,0.9298 18.0498,1.87403 3.60662,0.94423 9.07504,2.04177 12.15204,2.43899 4.97055,0.64166 6.35463,1.49705 12.40923,7.66919 9.85606,10.04737 29.39994,25.55924 32.20292,25.55924 4.20369,0 6.77465,-2.22373 9.52757,-8.24078 1.64035,-3.58532 6.33242,-9.65681 12.08558,-15.63865 8.99352,-9.35099 9.79836,-9.90052 18.42912,-12.58316 7.82827,-2.43322 11.33568,-2.825863 26.45293,-2.961283 9.70021,-0.0869 18.03025,-0.65593 18.78617,-1.283303 0.88732,-0.736409 1.49393,-0.741621 1.74986,-0.015 0.21546,0.611673 3.43764,1.215923 7.16041,1.342783 13.10791,0.446673 32.08284,9.679553 41.74077,20.310323 2.48218,2.73222 6.51867,8.13983 8.96997,12.0169 2.78256,4.40103 4.85539,6.65073 5.51764,5.98848 1.32339,-1.32339 -1.02942,-13.90263 -3.49086,-18.66386 -1.6093,-3.11291 -1.60485,-3.27247 0.053,-1.89731 2.72764,2.26256 6.18501,10.23931 7.05032,16.26634 0.42315,2.94719 1.21936,5.35853 1.76937,5.35853 1.42237,0 1.26232,17.77434 -0.16431,18.24988 -0.65906,0.21969 -1.60367,7.23684 -2.17667,16.1696 -1.07157,16.70498 -2.06422,20.41811 -10.40148,38.9078 -6.37534,14.13874 -8.55927,17.68734 -15.42501,25.0636 -3.62836,3.89817 -7.88294,9.11818 -9.45462,11.60003 -1.57167,2.48184 -8.19401,10.85807 -14.71632,18.61384 -6.5223,7.75577 -11.72133,14.24899 -11.55341,14.42939 0.70057,0.75254 22.00299,-12.64987 28.51023,-17.93721 3.87789,-3.15089 7.0507,-5.1736 7.0507,-4.49488 0,0.67872 -0.49302,1.23403 -1.09559,1.23403 -0.60258,0 -4.41954,4.01773 -8.48215,8.92829 -9.04586,10.93394 -27.51807,25.23456 -41.75135,32.32266 -5.58416,2.78088 -13.77694,7.70905 -18.20616,10.95148 -4.42924,3.24244 -11.79017,8.17977 -16.35763,10.97184 -10.48285,6.40815 -17.14243,12.43958 -22.30084,20.19738 -8.52838,12.82594 -9.35371,14.85912 -10.11863,24.9271 l -0.72852,9.58896 z m 0.9972,-54.83017 c 1.17067,-6.1213 1.3247,-10.44774 0.57824,-16.24089 -0.55965,-4.34323 -1.03414,-8.48576 -1.05444,-9.20561 -0.0203,-0.71986 -2.19442,-3.95796 -4.83138,-7.19578 -2.63696,-3.23782 -5.95621,-7.47152 -7.37611,-9.40823 l -2.58164,-3.52129 0.70056,5.07651 c 0.38531,2.79207 1.15311,6.51044 1.70623,8.26304 0.59114,1.87305 0.58948,3.03557 -0.005,2.82028 -0.55533,-0.20144 -5.30049,-4.28027 -10.5448,-9.06406 -9.79313,-8.93317 -19.7637,-22.63712 -31.83915,-43.76103 -3.01433,-5.27303 -9.19256,-15.19719 -13.72941,-22.0537 -4.53634,-6.85651 -8.2483,-13.2991 -8.2483,-14.31685 0,-1.01776 -0.58492,-2.21197 -1.29981,-2.6538 -1.79621,-1.11011 -0.60722,7.33683 1.67731,11.91629 l 1.7385,3.4849 -4.58312,-2.57104 c -10.4931,-5.8864 -18.96701,-19.3378 -18.96701,-30.10803 0,-3.88734 4.26824,-12.30042 8.69316,-17.13496 2.9573,-3.23106 9.94496,-6.56337 19.60879,-9.35112 8.08659,-2.33275 10.65578,-2.26367 16.6294,0.44719 5.02965,2.28247 6.37971,0.64206 1.4942,-1.81557 -3.8135,-1.91838 -4.41273,-2.95682 -1.29876,-2.25068 1.54988,0.35146 7.0796,0.85926 12.28825,1.12844 7.08636,0.36622 10.22393,1.04661 12.46413,2.70286 1.6466,1.21739 7.28415,4.28226 12.52789,6.81085 8.9296,4.30593 9.28374,4.38965 5.58567,1.32034 -20.67313,-17.15826 -26.69188,-21.84761 -35.19431,-27.42079 -9.37904,-6.14777 -10.13342,-6.43145 -17.10321,-6.43145 -4.12433,0 -10.39757,0.97369 -14.44261,2.24167 -3.93316,1.23292 -8.12808,2.24822 -9.32204,2.25623 -1.99786,0.0134 -1.95292,-0.22238 0.56406,-2.95884 l 2.73489,-2.97337 -2.59415,1.35082 c -1.42679,0.74295 -3.17668,2.62934 -3.88867,4.19197 -0.71198,1.56264 -3.10469,3.76464 -5.31712,4.89334 -11.05026,5.63742 -21.54829,17.72689 -25.59642,29.47668 -1.7748,5.15139 -2.20669,14.50468 -0.93674,20.28673 l 0.81733,3.72125 -2.91858,-1.91232 c -1.60522,-1.05179 -3.15343,-1.91233 -3.44046,-1.91233 -0.80102,0 6.31978,15.84701 9.19353,20.45978 3.58379,5.75248 16.84993,18.0529 30.55535,28.33105 6.412,4.80858 11.1356,8.74287 10.49689,8.74287 -0.63872,0 -1.47504,-0.50765 -1.85851,-1.12812 -0.38347,-0.62046 -1.25358,-1.12811 -1.93359,-1.12811 -0.68001,0 -0.31438,1.0188 0.8125,2.264 1.1269,1.24519 2.6068,3.4027 3.2887,4.79448 1.36155,2.77896 21.98408,18.69441 32.76267,25.28458 8.82445,5.39538 15.72056,11.00981 18.20256,14.81949 l 1.97955,3.03844 -3.86585,-3.14603 c -3.11975,-2.53885 -21.41052,-12.08349 -23.15607,-12.08349 -1.60265,0 0.36794,3.01295 5.82732,8.90974 6.4528,6.96979 17.54687,13.6525 22.66474,13.6525 4.43554,0 11.65819,7.63494 15.80026,16.70215 2.07062,4.53272 3.76477,9.05927 3.76477,10.05901 0,3.77053 1.22937,0.35233 2.76933,-7.69999 z m 16.98913,-8.88992 c -3.70932,-4.09875 -1.82894,-13.55249 5.57449,-28.02609 5.52506,-10.80142 7.61507,-13.65001 15.36192,-20.93769 8.42672,-7.92726 15.40177,-11.93833 23.09283,-13.27977 1.21377,-0.21169 3.02363,-1.65403 4.0219,-3.20518 0.99828,-1.55116 11.91277,-13.13738 24.25441,-25.74715 25.68777,-26.24587 26.71821,-28.83439 30.8883,-42.50596 6.68702,-21.92334 1.8769,-37.15222 -15.19975,-48.12253 -13.50534,-8.67605 -28.87844,-10.42401 -46.76849,-5.31771 -8.1824,2.33549 -30.42154,9.60257 -28.26882,10.08941 0.31023,0.0702 2.34083,0.37744 4.51245,0.68284 2.17161,0.30542 4.07639,0.68304 4.23284,0.83918 0.15646,0.15613 -4.15857,2.45491 -9.58895,5.10839 -5.43037,2.65347 -11.79395,6.55827 -14.14127,8.67732 -4.1674,3.76212 -4.19396,3.83538 -1.12811,3.11221 1.72686,-0.40732 3.62202,-1.1827 4.21146,-1.72305 1.62988,-1.49416 4.00183,-1.17473 4.69525,0.63231 0.34081,0.88812 -0.40563,3.04564 -1.65875,4.79447 -1.34694,1.87979 -1.0231,1.29429 -1.4505,5.29579 l -0.36509,3.90554 2.11631,-1.95154 c 12.57822,-11.59891 36.45978,-27.14392 59.04737,-28.62388 3.25742,-0.21343 5.92259,-0.0354 5.92259,0.39548 0,0.43095 -2.28443,1.85736 -5.07651,3.1698 -2.79207,1.31242 -5.0765,3.1451 -5.0765,4.07262 0,2.14504 0.61401,2.11763 4.5422,-0.2028 2.82818,-1.67066 3.95359,-1.72013 9.72878,-0.42769 8.33512,1.86531 11.24471,3.81838 14.13835,9.4904 3.35192,6.57029 2.44793,22.13587 -1.83715,31.63337 -5.16463,11.44698 -24.21238,37.23025 -29.99083,40.59597 l -3.65209,2.12719 0.78421,-5.2295 c 0.43132,-2.87622 0.52696,-5.2295 0.21255,-5.2295 -0.31442,0 -2.50303,3.67904 -4.8636,8.17562 -4.52852,8.62629 -10.94848,15.58594 -33.39921,36.20694 -17.0877,15.69505 -20.24008,19.79443 -20.84667,27.10925 -0.9558,11.52558 2.85978,26.65393 6.72248,26.65393 0.70232,0 0.36555,-1.00709 -0.7484,-2.23799 z m -13.61831,-34.57045 c 0.95405,-3.80121 -0.14195,-8.91835 -3.02714,-14.13355 -1.5207,-2.7488 -2.03758,-5.10011 -1.54904,-7.04665 0.88013,-3.5067 12.40633,-15.33864 14.94229,-15.33864 3.63026,0 15.36103,-7.31351 19.94596,-12.4352 2.59813,-2.90231 6.47143,-8.52572 8.60734,-12.49646 3.44799,-6.40996 3.92807,-8.35805 4.2812,-17.37253 0.35414,-9.04009 0.10695,-10.64764 -2.25511,-14.66546 l -2.65285,-4.51245 -8.11233,0.226 c -6.94773,0.19356 -8.81323,0.70823 -12.99461,3.58509 -5.28965,3.63937 -12.96535,13.15976 -15.34529,19.03318 -0.81709,2.0165 -2.06791,3.66637 -2.77958,3.66637 -0.71168,0 -3.67693,-1.90369 -6.58946,-4.23042 -20.85502,-16.66047 -27.00523,-18.66738 -34.43568,-11.23694 -4.07408,4.07409 -4.16245,4.34631 -4.1928,12.91689 -0.0272,7.66222 0.42917,9.67782 3.65572,16.14736 3.27742,6.57154 4.5022,7.86931 11.03123,11.68863 4.73176,2.76796 8.56578,6.07144 10.77762,9.28625 4.92057,7.1518 18.1621,33.9915 18.34575,37.18559 0.20524,3.57002 1.41838,3.43198 2.34678,-0.26706 z"
       id="path1-4"
       sodipodi:nodetypes="sssssssssssssssssssssssssssssssssssssssssssssssssssssscsssssscsscsscssscsssssssssssssssscssssscssssssssssscsssssssssssssssssssssssssscsssssssssscssssssssssssssscsssssssssssss"
       inkscape:label="Icon" /><path
       id="path5"
       style="display:none;stroke-width:8.05907"
       d="m 276.32799,515.95806 h 15.42748 v 4.53544 h -15.42748 z"
       inkscape:label="spojovnik pismen" /><g
       id="text3"
       inkscape:label="Text"
       style="display:inline;opacity:1"><path
         id="path6"
         style="font-size:107.967px;font-family:'New Rocker';-inkscape-font-specification:'New Rocker';letter-spacing:0px;baseline-shift:baseline;white-space:pre;display:none;overflow:visible;fill:#eed3a7;fill-opacity:1;stroke:#35200a;stroke-width:4.53543;stroke-dasharray:none;stroke-opacity:1;enable-background:accumulate;stop-color:#000000;stop-opacity:1"
         d="m 133.88281,376.37891 1.84961,4.4707 c 1.01056,2.44219 2.52122,4.6921 4.4668,6.71875 l 0.0215,0.0215 0.0195,0.0215 c 1.44348,1.44347 2.9345,2.48641 4.47266,3.31445 0.0311,0.41554 0.0601,0.65837 0.0918,1.19727 0.0675,1.148 0.10351,2.53642 0.10351,4.15039 0,1.94716 -0.0702,4.04746 -0.21093,6.29883 -0.13626,2.18005 -0.40709,4.3212 -0.81446,6.42773 -0.39812,1.98748 -0.95842,3.85941 -1.67773,5.625 l -0.0117,0.0273 -0.01,0.0254 c -0.60666,1.57733 -1.34425,2.72316 -2.1582,3.53711 l -1.82422,1.82422 1.62305,2.00586 c 0.8054,0.9949 1.64562,2.82374 2.23437,5.50586 l 0.008,0.0312 0.008,0.0332 c 0.66259,2.71664 0.99805,5.57873 0.99805,8.60547 0,1.95273 -0.13517,4.14798 -0.41211,6.57422 -0.27097,2.30318 -0.71027,4.53037 -1.31641,6.68555 l -0.0117,0.041 -0.01,0.0391 c -0.53665,2.14658 -1.19806,4.01597 -1.96289,5.60937 l -0.0195,0.043 -0.0195,0.043 c -0.64944,1.47599 -1.31729,2.16459 -1.6582,2.36914 l -1.9707,1.18164 1.77148,5.31445 2.77734,-1.02929 c 1.59766,-0.59173 3.36825,-0.90039 5.37305,-0.90039 4.57474,0 9.7667,0.41863 15.55664,1.26562 h 0.002 0.002 0.002 0.002 c 5.76043,0.9148 11.60078,2.25156 17.52149,4.01367 l 1.48437,0.44141 1.1836,-1 c 1.80026,-1.5233 3.40281,-2.74737 4.78711,-3.67188 1.46577,-0.93101 2.80095,-1.64255 3.97461,-2.13671 1.22052,-0.51391 2.29519,-0.8449 3.19531,-1.01368 l 0.0644,-0.0117 0.0625,-0.0137 c 1.11998,-0.26352 2.23607,-0.46079 3.34961,-0.59179 l 3.49805,-0.41211 -1.11328,-3.33985 c -0.38735,-1.16202 -0.82195,-3.3115 -1.16993,-6.23437 -0.21679,-1.82115 -0.36603,-3.79773 -0.44726,-5.92578 h 8.55664 v 7.99218 c 0,1.74248 -0.28373,2.91513 -0.56055,3.46875 l -0.0176,0.0352 -0.0156,0.0332 c -0.29009,0.62162 -0.45133,0.68187 -0.55859,0.72657 l -1.76172,0.73437 v 6.39649 h 25.5957 v -6.48047 l -1.86914,-0.69141 c -0.0528,-0.0195 -0.19436,-0.008 -0.49414,-0.81836 -0.29978,-0.81051 -0.55078,-2.31432 -0.55078,-4.37695 V 428.4942 l 7.65625,-3.31055 v 26.36914 c 0,1.74248 -0.28373,2.91513 -0.56055,3.46875 l -0.0176,0.0352 -0.0176,0.0332 c -0.29008,0.62162 -0.44938,0.68187 -0.55664,0.72657 l -1.76367,0.73437 v 6.39649 h 24.94922 v -6.48047 l -1.86914,-0.69141 c -0.0528,-0.0195 -0.19436,-0.008 -0.49414,-0.81836 -0.29978,-0.81051 -0.55078,-2.31432 -0.55078,-4.37695 v -9.82422 -7.88281 c 0,-1.82281 0.0389,-3.06136 0.0742,-4.35743 l 7.79883,-3.34374 v 10.10156 0.0254 c 0.0717,4.086 0.10742,8.17182 0.10742,12.25781 0,0.6181 -0.0657,1.89206 -0.20703,3.6582 -0.14215,1.77675 -0.32079,3.73916 -0.53516,5.88282 -0.20911,2.01925 -0.48749,4.03951 -0.83594,6.06054 l -0.002,0.008 v 0.008 c -0.34631,2.07785 -0.72396,3.77323 -1.10547,5.04492 l -0.49219,1.64063 3.95508,3.95507 2.02344,-2.16797 c 0.93648,-1.00337 2.02468,-2.06079 3.26367,-3.1621 1.22527,-1.08914 2.52304,-2.14498 3.89063,-3.17188 1.43434,-1.02361 2.82522,-1.93949 4.17382,-2.75 1.37308,-0.78333 2.68825,-1.39156 3.93555,-1.82812 l 2.35156,-0.82227 -0.48828,-2.44336 c -0.13776,-0.68879 -0.27742,-1.41673 -0.41601,-2.17773 -0.11849,-0.71096 -0.221,-1.7006 -0.28907,-2.92579 -0.0697,-1.25467 -0.14004,-2.88692 -0.21093,-4.86523 v -3.93945 h 8.30468 v 30.23242 c 0,3.5959 -0.27959,6.72613 -0.80859,9.37109 l -0.008,0.0332 -0.006,0.0351 c -0.44074,2.51852 -1.24937,4.31604 -2.29297,5.56836 l 3.43359,4.42188 c 2.91818,-1.38961 5.59797,-2.45055 8.02149,-3.19141 h 0.002 l 0.002,-0.002 h 0.002 c 2.43139,-0.72086 4.66821,-1.0625 6.71875,-1.0625 1.69577,0 3.06883,0.22468 4.1289,0.5957 l 6.89844,2.41406 -3.41992,-6.46094 c -0.59707,-1.12779 -1.08512,-2.20354 -1.46875,-3.22656 l -0.0117,-0.0293 -0.01,-0.0293 c -0.34624,-0.86561 -0.62041,-1.85335 -0.80664,-2.9707 l -0.002,-0.0137 -0.002,-0.0137 c -0.1974,-1.11857 -0.36558,-2.35902 -0.50196,-3.70508 -0.0667,-1.28966 -0.10351,-2.83659 -0.10351,-4.64843 v -7.50196 c 0.85116,0.15622 1.76607,0.24071 2.57031,0.44922 l 0.0117,0.004 0.0117,0.004 c 1.85185,0.46297 3.8403,1.13383 5.95703,2.02149 l 1.45313,0.60937 1.29101,-0.90039 c 3.19612,-2.22338 6.37466,-4.08705 9.5332,-5.59765 l 0.0117,-0.006 0.0117,-0.004 c 3.17646,-1.55445 6.23344,-2.57653 9.17578,-3.09961 l 3.95313,-0.70312 -1.95117,-3.50977 c -0.14818,-0.26672 -0.37603,-0.87062 -0.55274,-1.74219 -0.18666,-0.9986 -0.35976,-2.38467 -0.49805,-4.11328 -0.0767,-0.95882 -0.14458,-2.03639 -0.20117,-3.22851 h 4.83985 c -0.0184,2.40047 -0.0889,4.80052 -0.20899,7.20117 -0.13336,2.59345 -0.53734,4.64866 -1.10742,6.13086 l -1.4707,3.82422 4.0957,0.0703 c 3.98996,0.0688 7.46963,0.51677 10.43164,1.30664 l 0.008,0.002 0.008,0.002 c 3.06479,0.79951 5.82275,1.95439 8.30859,3.45898 l 2.10937,1.27734 6.42969,-7.73437 c 0.36538,0.56663 0.59004,1.15296 1.00391,1.71289 1.39367,1.88555 3.00115,3.46431 4.81836,4.67578 l 2.70117,1.80078 1.45117,-2.90234 c 0.31797,-0.63593 0.87691,-1.52599 1.67188,-2.58594 0.77776,-1.03702 1.66077,-2.0514 2.65039,-3.04101 1.01212,-1.01213 2.01323,-1.91216 3.00195,-2.70313 l 0.008,-0.006 0.0117,-0.008 c 0.97373,-0.79116 1.802,-1.25714 2.39453,-1.46875 l 1.90235,-0.67969 v -5.48633 l -2.22071,-0.51172 c -0.60606,-0.13986 -0.9945,-0.32891 -1.29492,-0.51171 -0.0439,-0.0427 -0.2627,-0.27201 -0.49219,-0.98829 -0.2023,-0.69269 -0.39992,-1.649 -0.57031,-2.83593 h 10.50781 v 16.13281 l 1.58399,0.79102 c 1.10894,0.55446 2.5269,1.29866 4.23633,2.2246 1.68576,0.91312 3.33536,1.86141 4.94921,2.84375 l 1.8086,1.10157 1.58398,-1.40821 c 0.46072,-0.40952 1.24927,-0.98855 2.31446,-1.65429 1.06974,-0.66859 2.21392,-1.31009 3.43359,-1.91992 l 0.0566,-0.0274 0.0527,-0.0293 c 1.24046,-0.68914 2.51718,-1.34489 3.83008,-1.96679 1.29141,-0.61172 2.4997,-1.11409 3.61524,-1.50782 l 1.91015,-0.67382 v -6.25782 l -2.71484,-0.14257 c -2.10564,-0.11082 -3.60928,-0.78161 -5.00586,-2.16797 -1.13022,-1.18501 -1.88672,-3.14577 -1.88672,-6.41602 v -20.60937 l 9.55469,1.20703 0.61523,-2.4668 c 0.28312,-1.13247 0.7869,-2.35655 1.52735,-3.66016 0.83236,-1.33737 1.74552,-2.53845 2.74609,-3.60156 l 0.7793,-0.82617 v -4.43359 h -15.22266 v -2.85742 c 0,-0.54168 0.0325,-1.61141 0.10352,-3.10352 v -0.002 -0.004 c 0.0695,-1.52951 0.17549,-3.0971 0.31445,-4.70117 0.21105,-1.68543 0.42261,-3.26886 0.63281,-4.74024 0.19972,-1.39806 0.45536,-2.38055 0.57813,-2.6875 l 2.91797,-7.29882 -6.93164,3.70703 c -3.01395,1.61211 -5.83206,2.93329 -8.44532,3.96484 -2.43653,0.96179 -5.12346,1.54964 -8.09961,1.74805 l -5.4746,0.36523 3.30664,4.13477 c -0.0253,-0.0295 -0.0449,-0.0465 -0.0547,-0.0527 l -0.002,-0.002 h -0.002 -0.002 -0.002 v 0.002 0.002 l -0.002,0.002 c -0.003,0.0582 0.23498,0.53266 0.36133,1.20508 l 0.004,0.0156 0.004,0.0176 c 0.19433,0.9716 0.36345,2.1109 0.5,3.4082 v 0.01 l 0.002,0.008 c 0.13816,1.24352 0.2415,2.48573 0.31054,3.72852 l 0.004,0.0879 0.0117,0.0879 c 0.13786,1.17182 0.19531,2.02819 0.19531,2.36523 v 2.04297 c -1.96903,1.63322 -4.00187,2.90585 -6.10547,3.83789 l 0.52735,-0.75781 h -5.48438 c -3.33262,0 -6.01392,-0.55747 -8.12695,-1.54688 -2.13967,-1.10847 -4.31619,-2.81137 -6.4961,-5.18945 l -1.56445,-1.70703 -1.99609,1.17188 c -1.71766,1.00689 -4.41286,2.0368 -7.99219,2.93164 -3.44097,0.86024 -7.68145,1.3164 -12.69141,1.3164 h -1.25976 c -0.47283,-0.10397 -0.84459,-0.10742 -1.22461,-0.10742 h -3.61133 l 0.82031,3.51758 c 0.53518,2.29362 1.15515,4.23009 1.92969,5.86523 l 0.0254,0.0547 0.0273,0.0527 c 0.83366,1.58393 1.79735,2.93842 2.97461,4.01757 l 0.0508,0.0449 0.0527,0.043 c 1.1404,0.95034 2.44726,1.66462 3.85351,2.06641 l 0.11133,0.0312 0.11328,0.0234 c 1.28381,0.25676 2.6254,0.3789 4.01758,0.3789 2.12546,0 4.52015,-0.41724 7.33399,-1.17773 1.40452,-0.3796 2.70171,-0.95156 4.05273,-1.42773 v 4.71679 c -0.65131,0.26831 -1.17282,0.53392 -2.03906,0.79883 -1.48119,0.40249 -3.15043,0.78031 -5.01172,1.125 -1.84338,0.34136 -3.80145,0.61605 -5.87109,0.82422 -2.00906,0.13759 -3.98096,0.20703 -5.91407,0.20703 -1.76121,0 -3.36113,-0.10331 -4.79492,-0.29883 l -4.93359,-0.67187 1.89648,4.60351 c 0.39302,0.95448 0.6997,2.12008 0.88867,3.50586 l 0.002,0.01 0.002,0.01 c 0.0562,0.39304 0.1042,0.79713 0.14453,1.21094 h -4.8457 c -0.0472,-2.15497 -0.0703,-4.60266 -0.0703,-7.33984 0,-2.6849 0.0718,-5.33102 0.21289,-7.94141 v -0.004 -0.002 c 0.13238,-2.51514 0.56557,-5.20119 1.31445,-8.06055 l 0.71484,-2.73632 -2.72656,-0.75196 c -1.81367,-0.50032 -3.61704,-1.28737 -5.42773,-2.38672 -1.7719,-1.07579 -3.43421,-2.44468 -4.9961,-4.13671 l -1.1289,-1.22266 -1.6211,0.37305 c -1.94951,0.44988 -3.92857,1.01231 -5.93554,1.67968 -1.95271,0.60144 -3.90103,1.31395 -5.84375,2.13477 -1.87623,0.75141 -3.68398,1.57866 -5.41993,2.48437 -0.77255,0.40307 -1.38808,0.81885 -2.09375,1.22657 -0.54078,-0.92149 -0.9511,-1.86181 -1.61914,-2.76563 -1.39366,-1.88556 -3.00114,-3.46431 -4.81836,-4.67578 l -2.69921,-1.79883 -1.45313,2.90235 c -0.31795,0.6359 -0.87691,1.52598 -1.67187,2.58593 -0.77777,1.03703 -1.65882,2.04945 -2.64844,3.03907 -0.99519,0.99519 -2.02198,1.91966 -3.07617,2.77929 -0.9873,0.73584 -1.82634,1.20935 -2.4043,1.43164 l -1.83789,0.70704 v 5.27148 l 2.02344,0.62305 c 0.58041,0.17859 0.88807,0.38611 1.08398,0.58203 l 0.125,0.12695 0.10938,0.0898 v 0.002 0.002 c 0.0131,0.0436 0.30413,0.42605 0.53125,1.28906 l 0.0234,0.0898 0.0293,0.0879 c 0.29091,0.87272 0.58683,2.56779 0.72266,4.87695 v 0.002 0.002 c 0.13814,2.27932 0.21093,5.40406 0.21093,9.32812 v 0.10547 h -8.30468 c 0.004,-3.4371 0.0388,-6.3272 0.10546,-8.66016 0.071,-2.48512 0.14239,-4.56951 0.2129,-6.26953 0.13699,-1.63551 0.27426,-2.95523 0.40429,-3.9414 0.19773,-1.0423 0.42371,-2.01522 0.67774,-2.9043 l 0.66601,-2.33203 -2.18945,-1.04297 c -1.44207,-0.6867 -2.6927,-1.33029 -3.76172,-1.92969 -1.09132,-0.68279 -2.14956,-1.36408 -3.17187,-2.04492 -0.91693,-0.65611 -1.84127,-1.38169 -2.77149,-2.17773 -0.98812,-0.9178 -2.07701,-1.93657 -3.27539,-3.06446 l -2.14648,-2.01953 -1.95899,2.20313 c -2.24421,2.52474 -4.40355,4.71749 -6.46875,6.57617 -0.94662,0.85196 -2.13939,1.71488 -3.19336,2.57226 l -0.24414,-0.11523 c -1.44594,-0.68854 -2.69867,-1.3348 -3.76953,-1.93555 -1.08833,-0.68102 -2.14439,-1.35998 -3.16406,-2.03906 -0.92057,-0.65872 -1.84729,-1.38577 -2.78125,-2.18555 -0.98595,-0.91583 -2.06863,-1.93189 -3.26367,-3.05664 l -2.17188,-2.04297 -1.95703,2.25196 c -2.30308,2.65203 -4.55304,4.93386 -6.74023,6.84765 -0.82191,0.71576 -1.89629,1.47281 -2.80469,2.20313 v -3.75586 l -3.44531,-5.74023 -2.0586,0.51562 c -2.25674,0.56419 -4.8476,1.16743 -7.75781,1.80664 -2.90185,0.56587 -5.5851,1.02416 -8.04102,1.375 l -2.45898,0.35156 v 5.55664 l 3.99414,1.72657 v 23.27148 h -8.62695 c 0.009,-1.25954 0.0438,-2.54628 0.10351,-3.86133 v -0.004 -0.002 c 0.0684,-1.57267 0.20479,-3.14619 0.41016,-4.7207 l 0.30664,-2.3418 -4.6582,-1.55273 -1.25586,1.37695 c -3.01151,3.30531 -5.83972,6.72314 -8.48633,10.25196 l -0.0117,0.0156 -0.0117,0.0156 c -2.26516,3.10652 -3.82468,6.67468 -4.96289,10.48438 l -13.54883,-1.36133 c -0.19357,-2.46098 -0.38176,-4.96629 -0.49219,-8.04687 -0.0683,-3.89886 -0.10051,-8.02106 -0.10351,-12.31641 0.2311,-0.0204 0.40082,-0.0677 0.64453,-0.082 1.19403,-0.0702 2.09895,-0.10352 2.64063,-0.10352 0.22695,0 0.3008,0.01 0.58398,0.23633 l 0.12109,0.0977 0.13086,0.082 c 0.51683,0.32889 1.00634,0.76035 1.48047,1.33984 0.56097,0.68563 1.09781,1.44483 1.61133,2.2793 0.55434,0.90081 1.03477,1.72259 1.4375,2.46094 l 2.9668,5.43945 2.22265,-5.7832 c 0.35576,-0.92498 0.74834,-1.95699 1.17188,-3.08594 l 1.4414,-3.29297 c 0.52983,-1.05763 1.05542,-2.04434 1.57813,-2.96289 0.55197,-0.8525 1.07989,-1.51738 1.53125,-1.96875 l 2.52539,-2.52539 -3.01367,-1.91797 c -0.32721,-0.20822 -0.70437,-0.57638 -1.10156,-1.27148 -0.51851,-0.90738 -1.00463,-1.85076 -1.46289,-2.82618 -0.40359,-1.08008 -0.77739,-2.12901 -1.11329,-3.13671 l 0.0156,0.0527 c -0.38017,-1.21653 -0.76656,-2.30341 -1.16992,-3.27148 l -1.95703,-4.69532 -3.00196,4.10743 c -1.24455,1.70306 -2.51795,3.06016 -3.80078,4.09961 -1.05419,0.84174 -1.84872,1.0957 -2.63086,1.0957 h -2.35156 c -0.0521,-0.004 -0.10414,-0.0136 -0.15625,-0.0176 0.13663,-3.47991 0.28221,-6.92564 0.50781,-10.08398 0.21825,-3.05544 0.58806,-5.38692 0.96485,-7.66211 0.59065,-0.0177 0.99247,-0.0156 1.69531,-0.0449 1.68447,-0.0702 3.44462,-0.10546 5.27929,-0.10546 2.21377,0 4.0066,0.1078 5.31641,0.29492 0.83307,0.11901 1.30907,0.40919 1.80469,0.69336 0.60479,2.17661 1.36297,4.19479 2.40625,5.93359 l 0.0215,0.0352 0.0215,0.0352 c 1.47601,2.30626 3.69557,4.20132 6.49804,5.80274 l 1.23829,0.70703 3.57812,-1.5332 0.20508,-1.63086 c 0.14189,-1.13514 0.35497,-2.85342 0.63672,-5.10743 l 0.002,-0.0137 c 0.35575,-2.3472 0.74667,-4.7318 1.17383,-7.15234 l 0.002,-0.008 0.002,-0.006 c 0.42357,-2.47088 0.84531,-4.72074 1.26562,-6.75586 0.47547,-1.95666 0.97708,-3.3128 1.125,-3.58399 l 1.86328,-3.41992 -3.81836,-0.76367 c -0.50589,-0.10118 -1.01786,-0.13199 -1.53515,-0.14258 -0.55699,-0.0778 -1.11982,-0.12891 -1.72461,-0.1289 -2.97859,0 -6.86251,0.26166 -11.74219,0.77148 -4.6628,0.48715 -10.92082,0.74023 -18.70508,0.74023 -3.617,0 -7.49242,-0.0693 -11.61719,-0.21093 -0.005,-2.6e-4 -0.0107,-0.002 -0.0156,-0.002 -4.03786,-0.21283 -8.33504,-0.5664 -12.88867,-1.06445 z m 256.65235,41.26171 v 2.98243 h 8.96093 v 18.40234 h -10.83203 c -0.0425,-1.44034 -0.0645,-3.09616 -0.0645,-4.96484 0,-5.18118 0.14818,-9.09063 0.41406,-11.63672 0.28195,-2.11832 0.84535,-3.64096 1.52149,-4.78321 z m -72.13868,5.91797 c -0.0649,0.96629 -0.13042,1.83684 -0.19531,2.875 l -0.004,0.043 v 0.0449 c -0.0729,2.3331 -0.10938,4.66685 -0.10938,7 v 7.8125 0.0391 c 0.0522,1.93079 0.14639,3.2809 0.23828,4.68554 -0.85755,0.46786 -1.67177,0.85003 -2.62109,1.48243 -0.96838,0.63004 -1.66313,1.22585 -2.42774,1.82812 -1.09083,-0.35496 -2.15306,-0.71795 -3.39843,-1.0293 -0.81619,-0.20404 -1.42528,-0.23713 -2.14844,-0.37109 v -21.19336 c 0.43822,-0.21128 0.72012,-0.39767 1.30469,-0.625 l 0.0625,-0.0234 0.0625,-0.0273 c 1.16063,-0.51584 2.43797,-0.97614 3.83398,-1.375 1.41911,-0.40546 2.87584,-0.74412 4.36914,-1.01563 l 0.0469,-0.01 0.0488,-0.01 c 0.34252,-0.0745 0.60827,-0.0704 0.9375,-0.13086 z M 368.93945,440 v 7.9043 c -1.12226,-0.16951 -2.40841,-0.47104 -3.38476,-0.51172 l 0.004,0.002 c -0.70413,-0.0306 -1.37277,-0.0947 -2.0625,-0.13867 l 0.11719,-5.86914 c 0.94437,-0.18021 1.7816,-0.2757 2.86524,-0.55664 l 0.0469,-0.0117 0.0469,-0.0156 c 0.76467,-0.22656 1.58412,-0.54498 2.36718,-0.80273 z m -224.3789,17.57422 -0.0274,0.0625 c 0.003,-0.011 0.005,-0.0237 0.01,-0.0332 0.005,-0.0109 0.0115,-0.0197 0.0176,-0.0293 z"
         inkscape:label="test" /><path
         id="path4"
         style="font-size:107.967px;font-family:'New Rocker';-inkscape-font-specification:'New Rocker';letter-spacing:0px;baseline-shift:baseline;white-space:pre;display:inline;overflow:visible;opacity:1;vector-effect:none;fill:none;fill-opacity:1;stroke:#f30000;stroke-opacity:1;enable-background:accumulate;stop-color:#000000;stop-opacity:1"
         d="m 133.88281,376.37891 1.84961,4.4707 c 1.01056,2.44219 2.52122,4.6921 4.4668,6.71875 l 0.0215,0.0215 0.0195,0.0215 c 1.44348,1.44347 2.9345,2.48641 4.47266,3.31445 0.0311,0.41554 0.0601,0.65837 0.0918,1.19727 0.0675,1.148 0.10351,2.53642 0.10351,4.15039 0,1.94716 -0.0702,4.04746 -0.21093,6.29883 -0.13626,2.18005 -0.40709,4.3212 -0.81446,6.42773 -0.39812,1.98748 -0.95842,3.85941 -1.67773,5.625 l -0.0117,0.0273 -0.01,0.0254 c -0.60666,1.57733 -1.34425,2.72316 -2.1582,3.53711 l -1.82422,1.82422 1.62305,2.00586 c 0.8054,0.9949 1.64562,2.82374 2.23437,5.50586 l 0.008,0.0312 0.008,0.0332 c 0.66259,2.71664 0.99805,5.57873 0.99805,8.60547 0,1.95273 -0.13517,4.14798 -0.41211,6.57422 -0.27097,2.30318 -0.71027,4.53037 -1.31641,6.68555 l -0.0117,0.041 -0.01,0.0391 c -0.53665,2.14658 -1.19806,4.01597 -1.96289,5.60937 l -0.0195,0.043 -0.0195,0.043 c -0.64944,1.47599 -1.31729,2.16459 -1.6582,2.36914 l -1.9707,1.18164 1.77148,5.31445 2.77734,-1.02929 c 1.59766,-0.59173 3.36825,-0.90039 5.37305,-0.90039 4.57474,0 9.7667,0.41863 15.55664,1.26562 h 0.002 0.002 0.002 0.002 c 5.76043,0.9148 11.60078,2.25156 17.52149,4.01367 l 1.48437,0.44141 1.1836,-1 c 1.80026,-1.5233 3.40281,-2.74737 4.78711,-3.67188 1.46577,-0.93101 2.80095,-1.64255 3.97461,-2.13671 1.22052,-0.51391 2.29519,-0.8449 3.19531,-1.01368 l 0.0644,-0.0117 0.0625,-0.0137 c 1.11998,-0.26352 2.23607,-0.46079 3.34961,-0.59179 l 3.49805,-0.41211 -1.11328,-3.33985 c -0.38735,-1.16202 -0.82195,-3.3115 -1.16993,-6.23437 -0.21679,-1.82115 -0.36603,-3.79773 -0.44726,-5.92578 h 8.55664 v 7.99218 c 0,1.74248 -0.28373,2.91513 -0.56055,3.46875 l -0.0176,0.0352 -0.0156,0.0332 c -0.29009,0.62162 -0.45133,0.68187 -0.55859,0.72657 l -1.76172,0.73437 v 6.39649 h 25.5957 v -6.48047 l -1.86914,-0.69141 c -0.0528,-0.0195 -0.19436,-0.008 -0.49414,-0.81836 -0.29978,-0.81051 -0.55078,-2.31432 -0.55078,-4.37695 V 428.4942 l 7.65625,-3.31055 v 26.36914 c 0,1.74248 -0.28373,2.91513 -0.56055,3.46875 l -0.0176,0.0352 -0.0176,0.0332 c -0.29008,0.62162 -0.44938,0.68187 -0.55664,0.72657 l -1.76367,0.73437 v 6.39649 h 24.94922 v -6.48047 l -1.86914,-0.69141 c -0.0528,-0.0195 -0.19436,-0.008 -0.49414,-0.81836 -0.29978,-0.81051 -0.55078,-2.31432 -0.55078,-4.37695 v -9.82422 -7.88281 c 0,-1.82281 0.0389,-3.06136 0.0742,-4.35743 l 7.79883,-3.34374 v 10.10156 0.0254 c 0.0717,4.086 0.10742,8.17182 0.10742,12.25781 0,0.6181 -0.0657,1.89206 -0.20703,3.6582 -0.14215,1.77675 -0.32079,3.73916 -0.53516,5.88282 -0.20911,2.01925 -0.48749,4.03951 -0.83594,6.06054 l -0.002,0.008 v 0.008 c -0.34631,2.07785 -0.72396,3.77323 -1.10547,5.04492 l -0.49219,1.64063 3.95508,3.95507 2.02344,-2.16797 c 0.93648,-1.00337 2.02468,-2.06079 3.26367,-3.1621 1.22527,-1.08914 2.52304,-2.14498 3.89063,-3.17188 1.43434,-1.02361 2.82522,-1.93949 4.17382,-2.75 1.37308,-0.78333 2.68825,-1.39156 3.93555,-1.82812 l 2.35156,-0.82227 -0.48828,-2.44336 c -0.13776,-0.68879 -0.27742,-1.41673 -0.41601,-2.17773 -0.11849,-0.71096 -0.221,-1.7006 -0.28907,-2.92579 -0.0697,-1.25467 -0.14004,-2.88692 -0.21093,-4.86523 v -3.93945 h 8.30468 v 30.23242 c 0,3.5959 -0.27959,6.72613 -0.80859,9.37109 l -0.008,0.0332 -0.006,0.0351 c -0.44074,2.51852 -1.24937,4.31604 -2.29297,5.56836 l 3.43359,4.42188 c 2.91818,-1.38961 5.59797,-2.45055 8.02149,-3.19141 h 0.002 l 0.002,-0.002 h 0.002 c 2.43139,-0.72086 4.66821,-1.0625 6.71875,-1.0625 1.69577,0 3.06883,0.22468 4.1289,0.5957 l 6.89844,2.41406 -3.41992,-6.46094 c -0.59707,-1.12779 -1.08512,-2.20354 -1.46875,-3.22656 l -0.0117,-0.0293 -0.01,-0.0293 c -0.34624,-0.86561 -0.62041,-1.85335 -0.80664,-2.9707 l -0.002,-0.0137 -0.002,-0.0137 c -0.1974,-1.11857 -0.36558,-2.35902 -0.50196,-3.70508 -0.0667,-1.28966 -0.10351,-2.83659 -0.10351,-4.64843 v -7.50196 c 0.85116,0.15622 1.76607,0.24071 2.57031,0.44922 l 0.0117,0.004 0.0117,0.004 c 1.85185,0.46297 3.8403,1.13383 5.95703,2.02149 l 1.45313,0.60937 1.29101,-0.90039 c 3.19612,-2.22338 6.37466,-4.08705 9.5332,-5.59765 l 0.0117,-0.006 0.0117,-0.004 c 3.17646,-1.55445 6.23344,-2.57653 9.17578,-3.09961 l 3.95313,-0.70312 -1.95117,-3.50977 c -0.14818,-0.26672 -0.37603,-0.87062 -0.55274,-1.74219 -0.18666,-0.9986 -0.35976,-2.38467 -0.49805,-4.11328 -0.0767,-0.95882 -0.14458,-2.03639 -0.20117,-3.22851 h 4.83985 c -0.0184,2.40047 -0.0889,4.80052 -0.20899,7.20117 -0.13336,2.59345 -0.53734,4.64866 -1.10742,6.13086 l -1.4707,3.82422 4.0957,0.0703 c 3.98996,0.0688 7.46963,0.51677 10.43164,1.30664 l 0.008,0.002 0.008,0.002 c 3.06479,0.79951 5.82275,1.95439 8.30859,3.45898 l 2.10937,1.27734 6.42969,-7.73437 c 0.36538,0.56663 0.59004,1.15296 1.00391,1.71289 1.39367,1.88555 3.00115,3.46431 4.81836,4.67578 l 2.70117,1.80078 1.45117,-2.90234 c 0.31797,-0.63593 0.87691,-1.52599 1.67188,-2.58594 0.77776,-1.03702 1.66077,-2.0514 2.65039,-3.04101 1.01212,-1.01213 2.01323,-1.91216 3.00195,-2.70313 l 0.008,-0.006 0.0117,-0.008 c 0.97373,-0.79116 1.802,-1.25714 2.39453,-1.46875 l 1.90235,-0.67969 v -5.48633 l -2.22071,-0.51172 c -0.60606,-0.13986 -0.9945,-0.32891 -1.29492,-0.51171 -0.0439,-0.0427 -0.2627,-0.27201 -0.49219,-0.98829 -0.2023,-0.69269 -0.39992,-1.649 -0.57031,-2.83593 h 10.50781 v 16.13281 l 1.58399,0.79102 c 1.10894,0.55446 2.5269,1.29866 4.23633,2.2246 1.68576,0.91312 3.33536,1.86141 4.94921,2.84375 l 1.8086,1.10157 1.58398,-1.40821 c 0.46072,-0.40952 1.24927,-0.98855 2.31446,-1.65429 1.06974,-0.66859 2.21392,-1.31009 3.43359,-1.91992 l 0.0566,-0.0274 0.0527,-0.0293 c 1.24046,-0.68914 2.51718,-1.34489 3.83008,-1.96679 1.29141,-0.61172 2.4997,-1.11409 3.61524,-1.50782 l 1.91015,-0.67382 v -6.25782 l -2.71484,-0.14257 c -2.10564,-0.11082 -3.60928,-0.78161 -5.00586,-2.16797 -1.13022,-1.18501 -1.88672,-3.14577 -1.88672,-6.41602 v -20.60937 l 9.55469,1.20703 0.61523,-2.4668 c 0.28312,-1.13247 0.7869,-2.35655 1.52735,-3.66016 0.83236,-1.33737 1.74552,-2.53845 2.74609,-3.60156 l 0.7793,-0.82617 v -4.43359 h -15.22266 v -2.85742 c 0,-0.54168 0.0325,-1.61141 0.10352,-3.10352 v -0.002 -0.004 c 0.0695,-1.52951 0.17549,-3.0971 0.31445,-4.70117 0.21105,-1.68543 0.42261,-3.26886 0.63281,-4.74024 0.19972,-1.39806 0.45536,-2.38055 0.57813,-2.6875 l 2.91797,-7.29882 -6.93164,3.70703 c -3.01395,1.61211 -5.83206,2.93329 -8.44532,3.96484 -2.43653,0.96179 -5.12346,1.54964 -8.09961,1.74805 l -5.4746,0.36523 3.30664,4.13477 c -0.0253,-0.0295 -0.0449,-0.0465 -0.0547,-0.0527 l -0.002,-0.002 h -0.002 -0.002 -0.002 v 0.002 0.002 l -0.002,0.002 c -0.003,0.0582 0.23498,0.53266 0.36133,1.20508 l 0.004,0.0156 0.004,0.0176 c 0.19433,0.9716 0.36345,2.1109 0.5,3.4082 v 0.01 l 0.002,0.008 c 0.13816,1.24352 0.2415,2.48573 0.31054,3.72852 l 0.004,0.0879 0.0117,0.0879 c 0.13786,1.17182 0.19531,2.02819 0.19531,2.36523 v 2.04297 c -1.96903,1.63322 -4.00187,2.90585 -6.10547,3.83789 l 0.52735,-0.75781 h -5.48438 c -3.33262,0 -6.01392,-0.55747 -8.12695,-1.54688 -2.13967,-1.10847 -4.31619,-2.81137 -6.4961,-5.18945 l -1.56445,-1.70703 -1.99609,1.17188 c -1.71766,1.00689 -4.41286,2.0368 -7.99219,2.93164 -3.44097,0.86024 -7.68145,1.3164 -12.69141,1.3164 h -1.25976 c -0.47283,-0.10397 -0.84459,-0.10742 -1.22461,-0.10742 h -3.61133 l 0.82031,3.51758 c 0.53518,2.29362 1.15515,4.23009 1.92969,5.86523 l 0.0254,0.0547 0.0273,0.0527 c 0.83366,1.58393 1.79735,2.93842 2.97461,4.01757 l 0.0508,0.0449 0.0527,0.043 c 1.1404,0.95034 2.44726,1.66462 3.85351,2.06641 l 0.11133,0.0312 0.11328,0.0234 c 1.28381,0.25676 2.6254,0.3789 4.01758,0.3789 2.12546,0 4.52015,-0.41724 7.33399,-1.17773 1.40452,-0.3796 2.70171,-0.95156 4.05273,-1.42773 v 4.71679 c -0.65131,0.26831 -1.17282,0.53392 -2.03906,0.79883 -1.48119,0.40249 -3.15043,0.78031 -5.01172,1.125 -1.84338,0.34136 -3.80145,0.61605 -5.87109,0.82422 -2.00906,0.13759 -3.98096,0.20703 -5.91407,0.20703 -1.76121,0 -3.36113,-0.10331 -4.79492,-0.29883 l -4.93359,-0.67187 1.89648,4.60351 c 0.39302,0.95448 0.6997,2.12008 0.88867,3.50586 l 0.002,0.01 0.002,0.01 c 0.0562,0.39304 0.1042,0.79713 0.14453,1.21094 h -4.8457 c -0.0472,-2.15497 -0.0703,-4.60266 -0.0703,-7.33984 0,-2.6849 0.0718,-5.33102 0.21289,-7.94141 v -0.004 -0.002 c 0.13238,-2.51514 0.56557,-5.20119 1.31445,-8.06055 l 0.71484,-2.73632 -2.72656,-0.75196 c -1.81367,-0.50032 -3.61704,-1.28737 -5.42773,-2.38672 -1.7719,-1.07579 -3.43421,-2.44468 -4.9961,-4.13671 l -1.1289,-1.22266 -1.6211,0.37305 c -1.94951,0.44988 -3.92857,1.01231 -5.93554,1.67968 -1.95271,0.60144 -3.90103,1.31395 -5.84375,2.13477 -1.87623,0.75141 -3.68398,1.57866 -5.41993,2.48437 -0.77255,0.40307 -1.38808,0.81885 -2.09375,1.22657 -0.54078,-0.92149 -0.9511,-1.86181 -1.61914,-2.76563 -1.39366,-1.88556 -3.00114,-3.46431 -4.81836,-4.67578 l -2.69921,-1.79883 -1.45313,2.90235 c -0.31795,0.6359 -0.87691,1.52598 -1.67187,2.58593 -0.77777,1.03703 -1.65882,2.04945 -2.64844,3.03907 -0.99519,0.99519 -2.02198,1.91966 -3.07617,2.77929 -0.9873,0.73584 -1.82634,1.20935 -2.4043,1.43164 l -1.83789,0.70704 v 5.27148 l 2.02344,0.62305 c 0.58041,0.17859 0.88807,0.38611 1.08398,0.58203 l 0.125,0.12695 0.10938,0.0898 v 0.002 0.002 c 0.0131,0.0436 0.30413,0.42605 0.53125,1.28906 l 0.0234,0.0898 0.0293,0.0879 c 0.29091,0.87272 0.58683,2.56779 0.72266,4.87695 v 0.002 0.002 c 0.13814,2.27932 0.21093,5.40406 0.21093,9.32812 v 0.10547 h -8.30468 c 0.004,-3.4371 0.0388,-6.3272 0.10546,-8.66016 0.071,-2.48512 0.14239,-4.56951 0.2129,-6.26953 0.13699,-1.63551 0.27426,-2.95523 0.40429,-3.9414 0.19773,-1.0423 0.42371,-2.01522 0.67774,-2.9043 l 0.66601,-2.33203 -2.18945,-1.04297 c -1.44207,-0.6867 -2.6927,-1.33029 -3.76172,-1.92969 -1.09132,-0.68279 -2.14956,-1.36408 -3.17187,-2.04492 -0.91693,-0.65611 -1.84127,-1.38169 -2.77149,-2.17773 -0.98812,-0.9178 -2.07701,-1.93657 -3.27539,-3.06446 l -2.14648,-2.01953 -1.95899,2.20313 c -2.24421,2.52474 -4.40355,4.71749 -6.46875,6.57617 -0.94662,0.85196 -2.13939,1.71488 -3.19336,2.57226 l -0.24414,-0.11523 c -1.44594,-0.68854 -2.69867,-1.3348 -3.76953,-1.93555 -1.08833,-0.68102 -2.14439,-1.35998 -3.16406,-2.03906 -0.92057,-0.65872 -1.84729,-1.38577 -2.78125,-2.18555 -0.98595,-0.91583 -2.06863,-1.93189 -3.26367,-3.05664 l -2.17188,-2.04297 -1.95703,2.25196 c -2.30308,2.65203 -4.55304,4.93386 -6.74023,6.84765 -0.82191,0.71576 -1.89629,1.47281 -2.80469,2.20313 v -3.75586 l -3.44531,-5.74023 -2.0586,0.51562 c -2.25674,0.56419 -4.8476,1.16743 -7.75781,1.80664 -2.90185,0.56587 -5.5851,1.02416 -8.04102,1.375 l -2.45898,0.35156 v 5.55664 l 3.99414,1.72657 v 23.27148 h -8.62695 c 0.009,-1.25954 0.0438,-2.54628 0.10351,-3.86133 v -0.004 -0.002 c 0.0684,-1.57267 0.20479,-3.14619 0.41016,-4.7207 l 0.30664,-2.3418 -4.6582,-1.55273 -1.25586,1.37695 c -3.01151,3.30531 -5.83972,6.72314 -8.48633,10.25196 l -0.0117,0.0156 -0.0117,0.0156 c -2.26516,3.10652 -3.82468,6.67468 -4.96289,10.48438 l -13.54883,-1.36133 c -0.19357,-2.46098 -0.38176,-4.96629 -0.49219,-8.04687 -0.0683,-3.89886 -0.10051,-8.02106 -0.10351,-12.31641 0.2311,-0.0204 0.40082,-0.0677 0.64453,-0.082 1.19403,-0.0702 2.09895,-0.10352 2.64063,-0.10352 0.22695,0 0.3008,0.01 0.58398,0.23633 l 0.12109,0.0977 0.13086,0.082 c 0.51683,0.32889 1.00634,0.76035 1.48047,1.33984 0.56097,0.68563 1.09781,1.44483 1.61133,2.2793 0.55434,0.90081 1.03477,1.72259 1.4375,2.46094 l 2.9668,5.43945 2.22265,-5.7832 c 0.35576,-0.92498 0.74834,-1.95699 1.17188,-3.08594 l 1.4414,-3.29297 c 0.52983,-1.05763 1.05542,-2.04434 1.57813,-2.96289 0.55197,-0.8525 1.07989,-1.51738 1.53125,-1.96875 l 2.52539,-2.52539 -3.01367,-1.91797 c -0.32721,-0.20822 -0.70437,-0.57638 -1.10156,-1.27148 -0.51851,-0.90738 -1.00463,-1.85076 -1.46289,-2.82618 -0.40359,-1.08008 -0.77739,-2.12901 -1.11329,-3.13671 l 0.0156,0.0527 c -0.38017,-1.21653 -0.76656,-2.30341 -1.16992,-3.27148 l -1.95703,-4.69532 -3.00196,4.10743 c -1.24455,1.70306 -2.51795,3.06016 -3.80078,4.09961 -1.05419,0.84174 -1.84872,1.0957 -2.63086,1.0957 h -2.35156 c -0.0521,-0.004 -0.10414,-0.0136 -0.15625,-0.0176 0.13663,-3.47991 0.28221,-6.92564 0.50781,-10.08398 0.21825,-3.05544 0.58806,-5.38692 0.96485,-7.66211 0.59065,-0.0177 0.99247,-0.0156 1.69531,-0.0449 1.68447,-0.0702 3.44462,-0.10546 5.27929,-0.10546 2.21377,0 4.0066,0.1078 5.31641,0.29492 0.83307,0.11901 1.30907,0.40919 1.80469,0.69336 0.60479,2.17661 1.36297,4.19479 2.40625,5.93359 l 0.0215,0.0352 0.0215,0.0352 c 1.47601,2.30626 3.69557,4.20132 6.49804,5.80274 l 1.23829,0.70703 3.57812,-1.5332 0.20508,-1.63086 c 0.14189,-1.13514 0.35497,-2.85342 0.63672,-5.10743 l 0.002,-0.0137 c 0.35575,-2.3472 0.74667,-4.7318 1.17383,-7.15234 l 0.002,-0.008 0.002,-0.006 c 0.42357,-2.47088 0.84531,-4.72074 1.26562,-6.75586 0.47547,-1.95666 0.97708,-3.3128 1.125,-3.58399 l 1.86328,-3.41992 -3.81836,-0.76367 c -0.50589,-0.10118 -1.01786,-0.13199 -1.53515,-0.14258 -0.55699,-0.0778 -1.11982,-0.12891 -1.72461,-0.1289 -2.97859,0 -6.86251,0.26166 -11.74219,0.77148 -4.6628,0.48715 -10.92082,0.74023 -18.70508,0.74023 -3.617,0 -7.49242,-0.0693 -11.61719,-0.21093 -0.005,-2.6e-4 -0.0107,-0.002 -0.0156,-0.002 -4.03786,-0.21283 -8.33504,-0.5664 -12.88867,-1.06445 z m 256.65235,41.26171 v 2.98243 h 8.96093 v 18.40234 h -10.83203 c -0.0425,-1.44034 -0.0645,-3.09616 -0.0645,-4.96484 0,-5.18118 0.14818,-9.09063 0.41406,-11.63672 0.28195,-2.11832 0.84535,-3.64096 1.52149,-4.78321 z m -72.13868,5.91797 c -0.0649,0.96629 -0.13042,1.83684 -0.19531,2.875 l -0.004,0.043 v 0.0449 c -0.0729,2.3331 -0.10938,4.66685 -0.10938,7 v 7.8125 0.0391 c 0.0522,1.93079 0.14639,3.2809 0.23828,4.68554 -0.85755,0.46786 -1.67177,0.85003 -2.62109,1.48243 -0.96838,0.63004 -1.66313,1.22585 -2.42774,1.82812 -1.09083,-0.35496 -2.15306,-0.71795 -3.39843,-1.0293 -0.81619,-0.20404 -1.42528,-0.23713 -2.14844,-0.37109 v -21.19336 c 0.43822,-0.21128 0.72012,-0.39767 1.30469,-0.625 l 0.0625,-0.0234 0.0625,-0.0273 c 1.16063,-0.51584 2.43797,-0.97614 3.83398,-1.375 1.41911,-0.40546 2.87584,-0.74412 4.36914,-1.01563 l 0.0469,-0.01 0.0488,-0.01 c 0.34252,-0.0745 0.60827,-0.0704 0.9375,-0.13086 z M 368.93945,440 v 7.9043 c -1.12226,-0.16951 -2.40841,-0.47104 -3.38476,-0.51172 l 0.004,0.002 c -0.70413,-0.0306 -1.37277,-0.0947 -2.0625,-0.13867 l 0.11719,-5.86914 c 0.94437,-0.18021 1.7816,-0.2757 2.86524,-0.55664 l 0.0469,-0.0117 0.0469,-0.0156 c 0.76467,-0.22656 1.58412,-0.54498 2.36718,-0.80273 z m -224.3789,17.57422 -0.0274,0.0625 c 0.003,-0.011 0.005,-0.0237 0.01,-0.0332 0.005,-0.0109 0.0115,-0.0197 0.0176,-0.0293 z" /></g></g></svg>
