<?xml version="1.0" encoding="UTF-8" standalone="no"?>
<svg
   version="1.2"
   viewBox="0 0 570 570"
   width="570"
   height="570"
   id="svg1"
   sodipodi:docname="RoleTokenLaserTemplate.svg"
   inkscape:version="1.4.2 (2aeb623e1d, 2025-05-12)"
   xml:space="preserve"
   xmlns:inkscape="http://www.inkscape.org/namespaces/inkscape"
   xmlns:sodipodi="http://sodipodi.sourceforge.net/DTD/sodipodi-0.dtd"
   xmlns="http://www.w3.org/2000/svg"
   xmlns:svg="http://www.w3.org/2000/svg"><sodipodi:namedview
     id="namedview1"
     pagecolor="#ffffff"
     bordercolor="#666666"
     borderopacity="1.0"
     inkscape:showpageshadow="2"
     inkscape:pageopacity="0.0"
     inkscape:pagecheckerboard="0"
     inkscape:deskcolor="#d1d1d1"
     inkscape:zoom="0.76563627"
     inkscape:cx="156.73239"
     inkscape:cy="310.19952"
     inkscape:window-width="1920"
     inkscape:window-height="940"
     inkscape:window-x="0"
     inkscape:window-y="0"
     inkscape:window-maximized="1"
     inkscape:current-layer="layer2" /><defs
     id="defs1"><clipPath
       clipPathUnits="userSpaceOnUse"
       id="cp1"><path
         d="m 275.5,535.5 c -143.78,0 -260,-116.22 -260,-260 0,-143.78 116.22,-260 260,-260 143.78,0 260,116.22 260,260 0,143.78 -116.22,260 -260,260 z"
         id="path1" /></clipPath></defs><style
     id="style1">
		tspan { white-space:pre } 
		.s0 { fill: none;stroke: #ff0000;stroke-miterlimit:100 } 
	</style><g
     id="Background" /><g
     inkscape:groupmode="layer"
     id="layer1"
     inkscape:label="Template"><path
       id="Path 0 copy"
       class="s0"
       d="M 97.671813,0.76195271 C 95.811163,1.0410157 92.860485,1.4795431 91.107639,1.7386731 89.358799,1.997803 85.509735,2.8270187 82.555056,3.5884617 79.600383,4.3459186 74.856933,5.7970459 72.014055,6.809646 c -2.846868,1.0126004 -8.037513,3.288956 -11.539203,5.063 -3.501687,1.770056 -8.604495,4.716164 -11.339562,6.546019 -2.73507,1.82587 -6.759813,4.799884 -8.947873,6.605819 -2.188063,1.805937 -5.989209,5.318144 -8.448776,7.805791 -2.455574,2.487646 -5.8255,6.22709 -7.482513,8.304114 -1.661007,2.081012 -4.451977,5.932082 -6.204818,8.555275 -1.748848,2.62718 -4.683558,7.821736 -6.520248,11.541248 C 9.4028974,65.552401 7.4104888,70.36823 6.0249858,74.562145 4.8271447,78.17402 3.3937281,83.189181 2.8347356,85.704736 2.2757431,88.220284 1.4532257,93.099903 1.0100244,96.548322 0.47498868,100.70238 0.20347823,105.1315 0.19948543,109.68023 c 0,4.66434 0.25953206,8.84231 0.81053897,13.03224 0.4471941,3.39261 1.277697,8.22837 1.8406824,10.74393 0.5629853,2.51953 1.7089199,6.72541 2.5474089,9.35259 0.8384885,2.62718 2.3477688,6.74535 3.353955,9.15326 1.0061862,2.40792 2.9147473,6.4344 4.2363653,8.95394 1.32561,2.51555 3.721292,6.54602 5.330393,8.95393 1.605106,2.40792 4.276292,6.0756 5.933306,8.15662 1.657013,2.07703 5.026939,5.81646 7.486506,8.3081 2.455575,2.49164 6.260713,5.99188 8.448776,7.78188 2.18806,1.786 5.138737,4.06235 6.56417,5.05901 1.421439,0.99665 4.463951,2.9461 6.759818,4.32946 2.299857,1.38734 6.508271,3.62782 9.351144,4.98725 2.842878,1.35545 7.23097,3.19727 9.746438,4.09026 2.515465,0.89301 6.991396,2.24049 9.946069,2.99395 2.954679,0.74949 8.592514,1.83385 12.533412,2.39994 5.669782,0.82124 8.692332,1.03652 14.517832,1.03652 5.8295,0 8.85205,-0.21528 14.52183,-1.03652 3.9409,-0.56609 9.57873,-1.65045 12.53341,-2.39994 2.95467,-0.75346 7.42661,-2.10094 9.94607,-2.99395 2.51547,-0.89299 6.89957,-2.73481 9.74644,-4.09026 2.84287,-1.35943 7.05129,-3.59991 9.34715,-4.98725 2.29986,-1.38336 5.34237,-3.33281 6.76381,-4.32946 1.42144,-0.99666 4.37611,-3.27301 6.56417,-5.06301 2.18806,-1.78998 5.9892,-5.29422 8.44478,-7.78187 2.45957,-2.48765 5.8255,-6.22708 7.48651,-8.30411 1.65701,-2.08102 4.39207,-5.84039 6.07305,-8.35594 1.68097,-2.51955 4.32421,-7.08422 5.87341,-10.14993 1.54921,-3.06172 3.5496,-7.45098 4.44798,-9.74727 0.89839,-2.30027 2.2799,-6.32675 3.07446,-8.95393 0.79457,-2.62718 1.88061,-7.01245 2.41166,-9.75126 0.53504,-2.73481 1.24176,-7.21178 1.56917,-9.94659 0.33139,-2.73483 0.60291,-8.01709 0.60291,-11.74059 0,-3.77532 -0.27152,-8.8742 -0.61489,-11.541244 -0.33539,-2.623196 -0.8864,-6.294863 -1.2178,-8.156609 -0.33139,-1.857763 -1.11799,-5.350035 -1.74886,-7.757953 -0.63086,-2.407914 -1.88859,-6.526084 -2.79895,-9.15326 -0.90637,-2.627187 -3.14234,-7.821743 -4.96705,-11.541252 -1.8247,-3.719512 -4.75144,-8.914068 -6.50028,-11.541248 -1.75283,-2.623193 -4.54381,-6.474263 -6.20481,-8.555275 -1.66101,-2.077024 -5.03093,-5.812481 -7.48651,-8.296142 -2.45558,-2.487647 -6.25672,-5.987893 -8.44478,-7.781869 -2.18806,-1.793977 -5.14273,-4.07432 -6.56417,-5.070973 -1.42144,-0.996654 -4.46395,-2.942122 -6.76381,-4.329463 -2.29586,-1.387341 -6.50428,-3.627819 -9.34715,-4.983267 -2.84687,-1.3554489 -7.23097,-3.1932778 -9.74644,-4.0822923 -2.51946,-0.8930021 -6.63604,-2.1567586 -9.1515,-2.8145498 -2.51547,-0.6577916 -6.18486,-1.4710607 -8.1573,-1.8019496 -1.96845,-0.3348755 -5.55,-0.8810417 -7.95367,-1.21591728 -2.88679,-0.40264796 -7.08723,-0.59001879 -12.33377,-0.55413932 -4.37611,0.0279062 -9.478911,0.27906304 -11.339557,0.55812601 z"
       style="stroke-width:0.398971"
       inkscape:label="vnejsi kruh" /><path
       id="Path 0"
       class="s0"
       d="m 102.24158,10.569589 c -0.83951,0.0802 -2.9955,0.33609 -4.785163,0.561421 -1.793476,0.229153 -4.20514,0.591975 -5.365175,0.80967 -1.156218,0.213876 -4.434096,0.966256 -7.276947,1.676627 -2.842855,0.70655 -7.326562,2.096738 -9.959543,3.085909 -2.632978,0.989172 -6.685482,2.749821 -9.001742,3.907037 -2.320075,1.161036 -5.937566,3.150837 -8.043946,4.422629 -2.106395,1.271792 -5.212547,3.349434 -6.89537,4.621227 -1.686629,1.271791 -4.529488,3.55567 -6.322964,5.071892 -1.789667,1.516219 -4.472255,4.029248 -5.960459,5.579837 -1.488213,1.55441 -3.991454,4.376798 -5.563612,6.274938 -1.572156,1.898139 -4.23948,5.522562 -5.929932,8.050866 -1.690451,2.532128 -4.12882,6.672136 -5.4186,9.20426 -1.28978,2.528311 -3.121419,6.496449 -4.075399,8.818526 -0.953976,2.318245 -2.354417,6.374238 -3.113784,9.009479 -0.759368,2.635246 -1.793483,7.03496 -2.300999,9.777135 -0.5037,2.738366 -1.095167,7.054058 -1.316489,9.582368 -0.221325,2.53213 -0.404489,6.41243 -0.404489,8.62756 0,2.21513 0.183164,6.09544 0.404489,8.62757 0.221322,2.5283 0.812789,6.84018 1.316489,9.58236 0.507516,2.74218 1.514918,7.05405 2.239943,9.58617 0.728838,2.52831 2.041514,6.41244 2.919176,8.62757 0.877658,2.21132 2.755089,6.2673 4.170797,9.00948 1.411886,2.73836 3.938024,7.05405 5.605579,9.58236 1.667555,2.53213 4.697392,6.58429 6.735089,9.00948 2.033885,2.4252 5.143854,5.78991 6.910625,7.47799 1.762956,1.68808 4.6745,4.24694 6.464156,5.68678 1.78967,1.43602 5.151488,3.88413 7.471562,5.43854 2.316265,1.55059 6.540488,4.03307 9.383339,5.51491 2.842862,1.47803 7.49828,3.57095 10.341135,4.64797 2.846668,1.07701 7.502094,2.5474 10.344949,3.2654 2.842851,0.71801 7.498272,1.68809 10.341135,2.15404 4.334872,0.70655 6.69311,0.84404 14.55771,0.84404 7.86461,0 10.22284,-0.1375 14.55772,-0.84404 2.84286,-0.46595 7.49827,-1.43603 10.34113,-2.15404 2.84285,-0.718 7.49828,-2.18839 10.34495,-3.2654 2.84286,-1.07702 7.41051,-3.12411 10.15033,-4.54484 2.73983,-1.42457 6.96024,-3.90704 9.38334,-5.51493 2.42311,-1.60788 5.8727,-4.09035 7.66236,-5.51491 1.78967,-1.42456 5.24307,-4.58686 7.67381,-7.02732 2.43073,-2.44047 5.59031,-5.90448 7.02509,-7.69568 1.43479,-1.79503 3.98001,-5.3316 5.65901,-7.85991 1.679,-2.53212 4.4112,-7.36341 6.07112,-10.73576 1.65611,-3.37234 3.64802,-7.8599 4.41883,-9.9681 0.77463,-2.10819 1.98046,-6.07634 2.67878,-8.81852 0.69831,-2.74218 1.66755,-7.48563 2.14835,-10.54098 0.73266,-4.6365 0.87767,-7.05787 0.87767,-14.57023 0,-7.42451 -0.14884,-9.956641 -0.84713,-14.379267 -0.46554,-2.952238 -1.43097,-7.695685 -2.14837,-10.540985 -0.71357,-2.849121 -1.92704,-6.901281 -2.69785,-9.009479 -0.77081,-2.108198 -2.8047,-6.683592 -4.51804,-10.162877 -1.71335,-3.479294 -4.45318,-8.306752 -6.08257,-10.731946 -1.62939,-2.425183 -4.14027,-5.870105 -5.57887,-7.653668 -1.43861,-1.783555 -3.99145,-4.697609 -5.67808,-6.477347 -1.68664,-1.779742 -4.5295,-4.472276 -6.31916,-5.980858 -1.79348,-1.512402 -4.63634,-3.788643 -6.32297,-5.060434 -1.68282,-1.271793 -4.78898,-3.349435 -6.89536,-4.621227 -2.10639,-1.271792 -5.72388,-3.261593 -8.04395,-4.422629 -2.31626,-1.157216 -6.36877,-2.917865 -9.00175,-3.907037 -2.63298,-0.989171 -7.11669,-2.383178 -9.95954,-3.093548 -2.84286,-0.710371 -6.20468,-1.466571 -7.46774,-1.684265 -1.26689,-0.217694 -3.41906,-0.584337 -4.78898,-0.80967 -1.36991,-0.229151 -6.10928,-0.477399 -10.53574,-0.553783 -4.42265,-0.07638 -8.73464,-0.07256 -9.57795,0.0076 z"
       style="stroke-width:0.381755"
       inkscape:label="vnitrni kruh" /><g
       inkscape:groupmode="layer"
       id="layer3"
       inkscape:label="Positions"
       style="display:none"><rect
         style="display:inline;fill:#ff2121;fill-opacity:0.107692;stroke:#000000;stroke-width:1.05245;stroke-opacity:1"
         id="rect1"
         width="300"
         height="300"
         x="135"
         y="80.172386" /><rect
         style="display:inline;fill:#de0000;fill-opacity:0.0923077;stroke:#000000;stroke-width:1.00157;stroke-opacity:1"
         id="rect2"
         width="300"
         height="83.006134"
         x="135"
         y="401.53375" /></g><text
       xml:space="preserve"
       style="font-size:107.967px;font-family:'Didact Gothic';-inkscape-font-specification:'Didact Gothic';text-align:start;letter-spacing:0px;writing-mode:lr-tb;direction:ltr;text-anchor:start;display:none;fill:#de0000;fill-opacity:0.0923077;stroke:#000000;stroke-width:5.731;stroke-dasharray:none;stroke-opacity:1"
       x="134.16965"
       y="460.08139"
       id="text2"
       inkscape:label="Text"><tspan
         sodipodi:role="line"
         id="tspan2"
         x="134.16965"
         y="460.08139"
         style="font-style:normal;font-variant:normal;font-weight:normal;font-stretch:normal;font-family:'New Rocker';-inkscape-font-specification:'New Rocker';letter-spacing:0px;fill:#000000;fill-opacity:1;stroke:#000000;stroke-width:5.731;stroke-dasharray:none;stroke-opacity:1">Empat</tspan></text></g><g
     inkscape:groupmode="layer"
     id="layer2"
     inkscape:label="Content"><path
       style="display:none;fill:none;fill-opacity:1;stroke:#ff1818;stroke-width:0.433852;stroke-opacity:1"
       d="m 108.38421,142.65198 c -2.18669,-8.02703 -6.76019,-13.21683 -13.167779,-14.94222 -2.689281,-0.72415 -4.571202,-2.62709 -7.482939,-7.56653 -2.423467,-4.11115 -9.114289,-12.08122 -9.682877,-11.53419 -0.2496,0.24015 3.240536,7.46457 4.115459,8.51879 0.273222,0.32919 0.40681,0.68851 0.296882,0.79845 -0.109946,0.10994 -1.151546,-1.115 -2.314681,-2.72207 -1.163134,-1.60707 -3.785473,-4.85691 -5.827415,-7.22187 -5.163961,-5.98082 -8.234064,-9.814714 -8.946327,-11.172029 -0.333279,-0.635138 -1.064497,-1.515458 -1.62491,-1.956276 -4.137384,-3.254464 -8.88946,-10.662818 -10.110228,-15.761552 -0.730538,-3.051224 -0.730999,-3.036971 0.09846,-3.036971 0.624923,0 0.615969,-0.128996 -0.08281,-1.193099 -0.668871,-1.018526 -0.769334,-2.018328 -0.686657,-6.833185 0.255609,-14.88717 1.586921,-17.192478 13.115183,-22.710622 2.999664,-1.435831 5.722776,-2.934531 6.051353,-3.330436 1.276365,-1.537936 -3.575974,-0.187881 -9.444495,2.627716 -3.161707,1.516921 -5.74856,2.678328 -5.74856,2.580915 0,-0.350589 5.054325,-3.542109 8.133559,-5.135887 4.883429,-2.527619 7.08263,-3.07254 12.121833,-3.003594 2.43086,0.03326 5.554605,0.357581 6.941654,0.720722 1.387049,0.363137 3.490114,0.785231 4.673476,0.937995 1.911591,0.246766 2.443885,0.57574 4.772383,2.949445 3.790481,3.864053 11.306726,9.829659 12.384716,9.829659 1.61667,0 2.60541,-0.855208 3.66414,-3.169266 0.63085,-1.378854 2.43534,-3.71385 4.64792,-6.014366 3.45876,-3.596239 3.76828,-3.807579 7.08753,-4.839276 3.01062,-0.935777 4.35952,-1.086781 10.17336,-1.138863 3.73054,-0.03326 6.93414,-0.252245 7.22485,-0.493534 0.34126,-0.283212 0.57454,-0.285219 0.67297,-0.0057 0.0829,0.235238 1.32206,0.467626 2.75377,0.516412 5.04109,0.17178 12.33854,3.722597 16.05282,7.811018 0.9546,1.050765 2.50697,3.130442 3.4497,4.6215 1.07013,1.692563 1.8673,2.557761 2.12199,2.30307 0.50896,-0.508955 -0.39589,-5.34672 -1.34253,-7.17781 -0.6189,-1.197177 -0.61719,-1.258541 0.0204,-0.729676 1.04901,0.870142 2.37866,3.937871 2.71144,6.255765 0.16275,1.133442 0.46895,2.060802 0.68047,2.060802 0.54702,0 0.48547,6.835718 -0.0632,7.018606 -0.25345,0.08447 -0.61674,2.783168 -0.83711,6.218558 -0.41211,6.42446 -0.79386,7.852471 -4.00024,14.963301 -2.45185,5.437527 -3.29175,6.802258 -5.9322,9.639046 -1.39541,1.499172 -3.03165,3.506703 -3.63609,4.461181 -0.60444,0.954474 -3.15128,4.175833 -5.65965,7.158571 -2.50838,2.98274 -4.50784,5.47993 -4.44326,5.54931 0.26945,0.2894 8.46199,-4.86493 10.96457,-6.89835 1.49137,-1.21179 2.71158,-1.989688 2.71158,-1.728662 0,0.261012 -0.18962,0.474592 -0.42135,0.474592 -0.23176,0 -1.69968,1.54515 -3.26209,3.43367 -3.47889,4.20501 -10.583,9.70479 -16.05688,12.43076 -2.14758,1.06948 -5.29839,2.96477 -7.00179,4.21176 -1.70341,1.24699 -4.5343,3.1458 -6.29087,4.21959 -4.03154,2.46446 -6.5927,4.78406 -8.57654,7.76758 -3.27988,4.93264 -3.59728,5.71457 -3.89146,9.58655 l -0.28017,3.68776 z m 0.38351,-21.08678 c 0.45022,-2.35415 0.50945,-4.01802 0.22238,-6.24598 -0.21524,-1.67033 -0.39771,-3.26348 -0.40552,-3.54032 -0.008,-0.27685 -0.84393,-1.52217 -1.85807,-2.76738 -1.01413,-1.24521 -2.29065,-2.87342 -2.83672,-3.61825 l -0.99286,-1.35423 0.2694,1.95234 c 0.1482,1.07379 0.44347,2.50381 0.65619,3.17783 0.22734,0.72034 0.2267,1.16743 -0.002,1.08463 -0.21358,-0.0775 -2.03848,-1.64612 -4.055356,-3.48588 -3.766277,-3.43555 -7.600796,-8.705866 -12.244815,-16.829771 -1.159261,-2.027921 -3.535306,-5.84459 -5.280102,-8.481491 -1.744604,-2.6369 -3.172161,-5.114615 -3.172161,-5.506023 0,-0.391415 -0.224958,-0.850688 -0.499885,-1.020608 -0.690795,-0.426932 -0.233537,2.821621 0.645064,4.582809 l 0.668598,1.340232 -1.76259,-0.988777 C 74.0838,77.600518 70.824872,72.427332 70.824872,68.285279 c 0,-1.495007 1.641494,-4.73054 3.343245,-6.589825 1.137332,-1.242611 3.82467,-2.524161 7.54122,-3.596285 3.109969,-0.897139 4.098035,-0.870569 6.395391,0.171969 1.934321,0.877802 2.453533,0.246916 0.574647,-0.698238 -1.466612,-0.737775 -1.697065,-1.137143 -0.499484,-0.865572 0.596058,0.135156 2.722696,0.330444 4.725857,0.433977 2.725301,0.140863 3.931956,0.402512 4.7935,1.039475 0.633256,0.468189 2.801362,1.646888 4.818022,2.619342 3.43418,1.655988 3.57037,1.688186 2.14816,0.507783 C 96.714961,54.709118 94.40025,52.905671 91.130354,50.76232 87.523331,48.397987 87.233207,48.288891 84.55274,48.288891 c -1.586147,0 -3.998733,0.374476 -5.554386,0.862107 -1.512631,0.47416 -3.125926,0.864631 -3.585105,0.867711 -0.768344,0.0053 -0.75106,-0.08553 0.216945,-1.137921 l 1.051793,-1.143511 -0.997666,0.519504 c -0.548724,0.285732 -1.221703,1.011201 -1.495522,1.612161 -0.273827,0.600967 -1.194013,1.44782 -2.044875,1.881898 -4.249746,2.168058 -8.287117,6.817471 -9.843961,11.336247 -0.68256,1.981138 -0.848655,5.578262 -0.360265,7.801943 l 0.314344,1.431129 -1.122441,-0.735447 c -0.61734,-0.4045 -1.212756,-0.73545 -1.323144,-0.73545 -0.30807,0 2.430485,6.094499 3.53568,7.868496 1.378269,2.212309 6.480207,6.942845 11.751084,10.895652 2.465949,1.8493 4.282567,3.362366 4.036932,3.362366 -0.245632,0 -0.567277,-0.19525 -0.714754,-0.433859 -0.147477,-0.238602 -0.482105,-0.433852 -0.743626,-0.433852 -0.261505,0 -0.120907,0.391816 0.312454,0.870697 0.433387,0.478881 1.002534,1.308624 1.264781,1.84388 0.523631,1.068741 8.454716,7.189558 12.599981,9.724028 3.39374,2.07498 6.045868,4.23419 7.000407,5.69934 l 0.761302,1.16853 -1.486741,-1.20991 c -1.199807,-0.9764 -8.234135,-4.64711 -8.905444,-4.64711 -0.616354,0 0.141506,1.15873 2.24109,3.42654 2.481641,2.68046 6.748237,5.25052 8.716487,5.25052 1.70584,0 4.48355,2.93627 6.07652,6.42337 0.79632,1.74321 1.44787,3.48405 1.44787,3.86853 0,1.45009 0.47279,0.1355 1.06504,-2.96129 z m 6.53373,-3.41891 c -1.42654,-1.57631 -0.70337,-5.21206 2.14386,-10.77838 2.12485,-4.15404 2.92863,-5.24956 5.90794,-8.052286 3.24078,-3.048692 5.92327,-4.591283 8.88112,-5.107178 0.4668,-0.08141 1.16284,-0.636113 1.54676,-1.232659 0.38392,-0.596553 4.58145,-5.052423 9.32785,-9.901931 9.87909,-10.093727 10.27538,-11.089232 11.87913,-16.347091 2.57171,-8.431355 0.72182,-14.28813 -5.84558,-18.50713 -5.19393,-3.336669 -11.10617,-4.008903 -17.98639,-2.045106 -3.14681,0.898194 -11.69962,3.692992 -10.87172,3.880222 0.11932,0.02683 0.90025,0.145172 1.73542,0.262602 0.83516,0.117467 1.56771,0.262677 1.62788,0.322733 0.0602,0.06006 -1.59932,0.944119 -3.68776,1.964603 -2.08842,1.020483 -4.53576,2.522203 -5.4385,3.337156 -1.60271,1.446849 -1.61292,1.475021 -0.43385,1.196905 0.66413,-0.156662 1.39297,-0.454848 1.61966,-0.662657 0.62683,-0.574632 1.53904,-0.451782 1.80572,0.243174 0.13107,0.341556 -0.15602,1.171302 -0.63793,1.843873 -0.51801,0.722937 -0.39347,0.497764 -0.55784,2.036674 l -0.14041,1.502007 0.8139,-0.750531 c 4.83737,-4.46075 14.02183,-10.439104 22.70864,-11.008271 1.25275,-0.08209 2.27773,-0.01361 2.27773,0.152088 0,0.165733 -0.87855,0.714308 -1.95234,1.219053 -1.07379,0.504733 -1.95234,1.209555 -1.95234,1.566263 0,0.824946 0.23615,0.814405 1.74686,-0.07801 1.08767,-0.642508 1.52048,-0.661534 3.74152,-0.164485 3.20555,0.717366 4.32454,1.468487 5.43738,3.649852 1.28909,2.526822 0.94143,8.513087 -0.70654,12.165672 -1.98623,4.402318 -9.31168,14.318139 -11.53397,15.61254 l -1.40454,0.818083 0.30161,-2.011181 c 0.16588,-1.106147 0.20266,-2.011178 0.0817,-2.011178 -0.12091,0 -0.96262,1.414897 -1.87046,3.144208 -1.74159,3.31753 -4.2106,5.994097 -12.84478,13.924592 -6.57165,6.036054 -7.784,7.612614 -8.01729,10.425774 -0.36759,4.43254 1.09983,10.25066 2.58535,10.25066 0.27009,0 0.1406,-0.38731 -0.28781,-0.8607 z m -5.23737,-13.29523 c 0.36691,-1.46188 -0.0546,-3.42985 -1.16419,-5.435528 -0.58484,-1.057142 -0.78362,-1.961416 -0.59574,-2.710024 0.3385,-1.348618 4.77127,-5.898988 5.74656,-5.898988 1.39614,0 5.9076,-2.812656 7.67089,-4.782372 0.9992,-1.116182 2.4888,-3.278854 3.31024,-4.805934 1.32604,-2.465167 1.51067,-3.214367 1.64648,-6.681188 0.13617,-3.47667 0.0411,-4.094906 -0.86728,-5.640094 l -1.02024,-1.735416 -3.11987,0.08693 c -2.67198,0.07442 -3.38942,0.272353 -4.99751,1.378768 -2.03431,1.399639 -4.98626,5.061026 -5.90155,7.319845 -0.31423,0.775514 -0.79528,1.410025 -1.06898,1.410025 -0.27371,0 -1.41409,-0.732129 -2.5342,-1.626947 -8.020492,-6.407342 -10.385762,-7.179167 -13.243391,-4.321542 -1.566826,1.566826 -1.600811,1.671519 -1.612482,4.967622 -0.01058,2.946761 0.165052,3.721927 1.405931,6.210009 1.260442,2.527306 1.73147,3.026404 4.242429,4.495253 1.819756,1.064512 3.294253,2.334977 4.144893,3.57134 1.89237,2.750464 6.98484,13.072571 7.05547,14.300961 0.0789,1.37297 0.54549,1.31988 0.90254,-0.10269 z"
       id="path1-4"
       sodipodi:nodetypes="sssssssssssssssssssssssssssssssssssssssssssssssssssssscsssssscsscsscssscsssssssssssssssscssssscssssssssssscsssssssssssssssssssssssssscsssssssssscssssssssssssssscsssssssssssss"
       inkscape:label="Icon" /><path
       id="path5"
       style="display:none;stroke-width:8.05907"
       d="m 276.32799,515.95806 h 15.42748 v 4.53544 h -15.42748 z"
       inkscape:label="spojovnik pismen" /><g
       id="text3"
       inkscape:label="Text"
       style="display:none;opacity:1"
       transform="scale(0.38458352)"><path
         id="path6"
         style="font-size:107.967px;font-family:'New Rocker';-inkscape-font-specification:'New Rocker';letter-spacing:0px;baseline-shift:baseline;white-space:pre;display:none;overflow:visible;fill:#eed3a7;fill-opacity:1;stroke:#35200a;stroke-width:4.53543;stroke-dasharray:none;stroke-opacity:1;enable-background:accumulate;stop-color:#000000;stop-opacity:1"
         d="m 133.88281,376.37891 1.84961,4.4707 c 1.01056,2.44219 2.52122,4.6921 4.4668,6.71875 l 0.0215,0.0215 0.0195,0.0215 c 1.44348,1.44347 2.9345,2.48641 4.47266,3.31445 0.0311,0.41554 0.0601,0.65837 0.0918,1.19727 0.0675,1.148 0.10351,2.53642 0.10351,4.15039 0,1.94716 -0.0702,4.04746 -0.21093,6.29883 -0.13626,2.18005 -0.40709,4.3212 -0.81446,6.42773 -0.39812,1.98748 -0.95842,3.85941 -1.67773,5.625 l -0.0117,0.0273 -0.01,0.0254 c -0.60666,1.57733 -1.34425,2.72316 -2.1582,3.53711 l -1.82422,1.82422 1.62305,2.00586 c 0.8054,0.9949 1.64562,2.82374 2.23437,5.50586 l 0.008,0.0312 0.008,0.0332 c 0.66259,2.71664 0.99805,5.57873 0.99805,8.60547 0,1.95273 -0.13517,4.14798 -0.41211,6.57422 -0.27097,2.30318 -0.71027,4.53037 -1.31641,6.68555 l -0.0117,0.041 -0.01,0.0391 c -0.53665,2.14658 -1.19806,4.01597 -1.96289,5.60937 l -0.0195,0.043 -0.0195,0.043 c -0.64944,1.47599 -1.31729,2.16459 -1.6582,2.36914 l -1.9707,1.18164 1.77148,5.31445 2.77734,-1.02929 c 1.59766,-0.59173 3.36825,-0.90039 5.37305,-0.90039 4.57474,0 9.7667,0.41863 15.55664,1.26562 h 0.002 0.002 0.002 0.002 c 5.76043,0.9148 11.60078,2.25156 17.52149,4.01367 l 1.48437,0.44141 1.1836,-1 c 1.80026,-1.5233 3.40281,-2.74737 4.78711,-3.67188 1.46577,-0.93101 2.80095,-1.64255 3.97461,-2.13671 1.22052,-0.51391 2.29519,-0.8449 3.19531,-1.01368 l 0.0644,-0.0117 0.0625,-0.0137 c 1.11998,-0.26352 2.23607,-0.46079 3.34961,-0.59179 l 3.49805,-0.41211 -1.11328,-3.33985 c -0.38735,-1.16202 -0.82195,-3.3115 -1.16993,-6.23437 -0.21679,-1.82115 -0.36603,-3.79773 -0.44726,-5.92578 h 8.55664 v 7.99218 c 0,1.74248 -0.28373,2.91513 -0.56055,3.46875 l -0.0176,0.0352 -0.0156,0.0332 c -0.29009,0.62162 -0.45133,0.68187 -0.55859,0.72657 l -1.76172,0.73437 v 6.39649 h 25.5957 v -6.48047 l -1.86914,-0.69141 c -0.0528,-0.0195 -0.19436,-0.008 -0.49414,-0.81836 -0.29978,-0.81051 -0.55078,-2.31432 -0.55078,-4.37695 V 428.4942 l 7.65625,-3.31055 v 26.36914 c 0,1.74248 -0.28373,2.91513 -0.56055,3.46875 l -0.0176,0.0352 -0.0176,0.0332 c -0.29008,0.62162 -0.44938,0.68187 -0.55664,0.72657 l -1.76367,0.73437 v 6.39649 h 24.94922 v -6.48047 l -1.86914,-0.69141 c -0.0528,-0.0195 -0.19436,-0.008 -0.49414,-0.81836 -0.29978,-0.81051 -0.55078,-2.31432 -0.55078,-4.37695 v -9.82422 -7.88281 c 0,-1.82281 0.0389,-3.06136 0.0742,-4.35743 l 7.79883,-3.34374 v 10.10156 0.0254 c 0.0717,4.086 0.10742,8.17182 0.10742,12.25781 0,0.6181 -0.0657,1.89206 -0.20703,3.6582 -0.14215,1.77675 -0.32079,3.73916 -0.53516,5.88282 -0.20911,2.01925 -0.48749,4.03951 -0.83594,6.06054 l -0.002,0.008 v 0.008 c -0.34631,2.07785 -0.72396,3.77323 -1.10547,5.04492 l -0.49219,1.64063 3.95508,3.95507 2.02344,-2.16797 c 0.93648,-1.00337 2.02468,-2.06079 3.26367,-3.1621 1.22527,-1.08914 2.52304,-2.14498 3.89063,-3.17188 1.43434,-1.02361 2.82522,-1.93949 4.17382,-2.75 1.37308,-0.78333 2.68825,-1.39156 3.93555,-1.82812 l 2.35156,-0.82227 -0.48828,-2.44336 c -0.13776,-0.68879 -0.27742,-1.41673 -0.41601,-2.17773 -0.11849,-0.71096 -0.221,-1.7006 -0.28907,-2.92579 -0.0697,-1.25467 -0.14004,-2.88692 -0.21093,-4.86523 v -3.93945 h 8.30468 v 30.23242 c 0,3.5959 -0.27959,6.72613 -0.80859,9.37109 l -0.008,0.0332 -0.006,0.0351 c -0.44074,2.51852 -1.24937,4.31604 -2.29297,5.56836 l 3.43359,4.42188 c 2.91818,-1.38961 5.59797,-2.45055 8.02149,-3.19141 h 0.002 l 0.002,-0.002 h 0.002 c 2.43139,-0.72086 4.66821,-1.0625 6.71875,-1.0625 1.69577,0 3.06883,0.22468 4.1289,0.5957 l 6.89844,2.41406 -3.41992,-6.46094 c -0.59707,-1.12779 -1.08512,-2.20354 -1.46875,-3.22656 l -0.0117,-0.0293 -0.01,-0.0293 c -0.34624,-0.86561 -0.62041,-1.85335 -0.80664,-2.9707 l -0.002,-0.0137 -0.002,-0.0137 c -0.1974,-1.11857 -0.36558,-2.35902 -0.50196,-3.70508 -0.0667,-1.28966 -0.10351,-2.83659 -0.10351,-4.64843 v -7.50196 c 0.85116,0.15622 1.76607,0.24071 2.57031,0.44922 l 0.0117,0.004 0.0117,0.004 c 1.85185,0.46297 3.8403,1.13383 5.95703,2.02149 l 1.45313,0.60937 1.29101,-0.90039 c 3.19612,-2.22338 6.37466,-4.08705 9.5332,-5.59765 l 0.0117,-0.006 0.0117,-0.004 c 3.17646,-1.55445 6.23344,-2.57653 9.17578,-3.09961 l 3.95313,-0.70312 -1.95117,-3.50977 c -0.14818,-0.26672 -0.37603,-0.87062 -0.55274,-1.74219 -0.18666,-0.9986 -0.35976,-2.38467 -0.49805,-4.11328 -0.0767,-0.95882 -0.14458,-2.03639 -0.20117,-3.22851 h 4.83985 c -0.0184,2.40047 -0.0889,4.80052 -0.20899,7.20117 -0.13336,2.59345 -0.53734,4.64866 -1.10742,6.13086 l -1.4707,3.82422 4.0957,0.0703 c 3.98996,0.0688 7.46963,0.51677 10.43164,1.30664 l 0.008,0.002 0.008,0.002 c 3.06479,0.79951 5.82275,1.95439 8.30859,3.45898 l 2.10937,1.27734 6.42969,-7.73437 c 0.36538,0.56663 0.59004,1.15296 1.00391,1.71289 1.39367,1.88555 3.00115,3.46431 4.81836,4.67578 l 2.70117,1.80078 1.45117,-2.90234 c 0.31797,-0.63593 0.87691,-1.52599 1.67188,-2.58594 0.77776,-1.03702 1.66077,-2.0514 2.65039,-3.04101 1.01212,-1.01213 2.01323,-1.91216 3.00195,-2.70313 l 0.008,-0.006 0.0117,-0.008 c 0.97373,-0.79116 1.802,-1.25714 2.39453,-1.46875 l 1.90235,-0.67969 v -5.48633 l -2.22071,-0.51172 c -0.60606,-0.13986 -0.9945,-0.32891 -1.29492,-0.51171 -0.0439,-0.0427 -0.2627,-0.27201 -0.49219,-0.98829 -0.2023,-0.69269 -0.39992,-1.649 -0.57031,-2.83593 h 10.50781 v 16.13281 l 1.58399,0.79102 c 1.10894,0.55446 2.5269,1.29866 4.23633,2.2246 1.68576,0.91312 3.33536,1.86141 4.94921,2.84375 l 1.8086,1.10157 1.58398,-1.40821 c 0.46072,-0.40952 1.24927,-0.98855 2.31446,-1.65429 1.06974,-0.66859 2.21392,-1.31009 3.43359,-1.91992 l 0.0566,-0.0274 0.0527,-0.0293 c 1.24046,-0.68914 2.51718,-1.34489 3.83008,-1.96679 1.29141,-0.61172 2.4997,-1.11409 3.61524,-1.50782 l 1.91015,-0.67382 v -6.25782 l -2.71484,-0.14257 c -2.10564,-0.11082 -3.60928,-0.78161 -5.00586,-2.16797 -1.13022,-1.18501 -1.88672,-3.14577 -1.88672,-6.41602 v -20.60937 l 9.55469,1.20703 0.61523,-2.4668 c 0.28312,-1.13247 0.7869,-2.35655 1.52735,-3.66016 0.83236,-1.33737 1.74552,-2.53845 2.74609,-3.60156 l 0.7793,-0.82617 v -4.43359 h -15.22266 v -2.85742 c 0,-0.54168 0.0325,-1.61141 0.10352,-3.10352 v -0.002 -0.004 c 0.0695,-1.52951 0.17549,-3.0971 0.31445,-4.70117 0.21105,-1.68543 0.42261,-3.26886 0.63281,-4.74024 0.19972,-1.39806 0.45536,-2.38055 0.57813,-2.6875 l 2.91797,-7.29882 -6.93164,3.70703 c -3.01395,1.61211 -5.83206,2.93329 -8.44532,3.96484 -2.43653,0.96179 -5.12346,1.54964 -8.09961,1.74805 l -5.4746,0.36523 3.30664,4.13477 c -0.0253,-0.0295 -0.0449,-0.0465 -0.0547,-0.0527 l -0.002,-0.002 h -0.002 -0.002 -0.002 v 0.002 0.002 l -0.002,0.002 c -0.003,0.0582 0.23498,0.53266 0.36133,1.20508 l 0.004,0.0156 0.004,0.0176 c 0.19433,0.9716 0.36345,2.1109 0.5,3.4082 v 0.01 l 0.002,0.008 c 0.13816,1.24352 0.2415,2.48573 0.31054,3.72852 l 0.004,0.0879 0.0117,0.0879 c 0.13786,1.17182 0.19531,2.02819 0.19531,2.36523 v 2.04297 c -1.96903,1.63322 -4.00187,2.90585 -6.10547,3.83789 l 0.52735,-0.75781 h -5.48438 c -3.33262,0 -6.01392,-0.55747 -8.12695,-1.54688 -2.13967,-1.10847 -4.31619,-2.81137 -6.4961,-5.18945 l -1.56445,-1.70703 -1.99609,1.17188 c -1.71766,1.00689 -4.41286,2.0368 -7.99219,2.93164 -3.44097,0.86024 -7.68145,1.3164 -12.69141,1.3164 h -1.25976 c -0.47283,-0.10397 -0.84459,-0.10742 -1.22461,-0.10742 h -3.61133 l 0.82031,3.51758 c 0.53518,2.29362 1.15515,4.23009 1.92969,5.86523 l 0.0254,0.0547 0.0273,0.0527 c 0.83366,1.58393 1.79735,2.93842 2.97461,4.01757 l 0.0508,0.0449 0.0527,0.043 c 1.1404,0.95034 2.44726,1.66462 3.85351,2.06641 l 0.11133,0.0312 0.11328,0.0234 c 1.28381,0.25676 2.6254,0.3789 4.01758,0.3789 2.12546,0 4.52015,-0.41724 7.33399,-1.17773 1.40452,-0.3796 2.70171,-0.95156 4.05273,-1.42773 v 4.71679 c -0.65131,0.26831 -1.17282,0.53392 -2.03906,0.79883 -1.48119,0.40249 -3.15043,0.78031 -5.01172,1.125 -1.84338,0.34136 -3.80145,0.61605 -5.87109,0.82422 -2.00906,0.13759 -3.98096,0.20703 -5.91407,0.20703 -1.76121,0 -3.36113,-0.10331 -4.79492,-0.29883 l -4.93359,-0.67187 1.89648,4.60351 c 0.39302,0.95448 0.6997,2.12008 0.88867,3.50586 l 0.002,0.01 0.002,0.01 c 0.0562,0.39304 0.1042,0.79713 0.14453,1.21094 h -4.8457 c -0.0472,-2.15497 -0.0703,-4.60266 -0.0703,-7.33984 0,-2.6849 0.0718,-5.33102 0.21289,-7.94141 v -0.004 -0.002 c 0.13238,-2.51514 0.56557,-5.20119 1.31445,-8.06055 l 0.71484,-2.73632 -2.72656,-0.75196 c -1.81367,-0.50032 -3.61704,-1.28737 -5.42773,-2.38672 -1.7719,-1.07579 -3.43421,-2.44468 -4.9961,-4.13671 l -1.1289,-1.22266 -1.6211,0.37305 c -1.94951,0.44988 -3.92857,1.01231 -5.93554,1.67968 -1.95271,0.60144 -3.90103,1.31395 -5.84375,2.13477 -1.87623,0.75141 -3.68398,1.57866 -5.41993,2.48437 -0.77255,0.40307 -1.38808,0.81885 -2.09375,1.22657 -0.54078,-0.92149 -0.9511,-1.86181 -1.61914,-2.76563 -1.39366,-1.88556 -3.00114,-3.46431 -4.81836,-4.67578 l -2.69921,-1.79883 -1.45313,2.90235 c -0.31795,0.6359 -0.87691,1.52598 -1.67187,2.58593 -0.77777,1.03703 -1.65882,2.04945 -2.64844,3.03907 -0.99519,0.99519 -2.02198,1.91966 -3.07617,2.77929 -0.9873,0.73584 -1.82634,1.20935 -2.4043,1.43164 l -1.83789,0.70704 v 5.27148 l 2.02344,0.62305 c 0.58041,0.17859 0.88807,0.38611 1.08398,0.58203 l 0.125,0.12695 0.10938,0.0898 v 0.002 0.002 c 0.0131,0.0436 0.30413,0.42605 0.53125,1.28906 l 0.0234,0.0898 0.0293,0.0879 c 0.29091,0.87272 0.58683,2.56779 0.72266,4.87695 v 0.002 0.002 c 0.13814,2.27932 0.21093,5.40406 0.21093,9.32812 v 0.10547 h -8.30468 c 0.004,-3.4371 0.0388,-6.3272 0.10546,-8.66016 0.071,-2.48512 0.14239,-4.56951 0.2129,-6.26953 0.13699,-1.63551 0.27426,-2.95523 0.40429,-3.9414 0.19773,-1.0423 0.42371,-2.01522 0.67774,-2.9043 l 0.66601,-2.33203 -2.18945,-1.04297 c -1.44207,-0.6867 -2.6927,-1.33029 -3.76172,-1.92969 -1.09132,-0.68279 -2.14956,-1.36408 -3.17187,-2.04492 -0.91693,-0.65611 -1.84127,-1.38169 -2.77149,-2.17773 -0.98812,-0.9178 -2.07701,-1.93657 -3.27539,-3.06446 l -2.14648,-2.01953 -1.95899,2.20313 c -2.24421,2.52474 -4.40355,4.71749 -6.46875,6.57617 -0.94662,0.85196 -2.13939,1.71488 -3.19336,2.57226 l -0.24414,-0.11523 c -1.44594,-0.68854 -2.69867,-1.3348 -3.76953,-1.93555 -1.08833,-0.68102 -2.14439,-1.35998 -3.16406,-2.03906 -0.92057,-0.65872 -1.84729,-1.38577 -2.78125,-2.18555 -0.98595,-0.91583 -2.06863,-1.93189 -3.26367,-3.05664 l -2.17188,-2.04297 -1.95703,2.25196 c -2.30308,2.65203 -4.55304,4.93386 -6.74023,6.84765 -0.82191,0.71576 -1.89629,1.47281 -2.80469,2.20313 v -3.75586 l -3.44531,-5.74023 -2.0586,0.51562 c -2.25674,0.56419 -4.8476,1.16743 -7.75781,1.80664 -2.90185,0.56587 -5.5851,1.02416 -8.04102,1.375 l -2.45898,0.35156 v 5.55664 l 3.99414,1.72657 v 23.27148 h -8.62695 c 0.009,-1.25954 0.0438,-2.54628 0.10351,-3.86133 v -0.004 -0.002 c 0.0684,-1.57267 0.20479,-3.14619 0.41016,-4.7207 l 0.30664,-2.3418 -4.6582,-1.55273 -1.25586,1.37695 c -3.01151,3.30531 -5.83972,6.72314 -8.48633,10.25196 l -0.0117,0.0156 -0.0117,0.0156 c -2.26516,3.10652 -3.82468,6.67468 -4.96289,10.48438 l -13.54883,-1.36133 c -0.19357,-2.46098 -0.38176,-4.96629 -0.49219,-8.04687 -0.0683,-3.89886 -0.10051,-8.02106 -0.10351,-12.31641 0.2311,-0.0204 0.40082,-0.0677 0.64453,-0.082 1.19403,-0.0702 2.09895,-0.10352 2.64063,-0.10352 0.22695,0 0.3008,0.01 0.58398,0.23633 l 0.12109,0.0977 0.13086,0.082 c 0.51683,0.32889 1.00634,0.76035 1.48047,1.33984 0.56097,0.68563 1.09781,1.44483 1.61133,2.2793 0.55434,0.90081 1.03477,1.72259 1.4375,2.46094 l 2.9668,5.43945 2.22265,-5.7832 c 0.35576,-0.92498 0.74834,-1.95699 1.17188,-3.08594 l 1.4414,-3.29297 c 0.52983,-1.05763 1.05542,-2.04434 1.57813,-2.96289 0.55197,-0.8525 1.07989,-1.51738 1.53125,-1.96875 l 2.52539,-2.52539 -3.01367,-1.91797 c -0.32721,-0.20822 -0.70437,-0.57638 -1.10156,-1.27148 -0.51851,-0.90738 -1.00463,-1.85076 -1.46289,-2.82618 -0.40359,-1.08008 -0.77739,-2.12901 -1.11329,-3.13671 l 0.0156,0.0527 c -0.38017,-1.21653 -0.76656,-2.30341 -1.16992,-3.27148 l -1.95703,-4.69532 -3.00196,4.10743 c -1.24455,1.70306 -2.51795,3.06016 -3.80078,4.09961 -1.05419,0.84174 -1.84872,1.0957 -2.63086,1.0957 h -2.35156 c -0.0521,-0.004 -0.10414,-0.0136 -0.15625,-0.0176 0.13663,-3.47991 0.28221,-6.92564 0.50781,-10.08398 0.21825,-3.05544 0.58806,-5.38692 0.96485,-7.66211 0.59065,-0.0177 0.99247,-0.0156 1.69531,-0.0449 1.68447,-0.0702 3.44462,-0.10546 5.27929,-0.10546 2.21377,0 4.0066,0.1078 5.31641,0.29492 0.83307,0.11901 1.30907,0.40919 1.80469,0.69336 0.60479,2.17661 1.36297,4.19479 2.40625,5.93359 l 0.0215,0.0352 0.0215,0.0352 c 1.47601,2.30626 3.69557,4.20132 6.49804,5.80274 l 1.23829,0.70703 3.57812,-1.5332 0.20508,-1.63086 c 0.14189,-1.13514 0.35497,-2.85342 0.63672,-5.10743 l 0.002,-0.0137 c 0.35575,-2.3472 0.74667,-4.7318 1.17383,-7.15234 l 0.002,-0.008 0.002,-0.006 c 0.42357,-2.47088 0.84531,-4.72074 1.26562,-6.75586 0.47547,-1.95666 0.97708,-3.3128 1.125,-3.58399 l 1.86328,-3.41992 -3.81836,-0.76367 c -0.50589,-0.10118 -1.01786,-0.13199 -1.53515,-0.14258 -0.55699,-0.0778 -1.11982,-0.12891 -1.72461,-0.1289 -2.97859,0 -6.86251,0.26166 -11.74219,0.77148 -4.6628,0.48715 -10.92082,0.74023 -18.70508,0.74023 -3.617,0 -7.49242,-0.0693 -11.61719,-0.21093 -0.005,-2.6e-4 -0.0107,-0.002 -0.0156,-0.002 -4.03786,-0.21283 -8.33504,-0.5664 -12.88867,-1.06445 z m 256.65235,41.26171 v 2.98243 h 8.96093 v 18.40234 h -10.83203 c -0.0425,-1.44034 -0.0645,-3.09616 -0.0645,-4.96484 0,-5.18118 0.14818,-9.09063 0.41406,-11.63672 0.28195,-2.11832 0.84535,-3.64096 1.52149,-4.78321 z m -72.13868,5.91797 c -0.0649,0.96629 -0.13042,1.83684 -0.19531,2.875 l -0.004,0.043 v 0.0449 c -0.0729,2.3331 -0.10938,4.66685 -0.10938,7 v 7.8125 0.0391 c 0.0522,1.93079 0.14639,3.2809 0.23828,4.68554 -0.85755,0.46786 -1.67177,0.85003 -2.62109,1.48243 -0.96838,0.63004 -1.66313,1.22585 -2.42774,1.82812 -1.09083,-0.35496 -2.15306,-0.71795 -3.39843,-1.0293 -0.81619,-0.20404 -1.42528,-0.23713 -2.14844,-0.37109 v -21.19336 c 0.43822,-0.21128 0.72012,-0.39767 1.30469,-0.625 l 0.0625,-0.0234 0.0625,-0.0273 c 1.16063,-0.51584 2.43797,-0.97614 3.83398,-1.375 1.41911,-0.40546 2.87584,-0.74412 4.36914,-1.01563 l 0.0469,-0.01 0.0488,-0.01 c 0.34252,-0.0745 0.60827,-0.0704 0.9375,-0.13086 z M 368.93945,440 v 7.9043 c -1.12226,-0.16951 -2.40841,-0.47104 -3.38476,-0.51172 l 0.004,0.002 c -0.70413,-0.0306 -1.37277,-0.0947 -2.0625,-0.13867 l 0.11719,-5.86914 c 0.94437,-0.18021 1.7816,-0.2757 2.86524,-0.55664 l 0.0469,-0.0117 0.0469,-0.0156 c 0.76467,-0.22656 1.58412,-0.54498 2.36718,-0.80273 z m -224.3789,17.57422 -0.0274,0.0625 c 0.003,-0.011 0.005,-0.0237 0.01,-0.0332 0.005,-0.0109 0.0115,-0.0197 0.0176,-0.0293 z"
         inkscape:label="test" /><path
         id="path4"
         style="font-size:107.967px;font-family:'New Rocker';-inkscape-font-specification:'New Rocker';letter-spacing:0px;baseline-shift:baseline;white-space:pre;display:inline;overflow:visible;opacity:1;vector-effect:none;fill:none;fill-opacity:1;stroke:#f30000;stroke-opacity:1;enable-background:accumulate;stop-color:#000000;stop-opacity:1"
         d="m 133.88281,376.37891 1.84961,4.4707 c 1.01056,2.44219 2.52122,4.6921 4.4668,6.71875 l 0.0215,0.0215 0.0195,0.0215 c 1.44348,1.44347 2.9345,2.48641 4.47266,3.31445 0.0311,0.41554 0.0601,0.65837 0.0918,1.19727 0.0675,1.148 0.10351,2.53642 0.10351,4.15039 0,1.94716 -0.0702,4.04746 -0.21093,6.29883 -0.13626,2.18005 -0.40709,4.3212 -0.81446,6.42773 -0.39812,1.98748 -0.95842,3.85941 -1.67773,5.625 l -0.0117,0.0273 -0.01,0.0254 c -0.60666,1.57733 -1.34425,2.72316 -2.1582,3.53711 l -1.82422,1.82422 1.62305,2.00586 c 0.8054,0.9949 1.64562,2.82374 2.23437,5.50586 l 0.008,0.0312 0.008,0.0332 c 0.66259,2.71664 0.99805,5.57873 0.99805,8.60547 0,1.95273 -0.13517,4.14798 -0.41211,6.57422 -0.27097,2.30318 -0.71027,4.53037 -1.31641,6.68555 l -0.0117,0.041 -0.01,0.0391 c -0.53665,2.14658 -1.19806,4.01597 -1.96289,5.60937 l -0.0195,0.043 -0.0195,0.043 c -0.64944,1.47599 -1.31729,2.16459 -1.6582,2.36914 l -1.9707,1.18164 1.77148,5.31445 2.77734,-1.02929 c 1.59766,-0.59173 3.36825,-0.90039 5.37305,-0.90039 4.57474,0 9.7667,0.41863 15.55664,1.26562 h 0.002 0.002 0.002 0.002 c 5.76043,0.9148 11.60078,2.25156 17.52149,4.01367 l 1.48437,0.44141 1.1836,-1 c 1.80026,-1.5233 3.40281,-2.74737 4.78711,-3.67188 1.46577,-0.93101 2.80095,-1.64255 3.97461,-2.13671 1.22052,-0.51391 2.29519,-0.8449 3.19531,-1.01368 l 0.0644,-0.0117 0.0625,-0.0137 c 1.11998,-0.26352 2.23607,-0.46079 3.34961,-0.59179 l 3.49805,-0.41211 -1.11328,-3.33985 c -0.38735,-1.16202 -0.82195,-3.3115 -1.16993,-6.23437 -0.21679,-1.82115 -0.36603,-3.79773 -0.44726,-5.92578 h 8.55664 v 7.99218 c 0,1.74248 -0.28373,2.91513 -0.56055,3.46875 l -0.0176,0.0352 -0.0156,0.0332 c -0.29009,0.62162 -0.45133,0.68187 -0.55859,0.72657 l -1.76172,0.73437 v 6.39649 h 25.5957 v -6.48047 l -1.86914,-0.69141 c -0.0528,-0.0195 -0.19436,-0.008 -0.49414,-0.81836 -0.29978,-0.81051 -0.55078,-2.31432 -0.55078,-4.37695 V 428.4942 l 7.65625,-3.31055 v 26.36914 c 0,1.74248 -0.28373,2.91513 -0.56055,3.46875 l -0.0176,0.0352 -0.0176,0.0332 c -0.29008,0.62162 -0.44938,0.68187 -0.55664,0.72657 l -1.76367,0.73437 v 6.39649 h 24.94922 v -6.48047 l -1.86914,-0.69141 c -0.0528,-0.0195 -0.19436,-0.008 -0.49414,-0.81836 -0.29978,-0.81051 -0.55078,-2.31432 -0.55078,-4.37695 v -9.82422 -7.88281 c 0,-1.82281 0.0389,-3.06136 0.0742,-4.35743 l 7.79883,-3.34374 v 10.10156 0.0254 c 0.0717,4.086 0.10742,8.17182 0.10742,12.25781 0,0.6181 -0.0657,1.89206 -0.20703,3.6582 -0.14215,1.77675 -0.32079,3.73916 -0.53516,5.88282 -0.20911,2.01925 -0.48749,4.03951 -0.83594,6.06054 l -0.002,0.008 v 0.008 c -0.34631,2.07785 -0.72396,3.77323 -1.10547,5.04492 l -0.49219,1.64063 3.95508,3.95507 2.02344,-2.16797 c 0.93648,-1.00337 2.02468,-2.06079 3.26367,-3.1621 1.22527,-1.08914 2.52304,-2.14498 3.89063,-3.17188 1.43434,-1.02361 2.82522,-1.93949 4.17382,-2.75 1.37308,-0.78333 2.68825,-1.39156 3.93555,-1.82812 l 2.35156,-0.82227 -0.48828,-2.44336 c -0.13776,-0.68879 -0.27742,-1.41673 -0.41601,-2.17773 -0.11849,-0.71096 -0.221,-1.7006 -0.28907,-2.92579 -0.0697,-1.25467 -0.14004,-2.88692 -0.21093,-4.86523 v -3.93945 h 8.30468 v 30.23242 c 0,3.5959 -0.27959,6.72613 -0.80859,9.37109 l -0.008,0.0332 -0.006,0.0351 c -0.44074,2.51852 -1.24937,4.31604 -2.29297,5.56836 l 3.43359,4.42188 c 2.91818,-1.38961 5.59797,-2.45055 8.02149,-3.19141 h 0.002 l 0.002,-0.002 h 0.002 c 2.43139,-0.72086 4.66821,-1.0625 6.71875,-1.0625 1.69577,0 3.06883,0.22468 4.1289,0.5957 l 6.89844,2.41406 -3.41992,-6.46094 c -0.59707,-1.12779 -1.08512,-2.20354 -1.46875,-3.22656 l -0.0117,-0.0293 -0.01,-0.0293 c -0.34624,-0.86561 -0.62041,-1.85335 -0.80664,-2.9707 l -0.002,-0.0137 -0.002,-0.0137 c -0.1974,-1.11857 -0.36558,-2.35902 -0.50196,-3.70508 -0.0667,-1.28966 -0.10351,-2.83659 -0.10351,-4.64843 v -7.50196 c 0.85116,0.15622 1.76607,0.24071 2.57031,0.44922 l 0.0117,0.004 0.0117,0.004 c 1.85185,0.46297 3.8403,1.13383 5.95703,2.02149 l 1.45313,0.60937 1.29101,-0.90039 c 3.19612,-2.22338 6.37466,-4.08705 9.5332,-5.59765 l 0.0117,-0.006 0.0117,-0.004 c 3.17646,-1.55445 6.23344,-2.57653 9.17578,-3.09961 l 3.95313,-0.70312 -1.95117,-3.50977 c -0.14818,-0.26672 -0.37603,-0.87062 -0.55274,-1.74219 -0.18666,-0.9986 -0.35976,-2.38467 -0.49805,-4.11328 -0.0767,-0.95882 -0.14458,-2.03639 -0.20117,-3.22851 h 4.83985 c -0.0184,2.40047 -0.0889,4.80052 -0.20899,7.20117 -0.13336,2.59345 -0.53734,4.64866 -1.10742,6.13086 l -1.4707,3.82422 4.0957,0.0703 c 3.98996,0.0688 7.46963,0.51677 10.43164,1.30664 l 0.008,0.002 0.008,0.002 c 3.06479,0.79951 5.82275,1.95439 8.30859,3.45898 l 2.10937,1.27734 6.42969,-7.73437 c 0.36538,0.56663 0.59004,1.15296 1.00391,1.71289 1.39367,1.88555 3.00115,3.46431 4.81836,4.67578 l 2.70117,1.80078 1.45117,-2.90234 c 0.31797,-0.63593 0.87691,-1.52599 1.67188,-2.58594 0.77776,-1.03702 1.66077,-2.0514 2.65039,-3.04101 1.01212,-1.01213 2.01323,-1.91216 3.00195,-2.70313 l 0.008,-0.006 0.0117,-0.008 c 0.97373,-0.79116 1.802,-1.25714 2.39453,-1.46875 l 1.90235,-0.67969 v -5.48633 l -2.22071,-0.51172 c -0.60606,-0.13986 -0.9945,-0.32891 -1.29492,-0.51171 -0.0439,-0.0427 -0.2627,-0.27201 -0.49219,-0.98829 -0.2023,-0.69269 -0.39992,-1.649 -0.57031,-2.83593 h 10.50781 v 16.13281 l 1.58399,0.79102 c 1.10894,0.55446 2.5269,1.29866 4.23633,2.2246 1.68576,0.91312 3.33536,1.86141 4.94921,2.84375 l 1.8086,1.10157 1.58398,-1.40821 c 0.46072,-0.40952 1.24927,-0.98855 2.31446,-1.65429 1.06974,-0.66859 2.21392,-1.31009 3.43359,-1.91992 l 0.0566,-0.0274 0.0527,-0.0293 c 1.24046,-0.68914 2.51718,-1.34489 3.83008,-1.96679 1.29141,-0.61172 2.4997,-1.11409 3.61524,-1.50782 l 1.91015,-0.67382 v -6.25782 l -2.71484,-0.14257 c -2.10564,-0.11082 -3.60928,-0.78161 -5.00586,-2.16797 -1.13022,-1.18501 -1.88672,-3.14577 -1.88672,-6.41602 v -20.60937 l 9.55469,1.20703 0.61523,-2.4668 c 0.28312,-1.13247 0.7869,-2.35655 1.52735,-3.66016 0.83236,-1.33737 1.74552,-2.53845 2.74609,-3.60156 l 0.7793,-0.82617 v -4.43359 h -15.22266 v -2.85742 c 0,-0.54168 0.0325,-1.61141 0.10352,-3.10352 v -0.002 -0.004 c 0.0695,-1.52951 0.17549,-3.0971 0.31445,-4.70117 0.21105,-1.68543 0.42261,-3.26886 0.63281,-4.74024 0.19972,-1.39806 0.45536,-2.38055 0.57813,-2.6875 l 2.91797,-7.29882 -6.93164,3.70703 c -3.01395,1.61211 -5.83206,2.93329 -8.44532,3.96484 -2.43653,0.96179 -5.12346,1.54964 -8.09961,1.74805 l -5.4746,0.36523 3.30664,4.13477 c -0.0253,-0.0295 -0.0449,-0.0465 -0.0547,-0.0527 l -0.002,-0.002 h -0.002 -0.002 -0.002 v 0.002 0.002 l -0.002,0.002 c -0.003,0.0582 0.23498,0.53266 0.36133,1.20508 l 0.004,0.0156 0.004,0.0176 c 0.19433,0.9716 0.36345,2.1109 0.5,3.4082 v 0.01 l 0.002,0.008 c 0.13816,1.24352 0.2415,2.48573 0.31054,3.72852 l 0.004,0.0879 0.0117,0.0879 c 0.13786,1.17182 0.19531,2.02819 0.19531,2.36523 v 2.04297 c -1.96903,1.63322 -4.00187,2.90585 -6.10547,3.83789 l 0.52735,-0.75781 h -5.48438 c -3.33262,0 -6.01392,-0.55747 -8.12695,-1.54688 -2.13967,-1.10847 -4.31619,-2.81137 -6.4961,-5.18945 l -1.56445,-1.70703 -1.99609,1.17188 c -1.71766,1.00689 -4.41286,2.0368 -7.99219,2.93164 -3.44097,0.86024 -7.68145,1.3164 -12.69141,1.3164 h -1.25976 c -0.47283,-0.10397 -0.84459,-0.10742 -1.22461,-0.10742 h -3.61133 l 0.82031,3.51758 c 0.53518,2.29362 1.15515,4.23009 1.92969,5.86523 l 0.0254,0.0547 0.0273,0.0527 c 0.83366,1.58393 1.79735,2.93842 2.97461,4.01757 l 0.0508,0.0449 0.0527,0.043 c 1.1404,0.95034 2.44726,1.66462 3.85351,2.06641 l 0.11133,0.0312 0.11328,0.0234 c 1.28381,0.25676 2.6254,0.3789 4.01758,0.3789 2.12546,0 4.52015,-0.41724 7.33399,-1.17773 1.40452,-0.3796 2.70171,-0.95156 4.05273,-1.42773 v 4.71679 c -0.65131,0.26831 -1.17282,0.53392 -2.03906,0.79883 -1.48119,0.40249 -3.15043,0.78031 -5.01172,1.125 -1.84338,0.34136 -3.80145,0.61605 -5.87109,0.82422 -2.00906,0.13759 -3.98096,0.20703 -5.91407,0.20703 -1.76121,0 -3.36113,-0.10331 -4.79492,-0.29883 l -4.93359,-0.67187 1.89648,4.60351 c 0.39302,0.95448 0.6997,2.12008 0.88867,3.50586 l 0.002,0.01 0.002,0.01 c 0.0562,0.39304 0.1042,0.79713 0.14453,1.21094 h -4.8457 c -0.0472,-2.15497 -0.0703,-4.60266 -0.0703,-7.33984 0,-2.6849 0.0718,-5.33102 0.21289,-7.94141 v -0.004 -0.002 c 0.13238,-2.51514 0.56557,-5.20119 1.31445,-8.06055 l 0.71484,-2.73632 -2.72656,-0.75196 c -1.81367,-0.50032 -3.61704,-1.28737 -5.42773,-2.38672 -1.7719,-1.07579 -3.43421,-2.44468 -4.9961,-4.13671 l -1.1289,-1.22266 -1.6211,0.37305 c -1.94951,0.44988 -3.92857,1.01231 -5.93554,1.67968 -1.95271,0.60144 -3.90103,1.31395 -5.84375,2.13477 -1.87623,0.75141 -3.68398,1.57866 -5.41993,2.48437 -0.77255,0.40307 -1.38808,0.81885 -2.09375,1.22657 -0.54078,-0.92149 -0.9511,-1.86181 -1.61914,-2.76563 -1.39366,-1.88556 -3.00114,-3.46431 -4.81836,-4.67578 l -2.69921,-1.79883 -1.45313,2.90235 c -0.31795,0.6359 -0.87691,1.52598 -1.67187,2.58593 -0.77777,1.03703 -1.65882,2.04945 -2.64844,3.03907 -0.99519,0.99519 -2.02198,1.91966 -3.07617,2.77929 -0.9873,0.73584 -1.82634,1.20935 -2.4043,1.43164 l -1.83789,0.70704 v 5.27148 l 2.02344,0.62305 c 0.58041,0.17859 0.88807,0.38611 1.08398,0.58203 l 0.125,0.12695 0.10938,0.0898 v 0.002 0.002 c 0.0131,0.0436 0.30413,0.42605 0.53125,1.28906 l 0.0234,0.0898 0.0293,0.0879 c 0.29091,0.87272 0.58683,2.56779 0.72266,4.87695 v 0.002 0.002 c 0.13814,2.27932 0.21093,5.40406 0.21093,9.32812 v 0.10547 h -8.30468 c 0.004,-3.4371 0.0388,-6.3272 0.10546,-8.66016 0.071,-2.48512 0.14239,-4.56951 0.2129,-6.26953 0.13699,-1.63551 0.27426,-2.95523 0.40429,-3.9414 0.19773,-1.0423 0.42371,-2.01522 0.67774,-2.9043 l 0.66601,-2.33203 -2.18945,-1.04297 c -1.44207,-0.6867 -2.6927,-1.33029 -3.76172,-1.92969 -1.09132,-0.68279 -2.14956,-1.36408 -3.17187,-2.04492 -0.91693,-0.65611 -1.84127,-1.38169 -2.77149,-2.17773 -0.98812,-0.9178 -2.07701,-1.93657 -3.27539,-3.06446 l -2.14648,-2.01953 -1.95899,2.20313 c -2.24421,2.52474 -4.40355,4.71749 -6.46875,6.57617 -0.94662,0.85196 -2.13939,1.71488 -3.19336,2.57226 l -0.24414,-0.11523 c -1.44594,-0.68854 -2.69867,-1.3348 -3.76953,-1.93555 -1.08833,-0.68102 -2.14439,-1.35998 -3.16406,-2.03906 -0.92057,-0.65872 -1.84729,-1.38577 -2.78125,-2.18555 -0.98595,-0.91583 -2.06863,-1.93189 -3.26367,-3.05664 l -2.17188,-2.04297 -1.95703,2.25196 c -2.30308,2.65203 -4.55304,4.93386 -6.74023,6.84765 -0.82191,0.71576 -1.89629,1.47281 -2.80469,2.20313 v -3.75586 l -3.44531,-5.74023 -2.0586,0.51562 c -2.25674,0.56419 -4.8476,1.16743 -7.75781,1.80664 -2.90185,0.56587 -5.5851,1.02416 -8.04102,1.375 l -2.45898,0.35156 v 5.55664 l 3.99414,1.72657 v 23.27148 h -8.62695 c 0.009,-1.25954 0.0438,-2.54628 0.10351,-3.86133 v -0.004 -0.002 c 0.0684,-1.57267 0.20479,-3.14619 0.41016,-4.7207 l 0.30664,-2.3418 -4.6582,-1.55273 -1.25586,1.37695 c -3.01151,3.30531 -5.83972,6.72314 -8.48633,10.25196 l -0.0117,0.0156 -0.0117,0.0156 c -2.26516,3.10652 -3.82468,6.67468 -4.96289,10.48438 l -13.54883,-1.36133 c -0.19357,-2.46098 -0.38176,-4.96629 -0.49219,-8.04687 -0.0683,-3.89886 -0.10051,-8.02106 -0.10351,-12.31641 0.2311,-0.0204 0.40082,-0.0677 0.64453,-0.082 1.19403,-0.0702 2.09895,-0.10352 2.64063,-0.10352 0.22695,0 0.3008,0.01 0.58398,0.23633 l 0.12109,0.0977 0.13086,0.082 c 0.51683,0.32889 1.00634,0.76035 1.48047,1.33984 0.56097,0.68563 1.09781,1.44483 1.61133,2.2793 0.55434,0.90081 1.03477,1.72259 1.4375,2.46094 l 2.9668,5.43945 2.22265,-5.7832 c 0.35576,-0.92498 0.74834,-1.95699 1.17188,-3.08594 l 1.4414,-3.29297 c 0.52983,-1.05763 1.05542,-2.04434 1.57813,-2.96289 0.55197,-0.8525 1.07989,-1.51738 1.53125,-1.96875 l 2.52539,-2.52539 -3.01367,-1.91797 c -0.32721,-0.20822 -0.70437,-0.57638 -1.10156,-1.27148 -0.51851,-0.90738 -1.00463,-1.85076 -1.46289,-2.82618 -0.40359,-1.08008 -0.77739,-2.12901 -1.11329,-3.13671 l 0.0156,0.0527 c -0.38017,-1.21653 -0.76656,-2.30341 -1.16992,-3.27148 l -1.95703,-4.69532 -3.00196,4.10743 c -1.24455,1.70306 -2.51795,3.06016 -3.80078,4.09961 -1.05419,0.84174 -1.84872,1.0957 -2.63086,1.0957 h -2.35156 c -0.0521,-0.004 -0.10414,-0.0136 -0.15625,-0.0176 0.13663,-3.47991 0.28221,-6.92564 0.50781,-10.08398 0.21825,-3.05544 0.58806,-5.38692 0.96485,-7.66211 0.59065,-0.0177 0.99247,-0.0156 1.69531,-0.0449 1.68447,-0.0702 3.44462,-0.10546 5.27929,-0.10546 2.21377,0 4.0066,0.1078 5.31641,0.29492 0.83307,0.11901 1.30907,0.40919 1.80469,0.69336 0.60479,2.17661 1.36297,4.19479 2.40625,5.93359 l 0.0215,0.0352 0.0215,0.0352 c 1.47601,2.30626 3.69557,4.20132 6.49804,5.80274 l 1.23829,0.70703 3.57812,-1.5332 0.20508,-1.63086 c 0.14189,-1.13514 0.35497,-2.85342 0.63672,-5.10743 l 0.002,-0.0137 c 0.35575,-2.3472 0.74667,-4.7318 1.17383,-7.15234 l 0.002,-0.008 0.002,-0.006 c 0.42357,-2.47088 0.84531,-4.72074 1.26562,-6.75586 0.47547,-1.95666 0.97708,-3.3128 1.125,-3.58399 l 1.86328,-3.41992 -3.81836,-0.76367 c -0.50589,-0.10118 -1.01786,-0.13199 -1.53515,-0.14258 -0.55699,-0.0778 -1.11982,-0.12891 -1.72461,-0.1289 -2.97859,0 -6.86251,0.26166 -11.74219,0.77148 -4.6628,0.48715 -10.92082,0.74023 -18.70508,0.74023 -3.617,0 -7.49242,-0.0693 -11.61719,-0.21093 -0.005,-2.6e-4 -0.0107,-0.002 -0.0156,-0.002 -4.03786,-0.21283 -8.33504,-0.5664 -12.88867,-1.06445 z m 256.65235,41.26171 v 2.98243 h 8.96093 v 18.40234 h -10.83203 c -0.0425,-1.44034 -0.0645,-3.09616 -0.0645,-4.96484 0,-5.18118 0.14818,-9.09063 0.41406,-11.63672 0.28195,-2.11832 0.84535,-3.64096 1.52149,-4.78321 z m -72.13868,5.91797 c -0.0649,0.96629 -0.13042,1.83684 -0.19531,2.875 l -0.004,0.043 v 0.0449 c -0.0729,2.3331 -0.10938,4.66685 -0.10938,7 v 7.8125 0.0391 c 0.0522,1.93079 0.14639,3.2809 0.23828,4.68554 -0.85755,0.46786 -1.67177,0.85003 -2.62109,1.48243 -0.96838,0.63004 -1.66313,1.22585 -2.42774,1.82812 -1.09083,-0.35496 -2.15306,-0.71795 -3.39843,-1.0293 -0.81619,-0.20404 -1.42528,-0.23713 -2.14844,-0.37109 v -21.19336 c 0.43822,-0.21128 0.72012,-0.39767 1.30469,-0.625 l 0.0625,-0.0234 0.0625,-0.0273 c 1.16063,-0.51584 2.43797,-0.97614 3.83398,-1.375 1.41911,-0.40546 2.87584,-0.74412 4.36914,-1.01563 l 0.0469,-0.01 0.0488,-0.01 c 0.34252,-0.0745 0.60827,-0.0704 0.9375,-0.13086 z M 368.93945,440 v 7.9043 c -1.12226,-0.16951 -2.40841,-0.47104 -3.38476,-0.51172 l 0.004,0.002 c -0.70413,-0.0306 -1.37277,-0.0947 -2.0625,-0.13867 l 0.11719,-5.86914 c 0.94437,-0.18021 1.7816,-0.2757 2.86524,-0.55664 l 0.0469,-0.0117 0.0469,-0.0156 c 0.76467,-0.22656 1.58412,-0.54498 2.36718,-0.80273 z m -224.3789,17.57422 -0.0274,0.0625 c 0.003,-0.011 0.005,-0.0237 0.01,-0.0332 0.005,-0.0109 0.0115,-0.0197 0.0176,-0.0293 z" /></g></g></svg>
