<?xml version="1.0" encoding="UTF-8" standalone="no"?>
<svg
   version="1.2"
   viewBox="0 0 113.38583 113.38583"
   width="30mm"
   height="30mm"
   id="svg1"
   sodipodi:docname="VedmaReminderTokenLaser.svg"
   inkscape:version="1.4.2 (2aeb623e1d, 2025-05-12)"
   xml:space="preserve"
   xmlns:inkscape="http://www.inkscape.org/namespaces/inkscape"
   xmlns:sodipodi="http://sodipodi.sourceforge.net/DTD/sodipodi-0.dtd"
   xmlns="http://www.w3.org/2000/svg"
   xmlns:svg="http://www.w3.org/2000/svg"><sodipodi:namedview
     id="namedview1"
     pagecolor="#ffffff"
     bordercolor="#666666"
     borderopacity="1.0"
     inkscape:showpageshadow="2"
     inkscape:pageopacity="0.0"
     inkscape:pagecheckerboard="0"
     inkscape:deskcolor="#d1d1d1"
     inkscape:zoom="5.0039609"
     inkscape:cx="34.772454"
     inkscape:cy="43.065884"
     inkscape:window-width="1920"
     inkscape:window-height="940"
     inkscape:window-x="0"
     inkscape:window-y="0"
     inkscape:window-maximized="1"
     inkscape:current-layer="layer2"
     showgrid="false"
     inkscape:document-units="mm" /><defs
     id="defs1"><clipPath
       clipPathUnits="userSpaceOnUse"
       id="cp1"><path
         d="m 275.5,535.5 c -143.78,0 -260,-116.22 -260,-260 0,-143.78 116.22,-260 260,-260 143.78,0 260,116.22 260,260 0,143.78 -116.22,260 -260,260 z"
         id="path1" /></clipPath></defs><style
     id="style1">
		tspan { white-space:pre } 
		.s0 { fill: none;stroke: #ff0000;stroke-miterlimit:100 } 
	</style><g
     inkscape:groupmode="layer"
     id="layer2"
     inkscape:label="Content"
     style="display:inline"
     transform="scale(0.1989225)"><g
       inkscape:groupmode="layer"
       id="layer3"
       inkscape:label="Kruh"
       transform="scale(5.0270836)"><path
         id="path2"
         style="fill:none;stroke:#000000;stroke-width:0.949978"
         inkscape:label="vnejsi kruh"
         d="M 569.5184,284.99338 A 284.52502,284.52502 0 0 1 284.99338,569.5184 284.52502,284.52502 0 0 1 0.46835327,284.99338 284.52502,284.52502 0 0 1 284.99338,0.46835327 284.52502,284.52502 0 0 1 569.5184,284.99338 Z"
         transform="scale(0.19892249)" /><path
         id="path2-9"
         style="fill:none;stroke:#000000;stroke-width:0.815568"
         inkscape:label="vnitrni kruh"
         d="M 529.26178,284.99338 A 244.2684,244.2684 0 0 1 284.99338,529.26178 244.2684,244.2684 0 0 1 40.724976,284.99338 244.2684,244.2684 0 0 1 284.99338,40.724976 244.2684,244.2684 0 0 1 529.26178,284.99338 Z"
         transform="scale(0.19892249)" /></g><path
       id="path6"
       style="opacity:1;baseline-shift:baseline;display:inline;overflow:visible;enable-background:accumulate;stop-color:#000000;stop-opacity:1;fill:none;stroke:#000000;stroke-opacity:1;stroke-width:0.95000006;stroke-dasharray:none"
       d="m 282.94037,60.118814 c -3.21567,-0.08738 -6.52912,-0.01545 -9.89707,0.432015 -7.17479,0.953305 -15.0971,3.145136 -20.78582,5.842021 -10.0022,4.741797 -23.66687,16.620323 -30.78107,26.372552 -2.73531,3.749642 -5.41757,8.660408 -7.62899,13.490648 -2.20595,4.8183 -3.96111,9.35204 -4.48706,13.25501 -0.11117,0.82497 -0.56076,3.2727 -0.90331,4.80125 -1.68398,7.51424 -1.88571,19.62042 -0.3731,26.98131 0.61969,3.01568 1.2911,6.41171 1.4335,7.19697 0.87763,4.83985 3.71242,10.50878 7.23626,16.58349 2.20747,3.80543 4.69858,7.46718 7.24607,10.88874 -0.2842,0.0536 -0.55937,-0.0413 -0.8444,0.0491 -3.21819,1.02141 -4.70234,3.72993 -5.48855,5.62601 -0.78213,1.88626 -1.66848,4.88654 -0.0589,7.8941 1.48443,2.7737 3.79903,4.58733 6.39186,6.58823 2.64891,2.04416 5.69098,4.02303 8.63048,5.41982 0.37266,0.17708 0.60948,0.30205 0.96221,0.47129 -2.03602,5.40436 -1.4826,11.57757 1.4826,16.76022 0.70242,1.22773 1.51228,2.40037 2.34663,3.4463 0.60885,0.76326 1.4197,1.51996 2.30735,2.24844 -0.004,0.0266 -0.0147,0.0777 -0.0196,0.108 l -0.01,-0.01 h -0.01 v 0.01 0.01 h -0.01 v 0.01 0.01 0.01 h 0.01 v 0.01 c -0.0379,0.22627 -0.0585,0.45556 -0.15709,0.71675 -0.28675,0.75944 -0.72227,1.78048 -1.18804,2.78846 -0.46576,1.00798 -0.9729,2.01489 -1.38441,2.79828 -0.28891,0.55 -0.6494,1.1152 -0.72658,1.25677 -0.15667,0.12111 -0.45757,0.29456 -0.62838,0.44183 0.1191,-0.44621 0.37599,-0.83244 0.43201,-1.30586 0.34218,-2.89223 -0.73533,-5.63597 -2.39572,-7.74682 -1.08744,-1.38246 -2.82822,-3.17355 -5.50819,-3.5543 -2.52035,-0.35798 -4.54061,0.61328 -6.12675,1.4335 -2.72439,1.40883 -4.50376,4.13576 -5.27255,6.99079 -1.06405,3.95166 -0.70566,8.10072 1.18804,11.61531 1.87923,3.48766 5.03022,6.15892 8.89558,8.09047 1.30745,0.65332 2.63583,1.22955 3.83904,1.67896 1.00417,0.37506 2.24702,0.92611 3.99614,0.92295 2.52605,-0.004 4.32607,-1.03085 5.94021,-1.92444 1.75107,-0.96939 3.53429,-2.19939 5.11545,-3.62303 2.04409,-1.84045 3.28916,-4.13085 4.36924,-6.45077 0.43721,-0.9391 1.67109,-3.48457 2.78846,-5.9893 0.55869,-1.25236 1.08695,-2.49917 1.51205,-3.63285 0.22164,-0.59106 0.4427,-1.04804 0.60875,-1.60042 2.31709,-0.67603 4.46978,-1.87854 6.02858,-3.73104 0.96488,-1.14671 2.07487,-2.54193 2.63136,-4.47725 0.23393,-0.81362 0.33856,-1.58646 0.41238,-2.3859 1.71546,0.71011 3.68637,1.12271 5.66529,1.43351 -0.36115,1.16158 -0.60749,2.41686 -0.41238,3.88813 0.31533,2.37789 1.43051,3.98457 2.57245,5.80275 1.46185,2.32753 3.36596,4.40717 6.04821,5.46892 2.7732,1.09776 5.80897,0.71437 8.30647,-0.48111 2.54575,-1.21853 4.19936,-3.47626 5.11545,-5.85184 0.73055,-1.8944 1.03352,-3.98622 1.15859,-6.20531 H 290.805 c 0.5158,0 1.15565,-0.12571 1.71824,-0.16691 0.0235,-0.46029 0.0924,-0.87999 0.0982,-1.35496 l -0.01,1.34514 c 2.50456,-0.1914 5.29477,-0.65567 7.91373,-1.3255 0.1819,-0.0465 0.31091,-0.0725 0.49093,-0.11782 0.28465,1.76437 0.8374,3.48894 2.10116,4.99763 2.07544,2.47765 4.89807,3.51834 7.99228,4.40851 0.94618,4.97932 4.34855,9.04513 8.1101,12.5088 3.88908,3.5811 8.05879,6.39108 12.11605,7.49153 4.70368,1.27578 8.99587,-0.59823 11.96878,-2.92592 3.63076,-2.84272 8.39684,-7.82663 7.45226,-14.71796 -0.55717,-4.06489 -2.69887,-7.55426 -5.93039,-9.49451 -3.40787,-2.04617 -8.21189,-1.91025 -11.46803,1.14876 -1.97059,1.85126 -2.9574,4.41932 -3.03392,7.03988 -0.70935,-0.69873 -1.36216,-1.26992 -2.0128,-2.00297 -1.15442,-1.30064 -1.87735,-2.84538 -2.07171,-3.01429 h -0.01 v -0.01 h -0.01 v 0.01 h -0.01 v 0.01 h -0.01 c -8.2e-4,-0.004 -0.009,-0.0249 -0.01,-0.0295 v -0.01 -0.01 c 3.65381,-2.40552 6.27291,-6.07426 7.67808,-10.62364 0.60249,-1.95068 1.06833,-3.27769 1.16841,-4.98781 0.1271,-2.16961 -0.72665,-3.83756 -1.75752,-5.06635 v -0.01 c -0.002,-0.0163 -0.0102,-0.0547 -0.0589,-0.20619 l -0.01,-0.01 v -0.01 c -0.006,-0.0101 -0.0152,-0.0271 -0.0196,-0.0393 -0.11942,-0.56414 -0.20854,-1.01854 -0.37311,-1.41387 0.13138,-0.0649 0.25269,-0.14532 0.36329,-0.19637 3.81078,-1.7592 7.5537,-4.17395 10.55491,-6.60787 1.49792,-1.21478 2.82282,-2.43951 3.91759,-3.73103 0.9363,-1.10458 2.44481,-2.95873 2.44481,-5.60638 0,-1.84977 -0.76414,-3.30832 -1.26659,-4.17287 -0.5975,-1.02809 -1.34898,-2.0163 -2.2779,-2.90629 l -1.60041,-1.53169 c 6.68197,-7.90277 11.69833,-17.81015 14.96342,-29.51447 3.2922,-11.80146 3.81408,-22.16924 1.89498,-35.80816 -1.82678,-12.98437 -11.69255,-30.036364 -23.09317,-41.758173 -6.60062,-6.786563 -16.89196,-12.638184 -27.26603,-15.837277 -2.18738,-0.674543 -5.6561,-1.754023 -7.65845,-2.385901 -3.31749,-1.046905 -7.87915,-1.400894 -11.50731,-1.669149 -3.00756,-0.222376 -6.13097,-0.472164 -9.34723,-0.559656 z m 16.14165,16.033647 c 14.1268,3.867848 20.74821,7.590641 29.7403,16.612941 5.95345,5.973447 10.23148,11.619458 13.40229,17.457328 -0.30635,-0.0865 -0.50143,-0.11096 -0.86403,-0.2651 -1.50065,-0.63795 -3.59866,-1.55282 -6.13658,-2.24844 -4.23635,-1.16111 -8.91985,-2.83723 -11.49749,-4.14341 -4.79403,-2.42933 -13.48794,-9.884482 -18.4981,-16.328206 -1.12166,-1.442587 -2.65106,-4.489743 -4.22196,-7.383529 -0.73016,-1.345012 -1.37016,-2.534634 -1.92443,-3.701584 z m -11.49749,42.111649 v 0.01 c 9.68323,0.0118 17.85103,2.75127 24.57576,8.20829 1.30781,1.06126 2.24787,1.93229 2.78846,2.62154 0.54056,0.68923 0.66604,1.11025 0.62839,1.49242 -0.0375,0.38218 -0.29367,0.9181 -1.01131,1.67897 -0.66946,0.70979 -1.70276,1.5736 -3.08302,2.61172 v -0.17673 c 0.60237,-0.43769 1.14221,-0.85608 1.60042,-1.23713 0.43695,-0.36339 0.79247,-0.69548 1.08004,-1.01131 0.14385,-0.15793 0.27714,-0.31387 0.39274,-0.50075 0.11557,-0.18688 0.25528,-0.39929 0.25528,-0.82475 0,-0.57736 -0.20004,-0.75601 -0.35347,-0.98185 -0.15334,-0.22583 -0.33073,-0.44159 -0.54001,-0.66766 -0.41864,-0.45212 -0.95646,-0.94875 -1.56115,-1.46296 -1.2094,-1.02841 -2.64701,-2.08503 -3.82922,-2.7001 -1.3231,-0.68837 -3.20005,-1.48209 -4.90926,-2.1208 -0.85461,-0.31935 -1.66066,-0.60058 -2.33681,-0.80512 -0.67611,-0.20455 -1.1115,-0.35346 -1.70843,-0.35346 -0.37502,0 -0.79151,0.17077 -1.05058,0.43201 -0.25906,0.26124 -0.37659,0.55605 -0.44183,0.82476 -0.13043,0.53746 -0.0734,1.04715 0.0687,1.5906 0.006,0.0201 0.0204,0.7856 -0.14728,1.67897 -0.16766,0.89337 -0.45494,1.99443 -0.80512,3.09283 -0.68279,2.14171 -7.24607,3.45612 -7.24607,3.45612 -1.49521,-0.44101 -2.46676,-0.84041 -3.12229,-1.27641 -0.65555,-0.43599 -1.03463,-0.88928 -1.4335,-1.64951 -0.86852,-1.6554 -0.81615,-3.82183 0.29455,-5.96966 l 2.0128,-3.88814 -6.30349,0.70694 c -2.65243,0.29946 -4.4723,0.69117 -5.78311,1.71824 -1.31086,1.02707 -1.77715,2.65234 -1.77715,4.53616 0,1.1894 0.15963,2.23911 0.72657,3.25975 0.32194,0.3419 0.36843,1.16815 0.23564,1.38441 l -0.01,0.01 v 0.01 l -0.01,0.01 h -0.01 l -0.01,0.01 h -0.01 -0.01 -0.01 -0.01 c -0.004,-7.7e-4 -0.0256,-0.008 -0.0294,-0.01 h -0.01 l -0.01,-0.01 c -0.25074,-0.18393 -0.71301,-1.45102 -1.27641,-5.26272 -0.0778,-0.52622 -0.004,-0.95327 -0.0491,-1.34514 -0.0454,-0.39186 -0.1046,-0.79252 -0.44183,-1.20768 -0.33725,-0.41514 -0.95127,-0.59457 -1.35496,-0.57929 -0.40369,0.0152 -0.72387,0.10611 -1.08986,0.216 -1.45525,0.43695 -4.14869,1.80943 -6.97115,3.3383 -2.82247,1.52887 -5.54423,3.10822 -6.79441,4.11396 -0.37136,0.53629 -1.74178,1.29642 -2.04226,1.26659 l -0.01,-0.01 h -0.01 -0.01 v -0.01 h -0.01 v -0.01 l -0.01,-0.01 v -0.01 -0.01 -0.01 l 0.01,-0.01 v -0.01 c 0.0542,-0.15315 0.42154,-0.52178 1.31568,-1.20768 1.18214,-0.90678 2.79455,-2.04087 4.52634,-3.20084 3.46359,-2.31997 7.48639,-4.75863 9.63197,-5.75365 6.99111,-3.24209 10.27435,-3.99509 17.49661,-3.98632 z m 14.32522,22.29786 v 0.51056 c -2.03968,0.88003 -4.32707,1.75617 -6.14639,2.31717 -6.65826,2.0531 -16.60944,1.83237 -23.44663,-0.54001 l 6.85332,0.80511 c 2.68982,0.30672 7.30157,0.40904 10.46655,0.24547 4.82539,-0.24936 6.79926,-0.76138 11.58586,-3.00447 0.22543,-0.10564 0.45209,-0.21732 0.68729,-0.33383 z m -60.86686,53.18741 c 2.6183,1.37881 5.4218,2.69208 8.34574,3.91759 15.30866,6.4163 21.68835,6.58924 21.68835,6.58924 v 1.92443 c -6.36512,-0.39263 -5.82908,-0.42778 -9.29737,-1.62107 -1.13276,-0.38972 -2.27292,-0.74173 -3.21066,-1.00149 -0.46887,-0.12996 -0.88315,-0.2366 -1.23713,-0.31419 -0.33019,-0.0724 -0.55669,-0.13008 -0.88367,-0.13746 v -0.01 c -0.0374,-0.0267 -0.47277,-0.10907 -0.93276,-0.28474 -0.5888,-0.22492 -1.38908,-0.55884 -2.31717,-0.98185 -1.85615,-0.84605 -4.24871,-2.03254 -6.7846,-3.3383 -1.76709,-0.9099 -3.60387,-1.8833 -5.37073,-2.84737 z m 86.42264,1.08985 v 2.37609 c -2.73472,1.45741 -5.48119,2.67363 -8.50284,3.79976 -9.1683,3.41692 -21.56916,4.75637 -21.56916,4.8162 v -1.89497 c 10.19548,-1.2979 9.6031,-1.28874 18.27995,-3.3336 2.93346,-1.09269 7.48513,-3.35303 11.79205,-5.76348 z m -87.67757,39.686 c 0.17428,0.14037 0.26184,0.29765 0.41238,0.44183 -0.25776,-0.18262 -0.35884,-0.26976 -0.40256,-0.32401 -0.003,-0.0482 -0.007,-0.10486 -0.01,-0.11782 z"
       sodipodi:nodetypes="ccssssssssccsssscsscccccccccccccssccsscssssscssssscssccssssscccccscscsssssscscccccccccccscccccccccssssccscssssccccssssscccsscsccssssccssssssscsscsscccssccccccccccccccscscssccccccccccccccssscccsccssccsccccsccssscccccccccccccccc"
       inkscape:label="znak" /><path
       id="path4"
       style="font-size:129.522px;font-family:'New Rocker';-inkscape-font-specification:'New Rocker';letter-spacing:1.96819px;baseline-shift:baseline;white-space:pre;display:inline;overflow:visible;opacity:1;fill:none;stroke:#000000;stroke-width:0.95;stroke-dasharray:none;stroke-opacity:1;enable-background:accumulate;stop-color:#000000;stop-opacity:1"
       inkscape:label="text"
       d="m 362.8886,273.68817 7.7959,13.73611 c 0.58135,1.02492 0.99755,1.99016 1.28623,2.90628 l 0.0491,0.15709 0.0589,0.14728 c 0.36364,0.96164 0.64993,2.01563 0.84439,3.18121 l 0.0196,0.14727 0.0393,0.1571 c 0.24892,1.11904 0.41944,2.47655 0.49093,4.06486 l 0.01,0.12765 0.01,0.12763 c 0.14804,1.64427 0.22582,3.61883 0.22582,5.8813 v 6.81406 l -12.47934,4.06486 c -3.0889,1.00536 -6.21905,1.84132 -9.3865,2.51355 -3.17722,0.58588 -6.30622,1.00614 -9.38651,1.25677 l -4.49689,0.36328 -0.62838,10.604 3.19102,1.59061 c 0.20527,0.10224 0.24995,0.0381 0.54002,0.80511 l 0.0393,0.10802 0.0491,0.108 c 0.22509,0.52912 0.67747,2.60261 0.67747,5.74383 0,2.32286 -0.15873,5.16769 -0.48111,8.49302 -0.31799,3.19123 -0.79207,6.48499 -1.4335,9.87744 l -0.01,0.0589 -0.01,0.0687 c -0.50297,3.04022 -1.17752,5.92984 -1.93425,8.7385 v -4.73253 c 0,-9.74162 -0.4243,-18.27941 -1.29604,-25.67544 -0.80373,-7.54214 -2.14478,-13.33507 -5.02709,-17.78135 l -3.15174,-4.86998 -4.35943,3.69177 c -0.25729,0.21773 -1.21227,0.83224 -2.6019,1.50223 -1.51649,0.63836 -3.19368,1.28923 -5.04673,1.94407 -1.79159,0.57565 -3.62429,1.11266 -5.49837,1.61023 -1.86173,0.40772 -3.4373,0.68683 -4.62452,0.83458 l -4.57543,0.56947 v 1.78697 h -2.77865 c -3.66883,0 -6.49969,-0.6448 -8.65994,-1.70843 -2.25405,-1.24149 -4.62375,-3.18157 -7.03987,-5.96965 l -2.82773,-3.25975 -3.61323,2.23861 c -1.76614,1.09517 -4.76665,2.33074 -8.83666,3.40704 -3.81978,1.01014 -8.62169,1.57096 -14.35468,1.57096 h -1.19787 c -0.69601,-0.14711 -1.21004,-0.13745 -1.69859,-0.13746 h -6.52932 l 1.48259,6.72569 c 0.64435,2.9211 1.39128,5.42982 2.37609,7.62899 l 0.0491,0.108 0.0491,0.0982 c 1.04548,2.10119 2.28426,3.9619 3.85868,5.48855 l 0.0884,0.0884 0.0884,0.0785 c 1.5078,1.32912 3.27824,2.35289 5.17437,2.92593 l 0.19636,0.0589 0.20619,0.0491 c 1.6285,0.34453 3.31465,0.50075 5.04673,0.50074 2.73465,0 5.65424,-0.55591 9.03304,-1.52186 0.83266,-0.23806 1.58789,-0.62527 2.40553,-0.89349 v 1.75752 c -0.40192,0.15032 -0.58777,0.28184 -1.05058,0.43201 -1.66209,0.47662 -3.54822,0.93043 -5.66529,1.34514 -2.08886,0.40918 -4.31677,0.73999 -6.67659,0.99167 -2.28962,0.16495 -4.53664,0.24546 -6.73551,0.24546 -1.98355,0 -3.76502,-0.11628 -5.34127,-0.34364 l -8.91522,-1.28623 3.42666,8.79739 c 0.27395,0.70372 0.51587,1.55077 0.70693,2.543 h -5.87147 v -55.64157 c 0,-4.34563 0.27936,-8.10851 0.79529,-11.25202 0.54893,-2.857 1.42367,-4.78223 2.40554,-6.02858 l -6.2053,-8.45374 c -3.32582,1.67524 -6.40248,2.93965 -9.19995,3.8194 l -0.0196,0.01 -0.0196,0.01 c -2.59925,0.84011 -4.97274,1.22731 -7.16752,1.22731 -1.819,0 -3.21929,-0.26079 -4.21215,-0.62838 l -12.47934,-4.61471 6.18567,12.35171 c 0.66388,1.32644 1.20356,2.58564 1.62006,3.76049 0.39158,1.10456 0.68618,2.23316 0.88366,3.41684 l 0.0196,0.1571 0.0393,0.14728 c 0.25411,1.14236 0.43034,2.45759 0.50074,3.94705 0.0786,1.66239 0.11782,3.57708 0.11782,5.72419 v 52.04799 h -6.70605 c -0.22289,-3.54289 -0.33383,-7.12251 -0.33383,-10.75128 0,-7.56595 0.492,-14.05334 1.42368,-19.39158 l 1.36478,-7.80573 -7.38353,1.42368 c -0.70129,0.13488 -1.46316,0.22964 -2.25826,0.30438 h -3.8685 c -2.91999,0 -6.20008,-0.31619 -9.81852,-0.98185 -3.46699,-0.6378 -8.09987,-1.94009 -13.73611,-3.92741 l -3.03392,-1.07021 -2.26809,2.39572 c -2.37262,2.50973 -4.78603,4.59951 -7.21661,6.50967 l -0.0786,-0.0491 0.01,0.108 c -1.15554,0.90507 -2.30798,1.84836 -3.47576,2.62155 -3.63857,2.32015 -6.74645,3.61818 -9.15086,4.07468 l -8.57157,1.62988 5.0369,6.66678 c 0.0853,0.31956 0.21596,0.87894 0.35347,1.67896 0.29999,1.74524 0.58284,3.96356 0.82476,6.60787 l 0.01,0.0786 0.01,0.0884 c 0.31817,2.60837 0.55509,5.41215 0.71675,8.40465 v 0.01 c 0.0258,0.46471 0.047,0.92185 0.0687,1.3746 h -13.97177 c 0.65941,-2.77084 1.47299,-5.42909 2.435,-7.98246 1.04013,-2.55018 2.22327,-4.36166 3.4463,-5.59656 l 2.31717,-2.34662 -0.94258,-3.2303 c -0.64694,-2.22404 -1.03058,-3.84136 -1.10949,-4.30051 -0.10365,-0.60298 -0.17673,-1.34559 -0.17673,-2.21898 0,-4.69638 0.44038,-8.83038 1.24695,-12.41062 0.93003,-3.84044 2.06962,-7.14964 3.37757,-9.91671 l 0.01,-0.0196 0.01,-0.0295 c 1.36481,-2.96757 2.84669,-5.44727 4.3987,-7.46207 1.71751,-2.22966 3.30877,-4.02513 4.73253,-5.38056 l 0.0589,-0.0491 0.0491,-0.0589 c 1.50798,-1.51538 2.79601,-2.57601 3.7114,-3.1812 1.31862,-0.87176 2.27046,-1.48595 2.71974,-1.75752 l 16.93695,-10.24071 h -19.50941 c -2.59753,0 -4.95914,0.18936 -7.13807,0.62838 -1.82771,0.36825 -3.58816,0.78139 -5.27254,1.24695 -1.55126,0.3455 -3.09292,0.6953 -4.64416,1.04076 -1.18268,0.26338 -2.59137,0.41238 -4.22197,0.41238 H 128.492 c -1.17103,-0.0794 -2.46914,-0.19886 -3.87833,-0.35347 -1.30376,-0.23423 -2.6579,-0.5411 -4.06486,-0.93275 -1.223,-0.34045 -2.35423,-0.80348 -3.42666,-1.40405 l -6.65697,8.0021 c 0.92466,1.38563 1.86925,2.92257 2.81793,4.59506 l 0.0393,0.0786 0.0589,0.0883 c 0.61827,1.00616 0.79529,1.72779 0.79529,2.60191 v 1.14877 0.01 c -0.002,0.0178 -0.0122,0.0747 -0.0294,0.16691 v 0.01 L 101.5097,365.943 85.986621,297.32135 c -0.03521,-0.18114 -0.07153,-0.35647 -0.108003,-0.53021 v -0.59893 c 0,-1.16891 0.198821,-2.26473 0.638203,-3.42666 l 0.0098,-0.0393 0.01964,-0.0393 c 0.530404,-1.47277 1.164176,-2.74884 1.904793,-3.85867 l 7.255893,-10.86911 -12.39098,2.31718 c -1.335684,0.24933 -2.504237,0.45261 -3.51503,0.61856 -0.02924,0.003 -0.05916,0.007 -0.08837,0.01 -0.01898,0.003 -0.04005,0.007 -0.05891,0.01 -1.413144,0.16577 -2.797293,0.56017 -4.113961,1.12914 -1.434732,0.56681 -2.772249,1.34899 -4.094324,2.31716 l -0.07855,0.0589 -0.07855,0.0589 c -0.19348,0.1535 -0.432588,0.43367 -0.628386,0.59893 -1.245407,-0.97034 -2.58625,-1.76957 -4.084505,-2.3859 -2.051001,-0.8437 -4.34679,-1.37521 -7.000606,-1.76733 -2.860795,-0.51527 -6.176383,-0.73639 -10.113079,-0.73639 v 10.96728 c -0.169396,0 -0.27378,-0.0139 -0.304374,-0.01 v 0.01 l 0.0098,0.01 c 0.08627,0.0751 0.572251,0.36677 1.364774,1.36477 1.386848,1.74643 2.929491,4.31201 4.477246,7.66827 l 0.01964,0.0491 0.01964,0.0491 c 1.631348,3.36906 3.228922,7.35985 4.761984,11.96877 l 0.01964,0.0491 0.0098,0.0393 c 1.641495,4.68816 3.209596,9.60329 4.693255,14.74743 v 0.01 l 0.0098,0.01 c 1.479006,5.0411 2.788253,10.08542 3.937227,15.12053 l 0.0098,0.0393 0.0098,0.0491 c 1.24404,5.08826 2.323766,9.84989 3.230293,14.29576 v 0.01 0.0196 c 0.906811,4.36006 1.59927,8.16849 2.081528,11.3993 0.422092,2.82773 0.561303,4.58935 0.608747,5.75365 l -3.299023,3.48558 5.851839,3.57395 c 3.574812,2.1848 7.07669,4.67035 10.515639,7.46207 l 0.04909,0.0393 0.05891,0.0491 c 3.320304,2.5543 6.750374,5.90775 10.240724,10.10325 l 4.015765,4.84054 3.87832,-4.97799 c 2.18848,-2.81102 4.99683,-6.00371 8.41447,-9.53378 3.24363,-3.26314 6.83707,-6.16075 10.80037,-8.70904 l 2.49391,-1.60042 v -3.08301 c 0,-0.28325 -0.0988,-0.54519 -0.12764,-0.82476 v -1.17822 c 0,-1.6854 0.11511,-4.07634 0.35346,-7.03988 0.0446,-0.42151 0.0948,-0.85065 0.14729,-1.2764 h 15.70963 c -0.0726,3.86986 -0.34823,6.99683 -0.76584,9.26867 l -0.01,0.0589 -0.01,0.0687 c -0.31796,1.96196 -0.88933,2.95467 -0.91313,3.10265 l 0.01,0.01 -14.93397,13.55938 19.44068,-4.11397 c 0.094,-0.0198 0.17114,-0.0294 0.24546,-0.0294 h 0.42219 l 0.42221,-0.0687 c 0.22745,-0.0401 0.4518,-0.0589 0.66766,-0.0589 1.35182,0 3.35569,0.18313 5.87147,0.59893 2.53041,0.41823 5.06079,0.95851 7.59954,1.62988 2.53814,0.6712 4.85465,1.38464 6.95151,2.12079 1.94506,0.77291 3.19756,1.56361 3.24011,1.60043 l 3.63286,3.14192 3.31865,-3.50521 c 1.55952,-1.64963 3.32665,-3.24708 5.31183,-4.78162 l 0.0491,-0.0393 0.0491,-0.0393 c 1.96656,-1.60015 3.99324,-2.98611 6.08749,-4.17287 2.13951,-1.2124 4.25942,-2.21372 6.35258,-3.00447 2.04531,-0.77268 3.8976,-1.24371 5.54746,-1.45314 l 5.43947,-0.6873 -0.9524,-5.70456 c -0.41321,-2.47689 -0.77393,-4.98062 -1.07022,-7.50134 h 5.92057 v 7.52098 c 0,2.95851 -0.45033,5.29915 -1.20768,7.14789 -0.69889,1.70602 -1.40851,2.4408 -2.47426,3.00447 l -3.34812,1.76733 1.29605,9.5436 h 4.48706 c 3.11527,0 6.25623,-0.41306 9.39632,-1.2175 1.95364,-0.48712 3.70392,-1.20348 5.5082,-1.85569 0.24521,0.19886 0.44889,0.47471 0.70693,0.65783 1.04984,0.77226 2.1678,1.47173 3.35794,2.10117 l 0.0687,0.0393 0.0786,0.0393 c 1.1557,0.56422 2.48708,1.15426 3.96669,1.76733 h 0.01 c 1.4378,0.67597 3.28301,1.58143 5.518,2.71974 l 4.05506,2.0717 5.33145,-8.45375 -2.29754,-3.11247 c -0.34198,-0.4651 -0.51649,-0.75841 -0.83457,-1.19786 l 2.85719,0.0491 c 4.53535,0.0827 8.44621,0.61711 11.72332,1.54151 l 0.01,0.01 h 0.0196 c 3.41678,0.94284 6.46049,2.30112 9.19996,4.05505 l 3.8194,2.44482 6.85333,-8.72867 c 1.7212,2.44501 3.72026,4.53242 6.00893,6.14639 l 4.88964,3.4463 2.62154,-5.54746 c 0.29776,-0.62993 0.89405,-1.65095 1.77715,-2.89647 0.85202,-1.20168 1.81961,-2.38463 2.9161,-3.54448 1.1372,-1.20292 2.26309,-2.26453 3.35794,-3.19102 l 0.01,-0.01 0.0196,-0.01 c 1.02156,-0.87799 1.82381,-1.33199 2.24843,-1.49241 l 3.43649,-1.30586 v -9.68107 l -4.01577,-0.98184 c -0.36405,-0.0889 -0.44903,-0.17003 -0.62839,-0.25528 -0.035,-0.0807 -0.0505,-0.10389 -0.0982,-0.25529 -0.15554,-0.56506 -0.32648,-1.35874 -0.48111,-2.3368 h 9.72034 c -0.019,0.51539 -0.0514,1.09297 -0.0884,1.71823 l -0.01,0.16691 v 0.17674 c 0,1.21031 -0.0391,2.52183 -0.11782,3.93723 l -0.01,0.1571 v 0.16691 c 0,1.30673 -0.0406,2.61019 -0.11783,3.91759 -0.0819,1.29793 -0.15517,2.46403 -0.23564,3.48558 l -0.37311,4.69325 4.32997,1.08986 c 3.56085,0.9007 6.99582,2.12859 10.31927,3.68194 3.35847,1.56974 6.06932,3.18144 8.11992,4.75216 l 1.36477,1.04077 h 4.70307 l 18.27227,-14.96342 4.34961,-14.02085 h 11.88041 v 9.24904 c 0,1.91505 -0.2701,3.13375 -0.43201,3.5543 l -2.9652,1.15859 v 11.29131 h 33.54008 v -11.29131 l -2.86701,-1.11931 v -0.01 -0.01 -0.01 -0.01 c -0.002,-0.006 -0.006,-0.01 -0.01,-0.0196 -0.23022,-0.65841 -0.5302,-2.32661 -0.5302,-4.73253 V 363.0269 c 0.20077,0.11356 0.43979,0.1991 0.63821,0.3142 l 0.0589,0.0393 0.0589,0.0295 c 1.64261,0.89679 3.2605,2.03353 4.8798,3.13211 v 7.98246 c 0,1.49502 -0.0798,3.15609 -0.23565,4.96817 -0.16021,1.86428 -0.36008,3.68079 -0.59892,5.44928 -0.22581,1.67204 -0.51855,3.23546 -0.88367,4.70308 l -0.0393,0.13745 -0.0196,0.12765 c -0.29524,1.48343 -0.62096,2.65014 -0.90331,3.42666 l -1.87533,5.15472 9.02322,3.58377 2.35645,-2.49391 c 0.79134,-0.83708 1.83668,-1.78845 3.09283,-2.8081 1.38447,-1.05518 2.89048,-2.12321 4.53616,-3.20084 1.68123,-1.10089 3.40941,-2.16286 5.17436,-3.18119 1.74562,-1.00718 3.3873,-1.87793 4.92889,-2.61174 l 1.41387,-0.66765 -0.17673,0.48111 7.40316,0.13745 c 4.53535,0.0827 8.44621,0.61711 11.72332,1.54151 l 0.0196,0.01 h 0.01 c 3.41678,0.94284 6.46049,2.30112 9.19995,4.05505 l 3.81941,2.44482 6.85333,-8.72867 c 1.7212,2.445 3.73008,4.53243 6.01876,6.14639 l 4.8798,3.4463 2.63136,-5.54746 c 0.29775,-0.62991 0.89404,-1.65095 1.77716,-2.89647 0.85201,-1.20169 1.81961,-2.38463 2.9161,-3.54448 1.1372,-1.20292 2.25327,-2.26453 3.34812,-3.19102 l 0.0196,-0.01 0.01,-0.01 c 1.02156,-0.87798 1.83364,-1.33199 2.25825,-1.49241 l 3.43649,-1.30586 v -9.68107 l -4.01577,-0.98184 c -0.36405,-0.0889 -0.45886,-0.17003 -0.63821,-0.25528 -0.0339,-0.0783 -0.0522,-0.10102 -0.0982,-0.24547 -0.27531,-0.99824 -0.57671,-2.70929 -0.80512,-4.91908 -0.15086,-2.36249 -0.23564,-5.62404 -0.23564,-9.75961 0,-6.35041 0.1744,-11.12442 0.47128,-14.13868 0.34753,-2.72157 1.03101,-4.54604 1.7477,-5.63583 l 5.66528,-8.61084 h -9.9167 c -3.66884,0 -6.5095,-0.65461 -8.66975,-1.71825 -2.25405,-1.24149 -4.61396,-3.18158 -7.03007,-5.96965 l -2.82773,-3.25975 -3.61322,2.23861 c -1.76613,1.09516 -4.76666,2.33074 -8.83667,3.40704 -3.81978,1.01014 -8.63152,1.57096 -14.3645,1.57096 h -1.19785 c -0.69582,-0.14701 -1.21014,-0.13745 -1.69861,-0.13746 h -6.52932 l 1.49241,6.72569 c 0.64435,2.9211 1.3913,5.42982 2.37609,7.62899 l 0.0393,0.108 0.0589,0.0982 c 1.04548,2.10119 2.27444,3.9619 3.84886,5.48855 l 0.0884,0.0884 0.0982,0.0785 c 1.5078,1.32912 3.26841,2.35289 5.16454,2.92593 l 0.20619,0.0589 0.20619,0.0491 c 1.6285,0.34453 3.31465,0.50074 5.04672,0.50074 2.73465,0 5.65424,-0.55591 9.03304,-1.52186 0.83324,-0.23822 1.58734,-0.62506 2.40554,-0.89349 v 1.75752 c -0.40339,0.15091 -0.59564,0.28126 -1.0604,0.43201 -1.66124,0.47625 -3.53989,0.93073 -5.65547,1.34514 -2.08886,0.40918 -4.31679,0.73999 -6.6766,0.99167 -2.28963,0.16495 -4.53663,0.24546 -6.7355,0.24546 -1.98356,0 -3.77483,-0.11628 -5.3511,-0.34364 l -8.08064,-1.16841 -0.96222,-4.05505 c -0.008,-0.0327 -0.16078,-0.98078 -0.23565,-2.32699 -0.0801,-1.44055 -0.11781,-2.59624 -0.11781,-3.40703 0,-3.24006 0.35259,-5.82067 0.90329,-7.69772 l 1.69861,-5.79292 -5.61619,-1.20768 c -4.35826,-0.93911 -8.04476,-1.94935 -11.04584,-3.00448 -2.8127,-1.10428 -5.26559,-2.41422 -7.38353,-3.90777 l -3.53467,-2.4939 -3.00446,3.1812 c -0.8867,0.93795 -1.56172,1.53068 -2.36627,2.33681 v -16.04347 c 0,-5.04393 0.34204,-8.99717 0.88366,-11.68404 0.62278,-2.6762 1.486,-4.50064 2.35645,-5.62602 l -6.28385,-8.40465 c -3.56651,1.84439 -6.70308,3.13949 -9.31778,3.90777 -2.65285,0.77949 -5.00425,1.13895 -7.0497,1.13895 -2.01779,0 -3.40033,-0.2984 -4.03541,-0.55965 z m 10.82982,39.23481 v 43.44696 h -9.17049 l 6.60786,-21.31601 -2.09134,-2.36626 c -0.2452,-0.27789 -0.68792,-1.03482 -0.92295,-2.75901 -0.29945,-2.3013 -0.45165,-4.74558 -0.45165,-7.35407 v -0.0687 z m -71.0861,21.49274 4.38888,0.96222 c 0.94382,2.17288 1.90285,4.99187 2.69028,8.96431 l 0.01,0.0393 0.01,0.0393 c 0.70932,3.32285 1.19533,7.31861 1.44332,11.94914 h -10.10327 c -0.0154,-1.10488 -0.0196,-2.29367 -0.0196,-3.56412 0,-6.3459 0.1748,-11.1142 0.4713,-14.12885 0.23855,-1.87516 0.65005,-3.18536 1.10949,-4.26125 z m 97.82194,4.42816 2.88664,0.59893 -2.88664,1.23714 z m -230.75492,1.71824 c 0.49929,0.13052 0.89625,0.27576 1.42368,0.40256 l 0.0589,0.0196 0.0491,0.01 c 2.3379,0.50584 4.77129,0.76332 7.16753,1.09967 l -0.17674,26.05836 c -1.21152,-0.27626 -2.29762,-0.66476 -3.56412,-0.89349 -1.78911,-0.32311 -3.29395,-0.5115 -4.93872,-0.76584 0.0585,-1.48676 0.13659,-2.95237 0.17673,-4.45762 v -0.01 c 0.17155,-3.35939 0.25529,-6.38308 0.25529,-9.08214 0,-3.38134 -0.0823,-6.72692 -0.25529,-10.0247 v -0.01 c -0.0384,-0.74011 -0.14647,-1.58831 -0.19637,-2.34662 z m 261.98764,5.48855 3.0241,7.77627 c 0.27394,0.70369 0.51589,1.55083 0.70694,2.543 h -1.17822 l 0.0589,-0.33383 -3.15175,-1.95389 c -2.63843,-1.6417 -5.54527,-3.05794 -8.53229,-4.39869 z m -157.25346,16.7995 v 4.79144 c -0.63617,-0.0675 -1.42864,-0.2974 -2.03243,-0.32402 -0.20635,-0.009 -0.3937,-0.0386 -0.59893,-0.0491 l 0.0687,-3.8194 c 0.69169,-0.16361 1.25085,-0.19899 1.99316,-0.40256 l 0.0884,-0.0295 0.0884,-0.0196 c 0.12913,-0.0405 0.26321,-0.10607 0.39274,-0.14728 z m 191.37282,0 v 4.79144 c -0.63556,-0.0674 -1.42918,-0.29743 -2.03242,-0.32402 -0.20633,-0.009 -0.40355,-0.0385 -0.60875,-0.0491 l 0.0785,-3.8194 c 0.69188,-0.16364 1.25065,-0.19893 1.99317,-0.40256 l 0.0884,-0.0295 0.0786,-0.0196 c 0.12858,-0.0403 0.27358,-0.10617 0.40255,-0.14728 z m -227.6228,2.28772 h 6.39186 c -0.0273,2.72487 -0.097,5.4537 -0.22583,8.17883 -0.14866,3.05578 -0.60916,5.39625 -1.17823,6.96132 l -1.12912,3.11247 c -0.1069,-0.15939 -0.29117,-0.39635 -0.39274,-0.54983 l -0.0295,-0.0589 -0.0393,-0.0589 c -0.89219,-1.2808 -1.55646,-2.57837 -2.05207,-3.92742 -0.43303,-1.40196 -0.78721,-3.10486 -1.00149,-5.1449 -0.22007,-2.09515 -0.34365,-4.94632 -0.34365,-8.45375 z m 194.74058,0 h 3.0241 c -0.0277,2.72164 -0.10707,5.45693 -0.23565,8.17883 -0.14886,3.05369 -0.5996,5.39698 -1.1684,6.96132 l -0.78548,2.16008 -0.17673,-0.82475 c -0.45044,-2.17813 -0.75603,-5.85469 -0.75603,-10.69237 0,-2.21222 0.0316,-4.13276 0.0982,-5.78311 z" /></g></svg>
