<?xml version="1.0" encoding="UTF-8" standalone="no"?>
<svg
   version="1.2"
   viewBox="0 0 219.2126 219.2126"
   width="58mm"
   height="58mm"
   id="svg1"
   sodipodi:docname="BiskupRoleTokenLaser.svg"
   inkscape:version="1.4.2 (2aeb623e1d, 2025-05-12)"
   xml:space="preserve"
   xmlns:inkscape="http://www.inkscape.org/namespaces/inkscape"
   xmlns:sodipodi="http://sodipodi.sourceforge.net/DTD/sodipodi-0.dtd"
   xmlns="http://www.w3.org/2000/svg"
   xmlns:svg="http://www.w3.org/2000/svg"><sodipodi:namedview
     id="namedview1"
     pagecolor="#ffffff"
     bordercolor="#666666"
     borderopacity="1.0"
     inkscape:showpageshadow="2"
     inkscape:pageopacity="0.0"
     inkscape:pagecheckerboard="0"
     inkscape:deskcolor="#d1d1d1"
     inkscape:zoom="2.9282171"
     inkscape:cx="101.93916"
     inkscape:cy="113.03807"
     inkscape:window-width="1920"
     inkscape:window-height="1043"
     inkscape:window-x="0"
     inkscape:window-y="0"
     inkscape:window-maximized="1"
     inkscape:current-layer="layer2"
     inkscape:document-units="mm"
     showgrid="false" /><defs
     id="defs1"><clipPath
       clipPathUnits="userSpaceOnUse"
       id="cp1"><path
         d="m 275.5,535.5 c -143.78,0 -260,-116.22 -260,-260 0,-143.78 116.22,-260 260,-260 143.78,0 260,116.22 260,260 0,143.78 -116.22,260 -260,260 z"
         id="path1" /></clipPath></defs><style
     id="style1">
		tspan { white-space:pre } 
		.s0 { fill: none;stroke: #ff0000;stroke-miterlimit:100 } 
	</style><g
     inkscape:groupmode="layer"
     id="layer2"
     inkscape:label="Content"><g
       inkscape:groupmode="layer"
       id="layer4"
       inkscape:label="Kruh"
       style="display:inline"><path
         id="path2"
         style="fill:none;stroke:#000000;stroke-width:0.189192"
         d="M 219.118,109.6063 A 109.5117,109.5117 0 0 1 109.6063,219.118 109.5117,109.5117 0 0 1 0.09459686,109.6063 109.5117,109.5117 0 0 1 109.6063,0.09459686 109.5117,109.5117 0 0 1 219.118,109.6063 Z"
         inkscape:label="Vnejsi kruh" /><path
         id="circle2"
         style="fill:none;stroke:#000000;stroke-width:0.188976"
         d="M 208.69732,109.6063 A 99.091019,99.091019 0 0 1 109.6063,208.69732 99.091019,99.091019 0 0 1 10.515282,109.6063 99.091019,99.091019 0 0 1 109.6063,10.515282 99.091019,99.091019 0 0 1 208.69732,109.6063 Z"
         inkscape:label="Vnitrni kruh" /></g><path
       id="path5"
       style="font-size:41.5223px;font-family:'New Rocker';-inkscape-font-specification:'New Rocker';letter-spacing:0.769167px;baseline-shift:baseline;white-space:pre;display:inline;overflow:visible;opacity:1;fill:none;stroke:#000000;stroke-width:0.188976;stroke-dasharray:none;stroke-opacity:1;enable-background:accumulate;stop-color:#000000;stop-opacity:1"
       d="m 112.00856,123.83328 c -1.22663,0.59968 -2.30961,1.02529 -3.22841,1.28052 -0.92878,0.25798 -1.76355,0.3759 -2.5007,0.3759 -0.71694,0 -1.23255,-0.0949 -1.51571,-0.20504 l -3.69879,-1.43932 2.04237,3.4033 c 0.21075,0.35123 0.36632,0.68889 0.47441,1.01315 l 0.0121,0.0382 0.0141,0.0362 c 0.13422,0.33555 0.23916,0.70055 0.30957,1.09959 l 0.006,0.0382 0.008,0.0362 c 0.0912,0.38749 0.15369,0.84728 0.1789,1.37699 l 0.002,0.0342 0.004,0.0302 c 0.0518,0.54357 0.0784,1.18808 0.0784,1.92378 v 16.91395 h -3.32892 c 0.009,-1.54877 0.0514,-2.74288 0.12062,-3.55003 l 0.13669,-1.58204 -1.58405,0.11056 c -1.23312,0.086 -2.31236,0.1725 -3.23846,0.25931 -0.93351,0.0875 -1.7839,0.19064 -2.556992,0.30957 h -0.004 -0.004 c -0.740865,0.11855 -1.429443,0.25439 -2.066501,0.40607 h -0.008 l -0.006,0.002 c -0.03834,0.009 -0.07434,0.0244 -0.112572,0.0342 -0.02137,-0.48361 -0.03819,-0.96781 -0.03819,-1.45138 v -0.70557 c 0.450776,0.1614 0.901474,0.3198 1.352876,0.46235 l 0.008,0.006 0.01005,0.002 c 0.623527,0.18705 1.238789,0.33038 1.845379,0.42616 0.59572,0.0941 1.14654,0.14474 1.66446,0.14474 1.22173,0 2.3921,-0.37307 3.30078,-1.12371 l 0.0141,-0.0121 0.0121,-0.0121 c 0.88663,-0.77098 1.5513,-1.84621 2.11474,-3.19222 l 0.72972,-1.74487 -1.88558,-0.13468 c -3.46262,-0.24931 -5.99887,-0.83747 -7.516209,-1.60817 l -0.562861,-0.28747 -0.582962,0.24725 c -1.850055,0.78488 -3.378714,1.35307 -4.55515,1.70065 -1.151682,0.34027 -2.192114,0.49853 -3.119855,0.49853 H 82.42823 l 0.621157,1.80317 c 0.249769,0.72432 0.430867,1.52551 0.534718,2.40824 l 0.002,0.0181 0.002,0.0201 c 0.129902,0.88334 0.199012,1.94639 0.199012,3.17815 0,0.5175 -0.01234,1.11218 -0.04021,1.78106 -0.01738,0.39903 -0.05281,0.92972 -0.106541,1.58605 H 79.857163 V 138.9099 l -1.479519,-2.46854 -0.976964,0.24323 c -0.190285,0.0476 -0.386694,0.0958 -0.588994,0.14474 v -1.85744 l 0.08242,-0.16484 c 0.427166,-0.85432 0.909788,-1.51752 1.433284,-2.01825 v -0.002 h 0.002 c 0.622829,-0.59688 1.397117,-1.22683 2.3218,-1.87955 l 1.742858,-1.23025 -1.85342,-1.05938 c -0.150602,-0.0861 -0.436815,-0.26233 -0.802076,-0.49652 -0.352204,-0.27022 -0.726828,-0.55139 -1.125721,-0.84429 l -0.01608,-0.0121 c -0.0073,-0.005 -0.01278,-0.0107 -0.0201,-0.0161 -0.359161,-0.28284 -0.705496,-0.56466 -1.039282,-0.8463 l -0.006,-0.006 c -0.299214,-0.27501 -0.506465,-0.50107 -0.595024,-0.61914 l -0.697546,-0.93074 -1.027221,0.54678 c -1.017163,0.54248 -1.93287,1.29918 -2.739924,2.23536 l -0.002,0.002 -0.002,0.002 c -0.731443,0.85336 -1.36269,1.7291 -1.891614,2.63137 l -0.574921,0.981 0.862382,0.73774 c 0.231801,0.19869 0.529572,0.4366 0.910628,0.72971 0.366374,0.28183 0.746306,0.57776 1.141803,0.88852 0.374157,0.29398 0.719077,0.58644 1.033251,0.87444 l 0.04422,0.0382 0.04623,0.0362 c 0.329017,0.25309 0.545624,0.46068 0.609095,0.53473 l 0.36787,0.42817 v 1.73482 c -0.224476,0.0504 -0.454341,0.10114 -0.689505,0.15278 -0.003,6.6e-4 -0.0051,9.8e-4 -0.008,0.002 -1.135588,0.22105 -2.18756,0.40153 -3.147999,0.53874 l -1.165925,0.16684 v 2.54092 l 1.58003,0.68347 v 8.45697 h -4.350108 c -0.0046,-0.18663 -0.006,-0.36852 -0.006,-0.54678 0,-1.95533 0.326883,-3.67801 0.962894,-5.20445 l 0.265349,-0.63321 -0.948822,-1.58003 -0.898567,0.13468 c -0.494274,0.0741 -1.040088,0.11258 -1.636316,0.11258 -0.361275,0 -0.709004,-0.0476 -1.065415,-0.0643 0.830232,-0.46948 1.620192,-0.89565 2.175054,-1.12171 l 1.157885,-0.47239 -0.3739,-1.19206 c -0.265441,-0.84941 -0.446522,-1.64469 -0.548789,-2.38612 -0.106085,-0.79759 -0.158807,-1.56253 -0.158807,-2.29367 v -0.73372 c 0.0121,-0.1202 0.0241,-0.22905 0.03618,-0.34375 0.159078,-0.17016 0.374627,-0.28875 0.492504,-0.48447 0.229642,-0.36389 0.428464,-0.74566 0.595024,-1.14179 0.185927,-0.40597 0.33378,-0.80838 0.440237,-1.21418 l 0.01608,-0.0503 c 0.105145,-0.34065 0.196525,-0.62777 0.27339,-0.85836 l 0.695534,-2.08661 -2.175053,0.31159 c -0.371941,0.0531 -0.728956,0.0925 -1.067425,0.1186 -0.33322,0.0256 -0.68279,0.0382 -1.049334,0.0382 -0.906964,0 -1.901946,-0.11413 -2.98115,-0.34977 -1.086152,-0.27225 -2.114196,-0.58312 -3.083672,-0.93274 l -0.002,-0.002 h -0.002 c -8.49e-4,-1.6e-4 -0.0052,-0.002 -0.006,-0.002 h -0.002 c -0.946141,-0.35192 -1.772561,-0.71286 -2.476587,-1.07747 -0.0024,-0.001 -0.0057,-0.003 -0.008,-0.004 -0.673939,-0.36556 -1.119574,-0.69543 -1.161905,-0.73776 l -0.852332,-0.85232 -0.946812,0.74378 c -1.097229,0.86211 -2.128423,1.42916 -3.077641,1.73884 -0.967755,0.29647 -2.021224,0.45028 -3.178152,0.45028 -0.792386,0 -1.600407,-0.0525 -2.426331,-0.15881 h -0.006 c -0.84217,-0.11233 -1.712996,-0.23925 -2.613282,-0.37993 l -1.732806,-0.27137 0.170868,1.74486 c 0.158369,1.61537 0.566477,2.97033 1.423233,3.99029 l 0.01005,0.012 0.01005,0.0121 c 0.587125,0.66719 1.423212,1.04143 2.243401,1.42525 0.161331,0.58169 0.314707,1.19034 0.426166,1.90368 0.130792,0.83706 0.197001,1.72099 0.197001,2.65348 0,0.93761 -0.09216,1.87593 -0.275399,2.81832 l -0.002,0.0181 -0.004,0.0181 c -0.147136,0.88282 -0.424096,1.68445 -0.834239,2.43236 l -0.341737,0.62517 0.317614,0.63523 c 0.06956,0.1391 0.178749,0.43905 0.27741,0.85837 l 0.01206,0.0462 0.01407,0.0482 c 0.12515,0.40049 0.2435,0.86773 0.349778,1.39912 l 0.002,0.006 v 0.008 c 0.103572,0.49195 0.182901,0.99876 0.235195,1.52173 0.05342,0.53413 0.0784,1.00389 0.0784,1.40314 10e-7,0.57056 -0.07287,1.21784 -0.227154,1.93784 l -0.004,0.0181 -0.002,0.0181 c -0.120693,0.65174 -0.325953,1.27493 -0.617137,1.88157 l -0.008,0.0201 -0.01005,0.0221 c -0.260378,0.59176 -0.587783,1.10871 -0.978976,1.57198 -0.332538,0.36764 -0.667687,0.58428 -1.079486,0.7096 l -1.537814,0.46839 1.139792,2.27958 0.74378,0.0744 c 1.086097,0.10862 2.204516,0.28415 3.35505,0.53069 1.141895,0.2447 2.255607,0.55689 3.34098,0.93677 l 0.004,0.002 0.006,0.002 c 1.095689,0.37414 2.132461,0.82804 3.115835,1.35891 0.999259,0.55245 1.914863,1.19331 2.751986,1.92578 l 0.956862,0.83625 0.898567,-0.89856 c 0.852872,-0.85287 1.787761,-1.55619 2.814303,-2.12078 1.071092,-0.5891 2.13219,-1.05319 3.184182,-1.39509 l 0.01005,-0.002 0.008,-0.004 c 1.115384,-0.38085 2.16632,-0.66258 3.147999,-0.84831 l 0.01809,-0.002 0.01608,-0.004 c 1.04211,-0.22532 1.953625,-0.40816 2.729874,-0.54678 l 1.955939,-0.34977 -1.035261,-1.69461 c -0.255562,-0.4182 -0.48691,-0.9149 -0.687494,-1.49158 -0.210614,-0.60552 -0.396702,-1.24077 -0.556829,-1.90569 -0.105184,-0.52948 -0.193625,-1.05936 -0.265349,-1.58807 h 4.227485 v 3.72694 c 0,2.01474 0.576655,3.8784 1.718735,5.42356 l 0.408073,0.55081 h 1.097578 l 0.190971,-0.0583 c 0.836153,-0.25085 1.642698,-0.4735 2.418291,-0.66739 0.753443,-0.18836 1.568543,-0.35163 2.444423,-0.48849 l 1.147833,-0.17891 v -2.74796 l -0.864394,-0.32164 c -0.01252,-0.0229 -0.0399,-0.0786 -0.08443,-0.19901 -0.104104,-0.28146 -0.205043,-0.85397 -0.205043,-1.6544 v -3.38521 h 3.622411 l -0.124634,1.32674 0.02412,-0.006 c -0.379698,0.60445 -0.759551,1.20319 -1.017169,1.97604 l -0.004,0.0121 -0.004,0.0121 c -0.314469,1.0063 -0.506492,2.0129 -0.570902,3.0113 l -0.08845,1.36896 1.368957,0.0744 c 1.023199,0.0553 1.896529,0.13765 2.60926,0.24324 l 0.02613,0.004 0.02412,0.004 c 0.707051,0.0785 1.298625,0.1932 1.76698,0.3337 l 0.03216,0.0101 0.03015,0.008 c 0.476788,0.1192 0.844848,0.26595 1.107629,0.41612 l 0.01809,0.01 0.01608,0.0101 c 0.33197,0.17705 0.621476,0.38139 0.876453,0.61512 l 0.806097,0.73976 0.894546,-0.63121 c 0.37328,-0.26348 0.878823,-0.53526 1.515703,-0.79 0.645577,-0.25825 1.353433,-0.48169 2.122783,-0.6674 0.77282,-0.18655 1.59145,-0.33412 2.45649,-0.44225 0.85813,-0.10727 1.70004,-0.16082 2.52482,-0.16082 h 1.68457 l -0.35781,-1.64636 c -0.11215,-0.51599 -0.21418,-1.42373 -0.26938,-2.6354 v -0.002 c -0.0427,-0.96153 -0.0702,-2.0269 -0.0804,-3.19423 h 3.32691 v 3.76915 c 0,0.65605 -0.095,1.10695 -0.18092,1.31066 -0.043,0.10187 -0.0629,0.14107 -0.0724,0.15278 h -0.002 v 0.002 h -0.002 -0.002 -0.002 v -0.002 h -0.002 v -0.002 h -0.002 -0.002 l -0.8865,0.32967 v 2.94497 h 10.57977 v -2.94497 l -0.8644,-0.32164 c -0.0125,-0.0229 -0.0399,-0.0786 -0.0844,-0.19901 -0.1041,-0.28146 -0.20504,-0.85397 -0.20504,-1.6544 v -3.88978 c 0.263,0.13138 0.55786,0.2416 0.81012,0.37993 l 0.0141,0.008 0.0161,0.008 c 0.63132,0.32584 1.25148,0.72937 1.87151,1.13577 v 2.78616 c 0,0.49369 -0.0267,1.03658 -0.0804,1.62827 -0.055,0.60462 -0.12298,1.1946 -0.20503,1.76899 -0.0786,0.55049 -0.18347,1.06905 -0.31159,1.55591 l -0.008,0.0322 -0.008,0.0322 c -0.10332,0.4908 -0.21521,0.88319 -0.32163,1.1599 l -0.49251,1.27849 2.44442,0.91666 0.61714,-0.61714 c 0.28399,-0.28398 0.64829,-0.60124 1.08552,-0.93676 0.48113,-0.3471 1.00617,-0.69657 1.57601,-1.04933 0.57684,-0.35709 1.16773,-0.70109 1.773,-1.03124 0.60022,-0.32739 1.16689,-0.61013 1.70065,-0.85032 l 1.00511,-0.4523 -0.2352,-1.07748 c -0.16347,-0.74721 -0.26736,-1.94348 -0.26736,-3.51184 0,-0.77153 0.0158,-1.43909 0.0422,-2.00419 0.0213,-0.21797 0.0453,-0.43695 0.0744,-0.65533 h 2.62333 c -0.0244,0.35215 -0.0532,0.69506 -0.0865,1.02722 -0.0826,0.82646 -0.17802,1.51764 -0.28142,2.06048 l -0.006,0.0322 -0.004,0.0301 c -0.0523,0.36613 -0.16935,0.65703 -0.17087,0.70156 v 0.002 h 0.002 0.002 0.002 l 0.002,-0.002 c 0.0118,-0.011 0.0368,-0.0461 0.0784,-0.10855 l -0.81615,1.22623 1.28654,0.71363 c 0.4923,0.27351 0.92395,0.53093 1.29257,0.7679 l 0.0462,0.0302 0.0503,0.0261 c 0.37482,0.19992 0.73595,0.42431 1.08752,0.67543 l 0.0181,0.0121 0.0181,0.0141 c 0.37519,0.25014 0.75754,0.54196 1.14582,0.87847 l 0.0362,0.0322 0.0382,0.0281 c 0.41239,0.30929 0.89785,0.71137 1.44535,1.20411 l 0.95887,0.86238 0.91063,-0.91062 c 0.43491,-0.43491 0.85304,-0.84116 1.25839,-1.2202 l 0.006,-0.004 c 0.41663,-0.36424 0.86248,-0.71757 1.33479,-1.05937 0.50355,-0.34411 1.04887,-0.69236 1.63832,-1.0413 0.23532,-0.133 0.55949,-0.29214 0.8242,-0.43421 0.14761,0.41215 0.1995,0.89599 0.41209,1.26041 l 0.01,0.0181 0.0101,0.0181 c 0.53881,0.86211 1.31705,1.68097 2.32581,2.53688 l 1.36293,1.15789 0.7478,-1.62425 c 0.10985,-0.23801 0.30574,-0.55254 0.59704,-0.91666 l 0.0141,-0.0161 0.0121,-0.0181 c 0.30114,-0.40152 0.64256,-0.79333 1.02722,-1.17799 0.38468,-0.38467 0.77849,-0.72809 1.18,-1.02923 0.40152,-0.30113 0.74299,-0.50574 0.99305,-0.62116 l 0.79002,-0.36586 v -2.43638 l -1.07346,-0.23117 c -0.19045,-0.0409 -0.26437,-0.0917 -0.32365,-0.13871 v -0.002 c -0.005,-0.0125 -0.0987,-0.14232 -0.19097,-0.47441 -0.0926,-0.33344 -0.17799,-0.83901 -0.23318,-1.48354 h 3.86966 v 12.5739 c 0,1.41186 -0.10988,2.636 -0.3156,3.66463 l -0.002,0.0161 -0.004,0.0161 c -0.16953,0.96868 -0.47625,1.64214 -0.85836,2.10067 l 1.62626,2.09465 c 1.1442,-0.54485 2.19349,-0.95916 3.13794,-1.24834 0.94843,-0.28197 1.81398,-0.4141 2.60324,-0.4141 0.65186,0 1.17002,0.0867 1.55992,0.22312 l 3.27063,1.14382 -1.62024,-3.06156 c -0.23237,-0.43892 -0.42283,-0.8575 -0.5709,-1.25236 l -0.004,-0.0141 -0.006,-0.0121 c -0.13035,-0.32587 -0.23417,-0.70141 -0.30555,-1.12974 l -0.002,-0.006 v -0.006 c -0.0765,-0.43328 -0.14173,-0.91772 -0.19499,-1.44132 -0.0261,-0.50508 -0.0422,-1.11336 -0.0422,-1.82729 v -2.70374 c 0.24047,0.0488 0.50746,0.069 0.73775,0.12866 l 0.006,0.002 0.006,0.002 c 0.72021,0.18005 1.49491,0.44041 2.3238,0.78801 l 0.68951,0.28947 0.61311,-0.42617 c 1.25612,-0.87382 2.50272,-1.60493 3.74102,-2.19716 l 0.006,-0.002 0.006,-0.004 c 1.24117,-0.60738 2.43071,-1.00321 3.57215,-1.20614 l 1.87352,-0.33369 -0.92469,-1.66446 c -0.0422,-0.076 -0.12819,-0.29561 -0.195,-0.62317 -0.0715,-0.38339 -0.1387,-0.92615 -0.19298,-1.60414 -0.0545,-0.67997 -0.0966,-1.51213 -0.12463,-2.49268 -0.028,-0.97983 -0.0422,-2.13618 -0.0422,-3.46561 0,-1.0588 0.0267,-2.10281 0.0824,-3.13192 v -0.002 c 0.0515,-0.97834 0.22154,-2.027 0.51462,-3.14599 l 0.33972,-1.2986 -1.29257,-0.3558 c -0.69649,-0.19214 -1.39193,-0.49526 -2.09263,-0.92068 -0.68232,-0.41427 -1.32453,-0.94241 -1.9298,-1.59813 l -0.53472,-0.57894 -0.76791,0.1769 c -0.78136,0.18031 -1.57489,0.4061 -2.37808,0.67342 -0.004,0.001 -0.008,0.003 -0.0121,0.004 -0.76755,0.2373 -1.5327,0.51645 -2.29567,0.83826 h -0.002 l -0.002,0.002 h -0.002 c -0.75073,0.3005 -1.47584,0.63234 -2.17104,0.99505 -0.2377,0.12402 -0.4231,0.25265 -0.64528,0.37792 -0.18748,-0.30556 -0.31707,-0.62078 -0.53874,-0.92068 -0.56495,-0.76434 -1.22076,-1.4082 -1.96397,-1.90367 l -1.28051,-0.85435 -0.6875,1.377 c -0.11694,0.23389 -0.33196,0.57665 -0.64126,0.98903 -0.30114,0.40151 -0.64255,0.79331 -1.02721,1.17799 -0.38681,0.3868 -0.78498,0.74554 -1.19407,1.07948 -0.3791,0.28242 -0.69487,0.45916 -0.89656,0.53673 l -0.87043,0.33571 v 2.40623 l 0.95887,0.2955 c 0.20196,0.0622 0.28789,0.12706 0.33572,0.17489 l 0.0603,0.0583 0.0201,0.0201 v 0.002 l 0.002,0.002 c 0.008,0.023 0.0928,0.14804 0.16283,0.4141 l 0.01,0.0422 0.0141,0.0402 c 0.10413,0.31232 0.2223,0.97033 0.2754,1.87352 v 0.002 c 0.0475,0.78337 0.0743,1.82572 0.0804,3.11382 h -3.95209 c -0.0117,-0.49978 -0.0181,-1.05271 -0.0181,-1.65842 v -12.28243 l -1.966,0.983 c -0.84956,0.42479 -1.90543,0.79496 -3.16408,1.08953 h -0.002 -0.004 c -1.2338,0.29504 -2.49388,0.48417 -3.78523,0.56488 l -1.27448,0.0784 v 2.87663 l 1.00912,0.26735 c 0.29485,0.0786 0.43045,0.17412 0.43824,0.18092 l 0.0663,0.0583 0.0704,0.0462 0.002,0.002 v 0.002 h 0.002 c 0.0123,0.0143 0.042,0.0585 0.0844,0.16885 0.0611,0.15905 0.14248,0.53313 0.16685,1.06944 l 0.002,0.0301 0.002,0.0322 c 0.0513,0.56393 0.0804,1.32752 0.0804,2.26954 v 5.77736 l -2.557,1.11969 -0.62317,-0.47642 v -7.95844 -1.92378 c 0.0254,-0.50262 0.0388,-0.97123 0.0402,-1.41117 0.0274,-0.43875 0.055,-0.84813 0.0824,-1.23227 0.0564,-0.39797 0.1113,-0.8282 0.16685,-1.3006 l 0.28344,-2.40824 -2.20118,1.01515 c -0.28377,0.13098 -0.73821,0.30097 -1.31871,0.48648 -0.59832,0.16268 -1.25247,0.32785 -1.96598,0.49251 -0.70794,0.16335 -1.41522,0.31358 -2.12279,0.45028 h -0.002 -0.002 -0.002 -0.002 c -0.71647,0.11012 -1.36025,0.19361 -1.92377,0.24726 l -1.1217,0.10654 -0.22113,2.44241 0.73172,0.43822 c 0.28272,0.16963 0.46821,0.34818 0.60709,0.5488 l 0.0342,0.0503 0.0382,0.0462 c 0.14472,0.17366 0.30177,0.4514 0.43219,0.86439 0.12835,0.40651 0.23208,0.96352 0.28344,1.65642 l 0.002,0.0281 0.002,0.0281 c 0.0773,0.66984 0.1206,1.50475 0.1206,2.49267 0,0.83974 -0.0261,1.72012 -0.0764,2.64142 h -2.39618 l 0.0221,-0.1206 -0.8242,-0.48648 c -1.02989,-0.60583 -2.14329,-1.14623 -3.33695,-1.62425 l -0.004,-0.002 c -0.13363,-0.0547 -0.32612,-0.0821 -0.46435,-0.13468 l 3.9159,-1.48153 -0.2935,-1.17195 c -0.0149,-0.0599 -0.0643,-0.37437 -0.0905,-0.81816 -0.0275,-0.46721 -0.0402,-0.84542 -0.0402,-1.11768 0,-1.06872 0.12094,-1.936 0.32364,-2.58916 l 0.44426,-1.43328 -1.47148,-0.29953 c -1.48915,-0.30334 -2.75316,-0.63211 -3.79126,-0.97696 -0.98696,-0.36505 -1.8537,-0.79958 -2.60524,-1.30061 l -0.92671,-0.61714 -0.78801,0.78599 c -0.5554,0.55541 -1.02315,0.97676 -1.48555,1.39107 v -6.07084 c 0,-1.64046 0.11556,-2.93421 0.30958,-3.83952 0.22163,-0.90201 0.53616,-1.54718 0.88047,-1.968 z m -59.14257,9.73951 c 0.727409,0.24699 1.426302,0.5728 2.187115,0.72166 h 0.004 0.002 c 0.995358,0.19061 2.176688,0.24249 3.332939,0.31359 -0.01531,0.23183 -0.03417,0.46214 -0.03417,0.70358 v 1.3569 l 0.002,0.0322 c 0.01265,0.26561 0.0254,0.41868 0.03819,0.63724 -0.881418,0.68152 -1.793741,1.31364 -2.826364,1.77502 l -0.004,0.002 -0.006,0.002 c -0.766483,0.34992 -1.784551,0.61073 -2.735904,0.89455 v -1.40916 -3.41937 c 0,-0.52973 0.02764,-1.07379 0.0402,-1.61018 z m 59.6009,9.88825 2.76606,0.55079 -2.76606,1.11969 z m 49.39906,1.07144 c -0.0196,0.29577 -0.0388,0.55226 -0.0583,0.8644 v 0.0221 l -0.002,0.0201 c -0.0289,0.92583 -0.0422,1.85227 -0.0422,2.77812 v 3.09573 0.0181 c 0.0191,0.7079 0.0558,1.19142 0.0884,1.72276 -0.30574,0.17191 -0.59265,0.29967 -0.9247,0.52064 -0.001,5.2e-4 -0.003,0.001 -0.004,0.002 l -0.002,0.002 h -0.002 l -0.002,0.002 -0.002,0.002 c -0.34719,0.22607 -0.5926,0.4428 -0.87645,0.66137 -0.405,-0.12882 -0.79103,-0.2641 -1.24633,-0.37793 -0.25656,-0.0641 -0.44712,-0.0713 -0.68147,-0.1186 v -8.05895 c 0.13723,-0.0627 0.20331,-0.11257 0.3739,-0.17892 l 0.0302,-0.0121 0.0302,-0.0141 c 0.44884,-0.19948 0.94402,-0.37741 1.48756,-0.53271 0.55449,-0.15843 1.12264,-0.29182 1.70667,-0.39802 l 0.0241,-0.004 0.0221,-0.004 c 0.0295,-0.006 0.0512,-0.006 0.0804,-0.0121 z m -109.259278,2.31175 c 0.22642,0.0453 0.502665,0.0917 0.709607,0.1367 l 0.02814,0.006 0.02814,0.004 c 0.614356,0.10686 1.212345,0.24054 1.797133,0.40004 l 0.008,0.002 0.008,0.002 c 0.624266,0.16285 1.264842,0.35394 1.921768,0.57291 l 0.03015,0.0101 0.03216,0.008 c 0.438313,0.12273 1.00568,0.29346 1.535805,0.45029 0.04179,0.88309 0.08284,1.7651 0.124634,2.66354 v 0.0161 0.0161 c 0.05957,0.8539 0.154823,1.5296 0.243236,2.23536 -0.604186,0.25954 -1.247345,0.52029 -1.728786,0.77997 -0.510907,0.25615 -1.045783,0.63335 -1.576009,0.98701 -0.09882,-0.0557 -0.173585,-0.10785 -0.279421,-0.16483 -0.406959,-0.21914 -0.829672,-0.42077 -1.264425,-0.6071 -0.397969,-0.17055 -0.796436,-0.32589 -1.19608,-0.47039 l -0.03417,-0.0141 c -0.104457,-0.0445 -0.186354,-0.0667 -0.285451,-0.10654 -0.06926,-0.4885 -0.148245,-0.99908 -0.182929,-1.40917 -0.02678,-0.65382 -0.04221,-1.3929 -0.04221,-2.22129 0,-0.71604 0.01468,-1.5073 0.04221,-2.36803 0.02153,-0.33211 0.05484,-0.61417 0.08041,-0.92872 z m 39.985211,4.133 v 0.18897 c 0,0.77938 -0.04103,1.5272 -0.120612,2.24339 -0.02457,0.21248 -0.08025,0.49195 -0.112572,0.72167 -1.474435,-0.62725 -2.994629,-1.28227 -4.032494,-1.64234 -0.718283,-0.2492 -1.167091,-0.25704 -1.734817,-0.394 1.032619,-0.24932 2.052844,-0.50582 3.188203,-0.70157 l 0.01005,-0.002 0.01206,-0.002 c 1.06945,-0.20283 1.904232,-0.29613 2.790179,-0.4121 z"
       inkscape:label="text" /><path
       id="path3"
       style="opacity:1;fill:none;stroke:#000000;stroke-width:0.18033486;stroke-dasharray:none;stroke-opacity:1;baseline-shift:baseline;display:inline;overflow:visible;enable-background:accumulate;stop-color:#000000;stop-opacity:1"
       inkscape:label="znak"
       d="M 107.02724 22.70359 C 105.53467 22.803634 104.78324 23.249541 103.16915 24.371702 C 101.01701 25.867918 100.15234 29.120018 100.55422 31.454189 C 100.84432 33.139142 101.64405 34.765284 102.89889 35.908701 C 101.74316 37.130361 100.41165 38.225869 99.051984 39.83389 C 93.590595 46.292911 87.99945 52.839966 84.249586 60.749593 C 82.886742 63.624257 79.651561 69.632523 79.651561 69.632523 L 80.262892 73.179358 C 80.709461 75.774534 81.941575 77.899511 82.605704 79.883491 C 84.784686 86.392825 87.395273 93.046331 91.114007 98.886922 C 92.357169 100.83941 93.708096 103.82778 96.107161 105.90418 C 97.828894 107.39434 100.25808 108.48846 102.81316 109.13416 C 105.08857 109.70918 107.27384 109.83233 109.60675 110.08471 L 112.18441 109.66721 C 112.46879 109.66421 112.76476 109.69196 113.03431 109.65976 C 114.02593 109.54265 114.98941 109.28895 115.33984 109.22176 C 118.98562 108.52294 125.01732 107.9551 128.19642 104.15033 C 132.1242 99.449521 133.83882 93.232114 136.16981 88.33588 C 137.18241 86.208923 139.30481 83.488058 139.59922 80.23016 C 139.75938 78.457853 140.12746 76.109655 140.12295 75.071127 L 139.54517 72.364872 L 137.74659 67.092146 C 137.74659 67.092146 130.53134 49.709997 124.37747 41.949317 C 122.64227 39.76104 120.6512 37.63199 118.6071 35.742822 C 118.37136 35.52495 118.01889 35.112378 117.50932 34.704678 C 116.99975 34.296978 116.22045 33.858819 115.27088 33.90883 C 114.9335 33.9266 114.67026 34.041936 114.38557 34.132488 C 114.59017 33.788434 114.76994 33.623783 114.93539 33.159578 C 115.801 30.730932 115.08393 27.091514 114.19546 26.21874 C 113.30699 25.345966 111.31992 23.08508 108.82582 22.707318 C 108.1045 22.676273 107.52476 22.670242 107.02724 22.70359 z M 109.53779 26.451717 L 110.67472 29.554964 L 109.75213 31.877275 C 108.21594 31.756116 106.71295 31.364427 105.86795 30.678843 C 104.85337 29.855675 104.41356 29.007095 105.29576 26.925125 L 105.40758 26.6586 L 109.53779 26.451717 z M 103.0275 41.85799 C 103.33368 42.000403 103.58458 42.207887 103.94076 42.331398 C 104.73497 42.606808 105.64354 42.833107 106.5706 42.963231 C 107.49767 43.093354 108.43707 43.136791 109.34396 42.976278 C 109.90525 42.876938 110.46794 42.614654 110.97666 42.241935 C 111.54823 42.077107 112.10333 42.164102 112.85165 42.57183 C 113.60616 42.982924 114.46475 43.729259 115.29511 44.642526 C 116.95583 46.46906 118.48325 48.887357 119.67134 50.474395 C 123.86607 56.077733 127.58599 62.054925 131.17852 68.126562 C 132.61957 70.562051 134.80247 73.748125 135.0422 75.751419 C 135.1285 76.770781 134.76284 77.725071 134.41596 78.664558 L 128.50208 90.730879 L 127.54968 92.98982 L 124.83037 97.468561 L 120.51565 98.452654 L 116.38358 98.672584 L 110.01679 96.439736 C 109.01401 95.932059 108.01363 95.660358 107.4671 95.371772 C 107.00621 95.128405 106.53752 94.895073 106.06365 94.670978 L 106.06365 83.26631 C 106.34615 83.2407 106.62789 83.191193 106.90982 83.111614 C 107.60152 82.916369 108.39829 82.482261 108.77922 81.60379 C 109.37838 80.222005 109.14977 78.846865 108.95628 77.540679 C 108.7628 76.234492 108.51554 74.956841 108.51456 74.346104 C 108.51156 72.467817 108.53999 70.84541 108.84818 69.291445 C 108.84818 69.291445 112.67377 69.262226 112.98398 69.242986 L 114.52908 68.954095 L 114.52908 61.728094 C 114.52908 61.728094 108.55826 61.618598 108.41578 61.534258 C 108.2479 61.434858 108.18851 61.360552 108.13621 60.829737 C 108.08391 60.298922 108.16807 59.470283 108.28345 58.580115 C 108.39883 57.689948 108.54571 56.744035 108.46796 55.760167 C 108.39026 54.776298 107.92539 53.533091 106.79426 52.956993 C 105.87235 52.487449 105.03735 52.220123 104.17933 52.250608 C 102.86824 52.297178 101.80296 53.339032 101.41343 54.339942 C 101.0239 55.340852 100.9614 56.387908 100.93257 57.428279 C 100.90377 58.468651 100.93671 59.500669 100.91021 60.315324 C 100.88791 61.001909 100.73328 61.545184 100.73687 61.619993 L 100.73687 61.621857 L 100.73687 61.623721 L 100.73687 61.625584 C 100.71847 61.631984 100.6832 61.642597 100.612 61.660997 C 100.4292 61.708217 100.06323 61.737421 99.614856 61.741141 C 98.718099 61.748541 97.421195 61.548355 96.166803 62.458709 C 95.021585 63.289842 94.870341 64.57025 94.837905 65.545182 C 94.805465 66.520114 94.919912 67.443574 94.919912 67.856309 L 94.919912 69.291445 L 96.353184 69.291445 C 97.139491 69.291533 98.276567 69.186021 99.325965 69.211301 C 99.850664 69.223941 100.33837 69.273249 100.63809 69.345495 C 100.72439 69.366305 100.78794 69.391309 100.83006 69.410729 C 100.86596 69.556587 100.92652 69.860326 100.92512 70.245717 C 100.92312 70.794256 100.84684 71.438075 100.84684 72.090891 C 100.84684 74.575855 100.42417 77.98745 101.31279 80.953319 C 101.58184 81.851289 102.23941 82.340625 102.85975 82.662435 C 103.34746 82.915444 103.86648 83.079248 104.39926 83.176847 L 104.39926 93.919862 C 101.29012 92.568934 98.13408 91.422521 95.807087 89.703918 C 93.716929 88.160342 92.333038 85.92222 90.925762 83.478785 C 88.602719 79.154778 86.046155 75.748171 84.918695 70.98565 C 88.237735 63.498018 90.704552 57.259965 95.516332 50.634683 C 97.655179 47.689729 100.58374 45.031996 103.0275 41.85799 z M 100.75365 61.610674 L 100.75551 61.610674 L 100.75551 61.612538 L 100.75551 61.614402 L 100.75551 61.618129 L 100.75365 61.618129 L 100.75365 61.619993 L 100.75178 61.619993 L 100.74992 61.621857 L 100.74805 61.621857 L 100.74619 61.621857 C 100.74819 61.619557 100.75065 61.614674 100.75365 61.610674 z "
       transform="matrix(1.0479193,0,0,1.0479193,-9.8121584,-3.5434833)" /></g></svg>
