<?xml version="1.0" encoding="UTF-8" standalone="no"?>
<svg
   version="1.2"
   viewBox="0 0 219.2126 219.2126"
   width="58mm"
   height="58mm"
   id="svg1"
   sodipodi:docname="DiteMesiceRoleTokenLaser.svg"
   inkscape:version="1.4.2 (2aeb623e1d, 2025-05-12)"
   xml:space="preserve"
   xmlns:inkscape="http://www.inkscape.org/namespaces/inkscape"
   xmlns:sodipodi="http://sodipodi.sourceforge.net/DTD/sodipodi-0.dtd"
   xmlns="http://www.w3.org/2000/svg"
   xmlns:svg="http://www.w3.org/2000/svg"><sodipodi:namedview
     id="namedview1"
     pagecolor="#ffffff"
     bordercolor="#666666"
     borderopacity="1.0"
     inkscape:showpageshadow="2"
     inkscape:pageopacity="0.0"
     inkscape:pagecheckerboard="0"
     inkscape:deskcolor="#d1d1d1"
     inkscape:zoom="2.4026416"
     inkscape:cx="29.1346"
     inkscape:cy="135.05968"
     inkscape:window-width="1920"
     inkscape:window-height="940"
     inkscape:window-x="0"
     inkscape:window-y="0"
     inkscape:window-maximized="1"
     inkscape:current-layer="layer2"
     inkscape:document-units="mm"
     showgrid="false" /><defs
     id="defs1"><clipPath
       clipPathUnits="userSpaceOnUse"
       id="cp1"><path
         d="m 275.5,535.5 c -143.78,0 -260,-116.22 -260,-260 0,-143.78 116.22,-260 260,-260 143.78,0 260,116.22 260,260 0,143.78 -116.22,260 -260,260 z"
         id="path1" /></clipPath></defs><style
     id="style1">
		tspan { white-space:pre } 
		.s0 { fill: none;stroke: #ff0000;stroke-miterlimit:100 } 
	</style><g
     inkscape:groupmode="layer"
     id="layer2"
     inkscape:label="Content"><g
       inkscape:groupmode="layer"
       id="layer4"
       inkscape:label="Kruh"
       style="display:inline"><path
         id="path2"
         style="fill:none;stroke:#000000;stroke-width:0.189192"
         d="M 219.118,109.6063 A 109.5117,109.5117 0 0 1 109.6063,219.118 109.5117,109.5117 0 0 1 0.09459686,109.6063 109.5117,109.5117 0 0 1 109.6063,0.09459686 109.5117,109.5117 0 0 1 219.118,109.6063 Z"
         inkscape:label="Vnejsi kruh" /><path
         id="circle2"
         style="fill:none;stroke:#000000;stroke-width:0.188976"
         d="M 208.69732,109.6063 A 99.091019,99.091019 0 0 1 109.6063,208.69732 99.091019,99.091019 0 0 1 10.515282,109.6063 99.091019,99.091019 0 0 1 109.6063,10.515282 99.091019,99.091019 0 0 1 208.69732,109.6063 Z"
         inkscape:label="Vnitrni kruh" /></g><path
       id="path7"
       style="font-size:41.5223px;font-family:'New Rocker';-inkscape-font-specification:'New Rocker';letter-spacing:0.769167px;baseline-shift:baseline;white-space:pre;display:inline;overflow:visible;opacity:1;fill:none;fill-opacity:1;stroke:#000000;stroke-width:0.188976;stroke-dasharray:none;stroke-opacity:1;enable-background:accumulate;stop-color:#000000;stop-opacity:1"
       d="M 57.646484 100.52148 L 56.691406 102.43164 C 56.464126 102.88618 56.162412 103.42375 55.789062 104.03711 L 55.779297 104.05469 L 55.767578 104.07422 C 55.421988 104.68566 55.048997 105.29791 54.648437 105.91211 L 54.644531 105.91797 L 54.640625 105.92578 C 54.255165 106.5315 53.884674 107.10845 53.527344 107.6582 L 53.513672 107.67773 L 53.501953 107.69922 C 53.168113 108.25563 52.903438 108.70096 52.705078 109.04102 L 52.130859 110.02539 L 53.019531 110.73633 C 53.387271 111.03053 53.628987 111.27577 53.716797 111.38867 L 53.767578 111.45312 L 53.824219 111.51172 C 54.104009 111.79151 54.459685 112.09908 54.921875 112.47461 L 55.845703 113.22461 L 56.6875 112.38281 C 56.7785 112.29181 56.87013 112.20119 56.96289 112.10937 L 56.96289 114.42969 C 56.70834 114.48709 56.446754 114.54447 56.177734 114.60352 C 55.073614 114.81849 54.05287 114.99356 53.11914 115.12695 L 51.984375 115.28906 L 51.984375 117.75586 L 53.521484 118.42187 L 53.521484 127.44922 L 49.234375 127.44922 C 49.246675 127.15638 49.263203 126.8466 49.283203 126.52148 L 49.283203 126.51562 C 49.362503 125.67034 49.467909 124.80955 49.599609 123.93555 L 49.601562 123.92187 C 49.761992 123.04066 49.935474 122.20141 50.121094 121.4043 C 50.325584 120.61457 50.550948 119.9899 50.767578 119.55664 L 50.996094 119.09961 L 50.859375 118.60937 C 50.469275 117.21618 50.118487 116.05544 49.804687 115.11328 L 49.800781 115.10156 C 49.504151 114.18416 49.24905 113.33728 49.035156 112.5625 L 49.033203 112.55273 C 48.824062 111.76748 48.640875 110.95468 48.482422 110.11328 C 48.354701 109.26635 48.248594 108.19418 48.167969 106.91797 L 48.1875 105.96094 L 47.191406 105.69141 C 45.920388 105.34718 44.647392 104.90956 43.36914 104.37695 C 42.084283 103.8416 41.044806 103.32673 40.269531 102.85156 L 39.849609 102.59375 L 39.363281 102.67383 C 38.231456 102.86247 37.099733 103.01138 35.96875 103.11914 L 35.966797 103.11914 C 34.835832 103.19964 33.623275 103.26612 32.328125 103.32031 C 31.001154 103.34801 29.549267 103.3766 27.972656 103.4043 L 18.794922 103.4043 L 21.925781 105.77539 C 22.818401 106.45161 23.540259 107.04089 24.080078 107.5293 L 24.089844 107.53906 L 24.101562 107.54883 C 24.627019 108.00264 25.000172 108.44299 25.244141 108.84961 L 25.265625 108.88281 L 25.287109 108.91602 C 25.551347 109.30221 25.72999 109.71498 25.833984 110.19336 C 25.945402 110.70588 26.011719 111.38021 26.011719 112.19727 C 26.011719 112.90007 25.998053 113.6898 25.970703 114.56445 C 25.944363 115.37893 25.878113 116.17978 25.773437 116.96484 L 25.771484 116.98437 L 25.769531 117.00391 C 25.693601 117.7379 25.568658 118.40791 25.398437 119.01758 C 25.240665 119.55464 25.049255 119.87311 24.947266 119.98437 L 24.220703 120.77734 L 24.849609 121.64844 C 25.105495 122.00275 25.319768 122.45063 25.478516 123.01758 L 25.488281 123.04883 L 25.498047 123.07812 C 25.689936 123.65378 25.823451 124.25572 25.896484 124.88867 L 25.898437 124.91406 L 25.902344 124.9375 C 26.003403 125.59438 26.052734 126.23382 26.052734 126.85547 L 26.052734 126.88086 L 26.054687 126.9082 C 26.081807 127.5862 26.095703 128.19102 26.095703 128.72266 C 26.095703 129.01232 26.002923 129.42775 25.736328 129.96094 L 25.730469 129.9707 L 25.726562 129.98047 C 25.460432 130.53693 25.130088 131.08756 24.734375 131.63281 C 24.333059 132.15828 23.92294 132.62819 23.507812 133.04492 C 23.08952 133.4365 19.419501 136.1373 19.298828 136.20312 L 23.261719 136.23047 C 26.55959 136.23047 29.644572 136.42193 32.513672 136.80078 L 32.515625 136.80078 C 35.377872 137.20295 37.862786 137.86847 39.970703 138.7793 L 40.908203 139.18555 L 41.535156 138.37891 C 42.655881 136.93798 43.780811 135.72401 44.898437 134.73633 L 44.904297 134.73047 L 44.910156 134.72461 C 45.927469 133.80194 47.079247 133.23116 48.46289 132.96875 L 49.919922 132.69141 L 49.476562 131.27734 C 49.367282 130.92764 49.289327 130.54676 49.242187 130.13477 C 49.225787 129.82732 49.214484 129.51359 49.208984 129.19336 L 53.521484 129.19336 L 53.521484 132.00391 C 53.521484 133.96142 54.081756 135.77216 55.191406 137.27344 L 55.58789 137.80859 L 56.654297 137.80859 L 56.839844 137.75195 C 57.652254 137.50823 58.435893 137.29192 59.189453 137.10352 C 59.921493 136.92051 60.713453 136.76188 61.564453 136.62891 L 62.679687 136.45508 L 62.679687 133.7832 L 61.839844 133.47266 C 61.827644 133.45036 61.801012 133.39616 61.757812 133.2793 C 61.656672 133.00583 61.558594 132.44956 61.558594 131.67187 L 61.558594 129.19336 L 66.166015 129.19336 L 66.166015 135.31055 L 66.894531 135.67578 C 67.317751 135.88738 67.861528 136.17198 68.517578 136.52734 C 69.162718 136.87679 69.794609 137.23936 70.412109 137.61523 L 71.246094 138.12305 L 71.974609 137.47461 C 72.137569 137.32976 72.432847 137.1113 72.835937 136.85937 C 73.241117 136.60614 73.675382 136.36445 74.138672 136.13281 L 74.164062 136.11914 L 74.189453 136.10547 C 74.662323 135.84277 75.147667 135.59268 75.648437 135.35547 C 76.139307 135.12296 76.596768 134.93369 77.017578 134.78516 L 77.898437 134.47461 L 77.898437 131.70703 L 76.648437 131.64062 C 75.884657 131.60042 75.367064 131.36593 74.865234 130.86719 C 74.555124 130.53948 74.313112 130.02529 74.232422 129.19336 L 79.974609 129.19336 C 79.944009 129.51726 79.906808 129.83814 79.861328 130.15625 L 79.859375 130.17578 L 79.857422 130.19727 C 79.780522 130.8892 79.665335 131.53476 79.515625 132.13477 L 79.515625 132.13672 L 79.513672 132.13867 L 79.513672 132.14062 C 79.369632 132.68709 79.205043 133.07647 79.089843 133.26367 L 77.851562 135.27539 L 80.21289 135.27539 C 80.58895 135.27539 81.146027 135.3321 81.841797 135.46094 L 81.845703 135.46094 L 81.849609 135.46289 C 82.567409 135.59106 83.30264 135.76991 84.05664 136.00391 L 84.082031 136.01172 L 84.109375 136.02148 C 84.879845 136.22694 85.620117 136.48228 86.335937 136.78906 L 86.33789 136.78906 L 86.339843 136.79102 L 86.341797 136.79297 L 86.34375 136.79297 L 86.345703 136.79297 L 88.96289 138.13672 L 91.339843 136.88086 C 91.819623 136.71004 92.297633 136.53808 92.808593 136.38086 L 92.830078 136.375 L 92.851562 136.36523 C 93.514172 136.13587 94.174448 135.95811 94.830078 135.83203 L 94.853515 135.82812 L 94.876953 135.82227 C 95.559313 135.66477 96.134367 135.56509 96.585937 135.51758 L 98.273437 135.33984 L 97.6875 133.74805 C 97.52581 133.30917 97.41322 132.87784 97.34375 132.45117 C 97.29765 131.97163 97.269531 131.28059 97.269531 130.38477 L 97.269531 129.4707 C 97.269531 129.17518 97.28204 128.87988 97.30664 128.58398 L 97.466797 126.6582 L 95.615234 127.20898 C 94.182014 127.63589 93.038472 128.19538 92.232422 129.08203 L 92.222656 129.09375 L 92.210937 129.10742 C 91.807487 129.57458 91.677968 130.20207 91.449218 130.77734 C 91.278398 130.76174 91.153547 130.75357 90.960937 130.73437 C 90.435367 130.65567 89.895633 130.57869 89.345703 130.5 L 89.328125 130.49609 C 88.766045 130.38892 88.231929 130.28249 87.724609 130.17578 L 87.710937 130.17187 C 87.669537 130.16287 87.654934 130.15198 87.615234 130.14258 C 87.647834 129.82397 87.67409 129.55707 87.71289 129.19531 C 87.76059 128.75049 87.77654 128.29255 87.80664 127.83984 C 89.13095 127.63018 90.461843 127.42498 91.839843 127.25 L 91.849609 127.25 L 91.859375 127.24805 C 93.578145 127.00251 95.268507 126.81194 96.929687 126.67578 L 98.671875 126.5332 L 98.058593 124.89648 C 97.920013 124.52693 97.780793 124.0554 97.652343 123.49023 C 97.524273 122.92675 97.42176 122.33304 97.34375 121.70898 C 97.26305 121.06382 97.194415 120.41836 97.140625 119.77344 L 97.140625 119.76953 C 97.087825 119.10846 97.0625 118.507 97.0625 117.96875 C 97.0625 117.27023 97.104502 116.71106 97.169922 116.31836 L 97.416015 114.83203 L 95.912109 114.78125 C 94.308089 114.72685 92.68901 114.63177 91.05664 114.49609 C 91.04764 114.49523 91.043756 114.49519 91.035156 114.49414 C 90.801596 114.47074 90.574122 114.44637 90.351562 114.42187 L 90.351562 111.91406 C 91.972652 110.19292 93.227403 108.84958 94.126953 107.87305 L 94.138672 107.85937 C 95.126582 106.81654 95.818074 106.08485 96.208984 105.66602 L 97.18164 104.625 L 96.068359 103.73437 C 95.675489 103.42007 95.385776 103.16507 95.222656 103.00195 C 94.981756 102.76105 94.655705 102.44988 94.234375 102.05664 L 93.404297 101.28125 L 92.515625 101.98633 C 91.861575 102.50412 91.149842 103.05168 90.382812 103.62695 C 89.904832 103.98098 89.456653 104.30388 89.001953 104.63477 C 88.522313 104.29891 88.048622 103.9711 87.544922 103.61133 L 87.542968 103.61133 L 87.542968 103.60937 L 87.542968 103.60742 L 87.541015 103.60742 C 86.790985 103.04433 86.106573 102.50822 85.496093 102.00391 L 84.630859 101.28906 L 83.787109 102.02734 C 83.332479 102.42514 82.986902 102.74161 82.726562 103.00195 C 82.577242 103.15128 82.284269 103.41796 81.880859 103.76758 L 80.810547 104.69531 L 81.8125 105.69922 C 82.76802 106.65475 83.766743 107.69426 84.808593 108.81836 L 84.820312 108.83008 L 84.832031 108.8418 C 85.888491 109.92534 86.934127 111.07787 87.966797 112.30078 L 88.607422 113.06055 L 88.607422 114.20312 C 88.009782 114.11762 87.467555 114.02787 86.984375 113.93359 L 86.294922 113.79883 L 85.798828 114.29492 C 84.887748 115.206 83.978328 115.94777 83.074218 116.52539 L 83.066406 116.5293 L 83.058593 116.5332 C 82.238353 117.07221 81.334687 117.43532 80.304687 117.62695 L 79.490234 117.77734 C 79.563634 117.69254 79.623308 117.58456 79.699218 117.50391 L 80.058593 117.12305 L 80.058593 115.11328 L 74.203125 115.11328 L 74.203125 114.23242 C 74.203125 114.03216 74.21694 113.6212 74.24414 113.04883 L 74.24414 113.04687 C 74.27084 112.46006 74.311834 111.85813 74.365234 111.24219 L 74.365234 111.24023 L 74.365234 111.23828 C 74.365194 111.23746 74.365244 111.23342 74.365234 111.23242 C 74.445234 110.59432 74.525829 109.99303 74.605469 109.43555 C 74.681069 108.9065 74.779783 108.53978 74.814453 108.45312 L 76.160156 105.0918 L 72.966797 106.79883 C 71.813847 107.41552 70.737937 107.91944 69.742187 108.3125 C 68.827837 108.67343 67.815996 108.89573 66.691406 108.9707 L 64.169922 109.13867 L 65.646484 110.98437 L 65.644531 110.98437 L 65.644531 110.98633 L 65.644531 110.98828 C 65.648531 111.01338 65.731037 111.17639 65.773437 111.40234 L 65.77539 111.41016 L 65.77539 111.41797 C 65.84849 111.78342 65.912884 112.2154 65.964844 112.70898 L 65.966797 112.71289 L 65.966797 112.7168 C 66.019497 113.19107 66.057704 113.66473 66.083984 114.13867 L 66.08789 114.17969 L 66.091797 114.2207 C 66.144397 114.66743 66.166015 114.99205 66.166015 115.10352 L 66.166015 115.72656 C 65.322765 116.41496 64.468563 117.01202 63.564453 117.36133 L 62.71875 117.6875 L 62.71875 120.36914 L 66.166015 120.36914 L 66.166015 127.44922 L 61.558594 127.44922 L 61.558594 116.06641 L 60.121094 113.66992 L 59.171875 113.90625 C 59.020915 113.94395 58.865731 113.98285 58.707031 114.02148 L 58.707031 110.44141 C 59.168941 110.02248 59.614949 109.61958 60.042969 109.23437 C 60.575819 108.7548 61.062567 108.34669 61.498047 108.01367 L 61.515625 108 L 61.535156 107.98437 C 61.988946 107.61067 62.333752 107.35041 62.507812 107.23437 L 64.285156 106.04883 L 62.429687 104.99023 C 62.283347 104.90663 62.0053 104.73341 61.65039 104.50586 C 61.30791 104.2431 60.94455 103.97037 60.55664 103.68555 C 60.1897 103.39724 59.837857 103.10929 59.498047 102.82227 C 59.214387 102.56049 59.012504 102.34154 58.927734 102.22852 L 57.646484 100.52148 z M 40.298828 110.25 C 40.37375 110.70719 40.423372 111.11832 40.529297 111.63281 L 40.53125 111.63672 L 40.53125 111.64062 C 40.729753 112.57643 40.956434 113.52488 41.210937 114.48633 L 41.21289 114.49219 L 41.214844 114.49609 C 41.465758 115.41611 41.715545 116.3084 41.966797 117.17383 L 41.96875 117.17969 L 41.970703 117.18555 C 42.173173 117.86045 42.345362 118.38653 42.515625 118.89258 C 42.296739 119.40668 42.08124 119.89976 41.910156 120.60547 L 41.90625 120.625 L 41.902344 120.64258 C 41.703119 121.58179 41.518851 122.5883 41.349609 123.66016 L 41.347656 123.67383 L 41.345703 123.68945 C 41.204167 124.73681 41.090813 125.78426 41.005859 126.83203 C 40.946679 127.54289 40.934335 128.05344 40.916015 128.58984 C 40.366849 128.88386 39.80887 129.1544 39.300781 129.55664 C 38.798659 129.95415 38.452612 130.44926 38.070312 130.92187 C 37.87971 130.89107 37.722493 130.86833 37.503906 130.83203 C 37.044396 130.72415 36.572548 130.61551 36.087891 130.50781 C 35.601337 130.39968 35.12899 130.29152 34.669922 130.18359 C 34.609792 130.16859 34.584082 130.15903 34.527344 130.14453 C 34.398776 128.42068 34.284412 126.71894 34.214844 125.0957 C 34.160184 123.149 34.132812 121.29857 34.132812 119.54687 C 34.132812 117.72656 34.146288 116.01878 34.173828 114.42187 L 34.173828 114.41992 C 34.195068 113.16636 34.232071 112.13431 34.269531 111.11523 C 34.632409 111.02123 34.968037 110.91146 35.369141 110.83984 L 35.386719 110.83594 L 35.404297 110.83203 C 36.167274 110.67417 36.914127 110.55678 37.644531 110.47852 L 37.666016 110.47656 L 37.685547 110.47461 C 38.454227 110.36857 39.14647 110.30288 39.759765 110.27734 L 39.785156 110.27734 L 39.810547 110.27539 C 40.015175 110.25899 40.11919 110.26119 40.298828 110.25 z M 79.009765 118.4082 L 79.283203 119.30859 C 79.449053 119.85352 79.637792 120.70134 79.826172 121.80469 L 79.828125 121.82227 L 79.832031 121.83984 C 80.028181 122.82058 80.138672 124.14451 80.138672 125.77539 C 80.138672 126.28369 80.120937 126.84221 80.085937 127.44922 L 74.203125 127.44922 L 74.203125 120.87695 L 77.824218 121.33594 L 78.109375 120.19922 C 78.212535 119.78659 78.396205 119.33543 78.671875 118.84961 C 78.77437 118.6851 78.900691 118.56106 79.009765 118.4082 z M 87.634765 120.63477 C 87.908945 120.68737 88.155953 120.76429 88.439453 120.80859 L 88.460937 120.8125 L 88.484375 120.81641 C 88.961165 120.87421 89.315948 120.8748 89.730468 120.9043 C 89.752268 121.17485 89.748756 121.45214 89.785156 121.71875 L 89.789062 121.74805 L 89.792968 121.77539 C 89.826768 121.96128 89.871873 122.12906 89.908203 122.31055 L 87.816406 122.82812 C 87.793006 122.51757 87.786559 122.24369 87.755859 121.91602 C 87.732059 121.54075 87.672455 121.0531 87.634765 120.63477 z M 130.20312 141.48047 L 129.24805 143.38867 C 129.02078 143.84322 128.72101 144.38273 128.34766 144.99609 L 128.33594 145.01367 L 128.32422 145.0332 C 127.97862 145.64463 127.60565 146.2569 127.20508 146.87109 L 127.20117 146.87695 L 127.19727 146.88281 C 126.81182 147.48853 126.44131 148.06745 126.08398 148.61719 L 126.07031 148.63672 L 126.05859 148.65625 C 125.72475 149.21265 125.46008 149.65995 125.26172 150 L 124.6875 150.98437 L 125.57617 151.69531 C 125.94391 151.98951 126.18563 152.23476 126.27344 152.34766 L 126.32422 152.41211 L 126.38086 152.4707 C 126.66063 152.75048 127.01634 153.05806 127.47852 153.43359 L 128.40234 154.18359 L 129.24414 153.3418 C 129.32564 153.2603 129.40726 153.17791 129.49023 153.0957 L 129.49023 155.39453 C 129.24476 155.44983 128.99325 155.50567 128.73437 155.5625 C 127.63025 155.77746 126.60952 155.95255 125.67578 156.08594 L 124.54102 156.24609 L 124.54102 158.71484 L 126.07812 159.38086 L 126.07812 169.06445 L 122.88477 169.06445 C 122.88277 168.8047 122.88281 168.53934 122.88281 168.26953 C 122.88281 166.43456 122.92501 165.0459 123.00195 164.14844 L 123.13477 162.61133 L 121.5957 162.71875 C 120.3976 162.80235 119.35097 162.88634 118.45117 162.9707 C 117.54415 163.0557 116.71598 163.15397 115.96484 163.26953 L 115.96094 163.27148 L 115.95703 163.27148 C 115.2372 163.38665 114.56818 163.51669 113.94922 163.66406 L 113.94141 163.66602 L 113.93555 163.66797 C 113.89825 163.67697 113.86334 163.69167 113.82617 163.70117 C 113.80547 163.23128 113.78906 162.76085 113.78906 162.29102 L 113.78906 161.60547 C 114.22687 161.76223 114.6651 161.91625 115.10352 162.05469 L 115.11328 162.06055 L 115.12109 162.0625 C 115.72691 162.24426 116.32468 162.3835 116.91406 162.47656 C 117.49286 162.56796 118.02804 162.61719 118.53125 162.61719 C 119.71827 162.61719 120.85737 162.25472 121.74023 161.52539 L 121.75195 161.51367 L 121.76562 161.50195 C 122.62708 160.75286 123.27092 159.70816 123.81836 158.40039 L 124.52734 156.70508 L 122.69531 156.57422 C 119.33103 156.33199 116.86682 155.75859 115.39258 155.00977 L 114.8457 154.73242 L 114.2793 154.97266 C 112.48179 155.73524 110.99655 156.28728 109.85352 156.625 C 108.73455 156.9556 107.72367 157.10937 106.82227 157.10937 L 104.9707 157.10937 L 105.57422 158.85937 C 105.8169 159.56313 105.99284 160.34155 106.09375 161.19922 L 106.0957 161.21875 L 106.09766 161.23828 C 106.22388 162.09653 106.29102 163.12938 106.29102 164.32617 C 106.29102 164.82897 106.27905 165.40674 106.25195 166.05664 C 106.22595 166.65269 106.15846 167.55058 106.04883 168.72852 L 106.01758 169.06445 L 103.13086 169.06445 L 103.25195 167.61719 L 101.40039 168.16797 C 99.967174 168.59488 98.823618 169.15437 98.017578 170.04102 L 98.007812 170.05273 L 97.996093 170.06445 C 97.592476 170.5318 97.463153 171.16081 97.234375 171.73633 C 97.065203 171.72083 96.940554 171.71236 96.75 171.69336 C 96.223236 171.61446 95.682091 171.53786 95.130859 171.45898 L 95.113281 171.45508 C 94.551851 171.34804 94.016564 171.24136 93.509765 171.13477 L 93.501953 171.13281 L 93.5 171.13281 L 93.498047 171.13281 L 93.496093 171.13281 L 93.49414 171.13086 C 93.45353 171.12186 93.43934 171.11076 93.40039 171.10156 C 93.43302 170.78294 93.459287 170.51607 93.498047 170.1543 C 93.545707 169.70949 93.561697 169.25155 93.591797 168.79883 C 94.916107 168.58918 96.247001 168.38397 97.625 168.20898 L 97.634765 168.20898 L 97.644531 168.20703 C 99.363307 167.96149 101.05366 167.77093 102.71484 167.63477 L 104.45703 167.49219 L 103.84375 165.85547 C 103.70517 165.48591 103.56595 165.01439 103.4375 164.44922 C 103.30943 163.88574 103.20495 163.29202 103.12695 162.66797 C 103.04635 162.02276 102.97962 161.37739 102.92578 160.73242 L 102.92578 160.72852 C 102.87298 160.06744 102.84766 159.466 102.84766 158.92773 C 102.84766 158.22921 102.88765 157.67005 102.95312 157.27734 L 103.20117 155.79102 L 101.69727 155.74023 C 100.09325 155.68583 98.474168 155.59076 96.841797 155.45508 C 96.833197 155.45423 96.828852 155.45417 96.820312 155.45312 C 96.742932 155.44512 96.666025 155.43759 96.589843 155.42969 L 96.589843 152.39062 C 97.993303 150.89864 99.098349 149.71542 99.912109 148.83203 L 99.923828 148.81836 C 100.91172 147.77553 101.60323 147.04383 101.99414 146.625 L 102.9668 145.58398 L 101.85352 144.69336 C 101.46065 144.37905 101.17094 144.12407 101.00781 143.96094 C 100.76691 143.72005 100.44086 143.40887 100.01953 143.01562 L 99.189453 142.24023 L 98.300781 142.94531 C 97.646725 143.4631 96.935003 144.00871 96.167968 144.58398 C 95.689653 144.93827 95.242123 145.26263 94.787109 145.59375 C 94.314329 145.26269 93.847731 144.93827 93.351562 144.58398 C 92.59056 144.01324 91.899248 143.47341 91.28125 142.96289 L 90.416015 142.24805 L 89.572265 142.98633 C 89.117641 143.38413 88.772057 143.7006 88.511718 143.96094 C 88.362391 144.11027 88.069424 144.37694 87.666015 144.72656 L 86.595703 145.6543 L 87.597656 146.65625 C 88.553178 147.61177 89.551899 148.65324 90.59375 149.77734 L 90.605468 149.78906 L 90.617187 149.80078 C 91.673643 150.88433 92.719282 152.03687 93.751953 153.25977 L 94.705078 154.39062 L 94.845703 154.24219 L 94.845703 155.22461 C 94.065699 155.12086 93.372256 155.01019 92.769531 154.89258 L 92.080078 154.75781 L 91.583984 155.25391 C 90.672904 156.16499 89.763479 156.90675 88.859375 157.48437 L 88.851562 157.48828 L 88.84375 157.49219 C 88.023514 158.03121 87.119844 158.39432 86.089843 158.58594 L 84.638672 158.85547 L 85.068359 160.26758 C 85.234207 160.81252 85.42295 161.65836 85.611328 162.76172 L 85.613281 162.78125 L 85.617187 162.79883 C 85.813336 163.77958 85.923828 165.1035 85.923828 166.73437 C 85.923828 167.36207 85.89739 168.06591 85.84375 168.84375 L 85.841797 168.86719 L 85.841797 168.88867 C 85.839797 168.94717 85.838437 169.00613 85.835937 169.06445 L 80.474609 169.06445 C 80.455169 168.8047 80.445312 168.53946 80.445312 168.26953 C 80.445312 167.07176 80.619793 165.87457 80.972656 164.66211 C 81.366301 163.4059 81.791932 162.38205 82.226562 161.60937 L 82.578125 160.98633 L 82.248047 160.35352 C 81.583831 159.07823 81.08885 157.91123 80.757812 156.86719 C 80.433458 155.84423 80.279297 154.88772 80.279297 153.98633 C 80.279297 153.18026 80.318236 152.40501 80.394531 151.6582 C 80.493791 150.91916 80.653378 150.22707 80.86914 149.57422 C 81.099235 148.95727 81.417763 148.37208 81.83789 147.81055 C 82.269077 147.2432 82.842015 146.69692 83.578125 146.18164 L 82.617187 143.79687 C 81.724338 143.93639 80.791102 144.09072 79.816406 144.25781 C 78.861822 144.39409 77.882037 144.52771 76.873047 144.66406 C 75.876822 144.77145 74.87895 144.86442 73.882812 144.94531 C 73.881662 144.9454 73.876875 144.94691 73.875 144.94727 L 73.873047 144.94727 L 73.871094 144.94727 L 73.86914 144.94727 C 72.880713 145.00007 71.932789 145.02734 71.029297 145.02734 L 70.488281 145.02734 C 70.468761 145.02734 70.408581 145.02234 70.310547 144.99414 L 69.099609 147.27344 C 69.701587 147.77911 70.157974 148.30041 70.490234 148.83203 L 70.501953 148.84766 L 70.511719 148.86328 C 70.798773 149.29386 71.057438 149.91671 71.310547 150.56055 L 65.785156 161.78125 L 58.972656 150.03906 C 58.985556 149.88969 58.990574 149.74993 59.027344 149.57031 C 59.117394 149.26368 59.224834 148.96859 59.355469 148.68555 C 59.491729 148.39032 59.636869 148.12676 59.787109 147.88672 C 59.939126 147.68308 60.085669 147.52864 60.21289 147.42969 L 63.826172 144.61914 L 59.271484 145.07422 C 59.037989 145.09752 58.80511 145.10937 58.572265 145.10937 L 57.783203 145.10937 C 56.667494 145.10937 55.656567 145.05617 54.75 144.95312 C 53.79875 144.81707 52.915612 144.68222 52.103515 144.54687 L 52.111328 144.54687 C 51.325684 144.41141 50.596338 144.29106 49.914062 144.18164 L 49.912109 144.18164 L 49.910156 144.18164 L 49.908203 144.18164 C 49.174431 144.02911 48.480147 143.94727 47.818359 143.94727 C 47.356972 143.94727 46.910011 143.99866 46.482422 144.12695 L 43.910156 144.90039 L 46.09375 146.46484 C 47.644129 147.57595 48.787267 148.75745 49.564453 149.99609 L 49.572265 150.00977 L 49.582031 150.02148 C 50.355142 151.19286 50.732422 152.47284 50.732422 153.98633 C 50.732422 155.74346 50.13843 157.87538 48.847656 160.35156 L 48.486328 161.04492 L 48.919922 161.69531 C 49.509192 162.57922 49.914356 163.47615 50.152344 164.4043 L 50.15625 164.41992 L 50.160156 164.43555 C 50.431051 165.396 50.566406 166.39205 50.566406 167.43945 C 50.566406 168.56781 50.417361 169.68126 50.115234 170.78906 L 50.111328 170.80078 L 50.107422 170.81445 C 49.824608 171.94571 49.427251 173.05277 48.910156 174.13867 L 48.90625 174.14453 L 48.904297 174.15234 C 48.412952 175.21261 47.831932 176.20341 47.162109 177.13086 L 47.158203 177.13867 L 47.152344 177.14453 C 46.476657 178.10608 45.755999 178.95507 44.990234 179.69531 L 46.294922 181.90625 C 47.434357 181.55566 48.448246 181.15547 49.33789 180.69531 C 50.206638 180.24596 50.984503 179.74266 51.671875 179.18164 C 52.376986 178.62843 52.989794 178.01853 53.501953 177.34961 C 53.694875 177.12098 53.848015 176.8477 54.027344 176.60352 C 54.189362 176.72932 54.394129 176.89765 54.541015 177.00781 L 54.55664 177.01953 L 54.572265 177.03125 C 55.079374 177.38921 55.566692 177.6943 56.041015 177.94727 L 56.05664 177.95508 L 56.072265 177.96484 C 56.554522 178.20597 57.039293 178.41854 57.527344 178.60156 L 57.539062 178.60742 L 57.550781 178.61133 C 58.059668 178.79094 58.630187 178.96591 59.263672 179.13867 L 63.308594 180.24219 L 60.623047 177.02148 C 60.107853 176.40325 59.679517 175.80802 59.332031 175.23828 C 59.009614 174.68338 58.73188 174.02873 58.509765 173.26367 C 58.290531 172.50852 58.122352 171.57474 58.017578 170.47461 C 57.912663 169.373 57.857422 167.96912 57.857422 166.28125 L 57.857422 164.91602 L 63.544922 174.90625 L 65.8125 175.30664 L 71.826172 163.80664 L 71.826172 166.28125 C 71.826172 167.13956 71.799744 167.99699 71.746094 168.85547 L 71.74414 168.87695 L 71.74414 168.89844 C 71.71823 169.72762 71.641414 170.49285 71.515625 171.19727 L 71.511719 171.2207 L 71.507812 171.24414 C 71.411712 171.91688 71.245869 172.5054 71.021484 173.02148 L 71.011719 173.04297 L 71.003906 173.06641 C 70.818372 173.54055 70.591817 173.8574 70.326172 174.08984 L 68.673828 175.53516 L 70.724609 176.31641 C 71.186243 176.49226 71.669583 176.7545 72.171875 177.11328 L 72.189453 177.125 L 72.207031 177.13672 C 72.728004 177.48403 73.208861 177.86631 73.652344 178.28516 C 74.088 178.69661 74.435472 179.10731 74.705078 179.51172 L 74.71875 179.53125 L 74.734375 179.55273 C 75.039374 179.97504 75.218851 180.32647 75.298828 180.56641 L 76.345703 183.70898 L 77.746093 180.70703 C 77.878075 180.42421 78.10634 180.06702 78.441406 179.66016 C 78.78512 179.24279 79.187434 178.81785 79.642578 178.38672 C 80.08988 177.99017 80.575283 177.61387 81.103515 177.26172 L 81.121093 177.25 L 81.138672 177.23828 C 81.674829 176.85531 82.203503 176.52789 82.726562 176.25391 L 84.05664 175.55664 L 83.636718 176.23828 L 85.998047 176.23828 C 86.37411 176.23828 86.931186 176.29498 87.626953 176.42383 L 87.630859 176.42383 L 87.634765 176.42383 C 88.352567 176.55201 89.087794 176.7328 89.841797 176.9668 L 89.867187 176.97461 L 89.892578 176.98242 C 90.663053 177.18788 91.405271 177.44322 92.121093 177.75 C 92.82471 178.05155 93.388884 178.36898 93.810547 178.67969 L 94.160156 178.9375 L 95.015625 178.9375 L 95.361328 178.68945 C 95.635377 178.49369 96.070088 178.2531 96.634765 178.00586 C 97.260891 177.772 97.91213 177.54957 98.59375 177.33984 L 98.615234 177.33398 L 98.636718 177.32617 C 99.299318 177.0968 99.959618 176.91905 100.61523 176.79297 L 100.63867 176.78906 L 100.66211 176.78125 C 101.34447 176.62375 101.91952 176.52407 102.37109 176.47656 L 104.05859 176.29883 L 103.47266 174.70703 C 103.31097 174.26815 103.19837 173.83683 103.12891 173.41016 C 103.08261 172.93065 103.05469 172.24037 103.05469 171.34375 L 103.05469 170.80859 L 105.7793 170.80859 C 105.44963 171.33538 105.13054 171.87201 104.90625 172.54492 L 104.90234 172.55664 L 104.89844 172.56836 C 104.59287 173.54609 104.4063 174.52406 104.34375 175.49414 L 104.25781 176.82422 L 105.58984 176.89648 C 106.58399 176.95018 107.43251 177.03022 108.125 177.13281 L 108.14844 177.13672 L 108.17187 177.13867 C 108.85883 177.21497 109.43557 177.32832 109.89062 177.46484 L 109.91992 177.47461 L 109.94922 177.48242 C 110.41246 177.59823 110.77007 177.74082 111.02539 177.88672 L 111.04297 177.89648 L 111.06055 177.90625 C 111.3831 178.07827 111.66242 178.27486 111.91016 178.50195 L 112.69336 179.2207 L 113.5625 178.60742 C 113.92518 178.35141 114.41637 178.08932 115.03516 177.8418 C 115.66241 177.59091 116.35015 177.37379 117.09766 177.19336 C 117.84853 177.01212 118.64389 176.86873 119.48437 176.76367 C 120.31813 176.65945 121.13614 176.60742 121.9375 176.60742 L 123.57422 176.60742 L 123.22656 175.00781 C 123.11758 174.50658 123.01841 173.62449 122.96484 172.44727 L 122.96484 172.44531 C 122.94194 171.93027 122.92356 171.38487 122.91016 170.80859 L 126.07812 170.80859 L 126.07812 172.96289 C 126.07812 174.9204 126.63841 176.72918 127.74805 178.23047 L 128.14453 178.76758 L 129.21094 178.76758 L 129.39648 178.71094 C 130.20889 178.46722 130.99252 178.25089 131.74609 178.0625 C 132.47813 177.87948 133.27009 177.72086 134.12109 177.58789 L 135.23633 177.41406 L 135.23633 176.23437 L 137.5918 176.23437 C 138.33426 176.23437 139.19548 176.30978 140.16406 176.4668 C 141.15212 176.62703 142.12568 176.82635 143.08594 177.06641 L 143.08984 177.06836 L 143.09375 177.06836 C 144.07024 177.30589 144.95708 177.56782 145.75977 177.85156 C 145.91945 177.91346 145.97475 177.95933 146.11914 178.01953 L 148.29687 179.24805 L 150.71289 177.52148 C 150.82138 177.46708 150.91486 177.40645 151.02734 177.35352 L 151.04102 177.34766 L 151.05469 177.33984 C 151.50049 177.11694 151.94129 176.93428 152.37695 176.78906 L 152.39648 176.7832 L 152.41602 176.77539 C 152.8866 176.60202 153.3031 176.48418 153.65625 176.41797 L 154.64062 176.23437 L 156.92187 176.23437 C 157.29793 176.23437 157.85501 176.29107 158.55078 176.41992 L 158.55469 176.41992 L 158.55859 176.41992 C 159.2764 176.5481 160.01163 176.72889 160.76562 176.96289 L 160.79102 176.9707 L 160.81836 176.97852 C 161.58883 177.18398 162.33105 177.43931 163.04687 177.74609 C 163.75049 178.04764 164.3127 178.36507 164.73437 178.67578 L 165.08398 178.93359 L 165.94141 178.93359 L 166.28516 178.6875 C 166.55921 178.49175 166.99392 178.25115 167.55859 178.00391 C 168.18472 177.77005 168.83597 177.54762 169.51758 177.33789 L 169.53906 177.33203 L 169.5625 177.32422 C 170.2251 177.09485 170.88343 176.9171 171.53906 176.79102 L 171.5625 176.78711 L 171.58594 176.78125 C 172.26831 176.62375 172.84335 176.52407 173.29492 176.47656 L 174.98242 176.29883 L 174.39648 174.70703 C 174.23382 174.26551 174.12207 173.83151 174.05273 173.40234 C 174.00683 172.92294 173.97852 172.23699 173.97852 171.34375 L 173.97852 170.42969 C 173.97852 170.13416 173.99102 169.83888 174.01562 169.54297 L 174.17578 167.61719 L 172.32422 168.16797 C 170.891 168.59488 169.74746 169.1524 168.94141 170.03906 L 168.93164 170.05273 L 168.91992 170.06445 C 168.5163 170.5318 168.38698 171.16081 168.1582 171.73633 C 167.98738 171.72073 167.86252 171.71256 167.66992 171.69336 C 167.14434 171.61456 166.60463 171.53767 166.05469 171.45898 L 166.03711 171.45508 C 165.47503 171.34791 164.9409 171.24148 164.43359 171.13477 L 164.41992 171.12891 C 164.37852 171.11991 164.36392 171.10901 164.32422 171.09961 C 164.35682 170.78099 164.38327 170.51411 164.42187 170.15234 C 164.46957 169.70752 164.48552 169.24959 164.51562 168.79687 C 165.83993 168.58721 167.17084 168.38202 168.54883 168.20703 L 168.55859 168.20703 L 168.56836 168.20508 C 170.28713 167.95954 171.97749 167.76897 173.63867 167.63281 L 175.38086 167.49023 L 174.76758 165.85352 C 174.629 165.48396 174.48979 165.01244 174.36133 164.44727 C 174.23327 163.88379 174.13073 163.29007 174.05273 162.66602 C 173.97203 162.02089 173.90337 161.37536 173.84961 160.73047 L 173.84961 160.72656 C 173.79681 160.06548 173.77148 159.46405 173.77148 158.92578 C 173.77148 158.22726 173.81349 157.66615 173.87891 157.27344 L 174.125 155.78906 L 172.62109 155.73828 C 171.01707 155.68388 169.39799 155.5888 167.76562 155.45312 C 167.75662 155.45227 167.75274 155.45222 167.74414 155.45117 C 166.1228 155.28848 164.76475 155.09968 163.69336 154.89062 L 163.00391 154.75586 L 162.50781 155.25195 C 161.59673 156.16303 160.6873 156.9048 159.7832 157.48242 L 159.77539 157.48633 L 159.76758 157.49023 C 158.94735 158.02925 158.04367 158.39236 157.01367 158.58398 L 155.5625 158.85352 L 155.99219 160.26562 C 156.15804 160.81056 156.34678 161.65641 156.53516 162.75977 L 156.53711 162.7793 L 156.54102 162.79687 C 156.73717 163.77762 156.84766 165.10155 156.84766 166.73242 C 156.84766 167.3601 156.82128 168.06398 156.76758 168.8418 L 156.76758 168.86523 L 156.76562 168.88672 C 156.76362 168.94582 156.76081 169.00548 156.75781 169.06445 L 154.24414 169.06445 C 154.25014 168.93304 154.25742 168.83086 154.26562 168.76562 L 154.51367 166.78516 L 152.59375 167.33398 C 151.23025 167.72354 150.0455 168.42543 149.15039 169.42383 L 149.14844 169.42578 C 148.59101 170.05011 148.2158 170.78963 147.92969 171.56836 C 147.47395 171.50186 147.06196 171.46679 146.53125 171.3457 L 146.52344 171.34375 C 146.01838 171.22469 145.7092 171.10239 145.32227 170.98047 C 145.39187 170.3681 145.47612 169.78755 145.51172 169.09766 C 145.51175 169.09716 145.51175 169.09475 145.51172 169.09375 L 145.51172 169.0918 C 145.51183 169.09134 145.5132 169.0872 145.51367 169.08594 L 145.51367 169.08398 C 145.59707 167.96288 145.63867 166.92834 145.63867 165.98437 C 145.63867 164.91027 145.59577 163.84935 145.51172 162.80078 L 145.51172 162.78906 C 145.50572 162.67307 145.48562 162.55739 145.47852 162.44141 C 145.6332 162.52881 145.77291 162.68333 145.92969 162.76172 C 146.92864 163.26119 147.86001 163.56641 148.80273 163.56641 C 150.06069 163.56641 151.28779 163.13488 152.38086 162.37305 L 152.38477 162.37109 L 152.38867 162.36914 C 153.50332 161.58233 154.39073 160.54079 155.00781 159.30664 L 155.79883 157.72656 L 154.05859 157.41602 C 152.88922 157.20813 151.73256 156.89618 150.58398 156.47852 C 149.44069 156.06278 148.46195 155.59048 147.64453 155.07031 L 147.03125 154.67969 L 146.375 154.98828 C 145.17191 155.55299 139.13537 157.50803 137.70703 157.74609 L 136.21094 157.99609 L 136.66602 159.44336 C 136.93592 160.30215 137.14584 161.36847 137.27734 162.63086 L 137.27734 162.64648 L 137.2793 162.66211 C 137.43736 163.90016 137.51759 165.24353 137.51758 166.68945 C 137.51758 167.50518 137.49442 168.29648 137.44922 169.0625 L 134.11523 169.0625 L 134.11523 157.02344 L 132.67773 154.62695 L 131.72852 154.86328 C 131.56843 154.90328 131.40316 154.94328 131.23437 154.98437 L 131.23437 151.42383 C 131.70657 150.9955 132.16269 150.58462 132.59961 150.19141 C 133.13246 149.71184 133.61921 149.30372 134.05469 148.9707 L 134.07422 148.95703 L 134.0918 148.94141 C 134.54559 148.5677 134.89039 148.30549 135.06445 148.18945 L 136.8418 147.00586 L 134.98633 145.94531 C 134.84003 145.86171 134.56191 145.69042 134.20703 145.46289 C 133.86482 145.20034 133.50085 144.92716 133.11328 144.64258 L 133.09766 144.63086 C 133.09066 144.62586 133.08522 144.62043 133.07812 144.61523 C 132.72915 144.34042 132.39267 144.06661 132.06836 143.79297 L 132.0625 143.78711 C 131.77178 143.5199 131.57041 143.30027 131.48437 143.18555 L 130.20312 141.48047 z M 93.417968 161.59375 C 93.692341 161.64645 93.938961 161.72326 94.222656 161.76758 L 94.246093 161.77148 L 94.267578 161.77539 C 94.744759 161.83319 95.10081 161.83378 95.515625 161.86328 C 95.537445 162.13383 95.533952 162.41113 95.570312 162.67773 L 95.574218 162.70703 L 95.578125 162.73437 C 95.611925 162.92027 95.656975 163.08804 95.693359 163.26953 L 93.601562 163.78711 C 93.579162 163.49009 93.572038 163.22673 93.542968 162.91406 C 93.518888 162.52873 93.456768 162.02479 93.417968 161.59375 z M 164.34375 161.59375 C 164.61793 161.64635 164.86495 161.72329 165.14844 161.76758 L 165.16992 161.77148 L 165.19336 161.77539 C 165.67017 161.83319 166.02491 161.83378 166.43945 161.86328 C 166.46125 162.13383 166.45774 162.41113 166.49414 162.67773 L 166.49805 162.70703 L 166.50195 162.73437 C 166.53575 162.92027 166.58076 163.08804 166.61719 163.26953 L 164.52539 163.78711 C 164.50199 163.47616 164.49564 163.20117 164.46484 162.87305 C 164.44104 162.49835 164.38134 162.01138 164.34375 161.59375 z M 114.8457 168.75195 L 114.8457 168.93555 C 114.8457 169.6928 114.80581 170.41937 114.72852 171.11523 C 114.70462 171.32221 114.65061 171.59453 114.61914 171.81836 C 113.18625 171.20877 111.70974 170.57061 110.70117 170.2207 C 110.00491 169.97914 109.5701 169.97093 109.01953 169.83789 C 110.02212 169.59589 111.01102 169.34629 112.11328 169.15625 L 112.12305 169.1543 L 112.13477 169.15234 C 113.17337 168.95536 113.98523 168.86461 114.8457 168.75195 z M 80.767578 170.80859 L 85.6875 170.80859 C 85.67444 170.91125 85.661064 171.01317 85.646484 171.11523 L 85.644531 171.13477 L 85.640625 171.15625 C 85.563745 171.84817 85.450494 172.49374 85.300781 173.09375 L 85.300781 173.0957 L 85.298828 173.09766 L 85.298828 173.09961 C 85.154789 173.64607 84.990195 174.03547 84.875 174.22266 L 84.416015 174.9668 L 82.818359 173.96289 C 82.104892 173.51442 81.53781 172.83603 81.095703 171.79492 C 80.967803 171.47376 80.858118 171.14558 80.767578 170.80859 z M 134.11523 170.80859 L 137.29883 170.80859 C 137.26903 171.06438 137.23697 171.31277 137.20117 171.55469 C 137.09779 172.22665 136.97022 172.80693 136.82617 173.28711 L 136.81836 173.31641 L 136.81055 173.3457 C 136.69474 173.80895 136.55311 174.09516 136.51172 174.1543 L 135.23633 175.97852 L 135.23633 174.74023 L 134.39648 174.42969 C 134.38428 174.40729 134.35765 174.35309 134.31445 174.23633 C 134.2133 173.96286 134.11523 173.4066 134.11523 172.62891 L 134.11523 170.80859 z M 154.23437 170.80859 L 156.61133 170.80859 C 156.59833 170.9106 156.58481 171.01187 156.57031 171.11328 L 156.56836 171.13281 L 156.56641 171.1543 C 156.48951 171.84622 156.37432 172.49179 156.22461 173.0918 C 156.22449 173.0923 156.22313 173.09445 156.22266 173.0957 L 156.22266 173.09766 L 156.22266 173.09961 C 156.07863 173.64607 155.91403 174.03547 155.79883 174.22266 L 154.93555 175.625 L 154.67969 174.75 C 154.56217 174.35042 154.44835 173.84799 154.3457 173.26367 C 154.2761 172.71982 154.23437 171.93394 154.23437 170.92773 L 154.23437 170.80859 z "
       inkscape:label="text" /><path
       id="path9"
       style="opacity:1;baseline-shift:baseline;display:inline;overflow:visible;fill:none;stroke-linecap:round;enable-background:accumulate;stop-color:#000000;stop-opacity:1;stroke:#000000;stroke-opacity:1;stroke-width:0.18897638;stroke-dasharray:none"
       d="M 141.58398 29.505859 C 141.12545 29.514459 140.6662 29.543277 140.20898 29.591797 C 138.38014 29.785869 136.57556 30.296291 134.91406 31.105469 C 131.59108 32.723824 128.78553 35.691652 128.04297 39.742187 C 126.66692 47.248374 131.85388 53.687885 134.31445 58.597656 C 135.14675 60.2584 135.68839 62.329288 136.31641 64.404297 C 136.06092 64.819412 135.82086 65.252994 135.69727 65.646484 C 135.37511 66.672184 135.2793 67.745967 135.29492 68.835937 C 135.31012 69.894453 135.45085 70.943478 135.73633 71.927734 L 134.40625 72.308594 L 134.40625 74.765625 L 134.66797 75.240234 C 134.8744 75.615571 134.85115 76.633412 134.87305 78.203125 C 134.87905 78.655303 135.05898 79.229079 135.1582 79.761718 C 112.68248 80.007474 98.983121 108.09528 115.25391 124.77539 C 117.60134 127.18186 120.36137 129.31301 123.51172 130.79297 C 127.52247 132.67714 132.13946 133.61473 136.47852 133.69922 C 141.03817 133.78802 146.43023 131.772 151.28711 128.31055 C 156.14399 124.8491 160.45116 119.85486 162.14258 113.6582 L 163.12891 110.04687 L 159.52734 111.06641 C 157.57236 111.61974 156.25232 112.91445 155.13477 114.05469 C 154.01721 115.19493 153.0495 116.24731 152.26562 116.75195 C 150.75042 117.72741 149.17291 118.40367 147.57227 118.82227 L 148.20703 118.54297 C 154.58003 115.73983 156.70688 109.17359 155.49609 103.48828 C 154.42821 98.473988 150.80906 93.947578 145.59961 92.259765 C 145.69741 91.413301 145.70609 90.553097 145.43555 89.642578 C 145.40615 89.543508 145.30776 89.473603 145.27148 89.376953 C 147.20623 89.579351 149.26222 90.130977 151.96289 90.351562 L 155.06641 90.605468 L 154.1582 87.626953 C 153.25831 84.676348 150.5751 83.230474 148.12305 82.263672 C 146.59781 81.662295 145.44285 81.362581 144.14062 80.984375 C 144.40892 80.249526 144.62832 79.492194 144.66797 78.697265 C 144.70917 77.871829 144.51545 76.996461 144.21289 76.162109 L 144.68945 75.972656 L 144.68945 70.832031 L 143.14453 70.832031 C 143.18533 70.526249 143.30295 70.221903 143.31445 69.923828 C 143.36025 68.73822 143.08245 67.563657 142.45898 66.466797 L 142.45898 65.414062 C 143.01927 64.002312 142.76704 62.561004 142.42773 61.484375 C 142.03641 60.242834 141.51119 59.194916 141.32422 58.605469 C 139.48658 52.811949 135.58436 47.436852 135.19336 42.8125 C 135.0752 41.415074 135.43271 40.459107 136.08984 39.640625 C 136.74698 38.822143 137.77601 38.163208 139.00781 37.787109 C 141.47141 37.034912 144.5279 37.567208 146.11719 39.160156 C 147.97839 41.025655 147.85347 43.909104 147.53516 47.251953 C 147.09092 51.916991 146.6164 57.249452 148.69922 62.283203 C 149.22765 63.560316 150.05666 65.414764 151.32812 67.048828 C 152.59959 68.682892 154.65015 70.357153 157.25391 69.935547 L 159.70508 69.539062 L 158.92383 67.183594 C 158.15608 64.868092 156.99625 63.072058 156.08398 61.423828 C 155.17171 59.775599 154.49013 58.309197 154.29297 56.46875 C 153.97508 53.501201 154.43267 49.288812 154.45508 45.033203 C 154.47748 40.777595 154.08647 36.30151 151.36719 32.804687 C 149.62872 30.569139 147.12342 30.356494 145.6543 29.976562 C 144.33248 29.634727 142.9596 29.479959 141.58398 29.505859 z M 140.51953 77.183594 L 140.51953 78.99414 L 139.36523 78.828125 L 138.95117 77.380859 L 140.51953 77.183594 z M 134.77148 84.726562 C 135.05557 84.731562 135.31511 84.804072 135.59375 84.826172 L 122.80664 89.089843 C 123.88078 88.257373 124.92471 87.384301 126.17969 86.769531 C 128.92033 85.426991 131.96535 84.673672 134.77148 84.726562 z M 130.59961 89.207031 L 129.83594 90.080078 L 128.85352 89.535156 L 130.59961 89.207031 z M 121.71875 89.839843 L 121.71875 90.802734 L 122.31641 90.808593 C 124.0979 90.823493 125.55094 91.336392 126.22461 92.101562 C 126.53802 92.457542 126.67492 92.874525 126.6875 93.384765 C 126.5698 93.007745 126.47657 92.61108 126.22852 92.34375 C 125.50515 91.56415 124.40759 91.41895 123.30859 91.53125 C 121.84315 91.68099 120.35729 92.279389 119.04297 92.912109 C 119.74873 91.800689 120.65949 90.788373 121.71875 89.839843 z M 139.91016 90.507812 L 141.1582 90.716797 L 141.1582 91.513672 L 140.05273 91.513672 L 139.91016 90.507812 z M 135.33398 92.173828 C 135.35019 92.285246 135.40614 92.39269 135.43164 92.503906 C 133.07372 93.744541 129.50253 97.185774 129.30078 98.921875 C 129.19081 97.293687 132.82797 93.53914 135.33398 92.173828 z M 121.99414 95.037109 C 122.08864 95.041109 122.1808 95.051312 122.27148 95.070312 C 122.63418 95.146312 122.96679 95.351438 123.28516 95.736328 C 123.80559 96.365518 123.90166 97.040923 123.75586 97.751953 C 123.69996 98.024783 123.47024 98.234587 123.34375 98.498047 C 123.32145 98.225797 123.45984 97.95657 123.30273 97.71289 C 122.96147 97.1837 122.34637 96.803428 121.50195 96.605468 C 120.60173 96.394438 119.76527 96.723047 119.11523 97.185547 C 118.46518 97.648057 117.94709 98.254772 117.55273 98.757812 C 116.07824 100.63859 114.87766 103.19176 114.02734 105.72656 C 114.15589 104.6286 114.48121 103.44841 114.98047 102.28125 C 115.94315 100.03069 117.43152 97.890282 118.62695 96.726562 C 119.26763 96.102872 120.21111 95.439394 121.08203 95.177734 C 121.40863 95.079634 121.71066 95.025969 121.99414 95.037109 z M 140.89062 95.669922 L 140.89062 95.671875 C 141.25624 95.669875 141.62459 95.694493 141.99219 95.746093 C 144.19777 96.055743 146.40936 97.346657 148.22656 99.804687 C 148.90259 100.7191 149.88678 102.54188 150.3418 104.27148 C 150.56931 105.13628 150.66345 105.97835 150.56641 106.6582 C 150.54491 106.80853 150.41297 106.865 150.375 106.99805 L 150.23828 106.17383 L 149.78125 106.17383 L 149.73437 106.08203 C 149.58545 105.78438 149.2235 105.66372 148.92578 105.8125 C 148.62813 105.96141 148.50748 106.32337 148.65625 106.62109 L 148.76367 106.83398 L 148.80664 106.81055 C 148.80652 108.5463 148.87554 110.94606 148.18555 112.20117 C 147.98967 112.5575 147.58352 112.89229 147.23633 112.99414 C 146.88914 113.096 146.67194 113.08364 146.40039 112.69922 C 145.69549 111.70132 145.61406 110.43368 145.46484 109.01953 C 145.32433 107.68781 145.0263 106.22752 143.92578 104.99609 L 143.92578 104.99414 L 143.92578 104.99219 L 143.92383 104.99023 L 143.92187 104.99023 C 143.85527 104.91593 143.85048 104.8263 143.77734 104.75391 L 142.7832 105.375 C 143.1188 106.36636 143.4846 107.86424 143.63281 109.33398 C 143.78103 110.80371 143.68451 112.24924 143.25977 113.09375 C 143.15352 113.305 143.06921 113.37916 143.04102 113.40039 C 142.99472 113.37889 142.71838 113.16422 142.46875 112.78125 C 141.95556 111.99396 141.48142 110.73251 141.37695 110.41211 L 141.02734 109.33594 L 140.33008 110.22656 C 139.84107 110.85144 139.70258 111.39876 139.5625 111.95703 L 137.5293 107.48047 L 136.94531 107.60742 L 136.94531 103.30469 L 135.54883 103.30469 L 135.4375 103.76758 C 134.80023 106.43687 134.8612 108.98046 135.28906 111.54297 C 134.88509 110.58029 134.65907 109.52137 134.64453 108.36719 C 134.61813 106.27049 135.12773 104.01045 135.64844 102.1582 L 136.10742 100.52148 L 134.7207 101.50195 C 133.31705 102.49355 132.55072 103.47438 132.20312 104.59375 C 132.07054 105.02067 132.13533 105.57795 132.09375 106.03516 C 132.04655 105.74152 131.96956 105.45502 131.98242 105.14453 C 132.02442 104.13004 132.38164 103.02074 132.82617 101.89844 C 134.2575 98.284762 136.92797 96.187486 139.80273 95.753906 C 140.16207 95.699706 140.52499 95.671722 140.89062 95.669922 z M 121.14258 100.42383 C 121.21217 100.42434 121.28547 100.4438 121.35352 100.44141 C 121.33777 100.4481 121.311 100.47218 121.29492 100.48047 C 121.29386 100.48089 121.29197 100.48219 121.29102 100.48242 L 121.28906 100.48242 C 121.22056 100.48205 121.18926 100.43963 121.14258 100.42383 z M 119.8125 104.67187 C 119.8684 104.66987 119.92367 104.66987 119.97852 104.67187 C 120.4173 104.69087 120.81767 104.85807 121.0918 105.08594 C 121.36593 105.3138 121.47462 105.55829 121.45898 105.76172 C 121.44728 105.91318 121.20066 106.1421 120.92969 106.36523 C 120.49585 106.16827 120.02386 106.10655 119.6582 106.35156 C 119.11711 106.71421 118.87318 107.43846 119.06445 108.17187 C 119.24451 108.86226 119.65028 109.39874 120.15625 109.73828 C 120.66222 110.07782 121.2491 110.23601 121.83594 110.29687 C 122.28992 110.34397 122.6393 110.18664 123.08008 110.14258 C 121.31175 111.37674 119.25787 111.31452 117.9668 110.51172 C 117.15372 110.00614 116.67222 109.27721 116.67187 108.39648 C 116.67152 107.51576 117.17088 106.38646 118.63477 105.14453 C 119.00871 104.82728 119.42129 104.68882 119.8125 104.67187 z M 128.77539 110.38281 C 128.97714 112.11892 132.31656 117.05142 135.08203 117.75977 C 135.05653 117.871 135.00057 117.97842 134.98437 118.08984 C 132.08493 117.39566 128.66542 112.011 128.77539 110.38281 z M 123.71094 112.85937 C 123.26659 113.44352 122.8867 114.10253 122.67187 114.76562 C 122.45677 115.42953 122.40632 116.18298 122.85937 116.77539 C 123.31242 117.3678 124.12125 117.61042 125.20703 117.57617 L 125.79102 117.55859 C 125.74352 117.66425 125.78801 117.7658 125.69531 117.87695 C 125.18143 118.49017 123.92404 118.97556 122.7832 118.69531 C 121.31136 118.33374 120.63974 117.76468 120.38867 117.2207 C 120.1376 116.67673 120.23254 116.02085 120.66016 115.2832 C 121.2349 114.29176 122.43712 113.45591 123.71094 112.85937 z M 115.70508 113.79297 L 116.31836 114.05664 L 115.81836 114.80859 L 115.70508 113.79297 z M 127.88086 119.85352 L 127.88086 119.85547 C 128.00502 119.84747 128.21989 119.92667 128.35742 119.91797 C 128.02088 120.00307 127.74747 120.11945 127.44922 120.25781 L 127.44922 120.25586 C 127.45322 120.24136 127.45108 120.20891 127.45508 120.19531 L 127.45508 120.19336 C 127.53638 120.03146 127.64455 119.93778 127.83398 119.86328 C 127.84758 119.85828 127.86306 119.85452 127.88086 119.85352 z M 118.53906 119.89258 C 120.78495 121.31563 123.16254 122.56517 125.62109 123.45898 C 126.43666 123.75549 127.39949 123.96416 128.34375 123.82617 C 129.28801 123.68818 130.22914 123.1191 130.68359 122.02734 C 130.83091 121.67343 130.91147 121.33306 130.91797 121.01953 C 131.09868 121.18887 131.36989 121.27952 131.5 121.46875 C 131.91039 122.06557 132.05613 122.68079 131.76562 123.4082 C 131.53631 123.98235 131.01759 124.22512 130.23633 124.33789 C 129.45507 124.45066 128.51226 124.36895 127.78711 124.31055 C 126.22235 124.18417 123.68028 123.36616 121.5 122.14648 C 120.32502 121.48918 119.32415 120.70633 118.53906 119.89258 z M 136.02344 122.56445 C 136.04664 122.59175 136.12637 122.61362 136.15039 122.64062 C 136.41234 122.99263 136.49511 123.37658 136.44336 123.85547 C 136.33985 124.81323 135.58139 126.0713 134.63086 127.07617 L 134.01367 127.72852 C 133.05945 127.60616 132.09735 127.37899 131.13477 127.14453 C 132.23921 126.91337 133.3881 126.56627 134.36133 126.02344 C 135.24705 125.52941 136.0126 124.87428 136.21289 123.92969 C 136.30649 123.48834 136.22089 123.02746 136.02344 122.56445 z M 139.99414 123.39844 L 141.75977 123.69336 L 139.73633 124.5625 L 139.99414 123.39844 z M 149.23437 123.91797 C 149.18407 123.95327 149.17898 124.00437 149.12695 124.03906 C 148.33985 124.5638 147.39265 125.00058 146.56836 125.45508 C 143.30278 127.25564 139.95241 127.92271 136.54883 127.87109 C 140.79785 127.3057 145.28936 125.73863 149.23437 123.91797 z "
       inkscape:label="znak" /></g></svg>
