<?xml version="1.0" encoding="UTF-8" standalone="no"?>
<svg
   version="1.2"
   viewBox="0 0 219.2126 219.2126"
   width="58mm"
   height="58mm"
   id="svg1"
   sodipodi:docname="DratenikRoleTokenLaser.svg"
   inkscape:version="1.4.2 (2aeb623e1d, 2025-05-12)"
   xml:space="preserve"
   xmlns:inkscape="http://www.inkscape.org/namespaces/inkscape"
   xmlns:sodipodi="http://sodipodi.sourceforge.net/DTD/sodipodi-0.dtd"
   xmlns="http://www.w3.org/2000/svg"
   xmlns:svg="http://www.w3.org/2000/svg"><sodipodi:namedview
     id="namedview1"
     pagecolor="#ffffff"
     bordercolor="#666666"
     borderopacity="1.0"
     inkscape:showpageshadow="2"
     inkscape:pageopacity="0.0"
     inkscape:pagecheckerboard="0"
     inkscape:deskcolor="#d1d1d1"
     inkscape:zoom="2.5323605"
     inkscape:cx="16.190428"
     inkscape:cy="129.72086"
     inkscape:window-width="1920"
     inkscape:window-height="940"
     inkscape:window-x="0"
     inkscape:window-y="0"
     inkscape:window-maximized="1"
     inkscape:current-layer="layer2"
     inkscape:document-units="mm"
     showgrid="false" /><defs
     id="defs1"><clipPath
       clipPathUnits="userSpaceOnUse"
       id="cp1"><path
         d="m 275.5,535.5 c -143.78,0 -260,-116.22 -260,-260 0,-143.78 116.22,-260 260,-260 143.78,0 260,116.22 260,260 0,143.78 -116.22,260 -260,260 z"
         id="path1" /></clipPath></defs><style
     id="style1">
		tspan { white-space:pre } 
		.s0 { fill: none;stroke: #ff0000;stroke-miterlimit:100 } 
	</style><g
     inkscape:groupmode="layer"
     id="layer2"
     inkscape:label="Content"><g
       inkscape:groupmode="layer"
       id="layer4"
       inkscape:label="Kruh"
       style="display:inline"><path
         id="path2"
         style="fill:none;stroke:#000000;stroke-width:0.189192"
         d="M 219.118,109.6063 A 109.5117,109.5117 0 0 1 109.6063,219.118 109.5117,109.5117 0 0 1 0.09459686,109.6063 109.5117,109.5117 0 0 1 109.6063,0.09459686 109.5117,109.5117 0 0 1 219.118,109.6063 Z"
         inkscape:label="Vnejsi kruh" /><path
         id="circle2"
         style="fill:none;stroke:#000000;stroke-width:0.188976"
         d="M 208.69732,109.6063 A 99.091019,99.091019 0 0 1 109.6063,208.69732 99.091019,99.091019 0 0 1 10.515282,109.6063 99.091019,99.091019 0 0 1 109.6063,10.515282 99.091019,99.091019 0 0 1 208.69732,109.6063 Z"
         inkscape:label="Vnitrni kruh" /></g><path
       id="path3"
       style="font-size:41.5223px;font-family:'New Rocker';-inkscape-font-specification:'New Rocker';letter-spacing:0.769167px;baseline-shift:baseline;white-space:pre;display:inline;overflow:visible;opacity:1;enable-background:accumulate;stop-color:#000000;stop-opacity:1;stroke:#000000;stroke-opacity:1;stroke-width:0.18897638;stroke-dasharray:none;fill:none"
       d="m 90.123047,126.80859 -0.955079,1.91016 c -0.227272,0.45455 -0.529001,0.99212 -0.902343,1.60547 l -0.0098,0.0195 -0.01172,0.0176 c -0.345594,0.61143 -0.718579,1.2237 -1.11914,1.83789 l -0.0039,0.008 -0.0039,0.006 c -0.385457,0.60572 -0.755948,1.18268 -1.113281,1.73242 l -0.01367,0.0195 -0.01172,0.0215 c -0.333841,0.5564 -0.598514,1.00175 -0.796875,1.34179 l -0.574218,0.98438 0.888671,0.71094 c 0.367743,0.29419 0.609456,0.53944 0.697266,0.65234 l 0.05078,0.0644 0.05664,0.0586 c 0.279781,0.27978 0.635471,0.58736 1.097656,0.96289 l 0.923828,0.75 0.841797,-0.8418 c 0.383269,-0.38327 0.782746,-0.77461 1.197266,-1.17383 v 2.45899 l -0.720703,0.42187 c -0.632477,0.37077 -1.653457,0.76249 -3.017578,1.10352 -1.30039,0.3251 -2.914488,0.50195 -4.828125,0.50195 H 81.43164 c -0.279305,-0.0894 -0.41165,-0.043 -0.591797,-0.043 h -1.662109 l 0.101563,0.4336 -1.144532,-0.27149 c -1.12159,-0.26704 -2.14016,-0.56069 -3.058593,-0.875 -0.906653,-0.33788 -1.587059,-0.66046 -1.982422,-0.91015 l -1.376953,-0.86914 -0.564453,1.52734 c -0.23538,0.63691 -0.509784,1.20181 -0.765625,1.80078 v -0.41992 l -1.4375,-2.39844 L 68,140.19336 c -0.867838,0.21696 -1.864749,0.44904 -2.986328,0.69531 -0.0029,6.5e-4 -0.0049,9.5e-4 -0.0078,0.002 -1.103337,0.21479 -2.125433,0.39013 -3.058594,0.52344 l -1.132812,0.16211 v 2.46875 l 1.535156,0.66406 V 154 h -4.378906 c 0.01334,-0.37664 0.03347,-0.78347 0.06055,-1.21875 0.08022,-0.85001 0.187198,-1.71471 0.320312,-2.59375 v -0.002 -0.002 c 0.159069,-0.87144 0.331893,-1.70315 0.515625,-2.49218 0.204496,-0.78974 0.429858,-1.41441 0.646485,-1.84766 l 0.228515,-0.45508 -0.138672,-0.49219 c -0.390095,-1.39319 -0.738936,-2.55394 -1.052734,-3.49609 l -0.0039,-0.0117 c -0.297743,-0.92083 -0.553196,-1.77169 -0.767578,-2.54883 -0.208946,-0.7847 -0.392449,-1.59867 -0.550782,-2.43945 -0.129128,-0.85626 -0.237428,-1.93558 -0.318359,-3.23047 l -0.972656,-1.19141 c -1.27102,-0.34424 -2.544013,-0.78186 -3.822266,-1.31446 -1.284861,-0.53536 -2.32433,-1.05022 -3.099609,-1.52539 l -0.419922,-0.25781 -0.486328,0.0801 c -1.131826,0.18863 -2.263546,0.33755 -3.394531,0.44531 h -0.002 c -1.130967,0.0805 -2.343522,0.14699 -3.638671,0.20117 -1.326998,0.0276 -2.778839,0.0563 -4.355469,0.084 h -9.177734 l 3.130859,2.37109 c 0.892623,0.67623 1.612521,1.2655 2.152344,1.75391 l 0.01172,0.01 0.01172,0.01 c 0.525458,0.4538 0.898609,0.89416 1.142578,1.30078 l 0.02148,0.0332 0.02148,0.0332 c 0.264237,0.3862 0.44288,0.80092 0.546875,1.2793 0.111416,0.51252 0.177735,1.18489 0.177734,2.00195 0,0.70281 -0.01367,1.49253 -0.04102,2.36719 -0.02629,0.81516 -0.09251,1.6147 -0.197266,2.40039 l -0.002,0.0195 -0.002,0.0195 c -0.07593,0.73398 -0.200873,1.40399 -0.371094,2.01367 -0.157772,0.53706 -0.349194,0.85555 -0.451172,0.96679 l -0.726562,0.79297 0.628906,0.8711 c 0.255886,0.3543 0.470159,0.80218 0.628906,1.36914 l 0.0098,0.0312 0.0098,0.0293 c 0.191889,0.57568 0.325404,1.1776 0.398437,1.81055 l 0.002,0.0254 0.0039,0.0234 c 0.10106,0.65688 0.150391,1.29633 0.150391,1.91797 v 0.0254 l 0.002,0.0273 c 0.02712,0.678 0.03906,1.28477 0.03906,1.81641 0,0.28966 -0.09083,0.70313 -0.357422,1.23633 l -0.0059,0.01 -0.0059,0.01 c -0.266129,0.55645 -0.596474,1.10709 -0.992187,1.65234 -0.399851,0.52356 -0.805182,0.99261 -1.21875,1.4082 -0.422757,0.39685 -3.071815,2.9988 -3.19338,3.0651 l 2.941426,0.12436 c 3.29787,0 6.382852,0.19147 9.251953,0.57031 h 0.002 c 2.862247,0.40217 5.347161,1.06769 7.455078,1.97852 l 0.9375,0.40625 0.626953,-0.80664 c 1.120724,-1.44094 2.243703,-2.65492 3.361328,-3.64258 l 0.0078,-0.006 0.0059,-0.006 c 1.017314,-0.92268 2.169089,-1.49344 3.552734,-1.75586 l 1.455078,-0.27539 -0.441406,-1.41602 c -0.109275,-0.34967 -0.187247,-0.72866 -0.234375,-1.14062 -0.01196,-0.22344 -0.02113,-0.44995 -0.02734,-0.67969 h 4.388672 v 2.58789 c 0,0.63742 -0.09228,1.07551 -0.175781,1.27344 -0.04175,0.099 -0.06112,0.13706 -0.07031,0.14844 h -0.002 v 0.002 h -0.002 -0.002 -0.002 l -0.002,-0.002 v -0.002 h -0.002 -0.002 l -0.861329,0.32032 v 2.86132 h 11.525391 v -3.15625 l -1.115234,-0.17382 c -0.681492,-0.10649 -0.951723,-0.29854 -1.027344,-0.37305 -0.06208,-0.0989 -0.224609,-0.48721 -0.224609,-1.27149 v -2.21484 h 8.792968 c -0.01104,0.75775 -0.03437,1.51563 -0.07227,2.27344 -0.0505,0.98104 -0.204255,1.75059 -0.41211,2.29101 l -0.677734,1.76172 1.886719,0.0312 c 1.520429,0.0262 2.840901,0.19794 3.958984,0.4961 h 0.0039 l 0.0039,0.002 c 1.159959,0.3026 2.199657,0.73752 3.136719,1.30469 l 0.972656,0.58789 2.394532,-2.88086 c 0.0923,0.13548 0.142899,0.27778 0.242187,0.41211 0.548908,0.74264 1.184146,1.36821 1.90625,1.84961 l 1.244141,0.83007 0.667969,-1.33789 c 0.113624,-0.22724 0.322543,-0.56026 0.623046,-0.96093 0.292586,-0.39011 0.624298,-0.77078 0.998047,-1.14453 0.384116,-0.38412 0.763388,-0.72673 1.136719,-1.0254 l 0.0039,-0.002 0.0039,-0.004 c 0.360958,-0.29328 0.661101,-0.45919 0.857421,-0.5293 l 0.876954,-0.3125 v -2.43555 l -1.023438,-0.23633 c -0.202012,-0.0466 -0.316352,-0.1049 -0.408203,-0.1582 1.55e-4,-0.003 -0.05152,-0.0636 -0.119141,-0.27148 -0.04249,-0.14586 -0.08434,-0.32732 -0.125,-0.54102 h 4.28906 v 5.85352 l 0.73047,0.36523 c 0.42323,0.21162 0.96505,0.4962 1.62109,0.85156 0.64515,0.34946 1.27704,0.71203 1.89453,1.08789 l 0.83399,0.50782 0.72851,-0.64844 c 0.16296,-0.14485 0.45825,-0.36331 0.86133,-0.61524 0.40517,-0.25323 0.83945,-0.49492 1.30273,-0.72656 l 0.0254,-0.0137 0.0254,-0.0137 c 0.47288,-0.26271 0.96017,-0.5128 1.46093,-0.75 0.49087,-0.23252 0.94834,-0.4218 1.36914,-0.57031 l 0.87891,-0.31055 v -2.76758 l -1.25,-0.0664 c -0.76377,-0.0402 -1.28137,-0.27469 -1.7832,-0.77343 -0.2759,-0.29156 -0.49904,-0.73095 -0.60157,-1.41016 h 5.68556 c -0.0252,0.23446 -0.0548,0.46758 -0.0879,0.69922 l -0.002,0.0215 -0.002,0.0195 c -0.0769,0.69193 -0.19208,1.33749 -0.34179,1.9375 -2.5e-4,0.001 -0.002,0.005 -0.002,0.006 -0.14403,0.54646 -0.30863,0.93586 -0.42383,1.12305 l -1.23829,2.01172 h 2.36133 c 0.37606,0 0.93314,0.0567 1.62891,0.18555 h 0.004 l 0.004,0.002 c 0.71781,0.12818 1.45498,0.30897 2.20899,0.54297 l 0.0254,0.008 0.0254,0.006 c 0.77047,0.20546 1.51269,0.4608 2.22851,0.76758 l 0.002,0.002 0.002,0.002 h 0.002 0.002 v 0.002 l 2.57892,1.47907 2.41522,-1.39118 c 0.47979,-0.17083 0.95779,-0.34279 1.46875,-0.5 l 0.0234,-0.008 0.0215,-0.008 c 0.6626,-0.22936 1.32094,-0.40712 1.97656,-0.5332 l 0.0234,-0.004 0.0234,-0.006 c 0.68242,-0.15744 1.25923,-0.2571 1.71092,-0.30468 l 1.68556,-0.17774 -0.58594,-1.59179 c -0.16169,-0.43887 -0.27234,-0.86828 -0.34179,-1.29493 -0.0463,-0.47951 -0.0762,-1.17171 -0.0762,-2.06836 v -0.91406 -0.0137 h 3.19532 v 2.58789 c 0,0.64939 -0.10768,1.06888 -0.19141,1.23633 l -0.008,0.0176 -0.008,0.0156 c -0.0596,0.12766 -0.0925,0.16561 -0.10351,0.17383 h -0.002 v 0.002 h -0.002 v -0.002 l -0.80664,0.33398 v 2.82422 h 10.28125 v -2.86132 l -0.84179,-0.3125 c -0.0127,-0.0227 -0.0392,-0.0774 -0.082,-0.19336 -0.10114,-0.27348 -0.19726,-0.82973 -0.19726,-1.60743 v -8.07226 l 3.00586,-1.34375 v 3.53125 0.0117 c 0.0275,1.57014 0.043,3.1408 0.043,4.71093 0,0.22455 -0.026,0.71197 -0.0801,1.38868 -0.0545,0.68158 -0.12276,1.43459 -0.20508,2.25781 -0.0799,0.77163 -0.18518,1.54395 -0.31837,2.31641 l -0.002,0.002 v 0.004 c -0.13215,0.79292 -0.27703,1.43776 -0.41993,1.91407 l -0.22656,0.75586 1.77343,1.77148 0.93164,-0.99805 c 0.35474,-0.38008 0.76805,-0.78145 1.24024,-1.20117 0.46212,-0.41077 0.95291,-0.81127 1.46875,-1.19922 l 0.008,-0.006 c 0.54927,-0.39204 1.08279,-0.74344 1.59765,-1.05273 0.5145,-0.29283 1.00612,-0.51776 1.46875,-0.67969 l 1.08204,-0.3789 -0.22461,-1.12696 c -0.0525,-0.26244 -0.1053,-0.53991 -0.15821,-0.83008 -0.0436,-0.26176 -0.0816,-0.63575 -0.10742,-1.10156 -0.0269,-0.48476 -0.0546,-1.11333 -0.082,-1.88281 v -1.00586 h 3.5688 v 2.54688 c 0,1.95751 0.56028,3.76824 1.66992,5.26953 l 0.39649,0.53515 h 1.0664 l 0.18555,-0.0566 c 0.81241,-0.24372 1.59605,-0.46004 2.34961,-0.64844 0.73205,-0.183 1.52399,-0.34163 2.375,-0.4746 l 1.11719,-0.17383 v -2.66992 l -0.8418,-0.3125 c -0.0122,-0.0224 -0.0388,-0.0765 -0.082,-0.19336 -0.10115,-0.27348 -0.19727,-0.82973 -0.19727,-1.60743 v -2.21484 h 3.77539 v 2.58789 c 0,0.63742 -0.0923,1.0755 -0.17578,1.27344 -0.0417,0.099 -0.0611,0.13706 -0.0703,0.14844 h -0.002 v 0.002 h -0.002 -0.002 -0.002 v -0.002 h -0.002 v -0.002 h -0.002 -0.002 l -0.86133,0.32032 v 2.86132 h 10.2793 v -2.86132 l -0.83985,-0.3125 c -0.0122,-0.0224 -0.0388,-0.0765 -0.082,-0.19336 -0.10115,-0.27348 -0.19922,-0.82973 -0.19922,-1.60743 v -3.77929 c 0.25553,0.12763 0.54201,0.23473 0.78711,0.36914 l 0.0137,0.008 0.0156,0.008 c 0.61339,0.31659 1.21594,0.70866 1.81836,1.10352 v 2.70703 c 0,0.47967 -0.0259,1.00714 -0.0781,1.58203 -0.0534,0.58744 -0.11949,1.16067 -0.19922,1.71875 -0.0764,0.53486 -0.17825,1.03868 -0.30273,1.51172 l -0.008,0.0312 -0.008,0.0332 c -0.10038,0.47685 -0.20909,0.85615 -0.3125,1.125 l -0.47851,1.24219 2.375,0.89063 0.59961,-0.59961 c 0.27593,-0.27593 0.62989,-0.58418 1.05469,-0.91016 0.46748,-0.33725 0.9776,-0.6768 1.53125,-1.01953 0.56046,-0.34695 1.13457,-0.68119 1.72265,-1.00195 0.58316,-0.31809 1.13375,-0.59281 1.65235,-0.82618 l 0.97656,-0.43945 -0.22852,-1.04687 c -0.15881,-0.726 -0.25976,-1.8883 -0.25976,-3.41211 0,-0.7436 0.0138,-1.38537 0.0391,-1.93164 0.0514,-0.53281 0.12673,-1.06718 0.22852,-1.60157 l 0.17382,-0.91211 -0.80078,-0.47265 c -1.00065,-0.58861 -2.08242,-1.11368 -3.24219,-1.57813 l -0.004,-0.002 c -0.12984,-0.0532 -0.31686,-0.0798 -0.45117,-0.13086 l 3.80468,-1.43945 -0.28515,-1.13868 c -0.0146,-0.0582 -0.0625,-0.36373 -0.0879,-0.79492 -0.0267,-0.45393 -0.0391,-0.82141 -0.0391,-1.08593 0,-1.03838 0.11751,-1.88103 0.31446,-2.51563 l 0.43164,-1.39258 -1.42969,-0.29101 c -1.44687,-0.29474 -2.67497,-0.61417 -3.68359,-0.94922 -0.95892,-0.35468 -1.80105,-0.77687 -2.53125,-1.26367 l -0.90039,-0.59961 -0.76563,0.76367 c -0.53962,0.53962 -0.99409,0.94901 -1.44336,1.35156 v -5.89844 c 0,-1.59387 0.11228,-2.85087 0.30078,-3.73047 0.21534,-0.87638 0.52094,-1.50323 0.85547,-1.9121 l -1.60156,-2.02149 c -1.19179,0.58266 -2.24403,0.99618 -3.13672,1.24414 -0.90241,0.25067 -1.71348,0.36719 -2.42969,0.36719 -0.69656,0 -1.19753,-0.0942 -1.47265,-0.20117 l -3.59375,-1.39844 1.98437,3.30664 c 0.20476,0.34126 0.35591,0.66931 0.46094,0.98438 l 0.0117,0.0371 0.0137,0.0352 c 0.13041,0.32603 0.23236,0.68065 0.30078,1.06836 l 0.006,0.0371 0.008,0.0352 c 0.0886,0.37648 0.14934,0.82516 0.17383,1.33984 l 0.002,0.0293 0.004,0.0312 c 0.0503,0.52819 0.0762,1.15431 0.0762,1.86914 V 154 h -3.77539 v -11.64453 l -1.43945,-2.39844 -0.75781,0.18945 v -4.01171 c 0.23083,-0.20893 0.45772,-0.41352 0.67968,-0.61329 0.53285,-0.47956 1.0196,-0.88768 1.45508,-1.2207 l 0.0195,-0.0137 0.0176,-0.0156 c 0.45378,-0.3737 0.79862,-0.63397 0.97266,-0.75 l 1.77734,-1.18554 -1.85351,-1.0586 c -0.14384,-0.0822 -0.42175,-0.25312 -0.76758,-0.47461 -0.34613,-0.26571 -0.71475,-0.54175 -1.10742,-0.83007 -0.36694,-0.28832 -0.71879,-0.57626 -1.0586,-0.86329 -0.28362,-0.26174 -0.4836,-0.47879 -0.56836,-0.59179 l -1.28125,-1.70899 -0.95508,1.91016 c -0.22726,0.45455 -0.52899,0.99212 -0.90234,1.60547 l -0.0117,0.0195 -0.01,0.0176 c -0.3456,0.61143 -0.71858,1.2237 -1.11914,1.83789 l -0.004,0.008 -0.004,0.006 c -0.38545,0.60572 -0.7579,1.18268 -1.11523,1.73242 l -0.0117,0.0195 -0.0137,0.0215 c -0.33384,0.5564 -0.59851,1.00175 -0.79688,1.34179 l -0.57422,0.98438 0.89063,0.71094 c 0.36774,0.29419 0.60751,0.53945 0.69531,0.65234 l 0.0508,0.0644 0.0586,0.0586 c 0.27978,0.27978 0.63547,0.58736 1.09765,0.96289 l 0.92383,0.75 0.8418,-0.8418 c 0.30048,-0.30048 0.61014,-0.60598 0.92969,-0.91601 v 2.8125 c -0.45265,0.1047 -0.93036,0.21176 -1.4336,0.32226 -0.003,6.5e-4 -0.005,9.5e-4 -0.008,0.002 -1.10334,0.21479 -2.12543,0.39013 -3.05859,0.52344 l -1.13282,0.16211 v 2.46875 l 1.53516,0.66406 V 154 h -3.56836 v -0.23438 c 0,-1.43098 0.0139,-2.62596 0.041,-3.57617 0.0273,-0.95484 0.055,-1.75389 0.082,-2.40625 0.052,-0.61984 0.10344,-1.12085 0.15234,-1.49218 0.0746,-0.39243 0.16074,-0.75691 0.25586,-1.08985 l 0.30664,-1.07422 -1.00976,-0.48047 c -0.55554,-0.26453 -1.03553,-0.51314 -1.44336,-0.74218 h -0.002 l -0.002,-0.002 h -0.002 -0.002 l -0.002,-0.002 v -0.002 h -0.002 c -0.40185,-0.25178 -0.79084,-0.50296 -1.16797,-0.75391 l -0.006,-0.004 c -0.34864,-0.24928 -0.69987,-0.52641 -1.05469,-0.83007 -0.003,-0.003 -0.006,-0.005 -0.01,-0.008 -0.37581,-0.34913 -0.78741,-0.73408 -1.24219,-1.16211 l -0.95703,-0.90234 -0.90625,0.95508 c -0.96518,1.01879 -1.89565,1.89476 -2.78711,2.62891 -0.30222,0.24888 -0.70558,0.50324 -1.03711,0.7539 v -1.2207 l -1.43945,-2.39844 -0.94922,0.23633 c -0.86784,0.21696 -1.86475,0.44904 -2.98633,0.69531 -0.003,6.5e-4 -0.005,9.5e-4 -0.008,0.002 -1.10334,0.21479 -2.12544,0.39013 -3.0586,0.52344 l -1.13281,0.16211 v 2.46875 l 1.53516,0.66406 V 154 h -3.08594 l 0.0879,-1.05469 -1.85156,0.55078 c -1.43322,0.42693 -2.57677,0.9864 -3.38282,1.87305 l -0.01,0.0117 -0.0117,0.0137 c -0.40346,0.46716 -0.53296,1.09466 -0.76172,1.66992 -0.17082,-0.0156 -0.29568,-0.0238 -0.48828,-0.043 -0.52557,-0.0787 -1.06531,-0.15568 -1.61523,-0.23437 l -0.0176,-0.004 c -0.56207,-0.10717 -1.0962,-0.2136 -1.60352,-0.32031 l -0.0137,-0.004 c -0.0413,-0.009 -0.0561,-0.0179 -0.0957,-0.0273 0.0326,-0.31888 0.0589,-0.58515 0.0976,-0.94727 0.0477,-0.44511 0.0637,-0.9044 0.0937,-1.35742 1.3243,-0.20966 2.65523,-0.41291 4.03321,-0.58789 l 0.01,-0.002 0.01,-0.002 c 1.71877,-0.24554 3.40913,-0.43611 5.07031,-0.57227 l 1.74219,-0.14258 -0.61328,-1.63672 c -0.13858,-0.36954 -0.27781,-0.84107 -0.40625,-1.40625 -0.12807,-0.56347 -0.2306,-1.1572 -0.3086,-1.78125 -0.0807,-0.64512 -0.14936,-1.29066 -0.20312,-1.93554 v -0.004 c -0.0528,-0.66108 -0.0781,-1.26251 -0.0781,-1.80078 0,-0.69852 0.042,-1.25768 0.10742,-1.65039 l 0.2461,-1.48633 -1.50391,-0.0508 c -1.60402,-0.0544 -3.2231,-0.14948 -4.85547,-0.28516 -0.009,-8.5e-4 -0.0129,-9.5e-4 -0.0215,-0.002 -1.62134,-0.16269 -2.97939,-0.35149 -4.05078,-0.56055 l -0.6875,-0.13476 -0.49805,0.49609 c -0.91108,0.91108 -1.82051,1.65285 -2.72461,2.23047 l -0.008,0.004 -0.006,0.006 c -0.82024,0.53901 -1.72586,0.90016 -2.75586,1.09179 l -0.81445,0.15039 c 0.0734,-0.0848 0.13307,-0.19278 0.20898,-0.27343 l 0.35938,-0.38086 v -2.00977 h -5.85547 v -0.88086 c 0,-0.20028 0.0138,-0.61123 0.041,-1.18359 v -0.002 c 0.0266,-0.58675 0.0676,-1.18879 0.1211,-1.80468 v -0.002 -0.002 c -4e-5,-8.1e-4 0,-0.005 0,-0.006 0.08,-0.63809 0.16059,-1.2394 0.24023,-1.79687 0.0756,-0.52906 0.17432,-0.89577 0.20899,-0.98243 l 1.3457,-3.36132 -3.19336,1.70703 c -1.15295,0.61669 -2.22886,1.12061 -3.22461,1.51367 -0.91435,0.36093 -1.92618,0.58323 -3.05078,0.6582 l -2.521486,0.16797 1.476566,1.8457 h -0.002 v 0.002 0.002 c 0.004,0.0252 0.0866,0.18821 0.12891,0.41406 l 0.002,0.008 0.002,0.008 c 0.0731,0.36553 0.1355,0.79738 0.1875,1.29101 l 0.002,0.004 v 0.004 c 0.0527,0.47425 0.0928,0.94795 0.11914,1.42187 l 0.002,0.041 0.004,0.041 c 0.0526,0.44672 0.0742,0.77143 0.0742,0.88281 v 0.62305 c -0.84326,0.6884 -1.697448,1.28545 -2.601565,1.63477 l -0.84375,0.32617 v 2.68164 h 3.445315 V 154 h -4.480471 c -0.02789,-0.65455 -0.04297,-1.45353 -0.04297,-2.39453 0,-1.98532 0.05776,-3.48024 0.158203,-4.44531 0.08495,-0.63693 0.276057,-0.9929 0.455079,-1.37696 h 0.08594 l 0.283203,-0.93945 -2.152344,-1.03906 0.888672,-0.66016 c -1.256993,0 -2.252485,-0.2127 -3.029297,-0.57617 -0.52851,-0.27411 -1.066186,-0.64633 -1.609375,-1.12891 v -5.54492 c 0.139787,-0.1261 0.277898,-0.25049 0.414063,-0.37305 0.532855,-0.47956 1.019591,-0.88768 1.455078,-1.2207 l 0.01758,-0.0137 0.01953,-0.0156 c 0.45378,-0.3737 0.798615,-0.63397 0.972657,-0.75 l 1.777343,-1.18554 -1.855468,-1.0586 c -0.143547,-0.082 -0.418862,-0.25379 -0.763672,-0.47461 -0.346466,-0.26599 -0.71625,-0.54143 -1.109375,-0.83007 -0.367346,-0.28864 -0.72039,-0.57595 -1.060547,-0.86329 -0.282882,-0.26117 -0.483736,-0.47896 -0.568359,-0.59179 z m -41.078125,9.72852 c 0.07496,0.45734 0.124514,0.86817 0.230468,1.38281 l 0.002,0.004 v 0.004 c 0.198504,0.9358 0.425185,1.88425 0.679687,2.84571 l 0.002,0.006 v 0.004 c 0.250915,0.92003 0.502653,1.81231 0.753906,2.67774 l 0.002,0.006 0.002,0.006 c 0.20247,0.6749 0.374659,1.20097 0.544922,1.70703 -0.218972,0.51419 -0.434337,1.00892 -0.605469,1.71484 l -0.0039,0.0176 -0.0039,0.0195 c -0.199225,0.9392 -0.383492,1.94376 -0.552734,3.01563 l -0.002,0.0137 -0.002,0.0156 c -0.141535,1.04736 -0.25489,2.09481 -0.339844,3.14258 -0.05918,0.71087 -0.07152,1.22141 -0.08984,1.75781 -0.549166,0.29403 -1.107145,0.56456 -1.615234,0.9668 -0.501886,0.39733 -0.848288,0.89288 -1.230469,1.36523 -0.193516,-0.0313 -0.351845,-0.0548 -0.574219,-0.0918 -0.457653,-0.10743 -0.925618,-0.21503 -1.408203,-0.32227 -0.487192,-0.10826 -0.960289,-0.21615 -1.419922,-0.32422 l -0.01758,-0.004 c -0.05161,-0.0129 -0.07398,-0.0207 -0.123047,-0.0332 -0.128141,-1.71787 -0.242947,-3.41328 -0.3125,-5.03125 -0.05504,-1.95423 -0.08203,-3.81048 -0.08203,-5.56836 0,-1.82031 0.01349,-3.52809 0.04102,-5.125 v -0.002 c 0.02125,-1.25356 0.05824,-2.2856 0.0957,-3.30469 0.362879,-0.094 0.698505,-0.20376 1.099609,-0.27539 l 0.01758,-0.004 0.01758,-0.004 c 0.762973,-0.15786 1.509835,-0.27526 2.240235,-0.35352 l 0.01953,-0.002 0.01953,-0.002 c 0.76868,-0.10604 1.462877,-0.17173 2.076172,-0.19727 h 0.02539 l 0.02539,-0.002 c 0.204679,-0.0164 0.308559,-0.0142 0.488282,-0.0254 z m 30.234375,5.83789 0.27539,1.18555 c 0.208203,0.89229 0.450303,1.64964 0.757813,2.29882 l 0.01172,0.0254 0.01172,0.0254 c 0.329263,0.62559 0.712873,1.16664 1.189453,1.60351 l 0.02344,0.0215 0.02344,0.0195 c 0.459609,0.383 0.991389,0.67276 1.5625,0.83593 l 0.05078,0.0156 0.05273,0.01 c 0.509248,0.10185 1.039666,0.15039 1.587891,0.15039 0.847668,0 1.783349,-0.16537 2.876953,-0.46094 0.445124,-0.1203 0.853662,-0.30778 1.285156,-0.45313 v 1.35938 c -0.214971,0.084 -0.361236,0.16453 -0.634766,0.24805 -0.560282,0.15189 -1.191715,0.2949 -1.898437,0.42578 -0.700438,0.12971 -1.446383,0.23307 -2.234375,0.3125 -0.767498,0.0525 -1.521823,0.0801 -2.259766,0.0801 -0.668956,0 -1.274428,-0.0377 -1.814453,-0.11132 l -2.271484,-0.31055 0.873047,2.11914 c 0.142726,0.34662 0.257499,0.77895 0.328125,1.29688 v 0.004 0.004 c 0.04154,0.29082 0.07144,0.59748 0.08984,0.91992 h -8.779296 v -1.34961 l 2.589843,-3.64258 3.046875,1.59375 0.683594,-0.78711 c 0.672025,-0.77282 1.202383,-1.70238 1.607422,-2.76172 l 0.002,-0.006 0.002,-0.006 c 0.400628,-1.07862 0.67112,-2.24678 0.820313,-3.5 z m 16.267578,1.6582 c -0.0127,0.0209 -0.01296,0.0511 -0.02539,0.0723 l -0.04297,-0.0215 z m 18.845705,0.66211 0.27344,0.90039 c 0.16584,0.54492 0.35459,1.39274 0.54296,2.4961 l 0.004,0.0176 0.002,0.0176 c 0.19615,0.98075 0.30664,2.30467 0.30664,3.93555 0,0.58116 -0.0224,1.22754 -0.0684,1.9375 h -5.86718 v -6.83398 l 3.62109,0.45703 0.28516,-1.13672 c 0.10315,-0.41263 0.28682,-0.86379 0.5625,-1.34961 0.10253,-0.16456 0.22879,-0.28848 0.33789,-0.44141 z m 63.70898,2.08203 2.68946,0.53516 -2.68946,1.08984 z m -55.08398,0.14453 c 0.27428,0.0527 0.52109,0.13147 0.80469,0.17579 l 0.0215,0.002 0.0234,0.004 c 0.47641,0.0577 0.83185,0.0584 1.24609,0.0879 0.0218,0.27054 0.0183,0.54785 0.0547,0.81445 l 0.004,0.0293 0.004,0.0293 c 0.0337,0.18544 0.0789,0.35215 0.11524,0.53321 l -2.08985,0.51757 c -0.0234,-0.31057 -0.0318,-0.58441 -0.0625,-0.91211 -0.0238,-0.37527 -0.0834,-0.86292 -0.12109,-1.28125 z m -33.988283,7.27149 v 2.48437 c -0.346839,-0.0463 -0.759576,-0.14897 -1.072266,-0.16211 h -0.0039 c -0.197366,-0.009 -0.38376,-0.0277 -0.578125,-0.0391 l 0.03711,-1.87304 c 0.317345,-0.0646 0.588743,-0.0917 0.943359,-0.1836 l 0.02148,-0.006 0.02148,-0.006 c 0.204104,-0.0605 0.423489,-0.14867 0.63086,-0.21484 z"
       sodipodi:nodetypes="cscccccccccscscccccscccsscsccccccsccccscccccccccccccccscccccscccccccccccccccssccccccccccscccsccscccccccccccccccccccccssccccccccccccccccsccccccccccccscccssccccccccccccsscccscccsccccccccccscccsccccccccccccccccccccccccscccscccccccccccccssccccssccccccccssccccccscccsccccsccccssccsscccccccccccccccccscccccscsccccccscsssccscccccccccssccccccccscccssccccccccccccsccccccscccccccccccccccccccccsccccsccsccscccccccsccccccccccccccsccccccsccccscccccccccccccccccccccccccccscccscccccccccccccccccsccccccscccscccccccccccccccscccccccsccccccccccccccccccccccccccccccccccccccccsccsccccsccccccccccccccccccscscccsscccscsccccccccccccccccccccccccccsccccccccccccccccccccccccccccccccccccc"
       inkscape:label="text" /><g
       id="path1-4"
       style="opacity:1" /><path
       id="path4"
       style="baseline-shift:baseline;display:inline;overflow:visible;opacity:1;fill:none;stroke:#000000;stroke-width:0.188976;stroke-dasharray:none;stroke-opacity:1;enable-background:accumulate;stop-color:#000000;stop-opacity:1"
       d="m 83.417968,32.820312 c -0.205708,0.0028 -0.423926,0.01212 -0.65039,0.0332 -0.905856,0.08432 -2.216711,0.442925 -2.986328,1.640625 -0.934789,1.45473 -1.018209,3.398702 0.03906,4.910156 1.373337,1.963356 3.20089,3.000101 4.097656,4.017578 1.016941,1.153826 1.992571,3.264517 3.916016,4.83789 -0.228458,0.707221 -0.381147,1.371564 -0.503906,1.917969 -0.217599,0.968548 -0.404324,1.59705 -0.9375,2.234375 -1.522977,1.820476 -2.710734,2.322099 -3.78711,2.373047 -1.076377,0.05095 -2.307665,-0.428751 -3.677734,-1.423828 C 76.187596,51.37117 73.36412,47.55229 70.82031,44.953121 L 70.253906,44.375 h -1.833984 l -0.53711,0.451172 c -1.904108,1.600657 -2.821993,3.870912 -2.941406,6.121093 -0.119412,2.25018 0.462728,4.52294 1.423828,6.642579 1.922202,4.239277 5.261972,8.010948 9.232422,9.207031 2.262809,0.681663 4.460264,0.31573 6.373047,0.125 1.912784,-0.19073 3.473419,-0.201374 4.429687,0.267578 1.708419,0.837804 3.835533,3.625442 5.980469,5.734375 0.361015,0.354957 0.95416,1.020144 1.738281,1.628906 0.784121,0.608763 1.889366,1.290068 3.34375,1.126953 0.07546,-0.0085 0.116985,-0.05434 0.189453,-0.06641 0.0761,0.773876 0.06575,1.581967 0.396485,2.25 1.030074,2.080618 2.754002,3.48447 4.548832,5.279297 2.47049,2.470491 4.87475,5.654874 7.81836,8.246094 2.40792,2.119675 5.21483,3.685339 6.24023,5.49414 0.2665,0.470119 0.44812,1.92322 0.35742,3.580082 -0.0907,1.65686 -0.35585,3.43704 -0.26172,5.07813 0.1801,3.13952 2.07924,5.69766 3.72071,7.55664 2.91601,3.3025 6.81517,5.16923 10.91796,5.97461 0.39824,0.0782 0.97763,0.31331 1.81055,0.48828 0.83293,0.17496 2.05292,0.19218 3.14258,-0.40625 0.92364,-0.50726 1.69633,-1.29647 2.02539,-2.25977 0.32906,-0.9633 0.18815,-1.91623 -0.0781,-2.66406 -0.53259,-1.49567 -1.51537,-2.54754 -2.22657,-3.35938 -1.387,-1.58327 -3.26538,-3.61786 -4.47265,-5.63086 -1.20727,-2.01299 -1.62336,-3.6654 -0.94532,-5.02148 0.3322,-0.664409 0.90404,-1.382426 1.54688,-2.019536 1.1992,-1.188462 2.15562,-1.608227 2.99023,-1.716796 0.83462,-0.108569 1.67215,0.08974 2.65235,0.609375 1.96039,1.039271 4.17475,3.411217 6.31054,5.546877 0.51067,0.51064 1.91053,2.06604 3.61524,3.09766 0.85235,0.51581 1.85996,1.02962 3.19922,0.8164 1.33926,-0.21321 2.4648,-1.4708 2.86328,-2.83398 1.02363,-3.50172 0.27217,-7.288319 -1.26758,-10.625004 -1.53975,-3.336685 -3.88402,-6.277819 -6.625,-8.083985 -2.70134,-1.780063 -5.7647,-1.92189 -8.47266,-2.027343 -2.70795,-0.105453 -5.11099,-0.201005 -6.74804,-1.019532 -1.17621,-0.588098 -2.42367,-2.509607 -4.43555,-4.158203 -1.62775,-1.333844 -3.03003,-1.452953 -3.51758,-1.835937 -3.1526,-2.476475 -5.68874,-6.231251 -8.77148,-9.5625 -4.18307,-4.520278 -9.05943,-7.850585 -12.59571,-12.119141 -0.2773,-0.334719 -0.56469,-1.572198 -0.52734,-3.154297 0.0374,-1.582098 0.29318,-3.326676 0.21484,-4.925781 -0.17832,-3.639408 -2.469574,-6.600797 -4.808589,-8.61914 -2.995639,-2.584942 -7.24799,-4.605787 -11.435547,-4.714844 -0.195347,-0.0051 -0.485311,-0.03077 -0.839844,-0.04492 -0.177266,-0.0071 -0.370464,-0.01066 -0.576172,-0.0078 z m 1.238282,5.548829 c 3.11903,2.065596 12.660999,8.631074 6.392578,12.464843 0.82405,-3.152824 0.194422,-5.941704 -2.242188,-8.28125 -1.23663,-1.187368 -3.69157,-2.50283 -4.15039,-4.183593 z M 69.634765,50.513672 c 2.96081,2.960802 5.420182,6.67575 9.908203,6.71289 v 0.638672 c -3.982321,0 -9.319443,-2.802659 -9.908203,-7.351562 z m 27.28125,7.513672 c 1.086343,-0.0085 2.190422,0.397948 2.990235,1.164062 2.94235,2.818376 5.51559,6.113241 8.24609,9.128906 2.09852,2.31767 4.85242,4.595261 6.22852,7.44336 h -0.32031 c -3.50513,-4.305273 -7.51489,-8.249459 -11.14453,-12.464844 -2.36371,-2.745176 -4.481566,-5.276783 -8.351567,-4.474609 0.672923,-0.532481 1.506629,-0.790267 2.351562,-0.796875 z m -2.990234,1.117187 c -1.88371,5.006264 -1.115671,5.59562 1.917969,9.90625 -4.02543,-1.877379 -5.284199,-6.795896 -1.917969,-9.90625 z m 2.236328,0.638672 3.515625,2.236328 -5.433594,0.958984 c 0.359,-1.359017 0.816721,-2.010266 2.238282,-2.236328 z m 6.392581,3.835937 7.03125,8.628907 c -2.04779,-1.442499 -7.57549,-5.825563 -7.03125,-8.628907 z m -3.195315,0.957032 c -1.03085,2.062187 -3.584822,2.445216 -4.794922,0.320312 z m 2.236325,10.228515 c 1.73338,1.73224 3.45605,3.733231 6.07227,3.835938 l 0.32031,0.318359 c 0.17228,1.377046 1.28702,2.066275 2.00195,3.197266 1.58057,2.500396 3.3799,6.318419 6.62696,7.107422 1.90081,0.461868 3.65263,-0.632758 5.43359,-1.035157 -6.13005,6.706371 -11.27704,-3.948279 -14.70117,-7.349609 -1.70141,-1.690082 -5.17323,-3.678628 -5.75391,-6.074219 z m 17.89844,6.072266 -3.83594,5.433594 c -2.18226,-2.881106 1.09277,-5.408774 3.83594,-5.433594 z m 1.2793,1.597656 c 1.3016,3.085422 -0.41556,4.208263 -3.19727,5.115234 z m 16.07617,2.787109 c 3.0724,-0.113782 6.65901,1.726176 8.21289,3.925782 l -10.22656,-3.515625 c 0.62278,-0.254007 1.30465,-0.383899 2.01367,-0.410157 z m -10.64453,13.513672 -0.47071,3.83594 7.50391,11.50586 c -4.06245,-2.92228 -10.83332,-10.26166 -7.0332,-15.3418 z"
       inkscape:label="znak"
       sodipodi:nodetypes="csscscssssccccsssssssccsssssscsssscssscssssssssssssssccssssccsccsccscsccscscccccccccccccccccsscsccccccccccsccccc" /></g></svg>
