<?xml version="1.0" encoding="UTF-8" standalone="no"?>
<svg
   version="1.2"
   viewBox="0 0 219.2126 219.2126"
   width="58mm"
   height="58mm"
   id="svg1"
   sodipodi:docname="DrbnaRoleTokenLaser.svg"
   inkscape:version="1.4.2 (f4327f4, 2025-05-13)"
   xml:space="preserve"
   xmlns:inkscape="http://www.inkscape.org/namespaces/inkscape"
   xmlns:sodipodi="http://sodipodi.sourceforge.net/DTD/sodipodi-0.dtd"
   xmlns="http://www.w3.org/2000/svg"
   xmlns:svg="http://www.w3.org/2000/svg"><sodipodi:namedview
     id="namedview1"
     pagecolor="#ffffff"
     bordercolor="#666666"
     borderopacity="1.0"
     inkscape:showpageshadow="2"
     inkscape:pageopacity="0.0"
     inkscape:pagecheckerboard="0"
     inkscape:deskcolor="#d1d1d1"
     inkscape:zoom="2.4619286"
     inkscape:cx="85.502073"
     inkscape:cy="101.7495"
     inkscape:window-width="1920"
     inkscape:window-height="1057"
     inkscape:window-x="-8"
     inkscape:window-y="-8"
     inkscape:window-maximized="1"
     inkscape:current-layer="layer2"
     inkscape:document-units="mm"
     showgrid="false" /><defs
     id="defs1"><clipPath
       clipPathUnits="userSpaceOnUse"
       id="cp1"><path
         d="m 275.5,535.5 c -143.78,0 -260,-116.22 -260,-260 0,-143.78 116.22,-260 260,-260 143.78,0 260,116.22 260,260 0,143.78 -116.22,260 -260,260 z"
         id="path1" /></clipPath></defs><style
     id="style1">
		tspan { white-space:pre } 
		.s0 { fill: none;stroke: #ff0000;stroke-miterlimit:100 } 
	</style><g
     inkscape:groupmode="layer"
     id="layer2"
     inkscape:label="Content"><g
       inkscape:groupmode="layer"
       id="layer4"
       inkscape:label="Kruh"
       style="display:inline"><path
         id="path2"
         style="fill:none;stroke:#000000;stroke-width:0.189192"
         d="M 219.118,109.6063 A 109.5117,109.5117 0 0 1 109.6063,219.118 109.5117,109.5117 0 0 1 0.09459686,109.6063 109.5117,109.5117 0 0 1 109.6063,0.09459686 109.5117,109.5117 0 0 1 219.118,109.6063 Z"
         inkscape:label="Vnejsi kruh" /><path
         id="circle2"
         style="fill:none;stroke:#000000;stroke-width:0.188976"
         d="M 208.69732,109.6063 A 99.091019,99.091019 0 0 1 109.6063,208.69732 99.091019,99.091019 0 0 1 10.515282,109.6063 99.091019,99.091019 0 0 1 109.6063,10.515282 99.091019,99.091019 0 0 1 208.69732,109.6063 Z"
         inkscape:label="Vnitrni kruh" /></g><g
       id="text2-9"
       inkscape:label="Text"
       style="opacity:1" /><path
       id="path10"
       style="opacity:1;font-size:41.5223px;font-family:'New Rocker';-inkscape-font-specification:'New Rocker';letter-spacing:0.769167px;baseline-shift:baseline;white-space:pre;display:inline;overflow:visible;enable-background:accumulate;stop-color:#000000;stop-opacity:1;fill:none;stroke:#000000;stroke-opacity:1;stroke-width:0.18897638;stroke-dasharray:none"
       d="M 109.16406 128.36328 C 108.05247 128.89261 107.01976 129.29507 106.07422 129.57617 L 106.07031 129.57812 L 106.06641 129.58008 C 105.17766 129.85164 104.35278 129.97852 103.58594 129.97852 C 102.9526 129.97852 102.44915 129.89432 102.07031 129.76172 L 98.892578 128.65039 L 100.46875 131.625 C 100.69452 132.05145 100.87762 132.45814 101.02148 132.8418 C 101.15901 133.20853 101.26284 133.58449 101.33203 133.97656 L 101.33789 134.01367 L 101.3457 134.05078 C 101.4356 134.43289 101.49727 134.86503 101.52148 135.34961 C 101.54778 135.87586 101.56055 136.4779 101.56055 137.15234 L 101.56055 151.51953 C 101.56055 152.45652 101.55282 153.33252 101.53711 154.14453 L 91.845703 154.14453 L 91.845703 153.31055 L 94.433593 149.66992 L 97.482422 151.26172 L 98.166015 150.47656 C 98.838039 149.70374 99.368398 148.77418 99.773437 147.71484 L 99.77539 147.70898 L 99.777343 147.70312 C 100.17797 146.62451 100.44846 145.45439 100.59766 144.20117 L 100.73633 143.0332 L 99.59375 142.76172 C 98.473668 142.49503 97.454585 142.2025 96.537109 141.88867 C 95.628829 141.55035 94.948566 141.22851 94.552734 140.97852 L 93.175781 140.10742 L 92.609375 141.63672 C 92.374625 142.27192 92.100806 142.83417 91.845703 143.43164 L 91.845703 143.01562 L 90.408203 140.61719 L 89.458984 140.85547 C 88.588868 141.073 87.59003 141.30574 86.464843 141.55273 C 85.360725 141.7677 84.339984 141.94083 83.40625 142.07422 L 82.271484 142.23633 L 82.271484 144.70508 L 83.808593 145.36914 L 83.808593 154.14453 L 79.451172 154.14453 C 79.461992 153.92022 79.475147 153.68585 79.490234 153.44336 C 79.570574 152.59209 79.677155 151.72609 79.810547 150.8457 C 79.969953 149.97226 80.141991 149.14028 80.326172 148.34961 C 80.530513 147.56093 80.756234 146.93675 80.972656 146.50391 L 81.199218 146.04883 L 81.0625 145.55859 C 80.672206 144.16468 80.323687 143.00296 80.009765 142.06055 L 80.005859 142.05078 C 79.709229 141.13347 79.454158 140.28647 79.240234 139.51172 C 79.03006 138.72356 78.846584 137.90726 78.6875 137.0625 C 78.63262 136.69858 78.59946 136.13411 78.552734 135.68945 L 78.554687 135.68945 L 78.36914 133.83203 L 78.365234 133.7832 L 77.396484 132.64062 C 76.125465 132.29639 74.850517 131.85877 73.572265 131.32617 C 72.287403 130.79081 71.249889 130.274 70.474609 129.79883 L 70.054687 129.54102 L 69.568359 129.62305 C 68.446303 129.81005 67.324351 129.95693 66.203125 130.06445 L 66.201172 130.06445 C 65.053885 130.14635 63.822474 130.21464 62.505859 130.26953 C 61.185633 130.29703 59.74447 130.32416 58.177734 130.35156 L 49 130.35156 L 52.130859 132.72461 C 53.023482 133.40084 53.743381 133.99011 54.283203 134.47852 L 54.294922 134.48828 L 54.30664 134.49805 C 54.832097 134.95185 55.20525 135.39026 55.449219 135.79687 L 55.46875 135.83203 L 55.492187 135.86328 C 55.756424 136.24947 55.935068 136.6642 56.039062 137.14258 C 56.150479 137.65509 56.216797 138.32942 56.216797 139.14648 C 56.216797 139.84928 56.203121 140.63901 56.175781 141.51367 C 56.149441 142.32815 56.083191 143.12705 55.978515 143.91211 L 55.976562 143.93164 L 55.974609 143.95117 C 55.898749 144.68446 55.773491 145.35367 55.603515 145.96289 C 55.44559 146.50159 55.252537 146.82021 55.15039 146.93164 L 54.423828 147.72461 L 55.054687 148.59766 C 55.310579 148.95197 55.524846 149.39789 55.683594 149.96484 L 55.691406 149.99609 L 55.703125 150.02734 C 55.895014 150.60302 56.026577 151.20494 56.099609 151.83789 L 56.103515 151.86133 L 56.107422 151.88672 C 56.208481 152.5436 56.257812 153.18108 56.257812 153.80273 L 56.257812 153.83008 L 56.257812 153.85547 C 56.284932 154.53346 56.298828 155.14024 56.298828 155.67187 C 56.298828 155.96155 56.206048 156.37502 55.939453 156.9082 L 55.935547 156.91797 L 55.929687 156.92969 C 55.663558 157.48614 55.333214 158.03678 54.9375 158.58203 C 54.534375 159.10987 54.124086 159.58188 53.707031 160 C 53.292272 160.38745 50.260555 163.11231 50.140625 163.17773 L 53.466797 163.17773 C 56.76536 163.17773 59.849136 163.36904 62.71875 163.74805 C 65.581845 164.15019 68.067371 164.81747 70.175781 165.72852 L 71.113281 166.13281 L 71.740234 165.32617 C 72.86096 163.88524 73.983935 162.67322 75.101562 161.68555 L 75.107422 161.67969 L 75.115234 161.67383 C 76.132548 160.75115 77.284323 160.17843 78.667968 159.91602 L 80.123047 159.64062 L 79.68164 158.22656 C 79.572363 157.87689 79.494392 157.49596 79.447265 157.08398 C 79.426444 156.69497 79.413348 156.29771 79.410156 155.88867 L 83.808593 155.88867 L 83.808593 158.99414 C 83.808593 159.63156 83.716313 160.06769 83.632812 160.26562 C 83.591062 160.36462 83.57169 160.4022 83.5625 160.41406 L 83.560547 160.41602 L 83.558593 160.41602 L 83.558593 160.41797 L 83.55664 160.41797 L 83.554687 160.41797 L 83.554687 160.41602 L 83.552734 160.41602 L 83.552734 160.41406 L 83.550781 160.41406 L 83.548828 160.41406 L 82.6875 160.73242 L 82.6875 163.59375 L 94.21289 163.59375 L 94.21289 160.4375 L 93.097656 160.26367 C 92.416162 160.15718 92.145935 159.96514 92.070312 159.89062 C 92.008232 159.79172 91.845703 159.40341 91.845703 158.61914 L 91.845703 155.88867 L 101.48828 155.88867 C 101.44756 156.95672 101.38955 157.88176 101.31641 158.66211 C 101.1598 160.3326 100.8326 161.52891 100.47656 162.18164 L 98.763672 165.32031 L 102.10547 164.04687 C 102.57931 163.86636 103.15001 163.7204 103.82031 163.62109 C 104.54467 163.51787 105.17574 163.46875 105.70312 163.46875 C 106.46466 163.46875 107.38546 163.57912 108.44922 163.8125 L 108.45117 163.8125 C 109.54809 164.08072 110.70206 164.40223 111.91406 164.7793 L 112.5293 164.9707 L 113.06055 164.60352 C 113.64677 164.19571 114.27465 163.81042 114.94336 163.44922 C 115.65703 163.10632 116.3684 162.78995 117.08008 162.5 C 117.79393 162.20917 118.49192 161.95921 119.17187 161.75 C 119.85067 161.54114 120.46506 161.38846 121.01172 161.28906 L 122.82422 160.95898 L 121.92969 159.34961 C 121.88909 159.27651 121.80681 159.06302 121.74219 158.75 L 121.74219 158.74805 L 121.74219 158.74609 L 121.74219 158.74414 C 121.67259 158.3717 121.60547 157.84513 121.55273 157.18555 C 121.52209 156.8028 121.49494 156.37051 121.47266 155.88867 L 124.58594 155.88867 L 124.58594 158.99414 C 124.58594 159.64353 124.4763 160.06302 124.39258 160.23047 L 124.38477 160.24609 L 124.37695 160.26172 C 124.32335 160.37661 124.29044 160.4199 124.27734 160.43359 L 124.27539 160.43359 L 124.27539 160.43555 L 124.27539 160.4375 L 124.27344 160.4375 L 124.27344 160.43555 L 123.46484 160.77148 L 123.46484 163.59375 L 133.74414 163.59375 L 133.74414 160.73242 L 132.9043 160.42187 C 132.8921 160.39947 132.86547 160.34527 132.82227 160.22852 C 132.72112 159.95504 132.62305 159.39684 132.62305 158.61914 L 132.62305 150.54883 L 135.63086 149.20312 L 135.63086 152.73437 L 135.63086 152.74609 C 135.65836 154.31623 135.67187 155.8869 135.67187 157.45703 C 135.67187 157.68158 135.64785 158.17095 135.59375 158.84766 C 135.53925 159.52924 135.47099 160.28224 135.38867 161.10547 C 135.30877 161.87646 135.20143 162.64811 135.06836 163.41992 L 135.06836 163.42383 L 135.06641 163.42773 C 134.93426 164.22065 134.79133 164.86549 134.64844 165.3418 L 134.42187 166.0957 L 136.19336 167.86914 L 137.12695 166.86914 C 137.4817 166.48906 137.895 166.0877 138.36719 165.66797 C 138.82996 165.25661 139.31929 164.85721 139.83594 164.46875 L 139.8457 164.46289 C 140.39292 164.07237 140.92249 163.72438 141.43555 163.41602 C 141.95247 163.12133 142.44358 162.89309 142.9082 162.73047 L 143.99219 162.35156 L 143.76758 161.22656 C 143.71508 160.96432 143.66218 160.68648 143.60937 160.39648 C 143.56577 160.13474 143.52587 159.76073 143.5 159.29492 C 143.4737 158.82222 143.44672 158.20059 143.41992 157.45703 L 143.41992 157.45508 L 143.41992 155.88867 L 146.11328 155.88867 C 146.10691 156.81872 146.08169 157.74763 146.03516 158.67773 C 145.98476 159.65993 145.83107 160.42788 145.62305 160.96875 L 144.94531 162.73047 L 146.83203 162.76367 C 148.35246 162.78987 149.67293 162.95966 150.79102 163.25781 L 150.79492 163.25977 L 150.79883 163.25977 C 151.95879 163.56237 152.99848 163.99924 153.93555 164.56641 L 154.9082 165.1543 L 157.30273 162.27344 C 157.39483 162.4086 157.44391 162.55153 157.54297 162.68555 C 158.09188 163.42819 158.72907 164.05376 159.45117 164.53516 L 160.69531 165.36328 L 161.36328 164.02734 C 161.47691 163.80009 161.68582 163.46707 161.98633 163.06641 C 162.2789 162.6763 162.61063 162.29367 162.98437 161.91992 C 163.36849 161.53581 163.74776 161.19515 164.12109 160.89648 L 164.125 160.89258 L 164.12891 160.89062 C 164.48986 160.59735 164.79 160.43144 164.98633 160.36133 L 165.86328 160.04883 L 165.86328 157.61133 L 164.83984 157.375 C 164.63666 157.3281 164.51968 157.27035 164.42773 157.2168 L 164.42578 157.21484 L 164.42578 157.21289 C 164.41678 157.19799 164.37238 157.13119 164.3125 156.94727 C 164.21208 156.60256 164.10986 156.05533 164.0332 155.35547 C 163.9819 154.60353 163.95312 153.57056 163.95312 152.26758 C 163.95312 150.28139 164.01082 148.78533 164.11133 147.82031 C 164.23112 146.92216 164.47024 146.28667 164.75391 145.87891 L 164.93359 145.62109 L 165.19336 143.80469 L 163.67187 143.80469 C 162.41488 143.80469 161.41939 143.59394 160.64258 143.23047 C 159.84795 142.81833 159.0309 142.18392 158.20703 141.28516 L 157.48828 140.5 L 156.56836 141.03906 C 155.93588 141.40983 154.9149 141.80155 153.55078 142.14258 C 152.25039 142.46768 150.63629 142.64258 148.72266 142.64258 L 148.35937 142.64258 C 148.08069 142.55408 147.94753 142.60156 147.76758 142.60156 L 146.10547 142.60156 L 146.48242 144.2207 C 146.69062 145.113 146.93272 145.8723 147.24023 146.52148 L 147.25195 146.54492 L 147.26367 146.57031 C 147.59294 147.1959 147.97655 147.73696 148.45312 148.17383 L 148.47656 148.19531 L 148.5 148.21484 C 148.95961 148.59785 149.49139 148.88761 150.0625 149.05078 L 150.11328 149.06641 L 150.16602 149.07617 C 150.67527 149.17802 151.20568 149.22656 151.75391 149.22656 C 152.60157 149.22656 153.53725 149.06119 154.63086 148.76562 C 155.07586 148.64535 155.48464 148.45975 155.91602 148.31445 L 155.91602 149.67187 C 155.70097 149.75587 155.55492 149.83637 155.28125 149.91992 C 154.72097 150.07181 154.08953 150.21482 153.38281 150.3457 C 152.6768 150.47644 151.92582 150.58246 151.13086 150.66211 L 151.12891 150.66211 L 151.12695 150.66211 L 151.125 150.66211 C 150.36514 150.71371 149.61953 150.74023 148.88867 150.74023 C 148.21972 150.74023 147.61424 150.70063 147.07422 150.62695 L 144.80273 150.31641 L 145.67578 152.4375 C 145.81851 152.78412 145.93328 153.2145 146.00391 153.73242 L 146.00391 153.73633 L 146.00391 153.74023 C 146.02264 153.87136 146.03864 154.00697 146.05273 154.14453 L 143.41992 154.14453 C 143.42164 152.83819 143.43564 151.73862 143.46094 150.85156 C 143.48824 149.89593 143.51597 149.09405 143.54297 148.44141 C 143.59437 147.82991 143.64311 147.33842 143.69141 146.96875 C 143.76681 146.56981 143.85272 146.19906 143.94922 145.86133 L 144.25586 144.78711 L 143.24805 144.30664 C 142.70147 144.04636 142.22984 143.80409 141.82617 143.57812 C 141.4125 143.31935 141.01258 143.06258 140.625 142.80469 L 140.61914 142.80078 C 140.27445 142.55432 139.92495 142.28202 139.57422 141.98242 C 139.19338 141.6287 138.77503 141.23611 138.3125 140.80078 L 137.35352 139.89844 L 136.44922 140.85352 C 135.48404 141.87231 134.55356 142.75024 133.66211 143.48437 C 133.35916 143.73386 132.95546 143.98896 132.62305 144.24023 L 132.62305 143.01562 L 131.18359 140.61719 L 130.23633 140.85547 C 129.36621 141.073 128.36737 141.30574 127.24219 141.55273 C 126.13806 141.7677 125.11538 141.94083 124.18164 142.07422 L 123.04883 142.23633 L 123.04883 144.70508 L 124.58594 145.36914 L 124.58594 154.14453 L 121.41602 154.14453 C 121.39893 153.33459 121.39062 152.4168 121.39062 151.39453 C 121.39062 150.36578 121.4166 149.35148 121.4707 148.35156 L 121.4707 148.34961 C 121.5207 147.39904 121.68596 146.38018 121.9707 145.29297 L 122.30078 144.0332 L 121.04492 143.6875 C 120.36822 143.50082 119.69253 143.20632 119.01172 142.79297 C 118.34879 142.39047 117.72481 141.87733 117.13672 141.24023 L 116.61719 140.67773 L 115.87109 140.84961 C 115.10441 141.02653 114.33873 141.24776 113.57617 141.51172 C 112.81004 141.77692 112.05987 142.08652 111.32422 142.43945 L 111.32227 142.43945 L 111.32227 142.44141 L 111.32031 142.44141 C 110.71457 142.70944 110.14941 143.01083 109.59766 143.32227 L 109.59766 136.03125 C 109.59766 134.6593 109.69216 133.46873 109.86719 132.46094 C 110.05738 131.51835 110.36968 130.85014 110.74609 130.39844 L 109.16406 128.36328 z M 70.503906 137.19922 C 70.578784 137.65608 70.628535 138.06795 70.734375 138.58203 L 70.734375 138.58594 L 70.736328 138.58984 C 70.934832 139.52564 71.161511 140.47409 71.416015 141.43555 L 71.416015 141.43945 L 71.417969 141.44531 C 71.668884 142.36534 71.920623 143.25762 72.171875 144.12305 L 72.173828 144.12891 L 72.175781 144.13477 C 72.378042 144.80897 72.550585 145.33414 72.720703 145.83984 C 72.501731 146.35404 72.286366 146.84877 72.115234 147.55469 L 72.109375 147.57227 L 72.105469 147.5918 C 71.906243 148.531 71.723929 149.53556 71.554687 150.60742 L 71.550781 150.62305 L 71.548828 150.63672 C 71.407293 151.68408 71.295891 152.73154 71.210937 153.7793 C 71.151647 154.49115 71.139434 155.00206 71.121094 155.53906 C 70.571928 155.83309 70.013948 156.10362 69.505859 156.50586 C 69.003357 156.90368 68.65593 157.39807 68.273437 157.87109 C 68.09031 157.84149 67.939423 157.818 67.730469 157.7832 C 67.263881 157.67356 66.785528 157.56649 66.292969 157.45703 C 65.799754 157.34743 65.320438 157.23636 64.855469 157.12695 C 64.803899 157.11405 64.781459 157.10625 64.732422 157.09375 C 64.604291 155.37598 64.48947 153.68232 64.419922 152.06445 C 64.364872 150.11022 64.335937 148.25397 64.335937 146.49609 C 64.335937 144.67578 64.351376 142.96604 64.378906 141.36914 C 64.400156 140.11541 64.437139 139.08169 64.474609 138.0625 C 64.83711 137.9687 65.173581 137.85865 65.574219 137.78711 L 65.591797 137.78516 L 65.609375 137.78125 C 66.372344 137.62339 67.119213 137.50599 67.849609 137.42773 L 67.86914 137.42578 L 67.888672 137.42187 C 68.657347 137.31583 69.351553 137.2521 69.964844 137.22656 L 69.990234 137.22461 L 70.015625 137.22266 C 70.220508 137.20626 70.324043 137.21031 70.503906 137.19922 z M 162.48242 144.64062 C 162.45472 144.75084 162.43122 144.86397 162.38086 144.95703 L 162.36523 144.93945 L 162.36523 144.9375 L 162.48242 144.64062 z M 113.28711 148.51758 C 113.26801 148.80618 113.24947 149.05667 113.23047 149.36133 L 113.23047 149.38086 L 113.22852 149.40234 C 113.20042 150.30188 113.1875 151.20202 113.1875 152.10156 L 113.1875 155.10742 L 113.1875 155.12695 C 113.2069 155.84447 113.24364 156.34187 113.27734 156.87305 C 113.02611 157.04306 112.77819 157.17039 112.51953 157.38281 C 112.25601 157.58503 112.06296 157.77528 111.83984 157.96875 C 111.33192 157.832 110.84471 157.69272 110.23242 157.57422 C 109.87513 157.50502 109.64015 157.49672 109.33008 157.44922 C 109.39658 156.84063 109.49668 156.31322 109.51367 155.5625 L 109.51367 155.55273 C 109.56977 154.25901 109.59766 152.84744 109.59766 151.3125 L 109.59766 149.64258 C 109.73099 149.58168 109.79519 149.53321 109.96094 149.46875 L 109.99023 149.45898 L 110.01758 149.44531 C 110.45367 149.25149 110.93674 149.07862 111.46484 148.92773 C 112.00359 148.7738 112.55561 148.64419 113.12305 148.54102 L 113.14648 148.53711 L 113.16797 148.5332 C 113.21037 148.5242 113.24517 148.52618 113.28711 148.51758 z M 155.95703 154.85352 L 155.95703 157.33789 C 155.60896 157.29139 155.19455 157.18884 154.88086 157.17578 L 154.88477 157.17773 C 154.68605 157.16873 154.49841 157.15017 154.30273 157.13867 L 154.33984 155.26367 C 154.65714 155.19917 154.92865 155.17197 155.2832 155.08008 L 155.30469 155.07617 L 155.32617 155.06836 C 155.53028 155.00786 155.74966 154.91969 155.95703 154.85352 z " /><path
       id="path9"
       style="display:inline;opacity:1;baseline-shift:baseline;overflow:visible;fill:none;enable-background:accumulate;stop-color:#000000;stop-opacity:1;stroke-width:0.18897638;stroke-dasharray:none;stroke:#000000;stroke-opacity:1"
       d="M 102.32358 17.085424 C 99.830182 17.211232 97.32297 17.528877 94.841153 18.009252 C 84.913885 19.93075 75.312519 24.451532 68.190763 30.056127 C 59.877043 36.598763 52.709384 47.016354 55.208341 59.384252 C 57.009622 68.299188 62.374786 75.050339 69.09506 79.581518 C 75.815334 84.112698 83.888372 86.495264 91.421231 86.862768 C 97.815309 87.174724 105.16404 85.286195 110.14193 86.560033 C 111.36523 86.873075 112.90733 87.951121 114.50912 89.290502 C 116.1109 90.629882 117.7595 92.185822 119.65561 93.247533 C 125.74512 96.657284 132.06843 98.086577 138.41928 99.409643 C 141.33077 100.01619 144.46931 99.923247 147.41537 100.0366 C 150.36142 100.14995 153.06617 100.47884 155.03256 101.53464 C 155.66788 101.87575 156.09137 102.58168 156.63217 103.69675 C 157.17297 104.81181 157.78091 106.36165 159.42318 107.29636 C 161.00163 108.19474 162.7263 107.72481 163.76303 107.2573 C 164.79976 106.78987 165.509 106.45553 165.80014 106.45261 C 166.28606 106.44761 166.50272 106.56094 166.84311 106.9155 C 167.1835 107.27006 167.54969 107.92213 167.83529 108.74167 C 168.40649 110.38075 168.65567 112.58226 168.82943 114.11277 L 170.54818 113.91746 L 170.55014 113.91746 L 170.85873 115.62058 C 171.77435 115.45406 172.5859 114.9034 173.10482 114.23777 C 173.62373 113.57214 173.91171 112.81823 174.09701 112.0366 C 174.4676 110.47334 174.43859 108.72655 174.22982 106.9448 C 174.02105 105.16306 173.61441 103.36412 173.09897 101.80222 C 172.58353 100.24033 172.05824 98.954881 171.12826 97.958471 C 170.28374 97.053632 169.10741 96.76545 168.09506 96.755346 C 167.08272 96.745246 166.11613 96.964303 165.1849 97.247533 C 164.01303 97.603951 163.26893 97.984209 162.38412 98.380346 C 161.77239 96.892335 161.01138 95.623223 159.95639 94.823705 C 158.47195 93.698727 156.7354 93.340575 155.08725 93.243627 C 151.79096 93.049731 148.52492 93.669353 146.03451 92.903783 C 138.80864 90.682489 133.25419 85.440255 129.35873 78.140111 C 128.53968 76.605181 127.6598 74.531378 127.82162 73.866674 C 127.96495 73.277908 128.53246 72.481281 129.3724 71.653783 C 130.21233 70.826285 131.24864 70.011228 132.11459 69.046362 C 134.90294 65.939537 137.19782 62.352658 138.9017 58.399877 C 142.25202 50.627558 141.20579 43.090755 137.89193 36.819799 C 134.57807 30.548844 129.08848 25.44229 123.39975 21.917455 C 117.16697 18.05551 109.80375 16.708002 102.32358 17.085424 z M 102.95248 26.362768 C 108.60853 26.295998 114.20022 27.283215 119.39389 29.62058 C 123.23299 31.348327 126.3219 34.313734 128.5599 37.552221 C 130.92425 40.973554 132.98246 44.950108 131.99936 49.354955 C 131.01626 53.759802 128.72526 58.098225 126.28451 61.03269 C 125.58767 61.870475 123.92159 63.260487 122.36264 64.784643 C 120.8037 66.308799 119.18599 67.979377 118.84115 70.292455 C 118.63797 71.655378 119.06755 72.809408 119.47397 73.737768 C 119.88039 74.666128 120.3007 75.449216 120.45248 75.93308 C 121.0064 77.699028 121.00691 79.758486 122.40951 82.061986 C 123.12518 83.237348 123.96672 84.078349 124.78061 85.013158 C 123.77637 84.289031 122.77969 83.604351 121.75717 82.811986 C 118.39939 80.209997 114.89548 77.439871 110.63022 76.272924 C 105.17875 74.781437 98.578347 76.855355 94.155606 77.190893 C 83.439182 78.003906 75.013098 75.18661 67.368497 66.729955 C 64.838377 63.931068 63.698942 60.082078 63.25131 56.853002 C 62.538218 51.709018 63.182045 47.99758 66.009122 44.079565 C 68.836198 40.161549 71.745021 36.294736 75.665372 34.110815 C 83.918374 29.513287 93.525717 26.474044 102.95248 26.362768 z M 98.718106 29.649877 C 97.325686 29.618047 95.864 29.925041 94.419278 30.362768 C 92.974556 30.800495 91.565234 31.380129 90.380216 31.978002 C 89.195199 32.575875 88.294335 33.062483 87.571622 33.880346 L 87.942716 35.681127 C 88.347159 39.770663 89.85001 42.984657 90.772794 47.005346 C 91.258072 49.083964 91.773757 51.205298 92.343106 53.284643 C 92.565995 54.09867 92.837009 55.407248 93.241544 56.722143 C 93.64608 58.037039 94.127701 59.399952 95.212247 60.466283 C 95.964751 61.206154 97.040455 61.478262 97.923184 61.399877 C 98.805914 61.321487 99.564347 60.989519 100.24154 60.575658 C 101.59592 59.747937 102.70523 58.730105 103.12631 57.153783 C 104.6797 51.338547 103.04011 44.594761 102.91342 39.593237 C 102.89332 38.799618 103.0559 37.433054 103.1224 36.013158 C 103.1889 34.593261 103.22171 33.071386 102.48764 31.628393 C 101.73629 30.151408 100.11053 29.68171 98.718106 29.649877 z M 100.75912 62.25144 C 100.36242 62.27104 99.960525 62.341059 99.565763 62.46433 C 98.068686 62.931817 96.991849 64.035191 96.321622 65.247533 C 95.651395 66.459875 95.332912 67.813811 95.343106 69.130346 C 95.353296 70.446881 95.671222 71.794918 96.679044 72.811986 C 97.686867 73.829054 99.411142 74.147064 100.9935 73.601049 C 102.42008 73.108788 103.42065 72.018639 104.06381 70.833471 C 104.70698 69.648304 105.03416 68.326432 105.04818 67.030737 C 105.06218 65.735042 104.78675 64.39932 103.81576 63.364721 C 103.33026 62.847422 102.66324 62.498518 101.91928 62.341283 C 101.5473 62.262663 101.15581 62.231838 100.75912 62.25144 z "
       transform="translate(1.7232996,6.605982)" /></g></svg>
