<?xml version="1.0" encoding="UTF-8" standalone="no"?>
<svg
   version="1.2"
   viewBox="0 0 219.2126 219.2126"
   width="58mm"
   height="58mm"
   id="svg1"
   sodipodi:docname="DvoranRoleTokenLaser.svg"
   inkscape:version="1.4.2 (f4327f4, 2025-05-13)"
   xml:space="preserve"
   xmlns:inkscape="http://www.inkscape.org/namespaces/inkscape"
   xmlns:sodipodi="http://sodipodi.sourceforge.net/DTD/sodipodi-0.dtd"
   xmlns="http://www.w3.org/2000/svg"
   xmlns:svg="http://www.w3.org/2000/svg"><sodipodi:namedview
     id="namedview1"
     pagecolor="#ffffff"
     bordercolor="#666666"
     borderopacity="1.0"
     inkscape:showpageshadow="2"
     inkscape:pageopacity="0.0"
     inkscape:pagecheckerboard="0"
     inkscape:deskcolor="#d1d1d1"
     inkscape:zoom="1.2309643"
     inkscape:cx="-32.088664"
     inkscape:cy="110.88867"
     inkscape:window-width="1920"
     inkscape:window-height="1057"
     inkscape:window-x="-8"
     inkscape:window-y="-8"
     inkscape:window-maximized="1"
     inkscape:current-layer="layer2"
     inkscape:document-units="mm"
     showgrid="false" /><defs
     id="defs1"><clipPath
       clipPathUnits="userSpaceOnUse"
       id="cp1"><path
         d="m 275.5,535.5 c -143.78,0 -260,-116.22 -260,-260 0,-143.78 116.22,-260 260,-260 143.78,0 260,116.22 260,260 0,143.78 -116.22,260 -260,260 z"
         id="path1" /></clipPath></defs><style
     id="style1">
		tspan { white-space:pre } 
		.s0 { fill: none;stroke: #ff0000;stroke-miterlimit:100 } 
	</style><g
     inkscape:groupmode="layer"
     id="layer2"
     inkscape:label="Content"><g
       inkscape:groupmode="layer"
       id="layer4"
       inkscape:label="Kruh"
       style="display:inline"><path
         id="path2"
         style="fill:none;stroke:#000000;stroke-width:0.189192"
         d="M 219.118,109.6063 A 109.5117,109.5117 0 0 1 109.6063,219.118 109.5117,109.5117 0 0 1 0.09459686,109.6063 109.5117,109.5117 0 0 1 109.6063,0.09459686 109.5117,109.5117 0 0 1 219.118,109.6063 Z"
         inkscape:label="Vnejsi kruh" /><path
         id="circle2"
         style="fill:none;stroke:#000000;stroke-width:0.188976"
         d="M 208.69732,109.6063 A 99.091019,99.091019 0 0 1 109.6063,208.69732 99.091019,99.091019 0 0 1 10.515282,109.6063 99.091019,99.091019 0 0 1 109.6063,10.515282 99.091019,99.091019 0 0 1 208.69732,109.6063 Z"
         inkscape:label="Vnitrni kruh" /></g><g
       id="text2-9"
       inkscape:label="Text"
       style="opacity:1" /><path
       id="path3"
       style="font-size:41.5223px;font-family:'New Rocker';-inkscape-font-specification:'New Rocker';letter-spacing:0.769167px;baseline-shift:baseline;white-space:pre;display:inline;overflow:visible;opacity:1;fill:none;stroke:#000000;stroke-width:0.188976;stroke-dasharray:none;stroke-opacity:1;enable-background:accumulate;stop-color:#000000;stop-opacity:1"
       d="m 132.12502,124.92911 -0.89063,0.70508 c -0.65405,0.51778 -1.36577,1.06339 -2.13281,1.63867 l 0.008,-0.004 c -0.48103,0.35632 -0.9312,0.68078 -1.38867,1.01367 -0.47278,-0.33106 -0.93937,-0.65547 -1.43555,-1.00976 -0.761,-0.57076 -1.45036,-1.11253 -2.06836,-1.62305 l -0.86523,-0.71289 -0.8457,0.73828 c -0.45463,0.3978 -0.80021,0.71232 -1.06055,0.97266 -0.14935,0.14934 -0.44034,0.41795 -0.84375,0.76758 l -1.07227,0.92773 1.00196,1.00195 c 0.95552,0.95552 1.95619,1.99504 2.99804,3.11914 l 0.01,0.0137 0.0117,0.0117 c 1.05645,1.08355 2.10209,2.23609 3.13476,3.45899 l 0.95313,1.13086 1.01562,-1.07617 c 1.82353,-1.93405 3.21645,-3.42403 4.19141,-4.48243 l 0.0117,-0.0137 c 0.98791,-1.04283 1.67939,-1.77646 2.07031,-2.19531 l 0.97266,-1.04102 -1.11328,-0.88867 c -0.39288,-0.3143 -0.68258,-0.57125 -0.84571,-0.73437 -0.24089,-0.2409 -0.56695,-0.55208 -0.98828,-0.94532 z m -69.458987,1.31054 -0.486328,0.082 c -1.122052,0.18701 -2.244013,0.33389 -3.365235,0.4414 h -0.002 c -1.147286,0.0819 -2.378698,0.15018 -3.695312,0.20508 -1.320227,0.0275 -2.76139,0.0546 -4.328125,0.082 h -9.177735 l 3.13086,2.37305 c 0.892622,0.67623 1.61252,1.2655 2.152343,1.7539 l 0.01172,0.01 0.01172,0.01 c 0.525462,0.45381 0.898607,0.89221 1.142578,1.29882 l 0.02148,0.0352 0.02148,0.0312 c 0.264241,0.3862 0.442881,0.80093 0.546875,1.2793 0.111417,0.51251 0.177734,1.18684 0.177734,2.0039 0,0.7028 -0.01368,1.49253 -0.04102,2.36719 -0.02634,0.81448 -0.09259,1.61338 -0.197265,2.39844 l -0.002,0.0195 -0.002,0.0195 c -0.07593,0.73399 -0.200874,1.404 -0.371094,2.01367 -0.157773,0.53707 -0.349186,0.85554 -0.451172,0.9668 l -0.726563,0.79297 0.628907,0.87304 c 0.255888,0.35431 0.470159,0.80024 0.628906,1.36719 l 0.0098,0.0312 0.0098,0.0312 c 0.19189,0.57567 0.325405,1.1776 0.398438,1.81055 l 0.002,0.0234 0.0039,0.0254 c 0.101059,0.65688 0.150391,1.29436 0.150391,1.91601 v 0.0273 l 0.002,0.0254 c 0.02712,0.67799 0.03906,1.28477 0.03906,1.8164 0,0.28967 -0.09083,0.70314 -0.357422,1.23633 l -0.0059,0.0117 -0.0059,0.01 c -0.266129,0.55645 -0.59452,1.10708 -0.990235,1.65234 -0.401625,0.52587 -0.811103,0.99514 -1.226562,1.41211 -0.419067,0.3925 -2.812783,3.17824 -2.933594,3.24414 l 2.6875,-0.0605 c 3.294402,0 6.375654,0.19226 9.242188,0.57032 2.867503,0.40198 5.35582,1.06831 7.466796,1.98046 l 0.9375,0.4043 0.626954,-0.80664 c 1.120725,-1.44093 2.2437,-2.65295 3.361328,-3.64062 l 0.0078,-0.006 0.0059,-0.006 c 1.017314,-0.92268 2.16909,-1.4954 3.552734,-1.75782 l 1.455078,-0.27539 -0.441406,-1.41406 c -0.100242,-0.32076 -0.174744,-0.66781 -0.222656,-1.04101 h 4.884765 c -0.006,0.2597 -0.01644,0.53141 -0.0332,0.8164 l -0.0039,0.0391 v 0.0391 c 0,0.41541 -0.01309,0.83052 -0.03906,1.24609 l 0.002,-0.006 c -0.02729,0.40939 -0.05511,0.7765 -0.08203,1.09961 l -0.09375,1.13086 1.101563,0.26367 c 1.196648,0.28615 2.351462,0.67428 3.46875,1.16797 1.126211,0.49763 2.045073,1.01297 2.75,1.52344 l 0.345703,0.25 h 1.294922 l 5.824218,-4.50977 1.003907,-3.06054 h 4.662109 c -0.04439,0.74502 -0.119279,1.37709 -0.21875,1.88867 l -0.0039,0.0137 -0.002,0.0156 c -0.132609,0.77355 -0.379452,1.14491 -0.390625,1.17188 v 0.002 l -0.671875,2.0625 1.791015,0.23242 c 0,0 0.105784,-0.0156 0.15625,-0.0156 h 0.109375 l 0.109375,-0.0195 c 0.09575,-0.016 0.188445,-0.0234 0.28125,-0.0234 0.476566,0 1.153793,0.0598 1.996097,0.19141 0.84603,0.13219 1.69286,0.30554 2.54101,0.51757 0.84977,0.21245 1.62685,0.43745 2.33203,0.67188 0.66217,0.24818 1.10069,0.49982 1.17969,0.56445 l 0.92578,0.75586 0.84375,-0.8457 c 0.52947,-0.52947 1.12751,-1.03819 1.79688,-1.52734 l 0.0137,-0.01 0.0117,-0.01 c 0.66462,-0.51125 1.3508,-0.95572 2.06054,-1.33593 0.72128,-0.3864 1.43703,-0.70561 2.14649,-0.95899 0.69728,-0.24903 1.33639,-0.40333 1.91406,-0.47265 l 1.38477,-0.16602 -0.24219,-1.37305 c -0.0779,-0.44125 -0.1495,-0.88447 -0.21484,-1.33007 h 2.7246 v 1.80859 c 0,0.63742 -0.0923,1.07355 -0.17578,1.27148 -0.0417,0.099 -0.0611,0.13658 -0.0703,0.14844 l -0.002,0.002 h -0.002 v 0.002 h -0.002 -0.002 v -0.002 h -0.002 v -0.002 h -0.002 -0.002 l -0.86133,0.31836 v 2.86133 h 11.52539 v -3.1543 l -1.11719,-0.17578 c -0.68144,-0.10647 -0.94974,-0.29852 -1.02539,-0.37305 -0.0621,-0.0989 -0.22461,-0.48721 -0.22461,-1.27148 v -1.43359 h 8.77539 c -0.0136,0.49817 -0.0318,0.99637 -0.0566,1.49414 -0.0505,0.98103 -0.20229,1.75059 -0.41015,2.29101 l -0.67774,1.75977 1.88672,0.0332 c 1.52044,0.0262 2.84091,0.19598 3.95899,0.49414 l 0.004,0.002 h 0.002 c 1.15996,0.3026 2.20161,0.73948 3.13867,1.30664 l 0.9707,0.5879 2.39453,-2.88086 c 0.0923,0.13544 0.14293,0.27781 0.24219,0.41211 0.54891,0.74263 1.1861,1.36821 1.9082,1.8496 l 1.24414,0.82813 0.66797,-1.33594 c 0.11363,-0.22725 0.32255,-0.56027 0.62305,-0.96094 0.29259,-0.39011 0.6243,-0.77273 0.99805,-1.14648 0.38412,-0.38412 0.76338,-0.72477 1.13671,-1.02344 l 0.004,-0.004 0.004,-0.002 c 0.36096,-0.29328 0.6611,-0.45918 0.85742,-0.52929 l 0.875,-0.3125 v -2.4375 l -1.02149,-0.23633 c -0.20339,-0.0469 -0.32012,-0.10462 -0.4121,-0.1582 l -0.002,-0.002 c 3.4e-4,-0.001 -0.005,-0.01 -0.0156,-0.0293 h 3.23633 v 1.80859 c 0,0.64939 -0.10963,1.06887 -0.19336,1.23633 l -0.008,0.0156 -0.008,0.0156 c -0.0581,0.12446 -0.0885,0.16379 -0.0996,0.17383 l -0.002,0.002 h -0.002 v -0.002 l -0.8086,0.33593 v 2.82227 h 10.2793 v -2.86133 l -0.8418,-0.31055 c -0.0127,-0.0227 -0.0391,-0.0774 -0.082,-0.19336 -0.10115,-0.27347 -0.19727,-0.83167 -0.19727,-1.60937 v -8.07031 l 3.00782,-1.34571 v 3.53321 0.01 c 0.0275,1.57014 0.041,3.14081 0.041,4.71094 0,0.22455 -0.024,0.71392 -0.0781,1.39062 -0.0545,0.68159 -0.12276,1.43459 -0.20508,2.25782 -0.0799,0.77099 -0.18724,1.54264 -0.32031,2.31445 v 0.004 l -0.002,0.004 c -0.13215,0.79292 -0.27507,1.43775 -0.41796,1.91407 l -0.22657,0.7539 1.77149,1.77344 0.93359,-1 c 0.35474,-0.38008 0.76805,-0.78145 1.24024,-1.20117 0.4682,-0.41619 0.96297,-0.82014 1.48632,-1.21289 h 0.002 l 0.002,-0.002 0.002,-0.002 c 0.54129,-0.38569 1.06836,-0.72994 1.57617,-1.03516 0.51693,-0.29468 1.00804,-0.52292 1.47266,-0.68554 l 1.08399,-0.37891 -0.22461,-1.125 c -0.0537,-0.26842 -0.10805,-0.55211 -0.16211,-0.84961 -0.0427,-0.26102 -0.0801,-0.62449 -0.10547,-1.08203 -0.027,-0.48467 -0.0546,-1.11532 -0.082,-1.88477 v -2.98437 c 0,-1.43098 0.0139,-2.62401 0.041,-3.57422 0.0273,-0.95485 0.057,-1.7539 0.084,-2.40625 0.0516,-0.61429 0.10191,-1.10805 0.15039,-1.47851 0.0753,-0.398 0.15956,-0.76844 0.25586,-1.10547 l 0.30664,-1.07422 -1.00782,-0.48047 c -0.55195,-0.26284 -1.02935,-0.50851 -1.43554,-0.73633 -0.41544,-0.26005 -0.81992,-0.52013 -1.20899,-0.7793 -0.34009,-0.24382 -0.68332,-0.51305 -1.02929,-0.80859 -0.38085,-0.35372 -0.80114,-0.74631 -1.26368,-1.18164 l -0.95703,-0.90234 -0.90429,0.95507 c -0.96517,1.0188 -1.89566,1.89673 -2.78711,2.63086 -0.30273,0.24931 -0.70692,0.50477 -1.03907,0.75586 v -1.22461 l -1.43945,-2.39843 -0.94726,0.23828 c -0.87013,0.21753 -1.86896,0.45027 -2.99414,0.69726 -1.10413,0.21497 -2.12681,0.3881 -3.06055,0.52149 l -1.13281,0.16211 v 0.91992 l -2.5293,0.63086 c -1.20412,-0.012 -2.18396,-0.20437 -2.9375,-0.55664 -0.79462,-0.41213 -1.61169,-1.04655 -2.43555,-1.94532 l -0.7207,-0.78515 -0.91992,0.53906 c -0.63248,0.37076 -1.65151,0.76249 -3.01563,1.10352 -1.30039,0.32509 -2.91449,0.5 -4.82812,0.5 h -0.36328 c -0.2787,-0.0885 -0.41185,-0.041 -0.5918,-0.041 h -1.66406 l 0.10156,0.43164 -1.14258,-0.27148 c -1.12159,-0.26705 -2.1421,-0.56069 -3.06055,-0.875 -0.90663,-0.33788 -1.58511,-0.65851 -1.98046,-0.90821 l -1.37891,-0.87109 -0.56445,1.5293 c -0.23486,0.63549 -0.50845,1.19915 -0.76368,1.79687 v -0.41797 l -1.4375,-2.39843 -0.94921,0.23828 c -0.87012,0.21753 -1.86897,0.45027 -2.99415,0.69726 -1.10413,0.21497 -2.1268,0.3881 -3.06054,0.52149 l -1.13281,0.16211 v 2.46875 l 1.5371,0.66406 v 10.07226 h -2.94726 c -0.19276,-1.77103 -0.28906,-3.57631 -0.28906,-5.41601 0,-2.37599 0.16368,-4.41856 0.47656,-6.11328 l 0.3457,-1.88086 -1.88086,0.3418 c -0.25027,0.0455 -0.5175,0.0792 -0.79883,0.10351 h -1.29101 c -0.98934,0 -2.09142,-0.10183 -3.30274,-0.3125 -0.91496,-0.15912 -2.2315,-0.55291 -3.57617,-0.9668 l -2.35742,0.0469 c -1.18136,1.18136 -2.39091,2.15103 -3.62305,2.92187 -1.227914,0.74029 -2.293162,1.16645 -3.150386,1.32032 l -2.128906,0.38281 c -0.09512,-0.18303 -0.201777,-0.30313 -0.255859,-0.67578 -0.101748,-0.73768 -0.154297,-1.52075 -0.154297,-2.35156 v -0.14063 l 1.916016,-2.875 -3.541016,1.08984 c -1.032012,0.31755 -2.076466,0.58076 -3.134766,0.79297 -1.061615,0.18528 -2.108084,0.31916 -3.138672,0.39844 l -1.144531,0.0879 -0.167969,2.70508 0.810547,0.38086 c 0.159354,0.075 0.250736,0.14833 0.375,0.45898 l 0.0098,0.0254 0.01172,0.0254 c 0.114015,0.25337 0.257812,0.9429 0.257812,1.95118 0,0.74208 -0.05282,1.64095 -0.160156,2.6875 -0.106184,1.00758 -0.264792,2.0466 -0.478516,3.11523 l -0.0039,0.0156 -0.002,0.0156 c -0.185446,1.05969 -0.423624,2.07584 -0.712891,3.04883 l -0.0039,0.0117 -0.002,0.01 c -0.127982,0.46074 -0.289219,0.73067 -0.435547,1.09571 l -0.277344,-0.15039 c 0.0088,-0.35113 0.02344,-0.71369 0.02344,-1.04883 v -1.78516 c 0,-3.02738 -0.140464,-5.6754 -0.425781,-7.96094 -0.261453,-2.31836 -0.706857,-4.07469 -1.591797,-5.36523 l -0.802735,-1.17188 -1.109375,0.88672 c -0.128007,0.10241 -0.465504,0.30489 -0.947265,0.52344 -0.515606,0.20543 -1.084683,0.41353 -1.712891,0.62305 h -0.002 v 0.002 h -0.002 -0.002 c -0.594931,0.18047 -1.202549,0.34798 -1.824219,0.50391 -0.626392,0.12996 -1.156688,0.2194 -1.566406,0.26757 l -1.166016,0.13868 v 2.95312 l 1.554688,0.32227 c 0.373163,0.72543 0.751993,1.65268 1.048828,3.06836 l 0.002,0.01 0.002,0.01 c 0.347716,1.53987 0.539143,3.50667 0.548828,5.87304 h -4.978515 c 0.0056,-0.57451 0.03114,-1.24277 0.07813,-1.99804 0.08022,-0.85001 0.187197,-1.71471 0.320312,-2.59375 v -0.002 -0.002 c 0.159307,-0.87274 0.33158,-1.706 0.515625,-2.49609 0.204342,-0.78867 0.430058,-1.41285 0.646484,-1.84571 l 0.228516,-0.45507 -0.138672,-0.49024 c -0.390094,-1.39319 -0.738936,-2.55394 -1.052734,-3.49609 l -0.0039,-0.0117 c -0.296635,-0.9174 -0.551733,-1.76428 -0.765625,-2.53906 l -0.002,-0.01 c -0.209142,-0.78525 -0.392328,-1.59804 -0.550781,-2.43945 -0.129127,-0.85625 -0.237428,-1.93557 -0.318359,-3.23047 l -0.972656,-1.19141 c -1.27102,-0.34423 -2.544013,-0.78185 -3.822266,-1.31445 -1.284861,-0.53536 -2.32433,-1.05217 -3.099609,-1.52734 z m 0.449218,7.65821 c 0.0749,0.45709 0.124562,0.86839 0.230469,1.38281 l 0.002,0.004 v 0.004 c 0.198504,0.9358 0.425185,1.88425 0.679688,2.84571 l 0.002,0.004 v 0.006 c 0.250914,0.92003 0.502653,1.81231 0.753906,2.67774 l 0.002,0.006 0.002,0.006 c 0.20226,0.67421 0.374805,1.19938 0.544922,1.70508 -0.218971,0.5142 -0.434336,1.00892 -0.605468,1.71485 l -0.0039,0.0195 -0.0039,0.0176 c -0.199225,0.9392 -0.383492,1.94375 -0.552734,3.01562 l -0.002,0.0156 -0.002,0.0137 c -0.141536,1.04736 -0.254889,2.09481 -0.339843,3.14258 -0.05929,0.71185 -0.0715,1.22276 -0.08984,1.75976 -0.549166,0.29403 -1.107145,0.56456 -1.615234,0.9668 -0.502503,0.39782 -0.84993,0.89221 -1.232422,1.36523 -0.192965,-0.0312 -0.350634,-0.0549 -0.572266,-0.0918 -0.457653,-0.10743 -0.925618,-0.21503 -1.408203,-0.32227 -0.493215,-0.1096 -0.97253,-0.22067 -1.4375,-0.33008 -0.05136,-0.0129 -0.0742,-0.0189 -0.123047,-0.0312 -0.128701,-1.72515 -0.242883,-3.42639 -0.3125,-5.05078 -0.05466,-1.94669 -0.08203,-3.79712 -0.08203,-5.54883 0,-1.82031 0.01347,-3.53005 0.04102,-5.12695 0.02126,-1.25431 0.05821,-2.2871 0.0957,-3.30664 0.362803,-0.0939 0.698598,-0.20378 1.099609,-0.27539 l 0.01758,-0.002 0.01758,-0.004 c 0.76297,-0.15786 1.509838,-0.27526 2.240235,-0.35352 l 0.01953,-0.002 0.02148,-0.004 c 0.768679,-0.10603 1.460924,-0.16977 2.074219,-0.19531 l 0.02539,-0.002 0.02539,-0.002 c 0.204639,-0.0164 0.308597,-0.0123 0.488281,-0.0234 z m 73.542969,5.83593 0.27734,1.18555 c 0.20821,0.8923 0.44835,1.6516 0.75586,2.30078 l 0.0117,0.0254 0.0137,0.0234 c 0.32926,0.62561 0.71286,1.16665 1.18946,1.60352 l 0.0234,0.0215 0.0234,0.0195 c 0.45961,0.38301 0.99139,0.67472 1.5625,0.83789 l 0.0508,0.0137 0.0527,0.01 c 0.50925,0.10185 1.03967,0.15039 1.58789,0.15039 0.84766,0 1.78335,-0.16537 2.87695,-0.46094 0.4444,-0.12011 0.85239,-0.3061 1.2832,-0.45117 v 1.35938 c -0.21088,0.0823 -0.35581,0.16219 -0.62304,0.24414 -0.56278,0.15293 -1.19914,0.29606 -1.91016,0.42773 -0.70044,0.12971 -1.44638,0.23502 -2.23437,0.31445 -0.7675,0.0525 -1.51988,0.0801 -2.25782,0.0801 -0.66895,0 -1.27443,-0.0396 -1.81445,-0.11328 l -2.27148,-0.30859 0.87304,2.11914 c 0.14273,0.34662 0.2575,0.77699 0.32813,1.29492 v 0.004 0.004 c 0.0731,0.51164 0.11133,1.07227 0.11133,1.68164 0,0.006 0,0.013 0,0.0195 h -8.80079 v -2.13085 l 2.58789,-3.64063 3.04883,1.5918 0.6836,-0.78516 c 0.67202,-0.77282 1.20238,-1.70238 1.60742,-2.76172 l 0.002,-0.006 0.002,-0.006 c 0.40063,-1.07861 0.67113,-2.24873 0.82032,-3.50195 z m 19.9043,0.89454 v 0.77539 l 1.53711,0.66406 v 10.07226 h -3.60352 c -0.004,-0.0329 -0.008,-0.066 -0.0117,-0.0996 -0.0509,-0.75114 -0.0781,-1.77701 -0.0781,-3.07422 0,-1.9862 0.0577,-3.48225 0.1582,-4.44727 0.11979,-0.89815 0.35891,-1.53364 0.64258,-1.94141 z m -61.298831,2.08984 1.193359,1.49023 v 0.002 c 0.0041,0.0102 0.0081,0.021 0.01172,0.0332 0.03393,0.11451 0.0828,0.32259 0.132812,0.59766 0.101597,0.55878 0.194881,1.25985 0.275391,2.09179 l 0.002,0.0215 0.0039,0.0215 c 0.106234,0.82329 0.186468,1.70551 0.240235,2.64649 v 0.002 c 0.05351,0.90968 0.07954,1.74967 0.08008,2.51562 h -4.136719 l 2.822266,-8.61132 -0.533203,-0.57032 c -0.03383,-0.0362 -0.05722,-0.18708 -0.0918,-0.24023 z m 1.162109,1.43555 h 0.002 l 0.002,0.002 c 0.0046,0.006 0.01269,0.0216 0.02148,0.041 -0.01608,-0.0235 -0.02382,-0.0386 -0.02539,-0.043 z m 8.570312,0.41015 c 0.35899,0.10191 0.58703,0.23818 1,0.33203 l 0.0137,0.004 0.0137,0.002 c 0.87288,0.17855 1.77552,0.27664 2.67383,0.38672 l -0.0645,8.94727 c -0.5424,-0.12754 -1.046,-0.28591 -1.625,-0.38477 -0.71308,-0.12174 -1.32469,-0.19897 -1.9668,-0.28906 0.0266,-0.591 0.0575,-1.17678 0.0742,-1.77734 v 0.0351 c 0.0564,-1.04277 0.084,-1.97939 0.084,-2.8125 0,-1.04733 -0.0273,-2.08065 -0.084,-3.10156 v -0.002 c -0.0228,-0.42069 -0.083,-0.89856 -0.11914,-1.33985 z m 41.41406,6.98828 v 2.48633 c -0.34749,-0.0464 -0.76099,-0.149 -1.07422,-0.16211 h -0.002 c -0.19759,-0.009 -0.38354,-0.0277 -0.57812,-0.0391 l 0.0371,-1.875 c 0.31699,-0.0645 0.58725,-0.0918 0.94141,-0.18359 l 0.0234,-0.004 0.0215,-0.008 c 0.2041,-0.0605 0.42349,-0.14867 0.63086,-0.21485 z" /><g
       id="path1-6"
       style="opacity:1;fill:none;stroke:#000000;stroke-width:0.18230004;stroke-dasharray:none;stroke-opacity:1"
       transform="matrix(1.0366228,0,0,1.0366228,-4.0141626,-1.167441)"><path
         id="path4"
         style="baseline-shift:baseline;display:inline;overflow:visible;fill:none;stroke:#000000;stroke-width:0.18230004;stroke-dasharray:none;stroke-opacity:1;enable-background:accumulate;stop-color:#000000;stop-opacity:1"
         d="m 107.24023,28.054687 c -1.00397,0.01532 -2.01354,0.07588 -3.02734,0.208985 -3.50855,0.460671 -8.562822,-0.117198 -12.443359,1.519531 -3.143384,1.325804 -4.492826,4.62482 -4.916016,7.933594 -0.423191,3.308774 0.01187,6.776797 0.685547,9.126953 1.090212,3.803259 2.674797,8.184474 5.236328,11.490234 3.025295,3.904277 7.047347,6.642834 9.85156,10.121094 0.76825,0.952909 0.86672,2.237823 1.49805,3.859375 1.25383,3.220422 2.94606,5.912343 3.02148,8.966797 0.0614,2.4832 -1.34887,4.835298 -1.67773,7.888672 -0.0871,0.808972 0.13051,1.443713 0.23047,1.904296 0.1,0.460583 0.10728,0.672336 0.0156,0.867188 -0.28993,0.616492 -1.28128,1.23045 -2.01562,2.513672 -0.4121,0.720103 -0.47989,1.403342 -0.56836,1.867187 -0.0885,0.463844 -0.15364,0.684415 -0.38086,0.921875 -1.06847,1.116611 -2.30231,1.649294 -3.726563,2.142578 -1.424256,0.493284 -3.02786,0.918382 -4.560547,1.925782 -1.258861,0.8274 -1.883838,2.52626 -1.146484,3.98242 0.665303,1.31386 1.882846,2.11684 3.115234,2.67188 1.232387,0.55504 2.531547,0.87329 3.542969,1.10156 5.640791,1.27311 11.504011,1.46882 17.222661,0.61133 1.1226,-0.16833 3.59403,-0.57145 5.74023,-1.43555 1.0731,-0.43205 2.08192,-0.96621 2.82031,-1.78516 0.7384,-0.81894 1.11006,-2.09024 0.66211,-3.29101 -0.70094,-1.87898 -2.58747,-2.77313 -4.35351,-3.556642 -1.76604,-0.783509 -3.57376,-1.489324 -4.31641,-2.142578 -0.41321,-0.363475 -0.6196,-0.745961 -0.8418,-1.28711 -0.22219,-0.541149 -0.43063,-1.233352 -0.85742,-1.982422 -0.80704,-1.416419 -1.91768,-2.183415 -2.16601,-2.921875 -0.0872,-0.259187 -0.0949,-0.687161 -0.0469,-1.234375 0.0481,-0.547215 0.14872,-1.192957 0.0605,-1.921875 -0.34335,-2.840343 -1.18458,-5.029951 -0.94141,-7.541015 0.28317,-2.923953 2.0295,-5.235381 3.55859,-8.158203 1.14537,-2.189422 1.69196,-4.697772 2.7168,-6.292969 0.34253,-0.533152 1.06337,-1.121447 1.9082,-1.734375 0.84482,-0.612928 1.79986,-1.250841 2.55079,-2.140625 3.90029,-4.621476 7.21912,-10.489239 8.49414,-16.519531 0.63195,-2.988878 0.20066,-5.102731 0.15625,-7.746094 -0.0329,-1.953967 0.35651,-4.500141 -1.42774,-6.595703 -1.5724,-1.846764 -4.10382,-2.272844 -5.91992,-2.59375 -3.01102,-0.532048 -6.13929,-0.36273 -8.97656,-0.396484 -1.87335,-0.02229 -3.81137,-0.189383 -5.78711,-0.285157 -0.98787,-0.04789 -1.98626,-0.07782 -2.99024,-0.0625 z m 9.28321,5.310547 c 2.24893,9.38e-4 4.6721,0.02522 6.76562,0.546875 -1.31922,0.244641 -2.73946,0.368951 -4.37109,0.673828 -6.37136,1.190514 -13.54849,1.251019 -19.898439,-0.427734 1.609019,-0.472269 3.333799,-0.716044 5.173829,-0.763672 4.11732,-0.106569 8.18232,-0.03089 12.33008,-0.0293 z m -24.83381,1.62335 c 0.06724,0.124819 0.03965,0.320904 0.119141,0.414063 0.281337,0.32971 0.595603,0.532661 0.904297,0.705078 0.617389,0.344834 1.255581,0.547207 1.544922,0.642578 2.660523,0.876963 5.15571,1.979042 7.63,2.32985 8.03889,1.139751 19.2178,0.338224 26.94637,-3.25311 v 0 c 0.57017,1.397768 0.35705,2.970486 0.35705,5.028426 0,3.812296 -1.12545,8.61753 -3.31641,12.519531 -0.0827,0.147339 -0.18986,0.267568 -0.27539,0.412109 0.73269,-1.472615 1.28555,-3.027517 1.71484,-4.630859 0.13588,-0.507468 0.43918,-1.32215 0.65235,-2.195313 0.21316,-0.873162 0.39149,-1.84947 -0.006,-2.83789 -0.35326,-0.879071 -1.10705,-1.283455 -1.86914,-1.591797 -0.76209,-0.308342 -1.62924,-0.507203 -2.51172,-0.658203 -1.76497,-0.302001 -3.62182,-0.401437 -4.36719,-0.472657 -6.43414,-0.614789 -13.76031,-0.498337 -20.160156,0.230469 -1.082579,0.123283 -2.513411,0.254509 -3.912109,0.605469 -1.346471,0.337856 -2.694949,0.899761 -3.652344,1.994141 -0.374644,0.221892 -0.667444,0.515352 -0.808594,0.863281 -0.513919,-2.557967 -0.652825,-5.13304 0.002,-7.59375 0.184508,-0.693446 0.257532,-1.1209 0.597834,-1.915713 0.124537,-0.290868 0.266988,-0.361557 0.410156,-0.595703 z m 30.0799,15.743838 c -0.34145,1.243489 -0.81938,2.512495 -1.55469,3.654297 -0.0164,0.02555 -0.04,0.04103 -0.0566,0.06641 0.45723,-1.049777 0.71948,-2.153157 0.72071,-3.308594 z m -10.44336,18.888672 h 1.29102 v 1.980468 l 1.05664,-1.757812 c -0.28855,0.99557 -0.52609,2.023283 -0.99805,2.873047 -0.44758,0.805873 -0.95613,1.303495 -1.51953,1.636718 z m 9.26172,33.376956 c 0.0464,-9.1e-4 0.0835,0.002 0.11133,0.008 0.0302,0.007 0.035,0.0333 0.0606,0.041 -2.37238,0.4995 -4.74505,1.08963 -6.88477,0.89844 1.33275,-0.25198 2.76616,-0.31183 4.54687,-0.45703 0.62697,-0.0511 1.11534,-0.24644 1.50977,-0.36328 0.29582,-0.0876 0.51716,-0.12423 0.65625,-0.12695 z"
         sodipodi:nodetypes="ssssssssccccscsssssssssssssscccscsssscsssssccscsccssssccsscsscsssssccssccccccccccsccscccsss" /></g></g></svg>
