<?xml version="1.0" encoding="UTF-8" standalone="no"?>
<svg
   version="1.2"
   viewBox="0 0 219.2126 219.2126"
   width="58mm"
   height="58mm"
   id="svg1"
   sodipodi:docname="ExorcistaRoleTokenLaser.svg"
   inkscape:version="1.4.2 (f4327f4, 2025-05-13)"
   xml:space="preserve"
   xmlns:inkscape="http://www.inkscape.org/namespaces/inkscape"
   xmlns:sodipodi="http://sodipodi.sourceforge.net/DTD/sodipodi-0.dtd"
   xmlns="http://www.w3.org/2000/svg"
   xmlns:svg="http://www.w3.org/2000/svg"><sodipodi:namedview
     id="namedview1"
     pagecolor="#ffffff"
     bordercolor="#666666"
     borderopacity="1.0"
     inkscape:showpageshadow="2"
     inkscape:pageopacity="0.0"
     inkscape:pagecheckerboard="0"
     inkscape:deskcolor="#d1d1d1"
     inkscape:zoom="1.7408464"
     inkscape:cx="40.497542"
     inkscape:cy="73.240235"
     inkscape:window-width="1920"
     inkscape:window-height="1057"
     inkscape:window-x="-8"
     inkscape:window-y="-8"
     inkscape:window-maximized="1"
     inkscape:current-layer="layer2"
     inkscape:document-units="mm"
     showgrid="false"
     showguides="false" /><defs
     id="defs1"><clipPath
       clipPathUnits="userSpaceOnUse"
       id="cp1"><path
         d="m 275.5,535.5 c -143.78,0 -260,-116.22 -260,-260 0,-143.78 116.22,-260 260,-260 143.78,0 260,116.22 260,260 0,143.78 -116.22,260 -260,260 z"
         id="path1" /></clipPath></defs><style
     id="style1">
		tspan { white-space:pre } 
		.s0 { fill: none;stroke: #ff0000;stroke-miterlimit:100 } 
	</style><g
     inkscape:groupmode="layer"
     id="layer2"
     inkscape:label="Content"><g
       inkscape:groupmode="layer"
       id="layer4"
       inkscape:label="Kruh"
       style="display:inline"><path
         id="path2"
         style="fill:none;stroke:#000000;stroke-width:0.189192"
         d="M 219.118,109.6063 A 109.5117,109.5117 0 0 1 109.6063,219.118 109.5117,109.5117 0 0 1 0.09459686,109.6063 109.5117,109.5117 0 0 1 109.6063,0.09459686 109.5117,109.5117 0 0 1 219.118,109.6063 Z"
         inkscape:label="Vnejsi kruh" /><path
         id="circle2"
         style="fill:none;stroke:#000000;stroke-width:0.188976"
         d="M 208.69732,109.6063 A 99.091019,99.091019 0 0 1 109.6063,208.69732 99.091019,99.091019 0 0 1 10.515282,109.6063 99.091019,99.091019 0 0 1 109.6063,10.515282 99.091019,99.091019 0 0 1 208.69732,109.6063 Z"
         inkscape:label="Vnitrni kruh" /></g><path
       id="path3"
       style="font-size:41.5223px;font-family:'New Rocker';-inkscape-font-specification:'New Rocker';letter-spacing:0.769167px;baseline-shift:baseline;white-space:pre;display:inline;overflow:visible;opacity:1;enable-background:accumulate;stop-color:#000000;stop-opacity:1;fill:none;stroke:#000000;stroke-opacity:1;stroke-width:0.18897638;stroke-dasharray:none"
       d="m 136.71484,112.40625 -0.99804,0.5332 c -0.98827,0.52708 -1.87798,1.26033 -2.66211,2.16992 l -0.002,0.002 v 0.002 c -0.71066,0.82912 -1.32594,1.68194 -1.83984,2.55859 l -0.55859,0.95118 0.83789,0.71679 c 0.22522,0.19306 0.51453,0.42419 0.88476,0.70899 0.35597,0.27382 0.72706,0.56135 1.11133,0.86328 0.36353,0.28563 0.69671,0.56979 1.00195,0.84961 l 0.043,0.0391 0.0449,0.0332 c 0.31968,0.24591 0.53012,0.44758 0.5918,0.51954 l 0.97266,1.13671 v 0.82618 c -0.40146,0.0922 -0.82167,0.1865 -1.26172,0.2832 -1.11638,0.21783 -2.14712,0.39462 -3.08984,0.5293 l -1.13282,0.16211 v 1.46289 l -1.62695,-0.28907 c -1.16936,-0.20788 -2.32603,-0.51983 -3.47461,-0.9375 -1.14329,-0.41574 -2.12203,-0.88998 -2.93945,-1.41015 l -0.61328,-0.38867 -0.65625,0.30859 c -1.20307,0.5647 -7.24616,2.52083 -8.66812,2.75782 l -0.94922,0.1582 0.10351,-0.86523 -1.14453,-0.27148 c -1.12158,-0.26705 -2.14016,-0.56069 -3.05859,-0.875 -0.90664,-0.33788 -1.58511,-0.65851 -1.98047,-0.90821 l -1.37891,-0.87109 -0.56445,1.5293 c -0.23475,0.6352 -0.50857,1.19745 -0.76367,1.79492 v -0.41602 l -1.43945,-2.39844 -0.94922,0.23829 c -0.861545,0.21538 -1.851276,0.44517 -2.962893,0.68945 -1.116384,0.21783 -2.147123,0.39462 -3.089844,0.5293 l -1.132813,0.16211 v 2.46875 l 1.53711,0.66406 v 10.54492 h -2.894532 c -0.229289,-1.92313 -0.34375,-3.88669 -0.34375,-5.89063 0,-2.37598 0.163689,-4.41854 0.476563,-6.11328 l 0.347656,-1.8789 -1.880859,0.34179 c -0.250254,0.0455 -0.517502,0.0792 -0.798828,0.10352 h -1.291016 c -0.989335,0 -2.091417,-0.10184 -3.302734,-0.3125 -0.907967,-0.15791 -2.217555,-0.55217 -3.548828,-0.96094 l -2.386719,0.041 c -1.17958,1.17958 -2.385034,2.14768 -3.615234,2.91797 -1.230724,0.74277 -2.29944,1.17008 -3.158204,1.32422 l -2.18164,0.39257 1.302734,1.62696 v 0.002 c 0.0047,0.0112 0.0096,0.0233 0.01367,0.0371 0.03393,0.11451 0.0828,0.32259 0.132813,0.59766 0.101597,0.55878 0.19488,1.25984 0.27539,2.09179 l 0.002,0.0215 0.002,0.0195 c 0.106234,0.82329 0.186468,1.70746 0.240235,2.64844 v 0.002 c 0.05407,0.91921 0.08203,1.76469 0.08203,2.53711 0,0.47063 -0.0094,0.91307 -0.02734,1.32422 H 68.375 l -3.271485,-4.50977 4.90625,-3.51172 -0.03906,-0.72461 c -0.02676,-0.48177 -0.05472,-0.89262 -0.08203,-1.2539 v -1.12305 -1.00391 c 0.02595,-0.35873 0.06265,-0.76202 0.115234,-1.20898 l 0.148438,-1.25977 -1.251954,-0.19726 c -1.025089,-0.16186 -2.037493,-0.33708 -3.035156,-0.52539 l -0.0098,-0.002 c -0.978231,-0.21751 -1.761966,-0.40791 -2.335938,-0.56445 l -0.412109,-0.11133 -2.242188,0.8418 0.855469,1.36719 c 0.107836,0.17254 0.348453,0.80247 0.527344,1.74804 l 0.002,0.002 v 0.004 c 0.135595,0.69735 0.197644,2.10233 0.224609,3.66993 l -0.05859,0.0371 -5.36914,-7.93359 -7.720703,3.37109 6.326172,8.95704 -4.951172,3.17382 0.06445,0.75782 h -2.251953 c -0.04819,-0.73304 -0.07227,-1.52097 -0.07227,-2.36133 0,-0.56036 0.0142,-1.1366 0.04102,-1.72656 v -0.002 c 0.02602,-0.59853 0.07807,-1.1975 0.15625,-1.79687 l 0.140625,-1.07813 -2.095703,-0.69922 -0.578125,0.63477 c -1.162766,1.2762 -2.255292,2.59625 -3.277344,3.95898 l -0.0059,0.008 -0.0059,0.006 c -0.851728,1.16808 -1.440978,2.50725 -1.884766,3.92773 l -4.851562,-0.48828 c -0.06834,-0.90417 -0.137808,-1.79803 -0.177734,-2.91602 -0.02501,-1.43282 -0.03503,-2.95294 -0.03711,-4.52539 0.01551,-9.9e-4 0.02536,-0.005 0.04102,-0.006 0.456963,-0.0269 0.801675,-0.0391 1.001953,-0.0391 0.0097,0 0.01734,-0.001 0.02148,-0.002 h 0.002 0.002 0.002 0.002 v 0.002 c 0.0076,0.003 0.02073,0.0127 0.05859,0.043 l 0.05664,0.0449 0.06055,0.0371 c 0.177858,0.11318 0.348436,0.26397 0.517578,0.4707 0.209137,0.25561 0.410763,0.53834 0.603516,0.85157 0.211556,0.34378 0.392251,0.6576 0.544922,0.9375 l 1.367187,2.5039 1.023438,-2.66211 c 0.132374,-0.34417 0.278956,-0.73134 0.435547,-1.14843 l 0.002,-0.004 c 0.18408,-0.42075 0.366702,-0.84292 0.550781,-1.26367 0.203877,-0.40776 0.404906,-0.78585 0.605469,-1.13867 0.205511,-0.31717 0.399288,-0.55945 0.558593,-0.71875 l 1.16211,-1.16407 -1.386719,-0.88281 c -0.09054,-0.0576 -0.212381,-0.17049 -0.351562,-0.41406 -0.196582,-0.34402 -0.380754,-0.702 -0.554688,-1.07227 -0.148919,-0.39909 -0.287568,-0.7855 -0.412109,-1.1582 l -0.0078,-0.0234 c -0.145154,-0.46241 -0.293673,-0.87865 -0.449219,-1.25195 l -0.90039,-2.16406 -1.382813,1.89257 c -0.46951,0.64248 -0.947594,1.14932 -1.423828,1.53516 -0.374825,0.29867 -0.628049,0.37305 -0.873047,0.37305 H 36.00604 c 0.05132,-1.25405 0.101911,-2.50878 0.183594,-3.65235 0.07858,-1.10009 0.213922,-1.91785 0.345703,-2.75 0.171714,-0.006 0.274972,-0.004 0.46875,-0.0117 0.644561,-0.0269 1.318675,-0.0391 2.021484,-0.0391 0.844566,0 1.525266,0.0416 2.013672,0.11133 0.294456,0.0421 0.446348,0.13783 0.609375,0.23047 0.231523,0.78815 0.467259,1.57108 0.853516,2.21484 l 0.0098,0.0156 0.01172,0.0156 c 0.592302,0.92547 1.474909,1.67456 2.574219,2.30274 l 0.570313,0.32617 1.589843,-0.68164 0.34375,-2.74414 c 0.135352,-0.89138 0.285073,-1.7977 0.447266,-2.7168 v -0.002 -0.004 c 0.162125,-0.94572 0.323747,-1.8058 0.484375,-2.58398 0.180942,-0.74365 0.376547,-1.25902 0.412109,-1.32422 l 0.859375,-1.57617 -1.759765,-0.35157 c -0.209317,-0.0418 -0.41855,-0.0544 -0.628907,-0.0586 -0.218131,-0.029 -0.436838,-0.0488 -0.667968,-0.0488 -1.158544,0 -2.656124,0.10035 -4.53711,0.29688 -1.781093,0.18608 -4.182841,0.2832 -7.171875,0.2832 -1.394494,0 -2.888264,-0.0271 -4.480468,-0.082 -1.543542,-0.0817 -3.184288,-0.21773 -4.925782,-0.4082 l -2.214843,-0.24219 0.851562,2.05859 c 0.399805,0.96619 0.996906,1.85566 1.761719,2.65235 l 0.0098,0.01 0.0098,0.01 c 0.521973,0.52197 1.0941,0.79515 1.65625,1.11914 0.01232,0.16286 0.02251,0.25955 0.03516,0.47461 0.02563,0.43576 0.03906,0.96644 0.03906,1.58398 0,0.74366 -0.02621,1.54631 -0.08008,2.40821 -0.05189,0.83028 -0.155359,1.64545 -0.310547,2.44726 -0.150499,0.74996 -0.362108,1.45469 -0.632813,2.11914 l -0.0039,0.0137 -0.0059,0.0117 c -0.224715,0.58426 -0.493886,0.99584 -0.78125,1.28321 l -0.839844,0.84179 0.748047,0.92188 c 0.277959,0.34336 0.594467,1.01629 0.816406,2.02734 l 0.0039,0.0156 0.002,0.0137 c 0.250476,1.02695 0.378906,2.11186 0.378906,3.25976 0,0.74209 -0.05215,1.57982 -0.158203,2.50782 -0.102973,0.87273 -0.268612,1.71548 -0.498047,2.53125 l -0.0059,0.0195 -0.0039,0.0176 c -0.203407,0.81362 -0.453607,1.52004 -0.740234,2.11718 l -0.0098,0.0195 -0.0098,0.0195 c -0.238945,0.54305 -0.473868,0.76752 -0.548829,0.8125 l -0.908203,0.54492 0.806641,2.42187 1.279297,-0.47461 c 0.588151,-0.21783 1.243862,-0.33203 1.992187,-0.33203 1.74239,0 3.724879,0.15931 5.9375,0.48242 h 0.002 v 0.002 h 0.002 c 2.208175,0.35027 4.44749,0.86113 6.718749,1.53711 l 0.685547,0.20312 0.544922,-0.46094 c 0.686315,-0.58072 1.293935,-1.04536 1.816406,-1.39453 0.555429,-0.35276 1.058944,-0.62063 1.496094,-0.80469 0.458213,-0.19293 0.858493,-0.31562 1.185547,-0.37695 l 0.0293,-0.004 0.0293,-0.008 c 0.4228,-0.0995 0.843841,-0.17329 1.263672,-0.22265 l 1.611328,-0.18946 -0.513672,-1.53906 c -0.124647,-0.37394 -0.270354,-1.0624 -0.394531,-1.99609 H 50.9375 c 9.66e-4,0.009 9.87e-4,0.0167 0.002,0.0254 v 0.006 0.004 c 0.0494,0.41988 0.07422,0.83898 0.07422,1.25782 0,0.61819 -0.07139,1.35941 -0.226563,2.21289 l -0.248047,1.36328 1.373047,0.18164 c 1.003797,0.13208 1.979458,0.31615 2.925781,0.55273 l 0.0039,0.002 h 0.0039 c 1.02805,0.25006 1.848798,0.44504 2.46875,0.58593 l 0.386719,0.0879 2.238281,-0.83984 -0.892578,-1.37695 c -0.123153,-0.19033 -0.374459,-0.8446 -0.552735,-1.83008 -0.124438,-0.81641 -0.173813,-2.14204 -0.195312,-3.60938 l 0.214844,-0.15429 5.353515,8.03125 5.960938,-1.85938 3.007812,-0.60156 c 0.05549,-0.0111 0.105783,-0.0156 0.15625,-0.0156 h 0.109375 l 0.107422,-0.0176 c 0.09575,-0.016 0.188445,-0.0234 0.28125,-0.0234 0.476566,0 1.155746,0.0598 1.998047,0.19141 0.84603,0.13219 1.692867,0.30358 2.541016,0.51562 0.846096,0.21153 1.617547,0.43464 2.320312,0.66797 0.672041,0.25033 1.111729,0.50317 1.191406,0.56836 l 0.923828,0.75781 0.845704,-0.8457 c 0.529467,-0.52946 1.127504,-1.04014 1.796875,-1.5293 l 0.01172,-0.008 0.01367,-0.0117 c 0.664629,-0.51125 1.350799,-0.95571 2.060547,-1.33594 0.721278,-0.38639 1.437011,-0.70364 2.146484,-0.95703 0.697284,-0.24903 1.336391,-0.40333 1.914063,-0.47266 l 1.384766,-0.16601 -0.242188,-1.37305 c -0.05026,-0.28482 -0.09749,-0.57075 -0.142578,-0.85742 h 2.652344 v 1.33398 c 0,0.63742 -0.09423,1.07551 -0.177735,1.27344 -0.04175,0.099 -0.06161,0.13707 -0.07031,0.14844 l -0.002,0.002 h -0.002 -0.002 l -0.002,-0.002 v -0.002 h -0.002 -0.002 l -0.861328,0.32031 v 2.86133 h 11.525398 v -3.15625 l -1.11719,-0.17383 c -0.68143,-0.10647 -0.94974,-0.29852 -1.02539,-0.37305 -0.0621,-0.0989 -0.22461,-0.48721 -0.22461,-1.27148 v -0.96094 h 9.21289 c -0.10014,0.62464 -0.2214,1.16574 -0.35742,1.61914 l -0.008,0.0312 -0.008,0.0293 c -0.11581,0.46325 -0.25746,0.74948 -0.29883,0.80859 l -1.45312,2.07617 h 2.5332 c 0.74246,0 1.60369,0.0753 2.57227,0.23243 0.98805,0.16022 1.96161,0.35954 2.92187,0.5996 l 0.004,0.002 h 0.004 c 0.98082,0.23858 1.87227,0.50387 2.67773,0.78906 0.79876,0.31042 1.41613,0.60434 1.80469,0.8418 l 0.3164,0.19336 h 0.97071 l 0.39453,-0.45118 c 0.0669,-0.0764 0.26841,-0.25486 0.58008,-0.45703 0.36827,-0.21989 0.76464,-0.42899 1.18945,-0.6289 l 0.0137,-0.008 0.0137,-0.006 c 0.4458,-0.2229 0.8866,-0.40752 1.32227,-0.55274 l 0.0195,-0.006 0.0195,-0.008 c 0.47057,-0.17337 0.88708,-0.28926 1.24024,-0.35547 l 1.43554,-0.26953 -0.41211,-1.40039 c -0.11752,-0.39956 -0.23134,-0.90007 -0.33398,-1.48438 -0.0515,-0.4023 -0.0881,-0.93726 -0.10352,-1.5957 h 2.98047 v 1.29297 c 0,1.95751 0.56028,3.76825 1.66992,5.26953 l 0.39454,0.53516 h 1.06835 l 0.18555,-0.0547 c 0.81241,-0.24372 1.5941,-0.46005 2.34766,-0.64844 0.73204,-0.18301 1.524,-0.34164 2.375,-0.47461 l 1.11719,-0.17578 v -2.66992 l -0.8418,-0.3125 c -0.0127,-0.0226 -0.0392,-0.0774 -0.082,-0.19336 -0.10115,-0.27347 -0.19727,-0.82973 -0.19727,-1.60742 v -0.96094 h 2.80469 c -0.13989,0.27088 -0.26705,0.55896 -0.37305,0.87695 l -0.004,0.0117 -0.004,0.0117 c -0.30558,0.97773 -0.49214,1.95375 -0.55469,2.92383 l -0.0859,1.33008 1.33204,0.0723 c 0.99414,0.0537 1.84266,0.1357 2.53515,0.23828 l 0.0234,0.002 0.0234,0.004 c 0.68696,0.0763 1.2637,0.18966 1.71875,0.32618 l 0.0293,0.008 0.0293,0.008 c 0.46324,0.11581 0.82281,0.26035 1.07813,0.40625 l 0.0156,0.01 0.0176,0.01 c 0.32254,0.17201 0.60187,0.37057 0.84961,0.59766 l 0.78515,0.71875 0.86915,-0.61328 c 0.36267,-0.25601 0.85386,-0.52007 1.47265,-0.76758 0.62725,-0.2509 1.31304,-0.46605 2.06055,-0.64649 0.75086,-0.18124 1.54624,-0.32658 2.38672,-0.43164 0.83375,-0.10422 1.65176,-0.15429 2.45312,-0.15429 h 1.63672 l -0.34766,-1.60157 c -0.10906,-0.5016 -0.20817,-1.38198 -0.26171,-2.56054 -0.0112,-0.25239 -0.0204,-0.51227 -0.0293,-0.7793 h 4.01562 v 4.60156 l 0.72852,0.36524 c 0.42323,0.21162 0.96699,0.4962 1.62305,0.85156 0.64514,0.34945 1.27702,0.71202 1.89453,1.08789 l 0.83203,0.50781 0.73047,-0.64843 c 0.16297,-0.14486 0.45824,-0.36135 0.86133,-0.61329 0.40518,-0.25323 0.83944,-0.49687 1.30273,-0.72851 l 0.0254,-0.0137 0.0254,-0.0137 c 0.47287,-0.2627 0.95822,-0.5128 1.45899,-0.75 0.49086,-0.23252 0.94834,-0.4218 1.36914,-0.57031 l 0.88086,-0.31054 v -2.76758 l -1.25,-0.0664 c -0.76278,-0.0402 -1.28199,-0.2741 -1.78321,-0.77148 -0.0464,-0.049 -0.0917,-0.10236 -0.13476,-0.16016 h 4.87109 c -0.0118,0.34043 -0.026,0.68104 -0.043,1.02148 -0.0505,0.98104 -0.20425,1.7506 -0.41211,2.29102 l -0.67578,1.76172 1.88477,0.0312 c 1.52043,0.0262 2.84285,0.19794 3.96093,0.49609 l 0.002,0.002 h 0.004 c 1.15997,0.3026 2.20161,0.73751 3.13868,1.30468 l 0.9707,0.58985 2.39648,-2.88282 c 0.0922,0.13526 0.14112,0.278 0.24024,0.41211 0.5489,0.74264 1.18415,1.37017 1.90625,1.85157 l 1.24414,0.82812 0.66992,-1.33789 c 0.11363,-0.22725 0.32254,-0.56026 0.62305,-0.96094 0.29257,-0.39011 0.6243,-0.77079 0.99804,-1.14453 0.38411,-0.38411 0.7634,-0.72479 1.13672,-1.02344 l 0.004,-0.004 0.004,-0.004 c 0.36095,-0.29328 0.66109,-0.45722 0.85743,-0.52734 l 0.875,-0.31445 v -2.43555 l -1.02344,-0.23633 c -0.20312,-0.0469 -0.31824,-0.10467 -0.41016,-0.1582 v -0.002 h -0.002 v -0.002 c -0.01,-0.0152 -0.0558,-0.0825 -0.11523,-0.26367 -0.10151,-0.34752 -0.20225,-0.89914 -0.2793,-1.60938 -0.0508,-0.75101 -0.0801,-1.77781 -0.0801,-3.07421 0,-1.98532 0.0597,-3.48024 0.16016,-4.44532 0.11979,-0.89815 0.3589,-1.53363 0.64257,-1.9414 l 1.66016,-2.38672 -2.77148,0.30664 c -1.24177,-0.004 -2.23393,-0.20971 -3.00391,-0.57031 -0.79359,-0.41218 -1.6089,-1.04583 -2.43164,-1.94336 l -0.7207,-0.78711 -0.91992,0.53906 c -0.63248,0.37076 -1.65151,0.76444 -3.01563,1.10547 -1.30038,0.32509 -2.91448,0.5 -4.82812,0.5 h -0.36329 c -0.27861,-0.0884 -0.41186,-0.041 -0.59179,-0.041 h -1.23633 v -0.54101 h -5.85352 v -0.88086 c 0,-0.20028 0.0118,-0.60927 0.0391,-1.18164 v -0.002 -0.002 c 0.026,-0.57339 0.0655,-1.16246 0.11718,-1.76367 v -0.002 l 0.002,-0.002 v -0.002 -0.002 c 0.0818,-0.65445 0.16269,-1.26775 0.24414,-1.83789 0.0756,-0.52904 0.17431,-0.8977 0.20898,-0.98438 l 1.34375,-3.36328 -3.1914,1.70703 c -1.15295,0.6167 -2.23082,1.12062 -3.22657,1.51367 -0.91435,0.36093 -1.92423,0.58324 -3.04883,0.65821 l -2.52148,0.16796 1.47461,1.84766 h -0.002 v 0.002 0.002 c 0.004,0.0235 0.0882,0.18667 0.13086,0.41406 v 0.008 l 0.002,0.008 c 0.0731,0.36537 0.13753,0.79749 0.18945,1.29102 v 0.004 l 0.002,0.002 c 0.0527,0.47425 0.0909,0.94991 0.11718,1.42383 l 0.002,0.0391 0.006,0.041 c 0.0526,0.44671 0.0742,0.77337 0.0742,0.88476 v 0.6211 c -0.84331,0.68848 -1.69932,1.28542 -2.60351,1.63476 l -0.64063,0.24805 c 0.0303,-0.0693 0.0817,-0.0971 0.11133,-0.16797 l 0.71094,-1.69336 -1.83203,-0.13281 c -3.36428,-0.24223 -5.83045,-0.81368 -7.30469,-1.5625 l -0.54687,-0.27735 -0.56641,0.23828 c -1.79752,0.76257 -3.28276,1.31464 -4.42578,1.65235 -1.11897,0.3306 -2.12986,0.48633 -3.03125,0.48633 h -1.84961 l 0.60351,1.75 c 0.24268,0.70376 0.41668,1.48218 0.51758,2.33984 l 0.002,0.0176 0.004,0.0195 c 0.12621,0.85824 0.19336,1.8911 0.19336,3.08789 0,0.5028 -0.0139,1.08058 -0.041,1.73047 -0.026,0.59605 -0.0935,1.49588 -0.20313,2.67383 l -0.11133,1.19531 h -3.46289 v -12.89844 l -1.43945,-2.39844 -0.90625,0.22657 v -2.74219 c 0.26972,-0.40308 0.55708,-0.74593 0.85742,-1.0332 h 0.002 v -0.002 c 0.60515,-0.57993 1.35744,-1.19198 2.25586,-1.82617 l 1.69336,-1.19531 -1.79883,-1.02734 c -0.14382,-0.0822 -0.42175,-0.25312 -0.76757,-0.47461 -0.34612,-0.26571 -0.71475,-0.54176 -1.10743,-0.83008 -0.36693,-0.2883 -0.71879,-0.57626 -1.05859,-0.86328 -0.28364,-0.26176 -0.48361,-0.48075 -0.56836,-0.59375 z M 130.6582,127 v 0.75977 l 1.53711,0.66406 v 10.54492 h -2.98828 v -0.4082 c 0,-0.35614 0.0153,-0.62252 0.0312,-0.75 l 0.24805,-1.98243 -1.91992,0.54883 c -1.3635,0.38957 -2.54825,1.0934 -3.44336,2.0918 h -0.002 v 0.002 c -0.55743,0.62433 -0.93264,1.36191 -1.21875,2.14063 -0.45569,-0.0665 -0.86778,-0.10159 -1.39843,-0.22266 l -0.008,-0.002 c -0.50506,-0.11905 -0.81424,-0.24136 -1.20117,-0.36328 0.0695,-0.61233 0.15381,-1.19296 0.18945,-1.88282 4e-5,-5e-4 4e-5,-0.003 0,-0.004 v -0.002 c 2.4e-4,-9.2e-4 0.002,-0.005 0.002,-0.006 0.0834,-1.12109 0.125,-2.15371 0.125,-3.09766 0,-1.08663 -0.0429,-2.16021 -0.12891,-3.2207 -0.006,-0.10676 -0.0228,-0.21357 -0.0293,-0.32032 0.15423,0.0871 0.29289,0.24215 0.44922,0.32032 0.99895,0.49946 1.93229,0.80273 2.875,0.80273 1.25796,0 2.48507,-0.42958 3.57813,-1.19141 l 0.002,-0.004 0.004,-0.004 c 1.11465,-0.78682 2.00207,-1.82836 2.61914,-3.0625 z m 47.875,0.19922 0.0176,0.0781 c 0.2082,0.8923 0.44835,1.64964 0.75586,2.29883 l 0.0117,0.0254 0.0137,0.0254 c 0.32927,0.62559 0.71288,1.16665 1.18945,1.60352 l 0.0234,0.0215 0.0234,0.0195 c 0.45961,0.38301 0.99138,0.67276 1.5625,0.83594 l 0.0508,0.0156 0.0527,0.01 c 0.50925,0.10184 1.03968,0.15039 1.5879,0.15039 0.84766,0 1.78334,-0.16536 2.87695,-0.46093 0.44452,-0.12014 0.85227,-0.30802 1.2832,-0.45313 v 1.36133 c -0.21469,0.0838 -0.36173,0.16273 -0.63476,0.24609 -0.56028,0.15189 -1.19172,0.29491 -1.89844,0.42578 -0.70601,0.13074 -1.45699,0.23675 -2.25195,0.31641 h -0.002 -0.002 -0.002 c -0.75921,0.0514 -1.50412,0.0762 -2.23438,0.0762 -0.66896,0 -1.27442,-0.0377 -1.81445,-0.11133 l -2.27344,-0.31054 0.87305,2.12109 c 0.14272,0.34662 0.25749,0.77699 0.32812,1.29492 l 0.002,0.004 v 0.004 c 0.0731,0.51162 0.11132,1.07229 0.11132,1.68165 0,0.16342 -6.9e-4,0.3268 -0.002,0.49023 h -5.42383 c -0.007,-0.12844 -0.0117,-0.26369 -0.0117,-0.40625 v -7.67969 l 3.6211,0.45703 0.2832,-1.13672 c 0.10273,-0.4109 0.28877,-0.86026 0.5625,-1.34375 0.31291,-0.50274 0.65492,-0.95379 1.0293,-1.35156 z m -17.27148,0.7207 v 2.45313 h 3.44726 v 8.5957 h -4.05664 c -0.007,-0.52783 -0.0117,-1.0786 -0.0117,-1.65234 0,-1.83496 0.0442,-3.2256 0.1211,-4.12305 l 0.13086,-1.53711 -1.53906,0.10742 c -1.1981,0.0836 -2.24474,0.1676 -3.14454,0.25195 -0.90701,0.085 -1.73519,0.18523 -2.48632,0.30079 h -0.004 l -0.004,0.002 c -0.71982,0.11517 -1.38885,0.24521 -2.00781,0.39258 l -0.006,0.002 -0.008,0.002 c -0.0373,0.009 -0.0722,0.0237 -0.10938,0.0332 -0.0208,-0.47046 -0.0351,-0.93975 -0.0351,-1.41016 v -0.68555 c 0.43723,0.15653 0.87466,0.31096 1.3125,0.44922 l 0.01,0.002 0.01,0.002 c 0.60582,0.18175 1.20163,0.321 1.79101,0.41406 0.5788,0.0914 1.11593,0.14063 1.61915,0.14063 1.18702,0 2.32416,-0.36248 3.20703,-1.0918 l 0.0117,-0.01 0.0137,-0.0117 c 0.72959,-0.63442 1.24699,-1.58807 1.73828,-2.62695 z m -49.75586,0.14844 0.13281,0.42383 c 0.2699,0.85879 0.47983,1.9251 0.61133,3.1875 v 0.0156 l 0.002,0.0137 c 0.15806,1.23805 0.24024,2.58142 0.24024,4.02735 0,0.8868 -0.0286,1.74418 -0.082,2.57226 -0.0145,0.22444 -0.0305,0.44447 -0.0488,0.66016 h -9.41797 v -2.60352 l 2.58789,-3.64062 3.04687,1.5918 0.6836,-0.78711 c 0.67202,-0.77283 1.20238,-1.70239 1.60742,-2.76172 l 0.002,-0.006 0.004,-0.006 c 0.30765,-0.82829 0.47258,-1.75543 0.63086,-2.6875 z m -31.335938,2.85156 c 0.35911,0.10195 0.586876,0.23814 1,0.33203 l 0.01367,0.004 0.01563,0.002 c 0.872878,0.17855 1.775525,0.27664 2.673829,0.38672 l -0.06445,8.94727 c -0.542404,-0.12754 -1.045997,-0.28592 -1.625,-0.38477 -0.713776,-0.12186 -1.326088,-0.19892 -1.96875,-0.28906 0.02613,-0.57996 0.05767,-1.15497 0.07422,-1.74414 l 0.002,-0.0332 c 0.05505,-1.02794 0.08398,-1.95409 0.08398,-2.77734 0,-1.04734 -0.02926,-2.0826 -0.08594,-3.10351 v -0.002 c -0.02273,-0.4201 -0.08304,-0.89725 -0.11914,-1.33789 z m 72.433598,6.875 v 0.1836 c 0,0.75725 -0.0399,1.48383 -0.11719,2.17968 -0.0239,0.20692 -0.0759,0.47937 -0.10742,0.70313 -1.43346,-0.60986 -2.9091,-1.24764 -3.91797,-1.59766 -0.69751,-0.24199 -1.13419,-0.24975 -1.68555,-0.38281 1.00314,-0.24218 1.99278,-0.49148 3.0957,-0.68164 l 0.0117,-0.002 0.01,-0.002 c 1.03859,-0.19697 1.85046,-0.28773 2.71094,-0.40039 z m 35.41992,0.11524 v 2.48242 c -0.34677,-0.0463 -0.75964,-0.14903 -1.07227,-0.16211 h -0.002 c -0.19737,-0.009 -0.38376,-0.0277 -0.57813,-0.0391 l 0.0352,-1.87305 c 0.31735,-0.0646 0.58874,-0.0917 0.94336,-0.18359 l 0.0215,-0.006 0.0234,-0.006 c 0.20335,-0.0602 0.42232,-0.14699 0.62891,-0.21289 z m -118.382815,3.67578 h 2.560547 c -0.02724,0.19417 -0.05714,0.37477 -0.08984,0.54297 l -0.002,0.0137 -0.002,0.0137 c -0.132609,0.77355 -0.37946,1.14665 -0.390625,1.17383 l -0.5,0.42969 z"
       sodipodi:nodetypes="ccccccccsscccccccccccscccsccccccccccccccccccsccccsscscccccsscccccsccccccccccccccccccccccccccccsccscccscccccccscccccccccssccccccccccscscccccscsccscccccccccccccccccsssccccccscsssccccccccccscccccccccccsccccccccscccscccccccsccccccscccccccccsccssscccscccsscccccssccccccccccccccscccccccscccccsccccccccccccccccsccccscccccsccscccccccccccccccccsssscccccccscccscccscccccccccccccccccscccsscccccccccccccsccccccccsscscccsccccccccsccsscccccccccccccccscccccccccsscccccscccccccccccsccccccccccccsccccccccccscccscccsccccccccccscscccsscccsccccsccccccsccscccccccccccsccsscccccccsccccsscccccccccssccccccccccccccccscccsccccsccscccccccccccccccccccccccccccc"
       inkscape:label="text" /><path
       id="path4"
       style="baseline-shift:baseline;display:inline;overflow:visible;opacity:1;fill:none;stroke:#000000;stroke-width:0.18897638;stroke-linejoin:round;stroke-dasharray:none;stroke-opacity:1;enable-background:accumulate;stop-color:#000000;stop-opacity:1"
       d="m 109.48369,28.85244 c -3.37798,0.06748 -6.72802,0.960331 -10.009165,2.91631 -0.898796,0.535797 -2.793521,1.76157 -4.352249,3.372741 -0.779363,0.805586 -1.509066,1.687599 -1.882272,2.896114 -0.243809,0.789504 -0.05877,1.750366 0.329195,2.641643 l -0.688685,2.583076 c -0.901774,0.153312 -1.70886,0.38977 -2.300331,0.646273 -0.940718,0.407962 -1.490602,0.669722 -2.300329,0.706862 -3.827356,0.175542 -7.808451,-1.404619 -12.582141,-1.498547 -1.713751,-0.0337 -4.514964,-0.208245 -6.515247,1.928724 -0.982636,1.049781 -1.190277,2.32143 -1.242057,3.508053 -0.05178,1.186624 0.09218,2.399813 0.282745,3.594897 0.381133,2.390169 0.937577,4.890554 0.941136,5.638738 0.03076,6.46622 -0.03069,13.127798 -0.313039,19.576034 -0.160848,3.673279 -1.22202,6.407114 -0.185804,10.821044 0.225959,0.962505 0.198124,2.746435 0.403921,4.620857 0.2058,1.874421 0.760345,4.151466 2.783017,5.52766 3.144842,2.139671 6.443506,1.491251 8.926655,1.520761 4.369985,0.052 8.193793,0.0417 12.640708,-0.43624 2.864618,-0.307805 6.181917,0.75732 9.896062,1.11078 3.89113,0.3703 7.40124,-0.26792 10.61504,0 1.77863,0.14811 3.67431,-0.15627 5.41052,-0.23225 1.73623,-0.076 3.13617,0.18086 3.55855,0.50087 a 1.9542828,1.9542828 0 0 0 1.17945,0.39584 h 0.30294 a 1.9542828,1.9542828 0 0 0 0.95528,-0.24841 c 2.05871,-1.15238 4.80302,-1.01428 7.99763,-0.64224 3.19461,0.37206 6.75852,1.00367 10.20305,-0.33122 1.33012,-0.51548 2.17199,-1.401995 3.05566,-2.298302 0.88367,-0.896306 1.68053,-1.83493 2.15694,-2.373036 1.63637,-1.848287 1.40915,-4.22166 1.03201,-6.048718 -0.37712,-1.82706 -0.91846,-3.535066 -0.94718,-4.307818 -0.32585,-8.767207 -0.85991,-17.859158 0.101,-26.339691 0.28913,-2.551852 0.67364,-4.430485 1.59548,-6.765677 0.15808,-0.400424 0.47429,-1.026569 0.6584,-1.880252 0.18412,-0.853686 0.14345,-2.140429 -0.61598,-3.152605 -1.4147,-1.885537 -3.64185,-2.423604 -5.44889,-2.417467 -1.80703,0.0061 -3.46929,0.392454 -4.58653,0.498842 -5.46078,0.520023 -9.59582,0.829777 -13.6182,-1.952958 -0.0105,-0.03259 -0.0309,-0.09408 -0.0565,-0.197921 -0.0821,-0.332989 -0.122,-0.929619 -0.44431,-1.728782 -0.58947,-1.461475 -1.07657,-3.39143 -1.97315,-5.291366 -0.89658,-1.899936 -2.35594,-3.860981 -4.7905,-4.826857 -3.38894,-1.344501 -6.79478,-2.103242 -10.17275,-2.035762 z m -0.77554,9.835477 c 1.4422,-0.04533 3.63002,0.61491 6.14364,0.426137 l 3.32629,2.764841 0.008,1.547016 -3.8433,1.482391 -9.51032,-0.0727 -3.11221,-1.385449 -0.1131,-1.357174 c 2.40425,-1.781928 4.55654,-3.325054 7.10093,-3.405056 z m -25.978171,10.411065 3.77868,0.290824 c -0.661635,0.490744 -4.293747,0.968208 -3.77868,-0.290824 z m 58.821001,0.0081 c 1.86649,-0.07806 3.78697,0.374317 4.23309,1.446036 l -8.13497,0.290824 c 0.22385,-1.050053 2.03536,-1.658802 3.90188,-1.73686 z m -23.66372,0.161568 c 2.41943,0.03055 4.88895,0.343298 6.10527,0.702822 v 0.290824 h -11.91366 c 1.01938,-0.772279 3.38896,-1.024192 5.80839,-0.993646 z m -26.557803,0.0021 c 0.374176,-0.02108 0.799043,0.01491 1.28043,0.119157 l -0.581646,8.716616 c -0.851746,0 -2.564704,0.320734 -3.243487,-0.296882 -0.623242,-0.567083 -0.245683,-2.147364 -0.242353,-2.898133 0.01112,-2.511199 0.167824,-5.493201 2.787056,-5.640758 z m -17.897741,0.119157 0.872469,1.454115 h 0.290823 v -0.872469 l 2.615389,0.581646 v 0.290823 c -2.304623,1.162335 -1.454116,5.043255 -1.454116,7.262501 0,4.03259 -0.120285,9.611457 4.649132,10.89981 1.619631,0.437496 3.287292,0.182098 4.939954,0.143391 v 0.290823 c -1.180231,0.374114 -2.24381,0.573643 -3.485838,0.579627 -8.429961,0.04066 -6.58309,-7.708801 -6.999952,-13.65657 -0.164494,-2.347001 -1.530203,-4.640938 -1.427861,-6.973697 z m 25.861049,0.290823 h 12.204465 v 0.872469 c -5.22292,0 -12.143525,1.187356 -17.144424,-0.290823 z m 27.603955,0.581646 c 4.69869,0.0135 2.90622,4.691701 2.90622,8.134971 -4.8572,-5.22e-4 -2.90661,-4.515115 -2.90622,-8.134971 z m 17.43525,1.452096 -2.61539,18.014879 -7.84414,0.290823 c 1.52629,-2.014024 4.8555,-0.558847 6.47081,-2.918329 2.00458,-2.928018 1.29008,-7.941401 1.88228,-11.319888 0.27737,-1.582409 0.37703,-3.522917 2.10644,-4.067485 z m -13.36574,5.812424 5.8104,2.324567 v 0.579625 c -3.98188,2.323666 -6.72104,1.163294 -11.04118,1.163294 v 1.161273 l -0.58164,-0.87045 -3.77667,-0.581647 c -3.86305,-2.028502 2.39926,-3.451213 4.06749,-3.485838 v 1.161273 l 5.81242,-0.581646 z m -37.774697,0.290824 5.810402,2.324565 c -2.4304,3.094952 -5.690955,1.897663 -9.005418,2.039801 -3.039226,0.13032 -6.973879,1.838408 -8.136988,-2.621447 1.425823,-0.581815 3.295638,-1.545154 4.889463,-1.312744 2.162145,0.315285 4.861402,2.421876 6.442541,-0.430175 z m 37.193047,5.228758 c 0,4.360594 0.0358,5.611243 -4.64913,5.812423 0,-4.196941 0.11351,-5.812423 4.64913,-5.812423 z m -39.305554,0.02625 c 0.602284,0.01284 1.139493,0.431748 1.437959,1.466233 0.152954,0.530178 0.101173,1.159323 0.08886,1.704548 -0.01988,0.882376 -0.176453,1.742358 -0.286783,2.615388 -0.91693,0 -2.261488,0.238923 -3.104134,-0.175705 -2.758688,-1.357469 -0.103364,-5.652393 1.864096,-5.610464 z m 11.410764,2.007489 12.20448,0.290822 c -1.00539,4.009222 -8.75437,2.181903 -12.20448,2.033742 z m 4.7804,3.611053 c 1.09133,-0.06876 2.60408,0.414704 3.39698,0.515 0,0.922595 0.0832,1.891954 -0.0445,2.807251 -0.64081,4.597301 -7.22382,-0.694667 -4.26136,-3.033448 0.22836,-0.180273 0.54504,-0.265882 0.90881,-0.288803 z m -10.104074,1.058273 c 1.306465,-0.0013 2.772169,0.259741 3.289934,0.852273 L 95.225276,70.02017 c 0.429679,-0.175257 1.156961,-0.269819 1.94084,-0.270627 z m 20.904934,0.0081 c 1.8555,0.01542 3.79624,0.262548 5.04901,0.262548 -1.8818,1.921599 -7.05419,0.879455 -9.58909,0.87247 0.91409,-0.933417 2.68457,-1.150445 4.54008,-1.135018 z m 10.53224,0.159549 c 1.09425,0.0081 2.1312,0.603966 2.72848,2.138762 0.40746,1.047013 0.21409,2.38242 0.21409,3.485838 -1.47623,-0.5191 -0.92396,-2.070293 -1.86814,-3.130388 -2.36427,-2.65459 -3.98673,1.192797 -4.23309,3.130388 -2.81219,-1.823163 0.36223,-5.645121 3.15866,-5.6246 z m -37.867597,0.06867 c 0.634823,0.0216 1.33915,0.320702 2.102409,0.999705 1.41471,1.258533 1.117168,3.177284 1.514704,4.847053 l -1.161273,0.290822 c -0.04082,-1.967455 -1.4514,-5.849283 -4.025073,-3.651446 -1.136691,0.970698 -0.569927,2.569875 -2.076154,3.0698 2.29e-4,-2.186435 1.378162,-5.633084 3.645387,-5.555934 z m -15.559039,1.779272 v 7.553324 h -0.290822 z m 52.301706,1.452097 h 0.58165 l 0.29082,3.487858 h -0.87247 z m -37.774685,0.290823 h 1.163293 l 0.290822,3.776662 h -1.163292 z m 41.842185,4.067485 c -0.008,0.64264 0.10977,1.573119 -0.46451,2.025664 -0.89112,0.702156 -6.59981,0.968172 -7.49477,0.246392 -1.75954,-1.419051 1.339,-1.979567 2.14887,-1.981233 h 2.03374 c 1.29093,0 2.51564,0.0097 3.77667,-0.290823 z m -45.618847,0.290823 8.425793,0.290823 c -0.62075,2.905203 -6.345765,1.74292 -8.716616,1.74292 z m 3.045565,3.457564 c 0.874278,0.02931 1.851372,0.55083 2.476036,0.900744 -0.38897,1.948115 -0.147868,3.855176 -0.414019,5.810404 -0.158748,1.16625 -0.271526,2.380391 -0.694744,3.487858 -0.543993,1.423478 -4.064925,5.299584 -5.049014,2.30639 -0.793802,-2.414424 1.685479,-6.682796 2.005468,-9.280087 0.103663,-0.841262 -0.155565,-2.297166 0.589726,-2.898133 0.312192,-0.251743 0.689148,-0.3405 1.086547,-0.327176 z m 40.539532,0.609922 c -0.26309,1.731613 -0.22473,3.492572 -0.45644,5.230776 -0.15474,1.160984 -0.24933,2.324855 -0.41402,3.485839 -0.19493,1.37425 -1.05928,5.042952 -3.15866,3.382838 -1.7839,-1.410627 -1.60905,-9.631442 -0.0566,-11.342103 0.74541,-0.821336 3.03737,-0.712337 4.08565,-0.75735 z M 74.013362,82.22467 h 0.581646 l 0.290824,8.425793 c 1.065683,0.177615 0.203419,1.262957 -0.290824,1.744938 l 8.716617,2.033743 v 0.290824 c -2.305342,-2.53e-4 -7.705279,0.08744 -8.950891,-2.405351 -0.406757,-0.814017 -0.05798,-2.223769 -0.05655,-3.11625 0.0039,-2.354842 -0.106142,-4.633484 -0.290822,-6.973697 z m 12.204474,2.906211 -0.581646,2.904193 c -1.598292,-0.0047 -3.229739,0.0052 -3.776661,-1.74292 z m 56.662034,0.579627 c 0,2.832458 1.27587,7.510639 -1.77119,9.20738 -0.91395,0.508927 -2.15302,0.483848 -3.16876,0.672529 l 2.6154,-1.742919 v 0.290824 l -0.87248,0.870449 c 3.94242,-3.012121 1.62211,-5.54503 3.19703,-9.298263 z m -20.94936,0.216099 c 1.13823,-0.03233 1.9305,0.92466 0.89873,2.980936 l -3.48585,-1.161273 c 0.60821,-1.169808 1.70183,-1.794523 2.58712,-1.819663 z m -28.217919,0.40594 c 0.975046,-0.04309 2.425274,1.958453 -0.521058,1.99335 -0.317511,-1.463528 0.04487,-1.972306 0.521058,-1.99335 z m 37.544459,0.250431 2.61336,1.452096 v 0.290823 c -1.10484,0.729107 -1.91172,0.949342 -3.195,0.581646 0.0417,-1.109261 -0.47389,-1.626293 0.58164,-2.324565 z m -28.6986,6.559677 c 0.87456,0.04734 1.72974,0.172531 2.54673,0.41402 v 0.290823 l -13.94739,0.87247 c 0.781502,-1.205454 2.194662,-0.798072 3.485839,-0.92094 2.489482,-0.236914 5.291216,-0.79839 7.914821,-0.656373 z m 7.48669,1.551057 10.45953,0.02626 v 0.288803 c -5.54169,1.266761 -10.97283,-0.242527 -16.56279,-0.288803 z m -8.42781,0.02626 v 0.288803 h -5.810407 z m 30.21935,0.579627 h 4.93995 v 0.290822 z"
       inkscape:label="znak" /></g></svg>
