<?xml version="1.0" encoding="UTF-8" standalone="no"?>
<svg
   version="1.2"
   viewBox="0 0 219.2126 219.2126"
   width="58mm"
   height="58mm"
   id="svg1"
   sodipodi:docname="GamblerRoleTokenLaser.svg"
   inkscape:version="1.4.2 (f4327f4, 2025-05-13)"
   xml:space="preserve"
   xmlns:inkscape="http://www.inkscape.org/namespaces/inkscape"
   xmlns:sodipodi="http://sodipodi.sourceforge.net/DTD/sodipodi-0.dtd"
   xmlns="http://www.w3.org/2000/svg"
   xmlns:svg="http://www.w3.org/2000/svg"><sodipodi:namedview
     id="namedview1"
     pagecolor="#ffffff"
     bordercolor="#666666"
     borderopacity="1.0"
     inkscape:showpageshadow="2"
     inkscape:pageopacity="0.0"
     inkscape:pagecheckerboard="0"
     inkscape:deskcolor="#d1d1d1"
     inkscape:zoom="3.4816928"
     inkscape:cx="77.404876"
     inkscape:cy="72.234977"
     inkscape:window-width="1920"
     inkscape:window-height="1057"
     inkscape:window-x="-8"
     inkscape:window-y="-8"
     inkscape:window-maximized="1"
     inkscape:current-layer="layer2"
     inkscape:document-units="mm"
     showgrid="false" /><defs
     id="defs1"><clipPath
       clipPathUnits="userSpaceOnUse"
       id="cp1"><path
         d="m 275.5,535.5 c -143.78,0 -260,-116.22 -260,-260 0,-143.78 116.22,-260 260,-260 143.78,0 260,116.22 260,260 0,143.78 -116.22,260 -260,260 z"
         id="path1" /></clipPath></defs><style
     id="style1">
		tspan { white-space:pre } 
		.s0 { fill: none;stroke: #ff0000;stroke-miterlimit:100 } 
	</style><g
     inkscape:groupmode="layer"
     id="layer2"
     inkscape:label="Content"><g
       inkscape:groupmode="layer"
       id="layer4"
       inkscape:label="Kruh"
       style="display:inline"><path
         id="path2"
         style="fill:none;stroke:#000000;stroke-width:0.189192"
         d="M 219.118,109.6063 A 109.5117,109.5117 0 0 1 109.6063,219.118 109.5117,109.5117 0 0 1 0.09459686,109.6063 109.5117,109.5117 0 0 1 109.6063,0.09459686 109.5117,109.5117 0 0 1 219.118,109.6063 Z"
         inkscape:label="Vnejsi kruh" /><path
         id="circle2"
         style="fill:none;stroke:#000000;stroke-width:0.188976"
         d="M 208.69732,109.6063 A 99.091019,99.091019 0 0 1 109.6063,208.69732 99.091019,99.091019 0 0 1 10.515282,109.6063 99.091019,99.091019 0 0 1 109.6063,10.515282 99.091019,99.091019 0 0 1 208.69732,109.6063 Z"
         inkscape:label="Vnitrni kruh" /></g><g
       id="text2-9"
       inkscape:label="Text"
       style="opacity:1" /><path
       id="path3"
       style="opacity:1;font-size:41.5223px;font-family:'New Rocker';-inkscape-font-specification:'New Rocker';letter-spacing:0.769167px;baseline-shift:baseline;white-space:pre;display:inline;overflow:visible;enable-background:accumulate;stop-color:#000000;stop-opacity:1;fill:none;stroke:#000000;stroke-opacity:1;stroke-width:0.18897638;stroke-dasharray:none"
       d="M 126.59375 116.32812 C 125.48216 116.85744 124.44945 117.26186 123.50391 117.54297 L 123.5 117.54297 L 123.49414 117.54492 C 122.60539 117.81648 121.78246 117.94336 121.01562 117.94336 C 120.38227 117.94336 119.87884 117.86106 119.5 117.72852 L 116.32227 116.61523 L 117.89844 119.5918 C 118.12421 120.01825 118.3073 120.42299 118.45117 120.80664 C 118.58869 121.17337 118.69253 121.55128 118.76172 121.94336 L 118.76758 121.98047 L 118.77539 122.01562 C 118.86529 122.39772 118.925 122.83183 118.94922 123.31641 C 118.97552 123.84266 118.99023 124.44469 118.99023 125.11914 L 118.99023 139.48633 C 118.99023 140.62071 118.97802 141.66435 118.95508 142.61523 L 115.66992 142.61523 L 115.66992 142.39258 C 115.66992 140.9616 115.68384 139.76662 115.71094 138.81641 C 115.73824 137.86156 115.76597 137.06251 115.79297 136.41016 C 115.84507 135.79024 115.89645 135.28946 115.94531 134.91797 C 116.01991 134.52554 116.10605 134.16106 116.20117 133.82812 L 116.50781 132.75391 L 115.49805 132.27344 C 114.94251 132.0089 114.46254 131.76029 114.05469 131.53125 L 114.05273 131.5293 C 114.05123 131.5288 114.04667 131.52797 114.04492 131.52734 L 114.04297 131.52539 C 113.64112 131.2736 113.25214 131.02244 112.875 130.77148 L 112.86914 130.76758 C 112.5205 130.5183 112.16927 130.24116 111.81445 129.9375 C 111.81145 129.9345 111.80869 129.93269 111.80469 129.92969 C 111.42888 129.58055 111.01729 129.19366 110.5625 128.76562 L 109.57422 127.83594 L 108.67187 128.85156 C 107.81326 129.81749 106.98826 130.65491 106.20117 131.36328 C 105.87232 131.65925 105.45309 131.95976 105.08984 132.25781 C 104.55211 132.00102 104.08143 131.75829 103.68359 131.53516 C 103.27505 131.27941 102.87718 131.02637 102.49414 130.77148 L 102.48828 130.76758 C 102.13964 130.51829 101.78842 130.24117 101.43359 129.9375 C 101.43059 129.9345 101.42783 129.93269 101.42383 129.92969 C 101.04802 129.58055 100.63643 129.19366 100.18164 128.76562 L 99.18164 127.82422 L 98.28125 128.86133 C 97.401013 129.87494 96.541322 130.74631 95.708984 131.47461 C 95.49931 131.6572 95.216806 131.85186 94.992187 132.03711 L 94.992187 130.98242 L 93.552734 128.58398 L 92.605468 128.82031 C 91.735351 129.03784 90.736515 129.27059 89.611328 129.51758 C 88.507201 129.73255 87.484521 129.90763 86.550781 130.04102 L 85.417968 130.20312 L 85.417968 132.67187 L 86.955078 133.33594 L 86.955078 142.61523 L 83.261718 142.61523 C 83.234143 141.96289 83.21875 141.16777 83.21875 140.23242 C 83.21875 138.2471 83.27846 136.75218 83.378906 135.78711 C 83.498696 134.88895 83.737818 134.25152 84.021484 133.84375 C 84.021484 133.84375 80.786169 131.82283 79.908203 131.19531 C 79.113587 130.78318 78.29847 130.15071 77.474609 129.25195 L 76.753906 128.46484 L 75.833984 129.00391 C 75.201508 129.37467 74.182481 129.76639 72.818359 130.10742 C 71.517969 130.43252 69.903871 130.60938 67.990234 130.60937 L 67.626953 130.60937 C 67.34767 130.51997 67.215296 130.56641 67.035156 130.56641 L 65.371094 130.56641 L 65.75 132.1875 C 65.958202 133.0798 66.198352 133.83714 66.505859 134.48633 L 66.517578 134.51172 L 66.53125 134.53711 C 66.860513 135.16271 67.244116 135.70376 67.720703 136.14062 L 67.74414 136.16016 L 67.767578 136.18164 C 68.227189 136.56466 68.758961 136.8544 69.330078 137.01758 L 69.380859 137.03125 L 69.433594 137.04297 C 69.942835 137.14481 70.473266 137.19336 71.021484 137.19336 C 71.869148 137.19336 72.804835 137.02799 73.898437 136.73242 C 74.342961 136.61228 74.750709 136.42441 75.18164 136.2793 L 75.18164 137.63867 C 74.966865 137.72257 74.820059 137.80331 74.546875 137.88672 C 73.986598 138.03861 73.355157 138.18163 72.648437 138.3125 C 71.947995 138.44221 71.202058 138.54557 70.414062 138.625 C 69.646569 138.6775 68.894187 138.70508 68.15625 138.70508 C 67.487289 138.70508 66.881828 138.66738 66.341797 138.59375 L 64.068359 138.2832 L 64.941406 140.40234 C 65.084132 140.74896 65.198906 141.1813 65.269531 141.69922 L 65.271484 141.70312 L 65.271484 141.70703 C 65.312517 141.99426 65.342863 142.29716 65.361328 142.61523 L 62.185547 142.61523 C 62.131153 141.55464 62.063161 140.45059 61.982422 139.3125 C 61.983056 139.199 62.017622 138.95755 62.144531 138.61914 C 62.29369 138.22138 62.468146 137.82152 62.669922 137.41797 L 62.677734 137.4043 L 62.683594 137.39062 C 62.895895 136.93948 63.093158 136.53114 63.277344 136.16211 L 63.292969 136.13086 C 63.517778 135.70792 63.684933 135.36818 63.804687 135.04883 L 65.101562 131.5957 L 61.908203 133.44336 C 61.554638 133.64806 61.054119 133.82717 60.404297 133.94531 C 59.709103 134.04321 58.922197 134.0957 58.042969 134.0957 C 57.184016 134.0957 56.264179 134.0434 55.283203 133.9375 L 55.279297 133.9375 C 54.329235 133.83181 53.347702 133.67394 52.335937 133.46094 L 51.091797 133.19922 L 50.785156 134.43164 C 50.754896 134.55267 50.679028 134.78049 50.55664 135.07422 L 50.544922 135.10352 L 50.533203 135.13086 C 50.437843 135.3931 50.313656 135.69281 50.160156 136.02539 C 50.004515 136.36261 49.849868 136.68617 49.695312 136.99609 C 49.535371 137.28918 49.401191 137.52985 49.298828 137.70898 L 48.880859 138.43945 C 48.873959 137.76841 48.872862 137.1032 48.857422 136.42383 L 48.859375 136.45508 L 48.859375 132.88281 C 48.859375 130.74057 48.900805 128.85115 48.982422 127.21875 C 49.041572 126.01596 49.174259 125.44445 49.292969 124.86914 C 49.403436 124.86414 49.485161 124.86537 49.601562 124.85937 C 50.095974 124.83337 50.697581 124.81836 51.40039 124.81836 C 52.244953 124.81836 54.366851 124.78643 55.18164 124.86523 C 55.70966 124.91633 55.866799 125.01154 56.042969 125.08789 C 56.132419 125.51271 56.211972 125.95266 56.328125 126.33984 C 56.51683 126.96885 56.756301 127.56073 57.048828 128.11328 C 57.345806 128.67424 57.710062 129.20166 58.132812 129.68945 L 58.162109 129.72461 L 58.195312 129.75781 C 58.649472 130.21205 59.178776 130.64527 59.783203 131.06836 L 61.861328 132.52344 L 61.861328 129.98828 C 61.861328 130.02588 61.8834 129.64287 61.9375 129.12891 C 61.99063 128.62423 62.056982 128.03126 62.136719 127.36523 L 62.140625 127.3418 C 62.141598 127.3338 62.141507 127.32851 62.142578 127.32031 C 62.252281 126.60564 62.361306 125.85369 62.470703 125.06055 L 62.470703 125.05859 L 62.472656 125.05469 C 62.580463 124.24615 62.701028 123.49606 62.833984 122.80469 L 62.833984 122.79883 L 62.835937 122.79492 C 62.971853 122.06097 63.092287 121.41181 63.201172 120.83984 C 63.329641 120.27911 63.459128 119.88054 63.490234 119.81055 L 64.160156 118.30469 L 62.542969 117.98047 C 62.327147 117.93737 62.111481 117.92322 61.894531 117.91992 C 61.682616 117.89272 61.470462 117.87109 61.246094 117.87109 C 60.087549 117.87109 58.539653 117.97189 56.550781 118.16797 C 54.652227 118.35516 50.874984 118.52539 47.830078 118.52539 C 46.442876 118.52539 44.9559 118.49766 43.373047 118.44336 C 41.823111 118.36176 40.171654 118.22653 38.421875 118.03516 L 36.207031 117.79297 L 37.060547 119.85156 C 37.460351 120.81775 38.057451 121.70722 38.822265 122.50391 L 38.832031 122.51367 L 38.839844 122.52148 C 39.361251 123.04289 39.934618 123.3148 40.496094 123.63867 C 40.508514 123.80243 40.520443 123.90034 40.533203 124.11719 C 40.558833 124.55294 40.572265 125.08167 40.572265 125.69922 C 40.572265 126.44287 40.546057 127.24748 40.492187 128.10937 C 40.440457 128.93705 40.336018 129.74945 40.18164 130.54883 C 40.031036 131.30184 39.820518 132.00891 39.548828 132.67578 L 39.542969 132.6875 L 39.539062 132.69922 C 39.314347 133.28348 39.045176 133.69701 38.757812 133.98437 L 37.917969 134.82422 L 38.666016 135.74805 C 38.943974 136.09141 39.260483 136.76434 39.482422 137.77539 L 39.484375 137.79102 L 39.488281 137.80469 C 39.738757 138.83164 39.865234 139.9146 39.865234 141.0625 C 39.865234 141.80264 39.814944 142.54334 39.71289 143.28516 C 39.612429 143.98838 39.464669 144.61207 39.27539 145.15625 L 39.265625 145.17969 L 39.259765 145.20508 C 39.102339 145.72234 38.89973 146.11742 38.675781 146.41602 L 38.671875 146.42187 L 38.667969 146.42773 C 38.510848 146.64199 38.426367 146.68296 38.291016 146.7168 L 33.894531 147.81641 L 38.193359 149.25 C 39.148583 149.5684 40.24519 149.88063 41.488281 150.19141 L 41.492187 150.19141 L 41.496094 150.19336 C 42.712487 150.4907 43.97304 150.8424 45.277344 151.25 L 45.292969 151.25586 L 45.308594 151.25977 C 46.627363 151.63656 47.961628 152.08042 49.3125 152.59375 C 50.622694 153.09163 51.848472 153.69346 52.99414 154.39648 L 53.804687 154.89258 L 54.533203 154.28125 C 56.039709 153.01686 57.340139 152.08232 58.398437 151.47656 C 59.453664 150.89996 60.56684 150.47222 61.75 150.19531 L 63.376953 149.81445 L 62.675781 148.41016 L 62.677734 148.41016 L 62.679687 148.41016 L 62.679687 148.41211 L 62.679687 148.41406 L 62.68164 148.41406 L 62.683594 148.41406 L 62.683594 148.41211 C 62.688494 148.37671 62.591654 148.05417 62.554687 147.66602 C 62.500387 147.09583 62.432362 146.38589 62.351562 145.55078 L 62.351562 145.53906 C 62.328097 145.16337 62.305026 144.77061 62.28125 144.35937 L 65.375 144.35937 C 65.363458 145.12111 65.338865 145.88274 65.300781 146.64453 C 65.250281 147.62557 65.096527 148.39512 64.888672 148.93555 L 64.210937 150.69727 L 66.097656 150.72852 C 67.618089 150.75472 68.940506 150.92646 70.058594 151.22461 L 70.060547 151.22461 L 70.064453 151.22656 C 71.224412 151.52916 72.266064 151.96408 73.203125 152.53125 L 74.173828 153.11914 L 76.568359 150.23828 C 76.660699 150.37382 76.711219 150.51601 76.810547 150.65039 C 77.359454 151.39303 77.994695 152.0186 78.716797 152.5 L 79.960937 153.33008 L 80.630859 151.99219 C 80.744483 151.76494 80.951448 151.43192 81.251953 151.03125 C 81.544536 150.64114 81.87821 150.25851 82.251953 149.88477 C 82.636065 149.50065 83.015349 149.15998 83.388672 148.86133 L 83.392578 148.85937 L 83.396484 148.85547 C 83.757445 148.56219 84.057576 148.39629 84.253906 148.32617 L 85.128906 148.01367 L 85.128906 145.57812 L 84.105468 145.3418 C 83.903507 145.2952 83.791055 145.23689 83.699218 145.18359 C 83.698554 145.17959 83.645458 145.11909 83.578125 144.91211 C 83.534855 144.76358 83.492512 144.57821 83.451172 144.35937 L 86.955078 144.35937 L 86.955078 146.95898 C 86.955078 147.60837 86.845449 148.02785 86.761718 148.19531 L 86.753906 148.21289 L 86.746093 148.22852 C 86.686523 148.35617 86.653573 148.39412 86.642578 148.40234 L 86.640625 148.40234 L 86.640625 148.40039 L 85.833984 148.73633 L 85.833984 151.55859 L 96.113281 151.55859 L 96.113281 148.69727 L 95.271484 148.38672 C 95.258774 148.36402 95.232323 148.30922 95.189453 148.19336 C 95.088306 147.91989 94.992188 147.36363 94.992187 146.58594 L 94.992187 138.23437 L 97.501953 137.15039 L 97.501953 146.95898 C 97.501953 147.60837 97.392324 148.02785 97.308593 148.19531 L 97.300781 148.21289 L 97.292968 148.22852 C 97.233398 148.35617 97.200448 148.39412 97.189453 148.40234 L 97.1875 148.40234 L 97.1875 148.40039 L 96.380859 148.73633 L 96.380859 151.55859 L 106.41016 151.55859 L 106.41016 148.69727 L 105.57031 148.38672 C 105.55811 148.36442 105.53148 148.31022 105.48828 148.19336 C 105.38713 147.91989 105.28906 147.36363 105.28906 146.58594 L 105.28906 142.80664 L 105.28906 139.77539 C 105.28906 139.13337 105.30501 138.71479 105.31641 138.24414 L 107.88086 137.14453 L 107.88086 140.70117 L 107.88086 140.71289 C 107.90836 142.28303 107.92383 143.8537 107.92383 145.42383 C 107.92383 145.64838 107.89785 146.13579 107.84375 146.8125 C 107.78925 147.49408 107.72099 148.24709 107.63867 149.07031 C 107.55877 149.84194 107.45349 150.61231 107.32031 151.38477 L 107.31836 151.38867 L 107.31836 151.39258 C 107.18621 152.18548 107.04133 152.83033 106.89844 153.30664 L 106.67187 154.0625 L 108.44531 155.83398 L 109.37695 154.83594 C 109.7317 154.45586 110.145 154.05449 110.61719 153.63477 C 111.07931 153.224 111.5701 152.8235 112.08594 152.43555 L 112.09375 152.42969 C 112.64303 152.03765 113.17653 151.68624 113.69141 151.37695 C 114.2059 151.08412 114.69753 150.85918 115.16016 150.69727 L 116.24414 150.31641 L 116.01758 149.19141 C 115.96498 148.92857 115.91229 148.65202 115.85937 148.36133 C 115.81577 148.09957 115.77777 147.72557 115.75195 147.25977 C 115.72505 146.77501 115.69732 146.14644 115.66992 145.37695 L 115.66992 144.35937 L 118.89648 144.35937 C 118.85783 145.21699 118.80746 145.97419 118.74609 146.62891 C 118.58949 148.29939 118.26228 149.4957 117.90625 150.14844 L 116.19336 153.28516 L 119.5332 152.01367 C 120.0054 151.83379 120.57685 151.68717 121.24414 151.58789 C 121.97131 151.48401 122.60381 151.43555 123.13281 151.43555 C 123.89055 151.43555 124.8082 151.54441 125.86523 151.77539 C 126.96655 152.04433 128.12632 152.36734 129.34375 152.74609 L 129.95898 152.9375 L 130.48828 152.56836 C 131.0761 152.15944 131.70814 151.77612 132.37891 151.41406 C 133.09016 151.0725 133.80049 150.75381 134.50977 150.46484 C 135.22362 150.17402 135.92161 149.92406 136.60156 149.71484 C 137.28037 149.50598 137.89474 149.3533 138.44141 149.25391 L 140.25391 148.92578 L 139.35937 147.31445 C 139.31767 147.23945 139.23331 147.02789 139.16797 146.70117 C 139.09887 146.32912 139.03483 145.80776 138.98242 145.15234 C 138.96288 144.90834 138.94588 144.64387 138.92969 144.35937 L 142.05664 144.35937 L 142.05664 146.41992 C 142.05664 147.3842 141.89977 148.16669 141.625 148.80078 C 141.36512 149.40051 141.06215 149.71404 140.62695 149.93164 L 139.77539 150.35742 L 140.11328 152.72266 L 141.25781 152.72266 C 142.25035 152.72266 143.25467 152.59835 144.25977 152.35547 L 144.26953 152.35352 C 144.97892 152.18624 145.61794 151.94876 146.26367 151.71875 C 146.3866 151.82071 146.49803 151.95365 146.62891 152.04102 L 146.63086 152.04102 L 146.63086 152.04297 C 146.95897 152.27079 147.31003 152.47826 147.68555 152.66602 L 147.70508 152.67578 L 147.72266 152.68359 C 148.10888 152.86185 148.55468 153.04891 149.06055 153.24609 C 149.06955 153.24909 149.07508 153.25186 149.08398 153.25586 C 149.55681 153.46681 150.14261 153.74083 150.85937 154.08594 L 151.89258 154.58398 L 153.30664 152.46484 L 152.72266 151.71289 C 152.26395 151.12312 151.91706 150.64697 151.58789 150.18945 L 153.69531 150.18945 C 154.07137 150.18945 154.62845 150.24615 155.32422 150.375 L 155.32812 150.375 L 155.33203 150.37695 C 156.04983 150.50513 156.78506 150.68397 157.53906 150.91797 L 157.56445 150.92969 L 157.58984 150.93555 C 158.36032 151.14102 159.10254 151.39635 159.81836 151.70312 C 159.81886 151.70337 159.82297 151.70464 159.82422 151.70508 L 159.82617 151.70508 L 159.82812 151.70898 L 162.50195 152.49609 L 164.82227 151.79687 C 165.30205 151.62605 165.78006 151.45409 166.29102 151.29687 L 166.3125 151.28906 L 166.33398 151.2793 C 166.99659 151.04993 167.65688 150.87217 168.3125 150.74609 L 168.33594 150.74219 L 168.35937 150.73633 C 169.04174 150.57883 169.61679 150.47915 170.06836 150.43164 L 171.75586 150.25391 L 171.16992 148.66211 C 171.00823 148.22321 170.89564 147.7919 170.82617 147.36523 C 170.77997 146.88574 170.75195 146.19462 170.75195 145.29883 L 170.75195 144.38477 C 170.75195 144.37621 170.75193 144.36793 170.75195 144.35937 L 173.98828 144.35937 L 173.98828 146.95898 C 173.98828 147.5964 173.89598 148.03449 173.8125 148.23242 C 173.7707 148.33142 173.75139 148.36949 173.74219 148.38086 L 173.74023 148.38086 L 173.74023 148.38281 L 173.73828 148.38281 L 173.73633 148.38281 L 173.73437 148.38281 L 173.73242 148.38086 L 173.73242 148.37891 L 173.73047 148.37891 L 173.72852 148.37891 L 172.86719 148.69727 L 172.86719 151.55859 L 184.39258 151.55859 L 184.39258 148.4043 L 183.27734 148.23047 C 182.59591 148.124 182.32761 147.93195 182.25195 147.85742 C 182.18985 147.75852 182.02734 147.37021 182.02734 146.58594 L 182.02734 141.27734 L 184.61523 137.63477 L 187.66211 139.22852 L 188.3457 138.44141 C 189.01772 137.66858 189.54809 136.73902 189.95312 135.67969 L 189.95508 135.67383 L 189.95703 135.66797 C 190.35766 134.58936 190.6301 133.42119 190.7793 132.16797 L 190.91797 131 L 189.77344 130.72656 C 188.65185 130.45952 187.63328 130.16783 186.71484 129.85352 C 185.8082 129.51564 185.12974 129.19306 184.73437 128.94336 L 183.35547 128.07422 L 182.79102 129.60156 C 182.55616 130.23705 182.28257 130.80072 182.02734 131.39844 L 182.02734 130.98242 L 180.58789 128.58398 L 179.63867 128.82031 C 178.77084 129.03727 177.77393 129.26936 176.65234 129.51562 C 176.64934 129.51627 176.64753 129.51654 176.64453 129.51758 C 175.5412 129.73236 174.5191 129.90771 173.58594 130.04102 L 172.45312 130.20312 L 172.45312 132.67187 L 173.98828 133.33594 L 173.98828 142.61523 L 170.86328 142.61523 L 170.94922 141.57227 L 169.09766 142.12305 C 167.66444 142.54996 166.52089 143.10944 165.71484 143.99609 L 165.70312 144.00781 L 165.69336 144.02148 C 165.2899 144.48865 165.1604 145.11614 164.93164 145.69141 C 164.76044 145.67571 164.6345 145.66774 164.44141 145.64844 C 163.91587 145.56974 163.37801 145.49275 162.82812 145.41406 L 162.81055 145.41016 C 162.24913 145.30311 161.71383 145.19643 161.20703 145.08984 L 161.19922 145.08789 C 161.19722 145.08737 161.19441 145.08699 161.19141 145.08594 C 161.15081 145.07694 161.13656 145.06594 161.09766 145.05664 C 161.13026 144.73832 161.15651 144.4727 161.19531 144.11133 C 161.24301 143.66622 161.25896 143.20692 161.28906 142.75391 C 162.61337 142.54425 163.94426 142.33905 165.32227 142.16406 L 165.33203 142.16406 L 165.3418 142.16211 C 167.06057 141.91657 168.75093 141.72601 170.41211 141.58984 L 172.1543 141.44727 L 171.54102 139.81055 C 171.40244 139.44099 171.26321 138.96946 171.13477 138.4043 C 171.0067 137.84081 170.90223 137.24711 170.82422 136.62305 C 170.74352 135.97793 170.67681 135.33239 170.62305 134.6875 L 170.62305 134.68359 C 170.57025 134.02252 170.54492 133.42108 170.54492 132.88281 C 170.54492 132.1843 170.58492 131.62514 170.65039 131.23242 L 170.89844 129.74609 L 169.39453 129.69531 C 167.79051 129.64091 166.17142 129.54584 164.53906 129.41016 C 164.53006 129.4093 164.52618 129.40924 164.51758 129.4082 C 162.89623 129.2455 161.5382 129.0567 160.4668 128.84766 L 159.77734 128.71289 L 159.28125 129.20898 C 158.37017 130.12006 157.46074 130.86183 156.55664 131.43945 L 156.54883 131.44336 L 156.54102 131.44727 C 155.72078 131.98628 154.81712 132.34939 153.78711 132.54102 L 152.33594 132.81055 L 152.76562 134.22266 C 152.93147 134.76757 153.12022 135.61539 153.30859 136.71875 L 153.31055 136.73633 L 153.31445 136.75391 C 153.5106 137.73465 153.62109 139.05858 153.62109 140.68945 C 153.62109 141.26736 153.60008 141.90995 153.55469 142.61523 L 150.09375 142.61523 L 150.09375 123.99805 C 150.09375 122.62609 150.18825 121.43358 150.36328 120.42578 C 150.55347 119.48321 150.86577 118.81693 151.24219 118.36523 L 149.66016 116.32812 C 148.54855 116.85744 147.51585 117.26186 146.57031 117.54297 L 146.56641 117.54297 L 146.5625 117.54492 C 145.67375 117.81648 144.84888 117.94336 144.08203 117.94336 C 143.44869 117.94336 142.94525 117.86106 142.56641 117.72852 L 139.38867 116.61523 L 140.96484 119.5918 C 141.19061 120.01825 141.3737 120.42298 141.51758 120.80664 C 141.6551 121.17337 141.75893 121.55128 141.82812 121.94336 L 141.83398 121.98047 L 141.8418 122.01562 C 141.9317 122.39772 141.99336 122.83183 142.01758 123.31641 C 142.04388 123.84266 142.05664 124.44469 142.05664 125.11914 L 142.05664 142.61523 L 138.85742 142.61523 C 138.83231 141.68777 138.82031 140.60209 138.82031 139.36133 C 138.82031 138.33257 138.84639 137.31828 138.90039 136.31836 L 138.90039 136.31641 C 138.95039 135.36585 139.11565 134.34699 139.40039 133.25977 L 139.73047 131.99805 L 138.47461 131.65234 C 137.7979 131.46567 137.12221 131.17116 136.44141 130.75781 C 135.77848 130.35532 135.1545 129.84413 134.56641 129.20703 L 134.04687 128.64258 L 133.30078 128.81445 C 132.5341 128.99138 131.76841 129.2126 131.00586 129.47656 C 130.25238 129.73738 129.51307 130.04299 128.78906 130.38867 L 128.78711 130.38867 L 128.78516 130.39062 L 128.7832 130.39258 L 128.78125 130.39258 C 128.16358 130.66466 127.58906 130.972 127.02734 131.28906 L 127.02734 123.99805 C 127.02734 122.62609 127.12184 121.43358 127.29687 120.42578 C 127.48706 119.4832 127.79742 118.81693 128.17383 118.36523 L 126.59375 116.32812 z M 161.11523 135.54883 C 161.3897 135.60153 161.63613 135.68027 161.91992 135.72461 L 161.94336 135.72656 L 161.96484 135.73047 C 162.442 135.78827 162.79809 135.78886 163.21289 135.81836 C 163.23469 136.08891 163.23118 136.36621 163.26758 136.63281 L 163.27148 136.66211 L 163.27539 136.68945 C 163.30919 136.87535 163.35429 137.04312 163.39062 137.22461 L 161.29883 137.74219 C 161.27643 137.44559 161.26923 137.18331 161.24023 136.87109 C 161.21613 136.4852 161.15413 135.98057 161.11523 135.54883 z M 130.7168 136.48242 C 130.6977 136.77103 130.67916 137.02152 130.66016 137.32617 L 130.6582 137.34766 L 130.6582 137.36719 C 130.6301 138.26671 130.61523 139.16685 130.61523 140.06641 L 130.61523 143.07422 L 130.61719 143.0918 C 130.63659 143.81012 130.67323 144.30827 130.70703 144.83984 C 130.45557 145.00998 130.20616 145.13699 129.94727 145.34961 C 129.68369 145.55186 129.49073 145.74009 129.26758 145.93359 C 128.76006 145.797 128.27185 145.65745 127.66016 145.53906 C 127.30358 145.47006 127.0693 145.46156 126.75977 145.41406 C 126.82717 144.79669 126.92676 144.26376 126.94336 143.5 C 126.99886 142.21114 127.02734 140.80522 127.02734 139.27734 L 127.02734 137.60937 C 127.16068 137.54847 127.22486 137.50001 127.39062 137.43555 L 127.41992 137.42383 L 127.44727 137.41211 C 127.88336 137.21829 128.36643 137.04346 128.89453 136.89258 C 129.43328 136.73865 129.98529 136.61098 130.55273 136.50781 L 130.57422 136.50391 L 130.59766 136.49805 C 130.64006 136.48905 130.67486 136.49102 130.7168 136.48242 z M 48.894531 139.58594 L 50.359375 139.68164 C 51.191574 139.73534 51.839676 139.80238 52.263672 139.87305 L 52.267578 139.875 L 52.273437 139.875 C 52.771199 139.9536 53.152769 140.03207 53.378906 140.09375 L 53.392578 140.09766 L 53.40625 140.10156 C 53.704947 140.17626 53.93807 140.24899 54.091797 140.30664 L 54.179687 140.33789 L 54.195312 140.3418 C 54.207042 140.66525 54.232422 140.98908 54.232422 141.3125 L 54.232422 141.33789 L 54.234375 141.36328 C 54.261085 142.05767 54.273437 142.94342 54.273437 144.01172 C 54.273437 144.96801 54.261275 145.81079 54.234375 146.53711 L 54.232422 146.56055 L 54.232422 146.58594 C 54.232422 146.59094 54.232429 146.58875 54.232422 146.59375 C 53.845195 146.56805 53.346354 146.54072 53.05664 146.51562 L 53.050781 146.51562 C 52.471347 146.43952 51.953884 146.36375 51.501953 146.28906 C 51.026674 146.1832 50.537714 146.06441 50.033203 145.93164 C 49.74222 145.84084 49.326513 145.7445 48.96875 145.65039 C 48.96275 144.96763 48.959846 144.29762 48.941406 143.55469 C 48.941406 142.41919 48.92781 141.25533 48.90039 140.06641 C 48.90039 139.90805 48.895031 139.74477 48.894531 139.58594 z M 75.222656 142.82227 L 75.222656 145.30469 C 74.875883 145.25839 74.463021 145.15566 74.15039 145.14258 L 74.148437 145.14258 C 73.951089 145.13358 73.76466 145.11492 73.570312 145.10352 L 73.605469 143.23047 C 73.922815 143.16587 74.194211 143.13877 74.548828 143.04687 L 74.570312 143.04102 L 74.59375 143.03516 C 74.797093 142.97496 75.01607 142.88817 75.222656 142.82227 z M 150.09375 144.35937 L 153.43359 144.35937 C 153.40806 144.59783 153.37741 144.83477 153.34375 145.07031 L 153.3418 145.08984 L 153.33789 145.11133 C 153.26099 145.80326 153.14776 146.44883 152.99805 147.04883 C 152.99793 147.04933 152.99656 147.05344 152.99609 147.05469 C 152.85206 147.60115 152.68746 147.99054 152.57227 148.17773 L 151.44922 150.00195 C 151.41062 149.94755 151.3452 149.86675 151.30859 149.81445 L 151.29883 149.80273 L 151.29102 149.78906 C 150.97602 149.36156 150.7371 148.92308 150.56055 148.4668 C 150.40617 147.99719 150.28449 147.43353 150.21094 146.77148 C 150.14205 146.15191 150.10001 145.34185 150.09375 144.35937 z " /><g
       id="path2-8"
       style="opacity:1;stroke-width:0.16604251;stroke-dasharray:none"
       transform="matrix(1.1381205,0,0,1.1381205,-15.508367,-0.48897652)"><path
         id="path4"
         style="baseline-shift:baseline;display:inline;overflow:visible;fill:none;stroke:#000000;stroke-width:0.16604251;stroke-dasharray:none;stroke-opacity:1;enable-background:accumulate;stop-color:#000000;stop-opacity:1"
         d="m 92.208984,28.601562 c -3.980531,0.179157 -7.794328,2.20668 -11.228516,3.259766 -1.248475,0.382841 -3.286261,0.785528 -5.251953,1.353516 -1.965693,0.567988 -3.888675,1.254396 -5.039062,2.537109 -3.567965,3.978374 -3.128906,10.643493 -3.128906,15.066406 0,1.533157 -0.574448,4.453971 -0.820313,7.28125 -0.122932,1.41364 -0.163818,2.81752 0.01758,4.083985 0.181395,1.266465 0.585183,2.432704 1.460938,3.24414 2.30508,2.135788 6.080449,2.374692 8.513672,2.96875 5.763881,1.40724 12.027833,3.892889 18.21875,4.314453 2.963002,0.201759 5.878166,-1.307339 8.646486,-3.03125 2.13848,-1.331697 4.14549,-2.684791 6.0039,-3.734375 -1.13379,3.324022 -2.78204,7.071672 -1.5957,10.855469 0.57373,1.829935 1.97368,3.223716 3.45703,4.439453 1.48335,1.215738 3.08562,2.272738 4.16992,3.279297 1.57735,1.464254 3.73301,3.862616 6.08985,5.984375 2.35684,2.121759 4.90831,4.020271 7.54882,4.378906 1.94639,0.264359 4.18075,-0.825812 5.54493,-1.324219 3.29514,-1.203896 7.33434,-2.140362 10.55664,-4.089843 4.49935,-2.722092 5.9747,-8.148638 7.40625,-12.34375 1.58732,-4.651572 3.61931,-9.321668 4.96093,-14.167969 0.72919,-2.634005 -0.62091,-4.995018 -2.36328,-6.884766 -1.74237,-1.889748 -3.9515,-3.456408 -5.29101,-4.652343 -1.81252,-1.618241 -4.29542,-3.948449 -7.00196,-5.910157 -2.70653,-1.961709 -5.63576,-3.595761 -8.50586,-3.697265 -4.53253,-0.160288 -8.53934,2.636035 -12.02539,4.408203 -1.21656,0.618453 -2.91728,1.25697 -4.46875,2.130859 -0.84683,0.476991 -1.62829,1.065825 -2.29101,1.757813 -0.33355,-2.859764 -0.0937,-6.147539 -0.0937,-9.101563 0,-0.738163 0.0946,-1.697137 0.0332,-2.679687 -0.0614,-0.98255 -0.28872,-2.041453 -1.05078,-2.867188 -2.58331,-2.799135 -7.49066,-3.635432 -10.61914,-4.33789 -3.6824,-0.826841 -7.655252,-2.710442 -11.853514,-2.521485 z m 2.449219,3.06836 c 0.520569,0.02531 1.25182,0.207273 1.582031,0.388672 0.0088,0.0048 0.01737,0.0082 0.02148,0.0098 l 0.002,0.002 h 0.002 0.002 v -0.002 -0.002 h 0.002 l 0.002,0.002 h 0.002 l 0.002,0.002 0.002,0.002 0.002,0.002 c -0.217047,0.20987 -0.470453,0.418517 -0.408204,0.902343 0.02585,0.200929 0.164756,0.330133 0.285157,0.462891 -1.692137,-0.722935 -3.796104,-0.763199 -5.339844,-0.34375 -1.242914,0.337715 -2.163379,1.091269 -2.253906,2.130859 -0.09053,1.039591 0.664505,1.940529 1.800781,2.527344 1.716573,0.886504 4.023531,0.93351 5.792969,0.367188 0.986595,-0.315769 1.760558,-0.992246 1.986328,-1.90625 0.209139,-0.846673 -0.23783,-1.763093 -1.080078,-2.388672 0.460365,0.05516 0.918069,0.0583 1.474609,0.01172 0.681852,-0.05707 1.426899,-0.143797 2.060554,-0.195313 0.63363,-0.05152 1.21686,-0.02526 1.25195,-0.01563 1.78143,0.489685 4.03633,1.020064 5.84766,1.800781 l -2.1211,-0.152343 v 1.451171 l 0.66016,0.658204 c -1.47001,0.615756 -2.81529,1.431274 -4.08203,2.253906 -1.59252,1.034192 -3.126279,1.960712 -4.837897,2.277343 -1.665032,0.308015 -3.704454,-0.771343 -5.8125,-1.277343 -4.609098,-1.106331 -9.438303,-2.00671 -13.578125,-3.949219 5.336076,-2.263577 11.308878,-5.283176 16.732422,-5.019531 z m -20.90625,7.259765 20.351562,4.871094 c 0.270126,0.631281 0.436594,1.093813 0.433594,1.347656 -0.0037,0.313428 -0.129783,0.80317 -0.08984,1.738282 0.01847,0.432446 -0.05204,0.503635 -0.136718,0.585937 -0.08468,0.0823 -0.313353,0.191593 -0.685547,0.304688 -0.314018,0.09542 -0.744607,0.238493 -1.171875,0.427734 -0.07996,-0.70626 -0.289224,-1.409323 -0.767578,-1.953125 -0.521346,-0.592676 -1.347627,-0.975094 -2.271485,-0.896484 -2.197556,0.186985 -3.387996,2.02229 -3.294922,3.691406 0.04654,0.834558 0.385969,1.661914 1.046875,2.246094 0.660905,0.584179 1.633956,0.873331 2.736328,0.708984 0.746994,-0.111365 1.316646,-0.521616 1.751954,-1.017578 0.06703,0.108685 0.120016,0.17823 0.203125,0.339844 0.143226,0.278517 0.300479,0.605076 0.537109,0.919921 0.20668,0.274994 0.51839,0.577684 0.953125,0.691407 0.03236,0.05696 0.0793,0.149935 0.125,0.269531 0.136156,0.356324 0.284213,0.943694 0.414062,1.658203 0.259698,1.429018 0.466783,3.381712 0.63086,5.369141 0.164077,1.987428 0.286616,4.013898 0.386719,5.623047 0.05005,0.804574 0.09307,1.502643 0.134765,2.046875 0.01129,0.147317 0.02772,0.200974 0.03711,0.320312 -2.684185,0.435043 -6.352992,-0.954198 -9.449219,-1.474609 -0.582786,-0.09796 -1.237535,-0.109498 -1.802735,-0.201172 -0.565201,-0.09167 -0.955146,-0.272297 -1.078125,-0.433594 -0.112416,-0.147443 -0.215976,-0.560652 -0.220703,-1.083984 -0.0047,-0.523332 0.06445,-1.109807 0.06445,-1.642578 l -1.484375,-0.285157 -1.001953,2.501953 c -1.36419,-0.212453 -2.884475,-0.348226 -4.345703,-0.642578 -1.673374,-0.337086 -3.150972,-0.893326 -3.996093,-1.84375 -0.361462,-0.406502 -0.486799,-1.161022 -0.542969,-1.980468 0.186824,0.258802 0.370666,0.521663 0.646484,0.707031 0.742654,0.499113 1.777624,0.595551 2.853516,0.193359 0.898684,-0.335948 1.529281,-1.038964 1.886719,-1.818359 0.357438,-0.779395 0.470467,-1.646772 0.365234,-2.462891 -0.105233,-0.816119 -0.431013,-1.606352 -1.074219,-2.146484 -0.643206,-0.540132 -1.610372,-0.72329 -2.59375,-0.400391 -0.949451,0.311761 -1.615049,0.926178 -2.072265,1.642578 -0.04977,-4.575963 -0.333943,-9.846316 0.427734,-14.15625 l 2.501953,4.001953 z m 36.001957,3.181641 h 0.61328 v 2.757812 c -1.06724,-0.691987 -0.94759,-1.614009 -0.61328,-2.757812 z m 23.25781,3.560547 c -0.53132,0.584086 -0.86211,1.318484 -0.87891,2.064453 -0.0174,0.774789 0.25096,1.5681 0.83008,2.164062 0.57912,0.595962 1.45649,0.958985 2.50781,0.958985 1.0865,0 1.98929,-0.385535 2.57813,-1.003906 0.57124,-0.599891 0.82665,-1.385098 0.82226,-2.154297 0.34456,0.361149 0.66896,0.720869 1.04883,1.05664 1.48637,1.313801 3.40156,2.390213 5.15235,3.542969 1.3788,0.90784 2.53128,1.890419 3.41015,2.953125 -0.37075,0.08458 -0.74727,0.0388 -1.11328,0.234375 -0.87105,0.465431 -1.47831,0.945605 -1.86328,1.5 -0.38497,0.554396 -0.50748,1.233596 -0.32617,1.802734 0.36261,1.138275 1.49286,1.692544 2.64258,1.941407 1.14972,0.248863 2.459,0.186636 3.43164,-0.591797 0.48631,-0.389216 0.84938,-0.984824 0.95312,-1.689453 0.0202,-0.136999 -0.0768,-0.322893 -0.0742,-0.466797 0.24811,0.191003 0.49384,0.27395 0.68164,0.484375 0.27641,0.309696 0.44084,0.617299 0.48047,0.828125 0.0396,0.210826 0.0315,0.333309 -0.19336,0.585937 -0.30577,0.343627 -0.92724,0.688436 -1.64844,0.980469 -0.72119,0.292034 -1.51952,0.539803 -2.20312,0.857422 -2.75225,1.27879 -5.44707,2.745548 -8.04102,4.296875 -0.77509,0.463553 -1.64112,1.161202 -2.51367,1.71875 -0.87254,0.557548 -1.73597,0.917662 -2.25586,0.884766 -0.76573,-0.04845 -1.8832,-0.716921 -2.96679,-1.615235 -0.0628,-0.05209 -0.12375,-0.103633 -0.1836,-0.154297 1.03851,0.702155 2.47711,0.946324 4.01758,0.292969 1.14242,-0.484531 1.90488,-1.182535 2.23438,-2.015625 0.32949,-0.83309 0.1699,-1.736843 -0.28516,-2.425781 -0.91012,-1.377875 -2.927,-2.089775 -4.97852,-1.285156 -1.19323,0.467998 -1.99558,1.166948 -2.35937,2.009765 -0.34889,0.808296 -0.22037,1.689238 0.18945,2.390625 -0.57239,-0.520968 -1.17795,-1.087821 -1.69336,-1.474609 -3.40481,-2.555146 -6.62387,-5.399223 -9.68164,-8.38086 -0.56141,-0.547428 -1.15472,-1.302358 -1.45898,-2.037109 -0.30427,-0.73475 -0.34935,-1.369264 0.0449,-2.005859 0.0616,-0.09948 0.32091,-0.185873 0.42187,-0.285157 -0.27062,0.554705 -0.41546,1.1444 -0.29687,1.722657 0.15673,0.764241 0.66597,1.454501 1.42578,1.839843 0.75981,0.385341 1.73928,0.467169 2.83984,0.179688 2.0216,-0.528066 3.00398,-2.211833 2.68164,-3.675781 -0.24718,-1.122538 -1.26683,-2.003586 -2.63671,-2.152344 0.13878,-0.06554 0.30758,-0.112352 0.4375,-0.183594 1.34791,-0.739133 2.26518,-1.232653 3.52734,-1.367187 l 0.95312,1.667968 1.4336,-0.451171 -0.24805,-2.728516 c 1.07615,-0.284845 2.13677,-0.587327 3.1543,-0.814453 z m -33.068361,0.423828 c 4.216791,2.212859 -2.492106,4.837873 0,0 z m 10.117191,5.212891 0.30664,3.064453 c -1.55255,-0.545929 -1.33363,-2.05781 -0.30664,-3.064453 z m 25.37304,0.43164 c -0.24635,0.01223 -0.49981,0.04828 -0.75781,0.111328 -2.34168,0.572245 -3.42552,2.508935 -3.02539,4.16211 0.40013,1.653175 2.26165,2.868163 4.62305,2.269531 1.1565,-0.293183 1.99929,-0.898427 2.45703,-1.673828 0.45774,-0.775401 0.51107,-1.679123 0.26172,-2.46875 -0.37404,-1.184441 -1.45467,-2.164122 -2.8418,-2.367188 -0.23119,-0.03384 -0.47044,-0.04543 -0.7168,-0.0332 z m -34.87695,2.632813 c 0.59537,10e-7 1.1908,0.919986 0.30664,2.759765 H 100.25 c -0.884155,-1.839783 -0.288727,-2.759766 0.30664,-2.759765 z m 16.29688,1.042968 c 1.99707,2.332848 2.49359,3.051271 5.21484,5.263672 2.00134,1.627132 1.80999,1.317358 2.88281,3.802735 h -0.002 v 0.002 0.002 c -0.0121,0.03843 -6e-4,0.46468 -0.17188,1.009766 -0.189,0.601474 -0.51,1.35551 -0.85156,2.121093 -0.34156,0.765584 -0.7031,1.544968 -0.98242,2.246094 -0.0665,0.166912 -0.0529,0.304442 -0.11133,0.458984 -0.68512,-0.359799 -1.57763,-0.384574 -2.41797,0.05859 -0.77698,0.40976 -1.24694,1.147433 -1.47656,1.916016 -0.22962,0.768583 -0.24267,1.594508 -0.0644,2.355469 0.17816,0.760961 0.54863,1.48571 1.2207,1.935546 0.67207,0.449835 1.63108,0.492199 2.52539,0.04492 0.84187,-0.42105 1.37696,-1.174458 1.62695,-1.966797 0.24999,-0.792339 0.24684,-1.636623 0.0391,-2.402343 -0.0366,-0.13483 -0.18249,-0.205573 -0.23243,-0.335938 0.0479,-0.07631 0.1603,-0.136145 0.20899,-0.216797 0.16171,-0.267855 0.31621,-0.580417 0.47656,-0.933593 0.32071,-0.706353 0.66116,-1.567727 1.00195,-2.38086 0.3408,-0.813132 0.68855,-1.583656 0.96485,-2.039062 0.0666,-0.109727 0.082,-0.11544 0.13281,-0.179688 0.13288,0.07504 0.24281,0.154032 0.41211,0.242188 0.33398,0.173901 0.74016,0.377562 1.19141,0.61914 0.90248,0.483158 1.98346,1.112828 2.96679,1.886719 0.98333,0.773891 1.85991,1.690428 2.38672,2.716797 0.52682,1.026369 0.73189,2.14592 0.37891,3.507812 -0.92749,3.578527 -1.61993,7.187568 -2.35352,10.769532 -0.14903,0.727701 -0.30214,1.794349 -0.58008,2.728515 -0.27793,0.934167 -0.71666,1.61489 -1.02148,1.746094 -0.7669,0.330099 -1.56227,0.268248 -2.38281,-0.04297 -0.35566,-0.134893 -0.64255,-0.427113 -0.98047,-0.640625 0.39834,-0.0181 0.8038,-0.05404 1.20898,-0.242187 0.82216,-0.381784 1.28818,-1.168678 1.44922,-1.962891 0.16104,-0.794212 0.0738,-1.636006 -0.17187,-2.416016 -0.24563,-0.78001 -0.64831,-1.504288 -1.24024,-2.029296 -0.59193,-0.525008 -1.47365,-0.823471 -2.32812,-0.535157 -1.04436,0.3524 -1.75145,1.140578 -2.06836,2.015625 -0.31691,0.875047 -0.29265,1.826251 -0.0293,2.685547 0.0294,0.09607 0.0953,0.17555 0.13086,0.269531 -1.93124,-1.494043 -4.16333,-2.982908 -6.30078,-4.591796 -2.79189,-2.101497 -5.10803,-4.384639 -5.62305,-6.800782 -0.1029,-0.482749 -0.12175,-1.784961 0.0391,-3.285156 0.16077,-1.500195 0.4784,-3.249081 0.94922,-4.84375 0.47083,-1.594668 1.11009,-3.035816 1.81641,-3.90039 0.29349,-0.359247 0.58584,-0.551832 0.87109,-0.705079 0.27191,0.730163 0.69634,1.411101 1.37305,1.814454 0.71737,0.427588 1.70066,0.473672 2.58984,-0.0039 0.79914,-0.429223 1.26124,-1.204209 1.4375,-1.99414 0.17627,-0.789931 0.1054,-1.618276 -0.14062,-2.373047 -0.24602,-0.754771 -0.66616,-1.450073 -1.31641,-1.904297 -0.65024,-0.454224 -1.58539,-0.582224 -2.43164,-0.179688 -0.21582,0.102662 -0.35029,0.279746 -0.52734,0.419922 -0.15753,-0.257945 -0.58399,-0.963036 -0.63281,-1.121093 -0.083,-0.268704 -0.0904,-0.450758 0.0762,-0.923829 0.12665,-0.359754 0.49135,-1.013956 0.86719,-1.6875 z m -6.16407,4.34375 c 0.42158,0.0019 0.86849,0.496578 0.9043,1.972657 -2.42106,-0.184708 -1.70913,-1.976375 -0.9043,-1.972657 z m -9.82617,2.585938 -0.30664,3.677734 h -0.613281 c -0.67508,-1.466018 -0.583488,-2.856763 0.919921,-3.677734 z m 50.94922,3.703125 c -0.0594,1.364026 -0.0992,2.871205 -1.53125,3.373047 0.005,-1.534323 -0.0602,-2.764172 1.53125,-3.373047 z m -9.81055,5.519531 c 0.37512,1.557595 -0.29622,2.449276 -1.5332,3.371094 -0.40528,-1.607993 0.0301,-2.658159 1.5332,-3.371094 z m 4.29297,9.197266 c 0.43882,1.527912 0.24497,2.887575 -1.22656,3.679687 0.0125,-1.485959 0.0961,-2.635047 1.22656,-3.679687 z m -7.9707,3.373047 c 0.32468,1.782892 0.17285,3.056811 -1.83985,3.371093 0.0687,-1.571877 0.25122,-2.788737 1.83985,-3.371093 z" /></g></g></svg>
