<?xml version="1.0" encoding="UTF-8" standalone="no"?>
<svg
   version="1.2"
   viewBox="0 0 219.2126 219.2126"
   width="58mm"
   height="58mm"
   id="svg1"
   sodipodi:docname="HostinskyRoleTokenLaser.svg"
   inkscape:version="1.4.2 (f4327f4, 2025-05-13)"
   xml:space="preserve"
   xmlns:inkscape="http://www.inkscape.org/namespaces/inkscape"
   xmlns:sodipodi="http://sodipodi.sourceforge.net/DTD/sodipodi-0.dtd"
   xmlns="http://www.w3.org/2000/svg"
   xmlns:svg="http://www.w3.org/2000/svg"><sodipodi:namedview
     id="namedview1"
     pagecolor="#ffffff"
     bordercolor="#666666"
     borderopacity="1.0"
     inkscape:showpageshadow="2"
     inkscape:pageopacity="0.0"
     inkscape:pagecheckerboard="0"
     inkscape:deskcolor="#d1d1d1"
     inkscape:zoom="3.4816928"
     inkscape:cx="88.319107"
     inkscape:cy="104.97767"
     inkscape:window-width="1920"
     inkscape:window-height="1057"
     inkscape:window-x="-8"
     inkscape:window-y="-8"
     inkscape:window-maximized="1"
     inkscape:current-layer="layer2"
     inkscape:document-units="mm"
     showgrid="false" /><defs
     id="defs1"><clipPath
       clipPathUnits="userSpaceOnUse"
       id="cp1"><path
         d="m 275.5,535.5 c -143.78,0 -260,-116.22 -260,-260 0,-143.78 116.22,-260 260,-260 143.78,0 260,116.22 260,260 0,143.78 -116.22,260 -260,260 z"
         id="path1" /></clipPath></defs><style
     id="style1">
		tspan { white-space:pre } 
		.s0 { fill: none;stroke: #ff0000;stroke-miterlimit:100 } 
	</style><g
     inkscape:groupmode="layer"
     id="layer2"
     inkscape:label="Content"><g
       inkscape:groupmode="layer"
       id="layer4"
       inkscape:label="Kruh"
       style="display:inline"><path
         id="path2"
         style="fill:none;stroke:#000000;stroke-width:0.189192"
         d="M 219.118,109.6063 A 109.5117,109.5117 0 0 1 109.6063,219.118 109.5117,109.5117 0 0 1 0.09459686,109.6063 109.5117,109.5117 0 0 1 109.6063,0.09459686 109.5117,109.5117 0 0 1 219.118,109.6063 Z"
         inkscape:label="Vnejsi kruh" /><path
         id="circle2"
         style="fill:none;stroke:#000000;stroke-width:0.188976"
         d="M 208.69732,109.6063 A 99.091019,99.091019 0 0 1 109.6063,208.69732 99.091019,99.091019 0 0 1 10.515282,109.6063 99.091019,99.091019 0 0 1 109.6063,10.515282 99.091019,99.091019 0 0 1 208.69732,109.6063 Z"
         inkscape:label="Vnitrni kruh" /></g><g
       id="text2-9"
       inkscape:label="Text"
       style="opacity:1"
       transform="scale(0.96344246,1.0379447)" /><path
       id="path3"
       style="font-size:40.0884px;font-family:'New Rocker';-inkscape-font-specification:'New Rocker';letter-spacing:0.742605px;baseline-shift:baseline;white-space:pre;display:inline;overflow:visible;opacity:1;fill:none;stroke:#000000;stroke-width:0.188976;stroke-dasharray:none;stroke-opacity:1;enable-background:accumulate;stop-color:#000000;stop-opacity:1"
       d="m 188.04499,109.31908 -0.88867,1.91406 c -0.2114,0.45551 -0.4906,0.99473 -0.83788,1.60938 l -0.01,0.0195 -0.0117,0.0176 c -0.32145,0.61272 -0.66842,1.22633 -1.04102,1.8418 l -0.004,0.008 -0.004,0.006 c -0.35855,0.607 -0.70277,1.18543 -1.03515,1.73632 l -0.0117,0.0215 -0.0117,0.0195 c -0.31053,0.55758 -0.55768,1.00298 -0.74219,1.34375 l -0.5332,0.98829 0.82812,0.71288 c 0.34207,0.2948 0.56481,0.53922 0.64649,0.65235 l 0.0469,0.0644 0.0547,0.0606 c 0.26025,0.28039 0.58961,0.58852 1.01953,0.96484 l 0.86133,0.75196 0.78125,-0.84376 c 0.32225,-0.34717 0.65761,-0.70189 1.00391,-1.0625 v 4.29883 c -0.17246,0.0163 -0.34595,0.0293 -0.51954,0.041 l -1.15039,0.0762 v 2.80078 l 0.91211,0.26172 c 0.26646,0.0766 0.38751,0.16916 0.39453,0.17578 l 0.0625,0.0566 0.0606,0.0449 h 0.002 l 0.002,0.002 v 0.002 h 0.002 c 0.0116,0.0144 0.0382,0.0578 0.0762,0.16406 0.0553,0.15489 0.12836,0.52076 0.1504,1.04297 l 0.002,0.0273 0.002,0.0313 c 0.0463,0.54907 0.0723,1.29177 0.0723,2.20898 v 4.79492 l -2.31054,1.08789 -0.5625,-0.46094 v -6.91796 -1.87306 c 0.023,-0.4896 0.0339,-0.94648 0.0352,-1.37499 0.0249,-0.42959 0.0494,-0.82927 0.0742,-1.20508 0.0507,-0.38585 0.10236,-0.80209 0.15235,-1.25976 l 0.25585,-2.34571 -1.99218,0.99023 c -0.25549,0.12704 -0.66386,0.29285 -1.18555,0.47266 -0.54187,0.15879 -1.13276,0.31973 -1.77929,0.48047 -0.64804,0.16111 -1.29566,0.30888 -1.94336,0.44336 -0.63975,0.10556 -1.2184,0.18261 -1.72266,0.23438 l -1.01172,0.10351 -0.20118,2.37891 0.66016,0.42773 c 0.27271,0.17627 0.45249,0.35552 0.57617,0.53321 l 0.0352,0.0488 0.0391,0.0469 c 0.11549,0.13688 0.24781,0.36752 0.36133,0.73438 l 0.004,0.0117 0.004,0.0117 c 0.10588,0.32321 0.1967,0.79965 0.24218,1.41211 l 0.002,0.0273 0.002,0.0234 c 0.0694,0.62307 0.10742,1.39457 0.10742,2.29883 0,0.80279 -0.0241,1.64977 -0.0742,2.54101 v 0.0195 l -0.002,0.0215 c -0.025,0.88711 -0.0746,1.71408 -0.14844,2.48242 l 0.002,-0.004 c -0.008,0.085 -0.0166,0.1696 -0.0254,0.25195 h -2.44727 c 0.0476,-0.50856 0.11491,-1.01935 0.20508,-1.5293 l 0.16015,-0.91406 -0.74413,-0.47266 c -0.93068,-0.58979 -1.93698,-1.11469 -3.01563,-1.58008 l -0.004,-0.002 c -0.12078,-0.0533 -0.29302,-0.0817 -0.41797,-0.13281 l 3.53712,-1.44141 -0.26564,-1.14258 c -0.0136,-0.0584 -0.0565,-0.36474 -0.0801,-0.79687 -0.0249,-0.45488 -0.0391,-0.8209 -0.0391,-1.08594 0,-1.04055 0.11172,-1.88749 0.29491,-2.52344 l 0.40235,-1.39453 -1.33007,-0.29101 c -1.34397,-0.29493 -2.48636,-0.61397 -3.42384,-0.94922 -0.89456,-0.35593 -1.67856,-0.78057 -2.35937,-1.26953 l -0.83789,-0.60156 -0.71094,0.76562 c -0.50165,0.54043 -0.92409,0.95223 -1.3418,1.35547 v -5.91211 c 1e-5,-1.59435 0.10454,-2.84923 0.27931,-3.73047 0.20038,-0.8821 0.48287,-1.51297 0.79491,-1.92383 l -1.49023,-2.02539 c -1.10857,0.58387 -2.08565,0.9976 -2.91601,1.24609 -0.83939,0.25118 -1.59357,0.36719 -2.25977,0.36719 -0.64793,0 -1.11518,-0.092 -1.37109,-0.19922 l -3.34375,-1.40234 1.84765,3.3125 c 0.19046,0.34197 0.33005,0.67257 0.42774,0.98828 l 0.0117,0.0371 0.0137,0.0352 c 0.1213,0.32672 0.2137,0.68179 0.27735,1.07032 l 0.006,0.0371 0.008,0.0371 c 0.0824,0.37732 0.1393,0.82406 0.16211,1.33986 l 0.002,0.0312 0.004,0.0312 c 0.0468,0.52926 0.0723,1.1548 0.0723,1.87109 v 18.79493 h -3.00196 c -0.007,-0.52693 -0.01,-1.07764 -0.01,-1.65039 0,-1.83883 0.0398,-3.23152 0.11134,-4.13086 l 0.12109,-1.54101 -1.42969,0.10741 c -1.11444,0.0838 -2.0888,0.16938 -2.92578,0.25391 -0.84368,0.0852 -1.6138,0.18302 -2.3125,0.29883 l -0.004,0.002 h -0.004 c -0.66957,0.11541 -1.29144,0.24685 -1.86719,0.39453 l -0.008,0.002 -0.006,0.002 c -0.0353,0.009 -0.0683,0.0254 -0.10352,0.0351 -0.0194,-0.47135 -0.0312,-0.94472 -0.0312,-1.41601 v -0.68555 c 0.40681,0.1569 0.81333,0.31063 1.2207,0.44923 l 0.01,0.004 0.008,0.002 c 0.56352,0.18213 1.11975,0.32082 1.66797,0.41407 0.53837,0.0915 1.03584,0.14062 1.50391,0.14062 1.10413,0 2.16316,-0.36094 2.98437,-1.0918 l 0.0117,-0.0117 0.0117,-0.0117 c 0.8013,-0.75065 1.40095,-1.79886 1.91015,-3.10938 l 0.66017,-1.69727 -1.70509,-0.13085 c -3.12935,-0.24274 -5.42166,-0.81798 -6.79296,-1.56837 l -0.50977,-0.27734 -0.52539,0.23828 c -1.672,0.76419 -3.05398,1.31783 -4.11718,1.65625 -1.04084,0.33129 -1.97991,0.48633 -2.81836,0.48633 h -1.72071 l 0.56055,1.75391 c 0.22573,0.70524 0.38662,1.48624 0.48047,2.3457 l 0.002,0.0195 0.004,0.0176 c 0.11739,0.86006 0.17969,1.89639 0.17969,3.0957 0,0.50384 -0.0119,1.08117 -0.0371,1.73242 l 0.002,-0.002 c -0.0241,0.59729 -0.0894,1.50037 -0.19141,2.68164 l -0.10352,1.19141 h -3.0664 v -1.48438 c 0,-1.43399 0.0118,-2.62984 0.0371,-3.58203 0.025,-0.94522 0.0494,-1.73533 0.0742,-2.38477 v -0.002 c 0.0489,-0.63228 0.0985,-1.1316 0.14453,-1.50976 0.0699,-0.39772 0.14697,-0.76856 0.23633,-1.10548 l 0.28711,-1.07617 -0.9375,-0.48046 c -0.52004,-0.2668 -0.97264,-0.5173 -1.35352,-0.74805 v -0.002 h -0.002 c -0.37326,-0.25196 -0.7356,-0.50278 -1.08594,-0.75391 l -0.006,-0.004 c -0.32032,-0.24676 -0.64477,-0.52237 -0.9707,-0.82227 -0.35411,-0.35434 -0.7438,-0.74756 -1.17383,-1.18359 l -0.89258,-0.9043 -0.83984,0.95703 c -0.89778,1.02095 -1.76456,1.90104 -2.59375,2.63672 -0.28131,0.24958 -0.65623,0.5045 -0.96484,0.75586 v -1.22461 l -1.33985,-2.40429 -0.88086,0.23828 c -0.80393,0.21652 -1.72759,0.44769 -2.76563,0.69335 -1.03525,0.21749 -1.99262,0.39274 -2.86718,0.52734 l -1.05274,0.16212 v 2.47656 l 1.42969,0.66406 v 10.56055 h -3.51367 v -12.91602 l -1.33789,-2.40429 -0.88086,0.23828 c -0.13783,0.0371 -0.27906,0.0753 -0.42383,0.11328 v -2.02148 c 0.37693,-0.794 0.80171,-1.41666 1.25977,-1.88868 v -0.002 c 0.56288,-0.58114 1.26197,-1.19262 2.09766,-1.82813 l 1.57811,-1.19726 -1.67577,-1.0332 c -0.13739,-0.0846 -0.39761,-0.25688 -0.73243,-0.48829 -0.31691,-0.26186 -0.65305,-0.53267 -1.01172,-0.81641 l -0.008,-0.006 c -0.009,-0.007 -0.0147,-0.0145 -0.0234,-0.0215 -0.32983,-0.2798 -0.64698,-0.55929 -0.95313,-0.83789 -0.2642,-0.26261 -0.45039,-0.4804 -0.52929,-0.59374 l -0.63086,-0.90822 -0.92774,0.53517 c -0.91927,0.52818 -1.74719,1.26232 -2.47656,2.17383 l -0.002,0.002 h -0.002 c -0.66105,0.83086 -1.23291,1.68594 -1.71093,2.56445 l -0.51758,0.95312 0.77929,0.72071 c 0.20949,0.19344 0.47789,0.42359 0.82227,0.70898 0.3311,0.27439 0.67578,0.56268 1.0332,0.86524 0.33815,0.28623 0.64966,0.57115 0.9336,0.85156 l 0.0391,0.0391 0.041,0.0332 c 0.29736,0.24643 0.49341,0.44743 0.55078,0.51954 l 0.32227,0.4043 v 1.70897 c -0.2009,0.0485 -0.40677,0.0967 -0.61719,0.14649 -1.02662,0.21531 -1.97941,0.38982 -2.84765,0.52344 l -0.0469,0.008 v -0.0195 h -5.44531 v -0.88477 c 0,-0.20066 0.0117,-0.61004 0.0371,-1.1836 v -0.002 -0.002 c 0.0243,-0.57533 0.0593,-1.16431 0.10742,-1.76758 l 0.002,-0.0117 c 0.0759,-0.6541 0.14901,-1.26788 0.2246,-1.83789 0.0703,-0.53016 0.16503,-0.89951 0.19727,-0.98634 l 1.25,-3.36913 -2.96876,1.71093 c -1.072434,0.618 -2.075724,1.12174 -3.001947,1.51563 -0.8505,0.3617 -1.789871,0.58698 -2.835937,0.66211 l -2.345703,0.16797 1.373046,1.84961 h -0.002 v 0.002 0.002 c 0.0052,0.0272 0.08199,0.18936 0.121094,0.41406 v 0.01 l 0.002,0.008 c 0.06798,0.36622 0.127451,0.79834 0.175781,1.29297 v 0.004 0.002 c 0.04902,0.47527 0.08683,0.95279 0.111329,1.42773 l 0.002,0.041 0.0039,0.041 c 0.04888,0.44767 0.07031,0.77111 0.07031,0.88282 v 0.625 c -0.784551,0.6901 -1.58069,1.28657 -2.421875,1.63671 l -0.595703,0.24805 c 0.0281,-0.0693 0.07596,-0.0971 0.103515,-0.16797 l 0.660156,-1.69727 -1.703125,-0.13085 c -3.129356,-0.24274 -5.421665,-0.81798 -6.792969,-1.56837 l -0.509765,-0.27734 -0.527344,0.24023 c -1.671995,0.76419 -3.053979,1.31783 -4.117187,1.65625 -1.04084,0.33129 -1.979907,0.48633 -2.81836,0.48633 H 73.78745 l 0.560547,1.75391 c 0.225732,0.70525 0.390519,1.48624 0.484375,2.3457 l 0.002,0.0176 0.002,0.0176 c 0.117399,0.86006 0.179686,1.89639 0.179686,3.0957 0,0.50385 -0.01192,1.08312 -0.03711,1.73437 -0.02414,0.5973 -0.08754,1.49931 -0.189453,2.6797 l -0.103515,1.18945 h -2.363282 c -0.211584,-1.92406 -0.316406,-3.88908 -0.316406,-5.89453 0,-2.38098 0.15038,-4.42866 0.441406,-6.12696 l 0.324219,-1.88281 -1.75,0.3418 c -0.232542,0.0456 -0.482772,0.0791 -0.744141,0.10351 h -1.201172 c -0.920251,0 -1.945531,-0.10139 -3.072265,-0.31249 -1.090856,-0.20439 -2.5222,-0.61752 -4.261719,-1.24219 l -1.386718,-0.4961 -0.146485,1.05664 c -1.011762,1.05441 -2.038473,1.97873 -3.089844,2.68751 -1.143571,0.74317 -2.137412,1.16792 -2.935546,1.32226 l -2.03125,0.39453 1.21289,1.63086 v 0.002 c 0.0044,0.0114 0.0079,0.0231 0.01172,0.0371 0.03156,0.11475 0.07848,0.32202 0.125,0.59766 0.0945,0.55996 0.18097,1.26396 0.25586,2.09765 l 0.002,0.0215 0.0039,0.0195 c 0.09881,0.82502 0.172639,1.70939 0.222657,2.65234 v 0.002 c 0.04116,0.75368 0.06508,1.45951 0.07227,2.11523 h -4.507813 c -0.0036,-0.25711 -0.0059,-0.51619 -0.0059,-0.77734 0,-1.19822 0.161199,-2.39846 0.488281,-3.61133 0.366691,-1.26188 0.764932,-2.2888 1.169922,-3.06446 l 0.53125,-1.02148 -0.876954,-0.69336 c -0.241363,-0.19069 -0.440506,-0.4313 -0.617187,-0.74804 -0.180584,-0.37188 -0.33653,-0.78144 -0.464843,-1.23438 -0.110269,-0.50682 -0.191054,-1.02413 -0.236329,-1.5586 v -0.004 c -0.04822,-0.59875 -0.07227,-1.19659 -0.07227,-1.79492 0,-0.72262 0.01438,-1.50541 0.03906,-2.33985 0.04702,-0.77647 0.151317,-1.53898 0.3125,-2.28906 0.17837,-0.71455 0.426401,-1.3541 0.748047,-1.93163 l 0.0059,-0.01 0.0059,-0.01 c 0.281371,-0.52542 0.653507,-0.93307 1.183594,-1.27148 l -0.785156,-2.44922 c -1.176892,0.16538 -2.339484,0.31538 -3.490235,0.45313 l -0.002,0.004 h -0.002 c -1.089397,0.13337 -2.148916,0.19726 -3.181641,0.19726 -0.941238,0 -1.839275,-0.0768 -2.695312,-0.23046 l -2.1875,-0.39259 0.851562,2.20509 c 0.487963,1.26168 0.806406,2.39346 0.966797,3.38085 v 0.002 0.004 c 0.164445,0.98704 0.251954,2.13146 0.251954,3.42773 v 4.74414 c -0.272866,0.0164 -0.587711,0.0394 -0.832032,0.0508 -0.571384,0.0268 -1.198857,0.041 -1.878907,0.041 h -2.824565 c -0.514399,-0.0154 -0.9839,-0.0735 -1.470702,-0.11524 v -4.05469 c 0,-0.69999 0.03614,-1.4307 0.109375,-2.19336 v -0.002 -0.002 c 0.07222,-0.77801 0.180987,-1.51088 0.322265,-2.19922 0.163606,-0.70136 0.358087,-1.33002 0.580078,-1.88281 0.231839,-0.54269 0.484058,-0.91829 0.722656,-1.1582 l 0.265625,-0.26758 0.527345,-2.2793 -1.800781,0.26953 c -0.930808,0.13927 -1.836919,0.29369 -2.718751,0.46093 h -0.002 c -9.56e-4,-1e-5 -0.0049,8e-5 -0.0059,0 h -0.002 c -0.7779,0.12633 -1.628284,0.19141 -2.548827,0.19141 -0.772802,0 -1.602965,-0.052 -2.490235,-0.1582 -0.878587,-0.10517 -1.843018,-0.27572 -2.890625,-0.51757 l -1.681641,-0.39063 0.205079,1.8418 c 0.202221,1.80511 0.762834,3.34032 1.78125,4.43749 l 0.0078,0.008 0.0059,0.008 c 0.677364,0.7062 1.447769,1.19631 2.255859,1.56446 0.03371,0.54969 0.07422,1.11208 0.07422,1.60546 0,1.1706 -0.129534,2.2919 -0.386719,3.375 l -0.0039,0.0137 -0.002,0.0137 c -0.224955,1.04211 -0.6706,2.25866 -1.353515,3.625 l -0.386719,0.77734 0.515625,0.68555 c 0.534367,0.70854 0.953573,1.64011 1.228516,2.8496 v 0.004 0.002 c 0.28417,1.22458 0.425781,2.48783 0.425781,3.79882 0,0.68284 -0.08753,1.367 -0.265625,2.0625 l -0.002,0.0195 -0.0059,0.0215 c -0.159202,0.71055 -0.385234,1.37759 -0.677733,2.00782 -0.292499,0.63024 -0.635662,1.18834 -1.031251,1.68554 -0.391413,0.49197 -0.796103,0.86852 -1.21875,1.1504 l 0.828125,2.4336 c 0.825735,-0.13479 1.651354,-0.24341 2.476563,-0.32423 0.799598,-0.0783 1.770937,-0.11913 2.902343,-0.11913 0.649745,0 1.414624,0.0403 2.289062,0.12108 l 0.01758,0.002 h 0.01953 c 0.876034,0.0524 1.878757,0.17244 3.00586,0.36132 l 2.873046,0.48048 -1.68164,-2.55274 c -0.921898,-1.40065 -1.497091,-2.78299 -1.767578,-4.16406 -0.290832,-1.51439 -0.439453,-3.11591 -0.439453,-4.80859 v -0.99805 c 0.459319,-0.0473 0.896538,-0.10432 1.390625,-0.13476 0.898653,-0.0538 1.920053,-0.082 3.060546,-0.082 0.583855,0 1.124328,0.0272 1.621094,0.0781 l 0.03125,0.004 h 0.0293 c 0.224947,0.011 0.537147,0.0477 0.796876,0.0684 v 0.52538 c 0,0.90206 -0.01177,1.78862 -0.03711,2.66211 l -0.002,0.0215 v 0.0195 c 0,0.83257 -0.04689,1.60366 -0.140625,2.31054 l -0.0039,0.0215 -0.002,0.0234 c -0.06996,0.70344 -0.184836,1.32549 -0.337891,1.86914 -0.135986,0.4561 -0.310221,0.77202 -0.499999,0.9922 l -1.296876,1.50586 1.808595,0.64843 c 0.463073,0.1663 0.901144,0.37844 1.318359,0.63867 l 0.01172,0.01 0.01172,0.006 c 0.457161,0.27088 0.857828,0.55957 1.207031,0.86523 0.35479,0.31057 0.653277,0.62767 0.906251,0.94336 0.24296,0.33071 0.394995,0.60827 0.460937,0.79297 l 0.890625,2.4961 1.300781,-2.27539 c 0.367795,-0.64389 0.83805,-1.31904 1.416016,-2.01953 0.438596,-0.53158 1.166594,-1.04692 2.244141,-1.46681 l 0.853515,-0.33398 -1.71875,1.58789 4.609375,-0.99414 c 0.05155,-0.0111 0.09766,-0.0137 0.144531,-0.0137 h 0.101562 l 0.09961,-0.0176 c 0.08902,-0.016 0.17545,-0.0254 0.261719,-0.0254 0.443288,0 1.073938,0.0615 1.857422,0.19336 0.786952,0.13246 1.574357,0.30315 2.363281,0.51563 0.788722,0.21244 1.509243,0.4375 2.164063,0.67187 0.621137,0.24994 1.029674,0.50328 1.103515,0.56836 l 0.859376,0.75781 0.787109,-0.84766 c 0.492495,-0.53057 1.047293,-1.04106 1.669921,-1.53124 l 0.01367,-0.01 0.01172,-0.01 c 0.618217,-0.51233 1.25583,-0.95686 1.916015,-1.33789 0.670914,-0.3872 1.336163,-0.70702 1.996094,-0.96094 0.648594,-0.24955 1.243914,-0.40513 1.78125,-0.4746 l 1.28711,-0.16602 -0.226563,-1.37696 c -0.04735,-0.28903 -0.09243,-0.57823 -0.134766,-0.86913 h 1.535156 c -0.132239,0.27445 -0.25354,0.56556 -0.353515,0.88867 l -0.0039,0.0117 -0.0039,0.0137 c -0.284197,0.97975 -0.457409,1.9576 -0.515625,2.92969 l -0.08008,1.33202 1.23828,0.0742 c 0.924721,0.0539 1.715241,0.13352 2.359376,0.23633 l 0.02148,0.004 0.02148,0.002 c 0.638998,0.0765 1.174385,0.19133 1.597657,0.32813 l 0.0293,0.008 0.02734,0.008 c 0.430899,0.11605 0.764464,0.26005 1.001954,0.40625 l 0.01367,0.01 0.01758,0.01 c 0.300024,0.1724 0.560575,0.37009 0.791015,0.59766 l 0.730469,0.72071 0.806641,-0.61524 c 0.337355,-0.25655 0.793553,-0.51952 1.36914,-0.76757 0.583448,-0.25142 1.222661,-0.46763 1.917969,-0.64845 0.698436,-0.18162 1.438918,-0.32636 2.220704,-0.43164 0.775541,-0.10444 1.535845,-0.15624 2.281249,-0.15624 h 1.523438 l -0.324219,-1.60352 c -0.10144,-0.50272 -0.192355,-1.38536 -0.242188,-2.5664 -0.01058,-0.25643 -0.02077,-0.51959 -0.0293,-0.79102 h 3.736328 v 4.62305 l 0.677734,0.36328 c 0.393679,0.21206 0.897573,0.49741 1.507813,0.85351 0.600096,0.35019 1.189293,0.71513 1.763672,1.09179 l 0.77539,0.50782 0.677733,-0.64844 c 0.151598,-0.14516 0.425839,-0.36277 0.800789,-0.61523 0.37689,-0.25376 0.78194,-0.49834 1.21288,-0.73047 l 0.0215,-0.0117 0.0254,-0.0137 c 0.43985,-0.26325 0.89163,-0.51621 1.35743,-0.75391 0.45659,-0.23301 0.88201,-0.42147 1.27344,-0.57031 l 0.81835,-0.31249 v -2.77344 l -1.1621,-0.0645 c -0.70866,-0.0402 -1.1886,-0.2782 -1.6543,-0.77539 -0.046,-0.0521 -0.0904,-0.10801 -0.13281,-0.16992 h 5.38281 v 1.30859 c 0,1.96162 0.51862,3.77487 1.55078,5.2793 l 0.36914,0.53515 h 0.99219 l 0.17383,-0.0547 c 0.75567,-0.24423 1.48265,-0.45964 2.18359,-0.64843 0.68093,-0.1834 1.4174,-0.34331 2.20898,-0.47656 l 1.03907,-0.17383 v -2.67773 l -0.78125,-0.31055 c -0.0113,-0.0223 -0.0357,-0.0756 -0.0762,-0.19336 -0.0941,-0.27405 -0.18555,-0.83395 -0.18555,-1.61328 v -0.97461 h 3.51367 v 1.34961 c 0,0.65076 -0.10181,1.07047 -0.17969,1.23828 l -0.008,0.0156 -0.006,0.0156 c -0.054,0.12473 -0.0849,0.16434 -0.0957,0.17382 v 0.002 h -0.002 -0.002 v -0.002 l -0.75195,0.33595 v 2.83008 h 9.5625 v -2.86915 l -0.78125,-0.31054 c -0.0113,-0.0223 -0.0357,-0.0756 -0.0762,-0.19336 -0.0941,-0.27405 -0.18359,-0.832 -0.18359,-1.61133 v -8.08984 l 2.79492,-1.34571 v 3.53711 0.0117 c 0.0256,1.57343 0.041,3.14727 0.041,4.7207 0,0.22497 -0.0238,0.71447 -0.0742,1.39258 -0.0507,0.68302 -0.11484,1.43677 -0.19141,2.26172 l 0.002,-0.004 c -0.0744,0.77453 -0.1767,1.54888 -0.30078,2.32422 v 0.006 0.002 c -0.12294,0.79458 -0.25576,1.44065 -0.38867,1.91796 l -0.21094,0.75782 1.64844,1.77539 0.86719,-1.00196 c 0.32996,-0.38088 0.71508,-0.78251 1.1543,-1.20312 0.43023,-0.41199 0.88494,-0.81403 1.36522,-1.20313 l 0.01,-0.006 c 0.50873,-0.39111 1.00152,-0.73993 1.47852,-1.04882 0.48071,-0.29519 0.93902,-0.52263 1.37109,-0.68555 l 1.00586,-0.38086 -0.20898,-1.12891 c -0.0489,-0.26332 -0.0972,-0.53889 -0.14648,-0.83007 -0.0406,-0.26239 -0.0775,-0.63866 -0.10157,-1.10548 -0.0224,-0.43492 -0.0439,-0.98456 -0.0664,-1.64843 h 2.45313 c -0.13184,0.27448 -0.2516,0.56559 -0.35156,0.88867 l -0.004,0.0117 -0.004,0.0117 c -0.28417,0.97974 -0.45935,1.95762 -0.51758,2.92969 l -0.0801,1.33397 1.23827,0.0723 c 0.92473,0.0539 1.71525,0.13547 2.35938,0.23828 l 0.0215,0.004 0.0234,0.002 c 0.63901,0.0765 1.17438,0.18937 1.59766,0.32618 l 0.0273,0.008 0.0274,0.01 c 0.4309,0.11605 0.76447,0.25809 1.00195,0.40429 l 0.0156,0.0117 0.0156,0.01 c 0.30003,0.1724 0.56058,0.37009 0.79102,0.59766 l 0.72851,0.72071 0.80859,-0.61524 c 0.33736,-0.25655 0.79551,-0.51952 1.3711,-0.76757 0.58344,-0.25142 1.2207,-0.46763 1.91601,-0.64845 0.69844,-0.18162 1.43892,-0.32831 2.22071,-0.43359 0.77554,-0.10444 1.53584,-0.15429 2.28125,-0.15429 h 1.52343 l -0.32226,-1.60352 c -0.10143,-0.50275 -0.19624,-1.38731 -0.24609,-2.56836 -0.0106,-0.2558 -0.0191,-0.51832 -0.0273,-0.78906 h 2.96484 v 1.34961 c 0,0.63876 -0.0884,1.07508 -0.16602,1.27343 -0.0388,0.0992 -0.0581,0.1387 -0.0664,0.15039 l -0.002,0.002 h -0.002 -0.002 v -0.002 h -0.002 v -0.002 h -0.002 -0.002 l -0.79883,0.31836 v 2.86915 h 9.56055 v -2.86915 l -0.78126,-0.31054 c -0.0113,-0.0223 -0.0357,-0.0756 -0.0762,-0.19336 -0.0941,-0.27405 -0.18555,-0.832 -0.18555,-1.61133 v -3.78711 c 0.23706,0.1276 0.50307,0.23479 0.73048,0.36914 l 0.0156,0.008 0.0137,0.008 c 0.57056,0.31725 1.13107,0.70979 1.6914,1.10546 v 2.71289 c 0,0.48063 -0.0256,1.00986 -0.0742,1.58594 -0.0497,0.58868 -0.10944,1.16144 -0.18359,1.7207 -0.0711,0.53598 -0.16742,1.04159 -0.28321,1.51563 l -0.008,0.0312 -0.006,0.0332 c -0.0934,0.47784 -0.19484,0.85949 -0.29102,1.12889 l -0.44531,1.24415 2.20898,0.89258 0.5586,-0.60156 c 0.2565,-0.27635 0.58564,-0.58371 0.98047,-0.91017 0.43476,-0.33787 0.90896,-0.67811 1.42383,-1.02148 0.52132,-0.34768 1.05453,-0.68245 1.60156,-1.0039 0.54243,-0.31875 1.05667,-0.59622 1.53907,-0.83009 l 0.91015,-0.43944 -0.21485,-1.04883 c -0.14772,-0.72753 -0.24218,-1.89485 -0.24218,-3.42188 0,-0.0903 -4.3e-4,-0.1783 0,-0.26562 h 2.25 c -0.044,0.29987 -0.15518,0.54069 -0.15821,0.57813 v 0.002 h 0.002 0.002 l 0.002,-0.002 0.002,-0.002 c 0.005,-0.005 0.0141,-0.0133 0.0254,-0.0273 l -0.79493,1.07227 1.26954,0.75977 c 0.44492,0.26628 0.83482,0.51537 1.16796,0.74609 l 0.041,0.0273 0.0449,0.0274 c 0.33876,0.19464 0.66666,0.41372 0.98438,0.65821 l 0.0156,0.0117 0.0176,0.0117 c 0.33908,0.24354 0.68619,0.52978 1.03711,0.85742 l 0.0312,0.0293 0.0332,0.0293 c 0.37269,0.30114 0.81183,0.69211 1.30664,1.17188 l 0.75391,0.73046 c -0.69239,-0.39436 -1.35147,-0.74439 -1.96875,-1.02148 l -0.0137,-0.004 -0.0137,-0.006 c -0.63969,-0.26966 -1.11137,-0.44739 -1.64844,-0.5 l -0.55664,-0.0547 -0.40235,0.41406 c -0.7049,0.72639 -1.3069,1.62319 -1.82031,2.66797 l -0.0117,0.0215 -0.01,0.0195 c -0.48898,1.08457 -0.84223,2.26532 -1.06641,3.5332 l -0.27734,1.57227 h 1.48437 c 1.24644,0 2.41324,0.23137 3.53321,0.69921 1.12698,0.47079 2.40696,1.25494 3.81055,2.36914 l 0.83203,0.66017 0.74609,-0.76954 c 0.58065,-0.60053 1.25189,-1.17124 2.01367,-1.71093 0.77481,-0.52102 1.55842,-0.97848 2.35156,-1.36719 h 0.002 0.002 l 0.002,-0.002 c 0.81177,-0.38502 1.60428,-0.68902 2.3789,-0.91796 0.76729,-0.19946 1.45395,-0.29297 2.05469,-0.29297 h 1.55468 l -0.35937,-1.63086 c -0.0929,-0.42016 -0.18629,-1.26202 -0.23633,-2.4004 -0.0252,-1.14778 -0.0391,-2.58849 -0.0391,-4.32421 V 121.9191 l -1.77735,0.95898 c -0.76781,0.41359 -1.71992,0.77373 -2.85742,1.06055 h -0.004 -0.002 c -0.38371,0.0988 -0.7702,0.18562 -1.16016,0.25977 v -5.78125 c 0.12599,-0.12244 0.25011,-0.24409 0.37304,-0.36328 0.49566,-0.48058 0.94649,-0.88894 1.35157,-1.22266 l 0.0195,-0.0137 0.0176,-0.0176 c 0.42208,-0.37448 0.74241,-0.63569 0.9043,-0.75195 l 1.65235,-1.1875 -1.72461,-1.06056 c -0.13696,-0.0843 -0.39522,-0.25798 -0.72852,-0.48828 -0.31749,-0.26237 -0.65619,-0.53404 -1.01562,-0.81835 l -0.008,-0.006 c -0.009,-0.007 -0.0147,-0.0145 -0.0234,-0.0215 -0.32447,-0.27527 -0.63789,-0.54816 -0.93946,-0.82226 l -0.006,-0.006 c -0.27026,-0.26764 -0.4571,-0.49053 -0.5371,-0.60546 z m -97.019526,17.43359 v 2.45703 h 3.207031 v 8.60743 h -3.773438 c -0.0071,-0.52633 -0.01172,-1.07639 -0.01172,-1.64844 0,-1.83883 0.03978,-3.23347 0.111328,-4.13281 l 0.123047,-1.54101 -1.429687,0.10741 c -1.114442,0.0838 -2.088808,0.16938 -2.925781,0.25391 -0.843679,0.0852 -1.615761,0.18497 -2.314454,0.30078 l -0.002,0.002 h -0.0039 c -0.669561,0.11541 -1.291442,0.2449 -1.867188,0.39258 l -0.0059,0.002 -0.0078,0.002 c -0.03472,0.009 -0.06694,0.0256 -0.101562,0.0351 -0.01936,-0.47136 -0.0332,-0.9447 -0.0332,-1.41601 v -0.68555 c 0.407559,0.15723 0.814532,0.31038 1.222657,0.44923 l 0.0078,0.004 0.0098,0.002 c 0.563515,0.18213 1.117803,0.32082 1.666015,0.41407 0.538382,0.0915 1.035838,0.14257 1.503907,0.14257 1.104133,0 2.16316,-0.36289 2.984375,-1.09375 l 0.01172,-0.0117 0.01172,-0.01 c 0.678097,-0.63523 1.160452,-1.59291 1.617188,-2.63282 z m 15.492186,0.0137 1.06055,0.49218 v 10.5586 h -5.85938 c -0.007,-0.12638 -0.01,-0.2603 -0.01,-0.4004 v -7.69531 l 3.36719,0.45899 0.26367,-1.14063 c 0.0959,-0.4133 0.26916,-0.86498 0.52539,-1.35156 0.19867,-0.34343 0.42712,-0.62814 0.65234,-0.92187 z m 58.88281,2.56445 2.50196,0.53515 -2.50196,1.08985 z m -104.091793,0.42774 c 0.33392,0.10213 0.545563,0.23798 0.929687,0.33203 l 0.01367,0.004 0.01367,0.002 c 0.811782,0.17889 1.652859,0.27641 2.488282,0.38672 l -0.05859,8.96679 c -0.504944,-0.12794 -0.974625,-0.28562 -1.513673,-0.38477 -0.663694,-0.12207 -1.232484,-0.19875 -1.830078,-0.28906 0.02431,-0.58115 0.05295,-1.15767 0.06836,-1.74805 l 0.002,-0.0351 c 0.05117,-1.02959 0.07813,-1.95857 0.07813,-2.78321 0,-1.04951 -0.02736,-2.08438 -0.08008,-3.10742 v -0.002 c -0.02116,-0.42127 -0.07772,-0.89991 -0.111327,-1.34179 z m 21.664062,6.89062 v 0.18164 c 0,0.75884 -0.03745,1.48824 -0.109375,2.18555 -0.02222,0.20702 -0.07036,0.47929 -0.09961,0.70312 -1.333277,-0.6111 -2.708106,-1.24886 -3.646485,-1.5996 -0.648889,-0.24253 -1.053488,-0.25142 -1.566406,-0.38477 0.932982,-0.24265 1.85313,-0.49111 2.878906,-0.68165 l 0.01172,-0.002 0.0098,-0.002 c 0.966143,-0.1974 1.721052,-0.28749 2.521485,-0.40039 z m 64.464851,0 v 0.18164 c 0,0.75884 -0.0374,1.48823 -0.10938,2.18555 -0.0223,0.20713 -0.0723,0.47916 -0.10157,0.70312 -1.33273,-0.61082 -2.70644,-1.24898 -3.64453,-1.5996 -0.64925,-0.24266 -1.05325,-0.25141 -1.5664,-0.38477 0.93313,-0.2427 1.85489,-0.49108 2.88086,-0.68165 l 0.008,-0.002 0.0117,-0.002 c 0.96614,-0.1974 1.72106,-0.28749 2.52149,-0.40039 z m -97.808601,2.03906 h 4.40625 c -0.03646,0.92565 -0.111725,1.69699 -0.220703,2.30079 l -0.0039,0.0176 -0.002,0.0137 c -0.123349,0.77519 -0.352918,1.14686 -0.363281,1.17383 l -0.859376,0.79687 -1.593749,-1.11133 c -0.287595,-0.20047 -0.50697,-0.44267 -0.695313,-0.74804 -0.194281,-0.38486 -0.354218,-0.80142 -0.478516,-1.26172 -0.07878,-0.37927 -0.142699,-0.77293 -0.189453,-1.18164 z m 138.595701,3.49804 v 1.6543 0.0195 c 0.0258,1.0027 0.052,1.83876 0.0781,2.51367 v 0.0254 l 0.002,0.0254 c 0.0513,0.69001 0.09,1.2401 0.11522,1.64649 l 0.004,0.0371 0.004,0.0391 c 0.005,0.0443 0.0105,0.0775 0.0156,0.1211 l -1.34179,0.46484 c -0.44266,-0.34845 -0.87695,-0.69622 -1.41602,-1.04882 -0.71409,-0.48381 -1.43904,-0.93777 -2.17968,-1.36524 h -0.002 v -0.002 l 0.79102,-0.85156 c 0.39389,-0.42435 0.7717,-0.80737 1.13281,-1.14453 l 0.002,-0.002 0.004,-0.002 c 0.38199,-0.3601 0.7888,-0.70734 1.22266,-1.04492 0.42849,-0.33337 0.91276,-0.67285 1.45117,-1.01562 0.0331,-0.0211 0.0834,-0.049 0.11718,-0.0703 z" /><path
       id="path2-7"
       style="fill:none;stroke:#000000;stroke-width:0.18897638;stroke-opacity:1;stroke-dasharray:none"
       d="M 79.11914 22.128906 C 78.29728 22.139566 77.452905 22.244141 76.875 22.244141 C 75.73808 22.244141 73.738826 21.878361 72.851562 22.765625 C 71.731061 23.886122 72.416632 26.956367 72.378906 28.412109 C 72.247235 33.492734 72.330078 38.582812 72.330078 43.664062 C 72.330078 45.027666 71.788429 47.94127 72.851562 48.984375 C 74.122824 50.231675 80.200566 49.18164 82.066406 49.18164 L 82.066406 40.419922 C 79.54303 40.419922 88.547758 40.225265 94.074218 40.089844 C 96.591295 40.028174 98.704392 39.09209 100.13867 41.941406 C 101.12304 43.896922 100.24382 44.731212 99.595703 46.27539 C 99.079668 47.504862 99.545143 48.641084 99.916015 49.830078 C 98.161776 49.053444 92.928849 46.844757 91.183593 47.814453 C 86.879806 50.205723 91.537998 57.179992 95.048828 57.294922 L 92.392578 65.501953 L 92.015625 68.320312 L 98.943359 68.978515 L 98.943359 69.302734 C 96.860287 69.302734 93.355386 68.65329 91.568359 69.93164 C 88.578799 72.07022 90.331139 78.321887 89.855468 81.310547 L 92.453125 81.310547 C 90.769562 83.266977 89.397433 88.615545 92.865234 90.203125 C 96.378561 91.811535 102.20487 90.002856 106.08203 90.722656 L 106.08203 91.046875 C 102.30328 91.345095 96.834282 90.381194 93.425781 92.021484 C 96.300809 100.70705 103.7005 100.7832 111.27539 100.7832 L 111.27539 101.10742 L 103.16211 101.43164 L 103.16211 101.75781 L 111.27539 105.98047 L 115.11523 108.05078 L 118.41602 106.16406 L 125.23047 102.73047 L 125.23047 102.40625 L 124.25781 101.75781 C 128.61658 101.75749 132.03245 99.335585 134.67773 95.916015 C 135.31483 95.092425 137.28585 93.058268 136.54687 91.892578 C 136.01602 91.055188 134.17067 91.371153 133.34375 91.371093 L 124.25781 91.371093 L 124.25781 91.046875 C 127.49143 90.908035 130.77136 90.759815 133.99414 90.453125 C 135.14689 90.343425 136.73968 90.708353 137.76367 90.064453 C 141.54019 87.689693 140.9366 78.214094 140.53711 74.496094 C 140.38899 73.117444 140.37177 71.187207 139.2832 70.148437 C 137.24732 68.205637 132.04904 69.597485 129.44922 68.978515 L 129.44922 68.654297 L 139.18555 68.330078 C 138.37404 65.357068 136.50526 62.079619 136.98242 58.917969 C 137.44651 55.842739 140.81472 53.984214 141.28125 51.128906 C 142.29838 44.903708 133.26238 48.561256 130.74805 49.830078 L 130.42383 49.505859 C 131.90465 46.374154 129.06036 45.022235 129.64648 42.28125 C 129.92644 40.972108 130.47741 40.301665 131.7207 40.138672 C 135.10114 39.695491 139.37332 39.732714 142.75586 40.09375 C 145.47709 40.08585 147.79769 36.728946 144.81445 34.794922 C 146.73601 32.123562 146.2612 28.997348 142.75586 30.033203 L 81.417968 30.359375 C 82.089459 28.774671 82.849722 23.843718 81.222656 22.578125 C 80.739021 22.201935 79.941 22.118247 79.11914 22.128906 z M 77.042969 24.740234 C 77.75835 24.747643 78.214557 25.08619 78.822265 25.814453 L 76.224609 24.841797 C 76.535858 24.77275 76.804508 24.737765 77.042969 24.740234 z M 76.548828 25.490234 L 78.496093 26.464844 L 78.496093 26.789062 C 77.400777 27.033279 76.265003 26.839922 76.548828 25.490234 z M 122.05469 32.416016 C 123.78183 32.418818 125.43307 32.685861 126.20508 33.603516 L 114.19727 33.279297 L 90.830078 33.279297 C 92.769286 32.763165 95.827481 33.025391 98.042968 33.025391 C 104.3103 33.025391 111.23392 33.631448 117.44141 32.816406 C 118.52338 32.674346 120.32754 32.413213 122.05469 32.416016 z M 132.88086 32.609375 C 135.09349 32.599936 137.24526 32.867201 137.88867 33.603516 L 127.50195 33.279297 C 128.39329 32.905276 130.66823 32.618814 132.88086 32.609375 z M 88.589843 35.179687 C 92.149347 35.241731 95.75336 35.427717 98.61914 35.550781 L 98.61914 35.875 C 92.613522 35.875 84.97917 35.803571 78.822265 35.550781 C 81.515374 35.179544 85.03034 35.117644 88.589843 35.179687 z M 107.30664 40.060547 C 107.83857 40.044784 108.4056 40.09375 109.00391 40.09375 L 121.01172 40.09375 C 122.61069 40.09375 123.73046 39.781491 124.89453 41.134765 C 126.89192 43.456785 125.15039 44.842099 124.51562 46.910156 C 124.19947 47.940139 124.82746 48.919767 125.23047 49.830078 L 115.16992 47.974609 L 105.43359 49.830078 C 106.22275 46.81457 103.21497 43.652365 104.96289 41.224609 C 105.63189 40.295407 106.42009 40.086818 107.30664 40.060547 z M 77.398437 43.630859 L 76.294922 45.6875 L 78.371093 44.603515 C 77.907836 46.129345 76.893622 46.155692 76.294922 45.6875 C 75.60108 45.144905 75.46658 43.938987 77.398437 43.630859 z M 101.58789 46.517578 L 103.33984 46.751953 C 103.35884 48.512965 101.0136 47.960978 101.58789 46.517578 z M 126.83398 46.835937 L 128.58594 47.070312 C 128.60494 48.831324 126.25969 48.279337 126.83398 46.835937 z M 120.16406 56.662109 C 123.30129 56.658999 126.61252 57.287115 129.44922 57.294922 L 129.44922 57.61914 L 114.8457 57.61914 C 116.46292 56.89314 118.28172 56.663975 120.16406 56.662109 z M 113.54687 58.269531 L 115.81836 58.59375 L 115.81836 58.917969 L 113.54687 58.917969 L 113.54687 58.269531 z M 119.5918 64.699219 L 125.61719 64.771484 L 125.10937 68.990234 L 131.23633 76.392578 L 124.0957 77.042969 L 124.0957 77.367187 L 126.69336 77.691406 L 126.49023 86.048828 C 122.68682 86.048828 119.4088 86.109846 115.61523 86.097656 C 114.36059 86.093656 114.14672 86.518498 113.00391 85.955078 C 110.9256 84.930448 114.16529 78.099168 110.54102 78.548828 C 108.06971 78.855458 108.68164 84.22219 108.68164 85.875 C 107.80439 85.8749 106.36687 86.124055 105.63086 85.541015 C 104.08999 84.320365 105.31445 78.116733 105.31445 76.220703 L 102.06836 76.220703 C 103.17419 73.738953 106.14092 69.664043 108.7832 68.689453 C 111.372 67.734593 113.61868 68.391865 116.36719 68.390625 C 117.45467 68.389975 119.60199 68.849515 120.11133 67.572265 C 120.45544 66.709355 119.78152 65.549719 119.5918 64.699219 z M 135.29102 88.126953 L 135.29102 88.451172 L 133.34375 88.451172 L 135.29102 88.126953 z M 112.57422 102.40625 L 112.57422 102.73047 L 109.97656 102.73047 L 112.57422 102.40625 z " /></g></svg>
