<?xml version="1.0" encoding="UTF-8" standalone="no"?>
<svg
   version="1.2"
   viewBox="0 0 219.2126 219.2126"
   width="58mm"
   height="58mm"
   id="svg1"
   sodipodi:docname="LunatikRoleTokenLaser.svg"
   inkscape:version="1.4.2 (f4327f4, 2025-05-13)"
   xml:space="preserve"
   xmlns:inkscape="http://www.inkscape.org/namespaces/inkscape"
   xmlns:sodipodi="http://sodipodi.sourceforge.net/DTD/sodipodi-0.dtd"
   xmlns="http://www.w3.org/2000/svg"
   xmlns:svg="http://www.w3.org/2000/svg"><sodipodi:namedview
     id="namedview1"
     pagecolor="#ffffff"
     bordercolor="#666666"
     borderopacity="1.0"
     inkscape:showpageshadow="2"
     inkscape:pageopacity="0.0"
     inkscape:pagecheckerboard="0"
     inkscape:deskcolor="#d1d1d1"
     inkscape:zoom="3.4816928"
     inkscape:cx="56.438063"
     inkscape:cy="112.73252"
     inkscape:window-width="1920"
     inkscape:window-height="1057"
     inkscape:window-x="-8"
     inkscape:window-y="-8"
     inkscape:window-maximized="1"
     inkscape:current-layer="layer2"
     inkscape:document-units="mm"
     showgrid="false" /><defs
     id="defs1"><clipPath
       clipPathUnits="userSpaceOnUse"
       id="cp1"><path
         d="m 275.5,535.5 c -143.78,0 -260,-116.22 -260,-260 0,-143.78 116.22,-260 260,-260 143.78,0 260,116.22 260,260 0,143.78 -116.22,260 -260,260 z"
         id="path1" /></clipPath></defs><style
     id="style1">
		tspan { white-space:pre } 
		.s0 { fill: none;stroke: #ff0000;stroke-miterlimit:100 } 
	</style><g
     inkscape:groupmode="layer"
     id="layer2"
     inkscape:label="Content"><g
       inkscape:groupmode="layer"
       id="layer4"
       inkscape:label="Kruh"
       style="display:inline"><path
         id="path2"
         style="fill:none;stroke:#000000;stroke-width:0.189192"
         d="M 219.118,109.6063 A 109.5117,109.5117 0 0 1 109.6063,219.118 109.5117,109.5117 0 0 1 0.09459686,109.6063 109.5117,109.5117 0 0 1 109.6063,0.09459686 109.5117,109.5117 0 0 1 219.118,109.6063 Z"
         inkscape:label="Vnejsi kruh" /><path
         id="circle2"
         style="fill:none;stroke:#000000;stroke-width:0.188976"
         d="M 208.69732,109.6063 A 99.091019,99.091019 0 0 1 109.6063,208.69732 99.091019,99.091019 0 0 1 10.515282,109.6063 99.091019,99.091019 0 0 1 109.6063,10.515282 99.091019,99.091019 0 0 1 208.69732,109.6063 Z"
         inkscape:label="Vnitrni kruh" /></g><path
       id="path4"
       style="opacity:1;baseline-shift:baseline;display:inline;overflow:visible;fill:none;enable-background:accumulate;stop-color:#000000;stop-opacity:1;stroke-width:0.18897638;stroke-dasharray:none;stroke:#000000;stroke-opacity:1"
       d="M 108.29492 27.001953 C 106.62788 26.992853 105.01099 27.091763 103.50391 27.314453 C 101.07884 27.672792 99.053156 28.946582 96.96289 29.347656 C 95.00118 29.724056 92.763207 30.055986 90.724609 30.830078 C 88.841142 31.545264 87.171704 32.754612 86.09375 34.650391 C 84.504452 33.994725 82.88281 34.118802 81.443359 34.755859 C 79.843628 35.463852 78.398941 36.625377 77.15039 37.623047 C 71.129386 42.434172 67.526244 50.702963 65.857422 57.982422 L 65.40625 59.955078 L 69.152344 56.429687 C 68.275522 57.817171 67.482191 59.076053 66.646484 60.578125 C 65.043226 63.459768 63.769334 66.512373 63.996094 69.568359 C 64.691112 78.934866 71.324251 84.743822 78.144531 89.808593 C 85.445418 95.230267 94.597444 99.568244 103.81836 100.72461 C 113.03927 101.88097 122.35945 99.815966 129.76367 92.435547 C 131.11277 91.090775 132.84564 89.83268 134.08203 88.121093 C 136.86859 84.263541 138.43029 76.815402 138.74219 72.382812 C 139.33354 63.979008 139.12786 58.610278 136.80859 54.427734 C 134.48932 50.245191 130.14125 47.426524 122.74805 44.005859 C 119.38879 42.451609 115.82481 42.519531 112.39062 42.519531 C 102.19074 42.519531 95.294192 45.097798 87.902343 52.529297 C 84.520404 55.929367 81.722768 60.496497 80.417968 65.361328 C 79.113167 70.22616 79.314544 75.415792 82.009765 79.93164 C 84.347248 83.848087 89.437031 86.511948 93.257812 88.115234 C 102.4254 91.962188 114.83997 93.465437 124.02539 87.224609 C 126.7943 85.343332 128.30832 81.323885 129.25977 78.515625 C 130.40958 75.121853 131.61865 71.465129 131.83203 67.832031 C 132.04541 64.198933 131.22475 60.560964 128.33789 57.410156 C 126.63723 55.554003 124.38692 54.381282 122.52148 53.046875 C 120.77813 51.799776 119.14121 49.469245 116.36328 49.175781 C 114.3797 48.96622 112.30116 49.756987 110.6543 50.048828 C 102.05075 51.573489 93.69537 56.038822 90.849609 64.771484 C 89.591648 68.631755 89.017702 74.136283 91.835937 77.720703 C 93.393521 79.701748 96.13866 81.61526 99.136718 82.902343 C 102.13478 84.189426 105.38576 84.861069 108.00391 84.083984 C 113.9563 82.317257 118.95771 76.879858 120.03711 70.935547 C 120.18671 70.11167 120.42805 69.311323 120.53516 68.449219 C 120.64226 67.587115 120.59525 66.648228 120.14062 65.677734 C 118.84331 62.908253 116.44678 61.252253 113.77734 60.542969 C 111.1079 59.833684 108.15267 60.035792 105.57227 60.93164 C 102.99186 61.827488 100.76377 63.423281 99.638672 65.607422 C 98.513573 67.791563 98.588792 70.549463 100.4707 73.429687 C 101.48473 74.981639 102.66664 75.818321 103.89844 76.005859 C 105.13024 76.193398 106.31611 75.732358 107.34375 74.986328 C 109.39902 73.494268 110.98574 70.84304 111.67187 68.734375 L 112.17187 67.199219 L 107.43555 69.960937 C 107.21551 69.535928 106.98221 69.105761 106.81445 68.701172 C 106.56314 68.095045 106.49696 67.632079 106.69727 67.271484 C 107.01245 66.704081 108.25044 66.127041 109.54883 66.052734 C 110.84722 65.978424 112.04957 66.389933 112.39844 67 C 113.54474 69.004554 113.4728 70.375511 112.83008 71.662109 C 112.18735 72.948708 110.85885 74.143129 109.38672 75.384765 C 108.82401 75.85936 108.29972 76.462249 107.76172 76.96875 C 107.22372 77.475251 106.68422 77.863463 106.19727 77.978515 C 105.2402 78.204645 103.76364 77.352342 102.56445 76.755859 C 100.88289 75.919456 99.884117 75.320111 99.294922 74.544922 C 98.705727 73.769733 98.426511 72.725746 98.332031 70.794922 C 98.259501 69.313951 97.708003 68.113833 98.048828 67.115234 C 98.782419 64.96589 100.44936 63.465448 102.19336 61.873047 C 103.78185 60.422641 105.33946 58.806429 106.15625 56.591797 C 107.18994 57.032753 108.17147 57.198316 109.08203 57.185547 C 110.16469 57.170367 111.17626 57.037179 112.32422 57.160156 C 114.97832 57.444459 119.06944 59.374153 120.93164 61.257812 C 122.69555 63.042041 123.71369 65.096385 123.77539 67.582031 C 123.79329 68.305107 123.58289 69.451634 123.55664 70.572265 C 123.54354 71.13258 123.57674 71.695222 123.74414 72.230469 C 123.85392 72.581512 124.15323 72.85262 124.41016 73.142578 C 123.91004 73.322508 123.38021 73.46719 123.03125 73.841797 C 122.52102 74.389529 122.14822 75.070047 121.82031 75.777344 C 121.1645 77.191936 120.65682 78.750631 120.03125 79.572265 C 117.49756 82.900064 114.10493 84.516246 110.01758 85.132812 C 103.41202 86.12926 97.508525 83.565189 92.599609 79.251953 C 90.328686 77.2566 88.037833 74.457479 87.96289 71.460937 C 87.92277 69.855849 88.837957 68.253648 89.380859 66.441406 C 91.449998 59.534505 97.351139 52.909759 104.15625 50.091797 C 113.52394 46.212669 121.50422 48.875415 128.2207 55.9375 C 130.07884 57.891251 132.85679 61.023819 133.3457 63.453125 C 133.66431 65.036122 132.97754 67.795937 132.7207 69.767578 C 131.68827 77.692504 128.66897 85.185408 122.13477 89.800781 C 117.91428 92.781872 113.07103 94.714747 107.92187 93.927734 C 106.73716 93.746664 105.64092 92.773081 104.03711 92.46289 C 100.9587 91.867474 97.678967 91.156003 94.576172 90.628906 C 93.9928 90.529796 93.481368 90.646583 93.058593 90.714843 C 92.635817 90.783103 92.318091 90.80529 92.068359 90.71875 C 91.549324 90.538932 91.016852 90.126692 90.453125 89.636718 C 89.889398 89.146744 89.299634 88.586869 88.576172 88.195312 C 85.041578 86.282366 80.310841 84.228168 78.341797 80.933593 C 77.961715 80.297643 77.925055 79.643844 77.943359 78.851562 C 77.961659 78.059281 78.052053 77.150004 77.757812 76.183594 C 76.753235 72.884044 75.231114 69.21968 75.332031 65.957031 C 75.368771 64.769411 76.27948 63.730078 76.693359 62.189453 C 77.739769 58.29438 78.651633 54.722476 80.632812 51.259765 C 82.456491 48.072316 84.985685 46.376562 87.99414 44.191406 C 95.752595 38.556136 105.33175 35.241346 114.90234 36.732422 C 117.45566 37.130225 119.93426 38.654678 122.61719 39.566406 C 126.71738 40.959758 131.98122 42.727605 134.98437 45.642578 C 142.16815 52.61543 143.37305 62.486543 143.37305 72.128906 L 143.37305 72.74414 L 144.4082 72.74414 C 143.98181 73.825097 143.47714 74.946859 143.18945 76.228515 C 142.32805 80.06589 142.44737 84.166565 140.85352 87.5 C 137.68085 94.135423 129.35567 98.037382 122.88281 101.01367 C 119.30076 102.66073 116.72519 104.81263 112.96289 105.30273 C 104.43242 106.41403 96.088842 103.74451 88.179687 100.69922 C 80.973276 97.924526 72.466572 93.54979 69.302734 86.21875 L 69.142578 85.845703 L 67.785156 85.845703 L 67.796875 86.472656 C 67.869045 90.480482 69.668686 93.463318 71.132812 96.792968 C 70.900032 96.844148 70.637792 96.834809 70.423828 96.960937 C 69.964044 97.231974 69.65968 97.709758 69.457031 98.322265 L 69.232422 99 L 69.935547 99.121093 C 74.740466 99.94791 77.340818 101.48119 79.982422 103.20508 C 82.624026 104.92897 85.30589 106.85999 90.017578 108.27148 C 90.876181 108.5287 93.279891 109.29204 95.679687 110.01562 C 98.079484 110.73919 100.3951 111.42019 101.45312 111.55078 C 103.0075 111.74259 104.43567 111.56733 105.9082 111.49023 C 109.17355 111.31982 113.38537 111.40563 116.74219 110.75781 C 121.75759 109.78968 126.99804 107.03468 131.5293 105.07031 C 136.1104 103.08436 139.6547 99.140909 142.8418 95.673828 C 149.13266 88.830239 153.46405 80.294557 153.92773 70.855469 C 154.0861 67.631493 152.82509 64.064302 151.98047 61.203125 C 150.04176 54.635657 147.80929 47.773294 143.08789 42.402344 C 137.99824 36.612498 130.11547 32.130872 123.02344 29.570312 C 118.74732 28.02642 113.29606 27.029151 108.29492 27.001953 z "
       inkscape:label="znak" /><path
       id="path3"
       style="font-size:41.5223px;font-family:'New Rocker';-inkscape-font-specification:'New Rocker';letter-spacing:0.769167px;baseline-shift:baseline;white-space:pre;display:inline;overflow:visible;opacity:1;enable-background:accumulate;stop-color:#000000;stop-opacity:1;fill:none;stroke:#000000;stroke-opacity:1;stroke-width:0.18897638;stroke-dasharray:none"
       d="m 164.15039,118.77148 c -1.19179,0.58266 -2.24403,0.99423 -3.13672,1.24219 -0.90241,0.25067 -1.71348,0.36719 -2.42969,0.36719 -0.69656,0 -1.19753,-0.0942 -1.47265,-0.20117 l -3.59375,-1.39649 1.98437,3.30664 c 0.20476,0.34127 0.35592,0.66932 0.46094,0.98438 l 0.0117,0.0352 0.0137,0.0371 c 0.13041,0.32602 0.23236,0.68064 0.30078,1.06836 l 0.006,0.0352 0.008,0.0371 c 0.0886,0.37649 0.15129,0.82321 0.17579,1.33789 v 0.0312 l 0.004,0.0312 c 0.0503,0.5282 0.0762,1.15431 0.0762,1.86914 v 17.43164 h -3.77539 v -11.57031 l -1.43945,-2.39649 -0.94922,0.23633 c -0.31397,0.0785 -0.64464,0.15978 -0.99219,0.24219 v -1.06641 l 0.5,-1 c 0.41503,-0.83006 0.88395,-1.47637 1.39258,-1.96289 h 0.002 c 0.60514,-0.57992 1.35744,-1.19199 2.25586,-1.82617 l 1.69336,-1.19531 -1.79882,-1.0293 c -0.14634,-0.0836 -0.42633,-0.25486 -0.78125,-0.48242 -0.34221,-0.26255 -0.70619,-0.53573 -1.09375,-0.82031 l -0.0156,-0.0117 c -0.007,-0.005 -0.0124,-0.0104 -0.0195,-0.0156 -0.35414,-0.27889 -0.69469,-0.56021 -1.02344,-0.83789 -0.28365,-0.26176 -0.48554,-0.47877 -0.57031,-0.59179 l -0.67774,-0.9043 -0.99804,0.53125 c -0.98827,0.52708 -1.87798,1.26228 -2.66211,2.17187 l -0.002,0.002 c -0.71068,0.82911 -1.32594,1.68193 -1.83985,2.55859 l -0.55859,0.95117 0.83789,0.71875 c 0.2252,0.19303 0.51454,0.4242 0.88476,0.70899 0.35598,0.27383 0.72706,0.56135 1.11133,0.86328 0.36354,0.28564 0.69669,0.56784 1.00196,0.84765 l 0.043,0.0391 0.0449,0.0352 c 0.24909,0.19162 0.43155,0.3562 0.52929,0.45313 v 2.26172 c -0.0825,0.0183 -0.16607,0.0363 -0.25,0.0547 -0.003,6.5e-4 -0.005,9.2e-4 -0.008,0.002 -1.10335,0.21478 -2.12543,0.39012 -3.05859,0.52344 l -0.0508,0.008 v -0.0215 h -5.85547 v -0.88086 c 0,-0.20027 0.0138,-0.61123 0.041,-1.18359 v -0.002 c 0.0267,-0.58685 0.0677,-1.18872 0.1211,-1.80469 v -0.002 -0.002 -0.002 c -1e-5,-8.9e-4 -8e-5,-0.003 0,-0.004 0.08,-0.63809 0.16059,-1.23939 0.24023,-1.79687 0.0756,-0.52906 0.17432,-0.89575 0.20898,-0.98242 l 1.34571,-3.36328 -3.19336,1.70898 c -1.15294,0.61669 -2.22886,1.12062 -3.22461,1.51367 -0.91435,0.36093 -1.92619,0.58323 -3.05078,0.65821 l -2.52149,0.16796 1.47657,1.84571 h -0.002 v 0.002 0.002 c 0.004,0.0251 0.0866,0.1881 0.12891,0.41407 l 0.002,0.008 v 0.008 c 0.0731,0.36539 0.13753,0.79748 0.18946,1.29102 v 0.004 l 0.002,0.004 c 0.0527,0.47424 0.0909,0.94796 0.11719,1.42187 l 0.004,0.041 0.004,0.041 c 0.0526,0.4467 0.0742,0.77141 0.0742,0.88281 v 0.62304 c -0.84326,0.68841 -1.69746,1.28545 -2.60157,1.63477 l -0.8457,0.32617 v 0.39063 l -1.96875,-1.33594 c -0.92199,-0.0653 -1.79765,-0.17095 -2.41797,-0.46094 -0.79462,-0.41213 -1.61167,-1.04655 -2.43554,-1.94531 l -0.72071,-0.78516 -0.91992,0.53907 c -0.63248,0.37076 -1.6515,0.76248 -3.01562,1.10351 -1.30039,0.3251 -2.9145,0.5 -4.82813,0.5 h -0.36914 c -0.27513,-0.0868 -0.40712,-0.041 -0.58594,-0.041 h -1.66406 l 0.37891,1.61914 c 0.2082,0.89229 0.44835,1.65159 0.75586,2.30078 l 0.0137,0.0254 0.0117,0.0234 c 0.32926,0.62559 0.71288,1.16664 1.18945,1.60351 l 0.0234,0.0215 0.0234,0.0195 c 0.4596,0.383 0.99139,0.67471 1.5625,0.83789 l 0.0508,0.0137 0.0527,0.0117 c 0.50925,0.10185 1.03967,0.15039 1.58789,0.15039 0.84767,0 1.78335,-0.16536 2.87695,-0.46094 0.44453,-0.12014 0.85228,-0.30801 1.28321,-0.45312 v 1.35937 c -0.21089,0.0824 -0.35581,0.16219 -0.62305,0.24414 -0.56278,0.15293 -1.19913,0.29802 -1.91016,0.42969 -0.70042,0.12971 -1.44444,0.23307 -2.23242,0.3125 -0.76818,0.0526 -1.52119,0.0801 -2.25976,0.0801 -0.66896,0 -1.27443,-0.0396 -1.81446,-0.11328 l -2.27148,-0.3086 0.87305,2.11914 c 0.14272,0.34663 0.25749,0.777 0.32812,1.29493 v 0.004 0.006 c 0.0382,0.26753 0.0673,0.54946 0.0859,0.84375 h -2.67188 v -0.16016 c 0,-1.43098 0.0139,-2.624 0.041,-3.57421 0.0269,-0.94321 0.0534,-1.72888 0.0801,-2.37696 v -0.002 c 0.0525,-0.63001 0.10489,-1.12868 0.15429,-1.50586 0.0753,-0.39799 0.15957,-0.76842 0.25586,-1.10547 l 0.30664,-1.07422 -1.00781,-0.47851 c -0.55165,-0.26269 -1.02951,-0.50862 -1.43555,-0.73633 -0.41576,-0.26025 -0.81963,-0.52189 -1.20898,-0.78125 -0.34405,-0.24666 -0.69096,-0.51876 -1.04102,-0.81836 -0.003,-0.003 -0.006,-0.005 -0.01,-0.008 -0.37581,-0.34914 -0.7874,-0.73603 -1.24219,-1.16407 l -0.95703,-0.90039 -0.904297,0.95508 c -0.965176,1.01879 -1.897603,1.89476 -2.789062,2.62891 -0.302213,0.24888 -0.705578,0.50324 -1.037109,0.7539 v -1.22265 l -1.439454,-2.39649 -0.947265,0.23633 c -0.870116,0.21753 -1.868953,0.45028 -2.994141,0.69727 -1.10413,0.21496 -2.1268,0.39004 -3.060547,0.52344 l -1.132812,0.16015 v 2.46875 l 1.537109,0.66406 v 9.2168 h -3.808594 c -0.03444,-0.70993 -0.05273,-1.58283 -0.05273,-2.60937 v -11.9336 l -1.908203,0.95508 c -0.825437,0.41272 -1.851323,0.77043 -3.074219,1.05664 l -0.0039,0.002 h -0.002 c -1.198754,0.28667 -2.42501,0.46846 -3.679688,0.54688 l -1.236328,0.0781 v 2.79297 l 0.978516,0.26172 c 0.286467,0.0764 0.418217,0.16916 0.425781,0.17578 l 0.06641,0.0566 0.06641,0.043 v 0.002 c 0.01,0.0111 0.04179,0.053 0.08594,0.16796 0.05944,0.15454 0.138425,0.51796 0.16211,1.03907 l 0.002,0.0293 0.0039,0.0293 c 0.04981,0.54795 0.07617,1.29174 0.07617,2.20703 v 5.61328 l -2.484375,1.08789 -0.605469,-0.46289 v -7.73437 -1.86719 c 0.02473,-0.48835 0.03764,-0.94364 0.03906,-1.37109 0.02673,-0.42768 0.05345,-0.82691 0.08008,-1.20118 0.05464,-0.3861 0.108205,-0.80155 0.162109,-1.25976 l 0.275391,-2.33984 -2.138672,0.98632 c -0.27573,0.12726 -0.71723,0.29241 -1.28125,0.47266 -0.581319,0.15805 -1.214951,0.31854 -1.908203,0.47852 -0.69757,0.16098 -1.396543,0.30708 -2.09375,0.4414 -0.686395,0.10511 -1.304529,0.18482 -1.845703,0.23633 l -1.089844,0.10352 -0.216797,2.37304 0.710937,0.42578 c 0.27468,0.16481 0.454901,0.33829 0.589844,0.53321 l 0.0332,0.0488 0.03906,0.0449 c 0.140614,0.16873 0.293209,0.43859 0.419922,0.83984 0.12471,0.39491 0.223575,0.93619 0.273437,1.60938 l 0.002,0.0273 0.0039,0.0273 c 0.07509,0.65082 0.115234,1.46201 0.115234,2.42188 0,0.85831 -0.02602,1.76105 -0.08008,2.70703 l -0.002,0.0176 v 0.0195 c -0.0082,0.27889 -0.01808,0.55241 -0.03125,0.82031 h -6.996094 c -0.07284,-0.49298 -0.139548,-1.02603 -0.199219,-1.59961 -0.05225,-0.79181 -0.08008,-1.62529 -0.08008,-2.5039 v -10.50586 c 0,-0.80673 0.118631,-1.63175 0.361328,-2.48633 0.276997,-0.90432 0.622571,-1.70507 1.033203,-2.40625 l 0.002,-0.002 v -0.002 c 0.432909,-0.71881 0.895297,-1.27363 1.371094,-1.6875 0.450873,-0.37011 0.789342,-0.48242 1.144531,-0.48242 l 0.169922,-2.62891 c -0.05956,-0.008 -0.110876,-0.005 -0.169922,-0.0117 -0.620369,-0.0748 -1.219387,-0.125 -1.785156,-0.125 -0.863446,0 -1.716454,0.0599 -2.554687,0.17969 -0.785978,0.11228 -1.597666,0.23893 -2.4375,0.37891 -0.80699,0.1345 -1.673171,0.2567 -2.595703,0.36523 -0.881523,0.10371 -1.854702,0.15625 -2.917969,0.15625 -0.442836,0 -0.90184,-0.0129 -1.375,-0.0391 h -0.0059 c -0.446354,-0.0264 -0.923735,-0.0659 -1.429687,-0.11914 l -0.869141,2.41016 c 0.756789,0.50452 1.391062,0.914 1.91211,1.23242 l 0.03516,0.0215 0.03906,0.0195 c 0.386613,0.20349 0.661806,0.43371 0.871094,0.69532 0.155666,0.19458 0.329135,0.55329 0.439453,1.12695 l 0.0059,0.0293 0.0078,0.0293 c 0.122287,0.50953 0.212891,1.43677 0.212891,2.68164 0,1.16815 -0.139524,2.28831 -0.416016,3.36914 l -0.0039,0.0137 -0.0039,0.0137 c -0.241842,1.03991 -0.718943,2.25371 -1.453125,3.61719 l -0.498047,0.92382 0.785156,0.69141 c 0.348649,0.30763 0.612402,0.65059 0.814453,1.05469 l 0.01758,0.0371 0.02148,0.0332 c 0.237273,0.40984 0.409282,0.84889 0.519531,1.33398 l 0.0078,0.0352 0.0098,0.0352 c 0.141767,0.49617 0.238613,1.02039 0.287109,1.57812 v 0.004 0.002 c 0.05193,0.57129 0.07813,1.1266 0.07813,1.66602 0,1.8763 -0.212822,6.24539 -0.703125,7.94922 v 0.002 c -0.480541,1.64112 -1.21109,3.03183 -2.195312,4.21289 l -2.328125,2.79297 3.578125,-0.65039 c 0.839617,-0.15266 1.659574,-0.22852 2.462891,-0.22852 0.792876,0 1.468426,0.154 2.083984,0.45117 l 0.0078,0.004 0.0078,0.004 c 0.744427,0.3474 1.48464,0.78653 2.220703,1.31836 0.781825,0.59341 1.580586,1.22764 2.392578,1.90429 0.882281,0.73524 1.871477,0.79693 2.892578,1.41016 1.41287,0.19924 2.212313,0.28948 3.558594,0.33008 1.455523,0.0439 2.771781,-0.0352 4.40625,-0.0352 1.576273,0 3.299994,-0.14489 5.179688,-0.42969 1.997614,-0.30266 4.089998,-1.01765 6.289062,-2.11718 l 1,-0.5 -0.8125,-2.64063 -1.074219,0.10742 c -0.53627,0.0537 -1.042918,0.0927 -1.519531,0.11914 l -0.03711,0.002 -0.03711,0.004 c -0.452966,0.0503 -0.887784,0.0762 -1.30664,0.0762 -0.846834,0 -1.678654,-0.0656 -2.496094,-0.19336 -0.795474,-0.12429 -1.644316,-0.33842 -2.544922,-0.64648 l -0.0059,-0.002 h -0.002 -0.002 l -0.002,-0.002 c -0.88154,-0.31166 -1.842768,-0.71887 -2.880859,-1.22461 -1.033765,-0.50362 -2.176775,-1.13468 -3.421875,-1.89257 l -3.714844,0.30468 1.63086,3.46289 c -0.712599,-0.45939 -1.431802,-0.89992 -2.123047,-1.43164 l -0.0078,-0.008 -0.0078,-0.006 c -1.033724,-0.76866 -1.939195,-1.53111 -2.71875,-2.2832 -0.474475,-0.49455 -0.572857,-0.72747 -0.744141,-1.00977 0.120954,-0.10992 0.201472,-0.28432 0.359375,-0.36328 l 0.0098,-0.006 0.0098,-0.006 c 0.611755,-0.31918 1.1339,-0.56776 1.552735,-0.74023 l 1.794922,-3.33789 -1.390625,-1.39063 c -0.0047,-0.0178 -0.125458,-0.19759 -0.236329,-0.51172 -0.02146,-0.0608 -0.0431,-0.12393 -0.06445,-0.18945 h 6.455078 c -0.0803,0.803 -0.172978,1.47454 -0.273437,2.00195 l -0.0059,0.0293 -0.0059,0.0312 c -0.05082,0.35574 -0.164536,0.63837 -0.166015,0.68164 v 0.002 h 0.002 0.002 0.002 l 0.002,-0.002 c 0.01131,-0.0106 0.03453,-0.044 0.07422,-0.10351 l -0.791016,1.1875 1.25,0.69531 c 0.478313,0.26573 0.89771,0.51585 1.25586,0.74609 l 0.04687,0.0293 0.04687,0.0254 c 0.364179,0.19423 0.717012,0.41226 1.058593,0.65625 l 0.01758,0.0117 0.01758,0.0117 c 0.364537,0.24302 0.736031,0.52852 1.113281,0.85547 l 0.03516,0.0293 0.03711,0.0293 c 0.400672,0.30051 0.872346,0.69117 1.404297,1.16992 L 69.5,155.6582 l 0.884765,-0.88476 c 0.422564,-0.42257 0.830759,-0.81727 1.22461,-1.18555 l 0.0059,-0.004 c 0.404786,-0.35389 0.836027,-0.6972 1.294922,-1.02929 0.489267,-0.33433 1.021022,-0.67268 1.59375,-1.01172 0.228507,-0.12916 0.541803,-0.28589 0.798828,-0.42383 0.143558,0.40117 0.193509,0.87191 0.400391,1.22656 l 0.0098,0.0176 0.01172,0.0156 c 0.52351,0.83761 1.277698,1.63518 2.257813,2.46679 l 1.324218,1.12305 0.728516,-1.57617 c 0.106735,-0.23126 0.297055,-0.53684 0.580078,-0.89063 l 0.01172,-0.0176 0.01172,-0.0156 c 0.292585,-0.39011 0.626251,-0.77273 1,-1.14648 0.373746,-0.37375 0.754417,-0.70546 1.144531,-0.99805 0.39011,-0.29259 0.723854,-0.49334 0.966797,-0.60547 l 0.765625,-0.35352 v -2.36718 l -1.042969,-0.22461 c -0.184065,-0.0394 -0.254862,-0.0893 -0.3125,-0.13477 0.009,0.004 -0.09141,-0.11892 -0.1875,-0.46484 -0.03436,-0.12369 -0.06849,-0.27131 -0.09961,-0.44141 h 3.634765 v 2.66406 c 10e-7,0.64939 -0.109634,1.06888 -0.193359,1.23633 l -0.0078,0.0156 -0.0078,0.0176 c -0.05957,0.12765 -0.09113,0.1656 -0.101563,0.17382 h -0.002 v 0.002 h -0.002 v -0.002 l -0.806641,0.33399 v 2.82226 h 10.279297 v -2.86132 l -0.841797,-0.31055 c -0.01271,-0.0227 -0.03916,-0.0775 -0.08203,-0.19336 -0.101147,-0.27347 -0.197265,-0.82973 -0.197265,-1.60742 v -8.07227 l 3.007812,-1.3457 v 3.5332 0.0117 c 0.02755,1.57014 0.04102,3.13886 0.04102,4.70898 0,0.22451 -0.02397,0.71393 -0.07813,1.39063 -0.05453,0.68158 -0.12471,1.43459 -0.207032,2.25781 l 0.002,-0.006 c -0.07996,0.7729 -0.186911,1.54658 -0.320313,2.32032 v 0.004 l -0.002,0.004 c -0.132152,0.79291 -0.275076,1.43775 -0.417969,1.91406 l -0.226562,0.75391 1.771484,1.77343 0.933594,-0.99804 c 0.35474,-0.38008 0.768053,-0.78146 1.240232,-1.20117 0.46822,-0.41619 0.96298,-0.82209 1.48633,-1.21485 h 0.002 l 0.002,-0.002 0.002,-0.002 c 0.54129,-0.3857 1.06835,-0.72994 1.57617,-1.03516 0.51693,-0.29468 1.00804,-0.52293 1.47266,-0.68555 l 1.08398,-0.3789 -0.22461,-1.125 c -0.0537,-0.26863 -0.10795,-0.55194 -0.16211,-0.84961 -0.0427,-0.26105 -0.0801,-0.62448 -0.10547,-1.08203 -0.027,-0.48467 -0.0546,-1.11533 -0.082,-1.88477 v -1.08008 h 2.69141 c -0.0111,0.78348 -0.037,1.56609 -0.0762,2.34961 -0.0505,0.98104 -0.2023,1.75059 -0.41016,2.29102 l -0.67773,1.75976 1.88672,0.0332 c 1.52042,0.0262 2.8409,0.19793 3.95898,0.49609 h 0.004 l 0.002,0.002 c 1.15996,0.30259 2.20161,0.73752 3.13867,1.30469 l 0.9707,0.58789 2.39454,-2.88086 c 0.0923,0.13554 0.14286,0.27773 0.24218,0.41211 0.54891,0.74264 1.18611,1.36821 1.90821,1.84961 l 1.24414,0.83008 0.66797,-1.33789 c 0.11363,-0.22726 0.32254,-0.56027 0.62304,-0.96094 0.29258,-0.39011 0.6243,-0.77274 0.99805,-1.14648 0.38411,-0.38411 0.76339,-0.72478 1.13672,-1.02344 l 0.004,-0.002 0.004,-0.004 c 0.36095,-0.29328 0.6611,-0.45918 0.85742,-0.5293 l 0.875,-0.3125 v -2.4375 l -1.02148,-0.23633 c -0.2034,-0.0469 -0.3221,-0.10658 -0.41406,-0.16015 8.7e-4,-0.003 -0.047,-0.0632 -0.11329,-0.25977 -0.0481,-0.16416 -0.095,-0.37368 -0.14062,-0.625 h 4.30469 v 5.92969 l 0.72851,0.36523 c 0.42323,0.21162 0.967,0.49621 1.62305,0.85157 0.64514,0.34945 1.27703,0.71202 1.89453,1.08789 l 0.83399,0.50781 0.72851,-0.64844 c 0.16296,-0.14485 0.45825,-0.36331 0.86133,-0.61523 0.40518,-0.25324 0.83945,-0.49492 1.30273,-0.72657 l 0.0254,-0.0137 0.0254,-0.0137 c 0.47287,-0.2627 0.95822,-0.5128 1.45899,-0.75 0.49087,-0.23252 0.94833,-0.42179 1.36914,-0.57031 l 0.88086,-0.3125 v -2.76563 l -1.25,-0.0664 c -0.76378,-0.0402 -1.28138,-0.2747 -1.7832,-0.77344 -0.28619,-0.30243 -0.51435,-0.76308 -0.61133,-1.48633 h 6.25781 v 2.62305 c 0,1.95751 0.56223,3.76629 1.67188,5.26758 l 0.39453,0.53711 h 1.06836 l 0.18554,-0.0566 c 0.81241,-0.24373 1.5941,-0.46005 2.34766,-0.64844 0.73205,-0.18302 1.524,-0.34164 2.375,-0.47461 l 1.11719,-0.17383 v -2.67187 l -0.8418,-0.31055 c -0.0127,-0.0227 -0.0392,-0.0775 -0.082,-0.19336 -0.10115,-0.27347 -0.19727,-0.82973 -0.19727,-1.60742 v -2.29102 h 3.77539 v 2.66406 c 0,0.63742 -0.0923,1.07551 -0.17578,1.27344 -0.0418,0.099 -0.0611,0.13706 -0.0703,0.14844 h -0.002 v 0.002 h -0.002 -0.002 -0.002 v -0.002 h -0.002 v -0.002 h -0.002 -0.002 l -0.86133,0.31836 v 2.86132 h 10.2793 v -2.86132 l -0.83985,-0.31055 c -0.0122,-0.0223 -0.0388,-0.0765 -0.082,-0.19336 -0.10115,-0.27347 -0.19922,-0.82973 -0.19922,-1.60742 v -3.7793 c 0.25553,0.12764 0.54202,0.23473 0.78711,0.36914 l 0.0137,0.008 0.0156,0.008 c 0.61332,0.31654 1.21601,0.70676 1.81836,1.10156 v 2.70703 c 0,0.47967 -0.0259,1.00909 -0.0781,1.58398 -0.0534,0.58746 -0.11949,1.16066 -0.19922,1.71875 -0.0764,0.53412 -0.1784,1.03732 -0.30273,1.50977 l -0.008,0.0332 -0.006,0.0312 c -0.10039,0.47685 -0.21105,0.85811 -0.31445,1.12696 l -0.47852,1.24218 2.375,0.89063 0.59961,-0.60156 c 0.27785,-0.27786 0.63565,-0.58552 1.06445,-0.91407 0.46513,-0.3352 0.97127,-0.67305 1.52149,-1.01367 0.56046,-0.34695 1.13457,-0.68118 1.72265,-1.00195 0.58317,-0.31809 1.1357,-0.5928 1.6543,-0.82617 l 0.97656,-0.43946 -0.23047,-1.04687 c -0.15881,-0.726 -0.25976,-1.89025 -0.25976,-3.41406 0,-0.7496 0.0153,-1.39627 0.041,-1.94532 0.0514,-0.52763 0.12577,-1.05675 0.22657,-1.58593 l 0.17382,-0.91211 -0.80078,-0.47266 c -1.00283,-0.5899 -2.08735,-1.11488 -3.25,-1.58008 -0.12879,-0.0528 -0.31407,-0.0803 -0.44726,-0.13086 l 3.80468,-1.43945 -0.28515,-1.13867 c -0.0145,-0.0582 -0.0625,-0.36373 -0.0879,-0.79492 -0.0267,-0.45394 -0.0391,-0.82142 -0.0391,-1.08594 0,-1.03838 0.1175,-1.88103 0.31445,-2.51563 l 0.43164,-1.39257 -1.42774,-0.29102 c -1.44687,-0.29474 -2.67692,-0.61416 -3.68554,-0.94922 -0.95892,-0.35467 -1.80105,-0.77687 -2.53125,-1.26367 l -0.90039,-0.60156 -0.76563,0.76562 c -0.53887,0.53887 -0.99263,0.94743 -1.4414,1.34961 v -5.89648 c 0,-1.59388 0.11032,-2.85088 0.29882,-3.73047 0.21534,-0.87639 0.52094,-1.50324 0.85547,-1.91211 z m -20.54297,16.50782 1.13672,0.49218 v 9.2168 h -6.30859 v -6.75976 l 3.62109,0.45898 0.28516,-1.13672 c 0.10316,-0.41264 0.28683,-0.86378 0.5625,-1.34961 0.21385,-0.34321 0.46065,-0.62839 0.70312,-0.92187 z m -17.11914,1.56836 h 0.46289 v 0.87304 h 3.44727 v 7.26758 h -4.48438 c -0.0253,-0.63967 -0.0391,-1.41345 -0.0391,-2.31836 0,-1.98619 0.0577,-3.48224 0.1582,-4.44726 0.0848,-0.63611 0.27637,-0.99114 0.45508,-1.375 z m 38.10938,0.99414 2.6875,0.53515 -2.6875,1.08789 z m -46.71875,7.41406 v 2.48633 c -0.3475,-0.0464 -0.761,-0.14901 -1.07422,-0.16211 h -0.002 c -0.19759,-0.009 -0.38354,-0.0277 -0.57812,-0.0391 l 0.0371,-1.87305 c 0.31703,-0.0645 0.58717,-0.0918 0.9414,-0.1836 l 0.0234,-0.006 0.0215,-0.008 c 0.2041,-0.0605 0.42348,-0.14867 0.63086,-0.21484 z"
       sodipodi:nodetypes="csscccsccccccccscccccccsccscccccccccccccccsscccccscccccscccccscscccscccccccccccccccscccccccccsscscccccscscccsscccscsccccccccsscccccccccccccscccccccccccscccccccccccccccccscccccccccccsccccccccscccsccccccssccccccccscsssccccsccscccscccccccccccccccscccccsccccscssssccccccsccccccsccccccccccccccscccccccccccccccccccscccccscccccccccccccssscccccsccsscccccccccccccsccccsscccccccccscccccccccccccccccccccccscccsscccscccccccccscccscccscccccccsccccscccccsccsscccccccccccccccccscccccsccccccccccsssccsccccccccssccccccscsccccccccccccccccccscccccccccccccccc"
       inkscape:label="text" /></g></svg>
