<?xml version="1.0" encoding="UTF-8" standalone="no"?>
<svg
   version="1.2"
   viewBox="0 0 219.2126 219.2126"
   width="58mm"
   height="58mm"
   id="svg1"
   sodipodi:docname="PacifistaRoleTokenLaser.svg"
   inkscape:version="1.4.2 (f4327f4, 2025-05-13)"
   xml:space="preserve"
   xmlns:inkscape="http://www.inkscape.org/namespaces/inkscape"
   xmlns:sodipodi="http://sodipodi.sourceforge.net/DTD/sodipodi-0.dtd"
   xmlns="http://www.w3.org/2000/svg"
   xmlns:svg="http://www.w3.org/2000/svg"><sodipodi:namedview
     id="namedview1"
     pagecolor="#ffffff"
     bordercolor="#666666"
     borderopacity="1.0"
     inkscape:showpageshadow="2"
     inkscape:pageopacity="0.0"
     inkscape:pagecheckerboard="0"
     inkscape:deskcolor="#d1d1d1"
     inkscape:zoom="1.7408464"
     inkscape:cx="1.436083"
     inkscape:cy="150.21429"
     inkscape:window-width="1920"
     inkscape:window-height="1057"
     inkscape:window-x="-8"
     inkscape:window-y="-8"
     inkscape:window-maximized="1"
     inkscape:current-layer="layer2"
     inkscape:document-units="mm"
     showgrid="false" /><defs
     id="defs1"><clipPath
       clipPathUnits="userSpaceOnUse"
       id="cp1"><path
         d="m 275.5,535.5 c -143.78,0 -260,-116.22 -260,-260 0,-143.78 116.22,-260 260,-260 143.78,0 260,116.22 260,260 0,143.78 -116.22,260 -260,260 z"
         id="path1" /></clipPath></defs><style
     id="style1">
		tspan { white-space:pre } 
		.s0 { fill: none;stroke: #ff0000;stroke-miterlimit:100 } 
	</style><g
     inkscape:groupmode="layer"
     id="layer2"
     inkscape:label="Content"><g
       inkscape:groupmode="layer"
       id="layer4"
       inkscape:label="Kruh"
       style="display:inline"><path
         id="path2"
         style="fill:none;stroke:#000000;stroke-width:0.189192"
         d="M 219.118,109.6063 A 109.5117,109.5117 0 0 1 109.6063,219.118 109.5117,109.5117 0 0 1 0.09459686,109.6063 109.5117,109.5117 0 0 1 109.6063,0.09459686 109.5117,109.5117 0 0 1 219.118,109.6063 Z"
         inkscape:label="Vnejsi kruh" /><path
         id="circle2"
         style="fill:none;stroke:#000000;stroke-width:0.188976"
         d="M 208.69732,109.6063 A 99.091019,99.091019 0 0 1 109.6063,208.69732 99.091019,99.091019 0 0 1 10.515282,109.6063 99.091019,99.091019 0 0 1 109.6063,10.515282 99.091019,99.091019 0 0 1 208.69732,109.6063 Z"
         inkscape:label="Vnitrni kruh" /></g><path
       id="path3"
       style="font-size:41.5223px;font-family:'New Rocker';-inkscape-font-specification:'New Rocker';letter-spacing:0.769167px;baseline-shift:baseline;white-space:pre;display:inline;overflow:visible;opacity:1;fill:none;fill-opacity:1;stroke:#000000;stroke-width:0.188976;stroke-dasharray:none;stroke-opacity:1;enable-background:accumulate;stop-color:#000000;stop-opacity:1"
       d="m 124.70159,125.13246 0.50781,-1.45117 -1.50977,-0.2832 c -1.22559,-0.2298 -2.18329,-0.55809 -2.875,-0.93555 -0.75809,-0.4573 -1.37692,-0.90388 -1.84179,-1.32227 l -0.84986,-0.76351 -0.87891,0.73047 c -0.43243,0.36036 -0.97215,0.73885 -1.61523,1.125 h -0.002 v 0.002 0.002 h -0.002 c -0.61628,0.35882 -1.27363,0.69236 -1.97461,1.0039 l -0.008,0.004 -0.01,0.004 c -0.68459,0.31597 -1.38246,0.60534 -2.09375,0.86914 -0.004,0.002 -0.008,0.004 -0.0117,0.006 -0.68485,0.23644 -1.31643,0.43342 -1.88281,0.58789 l -1.50976,0.41211 0.66211,1.41797 c 0.16796,0.35994 0.29374,0.69804 0.38281,1.00976 0.0811,0.28386 0.15531,0.68235 0.20508,1.17969 v 0.004 l 0.002,0.004 c 0.048,0.45646 0.0742,1.08107 0.0742,1.85352 v 0.0234 l 0.002,0.0234 c 0.0269,0.77928 0.041,1.79145 0.041,3.02735 v 1.0371 c -0.84332,0.68849 -1.69933,1.28543 -2.60352,1.63477 l -0.84375,0.32617 v 2.68164 h 3.44727 v 7.41211 h -4.98047 v -11.71679 l -1.43946,-2.39454 -0.94921,0.23633 c -0.2228,0.0557 -0.45363,0.11225 -0.69336,0.16992 v -1.59179 l 0.20117,-0.40235 c 0.41503,-0.83007 0.88395,-1.47637 1.39258,-1.96289 h 0.002 c 0.60515,-0.57993 1.35744,-1.19198 2.25586,-1.82617 l 1.69336,-1.19531 -1.80078,-1.0293 c -0.1463,-0.0836 -0.42442,-0.25488 -0.7793,-0.48242 -0.34221,-0.26255 -0.70618,-0.53574 -1.09375,-0.82031 l -0.0156,-0.0117 c -0.007,-0.005 -0.0124,-0.0104 -0.0195,-0.0156 -0.35414,-0.27889 -0.69468,-0.56021 -1.02343,-0.83789 -0.28365,-0.26176 -0.48556,-0.47878 -0.57032,-0.59179 l -0.67773,-0.9043 -0.99805,0.53125 c -0.988274,0.52708 -1.877978,1.26228 -2.662111,2.17187 l -0.002,0.002 h -0.002 c -0.710672,0.82911 -1.323987,1.68193 -1.83789,2.55859 l -0.558594,0.95117 0.83789,0.71875 c 0.225205,0.19303 0.514538,0.4242 0.884766,0.70899 0.355977,0.27383 0.727056,0.56135 1.111328,0.86328 0.363537,0.28564 0.696703,0.56784 1.001953,0.84765 l 0.04297,0.0391 0.04492,0.0352 c 0.319679,0.24592 0.530109,0.44562 0.591799,0.51758 l 0.23633,0.27539 v 1.85547 c -0.1793,0.0401 -0.36265,0.0802 -0.54883,0.12109 -0.003,6.5e-4 -0.005,9.6e-4 -0.008,0.002 -1.103355,0.21478 -2.125432,0.38817 -3.058598,0.52148 l -1.132813,0.16211 v 1.46485 l -1.626953,-0.29102 c -1.169364,-0.20789 -2.327988,-0.51983 -3.476563,-0.9375 -1.143294,-0.41574 -2.122029,-0.88802 -2.939453,-1.4082 l -0.611328,-0.39063 -0.658203,0.3086 c -1.202871,0.56461 -7.239009,2.51997 -8.666016,2.75781 l -1.496093,0.25 0.455078,1.44726 c 0.269904,0.85879 0.477876,1.92511 0.609375,3.1875 l 0.002,0.0156 0.002,0.0156 c 0.15805,1.23806 0.238281,2.58143 0.238281,4.02735 0,0.70052 -0.01746,1.38303 -0.05078,2.04687 h -3.222656 c -0.02977,-0.66676 -0.04687,-1.48849 -0.04687,-2.46289 0,-1.98619 0.05963,-3.48224 0.160156,-4.44726 0.119791,-0.89816 0.358913,-1.53364 0.642578,-1.94141 l 0.291016,-0.41797 -0.212891,-1.6543 h -1.162109 c -1.25621,0 -2.250737,-0.21311 -3.027344,-0.57617 -0.794622,-0.41213 -1.61168,-1.04655 -2.435547,-1.94531 l -0.720703,-0.78516 -0.919922,0.53907 c -0.632476,0.37076 -1.651503,0.76248 -3.015625,1.10351 -1.30039,0.3251 -2.914488,0.5 -4.828125,0.5 h -0.36914 c -0.275095,-0.0867 -0.407122,-0.041 -0.585938,-0.041 h -1.664062 l 0.378906,1.61914 c 0.04579,0.19625 0.09332,0.38668 0.142578,0.57031 h -2.714844 c -0.04899,-0.47088 -0.07617,-0.99776 -0.07617,-1.57617 0,-0.76742 0.02712,-1.56466 0.08008,-2.39063 0.06478,-0.66482 0.158483,-1.34539 0.257812,-2.02929 0.318823,-0.23953 0.647985,-0.46244 0.935547,-0.75 0.437381,-0.43738 0.819838,-0.89968 1.146484,-1.38672 0.329724,-0.45215 0.622618,-0.90911 0.871094,-1.375 0.230766,-0.43269 0.421553,-0.81414 0.576172,-1.1543 l 0.998047,-2.19336 -2.386719,0.33984 c -0.361377,0.0517 -0.706299,0.09 -1.035156,0.11524 -0.323755,0.0249 -0.663397,0.0391 -1.019531,0.0391 -1.127398,0 -2.334509,-0.11732 -3.621094,-0.35351 h -0.002 c -1.312564,-0.2686 -2.556006,-0.57603 -3.726563,-0.92188 -1.175094,-0.34719 -2.188864,-0.70361 -3.041015,-1.06445 l -0.0059,-0.004 h -0.002 -0.002 -0.002 l -0.002,-0.002 c -0.829049,-0.3643 -1.388869,-0.69796 -1.466797,-0.76172 l -0.708985,-0.58203 -0.792968,0.46484 c -1.54037,0.90298 -2.880384,1.50559 -3.976563,1.82227 l -0.0039,0.002 h -0.0039 c -1.095524,0.32368 -2.224951,0.48633 -3.404297,0.48633 -0.668956,0 -1.369507,-0.0387 -2.101563,-0.11719 -0.754118,-0.0808 -1.596271,-0.18982 -2.523437,-0.32617 l -1.669922,-0.24609 0.166016,1.68164 c 0.156961,1.60099 0.646156,2.98986 1.574218,4.02929 0.614218,0.68792 1.372338,1.18499 2.185547,1.57813 0.0024,0.10853 0.01172,0.21765 0.01172,0.32617 v 0.0469 l 0.0039,0.0469 c 0.02545,0.35636 0.03711,0.71223 0.03711,1.06836 0,1.35484 -0.129217,2.70904 -0.390625,4.06836 l -0.002,0.01 -0.002,0.01 c -0.217747,1.2339 -0.668118,2.33218 -1.365234,3.3418 l -0.609375,0.88476 0.742188,0.77735 c 0.357344,0.37436 0.732833,1.07195 1.001953,2.14843 l 0.0039,0.0137 0.0039,0.0137 c 0.29812,1.0931 0.451172,2.28941 0.451172,3.59765 0,1.14725 -0.127344,2.2608 -0.380859,3.35157 v 0.002 c -0.246695,1.03304 -0.604944,1.85724 -1.046875,2.49805 l -0.853516,1.24023 1.339844,0.68555 c 1.134773,0.57999 2.196748,1.32419 3.193359,2.24414 l 0.0059,0.006 0.0059,0.006 c 0.986666,0.88799 1.642625,1.80147 2.027344,2.75195 l 1.042968,2.58008 1.337891,-2.44141 c 0.613729,-1.12072 1.23567,-2.11238 1.861328,-2.97265 0.551994,-0.759 1.360854,-1.51922 2.453125,-2.25586 l 1.679688,-1.13282 -1.716797,-1.07812 c -0.713471,-0.44847 -1.278597,-1.12687 -1.720703,-2.16797 -0.429871,-1.0794 -0.650391,-2.24317 -0.650391,-3.52539 v -0.33594 c 1.184858,0.0308 2.383234,0.0584 3.421875,0.11719 l 0.002,0.004 c 1.205583,0.067 2.204811,0.29779 3.130859,0.58203 l 0.642579,1.42773 1.341796,-1.78906 c 0.389287,-0.51905 0.773253,-0.98037 1.150391,-1.38281 l 0.002,-0.004 c 0.383803,-0.40754 0.785534,-0.76059 1.207031,-1.06641 0.439683,-0.2995 0.949391,-0.57429 1.535157,-0.81836 l 0.02148,-0.008 0.01953,-0.01 c 0.586319,-0.26874 1.299129,-0.5253 2.132813,-0.75977 l 1.537109,-0.43359 -0.71289,-1.42774 c -0.331195,-0.66239 -0.581751,-1.27096 -0.757813,-1.82031 h 2.978516 l 0.0059,0.0117 0.01367,0.0234 c 0.329262,0.62559 0.712873,1.16664 1.189453,1.60351 l 0.02344,0.0215 0.02344,0.0195 c 0.45961,0.383 0.99139,0.67471 1.5625,0.83789 l 0.05078,0.0137 0.05273,0.0117 c 0.509247,0.10185 1.039666,0.14844 1.58789,0.14844 0.847669,0 1.783349,-0.16537 2.876953,-0.46094 0.444397,-0.12011 0.852392,-0.30611 1.283204,-0.45117 v 1.35937 c -0.210887,0.0824 -0.355814,0.16219 -0.623047,0.24414 -0.562779,0.15293 -1.199128,0.29802 -1.910157,0.42969 -0.700442,0.12971 -1.44638,0.23307 -2.234375,0.3125 -0.767459,0.0526 -1.519912,0.0801 -2.257812,0.0801 -0.668956,0 -1.274427,-0.0396 -1.814453,-0.11328 l -2.271485,-0.3086 0.873047,2.11914 c 0.142726,0.34662 0.255547,0.777 0.326172,1.29493 l 0.002,0.004 v 0.006 c 0.07309,0.51163 0.111328,1.07228 0.111328,1.68164 0,1.08527 -0.02777,2.17051 -0.08203,3.25586 -0.0505,0.98104 -0.204254,1.75059 -0.412109,2.29102 l -0.675781,1.75976 1.884765,0.0332 c 1.52043,0.0262 2.842855,0.19793 3.960938,0.49609 h 0.0039 l 0.002,0.002 c 1.159955,0.30259 2.201614,0.73752 3.138672,1.30469 l 0.970703,0.58789 2.394531,-2.88086 c 0.09234,0.13554 0.14286,0.27773 0.242188,0.41211 0.548906,0.74264 1.186105,1.36821 1.908203,1.84961 l 1.242187,0.83008 0.669922,-1.33789 c 0.113623,-0.22725 0.322545,-0.56027 0.623047,-0.96094 0.292587,-0.39011 0.624299,-0.77273 0.998047,-1.14648 0.384117,-0.38412 0.763388,-0.72478 1.136719,-1.02344 l 0.0039,-0.002 0.0039,-0.004 c 0.360958,-0.29328 0.661103,-0.45918 0.857422,-0.5293 l 0.875,-0.3125 v -2.4375 l -1.020894,-0.23754 c -0.203402,-0.0469 -0.322083,-0.10657 -0.414063,-0.16015 0.0011,-0.003 -0.04691,-0.0629 -0.113281,-0.25977 -0.03852,-0.13152 -0.07795,-0.29236 -0.115234,-0.48047 h 2.892578 c -0.03925,0.37444 -0.08549,0.73425 -0.136719,1.08008 -0.103127,0.66808 -0.229647,1.24661 -0.373047,1.72461 l -0.0078,0.0293 -0.0078,0.0293 c -0.115811,0.46325 -0.257438,0.74947 -0.298828,0.8086 l -1.455078,2.07812 h 2.535156 c 0.74246,0 1.601731,0.0754 2.570313,0.23242 0.988053,0.16023 1.963558,0.35955 2.923828,0.59961 h 0.0039 l 0.0039,0.002 c 0.976492,0.23753 1.863335,0.49947 2.666016,0.7832 0.806525,0.3127 1.425288,0.60669 1.816406,0.8457 l 0.947266,0.58008 0.732422,-0.83789 c 0.06688,-0.0764 0.27036,-0.25291 0.582031,-0.45508 0.368266,-0.21989 0.762696,-0.43095 1.1875,-0.63086 l 0.01563,-0.006 0.01367,-0.008 c 0.445796,-0.2229 0.886608,-0.40556 1.322265,-0.55078 l 0.01953,-0.006 0.01953,-0.008 c 0.470568,-0.17337 0.887083,-0.29121 1.240234,-0.35742 l 1.433594,-0.26758 -0.412109,-1.40039 c -0.116575,-0.39636 -0.22809,-0.89641 -0.330079,-1.47461 -0.07025,-0.54405 -0.113281,-1.33637 -0.113281,-2.34766 v -0.44336 h 2.986328 v 2.47657 c 0,1.95751 0.56028,3.76824 1.669922,5.26953 l 0.396485,0.5332 h 1.066408 l 0.18554,-0.0547 c 0.812401,-0.24373 1.596051,-0.46005 2.349611,-0.64844 0.73205,-0.18302 1.52401,-0.34163 2.375,-0.4746 l 1.11719,-0.17383 V 152.757 l -0.8418,-0.31054 c -0.0127,-0.0227 -0.0391,-0.0774 -0.082,-0.19336 -0.10114,-0.27347 -0.19726,-0.82974 -0.19726,-1.60743 v -2.14453 h 4.97851 c -0.0121,0.88259 -0.0667,1.59249 -0.14843,2.10352 l -0.004,0.0254 -0.004,0.0254 c -0.0702,0.58525 -0.20013,0.99024 -0.31054,1.19727 l -0.0156,0.0312 -0.0156,0.0312 c -0.11501,0.24645 -0.20855,0.32677 -0.25977,0.35937 l -0.0234,0.0156 -0.0254,0.0156 c -0.11232,0.0786 -0.27077,0.15457 -0.51562,0.20703 l -1.04297,0.22266 v 2.84375 l 1.2793,0.041 c 0.80473,0.0251 1.65764,0.12567 2.5625,0.30664 0.8693,0.17387 1.54417,0.41687 2.01953,0.68555 l 0.58398,0.33008 0.61133,-0.27734 c 0.8443,-0.38378 1.60003,-0.63996 2.25781,-0.78125 0.71588,-0.14789 1.50957,-0.23801 2.38281,-0.26368 l 1.28125,-0.0371 v -2.82617 l -1.01757,-0.23828 c -0.35097,-0.0826 -0.6061,-0.18876 -0.79688,-0.29492 -0.14282,-0.0996 -0.26209,-0.22825 -0.375,-0.39844 -0.10341,-0.2206 -0.20872,-0.53918 -0.27344,-0.99219 -0.0708,-0.52324 -0.11132,-1.21411 -0.11132,-2.05468 v -0.27735 h 6.24609 v 2.47852 c 0,1.95751 0.56029,3.76629 1.66992,5.26758 l 0.39649,0.53515 h 1.0664 l 0.18555,-0.0547 c 0.8124,-0.24373 1.59604,-0.46005 2.34961,-0.64844 0.73204,-0.18301 1.52399,-0.34164 2.375,-0.47461 l 1.11523,-0.17383 v -2.67187 l -0.83984,-0.31055 c -0.0122,-0.0223 -0.0388,-0.0765 -0.082,-0.19336 -0.10115,-0.27347 -0.19922,-0.82973 -0.19922,-1.60742 v -2.14649 h 4.18164 l -0.0137,0.14453 0.0234,-0.006 c -0.36938,0.58767 -0.73971,1.17029 -0.99024,1.92188 l -0.004,0.0117 -0.004,0.0117 c -0.30557,0.97773 -0.49214,1.95571 -0.55469,2.92578 l -0.0859,1.33008 1.33203,0.0723 c 0.99414,0.0537 1.84267,0.13374 2.53516,0.23633 l 0.0234,0.004 0.0234,0.002 c 0.68696,0.0763 1.2637,0.18966 1.71875,0.32617 l 0.0293,0.01 0.0293,0.008 c 0.46325,0.11581 0.82281,0.2584 1.07812,0.4043 l 0.0156,0.0117 0.0176,0.01 c 0.32254,0.17202 0.60186,0.36861 0.84961,0.5957 l 0.78515,0.71875 0.86914,-0.61328 c 0.36268,-0.25601 0.85387,-0.5181 1.47266,-0.76562 0.62725,-0.25089 1.31304,-0.46801 2.06055,-0.64844 0.75087,-0.18124 1.54624,-0.32463 2.38672,-0.42969 0.83376,-0.10422 1.65176,-0.15625 2.45312,-0.15625 h 1.63672 l -0.34766,-1.59961 c -0.10898,-0.50123 -0.20814,-1.38332 -0.26172,-2.56054 v -0.002 c -0.0271,-0.61122 -0.0468,-1.26553 -0.0605,-1.96289 h 4.04687 v 5.78711 l 0.72852,0.36524 c 0.42322,0.21161 0.967,0.4962 1.62305,0.85156 0.64514,0.34945 1.27704,0.71202 1.89453,1.08789 l 0.83398,0.50781 0.72852,-0.64844 c 0.16295,-0.14485 0.45824,-0.36331 0.86132,-0.61523 0.40518,-0.25324 0.83945,-0.49491 1.30274,-0.72656 l 0.0254,-0.0137 0.0254,-0.0137 c 0.47287,-0.2627 0.95822,-0.5128 1.45898,-0.75 0.49088,-0.23252 0.94834,-0.42179 1.36915,-0.57031 l 0.88085,-0.3125 v -2.76562 l -1.25,-0.0664 c -0.76378,-0.0402 -1.28137,-0.2747 -1.7832,-0.77344 -0.26685,-0.282 -0.48315,-0.70191 -0.58984,-1.34375 h 5.35742 c -0.012,0.73575 -0.0375,1.47122 -0.0742,2.20703 -0.0505,0.98104 -0.20425,1.75059 -0.41211,2.29102 l -0.67578,1.75977 1.88477,0.0332 c 1.52042,0.0262 2.84284,0.19793 3.96093,0.49609 h 0.004 l 0.002,0.002 c 1.15995,0.30259 2.20161,0.73751 3.13867,1.30468 l 0.97071,0.58789 2.39453,-2.88086 c 0.0923,0.13554 0.14286,0.27773 0.24219,0.41211 0.5489,0.74264 1.1861,1.36821 1.9082,1.84961 l 1.24219,0.83008 0.66992,-1.33789 c 0.11362,-0.22725 0.32254,-0.56027 0.62305,-0.96094 0.29259,-0.39011 0.6243,-0.77273 0.99804,-1.14648 0.38413,-0.38412 0.76339,-0.72477 1.13672,-1.02344 l 0.004,-0.002 0.004,-0.004 c 0.36097,-0.29328 0.66111,-0.45918 0.85743,-0.5293 l 0.875,-0.3125 v -2.4375 l -1.02149,-0.23632 c -0.2034,-0.0469 -0.32013,-0.10657 -0.41211,-0.16016 0.003,-4e-4 -0.0475,-0.0589 -0.11523,-0.25977 -0.10174,-0.34738 -0.20401,-0.90137 -0.28125,-1.61328 -0.0509,-0.75113 -0.0801,-1.777 -0.0801,-3.07422 0,-1.98619 0.0596,-3.48223 0.16016,-4.44726 0.11979,-0.89816 0.35891,-1.53364 0.64257,-1.94141 l 0.67383,-0.96875 -1.26172,-1.10351 h -0.49615 c -1.2562,0 -2.25073,-0.21311 -3.02734,-0.57617 -0.79462,-0.41212 -1.61169,-1.04656 -2.43555,-1.94532 l -0.7207,-0.78515 -0.91993,0.53906 c -0.63248,0.37076 -1.6515,0.76248 -3.01562,1.10351 -1.30039,0.3251 -2.91449,0.5 -4.82813,0.5 h -0.36914 c -0.27513,-0.0868 -0.40711,-0.041 -0.58593,-0.041 h -1.23438 v -0.53906 h -5.85547 v -0.88086 c 0,-0.20027 0.0138,-0.61123 0.041,-1.1836 v -0.002 c 0.0267,-0.58685 0.0677,-1.18872 0.12109,-1.80469 v -0.002 c -1e-5,-7.7e-4 4e-5,-0.005 0,-0.006 v -0.002 c 0.08,-0.63809 0.1606,-1.23939 0.24024,-1.79688 0.0756,-0.52905 0.17432,-0.89771 0.20898,-0.98437 l 1.3457,-3.36328 -3.19336,1.70898 c -1.15294,0.61669 -2.22885,1.12062 -3.22461,1.51367 -0.91434,0.36093 -1.92618,0.58324 -3.05078,0.65821 l -2.52148,0.16796 1.47656,1.84571 h -0.002 v 0.002 0.002 c 0.004,0.0252 0.0866,0.18817 0.1289,0.41407 l 0.002,0.008 v 0.008 c 0.0731,0.36539 0.13753,0.79748 0.18945,1.29102 v 0.004 l 0.002,0.004 c 0.0527,0.47424 0.0909,0.94796 0.11719,1.42187 l 0.004,0.041 0.004,0.041 c 0.0525,0.44674 0.0742,0.77128 0.0742,0.88281 v 0.62304 c -0.84325,0.68841 -1.69745,1.28546 -2.60156,1.63477 l -0.64062,0.24805 c 0.0305,-0.0698 0.0814,-0.0985 0.11132,-0.16992 l 0.70899,-1.69336 -1.83203,-0.13086 c -3.36428,-0.24223 -5.83044,-0.81563 -7.30469,-1.56446 l -0.54688,-0.27734 -0.5664,0.24023 c -1.79751,0.76258 -3.28276,1.31268 -4.42578,1.65039 -1.11898,0.33061 -2.12791,0.48633 -3.0293,0.48633 h -1.85156 l 0.60351,1.75 c 0.24268,0.70377 0.41668,1.48218 0.51758,2.33985 l 0.002,0.0195 0.004,0.0195 c 0.12621,0.85825 0.19336,1.89111 0.19336,3.08789 0,0.5028 -0.0139,1.08058 -0.041,1.73047 -0.0259,0.59604 -0.0935,1.49393 -0.20312,2.67187 l -0.002,0.0117 h -4.3418 v -11.71484 l -1.51367,-2.52344 -1.04297,0.41797 c -0.10695,0.0428 -0.26286,0.0914 -0.43164,0.14062 v -0.7246 l 0.0664,-0.13282 c 0.41504,-0.83007 0.88396,-1.47442 1.39258,-1.96093 l 0.002,-0.002 c 0.60514,-0.57993 1.35743,-1.19199 2.25585,-1.82617 l 1.69336,-1.19531 -1.79882,-1.0293 c -0.14634,-0.0836 -0.42633,-0.25486 -0.78125,-0.48242 -0.34221,-0.26254 -0.70618,-0.53573 -1.09375,-0.82031 l -0.0156,-0.0117 c -0.007,-0.005 -0.0124,-0.0104 -0.0195,-0.0156 -0.34896,-0.2748 -0.68546,-0.54862 -1.00977,-0.82226 l -0.006,-0.006 c -0.29071,-0.26721 -0.49012,-0.48684 -0.57617,-0.60156 l -0.67968,-0.9043 -0.99805,0.53125 c -0.96871,0.51664 -1.69306,1.40567 -2.46577,2.29046 l -2.59504,3.39526 0.83594,0.71679 c 0.2252,0.19302 0.51453,0.42419 0.88476,0.70899 0.35596,0.27382 0.72707,0.56135 1.11133,0.86328 0.36353,0.28563 0.6967,0.56979 1.00196,0.84961 l 0.043,0.0371 0.0449,0.0351 c 0.31967,0.2459 0.53013,0.44759 0.59179,0.51953 l 0.3711,0.4336 v 0.58984 c -0.40516,0.077 -0.82252,0.15115 -1.26563,0.2168 h -0.004 -0.002 c -0.69389,0.10675 -1.40291,0.20072 -2.125,0.28125 l -0.47643,4.00982 c 0.13071,-0.0309 0.40104,-0.029 0.56836,-0.0527 v -3e-5 8.78906 h -6.24609 v -6.92969 l 3.30859,0.45313 0.44727,-0.74609 c 0.14945,-0.24909 0.31339,-0.50128 0.49023,-0.75391 0.0685,-0.0978 0.20054,-0.23068 0.44141,-0.37891 l -0.27748,-4.31258 h -4.41601 c -0.003,-1.05367 -0.0124,-2.02586 -0.0371,-2.79297 -10e-4,-0.85094 -0.0287,-1.59376 -0.0859,-2.23828 -0.0129,-0.27506 -0.0576,-0.47735 -0.082,-0.7207 0.048,0.03 0.0802,0.0825 0.1289,0.11133 l 0.0195,0.0117 0.0215,0.01 c 0.77873,0.42476 1.6338,0.66016 2.5,0.66016 0.90333,0 1.66858,-0.43579 2.42391,-0.95736 z m -85.660414,4.65055 c 0.118967,0.0382 0.250173,0.0704 0.367188,0.10938 l 0.03125,0.01 0.03125,0.01 c 0.676329,0.18937 1.352457,0.39279 2.029297,0.60937 l 0.0293,0.008 0.0293,0.01 c 0.727923,0.19598 1.483369,0.39037 2.265625,0.58594 0.473126,0.11828 1.002376,0.22054 1.511718,0.32812 0.0078,0.38674 0.02148,0.72057 0.02148,1.17383 v 0.0215 l 0.08398,2.51367 c 0.02726,0.81776 0.04102,1.57845 0.04102,2.28125 v 0.0254 0.0254 c 0.01734,0.45083 0.03505,0.72858 0.05273,1.05664 -0.09614,0.0924 -0.207633,0.15766 -0.300781,0.25977 -0.04885,0.0493 -0.07081,0.1184 -0.117188,0.16992 -0.06986,-0.019 -0.120396,-0.0579 -0.193359,-0.0762 h -0.002 c -0.484421,-0.12797 -1.015232,-0.21536 -1.595703,-0.27539 -0.590507,-0.088 -1.205158,-0.14617 -1.841797,-0.17579 -0.630423,-0.0563 -1.239095,-0.0879 -1.824219,-0.0879 -0.2089,0 -0.406762,0.0168 -0.609375,0.0254 -0.0087,-0.57967 -0.02344,-1.16564 -0.02344,-1.73632 v -3.32227 -2.61523 c 0,-0.30628 0.01031,-0.6238 0.01367,-0.9336 z m 55.917969,6.18946 v 0.75781 l 1.535156,0.66406 v 9.36328 h -2.951172 l 0.244141,-1.95508 -1.919922,0.54883 c -1.363491,0.38957 -2.550197,1.09145 -3.445312,2.08985 v 0.002 h -0.002 c -0.557434,0.62433 -0.93069,1.36386 -1.216797,2.14258 -0.455744,-0.0665 -0.867721,-0.10157 -1.398438,-0.22266 l -0.0078,-0.002 c -0.504637,-0.11895 -0.81447,-0.24146 -1.201172,-0.36328 0.06956,-0.61233 0.151893,-1.19297 0.1875,-1.88282 3.9e-5,-5e-4 3.1e-5,-0.003 0,-0.004 v -0.002 c 2.05e-4,-9.1e-4 0.0018,-0.005 0.002,-0.006 0.08339,-1.1211 0.126953,-2.15565 0.126953,-3.09961 0,-1.07411 -0.04294,-2.13503 -0.126953,-3.1836 v -0.01 c -0.0061,-0.11599 -0.02609,-0.23168 -0.0332,-0.34766 0.154673,0.0874 0.294388,0.24192 0.451172,0.32031 0.998938,0.49947 1.930329,0.80469 2.873047,0.80469 1.257956,0 2.485064,-0.43153 3.578125,-1.19336 l 0.0039,-0.002 0.0039,-0.004 c 1.114658,-0.78681 2.002067,-1.82834 2.619141,-3.0625 z m 75.945315,0.20117 0.0176,0.0762 c 0.2082,0.89228 0.44835,1.6516 0.75586,2.30078 l 0.0117,0.0254 0.0137,0.0234 c 0.32926,0.62559 0.71287,1.16664 1.18945,1.60351 l 0.0234,0.0215 0.0234,0.0195 c 0.45961,0.383 0.99139,0.67471 1.5625,0.83789 l 0.0508,0.0137 0.0527,0.0117 c 0.50925,0.10185 1.03967,0.14844 1.58789,0.14844 0.84767,0 1.78336,-0.16537 2.87696,-0.46094 0.4444,-0.12011 0.85239,-0.30611 1.2832,-0.45117 v 1.35937 c -0.21089,0.0824 -0.35581,0.1622 -0.62305,0.24415 -0.56277,0.15293 -1.19912,0.29801 -1.91015,0.42968 -0.70045,0.12971 -1.44638,0.23307 -2.23438,0.3125 -0.76745,0.0526 -1.51991,0.0801 -2.25781,0.0801 -0.66896,0 -1.27443,-0.0396 -1.81445,-0.11328 l -2.27149,-0.30859 0.87305,2.11914 c 0.14273,0.34662 0.25554,0.77699 0.32617,1.29492 l 0.002,0.004 v 0.006 c 0.0444,0.31061 0.0758,0.63967 0.0937,0.98633 h -5.41992 v -6.90234 l 3.6211,0.45898 0.28515,-1.13672 c 0.10316,-0.41263 0.28683,-0.86379 0.5625,-1.34961 0.31228,-0.50118 0.65392,-0.94894 1.02735,-1.3457 z m -17.27148,0.72265 v 2.45118 h 3.44726 v 7.41015 h -4.06836 c -5.6e-4,-0.15439 0,-0.31091 0,-0.46875 0,-1.83497 0.0442,-3.22364 0.1211,-4.12109 l 0.13086,-1.53711 -1.53907,0.10742 c -1.1981,0.0836 -2.24473,0.16759 -3.14453,0.25195 -0.90701,0.085 -1.73518,0.18327 -2.48633,0.29883 l -0.004,0.002 h -0.004 c -0.71982,0.11517 -1.38689,0.2452 -2.00586,0.39257 l -0.008,0.002 -0.008,0.002 c -0.0373,0.009 -0.0722,0.0237 -0.10938,0.0332 -0.0207,-0.46989 -0.0351,-0.94032 -0.0351,-1.41015 v -0.68555 c 0.43723,0.15652 0.87466,0.31095 1.3125,0.44922 l 0.01,0.004 0.01,0.002 c 0.60583,0.18176 1.20359,0.321 1.79297,0.41406 0.5788,0.0914 1.11397,0.14063 1.61718,0.14063 1.18703,0 2.32417,-0.36248 3.20704,-1.0918 l 0.0117,-0.0117 0.0137,-0.01 c 0.72867,-0.63363 1.2474,-1.58789 1.73828,-2.625 z m -8.65821,9.87305 v 0.18359 c 0,0.75726 -0.0379,1.48189 -0.11523,2.17774 -0.024,0.20751 -0.0778,0.48062 -0.10938,0.70508 -1.43345,-0.60986 -2.90909,-1.24765 -3.91796,-1.59766 -0.69665,-0.24169 -1.13277,-0.24977 -1.6836,-0.38281 1.00259,-0.24201 1.9915,-0.49159 3.09375,-0.68164 l 0.0117,-0.002 0.01,-0.002 c 1.03859,-0.19697 1.85046,-0.28773 2.71093,-0.40039 z m -79.498047,0.11133 v 2.48633 c -0.347496,-0.0464 -0.760997,-0.14901 -1.074218,-0.16211 h -0.002 c -0.197376,-0.009 -0.38375,-0.0277 -0.578125,-0.0391 l 0.03516,-1.87305 c 0.3176,-0.0646 0.588425,-0.0916 0.943359,-0.1836 l 0.02344,-0.006 0.02148,-0.008 c 0.204101,-0.0605 0.423491,-0.14867 0.630859,-0.21484 z m 114.919927,0 v 2.48633 c -0.3475,-0.0464 -0.761,-0.14901 -1.07422,-0.16211 h -0.002 c -0.19738,-0.009 -0.38375,-0.0277 -0.57813,-0.0391 l 0.0352,-1.87305 c 0.3176,-0.0646 0.58842,-0.0916 0.94336,-0.1836 l 0.0234,-0.006 0.0215,-0.008 c 0.2041,-0.0605 0.42349,-0.14867 0.63086,-0.21484 z"
       sodipodi:nodetypes="ccccccccccccccccccccscccsccsccccccccccccsccsccccccccccccccccssccccccscccccscccccccccsccsccccsccccsscsccccsccscsccccsccsccccccccscccsccccscsccscccccccccscccccccccccsscccscccccscccccccccccccscscccsscccscsccccccsccccccccccscccsscccscccccccccccccscccccccccccccccccccsccsccccscccccscccccccccccccccssccccccccccsccsccccscccccsccccscccccccccccccccccssssccccccccscccscccscccccccccccccccccscccsscccsccccccsccccsccccsscscccscccsccscccscccccccccccccccscccccccccsscccccscccccccccsccscccccccccccccsscccccccccccccscsscccccccccccsccccccccscsccscccccccccscscscccccccccccccccscccscccssccccccccccscscccsscccscscccccccccccccccccccsccsscccccccsccccssccccccccccccccccccccccccccccccccccccccccc"
       inkscape:label="text" /><path
       id="path5"
       style="baseline-shift:baseline;display:inline;overflow:visible;opacity:1;fill:none;stroke:#000000;stroke-width:0.188976;stroke-dasharray:none;stroke-opacity:1;enable-background:accumulate;stop-color:#000000;stop-opacity:1"
       inkscape:label="znak"
       d="M 104.2832 31.925781 C 104.13285 31.920081 103.98105 31.920134 103.83008 31.927734 C 103.65754 31.936334 103.48547 31.953376 103.31445 31.978516 C 101.94628 32.179645 100.60491 32.902515 99.910156 34.138672 C 99.282608 35.255292 99.309408 36.680129 99.830078 39.666015 C 99.928158 40.228492 100.05863 41.610112 100.30664 43.214844 C 100.54884 44.78192 100.92059 46.579275 101.50586 48.177734 C 101.54336 52.217284 102.71517 57.612107 103.67383 61.876953 L 102.87305 62.115234 L 101.82031 61.761719 C 101.25196 61.570185 100.62674 61.497586 99.986328 61.519531 C 99.34592 61.541471 98.691381 61.657544 98.066406 61.845703 C 96.816456 62.222023 95.670756 62.880478 95.044922 63.826172 C 94.782655 64.222467 94.595765 64.564364 94.507812 65.017578 C 94.436812 65.383441 94.419208 65.799241 94.417968 66.419922 L 93.273437 66.726562 L 91.800781 66.914062 C 90.099456 67.130367 88.459192 67.966146 87.675781 69.152344 C 87.40283 69.565655 87.199242 69.92397 87.121093 70.482422 C 87.042843 71.041573 87.049743 71.792098 87.058593 73.248047 C 87.074593 75.882379 87.158743 76.571517 87.654297 78.205078 C 89.25935 83.49597 91.557509 87.23944 94.28125 88.476562 C 95.71031 89.125637 97.500056 89.027453 98.830078 88.257812 L 99.476562 88.880859 C 97.833494 89.916334 95.232582 90.069151 93.429687 89.08789 C 92.303251 88.474809 90.333184 86.183867 89.669922 85.736328 C 89.980795 85.264273 89.362879 84.594204 89.222656 84.376953 C 89.152546 84.268328 89.092174 84.179409 89.037109 84.105468 C 89.009579 84.068498 88.985418 84.037059 88.949218 83.998047 C 88.931118 83.978547 88.911713 83.957301 88.871093 83.925781 C 88.850783 83.910021 88.82582 83.889397 88.78125 83.867187 C 88.75896 83.856077 88.731922 83.844624 88.695312 83.833984 C 88.658702 83.823344 88.553451 83.814453 88.552734 83.814453 C 88.440666 83.814454 88.16594 83.947156 88.08789 84.089843 C 88.00984 84.23253 88.017292 84.306639 88.013672 84.375 C 88.006472 84.511724 88.016372 84.646153 88.039062 84.896484 C 88.084362 85.397145 88.18902 86.316737 88.388672 88.05664 C 89.15247 94.712761 91.134993 99.876281 94.371093 103.49219 C 97.607194 107.10805 102.08788 109.13746 107.70508 109.56836 L 107.70703 109.56836 C 107.72113 109.56936 107.73004 109.56914 107.74414 109.57031 C 108.91216 109.65851 110.22011 109.7073 110.8125 109.66406 C 114.01591 109.43095 115.02349 109.28605 116.61719 108.82422 C 122.44466 107.13548 126.69844 102.91398 128.77734 96.791015 C 129.84862 93.635802 130.18732 91.571337 130.04492 89.003906 C 129.91461 86.654274 129.00275 81.741434 128.21094 79.074218 C 128.00517 78.381097 127.82357 77.80468 127.47656 77.28125 C 127.39426 77.157119 127.30233 77.038525 127.20117 76.923828 L 127.20117 73.15039 L 127.27148 71.052734 C 127.34138 68.966022 127.51052 66.442837 127.63477 65.546875 C 127.95381 63.246367 129.33436 56.491656 129.36328 50.457031 C 130.12584 48.702555 130.80064 45.78377 131.30664 43.125 C 131.56496 41.767634 131.77616 40.496376 131.92383 39.527344 C 131.99763 39.042828 132.05603 38.632606 132.0957 38.324219 C 132.1354 38.015833 132.1582 37.857722 132.1582 37.689453 C 132.1582 36.559713 131.68659 35.567464 130.88086 34.894531 C 130.07512 34.221597 128.95877 33.86052 127.67383 33.861328 C 126.48865 33.862062 125.47182 34.528995 124.71094 35.431641 C 123.95005 36.334287 123.41296 37.488087 123.15234 38.621094 C 123.13584 38.692644 123.01694 39.109171 122.85742 39.68164 C 122.69789 40.254109 122.49299 41.01458 122.27539 41.896484 C 121.84294 43.649168 121.36841 45.881068 121.13281 48.068359 C 120.89868 48.645914 120.60486 49.764106 120.20312 51.341797 C 119.78846 52.970238 119.29421 54.981261 118.78516 56.970703 C 118.27612 58.960146 117.75149 60.928634 117.2793 62.458984 C 117.04321 63.224158 116.81994 63.8813 116.62305 64.367187 C 116.42616 64.853073 116.20095 65.185745 116.20117 65.185547 C 116.13917 65.241627 116.09331 65.277787 116.0625 65.300781 C 116.0234 65.280641 115.96185 65.24771 115.87891 65.193359 C 115.73202 65.097109 115.2949 64.52504 114.90039 63.662109 C 114.50587 62.799177 114.09579 61.643619 113.73047 60.322265 C 113.13133 58.155181 113.02483 53.696902 110.5293 46.99414 C 110.3832 44.12837 109.72295 40.934684 109.00391 38.330078 C 108.64162 37.017735 108.26493 35.856577 107.92969 34.962891 C 107.76206 34.516048 107.60612 34.135926 107.46289 33.832031 C 107.31966 33.528135 107.20914 33.312034 107.04492 33.125 C 106.35154 32.335294 105.33563 31.965765 104.2832 31.925781 z M 108.69922 47.136719 C 107.58037 47.683294 104.77999 48.167615 103.5332 48.052734 C 104.7708 47.907122 107.55541 47.230009 108.69922 47.136719 z M 122.54883 48.845703 C 123.96127 49.251818 127.20632 49.844516 128.50391 50.257812 C 126.25554 50.122316 124.27063 49.651371 122.54883 48.845703 z M 107.79102 48.86914 C 106.44395 49.376875 105.02933 49.563129 103.54687 49.427734 L 107.79102 48.86914 z M 104.19727 64.208984 C 104.32916 64.805508 104.44858 65.361023 104.55078 65.865234 C 104.72077 66.70385 104.87442 67.474244 104.98633 68.039062 C 105.04223 68.321471 105.08805 68.553159 105.11914 68.714844 C 105.13464 68.795684 105.1464 68.859909 105.1543 68.902344 C 105.1583 68.922664 105.16011 68.937042 105.16211 68.945312 C 105.16126 68.934292 105.1582 68.891362 105.1582 68.888672 C 105.15904 68.893772 105.19121 69.065812 105.19141 69.066406 C 105.19164 69.067007 105.25927 69.192761 105.25977 69.193359 C 105.26022 69.193957 105.30878 69.248618 105.33008 69.267578 C 105.35138 69.286538 105.36982 69.30121 105.38672 69.3125 L 105.38867 69.314453 L 105.39062 69.314453 L 105.39062 69.316406 L 105.39258 69.316406 L 105.39453 69.318359 L 105.39453 69.320312 L 105.39648 69.322265 L 105.39648 69.324219 L 105.39844 69.324219 L 105.39844 69.326172 C 105.42519 69.403001 105.29658 69.685565 105.29102 69.748047 C 105.291 69.749064 105.29094 69.753049 105.29102 69.753906 L 105.29102 69.755859 L 105.29297 69.757812 L 105.29492 69.757812 L 105.29687 69.757812 L 105.29883 69.757812 L 105.30078 69.757812 C 105.36916 69.754639 105.60057 69.435558 105.65625 69.410156 L 105.6582 69.410156 L 105.66016 69.410156 C 105.74066 69.423076 105.91547 69.727415 106.01758 69.734375 C 106.22181 69.748305 106.39824 69.458984 106.69141 69.458984 C 108.16511 69.458984 110.15493 69.922338 116.4375 71.794922 C 118.02302 72.267501 119.76187 72.869727 119.83984 73.144531 C 120.84229 72.871829 121.638 73.69867 122.25781 73.902344 C 122.87762 74.106018 123.80571 74.08094 124.18945 74.232422 C 124.5732 74.383904 124.87921 74.523604 125.19141 74.677734 L 125.19141 74.90625 L 125.19141 75.134765 L 125.19141 75.363281 L 125.19141 75.591797 C 124.80108 75.417767 124.35501 75.240513 123.83789 75.052734 C 123.32077 74.864956 122.73353 74.667622 122.0625 74.451172 C 121.39146 74.234722 120.63726 74.00028 119.78516 73.740234 C 118.93307 73.480187 117.98215 73.193567 116.92187 72.875 C 111.32277 71.19271 108.29081 70.335183 106.45117 70.363281 C 105.53135 70.377331 104.81616 70.683335 104.44531 71.287109 C 104.07446 71.890883 104.0332 72.632895 104.0332 73.541015 C 104.0332 75.033318 104.15367 75.574023 104.75391 76.792969 C 106.4046 80.145106 109.54326 82.318059 114.24219 83.457031 C 115.02838 83.647595 116.00971 83.89084 116.41016 83.99414 L 116.77344 84.08789 L 116.76562 86.410156 C 116.75662 88.622034 116.85263 89.565501 117.24219 91.052734 C 117.25989 91.120274 117.25118 91.109874 117.26758 91.173828 C 117.074 90.764808 116.87803 90.32105 116.70508 89.814453 C 116.28668 88.588935 115.98633 87.195856 115.98633 86.328125 C 115.98633 86.032224 115.96573 85.766092 115.92773 85.544922 C 115.90873 85.434337 115.8896 85.337274 115.8457 85.228515 C 115.8237 85.174135 115.7989 85.114477 115.73437 85.037109 C 115.66987 84.959739 115.52465 84.83789 115.31445 84.83789 C 115.10808 84.83789 115.04769 84.89659 114.97656 84.9375 C 114.90546 84.97841 114.84294 85.023169 114.77734 85.074218 C 114.64613 85.176324 114.50105 85.305771 114.33594 85.46289 C 114.0057 85.777129 113.60297 86.197811 113.18359 86.658203 C 112.34484 87.578989 111.457 88.637886 111.00586 89.335937 C 109.46275 91.723605 108.25126 95.548805 107.9375 98.835937 C 107.9063 98.519244 107.85171 98.366725 107.83594 97.990234 C 107.64899 93.527161 109.7611 87.441412 112.37305 86.023437 C 114.985 84.605462 113.87109 84.384765 113.87109 84.384765 L 111.85547 83.68164 C 111.49293 83.555115 111.14459 83.440101 110.86914 83.355468 C 110.73141 83.313148 110.61315 83.277739 110.51562 83.251953 C 110.41812 83.226163 110.41623 83.199218 110.2168 83.199218 C 110.1836 83.199218 110.1531 83.201978 110.125 83.205078 L 107.4082 81.435547 L 107.40625 81.433593 C 106.42129 80.597633 105.28306 79.407132 104.73633 78.613281 C 103.65017 77.036232 103.10158 75.22937 103.08594 73.597656 C 102.05721 74.449435 100.32665 75.07375 98.722656 75.011719 L 98.470703 74.86914 C 98.922753 75.009499 102.92964 73.71686 103.08594 73.509765 L 103.08594 73.507812 L 103.08594 73.490234 L 103.08789 73.490234 C 103.09409 72.251806 103.40827 71.119134 104.03125 70.273437 C 104.17978 70.071799 104.19681 69.879921 104.20508 69.671875 C 104.21308 69.46383 104.19706 69.222431 104.16016 68.908203 C 104.08566 68.279749 103.92377 67.36178 103.6582 65.990234 L 103.36133 64.457031 L 104.19727 64.208984 z M 112.43164 66.65625 C 112.99802 66.655943 113.58141 66.696934 114.18164 66.78125 L 107.79102 67.800781 C 109.18551 67.038263 110.7325 66.65717 112.43164 66.65625 z M 118.75781 66.86914 L 124.64844 69.408203 C 122.4698 68.896614 120.50563 68.0509 118.75781 66.86914 z M 100.50586 67.34375 L 100.50586 67.419922 C 99.775567 67.837434 98.841911 68.190363 97.703125 68.259765 L 97.523437 68.158203 C 97.83 68.168333 100.5761 67.290806 100.50586 67.34375 z M 94.484375 68.300781 C 94.565545 69.206227 94.727086 70.10262 94.992187 71.166015 C 96.147153 75.798948 98.185732 81.587858 99.818359 83.826172 C 100.55952 85.088054 101.02061 85.913771 102.03906 86.472656 C 102.59498 86.777716 103.30558 86.835758 104.05469 86.785156 C 104.80379 86.734556 105.5834 86.555635 106.22461 86.228515 C 107.10054 85.781646 107.9083 84.923339 108.43555 83.945312 L 109.2168 84.455078 C 108.99344 84.896317 108.54235 85.47553 108.00391 85.982422 C 107.37214 86.577185 106.61553 87.090212 106.04102 87.300781 C 104.881 87.725954 102.99546 87.795743 102.20312 87.519531 C 102.05068 87.466391 101.90511 87.417406 101.72852 87.40039 C 101.5969 87.3877 101.44865 87.402489 101.31055 87.443359 L 100.01172 86.193359 C 99.988748 86.153309 99.96381 86.111799 99.9375 86.068359 C 99.798128 85.838282 99.232005 85.839559 99.027343 85.554687 C 98.677555 85.067801 98.365606 83.554506 97.941406 82.642578 C 96.364056 79.251634 93.976827 71.48448 93.574218 68.544922 L 94.484375 68.300781 z M 102.10352 69.474609 C 101.37324 69.892121 99.25402 70.748957 98.115234 70.818359 L 97.9375 70.716797 C 98.244063 70.726927 100.99016 69.8494 100.91992 69.902344 L 102.10352 69.474609 z M 102.25977 71.162109 L 102.26172 71.162109 L 102.26172 71.164062 L 102.26367 71.166015 L 102.26367 71.167969 L 102.26367 71.169922 L 102.26367 71.171875 L 102.26367 71.173828 C 102.26329 71.17474 102.26229 71.176775 102.26172 71.177734 L 102.25977 71.179687 L 102.25977 71.269531 C 101.32222 71.893546 100.01491 72.264556 98.310547 72.453125 L 98.058593 72.310547 C 98.509443 72.450533 102.11378 71.375259 102.25977 71.179687 L 102.25977 71.162109 z M 107.07812 71.375 C 108.91884 71.289389 112.15314 72.638703 114.08789 73.222656 C 113.70498 73.475968 113.3276 73.776608 112.96875 74.117187 C 112.60989 74.457766 112.21004 74.798977 111.95508 75.25 C 111.69882 75.703336 111.48051 76.231446 110.98047 76.519531 C 111.1086 77.058847 110.64532 77.531884 110.48242 78.039062 C 107.80837 76.839644 105.51434 74.938167 105.68359 72.58789 C 105.69198 71.75 106.24144 71.413914 107.07812 71.375 z M 115.5293 74.802734 L 115.59961 74.890625 C 115.1426 76.037829 114.39291 77.299033 113.14844 78.419922 L 112.84961 78.466797 C 113.21096 78.198149 115.56157 74.67771 115.5293 74.802734 z M 92.849609 74.878906 L 92.849609 74.955078 C 92.119327 75.37259 91.183708 75.727473 90.044922 75.796875 L 89.867187 75.695312 C 90.17375 75.705442 92.919848 74.825962 92.849609 74.878906 z M 94.601562 78.697265 L 94.603515 78.699218 L 94.605468 78.701172 L 94.605468 78.703125 L 94.607422 78.705078 L 94.607422 78.707031 L 94.605468 78.708984 L 94.605468 78.710937 L 94.603515 78.71289 L 94.603515 78.714843 L 94.601562 78.716797 L 94.601562 78.804687 C 93.572867 79.656568 92.256467 80.05227 90.652343 79.990234 L 90.402343 79.845703 C 90.853192 79.985689 94.455574 78.912371 94.601562 78.716797 L 94.601562 78.697265 z M 106.69922 83.572265 C 107.90931 83.944602 107.73153 84.621899 106.16602 85.603515 C 104.45665 86.16202 103.358 85.941898 102.86719 84.943359 C 104.65272 84.587946 105.92916 84.13077 106.69922 83.572265 z M 125.36523 83.816406 L 125.36719 83.816406 L 125.36719 83.818359 L 125.36914 83.818359 L 125.36914 83.820312 L 125.36914 83.822265 L 125.36914 83.824218 L 125.36914 83.826172 L 125.36914 83.828125 L 125.36719 83.830078 L 125.36719 83.832031 L 125.36523 83.833984 L 125.36523 83.921875 C 124.33653 84.773756 123.02014 85.169458 121.41602 85.107422 L 121.16406 84.96289 C 121.61491 85.102876 125.21925 84.029556 125.36523 83.833984 L 125.36523 83.816406 z M 98.376953 85.841797 C 99.047124 86.200818 99.047125 86.847795 98.376953 87.78125 C 96.750724 88.4169 95.396357 88.12805 94.314453 86.917968 C 95.72168 86.698495 97.153897 86.544721 98.376953 85.841797 z " /></g></svg>
