<?xml version="1.0" encoding="UTF-8" standalone="no"?>
<svg
   version="1.2"
   viewBox="0 0 219.2126 219.2126"
   width="58mm"
   height="58mm"
   id="svg1"
   sodipodi:docname="PevecRoleTokenLaser.svg"
   inkscape:version="1.4.2 (f4327f4, 2025-05-13)"
   xml:space="preserve"
   xmlns:inkscape="http://www.inkscape.org/namespaces/inkscape"
   xmlns:sodipodi="http://sodipodi.sourceforge.net/DTD/sodipodi-0.dtd"
   xmlns="http://www.w3.org/2000/svg"
   xmlns:svg="http://www.w3.org/2000/svg"><sodipodi:namedview
     id="namedview1"
     pagecolor="#ffffff"
     bordercolor="#666666"
     borderopacity="1.0"
     inkscape:showpageshadow="2"
     inkscape:pageopacity="0.0"
     inkscape:pagecheckerboard="0"
     inkscape:deskcolor="#d1d1d1"
     inkscape:zoom="13.926771"
     inkscape:cx="136.32018"
     inkscape:cy="61.069431"
     inkscape:window-width="1920"
     inkscape:window-height="1057"
     inkscape:window-x="-8"
     inkscape:window-y="-8"
     inkscape:window-maximized="1"
     inkscape:current-layer="layer2"
     inkscape:document-units="mm"
     showgrid="false" /><defs
     id="defs1"><clipPath
       clipPathUnits="userSpaceOnUse"
       id="cp1"><path
         d="m 275.5,535.5 c -143.78,0 -260,-116.22 -260,-260 0,-143.78 116.22,-260 260,-260 143.78,0 260,116.22 260,260 0,143.78 -116.22,260 -260,260 z"
         id="path1" /></clipPath></defs><style
     id="style1">
		tspan { white-space:pre } 
		.s0 { fill: none;stroke: #ff0000;stroke-miterlimit:100 } 
	</style><g
     inkscape:groupmode="layer"
     id="layer2"
     inkscape:label="Content"><g
       inkscape:groupmode="layer"
       id="layer4"
       inkscape:label="Kruh"
       style="display:inline"><path
         id="path2"
         style="fill:none;stroke:#000000;stroke-width:0.189192"
         d="M 219.118,109.6063 A 109.5117,109.5117 0 0 1 109.6063,219.118 109.5117,109.5117 0 0 1 0.09459686,109.6063 109.5117,109.5117 0 0 1 109.6063,0.09459686 109.5117,109.5117 0 0 1 219.118,109.6063 Z"
         inkscape:label="Vnejsi kruh" /><path
         id="circle2"
         style="fill:none;stroke:#000000;stroke-width:0.188976"
         d="M 208.69732,109.6063 A 99.091019,99.091019 0 0 1 109.6063,208.69732 99.091019,99.091019 0 0 1 10.515282,109.6063 99.091019,99.091019 0 0 1 109.6063,10.515282 99.091019,99.091019 0 0 1 208.69732,109.6063 Z"
         inkscape:label="Vnitrni kruh" /></g><path
       id="path3"
       style="font-size:41.5223px;font-family:'New Rocker';-inkscape-font-specification:'New Rocker';letter-spacing:0.769167px;baseline-shift:baseline;white-space:pre;display:inline;overflow:visible;opacity:1;enable-background:accumulate;stop-color:#000000;stop-opacity:1;fill:none;stroke:#000000;stroke-opacity:1;stroke-width:0.18897638;stroke-dasharray:none"
       d="m 98.136575,133.56807 -0.890625,0.70508 c -0.654048,0.51779 -1.365775,1.06339 -2.132812,1.63867 l 0.0078,-0.004 c -0.480701,0.35607 -0.929542,0.68294 -1.386719,1.01562 -0.473478,-0.33153 -0.940561,-0.65688 -1.4375,-1.01172 -0.761004,-0.57075 -1.452312,-1.11057 -2.070312,-1.62109 l -0.863281,-0.71485 -0.845703,0.73829 c -0.454621,0.39779 -0.800219,0.71428 -1.060547,0.97461 -0.149328,0.14933 -0.440341,0.416 -0.84375,0.76562 l -1.072266,0.92773 0.359375,0.35938 -1.912109,0.27148 c -0.361377,0.0517 -0.706301,0.09 -1.035157,0.11524 -0.323756,0.0249 -0.663397,0.0391 -1.019531,0.0391 -1.126193,0 -2.334097,-0.11783 -3.61914,-0.35351 h -0.002 -0.002 -0.002 c -1.311845,-0.26851 -2.55463,-0.5762 -3.724609,-0.92188 -1.175097,-0.34719 -2.190816,-0.70361 -3.042969,-1.06445 l -0.0059,-0.004 h -0.002 l -0.002,-0.002 h -0.002 -0.002 c -0.829036,-0.3643 -1.386916,-0.69796 -1.464843,-0.76172 l -0.710938,-0.58203 -0.792969,0.46484 c -1.54037,0.90298 -2.878431,1.50559 -3.974609,1.82227 l -0.0039,0.002 h -0.0039 c -1.095523,0.32368 -2.22495,0.48633 -3.404297,0.48633 -0.668957,0 -1.369507,-0.0387 -2.101563,-0.11719 -0.754117,-0.0808 -1.596271,-0.18982 -2.523437,-0.32617 l -1.669922,-0.24609 0.164063,1.68164 c 0.156961,1.60099 0.646155,2.98986 1.574218,4.02929 0.614593,0.68834 1.373692,1.1869 2.1875,1.58008 0.0023,0.10788 0.01172,0.21635 0.01172,0.32422 v 0.0469 l 0.002,0.0469 c 0.02545,0.35636 0.03906,0.71223 0.03906,1.06836 0,1.35484 -0.131171,2.70904 -0.392578,4.06836 l -0.002,0.01 v 0.01 c -0.217747,1.2339 -0.668117,2.33218 -1.365234,3.3418 l -0.609375,0.88476 0.740234,0.77735 c 0.357346,0.37436 0.734786,1.07195 1.003907,2.14843 l 0.0039,0.0137 0.002,0.0137 c 0.298119,1.0931 0.453125,2.28941 0.453125,3.59765 0,1.14725 -0.127344,2.2608 -0.380859,3.35157 v 0.002 c -0.246694,1.03304 -0.604943,1.85724 -1.046875,2.49805 l -0.855469,1.24023 1.341797,0.68555 c 1.134772,0.57999 2.19675,1.32419 3.193359,2.24414 l 0.0059,0.006 0.0059,0.006 c 0.986666,0.88799 1.640671,1.80147 2.025391,2.75195 l 1.044922,2.58008 1.335938,-2.44141 c 0.613728,-1.12072 1.235669,-2.11043 1.861328,-2.9707 0.551993,-0.75899 1.360853,-1.52117 2.453125,-2.25781 l 1.679687,-1.13282 -1.714844,-1.07812 c -0.713466,-0.44846 -1.278597,-1.12687 -1.720703,-2.16797 -0.429871,-1.0794 -0.652343,-2.24317 -0.652343,-3.52539 v -0.33594 c 1.185623,0.0308 2.384589,0.0603 3.423828,0.11914 1.205581,0.067 2.204813,0.29779 3.130859,0.58203 l 0.642578,1.42774 1.341797,-1.78906 c 0.389557,-0.51942 0.774957,-0.98018 1.152344,-1.38282 0.384397,-0.40842 0.786767,-0.76201 1.208984,-1.06836 0.439681,-0.2995 0.947443,-0.57429 1.533203,-0.81836 l 0.02149,-0.008 0.02148,-0.01 c 0.586326,-0.26873 1.299123,-0.52529 2.132812,-0.75977 l 1.53711,-0.43359 -0.708985,-1.41797 h 1.785157 c 0.02266,0.12538 0.04566,0.25379 0.06836,0.38672 l 0.0039,0.0195 0.002,0.0176 c 0.196148,0.98074 0.306641,2.30467 0.306641,3.93554 0,0.6277 -0.02644,1.33154 -0.08008,2.10938 v 0.0234 l -0.002,0.0215 c -0.0261,0.75681 -0.09143,1.49938 -0.195313,2.22656 l -0.002,0.0195 -0.002,0.0215 c -0.07688,0.69193 -0.192084,1.33749 -0.341797,1.9375 v 0.002 l -0.002,0.002 v 0.002 c -0.144039,0.54646 -0.308632,0.93585 -0.423828,1.12304 l -1.238281,2.01172 h 2.361328 c 0.376063,0 0.93314,0.0567 1.628906,0.18555 h 0.0039 0.0039 c 0.717802,0.12818 1.454982,0.30897 2.208984,0.54297 l 0.02539,0.008 0.02539,0.008 c 0.770476,0.20546 1.512694,0.4608 2.228516,0.76758 0.703617,0.30155 1.265835,0.61899 1.6875,0.92969 l 0.349609,0.25781 h 0.857422 l 0.34375,-0.24609 c 0.274048,-0.19575 0.70876,-0.43636 1.273438,-0.6836 0.626126,-0.23386 1.277371,-0.45628 1.958984,-0.66601 l 0.02344,-0.006 0.02149,-0.008 c 0.662604,-0.22937 1.320937,-0.40713 1.976562,-0.53321 l 0.02344,-0.004 0.02344,-0.006 c 0.682432,-0.15745 1.259232,-0.25711 1.710932,-0.30469 l 1.68555,-0.17773 -0.58594,-1.5918 c -0.16169,-0.43888 -0.27233,-0.87022 -0.34179,-1.29688 -0.0463,-0.47951 -0.0762,-1.16977 -0.0762,-2.0664 v -0.084 h 3.77149 c -0.006,0.24109 -0.0178,0.49199 -0.0332,0.75391 l -0.002,0.0371 v 0.0391 c 0,0.41543 -0.0131,0.83052 -0.0391,1.2461 -0.0272,0.40771 -0.0552,0.77364 -0.082,1.0957 l -0.0937,1.1289 1.10351,0.26368 c 1.19665,0.28615 2.35147,0.67428 3.46875,1.16797 1.12622,0.49762 2.04313,1.01297 2.74805,1.52343 l 0.34766,0.25196 h 1.29297 l 5.82617,-4.51172 0.98242,-2.9961 h 4.51758 c -0.0765,0.65323 -0.18585,1.26375 -0.32813,1.83399 l -0.002,0.002 v 0.002 0.002 c -0.14405,0.54648 -0.31058,0.93584 -0.42578,1.12304 l -1.23633,2.01172 h 2.36133 c 0.37606,0 0.93314,0.0567 1.6289,0.18555 h 0.004 0.004 c 0.7178,0.12818 1.45302,0.30897 2.20703,0.54297 l 0.0254,0.008 0.0254,0.008 c 0.77047,0.20546 1.5127,0.4608 2.22851,0.76758 l 0.002,0.002 h 0.002 l 0.002,0.002 h 0.002 0.002 l 2.56445,1.14844 2.42774,-1.06055 c 0.48045,-0.1711 0.95898,-0.34255 1.4707,-0.5 l 0.0215,-0.006 0.0215,-0.008 c 0.6626,-0.22937 1.32094,-0.40713 1.97656,-0.53321 l 0.0254,-0.004 0.0234,-0.006 c 0.68243,-0.15745 1.25728,-0.25711 1.70898,-0.30469 l 1.6875,-0.17773 -0.0234,-0.0645 h 1.91601 c 0.74246,0 1.60174,0.0754 2.57032,0.23242 0.98805,0.16023 1.96161,0.35954 2.92187,0.59961 h 0.004 l 0.004,0.002 c 0.9765,0.23752 1.86529,0.49946 2.66797,0.7832 0.80652,0.31269 1.42334,0.60669 1.81445,0.8457 l 0.31641,0.19336 h 0.9707 l 0.39454,-0.44922 c 0.0664,-0.0759 0.26851,-0.25286 0.57617,-0.45312 0.36988,-0.22114 0.76634,-0.43382 1.19336,-0.63477 l 0.0137,-0.006 0.0137,-0.008 c 0.4458,-0.2229 0.88659,-0.40555 1.32227,-0.55078 l 0.0195,-0.006 0.0195,-0.008 c 0.47057,-0.17337 0.88706,-0.2912 1.24023,-0.35742 l 1.43555,-0.26758 -0.41211,-1.40039 c -0.11752,-0.39958 -0.23134,-0.90201 -0.33398,-1.48633 -0.0696,-0.54384 -0.11133,-1.32973 -0.11133,-2.33594 v -1.41211 c 0,-0.35613 0.0153,-0.62252 0.0312,-0.75 l 0.24804,-1.98047 -1.91992,0.54883 c -1.36349,0.38957 -2.54824,1.09145 -3.44336,2.08985 l -0.002,0.002 c -0.55743,0.62433 -0.93069,1.36386 -1.2168,2.14258 -0.45626,-0.0665 -0.86895,-0.10141 -1.40039,-0.22266 l -0.008,-0.002 c -0.50506,-0.11905 -0.81425,-0.24136 -1.20117,-0.36328 0.0696,-0.61237 0.15386,-1.19293 0.18945,-1.88282 4e-5,-5e-4 4e-5,-0.003 0,-0.004 v -0.002 c 2.3e-4,-9.1e-4 0.002,-0.005 0.002,-0.006 0.0834,-1.1211 0.125,-2.15565 0.125,-3.09961 0,-1.08663 -0.0429,-2.16021 -0.1289,-3.22071 -0.006,-0.10681 -0.0228,-0.2135 -0.0293,-0.32031 0.15424,0.0871 0.29289,0.24215 0.44922,0.32031 0.99894,0.49947 1.93228,0.80469 2.875,0.80469 1.25796,0 2.48506,-0.43152 3.57813,-1.19336 l 0.002,-0.002 0.004,-0.004 c 1.11466,-0.78681 2.00403,-1.82834 2.6211,-3.0625 l 0.78906,-1.58008 -1.74023,-0.31054 c -1.16937,-0.20789 -2.32603,-0.51983 -3.47461,-0.9375 -1.14329,-0.41574 -2.12204,-0.88803 -2.93946,-1.40821 l -0.61328,-0.38867 -0.65625,0.3086 c -1.20308,0.5647 -7.23767,2.51975 -8.66601,2.75781 l -1.49805,0.25 0.45508,1.44726 c 0.2699,0.85879 0.47982,1.92511 0.61133,3.1875 l 0.002,0.0156 0.002,0.0156 c 0.15805,1.23806 0.23828,2.58143 0.23828,4.02735 0,0.88681 -0.0266,1.74418 -0.0801,2.57226 -0.005,0.0836 -0.0116,0.16567 -0.0176,0.24805 h -2.68555 l 0.1582,-1.89648 -1.85156,0.55078 c -1.43322,0.42692 -2.57677,0.98444 -3.38281,1.87109 l -0.0117,0.0137 -0.01,0.0117 c -0.40362,0.46735 -0.53293,1.09634 -0.76171,1.67188 -0.17121,-0.0157 -0.29714,-0.0237 -0.49024,-0.043 -0.52554,-0.0787 -1.06339,-0.15569 -1.61328,-0.23438 l -0.0176,-0.004 c -0.56143,-0.10705 -1.09672,-0.21373 -1.60351,-0.32032 l -0.008,-0.002 c -0.002,-5.2e-4 -0.005,-9.5e-4 -0.008,-0.002 -0.0406,-0.009 -0.0548,-0.02 -0.0937,-0.0293 0.0326,-0.31861 0.0589,-0.5855 0.0977,-0.94727 0.0477,-0.44482 0.0636,-0.90274 0.0937,-1.35546 1.32431,-0.20966 2.65521,-0.41486 4.0332,-0.58985 h 0.01 l 0.01,-0.002 c 1.71878,-0.24554 3.40913,-0.4361 5.07031,-0.57227 l 1.74219,-0.14257 -0.61523,-1.63672 c -0.13858,-0.36955 -0.27585,-0.84109 -0.4043,-1.40625 -0.12806,-0.56349 -0.23254,-1.15719 -0.31055,-1.78125 -0.0807,-0.64513 -0.1474,-1.29066 -0.20117,-1.93555 v -0.004 c -0.0528,-0.66108 -0.0781,-1.26251 -0.0781,-1.80078 0,-0.69852 0.04,-1.25963 0.10547,-1.65234 l 0.24804,-1.48438 -1.5039,-0.0508 c -1.60402,-0.0544 -3.22311,-0.14947 -4.85547,-0.28515 -0.009,-8.6e-4 -0.0129,-9.6e-4 -0.0215,-0.002 -1.62134,-0.16269 -2.97939,-0.35149 -4.05078,-0.56054 l -0.68945,-0.13477 -0.49609,0.49609 c -0.91108,0.91108 -1.82246,1.65285 -2.72657,2.23047 l -0.006,0.004 -0.008,0.004 c -0.82023,0.53901 -1.72586,0.90212 -2.75586,1.09375 l -1.44922,0.26953 0.42969,1.41211 c 0.16585,0.54493 0.35459,1.39078 0.54297,2.49414 l 0.002,0.0195 0.004,0.0176 c 0.19614,0.98074 0.30664,2.30467 0.30664,3.93554 0,0.62772 -0.0265,1.33153 -0.0801,2.10938 l -0.002,0.0234 v 0.0215 c -0.007,0.20976 -0.018,0.41745 -0.0312,0.625 h -4.12696 l 2.8418,-8.67383 -0.5332,-0.57031 c -0.15083,-0.1616 -0.31939,-0.47793 -0.4043,-1.07227 -0.10108,-0.73554 -0.15431,-1.51763 -0.1543,-2.3457 v -0.13867 l 1.91993,-2.87695 -3.54297,1.08984 c -1.03202,0.31754 -2.07842,0.58271 -3.13672,0.79492 -1.06162,0.18528 -2.10808,0.31721 -3.13867,0.39649 l -1.14453,0.0879 -0.16797,2.70507 0.81054,0.38086 c 0.15935,0.075 0.25074,0.14833 0.375,0.45899 l 0.01,0.0254 0.0117,0.0254 c 0.11401,0.25337 0.25781,0.9429 0.25781,1.95117 0,0.74208 -0.0509,1.64095 -0.1582,2.6875 -0.10619,1.00817 -0.26661,2.04596 -0.48047,3.11524 l -0.004,0.0156 -0.002,0.0156 c -0.18544,1.05969 -0.42362,2.07584 -0.71289,3.04882 l -0.002,0.0117 -0.004,0.0117 c -0.12798,0.46074 -0.28922,0.73067 -0.43555,1.0957 l -0.27734,-0.15039 c 0.009,-0.3515 0.0234,-0.71334 0.0234,-1.04882 v -1.78516 c 0,-3.02738 -0.14047,-5.67735 -0.42578,-7.96289 -0.26146,-2.31835 -0.7049,-4.0747 -1.58985,-5.36524 l -0.80469,-1.17187 -1.10937,0.88672 c -0.12852,0.10281 -0.46623,0.30581 -0.95117,0.52539 -0.51425,0.20475 -1.08289,0.41228 -1.70899,0.62109 l -0.002,0.002 h -0.002 -0.002 c -0.59492,0.18046 -1.20255,0.34798 -1.82422,0.5039 -0.6264,0.12996 -1.15668,0.22136 -1.5664,0.26953 l -1.16406,0.13672 v 2.95313 l 1.55273,0.32031 c 0.37339,0.72544 0.75182,1.65383 1.04883,3.07031 l 0.002,0.01 0.002,0.01 c 0.35085,1.55378 0.54236,3.54057 0.54883,5.93555 h -3.77929 l 0.1582,-1.89648 -1.85156,0.55078 c -1.43322,0.42692 -2.574815,0.98444 -3.38086,1.87109 l -0.01172,0.0137 -0.01172,0.0117 c -0.40362,0.46735 -0.532941,1.09634 -0.761719,1.67188 -0.17082,-0.0156 -0.295676,-0.0238 -0.488281,-0.043 -0.525577,-0.0788 -1.065307,-0.15569 -1.615235,-0.23438 l -0.01758,-0.004 c -0.562074,-0.10718 -1.096198,-0.21361 -1.603515,-0.32032 l -0.01367,-0.004 c -0.04148,-0.009 -0.05595,-0.0199 -0.0957,-0.0293 0.03262,-0.31861 0.0589,-0.5855 0.09766,-0.94727 0.04766,-0.44481 0.06365,-0.90275 0.09375,-1.35546 1.32431,-0.20966 2.655205,-0.41486 4.033203,-0.58985 h 0.0098 l 0.0098,-0.002 c 1.718774,-0.24554 3.409133,-0.4361 5.07031,-0.57227 l 1.74219,-0.14257 -0.61328,-1.63672 c -0.13859,-0.36956 -0.2778,-0.84108 -0.40625,-1.40625 -0.12807,-0.56348 -0.23059,-1.1572 -0.3086,-1.78125 -0.0806,-0.64521 -0.14929,-1.29058 -0.20312,-1.93555 v -0.004 c -0.0528,-0.66108 -0.0781,-1.26251 -0.0781,-1.80078 0,-0.69851 0.042,-1.25963 0.10742,-1.65234 l 0.2461,-1.48438 -1.50391,-0.0508 c -1.603376,-0.0543 -3.221811,-0.14956 -4.853511,-0.28515 h -0.002 l -0.002,-0.002 h -0.002 -0.002 c -0.4636,-0.0464 -0.906127,-0.0942 -1.326171,-0.14453 v -1.77148 l 0.210937,-0.22266 c 1.823527,-1.93404 3.21645,-3.42403 4.191406,-4.48242 l 0.01172,-0.0137 c 0.987906,-1.04283 1.679403,-1.77453 2.070313,-2.19336 l 0.97265,-1.04297 -1.11328,-0.88867 c -0.39288,-0.31431 -0.68258,-0.5693 -0.845697,-0.73242 -0.240888,-0.24088 -0.566952,-0.55207 -0.988283,-0.94532 z m -11.933594,4.07617 0.339844,0.33985 c 0.955522,0.95552 1.954243,1.99699 2.996094,3.12109 l 0.01172,0.0117 0.01172,0.0117 c 1.056456,1.08355 2.102096,2.23609 3.134766,3.45898 l 0.01367,0.0156 v 1.79297 c -0.355521,-0.0565 -0.687512,-0.11557 -0.996094,-0.17578 l -0.6875,-0.13477 -0.498047,0.49609 c -0.911081,0.91108 -1.820504,1.65285 -2.724609,2.23047 l -0.0078,0.004 -0.0059,0.004 c -0.820236,0.53901 -1.725857,0.90212 -2.755859,1.09375 l -1.451172,0.26953 0.429687,1.41211 c 0.03314,0.10889 0.06678,0.2307 0.101563,0.36328 h -2.146485 c -0.08253,-0.25023 -0.150497,-0.4893 -0.203125,-0.71485 -0.162801,-0.69772 -0.257812,-1.60211 -0.257812,-2.6914 0,-0.75863 0.02636,-1.54744 0.07813,-2.36328 v -0.006 c 0.06516,-0.67234 0.161204,-1.36087 0.261719,-2.05274 0.318187,-0.23917 0.648509,-0.46101 0.935547,-0.74804 0.437378,-0.43738 0.817886,-0.89969 1.144531,-1.38672 0.329722,-0.45215 0.622618,-0.90911 0.871094,-1.375 0.230767,-0.43269 0.423506,-0.81413 0.578125,-1.1543 z m -19.005859,5.44922 c 0.118967,0.0382 0.250173,0.0704 0.367188,0.10938 l 0.0293,0.01 0.03125,0.01 c 0.676325,0.18937 1.352459,0.39279 2.029296,0.60937 l 0.0293,0.008 0.03125,0.01 c 0.72792,0.19598 1.48142,0.39037 2.263672,0.58594 0.473127,0.11828 1.002377,0.22054 1.511719,0.32812 0.0078,0.38674 0.02148,0.72056 0.02148,1.17383 v 0.0215 l 0.08399,2.51367 c 0.02726,0.81776 0.04101,1.57845 0.04101,2.28125 v 0.0254 l 0.002,0.0254 c 0.01734,0.45086 0.03505,0.72856 0.05274,1.05664 -0.0979,0.0941 -0.209869,0.16149 -0.304688,0.26563 -0.04738,0.0479 -0.07018,0.11401 -0.115234,0.16406 -0.06978,-0.019 -0.120487,-0.0579 -0.193359,-0.0762 h -0.002 c -0.492105,-0.13 -1.029728,-0.21926 -1.621093,-0.2793 -0.58236,-0.0858 -1.185366,-0.14264 -1.8125,-0.17188 -0.631826,-0.0564 -1.241804,-0.0879 -1.828125,-0.0879 -0.208586,0 -0.405104,0.0168 -0.607422,0.0254 -0.0087,-0.57967 -0.02344,-1.16565 -0.02344,-1.73632 v -3.32032 -2.61718 c 0,-0.30628 0.01031,-0.6238 0.01367,-0.9336 z m 25.167969,9.82813 c 0.274187,0.0526 0.521191,0.12953 0.804687,0.17383 l 0.02149,0.004 0.02344,0.004 c 0.476439,0.0577 0.831831,0.0584 1.246094,0.0879 0.02182,0.27055 0.01833,0.54785 0.05469,0.81445 l 0.0039,0.0293 0.0039,0.0273 c 0.0338,0.1859 0.07885,0.35367 0.115234,0.53516 l -2.089843,0.51758 c -0.02345,-0.31098 -0.03174,-0.58592 -0.0625,-0.91407 -0.02378,-0.3747 -0.0835,-0.86166 -0.121094,-1.27929 z m 41.232419,0 c 0.27419,0.0526 0.52119,0.12953 0.80469,0.17383 l 0.0234,0.004 0.0215,0.004 c 0.47644,0.0577 0.83183,0.0584 1.24609,0.0879 0.0218,0.27055 0.0183,0.54785 0.0547,0.81445 l 0.004,0.0293 0.006,0.0273 c 0.0338,0.1859 0.0789,0.35367 0.11523,0.53516 l -2.0918,0.51758 c -0.0224,-0.29701 -0.0295,-0.56038 -0.0586,-0.87305 -0.0241,-0.38534 -0.0862,-0.88926 -0.125,-1.32031 z m 9.63672,9.66601 h 2.54687 c -0.0136,0.10039 -0.0285,0.19877 -0.043,0.29688 -0.10337,0.67197 -0.22899,1.25224 -0.37304,1.73242 l -0.01,0.0293 -0.008,0.0293 c -0.11581,0.46325 -0.25744,0.74947 -0.29883,0.8086 l -1.04883,1.5 -0.34961,-0.94922 c -0.16169,-0.43889 -0.27232,-0.87021 -0.34179,-1.29688 -0.0462,-0.47959 -0.0742,-1.16974 -0.0742,-2.0664 z"
       inkscape:label="text" /><path
       id="path4"
       style="baseline-shift:baseline;display:inline;overflow:visible;opacity:1;fill:none;stroke:#000000;stroke-width:0.188976;stroke-dasharray:none;stroke-opacity:1;enable-background:accumulate;stop-color:#000000;stop-opacity:1"
       d="m 93.4375,27.751953 c -0.326419,0.0054 -0.653246,0.0244 -0.978516,0.05664 -0.867387,0.08598 -1.723059,0.26608 -2.53125,0.533203 -1.61638,0.534246 -3.069383,1.443187 -3.980469,2.787109 -0.911087,1.343922 -1.207098,3.124715 -0.585937,5.083985 0.451047,1.422694 1.273569,2.430402 2.292969,2.96289 1.0194,0.532488 2.180577,0.583344 3.263671,0.318359 1.618204,-0.395903 2.945179,-1.598392 3.886719,-3.066406 0.648012,3.126212 0.117562,6.135989 -1.05664,9.146485 -1.355908,3.476364 -3.475168,6.908915 -5.166016,10.347656 -5.326332,10.832371 -10.76792,22.687296 -7.230469,35.27539 l 0.166016,0.595703 h 0.851562 c 2.280302,7.543961 6.754018,14.346282 14.828125,17.003902 2.152715,0.70857 4.315975,1.04203 6.480465,1.22266 -0.64955,0.45168 -0.90164,1.08959 -1.09765,1.50781 -0.1988,0.42419 -0.30255,0.60264 -0.53125,0.70508 -1.20424,0.53936 -1.92215,0.48701 -2.816408,0.83789 -0.44713,0.17545 -0.902652,0.49599 -1.263672,0.97461 -0.36102,0.47862 -0.657686,1.09565 -0.972657,1.96875 l -0.28125,0.7832 0.78711,0.26954 c 8.616807,2.94074 19.353417,3.45255 27.812497,-0.67579 0.91702,-0.44754 2.6303,-1.1125 4.19532,-1.98242 1.56502,-0.86992 3.11239,-1.92517 3.49023,-3.58984 0.26289,-1.15824 0.10582,-2.16689 -0.58008,-2.73828 -0.6859,-0.5714 -1.53647,-0.55131 -2.32031,-0.42969 -1.30085,0.20184 -2.4355,0.75581 -3.21875,1.09375 -0.26162,-0.54646 -0.50392,-1.13666 -0.85352,-1.47461 -0.35714,-0.34524 -0.80622,-0.41699 -1.23828,-0.5293 5.78773,-2.67095 10.3695,-7.306966 12.27344,-13.654293 1.04396,-3.480324 0.8499,-6.944728 1.80078,-9.992187 l 0.12695,-0.402344 -0.25586,-0.335938 c -0.63271,-0.835158 -0.90594,-2.30771 -1.07031,-3.947265 -0.16437,-1.639555 -0.23249,-3.409139 -0.81054,-4.916016 -3.21384,-8.377717 -7.56689,-16.134464 -10.67383,-24.373047 -0.57388,-1.521746 -1.628,-3.449985 -2.21094,-5.296875 -0.29147,-0.923445 -0.45945,-1.813373 -0.42188,-2.572265 0.004,-0.07222 0.0654,-0.112018 0.0723,-0.181641 0.29153,0.475729 0.6273,0.904658 1.04883,1.199219 0.97051,0.678194 2.16273,0.85114 3.25976,0.630859 1.09704,-0.22028 2.13067,-0.8364 2.78711,-1.818359 0.65644,-0.981959 0.8851,-2.325262 0.44532,-3.785156 -0.63396,-2.104434 -1.91169,-3.510419 -3.45704,-4.185547 -1.54536,-0.675128 -3.30047,-0.64106 -4.93945,-0.134766 -1.93741,0.598485 -3.69282,1.91641 -4.90625,3.617188 0.0714,-0.688829 0.0926,-1.376523 -0.15234,-2.046875 -0.011,-0.03022 -0.0444,-0.03721 -0.0566,-0.06641 v -0.09961 l -0.54102,-0.541015 c -0.44584,-0.403444 -0.98532,-0.669847 -1.54687,-0.63086 -0.15537,0.01079 -0.28845,0.13618 -0.44141,0.181641 -0.0211,-0.374076 -0.13651,-0.738768 -0.2832,-1.103516 v -0.06836 h -0.0215 c -0.0473,-0.110005 -0.043,-0.226525 -0.10547,-0.333985 -0.4772,-0.821551 -1.42287,-1.173947 -2.21289,-0.970703 -0.2656,0.06833 -0.47239,0.273947 -0.68945,0.453125 0.005,-0.249104 0.0946,-0.50196 0.0293,-0.736328 -0.13848,-0.497311 -0.47796,-0.998001 -1.03907,-1.21875 -0.56112,-0.220748 -1.21627,-0.09597 -1.79296,0.25586 -0.0659,0.04021 -0.0744,0.122805 -0.13477,0.169921 h -0.0488 l 0.0137,0.04297 c -0.29431,0.243924 -0.57751,0.519477 -0.67382,0.851563 -0.0504,0.173848 0.003,0.314124 0,0.476562 -0.2747,-0.261385 -0.50811,-0.607544 -0.8711,-0.658203 -0.59195,-0.08261 -1.13188,0.205064 -1.47265,0.580078 -0.58674,0.645682 -0.71722,1.622076 -0.40821,2.574219 l -0.23437,-0.234375 c -0.43541,-0.551117 -1.06216,-0.897321 -1.69531,-0.824219 -0.50138,0.05789 -0.92711,0.392319 -1.25391,0.828125 -0.66298,-1.39942 -1.52844,-2.676824 -2.66211,-3.703125 -1.574886,-1.425727 -3.840066,-2.055275 -6.125,-2.017578 z m 12.13867,6.654297 c 0.40403,0.788297 0.69352,1.381731 0.73633,2.226562 0.0385,0.758211 0.017,1.562838 0.008,2.359375 -0.18883,-0.07021 -0.60676,-0.110626 -0.66797,-0.175781 -0.13883,-0.147779 -0.20104,-0.376686 -0.17187,-0.861328 0.0512,-0.851095 0.41372,-2.186277 0.0957,-3.548828 z m 5.67383,0.322266 c 0.19124,1.455983 0.53084,2.888236 0.76172,4.236328 l -0.002,-0.002 -0.002,-0.002 -0.002,-0.002 c -0.0154,-0.01057 -0.0454,-0.01426 -0.0605,-0.02539 l -0.002,-0.002 -0.002,-0.002 c -0.24323,-0.344828 -0.40871,-0.913726 -0.49024,-1.617187 -0.0907,-0.782142 -0.1285,-1.681746 -0.20117,-2.583984 z m -2.35547,0.259765 c 0.15878,1.304884 0.2343,2.659115 0.23242,4.023438 -0.24607,-0.113337 -0.39703,-0.25558 -0.48633,-0.435547 -0.16233,-0.32711 -0.19132,-0.957761 -0.0781,-1.740235 0.0814,-0.562484 0.21515,-1.212084 0.33203,-1.847656 z m 19.58594,3.201172 c 0.0667,0.419634 0.0438,0.809585 -0.0762,1.128906 -4.4e-4,0.0012 -0.003,0.0048 -0.004,0.0059 -0.007,0.01258 -0.0215,0.02471 -0.0293,0.03711 -5.7e-4,0.0011 -0.001,0.0028 -0.002,0.0039 0.0765,-0.405232 0.13335,-0.804332 0.11133,-1.175781 z m -25.24219,6.621094 c 0.20365,13.483234 2.15616,26.924225 2.76172,40.263671 0.0374,0.823339 0.21216,1.730037 0.28516,2.574219 0.073,0.844183 0.0179,1.592313 -0.19336,2.003906 -0.71759,1.399318 -1.819,2.306647 -2.61524,3.542969 -0.39812,0.618162 -0.70375,1.355261 -0.71289,2.208985 -0.004,0.382485 0.26716,0.856186 0.37891,1.273437 -1.71474,-0.366869 -3.311707,-1.21916 -4.73633,-2.476562 1.415674,0.527937 3.09971,0.540693 4.33398,-0.794922 l -0.59961,-0.554688 0.01,-0.818359 c 0.0133,1.64e-4 -0.37002,-0.04052 -0.75,-0.126953 -0.36386,-0.08277 -0.77937,-0.206924 -1.10547,-0.341797 0.16934,-0.02666 0.2741,-0.07226 0.5957,-0.03711 0.51346,0.05612 1.13065,0.190615 1.75391,0.238282 0.62327,0.04767 1.40384,0.03222 1.93945,-0.603516 0.53562,-0.635737 0.50849,-1.500194 0.22071,-2.583984 l -0.30078,-1.136719 -0.96094,0.679687 c -0.38399,0.271624 -0.70938,0.319257 -1.1582,0.279297 -0.44883,-0.03996 -0.9894,-0.207925 -1.58594,-0.376953 -0.59655,-0.169027 -1.261546,-0.344424 -2.000002,-0.267578 -0.738455,0.07685 -1.513547,0.468114 -2.117188,1.212891 -0.608687,0.751 -0.801749,1.589305 -0.753906,2.376953 -1.117336,-1.671256 -2.021731,-3.456946 -2.333984,-5.203125 -1.698612,-9.499014 1.094777,-19.781872 4.248047,-28.96875 0.669619,-1.950894 1.278176,-5.178905 2.269533,-7.912109 0.49567,-1.366602 1.08685,-2.595437 1.7539,-3.423829 0.43797,-0.543889 0.89227,-0.841408 1.37305,-1.027343 z m 6.01172,0.09961 h 0.27344 c 1.2879,10.329103 2.26118,21.772599 1.36523,32.068359 z m -3.39648,0.189453 c 0.13119,0.112611 0.36687,0.08912 0.48046,0.261719 0.33119,0.503179 0.56206,1.318298 0.67969,2.271484 0.23528,1.906373 0.0398,4.259697 0.19727,5.914063 0.85028,8.934972 1.20727,18.146307 1.60156,27.15039 0.062,1.41556 0.29301,3.222466 0.17578,4.779297 -0.0628,0.834102 -0.23403,1.517993 -0.51758,2.078125 z m 5.94335,0.316406 c 0.2385,0.125598 0.4211,0.312701 0.59375,0.5625 0.34171,0.494423 0.57786,1.299995 0.69727,2.251954 0.23882,1.903916 0.0285,4.269015 0.25195,5.970703 1.26311,9.620083 1.88563,20.090968 1.98438,29.90039 -0.14908,-0.151709 -0.37295,-0.282019 -0.49219,-0.439453 -0.44648,-0.589485 -0.67424,-1.170162 -0.58594,-1.941406 0.0302,-0.263326 0.23995,-0.674957 0.4668,-1.208985 0.22685,-0.534029 0.44847,-1.313018 0.0977,-2.095703 -1.52765,-3.407843 -1.28488,-7.758561 -1.56836,-11.875 -0.48139,-6.990308 -0.63134,-14.071306 -1.44532,-21.125 z m 3.38477,0.119141 h 0.26758 l 3.21289,40.900391 c -0.62348,-0.82425 -1.03267,-1.771021 -1.17383,-2.972657 -0.22385,-1.90563 -0.006,-4.169093 -0.21094,-6.316406 -0.99566,-10.420283 -2.03577,-21.17953 -2.0957,-31.611328 z m 2.45508,1.685547 c 0.93355,2.252423 1.57256,4.725226 2.60742,7.191406 3.7231,8.872562 7.95703,18.299876 7.95703,27.8125 0,1.328504 -0.0975,2.859087 -0.2793,4.400391 -0.30421,-0.536162 -0.84068,-0.950747 -1.57421,-1.119141 -1.00218,-0.230061 -1.88443,0.109788 -2.62305,0.396484 -0.73862,0.286696 -1.36972,0.527033 -1.85938,0.50586 l -0.0352,0.816406 -0.4668,0.154297 c -1.60309,-9.823911 -1.81012,-20.197946 -2.49609,-30.214844 -0.11278,-1.646762 -0.71655,-4.123567 -1.0586,-6.521484 -0.17879,-1.253473 -0.23061,-2.435487 -0.17187,-3.421875 z M 92.566406,65.529297 C 90.662224,72.335492 89.029857,79.118536 90.757812,86.691406 88.416987,79.92023 89.854726,72.236739 92.566406,65.529297 Z m 18.478514,14.505859 c 0.10647,0.296997 0.11509,0.679448 0.2461,0.904297 0.28062,0.481631 0.50829,0.851616 0.56445,1.140625 0.14574,0.749987 -0.15416,1.588717 -0.58008,2.449219 z m 10.60156,8.279297 c 0.1317,0.157689 0.19439,0.393464 0.35743,0.505859 0.4318,0.297673 0.92886,0.407946 1.39062,0.414063 0.32343,0.0043 0.57269,-0.155506 0.87695,-0.220703 l -0.59375,1.583984 c -0.43525,-0.430671 -0.88822,-0.867234 -1.27148,-1.203125 -0.42856,-0.375592 -0.60832,-0.718594 -0.75977,-1.080078 z m 5.88086,0.78125 c -0.0163,0.06656 -0.0161,0.138984 -0.0332,0.205078 -0.45087,1.743285 -1.29788,3.134107 -2.41211,4.230469 -0.0753,-0.753062 -0.29643,-1.509848 -0.78711,-2.244141 l 0.55469,-0.146484 c 1.01595,-0.265966 1.98135,-1.068046 2.67773,-2.044922 z m -13.99609,0.669922 c 0.93371,0.366856 2.89672,1.157318 4.49805,2.228515 0.30247,0.202338 0.37597,0.379785 0.62304,0.587891 -1.41743,0.390466 -2.46774,1.197927 -2.59375,2.345703 -0.0932,0.848614 0.36772,1.611949 1.0293,2.294922 l -4.27734,0.513672 c 0.29689,-0.379625 0.60008,-0.767012 0.67968,-1.333985 0.0974,-0.693724 -0.0305,-1.344967 -0.36523,-1.839843 -0.33474,-0.494876 -0.84512,-0.801267 -1.36719,-0.9375 -0.88501,-0.230944 -1.8138,0.02743 -2.58008,0.585937 0.32766,-0.496297 0.82259,-1.055359 1.40821,-1.617187 1.04996,-1.00731 2.13663,-1.915813 2.94531,-2.828125 z m 4.92187,11.583985 c -0.91224,0.6214 -1.88551,1.01568 -2.93554,1.10156 -0.2175,0.0178 -0.45874,-0.0805 -0.68164,-0.084 z m 5.9336,11.05664 c -4.90724,2.10826 -10.97677,2.77975 -16.64453,2.53516 l 4.0039,-0.81641 z"
       inkscape:label="znak"
       sodipodi:nodetypes="ssssssscsscccscscsscccssssscscscccscssccsssssscccccscccccsccsscccscssccscsscccsccccccccccscccscccscccccsscsccccccscssscccsssscsssscccccccscsscccssccscscsccccscccsscsscccsscccccsscccssccsccccccccsccccssscsccscccccc" /></g></svg>
