<?xml version="1.0" encoding="UTF-8" standalone="no"?>
<svg
   version="1.2"
   viewBox="0 0 219.2126 219.2126"
   width="58mm"
   height="58mm"
   id="svg1"
   sodipodi:docname="PokojskaRoleTokenLaser.svg"
   inkscape:version="1.4.2 (f4327f4, 2025-05-13)"
   xml:space="preserve"
   xmlns:inkscape="http://www.inkscape.org/namespaces/inkscape"
   xmlns:sodipodi="http://sodipodi.sourceforge.net/DTD/sodipodi-0.dtd"
   xmlns="http://www.w3.org/2000/svg"
   xmlns:svg="http://www.w3.org/2000/svg"><sodipodi:namedview
     id="namedview1"
     pagecolor="#ffffff"
     bordercolor="#666666"
     borderopacity="1.0"
     inkscape:showpageshadow="2"
     inkscape:pageopacity="0.0"
     inkscape:pagecheckerboard="0"
     inkscape:deskcolor="#d1d1d1"
     inkscape:zoom="2.8284271"
     inkscape:cx="120.73848"
     inkscape:cy="160.69002"
     inkscape:window-width="1920"
     inkscape:window-height="1057"
     inkscape:window-x="-8"
     inkscape:window-y="-8"
     inkscape:window-maximized="1"
     inkscape:current-layer="layer2"
     inkscape:document-units="mm"
     showgrid="false" /><defs
     id="defs1"><clipPath
       clipPathUnits="userSpaceOnUse"
       id="cp1"><path
         d="m 275.5,535.5 c -143.78,0 -260,-116.22 -260,-260 0,-143.78 116.22,-260 260,-260 143.78,0 260,116.22 260,260 0,143.78 -116.22,260 -260,260 z"
         id="path1" /></clipPath></defs><style
     id="style1">
		tspan { white-space:pre } 
		.s0 { fill: none;stroke: #ff0000;stroke-miterlimit:100 } 
	</style><g
     inkscape:groupmode="layer"
     id="layer2"
     inkscape:label="Content"><g
       inkscape:groupmode="layer"
       id="layer4"
       inkscape:label="Kruh"
       style="display:inline"><path
         id="path2"
         style="fill:none;stroke:#000000;stroke-width:0.189192"
         d="M 219.118,109.6063 A 109.5117,109.5117 0 0 1 109.6063,219.118 109.5117,109.5117 0 0 1 0.09459686,109.6063 109.5117,109.5117 0 0 1 109.6063,0.09459686 109.5117,109.5117 0 0 1 219.118,109.6063 Z"
         inkscape:label="Vnejsi kruh" /><path
         id="circle2"
         style="fill:none;stroke:#000000;stroke-width:0.188976"
         d="M 208.69732,109.6063 A 99.091019,99.091019 0 0 1 109.6063,208.69732 99.091019,99.091019 0 0 1 10.515282,109.6063 99.091019,99.091019 0 0 1 109.6063,10.515282 99.091019,99.091019 0 0 1 208.69732,109.6063 Z"
         inkscape:label="Vnitrni kruh" /></g><path
       id="path4"
       style="opacity:1;baseline-shift:baseline;display:inline;overflow:visible;fill:none;stroke-linejoin:round;enable-background:accumulate;stop-color:#000000;stop-opacity:1;stroke-width:0.18897638;stroke-dasharray:none;stroke:#000000;stroke-opacity:1"
       d="M 144.94531 26.548828 C 144.85601 26.551287 144.76786 26.559356 144.67969 26.572266 C 144.32701 26.623906 143.98636 26.754795 143.67969 26.935547 C 143.06634 27.29705 142.53381 27.844874 142.06836 28.457031 C 141.19679 29.603304 140.63527 30.89816 140.42969 31.869141 L 140.41797 31.861328 L 138.20508 34.964844 L 133.37109 38.765625 A 0.56698585 0.56698585 0 0 0 133.19141 39.013672 L 131.13281 44.591797 L 121.39648 51.857422 A 0.56698585 0.56698585 0 0 0 121.32031 51.923828 L 115.67773 57.964844 A 0.56698585 0.56698585 0 0 0 115.54492 58.201172 L 114.42969 62.240234 L 107.76562 70.74414 L 106.97852 66.542969 A 0.56698585 0.56698585 0 0 0 106.41992 66.082031 L 106.10156 66.082031 A 0.56698585 0.56698585 0 0 0 105.54297 66.548828 C 105.14833 68.761392 103.5758 70.218144 101.9082 71.792969 C 100.38207 73.234201 98.82889 74.825633 98.355468 77.132812 C 96.963041 76.673001 95.660666 76.578138 94.496093 76.853515 C 93.152254 77.171281 91.965049 77.846629 90.824218 78.576172 C 88.542555 80.035258 86.453585 81.685997 83.765625 81.689453 C 81.593885 81.692253 80.172755 80.621224 78.714843 79.365234 C 77.256931 78.109244 75.799991 76.645729 73.648437 76.298828 A 0.56698585 0.56698585 0 0 0 73.011719 77.013672 L 74.138672 80.958984 L 73.697265 81.105468 A 0.56698585 0.56698585 0 0 0 73.429687 81.992187 L 74.61914 83.521484 L 69.240234 82.054687 A 0.56698585 0.56698585 0 0 0 68.523437 82.603515 C 68.533237 86.167223 69.828573 89.893556 72.794922 92.121093 L 66.90625 91.609375 A 0.56698585 0.56698585 0 0 0 66.296875 92.257812 C 66.837293 95.86326 69.294902 98.912862 72.474609 100.52734 A 0.56698585 0.56698585 0 0 0 72.351562 100.7793 C 72.329222 102.21022 73.423108 103.2281 74.628906 103.89453 C 75.834705 104.56096 77.237536 104.94946 78.236328 105.14258 C 81.008795 105.67864 84.087219 105.28915 87.03125 105.17969 C 89.975281 105.07024 92.745369 105.23649 94.941406 106.68555 A 0.56698585 0.56698585 0 0 0 95.582031 106.67383 C 96.04372 106.34573 96.803402 106.14236 97.642578 106.00781 C 98.481754 105.87327 99.384614 105.79901 100.17383 105.60547 C 102.98057 104.91713 106.17184 103.95684 108.53516 102.1875 C 110.89847 100.41816 112.39114 97.721634 111.5957 93.970703 C 111.26857 92.428116 110.70729 90.817453 110.08398 89.392578 C 109.38759 87.800597 108.60058 86.037525 107.30664 84.662109 L 107.30664 84.607422 L 107.82812 83.042968 C 110.09052 82.486879 111.61544 80.792206 113.07422 79.142578 C 114.61198 77.40364 116.11102 75.738605 118.36328 75.175781 A 0.56698585 0.56698585 0 0 0 118.79297 74.625 L 118.79297 74.30664 A 0.56698585 0.56698585 0 0 0 118.41992 73.773437 C 116.92095 73.227121 115.52005 73.239361 114.11133 73.634765 C 117.6763 67.488241 122.17425 61.332428 126.96484 56.1875 C 129.39981 53.572429 132.40923 51.319478 134.83203 48.511719 C 136.59936 46.463576 137.66237 44.046118 139.23437 42.121094 C 140.96928 39.996602 143.04196 38.680402 144.94922 37.091797 C 146.85648 35.503192 148.58499 33.601851 149.4043 30.416016 A 0.56698585 0.56698585 0 0 0 149.18359 29.8125 C 148.73479 29.495446 148.21209 28.875046 147.66211 28.253906 C 147.11212 27.632767 146.53382 26.992906 145.75195 26.6875 C 145.48549 26.583418 145.21321 26.54145 144.94531 26.548828 z M 105.1543 72.529297 L 104.30859 74.390625 A 0.56698585 0.56698585 0 0 0 104.42383 75.02539 L 104.74414 75.345703 A 0.56698585 0.56698585 0 0 0 105.24609 75.501953 L 107.98047 75.003906 L 107.77344 76.458984 A 0.56698585 0.56698585 0 0 0 108.47266 77.089844 L 110.94922 76.470703 L 107.52344 78.611328 A 0.56698585 0.56698585 0 0 0 106.84766 77.927734 L 104.29102 78.951172 L 104.10547 78.023437 A 0.56698585 0.56698585 0 0 0 103.54883 77.568359 L 103.23047 77.568359 A 0.56698585 0.56698585 0 0 0 103.1582 77.626953 L 103.1582 76.220703 A 0.56698585 0.56698585 0 0 0 102.5918 75.652344 L 102.27344 75.652344 A 0.56698585 0.56698585 0 0 0 101.72266 76.082031 L 101.25977 77.93164 C 101.23961 77.913247 101.17335 77.890748 101.15234 77.873047 L 101.15039 77.871093 C 101.05659 77.761546 101.02321 77.665855 101.02148 77.488281 C 101.01848 77.133135 101.25857 76.503295 101.56445 75.810547 C 102.07871 74.645894 102.78226 73.997998 103.66797 73.416015 C 104.0962 73.134635 104.65489 72.808142 105.1543 72.529297 z M 114.07812 75.050781 C 114.13827 75.050781 114.17492 75.062656 114.18945 75.076172 C 114.1903 75.077177 114.19271 75.08099 114.19336 75.082031 C 114.1943 75.084176 114.19508 75.089547 114.19531 75.091797 C 114.19467 75.105533 114.18238 75.121791 114.16211 75.134765 L 114.07812 75.050781 z M 114.07812 75.050781 L 114.07812 75.164062 C 114.05031 75.168468 114.01979 75.168822 113.99023 75.162109 A 0.56698585 0.56698585 0 0 0 113.98633 75.142578 A 0.56698585 0.56698585 0 0 0 113.98633 75.140625 L 114.07812 75.050781 z M 91.291015 80.828125 A 0.56698585 0.56698585 0 0 0 91.623047 81.240234 C 92.733214 81.48163 93.845962 81.277335 94.746093 81.291015 C 95.196158 81.297815 95.58294 81.354276 95.890625 81.490234 C 95.922885 81.504494 95.941666 81.552469 95.972656 81.568359 L 90.703125 82.359375 A 0.56698585 0.56698585 0 0 0 90.21875 82.919922 L 90.21875 83.240234 A 0.56698585 0.56698585 0 0 0 90.826172 83.804687 L 97.699218 83.314453 L 101.77734 85.228515 L 102.67578 89.419922 A 0.56698585 0.56698585 0 0 0 103.23047 89.86914 L 103.54883 89.86914 A 0.56698585 0.56698585 0 0 0 103.93945 89.705078 L 103.93945 92.5625 A 0.56698585 0.56698585 0 0 0 102.98242 92.798828 C 102.93232 95.227779 102.12547 97.16555 100.74414 98.541015 C 99.717055 99.563736 98.26183 100.15852 96.615234 100.50781 L 99.751953 98.042968 A 0.56698585 0.56698585 0 0 0 99.21875 97.060547 C 97.975671 97.483826 96.742743 97.831475 95.498047 98.279297 A 0.56698585 0.56698585 0 0 0 95.042968 97.679687 C 95.005248 97.672287 94.956068 97.678719 94.917968 97.671875 L 94.917968 97.667968 L 94.880859 97.669922 C 93.334141 97.398301 91.496613 97.508105 89.822265 97.33789 C 88.743077 97.228179 87.850308 96.91469 87.080078 96.445312 C 88.594886 96.608408 90.098633 96.820678 91.601562 96.955078 C 93.67778 97.140745 95.832561 96.992058 98.089843 95.685547 C 99.548248 94.841428 100.70162 93.015706 100.98633 91.267578 C 101.12868 90.393514 101.03923 89.495702 100.50391 88.804687 C 99.968628 88.113673 99.028341 87.73747 97.787109 87.777343 A 0.56698585 0.56698585 0 0 0 97.279297 88.554687 C 97.690579 89.582321 97.690195 90.336527 97.472656 90.945312 C 97.286259 91.466947 96.845153 91.879225 96.33789 92.265625 C 96.758141 91.769422 97.059839 91.122593 97.095703 90.283203 A 0.56698585 0.56698585 0 0 0 96.529297 89.691406 L 96.210937 89.691406 A 0.56698585 0.56698585 0 0 0 95.71289 89.988281 C 94.899688 91.484065 93.534084 92.109433 91.986328 92.488281 L 93.777343 90.298828 A 0.56698585 0.56698585 0 0 0 93.507812 89.515625 C 94.310772 89.190877 95.187743 89.067955 96.117187 89.222656 A 0.56698585 0.56698585 0 0 0 96.595703 88.248047 C 95.686052 87.406463 94.561215 87.237181 93.53125 87.5 C 92.813582 87.683129 92.136602 88.164948 91.453125 88.599609 C 91.676972 88.414702 91.910364 88.189021 92.134765 88.019531 C 93.144911 87.256565 94.155189 86.6763 95.228515 86.441406 C 96.301841 86.206512 97.451068 86.294349 98.841797 86.943359 A 0.56698585 0.56698585 0 0 0 99.583984 86.167968 C 98.857018 84.778391 97.700952 84.094156 96.480468 84.048828 C 95.259983 84.003498 94.01169 84.502694 92.8125 85.210937 C 92.594364 85.339769 92.419546 85.533633 92.205078 85.675781 A 0.56698585 0.56698585 0 0 0 92.066406 85.007812 C 90.928529 84.216697 89.796987 84.249783 88.851562 84.585937 C 87.906138 84.922092 87.071842 85.472963 86.142578 85.777343 C 84.818427 86.211061 83.538181 86.293362 82.253906 86.201172 C 83.357489 85.87819 84.508115 85.549213 85.644531 84.90039 C 87.430766 83.880553 89.286264 82.154551 91.220703 80.863281 C 91.244113 80.847661 91.267615 80.843615 91.291015 80.828125 z M 76.910156 81.048828 C 78.013636 81.905745 79.10406 82.593424 80.255859 82.947265 C 81.592529 83.357899 83.085796 83.382944 84.736328 83.271484 C 84.053924 83.764183 83.281 84.174384 82.392578 84.410156 C 81.052526 84.765783 79.615569 84.769082 78.40039 84.583984 L 76.910156 81.048828 z M 70.828125 85.259765 L 75.542969 86.251953 L 75.542969 86.75 A 0.56698585 0.56698585 0 0 0 76.046875 87.3125 L 84.023437 88.210937 A 0.56698585 0.56698585 0 0 0 84.240234 88.193359 L 91.675781 86.082031 C 89.844332 87.402358 88.214421 88.96565 87.324218 90.042968 C 85.830908 90.008518 84.627573 90.520802 83.402343 90.621093 C 81.150937 90.805374 77.982536 90.570714 75.390625 89.613281 C 73.089811 88.76338 71.367738 87.37352 70.828125 85.259765 z M 104.30273 87.847656 L 106.60547 90.917968 A 0.56698585 0.56698585 0 0 0 107.46484 90.726562 C 107.79166 91.287478 108.13418 91.835214 108.40234 92.40039 C 108.77969 93.195684 109.03446 93.977458 109.1543 94.753906 L 108.55273 92.951172 A 0.56698585 0.56698585 0 0 0 107.44922 93.101562 C 107.44899 93.105962 107.44944 93.108961 107.44922 93.113281 C 106.97675 91.730823 106.12294 90.4646 104.91211 89.224609 A 0.56698585 0.56698585 0 0 0 104.11133 89.365234 L 104.30273 87.847656 z M 96.179687 92.445312 C 96.168844 92.458586 96.164889 92.475401 96.148437 92.486328 C 96.121777 92.504038 96.079974 92.511907 96.052734 92.529297 C 96.091532 92.493976 96.140244 92.478895 96.179687 92.445312 z M 93.798828 98.835937 C 93.077885 99.059229 92.341809 99.411901 91.630859 99.546875 C 89.899701 99.875535 88.235191 99.658086 86.585937 99.048828 L 93.798828 98.835937 z M 83.255859 102.61328 C 83.017034 102.65488 82.875786 102.73166 82.638672 102.76367 C 81.736371 102.88547 80.892971 102.89717 80.18164 102.8125 L 83.255859 102.61328 z "
       inkscape:label="znak" /><path
       id="path3"
       style="font-size:41.5223px;font-family:'New Rocker';-inkscape-font-specification:'New Rocker';letter-spacing:0.769167px;baseline-shift:baseline;white-space:pre;display:inline;overflow:visible;opacity:1;fill:none;stroke:#000000;stroke-width:0.188976;stroke-dasharray:none;stroke-opacity:1;enable-background:accumulate;stop-color:#000000;stop-opacity:1"
       d="m 103.52708,153.02478 c 0.0555,-0.0111 0.27765,-0.0664 0.32812,-0.0664 h 0.10937 l 0.10743,-0.0176 c 0.0958,-0.016 0.18844,-0.0234 0.28125,-0.0234 0.47656,0 1.15574,0.0598 1.99804,0.1914 0.84604,0.1322 1.69287,0.3036 2.54102,0.51563 0.8461,0.21152 1.61755,0.43464 2.32031,0.66797 0.67204,0.25034 1.11173,0.50317 1.19141,0.56836 l 0.92382,0.75586 0.84571,-0.84375 c 0.52946,-0.52947 1.12751,-1.04015 1.79687,-1.5293 l 0.0117,-0.01 0.0137,-0.01 c 0.66463,-0.51125 1.3508,-0.95571 2.06055,-1.33594 0.72127,-0.38639 1.437,-0.7056 2.14648,-0.95898 0.69727,-0.24903 1.3364,-0.40334 1.91407,-0.47266 l 1.38476,-0.16601 -0.24218,-1.37305 c -0.0911,-0.51611 -0.17399,-1.03458 -0.24805,-1.55664 h 2.71484 v 7.27734 c -0.33783,1.44897 -0.80058,2.80655 -1.40625,4.06836 l -0.002,0.006 -0.002,0.004 c -0.62827,1.33507 -1.41831,2.6818 -2.375,4.03711 l -0.80274,1.13671 3.61524,2.27149 0.73828,-0.89453 c 0.73967,-0.89816 1.50252,-1.72859 2.28906,-2.49024 l 0.006,-0.006 c 0.79896,-0.7454 1.56804,-1.40632 2.30273,-1.98437 0.76107,-0.54985 1.47824,-1.01907 2.14258,-1.40234 0.66347,-0.38277 1.24095,-0.64868 1.70899,-0.80469 l 0.90234,-0.30078 v -1.66407 l -0.38672,-0.38671 c -0.11087,-0.11088 -0.20146,-0.24762 -0.28125,-0.45508 -0.0806,-0.20959 -0.18333,-0.61199 -0.25781,-1.15821 v -0.004 -0.004 c -0.0722,-0.50516 -0.1254,-1.17908 -0.15235,-1.99023 v -3.17969 -2.07617 h 3.20704 c -0.29385,0.47662 -0.57374,0.9712 -0.77539,1.57617 l -0.004,0.0117 -0.004,0.0117 c -0.30557,0.97773 -0.49213,1.9557 -0.55468,2.92578 l -0.0859,1.33008 1.33203,0.0723 c 0.99414,0.0537 1.84266,0.13374 2.53516,0.23633 l 0.0234,0.004 0.0234,0.002 c 0.68696,0.0763 1.2637,0.18966 1.71875,0.32617 l 0.0293,0.01 0.0293,0.008 c 0.46325,0.11581 0.82085,0.2584 1.07618,0.4043 l 0.0176,0.01 0.0176,0.01 c 0.32255,0.17202 0.60187,0.36861 0.84961,0.5957 l 0.7832,0.71875 L 144.85352,155 c 0.36267,-0.25601 0.85386,-0.51811 1.47265,-0.76563 0.62724,-0.25089 1.31499,-0.468 2.0625,-0.64843 0.75088,-0.18124 1.54624,-0.32463 2.38672,-0.42969 C 151.60915,153.05203 152.42715,153 153.22852,153 h 1.63671 l -0.34765,-1.59961 c -0.10899,-0.50123 -0.20815,-1.38333 -0.26172,-2.56055 v -0.002 c -0.0207,-0.46715 -0.0379,-0.95902 -0.0508,-1.47656 h 3.20508 v 2.03515 c 0,0.63742 -0.0923,1.07551 -0.17579,1.27344 -0.0418,0.099 -0.0611,0.13706 -0.0703,0.14844 h -0.002 v 0.002 h -0.002 -0.002 -0.002 v -0.002 h -0.002 v -0.002 h -0.002 -0.002 l -0.86133,0.31836 v 2.86132 h 10.28125 v -2.86132 l -0.84179,-0.31055 c -0.0122,-0.0223 -0.0388,-0.0765 -0.082,-0.19336 -0.10114,-0.27347 -0.19726,-0.82973 -0.19726,-1.60742 v -3.7793 c 0.25498,0.12739 0.54055,0.23501 0.78515,0.36914 l 0.0137,0.008 0.0156,0.008 c 0.61332,0.31654 1.21601,0.70675 1.81836,1.10156 v 2.70703 c 0,0.47967 -0.0259,1.00909 -0.0781,1.58398 -0.0534,0.58745 -0.11949,1.15872 -0.19922,1.7168 -0.0764,0.53486 -0.17825,1.03868 -0.30274,1.51172 l -0.008,0.0332 -0.006,0.0312 c -0.10039,0.47685 -0.21105,0.85811 -0.31445,1.12696 l -0.47852,1.24218 2.375,0.89063 0.59961,-0.60156 c 0.27786,-0.27786 0.63565,-0.58551 1.06445,-0.91407 0.46512,-0.3352 0.97127,-0.67305 1.52149,-1.01367 0.56046,-0.34695 1.13457,-0.68118 1.72266,-1.00195 0.58316,-0.31809 1.13569,-0.5928 1.65429,-0.82617 l 0.97656,-0.43946 -0.23046,-1.04687 c -0.15882,-0.726 -0.25977,-1.89025 -0.25977,-3.41406 0,-0.33952 0.004,-0.65731 0.01,-0.95508 h 1.92187 c -0.0132,0.57375 -0.0338,1.1469 -0.0625,1.7207 -0.0505,0.98104 -0.20425,1.75059 -0.41211,2.29102 l -0.67773,1.75976 1.88672,0.0332 c 1.52042,0.0262 2.8409,0.19793 3.95898,0.49609 h 0.004 l 0.004,0.002 c 1.15996,0.30259 2.19966,0.73752 3.13672,1.30469 l 0.97266,0.58789 2.39453,-2.88086 c 0.0923,0.13548 0.1429,0.27778 0.24219,0.41211 0.54891,0.74265 1.18414,1.36821 1.90625,1.84961 l 1.24414,0.83008 0.66797,-1.33789 c 0.11362,-0.22725 0.32254,-0.56027 0.62304,-0.96094 0.29258,-0.39011 0.6243,-0.77274 0.99805,-1.14648 0.38411,-0.38411 0.76339,-0.72478 1.13672,-1.02344 l 0.004,-0.002 0.004,-0.004 c 0.36095,-0.29328 0.6611,-0.45918 0.85742,-0.5293 l 0.87696,-0.3125 v -2.4375 l -1.02344,-0.23633 c -0.20318,-0.0469 -0.32019,-0.10662 -0.41211,-0.16015 v -0.002 c -0.009,-0.0149 -0.0554,-0.0817 -0.11524,-0.26562 -0.10127,-0.34764 -0.20242,-0.89691 -0.27929,-1.60547 -0.051,-0.75108 -0.0801,-1.77703 -0.0801,-3.07422 0,-1.98619 0.0577,-3.48224 0.1582,-4.44726 0.0848,-0.63611 0.27637,-0.99114 0.45508,-1.375 l -1.50586,-2.75391 c -0.92174,-0.0655 -1.79787,-0.17079 -2.41797,-0.46094 -0.79462,-0.41213 -1.61167,-1.04655 -2.43554,-1.94531 l -0.082,-0.0898 v -3.81836 c 0.45686,-0.4143 0.89864,-0.8121 1.32227,-1.19336 0.53285,-0.47957 1.01959,-0.88769 1.45508,-1.22071 l 0.0176,-0.0137 0.0195,-0.0156 c 0.45378,-0.3737 0.79861,-0.63593 0.97265,-0.75196 l 1.77735,-1.18359 -1.85547,-1.06055 c -0.14632,-0.0836 -0.42441,-0.25488 -0.7793,-0.48242 -0.34221,-0.26255 -0.70618,-0.53573 -1.09375,-0.82031 l -0.0156,-0.0117 c -0.007,-0.005 -0.0124,-0.0104 -0.0195,-0.0156 -0.34897,-0.27482 -0.68546,-0.54863 -1.00977,-0.82227 l -0.006,-0.006 c -0.29072,-0.26721 -0.49207,-0.48683 -0.57812,-0.60156 l -1.28117,-1.70704 -0.95508,1.9082 c -0.22728,0.45455 -0.529,0.99407 -0.90235,1.60742 l -0.01,0.0176 -0.0117,0.0195 c -0.34559,0.61144 -0.71858,1.2237 -1.11914,1.83789 l -0.004,0.006 -0.004,0.006 c -0.38547,0.60572 -0.75595,1.18463 -1.11328,1.73438 l -0.0137,0.0195 -0.0117,0.0195 c -0.33383,0.5564 -0.59851,1.00371 -0.79687,1.34375 l -0.57422,0.98437 0.88867,0.71094 c 0.36775,0.2942 0.60947,0.53946 0.69727,0.65234 l 0.0508,0.0645 0.0566,0.0586 c 0.27978,0.27978 0.63547,0.58737 1.09766,0.96289 l 0.92382,0.75 0.8418,-0.8418 c 0.0956,-0.0956 0.19148,-0.19252 0.28906,-0.28906 v 2.09961 c -0.63883,0.33921 -1.59299,0.69073 -2.83007,1 -1.30039,0.3251 -2.91449,0.5 -4.82813,0.5 h -0.36914 c -0.27505,-0.0867 -0.40714,-0.041 -0.58594,-0.041 h -1.66211 l 0.37696,1.61914 c 0.2082,0.89229 0.4503,1.65159 0.75781,2.30078 l 0.0117,0.0254 0.0117,0.0234 c 0.32926,0.62559 0.71288,1.16664 1.18945,1.60351 l 0.0234,0.0215 0.0234,0.0195 c 0.45961,0.383 0.9914,0.67471 1.5625,0.83789 l 0.0508,0.0137 0.0527,0.0117 c 0.50925,0.10185 1.03967,0.15039 1.58789,0.15039 0.84767,0 1.78335,-0.16536 2.87695,-0.46094 0.44513,-0.1203 0.85367,-0.30778 1.28516,-0.45312 v 1.35937 c -0.21108,0.0825 -0.35548,0.16209 -0.62305,0.24414 -0.56277,0.15293 -1.19912,0.29802 -1.91015,0.42969 -0.70044,0.12972 -1.44639,0.23307 -2.23438,0.3125 -0.7675,0.0525 -1.52182,0.0801 -2.25976,0.0801 -0.66896,0 -1.27443,-0.0396 -1.81446,-0.11328 l -2.27148,-0.3086 0.87305,2.11914 c 0.14272,0.34662 0.2575,0.77701 0.32812,1.29493 v 0.004 0.006 c 0.0646,0.45239 0.10159,0.94383 0.10938,1.47266 H 176.25 c 0.0388,-0.27695 0.0839,-0.55485 0.13672,-0.83203 l 0.17383,-0.91211 -0.80078,-0.47266 c -1.00284,-0.5899 -2.08736,-1.11488 -3.25,-1.58008 -0.1288,-0.0528 -0.31407,-0.0803 -0.44727,-0.13086 l 3.80469,-1.43945 -0.28516,-1.13867 c -0.0146,-0.0582 -0.0625,-0.36373 -0.0879,-0.79492 -0.0267,-0.45394 -0.0391,-0.82142 -0.0391,-1.08594 0,-1.03838 0.11751,-1.88103 0.31445,-2.51563 l 0.43164,-1.39257 -1.42773,-0.29102 c -1.44687,-0.29474 -2.67692,-0.61416 -3.68555,-0.94922 -0.95892,-0.35467 -1.80105,-0.77687 -2.53125,-1.26367 l -0.90039,-0.60156 -0.76563,0.76562 c -0.53886,0.53887 -0.99263,0.94743 -1.4414,1.34961 v -5.89648 c 0,-1.59388 0.11032,-2.85088 0.29883,-3.73047 0.21534,-0.87639 0.52093,-1.50324 0.85547,-1.91211 l -1.60157,-2.02149 c -1.19179,0.58266 -2.24403,0.99423 -3.13672,1.24219 -0.9024,0.25067 -1.71348,0.36719 -2.42968,0.36719 -0.69657,0 -1.19754,-0.0942 -1.47266,-0.20117 l -3.59375,-1.39649 1.98438,3.30664 c 0.20475,0.34126 0.35592,0.66933 0.46093,0.98438 l 0.0117,0.0352 0.0156,0.0371 c 0.1304,0.32602 0.2304,0.68064 0.29882,1.06836 l 0.006,0.0352 0.008,0.0371 c 0.0886,0.37649 0.15128,0.82321 0.17578,1.33789 v 0.0312 l 0.004,0.0312 c 0.0503,0.5282 0.0762,1.15431 0.0762,1.86914 v 18.06055 h -3.23243 c -0.002,-0.31079 -0.004,-0.62965 -0.004,-0.95508 0,-1.83497 0.0422,-3.22364 0.11914,-4.12109 l 0.13281,-1.53711 -1.53906,0.10742 c -1.1981,0.0836 -2.24473,0.16759 -3.14453,0.25195 -0.90701,0.085 -1.7352,0.18328 -2.48633,0.29883 l -0.004,0.002 h -0.004 c -0.71983,0.11517 -1.38885,0.24521 -2.00782,0.39258 l -0.008,0.002 -0.006,0.002 c -0.0373,0.009 -0.0722,0.0237 -0.10937,0.0332 -0.0207,-0.46989 -0.0371,-0.94033 -0.0371,-1.41016 v -0.68554 c 0.43781,0.15676 0.87603,0.31077 1.31445,0.44922 l 0.01,0.004 0.008,0.002 c 0.60582,0.18176 1.20359,0.32101 1.79297,0.41407 0.57879,0.0914 1.11398,0.14062 1.61719,0.14062 1.18701,0 2.32611,-0.36248 3.20898,-1.09179 l 0.0117,-0.0117 0.0137,-0.01 c 0.86145,-0.74909 1.5053,-1.79379 2.05273,-3.10156 l 0.70899,-1.69531 -1.83203,-0.13086 c -3.36428,-0.24223 -5.82849,-0.81564 -7.30274,-1.56446 l -0.54687,-0.27734 -0.56641,0.24023 c -1.79751,0.76258 -3.28275,1.31464 -4.42578,1.65235 -1.11897,0.3306 -2.12985,0.48437 -3.03125,0.48437 h -1.85156 l 0.60351,1.75 c 0.24268,0.70377 0.41863,1.48218 0.51954,2.33985 l 0.002,0.0195 0.002,0.0195 c 0.12621,0.85825 0.19336,1.89111 0.19336,3.08789 0,0.5028 -0.012,1.08058 -0.0391,1.73047 -0.026,0.59604 -0.0935,1.49393 -0.20313,2.67187 l -0.0469,0.4961 h -3.52735 v -12.19922 l -1.43945,-2.39649 -0.94922,0.23633 c -0.28066,0.0702 -0.57529,0.14155 -0.88281,0.21485 v -1.25782 l 0.39063,-0.78125 c 0.41503,-0.83006 0.88394,-1.47637 1.39257,-1.96289 h 0.002 c 0.60513,-0.57992 1.35743,-1.19199 2.25586,-1.82617 l 1.69336,-1.19531 -1.80079,-1.0293 c -0.14632,-0.0836 -0.42441,-0.25488 -0.77929,-0.48242 -0.34221,-0.26255 -0.70619,-0.53573 -1.09375,-0.82031 l -0.0156,-0.0117 c -0.007,-0.005 -0.0124,-0.0104 -0.0195,-0.0156 -0.35414,-0.27889 -0.69469,-0.56021 -1.02344,-0.83789 -0.28364,-0.26176 -0.48553,-0.47876 -0.57031,-0.59179 l -0.67773,-0.9043 -0.99805,0.53125 c -0.98827,0.52708 -1.87798,1.26228 -2.66211,2.17187 l -0.002,0.002 h -0.002 c -0.71067,0.82911 -1.32398,1.68193 -1.83789,2.55859 l -0.55859,0.95117 0.83789,0.71875 c 0.22521,0.19303 0.51454,0.4242 0.88477,0.70899 0.35597,0.27383 0.72705,0.56135 1.11132,0.86328 0.36354,0.28564 0.6967,0.56784 1.00196,0.84765 l 0.043,0.0391 0.0449,0.0352 c 0.31968,0.24591 0.53012,0.44563 0.59179,0.51758 l 0.0469,0.0547 v 2.11719 c -0.11844,0.0263 -0.23801,0.0534 -0.35938,0.0801 -0.003,6.5e-4 -0.005,9.6e-4 -0.008,0.002 -1.10334,0.21478 -2.12542,0.39012 -3.05859,0.52344 l -1.13281,0.16015 v 2.46875 l 1.53515,0.66406 v 9.84571 h -2.92969 c -0.17721,-1.69822 -0.26562,-3.42827 -0.26562,-5.18946 0,-2.37598 0.16369,-4.41854 0.47656,-6.11328 l 0.34766,-1.88086 -1.88086,0.3418 c -0.24536,0.0446 -0.50797,0.0792 -0.7832,0.10352 h -1.30664 c -0.98934,0 -2.09142,-0.10184 -3.30274,-0.3125 -1.17275,-0.20396 -2.71388,-0.61492 -4.58398,-1.23829 l -1.34961,0.31836 c -1.18136,1.18136 -2.39092,2.15103 -3.62305,2.92188 -1.22792,0.7403 -2.29512,1.16841 -3.15234,1.32226 l -2.18164,0.39063 1.30468,1.63086 v 0.002 c 0.004,0.0103 0.008,0.0209 0.0117,0.0332 0.0339,0.11451 0.0828,0.32454 0.13281,0.5996 0.10159,0.55879 0.19488,1.25986 0.2754,2.0918 l 0.002,0.0195 0.002,0.0215 c 0.1062,0.82333 0.18643,1.70547 0.24024,2.64648 l 0.002,0.002 c 0.0482,0.8208 0.0751,1.58504 0.0801,2.28907 H 101.008 c 0.0388,-0.27695 0.0839,-0.55485 0.13672,-0.83203 l 0.17383,-0.91211 -0.80078,-0.47266 c -1.000653,-0.58861 -2.082423,-1.11368 -3.24219,-1.57812 l -0.0039,-0.002 c -0.129837,-0.0532 -0.316861,-0.0798 -0.451172,-0.13086 L 100.625,140.25 l -0.28516,-1.13867 c -0.0146,-0.0583 -0.0625,-0.36371 -0.0879,-0.79492 -0.0267,-0.45393 -0.0391,-0.82144 -0.0391,-1.08594 0,-1.03838 0.11751,-1.88103 0.31445,-2.51563 l 0.43164,-1.39257 -1.429683,-0.29102 c -1.446864,-0.29473 -2.67497,-0.61416 -3.683594,-0.94922 -0.958923,-0.35467 -1.80105,-0.77687 -2.53125,-1.26367 l -0.900391,-0.60156 -0.765625,0.76562 c -0.539623,0.53963 -0.994093,0.94902 -1.443359,1.35156 v -5.89843 c 0,-1.59388 0.112278,-2.85088 0.300781,-3.73047 0.21534,-0.87639 0.520937,-1.50324 0.855469,-1.91211 l -1.601563,-2.02149 c -1.191795,0.58266 -2.244031,0.99422 -3.136718,1.24219 -0.902404,0.25067 -1.713479,0.36719 -2.429688,0.36719 -0.69657,0 -1.197542,-0.0942 -1.472656,-0.20117 l -3.59375,-1.39649 1.984375,3.30664 c 0.204754,0.34126 0.355918,0.66933 0.460937,0.98438 l 0.01172,0.0352 0.01367,0.0371 c 0.130406,0.32602 0.232361,0.68065 0.300781,1.06836 l 0.0059,0.0352 0.0078,0.0371 c 0.08859,0.37651 0.14932,0.82319 0.173828,1.33789 l 0.002,0.0312 0.0039,0.0312 c 0.0503,0.52817 0.07617,1.15433 0.07617,1.86914 v 18.06055 h -2.929687 c -0.177218,-1.69822 -0.265625,-3.42827 -0.265625,-5.18946 0,-2.37598 0.163688,-4.41854 0.476562,-6.11328 l 0.347657,-1.88086 -1.88086,0.3418 c -0.245367,0.0446 -0.507967,0.0792 -0.783203,0.10352 h -1.30664 c -0.989336,0 -2.091417,-0.10184 -3.302735,-0.3125 -0.920461,-0.16008 -2.242415,-0.55474 -3.597656,-0.97266 l -2.337891,0.0527 c -1.181361,1.18136 -2.388962,2.15103 -3.621093,2.92188 -1.227923,0.7403 -2.295124,1.16841 -3.152344,1.32226 l -2.181641,0.39063 0.882813,1.10352 H 56.99025 c -0.143211,-0.38468 -0.252645,-0.74432 -0.330078,-1.07618 -0.162801,-0.69772 -0.255859,-1.60211 -0.255859,-2.6914 0,-0.75863 0.02636,-1.54744 0.07813,-2.36328 v -0.006 c 0.06516,-0.67234 0.161202,-1.36088 0.261718,-2.05274 0.318187,-0.23917 0.648509,-0.46101 0.935547,-0.74804 0.437378,-0.43738 0.817887,-0.89969 1.144532,-1.38672 0.329722,-0.45215 0.622618,-0.90911 0.871093,-1.375 0.230766,-0.43269 0.423507,-0.81414 0.578125,-1.1543 l 0.996094,-2.19336 -2.384766,0.33984 c -0.361378,0.0517 -0.706299,0.09 -1.035156,0.11524 -0.323754,0.0249 -0.665349,0.0391 -1.021484,0.0391 -1.127397,0 -2.334508,-0.11732 -3.621094,-0.35351 h -0.002 c -1.312558,-0.2686 -2.554055,-0.57603 -3.724609,-0.92188 -1.175098,-0.34719 -2.190816,-0.70361 -3.042969,-1.06445 l -0.0059,-0.004 -0.002,-0.002 h -0.002 -0.002 -0.002 c -0.829036,-0.3643 -1.386914,-0.69796 -1.464844,-0.76172 l -0.710937,-0.58203 -0.792969,0.46484 c -1.540369,0.90298 -2.878431,1.50559 -3.974609,1.82227 l -0.0039,0.002 h -0.0039 c -1.095523,0.32368 -2.22495,0.48633 -3.404297,0.48633 -0.668956,0 -1.369507,-0.0387 -2.101562,-0.11719 -0.754119,-0.0808 -1.596272,-0.18982 -2.523438,-0.32617 l -1.669922,-0.24609 0.164063,1.68164 c 0.156961,1.60099 0.646156,2.98986 1.574219,4.02929 0.614002,0.68768 1.372681,1.18501 2.185547,1.57813 0.0024,0.10853 0.01172,0.21764 0.01172,0.32617 v 0.0469 l 0.0039,0.0469 c 0.02545,0.35636 0.03906,0.71223 0.03906,1.06836 0,1.35484 -0.13117,2.70904 -0.392578,4.06836 l -0.002,0.01 -0.002,0.01 c -0.217748,1.2339 -0.666165,2.33218 -1.363282,3.3418 l -0.611328,0.88476 0.742188,0.77735 c 0.357345,0.37436 0.734786,1.07195 1.003906,2.14843 l 0.002,0.0137 0.0039,0.0137 c 0.29812,1.0931 0.453125,2.28941 0.453125,3.59765 0,1.14593 -0.127926,2.25809 -0.380859,3.34766 -0.246749,1.03635 -0.603939,1.86165 -1.046875,2.50391 l -0.855469,1.24023 1.341797,0.68555 c 1.134774,0.57999 2.194796,1.32419 3.191406,2.24414 l 0.0078,0.006 0.0059,0.006 c 0.986667,0.88799 1.640673,1.80147 2.025391,2.75195 l 1.044922,2.58008 1.335937,-2.44141 c 0.613729,-1.12072 1.23567,-2.11042 1.861328,-2.9707 0.551994,-0.75899 1.360854,-1.52117 2.453125,-2.25781 L 46.25,151.43359 44.535156,150.35547 c -0.713465,-0.44846 -1.278597,-1.12687 -1.720703,-2.16797 -0.429871,-1.0794 -0.652344,-2.24317 -0.652344,-3.52539 v -0.33594 c 1.18541,0.0308 2.382803,0.0603 3.421875,0.11914 h 0.002 c 1.205582,0.067 2.204814,0.29779 3.13086,0.58203 l 0.642578,1.42774 1.341797,-1.78906 c 0.389288,-0.51906 0.773255,-0.98038 1.15039,-1.38282 l 0.002,-0.002 c 0.383806,-0.40755 0.787483,-0.76058 1.208985,-1.06641 0.43968,-0.2995 0.947443,-0.57429 1.533203,-0.81836 l 0.02148,-0.008 0.02148,-0.01 c 0.586327,-0.26873 1.299124,-0.52529 2.132812,-0.75977 l 1.53711,-0.43359 -0.529297,-1.05664 h 1.398437 c 0.06505,0.44064 0.12502,0.94487 0.179688,1.50976 l 0.002,0.0195 0.002,0.0215 c 0.106234,0.82329 0.186467,1.70551 0.240234,2.64648 v 0.002 c 0.05407,0.91922 0.08203,1.76664 0.08203,2.53907 0,1.52382 -0.09872,2.74095 -0.267579,3.60937 l -0.002,0.0137 -0.002,0.0156 c -0.132608,0.77355 -0.379451,1.14491 -0.390625,1.17187 l -0.816257,2.10234 1.935398,0.19454 c 0.05549,-0.0111 0.105784,-0.0156 0.15625,-0.0156 h 0.109375 l 0.107422,-0.0176 c 0.09575,-0.016 0.188444,-0.0234 0.28125,-0.0234 0.476565,0 1.155745,0.0598 1.998047,0.1914 0.846035,0.1322 1.69286,0.3036 2.541015,0.51563 0.846096,0.21152 1.617547,0.43464 2.320313,0.66797 0.672042,0.25034 1.111727,0.50317 1.191406,0.56836 l 0.923828,0.75586 0.845703,-0.84375 c 0.529465,-0.52947 1.127509,-1.04015 1.796875,-1.5293 l 0.01172,-0.01 0.01367,-0.01 c 0.664627,-0.51125 1.350801,-0.95571 2.060547,-1.33594 0.721275,-0.38639 1.437016,-0.7056 2.146484,-0.95898 0.69728,-0.24903 1.336399,-0.40334 1.914062,-0.47266 l 1.384766,-0.16601 -0.242187,-1.37305 c -0.09108,-0.51611 -0.173985,-1.03458 -0.248047,-1.55664 h 2.714843 v 2.03515 c 0,0.63742 -0.09228,1.07551 -0.175781,1.27344 -0.04175,0.099 -0.06112,0.13706 -0.07031,0.14844 h -0.002 v 0.002 h -0.002 -0.002 -0.002 l -0.002,-0.002 v -0.002 h -0.002 -0.002 l -0.861328,0.31836 v 2.86132 h 10.279297 v -2.86132 l -0.839844,-0.31055 c -0.01218,-0.0223 -0.0388,-0.0765 -0.08203,-0.19336 -0.101147,-0.27347 -0.199219,-0.82973 -0.199219,-1.60742 v -3.7793 c 0.255524,0.12764 0.542012,0.23473 0.787109,0.36914 l 0.01367,0.008 0.01563,0.008 c 0.613314,0.31654 1.21601,0.70675 1.818359,1.10156 v 2.70703 c 0,0.47965 -0.02586,1.00911 -0.07813,1.58398 -0.0534,0.58745 -0.119492,1.16067 -0.199218,1.71875 -0.07641,0.53486 -0.178251,1.03673 -0.302735,1.50977 l -0.0078,0.0332 -0.0059,0.0312 c -0.100389,0.47685 -0.21105,0.85811 -0.314453,1.12696 l -0.478515,1.24218 2.375,0.89063 0.599609,-0.60156 c 0.277855,-0.27786 0.63565,-0.58552 1.064453,-0.91407 0.465119,-0.33519 0.971262,-0.67305 1.521485,-1.01367 0.560463,-0.34695 1.134572,-0.68118 1.722656,-1.00195 0.08906,-0.0486 0.164363,-0.0804 0.251953,-0.12695 l 2.148572,-2.18496 c -0.15881,-0.726 -0.25977,-1.89024 -0.25977,-3.41406 0,-0.33951 0.004,-0.6573 0.01,-0.95508 h -9e-5 2.32031 c -0.0427,0.84406 -0.123,1.55254 -0.23242,2.11523 l -0.002,0.0137 -0.002,0.0156 c -0.13261,0.77355 -0.37945,1.1449 -0.39062,1.17187 z M 42.09375,128.1582 c 0.118967,0.0382 0.250172,0.0704 0.367187,0.10938 l 0.0293,0.01 0.03125,0.01 c 0.676326,0.18937 1.352462,0.39279 2.029297,0.60937 l 0.0293,0.008 0.03125,0.01 c 0.72792,0.19598 1.481419,0.39037 2.263672,0.58594 0.473126,0.11828 1.002376,0.22054 1.511719,0.32812 0.0078,0.38674 0.02148,0.72056 0.02148,1.17383 v 0.0215 l 0.08398,2.51367 c 0.02726,0.81776 0.04102,1.57845 0.04102,2.28125 v 0.0254 l 0.002,0.0254 c 0.01734,0.45086 0.03505,0.72856 0.05273,1.05664 -0.0979,0.0941 -0.209869,0.16149 -0.304687,0.26563 -0.04738,0.0479 -0.07019,0.11402 -0.115234,0.16406 -0.06986,-0.019 -0.120397,-0.0579 -0.19336,-0.0762 h -0.002 c -0.492105,-0.13 -1.029728,-0.21926 -1.621094,-0.2793 -0.58236,-0.0858 -1.185366,-0.14264 -1.8125,-0.17188 -0.631826,-0.0564 -1.241803,-0.0879 -1.828125,-0.0879 -0.208586,0 -0.405105,0.0168 -0.607422,0.0254 -0.0087,-0.57967 -0.02344,-1.16565 -0.02344,-1.73632 v -3.32032 -2.61718 c 0,-0.30628 0.01031,-0.6238 0.01367,-0.9336 z m 48.111328,9.6836 2.689453,0.53515 -2.689453,1.08789 z m 75.244142,0 2.6875,0.53515 -2.6875,1.08789 z m -62.98438,0.0156 h 0.002 l 0.002,0.002 c 0.005,0.006 0.0129,0.0202 0.0215,0.0391 -0.016,-0.0234 -0.0238,-0.0366 -0.0254,-0.041 z m -34.990231,0.41016 c 0.359169,0.10196 0.586799,0.23812 1,0.33203 l 0.01367,0.004 0.01563,0.004 c 0.87285,0.17854 1.775554,0.27469 2.673828,0.38477 l -0.06445,8.94922 c -0.542682,-0.12762 -1.045677,-0.28586 -1.625,-0.38477 -0.713773,-0.12186 -1.32609,-0.19892 -1.96875,-0.28906 0.02614,-0.57995 0.05766,-1.15498 0.07422,-1.74414 l 0.002,-0.0352 c 0.05497,-1.02708 0.08398,-1.95466 0.08398,-2.77734 0,-1.04734 -0.02926,-2.08065 -0.08594,-3.10157 v -0.002 c -0.02276,-0.4207 -0.08297,-0.89854 -0.119141,-1.33984 z m 43.558591,0 c 0.35917,0.10196 0.5868,0.23812 1,0.33203 l 0.0156,0.004 0.0137,0.004 c 0.87285,0.17854 1.77555,0.27469 2.67383,0.38477 l -0.0645,8.94922 c -0.54241,-0.12754 -1.046,-0.28591 -1.625,-0.38477 -0.71378,-0.12186 -1.32609,-0.19892 -1.96875,-0.28906 0.0261,-0.57996 0.0577,-1.15497 0.0742,-1.74414 l 0.002,-0.0352 c 0.0549,-1.02707 0.084,-1.95467 0.084,-2.77734 0,-1.04732 -0.0293,-2.08066 -0.0859,-3.10157 v -0.002 c -0.0228,-0.4207 -0.083,-0.89854 -0.11914,-1.33984 z m 35.10352,6.87695 v 0.18359 c 0,0.75725 -0.0399,1.48189 -0.11719,2.17774 l 0.002,-0.004 c -0.0241,0.20861 -0.0795,0.48324 -0.11132,0.70899 -1.43289,-0.60959 -2.90941,-1.24775 -3.91797,-1.59766 -0.69626,-0.24156 -1.13107,-0.24977 -1.68164,-0.38281 1.00259,-0.242 1.99149,-0.4916 3.09375,-0.68164 l 0.01,-0.002 0.0117,-0.002 c 1.03859,-0.19698 1.85047,-0.28773 2.71094,-0.40039 z m 41.77344,0.11133 v 2.48633 c -0.34688,-0.0463 -0.75955,-0.14897 -1.07227,-0.16211 h -0.004 c -0.19736,-0.009 -0.38376,-0.0277 -0.57812,-0.0391 l 0.0371,-1.87305 c 0.31735,-0.0646 0.58874,-0.0917 0.94336,-0.1836 l 0.0215,-0.006 0.0215,-0.008 c 0.2041,-0.0605 0.42349,-0.14867 0.63086,-0.21484 z"
       sodipodi:nodetypes="csccssscscccccssccccccccccccccccssccsscccccccscccccccccccccccccssssccccccsscccccccccccccccccscccccscsccccccccsssccsccccccccccccscccsscccccccccccscccccccscccccccccccccccccccccccsscscccccsccsscscccccscscccsscccscscccccccccccccccssccccccscscccsscccsccccccccsccsccsscccccccsccccsscccccccccsscccccscccccccccsccsccccccccccccccccsscccsccscccccccsccccsscccccccssccccccccccccccscsccccccscscccsscccsccccccccsccsccccsscscccccsscccscsccccsccsccccccccscccsccccscsccscccccccccsccccccccccsscccscccccscccccccccccccccsccccccsccssscscccccsscccccsscccccccccccccccsscccccsssccccccccssccscccscccccscccccscsccscccccccccscscsccccccccccccccccccccscccscccccccccscccsccccscccsccccccccccccccccccccc"
       inkscape:label="text" /></g></svg>
