<?xml version="1.0" encoding="UTF-8" standalone="no"?>
<svg
   version="1.2"
   viewBox="0 0 219.2126 219.2126"
   width="58mm"
   height="58mm"
   id="svg1"
   sodipodi:docname="PoRoleTokenLaser.svg"
   inkscape:version="1.4.2 (f4327f4, 2025-05-13)"
   xml:space="preserve"
   xmlns:inkscape="http://www.inkscape.org/namespaces/inkscape"
   xmlns:sodipodi="http://sodipodi.sourceforge.net/DTD/sodipodi-0.dtd"
   xmlns="http://www.w3.org/2000/svg"
   xmlns:svg="http://www.w3.org/2000/svg"><sodipodi:namedview
     id="namedview1"
     pagecolor="#ffffff"
     bordercolor="#666666"
     borderopacity="1.0"
     inkscape:showpageshadow="2"
     inkscape:pageopacity="0.0"
     inkscape:pagecheckerboard="0"
     inkscape:deskcolor="#d1d1d1"
     inkscape:zoom="1.2309643"
     inkscape:cx="-45.086604"
     inkscape:cy="84.080424"
     inkscape:window-width="1920"
     inkscape:window-height="1057"
     inkscape:window-x="-8"
     inkscape:window-y="-8"
     inkscape:window-maximized="1"
     inkscape:current-layer="path2-5"
     inkscape:document-units="mm"
     showgrid="false" /><defs
     id="defs1"><clipPath
       clipPathUnits="userSpaceOnUse"
       id="cp1"><path
         d="m 275.5,535.5 c -143.78,0 -260,-116.22 -260,-260 0,-143.78 116.22,-260 260,-260 143.78,0 260,116.22 260,260 0,143.78 -116.22,260 -260,260 z"
         id="path1" /></clipPath></defs><style
     id="style1">
		tspan { white-space:pre } 
		.s0 { fill: none;stroke: #ff0000;stroke-miterlimit:100 } 
	</style><g
     inkscape:groupmode="layer"
     id="layer2"
     inkscape:label="Content"><g
       inkscape:groupmode="layer"
       id="layer4"
       inkscape:label="Kruh"
       style="display:inline"><path
         id="path2"
         style="fill:none;stroke:#000000;stroke-width:0.189192"
         d="M 219.118,109.6063 A 109.5117,109.5117 0 0 1 109.6063,219.118 109.5117,109.5117 0 0 1 0.09459686,109.6063 109.5117,109.5117 0 0 1 109.6063,0.09459686 109.5117,109.5117 0 0 1 219.118,109.6063 Z"
         inkscape:label="Vnejsi kruh" /><path
         id="circle2"
         style="fill:none;stroke:#000000;stroke-width:0.188976"
         d="M 208.69732,109.6063 A 99.091019,99.091019 0 0 1 109.6063,208.69732 99.091019,99.091019 0 0 1 10.515282,109.6063 99.091019,99.091019 0 0 1 109.6063,10.515282 99.091019,99.091019 0 0 1 208.69732,109.6063 Z"
         inkscape:label="Vnitrni kruh" /></g><path
       id="path3"
       style="font-size:41.5223px;font-family:'New Rocker';-inkscape-font-specification:'New Rocker';letter-spacing:0.769167px;baseline-shift:baseline;white-space:pre;display:inline;overflow:visible;opacity:1;fill:none;stroke:#000000;stroke-width:0.188976;stroke-dasharray:none;stroke-opacity:1;enable-background:accumulate;stop-color:#000000;stop-opacity:1"
       d="m 124.69495,130.4566 -1.08203,2.16797 c -0.25782,0.51562 -0.59993,1.12651 -1.02344,1.82227 l -0.0117,0.0215 -0.0117,0.0215 c -0.39202,0.69358 -0.81516,1.38726 -1.26953,2.08398 l -0.006,0.008 -0.004,0.008 c -0.43725,0.6871 -0.86028,1.34318 -1.26562,1.96679 l -0.0156,0.0215 -0.0137,0.0234 c -0.37869,0.63117 -0.67928,1.13769 -0.9043,1.52343 l -0.65039,1.11719 1.00977,0.80664 c 0.41715,0.33373 0.68944,0.61021 0.78906,0.73828 l 0.0566,0.0742 0.0664,0.0664 c 0.31737,0.31737 0.72181,0.66581 1.24609,1.09179 l 1.04687,0.85157 0.95508,-0.95508 c 0.0293,-0.0293 0.0585,-0.0585 0.0879,-0.0879 v 2.25976 c -0.28788,-0.09 -0.58148,-0.18472 -0.88281,-0.2832 l -0.78125,-0.7793 -1.05859,1.0586 c -1.33965,1.33966 -2.70826,2.44016 -4.10547,3.31445 -1.39477,0.8414 -2.60471,1.32333 -3.57813,1.49805 l -2.47656,0.44531 1.12109,1.40039 h -1.79101 c -0.19069,-0.49405 -0.33379,-0.9517 -0.43164,-1.37109 -0.18467,-0.79146 -0.28906,-1.81513 -0.28906,-3.05078 0,-0.8705 0.0296,-1.77598 0.0898,-2.7129 0.0735,-0.75486 0.18014,-1.52618 0.29297,-2.30273 0.36151,-0.27163 0.73446,-0.52354 1.06055,-0.84961 0.49842,-0.49843 0.93696,-1.02674 1.30859,-1.58203 0.37124,-0.50992 0.70031,-1.02546 0.98047,-1.55078 0.26178,-0.49083 0.47889,-0.92273 0.65429,-1.3086 l 1.13086,-2.48828 -2.70703,0.38477 c -0.40992,0.0586 -0.8008,0.10223 -1.17383,0.13086 -0.36726,0.0282 -0.75227,0.043 -1.15625,0.043 -1.27888,0 -2.64796,-0.13052 -4.10742,-0.39844 h -0.002 c -1.48892,-0.30469 -2.90069,-0.65456 -4.22851,-1.04688 -1.33298,-0.39383 -2.482573,-0.7977 -3.449224,-1.20703 l -0.0059,-0.006 h -0.002 -0.0039 l -0.002,-0.002 h -0.002 c -0.940426,-0.41325 -1.57371,-0.79095 -1.662109,-0.86328 l -0.806641,-0.66016 -0.898437,0.52735 c -1.747336,1.02431 -3.268257,1.70717 -4.511719,2.0664 h -0.0039 l -0.0039,0.002 c -1.24272,0.36717 -2.523524,0.55273 -3.861329,0.55273 -0.758838,0 -1.55435,-0.0438 -2.384765,-0.13281 -0.855443,-0.0917 -1.807634,-0.21643 -2.859375,-0.3711 l -1.896485,-0.27929 0.1875,1.90625 c 0.178051,1.81612 0.732398,3.39317 1.785157,4.57226 0.696744,0.78035 1.557997,1.34505 2.480468,1.79102 0.0026,0.1226 0.01172,0.24459 0.01172,0.36719 v 0.0547 l 0.0059,0.0547 c 0.02887,0.40424 0.04102,0.80696 0.04102,1.21094 0,1.53688 -0.146828,3.07327 -0.443359,4.61523 l -0.002,0.0117 -0.002,0.0117 c -0.247005,1.39969 -0.756094,2.64378 -1.546875,3.78906 l -0.69336,1.00391 0.841797,0.88086 c 0.405357,0.42466 0.83144,1.21833 1.136719,2.43945 l 0.0039,0.0137 0.0059,0.0156 c 0.338176,1.23997 0.511719,2.59801 0.511719,4.08203 0,1.3014 -0.146016,2.56345 -0.433594,3.80078 v 0.002 c -0.279841,1.17184 -0.686191,2.10708 -1.1875,2.83399 l -0.966796,1.4082 1.519531,0.77735 c 1.287242,0.65792 2.492531,1.50136 3.623047,2.54492 l 0.0059,0.008 0.0059,0.004 c 1.119236,1.00731 1.864373,2.04681 2.300782,3.125 l 1.185547,2.92578 1.515625,-2.76953 c 0.69619,-1.2713 1.401606,-2.39524 2.111328,-3.3711 0.626161,-0.86098 1.544173,-1.72297 2.783203,-2.55859 l 1.904297,-1.28516 -1.947266,-1.22265 c -0.809327,-0.50872 -1.449664,-1.27996 -1.951172,-2.46094 -0.488146,-1.22498 -0.738281,-2.54278 -0.738281,-3.99805 v -0.38086 c 1.344057,0.0349 2.702665,0.0661 3.880859,0.13282 h 0.002 c 0.76012,0.0422 1.313037,0.24678 1.974608,0.36718 l 2.99219,0.0566 2.1621,-1.75781 c 0.43028,-0.45482 0.8796,-0.85092 1.35157,-1.19336 0.49875,-0.33974 1.07576,-0.65283 1.74023,-0.92969 l 0.0254,-0.0117 0.0215,-0.008 c 0.6651,-0.30485 1.47422,-0.59535 2.41992,-0.86133 l 1.74414,-0.49218 -0.64258,-1.28516 h 1.61524 c 0.0784,0.51898 0.15136,1.11876 0.21679,1.79492 l 0.002,0.0254 0.004,0.0234 c 0.12052,0.93388 0.21248,1.93457 0.27344,3.00195 v 0.004 c 0.0614,1.0427 0.0898,2.00272 0.0898,2.87891 0,1.72856 -0.10928,3.10864 -0.30078,4.09375 l -0.002,0.0156 -0.006,0.0176 c -0.15042,0.87749 -0.42874,1.29949 -0.44141,1.33008 l -0.90039,2.17969 2.17188,0.42578 c 0.063,-0.0126 0.11853,-0.0176 0.17578,-0.0176 h 0.125 l 0.12109,-0.0215 c 0.10867,-0.0182 0.21503,-0.0273 0.32031,-0.0273 0.54059,0 1.3082,0.0694 2.26368,0.21875 0.9597,0.14996 1.92069,0.34542 2.88281,0.58594 0.96395,0.24098 1.8446,0.4958 2.64453,0.76172 0.75115,0.28155 1.24828,0.5673 1.33789,0.64062 l 1.05078,0.85742 0.95703,-0.95898 c 0.60061,-0.6006 1.27976,-1.17754 2.03907,-1.73242 l 0.0156,-0.0117 0.0156,-0.0117 c 0.75393,-0.57996 1.53082,-1.08431 2.33593,-1.51563 0.81819,-0.43831 1.6288,-0.80047 2.4336,-1.08789 0.79096,-0.28249 1.5166,-0.45651 2.17187,-0.53515 l 1.57031,-0.18946 -0.27539,-1.55664 c -0.54949,-3.11383 -0.82421,-6.32273 -0.82421,-9.63086 0,-2.69521 0.1861,-5.0131 0.54101,-6.93554 l 0.39453,-2.13281 -2.13672,0.38671 c -0.28388,0.0516 -0.58713,0.0915 -0.90625,0.11914 h -1.46093 c -1.12225,0 -2.37592,-0.1165 -3.75,-0.35546 -0.64661,-0.11246 -1.40673,-0.29092 -2.26172,-0.52539 v -4.47461 c 0.68914,-0.6265 1.34474,-1.22178 1.9707,-1.78516 0.60445,-0.54399 1.15639,-1.00504 1.65039,-1.38281 l 0.0215,-0.0156 0.0215,-0.0176 c 0.51477,-0.42391 0.9061,-0.71994 1.10352,-0.85156 l 2.01562,-1.34375 -2.10352,-1.20312 c -0.16599,-0.0948 -0.48216,-0.28875 -0.88476,-0.54688 -0.38819,-0.29783 -0.80255,-0.60688 -1.24219,-0.92969 l -0.0176,-0.0137 c -0.008,-0.006 -0.0135,-0.0117 -0.0215,-0.0176 -0.39584,-0.31174 -0.77664,-0.62318 -1.14453,-0.93359 l -0.008,-0.006 c -0.32977,-0.30311 -0.55669,-0.55344 -0.6543,-0.68359 z m -31.509761,11.66993 c 0.134951,0.0433 0.283277,0.0808 0.416015,0.125 l 0.03516,0.01 0.03711,0.0117 c 0.767198,0.21481 1.533004,0.44573 2.300781,0.69141 l 0.0332,0.01 0.0332,0.008 c 0.825723,0.2223 1.682955,0.44612 2.570312,0.66797 0.536697,0.13417 1.137067,0.24906 1.714843,0.3711 0.009,0.4387 0.0254,0.81787 0.0254,1.33203 v 0.0254 0.0234 c 0.0315,0.94199 0.0624,1.88613 0.0937,2.82812 0.0309,0.92763 0.0469,1.7887 0.0469,2.58594 v 0.0293 0.0293 c 0.0197,0.51044 0.0406,0.8256 0.0606,1.19727 -0.10931,0.10504 -0.2359,0.18078 -0.3418,0.29687 -0.0554,0.0559 -0.0802,0.13296 -0.13281,0.19141 -0.0793,-0.0216 -0.135946,-0.0652 -0.218746,-0.0859 h -0.002 c -0.55822,-0.14747 -1.16902,-0.24829 -1.839847,-0.3164 -0.661335,-0.0974 -1.348309,-0.16219 -2.060547,-0.19532 -0.715128,-0.0639 -1.404617,-0.0996 -2.068359,-0.0996 -0.236968,0 -0.461568,0.0195 -0.691406,0.0293 -0.0099,-0.65756 -0.02734,-1.32335 -0.02734,-1.9707 v -3.76758 -2.9668 c 0,-0.34744 0.01181,-0.70912 0.01563,-1.06054 z m 28.792971,11.46875 c 0.40743,0.11566 0.66604,0.26847 1.13476,0.375 l 0.0156,0.006 0.0156,0.002 c 0.99015,0.20253 2.01422,0.31458 3.03321,0.43945 l -0.0703,10.14844 c -0.61592,-0.14487 -1.18816,-0.32328 -1.8457,-0.43555 -0.80886,-0.13809 -1.50406,-0.22399 -2.23242,-0.32617 0.0297,-0.65789 0.0653,-1.31019 0.084,-1.97852 l 0.002,-0.041 c 0.0623,-1.16506 0.0937,-2.21719 0.0937,-3.15039 0,-1.18804 -0.0314,-2.3595 -0.0957,-3.51758 v -0.002 c -0.0259,-0.4772 -0.0937,-1.01896 -0.13476,-1.51953 z"
       inkscape:label="text" /><g
       id="path2-5"
       style="opacity:1"><path
         id="path4"
         style="baseline-shift:baseline;display:inline;overflow:visible;fill:none;stroke:#000000;stroke-width:0.188976;stroke-dasharray:none;stroke-opacity:1;enable-background:accumulate;stop-color:#000000;stop-opacity:1"
         d="m 99.265625,24.222656 c -0.229256,0.0085 -0.671773,0.27465 -0.917969,0.388672 -1.062743,0.492172 -1.692156,1.494079 -2.015625,2.556641 -0.323469,1.062563 -0.37189,2.234505 -0.197266,3.333984 0.05486,0.345428 0.130326,0.685012 0.230469,1.011719 0,0 -0.04071,0.687388 -0.287109,0.865234 -0.246527,0.17794 -0.697124,-0.214986 -0.91211,0 -0.929919,0.929919 -1.066492,3.175837 0,3.945313 0.341595,0.246462 1.199219,-0.398438 1.199219,-0.398438 0.993528,-0.329916 1.766894,-1.035014 1.900391,-1.929687 0.667271,0.30497 1.4753,0.365555 2.249995,0.05664 0.30353,-0.121033 0.56981,-0.288465 0.80079,-0.490234 -0.0991,0.359487 -0.22703,0.678045 -0.41016,0.939453 -0.3685,0.526032 -0.912551,0.975763 -1.515625,1.519531 -0.603074,0.543769 -1.26978,1.202791 -1.677735,2.171875 -0.493292,1.171819 -0.704038,2.601623 -1.138672,3.738281 -0.217317,0.568329 -0.478501,1.044901 -0.785156,1.371094 -0.306654,0.326193 -0.635501,0.525018 -1.158203,0.601563 -0.09729,0.01425 -0.100229,0.01567 -0.222656,-0.08203 -0.122426,-0.0977 -0.302251,-0.322126 -0.478516,-0.617187 -0.352528,-0.590122 -0.611754,-1.382522 -1.185547,-2.041016 -0.671912,-0.771102 -1.471924,-1.236247 -2.294922,-1.355468 -0.822999,-0.119222 -1.611232,0.09891 -2.285156,0.46289 -0.909685,0.491311 -1.609295,1.248658 -2.21289,2.03711 -0.271807,-0.288829 -0.577448,-0.551088 -0.984375,-0.708985 -0.458564,-0.177933 -1.122973,-0.160371 -1.59961,0.19336 -0.476636,0.35373 -0.726994,0.88078 -0.886719,1.527343 -0.113647,0.460038 -0.107458,0.914171 -0.09961,1.365235 -0.109745,-0.646447 -0.190908,-1.318429 -0.619141,-1.923828 -0.290876,-0.411215 -0.705452,-0.796645 -1.265625,-0.976563 -0.560173,-0.179918 -1.213914,-0.110734 -1.816406,0.173828 -0.964403,0.455499 -1.543569,1.322529 -1.810547,2.19336 -0.266979,0.870831 -0.27195,1.772553 -0.144531,2.570312 0.788128,4.934385 0.866682,9.388006 1.207031,14.455078 0.04798,0.714397 0.309143,1.421304 0.859375,1.958985 0.550231,0.53768 1.517555,0.795152 2.382813,0.439453 0.636248,-0.26156 1.069172,-0.827088 1.255859,-1.378907 0.06001,-0.177373 0.02603,-0.350244 0.05469,-0.527343 0.431964,3.163224 1.930346,5.986325 2.308593,8.763672 0.006,0.04394 0.0051,0.906682 -0.01953,1.851562 -0.02467,0.94488 -0.04566,2.087193 0.01953,3.167969 0.06519,1.080776 0.173347,2.080318 0.607422,2.912109 0.217037,0.415896 0.571565,0.842965 1.121094,1.011719 0.54953,0.168755 1.133545,0.01058 1.615234,-0.28125 0.63763,-0.386302 0.931695,-1.061716 1.039063,-1.677735 0.107368,-0.616019 0.07189,-1.244238 0.002,-1.863281 -0.140081,-1.238085 -0.429613,-2.536054 -0.431641,-2.951172 -0.01149,-2.351022 0.01095,-4.070867 0.5,-5.361328 0.343245,-0.905718 1.085043,-1.669372 2.138672,-2.421875 -0.165814,1.318911 -0.37892,2.577686 -0.341797,4.173828 0.05527,2.376625 0.282715,4.695979 0.783204,6.173829 0.153918,0.45449 0.326637,0.822365 0.574218,1.132812 0.24758,0.310448 0.620521,0.578582 1.058594,0.632813 0.438074,0.05423 0.829055,-0.110759 1.103516,-0.306641 0.274461,-0.195881 0.47665,-0.429278 0.65625,-0.681641 0.182645,-0.256642 0.289285,-0.555582 0.433593,-0.83789 0.872392,3.104638 2.214872,5.838239 2.732422,8.759765 0.893585,5.044208 0.02621,10.180511 0.01758,15.533203 -0.0014,0.8218 -0.233491,2.66291 -0.0918,4.37695 0.07085,0.85703 0.228317,1.70833 0.644531,2.45703 0.416214,0.74869 1.191662,1.37798 2.173832,1.50391 0.84427,0.10825 1.64572,-0.1649 2.20117,-0.64258 0.55544,-0.47767 0.89882,-1.10402 1.14453,-1.74804 0.49141,-1.28805 0.60505,-2.71286 0.63086,-3.625 0.16598,-5.866151 -0.30335,-11.754665 -0.26563,-17.539067 3.28933,1.080876 6.95878,1.128594 10.23243,-0.06055 3.35671,15.130543 1.13464,25.369463 1.13464,41.047373 v 0.92383 l 0.92383,-0.01 c 1.6699,-0.0198 2.95779,-0.77243 3.6289,-1.90039 0.67112,-1.12796 0.81446,-2.49353 0.79102,-3.90625 -0.0469,-2.82544 -0.53017,-2.07545 -0.55067,-3.79882 -0.14106,-11.85666 -2.0878,-23.122402 2.90431,-33.79738 1.50495,2.950053 1.29297,6.511471 1.29297,10.212891 0,7.641359 -0.5018,15.836699 0.38867,23.455079 l 0.17578,1.50195 1.24805,-0.85547 c 2.43256,-1.67089 2.93442,-4.64863 2.89648,-7.51757 -0.0379,-2.86895 -0.58789,-5.83323 -0.58789,-7.78125 0,-10.332336 0.11308,-18.808188 3.74414,-28.382817 0.56556,-1.491297 0.76583,-3.154167 1.11328,-4.625 0.0193,-0.08176 0.0521,-0.140562 0.0723,-0.220703 -0.004,0.414855 -0.0688,0.675808 -0.0371,1.076172 0.0732,0.925344 0.23036,1.824354 0.83398,2.542968 0.60362,0.718614 1.73131,0.977145 2.82813,0.623047 l 0.80078,-0.259765 -0.19336,-0.81836 c -1.35585,-5.769534 -0.10021,-11.99748 -1.31641,-18.335937 -0.65359,-3.406297 -2.49959,-5.549656 -3.67969,-8.232422 -1.37229,-3.119722 -2.67602,-5.630296 -4.65625,-7.5 -1.98022,-1.869704 -4.60986,-3.011409 -8.35351,-3.453125 -2.05034,-0.24192 -3.69747,0.351963 -5.31445,0.890625 0.0475,-1.576245 -0.26524,-3.086083 -1.19922,-4.21875 -1.0706,-1.298346 -2.72626,-2.113422 -4.67969,-2.166016 -0.27906,-0.0075 -0.56514,9.91e-4 -0.85547,0.02539 -1.28722,0.108185 -2.25484,0.59862 -3.08203,0.9375 -0.82719,0.33888 -1.48671,0.553496 -2.44336,0.404297 l -0.19336,0.128906 c 0.0373,-0.63604 -0.002,-1.283917 -0.10547,-1.910156 -0.18292,-1.108711 -0.55067,-2.153423 -1.23633,-2.927734 -0.34284,-0.387155 -0.78706,-0.710481 -1.32617,-0.84961 -0.202158,-0.05217 -0.626951,0.143844 -0.626951,-0.07031 0,-0.100387 -0.05678,-0.136123 -0.146484,-0.132813 z M 82.566406,46.458984 c 0.01877,0.09574 0.02553,0.198508 0.04492,0.292969 0.221843,1.080714 0.472812,2.097363 0.478515,2.896484 0.0223,3.123346 -0.649738,6.34567 -0.652343,9.763672 -0.08769,-0.526022 -0.182379,-1.192796 -0.203125,-1.429687 -0.334477,-3.819197 0.399268,-7.533962 0.332031,-11.523438 z m 5.089844,36.681641 c -0.300527,0.005 -0.606291,0.08295 -0.855469,0.228515 -0.867188,0.5066 -1.12863,1.386369 -1.359375,2.34961 -0.230744,0.963241 -0.347953,2.091206 -0.40625,3.236328 -0.116594,2.290245 0.0041,4.584638 0.144531,5.595703 0.07359,0.529725 0.183548,1.387614 0.591797,2.177734 0.204125,0.39506 0.503849,0.806157 1.001953,1.054688 0.498105,0.248531 1.143878,0.241538 1.708985,0.0098 1.020007,-0.418475 1.533625,-1.411559 1.78125,-2.43164 0.247625,-1.020081 0.279002,-2.174431 0.226562,-3.345703 -0.104879,-2.342544 -0.577581,-4.781416 -0.716797,-5.757813 -0.04819,-0.337984 -0.144124,-1.121239 -0.46289,-1.857422 -0.159383,-0.368092 -0.367414,-0.764316 -0.828125,-1.052734 -0.230356,-0.144209 -0.525645,-0.212063 -0.826172,-0.207031 z"
         sodipodi:nodetypes="sssscsssccscssssssssssscssscssssssssscscssssscsscsssssscscssssssccsccssscsccccsssccscccsssscssssccssssscsscsccsssssscsssssc" /></g></g></svg>
