<?xml version="1.0" encoding="UTF-8" standalone="no"?>
<svg
   version="1.2"
   viewBox="0 0 219.2126 219.2126"
   width="58mm"
   height="58mm"
   id="svg1"
   sodipodi:docname="PukkaRoleTokenLaser.svg"
   inkscape:version="1.4.2 (f4327f4, 2025-05-13)"
   xml:space="preserve"
   xmlns:inkscape="http://www.inkscape.org/namespaces/inkscape"
   xmlns:sodipodi="http://sodipodi.sourceforge.net/DTD/sodipodi-0.dtd"
   xmlns="http://www.w3.org/2000/svg"
   xmlns:svg="http://www.w3.org/2000/svg"><sodipodi:namedview
     id="namedview1"
     pagecolor="#ffffff"
     bordercolor="#666666"
     borderopacity="1.0"
     inkscape:showpageshadow="2"
     inkscape:pageopacity="0.0"
     inkscape:pagecheckerboard="0"
     inkscape:deskcolor="#d1d1d1"
     inkscape:zoom="3.4816928"
     inkscape:cx="81.425908"
     inkscape:cy="73.958277"
     inkscape:window-width="1920"
     inkscape:window-height="1057"
     inkscape:window-x="-8"
     inkscape:window-y="-8"
     inkscape:window-maximized="1"
     inkscape:current-layer="layer2"
     inkscape:document-units="mm"
     showgrid="false" /><defs
     id="defs1"><clipPath
       clipPathUnits="userSpaceOnUse"
       id="cp1"><path
         d="m 275.5,535.5 c -143.78,0 -260,-116.22 -260,-260 0,-143.78 116.22,-260 260,-260 143.78,0 260,116.22 260,260 0,143.78 -116.22,260 -260,260 z"
         id="path1" /></clipPath></defs><style
     id="style1">
		tspan { white-space:pre } 
		.s0 { fill: none;stroke: #ff0000;stroke-miterlimit:100 } 
	</style><g
     inkscape:groupmode="layer"
     id="layer2"
     inkscape:label="Content"><g
       inkscape:groupmode="layer"
       id="layer4"
       inkscape:label="Kruh"
       style="display:inline"><path
         id="path2"
         style="fill:none;stroke:#000000;stroke-width:0.189192"
         d="M 219.118,109.6063 A 109.5117,109.5117 0 0 1 109.6063,219.118 109.5117,109.5117 0 0 1 0.09459686,109.6063 109.5117,109.5117 0 0 1 109.6063,0.09459686 109.5117,109.5117 0 0 1 219.118,109.6063 Z"
         inkscape:label="Vnejsi kruh" /><path
         id="circle2"
         style="fill:none;stroke:#000000;stroke-width:0.188976"
         d="M 208.69732,109.6063 A 99.091019,99.091019 0 0 1 109.6063,208.69732 99.091019,99.091019 0 0 1 10.515282,109.6063 99.091019,99.091019 0 0 1 109.6063,10.515282 99.091019,99.091019 0 0 1 208.69732,109.6063 Z"
         inkscape:label="Vnitrni kruh" /></g><g
       id="text2-9"
       inkscape:label="Text"
       style="opacity:1" /><path
       id="path4"
       style="baseline-shift:baseline;display:inline;overflow:visible;opacity:1;fill:none;enable-background:accumulate;stop-color:#000000;stop-opacity:1;stroke:#000000;stroke-opacity:1;stroke-width:0.18897638;stroke-dasharray:none"
       d="m 143.28516,32.476562 c -1.07865,-0.03808 -2.07809,0.214196 -2.93946,0.722657 -1.72274,1.016922 -2.854,2.807181 -3.75,4.802734 -1.792,3.991107 -2.67701,9.108994 -3.54297,11.580078 -4.92087,14.042156 -10.81464,28.349941 -20.19531,39.816406 -3.38041,4.132083 -6.83101,8.288503 -11.78717,8.963068 -2.039898,0.277646 -2.951023,0.501624 -3.849668,-0.197362 C 96.321938,97.465157 94.961189,96.85384 94.625,95.410156 93.952623,92.522789 94.4702,88.51569 95.210937,85.785156 96.47987,81.107606 99.3678,76.29766 102,71.330078 c 2.6322,-4.967582 5.02751,-10.127235 5.0293,-15.658203 0.002,-5.055438 -2.7496,-10.20824 -5.77539,-13.828125 -2.491304,-2.980434 -5.83994,-5.286158 -9.894535,-5.792969 -2.325579,-0.29069 -4.208705,0.430508 -5.806641,1.197266 -1.597936,0.766757 -2.965347,1.549588 -4.519531,1.796875 -0.45666,0.07266 -0.589866,-0.0057 -0.871094,-0.251953 C 79.880882,38.546716 79.55653,38.06364 79.228515,37.5 78.9005,36.93636 78.588509,36.303426 78.017578,35.738281 c -0.285465,-0.282572 -0.667431,-0.557497 -1.154297,-0.68164 -0.486865,-0.124143 -1.032718,-0.06335 -1.503906,0.128906 -1.44485,0.589539 -2.34987,1.857745 -3.119141,3.115234 -0.76927,1.257489 -1.379338,2.587183 -1.828125,3.392578 -2.985833,5.358393 -5.943797,12.163115 -5.847656,18.681641 v 0.002 c 0.01143,0.774552 0.07948,2.060077 0.285156,3.351562 0.205679,1.291484 0.396809,2.559776 1.339844,3.541016 0.821351,0.85463 1.949318,1.256712 2.927734,1.072266 0.978417,-0.184446 1.707042,-0.762275 2.335938,-1.375 1.257791,-1.225451 2.332029,-2.852864 2.798828,-3.257813 2.708952,-2.350013 6.345419,-4.02592 9.916015,-5.958984 3.052879,-1.652781 6.032213,-3.575037 8.277344,-6.361328 1.450432,2.484323 1.686562,5.302001 1.121094,8.292968 -0.666408,3.524877 -3.276952,6.977391 -4.965911,9.949397 -3.656892,6.434928 -7.452528,15.357237 -9.02823,24.009588 -0.787851,4.326175 -0.793769,8.653828 0.589844,12.634768 1.383614,3.98094 4.18209,7.56926 8.757813,10.31641 4.286651,2.57358 8.750759,2.70315 12.886718,1.58398 4.13596,-1.11916 8.00473,-3.42735 11.49805,-5.75195 16.58839,-11.03868 22.27675,-28.573766 30.14648,-45.189458 0.97976,-2.06862 2.12857,-4.189076 3.72266,-5.361328 0.83284,-0.612453 1.90006,-1.035499 3.01562,-1.65625 1.11557,-0.620751 2.30407,-1.522946 2.98633,-3.052735 1.67749,-3.761231 1.89692,-8.558584 0.83008,-12.990234 -1.06685,-4.43165 -3.45403,-8.558337 -7.30274,-10.679687 -1.18086,-0.650876 -2.33932,-0.9795 -3.41796,-1.017579 z m 3.09765,6.501953 c 1.01179,1.253733 1.84328,2.638495 2.11524,3.326172 -0.80804,1.306016 -1.00371,2.784692 -0.95508,4.050782 0.0594,1.547935 0.11453,2.824413 -0.39453,3.679687 -1.21166,2.035843 -3.5824,3.568544 -5.02149,6.4375 -9.06031,18.062471 -12.85808,38.205645 -29.21679,50.855464 -3.73179,2.88569 -7.6695,4.98938 -11.57422,5.63086 -3.904723,0.64149 -7.784025,-0.10146 -11.74805,-3.08007 -1.640741,-1.23288 -3.275766,-2.33401 -3.84375,-3.75782 -0.981097,-2.45941 -0.931358,-6.226771 -0.648437,-9.150387 0.405972,-4.195171 1.607407,-8.582384 3.550781,-12.28125 1.770472,-3.369775 4.889894,-7.265533 5.101563,-11.886719 l 0.05859,-1.255859 h -1.195312 c 0.272817,-0.478635 0.525997,-0.949488 0.796875,-1.431641 2.741211,-4.879246 5.301077,-10.001025 5.691406,-16.037109 0.16504,-2.552348 -0.02734,-5.671469 -1.259766,-8.183594 -0.238833,-0.486825 -0.565088,-0.923428 -0.898437,-1.351562 l 0.146484,0.0332 -2.277343,-2.732422 c -0.417844,-0.501586 -0.957998,-0.724518 -1.480469,-0.982422 3.185854,0.792929 5.99487,3.043194 7.812505,7.556641 3.12309,7.755122 -0.01,15.074065 -3.908208,22.794921 -3.898609,7.720855 -8.589601,15.69661 -7.451172,24.457032 0.408835,3.146081 2.137279,5.333601 4.390625,6.460941 2.253346,1.12734 4.941596,1.30783 7.560545,0.99023 7.94442,-0.96344 15.74031,-7.149031 19.3379,-14.083984 l 1.38671,-5.998047 5.7168,-6.564453 c -0.0716,-0.225653 4.24213,-12.795322 4.3672,-12.996337 5.52456,-8.879406 3.93616,-7.086622 6.93358,-16.136475 0.64934,-1.960489 1.30947,-4.093747 2.22071,-5.382813 0.45562,-0.644533 0.93698,-1.060046 1.48632,-1.271484 0.54935,-0.211438 1.22609,-0.261567 2.24805,0.05664 z m -57.105467,1.66211 c -1.035402,0.289052 -2.093415,0.61089 -2.916015,0.984375 -4.09732,1.860282 -7.114211,4.78779 -10.003906,7.765625 0.921153,-1.227947 1.930912,-2.488456 2.677734,-3.273438 3.030202,-3.185038 6.727997,-5.050822 10.242187,-5.476562 z m -13.613281,0.677734 0.441407,1.119141 -1.525391,2.082031 -2.648438,2.78125 c 0.905667,-2.355476 2.187765,-4.529288 3.732422,-5.982422 z m 9.970703,5.38086 c 0.621821,-0.01268 1.591549,0.08433 2.591797,0.255859 0.618462,0.106057 1.223437,0.147566 1.84961,0.25 -3.19944,4.717269 -9.824945,7.561793 -14.935547,10.990234 -1.410649,0.946326 -2.611264,2.050728 -3.763672,3.0625 1.577045,-3.347073 4.390401,-5.912199 7.205078,-9.152343 1.698345,-1.955074 4.552522,-4.849736 6.558594,-5.355469 0.118183,-0.0298 0.286867,-0.04655 0.49414,-0.05078 z"
       sodipodi:nodetypes="cssssssssscsssssssssssccsssssscsssssscssscssscccccsssssscccsssccccscsssccccssscccccsccscccsscscssss" /><path
       id="path3"
       style="font-size:41.5223px;font-family:'New Rocker';-inkscape-font-specification:'New Rocker';letter-spacing:0.769167px;baseline-shift:baseline;white-space:pre;display:inline;overflow:visible;opacity:1;enable-background:accumulate;stop-color:#000000;stop-opacity:1;stroke-width:0.18897638;stroke-dasharray:none;stroke:#000000;stroke-opacity:1;fill:none"
       d="m 113.00969,134.61272 c -1.19179,0.58266 -2.24404,0.99423 -3.13672,1.24219 -0.90241,0.25067 -1.71348,0.36719 -2.42969,0.36719 -0.69657,0 -1.19755,-0.0942 -1.47266,-0.20117 l -3.59375,-1.39649 1.98438,3.30664 c 0.20476,0.34127 0.35591,0.66932 0.46094,0.98438 l 0.0117,0.0352 0.0137,0.0371 c 0.1304,0.32602 0.23236,0.68064 0.30078,1.06836 l 0.006,0.0352 0.008,0.0371 c 0.0886,0.37649 0.14933,0.82321 0.17383,1.33789 l 0.002,0.0312 0.004,0.0312 c 0.0503,0.5282 0.0762,1.15431 0.0762,1.86914 v 17.05273 h -3.82422 c -0.0235,-0.63432 -0.0352,-1.37946 -0.0352,-2.23046 v -11.9336 l -1.910156,0.95508 c -0.825437,0.41272 -1.851324,0.77043 -3.074219,1.05664 l -0.002,0.002 h -0.0039 c -1.198754,0.28667 -2.423056,0.46846 -3.677734,0.54688 l -1.238282,0.0781 v 2.79297 l 0.980469,0.26172 c 0.286467,0.0764 0.418215,0.16916 0.425781,0.17578 l 0.06445,0.0566 0.06836,0.0449 c 0.01012,0.0113 0.04198,0.0535 0.08594,0.16796 0.05944,0.15454 0.138425,0.51797 0.16211,1.03907 l 0.002,0.0293 0.002,0.0293 c 0.04981,0.54795 0.07813,1.29174 0.07813,2.20703 v 5.61328 l -2.484375,1.08789 -0.605469,-0.46289 v -7.73437 -1.86719 c 0.02473,-0.48835 0.03764,-0.94364 0.03906,-1.37109 0.02673,-0.42768 0.05345,-0.82691 0.08008,-1.20118 0.05464,-0.3861 0.108205,-0.80155 0.162109,-1.25976 l 0.275391,-2.33984 -2.140625,0.98632 c -0.275725,0.12726 -0.715294,0.29241 -1.279297,0.47266 -0.581327,0.15805 -1.216893,0.31853 -1.910156,0.47852 -0.697565,0.16098 -1.394596,0.30708 -2.091797,0.4414 -0.686408,0.10512 -1.306472,0.18482 -1.847656,0.23633 l -1.089844,0.10352 -0.214844,2.37304 0.710938,0.42578 c 0.27468,0.16481 0.4549,0.33829 0.589843,0.53321 l 0.0332,0.0488 0.03711,0.0449 c 0.06761,0.0811 0.138087,0.18514 0.207031,0.3164 h -3.148437 c -0.05344,-0.17518 -0.09884,-0.34353 -0.136719,-0.50586 -0.162801,-0.69772 -0.25586,-1.60211 -0.25586,-2.6914 0,-0.76742 0.02712,-1.56466 0.08008,-2.39063 0.06478,-0.66482 0.158483,-1.34539 0.257812,-2.02929 0.318823,-0.23953 0.647985,-0.46244 0.935547,-0.75 0.437381,-0.43738 0.819837,-0.89968 1.146484,-1.38672 0.329721,-0.45215 0.622618,-0.90911 0.871094,-1.375 0.230766,-0.43269 0.421553,-0.81414 0.576172,-1.1543 l 0.998047,-2.19336 -2.386719,0.33984 c -0.361377,0.0517 -0.706299,0.09 -1.035156,0.11524 -0.323755,0.0249 -0.663397,0.0391 -1.019531,0.0391 -1.127398,0 -2.334509,-0.11732 -3.621094,-0.35351 h -0.002 c -1.312564,-0.2686 -2.556006,-0.57603 -3.726563,-0.92188 -1.175095,-0.34719 -2.188864,-0.70361 -3.041015,-1.06445 l -0.0059,-0.004 -0.002,-0.002 h -0.002 -0.002 -0.002 c -0.829048,-0.3643 -1.388869,-0.69796 -1.466797,-0.76172 l -0.710938,-0.58203 -0.791015,0.46484 c -1.54037,0.90298 -2.880384,1.50559 -3.976563,1.82227 l -0.0039,0.002 h -0.0039 c -1.095524,0.32368 -2.22495,0.48633 -3.404297,0.48633 -0.668956,0 -1.369508,-0.0387 -2.101563,-0.11719 -0.754119,-0.0808 -1.596271,-0.18982 -2.523437,-0.32617 l -1.669922,-0.24609 0.166016,1.68164 c 0.156961,1.60099 0.646155,2.98986 1.574218,4.02929 0.614217,0.68792 1.372339,1.18499 2.185547,1.57813 0.0024,0.10853 0.01172,0.21765 0.01172,0.32617 v 0.0469 l 0.0039,0.0469 c 0.02545,0.35636 0.03711,0.71223 0.03711,1.06836 0,1.35484 -0.129217,2.70904 -0.390625,4.06836 l -0.002,0.01 -0.002,0.01 c -0.217748,1.2339 -0.668118,2.33218 -1.365234,3.3418 l -0.609375,0.88476 0.742188,0.77735 c 0.357344,0.37436 0.732833,1.07195 1.001953,2.14843 l 0.0039,0.0137 0.0039,0.0137 c 0.29812,1.0931 0.451172,2.28941 0.451172,3.59765 0,1.14725 -0.127344,2.2608 -0.380859,3.35157 v 0.002 c -0.246695,1.03304 -0.604944,1.85724 -1.046875,2.49805 l -0.853516,1.24023 1.339844,0.68555 c 1.134773,0.57999 2.196749,1.32419 3.193359,2.24414 l 0.0059,0.006 0.0059,0.006 c 0.986666,0.88799 1.642626,1.80147 2.027344,2.75195 l 1.042968,2.58008 1.337891,-2.44141 c 0.613729,-1.12072 1.23567,-2.11042 1.861328,-2.9707 0.551994,-0.75899 1.360854,-1.52117 2.453125,-2.25781 l 1.679465,-1.13356 -1.716797,-1.07812 c -0.713465,-0.44846 -1.278597,-1.12687 -1.720703,-2.16797 -0.429871,-1.0794 -0.650391,-2.24317 -0.650391,-3.52539 v -0.33594 c 1.184865,0.0308 2.383228,0.0603 3.421875,0.11914 h 0.002 c 1.217618,0.0676 2.229598,0.29875 3.16211,0.58789 l 0.671875,1.3418 1.28125,-1.70898 c 0.389287,-0.51906 0.773255,-0.98038 1.15039,-1.38282 l 0.002,-0.002 c 0.383802,-0.40754 0.785535,-0.76059 1.207032,-1.06641 0.439682,-0.2995 0.94939,-0.57429 1.535156,-0.81836 l 0.02148,-0.008 0.01953,-0.01 c 0.586325,-0.26873 1.299124,-0.52529 2.132813,-0.75977 l 1.537109,-0.43359 -0.71289,-1.42774 c -0.03337,-0.0667 -0.06591,-0.13357 -0.09766,-0.19922 h 2.902344 c 0.01384,0.124 0.02518,0.25401 0.03516,0.38868 l 0.002,0.0273 0.002,0.0273 c 0.07509,0.65082 0.117187,1.46201 0.117187,2.42188 0,0.85831 -0.02798,1.76105 -0.08203,2.70703 v 0.0176 l -0.002,0.0195 c -0.02688,0.91381 -0.08058,1.76868 -0.160157,2.56445 -0.0803,0.803 -0.172978,1.47454 -0.273437,2.00195 l -0.0059,0.0293 -0.0039,0.0312 c -0.05008,0.35054 -0.16136,0.63027 -0.166015,0.67969 v 0.002 0.002 h 0.002 0.002 0.002 v -0.002 c 0.0099,-0.008 0.03283,-0.0378 0.07031,-0.0937 l -0.78711,1.17774 1.251953,0.69531 c 0.478312,0.26573 0.897712,0.51586 1.25586,0.74609 l 0.04492,0.0293 0.04883,0.0254 c 0.364179,0.19423 0.715059,0.41226 1.05664,0.65625 l 0.01758,0.0117 0.01758,0.0117 c 0.364537,0.24302 0.73603,0.52852 1.113281,0.85547 l 0.03516,0.0293 0.03711,0.0293 c 0.400672,0.30051 0.872345,0.69117 1.404297,1.16992 l 0.931641,0.83789 0.884766,-0.88476 c 0.422554,-0.42256 0.828812,-0.81728 1.222656,-1.18555 l 0.0059,-0.004 c 0.404792,-0.3539 0.837973,-0.6972 1.296875,-1.02929 0.48926,-0.33433 1.019081,-0.67269 1.591797,-1.01172 0.22878,-0.12931 0.543415,-0.28571 0.800781,-0.42383 0.143541,0.40108 0.193551,0.87198 0.400391,1.22656 l 0.0098,0.0176 0.0098,0.0156 c 0.523511,0.83761 1.279651,1.63518 2.259766,2.46679 l 1.324219,1.12305 0.726562,-1.57617 c 0.106734,-0.23126 0.297055,-0.53684 0.580078,-0.89063 l 0.01367,-0.0176 0.01172,-0.0156 c 0.292586,-0.39011 0.624294,-0.77273 0.998044,-1.14648 0.37375,-0.37375 0.75637,-0.70546 1.14648,-0.99805 0.39011,-0.29258 0.72191,-0.49334 0.96485,-0.60547 l 0.76758,-0.35352 v -2.36718 l -1.04297,-0.22461 c -0.18407,-0.0394 -0.25486,-0.0893 -0.3125,-0.13477 0.009,0.004 -0.0916,-0.11955 -0.1875,-0.46289 v -0.002 c -0.0577,-0.20797 -0.11199,-0.484 -0.15821,-0.82031 h 3.69141 v 3.04296 c 0,0.63742 -0.0923,1.07551 -0.17578,1.27344 -0.0417,0.099 -0.0611,0.13706 -0.0703,0.14844 h -0.002 v 0.002 h -0.002 -0.002 -0.002 v -0.002 h -0.002 v -0.002 h -0.002 -0.002 l -0.86132,0.31836 v 2.86132 h 10.27929 v -2.86132 l -0.83984,-0.31055 c -0.0122,-0.0223 -0.0388,-0.0765 -0.082,-0.19336 -0.10115,-0.27347 -0.19922,-0.82973 -0.19922,-1.60742 v -3.7793 c 0.25552,0.12764 0.54201,0.23473 0.78711,0.36914 l 0.0137,0.008 0.0156,0.008 c 0.61331,0.31654 1.21601,0.70675 1.81836,1.10156 v 2.70703 c 0,0.47967 -0.0259,1.00909 -0.0781,1.58398 -0.0534,0.58746 -0.1195,1.16066 -0.19922,1.71875 -0.0764,0.53412 -0.1784,1.03732 -0.30273,1.50977 l -0.008,0.0332 -0.006,0.0312 c -0.10039,0.47685 -0.21105,0.85811 -0.31446,1.12696 l -0.47851,1.24218 2.375,0.89063 0.59961,-0.60156 c 0.27784,-0.27786 0.63565,-0.58552 1.06445,-0.91407 0.46512,-0.33519 0.97126,-0.67305 1.52148,-1.01367 0.56047,-0.34695 1.13458,-0.68118 1.72266,-1.00195 0.58316,-0.31809 1.13569,-0.5928 1.6543,-0.82617 l 0.97656,-0.43946 -0.23047,-1.04687 c -0.15881,-0.726 -0.25978,-1.89025 -0.25977,-3.41406 0,-0.7496 0.0153,-1.39627 0.041,-1.94532 5.7e-4,-0.006 0.001,-0.0117 0.002,-0.0176 h 2.82032 v 3.04296 c 0,0.63742 -0.0923,1.07551 -0.17579,1.27344 -0.0417,0.099 -0.0611,0.13706 -0.0703,0.14844 h -0.002 v 0.002 h -0.002 -0.002 -0.002 v -0.002 h -0.002 v -0.002 h -0.002 -0.002 l -0.86133,0.31836 v 2.86132 h 10.2793 v -2.86132 l -0.83984,-0.31055 c -0.0122,-0.0223 -0.0388,-0.0765 -0.082,-0.19336 -0.10114,-0.27347 -0.19921,-0.82973 -0.19921,-1.60742 v -3.7793 c 0.25552,0.12764 0.54201,0.23473 0.7871,0.36914 l 0.0137,0.008 0.0156,0.008 c 0.61332,0.31654 1.21601,0.70675 1.81836,1.10156 v 2.70703 c 0,0.47967 -0.0259,1.00909 -0.0781,1.58398 -0.0534,0.58746 -0.1195,1.16066 -0.19922,1.71875 -0.0764,0.53412 -0.17841,1.03732 -0.30274,1.50977 l -0.008,0.0332 -0.008,0.0312 c -0.10039,0.47685 -0.2091,0.85811 -0.3125,1.12696 l -0.47852,1.24218 2.37305,0.89063 0.60156,-0.60156 c 0.27785,-0.27785 0.6337,-0.58552 1.0625,-0.91407 0.46512,-0.3352 0.97321,-0.67305 1.52344,-1.01367 0.56046,-0.34695 1.13457,-0.68118 1.72266,-1.00195 0.58316,-0.31809 1.13374,-0.5928 1.65234,-0.82617 l 0.97656,-0.43946 -0.22851,-1.04687 c -0.15882,-0.726 -0.25977,-1.89025 -0.25977,-3.41406 0,-0.74358 0.0138,-1.38342 0.0391,-1.92969 10e-4,-0.0111 0.003,-0.0221 0.004,-0.0332 h 1.9043 c -0.008,0.90947 -0.0346,1.81898 -0.0801,2.72851 -0.0505,0.98104 -0.20425,1.7506 -0.41211,2.29102 l -0.67578,1.75976 1.88672,0.0332 c 1.52043,0.0262 2.8409,0.19793 3.95898,0.49609 h 0.004 l 0.002,0.002 c 1.15996,0.30259 2.20162,0.73752 3.13867,1.30469 l 0.9707,0.58789 2.39454,-2.88086 c 0.0923,0.13554 0.14286,0.27773 0.24218,0.41211 0.54891,0.74265 1.1861,1.36821 1.90821,1.84961 l 1.24414,0.83008 0.66797,-1.33789 c 0.11363,-0.22726 0.32254,-0.56026 0.62304,-0.96094 0.29259,-0.39011 0.6243,-0.77273 0.99805,-1.14648 0.38411,-0.38411 0.76339,-0.72478 1.13672,-1.02344 l 0.004,-0.002 0.004,-0.004 c 0.36095,-0.29328 0.66111,-0.45919 0.85742,-0.5293 l 0.875,-0.3125 v -2.4375 l -1.02148,-0.23633 c -0.2034,-0.0469 -0.32015,-0.10462 -0.41211,-0.1582 l -0.002,-0.002 c 9.3e-4,-0.003 -0.0469,-0.0631 -0.11329,-0.25977 -0.10173,-0.34738 -0.20401,-0.90137 -0.28125,-1.61328 -0.0509,-0.75113 -0.0781,-1.777 -0.0781,-3.07422 0,-1.98619 0.0577,-3.48224 0.1582,-4.44726 0.0848,-0.63611 0.27637,-0.99114 0.45508,-1.375 l -1.50586,-2.75391 c -0.92199,-0.0653 -1.79765,-0.17095 -2.41797,-0.46094 -0.79462,-0.41213 -1.61167,-1.04655 -2.43554,-1.94531 l -0.72071,-0.78516 -0.91992,0.53907 c -0.63248,0.37076 -1.6515,0.76248 -3.01562,1.10351 -1.30039,0.3251 -2.9145,0.5 -4.82813,0.5 h -0.36914 c -0.27514,-0.0868 -0.40711,-0.041 -0.58594,-0.041 h -1.66406 l 0.37891,1.61914 c 0.2082,0.89229 0.44835,1.6516 0.75586,2.30078 l 0.0117,0.0254 0.0137,0.0234 c 0.32926,0.62559 0.71287,1.16664 1.18945,1.60351 l 0.0234,0.0215 0.0234,0.0195 c 0.45961,0.383 0.9914,0.67471 1.5625,0.83789 l 0.0508,0.0137 0.0527,0.0117 c 0.50925,0.10185 1.03967,0.15039 1.58789,0.15039 0.84767,0 1.78335,-0.16536 2.87695,-0.46094 0.44453,-0.12014 0.85228,-0.30801 1.28321,-0.45312 v 1.35937 c -0.21089,0.0824 -0.35582,0.16219 -0.62305,0.24414 -0.56278,0.15293 -1.19913,0.29802 -1.91016,0.42969 -0.70043,0.12972 -1.44638,0.23307 -2.23437,0.3125 -0.7675,0.0525 -1.51988,0.0801 -2.25781,0.0801 -0.66896,0 -1.27443,-0.0396 -1.81446,-0.11328 l -2.27148,-0.3086 0.87305,2.11914 c 0.14272,0.34663 0.25749,0.777 0.32812,1.29493 v 0.004 0.006 c 0.0215,0.15067 0.0393,0.30568 0.0547,0.46484 h -1.5918 l 0.14063,-0.73632 -0.80078,-0.47266 c -1.00065,-0.58861 -2.08243,-1.11368 -3.24219,-1.57812 l -0.004,-0.002 c -0.13035,-0.0534 -0.31826,-0.0796 -0.45312,-0.13086 l 3.80468,-1.43945 -0.2832,-1.13867 c -0.0146,-0.0582 -0.0625,-0.36373 -0.0879,-0.79492 -0.0267,-0.45394 -0.0391,-0.82142 -0.0391,-1.08594 0,-1.03837 0.1175,-1.88103 0.31445,-2.51563 l 0.43164,-1.39257 -1.42969,-0.29102 c -1.44686,-0.29473 -2.67497,-0.61416 -3.68359,-0.94922 -0.95893,-0.35467 -1.80301,-0.77687 -2.5332,-1.26367 l -0.90039,-0.60156 -0.76368,0.76562 c -0.53962,0.53962 -0.99409,0.94902 -1.44335,1.35156 v -5.89843 c 0,-1.59388 0.11227,-2.85088 0.30078,-3.73047 0.21534,-0.87639 0.52093,-1.50324 0.85547,-1.91211 l -1.60157,-2.02149 c -1.19179,0.58266 -2.24402,0.99423 -3.13672,1.24219 -0.9024,0.25067 -1.71348,0.36719 -2.42968,0.36719 -0.69658,0 -1.19755,-0.0942 -1.47266,-0.20117 l -3.59375,-1.39649 1.98438,3.30664 c 0.20475,0.34126 0.35592,0.66933 0.46093,0.98438 l 0.0117,0.0352 0.0137,0.0371 c 0.13041,0.32601 0.23041,0.68065 0.29883,1.06836 l 0.008,0.0352 0.008,0.0371 c 0.0886,0.37649 0.14932,0.82321 0.17382,1.33789 l 0.002,0.0312 0.004,0.0312 c 0.0503,0.5282 0.0762,1.15431 0.0762,1.86914 v 17.05273 h -2.5625 l 0.14062,-0.73632 -0.80078,-0.47266 c -1.00065,-0.58861 -2.08242,-1.11368 -3.24219,-1.57812 l -0.004,-0.002 c -0.12984,-0.0532 -0.31687,-0.0798 -0.45118,-0.13086 l 3.80469,-1.43945 -0.28515,-1.13867 c -0.0146,-0.0582 -0.0625,-0.36373 -0.0879,-0.79492 -0.0267,-0.45394 -0.0391,-0.82142 -0.0391,-1.08594 0,-1.03838 0.11751,-1.88103 0.31446,-2.51563 l 0.43164,-1.39257 -1.42969,-0.29102 c -1.44687,-0.29473 -2.67498,-0.61416 -3.6836,-0.94922 -0.95893,-0.35467 -1.80106,-0.77687 -2.53125,-1.26367 l -0.90039,-0.60156 -0.76562,0.76562 c -0.53962,0.53962 -0.99409,0.94902 -1.44336,1.35156 v -5.89843 c 0,-1.59388 0.11228,-2.85088 0.30078,-3.73047 0.21534,-0.87639 0.52094,-1.50324 0.85547,-1.91211 z m -48.871091,9.38672 c 0.118967,0.0382 0.250172,0.0704 0.367187,0.10938 l 0.03125,0.01 0.03125,0.01 c 0.676326,0.18937 1.352461,0.39279 2.029297,0.60937 l 0.0293,0.008 0.0293,0.01 c 0.727919,0.19598 1.483372,0.39037 2.265625,0.58594 0.473126,0.11828 1.002375,0.22054 1.511718,0.32812 0.0078,0.38674 0.02148,0.72057 0.02148,1.17383 v 0.0215 l 0.08398,2.51367 c 0.02726,0.81776 0.04102,1.57845 0.04102,2.28125 v 0.0254 0.0254 c 0.01734,0.45083 0.03505,0.72858 0.05273,1.05664 -0.09614,0.0924 -0.207633,0.15766 -0.300781,0.25977 -0.04885,0.0493 -0.07081,0.1184 -0.117188,0.16992 -0.07098,-0.0194 -0.123086,-0.0576 -0.197265,-0.0762 -0.491634,-0.12976 -1.028467,-0.21933 -1.619141,-0.2793 -0.583002,-0.0859 -1.18853,-0.14267 -1.816406,-0.17188 -0.630381,-0.0562 -1.239147,-0.0879 -1.824219,-0.0879 -0.2089,0 -0.406761,0.0168 -0.609375,0.0254 -0.0087,-0.57967 -0.02344,-1.16565 -0.02344,-1.73632 v -3.32032 -2.61718 c 0,-0.30628 0.01031,-0.6238 0.01367,-0.9336 z m 49.316401,9.6836 2.68945,0.53515 -2.68945,1.08789 z m 21.57227,0 2.6875,0.53515 -2.6875,1.08789 z m 22.46289,7.41406 v 2.48633 c -0.3475,-0.0464 -0.761,-0.14901 -1.07422,-0.16211 h -0.002 c -0.19737,-0.009 -0.38374,-0.0277 -0.57812,-0.0391 l 0.0352,-1.87305 c 0.31759,-0.0646 0.58842,-0.0916 0.94335,-0.1836 l 0.0234,-0.006 0.0215,-0.008 c 0.2041,-0.0605 0.42349,-0.14867 0.63086,-0.21484 z"
       sodipodi:nodetypes="csscccsccccccccsccscsccccccccccccccscccccccccccsccccccccccssccscsccccsccsccccccccccccsccccscsccscccccccccscccccccccccsscccsccccccccccccccccccccscccsccccccccccccccccccscccccscccccccscccccssscccccccccsscccccccccccccccccscccccsccccccccccsssccscccsscccccccccccccccccscccccsccccccccscsssccscccccccccccccscccsscccscccccccscccccccsscscccccscscccsscccscscccccccccccccccssccccccccscccsscccsccccccccsccccccccccsccccccscsccccccccccscsccsccccccccscscsccccccccccccccccccccc" /><g
       id="path1-6"
       inkscape:label="znak"
       style="opacity:1" /></g></svg>
