<?xml version="1.0" encoding="UTF-8" standalone="no"?>
<svg
   version="1.2"
   viewBox="0 0 219.2126 219.2126"
   width="58mm"
   height="58mm"
   id="svg1"
   sodipodi:docname="RvacRoleTokenLaser.svg"
   inkscape:version="1.4.2 (f4327f4, 2025-05-13)"
   xml:space="preserve"
   xmlns:inkscape="http://www.inkscape.org/namespaces/inkscape"
   xmlns:sodipodi="http://sodipodi.sourceforge.net/DTD/sodipodi-0.dtd"
   xmlns="http://www.w3.org/2000/svg"
   xmlns:svg="http://www.w3.org/2000/svg"><sodipodi:namedview
     id="namedview1"
     pagecolor="#ffffff"
     bordercolor="#666666"
     borderopacity="1.0"
     inkscape:showpageshadow="2"
     inkscape:pageopacity="0.0"
     inkscape:pagecheckerboard="0"
     inkscape:deskcolor="#d1d1d1"
     inkscape:zoom="4.9238572"
     inkscape:cx="94.336611"
     inkscape:cy="86.212898"
     inkscape:window-width="1920"
     inkscape:window-height="1057"
     inkscape:window-x="-8"
     inkscape:window-y="-8"
     inkscape:window-maximized="1"
     inkscape:current-layer="layer2"
     inkscape:document-units="mm"
     showgrid="false" /><defs
     id="defs1"><clipPath
       clipPathUnits="userSpaceOnUse"
       id="cp1"><path
         d="m 275.5,535.5 c -143.78,0 -260,-116.22 -260,-260 0,-143.78 116.22,-260 260,-260 143.78,0 260,116.22 260,260 0,143.78 -116.22,260 -260,260 z"
         id="path1" /></clipPath></defs><style
     id="style1">
		tspan { white-space:pre } 
		.s0 { fill: none;stroke: #ff0000;stroke-miterlimit:100 } 
	</style><g
     inkscape:groupmode="layer"
     id="layer2"
     inkscape:label="Content"><g
       inkscape:groupmode="layer"
       id="layer4"
       inkscape:label="Kruh"
       style="display:inline"><path
         id="path2"
         style="fill:none;stroke:#000000;stroke-width:0.189192"
         d="M 219.118,109.6063 A 109.5117,109.5117 0 0 1 109.6063,219.118 109.5117,109.5117 0 0 1 0.09459686,109.6063 109.5117,109.5117 0 0 1 109.6063,0.09459686 109.5117,109.5117 0 0 1 219.118,109.6063 Z"
         inkscape:label="Vnejsi kruh" /><path
         id="circle2"
         style="fill:none;stroke:#000000;stroke-width:0.188976"
         d="M 208.69732,109.6063 A 99.091019,99.091019 0 0 1 109.6063,208.69732 99.091019,99.091019 0 0 1 10.515282,109.6063 99.091019,99.091019 0 0 1 109.6063,10.515282 99.091019,99.091019 0 0 1 208.69732,109.6063 Z"
         inkscape:label="Vnitrni kruh" /></g><g
       id="text2-9"
       inkscape:label="Text"
       style="opacity:1" /><path
       id="path3"
       style="opacity:1;font-size:41.5223px;font-family:'New Rocker';-inkscape-font-specification:'New Rocker';letter-spacing:0.769167px;baseline-shift:baseline;white-space:pre;display:inline;overflow:visible;enable-background:accumulate;stop-color:#000000;stop-opacity:1;stroke-width:0.18897638;stroke-dasharray:none;fill:none;stroke:#000000;stroke-opacity:1"
       d="M 126.76953 117.06055 L 125.81445 118.9707 C 125.58718 119.42524 125.28546 119.96283 124.91211 120.57617 L 124.90039 120.59375 L 124.89062 120.61328 C 124.54502 121.22472 124.17204 121.83698 123.77148 122.45117 L 123.76758 122.45703 L 123.76367 122.46484 C 123.37822 123.07056 123.00577 123.64752 122.64844 124.19727 L 122.63672 124.2168 L 122.62305 124.23828 C 122.2892 124.79468 122.02454 125.24002 121.82617 125.58008 L 121.25195 126.56445 L 122.14258 127.27539 C 122.51032 127.56959 122.75009 127.81485 122.83789 127.92773 L 122.88867 127.99219 L 122.94727 128.05078 C 123.22705 128.33056 123.58273 128.63815 124.04492 129.01367 L 124.96875 129.76367 L 125.81055 128.92187 C 126.11636 128.61606 126.43255 128.30427 126.75781 127.98828 L 126.75781 130.35156 L 126.28516 130.62891 C 125.65269 130.99967 124.63365 131.39139 123.26953 131.73242 C 121.96914 132.05752 120.35505 132.23242 118.44141 132.23242 L 118.07227 132.23242 C 117.79721 132.14571 117.66513 132.19141 117.48633 132.19141 L 115.82227 132.19141 L 116.20117 133.81055 C 116.40938 134.70284 116.64953 135.46214 116.95703 136.11133 L 116.96875 136.13672 L 116.98242 136.16016 C 117.31168 136.78575 117.69528 137.32875 118.17187 137.76562 L 118.19531 137.78516 L 118.21875 137.80664 C 118.67836 138.18965 119.21013 138.4794 119.78125 138.64258 L 119.83203 138.65625 L 119.88477 138.66797 C 120.394 138.76981 120.92444 138.81836 121.47266 138.81836 C 122.32032 138.81836 123.25601 138.65299 124.34961 138.35742 C 124.79413 138.23728 125.20188 138.04941 125.63281 137.9043 L 125.63281 139.26367 C 125.42193 139.34607 125.277 139.42586 125.00977 139.50781 C 124.44699 139.66074 123.81064 139.80583 123.09961 139.9375 C 122.39917 140.06721 121.65323 140.17057 120.86523 140.25 C 120.09775 140.3025 119.34536 140.33008 118.60742 140.33008 C 117.93846 140.33008 117.333 140.29038 116.79297 140.2168 L 114.51953 139.9082 L 115.39258 142.02734 C 115.5353 142.37396 115.65008 142.80435 115.7207 143.32227 L 115.72266 143.32812 L 115.72266 143.33203 C 115.7593 143.5885 115.78795 143.85761 115.80664 144.13867 L 112.57031 144.13867 L 115.09961 136.41992 L 114.56641 135.84961 C 114.41559 135.68802 114.24702 135.37169 114.16211 134.77734 C 114.06103 134.04181 114.00781 133.25972 114.00781 132.43164 L 114.00781 132.29297 L 115.92773 129.41602 L 112.38281 130.50586 C 111.3508 130.8234 110.30636 131.08857 109.24805 131.30078 C 108.18644 131.48606 107.13995 131.61799 106.10937 131.69727 L 104.96484 131.78516 L 104.79687 134.49023 L 105.60742 134.87109 C 105.76677 134.94609 105.85816 135.01942 105.98242 135.33008 L 105.99219 135.35547 L 106.00391 135.38281 C 106.11792 135.63617 106.26172 136.32375 106.26172 137.33203 C 106.26172 138.07411 106.20892 138.97298 106.10156 140.01953 L 106.10352 140.01758 C 105.99733 141.02632 105.83703 142.06484 105.62305 143.13477 L 105.61914 143.15039 L 105.61719 143.16602 C 105.43174 144.22571 105.19356 145.24185 104.9043 146.21484 L 104.90039 146.22656 L 104.89844 146.23828 C 104.77046 146.69902 104.60922 146.96895 104.46289 147.33398 L 104.18555 147.18359 C 104.19455 146.83247 104.20898 146.4699 104.20898 146.13477 L 104.20898 144.34961 C 104.20898 141.32224 104.06852 138.67226 103.7832 136.38672 C 103.52175 134.06837 103.07829 132.31202 102.19336 131.02148 L 101.38867 129.84961 L 100.2793 130.73633 C 100.15067 130.83923 99.813764 131.04387 99.328125 131.26367 C 98.82099 131.46557 98.258476 131.67108 97.642578 131.87695 C 97.038559 132.06071 96.420684 132.23026 95.789062 132.38867 C 95.162671 132.51864 94.632369 132.61003 94.222656 132.6582 L 93.05664 132.79492 L 93.05664 135.74805 L 94.611328 136.07031 C 94.984494 136.79575 95.363321 137.723 95.660156 139.13867 L 95.662109 139.14844 L 95.664062 139.1582 C 95.967101 140.50023 96.150517 142.16635 96.199218 144.13867 L 91.058593 144.13867 C 91.036199 143.67652 91.02539 143.22051 91.02539 142.77148 C 91.02539 141.83969 91.050592 141.02582 91.101562 140.32617 C 91.178362 139.65397 91.311193 139.18842 91.322265 139.16406 L 91.80664 138.09766 L 90.804687 137.49023 C 90.094443 137.05901 89.39151 136.54785 88.693359 135.95312 C 88.457854 135.75251 88.264985 135.57361 88.041015 135.37891 C 88.262986 135.26032 88.567032 135.07879 88.759765 134.98242 L 88.767578 134.97852 L 88.777343 134.97266 C 89.442344 134.62686 89.937756 134.4216 90.001953 134.40234 L 91.449218 133.9668 L 90.824218 132.5918 C 90.730698 132.38606 90.625901 132.08368 90.529297 131.69727 C 90.429637 131.29864 90.340625 130.86853 90.263672 130.41016 C 90.211782 129.94321 90.161256 129.47672 90.109375 129.00977 C 90.083975 128.54406 90.070312 128.10615 90.070312 127.69922 C 90.070312 127.5375 90.100221 127.41019 90.113281 127.26367 C 90.987733 126.86305 91.860283 126.45489 92.615234 125.88867 L 92.625 125.88086 L 92.634765 125.87305 C 93.617496 125.10529 94.359709 124.32832 94.798828 123.41016 L 95.863281 121.18555 L 93.421875 121.5332 C 93.060498 121.5848 92.715574 121.6232 92.386718 121.64844 C 92.062962 121.67334 91.721368 121.6875 91.365234 121.6875 C 90.238425 121.6875 89.017229 121.57065 87.701172 121.33398 L 87.697265 121.33398 C 86.384334 121.0927 85.143131 120.79836 83.974609 120.45312 C 82.794102 120.10433 81.774475 119.74535 80.919922 119.38281 C 80.051501 119.01439 79.475562 118.67301 79.412109 118.62109 L 78.59375 117.95117 L 77.761718 118.60547 C 77.044271 119.16918 76.38329 119.60234 75.787109 119.91406 C 75.161566 120.21312 74.588718 120.43106 74.078125 120.57031 L 74.070312 120.57227 L 74.0625 120.57422 C 73.552701 120.71984 73.08081 120.81232 72.646484 120.85937 C 72.160844 120.88417 71.711317 120.89844 71.310547 120.89844 C 70.591254 120.89844 69.886951 120.85894 69.197265 120.7832 C 68.495758 120.67866 67.57498 120.50505 66.439453 120.26172 L 64.841797 119.91992 L 64.841797 121.55273 C 64.841797 123.22678 65.168325 124.6629 66.068359 125.72656 L 66.085937 125.74805 L 66.103515 125.76758 C 66.731566 126.45024 67.583477 126.86213 68.505859 127.15039 C 68.537069 127.64989 68.580078 128.17264 68.580078 128.61133 C 68.580078 129.78714 68.451096 130.98008 68.193359 132.19336 C 67.948933 133.31772 67.473298 134.56186 66.74414 135.91602 L 66.326172 136.69141 L 66.880859 137.375 C 67.455342 138.08206 67.90559 139.01374 68.201172 140.2207 L 68.203125 140.22266 L 68.203125 140.22656 C 68.508628 141.44857 68.662109 142.70933 68.662109 144.01758 C 68.662109 144.66696 68.569449 145.33541 68.376953 146.0332 L 68.371094 146.05273 L 68.367187 146.07422 C 68.196034 146.78328 67.953129 147.44726 67.638672 148.07617 C 67.324414 148.70469 66.953318 149.27878 66.523437 149.80664 C 66.104488 150.29416 65.670969 150.66927 65.21875 150.94922 L 62.373047 152.71094 L 65.654297 153.36719 C 65.89221 153.41479 66.129766 153.43359 66.36914 153.43359 L 66.826172 153.43359 C 67.520228 153.43359 68.168406 153.38879 68.77539 153.29297 C 69.308385 153.20877 69.815613 153.12365 70.294922 153.03906 L 70.322265 153.03516 L 70.351562 153.02734 C 70.837195 152.91942 71.294121 152.82607 71.720703 152.74609 C 72.112454 152.67779 72.500293 152.64453 72.888672 152.64453 C 73.298848 152.64453 73.729272 152.69793 74.1875 152.8125 L 74.195312 152.81445 L 74.203125 152.81641 C 74.653104 152.92354 75.216011 153.13437 75.86914 153.46094 L 78.392578 154.72266 L 77.74414 151.97656 C 77.397658 150.51068 77.114851 148.88252 76.898437 147.09766 L 76.898437 147.0957 C 76.733862 145.51699 76.613763 143.81534 76.509765 142.06836 C 77.094918 141.71328 77.675069 141.3591 78.332031 140.96094 L 78.347656 140.95117 C 79.029173 140.55024 79.726081 140.13404 80.421875 139.71875 C 80.862533 140.06972 81.318436 140.43587 81.714843 140.74219 L 81.726562 140.75195 L 81.736328 140.75977 C 81.970203 140.93264 82.133782 141.05064 82.302734 141.17187 C 82.260584 142.51754 82.222313 143.78548 82.199218 144.73242 C 82.172148 145.84226 82.117738 146.75088 82.041015 147.44141 L 82.037109 147.46484 L 82.037109 147.48633 C 81.986709 148.14154 81.891353 148.62476 81.808593 148.87305 L 81.800781 148.90039 L 81.792968 148.92773 C 81.733548 149.13569 81.664199 149.23619 81.58789 149.3125 L 81.046875 150.53516 L 81.93164 151.42578 C 82.397548 151.65874 82.823515 151.97506 83.224609 152.39844 L 83.25 152.42383 L 83.27539 152.44922 C 83.728977 152.87893 84.115861 153.33795 84.445312 153.83008 C 84.786403 154.36761 85.064291 154.90953 85.279297 155.45898 L 85.287109 155.48242 L 85.296875 155.50391 C 85.549987 156.08607 85.732542 156.61572 85.849609 157.08398 L 86.949218 161.48047 L 88.382812 157.18164 C 88.741984 156.10413 89.221352 155.00355 89.820312 153.88086 C 90.20719 153.20599 90.836269 152.68047 91.427734 152.13086 L 92.679687 150.83594 L 91.787109 148.35156 C 91.632529 147.89279 91.490851 147.39368 91.373047 146.83008 L 91.373047 146.82422 L 91.373047 146.82227 L 91.371093 146.82227 L 91.371093 146.82031 C 91.309407 146.51089 91.256918 146.19866 91.21289 145.88281 L 96.195312 145.88281 C 96.189699 146.00102 96.182145 146.12666 96.173828 146.25977 L 96.171875 146.30078 L 96.171875 146.3418 C 96.171875 146.7277 96.159152 147.14588 96.132812 147.59375 L 96.130859 147.63281 L 96.130859 147.66992 C 96.130859 148.08533 96.117767 148.5024 96.091797 148.91797 C 96.064647 149.32475 96.036545 149.69033 96.009765 150.01172 L 95.916015 151.14062 L 97.019531 151.4043 C 98.216183 151.69046 99.370995 152.08053 100.48828 152.57422 C 101.6145 153.07185 102.5314 153.58524 103.23633 154.0957 L 103.58203 154.34766 L 104.87695 154.34766 L 110.70312 149.83594 L 111.99805 145.88281 L 115.82812 145.88281 C 115.81731 146.67843 115.79169 147.47384 115.75195 148.26953 C 115.70145 149.25057 115.5477 150.02012 115.33984 150.56055 L 114.66406 152.32031 L 116.54883 152.35352 C 118.06926 152.37972 119.39167 152.55146 120.50977 152.84961 L 120.51172 152.84961 L 120.51562 152.85156 C 121.67557 153.15416 122.71723 153.58908 123.6543 154.15625 L 124.625 154.74414 L 127.01953 151.86328 C 127.11183 151.99882 127.16239 152.14101 127.26172 152.27539 C 127.81063 153.01803 128.44587 153.6436 129.16797 154.125 L 130.41211 154.95508 L 131.08203 153.61719 C 131.19565 153.38995 131.40457 153.05692 131.70508 152.65625 C 131.99766 152.26614 132.32938 151.88351 132.70312 151.50977 C 133.08724 151.12565 133.46652 150.78498 133.83984 150.48633 L 133.84375 150.48437 L 133.84766 150.48047 C 134.20862 150.18719 134.50876 150.02129 134.70508 149.95117 L 135.58008 149.63867 L 135.58008 147.20117 L 134.55664 146.9668 C 134.35349 146.91992 134.23839 146.85825 134.14648 146.80469 L 134.14453 146.80469 L 134.14453 146.80273 C 134.13442 146.78742 134.08882 146.72022 134.0293 146.53711 C 133.97947 146.36607 133.9297 146.14643 133.88281 145.88281 L 136.82617 145.88281 C 136.78291 146.32275 136.73134 146.74315 136.67187 147.14453 C 136.56869 147.81353 136.44238 148.39062 136.29883 148.86914 L 136.28906 148.89844 L 136.2832 148.92773 C 136.16739 149.39098 136.02381 149.67916 135.98242 149.73828 L 134.5293 151.81445 L 137.06445 151.81445 C 137.80691 151.81445 138.66619 151.88985 139.63477 152.04687 C 140.62282 152.2071 141.59637 152.40642 142.55664 152.64648 L 142.5625 152.64844 L 142.56641 152.64844 C 143.5429 152.88596 144.42975 153.1479 145.23242 153.43164 C 146.03894 153.74433 146.65576 154.03833 147.04687 154.27734 L 147.36523 154.4707 L 148.33398 154.4707 L 148.72852 154.02148 C 148.79542 153.94508 148.99886 153.76663 149.31055 153.56445 C 149.67881 153.34456 150.07324 153.1335 150.49805 152.93359 L 150.51172 152.92773 L 150.52734 152.91992 C 150.97314 152.69702 151.412 152.51436 151.84766 152.36914 L 151.86719 152.36328 L 151.88672 152.35547 C 152.35729 152.1821 152.7738 152.06426 153.12695 151.99805 L 154.5625 151.73047 L 154.15039 150.33008 C 154.03367 149.93322 153.9224 149.43267 153.82031 148.85352 C 153.75031 148.30954 153.70703 147.51743 153.70703 146.50781 L 153.70703 145.0957 C 153.70703 144.73956 153.72238 144.47318 153.73828 144.3457 L 153.98437 142.36523 L 152.06445 142.91406 C 150.70096 143.30363 149.51621 144.00551 148.62109 145.00391 L 148.62109 145.00586 L 148.61914 145.00586 C 148.06171 145.63018 147.68845 146.36972 147.40234 147.14844 C 146.9463 147.08194 146.53504 147.04696 146.00391 146.92578 L 145.99609 146.92383 C 145.49146 146.80488 145.18162 146.68237 144.79492 146.56055 C 144.86452 145.94821 144.94683 145.36759 144.98242 144.67773 L 144.98242 144.67578 L 144.98242 144.67383 L 144.98437 144.67187 L 144.98437 144.66992 L 144.98437 144.66797 L 144.98437 144.66602 C 145.06777 143.54492 145.11133 142.51037 145.11133 141.56641 C 145.11133 140.4923 145.06843 139.43138 144.98437 138.38281 L 144.98437 138.37305 C 144.97837 138.25707 144.95827 138.14136 144.95117 138.02539 C 145.10589 138.11279 145.24551 138.26729 145.40234 138.3457 C 146.40129 138.84517 147.33267 139.15039 148.27539 139.15039 C 149.53335 139.15039 150.76045 138.71886 151.85352 137.95703 L 151.85742 137.95508 L 151.85937 137.95312 C 152.97402 137.16631 153.86339 136.12476 154.48047 134.89062 L 155.26953 133.31055 L 153.53125 133.00195 C 152.36188 132.79406 151.20326 132.48212 150.05469 132.06445 C 148.99524 131.6792 148.07629 131.24331 147.29687 130.76758 L 147.29687 128.66016 C 149.01176 126.84035 150.33251 125.42718 151.26758 124.41211 L 151.28125 124.39844 C 152.26845 123.35635 152.96082 122.62372 153.35156 122.20508 L 154.32227 121.16406 L 153.21094 120.27344 C 152.81805 119.95913 152.52836 119.70414 152.36523 119.54102 C 152.12433 119.30011 151.7983 118.98895 151.37695 118.5957 L 150.54687 117.82031 L 149.65625 118.52539 C 149.0022 119.04318 148.29243 119.59074 147.52539 120.16602 C 147.04741 120.52005 146.59924 120.84294 146.14453 121.17383 C 145.66317 120.83676 145.1892 120.50764 144.68359 120.14648 C 143.93304 119.58303 143.2495 119.04757 142.63867 118.54297 L 141.77344 117.82812 L 140.92969 118.56641 C 140.47506 118.9642 140.12948 119.28066 139.86914 119.54102 C 139.71981 119.69035 139.42685 119.95702 139.02344 120.30664 L 137.95312 121.23437 L 138.95508 122.23633 C 139.9106 123.19185 140.90932 124.23332 141.95117 125.35742 L 141.96289 125.36914 L 141.97461 125.38086 C 143.03106 126.4644 144.07475 127.61694 145.10742 128.83984 L 145.55273 129.36719 L 145.55273 130.69922 C 143.87833 131.38377 138.50949 133.10844 137.17969 133.33008 L 135.68164 133.58008 L 136.13672 135.0293 L 136.7168 137.84766 L 136.75 138.23047 L 136.75195 138.24609 C 136.91001 139.48414 136.99023 140.82751 136.99023 142.27344 C 136.99023 142.91023 136.97675 143.53218 136.94922 144.13867 L 133.70898 144.13867 C 133.68404 143.50596 133.66992 142.74465 133.66992 141.85742 C 133.66992 139.87123 133.72952 138.37518 133.83008 137.41016 C 133.91488 136.77404 134.10645 136.41902 134.28516 136.03516 L 133.7793 134.50586 L 132.7793 133.28125 C 131.85659 133.21585 130.97995 133.11068 130.35937 132.82031 C 129.75029 132.50441 129.12984 132.057 128.50195 131.46094 L 128.50195 126.37109 C 128.7272 126.16761 128.94746 125.96837 129.16406 125.77344 C 129.69691 125.29387 130.18365 124.88575 130.61914 124.55273 L 130.63867 124.53906 L 130.65625 124.52344 C 131.11003 124.14974 131.45485 123.88753 131.62891 123.77148 L 133.40625 122.58789 L 131.55273 121.52734 C 131.40639 121.44374 131.12642 121.27249 130.77148 121.04492 C 130.42928 120.78238 130.0653 120.50919 129.67773 120.22461 L 129.66211 120.21289 C 129.65511 120.20789 129.64968 120.20247 129.64258 120.19727 C 129.28846 119.9184 128.94787 119.63899 128.61914 119.36133 C 128.3355 119.09958 128.13553 118.88058 128.05078 118.76758 L 126.76953 117.06055 z M 76.267578 126.45117 C 77.048051 126.60574 77.822719 126.78556 78.613281 126.88867 C 79.54714 127.01048 80.607961 127.16428 81.664062 127.31641 L 81.796875 130.58789 C 81.717085 130.63899 81.671826 130.66879 81.574218 130.73047 L 81.572265 130.73242 L 81.570312 130.73242 L 81.570312 130.73437 L 81.568359 130.73437 C 81.044882 131.03757 80.3981 131.41379 79.611328 131.875 C 78.803953 132.32085 77.932922 132.81887 76.99414 133.37109 C 76.736367 133.51522 76.495941 133.65855 76.242187 133.80273 L 76.242187 132.80664 L 76.242187 129.56641 L 76.242187 127.11719 C 76.242187 126.87642 76.262428 126.68033 76.267578 126.45117 z M 125.67383 144.44727 L 125.67383 146.92969 C 125.32705 146.88339 124.91419 146.78066 124.60156 146.76758 L 124.59961 146.76758 C 124.40226 146.75858 124.21583 146.73992 124.02148 146.72852 L 124.05664 144.85547 C 124.37399 144.79087 124.64538 144.76377 125 144.67187 L 125.02148 144.66602 L 125.04492 144.66016 C 125.24826 144.59996 125.46724 144.51317 125.67383 144.44727 z " /><g
       id="path1-6"
       style="opacity:1;fill:none;stroke:#000000;stroke-opacity:1;stroke-width:0.18897638;stroke-dasharray:none"><path
         id="path4"
         style="baseline-shift:baseline;display:inline;overflow:visible;fill:none;stroke-linejoin:bevel;enable-background:accumulate;stop-color:#000000;stop-opacity:1;stroke:#000000;stroke-opacity:1;stroke-width:0.18897638;stroke-dasharray:none"
         d="m 100.74701,60.17709 c -0.31565,-0.009 -0.62871,-0.0043 -0.93554,0.01563 -8.171,0.531299 -15.522813,5.451615 -21.867188,9.09375 -3.914524,2.247224 -7.432112,4.528576 -11.519531,4.607422 -1.120345,0.02161 -3.301825,1.264939 -4.711861,0.432285 -0.705019,-0.416327 -1.153124,-0.891051 -1.316406,-1.263672 -0.163281,-0.372621 -0.21451,-0.696226 0.197266,-1.449219 0.09817,-0.179519 0.157281,-0.251074 0.185547,-0.277344 0.01739,0.0031 0.09841,0.01471 0.251953,0.107422 0.420528,0.253932 1.454035,0.352124 1.530434,0.729685 l 1.049644,0.491018 0.501953,1.423828 c 0.68555,-0.2419 1.313067,-0.718412 1.658203,-1.341796 0.345137,-0.623385 0.393105,-1.291156 0.324219,-1.84961 -0.137772,-1.116908 -0.653852,-1.982934 -1.142578,-2.68164 -1.711205,-2.446418 -4.471311,-3.887108 -7.556641,-3.382813 -6.107557,0.998261 -9.243756,5.94547 -9.310547,10.916016 -0.05491,4.086264 1.866052,8.246245 5.365235,10.824218 -0.281001,0.131495 -0.540509,0.163459 -0.816407,0.326172 -1.144909,0.67522 -2.264536,1.724855 -2.714843,3.25586 l 1.90625,1.865234 c 2.645127,-0.840249 5.319559,-0.703655 7.951172,-0.08203 L 60.625,94.478515 h 10.27539 l -0.248046,0.445313 1.65625,2.205078 c 2.223618,-0.508544 3.915043,-1.642152 5.468749,-2.103516 1.640677,-0.487177 3.374471,-0.86242 5.111329,-1.359375 l -1.335938,1.63086 1.433594,2.443359 c 3.689973,-0.65573 7.002212,-2.537498 10.121094,-4.431641 l -0.6875,1.373047 1.546875,2.173828 c 4.425191,-0.578791 8.491533,-3.640845 11.527343,-7.443359 1.74739,-2.188694 3.10199,-4.640211 3.98047,-7.126953 0.88564,2.478582 2.23147,4.938761 3.96289,7.142578 3.01394,3.83625 7.05573,6.946892 11.52344,7.431641 l 1.51367,-2.177735 -0.96094,-1.919922 9.08789,4.542969 1.9043,-2.226562 -0.93555,-1.310547 c 3.72505,1.444754 7.72742,2.415994 10.93555,3.339844 l 1.73633,-2.183594 -0.24805,-0.445313 h 6.39453 5.67383 l 0.59375,-2.898437 -0.0898,-0.03906 1.68554,-0.3125 4.89649,0.261719 1.26562,-2.443359 c -0.80086,-1.01538 -1.78281,-1.808922 -2.89258,-2.378907 0.7439,-0.506405 1.58131,-1.067158 2.27149,-1.691406 1.4192,-1.283626 2.53511,-3.127187 3.29297,-6.287109 l 0.041,-0.351563 c 0,-3.806028 -0.88841,-7.960113 -4.10742,-10.876953 -2.66049,-2.41075 -5.9406,-3.188931 -8.74609,-2.300781 -2.8055,0.88815 -5.00669,3.426344 -5.66797,6.923828 l 1.11719,1.746094 1.19531,0.298828 1.83398,-1.115234 c 0.13674,-0.573482 0.8506,-1.390661 1.24024,-1.558594 0.1101,-0.04746 0.15775,-0.05715 0.17383,-0.05859 0.0271,0.01804 0.14847,0.122617 0.29101,0.550781 0.24164,0.725806 0.14702,1.049889 -0.125,1.464844 -0.27202,0.414956 -0.86008,0.883206 -1.66211,1.253906 -1.60405,0.741399 -4.15053,-0.701623 -5.23345,-0.830721 -8.06042,-0.960894 -15.22111,-8.039205 -23.82422,-11.333985 -4.48804,-1.718793 -8.8285,-2.629587 -13.71094,-1.539062 -1.2401,0.276985 -2.16087,0.944121 -2.99414,1.4375 -0.80919,0.479122 -1.49817,0.722433 -1.65625,0.730468 v -0.002 -0.002 h -0.002 c -0.0227,-0.01941 -0.26496,-0.106167 -0.59375,-0.339844 -0.39127,-0.278085 -0.85056,-0.698075 -1.57031,-1.023437 -1.75871,-0.795024 -4.12834,-1.523228 -6.3379,-1.585938 z m 0.67096,7.986972 c 1.49505,0.0053 2.93351,0.27231 4.31445,0.845703 0.23303,0.09675 0.68451,0.397999 1.23438,0.746094 0.54986,0.348096 1.23298,0.776231 2.18945,0.867188 1.41983,0.135038 2.43319,-0.502869 3.38086,-1.017578 0.94767,-0.51471 1.85363,-1.013121 2.2207,-1.109375 2.72937,-0.715698 5.77956,-0.145422 8.66602,0.882812 5.49389,1.957048 10.56412,5.766287 16.31054,8.498047 l -0.67968,0.93164 c 0.45464,0.765647 1.0703,1.534116 1.6582,2.300782 -0.92902,-0.836763 -1.98534,-1.701872 -3.53516,-2.136719 l -1.79687,2.042969 c 0.31898,0.753376 0.79917,1.393646 1.24219,2.060547 -1.12039,-1.234717 -2.28687,-2.969275 -3.76563,-4.544922 -1.53508,-1.635665 -3.55104,-3.13345 -6.20312,-3.197266 l -1.54688,1.509766 v 0.298828 l 0.62891,1.224609 c 2.53084,1.820846 4.3643,4.645421 6.3164,7.554688 -1.6965,-1.192721 -3.15901,-2.86771 -4.69336,-4.800782 -2.65282,-3.342176 -5.55442,-7.24777 -10.6289,-8.152343 l -1.33789,2.548828 5.16797,5.220703 0.83593,1.541016 c -1.17424,-1.173991 -2.3189,-2.376593 -3.5625,-3.757813 -0.72853,-0.809163 -1.58784,-1.808468 -2.67968,-2.642578 -1.09185,-0.834109 -2.50211,-1.525916 -4.14453,-1.439453 l -1.18946,1.978516 -0.34179,0.101562 -0.25586,-0.07227 c 0.005,-0.01412 0.015,-0.02294 0.0195,-0.03711 l -1.48438,-1.970703 c -1.83432,0.05827 -3.33539,0.906253 -4.49609,1.900391 -1.16071,0.994137 -2.06709,2.146982 -2.90235,3.082031 -1.357761,1.519974 -2.639048,2.896787 -3.998042,4.126953 0.802162,-1.430368 1.731552,-2.784532 2.746094,-3.871094 1.066778,-1.142501 3.408818,-2.055634 4.669918,-4.539062 l -1.61132,-2.169922 c -3.327671,0.593185 -5.753934,2.586455 -7.707036,4.763672 -1.953101,2.177217 -3.533212,4.579456 -5.207031,6.347656 -0.643619,0.679916 -1.414682,1.096153 -2.164063,1.558594 l 2.708985,-3.990235 3.320312,-3.8125 -1.216797,-2.5 c -2.583425,0.134302 -4.522561,1.654382 -6.003906,3.28711 -1.306473,1.439986 -2.319417,2.933477 -3.304687,4.121093 0.360217,-0.628632 0.797769,-1.236428 0.986328,-1.908203 l -2.041016,-1.798828 c -1.164189,0.492796 -2.13543,1.153275 -3.119141,1.796875 0.443159,-0.40843 0.872821,-0.942525 1.337891,-1.296875 l 0.59375,-1.199219 v -0.298828 l -0.779297,-0.699218 c 1.834072,-0.939387 3.675489,-1.883 5.416016,-2.900391 4.938117,-2.886479 9.648483,-5.629134 14.917969,-6.195313 0.510993,-0.05491 1.015323,-0.08183 1.513673,-0.08008 z m -40.623048,3.158203 h 0.002 0.002 v 0.002 0.002 h -0.002 v 0.002 h -0.002 c -7.66e-4,4.42e-4 -0.0049,0.0035 -0.0059,0.0039 -0.0011,3.44e-4 -0.0027,-2.56e-4 -0.0039,0 -0.0015,3.18e-4 -0.0027,-2.38e-4 -0.0039,0 0.0046,-0.0041 0.01083,-0.0081 0.01367,-0.0098 z M 163.60742,72.0625 c 0.28723,0.28687 0.61491,0.554639 0.8086,0.884765 0.62327,1.062349 0.81406,2.398074 0.58007,3.810547 -0.46797,2.824947 -2.68924,5.723126 -5.62304,6.509766 -3.83313,1.02778 -6.23571,-0.01616 -8.97266,-1.685547 -0.4224,-0.257643 -0.90851,-0.574541 -1.3418,-0.859375 3.17749,0.436932 6.7851,0.562744 9.9375,-1.167969 1.89366,-1.039639 3.43113,-2.757248 4.2168,-4.796875 0.32287,-0.838185 0.39383,-1.769635 0.39453,-2.695312 z M 55.113281,72.666015 c 0.0089,0.50199 -0.0908,1.027088 0.04102,1.496094 0.505593,1.798902 1.785812,3.175904 3.294922,4.193359 3.01822,2.034909 7.062815,2.883786 10.208984,2.585938 0.759925,-0.07194 1.459363,-0.279895 2.189453,-0.419922 -0.68244,0.529531 -1.453229,1.142572 -2.066406,1.527344 -2.57787,1.617638 -6.26156,2.095786 -9.220703,1.220703 -2.18041,-0.644781 -4.64159,-2.425904 -5.417969,-4.3125 -0.587398,-1.427381 -0.510322,-3.492234 0.214844,-5.185547 0.188181,-0.439416 0.500817,-0.737175 0.755859,-1.105469 z"
         sodipodi:nodetypes="scssssscscccssssscscccccccsccccccscscccccccccccccccccsccssccccscsssssssccccssssssssssccccccscccccsccccssccccccsscsccssccccsccccccccssscccccccccscccsssscssccssscssssc" /></g></g></svg>
