<?xml version="1.0" encoding="UTF-8" standalone="no"?>
<svg
   version="1.2"
   viewBox="0 0 219.2126 219.2126"
   width="58mm"
   height="58mm"
   id="svg1"
   sodipodi:docname="SabalotRoleTokenLaser.svg"
   inkscape:version="1.4.2 (f4327f4, 2025-05-13)"
   xml:space="preserve"
   xmlns:inkscape="http://www.inkscape.org/namespaces/inkscape"
   xmlns:sodipodi="http://sodipodi.sourceforge.net/DTD/sodipodi-0.dtd"
   xmlns="http://www.w3.org/2000/svg"
   xmlns:svg="http://www.w3.org/2000/svg"><sodipodi:namedview
     id="namedview1"
     pagecolor="#ffffff"
     bordercolor="#666666"
     borderopacity="1.0"
     inkscape:showpageshadow="2"
     inkscape:pageopacity="0.0"
     inkscape:pagecheckerboard="0"
     inkscape:deskcolor="#d1d1d1"
     inkscape:zoom="3.4816928"
     inkscape:cx="125.65727"
     inkscape:cy="97.797255"
     inkscape:window-width="1920"
     inkscape:window-height="1057"
     inkscape:window-x="-8"
     inkscape:window-y="-8"
     inkscape:window-maximized="1"
     inkscape:current-layer="layer2"
     inkscape:document-units="mm"
     showgrid="false" /><defs
     id="defs1"><clipPath
       clipPathUnits="userSpaceOnUse"
       id="cp1"><path
         d="m 275.5,535.5 c -143.78,0 -260,-116.22 -260,-260 0,-143.78 116.22,-260 260,-260 143.78,0 260,116.22 260,260 0,143.78 -116.22,260 -260,260 z"
         id="path1" /></clipPath></defs><style
     id="style1">
		tspan { white-space:pre } 
		.s0 { fill: none;stroke: #ff0000;stroke-miterlimit:100 } 
	</style><g
     inkscape:groupmode="layer"
     id="layer2"
     inkscape:label="Content"><g
       inkscape:groupmode="layer"
       id="layer4"
       inkscape:label="Kruh"
       style="display:inline"><path
         id="path2"
         style="fill:none;stroke:#000000;stroke-width:0.189192"
         d="M 219.118,109.6063 A 109.5117,109.5117 0 0 1 109.6063,219.118 109.5117,109.5117 0 0 1 0.09459686,109.6063 109.5117,109.5117 0 0 1 109.6063,0.09459686 109.5117,109.5117 0 0 1 219.118,109.6063 Z"
         inkscape:label="Vnejsi kruh" /><path
         id="circle2"
         style="fill:none;stroke:#000000;stroke-width:0.188976"
         d="M 208.69732,109.6063 A 99.091019,99.091019 0 0 1 109.6063,208.69732 99.091019,99.091019 0 0 1 10.515282,109.6063 99.091019,99.091019 0 0 1 109.6063,10.515282 99.091019,99.091019 0 0 1 208.69732,109.6063 Z"
         inkscape:label="Vnitrni kruh" /></g><g
       id="text2-9"
       inkscape:label="Text"
       style="opacity:1" /><path
       id="path4"
       style="font-size:41.5223px;font-family:'New Rocker';-inkscape-font-specification:'New Rocker';letter-spacing:0.769167px;baseline-shift:baseline;white-space:pre;display:inline;overflow:visible;opacity:1;fill:none;stroke:#000000;stroke-width:0.188976;stroke-dasharray:none;stroke-opacity:1;enable-background:accumulate;stop-color:#000000;stop-opacity:1"
       d="m 59.834439,118.8357 -0.847656,0.49414 c -0.294721,0.17191 -0.653867,0.36548 -1.066406,0.57227 -0.423737,0.1858 -0.858508,0.38437 -1.304688,0.59375 -0.460071,0.18944 -0.918834,0.37892 -1.378906,0.56836 -0.271932,0.10187 -0.493433,0.17201 -0.726563,0.25 -0.255141,-0.0907 -0.505034,-0.17831 -0.791015,-0.2793 l -0.0098,-0.004 -1.34375,-0.55078 -0.03125,-0.0137 -0.02734,-0.0117 c -0.445616,-0.20913 -0.879504,-0.40619 -1.302734,-0.59179 -0.401439,-0.21363 -0.771364,-0.40717 -1.101563,-0.57227 l -0.792968,-0.39648 -0.666016,0.58398 c -0.454625,0.3978 -0.800206,0.71232 -1.060547,0.97266 -0.149335,0.14933 -0.442291,0.416 -0.845703,0.76562 l -1.242187,1.07813 1.320312,0.98047 c 0.995977,0.73987 2.138499,1.52901 3.429688,2.37109 l 0.01367,0.008 0.01367,0.01 c 0.42019,0.25927 0.786599,0.5486 1.191407,0.81641 l -0.101563,0.17578 c -0.677455,1.16135 -1.433754,1.88875 -2.273437,2.30859 -0.882969,0.44149 -2.014019,0.69141 -3.4375,0.69141 -0.668957,0 -1.214711,-0.0413 -1.611329,-0.10743 -0.513925,-0.0857 -0.919153,-0.1429 -1.248046,-0.17578 l -3.021485,-0.30273 1.841797,2.41601 c 0.767799,1.00773 1.276125,2.12641 1.542969,3.41211 0.285366,1.37494 0.427734,2.80588 0.427734,4.29883 0,1.36862 -0.0658,2.69381 -0.199219,3.97461 -0.136881,1.31406 -0.287778,2.54375 -0.451171,3.6875 l -0.277344,1.94336 1.904297,-0.47656 c 0.863839,-0.21596 1.770814,-0.4194 2.720703,-0.60938 0.957,-0.1914 1.914278,-0.36918 2.871094,-0.5332 0.948908,-0.16267 1.867247,-0.2983 2.757812,-0.40625 0.543156,-0.0658 0.99318,-0.10095 1.472656,-0.14648 0.08324,0.22742 0.153854,0.29512 0.220703,0.73632 0.126871,0.83735 0.191407,1.7698 0.191407,2.79297 0,1.18702 -0.07895,2.34282 -0.236328,3.47071 l -0.002,0.0137 v 0.0137 c -0.052,0.43682 -0.13669,0.6346 -0.203125,0.98828 -0.781844,-0.39069 -1.597439,-0.78668 -2.30664,-1.16601 -1.158777,-0.66177 -2.214584,-1.24446 -3.16211,-1.7461 -0.949252,-0.50254 -1.777254,-0.90967 -2.503906,-1.23047 -0.775011,-0.37161 -1.419707,-0.62695 -2.18164,-0.62695 h -1.728516 l 0.455078,1.66797 c 0.06613,0.24246 0.105555,0.46179 0.125,0.65625 0.02291,0.22914 0.03516,0.47573 0.03516,0.74023 0,0.72685 -0.147913,1.3962 -0.457031,2.0586 l -0.0039,0.008 -0.0039,0.01 c -0.303556,0.67717 -0.729909,1.3465 -1.294922,2.00977 l -1.75,2.05273 2.695312,0.1211 c 1.810108,0.0811 3.35982,0.24398 4.636719,0.47851 l 0.01563,0.002 0.01367,0.002 c 1.341043,0.21457 2.492981,0.46883 3.445312,0.75195 0.969029,0.2881 1.773429,0.59766 2.402344,0.91211 0.715097,0.37131 1.347337,0.72739 1.888672,1.0625 l 0.873047,0.54102 0.738281,-0.71485 c 0.66475,-0.64259 1.558256,-1.17111 2.738281,-1.56445 1.19307,-0.39769 2.432254,-0.59765 3.736328,-0.59765 h 1.697266 l -0.419922,-1.64649 c -0.341169,-1.33843 -0.576437,-2.73211 -0.708984,-4.18555 -0.01955,-0.27477 -0.0367,-0.54839 -0.05274,-0.82226 h 3.166016 c -0.0074,0.89849 -0.0332,1.79675 -0.07813,2.69531 -0.0505,0.98104 -0.204254,1.75059 -0.412109,2.29102 l -0.677735,1.75976 1.886719,0.0332 c 1.520429,0.0262 2.8409,0.19598 3.958984,0.49414 l 0.0039,0.002 h 0.002 c 1.159955,0.30259 2.201613,0.73947 3.138672,1.30664 l 0.972656,0.58789 2.394531,-2.88086 c 0.0921,0.13516 0.141178,0.27809 0.240235,0.41211 0.548906,0.74264 1.186105,1.36821 1.908203,1.84961 l 1.24414,0.82812 0.667969,-1.33593 c 0.113623,-0.22725 0.322544,-0.56027 0.623047,-0.96094 0.292583,-0.39011 0.624304,-0.77274 0.998047,-1.14648 0.384116,-0.38412 0.763387,-0.72478 1.136718,-1.02344 l 0.0039,-0.004 0.0039,-0.002 c 0.360958,-0.29328 0.661102,-0.45918 0.857422,-0.5293 l 0.876953,-0.3125 v -2.4375 l -1.023438,-0.23633 c -0.203402,-0.0469 -0.322082,-0.10657 -0.414062,-0.16015 9.33e-4,-0.003 -0.04698,-0.0631 -0.113281,-0.25977 -0.06849,-0.23384 -0.138045,-0.56318 -0.199219,-0.9707 h 3.248047 c -0.04004,1.02736 -0.09508,1.92101 -0.166016,2.67773 -0.156608,1.67049 -0.485765,2.86681 -0.841797,3.51953 l -1.710937,3.13868 3.339844,-1.27344 c 0.471693,-0.17969 1.042629,-0.32455 1.708984,-0.42383 0.727176,-0.10388 1.361621,-0.1543 1.890625,-0.1543 0.761539,0 1.682335,0.11037 2.746094,0.34375 h 0.002 c 1.096917,0.26822 2.248947,0.58974 3.460937,0.9668 l 0.617188,0.19141 0.529297,-0.36719 c 0.586227,-0.40781 1.214102,-0.79309 1.882812,-1.1543 0.71367,-0.3429 1.42699,-0.65927 2.13867,-0.94922 0.71385,-0.29083 1.4099,-0.54078 2.08984,-0.75 0.67881,-0.20886 1.29512,-0.36155 1.8418,-0.46093 l 1.8125,-0.33008 -0.89453,-1.60938 c -0.0417,-0.075 -0.12607,-0.28851 -0.19141,-0.61523 -0.0691,-0.37206 -0.13509,-0.89342 -0.1875,-1.54883 -0.0286,-0.35701 -0.0529,-0.75784 -0.0742,-1.20117 h 2.19336 c -0.008,0.89849 -0.0352,1.79674 -0.0801,2.69531 -0.0505,0.98104 -0.20425,1.75059 -0.4121,2.29102 l -0.67774,1.75976 1.88672,0.0332 c 1.52043,0.0262 2.8409,0.19598 3.95898,0.49414 l 0.004,0.002 h 0.004 c 1.15995,0.30259 2.19965,0.73947 3.13672,1.30664 l 0.97265,0.58789 2.39453,-2.88086 c 0.0923,0.13539 0.14297,0.27787 0.24219,0.41211 0.54891,0.74264 1.18415,1.36821 1.90625,1.84961 l 1.24414,0.82812 0.66797,-1.33593 c 0.11362,-0.22725 0.32254,-0.56027 0.62305,-0.96094 0.29258,-0.39011 0.6243,-0.77274 0.99804,-1.14648 0.38413,-0.38412 0.76534,-0.72477 1.13868,-1.02344 l 0.004,-0.004 0.004,-0.002 c 0.36096,-0.29328 0.6611,-0.45918 0.85742,-0.5293 l 0.875,-0.3125 v -2.4375 l -1.02344,-0.23633 c -0.20319,-0.0469 -0.32017,-0.10466 -0.41211,-0.1582 v -0.002 -0.002 c -0.009,-0.0149 -0.0554,-0.0817 -0.11523,-0.26562 -0.0682,-0.23395 -0.13659,-0.55919 -0.19727,-0.96289 h 3.57227 v 2.46875 c 0,0.96428 -0.15492,1.74872 -0.42969,2.38281 -0.25988,0.59973 -0.56481,0.91131 -1,1.12891 l -0.84961,0.42578 0.33789,2.36523 h 1.14453 c 0.99317,0 1.99621,-0.12399 3.00196,-0.36718 l 0.008,-0.002 c 0.71004,-0.16736 1.34787,-0.40457 1.99414,-0.63476 0.11976,0.0994 0.22821,0.22892 0.35547,0.31445 0.33192,0.23152 0.68771,0.44444 1.06836,0.63477 l 0.0176,0.008 0.0195,0.01 c 0.37618,0.17362 0.81319,0.3554 1.30273,0.54688 0.47962,0.21316 1.09258,0.49943 1.83203,0.85547 l 1.03516,0.49804 1.41211,-2.12109 -0.58399,-0.75 c -0.24178,-0.31086 -0.39162,-0.52816 -0.59765,-0.80273 l 1.87109,-0.37305 c 0.0555,-0.0111 0.10579,-0.0156 0.15625,-0.0156 h 0.10938 l 0.10742,-0.0195 c 0.0958,-0.016 0.1904,-0.0234 0.2832,-0.0234 0.47657,0 1.1538,0.0617 1.9961,0.19335 0.84603,0.1322 1.69287,0.30359 2.54101,0.51563 0.84977,0.21244 1.62684,0.43745 2.33203,0.67187 0.66217,0.2482 1.1007,0.49983 1.17969,0.56446 l 0.92383,0.75586 0.8457,-0.84571 c 0.52947,-0.52946 1.12751,-1.03818 1.79688,-1.52734 l 0.0137,-0.01 0.0117,-0.01 c 0.66463,-0.51125 1.3508,-0.95571 2.06054,-1.33594 0.72128,-0.38639 1.43702,-0.7056 2.14649,-0.95898 0.69728,-0.24904 1.3364,-0.40334 1.91406,-0.47266 l 1.38477,-0.16601 -0.24219,-1.37305 c -0.14752,-0.83592 -0.27242,-1.67967 -0.375,-2.53125 h 3.67383 v 6.27539 l 0.72851,0.36523 c 0.42323,0.21161 0.96701,0.49621 1.62305,0.85157 0.64514,0.34945 1.27704,0.71202 1.89453,1.08789 l 0.83398,0.50781 0.72852,-0.64844 c 0.16296,-0.14485 0.45824,-0.3633 0.86133,-0.61523 0.40517,-0.25324 0.83944,-0.49687 1.30273,-0.72852 l 0.0254,-0.0117 0.0254,-0.0137 c 0.47288,-0.26271 0.95823,-0.51279 1.45899,-0.75 0.49087,-0.23252 0.94833,-0.42374 1.36914,-0.57226 l 0.88086,-0.31055 v -2.76758 l -1.25,-0.0644 c -0.76449,-0.0402 -1.2829,-0.2757 -1.78516,-0.77539 -0.38173,-0.40448 -0.66015,-1.0922 -0.66015,-2.3086 v -7.67968 l 3.62109,0.45703 0.2832,-1.13477 c 0.10273,-0.4109 0.28877,-0.86221 0.5625,-1.3457 0.31291,-0.50274 0.65493,-0.95379 1.0293,-1.35156 l 0.35937,-0.38086 v -2.00782 h -5.85546 v -0.88086 c 0,-0.20027 0.0118,-0.61122 0.0391,-1.18359 l 0.002,-0.002 v -0.002 c 0.0261,-0.5741 0.0636,-1.1617 0.11524,-1.76367 v -0.002 l 0.002,-0.002 v -0.002 -0.002 -0.002 c 0.0818,-0.65368 0.16277,-1.2664 0.24414,-1.83594 0.0756,-0.52905 0.17432,-0.89772 0.20898,-0.98438 l 1.34571,-3.36132 -3.19336,1.70703 c -1.15295,0.61669 -2.22886,1.12257 -3.22461,1.51562 -0.91435,0.36093 -1.92619,0.58324 -3.05078,0.65821 l -2.52149,0.16796 1.47461,1.84571 h -0.002 v 0.002 0.002 c 0.006,0.0273 0.0888,0.1901 0.13086,0.41407 v 0.008 l 0.002,0.008 c 0.0731,0.36539 0.13753,0.79748 0.18945,1.29102 v 0.004 l 0.002,0.004 c 0.0527,0.47425 0.0909,0.94796 0.11719,1.42187 l 0.002,0.041 0.006,0.0391 c 0.0526,0.44671 0.0742,0.77337 0.0742,0.88477 v 0.62109 c -0.84332,0.68849 -1.69934,1.28543 -2.60352,1.63477 l -0.84375,0.32617 v 2.68164 h 3.44727 v 6.92383 h -3.85157 c -0.11575,-1.38432 -0.17382,-2.78918 -0.17382,-4.21485 0,-2.37598 0.16368,-4.41854 0.47656,-6.11328 l 0.3457,-1.88086 -1.88086,0.3418 c -0.25025,0.0455 -0.5175,0.0792 -0.79883,0.10352 h -1.29101 c -0.98934,0 -2.09142,-0.10184 -3.30274,-0.3125 -1.17275,-0.20396 -2.71387,-0.61492 -4.58398,-1.23829 l -1.34961,0.31836 c -1.18136,1.18136 -2.39092,2.15103 -3.62305,2.92188 -1.22791,0.74029 -2.29317,1.16646 -3.15039,1.32031 l -2.18359,0.39258 1.30469,1.63086 v 0.002 c 0.004,0.0103 0.008,0.0209 0.0117,0.0332 0.0339,0.11451 0.0828,0.32259 0.13281,0.59765 0.1016,0.55878 0.19488,1.25986 0.27539,2.0918 l 0.002,0.0215 0.004,0.0215 c 0.1062,0.82333 0.18642,1.70547 0.24023,2.64648 v 0.002 c 0.0268,0.45589 0.0473,0.89429 0.0606,1.31446 h -3.42383 v -18.20899 c 0,-1.37195 0.0926,-2.56251 0.26758,-3.57031 0.19019,-0.94259 0.50249,-1.61081 0.87891,-2.0625 l -1.58204,-2.03516 c -1.1116,0.52932 -2.14234,0.93179 -3.08789,1.2129 l -0.006,0.002 -0.004,0.002 c -0.88875,0.27157 -1.71168,0.39844 -2.47852,0.39844 -0.63334,0 -1.13679,-0.0842 -1.51562,-0.2168 l -3.17774,-1.11133 1.57422,2.97461 c 0.22577,0.42645 0.41082,0.83315 0.55469,1.2168 0.13752,0.36671 0.23941,0.74465 0.30859,1.13672 l 0.006,0.0352 0.01,0.0371 c 0.0899,0.3821 0.14961,0.81425 0.17383,1.29883 0.0263,0.52625 0.0391,1.12829 0.0391,1.80274 v 17.08789 h -3.70703 c -0.018,-0.56687 -0.0273,-1.22477 -0.0273,-1.97266 0,-1.98619 0.0577,-3.48224 0.15821,-4.44726 0.0848,-0.63612 0.27636,-0.99114 0.45507,-1.375 l -0.61328,-1.67579 c 0,0 -2.68998,-1.2487 -3.31054,-1.53906 -0.79462,-0.41213 -1.60973,-1.04655 -2.4336,-1.94531 l -0.7207,-0.78516 -0.91992,0.53907 c -0.63247,0.37076 -1.65151,0.76248 -3.01563,1.10351 -1.30039,0.3251 -2.91645,0.5 -4.83008,0.5 h -0.36328 c -0.27915,-0.0884 -0.41187,-0.041 -0.59179,-0.041 h -1.66211 l 0.37695,1.61914 c 0.20821,0.89229 0.45031,1.65159 0.75781,2.30078 l 0.0117,0.0254 0.0137,0.0234 c 0.32926,0.62559 0.71287,1.16664 1.18946,1.60351 l 0.0215,0.0215 0.0254,0.0195 c 0.45961,0.38301 0.98943,0.67471 1.56055,0.83789 l 0.0527,0.0137 0.0508,0.01 c 0.50925,0.10185 1.03966,0.15039 1.58789,0.15039 0.84767,0 1.78336,-0.16537 2.87696,-0.46094 0.445,-0.12027 0.85378,-0.30588 1.28515,-0.45117 v 1.35937 c -0.21088,0.0824 -0.35581,0.16219 -0.62304,0.24414 -0.56278,0.15293 -1.19913,0.29607 -1.91016,0.42774 -0.70044,0.12971 -1.44638,0.23502 -2.23437,0.31445 -0.7675,0.0525 -1.52182,0.0801 -2.25977,0.0801 -0.66896,0 -1.27443,-0.0396 -1.81445,-0.11328 l -2.27149,-0.3086 0.87305,2.11914 c 0.14273,0.34662 0.25749,0.77701 0.32812,1.29493 v 0.004 l 0.002,0.004 c 0.0231,0.16151 0.0426,0.32846 0.0586,0.5 h -2.20312 c -0.0185,-0.8334 -0.0273,-1.78263 -0.0273,-2.84571 0,-1.02875 0.028,-2.04305 0.082,-3.04296 v -0.002 c 0.05,-0.95056 0.21331,-1.96942 0.49805,-3.05664 l 0.33008,-1.25976 -1.25586,-0.34571 c -0.67671,-0.18667 -1.3524,-0.48118 -2.0332,-0.89453 -0.66291,-0.40249 -1.28494,-0.91564 -1.87305,-1.55273 l -0.51953,-0.5625 -0.74805,0.17187 c -0.76668,0.17693 -1.53041,0.39815 -2.292964,0.66211 -0.766131,0.2652 -1.518254,0.57481 -2.253906,0.92774 h -0.002 v 0.002 h -0.002 c -0.60493,0.26766 -1.169619,0.56795 -1.720703,0.87891 v -7.28907 c 0,-1.37195 0.0926,-2.56251 0.267578,-3.57031 0.190195,-0.94259 0.502494,-1.61081 0.878907,-2.0625 l -1.582032,-2.03516 c -1.1116,0.52932 -2.14235,0.93179 -3.08789,1.2129 l -0.0059,0.002 -0.0039,0.002 c -0.888752,0.27157 -1.711674,0.39844 -2.478516,0.39844 -0.633342,0 -1.136786,-0.0842 -1.515625,-0.2168 l -3.177734,-1.11133 1.574219,2.97461 c 0.225768,0.42645 0.410816,0.83314 0.554687,1.2168 0.13752,0.36672 0.239404,0.74464 0.308594,1.13672 l 0.0059,0.0352 0.0098,0.0371 c 0.08991,0.38212 0.1496,0.81423 0.173828,1.29883 0.02631,0.52624 0.03906,1.12829 0.03906,1.80274 v 14.36718 c 0,0.97428 -0.0087,1.8816 -0.02539,2.72071 h -3.431641 c -0.01773,-0.56737 -0.02734,-1.2258 -0.02734,-1.97266 0,-1.98619 0.05768,-3.48224 0.158203,-4.44726 0.106911,-0.80159 0.329953,-1.32511 0.574219,-1.73243 l 0.189453,-0.42187 c 0,0 -5.844103,-3.4821 -6.667969,-4.38086 l -0.720703,-0.78516 -0.919922,0.53907 c -0.632477,0.37076 -1.651504,0.76248 -3.015625,1.10351 -1.30039,0.3251 -2.914488,0.5 -4.828125,0.5 h -0.363281 c -0.278648,-0.0884 -0.411857,-0.041 -0.591797,-0.041 h -1.664063 l 0.378907,1.61914 c 0.208202,0.89229 0.448353,1.65159 0.755859,2.30078 l 0.01367,0.0254 0.01172,0.0234 c 0.329262,0.62559 0.712872,1.16664 1.189453,1.60351 l 0.02344,0.0215 0.02344,0.0195 c 0.45961,0.383 0.99139,0.67471 1.5625,0.83789 l 0.05078,0.0137 0.05273,0.01 c 0.509247,0.10185 1.039666,0.15039 1.587891,0.15039 0.847668,0 1.783349,-0.16537 2.876953,-0.46094 0.444398,-0.12011 0.852391,-0.30611 1.283203,-0.45117 v 1.35937 c -0.209288,0.0817 -0.352437,0.16087 -0.617187,0.24219 -0.564066,0.15347 -1.200807,0.2976 -1.914063,0.42969 -0.700442,0.12971 -1.446378,0.23502 -2.234375,0.31445 -0.768182,0.0526 -1.52119,0.0801 -2.259765,0.0801 -0.668957,0 -1.274428,-0.0396 -1.814453,-0.11328 l -2.271485,-0.3086 0.873047,2.11914 c 0.142726,0.34662 0.257499,0.777 0.328125,1.29493 v 0.004 0.004 c 0.02307,0.16151 0.04257,0.32846 0.05859,0.5 h -3.195313 c -0.02018,-0.64635 -0.0293,-1.29082 -0.0293,-1.93164 0,-1.58277 0.03967,-3.08092 0.121094,-4.49219 0.08271,-1.43361 0.165739,-2.69942 0.248047,-3.79688 l 0.111328,-1.47265 -1.476562,0.0547 c -1.470856,0.0555 -2.776794,0.11233 -3.917969,0.16796 -1.149807,0.0561 -2.190718,0.12583 -3.126953,0.21094 h -0.002 -0.002 c -0.919309,0.0862 -1.775632,0.20281 -2.56836,0.34961 h -0.0039 -0.0039 c -0.272822,0.0525 -0.524865,0.12923 -0.791016,0.18945 -0.05974,-0.3273 -0.140456,-0.65551 -0.185547,-0.98242 -0.10259,-0.74377 -0.154297,-1.48643 -0.154297,-2.22851 0,-0.88087 0.0876,-1.728 0.261719,-2.54883 l 0.002,-0.004 v -0.004 c 0.07906,-0.384 0.261309,-0.71652 0.386719,-1.07618 0.167245,0.0769 0.293204,0.16824 0.470703,0.24219 0.693191,0.28883 1.388326,0.54937 2.083984,0.78125 l 0.0293,0.01 0.03125,0.0117 c 0.710269,0.19888 1.382188,0.3697 2.015625,0.51367 l 0.0332,0.01 0.0332,0.006 c 0.681212,0.11847 1.248479,0.18555 1.761718,0.18555 1.521234,0 2.951212,-0.71913 4.074219,-1.9082 1.074469,-1.13767 1.911576,-2.53081 2.517578,-4.13672 l 0.917969,-2.4336 -2.505859,0.69727 c -0.457686,0.12714 -0.930536,0.24071 -1.416016,0.34375 -0.447241,0.0692 -0.908507,0.10547 -1.386719,0.10547 -0.779706,0 -1.527246,-0.0629 -2.246094,-0.18555 -0.740561,-0.15417 -1.438065,-0.3443 -2.091796,-0.57031 v -0.002 h -0.002 -0.002 -0.002 c -0.08802,-0.0318 -0.15972,-0.0728 -0.246094,-0.10547 1.453256,-0.98835 2.815747,-1.91291 3.857422,-2.60742 l 0.01172,-0.008 c 1.279758,-0.83486 2.10223,-1.39844 2.617188,-1.83984 l 1.210937,-1.03711 -1.244141,-0.99609 c -0.392877,-0.3143 -0.684537,-0.56931 -0.847656,-0.73243 -0.240897,-0.2409 -0.564992,-0.55207 -0.986328,-0.94531 z m 82.119141,26.05469 h 0.002 l 0.002,0.002 c 0.005,0.006 0.0129,0.0202 0.0215,0.0391 -0.0161,-0.0235 -0.0238,-0.0366 -0.0254,-0.041 z m 8.57031,0.41016 c 0.35899,0.1019 0.58703,0.23817 1,0.33203 l 0.0137,0.004 0.0137,0.002 c 0.87288,0.17854 1.77553,0.27664 2.67383,0.38672 l -0.0645,8.94726 c -0.5424,-0.12753 -1.046,-0.28591 -1.625,-0.38476 -0.71308,-0.12175 -1.32469,-0.19898 -1.9668,-0.28907 0.0266,-0.591 0.0575,-1.17677 0.0742,-1.77734 v 0.0352 c 0.0563,-1.04276 0.084,-1.97941 0.084,-2.8125 0,-1.04733 -0.0273,-2.08067 -0.084,-3.10157 v -0.002 c -0.0228,-0.42068 -0.083,-0.89856 -0.11914,-1.33984 z m -51.230467,0.65039 c -0.0191,0.28926 -0.03755,0.54032 -0.05664,0.8457 l -0.002,0.0215 v 0.0195 c -0.02811,0.89953 -0.04297,1.79966 -0.04297,2.69922 v 3.00781 0.0176 c 0.01941,0.71827 0.05607,1.21652 0.08984,1.74804 -0.254511,0.17226 -0.505385,0.30181 -0.767579,0.51758 h -0.002 l -0.002,0.002 c -0.257417,0.19794 -0.447378,0.38464 -0.666015,0.57422 -0.507914,-0.13674 -0.995135,-0.27602 -1.607422,-0.39453 -0.357292,-0.0692 -0.592278,-0.0775 -0.902344,-0.125 0.06645,-0.60858 0.166591,-1.136 0.183594,-1.88672 v -0.01 c 0.05609,-1.29373 0.08594,-2.70529 0.08594,-4.24024 v -1.67187 c 0.13285,-0.0606 0.196382,-0.10773 0.361328,-0.17188 l 0.0293,-0.01 0.0293,-0.0137 c 0.436105,-0.19382 0.917203,-0.36669 1.445313,-0.51758 0.538746,-0.15393 1.092713,-0.28355 1.660156,-0.38672 l 0.02148,-0.004 0.02148,-0.004 c 0.04316,-0.009 0.07834,-0.009 0.121093,-0.0176 z m -23.208984,6.33789 v 2.48633 c -0.347496,-0.0464 -0.760997,-0.14901 -1.074219,-0.16211 h -0.002 c -0.197588,-0.009 -0.383543,-0.0277 -0.578125,-0.0391 l 0.03711,-1.87305 c 0.317035,-0.0645 0.58718,-0.0918 0.941406,-0.1836 l 0.02344,-0.006 0.02148,-0.008 c 0.204101,-0.0605 0.42349,-0.14867 0.630859,-0.21484 z m 43.433591,0 v 2.48633 c -0.34709,-0.0463 -0.75938,-0.14902 -1.07227,-0.16211 h -0.002 c -0.19804,-0.009 -0.38506,-0.0277 -0.58008,-0.0391 l 0.0371,-1.87305 c 0.31735,-0.0646 0.58875,-0.0917 0.94336,-0.1836 l 0.0215,-0.006 0.0215,-0.008 c 0.2041,-0.0605 0.42349,-0.14867 0.63086,-0.21484 z m 19.76953,1.13086 h 3.43945 c -0.0196,1.28292 -0.11254,2.32248 -0.26171,3.08984 l -0.004,0.0137 -0.002,0.0156 c -0.13262,0.77355 -0.3775,1.1449 -0.38868,1.17187 h -0.002 l -1.65625,1.41993 c -0.2729,-0.38985 -0.50244,-0.78695 -0.66211,-1.20118 -0.15359,-0.46862 -0.27435,-1.0278 -0.34765,-1.6875 -0.075,-0.67452 -0.11524,-1.57497 -0.11524,-2.67773 z" /><g
       id="path1-8"
       style="opacity:1;fill:none;stroke:#000000;stroke-opacity:1;stroke-width:0.18897638;stroke-dasharray:none"
       transform="translate(-0.06523185,1.8278353)"><path
         id="path6"
         style="baseline-shift:baseline;display:inline;overflow:visible;fill:none;stroke-linecap:round;stroke-linejoin:round;enable-background:accumulate;stop-color:#000000;stop-opacity:1;stroke:#000000;stroke-opacity:1;stroke-width:0.18897638;stroke-dasharray:none"
         d="m 121.53711,30.972656 c -4.83356,0.993856 -9.1678,5.168461 -14.42186,2.918256 -4.7902,-1.522373 -9.94648,-0.727525 -14.287283,1.691697 -4.21334,2.066983 -8.265087,4.992556 -13.154361,4.987989 -4.967048,-0.659306 -6.331004,7.773539 -10.007591,5.191121 -3.114149,3.566907 -4.984468,8.715187 -4.706427,13.466973 1.746831,3.075125 1.890874,7.764728 -1.530729,8.869722 1.928166,2.887794 1.175398,5.709964 0.975529,8.852434 1.835447,3.532215 5.637971,5.634898 7.149208,9.457436 4.188255,7.225918 8.140188,15.991666 16.675483,18.870346 7.039529,2.30751 14.560501,2.37456 21.881421,2.99167 5.40981,0.42955 10.71245,-0.73869 15.92643,-2.0085 4.52205,-1.01095 7.72149,4.71331 12.33366,3.06912 4.58167,-0.92914 5.57885,-5.82444 4.86523,-9.788669 1.32864,-3.65299 3.71136,-6.936265 4.81361,-10.759068 1.67603,-4.291853 4.00473,-8.44316 7.55843,-11.448719 1.47929,-2.463244 -3.00605,-2.550758 -0.66125,-4.309365 -1.58285,-1.596953 0.556,-3.778419 -1.44563,-5.135991 0.0323,-2.344613 1.58773,-4.257344 2.04632,-6.460597 -0.95926,-4.637279 -2.08798,-9.238557 -3.12941,-13.858203 -0.92018,-2.966058 -3.12272,1.408202 -2.94879,-1.720468 -2.63258,-5.008096 -6.88679,-9.19894 -11.57699,-12.328579 -3.63456,-3.336709 -9.41666,-1.713515 -12.74889,-1.838467 -1.11303,-0.54727 -2.36814,-0.803588 -3.60611,-0.710138 z m 10.16016,5 c 5.70346,0.651664 9.08094,6.221409 11.76026,10.713978 4.73342,8.701839 7.65953,19.752711 3.05419,29.114143 -1.06669,1.732988 -4.14576,0.843535 -5.67383,3.316406 -4.15782,4.165617 -0.0212,-3.130336 0.21963,-5.318361 0.65486,-4.317526 2.23451,-8.673813 0.97312,-13.104417 -1.12616,-4.378174 -2.85142,-10.236938 -7.53067,-11.731516 -1.72912,1.218452 -0.19933,3.468877 0.19313,5.212053 0.87312,2.760696 1.74625,5.521392 2.61938,8.282088 -0.87573,3.820435 -0.1357,7.615823 -1.67779,11.254794 -1.45247,4.735866 -4.39533,9.834248 -9.68852,10.796662 -4.54423,0.824394 -8.50407,3.213903 -12.01313,6.119783 -3.63962,2.553807 -8.51793,1.489715 -12.46418,0.308674 -2.349751,-1.25164 -6.503869,-5.026464 -4.111862,-7.471694 0.755115,-1.590855 -1.122931,-2.792367 1.704159,-2.621893 2.911603,-1.080538 9.190893,-2.592594 8.345413,-6.364519 -2.14684,-1.354714 3.95224,-2.987331 5.1896,-4.623522 6.63426,-4.758158 11.02932,-12.462752 12.36868,-20.464685 0.74563,-3.974928 -1.39145,-9.207117 2.49957,-12.012857 1.2295,-0.865871 2.72103,-1.404178 4.23285,-1.405117 z m -11.50977,2.708985 c 2.00765,2.807035 2.17066,6.722629 1.56508,10.039721 -1.00711,1.902558 -4.53133,1.970882 -5.80307,3.138107 0.32681,-2.5492 -0.65211,-8.746964 0.33595,-8.992188 3.37889,3.784709 2.51986,-3.076991 3.90204,-4.18564 z m -22.876953,1.576171 c 2.373822,-0.172325 4.134533,3.168119 1.130974,3.567746 -1.666397,1.784478 -0.07532,9.501277 -3.996472,5.748872 -1.407397,-2.982745 -0.356253,-7.625368 2.574482,-9.287321 l 0.291016,-0.0293 z m 9.871093,0.150391 c -0.66408,3.021468 2.71466,5.735254 3.79298,1.49014 1.3867,3.375421 1.73375,7.493155 0.77558,11.085856 -3.56676,-1.47251 -9.003,-2.246371 -7.49329,-7.492867 0.28233,-1.953405 1.08914,-4.106601 2.92473,-5.083129 z m -19.037109,3.462891 c 3.237637,3.055313 -2.486984,5.720632 -3.399024,9.034132 -1.910532,2.458983 -1.823356,-4.490254 -1.075768,-5.652439 0.82036,-1.618866 2.596049,-3.236488 4.474792,-3.381693 z m -9.496094,5.376953 c 0.316562,2.297346 -1.087247,6.962575 -2.55664,7.349609 -1.348509,-3.379867 1.364042,-4.609725 2.55664,-7.349609 z m 5.316406,7.908203 c -0.221274,1.940688 -1.032257,0.453339 -10e-7,4e-6 z m -1.123046,11.845703 c 0.255455,4.007264 3.698096,8.97865 6.152343,10.316406 -2.517571,-1.650095 -4.475002,2.679524 -4.724637,-1.340505 -0.959447,-2.730777 -3.006099,-3.521971 -1.653571,-6.716505 0.07656,-0.753005 0.139178,-1.507437 0.225865,-2.259396 z M 79.632812,80.21289 c 0.137615,0.360299 -0.243534,0.02927 0,0 z m 12.732422,0.56836 c 1.697083,0.556036 4.208314,-4.2e-4 1.531904,1.619557 -0.599469,2.262295 -2.317619,1.18796 -0.623701,-0.416432 z m 49.681636,2.916015 c 1.45054,1.068018 2.16939,7.409017 -0.0431,6.33575 0.30183,-2.808425 -2.10025,-4.168181 0.0431,-6.33575 z m -59.57812,2.517578 c 1.506167,1.282092 3.630963,9.34978 0.410154,5.638672 C 81.630666,90.325618 81.297218,87.8802 82.46875,86.214843 Z m 51.06445,0.144532 c 0.95022,3.410479 2.73644,8.505574 -0.56738,11.062456 -5.4047,1.311555 -1.07698,-4.989677 -0.87521,-7.240511 0.59215,-1.232855 0.78322,-2.623742 1.44259,-3.821945 z m -42.398435,1.162109 c 5.26e-4,3.442206 6.800341,7.635565 3.357519,9.942391 -5.527293,0.995183 -5.39958,-5.588074 -3.65568,-9.062173 z m 34.769535,6.310547 c 0.23725,2.73461 -1.21304,2.259022 -2.83985,3.105469 0.62235,-1.277669 1.58197,-2.417482 2.83985,-3.105469 z m -26.488285,1.146484 c 2.465015,0.872418 6.149085,5.898625 1.988135,3.547176 -0.90287,-0.961161 -2.0401,-2.131503 -1.988135,-3.547176 z m 20.062505,0.566407 c 0.6518,3.69175 -7.06441,6.489348 -3.06601,1.730558 0.85217,-0.82926 1.89556,-1.474318 3.06601,-1.730558 z m -13.03516,0.443359 c 2.18993,0.145677 5.13183,2.572517 4.14464,4.408329 -2.30345,0.3691 -3.79316,-2.485367 -4.14464,-4.408329 z m 32.63281,1.685547 c 2.02289,3.133022 -8.40239,5.857242 -3.03498,2.23512 0.67541,-1.867015 2.07398,-0.786097 3.03498,-2.23512 z" /></g></g></svg>
