<?xml version="1.0" encoding="UTF-8" standalone="no"?>
<svg
   version="1.2"
   viewBox="0 0 219.2126 219.2126"
   width="58mm"
   height="58mm"
   id="svg1"
   sodipodi:docname="StrujceRoleTokenLaser.svg"
   inkscape:version="1.4.2 (f4327f4, 2025-05-13)"
   xml:space="preserve"
   xmlns:inkscape="http://www.inkscape.org/namespaces/inkscape"
   xmlns:sodipodi="http://sodipodi.sourceforge.net/DTD/sodipodi-0.dtd"
   xmlns="http://www.w3.org/2000/svg"
   xmlns:svg="http://www.w3.org/2000/svg"><sodipodi:namedview
     id="namedview1"
     pagecolor="#ffffff"
     bordercolor="#666666"
     borderopacity="1.0"
     inkscape:showpageshadow="2"
     inkscape:pageopacity="0.0"
     inkscape:pagecheckerboard="0"
     inkscape:deskcolor="#d1d1d1"
     inkscape:zoom="2.4619286"
     inkscape:cx="69.254649"
     inkscape:cy="74.941247"
     inkscape:window-width="1920"
     inkscape:window-height="1057"
     inkscape:window-x="-8"
     inkscape:window-y="-8"
     inkscape:window-maximized="1"
     inkscape:current-layer="layer2"
     inkscape:document-units="mm"
     showgrid="false" /><defs
     id="defs1"><clipPath
       clipPathUnits="userSpaceOnUse"
       id="cp1"><path
         d="m 275.5,535.5 c -143.78,0 -260,-116.22 -260,-260 0,-143.78 116.22,-260 260,-260 143.78,0 260,116.22 260,260 0,143.78 -116.22,260 -260,260 z"
         id="path1" /></clipPath></defs><style
     id="style1">
		tspan { white-space:pre } 
		.s0 { fill: none;stroke: #ff0000;stroke-miterlimit:100 } 
	</style><g
     inkscape:groupmode="layer"
     id="layer2"
     inkscape:label="Content"><g
       inkscape:groupmode="layer"
       id="layer4"
       inkscape:label="Kruh"
       style="display:inline"><path
         id="path2"
         style="fill:none;stroke:#000000;stroke-width:0.189192"
         d="M 219.118,109.6063 A 109.5117,109.5117 0 0 1 109.6063,219.118 109.5117,109.5117 0 0 1 0.09459686,109.6063 109.5117,109.5117 0 0 1 109.6063,0.09459686 109.5117,109.5117 0 0 1 219.118,109.6063 Z"
         inkscape:label="Vnejsi kruh" /><path
         id="circle2"
         style="fill:none;stroke:#000000;stroke-width:0.188976"
         d="M 208.69732,109.6063 A 99.091019,99.091019 0 0 1 109.6063,208.69732 99.091019,99.091019 0 0 1 10.515282,109.6063 99.091019,99.091019 0 0 1 109.6063,10.515282 99.091019,99.091019 0 0 1 208.69732,109.6063 Z"
         inkscape:label="Vnitrni kruh" /></g><path
       id="path3"
       style="font-size:41.5223px;font-family:'New Rocker';-inkscape-font-specification:'New Rocker';letter-spacing:0.769167px;baseline-shift:baseline;white-space:pre;display:inline;overflow:visible;opacity:1;fill:none;stroke:#000000;stroke-width:0.188976;stroke-dasharray:none;stroke-opacity:1;enable-background:accumulate;stop-color:#000000;stop-opacity:1"
       d="m 55.592841,129.15957 -0.707032,1.21094 c -0.677455,1.16135 -1.433753,1.88875 -2.273437,2.30859 -0.882969,0.44149 -2.014018,0.68945 -3.4375,0.68945 -0.668956,0 -1.212757,-0.0394 -1.609375,-0.10547 -0.513925,-0.0857 -0.919154,-0.14486 -1.248047,-0.17773 l -3.021484,-0.30273 1.839843,2.41601 c 0.767799,1.00774 1.276126,2.12641 1.542969,3.41211 0.285366,1.37495 0.429688,2.80784 0.429688,4.30078 0,1.36862 -0.06775,2.69185 -0.201172,3.97266 -0.136882,1.31406 -0.285826,2.54374 -0.449219,3.6875 l -0.279297,1.94336 1.904297,-0.47656 c 0.863839,-0.21597 1.770814,-0.41941 2.720703,-0.60938 0.957,-0.1914 1.914278,-0.36918 2.871094,-0.5332 0.948908,-0.16268 1.869201,-0.29635 2.759766,-0.4043 0.543616,-0.0659 0.992828,-0.10288 1.472656,-0.14844 0.08335,0.22743 0.15176,0.29615 0.21875,0.73828 0.126871,0.83735 0.193359,1.76784 0.193359,2.79102 0,1.18701 -0.07895,2.34476 -0.236328,3.47266 l -0.002,0.0117 -0.002,0.0137 c -0.05201,0.43688 -0.136677,0.63455 -0.203125,0.98828 -0.770135,-0.38485 -1.573789,-0.7746 -2.273438,-1.14844 l -0.01758,-0.01 c -0.0048,-0.003 -0.01083,-0.005 -0.01563,-0.008 -1.158129,-0.66138 -2.213075,-1.2447 -3.160156,-1.74609 -0.950149,-0.50303 -1.780673,-0.91149 -2.507813,-1.23242 -0.77306,-0.37046 -1.419192,-0.62305 -2.179687,-0.62305 h -1.728516 l 0.455078,1.66602 c 0.06613,0.24246 0.107509,0.46179 0.126954,0.65625 0.02291,0.22913 0.03516,0.47572 0.03516,0.74023 0,0.72684 -0.147913,1.3962 -0.457031,2.05859 l -0.0059,0.01 -0.0039,0.008 c -0.303555,0.67717 -0.729909,1.34649 -1.294922,2.00977 l -1.75,2.05468 2.695313,0.11915 c 1.810107,0.0811 3.361772,0.24398 4.638671,0.47851 l 0.01367,0.002 0.01563,0.004 c 1.341044,0.21457 2.492981,0.46688 3.445313,0.75 0.964371,0.28671 1.761107,0.59531 2.388672,0.9082 0.720453,0.37375 1.355788,0.72927 1.90039,1.06641 l 0.875,0.54102 0.738282,-0.71485 c 0.664749,-0.64259 1.558255,-1.17111 2.738281,-1.56445 1.19307,-0.39769 2.430302,-0.5957 3.734375,-0.5957 h 1.699219 l -0.419922,-1.64649 c -0.339751,-1.33287 -0.576119,-2.72302 -0.708985,-4.16992 v -0.004 c -0.01881,-0.2636 -0.03516,-0.5263 -0.05078,-0.78906 h 4.910156 v 6.22852 l 0.728516,0.36523 c 0.423231,0.21162 0.966997,0.4962 1.623047,0.85156 0.645145,0.34946 1.277034,0.71203 1.894531,1.08789 l 0.832031,0.50782 0.730469,-0.64844 c 0.162958,-0.14485 0.458247,-0.36331 0.861328,-0.61524 0.405176,-0.25323 0.837494,-0.49491 1.300781,-0.72656 l 0.02734,-0.0137 0.02344,-0.0137 c 0.472872,-0.26271 0.960174,-0.5128 1.460937,-0.75 0.49087,-0.23252 0.948334,-0.42179 1.369141,-0.57031 l 0.880859,-0.31055 v -2.76758 l -1.25,-0.0664 c -0.762069,-0.0401 -1.280463,-0.27505 -1.78125,-0.77148 -0.324522,-0.34202 -0.575148,-0.88761 -0.644531,-1.78711 h 6.373047 v 2.96289 c 0,0.63742 -0.09423,1.07551 -0.177735,1.27344 -0.04175,0.099 -0.06161,0.13706 -0.07031,0.14844 v 0.002 h -0.002 -0.002 -0.002 l -0.002,-0.002 v -0.002 h -0.002 -0.002 l -0.861328,0.32032 v 2.85937 h 11.525391 v -3.1543 l -1.117188,-0.17382 c -0.681439,-0.10648 -0.949741,-0.29852 -1.025391,-0.37305 -0.06208,-0.0989 -0.224609,-0.48721 -0.224609,-1.27149 v -2.58984 h 9.666012 c -0.009,0.10069 -0.0194,0.19996 -0.0293,0.29883 -0.0803,0.803 -0.17298,1.47454 -0.27344,2.00195 l -0.006,0.0312 -0.004,0.0293 c -0.0501,0.35109 -0.16169,0.63088 -0.16601,0.67969 v 0.002 0.002 h 0.002 v 0.002 h 0.002 v -0.002 h 0.002 l 0.002,-0.002 c 0.004,-0.004 0.0115,-0.0107 0.0195,-0.0215 l -0.73828,1.10743 1.25195,0.69336 c 0.47831,0.26572 0.89772,0.51585 1.25586,0.74609 l 0.0449,0.0293 0.0488,0.0254 c 0.36418,0.19423 0.71504,0.41225 1.05664,0.65625 l 0.0176,0.0117 0.0176,0.0137 c 0.36454,0.24302 0.73603,0.52656 1.11328,0.85351 l 0.0352,0.0312 0.0371,0.0274 c 0.40067,0.3005 0.87233,0.69116 1.40429,1.16992 l 0.93165,0.83789 0.88476,-0.88477 c 0.42255,-0.42255 0.82881,-0.81727 1.22266,-1.18554 l 0.006,-0.004 c 0.40479,-0.3539 0.83797,-0.6972 1.29687,-1.0293 0.48926,-0.33432 1.01908,-0.67268 1.5918,-1.01171 0.22863,-0.12923 0.54359,-0.28386 0.80078,-0.42188 0.14342,0.40044 0.19384,0.87053 0.40039,1.22461 l 0.01,0.0176 0.01,0.0176 c 0.52351,0.83761 1.27965,1.63322 2.25977,2.46484 l 1.32422,1.125 0.72656,-1.57813 c 0.10673,-0.23125 0.29705,-0.53684 0.58008,-0.89062 l 0.0137,-0.0156 0.0117,-0.0176 c 0.29259,-0.39012 0.6243,-0.77078 0.99804,-1.14453 0.37376,-0.37375 0.75638,-0.70742 1.14649,-1 0.39011,-0.29259 0.7219,-0.49139 0.96484,-0.60352 l 0.76758,-0.35547 v -2.36719 l -1.04297,-0.22461 c -0.18381,-0.0393 -0.2551,-0.0893 -0.3125,-0.13476 v -0.002 c -0.005,-0.0122 -0.0979,-0.13829 -0.1875,-0.46094 -0.0532,-0.19151 -0.10464,-0.44069 -0.14844,-0.74219 h 3.68164 v 8.20508 c -0.33784,1.44899 -0.80058,2.80849 -1.40625,4.07031 l -0.002,0.004 -0.002,0.004 c -0.62827,1.33508 -1.41831,2.68181 -2.375,4.03711 l -0.80274,1.13672 3.61524,2.27344 0.73828,-0.89649 c 0.74449,-0.90402 1.51271,-1.73817 2.30469,-2.5039 l 0.002,-0.002 c 0.79465,-0.74084 1.56001,-1.39947 2.29102,-1.97461 0.76106,-0.54985 1.47823,-1.01907 2.14257,-1.40235 0.66347,-0.38277 1.24096,-0.64867 1.70899,-0.80469 l 0.90234,-0.30078 v -1.66406 l -0.38672,-0.38672 c -0.11087,-0.11087 -0.20145,-0.24761 -0.28125,-0.45508 -0.0806,-0.20957 -0.18333,-0.61004 -0.25781,-1.15625 v -0.004 -0.006 c -0.0722,-0.50515 -0.1254,-1.17715 -0.15234,-1.98828 v -3.17969 -3.00586 h 3.26367 c -0.0478,0.53565 -0.10852,1.04305 -0.17969,1.52344 -0.10319,0.66899 -0.22949,1.24609 -0.37305,1.72461 l -0.01,0.0293 -0.008,0.0312 c -0.11581,0.46325 -0.25744,0.74947 -0.29883,0.8086 l -1.45313,2.07617 h 2.53516 c 0.74246,0 1.60173,0.0754 2.57031,0.23242 0.98805,0.16022 1.9616,0.35954 2.92188,0.59961 l 0.004,0.002 h 0.004 c 0.98083,0.23858 1.87422,0.50388 2.67969,0.78907 0.79875,0.31041 1.41416,0.60239 1.80273,0.83984 l 0.94922,0.58008 0.73242,-0.83594 c 0.0664,-0.0759 0.26853,-0.25287 0.57617,-0.45312 0.3699,-0.22115 0.76635,-0.43383 1.19336,-0.63477 l 0.0137,-0.006 0.0137,-0.008 c 0.4458,-0.2229 0.8866,-0.40556 1.32226,-0.55078 l 0.0195,-0.006 0.0195,-0.008 c 0.47057,-0.17337 0.88706,-0.28925 1.24023,-0.35547 l 0.98828,-0.18555 h 2.2793 c 0.37607,0 0.93119,0.0567 1.62695,0.18555 h 0.004 l 0.004,0.002 c 0.7178,0.12818 1.45498,0.30701 2.20899,0.54102 l 0.0254,0.01 0.0254,0.006 c 0.77047,0.20546 1.5127,0.4608 2.22851,0.76758 h 0.002 l 0.002,0.002 h 0.002 v 0.002 h 0.002 l 2.88867,1.14844 2.10547,-1.06054 c 0.47978,-0.17083 0.95779,-0.34279 1.46875,-0.5 l 0.0234,-0.006 0.0215,-0.008 c 0.6626,-0.22936 1.32094,-0.40712 1.97656,-0.5332 l 0.0234,-0.004 0.0234,-0.006 c 0.68236,-0.15749 1.25937,-0.25717 1.71093,-0.30468 l 1.68555,-0.17774 -0.58594,-1.59179 c -0.16169,-0.43889 -0.27232,-0.87021 -0.34179,-1.29688 -0.0461,-0.47957 -0.0742,-1.17058 -0.0742,-2.06641 v -0.91406 c 0,-0.29554 0.0104,-0.5908 0.0351,-0.88672 l 0.16211,-1.92578 -1.85351,0.55078 c -1.43322,0.42693 -2.57481,0.9864 -3.38086,1.87305 l -0.0117,0.0117 -0.0117,0.0137 c -0.40345,0.46716 -0.53296,1.09466 -0.76172,1.66992 -0.17057,-0.0156 -0.29597,-0.0238 -0.48828,-0.043 -0.5332,-0.0799 -1.07845,-0.15845 -1.63672,-0.23828 -0.56063,-0.10692 -1.09348,-0.21385 -1.59961,-0.32031 l -0.0137,-0.004 c -0.0405,-0.009 -0.0549,-0.0181 -0.0937,-0.0273 0.0327,-0.31884 0.0569,-0.5852 0.0957,-0.94727 0.0477,-0.44513 0.0656,-0.90438 0.0957,-1.35742 1.3237,-0.20954 2.6539,-0.41494 4.03125,-0.58984 h 0.01 l 0.0117,-0.002 c 1.71877,-0.24554 3.40717,-0.43611 5.06836,-0.57227 l 1.74219,-0.14258 -0.61328,-1.63672 c -0.13858,-0.36954 -0.27781,-0.84108 -0.40625,-1.40625 -0.12807,-0.56348 -0.23059,-1.15719 -0.3086,-1.78125 -0.0808,-0.64641 -0.1493,-1.29328 -0.20312,-1.93945 l 0.002,0.004 c -0.053,-0.66278 -0.0801,-1.26525 -0.0801,-1.80469 0,-0.69852 0.042,-1.25768 0.10743,-1.65039 l 0.24804,-1.48633 -1.50586,-0.0508 c -1.60401,-0.0544 -3.22115,-0.14948 -4.85351,-0.28516 -0.009,-8.5e-4 -0.0129,-9.5e-4 -0.0215,-0.002 -1.62134,-0.16269 -2.97939,-0.35149 -4.05078,-0.56055 l -0.68945,-0.13476 -0.49805,0.49609 c -0.91108,0.91108 -1.8205,1.65285 -2.72461,2.23047 l -0.008,0.004 -0.006,0.004 c -0.82023,0.53902 -1.72586,0.90213 -2.75586,1.09375 l -1.45117,0.26953 0.42969,1.41211 c 0.16585,0.54494 0.35459,1.39274 0.54297,2.4961 l 0.004,0.0176 0.004,0.0176 c 0.19614,0.98075 0.30664,2.30467 0.30664,3.93555 0,0.47699 -0.016,0.99854 -0.0469,1.5625 h -2.47851 l 0.18945,-1.51172 -1.91992,0.54883 c -1.36349,0.38956 -2.54824,1.09144 -3.44336,2.08984 l -0.002,0.002 c -0.55744,0.62432 -0.93069,1.36385 -1.2168,2.14257 -0.45626,-0.0665 -0.86895,-0.1014 -1.40039,-0.22265 l -0.008,-0.002 c -0.50506,-0.11905 -0.81425,-0.24135 -1.20117,-0.36328 0.0696,-0.61236 0.15386,-1.19292 0.18945,-1.88281 v -0.002 c 2e-4,-9.2e-4 0.002,-0.005 0.002,-0.006 v -0.002 -0.002 c 0.0834,-1.1211 0.12695,-2.15564 0.12695,-3.09961 0,-1.0741 -0.0429,-2.13502 -0.12695,-3.18359 v -0.01 c -0.006,-0.11597 -0.0261,-0.23168 -0.0332,-0.34765 0.15435,0.0872 0.29277,0.24208 0.44922,0.32031 0.99894,0.49947 1.93227,0.80469 2.875,0.80469 1.25796,0 2.48506,-0.43152 3.57812,-1.19336 l 0.002,-0.002 0.004,-0.002 c 1.11466,-0.78681 2.00402,-1.82835 2.6211,-3.0625 l 0.78906,-1.58008 -1.74024,-0.30859 c -1.16936,-0.20789 -2.32603,-0.51983 -3.47461,-0.9375 -1.14329,-0.41574 -2.12202,-0.88998 -2.93945,-1.41016 l -0.61328,-0.38867 -0.65625,0.30664 c -1.20308,0.56471 -7.24405,2.52278 -8.66602,2.75977 l -1.49804,0.24804 0.45508,1.44922 c 0.2699,0.85879 0.47983,1.92511 0.61132,3.1875 l 0.002,0.0137 0.002,0.0156 c 0.15805,1.23805 0.23828,2.58143 0.23828,4.02734 0,0.54545 -0.0111,1.08034 -0.0312,1.60352 h -3.37109 v -11.26953 l -1.43946,-2.39844 -0.94921,0.23633 c -0.19229,0.0481 -0.39079,0.0969 -0.59571,0.14648 v -1.76367 l 0.10352,-0.20703 c 0.41503,-0.83007 0.88395,-1.47442 1.39258,-1.96094 v -0.002 h 0.002 c 0.60514,-0.57992 1.35743,-1.19199 2.25586,-1.82617 l 1.69336,-1.19531 -1.80078,-1.0293 c -0.14633,-0.0836 -0.42441,-0.25488 -0.7793,-0.48242 -0.34221,-0.26256 -0.70618,-0.53574 -1.09375,-0.82032 l -0.0156,-0.0117 c -0.007,-0.005 -0.0124,-0.0104 -0.0195,-0.0156 -0.34896,-0.27482 -0.68545,-0.54863 -1.00976,-0.82227 l -0.006,-0.006 c -0.29072,-0.26721 -0.49209,-0.48684 -0.57813,-0.60157 l -0.67773,-0.90429 -0.99805,0.53125 c -0.98827,0.52708 -1.87797,1.26228 -2.66211,2.17187 l -0.002,0.002 -0.002,0.002 c -0.71068,0.82911 -1.324,1.67997 -1.83789,2.55664 l -0.5586,0.95312 0.83789,0.7168 c 0.22521,0.19304 0.51454,0.42419 0.88477,0.70898 0.35597,0.27384 0.7251,0.56136 1.10937,0.86329 0.36354,0.28563 0.69866,0.56979 1.00391,0.8496 l 0.043,0.0371 0.0449,0.0352 c 0.31968,0.24591 0.53011,0.44757 0.5918,0.51953 l 0.33398,0.38867 v 1.71875 c -0.21058,0.0473 -0.42625,0.0942 -0.64648,0.14258 -0.003,6.5e-4 -0.005,9.5e-4 -0.008,0.002 -1.10334,0.21479 -2.12542,0.39013 -3.05859,0.52344 l -1.13281,0.16211 v 2.46875 l 1.53515,0.66406 v 8.91602 h -3.82031 c -0.0255,-0.6513 -0.0391,-1.4237 -0.0391,-2.31055 v -11.93359 l -1.91016,0.95508 c -0.82543,0.41272 -1.85133,0.77043 -3.07422,1.05664 l -0.002,0.002 h -0.004 c -1.19876,0.28666 -2.42306,0.47041 -3.67774,0.54883 l -1.23828,0.0762 v 2.79492 l 0.98047,0.25977 c 0.28647,0.0764 0.41822,0.16916 0.42578,0.17578 l 0.0644,0.0566 0.0684,0.0449 0.002,0.002 v 0.002 h 0.002 c 0.0119,0.014 0.0409,0.0571 0.082,0.16406 0.0594,0.15452 0.13844,0.51798 0.16211,1.03906 l 0.002,0.0293 0.002,0.0312 c 0.0498,0.5479 0.0781,1.28981 0.0781,2.20508 v 5.61328 l -2.48437,1.08789 -0.60547,-0.46289 v -7.73242 -1.86914 c 0.0247,-0.48835 0.0376,-0.94366 0.0391,-1.3711 0.0267,-0.42634 0.0535,-0.82396 0.0801,-1.19726 0.0416,-0.29321 0.0823,-0.60405 0.12304,-0.9375 h 0.29688 v -2.51758 l 0.0176,-0.14844 -0.0176,0.008 v -0.29101 c 0.29924,0.0343 0.60683,0.0508 0.92187,0.0508 0.86717,0 1.6866,-0.15332 2.41993,-0.49805 0.69404,-0.31413 1.30838,-0.75452 1.79687,-1.3125 0.49876,-0.53953 0.87427,-1.1765 1.09766,-1.87109 0.23714,-0.65622 0.36523,-1.34406 0.36523,-2.03906 0,-0.67541 -0.12875,-1.3474 -0.36328,-1.9961 -0.22567,-0.7017 -0.61482,-1.34205 -1.13281,-1.86523 -0.49973,-0.53163 -1.12251,-0.9444 -1.82813,-1.24805 -0.76069,-0.33978 -1.60988,-0.48633 -2.52148,-0.48633 -0.89405,0 -1.74217,0.15067 -2.51172,0.48047 l -0.0117,0.004 -0.0117,0.004 c -0.69875,0.31444 -1.32237,0.75263 -1.83398,1.30078 l -0.0176,0.0176 -0.0156,0.0176 c -0.46371,0.53505 -0.82387,1.15139 -1.07031,1.82032 -0.24311,0.65986 -0.37304,1.34712 -0.37304,2.03515 0,0.70762 0.12733,1.40731 0.37304,2.07422 l 0.004,0.0117 0.004,0.0117 c 0.2566,0.65986 0.64436,1.26349 1.13672,1.79101 l 0.0156,0.0176 0.0156,0.0156 c 0.50362,0.50361 1.11393,0.90166 1.79688,1.20312 v 1.55664 l -0.37695,0.17383 c -0.27574,0.12726 -0.71723,0.2924 -1.28125,0.47266 -0.58133,0.15805 -1.2169,0.31853 -1.91016,0.47851 -0.68782,0.15873 -1.37503,0.30469 -2.0625,0.4375 h -0.002 -0.002 -0.002 -0.002 c -0.69613,0.10699 -1.32163,0.18812 -1.86914,0.24024 l -1.08789,0.10351 -0.0117,0.12891 -0.15235,-0.0371 c -1.12158,-0.26704 -2.140158,-0.55874 -3.058592,-0.87305 -0.90664,-0.33787 -1.585113,-0.66045 -1.980469,-0.91015 l -1.378906,-0.86914 -0.564453,1.52734 c -0.234855,0.63549 -0.508445,1.19916 -0.763672,1.79687 v -0.41601 l -1.439453,-2.39844 -0.947266,0.23633 c -0.870118,0.21753 -1.868953,0.45027 -2.99414,0.69726 -1.104131,0.21497 -2.1268,0.39004 -3.060547,0.52344 l -0.134766,0.0195 v -0.0332 h -5.853515 v -0.88086 c 0,-0.20025 0.01181,-0.61123 0.03906,-1.18359 v -0.002 c 0.0261,-0.57408 0.06549,-1.16366 0.117188,-1.76562 v -0.002 -0.002 l 0.002,-0.002 v -0.002 -0.002 c 0.08177,-0.65367 0.162776,-1.26639 0.24414,-1.83593 0.07558,-0.52905 0.174321,-0.89577 0.208985,-0.98243 l 1.34375,-3.36132 -3.191407,1.70703 c -1.152948,0.61669 -2.230811,1.12061 -3.226562,1.51367 -0.914349,0.36093 -1.924231,0.58323 -3.048828,0.6582 l -2.521484,0.16797 1.474609,1.8457 h -0.002 v 0.002 0.002 c 0.006,0.0272 0.08885,0.19001 0.130859,0.41406 v 0.008 l 0.002,0.008 c 0.07309,0.36544 0.1375,0.79744 0.189453,1.29101 v 0.004 0.004 c 0.0527,0.47426 0.09281,0.94794 0.119141,1.42187 l 0.002,0.041 0.0059,0.041 c 0.05255,0.44673 0.07422,0.77134 0.07422,0.88281 v 0.62305 c -0.843319,0.68848 -1.699328,1.28542 -2.603515,1.63477 l -0.84375,0.32617 v 2.68164 h 3.447265 v 6.96875 h -4.992187 c -0.02138,-0.66217 -0.03125,-1.32212 -0.03125,-1.97852 0,-1.58277 0.04163,-3.07896 0.123047,-4.49023 0.08271,-1.43361 0.165738,-2.69943 0.248047,-3.79688 l 0.109375,-1.4746 -1.476563,0.0566 c -1.470856,0.0555 -2.774841,0.11037 -3.916016,0.16601 -1.14981,0.0561 -2.192668,0.12582 -3.128906,0.21094 l -0.002,0.002 h -0.002 c -0.919311,0.0862 -1.773675,0.20085 -2.566406,0.34766 h -0.0039 l -0.0059,0.002 c -0.272415,0.0524 -0.523298,0.12934 -0.789062,0.18945 -0.05988,-0.32793 -0.14037,-0.65683 -0.185547,-0.98437 -0.10259,-0.74378 -0.154297,-1.48448 -0.154297,-2.22656 0,-0.88087 0.0876,-1.72994 0.261719,-2.55078 v -0.004 l 0.002,-0.004 c 0.07908,-0.3841 0.261262,-0.71642 0.386718,-1.07617 0.16731,0.0769 0.293132,0.1682 0.470704,0.24219 0.693191,0.28883 1.386374,0.54936 2.082031,0.78125 l 0.03125,0.0117 0.03125,0.008 c 0.710268,0.19888 1.380233,0.36971 2.013672,0.51367 l 0.0332,0.008 0.0332,0.006 c 0.681212,0.11848 1.250433,0.18555 1.763672,0.18555 1.521231,0 2.949257,-0.71914 4.072265,-1.9082 1.074467,-1.13768 1.911577,-2.52886 2.517579,-4.13477 l 0.919921,-2.43359 -2.507812,0.69531 c -0.457687,0.12714 -0.930536,0.24071 -1.416016,0.34375 -0.447241,0.0692 -0.908506,0.10547 -1.386718,0.10547 -0.7797,0 -1.525298,-0.0629 -2.244141,-0.18555 -0.740561,-0.15416 -1.438066,-0.3443 -2.091797,-0.57031 h -0.002 -0.002 l -0.002,-0.002 c -0.638637,-0.23058 -1.234416,-0.48565 -1.78711,-0.76172 h -0.002 -0.002 v -0.002 h -0.002 c -0.538936,-0.28317 -0.994578,-0.54978 -1.353516,-0.78907 z m 57.591799,5.39648 c 0.42805,1e-5 0.45298,0.0609 0.50586,0.12696 0.18024,0.2253 0.20898,0.34386 0.20898,0.5039 0,0.15241 -0.0489,0.30955 -0.22265,0.55078 -0.0684,0.0872 -0.0697,0.12305 -0.40821,0.12305 -0.4659,0 -0.54839,-0.0818 -0.62304,-0.16797 -0.19825,-0.22874 -0.2168,-0.32873 -0.2168,-0.46289 0,-0.13416 0.0186,-0.2361 0.2168,-0.46484 l 0.0137,-0.0156 0.0137,-0.0176 c 0.1092,-0.1344 0.14069,-0.17577 0.51172,-0.17578 z m -28.244143,11.44336 1.201172,0.51953 v 8.91602 h -6.392578 v -6.45898 l 3.621093,0.45703 0.283203,-1.13672 c 0.103159,-0.41264 0.288778,-0.86379 0.564454,-1.34961 0.219758,-0.3527 0.472667,-0.64704 0.722656,-0.94727 z m 17.683593,0.65625 c 0.24221,0.15401 0.42373,0.31344 0.54883,0.49414 l 0.0332,0.0488 0.0371,0.0449 c 0.14062,0.16874 0.29321,0.43859 0.41992,0.83985 0.12472,0.39487 0.22555,0.93621 0.27539,1.60937 l 0.002,0.0274 0.002,0.0273 c 0.0751,0.65081 0.11719,1.462 0.11719,2.42187 0,0.85833 -0.028,1.76104 -0.082,2.70704 v 0.0195 l -0.002,0.0176 c -0.005,0.1758 -0.0104,0.35004 -0.0176,0.52148 h -9.779302 v -0.97461 l 2.587891,-3.64258 3.048828,1.59375 0.683593,-0.78711 c 0.67203,-0.77282 1.20043,-1.70238 1.60547,-2.76172 l 0.004,-0.006 0.002,-0.006 c 0.25127,-0.67649 0.36248,-1.44927 0.51367,-2.19532 z m 62.51758,2.07617 c 0.27428,0.0527 0.52109,0.13147 0.80469,0.17579 l 0.0215,0.002 0.0234,0.004 c 0.47641,0.0577 0.83185,0.0584 1.24609,0.0879 0.0218,0.27055 0.0183,0.54785 0.0547,0.81445 l 0.004,0.0293 0.006,0.0273 c 0.0338,0.18594 0.0788,0.35363 0.11523,0.53516 l -2.0918,0.51757 c -0.0234,-0.31057 -0.0318,-0.58441 -0.0625,-0.91211 -0.0238,-0.37529 -0.0834,-0.86289 -0.12109,-1.28125 z m -10.10938,8.44727 h 2.46094 c -0.0318,0.36166 -0.0724,0.71929 -0.12304,1.07422 l -0.004,0.0195 -0.002,0.0215 c -0.0766,0.68923 -0.191,1.33167 -0.33985,1.92969 -0.14526,0.55682 -0.31117,0.94732 -0.42773,1.13672 l -0.86133,1.40039 -0.25781,-0.87305 c -0.11752,-0.39957 -0.23134,-0.902 -0.33399,-1.48632 -0.0695,-0.54381 -0.11132,-1.33056 -0.11133,-2.33594 z"
       inkscape:label="text" /><path
       id="path5"
       style="baseline-shift:baseline;display:inline;overflow:visible;opacity:1;fill:none;stroke-width:0.18897638;enable-background:accumulate;stop-color:#000000;stop-opacity:1;stroke:#000000;stroke-opacity:1;stroke-dasharray:none"
       d="m 131.2363,32.930379 c -0.072,0.0021 -0.1435,0.0078 -0.21282,0.01897 -0.55445,0.08964 -1.06733,0.365372 -1.56763,0.684788 -0.5003,0.319417 -0.9813,0.692812 -1.39908,1.015593 -0.41779,0.322782 -0.79154,0.601266 -0.9587,0.689002 -4.57582,2.40178 -9.81142,3.362422 -15.01687,3.590397 -5.56174,0.243561 -11.92149,-0.03406 -17.13446,-1.854196 -0.572323,-0.199828 -2.004864,-1.182128 -3.364942,-2.037508 -0.680039,-0.427688 -1.359568,-0.828188 -1.995368,-1.097767 -0.6358,-0.26958 -1.246435,-0.467677 -1.860516,-0.22124 -0.409098,0.164175 -0.71649,0.487403 -0.859673,0.84071 -0.143182,0.353306 -0.149708,0.713702 -0.11378,1.049305 0.07185,0.671209 0.327375,1.305941 0.440371,1.670883 0.909354,2.936981 1.690566,5.958629 2.488415,8.950707 2.222697,8.335591 4.100902,16.856179 6.639284,25.143312 0.479381,1.56503 1.381576,3.765688 2.069115,5.956603 0.68754,2.190916 1.11995,4.380146 0.80489,5.697437 -0.10268,0.429308 -0.28806,0.673941 -0.55205,0.859672 -0.26399,0.185732 -0.62914,0.302234 -1.055624,0.347662 -0.852975,0.09086 -1.921437,-0.116361 -2.665406,-0.339233 -1.472146,-0.441017 -4.150732,-2.088936 -6.69196,-2.899288 -1.270614,-0.405175 -2.542904,-0.617784 -3.695748,-0.276023 -1.152844,0.34176 -2.606628,3.206693 -2.534176,3.415609 7.837217,5.499026 14.986493,12.459444 22.886078,18.107816 0.21857,0.15628 0.59985,0.6077 0.9566,1.20101 0.35674,0.59331 0.7116,1.32908 0.99663,2.08386 0.28504,0.75479 0.50136,1.53003 0.59419,2.18922 0.0929,0.65918 0.0393,1.19889 -0.08,1.44121 -0.12723,0.25843 -0.49334,0.50811 -1.00717,0.71008 -0.51385,0.20196 -1.11861,0.34393 -1.62874,0.54993 -1.12182,0.453 -3.5508,1.03018 -5.790144,1.80363 -1.119677,0.38672 -2.200215,0.82625 -3.088926,1.35693 -0.888712,0.53069 -1.618678,1.15427 -1.911085,2.00802 l -0.257059,0.7501 h 21.734124 l 11.02614,-0.31606 v -1.48756 l -0.3013,-0.16014 c -3.98482,-2.09973 -9.38414,-4.11599 -13.93597,-4.97894 0.58052,-2.02234 0.93813,-4.40371 1.88369,-5.84704 1.00323,-1.53135 3.29941,-2.79661 4.9663,-4.144548 3.4402,-2.781881 6.82849,-5.662489 10.18122,-8.539835 0.96936,-0.831924 2.65207,-1.870692 4.2204,-3.021495 1.56833,-1.150802 3.05941,-2.399341 3.64307,-3.919095 0.25461,-0.662964 0.10908,-1.35745 -0.25705,-1.841553 -0.36614,-0.484103 -0.89587,-0.811816 -1.46651,-1.064056 -1.14129,-0.504478 -2.43742,-0.710961 -3.2638,-0.644754 -1.60518,0.128605 -3.06322,0.909967 -4.48799,1.664561 -1.42479,0.754595 -2.81907,1.48888 -4.2183,1.681419 -0.57967,0.07976 -1.33347,0.055 -1.88791,-0.143278 -0.55444,-0.198281 -0.87996,-0.470437 -0.95238,-1.074591 -0.16625,-1.386671 0.32905,-3.341764 1.00506,-5.307635 0.67601,-1.96587 1.51042,-3.941208 1.93426,-5.541516 2.19226,-8.277252 4.26462,-16.583121 6.59082,-24.814613 0.79225,-2.80343 1.28551,-5.704801 2.23768,-8.335451 0.21836,-0.603286 0.52388,-1.425228 0.67003,-2.290353 0.14616,-0.865125 0.14435,-1.816284 -0.38348,-2.606409 -0.31798,-0.476015 -0.86767,-0.688412 -1.37168,-0.674253 z m -3.13572,4.029985 c -0.4685,2.690881 -1.29743,5.180275 -2.15337,7.954669 -0.82532,2.675136 -1.53618,5.32419 -2.50346,8.135474 l 3.54265,-15.560492 -1.10199,0.627897 c -0.84929,0.48286 -1.8048,0.651493 -2.70333,0.99031 1.89304,-0.802178 2.93674,-1.324117 4.9195,-2.147858 z m -7.1972,2.992781 c -0.3352,0.139158 -0.67134,0.274761 -1.02824,0.347662 0.35047,-0.106424 0.69143,-0.22419 1.02824,-0.347662 z M 86.670286,82.601747 c 0.126975,-0.0045 0.21694,0.120862 0.33502,0.130636 l -1.059842,0.26338 -0.252845,-0.168563 c 0.324236,-0.07632 0.69158,-0.215239 0.977667,-0.225453 z m 45.448654,0.523375 c 0.20826,-0.008 0.41622,-0.0044 0.62368,0.01057 0.36724,0.02644 0.0573,0.119293 0.42418,0.228864 -3.96055,2.302349 -6.49573,3.715191 -10.55388,5.33399 0.0934,-0.777017 0.10993,-1.23621 -0.17539,-1.779836 -0.23655,-0.45062 -0.15833,-0.114974 -0.4534,-0.535954 2.46286,0.17032 3.89431,-0.783605 5.98355,-1.656535 1.59743,-0.667437 2.69342,-1.544995 4.15126,-1.601063 z m -36.354668,5.658685 c 3.951684,1.129845 7.744978,2.481951 12.161838,2.429418 3.96856,-0.04724 7.62113,-1.39373 11.21367,-1.158873 -4.7541,1.531179 -9.68284,2.25773 -15.01477,1.363255 -1.53883,-0.258154 -3.64671,-0.592507 -5.541514,-1.215762 -1.093762,-0.359768 -2.029388,-0.849844 -2.819224,-1.418038 z M 106.1878,111.7379 c 0.34428,-0.0108 0.66788,0.0232 0.96082,0.10745 0.24413,0.0701 0.40414,0.36305 0.61525,0.5078 l -4.429,0.45723 c 0.62323,-0.30999 1.14776,-0.75807 1.7657,-0.91235 0.37797,-0.0944 0.74296,-0.14951 1.08723,-0.16014 z"
       inkscape:label="znak"
       sodipodi:nodetypes="cssscssssssssssssssssscssscssssscccccccssssssssssscscsssssccccccccscssccsscccccsscccsscscccssssc" /></g></svg>
