<?xml version="1.0" encoding="UTF-8" standalone="no"?>
<svg
   version="1.2"
   viewBox="0 0 219.2126 219.2126"
   width="58mm"
   height="58mm"
   id="svg1"
   sodipodi:docname="UcenRoleTokenLaser.svg"
   inkscape:version="1.4.2 (f4327f4, 2025-05-13)"
   xml:space="preserve"
   xmlns:inkscape="http://www.inkscape.org/namespaces/inkscape"
   xmlns:sodipodi="http://sodipodi.sourceforge.net/DTD/sodipodi-0.dtd"
   xmlns="http://www.w3.org/2000/svg"
   xmlns:svg="http://www.w3.org/2000/svg"><sodipodi:namedview
     id="namedview1"
     pagecolor="#ffffff"
     bordercolor="#666666"
     borderopacity="1.0"
     inkscape:showpageshadow="2"
     inkscape:pageopacity="0.0"
     inkscape:pagecheckerboard="0"
     inkscape:deskcolor="#d1d1d1"
     inkscape:zoom="9.8477144"
     inkscape:cx="103.8312"
     inkscape:cy="104.33893"
     inkscape:window-width="1920"
     inkscape:window-height="1057"
     inkscape:window-x="-8"
     inkscape:window-y="-8"
     inkscape:window-maximized="1"
     inkscape:current-layer="layer2"
     inkscape:document-units="mm"
     showgrid="false" /><defs
     id="defs1"><clipPath
       clipPathUnits="userSpaceOnUse"
       id="cp1"><path
         d="m 275.5,535.5 c -143.78,0 -260,-116.22 -260,-260 0,-143.78 116.22,-260 260,-260 143.78,0 260,116.22 260,260 0,143.78 -116.22,260 -260,260 z"
         id="path1" /></clipPath></defs><style
     id="style1">
		tspan { white-space:pre } 
		.s0 { fill: none;stroke: #ff0000;stroke-miterlimit:100 } 
	</style><g
     inkscape:groupmode="layer"
     id="layer2"
     inkscape:label="Content"><g
       inkscape:groupmode="layer"
       id="layer4"
       inkscape:label="Kruh"
       style="display:inline"><path
         id="path2"
         style="fill:none;stroke:#000000;stroke-width:0.189192"
         d="M 219.118,109.6063 A 109.5117,109.5117 0 0 1 109.6063,219.118 109.5117,109.5117 0 0 1 0.09459686,109.6063 109.5117,109.5117 0 0 1 109.6063,0.09459686 109.5117,109.5117 0 0 1 219.118,109.6063 Z"
         inkscape:label="Vnejsi kruh" /><path
         id="circle2"
         style="fill:none;stroke:#000000;stroke-width:0.188976"
         d="M 208.69732,109.6063 A 99.091019,99.091019 0 0 1 109.6063,208.69732 99.091019,99.091019 0 0 1 10.515282,109.6063 99.091019,99.091019 0 0 1 109.6063,10.515282 99.091019,99.091019 0 0 1 208.69732,109.6063 Z"
         inkscape:label="Vnitrni kruh" /></g><g
       id="text2-9"
       inkscape:label="Text"
       style="opacity:1" /><path
       id="path3"
       style="font-size:41.5223px;font-family:'New Rocker';-inkscape-font-specification:'New Rocker';letter-spacing:0.769167px;baseline-shift:baseline;white-space:pre;display:inline;overflow:visible;opacity:1;enable-background:accumulate;stop-color:#000000;stop-opacity:1;fill:none;stroke:#000000;stroke-opacity:1;stroke-width:0.18897638;stroke-dasharray:none"
       d="m 106.02627,126.24021 -0.89063,0.70508 c -0.65405,0.51779 -1.36382,1.0634 -2.13086,1.63867 -0.47897,0.35477 -0.92721,0.67824 -1.38281,1.00977 -0.47278,-0.33106 -0.93937,-0.65547 -1.43555,-1.00977 -0.760996,-0.57074 -1.450356,-1.11057 -2.068356,-1.62109 l -0.86523,-0.71485 -0.845703,0.73829 c -0.454629,0.39779 -0.800205,0.71231 -1.060547,0.97265 -0.149327,0.14933 -0.440342,0.41796 -0.84375,0.76758 l -1.072266,0.92773 1.003906,1.00196 c 0.955521,0.95552 1.95425,1.99504 2.99609,3.11914 l 0.01172,0.0137 0.01172,0.0117 c 1.05646,1.08355 2.10015,2.23609 3.132806,3.45898 l 0.50196,0.59375 v 1.24219 c -1.605116,0.66742 -7.078467,2.42909 -8.429686,2.6543 l -1.498047,0.25 0.455078,1.44726 c 0.269903,0.85879 0.47983,1.92511 0.611328,3.1875 l 0.002,0.0156 0.002,0.0156 c 0.158049,1.23806 0.238282,2.57948 0.238282,4.02539 0,0.70043 -0.01747,1.38313 -0.05078,2.04688 h -6.091797 c 0.01052,-0.19138 0.02277,-0.38455 0.03711,-0.57813 v -0.002 -0.002 c 0.04992,-0.69887 0.148978,-1.36567 0.294922,-2.00586 0.172345,-0.63692 0.390582,-1.23005 0.654297,-1.7832 0.272253,-0.54224 0.599856,-1.00025 0.992187,-1.39258 l 1.173828,-1.17188 -1.351562,-0.84765 c 0.0061,0.003 0.01225,0.006 0.01563,0.008 h 0.002 0.002 v -0.002 -0.002 -0.002 c -0.01532,-0.0304 -0.162565,-0.18451 -0.300781,-0.46094 -0.201177,-0.40235 -0.409535,-0.94198 -0.611328,-1.5918 -0.1784,-0.69137 -0.335694,-1.45511 -0.466797,-2.29296 -0.128646,-0.84906 -0.19336,-1.69418 -0.19336,-2.54102 v -1.47656 -0.006 c 0.240319,-0.0967 0.493571,-0.14028 0.72461,-0.26953 0.60697,-0.32412 1.149768,-0.7584 1.605468,-1.28321 v -0.002 c 0.494926,-0.56595 0.883312,-1.23602 1.177735,-1.98047 0.33939,-0.78669 0.5458,-1.66141 0.638672,-2.62109 l 0.183593,-1.89844 -1.841796,0.49805 c -0.982818,0.26562 -1.847164,0.46042 -2.591797,0.58984 -0.743569,0.10188 -1.440716,0.15235 -2.087891,0.15235 -1.461411,0 -2.924404,-0.23723 -4.40625,-0.72266 l -1.871094,-0.61328 0.144532,1.96289 c 0.164219,2.24433 0.286747,4.36265 0.36914,6.35742 -0.02744,2.06932 -0.04101,4.09824 -0.04101,6.08594 0,1.98695 -0.01347,3.83495 -0.04102,5.54297 v 0.0117 0.01 c 0,1.68788 -0.05529,3.17714 -0.162109,4.45899 l -0.002,0.0137 v 0.0137 c -0.05837,0.93393 -0.189529,1.45311 -0.3125,1.97461 -0.861159,0.0996 -1.735407,0.17706 -2.501953,0.41797 l -0.0059,0.002 -0.0059,0.002 c -0.610251,0.19744 -1.08954,0.47628 -1.613282,0.72657 l -2.197265,-2.68946 c 0.10971,-2.7433 0.25937,-5.43591 0.466797,-8.05468 0.224404,-2.83309 0.335937,-5.77465 0.335937,-8.82422 v -0.12696 l -0.02344,-0.12695 c -0.289083,-1.47432 -0.654104,-2.66837 -1.152344,-3.64062 -0.463211,-0.98533 -1.099533,-1.81609 -1.933594,-2.38477 -0.795367,-0.54229 -1.735513,-0.87788 -2.769531,-1.04102 -0.938574,-0.17493 -2.029283,-0.31718 -3.294922,-0.42968 l -2.818359,-0.25 1.61914,2.32031 c 0.748583,1.07297 1.256047,2.16952 1.546875,3.30859 l 0.0039,0.0117 0.002,0.0137 c 0.32652,1.1805 0.492187,2.42836 0.492187,3.75782 0,1.48453 -0.155601,2.8599 -0.460937,4.13281 v 0.002 c -0.295127,1.20171 -0.758799,2.18386 -1.38086,2.99024 l -0.818359,1.05859 1.003906,0.75586 v 0.002 0.002 c 0.0082,0.0235 0.104557,0.15358 0.1875,0.40234 l 0.0039,0.01 0.0039,0.0117 c 0.126443,0.35826 0.253248,0.88245 0.355468,1.54688 l 0.0039,0.0293 0.0059,0.0293 c 0.123809,0.61903 0.215155,1.35064 0.267578,2.18946 v 0.002 c 0.05336,0.8272 0.08203,1.69994 0.08203,2.61523 0,0.35613 -0.01409,0.80742 -0.04102,1.34571 -0.02615,0.49482 -0.06553,0.91575 -0.113281,1.25 l -0.103516,0.72851 0.566406,0.4707 c 1.314171,1.09515 2.5022,2.1326 3.5625,3.11133 l 0.0059,0.01 0.0078,0.008 c 0.9985,0.89609 1.612653,1.69229 1.884766,2.27539 l 0.61914,1.32617 1.25586,-0.7539 c 0.444675,-0.2668 1.677815,-0.73874 3.476562,-1.22266 1.697553,-0.42975 3.950013,-0.66406 6.724609,-0.66406 0.970858,0 2.052272,0.0883 3.242188,0.27344 1.163926,0.18106 2.564581,0.51233 4.183594,0.99804 l 1.871093,0.5625 -0.177734,-1.94531 c -0.03982,-0.43796 -0.193993,-0.77749 -0.277344,-1.17578 h 2.390625 c 0.742459,0 1.601731,0.0734 2.570313,0.23047 0.988053,0.16022 1.96161,0.3615 2.921872,0.60156 h 0.0039 l 0.0039,0.002 c 0.97649,0.23752 1.86529,0.49947 2.667956,0.78321 0.80652,0.31269 1.42334,0.60669 1.81446,0.8457 l 0.3164,0.19336 h 0.97071 l 0.39453,-0.45117 c 0.0664,-0.0759 0.26852,-0.25288 0.57617,-0.45313 0.3699,-0.22114 0.76634,-0.43185 1.19336,-0.63281 l 0.0137,-0.008 0.0137,-0.01 c 0.4458,-0.2229 0.88661,-0.40556 1.32227,-0.55078 l 0.0195,-0.008 0.0195,-0.006 c 0.47056,-0.17337 0.88708,-0.29121 1.24024,-0.35742 l 0.97851,-0.1836 h 2.28906 c 0.37607,0 0.93119,0.0567 1.62696,0.18555 h 0.004 0.004 c 0.7178,0.12818 1.45499,0.30897 2.20898,0.54297 l 0.0254,0.008 0.0254,0.008 c 0.77047,0.20546 1.51269,0.4608 2.22852,0.76758 l 0.002,0.002 h 0.002 l 0.002,0.004 2.41992,1.48438 2.57422,-1.39649 c 0.48059,-0.17116 0.96078,-0.3425 1.47266,-0.5 l 0.0215,-0.01 0.0215,-0.006 c 0.6626,-0.22937 1.32093,-0.40713 1.97656,-0.53321 l 0.0234,-0.004 0.0234,-0.006 c 0.68237,-0.1575 1.25937,-0.25913 1.71094,-0.30664 l 1.68555,-0.17774 -0.58594,-1.58984 c -0.1617,-0.43888 -0.27233,-0.87021 -0.3418,-1.29688 -0.0462,-0.47959 -0.0742,-1.17168 -0.0742,-2.06836 v -0.85937 h 3.19532 v 2.52148 c 0,0.64939 -0.10963,1.06887 -0.19336,1.23633 l -0.008,0.0156 -0.008,0.0156 c -0.0581,0.12447 -0.0899,0.1638 -0.10156,0.17383 l -0.002,0.002 h -0.002 v -0.002 l -0.80664,0.33594 v 2.82226 h 10.2793 v -2.86132 l -0.8418,-0.31055 c -0.0127,-0.0227 -0.0391,-0.0774 -0.082,-0.19336 -0.10115,-0.27347 -0.19726,-0.83168 -0.19726,-1.60938 v -8.07031 l 3.00781,-1.3457 v 3.5332 0.01 c 0.0275,1.57013 0.041,3.1408 0.041,4.71093 0,0.22446 -0.0259,0.71394 -0.0801,1.39063 -0.0545,0.68158 -0.12276,1.4346 -0.20508,2.25781 l 0.002,-0.006 c -0.0799,0.7729 -0.18691,1.54659 -0.32031,2.32032 l -0.002,0.004 v 0.004 c -0.13216,0.79291 -0.27508,1.43775 -0.41797,1.91406 l -0.22657,0.75391 1.77149,1.77343 0.93164,-1 c 0.35475,-0.38008 0.77,-0.78145 1.24219,-1.20117 0.46821,-0.41619 0.96297,-0.82013 1.48632,-1.21289 l 0.002,-0.002 h 0.002 l 0.002,-0.002 c 0.54284,-0.3868 1.0709,-0.7332 1.58008,-1.03907 0.5145,-0.29284 1.00613,-0.51972 1.46875,-0.68164 l 1.08399,-0.3789 -0.22657,-1.125 c -0.0537,-0.26844 -0.10609,-0.55212 -0.16015,-0.84961 -0.0427,-0.26105 -0.0801,-0.62448 -0.10547,-1.08203 -0.027,-0.48467 -0.0546,-1.11532 -0.082,-1.88477 v -2.98438 c 0,-1.43098 0.0139,-2.624 0.041,-3.57421 0.027,-0.94323 0.0534,-1.72884 0.0801,-2.37696 v -0.002 c 0.053,-0.63574 0.10454,-1.1412 0.1543,-1.51953 0.0746,-0.39245 0.16073,-0.75885 0.25586,-1.0918 l 0.30664,-1.07422 -1.00781,-0.48047 c -0.55195,-0.26283 -1.02936,-0.50851 -1.43555,-0.73632 -0.41543,-0.26006 -0.81992,-0.52013 -1.20899,-0.7793 -0.34009,-0.24382 -0.68332,-0.51306 -1.02929,-0.80859 -0.38085,-0.35373 -0.80113,-0.74632 -1.26367,-1.18165 l -0.15625,-0.14648 v -4.39453 c 0.50838,-0.54508 0.95164,-1.02456 1.33203,-1.4375 l 0.0117,-0.0137 c 0.98791,-1.04284 1.67939,-1.77649 2.07031,-2.19532 l 0.97265,-1.04101 -1.11328,-0.88867 c -0.39288,-0.31431 -0.68259,-0.57126 -0.8457,-0.73438 -0.2409,-0.2409 -0.56694,-0.55206 -0.98828,-0.94531 l -0.83008,-0.77344 -0.88867,0.70508 c -0.65404,0.51779 -1.36578,1.0634 -2.13281,1.63867 l 0.008,-0.004 c -0.48074,0.3561 -0.93146,0.68096 -1.38867,1.01367 -0.47278,-0.33106 -0.93938,-0.65547 -1.43555,-1.00977 -0.761,-0.57074 -1.45231,-1.11056 -2.07031,-1.62109 l -0.86524,-0.71485 -0.84375,0.73829 c -0.45462,0.39779 -0.80021,0.71232 -1.06054,0.97265 -0.14934,0.14934 -0.44035,0.41796 -0.84375,0.76758 l -1.07227,0.92773 1.00195,1.00196 c 0.95553,0.95552 1.95425,1.99504 2.9961,3.11914 l 0.0117,0.0137 0.0117,0.0117 c 1.05645,1.08355 2.10209,2.23609 3.13476,3.45898 l 0.95313,1.13086 1.01562,-1.07617 c 0.39123,-0.41494 0.76352,-0.80941 1.11524,-1.18359 v 2.77343 c -0.95102,1.00097 -1.8708,1.86579 -2.75,2.58985 -0.30222,0.24888 -0.70558,0.50324 -1.03711,0.7539 v -1.22265 l -1.43946,-2.39844 -0.94726,0.23828 c -0.87012,0.21753 -1.86895,0.45028 -2.99414,0.69727 -1.10413,0.21497 -2.12681,0.38809 -3.06055,0.52148 l -1.13281,0.16211 v 2.46875 l 1.53711,0.66406 v 9.35938 h -3.0918 l 0.0937,-1.12305 -1.85352,0.55274 c -1.43322,0.42691 -2.57482,0.98444 -3.38086,1.87109 l -0.0117,0.0137 -0.0117,0.0117 c -0.40362,0.46735 -0.53294,1.09634 -0.76172,1.67188 -0.18019,-0.0165 -0.31122,-0.0264 -0.51563,-0.0469 -0.52471,-0.0786 -1.06042,-0.15783 -1.60937,-0.23633 -0.56484,-0.10772 -1.10182,-0.21501 -1.61133,-0.32226 h -0.002 c -0.0405,-0.009 -0.0549,-0.0182 -0.0937,-0.0274 0.0327,-0.31914 0.0569,-0.58675 0.0957,-0.94922 0.0477,-0.44484 0.0656,-0.90272 0.0957,-1.35546 1.32371,-0.20955 2.65391,-0.41495 4.03125,-0.58985 l 0.01,-0.002 h 0.0117 c 1.71877,-0.24554 3.40913,-0.4361 5.07031,-0.57227 l 1.74023,-0.14453 -0.61328,-1.63476 c -0.13858,-0.36955 -0.2778,-0.84304 -0.40625,-1.40821 -0.12806,-0.56348 -0.23058,-1.15719 -0.30859,-1.78125 -0.0808,-0.64641 -0.14931,-1.29132 -0.20313,-1.9375 l 0.002,0.004 c -0.053,-0.66277 -0.0801,-1.26525 -0.0801,-1.80469 0,-0.69852 0.042,-1.25963 0.10742,-1.65234 l 0.24805,-1.48438 -1.50586,-0.0508 c -1.60402,-0.0544 -3.22115,-0.14947 -4.85352,-0.28515 -0.009,-8.6e-4 -0.0129,-9.2e-4 -0.0215,-0.002 -1.62134,-0.16269 -2.97939,-0.35149 -4.05078,-0.56054 l -0.68946,-0.13477 -0.49804,0.49609 c -0.91108,0.91108 -1.82051,1.6509 -2.72461,2.22852 l -0.008,0.006 -0.006,0.004 c -0.82025,0.53901 -1.72586,0.90016 -2.75586,1.09179 l -1.45117,0.27149 0.42968,1.41211 c 0.16585,0.54494 0.35459,1.39078 0.54297,2.49414 l 0.004,0.0195 0.004,0.0176 c 0.19615,0.98074 0.30664,2.30467 0.30664,3.93554 0,0.59889 -0.0234,1.26826 -0.0723,2.00391 h -2.50781 l 0.24414,-1.95313 -1.91992,0.54883 c -1.36349,0.38957 -2.54825,1.09145 -3.44336,2.08985 h -0.002 v 0.002 c -0.55743,0.62433 -0.93069,1.36385 -1.21679,2.14258 -0.45626,-0.0665 -0.86896,-0.10141 -1.40039,-0.22266 l -0.008,-0.002 c -0.50506,-0.11905 -0.81425,-0.24136 -1.20117,-0.36328 0.0689,-0.60667 0.15385,-1.18248 0.18945,-1.86524 8e-4,-0.0106 9.2e-4,-0.0187 0.002,-0.0293 0.0835,-1.12192 0.12695,-2.15506 0.12695,-3.09961 0,-1.07411 -0.0429,-2.13503 -0.12695,-3.1836 v -0.01 c -0.006,-0.11598 -0.0261,-0.23169 -0.0332,-0.34766 0.15431,0.0872 0.29282,0.24211 0.44922,0.32031 0.99894,0.49947 1.93229,0.80274 2.875,0.80274 1.25796,0 2.48506,-0.42958 3.57813,-1.19141 l 0.002,-0.002 0.004,-0.002 c 1.11466,-0.78681 2.00402,-1.82834 2.62109,-3.0625 l 0.78906,-1.58007 -1.74023,-0.31055 c -1.16936,-0.20789 -2.32604,-0.51983 -3.47461,-0.9375 -1.03384,-0.37594 -1.93405,-0.79775 -2.70117,-1.25977 v -2.20312 c 1.68738,-1.79087 2.9893,-3.18362 3.91406,-4.1875 l 0.0137,-0.0137 c 0.98721,-1.04209 1.67762,-1.77668 2.06836,-2.19532 l 0.97266,-1.04101 -1.11133,-0.88867 c -0.39288,-0.31431 -0.68453,-0.57125 -0.84766,-0.73438 -0.24089,-0.24089 -0.56499,-0.55207 -0.98632,-0.94531 z m 13.26758,19.35352 c 0.27418,0.0526 0.52119,0.12953 0.80468,0.17383 l 0.0215,0.004 0.0234,0.002 c 0.47641,0.0577 0.83186,0.0584 1.2461,0.0879 0.0218,0.27081 0.0183,0.54759 0.0547,0.81445 l 0.004,0.0293 0.006,0.0293 c 0.0337,0.18515 0.0771,0.35243 0.11328,0.53321 l -2.08984,0.51953 c -0.0234,-0.31098 -0.0317,-0.58592 -0.0625,-0.91407 -0.0238,-0.37472 -0.0835,-0.86163 -0.12109,-1.27929 z m -33.009766,8.88867 h 6.003906 c -0.03928,0.37538 -0.08543,0.73581 -0.136719,1.08203 -0.103127,0.66808 -0.229648,1.24661 -0.373047,1.72461 l -0.0098,0.0293 -0.0078,0.0293 c -0.115812,0.46325 -0.257438,0.74947 -0.298828,0.8086 l -1.34375,1.92187 c -0.104762,-0.45963 -0.149649,-0.96932 -0.324219,-1.375 -0.29476,-0.74666 -0.687977,-1.40912 -1.197265,-1.95898 -0.45508,-0.51977 -0.98646,-0.95319 -1.587891,-1.25391 -0.232313,-0.11615 -0.483852,-0.17212 -0.724609,-0.26367 z m 22.900386,0 h 2.41797 c -0.0233,0.21252 -0.0501,0.42283 -0.0801,0.63281 l -0.004,0.0195 -0.002,0.0215 c -0.0766,0.68922 -0.19099,1.33166 -0.33984,1.92969 -0.14525,0.55681 -0.31118,0.94731 -0.42774,1.13671 l -0.86132,1.40039 -0.25782,-0.875 c -0.11752,-0.39956 -0.23134,-0.90007 -0.33398,-1.48437 -0.0696,-0.54384 -0.11133,-1.32972 -0.11133,-2.33594 z" /><g
       id="path2-6"
       style="opacity:1;fill:none;stroke:#000000;stroke-width:0.188976;stroke-dasharray:none;stroke-opacity:1"
       transform="translate(-3.4714593,5.6865987)"><path
         id="path4"
         style="baseline-shift:baseline;display:inline;overflow:visible;fill:none;stroke:#000000;stroke-width:0.188976;stroke-linejoin:round;stroke-dasharray:none;stroke-opacity:1;enable-background:accumulate;stop-color:#000000;stop-opacity:1"
         d="m 106.12127,79.53289 c 0.63374,0.243225 1.34067,0.463496 2.17577,0.652982 0.0162,0.02885 1.81095,0.747995 1.82985,0.775095 l 6.88086,3.623047 c 0.016,0.0089 0.0323,0.01738 0.0488,0.02539 l 20.3457,9.300781 c 0.36718,0.160654 0.79485,0.08604 1.08594,-0.189453 2.3316,1.24174 4.83395,2.937359 6.94922,4.457031 1.2773,0.917627 2.72347,2.743567 5.13281,2.847657 1.71701,0.0742 4.4618,0.15294 6.36524,-0.99023 1.79621,-1.078813 3.02103,-3.445067 3.69726,-5.939458 0.33812,-1.247195 0.51021,-2.53118 0.41602,-3.732422 -0.0942,-1.201241 -0.46116,-2.362484 -1.32227,-3.197266 -1.60282,-1.553808 -4.08283,-2.406431 -6.59961,-3.158203 -2.51678,-0.751771 -5.09893,-1.365729 -6.71679,-2.052734 -7.41553,-3.148916 -14.8932,-6.127478 -22.32227,-9.189453 -4.18228,-1.723789 -8.6127,-4.092526 -13.26367,-5.236328 -2.45281,-2.153106 -6.06365,-2.89836 -8.46485,-3.900391 -6.68482,-2.789609 -13.462392,-5.916341 -20.427732,-8.300781 1.054021,-1.315093 1.842007,-2.613585 2.189453,-3.992188 0.447717,-1.776462 0.365401,-3.630027 0.08398,-5.855468 -0.160608,-1.270127 -0.921966,-2.414057 -1.916016,-3.332032 -0.994049,-0.917974 -2.256737,-1.62221 -3.644531,-1.675781 -0.02577,-9.96e-4 -0.05227,0.01024 -0.07813,0.0098 v -0.0098 l -0.0019,-2.9e-5 c -0.0033,0.0032 -0.0065,0.0065 -0.0098,0.0098 -0.367044,-0.0062 -0.740501,0.02372 -1.109375,0.130859 -1.716481,0.498501 -3.097202,2.059067 -4.441406,3.681641 -1.344204,1.622574 -2.569259,3.383174 -3.320312,4.28125 -1.841982,2.202569 -3.62604,4.487244 -5.232422,6.892578 l -0.259766,0.259765 c -0.03251,0.07308 -0.05612,0.149801 -0.07031,0.228516 -2.936584,4.500525 -5.211418,9.45483 -5.923829,15.119141 -0.317676,2.525822 0.623819,5.402288 0.783204,7.421875 0.0424,0.53122 0.494718,0.935384 1.027343,0.917968 2.716312,-0.08814 4.906328,-2.27945 6.806641,-4.646484 1.900313,-2.367033 3.529533,-5.077546 4.662109,-6.578125 0.486354,-0.644378 0.958387,-1.465955 1.47461,-2.148437 0.516222,-0.682482 1.067987,-1.131444 1.367187,-1.199219 0.582813,-0.132022 2.393116,0.419808 4.148438,1.333984 1.755322,0.914177 3.490052,2.03092 4.716796,2.595703 5.900521,2.71656 11.792633,5.488953 17.726569,8.16211 0.68917,0.310461 1.28666,0.621462 1.84743,0.925174 0.56078,0.303712 1.08484,0.600133 1.62714,0.881433 l 0.14407,7.12932 c -0.61941,-0.179944 -1.24528,-0.342265 -1.86471,-0.494555 -2.53328,-0.622823 -5.005173,-1.069136 -6.248045,-1.529297 -1.046344,-0.387401 -2.660114,-1.523692 -4.173828,-2.810547 -1.513713,-1.286855 -2.971865,-2.717896 -3.947265,-3.707031 -0.568144,-0.576146 -1.019961,-1.306012 -1.666016,-2.03125 -0.646054,-0.725238 -1.559869,-1.426199 -2.851563,-1.658203 -0.441359,-0.07933 -0.877595,-0.113652 -1.302734,-0.107422 -6.38304,0.09226 -9.981266,9.071932 -5.261719,13.595703 1.186897,1.137665 2.723316,1.279193 4.023438,1.152344 1.300123,-0.126849 2.508601,-0.45742 3.373047,-0.478516 2.043383,-0.04989 4.36501,0.805948 6.740234,1.431641 l -0.111328,0.222656 c -0.237495,0.474895 -0.06152,1.052602 0.400391,1.314453 4.804295,2.734098 11.638238,6.562753 17.523438,7.996094 2.00218,1.146997 4.75543,2.217792 6.26562,2.912112 5.58078,2.56574 11.22213,4.96743 16.72266,7.59179 2.35752,1.12481 5.90558,3.63551 9.29492,3.61329 1.35356,-0.009 2.46029,-0.75215 3.41992,-1.51563 0.95964,-0.76348 1.81137,-1.6185 2.42383,-2.08008 0.4326,-0.32659 0.52538,-0.93879 0.20899,-1.3789 -3.65379,-5.07991 -9.74028,-7.14364 -14.85352,-9.332035 -7.55288,-3.232528 -16.4097,-5.332728 -23.06445,-10.40625 -0.46437,-0.35403 -0.97395,-0.667654 -1.51582,-0.948468 -0.54188,-0.280814 -1.11605,-0.528817 -1.7096,-0.751602 z M 79.890581,43.93555 c 0.09718,-0.0021 0.178276,0.0073 0.240234,0.02539 0.165224,0.04814 0.01708,0.134573 0.205122,0.550778 v 0.002 c 0.0025,0.01549 0.01222,0.112049 -0.125,0.378906 -0.156818,0.304974 -0.481835,0.724135 -0.875,1.136719 -0.786328,0.825168 -1.77796,1.594127 -2.332031,2.123047 -0.906672,0.865511 -1.954873,2.140016 -3.09375,3.455078 -0.01187,0.01371 -0.02131,0.02144 -0.0332,0.03516 -0.315681,0.754066 0.359575,1.547006 1.154297,1.355469 -0.562536,0.136585 -1.0744,0.328863 -1.541016,0.5625 -0.400013,-0.358559 -1.012088,-0.336114 -1.384765,0.05078 -0.15008,0.157625 -0.292468,0.256453 -0.44336,0.40625 0.0056,-0.204327 -0.05165,-0.40545 -0.164062,-0.576172 l 0.33789,-0.337891 -0.328125,-0.328125 -0.21875,0.220704 c -0.375224,-0.23167 -0.85802,-0.189584 -1.1875,0.103515 -0.59941,0.592264 -0.789152,1.031597 -1.218794,1.318363 1.665453,-3.214606 5.333939,-6.591733 8.091797,-8.914062 0.547906,-0.461382 1.529905,-1.17776 2.304688,-1.445313 0.24212,-0.08361 0.621228,0.03866 0.611328,-0.123047 z m -3.349566,8.017575 c -0.02275,0.20548 0.01888,0.412953 0.119141,0.59375 l 0.541016,0.541015 c -0.565598,-0.138107 -1.15711,-0.238582 -1.816407,-0.130859 0.366501,-0.382223 0.773156,-0.629325 1.15625,-1.003906 z m -0.40625,3.992187 c 0.0021,-1.3e-5 0.0038,1.1e-5 0.0059,0 0.868796,-0.0046 1.93579,0.415962 3.042968,0.904297 -0.0665,0.20236 -0.0665,0.420687 0,0.623047 -1.24704,-0.580148 -2.524507,-0.992591 -3.816406,-1.373047 0.248607,-0.06516 0.48796,-0.152449 0.767578,-0.154297 z m -9.970815,3.343702 1.175894,0.324267 -5.21875,8.693359 -0.498047,0.552735 c 0.883583,-3.33548 3.140877,-6.520406 4.540903,-9.570361 z m 4.146597,0.849658 c 0.09289,0.686803 0.292961,1.315952 0.548828,1.96875 -0.413866,-0.06994 -0.825571,-0.182642 -1.345703,0.002 -0.17777,0.06308 -0.244395,0.231248 -0.400391,0.318359 0.378975,-0.797321 0.829315,-1.52866 1.197266,-2.289062 z m 36.761723,8.632812 c 1.02975,0.418257 2.07153,0.827769 3.17382,1.021485 1.35986,1.251959 3.24957,1.751972 4.81641,2.324218 0.85097,0.310793 1.59013,0.647503 2.04883,1.011719 0.45869,0.364216 0.65294,0.662998 0.67773,1.214844 0.0242,0.54205 0.47708,0.965429 1.01953,0.953125 4.54651,-0.103493 8.93687,2.260069 13.40039,4.283203 -0.17609,0.163861 -0.28706,0.385812 -0.3125,0.625 v 0.146484 l -1.69726,-0.453125 c -0.3418,-0.08382 -0.70248,0.01859 -0.94922,0.269531 l -7.69727,-4.123046 c -0.9381,-0.501733 -1.90531,0.616802 -1.27343,1.472656 0.28515,0.38627 0.63316,0.643418 0.95117,0.96289 L 115.375,76.246094 c 0.0646,-0.09336 0.11284,-0.19706 0.14258,-0.306641 v -0.328125 c -5.4e-4,-0.412031 -0.25426,-0.781364 -0.63867,-0.929688 l -3.30079,-1.269531 -0.0742,-1.921875 c -0.0285,-0.735873 -0.81703,-1.188392 -1.4668,-0.841797 -1.11151,0.592525 -1.81502,0.560862 -2.71875,0.283203 -0.63061,-0.193747 -1.47966,-0.639804 -2.30469,-1.041015 0.31973,0.08853 0.67131,0.229671 0.98438,0.308594 0.81021,0.150127 1.44295,-0.690841 1.07422,-1.427735 z m -22.10938,9.302734 c 1.381091,1.269482 2.992777,2.4118 4.503907,3.556641 0.162616,0.123199 0.271244,0.25477 0.427734,0.378906 l -2.947266,-0.535156 -0.451172,-1.128906 c -0.212134,-0.455781 -0.730196,-0.68259 -1.208984,-0.529297 -0.217087,-0.213732 -0.519914,-0.316592 -0.822266,-0.279297 -0.0787,-0.249041 -0.251898,-0.457302 -0.482421,-0.580078 z m 5.75586,4.666016 c 0.537193,0.478602 1.002105,0.969875 1.390625,1.472656 C 91.897533,84.142926 91.702394,84.065939 91.615234,84 c -0.106145,-0.0803 -0.124676,-0.103035 -0.150391,-0.21875 -0.08855,-0.335709 -0.345228,-0.601263 -0.677734,-0.701172 -0.0028,-0.116402 -0.02592,-0.231418 -0.06836,-0.339844 z m 10.0957,6.675781 c 0.0342,-1.9e-5 0.061,0.0023 0.0781,0.0039 h 0.002 c 1.32804,0.142608 3.24857,1.300815 4.93555,2.064453 1.3565,0.614059 2.87117,1.23859 4.46484,1.580078 1.20658,1.10414 2.78599,2.049841 4.42774,2.875 l -4.68555,-1.992188 -0.002,-0.002 c -1.48304,-1.269238 -3.45814,-1.716579 -5.27344,-2.248047 -1.79191,-0.524619 -3.36695,-1.128371 -4.33985,-2.160156 0.14114,-0.05491 0.26184,-0.121012 0.39258,-0.121094 z m 35.49219,14.367185 c 1.41122,0.42985 2.87943,0.83003 3.98633,1.32032 1.38306,0.6126 2.46017,1.54951 3.38672,3.14257 -0.29994,0.2254 -0.6125,0.45189 -0.90039,0.64453 -0.55761,0.37309 -1.05355,0.55408 -1.27149,0.53907 -0.75436,-0.052 -2.39897,-1.21764 -3.61914,-2.79883 -0.73191,-0.94847 -1.23419,-1.95639 -1.58203,-2.84766 z"
         sodipodi:nodetypes="cccccccssssssssscscsssscccccsscccsccssssssssccscccsccscccscsccscssssscccsccsssscccccccccccsssccccccccccscccccccsccccsscccccccccccccccccsccccssscccccccscscsccsccccscsccsccccccccc" /></g></g></svg>
