<?xml version="1.0" encoding="UTF-8" standalone="no"?>
<svg
   version="1.2"
   viewBox="0 0 219.2126 219.2126"
   width="58mm"
   height="58mm"
   id="svg1"
   sodipodi:docname="VrahRoleTokenLaser.svg"
   inkscape:version="1.4.2 (f4327f4, 2025-05-13)"
   xml:space="preserve"
   xmlns:inkscape="http://www.inkscape.org/namespaces/inkscape"
   xmlns:sodipodi="http://sodipodi.sourceforge.net/DTD/sodipodi-0.dtd"
   xmlns="http://www.w3.org/2000/svg"
   xmlns:svg="http://www.w3.org/2000/svg"><sodipodi:namedview
     id="namedview1"
     pagecolor="#ffffff"
     bordercolor="#666666"
     borderopacity="1.0"
     inkscape:showpageshadow="2"
     inkscape:pageopacity="0.0"
     inkscape:pagecheckerboard="0"
     inkscape:deskcolor="#d1d1d1"
     inkscape:zoom="3.4816928"
     inkscape:cx="90.329623"
     inkscape:cy="122.49788"
     inkscape:window-width="1920"
     inkscape:window-height="1057"
     inkscape:window-x="-8"
     inkscape:window-y="-8"
     inkscape:window-maximized="1"
     inkscape:current-layer="layer2"
     inkscape:document-units="mm"
     showgrid="false" /><defs
     id="defs1"><clipPath
       clipPathUnits="userSpaceOnUse"
       id="cp1"><path
         d="m 275.5,535.5 c -143.78,0 -260,-116.22 -260,-260 0,-143.78 116.22,-260 260,-260 143.78,0 260,116.22 260,260 0,143.78 -116.22,260 -260,260 z"
         id="path1" /></clipPath></defs><style
     id="style1">
		tspan { white-space:pre } 
		.s0 { fill: none;stroke: #ff0000;stroke-miterlimit:100 } 
	</style><g
     inkscape:groupmode="layer"
     id="layer2"
     inkscape:label="Content"><g
       inkscape:groupmode="layer"
       id="layer4"
       inkscape:label="Kruh"
       style="display:inline"><path
         id="path2"
         style="fill:none;stroke:#000000;stroke-width:0.189192"
         d="M 219.118,109.6063 A 109.5117,109.5117 0 0 1 109.6063,219.118 109.5117,109.5117 0 0 1 0.09459686,109.6063 109.5117,109.5117 0 0 1 109.6063,0.09459686 109.5117,109.5117 0 0 1 219.118,109.6063 Z"
         inkscape:label="Vnejsi kruh" /><path
         id="circle2"
         style="fill:none;stroke:#000000;stroke-width:0.188976"
         d="M 208.69732,109.6063 A 99.091019,99.091019 0 0 1 109.6063,208.69732 99.091019,99.091019 0 0 1 10.515282,109.6063 99.091019,99.091019 0 0 1 109.6063,10.515282 99.091019,99.091019 0 0 1 208.69732,109.6063 Z"
         inkscape:label="Vnitrni kruh" /></g><path
       id="path5"
       style="opacity:1;baseline-shift:baseline;display:inline;overflow:visible;enable-background:accumulate;stop-color:#000000;stop-opacity:1;stroke-width:0.18897638;stroke-dasharray:none;stroke:#000000;stroke-opacity:1;fill:none"
       d="m 138.31179,32.549429 c -0.65827,0.02815 -1.25822,0.09968 -1.76758,0.210938 -0.69235,0.151232 -1.68966,0.359753 -2.61523,0.779297 -0.92558,0.419544 -2.225,1.311658 -2.4726,2.460905 -0.14984,0.695531 -0.32563,2.057817 -0.26493,2.415447 0.0606,0.357629 0.0841,0.432871 -0.10352,0.667968 -0.7833,0.981694 -9.18545,8.256391 -11.50586,9.478516 -0.90608,0.477215 -4.15582,-0.565341 -5.70824,-0.809484 -1.55242,-0.244143 -3.30984,-0.745936 -5.06836,-1.164063 -1.75852,-0.418128 -3.52009,-0.760432 -5.16016,-0.617187 -1.64006,0.143245 -3.19824,0.854285 -4.193362,2.425781 -0.31636,0.499587 -0.41107,1.079518 -0.31835,1.582031 0.0927,0.502512 0.33472,0.92163 0.61132,1.285157 0.553212,0.727053 1.286962,1.284789 1.685552,1.652343 1.59353,1.469474 4.67057,3.526539 6.02269,4.139562 0.53731,0.243606 1.13324,0.378427 1.74805,0.503907 -1.57239,0.76137 -2.95395,1.949474 -4.14453,3.339843 -1.95026,2.277519 -3.54598,5.001431 -5.05664,6.945313 -8.831339,11.363995 -18.041098,22.468984 -26.732422,33.984377 -1.251258,1.65783 -3.832619,4.16997 -5.972656,6.84375 -2.140038,2.67378 -6.57836,9.20227 -5.950721,11.97616 v 0 l 3.767127,-3.18515 C 80.664739,106.55176 95.076413,94.104815 109.6063,82.099336 c 4.85664,-4.012842 10.69368,-10.824118 15.97546,-13.675572 1.00778,-0.544065 2.69904,0.703283 4.29851,1.29403 1.59946,0.590746 3.27408,1.451426 4.91992,1.56836 1.2951,0.09202 2.42354,-0.439284 3.40234,-1.052735 0.97881,-0.613451 1.85207,-1.329229 2.625,-1.769531 l 0.47461,-0.269531 -0.10742,-0.535156 c -0.4661,-2.34209 -2.52537,-4.077435 -4.30273,-5.736328 -0.88869,-0.829447 -1.72365,-1.633713 -2.29883,-2.402344 -0.57518,-0.768631 -3.09787,-2.829546 -3.07164,-3.502951 0.012,-0.307585 0.28725,-0.831602 0.73047,-1.361328 0.44323,-0.529726 1.00068,-1.048174 1.42383,-1.529297 1.20245,-1.367184 2.4893,-3.365939 3.85352,-5.216797 1.36422,-1.850857 2.82561,-3.530624 4.08203,-4.205078 0.63937,-0.343225 1.82004,-0.06439 2.90817,-0.148478 0.54406,-0.04205 2.09182,-0.923365 2.65159,-1.181071 0.55978,-0.257706 1.43721,-1.072111 1.78705,-1.734319 0.87813,-1.662177 0.0404,-3.339757 -0.67369,-4.531234 -0.71411,-1.191476 -1.97522,-1.97284 -3.38672,-2.517578 -1.4115,-0.544737 -2.98992,-0.864768 -4.47071,-0.992187 -0.74039,-0.06371 -1.45719,-0.01788 -2.11523,-0.05078 z m 2.38157,4.210337 -1.31641,0.876953 -1.25976,-0.501953 0.54101,0.02148 z m -7.68359,6.710937 3.55859,0.710937 c -0.16621,0.191102 -0.25809,0.510235 -0.48242,0.623047 -0.48392,0.243357 -1.14216,0.327505 -1.875,0.244141 -0.72203,-0.08213 -1.50037,-0.338825 -2.20899,-0.677734 l 1.00782,-0.671875 z m -3.375,3.390625 4.36328,0.726562 c -0.16658,0.227163 -0.29458,0.623782 -0.49219,0.732422 -0.40505,0.222683 -0.95401,0.283444 -1.64063,0.205078 -0.85191,-0.09723 -1.91664,-0.412926 -2.93359,-0.697265 l 0.9043,-0.363281 z m -23.67188,3.134766 c 0.0611,-0.0016 0.1244,-2.47e-4 0.18945,0.0039 0.41533,0.0265 9.44997,4.174117 9.93969,4.256154 -0.34024,0.245217 -0.91503,0.372334 -1.29977,0.351935 -0.29332,-0.01555 -8.98724,-4.413989 -9.35476,-4.563167 0.17384,-0.01736 0.34208,-0.04395 0.52539,-0.04883 z m 9.51563,10.166015 c -2.3188,3.277827 -5.42399,6.293461 -8.48633,9.296875 1.48035,-1.676542 3.03475,-3.823177 4.76953,-5.884765 1.21593,-1.444998 2.47474,-2.56339 3.7168,-3.41211 z m 3.66796,1.140625 c 0.0936,1.005232 0.0683,0.797605 0.0936,1.005232 0.0709,0.583871 -0.13212,0.782639 -0.20742,1.321584 -0.0755,0.538945 -0.48494,0.916755 -1.02271,1.340257 -2.80218,2.206761 -10.06022,9.820508 -10.34764,9.954021 -0.57484,0.267026 -1.19808,0.719211 -1.85742,1.240234 -1.31869,1.042048 -2.63868,2.278516 -3.12696,2.859375 -4.353079,5.178679 -10.162917,11.224752 -16.136715,15.285156 7.0411,-8.457198 16.392305,-15.639552 23.771485,-24.005859 2.11207,-2.394595 4.20225,-4.828708 6.42383,-7.060547 0.40691,-0.408795 0.83871,-0.926109 1.2832,-1.324218 0.30094,-0.367291 0.72992,-0.449895 1.12673,-0.615235 z m 13.8828,1.909695 c 0.54871,0.32495 0.9984,1.060032 1.34572,1.467258 0.43667,0.511983 0.64081,0.892533 0.69531,1.189453 -0.24916,-0.03534 -0.66568,-0.145757 -1.16211,-0.375 -0.87992,-0.40634 -1.59826,-0.878768 -2.16992,-1.232421 0.12054,-0.130481 -4.77837,-3.550462 -4.72588,-3.880744 0.0213,-0.133963 -0.11365,-0.694664 -0.15662,-0.824521 z"
       sodipodi:nodetypes="csssccssssssssscsssscccssssscccsssssssssssssscccccccssccccssscccsccscsccscsssccsccssssccscsccscsc"
       inkscape:label="znak" /><path
       id="path3"
       style="font-size:41.5223px;font-family:'New Rocker';-inkscape-font-specification:'New Rocker';letter-spacing:0.769167px;baseline-shift:baseline;white-space:pre;display:inline;overflow:visible;opacity:1;fill:none;stroke:#000000;stroke-width:0.188976;stroke-dasharray:none;stroke-opacity:1;enable-background:accumulate;stop-color:#000000;stop-opacity:1"
       d="m 138.67381,135.18994 c -1.11159,0.52932 -2.1443,0.93179 -3.08984,1.2129 l -0.004,0.002 -0.006,0.002 c -0.88875,0.27156 -1.71166,0.39844 -2.47851,0.39844 -0.63335,0 -1.13679,-0.0842 -1.51563,-0.2168 l -3.17773,-1.11133 1.57617,2.97461 c 0.22577,0.42646 0.40887,0.83315 0.55273,1.2168 0.13753,0.36673 0.24136,0.74464 0.31055,1.13672 l 0.006,0.0352 0.008,0.0371 c 0.0899,0.3821 0.14961,0.81621 0.17383,1.30079 0.0263,0.52625 0.041,1.12633 0.041,1.80078 v 16.9707 h -3.66993 c -0.0155,-0.54034 -0.0234,-1.15932 -0.0234,-1.85547 0,-1.98619 0.0577,-3.48224 0.1582,-4.44726 0.0848,-0.63612 0.27637,-0.99114 0.45508,-1.375 l 0.082,-1.85352 -1.58789,-0.90039 c -0.92199,-0.0653 -1.79765,-0.17095 -2.41797,-0.46094 -0.79462,-0.41212 -1.61169,-1.04655 -2.43555,-1.94531 l -0.71875,-0.78516 -0.91992,0.53907 c -0.63248,0.37076 -1.65346,0.76248 -3.01758,1.10351 -1.30039,0.3251 -2.91448,0.5 -4.82812,0.5 h -0.36914 c -0.27506,-0.0867 -0.40714,-0.041 -0.58594,-0.041 h -1.66211 l 0.37695,1.61914 c 0.20821,0.89229 0.45031,1.65159 0.75782,2.30078 l 0.0117,0.0254 0.0117,0.0234 c 0.32927,0.6256 0.71287,1.16664 1.18946,1.60351 l 0.0234,0.0215 0.0234,0.0195 c 0.45961,0.38301 0.99139,0.67471 1.5625,0.83789 l 0.0508,0.0137 0.0527,0.0117 c 0.50924,0.10184 1.03967,0.14844 1.58789,0.14844 0.84766,0 1.78335,-0.16537 2.87695,-0.46094 0.445,-0.12027 0.85378,-0.30588 1.28516,-0.45117 v 1.35937 c -0.21108,0.0825 -0.35548,0.16209 -0.62305,0.24414 -0.56278,0.15293 -1.19913,0.29802 -1.91016,0.42969 -0.70044,0.12971 -1.44637,0.23307 -2.23437,0.3125 -0.76818,0.0526 -1.52119,0.0801 -2.25977,0.0801 -0.66896,0 -1.27442,-0.0397 -1.81445,-0.11328 l -2.27148,-0.3086 0.87304,2.11914 c 0.14273,0.34662 0.2575,0.777 0.32813,1.29493 v 0.004 0.004 c 0.0178,0.12464 0.0332,0.25218 0.0469,0.38281 h -8.73633 v -0.8125 l 2.5879,-3.64062 3.04882,1.59179 0.6836,-0.78515 c 0.67202,-0.77283 1.20238,-1.70239 1.60742,-2.76172 l 0.002,-0.006 0.002,-0.006 c 0.40062,-1.07861 0.67111,-2.24874 0.82031,-3.50195 l 0.13867,-1.16602 -1.14258,-0.27344 c -1.11573,-0.26565 -2.13022,-0.55475 -3.04492,-0.86719 -0.91655,-0.34054 -1.59789,-0.66451 -1.99609,-0.91601 l -1.37696,-0.87109 -0.5664,1.52929 c -0.23485,0.63549 -0.50846,1.19916 -0.76368,1.79688 v -0.41797 l -1.437499,-2.39649 -0.94921,0.23633 c -0.86784,0.21696 -1.86475,0.44905 -2.986331,0.69531 -0.003,6.5e-4 -0.0048,9.6e-4 -0.0078,0.002 -1.10335,0.21478 -2.125438,0.38817 -3.058598,0.52148 l -1.134766,0.16211 v 2.46875 l 1.537109,0.66406 v 8.75391 h -7.050781 c 0.03942,-0.18382 0.08093,-0.36863 0.125,-0.55469 0.233396,-0.98545 0.530768,-1.9282 0.890625,-2.83008 0.359164,-0.83298 0.777254,-1.44806 1.226563,-1.87695 l 0.591796,-0.5625 -0.240234,-0.7793 c -0.21516,-0.69926 -0.346213,-1.20494 -0.378906,-1.38476 -0.03899,-0.21448 -0.0625,-0.46759 -0.0625,-0.75977 0,-1.49149 0.14658,-2.81417 0.421875,-3.96679 v -0.002 -0.002 c 0.312022,-1.21667 0.697287,-2.27153 1.142578,-3.16211 l 0.002,-0.006 0.0039,-0.008 c 0.46098,-0.94758 0.964199,-1.74522 1.498047,-2.40039 0.576005,-0.70691 1.114922,-1.28096 1.603516,-1.7207 l 0.01172,-0.0137 0.01367,-0.0117 c 0.510041,-0.48454 0.951239,-0.83231 1.285157,-1.04101 0.436618,-0.27288 0.75164,-0.46411 0.910156,-0.55469 l 4.316405,-2.4668 H 94.04113 c -0.837931,0 -1.594022,0.0585 -2.28125,0.18946 -0.586242,0.11166 -1.146448,0.23862 -1.685547,0.3789 -0.525943,0.11073 -1.052181,0.22132 -1.578125,0.33204 -0.420892,0.0886 -0.912492,0.13867 -1.472656,0.13867 h -1.103516 c -0.397492,-0.0252 -0.83944,-0.0619 -1.316406,-0.11133 -0.448929,-0.0755 -0.91427,-0.17585 -1.396484,-0.30274 -0.431158,-0.11347 -0.832677,-0.26941 -1.212891,-0.4707 l -1.695312,1.92774 c 0.311086,0.4407 0.626159,0.92446 0.943359,1.45312 l 0.01172,0.0215 0.01172,0.0195 c 0.239348,0.36823 0.328125,0.67636 0.328125,1.02539 v 0.37304 c 0,7.5e-4 -0.0012,0.0432 -0.01563,0.11524 l -0.002,0.002 -4.24414,21.7168 -0.275391,0.28906 -0.333984,-0.35156 -5.189453,-21.70508 c -0.01457,-0.0713 -0.03175,-0.13621 -0.04687,-0.20312 v -0.23633 c 0,-0.41372 0.07403,-0.80715 0.236328,-1.21289 l 0.0039,-0.01 0.0039,-0.01 c 0.185477,-0.48688 0.411568,-0.91281 0.675781,-1.28711 l 1.847657,-2.61719 -3.154297,0.55664 c -0.463375,0.0817 -0.871355,0.14964 -1.21875,0.20312 -0.43472,0.0462 -0.86198,0.15866 -1.271484,0.32618 -0.436687,0.16197 -0.852008,0.39123 -1.271485,0.68164 l -0.01953,0.0137 -0.02148,0.0156 c -0.124965,0.0937 -0.284428,0.26171 -0.416016,0.37305 -0.432681,-0.3762 -0.932066,-0.6562 -1.509766,-0.88086 -0.633974,-0.24654 -1.365894,-0.40783 -2.220703,-0.52734 -0.913014,-0.15643 -1.994048,-0.22658 -3.283203,-0.22657 v 2.64063 c -0.0017,0 -0.0048,-6e-5 -0.0059,0 h -0.002 v 0.002 h 0.002 c 0.01826,0.0121 0.257928,0.0903 0.65625,0.56446 0.485486,0.57796 1.007172,1.40435 1.527343,2.4707 l 0.0059,0.0117 0.0059,0.0117 c 0.54776,1.06943 1.079713,2.3314 1.589844,3.78125 l 0.0039,0.01 0.0039,0.01 c 0.544046,1.46893 1.061485,3.00893 1.552735,4.61914 l 0.002,0.002 v 0.004 c 0.490065,1.5791 0.925827,3.15672 1.306641,4.73437 l 0.002,0.0117 0.0039,0.01 c 0.411325,1.59045 0.766237,3.08291 1.066406,4.47461 v 0.002 l 0.002,0.002 c 0.300242,1.36474 0.530788,2.55893 0.691407,3.57617 0.152168,0.96374 0.211182,1.62875 0.21875,2.00196 l -0.857422,0.85742 1.488281,0.85937 c 1.193911,0.68982 2.365009,1.47544 3.511719,2.35547 l 0.01367,0.01 0.01367,0.01 c 0.857593,0.62371 1.74241,1.53167 2.626953,2.45118 l 1.779297,1.49414 1.802735,-1.58399 c 0.612475,-0.69145 1.213557,-1.37716 2.037109,-2.18164 l 0.002,-0.002 c 1.092221,-1.03994 2.301695,-1.96509 3.634766,-2.77539 l 0.634765,-0.38477 v -0.74218 c 0,-0.0862 -0.03033,-0.16513 -0.04102,-0.25 v -0.37305 c 0,-0.54091 0.03857,-1.29463 0.117187,-2.2207 v -0.002 c 0.02256,-0.20285 0.04748,-0.40744 0.07617,-0.61328 h 7.361328 v 3.12695 c 0,0.63742 -0.09228,1.07355 -0.175781,1.27149 -0.04175,0.099 -0.06112,0.13657 -0.07031,0.14844 l -0.002,0.002 h -0.002 v 0.002 h -0.002 -0.002 v -0.002 h -0.002 v -0.002 h -0.002 -0.002 l -0.861328,0.31836 v 2.86132 h 11.525434 v -3.15483 l -1.11523,-0.17578 c -0.68149,-0.10649 -0.95172,-0.29853 -1.02735,-0.37305 -0.0621,-0.099 -0.22461,-0.48531 -0.22461,-1.26953 v -2.75391 h 8.79883 c -0.006,0.9374 -0.0312,1.87502 -0.0781,2.8125 -0.0505,0.98104 -0.20426,1.75059 -0.41211,2.29102 l -0.67774,1.75976 1.88672,0.0332 c 1.52043,0.0262 2.84089,0.19794 3.95899,0.49609 h 0.004 0.004 c 1.15996,0.3026 2.19965,0.73947 3.13672,1.30664 l 0.97265,0.58789 2.39454,-2.88086 c 0.0922,0.13526 0.14111,0.278 0.24023,0.41211 0.54891,0.74264 1.1861,1.36821 1.9082,1.84961 l 1.24414,0.83008 0.66797,-1.33789 c 0.11362,-0.22724 0.32255,-0.56027 0.62305,-0.96094 0.29259,-0.39011 0.62431,-0.77274 0.99805,-1.14648 0.38411,-0.38412 0.76339,-0.72479 1.13672,-1.02344 l 0.004,-0.004 0.004,-0.002 c 0.36096,-0.29328 0.6611,-0.45918 0.85742,-0.5293 l 0.87695,-0.3125 v -2.4375 l -1.02343,-0.23633 c -0.2032,-0.0469 -0.32018,-0.10661 -0.41211,-0.16015 v -0.002 c -0.009,-0.0149 -0.0554,-0.0817 -0.11524,-0.26562 -0.0744,-0.25547 -0.14958,-0.62243 -0.21484,-1.08008 h 3.54883 v 3.12695 c 0,0.64939 -0.10963,1.06887 -0.19336,1.23633 l -0.008,0.0156 -0.008,0.0176 c -0.0536,0.11489 -0.0865,0.15676 -0.0996,0.16992 l -0.002,0.002 v 0.002 h -0.002 v 0.002 h -0.002 v -0.002 l -0.80664,0.33399 v 2.82226 h 10.2793 v -2.86132 l -0.83984,-0.31055 c -0.0122,-0.0223 -0.0388,-0.0765 -0.082,-0.19336 -0.10114,-0.27347 -0.19921,-0.82973 -0.19921,-1.60742 v -7.65821 l 3.00781,-1.34375 v 3.53125 0.0117 c 0.0275,1.57014 0.041,3.1408 0.041,4.71094 0,0.22445 -0.024,0.71198 -0.0781,1.38867 -0.0545,0.68158 -0.12276,1.43459 -0.20508,2.25781 -0.0799,0.77162 -0.18713,1.54396 -0.32031,2.31641 v 0.004 l -0.002,0.002 c -0.13215,0.79292 -0.27507,1.43776 -0.41796,1.91406 l -0.22657,0.75586 1.77344,1.77149 0.93164,-0.99805 c 0.35475,-0.38009 0.76805,-0.78145 1.24024,-1.20117 0.46277,-0.41136 0.9521,-0.81076 1.46875,-1.19922 l 0.01,-0.006 c 0.54395,-0.38819 1.06986,-0.73595 1.58008,-1.04297 0.52059,-0.29748 1.0148,-0.52578 1.48242,-0.68945 l 1.08399,-0.37891 -0.22461,-1.125 c -0.0525,-0.26244 -0.1053,-0.53991 -0.15821,-0.83008 -0.0436,-0.26177 -0.0835,-0.6377 -0.10937,-1.10351 -0.0263,-0.4726 -0.0533,-1.09244 -0.0801,-1.83594 v -0.002 -3.0293 c 0,-1.43098 0.0139,-2.62401 0.041,-3.57422 0.0274,-0.95565 0.055,-1.75747 0.082,-2.41015 0.0513,-0.61143 0.10011,-1.10316 0.14843,-1.47266 0.0754,-0.39895 0.16132,-0.76968 0.25782,-1.10742 l 0.30664,-1.07422 -1.00781,-0.48047 c -0.55165,-0.26269 -1.0295,-0.50862 -1.43555,-0.73633 -0.40883,-0.25591 -0.8042,-0.51057 -1.1875,-0.76562 l -0.006,-0.004 c -0.34865,-0.24929 -0.70181,-0.52641 -1.05664,-0.83008 -0.003,-0.003 -0.006,-0.005 -0.01,-0.008 -0.3758,-0.34913 -0.78547,-0.7341 -1.24023,-1.16211 l -0.95899,-0.90234 -0.90429,0.95507 c -0.96518,1.0188 -1.89565,1.89477 -2.78711,2.62891 -0.30286,0.24941 -0.70676,0.50466 -1.03906,0.75586 v -8.62305 c 0,-1.37195 0.0945,-2.56251 0.26953,-3.57031 0.19019,-0.94258 0.50249,-1.60885 0.8789,-2.06055 z m -19.29297,26.49024 v 2.48633 c -0.34688,-0.0463 -0.75954,-0.14897 -1.07226,-0.16211 h -0.004 c -0.19737,-0.009 -0.38376,-0.0277 -0.57812,-0.0391 l 0.0371,-1.87305 c 0.31734,-0.0646 0.58873,-0.0917 0.94335,-0.1836 l 0.0215,-0.006 0.0215,-0.008 c 0.2041,-0.0605 0.42349,-0.14867 0.63086,-0.21484 z"
       inkscape:label="text" /></g></svg>
