<?xml version="1.0" encoding="UTF-8" standalone="no"?>
<svg
   version="1.2"
   viewBox="0 0 219.2126 219.2126"
   width="58mm"
   height="58mm"
   id="svg1"
   sodipodi:docname="VudonRoleTokenLaser.svg"
   inkscape:version="1.4.2 (f4327f4, 2025-05-13)"
   xml:space="preserve"
   xmlns:inkscape="http://www.inkscape.org/namespaces/inkscape"
   xmlns:sodipodi="http://sodipodi.sourceforge.net/DTD/sodipodi-0.dtd"
   xmlns="http://www.w3.org/2000/svg"
   xmlns:svg="http://www.w3.org/2000/svg"><sodipodi:namedview
     id="namedview1"
     pagecolor="#ffffff"
     bordercolor="#666666"
     borderopacity="1.0"
     inkscape:showpageshadow="2"
     inkscape:pageopacity="0.0"
     inkscape:pagecheckerboard="0"
     inkscape:deskcolor="#d1d1d1"
     inkscape:zoom="6.9633856"
     inkscape:cx="104.04422"
     inkscape:cy="91.263078"
     inkscape:window-width="1920"
     inkscape:window-height="1057"
     inkscape:window-x="-8"
     inkscape:window-y="-8"
     inkscape:window-maximized="1"
     inkscape:current-layer="layer2"
     inkscape:document-units="mm"
     showgrid="false" /><defs
     id="defs1"><clipPath
       clipPathUnits="userSpaceOnUse"
       id="cp1"><path
         d="m 275.5,535.5 c -143.78,0 -260,-116.22 -260,-260 0,-143.78 116.22,-260 260,-260 143.78,0 260,116.22 260,260 0,143.78 -116.22,260 -260,260 z"
         id="path1" /></clipPath></defs><style
     id="style1">
		tspan { white-space:pre } 
		.s0 { fill: none;stroke: #ff0000;stroke-miterlimit:100 } 
	</style><g
     inkscape:groupmode="layer"
     id="layer2"
     inkscape:label="Content"><g
       inkscape:groupmode="layer"
       id="layer4"
       inkscape:label="Kruh"
       style="display:inline"><path
         id="path2"
         style="fill:none;stroke:#000000;stroke-width:0.189192"
         d="M 219.118,109.6063 A 109.5117,109.5117 0 0 1 109.6063,219.118 109.5117,109.5117 0 0 1 0.09459686,109.6063 109.5117,109.5117 0 0 1 109.6063,0.09459686 109.5117,109.5117 0 0 1 219.118,109.6063 Z"
         inkscape:label="Vnejsi kruh" /><path
         id="circle2"
         style="fill:none;stroke:#000000;stroke-width:0.188976"
         d="M 208.69732,109.6063 A 99.091019,99.091019 0 0 1 109.6063,208.69732 99.091019,99.091019 0 0 1 10.515282,109.6063 99.091019,99.091019 0 0 1 109.6063,10.515282 99.091019,99.091019 0 0 1 208.69732,109.6063 Z"
         inkscape:label="Vnitrni kruh" /></g><path
       id="path3"
       style="font-size:41.5223px;font-family:'New Rocker';-inkscape-font-specification:'New Rocker';letter-spacing:0.769167px;baseline-shift:baseline;white-space:pre;display:inline;overflow:visible;opacity:1;fill:none;stroke:#000000;stroke-width:0.188976;stroke-dasharray:none;stroke-opacity:1;enable-background:accumulate;stop-color:#000000;stop-opacity:1"
       d="m 88.333961,137.82366 -0.955078,1.91016 c -0.227273,0.45455 -0.529,0.99407 -0.902344,1.60742 l -0.01172,0.0176 -0.0098,0.0195 c -0.345593,0.61144 -0.718581,1.2237 -1.119141,1.83789 l -0.0039,0.006 -0.0039,0.006 c -0.385459,0.60572 -0.757902,1.18463 -1.115235,1.73438 l -0.01172,0.0195 -0.01367,0.0195 c -0.333843,0.5564 -0.598508,1.00369 -0.796875,1.34375 l -0.574219,0.98437 0.890625,0.71094 c 0.237118,0.1897 0.420649,0.35969 0.544922,0.48633 v 3.15039 c -0.08588,0.0287 -0.174888,0.0583 -0.267578,0.0879 -0.581322,0.15806 -1.216898,0.31854 -1.910157,0.47852 -0.697565,0.16098 -1.394596,0.30708 -2.091797,0.4414 -0.686394,0.10511 -1.304528,0.18482 -1.845703,0.23633 l -1.089843,0.10352 -0.216797,2.37304 0.710937,0.42578 c 0.27468,0.16481 0.454901,0.33829 0.589844,0.53321 l 0.0332,0.0469 0.03906,0.0469 c 0.140604,0.16872 0.291255,0.43858 0.417968,0.83984 0.12471,0.39491 0.225529,0.9362 0.275391,1.60938 l 0.002,0.0273 0.0039,0.0254 c 0.07509,0.65081 0.115235,1.46395 0.115235,2.42383 0,0.85831 -0.02603,1.76105 -0.08008,2.70703 l -0.002,0.0176 v 0.0195 c -0.01037,0.35271 -0.02466,0.69611 -0.04297,1.03125 H 71.914 c 0.07476,-0.40349 0.16157,-0.81196 0.259766,-1.22656 0.23291,-0.98339 0.529826,-1.92405 0.888672,-2.82422 0.359917,-0.837 0.779748,-1.45259 1.230468,-1.88282 l 0.589844,-0.5625 -0.240234,-0.77929 c -0.215161,-0.69926 -0.346214,-1.20495 -0.378907,-1.38477 -0.03899,-0.21448 -0.06055,-0.46758 -0.06055,-0.75976 0,-1.48851 0.143745,-2.80799 0.417968,-3.95899 0.312634,-1.22235 0.697606,-2.27998 1.144532,-3.17383 l 0.0039,-0.006 0.002,-0.008 c 0.460981,-0.94758 0.964199,-1.74522 1.498047,-2.40039 0.576004,-0.70691 1.11492,-1.28096 1.603515,-1.7207 l 0.01367,-0.0156 0.01172,-0.01 c 0.510041,-0.48454 0.953191,-0.83232 1.287109,-1.04102 0.436618,-0.27288 0.75164,-0.46411 0.910157,-0.55469 l 4.314453,-2.46679 h -4.9707 c -0.837932,0 -1.594022,0.0585 -2.28125,0.18945 -0.586243,0.11166 -1.146449,0.23667 -1.685547,0.37695 -0.525943,0.11073 -1.052181,0.22327 -1.578125,0.33399 -0.420892,0.0886 -0.910539,0.13867 -1.470703,0.13867 h -1.105469 c -0.398682,-0.0253 -0.839731,-0.0636 -1.318359,-0.11328 -0.448246,-0.0755 -0.91116,-0.1741 -1.392579,-0.30078 -0.431159,-0.11347 -0.83463,-0.26942 -1.214843,-0.47071 l -1.695313,1.92774 c 0.311087,0.4407 0.626159,0.92446 0.94336,1.45312 l 0.01172,0.0215 0.01367,0.0176 c 0.239348,0.36823 0.326172,0.67636 0.326172,1.02539 v 0.37304 c 0,7.5e-4 -0.0012,0.0432 -0.01563,0.11524 v 0.004 l -4.246094,21.7168 -0.273437,0.28906 -0.333984,-0.35156 -5.191407,-21.70508 c -0.01499,-0.0733 -0.0313,-0.14029 -0.04687,-0.20898 v -0.23047 c 0,-0.41372 0.07599,-0.80715 0.238282,-1.21289 l 0.0039,-0.0117 0.0039,-0.01 c 0.185477,-0.48688 0.411569,-0.91281 0.675781,-1.28711 l 1.845703,-2.61719 -3.154296,0.55664 c -0.463376,0.0817 -0.869402,0.14964 -1.216797,0.20312 -0.434709,0.0462 -0.861992,0.15866 -1.271485,0.32618 -0.436686,0.16197 -0.852007,0.39123 -1.271484,0.68164 l -0.02148,0.0137 -0.01953,0.0156 c -0.124965,0.0937 -0.284427,0.26171 -0.416015,0.37305 -0.432691,-0.37622 -0.934,-0.65619 -1.511719,-0.88086 -0.634502,-0.24674 -1.366923,-0.40781 -2.222656,-0.52734 -0.912336,-0.15604 -1.991669,-0.22657 -3.279297,-0.22657 v 2.64063 c -0.0017,0 -0.0048,-6e-5 -0.0059,0 h -0.002 v 0.002 h 0.002 c 0.01826,0.0121 0.257929,0.0903 0.65625,0.56446 0.485485,0.57796 1.007173,1.40435 1.527344,2.4707 l 0.0039,0.0117 0.0059,0.0117 c 0.54776,1.06943 1.081666,2.3314 1.591797,3.78125 l 0.0039,0.01 0.0039,0.01 c 0.544047,1.46893 1.061485,3.00893 1.552735,4.61914 v 0.002 l 0.002,0.004 c 0.490065,1.5791 0.925826,3.15672 1.30664,4.73437 l 0.002,0.0117 0.002,0.01 c 0.411325,1.59045 0.768189,3.08291 1.068359,4.47461 v 0.002 0.002 c 0.300241,1.36474 0.530788,2.55893 0.691406,3.57617 0.152168,0.96374 0.211183,1.62875 0.21875,2.00196 l -0.857422,0.85742 1.490235,0.85937 c 1.193911,0.68982 2.363055,1.47544 3.509765,2.35547 l 0.01367,0.0117 0.01367,0.01 c 0.857594,0.62371 1.742411,1.53166 2.626953,2.45117 l 1.916016,1.31445 1.667969,-1.40429 c 0.612346,-0.69127 1.213823,-1.37742 2.037109,-2.18164 l 0.002,-0.002 c 1.092222,-1.03994 2.301695,-1.96509 3.634766,-2.77539 l 0.634765,-0.38476 v -0.74219 c 0,-0.0903 -0.03129,-0.17298 -0.04297,-0.26172 v -0.36133 c 0,-0.5306 0.0395,-1.26221 0.115235,-2.16406 h 7.09375 c -0.07541,0.70998 -0.162402,1.31062 -0.253906,1.79101 l -0.0039,0.0293 -0.0059,0.0312 c -0.05082,0.35573 -0.164535,0.63837 -0.166016,0.68164 v 0.002 h 0.002 v 0.002 h 0.002 v -0.002 h 0.002 l 0.002,-0.002 c 0.01143,-0.0107 0.03575,-0.0448 0.07617,-0.10547 l -0.792969,1.18946 1.25,0.69531 c 0.478313,0.26573 0.89771,0.51586 1.255859,0.74609 l 0.04687,0.0293 0.04687,0.0254 c 0.364184,0.19423 0.717009,0.41226 1.058594,0.65625 l 0.01563,0.0117 0.01758,0.0117 c 0.364543,0.24303 0.73798,0.52851 1.115235,0.85547 l 0.03516,0.0293 0.03711,0.0273 c 0.400667,0.30049 0.870395,0.69312 1.402344,1.17187 l 0.931641,0.83789 0.884765,-0.88476 c 0.43113,-0.43113 0.848766,-0.83437 1.25,-1.20899 0.0019,-0.002 0.0039,-0.004 0.0059,-0.006 0.39712,-0.34574 0.820619,-0.67903 1.269531,-1.0039 0.495868,-0.33884 1.033644,-0.68173 1.615234,-1.02539 0.222824,-0.12574 0.527603,-0.27613 0.777344,-0.41016 0.143508,0.4009 0.193634,0.87212 0.400391,1.22656 l 0.0098,0.0176 0.01172,0.0156 c 0.523513,0.83761 1.277699,1.63518 2.257809,2.46679 l 1.32422,1.12305 0.72852,-1.57617 c 0.10674,-0.23127 0.2951,-0.53685 0.57812,-0.89063 l 0.0137,-0.0176 0.0117,-0.0156 c 0.29259,-0.39011 0.62626,-0.77274 0.999998,-1.14648 0.37375,-0.37375 0.75442,-0.70548 1.14453,-0.99805 0.3901,-0.29258 0.72191,-0.49334 0.96485,-0.60547 l 0.76758,-0.35352 v -2.36718 l -1.04297,-0.22461 c -0.18407,-0.0394 -0.25486,-0.0893 -0.3125,-0.13477 0.009,0.004 -0.0914,-0.11892 -0.1875,-0.46484 -0.0192,-0.0692 -0.0383,-0.14654 -0.0566,-0.23047 h 2.916015 c -0.008,0.19899 -0.0188,0.39864 -0.0293,0.59766 -0.0499,0.92039 -0.21283,1.92661 -0.49805,3.01562 l -0.33008,1.25977 1.25586,0.34765 c 0.67671,0.18668 1.35239,0.47923 2.0332,0.89258 0.66293,0.4025 1.28496,0.91564 1.87305,1.55273 l 0.52539,0.56836 0.75195,-0.17968 c 0.7259,-0.17422 1.47599,-0.39172 2.24805,-0.64844 0.77669,-0.23084 1.52938,-0.48949 2.25391,-0.7793 l 0.0117,-0.006 0.0117,-0.004 c 0.74971,-0.31719 1.45999,-0.65194 2.13086,-1.00196 0.23077,-0.1204 0.41125,-0.24557 0.62696,-0.36718 0.18248,0.29754 0.30955,0.60447 0.52539,0.89648 0.54891,0.74264 1.18415,1.36821 1.90625,1.84961 l 1.24414,0.83008 0.66797,-1.33789 c 0.11363,-0.22726 0.32254,-0.56026 0.62304,-0.96094 0.29259,-0.39011 0.62431,-0.77274 0.99805,-1.14648 0.38411,-0.38412 0.76535,-0.72479 1.13867,-1.02344 l 0.004,-0.004 0.002,-0.002 c 0.36096,-0.29328 0.66111,-0.45918 0.85742,-0.5293 l 0.87696,-0.3125 v -2.36133 l -0.93164,-0.28711 c -0.19014,-0.0585 -0.2988,-0.1258 -0.39844,-0.1914 -0.0172,-0.0268 -0.10794,-0.1662 -0.21484,-0.46094 -0.016,-0.0626 -0.0314,-0.13209 -0.0469,-0.20703 h 2.98438 c -0.0355,1.02943 -0.12303,1.88021 -0.25,2.5332 l -0.002,0.0137 -0.002,0.0156 c -0.13261,0.77354 -0.37947,1.14491 -0.39063,1.17187 h 0.002 l -0.45899,1.88672 1.57617,0.41016 c 0.0548,0.0143 0.10578,-0.0156 0.15625,-0.0156 h 0.10938 l 0.10742,-0.0195 c 0.0958,-0.016 0.18845,-0.0234 0.28125,-0.0234 0.47657,0 1.15574,0.0617 1.99805,0.19335 0.84603,0.1322 1.69287,0.30359 2.54101,0.51563 0.84977,0.21244 1.6249,0.43745 2.33008,0.67187 0.6622,0.2482 1.10264,0.49982 1.18164,0.56446 l 0.92383,0.75586 0.8457,-0.84375 c 0.52946,-0.52946 1.12751,-1.04014 1.79688,-1.5293 l 0.0117,-0.01 0.0137,-0.01 c 0.66463,-0.51125 1.3508,-0.95571 2.06055,-1.33594 0.72127,-0.38639 1.43701,-0.7056 2.14648,-0.95898 0.69728,-0.24903 1.33639,-0.40334 1.91406,-0.47266 l 1.38477,-0.16601 -0.24219,-1.37305 c -0.11527,-0.65322 -0.21668,-1.31184 -0.30469,-1.97461 h 2.77149 v 2.45312 c 0,0.64939 -0.10768,1.06887 -0.19141,1.23633 l -0.01,0.0156 -0.006,0.0176 c -0.0596,0.12765 -0.0925,0.1656 -0.10352,0.17382 h -0.002 v 0.002 h -0.002 v -0.002 l -0.80665,0.33399 v 2.82226 h 10.28125 v -2.86132 l -0.84179,-0.31055 c -0.0122,-0.0223 -0.0388,-0.0765 -0.082,-0.19336 -0.10115,-0.27347 -0.19727,-0.82973 -0.19727,-1.60742 v -8.07227 l 3.00586,-1.34375 v 3.53125 0.0117 c 0.0275,1.57014 0.043,3.13885 0.043,4.70898 0,0.22456 -0.026,0.71392 -0.0801,1.39063 -0.0545,0.68158 -0.12275,1.43459 -0.20508,2.25781 -0.0799,0.77099 -0.18724,1.54264 -0.32031,2.31446 v 0.004 0.004 c -0.13216,0.79291 -0.27703,1.43774 -0.41992,1.91406 l -0.22656,0.75391 1.77343,1.77343 0.93164,-0.99804 c 0.35476,-0.38009 0.76805,-0.78145 1.24024,-1.20117 0.46821,-0.41619 0.96491,-0.82208 1.48828,-1.21485 l 0.002,-0.002 h 0.002 l 0.002,-0.002 c 0.54283,-0.3868 1.07089,-0.7332 1.58008,-1.03907 0.5145,-0.29284 1.00612,-0.51972 1.46875,-0.68164 l 1.08203,-0.3789 -0.22461,-1.125 c -0.0525,-0.26226 -0.10539,-0.54009 -0.1582,-0.83008 -0.0436,-0.26177 -0.0835,-0.63575 -0.10938,-1.10156 -0.027,-0.48467 -0.0526,-1.11532 -0.0801,-1.88477 v -2.98438 c 0,-1.43098 0.0139,-2.624 0.041,-3.57421 0.0273,-0.95485 0.055,-1.7539 0.082,-2.40625 0.0521,-0.61992 0.10348,-1.1207 0.15234,-1.49219 0.0746,-0.39246 0.16073,-0.75885 0.25586,-1.0918 l 0.30664,-1.07422 -1.00976,-0.47851 c -0.55166,-0.26269 -1.0295,-0.50862 -1.43555,-0.73633 -0.41574,-0.26025 -0.81769,-0.5219 -1.20703,-0.78125 -0.34405,-0.24666 -0.69095,-0.51876 -1.04102,-0.81836 -0.003,-0.003 -0.006,-0.005 -0.01,-0.008 -0.37581,-0.34914 -0.7874,-0.73603 -1.24219,-1.16407 l -0.95703,-0.90039 -0.90625,0.95508 c -0.96517,1.0188 -1.89565,1.89476 -2.78711,2.62891 -0.30221,0.24888 -0.70558,0.50324 -1.03711,0.7539 v -1.22265 l -1.43945,-2.39649 -0.94922,0.23633 c -0.86784,0.21696 -1.86475,0.44905 -2.98633,0.69531 -0.003,6.5e-4 -0.005,9.6e-4 -0.008,0.002 -1.10334,0.21478 -2.12543,0.38817 -3.0586,0.52148 l -1.13281,0.16211 v 2.46875 l 1.53516,0.66406 v 9.42774 h -2.9707 c -0.14951,-1.5642 -0.22461,-3.15414 -0.22461,-4.77149 0,-2.37598 0.16368,-4.41854 0.47656,-6.11328 l 0.34765,-1.88086 -1.88085,0.3418 c -0.24537,0.0446 -0.50797,0.0792 -0.78321,0.10352 h -1.30664 c -0.98933,0 -2.09141,-0.10184 -3.30273,-0.3125 -1.17275,-0.20396 -2.71388,-0.61492 -4.58399,-1.23829 l -1.31836,0.625 -1.81836,1.11133 0.0195,0.006 c -0.61843,0.50184 -1.22398,1.10297 -1.85547,1.49805 -1.22793,0.7403 -2.29513,1.16841 -3.15235,1.32226 l -2.18164,0.39063 1.30469,1.63086 v 0.002 c 0.004,0.0103 0.008,0.0209 0.0117,0.0332 0.0339,0.1145 0.0828,0.32454 0.13281,0.5996 0.1016,0.55879 0.19488,1.2579 0.27539,2.08985 l 0.002,0.0215 0.002,0.0215 c 0.10625,0.82326 0.18649,1.70553 0.24023,2.64648 v 0.002 c 0.0389,0.66146 0.065,1.28519 0.0762,1.8711 h -3.19726 c -0.0493,-0.86159 -0.0762,-2.04283 -0.0762,-3.52539 v -15.24024 c 0,-1.37195 0.0945,-2.56251 0.26953,-3.57031 0.19019,-0.94257 0.50249,-1.60885 0.8789,-2.06055 l -1.58203,-2.03711 c -1.1116,0.52932 -2.14235,0.93179 -3.08789,1.2129 l -0.006,0.002 -0.004,0.002 c -0.88875,0.27156 -1.71362,0.39844 -2.48047,0.39844 -0.63335,0 -1.13678,-0.0842 -1.51563,-0.2168 l -3.17773,-1.11133 1.57617,2.97461 c 0.22577,0.42646 0.40885,0.83314 0.55273,1.2168 0.13752,0.36673 0.24136,0.74464 0.31055,1.13672 l 0.006,0.0352 0.008,0.0371 c 0.0899,0.3821 0.15156,0.81621 0.17578,1.30079 0.0263,0.52625 0.0391,1.12633 0.0391,1.80078 v 4.45898 c -0.24588,-0.0487 -0.52652,-0.0709 -0.75782,-0.13086 -0.67406,-0.17475 -1.41849,-0.42984 -2.22851,-0.76953 l -0.66797,-0.2793 -0.5957,0.41407 c -1.2188,0.84786 -2.4444,1.57157 -3.67774,2.17578 -1.1784,0.56358 -2.32275,0.93819 -3.43945,1.13672 l -1.597665,0.2832 0.603525,1.50586 c 0.0628,0.15709 0.14611,0.44655 0.21875,0.83398 v 0.008 l 0.002,0.008 c 0.0664,0.33235 0.13266,0.84515 0.18555,1.50586 l 0.004,0.0293 0.004,0.0293 c 0.0755,0.60389 0.12942,1.38443 0.15625,2.32422 v 0.002 c 0.0271,0.92294 0.041,2.04569 0.041,3.36524 0,0.24824 -6.9e-4,0.49593 -0.004,0.74414 h -3.171875 c -0.041,-0.74557 -0.0625,-1.68907 -0.0625,-2.82031 v -11.93555 l -1.910158,0.95508 c -0.82544,0.41272 -1.84937,0.77238 -3.07227,1.05859 l -0.004,0.002 h -0.004 c -1.19875,0.28667 -2.423057,0.46847 -3.677733,0.54688 l -1.238281,0.0781 v 2.79297 l 0.980469,0.26172 c 0.28646,0.0764 0.418217,0.16916 0.425781,0.17578 l 0.06641,0.0566 0.06445,0.043 h 0.002 v 0.002 h 0.002 l 0.002,0.002 c 0.01199,0.014 0.04092,0.0571 0.08203,0.16406 0.05944,0.15455 0.138424,0.51992 0.162109,1.04102 l 0.002,0.0293 0.002,0.0293 c 0.04981,0.54795 0.07813,1.29174 0.07813,2.20703 v 5.61328 l -2.484375,1.08594 -0.605469,-0.46094 v -7.73437 -1.86719 -0.002 c 0.02463,-0.48695 0.03761,-0.94276 0.03906,-1.36914 0.02673,-0.42767 0.05345,-0.82691 0.08008,-1.20118 0.05464,-0.3861 0.108206,-0.80155 0.16211,-1.25976 l 0.27539,-2.33984 -1.408203,0.65039 v -0.86329 l 0.53711,0.43555 0.841797,-0.8418 c 0.510882,-0.51088 1.049485,-1.03704 1.615234,-1.57617 0.60752,-0.55229 1.186459,-1.07562 1.738281,-1.57226 0.532855,-0.47957 1.019588,-0.88769 1.455078,-1.22071 l 0.0195,-0.0137 0.0176,-0.0156 c 0.45379,-0.37371 0.7986,-0.63591 0.97266,-0.75196 l 1.77734,-1.18359 -1.85352,-1.06055 c -0.14633,-0.0836 -0.42632,-0.25486 -0.78125,-0.48242 -0.3422,-0.26254 -0.706181,-0.53573 -1.093746,-0.82031 l -0.01563,-0.0117 c -0.0071,-0.005 -0.01242,-0.0104 -0.01953,-0.0156 -0.348961,-0.27481 -0.68546,-0.54863 -1.009766,-0.82227 l -0.0059,-0.006 c -0.290709,-0.2672 -0.490129,-0.48684 -0.576172,-0.60156 z m 35.167969,19.98633 h 0.002 l 0.002,0.002 c 0.005,0.006 0.0129,0.0202 0.0215,0.0391 -0.016,-0.0235 -0.0238,-0.0366 -0.0254,-0.041 z m -12.40625,0.0391 c 0.39174,0.1245 0.76493,0.25517 1.20508,0.36524 0.24902,0.0623 0.43463,0.0694 0.66211,0.11523 v 7.85352 c -0.13726,0.0689 -0.2161,0.12352 -0.38477,0.19922 -0.45013,0.17427 -0.94358,0.34019 -1.48242,0.49414 -0.54156,0.15474 -1.11256,0.29694 -1.71094,0.42773 -0.0353,0.006 -0.0646,0.006 -0.0996,0.0117 0.0135,-0.29788 0.0349,-0.5609 0.0449,-0.875 v -0.006 c 0.0569,-0.91121 0.0859,-1.82105 0.0859,-2.73242 0,-0.95411 -0.015,-1.94925 -0.043,-2.98438 -4.7e-4,-0.69497 -0.0331,-1.17515 -0.0586,-1.69726 0.2888,-0.15943 0.5622,-0.28164 0.87109,-0.48242 l 0.006,-0.004 0.008,-0.004 c 0.36184,-0.24123 0.60904,-0.45776 0.89648,-0.68164 z m 20.97461,0.3711 c 0.35917,0.10196 0.5868,0.23812 1,0.33203 l 0.0137,0.004 0.0156,0.002 c 0.87287,0.17854 1.77552,0.27664 2.67382,0.38672 l -0.0644,8.94922 c -0.54275,-0.12765 -1.04559,-0.2878 -1.625,-0.38672 -0.71373,-0.12186 -1.32612,-0.19697 -1.96875,-0.28711 0.0261,-0.57996 0.0577,-1.15497 0.0742,-1.74414 l 0.002,-0.0352 c 0.055,-1.02708 0.084,-1.95468 0.084,-2.77734 0,-1.04733 -0.0293,-2.08067 -0.0859,-3.10157 v -0.002 c -0.0228,-0.4207 -0.083,-0.89854 -0.11914,-1.33984 z"
       sodipodi:nodetypes="cscccccccccscccccscccccccsscccscccccsccccssccccscccsccsccssccscccccsscccccccsccccccccccccscccccccscccccccccccccccscccccccccccccscscccccccccccccccccccccscccccscccccccccccccssscccccsccccccscccccccscscccssccccccccccccccccccsccssscscccccsscccccscccccccccccccssccccssccccccccscccccccccccscccccccccccccsccccscccccccsccccsscccccccccsscccccccssccccccscccscccsscscccccccccccccccsccscsccccccccccccccscccscccccccccccccscsccccccccccccccccccccscccsccccsccccccccccccscccsccc"
       inkscape:label="text" /><path
       id="path5"
       style="baseline-shift:baseline;display:inline;overflow:visible;opacity:1;fill:none;stroke:#000000;stroke-width:0.188976;stroke-linejoin:miter;stroke-dasharray:none;stroke-opacity:1;enable-background:accumulate;stop-color:#000000;stop-opacity:1"
       d="m 111.74805,28.246094 -0.2168,0.140625 -0.0195,0.166015 c -8.70106,1.514728 -18.317637,4.285589 -25.130861,10.746094 -9.158301,8.68419 -9.927083,22.992845 -7.238281,34.300781 1.129393,4.749727 4.269698,7.914252 6.023437,11.818359 -0.275474,0.543348 -0.440528,1.146023 -0.25,1.742188 0.251149,0.785855 0.759697,1.532009 1.339844,2.242187 1.074542,1.315382 2.362577,2.429152 2.966797,3.007813 -0.1171,0.45335 -0.169294,0.922816 -0.02539,1.341797 0.201469,0.586596 0.506076,1.112511 0.650391,1.466797 1.029382,2.527126 2.15113,5.03882 3.279297,7.51172 1.209999,2.65228 2.247413,6.8032 3.830078,10.54687 1.582695,3.74375 3.766658,7.20285 7.470698,8.22461 1.27711,0.3523 2.66705,0.16458 4.00586,-0.0644 1.33971,-0.22926 2.65237,-0.51283 3.66797,-0.51563 l 0.11914,-0.002 h 0.002 c 8.4e-4,-1e-5 0.005,4e-5 0.006,0 h 0.002 c 0.92949,0.10969 2.6009,0.12305 3.29101,0.12305 1.59847,0 3.4148,0.1138 5.18946,-0.11914 1.77606,-0.23312 3.54592,-0.84019 4.90625,-2.31055 2.67106,-2.88706 5.95057,-6.97003 7.38281,-10.81836 1.95458,-5.25179 1.89485,-11.078602 3.80859,-15.886717 0.42689,-1.072525 1.34385,-1.746127 2.37891,-2.552735 1.03719,-0.808266 2.19515,-1.788941 2.5957,-3.472656 0.0627,-0.262381 -0.0295,-0.540024 -0.23633,-0.71289 -0.48511,-0.403604 -0.87657,-0.838671 -1.08398,-1.265625 -0.21112,-0.434588 -0.27258,-0.833471 -0.0918,-1.400391 1.91748,-6.013364 5.48362,-10.929365 5.48633,-17.988281 0.007,-18.91981 -15.60883,-34.259868 -34,-36.257813 z m -0.0156,3.263672 c 0.0136,0.01473 0.0292,0.02847 0.0449,0.04102 0.007,6.1e-5 0.0142,-6.7e-5 0.0215,0 l -0.0781,0.128906 z m -0.13672,0.294921 0.0723,0.05664 0.10742,0.002 c 10.15954,0.0852 19.9785,5.786337 25.42188,14.486328 -1.59814,-0.586406 -3.34735,-1.033904 -5.10743,-0.3125 -1.5943,0.653455 -2.73128,2.122231 -3.21093,3.744141 -0.48035,1.624261 -0.29251,3.483831 0.9414,4.822265 1.41943,1.539652 3.78552,1.716107 5.57422,1.03711 0.89543,-0.339905 1.69205,-0.92133 2.11133,-1.773438 0.41145,-0.836175 0.36018,-1.884658 -0.19336,-2.925781 1.87638,0.896863 3.29249,2.576155 4.23242,4.734375 1.35405,3.109086 1.72477,6.966235 1.26953,9.650391 -0.0768,0.453092 -0.40373,1.006241 -0.68164,1.541015 l -1.60547,-5.050781 c -0.0557,-0.204112 -0.19418,-0.372184 -0.36132,-0.455078 -0.16715,-0.08289 -0.35015,-0.08952 -0.51368,-0.04492 -0.16353,0.0446 -0.31605,0.14255 -0.41797,0.298828 -0.10191,0.156279 -0.13773,0.37206 -0.082,0.576172 l -0.004,-0.01172 c 0.24945,1.091244 0.48868,2.248549 0.41406,3.205078 -0.062,0.794622 -0.37501,1.394246 -1.00781,1.919922 l -1.22657,-1.923828 c -0.14549,-0.229474 -0.41166,-0.358267 -0.68164,-0.328125 -0.0623,0.0069 -0.30214,-0.01402 -0.58984,-0.08984 -0.2877,-0.07582 -0.63838,-0.1985 -0.99805,-0.365234 -0.21897,-0.101513 -0.43095,-0.28794 -0.6582,-0.416016 0.33077,0.0737 0.66844,0.123534 0.99805,0.07422 0.79384,-0.118777 1.5328,-0.595191 1.97265,-1.355469 0.4398,-0.760188 0.56054,-1.772291 0.25586,-2.919921 -0.21677,-0.81647 -0.81612,-1.440552 -1.52929,-1.896485 -0.7131,-0.455877 -1.5709,-0.766396 -2.45313,-0.9375 -0.88219,-0.171096 -1.7931,-0.20258 -2.62695,-0.05273 -0.83352,0.14977 -1.62404,0.486114 -2.14453,1.138672 -0.82827,1.038425 -0.78131,2.271331 -0.57227,3.308593 0.20751,1.029707 0.5355,1.991981 0.53906,2.666016 v 0.002 c 0.004,0.299043 0.19666,0.567722 0.48047,0.666016 0.82019,0.287774 1.66642,0.958978 2.49805,1.738281 -0.46758,-0.105645 -0.94679,-0.200188 -1.35547,-0.291016 -0.41218,-0.09161 -0.76262,-0.188244 -0.9082,-0.259765 -0.96879,-0.475942 -2.50222,-1.110215 -4.09375,-1.560547 -1.1296,-0.319627 -2.23641,-0.468462 -3.27539,-0.451172 l 2.42382,-1.412109 0.002,-0.002 c 0.30422,-0.175087 0.41249,-0.536877 0.32812,-0.820313 -0.0846,-0.284251 -0.37475,-0.529174 -0.72656,-0.507812 -2.0824,0.109761 -4.48225,0.540492 -6.45117,1.626953 -1.97463,1.089612 -3.51882,2.941736 -3.57617,5.61914 l -0.006,0.3125 0.5625,0.0098 0.33789,0.447266 1.50195,-1.138672 c -0.0655,0.11734 -0.15908,0.201546 -0.2168,0.326172 -0.77879,1.681753 -1.16104,3.479519 -1.39453,5.046875 l -0.1582,-0.05273 c -0.39472,-0.131825 -0.82942,0.111832 -0.92188,0.517578 -0.4245,1.856938 0.61377,3.956038 1.98243,5.753906 1.36981,1.799373 3.11486,3.330559 4.74609,3.816407 0.36446,0.108687 0.75732,-0.09471 0.87891,-0.455078 l 0.0937,-0.279297 c 3.20687,1.280014 6.11188,0.555293 8.20703,-1.31836 2.25902,-2.020212 3.69531,-5.152037 4.22851,-8.171875 0.19184,-1.08641 0.4583,-2.46975 0.34766,-3.876953 1.2884,2.114465 1.95448,4.535196 1.48633,6.373047 -0.64865,2.546539 -2.47212,4.355679 -3.74414,6.904297 l -1.82032,1.820312 c -0.13351,0.133586 -0.209,0.315282 -0.20898,0.503907 v 0.3125 c 2.8e-4,0.303547 0.19703,0.57595 0.48438,0.673828 0.61701,0.209513 1.20306,0.191919 1.69531,0.02344 0.48435,-0.16579 0.85831,-0.446244 1.17969,-0.697265 0.64349,-0.50263 1.05123,-0.87397 1.69335,-0.84961 0.7318,0.02778 1.60904,0.697835 1.94727,1.425782 0.17069,0.367372 0.21173,0.72058 0.13672,0.998046 -0.0776,0.287098 -0.24191,0.533425 -0.7168,0.773438 -0.51123,0.258387 -1.08572,0.294195 -1.77148,0.261719 -0.68399,-0.0324 -1.46165,-0.143118 -2.28711,-0.03711 -1.00746,0.129384 -1.83125,0.561765 -2.56641,0.873047 -0.73743,0.312242 -1.36059,0.509954 -2.06054,0.398438 -0.22893,-0.03647 -0.66743,-0.20821 -1.16993,-0.427735 -0.50249,-0.219526 -1.08195,-0.482437 -1.67578,-0.695312 -0.59525,-0.21339 -1.22806,-0.382409 -1.88086,-0.359375 -0.66194,0.02336 -1.34741,0.280309 -1.85937,0.853515 -0.54785,0.613385 -0.66393,1.435326 -0.61328,2.240235 0.0506,0.804779 0.26871,1.653602 0.53711,2.490234 0.44648,1.391724 0.94745,2.580802 1.22265,3.404297 L 121.31836,97.021484 120.88477,95.5 c -0.0866,-0.304596 -0.36898,-0.517093 -0.68555,-0.517578 h -0.3125 c -0.39073,2.69e-4 -0.71453,0.326064 -0.71289,0.716796 v 1.140625 c -0.25677,-0.113932 -0.54478,-0.19679 -0.70899,-0.414062 -0.3317,-0.438876 -0.62124,-1.165223 -1.0664,-2 -0.12317,-0.232249 -0.36608,-0.378629 -0.62891,-0.378906 h -0.3125 c -0.39073,2.69e-4 -0.71453,0.326065 -0.71289,0.716797 v 2.458984 l -2.38281,0.199219 -0.56055,-6.154297 c -0.0323,-0.364488 -0.34313,-0.649778 -0.70898,-0.650391 h -0.3086 -0.002 c -0.39262,-7.6e-4 -0.7184,0.325965 -0.71484,0.71875 l 0.0391,6.558594 -0.92383,0.230469 -0.18359,-1.107422 c -0.056,-0.341691 -0.3568,-0.596898 -0.70313,-0.597656 h -0.3125 c -0.2683,3.74e-4 -0.51621,0.152852 -0.63672,0.392578 -0.31515,0.626721 -0.63381,0.917638 -1.03711,1.085937 -0.19808,0.08267 -0.58577,0.06184 -0.95507,0.04883 l 0.21875,-1.984375 c 0.0444,-0.414787 -0.28792,-0.787085 -0.70508,-0.789062 h -0.002 -0.3125 c -0.25282,4.07e-4 -0.48811,0.136906 -0.61523,0.355469 -0.58517,1.008659 -1.09156,1.437155 -1.74219,1.707031 -0.37483,0.155481 -1.01338,0.202131 -1.63867,0.261719 0.36244,-1.532453 0.97721,-3.070012 1.90625,-4.265625 0.34638,-0.445769 0.99858,-1.001178 1.49609,-1.708985 0.50931,-0.724584 0.81585,-1.759831 0.2793,-2.804687 -0.45875,-0.893333 -1.29031,-1.365114 -2.11523,-1.544922 -0.81828,-0.178361 -1.65391,-0.11202 -2.36328,0.0059 -1.521346,0.25278 -3.144686,0.802054 -4.712895,1.189453 -1.568209,0.387398 -3.071894,0.604449 -4.333985,0.251953 -0.01445,-0.004 -0.192321,-0.0854 -0.384765,-0.21289 -0.192444,-0.127495 -0.423668,-0.301704 -0.648438,-0.50586 -0.455452,-0.413684 -0.933543,-0.957216 -1.263672,-1.46875 -0.326421,-0.505787 -0.471096,-1.030066 -0.457031,-1.18164 0.0099,-0.106591 0.001,-0.08888 0.06445,-0.146485 0.04548,-0.0413 0.180236,-0.120754 0.449219,-0.169921 h 0.002 0.002 c 0.01823,0.0025 0.09589,0.0032 0.173828,0.01758 0.113367,0.02098 0.264779,0.0596 0.429688,0.117187 0.341281,0.119172 0.769447,0.307287 1.21289,0.511719 0.883699,0.407396 1.794697,0.890394 2.603516,1.027344 h 0.002 c 0.428039,0.07163 0.82938,-0.267186 0.830078,-0.701172 v -0.3125 c 9e-6,-0.217789 -0.100585,-0.423619 -0.271484,-0.558594 v -0.002 c -0.890102,-0.698096 -1.781567,-1.561485 -2.605469,-2.492188 0.771614,0.784813 1.97805,1.452126 3.191406,1.988282 0.772465,0.341335 1.522643,0.622861 2.111329,0.822265 0.294343,0.0997 0.548072,0.178774 0.746093,0.234375 0.19802,0.0556 0.304682,0.0894 0.449219,0.0957 0.400958,0.01724 0.744236,-0.309528 0.744141,-0.710937 v -0.3125 c 3.4e-5,-0.08818 -0.116229,-0.108316 -0.146485,-0.1875 l 2.519537,0.201172 c -0.0177,0.04152 -0.0344,0.07417 -0.0508,0.117187 -0.0713,0.187081 -0.13786,0.396327 -0.084,0.636719 0.0654,0.29142 0.23382,0.551495 0.48438,0.714844 0.24142,0.157405 0.51739,0.203818 0.76757,0.173828 0.49501,-0.05935 0.94039,-0.41163 1.11133,-0.935547 0.1253,-0.383897 -0.0577,-0.715316 -0.19531,-1.035156 l 1.04492,-0.833985 c 0.84123,0.410481 1.7284,0.316007 2.38281,-0.107421 0.71842,-0.464824 1.24513,-1.16319 1.68555,-1.742188 1.98152,-2.604937 3.62858,-6.066758 3.26172,-9.546875 -0.0343,-0.335294 -0.29997,-0.578018 -0.58203,-0.628906 -0.28206,-0.05089 -0.61633,0.08259 -0.76563,0.384766 l -0.26172,0.523437 c -1.08948,-2.377056 -1.91911,-5.235371 -4.29101,-7.175781 -0.18995,-0.155398 -0.40446,-0.205441 -0.60156,-0.333985 0.5918,0.27376 1.17119,0.536162 1.77734,0.789063 0.5109,0.212957 1.08038,-0.256298 0.9707,-0.798828 -0.39774,-1.965865 -2.18135,-3.903349 -4.11523,-4.853516 -0.48396,-0.237778 -0.98842,-0.416274 -1.5,-0.492187 -0.12909,-0.01916 -0.25596,-0.02971 -0.38281,-0.03516 v -0.002 c -0.38411,-0.0165 -0.77037,0.03049 -1.14063,0.160157 -0.995649,0.348684 -1.7409,1.299027 -2.050782,2.71875 l -0.04687,0.216796 c -0.08198,-0.03299 -0.09921,-0.156171 -0.191406,-0.15625 h -0.189453 c 0.09515,-0.250323 0.210949,-0.4836 0.236328,-0.787109 0.124152,-1.48425 -0.366283,-2.674594 -1.240234,-3.414062 -0.868548,-0.734898 -2.027555,-1.018585 -3.203125,-1.011719 -2.34707,0.01371 -4.940039,1.116575 -6.029297,3.101562 -0.498649,0.908707 -0.697799,1.715837 -0.552735,2.4375 0.147027,0.731424 0.662685,1.264809 1.263672,1.556641 0.325288,0.157956 0.710972,0.160924 1.076172,0.222656 L 88.125,65.673828 88.05664,64.101562 v -0.002 c -0.0061,-0.126408 -0.04443,-0.247781 -0.113281,-0.353515 l -2.060547,-3.171875 c -0.163707,-0.252453 -0.47667,-0.334661 -0.765625,-0.267579 l 0.253906,-4.605468 v -0.002 c 0.0015,-0.02801 0.0018,-0.05662 0,-0.08398 0.280229,0.303737 0.614551,0.555685 0.982422,0.744141 1.686055,0.863744 4.119437,0.403643 5.541016,-1.88086 0.647406,-1.040392 0.823532,-2.399618 0.734375,-3.722656 -0.08917,-1.323245 -0.447261,-2.627792 -1.105469,-3.585937 -0.487296,-0.709364 -1.101417,-1.161612 -1.447265,-1.554688 -0.3624,-0.411887 -0.502453,-0.608321 -0.371094,-1.251953 0.03915,-0.19182 0.09394,-0.257667 0.25,-0.359375 0.142971,-0.09318 0.387905,-0.173533 0.664062,-0.191406 0.545206,-0.03529 1.25352,0.226135 1.460938,0.429687 0.188182,0.184674 0.341139,0.688421 0.357422,1.326172 0.0164,0.64197 -0.07031,1.367998 -0.07031,1.986328 2.72e-4,0.389428 0.323464,0.71262 0.712891,0.712891 h 0.623047 c 0.26209,4.03e-4 0.504799,-0.144167 0.628906,-0.375 l 1.771484,-3.292969 2.041016,1.669922 -1.582031,0.621094 c -0.364821,0.142395 -0.547235,0.563893 -0.402344,0.927734 0.234478,0.585418 0.187997,0.866114 0.173828,0.902344 l -0.002,0.002 c -0.02394,0.03011 -0.243596,0.211695 -0.869141,0.310547 -0.395796,0.06276 -0.666787,0.450857 -0.58789,0.84375 l 0.3125,1.558594 c 0.06839,0.345238 0.384868,0.590737 0.736328,0.572265 h 0.002 c 1.349221,-0.07386 2.38203,0.402346 3.486328,1.119141 1.102088,0.715365 2.226238,1.678524 3.636718,2.388672 2.6957,1.357209 5.62432,1.61804 8.19726,2.515625 l -0.10937,2.28125 c -1.19518,0.786243 -1.94341,1.954209 -1.90625,3.185547 0.0328,1.087375 0.78638,1.984472 1.83594,2.591797 v 3.726562 c 7.9e-4,0.554728 0.65744,0.901174 1.11523,0.587891 1.10394,-0.750652 1.64005,-1.883812 1.70703,-3.021485 0.0463,-0.785457 -0.18055,-1.534977 -0.46875,-2.24414 l 0.26953,-3.785157 c 0.76071,-0.533182 1.39897,-1.115056 1.60742,-1.90625 0.27045,-1.02651 -0.1964,-2.104787 -0.93359,-3.28125 1.86003,-0.697547 4.40526,-1.4266 6.85938,-2.519531 2.72587,-1.213949 5.27846,-2.853637 5.90625,-5.49414 0.1212,-0.512771 -0.3728,-0.991174 -0.88086,-0.851563 l -1.32618,0.361328 c 0.12868,-0.07227 0.23344,-0.183526 0.29493,-0.324219 l 1.1914,-2.724609 2.27539,2.880859 v 0.002 c 0.225,0.282189 0.61203,0.326875 0.88086,0.189453 0.26884,-0.137422 0.46024,-0.47853 0.36328,-0.826172 l -1.02343,-3.589844 3.25195,-0.501953 c 0.34448,-0.0529 0.60416,-0.352666 0.60547,-0.701172 v -0.002 -0.625 c -2.7e-4,-0.38943 -0.32346,-0.712619 -0.71289,-0.712891 -1.68104,0 -2.77155,-0.09008 -3.22266,-0.376953 -0.241,-0.153264 -0.3839,-0.325616 -0.52148,-0.738281 -0.13508,-0.405186 -0.22044,-1.033422 -0.22071,-1.910156 v -0.002 c 7.5e-4,-0.390015 -0.32269,-0.714575 -0.71289,-0.714844 h -0.93554 v 0.28125 l -0.26563,-0.08789 -0.83594,2.50586 -4.06054,-0.814454 c -0.43378,-0.08592 -0.85107,0.257017 -0.85157,0.699219 v 0.3125 c 8e-5,0.243053 0.12494,0.471036 0.33008,0.601563 h 0.002 c 1.67309,1.058706 2.28906,1.768753 2.57617,2.630859 0.18863,0.566395 0.15667,1.634275 0.14258,2.746094 -0.5926,0.31992 -1.10045,0.552752 -1.40039,0.630859 -0.14461,0.03765 -0.2338,0.04183 -0.28125,0.04102 -0.0151,-0.06565 -0.0293,-0.182896 -0.0195,-0.361328 0.0204,-0.372552 0.13934,-0.967716 0.35938,-1.726563 h 0.002 c 0.0822,-0.286512 -0.0303,-0.577873 -0.23047,-0.74414 -0.20022,-0.166268 -0.50689,-0.223227 -0.77343,-0.08984 l -1.53711,0.767578 -0.24024,-3.609375 c -0.0387,-0.557413 -0.72647,-0.85623 -1.16015,-0.503906 -0.51497,0.416639 -0.81869,0.48576 -1.11329,0.470703 -0.28316,-0.01447 -0.61209,-0.155138 -1.01171,-0.384766 -0.113,-0.06493 -0.2836,-0.140531 -0.40821,-0.214844 0.16417,-0.04667 0.36056,-0.0299 0.45117,-0.162109 0.1574,-0.229668 0.1763,-0.573103 -0.0195,-0.832031 h 0.002 l -2.19727,-2.929688 3.08399,-0.949218 c 0.35156,-0.107011 0.53562,-0.461668 0.5,-0.765625 -0.0356,-0.303958 -0.29728,-0.604141 -0.66407,-0.626953 l -4.49609,-0.28125 c -0.19611,-0.605448 -0.53511,-1.1852 -0.93555,-1.75586 0.0701,-0.01162 0.15503,-0.02114 0.21289,-0.02734 z m -2.98828,0.425782 c -0.31703,0.370257 -0.60217,0.858828 -1.00781,0.984375 -0.82867,0.256478 -2.04142,0.214434 -3.60742,0.21875 h -0.002 c -0.38817,0.0021 -0.70872,0.324753 -0.70898,0.71289 v 0.3125 c 6.9e-4,0.289843 0.18008,0.552573 0.44922,0.660157 l 2.43945,0.976562 -1.625,3.792969 0.0254,0.101562 c 0.0287,0.113266 0.1611,0.138591 0.23633,0.222656 l -1.66016,2.494141 -0.0742,-0.146484 c -0.25644,-0.513472 -1.036,-0.505228 -1.28125,0.01367 l -1.31446,2.779296 -0.72656,0.283204 -1.72461,-2.958985 2.13867,-2.447265 v -0.002 c 0.23909,-0.272737 0.2144,-0.666222 0.0293,-0.90625 -0.18511,-0.240041 -0.558255,-0.36312 -0.882813,-0.201171 h -0.002 l -2.359375,1.179687 -0.691406,-2.302734 c -0.0892,-0.301776 -0.368907,-0.512131 -0.683594,-0.511719 h -0.310546 c -0.320726,2.2e-4 -0.604415,0.219518 -0.6875,0.529297 l -0.810547,2.966797 -2.753907,0.34375 c 1.977388,-2.685513 5.008971,-5.011751 8.582032,-6.640625 2.966326,-1.35228 6.075586,-2.066755 9.013666,-2.455078 z m 1.96289,5.691406 c 0.35949,0.0089 0.75709,0.104621 1.23047,0.306641 0.44595,0.538489 1.08154,0.970866 1.82031,1.335937 -0.3586,-0.02242 -0.67292,-0.154059 -1.07226,-0.0293 -0.27363,0.08549 -0.45458,0.267458 -0.66016,0.425781 -0.0403,-0.110348 -0.087,-0.243989 -0.20117,-0.373047 -0.53122,-0.600208 -1.12648,-1.097295 -1.56055,-1.562499 l -0.0293,-0.0332 c 0.0418,-0.0082 0.0826,-0.04498 0.125,-0.05078 0.11302,-0.01545 0.22782,-0.02251 0.34765,-0.01953 z m -1.96875,0.757812 c -0.33935,0.535351 -0.6887,1.11111 -0.92773,1.238282 -0.11361,0.06044 -0.52283,-0.05954 -0.79297,-0.08984 0.61094,-0.412224 1.21028,-0.820117 1.7207,-1.148438 z m -0.77344,5.722657 c -0.52651,1.453338 -0.8958,2.859139 -0.5957,4.138671 0.20209,0.861659 0.6923,1.648166 1.48242,2.251954 0.78741,0.601722 1.84782,1.033063 3.23047,1.322265 l 0.0293,0.0059 0.0195,0.06836 0.29883,-0.08789 c 2.09047,-0.612215 3.39909,-1.998671 3.78906,-3.667968 0.21189,-0.906984 0.0375,-1.849788 -0.25781,-2.789063 0.62063,0.513964 1.25232,0.992929 1.80469,1.695313 0.79778,1.014468 1.8479,1.909263 3.16992,2.517578 l -8.82227,4.445312 c -2.98574,-0.09511 -6.47652,-1.247151 -9.23828,-2.552734 -0.45275,-0.214022 -1.033,-0.44049 -1.5332,-0.705078 -0.49329,-0.26094 -0.88916,-0.613322 -0.96289,-0.761719 -0.018,-0.03612 -0.0293,-0.05461 -0.0332,-0.06641 v -0.002 c -1.2e-4,-9.16e-4 -0.002,-0.0049 -0.002,-0.0059 7e-5,-9.25e-4 0.002,-0.0049 0.002,-0.0059 0.004,-0.01417 0.0166,-0.03487 0.0391,-0.08789 v -0.002 c 0.04,-0.095 0.17295,-0.280831 0.35742,-0.457031 0.37278,-0.35608 0.93435,-0.703738 1.31836,-0.990235 1.0992,-0.820091 2.3023,-2.018745 3.54297,-3.007812 0.80776,-0.643949 1.59373,-0.977707 2.36132,-1.255859 z m 3.9961,2.060546 c 0.0424,0.196162 0.13672,0.532017 0.13672,0.589844 0,0.357913 -0.1374,0.68833 -0.24024,1.021485 -0.0224,-0.084 -0.10924,-0.08973 -0.11718,-0.230469 -0.0187,-0.331306 0.0958,-0.856381 0.2207,-1.38086 z m 12.37695,1.302735 h 0.33985 l -0.37696,0.103515 z M 86.574218,49.49414 c 0.234684,-0.0156 0.490337,-0.001 0.773438,0.04687 1.819782,0.307867 2.461289,1.162307 2.496094,1.867188 0.01533,0.310549 -0.149263,0.653569 -0.464844,0.982422 -0.05513,-0.918284 -0.589924,-1.723286 -1.353516,-2.121094 -0.410584,-0.2139 -0.903119,-0.317235 -1.402343,-0.207031 -0.503392,0.111122 -0.965695,0.439831 -1.298829,0.935547 -0.742123,1.104307 -0.956525,2.234023 -0.71875,3.203125 0.07,0.285304 0.178068,0.552857 0.316407,0.798828 -0.08094,-0.03252 -0.169655,-0.05085 -0.261719,-0.05078 h -0.623047 c -0.343101,-1.1e-4 -0.640722,0.250157 -0.701172,0.58789 l -0.896484,5.083985 c -0.02066,-2.417977 0.111134,-4.788732 0.99414,-7.546875 0.32655,-1.020011 0.810192,-2.050588 1.44336,-2.712891 0.480254,-0.502352 0.993216,-0.820401 1.697265,-0.867188 z m 6.324219,10.832032 c 0.166547,-0.0087 0.331945,-0.0082 0.492188,0.002 0.64158,0.04071 1.207517,0.245198 1.533203,0.52539 0.339303,0.291908 0.49906,0.593327 0.412109,1.244141 -0.03238,0.242384 -0.377927,0.6529 -0.949219,1.060547 -0.190559,0.135975 -0.378347,0.283524 -0.568359,0.425781 0.118673,-0.411447 0.276243,-0.805072 0.279297,-1.25 0.0037,-0.527423 -0.163737,-1.138325 -0.691406,-1.501953 -0.45254,-0.311856 -1.074283,-0.310636 -1.763672,-0.230469 0.391111,-0.140581 0.819611,-0.252589 1.255859,-0.27539 z m 39.097653,0.404297 c -0.003,0.03157 -0.037,0.04947 -0.0352,0.08203 0.0563,1.027371 0.41755,1.812623 0.91992,2.40625 h -0.002 l -0.002,-0.002 c -0.64628,-0.542349 -1.12876,-1.158904 -1.26758,-1.566407 -0.0722,-0.212086 -0.0728,-0.347075 -0.0332,-0.472656 0.0402,-0.127376 0.12283,-0.263676 0.3711,-0.439453 l 0.002,-0.002 c 0.002,-10e-4 0.008,-0.0015 0.01,-0.002 0.001,-1.13e-4 0.005,2.6e-5 0.006,0 0.006,2.24e-4 0.0154,5.11e-4 0.0215,0 0.001,-1.89e-4 0.005,-0.0016 0.006,-0.002 9.9e-4,-4.69e-4 0.003,-0.0013 0.004,-0.002 z m -40.916012,0.224609 c -0.08998,0.120451 -0.272039,0.163857 -0.271485,0.322266 v 0.308593 c -1.17e-4,0.301752 0.220168,0.54215 0.5,0.642578 -0.216509,0.117077 -0.423262,0.351148 -0.623046,0.314454 -0.24983,-0.04589 -0.403745,-0.164099 -0.462891,-0.269532 -0.06872,-0.122492 -0.11543,-0.26887 0.08398,-0.683593 0.114564,-0.23826 0.467196,-0.432407 0.773438,-0.634766 z m 7.955078,1.757812 0.294922,0.06445 0.0098,0.185546 c -0.04328,-0.137983 -0.195337,-0.162846 -0.304687,-0.25 z m 1.105464,0.511719 c 1.10024,0.02785 2.18826,0.356081 3.28516,0.796875 -0.53816,-0.125899 -1.07871,-0.247746 -1.62109,-0.230469 -0.74381,0.0237 -1.45637,0.239056 -2.160159,0.476563 l -0.205078,-1.021484 0.228515,-0.01367 c 0.157721,-0.0088 0.315481,-0.01179 0.472652,-0.0078 z m -3.191402,1.921875 c 0.09228,0.103099 0.218399,0.16186 0.357422,0.197266 -0.778957,0.473207 -1.496465,1.03782 -2.171875,1.640625 0.44383,-0.409302 0.861689,-0.815302 1.345703,-1.28125 0.186259,-0.179307 0.31855,-0.367323 0.46875,-0.556641 z m -3.097656,3.03711 c -0.241726,0.261547 -0.389864,0.524644 -0.607422,0.791015 0.06964,-0.110487 0.103268,-0.29052 0.185547,-0.392578 0.103056,-0.127827 0.302588,-0.271043 0.421875,-0.398437 z m -10.21875,3.728515 c 0.03665,0.006 0.05203,0.05454 0.08984,0.05469 h 0.002 0.625 l 0.09766,2.121093 C 84.253234,73.686844 84.05111,73.322798 83.87114,72.873049 83.729046,72.517954 83.716015,72.236685 83.632859,71.912111 Z m 56.429688,0.08203 c 0.10902,0.134306 0.159,0.309653 0.33594,0.337891 l -0.60547,1.736328 -0.0937,-1.980469 h 0.17187 l 0.0254,-0.0059 c 0.0633,-0.01091 0.10859,-0.06091 0.16602,-0.08789 z M 91.199218,72.75 c -0.0057,0.03902 -0.03154,0.08885 -0.03711,0.126953 -0.08293,0.566994 -0.166327,1.044228 -0.365234,1.404297 -0.296635,0.53698 -0.944207,1.175038 -1.509766,1.853515 0.03008,-0.218052 -0.0501,-0.42377 0.0078,-0.644531 0.142264,-0.542206 0.537123,-1.071278 1.039062,-1.638672 0.283624,-0.320608 0.566951,-0.732798 0.865234,-1.101562 z m -1.93164,5.263672 c 0.582256,0.386092 0.84117,0.761222 1.035156,1.324218 0.210993,0.612352 0.391669,1.483769 0.886719,2.416016 -0.263916,-0.334011 -0.577751,-0.639574 -0.800781,-0.990234 -0.562507,-0.884407 -0.933422,-1.804956 -1.121094,-2.75 z m 22.525392,0.105468 -0.17774,0.201172 -0.0664,0.22461 h -0.48242 v 0.703125 c -1.50423,2.784635 -2.67509,5.636716 -3.66993,8.617187 -0.11686,0.350094 -0.41558,1.088145 -0.52734,1.855469 -0.0555,0.381187 -0.075,0.797195 0.0527,1.21289 0.13328,0.433984 0.4578,0.841904 0.94532,1.041016 0.47526,0.194108 0.96992,0.14444 1.38672,-0.0059 0.41115,-0.148148 0.77247,-0.388253 1.0957,-0.652344 0.6476,-0.529099 1.1692,-1.18115 1.46875,-1.574219 0.13018,-0.170813 0.14678,-0.302565 0.19531,-0.460937 l 4.32813,3.24414 c 0.41286,0.310178 1.03573,0.06652 1.1289,-0.441406 0.33864,-1.852697 -0.0821,-4.874252 -0.99609,-7.707031 -0.45728,-1.417336 -1.04616,-2.774636 -1.77344,-3.878906 -0.72662,-1.103256 -1.60531,-1.992597 -2.71875,-2.322266 z m -7.35938,5.365235 c 0.0276,0.0029 0.0546,0.0057 0.082,0.01953 h -0.0137 z m 25.6543,13.853515 v 1.164063 c -7.5e-4,0.351956 0.26047,0.627108 0.54883,0.695312 0.28886,0.06832 0.64623,-0.06071 0.80273,-0.376953 l 0.66797,-1.333984 c -0.83964,5.898522 -3.35458,11.712892 -6.91406,16.162112 -0.62559,0.78196 -1.50425,1.98722 -2.50977,2.9414 -1.00446,0.95318 -2.08632,1.57818 -3.02734,1.47266 0,0 -10.25144,0.66448 -11.65432,0.73818 -1.36643,0.0718 -2.64332,0.0638 -3.33203,-0.0742 -1.78306,-0.92648 -2.80743,-2.72208 -3.68164,-4.69531 0.18877,0.19213 0.36004,0.40123 0.61328,0.53125 0.53586,0.27512 1.10864,0.166 1.61524,0.004 0.51471,-0.16485 1.04058,-0.43208 1.54492,-0.73829 0.23297,-0.14146 1.74808,-1.35537 2.00781,-1.63085 0.85907,0.23266 1.88974,0.40087 2.96484,0.25585 0.91597,-0.12356 1.71225,-0.55592 2.3086,-1.1914 0.2913,0.32339 0.58869,0.64922 0.99805,0.82422 0.44485,0.19016 0.97199,0.24213 1.47656,0.0625 0.39192,-0.13947 0.65886,-0.45902 0.91992,-0.77149 h 0.084 0.0801 c 0.17853,0.19919 0.35725,0.41544 0.64258,0.5293 0.39027,0.15574 0.79635,0.14851 1.15039,0.0508 h 0.002 c 0.42137,-0.11645 0.71361,-0.38523 1.01368,-0.62695 0.0821,0.16687 0.1409,0.33568 0.29882,0.48633 0.32687,0.31181 0.73989,0.48104 1.1543,0.50781 0.53407,0.0345 0.98402,-0.23149 1.43164,-0.45899 0.0593,0.25275 0.1035,0.51304 0.23047,0.73829 0.23035,0.40868 0.56494,0.72861 0.98438,0.86914 0.81454,0.2729 1.58598,-0.15374 2.20507,-0.65625 1.2418,-1.00797 2.33556,-2.69316 2.82618,-3.7168 0.42868,-0.89446 0.4874,-1.90743 0.51367,-2.87109 0.0263,-0.96452 0.0155,-1.90576 0.15039,-2.59766 0.38459,-1.97264 1.16453,-4.156536 1.88281,-6.29297 z m -7.55469,2.576172 c 0.0793,6.29e-4 0.15619,0.01094 0.35547,0.212888 0.33953,0.34409 0.43407,0.62302 0.44141,0.91407 0.007,0.28479 -0.0955,0.59767 -0.3086,0.90429 -0.28883,0.41555 -0.82947,0.66063 -1.33007,0.84571 -0.0834,-0.42459 -0.17888,-0.86019 -0.19336,-1.20118 -0.006,-0.14515 0.048,-0.42971 0.1582,-0.70507 0.1102,-0.27537 0.2737,-0.54872 0.43555,-0.7168 0.16805,-0.174531 0.32641,-0.244564 0.40234,-0.251955 0.0196,-0.0019 0.0344,-0.002 0.0391,-0.002 z m -3.58984,0.425778 c 0.0177,0.0265 0.0536,0.0668 0.10742,0.1836 0.0701,0.15198 0.14194,0.35854 0.19531,0.58984 0.16941,0.7341 0.17497,1.51471 0.1836,2.07031 l -1.04102,0.12891 c -0.026,-0.4495 -0.0616,-0.90553 -0.0508,-1.36719 0.0168,-0.71758 0.20445,-1.29819 0.38281,-1.45703 0.1396,-0.12433 0.19743,-0.13701 0.22266,-0.14844 z m -3.76758,0.15039 c 0.49672,0.0208 0.82173,0.21569 1.08008,0.53516 0.25379,0.31383 0.40483,0.76408 0.40625,1.18945 0.002,0.42679 -0.13783,0.81461 -0.39258,1.07618 -0.25962,0.26655 -0.63387,0.45169 -1.33008,0.4121 -0.51237,-0.0291 -0.70278,-0.18604 -0.87695,-0.46875 -0.16398,-0.26619 -0.24603,-0.69897 -0.18945,-1.14453 0.0566,-0.44562 0.25051,-0.90204 0.49414,-1.1914 0.25012,-0.29711 0.48694,-0.42168 0.80859,-0.40821 z m -12.58008,0.32227 h 0.002 c 0.25812,-0.008 0.57592,0.0943 0.7539,0.25 0.22656,0.19823 0.33841,0.37618 0.21094,0.89062 -0.0897,0.36191 -0.30425,0.79851 -0.50391,1.23243 -0.12216,-0.0778 -0.2708,-0.13955 -0.36132,-0.26953 -0.64661,-0.92841 -0.70765,-1.52337 -0.65625,-1.74415 0.0291,-0.12493 0.0729,-0.1838 0.13671,-0.23437 0.0638,-0.0506 0.1634,-0.0927 0.3125,-0.11523 0.0359,-0.005 0.0719,-0.008 0.10547,-0.01 z m 9.04102,0.0977 0.36328,1.16796 -0.23828,1.6211 -1.60938,0.13281 0.41211,-2.4043 z m -4.62305,0.10937 c 0.28262,-0.0124 0.42396,0.0657 0.60352,0.24219 0.22001,0.21628 0.42238,0.65687 0.49023,1.1543 0.068,0.49866 0.008,1.0576 -0.13476,1.4414 -0.14501,0.38907 -0.33221,0.54475 -0.46875,0.57617 -0.5345,0.12298 -0.87938,0.0148 -1.19922,-0.22851 -0.31175,-0.23678 -0.56432,-0.63986 -0.67383,-1.08399 -0.10956,-0.44428 -0.0743,-0.9206 0.0918,-1.27734 0.1703,-0.36583 0.42632,-0.62582 0.95507,-0.76758 0.13015,-0.0349 0.2415,-0.0525 0.33594,-0.0566 z m 8.00977,5.60742 -0.21094,2.09375 c -0.013,0.12625 0.1444,0.16514 0.19336,0.27539 -0.48215,0.22874 -0.90439,0.41076 -1.2832,0.42774 -0.45779,0.0205 -0.95786,-0.097 -1.69141,-0.36328 0.0604,-0.0227 0.12308,0.0314 0.17773,-0.01 v -0.002 c 0.98227,-0.74346 1.40989,-1.55095 1.78321,-1.98047 0.21549,-0.24794 0.61794,-0.33787 1.03125,-0.44141 z m 3.21484,0.65821 v 1.44921 c -0.12299,0.017 -0.24666,0.0423 -0.3457,0.11915 -0.49845,0.38571 -0.85225,0.53738 -0.9043,0.54101 -0.0518,0.004 -0.0818,0.004 -0.17773,-0.0527 -0.0893,-0.0529 -0.23421,-0.18244 -0.41797,-0.37891 z m -7.02344,0.14257 -0.13867,0.94922 c -0.0444,0.30148 0.11223,0.5794 0.33985,0.71485 0.008,0.005 0.0152,0.01 0.0234,0.0137 -0.0707,0.0373 -0.13319,0.0853 -0.18554,0.14258 -0.078,0.0853 -0.0218,0.22467 -0.0508,0.34179 -0.38984,0.0556 -0.50471,-0.043 -0.82812,-0.0273 0.23411,-0.8067 0.42367,-1.54253 0.70117,-2.00391 0.0323,-0.0537 0.10166,-0.0816 0.13867,-0.13086 z m 9.22657,0.23047 c 0.0256,0.12582 0.16187,0.22225 0.14453,0.37696 -0.043,0.38395 -0.26645,0.95149 -0.47071,1.50586 l -0.22656,-0.1504 0.002,-0.002 0.002,-0.002 0.002,-0.002 0.002,-0.002 c 0.006,-0.004 0.0155,-0.008 0.0215,-0.0117 l 0.002,-0.002 0.002,-0.002 0.002,-0.002 0.0137,-0.0273 z m -12.96875,0.0215 c 0.0818,0.0703 0.24092,0.0939 0.30078,0.1914 0.19598,0.31917 0.42228,0.97128 0.69922,1.62696 h -0.002 l -0.002,-0.002 c -0.0258,-0.007 -0.0948,0.008 -0.11914,0 l -0.002,-0.002 c -0.39479,-0.23993 -0.67266,-0.89463 -0.875,-1.81445 z m -2.82227,0.77539 c 0.0614,0.0691 0.18661,0.0999 0.23242,0.18554 0.13036,0.24366 0.23487,0.72831 0.34375,1.1875 h -0.32617 z m 6.51563,1.38281 c 0.005,0.0365 -0.0248,0.0642 -0.0176,0.0996 -7.5e-4,1.1e-4 -0.001,0.002 -0.002,0.002 l -0.0371,-0.0351 v -0.002 z"
       inkscape:label="znak"
       sodipodi:nodetypes="cccsscsscssssscccsccssssssccscccccccccccccssssscscccsssccscccsscssssssssssccssscccscscccccccccscccsscscccccsssssssssssssscscccccccscccccccccscccccccsccscccscsssscscsssssccccsscccscccssscccccscsscccsccsccscccssccscccccsssssccccccccccsssssssssscccccccccccccccssccsccccccscscccccccscccscccssssccccccccccscscccccccccsscsccccsccccccsscccccccccccccccscccccccccscsccsccccsscscccssccccscsccsssccccccsssccscscscccssscscsscccccsssscsssccscsccccccccccccccccccssscccccscscccscccscccsccscccsccccccccccscccccscsccscccsscscsscccssccccccccccccccccccccccscscsccccccscssssssccscsccssscccsccsscsscscssscccssccscccccccccccscscssscccsscccsscccccccccscsccsccccccccccccccccscccccccccccccccccccssccccccscsccccccccc" /></g></svg>
