<?xml version="1.0" encoding="UTF-8" standalone="no"?>
<!-- Created with Inkscape (http://www.inkscape.org/) -->

<svg
   width="198mm"
   height="10mm"
   viewBox="0 0 198 10"
   version="1.1"
   id="svg1"
   inkscape:version="1.4.2 (f4327f4, 2025-05-13)"
   sodipodi:docname="EmpatRowSetList.svg"
   xml:space="preserve"
   xmlns:inkscape="http://www.inkscape.org/namespaces/inkscape"
   xmlns:sodipodi="http://sodipodi.sourceforge.net/DTD/sodipodi-0.dtd"
   xmlns="http://www.w3.org/2000/svg"
   xmlns:svg="http://www.w3.org/2000/svg"><sodipodi:namedview
     id="namedview1"
     pagecolor="#ffffff"
     bordercolor="#000000"
     borderopacity="0.25"
     inkscape:showpageshadow="2"
     inkscape:pageopacity="0.0"
     inkscape:pagecheckerboard="0"
     inkscape:deskcolor="#d1d1d1"
     inkscape:document-units="mm"
     inkscape:zoom="1"
     inkscape:cx="242.5"
     inkscape:cy="79.5"
     inkscape:window-width="1920"
     inkscape:window-height="1057"
     inkscape:window-x="-8"
     inkscape:window-y="-8"
     inkscape:window-maximized="1"
     inkscape:current-layer="svg1"
     showgrid="true"><inkscape:grid
       id="grid1"
       units="mm"
       originx="0"
       originy="0"
       spacingx="0.99999995"
       spacingy="0.99999997"
       empcolor="#0099e5"
       empopacity="0.30196078"
       color="#0099e5"
       opacity="0.14901961"
       empspacing="5"
       enabled="true"
       visible="true" /></sodipodi:namedview><defs
     id="defs1" /><g
     id="g5"
     inkscape:label="Row"
     style="display:inline;stroke:#000000;stroke-width:1.00177;stroke-dasharray:none;stroke-opacity:1"
     transform="matrix(0.2647424,0,0,0.26432057,-6.0036072,-15.984109)"><rect
       style="display:inline;opacity:1;fill:#fa0000;fill-opacity:0.307692;stroke:#000000;stroke-width:1.00177;stroke-dasharray:none;stroke-opacity:1"
       id="rect4"
       width="611.91559"
       height="37.832848"
       x="158.65842"
       y="60.472439"
       inkscape:label="Popis" /><rect
       style="display:inline;fill:#fa0000;fill-opacity:0.307692;stroke:#000000;stroke-width:1.00177;stroke-dasharray:none;stroke-opacity:1"
       id="rect4-42"
       width="98.208679"
       height="37.832848"
       x="60.449734"
       y="60.472439"
       inkscape:label="Jmeno" /><rect
       style="display:inline;opacity:1;fill:#fa0000;fill-opacity:0.307692;stroke:#000000;stroke-width:1.00177;stroke-dasharray:none;stroke-opacity:1"
       id="rect5"
       width="37.772568"
       height="37.832848"
       x="22.677166"
       y="60.472439"
       inkscape:label="Logo" /></g><g
     inkscape:label="Layer 1"
     inkscape:groupmode="layer"
     id="layer1"
     transform="translate(-5.9999979,-28.039034)"
     style="display:inline"><text
       xml:space="preserve"
       style="font-size:3.80938px;font-family:'New Rocker';-inkscape-font-specification:'New Rocker';text-align:start;letter-spacing:0px;writing-mode:lr-tb;direction:ltr;text-anchor:start;fill:#000000;fill-opacity:1;stroke:none;stroke-width:0.0504741"
       x="18.035286"
       y="34.122803"
       id="text1"
       inkscape:label="Role"><tspan
         id="tspan1"
         style="letter-spacing:0px;fill:#000000;fill-opacity:1;stroke:none;stroke-width:0.0504743"
         x="18.035286"
         y="34.122803"
         sodipodi:role="line">Empat</tspan></text><text
       xml:space="preserve"
       style="font-size:3.0929px;font-family:'New Rocker';-inkscape-font-specification:'New Rocker';text-align:start;letter-spacing:0px;writing-mode:lr-tb;direction:ltr;text-anchor:start;fill:#000000;fill-opacity:1;stroke:none;stroke-width:0.040981"
       x="42.755661"
       y="33.891289"
       id="text2"
       inkscape:label="Popis"><tspan
         sodipodi:role="line"
         id="tspan2"
         style="font-style:normal;font-variant:normal;font-weight:normal;font-stretch:normal;font-family:'Didact Gothic';-inkscape-font-specification:'Didact Gothic';letter-spacing:0px;stroke-width:0.0409811"
         x="42.755661"
         y="33.891289">Každou noc se dozvíš, kolik ze tvých dvou žijících sousedů je zlých.</tspan></text></g><path
     style="fill:#000000;stroke-width:0.035937"
     d="M 4.8994431,9.2458719 C 4.7183146,8.5809746 4.3394819,8.1510918 3.8087263,8.0081741 3.5859672,7.9481867 3.4300838,7.7905661 3.1888982,7.3814218 2.9881568,7.0408855 2.4339412,6.3807069 2.3868438,6.4260192 c -0.02068,0.019893 0.268421,0.618307 0.3408929,0.7056294 0.022633,0.027265 0.033699,0.057028 0.024595,0.066133 -0.00906,0.00906 -0.09539,-0.092362 -0.1917295,-0.2254744 C 2.4642556,6.8391898 2.247042,6.5699988 2.077904,6.3741046 1.6501569,5.8787028 1.3958543,5.5611335 1.3368556,5.4487035 1.3092483,5.3960946 1.2486808,5.3231754 1.202261,5.2866609 0.85955221,5.0170865 0.46592701,4.4034364 0.36480819,3.9810964 0.30429587,3.7283566 0.30425802,3.729537 0.37296657,3.729537 c 0.0517642,0 0.0510221,-0.010688 -0.006863,-0.098827 C 0.31070003,3.5463475 0.30237731,3.4635277 0.30922575,3.0647015 0.33039963,1.831565 0.44067405,1.6406115 1.3955853,1.1835302 1.6440536,1.0645975 1.8696148,0.94045695 1.8968322,0.90766313 2.0025562,0.78027269 1.600626,0.89210347 1.1145237,1.125323 0.85263275,1.2509727 0.63835817,1.3471746 0.63835817,1.3391049 c 0,-0.029037 0.41866063,-0.2934001 0.67372043,-0.42541614 0.4045047,-0.2093683 0.5866702,-0.25450545 1.0040784,-0.24879449 0.201353,0.002739 0.4600995,0.0296191 0.574992,0.0596995 0.1148924,0.0300814 0.2890938,0.0650428 0.3871146,0.0776957 0.1583409,0.0204397 0.2024319,0.0476901 0.3953068,0.24430893 0.3139734,0.3200686 0.9365618,0.8142131 1.0258535,0.8142131 0.1339116,0 0.215812,-0.070836 0.3035089,-0.2625178 C 5.0551901,1.4840796 5.2046574,1.2906667 5.3879297,1.1001108 5.6744266,0.80222644 5.7000661,0.78472024 5.9750068,0.69926248 6.2243826,0.62175009 6.3361152,0.6092426 6.8176886,0.60492833 c 0.3090095,-0.002779 0.5743704,-0.020893 0.598451,-0.0408785 0.02826,-0.023458 0.047585,-0.0236244 0.055744,-4.7087e-4 0.00687,0.0194844 0.1095092,0.0387338 0.2281013,0.0427751 0.4175646,0.0142268 1.0220283,0.30835071 1.32969,0.64700334 0.079073,0.087042 0.2076577,0.2593013 0.2857458,0.3828093 C 9.4040667,1.776366 9.4700938,1.848032 9.4911911,1.8269349 9.5333471,1.7847789 9.4583981,1.3840545 9.379986,1.2323807 9.328715,1.1332153 9.328865,1.128133 9.381686,1.1719451 c 0.086893,0.07208 0.1970289,0.326183 0.224595,0.5181794 0.013478,0.093886 0.038849,0.170701 0.056361,0.170701 0.045315,0 0.040214,0.5662169 -0.00518,0.5813663 C 9.636464,2.4491618 9.60637,2.6727276 9.588121,2.957289 9.5539773,3.4894412 9.52236,3.6077264 9.2567671,4.1967321 9.0536747,4.6471343 8.9841036,4.7601788 8.7653897,4.9951565 8.649805,5.1193359 8.5142717,5.285624 8.4642038,5.3646854 8.414138,5.4437487 8.2031762,5.7105789 7.9954021,5.9576457 7.7876289,6.2047135 7.6220082,6.4115603 7.6273574,6.417307 7.6496809,6.441284 8.328283,6.0143339 8.5355771,5.8459011 8.6591109,5.7455273 8.7601839,5.6810912 8.7601839,5.7027134 c 0,0.021616 -0.015699,0.039307 -0.034905,0.039307 -0.019196,0 -0.140788,0.1279876 -0.2702061,0.2844179 C 8.1669089,6.37475 7.5784601,6.8303093 7.1250456,7.0561075 6.9471574,7.1446939 6.6861687,7.3016861 6.5450719,7.4049764 6.4039741,7.5082669 6.1694855,7.6655499 6.0239848,7.7544939 5.690044,7.9586323 5.4778967,8.1507681 5.313571,8.3979006 5.0418917,8.806482 5.0156006,8.8712508 4.9912331,9.1919749 l -0.02321,0.3054653 z M 4.9312099,7.499207 C 4.9684954,7.3042073 4.9734063,7.1663849 4.9496285,6.9818386 4.9317977,6.8434812 4.9166862,6.7115169 4.9160388,6.6885849 4.9153963,6.6656538 4.8461299,6.5625009 4.7621307,6.4593579 4.6781265,6.3562139 4.5723906,6.221345 4.527158,6.1596503 L 4.444917,6.0474753 4.46724,6.2091921 c 0.012272,0.088945 0.036738,0.2073967 0.054349,0.2632272 0.018827,0.059668 0.018777,0.096705 -1.494e-4,0.089841 C 4.5037488,6.5558856 4.3525851,6.4259096 4.185523,6.2735167 3.8735538,5.9889423 3.5559317,5.5523914 3.1712576,4.8794702 3.07523,4.7114927 2.8784203,4.3953488 2.7338948,4.1769289 2.5893853,3.958509 2.4711379,3.753274 2.4711379,3.7208527 c 0,-0.032424 -0.018638,-0.070466 -0.041409,-0.084543 -0.057218,-0.035363 -0.019345,0.2337215 0.053432,0.3796038 L 2.5385462,4.1269283 2.3925474,4.0450257 C 2.0582811,3.8575137 1.788337,3.4290076 1.788337,3.0859122 1.788337,2.9620775 1.9243057,2.6940709 2.065266,2.5400621 2.159471,2.4371334 2.3820713,2.33098 2.6899214,2.2421744 c 0.2576059,-0.074312 0.3394495,-0.072111 0.5297445,0.014245 0.1602236,0.072708 0.2032318,0.020451 0.047596,-0.057836 -0.1214829,-0.061113 -0.1405718,-0.094195 -0.04137,-0.071702 0.049368,0.011196 0.2255274,0.027373 0.3914529,0.03595 0.2257424,0.011665 0.3256928,0.03334 0.397056,0.086106 0.052456,0.03878 0.2320441,0.136415 0.3990872,0.2169655 0.2844608,0.137169 0.295742,0.1398367 0.1779369,0.042057 C 3.9328638,1.9613685 3.7411314,1.8119849 3.4702779,1.6344464 3.1715006,1.438603 3.1474689,1.429567 2.92544,1.429567 2.7940555,1.429567 2.5942166,1.460587 2.4653583,1.50098 2.3400633,1.540257 2.2064305,1.572602 2.168396,1.572852 2.104753,1.5732724 2.106187,1.565782 2.186367,1.478597 L 2.273489,1.3838744 2.19085,1.4269074 C 2.1453952,1.4505755 2.0896525,1.5106625 2.0669724,1.5604465 2.0442903,1.6102233 1.9680659,1.6803723 1.8975903,1.7163279 1.5455746,1.8959124 1.21115,2.2810338 1.0821932,2.6553341 1.0256555,2.8194367 1.0118969,3.1173941 1.052353,3.3015868 L 1.07839,3.42013 0.98541547,3.359216 C 0.93427977,3.325706 0.88496028,3.298303 0.87581654,3.298303 c -0.0255171,0 0.20132226,0.5048201 0.29286836,0.6517641 0.1141647,0.1832514 0.5367695,0.5750917 0.9733682,0.9025119 0.2042599,0.1531819 0.3547342,0.2785118 0.3343881,0.2785118 -0.020351,0 -0.046987,-0.016168 -0.059201,-0.035941 -0.012212,-0.019763 -0.039935,-0.035941 -0.061602,-0.035941 -0.021666,0 -0.010011,0.032455 0.02588,0.07212 0.035901,0.039667 0.083038,0.1083966 0.1047637,0.1527327 0.043371,0.088527 0.700323,0.5955273 1.0436853,0.8054632 0.2811097,0.1718744 0.5007917,0.3507277 0.5798591,0.4720881 L 4.172883,6.6584079 4.0497326,6.5581886 C 3.950348,6.4773122 3.3676818,6.1732574 3.3120754,6.1732574 c -0.051052,0 0.011724,0.095978 0.1856351,0.2838283 0.2055598,0.2220289 0.5589711,0.4349123 0.7220058,0.4349123 0.1412981,0 0.3713817,0.2432177 0.503331,0.5320625 0.065964,0.144394 0.1199298,0.2885907 0.1199298,0.3204382 0,0.1201142 0.039158,0.011226 0.088218,-0.2452897 z M 5.472414,7.2160103 C 5.3542503,7.0854407 5.4141499,6.7842837 5.6499942,6.3232139 5.8260007,5.9791244 5.8925795,5.8883803 6.1393624,5.6562247 6.4078033,5.4036951 6.6299995,5.2759187 6.8750052,5.2331853 6.9136753,5.2264116 6.9713217,5.1804998 7.0031264,5.1310814 7.034933,5.081673 7.3826186,4.7125785 7.7757728,4.3108824 8.5940802,3.474797 8.7865189,3.2175227 8.9193617,2.7820018 9.1323825,2.0836144 8.9791497,1.5984849 8.4351595,1.2490153 8.004934,0.97263216 7.5152103,0.91694912 6.9453067,1.0796152 6.6846486,1.1540167 5.8165872,1.5603289 5.8851642,1.5758367 c 0.00986,0.00219 0.074571,0.012023 0.1437475,0.021756 0.069182,0.00976 0.1298573,0.021756 0.134842,0.026736 0.00498,0.00498 -0.1324752,0.078207 -0.3054652,0.1627328 -0.1729892,0.084532 -0.375707,0.2089198 -0.4504829,0.276424 -0.1327562,0.1198452 -0.1336019,0.1221791 -0.035941,0.099145 0.055017,-0.012979 0.1153834,-0.037673 0.1341597,-0.054887 0.051918,-0.047596 0.1274825,-0.037425 0.1495718,0.020142 0.010858,0.02829 -0.01292,0.097024 -0.052846,0.1527327 -0.042904,0.059878 -0.081992,0.1894433 -0.095609,0.3169149 l -0.02303,0.2156222 0.078814,-0.1533751 C 5.8120497,2.174995 6.7737888,1.6468733 7.4933371,1.5997281 c 0.1037686,-0.00678 0.1886693,-0.0011 0.1886693,0.012591 0,0.013726 -0.072768,0.059171 -0.1617167,0.1009774 -0.088945,0.041808 -0.1617159,0.1001904 -0.1617159,0.1297368 0,0.068334 0.019564,0.067458 0.1446959,-0.00648 0.090091,-0.053223 0.1259455,-0.054797 0.309919,-0.013627 0.2655223,0.05942 0.3582107,0.1216373 0.4503903,0.3023245 0.1067778,0.2093054 0.077977,0.7051604 -0.058523,1.007712 C 8.0405322,3.4976166 7.4337484,4.3189661 7.2496704,4.4261842 l -0.1163408,0.067767 0.024983,-0.16659 c 0.013737,-0.091624 0.016784,-0.1665899 0.00678,-0.1665899 -0.010011,0 -0.079741,0.1171985 -0.1549332,0.2604409 -0.1442668,0.2748015 -0.3487806,0.4965086 -1.0639689,1.1534089 -0.5443449,0.49998 -0.6447663,0.6305695 -0.6640904,0.8635898 -0.030452,0.367158 0.091096,0.849085 0.2141514,0.849085 0.022373,0 0.011645,-0.032076 -0.023837,-0.071293 z M 5.0385905,6.1147375 C 5.0689826,5.993646 5.0341078,5.8306353 4.9421545,5.6645006 4.8937124,5.5769402 4.8772462,5.5020317 4.8928059,5.4400232 c 0.028041,-0.1117097 0.3952152,-0.488626 0.4759999,-0.488626 0.1156455,0 0.4893402,-0.2329783 0.6353967,-0.3961356 C 6.0869715,4.4628101 6.210356,4.283667 6.2783971,4.1571755 6.3882361,3.9529805 6.4035298,3.8909221 6.4147792,3.6037578 6.4260555,3.3157777 6.418166,3.2645683 6.3429378,3.1365767 L 6.2584253,2.9928282 5.9999995,2.9999999 C 5.7786729,3.0061778 5.7192464,3.0225621 5.586044,3.114207 5.4175375,3.2301424 5.1730209,3.5334232 5.0972059,3.7205255 c -0.026029,0.06424 -0.065875,0.1167951 -0.088546,0.1167951 -0.022672,0 -0.1171317,-0.060645 -0.2099129,-0.1347634 C 4.1343902,3.171823 3.9384701,3.107891 3.7017671,3.344595 3.5719835,3.4743786 3.5691684,3.483051 3.5682011,3.7560741 c -8.686e-4,0.2440874 0.013677,0.3082963 0.1164564,0.514389 0.1044051,0.2093421 0.1434217,0.2506838 0.3514101,0.372352 0.1507344,0.088178 0.2728707,0.1934108 0.3433304,0.2958217 0.1567491,0.2278273 0.5785702,1.0828303 0.5844205,1.1845808 0.00657,0.1137259 0.045184,0.1093289 0.07476,-0.00847 z"
     id="path1"
     sodipodi:nodetypes="sssssssssssssssssssssssssssssssssssssssssssssssssssssscsssssscsscsscssscsssssssssssssssscssssscssssssssssscsssssssssssssssssssssssssscsssssssssscssssssssssssssscssssssssssss" /></svg>
