<?xml version="1.0" encoding="UTF-8" standalone="no"?>
<!-- Created with Inkscape (http://www.inkscape.org/) -->

<svg
   width="194mm"
   height="10mm"
   viewBox="0 0 194 10"
   version="1.1"
   id="svg1"
   inkscape:version="1.4.2 (2aeb623e1d, 2025-05-12)"
   sodipodi:docname="EmpatRowSetList.svg"
   xml:space="preserve"
   xmlns:inkscape="http://www.inkscape.org/namespaces/inkscape"
   xmlns:sodipodi="http://sodipodi.sourceforge.net/DTD/sodipodi-0.dtd"
   xmlns="http://www.w3.org/2000/svg"
   xmlns:svg="http://www.w3.org/2000/svg"><sodipodi:namedview
     id="namedview1"
     pagecolor="#ffffff"
     bordercolor="#000000"
     borderopacity="0.25"
     inkscape:showpageshadow="2"
     inkscape:pageopacity="0.0"
     inkscape:pagecheckerboard="0"
     inkscape:deskcolor="#d1d1d1"
     inkscape:document-units="mm"
     inkscape:zoom="1.3659095"
     inkscape:cx="137.63723"
     inkscape:cy="129.21794"
     inkscape:window-width="1920"
     inkscape:window-height="940"
     inkscape:window-x="0"
     inkscape:window-y="0"
     inkscape:window-maximized="1"
     inkscape:current-layer="g5"
     showgrid="true"><inkscape:grid
       id="grid1"
       units="mm"
       originx="0"
       originy="0"
       spacingx="0.99999995"
       spacingy="0.99999997"
       empcolor="#0099e5"
       empopacity="0.30196078"
       color="#0099e5"
       opacity="0.14901961"
       empspacing="5"
       enabled="true"
       visible="true" /></sodipodi:namedview><defs
     id="defs1" /><g
     id="g5"
     inkscape:label="Row"
     style="display:inline;stroke:none;stroke-width:1.00177;stroke-dasharray:none;stroke-opacity:1"
     transform="matrix(0.2647424,0,0,0.26432057,-6.0036072,-15.984109)"><rect
       style="display:inline;opacity:1;fill:#fa0000;fill-opacity:0.307692;stroke:none;stroke-width:0.989325;stroke-dasharray:none;stroke-opacity:1"
       id="rect4"
       width="596.80646"
       height="37.832848"
       x="158.65842"
       y="60.472439"
       inkscape:label="Popis" /><rect
       style="display:inline;fill:#fa0000;fill-opacity:0.307692;stroke:none;stroke-width:1.00177;stroke-dasharray:none;stroke-opacity:1"
       id="rect4-42"
       width="98.208679"
       height="37.832848"
       x="60.449734"
       y="60.472439"
       inkscape:label="Jmeno" /><rect
       style="display:inline;opacity:1;fill:#fa0000;fill-opacity:0.307692;stroke:none;stroke-width:1.00177;stroke-dasharray:none;stroke-opacity:1"
       id="rect5"
       width="37.772568"
       height="37.832848"
       x="22.677166"
       y="60.472439"
       inkscape:label="Logo" /></g><g
     inkscape:label="Layer 1"
     inkscape:groupmode="layer"
     id="layer1"
     transform="translate(-5.9999979,-28.039034)"
     style="display:inline"><text
       xml:space="preserve"
       style="font-size:3.80938px;font-family:'New Rocker';-inkscape-font-specification:'New Rocker';text-align:start;letter-spacing:0px;writing-mode:lr-tb;direction:ltr;text-anchor:start;fill:#000000;fill-opacity:1;stroke:none;stroke-width:0.0504741"
       x="18.035286"
       y="34.122803"
       id="text1"
       inkscape:label="Role"><tspan
         style="letter-spacing:0px;fill:#000000;fill-opacity:1;stroke:none;stroke-width:0.0504743"
         x="18.035286"
         y="34.122803"
         sodipodi:role="line"
         id="tspan7">Empat</tspan></text><text
       xml:space="preserve"
       style="font-size:3px;font-family:'New Rocker';-inkscape-font-specification:'New Rocker';text-align:start;letter-spacing:0px;writing-mode:lr-tb;direction:ltr;text-anchor:start;fill:#000000;fill-opacity:1;stroke:none;stroke-width:0.040981"
       x="42.755661"
       y="33.891289"
       id="text2"
       inkscape:label="Popis"><tspan
         sodipodi:role="line"
         style="font-style:normal;font-variant:normal;font-weight:normal;font-stretch:normal;font-size:3px;font-family:'Didact Gothic';-inkscape-font-specification:'Didact Gothic';letter-spacing:0px;stroke-width:0.0409811"
         x="42.755661"
         y="33.891289"
         id="tspan6">Každou noc se dozvíš, kolik ze tvých dvou žijících sousedů je zlých.</tspan></text><path
       style="fill:#000000;stroke-width:0.0330613"
       d="M 10.899513,37.014788 C 10.732878,36.403097 10.384361,36.007612 9.8960766,35.876133 9.6911434,35.820952 9.547733,35.675937 9.3258475,35.299532 9.1411702,34.986247 8.6313027,34.378896 8.5879742,34.420581 c -0.019021,0.0183 0.2469417,0.568831 0.3136142,0.649165 0.020821,0.02509 0.031,0.05247 0.022624,0.06085 -0.00838,0.0083 -0.087752,-0.08497 -0.1763879,-0.207432 -0.088636,-0.12247 -0.2884688,-0.37012 -0.4440729,-0.550339 -0.3935142,-0.455763 -0.627468,-0.74792 -0.6817455,-0.851354 -0.025399,-0.0484 -0.081119,-0.115483 -0.1238243,-0.149075 -0.3152849,-0.248004 -0.6774121,-0.81255 -0.7704393,-1.201092 -0.05567,-0.232517 -0.055705,-0.231431 0.0075,-0.231431 0.047621,0 0.046939,-0.0099 -0.00632,-0.09092 -0.05097,-0.07761 -0.058626,-0.153804 -0.052326,-0.520716 0.019488,-1.134462 0.1209375,-1.310134 0.9994362,-1.73064 0.2285864,-0.109415 0.4360982,-0.223622 0.4611371,-0.253791 0.097264,-0.117197 -0.2725034,-0.01432 -0.7197077,0.200242 -0.2409345,0.115596 -0.4380627,0.204099 -0.4380627,0.196676 0,-0.02672 0.3851592,-0.269923 0.6198091,-0.391375 0.3721368,-0.192615 0.5397245,-0.23414 0.9237316,-0.228886 0.185241,0.0026 0.4232824,0.02725 0.5289811,0.05492 0.1056982,0.02767 0.2659602,0.05984 0.3561379,0.07148 0.1456701,0.0188 0.1862334,0.04388 0.3636739,0.224759 0.288849,0.294457 0.861617,0.749059 0.943763,0.749059 0.123197,0 0.198544,-0.06517 0.279223,-0.241511 0.04807,-0.105074 0.185583,-0.283009 0.354189,-0.458317 0.263572,-0.274048 0.287159,-0.290154 0.540098,-0.368773 0.229422,-0.07131 0.332212,-0.08282 0.77525,-0.08679 0.284283,-0.0026 0.528409,-0.01922 0.550564,-0.03761 0.026,-0.02158 0.04378,-0.02173 0.05128,-4.37e-4 0.0063,0.01793 0.100745,0.03564 0.209849,0.03935 0.38415,0.01309 0.940245,0.283676 1.223287,0.595229 0.07275,0.08007 0.191042,0.238552 0.262881,0.352177 0.08155,0.12898 0.142295,0.194912 0.161704,0.175503 0.03879,-0.03879 -0.03017,-0.407441 -0.102309,-0.546977 -0.04717,-0.09123 -0.04703,-0.0959 0.0015,-0.0556 0.07994,0.06631 0.181263,0.30008 0.206623,0.476713 0.01239,0.08638 0.03573,0.157042 0.05186,0.157042 0.04169,0 0.037,0.520908 -0.0048,0.534844 -0.01932,0.0065 -0.04699,0.212089 -0.06379,0.47388 -0.0314,0.489569 -0.0605,0.598389 -0.304832,1.140262 -0.18681,0.414361 -0.250814,0.51836 -0.452026,0.734534 -0.106336,0.114243 -0.231024,0.267224 -0.277085,0.33996 -0.04606,0.07274 -0.240141,0.318216 -0.431289,0.545512 -0.191147,0.227297 -0.343513,0.417591 -0.338592,0.422879 0.02053,0.02205 0.644836,-0.370727 0.835542,-0.525682 0.113649,-0.09234 0.206634,-0.151622 0.206634,-0.131731 0,0.01989 -0.01445,0.03616 -0.03211,0.03616 -0.01766,0 -0.129523,0.117747 -0.248585,0.261658 -0.265104,0.32044 -0.806465,0.739545 -1.223597,0.947275 -0.163657,0.0815 -0.403761,0.225927 -0.533568,0.320953 -0.129806,0.09503 -0.345532,0.239722 -0.479389,0.321548 -0.307219,0.187803 -0.502389,0.364565 -0.653566,0.59192 -0.249939,0.375888 -0.274127,0.435474 -0.296544,0.730534 l -0.02135,0.28102 z m 0.02922,-1.606895 c 0.03431,-0.179397 0.03883,-0.30619 0.01695,-0.475969 -0.01641,-0.127286 -0.03031,-0.24869 -0.0309,-0.269786 -5.95e-4,-0.0211 -0.06431,-0.115996 -0.141593,-0.210887 -0.07728,-0.09489 -0.174558,-0.218965 -0.21617,-0.275724 l -0.07566,-0.103198 0.02053,0.148777 c 0.01129,0.08182 0.03379,0.1908 0.05001,0.242163 0.01733,0.05489 0.01728,0.08896 -1.37e-4,0.08265 -0.01627,-0.0059 -0.155341,-0.12544 -0.309034,-0.265637 C 9.9557264,34.01848 9.6635211,33.616863 9.3096286,32.997789 9.2212878,32.843254 9.0402238,32.552408 8.9072637,32.351466 8.7743181,32.150523 8.6655325,31.961711 8.6655325,31.931885 c 0,-0.02983 -0.017143,-0.06483 -0.038094,-0.07778 -0.052641,-0.03253 -0.017796,0.215019 0.049157,0.349228 l 0.050949,0.102133 -0.1343164,-0.07535 C 8.2857031,32.057609 8.03736,31.663392 8.03736,31.347751 c 0,-0.113926 0.1250886,-0.360486 0.2547687,-0.50217 0.086669,-0.0947 0.2914547,-0.192351 0.5746703,-0.274052 0.2369923,-0.06837 0.3122871,-0.06634 0.4873537,0.0131 0.1474032,0.0669 0.1869689,0.01881 0.043795,-0.05321 -0.1117615,-0.05622 -0.1293227,-0.08665 -0.038066,-0.06596 0.04542,0.0103 0.2074808,0.02518 0.3601296,0.03307 0.2076783,0.01074 0.2996297,0.03067 0.3652827,0.07921 0.04826,0.03568 0.213475,0.1255 0.367153,0.199605 0.261698,0.126192 0.272076,0.128645 0.163698,0.03869 C 10.010282,30.313186 9.8338925,30.175756 9.5847139,30.012423 9.3098445,29.832252 9.2877362,29.823939 9.0834736,29.823939 c -0.1208711,0 -0.3047192,0.02853 -0.4232662,0.06569 -0.1152683,0.03613 -0.2382079,0.06589 -0.273199,0.06612 -0.058551,3.88e-4 -0.057234,-0.0065 0.016531,-0.08671 l 0.080151,-0.08714 -0.076026,0.03959 c -0.041814,0.02177 -0.093098,0.07706 -0.1139641,0.122854 -0.020866,0.0458 -0.090988,0.110329 -0.1558276,0.143407 -0.3238476,0.165216 -0.631511,0.519519 -0.7501486,0.863867 -0.052014,0.150971 -0.064671,0.425086 -0.027453,0.594539 l 0.023954,0.109057 -0.085534,-0.05604 c -0.047044,-0.03083 -0.092417,-0.05605 -0.1008292,-0.05605 -0.023475,0 0.1852126,0.464425 0.269433,0.599611 0.1050292,0.168586 0.493817,0.529072 0.8954787,0.830292 0.1879153,0.140924 0.3263488,0.256225 0.3076301,0.256225 -0.018719,0 -0.043228,-0.01488 -0.054467,-0.03306 -0.011239,-0.01819 -0.036738,-0.03306 -0.056667,-0.03306 -0.019929,0 -0.00922,0.02986 0.023812,0.06635 0.033026,0.03649 0.076396,0.09973 0.096381,0.140511 0.039903,0.08144 0.6442823,0.547873 0.9601685,0.74101 0.2586155,0.158122 0.4607178,0.322664 0.5334588,0.434313 l 0.05801,0.08905 -0.113296,-0.0922 c -0.09143,-0.07441 -0.6274716,-0.35414 -0.6786288,-0.35414 -0.046973,0 0.010779,0.0883 0.1707797,0.261117 0.1891113,0.204262 0.5142421,0.400111 0.6642301,0.400111 0.129991,0 0.341665,0.223755 0.463055,0.489486 0.06068,0.132839 0.110333,0.265498 0.110333,0.294797 0,0.110502 0.03603,0.01033 0.08116,-0.225661 z m 0.497898,-0.260536 c -0.108709,-0.120121 -0.0536,-0.397179 0.163369,-0.821354 0.161922,-0.316556 0.223175,-0.400037 0.450209,-0.613616 0.24696,-0.232323 0.451377,-0.349875 0.676777,-0.389188 0.03557,-0.0062 0.08861,-0.04847 0.117869,-0.09394 0.02925,-0.04546 0.349125,-0.385014 0.710818,-0.754566 0.752827,-0.769182 0.929866,-1.005869 1.052078,-1.406539 0.195975,-0.642502 0.05501,-1.088811 -0.445455,-1.410316 -0.395798,-0.254267 -0.846335,-0.305494 -1.370635,-0.155845 -0.239799,0.06845 -1.038398,0.442246 -0.975309,0.456514 0.0091,0.0021 0.0686,0.01106 0.132246,0.02002 0.06365,0.0089 0.119465,0.02002 0.12405,0.02459 0.0046,0.0046 -0.121874,0.07195 -0.281021,0.149711 -0.159147,0.07777 -0.345642,0.192202 -0.414435,0.254304 -0.122133,0.110256 -0.122912,0.112403 -0.03306,0.09121 0.05061,-0.01194 0.10615,-0.03466 0.123424,-0.0505 0.04777,-0.04378 0.117282,-0.03443 0.137603,0.01853 0.01,0.02603 -0.01189,0.08926 -0.04861,0.14051 -0.03947,0.05509 -0.07543,0.174284 -0.08796,0.291555 l -0.02119,0.198368 0.07251,-0.141102 c 0.229189,-0.445992 1.113969,-0.931853 1.775938,-0.975227 0.09547,-0.0063 0.173572,-0.001 0.173572,0.01159 0,0.01263 -0.06695,0.05443 -0.148776,0.0929 -0.08183,0.03847 -0.148776,0.09218 -0.148776,0.119355 0,0.06286 0.01799,0.06206 0.133117,-0.006 0.08289,-0.04896 0.115867,-0.05041 0.285119,-0.01254 0.244276,0.05467 0.329547,0.111905 0.41435,0.278134 0.09824,0.192554 0.07174,0.648731 -0.05384,0.927072 -0.151358,0.335474 -0.709587,1.091099 -0.878935,1.189738 l -0.107031,0.06234 0.02298,-0.15326 c 0.01264,-0.0843 0.01544,-0.15326 0.0063,-0.15326 -0.0093,0 -0.07335,0.107821 -0.142537,0.239602 -0.132721,0.252808 -0.320869,0.456773 -0.978828,1.061108 -0.500784,0.459973 -0.59317,0.580112 -0.610948,0.794486 -0.02802,0.337778 0.08381,0.781141 0.197016,0.781141 0.02058,0 0.01072,-0.02952 -0.02194,-0.06559 z m -0.399109,-1.013148 c 0.02797,-0.111402 -0.0041,-0.261369 -0.08871,-0.414209 -0.04457,-0.08056 -0.05972,-0.149469 -0.0454,-0.206515 0.0258,-0.102771 0.363589,-0.449527 0.43791,-0.449527 0.106392,0 0.450182,-0.214335 0.584552,-0.364436 0.07614,-0.08506 0.189657,-0.24986 0.252252,-0.366231 0.101054,-0.187854 0.11512,-0.244947 0.125469,-0.509132 0.01038,-0.264937 0.0032,-0.312048 -0.06609,-0.429797 l -0.07775,-0.132246 -0.237746,0.0066 c -0.203615,0.0057 -0.258288,0.02076 -0.380831,0.105067 -0.155022,0.106658 -0.379972,0.385671 -0.449721,0.557802 -0.02394,0.0591 -0.0606,0.107449 -0.08146,0.107449 -0.02086,0 -0.107759,-0.05579 -0.193116,-0.12398 -0.611193,-0.488266 -0.791435,-0.547082 -1.0091969,-0.32932 -0.1193983,0.119399 -0.1219882,0.127377 -0.1228779,0.378553 -8.002e-4,0.224556 0.012579,0.283625 0.1071372,0.473227 0.096055,0.192591 0.1319454,0.230624 0.3232886,0.342556 0.138673,0.08112 0.251036,0.177934 0.315859,0.272151 0.144205,0.209596 0.532272,0.996181 0.537654,1.089789 0.0061,0.104626 0.04157,0.10058 0.06878,-0.0078 z"
       id="path1-7"
       sodipodi:nodetypes="sssssssssssssssssssssssssssssssssssssssssssssssssssssscsssssscsscsscssscsssssssssssssssscssssscssssssssssscsssssssssssssssssssssssssscsssssssssscssssssssssssssscssssssssssss" /></g></svg>
