<?xml version="1.0" encoding="UTF-8" standalone="no"?>
<!-- Created with Inkscape (http://www.inkscape.org/) -->

<svg
   width="194mm"
   height="10mm"
   viewBox="0 0 194 10"
   version="1.1"
   id="svg1"
   inkscape:version="1.4.2 (2aeb623e1d, 2025-05-12)"
   sodipodi:docname="KrkavecRowSetList.svg"
   xml:space="preserve"
   xmlns:inkscape="http://www.inkscape.org/namespaces/inkscape"
   xmlns:sodipodi="http://sodipodi.sourceforge.net/DTD/sodipodi-0.dtd"
   xmlns="http://www.w3.org/2000/svg"
   xmlns:svg="http://www.w3.org/2000/svg"><sodipodi:namedview
     id="namedview1"
     pagecolor="#ffffff"
     bordercolor="#000000"
     borderopacity="0.25"
     inkscape:showpageshadow="2"
     inkscape:pageopacity="0.0"
     inkscape:pagecheckerboard="0"
     inkscape:deskcolor="#d1d1d1"
     inkscape:document-units="mm"
     inkscape:zoom="0.9115152"
     inkscape:cx="329.12232"
     inkscape:cy="181.56581"
     inkscape:window-width="1920"
     inkscape:window-height="940"
     inkscape:window-x="0"
     inkscape:window-y="0"
     inkscape:window-maximized="1"
     inkscape:current-layer="svg1"
     showgrid="true"><inkscape:grid
       id="grid1"
       units="mm"
       originx="0"
       originy="0"
       spacingx="0.99999995"
       spacingy="0.99999997"
       empcolor="#0099e5"
       empopacity="0.30196078"
       color="#0099e5"
       opacity="0.14901961"
       empspacing="5"
       enabled="true"
       visible="true" /></sodipodi:namedview><defs
     id="defs1" /><g
     id="g5"
     inkscape:label="Row"
     style="display:inline;stroke:none;stroke-width:1.00177;stroke-dasharray:none;stroke-opacity:1"
     transform="matrix(0.2647424,0,0,0.26432057,-6.0036072,-15.984109)"><rect
       style="display:inline;opacity:1;fill:#fa0000;fill-opacity:0.307692;stroke:none;stroke-width:0.989325;stroke-dasharray:none;stroke-opacity:1"
       id="rect4"
       width="596.80658"
       height="37.832848"
       x="158.65842"
       y="60.472439"
       inkscape:label="Popis" /><rect
       style="display:inline;fill:#fa0000;fill-opacity:0.307692;stroke:none;stroke-width:1.00177;stroke-dasharray:none;stroke-opacity:1"
       id="rect4-42"
       width="98.208679"
       height="37.832848"
       x="60.449734"
       y="60.472439"
       inkscape:label="Jmeno" /><rect
       style="display:inline;opacity:1;fill:#fa0000;fill-opacity:0.307692;stroke:none;stroke-width:1.00177;stroke-dasharray:none;stroke-opacity:1"
       id="rect5"
       width="37.772568"
       height="37.832848"
       x="22.677166"
       y="60.472439"
       inkscape:label="Logo" /></g><g
     inkscape:label="Layer 1"
     inkscape:groupmode="layer"
     id="layer1"
     transform="translate(-5.9999979,-28.039034)"
     style="display:inline"><text
       xml:space="preserve"
       style="font-size:3.80938px;font-family:'New Rocker';-inkscape-font-specification:'New Rocker';text-align:start;letter-spacing:0px;writing-mode:lr-tb;direction:ltr;text-anchor:start;fill:#000000;fill-opacity:1;stroke:none;stroke-width:0.0504741"
       x="18.035286"
       y="34.122803"
       id="text1"
       inkscape:label="Role"><tspan
         style="letter-spacing:0px;fill:#000000;fill-opacity:1;stroke:none;stroke-width:0.0504743"
         x="18.035286"
         y="34.122803"
         sodipodi:role="line"
         id="tspan8">Krkavec</tspan></text><text
       xml:space="preserve"
       style="font-size:3px;font-family:'New Rocker';-inkscape-font-specification:'New Rocker';text-align:start;letter-spacing:0px;writing-mode:lr-tb;direction:ltr;text-anchor:start;fill:#000000;fill-opacity:1;stroke:none;stroke-width:0.040981"
       x="42.755661"
       y="33.891289"
       id="text2"
       inkscape:label="Popis"><tspan
         sodipodi:role="line"
         style="font-style:normal;font-variant:normal;font-weight:normal;font-stretch:normal;font-size:3px;font-family:'Didact Gothic';-inkscape-font-specification:'Didact Gothic';letter-spacing:0px;stroke-width:0.0409811"
         x="42.755661"
         y="33.891289"
         id="tspan9">V noc, kterou zemřeš, se probudíš a dozvíš se roli hráče, kterého si vybereš.</tspan></text><path
       style="fill:#000000;stroke-width:0.0337621"
       d="M 7.6605726,37.581143 C 7.5091178,37.538009 7.5163453,37.43563 7.6868359,37.209157 l 0.1359839,-0.180642 -0.1444239,-0.01776 c -0.079437,-0.0097 -0.1634156,-0.02966 -0.1866268,-0.0442 -0.092641,-0.05803 -0.042937,-0.234154 0.1530816,-0.542465 0.1074072,-0.168938 0.2609861,-0.454029 0.3412863,-0.633536 0.080304,-0.179505 0.1912869,-0.369418 0.246638,-0.422026 0.1106618,-0.105183 0.2062999,-0.267009 0.1888098,-0.31948 -0.00616,-0.01845 -0.1653962,0.111917 -0.3538754,0.289719 -0.3725983,0.35149 -0.5448067,0.452424 -0.7341783,0.430317 -0.092988,-0.01085 -0.1255113,-0.03254 -0.1409359,-0.094 -0.024645,-0.09821 0.065491,-0.219777 0.5611064,-0.756712 0.1971121,-0.213546 0.4152495,-0.479422 0.4847512,-0.590838 0.0695,-0.111415 0.1825124,-0.273922 0.251137,-0.361126 0.068623,-0.0872 0.1619756,-0.226895 0.2074468,-0.310423 l 0.082675,-0.151869 -0.093122,-0.162248 C 8.5212037,33.053734 8.4329127,32.835631 8.345491,32.499275 8.1867094,31.888359 8.2396751,31.094892 8.4781179,30.512416 8.8214918,29.673608 9.5043245,29.01632 10.371409,28.68995 c 0.239971,-0.09033 0.251471,-0.0933 0.673833,-0.173949 0.311222,-0.05943 0.838301,-0.04331 1.122593,0.03434 0.09749,0.02663 0.17725,0.04257 0.17725,0.03543 0,-0.02065 0.523296,0.17792 0.682533,0.258989 0.850214,0.43286 1.462209,1.213754 1.694226,2.161804 0.117246,0.479087 0.118829,0.900041 0.0054,1.424878 -0.13656,0.631622 -0.384965,1.099592 -0.822782,1.550044 -0.194361,0.199971 -0.238343,0.261656 -0.186564,0.261656 0.03726,0 0.07668,-0.0089 0.08759,-0.01983 0.03053,-0.03053 0.561002,-0.209618 0.576125,-0.194495 0.0074,0.0073 0.0063,0.05045 -0.0024,0.09582 -0.0099,0.05185 -0.07424,0.120005 -0.173215,0.183513 -0.08659,0.05557 -0.199031,0.144437 -0.249853,0.197485 l -0.09241,0.09646 0.07632,0.07099 c 0.04197,0.03904 0.129497,0.08451 0.19449,0.10102 0.105342,0.02676 0.119306,0.04359 0.128662,0.154952 0.01333,0.158624 -0.03648,0.180091 -0.290826,0.125355 -0.105787,-0.02276 -0.253111,-0.05467 -0.327389,-0.0709 -0.07428,-0.01622 -0.258177,-0.02041 -0.408668,-0.0093 l -0.273621,0.0202 -0.03024,0.122366 c -0.0247,0.09995 -0.0457,0.122363 -0.114646,0.122363 -0.07395,0 -0.08441,-0.01463 -0.08441,-0.118168 0,-0.09302 -0.01459,-0.120257 -0.06854,-0.127984 -0.0607,-0.0087 -0.06709,0.0055 -0.05584,0.123371 0.01626,0.170513 -0.07667,0.274711 -0.244999,0.274711 -0.138974,0 -0.182282,-0.04998 -0.08734,-0.10078 0.07894,-0.04225 0.08986,-0.143299 0.02159,-0.199959 -0.03302,-0.0274 -0.08871,-0.02951 -0.188321,-0.0072 -0.183021,0.04112 -0.19825,0.05996 -0.07107,0.08789 0.05704,0.01253 0.1037,0.03891 0.1037,0.05862 0,0.02391 -0.09707,0.02978 -0.291795,0.01763 -0.27657,-0.01726 -0.446557,0.0092 -0.543109,0.08465 -0.04734,0.03697 6.7e-5,0.156955 0.08089,0.204644 0.08317,0.04907 0.01578,0.08253 -0.11724,0.05822 -0.177571,-0.03247 -0.20141,-0.05197 -0.24619,-0.201439 -0.0384,-0.128173 -0.04163,-0.13019 -0.245706,-0.153542 -0.274337,-0.0314 -0.476543,-0.03165 -0.669014,-8.89e-4 -0.2441005,0.03905 -0.3311926,0.0051 -0.3311926,-0.129058 v -0.11096 l 0.4135866,0.0018 c 0.660679,0.0028 0.9856,-0.06681 0.599279,-0.128354 -0.123867,-0.01973 -0.399457,-0.11122 -0.619055,-0.20551 -0.1769127,-0.07596 -0.3284985,-0.02714 -0.3886485,0.125173 -0.2664209,0.674641 -0.48611,1.358059 -0.5135158,1.597466 -0.050242,0.438841 -0.090636,0.5233 -0.2982688,0.623534 -0.1566247,0.07561 -0.1894913,0.110492 -0.2781418,0.2952 -0.055293,0.115201 -0.1263034,0.222664 -0.1578043,0.238807 -0.085971,0.04406 -0.7502806,0.06997 -0.8760077,0.03417 z m 3.5365884,-2.723678 c 0,-0.04672 -0.199543,-0.344231 -0.230881,-0.344231 -0.01638,0 -0.08504,-0.03749 -0.152547,-0.0833 l -0.122755,-0.0833 -0.194258,0.07019 c -0.10684,0.03861 -0.217047,0.07733 -0.2449,0.08605 -0.07164,0.02244 0.151378,0.133371 0.540195,0.268706 0.334142,0.116305 0.405146,0.131356 0.405146,0.08589 z m 0.543248,-0.347618 c -0.08678,-0.09098 -0.182967,-0.165425 -0.213748,-0.165425 -0.03078,0 -0.09652,-0.05317 -0.146097,-0.118166 -0.08138,-0.1067 -0.175453,-0.148627 -0.224168,-0.09991 -0.01004,0.01004 0.0444,0.142979 0.120982,0.295419 0.09382,0.186767 0.175363,0.301069 0.250004,0.350463 l 0.110766,0.0733 0.130021,-0.08513 0.130022,-0.08513 z m 1.743423,0.115771 c 0.0083,-0.0252 -0.01237,-0.03292 -0.05696,-0.02125 -0.09902,0.0259 -0.12652,0.08574 -0.03312,0.07207 0.04239,-0.0062 0.08293,-0.02907 0.09007,-0.05082 z m -0.851778,-0.05927 c 0.269777,-0.0025 0.270438,-0.0027 0.557075,-0.191611 0.466078,-0.307176 0.769465,-0.662317 1.064207,-1.245756 0.393225,-0.778384 0.385068,-1.872714 -0.01995,-2.675942 -0.367567,-0.728958 -0.772041,-1.137347 -1.433396,-1.447268 -0.381281,-0.178675 -0.724442,-0.263301 -1.163921,-0.287031 -0.309172,-0.0167 -0.395625,-0.0083 -0.676087,0.0656 -0.600628,0.15827 -0.9912945,0.374133 -1.4125003,0.78048 -0.5226055,0.504169 -0.8112016,1.040047 -0.9376168,1.741006 -0.1139186,0.63167 -0.039814,1.180571 0.2427616,1.798228 0.081422,0.177974 0.1030642,0.171809 0.1975843,-0.05629 0.048845,-0.11787 0.049222,-0.137862 0.00347,-0.188351 -0.028114,-0.03107 -0.05112,-0.07149 -0.05112,-0.08985 0,-0.01835 0.097364,-0.126469 0.216365,-0.240263 0.1487753,-0.142268 0.2234691,-0.241756 0.2391086,-0.318482 0.065615,-0.321889 0.085297,-0.364798 0.1673287,-0.364798 0.067861,0 0.090607,-0.03141 0.1498655,-0.206867 0.076391,-0.226223 0.2259834,-0.47906 0.3553144,-0.600557 0.05673,-0.0533 0.131968,-0.08074 0.239952,-0.08754 0.131114,-0.0083 0.17584,-0.03014 0.268616,-0.131423 0.06123,-0.06684 0.139646,-0.122397 0.174281,-0.123468 0.28187,-0.0087 0.500487,-0.07054 0.531058,-0.150218 0.03188,-0.08304 -0.03301,-0.235843 -0.117616,-0.276986 -0.06719,-0.03267 -0.120976,-0.03106 -0.267915,0.008 -0.3544,0.09431 -0.420194,0.04694 -0.232186,-0.167189 0.107871,-0.122857 0.415856,-0.289516 0.535025,-0.289516 0.03786,0 0.09271,-0.03642 0.121873,-0.08094 0.02916,-0.04452 0.127292,-0.112887 0.21805,-0.15193 0.331526,-0.142619 1.072948,-0.07587 1.28457,0.115644 0.11602,0.104997 0.21084,0.437113 0.215068,0.753289 0.0033,0.24831 0.01558,0.309593 0.07769,0.388558 0.263701,0.335242 0.19098,0.66916 -0.401772,1.844871 -0.126304,0.250521 -0.229645,0.472208 -0.229645,0.492637 0,0.02933 -0.255176,0.57578 -0.28692,0.614428 -0.0291,0.03543 -0.154537,0.0281 -0.186925,-0.01091 -0.03363,-0.04052 -0.04646,-0.04018 -0.089,0.0024 -0.06058,0.06058 -0.212669,0.06585 -0.216356,0.0075 -0.002,-0.03053 -0.0072,-0.03123 -0.01885,-0.0025 -0.0088,0.02182 0.01323,0.09779 0.04918,0.168811 0.03596,0.07102 0.0767,0.181532 0.09054,0.24558 0.03371,0.156038 0.308223,0.416048 0.405108,0.383709 0.03714,-0.0124 0.189068,-0.02365 0.33762,-0.02501 z"
       id="path1-0"
       sodipodi:nodetypes="sscssssssssssssscssssssssssssssssscsssssscssssssssssssscssscsccsssssssssssscsssssssssscccssssssssssssssssssssssssssssssssssssssssssssssss" /></g></svg>
