<?xml version="1.0" encoding="UTF-8" standalone="no"?>
<!-- Created with Inkscape (http://www.inkscape.org/) -->

<svg
   width="194mm"
   height="10mm"
   viewBox="0 0 194 10"
   version="1.1"
   id="svg1"
   inkscape:version="1.4.2 (2aeb623e1d, 2025-05-12)"
   sodipodi:docname="OpilecRowSetList.svg"
   xml:space="preserve"
   xmlns:inkscape="http://www.inkscape.org/namespaces/inkscape"
   xmlns:sodipodi="http://sodipodi.sourceforge.net/DTD/sodipodi-0.dtd"
   xmlns="http://www.w3.org/2000/svg"
   xmlns:svg="http://www.w3.org/2000/svg"><sodipodi:namedview
     id="namedview1"
     pagecolor="#ffffff"
     bordercolor="#000000"
     borderopacity="0.25"
     inkscape:showpageshadow="2"
     inkscape:pageopacity="0.0"
     inkscape:pagecheckerboard="0"
     inkscape:deskcolor="#d1d1d1"
     inkscape:document-units="mm"
     inkscape:zoom="3.1658552"
     inkscape:cx="108.02768"
     inkscape:cy="34.903681"
     inkscape:window-width="1920"
     inkscape:window-height="940"
     inkscape:window-x="0"
     inkscape:window-y="0"
     inkscape:window-maximized="1"
     inkscape:current-layer="svg1"
     showgrid="true"><inkscape:grid
       id="grid1"
       units="mm"
       originx="0"
       originy="0"
       spacingx="0.99999995"
       spacingy="0.99999997"
       empcolor="#0099e5"
       empopacity="0.30196078"
       color="#0099e5"
       opacity="0.14901961"
       empspacing="5"
       enabled="true"
       visible="true" /></sodipodi:namedview><defs
     id="defs1" /><g
     id="g5"
     inkscape:label="Row"
     style="display:inline;stroke:none;stroke-width:1.00177;stroke-dasharray:none;stroke-opacity:1"
     transform="matrix(0.25939404,0,0,0.26432057,-5.8823216,-15.984109)"><rect
       style="display:inline;opacity:1;fill:#fa0000;fill-opacity:0.307692;stroke:none;stroke-width:1.00177;stroke-dasharray:none;stroke-opacity:1"
       id="rect4"
       width="611.91559"
       height="37.832848"
       x="158.65842"
       y="60.472439"
       inkscape:label="Popis" /><rect
       style="display:inline;fill:#fa0000;fill-opacity:0.307692;stroke:none;stroke-width:1.00177;stroke-dasharray:none;stroke-opacity:1"
       id="rect4-42"
       width="98.208679"
       height="37.832848"
       x="60.449734"
       y="60.472439"
       inkscape:label="Jmeno" /><rect
       style="display:inline;opacity:1;fill:#fa0000;fill-opacity:0.307692;stroke:none;stroke-width:1.00177;stroke-dasharray:none;stroke-opacity:1"
       id="rect5"
       width="37.772568"
       height="37.832848"
       x="22.677166"
       y="60.472439"
       inkscape:label="Logo" /></g><g
     inkscape:label="Layer 1"
     inkscape:groupmode="layer"
     id="layer1"
     transform="translate(-5.9999979,-28.039034)"
     style="display:inline"><text
       xml:space="preserve"
       style="font-size:3.80938px;font-family:'New Rocker';-inkscape-font-specification:'New Rocker';text-align:start;letter-spacing:0px;writing-mode:lr-tb;direction:ltr;text-anchor:start;fill:#000000;fill-opacity:1;stroke:none;stroke-width:0.0504741"
       x="18.035286"
       y="34.122803"
       id="text1"
       inkscape:label="Role"><tspan
         style="letter-spacing:0px;fill:#000000;fill-opacity:1;stroke:none;stroke-width:0.0504743"
         x="18.035286"
         y="34.122803"
         sodipodi:role="line"
         id="tspan8">Opilec</tspan></text><text
       xml:space="preserve"
       style="font-size:3px;font-family:'New Rocker';-inkscape-font-specification:'New Rocker';text-align:start;letter-spacing:0px;writing-mode:lr-tb;direction:ltr;text-anchor:start;fill:#000000;fill-opacity:1;stroke:none;stroke-width:0.040981"
       x="42.755661"
       y="33.891289"
       id="text2"
       inkscape:label="Popis"><tspan
         sodipodi:role="line"
         style="font-style:normal;font-variant:normal;font-weight:normal;font-stretch:normal;font-size:3px;font-family:'Didact Gothic';-inkscape-font-specification:'Didact Gothic';letter-spacing:0px;stroke-width:0.0409811"
         x="42.755661"
         y="33.891289"
         id="tspan9">Nevíš, že jsi opilec. Myslíš si, že jsi nějaká z rolí Měšťanů, ale nejsi.</tspan></text><path
       style="fill:#000000;stroke-width:0.026712"
       d="M 4.1773403,9.0561074 C 4.1263115,9.0338917 3.9940869,9.0092149 3.8835083,9.0012829 3.7729302,8.9933459 3.6690372,8.9763073 3.6526349,8.9634188 3.6362318,8.9505303 3.469503,8.9100069 3.2821244,8.8733701 2.9928768,8.8168215 2.9189042,8.7916575 2.792213,8.7067291 2.6015226,8.5788986 2.4951954,8.4081532 2.5219933,8.2727974 c 0.023856,-0.1205128 0.052065,-0.186985 0.079338,-0.186985 0.033716,0 0.1054285,-0.2403881 0.1199182,-0.4019856 C 2.7427049,7.4445116 2.7893455,7.1485814 2.8347062,6.9639082 2.8862554,6.7540417 2.8933498,5.5623899 2.8447275,5.2810528 2.8282229,5.1855555 2.8133819,4.8910566 2.8117603,4.6266077 2.8094857,4.2538716 2.8028178,4.1683078 2.7821935,4.245962 c -0.018121,0.068221 -0.04175,0.1001696 -0.074105,0.1001696 -0.080122,0 -0.1146459,-0.068719 -0.097036,-0.1931598 C 2.6366212,3.9722729 2.628695,3.8815573 2.5852097,3.8572193 2.5619885,3.8442253 2.551195,3.8146936 2.5597733,3.7876611 2.5700582,3.7552397 2.5542673,3.73138 2.508804,3.7106639 2.3519756,3.6392118 2.3008032,3.3393932 2.4269168,3.2308913 2.4924176,3.1745419 2.4941885,3.1670638 2.4552203,3.1114221 2.397223,3.0286259 2.4033656,2.9353545 2.4735505,2.8329259 2.5434738,2.730879 2.5875307,2.7072516 2.7912698,2.6625314 c 0.1638086,-0.035956 0.3204186,-0.01931 0.3689917,0.039216 0.051914,0.062549 0.2657669,0.1501705 0.3290624,0.1348218 0.1894148,-0.045933 0.4333333,-0.056408 0.4986482,-0.021429 0.064298,0.034442 0.072532,0.031435 0.1352459,-0.04935 0.2274899,-0.2930453 0.3340601,-0.329691 0.5179576,-0.178107 0.1136814,0.093701 0.1737468,0.08389 0.2066748,-0.033788 0.00988,-0.035341 0.019181,-0.050736 0.020641,-0.034218 0.00168,0.018725 0.044863,0.00918 0.1146668,-0.025373 0.1596361,-0.078979 0.2644115,-0.071218 0.4054356,0.030059 0.065465,0.047016 0.1350916,0.085364 0.1547272,0.085217 0.019635,-1.318e-4 0.08848,-0.042213 0.152987,-0.093496 0.064507,-0.051283 0.144786,-0.093232 0.1783982,-0.093232 0.075469,0 0.1533192,0.073522 0.1332454,0.1258334 -0.00818,0.021341 -0.014889,0.049847 -0.014889,0.063339 0,0.013492 -0.024042,4.647e-4 -0.053424,-0.028897 -0.029387,-0.029385 -0.068449,-0.053225 -0.086814,-0.052991 -0.069074,8.982e-4 -0.2477583,0.1239219 -0.3063977,0.2109355 -0.06039,0.08961 -0.060892,0.089786 -0.060892,0.020589 0,-0.1031423 -0.1994259,-0.2838441 -0.3142281,-0.2847237 -0.1105056,-8.377e-4 -0.1896522,0.047583 -0.1742191,0.1065963 0.00872,0.033359 -0.00984,0.049828 -0.069661,0.061787 -0.1625025,0.0325 -0.1357172,0.2545809 0.039534,0.3278069 0.199227,0.083245 0.443925,-0.023586 0.403973,-0.1763634 -0.016475,-0.063008 0.021426,-0.072448 0.044941,-0.011188 0.027885,0.072663 -0.011674,0.1634759 -0.085987,0.197388 -0.03927,0.017925 -0.1580681,0.039159 -0.2639929,0.047194 C 4.8124128,3.0493899 4.7382553,3.0072743 4.7361649,2.8429393 4.7347884,2.7318201 4.732211,2.728781 4.5738672,2.6513073 4.3923654,2.5624877 4.3623253,2.5690579 4.2639255,2.7191766 c -0.0328,0.050043 -0.071868,0.1055038 -0.086813,0.1232483 -0.041056,0.048744 -0.033435,0.061231 0.03738,0.061231 0.035499,0 0.069135,0.013746 0.074735,0.030547 0.00755,0.02262 0.025814,0.022171 0.070487,-0.00176 0.093237,-0.049896 0.1206449,-0.021858 0.057321,0.058644 -0.065501,0.083275 -0.1330986,0.091836 -0.2289631,0.029024 -0.063165,-0.041383 -0.070128,-0.0407 -0.126835,0.012574 l -0.060001,0.056369 -0.086566,-0.05264 c -0.1050406,-0.063876 -0.1586436,-0.068777 -0.0989,-0.00898 0.026491,0.026486 0.040349,0.075972 0.035302,0.1260296 l -0.00832,0.082416 0.2003406,0.035809 c 0.191265,0.034188 0.6902424,0.028702 0.8948519,-0.00983 0.06126,-0.011539 0.070698,-0.0084 0.040067,0.013297 -0.022036,0.01562 -0.084435,0.028585 -0.1386618,0.028809 -0.054225,2.118e-4 -0.1060218,0.012428 -0.115102,0.02712 -0.00908,0.014693 -0.068128,0.02671 -0.1312183,0.02671 -0.280505,0 -0.5965121,0.061758 -0.3562764,0.069626 0.047749,0.00156 0.1679518,0.012311 0.2671209,0.023899 0.1755871,0.020501 0.180305,0.023049 0.180305,0.097323 0,0.04195 0.012021,0.076275 0.026711,0.076275 0.014691,0 0.026711,-0.012018 0.026711,-0.02671 0,-0.035877 0.2058463,-0.034306 0.228125,0.00176 0.00967,0.015649 0.050922,0.024953 0.09167,0.020677 0.04075,-0.0043 0.1178259,0.015786 0.1712809,0.044566 0.080739,0.043482 0.1061841,0.046724 0.150314,0.019164 0.066646,-0.041618 0.069598,-0.00254 0.00425,0.056633 -0.06344,0.057414 -0.10572,0.055627 -0.2115928,-0.00888 -0.057925,-0.035311 -0.086678,-0.04195 -0.086405,-0.019935 7.184e-4,0.058624 0.042498,0.1015842 0.1185593,0.1219264 l 0.074346,0.019877 0.00671,0.3146967 0.00672,0.3146967 0.088859,0.09168 c 0.07431,0.076665 0.1078201,0.09168 0.2046617,0.09168 0.070102,0 0.1193033,-0.013179 0.1246738,-0.033388 0.045515,-0.1712956 0.060376,-0.1939008 0.1369551,-0.2083426 0.050011,-0.00947 0.076825,-0.029327 0.072215,-0.053587 -0.01329,-0.069929 -0.095456,-0.2514139 -0.1353783,-0.2990259 -0.034752,-0.041442 -0.034236,-0.046753 0.00455,-0.046753 0.058936,0 0.2748501,-0.210009 0.3094376,-0.3009813 0.015266,-0.040144 0.017613,-0.072985 0.0052,-0.072985 -0.012393,0 -0.029352,-0.050824 -0.037685,-0.1129517 C 6.0567357,3.4766088 6.0354182,3.4209437 6.0176923,3.4150374 5.938686,3.388698 5.7793441,3.214458 5.7793441,3.1543998 c 0,-0.0695 0.046317,-0.086564 0.069685,-0.025666 0.021683,0.056506 0.1929844,0.1291751 0.2630537,0.1115889 0.033602,-0.0084 0.1047509,-0.063662 0.1581137,-0.122725 0.083628,-0.092569 0.092581,-0.114504 0.064851,-0.1589079 C 6.2954045,2.8952139 6.2078831,2.8695384 6.1617261,2.9078466 6.1030591,2.9565324 5.9956144,2.9109706 5.9778592,2.8298829 5.947729,2.6922544 5.941808,2.6857194 5.8528369,2.6918424 c -0.047766,0.00332 -0.1169004,0.00332 -0.1536292,2.119e-4 -0.06186,-0.00537 -0.062844,-0.00742 -0.013356,-0.028721 0.1133361,-0.048696 0.2197673,-0.029629 0.2981591,0.053421 0.061483,0.065145 0.097353,0.080131 0.1917122,0.080131 0.1782337,0 0.2859102,0.1135111 0.2216237,0.2336315 -0.018414,0.034413 -0.011458,0.064335 0.02561,0.1101098 0.027993,0.034569 0.051161,0.09458 0.051484,0.1333554 8.979e-4,0.1095436 0.088902,0.2775092 0.1889968,0.3607769 0.049993,0.041588 0.1862684,0.1376238 0.3028383,0.2134144 0.2280155,0.1482511 0.2527588,0.1804949 0.4827283,0.6290693 0.1431698,0.2792626 0.1406392,0.269543 0.1780141,0.6836547 0.026963,0.2987906 0.024987,0.3341398 -0.029154,0.5208837 C 7.5659202,5.7919679 7.523871,5.9374768 7.5044279,6.0051322 7.4506089,6.1924052 7.0589013,6.808998 6.8574868,7.02349 6.8123545,7.071551 6.7388282,7.1649659 6.6940912,7.2310779 c -0.044737,0.066112 -0.1186036,0.1555086 -0.1641445,0.198659 -0.045539,0.04315 -0.082804,0.088224 -0.082804,0.1001706 0,0.044273 0.1535701,0.019974 0.2003406,-0.031709 0.098857,-0.1092361 0.1971043,-0.036053 0.1584352,0.1180116 -0.016499,0.065751 -0.1304441,0.1829589 -0.2041946,0.21005 -0.022359,0.0082 0.00659,0.055129 0.082818,0.1341872 l 0.117195,0.1215574 -0.06856,0.1154558 c -0.096464,0.1624442 -0.2072252,0.2750464 -0.3343403,0.3398951 -0.060073,0.030651 -0.1386649,0.085163 -0.1746472,0.1211452 -0.035979,0.035979 -0.1057158,0.087435 -0.1549649,0.1143406 -0.049245,0.026904 -0.120369,0.069579 -0.1580443,0.094831 -0.092109,0.061735 -0.4577538,0.153109 -0.6126821,0.153109 -0.068772,0 -0.1840484,0.0179 -0.2561681,0.03978 -0.1790024,0.054303 -0.7366994,0.051465 -0.8649968,-0.00443 z M 5.5450471,8.63431 C 5.7026669,8.602605 5.8409013,8.566629 5.8522349,8.55435 5.8635669,8.542069 5.8427849,8.540848 5.8060609,8.55162 5.7693339,8.562402 5.4217402,8.582929 5.0336349,8.597231 4.4121891,8.6201378 4.3038183,8.6179646 4.1254266,8.5790521 4.0140176,8.5547531 3.7726098,8.5245214 3.5889648,8.5118711 3.1439484,8.4812167 3.0384612,8.4644739 3.0002142,8.4183849 c -0.01769,-0.021321 -0.043863,-0.038757 -0.058164,-0.038757 -0.014301,0 -0.06215,-0.025744 -0.106339,-0.057208 -0.066213,-0.047153 -0.084484,-0.050668 -0.1038846,-0.020033 -0.034853,0.055041 -0.029645,0.077114 0.02239,0.094892 0.025712,0.00879 0.077484,0.051703 0.1150547,0.09537 0.063311,0.073592 0.086767,0.081039 0.3205443,0.1017665 0.2607837,0.02312 0.7928842,0.097931 0.8398991,0.1180821 0.014691,0.0063 0.2971707,0.00425 0.6277322,-0.00455 0.4590296,-0.012225 0.6687246,-0.029622 0.8876012,-0.073641 z M 4.9084387,8.0067445 C 5.0024697,7.9851305 5.0565999,7.9441375 5.0577169,7.893702 5.0579187,7.883539 4.9733429,7.882329 4.8697205,7.891062 L 4.681314,7.906858 4.742837,7.809574 C 4.788903,7.736736 4.832999,7.7047057 4.918342,7.6820907 5.1090808,7.6315497 5.0892722,7.5943747 4.882028,7.6139477 c -0.1014816,0.00957 -0.2506246,0.019144 -0.3314283,0.021253 -0.080804,0.00205 -0.1168657,0.00859 -0.080136,0.014341 0.1853104,0.02918 0.1869842,0.030508 0.1869842,0.1470122 V 7.9069235 L 4.1298856,7.8886187 C 3.5152944,7.8672973 3.4019835,7.8538835 3.4019835,7.8024544 c 0,-0.025715 0.03389,-0.037147 0.1101189,-0.037147 0.092324,0 0.1050095,-0.00615 0.078499,-0.038093 -0.017391,-0.02095 -0.084929,-0.06002 -0.1500864,-0.086809 -0.090537,-0.037234 -0.1184911,-0.06289 -0.118567,-0.1088182 -1.114e-4,-0.070456 0.00642,-0.071384 0.1468154,-0.020804 0.058764,0.021165 0.1429093,0.038162 0.1869841,0.037761 0.06344,-5.926e-4 0.046742,-0.01194 -0.080136,-0.054504 -0.08815,-0.029571 -0.1850876,-0.076802 -0.2154182,-0.1049435 -0.030333,-0.028145 -0.067924,-0.051175 -0.083543,-0.051175 -0.015619,0 -0.04336,-0.018031 -0.061651,-0.040065 -0.018289,-0.022034 -0.068266,-0.040066 -0.1110589,-0.040066 -0.069528,0 -0.074763,0.00566 -0.049215,0.053421 0.025096,0.046889 0.020318,0.053421 -0.039127,0.053421 -0.048215,0 -0.06772,0.014312 -0.06772,0.049691 0,0.027335 -0.00764,0.1054648 -0.01699,0.1736279 -0.020115,0.1467282 0.017229,0.1640909 0.079821,0.037117 l 0.042797,-0.086818 5.92e-4,0.1099243 c 6.586e-4,0.1212275 0.081182,0.2505773 0.1561406,0.2508526 0.024647,8.01e-5 0.074858,0.015776 0.1115874,0.034862 0.058159,0.030225 0.1485228,0.057765 0.3606119,0.109939 0.083821,0.020619 1.1099983,-0.010387 1.2259827,-0.037049 z M 2.9064189,7.9015121 c 0.034494,-0.066707 0.0348,-0.08181 0.00222,-0.1088671 -0.030388,-0.025217 -0.037248,-0.0218 -0.034781,0.017348 0.00168,0.026828 -0.00581,0.075816 -0.016661,0.108867 -0.027921,0.085032 0.00168,0.074596 0.049257,-0.017348 z M 4.96638,7.2827383 C 5.4733649,7.1768674 5.5230449,7.1607006 5.6645683,7.0555326 5.7409343,6.9987826 5.7998454,6.948784 5.7954831,6.9444231 c -0.00437,-0.00439 -0.05031,0.00977 -0.1021085,0.031416 C 5.3686273,7.1115267 4.653933,7.1522804 3.8560848,7.0806058 3.4985422,7.048487 3.3345121,7.0225284 3.2628072,6.9866998 3.2083,6.9594721 3.1531313,6.9371842 3.1402125,6.9371842 c -0.023988,0 -0.085488,0.1158795 -0.085488,0.1610791 0,0.050814 0.264469,0.1594507 0.3931143,0.1614784 0.070273,0.00107 0.229943,0.017563 0.3548216,0.036561 0.3688421,0.056125 0.8572552,0.050424 1.1637192,-0.01357 z M 6.4303936,6.7967128 C 6.5204141,6.7047594 6.6801203,6.5503627 6.785298,6.4536149 7.037294,6.2218168 7.148639,6.0073132 7.1954922,5.6633922 7.2422285,5.3203314 7.2201085,5.1424002 7.1010679,4.9038523 6.9276084,4.5562519 6.4519089,4.2302248 6.3652527,4.3995523 6.2973171,4.5323005 6.261158,4.6481888 6.2360639,4.8135888 c -0.015601,0.1028406 -0.040708,0.2465883 -0.055794,0.3194384 -0.019683,0.095058 -0.015769,0.3649387 0.013865,0.9559087 0.022707,0.4529002 0.034123,0.8350454 0.025365,0.8492118 -0.00876,0.014165 -0.00174,0.025763 0.015648,0.025763 0.017361,0 0.105219,-0.07524 0.195239,-0.1671924 z M 4.2300531,6.7397093 c 0,-0.00576 -0.018031,-0.017416 -0.040068,-0.025871 -0.022036,-0.00849 -0.040067,-0.00371 -0.040067,0.010505 0,0.014234 0.018031,0.025871 0.040067,0.025871 0.022036,0 0.040068,-0.00469 0.040068,-0.010505 z M 3.2640446,6.6562102 c 0.029112,-0.03701 0.06143,-0.1291155 0.071823,-0.2046874 0.010392,-0.075572 0.039607,-0.1985556 0.064917,-0.2732948 0.041295,-0.1219381 0.054842,-0.1367606 0.1319408,-0.1443715 0.047258,-0.00469 0.1687643,0.010358 0.2700155,0.033388 0.1012523,0.02303 0.2658643,0.040231 0.3658051,0.03823 L 4.3502567,6.1018625 4.1286521,6.0804532 C 4.0067693,6.0686796 3.8685348,6.0473484 3.8214643,6.0330658 3.7743922,6.0187734 3.6817889,5.999385 3.6156772,5.9899837 3.4665498,5.9687696 3.3752686,5.9114049 3.3752686,5.8389033 c 0,-0.051195 0.010195,-0.053918 0.1367725,-0.036502 0.075224,0.010348 0.2044437,0.050541 0.287154,0.089317 0.1334632,0.062578 0.1804338,0.070115 0.417502,0.067049 0.2412234,-0.00312 0.8708971,-0.082259 1.1085478,-0.1393174 0.051424,-0.01234 0.1415737,-0.047846 0.2003406,-0.078891 l 0.1068479,-0.056447 -0.098815,-0.00117 C 5.4792735,5.6822828 5.3049753,5.7071421 5.1462958,5.7381577 4.896432,5.7869998 4.7969571,5.7925644 4.4036813,5.7797364 3.8180604,5.7606311 3.3593271,5.6878513 3.3836011,5.6179076 c 0.013068,-0.037664 0.6715419,-0.029014 1.0435944,0.013697 0.2130392,0.024465 0.2928647,0.023225 0.4140359,-0.00635 L 4.9913454,5.5885711 4.8577851,5.5682064 C 4.7843268,5.5570088 4.507858,5.5361755 4.2434094,5.5219319 3.7577035,5.4957586 3.6043347,5.4766142 3.4220152,5.4193959 3.1732008,5.341315 3.1300509,5.3304396 3.1177492,5.3427404 c -0.00721,0.00722 0.00102,0.065409 0.018276,0.1293342 0.021743,0.080492 0.026694,0.2785206 0.016097,0.6441749 -0.018349,0.6334664 -0.00651,0.6905802 0.1119154,0.5400242 z M 4.9341937,5.2640591 C 5.1515167,5.2342736 5.0681023,5.2124152 4.730903,5.2107947 4.5509309,5.2098975 4.2245192,5.1951843 4.0055427,5.1780413 c -0.3593044,-0.028145 -0.4904604,-0.0259 -0.387011,0.00664 0.2471398,0.077642 0.9979751,0.122972 1.315662,0.079428 z M 3.3338655,5.1226632 C 3.2972515,5.0868542 3.140744,5.0527442 3.1749287,5.0880162 c 0.014691,0.015161 0.050754,0.033349 0.080136,0.040417 0.09109,0.021907 0.1059871,0.020823 0.0788,-0.00576 z M 7.3932951,4.8884236 C 7.3581363,4.6351353 7.2716061,4.3718354 7.2054813,4.3169562 7.1829239,4.2982317 7.141233,4.2373719 7.1128337,4.1817049 7.0547046,4.0677623 6.9083223,3.8920218 6.8715444,3.8920218 c -0.013296,0 -0.074585,-0.036522 -0.1361954,-0.081146 l -0.1120184,-0.081146 -0.032015,0.061113 c -0.017613,0.033612 -0.031902,0.073131 -0.031764,0.087824 1.005e-4,0.014693 0.077853,0.090723 0.172698,0.1689536 0.1780032,0.1468248 0.4957997,0.5915714 0.5328506,0.7457093 0.00974,0.040524 0.041822,0.1217624 0.071295,0.1805291 0.029471,0.05877 0.051807,0.1098531 0.049634,0.1135257 -0.013751,0.023254 -1.012e-4,0.060899 0.017978,0.049701 0.012063,-0.00742 0.00723,-0.1193521 -0.010704,-0.2486629 z M 3.222153,4.2499295 c 0.011117,-0.011119 0.055639,0.00596 0.098939,0.037996 0.049341,0.036483 0.117757,0.058204 0.183297,0.058204 0.057512,0 0.1556755,0.018031 0.2181355,0.040065 0.1217787,0.042965 0.4541044,0.055295 0.4541044,0.01685 0,-0.027882 -0.1570931,-0.056222 -0.3138664,-0.056623 -0.077621,-2.118e-4 -0.1304221,-0.017192 -0.1669497,-0.053714 -0.029381,-0.029385 -0.077465,-0.053421 -0.106848,-0.053421 -0.064755,0 -0.071623,-0.07483 -0.00907,-0.098833 0.024395,-0.00937 0.1494932,-0.00215 0.2779967,0.01605 0.2695658,0.038152 0.8432657,-0.00312 0.9598256,-0.069168 l 0.066781,-0.037801 -0.066781,0.013482 c -0.3985704,0.080443 -0.8263164,0.081361 -1.4815308,0.00312 -0.1757564,-0.02097 -0.3249359,-0.032744 -0.3315102,-0.026173 -0.00657,0.00654 0.00655,0.033066 0.029184,0.058858 0.078697,0.089747 0.1277377,0.2186762 0.1316404,0.3460941 l 0.00395,0.1282076 0.016259,-0.1515167 c 0.00894,-0.083333 0.025352,-0.1606144 0.03647,-0.171731 z M 2.862945,3.9493631 C 2.86767,3.9003356 2.8619872,3.840333 2.8503493,3.8160213 2.8387114,3.7917126 2.8288522,3.6672752 2.8284392,3.5395011 c -6.585e-4,-0.2027438 0.00545,-0.2339449 0.047969,-0.2451035 0.026801,-0.00703 0.055584,-0.039011 0.063967,-0.071061 0.012722,-0.048657 0.02931,-0.055988 0.10048,-0.044439 0.04688,0.00761 0.1006531,0.0043 0.1194913,-0.00732 0.020773,-0.012838 0.053908,-0.00146 0.084208,0.02879 0.043474,0.043473 0.076869,0.047817 0.2572894,0.033485 0.2342354,-0.018607 0.2749117,-0.039568 0.2266972,-0.116764 -0.018001,-0.028819 -0.032722,-0.07605 -0.032722,-0.1049708 0,-0.038923 -0.024239,-0.057121 -0.093316,-0.070085 -0.051322,-0.00966 -0.120442,-0.010876 -0.1535946,-0.00283 -0.033153,0.0081 -0.08361,-0.00254 -0.1121292,-0.023772 -0.084684,-0.062871 -0.1424477,-0.045943 -0.1907849,0.05592 -0.051346,0.10821 -0.09564,0.1375182 -0.2435648,0.1611728 -0.095761,0.015318 -0.1123303,0.00888 -0.1783486,-0.069617 -0.07183,-0.085364 -0.084961,-0.1858438 -0.026784,-0.2049754 0.018486,-0.00605 0.025251,0.014429 0.017726,0.053792 -0.030549,0.1598071 0.1992404,0.2084148 0.3364791,0.071179 0.08807,-0.088068 0.08673,-0.1304667 -0.00743,-0.2351339 -0.046868,-0.052103 -0.073042,-0.059688 -0.1587422,-0.04604 -0.157663,0.025109 -0.3080158,0.1122908 -0.3274905,0.1898835 -0.010602,0.042252 0.00432,0.1185515 0.0399,0.2042052 0.031256,0.075211 0.053711,0.1378725 0.049891,0.1392403 -0.00383,0.00137 -0.043001,0.021341 -0.087075,0.044371 -0.072784,0.038035 -0.079496,0.052747 -0.073164,0.1602718 0.00575,0.097596 0.023288,0.1324641 0.099887,0.1985273 0.075252,0.064901 0.096209,0.1055253 0.1102441,0.2136953 0.00953,0.073463 0.029585,0.1491015 0.044575,0.1680955 0.048353,0.061289 0.1117389,0.024221 0.1208527,-0.070691 z M 3.0314345,3.6304265 c -0.00551,-0.1041244 0.00681,-0.1653776 0.047065,-0.2335992 0.030004,-0.050853 0.049939,-0.092471 0.044288,-0.092471 -0.00562,0 -0.02928,-0.00732 -0.052525,-0.016216 -0.027484,-0.010544 -0.042252,-0.00146 -0.042252,0.025773 0,0.023098 -0.024042,0.054856 -0.053424,0.070573 -0.029387,0.015728 -0.053424,0.052376 -0.053424,0.081439 0,0.029063 -0.0135,0.074459 -0.029998,0.1008813 -0.039817,0.063749 0.039008,0.2256876 0.1037786,0.2132131 0.035398,-0.00683 0.042516,-0.036014 0.036488,-0.1496004 z m 3.1218838,-0.058946 c 0,-0.014693 -0.012733,-0.02671 -0.028292,-0.02671 -0.015559,0 -0.020863,0.012018 -0.011782,0.02671 0.00908,0.014693 0.021809,0.02671 0.028286,0.02671 0.00648,0 0.011781,-0.012018 0.011781,-0.02671 z m 0.2260556,-0.05425 c 0.058667,0.048686 0.067007,-0.093154 0.010901,-0.1854152 -0.059978,-0.098627 -0.1397663,-0.1038257 -0.247038,-0.016099 -0.073283,0.059932 -0.078885,0.1341667 -0.00807,0.1069927 0.018456,-0.00713 0.069158,0.024377 0.112671,0.06991 0.062509,0.065409 0.080984,0.073668 0.088024,0.039333 0.00663,-0.032324 0.017774,-0.036092 0.043521,-0.014722 z M 3.6149284,3.3855242 c 0.050675,-0.03205 0.016344,-0.044224 -0.1820267,-0.064589 -0.1204858,-0.012369 -0.1378609,-0.00879 -0.1115862,0.022854 0.04882,0.058829 0.226623,0.084095 0.2936129,0.041735 z M 3.9762891,2.9571045 c -0.048137,-0.053186 -0.146916,-0.073893 -0.146916,-0.030791 0,0.026173 0.1025574,0.07975 0.1577342,0.082406 0.02828,0.00137 0.025616,-0.011364 -0.010818,-0.051615 z m 0.1202037,-0.02671 c 0,-0.014693 -0.012727,-0.02671 -0.028292,-0.02671 -0.015559,0 -0.020863,0.012018 -0.011782,0.02671 0.00908,0.014693 0.021809,0.02671 0.028292,0.02671 0.00647,0 0.011781,-0.012018 0.011781,-0.02671 z M 5.4740695,4.411004 C 5.4175325,4.354469 5.4210835,4.316991 5.4931125,4.2098438 5.5681055,4.098296 5.6517663,4.0804461 5.7099889,4.1635698 c 0.066763,0.095322 0.051155,0.1498063 -0.063669,0.2222933 -0.1256083,0.079291 -0.1190537,0.078335 -0.1722508,0.025139 z M 5.6522804,3.7809845 c -0.043378,-0.043375 -0.042504,-0.1418147 0.00155,-0.1784008 0.019127,-0.015874 0.061199,-0.021956 0.093492,-0.013511 0.043348,0.011334 0.058709,0.035506 0.058709,0.092373 0,0.04236 4.041e-4,0.086037 7.782e-4,0.097059 0.00144,0.035067 -0.1200797,0.03701 -0.1546122,0.00254 z M 5.2053621,3.3911767 c 0.00491,-0.025715 0.00987,-0.061768 0.010992,-0.080141 0.00293,-0.047768 0.055471,-0.041442 0.055471,0.00664 0,0.025207 0.025425,0.040065 0.06858,0.040065 0.056423,0 0.065574,-0.00947 0.051621,-0.053421 -0.018899,-0.059551 0.012374,-0.070437 0.061438,-0.02137 0.042241,0.042242 0.040457,0.062578 -0.00993,0.1129537 -0.02358,0.023586 -0.086917,0.041979 -0.1445519,0.041979 -0.083293,0 -0.1008943,-0.00879 -0.093628,-0.046743 z M 3.8900629,2.1234073 c -0.1620637,-0.078218 -0.1013338,-0.348273 0.086232,-0.3834612 0.1259999,-0.023635 0.2804709,0.086418 0.2804709,0.1998208 0,0.1626558 -0.2013056,0.2634658 -0.3667025,0.1836404 z m 0.2132354,-0.09454 c 0.055339,-0.061895 0.061504,-0.111583 0.02485,-0.2003402 -0.04014,-0.097196 -0.1415371,-0.098633 -0.2167022,-0.00312 -0.061918,0.078715 -0.071648,0.1697678 -0.023311,0.218107 0.047185,0.047182 0.1671587,0.038992 0.2151589,-0.014693 z M 5.1734991,1.5947897 C 4.9538713,1.497134 4.9073084,1.2931182 5.0554906,1.0777418 5.1537928,0.93486399 5.2074694,0.90028407 5.3309466,0.90028407 c 0.1621677,0 0.3682673,0.25439923 0.3682673,0.45457253 0,0.1014748 -0.06341,0.2291084 -0.1320803,0.2658605 -0.078459,0.041989 -0.269136,0.029434 -0.3936345,-0.025929 z M 5.537379,1.4762548 C 5.574692,1.4365308 5.603723,1.3652771 5.611808,1.2935419 5.624027,1.185121 5.616838,1.1672751 5.519359,1.0648269 5.461224,1.0037134 5.3893966,0.95370766 5.3597498,0.95370766 c -0.030159,0 -0.1084684,0.0583312 -0.1777644,0.13241624 -0.1811767,0.1936919 -0.1688726,0.2952429 0.049766,0.410768 0.1198625,0.06333 0.2339803,0.055627 0.3056259,-0.020638 z"
       id="path1"
       sodipodi:nodetypes="sssssssssssssssssssssssssssssscsssssssssssssssssssssscssscssscssscssssssssssssssscccssssssssssssssssssscsssssssssssssssssssscsssssssssssssssssssssssssscscsssssscssssscsssssssssssscscssssssssssssssssssssssssssssssssssssssssssscssssssssscsssssscsssssssssssssssssssssscscssssssssssscssssscssssscsssssssssssssssssssssssssssssssssssssssssssssssssssssssssssssssssssssssssssssssssssssssssssssssssssssssssssssss"
       transform="translate(5.9999979,28.039034)" /></g></svg>
