<?xml version="1.0" encoding="UTF-8" standalone="no"?>
<!-- Created with Inkscape (http://www.inkscape.org/) -->

<svg
   width="194mm"
   height="10mm"
   viewBox="0 0 194 10"
   version="1.1"
   id="svg1"
   inkscape:version="1.4.2 (2aeb623e1d, 2025-05-12)"
   sodipodi:docname="StarostaRowSetList.svg"
   xml:space="preserve"
   xmlns:inkscape="http://www.inkscape.org/namespaces/inkscape"
   xmlns:sodipodi="http://sodipodi.sourceforge.net/DTD/sodipodi-0.dtd"
   xmlns="http://www.w3.org/2000/svg"
   xmlns:svg="http://www.w3.org/2000/svg"><sodipodi:namedview
     id="namedview1"
     pagecolor="#ffffff"
     bordercolor="#000000"
     borderopacity="0.25"
     inkscape:showpageshadow="2"
     inkscape:pageopacity="0.0"
     inkscape:pagecheckerboard="0"
     inkscape:deskcolor="#d1d1d1"
     inkscape:document-units="mm"
     inkscape:zoom="8.1725384"
     inkscape:cx="732.08588"
     inkscape:cy="11.073671"
     inkscape:window-width="1920"
     inkscape:window-height="940"
     inkscape:window-x="0"
     inkscape:window-y="0"
     inkscape:window-maximized="1"
     inkscape:current-layer="svg1"
     showgrid="true"><inkscape:grid
       id="grid1"
       units="mm"
       originx="0"
       originy="0"
       spacingx="0.99999995"
       spacingy="0.99999997"
       empcolor="#0099e5"
       empopacity="0.30196078"
       color="#0099e5"
       opacity="0.14901961"
       empspacing="5"
       enabled="true"
       visible="true" /></sodipodi:namedview><defs
     id="defs1" /><g
     id="g5"
     inkscape:label="Row"
     style="display:inline;stroke:none;stroke-width:1.00177;stroke-dasharray:none;stroke-opacity:1"
     transform="matrix(0.2647424,0,0,0.26432057,-6.0036072,-15.984109)"><rect
       style="display:inline;opacity:1;fill:#fa0000;fill-opacity:0.307692;stroke:none;stroke-width:0.989325;stroke-dasharray:none;stroke-opacity:1"
       id="rect4"
       width="596.80646"
       height="37.832848"
       x="158.65842"
       y="60.472439"
       inkscape:label="Popis" /><rect
       style="display:inline;fill:#fa0000;fill-opacity:0.307692;stroke:none;stroke-width:1.00177;stroke-dasharray:none;stroke-opacity:1"
       id="rect4-42"
       width="98.208679"
       height="37.832848"
       x="60.449734"
       y="60.472439"
       inkscape:label="Jmeno" /><rect
       style="display:inline;opacity:1;fill:#fa0000;fill-opacity:0.307692;stroke:none;stroke-width:1.00177;stroke-dasharray:none;stroke-opacity:1"
       id="rect5"
       width="37.772568"
       height="37.832848"
       x="22.677166"
       y="60.472439"
       inkscape:label="Logo" /></g><g
     inkscape:label="Layer 1"
     inkscape:groupmode="layer"
     id="layer1"
     transform="translate(-5.9999979,-28.039034)"
     style="display:inline"><text
       xml:space="preserve"
       style="font-size:3.80938px;font-family:'New Rocker';-inkscape-font-specification:'New Rocker';text-align:start;letter-spacing:0px;writing-mode:lr-tb;direction:ltr;text-anchor:start;fill:#000000;fill-opacity:1;stroke:none;stroke-width:0.0504741"
       x="18.035286"
       y="34.122803"
       id="text1"
       inkscape:label="Role"><tspan
         style="letter-spacing:0px;fill:#000000;fill-opacity:1;stroke:none;stroke-width:0.0504743"
         x="18.035286"
         y="34.122803"
         sodipodi:role="line"
         id="tspan8">Starosta</tspan></text><text
       xml:space="preserve"
       style="font-size:3px;font-family:'New Rocker';-inkscape-font-specification:'New Rocker';text-align:start;letter-spacing:0px;writing-mode:lr-tb;direction:ltr;text-anchor:start;fill:#000000;fill-opacity:1;stroke:none;stroke-width:0.040981"
       x="42.755661"
       y="32.303787"
       id="text2"
       inkscape:label="Popis"><tspan
         sodipodi:role="line"
         style="font-style:normal;font-variant:normal;font-weight:normal;font-stretch:normal;font-size:3px;font-family:'Didact Gothic';-inkscape-font-specification:'Didact Gothic';letter-spacing:0px;stroke-width:0.0409811"
         x="42.755661"
         y="32.303787"
         id="tspan9">Pokud žijí pouze 3 hráči &amp; neproběhne poprava, pak tvůj tým vyhraje. </tspan><tspan
         sodipodi:role="line"
         style="font-style:normal;font-variant:normal;font-weight:normal;font-stretch:normal;font-size:3px;font-family:'Didact Gothic';-inkscape-font-specification:'Didact Gothic';letter-spacing:0px;stroke-width:0.0409811"
         x="42.755661"
         y="36.083683"
         id="tspan10">Pokud v noci zemřeš, může místo tebe zemřít někdo jiný.</tspan></text><path
       style="fill:#000000;stroke-width:0.0348302"
       d="m 10.879864,36.696323 c 0,-0.02239 -0.751386,-0.03773 -2.1333572,-0.04354 L 6.61315,36.643883 v -0.22643 -0.226398 l 0.1650991,-0.0819 0.1650991,-0.0819 1.4022653,0.0362 c 1.4625731,0.03776 1.6347921,0.05105 1.7013675,0.131262 0.02785,0.03356 0.12016,0.04858 0.298504,0.04858 0.187487,0 0.283479,0.01669 0.35055,0.06095 0.0508,0.03353 0.187392,0.107975 0.303539,0.165446 0.152447,0.07544 0.214273,0.126286 0.222308,0.182859 0.01024,0.07243 -0.0023,0.07837 -0.165443,0.07837 -0.09712,0 -0.176575,-0.01555 -0.176575,-0.03456 z m 1.010079,0.0044 c 0,-0.01655 -0.07446,-0.05779 -0.165443,-0.09166 -0.091,-0.03386 -0.330547,-0.137519 -0.532337,-0.230347 -0.317002,-0.145828 -0.408179,-0.171953 -0.670484,-0.192115 -0.322987,-0.02483 -0.386669,-0.05988 -0.172978,-0.0952 0.14972,-0.02474 3.247928,-0.0307 3.247928,-0.0062 0,0.0088 -0.03179,0.101073 -0.07065,0.204928 -0.05234,0.139888 -0.106494,0.213661 -0.208982,0.284685 -0.07608,0.05273 -0.138335,0.109409 -0.138335,0.125961 0,0.01655 -0.289963,0.03009 -0.644362,0.03009 -0.354398,0 -0.64436,-0.01355 -0.64436,-0.0301 z m 1.393212,0.02117 c 0,-0.03925 0.419129,-0.443855 0.459779,-0.443855 0.02877,0 0.129085,-0.04311 0.222933,-0.09578 0.166254,-0.09333 0.183839,-0.09565 0.685594,-0.09061 0.509316,0.0052 0.515988,0.0063 0.60853,0.09875 0.07348,0.07347 0.09783,0.138134 0.113407,0.301071 0.01092,0.114125 0.01266,0.214674 0.0039,0.223439 -0.01628,0.01628 -2.094146,0.02322 -2.094146,0.007 z M 9.3124994,35.914738 c 0,-0.05109 -0.2004393,-0.214092 -0.2286165,-0.185915 -0.00859,0.0086 0.015822,0.04408 0.05425,0.07886 0.038428,0.03479 0.069874,0.07648 0.069874,0.09267 0,0.01619 -0.5407407,0.02943 -1.2016455,0.02943 H 6.8047145 v -0.113741 c 0,-0.06256 0.029248,-0.168355 0.064995,-0.235105 l 0.064995,-0.121362 0.64032,-0.01741 c 0.3521756,-0.0096 1.50237,-0.0096 2.5559865,0 l 1.915668,0.01741 0.01067,0.191567 c 0.0058,0.105362 0.02353,0.20451 0.03921,0.220329 0.01568,0.01582 0.02106,-0.01024 0.01195,-0.05785 -0.02548,-0.133267 0.03607,-0.20485 0.239404,-0.278469 0.167693,-0.06072 0.308415,-0.06886 1.405413,-0.08143 0.745792,-0.0085 1.238521,-9.45e-4 1.269188,0.01948 0.04752,0.03171 0.114177,0.408471 0.08232,0.465276 -0.0081,0.01438 -1.314638,0.02612 -2.903512,0.02612 -2.4835979,0 -2.8888606,-0.007 -2.8888606,-0.04987 z M 9.0147004,35.689514 C 8.9697594,35.647024 8.5559618,35.4885 8.4142163,35.459473 c -0.063031,-0.01291 -0.1962564,-0.01205 -0.2960575,0.0019 l -0.1814564,0.02539 0.1915665,0.06926 c 0.1053622,0.03808 0.3404663,0.08846 0.5224545,0.11193 0.1819881,0.02347 0.3457777,0.04495 0.363977,0.04774 0.020898,0.0031 0.020898,-0.0065 0,-0.02622 z M 7.8401932,35.490773 c -0.011576,-0.01157 -0.041614,-0.01281 -0.066757,-0.0028 -0.027783,0.01112 -0.019535,0.01938 0.02104,0.02105 0.036713,0.0015 0.057287,-0.0068 0.045717,-0.01829 z m 4.3029328,-0.03792 c 0.03389,-0.0088 0.08091,-0.0083 0.104489,0.0014 0.02358,0.0096 -0.0041,0.01677 -0.06161,0.01606 -0.05747,-6.57e-4 -0.07676,-0.0085 -0.04288,-0.01735 z M 8.398204,35.346392 7.18785,35.336792 v -0.114939 c 0,-0.08047 0.029301,-0.14301 0.097689,-0.20853 l 0.097689,-0.09359 h 1.6413385 c 1.4730515,0 1.6471795,0.0059 1.6983115,0.05698 0.03916,0.03916 0.06821,0.04574 0.09293,0.02103 0.02095,-0.02095 0.119738,-0.02835 0.236796,-0.01774 0.129865,0.01178 0.209415,0.0043 0.225094,-0.02101 0.01746,-0.02825 0.450585,-0.03791 1.546019,-0.0345 0.836975,0.0026 1.486505,0.01153 1.443403,0.01984 -0.15438,0.02973 -0.07451,0.07991 0.127206,0.07991 0.199266,0 0.206748,0.0033 0.243811,0.109688 0.02104,0.06033 0.03824,0.138697 0.03824,0.174153 0,0.06221 -0.08835,0.06417 -2.533904,0.05622 -1.393649,-0.0045 -3.0785652,-0.01258 -3.7442595,-0.01787 z M 7.7885653,34.78644 c -0.033055,-0.02099 -0.01809,-0.07768 0.061688,-0.233669 0.057928,-0.113275 0.098096,-0.224808 0.089253,-0.24785 -0.00885,-0.02304 0.00426,-0.05874 0.029032,-0.07933 0.033406,-0.02772 0.051475,-0.261075 0.069666,-0.899427 0.013506,-0.474097 0.031934,-1.122214 0.040952,-1.440262 0.013898,-0.490354 0.00829,-0.584992 -0.036908,-0.622502 -0.029315,-0.02432 -0.053298,-0.06582 -0.053298,-0.09221 0,-0.02639 -0.019588,-0.04809 -0.043537,-0.0482 -0.042619,-2.11e-4 -0.1654441,-0.183153 -0.1654441,-0.246415 0,-0.01833 0.2827182,-0.03201 0.6617755,-0.03201 0.7284814,0 0.7491052,0.0072 0.5582529,0.194469 -0.056936,0.05588 -0.1039591,0.120402 -0.1044914,0.143396 -5.264e-4,0.02299 -0.026602,0.05616 -0.057942,0.07369 -0.048877,0.02736 -0.060973,0.147547 -0.085145,0.846365 -0.040135,1.160305 -0.038921,2.077426 0.00277,2.103206 0.019156,0.01184 0.03483,0.06543 0.03483,0.119102 0,0.05367 0.039184,0.155315 0.087075,0.225888 0.100766,0.148486 0.1093362,0.213714 0.031982,0.243399 -0.081679,0.03134 -1.0697495,0.02461 -1.1205363,-0.0077 z m 0.4300385,-1.77369 c -0.00176,-1.357677 0.018205,-1.628317 0.1202057,-1.628317 0.052751,0 0.060493,0.634483 0.02812,2.304452 -0.010777,0.555763 0.00277,0.723546 0.054054,0.670637 0.00774,-0.008 0.023706,-0.500395 0.035485,-1.094253 0.026352,-1.32889 0.053864,-1.933082 0.088038,-1.933082 0.042991,0 0.089983,0.755954 0.072534,1.166816 -0.032873,0.773926 -0.020513,1.839497 0.021492,1.853526 0.029828,0.0099 0.038718,-0.380151 0.03483,-1.528799 l -0.00519,-1.542176 -0.1725357,-0.02892 c -0.3120124,-0.05231 -0.3185537,-0.04509 -0.3445851,0.380359 -0.012515,0.204496 -0.022747,0.902277 -0.022747,1.550623 0,0.9541 0.00877,1.178813 0.046048,1.178813 0.037415,0 0.045717,-0.253031 0.044286,-1.349675 z m -0.090335,-1.914386 c -0.028735,-0.01067 -0.075757,-0.03682 -0.1044914,-0.05821 -0.0454,-0.03377 -0.045981,-0.03087 -0.00445,0.02209 0.026291,0.03353 0.073312,0.05971 0.1044914,0.0582 0.047419,-0.0023 0.048147,-0.0059 0.00445,-0.02209 z m 0.1567366,-0.11448 0.069661,-0.02994 h -0.069661 c -0.038313,0 -0.1010085,0.01347 -0.1393216,0.02994 l -0.069661,0.02994 h 0.069661 c 0.038313,0 0.1010085,-0.01347 0.1393216,-0.02994 z m 1.2364761,3.746315 c 0,-0.04676 0.015255,-0.09445 0.033899,-0.105965 0.05346,-0.03304 0.1486515,-0.254426 0.1307256,-0.304022 -0.00891,-0.02467 0.00492,-0.06921 0.030699,-0.09897 0.037496,-0.04326 0.047229,-0.319499 0.048492,-1.375797 8.785e-4,-0.726924 10e-4,-1.376538 2.77e-4,-1.443586 -9.45e-4,-0.09161 -0.034904,-0.159184 -0.136558,-0.271879 -0.074402,-0.08248 -0.1432447,-0.180446 -0.1529843,-0.217691 -0.017077,-0.06536 0.00594,-0.06772 0.6616602,-0.06772 h 0.679351 l -0.06438,0.100373 c -0.0354,0.0552 -0.114386,0.158522 -0.175514,0.2296 l -0.111141,0.129232 -0.003,1.437243 c -0.0026,1.26642 0.0036,1.442642 0.05177,1.482665 0.0301,0.02498 0.04681,0.06604 0.03715,0.09123 -0.02223,0.05792 0.07341,0.29133 0.119369,0.29133 0.0189,0 0.03437,0.04702 0.03437,0.10449 v 0.104489 H 10.113582 9.5214666 Z m 0.4081471,-1.665203 c -0.0081,-1.344639 0.0097,-1.60535 0.1080474,-1.58636 0.05261,0.01013 0.05813,0.08145 0.0548,0.707397 -0.002,0.382857 -0.01588,1.011275 -0.03077,1.396487 -0.02107,0.545112 -0.01745,0.706326 0.01631,0.727192 0.02434,0.01504 0.05535,0.0074 0.07067,-0.01736 0.01501,-0.02429 0.02929,-0.670989 0.03173,-1.437105 0.0025,-0.766115 0.013,-1.406796 0.02346,-1.423735 0.06923,-0.112019 0.08389,0.141687 0.08389,1.452682 0,0.880104 0.01281,1.443403 0.03281,1.443403 0.01975,0 0.03565,-0.468084 0.03992,-1.175524 0.0089,-1.475773 0.0044,-1.721838 -0.03204,-1.758298 -0.07494,-0.07494 -0.4904294,-0.07151 -0.4439684,0.0037 0.0096,0.01561 0.0022,0.551967 -0.01646,1.191917 -0.03302,1.13025 -0.01893,1.738246 0.04028,1.738246 0.01591,0 0.02552,-0.568169 0.02133,-1.262598 z m 1.3162544,1.671855 c 0.01233,-0.04311 0.05099,-0.141063 0.08592,-0.217691 0.148264,-0.325234 0.150185,-0.352439 0.121551,-1.721267 -0.01505,-0.719934 -0.02878,-1.341556 -0.0305,-1.381382 -0.0036,-0.08113 -0.127654,-0.328136 -0.164935,-0.328136 -0.02193,0 -0.169475,-0.216736 -0.168772,-0.247923 1.7e-4,-0.0073 0.3058,-0.01712 0.679191,-0.02179 0.75017,-0.0094 0.758099,-0.0067 0.5744,0.194435 -0.05747,0.06292 -0.104489,0.12719 -0.104489,0.14282 0,0.01563 -0.0248,0.04899 -0.0551,0.07414 -0.0493,0.04093 -0.05255,0.190516 -0.03081,1.4236 0.02798,1.586626 0.02412,1.512398 0.08222,1.582422 0.02447,0.02949 0.0343,0.07013 0.02183,0.0903 -0.01247,0.02017 0.02537,0.107849 0.08408,0.194839 0.198041,0.293442 0.197095,0.293992 -0.505135,0.293992 h -0.611878 z m 0.409219,-1.840003 c -0.0074,-1.237467 0.0082,-1.495092 0.09252,-1.523091 0.04209,-0.01398 0.04606,0.165442 0.02732,1.236205 -0.02105,1.202341 -0.01165,1.508651 0.04627,1.508651 0.01466,0 0.0322,-0.617807 0.03898,-1.372904 0.0068,-0.755097 0.02409,-1.384654 0.03845,-1.399017 0.01436,-0.01437 0.03787,-0.01436 0.05224,2e-5 0.01436,0.01438 0.02228,0.635216 0.01758,1.379649 -0.0053,0.842672 0.0042,1.36136 0.0251,1.374306 0.06486,0.04009 0.08071,-0.172493 0.05426,-0.727915 -0.01468,-0.308152 -0.02094,-0.72485 -0.01392,-0.925995 0.007,-0.201145 0.01277,-0.535489 0.01277,-0.742989 0,-0.333269 -0.0079,-0.383032 -0.06761,-0.42667 -0.08355,-0.06105 -0.312245,-0.06479 -0.358829,-0.0058 -0.03922,0.0496 -0.08424,2.244158 -0.05362,2.613553 0.01229,0.148173 0.03381,0.231649 0.05767,0.223695 0.02675,-0.0089 0.03591,-0.36938 0.03082,-1.211633 z m 1.331714,1.883083 c -0.012,-0.01941 0.01948,-0.119684 0.06995,-0.222835 0.05047,-0.103153 0.08742,-0.208743 0.08211,-0.234647 -0.0053,-0.02591 0.007,-0.07844 0.02744,-0.116761 0.02526,-0.04745 0.02832,-0.264044 0.0096,-0.679191 -0.01512,-0.335242 -0.02836,-0.928167 -0.02944,-1.317613 -0.0011,-0.389445 -0.01337,-0.726429 -0.02734,-0.748852 -0.01397,-0.02243 -0.021,-0.07478 -0.01564,-0.116349 0.0066,-0.05108 -0.04715,-0.135749 -0.165836,-0.261228 -0.09658,-0.102107 -0.175906,-0.205239 -0.17628,-0.229185 -5e-4,-0.0316 0.08379,-0.04354 0.307374,-0.04354 0.16943,0 0.475066,-0.01024 0.679191,-0.02271 0.443462,-0.02714 0.455104,-0.01149 0.220764,0.296647 -0.186189,0.244825 -0.183587,0.201866 -0.110017,1.81588 0.04115,0.902505 0.0674,1.224708 0.105449,1.294286 0.02787,0.05095 0.04207,0.115055 0.03156,0.142449 -0.01056,0.02739 0.0052,0.06991 0.03471,0.09449 0.0296,0.02457 0.05383,0.06435 0.05383,0.08839 0,0.02404 0.02351,0.06323 0.05225,0.08707 0.02873,0.02385 0.05224,0.08063 0.05224,0.126171 v 0.08281 h -0.59006 c -0.360899,0 -0.59853,-0.01371 -0.611869,-0.03529 z m 0.4227,-1.304339 c -0.01305,-0.334505 -0.03952,-0.693575 -0.05881,-0.797934 -0.05715,-0.309131 -0.06353,-1.235783 -0.0088,-1.281182 0.02974,-0.02469 0.04577,-0.0255 0.04577,-0.0023 0,0.01962 0.03264,0.440814 0.07253,0.935975 0.03988,0.495162 0.08299,1.088378 0.09578,1.318258 0.01388,0.249539 0.0373,0.414617 0.05809,0.409656 0.05856,-0.01397 0.05936,-0.386734 0.0018,-0.845035 -0.07055,-0.562058 -0.122485,-1.204434 -0.123183,-1.523826 -4.34e-4,-0.196219 0.01056,-0.25252 0.04935,-0.25252 0.07743,0 0.109987,0.183349 0.142249,0.801097 0.0095,0.181989 0.03263,0.597341 0.05139,0.923004 0.01876,0.325663 0.03433,0.659654 0.0346,0.7422 3.16e-4,0.09108 0.01418,0.141622 0.03533,0.128557 0.05136,-0.03175 0.04181,-0.679536 -0.02002,-1.358382 -0.02967,-0.325663 -0.06243,-0.748852 -0.0728,-0.940418 -0.0216,-0.39877 -0.04516,-0.435379 -0.280298,-0.435379 -0.223756,0 -0.239927,0.05776 -0.187664,0.670319 0.0233,0.273073 0.05683,0.846257 0.07453,1.273742 0.03029,0.73205 0.04249,0.842364 0.09315,0.842364 0.01141,0 0.01002,-0.273685 -0.003,-0.60819 z M 7.6281493,30.614219 c 0.012271,-0.09362 0.025785,-0.174583 0.030031,-0.179935 0.011036,-0.0139 6.5001617,-0.119471 6.5129957,-0.105965 0.0058,0.0061 0.01612,0.08957 0.02281,0.185353 l 0.01217,0.174152 -1.18423,0.02136 c -0.651328,0.01176 -2.136399,0.03348 -3.30016,0.0483 l -2.1159277,0.02694 z m 0.082155,-0.265886 c 0.016558,-0.01738 0.2996248,-0.129926 0.6791918,-0.270036 0.4095595,-0.151183 0.7390963,-0.277042 1.7854209,-0.681896 0.199255,-0.07709 0.267772,-0.08437 0.794679,-0.08437 0.352079,0 0.604447,0.01489 0.648074,0.03824 0.06518,0.03488 0.513965,0.205431 0.725068,0.275541 0.04789,0.01591 0.282996,0.09797 0.522454,0.182362 0.239459,0.08439 0.607789,0.212941 0.818512,0.285659 0.210723,0.07272 0.395446,0.143415 0.410495,0.157103 0.01504,0.01369 -0.964554,0.03524 -2.176895,0.04788 -1.212341,0.01264 -2.6587921,0.03307 -3.2143355,0.04539 -0.5555436,0.01233 -1.0022425,0.01418 -0.9926642,0.0041 z"
       id="path1"
       sodipodi:nodetypes="sscccccsssssssssssssssssssssssssssssssscsscsscsssssssssssscsssssssssssssssscsscsssssssssssssssssssscssssssssssssssssssssscssssssssssscsscssssssscscscsscssssscccsssssssssssssscssssssscssssssssscsssssssssssssssssssssssssssssssssssssscsssssssssssssscssssssssssssscsscsssssssssssss" /></g></svg>
