<?xml version="1.0" encoding="UTF-8" standalone="no"?>
<!-- Created with Inkscape (http://www.inkscape.org/) -->

<svg
   width="194mm"
   height="10mm"
   viewBox="0 0 194 10"
   version="1.1"
   id="svg1"
   inkscape:version="1.4.2 (2aeb623e1d, 2025-05-12)"
   sodipodi:docname="VedmaRowSetList.svg"
   xml:space="preserve"
   xmlns:inkscape="http://www.inkscape.org/namespaces/inkscape"
   xmlns:sodipodi="http://sodipodi.sourceforge.net/DTD/sodipodi-0.dtd"
   xmlns="http://www.w3.org/2000/svg"
   xmlns:svg="http://www.w3.org/2000/svg"><sodipodi:namedview
     id="namedview1"
     pagecolor="#ffffff"
     bordercolor="#000000"
     borderopacity="0.25"
     inkscape:showpageshadow="2"
     inkscape:pageopacity="0.0"
     inkscape:pagecheckerboard="0"
     inkscape:deskcolor="#d1d1d1"
     inkscape:document-units="mm"
     inkscape:zoom="1.3420248"
     inkscape:cx="728.74958"
     inkscape:cy="71.161129"
     inkscape:window-width="1920"
     inkscape:window-height="940"
     inkscape:window-x="0"
     inkscape:window-y="0"
     inkscape:window-maximized="1"
     inkscape:current-layer="svg1"
     showgrid="true"><inkscape:grid
       id="grid1"
       units="mm"
       originx="0"
       originy="0"
       spacingx="0.99999995"
       spacingy="0.99999997"
       empcolor="#0099e5"
       empopacity="0.30196078"
       color="#0099e5"
       opacity="0.14901961"
       empspacing="5"
       enabled="true"
       visible="true" /></sodipodi:namedview><defs
     id="defs1" /><g
     id="g5"
     inkscape:label="Row"
     style="display:inline;stroke:none;stroke-width:1.00177;stroke-dasharray:none;stroke-opacity:1"
     transform="matrix(0.2647424,0,0,0.26432057,-6.0036072,-15.984109)"><rect
       style="display:inline;opacity:1;fill:#fa0000;fill-opacity:0.307692;stroke:none;stroke-width:0.989325;stroke-dasharray:none;stroke-opacity:1"
       id="rect4"
       width="596.80646"
       height="37.832848"
       x="158.65842"
       y="60.472439"
       inkscape:label="Popis" /><rect
       style="display:inline;fill:#fa0000;fill-opacity:0.307692;stroke:none;stroke-width:1.00177;stroke-dasharray:none;stroke-opacity:1"
       id="rect4-42"
       width="98.208679"
       height="37.832848"
       x="60.449734"
       y="60.472439"
       inkscape:label="Jmeno" /><rect
       style="display:inline;opacity:1;fill:#fa0000;fill-opacity:0.307692;stroke:none;stroke-width:1.00177;stroke-dasharray:none;stroke-opacity:1"
       id="rect5"
       width="37.772568"
       height="37.832848"
       x="22.677166"
       y="60.472439"
       inkscape:label="Logo" /></g><g
     inkscape:label="Layer 1"
     inkscape:groupmode="layer"
     id="layer1"
     transform="translate(-5.9999979,-28.039034)"
     style="display:inline"><text
       xml:space="preserve"
       style="font-size:3.80938px;font-family:'New Rocker';-inkscape-font-specification:'New Rocker';text-align:start;letter-spacing:0px;writing-mode:lr-tb;direction:ltr;text-anchor:start;fill:#000000;fill-opacity:1;stroke:none;stroke-width:0.0504741"
       x="18.035286"
       y="34.122803"
       id="text1"
       inkscape:label="Role"><tspan
         style="letter-spacing:0px;fill:#000000;fill-opacity:1;stroke:none;stroke-width:0.0504743"
         x="18.035286"
         y="34.122803"
         sodipodi:role="line"
         id="tspan8">Vědma</tspan></text><text
       xml:space="preserve"
       style="font-size:3px;font-family:'New Rocker';-inkscape-font-specification:'New Rocker';text-align:start;letter-spacing:0px;writing-mode:lr-tb;direction:ltr;text-anchor:start;fill:#000000;fill-opacity:1;stroke:none;stroke-width:0.040981"
       x="42.755661"
       y="32.303787"
       id="text2"
       inkscape:label="Popis"><tspan
         sodipodi:role="line"
         style="font-style:normal;font-variant:normal;font-weight:normal;font-stretch:normal;font-size:3px;font-family:'Didact Gothic';-inkscape-font-specification:'Didact Gothic';letter-spacing:0px;stroke-width:0.0409811"
         x="42.755661"
         y="32.303787"
         id="tspan6">Každou noc vyber dva hráče: dozvíš se, jestli je jeden z nich Démon. Jeden z hodných hráčů se ti bude </tspan><tspan
         sodipodi:role="line"
         style="font-style:normal;font-variant:normal;font-weight:normal;font-stretch:normal;font-size:3px;font-family:'Didact Gothic';-inkscape-font-specification:'Didact Gothic';letter-spacing:0px;stroke-width:0.0409811"
         x="42.755661"
         y="36.083683"
         id="tspan9">jevit jako Démon.</tspan></text><path
       style="fill:#000000;stroke-width:0.0306679"
       d="m 8.5328768,37.193101 c -0.2924107,-0.14612 -0.4133083,-0.370495 -0.342106,-0.63492 0.024654,-0.09155 0.059996,-0.141303 0.1238525,-0.174323 0.1250103,-0.06464 0.1705364,-0.05818 0.2435137,0.0346 0.096578,0.122778 0.082236,0.244001 -0.043776,0.370013 -0.059036,0.05903 -0.1073379,0.111184 -0.1073379,0.115884 0,0.0132 0.1589467,0.07021 0.2530619,0.09076 0.1037698,0.02266 0.2970462,-0.06968 0.3880661,-0.185392 0.095394,-0.121274 0.089014,-0.331751 -0.012062,-0.39798 -0.041964,-0.02749 -0.1178667,-0.122648 -0.1686737,-0.211449 -0.1161936,-0.203085 -0.1277667,-0.456882 -0.029218,-0.640753 0.034737,-0.06482 0.058887,-0.121963 0.05367,-0.127001 -0.00522,-0.0051 -0.1129936,-0.05835 -0.2394988,-0.11846 -0.2259224,-0.107354 -0.5226828,-0.336366 -0.5837595,-0.450489 -0.041376,-0.07731 0.034848,-0.261135 0.1194078,-0.287972 0.074934,-0.02378 0.1796755,0.02681 0.5149889,0.248784 0.2577606,0.17063 0.9593181,0.531873 1.0329336,0.531873 0.022848,0 0.1187891,0.02658 0.2132031,0.05906 0.1866075,0.0642 0.6729375,0.134026 0.9419865,0.135244 0.390621,0.0018 1.118544,-0.135023 1.525383,-0.286647 0.346681,-0.129204 0.612761,-0.287102 1.001965,-0.594589 l 0.112533,-0.08891 0.09078,0.08698 c 0.04993,0.04784 0.09078,0.118132 0.09078,0.156208 0,0.106822 -0.335294,0.378738 -0.641072,0.519895 -0.05741,0.02651 -0.136601,0.0693 -0.175978,0.0951 l -0.07159,0.04691 0.06098,0.07751 c 0.03353,0.04263 0.06097,0.09872 0.06097,0.124635 0,0.02591 0.02091,0.07023 0.04647,0.09846 0.04163,0.046 0.04011,0.07192 -0.01457,0.248953 -0.06076,0.196732 -0.152735,0.315932 -0.303858,0.393824 -0.06547,0.03375 -0.07114,0.05277 -0.05762,0.193416 0.01296,0.134899 0.03248,0.172305 0.144373,0.276678 0.119704,0.111658 0.139705,0.119525 0.267303,0.105142 0.194028,-0.02187 0.215744,-0.05727 0.103802,-0.169212 -0.118718,-0.118719 -0.127996,-0.270551 -0.02258,-0.369581 0.147746,-0.1388 0.373302,-0.0034 0.407282,0.244539 0.0256,0.186786 -0.116626,0.352202 -0.254697,0.460305 -0.09365,0.07332 -0.229755,0.12394 -0.34455,0.0928 -0.24622,-0.06679 -0.491624,-0.248373 -0.537147,-0.54519 -0.01784,-0.116342 -0.02905,-0.128607 -0.148434,-0.162422 -0.26782,-0.07586 -0.329913,-0.149983 -0.317278,-0.378761 0.0038,-0.06857 -0.0076,-0.115004 -0.02819,-0.115004 -0.01899,0 -0.142455,0.02761 -0.274357,0.06134 -0.131901,0.03374 -0.306616,0.06133 -0.388255,0.06133 h -0.148436 l -0.0017,0.161006 c -0.0024,0.224101 -0.05734,0.366537 -0.160368,0.415854 -0.140635,0.06732 -0.257559,0.02103 -0.360365,-0.142651 -0.104142,-0.165812 -0.106556,-0.18402 -0.04419,-0.333287 0.03582,-0.08573 0.05511,-0.103369 0.0828,-0.07568 0.04966,0.04966 0.08516,0.04521 0.08516,-0.01066 0,-0.05866 -0.08851,-0.09229 -0.316538,-0.120286 -0.09819,-0.01205 -0.222398,-0.04018 -0.276011,-0.06248 -0.05361,-0.0223 -0.1457813,-0.04534 -0.2048171,-0.05119 -0.1061626,-0.01051 -0.107369,-0.0093 -0.1102003,0.112038 -0.00478,0.204963 -0.00968,0.221983 -0.091939,0.319746 -0.054061,0.06425 -0.1177927,0.100569 -0.1993418,0.11361 -0.1096086,0.01753 -0.1198999,0.02736 -0.1201738,0.11492 -3.825e-4,0.120673 -0.121906,0.381707 -0.2179841,0.468214 -0.1128396,0.101597 -0.2809303,0.194654 -0.351842,0.194779 -0.035258,6.2e-5 -0.1498847,-0.04275 -0.2547271,-0.09514 z m 2.4505892,-0.587107 c 0.06998,-0.114783 0.0729,-0.141054 0.02857,-0.257642 -0.02596,-0.06828 -0.0381,-0.07633 -0.06087,-0.04034 -0.01564,0.02474 -0.02864,0.08105 -0.0289,0.125164 -2.43e-4,0.04411 -0.02807,0.115291 -0.0618,0.158177 -0.07682,0.09765 -0.07675,0.114304 4.52e-4,0.114304 0.0368,0 0.08637,-0.04031 0.122557,-0.09967 z m 2.422433,-0.0018 c 0,-0.08265 -0.07897,-0.152137 -0.148011,-0.130226 -0.08795,0.02791 -0.08409,0.05335 0.01767,0.116444 0.102291,0.06342 0.130339,0.06639 0.130339,0.01378 z m -4.845536,-0.06649 c 0,-0.05051 -0.1447454,-0.157528 -0.1737852,-0.128489 -0.02904,0.02904 0.07798,0.173785 0.12849,0.173785 0.024913,0 0.045295,-0.02038 0.045295,-0.0453 z m 3.947646,-0.277268 c 0.117932,-0.0826 0.201962,-0.230168 0.201962,-0.354662 0,-0.140111 -0.05134,-0.212145 -0.151197,-0.212145 -0.08621,0 -0.08504,-0.0058 -0.02691,0.133276 0.0253,0.06055 0.046,0.124157 0.046,0.141338 0,0.03928 -0.199104,0.124071 -0.291336,0.124071 -0.03805,0 -0.08518,0.01929 -0.104746,0.04286 -0.02818,0.03396 -0.01854,0.05627 0.04638,0.107339 0.09687,0.07619 0.188281,0.08205 0.279845,0.01791 z m -3.0004865,-0.03784 c 0.04366,-0.03628 0.058844,-0.07473 0.046868,-0.118674 -0.014518,-0.05327 -0.039948,-0.06442 -0.1408902,-0.06177 -0.099025,0.0026 -0.1376108,-0.01356 -0.1968103,-0.08238 C 9.130064,35.859064 9.12412,35.796 9.19398,35.718805 c 0.070932,-0.07838 0.028587,-0.105528 -0.066952,-0.04293 -0.101583,0.06657 -0.1295666,0.145116 -0.1083413,0.304133 0.015836,0.11864 0.028855,0.133429 0.1857037,0.210937 0.200771,0.09921 0.2194794,0.101167 0.3031328,0.03166 z M 12.48586,35.852824 c 0,-0.01365 -0.01921,-0.05107 -0.04269,-0.08318 -0.03704,-0.05065 -0.04948,-0.05273 -0.09408,-0.01572 -0.04738,0.03933 -0.04585,0.04573 0.01968,0.08209 0.08339,0.04627 0.11708,0.0511 0.11708,0.01681 z m -2.9441228,-0.06391 c 0,-0.03058 -0.074011,-0.06461 -0.1405141,-0.06461 -0.061787,0 -0.05402,0.05408 0.010176,0.07086 0.091895,0.02401 0.1303387,0.02218 0.1303384,-0.0063 z M 10.676451,35.354042 C 9.9120134,35.277667 8.9056319,34.855862 8.5390857,34.458207 8.2032607,34.093879 7.7774755,33.359872 7.7208649,33.047684 c -0.00823,-0.04537 -0.038401,-0.196576 -0.067054,-0.336011 -0.055992,-0.27248 -0.047493,-0.854296 0.016661,-1.140565 0.017446,-0.07785 0.037727,-0.186118 0.045069,-0.240605 0.034381,-0.255141 0.2919641,-0.817762 0.5133075,-1.121183 0.2916099,-0.399744 0.9367436,-0.953777 1.3248581,-1.137771 0.2271806,-0.107701 0.5813945,-0.207176 0.8850685,-0.247525 0.27615,-0.03669 0.557883,-0.01343 0.835701,0.0071 0.159561,0.0118 0.382583,0.03728 0.475354,0.06656 0.09277,0.02927 0.251477,0.07876 0.352681,0.10997 0.439194,0.135437 0.890808,0.396402 1.153621,0.666619 0.488022,0.501771 0.926227,1.287657 0.996511,1.787169 0.08518,0.605365 0.0628,1.033368 -0.08097,1.548731 -0.219045,0.785204 -0.604014,1.363126 -1.149132,1.725092 -0.223082,0.14813 -0.594181,0.345091 -0.782033,0.415064 -0.457501,0.170415 -1.082508,0.251817 -1.564065,0.203705 z m 0.339425,-1.01369 c 0.03266,-0.06102 0.01954,-0.383788 -0.02136,-0.525139 -0.029,-0.100271 -0.06508,-0.05417 -0.08399,0.107337 -0.01038,0.08855 -0.02741,0.21295 -0.03787,0.276435 -0.02874,0.174464 0.07218,0.274088 0.143212,0.141367 z m 2.77564,-0.678828 c 0.30424,-0.594085 0.444048,-1.301576 0.379621,-1.921059 -0.0769,-0.739341 -0.373809,-1.322827 -0.985414,-1.936485 -0.43352,-0.434976 -0.799848,-0.640025 -1.471582,-0.823706 -0.195976,-0.05358 -0.320825,-0.06414 -0.751365,-0.06354 -0.556502,7.45e-4 -0.598216,0.0071 -0.9916875,0.151533 -0.5339562,0.195917 -1.0234553,0.477065 -1.2752146,0.732432 -0.3108639,0.315317 -0.6396372,0.903084 -0.7567314,1.352852 -0.083013,0.318856 -0.095559,0.407753 -0.036963,0.26189 0.3158197,-0.786172 0.4780305,-1.0613 0.8421915,-1.428453 0.2390137,-0.240977 0.6743048,-0.580298 0.7444243,-0.580298 0.00924,0 0.1199499,-0.04831 0.2460131,-0.107337 0.126063,-0.05903 0.2549806,-0.107339 0.2864836,-0.107339 0.0315,0 0.19525,-0.03433 0.363885,-0.07631 0.223626,-0.05565 0.390024,-0.07641 0.61482,-0.07667 0.340906,-4.25e-4 0.381817,0.01785 0.381817,0.170227 0,0.146716 0.163699,0.513267 0.317645,0.711262 0.253556,0.326106 0.648541,0.672657 0.928172,0.814357 0.290137,0.147023 0.881997,0.309243 1.05777,0.289919 0.09507,-0.01045 0.179679,0.159606 0.274079,0.550894 0.142596,0.591055 0.01638,1.434397 -0.335946,2.244799 -0.0691,0.158932 -0.125572,0.296938 -0.125501,0.306679 2.79e-4,0.03686 0.191597,-0.266703 0.293483,-0.465654 z m -3.48416,0.132702 c 0.01746,-0.03263 0.03174,-0.09023 0.03174,-0.128017 v -0.06869 l -0.07667,0.07202 c -0.08431,0.07919 -0.102384,0.184007 -0.03174,0.184007 0.02471,0 0.05921,-0.0267 0.07667,-0.05932 z m 1.565145,-0.01628 c 0,-0.04469 -0.08896,-0.108417 -0.151324,-0.108417 -0.04399,0 -0.04148,0.07094 0.0041,0.116538 0.05132,0.05132 0.147206,0.04604 0.147206,-0.0081 z m -2.5015315,-0.05956 c 0.1318619,-0.05509 0.4539221,-0.508873 0.3611632,-0.508873 -0.058914,0 -0.497075,0.435201 -0.497075,0.493717 0,0.06976 0.00412,0.07023 0.1359118,0.01516 z m 3.3799615,-0.125913 c 0.0098,-0.02553 7.32e-4,-0.06697 -0.02014,-0.09212 -0.05749,-0.06927 -0.406801,-0.290841 -0.458522,-0.290841 -0.02499,0 0.05043,0.09661 0.167595,0.214677 0.216088,0.217757 0.279023,0.251802 0.311073,0.168283 z m -1.483154,-0.201214 c 0.190885,-0.06365 0.296279,-0.1324 0.259449,-0.16923 -0.01079,-0.01079 -0.06378,-0.0042 -0.117755,0.0146 -0.135287,0.04715 -0.606147,0.04185 -0.901367,-0.01016 -0.134759,-0.02374 -0.249409,-0.03878 -0.254777,-0.03341 -0.02373,0.02373 0.180553,0.139423 0.347562,0.196849 0.23439,0.0806 0.428072,0.08099 0.666888,0.0013 z M 9.1666609,32.977937 c 0.037357,-0.02616 0.083044,-0.07583 0.1015281,-0.110368 0.031566,-0.05898 0.027393,-0.06148 -0.068765,-0.04101 -0.1391197,0.02959 -0.2205893,0.102896 -0.1751778,0.157612 0.043653,0.0526 0.059413,0.05191 0.1424153,-0.0063 z M 11.46292,32.807343 c 0.197093,-0.06077 0.497932,-0.195511 0.532252,-0.238381 0.0085,-0.01054 0.09428,-0.07787 0.190756,-0.149617 0.285303,-0.212184 0.2918,-0.278153 0.04695,-0.476841 -0.318064,-0.258103 -0.706276,-0.388105 -1.160615,-0.388659 -0.335465,-4.24e-4 -0.501088,0.03723 -0.82517,0.187522 -0.210149,0.09746 -0.7353109,0.44922 -0.7576777,0.507508 -0.013812,0.03599 0.015802,0.08233 0.098043,0.153424 0.064807,0.05602 0.1352472,0.101858 0.1565332,0.101858 0.021286,0 0.058376,0.01967 0.082425,0.04372 0.054599,0.0546 0.2122935,0.124499 0.5280145,0.234048 0.327088,0.113492 0.788538,0.124072 1.108483,0.02542 z m -0.771135,-0.08741 c -0.263544,-0.03005 -0.437814,-0.0884 -0.8064576,-0.270054 l -0.285103,-0.140484 0.085762,-0.06899 c 0.096707,-0.0778 0.5095196,-0.301411 0.6147826,-0.333017 0.06222,-0.01868 0.069,-0.01033 0.069,0.08494 0,0.146917 0.069,0.295521 0.189278,0.407629 0.110595,0.103087 0.319023,0.196208 0.439161,0.196208 0.09893,0 0.385253,-0.128905 0.449972,-0.202581 0.07236,-0.08237 0.179363,-0.418006 0.15859,-0.497439 -0.01007,-0.03852 -0.0033,-0.06668 0.01619,-0.06668 0.04493,0 0.272994,0.08522 0.387548,0.144823 0.09482,0.04933 0.260677,0.190371 0.260677,0.221667 0,0.04719 -0.367133,0.295473 -0.594406,0.401977 -0.217935,0.102128 -0.293973,0.121867 -0.513085,0.133191 -0.141478,0.0073 -0.353837,0.0023 -0.471909,-0.01119 z m 0.172205,-0.268629 c -0.04022,-0.0076 -0.14028,-0.08098 -0.222342,-0.163037 -0.127388,-0.127387 -0.149205,-0.16666 -0.149205,-0.268583 0,-0.159294 0.06398,-0.209419 0.301507,-0.236238 l 0.194169,-0.02192 -0.04849,0.09378 c -0.05724,0.110692 -0.06213,0.228221 -0.01335,0.321187 0.04227,0.08058 0.09854,0.118003 0.240273,0.159806 l 0.106745,0.03148 -0.11138,0.05285 c -0.11055,0.05247 -0.157267,0.05727 -0.29792,0.03067 z m 1.951501,0.336725 c 0.01443,-0.04332 -0.11255,-0.09986 -0.22429,-0.09986 -0.103933,0 -0.09316,0.04449 0.025,0.103215 0.111037,0.05519 0.180188,0.05403 0.199293,-0.0034 z M 8.9897141,32.307123 c 0.16024,-0.04025 0.2706448,-0.07643 0.2453436,-0.08039 -0.078827,-0.01234 -0.6871672,0.0047 -0.7436977,0.0209 -0.07837,0.02237 -0.065674,0.06303 0.030669,0.09821 0.1212204,0.04427 0.145272,0.04228 0.4676862,-0.03871 z M 13.336895,32.18049 c 0.05576,-0.01709 0.04693,-0.06826 -0.01775,-0.102875 -0.03673,-0.01966 -0.134623,-0.0192 -0.283678,0.0013 -0.32133,0.04425 -0.345252,0.06249 -0.135589,0.103373 0.164892,0.03216 0.328453,0.03147 0.437018,-0.0018 z m -3.264383,-0.771072 c 0.187211,-0.164376 0.49728,-0.293612 0.741635,-0.309115 0.413459,-0.02623 0.919947,0.186619 1.284919,0.539981 0.236423,0.228903 0.236434,0.206754 2.9e-5,-0.08684 -0.193432,-0.240228 -0.388725,-0.393309 -0.67323,-0.527702 -0.199076,-0.09404 -0.233412,-0.100415 -0.534749,-0.09932 -0.303798,0.0012 -0.332596,0.0068 -0.509092,0.101246 -0.102894,0.05504 -0.243068,0.157903 -0.3115,0.228586 -0.181943,0.187942 -0.4674509,0.600114 -0.4674509,0.67485 0,0.04509 0.054133,-0.0092 0.1796639,-0.18024 0.098815,-0.134625 0.229213,-0.288279 0.289775,-0.341452 z m 2.289712,-0.446326 c -0.0012,-0.0446 -0.08575,-0.109549 -0.347269,-0.266483 -0.292026,-0.175242 -0.680879,-0.324395 -1.006838,-0.386197 -0.286098,-0.05425 -0.306379,-0.05431 -0.551255,-0.0017 -0.363305,0.07807 -0.688013,0.253527 -0.8079541,0.436581 -0.081215,0.123949 -0.030224,0.118948 0.1287232,-0.01263 0.2216198,-0.183452 0.3944239,-0.236141 0.7761479,-0.236652 0.329701,-4.24e-4 0.377338,0.01007 0.902853,0.19914 0.100185,0.03605 0.258891,0.108297 0.352681,0.160557 0.18314,0.102049 0.296368,0.137588 0.454204,0.142559 0.06142,0.0019 0.0993,-0.01157 0.09871,-0.03519 z"
       id="path1"
       sodipodi:nodetypes="ssssssssssssssssssssscsssscsssssssssssaasssssscsssssssssssssssssssscssssssssssssssssssssssssssssssssssssssssssssssaasssssssssssssssssssssssssssssssssscssscsssssssssssscsssssssssssssssssssssssssssssscssssssssssssssssscssscsssssssssssssssssssscssscsssssssssssssss" /></g></svg>
