<?xml version="1.0" encoding="UTF-8" standalone="no"?>
<!-- Created with Inkscape (http://www.inkscape.org/) -->

<svg
   width="194mm"
   height="10mm"
   viewBox="0 0 194 10"
   version="1.1"
   id="svg1"
   inkscape:version="1.4.2 (2aeb623e1d, 2025-05-12)"
   sodipodi:docname="VysetrovatelRowSetList.svg"
   xml:space="preserve"
   xmlns:inkscape="http://www.inkscape.org/namespaces/inkscape"
   xmlns:sodipodi="http://sodipodi.sourceforge.net/DTD/sodipodi-0.dtd"
   xmlns="http://www.w3.org/2000/svg"
   xmlns:svg="http://www.w3.org/2000/svg"><sodipodi:namedview
     id="namedview1"
     pagecolor="#ffffff"
     bordercolor="#000000"
     borderopacity="0.25"
     inkscape:showpageshadow="2"
     inkscape:pageopacity="0.0"
     inkscape:pagecheckerboard="0"
     inkscape:deskcolor="#d1d1d1"
     inkscape:document-units="mm"
     inkscape:zoom="7.7545715"
     inkscape:cx="750.78294"
     inkscape:cy="38.364467"
     inkscape:window-width="1920"
     inkscape:window-height="940"
     inkscape:window-x="0"
     inkscape:window-y="0"
     inkscape:window-maximized="1"
     inkscape:current-layer="svg1"
     showgrid="true"><inkscape:grid
       id="grid1"
       units="mm"
       originx="0"
       originy="0"
       spacingx="0.99999995"
       spacingy="0.99999997"
       empcolor="#0099e5"
       empopacity="0.30196078"
       color="#0099e5"
       opacity="0.14901961"
       empspacing="5"
       enabled="true"
       visible="true" /></sodipodi:namedview><defs
     id="defs1" /><g
     id="g5"
     inkscape:label="Row"
     style="display:inline;stroke:none;stroke-width:1.00177;stroke-dasharray:none;stroke-opacity:1"
     transform="matrix(0.2647424,0,0,0.26432057,-6.0036072,-15.984109)"><rect
       style="display:inline;opacity:1;fill:#fa0000;fill-opacity:0.307692;stroke:none;stroke-width:0.989325;stroke-dasharray:none;stroke-opacity:1"
       id="rect4"
       width="596.80646"
       height="37.832848"
       x="158.65842"
       y="60.472439"
       inkscape:label="Popis" /><rect
       style="display:inline;fill:#fa0000;fill-opacity:0.307692;stroke:none;stroke-width:1.00177;stroke-dasharray:none;stroke-opacity:1"
       id="rect4-42"
       width="98.208679"
       height="37.832848"
       x="60.449734"
       y="60.472439"
       inkscape:label="Jmeno" /><rect
       style="display:inline;opacity:1;fill:#fa0000;fill-opacity:0.307692;stroke:none;stroke-width:1.00177;stroke-dasharray:none;stroke-opacity:1"
       id="rect5"
       width="37.772568"
       height="37.832848"
       x="22.677166"
       y="60.472439"
       inkscape:label="Logo" /></g><g
     inkscape:label="Layer 1"
     inkscape:groupmode="layer"
     id="layer1"
     transform="translate(-5.9999979,-28.039034)"
     style="display:inline"><text
       xml:space="preserve"
       style="font-size:3.80938px;font-family:'New Rocker';-inkscape-font-specification:'New Rocker';text-align:start;letter-spacing:0px;writing-mode:lr-tb;direction:ltr;text-anchor:start;fill:#000000;fill-opacity:1;stroke:none;stroke-width:0.0504741"
       x="18.035286"
       y="34.122803"
       id="text1"
       inkscape:label="Role"><tspan
         id="tspan1"
         style="letter-spacing:0px;fill:#000000;fill-opacity:1;stroke:none;stroke-width:0.0504743"
         x="18.035286"
         y="34.122803"
         sodipodi:role="line">Vyšetřovatel</tspan></text><text
       xml:space="preserve"
       style="font-size:3px;font-family:'New Rocker';-inkscape-font-specification:'New Rocker';text-align:start;letter-spacing:0px;writing-mode:lr-tb;direction:ltr;text-anchor:start;fill:#000000;fill-opacity:1;stroke:none;stroke-width:0.040981"
       x="42.755661"
       y="33.891289"
       id="text2"
       inkscape:label="Popis"><tspan
         sodipodi:role="line"
         style="font-style:normal;font-variant:normal;font-weight:normal;font-stretch:normal;font-size:3px;font-family:'Didact Gothic';-inkscape-font-specification:'Didact Gothic';letter-spacing:0px;stroke-width:0.0409811"
         x="42.755661"
         y="33.891289"
         id="tspan6">První noc se dozvíš, že jeden ze dvou hráčů je konkrétní Přisluhovač Démona.</tspan></text><path
       style="fill:#000000;stroke-width:0.0317039"
       d="m 14.679428,35.730081 c -0.145286,-0.02638 -0.418473,-0.137335 -0.90356,-0.366957 -0.382422,-0.181023 -0.761357,-0.369111 -0.842079,-0.41797 -0.08072,-0.04886 -0.316123,-0.166174 -0.523113,-0.260701 -0.206992,-0.09453 -0.469042,-0.217228 -0.582335,-0.272669 -0.113291,-0.05544 -0.270226,-0.126437 -0.348742,-0.157766 -0.07851,-0.03133 -0.294336,-0.128071 -0.479602,-0.214984 -0.185265,-0.08691 -0.384431,-0.168474 -0.44259,-0.181249 -0.05816,-0.01278 -0.166946,-0.04947 -0.241749,-0.08152 -0.135476,-0.05807 -0.152553,-0.05087 -0.138372,0.05834 0.0086,0.06661 -0.05279,0.04427 -0.122714,-0.04463 L 9.9883,33.705725 9.909605,33.779645 c -0.043281,0.04066 -0.078694,0.10082 -0.078694,0.133682 0,0.03339 -0.014584,0.05074 -0.033056,0.03933 -0.018182,-0.01124 -0.100215,0.04353 -0.1822972,0.1217 -0.3398099,0.323626 -0.4766277,0.430821 -0.6723532,0.526781 -0.1133416,0.05557 -0.2438631,0.120121 -0.2900481,0.143451 -0.092016,0.04648 -0.4431285,0.02224 -0.6055863,-0.04182 -0.047953,-0.0189 -0.087185,-0.0286 -0.087185,-0.02153 0,0.007 -0.085317,-0.02182 -0.1895936,-0.0642 -0.1042763,-0.04238 -0.2403787,-0.07704 -0.3024499,-0.07704 -0.3732491,0 -0.8436929,-0.598098 -0.8915038,-1.133412 -0.011293,-0.12642 -0.032751,-0.229855 -0.047682,-0.229855 -0.014934,0 -0.02715,-0.08559 -0.02715,-0.190223 0,-0.10462 0.01134,-0.190223 0.025198,-0.190223 0.013858,0 0.040737,-0.174767 0.05973,-0.388371 0.02717,-0.305598 0.054655,-0.436892 0.1289586,-0.616015 0.1601768,-0.386139 0.4366907,-0.730649 0.9274517,-1.155516 0.5102158,-0.441708 0.8128333,-0.579295 1.2597753,-0.572769 0.3389646,0.0049 0.4639079,0.04067 0.6857161,0.196048 0.099816,0.06992 0.1946152,0.12713 0.2106649,0.12713 0.044777,0 0.5960525,0.340432 0.6810095,0.420547 0.05189,0.04893 0.08681,0.134645 0.11283,0.276938 0.04734,0.258837 0.04125,1.232447 -0.0081,1.291876 -0.02583,0.03113 -0.02543,0.05212 0.0015,0.07907 0.02019,0.02019 0.0367,0.06238 0.0367,0.09377 0,0.03139 0.02044,0.05707 0.04542,0.05707 0.02498,0 0.05438,0.02825 0.06534,0.06276 0.01095,0.03452 0.03622,0.05949 0.05613,0.05548 0.01992,-0.004 0.03689,0.02003 0.0377,0.05342 9.55e-4,0.03696 0.02629,0.06306 0.06489,0.06675 0.03487,0.0034 0.141875,0.02906 0.23778,0.05722 0.0959,0.02815 0.224305,0.05948 0.285335,0.06963 0.06104,0.01017 0.183896,0.03957 0.273034,0.06536 0.08914,0.02579 0.19614,0.05322 0.237779,0.06095 0.04164,0.0077 0.168444,0.03689 0.281784,0.0648 0.512175,0.126129 0.695464,0.172241 0.887709,0.223331 0.113341,0.03012 0.263142,0.06514 0.332891,0.07782 0.06974,0.01268 0.298014,0.06797 0.507262,0.122867 0.209245,0.0549 0.429195,0.107706 0.488775,0.117337 0.05958,0.0096 0.142812,0.03063 0.184959,0.04665 0.04214,0.01602 0.0884,0.02186 0.102776,0.01298 0.03291,-0.02033 0.417749,0.0753 0.458352,0.113892 0.01657,0.01574 0.05622,0.02864 0.08813,0.02864 0.03191,0 0.126029,0.06776 0.209154,0.150592 0.112339,0.111935 0.165632,0.198084 0.207598,0.335591 0.0501,0.16416 0.05115,0.19094 0.0093,0.237779 -0.02596,0.02903 -0.07148,0.138382 -0.101166,0.243006 -0.113465,0.399852 -0.367572,0.776744 -0.523693,0.776744 -0.03292,0 -0.07513,0.02854 -0.09379,0.06341 -0.01867,0.03487 -0.04413,0.06148 -0.0566,0.05912 -0.01246,-0.0023 -0.116375,-0.02131 -0.230912,-0.0421 z m 0.311287,-0.244011 c 0.05666,-0.03493 0.103033,-0.0671 0.103033,-0.07148 0,-0.0044 -0.07084,-0.0037 -0.157418,0.0015 -0.130634,0.0078 -0.173792,-0.0044 -0.253632,-0.07153 -0.08516,-0.07165 -0.09619,-0.07426 -0.09609,-0.02266 6.4e-5,0.03206 0.02923,0.106052 0.06481,0.164422 0.0556,0.09119 0.07676,0.103111 0.150477,0.08471 0.04717,-0.01178 0.132143,-0.04999 0.188813,-0.08492 z m -0.56999,-0.20618 c -0.05407,-0.09164 -0.06783,-0.163503 -0.06527,-0.340816 l 0.0032,-0.224692 -0.03039,0.174371 c -0.03721,0.213484 -0.01589,0.338757 0.07397,0.434404 0.09437,0.100451 0.09809,0.09172 0.01844,-0.04326 z m 0.535014,-0.113728 c 0.11961,-0.12791 0.246961,-0.337548 0.220889,-0.36362 -0.02292,-0.02292 -0.01422,-0.03252 -0.142669,0.157545 -0.05597,0.08282 -0.124467,0.150593 -0.152208,0.150593 -0.04248,0 -0.04769,-0.0303 -0.03302,-0.192015 0.02019,-0.222613 0.136139,-0.481738 0.275172,-0.614942 0.08793,-0.08424 0.104755,-0.0889 0.20715,-0.05748 0.129424,0.03972 0.153063,-0.0075 0.05031,-0.100473 -0.08163,-0.07387 -0.158579,-0.04523 -0.317774,0.118247 -0.194207,0.199436 -0.249654,0.339993 -0.274587,0.69607 -0.02476,0.353639 6.3e-5,0.384321 0.166741,0.206076 z m -0.495715,-0.237778 c 1.92e-4,-0.03052 0.0094,-0.112549 0.02033,-0.1823 0.01096,-0.06974 0.01028,-0.117916 -0.0016,-0.107046 -0.03415,0.03124 -0.07601,0.344824 -0.04603,0.344824 0.01483,0 0.02712,-0.02496 0.02732,-0.05548 z m -0.178279,-0.269427 c 0.02468,-0.08279 0.03254,-0.142913 0.01746,-0.133595 -0.03108,0.0192 -0.09401,0.227862 -0.09049,0.299983 0.0028,0.05702 0.01412,0.03121 0.07303,-0.166388 z m -5.608601,0.0088 c 0.010463,-0.01693 -0.013662,-0.03715 -0.05361,-0.04495 -0.039948,-0.0078 -0.1760644,-0.03507 -0.3024837,-0.06061 -0.1264192,-0.02554 -0.2298529,-0.03385 -0.2298529,-0.01846 0,0.01538 0.010698,0.02961 0.023777,0.03159 0.013079,0.002 0.059444,0.0082 0.1030377,0.01367 0.043592,0.0055 0.1291929,0.03188 0.1902231,0.05855 0.1281131,0.05599 0.2415235,0.06451 0.2689093,0.0202 z m 5.492322,-0.05352 c 0.0068,-0.0204 -0.03433,-0.04677 -0.09248,-0.05929 -0.05759,-0.01241 -0.145345,-0.04333 -0.195002,-0.0687 -0.04967,-0.02539 -0.113858,-0.05121 -0.142668,-0.05738 -0.02881,-0.0063 -0.309182,-0.112853 -0.623052,-0.237054 -0.313868,-0.124216 -0.70248,-0.275545 -0.863582,-0.336302 -0.161102,-0.06076 -0.392936,-0.151172 -0.515188,-0.200922 -0.122251,-0.04975 -0.222275,-0.08088 -0.222275,-0.06916 0,0.01172 0.03924,0.03734 0.08718,0.05697 0.04795,0.01962 0.336852,0.145536 0.642003,0.279819 0.501957,0.22089 0.936042,0.392168 1.284006,0.506638 0.06976,0.02294 0.21955,0.08499 0.332891,0.137893 0.212872,0.09934 0.287098,0.110791 0.308165,0.04752 z m -5.34908,-0.05467 c 0,-0.0067 -0.028533,-0.01962 -0.063407,-0.02874 -0.034875,-0.0092 -0.063408,-0.0037 -0.063408,0.01215 0,0.01581 0.028533,0.02874 0.063408,0.02874 0.034875,0 0.063407,-0.0055 0.063407,-0.01215 z m 5.388903,-0.194857 c -0.04281,-0.05159 -0.256978,-0.132451 -0.791842,-0.298982 -0.235401,-0.0733 -0.477365,-0.154698 -0.537697,-0.180902 -0.154066,-0.06692 -0.744207,-0.287572 -0.866453,-0.323971 -0.05598,-0.01667 -0.265852,-0.09019 -0.466378,-0.163377 -0.764956,-0.279172 -0.824301,-0.295466 -0.824301,-0.226302 0,0.01232 0.0749,0.04883 0.166445,0.08113 0.09154,0.03231 0.330514,0.122717 0.53104,0.200905 0.521103,0.203183 1.169637,0.454509 1.537637,0.59588 0.174372,0.06699 0.523907,0.20337 0.776746,0.303078 0.440779,0.173819 0.460706,0.178639 0.483974,0.117065 0.01369,-0.03625 0.0097,-0.08176 -0.0092,-0.104508 z m -5.2937913,0.111872 c 0,-0.01743 -0.024968,-0.03149 -0.055482,-0.03122 -0.047415,3.6e-4 -0.048568,0.0049 -0.00793,0.03122 0.059832,0.03867 0.063408,0.03867 0.063408,0 z m -1.4758151,-0.06007 c -0.016564,-0.01561 -0.080052,-0.03767 -0.1410823,-0.04905 -0.1041991,-0.01943 -0.1072118,-0.01769 -0.049423,0.02836 0.064725,0.05159 0.243987,0.07105 0.1905053,0.02069 z m 1.5392231,-0.06675 c 0,-0.01743 -0.00629,-0.0317 -0.013979,-0.0317 -0.00768,0 -0.022796,0.01426 -0.033574,0.0317 -0.010776,0.01743 -0.00448,0.0317 0.013983,0.0317 0.018465,0 0.033574,-0.01427 0.033574,-0.0317 z m 0.2149558,-0.100575 c 0.1093312,-0.06757 0.1100701,-0.06942 0.038372,-0.09593 -0.056022,-0.02072 -0.09023,-0.01096 -0.1463875,0.0418 -0.040302,0.03786 -0.065746,0.08103 -0.056536,0.09593 0.024127,0.03904 0.04047,0.03489 0.1645515,-0.0418 z m 5.5124575,-0.08129 c 0.06019,-0.06571 0.09264,-0.123781 0.07286,-0.130373 -0.03693,-0.01231 -0.252099,0.178334 -0.252099,0.223372 0,0.05826 0.07753,0.01803 0.179236,-0.09299 z m -7.1377674,0.03178 c -0.034616,-0.0087 -0.1237839,-0.03424 -0.1981495,-0.05663 -0.074364,-0.02238 -0.1352098,-0.03426 -0.1352098,-0.0264 0,0.03209 0.2126216,0.103681 0.3011871,0.101412 0.065936,-0.0017 0.075804,-0.0074 0.032172,-0.01838 z m -0.5442635,-0.14889 c -0.049655,-0.06223 -0.1026375,-0.113149 -0.1177376,-0.113151 -0.0151,0 0.020565,0.0546 0.07926,0.121326 0.1327446,0.150922 0.1606843,0.144986 0.038477,-0.0082 z m 1.0212197,0.05947 c 0.058028,-0.04649 0.057017,-0.04715 -0.017719,-0.01156 -0.097046,0.04622 -0.1150322,0.06087 -0.074751,0.06087 0.01701,0 0.058622,-0.02219 0.092469,-0.0493 z m 1.3727105,-0.01062 c 0.04872,-0.03086 0.026215,-0.04916 -0.096553,-0.07847 -0.107792,-0.02573 -0.1497274,0.03387 -0.051536,0.07325 0.093763,0.0376 0.096808,0.03772 0.1480885,0.0053 z M 8.0161247,33.989082 c 0.2025303,-0.102631 0.5939859,-0.490737 0.7935904,-0.786802 0.2939566,-0.436013 0.6315315,-1.159002 0.781677,-1.674132 0.069418,-0.238163 0.06887,-0.626902 -0.00117,-0.816738 -0.1106436,-0.299971 -0.2322552,-0.37113 -0.6311876,-0.36933 -0.2492464,0.0011 -0.3073894,0.01261 -0.4597063,0.09075 -0.3200388,0.1642 -0.4975079,0.294902 -0.8176247,0.602158 -0.3287527,0.315544 -0.3991826,0.423228 -0.5172994,0.790931 -0.2184768,0.680126 -0.3102515,1.257522 -0.2525479,1.588885 0.039581,0.227298 0.1206249,0.459427 0.160399,0.459427 0.013433,0 0.1013553,0.04637 0.1953874,0.103033 0.1515785,0.09135 0.194792,0.102385 0.3810574,0.09729 0.1531849,-0.0042 0.2527005,-0.02734 0.3674058,-0.08547 z m -0.03427,-0.534925 c 0.341005,-0.345902 0.5440201,-0.625923 0.7374876,-1.017222 0.2113229,-0.427415 0.3209407,-0.814802 0.3287343,-1.161742 0.00605,-0.269249 0.00516,-0.272563 -0.1365791,-0.508362 -0.078467,-0.130541 -0.1475616,-0.248464 -0.1535431,-0.262052 -0.018495,-0.04202 0.2586127,0.07746 0.3692239,0.159188 0.1420007,0.104922 0.2623814,0.380843 0.2833491,0.649457 0.016439,0.21058 -0.018006,0.374141 -0.1687271,0.801245 -0.050694,0.143653 -0.4532709,0.770247 -0.6139118,0.955528 -0.1638998,0.189039 -0.4416374,0.416714 -0.6547021,0.536689 -0.1062985,0.05985 -0.2058505,0.108824 -0.2212271,0.108824 -0.015376,0 0.088076,-0.117701 0.2298954,-0.261557 z m -0.735717,-0.05694 c -0.044751,-0.0724 -0.1406808,-0.491446 -0.1412178,-0.61686 -7.503e-4,-0.173603 0.09357,-0.485883 0.2441334,-0.808348 0.1068496,-0.228841 0.1665673,-0.308413 0.3959745,-0.52762 0.2346774,-0.224242 0.4055767,-0.358438 0.4055767,-0.318472 0,0.0067 -0.0749,0.09072 -0.1664455,0.186765 -0.091545,0.09605 -0.2277346,0.247438 -0.3026434,0.336435 -0.1708301,0.202957 -0.3869157,0.662596 -0.3869157,0.823013 0,0.06519 -0.014742,0.168363 -0.032761,0.229278 -0.041886,0.141596 -0.042174,0.459405 -5.421e-4,0.600064 0.033249,0.11233 0.025465,0.161476 -0.015159,0.09575 z m 7.8878473,0.678156 c -0.02146,-0.0087 -0.06427,-0.0092 -0.09511,-0.0012 -0.03085,0.008 -0.01329,0.01514 0.03902,0.01578 0.05232,6.67e-4 0.07755,-0.0059 0.05608,-0.01461 z M 9.5748424,33.956424 c 0.05287,-0.0637 -0.1667986,-0.139082 -0.2365693,-0.08118 -0.061577,0.0511 -0.058482,0.08627 0.00916,0.103939 0.1108235,0.02896 0.1911616,0.02093 0.2274165,-0.02276 z m 5.4555026,7.52e-4 c 0,-0.0067 -0.03567,-0.01898 -0.07926,-0.02731 -0.0436,-0.0084 -0.07926,-0.0029 -0.07926,0.01216 0,0.01502 0.03567,0.02731 0.07926,0.02731 0.0436,0 0.07926,-0.0055 0.07926,-0.01216 z m -0.401847,-0.06599 c 0.003,-0.01595 -0.122852,-0.06693 -0.279786,-0.113283 -0.316559,-0.0935 -0.549094,-0.137872 -0.504526,-0.09627 0.03272,0.03055 0.320959,0.116102 0.488673,0.145047 0.06104,0.01051 0.139497,0.03901 0.174372,0.06328 0.06809,0.04739 0.112352,0.04783 0.121267,0.0012 z m -4.9561074,-0.08116 c 0,-0.04195 -0.1567281,-0.101804 -0.2115422,-0.08077 -0.059684,0.02291 -0.052157,0.07427 0.013395,0.0914 0.1035418,0.02706 0.198149,0.02198 0.198149,-0.01062 z m -0.7251449,-0.0547 c 0.039436,-0.05028 0.038315,-0.0514 -0.011969,-0.01197 -0.030514,0.02393 -0.055482,0.0489 -0.055482,0.05548 0,0.02609 0.026036,0.0093 0.067451,-0.04351 z m 0.8191118,-0.0692 c 0.027166,-0.05076 0.016997,-0.07252 -0.05926,-0.126816 -0.1000664,-0.07125 -0.1298184,-0.08012 -0.1298184,-0.03869 0,0.01477 0.032102,0.04293 0.071333,0.06256 0.067779,0.0339 0.066593,0.03534 -0.023777,0.02862 -0.119142,-0.0088 -0.1315455,0.07505 -0.01585,0.107236 0.1198483,0.03334 0.1221863,0.03285 0.1573746,-0.03291 z m -0.6774762,-0.03834 c 0.060181,-0.06765 0.060142,-0.06774 -0.010933,-0.02408 -0.039236,0.0241 -0.071334,0.05465 -0.071334,0.0679 0,0.03823 0.017656,0.02882 0.082271,-0.04382 z m 1.1541787,0.02077 c 0,-0.02065 -0.220184,-0.111794 -0.2654282,-0.109863 -0.019662,7.96e-4 0.014176,0.02784 0.075207,0.05997 0.110634,0.05829 0.190223,0.07916 0.190223,0.04989 z M 8.985947,33.504429 c 0.091875,-0.122915 0.030055,-0.130171 -0.073818,-0.0087 -0.051242,0.05994 -0.093746,0.119799 -0.094455,0.133026 -0.00212,0.03933 0.1051828,-0.03996 0.168272,-0.124361 z m -2.1849765,0.04577 c -0.012291,-0.03872 -0.033644,-0.177822 -0.047451,-0.309113 l -0.025107,-0.238711 0.00757,0.270667 c 0.0069,0.24665 0.027574,0.347559 0.07121,0.347559 0.00886,0 0.00606,-0.03168 -0.00623,-0.0704 z m 3.0332303,-0.19262 c -0.04069,-0.04069 -0.081956,-0.0093 -0.051831,0.03949 0.011669,0.01888 0.035742,0.02535 0.053493,0.01439 0.021654,-0.01338 0.021109,-0.03111 -0.00167,-0.05389 z M 9.134851,33.279789 c 0.024115,-0.04794 0.066454,-0.122851 0.094088,-0.166445 0.054792,-0.08643 0.1308748,-0.25363 0.1154141,-0.25363 -0.014362,0 -0.3060404,0.464695 -0.3060404,0.48758 0,0.05076 0.057162,0.01084 0.096537,-0.06751 z m 1.091455,-0.0094 c -0.04289,-0.0694 0.05446,-0.284074 0.175997,-0.388103 0.140736,-0.120465 0.160073,-0.181108 0.05775,-0.181108 -0.09166,0 -0.276301,0.14456 -0.317814,0.248821 -0.08169,0.205158 -0.08606,0.288891 -0.01759,0.336846 0.06658,0.04664 0.133917,0.03573 0.101662,-0.01646 z m -0.3195282,-0.04868 c 0.026187,-0.06825 0.026583,-0.06735 -0.037177,-0.08403 -0.049035,-0.01282 -0.1338051,0.03973 -0.1338051,0.08296 0,0.01275 0.06112,0.03488 0.1313495,0.04754 0.011211,0.0021 0.029047,-0.01889 0.039633,-0.04647 z m 0.080971,-0.307273 c 0.042669,-0.09114 0.083092,-0.176399 0.089828,-0.189477 0.0068,-0.01308 3.59e-4,-0.02361 -0.01417,-0.02338 -0.038,5.83e-4 -0.1548761,0.190366 -0.1803409,0.292867 -0.035149,0.14149 0.021112,0.09849 0.1046842,-0.08 z m 0.4772382,0.0999 c 0,-0.05622 -0.0078,-0.06079 -0.04756,-0.02781 -0.02616,0.02171 -0.04756,0.05198 -0.04756,0.0673 0,0.0153 0.0214,0.02782 0.04756,0.02782 0.02733,0 0.04756,-0.02862 0.04756,-0.0673 z m -0.6340773,-0.20219 c 0.022016,-0.02653 0.025448,-0.04755 0.00777,-0.04755 -0.017435,0 -0.049464,0.0214 -0.071172,0.04755 -0.022016,0.02653 -0.025448,0.04755 -0.00777,0.04755 0.017435,0 0.049464,-0.0214 0.071172,-0.04755 z m 0.6974853,-0.304929 c 0,-0.01744 -0.01427,-0.02288 -0.0317,-0.01212 -0.01743,0.01073 -0.0317,0.03386 -0.0317,0.0513 0,0.01744 0.01427,0.02288 0.0317,0.01212 0.01743,-0.01073 0.0317,-0.03386 0.0317,-0.0513 z m -0.6076578,-0.03215 c 0.00581,-0.01514 0.034346,-0.02795 0.063405,-0.02848 0.045185,-7.96e-4 0.045958,-0.0048 0.00525,-0.02763 -0.082857,-0.04648 -0.2853338,-0.07219 -0.2853338,-0.03624 0,0.01823 0.014266,0.03314 0.031702,0.03314 0.01744,0 0.030013,0.01073 0.02795,0.02378 -0.012924,0.08185 0.00828,0.105906 0.075088,0.08514 0.039236,-0.0122 0.076089,-0.03456 0.081902,-0.04969 z m 0.3848418,-0.184811 c 0.04108,-0.02599 0.04108,-0.03123 0,-0.04393 -0.02567,-0.0079 -0.149568,-0.05099 -0.275336,-0.0957 -0.1359383,-0.04834 -0.2363357,-0.06888 -0.2475756,-0.05071 -0.034308,0.05551 0.015518,0.08928 0.1835367,0.124411 0.091241,0.01907 0.1872929,0.04835 0.2134489,0.06506 0.05879,0.03756 0.06782,0.03762 0.125926,8.76e-4 z m 0.117592,-0.145869 c 0.01131,-0.03465 -0.5566643,-0.250259 -0.5848949,-0.222027 -0.034119,0.03412 0.037785,0.07809 0.2586739,0.158215 0.119479,0.04334 0.225307,0.08687 0.235172,0.09673 0.02399,0.02399 0.07896,0.0041 0.09105,-0.03292 z m 0.01012,-0.295297 V 31.662772 L 10.19706,31.566552 C 9.9283393,31.457103 9.9136268,31.462994 9.8838344,31.69182 c -0.018744,0.143972 -0.016581,0.148842 0.082805,0.186397 0.2104586,0.07954 0.4198926,0.152805 0.4428696,0.154954 0.01308,0.0012 0.02378,-0.08161 0.02378,-0.184092 z M 7.1206379,31.436978 c 0.017214,-0.03271 0.057813,-0.107605 0.090225,-0.166446 0.077724,-0.141112 -0.00993,-0.05107 -0.1041812,0.107013 -0.038985,0.06538 -0.058835,0.11889 -0.04411,0.11889 0.014726,0 0.040853,-0.02676 0.058067,-0.05946 z m 3.2809431,-0.250909 c 0,-0.03774 -0.07497,-0.09723 -0.223909,-0.177674 -0.2276363,-0.122952 -0.3308856,-0.130706 -0.1877685,-0.0141 0.051284,0.04179 0.059411,0.05797 0.0233,0.04638 -0.076505,-0.02455 -0.069648,0.0021 0.01175,0.04565 0.04725,0.0253 0.06083,0.02562 0.04569,0.0011 -0.03386,-0.05479 4.18e-4,-0.04202 0.161671,0.06024 0.176692,0.112054 0.169265,0.110366 0.169265,0.03838 z M 9.8209072,30.824373 c -0.041565,-0.21022 -0.058032,-0.174125 -0.032407,0.07104 0.013113,0.125441 0.02903,0.179466 0.041991,0.142515 0.011482,-0.03273 0.00717,-0.128831 -0.00958,-0.213557 z m 0.5014138,0.08191 C 10.0633,30.70869 9.9147262,30.609463 9.8999767,30.624213 c -0.026703,0.02671 0.038671,0.08035 0.2551663,0.209394 0.211306,0.125951 0.27108,0.151935 0.167178,0.07267 z m -0.887602,-0.61442 c -0.028763,-0.04654 -0.1427726,-0.102072 -0.1427726,-0.06954 0,0.01538 0.032102,0.04346 0.071333,0.06238 0.091976,0.04436 0.094591,0.04462 0.071439,0.0072 z M 9.1102521,30.175782 c -0.021463,-0.0087 -0.064265,-0.0092 -0.095111,-0.0012 -0.030847,0.008 -0.013283,0.01514 0.039027,0.01579 0.052311,6.68e-4 0.077549,-0.0059 0.056085,-0.01461 z"
       id="path1"
       sodipodi:nodetypes="ssssssssssscsssssssssssssssssssssssssssssssssssssssssssssssssssssssssssssscssssssssssssssssssssssssssssssssssssssssssssssssssssssssssssssssssssssssssssssssssssssssssssssssssssssssssssssssssssssssssssssssssssssssssssssssssssssssssssssssssssssssssssssssssssssssssscsssssssssssssssssssssssssssssssssssssssssssssssssssssssssssssssssscsssssssssssssssssssssssssssssssccscc" /></g></svg>
