<?xml version="1.0" encoding="UTF-8" standalone="no"?>
<!-- Created with Inkscape (http://www.inkscape.org/) -->

<svg
   width="194mm"
   height="10mm"
   viewBox="0 0 194 10"
   version="1.1"
   id="svg1"
   inkscape:version="1.4.2 (2aeb623e1d, 2025-05-12)"
   sodipodi:docname="ZabijakRowSetList.svg"
   xml:space="preserve"
   xmlns:inkscape="http://www.inkscape.org/namespaces/inkscape"
   xmlns:sodipodi="http://sodipodi.sourceforge.net/DTD/sodipodi-0.dtd"
   xmlns="http://www.w3.org/2000/svg"
   xmlns:svg="http://www.w3.org/2000/svg"><sodipodi:namedview
     id="namedview1"
     pagecolor="#ffffff"
     bordercolor="#000000"
     borderopacity="0.25"
     inkscape:showpageshadow="2"
     inkscape:pageopacity="0.0"
     inkscape:pagecheckerboard="0"
     inkscape:deskcolor="#d1d1d1"
     inkscape:document-units="mm"
     inkscape:zoom="14.872583"
     inkscape:cx="725.83223"
     inkscape:cy="21.146293"
     inkscape:window-width="1920"
     inkscape:window-height="940"
     inkscape:window-x="0"
     inkscape:window-y="0"
     inkscape:window-maximized="1"
     inkscape:current-layer="svg1"
     showgrid="true"><inkscape:grid
       id="grid1"
       units="mm"
       originx="0"
       originy="0"
       spacingx="0.99999995"
       spacingy="0.99999997"
       empcolor="#0099e5"
       empopacity="0.30196078"
       color="#0099e5"
       opacity="0.14901961"
       empspacing="5"
       enabled="true"
       visible="true" /></sodipodi:namedview><defs
     id="defs1" /><g
     id="g5"
     inkscape:label="Row"
     style="display:inline;stroke:none;stroke-width:1.00177;stroke-dasharray:none;stroke-opacity:1"
     transform="matrix(0.25939404,0,0,0.26432057,-5.8823216,-15.984109)"><rect
       style="display:inline;opacity:1;fill:#fa0000;fill-opacity:0.307692;stroke:none;stroke-width:1.00177;stroke-dasharray:none;stroke-opacity:1"
       id="rect4"
       width="611.91559"
       height="37.832848"
       x="158.65842"
       y="60.472439"
       inkscape:label="Popis" /><rect
       style="display:inline;fill:#fa0000;fill-opacity:0.307692;stroke:none;stroke-width:1.00177;stroke-dasharray:none;stroke-opacity:1"
       id="rect4-42"
       width="98.208679"
       height="37.832848"
       x="60.449734"
       y="60.472439"
       inkscape:label="Jmeno" /><rect
       style="display:inline;opacity:1;fill:#fa0000;fill-opacity:0.307692;stroke:none;stroke-width:1.00177;stroke-dasharray:none;stroke-opacity:1"
       id="rect5"
       width="37.772568"
       height="37.832848"
       x="22.677166"
       y="60.472439"
       inkscape:label="Logo" /></g><g
     inkscape:label="Layer 1"
     inkscape:groupmode="layer"
     id="layer1"
     transform="translate(-5.9999979,-28.039034)"
     style="display:inline"><text
       xml:space="preserve"
       style="font-size:3.80938px;font-family:'New Rocker';-inkscape-font-specification:'New Rocker';text-align:start;letter-spacing:0px;writing-mode:lr-tb;direction:ltr;text-anchor:start;fill:#000000;fill-opacity:1;stroke:none;stroke-width:0.0504741"
       x="18.035286"
       y="34.122803"
       id="text1"
       inkscape:label="Role"><tspan
         style="letter-spacing:0px;fill:#000000;fill-opacity:1;stroke:none;stroke-width:0.0504743"
         x="18.035286"
         y="34.122803"
         sodipodi:role="line"
         id="tspan8">Zabiják</tspan></text><text
       xml:space="preserve"
       style="font-size:3px;font-family:'New Rocker';-inkscape-font-specification:'New Rocker';text-align:start;letter-spacing:0px;writing-mode:lr-tb;direction:ltr;text-anchor:start;fill:#000000;fill-opacity:1;stroke:none;stroke-width:0.040981"
       x="42.755661"
       y="33.891289"
       id="text2"
       inkscape:label="Popis"><tspan
         sodipodi:role="line"
         style="font-style:normal;font-variant:normal;font-weight:normal;font-stretch:normal;font-size:3px;font-family:'Didact Gothic';-inkscape-font-specification:'Didact Gothic';letter-spacing:0px;stroke-width:0.0409811"
         x="42.755661"
         y="33.891289"
         id="tspan9">Jednou za hru můžeš kdykoliv kromě noci veřejně vybrat hráče, pokud je Démon, umře.  </tspan></text><path
       style="fill:#000000;stroke-width:0.0366699"
       d="m 7.4949052,37.267342 c 0,-0.207768 -0.062576,-0.118516 0.9055815,-1.291602 0.5126405,-0.62115 1.0885392,-1.341472 1.1295967,-1.412875 0.041994,-0.07303 0.3511295,-0.451882 0.3945359,-0.483509 0.01586,-0.01156 0.0037,-0.08116 -0.026994,-0.154669 -0.030707,-0.07351 -0.055844,-0.177867 -0.055844,-0.231908 0,-0.05404 -0.031164,-0.190707 -0.069247,-0.303704 C 9.6792093,33.112174 9.579649,32.771624 9.5463171,32.615243 9.5050591,32.421705 9.3253751,31.831954 9.2949282,31.79017 9.2802282,31.77 9.2325282,31.63799 9.1889331,31.496811 9.1453311,31.355632 9.0763701,31.133783 9.035683,31.003815 8.994996,30.873845 8.961705,30.738888 8.961705,30.703907 c 0,-0.03498 -0.028627,-0.09222 -0.06361,-0.12721 -0.034988,-0.03499 -0.058556,-0.102174 -0.052378,-0.149298 0.00617,-0.04713 -0.00489,-0.08569 -0.024634,-0.08569 -0.019722,0 -0.02775,-0.03713 -0.017838,-0.08251 0.017632,-0.0807 0.016354,-0.0805 -0.058155,0.0091 l -0.076178,0.09168 0.019028,-0.128345 c 0.018026,-0.121576 0.016707,-0.12351 -0.024976,-0.03667 -0.042024,0.08755 -0.044633,0.08819 -0.057849,0.01442 -0.00966,-0.05393 -0.059661,-0.09099 -0.1656568,-0.122747 -0.2911314,-0.08723 -0.3414426,-0.113159 -0.2859979,-0.147426 0.039981,-0.02471 0.025829,-0.05272 -0.065415,-0.129499 -0.1343805,-0.113074 -0.149519,-0.217841 -0.039952,-0.27648 0.084481,-0.04521 0.098924,-0.03763 0.1590759,0.08354 0.034658,0.06982 0.075459,0.08493 0.2543203,0.09425 0.122057,0.0063 0.234523,-0.0067 0.2633442,-0.03066 0.027667,-0.02296 0.067678,-0.03101 0.088914,-0.01788 0.021236,0.01312 0.339611,0.03784 0.7075018,0.0549 0.6368485,0.02956 1.0180075,0.08399 1.4500155,0.207115 0.106922,0.03047 0.222434,0.06144 0.256689,0.06881 0.165204,0.03557 0.603679,0.205399 0.847173,0.328128 0.229237,0.115542 0.285134,0.130644 0.358995,0.09699 0.0926,-0.04219 0.305559,0.01917 0.357351,0.102973 0.08098,0.131023 0.562154,-0.251215 0.638964,-0.50758 0.05914,-0.197394 0.24627,-0.394179 0.97531,-1.025637 0.453294,-0.392619 0.643154,-0.536861 0.643154,-0.488622 0,0.08212 -0.614803,1.009561 -0.965178,1.455986 -0.157384,0.200529 -0.294505,0.337227 -0.369845,0.368706 -0.113342,0.04736 -0.387683,0.363663 -0.437199,0.504072 -0.01496,0.04242 0.02088,0.122333 0.103264,0.230268 0.108642,0.142328 0.1211,0.178664 0.08963,0.261429 -0.02932,0.07711 -0.02283,0.111353 0.03274,0.173101 0.08332,0.09257 0.335644,0.46706 0.449101,0.66656 0.286236,0.503309 0.485444,1.014746 0.620202,1.592274 0.04471,0.1916 0.106034,0.447373 0.136279,0.568382 0.03025,0.12101 0.06244,0.294276 0.07154,0.385033 0.03544,0.353364 0.140378,0.550049 0.293468,0.550049 0.07033,0 0.08599,0.01926 0.08599,0.105733 0,0.177094 -0.157593,0.173955 -0.357531,-0.0072 -0.08003,-0.07248 -0.08255,-0.07261 -0.08373,-0.0041 -0.0011,0.06321 -0.0091,0.06104 -0.07719,-0.02076 -0.09663,-0.116165 -0.251618,-0.420551 -0.251618,-0.494173 0,-0.06637 -0.0496,-0.07151 -0.153516,-0.01589 -0.04661,0.02494 -0.06654,0.02606 -0.05223,0.0029 0.01504,-0.02434 -0.03788,-0.03102 -0.151422,-0.01912 -0.275913,0.0289 -0.414244,0.01643 -0.473336,-0.04266 -0.03097,-0.03097 -0.121457,-0.05498 -0.208033,-0.0552 -0.08428,-2.77e-4 -0.442004,-0.033 -0.794951,-0.07285 -0.352948,-0.03985 -0.872743,-0.08118 -1.155101,-0.09185 -0.282359,-0.01067 -0.597356,-0.02825 -0.699994,-0.03906 l -0.186615,-0.01966 -0.455108,0.499127 c -0.5194849,0.569758 -0.8109136,0.9082 -1.4742678,1.712124 -0.5219236,0.632523 -0.6803928,0.762841 -0.927635,0.762841 H 7.4948916 Z m 0.3118975,-0.141477 c -0.036619,-0.04046 -0.083395,-0.07356 -0.1039533,-0.07356 -0.020559,0 0.0013,0.04119 0.048609,0.09153 0.1008962,0.1074 0.1533793,0.09036 0.055346,-0.01796 z m 0.1779157,-0.03554 c -0.034599,-0.172979 0.00994,-0.274564 0.2369274,-0.540425 0.2052206,-0.240366 0.7199087,-0.996759 0.6951156,-1.021552 -0.00666,-0.0066 -0.1480768,0.156119 -0.3142643,0.361726 -0.1661875,0.205608 -0.4251509,0.522343 -0.5754738,0.70386 -0.1503235,0.181515 -0.2737908,0.341135 -0.2743721,0.35471 -0.00112,0.02568 0.2135719,0.250344 0.2392012,0.250344 0.00803,0 0.00482,-0.0489 -0.00714,-0.108663 z M 9.838785,35.127137 c 0.099176,-0.08806 0.219105,-0.241618 0.239921,-0.3072 0.01243,-0.03916 0.04671,-0.09122 0.07619,-0.115682 0.0957,-0.07943 0.06292,-0.1455 -0.07221,-0.1455 -0.1012927,0 -0.1288877,-0.01607 -0.1416857,-0.08251 -0.01462,-0.07588 -0.0163,-0.07496 -0.02088,0.01133 -0.0028,0.05161 0.01923,0.125865 0.04884,0.165014 0.088,0.116357 0.06553,0.186626 -0.118954,0.371962 -0.096323,0.09676 -0.2225967,0.241933 -0.2806169,0.322607 l -0.1054899,0.14668 0.1667945,-0.165015 c 0.091738,-0.09075 0.1853797,-0.181517 0.2080948,-0.201685 z m 4.843418,-0.289084 c 0,-0.0078 -0.033,-0.02269 -0.07334,-0.03324 -0.04033,-0.01055 -0.07334,-0.0043 -0.07334,0.01406 0,0.01828 0.033,0.03324 0.07334,0.03324 0.04033,0 0.07334,-0.0063 0.07334,-0.01406 z M 14.352173,34.4694 c 0,-0.11564 -0.120352,-0.618562 -0.222824,-0.931129 -0.191889,-0.585317 -0.587007,-1.284623 -0.945604,-1.673596 l -0.160005,-0.173559 -0.170023,0.164763 c -0.177975,0.172469 -0.361874,0.282741 -0.430382,0.258072 -0.02218,-0.008 -0.121053,0.08091 -0.219705,0.197547 -0.09865,0.116641 -0.286768,0.328248 -0.418035,0.470239 -0.218684,0.236546 -0.573941,0.70446 -0.928979,1.223569 -0.07714,0.112795 -0.164248,0.231652 -0.193561,0.264127 -0.04807,0.05326 -0.03613,0.06162 0.121929,0.0853 0.21608,0.03238 0.952228,0.08071 1.987803,0.130509 0.432202,0.02078 0.793859,0.04583 0.803682,0.05566 0.0099,0.0099 0.188374,0.01786 0.396782,0.01786 0.377111,0 0.378922,-4.16e-4 0.378922,-0.08935 z m 0.302502,-0.111458 c -0.02406,-0.12583 -0.04581,-0.11651 -0.04581,0.01962 0,0.0617 0.01429,0.103346 0.03176,0.09255 0.01747,-0.0108 0.02379,-0.06127 0.01407,-0.112174 z m -3.942874,-0.321736 c 0.15203,-0.201096 0.259031,-0.351124 0.555754,-0.779236 0.09785,-0.141179 0.258322,-0.346017 0.356604,-0.455198 0.09828,-0.10918 0.145862,-0.180665 0.105736,-0.158856 -0.07836,0.04259 -0.264582,0.234935 -0.35037,0.361897 -0.361869,0.535551 -0.674149,0.899263 -0.850314,0.990361 -0.05973,0.03089 -0.146525,0.04665 -0.192861,0.03502 -0.07134,-0.0179 -0.0812,-0.0094 -0.06431,0.05508 0.01986,0.07591 0.12087,0.136697 0.234506,0.141121 0.03285,0.0012 0.125208,-0.08431 0.205258,-0.190193 z m 3.885441,0.112301 c -0.01171,-0.02925 -0.02039,-0.02056 -0.02215,0.02216 -0.0016,0.03865 0.0071,0.06031 0.01925,0.04814 0.01219,-0.01218 0.01349,-0.04381 0.0029,-0.07028 z m -3.943759,-0.92003 c 0.363465,-0.400624 0.804029,-0.949647 0.962898,-1.199948 0.05761,-0.09076 0.146043,-0.209381 0.196529,-0.263606 0.06822,-0.07327 0.08677,-0.124852 0.07225,-0.200831 -0.02015,-0.105378 0.06112,-0.302107 0.205414,-0.497273 0.04703,-0.0636 0.0625,-0.114948 0.04099,-0.135913 -0.04183,-0.04075 -0.600127,-0.328262 -0.804652,-0.41438 -0.453569,-0.190977 -1.200594,-0.349002 -1.8116303,-0.383229 l -0.4181679,-0.02343 0.025665,0.161759 c 0.025531,0.160963 0.1799654,0.750034 0.3170631,1.209451 0.039546,0.132526 0.071903,0.275175 0.071903,0.317 0,0.04183 0.033166,0.189165 0.073708,0.327426 0.040542,0.138262 0.1086695,0.375146 0.1514014,0.526408 0.1708861,0.604903 0.2702777,0.933521 0.3327297,1.100097 l 0.03437,0.09168 0.112128,-0.128344 c 0.06167,-0.07059 0.2585,-0.289681 0.437399,-0.486868 z m 3.605856,0.33176 c -0.03312,-0.240836 -0.106003,-0.449789 -0.21449,-0.61496 -0.04636,-0.07059 -0.113013,-0.175155 -0.148107,-0.232368 -0.12466,-0.203232 -0.09058,-0.07075 0.05091,0.197855 0.07905,0.150077 0.18073,0.400753 0.22596,0.557058 0.04523,0.156306 0.08896,0.284192 0.09717,0.284192 0.0082,0 0.0031,-0.0863 -0.01143,-0.191777 z m -2.226665,-1.531708 c 0.03938,0 0.02549,-0.0289 -0.04549,-0.09468 -0.109366,-0.101355 -0.111813,-0.100265 -0.219158,0.09736 -0.02819,0.05189 -0.07709,0.11579 -0.108667,0.142001 -0.132934,0.110326 -0.04285,0.09726 0.129611,-0.01881 0.102869,-0.06923 0.212539,-0.125865 0.243709,-0.125865 z m 1.54922,-0.174181 c -0.153102,-0.275391 -0.241814,-0.368527 -0.297746,-0.312595 -0.03166,0.03166 0.0046,0.0944 0.146271,0.253415 0.103596,0.116233 0.188357,0.224539 0.188357,0.240681 0,0.01614 0.01808,0.02935 0.04017,0.02935 0.0221,0 -0.01258,-0.09488 -0.07705,-0.210852 z m -0.976097,-0.320274 c 0.0469,-0.03552 0.06308,-0.0819 0.05086,-0.145835 -0.01467,-0.07674 -0.0087,-0.0861 0.03295,-0.05154 0.06425,0.05332 0.114279,0.0089 0.05582,-0.04953 -0.02387,-0.02387 -0.0434,-0.05989 -0.0434,-0.08007 0,-0.02038 0.01955,-0.01712 0.04401,0.0074 0.06479,0.06479 0.08946,0.05556 0.17582,-0.06573 l 0.07814,-0.109735 -0.121479,-0.146294 c -0.06681,-0.08046 -0.131799,-0.14659 -0.144415,-0.146953 -0.03109,-8.84e-4 -0.549705,0.465808 -0.604405,0.543903 -0.02401,0.03427 -0.04943,0.10315 -0.05651,0.153074 -0.0119,0.08392 9.42e-4,0.0924 0.170478,0.112505 0.286948,0.03403 0.289465,0.03388 0.362142,-0.02115 z m -0.327894,-0.711733 c 0.02008,-0.0325 -0.206678,-0.153453 -0.382613,-0.20408 -0.06022,-0.01732 -0.02877,0.01808 0.09168,0.103201 0.189576,0.133987 0.256199,0.157086 0.290938,0.100878 z M 10.611844,30.18065 c 0,-0.0079 -0.119635,-0.04302 -0.265855,-0.07801 -0.156844,-0.03753 -0.303448,-0.09827 -0.3575317,-0.14812 -0.09289,-0.08561 -0.4235844,-0.191526 -0.4658899,-0.149222 -0.012677,0.01268 0.00446,0.02304 0.037969,0.02304 0.03356,0 0.1284996,0.06097 0.210985,0.135494 0.1324667,0.119674 0.1849179,0.140516 0.4493116,0.178534 0.37845,0.05441 0.391012,0.05565 0.391012,0.03828 z m 0.678394,-0.05896 c -0.01247,-0.02017 -0.05057,-0.03551 -0.08467,-0.03409 -0.05054,0.0021 -0.04846,0.0084 0.01133,0.03409 0.09813,0.04216 0.09939,0.04216 0.07334,0 z m 2.915649,-0.758476 c 0.649106,-0.656329 0.686576,-0.706869 0.256296,-0.345698 -0.498944,0.418809 -1.035594,0.994164 -0.927282,0.994164 0.01631,0 0.318255,-0.291809 0.670986,-0.648466 z M 8.7156367,29.90167 c -0.018397,-0.07035 -0.083965,-0.104712 -0.083965,-0.04401 0,0.02555 0.07477,0.117343 0.095575,0.117343 0.00418,0 -0.00106,-0.033 -0.011614,-0.07334 z m 0.2491764,-0.07718 c -0.019327,-0.04831 -0.036178,-0.06855 -0.037461,-0.04499 -0.00312,0.05723 0.03961,0.165803 0.057996,0.147416 0.00799,-0.008 -0.00124,-0.05411 -0.020541,-0.102424 z"
       id="path1-9"
       sodipodi:nodetypes="ssssssssssssssssscsssssssssssssssssssssssssssssssssssssssssssscssscsssssssssssssssssssssscsssssssssscsssssssssssssssssssssssssssssssssssssscsssssscsscssssscssssssssssssssssssscssssssssssssssssssssssssssssssssss" /></g></svg>
