<?xml version="1.0" encoding="UTF-8" standalone="no"?>
<!-- Created with Inkscape (http://www.inkscape.org/) -->

<svg
   width="194mm"
   height="10mm"
   viewBox="0 0 194 10"
   version="1.1"
   id="svg1"
   inkscape:version="1.4.2 (2aeb623e1d, 2025-05-12)"
   sodipodi:docname="BaronRowSetList.svg"
   xml:space="preserve"
   xmlns:inkscape="http://www.inkscape.org/namespaces/inkscape"
   xmlns:sodipodi="http://sodipodi.sourceforge.net/DTD/sodipodi-0.dtd"
   xmlns="http://www.w3.org/2000/svg"
   xmlns:svg="http://www.w3.org/2000/svg"><sodipodi:namedview
     id="namedview1"
     pagecolor="#ffffff"
     bordercolor="#000000"
     borderopacity="0.25"
     inkscape:showpageshadow="2"
     inkscape:pageopacity="0.0"
     inkscape:pagecheckerboard="0"
     inkscape:deskcolor="#d1d1d1"
     inkscape:document-units="mm"
     inkscape:zoom="1.5016837"
     inkscape:cx="103.8834"
     inkscape:cy="75.581829"
     inkscape:window-width="1920"
     inkscape:window-height="940"
     inkscape:window-x="0"
     inkscape:window-y="0"
     inkscape:window-maximized="1"
     inkscape:current-layer="svg1"
     showgrid="true"><inkscape:grid
       id="grid1"
       units="mm"
       originx="0"
       originy="0"
       spacingx="0.99999995"
       spacingy="0.99999997"
       empcolor="#0099e5"
       empopacity="0.30196078"
       color="#0099e5"
       opacity="0.14901961"
       empspacing="5"
       enabled="true"
       visible="true" /></sodipodi:namedview><defs
     id="defs1"><rect
       x="286.34526"
       y="27.302687"
       width="45.948425"
       height="73.251112"
       id="rect3" /></defs><g
     id="g5"
     inkscape:label="Row"
     style="display:inline;stroke:none;stroke-width:1.00177;stroke-dasharray:none;stroke-opacity:1"
     transform="matrix(0.25939404,0,0,0.26432057,-5.8823216,-15.984109)"><rect
       style="display:inline;opacity:1;fill:#fa0000;fill-opacity:0.307692;stroke:none;stroke-width:1.00177;stroke-dasharray:none;stroke-opacity:1"
       id="rect4"
       width="611.91559"
       height="37.832848"
       x="158.65842"
       y="60.472439"
       inkscape:label="Popis" /><rect
       style="display:inline;fill:#fa0000;fill-opacity:0.307692;stroke:none;stroke-width:1.00177;stroke-dasharray:none;stroke-opacity:1"
       id="rect4-42"
       width="98.208679"
       height="37.832848"
       x="60.449734"
       y="60.472439"
       inkscape:label="Jmeno" /><rect
       style="display:inline;opacity:1;fill:#fa0000;fill-opacity:0.307692;stroke:none;stroke-width:1.00177;stroke-dasharray:none;stroke-opacity:1"
       id="rect5"
       width="37.772568"
       height="37.832848"
       x="22.677166"
       y="60.472439"
       inkscape:label="Logo" /></g><g
     inkscape:label="Layer 1"
     inkscape:groupmode="layer"
     id="layer1"
     transform="translate(-5.9999979,-28.039034)"
     style="display:inline"><text
       xml:space="preserve"
       style="font-size:3.80938px;font-family:'New Rocker';-inkscape-font-specification:'New Rocker';text-align:start;letter-spacing:0px;writing-mode:lr-tb;direction:ltr;text-anchor:start;fill:#000000;fill-opacity:1;stroke:none;stroke-width:0.0504741"
       x="18.035286"
       y="34.122803"
       id="text1"
       inkscape:label="Role"><tspan
         style="letter-spacing:0px;fill:#000000;fill-opacity:1;stroke:none;stroke-width:0.0504743"
         x="18.035286"
         y="34.122803"
         sodipodi:role="line"
         id="tspan8">Baron</tspan></text><text
       xml:space="preserve"
       style="font-size:3px;font-family:'New Rocker';-inkscape-font-specification:'New Rocker';text-align:start;letter-spacing:0px;writing-mode:lr-tb;direction:ltr;text-anchor:start;fill:#000000;fill-opacity:1;stroke:none;stroke-width:0.040981"
       x="42.755661"
       y="33.891289"
       id="text2"
       inkscape:label="Popis"><tspan
         sodipodi:role="line"
         style="font-style:normal;font-variant:normal;font-weight:normal;font-stretch:normal;font-size:3px;font-family:'Didact Gothic';-inkscape-font-specification:'Didact Gothic';letter-spacing:0px;stroke-width:0.0409811"
         x="42.755661"
         y="33.891289"
         id="tspan9">Ve hře jsou Outsideři navíc. [+2 Outsideři]</tspan></text></g><path
     style="fill:#000000;stroke-width:0.0301468"
     d="M 5.0239401,8.8171367 C 4.5499268,8.7792541 4.292825,8.7318069 3.9405696,8.6172018 3.4610056,8.4611778 2.7776185,8.1125457 2.4306176,7.8468959 2.2842199,7.7348194 1.6219133,6.9790579 1.3529042,6.6171105 1.2865948,6.5278924 1.1952962,6.1428317 1.1952962,5.9523846 c 0,-0.218972 0.060073,-0.3511024 0.1738927,-0.3824673 0.1441554,-0.039721 0.4678928,-0.023962 0.6652931,0.032396 0.1050664,0.029999 0.197735,0.047832 0.20593,0.039641 C 2.248602,5.6337643 2.271747,5.5294997 2.291841,5.4102666 2.3306317,5.1800441 2.3252558,5.1007313 2.2183026,4.3255723 2.1851277,4.0851513 2.1517015,3.8341794 2.144017,3.7678564 2.1300348,3.6471705 2.0913245,3.4036822 1.9738776,2.6976444 1.9394032,2.4903855 1.8857776,2.2249821 1.8547138,2.1078587 1.8236475,1.9907363 1.798233,1.8175852 1.798233,1.7230782 1.798233,1.6285712 1.781278,1.5234914 1.760546,1.4895667 1.727402,1.4353117 1.734059,1.4178027 1.815838,1.3441338 1.902035,1.2664908 1.9332175,1.2589868 2.2433575,1.2412413 2.427356,1.2307162 2.6999707,1.2058472 2.8491673,1.1859803 3.0594366,1.157985 3.1948593,1.157936 3.4514137,1.1857639 c 0.3597577,0.039017 0.4933513,0.074456 0.6047609,0.1604197 0.07079,0.054624 0.073225,0.054476 0.1162957,-0.00702 0.041953,-0.059895 0.062375,-0.061976 0.4401922,-0.044877 0.2179097,0.00986 0.5793415,0.038098 0.8031814,0.06275 0.2238402,0.024648 0.4476799,0.046458 0.4974221,0.048458 0.049745,0.00202 0.2939313,0.028553 0.5426424,0.059007 0.2487117,0.030454 0.58108,0.062412 0.7385974,0.071023 0.4465206,0.024411 1.0221141,0.1496498 1.2748624,0.2773851 0.1413474,0.071435 0.1439526,0.075291 0.1249088,0.1849107 C 8.5835803,2.059399 8.533922,2.1979578 8.4839224,2.3057323 8.433927,2.4135074 8.3260489,2.7119608 8.2441983,2.9689619 8.1623477,3.2259637 8.0501634,3.571898 7.9948994,3.7377054 7.8818409,4.0769139 7.6870795,4.7088682 7.5907447,5.0490918 7.5555346,5.1734471 7.4994558,5.3681925 7.4661283,5.481859 7.404431,5.6922847 7.3913072,5.8520658 7.4252966,5.9790189 c 0.015754,0.058853 0.033169,0.067897 0.1035946,0.053815 0.060851,-0.012174 0.1719611,0.021571 0.3951671,0.1199968 0.1707818,0.075311 0.3291003,0.1549558 0.3518189,0.1769891 0.026402,0.025604 0.046207,0.1362551 0.054893,0.306682 0.01386,0.2720009 -3.19e-4,0.3358867 -0.1762671,0.7942222 C 8.091591,7.594611 7.9582088,7.7509759 7.6411366,8.0325476 7.3083732,8.3280542 7.0626456,8.463138 6.5316494,8.6424668 6.0040962,8.8206327 5.6218332,8.864918 5.0239395,8.8171349 Z M 6.8747263,8.2614291 c 0.2836559,-0.1400024 0.5428704,-0.276618 0.5760319,-0.3035907 0.057867,-0.047065 0.05604,-0.048395 -0.045221,-0.033022 -0.058031,0.00882 -0.1383251,0.025513 -0.1784287,0.037117 -0.057352,0.016587 -0.069215,0.011451 -0.05558,-0.024078 0.01481,-0.038593 -0.00374,-0.041009 -0.1272793,-0.016575 -0.093642,0.018513 -0.163391,0.018084 -0.1978906,-0.00123 -0.046625,-0.026089 -0.039844,-0.03619 0.054255,-0.080843 0.097805,-0.04641 0.238411,-0.1673465 0.1945664,-0.1673465 -0.010028,0 -0.078538,0.040696 -0.1522414,0.090441 -0.073704,0.049745 -0.1403383,0.09044 -0.148076,0.09044 -0.00774,0 -0.1075152,0.042965 -0.2217285,0.09547 -0.1884066,0.086618 -0.2006731,0.097519 -0.1322936,0.1175822 0.041451,0.012162 0.1465885,0.023465 0.2336378,0.02512 0.087049,0.00165 0.1582707,0.015429 0.1582707,0.030619 0,0.035823 -0.187362,0.1802432 -0.369299,0.2846561 -0.1332338,0.076464 -0.1708192,0.1097862 -0.1238287,0.1097862 0.010654,0 0.2514499,-0.1145474 0.5351057,-0.2545492 z M 5.7028623,8.04853 C 6.2085316,8.0205594 6.5848769,7.8851004 6.8822526,7.6240191 6.9891211,7.5301933 7.0695103,7.4463792 7.060896,7.4377643 7.0522859,7.4291542 7.0279487,7.4353694 7.0068179,7.4515385 6.9583297,7.488692 6.5028791,7.6016504 6.3111588,7.6240691 6.133094,7.644892 6.1477519,7.5967479 6.326962,7.5721607 c 0.07092,-0.00973 0.2306922,-0.053115 0.3550475,-0.096407 0.1243559,-0.043296 0.2396677,-0.082084 0.2562483,-0.0862 0.2065713,-0.051289 0.3768345,-0.2004021 0.3768345,-0.3300186 0,-0.067724 -0.053472,-0.064015 -0.1788298,0.012408 -0.1738241,0.1059687 -0.5965732,0.2644238 -0.9334026,0.3498593 -0.2956925,0.075002 -0.3662212,0.081102 -0.93775,0.081102 -0.5717386,0 -0.641983,-0.00606 -0.9382117,-0.081215 C 3.5590521,7.2269341 3.1037035,6.9800189 2.61732,6.4946598 2.3983756,6.276177 2.3300097,6.2235366 2.3087768,6.2570892 c -0.039727,0.06278 -0.034229,0.088744 0.014823,0.069922 0.031097,-0.011935 0.038625,2.96e-4 0.027167,0.044117 -0.012002,0.0459 0.048953,0.1284267 0.2509111,0.3397081 0.2581846,0.2701022 0.2038805,0.274148 -0.07263,0.0054 -0.074962,-0.07286 -0.1581422,-0.1281049 -0.1848445,-0.1227706 -0.032832,0.00656 -0.05973,-0.02471 -0.083072,-0.096576 l -0.034524,-0.1062765 -0.00318,0.1001165 c -0.00398,0.1267195 0.1685119,0.3321353 0.5595273,0.6662425 0.3162803,0.2702496 0.8961476,0.6072306 1.1717144,0.680923 0.098956,0.026463 0.3087969,0.083536 0.4663143,0.1268286 0.3430409,0.094283 0.556124,0.1237349 0.7988902,0.1104195 0.099484,-0.00545 0.3168198,-0.01744 0.482968,-0.026628 z M 3.4507234,7.339203 C 3.2876143,7.253052 3.2776011,7.2068599 3.4390334,7.285291 c 0.075822,0.036834 0.137857,0.077839 0.137857,0.091116 0,0.030601 0.00496,0.032072 -0.1261704,-0.037203 z M 3.0342512,7.0990787 c -0.024868,-0.016072 -0.031654,-0.029222 -0.015073,-0.029222 0.016582,0 0.050498,0.013149 0.075368,0.029222 0.024869,0.016072 0.031654,0.029222 0.015073,0.029222 -0.016582,0 -0.050498,-0.013149 -0.075368,-0.029222 z M 5.8981974,7.2976552 C 6.2929458,7.2451588 6.6380132,7.157632 6.9265754,7.0368088 7.0490683,6.98552 7.1740379,6.9360052 7.2042858,6.926776 7.2466125,6.9138604 7.2547283,6.8918538 7.2395206,6.8312546 7.2142048,6.7303786 7.2203705,6.7336311 7.1171576,6.766733 6.9496669,6.8204492 6.5866708,6.8931939 6.5698841,6.8764078 6.5498757,6.8563995 6.6944023,6.797972 6.7668828,6.7967624 6.837573,6.7955942 7.1731205,6.60993 7.1876373,6.5639657 7.1954846,6.5390963 7.1499757,6.547654 7.0538292,6.5891233 6.8548392,6.6749529 6.6486394,6.7441337 6.6343622,6.7298565 6.6278808,6.7233751 6.7410843,6.6521883 6.8859317,6.5716692 7.2229593,6.3843199 7.3202664,6.283067 7.3351521,6.1042317 7.3441201,5.9965081 7.3403625,5.9823529 7.3170076,6.0354954 7.2808903,6.1175992 6.7711035,6.3697584 6.4253274,6.4765521 6.292926,6.5174446 6.0307421,6.580816 5.8426978,6.6173772 5.5471831,6.6748325 5.4326646,6.6818648 4.9985875,6.6692054 3.9576314,6.6388378 3.0968764,6.3200818 2.4962319,5.7425204 2.4075782,5.6572738 2.326182,5.5967589 2.315351,5.6080429 2.2877174,5.6368349 2.7072025,6.0180351 2.9511757,6.185831 3.0629991,6.2627391 3.1491013,6.3310524 3.1425153,6.337639 3.1069375,6.3732168 2.740448,6.1303114 2.4336163,5.867789 2.2584889,5.7179524 2.2344892,5.737101 2.3802249,5.9103917 c 0.054801,0.065163 0.1306004,0.1629355 0.1684438,0.217274 0.096412,0.1384343 0.4371588,0.4024433 0.6466704,0.5010365 0.2070695,0.097444 0.2055898,0.141278 -0.00215,0.06335 C 2.9251243,6.5914887 2.718384,6.4599168 2.5142182,6.2599445 2.2830103,6.0334848 2.2462409,6.0373265 2.4428031,6.2674046 2.7008249,6.5694218 3.1895537,6.8880364 3.668821,7.066676 c 0.2294558,0.085526 0.6215023,0.1894443 0.7672557,0.2033739 0.066324,0.00634 0.1884181,0.023134 0.2713218,0.037319 0.2398565,0.041045 0.8463307,0.036099 1.1907987,-0.00971 z M 6.109225,6.2978628 6.184593,6.2524528 6.109225,6.2721718 c -0.04145,0.010843 -0.088255,0.031759 -0.1040066,0.046476 -0.046048,0.043026 0.020014,0.029822 0.1040066,-0.020786 z M 6.624514,6.1608419 c 0.1106408,-0.024134 0.1742286,-0.066902 0.3165414,-0.2129052 0.097948,-0.1004891 0.1426928,-0.1603874 0.099432,-0.1331081 -0.043259,0.027278 -0.1009164,0.041057 -0.1281239,0.030619 -0.02721,-0.010439 -0.049198,-0.020922 -0.048874,-0.023294 3.303e-4,-0.00239 0.021327,-0.1128396 0.046673,-0.2454856 0.025341,-0.1326458 0.051375,-0.2749665 0.057841,-0.3162674 0.00647,-0.041304 0.042707,-0.1001458 0.08052,-0.1307665 0.06301,-0.051025 0.06441,-0.058106 0.016766,-0.084769 -0.046813,-0.026199 -0.041474,-0.042867 0.053692,-0.1674999 0.1166977,-0.1528341 0.1283457,-0.1900277 0.059516,-0.1900277 -0.07213,0 -0.08581,-0.081168 -0.03703,-0.2197015 C 7.1660599,4.397793 7.2239239,4.2185542 7.2700546,4.0693276 7.428818,3.5557444 7.5811832,3.1255782 7.631569,3.0486798 7.659337,3.0062978 7.674122,2.9587788 7.664425,2.9430851 7.654725,2.9273921 7.690862,2.8863221 7.744731,2.8518271 l 0.09794,-0.062723 -0.1148301,-5.014e-4 C 7.6636236,2.7883293 7.6207633,2.7755522 7.6305993,2.759639 7.6402722,2.7439895 7.7505429,2.6627219 7.8756447,2.5790482 L 8.1031023,2.4269153 7.9578135,2.444876 C 7.8779045,2.454746 7.7379105,2.481221 7.6467166,2.503686 7.3050967,2.587857 6.8426542,2.6673302 6.6939779,2.6674184 6.474344,2.6675435 6.1695228,2.7024814 6.1695228,2.7275214 c 0,0.024477 0.170785,0.1001624 0.3466883,0.1536431 0.066323,0.020168 0.1477193,0.053673 0.1808808,0.074458 0.033163,0.020787 0.1444668,0.04712 0.2473454,0.058523 0.2103209,0.023305 0.2721034,0.068374 0.2220222,0.1619511 -0.017734,0.033133 -0.032237,0.1562571 -0.032237,0.2736126 0,0.1376423 -0.031072,0.3336174 -0.087546,0.552161 -0.04815,0.1863332 -0.097071,0.4134003 -0.1087123,0.5045948 -0.011641,0.091194 -0.053158,0.3277928 -0.092259,0.5257753 -0.049498,0.2506366 -0.061687,0.3713011 -0.040126,0.3972801 0.021639,0.026077 0.016778,0.064751 -0.016146,0.12842 -0.063721,0.1232217 -0.061494,0.1878173 0.00565,0.1636968 C 6.9092774,5.6806092 6.6202134,5.9649583 6.4031747,6.107154 6.3244167,6.158756 6.2599774,6.206955 6.2599774,6.2142677 c 0,0.014908 0.1563111,-0.00799 0.3645551,-0.053416 z M 6.621514,2.244171 C 7.2416904,2.241901 7.338247,2.23264 8.0832446,2.104371 8.2105513,2.08245 8.551122,1.9425412 8.551122,1.9121608 c 0,-0.013971 -0.047758,-0.00545 -0.1061244,0.018942 -0.058369,0.02439 -0.1431568,0.049186 -0.1884176,0.055102 -0.045263,0.00595 -0.1908216,0.031502 -0.3234675,0.056861 C 7.6050641,2.1057685 6.8855216,2.1555923 6.320255,2.1547433 5.7699178,2.1539463 4.4732903,2.0801241 4.2501414,2.0369303 4.1644553,2.0203429 4.0016626,1.998686 3.8883791,1.9887985 3.7750963,1.9789109 3.6010136,1.9523991 3.5015291,1.9298779 3.4020446,1.9073629 3.2663841,1.8807469 3.2000611,1.8707429 2.8762766,1.8218877 2.3011838,1.6548592 2.0955191,1.5499363 1.9612985,1.4814623 1.9290994,1.4767313 1.9751802,1.5322577 c 0.059771,0.072024 0.7189866,0.3815765 0.8125912,0.3815765 0.076451,0 0.099503,0.018917 0.146022,0.11981 0.064012,0.1388346 0.1004603,0.1544218 0.1004603,0.042965 0,-0.074558 0.00628,-0.077648 0.1281238,-0.062987 0.070468,0.00848 0.1891709,0.031005 0.2637846,0.050063 0.074613,0.019057 0.3120194,0.046998 0.5275691,0.062102 0.2155497,0.015098 0.4936541,0.04305 0.6180094,0.062116 0.2025125,0.031049 1.3437516,0.085513 1.3905221,0.066367 0.010365,-0.00423 0.3070248,-0.00878 0.6592477,-0.010083 z"
     id="path3"
     sodipodi:nodetypes="cssssssssssssssssscssssssssssssssssssssssccsssssssssssssssssssssssssssssssssssssssscsssssssssssssssssssssssssssssssssssssssssssssssscsssssssssssssssssssccsscsscssssssssssssssssssssssssssssssssssssss" /></svg>
