<?xml version="1.0" encoding="UTF-8" standalone="no"?>
<!-- Created with Inkscape (http://www.inkscape.org/) -->

<svg
   width="194mm"
   height="10mm"
   viewBox="0 0 194 10"
   version="1.1"
   id="svg1"
   inkscape:version="1.4.2 (2aeb623e1d, 2025-05-12)"
   sodipodi:docname="CertRowSetList.svg"
   xml:space="preserve"
   xmlns:inkscape="http://www.inkscape.org/namespaces/inkscape"
   xmlns:sodipodi="http://sodipodi.sourceforge.net/DTD/sodipodi-0.dtd"
   xmlns="http://www.w3.org/2000/svg"
   xmlns:svg="http://www.w3.org/2000/svg"><sodipodi:namedview
     id="namedview1"
     pagecolor="#ffffff"
     bordercolor="#000000"
     borderopacity="0.25"
     inkscape:showpageshadow="2"
     inkscape:pageopacity="0.0"
     inkscape:pagecheckerboard="0"
     inkscape:deskcolor="#d1d1d1"
     inkscape:document-units="mm"
     inkscape:zoom="1.2943447"
     inkscape:cx="260.36342"
     inkscape:cy="43.651434"
     inkscape:window-width="1920"
     inkscape:window-height="940"
     inkscape:window-x="0"
     inkscape:window-y="0"
     inkscape:window-maximized="1"
     inkscape:current-layer="svg1"
     showgrid="true"><inkscape:grid
       id="grid1"
       units="mm"
       originx="0"
       originy="0"
       spacingx="0.99999995"
       spacingy="0.99999997"
       empcolor="#0099e5"
       empopacity="0.30196078"
       color="#0099e5"
       opacity="0.14901961"
       empspacing="5"
       enabled="true"
       visible="true" /></sodipodi:namedview><defs
     id="defs1" /><g
     id="g5"
     inkscape:label="Row"
     style="display:inline;stroke:none;stroke-width:1.00177;stroke-dasharray:none;stroke-opacity:1"
     transform="matrix(0.25939404,0,0,0.26432057,-5.8823216,-15.984109)"><rect
       style="display:inline;opacity:1;fill:#fa0000;fill-opacity:0.307692;stroke:none;stroke-width:1.00177;stroke-dasharray:none;stroke-opacity:1"
       id="rect4"
       width="611.91559"
       height="37.832848"
       x="158.65842"
       y="60.472439"
       inkscape:label="Popis" /><rect
       style="display:inline;fill:#fa0000;fill-opacity:0.307692;stroke:none;stroke-width:1.00177;stroke-dasharray:none;stroke-opacity:1"
       id="rect4-42"
       width="98.208679"
       height="37.832848"
       x="60.449734"
       y="60.472439"
       inkscape:label="Jmeno" /><rect
       style="display:inline;opacity:1;fill:#fa0000;fill-opacity:0.307692;stroke:none;stroke-width:1.00177;stroke-dasharray:none;stroke-opacity:1"
       id="rect5"
       width="37.772568"
       height="37.832848"
       x="22.677166"
       y="60.472439"
       inkscape:label="Logo" /></g><g
     inkscape:label="Layer 1"
     inkscape:groupmode="layer"
     id="layer1"
     transform="translate(-5.9999979,-28.039034)"
     style="display:inline"><text
       xml:space="preserve"
       style="font-size:3.80938px;font-family:'New Rocker';-inkscape-font-specification:'New Rocker';text-align:start;letter-spacing:0px;writing-mode:lr-tb;direction:ltr;text-anchor:start;fill:#000000;fill-opacity:1;stroke:none;stroke-width:0.0504741"
       x="18.035286"
       y="34.122803"
       id="text1"
       inkscape:label="Role"><tspan
         style="letter-spacing:0px;fill:#000000;fill-opacity:1;stroke:none;stroke-width:0.0504743"
         x="18.035286"
         y="34.122803"
         sodipodi:role="line"
         id="tspan8">Čert</tspan></text><text
       xml:space="preserve"
       style="font-size:3px;font-family:'New Rocker';-inkscape-font-specification:'New Rocker';text-align:start;letter-spacing:0px;writing-mode:lr-tb;direction:ltr;text-anchor:start;fill:#000000;fill-opacity:1;stroke:none;stroke-width:0.040981"
       x="42.755661"
       y="33.891289"
       id="text2"
       inkscape:label="Popis"><tspan
         sodipodi:role="line"
         style="font-style:normal;font-variant:normal;font-weight:normal;font-stretch:normal;font-size:3px;font-family:'Didact Gothic';-inkscape-font-specification:'Didact Gothic';letter-spacing:0px;stroke-width:0.0409811"
         x="42.755661"
         y="33.891289"
         id="tspan9">Každou noc* si vyber hráče, ten zemře. Pokud zabiješ sám sebe, pak se jeden z Přisluhovačů stane Čert.</tspan></text><path
       style="fill:#000000;stroke-width:0.0272405"
       d="m 10.493776,36.974703 c -0.0092,-0.0093 -0.01715,-0.09141 -0.01754,-0.182549 -0.0011,-0.257595 -0.04995,-0.700326 -0.08147,-0.73831 -0.02371,-0.02857 -0.174902,-0.06107 -0.38372,-0.08249 C 9.9358034,35.963627 9.5711075,35.817805 9.4145592,35.732843 9.2481354,35.642521 9.0476805,35.444375 8.9131158,35.237174 8.793152,35.052456 8.7193153,34.890764 8.546156,34.433579 8.4578254,34.200364 8.3794196,33.82249 8.3794196,33.629998 c 0,-0.247897 -0.052006,-0.710725 -0.098191,-0.873863 -0.03897,-0.137652 -0.2793654,-0.5873 -0.3556557,-0.665239 -0.035485,-0.03625 -0.045568,-0.03407 -0.089391,0.01934 -0.027168,0.03311 -0.065826,0.115851 -0.085911,0.183874 -0.070332,0.2382 -0.1724476,0.109512 -0.2260967,-0.284931 C 7.4587002,31.5278 7.3089341,30.744174 7.278461,30.72353 7.26159,30.7121 7.269511,30.69725 7.2984,30.68617 c 0.055371,-0.02125 0.2587573,0.05008 0.4062756,0.142496 0.055886,0.03501 0.1092838,0.06365 0.1186622,0.06365 0.00938,0 0.062835,0.03626 0.1187914,0.08058 0.055956,0.04432 0.229336,0.16599 0.3852869,0.270379 0.2847987,0.190638 0.5677369,0.423309 0.5423326,0.445981 -0.00749,0.0067 -0.099428,8.1e-5 -0.2043039,-0.01471 -0.1566819,-0.02207 -0.2088987,-0.01917 -0.2928356,0.01629 -0.145995,0.06167 -0.1372081,0.14222 0.046078,0.422403 0.1696102,0.259276 0.2624321,0.509775 0.2721599,0.734478 0.012045,0.278275 0.102369,0.694219 0.2142334,0.986569 0.060194,0.157314 0.1217135,0.301877 0.1367098,0.321252 0.014995,0.01937 0.09581,0.150455 0.1795867,0.291288 0.1356914,0.228106 0.1730439,0.269642 0.3421265,0.380453 0.1867177,0.122369 0.3746578,0.205509 0.6020055,0.266316 0.09807,0.02623 0.126051,0.02378 0.187336,-0.01637 0.03962,-0.02596 0.08376,-0.07801 0.09807,-0.115655 0.01431,-0.03765 0.02621,-0.334269 0.02644,-0.659157 2.06e-4,-0.324889 0.0104,-0.606445 0.02261,-0.625681 0.01221,-0.01924 0.04242,-0.02721 0.06715,-0.01772 0.04012,0.0154 0.03916,4.01e-4 -0.009,-0.139545 -0.06881,-0.200002 -0.07203,-0.755169 -0.01182,-2.038433 l 0.04203,-0.895887 -0.06044,-0.06434 c -0.03324,-0.03539 -0.07749,-0.06434 -0.09832,-0.06434 -0.06191,0 -0.311638,0.113045 -0.4380637,0.198298 -0.064727,0.04365 -0.1215201,0.07511 -0.1262056,0.06992 -0.0047,-0.0052 0.06362,-0.155888 0.1517883,-0.334884 0.161475,-0.327822 0.24723,-0.445244 0.384939,-0.527091 0.06158,-0.0366 0.07491,-0.06369 0.07491,-0.152222 0,-0.08358 0.03507,-0.164416 0.156634,-0.360994 0.08615,-0.139313 0.168891,-0.253472 0.183873,-0.253686 0.04466,-6.38e-4 0.187425,0.240892 0.294645,0.498493 0.05519,0.132593 0.100343,0.25142 0.100343,0.26406 0,0.01264 0.04747,0.124804 0.10549,0.249252 0.176257,0.378054 0.316398,0.757459 0.279782,0.757459 -0.01105,0 -0.06855,-0.05005 -0.12777,-0.111208 -0.125356,-0.129461 -0.226839,-0.188438 -0.324251,-0.188438 h -0.06945 v 2.246383 c 0,2.193054 0.0012,2.247053 0.05269,2.274583 0.07624,0.0408 0.146276,0.03533 0.38497,-0.03008 0.202926,-0.05561 0.22375,-0.06903 0.454436,-0.292836 0.257935,-0.25024 0.428321,-0.479136 0.532406,-0.715235 0.0745,-0.16898 0.281072,-0.858236 0.333541,-1.112885 0.04034,-0.195792 0.224138,-0.530234 0.403668,-0.734531 0.200682,-0.228366 0.27877,-0.355625 0.255472,-0.416337 -0.0226,-0.05889 -0.367962,-0.156595 -0.555439,-0.157135 l -0.159214,-4.39e-4 0.09534,-0.0587 c 0.05244,-0.03228 0.166061,-0.104851 0.252495,-0.161259 0.158273,-0.10329 0.442677,-0.246329 0.619201,-0.311423 0.05244,-0.01934 0.229792,-0.09133 0.394121,-0.159986 0.365039,-0.152512 0.405144,-0.147821 0.383688,0.04488 -0.0084,0.07584 -0.03395,0.200431 -0.05667,0.276874 -0.05718,0.192387 -0.167757,0.880006 -0.187315,1.164864 -0.0089,0.129745 -0.02707,0.264586 -0.04037,0.299645 -0.02316,0.06109 -0.02525,0.05977 -0.05001,-0.0316 -0.02204,-0.08133 -0.0363,-0.09422 -0.09705,-0.08772 -0.06333,0.0068 -0.07295,-0.0038 -0.08685,-0.09534 -0.05661,-0.372834 -0.08331,-0.380798 -0.326867,-0.09754 -0.209942,0.244168 -0.276028,0.359876 -0.346958,0.60748 -0.07307,0.255087 -0.211491,0.924861 -0.211902,1.025348 -6.38e-4,0.142801 -0.133152,0.606836 -0.228873,0.801137 -0.215109,0.436641 -0.523558,0.779629 -0.847476,0.942371 -0.235148,0.118143 -0.575316,0.215754 -0.785261,0.22533 -0.02737,0.0012 -0.08628,0.03879 -0.130914,0.08342 l -0.08115,0.08115 0.0191,0.368321 0.0191,0.36832 -0.106114,2.06e-4 c -0.05836,8e-5 -0.149017,0.01112 -0.201456,0.02452 -0.16213,0.04144 -0.265237,0.05514 -0.282809,0.03756 z m -0.09856,-1.465777 c 0,-0.123426 -0.02658,-0.149169 -0.15402,-0.149169 -0.128067,0 -0.3791663,-0.119684 -0.6945466,-0.331048 -0.1398498,-0.09372 -0.4323967,-0.411616 -0.6354251,-0.690471 -0.1236631,-0.16985 -0.1310662,-0.173043 -0.063154,-0.02724 0.2007132,0.430914 0.5642894,0.832702 0.9294631,1.027154 0.4475646,0.238325 0.6176826,0.285357 0.6176826,0.170775 z m 0.980659,-0.127354 c 0.151888,-0.03667 0.427118,-0.177698 0.44678,-0.228937 0.01843,-0.04802 -0.01589,-0.04809 -0.130354,-2.06e-4 -0.04974,0.02078 -0.139181,0.04602 -0.198763,0.05609 -0.05959,0.01007 -0.15637,0.03482 -0.215079,0.055 -0.12083,0.04153 -0.147749,0.03396 -0.147749,-0.04153 0,-0.02908 -0.0092,-0.05288 -0.02043,-0.05289 -0.01124,-9e-6 -0.01619,0.06122 -0.011,0.136064 0.01055,0.152235 -0.01177,0.146065 0.276596,0.07645 z m 1.209311,-0.788017 c 0.08297,-0.106784 0.16852,-0.244689 0.190109,-0.306457 0.07595,-0.217282 0.153461,-0.521793 0.153404,-0.602633 -5.5e-5,-0.09219 0.12592,-0.622053 0.164236,-0.690743 0.01373,-0.02461 0.05481,-0.118299 0.0913,-0.208193 0.03649,-0.08989 0.109947,-0.240536 0.163251,-0.334762 0.118635,-0.209716 0.08581,-0.196716 -0.07489,0.02966 -0.156301,0.220179 -0.298336,0.523971 -0.371965,0.795583 -0.03247,0.119775 -0.07626,0.279063 -0.0973,0.353974 -0.02105,0.07491 -0.05803,0.209752 -0.08218,0.299646 -0.02415,0.08989 -0.0628,0.200217 -0.08589,0.245164 -0.03886,0.07566 -0.03864,0.07895 0.0031,0.04434 0.02479,-0.02056 0.04507,-0.0311 0.04507,-0.02342 0,0.01626 -0.174152,0.381059 -0.232603,0.487236 -0.04061,0.07377 -0.04893,0.104759 -0.02814,0.104759 0.0064,0 0.07954,-0.08737 0.162516,-0.194152 z M 8.7369269,33.990467 c -0.026902,-0.0267 -0.030031,-0.02358 -0.015251,0.01525 0.01023,0.02687 0.025463,0.04198 0.03385,0.0336 0.00839,-0.0084 1.76e-5,-0.03037 -0.018599,-0.04884 z"
       id="path3"
       sodipodi:nodetypes="cssssssssssssssssssscsssssssssscsssscssssssssssssssscssssssssscssssssssssssssssssccccsccssssssssscscsssssscsssssssssssssssss" /></g></svg>
