<?xml version="1.0" encoding="UTF-8" standalone="no"?>
<!-- Created with Inkscape (http://www.inkscape.org/) -->

<svg
   width="194mm"
   height="10mm"
   viewBox="0 0 194 10"
   version="1.1"
   id="svg1"
   inkscape:version="1.4.2 (2aeb623e1d, 2025-05-12)"
   sodipodi:docname="KnihovnikRowSetList.svg"
   xml:space="preserve"
   xmlns:inkscape="http://www.inkscape.org/namespaces/inkscape"
   xmlns:sodipodi="http://sodipodi.sourceforge.net/DTD/sodipodi-0.dtd"
   xmlns="http://www.w3.org/2000/svg"
   xmlns:svg="http://www.w3.org/2000/svg"><sodipodi:namedview
     id="namedview1"
     pagecolor="#ffffff"
     bordercolor="#000000"
     borderopacity="0.25"
     inkscape:showpageshadow="2"
     inkscape:pageopacity="0.0"
     inkscape:pagecheckerboard="0"
     inkscape:deskcolor="#d1d1d1"
     inkscape:document-units="mm"
     inkscape:zoom="2.7006512"
     inkscape:cx="598.00393"
     inkscape:cy="51.654209"
     inkscape:window-width="1920"
     inkscape:window-height="940"
     inkscape:window-x="0"
     inkscape:window-y="0"
     inkscape:window-maximized="1"
     inkscape:current-layer="svg1"
     showgrid="true"><inkscape:grid
       id="grid1"
       units="mm"
       originx="0"
       originy="0"
       spacingx="0.99999995"
       spacingy="0.99999997"
       empcolor="#0099e5"
       empopacity="0.30196078"
       color="#0099e5"
       opacity="0.14901961"
       empspacing="5"
       enabled="true"
       visible="true" /></sodipodi:namedview><defs
     id="defs1" /><g
     id="g5"
     inkscape:label="Row"
     style="display:inline;stroke:none;stroke-width:1.00177;stroke-dasharray:none;stroke-opacity:1"
     transform="matrix(0.2647424,0,0,0.26432057,-6.0036072,-15.984109)"><rect
       style="display:inline;opacity:1;fill:#fa0000;fill-opacity:0.307692;stroke:none;stroke-width:0.989325;stroke-dasharray:none;stroke-opacity:1"
       id="rect4"
       width="596.80658"
       height="37.832848"
       x="158.65842"
       y="60.472439"
       inkscape:label="Popis" /><rect
       style="display:inline;fill:#fa0000;fill-opacity:0.307692;stroke:none;stroke-width:1.00177;stroke-dasharray:none;stroke-opacity:1"
       id="rect4-42"
       width="98.208679"
       height="37.832848"
       x="60.449734"
       y="60.472439"
       inkscape:label="Jmeno" /><rect
       style="display:inline;opacity:1;fill:#fa0000;fill-opacity:0.307692;stroke:none;stroke-width:1.00177;stroke-dasharray:none;stroke-opacity:1"
       id="rect5"
       width="37.772568"
       height="37.832848"
       x="22.677166"
       y="60.472439"
       inkscape:label="Logo" /></g><g
     inkscape:label="Layer 1"
     inkscape:groupmode="layer"
     id="layer1"
     transform="translate(-5.9999979,-28.039034)"
     style="display:inline"><text
       xml:space="preserve"
       style="font-size:3.80938px;font-family:'New Rocker';-inkscape-font-specification:'New Rocker';text-align:start;letter-spacing:0px;writing-mode:lr-tb;direction:ltr;text-anchor:start;fill:#000000;fill-opacity:1;stroke:none;stroke-width:0.0504741"
       x="18.035286"
       y="34.122803"
       id="text1"
       inkscape:label="Role"><tspan
         style="letter-spacing:0px;fill:#000000;fill-opacity:1;stroke:none;stroke-width:0.0504743"
         x="18.035286"
         y="34.122803"
         sodipodi:role="line"
         id="tspan7">Knihovník</tspan></text><text
       xml:space="preserve"
       style="font-size:3px;font-family:'New Rocker';-inkscape-font-specification:'New Rocker';text-align:start;letter-spacing:0px;writing-mode:lr-tb;direction:ltr;text-anchor:start;fill:#000000;fill-opacity:1;stroke:none;stroke-width:0.040981"
       x="42.755661"
       y="33.891289"
       id="text2"
       inkscape:label="Popis"><tspan
         sodipodi:role="line"
         style="font-style:normal;font-variant:normal;font-weight:normal;font-stretch:normal;font-size:3px;font-family:'Didact Gothic';-inkscape-font-specification:'Didact Gothic';letter-spacing:0px;stroke-width:0.0409811"
         x="42.755661"
         y="33.891289"
         id="tspan6">První noc se dozvíš, že jeden ze dvou hráčů je konkrétní Outsider. (Nebo že ve hře žádný Outsider není.)</tspan></text><path
       style="fill:#000000;stroke-width:0.0348103"
       d="M 7.8488373,36.527987 C 7.7266711,36.34544 7.6785117,36.178642 7.7022562,36.020305 c 0.022317,-0.14882 0.02012,-0.153714 -0.069045,-0.153714 -0.1321084,0 -0.3016117,0.07854 -0.4491984,0.208114 -0.0704,0.06181 -0.1276106,0.106854 -0.1271272,0.100082 0.00156,-0.0218 0.1654226,-0.636478 0.18889,-0.708553 0.019651,-0.06034 -3.418e-4,-0.07513 -0.1495086,-0.110562 -0.2157109,-0.05124 -0.4263842,-0.26146 -0.5271299,-0.525994 -0.084566,-0.222052 -0.085537,-0.255674 -0.014364,-0.497127 0.049362,-0.167453 0.1084273,-0.242806 0.5165765,-0.659012 0.2534635,-0.258466 0.9359928,-0.971209 1.5167312,-1.58387 0.5807392,-0.612664 1.3767148,-1.440341 1.7688342,-1.839286 0.651437,-0.662775 0.720743,-0.723222 0.803341,-0.700652 0.152263,0.04161 0.913371,0.07247 1.134706,0.04602 0.307935,-0.03682 2.939193,-0.113332 2.96626,-0.08627 0.01274,0.01274 -0.01113,0.09373 -0.05303,0.17997 -0.08977,0.184777 -0.09116,0.193324 -0.02749,0.168892 0.0804,-0.03085 0.09386,0.04189 0.0201,0.108638 -0.08961,0.0811 -0.08694,0.139179 0.0095,0.207128 0.07866,0.0554 0.06453,0.08675 -0.06092,0.13512 -0.02129,0.0082 -0.01606,0.045 0.01345,0.09471 0.03434,0.05785 0.03685,0.08509 0.0087,0.09447 -0.05838,0.01947 -0.04806,0.135911 0.01416,0.159788 0.04303,0.01651 0.04596,0.0351 0.01473,0.09347 -0.06441,0.120356 -0.01772,0.171848 0.155872,0.171848 0.156724,0 0.156842,1.04e-4 0.12061,0.09573 -0.01995,0.05265 -0.06526,0.127059 -0.100675,0.165349 -0.06395,0.06913 -0.122484,0.215108 -0.314043,0.783234 -0.05487,0.162738 -0.139053,0.384405 -0.187071,0.492594 -0.04801,0.108188 -0.118469,0.288331 -0.156558,0.400319 -0.03808,0.111987 -0.220161,0.642223 -0.404608,1.178303 -0.184447,0.53608 -0.420282,1.225324 -0.524077,1.531654 -0.221356,0.653287 -0.33237,0.971772 -0.34235,0.982158 -0.0069,0.0072 -0.36611,-0.05645 -1.109073,-0.196616 -0.196244,-0.03702 -0.450794,-0.08471 -0.565668,-0.105968 -0.226059,-0.04184 -0.695645,-0.134325 -1.166147,-0.22968 -0.162739,-0.03298 -0.342882,-0.06536 -0.400319,-0.07195 -0.05744,-0.0065 -0.206252,-0.03455 -0.3306986,-0.06214 -0.124447,-0.02759 -0.2967578,-0.05999 -0.3829139,-0.07201 -0.086156,-0.01202 -0.2428024,-0.04355 -0.3481033,-0.07007 -0.1053009,-0.02653 -0.2646965,-0.0568 -0.3542122,-0.06725 -0.089515,-0.01048 -0.2618256,-0.04239 -0.3829133,-0.07093 -0.1210875,-0.02855 -0.2384811,-0.05214 -0.2608744,-0.05242 -0.064471,-8.2e-4 -0.15879,0.333987 -0.2008919,0.713097 -0.03796,0.341798 -0.039711,0.346528 -0.096898,0.261077 z m 5.2274087,-0.351745 c -0.0202,-0.03773 -0.02753,-0.09755 -0.01631,-0.132913 0.01122,-0.03537 0.002,-0.104626 -0.02041,-0.153907 -0.03309,-0.07262 -0.03051,-0.10534 0.01359,-0.17266 0.04995,-0.07624 0.04917,-0.09107 -0.0095,-0.180513 -0.0555,-0.0846 -0.05808,-0.111709 -0.01959,-0.20555 0.02438,-0.05945 0.0681,-0.182506 0.09715,-0.273448 0.05888,-0.184287 0.07554,-0.167921 -0.188334,-0.184879 -0.07037,-0.0045 -0.344504,-0.0402 -0.60918,-0.07927 -0.847968,-0.125204 -1.312224,-0.188163 -1.490731,-0.20216 -0.09573,-0.0075 -0.307202,-0.03613 -0.46994,-0.0636 -0.162739,-0.02748 -0.3898763,-0.05803 -0.5047506,-0.06791 -0.1148743,-0.0099 -0.3655086,-0.04095 -0.5569656,-0.06904 -0.191457,-0.0281 -0.5987382,-0.08412 -0.9050697,-0.124501 -0.3063313,-0.04038 -0.6640155,-0.08872 -0.7948538,-0.107418 -0.2592827,-0.03706 -0.5801545,-0.01041 -0.5801545,0.04818 0,0.06732 -0.1502798,0.19792 -0.2277366,0.19792 h -0.076359 l 0.080666,0.230851 c 0.1090776,0.31216 0.2645019,0.468378 0.5103577,0.512961 0.066475,0.01205 0.1053254,-0.0083 0.161996,-0.08498 l 0.07455,-0.100836 -0.1391739,-0.02225 C 7.2520658,34.915779 7.0940907,34.825443 7.2010489,34.8234 c 0.031912,-6.75e-4 0.063614,-0.01789 0.070446,-0.0384 0.00869,-0.02606 0.063719,-0.02438 0.1825808,0.0056 0.1616504,0.04071 0.1734229,0.0388 0.2356647,-0.03807 0.036031,-0.0445 0.056642,-0.104037 0.045789,-0.13231 -0.014884,-0.03879 -0.00868,-0.04224 0.025312,-0.01402 0.037104,0.0308 0.5573448,0.120186 0.7136834,0.122634 0.058639,8.95e-4 0.055369,0.01524 -0.027539,0.120643 -0.088602,0.112638 -0.054445,0.13752 0.2262269,0.164776 0.1093069,0.01062 0.2953373,0.04154 0.4134006,0.06872 0.1180625,0.02718 0.2929827,0.05879 0.3887116,0.07024 0.095729,0.01145 0.2680396,0.0419 0.3829139,0.06767 0.3017462,0.06768 0.072076,0.06788 -0.2784824,2.63e-4 -0.2503601,-0.04831 -0.4876472,-0.08413 -0.9050695,-0.136624 -0.1161542,-0.0146 -0.1248114,-0.01192 -0.052217,0.01632 0.065968,0.02565 0.035137,0.02994 -0.1274327,0.01777 -0.2114427,-0.01583 -0.2149587,-0.01462 -0.2500085,0.08593 -0.04021,0.115358 -0.04681,0.111238 0.2730096,0.170499 0.2443667,0.04528 0.8621968,0.163504 1.2879836,0.246463 0.1818835,0.03543 0.4951781,0.09618 0.6962071,0.134991 0.20103,0.03881 0.498657,0.09725 0.661396,0.129862 0.162739,0.03262 0.350715,0.06572 0.417724,0.07358 0.06702,0.0079 0.208469,0.03661 0.314351,0.06391 0.105884,0.0273 0.262531,0.05823 0.348104,0.06873 0.08558,0.0105 0.273075,0.04724 0.416667,0.08164 0.143593,0.0344 0.304146,0.06439 0.356785,0.06663 0.08486,0.0037 0.09154,-0.0037 0.05899,-0.06452 z m -2.01705,-0.622944 c 0,-0.01915 0.01566,-0.03481 0.03481,-0.03481 0.01915,0 0.03481,0.01566 0.03481,0.03481 0,0.01915 -0.01566,0.03481 -0.03481,0.03481 -0.01915,0 -0.03481,-0.01566 -0.03481,-0.03481 z m 0.626586,0 c 0,-0.01915 0.01566,-0.03481 0.03481,-0.03481 0.01915,0 0.03481,0.01566 0.03481,0.03481 0,0.01915 -0.01566,0.03481 -0.03481,0.03481 -0.01915,0 -0.03481,-0.01566 -0.03481,-0.03481 z m -0.772354,-0.02377 c 0.02513,-0.01005 0.05515,-0.0088 0.06672,0.0027 0.01157,0.01157 -0.009,0.0198 -0.04568,0.01828 -0.04055,-0.0017 -0.0488,-0.0099 -0.02104,-0.02104 z M 10.7372,35.495438 c 0.02394,-0.0097 0.0631,-0.0097 0.08703,0 0.02393,0.0097 0.0044,0.01756 -0.04352,0.01756 -0.04787,0 -0.06744,-0.0079 -0.04351,-0.01756 z m 0.628762,-6.76e-4 c 0.02513,-0.01005 0.05515,-0.0088 0.06672,0.0027 0.01156,0.01156 -0.009,0.0198 -0.04569,0.01828 -0.04055,-0.0017 -0.0488,-0.0099 -0.02103,-0.02103 z m -0.765827,-0.03481 c 0.02513,-0.01005 0.05515,-0.0088 0.06672,0.0027 0.01157,0.01156 -0.009,0.01979 -0.04569,0.01828 -0.04055,-0.0017 -0.0488,-0.0099 -0.02104,-0.02103 z m 0.591775,0 c 0.02513,-0.01005 0.05516,-0.0088 0.06672,0.0027 0.01157,0.01156 -0.009,0.01979 -0.04568,0.01828 -0.04055,-0.0017 -0.0488,-0.0099 -0.02104,-0.02103 z m -1.2988606,-0.09766 c -0.2106032,-0.04393 -0.3515848,-0.08158 -0.313294,-0.08366 0.1042484,-0.0057 0.6564356,0.105935 0.6944676,0.14037 0.01819,0.01647 0.02602,0.02842 0.01741,0.02656 -0.0086,-0.0019 -0.187977,-0.03933 -0.3985791,-0.08326 z m 0.4564266,0.05814 c -0.0097,-0.01568 0.02855,-0.02174 0.08497,-0.01346 0.05643,0.0083 0.102592,0.02112 0.102592,0.02852 0,0.02653 -0.170315,0.01285 -0.187564,-0.01506 z m 0.117943,-0.05197 c -0.220174,-0.04033 -0.370851,-0.07942 -0.334834,-0.08687 0.08234,-0.01705 0.68885,0.09631 0.733413,0.137091 0.01819,0.01664 0.02602,0.02865 0.01741,0.02668 -0.0086,-0.002 -0.195808,-0.03658 -0.415984,-0.0769 z m 0.473834,0.05197 c -0.0097,-0.01568 0.02854,-0.02174 0.08497,-0.01346 0.05643,0.0083 0.102593,0.02112 0.102593,0.02852 0,0.02653 -0.170315,0.01285 -0.187563,-0.01506 z m 1.405926,0.0063 c -0.04787,-0.007 -0.251505,-0.04327 -0.452535,-0.08061 -0.392633,-0.07294 -0.915727,-0.165818 -1.583871,-0.281224 -0.229748,-0.03968 -0.5430414,-0.09482 -0.6962067,-0.122526 -0.1531654,-0.0277 -0.317645,-0.05609 -0.3655087,-0.06306 -0.057625,-0.0084 -0.043525,-0.01429 0.041744,-0.01742 0.070825,-0.0026 0.2933193,0.02702 0.4944332,0.06583 0.201114,0.03881 0.4407952,0.07762 0.5326252,0.08624 0.09183,0.0086 0.307946,0.03889 0.480256,0.06725 0.387685,0.06384 1.164728,0.182642 1.37501,0.210228 0.369988,0.04854 0.590172,0.09711 0.572177,0.126228 -0.01875,0.03033 -0.221087,0.03493 -0.398126,0.0091 z M 8.9879798,35.203501 c -0.250638,-0.05746 -0.2593399,-0.06199 -0.087025,-0.04542 0.1053008,0.01013 0.2854443,0.03895 0.4003186,0.06405 0.1620714,0.03542 0.1815677,0.04559 0.087026,0.04542 -0.067011,-1.05e-4 -0.2471541,-0.02895 -0.4003196,-0.06405 z m 2.9675822,-0.334562 c 0.02393,-0.0097 0.06309,-0.0097 0.08702,0 0.02394,0.0097 0.0044,0.01756 -0.04351,0.01756 -0.04787,0 -0.06744,-0.008 -0.04352,-0.01756 z m -2.9240695,-0.03481 c 0.023933,-0.0097 0.063093,-0.0097 0.087026,0 0.023933,0.0097 0.00432,0.01756 -0.043509,0.01756 -0.047868,0 -0.067444,-0.008 -0.043517,-0.01756 z m 2.3409965,-0.02882 c -0.162739,-0.02369 -0.429038,-0.05311 -0.591776,-0.06539 -0.162738,-0.01227 -0.476031,-0.04547 -0.696207,-0.07377 -0.2201756,-0.0283 -0.5178042,-0.05981 -0.6613967,-0.07005 -0.1435926,-0.01023 -0.4412213,-0.04135 -0.6613965,-0.06915 -0.2201753,-0.02779 -0.509972,-0.05795 -0.6439919,-0.06704 -0.4740676,-0.0321 -0.643991,-0.06229 -0.643991,-0.114401 0,-0.05811 0.2067812,-0.04581 0.9920951,0.05902 0.2680388,0.03578 0.7536436,0.09803 1.0791204,0.138342 0.3254768,0.04031 0.7719196,0.09597 0.9920956,0.123694 0.220175,0.02772 0.501651,0.06007 0.625502,0.07188 0.284496,0.02713 0.749641,0.111395 0.610265,0.110548 -0.05744,-3.95e-4 -0.237581,-0.02002 -0.400319,-0.04371 z m -2.5128722,-0.0067 c 0.025126,-0.01005 0.055152,-0.0088 0.066721,0.0027 0.011568,0.01157 -0.00899,0.01979 -0.045685,0.01828 -0.040553,-0.0017 -0.048799,-0.0099 -0.021036,-0.02104 z m 4.5083862,1.224738 c 0.02885,-0.09573 0.124986,-0.377694 0.213637,-0.626587 0.08865,-0.248895 0.190775,-0.538691 0.22694,-0.643993 0.03616,-0.1053 0.130826,-0.3716 0.210357,-0.591776 0.07953,-0.220175 0.157907,-0.447312 0.17417,-0.504749 0.01626,-0.05744 0.0862,-0.261079 0.155422,-0.452536 0.06921,-0.191456 0.17408,-0.489085 0.233027,-0.661396 0.05894,-0.172311 0.168822,-0.485605 0.244166,-0.696207 0.07535,-0.210603 0.158113,-0.450247 0.183928,-0.532542 0.02582,-0.08229 0.07295,-0.189334 0.10475,-0.237863 0.05218,-0.07962 0.05253,-0.09219 0.0036,-0.128855 -0.03226,-0.02417 -0.07301,-0.152941 -0.100601,-0.317967 l -0.04636,-0.277347 -0.132003,0.346968 c -0.0726,0.190832 -0.176735,0.464453 -0.23141,0.608045 -0.05467,0.143593 -0.155956,0.409892 -0.22507,0.591776 -0.06911,0.181884 -0.173579,0.456016 -0.232142,0.609182 -0.05856,0.153164 -0.144369,0.380303 -0.190682,0.50475 -0.04631,0.124447 -0.105908,0.281094 -0.132433,0.348103 -0.02653,0.06702 -0.08918,0.231489 -0.139242,0.365508 -0.05006,0.134021 -0.112329,0.2985 -0.138383,0.36551 -0.02605,0.06701 -0.08138,0.215823 -0.12295,0.330698 -0.04158,0.114875 -0.08986,0.235853 -0.107319,0.268842 -0.01745,0.03299 -0.07087,0.207044 -0.118693,0.386789 -0.0805,0.302547 -0.08445,0.35308 -0.05324,0.680657 0.03352,0.351849 0.08538,0.525902 0.139678,0.468886 0.01563,-0.01642 0.05204,-0.108169 0.08088,-0.203896 z m -0.115628,-0.16328 c 1.44e-4,-0.08091 0.03165,-0.169628 0.399652,-1.124689 0.193641,-0.50255 0.245067,-0.637795 0.453834,-1.193545 0.05241,-0.139515 0.10163,-0.247324 0.109381,-0.239573 0.01224,0.01224 -0.155856,0.504655 -0.373359,1.093717 -0.06253,0.169349 -0.09888,0.269766 -0.277433,0.766372 -0.03625,0.100814 -0.09709,0.265293 -0.135211,0.365508 -0.03811,0.100216 -0.07961,0.225436 -0.09219,0.278268 -0.02937,0.123265 -0.08483,0.1586 -0.08467,0.05394 z m -0.01877,-0.480698 c 0.01732,-0.106241 0.172593,-0.530201 0.312961,-0.854484 0.02525,-0.05834 0.0877,-0.214979 0.138773,-0.348102 0.05108,-0.133124 0.113733,-0.28977 0.139241,-0.348104 0.02551,-0.05834 0.0887,-0.214981 0.140435,-0.348104 0.05173,-0.133123 0.114554,-0.289036 0.139606,-0.346473 0.02505,-0.05744 0.08771,-0.214084 0.139241,-0.348104 0.05153,-0.13402 0.114189,-0.290667 0.139241,-0.348103 0.02505,-0.05744 0.08772,-0.214084 0.139242,-0.348103 0.05153,-0.134021 0.113454,-0.290667 0.137609,-0.348105 0.02415,-0.05744 0.105001,-0.257151 0.179659,-0.443811 0.134276,-0.335714 0.216176,-0.445227 0.169232,-0.226288 -0.01335,0.06222 -0.05376,0.174819 -0.0898,0.250211 -0.03605,0.07539 -0.06554,0.151349 -0.06554,0.168791 0,0.01744 -0.02213,0.08107 -0.04918,0.141406 -0.02705,0.06033 -0.09171,0.211512 -0.143694,0.335959 -0.05199,0.124447 -0.11439,0.273261 -0.138678,0.330698 -0.06227,0.14725 -0.246147,0.602988 -0.400285,0.992095 -0.189468,0.478298 -0.379809,0.946551 -0.417428,1.026906 -0.04196,0.08965 -0.273237,0.659409 -0.332047,0.818042 -0.02484,0.06702 -0.07066,0.176663 -0.101814,0.243673 l -0.05665,0.121838 z m 0.994394,-2.140836 c 0,-0.01915 0.01519,-0.05831 0.03374,-0.08702 0.01856,-0.02871 0.03375,-0.03655 0.03375,-0.0174 0,0.01915 -0.01518,0.05831 -0.03375,0.08702 -0.01856,0.02871 -0.03374,0.03655 -0.03374,0.0174 z m -5.7193882,1.806425 c -0.011568,-0.01156 -0.041596,-0.01281 -0.066721,-0.0027 -0.02777,0.01112 -0.019524,0.01936 0.021036,0.02104 0.036694,0.0015 0.057253,-0.0067 0.045685,-0.01828 z m 3.3512222,-0.709986 c 0,-0.01915 -0.0235,-0.03481 -0.05222,-0.03481 -0.02872,0 -0.05222,0.01566 -0.05222,0.03481 0,0.01915 0.0235,0.03481 0.05222,0.03481 0.02872,0 0.05222,-0.01566 0.05222,-0.03481 z m -0.20016,-0.02305 c -0.02393,-0.0097 -0.06309,-0.0097 -0.08702,0 -0.02394,0.0097 -0.0044,0.01756 0.04352,0.01756 0.04787,0 0.06744,-0.008 0.04351,-0.01756 z m -0.208862,-0.03481 c -0.02393,-0.0097 -0.06309,-0.0097 -0.08702,0 -0.02394,0.0097 -0.0044,0.01756 0.04351,0.01756 0.04787,0 0.06744,-0.008 0.04352,-0.01756 z m -0.173389,-0.03459 c -0.02357,-0.0095 -0.07057,-0.01012 -0.104432,-0.0013 -0.03387,0.0088 -0.01459,0.01663 0.04285,0.01734 0.05744,7.17e-4 0.08515,-0.0064 0.06158,-0.01604 z m -0.357466,-0.05036 C 10.712081,34.159451 10.281391,34.097352 9.4927315,33.986378 9.2151192,33.947315 8.7843406,33.885345 8.5354465,33.848669 8.2865531,33.81199 8.0074277,33.772137 7.9151686,33.7601 l -0.167743,-0.02188 0.083253,-0.07715 c 0.045789,-0.04244 0.1291057,-0.113279 0.1851485,-0.157429 0.056039,-0.04415 0.1021641,-0.09924 0.1024933,-0.122434 5.907e-4,-0.04177 0.3672599,-0.477722 0.9044715,-1.075382 0.1531653,-0.170399 0.4899557,-0.549919 0.7484226,-0.843376 0.6773875,-0.769091 1.4296795,-1.617456 1.4377175,-1.621325 0.0038,-0.0018 0.531678,-0.02386 1.173058,-0.04895 l 1.166147,-0.04563 -1.144809,0.01853 c -0.844027,0.01366 -1.138444,0.0082 -1.12058,-0.02067 0.01333,-0.02156 0.0094,-0.0392 -0.0088,-0.0392 -0.0466,0 -1.042594,1.077204 -2.6231551,2.837044 -0.3095143,0.344623 -0.693145,0.761635 -0.8525116,0.926694 -0.1593673,0.165061 -0.289758,0.307419 -0.289758,0.316353 0,0.0089 0.074408,0.01897 0.1653489,0.02229 0.090943,0.0033 0.353325,0.03502 0.5830737,0.07043 0.229748,0.03542 0.4725504,0.06693 0.5395603,0.07005 0.067011,0.0031 0.254986,0.02821 0.417724,0.05577 0.1627389,0.02755 0.3992528,0.05962 0.5255882,0.07127 0.1263345,0.01164 0.4004656,0.04957 0.6091806,0.08429 0.208714,0.03471 0.465637,0.06307 0.570938,0.063 l 0.191457,-1.05e-4 z M 8.7965228,33.323294 c 0.07727,-0.01829 0.013602,-0.02142 -0.1740517,-0.0085 -0.1627379,0.01118 -0.3272176,0.03326 -0.3655086,0.04907 -0.08389,0.03465 0.3642469,9.46e-4 0.5395603,-0.04055 z M 13.093552,31.67084 c 0.03717,-0.02811 0.13556,-0.05111 0.218658,-0.05111 0.112325,0 0.156714,-0.01563 0.173028,-0.06092 0.01207,-0.0335 0.111541,-0.217564 0.221048,-0.409022 0.269953,-0.47197 0.421872,-0.755182 0.409279,-0.762999 -0.0058,-0.0036 -0.05299,-0.03308 -0.104966,-0.06558 -0.08389,-0.05245 -0.222721,-0.05909 -1.236726,-0.05909 -0.930866,0 -1.155291,0.0092 -1.212858,0.04948 -0.03885,0.02721 -0.124576,0.06328 -0.190501,0.08014 -0.09336,0.02389 -0.195416,0.11878 -0.461579,0.429165 -0.187945,0.219174 -0.395501,0.459751 -0.461236,0.534618 -0.06574,0.07487 -0.119521,0.141442 -0.119521,0.147943 0,0.0064 0.03055,0.01182 0.06789,0.01182 0.03735,0 0.08137,0.0241 0.09786,0.05355 0.02469,0.04412 0.146048,0.05697 0.689233,0.07295 0.362598,0.01067 0.83941,0.0313 1.059586,0.04584 0.637011,0.04208 0.776598,0.03932 0.850804,-0.01681 z"
       id="path1"
       sodipodi:nodetypes="sssssssssssssssssssssssssssssssssssssssssssssssssssssssssssssscssscssssssssssssscsssssssssssssssssssssssssssssssssssssssssssssssssssssssssssssssssssssssssssssssssscssssssssssssssssssssssssssssssssssssssscsssssssssssssscssssssscssssssssssssssssssssscssssssssssssssssssssssssssssscssscssssssscsssssssssssscccsssssssssssssssssssss" /></g></svg>
