<?xml version="1.0" encoding="UTF-8" standalone="no"?>
<!-- Created with Inkscape (http://www.inkscape.org/) -->

<svg
   width="194mm"
   height="10mm"
   viewBox="0 0 194 10"
   version="1.1"
   id="svg1"
   inkscape:version="1.4.2 (2aeb623e1d, 2025-05-12)"
   sodipodi:docname="KomornikRowSetList.svg"
   xml:space="preserve"
   xmlns:inkscape="http://www.inkscape.org/namespaces/inkscape"
   xmlns:sodipodi="http://sodipodi.sourceforge.net/DTD/sodipodi-0.dtd"
   xmlns="http://www.w3.org/2000/svg"
   xmlns:svg="http://www.w3.org/2000/svg"><sodipodi:namedview
     id="namedview1"
     pagecolor="#ffffff"
     bordercolor="#000000"
     borderopacity="0.25"
     inkscape:showpageshadow="2"
     inkscape:pageopacity="0.0"
     inkscape:pagecheckerboard="0"
     inkscape:deskcolor="#d1d1d1"
     inkscape:document-units="mm"
     inkscape:zoom="1.0813331"
     inkscape:cx="207.15171"
     inkscape:cy="68.89644"
     inkscape:window-width="1920"
     inkscape:window-height="940"
     inkscape:window-x="0"
     inkscape:window-y="0"
     inkscape:window-maximized="1"
     inkscape:current-layer="svg1"
     showgrid="true"><inkscape:grid
       id="grid1"
       units="mm"
       originx="0"
       originy="0"
       spacingx="0.99999995"
       spacingy="0.99999997"
       empcolor="#0099e5"
       empopacity="0.30196078"
       color="#0099e5"
       opacity="0.14901961"
       empspacing="5"
       enabled="true"
       visible="true" /></sodipodi:namedview><defs
     id="defs1" /><g
     id="g5"
     inkscape:label="Row"
     style="display:inline;stroke:none;stroke-width:1.00177;stroke-dasharray:none;stroke-opacity:1"
     transform="matrix(0.25939404,0,0,0.26432057,-5.8823216,-15.984109)"><rect
       style="display:inline;opacity:1;fill:#fa0000;fill-opacity:0.307692;stroke:none;stroke-width:1.00177;stroke-dasharray:none;stroke-opacity:1"
       id="rect4"
       width="611.91559"
       height="37.832848"
       x="158.65842"
       y="60.472439"
       inkscape:label="Popis" /><rect
       style="display:inline;fill:#fa0000;fill-opacity:0.307692;stroke:none;stroke-width:1.00177;stroke-dasharray:none;stroke-opacity:1"
       id="rect4-42"
       width="98.208679"
       height="37.832848"
       x="60.449734"
       y="60.472439"
       inkscape:label="Jmeno" /><rect
       style="display:inline;opacity:1;fill:#fa0000;fill-opacity:0.307692;stroke:none;stroke-width:1.00177;stroke-dasharray:none;stroke-opacity:1"
       id="rect5"
       width="37.772568"
       height="37.832848"
       x="22.677166"
       y="60.472439"
       inkscape:label="Logo" /></g><g
     inkscape:label="Layer 1"
     inkscape:groupmode="layer"
     id="layer1"
     transform="translate(-5.9999979,-28.039034)"
     style="display:inline"><text
       xml:space="preserve"
       style="font-size:3.80938px;font-family:'New Rocker';-inkscape-font-specification:'New Rocker';text-align:start;letter-spacing:0px;writing-mode:lr-tb;direction:ltr;text-anchor:start;fill:#000000;fill-opacity:1;stroke:none;stroke-width:0.0504741"
       x="18.035286"
       y="34.122803"
       id="text1"
       inkscape:label="Role"><tspan
         style="letter-spacing:0px;fill:#000000;fill-opacity:1;stroke:none;stroke-width:0.0504743"
         x="18.035286"
         y="34.122803"
         sodipodi:role="line"
         id="tspan8">Komorník</tspan></text><text
       xml:space="preserve"
       style="font-size:3px;font-family:'New Rocker';-inkscape-font-specification:'New Rocker';text-align:start;letter-spacing:0px;writing-mode:lr-tb;direction:ltr;text-anchor:start;fill:#000000;fill-opacity:1;stroke:none;stroke-width:0.040981"
       x="42.755661"
       y="33.891289"
       id="text2"
       inkscape:label="Popis"><tspan
         sodipodi:role="line"
         style="font-style:normal;font-variant:normal;font-weight:normal;font-stretch:normal;font-size:3px;font-family:'Didact Gothic';-inkscape-font-specification:'Didact Gothic';letter-spacing:0px;stroke-width:0.0409811"
         x="42.755661"
         y="33.891289"
         id="tspan9">Každou noc si vybereš hráče (ne sebe) a zítra můžeš hlasovat, pouze pokud hlasuje (bude hlasovat) i on.</tspan></text></g><path
     style="fill:#000000;stroke-width:0.0282256"
     d="M 3.3842683,9.1138697 C 3.3569757,9.0931989 3.3263624,9.0067178 3.3103366,8.9050268 3.2701689,8.6501476 3.2026181,8.5437166 2.8906181,8.2437191 2.7359729,8.0950226 2.5616861,7.8981484 2.5033136,7.8062217 2.4449415,7.7142969 2.322492,7.5607952 2.2312046,7.4651135 1.999758,7.2225259 2.0027254,7.169179 2.2590408,6.9646693 2.4875043,6.7823816 2.6867603,6.561712 2.7768155,6.3912491 2.8206156,6.3083402 2.8703754,6.2584326 2.9312754,6.2363255 3.2175165,6.1324176 3.6527205,5.3140487 3.7463613,4.7036134 3.7611891,4.6069451 3.7889201,4.4726884 3.8585816,4.1602697 L 3.8727405,4.0967631 3.173618,4.0957013 C 2.3578217,4.094543 1.2861146,4.0345694 1.2390935,3.9875452 c -0.021515,-0.021516 -0.022624,-0.041237 -0.00339,-0.060466 0.031001,-0.031005 7.5004091,-0.027704 7.5314306,0.00338 0.034439,0.034442 -0.018212,0.1045131 -0.091945,0.1223623 -0.041648,0.010078 -0.4794157,0.025802 -0.972814,0.034934 -0.4933995,0.00917 -0.8915245,0.022163 -0.8847225,0.028968 0.00681,0.00676 -0.047017,0.090834 -0.1196007,0.1867435 -0.072582,0.095911 -0.1917363,0.2901089 -0.264784,0.431558 -0.1276229,0.2471254 -0.3126864,0.4625738 -0.3973377,0.4625738 -0.020448,0 -0.089113,0.044452 -0.1525902,0.09879 -0.063478,0.054336 -0.1244428,0.098789 -0.1354798,0.098789 -0.011037,0 -0.1141568,0.053535 -0.2291574,0.1189645 C 5.3461952,5.6122921 5.2891547,5.6639999 5.1926641,5.8097031 5.108478,5.9368282 5.0257223,6.0186328 4.8972673,6.1017059 4.7962097,6.1670658 4.6814993,6.271355 4.6327617,6.342192 4.5854305,6.4109884 4.5164201,6.4748743 4.4794087,6.4841643 4.3939456,6.5056131 4.3406837,6.5649399 4.2550734,6.7340417 l -0.068324,0.1349566 0.091792,0.1451403 c 0.1777506,0.2810555 0.4398985,0.8021791 0.4398985,0.8744727 0,0.1085944 -0.1543227,0.2651426 -0.3502119,0.3552613 -0.2247995,0.10342 -0.3387135,0.2342503 -0.6592307,0.7571297 -0.080141,0.1307396 -0.101861,0.1481847 -0.1844908,0.1481847 -0.051511,0 -0.1146163,-0.015878 -0.1402339,-0.035283 z M 3.753791,8.5775829 C 3.7882915,8.5116052 3.842732,8.4164548 3.8747723,8.3661368 l 0.058254,-0.091487 -0.061207,-0.099036 c -0.033666,-0.054472 -0.077776,-0.099036 -0.098028,-0.099036 -0.020251,0 -0.1150135,0.052213 -0.2105839,0.1160349 -0.1631826,0.10897 -0.1714491,0.1197121 -0.1357616,0.1764109 0.0209,0.033207 0.07542,0.1206849 0.1211527,0.1943962 0.045734,0.073712 0.096496,0.1340441 0.1128084,0.1340718 0.016312,2.81e-5 0.057885,-0.053931 0.092384,-0.1199087 z M 3.5662048,8.4464084 C 3.5323964,8.3862533 3.504733,8.3309658 3.504733,8.3235476 c 0,-0.025397 0.2268041,-0.170703 0.2422834,-0.1552236 0.0085,0.00849 -0.028868,0.049259 -0.083034,0.090573 -0.098272,0.074956 -0.098398,0.075343 -0.056651,0.175255 0.057564,0.137771 0.033455,0.1449532 -0.041127,0.012254 z M 4.553916,7.9734132 C 4.6560852,7.8809478 4.594995,7.6694523 4.3677335,7.3288316 4.2847859,7.2045107 4.2087723,7.0758903 4.1988138,7.0430076 c -0.00996,-0.032888 -0.042354,-0.081731 -0.071991,-0.10855 -0.051958,-0.047019 -0.056543,-0.043525 -0.128193,0.097874 -0.040869,0.08065 -0.067978,0.1529689 -0.060241,0.1607057 0.00773,0.00772 0.044908,-0.046614 0.082599,-0.1207831 l 0.068533,-0.1348504 0.049248,0.075158 C 4.228449,7.1494292 4.4915364,7.7788276 4.492089,7.8578252 4.4928337,7.9671349 4.4341145,7.9590583 4.1444512,7.810024 3.9151231,7.6920344 3.9035335,7.6889561 3.9488089,7.7580526 3.9976969,7.8326596 4.347247,8.014858 4.4480698,8.018279 4.4778968,8.0192443 4.5255268,7.999099 4.5539162,7.973403 Z M 3.9100292,7.0683504 c 0.05442,-0.1080635 0.1335162,-0.219131 0.1757691,-0.2468165 0.089158,-0.05842 0.060112,-0.088315 -0.1012285,-0.1041821 -0.093183,-0.00917 -0.099292,-0.00454 -0.107635,0.082021 -0.00487,0.050456 -0.021492,0.091732 -0.036949,0.091732 -0.015458,0 -0.021416,-0.010821 -0.013238,-0.024055 0.00818,-0.013225 -0.00931,-0.071461 -0.038845,-0.1293983 -0.092334,-0.1811082 -0.1502899,-0.5521916 -0.086241,-0.5521916 0.04117,0 0.1102172,0.1173921 0.1314304,0.2234584 0.036157,0.1807896 0.3178408,0.3790017 0.3902879,0.2746343 0.016132,-0.023235 0.051272,-0.081837 0.078087,-0.1302188 0.026972,-0.04866 0.092878,-0.1063994 0.14751,-0.1292256 C 4.5032921,6.4014142 4.5659534,6.3479562 4.588225,6.3053222 4.6328962,6.2197968 4.7470308,6.1088635 4.8666912,6.0346615 4.9094227,6.0081642 5.0076682,5.9059562 5.0850153,5.807534 5.2336743,5.6183696 5.5125944,5.4074552 5.8051216,5.263004 6.1386797,5.0982904 6.1711871,5.0690334 6.3413667,4.7803753 6.4303232,4.6294876 6.5524589,4.4398965 6.6127798,4.359061 6.6731009,4.2782274 6.7224549,4.2072051 6.7224549,4.2012377 c 0,-0.00598 -0.057097,-0.00222 -0.1268826,0.0084 C 6.4023767,4.2389637 6.2684842,4.3820244 6.328788,4.494702 6.35841,4.550052 6.354981,4.552735 6.276581,4.535515 6.207281,4.520292 6.182327,4.530205 6.1332836,4.592583 6.0952796,4.640896 6.0795996,4.6908 6.0897346,4.7311826 c 0.017094,0.068101 -0.048592,0.1558947 -0.1166423,0.1558947 -0.021829,0 -0.1308266,0.095265 -0.2422182,0.2116924 -0.1113905,0.1164297 -0.2132877,0.2116915 -0.2264381,0.2116915 -0.01315,0 -0.02391,-0.029306 -0.02391,-0.065128 0,-0.044674 0.038151,-0.092021 0.1214238,-0.1507178 C 5.6687334,5.0475354 5.776678,4.9339552 5.8418283,4.8422042 6.1525091,4.4046711 6.1660979,4.380364 6.1798127,4.2376273 c 0.012125,-0.1261821 0.0077,-0.140868 -0.042412,-0.140868 -0.055562,0 -0.2904234,0.226666 -0.3855496,0.372096 -0.038859,0.059414 -0.042851,0.088208 -0.018524,0.1336688 0.028499,0.053255 0.025508,0.055852 -0.036951,0.032096 -0.070082,-0.026642 -0.086873,-0.014267 -0.2563201,0.1889424 -0.051134,0.061325 -0.051199,0.065447 -0.00186,0.1199598 0.059219,0.065437 0.053894,0.067387 -0.068029,0.024885 -0.07991,-0.027858 -0.09867,-0.023959 -0.1594528,0.033148 -0.047743,0.044847 -0.068888,0.095226 -0.068888,0.1641258 0,0.061431 -0.028423,0.1404229 -0.074403,0.2067723 -0.089674,0.1293993 -0.1175535,0.1356631 -0.1009722,0.022684 0.00683,-0.046575 5.347e-4,-0.084676 -0.014112,-0.084676 -0.014597,0 -0.021025,-0.037579 -0.014285,-0.083498 C 4.946024,5.1726854 4.928324,5.1078878 4.88747,5.0417894 4.8384277,4.9624439 4.8196171,4.8738426 4.8018219,4.6383973 4.7805333,4.3567298 4.7194651,4.1249863 4.6665288,4.1249863 c -0.098145,0 -0.2236474,0.3213873 -0.1382919,0.3541416 0.031261,0.011999 0.038267,0.047145 0.027839,0.1396633 -0.00765,0.067995 -0.00532,0.1695169 0.00519,0.2255975 0.016153,0.086104 0.027994,0.099151 0.076136,0.083874 0.053225,-0.016893 0.052312,-0.010898 -0.013758,0.090322 -0.038922,0.059626 -0.079424,0.1562509 -0.090005,0.2147177 -0.014872,0.082195 -0.059056,0.1430009 -0.1948531,0.2681442 -0.2279419,0.2100582 -0.2813353,0.2933726 -0.2591385,0.4043561 0.012424,0.062126 0.00741,0.083363 -0.017707,0.075109 -0.042145,-0.013842 -0.060579,-0.1412078 -0.035117,-0.2426523 0.010138,-0.040388 0.0704,-0.1214192 0.1339159,-0.1800569 0.063515,-0.058632 0.1006672,-0.1066126 0.082561,-0.1066126 -0.065627,0 -0.030504,-0.057251 0.07998,-0.1303656 0.068361,-0.045234 0.1129043,-0.096698 0.1129043,-0.1304361 0,-0.033698 -0.013948,-0.049838 -0.035282,-0.040841 -0.019405,0.00821 -0.1177007,0.048979 -0.2184329,0.09066 -0.1007331,0.041681 -0.2309237,0.1136197 -0.2893129,0.159865 -0.07848,0.062155 -0.1061623,0.072686 -0.1061623,0.040359 0,-0.024045 0.025402,-0.057309 0.056451,-0.073932 0.1052122,-0.056305 0.057171,-0.0815 -0.071691,-0.037589 -0.113861,0.038795 -0.1377776,0.062754 -0.2145987,0.214932 -0.047552,0.094193 -0.165795,0.280178 -0.2627646,0.4132908 -0.2045293,0.2807591 -0.2377305,0.3628485 -0.231622,0.572675 0.0055,0.1889473 0.077311,0.2927229 0.3569441,0.5158377 0.1070172,0.08539 0.2169245,0.1930825 0.2442387,0.239321 0.048049,0.081345 0.051245,0.082368 0.098399,0.031758 0.026805,-0.028775 0.093263,-0.140729 0.1476825,-0.2487925 z M 3.5308719,6.9850264 C 3.3818857,6.8509 3.2233274,6.6077246 3.2029392,6.4820889 3.1768927,6.3215965 3.3674562,5.8976431 3.4351921,5.9653796 c 0.00699,0.00695 -0.014465,0.068883 -0.047672,0.1375589 -0.1285785,0.2659216 -0.072525,0.5239606 0.1792296,0.8250835 0.062404,0.074646 0.106863,0.1423121 0.098797,0.150379 -0.00807,0.00811 -0.068671,-0.033949 -0.1346766,-0.093373 z m 0.922841,-0.7501739 c 0.019314,-0.127296 0.061673,-0.190763 0.1868984,-0.2800226 0.057397,-0.040909 0.073243,-0.044307 0.061278,-0.013128 -0.012423,0.032376 -9.596e-4,0.0381 0.0496,0.024905 0.050695,-0.013234 0.032654,0.015078 -0.078852,0.1237408 -0.079525,0.077494 -0.1534137,0.1687002 -0.1642001,0.2026824 -0.034654,0.1091851 -0.0738,0.06757 -0.054723,-0.058178 z M 4.2989806,5.1420491 c 0.086912,-0.072407 0.034416,-0.073073 -0.074493,-9.557e-4 -0.055115,0.036498 -0.068523,0.056141 -0.038409,0.056267 0.025447,1.168e-4 0.076253,-0.024798 0.1129022,-0.055321 z M 4.3183434,4.9743296 C 4.3233919,4.9214122 4.3064645,4.8229737 4.280727,4.7555808 4.2354113,4.6369223 4.2300424,4.6330476 4.1109165,4.6330476 c -0.067658,0 -0.130865,0.012703 -0.1404594,0.028225 -0.010632,0.017201 0.031632,0.028225 0.1082167,0.028225 0.090526,0 0.1306376,0.012964 0.1434584,0.046382 0.00979,0.025503 0.014323,0.048651 0.010082,0.051431 -0.00425,0.0028 -0.068091,0.039625 -0.1418765,0.081876 -0.1325519,0.075911 -0.1336738,0.077754 -0.093865,0.1547412 0.037621,0.072754 0.049321,0.076876 0.1764943,0.062271 0.1307369,-0.01502 0.1365712,-0.019509 0.1453819,-0.1118629 z M 4.49758,4.7600637 C 4.4989508,4.6824445 4.4857784,4.5681288 4.4682902,4.5060325 4.4205092,4.3363651 4.4291408,4.234908 4.4975511,4.1620874 l 0.061371,-0.065321 H 4.4394335 c -0.070304,0 -0.1124978,0.011313 -0.1025062,0.027482 0.00933,0.015116 0.022107,0.1718915 0.028372,0.3483961 0.00626,0.1765057 0.027059,0.3831535 0.046212,0.4592185 0.0347,0.1378061 0.034912,0.1379982 0.059194,0.053815 0.013402,-0.046469 0.025495,-0.1479879 0.026875,-0.225609 z M 5.213991,4.9165684 C 5.2953159,4.8551662 5.4321112,4.7249772 5.5179808,4.6272559 5.9639655,4.1197187 6.0164455,4.0487862 5.918026,4.0865532 c -0.023286,0.00898 -0.042619,0.030764 -0.042961,0.048506 -3.2e-4,0.017742 -0.095782,0.1465757 -0.2120896,0.2862921 -0.1527737,0.1835243 -0.2446526,0.2681813 -0.3310289,0.3050101 -0.1140341,0.048622 -0.3312539,0.2318024 -0.3312539,0.279345 0,0.047869 0.07129,0.01808 0.2132984,-0.089145 z M 5.2117226,4.7106687 C 5.3394265,4.5792306 5.4477714,4.4328344 5.5146125,4.3013964 L 5.6186763,4.0967612 H 5.1796504 c -0.3881504,0 -0.437047,0.00512 -0.4219476,0.04451 0.044963,0.117172 0.1568766,0.5334774 0.1738631,0.6467545 0.010498,0.070003 0.03309,0.1272824 0.050205,0.1272824 0.017115,0 0.1205916,-0.092089 0.2299477,-0.2046352 z M 6.3469468,4.096154 C 6.2181131,4.08014 6.1828096,4.088044 6.2360278,4.120914 c 0.024994,0.015445 0.026661,0.047029 0.00625,0.1182377 -0.042081,0.1467263 -0.037652,0.1469145 0.097624,0.00415 L 6.4653871,4.1108738 Z M 1.3878186,3.8070297 c 0,-0.019634 0.040034,-0.1180735 0.08897,-0.2187487 0.4877499,-1.0034975 1.5469777,-1.721588 2.8464962,-1.9297474 0.2243311,-0.035928 0.2785211,-0.054954 0.3316518,-0.1164278 0.068814,-0.079617 0.078075,-0.1412396 0.037332,-0.2484015 -0.024917,-0.065534 -0.01998,-0.069694 0.1027293,-0.08651 0.1872237,-0.025657 0.4315082,-0.021642 0.4315082,0.00714 0,0.01363 -0.019052,0.040581 -0.042339,0.059906 -0.051313,0.042589 -0.056011,0.2076488 -0.00706,0.2479073 0.052276,0.042984 0.3096663,0.109718 0.6210181,0.161003 0.3296282,0.054298 0.7959364,0.2030936 1.1131608,0.3552082 0.6596863,0.3163292 1.325596,0.9503697 1.5841053,1.5082884 0.035904,0.077484 0.077184,0.1629403 0.091734,0.189898 0.014551,0.026961 0.026452,0.061885 0.026452,0.077619 0,0.01918 -1.190867,0.028611 -3.6128818,0.028611 -2.8941689,0 -3.6128819,-0.00714 -3.6128819,-0.035706 z M 6.4014004,3.7040572 c 0.060663,-0.03699 0.1025041,-0.095747 0.1339895,-0.188148 0.02518,-0.073903 0.040553,-0.139588 0.034165,-0.1459782 -0.00639,-0.00637 -0.083251,0.04673 -0.1708026,0.1180426 C 6.3111993,3.5592896 6.2086099,3.6379144 6.170776,3.662705 6.132941,3.687494 6.108976,3.719088 6.117522,3.73292 6.144582,3.776706 6.3098162,3.75991 6.4014017,3.704067 Z m 2.014602,0.011873 c 0,-0.059086 -0.2693659,-0.5263468 -0.3438312,-0.5964309 C 7.911744,2.9685103 7.3676357,2.5389611 7.3540351,2.552563 c -0.0071,0.00714 0.049273,0.08121 0.1252963,0.1646557 0.1434711,0.1574884 0.2086353,0.2646262 0.2745004,0.4513069 0.046251,0.1310886 0.017047,0.1437562 -0.054027,0.023437 C 7.6182604,3.0539204 7.56716,3.0942618 7.4497101,3.389399 7.3915542,3.5355384 7.3489267,3.6600621 7.3549831,3.6661183 c 0.00606,0.00608 0.2377365,0.020927 0.5148451,0.033042 0.2771101,0.012114 0.5133627,0.023978 0.5250057,0.026352 0.011643,0.00241 0.021167,-0.00193 0.021167,-0.00956 z M 7.1224519,3.3444096 c 0.031154,-0.028196 0.050094,-0.081345 0.047774,-0.1340723 -0.00338,-0.076847 -0.00538,-0.078864 -0.016588,-0.016796 -0.00701,0.038814 -0.039248,0.099143 -0.071641,0.1340713 -0.067953,0.073275 -0.03642,0.086365 0.040455,0.016797 z M 7.1736375,2.6911365 C 7.1748055,2.5161918 6.8491823,2.1589217 6.6369379,2.1022707 L 6.5170386,2.0702616 6.7729662,2.3232859 c 0.164725,0.1628544 0.2740875,0.2969268 0.306884,0.3762236 0.051678,0.1249435 0.092923,0.121258 0.093788,-0.0084 z M 5.9744802,1.8951634 c -0.0096,-0.015522 -0.035748,-0.028225 -0.058118,-0.028225 -0.02237,0 -0.040672,0.012703 -0.040672,0.028225 0,0.015522 0.026153,0.028225 0.058117,0.028225 0.031965,0 0.050267,-0.012703 0.040673,-0.028225 z M 5.6781105,1.8268979 c 0,-0.00647 -0.041925,-0.037724 -0.093167,-0.069395 -0.094995,-0.058709 -0.1356324,-0.057937 -0.330217,0.00627 -0.096338,0.031787 -0.093536,0.032994 0.1129032,0.04868 0.1164301,0.00888 0.2339196,0.01837 0.2610866,0.021169 0.027167,0.0028 0.049395,-2.24e-4 0.049395,-0.00676 z M 4.4832982,1.1573423 c -0.067912,-0.025918 -0.077208,-0.041672 -0.061963,-0.1050074 0.02053,-0.0852836 0.087039,-0.14507187 0.1613699,-0.14507187 0.028081,0 0.051057,-0.0127032 0.051057,-0.0282252 0,-0.017298 0.1354169,-0.0282251 0.3498002,-0.0282251 0.3843814,0 0.3840668,-1.4962e-4 0.3840668,0.18190737 v 0.09262 l -0.2752002,0.019084 c -0.1513601,0.010493 -0.3323571,0.024557 -0.4022151,0.031256 -0.069859,0.00666 -0.1629701,-0.00154 -0.2069156,-0.018321 z m 0.799654,-0.1361844 c 0,-0.0478013 -0.1052212,-0.0856697 -0.2380629,-0.0856697 -0.093667,0 -0.1288711,0.0111588 -0.1288711,0.0408608 0,0.0291615 0.042433,0.043834 0.1481844,0.051228 0.081503,0.0057 0.1640625,0.012722 0.1834675,0.01559 0.019405,0.0029 0.035282,-0.00705 0.035282,-0.022009 z"
     id="path1"
     sodipodi:nodetypes="ssssssssssccssssssssssssssssscsssssssscsssssssssssssssssssscssssssssssssssssssssssssscsssssssssssssssssssssssssssssssssssssssssssssssssssssssssssssssssssssscsssssssssssssssscsssssssssssssssscssssssssscsssssssssssssssssssssssssssssssssssssssssscsssssssssssssssssssscsssssssss" /></svg>
