<?xml version="1.0" encoding="UTF-8" standalone="no"?>
<!-- Created with Inkscape (http://www.inkscape.org/) -->

<svg
   width="194mm"
   height="10mm"
   viewBox="0 0 194 10"
   version="1.1"
   id="svg1"
   inkscape:version="1.4.2 (2aeb623e1d, 2025-05-12)"
   sodipodi:docname="HrobnikRowSetList.svg"
   xml:space="preserve"
   xmlns:inkscape="http://www.inkscape.org/namespaces/inkscape"
   xmlns:sodipodi="http://sodipodi.sourceforge.net/DTD/sodipodi-0.dtd"
   xmlns="http://www.w3.org/2000/svg"
   xmlns:svg="http://www.w3.org/2000/svg"><sodipodi:namedview
     id="namedview1"
     pagecolor="#ffffff"
     bordercolor="#000000"
     borderopacity="0.25"
     inkscape:showpageshadow="2"
     inkscape:pageopacity="0.0"
     inkscape:pagecheckerboard="0"
     inkscape:deskcolor="#d1d1d1"
     inkscape:document-units="mm"
     inkscape:zoom="3.8683624"
     inkscape:cx="451.35378"
     inkscape:cy="25.979986"
     inkscape:window-width="1920"
     inkscape:window-height="940"
     inkscape:window-x="0"
     inkscape:window-y="0"
     inkscape:window-maximized="1"
     inkscape:current-layer="svg1"
     showgrid="true"><inkscape:grid
       id="grid1"
       units="mm"
       originx="0"
       originy="0"
       spacingx="0.99999995"
       spacingy="0.99999997"
       empcolor="#0099e5"
       empopacity="0.30196078"
       color="#0099e5"
       opacity="0.14901961"
       empspacing="5"
       enabled="true"
       visible="true" /></sodipodi:namedview><defs
     id="defs1" /><g
     id="g5"
     inkscape:label="Row"
     style="display:inline;stroke:none;stroke-width:1.00177;stroke-dasharray:none;stroke-opacity:1"
     transform="matrix(0.26492119,0,0,0.26432057,-6.0076616,-15.984109)"><rect
       style="display:inline;opacity:1;fill:#fa0000;fill-opacity:0.307692;stroke:none;stroke-width:0.989086;stroke-dasharray:none;stroke-opacity:1"
       id="rect4"
       width="596.3183"
       height="37.845543"
       x="158.65207"
       y="60.466091"
       inkscape:label="Popis" /><rect
       style="display:inline;fill:#fa0000;fill-opacity:0.307692;stroke:none;stroke-width:1.00177;stroke-dasharray:none;stroke-opacity:1"
       id="rect4-42"
       width="98.208679"
       height="37.832848"
       x="60.449734"
       y="60.472439"
       inkscape:label="Jmeno" /><rect
       style="display:inline;opacity:1;fill:#fa0000;fill-opacity:0.307692;stroke:none;stroke-width:1.00177;stroke-dasharray:none;stroke-opacity:1"
       id="rect5"
       width="37.772568"
       height="37.832848"
       x="22.677166"
       y="60.472439"
       inkscape:label="Logo" /></g><g
     inkscape:label="Layer 1"
     inkscape:groupmode="layer"
     id="layer1"
     transform="translate(-5.9999979,-28.039034)"
     style="display:inline"><text
       xml:space="preserve"
       style="font-size:3.80938px;font-family:'New Rocker';-inkscape-font-specification:'New Rocker';text-align:start;letter-spacing:0px;writing-mode:lr-tb;direction:ltr;text-anchor:start;fill:#000000;fill-opacity:1;stroke:none;stroke-width:0.0504741"
       x="18.035286"
       y="34.122803"
       id="text1"
       inkscape:label="Role"><tspan
         style="letter-spacing:0px;fill:#000000;fill-opacity:1;stroke:none;stroke-width:0.0504743"
         x="18.035286"
         y="34.122803"
         sodipodi:role="line"
         id="tspan8">Hrobník</tspan></text><text
       xml:space="preserve"
       style="font-size:3px;font-family:'New Rocker';-inkscape-font-specification:'New Rocker';text-align:start;letter-spacing:0px;writing-mode:lr-tb;direction:ltr;text-anchor:start;fill:#000000;fill-opacity:1;stroke:none;stroke-width:0.040981"
       x="42.755661"
       y="33.891289"
       id="text2"
       inkscape:label="Popis"><tspan
         sodipodi:role="line"
         style="font-style:normal;font-variant:normal;font-weight:normal;font-stretch:normal;font-size:3px;font-family:'Didact Gothic';-inkscape-font-specification:'Didact Gothic';letter-spacing:0px;stroke-width:0.0409811"
         x="42.755661"
         y="33.891289"
         id="tspan9">Každou noc* se dozvíš, jakou roli měl hráč, který dnes zemřel rukou popravčího.</tspan></text><path
       style="fill:#000000;stroke-width:0.0300896"
       d="M 7.2672041,35.572151 C 6.9095716,35.47844 6.6407456,35.336895 6.441887,35.137597 6.3207712,35.016213 6.3006431,34.787999 6.3817288,34.45552 c 0.14972,-0.613899 0.5046941,-0.953467 1.2392885,-1.185502 0.1406694,-0.04443 0.3234642,-0.104301 0.4062105,-0.133029 0.2769655,-0.09618 0.5407763,-0.177929 0.6335615,-0.196338 0.089664,-0.01778 0.093348,-0.01392 0.1483542,0.155882 0.031024,0.09577 0.058314,0.228284 0.060643,0.294481 0.00561,0.159271 0.020975,0.20652 0.075176,0.231079 0.084473,0.03827 0.1953012,0.02452 0.3610755,-0.04482 0.2051897,-0.08582 1.263924,-0.617177 1.319459,-0.662195 0.02235,-0.01813 0.0562,-0.03525 0.07523,-0.03804 0.01901,-0.0028 0.224144,-0.09646 0.455833,-0.208127 0.23169,-0.111676 0.522808,-0.249526 0.646928,-0.306338 0.443911,-0.203183 0.497136,-0.227788 0.546911,-0.252829 0.02774,-0.01395 0.217303,-0.09496 0.421255,-0.180018 0.203953,-0.08506 0.404674,-0.171899 0.446047,-0.192982 0.09727,-0.04957 0.280283,-0.132879 0.616839,-0.280802 0.148943,-0.06546 0.443875,-0.201856 0.655403,-0.303091 0.211531,-0.101241 0.391417,-0.184061 0.399748,-0.184061 0.0083,0 0.04712,-0.02095 0.0862,-0.04656 l 0.07105,-0.04655 -0.07692,-0.199023 -0.07692,-0.199021 0.0725,-0.0553 c 0.03989,-0.03043 0.08885,-0.06886 0.10884,-0.08541 0.06093,-0.05046 0.07943,-0.035 0.210539,0.175749 0.129301,0.207858 0.490317,0.875308 0.490317,0.906498 0,0.0095 -0.05988,0.04998 -0.133072,0.08996 -0.155824,0.08512 -0.173213,0.07689 -0.319758,-0.151486 -0.05228,-0.08148 -0.10005,-0.148136 -0.106162,-0.148136 -0.0061,0 -0.06901,0.0263 -0.139789,0.05845 -0.07077,0.03215 -0.209928,0.09456 -0.309224,0.138672 -0.0993,0.04412 -0.952339,0.462852 -1.895649,0.930518 -0.94331,0.467668 -1.877077,0.923183 -2.075036,1.012256 -0.19796,0.08908 -0.55001,0.256736 -0.782334,0.372581 -0.3712857,0.185139 -0.4380817,0.23013 -0.5519594,0.37178 -0.1413589,0.175835 -0.1559011,0.276926 -0.043731,0.304005 0.071512,0.01727 0.3086927,0.283014 0.3086927,0.345876 0,0.06656 -0.149228,0.161811 -0.8231456,0.525383 -0.2137214,0.115305 -0.798586,0.295006 -1.0822023,0.33252 -0.2958651,0.03912 -0.2924621,0.03932 -0.5547413,-0.0294 z m 0.8144362,-0.171123 c 0.051579,-0.03224 -0.2841288,-0.09447 -0.3458086,-0.06411 -0.1261043,0.0621 -0.4787539,-9.3e-4 -0.7797654,-0.13934 -0.1856173,-0.08536 -0.4182762,-0.285944 -0.4182762,-0.360613 0,-0.02769 -0.013539,-0.04198 -0.030089,-0.03176 -0.016549,0.01029 -0.030089,0.05002 -0.030089,0.08842 0,0.155262 0.5148366,0.473563 0.857555,0.530188 0.1683585,0.02782 0.6910445,0.01187 0.7464747,-0.02281 z M 7.7042144,34.896985 c 0.2685838,-0.0565 0.5051499,-0.145991 0.7851404,-0.297015 l 0.2253716,-0.121558 0.1000739,0.115766 c 0.1288378,0.149044 0.1272045,0.204201 -0.00749,0.252907 -0.059161,0.02139 -0.1025869,0.04388 -0.0965,0.04996 0.015938,0.01593 0.3435133,-0.08996 0.5200075,-0.168104 l 0.1504483,-0.06661 -0.094301,-0.04005 c -0.051863,-0.02203 -0.1426289,-0.09651 -0.2016989,-0.165522 -0.084492,-0.09871 -0.1221398,-0.121902 -0.1765048,-0.108749 -0.038008,0.0092 -0.1815629,0.04273 -0.3190104,0.07453 -0.1987886,0.04596 -0.2726439,0.079 -0.3610762,0.16148 -0.1447598,0.13502 -0.290743,0.198682 -0.5825042,0.254029 -0.1308327,0.02481 -0.2678711,0.05719 -0.3045276,0.07196 -0.1130805,0.0455 0.1249973,0.03697 0.3625788,-0.01306 z M 6.8565898,34.15504 c 0.031528,-0.03489 0.176224,-0.158292 0.3215499,-0.274224 0.2161605,-0.17244 0.3351672,-0.239903 0.6541663,-0.370832 0.3884368,-0.159427 0.390106,-0.159801 0.4340214,-0.0971 0.035498,0.05069 0.052593,0.05588 0.087768,0.0267 0.036196,-0.03003 0.04969,-0.01804 0.078747,0.07001 0.032776,0.09932 0.029521,0.111241 -0.049871,0.18277 -0.0846,0.07622 -0.084352,0.07618 0.062414,-0.0074 0.197818,-0.112626 0.2213662,-0.155283 0.1586677,-0.28741 -0.027642,-0.05824 -0.050254,-0.127547 -0.050254,-0.154014 0,-0.06533 -0.087258,-0.0613 -0.3438961,0.01589 -0.780927,0.234899 -1.0762982,0.423738 -1.4412701,0.921438 -0.046995,0.06409 0.026113,0.04263 0.087959,-0.02582 z m 1.0834403,-0.152147 c 0.2667864,-0.201426 0.1870768,-0.175908 -0.168564,0.05396 -0.1281452,0.08283 -0.1461261,0.102639 -0.079676,0.08781 0.047201,-0.01055 0.158908,-0.07434 0.2482399,-0.141781 z m 2.0388612,-0.52161 c -0.0095,-0.02483 -0.02899,-0.04513 -0.04325,-0.04513 -0.01426,0 -0.01813,0.02031 -0.0086,0.04513 0.0095,0.02483 0.02899,0.04513 0.04325,0.04513 0.01426,0 0.01813,-0.02031 0.0086,-0.04513 z m 0.9818427,-0.383642 c 3.52e-4,-0.03343 -0.03809,-0.02582 -0.09756,0.01932 -0.07644,0.05803 -0.06451,0.07831 0.02234,0.03803 0.04124,-0.01913 0.0751,-0.04493 0.07523,-0.05735 z m 0.722387,-0.353146 c 0.107574,-0.0617 0.303906,-0.170034 0.4363,-0.240749 0.271303,-0.14491 0.361526,-0.212408 0.180538,-0.135062 -0.0662,0.02828 -0.181291,0.07467 -0.255762,0.103061 -0.109475,0.04174 -0.691893,0.408807 -0.751795,0.473808 -0.02298,0.02493 0.168357,-0.07353 0.390719,-0.201061 z m 1.316876,-0.705461 c 0.03837,-0.03837 -0.01579,-0.03744 -0.150903,0.0026 -0.07862,0.02328 -0.142925,0.05482 -0.142925,0.07006 0,0.02658 0.258508,-0.03732 0.293828,-0.07264 z m 1.248268,-0.508157 c 0.241349,-0.118959 0.281571,-0.147593 0.165492,-0.117837 -0.07846,0.02012 -0.443824,0.216075 -0.443824,0.238041 0,0.01771 -0.012,0.02293 0.278332,-0.120212 z m 1.363416,-0.164039 c -0.01003,-0.01003 -0.04171,0.0061 -0.07028,0.03604 -0.04965,0.05199 -0.04884,0.05279 0.01833,0.01833 0.03866,-0.01983 0.06204,-0.04429 0.05193,-0.05438 z m -0.389499,-0.433554 c -0.09229,-0.170786 -0.168074,-0.293143 -0.168408,-0.271906 -6.87e-4,0.04607 0.125067,0.302443 0.234925,0.478805 0.142858,0.229323 0.104157,0.108933 -0.06652,-0.206899 z m -0.223901,0.172304 c 0.09729,0.0012 0.107125,-0.0051 0.0817,-0.05265 -0.03684,-0.06885 -0.04235,-0.06831 -0.222391,0.0218 -0.09917,0.04963 -0.119684,0.06749 -0.06018,0.05239 0.04964,-0.01266 0.140047,-0.0223 0.200883,-0.02152 z m 0.355108,-0.159358 c -3.41e-4,-0.01241 -0.02825,-0.05641 -0.06199,-0.09779 l -0.06131,-0.07523 0.04773,0.0978 c 0.04534,0.09293 0.07705,0.124487 0.07559,0.07523 z"
       id="path1-2"
       sodipodi:nodetypes="ssssssssssssssssssssscccsssssssssssssssssssssssssssscsssscsssssssssssssssssssssssssssssssssssssssssssssssssssssssssssssssscss" /></g></svg>
