<?xml version="1.0" encoding="UTF-8" standalone="no"?>
<!-- Created with Inkscape (http://www.inkscape.org/) -->

<svg
   width="194mm"
   height="10mm"
   viewBox="0 0 194 10"
   version="1.1"
   id="svg1"
   inkscape:version="1.4.2 (2aeb623e1d, 2025-05-12)"
   sodipodi:docname="KucharRowSetList.svg"
   xml:space="preserve"
   xmlns:inkscape="http://www.inkscape.org/namespaces/inkscape"
   xmlns:sodipodi="http://sodipodi.sourceforge.net/DTD/sodipodi-0.dtd"
   xmlns="http://www.w3.org/2000/svg"
   xmlns:svg="http://www.w3.org/2000/svg"><sodipodi:namedview
     id="namedview1"
     pagecolor="#ffffff"
     bordercolor="#000000"
     borderopacity="0.25"
     inkscape:showpageshadow="2"
     inkscape:pageopacity="0.0"
     inkscape:pagecheckerboard="0"
     inkscape:deskcolor="#d1d1d1"
     inkscape:document-units="mm"
     inkscape:zoom="3.9815774"
     inkscape:cx="706.0016"
     inkscape:cy="3.390616"
     inkscape:window-width="1920"
     inkscape:window-height="940"
     inkscape:window-x="0"
     inkscape:window-y="0"
     inkscape:window-maximized="1"
     inkscape:current-layer="svg1"
     showgrid="true"><inkscape:grid
       id="grid1"
       units="mm"
       originx="0"
       originy="0"
       spacingx="0.99999995"
       spacingy="0.99999997"
       empcolor="#0099e5"
       empopacity="0.30196078"
       color="#0099e5"
       opacity="0.14901961"
       empspacing="5"
       enabled="true"
       visible="true" /></sodipodi:namedview><defs
     id="defs1" /><g
     id="g5"
     inkscape:label="Row"
     style="display:inline;stroke:none;stroke-width:1.00177;stroke-dasharray:none;stroke-opacity:1"
     transform="matrix(0.2647424,0,0,0.26432057,-6.0036072,-15.984109)"><rect
       style="display:inline;opacity:1;fill:#fa0000;fill-opacity:0.307692;stroke:none;stroke-width:0.989325;stroke-dasharray:none;stroke-opacity:1"
       id="rect4"
       width="596.80658"
       height="37.832848"
       x="158.65842"
       y="60.472439"
       inkscape:label="Popis" /><rect
       style="display:inline;fill:#fa0000;fill-opacity:0.307692;stroke:none;stroke-width:1.00177;stroke-dasharray:none;stroke-opacity:1"
       id="rect4-42"
       width="98.208679"
       height="37.832848"
       x="60.449734"
       y="60.472439"
       inkscape:label="Jmeno" /><rect
       style="display:inline;opacity:1;fill:#fa0000;fill-opacity:0.307692;stroke:none;stroke-width:1.00177;stroke-dasharray:none;stroke-opacity:1"
       id="rect5"
       width="37.772568"
       height="37.832848"
       x="22.677166"
       y="60.472439"
       inkscape:label="Logo" /></g><g
     inkscape:label="Layer 1"
     inkscape:groupmode="layer"
     id="layer1"
     transform="translate(-5.9999979,-28.039034)"
     style="display:inline"><text
       xml:space="preserve"
       style="font-size:3.80938px;font-family:'New Rocker';-inkscape-font-specification:'New Rocker';text-align:start;letter-spacing:0px;writing-mode:lr-tb;direction:ltr;text-anchor:start;fill:#000000;fill-opacity:1;stroke:none;stroke-width:0.0504741"
       x="18.035286"
       y="34.122803"
       id="text1"
       inkscape:label="Role"><tspan
         id="tspan1"
         style="letter-spacing:0px;fill:#000000;fill-opacity:1;stroke:none;stroke-width:0.0504743"
         x="18.035286"
         y="34.122803"
         sodipodi:role="line">Kuchař</tspan></text><text
       xml:space="preserve"
       style="font-size:3px;font-family:'New Rocker';-inkscape-font-specification:'New Rocker';text-align:start;letter-spacing:0px;writing-mode:lr-tb;direction:ltr;text-anchor:start;fill:#000000;fill-opacity:1;stroke:none;stroke-width:0.040981"
       x="42.755661"
       y="33.891289"
       id="text2"
       inkscape:label="Popis"><tspan
         sodipodi:role="line"
         style="font-style:normal;font-variant:normal;font-weight:normal;font-stretch:normal;font-size:3px;font-family:'Didact Gothic';-inkscape-font-specification:'Didact Gothic';letter-spacing:0px;stroke-width:0.0409811"
         x="42.755661"
         y="33.891289"
         id="tspan5">První noc se dozvíš, kolik je ve hře zlých párů. (Pár je dvojice hráčů, kteří sedí vedle sebe.)</tspan><tspan
         sodipodi:role="line"
         style="font-style:normal;font-variant:normal;font-weight:normal;font-stretch:normal;font-size:3px;font-family:'Didact Gothic';-inkscape-font-specification:'Didact Gothic';letter-spacing:0px;stroke-width:0.0409811"
         x="42.755661"
         y="37.671185"
         id="tspan6" /></text></g><path
     style="fill:#000000;stroke-width:0.03408"
     d="M 4.3570299,9.3175407 C 4.31017,9.308768 4.1031334,9.2704261 3.8969491,9.2323281 3.1700521,9.0980192 2.6062051,8.8541022 2.4807511,8.6196891 2.4496288,8.5615315 2.4809567,8.5699702 2.6816199,8.6738282 2.9039669,8.7888925 3.253743,8.8849004 3.1301478,8.7969414 3.1020315,8.7769307 3.0526001,8.7603224 3.0202993,8.7600396 2.9549475,8.7594597 2.6529921,8.6203317 2.6530883,8.5908461 2.6532296,8.5526045 2.9491874,8.3925043 3.1471878,8.3235741 3.4277792,8.2258928 3.7266698,8.145024 3.8751239,8.1266227 c 0.068237,-0.00846 0.2850938,-0.039343 0.481906,-0.068629 0.4270858,-0.063557 1.2960054,-0.070778 1.7040031,-0.014162 0.1593242,0.022111 0.351152,0.044454 0.4262842,0.049668 0.075131,0.00522 0.1863186,0.020387 0.2470805,0.033732 0.07846,0.017231 0.1104762,0.011954 0.1104762,-0.018206 0,-0.023357 -0.00858,-0.033877 -0.019093,-0.023375 -0.010498,0.010501 -0.098684,-0.00296 -0.1959612,-0.029935 -0.1957774,-0.054271 -0.4549559,-0.099403 -0.8414273,-0.1465299 -0.330374,-0.040286 -1.72191,0.06774 -2.1811238,0.1693237 -0.3035728,0.067153 -0.8596662,0.2415725 -0.9997605,0.313576 -0.1266501,0.065093 -0.026136,0.061093 0.1433286,-0.00573 0.096157,-0.037902 0.1748305,-0.062931 0.1748305,-0.055623 0,0.00731 -0.086443,0.062075 -0.1920954,0.121702 L 2.5414771,8.5608548 2.4730705,8.4924482 C 2.4108949,8.4302719 2.4020599,8.3578422 2.3760713,7.6971679 2.3339751,6.6269887 2.2924422,6.0961239 2.2424656,5.98942 2.2180467,5.9372839 2.0512236,5.7769423 1.8717464,5.6331044 1.6922698,5.4892673 1.3920175,5.2166387 1.2045203,5.0272629 0.92793728,4.7479101 0.83403822,4.6254472 0.7068601,4.3782163 0.62064437,4.2106169 0.5686924,4.072858 0.52595534,3.9116092 0.49378251,3.7902291 0.47240734,3.6645848 0.47029435,3.5390318 0.46789939,3.3977303 0.49304008,3.2568059 0.51879885,3.1178508 0.54921678,2.953726 0.58716468,2.7957587 0.64359738,2.6328909 0.85190492,2.0317027 1.1829231,1.6333518 1.6773279,1.3888877 1.962005,1.2481261 2.2330703,1.1954694 2.678514,1.1943997 2.9442188,1.1937708 2.9685623,1.1872814 3.1235075,1.0759653 3.6317614,0.71082143 3.7686103,0.75251174 4.1184752,0.68466594 c 0.083645,-0.0162204 0.1710133,-0.0123704 0.2556004,-0.002144 0.3254063,0.0393412 0.5863079,0.0259898 0.9529971,0.24234157 0.1059539,0.0625144 0.1244859,0.0640809 0.2135061,0.0180466 C 5.8036343,0.8068785 6.3932012,0.72816531 6.71902,0.78557547 c 0.116083,0.0204545 0.2417326,0.0424975 0.2792203,0.0489849 0.2592335,0.044864 0.6148811,0.24106673 0.869041,0.47943183 0.065605,0.061527 0.195961,0.1373003 0.2896806,0.168385 0.7666114,0.2542689 1.3039122,0.9499547 1.3694938,1.7731881 0.024254,0.3044901 -0.083,0.7313759 -0.2568798,1.0224182 C 9.1974989,4.3986288 8.9152768,4.7199972 8.5812184,5.061825 7.6452161,6.0195945 7.6844469,5.9214402 7.6753994,7.3281491 c -0.00392,0.6091809 -0.00836,1.1191035 -0.00985,1.1331618 -0.00639,0.059692 -0.070897,0.01935 -0.070897,-0.044341 0,-0.068582 -0.098232,-0.1273247 -0.3067205,-0.1834202 l -0.085201,-0.022923 0.077137,0.067274 c 0.042424,0.037002 0.0961,0.07418 0.1192801,0.082619 0.033211,0.012093 0.032904,0.028915 -0.00144,0.079368 -0.023974,0.03521 -0.05282,0.091696 -0.064102,0.1255205 C 7.322322,8.5992342 7.234589,8.6733864 7.1386354,8.730195 6.9990002,8.812866 6.984584,8.828823 7.0664154,8.810134 7.1226474,8.797292 7.2101377,8.783653 7.2608385,8.779823 7.3115385,8.775973 7.3817582,8.746851 7.4168824,8.715066 7.4965724,8.642948 7.5499602,8.639056 7.4913854,8.709666 7.4674824,8.738467 7.3544188,8.8139659 7.24013,8.8774463 6.7247558,9.1637057 6.025224,9.3087776 5.0897704,9.3233967 4.7336338,9.3289867 4.4039092,9.3263567 4.3570491,9.3175467 Z M 7.5605551,7.6691595 c 0,-0.3970211 -0.031936,-0.5795684 -0.1013963,-0.5795684 -0.021965,0 -0.035307,0.1612376 -0.035962,0.4345209 -7.735e-4,0.3458884 -0.00908,0.4206419 -0.040476,0.3664776 -0.02608,-0.044996 -0.036724,-0.2374071 -0.031423,-0.5680047 0.00767,-0.4788637 0.00481,-0.5029569 -0.06819,-0.5709578 -0.041913,-0.039048 -0.087022,-0.070996 -0.1002406,-0.070996 -0.013221,0 -0.034543,0.1418582 -0.047383,0.3152405 -0.012842,0.1733826 -0.038804,0.3754939 -0.057694,0.4491379 -0.018889,0.073643 -0.024201,0.2015384 -0.011811,0.2842111 0.02129,0.141969 0.032771,0.1549973 0.2067848,0.2346633 0.1013334,0.046392 0.1932639,0.098946 0.2042896,0.1167856 0.055819,0.090318 0.083496,-0.04609 0.083496,-0.4115094 z M 2.7574115,7.9257249 C 2.7683728,7.7454925 2.8282768,7.2799723 2.8769748,6.9965492 2.9288563,6.6945855 2.9308935,6.6229499 2.8921623,6.4615039 2.8675676,6.3589813 2.8269089,6.2672202 2.8018099,6.2575888 c -0.025098,-0.00963 -0.085376,0.016672 -0.1339497,0.058454 -0.098355,0.084601 -0.1028113,0.1273688 -0.086021,0.8255937 0.00497,0.2066937 -0.00214,0.5040601 -0.015822,0.6608133 l -0.024859,0.2850066 0.1070569,-0.06324 c 0.058881,-0.034782 0.1080217,-0.079105 0.1092013,-0.098493 z M 2.9861578,7.8710009 C 3.0746538,7.8401489 3.0941137,7.8124029 3.1116267,7.6920803 3.1230277,7.6137553 3.1468807,7.4576572 3.1646357,7.3451926 3.1913177,7.1761841 3.266468,6.2874113 3.266468,6.1408752 c 0,-0.066675 -0.2347384,-0.037174 -0.2567796,0.03227 -0.010113,0.031876 -0.00378,0.1487435 0.014096,0.2597061 0.024033,0.1492297 0.01969,0.2720631 -0.016683,0.4718456 -0.027045,0.1485523 -0.062915,0.3467753 -0.079708,0.4404954 -0.016791,0.09372 -0.04668,0.2394125 -0.066417,0.3237605 -0.060938,0.260428 -0.057623,0.2657734 0.1251814,0.2020481 z M 6.9841213,7.3468152 C 7.0065813,7.2246535 7.0119205,7.0239476 6.9975414,6.8422744 6.9776987,6.5915777 6.9593887,6.5236252 6.8891997,6.4402102 6.7813294,6.3120139 6.6843046,6.3093171 6.6495628,6.4335497 c -0.014415,0.051547 -0.02621,0.3600153 -0.02621,0.6854875 v 0.5917671 l 0.1533609,0.056957 0.1533597,0.056958 0.00838,-0.1375224 c 0.00462,-0.075637 0.025158,-0.228808 0.045673,-0.3403795 z M 3.5646686,7.698867 c 0.076483,-0.028155 0.07668,-0.030248 0.07668,-0.8129116 V 6.1012694 H 3.525989 3.4106294 l -0.038322,0.2641205 c -0.021077,0.1452663 -0.046642,0.3714726 -0.056809,0.5026809 -0.010165,0.1312082 -0.032725,0.3382449 -0.050125,0.4600808 -0.017401,0.1218359 -0.03194,0.2703981 -0.032312,0.3301378 -6.54e-4,0.1064156 0.00192,0.1082142 0.1271252,0.08871 0.07029,-0.010949 0.1623062,-0.032607 0.204482,-0.048132 z M 6.510181,6.9362309 6.5211139,6.2205497 6.4416232,6.2092902 c -0.1328801,-0.018819 -0.2101896,0.083432 -0.2101896,0.2780055 0,0.09404 -0.023792,0.2979506 -0.052871,0.4531338 -0.029079,0.1551836 -0.048248,0.3710833 -0.0426,0.4797765 l 0.01027,0.1976251 0.1533603,0.038323 c 0.084348,0.021073 0.1637767,0.028745 0.1765078,0.017043 0.012731,-0.011703 0.028067,-0.3433372 0.03408,-0.7369617 z M 4.072,7.601167 c 0.090431,-4.634e-4 0.100981,-0.064086 0.1497309,-0.9030177 0.040286,-0.6932624 0.038509,-0.69912 -0.2120152,-0.69912 -0.2468545,0 -0.2537574,0.02339 -0.2611657,0.8849196 L 3.74201,7.6440457 3.8705974,7.6227967 C 3.9413254,7.6111067 4.0319543,7.6013767 4.072,7.6011697 Z M 6.0060979,7.4218715 c 0.00997,-0.098406 0.026797,-0.4166286 0.037391,-0.707161 0.016338,-0.448074 0.01108,-0.5398779 -0.034649,-0.604921 C 5.9432729,6.0165335 5.7876209,6.0076068 5.7116868,6.0927495 5.6391828,6.1740465 5.5577439,6.645573 5.5296512,7.1467232 l -0.023262,0.4149719 0.1154414,0.014093 c 0.063493,0.00775 0.171848,0.016553 0.2407893,0.019553 l 0.1253482,0.00547 z m -1.1822967,0.098444 c 0.015064,-0.015036 0.02739,-0.359641 0.02739,-0.7657911 V 6.0160698 L 4.6435967,6.0060617 c -0.1391602,-0.0067 -0.2194147,0.00453 -0.2434514,0.03408 -0.020778,0.025546 -0.046359,0.3575331 -0.060829,0.7894161 L 4.3143433,7.5748875 4.555378,7.5612665 c 0.1325691,-0.00749 0.2533597,-0.025922 0.2684237,-0.040958 z M 5.4521295,7.072552 c 0.011868,-0.2436729 0.029588,-0.5580612 0.039378,-0.6986415 0.014056,-0.2018553 0.00663,-0.268141 -0.03538,-0.3152407 -0.06496,-0.072851 -0.1839719,-0.076409 -0.3136013,-0.00937 -0.082745,0.04279 -0.1003327,0.076999 -0.1182574,0.2300405 -0.03926,0.3351807 -0.083112,1.133685 -0.065636,1.1951516 0.014872,0.052309 0.050185,0.059685 0.24465,0.05112 L 5.4305516,7.5156029 Z M 2.653875,5.979758 C 2.6768351,5.9193707 2.6748041,5.8692977 2.6473072,5.8178777 2.5720817,5.6771864 2.012883,4.9936216 1.9155049,4.9233215 1.7393701,4.7961654 1.7328625,4.7952936 1.7328625,4.8988533 c 0,0.1026198 0.1097762,0.2666809 0.5035158,0.7525061 0.1260625,0.1555459 0.2430512,0.3127401 0.2599732,0.3493207 0.042964,0.092872 0.1180484,0.0829 0.1575204,-0.020922 z M 8.2027135,5.1739332 C 8.5246887,4.8546768 8.7209717,4.6311242 8.7778334,4.5189121 8.9224459,4.2335336 9.0258708,3.9262717 9.0283929,3.7745273 c 0.00132,-0.079235 0.013345,-0.1718241 0.026726,-0.2057555 0.021001,-0.053248 0.039334,-0.043024 0.1339254,0.074681 0.060277,0.075007 0.1112025,0.1564446 0.1131681,0.1809736 0.00197,0.024529 0.023791,-0.016746 0.0485,-0.091721 C 9.4936269,3.2990726 9.3077576,2.6314889 8.9258449,2.2067094 8.7595969,2.0218018 8.3933279,1.7390219 8.3200755,1.7390219 c -0.02462,0 -0.074529,-0.01859 -0.1109114,-0.04131 -0.1158138,-0.072327 -0.1128242,-0.00519 0.01279,0.2872762 0.1068733,0.2488274 0.1224435,0.3200528 0.1224435,0.5601112 v 0.2750326 l -0.086394,-0.016516 c -0.054303,-0.010384 -0.1115284,0.00623 -0.1540604,0.044722 -0.067221,0.060832 -0.067217,0.060219 6.414e-4,-0.093098 C 8.1671963,2.6136956 8.1696796,2.5757823 8.1345432,2.2977633 8.0679755,1.7710467 7.7811686,1.3601717 7.339075,1.1581917 7.0227081,1.0136522 6.6785988,0.94694351 6.3362032,0.96377555 6.0759286,0.97657106 5.7002949,1.055221 5.6222729,1.1132582 c -0.00705,0.00524 0.033299,0.048309 0.08964,0.095718 0.085632,0.072054 0.1703767,0.223325 0.1251114,0.223325 -0.00726,0 -0.094,-0.051579 -0.1927699,-0.1146191 C 5.0325061,0.92723156 4.4098706,0.79430224 3.8614304,0.93705886 3.4918098,1.0332696 3.2380798,1.1851413 2.9227197,1.4989309 2.7617527,1.6590972 2.5957898,1.8361497 2.5539141,1.8923819 l -0.076138,0.1022402 0.01998,-0.1174987 c 0.010992,-0.064624 0.042657,-0.1489726 0.070371,-0.1874405 0.027714,-0.038468 0.075701,-0.1049463 0.1066375,-0.1477301 l 0.056245,-0.077788 -0.3371737,0.019482 C 2.0001099,1.5063961 1.6784497,1.5927365 1.4526447,1.736281 1.2638136,1.8563209 1.0170082,2.1764592 0.8725166,2.4887826 0.81615168,2.6106187 0.74513596,2.762879 0.71470643,2.8271387 c -0.0730773,0.1543182 -0.0639743,0.6270353 0.015589,0.8095218 0.0312044,0.071568 0.10796381,0.2508799 0.17057815,0.3984701 0.12937732,0.304956 0.36907592,0.6898824 0.45985232,0.7384645 0.033537,0.017947 0.116527,0.032632 0.1844264,0.032632 0.1207662,0 0.122298,-0.00165 0.0704,-0.075743 -0.02918,-0.041659 -0.053051,-0.098747 -0.053051,-0.1268629 0,-0.036138 0.014716,-0.030113 0.050202,0.020557 0.027613,0.039421 0.108126,0.095206 0.17892,0.1239659 0.1581033,0.064228 0.5667533,0.5058088 0.8422168,0.9100858 0.1085588,0.1593242 0.213414,0.295607 0.2330113,0.3028509 0.058121,0.021482 0.012025,-0.062666 -0.2293607,-0.4186875 C 2.4600406,5.2806687 2.4054065,5.1707747 2.3937958,5.0522116 c -0.00823,-0.084053 -0.02318,-0.1661177 -0.033223,-0.1823643 -0.01004,-0.016248 -0.00989,-0.02954 3.345e-4,-0.02954 0.010229,0 0.04199,0.055999 0.070589,0.1244423 0.0286,0.068443 0.109317,0.1898847 0.1793778,0.2698695 0.07006,0.079985 0.1868621,0.2399271 0.259559,0.3554274 0.072696,0.1155003 0.1533297,0.2181178 0.1791834,0.2280384 0.025853,0.00993 0.087032,-0.00819 0.135952,-0.04024 0.097284,-0.063743 0.096271,-0.02485 0.015536,-0.5967363 C 3.1839068,5.0592719 3.1361104,4.8752395 3.0948915,4.7721474 3.0536731,4.6690553 2.9913926,4.492691 2.9564905,4.3802266 2.9215884,4.2677625 2.8400648,4.0196732 2.7753259,3.8289178 2.6866135,3.5675222 2.6644178,3.458389 2.6852185,3.385877 2.7102165,3.298734 2.7151715,3.29609 2.7377925,3.357825 2.7515275,3.395313 2.7979125,3.5026651 2.8408767,3.5963852 2.9517841,3.8383289 2.985697,3.9394367 3.0466331,4.2098264 3.1352561,4.6030728 3.1881062,4.744642 3.4327794,5.2442004 3.4819064,5.3445049 3.5731427,5.4716116 3.6355267,5.526659 3.7435109,5.621945 3.7631276,5.626537 4.0444876,5.622395 4.207032,5.620005 4.3750647,5.609953 4.4178931,5.600064 4.584914,5.5614974 4.6366568,5.2554578 4.5625218,4.7446325 4.4786809,4.1669244 4.4519336,3.9260625 4.4561684,3.7868904 4.4592641,3.6853049 4.4327889,3.5831366 4.3744944,3.4716499 4.2823568,3.2954403 4.2844035,3.2827985 4.3943023,3.3493052 c 0.062585,0.037875 0.081437,0.029512 0.169938,-0.075392 0.1163922,-0.1379647 0.1165129,-0.1376767 0.043308,0.103287 -0.063745,0.2098256 -0.071548,0.5246571 -0.019066,0.7691958 0.019554,0.091119 0.069173,0.3573718 0.1102604,0.5916722 C 4.8091907,5.3678941 4.862303,5.5214119 5.002256,5.615357 5.06658,5.658535 5.1355916,5.688545 5.1556163,5.68205 5.2402713,5.654583 5.2888884,5.4530726 5.3154139,5.0197051 c 0.01529,-0.2498159 0.044362,-0.4805598 0.064605,-0.5127638 0.037291,-0.059329 0.03421,0.063187 -0.021795,0.8661263 l -0.021707,0.3112379 0.1452945,0.013856 c 0.1018658,0.00972 0.1673745,-0.00351 0.2191654,-0.044251 C 5.8106499,5.5676418 6.1598635,5.0410402 6.3648151,4.6528674 6.5640722,4.2754801 6.8679837,3.8490185 6.9987016,3.7633683 c 0.046623,-0.030548 0.085572,-0.088283 0.086556,-0.1283022 0.00179,-0.072726 0.00182,-0.072724 0.055276,0.00392 0.032589,0.046718 0.088484,0.076556 0.1430526,0.07636 C 7.4091,3.7149017 7.6937213,3.5436651 7.8422957,3.3792117 L 7.9674104,3.2407131 7.9470925,3.3503883 C 7.8940872,3.6364956 7.7206957,3.7904339 7.1005078,4.1019935 6.9692991,4.1679076 6.8096754,4.2760478 6.7457873,4.3423052 6.6818993,4.4085627 6.6180771,4.455635 6.6039612,4.4469109 6.5276186,4.3997285 5.7886506,5.9152809 6.2703532,5.1993465 6.3708014,5.0500543 6.5342884,4.8430179 6.6336562,4.7392656 L 6.8143267,4.5506255 6.6873041,4.7380657 C 6.6174408,4.8411582 6.5268049,4.963846 6.4858897,5.0107063 6.3822164,5.1294388 6.0610625,5.6629545 6.0610625,5.7164426 c 0,0.027456 0.044166,0.044025 0.117356,0.044025 0.094445,0 0.1376115,-0.024949 0.2211134,-0.1278004 0.3927341,-0.4677741 0.00387,-0.1242194 0.2553619,0.077031 0.092248,0.07036 0.1474924,0.086797 0.2635613,0.078414 0.1398735,-0.010104 0.1545639,-0.02194 0.3092078,-0.249166 0.089298,-0.1312082 0.2032142,-0.3114832 0.25315,-0.4006113 0.049934,-0.089129 0.096806,-0.1560357 0.1041582,-0.1486836 0.00735,0.00735 -0.025798,0.1097572 -0.073669,0.2275669 -0.047869,0.1178096 -0.087709,0.2537292 -0.088533,0.3020439 -7.735e-4,0.048314 -0.022021,0.1453544 -0.047103,0.2156445 C 7.3014811,5.9427776 7.3641111,5.8797786 7.4924248,5.617446 7.5580278,5.4833278 7.661548,5.3082009 7.7224656,5.2282751 7.7833826,5.1483491 7.833225,5.0680628 7.833225,5.0498601 c 0,-0.043437 0.2076568,-0.2177392 0.2312709,-0.1941237 0.010019,0.010029 -0.00444,0.045165 -0.032144,0.078081 C 7.9123994,5.0763291 7.6909861,5.4932905 7.6120962,5.7252388 7.4994973,6.0562917 7.504871,6.1398703 7.6214978,5.8714151 7.699405,5.6920791 7.7908398,5.5823608 8.2027462,5.173932 Z"
     id="path1-3"
     sodipodi:nodetypes="ssscsscssssssssssssssscssssssaaasssssaassssssssssssscssssssssssssssssssssssssssssssssscssssssssssssssssscccsssscccssssssscsssscssssssscscssssscsscssscssscscssssssscsssssssssssssssssssscssssssssssssscssscsssssssssssssssssssssssssssssssssssssssssssssssscsssssssscsssssscscssssssssssssssssss" /></svg>
