<?xml version="1.0" encoding="UTF-8" standalone="no"?>
<!-- Created with Inkscape (http://www.inkscape.org/) -->

<svg
   width="194mm"
   height="10mm"
   viewBox="0 0 194 10"
   version="1.1"
   id="svg1"
   inkscape:version="1.4.2 (2aeb623e1d, 2025-05-12)"
   sodipodi:docname="MnichRowSetList.svg"
   xml:space="preserve"
   xmlns:inkscape="http://www.inkscape.org/namespaces/inkscape"
   xmlns:sodipodi="http://sodipodi.sourceforge.net/DTD/sodipodi-0.dtd"
   xmlns="http://www.w3.org/2000/svg"
   xmlns:svg="http://www.w3.org/2000/svg"><sodipodi:namedview
     id="namedview1"
     pagecolor="#ffffff"
     bordercolor="#000000"
     borderopacity="0.25"
     inkscape:showpageshadow="2"
     inkscape:pageopacity="0.0"
     inkscape:pagecheckerboard="0"
     inkscape:deskcolor="#d1d1d1"
     inkscape:document-units="mm"
     inkscape:zoom="1.0063518"
     inkscape:cx="376.60786"
     inkscape:cy="118.74575"
     inkscape:window-width="1920"
     inkscape:window-height="940"
     inkscape:window-x="0"
     inkscape:window-y="0"
     inkscape:window-maximized="1"
     inkscape:current-layer="svg1"
     showgrid="true"><inkscape:grid
       id="grid1"
       units="mm"
       originx="0"
       originy="0"
       spacingx="0.99999995"
       spacingy="0.99999997"
       empcolor="#0099e5"
       empopacity="0.30196078"
       color="#0099e5"
       opacity="0.14901961"
       empspacing="5"
       enabled="true"
       visible="true" /></sodipodi:namedview><defs
     id="defs1" /><g
     id="g5"
     inkscape:label="Row"
     style="display:inline;stroke:none;stroke-width:1.00177;stroke-dasharray:none;stroke-opacity:1"
     transform="matrix(0.2647424,0,0,0.26432057,-6.0036072,-15.984109)"><rect
       style="display:inline;opacity:1;fill:#fa0000;fill-opacity:0.307692;stroke:none;stroke-width:0.989323;stroke-dasharray:none;stroke-opacity:1"
       id="rect4"
       width="596.80658"
       height="37.832848"
       x="158.65842"
       y="60.472439"
       inkscape:label="Popis" /><rect
       style="display:inline;fill:#fa0000;fill-opacity:0.307692;stroke:none;stroke-width:1.00177;stroke-dasharray:none;stroke-opacity:1"
       id="rect4-42"
       width="98.208679"
       height="37.832848"
       x="60.449734"
       y="60.472439"
       inkscape:label="Jmeno" /><rect
       style="display:inline;opacity:1;fill:#fa0000;fill-opacity:0.307692;stroke:none;stroke-width:1.00177;stroke-dasharray:none;stroke-opacity:1"
       id="rect5"
       width="37.772568"
       height="37.832848"
       x="22.677166"
       y="60.472439"
       inkscape:label="Logo" /></g><g
     inkscape:label="Layer 1"
     inkscape:groupmode="layer"
     id="layer1"
     transform="translate(-5.9999979,-28.039034)"
     style="display:inline"><text
       xml:space="preserve"
       style="font-size:3.80938px;font-family:'New Rocker';-inkscape-font-specification:'New Rocker';text-align:start;letter-spacing:0px;writing-mode:lr-tb;direction:ltr;text-anchor:start;fill:#000000;fill-opacity:1;stroke:none;stroke-width:0.0504741"
       x="18.035286"
       y="34.122803"
       id="text1"
       inkscape:label="Role"><tspan
         style="letter-spacing:0px;fill:#000000;fill-opacity:1;stroke:none;stroke-width:0.0504743"
         x="18.035286"
         y="34.122803"
         sodipodi:role="line"
         id="tspan8">Mnich</tspan></text><text
       xml:space="preserve"
       style="font-size:3px;font-family:'New Rocker';-inkscape-font-specification:'New Rocker';text-align:start;letter-spacing:0px;writing-mode:lr-tb;direction:ltr;text-anchor:start;fill:#000000;fill-opacity:1;stroke:none;stroke-width:0.040981"
       x="42.755661"
       y="33.891289"
       id="text2"
       inkscape:label="Popis"><tspan
         sodipodi:role="line"
         style="font-style:normal;font-variant:normal;font-weight:normal;font-stretch:normal;font-size:3px;font-family:'Didact Gothic';-inkscape-font-specification:'Didact Gothic';letter-spacing:0px;stroke-width:0.0409811"
         x="42.755661"
         y="33.891289"
         id="tspan9">Každou noc* vyber hráče (ne sebe), který tuto noc nemůže zemřit rukou Démona.</tspan></text><path
       style="fill:#000000;stroke-width:0.0330435"
       d="m 7.7271033,36.958149 c -0.053625,-0.05363 -0.1362815,-0.107236 -0.1836778,-0.119132 -0.055634,-0.01396 -0.1022941,-0.06021 -0.1316544,-0.130474 -0.025014,-0.05987 -0.068642,-0.12807 -0.096953,-0.151567 -0.028314,-0.02349 -0.051478,-0.07523 -0.051478,-0.114967 0,-0.03974 -0.021834,-0.101111 -0.048514,-0.136389 -0.062164,-0.08218 -0.063082,-0.183126 -0.00272,-0.301031 0.026331,-0.05146 0.056108,-0.120873 0.066162,-0.154272 0.010059,-0.0334 0.06286,-0.07755 0.1173417,-0.09811 0.056831,-0.02145 0.099055,-0.06147 0.099055,-0.09387 0,-0.0847 0.092218,-0.160333 0.1955,-0.160333 0.050408,0 0.1185629,-0.02974 0.1514577,-0.06609 0.061056,-0.06747 0.2604439,-0.09283 0.2946536,-0.03747 0.00972,0.01574 0.055209,0.02144 0.1010805,0.01267 0.045866,-0.0087 0.083398,-0.0061 0.083398,0.0058 0,0.01199 -0.062063,0.103995 -0.1379197,0.204464 -0.096928,0.12838 -0.1551739,0.178163 -0.1959705,0.167494 -0.033495,-0.0087 -0.08941,0.0182 -0.1321891,0.06374 -0.040779,0.0434 -0.090134,0.07909 -0.109683,0.0793 -0.019547,2.5e-4 -0.062006,0.05597 -0.094348,0.123913 -0.056622,0.118958 -0.056533,0.127969 0.00254,0.243243 0.070568,0.137676 0.1875018,0.293336 0.2203586,0.293336 0.012332,0 -0.00839,-0.03918 -0.046063,-0.08706 C 7.7213295,36.366395 7.7431619,36.28011 7.9579834,35.985578 8.0674276,35.835524 8.2198411,35.619823 8.29668,35.50624 c 0.1149429,-0.169906 0.1631379,-0.212966 0.2718828,-0.242914 0.1833618,-0.05049 0.1923114,-0.06003 0.1155662,-0.122964 -0.075881,-0.06224 -0.084235,-0.04687 0.3385123,-0.622426 0.095562,-0.130103 0.2589547,-0.353147 0.3630946,-0.495654 0.10414,-0.142506 0.2775228,-0.378058 0.3852961,-0.523449 0.1077725,-0.145393 0.264654,-0.361861 0.348626,-0.481042 l 0.152671,-0.216719 -0.149175,-0.292348 C 9.9668339,32.202405 9.9082359,32.002859 9.964049,31.966952 c 0.018094,-0.01164 0.040353,-0.139948 0.049464,-0.285129 0.01354,-0.215746 0.007,-0.270943 -0.035676,-0.302165 -0.047416,-0.03467 -0.046634,-0.05599 0.00846,-0.230774 0.056442,-0.179052 0.056835,-0.194956 0.00561,-0.226531 C 9.961598,30.903673 9.807383,30.798726 9.6492022,30.689134 9.3838518,30.50529 9.3608093,30.480382 9.3513599,30.367187 c -0.00886,-0.106188 0.015437,-0.156048 0.1806988,-0.370743 0.2530266,-0.32871 0.2994132,-0.330794 0.7406543,-0.03328 0.175194,0.118131 0.328272,0.214784 0.340174,0.214784 0.0119,0 0.106972,-0.05779 0.211266,-0.128433 0.104295,-0.07064 0.301149,-0.168897 0.437454,-0.218353 0.217978,-0.07909 0.295585,-0.08993 0.644349,-0.08995 0.218089,-1.7e-5 0.437398,0.01609 0.487357,0.03579 0.08366,0.03299 0.102565,0.02408 0.239482,-0.112837 0.08176,-0.08176 0.185862,-0.162797 0.231343,-0.180089 0.08713,-0.03312 0.106397,-0.08061 0.04749,-0.117015 -0.02304,-0.01424 -0.01556,-0.04344 0.02164,-0.08456 0.03126,-0.03454 0.04419,-0.06281 0.02874,-0.06281 -0.01546,0 0.02872,-0.05204 0.09816,-0.115652 0.1189,-0.108907 0.217088,-0.149039 0.217088,-0.08873 0,0.01481 0.05219,0.05181 0.115982,0.08223 0.129176,0.0616 0.412716,0.310358 0.412716,0.36209 0,0.01829 -0.126392,0.200701 -0.28087,0.405347 -0.154479,0.204646 -0.280871,0.380938 -0.280871,0.391758 0,0.01082 0.06815,0.12601 0.151466,0.255976 l 0.151466,0.236302 -0.06886,0.09313 c -0.08641,0.116882 -0.08694,0.140855 -0.002,0.09544 0.03672,-0.01966 0.08093,-0.02698 0.09823,-0.01629 0.109517,0.06768 0.128723,0.735411 0.0313,1.088271 -0.03477,0.125953 -0.05972,0.230491 -0.05542,0.232308 0.02232,0.0094 0.577061,0.386438 0.621162,0.422132 0.08413,0.0681 0.09941,0.15399 0.04887,0.274928 -0.03573,0.08552 -0.06754,0.113805 -0.127993,0.113805 -0.08088,0 -0.119712,0.06808 -0.120741,0.211665 -7.61e-4,0.103468 -0.15897,0.283989 -0.248919,0.283989 -0.04799,0 -0.226137,-0.107522 -0.446149,-0.269275 l -0.366257,-0.269271 -0.08913,0.06451 c -0.142316,0.103008 -0.368273,0.210998 -0.600603,0.287042 -0.268448,0.08787 -0.799686,0.09525 -1.011683,0.01406 l -0.135328,-0.05183 -0.195108,0.279415 c -0.357464,0.511925 -0.440676,0.621679 -0.58489,0.771445 -0.07875,0.08178 -0.180316,0.208174 -0.225701,0.280871 -0.04539,0.0727 -0.1360697,0.213956 -0.2015203,0.313914 -0.06545,0.09996 -0.1686177,0.263611 -0.2292606,0.363677 -0.060644,0.100066 -0.2292163,0.350363 -0.3746083,0.556218 -0.1453921,0.205854 -0.2866536,0.407398 -0.313914,0.447876 -0.1529564,0.227117 -0.380743,0.535512 -0.4110509,0.556513 -0.062309,0.04317 -0.2264653,0.02676 -0.2878349,-0.02878 -0.05531,-0.05006 -0.061277,-0.05006 -0.080486,0 -0.011408,0.02973 -0.036574,0.05406 -0.055912,0.05406 -0.019345,0 -0.058642,0.02055 -0.087334,0.04566 -0.1118861,0.09792 -0.1963443,0.09612 -0.2988443,-0.0064 z m 0.7098116,-0.235887 c -0.01125,-0.03544 7.601e-4,-0.106071 0.026629,-0.156957 0.1049615,-0.206263 0.091012,-0.253005 -0.025147,-0.08426 -0.1312675,0.190692 -0.1274163,0.188268 -0.220206,0.138609 -0.063019,-0.03373 -0.061372,-0.04212 0.050408,-0.256088 l 0.1155615,-0.22122 -0.1608932,0.179493 c -0.1559625,0.173991 -0.1592125,0.181765 -0.1060604,0.253623 0.052789,0.07136 0.2574282,0.208909 0.3131476,0.210475 0.014853,3.74e-4 0.017805,-0.02824 0.00655,-0.06368 z m 0.020212,-0.654263 c 0.041102,-0.05241 0.039931,-0.05357 -0.012478,-0.01248 -0.031804,0.02494 -0.057825,0.05096 -0.057825,0.05783 0,0.0272 0.027136,0.0097 0.070302,-0.04536 z m -1.079876,-0.242388 c -0.010642,-0.01722 -0.033426,-0.02259 -0.050642,-0.01196 -0.017216,0.01064 -0.022594,0.03343 -0.011953,0.05065 0.010642,0.01722 0.033425,0.02259 0.050642,0.01196 0.017216,-0.01064 0.022594,-0.03343 0.011953,-0.05064 z m 0.2660934,-0.228483 c 0.01123,-0.01817 -0.00279,-0.03304 -0.031095,-0.03304 -0.028333,0 -0.051516,0.01487 -0.051516,0.03304 0,0.01817 0.013992,0.03305 0.031095,0.03305 0.017102,0 0.040285,-0.01487 0.051516,-0.03305 z m 0.3139141,-0.165219 c 0,-0.01817 -0.014873,-0.03304 -0.033046,-0.03304 -0.018173,0 -0.033045,0.01487 -0.033045,0.03304 0,0.01817 0.014873,0.03305 0.033045,0.03305 0.018173,0 0.033046,-0.01488 0.033046,-0.03305 z m 2.3337856,-2.335573 c 0.90745,-1.186769 1.069703,-1.402362 1.069703,-1.421359 0,-0.02153 -0.103161,-0.102671 -0.414393,-0.32597 -0.135563,-0.09726 -0.246478,-0.164633 -0.246478,-0.149715 0,0.01492 0.126225,0.114641 0.280499,0.221605 0.154276,0.106962 0.280576,0.209347 0.280667,0.227521 3.25e-4,0.06405 -0.09877,0.2212 -0.336964,0.534356 -0.368383,0.484323 -0.713637,0.947023 -1.1361228,1.522608 -0.083375,0.113588 -0.1446009,0.206522 -0.1360592,0.206522 0.00855,0 0.2961589,-0.367005 0.639148,-0.815568 z m 1.257876,0.131567 c -0.08561,-0.02219 -0.04782,-0.09345 0.04648,-0.08762 0.107147,0.0066 0.710315,-0.0782 0.862856,-0.121336 0.0675,-0.01909 0.130607,-0.04746 0.140246,-0.06306 0.03769,-0.06097 -0.08495,-0.0607 -0.317269,6.97e-4 -0.133699,0.03534 -0.369481,0.07341 -0.523959,0.0846 -0.260468,0.01886 -0.396524,0.06912 -0.396524,0.146459 0,0.0294 0.08584,0.05572 0.18174,0.05572 0.05692,0 0.05781,-0.0021 0.0064,-0.01546 z m 1.842357,-0.270775 c -0.01727,-0.01625 -0.29161,-0.204582 -0.609655,-0.418504 -0.318044,-0.213922 -0.618971,-0.418892 -0.668726,-0.45549 -0.04975,-0.0366 -0.10056,-0.05644 -0.112899,-0.0441 -0.02815,0.02815 -0.05332,0.0088 0.334395,0.257381 0.181113,0.116128 0.493375,0.318817 0.693916,0.450419 0.343697,0.225545 0.4359,0.278967 0.362969,0.210302 z m 0.612958,-0.240975 c 0,-0.06632 -0.102298,-0.01746 -0.147848,0.07063 -0.07453,0.14412 -0.062,0.157284 0.04871,0.05121 0.05453,-0.05223 0.09913,-0.10706 0.09913,-0.121834 z m -1.809137,0.0057 c 0.1045,-0.04114 0.190001,-0.0855 0.190001,-0.09857 0,-0.01308 -0.0855,-0.0798 -0.190001,-0.148275 -0.104501,-0.06848 -0.22424,-0.155689 -0.266089,-0.193814 -0.04654,-0.0424 -0.08503,-0.0564 -0.09913,-0.03606 -0.273603,0.39482 -0.362634,0.539751 -0.3436,0.559341 0.04579,0.04713 0.519479,-0.0081 0.70882,-0.08261 z m -1.16122,-0.983699 c 0.03511,-0.09234 0.02999,-0.09768 -0.27833,-0.290314 -0.105684,-0.06603 -0.202335,-0.109855 -0.214782,-0.09739 -0.01244,0.01246 -0.02175,0.144086 -0.02067,0.292486 0.0015,0.20672 0.01979,0.310278 0.07822,0.442842 l 0.07626,0.173026 0.164177,-0.219631 c 0.0903,-0.120797 0.178103,-0.256257 0.195122,-0.301021 z m -0.616083,0.308241 c -0.02659,-0.08836 -0.04963,-0.258672 -0.0512,-0.378458 -0.0024,-0.187591 -0.0072,-0.204047 -0.03434,-0.118662 -0.04113,0.12945 -0.01586,0.39655 0.05268,0.557053 0.07356,0.172233 0.09238,0.137891 0.03284,-0.05994 z m 2.912567,-0.0655 c -0.0873,-0.07139 -0.09368,-0.09067 -0.07337,-0.221856 0.05453,-0.352215 0.100205,-0.490632 0.161922,-0.490632 0.03329,0 0.05133,-0.01487 0.04011,-0.03304 -0.01123,-0.01817 -0.05672,-0.03305 -0.101082,-0.03305 -0.07347,0 -0.08066,0.01315 -0.08066,0.147473 0,0.08111 -0.02974,0.222921 -0.06609,0.315138 -0.08637,0.21912 -0.08431,0.234924 0.04173,0.320121 0.143199,0.09679 0.197331,0.09388 0.07743,-0.0042 z m -0.305807,-0.192578 c 0.04359,-0.173699 0.0022,-0.634029 -0.07107,-0.790516 -0.03991,-0.08522 -0.08558,-0.162995 -0.101479,-0.172825 -0.04043,-0.02499 -0.471419,0.543921 -0.459713,0.60683 0.0053,0.02826 0.08386,0.08994 0.174661,0.137062 0.0908,0.04712 0.214998,0.132623 0.275986,0.190001 0.131996,0.124182 0.156825,0.128209 0.181611,0.02945 z m -0.566826,-0.672346 c 0.114532,-0.156536 0.32039,-0.435341 0.45746,-0.619568 0.137071,-0.184227 0.260821,-0.357262 0.275,-0.384523 0.04074,-0.07832 -0.128151,0.12218 -0.37575,0.446089 -0.125031,0.163566 -0.304051,0.397762 -0.397821,0.520436 -0.09377,0.122675 -0.184809,0.223045 -0.202308,0.223045 -0.0175,0 -0.06429,-0.01689 -0.103993,-0.03753 -0.06836,-0.03555 -0.06794,-0.03292 0.0079,0.04957 0.04406,0.0479 0.09161,0.08709 0.105673,0.08709 0.01407,0 0.119274,-0.128074 0.233806,-0.28461 z m -0.664974,-0.401045 c 0.07845,-0.104501 0.179553,-0.230738 0.224655,-0.280526 0.0451,-0.04979 0.07293,-0.0996 0.06182,-0.110696 -0.03486,-0.03486 -0.399448,-0.02194 -0.553807,0.01962 -0.169716,0.0457 -0.396376,0.15498 -0.395177,0.190528 6.4e-4,0.01878 0.488463,0.371068 0.513831,0.371068 0.0033,0 0.07021,-0.0855 0.148669,-0.19 z m -1.125923,0.07736 c 0,-0.0074 -0.100369,-0.09201 -0.223043,-0.187966 -0.4643905,-0.363237 -0.6017777,-0.499157 -0.5681178,-0.562051 0.01714,-0.03202 0.031158,-0.07506 0.031158,-0.09565 0,-0.0362 -0.3622173,0.39431 -0.3630617,0.431509 -5.245e-4,0.02293 0.2901076,0.229438 0.322723,0.229315 0.013099,-3.3e-5 -0.039246,-0.05581 -0.116318,-0.123913 l -0.1401341,-0.123825 0.082381,-0.0928 0.082381,-0.0928 0.2394926,0.169755 c 0.131721,0.09337 0.328711,0.234983 0.437755,0.314706 0.205805,0.150466 0.214783,0.156055 0.214783,0.133716 z m 0.347519,-0.481529 c -0.07847,-0.08672 -0.0305,-0.144242 0.166232,-0.199322 0.08196,-0.02295 0.142118,-0.04862 0.133688,-0.05705 -0.01947,-0.01947 -0.352852,0.08842 -0.407873,0.131997 -0.06281,0.04976 -0.04957,0.109672 0.03304,0.149515 0.114532,0.05524 0.139933,0.04672 0.07491,-0.02514 z m 1.106399,-0.28149 c 0,-0.04052 -0.05579,-0.04948 -0.305653,-0.04911 -0.45804,6.96e-4 -0.540317,0.04545 -0.123914,0.06743 0.190827,0.01007 0.365545,0.02122 0.388262,0.02478 0.02272,0.0036 0.04131,-0.01584 0.04131,-0.0431 z m 1.410454,-0.640425 c -0.26893,-0.285529 -0.249604,-0.272005 -0.287503,-0.20119 -0.02696,0.05036 -0.02421,0.05983 0.01316,0.0455 0.06974,-0.02676 0.247655,0.153037 0.264626,0.267425 0.0081,0.05453 0.01593,0.105691 0.01742,0.113707 0.0015,0.008 0.02405,-0.01429 0.05012,-0.04957 0.04295,-0.05811 0.03751,-0.07465 -0.05783,-0.17587 z m -3.079154,7.621451 c -0.03635,-0.02131 -0.108152,-0.03449 -0.159563,-0.02928 -0.05406,0.0055 -0.120337,-0.01484 -0.157185,-0.04819 -0.03504,-0.03171 -0.0956,-0.07384 -0.134585,-0.09363 C 9.961734,36.819403 9.918715,36.780913 9.905118,36.753653 9.891519,36.726393 9.84545,36.631496 9.8027441,36.542772 9.679917,36.287613 9.4892525,36.073423 9.3368637,36.019407 c -0.088218,-0.03127 -0.089332,-0.03473 -0.038658,-0.119847 0.028701,-0.04821 0.087393,-0.13154 0.1304345,-0.185184 0.07269,-0.0906 0.082493,-0.09378 0.1377897,-0.04472 0.032742,0.02905 0.089271,0.05807 0.1256186,0.06449 0.036346,0.0064 0.088392,0.0598 0.1156529,0.118619 0.027262,0.05882 0.074827,0.115341 0.1057014,0.125604 0.030875,0.01026 0.065359,0.04772 0.076631,0.08324 0.011272,0.03552 0.054454,0.105386 0.095959,0.155267 0.04151,0.04988 0.100136,0.14326 0.13029,0.20751 0.05647,0.120323 0.212999,0.210098 0.304858,0.17485 0.02626,-0.01008 0.09292,3.75e-4 0.148125,0.02325 0.07536,0.03121 0.1098,0.03216 0.138189,0.0037 0.05343,-0.05343 0.16213,-0.04691 0.250573,0.01504 0.06916,0.04845 0.08033,0.04845 0.133867,0 0.03212,-0.02907 0.08738,-0.05285 0.122799,-0.05285 0.03542,0 0.09835,0.02379 0.139856,0.05285 0.06964,0.04878 0.08041,0.04838 0.139663,-0.0053 0.05725,-0.05181 0.0786,-0.05334 0.197231,-0.0142 0.101571,0.03352 0.142174,0.03476 0.171691,0.0053 0.05421,-0.05421 0.162483,-0.0481 0.251419,0.0142 0.06954,0.0487 0.0804,0.04839 0.138205,-0.0039 0.04621,-0.04182 0.09288,-0.05113 0.17714,-0.03532 0.06672,0.01252 0.123169,0.0073 0.135446,-0.0126 0.02858,-0.04626 0.226065,-0.04323 0.273488,0.0042 0.02898,0.02897 0.04961,0.02883 0.08508,-6.24e-4 0.02575,-0.02137 0.111888,-0.03762 0.191402,-0.03609 0.07952,0.0015 0.200537,-0.0073 0.26894,-0.01958 0.0736,-0.01323 0.141743,-0.0079 0.166938,0.01298 0.02341,0.01943 0.07522,0.02679 0.115138,0.01635 0.04191,-0.01097 0.10867,0.0047 0.158032,0.03702 0.07796,0.05108 0.09053,0.05142 0.143096,0.0038 0.0317,-0.02868 0.0862,-0.05225 0.121119,-0.05236 0.0358,-1.24e-4 0.08803,-0.04334 0.119775,-0.09913 0.04287,-0.07534 0.0799,-0.09892 0.155316,-0.09892 0.05834,0 0.114065,-0.02376 0.135628,-0.05782 0.02621,-0.04141 0.04153,-0.0461 0.05397,-0.01652 0.02489,0.05923 0.08882,0.05122 0.06599,-0.0083 -0.02903,-0.07565 0.130585,-0.0631 0.21021,0.01652 0.03636,0.03635 0.06609,0.09784 0.06609,0.136647 0,0.03881 0.03718,0.10501 0.08261,0.147118 0.108965,0.100985 0.106314,0.22149 -0.0069,0.310489 -0.1448,0.113901 -0.341364,0.03323 -0.351644,-0.144318 -0.0061,-0.10363 -0.0047,-0.10332 -0.08762,-0.02037 -0.03635,0.03635 -0.08935,0.06609 -0.117787,0.06609 -0.02843,0 -0.08923,0.04461 -0.135112,0.09913 -0.08796,0.104537 -0.195906,0.126529 -0.313127,0.06379 -0.04796,-0.02567 -0.07888,-0.02468 -0.113025,0.0037 -0.02841,0.02357 -0.09621,0.03129 -0.171367,0.0195 -0.259403,-0.04067 -0.470567,-0.04885 -0.489068,-0.0189 -0.02714,0.04392 -0.225792,0.03866 -0.271641,-0.0072 -0.02898,-0.02898 -0.0505,-0.02809 -0.08876,0.0037 -0.02972,0.02466 -0.101716,0.03577 -0.17488,0.02697 -0.07777,-0.0093 -0.153224,0.0037 -0.201385,0.03492 -0.06933,0.04489 -0.08655,0.04424 -0.172558,-0.0066 -0.0892,-0.05269 -0.102559,-0.05281 -0.201259,-0.0018 -0.09846,0.05091 -0.112128,0.05089 -0.199186,-4.99e-4 -0.08497,-0.05019 -0.100147,-0.05054 -0.166906,-0.0038 -0.09825,0.06882 -0.168567,0.0648 -0.239608,-0.0137 -0.05866,-0.06482 -0.05935,-0.06482 -0.141752,0 -0.106458,0.08374 -0.167138,0.08218 -0.261764,-0.0067 -0.04206,-0.03951 -0.07648,-0.05619 -0.07648,-0.03706 0,0.01914 -0.04452,0.05324 -0.09894,0.07578 -0.08211,0.03401 -0.11186,0.03251 -0.174912,-0.0088 -0.06517,-0.04269 -0.0849,-0.04326 -0.138685,-0.0039 -0.07569,0.05534 -0.143561,0.05684 -0.231816,0.0051 z m 3.948709,-0.554027 c 0,-0.01817 -0.01488,-0.03305 -0.03304,-0.03305 -0.01817,0 -0.03304,0.01487 -0.03304,0.03305 0,0.01817 0.01487,0.03305 0.03304,0.03305 0.01817,0 0.03304,-0.01487 0.03304,-0.03305 z"
       id="path1"
       sodipodi:nodetypes="sssssssssssssssssscsssssssssssscssssssssssssssssssssssssssscssssssssssscssscsssssssssssssscssscsssssssssssssssssssssssssssscssssssssssssssssssssssssssssssssssssscssssssssssssssssssssssssssssssssssssssssssssccscccssssssssssssssssssssssssssssssssssssssssssssssssssssssssssscssssssssssssssssssssssssssssssssssssss" /></g></svg>
