<?xml version="1.0" encoding="UTF-8" standalone="no"?>
<!-- Created with Inkscape (http://www.inkscape.org/) -->

<svg
   width="194mm"
   height="10mm"
   viewBox="0 0 194 10"
   version="1.1"
   id="svg1"
   inkscape:version="1.4.2 (2aeb623e1d, 2025-05-12)"
   sodipodi:docname="PannaRowSetList.svg"
   xml:space="preserve"
   xmlns:inkscape="http://www.inkscape.org/namespaces/inkscape"
   xmlns:sodipodi="http://sodipodi.sourceforge.net/DTD/sodipodi-0.dtd"
   xmlns="http://www.w3.org/2000/svg"
   xmlns:svg="http://www.w3.org/2000/svg"><sodipodi:namedview
     id="namedview1"
     pagecolor="#ffffff"
     bordercolor="#000000"
     borderopacity="0.25"
     inkscape:showpageshadow="2"
     inkscape:pageopacity="0.0"
     inkscape:pagecheckerboard="0"
     inkscape:deskcolor="#d1d1d1"
     inkscape:document-units="mm"
     inkscape:zoom="9.6926227"
     inkscape:cx="720.34167"
     inkscape:cy="26.876111"
     inkscape:window-width="1920"
     inkscape:window-height="940"
     inkscape:window-x="0"
     inkscape:window-y="0"
     inkscape:window-maximized="1"
     inkscape:current-layer="svg1"
     showgrid="true"><inkscape:grid
       id="grid1"
       units="mm"
       originx="0"
       originy="0"
       spacingx="0.99999995"
       spacingy="0.99999997"
       empcolor="#0099e5"
       empopacity="0.30196078"
       color="#0099e5"
       opacity="0.14901961"
       empspacing="5"
       enabled="true"
       visible="true" /></sodipodi:namedview><defs
     id="defs1" /><g
     id="g5"
     inkscape:label="Row"
     style="display:inline;stroke:none;stroke-width:1.00177;stroke-dasharray:none;stroke-opacity:1"
     transform="matrix(0.2647424,0,0,0.26432057,-6.0036072,-15.984109)"><rect
       style="display:inline;opacity:1;fill:#fa0000;fill-opacity:0.307692;stroke:none;stroke-width:0.989325;stroke-dasharray:none;stroke-opacity:1"
       id="rect4"
       width="596.80658"
       height="37.832848"
       x="158.65842"
       y="60.472439"
       inkscape:label="Popis" /><rect
       style="display:inline;fill:#fa0000;fill-opacity:0.307692;stroke:none;stroke-width:1.00177;stroke-dasharray:none;stroke-opacity:1"
       id="rect4-42"
       width="98.208679"
       height="37.832848"
       x="60.449734"
       y="60.472439"
       inkscape:label="Jmeno" /><rect
       style="display:inline;opacity:1;fill:#fa0000;fill-opacity:0.307692;stroke:none;stroke-width:1.00177;stroke-dasharray:none;stroke-opacity:1"
       id="rect5"
       width="37.772568"
       height="37.832848"
       x="22.677166"
       y="60.472439"
       inkscape:label="Logo" /></g><g
     inkscape:label="Layer 1"
     inkscape:groupmode="layer"
     id="layer1"
     transform="translate(-5.9999979,-28.039034)"
     style="display:inline"><text
       xml:space="preserve"
       style="font-size:3.80938px;font-family:'New Rocker';-inkscape-font-specification:'New Rocker';text-align:start;letter-spacing:0px;writing-mode:lr-tb;direction:ltr;text-anchor:start;fill:#000000;fill-opacity:1;stroke:none;stroke-width:0.0504741"
       x="18.035286"
       y="34.122803"
       id="text1"
       inkscape:label="Role"><tspan
         style="letter-spacing:0px;fill:#000000;fill-opacity:1;stroke:none;stroke-width:0.0504743"
         x="18.035286"
         y="34.122803"
         sodipodi:role="line"
         id="tspan8">Panna</tspan></text><text
       xml:space="preserve"
       style="font-size:3px;font-family:'New Rocker';-inkscape-font-specification:'New Rocker';text-align:start;letter-spacing:0px;writing-mode:lr-tb;direction:ltr;text-anchor:start;fill:#000000;fill-opacity:1;stroke:none;stroke-width:0.040981"
       x="42.755661"
       y="33.891289"
       id="text2"
       inkscape:label="Popis"><tspan
         sodipodi:role="line"
         style="font-style:normal;font-variant:normal;font-weight:normal;font-stretch:normal;font-size:3px;font-family:'Didact Gothic';-inkscape-font-specification:'Didact Gothic';letter-spacing:0px;stroke-width:0.0409811"
         x="42.755661"
         y="33.891289"
         id="tspan10">Pokud jsi poprvé nominován a ten kdo tě nominoval je Měšťan, pak je on sám okamžitě popraven.</tspan></text><path
       style="fill:#000000;stroke-width:0.0301461"
       d="m 12.939985,36.557341 c 0,-0.01658 -0.06127,-0.03015 -0.136169,-0.03015 -0.266507,0 -0.890245,-0.153326 -1.386215,-0.340754 -0.601389,-0.227268 -1.4549809,-0.74854 -1.7199842,-1.050363 l -0.089104,-0.101481 -0.1204292,0.06667 c -0.7638883,0.422884 -1.3588087,0.557823 -1.7192649,0.389972 -0.19119,-0.08903 -0.6326581,-0.527418 -0.8257792,-0.820019 -0.1401007,-0.212268 -0.239425,-0.50412 -0.2034601,-0.597844 0.010224,-0.02664 0.071189,-0.05572 0.1398614,-0.06669 0.066957,-0.01071 0.1217388,-0.02864 0.1217388,-0.03984 0,-0.01121 -0.046607,-0.06556 -0.1035694,-0.120761 -0.1209698,-0.117251 -0.121405,-0.158731 -0.00505,-0.481293 0.1254736,-0.347841 0.4199105,-0.879635 0.6191906,-1.118341 0.062288,-0.07461 0.1353303,-0.178395 0.1623153,-0.230627 0.064031,-0.123943 0.3303704,-0.416513 0.8130423,-0.893117 0.5719935,-0.564804 1.1617105,-1.002283 1.7246436,-1.279424 0.149225,-0.07347 0.291668,-0.144134 0.316542,-0.157042 0.141375,-0.07337 0.640495,-0.193305 0.813943,-0.195588 0.346573,-0.0046 0.520288,0.08791 0.92637,0.493155 0.190146,0.189754 0.358653,0.372892 0.374459,0.406975 0.0158,0.03408 0.05177,0.102665 0.07993,0.152406 0.07611,0.134473 0.06514,0.677635 -0.01842,0.912399 -0.03384,0.09508 -0.06921,0.20678 -0.07859,0.248232 -0.02987,0.131943 -0.05332,0.14735 -0.183516,0.120552 -0.270029,-0.05559 -0.705849,-0.149709 -0.90427,-0.195303 -0.116063,-0.02668 -0.235539,-0.04217 -0.265501,-0.03446 -0.02996,0.0077 -0.05005,0.005 -0.04464,-0.0062 0.0054,-0.01113 0.09436,-0.192202 0.197672,-0.402379 0.103311,-0.210178 0.187838,-0.389586 0.187838,-0.398684 0,-0.02607 -0.17923,0.01284 -0.376828,0.08181 -0.260555,0.09095 -0.619169,0.309977 -1.079803,0.659501 -0.5215198,0.395724 -1.4111046,1.349046 -1.7178608,1.840943 -0.1493484,0.239487 -0.487117,0.922932 -0.4663765,0.943672 0.02235,0.02236 0.6855442,-0.26815 0.8523428,-0.373358 0.066321,-0.04183 0.2223282,-0.129941 0.3466814,-0.195798 0.1243529,-0.06586 0.2667945,-0.149787 0.3165357,-0.186512 0.115405,-0.08521 0.4088982,-0.221747 0.5277114,-0.24551 0.05034,-0.01007 0.100266,-0.03243 0.110931,-0.04968 0.0125,-0.02022 -0.0011,-0.02328 -0.03831,-0.0086 -0.03174,0.01253 -0.1051812,0.03003 -0.1632129,0.03892 -0.058027,0.0089 -0.2106469,0.06888 -0.3391447,0.133331 -0.2362413,0.118484 -0.3110714,0.115653 -0.1411522,-0.0053 0.2987718,-0.212745 1.1601708,-0.456527 1.6333648,-0.462256 0.161645,-0.002 0.29391,-0.01347 0.293924,-0.02559 1.26e-4,-0.08995 -0.735882,-0.0589 -1.14553,0.04832 -0.4973737,0.130192 -0.6961606,0.218058 -0.8817768,0.389756 -0.074606,0.06901 -0.1130477,0.131117 -0.1130477,0.182634 0,0.05676 -0.025434,0.09121 -0.09324,0.126279 -0.051282,0.02652 -0.098577,0.04288 -0.1050994,0.03636 -0.011923,-0.01191 0.053874,-0.368595 0.104291,-0.565364 0.036874,-0.143909 0.1439561,-0.376326 0.2569558,-0.557705 0.051654,-0.08291 0.1141268,-0.190157 0.1388406,-0.238345 0.0549,-0.107057 0.3054209,-0.327432 0.4642872,-0.408426 0.3391883,-0.172928 1.1074183,-0.310451 1.3483083,-0.241364 0.05555,0.01594 0.155669,0.02897 0.222481,0.02897 0.210801,0 1.087102,0.242422 1.552038,0.429359 0.124354,0.05 0.273578,0.108157 0.331609,0.12924 0.129486,0.04704 0.142579,0.108602 0.06271,0.294909 -0.07393,0.172472 -0.03495,0.189457 0.04548,0.01982 0.04644,-0.09795 0.0693,-0.117856 0.117899,-0.102694 0.03316,0.01034 0.100989,0.02614 0.150731,0.0351 0.04974,0.009 0.126446,0.0416 0.170457,0.07254 0.04401,0.03094 0.08868,0.05626 0.09926,0.05626 0.0396,0 0.337661,0.239599 0.455432,0.366112 0.145986,0.156824 0.369315,0.427791 0.45606,0.553348 0.08971,0.129841 0.219866,0.469863 0.248006,0.647883 0.02999,0.189679 -0.01574,0.619934 -0.09117,0.857744 -0.03126,0.09856 -0.05684,0.202612 -0.05684,0.231234 0,0.08527 -0.200343,0.452289 -0.338573,0.620248 -0.272712,0.331365 -0.817881,0.582148 -1.265511,0.582148 -0.09626,0 -0.174543,0.01352 -0.174543,0.03015 0,0.017 -0.08542,0.03015 -0.19595,0.03015 -0.110538,0 -0.195952,-0.01314 -0.195952,-0.03015 z m 0.532047,-0.542632 c 0.0211,-0.07462 0.07281,-0.235786 0.114913,-0.358165 0.04211,-0.122378 0.07655,-0.241079 0.07655,-0.263779 0,-0.03254 -0.07318,-0.04127 -0.345567,-0.04127 -0.277125,0 -0.376572,-0.01222 -0.502124,-0.0617 -0.0861,-0.03394 -0.172859,-0.05546 -0.192779,-0.04781 -0.01992,0.0076 -0.04667,0.05915 -0.05942,0.114464 -0.03311,0.143499 -0.03465,0.148222 -0.09235,0.281446 -0.02872,0.06632 -0.05817,0.169757 -0.06544,0.229855 -0.01217,0.100653 -0.0055,0.111948 0.0841,0.143196 0.05352,0.01865 0.15581,0.03392 0.227309,0.03392 0.126687,0 0.130845,-0.0031 0.163286,-0.123629 0.01831,-0.068 0.03895,-0.117969 0.04587,-0.111052 0.0069,0.0069 -7.91e-4,0.05906 -0.01706,0.115893 -0.01629,0.05683 -0.02963,0.119232 -0.02963,0.138686 0,0.05846 0.153909,0.09755 0.359889,0.09141 l 0.194086,-0.0058 z m -0.512996,-0.316535 c 0.04554,-0.19723 0.06099,-0.237702 0.09506,-0.24906 0.02375,-0.0079 0.02078,0.01631 -0.009,0.07341 -0.02445,0.04687 -0.04474,0.105569 -0.0451,0.130438 -3.53e-4,0.02487 -0.01441,0.06556 -0.03125,0.09044 -0.02227,0.0329 -0.02492,0.0206 -0.0097,-0.04522 z m 1.693484,0.228492 c 0.03826,-0.04277 0.111065,-0.158516 0.161787,-0.257215 0.08483,-0.165078 0.09107,-0.197676 0.07783,-0.406974 -0.01845,-0.291502 -0.09551,-0.490576 -0.18496,-0.477812 -0.04899,0.007 -0.0616,0.02673 -0.05396,0.08449 0.06377,0.482896 -0.02987,0.981722 -0.223514,1.190665 -0.04005,0.04322 -0.07283,0.08535 -0.07283,0.09364 0,0.02571 0.222361,-0.144852 0.295661,-0.226788 z m -2.412329,-0.04007 c 0.197741,-0.514197 0.255912,-0.687564 0.237038,-0.706439 -0.02261,-0.02261 -0.716754,-0.257078 -0.727167,-0.245622 -0.03632,0.03996 -0.407826,0.81759 -0.407826,0.853656 0,0.02511 0.02374,0.04611 0.05275,0.04667 0.02902,5.62e-4 0.20198,0.04657 0.384365,0.102239 0.182384,0.05567 0.34699,0.102693 0.36579,0.104493 0.0188,0.0017 0.06157,-0.06795 0.09505,-0.154995 z m -1.760136,-0.470059 c -0.307066,-0.223792 -0.474822,-0.507148 -0.35142,-0.593581 0.03217,-0.02253 0.12992,-0.09935 0.217233,-0.170724 0.08732,-0.07137 0.217605,-0.172321 0.289538,-0.224342 0.07194,-0.05202 0.122479,-0.102893 0.112322,-0.113049 -0.01015,-0.01015 -4.81e-4,-0.01847 0.0215,-0.01847 0.07245,0 0.361008,0.238776 0.343546,0.284281 -0.0093,0.02434 0.01056,0.05712 0.04624,0.07622 0.03444,0.01843 0.06263,0.0534 0.06263,0.07768 0,0.04842 0.02052,0.0526 0.286389,0.05838 0.12728,0.0028 0.243408,0.03071 0.391902,0.09431 0.460494,0.197234 1.001518,0.316531 1.523146,0.335853 0.354388,0.01312 0.442983,0.0062 0.677115,-0.05238 0.148159,-0.03712 0.29795,-0.0805 0.332869,-0.09641 l 0.06349,-0.02893 -0.06794,-0.140868 c -0.144553,-0.299697 -0.634179,-0.793624 -1.036443,-1.04554 -0.444049,-0.278084 -1.225903,-0.611782 -1.557719,-0.664842 l -0.118292,-0.01892 -0.337823,0.361139 c -0.381748,0.408094 -0.932287,0.910601 -1.185619,1.082177 -0.214402,0.145211 -0.3578005,0.268199 -0.3578005,0.306873 0,0.05143 0.6679085,0.576829 0.7332915,0.576829 0.01618,0 -0.02349,-0.03856 -0.08816,-0.08568 z m -2.1072219,-0.03462 0.180877,-0.05913 -0.266473,0.0034 c -0.2504664,0.0032 -0.2712848,-0.0014 -0.346587,-0.07668 -0.072953,-0.07296 -0.081469,-0.106334 -0.095281,-0.373449 -0.014146,-0.273546 -0.018093,-0.28825 -0.058537,-0.21797 -0.058947,0.102434 -0.077752,0.571132 -0.025511,0.635809 0.063371,0.07846 0.2123786,0.145527 0.3251246,0.146342 0.058032,4.42e-4 0.1869066,-0.02585 0.2863895,-0.05836 z m 0.351129,-0.465502 c 0.1480318,-0.04492 0.3120942,-0.121333 0.3874531,-0.180442 0.024872,-0.01951 0.1266143,-0.06745 0.2260969,-0.106551 0.242907,-0.09546 0.4371199,-0.20958 0.4371199,-0.256857 0,-0.114837 -0.3214985,-0.196778 -0.7720685,-0.196778 -0.2874051,0 -0.3589994,0.0101 -0.4835425,0.06829 -0.2248752,0.10505 -0.2266445,0.10677 -0.1873978,0.182247 0.034296,0.06596 0.034269,0.06595 -0.04024,-0.0025 l -0.074559,-0.06848 -0.087799,0.06656 c -0.04829,0.03661 -0.092387,0.06975 -0.097993,0.07365 -0.017524,0.0122 0.143609,0.271771 0.2008761,0.323597 0.051285,0.04641 0.2556364,0.13403 0.3218038,0.137976 0.01658,0.0011 0.093194,-0.01733 0.170252,-0.04072 z m 6.0570839,-0.676636 c 0.05128,-0.122318 0.09771,-0.245612 0.103174,-0.273985 0.0055,-0.02837 0.02713,-0.108993 0.04815,-0.179152 0.0363,-0.121147 0.03432,-0.131624 -0.03928,-0.208353 -0.04262,-0.04443 -0.18334,-0.19299 -0.312701,-0.330122 -0.188068,-0.199362 -0.242581,-0.241654 -0.272016,-0.211024 -0.02025,0.02107 -0.117543,0.186925 -0.216214,0.368567 -0.09867,0.181642 -0.19308,0.33482 -0.2098,0.340392 -0.01672,0.0055 -0.06942,-0.02179 -0.117096,-0.06079 -0.131291,-0.107406 -0.373087,-0.239719 -0.373087,-0.204156 0,0.01728 0.01239,0.03142 0.02754,0.03142 0.06144,0 0.543288,0.386682 0.757403,0.607813 0.125831,0.129954 0.237046,0.236282 0.247143,0.236282 0.0101,0 0.03495,-0.05087 0.05521,-0.113049 0.02027,-0.06217 0.06931,-0.151992 0.108966,-0.19959 0.03966,-0.0476 0.09127,-0.132384 0.114679,-0.188414 0.02341,-0.05603 0.05021,-0.101872 0.05959,-0.101872 0.0094,0 -0.0047,0.05088 -0.03115,0.113049 -0.02649,0.06217 -0.08568,0.217888 -0.131509,0.346027 l -0.08334,0.23298 0.06328,0.04229 c 0.07584,0.05069 0.07559,0.05099 0.201074,-0.248311 z M 7.9426044,33.80636 c 0.1897946,-0.37109 0.4361704,-0.745982 0.4902528,-0.745982 0.024,0 0.093266,-0.078 0.1539253,-0.17334 0.165584,-0.260243 0.3929974,-0.542246 0.6136102,-0.760904 L 9.3978042,31.930471 9.27722,31.912883 C 9.1418125,31.893143 9.0102551,31.816481 8.7461353,31.603418 L 8.565645,31.457819 8.6679796,31.347176 c 0.1998337,-0.216058 0.4597622,-0.503811 0.5339627,-0.591121 l 0.075278,-0.08858 -0.079822,0.05843 c -0.8950108,0.655159 -1.6486318,1.523615 -1.9984409,2.302957 -0.092197,0.205407 -0.167631,0.404128 -0.167631,0.4416 0,0.0929 0.2511996,0.327002 0.5217697,0.486258 0.1192471,0.07019 0.2235958,0.127782 0.2318863,0.127985 0.00829,2.27e-4 0.07922,-0.125056 0.1576228,-0.278348 z m 3.3644286,-0.428317 c 0.161414,-0.152609 0.181838,-0.183014 0.135271,-0.201368 -0.103306,-0.04071 -0.597379,-0.02361 -0.868796,0.03008 l -0.271318,0.05368 0.11673,0.0507 c 0.0642,0.0279 0.137505,0.0507 0.162896,0.0507 0.06584,0 0.351662,0.139315 0.396389,0.193209 0.02091,0.02519 0.02706,0.0624 0.01385,0.08377 -0.03326,0.05382 0.09137,-0.04937 0.314978,-0.260774 z M 9.3596345,33.179007 c 0.1424241,-0.149236 0.6065032,-0.389944 0.7518025,-0.389944 0.03291,0 0.05509,-0.0218 0.05509,-0.05415 0,-0.07124 0.237174,-0.454122 0.371524,-0.599768 0.153253,-0.166137 0.239476,-0.280676 0.210979,-0.280265 -0.01364,2.17e-4 -0.09941,0.02039 -0.190602,0.04486 -0.09119,0.02448 -0.220067,0.04528 -0.286388,0.04622 -0.233899,0.0034 -0.3181248,0.07869 -0.7494508,0.670552 -0.2171478,0.297967 -0.3487477,0.530649 -0.3502247,0.619229 -8.842e-4,0.0526 0.1169947,0.01688 0.1872655,-0.05674 z m 2.8676385,-1.618403 c 0.02763,-0.167199 0.02328,-0.415327 -0.0088,-0.499638 -0.05111,-0.134437 -0.212796,-0.291701 -0.299897,-0.291701 -0.11755,0 -0.204004,0.07371 -0.222877,0.190008 -0.0091,0.05607 -0.06523,0.178046 -0.124723,0.271058 -0.05949,0.09301 -0.108178,0.181469 -0.108178,0.196577 0,0.0151 0.08664,0.03442 0.192525,0.04292 0.137822,0.01107 0.238467,0.04126 0.354218,0.106286 0.08893,0.04996 0.170092,0.09234 0.180359,0.09418 0.01027,0.0018 0.02707,-0.04752 0.03735,-0.109696 z m 0.443042,-0.256243 c 8.58e-4,-0.02072 0.0061,-0.09873 0.01158,-0.17334 0.0055,-0.07462 -0.001,-0.228572 -0.01427,-0.342134 -0.03169,-0.270348 -0.101228,-0.35123 -0.301977,-0.35123 -0.08528,0 -0.155853,0.01695 -0.177086,0.04253 -0.04503,0.05426 -0.02261,0.06637 0.171156,0.09251 0.245636,0.03314 0.286647,0.104304 0.273869,0.475273 -0.0055,0.161769 3e-5,0.294113 0.01248,0.294098 0.01243,-1.7e-5 0.02336,-0.01698 0.02425,-0.03772 z m -1.750127,-0.553393 c 0,-0.0065 -0.02035,-0.01185 -0.04522,-0.01185 -0.02487,0 -0.04522,0.01314 -0.04522,0.0292 0,0.01606 0.02035,0.02139 0.04522,0.01185 0.02488,-0.0095 0.04522,-0.02269 0.04522,-0.0292 z m 0.309669,-0.168712 c 0.183164,-0.09357 0.32192,-0.139329 0.530526,-0.174943 l 0.28249,-0.04823 -0.141504,-0.09205 c -0.07783,-0.05063 -0.261145,-0.209303 -0.407373,-0.352615 -0.210747,-0.206544 -0.283728,-0.260345 -0.352009,-0.259493 -0.175375,0.0022 -0.44172,0.08833 -0.771854,0.249647 -0.186592,0.09118 -0.36494,0.174125 -0.3963284,0.184333 -0.031389,0.01021 -0.048784,0.02685 -0.038642,0.03697 0.010123,0.01013 0.056166,0.0041 0.1022894,-0.01342 0.04612,-0.01751 0.152681,-0.03983 0.236787,-0.04961 0.148085,-0.01721 0.158623,-0.01319 0.333478,0.127145 0.09931,0.0797 0.25094,0.175185 0.336959,0.212189 0.08601,0.037 0.156397,0.08312 0.156397,0.102476 0,0.01936 -0.03646,0.07324 -0.08101,0.119747 -0.04456,0.0465 -0.07139,0.08455 -0.05962,0.08455 0.01176,0 0.133,-0.05702 0.269419,-0.126716 z"
       id="path1-5"
       sodipodi:nodetypes="sssscssssssssssssssssssssssssssssssssssssssscssssssssssssssssssssssssssssssssssssssssssssscssssssssssssssssssssssssssssssssssssscssscsssssscssssssssssssssscssssssssssssssssssssssssscsssssscsscsscsssscsssscssssssssscssssssssssssssssscssssssssssssscssssssssssssss" /></g></svg>
