<?xml version="1.0" encoding="UTF-8" standalone="no"?>
<!-- Created with Inkscape (http://www.inkscape.org/) -->

<svg
   width="194mm"
   height="10mm"
   viewBox="0 0 194 10"
   version="1.1"
   id="svg1"
   inkscape:version="1.4.2 (2aeb623e1d, 2025-05-12)"
   sodipodi:docname="PradlenaRowSetList.svg"
   xml:space="preserve"
   xmlns:inkscape="http://www.inkscape.org/namespaces/inkscape"
   xmlns:sodipodi="http://sodipodi.sourceforge.net/DTD/sodipodi-0.dtd"
   xmlns="http://www.w3.org/2000/svg"
   xmlns:svg="http://www.w3.org/2000/svg"><sodipodi:namedview
     id="namedview1"
     pagecolor="#ffffff"
     bordercolor="#000000"
     borderopacity="0.25"
     inkscape:showpageshadow="2"
     inkscape:pageopacity="0.0"
     inkscape:pagecheckerboard="0"
     inkscape:deskcolor="#d1d1d1"
     inkscape:document-units="mm"
     inkscape:zoom="10.324627"
     inkscape:cx="737.55688"
     inkscape:cy="32.01084"
     inkscape:window-width="1920"
     inkscape:window-height="940"
     inkscape:window-x="0"
     inkscape:window-y="0"
     inkscape:window-maximized="1"
     inkscape:current-layer="svg1"
     showgrid="true"><inkscape:grid
       id="grid1"
       units="mm"
       originx="0"
       originy="0"
       spacingx="0.99999995"
       spacingy="0.99999997"
       empcolor="#0099e5"
       empopacity="0.30196078"
       color="#0099e5"
       opacity="0.14901961"
       empspacing="5"
       enabled="true"
       visible="true" /></sodipodi:namedview><defs
     id="defs1" /><g
     id="g5"
     inkscape:label="Row"
     style="display:inline;stroke:none;stroke-width:1.00177;stroke-dasharray:none;stroke-opacity:1"
     transform="matrix(0.2647424,0,0,0.26432057,-6.0036072,-15.984109)"><rect
       style="display:inline;opacity:1;fill:#fa0000;fill-opacity:0.307692;stroke:none;stroke-width:0.989325;stroke-dasharray:none;stroke-opacity:1"
       id="rect4"
       width="596.80646"
       height="37.832848"
       x="158.65842"
       y="60.472439"
       inkscape:label="Popis" /><rect
       style="display:inline;fill:#fa0000;fill-opacity:0.307692;stroke:none;stroke-width:1.00177;stroke-dasharray:none;stroke-opacity:1"
       id="rect4-42"
       width="98.208679"
       height="37.832848"
       x="60.449734"
       y="60.472439"
       inkscape:label="Jmeno" /><rect
       style="display:inline;opacity:1;fill:#fa0000;fill-opacity:0.307692;stroke:none;stroke-width:1.00177;stroke-dasharray:none;stroke-opacity:1"
       id="rect5"
       width="37.772568"
       height="37.832848"
       x="22.677166"
       y="60.472439"
       inkscape:label="Logo" /></g><g
     inkscape:label="Layer 1"
     inkscape:groupmode="layer"
     id="layer1"
     transform="translate(-5.9999979,-28.039034)"
     style="display:inline"><text
       xml:space="preserve"
       style="font-size:3.80938px;font-family:'New Rocker';-inkscape-font-specification:'New Rocker';text-align:start;letter-spacing:0px;writing-mode:lr-tb;direction:ltr;text-anchor:start;fill:#000000;fill-opacity:1;stroke:none;stroke-width:0.0504741"
       x="18.035286"
       y="34.122803"
       id="text1"
       inkscape:label="Role"><tspan
         style="letter-spacing:0px;fill:#000000;fill-opacity:1;stroke:none;stroke-width:0.0504743"
         x="18.035286"
         y="34.122803"
         sodipodi:role="line"
         id="tspan7">Pradlena</tspan></text><text
       xml:space="preserve"
       style="font-size:3px;font-family:'New Rocker';-inkscape-font-specification:'New Rocker';text-align:start;letter-spacing:0px;writing-mode:lr-tb;direction:ltr;text-anchor:start;fill:#000000;fill-opacity:1;stroke:none;stroke-width:0.040981"
       x="42.755661"
       y="33.891289"
       id="text2"
       inkscape:label="Popis"><tspan
         sodipodi:role="line"
         style="font-style:normal;font-variant:normal;font-weight:normal;font-stretch:normal;font-size:3px;font-family:'Didact Gothic';-inkscape-font-specification:'Didact Gothic';letter-spacing:0px;stroke-width:0.0409811"
         x="42.755661"
         y="33.891289"
         id="tspan6">První noc se dozvíš, že jeden ze dvou hráčů je konkrétní Měšťan.</tspan></text><path
       style="fill:#000000;stroke-width:0.032134"
       d="m 7.3069284,36.516928 c -0.019529,-0.06153 -0.031608,-0.06483 -0.1179457,-0.03225 -0.088201,0.03329 -0.1027917,0.02836 -0.1756812,-0.05946 -0.064795,-0.07805 -0.07551,-0.116551 -0.057948,-0.208233 0.011844,-0.06186 0.023032,-0.264301 0.02485,-0.449876 0.0018,-0.185573 0.017254,-0.359097 0.034298,-0.385608 0.017044,-0.02652 0.039544,-0.257874 0.050002,-0.514144 0.014044,-0.344011 0.033081,-0.492855 0.072781,-0.568783 0.029575,-0.05656 0.05377,-0.156514 0.05377,-0.222115 0,-0.07223 0.034467,-0.177424 0.087386,-0.2667 0.081416,-0.137353 0.089084,-0.182558 0.1122124,-0.661571 0.039211,-0.812105 0.053395,-0.964663 0.088882,-0.955987 0.018074,0.0044 0.032861,-0.02744 0.032861,-0.07081 0,-0.06253 -0.029898,-0.09206 -0.1445898,-0.142796 C 7.1442416,31.879705 6.7617655,31.575689 6.5233696,31.307389 6.404571,31.173694 6.2822854,31.038123 6.2516256,31.006133 c -0.053072,-0.05537 -0.052254,-0.05903 0.017073,-0.07643 0.05999,-0.01506 0.1376628,0.04495 0.4409105,0.340596 0.4640502,0.452426 0.6148719,0.559062 0.781331,0.552423 0.100563,-0.004 0.1279921,0.0076 0.1417359,0.06019 0.023175,0.08862 0.06465,0.103479 0.8437406,0.302098 0.3301648,0.08418 0.4177423,0.05939 0.4177423,-0.11818 0,-0.04786 0.018128,-0.0613 0.072301,-0.0536 0.062546,0.0089 0.072302,0.02946 0.072302,0.152525 v 0.142254 l 0.224938,0.05785 c 0.2840146,0.07303 0.2966486,0.07285 0.3213396,-0.005 0.02578,-0.08123 0.113393,-0.08375 0.134289,-0.0039 0.0214,0.08185 0.2879205,0.110522 0.7534795,0.08106 l 0.356075,-0.02253 -0.01925,-0.12038 c -0.01393,-0.08711 -0.0068,-0.125138 0.02565,-0.13761 0.06148,-0.0236 0.08332,0.0053 0.08332,0.110336 0,0.121909 0.03858,0.136353 0.209344,0.07838 0.08051,-0.02733 0.204176,-0.0497 0.274821,-0.0497 0.07065,0 0.180177,-0.02162 0.243407,-0.04803 0.09951,-0.04157 0.112251,-0.05886 0.09476,-0.128538 -0.01773,-0.07062 -0.0099,-0.08051 0.06422,-0.08051 0.07402,0 0.08193,0.0099 0.06426,0.08033 -0.01114,0.04419 -0.01627,0.08028 -0.01157,0.08019 0.0047,-6.5e-5 0.109865,-0.03592 0.233583,-0.07966 0.123723,-0.04373 0.25775,-0.07982 0.297853,-0.08019 0.06163,-5.88e-4 0.06979,-0.01314 0.05275,-0.08102 -0.01673,-0.06666 -0.0086,-0.08033 0.04759,-0.08033 0.03863,0 0.06775,0.0206 0.06775,0.04792 0,0.03956 0.03504,0.03479 0.200837,-0.02735 0.110465,-0.04139 0.25587,-0.08546 0.323132,-0.09792 0.06726,-0.01243 0.148936,-0.04929 0.181499,-0.08185 0.03256,-0.03256 0.104907,-0.06925 0.160779,-0.08152 0.09239,-0.0203 0.09972,-0.03077 0.08105,-0.115737 -0.01751,-0.07978 -0.01071,-0.09343 0.0463,-0.09343 0.04539,0 0.06682,0.0206 0.06682,0.06426 0,0.03534 0.01157,0.06426 0.02563,0.06426 0.03789,0 0.655989,-0.31182 0.721485,-0.363978 0.03092,-0.02463 0.05623,-0.08295 0.05623,-0.12961 0,-0.08721 0.07899,-0.12098 0.104436,-0.04466 0.0087,0.02602 0.071,-0.0051 0.176946,-0.08836 0.08995,-0.07069 0.276843,-0.21689 0.415301,-0.32488 0.138468,-0.107994 0.305827,-0.256209 0.371927,-0.329374 0.06611,-0.07316 0.125881,-0.133024 0.132853,-0.133024 0.007,0 0.02224,0.03816 0.03395,0.08481 0.01664,0.06632 0.0017,0.105494 -0.06882,0.179779 -0.08652,0.09121 -0.649207,0.540013 -0.86829,0.692564 -0.11228,0.07818 -0.136496,0.157666 -0.05729,0.18806 0.02652,0.01014 0.0482,0.03869 0.0482,0.06338 0,0.02469 0.06522,0.113522 0.144941,0.1974 0.07972,0.08388 0.140853,0.174205 0.135853,0.200717 -0.005,0.02652 0.01846,0.06266 0.05215,0.08034 0.05393,0.0283 0.289108,0.52287 0.404924,0.851551 0.0218,0.06186 0.08051,0.228037 0.130467,0.369287 0.08568,0.242206 0.09886,0.360626 0.02557,0.229675 -0.03136,-0.05602 -0.03516,-0.05532 -0.06989,0.01272 -0.0202,0.03959 -0.04748,0.07018 -0.0606,0.06798 -0.01314,-0.0023 -0.07406,0.02419 -0.13541,0.05865 -0.117766,0.06615 -0.133767,0.05945 -0.15734,-0.06573 -0.09096,-0.483148 -0.282835,-0.833234 -0.456675,-0.833234 -0.115637,0 -0.158184,0.08706 -0.16341,0.334336 -0.01717,0.812347 -0.05009,1.070169 -0.121809,0.954125 -0.011,-0.01784 -0.04012,-0.02472 -0.06465,-0.0153 -0.02837,0.01086 -0.0498,-0.01014 -0.05886,-0.05763 -0.01286,-0.06713 -0.0147,-0.06575 -0.01863,0.01357 -0.0053,0.105679 -0.06719,0.119509 -0.07201,0.01606 -0.0024,-0.05165 -0.01414,-0.03742 -0.04126,0.04979 -0.02084,0.06715 -0.04839,0.11158 -0.06123,0.09875 -0.01286,-0.01286 -0.04256,0.003 -0.06605,0.03504 -0.03879,0.05305 -0.04456,0.05353 -0.06303,0.0054 -0.01114,-0.02914 -0.0049,-0.09264 0.014,-0.141081 0.04203,-0.107865 0.03842,-0.489186 -0.0074,-0.775479 -0.01867,-0.116794 -0.04583,-0.287103 -0.06036,-0.378451 -0.04369,-0.274759 -0.367446,-0.813999 -0.488714,-0.813999 -0.02156,0 -0.201843,0.06508 -0.400614,0.144602 -0.19877,0.07953 -0.378186,0.144604 -0.398698,0.144604 -0.04769,0 -0.011,0.277083 0.04922,0.370909 0.02313,0.0361 0.148539,0.182212 0.278669,0.324694 0.396106,0.433704 0.594714,1.000715 0.435587,1.243571 -0.04767,0.07278 -0.07813,0.08508 -0.207765,0.08398 l -0.151895,-0.0013 0.08836,-0.04793 c 0.0486,-0.02636 0.08836,-0.06916 0.08836,-0.09512 0,-0.02905 -0.03396,-0.04875 -0.08836,-0.05128 -0.0486,-0.0023 -0.122794,-0.0076 -0.164857,-0.01186 -0.04208,-0.0043 -0.103522,0.01926 -0.136567,0.0523 -0.06698,0.06698 -0.152903,0.07505 -0.312294,0.02934 -0.15349,-0.04402 -0.374398,0.0064 -0.686513,0.157077 l -0.266299,0.128452 -0.0097,-0.123308 c -0.0053,-0.06782 0.01386,-0.222758 0.04278,-0.344301 0.103536,-0.436133 0.133724,-0.730074 0.101721,-0.990288 -0.02223,-0.180776 -0.04152,-0.242437 -0.07215,-0.230682 -0.0448,0.01719 -0.0465,-0.09506 -0.0026,-0.166232 0.03117,-0.05043 -4.79e-4,-0.04893 -0.191606,0.009 -0.08676,0.02632 -0.211117,0.048 -0.27635,0.0482 -0.149779,4.4e-4 -0.173318,0.03883 -0.100155,0.163345 l 0.05809,0.09886 -0.104436,0.09356 c -0.09877,0.08848 -0.104434,0.105636 -0.104434,0.31612 0,0.25136 0.06419,0.623288 0.144757,0.838764 0.114097,0.305146 0.24085,0.692384 0.24085,0.735814 0,0.03479 -0.01498,0.03182 -0.06426,-0.01286 -0.03534,-0.03199 -0.06426,-0.04232 -0.06426,-0.02294 0,0.01937 0.01492,0.04443 0.03316,0.0557 0.05697,0.03522 0.176085,0.32315 0.209176,0.505639 0.0073,0.04016 0.03511,0.145119 0.06184,0.233247 0.0652,0.214967 0.06355,0.223498 -0.04506,0.231074 -0.05183,0.0036 -0.169498,0.06065 -0.261489,0.126738 l -0.167255,0.120166 -0.07599,-0.09461 c -0.04161,-0.05183 -0.133373,-0.211868 -0.20374,-0.355427 -0.152296,-0.310709 -0.207493,-0.596638 -0.208491,-1.080007 l -6.98e-4,-0.344869 -0.08878,-0.03677 c -0.04947,-0.02049 -0.09733,-0.07086 -0.108101,-0.113765 -0.01876,-0.07472 -0.02111,-0.07366 -0.07993,0.03607 -0.05355,0.09992 -0.06057,0.186897 -0.0603,0.747836 l 3.16e-4,0.634764 0.127087,0.200319 c 0.125502,0.19782 0.126236,0.200775 0.05882,0.236852 -0.06119,0.03274 -0.06274,0.03963 -0.01492,0.06639 0.08432,0.04719 0.0645,0.07835 -0.10674,0.167891 -0.18673,0.09764 -0.2744565,0.105408 -0.3177005,0.02813 -0.02948,-0.05268 -0.0343,-0.05268 -0.0925,0 -0.03377,0.03057 -0.06955,0.05556 -0.07953,0.05556 -0.04112,0 -0.06645,-0.127781 -0.07643,-0.385608 -0.0058,-0.150228 -0.02476,-0.396052 -0.04211,-0.54628 -0.03352,-0.290422 -0.08314,-0.934158 -0.07464,-0.968417 0.0028,-0.01129 -0.01577,-0.23539 -0.041253,-0.498078 -0.063203,-0.651568 -0.061975,-1.005207 0.0038,-1.099152 0.02831,-0.04042 0.044745,-0.08024 0.036516,-0.08846 -0.01502,-0.01501 -0.3602205,-0.07675 -0.4311252,-0.07709 -0.022326,-9.6e-5 -0.046249,0.07561 -0.058319,0.184585 -0.011258,0.101621 -0.035937,0.264303 -0.054848,0.361507 -0.035591,0.182935 -0.058354,0.174174 -0.1043705,-0.04016 -0.029112,-0.13561 -0.0758,-0.105207 -0.098726,0.06426 -0.011358,0.08395 -0.047689,0.255071 -0.08074,0.380269 -0.053022,0.20085 -0.078919,0.352777 -0.1474267,0.864926 -0.00964,0.07213 0.00506,0.212569 0.033507,0.320056 0.027888,0.105336 0.051217,0.271631 0.051845,0.369541 0.0021,0.323175 0.1274778,0.717997 0.2779316,0.875076 0.082063,0.08568 0.082352,0.08779 0.029961,0.21873 -0.047919,0.119766 -0.048184,0.136939 -0.0028,0.182325 0.073045,0.07305 0.045645,0.112251 -0.1283564,0.183662 l -0.1551696,0.06368 -0.075604,-0.09431 c -0.041582,-0.05187 -0.1117638,-0.188614 -0.155959,-0.303868 -0.065508,-0.170785 -0.080373,-0.266353 -0.080373,-0.516577 0,-0.288751 -0.00496,-0.31166 -0.083135,-0.384927 -0.065835,-0.06169 -0.079713,-0.09911 -0.066695,-0.17983 0.020411,-0.126552 -0.034284,-0.154491 -0.1413589,-0.07219 -0.043094,0.03313 -0.096428,0.06055 -0.11852,0.06093 -0.02209,3.64e-4 -0.040167,0.03252 -0.040167,0.0714 0,0.05192 -0.0095,0.06119 -0.035761,0.03493 -0.019669,-0.01967 -0.024495,-0.05399 -0.010729,-0.07626 0.013772,-0.02227 0.028119,-0.07776 0.031891,-0.123295 0.00377,-0.04553 0.018066,-0.118951 0.03177,-0.163135 l 0.024915,-0.08033 -0.066856,0.08033 c -0.058133,0.06985 -0.069591,0.07332 -0.087818,0.02653 -0.016335,-0.04193 -0.047008,-0.04972 -0.1389572,-0.0353 -0.064898,0.01014 -0.1295594,0.03802 -0.1436932,0.06185 -0.04099,0.06912 -0.071657,0.05127 -0.1189058,-0.06915 -0.02427,-0.06186 -0.05485,-0.112466 -0.067953,-0.112466 -0.013101,0 -0.032097,0.07953 -0.042203,0.176738 -0.010115,0.09721 -0.026965,0.258775 -0.037456,0.359047 -0.022036,0.210595 0.047473,1.165827 0.088732,1.21941 0.015581,0.02024 0.015434,0.06929 -3.4e-4,0.111937 -0.027822,0.0752 -0.028285,0.07528 -0.049841,0.0074 z m 2.6476511,-0.527824 c 0,-0.01172 -0.02279,-0.04023 -0.05065,-0.06335 -0.04189,-0.03476 -0.05542,-0.03432 -0.07821,0.0026 -0.01516,0.02453 -0.02235,0.05305 -0.01598,0.06335 0.01604,0.02596 0.144842,0.02369 0.144842,-0.0026 z m -1.3046891,-0.55136 c -0.029211,-0.05743 -0.055308,-0.107265 -0.05799,-0.110722 -0.00269,-0.0034 -0.023936,0.0054 -0.047232,0.01989 -0.032931,0.02034 -0.025576,0.04423 0.033062,0.107336 0.1053719,0.11338 0.1347898,0.106651 0.072157,-0.01649 z m 1.4032066,-0.610256 c -0.01884,-0.05403 -0.03573,-0.150318 -0.03754,-0.213957 l -0.0032,-0.115708 -0.028679,0.112465 c -0.03103,0.121666 -0.01599,0.272244 0.044899,0.449876 l 0.03856,0.112465 0.01014,-0.123452 c 0.0055,-0.06791 -0.0052,-0.167663 -0.0241,-0.221699 z M 8.2124402,34.603962 c -0.065689,-0.09894 -0.2355427,-0.176073 -0.4429734,-0.201179 -0.2548394,-0.03084 -0.1651347,0.042 0.097423,0.07912 0.1503601,0.02125 0.2243993,0.05 0.2850847,0.11068 0.1006459,0.10065 0.1224646,0.10475 0.060466,0.01143 z m 2.4951948,-0.475987 c -0.06148,-0.06148 -0.06221,-0.06101 -0.06568,0.04136 -0.0019,0.05695 -0.01359,0.161384 -0.0259,0.23208 l -0.0224,0.128537 0.08808,-0.169903 c 0.08709,-0.167998 0.08738,-0.170601 0.0259,-0.232079 z M 8.4536423,33.584624 c 0.017294,-0.341629 -2.307e-4,-0.330611 -0.1042261,0.06559 -0.071707,0.273137 -0.071924,0.279775 -0.015284,0.465943 l 0.057461,0.188859 0.023363,-0.208872 c 0.012844,-0.11488 0.030258,-0.345065 0.038684,-0.511524 z M 7.6363895,33.78771 c -0.021334,-0.05129 -0.042102,-0.122152 -0.046153,-0.157504 -0.038447,-0.335432 -0.079079,-0.606427 -0.09301,-0.620359 -0.00933,-0.0093 -0.016967,0.108622 -0.016967,0.262119 0,0.234152 0.014044,0.310566 0.087253,0.474643 0.084972,0.190446 0.1462026,0.226985 0.068876,0.0411 z m 5.0489025,-0.04389 c -8.72e-4,-0.140739 -0.139253,-0.541288 -0.210614,-0.609473 -0.04882,-0.04666 -0.04926,-0.04323 -0.0057,0.04599 0.07882,0.161667 0.124552,0.401939 0.103379,0.54314 -0.0181,0.120723 -0.01343,0.133967 0.04679,0.133967 0.05528,0 0.06676,-0.01973 0.06621,-0.113622 z m -0.630123,0.02296 c 0.02747,-0.10255 0.02473,-0.152637 -0.0084,-0.152637 -0.01574,0 -0.03453,0.0506 -0.04175,0.112466 -0.0146,0.125137 0.01992,0.152812 0.0501,0.04017 z m 0.909296,-0.07231 c 0,-0.02652 -0.012,-0.0482 -0.02677,-0.0482 -0.01473,0 -0.02679,0.02169 -0.02679,0.0482 0,0.02652 0.012,0.0482 0.02679,0.0482 0.01473,0 0.02677,-0.02169 0.02677,-0.0482 z m -0.242558,-0.383814 c -0.05317,-0.09423 -0.09031,-0.177713 -0.08251,-0.185515 0.0079,-0.0079 -0.01414,-0.07088 -0.04867,-0.140167 -0.03457,-0.06929 -0.06345,-0.101136 -0.06415,-0.07076 -8.72e-4,0.03857 -0.01774,0.0489 -0.05586,0.03429 -0.04616,-0.01772 -0.0443,-0.0064 0.012,0.0733 0.104364,0.14767 0.299046,0.550855 0.30502,0.631698 0.003,0.0402 0.01114,0.01806 0.01812,-0.0492 0.0096,-0.09244 -0.01086,-0.164168 -0.08398,-0.293641 z m -2.395664,0.0016 c 0.02535,-0.03619 0.04586,-0.109565 0.04559,-0.163072 -3.67e-4,-0.07462 -0.0078,-0.08606 -0.03164,-0.04909 -0.01713,0.02652 -0.03137,0.07483 -0.03164,0.107407 -2.55e-4,0.03256 -0.02619,0.09186 -0.05759,0.131796 -0.06206,0.07891 -0.09119,0.06443 -0.158047,-0.07852 l -0.03757,-0.08033 -0.0021,0.08676 c -0.0012,0.04777 0.04475,0.156061 0.10226,0.241004 l 0.104436,0.154247 0.01016,-0.142196 c 0.0056,-0.0782 0.03089,-0.171804 0.05623,-0.207986 z m 2.898118,0.02082 c -0.05188,-0.118623 -0.152514,-0.287394 -0.152663,-0.256005 -1.58e-4,0.03512 0.158308,0.344372 0.176469,0.344372 0.0081,0 -0.0026,-0.03976 -0.02382,-0.08836 z m -2.489319,-0.08653 c 0.05743,0.01733 0.06349,0.01343 0.03154,-0.02009 -0.02175,-0.02286 -0.08889,-0.04543 -0.149203,-0.05019 -0.09434,-0.0074 -0.107398,5e-6 -0.09348,0.05323 0.01309,0.05007 0.02798,0.05556 0.07812,0.02872 0.03406,-0.01823 0.09392,-0.0235 0.133022,-0.01171 z m 3.74994,-0.09209 c -3.67e-4,-0.07802 -0.008,-0.09102 -0.03165,-0.05435 -0.04119,0.06373 -0.04119,0.202191 0,0.176737 0.01767,-0.01086 0.03192,-0.06601 0.03165,-0.122395 z m -2.409559,-0.17894 c 0,-0.07712 -0.02037,-0.14141 -0.05346,-0.168705 -0.04873,-0.0402 -0.04988,-0.03736 -0.01286,0.03213 0.02234,0.04193 0.0323,0.117837 0.02213,0.168704 -0.01029,0.0513 -0.0046,0.09248 0.01286,0.09248 0.01723,0 0.03133,-0.05608 0.03133,-0.124609 z M 9.7939095,32.804659 c 0,-0.0143 0.02806,-0.02599 0.06237,-0.02599 0.03431,0 0.07131,-0.01446 0.08223,-0.03213 0.01209,-0.01954 -0.03437,-0.03195 -0.118606,-0.03164 -0.08951,3.16e-4 -0.12309,0.01029 -0.09498,0.02804 0.03339,0.02116 0.03526,0.04293 0.008,0.09379 -0.0195,0.03643 -0.035,0.07803 -0.03443,0.09245 0.0013,0.0333 0.09538,-0.08953 0.09538,-0.124537 z m 0.9543925,-0.159872 c 0.02297,-0.01906 0.04177,-0.04373 0.04179,-0.05482 1.6e-5,-0.01114 -0.206043,-0.01057 -0.457909,0.0012 -0.251866,0.01172 -0.4940875,0.01444 -0.5382725,0.006 -0.07615,-0.01454 -0.07699,-0.01314 -0.01606,0.02614 0.07023,0.04533 0.5988165,0.09126 0.8017565,0.06966 0.06982,-0.0074 0.145735,-0.0291 0.168704,-0.04818 z m 1.525903,-0.08302 c -0.009,-0.09329 -0.0013,-0.104436 0.07231,-0.104436 0.06013,0 0.08239,-0.01684 0.08239,-0.06238 0,-0.0343 0.01446,-0.07131 0.03213,-0.08223 0.01767,-0.01086 0.03213,-0.04239 0.03213,-0.0699 0,-0.0367 -0.01929,-0.04446 -0.07231,-0.02906 -0.03976,0.01157 -0.166293,0.04445 -0.281171,0.07312 -0.11488,0.02867 -0.226948,0.06606 -0.24904,0.08309 -0.06095,0.04698 -0.04813,0.163099 0.02689,0.243617 0.05433,0.05832 0.09549,0.07013 0.216904,0.06229 0.148046,-0.0096 0.149728,-0.011 0.139767,-0.114108 z m -3.4836411,-0.04583 c 0.050834,-0.05083 -0.00914,-0.12288 -0.1023074,-0.12288 -0.038223,0 -0.1774399,-0.03719 -0.3093719,-0.08265 -0.2517495,-0.08674 -0.6406247,-0.204031 -0.6817194,-0.205626 -0.013258,-5.15e-4 -0.023903,0.0316 -0.02366,0.07138 9.902e-4,0.164415 0.03549,0.207105 0.2350697,0.290938 0.1674744,0.07035 0.2485044,0.08355 0.5212478,0.08496 0.2068094,10e-4 0.3365388,-0.01186 0.3607433,-0.03613 z m 6.5303951,0.02566 c 0,-0.05496 -0.122881,-0.285296 -0.207856,-0.38962 -0.05762,-0.07075 -0.135595,-0.179194 -0.173272,-0.241004 -0.03767,-0.0618 -0.06856,-0.09734 -0.06863,-0.07893 -6.4e-5,0.01839 0.08648,0.170228 0.192324,0.337407 0.105851,0.167179 0.192607,0.322037 0.192804,0.34413 2.43e-4,0.02209 0.01482,0.04016 0.03249,0.04016 0.01767,0 0.03213,-0.0054 0.03213,-0.01214 z m -6.298266,-0.05213 c 0,-0.01767 -0.01446,-0.03213 -0.032132,-0.03213 -0.017673,0 -0.032132,0.01447 -0.032132,0.03213 0,0.01767 0.01446,0.03213 0.032132,0.03213 0.017673,0 0.032132,-0.01446 0.032132,-0.03213 z m 5.751986,-0.01414 c 0,-0.0077 -0.01446,-0.0231 -0.03213,-0.03403 -0.01767,-0.01086 -0.03213,-0.0046 -0.03213,0.01414 0,0.01872 0.01446,0.03403 0.03213,0.03403 0.01767,0 0.03213,-0.0064 0.03213,-0.01414 z m -0.404252,-0.23208 c -0.03074,-0.05013 -0.09305,-0.147309 -0.138439,-0.215938 l -0.08252,-0.124781 0.127838,-0.113665 0.127838,-0.113666 -0.122338,0.06975 c -0.06728,0.03836 -0.15916,0.06975 -0.204166,0.06975 h -0.08182 l 0.09169,0.104736 c 0.05043,0.05761 0.140553,0.181066 0.200267,0.274362 0.110094,0.172019 0.184461,0.217071 0.08165,0.04946 z m -0.45313,-0.0027 c -0.03513,-0.09939 -0.185971,-0.326988 -0.2175,-0.328201 -0.01679,-6.62e-4 -0.01314,0.01619 0.008,0.03739 0.02122,0.02122 0.03856,0.05756 0.03856,0.08079 0,0.051 0.135167,0.265303 0.167695,0.265863 0.01272,2.32e-4 0.01414,-0.0249 0.0031,-0.05583 z m 0.323286,-0.651532 c 0.150345,-0.09535 0.178687,-0.16591 0.07473,-0.186075 -0.04755,-0.0093 -0.504656,0.234109 -0.504656,0.268645 0,0.008 0.06223,0.01464 0.13831,0.01464 0.09873,0 0.182177,-0.02782 0.291612,-0.09722 z"
       id="path1-9"
       sodipodi:nodetypes="sssssssssssssssssssssssscsssscssssssssscsssssssssssssssssssssssssssssssssssssssssssssssssssssssscssssssscsssssssscssssssssssscssscsssccssssssssssssscsssssssssssscscsssssssssscssssssssssssssssssssssscsscsssssssssscssscscssssssssssssssssssssssssssssssssssscsscsscsssscsssssssssssssssssssssscsssssssssssssssssssssssssssssssssssscsssssssssssssscccsscssssssscsssssss" /></g></svg>
