<?xml version="1.0" encoding="UTF-8" standalone="no"?>
<!-- Created with Inkscape (http://www.inkscape.org/) -->

<svg
   width="194mm"
   height="10mm"
   viewBox="0 0 194 10"
   version="1.1"
   id="svg1"
   inkscape:version="1.4.2 (2aeb623e1d, 2025-05-12)"
   sodipodi:docname="SamotarRowSetList.svg"
   xml:space="preserve"
   xmlns:inkscape="http://www.inkscape.org/namespaces/inkscape"
   xmlns:sodipodi="http://sodipodi.sourceforge.net/DTD/sodipodi-0.dtd"
   xmlns="http://www.w3.org/2000/svg"
   xmlns:svg="http://www.w3.org/2000/svg"><sodipodi:namedview
     id="namedview1"
     pagecolor="#ffffff"
     bordercolor="#000000"
     borderopacity="0.25"
     inkscape:showpageshadow="2"
     inkscape:pageopacity="0.0"
     inkscape:pagecheckerboard="0"
     inkscape:deskcolor="#d1d1d1"
     inkscape:document-units="mm"
     inkscape:zoom="1.7993114"
     inkscape:cx="222.30726"
     inkscape:cy="53.631627"
     inkscape:window-width="1920"
     inkscape:window-height="940"
     inkscape:window-x="0"
     inkscape:window-y="0"
     inkscape:window-maximized="1"
     inkscape:current-layer="svg1"
     showgrid="true"><inkscape:grid
       id="grid1"
       units="mm"
       originx="0"
       originy="0"
       spacingx="0.99999995"
       spacingy="0.99999997"
       empcolor="#0099e5"
       empopacity="0.30196078"
       color="#0099e5"
       opacity="0.14901961"
       empspacing="5"
       enabled="true"
       visible="true" /></sodipodi:namedview><defs
     id="defs1" /><g
     id="g5"
     inkscape:label="Row"
     style="display:inline;stroke:none;stroke-width:1.00177;stroke-dasharray:none;stroke-opacity:1"
     transform="matrix(0.25939404,0,0,0.26432057,-5.8823216,-15.984109)"><rect
       style="display:inline;opacity:1;fill:#fa0000;fill-opacity:0.307692;stroke:none;stroke-width:1.00177;stroke-dasharray:none;stroke-opacity:1"
       id="rect4"
       width="611.91559"
       height="37.832848"
       x="158.65842"
       y="60.472439"
       inkscape:label="Popis" /><rect
       style="display:inline;fill:#fa0000;fill-opacity:0.307692;stroke:none;stroke-width:1.00177;stroke-dasharray:none;stroke-opacity:1"
       id="rect4-42"
       width="98.208679"
       height="37.832848"
       x="60.449734"
       y="60.472439"
       inkscape:label="Jmeno" /><rect
       style="display:inline;opacity:1;fill:#fa0000;fill-opacity:0.307692;stroke:none;stroke-width:1.00177;stroke-dasharray:none;stroke-opacity:1"
       id="rect5"
       width="37.772568"
       height="37.832848"
       x="22.677166"
       y="60.472439"
       inkscape:label="Logo" /></g><path
     style="fill:#000000;stroke-width:0.0294327"
     d="M 3.8656507,8.9274937 C 3.0810142,8.9031213 2.607796,8.8633348 2.3057133,8.7963483 2.0624294,8.7424004 1.6557964,8.5869506 1.621852,8.534918 1.5802566,8.4711557 1.6001762,8.3877217 1.7087441,8.1709811 1.8402703,7.9084091 1.9845022,7.7702405 2.1911217,7.7088812 c 0.084596,-0.025123 0.1760542,-0.065807 0.2032412,-0.09041 0.044529,-0.040299 0.066658,-0.036819 0.2232108,0.035113 0.14618,0.067166 0.2345511,0.083703 0.5564067,0.1041168 0.2104441,0.013349 0.4943601,0.032059 0.6309234,0.041581 0.3707513,0.025846 1.5377085,-0.063769 1.8487884,-0.1419787 0.074563,-0.018748 0.1250893,-0.048537 0.1250893,-0.073756 0,-0.028251 -0.019553,-0.036757 -0.058865,-0.02561 -0.032375,0.00919 -0.082044,0.023028 -0.1103736,0.030762 -0.069871,0.019072 -0.4642818,0.077158 -0.6159213,0.090705 -0.067608,0.00604 -0.2066779,0.024571 -0.3090452,0.041183 C 4.4390846,7.7604234 3.9981448,7.759288 3.6882818,7.718035 3.5511082,7.6997647 3.412386,7.6859526 3.3800094,7.6873375 3.3476345,7.6887285 3.2154909,7.662886 3.0863588,7.6299235 2.9572267,7.5969598 2.8247794,7.5694973 2.7920313,7.5688954 2.7592809,7.568293 2.6951305,7.5541048 2.6494698,7.5373645 2.5509095,7.501228 2.5555726,7.4500048 2.6815665,7.1847398 l 0.080354,-0.1691711 0.1976424,-5.89e-5 c 0.1087032,-2.96e-5 0.2543956,0.019012 0.3237604,0.042327 0.069365,0.023316 0.1989645,0.050375 0.2879987,0.060129 0.089033,0.00975 0.2109403,0.030757 0.2709027,0.046674 0.139742,0.037096 1.0609651,-0.015768 1.4067456,-0.080727 0.4638366,-0.087134 0.4537572,-0.087747 0.5243378,0.031878 0.039061,0.066202 0.084713,0.1056791 0.1222104,0.1056791 0.033584,0 0.059858,0.019378 0.059858,0.044149 0,0.02428 0.011523,0.044149 0.025595,0.044149 0.014082,0 0.1961954,-0.1587358 0.4047008,-0.3527456 0.4029108,-0.3748986 0.7435202,-0.6045882 0.939946,-0.6338505 0.2942228,-0.043833 0.510712,-0.049022 0.6146045,-0.014734 0.147994,0.048843 0.3545495,0.3262886 0.3827067,0.5140546 0.011056,0.073746 0.032541,0.1340821 0.047736,0.1340821 0.015745,0 0.02763,0.1582679 0.02763,0.3679095 0,0.2023507 -0.011942,0.3679099 -0.026545,0.3679099 -0.0146,0 -0.035859,0.082779 -0.047243,0.1839548 -0.03201,0.284432 -0.1931659,0.5436508 -0.3892756,0.6261447 -0.1556277,0.065465 -0.6589366,0.1655505 -0.8172652,0.1625178 -0.080939,-0.00153 -0.1802753,-0.0036 -0.2207453,-0.00454 -0.1015867,-0.00236 -0.2942318,0.043741 -0.3826255,0.091584 -0.04047,0.021904 -0.252387,0.072026 -0.4709255,0.1113831 -0.4542321,0.081805 -1.0464515,0.099226 -2.1780255,0.064074 z m -0.191313,-0.087245 c -0.01,-0.01619 -0.1001887,-0.028113 -0.2004087,-0.0265 -0.1358207,0.00218 -0.163482,0.00893 -0.108635,0.0265 0.10928,0.034997 0.3306737,0.034997 0.3090437,0 z m 3.844963,-0.4576841 c 0.151595,-0.057469 0.33983,-0.1512479 0.4182998,-0.2083969 L 8.0802751,8.0702623 8.0700589,7.5649138 C 8.0605503,7.0955842 8.0545825,7.0491115 7.9862449,6.9128952 7.8816389,6.7043834 7.7716511,6.6483317 7.4593304,6.6443691 7.233794,6.6414913 7.1944684,6.6500167 7.0125102,6.7410468 6.8472845,6.8237062 6.7874042,6.8753782 6.6641136,7.0416881 6.5327078,7.2189453 6.3072882,7.4299462 6.2099801,7.4667747 c -0.044631,0.016894 0.067021,0.1056804 0.134464,0.1069286 0.030425,5.56e-4 0.044445,0.016931 0.035183,0.041067 -0.01078,0.028098 0.019173,0.04566 0.099918,0.058571 0.085297,0.013641 0.1458017,0.051511 0.2324103,0.1454701 0.064401,0.069866 0.1304323,0.1508676 0.1467368,0.180002 0.027584,0.049293 0.03497,0.047647 0.1063363,-0.023719 0.059576,-0.059576 0.1058219,-0.076692 0.2072158,-0.076692 0.1793311,0 0.2691313,0.073674 0.2417502,0.1983366 -0.023237,0.1057919 -0.057499,0.1389752 -0.1716764,0.1662636 l -0.081688,0.019521 0.062557,-0.062557 c 0.084408,-0.084408 0.034705,-0.1367677 -0.077593,-0.081739 -0.131599,0.064488 -0.1981587,0.175046 -0.1622476,0.2694997 0.025656,0.067482 0.047347,0.079328 0.1452467,0.079328 0.063298,0 0.2391192,-0.047021 0.390713,-0.1044909 z M 4.2437183,8.2005005 C 4.2982893,8.1800579 4.25753,8.1672917 4.0490696,8.1395348 3.9040498,8.1202269 3.725651,8.1044308 3.6526277,8.1044308 c -0.073024,0 -0.1841023,-0.017867 -0.2468425,-0.039705 -0.06274,-0.021838 -0.185028,-0.041999 -0.2717498,-0.044803 -0.086722,-0.00278 -0.1818753,-0.018047 -0.2114527,-0.033876 -0.029576,-0.015828 -0.087939,-0.028779 -0.1296933,-0.028779 -0.041753,0 -0.098915,-0.011679 -0.1270238,-0.025957 -0.074933,-0.038055 -0.3185397,-0.091774 -0.4161798,-0.091774 -0.046539,0 -0.1156675,0.025146 -0.1536219,0.055878 l -0.069006,0.055878 0.1172538,0.029289 c 0.4423456,0.1104994 0.7180084,0.1614544 1.0002368,0.1848867 0.1780679,0.014786 0.3701173,0.039742 0.4267754,0.055459 0.1168186,0.032407 0.5679522,0.018701 0.6723952,-0.02043 z M 3.8215018,7.4422442 C 3.7405619,7.420174 3.5816244,7.3871899 3.4683081,7.3689412 3.2534131,7.3343335 3.129831,7.2887783 3.129831,7.2441678 c 0,-0.01441 0.00993,-0.020346 0.022074,-0.0132 0.012139,0.00714 0.055186,-6.9e-6 0.095656,-0.015902 0.068709,-0.026986 0.063038,-0.03167 -0.085652,-0.070729 l -0.1592339,-0.041828 -0.082391,0.096259 c -0.045317,0.052943 -0.082929,0.1058519 -0.083588,0.1175776 -6.488e-4,0.011727 0.04185,0.044241 0.094461,0.072262 0.068639,0.036554 0.1995737,0.056143 0.4635664,0.069355 0.6063531,0.030344 0.5969821,0.030687 0.4267755,-0.015718 z M 8.1809382,7.0816401 c -0.01,-0.044515 -0.030397,-0.1484495 -0.045302,-0.2309615 -0.03294,-0.1822627 -0.094561,-0.3354481 -0.162124,-0.4030105 -0.059675,-0.059675 -0.325295,-0.0694 -0.4420927,-0.01618 -0.1144311,0.052138 -0.089692,0.078002 0.05862,0.061286 0.2798964,-0.03155 0.4367543,0.1161303 0.5160538,0.4858543 0.021703,0.1011754 0.051514,0.183955 0.066248,0.183955 0.014734,0 0.018604,-0.036424 0.0086,-0.08094 z M 3.9980981,7.102125 C 3.868594,7.0931559 3.7253935,7.0699959 3.6798752,7.0506548 3.6343548,7.0313149 3.5019091,7.0070481 3.3855472,6.9967277 3.1773551,6.9782632 3.0863636,6.9442082 3.1162078,6.8959191 c 0.04866,-0.078735 0.5561695,-0.3552046 0.7297694,-0.3975489 0.071735,-0.017495 0.095672,-0.00537 0.1718872,0.087094 0.048701,0.059082 0.1294393,0.1285692 0.1794206,0.1544151 0.085127,0.044023 0.093519,0.043518 0.1327216,-0.00797 0.023015,-0.030229 0.066551,-0.1112548 0.096744,-0.1800545 0.037945,-0.086456 0.072864,-0.1250892 0.1130727,-0.1250892 0.031995,0 0.065132,0.011259 0.073639,0.025021 0.00852,0.013762 0.1119335,0.055211 0.2298405,0.092109 0.2893335,0.090543 0.4184069,0.1593493 0.4915095,0.2620131 0.079404,0.1115138 0.077647,0.1212124 -0.021967,0.1212124 -0.045822,0 -0.1474537,0.032472 -0.2258516,0.072164 -0.078398,0.039691 -0.1532145,0.065566 -0.1662599,0.057505 -0.013049,-0.00806 -0.051949,4.449e-4 -0.086456,0.018914 -0.070769,0.037876 -0.4828162,0.050895 -0.8361808,0.026421 z M 4.6782072,6.853311 C 4.9010451,6.7856904 4.9135664,6.7709658 4.8242133,6.6816131 4.7432411,6.600641 4.6540043,6.5444928 4.6062848,6.5444928 c -0.015671,0 -0.041211,0.036425 -0.056753,0.08094 -0.015546,0.044514 -0.069929,0.1255013 -0.1208512,0.1799665 -0.07011,0.074986 -0.1086049,0.094733 -0.1585699,0.081342 C 4.2338205,6.8770167 4.1689638,6.8688737 4.1259841,6.8686567 4.0644908,6.868345 4.0310307,6.839572 3.9689428,6.7336253 3.9118369,6.6361825 3.8769558,6.6040178 3.8426626,6.6171772 c -0.026059,0.01 -0.1110175,0.038997 -0.1887937,0.064436 -0.077777,0.025439 -0.1414115,0.055853 -0.1414115,0.067587 0,0.022677 0.1106973,0.05958 0.3973422,0.1324687 0.2046877,0.052048 0.5447968,0.039497 0.7684076,-0.028358 z M 2.9611018,6.8769423 C 2.9411457,6.869652 2.8832796,6.7857515 2.8325087,6.6904954 2.7817376,6.5952387 2.6676305,6.434018 2.5789383,6.3322266 2.4902463,6.230436 2.4071241,6.1201515 2.3942235,6.0871508 2.3415728,5.9524687 2.3311353,5.5884779 2.3744197,5.3966158 2.4467258,5.0761304 2.5394951,4.7425713 2.5659036,4.7081246 2.5796558,4.6901876 2.6080595,4.6121183 2.6290288,4.5346363 2.6499959,4.4571545 2.7335317,4.2783497 2.8146602,4.1372936 2.8957883,3.9962376 2.9932597,3.8146041 3.0312619,3.7336638 3.0692665,3.6527239 3.1238759,3.5467656 3.1526202,3.4982013 3.1813669,3.4496376 3.2435664,3.3436792 3.2908461,3.2627393 3.3381256,3.1817994 3.4253175,3.0595546 3.4846065,2.9910842 3.5948301,2.8637925 3.668332,2.6819837 3.7794675,2.2617435 3.8380291,2.0403053 3.8528592,1.724061 3.827036,1.2473849 3.8189543,1.0982405 3.920029,1.0552804 4.2790009,1.0552804 c 0.2207574,0 0.2981896,0.011319 0.3616253,0.05289 0.072946,0.047795 0.078491,0.063389 0.057571,0.1618808 -0.012733,0.059944 -0.021188,0.2926637 -0.018798,0.517153 0.0043,0.4055158 0.00502,0.4095247 0.1095234,0.6180885 0.057845,0.1154589 0.1237646,0.2572457 0.146488,0.315081 0.022722,0.057836 0.079565,0.1505487 0.1263121,0.2060295 0.046747,0.055481 0.1372561,0.1803426 0.2011287,0.2774708 0.063873,0.097129 0.1513807,0.2229532 0.1944587,0.2796114 0.043079,0.056658 0.1170333,0.1758611 0.1643458,0.2648949 0.047312,0.089035 0.1439548,0.2471765 0.2147639,0.3514272 0.070808,0.10425 0.1610685,0.2830548 0.2005783,0.3973429 0.039511,0.1142873 0.082472,0.2210405 0.095474,0.2372282 0.029025,0.036141 0.173465,0.5614573 0.2122196,0.7718304 0.019613,0.1064705 0.017538,0.2176766 -0.00675,0.3616796 -0.036763,0.2179462 -0.052965,0.2450914 -0.3316674,0.5556226 -0.078303,0.087246 -0.1741531,0.2213514 -0.213,0.2980131 C 5.7070969,6.8915882 5.6385868,6.9261078 5.5693689,6.8343427 5.521213,6.7705004 5.5227514,6.7642149 5.6123078,6.6590576 5.6633955,6.5990704 5.7503604,6.472596 5.8055633,6.3780038 5.8607662,6.2834113 5.9402352,6.1541141 5.9821601,6.090677 6.0551501,5.9802364 6.0582857,5.9583552 6.0559907,5.5756036 6.053396,5.1438153 6.0018315,4.8866103 5.8460203,4.5283488 5.7613018,4.3335486 5.4122764,3.7323869 5.3680167,3.7050332 5.3084065,3.6681918 4.7905719,2.8690184 4.6626824,2.6164916 L 4.527885,2.3503229 l 0.00251,-0.5170339 0.00251,-0.5170344 -0.2746555,0.00194 -0.2746548,0.00194 -1.228e-4,0.4894949 c -9.68e-5,0.4458211 -0.00646,0.5062214 -0.07113,0.6769549 -0.085395,0.2254364 -0.3088372,0.6598238 -0.4299565,0.8358642 -0.048229,0.070099 -0.087691,0.139427 -0.087691,0.1540615 0,0.014632 -0.052263,0.1012151 -0.1161387,0.1924015 C 3.1382665,3.869197 2.8852823,4.3685317 2.7909648,4.6313274 2.6819498,4.935077 2.6000169,5.3713823 2.6000169,5.6481548 c 0,0.2410788 0.0058,0.2635904 0.1272467,0.4935126 0.1523814,0.2884982 0.2722118,0.4839425 0.3474797,0.5667441 0.054398,0.059842 0.0542,0.062023 -0.010995,0.1213431 -0.036512,0.033223 -0.082716,0.054441 -0.1026707,0.047151 z M 4.5720381,1.1730116 c 0.031841,-0.038366 0.01207,-0.045019 -0.150919,-0.050782 -0.2624733,-0.00928 -0.4395257,-0.00139 -0.4614888,0.020572 -0.043861,0.043861 0.08515,0.073486 0.3218334,0.073907 0.1902306,3.336e-4 0.2631253,-0.010624 0.2905744,-0.043699 z m -0.3335715,5.351861 c -0.010792,-0.010792 -0.019622,-0.049744 -0.019622,-0.086562 0,-0.097479 -0.049329,-0.1124192 -0.072066,-0.021829 l -0.019479,0.07761 -0.049671,-0.070456 c -0.02732,-0.03875 -0.04981,-0.077077 -0.04998,-0.085171 -1.78e-4,-0.00809 -0.034533,-0.061072 -0.076366,-0.117731 C 3.7654895,5.9690791 3.694802,5.6091181 3.7878155,5.3883119 3.8097597,5.3362206 3.8860016,5.227377 3.9572438,5.1464367 4.1847124,4.8880034 4.2262926,4.7830117 4.2144288,4.4970263 c -0.00566,-0.136564 -0.00794,-0.2482956 -0.00506,-0.2482934 0.00288,2e-6 0.03319,0.074702 0.067349,0.166 0.034158,0.091297 0.1010388,0.220434 0.1486228,0.2869696 0.08545,0.119484 0.182594,0.4427886 0.2628162,0.874673 0.035502,0.1911323 0.034584,0.1975214 -0.053264,0.3715518 -0.049165,0.097391 -0.1290997,0.2167841 -0.1776334,0.2653184 -0.048534,0.048534 -0.09665,0.1263635 -0.106925,0.1729549 -0.036096,0.1636646 -0.058773,0.1917745 -0.1118748,0.1386716 z M 4.4025932,6.0195834 C 4.5310673,5.8020927 4.5250673,5.2999649 4.3888685,4.8710766 L 4.3294642,4.6840143 4.2855094,4.7827784 C 4.1667113,5.0497013 4.0554521,5.2450608 3.9652053,5.3451938 c -0.090044,0.099909 -0.099552,0.127516 -0.099552,0.2890867 0,0.1408609 0.016764,0.2072344 0.079286,0.313921 0.048938,0.083505 0.084342,0.1193102 0.092495,0.09354 0.00726,-0.022963 0.037809,-0.07691 0.067878,-0.1198775 0.030067,-0.042966 0.055807,-0.1224375 0.057198,-0.1765968 0.00251,-0.096444 0.00301,-0.096847 0.026346,-0.019554 0.013099,0.043403 0.045071,0.1092633 0.071051,0.1463552 0.02598,0.037091 0.047237,0.1042259 0.047237,0.1491879 0,0.1044765 0.033088,0.1038974 0.09545,-0.00166 z"
     id="path2"
     sodipodi:nodetypes="cssssssssssssssssssssccsssssssssssssssssssssccsssssscssssssssssssssscssssssssssssssscsssssssssscsssssssssssssssssssssssssssssssssssssssssssssssssssssssssssssssssssssssssssssssssssccccccssscsssssssssssssscscsssssssssssssscssssssssssss" /><g
     inkscape:label="Layer 1"
     inkscape:groupmode="layer"
     id="layer1"
     transform="translate(-5.9999979,-28.039034)"
     style="display:inline"><text
       xml:space="preserve"
       style="font-size:3.80938px;font-family:'New Rocker';-inkscape-font-specification:'New Rocker';text-align:start;letter-spacing:0px;writing-mode:lr-tb;direction:ltr;text-anchor:start;fill:#000000;fill-opacity:1;stroke:none;stroke-width:0.0504741"
       x="18.035286"
       y="34.122803"
       id="text1"
       inkscape:label="Role"><tspan
         style="letter-spacing:0px;fill:#000000;fill-opacity:1;stroke:none;stroke-width:0.0504743"
         x="18.035286"
         y="34.122803"
         sodipodi:role="line"
         id="tspan8">Samotář</tspan></text><text
       xml:space="preserve"
       style="font-size:3px;font-family:'New Rocker';-inkscape-font-specification:'New Rocker';text-align:start;letter-spacing:0px;writing-mode:lr-tb;direction:ltr;text-anchor:start;fill:#000000;fill-opacity:1;stroke:none;stroke-width:0.040981"
       x="42.755661"
       y="33.891289"
       id="text2"
       inkscape:label="Popis"><tspan
         sodipodi:role="line"
         style="font-style:normal;font-variant:normal;font-weight:normal;font-stretch:normal;font-size:3px;font-family:'Didact Gothic';-inkscape-font-specification:'Didact Gothic';letter-spacing:0px;stroke-width:0.0409811"
         x="42.755661"
         y="33.891289"
         id="tspan9">Můžeš se jevit jako zlý a i konkrétně jako Démon nebo Přisluhovač, i pokud jsi mrtvý. </tspan></text></g></svg>
