<?xml version="1.0" encoding="UTF-8" standalone="no"?>
<!-- Created with Inkscape (http://www.inkscape.org/) -->

<svg
   width="194mm"
   height="10mm"
   viewBox="0 0 194 10"
   version="1.1"
   id="svg1"
   inkscape:version="1.4.2 (2aeb623e1d, 2025-05-12)"
   sodipodi:docname="SpehRowSetList.svg"
   xml:space="preserve"
   xmlns:inkscape="http://www.inkscape.org/namespaces/inkscape"
   xmlns:sodipodi="http://sodipodi.sourceforge.net/DTD/sodipodi-0.dtd"
   xmlns="http://www.w3.org/2000/svg"
   xmlns:svg="http://www.w3.org/2000/svg"><sodipodi:namedview
     id="namedview1"
     pagecolor="#ffffff"
     bordercolor="#000000"
     borderopacity="0.25"
     inkscape:showpageshadow="2"
     inkscape:pageopacity="0.0"
     inkscape:pagecheckerboard="0"
     inkscape:deskcolor="#d1d1d1"
     inkscape:document-units="mm"
     inkscape:zoom="1.3425287"
     inkscape:cx="224.20377"
     inkscape:cy="60.706338"
     inkscape:window-width="1920"
     inkscape:window-height="940"
     inkscape:window-x="0"
     inkscape:window-y="0"
     inkscape:window-maximized="1"
     inkscape:current-layer="svg1"
     showgrid="true"><inkscape:grid
       id="grid1"
       units="mm"
       originx="0"
       originy="0"
       spacingx="0.99999995"
       spacingy="0.99999997"
       empcolor="#0099e5"
       empopacity="0.30196078"
       color="#0099e5"
       opacity="0.14901961"
       empspacing="5"
       enabled="true"
       visible="true" /></sodipodi:namedview><defs
     id="defs1" /><g
     id="g5"
     inkscape:label="Row"
     style="display:inline;stroke:none;stroke-width:1.00177;stroke-dasharray:none;stroke-opacity:1"
     transform="matrix(0.25939404,0,0,0.26432057,-5.8823216,-15.984109)"><rect
       style="display:inline;opacity:1;fill:#fa0000;fill-opacity:0.307692;stroke:none;stroke-width:1.00177;stroke-dasharray:none;stroke-opacity:1"
       id="rect4"
       width="611.91559"
       height="37.832848"
       x="158.65842"
       y="60.472439"
       inkscape:label="Popis" /><rect
       style="display:inline;fill:#fa0000;fill-opacity:0.307692;stroke:none;stroke-width:1.00177;stroke-dasharray:none;stroke-opacity:1"
       id="rect4-42"
       width="98.208679"
       height="37.832848"
       x="60.449734"
       y="60.472439"
       inkscape:label="Jmeno" /><rect
       style="display:inline;opacity:1;fill:#fa0000;fill-opacity:0.307692;stroke:none;stroke-width:1.00177;stroke-dasharray:none;stroke-opacity:1"
       id="rect5"
       width="37.772568"
       height="37.832848"
       x="22.677166"
       y="60.472439"
       inkscape:label="Logo" /></g><g
     inkscape:label="Layer 1"
     inkscape:groupmode="layer"
     id="layer1"
     transform="translate(-5.9999979,-28.039034)"
     style="display:inline"><text
       xml:space="preserve"
       style="font-size:3.80938px;font-family:'New Rocker';-inkscape-font-specification:'New Rocker';text-align:start;letter-spacing:0px;writing-mode:lr-tb;direction:ltr;text-anchor:start;fill:#000000;fill-opacity:1;stroke:none;stroke-width:0.0504741"
       x="18.035286"
       y="34.122803"
       id="text1"
       inkscape:label="Role"><tspan
         style="letter-spacing:0px;fill:#000000;fill-opacity:1;stroke:none;stroke-width:0.0504743"
         x="18.035286"
         y="34.122803"
         sodipodi:role="line"
         id="tspan8">Špeh</tspan></text><text
       xml:space="preserve"
       style="font-size:3px;font-family:'New Rocker';-inkscape-font-specification:'New Rocker';text-align:start;letter-spacing:0px;writing-mode:lr-tb;direction:ltr;text-anchor:start;fill:#000000;fill-opacity:1;stroke:none;stroke-width:0.040981"
       x="42.755661"
       y="32.303787"
       id="text2"
       inkscape:label="Popis"><tspan
         sodipodi:role="line"
         style="font-style:normal;font-variant:normal;font-weight:normal;font-stretch:normal;font-size:3px;font-family:'Didact Gothic';-inkscape-font-specification:'Didact Gothic';letter-spacing:0px;stroke-width:0.0409811"
         x="42.755661"
         y="32.303787"
         id="tspan9">Každou noc se podíváš do Grimoáru. </tspan><tspan
         sodipodi:role="line"
         style="font-style:normal;font-variant:normal;font-weight:normal;font-stretch:normal;font-size:3px;font-family:'Didact Gothic';-inkscape-font-specification:'Didact Gothic';letter-spacing:0px;stroke-width:0.0409811"
         x="42.755661"
         y="36.083683"
         id="tspan1">Můžeš se jevit jako hodný a i jako Měšťan nebo Outsider, i pokud jsi mrtvý.</tspan></text><path
       style="fill:#000000;stroke-width:0.0287108"
       d="M 11.403402,36.052739 C 10.671076,35.893845 10.222829,35.562876 9.7324948,34.819006 9.4116779,34.332307 9.298575,34.113299 9.132075,33.656381 9.018947,33.345929 9.0190557,33.346122 8.9773767,33.380712 c -0.020964,0.0174 -0.1768843,0.08977 -0.346486,0.160831 C 8.1900229,33.72625 8.009618,33.719817 7.2081498,33.490805 6.8366893,33.384663 6.7972679,33.335922 6.7468341,32.920426 c -0.017953,-0.147907 -0.045272,-0.276784 -0.060718,-0.286392 -0.015438,-0.0096 -0.023805,-0.05408 -0.018597,-0.09882 0.00752,-0.06453 0.053993,-0.112027 0.2248069,-0.229752 0.1875278,-0.129242 1.1712732,-0.673192 1.2174823,-0.673192 0.00931,0 0.09771,-0.03703 0.1964461,-0.08229 0.4316581,-0.197871 0.5104601,-0.219739 0.7393789,-0.205183 0.3855103,0.02452 0.9325495,0.0097 1.0497167,-0.02839 0.0758,-0.02465 0.202974,-0.123811 0.385822,-0.300824 0.150014,-0.145225 0.376111,-0.351803 0.502438,-0.459061 0.126329,-0.107259 0.274906,-0.234187 0.330175,-0.282064 0.05527,-0.04788 0.178007,-0.137739 0.272752,-0.199693 0.155985,-0.101997 0.186406,-0.111517 0.321903,-0.100731 0.262089,0.02086 0.767866,0.309919 1.385703,0.791941 0.170625,0.133115 0.32839,0.23466 0.364585,0.23466 0.04056,0 0.155874,-0.08699 0.316502,-0.238742 0.294377,-0.278119 0.372294,-0.335473 0.455753,-0.335473 0.163425,0 0.442934,0.325275 0.613552,0.714014 0.04843,0.110338 0.133209,0.294844 0.188403,0.410015 0.121735,0.254018 0.132371,0.439608 0.03811,0.665071 -0.08517,0.20373 -0.110969,0.228704 -0.378538,0.366443 -0.37063,0.190793 -0.767016,0.428787 -0.782841,0.470024 -0.01362,0.03549 0.07113,0.37539 0.08859,0.355303 0.0044,-0.0051 -9.62e-4,-0.07759 -0.01199,-0.161044 l -0.02008,-0.151739 0.131358,0.01974 c 0.07225,0.01086 0.302542,0.021 0.511768,0.02254 0.209223,0.0016 0.380412,0.01323 0.380417,0.02598 4e-6,0.01275 -0.01468,0.0815 -0.03263,0.152782 -0.0275,0.109187 -0.0241,0.157557 0.02153,0.306999 0.03901,0.127728 0.05376,0.261791 0.05271,0.478854 -0.0013,0.275327 -0.0091,0.317643 -0.08971,0.488083 -0.106692,0.225631 -0.537749,0.806335 -0.839069,1.130366 -0.260768,0.28042 -0.458779,0.348551 -0.576829,0.198474 -0.06323,-0.08038 -0.06391,-0.111135 -0.01063,-0.47617 0.01561,-0.106923 0.0096,-0.115542 -0.29414,-0.423802 -0.248854,-0.252534 -0.317156,-0.307509 -0.345956,-0.278453 -0.01974,0.01991 -0.100999,0.188157 -0.180585,0.373878 -0.296676,0.692324 -0.405256,0.851229 -0.652112,0.954373 -0.139117,0.05813 -0.533377,0.05089 -0.838913,-0.01541 z m 0.808522,-0.153495 c 0.174183,-0.07474 0.357117,-0.320031 0.423869,-0.568353 0.01835,-0.06827 0.11585,-0.29695 0.216664,-0.508179 0.177065,-0.370996 0.193158,-0.393688 0.473387,-0.667527 0.15955,-0.15591 0.30149,-0.283473 0.315423,-0.283473 0.103077,0 0.18761,0.498175 0.14522,0.855821 -0.05117,0.431693 -0.06214,0.598338 -0.03532,0.536652 0.05603,-0.128912 0.118143,-0.562779 0.118019,-0.824372 -1.42e-4,-0.326485 -0.03372,-0.430309 -0.263379,-0.81454 l -0.15301,-0.255999 -0.01438,-0.303919 c -0.013,-0.274773 -0.02219,-0.315192 -0.09585,-0.421473 l -0.08146,-0.117553 0.209266,-0.368074 c 0.208971,-0.367552 0.209268,-0.368382 0.209915,-0.58694 5.75e-4,-0.195792 -0.0082,-0.231658 -0.08343,-0.340186 -0.174476,-0.25177 -0.79295,-0.733703 -1.212713,-0.944981 -0.159839,-0.08045 -0.420288,-0.146834 -0.576095,-0.146834 -0.239657,0 -0.611052,0.308488 -1.9950062,1.657088 -0.2806263,0.273456 -0.5732863,0.542496 -0.6503565,0.597865 -0.07707,0.05537 -0.1474777,0.119826 -0.1564618,0.143238 -0.035256,0.09188 0.1677923,0.822434 0.3428978,1.23372 0.1732627,0.406957 0.2280809,0.523161 0.3337855,0.70757 0.309178,0.539371 0.6711472,0.943121 0.9979572,1.113146 0.231674,0.120529 0.67246,0.277202 0.891324,0.316811 0.212141,0.03839 0.539443,0.03352 0.639738,-0.0095 z m -0.56796,-0.124003 c -0.246884,-0.05774 -0.580747,-0.179604 -0.819376,-0.299066 -0.396368,-0.198427 -0.59596,-0.419182 -1.0937292,-1.209689 -0.07706,-0.12238 -0.1340698,-0.222509 -0.1266873,-0.222509 0.0074,0 0.087073,0.100129 0.1770913,0.222509 0.4117882,0.559828 1.1676082,1.157257 1.7953482,1.419111 0.115999,0.04839 0.21629,0.09287 0.222869,0.09886 0.01533,0.01394 -0.08088,0.0082 -0.155516,-0.0092 z m 0.21533,-0.07187 c -0.22132,-0.03961 -0.242755,-0.07864 -0.03272,-0.0596 0.212169,0.01924 0.395548,-0.02731 0.550891,-0.13984 0.134392,-0.09735 0.146724,-0.07362 0.02882,0.05546 -0.133402,0.146058 -0.296073,0.188874 -0.546989,0.143975 z m 0.375589,-1.156953 c -0.0012,-0.01579 0.02282,-0.177289 0.05339,-0.358885 0.06737,-0.400257 0.142627,-0.624975 0.27735,-0.828133 0.05596,-0.08439 0.09522,-0.159958 0.08724,-0.167935 -0.008,-0.008 -0.188068,0.01961 -0.400203,0.06132 -0.382432,0.07518 -0.388225,0.07543 -0.683819,0.03068 -0.163965,-0.02483 -0.35523,-0.0521 -0.425033,-0.06061 -0.186698,-0.02278 -0.34844,-0.08106 -0.748765,-0.269845 -0.197387,-0.09308 -0.4299442,-0.195967 -0.5167932,-0.228634 l -0.15791,-0.05939 0.129198,0.01801 c 0.07106,0.0099 0.1721852,0.03571 0.2247242,0.05733 0.08258,0.03398 0.109817,0.03324 0.200974,-0.0055 0.058,-0.02467 0.124832,-0.0496 0.148518,-0.0554 0.02369,-0.0058 0.146425,-0.05065 0.272752,-0.09966 0.678768,-0.26334 0.598031,-0.244023 1.019864,-0.244023 0.379146,0 0.392576,0.0021 0.574215,0.09209 0.313692,0.15532 0.518054,0.365916 0.600464,0.618782 0.03419,0.104908 0.03158,0.112997 -0.09285,0.28736 -0.175534,0.24599 -0.350927,0.588596 -0.435271,0.850249 -0.03877,0.120281 -0.08296,0.257454 -0.09818,0.304827 -0.01522,0.04737 -0.02867,0.07321 -0.02987,0.05742 z m 0.414382,-0.760836 c 0.02298,-0.07525 0.204566,-0.373239 0.227448,-0.373239 0.01285,0 -0.206519,0.401767 -0.235141,0.430662 -0.0078,0.0079 -0.0044,-0.01795 0.0077,-0.05742 z m -1.364186,-0.399769 c -0.267716,-0.05481 -0.470298,-0.11567 -0.45061,-0.135358 0.007,-0.007 0.107932,0.01392 0.224434,0.04633 0.12384,0.03446 0.354922,0.06695 0.55635,0.07822 0.215576,0.01206 0.317664,0.02696 0.272752,0.03981 -0.120336,0.0344 -0.346373,0.02354 -0.602926,-0.029 z m -1.6795804,-0.71995 -0.086133,-0.02192 0.07726,-0.0034 c 0.04249,-0.0018 0.085246,0.0095 0.095005,0.02531 0.0098,0.01579 0.01375,0.02718 0.0089,0.02531 -0.0049,-0.0018 -0.047632,-0.01326 -0.095005,-0.02531 z m 0.4450164,0.0038 c 0,-0.01139 0.08075,-0.03832 0.179443,-0.05984 0.09869,-0.02153 0.229907,-0.05663 0.291585,-0.07801 0.06168,-0.02137 0.116942,-0.03406 0.122806,-0.0282 0.01587,0.01588 -0.411991,0.163733 -0.509539,0.176078 -0.04636,0.0058 -0.08429,0.0013 -0.08429,-0.01003 z m 3.156869,-0.06371 c -0.01763,-0.03293 -0.02664,-0.06529 -0.02003,-0.0719 0.0066,-0.0066 0.02676,0.02034 0.04478,0.05988 0.03957,0.08684 0.0203,0.09619 -0.02474,0.01202 z m -2.510876,-1.539588 c 0.225108,-0.217982 0.600064,-0.534494 0.732125,-0.618009 0.258534,-0.163498 0.335132,-0.181646 0.579228,-0.137229 l 0.210318,0.03827 -0.200976,0.03665 c -0.110536,0.02015 -0.229345,0.04306 -0.264019,0.0509 -0.179573,0.04061 -0.812561,0.418934 -0.941512,0.562725 -0.0314,0.03502 -0.08308,0.07686 -0.114843,0.09299 -0.05774,0.02932 -0.05774,0.02931 -3.26e-4,-0.02629 z m 2.295074,-0.133214 c -0.204204,-0.149572 -0.520253,-0.316489 -0.759048,-0.400884 -0.03828,-0.01353 -0.03828,-0.01545 0,-0.01727 0.08398,-0.004 0.400235,0.107165 0.550734,0.193573 0.129338,0.07426 0.439401,0.349445 0.393734,0.349445 -0.0082,0 -0.09166,-0.05619 -0.18542,-0.124867 z m -4.6604964,1.802468 c 0.100872,-0.02763 0.2480028,-0.08198 0.3269579,-0.120774 0.1493803,-0.0734 0.4988437,-0.321929 0.501128,-0.356394 0.00215,-0.03263 -0.2383788,-0.05831 -0.391445,-0.0418 -0.09654,0.01042 -0.3171823,0.09661 -0.6790276,0.265251 -0.2948112,0.137401 -0.5360195,0.259885 -0.5360195,0.272184 0,0.062 0.5305972,0.04941 0.7784062,-0.01847 z m -0.2715102,-0.34728 c 0.2085445,-0.10004 0.3912418,-0.181891 0.4059936,-0.181891 0.01475,0 0.062338,-0.02794 0.1057447,-0.06208 l 0.078924,-0.06208 -0.077507,-0.04061 c -0.071466,-0.03744 -0.073976,-0.04451 -0.032215,-0.09066 0.036647,-0.04049 0.038481,-0.05862 0.00963,-0.09498 -0.019611,-0.02472 -0.055036,-0.05186 -0.078724,-0.06033 -0.025817,-0.0092 -0.014321,-0.01647 0.028709,-0.01808 0.03948,-0.0015 0.1258293,-0.02152 0.191893,-0.04453 0.1389226,-0.0484 0.581539,-0.06335 0.655202,-0.02213 0.037815,0.02116 -5.674e-4,0.03297 -0.1574982,0.04843 -0.1141289,0.01124 -0.2352283,0.03163 -0.2691097,0.0453 l -0.061605,0.02485 0.064601,0.0019 c 0.07709,0.0021 0.084258,0.04494 0.014358,0.08565 -0.047854,0.02787 -0.047854,0.02931 0,0.03014 0.061361,0.001 0.066902,0.08241 0.00718,0.105334 -0.094484,0.03625 -0.033902,0.0678 0.1302085,0.0678 0.1145054,0 0.1984567,-0.0165 0.2475205,-0.04865 0.068307,-0.04475 0.069949,-0.05034 0.02052,-0.06976 -0.050746,-0.01994 -0.050546,-0.02123 0.0037,-0.02323 0.076183,-0.0028 0.251089,-0.110834 0.2313054,-0.142844 -0.00857,-0.01386 0.017554,-0.03352 0.05804,-0.04368 0.040486,-0.01016 0.068344,-0.03415 0.061909,-0.0533 -0.0064,-0.01916 0.0265,-0.05101 0.0732,-0.07079 0.06453,-0.02733 0.07754,-0.04483 0.0542,-0.07295 -0.02325,-0.02801 -0.01656,-0.03807 0.02755,-0.04139 0.05873,-0.0044 0.13985,-0.05672 0.139733,-0.09008 -2.9e-5,-0.0099 -0.225327,-0.01815 -0.5006467,-0.0183 -0.4878004,-2.82e-4 -0.499347,0.0011 -0.4521318,0.05363 0.026645,0.02966 0.074037,0.06346 0.1053075,0.07514 0.041366,0.01544 0.00555,0.03016 -0.1315504,0.05403 -0.1036224,0.01804 -0.2220348,0.03281 -0.2631383,0.03281 -0.0411,0 -0.1073633,0.01241 -0.1472432,0.02757 -0.06975,0.02652 -0.071252,0.0248 -0.039435,-0.04503 0.01819,-0.03993 0.066133,-0.09157 0.1065295,-0.114749 l 0.073448,-0.04215 -0.071777,0.01861 c -0.285014,0.07389 -1.5934907,0.745398 -1.6280749,0.835522 -0.04073,0.106132 0.093921,0.05776 0.38135,-0.136994 0.1763918,-0.11952 0.5565642,-0.318242 0.5884757,-0.307605 0.015453,0.0052 -0.020683,0.03506 -0.080309,0.06645 -0.172682,0.09092 -0.563045,0.331093 -0.6182013,0.380345 -0.092849,0.08291 -0.025558,0.07237 0.1424231,-0.02231 0.091517,-0.05158 0.1954629,-0.112772 0.2309933,-0.135978 0.035529,-0.02321 0.064601,-0.03464 0.064601,-0.02541 0,0.0092 -0.096008,0.08157 -0.2133513,0.16075 -0.1945901,0.131308 -0.2762896,0.202311 -0.2327894,0.202311 0.00914,0 0.06779,-0.0323 0.1303225,-0.07178 0.1558241,-0.09837 0.172506,-0.09003 0.057418,0.02871 -0.053564,0.05527 -0.082704,0.100488 -0.064749,0.100488 0.017953,0 0.040634,-0.01292 0.050391,-0.02871 0.028428,-0.046 0.071651,-0.03307 0.052891,0.01582 -0.026631,0.0694 0.095538,0.02794 0.5257845,-0.178452 z m -0.3422882,-0.0419 c 0.019477,-0.01962 0.042646,-0.02844 0.051478,-0.0196 0.00884,0.0088 -0.0071,0.02489 -0.035411,0.03568 -0.040922,0.01558 -0.044214,0.01228 -0.016075,-0.01607 z"
       id="path3"
       sodipodi:nodetypes="sssssssssssssssssssssssssssssscsssssssssssssssssssssscscsscssssssssssssssssssssssssssssssssssscssssssssssssssssssssssscssssssssssssssssscsssssssssssssssssssssscssssssssscssssssssssssssccssssssscssssssssssssssssssssss" /></g></svg>
