<?xml version="1.0" encoding="UTF-8" standalone="no"?>
<!-- Created with Inkscape (http://www.inkscape.org/) -->

<svg
   width="194mm"
   height="10mm"
   viewBox="0 0 194 10"
   version="1.1"
   id="svg1"
   inkscape:version="1.4.2 (2aeb623e1d, 2025-05-12)"
   sodipodi:docname="VojakRowSetList.svg"
   xml:space="preserve"
   xmlns:inkscape="http://www.inkscape.org/namespaces/inkscape"
   xmlns:sodipodi="http://sodipodi.sourceforge.net/DTD/sodipodi-0.dtd"
   xmlns="http://www.w3.org/2000/svg"
   xmlns:svg="http://www.w3.org/2000/svg"><sodipodi:namedview
     id="namedview1"
     pagecolor="#ffffff"
     bordercolor="#000000"
     borderopacity="0.25"
     inkscape:showpageshadow="2"
     inkscape:pageopacity="0.0"
     inkscape:pagecheckerboard="0"
     inkscape:deskcolor="#d1d1d1"
     inkscape:document-units="mm"
     inkscape:zoom="4.2464181"
     inkscape:cx="773.12218"
     inkscape:cy="65.349194"
     inkscape:window-width="1920"
     inkscape:window-height="940"
     inkscape:window-x="0"
     inkscape:window-y="0"
     inkscape:window-maximized="1"
     inkscape:current-layer="svg1"
     showgrid="true"><inkscape:grid
       id="grid1"
       units="mm"
       originx="0"
       originy="0"
       spacingx="0.99999995"
       spacingy="0.99999997"
       empcolor="#0099e5"
       empopacity="0.30196078"
       color="#0099e5"
       opacity="0.14901961"
       empspacing="5"
       enabled="true"
       visible="true" /></sodipodi:namedview><defs
     id="defs1" /><g
     id="g5"
     inkscape:label="Row"
     style="display:inline;stroke:none;stroke-width:1.00177;stroke-dasharray:none;stroke-opacity:1"
     transform="matrix(0.2647424,0,0,0.26432057,-6.0036072,-15.984109)"><rect
       style="display:inline;opacity:1;fill:#fa0000;fill-opacity:0.307692;stroke:none;stroke-width:0.989325;stroke-dasharray:none;stroke-opacity:1"
       id="rect4"
       width="596.80646"
       height="37.832848"
       x="158.65842"
       y="60.472439"
       inkscape:label="Popis" /><rect
       style="display:inline;fill:#fa0000;fill-opacity:0.307692;stroke:none;stroke-width:1.00177;stroke-dasharray:none;stroke-opacity:1"
       id="rect4-42"
       width="98.208679"
       height="37.832848"
       x="60.449734"
       y="60.472439"
       inkscape:label="Jmeno" /><rect
       style="display:inline;opacity:1;fill:#fa0000;fill-opacity:0.307692;stroke:none;stroke-width:1.00177;stroke-dasharray:none;stroke-opacity:1"
       id="rect5"
       width="37.772568"
       height="37.832848"
       x="22.677166"
       y="60.472439"
       inkscape:label="Logo" /></g><g
     inkscape:label="Layer 1"
     inkscape:groupmode="layer"
     id="layer1"
     transform="translate(-5.9999979,-28.039034)"
     style="display:inline"><text
       xml:space="preserve"
       style="font-size:3.80938px;font-family:'New Rocker';-inkscape-font-specification:'New Rocker';text-align:start;letter-spacing:0px;writing-mode:lr-tb;direction:ltr;text-anchor:start;fill:#000000;fill-opacity:1;stroke:none;stroke-width:0.0504741"
       x="18.035286"
       y="34.122803"
       id="text1"
       inkscape:label="Role"><tspan
         style="letter-spacing:0px;fill:#000000;fill-opacity:1;stroke:none;stroke-width:0.0504743"
         x="18.035286"
         y="34.122803"
         sodipodi:role="line"
         id="tspan8">Voják</tspan></text><text
       xml:space="preserve"
       style="font-size:3px;font-family:'New Rocker';-inkscape-font-specification:'New Rocker';text-align:start;letter-spacing:0px;writing-mode:lr-tb;direction:ltr;text-anchor:start;fill:#000000;fill-opacity:1;stroke:none;stroke-width:0.040981"
       x="42.755661"
       y="33.891289"
       id="text2"
       inkscape:label="Popis"><tspan
         sodipodi:role="line"
         style="font-style:normal;font-variant:normal;font-weight:normal;font-stretch:normal;font-size:3px;font-family:'Didact Gothic';-inkscape-font-specification:'Didact Gothic';letter-spacing:0px;stroke-width:0.0409811"
         x="42.755661"
         y="33.891289"
         id="tspan9">Zvládneš se ubránit Démonovi, nemůže tě tedy zabít.</tspan></text><path
       style="fill:#000000;stroke-width:0.031741"
       d="m 10.750984,37.168657 c -0.08729,-0.04319 -0.201555,-0.101158 -0.253928,-0.12882 C 10.079629,36.819362 9.9774703,36.75898 9.8939759,36.683375 9.8416031,36.635952 9.7344769,36.553937 9.6559179,36.501118 9.2170431,36.206043 8.6529419,35.549438 8.2988757,34.921542 7.7208571,33.896493 7.2973981,32.380463 7.2222537,31.067111 l -0.02022,-0.353405 0.092199,-0.09706 c 0.05071,-0.05338 0.1457619,-0.124607 0.2112279,-0.158278 0.065466,-0.03367 0.1190291,-0.06753 0.1190291,-0.07525 0,-0.0077 -0.093386,-0.0053 -0.2075231,0.0053 l -0.2075232,0.01938 0.00914,-0.314178 0.00914,-0.314178 0.1380658,-0.01587 0.1380657,-0.01587 -0.072456,-0.09174 -0.072457,-0.09174 0.1089668,0.02028 c 0.059931,0.01115 0.3232186,0.02933 0.5850825,0.04039 0.4027895,0.01701 0.5469987,0.0092 0.9363617,-0.05044 0.6970403,-0.106853 1.3181441,-0.323196 1.7344011,-0.604124 0.07783,-0.05252 0.168164,-0.0955 0.20075,-0.0955 0.03259,0 0.06504,-0.01738 0.07212,-0.03862 0.008,-0.02401 0.05403,2.53e-4 0.121674,0.06412 0.379419,0.358289 1.090098,0.644209 1.918042,0.771665 0.307604,0.04735 1.167798,0.05925 1.430901,0.01979 l 0.16126,-0.02418 0.08473,0.167476 c 0.07616,0.150522 0.08473,0.20197 0.08473,0.508235 0,0.18742 -0.0127,0.340762 -0.02824,0.340762 -0.01553,0 -0.0376,0.174972 -0.04905,0.388828 -0.04851,0.906154 -0.312435,2.091097 -0.662364,2.973756 -0.337063,0.850207 -0.68303,1.398576 -0.882361,1.398576 -0.06239,0 -0.351004,-0.177185 -0.566069,-0.347519 -0.07258,-0.05748 -0.1409,-0.09556 -0.151835,-0.08463 -0.01094,0.01094 0.04462,0.116214 0.123448,0.23395 0.07883,0.117737 0.183264,0.285484 0.232069,0.372773 0.0488,0.08729 0.108799,0.181938 0.133319,0.210334 0.0396,0.04585 0.01691,0.07732 -0.202788,0.281315 -0.136051,0.126327 -0.325927,0.281597 -0.421944,0.345043 -0.09602,0.06345 -0.181717,0.123963 -0.190446,0.134479 -0.03551,0.04278 -0.736891,0.447667 -0.878864,0.507346 -0.084,0.0353 -0.190634,0.08488 -0.236971,0.11017 -0.04634,0.02529 -0.08919,0.04433 -0.09522,0.04231 -0.006,-0.002 -0.08239,-0.039 -0.169679,-0.08219 z m 0.233158,-0.544822 c 0.04634,-0.03263 0.141387,-0.08956 0.211218,-0.126493 0.06983,-0.03694 0.176956,-0.111 0.238058,-0.164587 0.09538,-0.08365 0.09987,-0.09323 0.03174,-0.06776 -0.04364,0.01632 -0.08649,0.02929 -0.09522,0.02882 -0.05471,-0.003 -0.193753,0.06243 -0.311256,0.146349 l -0.13668,0.09762 -0.223223,-0.120226 c -0.122774,-0.06612 -0.228721,-0.114732 -0.235438,-0.108013 -0.0068,0.0067 0.04758,0.0614 0.120661,0.121503 0.07308,0.06011 0.169117,0.140975 0.213412,0.179703 0.09817,0.08583 0.08477,0.08489 0.18673,0.01308 z m -0.135519,-0.456226 c 0.01096,-0.01095 -0.0044,-0.09305 -0.03405,-0.182425 -0.04441,-0.133714 -0.04718,-0.178893 -0.01566,-0.255008 0.02857,-0.06898 0.02945,-0.117934 0.0035,-0.192519 -0.02749,-0.07886 -0.02473,-0.121374 0.01304,-0.200964 0.03924,-0.08268 0.04636,-0.232494 0.03936,-0.828104 l -0.0085,-0.727157 -0.111093,-0.02935 c -0.0611,-0.01614 -0.173067,-0.02801 -0.248812,-0.02637 -0.110014,0.0024 -0.130789,-0.0053 -0.103271,-0.03853 0.02566,-0.03092 0.01896,-0.05552 -0.02624,-0.09643 -0.05694,-0.05153 -0.0657,-0.05163 -0.141916,-0.0017 -0.04467,0.02927 -0.18872,0.173713 -0.3200956,0.320976 -0.1313749,0.147263 -0.2388636,0.254733 -0.2388636,0.238822 0,-0.01591 0.020273,-0.04575 0.04505,-0.06632 0.024778,-0.02056 0.1404649,-0.177992 0.2570823,-0.349841 0.1645539,-0.242489 0.2070709,-0.328086 0.1898739,-0.382267 -0.01996,-0.06288 -0.03683,-0.06784 -0.1697938,-0.04995 -0.1294541,0.01742 -0.1408059,0.01445 -0.092172,-0.02411 0.04662,-0.03696 0.049924,-0.05987 0.0207,-0.143693 l -0.034794,-0.0997 h -0.691877 c -0.611235,0 -0.6941233,0.006 -0.7117308,0.05194 -0.01815,0.04729 -0.02555,0.04685 -0.082943,-0.0051 -0.034658,-0.03136 -0.071373,-0.04867 -0.081589,-0.03845 -0.025923,0.02593 0.016983,0.150324 0.051847,0.150324 0.015734,0 0.02061,0.02083 0.010838,0.0463 -0.030723,0.08006 0.047286,0.250003 0.1806442,0.393525 0.1179847,0.126976 0.1244481,0.142757 0.079028,0.192946 -0.027206,0.03006 -0.049466,0.06656 -0.049466,0.0811 0,0.01454 0.079492,0.183278 0.1766493,0.374965 0.2073285,0.409051 0.4738377,0.815627 0.5346412,0.815627 0.023537,0 0.059227,-0.03968 0.079314,-0.08817 0.020086,-0.04849 0.06467,-0.105746 0.099074,-0.127232 0.077213,-0.04822 0.077208,-0.04799 -0.00279,0.132873 -0.035941,0.08125 -0.057051,0.173871 -0.046911,0.205821 0.010141,0.03195 0.1173527,0.149402 0.2382492,0.261004 0.4357637,0.402263 0.6337117,0.546886 0.7918007,0.578504 0.102274,0.02046 0.10473,0.01846 0.09114,-0.07413 -0.01749,-0.119182 0.02832,-0.12399 0.0749,-0.0079 0.07863,0.196023 0.101693,0.228029 0.158115,0.219419 0.03179,-0.0048 0.06677,-0.01779 0.07773,-0.02874 z m 0.466722,-0.04363 c 0.318136,-0.133888 0.93957,-0.519214 0.838365,-0.519837 -0.01409,-9.5e-5 -0.160444,0.06412 -0.325224,0.142677 -0.164781,0.07856 -0.304481,0.142835 -0.310445,0.142835 -0.0059,0 -0.0306,-0.167831 -0.05476,-0.372957 l -0.04392,-0.372958 -0.02126,0.190447 c -0.0117,0.104744 -0.02282,0.284773 -0.02471,0.400063 -0.0036,0.221583 -0.04076,0.289928 -0.225695,0.415604 -0.114512,0.07782 -0.05801,0.06909 0.16766,-0.02587 z m 0.787389,-1.110331 0.09798,-0.019 -0.02656,-0.195255 c -0.0146,-0.10739 -0.02656,-0.316664 -0.02656,-0.465054 V 34.06454 l 0.274308,-0.0091 0.274308,-0.0091 0.02168,-0.144558 c 0.01192,-0.07951 0.0148,-0.151431 0.0064,-0.159833 -0.0084,-0.0084 -0.07018,-3e-5 -0.137282,0.01861 -0.0671,0.01864 -0.184257,0.03395 -0.260346,0.03406 -0.135476,1.2e-4 -0.137854,-0.0016 -0.114852,-0.08711 0.01292,-0.04801 0.03386,-0.140268 0.04655,-0.205022 0.01269,-0.06476 0.04701,-0.154283 0.07628,-0.198954 0.04859,-0.07416 0.04878,-0.08292 0.0022,-0.100798 -0.05179,-0.01988 -0.426269,0.0091 -0.452158,0.03499 -0.0078,0.0078 0.01607,0.05251 0.05297,0.09943 0.052,0.0661 0.0671,0.129811 0.0671,0.283061 v 0.197757 l -0.221692,-0.0015 c -0.12193,-8.17e-4 -0.228616,0.0054 -0.237079,0.01388 -0.0085,0.0085 -0.0066,0.06933 0.0041,0.135257 l 0.01945,0.119869 0.201824,-0.01044 c 0.217181,-0.01124 0.227159,-0.0022 0.168388,0.152372 -0.01832,0.04818 -0.04637,0.188371 -0.06235,0.311541 -0.01597,0.123172 -0.03886,0.293406 -0.05085,0.378296 l -0.02181,0.154348 0.100028,-0.01944 c 0.05502,-0.0107 0.144117,-0.028 0.198004,-0.03845 z m 0.824493,-0.470398 c 0.299178,-0.340745 0.644829,-0.90631 0.761948,-1.246721 0.09403,-0.273317 0.09659,-0.269582 -0.176597,-0.257889 -0.265406,0.01136 -0.307274,0.04014 -0.103278,0.07099 0.238112,0.03601 0.237917,0.03301 0.03046,0.469955 -0.165497,0.348581 -0.267829,0.521952 -0.570526,0.96658 -0.09309,0.136748 -0.06333,0.13525 0.05799,-0.003 z m -1.763378,-0.981849 c 0.168904,-0.07865 0.37986,-0.287942 0.345796,-0.343059 -0.01163,-0.01881 -0.09722,0.04279 -0.199081,0.143264 -0.09828,0.09694 -0.228679,0.19779 -0.28978,0.224103 -0.0611,0.02631 -0.08967,0.04826 -0.06348,0.04877 0.02619,5.3e-4 0.119133,-0.03237 0.206547,-0.07308 z m -0.06054,-0.31896 c 0.09382,-0.09382 0.10792,-0.128556 0.10792,-0.265913 0,-0.108678 -0.01648,-0.17159 -0.05278,-0.201556 -0.04404,-0.03635 -0.05516,-0.03648 -0.06716,-8.17e-4 -0.02432,0.07229 -0.197943,0.254656 -0.261724,0.274899 -0.03318,0.01053 -0.08943,0.0036 -0.125009,-0.01547 -0.05256,-0.02812 -0.06468,-0.0251 -0.06468,0.0162 0,0.08547 0.06253,0.173954 0.168667,0.238668 0.137584,0.08389 0.169888,0.07885 0.294753,-0.04602 z m -0.825634,-0.534838 c 0.05822,-0.115375 0.200473,-0.277734 0.243349,-0.277734 0.01538,0 -0.0016,0.04148 -0.03768,0.09219 -0.0361,0.0507 -0.06526,0.111408 -0.0648,0.1349 4.68e-4,0.02349 0.02328,0.0066 0.0507,-0.03755 0.04187,-0.0674 0.235096,-0.221278 0.27787,-0.221278 0.0071,0 -0.01413,0.05301 -0.04717,0.117806 -0.07888,0.154726 -0.0774,0.244307 0.0019,0.114265 0.104248,-0.170973 0.485549,-0.230543 0.649614,-0.101488 0.14665,0.115354 0.123905,0.04283 -0.03902,-0.124449 -0.187329,-0.192324 -0.339804,-0.244156 -0.627579,-0.213338 -0.237191,0.0254 -0.349216,0.12243 -0.411168,0.356129 -0.02225,0.08394 -0.05047,0.177612 -0.06271,0.208163 -0.03865,0.09649 0.01237,0.06008 0.0667,-0.04762 z m 1.766756,0.04011 c 0.04865,-3.84e-4 0.0563,-0.03883 0.06162,-0.309909 l 0.0061,-0.309476 0.01773,0.30154 0.01773,0.301541 0.142835,0.02145 c 0.241511,0.03628 1.396608,0.03035 1.396608,-0.0071 0,-0.05352 -0.09122,-0.21516 -0.248236,-0.439898 l -0.146173,-0.209218 0.213057,0.190447 c 0.117181,0.104745 0.213065,0.201159 0.213075,0.214252 9e-6,0.01309 0.01252,0.02381 0.02779,0.02381 0.01527,0 0.03732,-0.04643 0.04898,-0.103159 0.04594,-0.223469 0.146162,-1.173315 0.166231,-1.575538 l 0.0212,-0.424925 -0.108287,0.02484 c -0.05956,0.01366 -0.372533,0.02521 -0.695498,0.02567 -0.53678,7.43e-4 -0.600009,-0.0051 -0.736239,-0.0681 -0.265544,-0.122823 -0.270363,-0.118362 -0.294099,0.272286 -0.0277,0.455987 -0.05061,0.52394 -0.03234,0.09596 0.01635,-0.383146 -0.01319,-0.492143 -0.140986,-0.52005 -0.09963,-0.02176 -0.462815,-0.161071 -0.57873,-0.221994 -0.08713,-0.04579 -0.185549,-0.05894 -0.185549,-0.02477 0,0.01073 0.03801,0.08936 0.08448,0.174735 0.04646,0.08537 0.07578,0.163924 0.06515,0.174556 -0.01063,0.01063 -0.07007,-0.01203 -0.132096,-0.05036 l -0.112763,-0.0697 v 0.887637 c 0,0.87102 0.0013,0.887958 0.06572,0.904823 0.04857,0.0127 0.09619,-0.01644 0.182511,-0.111674 0.135303,-0.149286 0.154506,-0.257547 0.160693,-0.905887 0.0022,-0.235585 0.01622,-0.388828 0.03545,-0.388828 0.01988,0 0.03186,0.198595 0.03206,0.531663 l 3.24e-4,0.531662 0.229803,-0.238058 c 0.208694,-0.216191 0.387514,-0.378847 0.477922,-0.434722 0.06062,-0.03747 -0.09247,0.158242 -0.327633,0.418852 -0.238392,0.264182 -0.34867,0.41694 -0.348872,0.483266 -1.56e-4,0.0539 0.139765,-0.0016 0.26066,-0.103266 0.0925,-0.07784 0.215338,-0.105706 0.215338,-0.04886 0,0.01628 -0.0281,0.03852 -0.06245,0.04943 -0.03435,0.01091 -0.148616,0.08325 -0.253928,0.160779 -0.214109,0.157618 -0.237599,0.232663 -0.13812,0.441272 0.05029,0.105477 0.05666,0.108896 0.111093,0.05964 0.05509,-0.04986 0.05774,-0.04499 0.05774,0.106085 0,0.179515 0.01892,0.211607 0.110287,0.187057 0.03536,-0.0095 0.08929,-0.01747 0.119836,-0.01771 z m 0.499921,-0.962276 c 0,-0.06208 0.377109,-0.666047 0.484509,-0.775982 0.15119,-0.154757 0.262845,-0.184555 0.214434,-0.05723 -0.02847,0.07488 -0.0242,0.07802 0.119124,0.08729 l 0.148655,0.0096 -0.198424,0.105411 c -0.112652,0.05984 -0.321589,0.222618 -0.48336,0.376565 -0.156715,0.149134 -0.284938,0.263583 -0.284938,0.254329 z M 8.6719031,32.71387 c 9.53e-5,-0.03804 -0.3331934,-0.08675 -0.3729182,-0.0545 -0.073045,0.05929 -0.040989,0.07327 0.1666012,0.07265 0.1134528,-3.36e-4 0.2062954,-0.0085 0.206317,-0.01815 z M 8.2116302,32.387741 c -0.023316,-0.05539 -0.064889,-0.143557 -0.092384,-0.19593 -0.027495,-0.05237 -0.050079,-0.134654 -0.050186,-0.182847 -9.52e-5,-0.04819 -0.027791,-0.212454 -0.06152,-0.365023 -0.033728,-0.152568 -0.067494,-0.320248 -0.075035,-0.372622 -0.00754,-0.05237 -0.0077,0.03333 -3.599e-4,0.190447 0.016466,0.352215 0.086759,0.738326 0.1755496,0.964279 0.058978,0.150084 0.071894,0.164194 0.1067123,0.116578 0.031792,-0.04348 0.031244,-0.07405 -0.00278,-0.154882 z m 0.2971101,-0.0769 c 0.081039,-0.08292 0.2251302,-0.254326 0.3202021,-0.380893 0.095072,-0.126567 0.1832164,-0.230123 0.1958761,-0.230123 0.01266,0 0.122537,0.08927 0.2441713,0.198382 0.230529,0.206792 0.6263849,0.522274 0.5996452,0.477895 -0.048875,-0.08112 -0.4031635,-0.845049 -0.4031635,-0.869318 0,-0.01603 0.029779,-0.02915 0.066175,-0.02915 0.036396,0 0.1857305,-0.06256 0.3318548,-0.139021 l 0.2656797,-0.13902 -0.2921781,-0.02131 c -0.1606982,-0.01172 -0.3316974,-0.02261 -0.3799984,-0.02421 -0.099158,-0.0033 -0.09239,0.01395 -0.1783519,-0.454089 -0.053882,-0.293372 -0.061034,-0.310644 -0.094444,-0.228057 -0.019881,0.04914 -0.036268,0.106278 -0.036415,0.126964 -1.56e-4,0.02069 -0.039885,0.144569 -0.088307,0.275295 -0.08581,0.231668 -0.091227,0.238251 -0.2139849,0.260035 -0.06927,0.0123 -0.2771125,0.02317 -0.461872,0.02417 -0.1847597,10e-4 -0.345732,0.01163 -0.3577164,0.02362 -0.011985,0.01198 0.060623,0.05648 0.1613503,0.09889 0.1007275,0.0424 0.2222843,0.10489 0.270127,0.138862 0.047842,0.03397 0.1371142,0.0699 0.1983818,0.07984 0.061267,0.0099 0.1113952,0.02074 0.1113952,0.02399 0,0.0033 -0.04216,0.08835 -0.093688,0.189101 -0.051529,0.100757 -0.1108993,0.235342 -0.1319344,0.29908 -0.021035,0.06373 -0.07886,0.181891 -0.1284992,0.262567 -0.1482251,0.240896 -0.1160507,0.253168 0.095694,0.0365 z m 2.0950187,-0.667679 c -0.0024,-0.204513 -0.01328,-0.607519 -0.02414,-0.895569 l -0.01975,-0.523728 -0.02259,0.365023 c -0.01242,0.200762 -0.0289,0.618397 -0.0366,0.928078 -0.01362,0.546935 -0.01227,0.562126 0.04673,0.530547 0.05494,-0.02941 0.06033,-0.06804 0.05635,-0.404351 z M 7.8676982,30.803139 c -0.00881,-0.02182 -0.01601,-0.0039 -0.01601,0.03968 0,0.04364 0.0072,0.0615 0.01601,0.03968 0.00881,-0.02182 0.00881,-0.05753 0,-0.07935 z m -0.1479856,-0.43644 c 0,-0.01745 -0.014284,-0.03174 -0.031741,-0.03174 -0.017458,0 -0.031741,0.01429 -0.031741,0.03174 0,0.01746 0.014284,0.03174 0.031741,0.03174 0.017458,0 0.031741,-0.01428 0.031741,-0.03174 z m 2.9201784,-0.488101 c 0,-0.115902 -0.07174,-0.156355 -0.229025,-0.129137 l -0.135998,0.02354 0.137206,0.04634 c 0.07546,0.02549 0.144838,0.06623 0.154167,0.09054 0.02715,0.07076 0.07365,0.05102 0.07365,-0.03127 z m 0.606014,-0.02804 c 0.156025,0.02093 0.158732,-0.0081 0.0067,-0.07164 -0.140054,-0.05852 -0.20006,-0.04246 -0.20006,0.05353 0,0.05121 0.0096,0.06122 0.03467,0.03615 0.01964,-0.01965 0.08843,-0.02746 0.158705,-0.01804 z m 0.250995,0.0083 c 0,-0.01745 -0.01429,-0.03174 -0.03174,-0.03174 -0.01745,0 -0.03174,0.01429 -0.03174,0.03174 0,0.01746 0.01429,0.03174 0.03174,0.03174 0.01746,0 0.03174,-0.01429 0.03174,-0.03174 z"
       id="path1"
       sodipodi:nodetypes="sssssscsssscccccccsssssscsscsssssssssssssssssssssscscssssssssssscssssssssssssscssssssssssssssssssssssscssscssssccsscccssscssssssscssscsssscsscssssssssssssssssssssssssssssssssssssssssscccssscssssscssssssssssscsssssscssscsssssssssssssscssscsscsscsssssssssssssscsssscsssssssssssssscssssssssssssssscsssssssssssss" /></g></svg>
