<?xml version="1.0" encoding="UTF-8" standalone="no"?>
<svg
   version="1.2"
   viewBox="0 0 113.38583 113.38583"
   width="30mm"
   height="30mm"
   id="svg1"
   sodipodi:docname="XXXPříšerkaIsTheDemonReminderTokenLaser.svg"
   inkscape:version="1.4.2 (f4327f4, 2025-05-13)"
   xml:space="preserve"
   xmlns:inkscape="http://www.inkscape.org/namespaces/inkscape"
   xmlns:sodipodi="http://sodipodi.sourceforge.net/DTD/sodipodi-0.dtd"
   xmlns="http://www.w3.org/2000/svg"
   xmlns:svg="http://www.w3.org/2000/svg"><sodipodi:namedview
     id="namedview1"
     pagecolor="#ffffff"
     bordercolor="#666666"
     borderopacity="1.0"
     inkscape:showpageshadow="2"
     inkscape:pageopacity="0.0"
     inkscape:pagecheckerboard="0"
     inkscape:deskcolor="#d1d1d1"
     inkscape:zoom="5.6568542"
     inkscape:cx="48.70198"
     inkscape:cy="74.3346"
     inkscape:window-width="1920"
     inkscape:window-height="1027"
     inkscape:window-x="-8"
     inkscape:window-y="440"
     inkscape:window-maximized="1"
     inkscape:current-layer="layer2"
     showgrid="false"
     inkscape:document-units="mm" /><defs
     id="defs1"><clipPath
       clipPathUnits="userSpaceOnUse"
       id="cp1"><path
         d="m 275.5,535.5 c -143.78,0 -260,-116.22 -260,-260 0,-143.78 116.22,-260 260,-260 143.78,0 260,116.22 260,260 0,143.78 -116.22,260 -260,260 z"
         id="path1" /></clipPath><clipPath
       clipPathUnits="userSpaceOnUse"
       id="cp1-8"><path
         d="m 275.5,535.5 c -143.78,0 -260,-116.22 -260,-260 0,-143.78 116.22,-260 260,-260 143.78,0 260,116.22 260,260 0,143.78 -116.22,260 -260,260 z"
         id="path1-8" /></clipPath></defs><style
     id="style1">
		tspan { white-space:pre } 
		.s0 { fill: none;stroke: #ff0000;stroke-miterlimit:100 } 
	</style><g
     inkscape:groupmode="layer"
     id="layer2"
     inkscape:label="Content"
     style="display:inline"
     transform="scale(0.1989225)"><g
       inkscape:groupmode="layer"
       id="layer3"
       inkscape:label="Kruh"
       transform="scale(5.0270836)"><path
         id="path2"
         style="fill:none;stroke:#000000;stroke-width:0.949978"
         inkscape:label="vnejsi kruh"
         transform="scale(0.19892249)"
         d="M 569.5184,284.99338 A 284.52502,284.52502 0 0 1 284.99338,569.5184 284.52502,284.52502 0 0 1 0.46835327,284.99338 284.52502,284.52502 0 0 1 284.99338,0.46835327 284.52502,284.52502 0 0 1 569.5184,284.99338 Z" /><path
         id="path2-9"
         style="fill:none;stroke:#000000;stroke-width:0.95000007;stroke-dasharray:none"
         inkscape:label="vnitrni kruh"
         d="M 529.26178,284.99338 A 244.2684,244.2684 0 0 1 284.99338,529.26178 244.2684,244.2684 0 0 1 40.724976,284.99338 244.2684,244.2684 0 0 1 284.99338,40.724976 244.2684,244.2684 0 0 1 529.26178,284.99338 Z"
         transform="scale(0.19892249)" /></g><path
       id="path3"
       style="font-size:139.71px;font-family:'New Rocker';-inkscape-font-specification:'New Rocker';letter-spacing:2.65111px;baseline-shift:baseline;white-space:pre;display:inline;overflow:visible;opacity:1;fill:none;stroke:#000000;stroke-width:0.95;stroke-dasharray:none;stroke-opacity:1;enable-background:accumulate;stop-color:#000000;stop-opacity:1"
       d="m 221.36841,273.57349 -4.90925,10.77092 c -0.6876,1.51026 -1.61711,3.35556 -2.78847,5.46892 l -0.0589,0.0982 -0.0589,0.10802 c -1.08211,2.10255 -2.24736,4.205 -3.50521,6.32312 l -0.0196,0.0393 -0.0196,0.0393 c -1.23359,2.12886 -2.42169,4.15729 -3.56412,6.08748 l -0.0687,0.108 -0.0687,0.11783 c -1.07509,1.96778 -1.92671,3.54627 -2.57245,4.76198 l -2.94556,5.54746 4.56562,4.01579 c 1.08925,0.95698 1.7386,1.72618 1.81642,1.83605 l 0.2651,0.36329 0.29455,0.32401 c 0.87021,0.95568 1.96853,1.97693 3.20085,3.09284 l -0.11783,-0.0196 -2.55281,2.79828 c -2.81395,3.09031 -5.5915,5.56992 -8.31629,7.48172 l -0.0393,0.0294 -0.0393,0.0196 c -2.34729,1.694 -4.91545,2.8337 -7.91373,3.44631 l -6.17586,1.26658 c -0.78424,-2.93661 -1.5939,-6.05297 -2.27789,-8.30646 -0.9398,-3.193 -1.74193,-6.13811 -2.41535,-8.81704 -0.65024,-2.68072 -1.22279,-5.4646 -1.71825,-8.34574 -0.39691,-2.8995 -0.74575,-6.61123 -1.00149,-11.10475 l -0.29455,-5.33146 -4.69325,-1.39423 c -3.96977,-1.18073 -7.96187,-2.68299 -11.96879,-4.51651 -4.04086,-1.84905 -7.26308,-3.61613 -9.5927,-5.18418 l -2.16007,-1.45315 -2.4939,0.45165 c -3.55928,0.65147 -7.11773,1.16824 -10.67273,1.54151 -3.61984,0.28276 -7.5062,0.51637 -11.66441,0.70694 -4.20052,0.096 -8.78616,0.18868 -13.76556,0.28473 h -37.0945 l 16.08274,13.38265 c 2.825768,2.35097 5.092025,4.38583 6.745326,6.02857 l 0.05891,0.0589 0.0589,0.0589 c 1.526202,1.44753 2.538336,2.78502 3.151754,3.90777 l 0.108,0.18654 0.108,0.18656 c 0.66421,1.0661 1.10698,2.17296 1.37459,3.52485 0.30574,1.5445 0.51057,3.7348 0.51057,6.4704 0,2.44232 -0.0405,5.1969 -0.12764,8.25738 -0.0819,2.78054 -0.28421,5.50575 -0.60875,8.17883 l -0.0196,0.10801 -0.01,0.108 c -0.23013,2.44295 -0.60797,4.65106 -1.1095,6.6275 -0.435206,1.60471 -0.932584,2.3581 -0.873841,2.28772 l -3.731041,4.46743 3.230294,4.91907 c 0.621305,0.94476 1.187648,2.21254 1.629878,3.94705 l 0.0491,0.17674 0.0491,0.16691 c 0.55916,1.84221 0.9532,3.77412 1.1684,5.82238 l 0.01,0.13746 0.0196,0.14728 c 0.30586,2.18328 0.46147,4.28988 0.46147,6.33294 v 0.14728 0.14728 c 0.086,2.36094 0.12764,4.46565 0.12764,6.29368 0,0.46298 -0.15402,1.50988 -0.88366,3.11247 l -0.0196,0.0491 -0.0295,0.0687 c -0.78029,1.79173 -1.75717,3.57449 -2.935732,5.36092 -1.213431,1.74207 -2.439162,3.2928 -3.672132,4.65397 -1.223816,1.24665 -10.661132,15.33157 -10.70219,15.35617 l 11.693862,0.65784 c 10.480992,0 20.257302,0.66795 29.337742,1.98335 9.01472,1.3898 16.78012,3.68117 23.29936,6.77477 l 4.82089,2.28772 3.22048,-4.55579 c 3.51763,-4.96684 7.01815,-9.11301 10.46654,-12.45971 l 0.0393,-0.0295 0.0295,-0.0294 c 2.93308,-2.92151 6.1569,-4.69157 10.17198,-5.52784 l 7.48171,-1.55133 -2.27789,-7.98245 c -0.17357,-0.60998 -0.31537,-1.26289 -0.43201,-1.95388 h 6.27403 c -0.2241,1.81199 -0.52298,3.51425 -0.88367,5.10562 -0.42343,1.76728 -0.89956,2.91591 -1.07022,3.22048 l -6.3624,11.35021 h 12.13569 c 0.97203,0 2.62753,0.17467 4.76198,0.60875 h 0.0196 l 0.0196,0.01 c 2.19432,0.43033 4.45763,1.03316 6.7846,1.82624 l 0.13746,0.0491 0.12764,0.0393 c 2.35828,0.69064 4.62008,1.54446 6.80423,2.57245 2.12149,0.9985 3.76611,2.02237 4.91909,2.95538 l 3.95686,3.21066 4.00596,-3.14193 c 0.66507,-0.5217 1.91494,-1.294 3.58376,-2.10117 1.93591,-0.79197 3.95429,-1.54406 6.06784,-2.25826 l 0.10801,-0.0393 0.11782,-0.0393 c 2.01743,-0.76692 4.00772,-1.35866 5.9893,-1.77715 l 0.12764,-0.0295 0.11783,-0.0295 c 2.11907,-0.53704 3.87727,-0.87004 5.18417,-1.02113 l 6.24459,-0.71674 v 4.71289 h 33.85426 4.23178 30.1625 c -0.17201,0.81096 -0.34464,1.95524 -0.51056,2.56262 l -1.15859,4.26125 8.62067,9.47487 4.79143,-5.63583 c 1.07581,-1.26584 2.34376,-2.62412 3.8096,-4.05505 1.44095,-1.40661 2.97865,-2.77076 4.59506,-4.10414 0.95715,-0.74885 1.84987,-1.34646 2.76883,-2.00298 l 18.93011,-4.16306 h 0.01 0.54985 l 0.54983,-0.0982 c 0.17177,-0.0314 0.33433,-0.0491 0.49093,-0.0491 1.32835,0 3.39816,0.19835 6.01875,0.64802 2.63975,0.45297 5.28273,1.03961 7.93337,1.76734 2.65248,0.72824 5.05677,1.49394 7.23625,2.28771 1.71652,0.71476 2.8909,1.4586 3.04374,1.53169 h 0.01 v 0.01 h 0.01 l 4.73252,4.25143 4.33979,-4.7718 c 1.6001,-1.75724 3.41676,-3.4587 5.46892,-5.10563 l 0.0687,-0.0589 0.0687,-0.0491 c 2.02781,-1.71304 4.11127,-3.20079 6.26422,-4.46742 2.21216,-1.30149 4.39744,-2.3668 6.54895,-3.21066 2.08892,-0.81932 3.95231,-1.30648 5.58675,-1.52188 l 5.21363,-0.6873 v 13.18629 h 36.5249 c -0.17201,0.81096 -0.34465,1.95524 -0.51057,2.56262 l -1.1684,4.26125 8.63048,9.47487 4.78162,-5.63583 c 1.0758,-1.26584 2.35357,-2.62412 3.81941,-4.05505 1.43839,-1.40413 2.9622,-2.76316 4.57543,-4.09432 1.6797,-1.31455 3.30022,-2.49387 4.86017,-3.52485 1.53429,-0.95872 2.97031,-1.68201 4.29069,-2.18953 l 5.5671,-2.14044 -1.15858,-6.34276 c -0.163,-0.89505 -0.32601,-1.84475 -0.49093,-2.83756 v -0.01 c -0.11744,-0.77436 -0.23461,-2.00091 -0.31419,-3.57394 -0.0838,-1.65665 -0.16869,-3.85107 -0.25528,-6.49987 v -10.51563 c 0,-5.02781 0.0415,-9.20761 0.12764,-12.51861 0.0866,-3.32889 0.16983,-6.11283 0.25528,-8.38502 0.16003,-2.0864 0.32637,-3.74342 0.47129,-4.96818 0.22453,-1.28848 0.46811,-2.48536 0.74621,-3.5543 l 1.58078,-6.05803 -5.18417,-2.70991 c -1.71933,-0.89914 -3.19154,-1.73333 -4.42817,-2.49391 -1.26239,-0.86883 -2.47946,-1.73772 -3.6623,-2.60191 -1.03222,-0.81239 -2.07937,-1.71296 -3.14192,-2.70991 -1.19819,-1.22254 -2.51528,-2.57449 -3.96669,-4.07469 l -4.91908,-5.086 -4.64416,5.39038 c -2.82267,3.2721 -5.52062,6.00326 -8.1101,8.39484 l -5.74384,-10.52546 -4.86999,1.34513 c -2.73913,0.75204 -5.90017,1.55752 -9.45523,2.41536 -3.51901,0.75282 -6.76532,1.36265 -9.72034,1.82625 l -3.08301,0.48111 0.22582,-1.33532 -9.66142,1.92442 c -0.6929,0.13836 -1.4537,0.24559 -2.24845,0.32402 h -4.00596 c -3.00266,0 -6.40226,-0.34042 -10.17199,-1.0604 -3.57157,-0.68215 -8.41736,-2.10118 -14.34486,-4.27106 l -3.9765,-1.45314 -2.96519,3.24993 c -5.46971,5.74941 -6.64213,6.35322 -11.15385,9.89707 -3.75651,2.4862 -6.91888,3.83139 -9.24904,4.2907 l -4.58525,0.9033 0.54983,-2.1208 -5.17435,-2.70991 c -1.71587,-0.89732 -3.18319,-1.73455 -4.41834,-2.49391 -1.26153,-0.86815 -2.49002,-1.72857 -3.67213,-2.59209 -1.03512,-0.81428 -2.08609,-1.72966 -3.15174,-2.72955 -1.19797,-1.22233 -2.50579,-2.56502 -3.95687,-4.06487 l -5.086,-5.2529 -4.63434,5.73402 c -2.70431,3.34113 -5.28358,6.21526 -7.72718,8.63048 -0.64043,0.63299 -1.49543,1.2867 -2.1797,1.92442 -1.03106,-0.56597 -2.10816,-1.14675 -2.92592,-1.64951 -1.26154,-0.86815 -2.4802,-1.72857 -3.66232,-2.59209 -1.03513,-0.81428 -2.08608,-1.72966 -3.15174,-2.72955 -1.19796,-1.22233 -2.5156,-2.56502 -3.96669,-4.06487 l -5.13508,-5.31182 -4.62452,5.85184 c -2.30418,2.91388 -4.51317,5.26112 -6.68642,7.46208 l -5.37073,-9.82834 -4.86999,1.34513 c -2.73913,0.75204 -5.90018,1.55752 -9.45523,2.41536 -3.51901,0.75282 -6.76532,1.36265 -9.72034,1.82625 l -5.62601,0.88367 0.28473,-1.83607 -7.737,-0.28473 c -5.10514,-0.19005 -10.25655,-0.52717 -15.45435,-1.0015 -3.22565,-0.3549 -5.46845,-0.80017 -7.99228,-1.21749 l 1.34514,-1.47278 c 1.63888,-1.79983 3.374,-3.65331 5.194,-5.55729 0.009,-0.009 0.0209,-0.0204 0.0295,-0.0294 1.90342,-1.89995 3.72773,-3.70857 5.45909,-5.41983 1.67083,-1.65142 3.18591,-3.04559 4.51653,-4.16305 l 0.0884,-0.0785 0.0982,-0.0884 c 1.42459,-1.28841 2.50192,-2.17102 2.9161,-2.47426 l 9.13123,-6.68642 -9.52398,-5.97947 c -0.38416,-0.24108 -1.25606,-0.83103 -2.3368,-1.59061 -1.07195,-0.90174 -2.20427,-1.82805 -3.40702,-2.79828 -1.12237,-0.96907 -2.1915,-1.93423 -3.2303,-2.89646 -0.81842,-0.83383 -1.38076,-1.52074 -1.50224,-1.69861 z m -72.92217,42.53384 c 0.14838,0.87399 0.20996,1.58108 0.38293,2.50373 v 0.0196 l 0.01,0.0196 c 0.64646,3.3469 1.38167,6.73893 2.20916,10.17199 l 0.01,0.0196 v 0.0295 c 0.80904,3.25785 1.62422,6.41771 2.435,9.48469 l 0.01,0.0393 0.01,0.0295 c 0.51537,1.88665 0.94015,3.27423 1.39423,4.80126 -0.61241,1.75737 -1.14918,3.62516 -1.62987,5.80274 l -0.0196,0.0982 -0.0196,0.10801 c -0.65016,3.36608 -1.24732,6.95906 -1.79678,10.78074 l -0.01,0.0786 -0.01,0.0785 c -0.4597,3.73587 -0.83321,7.47462 -1.1095,11.21276 -0.1348,1.77652 -0.13495,2.96488 -0.20618,4.44779 -1.48519,0.95578 -2.92818,2.01882 -4.31034,3.22048 -1.38165,1.20124 -2.64649,2.51266 -3.78994,3.91759 -1.43258,-0.36859 -2.8923,-0.73205 -4.3987,-1.09968 -1.07909,-0.26334 -2.10594,-0.53246 -3.14193,-0.7953 -0.3445,-5.31855 -0.68698,-10.63254 -0.88366,-15.67036 v -0.01 c -0.17419,-6.82518 -0.26511,-13.31547 -0.26511,-19.4505 0,-6.40442 0.0493,-12.41431 0.13746,-18.0268 0.0558,-3.61533 0.15486,-6.45999 0.24547,-9.51415 0.52448,-0.1227 0.95158,-0.3044 1.50223,-0.41238 l 0.0884,-0.0196 0.0884,-0.0196 c 2.37306,-0.53919 4.69247,-0.94188 6.95152,-1.20768 l 0.0982,-0.01 0.10801,-0.01 c 2.21418,-0.3354 4.14653,-0.52031 5.91074,-0.61857 z m 101.42534,13.67721 v 11.68404 l 4.9289,2.34663 v 28.79772 l -2.99464,-8.77776 c -0.39196,-1.14786 -0.81446,-2.70479 -1.20768,-4.60488 -0.39126,-1.89058 -0.71163,-3.89371 -0.9524,-6.00894 -0.2542,-2.23334 -0.45871,-4.46418 -0.62838,-6.69623 v -0.01 -0.01 h -0.01 v -0.01 c -0.16437,-2.26407 -0.23565,-4.30102 -0.23565,-6.10712 0,-2.3596 0.12811,-4.20931 0.30437,-5.37073 z m 174.90717,12.00805 4.26124,2.02262 v 32.58768 h -4.38888 c -0.55913,-5.88912 -0.8444,-11.88923 -0.8444,-18.00718 0,-6.33837 0.3913,-11.72681 0.97204,-16.60312 z m -237.96171,4.6638 c 0.46185,1.75666 1.0044,4.3326 1.56114,7.91373 l 0.0196,0.108 0.01,0.108 c 0.58104,3.19052 0.94258,7.69524 0.94258,13.32374 0,2.13573 -0.0864,4.55614 -0.25528,7.24607 l -0.01,0.12764 v 0.12764 c -0.004,0.11501 -0.006,0.22886 -0.01,0.34366 h -7.32461 c 0.0407,-1.52914 0.11196,-3.22773 0.216,-5.07618 0.25037,-2.90915 0.57757,-5.86269 0.99168,-8.87595 0.50152,-3.01863 1.04334,-5.89673 1.62005,-8.62067 0.62484,-2.6472 1.30358,-4.67265 1.88516,-5.95002 z m 166.0803,2.00298 1.70843,2.33681 c 0.0766,0.32465 0.17359,0.73236 0.29455,1.46296 0.30861,1.86408 0.60059,4.2698 0.85421,7.14788 l 0.01,0.11782 0.01,0.11782 c 0.33242,2.82929 0.58645,5.87227 0.75602,9.13124 v 0.01 c 0.15963,2.98014 0.24473,5.73251 0.25529,8.24757 h -4.70308 v -3.12229 c 0,-5.02781 0.0512,-9.20761 0.13746,-12.51861 0.0864,-3.31752 0.17013,-6.0875 0.25529,-8.35558 0.14739,-1.92578 0.28663,-3.37562 0.42219,-4.57542 z m -134.09157,4.76198 c 0.55726,0.0716 0.96006,0.0591 1.49243,0.11782 0.0101,0.0896 0.01,0.18546 0.0196,0.27492 l -1.45314,0.39275 c -0.0136,-0.23116 -0.0441,-0.55013 -0.0589,-0.78549 z m 168.4073,1.49241 c 2.11026,0.47229 4.30683,0.69259 6.4606,1.03095 l -0.16691,25.61652 c -0.78507,-0.1696 -1.46309,-0.43817 -2.26809,-0.58911 -1.48439,-0.27832 -2.71174,-0.42541 -4.10414,-0.65784 0.0418,-1.20512 0.10612,-2.38746 0.13746,-3.60339 v -0.01 c 0.18262,-3.71251 0.27492,-7.05485 0.27492,-10.05417 0,-3.74214 -0.0904,-7.44332 -0.27492,-11.09493 v -0.01 c -0.01,-0.19722 -0.0484,-0.42993 -0.0589,-0.62839 z m -65.21462,4.9289 v 8.33593 0.0589 c 0.0882,5.52004 0.12764,11.04382 0.12764,16.56385 0,0.62241 -0.0739,2.31998 -0.24546,4.67361 -0.10054,1.38011 -0.24253,3.03437 -0.37311,4.58526 l -2.31717,-0.94259 c -0.16814,-0.64571 -0.43201,-1.94149 -0.43201,-4.22195 v -13.32374 -10.68255 c 0,-1.49762 0.0329,-2.31803 0.0491,-3.54449 z m -33.33388,0.0393 v 30.33923 c 0,1.89339 -0.28193,2.77011 -0.32401,2.90628 l -1.03095,0.4713 -1.18804,-0.48112 c -0.16815,-0.64571 -0.43202,-1.94149 -0.43202,-4.22195 v -27.60969 z m 175.83992,0.11782 v 8.17883 0.0589 c 0.0882,5.52004 0.12764,11.04382 0.12764,16.56385 0,0.62241 -0.0642,2.31998 -0.23565,4.67361 -0.17288,2.37316 -0.39609,5.00822 -0.65783,7.88428 -0.0516,0.54811 -0.14746,1.09142 -0.20619,1.63969 v -4.59507 l -3.17138,-1.28623 c -0.16815,-0.64571 -0.43203,-1.94149 -0.43203,-4.22195 v -26.64747 z m -209.70401,13.27465 v 3.95686 h -5.17436 l 0.2651,-3.51503 z m -24.03574,2.68046 c -0.66688,0.60419 -1.33105,1.21741 -1.92443,1.93424 l -0.0589,0.0687 -0.0589,0.0687 c -1.09806,1.39628 -1.94314,3.00422 -2.69027,4.65398 -1.38081,-0.22522 -2.77073,-0.45246 -4.20233,-0.67748 -1.1134,-0.23331 -2.12707,-0.46476 -3.17139,-0.69712 0.03,-0.31056 0.0473,-0.51434 0.0786,-0.83457 0.0845,-0.86646 0.0992,-1.76691 0.16692,-2.64118 3.59279,-0.60485 7.15209,-1.22933 10.8691,-1.74769 l 0.0589,-0.01 0.0491,-0.01 c 0.29862,-0.0469 0.58562,-0.0623 0.88366,-0.108 z m 194.92713,9.41595 h 3.34812 v 4.85035 c 0,1.89339 -0.28193,2.77011 -0.32401,2.90628 l -1.66916,0.76585 -0.94257,-5.85184 c -0.14261,-0.88746 -0.28301,-1.77807 -0.41238,-2.67064 z m -176.24248,0.62839 h 5.35109 v 4.22196 c 0,1.89339 -0.28193,2.77011 -0.32401,2.90628 l -3.26956,1.49243 v 2.38589 l -0.58912,-1.74769 c -0.45801,-1.36523 -0.75571,-2.68799 -0.95239,-3.98632 -0.10709,-1.25534 -0.18899,-3.01456 -0.21601,-5.27255 z m 102.68211,0 h 4.33979 c -0.13065,1.52669 -0.29403,2.85462 -0.49093,3.96668 l -0.0196,0.0884 -0.01,0.0786 c -0.27487,1.76095 -0.75079,2.65931 -0.76584,2.79828 v 0.01 l -2.42517,2.30735 c -0.0331,-0.19607 -0.065,-0.36948 -0.0982,-0.56948 -0.11675,-0.7752 -0.24494,-1.99116 -0.32402,-3.5543 -0.0687,-1.35886 -0.13519,-3.08692 -0.20618,-5.12527 z" /><path
       id="path3-8"
       style="baseline-shift:baseline;display:inline;overflow:visible;fill:none;stroke:#000000;stroke-width:0.95;stroke-dasharray:none;stroke-opacity:1;enable-background:accumulate;stop-color:#000000"
       d="m 310.37437,44.754569 -0.0196,0.0098 c -22.3351,0.04014 -69.6194,6.401313 -90.21259,20.186883 -9.03467,6.048022 -15.14754,14.145921 -18.56683,24.575762 -1.19792,3.65403 -1.89762,6.32429 -2.20916,10.446911 -0.31136,4.120015 -0.27429,9.687885 -0.10801,19.538865 0.10017,5.93292 0.5723,11.4175 0.51057,15.51326 -0.11979,7.94877 0.99569,-6.03998 2.52336,15.51311 -0.22297,-0.61365 -0.48202,-1.20064 -0.87385,-1.73788 -5.61229,-4.52559 -13.78093,-1.37526 -20.26543,-0.11782 -6.14829,1.20826 -9.53379,1.9104 -12.00806,2.90628 -2.48959,1.00204 -3.93786,2.41652 -5.54746,4.36924 -2.38011,2.88748 -3.88532,5.31445 -4.34961,7.93337 -0.36006,2.03103 0.1309,4.05233 0.96222,6.14639 -2.53834,-3.49521 -4.90637,-7.27851 -7.10861,-11.98841 -3.44703,-8.20447 -8.95185,-17.61892 -14.11904,-5.086 -1.18705,3.66384 -2.06307,8.68501 -2.543,14.68851 -0.42096,5.26597 -0.63567,8.15539 -0.31419,10.62364 0.3226,2.47663 1.23184,4.30887 2.7001,7.02025 0.73647,1.36004 1.27031,2.40409 1.62005,3.15174 0.31742,0.67854 0.42602,1.07513 0.45165,1.14877 -0.0649,0.0576 -0.27015,0.26974 -0.70693,0.58911 -2.89978,2.12048 -5.58429,-0.0413 -13.45138,6.52954 -1.67885,1.40227 -3.20945,2.93181 -4.36924,4.44779 -1.14866,1.50147 -2.07171,2.9987 -2.07171,4.74235 0,0.86194 0.18122,1.96368 0.97204,2.82773 0.76453,0.83535 1.81217,1.253 3.10265,1.58078 2.58975,0.65778 6.7251,1.03359 14.22704,1.6397 4.75996,0.38455 12.4822,1.99326 16.61294,3.43648 3.78136,1.32113 8.63911,3.58673 12.46952,5.68492 1.91521,1.04909 3.57766,2.06098 4.70308,2.85719 0.31723,0.22444 0.47769,0.36703 0.68729,0.54002 -0.35055,0.41565 -0.75593,0.89121 -1.3255,1.51206 -1.38729,1.51223 -3.31822,3.5114 -5.44928,5.61619 -28.03432,27.68878 -39.87121,2.85073 -47.94076,10.91954 -0.61885,0.61887 -0.86468,1.34341 -1.04076,2.03244 -0.1811,0.70878 -0.28708,1.48769 -0.34365,2.34663 -0.11326,1.71872 -0.0356,3.75656 0.17673,5.89111 0.42419,4.26501 1.33109,8.81674 2.85719,11.73313 1.17732,2.24982 2.27036,3.90241 3.96668,5.24309 1.69014,1.33587 3.80012,2.28589 7.05952,3.57395 1.97496,0.78051 4.09444,1.77533 5.87148,2.71973 1.77164,0.94151 3.29212,1.93927 3.73104,2.33681 1.29708,1.17576 2.72697,2.04378 4.67361,2.41535 1.92719,0.36778 4.30719,0.3598 8.10029,0.24547 3.36485,-0.10132 12.44381,0.0155 14.38239,-0.40298 1.94501,-0.41979 3.44911,-1.12443 4.62453,-2.16989 1.24806,-1.11006 4.52066,-2.88995 7.82536,-4.20233 3.30361,-1.31198 6.90402,-2.24189 8.46357,-2.26808 1.40047,-0.0238 3.1256,-0.47728 5.20381,-1.12913 2.08618,-0.65431 4.42919,-1.53982 6.59805,-2.51354 3.02936,-1.36012 5.13503,-2.45058 6.73551,-3.69176 1.60874,-1.24763 2.65715,-2.6913 3.34811,-4.35943 0.59392,-1.43384 1.72805,-2.85635 3.35178,-3.97359 1.6229,-1.11668 3.51879,-1.78697 4.94853,-1.78697 -0.0412,0 0.11519,0.0121 0.29456,0.0393 0.17937,0.0269 0.42262,0.0732 0.70693,0.12764 0.56861,0.10897 1.30697,0.27228 2.09135,0.48111 1.58168,0.42111 3.49693,1.01438 5.33145,1.65933 9.99354,3.51343 19.20913,1.09723 31.59101,-4.12762 9.70432,-4.09498 15.4654,-4.27927 24.08233,-15.07337 l 2.96519,-3.72122 6.0973,4.26124 c 8.84511,6.18318 19.9268,10.42727 28.0417,10.42727 2.8314,0 10.62841,1.21297 17.93844,2.72955 3.65597,0.75849 7.2469,1.59074 10.17199,2.36627 2.9211,0.77449 5.74939,2.91274 6.47292,3.28689 3.83153,1.98138 3.15315,-0.10356 5.69937,4.91986 1.18964,2.34705 0.51282,6.46557 0.48958,7.62437 -0.0248,1.16617 -0.48026,2.33346 -1.62006,4.23178 -1.3625,2.26924 -2.44005,4.01517 -3.51503,5.93039 -1.36453,2.43101 -1.52488,4.36773 -1.97681,7.92182 -0.22514,1.76775 -0.0738,3.85837 0.81494,5.39037 0.45901,0.79105 3.59297,0.2031 4.52634,0.54983 0.91874,0.34125 5.30146,-0.46339 6.35258,-0.65784 l 12.85245,-3.93722 c 1.19468,-0.22101 2.2345,-0.85272 3.68195,-1.68879 1.46717,-0.84735 4.63812,-0.83793 6.40244,-2.00163 3.5303,-2.32855 6.04033,-4.01776 7.85347,-5.47373 3.91319,-3.14231 6.43114,-8.63411 6.43114,-17.7028 0,-2.52853 -0.27602,-5.09858 -0.45166,-7.17734 -0.0879,-1.03798 -0.1455,-1.95924 -0.14727,-2.64118 -9.1e-4,-0.32584 0.023,-0.60544 0.0491,-0.80512 0.013,-0.0998 0.0297,-0.18442 0.0393,-0.23565 -0.004,0.0118 -0.0163,0.0206 -0.0196,0.0295 0.0101,-0.0222 0.0196,-0.0464 0.0294,-0.0687 v -0.01 c 1.25271,-2.85128 0.60618,-6.6541 -0.66766,-10.77092 -1.29114,-4.1727 -3.77456,-10.62992 -6.45019,-14.1352 l -1.39039,-1.98989 7.39567,-5.42503 c 11.84089,-11.42871 18.51488,-15.40302 24.1732,-15.41508 1.94733,-0.004 5.59001,1.45132 8.88577,3.24011 3.30364,1.79305 6.33241,3.79253 8.22792,4.76198 1.92065,0.98233 3.62782,1.66207 5.28236,1.69861 0.84002,0.0185 1.74876,-0.1554 2.51355,-0.74621 0.78122,-0.60356 1.2149,-1.53233 1.3255,-2.46445 0.21244,-1.78926 2.47245,-16.85976 1.22885,-19.51939 -1.24762,-2.66833 -3.21122,-6.03925 -6.06785,-10.28 -2.16052,-3.20729 -5.45324,-6.61009 -7.69772,-8.20828 -0.81576,-0.5809 -1.58609,-1.30492 -2.09135,-1.9048 -0.17538,-0.20822 -0.3123,-0.43161 -0.41238,-0.61856 -0.05,-0.0935 -0.0917,-0.173 -0.12764,-0.24547 -0.002,-0.005 -0.0154,-0.0227 -0.0196,-0.0294 l -0.01,-0.01 v -0.43201 h -0.18655 c -0.20451,-0.92856 -0.70344,-1.74818 -1.42369,-2.26808 -0.85911,-0.62011 -1.8919,-0.98039 -3.06338,-1.23714 -2.35254,-0.51562 -5.41303,-0.58438 -9.04286,-0.23564 h -0.01 l -0.98185,0.0982 c 3.15642,-3.55726 2.07342,-0.55153 2.96732,-6.05592 0.93374,-5.74965 0.66562,-11.79845 -1.3255,-16.56385 -5.58556,-13.3681 -24.64602,-16.13282 -26.17619,-20.15742 -1.65419,-4.35085 -8.11358,-10.62292 -9.49451,-13.79503 -0.54972,-1.26269 -0.70693,-2.42636 -0.70693,-4.47724 0,-6.487685 -4.4239,-18.988686 -9.12141,-27.619512 -3.71342,-6.82287 -12.12681,-14.810043 -20.57962,-19.794142 -6.29287,-3.710536 -20.68895,-8.508793 -28.07116,-9.376689 -2.39774,-0.281882 -6.91647,-1.132405 -9.74979,-1.836064 -2.01967,-0.501597 -4.97864,-0.649445 -8.73849,-0.648022 z m 58.40058,65.086991 c 0.60973,-8e-4 1.21126,0.0403 1.79678,0.12764 7.22274,1.07759 10.42828,2.62587 14.84561,7.11843 -1.87095,-1.5555 -3.99457,-2.94414 -6.46059,-4.18269 -3.6905,-1.85353 -8.2817,-2.59008 -12.53825,-2.42517 -1.13664,0.044 -2.14361,0.32096 -3.21066,0.50074 1.8245,-0.67867 3.71959,-1.13517 5.56711,-1.13895 z m -7.29517,11.56622 c 2.97597,0.98922 5.25646,2.22658 6.59805,4.31033 v 0.01 0.01 c 0.006,0.0166 0.0239,0.0515 0.0295,0.0687 v 0.01 c -0.19664,-0.0935 -0.41474,-0.14534 -0.63821,-0.19637 v -0.18655 h -0.49092 c -0.0155,-0.005 -0.0368,-0.0116 -0.0589,-0.0196 -0.0771,-0.0281 -0.17235,-0.0621 -0.28473,-0.10801 -0.22476,-0.0918 -0.51369,-0.22399 -0.78548,-0.39274 -0.66642,-0.41374 -1.45585,-1.03367 -2.10117,-1.67896 -0.66286,-0.66285 -1.46749,-1.24925 -2.26808,-1.82625 z m -60.94357,10.58437 c -15.62279,-0.17756 -31.24245,0.33213 -46.84417,1.02131 13.41676,-1.25461 28.97405,-1.58448 46.84417,-1.02131 z m 18.6061,1.36477 c 4.4296,0.47784 8.10313,0.65428 11.25203,0.16692 -2.9675,0.79375 -6.7907,1.79775 -11.0262,2.89646 z m 51.29197,2.59209 c 0.14866,1.38364 0.31995,2.68917 0.32401,4.46743 0.007,2.99998 -0.18347,4.5763 -0.33383,6.45077 -0.0696,-0.089 -0.0954,-0.22127 -0.1571,-0.31419 -0.009,-0.016 -0.0268,-0.0433 -0.0491,-0.0884 -0.0446,-0.0903 -0.11235,-0.23381 -0.17674,-0.40256 -0.12877,-0.33751 -0.27177,-0.80376 -0.36328,-1.33532 -0.39529,-2.29664 -0.28861,-5.59847 0.18655,-7.50135 0.11401,-0.45632 0.25838,-0.83325 0.33383,-0.97203 h 0.01 c 0.0154,-0.0284 0.0251,-0.0437 0.0294,-0.0491 l 0.01,-0.01 0.01,-0.01 0.01,-0.01 c 0.008,-0.009 0.039,-0.0583 0.0393,-0.0589 l -0.0491,0.0393 c 0.0535,-0.0694 0.10769,-0.14316 0.17674,-0.20619 z m -111.08677,3.77032 1.08986,0.01 c -5.5421,1.30974 -4.05592,2.15709 -3.25978,5.16455 -5.92083,2.03027 -15.34366,4.55762 -25.11578,6.42131 0.05,-0.0414 0.26374,-0.19339 0.44183,-0.45165 0.85124,-1.23443 1.96067,-3.9186 -5.71438,-2.63137 l -0.6382,-2.68045 c 0.436,-5.56775 5.81473,-4.23968 12.01787,-4.95836 6.10067,-0.5734 13.55806,-0.90239 21.17855,-0.87384 z m 42.19019,1.46296 c -3.38759,0.91991 -7.24631,1.93554 -9.14104,2.51354 -9.965,3.03994 -21.67345,5.9439 -28.71918,7.13806 -1.17696,0.19949 -4.9718,1.01207 -7.13807,1.43351 0.15295,-0.0436 0.27895,-0.0636 0.43202,-0.10801 8.00326,-2.32265 19.02018,-5.03905 37.51657,-9.21959 2.4985,-0.56471 4.41167,-1.11361 7.0497,-1.75751 z m 94.87639,3.11247 c 0.11335,0.96752 0.2666,1.89368 0.33383,2.90628 0.28846,4.34024 0.39363,6.29377 -0.19637,8.6403 -0.34372,1.36663 -1.0914,3.19295 -2.12081,5.4591 1.70401,-5.61802 2.34364,-11.08612 1.98335,-17.00568 z m -151.07761,10.2309 c -4.0084,0.83522 -8.93461,1.79734 -12.76408,2.46445 5.07868,-0.91977 6.19695,-1.35643 11.15384,-2.21899 0.63747,-0.11091 1.11177,-0.17195 1.61024,-0.24546 z m -42.09201,3.11247 c 0.0312,0.12648 0.0464,0.42822 0.0785,0.54002 0.2243,0.77873 0.60973,1.60662 1.34514,2.2288 0.52414,0.44344 1.20581,0.55287 1.86552,0.69712 -9.31795,1.46392 -18.71921,1.81062 -28.11043,1.00149 h 4.41833 c 7.29909,-0.56397 16.67933,2.43668 20.40289,-4.46743 z m 159.13862,1.51205 c 0.24779,1.7924 1.5818,2.53199 2.74918,2.32699 0.49414,-0.0867 0.77612,-0.34034 1.0604,-0.55965 -1.19171,2.44388 -2.50636,4.65985 -3.92741,6.63732 -0.0508,-0.16575 -0.0607,-0.3486 -0.14727,-0.50075 -0.3419,-1.27019 -1.86934,-0.67014 -2.60191,-0.93276 -0.053,0.012 -0.11356,0.035 -0.16692,0.0491 0.033,-0.18918 0.0508,-0.29289 0.0982,-0.5302 0.51032,-2.55163 1.83005,-5.0472 2.93574,-6.49005 z m -218.46213,2.79828 c 0.90044,5.79154 3.20696,12.4522 6.50968,18.75338 0.95495,1.82193 1.75444,3.59634 2.25826,4.91908 0.14883,0.39072 0.2055,0.63373 0.29455,0.92294 -0.44257,0.10014 -0.93478,0.19607 -1.47277,0.25528 -0.51179,0.0563 -0.94068,0.0615 -1.31569,0.0589 -0.0688,-0.20808 -0.12475,-0.39145 -0.216,-0.65784 -0.31044,-0.90606 -0.73643,-2.10657 -1.19786,-3.38739 -1.53221,-4.25281 -3.39923,-6.70385 -5.17436,-1.85552 -0.0303,-0.0456 -0.049,-0.0613 -0.0786,-0.108 -0.90184,-1.41941 -1.60519,-3.07287 -1.68879,-3.74086 -0.0273,-0.21782 -0.0227,-0.26237 -0.0294,-0.2651 0.15558,-0.10716 0.31622,-0.21732 0.45165,-0.45165 1.64283,-4.60276 1.32864,-9.61075 1.65933,-14.44305 z m 164.31297,15.73909 c -9.51117,1.82224 -20.82627,3.86603 -35.28777,6.26422 -5.44653,0.90323 -21.71873,2.2248 -35.68051,2.85719 -3.69745,0.1675 -7.20511,0.40662 -10.88874,0.61857 5.20597,-0.55273 10.5535,-1.13862 15.75873,-1.58078 16.79683,-1.42682 39.37245,-4.19781 52.67637,-6.47041 3.12202,-0.53331 8.48509,-1.09275 13.42192,-1.68879 z m 118.74524,2.39574 c 0.0361,-0.0728 0.0413,-0.18396 0.0786,-0.25528 0.74222,0.70936 1.13686,1.42778 0.98185,2.23862 -1.01977,4.14359 -0.31802,3.64744 2.82773,4.99764 0.67453,0.72143 1.30921,1.47941 1.96371,2.21899 0.33804,0.38504 0.53001,0.56308 0.7953,0.84439 -4.14285,-1.56977 -7.88015,-2.82463 -11.24221,-3.16156 0.37032,-0.0965 0.67073,-0.29477 0.88367,-0.51057 5.32148,-5.76025 -13.38709,-2.4337 3.71135,-6.37223 z m -28.2667,14.73881 -0.0294,-0.0393 -1.32551,0.72657 h -0.01 c -3.80523,2.11089 -7.54576,4.03999 -10.48619,5.41983 -1.46989,0.68977 -2.74118,1.24112 -3.69176,1.61023 -0.39937,0.15505 -0.78947,0.2718 -1.08004,0.35347 -0.0267,0.008 -0.0338,0.0127 -0.0589,0.0196 0.16135,-0.0698 0.20606,-0.14947 0.43202,-0.20619 2.36937,-0.59465 4.39816,-2.63082 6.0973,-4.65398 2.50028,-2.97686 5.30482,-9.31301 -2.59209,-6.16603 0.24524,-0.78144 0.31135,-1.593 0.16691,-2.435 0.3507,0.0435 0.61857,0.066 1.11931,0.14728 0.1997,0.0324 0.33177,0.0223 0.40256,0.0196 5.95028,0.10911 22.98571,3.75862 15.57264,-3.81958 -1.15173,-0.0246 -1.8728,-0.21276 -2.16989,-0.3731 -2.45395,-2.64838 1.34702,-0.445 2.3468,-0.77529 1.18618,-0.19548 2.5702,-0.67381 4.17288,-1.40405 20.53176,3.7813 4.64107,4.33043 -8.86664,11.57594 z m -216.60728,-7.3553 c 5.20209,1.31899 11.25982,1.92695 18.14463,1.92443 -5.57914,0.64137 -8.54968,0.56241 -14.4725,-0.85421 -1.36281,-0.32597 -2.52169,-0.69791 -3.67213,-1.07022 z m -23.01461,4.41834 0.22582,0.25528 c -0.14557,-0.0643 -0.26905,-0.15579 -0.42219,-0.20619 z m 2.16989,2.50372 0.0589,0.0687 c 0.66603,0.76953 1.15721,1.38875 1.67897,1.90479 0.52175,0.51604 1.09386,0.92963 1.81642,1.16841 0.87556,0.28934 1.81455,0.0714 2.47427,-0.43202 0.1737,-0.13256 0.2405,-0.28852 0.37311,-0.43201 3.22517,2.38575 6.9693,1.41456 12.00823,3.20083 1.99605,0.85967 3.294,1.56764 4.01578,2.16007 0.72427,0.59448 0.85159,0.95704 0.7953,1.40405 -0.0563,0.44701 -0.4211,1.09751 -1.05059,1.92443 -0.61715,0.81071 -1.46042,1.80488 -2.3368,3.03392 -0.0837,0.0857 -0.10151,0.11822 -0.38293,0.32401 -0.77909,0.56965 -1.39064,1.28705 -1.76733,2.11099 -0.10021,0.21919 -0.0611,0.39047 -0.0589,0.57929 -0.64858,-0.2525 -1.23942,-0.46216 -2.60191,-1.20768 -6.07237,-3.3227 -11.25531,-4.95477 -19.80396,-5.77329 -3.25118,-0.31129 -6.99106,-0.5058 -11.46804,-0.6382 -4.37115,-0.12927 -8.42427,-0.32121 -11.40912,-0.5302 -1.1717,-0.0821 -2.01178,-0.16427 -2.79828,-0.24547 0.91431,-0.84259 2.4032,-1.90311 4.31033,-2.80809 5.94884,-0.96576 8.47675,1.19178 10.75128,-5.00731 0.0586,-0.0172 0.14855,-0.0405 0.216,-0.0589 -3.11447,6.37166 13.8302,5.30795 15.22853,0.54982 0.13379,-0.45527 0.0407,-0.88271 -0.0491,-1.29604 z m 167.00325,0.0295 c -0.1717,0.13399 -0.37692,0.22406 -0.52038,0.40255 -0.68399,0.85103 -1.08326,1.9049 -1.22732,3.04375 -1.24,9.80564 8.90145,9.71387 9.71075,9.53414 0.26741,-0.0593 0.32966,-0.15424 0.50075,-0.25528 0.0707,0.24169 0.11799,0.49123 0.11782,0.47129 0.003,0.52938 -0.2052,0.7394 -0.61857,1.04076 -0.41336,0.30135 -1.02277,0.55374 -1.47278,1.1095 -0.24706,0.30509 -0.38673,0.32063 -0.46147,0.32401 h -0.01 c -0.005,-5.5e-4 -0.0247,-0.009 -0.0295,-0.01 -0.0233,-0.008 -0.0469,-0.0227 -0.0589,-0.0295 -10.32595,-8.97612 -13.99038,-5.50054 -13.04882,-2.09116 0.0363,0.13183 0.18946,0.28003 0.23565,0.41238 -2.50391,-2.10641 -3.74676,-4.83707 -4.64431,-7.95315 5.25976,5.60821 7.06245,-1.84902 10.37817,-5.49837 0.7352,-0.41267 0.83332,-0.38439 1.14877,-0.50074 z m 12.30261,3.11247 c 1.04665,0.87195 2.13172,1.77084 3.6034,3.22047 2.44803,2.41145 5.561,4.48682 8.54211,6.35259 -1.12857,0.0846 -2.1747,0.32916 -2.98483,1.00149 -1.31975,1.09535 -2.20714,2.45259 -3.85868,4.10414 -2.20934,2.20933 -3.66154,3.99529 -4.1336,6.01875 -0.88105,3.77755 8.70845,15.71911 8.53227,0.58911 0.16041,-0.31378 0.30286,-0.48711 0.56947,-0.62838 0.26707,-0.1415 0.70143,-0.24546 1.40405,-0.24546 0.0294,0 0.47645,0.11308 0.92294,0.29455 0.0639,0.0259 0.13076,0.0514 0.19637,0.0786 -0.61349,0.67431 -0.97203,1.52668 -0.97203,2.36626 0,2.08154 1.24287,3.87504 2.85719,5.34128 2.42897,2.2061 17.9993,1.67204 9.55342,4.32015 l -7.60935,2.3859 c -2.74652,-1.58952 -5.58284,-3.08997 -8.48321,-4.3987 -5.12974,-2.31468 -10.80875,-6.08101 -16.08274,-10.0738 0.19665,0.0901 0.41612,0.23321 0.60875,0.31419 1.16343,0.48903 2.23116,0.84196 3.34812,0.84439 1.45445,0.002 2.44912,-0.78359 3.46594,-1.60042 1.05777,-0.84976 2.13317,-1.95556 3.08301,-3.20083 0.83833,-1.09913 1.52934,-1.93317 2.05208,-2.90629 0.53967,-1.00458 0.80659,-2.20251 0.59893,-3.4463 -0.40048,-2.39942 -1.96451,-4.83639 -4.91908,-10.09344 -0.17234,-0.30665 -0.16802,-0.38964 -0.29456,-0.6382 z m -95.51459,2.21898 h 0.0196 c 0.1096,0.003 0.1887,0.0153 0.21601,0.0196 0.006,0.0129 0.0602,0.12592 0.0491,0.36329 -0.0236,0.50815 -0.47442,1.50476 -1.42369,2.01279 -9.13405,10.58286 10.98812,0.59051 13.62811,-0.30437 6.47093,-2.09933 11.35524,-3.21294 10.58437,4.84075 -0.96344,1.71588 -3.08025,4.06064 -6.52932,7.08897 -2.36147,2.07338 -3.58645,2.83759 -4.6147,2.94556 h -0.01 c -0.0712,-3e-4 -0.19628,-0.0504 -0.2651,-0.0491 2.06078,-0.58536 4.02164,-1.98922 6.21512,-4.18269 1.37111,-1.37108 2.43525,-2.59986 3.21066,-3.72122 0.76821,-1.11098 1.33077,-2.14341 1.41387,-3.32848 0.57123,-8.14539 -23.65854,0.45341 -17.33951,8.9348 -4.53171,-2.2565 -5.25724,-1.55292 -6.7846,1.91462 0.35121,0.82758 0.9208,1.53523 1.70842,2.40553 0.24558,0.27137 0.29768,0.36064 0.4222,0.52038 -0.0398,0.0315 -0.0363,0.0403 -0.0884,0.0786 -0.12055,0.0886 -0.42424,0.27511 -0.6873,0.44184 -0.56241,-0.75081 -1.24035,-1.54282 -2.62154,-2.41536 -6.89983,-4.35891 -9.45957,-5.74226 -17.42788,-1.7477 -1.63835,0.82133 -3.55439,1.47315 -4.84053,2.87683 l -0.01,0.0196 -0.0196,0.0196 c -0.69483,0.90521 -1.19772,1.36299 -1.54151,2.09135 -2.06045,11.55449 15.16996,-4.03019 16.46567,3.49539 0.0537,0.31199 -0.005,0.8551 -0.52038,1.76734 l -0.01,0.01 -0.01,0.01 c -0.0177,0.0207 -0.0517,0.0523 -0.0884,0.0884 -0.0529,0.0521 -0.12283,0.11994 -0.19637,0.18655 -6.08861,-7.93486 -21.56034,8.86813 -16.61294,13.16664 0.33046,0.28712 0.69783,0.44764 1.0604,0.54984 -0.0435,0.0327 -0.10781,0.079 -0.14728,0.108 -0.16342,0.11998 -0.31445,0.21559 -0.29455,0.20619 -0.27958,0.13208 -0.44743,0.17935 -0.54002,0.19637 -9.42023,-5.11525 -4.87645,4.38721 -16.32823,4.59507 -9.33803,-0.3051 -19.63494,7.54656 -6.43057,6.16603 l 3.3383,0.6873 c -2.53648,0.35162 -5.17235,1.8321 -7.54062,3.57394 -1.35515,0.9967 -2.59066,2.09265 -3.54449,3.21066 -0.93585,1.09694 -1.76734,2.26642 -1.76734,3.78995 0,0.19284 0.15807,0.43501 0.18656,0.64802 -0.4718,-0.33584 -0.97494,-0.7082 -1.34514,-1.1684 -0.47471,-0.5901 -0.7614,-1.3248 -0.77566,-1.42369 -0.13394,-0.92903 -0.42436,-1.79431 -0.87385,-2.52336 -0.43394,-0.70382 -1.22243,-1.62006 -2.53318,-1.62006 -1.06769,0 -1.82601,0.62201 -2.31717,1.2175 -0.50016,0.60639 -0.85761,1.35693 -1.08986,2.20917 -1.39595,5.12219 2.60257,6.4023 -1.33531,7.32466 -0.027,-0.25989 -0.0491,-0.56263 -0.0491,-1.00149 -5.9617,-8.219 -8.87057,2.48748 -11.08511,7.23625 0.1139,-0.61958 0.15105,-1.25772 -0.0393,-1.88516 -1.29649,-4.27336 -10.31641,-4.06647 -12.09642,-2.74914 -0.52551,0.38929 -0.77602,0.95225 -0.91312,1.52187 -2.55781,-8.84515 -4.70381,-0.98088 -14.60996,-8.19847 -3.03734,-2.21292 -5.52091,-5.24812 -6.53914,-8.16901 -0.0845,-0.24234 -0.0972,-0.33073 -0.14727,-0.50074 0.21257,0.0954 0.42427,0.18718 0.65784,0.33383 0.7299,0.4583 1.56225,1.13271 2.20916,1.83606 4.29976,4.67492 11.5656,7.60082 20.31453,8.58139 3.47274,0.38922 5.65931,0.58843 8.2181,-0.10801 2.55077,-0.69456 5.21939,-2.12906 10.22108,-4.82089 9.33384,-5.02335 12.89892,-8.07643 32.7055,-28.11043 6.03585,-6.10517 12.11256,-12.04371 17.02532,-16.68167 8.01718,-7.56873 11.00476,-10.22327 17.9679,-12.99972 2.55302,-1.01798 4.82205,-1.58079 6.14639,-1.58079 z m 121.42567,8.35557 c 2.97195,0.0153 8.47494,6.2359 10.76128,8.98413 -1.66489,-0.69574 -1.50335,1.65535 -1.94388,2.14042 -1.41962,-2.45127 -3.68796,-4.53998 -6.16603,-6.23476 -0.31317,-0.21418 -0.49185,-0.24041 -0.74621,-0.32401 1.73782,-0.93663 -0.56986,-3.5306 -1.82642,-4.49688 -0.006,-0.004 -0.0254,-0.0161 -0.0295,-0.0196 v -0.01 l -0.01,-0.01 h -0.01 v -0.01 l -0.01,-0.01 c -0.004,-0.003 -0.0143,-0.006 -0.0196,-0.01 z m -92.56903,12.34188 c -0.16125,0.43939 -0.33135,0.89746 -0.59893,1.4335 -0.69399,1.39021 -1.71837,3.05977 -2.9161,4.76199 -2.39517,3.40387 -5.5389,6.98428 -8.14938,9.08213 -2.18713,1.75761 -7.79177,4.80633 -11.8215,6.32313 -3.58289,1.3486 -9.35509,2.45686 -14.46268,2.94556 -2.55387,0.24436 -4.95729,0.34048 -6.83369,0.2651 -0.20121,-0.008 -0.27828,-0.0294 -0.37311,-0.0491 0.28482,-0.90383 0.19811,-1.81313 -0.0491,-2.59209 -0.11879,-0.3742 -0.1007,-0.5328 -0.0982,-0.67748 0.25099,0.0451 0.64167,0.162 1.1684,0.49093 1.50555,0.94024 3.31828,1.14075 5.14491,1.07022 1.8339,-0.0708 3.75169,-0.44839 5.48855,-1.03094 1.73386,-0.58153 3.30373,-1.34603 4.47725,-2.38591 0.58587,-0.51917 1.11447,-1.15052 1.39423,-1.98334 0.29677,-0.88341 0.20747,-1.92487 -0.3142,-2.76882 -0.17649,-0.28556 -0.42986,-0.41125 -0.64802,-0.60875 0.42956,0.0629 0.85262,0.14281 1.15859,0.22583 0.1753,0.0476 0.31864,0.0911 0.42219,0.12764 0.0453,0.016 0.09,0.0361 0.11783,0.0491 0.009,0.008 0.0214,0.0117 0.0295,0.0196 0.0478,0.0468 0.1093,0.11999 0.18655,0.20619 0.15451,0.17241 0.34866,0.40777 0.52039,0.66766 0.35824,0.54211 0.72025,1.23504 0.94257,1.83606 0.34413,0.92999 0.74303,1.73851 1.46296,2.36626 0.3705,0.32309 0.97434,0.69722 1.76734,0.64803 0.85052,-0.0529 1.48645,-0.57936 1.82624,-1.12913 0.38007,-0.61496 0.48484,-1.24562 0.43202,-1.80661 -0.0499,-0.52939 -0.22549,-0.98779 -0.38292,-1.41387 0.9063,0.13663 1.81505,0.11975 2.59209,-0.44183 0.90674,-0.65529 1.34496,-1.78754 1.22731,-2.86701 -0.11163,-1.02438 -0.63759,-1.94255 -1.39423,-2.77864 -0.34172,-0.37753 -0.64053,-0.92327 -0.77566,-1.3746 -0.0652,-0.21766 -0.0846,-0.42372 -0.0884,-0.57929 -0.002,-0.0943 0.005,-0.17894 0.01,-0.21601 0.0728,-0.18886 0.10065,-0.21298 0.16691,-0.34365 0.15714,0.1226 0.26146,0.19274 0.49093,0.4222 0.73179,0.73179 1.75466,1.16374 2.79828,1.11931 1.01076,-0.043 1.90134,-0.47169 2.68046,-1.05058 1.55564,-1.15588 2.90412,-3.03702 4.20232,-5.54746 0.44779,-0.86591 1.39629,-1.55448 2.18953,-1.98335 -0.11865,0.49654 -0.17097,1.01517 -0.01,1.60042 0.17901,0.64892 0.66313,1.28096 1.46296,1.51206 0.69602,0.20113 1.30346,0.006 1.65933,-0.1571 0.72727,-0.33365 1.2408,-0.85081 1.72806,-1.45314 0.42438,-0.52462 0.8067,-1.20883 1.1684,-1.93425 z m 102.04391,0.0884 c 0.52029,0.74164 1.32982,1.7382 2.45463,3.04374 2.70458,3.13916 4.44779,6.12231 6.17585,9.13122 -1.80674,-1.08191 -3.65006,-1.89497 -5.36092,-1.89497 -1.06745,0 -2.00035,0.39633 -2.87682,0.88367 -0.87371,0.48578 -1.70897,1.13498 -2.41536,1.90479 0.17051,-0.34353 0.34318,-0.6081 0.51056,-0.97203 1.09894,-2.3893 2.11027,-4.95202 2.31717,-6.87297 0.20136,-1.86851 -0.11314,-3.6172 -0.80511,-5.22345 z m -16.34785,13.71647 5.05654,2.11098 0.0785,0.0295 0.0196,0.01 c 5.55538,1.73219 5.93767,1.80423 7.09879,0.59893 0.12113,-0.12581 0.21688,-0.28654 0.32401,-0.4222 -0.0462,0.2142 -0.1905,0.38338 -0.19637,0.61857 -0.0359,1.44043 0.64691,2.53676 1.52187,4.07469 4.12492,5.65991 4.72756,0.72338 4.65377,-3.69177 0.4174,-1.73076 2.0542,0.0718 2.8081,0.0982 0.1405,0.10203 0.3711,0.35611 0.55966,0.54983 -0.11922,0.0666 -0.28032,0.061 -0.38293,0.14728 -2.09179,1.75873 -0.62219,8.21071 1.18808,11.49749 0.82572,1.4992 2.1235,2.55738 3.66231,2.543 0.48529,-0.004 0.82162,-0.28594 1.13895,-0.54984 -0.003,0.12479 -0.004,0.26393 -0.01,0.38292 -0.028,0.63057 -0.11448,1.17482 -0.216,1.38442 -0.27845,0.57622 -0.59216,0.86575 -0.76585,0.96221 -0.22889,0.12715 -0.24935,0.14929 -0.65784,0.0196 -0.48245,-0.15311 -0.92062,-0.26246 -1.38441,-0.3142 -0.43246,-0.0483 -1.16254,-0.0856 -1.84588,0.40256 -0.74504,0.53246 -0.94004,1.37214 -0.91313,2.00298 -0.59471,-2.17408 -1.43952,-4.25632 -2.82773,-6.14639 -4.16793,-5.67472 -11.03421,-11.42612 -18.91048,-16.30857 z m -157.13563,19.43086 0.50074,0.29455 -0.39274,0.34365 c -0.004,-0.21458 -0.0423,-0.41956 -0.108,-0.6382 z m 189.91968,0.85421 c 0.002,0.0968 0.0295,0.19809 0.0295,0.29456 0,2.16271 0.0726,3.6736 0.46147,4.92889 0.1969,0.63493 0.51227,1.27893 1.08004,1.77716 0.73748,0.64715 1.52512,0.66078 1.76733,0.69711 0.0145,0.002 0.0205,0.009 0.0295,0.01 0.0194,0.0614 0.0638,0.21033 0.0785,0.49093 0.0463,0.87677 -0.28089,2.57817 -1.11931,4.41833 -0.31332,0.68768 -0.54552,1.06405 -0.74621,1.36478 -0.29131,-0.31562 -0.67983,-0.80048 -1.17822,-1.56115 -1.25485,-1.91505 -3.01498,-3.19432 -4.88962,-3.57394 -0.94559,-0.19151 -1.96021,-0.13929 -2.88665,0.29455 -0.94097,0.44097 -1.68823,1.2726 -2.08153,2.29754 -0.16047,0.41815 -0.32566,0.96431 -0.216,1.62987 0.1302,0.78658 0.64714,1.43634 1.33532,1.75752 0.12568,0.0587 0.24984,0.0369 0.3731,0.0786 -0.46078,0.31306 -0.91743,0.65408 -1.23713,1.14876 -0.64479,0.99778 -1.15219,1.83815 -1.16841,2.91611 v 0.01 c -0.007,0.69691 0.27114,1.16896 0.44184,1.45314 0.19379,0.32296 0.44419,0.62694 0.7462,0.90331 -0.78669,0.49175 -1.61445,1.05489 -2.21898,1.1684 -0.66163,0.12418 -1.24084,0.0957 -1.56115,0.0196 -0.10928,-0.0269 -0.17396,-0.0575 -0.20619,-0.0786 -0.0111,-0.008 -0.0275,-0.0213 -0.0393,-0.0294 0.008,-0.26282 0.0535,-0.66597 0.13746,-1.15859 v -0.01 c 0.1759,-1.03523 0.5287,-2.40684 0.99167,-3.77031 1.8066,-5.32127 2.16079,-9.9787 1.28623,-14.15831 0.0217,0.0925 0.0465,0.18194 0.0785,0.2651 l 0.45166,1.17822 h 0.58911 c 0.95789,1.09289 2.26368,1.83767 3.7114,1.73788 1.87609,-0.12931 3.74878,-1.22052 4.7718,-3.13211 0.48875,-0.91324 0.87939,-2.08217 1.18804,-3.36775 z"
       sodipodi:nodetypes="ccssssscssssscsssssscsssssssssscssssccsssscccssscssssscccssscccssssscssccsccsssscssccccsccccsssscssssscccccsscccssssssssscccscssccccccccccccssscccscccccscsssssccccccccccscssssccssccscccccscscsccscccsssscccscccsscsccsscccssssccsscscsccsscsscccccccssccscscccccccccsccsscccsccscssssccsccccsssccssscccsscsscccccccccsssssccssssscscscscccsscscssssscssssssscsssccsssssscccscscsscsscsccccccssscsssscccssssscccssccccsssscscscscsssssssssccsscscsscsssscccssssccsssccscsscsccccccsccssscsssssssccssccsccscccccscssccscsccsccccsccccccccccsscccccsccccccccccsssc" /></g><style
     id="style1-2">
		tspan { white-space:pre } 
		.s0 { fill: none;stroke: #ff0000;stroke-miterlimit:100 } 
	</style></svg>
