<?xml version="1.0" encoding="UTF-8" standalone="no"?>
<svg
   version="1.2"
   viewBox="0 0 219.2126 219.2126"
   width="58mm"
   height="58mm"
   id="svg1"
   sodipodi:docname="HrobnikRoleTokenLaser.svg"
   inkscape:version="1.4.2 (2aeb623e1d, 2025-05-12)"
   xml:space="preserve"
   xmlns:inkscape="http://www.inkscape.org/namespaces/inkscape"
   xmlns:sodipodi="http://sodipodi.sourceforge.net/DTD/sodipodi-0.dtd"
   xmlns="http://www.w3.org/2000/svg"
   xmlns:svg="http://www.w3.org/2000/svg"><sodipodi:namedview
     id="namedview1"
     pagecolor="#ffffff"
     bordercolor="#666666"
     borderopacity="1.0"
     inkscape:showpageshadow="2"
     inkscape:pageopacity="0.0"
     inkscape:pagecheckerboard="0"
     inkscape:deskcolor="#d1d1d1"
     inkscape:zoom="3.1044263"
     inkscape:cx="99.213179"
     inkscape:cy="112.25907"
     inkscape:window-width="1920"
     inkscape:window-height="940"
     inkscape:window-x="0"
     inkscape:window-y="0"
     inkscape:window-maximized="1"
     inkscape:current-layer="layer2"
     showgrid="false"
     inkscape:document-units="mm" /><defs
     id="defs1"><clipPath
       clipPathUnits="userSpaceOnUse"
       id="cp1"><path
         d="m 275.5,535.5 c -143.78,0 -260,-116.22 -260,-260 0,-143.78 116.22,-260 260,-260 143.78,0 260,116.22 260,260 0,143.78 -116.22,260 -260,260 z"
         id="path1" /></clipPath></defs><style
     id="style1">
		tspan { white-space:pre } 
		.s0 { fill: none;stroke: #ff0000;stroke-miterlimit:100 } 
	</style><g
     inkscape:groupmode="layer"
     id="layer2"
     inkscape:label="Content"
     style="display:inline"><path
       style="display:inline;opacity:1;baseline-shift:baseline;overflow:visible;fill:none;stroke:#000000;stroke-opacity:1;enable-background:accumulate;stop-color:#000000;stop-opacity:1;stroke-width:0.49137931;stroke-dasharray:none"
       d="m 434.44922,106.53125 c -1.0417,0.19851 -1.69395,0.74037 -2.32813,1.26563 -0.67633,0.56016 -3.09759,1.65422 -4.5519,2.76359 l -6.43127,3.15143 4.70734,8.06138 4.15865,6.60758 -1.35157,0.88476 c -0.67897,0.44489 -1.36392,0.85273 -1.8789,1.13086 -0.25749,0.13907 -0.47425,0.24694 -0.59766,0.30079 -0.12341,0.0538 -0.38424,-0.0215 0.32617,-0.0215 -0.79734,0 -0.6258,0.0978 -0.74414,0.13867 -0.11834,0.0409 -0.22794,0.0828 -0.35742,0.13477 -0.25896,0.10404 -0.58489,0.24324 -0.98828,0.41992 -0.80679,0.35336 -1.9151,0.8544 -3.25781,1.47266 -2.68544,1.23651 -6.30193,2.9378 -10.21094,4.80859 -7.78317,3.72491 -18.67371,8.76028 -24.125,11.15625 -12.42456,5.46091 -19.17445,8.53151 -22.85352,10.40625 -1.19579,0.60934 -8.81696,3.92694 -16.32617,7.05859 -3.76687,1.57095 -7.39912,3.10394 -10.22265,4.31055 -2.82353,1.20661 -4.69682,2.01313 -5.43946,2.38672 -1.79736,0.90418 -3.73679,1.80117 -20.11328,9.29687 -4.61401,2.1119 -15.34301,7.19371 -23.90039,11.31836 -4.26352,2.05502 -8.28516,3.9441 -11.31641,5.32813 -1.51562,0.69201 -2.78552,1.25789 -3.70312,1.65039 -0.4588,0.19625 -0.83048,0.35047 -1.08594,0.44922 -0.25546,0.0987 -0.58845,0.1455 -0.16992,0.084 -1.47578,0.21688 -2.58961,0.91434 -3.68555,1.80274 0.17585,-0.14255 -0.82913,0.51888 -2.08789,1.20898 -1.25875,0.6901 -2.97468,1.59943 -5.00195,2.65625 -4.05453,2.11365 -9.36075,4.81565 -14.83789,7.56445 -10.95428,5.49761 -22.71801,11.23197 -26.29102,12.72657 -5.92246,2.47737 -5.22377,0.63415 -7.62351,-0.45328 -0.64811,-0.29368 -0.7476,-0.34359 -1.04883,-1.26953 -0.30123,-0.92595 -1.25518,-2.55787 -1.35667,-5.44203 -0.10098,-2.86942 -2.27594,-7.73961 -3.47754,-11.44879 -1.01716,-3.13986 -1.60365,-5.66209 -2.90932,-7.03399 -0.14004,-0.14715 -2.41098,1.13567 -7.02944,2.05191 -3.79774,0.75345 -13.36949,3.74937 -23.625,7.31055 -3.00666,1.04405 -9.76232,3.25657 -14.93555,4.89063 -27.43721,8.66654 -41.33277,21.92466 -46.98046,45.08203 -3.0553,12.5277 -2.51143,21.69772 2.71484,26.93554 7.62016,7.63702 17.88341,13.00722 31.30273,16.52344 9.67306,2.53461 10.27491,2.57226 21.1875,1.12891 10.90362,-1.44216 32.14308,-7.93016 40.57032,-12.47656 12.44058,-6.71156 20.0401,-10.94154 24.62695,-13.86915 2.29342,-1.4638 3.83549,-2.59012 4.91406,-3.64453 1.07857,-1.0544 2.94065,-1.89286 2.94065,-3.20865 0,-0.88051 -1.40012,-1.72677 -1.70432,-2.33822 -0.3042,-0.61145 -0.69635,-1.24418 -1.16016,-1.91992 -0.92762,-1.35149 -2.14212,-2.85842 -3.44336,-4.31641 -1.30124,-1.45799 -2.89914,-2.65198 -3.95507,-3.97461 -1.61555,-2.02359 -4.51941,-6.21794 -1.05274,-10.5625 2.03977,-2.55632 3.50163,-4.05406 6.20508,-5.875 2.70344,-1.82094 6.69652,-3.92787 13.53125,-7.33594 8.5405,-4.25863 21.53609,-10.44863 28.79492,-13.71484 7.47285,-3.36249 41.80903,-20.11811 76.61719,-37.375 17.39854,-8.6257 33.96401,-16.79887 46.63672,-23.01953 12.6727,-6.22066 21.58607,-10.5465 23.22656,-11.27539 3.66882,-1.63011 8.79993,-3.93198 11.42187,-5.12305 1.29043,-0.5862 2.51192,-1.11947 3.42188,-1.5 0.16051,-0.0671 0.24521,-0.0974 0.38477,-0.1543 0.12766,0.17053 0.2128,0.27287 0.36718,0.48829 0.68247,0.95231 1.59325,2.29928 2.54297,3.77929 2.71591,4.23238 4.12064,6.66501 6.54688,7.81446 1.21312,0.57472 2.62273,0.56077 3.85351,0.19726 1.23078,-0.36351 2.41569,-0.99081 3.87696,-1.78906 1.395,-0.76206 2.65922,-1.52487 3.61914,-2.17383 0.47996,-0.32448 0.87955,-0.61371 1.2207,-0.9043 0.17058,-0.14529 0.32519,-0.28461 0.5,-0.49023 0.17481,-0.20562 0.54883,-0.36783 0.54883,-1.39844 0,-0.48891 -0.0763,-0.58524 -0.125,-0.74023 -0.0488,-0.155 -0.10146,-0.29062 -0.16211,-0.44141 -0.1213,-0.30158 -0.27752,-0.65122 -0.47266,-1.06836 -0.39027,-0.83427 -0.93439,-1.93229 -1.60156,-3.23828 -1.33433,-2.61198 -3.15317,-6.04528 -5.12109,-9.68359 -3.93585,-7.27663 -8.44339,-15.32956 -10.89063,-19.26367 -2.42837,-3.90378 -3.68859,-6.00455 -5.24609,-7.30469 -0.77876,-0.65007 -1.94464,-1.09695 -2.98633,-0.89844 z M 190.04883,216.67187 c 0.66885,-0.0309 0.83434,0.0534 0.88281,0.0586 0.0417,0.91093 0.24998,1.7109 0.58203,2.72851 0.36319,1.11305 0.84994,2.34804 1.39844,3.50391 0.54197,1.14211 0.84153,2.00898 0.92578,2.5918 0.0843,0.58281 0.0342,0.84986 -0.19531,1.26562 -0.29341,0.53147 -1.37456,1.39877 -2.8711,2.42383 -0.011,-1.09952 -0.25062,-2.19555 -0.69531,-3.54297 -0.55515,-1.68213 -0.75793,-2.73517 -1.88867,-3.74023 -0.56537,-0.50253 -1.64899,-0.78454 -2.39453,-0.59571 -0.74554,0.18884 -1.18023,0.54357 -1.60547,0.89649 -0.0246,0.0204 -0.0145,0.008 -0.0371,0.0254 -0.007,-0.0435 -0.029,-0.026 -0.46094,-0.64258 -0.40875,-0.58357 -0.86447,-1.33517 -1.85937,-1.83984 -0.9949,-0.50468 -2.13175,-0.46537 -3.33008,-0.19727 -0.66526,0.14884 -1.74515,0.57135 -2.63672,0.87695 1.70295,-0.54299 2.89511,-1.06822 4.74609,-1.625 4.68641,-1.40965 7.8295,-2.11311 9.43946,-2.1875 z m -16.62891,4.64649 c -2.03731,0.79633 -4.55515,1.83576 -7.99609,3.24805 -11.82654,4.85403 -16.54107,7.52877 -24.5918,13.95117 -1.22102,0.97406 -2.25015,1.85365 -3.41992,2.81445 8.74779,-9.07283 19.04742,-14.41195 36.00781,-20.01367 z m 2.06445,16.23828 c -0.19953,0.0399 -0.30861,0.12874 -0.44335,0.17188 -1.07798,0.3451 -2.2121,1.01642 -4.2129,2.20117 -2.00079,1.18475 -4.66139,2.84375 -7.95507,4.97265 -2.38753,1.54319 -3.62836,2.28981 -4.53321,3.28711 -0.22621,0.24933 -0.62296,0.46468 -0.65625,1.49024 -0.0166,0.51278 0.28767,1.22706 0.68946,1.57226 0.40179,0.34521 0.74676,0.42247 0.99218,0.46875 0.98169,0.18514 1.31594,-0.0157 1.99805,-0.16797 1.35007,-0.30128 2.78478,-1.0385 4.51953,-2.02929 1.73475,-0.9908 3.64031,-2.23577 5.36133,-3.53516 2.48127,-1.87338 4.1553,-3.21015 5.16016,-4.12695 0.50242,-0.4584 0.79128,-0.55674 1.21289,-1.41797 0.1054,-0.21531 0.29218,-0.53448 0.19336,-1.19727 -0.0988,-0.66278 -0.84409,-1.40909 -1.33985,-1.56445 -0.49575,-0.15536 -0.78679,-0.16493 -0.98633,-0.125 z m 30.8086,21.49023 c 0.6612,-0.16007 0.76127,-0.16854 1.41211,0.23243 0.65084,0.40097 1.71428,1.40446 3.23047,3.17578 2.24807,2.62637 5.21497,5.15568 7.73047,6.35156 l -1.69336,0.75 c -2.53964,1.12444 -6.0975,2.3725 -9.37891,3.49414 0.0459,-0.21769 0.16916,-0.41532 0.17578,-0.63867 0.0742,-2.50259 -1.50876,-4.49889 -3.96289,-7.33789 l -3.91992,-4.53125 c 2.40011,-0.56006 5.62409,-1.30673 6.40625,-1.4961 z m -10.625,2.48243 -6.18164,3.33398 c -3.84202,2.07236 -7.41541,3.73355 -10.93164,5.2168 1.1915,-0.85275 2.3624,-1.72722 3.48828,-2.77735 3.0639,-2.85775 5.22202,-3.82755 12.46289,-5.50195 0.50021,-0.11567 0.66185,-0.15557 1.16211,-0.27148 z"
       id="path3"
       sodipodi:nodetypes="sscccccsscscsssssssssssssccssssssssssssssssssssssssssssssssscssssssssssssssssssscsssscsssscssscssscssccsssssssscsssssssssscccsccscccssc"
       transform="scale(0.38458351)"
       inkscape:label="znak" /><path
       id="path7"
       style="display:inline;opacity:1;font-size:109.103px;font-family:'New Rocker';-inkscape-font-specification:'New Rocker';letter-spacing:2.02104px;baseline-shift:baseline;white-space:pre;overflow:visible;fill:none;stroke:#000000;stroke-opacity:1;enable-background:accumulate;stop-color:#000000;stop-opacity:1;stroke-width:0.49137931;stroke-dasharray:none"
       d="m 409.19727,339.74414 -2.54688,5.0918 c -0.59634,1.19267 -1.38674,2.60606 -2.36719,4.21679 l -0.0293,0.0488 -0.0293,0.0508 c -0.90753,1.60563 -1.88556,3.21515 -2.9375,4.82813 l -0.0117,0.0156 -0.01,0.0176 c -1.01274,1.59146 -1.98891,3.10839 -2.92773,4.55274 l -0.0352,0.0527 -0.0312,0.0547 c -0.87726,1.4621 -1.5743,2.63549 -2.0957,3.52929 l -1.5293,2.62305 2.3711,1.89649 c 0.96444,0.77156 1.59365,1.41366 1.82031,1.70507 l 0.13477,0.17188 0.15429,0.1543 c 0.73739,0.73737 1.67351,1.54783 2.88867,2.53515 l 2.4629,2 2.24414,-2.24414 c 0.61045,-0.61046 1.23662,-1.22802 1.87695,-1.85351 l 0.041,6.86132 c -1.03313,0.2374 -2.11461,0.48036 -3.24414,0.72852 -2.92528,0.5705 -5.62699,1.03181 -8.09765,1.38477 l -3.02149,0.43164 v 6.56445 l 4.03711,1.74609 v 28.63672 h -9.27539 v -4.87304 c 0,-3.75969 0.0361,-6.89657 0.10742,-9.39258 0.0716,-2.50501 0.14389,-4.60204 0.21485,-6.31446 0.13636,-1.62547 0.27236,-2.93302 0.40039,-3.9082 0.19643,-1.03469 0.41941,-1.99822 0.66992,-2.875 l 0.81641,-2.86328 -2.6875,-1.28125 c -1.45484,-0.69278 -2.71469,-1.34167 -3.78321,-1.94141 -1.07724,-0.67452 -2.12119,-1.34927 -3.13086,-2.02148 -0.90831,-0.65006 -1.82545,-1.37119 -2.75,-2.16211 -0.99407,-0.9234 -2.08775,-1.94576 -3.29296,-3.08008 l -2.55469,-2.40234 -2.41211,2.54492 c -2.53487,2.67569 -4.9779,4.97686 -7.31836,6.9043 -0.77087,0.63483 -1.80287,1.2845 -2.64648,1.92382 v -3.12695 l -3.80665,-6.34375 -2.52929,0.63086 c -2.2676,0.5669 -4.87524,1.17518 -7.80274,1.81836 -2.92528,0.5705 -5.62699,1.03181 -8.09765,1.38477 l -3.02149,0.43164 v 6.56445 l 4.03711,1.74609 v 28.63672 h -8.02539 c -0.0648,-1.20082 -0.11848,-2.53366 -0.16016,-3.99219 -0.0715,-2.50078 -0.10937,-5.4521 -0.10937,-8.8457 0,-2.70221 0.0729,-5.36581 0.21484,-7.99219 v -0.004 -0.002 c 0.13125,-2.49377 0.56116,-5.16763 1.3086,-8.02148 l 0.8789,-3.35938 -3.34765,-0.92382 c -1.77326,-0.48917 -3.54288,-1.25985 -5.32813,-2.34375 -1.7376,-1.05497 -3.37175,-2.39947 -4.91406,-4.07032 l -1.38672,-1.50195 -1.99023,0.46094 c -2.01632,0.4653 -4.02789,1.04609 -6.03321,1.74023 -2.00115,0.69271 -3.96269,1.50158 -5.88476,2.42188 -1.5841,0.69908 -3.05774,1.48895 -4.50195,2.30078 v -19.07227 c 0,-3.60782 0.24661,-6.74187 0.70703,-9.38867 0.49877,-2.4639 1.31621,-4.20211 2.29687,-5.3789 l -4.2168,-5.42969 c -2.91884,1.38992 -5.62792,2.44783 -8.10937,3.18554 l -0.0117,0.004 -0.0137,0.004 c -2.33113,0.71229 -4.4907,1.04687 -6.5,1.04687 -1.65978,0 -2.97612,-0.22035 -3.96484,-0.5664 l -8.47266,-2.96485 4.20117,7.93164 c 0.59233,1.11884 1.07399,2.18366 1.45117,3.18946 0.36025,0.96068 0.62928,1.94935 0.81055,2.97656 l 0.0176,0.0977 0.0234,0.0976 c 0.23546,1.00067 0.39155,2.13559 0.45508,3.40625 0.0691,1.38168 0.10547,2.9629 0.10547,4.73438 v 37.75 c 0,4.79377 -0.0794,8.97122 -0.23242,12.50976 h -6.49414 c -0.68069,-5.35844 -1.02149,-10.83674 -1.02149,-16.4375 0,-6.24077 0.42865,-11.60567 1.25,-16.05469 l 0.92579,-5.01171 -5.01563,0.91015 c -0.65193,0.11854 -1.34926,0.20767 -2.08203,0.27149 h -3.39844 c -2.59609,0 -5.48948,-0.26719 -8.66992,-0.82032 -3.07761,-0.53523 -7.1248,-1.61647 -12.03711,-3.2539 l -2.0625,-0.6875 -1.53906,1.53711 c -3.09726,3.09726 -6.26313,5.64421 -9.49219,7.66601 -3.23117,1.95038 -6.03067,3.06515 -8.2793,3.46875 l -2.71484,0.48633 c 0.25952,-1.24265 0.50765,-2.49275 0.66406,-3.80664 l 0.36914,-3.11328 -3.04882,-0.72656 c -2.94123,-0.7003 -5.61288,-1.46524 -8.02149,-2.28907 -2.3877,-0.88906 -4.17094,-1.73625 -5.20703,-2.39062 l -3.67383,-2.32031 -1.50586,4.07617 c -0.58687,1.588 -1.27292,2.99017 -1.9082,4.48828 v -0.86133 l -3.80664,-6.34375 -2.5293,0.63086 c -2.26759,0.5669 -4.87523,1.17518 -7.80273,1.81836 -2.92528,0.5705 -5.62699,1.03181 -8.09766,1.38477 l -3.02148,0.43164 v 6.56445 l 4.03711,1.74609 v 28.63672 h -13.86524 c -0.0678,-1.73368 -0.10351,-3.50376 -0.10351,-5.31054 0,-3.13694 0.45617,-6.27524 1.3789,-9.45118 1.03497,-3.3057 2.15536,-5.99602 3.29688,-8.02539 l 1.52929,-2.71875 -2.51367,-1.84375 c -0.68031,-0.49889 -1.24021,-1.12819 -1.73828,-1.96093 -0.50562,-0.96914 -0.94285,-2.03859 -1.30273,-3.21876 -0.30944,-1.32225 -0.53472,-2.67594 -0.66211,-4.07031 v -0.002 c -0.13659,-1.57142 -0.20508,-3.14262 -0.20508,-4.71289 0,-1.89446 0.0357,-3.94299 0.10547,-6.13086 0.1327,-2.03218 0.42839,-4.02524 0.88281,-5.98828 0.50272,-1.86893 1.20351,-3.5449 2.10938,-5.05469 l 0.0156,-0.0254 0.0156,-0.0254 c 0.79049,-1.37019 1.83753,-2.43115 3.32812,-3.31445 l -2.24805,-6.51563 c -3.32421,0.43359 -6.61293,0.83025 -9.86328,1.19141 l -0.004,0.002 h -0.004 c -3.07556,0.34949 -6.07108,0.52344 -8.98633,0.52344 -2.65624,0 -5.18828,-0.20489 -7.60351,-0.60742 l -6.27149,-1.04493 2.44531,5.86915 c 1.3773,3.30552 2.27431,6.26919 2.72657,8.85351 l 0.002,0.01 0.002,0.008 c 0.46388,2.58447 0.70703,5.58204 0.70703,8.97851 v 12.39063 c -0.75287,0.0417 -1.63112,0.10344 -2.30664,0.13281 -1.61321,0.0701 -3.38232,0.10547 -5.30273,0.10547 h -8.00195 c -1.42584,-0.0401 -2.72952,-0.18816 -4.08008,-0.29492 v -10.58789 c 0,-1.83353 0.10189,-3.7499 0.30859,-5.74805 v -0.006 -0.008 c 0.20377,-2.03766 0.50973,-3.95346 0.90821,-5.75586 0.46177,-1.83793 1.01243,-3.48036 1.63867,-4.92773 0.65251,-1.41713 1.35974,-2.40035 2.02734,-3.02344 l 8.12891,-7.58594 -11.01368,1.5293 c -2.63015,0.36529 -5.18979,0.76836 -7.68164,1.20703 -2.20247,0.3337 -4.60912,0.50586 -7.21875,0.50586 -2.18091,0 -4.52454,-0.13771 -7.029292,-0.41602 -2.479866,-0.27554 -5.204196,-0.72748 -8.16211,-1.36133 l -4.822266,-1.0332 0.591797,4.89453 c 0.572147,4.74065 2.154008,8.78096 5.041016,11.66797 l 0.02148,0.0215 0.01953,0.0195 c 1.908219,1.84666 4.080666,3.12767 6.357421,4.0957 0.09384,1.4294 0.208985,2.89224 0.208985,4.17578 0,3.06536 -0.364414,6.00409 -1.089844,8.83985 l -0.0098,0.0371 -0.0098,0.0371 c -0.634116,2.7267 -1.888861,5.91441 -3.816406,9.49414 l -1.111328,2.06641 1.478515,1.82031 c 1.50391,1.85097 2.683726,4.28944 3.458985,7.45508 l 0.002,0.008 0.002,0.01 c 0.801708,3.20683 1.205078,6.51374 1.205078,9.94727 0,1.78577 -0.244165,3.57309 -0.746094,5.39257 l -0.01563,0.0547 -0.01367,0.0547 c -0.448847,1.85952 -1.08369,3.60293 -1.908203,5.25195 -0.824514,1.64903 -1.791581,3.11167 -2.90625,4.41211 -1.102696,1.28648 -2.24652,2.27175 -3.435547,3.00781 l 2.378907,6.47071 c 2.33156,-0.35327 4.662134,-0.63584 6.992187,-0.84766 2.256649,-0.20515 4.996509,-0.3125 8.191409,-0.3125 1.83353,0 3.99581,0.10282 6.46484,0.31445 l 0.0508,0.004 0.0527,0.004 c 2.47254,0.13736 5.30963,0.45024 8.49219,0.94531 l 8.22656,1.27929 -4.81445,-6.79101 c -2.603,-3.6709 -4.23051,-7.29157 -4.99219,-10.9082 v -0.002 c -0.81923,-3.96383 -1.23438,-8.15504 -1.23437,-12.58593 v -2.57227 c 1.28296,-0.12205 2.49991,-0.27271 3.8789,-0.35156 2.5374,-0.14097 5.41967,-0.21289 8.64063,-0.21289 1.64791,0 3.17467,0.0697 4.57617,0.20312 l 0.0879,0.008 0.0859,0.004 c 0.62116,0.0282 1.48974,0.12142 2.20507,0.17383 v 1.33008 c 0,2.36472 -0.0339,4.69263 -0.10546,6.98242 l -0.002,0.0547 v 0.0547 c 0,2.18093 -0.13793,4.19802 -0.40234,6.04883 l -0.008,0.0606 -0.008,0.0625 c -0.19686,1.83737 -0.52142,3.46126 -0.95117,4.88086 -0.38304,1.19834 -0.86795,2.01842 -1.40039,2.5918 l -3.71875,4.0039 5.1836,1.72852 c 1.30491,0.43497 2.53923,0.98931 3.71484,1.66992 l 0.0332,0.0195 0.0332,0.0195 c 1.28902,0.70896 2.42045,1.46625 3.4043,2.26563 0.99982,0.81235 1.84434,1.63399 2.55664,2.45898 0.68355,0.86381 1.10535,1.59654 1.28906,2.07422 l 2.55274,6.63867 3.72656,-6.05859 c 1.03713,-1.68534 2.36705,-3.45418 3.99805,-5.28907 1.23153,-1.38547 3.2741,-2.72912 6.3125,-3.82812 l 6.66797,-2.41211 -5.95313,-3.85156 c -0.80631,-0.52174 -1.41916,-1.15282 -1.94726,-1.94727 -0.52322,-0.96307 -0.96324,-2.00313 -1.30664,-3.14648 h 13.15625 v 2.5918 c 0,1.67063 -0.2455,2.81354 -0.46094,3.32421 -0.11445,0.2713 -0.1592,0.35605 -0.17578,0.375 l -0.002,0.002 h -0.002 -0.002 l -0.002,-0.002 v -0.002 c -8.1e-4,-0.003 -0.001,-0.009 -0.002,-0.0117 h -0.002 v -0.002 h -0.002 l -2.29688,0.85156 v 7.60352 h 30.38672 v -8.38477 l -2.97656,-0.46484 c -1.72923,-0.27019 -2.46292,-0.7434 -2.68164,-0.94141 -0.1624,-0.28021 -0.56055,-1.31992 -0.56055,-3.32812 v -1.61133 h 24.36133 c -0.10724,1.04643 -0.24182,1.97939 -0.40039,2.79492 l -0.008,0.0371 -0.008,0.0391 c -0.34755,2.02738 -0.99348,2.99406 -1.00976,3.05274 v 0.002 l -10.2168,8.75781 13.20312,-2.64062 c 0.14252,-0.0285 0.2713,-0.0391 0.40039,-0.0391 h 0.29102 l 0.28906,-0.0488 c 0.2488,-0.0415 0.48955,-0.0606 0.73047,-0.0606 1.24818,0 3.02674,0.1564 5.23828,0.50195 2.22148,0.34711 4.44475,0.79869 6.67188,1.35547 2.22299,0.55575 4.2519,1.14297 6.09765,1.75586 1.75903,0.65593 2.91082,1.31836 3.11133,1.48242 l 2.46485,2.01563 2.25195,-2.25196 c 1.38921,-1.38921 2.95797,-2.72589 4.71484,-4.00976 l 0.0352,-0.0254 0.0352,-0.0274 c 1.74424,-1.34172 3.5458,-2.50814 5.4082,-3.50586 1.89313,-1.01416 3.76919,-1.85074 5.63086,-2.51562 1.82917,-0.65328 3.5041,-1.05666 5.01758,-1.23828 l 3.69336,-0.44336 -0.64649,-3.66211 c -0.0779,-0.44144 -0.15342,-0.88309 -0.22656,-1.32617 h 5.57031 c -0.0452,0.60023 -0.0933,1.17273 -0.14453,1.71875 -0.41113,4.38544 -1.27503,7.52148 -2.20508,9.22656 l -4.5625,8.36523 8.9043,-3.39257 c 1.23664,-0.4711 2.73397,-0.85285 4.48437,-1.11328 1.90793,-0.27248 3.56869,-0.40235 4.95508,-0.40235 1.989,0 4.40016,0.28845 7.17969,0.89649 2.889,0.70577 5.92958,1.55335 9.12305,2.54687 l 1.64257,0.50977 1.41211,-0.98243 c 1.53948,-1.07094 3.18883,-2.07869 4.94532,-3.02734 1.87276,-0.89969 3.74191,-1.73332 5.60937,-2.49414 1.87441,-0.76364 3.70515,-1.41949 5.49024,-1.96875 1.78205,-0.54832 3.39802,-0.94826 4.83203,-1.20898 l 4.83007,-0.87891 -2.38476,-4.29297 c -0.10473,-0.18852 -0.32381,-0.7428 -0.49414,-1.58398 -0.0981,-0.52601 -0.19267,-1.16727 -0.28125,-1.91797 h 7.6582 v 2.5918 c 0,1.70148 -0.28724,2.79908 -0.50195,3.22851 l -0.0195,0.041 -0.0215,0.0449 c -0.16187,0.34687 -0.23846,0.43169 -0.25586,0.4414 h -0.002 -0.002 v -0.002 -0.002 h 0.002 l 0.002,-0.002 c 6.7e-4,-8.1e-4 0.003,-0.005 0.004,-0.006 10e-4,-9e-4 0.003,-0.003 0.004,-0.004 l -2.1543,0.89844 v 7.5 h 27.11133 v -7.60352 l -2.22657,-0.82617 c -0.0312,-0.0605 -0.096,-0.19815 -0.20117,-0.48242 -0.26248,-0.70967 -0.51756,-2.1672 -0.51757,-4.20703 V 400.516 l 7.80078,-3.48828 v 9.20118 0.0312 c 0.0724,4.12534 0.10937,8.25161 0.10937,12.37695 0,0.58684 -0.0648,1.869 -0.20703,3.64648 -0.14296,1.787 -0.32335,3.76209 -0.53906,5.91992 -0.20997,2.02972 -0.48952,4.05988 -0.83985,6.0918 l -0.002,0.01 v 0.01 c -0.347,2.08201 -0.72699,3.77291 -1.10156,5.02149 l -0.60352,2.01367 4.7168,4.7168 2.48437,-2.66407 c 0.93085,-0.99734 2.01811,-2.05038 3.25782,-3.15234 1.22079,-1.08515 2.51322,-2.13948 3.87695,-3.16406 1.43388,-1.02333 2.8237,-1.93774 4.16797,-2.7461 1.35884,-0.77518 2.65117,-1.37185 3.87109,-1.79882 l 2.88867,-1.01172 -0.59961,-3 c -0.13783,-0.68918 -0.27715,-1.41756 -0.41601,-2.17969 -0.1142,-0.68521 -0.21723,-1.66786 -0.28516,-2.89063 -0.0514,-0.92459 -0.10398,-2.05469 -0.15625,-3.3789 h 9.21875 v 2.48437 c 0,5.15279 1.4763,9.91956 4.39844,13.87305 l 1.05469,1.42773 h 2.83789 l 0.49414,-0.14843 c 2.13396,-0.64019 4.19071,-1.20636 6.16992,-1.70118 1.92185,-0.48045 4.00159,-0.89886 6.23633,-1.24804 l 2.97461,-0.46485 v -7.0957 l -2.22461,-0.82617 c -0.0317,-0.0608 -0.0983,-0.19902 -0.20313,-0.48242 -0.26247,-0.70967 -0.51757,-2.1672 -0.51757,-4.20703 v -1.61133 h 9.82226 v 2.5918 c 0,1.67063 -0.24354,2.81354 -0.45898,3.32421 -0.11446,0.2713 -0.1592,0.35605 -0.17578,0.375 l -0.002,0.002 h -0.002 -0.002 v -0.002 h -0.002 v -0.002 c -8.1e-4,-0.003 -10e-4,-0.009 -0.002,-0.0117 h -0.002 v -0.002 h -0.002 l -2.29687,0.85156 v 7.60352 h 27.11133 v -7.60352 l -2.22656,-0.82617 c -0.0312,-0.0605 -0.096,-0.19815 -0.20118,-0.48242 -0.26248,-0.70967 -0.51756,-2.1672 -0.51758,-4.20703 v -9.85157 c 0.64522,0.3234 1.37046,0.59567 1.99024,0.93555 l 0.0391,0.0215 0.0391,0.0195 c 1.60172,0.82669 3.17662,1.85074 4.75,2.88086 v 7.08398 c 0,1.25851 -0.0659,2.64702 -0.20312,4.15625 -0.14025,1.54274 -0.31603,3.0462 -0.52539,4.51172 -0.20052,1.40359 -0.46446,2.72587 -0.79102,3.9668 l -0.0234,0.084 -0.0176,0.0859 c -0.26339,1.25107 -0.55191,2.25019 -0.82227,2.95312 l -1.27539,3.3125 6.31836,2.36719 1.60156,-1.60156 c 0.72664,-0.72663 1.65902,-1.53429 2.78125,-2.39453 1.2227,-0.88141 2.55474,-1.77012 4.00196,-2.66602 1.47185,-0.91115 2.979,-1.78845 4.52343,-2.63086 1.53131,-0.83526 2.98049,-1.55733 4.3418,-2.16992 l 2.60352,-1.17188 -0.60938,-2.78906 c -0.41594,-1.90146 -0.68359,-4.95711 -0.68359,-8.95898 0,-1.95709 0.0369,-3.644 0.10351,-5.08008 0.13495,-1.39454 0.33123,-2.79072 0.59766,-4.18945 l 0.46484,-2.43555 -2.13672,-1.25586 c -2.63569,-1.55041 -5.48422,-2.93365 -8.53906,-4.15625 -0.29711,-0.12175 -0.65495,-0.21466 -0.96094,-0.33203 l 9.81641,-3.71484 -0.75977,-3.03711 c -0.0367,-0.14682 -0.16195,-0.94856 -0.22851,-2.08008 -0.0701,-1.19209 -0.10352,-2.15616 -0.10352,-2.84961 0,-2.72469 0.30874,-4.93275 0.82422,-6.59375 l 1.15235,-3.71485 -3.81055,-0.77539 c -3.80062,-0.7742 -7.02797,-1.61452 -9.67578,-2.49414 -2.51545,-0.93056 -4.72619,-2.03816 -6.64063,-3.31445 l -2.40039,-1.59961 -2.03906,2.03906 c -1.38472,1.38472 -2.54512,2.42793 -3.70313,3.46875 v -15.38086 c 0,-4.18229 0.29178,-7.48358 0.78516,-9.78906 0.56461,-2.3007 1.36465,-3.93613 2.23828,-5.0039 l -4.26953,-5.38868 c -3.12946,1.52996 -5.8908,2.61127 -8.23242,3.26172 -2.36751,0.65765 -4.49269,0.96289 -6.36914,0.96289 -1.82621,0 -3.13724,-0.2476 -3.85156,-0.52539 l -9.58203,-3.72656 5.28906,8.81641 c 0.53629,0.89382 0.93237,1.75219 1.20703,2.57617 l 0.0312,0.0976 0.0391,0.0957 c 0.34129,0.85321 0.60399,1.7813 0.7832,2.79687 l 0.0176,0.0977 0.0234,0.0957 c 0.23193,0.98571 0.3908,2.15796 0.45508,3.50781 l 0.004,0.084 0.008,0.082 c 0.13197,1.38577 0.20312,3.02732 0.20312,4.9043 v 50.25976 h -9.82226 v -34.86914 l -3.80664,-6.34375 -2.5293,0.63086 c -0.0103,0.003 -0.0209,0.005 -0.0312,0.008 l -0.0586,-10.00976 c 0.82958,-0.7514 1.6378,-1.48203 2.42382,-2.18946 1.39932,-1.25938 2.67935,-2.32717 3.82227,-3.20117 l 0.0488,-0.0391 0.0488,-0.041 c 1.19171,-0.98139 2.0983,-1.66774 2.55274,-1.9707 l 4.73633,-3.1582 -4.94336,-2.82422 c -0.38258,-0.21861 -1.11223,-0.66893 -2.04297,-1.26563 -0.91677,-0.70337 -1.88718,-1.43378 -2.92774,-2.19726 -0.94211,-0.74121 -1.84888,-1.48083 -2.72265,-2.21875 -0.74804,-0.68972 -1.27169,-1.26264 -1.49219,-1.55664 z m 25.20898,11.38867 0.0566,0.14844 c -0.0119,-0.0271 -0.0297,-0.0525 -0.0391,-0.0801 -0.009,-0.0216 -0.0118,-0.0454 -0.0176,-0.0684 z m -135.10937,30.72071 c -0.0127,0.008 -0.0246,0.0175 -0.0391,0.0254 -0.01,0.006 -0.0216,0.0101 -0.0312,0.0156 z m -82.0879,9.10742 1.24805,1.56054 c 0.0102,0.0255 0.0204,0.0538 0.0293,0.084 0.0883,0.2981 0.2184,0.84479 0.34961,1.56641 0.2666,1.46633 0.5112,3.30719 0.72265,5.49218 l 0.006,0.0547 0.006,0.0566 c 0.27896,2.16194 0.49159,4.47975 0.63281,6.95117 v 0.002 0.004 c 0.14204,2.41446 0.21094,4.63758 0.21094,6.66602 0,0.74314 -0.008,1.45954 -0.0254,2.14648 h -24.63281 v -7.78711 l 6.76367,-9.52148 8.00586,4.18359 1.82227,-2.0957 c 1.77034,-2.03589 3.16641,-4.48347 4.23242,-7.27149 l 0.006,-0.0156 0.006,-0.0156 c 0.24498,-0.65956 0.40882,-1.37558 0.61718,-2.06054 z m 1.16602,1.41015 h 0.002 v 0.002 l 0.002,0.002 c 0.0102,0.0115 0.0364,0.0497 0.0625,0.10742 -0.042,-0.0616 -0.0623,-0.098 -0.0664,-0.10937 z m 232.20312,0.004 6.83594,1.35742 -6.83594,2.77149 z m -209.5664,1.29297 c 0.83586,0.22971 1.60159,0.47311 2.54492,0.6875 l 0.0371,0.008 0.0371,0.008 c 2.2801,0.46639 4.63835,0.72108 6.98437,1.00977 l -0.16601,23.40234 c -1.40765,-0.3296 -2.71186,-0.74177 -4.21289,-0.99804 -1.85774,-0.31718 -3.45041,-0.51456 -5.125,-0.75 0.0677,-1.50864 0.14833,-3.00478 0.1914,-4.53711 0.14815,-2.74068 0.22461,-5.20041 0.22461,-7.39063 0,-2.75263 -0.0756,-5.47104 -0.22461,-8.1543 v -0.006 c -0.0557,-1.02974 -0.20473,-2.20271 -0.29101,-3.2793 z m 68.75,1.53125 c -0.0488,0.74007 -0.0977,1.38006 -0.14649,2.16016 l -0.002,0.0547 -0.002,0.0547 c -0.0739,2.36412 -0.11133,4.72957 -0.11133,7.09375 v 7.90234 l 0.002,0.0469 c 0.0507,1.87567 0.14445,3.17488 0.23243,4.5664 -0.65565,0.44509 -1.30402,0.77779 -1.97852,1.33204 -0.68147,0.52321 -1.18091,1.01249 -1.75977,1.51367 -1.32893,-0.35697 -2.60199,-0.72368 -4.20117,-1.03321 -0.91912,-0.17788 -1.5219,-0.19874 -2.32226,-0.32226 0.17385,-1.60938 0.43717,-2.99357 0.48046,-4.97852 0.14626,-3.38912 0.21876,-7.08391 0.21876,-11.10156 v -4.35547 c 0.34073,-0.1547 0.49939,-0.27396 0.91992,-0.4375 l 0.0781,-0.0312 0.0762,-0.0332 c 1.14349,-0.50822 2.40739,-0.9635 3.79297,-1.35938 1.41396,-0.40398 2.86413,-0.74287 4.35352,-1.01367 l 0.0605,-0.01 0.0586,-0.0137 c 0.0891,-0.0194 0.16159,-0.0169 0.25,-0.0352 z"
       transform="scale(0.38458351)"
       inkscape:label="text" /><g
       inkscape:groupmode="layer"
       id="layer4"
       inkscape:label="Kruh"
       style="display:inline"><path
         id="path2"
         style="fill:none;stroke:#000000;stroke-width:0.189192"
         d="M 219.118,109.6063 A 109.5117,109.5117 0 0 1 109.6063,219.118 109.5117,109.5117 0 0 1 0.09459686,109.6063 109.5117,109.5117 0 0 1 109.6063,0.09459686 109.5117,109.5117 0 0 1 219.118,109.6063 Z"
         inkscape:label="Vnejsi kruh" /><path
         id="circle2"
         style="fill:none;stroke:#000000;stroke-width:0.188976"
         d="M 208.69732,109.6063 A 99.091019,99.091019 0 0 1 109.6063,208.69732 99.091019,99.091019 0 0 1 10.515282,109.6063 99.091019,99.091019 0 0 1 109.6063,10.515282 99.091019,99.091019 0 0 1 208.69732,109.6063 Z"
         inkscape:label="Vnitrni kruh" /></g></g></svg>
