<?xml version="1.0" encoding="UTF-8" standalone="no"?>
<svg
   version="1.2"
   viewBox="0 0 219.2126 219.2126"
   width="58mm"
   height="58mm"
   id="svg1"
   sodipodi:docname="PistolnikRoleTokenLaser.svg"
   inkscape:version="1.4.2 (2aeb623e1d, 2025-05-12)"
   xml:space="preserve"
   xmlns:inkscape="http://www.inkscape.org/namespaces/inkscape"
   xmlns:sodipodi="http://sodipodi.sourceforge.net/DTD/sodipodi-0.dtd"
   xmlns="http://www.w3.org/2000/svg"
   xmlns:svg="http://www.w3.org/2000/svg"><sodipodi:namedview
     id="namedview1"
     pagecolor="#ffffff"
     bordercolor="#666666"
     borderopacity="1.0"
     inkscape:showpageshadow="2"
     inkscape:pageopacity="0.0"
     inkscape:pagecheckerboard="0"
     inkscape:deskcolor="#d1d1d1"
     inkscape:zoom="4.6154327"
     inkscape:cx="99.882292"
     inkscape:cy="103.78225"
     inkscape:window-width="1920"
     inkscape:window-height="1043"
     inkscape:window-x="0"
     inkscape:window-y="0"
     inkscape:window-maximized="1"
     inkscape:current-layer="layer1"
     inkscape:document-units="mm"
     showgrid="false" /><defs
     id="defs1"><clipPath
       clipPathUnits="userSpaceOnUse"
       id="cp1"><path
         d="m 275.5,535.5 c -143.78,0 -260,-116.22 -260,-260 0,-143.78 116.22,-260 260,-260 143.78,0 260,116.22 260,260 0,143.78 -116.22,260 -260,260 z"
         id="path1" /></clipPath></defs><style
     id="style1">
		tspan { white-space:pre } 
		.s0 { fill: none;stroke: #ff0000;stroke-miterlimit:100 } 
	</style><g
     inkscape:groupmode="layer"
     id="layer1"
     inkscape:label="Template"
     style="display:inline"><g
       inkscape:groupmode="layer"
       id="layer4"
       inkscape:label="Kruh"
       style="display:inline"><path
         id="path2"
         style="fill:none;stroke:#000000;stroke-width:0.189192"
         d="M 219.118,109.6063 A 109.5117,109.5117 0 0 1 109.6063,219.118 109.5117,109.5117 0 0 1 0.09459686,109.6063 109.5117,109.5117 0 0 1 109.6063,0.09459686 109.5117,109.5117 0 0 1 219.118,109.6063 Z"
         inkscape:label="Vnejsi kruh" /><path
         id="circle2"
         style="fill:none;stroke:#000000;stroke-width:0.188976"
         d="M 208.69732,109.6063 A 99.091019,99.091019 0 0 1 109.6063,208.69732 99.091019,99.091019 0 0 1 10.515282,109.6063 99.091019,99.091019 0 0 1 109.6063,10.515282 99.091019,99.091019 0 0 1 208.69732,109.6063 Z"
         inkscape:label="Vnitrni kruh" /></g><g
       id="text2-9"
       inkscape:label="Text"
       style="opacity:1" /><path
       id="path7"
       style="font-size:41.5223px;font-family:'New Rocker';-inkscape-font-specification:'New Rocker';letter-spacing:0.769167px;baseline-shift:baseline;white-space:pre;display:inline;overflow:visible;opacity:1;fill:none;stroke:#000000;stroke-width:0.188976;stroke-dasharray:none;stroke-opacity:1;enable-background:accumulate;stop-color:#000000;stop-opacity:1"
       d="m 164.03906,118.27734 -0.95508,1.91016 c -0.22727,0.45455 -0.529,0.99407 -0.90234,1.60742 l -0.0117,0.0176 -0.01,0.0195 c -0.3456,0.61143 -0.71858,1.2237 -1.11914,1.83789 l -0.004,0.006 -0.004,0.006 c -0.38545,0.60572 -0.7579,1.18463 -1.11523,1.73438 l -0.0117,0.0195 -0.0137,0.0195 c -0.33385,0.5564 -0.59851,1.00368 -0.79688,1.34375 l -0.57422,0.98437 0.89063,0.71094 c 0.36774,0.2942 0.60749,0.53944 0.69531,0.65234 l 0.0508,0.0645 0.0586,0.0586 c 0.27978,0.27978 0.63547,0.58737 1.09765,0.96289 l 0.92383,0.75 0.8418,-0.8418 c 0.0347,-0.0347 0.0685,-0.0687 0.10351,-0.10351 v 2.1875 c -0.19841,0.0445 -0.40049,0.0893 -0.60742,0.13476 -0.003,6.5e-4 -0.005,9.6e-4 -0.008,0.002 -1.10334,0.21478 -2.12543,0.38817 -3.05859,0.52148 l -1.13282,0.16211 v 2.46875 l 1.53516,0.66406 v 11.15039 h -3.56836 v -2.09375 c 0,-1.43098 0.0139,-2.624 0.041,-3.57421 0.0273,-0.95485 0.055,-1.7539 0.082,-2.40625 0.0521,-0.61992 0.10348,-1.1207 0.15234,-1.49219 0.0746,-0.39246 0.16073,-0.75885 0.25586,-1.0918 l 0.30664,-1.07422 -1.00977,-0.47851 c -0.55553,-0.26454 -1.03551,-0.51315 -1.44335,-0.74219 -7.5e-4,-5e-4 -0.005,-0.001 -0.006,-0.002 -0.002,-0.001 -0.004,-0.003 -0.006,-0.004 -0.40875,-0.2561 -0.80432,-0.51428 -1.1875,-0.76953 -0.34405,-0.24665 -0.69096,-0.51877 -1.04102,-0.81836 -0.003,-0.003 -0.006,-0.005 -0.01,-0.008 -0.37582,-0.34915 -0.7874,-0.73603 -1.24219,-1.16407 l -0.95703,-0.90039 -0.90625,0.95508 c -0.96518,1.01879 -1.89565,1.89476 -2.78711,2.62891 -0.30221,0.24888 -0.70558,0.50324 -1.03711,0.7539 v -1.22265 l -1.43946,-2.39649 -0.94921,0.23633 c -0.86785,0.21696 -1.86475,0.44904 -2.98633,0.69531 -0.003,6.5e-4 -0.005,9.6e-4 -0.008,0.002 -1.10335,0.21478 -2.12543,0.38817 -3.0586,0.52148 l -1.13281,0.16211 v 2.46875 l 1.53516,0.66406 v 11.15039 h -3.93946 c -0.001,-0.12731 -0.002,-0.25736 -0.002,-0.39062 v -20.0957 c 0,-1.37196 0.0926,-2.56447 0.26758,-3.57227 0.19019,-0.94259 0.50249,-1.60885 0.8789,-2.06055 l -1.58007,-2.03711 c -1.11159,0.52933 -2.14431,0.93179 -3.08985,1.2129 l -0.004,0.002 -0.006,0.002 c -0.88875,0.27157 -1.71167,0.39844 -2.47852,0.39844 -0.63334,0 -1.13679,-0.0842 -1.51562,-0.2168 l -3.17774,-1.11133 1.57422,2.97461 c 0.22577,0.42645 0.41082,0.83315 0.55469,1.2168 0.13752,0.36672 0.2394,0.74464 0.30859,1.13672 l 0.008,0.0352 0.008,0.0371 c 0.0899,0.3821 0.14961,0.81621 0.17382,1.30079 0.0263,0.52624 0.0391,1.12828 0.0391,1.80273 v 19.36523 h -2.81641 c -0.27984,-2.11522 -0.41992,-4.27772 -0.41992,-6.49218 0,-2.37598 0.16369,-4.41854 0.47656,-6.11328 l 0.34766,-1.88086 -1.88086,0.34179 c -0.24536,0.0446 -0.50798,0.0792 -0.78321,0.10352 h -1.30664 c -0.98933,0 -2.09142,-0.10184 -3.30273,-0.3125 -1.17275,-0.20396 -2.71388,-0.61491 -4.58398,-1.23828 h -0.77149 l -0.58008,0.31836 c -1.18135,1.18136 -2.38896,2.15102 -3.62109,2.92187 -1.22792,0.7403 -2.29512,1.16842 -3.15234,1.32227 l -1.48047,0.26562 c 0.30373,-0.48074 0.63134,-0.91738 0.99218,-1.30078 l 0.35938,-0.38281 v -2.00781 h -5.85547 v -0.88086 c 0,-0.20025 0.01376,-0.61123 0.04102,-1.1836 v -0.002 c 0.02668,-0.58681 0.06767,-1.18876 0.121094,-1.80469 7.2e-5,-7.5e-4 9e-6,-0.005 0,-0.006 v -0.002 c -9e-6,-8.9e-4 -7.3e-5,-0.003 0,-0.004 0.08003,-0.63809 0.160594,-1.23939 0.240234,-1.79687 0.07558,-0.52905 0.17432,-0.89772 0.208984,-0.98438 l 1.345704,-3.36132 -3.19336,1.70898 c -1.152947,0.61669 -2.228859,1.12062 -3.224609,1.51367 -0.914348,0.36093 -1.926187,0.58324 -3.050781,0.65821 l -2.521485,0.16796 1.5,1.87305 c -0.01027,-0.0125 -0.0192,-0.0216 -0.02344,-0.0254 h -0.002 v 0.002 c 0.0042,0.0252 0.08655,0.1882 0.128906,0.41407 l 0.002,0.008 v 0.008 c 0.07309,0.36545 0.1375,0.79744 0.189453,1.29102 l 0.002,0.004 v 0.004 c 0.0527,0.47427 0.09086,0.94794 0.117188,1.42187 l 0.0039,0.041 0.0039,0.041 c 0.05255,0.44672 0.07422,0.77133 0.07422,0.88281 v 0.62304 c -0.843256,0.68841 -1.697448,1.28546 -2.601563,1.63477 l -0.640625,0.24805 c 0.03048,-0.0698 0.08145,-0.0985 0.111329,-0.16992 l 0.708984,-1.69336 -1.832031,-0.13086 c -3.364279,-0.24223 -5.828489,-0.81563 -7.302735,-1.56446 l -0.548828,-0.27734 -0.564453,0.24023 c -1.797512,0.76258 -3.282754,1.31268 -4.425781,1.65039 -1.118974,0.33061 -2.129858,0.48633 -3.03125,0.48633 h -1.851563 l 0.603516,1.75 c 0.242676,0.70377 0.416677,1.48218 0.517578,2.33985 l 0.002,0.0195 0.0039,0.0195 c 0.126213,0.85825 0.193359,1.89111 0.193359,3.08789 0,0.50279 -0.01394,1.08058 -0.04102,1.73047 -0.02596,0.59605 -0.09355,1.49393 -0.203125,2.67187 l 2.970703,1.10938 c 1.002589,-0.24201 1.991494,-0.49159 3.09375,-0.68164 l 0.01172,-0.002 0.0098,-0.002 c 1.038596,-0.19697 1.850464,-0.28773 2.710937,-0.40039 v 0.18359 c 0,0.75726 -0.03792,1.48189 -0.115234,2.17774 -0.02397,0.20751 -0.07777,0.48062 -0.109375,0.70508 -1.433456,-0.60986 -3.25089,-0.93906 -4.259766,-1.28907 l -4.378906,-1.08007 c -0.142934,0.2274 -0.299259,0.62833 -0.451172,1.08007 h -3.05664 v -13.5039 L 63.197265,131.42773 62.25,131.66406 c -0.227878,0.057 -0.465447,0.11479 -0.710938,0.17383 v -1.56055 l 0.21875,-0.4375 c 0.415035,-0.83007 0.88395,-1.47637 1.392578,-1.96289 0.605144,-0.57992 1.357435,-1.19198 2.25586,-1.82617 l 1.695312,-1.19531 -1.800781,-1.0293 c -0.148276,-0.0847 -0.426923,-0.25785 -0.789062,-0.49023 -0.339826,-0.26062 -0.70147,-0.5302 -1.085938,-0.8125 l -0.01563,-0.0117 c -0.0071,-0.005 -0.01242,-0.0104 -0.01953,-0.0156 -0.348256,-0.27425 -0.684112,-0.54918 -1.007813,-0.82226 l -0.0078,-0.008 c -0.289145,-0.26601 -0.490411,-0.48527 -0.576172,-0.59961 l -0.679688,-0.9043 -0.998046,0.53125 c -0.988271,0.52708 -1.877978,1.26228 -2.66211,2.17187 v 0.002 h -0.002 c -0.606529,0.70761 -1.106665,1.44143 -1.570312,2.18359 0.01589,-0.0342 0.04146,-0.0799 0.05664,-0.11328 l 0.996094,-2.19336 -2.384766,0.33984 c -0.361376,0.0517 -0.706299,0.09 -1.035156,0.11524 -0.323755,0.0249 -0.663397,0.0391 -1.019531,0.0391 -1.127398,0 -2.334508,-0.11732 -3.621094,-0.35351 h -0.002 c -1.312564,-0.2686 -2.556007,-0.57603 -3.726563,-0.92188 -1.175099,-0.34719 -2.190816,-0.70361 -3.042968,-1.06445 l -0.0059,-0.004 h -0.002 -0.002 -0.002 l -0.002,-0.002 c -0.829037,-0.3643 -1.386917,-0.69796 -1.464844,-0.76172 l -0.710937,-0.58203 -0.791016,0.46484 c -1.54037,0.90298 -2.880384,1.50559 -3.976562,1.82227 l -0.0039,0.002 h -0.0039 c -1.095524,0.32368 -2.22495,0.48633 -3.404297,0.48633 -0.668956,0 -1.369507,-0.0387 -2.101562,-0.11719 -0.754119,-0.0808 -1.596272,-0.18982 -2.523438,-0.32617 l -1.669922,-0.24609 0.164063,1.68164 c 0.156961,1.60099 0.648109,2.98986 1.576172,4.02929 0.614217,0.68792 1.372338,1.18499 2.185547,1.57813 0.0024,0.10853 0.01172,0.21765 0.01172,0.32617 v 0.0469 l 0.002,0.0469 c 0.02545,0.35636 0.03906,0.71223 0.03906,1.06836 0,1.35484 -0.129217,2.70904 -0.390625,4.06836 l -0.002,0.01 -0.002,0.01 c -0.217748,1.2339 -0.668119,2.33218 -1.365235,3.3418 l -0.609375,0.88476 0.742188,0.77735 c 0.357345,0.37436 0.732833,1.07195 1.001953,2.14843 l 0.0039,0.0137 0.0039,0.0137 c 0.29812,1.0931 0.451172,2.28941 0.451172,3.59765 0,1.14725 -0.127344,2.2608 -0.380859,3.35157 v 0.002 c -0.246695,1.03304 -0.604944,1.85724 -1.046875,2.49805 l -0.855469,1.24023 1.341797,0.68555 c 1.134773,0.57999 2.196749,1.32419 3.193359,2.24414 l 0.0059,0.006 0.0059,0.008 c 0.986666,0.88799 1.642626,1.80147 2.027344,2.75195 l 1.042969,2.58008 1.33789,-2.44141 c 0.613729,-1.12072 1.23567,-2.11238 1.861328,-2.97265 0.551995,-0.759 1.358901,-1.51922 2.451172,-2.25586 l 1.681641,-1.13281 -1.716797,-1.07813 c -0.713471,-0.44847 -1.278597,-1.12687 -1.720703,-2.16797 -0.429871,-1.0794 -0.650391,-2.24317 -0.650391,-3.52539 v -0.33594 c 1.184858,0.0308 2.383234,0.0584 3.421875,0.11719 v 0.002 c 1.216984,0.0676 2.229937,0.29901 3.16211,0.58789 l 0.671875,1.34179 1.28125,-1.70898 c 0.389288,-0.51905 0.775205,-0.98037 1.152343,-1.38281 l 0.002,-0.002 c 0.383801,-0.40754 0.785535,-0.76058 1.207032,-1.0664 0.439683,-0.2995 0.94939,-0.57429 1.535156,-0.81836 l 0.01953,-0.01 0.02148,-0.01 c 0.586319,-0.26874 1.299129,-0.5253 2.132812,-0.75977 l 1.537109,-0.43359 -0.376953,-0.75391 h 2.998047 v 9.92383 c 0,1.95751 0.560281,3.76629 1.669922,5.26758 l 0.396484,0.53515 h 1.066407 l 0.185547,-0.0547 c 0.812406,-0.24373 1.596044,-0.46005 2.349609,-0.64844 0.732043,-0.18301 1.524,-0.34164 2.375,-0.47461 l 1.115234,-0.17383 v -2.67187 l -0.839843,-0.31055 c -0.01218,-0.0223 -0.0388,-0.0765 -0.08203,-0.19336 -0.101147,-0.27347 -0.199218,-0.82973 -0.199218,-1.60742 v -0.35742 h 2.517578 c -0.03092,0.10001 -0.05931,0.19159 -0.08594,0.27148 l -0.0039,0.0117 -0.002,0.0117 c -0.30554,0.97771 -0.49406,1.95573 -0.556641,2.92578 l -0.08594,1.33008 1.332031,0.0723 c 0.994142,0.0537 1.842663,0.13374 2.535156,0.23633 l 0.02344,0.004 0.02344,0.002 c 0.686964,0.0763 1.263707,0.18966 1.71875,0.32617 l 0.0293,0.01 0.0293,0.01 c 0.463248,0.11581 0.822808,0.2584 1.078125,0.4043 l 0.01563,0.01 0.01758,0.01 c 0.322546,0.17202 0.601869,0.36861 0.849609,0.5957 l 0.785157,0.71875 0.86914,-0.61328 c 0.362677,-0.25601 0.853864,-0.5181 1.472657,-0.76562 0.627248,-0.25089 1.314991,-0.46801 2.062499,-0.64844 0.75087,-0.18124 1.546241,-0.32463 2.386719,-0.42969 0.83376,-0.10422 1.649812,-0.15625 2.451172,-0.15625 h 1.638672 l -0.349609,-1.59961 c -0.108975,-0.50128 -0.208122,-1.38331 -0.261719,-2.56054 v -0.002 c -0.0025,-0.0571 -0.0054,-0.11593 -0.0078,-0.17382 h 3.994141 v 3.99804 l 0.728516,0.36524 c 0.423223,0.21161 0.967,0.4962 1.623046,0.85156 0.645142,0.34945 1.277037,0.71202 1.894532,1.08789 l 0.833984,0.50781 0.728516,-0.64844 c 0.16296,-0.14485 0.458247,-0.36331 0.861328,-0.61523 0.405176,-0.25324 0.839447,-0.49491 1.302734,-0.72656 l 0.02539,-0.0137 0.02539,-0.0137 c 0.472871,-0.2627 0.958222,-0.5128 1.458985,-0.75 0.49087,-0.23252 0.948332,-0.42179 1.36914,-0.57031 l 0.880857,-0.3125 v -2.76562 l -1.249997,-0.0664 c -0.482839,-0.0254 -0.866655,-0.12974 -1.210938,-0.32812 h 4.476565 c -0.0357,0.29718 -0.0777,0.56915 -0.125,0.8125 l -0.002,0.0137 -0.002,0.0156 c -0.1326,0.77355 -0.37749,1.14491 -0.38867,1.17188 l -1.14648,2.15234 2.26367,0.14453 c 0.0565,0.004 0.10578,-0.0156 0.15625,-0.0156 h 0.10937 l 0.10742,-0.0176 c 0.0958,-0.016 0.18844,-0.0254 0.28125,-0.0254 0.47657,0 1.15575,0.0617 1.99805,0.19336 0.84604,0.1322 1.69286,0.30359 2.54102,0.51562 0.84976,0.21244 1.62488,0.43746 2.33007,0.67188 0.6622,0.2482 1.10266,0.49982 1.18165,0.56445 l 0.92382,0.75586 0.84571,-0.84375 c 0.52946,-0.52947 1.1275,-1.04014 1.79687,-1.5293 l 0.0117,-0.01 0.0137,-0.01 c 0.66463,-0.51125 1.3508,-0.95571 2.06055,-1.33594 0.72128,-0.38639 1.43702,-0.7056 2.14648,-0.95898 0.69729,-0.24904 1.33641,-0.40334 1.91407,-0.47266 l 1.38476,-0.16601 -0.24219,-1.37305 c -0.0148,-0.084 -0.0286,-0.16976 -0.043,-0.2539 h 2.55078 v 0.1914 c 0,0.96428 -0.15492,1.74677 -0.42969,2.38086 -0.25988,0.59973 -0.56285,0.91326 -0.99805,1.13086 l -0.85156,0.42383 0.33789,2.36523 h 1.14453 c 0.99317,0 1.99619,-0.12399 3.00195,-0.36718 l 0.008,-0.002 c 0.70939,-0.16721 1.3484,-0.40289 1.99414,-0.63281 0.11945,0.0991 0.22856,0.2272 0.35547,0.3125 0.33191,0.23152 0.68771,0.44444 1.06836,0.63477 l 0.0176,0.008 0.0195,0.01 c 0.37617,0.17362 0.81319,0.3554 1.30273,0.54688 0.47962,0.21316 1.09258,0.49943 1.83203,0.85547 l 1.03516,0.49804 1.41406,-2.12109 -0.58398,-0.75 c -0.57162,-0.73493 -1.0443,-1.3702 -1.41407,-1.89844 l -0.01,-0.0137 -0.01,-0.0117 c -0.3159,-0.42872 -0.55378,-0.86847 -0.73047,-1.32617 -0.15413,-0.4693 -0.27613,-1.03009 -0.34961,-1.69141 -0.0186,-0.16711 -0.0346,-0.34847 -0.0488,-0.54296 h 3.875 v 0.73046 c 0,0.64939 -0.10768,1.06887 -0.19141,1.23633 l -0.008,0.0156 -0.008,0.0176 c -0.0596,0.12766 -0.0925,0.1656 -0.10351,0.17382 h -0.002 v 0.002 h -0.002 v -0.002 l -0.80664,0.33399 v 2.82226 h 10.28125 v -2.86132 l -0.8418,-0.31055 c -0.0122,-0.0223 -0.0388,-0.0765 -0.082,-0.19336 -0.10114,-0.27347 -0.19726,-0.82973 -0.19726,-1.60742 v -8.07227 l 3.00586,-1.34375 v 3.53125 0.0117 c 0.0275,1.57014 0.043,3.13885 0.043,4.70898 0,0.22455 -0.026,0.71392 -0.0801,1.39063 -0.0545,0.68159 -0.12276,1.43459 -0.20508,2.25781 -0.0799,0.771 -0.18529,1.54264 -0.31836,2.31446 l -0.002,0.004 v 0.004 c -0.13215,0.79291 -0.27703,1.43776 -0.41992,1.91406 l -0.22657,0.75391 1.77344,1.77343 0.93164,-0.99804 c 0.35474,-0.38008 0.76805,-0.78146 1.24024,-1.20117 0.46821,-0.4162 0.96491,-0.82209 1.48828,-1.21485 l 0.002,-0.002 h 0.002 l 0.002,-0.002 c 0.54284,-0.3868 1.07089,-0.73319 1.58007,-1.03907 0.5145,-0.29283 1.00612,-0.51972 1.46875,-0.68164 l 1.08399,-0.3789 -0.22656,-1.125 c -0.0525,-0.26224 -0.1054,-0.54009 -0.15821,-0.83008 -0.0436,-0.26176 -0.0835,-0.63576 -0.10937,-1.10156 -0.0162,-0.29141 -0.0329,-0.63598 -0.0488,-1.03125 h 3.53711 v 0.68945 c 0,1.95751 0.56028,3.76629 1.66992,5.26758 l 0.39649,0.53515 h 1.0664 l 0.18555,-0.0547 c 0.81241,-0.24373 1.59604,-0.46005 2.34961,-0.64844 0.73204,-0.18301 1.524,-0.34164 2.375,-0.47461 l 1.11719,-0.17383 v -2.67187 l -0.8418,-0.31055 c -0.0122,-0.0223 -0.0388,-0.0765 -0.082,-0.19336 -0.10115,-0.27347 -0.19922,-0.82973 -0.19922,-1.60742 v -0.35742 h 3.77734 v 0.73046 c 0,0.63742 -0.0923,1.07355 -0.17578,1.27149 -0.0418,0.099 -0.0611,0.13657 -0.0703,0.14844 l -0.002,0.002 v 0.002 h -0.002 -0.002 -0.002 v -0.002 h -0.002 v -0.002 h -0.002 -0.002 l -0.86133,0.31836 v 2.86132 h 10.2793 v -2.86132 l -0.83985,-0.31055 c -0.0122,-0.0223 -0.0388,-0.0765 -0.082,-0.19336 -0.10115,-0.27347 -0.19922,-0.82973 -0.19922,-1.60742 v -3.78125 c 0.2557,0.12771 0.54185,0.23659 0.78711,0.37109 l 0.0137,0.008 0.0156,0.008 c 0.61331,0.31654 1.21601,0.70675 1.81836,1.10156 v 2.70703 c 0,0.47961 -0.0258,1.00913 -0.0781,1.58398 -0.0534,0.58745 -0.11949,1.15872 -0.19922,1.7168 -0.0764,0.53485 -0.17824,1.03868 -0.30273,1.51172 l -0.008,0.0332 -0.008,0.0312 c -0.10038,0.47684 -0.20909,0.85812 -0.3125,1.12696 l -0.47851,1.24218 2.375,0.89063 0.59961,-0.60156 c 0.27592,-0.27593 0.62989,-0.58223 1.05469,-0.90821 0.46747,-0.33724 0.9776,-0.67679 1.53125,-1.01953 0.56046,-0.34695 1.13457,-0.68118 1.72265,-1.00195 0.58317,-0.31809 1.13375,-0.5928 1.65235,-0.82617 l 0.97656,-0.43946 -0.22852,-1.04687 c -0.15881,-0.726 -0.25976,-1.89024 -0.25976,-3.41406 0,-0.7496 0.0153,-1.39627 0.041,-1.94532 0.0514,-0.52764 0.12577,-1.05674 0.22656,-1.58593 l 0.17383,-0.91211 -0.80078,-0.47266 c -1.00064,-0.58861 -2.08241,-1.11368 -3.24219,-1.57812 l -0.004,-0.002 c -0.12984,-0.0532 -0.31686,-0.0798 -0.45117,-0.13086 l 3.80468,-1.43945 -0.28515,-1.13867 c -0.0145,-0.0582 -0.0625,-0.36373 -0.0879,-0.79492 -0.0267,-0.45394 -0.0391,-0.82142 -0.0391,-1.08594 0,-1.03838 0.11751,-1.88103 0.31446,-2.51563 l 0.43164,-1.39257 -1.42969,-0.29102 c -1.44686,-0.29473 -2.67497,-0.61416 -3.68359,-0.94922 -0.95893,-0.35467 -1.80105,-0.77687 -2.53125,-1.26367 l -0.90039,-0.60156 -0.76563,0.76562 c -0.53962,0.53962 -0.99409,0.94902 -1.44336,1.35156 v -5.89843 c 0,-1.59388 0.11228,-2.85087 0.30078,-3.73047 0.21534,-0.87638 0.52094,-1.50324 0.85547,-1.91211 l -1.60156,-2.02149 c -1.1918,0.58266 -2.24403,0.99422 -3.13672,1.24219 -0.9024,0.25067 -1.71348,0.36719 -2.42969,0.36719 -0.69657,0 -1.19754,-0.0942 -1.47265,-0.20117 l -3.59375,-1.39649 1.98437,3.30664 c 0.20475,0.34125 0.35592,0.66932 0.46094,0.98438 l 0.0117,0.0352 0.0137,0.0371 c 0.1304,0.32602 0.23236,0.68064 0.30078,1.06836 l 0.006,0.0352 0.008,0.0371 c 0.0886,0.37649 0.14934,0.82321 0.17383,1.33789 l 0.002,0.0312 0.004,0.0312 c 0.0503,0.5282 0.0762,1.15431 0.0762,1.86914 v 19.36523 h -3.77734 v -13.5039 l -1.4375,-2.39649 -0.94922,0.23633 c -0.20422,0.0511 -0.41631,0.10353 -0.63477,0.15625 v -3.46875 c 0.52264,-0.47448 1.0255,-0.92704 1.50586,-1.35937 0.53286,-0.47957 1.01959,-0.88769 1.45508,-1.22071 l 0.0195,-0.0137 0.0176,-0.0156 c 0.45379,-0.3737 0.7986,-0.63591 0.97266,-0.75196 l 1.77734,-1.18359 -1.85351,-1.06055 c -0.14631,-0.0836 -0.42634,-0.25485 -0.78125,-0.48242 -0.34221,-0.26254 -0.70618,-0.53573 -1.09375,-0.82031 l -0.0156,-0.0117 c -0.007,-0.005 -0.0124,-0.0104 -0.0195,-0.0156 -0.34897,-0.27482 -0.68545,-0.54863 -1.00977,-0.82227 l -0.006,-0.006 c -0.29071,-0.2672 -0.49013,-0.48684 -0.57617,-0.60156 z m -108.896482,8.16993 0.755859,0.64843 c 0.225207,0.19303 0.512583,0.4242 0.882813,0.70899 0.355976,0.27383 0.727056,0.56135 1.111328,0.86328 0.363537,0.28564 0.698647,0.56784 1.003906,0.84765 l 0.04102,0.0391 0.04492,0.0352 c 0.319679,0.24591 0.530121,0.44563 0.591797,0.51758 l 0.220703,0.25781 v 1.87696 c -0.176576,0.0395 -0.35577,0.0789 -0.539063,0.11914 -1.104129,0.21496 -2.1268,0.38808 -3.060547,0.52148 l -1.132812,0.16211 v 2.46875 l 1.537109,0.66406 v 1.91602 h -3.820312 c -0.201924,-0.50004 -0.349902,-0.96163 -0.447266,-1.37891 -0.162801,-0.69772 -0.255859,-1.60211 -0.255859,-2.6914 0,-0.76742 0.02712,-1.56466 0.08008,-2.39063 0.06478,-0.66482 0.158483,-1.34539 0.257812,-2.02929 0.318824,-0.23953 0.647985,-0.46244 0.935547,-0.75 0.434342,-0.43434 0.813496,-0.89365 1.138672,-1.37696 0.247324,-0.33852 0.452218,-0.6832 0.654297,-1.02929 z m -17.378906,2.11718 c 0.118967,0.0382 0.250172,0.0704 0.367187,0.10938 l 0.0293,0.01 0.03125,0.01 c 0.676329,0.18937 1.354411,0.39279 2.03125,0.60937 l 0.0293,0.008 0.0293,0.0117 c 0.727923,0.19598 1.483368,0.39036 2.265625,0.58593 0.473126,0.11828 1.002376,0.22055 1.511719,0.32813 0.0078,0.38674 0.02148,0.72057 0.02148,1.17383 v 0.0215 l 0.08398,2.51367 c 0.02726,0.81776 0.03906,1.57845 0.03906,2.28125 v 0.0254 l 0.002,0.0254 c 0.01734,0.45083 0.03505,0.72858 0.05273,1.05664 -0.09778,0.094 -0.209976,0.16161 -0.304687,0.26563 -0.04738,0.0479 -0.07019,0.11401 -0.115235,0.16406 -0.07039,-0.0192 -0.121772,-0.0578 -0.195312,-0.0762 -0.483949,-0.12773 -1.013968,-0.21544 -1.59375,-0.27539 -0.590506,-0.088 -1.205158,-0.14616 -1.841797,-0.17578 -0.630423,-0.0563 -1.239095,-0.0879 -1.824219,-0.0879 -0.2089,0 -0.406761,0.0168 -0.609375,0.0254 C 37.764737,136.59416 37.75,136.00818 37.75,135.4375 V 132.11523 129.5 c 0,-0.30628 0.01031,-0.62379 0.01367,-0.93359 z m 47.902343,7.11328 v 2.45118 h 3.447266 v 9.19921 h -4.044922 c -0.0138,-0.70877 -0.02148,-1.46081 -0.02148,-2.25781 0,-1.83497 0.04222,-3.22364 0.11914,-4.12109 l 0.13086,-1.53711 -1.53711,0.10742 c -1.198101,0.0836 -2.246682,0.16759 -3.146484,0.25195 -0.907013,0.085 -1.735187,0.18327 -2.486328,0.29883 l -0.0039,0.002 h -0.0039 c -0.719824,0.11517 -1.386893,0.2452 -2.005859,0.39257 l -0.0078,0.002 -0.0078,0.002 c -0.03725,0.009 -0.07223,0.0237 -0.109375,0.0332 -0.02076,-0.46988 -0.03516,-0.94033 -0.03516,-1.41015 v -0.68555 c 0.437233,0.15652 0.874663,0.31095 1.3125,0.44922 l 0.0098,0.004 0.0098,0.002 c 0.605827,0.18176 1.20359,0.321 1.792969,0.41406 0.578802,0.0914 1.113975,0.14063 1.617187,0.14063 1.187021,0 2.324166,-0.36248 3.207031,-1.0918 l 0.01367,-0.0117 0.01172,-0.01 c 0.728677,-0.63363 1.247401,-1.58789 1.738281,-2.625 z m 15.703125,1.53125 0.88867,1.11329 c 0.004,0.01 0.008,0.0214 0.0117,0.0332 0.0339,0.11451 0.0828,0.32455 0.13281,0.59961 0.1016,0.5588 0.19488,1.25984 0.27539,2.09179 l 0.002,0.0195 0.002,0.0215 c 0.10621,0.82333 0.18642,1.70547 0.24023,2.64648 v 0.002 c 0.054,0.91923 0.082,1.76662 0.082,2.53906 0,0.36952 -0.006,0.71989 -0.0176,1.05273 h -5.755862 c -0.05127,-0.28892 -0.08008,-0.62273 -0.08008,-1.01171 v -7.67969 l 3.62109,0.45898 0.28516,-1.13672 c 0.0573,-0.2293 0.20404,-0.49787 0.3125,-0.75 z m 78.39453,1.03907 2.6875,0.53515 -2.6875,1.08789 z m -77.53711,0.0176 h 0.002 l 0.002,0.002 c 0.005,0.006 0.0129,0.0202 0.0215,0.0391 -0.016,-0.0234 -0.0238,-0.0366 -0.0254,-0.041 z m 8.56836,0.40821 c 0.35917,0.10196 0.5868,0.23812 1,0.33203 l 0.0137,0.004 0.0156,0.004 c 0.87285,0.17854 1.77555,0.27469 2.67383,0.38477 l -0.0645,8.94922 c -0.54268,-0.12762 -1.04568,-0.28586 -1.625,-0.38477 -0.71377,-0.12187 -1.32608,-0.19892 -1.96875,-0.28906 0.0261,-0.57996 0.0577,-1.15498 0.0742,-1.74414 l 0.002,-0.0352 c 0.055,-1.0271 0.084,-1.95464 0.084,-2.77734 0,-1.04736 -0.0292,-2.08064 -0.0859,-3.10157 v -0.002 c -0.0228,-0.4207 -0.083,-0.89854 -0.11914,-1.33984 z"
       sodipodi:nodetypes="cscccccccccsccccsccsccscccccccscccccccccccccccsccccscccccccssccccccscccscccssccsccccssccccccccccsccssscscccscccccccccccccccscccccccccsscccccscccccccscccccccccccscccccccccccccccccccccsccsccccccccccccsccccscsccscccccccccscccccccccccsccccsccccccccccccccccsccccsccccssccscccccccccccccccccssssccccccccscccscccsccccccccccccsccssscscccccsscccccsscccsccccccccccccccccsccssccccccccccccssccccssccccccccscccccccccsccsccccsccccssccsscccccccccccccccccscccccsssccccccccsssccscccccccccssccccccscscccsscccsccccccccscccccccsccccccccccccccccsscccccccccccccssccscccscccccscsccsccccccccscscssccccccscccccccccccsccccssccccccsscccccsccscccccccccccccccccccscccsccc" /><path
       id="path1-2"
       style="fill:none;stroke:#000000;stroke-width:0.18897638;stroke-opacity:1;stroke-dasharray:none"
       d="M 86.037109 33.878906 C 82.974323 34.678412 78.366465 39.877481 81.960937 42.882812 C 83.313765 44.013909 85.316109 43.187793 86.878906 43.160156 C 90.196666 43.101496 94.300892 45.221536 95.539062 46.478515 C 94.648912 46.214122 88.901787 43.430251 90.103515 47.214844 C 91.305812 47.448149 94.379792 48.198559 95.732422 48.730469 C 98.592822 49.855312 100.90545 51.877757 103.64648 52.93164 C 106.00217 53.837379 108.62615 53.863056 111.13281 54.300781 C 113.94989 58.145825 122.51901 59.870569 126.62695 60.486328 C 127.26366 64.51553 132.49146 64.026206 135.41992 65.759765 C 138.43104 67.542247 137.00881 71.786921 140.93555 73.294922 C 145.54387 75.064666 147.46786 71.428111 151.45703 71.298828 C 159.85461 71.026687 157.87475 80.921353 156.92773 85.736328 C 165.0934 89.154024 168.86799 90.734534 177.12891 86.158203 C 176.19104 84.168766 174.3111 83.292463 173.11719 81.505859 C 169.66332 76.337341 166.54458 70.944276 161.55859 67.015625 C 158.24021 64.400968 154.16595 62.872819 151.03711 60.064453 C 152.12633 60.108093 153.69832 60.527574 154.68945 59.951172 C 157.29285 58.43716 153.77745 56.154864 152.29883 55.855469 L 153.14062 54.173828 L 150.19531 54.59375 L 150.61523 52.910156 L 148.51172 52.068359 C 148.13284 54.952849 153.94111 57.681039 150.19531 58.802734 L 150.61523 56.277344 L 142.61914 53.332031 L 144.30273 55.013672 C 144.54998 56.445811 144.9981 56.812774 146.4082 57.11914 L 146.4082 58.802734 L 139.25195 55.855469 L 141.35742 50.80664 L 135.88672 53.835937 L 130.83594 51.226562 C 131.15728 52.0075 131.4118 52.686542 131.57031 53.27539 C 130.14744 52.346935 127.99473 51.810055 126.62695 51.30664 C 121.23993 49.323907 115.7232 47.616018 110.28125 45.779297 C 108.48205 44.68807 105.80766 44.240299 104.13281 43.703125 C 97.898766 41.70368 89.825566 39.425062 86.037109 33.878906 z M 97.820312 43.978515 L 110.21289 47.697265 L 110.21289 48.18164 C 106.55033 48.044365 102.28833 46.509791 99.082031 44.820312 L 98.662109 46.925781 L 106.6582 49.451172 L 106.6582 49.871094 L 111.70898 51.132812 C 111.72524 51.06165 111.74008 50.992947 111.75391 50.925781 C 115.01081 53.255684 122.37781 53.593848 124.94336 55.855469 L 111.03516 51.882812 C 109.96746 50.989678 108.27435 50.777458 106.6582 49.871094 C 103.52679 49.449073 96.409472 48.243109 97.820312 43.978515 z M 114.84375 54.59375 L 116.10547 55.013672 L 116.10547 55.435547 L 114.42187 55.013672 L 114.84375 54.59375 z M 128.40625 55.964844 C 129.07146 55.960596 129.84654 56.052901 130.5625 56.167969 C 129.95067 56.434548 129.0767 56.60259 127.88867 56.697265 C 129.24678 58.505727 132.54562 58.951225 134.62305 59.722656 C 140.77714 62.007904 147.3597 66.091828 153.98242 66.376953 L 153.98242 64.693359 L 156.08594 67.21875 C 149.23047 68.555835 140.21789 62.649471 133.78125 60.566406 C 132.03726 60.001998 127.40713 59.097008 126.77344 57.11914 C 126.4936 56.245707 127.29756 55.971922 128.40625 55.964844 z M 45.630859 59.138672 C 45.391531 59.135418 45.158156 59.148166 44.929687 59.179687 C 41.263447 59.685512 41.847376 64.983688 42.808594 67.289062 L 51.646484 67.289062 L 51.224609 70.234375 L 72.339844 70.675781 L 82.36914 72.33789 L 82.277343 72.298828 C 91.301294 75.353629 101.3064 73.318769 110.57227 74.392578 C 111.31223 75.614153 113.17531 76.47042 113.9707 77.851562 C 114.86197 79.399183 114.58822 81.153615 116.54883 81.886718 C 119.65921 83.049726 122.65284 82.802874 125.25 81.628906 C 127.93027 82.179408 129.17016 85.714578 130.54883 87.886718 C 133.81878 93.038591 137.64598 97.373328 142.13281 101.42773 C 143.25754 102.44406 144.72304 104.97462 146.35937 105.0918 C 148.60484 105.25261 151.25056 101.49749 152.65625 100.0918 C 154.32436 98.42368 158.07761 95.868859 158.32422 93.357422 C 158.87288 87.769877 149.01921 84.833926 145.08008 85.361328 L 145.08008 84.941406 L 146.76367 84.099609 L 146.76367 83.257812 L 137.52148 77.082031 L 130.63086 74.927734 C 130.63013 74.92724 130.62964 74.926275 130.62891 74.925781 C 125.40964 71.408238 119.5164 67.773707 113.16016 67.21875 L 113.35547 66.921875 L 121.15625 68.482422 L 121.15625 65.957031 L 114.84375 65.115234 L 115.26367 63.851562 L 110.21289 60.064453 L 111.89648 63.011719 L 110.21289 62.169922 L 111.47656 63.43164 C 111.28608 64.166045 111.03049 64.895545 110.79687 65.621094 L 105.93555 66.02539 C 96.040701 66.02539 81.290468 65.589131 66.796875 63.044922 C 61.462655 62.108555 56.174201 60.898218 50.804687 60.162109 C 49.210414 59.943551 47.306154 59.161447 45.630859 59.138672 z M 42.876953 60.90625 C 53.520611 63.941945 65.892356 65.083009 76.966797 65.957031 L 76.966797 66.376953 L 43.298828 63.011719 L 42.876953 65.535156 L 42.457031 65.535156 L 42.876953 60.90625 z M 128.31055 60.90625 L 132.09766 62.169922 L 132.09766 62.589844 C 131.01822 62.371222 127.8055 62.264306 128.31055 60.90625 z M 132.93945 62.589844 L 134.62305 63.43164 L 134.62305 63.851562 L 132.51953 63.011719 L 132.93945 62.589844 z M 141.93945 66.492187 C 142.35885 66.499238 142.79189 66.627954 143.20703 66.912109 C 144.93857 68.097327 142.95144 69.548203 141.77734 69.74414 C 143.63915 71.379025 144.85635 68.830706 145.56641 67.21875 L 146.4082 67.21875 C 148.70851 72.02742 142.32266 74.500357 139.71289 70.496094 C 138.55151 68.714181 140.12204 66.461633 141.93945 66.492187 z M 61.394531 68.060547 L 61.394531 68.482422 L 59.291015 68.482422 L 61.394531 68.060547 z M 82.4375 68.060547 L 94.220703 69.74414 L 94.220703 70.166015 L 82.015625 68.482422 L 82.4375 68.060547 z M 113.43164 70.15625 C 116.37224 70.190903 123.51797 73.880706 128.31055 76.898437 L 115.81445 71.355469 L 117.78906 74.794922 L 117.78906 75.214844 L 113.16016 70.166015 C 113.24604 70.159382 113.33678 70.155132 113.43164 70.15625 z M 99.203125 71.076172 C 99.203125 71.076172 106.20642 71.064171 110.82812 71.076172 C 110.89736 71.193598 110.97237 71.310213 111.05469 71.427734 C 110.93137 71.590713 110.8248 71.748837 110.73242 71.90039 L 99.203125 71.076172 z M 116.10547 76.478515 C 118.0528 77.194869 118.36889 78.320518 116.94727 79.845703 L 119.47266 77.740234 C 126.74914 80.880335 112.69895 83.734556 116.10547 76.478515 z " /></g><g
     inkscape:groupmode="layer"
     id="layer2"
     inkscape:label="Content"><path
       style="display:none;fill:none;fill-opacity:1;stroke:#ff1818;stroke-width:0.433852;stroke-opacity:1"
       d="m 108.38421,142.65198 c -2.18669,-8.02703 -6.76019,-13.21683 -13.167779,-14.94222 -2.689281,-0.72415 -4.571202,-2.62709 -7.482939,-7.56653 -2.423467,-4.11115 -9.114289,-12.08122 -9.682877,-11.53419 -0.2496,0.24015 3.240536,7.46457 4.115459,8.51879 0.273222,0.32919 0.40681,0.68851 0.296882,0.79845 -0.109946,0.10994 -1.151546,-1.115 -2.314681,-2.72207 -1.163134,-1.60707 -3.785473,-4.85691 -5.827415,-7.22187 -5.163961,-5.98082 -8.234064,-9.814714 -8.946327,-11.172029 -0.333279,-0.635138 -1.064497,-1.515458 -1.62491,-1.956276 -4.137384,-3.254464 -8.88946,-10.662818 -10.110228,-15.761552 -0.730538,-3.051224 -0.730999,-3.036971 0.09846,-3.036971 0.624923,0 0.615969,-0.128996 -0.08281,-1.193099 -0.668871,-1.018526 -0.769334,-2.018328 -0.686657,-6.833185 0.255609,-14.88717 1.586921,-17.192478 13.115183,-22.710622 2.999664,-1.435831 5.722776,-2.934531 6.051353,-3.330436 1.276365,-1.537936 -3.575974,-0.187881 -9.444495,2.627716 -3.161707,1.516921 -5.74856,2.678328 -5.74856,2.580915 0,-0.350589 5.054325,-3.542109 8.133559,-5.135887 4.883429,-2.527619 7.08263,-3.07254 12.121833,-3.003594 2.43086,0.03326 5.554605,0.357581 6.941654,0.720722 1.387049,0.363137 3.490114,0.785231 4.673476,0.937995 1.911591,0.246766 2.443885,0.57574 4.772383,2.949445 3.790481,3.864053 11.306726,9.829659 12.384716,9.829659 1.61667,0 2.60541,-0.855208 3.66414,-3.169266 0.63085,-1.378854 2.43534,-3.71385 4.64792,-6.014366 3.45876,-3.596239 3.76828,-3.807579 7.08753,-4.839276 3.01062,-0.935777 4.35952,-1.086781 10.17336,-1.138863 3.73054,-0.03326 6.93414,-0.252245 7.22485,-0.493534 0.34126,-0.283212 0.57454,-0.285219 0.67297,-0.0057 0.0829,0.235238 1.32206,0.467626 2.75377,0.516412 5.04109,0.17178 12.33854,3.722597 16.05282,7.811018 0.9546,1.050765 2.50697,3.130442 3.4497,4.6215 1.07013,1.692563 1.8673,2.557761 2.12199,2.30307 0.50896,-0.508955 -0.39589,-5.34672 -1.34253,-7.17781 -0.6189,-1.197177 -0.61719,-1.258541 0.0204,-0.729676 1.04901,0.870142 2.37866,3.937871 2.71144,6.255765 0.16275,1.133442 0.46895,2.060802 0.68047,2.060802 0.54702,0 0.48547,6.835718 -0.0632,7.018606 -0.25345,0.08447 -0.61674,2.783168 -0.83711,6.218558 -0.41211,6.42446 -0.79386,7.852471 -4.00024,14.963301 -2.45185,5.437527 -3.29175,6.802258 -5.9322,9.639046 -1.39541,1.499172 -3.03165,3.506703 -3.63609,4.461181 -0.60444,0.954474 -3.15128,4.175833 -5.65965,7.158571 -2.50838,2.98274 -4.50784,5.47993 -4.44326,5.54931 0.26945,0.2894 8.46199,-4.86493 10.96457,-6.89835 1.49137,-1.21179 2.71158,-1.989688 2.71158,-1.728662 0,0.261012 -0.18962,0.474592 -0.42135,0.474592 -0.23176,0 -1.69968,1.54515 -3.26209,3.43367 -3.47889,4.20501 -10.583,9.70479 -16.05688,12.43076 -2.14758,1.06948 -5.29839,2.96477 -7.00179,4.21176 -1.70341,1.24699 -4.5343,3.1458 -6.29087,4.21959 -4.03154,2.46446 -6.5927,4.78406 -8.57654,7.76758 -3.27988,4.93264 -3.59728,5.71457 -3.89146,9.58655 l -0.28017,3.68776 z m 0.38351,-21.08678 c 0.45022,-2.35415 0.50945,-4.01802 0.22238,-6.24598 -0.21524,-1.67033 -0.39771,-3.26348 -0.40552,-3.54032 -0.008,-0.27685 -0.84393,-1.52217 -1.85807,-2.76738 -1.01413,-1.24521 -2.29065,-2.87342 -2.83672,-3.61825 l -0.99286,-1.35423 0.2694,1.95234 c 0.1482,1.07379 0.44347,2.50381 0.65619,3.17783 0.22734,0.72034 0.2267,1.16743 -0.002,1.08463 -0.21358,-0.0775 -2.03848,-1.64612 -4.055356,-3.48588 -3.766277,-3.43555 -7.600796,-8.705866 -12.244815,-16.829771 -1.159261,-2.027921 -3.535306,-5.84459 -5.280102,-8.481491 -1.744604,-2.6369 -3.172161,-5.114615 -3.172161,-5.506023 0,-0.391415 -0.224958,-0.850688 -0.499885,-1.020608 -0.690795,-0.426932 -0.233537,2.821621 0.645064,4.582809 l 0.668598,1.340232 -1.76259,-0.988777 C 74.0838,77.600518 70.824872,72.427332 70.824872,68.285279 c 0,-1.495007 1.641494,-4.73054 3.343245,-6.589825 1.137332,-1.242611 3.82467,-2.524161 7.54122,-3.596285 3.109969,-0.897139 4.098035,-0.870569 6.395391,0.171969 1.934321,0.877802 2.453533,0.246916 0.574647,-0.698238 -1.466612,-0.737775 -1.697065,-1.137143 -0.499484,-0.865572 0.596058,0.135156 2.722696,0.330444 4.725857,0.433977 2.725301,0.140863 3.931956,0.402512 4.7935,1.039475 0.633256,0.468189 2.801362,1.646888 4.818022,2.619342 3.43418,1.655988 3.57037,1.688186 2.14816,0.507783 C 96.714961,54.709118 94.40025,52.905671 91.130354,50.76232 87.523331,48.397987 87.233207,48.288891 84.55274,48.288891 c -1.586147,0 -3.998733,0.374476 -5.554386,0.862107 -1.512631,0.47416 -3.125926,0.864631 -3.585105,0.867711 -0.768344,0.0053 -0.75106,-0.08553 0.216945,-1.137921 l 1.051793,-1.143511 -0.997666,0.519504 c -0.548724,0.285732 -1.221703,1.011201 -1.495522,1.612161 -0.273827,0.600967 -1.194013,1.44782 -2.044875,1.881898 -4.249746,2.168058 -8.287117,6.817471 -9.843961,11.336247 -0.68256,1.981138 -0.848655,5.578262 -0.360265,7.801943 l 0.314344,1.431129 -1.122441,-0.735447 c -0.61734,-0.4045 -1.212756,-0.73545 -1.323144,-0.73545 -0.30807,0 2.430485,6.094499 3.53568,7.868496 1.378269,2.212309 6.480207,6.942845 11.751084,10.895652 2.465949,1.8493 4.282567,3.362366 4.036932,3.362366 -0.245632,0 -0.567277,-0.19525 -0.714754,-0.433859 -0.147477,-0.238602 -0.482105,-0.433852 -0.743626,-0.433852 -0.261505,0 -0.120907,0.391816 0.312454,0.870697 0.433387,0.478881 1.002534,1.308624 1.264781,1.84388 0.523631,1.068741 8.454716,7.189558 12.599981,9.724028 3.39374,2.07498 6.045868,4.23419 7.000407,5.69934 l 0.761302,1.16853 -1.486741,-1.20991 c -1.199807,-0.9764 -8.234135,-4.64711 -8.905444,-4.64711 -0.616354,0 0.141506,1.15873 2.24109,3.42654 2.481641,2.68046 6.748237,5.25052 8.716487,5.25052 1.70584,0 4.48355,2.93627 6.07652,6.42337 0.79632,1.74321 1.44787,3.48405 1.44787,3.86853 0,1.45009 0.47279,0.1355 1.06504,-2.96129 z m 6.53373,-3.41891 c -1.42654,-1.57631 -0.70337,-5.21206 2.14386,-10.77838 2.12485,-4.15404 2.92863,-5.24956 5.90794,-8.052286 3.24078,-3.048692 5.92327,-4.591283 8.88112,-5.107178 0.4668,-0.08141 1.16284,-0.636113 1.54676,-1.232659 0.38392,-0.596553 4.58145,-5.052423 9.32785,-9.901931 9.87909,-10.093727 10.27538,-11.089232 11.87913,-16.347091 2.57171,-8.431355 0.72182,-14.28813 -5.84558,-18.50713 -5.19393,-3.336669 -11.10617,-4.008903 -17.98639,-2.045106 -3.14681,0.898194 -11.69962,3.692992 -10.87172,3.880222 0.11932,0.02683 0.90025,0.145172 1.73542,0.262602 0.83516,0.117467 1.56771,0.262677 1.62788,0.322733 0.0602,0.06006 -1.59932,0.944119 -3.68776,1.964603 -2.08842,1.020483 -4.53576,2.522203 -5.4385,3.337156 -1.60271,1.446849 -1.61292,1.475021 -0.43385,1.196905 0.66413,-0.156662 1.39297,-0.454848 1.61966,-0.662657 0.62683,-0.574632 1.53904,-0.451782 1.80572,0.243174 0.13107,0.341556 -0.15602,1.171302 -0.63793,1.843873 -0.51801,0.722937 -0.39347,0.497764 -0.55784,2.036674 l -0.14041,1.502007 0.8139,-0.750531 c 4.83737,-4.46075 14.02183,-10.439104 22.70864,-11.008271 1.25275,-0.08209 2.27773,-0.01361 2.27773,0.152088 0,0.165733 -0.87855,0.714308 -1.95234,1.219053 -1.07379,0.504733 -1.95234,1.209555 -1.95234,1.566263 0,0.824946 0.23615,0.814405 1.74686,-0.07801 1.08767,-0.642508 1.52048,-0.661534 3.74152,-0.164485 3.20555,0.717366 4.32454,1.468487 5.43738,3.649852 1.28909,2.526822 0.94143,8.513087 -0.70654,12.165672 -1.98623,4.402318 -9.31168,14.318139 -11.53397,15.61254 l -1.40454,0.818083 0.30161,-2.011181 c 0.16588,-1.106147 0.20266,-2.011178 0.0817,-2.011178 -0.12091,0 -0.96262,1.414897 -1.87046,3.144208 -1.74159,3.31753 -4.2106,5.994097 -12.84478,13.924592 -6.57165,6.036054 -7.784,7.612614 -8.01729,10.425774 -0.36759,4.43254 1.09983,10.25066 2.58535,10.25066 0.27009,0 0.1406,-0.38731 -0.28781,-0.8607 z m -5.23737,-13.29523 c 0.36691,-1.46188 -0.0546,-3.42985 -1.16419,-5.435528 -0.58484,-1.057142 -0.78362,-1.961416 -0.59574,-2.710024 0.3385,-1.348618 4.77127,-5.898988 5.74656,-5.898988 1.39614,0 5.9076,-2.812656 7.67089,-4.782372 0.9992,-1.116182 2.4888,-3.278854 3.31024,-4.805934 1.32604,-2.465167 1.51067,-3.214367 1.64648,-6.681188 0.13617,-3.47667 0.0411,-4.094906 -0.86728,-5.640094 l -1.02024,-1.735416 -3.11987,0.08693 c -2.67198,0.07442 -3.38942,0.272353 -4.99751,1.378768 -2.03431,1.399639 -4.98626,5.061026 -5.90155,7.319845 -0.31423,0.775514 -0.79528,1.410025 -1.06898,1.410025 -0.27371,0 -1.41409,-0.732129 -2.5342,-1.626947 -8.020492,-6.407342 -10.385762,-7.179167 -13.243391,-4.321542 -1.566826,1.566826 -1.600811,1.671519 -1.612482,4.967622 -0.01058,2.946761 0.165052,3.721927 1.405931,6.210009 1.260442,2.527306 1.73147,3.026404 4.242429,4.495253 1.819756,1.064512 3.294253,2.334977 4.144893,3.57134 1.89237,2.750464 6.98484,13.072571 7.05547,14.300961 0.0789,1.37297 0.54549,1.31988 0.90254,-0.10269 z"
       id="path1-4"
       sodipodi:nodetypes="sssssssssssssssssssssssssssssssssssssssssssssssssssssscsssssscsscsscssscsssssssssssssssscssssscssssssssssscsssssssssssssssssssssssssscsssssssssscssssssssssssssscsssssssssssss"
       inkscape:label="Icon" /><g
       id="text3"
       inkscape:label="Text"
       style="display:none;opacity:1"
       transform="scale(0.38458352)"><path
         id="path6"
         style="font-size:107.967px;font-family:'New Rocker';-inkscape-font-specification:'New Rocker';letter-spacing:0px;baseline-shift:baseline;white-space:pre;display:none;overflow:visible;fill:#eed3a7;fill-opacity:1;stroke:#35200a;stroke-width:4.53543;stroke-dasharray:none;stroke-opacity:1;enable-background:accumulate;stop-color:#000000;stop-opacity:1"
         d="m 133.88281,376.37891 1.84961,4.4707 c 1.01056,2.44219 2.52122,4.6921 4.4668,6.71875 l 0.0215,0.0215 0.0195,0.0215 c 1.44348,1.44347 2.9345,2.48641 4.47266,3.31445 0.0311,0.41554 0.0601,0.65837 0.0918,1.19727 0.0675,1.148 0.10351,2.53642 0.10351,4.15039 0,1.94716 -0.0702,4.04746 -0.21093,6.29883 -0.13626,2.18005 -0.40709,4.3212 -0.81446,6.42773 -0.39812,1.98748 -0.95842,3.85941 -1.67773,5.625 l -0.0117,0.0273 -0.01,0.0254 c -0.60666,1.57733 -1.34425,2.72316 -2.1582,3.53711 l -1.82422,1.82422 1.62305,2.00586 c 0.8054,0.9949 1.64562,2.82374 2.23437,5.50586 l 0.008,0.0312 0.008,0.0332 c 0.66259,2.71664 0.99805,5.57873 0.99805,8.60547 0,1.95273 -0.13517,4.14798 -0.41211,6.57422 -0.27097,2.30318 -0.71027,4.53037 -1.31641,6.68555 l -0.0117,0.041 -0.01,0.0391 c -0.53665,2.14658 -1.19806,4.01597 -1.96289,5.60937 l -0.0195,0.043 -0.0195,0.043 c -0.64944,1.47599 -1.31729,2.16459 -1.6582,2.36914 l -1.9707,1.18164 1.77148,5.31445 2.77734,-1.02929 c 1.59766,-0.59173 3.36825,-0.90039 5.37305,-0.90039 4.57474,0 9.7667,0.41863 15.55664,1.26562 h 0.002 0.002 0.002 0.002 c 5.76043,0.9148 11.60078,2.25156 17.52149,4.01367 l 1.48437,0.44141 1.1836,-1 c 1.80026,-1.5233 3.40281,-2.74737 4.78711,-3.67188 1.46577,-0.93101 2.80095,-1.64255 3.97461,-2.13671 1.22052,-0.51391 2.29519,-0.8449 3.19531,-1.01368 l 0.0644,-0.0117 0.0625,-0.0137 c 1.11998,-0.26352 2.23607,-0.46079 3.34961,-0.59179 l 3.49805,-0.41211 -1.11328,-3.33985 c -0.38735,-1.16202 -0.82195,-3.3115 -1.16993,-6.23437 -0.21679,-1.82115 -0.36603,-3.79773 -0.44726,-5.92578 h 8.55664 v 7.99218 c 0,1.74248 -0.28373,2.91513 -0.56055,3.46875 l -0.0176,0.0352 -0.0156,0.0332 c -0.29009,0.62162 -0.45133,0.68187 -0.55859,0.72657 l -1.76172,0.73437 v 6.39649 h 25.5957 v -6.48047 l -1.86914,-0.69141 c -0.0528,-0.0195 -0.19436,-0.008 -0.49414,-0.81836 -0.29978,-0.81051 -0.55078,-2.31432 -0.55078,-4.37695 V 428.4942 l 7.65625,-3.31055 v 26.36914 c 0,1.74248 -0.28373,2.91513 -0.56055,3.46875 l -0.0176,0.0352 -0.0176,0.0332 c -0.29008,0.62162 -0.44938,0.68187 -0.55664,0.72657 l -1.76367,0.73437 v 6.39649 h 24.94922 v -6.48047 l -1.86914,-0.69141 c -0.0528,-0.0195 -0.19436,-0.008 -0.49414,-0.81836 -0.29978,-0.81051 -0.55078,-2.31432 -0.55078,-4.37695 v -9.82422 -7.88281 c 0,-1.82281 0.0389,-3.06136 0.0742,-4.35743 l 7.79883,-3.34374 v 10.10156 0.0254 c 0.0717,4.086 0.10742,8.17182 0.10742,12.25781 0,0.6181 -0.0657,1.89206 -0.20703,3.6582 -0.14215,1.77675 -0.32079,3.73916 -0.53516,5.88282 -0.20911,2.01925 -0.48749,4.03951 -0.83594,6.06054 l -0.002,0.008 v 0.008 c -0.34631,2.07785 -0.72396,3.77323 -1.10547,5.04492 l -0.49219,1.64063 3.95508,3.95507 2.02344,-2.16797 c 0.93648,-1.00337 2.02468,-2.06079 3.26367,-3.1621 1.22527,-1.08914 2.52304,-2.14498 3.89063,-3.17188 1.43434,-1.02361 2.82522,-1.93949 4.17382,-2.75 1.37308,-0.78333 2.68825,-1.39156 3.93555,-1.82812 l 2.35156,-0.82227 -0.48828,-2.44336 c -0.13776,-0.68879 -0.27742,-1.41673 -0.41601,-2.17773 -0.11849,-0.71096 -0.221,-1.7006 -0.28907,-2.92579 -0.0697,-1.25467 -0.14004,-2.88692 -0.21093,-4.86523 v -3.93945 h 8.30468 v 30.23242 c 0,3.5959 -0.27959,6.72613 -0.80859,9.37109 l -0.008,0.0332 -0.006,0.0351 c -0.44074,2.51852 -1.24937,4.31604 -2.29297,5.56836 l 3.43359,4.42188 c 2.91818,-1.38961 5.59797,-2.45055 8.02149,-3.19141 h 0.002 l 0.002,-0.002 h 0.002 c 2.43139,-0.72086 4.66821,-1.0625 6.71875,-1.0625 1.69577,0 3.06883,0.22468 4.1289,0.5957 l 6.89844,2.41406 -3.41992,-6.46094 c -0.59707,-1.12779 -1.08512,-2.20354 -1.46875,-3.22656 l -0.0117,-0.0293 -0.01,-0.0293 c -0.34624,-0.86561 -0.62041,-1.85335 -0.80664,-2.9707 l -0.002,-0.0137 -0.002,-0.0137 c -0.1974,-1.11857 -0.36558,-2.35902 -0.50196,-3.70508 -0.0667,-1.28966 -0.10351,-2.83659 -0.10351,-4.64843 v -7.50196 c 0.85116,0.15622 1.76607,0.24071 2.57031,0.44922 l 0.0117,0.004 0.0117,0.004 c 1.85185,0.46297 3.8403,1.13383 5.95703,2.02149 l 1.45313,0.60937 1.29101,-0.90039 c 3.19612,-2.22338 6.37466,-4.08705 9.5332,-5.59765 l 0.0117,-0.006 0.0117,-0.004 c 3.17646,-1.55445 6.23344,-2.57653 9.17578,-3.09961 l 3.95313,-0.70312 -1.95117,-3.50977 c -0.14818,-0.26672 -0.37603,-0.87062 -0.55274,-1.74219 -0.18666,-0.9986 -0.35976,-2.38467 -0.49805,-4.11328 -0.0767,-0.95882 -0.14458,-2.03639 -0.20117,-3.22851 h 4.83985 c -0.0184,2.40047 -0.0889,4.80052 -0.20899,7.20117 -0.13336,2.59345 -0.53734,4.64866 -1.10742,6.13086 l -1.4707,3.82422 4.0957,0.0703 c 3.98996,0.0688 7.46963,0.51677 10.43164,1.30664 l 0.008,0.002 0.008,0.002 c 3.06479,0.79951 5.82275,1.95439 8.30859,3.45898 l 2.10937,1.27734 6.42969,-7.73437 c 0.36538,0.56663 0.59004,1.15296 1.00391,1.71289 1.39367,1.88555 3.00115,3.46431 4.81836,4.67578 l 2.70117,1.80078 1.45117,-2.90234 c 0.31797,-0.63593 0.87691,-1.52599 1.67188,-2.58594 0.77776,-1.03702 1.66077,-2.0514 2.65039,-3.04101 1.01212,-1.01213 2.01323,-1.91216 3.00195,-2.70313 l 0.008,-0.006 0.0117,-0.008 c 0.97373,-0.79116 1.802,-1.25714 2.39453,-1.46875 l 1.90235,-0.67969 v -5.48633 l -2.22071,-0.51172 c -0.60606,-0.13986 -0.9945,-0.32891 -1.29492,-0.51171 -0.0439,-0.0427 -0.2627,-0.27201 -0.49219,-0.98829 -0.2023,-0.69269 -0.39992,-1.649 -0.57031,-2.83593 h 10.50781 v 16.13281 l 1.58399,0.79102 c 1.10894,0.55446 2.5269,1.29866 4.23633,2.2246 1.68576,0.91312 3.33536,1.86141 4.94921,2.84375 l 1.8086,1.10157 1.58398,-1.40821 c 0.46072,-0.40952 1.24927,-0.98855 2.31446,-1.65429 1.06974,-0.66859 2.21392,-1.31009 3.43359,-1.91992 l 0.0566,-0.0274 0.0527,-0.0293 c 1.24046,-0.68914 2.51718,-1.34489 3.83008,-1.96679 1.29141,-0.61172 2.4997,-1.11409 3.61524,-1.50782 l 1.91015,-0.67382 v -6.25782 l -2.71484,-0.14257 c -2.10564,-0.11082 -3.60928,-0.78161 -5.00586,-2.16797 -1.13022,-1.18501 -1.88672,-3.14577 -1.88672,-6.41602 v -20.60937 l 9.55469,1.20703 0.61523,-2.4668 c 0.28312,-1.13247 0.7869,-2.35655 1.52735,-3.66016 0.83236,-1.33737 1.74552,-2.53845 2.74609,-3.60156 l 0.7793,-0.82617 v -4.43359 h -15.22266 v -2.85742 c 0,-0.54168 0.0325,-1.61141 0.10352,-3.10352 v -0.002 -0.004 c 0.0695,-1.52951 0.17549,-3.0971 0.31445,-4.70117 0.21105,-1.68543 0.42261,-3.26886 0.63281,-4.74024 0.19972,-1.39806 0.45536,-2.38055 0.57813,-2.6875 l 2.91797,-7.29882 -6.93164,3.70703 c -3.01395,1.61211 -5.83206,2.93329 -8.44532,3.96484 -2.43653,0.96179 -5.12346,1.54964 -8.09961,1.74805 l -5.4746,0.36523 3.30664,4.13477 c -0.0253,-0.0295 -0.0449,-0.0465 -0.0547,-0.0527 l -0.002,-0.002 h -0.002 -0.002 -0.002 v 0.002 0.002 l -0.002,0.002 c -0.003,0.0582 0.23498,0.53266 0.36133,1.20508 l 0.004,0.0156 0.004,0.0176 c 0.19433,0.9716 0.36345,2.1109 0.5,3.4082 v 0.01 l 0.002,0.008 c 0.13816,1.24352 0.2415,2.48573 0.31054,3.72852 l 0.004,0.0879 0.0117,0.0879 c 0.13786,1.17182 0.19531,2.02819 0.19531,2.36523 v 2.04297 c -1.96903,1.63322 -4.00187,2.90585 -6.10547,3.83789 l 0.52735,-0.75781 h -5.48438 c -3.33262,0 -6.01392,-0.55747 -8.12695,-1.54688 -2.13967,-1.10847 -4.31619,-2.81137 -6.4961,-5.18945 l -1.56445,-1.70703 -1.99609,1.17188 c -1.71766,1.00689 -4.41286,2.0368 -7.99219,2.93164 -3.44097,0.86024 -7.68145,1.3164 -12.69141,1.3164 h -1.25976 c -0.47283,-0.10397 -0.84459,-0.10742 -1.22461,-0.10742 h -3.61133 l 0.82031,3.51758 c 0.53518,2.29362 1.15515,4.23009 1.92969,5.86523 l 0.0254,0.0547 0.0273,0.0527 c 0.83366,1.58393 1.79735,2.93842 2.97461,4.01757 l 0.0508,0.0449 0.0527,0.043 c 1.1404,0.95034 2.44726,1.66462 3.85351,2.06641 l 0.11133,0.0312 0.11328,0.0234 c 1.28381,0.25676 2.6254,0.3789 4.01758,0.3789 2.12546,0 4.52015,-0.41724 7.33399,-1.17773 1.40452,-0.3796 2.70171,-0.95156 4.05273,-1.42773 v 4.71679 c -0.65131,0.26831 -1.17282,0.53392 -2.03906,0.79883 -1.48119,0.40249 -3.15043,0.78031 -5.01172,1.125 -1.84338,0.34136 -3.80145,0.61605 -5.87109,0.82422 -2.00906,0.13759 -3.98096,0.20703 -5.91407,0.20703 -1.76121,0 -3.36113,-0.10331 -4.79492,-0.29883 l -4.93359,-0.67187 1.89648,4.60351 c 0.39302,0.95448 0.6997,2.12008 0.88867,3.50586 l 0.002,0.01 0.002,0.01 c 0.0562,0.39304 0.1042,0.79713 0.14453,1.21094 h -4.8457 c -0.0472,-2.15497 -0.0703,-4.60266 -0.0703,-7.33984 0,-2.6849 0.0718,-5.33102 0.21289,-7.94141 v -0.004 -0.002 c 0.13238,-2.51514 0.56557,-5.20119 1.31445,-8.06055 l 0.71484,-2.73632 -2.72656,-0.75196 c -1.81367,-0.50032 -3.61704,-1.28737 -5.42773,-2.38672 -1.7719,-1.07579 -3.43421,-2.44468 -4.9961,-4.13671 l -1.1289,-1.22266 -1.6211,0.37305 c -1.94951,0.44988 -3.92857,1.01231 -5.93554,1.67968 -1.95271,0.60144 -3.90103,1.31395 -5.84375,2.13477 -1.87623,0.75141 -3.68398,1.57866 -5.41993,2.48437 -0.77255,0.40307 -1.38808,0.81885 -2.09375,1.22657 -0.54078,-0.92149 -0.9511,-1.86181 -1.61914,-2.76563 -1.39366,-1.88556 -3.00114,-3.46431 -4.81836,-4.67578 l -2.69921,-1.79883 -1.45313,2.90235 c -0.31795,0.6359 -0.87691,1.52598 -1.67187,2.58593 -0.77777,1.03703 -1.65882,2.04945 -2.64844,3.03907 -0.99519,0.99519 -2.02198,1.91966 -3.07617,2.77929 -0.9873,0.73584 -1.82634,1.20935 -2.4043,1.43164 l -1.83789,0.70704 v 5.27148 l 2.02344,0.62305 c 0.58041,0.17859 0.88807,0.38611 1.08398,0.58203 l 0.125,0.12695 0.10938,0.0898 v 0.002 0.002 c 0.0131,0.0436 0.30413,0.42605 0.53125,1.28906 l 0.0234,0.0898 0.0293,0.0879 c 0.29091,0.87272 0.58683,2.56779 0.72266,4.87695 v 0.002 0.002 c 0.13814,2.27932 0.21093,5.40406 0.21093,9.32812 v 0.10547 h -8.30468 c 0.004,-3.4371 0.0388,-6.3272 0.10546,-8.66016 0.071,-2.48512 0.14239,-4.56951 0.2129,-6.26953 0.13699,-1.63551 0.27426,-2.95523 0.40429,-3.9414 0.19773,-1.0423 0.42371,-2.01522 0.67774,-2.9043 l 0.66601,-2.33203 -2.18945,-1.04297 c -1.44207,-0.6867 -2.6927,-1.33029 -3.76172,-1.92969 -1.09132,-0.68279 -2.14956,-1.36408 -3.17187,-2.04492 -0.91693,-0.65611 -1.84127,-1.38169 -2.77149,-2.17773 -0.98812,-0.9178 -2.07701,-1.93657 -3.27539,-3.06446 l -2.14648,-2.01953 -1.95899,2.20313 c -2.24421,2.52474 -4.40355,4.71749 -6.46875,6.57617 -0.94662,0.85196 -2.13939,1.71488 -3.19336,2.57226 l -0.24414,-0.11523 c -1.44594,-0.68854 -2.69867,-1.3348 -3.76953,-1.93555 -1.08833,-0.68102 -2.14439,-1.35998 -3.16406,-2.03906 -0.92057,-0.65872 -1.84729,-1.38577 -2.78125,-2.18555 -0.98595,-0.91583 -2.06863,-1.93189 -3.26367,-3.05664 l -2.17188,-2.04297 -1.95703,2.25196 c -2.30308,2.65203 -4.55304,4.93386 -6.74023,6.84765 -0.82191,0.71576 -1.89629,1.47281 -2.80469,2.20313 v -3.75586 l -3.44531,-5.74023 -2.0586,0.51562 c -2.25674,0.56419 -4.8476,1.16743 -7.75781,1.80664 -2.90185,0.56587 -5.5851,1.02416 -8.04102,1.375 l -2.45898,0.35156 v 5.55664 l 3.99414,1.72657 v 23.27148 h -8.62695 c 0.009,-1.25954 0.0438,-2.54628 0.10351,-3.86133 v -0.004 -0.002 c 0.0684,-1.57267 0.20479,-3.14619 0.41016,-4.7207 l 0.30664,-2.3418 -4.6582,-1.55273 -1.25586,1.37695 c -3.01151,3.30531 -5.83972,6.72314 -8.48633,10.25196 l -0.0117,0.0156 -0.0117,0.0156 c -2.26516,3.10652 -3.82468,6.67468 -4.96289,10.48438 l -13.54883,-1.36133 c -0.19357,-2.46098 -0.38176,-4.96629 -0.49219,-8.04687 -0.0683,-3.89886 -0.10051,-8.02106 -0.10351,-12.31641 0.2311,-0.0204 0.40082,-0.0677 0.64453,-0.082 1.19403,-0.0702 2.09895,-0.10352 2.64063,-0.10352 0.22695,0 0.3008,0.01 0.58398,0.23633 l 0.12109,0.0977 0.13086,0.082 c 0.51683,0.32889 1.00634,0.76035 1.48047,1.33984 0.56097,0.68563 1.09781,1.44483 1.61133,2.2793 0.55434,0.90081 1.03477,1.72259 1.4375,2.46094 l 2.9668,5.43945 2.22265,-5.7832 c 0.35576,-0.92498 0.74834,-1.95699 1.17188,-3.08594 l 1.4414,-3.29297 c 0.52983,-1.05763 1.05542,-2.04434 1.57813,-2.96289 0.55197,-0.8525 1.07989,-1.51738 1.53125,-1.96875 l 2.52539,-2.52539 -3.01367,-1.91797 c -0.32721,-0.20822 -0.70437,-0.57638 -1.10156,-1.27148 -0.51851,-0.90738 -1.00463,-1.85076 -1.46289,-2.82618 -0.40359,-1.08008 -0.77739,-2.12901 -1.11329,-3.13671 l 0.0156,0.0527 c -0.38017,-1.21653 -0.76656,-2.30341 -1.16992,-3.27148 l -1.95703,-4.69532 -3.00196,4.10743 c -1.24455,1.70306 -2.51795,3.06016 -3.80078,4.09961 -1.05419,0.84174 -1.84872,1.0957 -2.63086,1.0957 h -2.35156 c -0.0521,-0.004 -0.10414,-0.0136 -0.15625,-0.0176 0.13663,-3.47991 0.28221,-6.92564 0.50781,-10.08398 0.21825,-3.05544 0.58806,-5.38692 0.96485,-7.66211 0.59065,-0.0177 0.99247,-0.0156 1.69531,-0.0449 1.68447,-0.0702 3.44462,-0.10546 5.27929,-0.10546 2.21377,0 4.0066,0.1078 5.31641,0.29492 0.83307,0.11901 1.30907,0.40919 1.80469,0.69336 0.60479,2.17661 1.36297,4.19479 2.40625,5.93359 l 0.0215,0.0352 0.0215,0.0352 c 1.47601,2.30626 3.69557,4.20132 6.49804,5.80274 l 1.23829,0.70703 3.57812,-1.5332 0.20508,-1.63086 c 0.14189,-1.13514 0.35497,-2.85342 0.63672,-5.10743 l 0.002,-0.0137 c 0.35575,-2.3472 0.74667,-4.7318 1.17383,-7.15234 l 0.002,-0.008 0.002,-0.006 c 0.42357,-2.47088 0.84531,-4.72074 1.26562,-6.75586 0.47547,-1.95666 0.97708,-3.3128 1.125,-3.58399 l 1.86328,-3.41992 -3.81836,-0.76367 c -0.50589,-0.10118 -1.01786,-0.13199 -1.53515,-0.14258 -0.55699,-0.0778 -1.11982,-0.12891 -1.72461,-0.1289 -2.97859,0 -6.86251,0.26166 -11.74219,0.77148 -4.6628,0.48715 -10.92082,0.74023 -18.70508,0.74023 -3.617,0 -7.49242,-0.0693 -11.61719,-0.21093 -0.005,-2.6e-4 -0.0107,-0.002 -0.0156,-0.002 -4.03786,-0.21283 -8.33504,-0.5664 -12.88867,-1.06445 z m 256.65235,41.26171 v 2.98243 h 8.96093 v 18.40234 h -10.83203 c -0.0425,-1.44034 -0.0645,-3.09616 -0.0645,-4.96484 0,-5.18118 0.14818,-9.09063 0.41406,-11.63672 0.28195,-2.11832 0.84535,-3.64096 1.52149,-4.78321 z m -72.13868,5.91797 c -0.0649,0.96629 -0.13042,1.83684 -0.19531,2.875 l -0.004,0.043 v 0.0449 c -0.0729,2.3331 -0.10938,4.66685 -0.10938,7 v 7.8125 0.0391 c 0.0522,1.93079 0.14639,3.2809 0.23828,4.68554 -0.85755,0.46786 -1.67177,0.85003 -2.62109,1.48243 -0.96838,0.63004 -1.66313,1.22585 -2.42774,1.82812 -1.09083,-0.35496 -2.15306,-0.71795 -3.39843,-1.0293 -0.81619,-0.20404 -1.42528,-0.23713 -2.14844,-0.37109 v -21.19336 c 0.43822,-0.21128 0.72012,-0.39767 1.30469,-0.625 l 0.0625,-0.0234 0.0625,-0.0273 c 1.16063,-0.51584 2.43797,-0.97614 3.83398,-1.375 1.41911,-0.40546 2.87584,-0.74412 4.36914,-1.01563 l 0.0469,-0.01 0.0488,-0.01 c 0.34252,-0.0745 0.60827,-0.0704 0.9375,-0.13086 z M 368.93945,440 v 7.9043 c -1.12226,-0.16951 -2.40841,-0.47104 -3.38476,-0.51172 l 0.004,0.002 c -0.70413,-0.0306 -1.37277,-0.0947 -2.0625,-0.13867 l 0.11719,-5.86914 c 0.94437,-0.18021 1.7816,-0.2757 2.86524,-0.55664 l 0.0469,-0.0117 0.0469,-0.0156 c 0.76467,-0.22656 1.58412,-0.54498 2.36718,-0.80273 z m -224.3789,17.57422 -0.0274,0.0625 c 0.003,-0.011 0.005,-0.0237 0.01,-0.0332 0.005,-0.0109 0.0115,-0.0197 0.0176,-0.0293 z"
         inkscape:label="test" /><path
         id="path4"
         style="font-size:107.967px;font-family:'New Rocker';-inkscape-font-specification:'New Rocker';letter-spacing:0px;baseline-shift:baseline;white-space:pre;display:inline;overflow:visible;opacity:1;vector-effect:none;fill:none;fill-opacity:1;stroke:#f30000;stroke-opacity:1;enable-background:accumulate;stop-color:#000000;stop-opacity:1"
         d="m 133.88281,376.37891 1.84961,4.4707 c 1.01056,2.44219 2.52122,4.6921 4.4668,6.71875 l 0.0215,0.0215 0.0195,0.0215 c 1.44348,1.44347 2.9345,2.48641 4.47266,3.31445 0.0311,0.41554 0.0601,0.65837 0.0918,1.19727 0.0675,1.148 0.10351,2.53642 0.10351,4.15039 0,1.94716 -0.0702,4.04746 -0.21093,6.29883 -0.13626,2.18005 -0.40709,4.3212 -0.81446,6.42773 -0.39812,1.98748 -0.95842,3.85941 -1.67773,5.625 l -0.0117,0.0273 -0.01,0.0254 c -0.60666,1.57733 -1.34425,2.72316 -2.1582,3.53711 l -1.82422,1.82422 1.62305,2.00586 c 0.8054,0.9949 1.64562,2.82374 2.23437,5.50586 l 0.008,0.0312 0.008,0.0332 c 0.66259,2.71664 0.99805,5.57873 0.99805,8.60547 0,1.95273 -0.13517,4.14798 -0.41211,6.57422 -0.27097,2.30318 -0.71027,4.53037 -1.31641,6.68555 l -0.0117,0.041 -0.01,0.0391 c -0.53665,2.14658 -1.19806,4.01597 -1.96289,5.60937 l -0.0195,0.043 -0.0195,0.043 c -0.64944,1.47599 -1.31729,2.16459 -1.6582,2.36914 l -1.9707,1.18164 1.77148,5.31445 2.77734,-1.02929 c 1.59766,-0.59173 3.36825,-0.90039 5.37305,-0.90039 4.57474,0 9.7667,0.41863 15.55664,1.26562 h 0.002 0.002 0.002 0.002 c 5.76043,0.9148 11.60078,2.25156 17.52149,4.01367 l 1.48437,0.44141 1.1836,-1 c 1.80026,-1.5233 3.40281,-2.74737 4.78711,-3.67188 1.46577,-0.93101 2.80095,-1.64255 3.97461,-2.13671 1.22052,-0.51391 2.29519,-0.8449 3.19531,-1.01368 l 0.0644,-0.0117 0.0625,-0.0137 c 1.11998,-0.26352 2.23607,-0.46079 3.34961,-0.59179 l 3.49805,-0.41211 -1.11328,-3.33985 c -0.38735,-1.16202 -0.82195,-3.3115 -1.16993,-6.23437 -0.21679,-1.82115 -0.36603,-3.79773 -0.44726,-5.92578 h 8.55664 v 7.99218 c 0,1.74248 -0.28373,2.91513 -0.56055,3.46875 l -0.0176,0.0352 -0.0156,0.0332 c -0.29009,0.62162 -0.45133,0.68187 -0.55859,0.72657 l -1.76172,0.73437 v 6.39649 h 25.5957 v -6.48047 l -1.86914,-0.69141 c -0.0528,-0.0195 -0.19436,-0.008 -0.49414,-0.81836 -0.29978,-0.81051 -0.55078,-2.31432 -0.55078,-4.37695 V 428.4942 l 7.65625,-3.31055 v 26.36914 c 0,1.74248 -0.28373,2.91513 -0.56055,3.46875 l -0.0176,0.0352 -0.0176,0.0332 c -0.29008,0.62162 -0.44938,0.68187 -0.55664,0.72657 l -1.76367,0.73437 v 6.39649 h 24.94922 v -6.48047 l -1.86914,-0.69141 c -0.0528,-0.0195 -0.19436,-0.008 -0.49414,-0.81836 -0.29978,-0.81051 -0.55078,-2.31432 -0.55078,-4.37695 v -9.82422 -7.88281 c 0,-1.82281 0.0389,-3.06136 0.0742,-4.35743 l 7.79883,-3.34374 v 10.10156 0.0254 c 0.0717,4.086 0.10742,8.17182 0.10742,12.25781 0,0.6181 -0.0657,1.89206 -0.20703,3.6582 -0.14215,1.77675 -0.32079,3.73916 -0.53516,5.88282 -0.20911,2.01925 -0.48749,4.03951 -0.83594,6.06054 l -0.002,0.008 v 0.008 c -0.34631,2.07785 -0.72396,3.77323 -1.10547,5.04492 l -0.49219,1.64063 3.95508,3.95507 2.02344,-2.16797 c 0.93648,-1.00337 2.02468,-2.06079 3.26367,-3.1621 1.22527,-1.08914 2.52304,-2.14498 3.89063,-3.17188 1.43434,-1.02361 2.82522,-1.93949 4.17382,-2.75 1.37308,-0.78333 2.68825,-1.39156 3.93555,-1.82812 l 2.35156,-0.82227 -0.48828,-2.44336 c -0.13776,-0.68879 -0.27742,-1.41673 -0.41601,-2.17773 -0.11849,-0.71096 -0.221,-1.7006 -0.28907,-2.92579 -0.0697,-1.25467 -0.14004,-2.88692 -0.21093,-4.86523 v -3.93945 h 8.30468 v 30.23242 c 0,3.5959 -0.27959,6.72613 -0.80859,9.37109 l -0.008,0.0332 -0.006,0.0351 c -0.44074,2.51852 -1.24937,4.31604 -2.29297,5.56836 l 3.43359,4.42188 c 2.91818,-1.38961 5.59797,-2.45055 8.02149,-3.19141 h 0.002 l 0.002,-0.002 h 0.002 c 2.43139,-0.72086 4.66821,-1.0625 6.71875,-1.0625 1.69577,0 3.06883,0.22468 4.1289,0.5957 l 6.89844,2.41406 -3.41992,-6.46094 c -0.59707,-1.12779 -1.08512,-2.20354 -1.46875,-3.22656 l -0.0117,-0.0293 -0.01,-0.0293 c -0.34624,-0.86561 -0.62041,-1.85335 -0.80664,-2.9707 l -0.002,-0.0137 -0.002,-0.0137 c -0.1974,-1.11857 -0.36558,-2.35902 -0.50196,-3.70508 -0.0667,-1.28966 -0.10351,-2.83659 -0.10351,-4.64843 v -7.50196 c 0.85116,0.15622 1.76607,0.24071 2.57031,0.44922 l 0.0117,0.004 0.0117,0.004 c 1.85185,0.46297 3.8403,1.13383 5.95703,2.02149 l 1.45313,0.60937 1.29101,-0.90039 c 3.19612,-2.22338 6.37466,-4.08705 9.5332,-5.59765 l 0.0117,-0.006 0.0117,-0.004 c 3.17646,-1.55445 6.23344,-2.57653 9.17578,-3.09961 l 3.95313,-0.70312 -1.95117,-3.50977 c -0.14818,-0.26672 -0.37603,-0.87062 -0.55274,-1.74219 -0.18666,-0.9986 -0.35976,-2.38467 -0.49805,-4.11328 -0.0767,-0.95882 -0.14458,-2.03639 -0.20117,-3.22851 h 4.83985 c -0.0184,2.40047 -0.0889,4.80052 -0.20899,7.20117 -0.13336,2.59345 -0.53734,4.64866 -1.10742,6.13086 l -1.4707,3.82422 4.0957,0.0703 c 3.98996,0.0688 7.46963,0.51677 10.43164,1.30664 l 0.008,0.002 0.008,0.002 c 3.06479,0.79951 5.82275,1.95439 8.30859,3.45898 l 2.10937,1.27734 6.42969,-7.73437 c 0.36538,0.56663 0.59004,1.15296 1.00391,1.71289 1.39367,1.88555 3.00115,3.46431 4.81836,4.67578 l 2.70117,1.80078 1.45117,-2.90234 c 0.31797,-0.63593 0.87691,-1.52599 1.67188,-2.58594 0.77776,-1.03702 1.66077,-2.0514 2.65039,-3.04101 1.01212,-1.01213 2.01323,-1.91216 3.00195,-2.70313 l 0.008,-0.006 0.0117,-0.008 c 0.97373,-0.79116 1.802,-1.25714 2.39453,-1.46875 l 1.90235,-0.67969 v -5.48633 l -2.22071,-0.51172 c -0.60606,-0.13986 -0.9945,-0.32891 -1.29492,-0.51171 -0.0439,-0.0427 -0.2627,-0.27201 -0.49219,-0.98829 -0.2023,-0.69269 -0.39992,-1.649 -0.57031,-2.83593 h 10.50781 v 16.13281 l 1.58399,0.79102 c 1.10894,0.55446 2.5269,1.29866 4.23633,2.2246 1.68576,0.91312 3.33536,1.86141 4.94921,2.84375 l 1.8086,1.10157 1.58398,-1.40821 c 0.46072,-0.40952 1.24927,-0.98855 2.31446,-1.65429 1.06974,-0.66859 2.21392,-1.31009 3.43359,-1.91992 l 0.0566,-0.0274 0.0527,-0.0293 c 1.24046,-0.68914 2.51718,-1.34489 3.83008,-1.96679 1.29141,-0.61172 2.4997,-1.11409 3.61524,-1.50782 l 1.91015,-0.67382 v -6.25782 l -2.71484,-0.14257 c -2.10564,-0.11082 -3.60928,-0.78161 -5.00586,-2.16797 -1.13022,-1.18501 -1.88672,-3.14577 -1.88672,-6.41602 v -20.60937 l 9.55469,1.20703 0.61523,-2.4668 c 0.28312,-1.13247 0.7869,-2.35655 1.52735,-3.66016 0.83236,-1.33737 1.74552,-2.53845 2.74609,-3.60156 l 0.7793,-0.82617 v -4.43359 h -15.22266 v -2.85742 c 0,-0.54168 0.0325,-1.61141 0.10352,-3.10352 v -0.002 -0.004 c 0.0695,-1.52951 0.17549,-3.0971 0.31445,-4.70117 0.21105,-1.68543 0.42261,-3.26886 0.63281,-4.74024 0.19972,-1.39806 0.45536,-2.38055 0.57813,-2.6875 l 2.91797,-7.29882 -6.93164,3.70703 c -3.01395,1.61211 -5.83206,2.93329 -8.44532,3.96484 -2.43653,0.96179 -5.12346,1.54964 -8.09961,1.74805 l -5.4746,0.36523 3.30664,4.13477 c -0.0253,-0.0295 -0.0449,-0.0465 -0.0547,-0.0527 l -0.002,-0.002 h -0.002 -0.002 -0.002 v 0.002 0.002 l -0.002,0.002 c -0.003,0.0582 0.23498,0.53266 0.36133,1.20508 l 0.004,0.0156 0.004,0.0176 c 0.19433,0.9716 0.36345,2.1109 0.5,3.4082 v 0.01 l 0.002,0.008 c 0.13816,1.24352 0.2415,2.48573 0.31054,3.72852 l 0.004,0.0879 0.0117,0.0879 c 0.13786,1.17182 0.19531,2.02819 0.19531,2.36523 v 2.04297 c -1.96903,1.63322 -4.00187,2.90585 -6.10547,3.83789 l 0.52735,-0.75781 h -5.48438 c -3.33262,0 -6.01392,-0.55747 -8.12695,-1.54688 -2.13967,-1.10847 -4.31619,-2.81137 -6.4961,-5.18945 l -1.56445,-1.70703 -1.99609,1.17188 c -1.71766,1.00689 -4.41286,2.0368 -7.99219,2.93164 -3.44097,0.86024 -7.68145,1.3164 -12.69141,1.3164 h -1.25976 c -0.47283,-0.10397 -0.84459,-0.10742 -1.22461,-0.10742 h -3.61133 l 0.82031,3.51758 c 0.53518,2.29362 1.15515,4.23009 1.92969,5.86523 l 0.0254,0.0547 0.0273,0.0527 c 0.83366,1.58393 1.79735,2.93842 2.97461,4.01757 l 0.0508,0.0449 0.0527,0.043 c 1.1404,0.95034 2.44726,1.66462 3.85351,2.06641 l 0.11133,0.0312 0.11328,0.0234 c 1.28381,0.25676 2.6254,0.3789 4.01758,0.3789 2.12546,0 4.52015,-0.41724 7.33399,-1.17773 1.40452,-0.3796 2.70171,-0.95156 4.05273,-1.42773 v 4.71679 c -0.65131,0.26831 -1.17282,0.53392 -2.03906,0.79883 -1.48119,0.40249 -3.15043,0.78031 -5.01172,1.125 -1.84338,0.34136 -3.80145,0.61605 -5.87109,0.82422 -2.00906,0.13759 -3.98096,0.20703 -5.91407,0.20703 -1.76121,0 -3.36113,-0.10331 -4.79492,-0.29883 l -4.93359,-0.67187 1.89648,4.60351 c 0.39302,0.95448 0.6997,2.12008 0.88867,3.50586 l 0.002,0.01 0.002,0.01 c 0.0562,0.39304 0.1042,0.79713 0.14453,1.21094 h -4.8457 c -0.0472,-2.15497 -0.0703,-4.60266 -0.0703,-7.33984 0,-2.6849 0.0718,-5.33102 0.21289,-7.94141 v -0.004 -0.002 c 0.13238,-2.51514 0.56557,-5.20119 1.31445,-8.06055 l 0.71484,-2.73632 -2.72656,-0.75196 c -1.81367,-0.50032 -3.61704,-1.28737 -5.42773,-2.38672 -1.7719,-1.07579 -3.43421,-2.44468 -4.9961,-4.13671 l -1.1289,-1.22266 -1.6211,0.37305 c -1.94951,0.44988 -3.92857,1.01231 -5.93554,1.67968 -1.95271,0.60144 -3.90103,1.31395 -5.84375,2.13477 -1.87623,0.75141 -3.68398,1.57866 -5.41993,2.48437 -0.77255,0.40307 -1.38808,0.81885 -2.09375,1.22657 -0.54078,-0.92149 -0.9511,-1.86181 -1.61914,-2.76563 -1.39366,-1.88556 -3.00114,-3.46431 -4.81836,-4.67578 l -2.69921,-1.79883 -1.45313,2.90235 c -0.31795,0.6359 -0.87691,1.52598 -1.67187,2.58593 -0.77777,1.03703 -1.65882,2.04945 -2.64844,3.03907 -0.99519,0.99519 -2.02198,1.91966 -3.07617,2.77929 -0.9873,0.73584 -1.82634,1.20935 -2.4043,1.43164 l -1.83789,0.70704 v 5.27148 l 2.02344,0.62305 c 0.58041,0.17859 0.88807,0.38611 1.08398,0.58203 l 0.125,0.12695 0.10938,0.0898 v 0.002 0.002 c 0.0131,0.0436 0.30413,0.42605 0.53125,1.28906 l 0.0234,0.0898 0.0293,0.0879 c 0.29091,0.87272 0.58683,2.56779 0.72266,4.87695 v 0.002 0.002 c 0.13814,2.27932 0.21093,5.40406 0.21093,9.32812 v 0.10547 h -8.30468 c 0.004,-3.4371 0.0388,-6.3272 0.10546,-8.66016 0.071,-2.48512 0.14239,-4.56951 0.2129,-6.26953 0.13699,-1.63551 0.27426,-2.95523 0.40429,-3.9414 0.19773,-1.0423 0.42371,-2.01522 0.67774,-2.9043 l 0.66601,-2.33203 -2.18945,-1.04297 c -1.44207,-0.6867 -2.6927,-1.33029 -3.76172,-1.92969 -1.09132,-0.68279 -2.14956,-1.36408 -3.17187,-2.04492 -0.91693,-0.65611 -1.84127,-1.38169 -2.77149,-2.17773 -0.98812,-0.9178 -2.07701,-1.93657 -3.27539,-3.06446 l -2.14648,-2.01953 -1.95899,2.20313 c -2.24421,2.52474 -4.40355,4.71749 -6.46875,6.57617 -0.94662,0.85196 -2.13939,1.71488 -3.19336,2.57226 l -0.24414,-0.11523 c -1.44594,-0.68854 -2.69867,-1.3348 -3.76953,-1.93555 -1.08833,-0.68102 -2.14439,-1.35998 -3.16406,-2.03906 -0.92057,-0.65872 -1.84729,-1.38577 -2.78125,-2.18555 -0.98595,-0.91583 -2.06863,-1.93189 -3.26367,-3.05664 l -2.17188,-2.04297 -1.95703,2.25196 c -2.30308,2.65203 -4.55304,4.93386 -6.74023,6.84765 -0.82191,0.71576 -1.89629,1.47281 -2.80469,2.20313 v -3.75586 l -3.44531,-5.74023 -2.0586,0.51562 c -2.25674,0.56419 -4.8476,1.16743 -7.75781,1.80664 -2.90185,0.56587 -5.5851,1.02416 -8.04102,1.375 l -2.45898,0.35156 v 5.55664 l 3.99414,1.72657 v 23.27148 h -8.62695 c 0.009,-1.25954 0.0438,-2.54628 0.10351,-3.86133 v -0.004 -0.002 c 0.0684,-1.57267 0.20479,-3.14619 0.41016,-4.7207 l 0.30664,-2.3418 -4.6582,-1.55273 -1.25586,1.37695 c -3.01151,3.30531 -5.83972,6.72314 -8.48633,10.25196 l -0.0117,0.0156 -0.0117,0.0156 c -2.26516,3.10652 -3.82468,6.67468 -4.96289,10.48438 l -13.54883,-1.36133 c -0.19357,-2.46098 -0.38176,-4.96629 -0.49219,-8.04687 -0.0683,-3.89886 -0.10051,-8.02106 -0.10351,-12.31641 0.2311,-0.0204 0.40082,-0.0677 0.64453,-0.082 1.19403,-0.0702 2.09895,-0.10352 2.64063,-0.10352 0.22695,0 0.3008,0.01 0.58398,0.23633 l 0.12109,0.0977 0.13086,0.082 c 0.51683,0.32889 1.00634,0.76035 1.48047,1.33984 0.56097,0.68563 1.09781,1.44483 1.61133,2.2793 0.55434,0.90081 1.03477,1.72259 1.4375,2.46094 l 2.9668,5.43945 2.22265,-5.7832 c 0.35576,-0.92498 0.74834,-1.95699 1.17188,-3.08594 l 1.4414,-3.29297 c 0.52983,-1.05763 1.05542,-2.04434 1.57813,-2.96289 0.55197,-0.8525 1.07989,-1.51738 1.53125,-1.96875 l 2.52539,-2.52539 -3.01367,-1.91797 c -0.32721,-0.20822 -0.70437,-0.57638 -1.10156,-1.27148 -0.51851,-0.90738 -1.00463,-1.85076 -1.46289,-2.82618 -0.40359,-1.08008 -0.77739,-2.12901 -1.11329,-3.13671 l 0.0156,0.0527 c -0.38017,-1.21653 -0.76656,-2.30341 -1.16992,-3.27148 l -1.95703,-4.69532 -3.00196,4.10743 c -1.24455,1.70306 -2.51795,3.06016 -3.80078,4.09961 -1.05419,0.84174 -1.84872,1.0957 -2.63086,1.0957 h -2.35156 c -0.0521,-0.004 -0.10414,-0.0136 -0.15625,-0.0176 0.13663,-3.47991 0.28221,-6.92564 0.50781,-10.08398 0.21825,-3.05544 0.58806,-5.38692 0.96485,-7.66211 0.59065,-0.0177 0.99247,-0.0156 1.69531,-0.0449 1.68447,-0.0702 3.44462,-0.10546 5.27929,-0.10546 2.21377,0 4.0066,0.1078 5.31641,0.29492 0.83307,0.11901 1.30907,0.40919 1.80469,0.69336 0.60479,2.17661 1.36297,4.19479 2.40625,5.93359 l 0.0215,0.0352 0.0215,0.0352 c 1.47601,2.30626 3.69557,4.20132 6.49804,5.80274 l 1.23829,0.70703 3.57812,-1.5332 0.20508,-1.63086 c 0.14189,-1.13514 0.35497,-2.85342 0.63672,-5.10743 l 0.002,-0.0137 c 0.35575,-2.3472 0.74667,-4.7318 1.17383,-7.15234 l 0.002,-0.008 0.002,-0.006 c 0.42357,-2.47088 0.84531,-4.72074 1.26562,-6.75586 0.47547,-1.95666 0.97708,-3.3128 1.125,-3.58399 l 1.86328,-3.41992 -3.81836,-0.76367 c -0.50589,-0.10118 -1.01786,-0.13199 -1.53515,-0.14258 -0.55699,-0.0778 -1.11982,-0.12891 -1.72461,-0.1289 -2.97859,0 -6.86251,0.26166 -11.74219,0.77148 -4.6628,0.48715 -10.92082,0.74023 -18.70508,0.74023 -3.617,0 -7.49242,-0.0693 -11.61719,-0.21093 -0.005,-2.6e-4 -0.0107,-0.002 -0.0156,-0.002 -4.03786,-0.21283 -8.33504,-0.5664 -12.88867,-1.06445 z m 256.65235,41.26171 v 2.98243 h 8.96093 v 18.40234 h -10.83203 c -0.0425,-1.44034 -0.0645,-3.09616 -0.0645,-4.96484 0,-5.18118 0.14818,-9.09063 0.41406,-11.63672 0.28195,-2.11832 0.84535,-3.64096 1.52149,-4.78321 z m -72.13868,5.91797 c -0.0649,0.96629 -0.13042,1.83684 -0.19531,2.875 l -0.004,0.043 v 0.0449 c -0.0729,2.3331 -0.10938,4.66685 -0.10938,7 v 7.8125 0.0391 c 0.0522,1.93079 0.14639,3.2809 0.23828,4.68554 -0.85755,0.46786 -1.67177,0.85003 -2.62109,1.48243 -0.96838,0.63004 -1.66313,1.22585 -2.42774,1.82812 -1.09083,-0.35496 -2.15306,-0.71795 -3.39843,-1.0293 -0.81619,-0.20404 -1.42528,-0.23713 -2.14844,-0.37109 v -21.19336 c 0.43822,-0.21128 0.72012,-0.39767 1.30469,-0.625 l 0.0625,-0.0234 0.0625,-0.0273 c 1.16063,-0.51584 2.43797,-0.97614 3.83398,-1.375 1.41911,-0.40546 2.87584,-0.74412 4.36914,-1.01563 l 0.0469,-0.01 0.0488,-0.01 c 0.34252,-0.0745 0.60827,-0.0704 0.9375,-0.13086 z M 368.93945,440 v 7.9043 c -1.12226,-0.16951 -2.40841,-0.47104 -3.38476,-0.51172 l 0.004,0.002 c -0.70413,-0.0306 -1.37277,-0.0947 -2.0625,-0.13867 l 0.11719,-5.86914 c 0.94437,-0.18021 1.7816,-0.2757 2.86524,-0.55664 l 0.0469,-0.0117 0.0469,-0.0156 c 0.76467,-0.22656 1.58412,-0.54498 2.36718,-0.80273 z m -224.3789,17.57422 -0.0274,0.0625 c 0.003,-0.011 0.005,-0.0237 0.01,-0.0332 0.005,-0.0109 0.0115,-0.0197 0.0176,-0.0293 z" /></g></g></svg>
