<?xml version="1.0" encoding="UTF-8" standalone="no"?>
<svg
   version="1.2"
   viewBox="0 0 219.2126 219.2126"
   width="58mm"
   height="58mm"
   id="svg1"
   sodipodi:docname="SamotarRoleTokenLaser.svg"
   inkscape:version="1.4.2 (2aeb623e1d, 2025-05-12)"
   xml:space="preserve"
   xmlns:inkscape="http://www.inkscape.org/namespaces/inkscape"
   xmlns:sodipodi="http://sodipodi.sourceforge.net/DTD/sodipodi-0.dtd"
   xmlns="http://www.w3.org/2000/svg"
   xmlns:svg="http://www.w3.org/2000/svg"><sodipodi:namedview
     id="namedview1"
     pagecolor="#ffffff"
     bordercolor="#666666"
     borderopacity="1.0"
     inkscape:showpageshadow="2"
     inkscape:pageopacity="0.0"
     inkscape:pagecheckerboard="0"
     inkscape:deskcolor="#d1d1d1"
     inkscape:zoom="3.0171539"
     inkscape:cx="142.51842"
     inkscape:cy="105.23162"
     inkscape:window-width="1920"
     inkscape:window-height="940"
     inkscape:window-x="0"
     inkscape:window-y="0"
     inkscape:window-maximized="1"
     inkscape:current-layer="layer2"
     showgrid="false"
     inkscape:document-units="mm" /><defs
     id="defs1"><clipPath
       clipPathUnits="userSpaceOnUse"
       id="cp1"><path
         d="m 275.5,535.5 c -143.78,0 -260,-116.22 -260,-260 0,-143.78 116.22,-260 260,-260 143.78,0 260,116.22 260,260 0,143.78 -116.22,260 -260,260 z"
         id="path1" /></clipPath></defs><style
     id="style1">
		tspan { white-space:pre } 
		.s0 { fill: none;stroke: #ff0000;stroke-miterlimit:100 } 
	</style><g
     inkscape:groupmode="layer"
     id="layer2"
     inkscape:label="Content"
     style="display:inline"><path
       id="path9"
       style="display:inline;opacity:1;font-size:107.967px;font-family:'New Rocker';-inkscape-font-specification:'New Rocker';letter-spacing:2px;baseline-shift:baseline;white-space:pre;overflow:visible;fill:none;stroke:#000000;stroke-opacity:1;enable-background:accumulate;stop-color:#000000;stop-opacity:1;stroke-width:0.49137931;stroke-dasharray:none"
       d="m 418.79492,348.35547 -2.51953,5.03906 c -0.59012,1.18025 -1.37156,2.57987 -2.3418,4.17383 l -0.0293,0.0469 -0.0293,0.0508 c -0.89808,1.5889 -1.86721,3.18115 -2.9082,4.77734 l -0.01,0.0156 -0.0117,0.0156 c -1.00218,1.57487 -1.96744,3.07852 -2.89648,4.50781 l -0.0332,0.0527 -0.0332,0.0527 c -0.86812,1.44688 -1.5563,2.60768 -2.07226,3.49219 l -1.51563,2.5957 2.34766,1.87695 c 0.95441,0.76353 1.57843,1.39912 1.80273,1.6875 l 0.13281,0.16993 0.15235,0.15429 c 0.72971,0.72972 1.6549,1.53077 2.85742,2.50782 l 2.4375,1.98046 2.2207,-2.2207 c 0.11977,-0.11976 0.24038,-0.23899 0.36133,-0.35937 l 0.043,5.13672 c -1.64856,0.8324 -4.02339,1.68748 -7.05469,2.44531 -3.37601,0.84401 -7.57208,1.30078 -12.54492,1.30078 h -1.16601 c -0.5225,-0.11032 -0.9217,-0.10938 -1.31641,-0.10938 h -3.16016 v -1.40234 H 376.2832 v -2.24023 c 0,-0.51886 0.0346,-1.5863 0.10547,-3.07422 v -0.004 -0.004 c 0.0689,-1.51489 0.17307,-3.06851 0.31055,-4.6582 0.2104,-1.67997 0.41955,-3.25907 0.6289,-4.72461 0.19624,-1.37366 0.45573,-2.32681 0.54297,-2.54492 l 3.54493,-8.86914 -8.42383,4.50586 c -2.99651,1.60278 -5.79383,2.91239 -8.38086,3.93359 -2.37228,0.93643 -4.99447,1.51239 -7.91406,1.70703 l -6.65235,0.44336 3.93555,4.91993 c -0.0224,-0.0268 -0.043,-0.0473 -0.0508,-0.0527 h -0.002 -0.002 v 0.002 h -0.002 v 0.002 l 0.002,0.002 c 0.008,0.0588 0.22592,0.48148 0.33594,1.06836 l 0.004,0.0195 0.004,0.0215 c 0.18967,0.94835 0.35722,2.06936 0.49219,3.35156 v 0.01 l 0.002,0.01 c 0.13692,1.2323 0.24018,2.46388 0.3086,3.69531 l 0.006,0.10742 0.0117,0.10742 c 0.13656,1.16069 0.19141,2.00733 0.19141,2.29297 v 1.74219 c -2.17514,1.76878 -4.40253,3.17794 -6.73242,4.07813 l -2.22852,0.86132 v 7.05665 h 8.96094 V 418 h -9.91797 c -0.29831,-3.5803 -0.44922,-7.21377 -0.44922,-10.90039 0,-6.17579 0.42548,-11.48403 1.23828,-15.88672 l 0.91602,-4.96094 -4.96289,0.90235 c -0.64058,0.11646 -1.3255,0.20448 -2.04492,0.26758 h -3.37891 c -2.56906,0 -5.43275,-0.26319 -8.58008,-0.81055 -3.04556,-0.52966 -7.05094,-1.60029 -11.91211,-3.22071 l -2.04101,-0.67968 -1.52149,1.52148 c -3.0649,3.06491 -6.19725,5.58522 -9.39257,7.58594 -3.19746,1.93001 -5.97014,3.0342 -8.19532,3.43359 l -5.75781,1.03321 3.43945,4.30078 c 0.01,0.0247 0.0187,0.0509 0.0273,0.0801 0.0874,0.29499 0.21391,0.83667 0.34375,1.55078 0.26383,1.45105 0.50755,3.27136 0.71679,5.43359 l 0.006,0.0566 0.006,0.0547 c 0.27606,2.13942 0.48525,4.43324 0.625,6.8789 v 0.002 0.004 c 0.0684,1.16243 0.12111,2.28085 0.15625,3.35352 h -7.7207 c 0.003,-3.47942 0.0384,-6.40168 0.10547,-8.75 0.0708,-2.47938 0.14265,-4.55525 0.21289,-6.25 0.13501,-1.60929 0.26974,-2.90409 0.39648,-3.86914 0.19427,-1.02283 0.41444,-1.9769 0.66211,-2.84375 l 0.8086,-2.83203 -2.66016,-1.26758 c -1.43354,-0.68264 -2.67396,-1.32072 -3.72852,-1.91211 -1.07514,-0.67302 -2.11588,-1.34688 -3.12304,-2.01758 -0.89515,-0.6411 -1.79987,-1.34957 -2.71094,-2.1289 -0.98425,-0.91427 -2.06629,-1.92749 -3.25977,-3.05079 l -2.60937,-2.45507 -2.37891,2.67773 c -2.2315,2.51045 -4.37693,4.6869 -6.42187,6.52734 -0.84746,0.76273 -1.92783,1.53852 -2.86328,2.30665 -1.3838,-0.66148 -2.59775,-1.2844 -3.62305,-1.85938 -1.07516,-0.67303 -2.11782,-1.34687 -3.125,-2.01758 -0.89515,-0.6411 -1.79987,-1.34957 -2.71094,-2.1289 -0.98425,-0.91427 -2.06629,-1.92749 -3.25976,-3.05079 l -2.63868,-2.48242 -2.37695,2.73633 c -2.28754,2.63415 -4.51942,4.89516 -6.68164,6.78711 -0.52132,0.45398 -1.22433,0.94005 -1.78125,1.40039 v -2.6582 l -3.76758,-6.2793 -2.5039,0.62695 c -2.2438,0.56095 -4.82398,1.16241 -7.72071,1.79883 -2.89475,0.56454 -5.56879,1.02182 -8.01367,1.3711 l -2.99023,0.42578 v 4.07226 h -6.39844 c -3.26094,0 -5.84627,-0.5461 -7.85742,-1.48633 -2.05787,-1.06846 -4.17366,-2.71767 -6.31055,-5.04882 l -1.90039,-2.07422 -2.42773,1.42187 c -1.6381,0.96027 -4.28398,1.9792 -7.82813,2.86524 -3.37601,0.84401 -7.57207,1.30078 -12.54492,1.30078 h -1.16406 c -0.52315,-0.11067 -0.92338,-0.10938 -1.31836,-0.10938 h -4.38867 l 0.99804,4.27344 c 0.54192,2.32251 1.1689,4.29753 1.97071,5.99024 l 0.0312,0.0664 0.0351,0.0645 c 0.85815,1.6305 1.8588,3.04261 3.10352,4.1836 l 0.0605,0.0566 0.0625,0.0527 c 1.19994,0.99994 2.58809,1.75731 4.08008,2.1836 l 0.13672,0.0391 0.13672,0.0273 c 1.32772,0.26555 2.71022,0.39258 4.13867,0.39258 2.21109,0 4.6479,-0.43191 7.49414,-1.20117 1.13459,-0.30664 2.17479,-0.78513 3.27539,-1.1543 v 3.43164 c -0.54514,0.21184 -0.91227,0.41417 -1.60156,0.625 -1.45773,0.39555 -3.1026,0.7685 -4.94336,1.10938 -1.8267,0.33828 -3.7718,0.60974 -5.82812,0.8164 -1.9865,0.13547 -3.93556,0.20508 -5.84571,0.20508 -1.73751,0 -3.31133,-0.0999 -4.71289,-0.29101 l -5.99219,-0.81836 2.30274,5.59375 c 0.36918,0.89657 0.66644,2.01222 0.84961,3.35547 v 0.01 l 0.002,0.0117 c 0.0525,0.36748 0.0983,0.74581 0.13672,1.13281 h -8.19726 c -0.0493,-1.62795 -0.0742,-3.25046 -0.0742,-4.86523 0,-4.11469 0.10671,-8.00724 0.31836,-11.67578 0.21504,-3.72748 0.43054,-7.01982 0.64453,-9.87305 l 0.29101,-3.88672 -3.89453,0.14844 c -3.82473,0.14433 -7.21988,0.28883 -10.1875,0.43359 -2.99031,0.14587 -5.69948,0.32744 -8.13476,0.54883 h -0.006 l -0.004,0.002 c -2.39168,0.22422 -4.6167,0.52423 -6.67969,0.90624 l -0.0117,0.002 -0.0117,0.002 c -0.69129,0.13294 -1.32908,0.3284 -2.00391,0.48047 -0.15155,-0.83421 -0.35969,-1.67069 -0.47461,-2.50391 -0.26645,-1.93173 -0.40039,-3.85789 -0.40039,-5.78515 0,-2.2871 0.22769,-4.48831 0.67969,-6.61914 l 0.002,-0.01 0.002,-0.0117 c 0.20096,-0.9761 0.6661,-1.81912 0.98242,-2.73437 0.41917,0.19187 0.73404,0.41864 1.17774,0.60351 1.80354,0.75148 3.61182,1.42985 5.42187,2.03321 l 0.0801,0.0273 0.082,0.0234 c 1.84755,0.51731 3.59419,0.96335 5.24219,1.33789 l 0.0859,0.0195 0.0879,0.0156 c 1.77299,0.30835 3.25248,0.48243 4.5918,0.48243 3.97022,0 7.70193,-1.87937 10.6289,-4.97852 2.79892,-2.96356 4.97891,-6.58855 6.55664,-10.76953 l 2.42383,-6.42188 -6.61328,1.8379 c -1.18724,0.32979 -2.41447,0.62517 -3.67383,0.89257 -1.16105,0.17974 -2.35775,0.27539 -3.59961,0.27539 -2.02716,0 -3.9696,-0.1651 -5.83789,-0.48437 -1.91682,-0.39939 -3.72172,-0.89195 -5.41406,-1.47656 -1.6626,-0.59924 -3.21216,-1.25898 -4.65039,-1.97657 -1.4148,-0.74221 -2.60617,-1.43862 -3.54492,-2.06445 l -3.07618,-2.05078 -1.86132,3.19336 c -1.75782,3.0134 -3.71939,4.89583 -5.89258,5.98242 -2.28739,1.14369 -5.22052,1.79297 -8.91602,1.79297 -1.7375,0 -3.150295,-0.10611 -4.177732,-0.27734 -1.336859,-0.22281 -2.391057,-0.37718 -3.248047,-0.4629 l -7.970703,-0.79687 4.853516,6.37305 c 1.991957,2.61444 3.311486,5.51731 4.003906,8.85351 0.741283,3.57165 1.115234,7.29117 1.115234,11.16992 0,3.55709 -0.174762,6.99958 -0.521484,10.32813 -0.355863,3.41628 -0.74712,6.61069 -1.171875,9.58398 l -0.732422,5.12696 5.023438,-1.25586 c 2.245329,-0.56134 4.603059,-1.09015 7.072269,-1.58399 2.48795,-0.49759 4.97541,-0.95834 7.46289,-1.38476 2.46661,-0.42285 4.85903,-0.77411 7.17382,-1.05469 1.39858,-0.16952 2.55302,-0.26117 3.78907,-0.37891 0.21234,0.58675 0.38425,0.74435 0.55469,1.86914 0.32944,2.1744 0.49997,4.59362 0.5,7.25196 -3e-5,3.08426 -0.20635,6.08913 -0.61524,9.01953 l -0.004,0.0352 -0.004,0.0351 c -0.13172,1.10646 -0.34621,1.60111 -0.51367,2.50195 -2.01053,-1.00531 -4.11414,-2.02562 -5.93946,-3.00195 -3.01132,-1.71969 -5.75583,-3.23712 -8.21875,-4.54101 -2.48001,-1.31296 -4.64603,-2.37838 -6.54297,-3.21485 -2.00407,-0.95935 -3.68125,-1.61719 -5.666011,-1.61719 h -4.558594 l 1.199219,4.39844 c 0.1713,0.6281 0.27592,1.1967 0.326172,1.69922 0.0594,0.594 0.08984,1.23368 0.08984,1.91992 0,1.88287 -0.382801,3.6141 -1.183593,5.33008 l -0.01172,0.0234 -0.01172,0.0234 c -0.78717,1.75599 -1.892942,3.49142 -3.359375,5.21289 l -4.615234,5.41797 7.109375,0.31835 c 4.704979,0.21067 8.733611,0.63291 12.050781,1.24219 l 0.041,0.008 0.0391,0.006 c 3.48537,0.55766 6.47763,1.2158 8.95118,1.95118 2.51359,0.74729 4.59584,1.54867 6.22656,2.36328 1.86342,0.96725 3.50674,1.89321 4.91601,2.76562 l 2.30469,1.42578 1.94921,-1.88281 c 1.7222,-1.66479 4.03889,-3.0377 7.10156,-4.05859 3.0971,-1.03237 6.3096,-1.54883 9.69532,-1.54883 h 4.48242 l -1.10742,-4.3418 c -0.88605,-3.476 -1.5012,-7.10004 -1.8457,-10.875 -0.0546,-0.76667 -0.10439,-1.53108 -0.14844,-2.29492 h 8.14453 c -0.0182,2.38744 -0.0857,4.77478 -0.20507,7.16211 -0.13117,2.54674 -0.53058,4.54316 -1.06836,5.94141 l -1.78712,4.64453 4.97656,0.0859 c 3.95022,0.0681 7.3808,0.51313 10.2832,1.28711 l 0.01,0.002 0.01,0.004 c 3.01184,0.7857 5.71234,1.91461 8.14453,3.38672 l 2.56445,1.55274 6.20898,-7.46875 c 0.2278,0.33276 0.3498,0.68361 0.59375,1.01367 1.43026,1.93505 3.08969,3.56695 4.97266,4.82226 l 3.28125,2.1875 1.76367,-3.52734 c 0.29345,-0.5869 0.83506,-1.45196 1.61524,-2.49219 0.75927,-1.01236 1.62155,-2.00437 2.59179,-2.97461 0.99759,-0.99759 1.98205,-1.88289 2.95118,-2.6582 l 0.01,-0.008 0.0117,-0.008 c 0.93545,-0.76004 1.70968,-1.18746 2.21289,-1.36718 l 2.3125,-0.82422 v -6.41211 l -2.69922,-0.62305 c -0.52051,-0.12012 -0.81523,-0.26882 -1.04883,-0.40429 v -0.002 c 0.002,-0.008 -0.11775,-0.1606 -0.28515,-0.66406 -0.18522,-0.63409 -0.37246,-1.53364 -0.53711,-2.65625 h 9.21484 v 7.98242 c 0,1.68377 -0.28362,2.76841 -0.49609,3.19336 l -0.0215,0.043 -0.0195,0.043 c -0.15256,0.32692 -0.23006,0.41923 -0.25195,0.43555 h -0.002 v 0.002 h -0.002 v -0.002 -0.002 c 4.2e-4,-6.8e-4 0.003,-0.005 0.004,-0.006 0.002,-0.002 0.005,-0.004 0.008,-0.006 l -2.13476,0.88868 v 7.42187 h 26.83007 v -7.52539 l -2.20312,-0.81641 c -0.0314,-0.0603 -0.0959,-0.19731 -0.19922,-0.47656 -0.25975,-0.70227 -0.51172,-2.14547 -0.51172,-4.16406 v -21.68164 l 6.42383,-2.77735 v 25.42969 c 0,1.68377 -0.28362,2.76841 -0.49609,3.19336 l -0.0215,0.043 -0.0195,0.043 c -0.15256,0.32692 -0.23007,0.41923 -0.25195,0.43555 h -0.002 v 0.002 h -0.002 v -0.002 -0.002 c 4.2e-4,-6.8e-4 0.003,-0.005 0.004,-0.006 l 0.002,-0.002 c 0.003,-0.002 0.006,-0.004 0.01,-0.006 l -2.13868,0.89063 v 7.42187 h 26.18164 v -7.52539 l -2.20312,-0.81641 c -0.0314,-0.0603 -0.0959,-0.19731 -0.19922,-0.47656 -0.25975,-0.70227 -0.51172,-2.14547 -0.51172,-4.16406 v -9.82422 -7.88281 c 0,-1.65493 0.0373,-2.73059 0.0664,-3.94727 l 6.57226,-2.8164 v 9.16992 l 0.002,0.0312 c 0.0716,4.08239 0.10742,8.16371 0.10742,12.24609 0,0.58074 -0.0644,1.8504 -0.20508,3.60938 -0.14146,1.76835 -0.31974,3.7221 -0.5332,5.85742 -0.20779,2.00859 -0.48535,4.01853 -0.83203,6.0293 v 0.01 l -0.002,0.01 c -0.34339,2.06032 -0.71721,3.73317 -1.08789,4.96875 l -0.59765,1.99218 4.66601,4.66797 2.45899,-2.63476 c 0.92116,-0.98696 1.99585,-2.03061 3.22265,-3.1211 1.20795,-1.07373 2.48853,-2.11705 3.83789,-3.13086 1.42228,-1.01503 2.79965,-1.9233 4.13282,-2.72461 1.25503,-0.71524 2.44255,-1.24595 3.57812,-1.66015 l 2.83984,-2.4336 -0.33007,-1.64843 c -0.13637,-0.68184 -0.27474,-1.4042 -0.41211,-2.15821 -0.11302,-0.67808 -0.21598,-1.64934 -0.28321,-2.85937 -0.0687,-1.23683 -0.13885,-2.85778 -0.20898,-4.8086 v -3.85546 h 7.76758 c -0.0493,3.36103 -0.29416,6.08119 -0.6836,8.08398 l -0.008,0.0391 -0.006,0.0371 c -0.34393,2.00627 -0.9838,2.96337 -1,3.02149 v 0.002 h 0.002 l -2.41601,6.57031 5.36914,-0.51562 c 0.14312,-0.0137 0.26873,-0.041 0.39648,-0.041 h 0.28907 l 0.2832,-0.0469 c 0.24621,-0.041 0.48424,-0.0605 0.72266,-0.0605 1.23518,0 2.99704,0.15609 5.18554,0.49805 2.19835,0.34349 4.39958,0.79081 6.60352,1.34179 2.19954,0.54989 4.20687,1.12992 6.0332,1.73633 1.74041,0.64904 2.8797,1.30445 3.07813,1.4668 l 2.43945,1.99609 2.22852,-2.22851 c 1.37475,-1.37476 2.92743,-2.69825 4.66601,-3.96875 l 0.0352,-0.0254 0.0332,-0.0274 c 1.72608,-1.32775 3.50856,-2.48143 5.35156,-3.46875 1.87342,-1.00362 3.72999,-1.83228 5.57227,-2.49023 1.81012,-0.64648 3.46908,-1.04489 4.9668,-1.22461 l 3.65429,-0.43945 -0.64062,-3.62305 c -0.38653,-2.19029 -0.71234,-4.40104 -0.98047,-6.63281 h 9.45703 v 16.4082 l 1.92578,0.96094 c 1.09975,0.54987 2.51124,1.291 4.2168,2.21484 1.67678,0.90826 3.31892,1.85123 4.92383,2.82813 l 2.19922,1.33984 1.92382,-1.71094 c 0.42046,-0.37374 1.18389,-0.93963 2.23047,-1.59375 1.05212,-0.65757 2.17949,-1.28701 3.38281,-1.88867 l 0.0684,-0.0352 0.0664,-0.0371 c 1.22859,-0.68255 2.49379,-1.33094 3.79492,-1.94726 1.27503,-0.60396 2.4624,-1.0969 3.55469,-1.48242 l 2.32226,-0.82032 v -7.27929 l -3.29882,-0.17383 c -1.96887,-0.10363 -3.30298,-0.70236 -4.59571,-1.98242 -0.85704,-0.9009 -1.51809,-2.35978 -1.67773,-4.80078 h 13.99609 c -0.0193,2.35475 -0.0874,4.70982 -0.20507,7.06445 -0.13117,2.54674 -0.53058,4.54316 -1.06836,5.94141 l -1.78711,4.64453 4.97656,0.0859 c 3.95021,0.0681 7.38079,0.51313 10.2832,1.28711 l 0.01,0.002 0.008,0.004 c 3.01184,0.7857 5.71429,1.91461 8.14648,3.38672 l 2.56446,1.55274 6.20898,-7.46875 c 0.2278,0.33276 0.34979,0.68361 0.59375,1.01367 1.43026,1.93505 3.08773,3.56695 4.9707,4.82226 l 3.28321,2.1875 1.76367,-3.52734 c 0.29345,-0.5869 0.83506,-1.45196 1.61523,-2.49219 0.75927,-1.01236 1.61961,-2.00437 2.58985,-2.97461 0.99759,-0.99759 1.98398,-1.88289 2.95312,-2.6582 l 0.0117,-0.008 0.01,-0.008 c 0.93546,-0.76004 1.71162,-1.18746 2.21484,-1.36718 l 2.31055,-0.82422 v -6.41211 l -2.69727,-0.62305 c -0.51979,-0.11995 -0.81519,-0.26895 -1.04883,-0.40429 h -0.002 v -0.002 c 0.002,-0.009 -0.11585,-0.16077 -0.2832,-0.66406 -0.17979,-0.61551 -0.36233,-1.48158 -0.52344,-2.55859 h 9.20117 v 7.88476 c 0,1.65324 -0.24188,2.78371 -0.45508,3.28906 -0.11992,0.28427 -0.16138,0.36067 -0.17578,0.37305 h -0.002 v 0.002 h -0.002 v -0.002 h -0.002 v -0.002 l -0.002,-0.002 c -8e-4,-0.003 -0.001,-0.009 -0.002,-0.0117 v -0.002 h -0.002 l -2.27343,0.8418 v 7.52539 h 30.06836 v -8.29687 l -2.94336,-0.46094 c -1.71117,-0.26738 -2.43783,-0.73568 -2.6543,-0.93164 -0.16055,-0.27663 -0.55664,-1.30472 -0.55664,-3.29297 v -13.78906 l 6.69531,-9.41993 7.92188,4.13868 1.80468,-2.07422 c 1.75191,-2.0147 3.13259,-4.43632 4.1875,-7.19531 l 0.006,-0.0156 0.006,-0.0156 c 1.04327,-2.8088 1.74838,-5.85119 2.13672,-9.11328 l 0.36719,-3.08007 -3.01953,-0.71875 c -2.91408,-0.69384 -5.56151,-1.45513 -7.94727,-2.27149 -1.782,-0.6641 -3.22536,-1.30489 -4.26562,-1.85742 l -0.0879,-10.64453 c 2.16658,-2.31285 3.97175,-4.25404 5.41797,-5.82422 l -0.0352,0.0352 c 2.59355,-2.73763 4.39522,-4.64638 5.41797,-5.74219 l 2.5625,-2.7461 -2.9336,-2.34765 c -1.02071,-0.81658 -1.77532,-1.4804 -2.19726,-1.90235 -0.62713,-0.62713 -1.47256,-1.43624 -2.56836,-2.45898 l -2.18945,-2.04297 -2.34766,1.85938 c -1.70028,1.34605 -3.54881,2.7661 -5.54297,4.26172 -1.23402,0.91401 -2.38815,1.74882 -3.5625,2.60351 -1.21986,-0.85433 -2.4234,-1.68973 -3.70312,-2.60351 l -0.002,-0.002 c -1.9773,-1.48303 -3.77136,-2.88849 -5.37695,-4.21484 l -2.28125,-1.88672 -2.22852,1.95117 c -1.18256,1.03474 -2.08134,1.85479 -2.75976,2.5332 -0.38661,0.38661 -1.14486,1.08154 -2.19336,1.99024 l -2.82617,2.44922 2.64453,2.64453 c 2.48405,2.48406 5.0804,5.18688 7.78906,8.10937 l 0.0293,0.0332 0.0312,0.0312 c 2.74613,2.81654 5.46204,5.81324 8.14648,8.99218 l 2.51758,2.98047 2.67578,-2.83789 c 0.34564,-0.36658 0.68566,-0.72761 1.01953,-1.08203 l 0.0254,3.1875 -1.44336,3.9082 c -0.58105,1.57225 -1.26162,2.96016 -1.89062,4.44336 v -0.85351 l -3.76563,-6.2793 -2.5039,0.62695 c -2.24379,0.56095 -4.82398,1.16241 -7.7207,1.79883 -2.89475,0.56454 -5.5688,1.02182 -8.01368,1.3711 l -2.99023,0.42578 v 4.07226 h -6.39844 c -3.26094,0 -5.84627,-0.5461 -7.85742,-1.48633 -2.05787,-1.06846 -4.17366,-2.71767 -6.31055,-5.04882 l -0.57031,-0.6211 -0.0742,-9.08789 c 1.33966,-1.21581 2.62722,-2.37934 3.85938,-3.48828 1.38474,-1.24627 2.65022,-2.30502 3.78125,-3.16992 l 0.0488,-0.0391 0.0488,-0.0391 c 1.17929,-0.97118 2.07569,-1.64941 2.52539,-1.94921 l 4.6875,-3.125 -4.89062,-2.79688 c -0.38041,-0.21738 -1.1055,-0.66482 -2.0332,-1.25977 -0.88755,-0.68083 -1.82932,-1.38727 -2.83399,-2.125 l -0.0215,-0.0176 c -0.94083,-0.73962 -1.84669,-1.47657 -2.71875,-2.21289 -0.74627,-0.68717 -1.26511,-1.25452 -1.48438,-1.54688 z m -210.67773,42.90234 v 2.04297 l 3.99609,1.72656 v 22.875 h -9.54492 c -0.0426,-1.43836 -0.0664,-3.09758 -0.0664,-4.97265 0,-5.16637 0.14886,-9.05863 0.41016,-11.56446 0.31098,-2.3271 0.93297,-3.96663 1.66406,-5.01757 z m 234.30078,0 v 2.04297 l 3.99609,1.72656 V 418 h -9.54492 c -0.0445,-1.46092 -0.0664,-3.15246 -0.0664,-5.07031 0,-5.17072 0.14845,-9.06866 0.41016,-11.57422 0.31149,-2.32108 0.93416,-3.95858 1.66406,-5.00781 z m -51.16797,0.65235 0.0254,0.10937 c 0.54192,2.32251 1.1689,4.29753 1.9707,5.99024 l 0.0312,0.0664 0.0352,0.0645 c 0.85815,1.6305 1.8588,3.04261 3.10352,4.1836 l 0.0605,0.0566 0.0625,0.0527 c 1.19994,0.99994 2.58808,1.75731 4.08008,2.1836 l 0.13477,0.0391 0.13867,0.0273 c 1.32772,0.26555 2.71022,0.39258 4.13867,0.39258 2.21108,0 4.6479,-0.43191 7.49414,-1.20117 1.13459,-0.30664 2.17479,-0.78513 3.27539,-1.1543 v 3.43164 c -0.54514,0.21184 -0.91227,0.41417 -1.60156,0.625 -1.45773,0.39555 -3.1026,0.7685 -4.94336,1.10938 -1.8267,0.33828 -3.7718,0.60973 -5.82813,0.8164 -1.9865,0.13547 -3.9375,0.20508 -5.84765,0.20508 -1.73751,0 -3.30938,-0.0999 -4.71094,-0.29101 l -5.99414,-0.81836 2.30469,5.59375 c 0.36918,0.89657 0.66448,2.01222 0.84765,3.35547 l 0.002,0.01 0.002,0.0117 c 0.0569,0.39847 0.10607,0.80905 0.14648,1.23047 H 376.2813 v -16.55859 l 9.4043,1.1875 0.75,-2.99805 c 0.26646,-1.06585 0.74631,-2.23302 1.45898,-3.49024 0.81065,-1.30131 1.69499,-2.4684 2.66406,-3.49804 z m -98.61133,8.52539 h 0.002 l 0.002,0.002 c 0.01,0.0114 0.0347,0.0503 0.0605,0.10742 -0.045,-0.066 -0.0627,-0.10112 -0.0645,-0.10937 z m 22.40039,1.2832 c 0.82715,0.22732 1.58409,0.46753 2.51758,0.67969 l 0.0371,0.008 0.0371,0.008 c 2.25563,0.46138 4.58933,0.7124 6.91016,0.99805 l -0.16211,23.16016 c -1.39339,-0.3263 -2.68407,-0.7346 -4.16993,-0.98829 -1.83886,-0.31395 -3.41473,-0.51111 -5.07226,-0.74414 0.067,-1.49246 0.14683,-2.97237 0.18945,-4.48828 0.14661,-2.71214 0.22069,-5.14704 0.22071,-7.31445 0,-2.72395 -0.0733,-5.41306 -0.22071,-8.06836 v -0.006 c -0.0551,-1.01863 -0.20177,-2.17917 -0.28711,-3.24414 z m -133.42968,18.00977 v 6.33203 c -0.88356,-0.11652 -1.9375,-0.38061 -2.73633,-0.41407 h -0.006 c -0.49742,-0.0217 -0.96696,-0.0693 -1.45703,-0.0976 l 0.0957,-4.78516 c 0.81346,-0.16641 1.50716,-0.23363 2.41406,-0.46875 l 0.0566,-0.0137 0.0586,-0.0176 c 0.50922,-0.15088 1.05719,-0.37064 1.57422,-0.53515 z m 234.29882,0 v 6.33203 c -0.88355,-0.11652 -1.93749,-0.38061 -2.73632,-0.41407 h -0.006 c -0.49742,-0.0217 -0.96696,-0.0693 -1.45704,-0.0976 l 0.0957,-4.78516 c 0.81346,-0.16641 1.50715,-0.23363 2.41406,-0.46875 l 0.0566,-0.0137 0.0586,-0.0176 c 0.50923,-0.15088 1.05721,-0.37064 1.57422,-0.53515 z"
       inkscape:label="text"
       transform="scale(0.38458351)" /><path
       id="path7"
       style="display:inline;opacity:1;baseline-shift:baseline;overflow:visible;fill:none;fill-opacity:1;stroke:#000000;stroke-opacity:1;enable-background:accumulate;stop-color:#000000;stop-opacity:1;stroke-width:0.49137931;stroke-dasharray:none"
       d="m 261.51194,332.84647 c -0.34948,-0.56546 -3.49967,-0.98199 -7.00043,-0.92563 -4.74433,0.0764 -5.71055,0.31207 -3.79473,0.92563 3.81722,1.22249 11.5507,1.22249 10.79516,0 z m 48.33436,-21.6854 c 1.90619,-0.71416 -27.96291,-1.82159 -35.24468,-2.79109 -5.06565,-0.67445 -11.29726,-1.22627 -13.84803,-1.22627 -2.55076,0 -6.43084,-0.6241 -8.62241,-1.3869 -2.19157,-0.76279 -6.46316,-1.46702 -9.49242,-1.56495 -3.02925,-0.0979 -6.35305,-0.63044 -7.38621,-1.18337 -1.03316,-0.55293 -3.07179,-1.00533 -4.53029,-1.00533 -1.45849,0 -3.45517,-0.40799 -4.43705,-0.90666 -2.61743,-1.32929 -11.12685,-3.20578 -14.53748,-3.20578 -1.62562,0 -4.04038,0.87835 -5.36614,1.95188 l -2.41047,1.95186 4.09577,1.02315 c 15.45149,3.85985 25.0806,5.63973 34.93906,6.45824 6.22007,0.51643 9.90691,1.6162 14.9076,1.93724 17.27536,1.10908 48.28444,1.31482 51.93275,-0.052 z M 290.04052,285 c -2.8273,-0.77085 -31.76713,-2.91002 -35.72535,-3.54746 -7.50646,-1.20885 -11.82327,-2.80017 -11.82327,-4.35844 0,-0.50328 0.34698,-0.71074 0.77108,-0.46103 0.4241,0.24971 1.92771,-2.6e-4 3.34136,-0.55549 2.40006,-0.94266 2.20193,-1.10627 -2.99188,-2.47061 l -5.56216,-1.46111 -2.87797,3.36242 c -1.58288,1.84932 -2.89678,3.6975 -2.91975,4.10708 -0.0229,0.40958 1.46183,1.54544 3.29957,2.52416 2.39759,1.27687 21.52476,3.7252 30.74622,4.18665 21.18039,1.0599 29.68761,0.29484 23.74215,-1.32617 z m 128.89054,-13.58312 c -0.34954,-1.55502 -1.06167,-5.18547 -1.58253,-8.06766 -1.15054,-6.36659 -3.3031,-11.71748 -5.66311,-14.07749 -2.08453,-2.08453 -11.36284,-2.42417 -15.44266,-0.56527 -3.99717,1.82123 -3.13301,2.72469 2.04766,2.14076 9.77698,-1.10201 15.25616,4.05652 18.02616,16.97127 0.75802,3.53413 1.79937,6.42569 2.31411,6.42569 0.51474,0 0.64991,-1.27228 0.30037,-2.8273 z m -122.35318,-7.97576 c 7.78394,-2.36203 8.2213,-2.87636 5.10012,-5.99755 -2.82845,-2.82843 -5.94554,-4.7897 -7.61242,-4.7897 -0.54732,0 -1.43942,1.27228 -1.98243,2.8273 -0.54302,1.55502 -2.44266,4.38388 -4.22141,6.28638 -2.449,2.61935 -3.79364,3.30911 -5.53897,2.84134 -1.26766,-0.33975 -3.53317,-0.62406 -5.03446,-0.63178 -2.14802,-0.011 -3.31681,-1.01602 -5.48558,-4.71675 -1.99473,-3.40375 -3.21315,-4.5273 -4.41107,-4.06761 -0.9103,0.34932 -3.87792,1.36218 -6.59471,2.25079 -2.71679,0.88862 -4.93962,1.95102 -4.93962,2.36087 0,0.79206 3.86675,2.08119 13.87949,4.62724 7.14991,1.81809 19.03019,1.37966 26.84106,-0.99053 z M 292.9867,64.87699 c 1.11223,-1.340152 0.30427,-1.425771 -5.38909,-1.627118 -9.16838,-0.324241 -15.35299,-0.04853 -16.12018,0.718657 -1.53208,1.532078 3.00373,1.774528 11.27127,1.789201 6.64489,0.01179 9.2792,0.274552 10.238,-0.88074 z m -10.35389,-7.980506 c -14.37712,-3.214804 -23.75175,8.620101 -19.39832,22.250559 0.47454,18.656772 -3.50371,38.640107 -16.11221,52.977557 -9.23328,14.82244 -17.05932,30.50729 -24.90827,46.08039 -6.22084,17.79236 -14.02797,37.4891 -9.9916,57.20124 3.19127,10.4429 18.47428,21.36623 18.21906,29.68814 -5.56945,-1.28262 -5.36427,6.56823 -8.03107,9.87677 -0.0969,14.7492 -16.29701,12.11949 -24.78816,20.88364 -6.30145,7.71234 -17.83489,21.42462 -8.92497,30.56129 26.58043,14.03427 57.56964,12.09555 86.58478,13.69955 15.8432,0.34365 31.93937,0.83646 47.8571,-0.12418 7.95887,-0.48032 15.87313,-1.32399 23.68885,-2.73136 7.81572,-1.40736 21.91928,-3.69071 27.03949,-16.43891 1.10129,3.03185 8.60141,9.89297 14.84937,9.29351 6.24797,-0.59946 12.44042,-1.64655 18.45817,-3.71771 13.68365,-2.86837 20.45869,-17.26036 21.2861,-30.06776 3.28244,-10.9116 3.29996,-23.86421 -0.5998,-34.55966 -2.56353,-12.3364 -13.43174,-24.89092 -27.2652,-22.1794 -13.44169,-0.338 -25.71564,5.74205 -35.58957,14.53523 -8.44526,4.83253 -15.17898,17.43026 -23.90583,18.45108 -11.97981,-4.3594 2.27507,-17.94879 8.12634,-25.13042 12.77118,-11.68742 11.29561,-30.74438 6.18981,-45.71182 -3.29112,-12.1466 -7.0563,-21.82706 -12.9408,-33.32738 -9.91759,-16.35017 -19.98764,-32.6128 -31.58615,-47.84394 -5.13223,-10.83172 -12.14887,-21.529287 -10.25722,-34.127373 1.00454,-12.58878 3.99684,-32.57853 -15.2678,-29.520416 l -2.73218,-0.01865 z m 4.83594,17.173828 c 0.18017,11.204444 -0.57568,22.630268 0.17996,33.699018 8.63933,17.30505 18.66378,34.1924 30.91375,49.11348 4.79514,8.35657 13.81133,21.95162 17.73048,33.42978 4.84093,13.46697 5.26883,28.3051 3.67155,42.36124 -5.71397,7.30207 -12.32468,24.17472 -18.58187,25.07576 -8.97349,-7.91139 -22.7386,-10.01553 -29.63861,-13.22222 5.90743,-7.42535 13.70883,-20.54494 8.03419,-31.98154 -1.67037,-14.54951 -9.27258,-26.87836 -15.09083,-39.88955 -2.95794,-9.49773 -12.71205,0.15981 -8.38966,6.88521 3.4365,14.05243 -10.89382,21.56259 -15.21307,33.04849 -3.75715,12.16214 1.87009,24.75811 8.96009,34.42959 -11.04052,-2.97285 -23.47504,18.65197 -29.6273,4.34987 -5.80681,-10.44272 -14.81467,-20.81541 -12.2891,-33.62725 1.25054,-26.04781 13.88364,-49.48911 27.49711,-71.01695 3.79325,-6.59424 12.63779,-20.65184 16.56315,-30.95542 6.20382,-13.01747 3.60892,-27.688824 4.13963,-41.619429 3.7135,-0.02743 7.42701,-0.05414 11.14053,-0.08008 z M 283.4707,198.92773 c 2.07084,6.47216 4.75715,26.56828 0.72491,25.99795 -1.27697,-10.99164 -12.27538,-5.83017 -10.67222,2.91028 -6.11398,-11.85216 6.78382,-18.63682 9.94731,-28.90823 z m -3.08804,34.77533 c -0.13741,6.08403 7.27817,9.26087 -1.84064,8.80412 -5.35402,-5.53095 1.57482,-2.99326 1.84064,-8.80412 z m 113.29117,26.45319 c 16.5569,-2.83066 18.3737,16.47857 17.37109,28.22266 -0.31707,5.22536 1.06719,11.2945 -0.29401,16.00203 -3.41588,2.13108 -8.91575,5.98257 -12.6222,7.48397 -3.70644,1.50139 -5.61946,0.65268 -1.86166,-6.61665 -0.85721,-14.94073 -18.84735,-5.23737 -23.94656,-8.84309 -5.18502,-7.78802 -22.43922,-9.18051 -8.48575,-17.69341 7.39868,-9.63177 16.12262,-20.24453 29.83909,-18.55551 z"
       sodipodi:nodetypes="sssssssssssssscssssssssssscsssssssssssssssssssssssssssssssccccccccccsscsccccccccccccccccccccccccccccccccccccccccccscccc"
       inkscape:label="znak"
       transform="scale(0.38458351)" /><g
       inkscape:groupmode="layer"
       id="layer4"
       inkscape:label="Kruh"
       style="display:inline"><path
         id="path2"
         style="fill:none;stroke:#000000;stroke-width:0.189192"
         d="M 219.118,109.6063 A 109.5117,109.5117 0 0 1 109.6063,219.118 109.5117,109.5117 0 0 1 0.09459686,109.6063 109.5117,109.5117 0 0 1 109.6063,0.09459686 109.5117,109.5117 0 0 1 219.118,109.6063 Z"
         inkscape:label="Vnejsi kruh" /><path
         id="circle2"
         style="fill:none;stroke:#000000;stroke-width:0.188976"
         d="M 208.69732,109.6063 A 99.091019,99.091019 0 0 1 109.6063,208.69732 99.091019,99.091019 0 0 1 10.515282,109.6063 99.091019,99.091019 0 0 1 109.6063,10.515282 99.091019,99.091019 0 0 1 208.69732,109.6063 Z"
         inkscape:label="Vnitrni kruh" /></g></g></svg>
