<?xml version="1.0" encoding="UTF-8" standalone="no"?>
<svg
   version="1.2"
   viewBox="0 0 219.2126 219.2126"
   width="58mm"
   height="58mm"
   id="svg1"
   sodipodi:docname="SarlatovaZenaRoleTokenLaser.svg"
   inkscape:version="1.4.2 (2aeb623e1d, 2025-05-12)"
   xml:space="preserve"
   xmlns:inkscape="http://www.inkscape.org/namespaces/inkscape"
   xmlns:sodipodi="http://sodipodi.sourceforge.net/DTD/sodipodi-0.dtd"
   xmlns="http://www.w3.org/2000/svg"
   xmlns:svg="http://www.w3.org/2000/svg"><sodipodi:namedview
     id="namedview1"
     pagecolor="#ffffff"
     bordercolor="#666666"
     borderopacity="1.0"
     inkscape:showpageshadow="2"
     inkscape:pageopacity="0.0"
     inkscape:pagecheckerboard="0"
     inkscape:deskcolor="#d1d1d1"
     inkscape:zoom="0.87158637"
     inkscape:cx="289.12797"
     inkscape:cy="392.96163"
     inkscape:window-width="1920"
     inkscape:window-height="940"
     inkscape:window-x="0"
     inkscape:window-y="0"
     inkscape:window-maximized="1"
     inkscape:current-layer="layer2"
     showgrid="false"
     inkscape:document-units="mm" /><defs
     id="defs1"><clipPath
       clipPathUnits="userSpaceOnUse"
       id="cp1"><path
         d="m 275.5,535.5 c -143.78,0 -260,-116.22 -260,-260 0,-143.78 116.22,-260 260,-260 143.78,0 260,116.22 260,260 0,143.78 -116.22,260 -260,260 z"
         id="path1" /></clipPath></defs><style
     id="style1">
		tspan { white-space:pre } 
		.s0 { fill: none;stroke: #ff0000;stroke-miterlimit:100 } 
	</style><g
     inkscape:groupmode="layer"
     id="layer2"
     inkscape:label="Content"
     style="display:inline"><path
       id="path10"
       style="opacity:1;font-size:100.705px;font-family:'New Rocker';-inkscape-font-specification:'New Rocker';letter-spacing:1.8655px;baseline-shift:baseline;white-space:pre;display:inline;overflow:visible;fill:none;stroke:#000000;stroke-width:0.18897638;stroke-opacity:1;enable-background:accumulate;stop-color:#000000;stop-opacity:1;stroke-dasharray:none"
       d="m 44.422399,105.65155 -0.814986,0.47547 c -0.287565,0.16775 -0.636125,0.35436 -1.04033,0.5566 -0.0019,10e-4 -0.0031,0.002 -0.0053,0.003 -0.406067,0.17828 -0.822425,0.3671 -1.249897,0.56787 l -1.320502,0.54307 c -0.256721,0.096 -0.466715,0.16356 -0.687293,0.23736 -0.255306,-0.0908 -0.502766,-0.17946 -0.7902,-0.28093 l -1.319001,-0.54307 -0.009,-0.004 c -0.424672,-0.19929 -0.838864,-0.3878 -1.242385,-0.56486 -0.389941,-0.2076 -0.747896,-0.39422 -1.068121,-0.55434 l -0.762406,-0.38082 -0.640723,0.5611 c -0.437036,0.3824 -0.76903,0.68565 -1.019296,0.93592 -0.143553,0.14355 -0.424179,0.40077 -0.811982,0.73686 l -1.194312,1.03433 1.268675,0.94267 c 0.957445,0.71125 2.055515,1.47021 3.296752,2.27971 l 0.01277,0.008 0.01352,0.008 c 0.739073,0.55191 1.413688,1.18195 2.081408,1.81776 -0.996048,0.84058 -2.412935,0.95296 -3.220136,1.35656 -0.848812,0.4244 -1.935851,0.66475 -3.304263,0.66475 -0.643078,0 -1.166071,-0.0394 -1.547348,-0.1029 -0.494024,-0.0823 -0.884217,-0.1389 -1.200321,-0.17051 l -2.904657,-0.29069 1.769684,2.32177 c 0.738096,0.96875 1.22623,2.04501 1.48275,3.28098 0.274326,1.32175 0.413127,2.69758 0.413127,4.13277 0,1.31568 -0.06479,2.58904 -0.193043,3.82029 -0.131585,1.26323 -0.276335,2.44513 -0.433407,3.54463 l -0.266655,1.86809 1.830527,-0.45745 c 0.830422,-0.2076 1.702326,-0.40326 2.615469,-0.58589 0.919978,-0.18399 1.839885,-0.35459 2.759687,-0.51227 0.912199,-0.15638 1.796912,-0.28607 2.653025,-0.38984 0.522472,-0.0633 0.95396,-0.0982 1.415148,-0.14197 0.08007,0.21863 0.146738,0.28449 0.211071,0.70908 0.121963,0.80495 0.185531,1.70022 0.185531,2.68382 0,1.14109 -0.0763,2.25305 -0.227596,3.33731 l -0.0015,0.012 -0.0015,0.0128 c -0.04999,0.4199 -0.131432,0.61021 -0.195295,0.95019 -0.750367,-0.37497 -1.534353,-0.7551 -2.215113,-1.11919 -9.23e-4,-3.9e-4 -0.0021,-0.001 -0.003,-0.002 -1.11338,-0.63583 -2.12788,-1.19678 -3.03836,-1.6788 -0.916867,-0.4854 -1.717784,-0.87927 -2.418669,-1.1883 -0.739328,-0.35387 -1.358424,-0.59566 -2.086666,-0.59566 h -1.66077 l 0.437163,1.60293 c 0.06357,0.23309 0.10224,0.44327 0.120934,0.63021 0.02203,0.22027 0.0338,0.45782 0.0338,0.71208 0,0.69873 -0.143009,1.34173 -0.440168,1.9785 l -0.0038,0.008 -0.0038,0.009 c -0.291812,0.65097 -0.702235,1.29356 -1.24539,1.93118 l -1.681801,1.97475 2.590681,0.11567 c 1.740079,0.0779 3.230514,0.23424 4.458013,0.4597 l 0.01427,0.002 0.01427,0.002 c 1.289162,0.20626 2.396287,0.44967 3.311775,0.72184 0.929384,0.27631 1.699785,0.57276 2.303745,0.87433 0.690116,0.35816 1.298732,0.70064 1.820762,1.0238 l 0.839773,0.51979 0.70983,-0.68579 c 0.639031,-0.61773 1.498368,-1.12716 2.632743,-1.50528 1.146916,-0.38231 2.336825,-0.57312 3.590448,-0.57312 h 1.632977 l -0.403363,-1.58266 c -0.328223,-1.28764 -0.556173,-2.62924 -0.683536,-4.02761 -0.0395,-0.5555 -0.07166,-1.10931 -0.09615,-1.66077 h 3.087933 c 0.0027,0.10963 0.0045,0.22118 0.0045,0.33426 0,1.04328 -0.02669,2.08665 -0.07887,3.13 -0.04858,0.94278 -0.196084,1.68294 -0.395852,2.20234 l -0.651238,1.69232 1.814003,0.0315 c 1.46161,0.0252 2.731193,0.18959 3.806023,0.47622 l 0.0031,7.7e-4 0.0038,7.7e-4 c 1.115084,0.29089 2.115017,0.70992 3.015827,1.25515 l 0.934415,0.56561 2.302243,-2.76946 c 0.08864,0.1301 0.136766,0.26687 0.232104,0.39586 0.527672,0.7139 1.139364,1.31517 1.833533,1.77795 l 1.195812,0.79771 0.642974,-1.28596 c 0.109226,-0.21845 0.309782,-0.53873 0.598662,-0.9239 0.281265,-0.37502 0.600669,-0.74188 0.959955,-1.10117 0.369254,-0.36925 0.734024,-0.69688 1.092909,-0.98399 l 0.0038,-0.003 0.0038,-0.003 c 0.346994,-0.28194 0.63527,-0.44112 0.824001,-0.50852 l 0.842026,-0.30046 v -2.34281 l -0.983995,-0.22684 c -0.194703,-0.0449 -0.305994,-0.10114 -0.394348,-0.15248 v -7.7e-4 c -0.0047,-0.009 -0.05144,-0.0706 -0.112668,-0.25764 -0.09712,-0.33313 -0.195037,-0.86127 -0.268908,-1.53984 -0.0057,-0.0832 -0.01069,-0.17032 -0.01577,-0.26065 h 3.529607 v 3.76697 c 0,0.61276 -0.08948,1.03258 -0.169759,1.22285 -0.04468,0.10592 -0.06159,0.13775 -0.06911,0.14498 l -7.69e-4,7.7e-4 h -7.69e-4 -7.69e-4 -7.69e-4 -7.69e-4 l -7.7e-4,-7.7e-4 -7.69e-4,-7.7e-4 -7.69e-4,-7.7e-4 h -7.69e-4 v -7.7e-4 h -7.69e-4 v -7.7e-4 h -7.69e-4 -7.7e-4 -7.69e-4 -7.69e-4 l -0.827758,0.30646 v 2.75068 h 11.079312 v -3.0331 l -1.07338,-0.16751 c -0.637136,-0.0995 -0.910244,-0.27557 -0.993006,-0.35153 -0.06236,-0.10617 -0.208817,-0.49064 -0.208817,-1.22887 v -3.40792 h 9.577783 v 3.24793 c 0,0.92698 -0.150492,1.67992 -0.414631,2.28947 -0.24983,0.57652 -0.541598,0.87697 -0.959955,1.08615 l -0.81799,0.40937 0.325242,2.2737 h 1.10042 c 0.956536,0 1.922479,-0.12063 2.891138,-0.35528 h 7.69e-4 7.69e-4 7.69e-4 c 0.682224,-0.16084 1.29667,-0.38875 1.917657,-0.60993 0.116486,0.0967 0.221643,0.22344 0.345525,0.30646 0.317566,0.22109 0.657672,0.42273 1.02155,0.60467 l 0.01804,0.009 0.01804,0.008 c 0.361747,0.16696 0.782862,0.34166 1.253653,0.5258 0.461062,0.20491 1.050575,0.48024 1.761424,0.8225 l 0.993756,0.47847 1.35881,-2.03784 -0.561849,-0.72185 c -0.294399,-0.37851 -0.488702,-0.65564 -0.727855,-0.97798 l 1.801231,0.0315 c 1.461606,0.0252 2.731946,0.1896 3.806776,0.47622 l 0.003,7.7e-4 0.003,7.7e-4 c 1.11509,0.29089 2.11577,0.70992 3.01658,1.25515 l 0.93442,0.56561 2.30224,-2.76945 c 0.0886,0.13007 0.13678,0.26688 0.23211,0.39585 0.52767,0.7139 1.13861,1.31517 1.83278,1.77795 l 1.19581,0.79771 0.64298,-1.28596 c 0.10923,-0.21845 0.30978,-0.53873 0.59865,-0.9239 0.28127,-0.37502 0.60067,-0.74188 0.95996,-1.10117 0.36925,-0.36925 0.73402,-0.69688 1.09291,-0.98399 l 0.004,-0.003 0.005,-0.003 c 0.347,-0.28194 0.63527,-0.44112 0.824,-0.50852 l 0.84203,-0.30046 v -2.3428 l -0.98324,-0.22685 c -0.19532,-0.0451 -0.30746,-0.10175 -0.39585,-0.15323 v -7.7e-4 c 0.002,-0.002 -0.0455,-0.0587 -0.11042,-0.25388 -0.0973,-0.33303 -0.19639,-0.86293 -0.27041,-1.54284 -0.006,-0.0832 -0.0115,-0.17038 -0.0165,-0.26065 h 4.28976 v 6.90598 l 0.70081,0.35078 c 0.40686,0.20343 0.92945,0.47713 1.56012,0.81874 0.62019,0.33594 1.22715,0.68502 1.82076,1.04634 l 0.80072,0.48749 0.70156,-0.62345 c 0.15666,-0.13925 0.44027,-0.34821 0.82776,-0.59039 0.3895,-0.24344 0.80678,-0.47738 1.25215,-0.70006 l 0.024,-0.012 0.024,-0.0135 c 0.45457,-0.25254 0.92249,-0.49307 1.40388,-0.72109 0.47188,-0.22352 0.91223,-0.40556 1.31675,-0.54834 l 0.84578,-0.29895 v -2.66054 l -1.20183,-0.0631 c -0.73205,-0.0385 -1.23,-0.26186 -1.71109,-0.73837 -0.36949,-0.3881 -0.63921,-1.0511 -0.63922,-2.22563 V 138.021 h 5.62378 c 0.002,0.12651 0.002,0.25147 0.002,0.37407 0,1.46487 -0.0938,2.63544 -0.25614,3.47027 l -0.002,0.0135 -0.002,0.0143 c -0.12748,0.74363 -0.36478,1.10077 -0.37557,1.12671 h 7.7e-4 7.7e-4 l -0.88259,2.19709 1.95747,0.0105 c 0.0533,-0.0106 0.10176,-0.0158 0.15023,-0.0158 h 0.10516 l 0.10365,-0.0165 c 0.092,-0.0154 0.18124,-0.0233 0.27041,-0.0233 0.45813,0 1.10945,0.0583 1.91917,0.18478 0.8133,0.12708 1.62736,0.29192 2.4427,0.49575 0.8159,0.20398 1.56115,0.42017 2.2384,0.64523 0.63961,0.23925 1.06183,0.48077 1.13798,0.54308 l 0.88859,0.7271 0.81198,-0.81198 c 0.50899,-0.50898 1.08415,-0.999 1.72763,-1.46923 l 0.0128,-0.009 0.012,-0.01 c 0.63892,-0.49147 1.29923,-0.91894 1.98151,-1.28445 0.69338,-0.37145 1.38061,-0.67806 2.06263,-0.92165 0.67031,-0.23939 1.28422,-0.38705 1.83954,-0.45369 l 1.33177,-0.15999 -0.23285,-1.32051 c -0.19204,-1.08821 -0.34519,-2.1906 -0.45819,-3.30651 h 3.42519 c 0.002,0.17527 0.003,0.35329 0.003,0.53331 0,0.25427 -0.0121,0.59131 -0.0376,0.99901 l -0.002,0.0391 v 0.0398 c 0,0.37097 -0.0123,0.77279 -0.0376,1.20333 l -0.002,0.0368 v 0.0375 c 0,0.39933 -0.0126,0.79858 -0.0376,1.19807 -0.0261,0.39118 -0.0524,0.74253 -0.0781,1.05159 l -0.0901,1.0854 1.05986,0.25389 c 1.15035,0.27508 2.26024,0.64911 3.3343,1.1237 1.08265,0.47837 1.96561,0.97325 2.64327,1.46397 l 0.33275,0.24111 h 1.24389 l 5.6005,-4.33557 1.62922,-4.97105 h 3.299 c 0.003,0.10963 0.004,0.22118 0.004,0.33426 0,1.04328 -0.026,2.08665 -0.0781,3.13 -0.0486,0.94287 -0.19607,1.68291 -0.39585,2.20234 l -0.65124,1.69232 1.81325,0.0315 c 1.46161,0.0252 2.73195,0.1896 3.80678,0.47622 l 0.003,7.7e-4 0.003,7.7e-4 c 1.11508,0.29089 2.11577,0.70992 3.01658,1.25515 l 0.93442,0.56561 2.30224,-2.76945 c 0.0886,0.13007 0.13677,0.26688 0.2321,0.39585 0.52767,0.7139 1.13862,1.31517 1.83278,1.77795 l 1.19657,0.79771 0.64222,-1.28596 c 0.10923,-0.21845 0.30978,-0.53873 0.59866,-0.9239 0.28127,-0.37502 0.60067,-0.74188 0.95996,-1.10117 0.36925,-0.36925 0.73402,-0.69688 1.0929,-0.98399 l 0.004,-0.003 0.005,-0.003 c 0.34699,-0.28194 0.63527,-0.44112 0.824,-0.50852 l 0.84203,-0.30046 v -2.3428 l -0.98324,-0.22685 c -0.19531,-0.0451 -0.30671,-0.10175 -0.3951,-0.15323 v -7.7e-4 -7.7e-4 c -0.004,-0.008 -0.0503,-0.0701 -0.11117,-0.25313 -0.0973,-0.33303 -0.19639,-0.86293 -0.27041,-1.54284 -0.0491,-0.72227 -0.0759,-1.71165 -0.0759,-2.96025 0,-1.91068 0.055,-3.35087 0.15172,-4.27849 0.11527,-0.8621 0.34651,-1.4712 0.61894,-1.86282 l 1.38661,-1.99278 h -2.42844 c -1.20657,0 -2.16438,-0.20213 -2.91066,-0.55058 -0.76387,-0.39619 -1.54858,-1.00787 -2.34056,-1.87184 l -0.1352,-0.14723 -0.007,-3.55514 c 0.46111,-0.4183 0.90554,-0.81972 1.33177,-1.20332 0.51224,-0.46102 0.97999,-0.85239 1.39862,-1.17253 l 0.018,-0.0143 0.018,-0.0143 c 0.43622,-0.35925 0.76785,-0.6103 0.93517,-0.72184 l 1.70809,-1.13873 -1.78246,-1.01855 c -0.14048,-0.0803 -0.40837,-0.2459 -0.74888,-0.4642 -0.33345,-0.25584 -0.68685,-0.5216 -1.06512,-0.79922 -0.34721,-0.27304 -0.68087,-0.5454 -1.00277,-0.81724 -0.27523,-0.2536 -0.46788,-0.46385 -0.54983,-0.57311 l -1.23187,-1.642 -0.9179,1.83579 c -0.21847,0.43696 -0.50791,0.95472 -0.86681,1.54434 l -0.0113,0.0173 -0.01,0.018 c -0.33222,0.58778 -0.69056,1.177 -1.07563,1.76743 l -0.004,0.006 -0.004,0.006 c -0.37055,0.58228 -0.72762,1.13755 -1.07113,1.66602 l -0.012,0.0195 -0.012,0.0195 c -0.32092,0.53488 -0.57547,0.96356 -0.76616,1.29046 l -0.55209,0.94568 0.85555,0.68429 c 0.35352,0.28282 0.58485,0.51792 0.66926,0.62645 l 0.0481,0.0624 0.0563,0.0563 c 0.26895,0.26896 0.61029,0.56441 1.0546,0.9254 l 0.88859,0.72185 0.80898,-0.80973 c 0.0503,-0.0503 0.1009,-0.10043 0.15173,-0.15098 l 0.004,1.95522 c -0.61076,0.30625 -1.48462,0.6194 -2.59744,0.89761 -1.25009,0.31252 -2.80169,0.48148 -4.64129,0.48148 h -0.43416 c -0.19185,-0.0407 -0.33896,-0.0398 -0.48449,-0.0398 h -1.59842 l 0.36355,1.55712 c 0.20014,0.85777 0.43149,1.58653 0.7271,2.2106 l 0.0113,0.024 0.0128,0.0233 c 0.31652,0.6014 0.68509,1.12212 1.14323,1.54209 l 0.0225,0.0203 0.0225,0.0195 c 0.44183,0.36819 0.95252,0.64686 1.50153,0.80372 l 0.0496,0.0143 0.0503,0.01 c 0.48955,0.0979 0.99931,0.14422 1.52632,0.14422 0.81487,0 1.71441,-0.15904 2.7657,-0.44318 0.42744,-0.11552 0.81975,-0.29461 1.23412,-0.43416 v 1.30699 c -0.20572,0.0803 -0.34623,0.15748 -0.60767,0.23736 -0.53897,0.14616 -1.14676,0.28344 -1.82678,0.40937 -0.67548,0.12509 -1.39483,0.22552 -2.15501,0.30196 -0.73554,0.0502 -1.45751,0.0759 -2.16479,0.0759 -0.64308,0 -1.22501,-0.0374 -1.74414,-0.10816 l -2.18432,-0.29745 0.83977,2.03784 c 0.0932,0.22631 0.1733,0.48979 0.23661,0.7917 h -2.54486 l 2.02583,-6.18263 -0.51228,-0.54833 c -0.14476,-0.15511 -0.30734,-0.45864 -0.38909,-1.02831 v -7.7e-4 h -7.7e-4 v -7.7e-4 c -0.0973,-0.70748 -0.14647,-1.45912 -0.14647,-2.25567 v -0.13521 l 1.84255,-2.76344 -3.40492,1.04709 c -0.99331,0.30563 -1.99869,0.55978 -3.01733,0.76391 -1.01924,0.17776 -2.02409,0.30546 -3.01357,0.38158 l -1.10042,0.0849 -0.16225,2.59969 0.77968,0.36731 c 0.15319,0.0721 0.2411,0.14227 0.36055,0.44092 l 0.01,0.0248 0.0113,0.024 c 0.1096,0.24357 0.24712,0.90558 0.24712,1.87485 0,0.71337 -0.05,1.57861 -0.15323,2.58467 -0.10208,0.96857 -0.255,1.9668 -0.46045,2.99404 l -0.004,0.015 -0.003,0.015 c -0.17827,1.01871 -0.40696,1.9956 -0.68504,2.93095 l -0.003,0.0105 -0.003,0.0113 c -0.123,0.44277 -0.27701,0.70226 -0.41763,1.05309 l -0.26741,-0.14422 c 0.008,-0.33764 0.0233,-0.68576 0.0233,-1.00802 v -1.71711 c 0,-2.91094 -0.13421,-5.45814 -0.40862,-7.65561 -0.25138,-2.22748 -0.68043,-3.91566 -1.53083,-5.15583 l -0.77217,-1.12671 -1.06662,0.8533 c -0.12299,0.0984 -0.44685,0.29327 -0.90962,0.50326 -0.49366,0.19667 -1.03947,0.39583 -1.6405,0.59641 -0.57593,0.17493 -1.16465,0.33801 -1.76668,0.48899 -0.60199,0.12487 -1.11145,0.21131 -1.50528,0.25764 l -1.11995,0.13145 v 2.84006 l 1.5451,0.31998 c 0.34344,0.69603 0.68262,1.63445 0.9562,2.93921 l 0.002,0.009 0.002,0.01 c 0.22565,0.99934 0.38247,2.18491 0.46345,3.54989 h -3.50782 c -0.0653,-1.02556 -0.0977,-2.06236 -0.0977,-3.11123 0,-2.28406 0.15668,-4.247 0.45745,-5.87616 l 0.33426,-1.80799 -1.80875,0.32899 c -0.23862,0.0434 -0.49367,0.0758 -0.76166,0.0992 h -1.24614 c -0.95106,0 -2.01136,-0.0979 -3.17581,-0.30046 -1.12738,-0.19606 -2.60844,-0.59206 -4.40619,-1.19131 l -0.74438,-0.24787 -0.55434,0.55509 c -1.1357,1.13569 -2.29703,2.06897 -3.48153,2.81001 -1.18107,0.71223 -2.20568,1.12071 -3.0301,1.26868 l -1.42266,0.25539 c 0.29183,-0.46178 0.60654,-0.88233 0.9532,-1.25065 l 0.34477,-0.36656 v -1.93118 h -5.62858 v -0.84653 c 0,-0.1925 0.0121,-0.58701 0.0383,-1.13723 v -0.002 -0.002 c 0.0255,-0.56202 0.0646,-1.13856 0.11568,-1.72837 0.0776,-0.61951 0.15486,-1.20124 0.2321,-1.74189 0.0727,-0.50858 0.16873,-0.86237 0.20205,-0.94569 l 1.29196,-3.23215 -3.0684,1.64199 c -1.10835,0.59283 -2.14348,1.07786 -3.10071,1.45571 -0.87897,0.34696 -1.8506,0.56038 -2.93169,0.63246 l -2.42393,0.16149 1.44144,1.80199 c -0.0125,-0.0153 -0.0212,-0.024 -0.0248,-0.0263 v -7.7e-4 h -7.7e-4 -7.7e-4 v 7.7e-4 7.7e-4 c 7.7e-4,0.0182 0.083,0.17729 0.12469,0.39961 l 0.002,0.007 0.002,0.008 c 0.0703,0.35131 0.13183,0.76714 0.18177,1.24163 l 7.7e-4,0.004 v 0.003 c 0.0507,0.45593 0.0889,0.91222 0.11418,1.36783 l 0.002,0.0391 0.005,0.0383 c 0.0505,0.42944 0.0713,0.74238 0.0713,0.84953 v 0.65275 c -0.80805,0.65836 -1.63585,1.18263 -2.50204,1.5173 l -0.0368,0.0143 0.34703,-0.49875 h -2.42844 c -1.20731,0 -2.16568,-0.20249 -2.91216,-0.55134 -0.76359,-0.3962 -1.54738,-1.00744 -2.33906,-1.87109 l -0.6933,-0.75565 -0.88409,0.51829 c -0.60801,0.35642 -1.58805,0.73277 -2.8994,1.06061 -1.25008,0.31252 -2.80168,0.48148 -4.64129,0.48148 h -0.43416 c -0.19185,-0.0407 -0.33895,-0.0398 -0.48448,-0.0398 h -1.598427 l 0.3628,1.55711 c 0.200145,0.85778 0.432247,1.58654 0.727857,2.21061 l 0.0113,0.024 0.0128,0.0233 c 0.31653,0.6014 0.68509,1.12212 1.14324,1.54209 l 0.0225,0.0203 0.0225,0.0195 c 0.44183,0.36819 0.95251,0.64686 1.50153,0.80372 l 0.0496,0.0143 0.0503,0.01 c 0.48954,0.0979 0.9993,0.14422 1.52631,0.14422 0.81488,0 1.7144,-0.15904 2.7657,-0.44318 0.42744,-0.11552 0.81976,-0.29461 1.23412,-0.43416 v 1.30699 c -0.20571,0.0803 -0.34623,0.15748 -0.60767,0.23736 -0.53897,0.14616 -1.14676,0.28344 -1.82677,0.40937 -0.67549,0.12509 -1.39483,0.22551 -2.15502,0.30196 -0.73553,0.0502 -1.4575,0.0759 -2.16478,0.0759 -0.64308,0 -1.22501,-0.0374 -1.74415,-0.10816 l -2.184314,-0.29745 0.839773,2.03784 c 0.09319,0.22632 0.173297,0.48978 0.236611,0.7917 H 96.351795 V 119.7162 c 0,-1.32018 0.09061,-2.46705 0.25914,-3.43646 0.182877,-0.90503 0.482706,-1.54385 0.844284,-1.97775 l -1.521059,-1.95822 c -1.068592,0.50885 -2.060298,0.89628 -2.969254,1.16651 l -0.0045,0.002 -0.0045,0.002 c -0.854372,0.26106 -1.646941,0.38383 -2.384118,0.38383 -0.608842,0 -1.092275,-0.0806 -1.45646,-0.20806 l -3.054885,-1.06963 1.514297,2.86034 c 0.217036,0.40996 0.393502,0.80072 0.531806,1.16953 0.132205,0.35254 0.231696,0.71525 0.298202,1.09215 l 0.006,0.0353 0.0083,0.0345 c 0.08644,0.36734 0.144214,0.78404 0.167505,1.24989 0.02531,0.50588 0.0383,1.08453 0.0383,1.73288 v 15.48474 h -9.543982 l 2.453224,-3.45298 2.930945,1.53157 0.65725,-0.7564 c 0.646023,-0.74292 1.154973,-1.63617 1.544341,-2.65452 l 0.0023,-0.005 0.0031,-0.006 c 0.38513,-1.03689 0.646027,-2.16037 0.78945,-3.36511 l 0.132951,-1.1222 -1.098917,-0.26215 c -1.077618,-0.25657 -2.057429,-0.53781 -2.93996,-0.83977 -0.872197,-0.32497 -1.525401,-0.63493 -1.905642,-0.87508 l -1.32501,-0.83602 -0.543074,1.46923 c -0.225873,0.61119 -0.48914,1.15279 -0.734616,1.72762 v -0.40186 l -1.382847,-2.30449 -0.912636,0.22759 c -0.831192,0.2078 -1.786252,0.42974 -2.859586,0.66551 -1.068834,0.20838 -2.056433,0.37801 -2.959493,0.50702 l -1.089152,0.15549 v 1.50829 h -2.384118 c -1.207311,0 -2.165682,-0.2025 -2.912166,-0.55134 -0.763594,-0.39621 -1.548122,-1.00744 -2.339802,-1.87109 l -0.69255,-0.75565 -0.884093,0.51829 c -0.608011,0.35642 -1.588049,0.73277 -2.899398,1.06061 -1.250081,0.31252 -2.802437,0.48148 -4.642042,0.48148 h -0.433406 c -0.191942,-0.0407 -0.338911,-0.0398 -0.484487,-0.0398 H 50.57222 l 0.363551,1.55711 c 0.200148,0.85778 0.432244,1.58654 0.727855,2.21061 l 0.01127,0.024 0.012,0.0233 c 0.316524,0.6014 0.685839,1.12212 1.143986,1.54209 l 0.02177,0.0203 0.02331,0.0195 c 0.441829,0.36818 0.952513,0.64686 1.501529,0.80372 l 0.04957,0.0143 0.05033,0.01 c 0.48954,0.0979 0.998552,0.14422 1.525566,0.14422 0.814871,0 1.715154,-0.15904 2.766447,-0.44317 0.427442,-0.11553 0.819755,-0.29462 1.234121,-0.43416 v 1.30698 c -0.20526,0.0802 -0.345406,0.15689 -0.606169,0.23661 -0.539467,0.14638 -1.148155,0.28404 -1.829025,0.41013 -0.675483,0.12509 -1.394081,0.22551 -2.154268,0.30195 -0.735789,0.0502 -1.457264,0.0759 -2.164786,0.0759 -0.643081,0 -1.225764,-0.0374 -1.744894,-0.10816 l -2.183792,-0.29707 0.839023,2.03784 c 0.09319,0.22632 0.173828,0.48979 0.237361,0.7917 h -2.958739 c -0.0047,-0.30592 -0.0068,-0.61098 -0.0068,-0.91564 0,-1.52154 0.03966,-2.96087 0.117929,-4.31755 0.07951,-1.37815 0.158987,-2.59555 0.238111,-3.65054 l 0.10591,-1.4159 -1.418901,0.0533 c -1.413968,0.0534 -2.669164,0.10648 -3.766215,0.16 -1.105324,0.0539 -2.106795,0.12174 -3.006812,0.20356 h -0.0023 -0.0015 c -0.883742,0.0829 -1.705439,0.19389 -2.467495,0.335 l -0.0045,7.7e-4 -0.0045,7.7e-4 c -0.261818,0.0504 -0.503224,0.12475 -0.758651,0.18253 -0.05753,-0.31511 -0.136111,-0.63096 -0.179522,-0.94569 -0.09862,-0.715 -0.147975,-1.42813 -0.147975,-2.1415 0,-0.84679 0.085,-1.66189 0.252383,-2.45096 l 7.69e-4,-0.005 7.69e-4,-0.004 c 0.07599,-0.36908 0.250536,-0.68864 0.371063,-1.03432 0.16091,0.074 0.282152,0.1617 0.452937,0.23286 0.666375,0.27766 1.333794,0.52822 2.002538,0.75114 l 0.02931,0.01 0.03003,0.008 c 0.682786,0.19118 1.32751,0.35586 1.936436,0.49425 l 0.03154,0.007 0.03231,0.005 c 0.654857,0.11389 1.201189,0.17877 1.694571,0.17877 1.462379,0 2.83613,-0.69198 3.915691,-1.83504 1.032899,-1.09365 1.837613,-2.43125 2.420172,-3.97503 l 0.883339,-2.3398 -2.409654,0.66927 c -0.438287,0.12175 -0.891007,0.23099 -1.355807,0.32975 -0.431749,0.0671 -0.876751,0.1029 -1.338532,0.1029 -0.749937,0 -1.468155,-0.0615 -2.159528,-0.17952 -0.711614,-0.14818 -1.381847,-0.33038 -2.010049,-0.54758 -0.08702,-0.0314 -0.158018,-0.0714 -0.243368,-0.10366 1.397272,-0.95027 2.707644,-1.83809 3.709127,-2.5058 l 0.0105,-0.008 c 1.230667,-0.80282 2.02194,-1.34378 2.517072,-1.76818 l 1.163515,-0.99751 -1.196566,-0.95695 c -0.37768,-0.30215 -0.656676,-0.54776 -0.813486,-0.70457 -0.231577,-0.23157 -0.544409,-0.53084 -0.949441,-0.90888 z m 25.42082,21.60052 v 0.80222 l 1.476743,0.63922 v 7.58576 H 67.73552 c -0.0039,-0.2995 -0.006,-0.61791 -0.006,-0.95545 0,-1.91235 0.05556,-3.35473 0.15248,-4.28225 0.115467,-0.85979 0.346209,-1.4681 0.618187,-1.85907 z m 47.603481,1.5496 v 1.76368 h 3.31327 v 5.71392 h -4.34384 c -0.004,-0.29954 -0.005,-0.61785 -0.005,-0.95545 0,-1.91068 0.055,-3.35088 0.15173,-4.27849 0.11527,-0.8621 0.34651,-1.4712 0.61894,-1.86283 z m 15.09415,0.88184 0.85254,1.06512 v 7.7e-4 c 0.004,0.0105 0.009,0.0225 0.0128,0.0353 0.0326,0.11008 0.0796,0.3102 0.12769,0.57462 0.0977,0.53717 0.18775,1.21105 0.26515,2.01081 l 0.002,0.0203 0.002,0.0203 c 0.10212,0.79144 0.17966,1.63954 0.23135,2.54411 v 0.002 7.7e-4 c 0.006,0.10857 0.0125,0.21578 0.018,0.32224 h -5.5668 v -5.22418 l 3.48078,0.43942 0.27341,-1.09216 c 0.055,-0.21997 0.19651,-0.477 0.30046,-0.71884 z m 0.82325,1.01329 h 7.7e-4 v 7.7e-4 h 7.6e-4 l 7.7e-4,7.7e-4 c 0.003,0.004 0.0118,0.0169 0.021,0.0368 -0.0143,-0.021 -0.0211,-0.0336 -0.0225,-0.0376 h -7.7e-4 z m 8.24376,0.45744 c 0.31279,0.0865 0.60112,0.17712 0.95544,0.25764 l 0.0135,0.003 0.0135,0.004 c 0.839,0.17161 1.70697,0.26524 2.5704,0.37106 l -0.0608,8.60205 c -0.52171,-0.12269 -1.00543,-0.27522 -1.56237,-0.37031 -0.68552,-0.11704 -1.27409,-0.19057 -1.89137,-0.27717 0.0251,-0.55732 0.0547,-1.11038 0.0706,-1.67655 0.0542,-1.00243 0.0819,-1.90248 0.0819,-2.70335 0,-1.00669 -0.0274,-2.00072 -0.0819,-2.98202 v -0.003 c -0.0208,-0.38465 -0.0764,-0.82254 -0.10892,-1.2251 z m -81.56476,6.65735 v 2.38788 c -0.333634,-0.0445 -0.730555,-0.14289 -1.031314,-0.15549 -0.190808,-0.008 -0.370962,-0.0266 -0.55885,-0.0375 l 0.03531,-1.80199 c 0.304955,-0.062 0.565868,-0.0874 0.906625,-0.17577 l 0.02104,-0.005 0.02104,-0.006 c 0.196022,-0.0581 0.407012,-0.14227 0.606169,-0.20582 z m 48.67986,7.7e-4 v 2.38712 c -0.33337,-0.0445 -0.73002,-0.14289 -1.03056,-0.15548 -0.19081,-0.008 -0.37096,-0.0266 -0.55885,-0.0375 l 0.0353,-1.80198 c 0.30496,-0.062 0.56587,-0.0874 0.90663,-0.17577 l 0.021,-0.005 0.021,-0.006 c 0.19573,-0.058 0.40655,-0.14161 0.60542,-0.20506 z m 75.92369,0 v 2.38712 c -0.33337,-0.0445 -0.73001,-0.14289 -1.03056,-0.15548 -0.1908,-0.008 -0.37096,-0.0266 -0.55885,-0.0375 l 0.0353,-1.80198 c 0.30495,-0.062 0.56587,-0.0874 0.90662,-0.17577 l 0.021,-0.005 0.021,-0.006 c 0.19572,-0.058 0.40656,-0.14161 0.60541,-0.20506 z m -88.294959,0.21107 h 2.907659 c 0.0027,0.10963 0.0045,0.22118 0.0045,0.33426 0,1.04328 -0.02596,2.08664 -0.07812,3.13 -0.04856,0.94286 -0.196072,1.68291 -0.395852,2.20234 l -0.647481,1.6818 c -0.204091,-0.27524 -0.459762,-0.60401 -0.622694,-0.83677 l -0.009,-0.012 -0.009,-0.0128 c -0.303402,-0.41176 -0.531756,-0.83438 -0.701565,-1.27394 -0.148111,-0.45107 -0.265893,-0.99065 -0.33651,-1.62621 -0.07205,-0.64843 -0.111918,-1.51407 -0.111918,-2.57416 z m -5.275255,12.44188 -0.79095,0.46195 c -0.276681,0.1614 -0.61328,0.34124 -1.001271,0.53556 -0.40214,0.17641 -0.814075,0.36419 -1.237878,0.56336 -0.417346,0.17185 -0.8348,0.34343 -1.25215,0.51528 -0.256667,0.0962 -0.464558,0.1631 -0.684286,0.23661 -0.248529,-0.0884 -0.489259,-0.17461 -0.769167,-0.27342 -0.424922,-0.17497 -0.849768,-0.35008 -1.274686,-0.52504 -0.0038,-0.002 -0.0075,-0.003 -0.01127,-0.005 -0.409931,-0.19237 -0.809956,-0.37431 -1.19957,-0.54533 -0.380818,-0.2028 -0.730162,-0.38461 -1.042582,-0.54082 l -0.739124,-0.36956 -0.62194,0.54458 c -0.424046,0.37103 -0.746423,0.6653 -0.989253,0.90812 -0.139289,0.13929 -0.41167,0.38823 -0.787946,0.71434 l -1.158258,1.00427 1.230367,0.91489 c 0.928988,0.6901 1.994762,1.42591 3.199104,2.21135 l 0.01277,0.008 0.01277,0.008 c 1.141255,1.09696 1.626672,1.55384 2.711613,2.37961 -0.355736,-0.005 0.06428,0.008 -0.358293,-0.009 -0.595551,-0.0499 -1.320945,-0.12451 -2.178304,-0.22534 -0.840619,-0.10189 -1.905554,-0.24284 -3.191593,-0.42289 l -0.607673,-0.0849 -0.433406,0.43341 c -0.749154,0.74916 -1.574778,1.37653 -2.484771,1.88986 l -0.006,0.003 -0.0053,0.005 c -0.893468,0.51727 -1.966702,0.99008 -3.219383,1.40764 l -1.45646,0.48598 1.445192,2.40816 0.947187,-0.37858 h 0.304963 c 0.861117,0 1.737437,0.0715 2.630493,0.21633 l 0.01804,0.003 0.01804,0.002 c 0.964255,0.12687 1.969233,0.27989 3.013574,0.45819 l 0.01654,0.002 0.01654,0.003 c 1.08984,0.15569 2.230703,0.3117 3.422943,0.46721 l 0.01427,0.002 0.01427,0.002 c 0.842957,0.0897 1.806835,0.10417 2.746165,0.13371 -0.426911,0.75354 -0.875478,1.62199 -1.270176,2.2076 -0.712206,1.03085 -1.400307,1.859 -2.045353,2.48101 -0.631821,0.60835 -1.228948,1.05186 -1.774942,1.34679 -0.550496,0.28529 -1.081895,0.47538 -1.600678,0.57913 l -2.197084,0.43867 1.548849,1.61946 c 0.40787,0.42641 0.510773,0.72224 0.510777,1.04633 0,0.29481 -0.14948,0.87556 -0.579883,1.64575 -0.447951,0.8016 -1.15815,1.86652 -2.119717,3.15704 l -7.892972,10.44009 2.923434,-0.38984 c 1.133922,-0.15119 2.133304,-0.25016 2.994794,-0.29971 0.854572,-0.0242 1.631334,-0.0353 2.339799,-0.036 0.593039,0.0726 1.141232,0.15464 1.630726,0.24788 l 0.0053,7.6e-4 0.0053,7.7e-4 c 0.571264,0.10387 1.154839,0.20793 1.751658,0.31173 l 0.0045,7.7e-4 0.0045,7.7e-4 c 0.655468,0.10924 1.357191,0.1886 2.103191,0.24261 0.777835,0.0826 1.662054,0.12244 2.668798,0.12244 1.006424,0 2.104802,-0.0685 3.297503,-0.20056 1.265411,-0.11113 2.517388,-0.35911 3.750439,-0.74137 1.277268,-0.36208 2.512615,-0.87521 3.699363,-1.53758 1.238205,-0.6911 2.327449,-1.59254 3.246427,-2.68383 l 0.371062,-0.44016 c -0.0031,0.0119 -0.0038,0.0265 -0.0068,0.0383 -0.135077,0.51588 -0.289091,0.87943 -0.397352,1.05535 l -1.155254,1.87635 h 2.203094 c 0.350767,0 0.869834,0.0526 1.518804,0.17276 l 0.004,7.7e-4 0.004,7.7e-4 c 0.66953,0.11956 1.35635,0.28801 2.05963,0.50627 l 0.0233,0.007 0.024,0.006 c 0.71866,0.19164 1.41073,0.43044 2.07841,0.71659 0.65629,0.28126 1.18183,0.57701 1.57514,0.86681 l 0.71884,0.52955 0.7271,-0.51903 c 0.25543,-0.18245 0.66146,-0.4058 1.18755,-0.63622 0.5842,-0.21822 1.19229,-0.42625 1.82828,-0.62194 l 0.0203,-0.006 0.0203,-0.007 c 0.61803,-0.21394 1.23251,-0.3789 1.84404,-0.49651 l 0.0225,-0.004 0.0218,-0.005 c 0.63649,-0.14688 1.17341,-0.24109 1.59467,-0.28543 l 1.57363,-0.16525 -0.54682,-1.48426 c -0.15089,-0.40953 -0.25445,-0.81196 -0.31924,-1.21008 -0.0387,-0.40169 -0.0643,-0.96255 -0.0691,-1.67805 h 2.97962 v 1.29872 c 0,0.6057 -0.10218,0.99756 -0.18027,1.15375 l -0.008,0.015 -0.007,0.015 c -0.0556,0.11907 -0.0854,0.15457 -0.0954,0.16224 l -7.7e-4,7.7e-4 h -7.7e-4 -7.7e-4 -7.7e-4 v -7.7e-4 -7.7e-4 l -0.75339,0.31247 v 2.63275 h 9.5883 v -2.6688 l -0.78344,-0.28994 c -0.0116,-0.021 -0.0366,-0.072 -0.0766,-0.18027 -0.0944,-0.25508 -0.18554,-0.77465 -0.18554,-1.50003 v -7.52915 l 2.80551,-1.2544 v 3.2945 0.0105 c 0.0257,1.46453 0.0383,2.9289 0.0383,4.39342 0,0.2094 -0.0231,0.66528 -0.0736,1.29646 -0.0508,0.63461 -0.11418,1.33543 -0.19079,2.10169 -0.0746,0.72092 -0.17377,1.4416 -0.2982,2.16329 l -7.7e-4,0.004 -7.7e-4,0.004 c -0.12326,0.73958 -0.25731,1.34043 -0.39059,1.7847 l -0.21107,0.70457 1.65326,1.65326 0.86907,-0.93141 c 0.33088,-0.35452 0.71708,-0.72921 1.1575,-1.1207 0.43597,-0.38753 0.89788,-0.76396 1.38511,-1.12971 0.50829,-0.36249 1.0008,-0.68702 1.47749,-0.97348 0.48147,-0.27434 0.94102,-0.48549 1.37383,-0.63697 l 1.01029,-0.35379 -0.21032,-1.05009 c -0.049,-0.24478 -0.0979,-0.50301 -0.14723,-0.77367 l -7.7e-4,-0.005 c -0.0405,-0.24404 -0.0766,-0.59122 -0.10065,-1.0238 -0.023,-0.41341 -0.0464,-0.94267 -0.0699,-1.5789 h 2.47576 c -0.0112,0.33505 -0.0253,0.66996 -0.0421,1.00502 -0.0471,0.91525 -0.19069,1.63285 -0.38459,2.137 l -0.63171,1.64274 1.75992,0.03 c 1.41817,0.0245 2.65047,0.18384 3.69336,0.46195 l 0.003,7.7e-4 0.003,7.6e-4 c 1.08194,0.28225 2.05241,0.68858 2.92644,1.2176 l 0.90662,0.54909 2.2339,-2.68758 c 0.0861,0.12635 0.13275,0.25931 0.22533,0.38458 0.51199,0.69269 1.10517,1.27634 1.7787,1.72537 l 1.16051,0.77367 0.62345,-1.24764 c 0.10598,-0.21197 0.30034,-0.52239 0.58063,-0.89611 0.27291,-0.36387 0.58281,-0.72026 0.93142,-1.06887 0.35828,-0.35828 0.71239,-0.67612 1.06061,-0.9547 l 0.004,-0.003 0.004,-0.003 c 0.33668,-0.27355 0.6161,-0.4281 0.79921,-0.4935 l 0.81724,-0.29144 v -2.27295 l -0.95395,-0.22009 c -0.1897,-0.0438 -0.29806,-0.0995 -0.38383,-0.14947 -0.003,-0.007 -0.0485,-0.0665 -0.10816,-0.24713 -0.0946,-0.32397 -0.19028,-0.83798 -0.26215,-1.50002 -0.0475,-0.70059 -0.0736,-1.65871 -0.0736,-2.86861 0,-1.85429 0.0533,-3.25153 0.14722,-4.15154 0.11186,-0.83623 0.33662,-1.42658 0.60091,-1.8065 l 1.34529,-1.93418 h -2.35632 c -1.17192,0 -2.10212,-0.19682 -2.82654,-0.53556 -0.74044,-0.38445 -1.50079,-0.97807 -2.26844,-1.81551 l -0.67227,-0.73311 -0.8578,0.50326 c -0.58994,0.34583 -1.5414,0.71172 -2.81377,1.02982 -1.21293,0.30323 -2.71891,0.46645 -4.50384,0.46645 h -0.42064 c -0.18606,-0.0394 -0.32828,-0.0383 -0.46946,-0.0383 h -1.55185 l 0.35228,1.51054 c 0.1942,0.83228 0.41925,1.53974 0.70608,2.14526 l 0.0113,0.0233 0.012,0.0225 c 0.30712,0.58352 0.66491,1.08878 1.10944,1.49627 l 0.0218,0.0195 0.0225,0.0188 c 0.4287,0.35725 0.92376,0.62823 1.45646,0.78044 l 0.0481,0.0135 0.0488,0.01 c 0.475,0.095 0.96915,0.13971 1.48049,0.13971 0.79065,0 1.66378,-0.15396 2.68383,-0.42965 0.41465,-0.11207 0.79535,-0.28602 1.19731,-0.42139 v 1.26793 c -0.19715,0.077 -0.3322,0.151 -0.58213,0.22759 -0.52458,0.1425 -1.11758,0.2769 -1.7802,0.39961 -0.65292,0.12091 -1.34768,0.21887 -2.08216,0.29294 -0.71659,0.0491 -1.41947,0.0744 -2.10845,0.0744 -0.62396,0 -1.18936,-0.0365 -1.69307,-0.10515 l -2.11896,-0.28919 0.81423,1.97775 c 0.13313,0.32331 0.23984,0.72475 0.30572,1.20783 l 7.7e-4,0.004 7.7e-4,0.004 c 0.0682,0.47722 0.10365,1.00076 0.10365,1.56914 0,0.0958 -2.8e-4,0.19183 -7.7e-4,0.28768 h -2.51481 v -1.2176 c 0,-1.33473 0.013,-2.44802 0.0383,-3.3343 0.0254,-0.88721 0.0507,-1.62893 0.0759,-2.23615 0.0487,-0.58166 0.0969,-1.04881 0.14272,-1.39712 0.0697,-0.36717 0.14914,-0.70942 0.23811,-1.0208 l 0.28618,-1.00202 -0.94043,-0.44768 c -0.51373,-0.24463 -0.95792,-0.47367 -1.33627,-0.68579 -0.38515,-0.24105 -0.75833,-0.48161 -1.1192,-0.72184 -0.32565,-0.233 -0.65483,-0.49058 -0.98625,-0.77443 -0.002,-0.001 -0.003,-0.002 -0.004,-0.004 -0.35054,-0.32566 -0.73404,-0.68538 -1.15826,-1.08464 l -0.8931,-0.84128 -0.84428,0.89085 c -0.90026,0.95027 -1.7682,1.76771 -2.59969,2.45247 -0.28237,0.23254 -0.65917,0.47037 -0.96897,0.70458 v -1.14099 l -1.34154,-2.23614 -0.88484,0.22083 c -0.80572,0.20143 -1.73225,0.41746 -2.77246,0.64598 -1.03815,0.20244 -1.99685,0.36672 -2.87386,0.492 l -1.05685,0.15098 v 2.30224 l 1.43317,0.61969 v 9.66492 h -2.95949 c 0.004,-0.0617 0.008,-0.12308 0.0135,-0.18478 l 0.14948,-1.79673 -1.72762,0.51453 c -1.33682,0.3982 -2.40296,0.91939 -3.15479,1.7464 l -0.0105,0.0113 -0.01,0.012 c -0.39069,0.45238 -0.66465,0.98335 -0.87958,1.54359 -0.10637,-0.0101 -0.17609,-0.0141 -0.29069,-0.0255 -0.49871,-0.0747 -1.00862,-0.14993 -1.53083,-0.2246 -0.51969,-0.0992 -1.01482,-0.19795 -1.48425,-0.2967 -0.0438,-0.01 -0.0589,-0.0202 -0.10065,-0.03 0.0304,-0.29708 0.054,-0.54604 0.0901,-0.88334 0.0444,-0.41473 0.0606,-0.84208 0.0886,-1.26417 1.23498,-0.19551 2.47592,-0.38665 3.76096,-0.54983 l 0.009,-0.002 0.01,-0.002 c 1.60317,-0.22902 3.17973,-0.40706 4.72918,-0.53406 l 1.62396,-0.13295 -0.57236,-1.52632 c -0.12926,-0.34469 -0.25803,-0.78509 -0.37783,-1.31224 -0.11945,-0.52558 -0.21643,-1.07943 -0.28919,-1.66152 -0.0752,-0.60173 -0.13761,-1.20272 -0.18778,-1.80424 v -0.004 c -0.0492,-0.61655 -0.0736,-1.17753 -0.0736,-1.67954 0,-0.65154 0.0381,-1.1743 0.0992,-1.54059 l 0.23135,-1.3851 -1.40388,-0.0473 c -1.49606,-0.0507 -3.00538,-0.13935 -4.52787,-0.2659 h -7.7e-4 -7.7e-4 -7.7e-4 l -7.7e-4,-7.7e-4 h -7.7e-4 c -1.52088,-0.15219 -2.79116,-0.32922 -3.79476,-0.52504 l -0.64297,-0.12544 -0.46271,0.46345 c -0.8498,0.8498 -1.69931,1.54038 -2.5426,2.07915 l -0.007,0.005 -0.006,0.005 c -0.76507,0.50276 -1.60968,0.84056 -2.570406,1.0193 l -1.353553,0.25163 0.401109,1.31675 c 0.154695,0.50827 0.330561,1.29864 0.506269,2.32778 l 0.0031,0.0165 0.0038,0.0173 c 0.182954,0.91477 0.285434,2.14888 0.285434,3.67006 0,0.58548 -0.02434,1.24248 -0.07436,1.96799 l -0.0015,0.0218 -7.7e-4,0.021 c -0.02361,0.68547 -0.08446,1.35592 -0.176516,2.0153 l -1.831279,0.29745 c -0.923035,0.14969 -1.762688,0.24813 -2.515568,0.2967 -0.759964,0.049 -1.533908,0.072 -2.320269,0.0729 -0.873236,-0.0486 -1.847178,-0.17907 -2.920431,-0.39811 -1.078503,-0.24575 -2.380365,-0.61994 -3.896162,-1.12521 l -1.620208,-0.54007 v 1.7081 c 0,0.31685 0.07318,0.6164 0.12394,0.92164 -0.369962,-0.0442 -0.873055,-0.0394 -1.171026,-0.10741 -0.327331,-0.0771 -0.693104,-0.20895 -1.034322,-0.30571 l 2.888133,-4.10123 0.0023,-0.003 c 0.403563,-0.58012 0.806133,-1.13354 1.207831,-1.66077 0.378864,-0.49726 0.748557,-0.9111 1.101924,-1.24239 l 7.69e-4,-7.7e-4 7.69e-4,-7.7e-4 c 0.364916,-0.34345 0.720452,-0.5927 1.062862,-0.7639 l 0.02404,-0.012 0.02331,-0.0128 c 0.271985,-0.1511 0.54259,-0.21354 0.864563,-0.22084 l 0.08037,0.027 h 0.470965 l 0.579129,-2.31726 c -0.289749,-0.15454 -0.456358,-0.28539 -0.548332,-0.36957 2e-5,-0.01 0,-0.0268 0,-0.0548 0,-0.10436 0.08422,-0.52487 0.347779,-1.10042 0.294445,-0.61027 0.795931,-1.4628 1.497772,-2.51557 l 0.0038,-0.005 0.0045,-0.006 c 0.703645,-1.0806 1.633714,-2.40707 2.785977,-3.96902 l 0.0031,-0.004 0.0031,-0.004 c 1.157158,-1.59431 2.574064,-3.51363 4.249948,-5.75673 l 1.731379,-2.31727 -2.870108,0.35905 c -1.024046,0.128 -1.970017,0.24237 -2.840057,0.34477 -0.869482,0.0768 -1.701474,0.15374 -2.496039,0.2306 -0.0043,3.8e-4 -0.0092,0.001 -0.0135,0.002 -0.776924,0.0502 -1.530081,0.10002 -2.258678,0.15022 -0.730605,0.0251 -0.720402,-0.033 -1.477493,-0.033 h -0.8886 l 0.110418,-0.0751 c 1.699032,-1.15579 2.404082,-1.98033 3.52435,-2.82053 l 0.006,-0.004 c 1.197558,-0.78114 1.964487,-1.30612 2.445713,-1.7186 l 1.12896,-0.96747 -1.160508,-0.92841 c -0.36645,-0.29317 -0.637297,-0.53139 -0.78945,-0.68354 -0.224693,-0.22469 -0.528648,-0.51504 -0.921646,-0.88184 z m 26.890044,36.41074 h 7.7e-4 l 7.7e-4,-7.7e-4 z m -11.67571,-11.98894 c 0.25575,0.0491 0.48596,0.12168 0.75039,0.163 l 0.021,0.003 0.021,0.004 c 0.44456,0.0539 0.77625,0.0543 1.16277,0.0819 0.0203,0.25248 0.0164,0.51136 0.0503,0.76015 l 0.004,0.027 0.005,0.0263 c 0.0315,0.17323 0.0728,0.32963 0.10666,0.49876 l -1.94996,0.48298 c -0.0209,-0.27691 -0.0277,-0.52198 -0.0548,-0.81348 l -0.002,-0.015 c -0.0224,-0.35587 -0.0791,-0.82004 -0.11492,-1.2176 z m 41.2293,6.78279 v 2.31727 c -0.32369,-0.0432 -0.70872,-0.1395 -1.00051,-0.15173 h -0.002 c -0.1844,-0.008 -0.35848,-0.0255 -0.54007,-0.036 l 0.0345,-1.7479 c 0.29589,-0.0602 0.54895,-0.0855 0.87958,-0.17126 l 0.0203,-0.005 0.0203,-0.006 c 0.19014,-0.0563 0.39495,-0.13741 0.58814,-0.19905 z"
       inkscape:label="text" /><path
       style="display:inline;opacity:1;baseline-shift:baseline;overflow:visible;fill:none;stroke:#000000;stroke-opacity:1;enable-background:accumulate;stop-color:#000000;stop-opacity:1;stroke-width:0.49137931;stroke-dasharray:none"
       d="m 268.82227,51.798828 c -0.54233,0.145464 -1.06613,0.443032 -1.42969,0.867188 -0.36356,0.424155 -0.55284,0.911417 -0.67969,1.396484 -0.046,0.175806 -0.26293,0.505227 -0.88867,0.857422 -0.62574,0.352195 -1.6013,0.685392 -2.8418,0.904297 -2.39893,0.42332 -6.68529,1.486231 -9.70312,2.40039 -2.95971,0.896558 -9.25965,2.795671 -13.99805,4.21875 -10.95697,3.290704 -24.53117,7.600646 -35.85938,11.330078 -5.6641,1.864717 -10.76469,3.583794 -14.70117,4.958985 -3.93648,1.375191 -6.62019,2.358063 -7.78711,2.93164 -2.46207,1.210184 -6.36351,3.510253 -8.84961,5.212891 -2.27202,1.55601 -8.75555,5.214851 -14.16796,7.964844 -5.07093,2.57648 -9.20438,5.132461 -12.125,7.468753 -1.46031,1.16814 -2.61936,2.27907 -3.45118,3.35351 -0.83182,1.07444 -1.38476,2.12871 -1.38476,3.28516 0,0.11736 -0.11057,0.60092 -0.34961,1.07812 -0.23904,0.47721 -0.58784,0.97652 -0.91797,1.30664 -1.40579,1.4058 -2.25579,3.54827 -2.50977,5.74415 -0.25397,2.19587 0.10282,4.56056 1.77539,6.07421 1.30648,1.18237 3.11387,1.73444 5.4004,1.73829 2.28652,0.004 5.12847,-0.49039 8.875,-1.44532 0.97192,-0.24773 1.62492,-0.24723 2.62109,0.10938 0.99616,0.35661 2.31881,1.14142 4.21875,2.50586 1.61956,1.16307 3.05878,1.91046 4.42383,2.20507 1.36505,0.29462 2.73493,0.0563 3.73047,-0.76757 1.99106,-1.64785 2.43091,-4.75675 2.25,-9.08008 -0.007,-0.16789 0.004,-0.26334 -0.002,-0.42774 0.0807,0.26528 0.14461,0.42339 0.22657,0.69922 0.94049,3.1654 1.94709,6.93541 2.63476,9.31055 0.42533,1.46906 0.92403,2.62912 1.50586,3.50781 0.58183,0.8787 1.25867,1.57805 2.27734,1.71485 0.50934,0.0684 1.06635,-0.0728 1.48243,-0.35547 0.41608,-0.28272 0.70943,-0.66798 0.93945,-1.09961 0.46003,-0.86327 0.70167,-1.96123 0.80469,-3.38281 0.22468,-3.10054 0.72957,-4.85024 1.18554,-5.71094 0.45598,-0.86071 0.68613,-0.85392 0.92188,-0.88477 0.0944,-0.0124 0.22238,-0.001 0.36133,0.0117 0.35142,0.6986 0.50154,1.05357 0.92578,1.86328 1.16692,2.22723 2.5504,4.73962 3.85937,6.84375 0.65449,1.05207 1.28971,2.0006 1.88477,2.77539 0.59506,0.7748 1.09488,1.37251 1.77344,1.78516 0.56937,0.34625 1.9414,1.59738 3.33789,3.21875 1.39649,1.62137 2.89984,3.64293 4.09179,5.65625 l 3.26172,5.50976 -3.0957,3.33204 0.26367,-0.21289 c -1.41979,0.8432 -2.57804,2.27485 -3.63672,3.67187 -1.05868,1.39702 -2.01376,2.80148 -2.55273,3.39063 -2.12068,2.31809 -1.54087,2.08373 -6.04688,4.32617 -3.80659,1.89437 -7.35382,4.36612 -11.01758,7.66015 -0.88798,0.79838 -1.58581,1.31558 -2.36132,1.9375 0.20165,-0.27246 0.27108,-0.42814 0.5,-0.72265 1.87674,-2.41453 4.61501,-5.52962 7.42773,-8.66407 2.91513,-3.24854 4.95619,-5.57444 5.97266,-7.87304 1.01647,-2.29861 0.72936,-4.67176 -0.85352,-6.93164 -1.51355,-2.16089 -3.97032,-4.54223 -6.80664,-6.34766 -2.83631,-1.80543 -6.06941,-3.07189 -9.17969,-2.60547 -3.32481,0.49859 -4.74535,0.26916 -6.26757,-0.80078 -1.59233,-1.11922 -4.47691,-2.33498 -6.85743,-2.97851 -1.9317,-0.5222 -5.34855,-2.37062 -7.07226,-3.85938 -2.06522,-1.78368 -5.83426,-4.20952 -8.66992,-5.60547 -2.74922,-1.35338 -5.20176,-1.86627 -7.29883,-1.58789 -2.09708,0.27838 -3.81524,1.42772 -4.78321,3.12305 -1.93593,3.39065 -1.15188,8.52483 2.3418,13.98633 1.0275,1.60624 2.04767,3.47343 2.8457,5.15625 0.79804,1.68281 1.37263,3.23489 1.51172,3.96484 0.37295,1.95718 1.5619,4.78746 3.01563,7.69727 1.45373,2.9098 3.14924,5.80279 4.63086,7.64843 0.17785,0.22156 0.59238,1.00468 0.92773,1.91602 0.33536,0.91133 0.63716,1.98296 0.81055,2.9375 1.01069,5.56413 5.35746,14.56267 9.40625,19.65039 1.65969,2.08559 3.43719,5.41913 3.75976,6.73828 0.49721,2.03335 1.95586,5.03452 3.40235,7.16602 0.54379,0.80132 1.55163,2.89081 2.57226,5.4082 1.02064,2.51739 2.10044,5.51326 2.98243,8.35156 3.54759,11.41629 7.39027,16.67873 16.98046,23.24805 2.95242,2.02242 6.98987,4.24369 10.64454,5.98437 1.82733,0.87035 3.5557,1.61872 5.01367,2.15821 1.45796,0.53948 2.54942,0.90234 3.56445,0.90234 0.92917,0 1.6799,-0.41123 2.53906,-0.97852 0.85917,-0.56728 1.7971,-1.34981 2.81836,-2.32421 1.88162,-1.79527 4.06732,-4.37177 6.28125,-7.26172 -0.30572,0.82425 -0.52725,1.50374 -0.90429,2.43164 -1.20244,2.95922 -1.88557,4.81184 -2.12305,6.42773 -0.23748,1.61589 0.0674,2.96116 0.66601,4.40625 1.6627,4.01409 6.68141,6.86112 14.6836,9.19336 2.42585,0.70702 6.99924,2.94497 9.74805,4.81055 6.05988,4.1127 12.36726,5.02624 16.79101,1.92773 0.97088,-0.68003 1.72676,-1.79299 2.52344,-3.18554 0.79668,-1.39255 1.54604,-3.04509 2.08398,-4.6875 1.24764,-3.80921 3.29511,-8.50384 5.08008,-11.98047 0.43319,-0.84373 0.73978,-1.28015 1.125,-1.94922 -0.22804,1.40891 -0.52258,3.00754 -0.93359,4.70898 -1.30273,5.39275 -1.99126,10.18335 -2.04297,14.03321 -0.0517,3.84985 0.41244,6.79314 2.02734,8.57812 1.549,1.71213 4.96912,3.79695 8.51172,5.69727 1.7713,0.95015 3.54525,1.81366 5.07227,2.45117 1.52702,0.63751 2.6754,1.0918 3.79297,1.0918 0.99716,0 2.14289,-0.32238 3.5625,-0.77344 1.4196,-0.45107 3.02886,-1.05472 4.55859,-1.69531 1.52972,-0.6406 2.97247,-1.31469 4.07617,-1.92383 0.0308,-0.017 0.0479,-0.0319 0.0781,-0.0488 -0.0174,0.0285 -0.0175,0.0417 -0.0352,0.0703 l -2.9668,4.79883 3.41407,2.73828 c 1.21083,0.97123 2.49434,1.63126 4.33593,1.87695 1.8416,0.2457 4.25477,0.17405 8.22657,-0.0488 5.14202,-0.28853 11.36474,-1.27008 14.3457,-2.36524 2.2944,-0.84294 9.43977,-1.9852 15.27344,-2.31055 9.50004,-0.5298 12.09748,-1.15179 18.77343,-4.46679 5.18682,-2.57555 10.27824,-4.78714 14.49024,-6.34571 4.212,-1.55856 7.66603,-2.43164 9.03906,-2.43164 2.08696,0 5.26232,-0.94507 7.75586,-2.1289 2.20127,-1.04508 5.91997,-2.27355 7.9043,-2.63086 3.01295,-0.54253 5.44731,-1.56498 7.05468,-2.98438 0.80369,-0.70969 1.41042,-1.53927 1.68555,-2.49218 0.27513,-0.95292 0.1651,-2.01618 -0.33008,-2.94141 -0.0342,-0.0639 -0.0161,-0.0367 -0.0449,-0.0957 0.27301,-0.0218 0.38506,-0.0542 0.89844,-0.043 0.89622,0.0196 2.14376,0.0922 3.79297,0.19726 5.97963,0.38076 8.64939,-0.13522 16.05664,-3.12109 3.70122,-1.49196 6.5478,-3.16122 8.52148,-4.78125 1.97369,-1.62003 3.22852,-3.11213 3.22852,-4.86719 0,-1.90634 -0.68721,-3.64966 -2.36719,-4.70508 -1.67997,-1.05542 -4.10433,-1.63957 -7.96094,-2.33789 -11.40976,-2.06598 -18.77413,-6.17552 -27.97656,-15.65039 -2.27639,-2.34378 -4.34922,-4.64237 -5.83594,-6.43359 -0.74336,-0.89561 -1.34066,-1.66761 -1.73242,-2.23242 -0.19588,-0.28241 -0.34133,-0.51427 -0.41797,-0.65821 -0.0766,-0.14393 -0.0326,-0.27534 -0.0312,0.082 -0.008,-1.99987 -1.38676,-3.63265 -2.77148,-5.20704 -1.38472,-1.57438 -2.9382,-3.06416 -3.61914,-3.95703 -0.37969,-0.49785 -0.68654,-0.8948 -1.04297,-1.23828 -0.35644,-0.34348 -0.84673,-0.68643 -1.46875,-0.72656 -0.62202,-0.0401 -1.13137,0.22036 -1.54492,0.50195 -0.41356,0.28159 -0.80411,0.62967 -1.29102,1.07031 -0.46299,0.41901 -0.777,0.64134 -0.91406,0.69727 -0.13706,0.0559 -0.12541,0.0793 -0.45117,-0.043 -0.65153,-0.24447 -2.21218,-1.38343 -5.02149,-3.67187 -2.91267,-2.37265 -5.11624,-4.80559 -6.41211,-6.91602 -1.29586,-2.11043 -1.58766,-3.81561 -1.22461,-4.76172 0.0205,-0.0533 0.39698,-0.58696 0.9668,-1.05273 0.56983,-0.46578 1.31599,-0.93379 2.02539,-1.2461 1.18409,-0.52128 2.62503,-1.71264 4.65039,-3.46289 2.02537,-1.75024 4.47624,-4.02066 7.03516,-6.5 5.11783,-4.95866 10.65427,-10.73892 14.03711,-14.86914 0.89374,-1.09119 1.70904,-1.91841 2.42578,-2.60547 -1.8e-4,8.1e-4 1.8e-4,0.001 0,0.002 -0.28679,1.27884 -0.806,3.00238 -1.44727,4.82422 -1.28253,3.64368 -3.1019,7.75099 -4.39258,9.65039 -1.23568,1.81846 -4.8063,5.54211 -7.66015,7.90039 -1.50912,1.24707 -2.87504,2.52939 -3.89258,3.62304 -0.50877,0.54683 -0.9294,1.04368 -1.25,1.4961 -0.3206,0.45241 -0.64062,0.71752 -0.64062,1.55273 0,0.59899 0.21734,1.23578 0.64062,1.67969 0.42328,0.44391 0.97032,0.67058 1.51758,0.77734 1.09452,0.21354 2.30915,0.0332 3.73047,-0.35937 2.84263,-0.78521 6.47319,-2.53977 10.21289,-5.04883 3.5316,-2.36945 6.02104,-3.83417 7.44726,-4.41992 0.11453,-0.047 0.0737,-0.0175 0.17383,-0.0508 -0.11127,0.1413 -0.17241,0.24459 -0.3164,0.4082 -0.6457,0.73368 -1.5905,1.65128 -2.66016,2.58594 -2.13931,1.86931 -4.81921,3.82731 -6.62891,4.74023 -3.76367,1.89864 -6.12765,3.62868 -6.73437,5.97461 -0.30336,1.17297 0.01,2.42604 0.74609,3.44531 0.73639,1.01928 1.84554,1.89655 3.3086,2.75977 1.75986,1.03835 2.89317,1.67362 4.16796,1.81445 1.2748,0.14083 2.38169,-0.3318 3.72461,-1.04492 2.12805,-1.13001 6.5002,-2.68363 10.39453,-3.79883 1.7432,-0.49918 3.31339,-0.87138 4.64258,-1.14258 -0.95426,0.42498 -1.99376,0.92265 -2.69726,0.9375 -1.25173,0.0264 -1.95616,0.77157 -2.81055,1.61719 -0.85439,0.84563 -1.73061,1.93598 -2.54297,3.09766 -0.81236,1.16168 -1.55469,2.39023 -2.11133,3.51367 -0.55663,1.12344 -0.97265,2.05188 -0.97265,3.07813 0,1.1516 0.75005,1.98195 1.62304,2.63281 0.873,0.65085 1.99666,1.19146 3.30469,1.6582 2.61606,0.93349 5.96883,1.54492 9.2832,1.54492 2.73656,0 3.7727,-0.009 5.36915,0.94922 1.59644,0.95791 3.83395,3.08711 8.21093,7.35938 3.16403,3.08832 5.52457,5.22337 7.32422,6.57031 0.89983,0.67347 1.65454,1.15326 2.36328,1.45898 0.70875,0.30572 1.44874,0.4851 2.20899,0.19336 1.11122,-0.42641 1.49616,-1.31449 1.93554,-2.29687 0.43938,-0.98239 0.7911,-2.15757 1.04102,-3.36524 0.24992,-1.20766 0.39661,-2.43681 0.37695,-3.5332 -0.0197,-1.09639 -0.0705,-2.10374 -0.90234,-2.93555 0.0792,0.0792 -0.18344,-0.28909 -0.34961,-0.74023 -0.16617,-0.45114 -0.31671,-1.01936 -0.39453,-1.5293 -0.22872,-1.49875 -1.05417,-3.72848 -1.93164,-5.44922 -0.75119,-1.47308 -2.25627,-6.75825 -3.61524,-12.89843 -1.35896,-6.14019 -2.67702,-13.29799 -3.4375,-19.11914 -0.6637,-5.08037 -2.29976,-12.20397 -3.72656,-16.13477 -4.14348,-11.41517 -17.89741,-30.59586 -33.13476,-46.53516 -7.42446,-7.76648 -17.39454,-18.253362 -22.14649,-23.296871 -5.46495,-5.800247 -10.606,-10.214432 -14.18555,-11.947266 -2.46077,-1.191238 -3.98519,-1.88013 -5.72461,-2.046875 -1.73941,-0.166745 -3.45828,0.201228 -6.34179,0.878906 -3.43819,0.808029 -8.09224,2.30192 -10.60938,3.425782 -2.65883,1.187105 -6.61847,1.828108 -12.13867,1.84375 -3.86819,0.01101 -5.93963,-0.05936 -7.31445,-0.433594 -1.37482,-0.374233 -2.24227,-1.032438 -3.98047,-2.558594 -0.86675,-0.761022 -2.43285,-2.635753 -4.06836,-4.908203 -1.63551,-2.27245 -3.38966,-4.973691 -4.84766,-7.521484 -1.49459,-2.611761 -3.07721,-5.185369 -4.43359,-7.246094 -1.35638,-2.060725 -2.34117,-3.505944 -3.19141,-4.275391 -0.84992,-0.769174 -2.14209,-1.435538 -3.83398,-2.203125 -1.69189,-0.767587 -3.74725,-1.572132 -5.91406,-2.330078 -4.33362,-1.515893 -9.0719,-2.845143 -12.29297,-3.246094 -1.86675,-0.232372 -3.07942,-0.341708 -4.16406,-0.05078 z m -19.74219,23.410156 c -0.43313,0.102943 -0.69437,0.31903 -0.91211,0.535157 -0.43549,0.432252 -0.72503,0.962248 -0.9707,1.607421 -0.15298,0.401768 -0.26489,0.718936 -0.3418,1.019532 -0.0385,0.150298 -0.0736,0.292533 -0.082,0.5 -0.008,0.207467 -0.0524,0.586319 0.3789,1.017578 0.21563,0.215629 0.54821,0.345308 0.79688,0.363281 0.24866,0.01797 0.42019,-0.03131 0.54687,-0.07617 0.25336,-0.08972 0.37292,-0.182487 0.49805,-0.27539 0.25027,-0.185808 0.47155,-0.397483 0.75391,-0.677735 0.47208,-0.468578 0.82914,-0.975557 1.04297,-1.537109 0.10691,-0.280776 0.18234,-0.580129 0.17187,-0.935547 -0.0105,-0.355418 -0.14023,-0.808202 -0.47656,-1.144531 -0.33633,-0.336337 -0.97312,-0.499427 -1.40625,-0.396485 z m -1.62891,5.603516 c -0.29986,-0.0645 -0.66231,0.01499 -0.87695,0.142578 -0.42929,0.255181 -0.46514,0.475708 -0.52149,0.607422 -0.11268,0.263428 -0.12339,0.397949 -0.15039,0.576172 -0.10799,0.712892 -0.14453,1.838497 -0.14453,3.492187 0,1.65369 0.0365,2.779296 0.14453,3.492188 0.027,0.178223 0.0377,0.310792 0.15039,0.574219 0.0564,0.131713 0.0922,0.352239 0.52149,0.607421 0.21464,0.127592 0.57709,0.209025 0.87695,0.144532 0.29987,-0.06449 0.4926,-0.216136 0.60742,-0.330078 0.45929,-0.455772 0.35031,-0.57663 0.39649,-0.75586 0.0462,-0.17923 0.0808,-0.364425 0.11523,-0.591797 0.27556,-1.818988 0.27556,-4.462268 0,-6.28125 -0.0344,-0.227371 -0.0691,-0.412567 -0.11523,-0.591797 -0.0462,-0.179229 0.0628,-0.30009 -0.39649,-0.755859 -0.11482,-0.113942 -0.30756,-0.265582 -0.60742,-0.330078 z m -31.04687,1.726562 c 0.54939,0.02463 2.26805,0.59648 3.14843,1.240235 0.81625,0.596855 0.96251,0.835803 0.98829,0.980469 0.0258,0.144665 -0.0717,0.716402 -0.59961,1.875 -0.39204,0.860418 -0.72525,1.417928 -0.94922,1.707031 -0.0622,-0.06729 -0.0761,-0.05278 -0.3086,-0.4375 -0.35109,-0.580999 -0.79302,-1.507303 -1.3125,-2.744141 -0.6965,-1.658332 -0.86551,-2.300462 -0.96679,-2.621094 z m -9.19336,5.609375 c 0.37974,2.075948 0.62007,7.068488 0.91406,16.369143 0.14086,4.45631 0.35385,8.83958 0.58398,12.32226 0.11507,1.74135 0.23566,3.25675 0.35352,4.45118 0.0815,0.82592 0.16645,1.28436 0.25195,1.79882 -0.29731,-0.52628 -0.56896,-0.93479 -0.89648,-1.63671 -0.95603,-2.04892 -1.53698,-4.07691 -1.93945,-7.85547 -0.40248,-3.77857 -0.60178,-9.2604 -0.75391,-17.984379 -0.0579,-3.317744 0.64438,-6.280539 1.35351,-7.292969 0.0548,-0.07821 0.0813,-0.100862 0.13282,-0.171875 z m 27.68359,0.521485 c 0.0266,0.761963 0.15958,0.890789 0.0625,1.935547 -0.36146,3.889892 0.3602,8.013189 2.38281,14.169921 1.80702,5.50039 2.84794,9.36073 3.22266,12.14453 0.37472,2.7838 0.11126,4.4117 -0.60742,5.76758 -0.61923,1.16824 -1.21089,1.91214 -1.59766,2.21289 -0.38677,0.30075 -0.3546,0.26577 -0.57226,0.16016 -0.21767,-0.10561 -0.72184,-0.57725 -1.25196,-1.53907 -0.53011,-0.96181 -1.1031,-2.36471 -1.6875,-4.17773 -0.24999,-0.77558 -0.54476,-3.23902 -0.68554,-6.25195 -0.14078,-3.01293 -0.18284,-6.67945 -0.13086,-10.31836 0.052,-3.638914 0.1968,-7.254431 0.42187,-10.158206 0.11254,-1.451887 0.24652,-2.726054 0.39453,-3.724609 0.0165,-0.111625 0.0314,-0.115521 0.0488,-0.220703 z m 56.63477,3.626953 c -0.0987,0.175511 -0.14427,0.274991 -0.25196,0.462891 -1.0397,1.814197 -2.48496,4.182936 -4.07422,6.646484 -2.67418,4.14533 -4.31836,6.38603 -5.52148,7.81836 0.16116,-0.56111 0.16488,-0.87633 0.48047,-1.60938 0.62897,-1.46094 1.5236,-3.17282 2.53516,-4.87109 2.02311,-3.396533 4.61039,-6.78669 6.20117,-8.029296 0.25471,-0.198967 0.39132,-0.246048 0.63086,-0.417969 z m -96.69141,10.517535 c 0.0672,0.55382 0.13551,1.18406 0.19727,2.03125 0.14858,2.03823 0.26703,4.78891 0.31836,7.73243 0.0515,2.95341 0.0639,5.6386 0.043,7.57421 -2.1e-4,0.02 -0.002,0.027 -0.002,0.0469 -0.51891,-0.77239 -1.05968,-2.61224 -1.31836,-4.79883 -0.26252,-2.21913 -0.30506,-4.79708 -0.15625,-7.125 0.14558,-2.27747 0.50333,-4.30007 0.91797,-5.46094 z m 160.46484,0.45508 c -0.0234,-0.004 0.0569,-0.0161 0.25,0.3086 0.38627,0.64929 0.79835,2.40143 0.8086,4.85937 0.004,0.90042 -0.59765,3.2467 -1.64453,5.99609 -1.04689,2.7494 -2.50508,6.00502 -4.10352,9.21485 -1.59844,3.20982 -3.33844,6.37847 -4.94531,8.95703 -1.60687,2.57856 -3.14919,4.59631 -4.03516,5.3418 -0.59058,0.49694 -1.13349,0.87254 -1.68359,1.26953 0.58884,-1.58785 1.49749,-3.74801 2.62695,-6.15821 2.37505,-5.06823 4.68376,-11.15956 5.23047,-14.08593 0.45201,-2.41949 1.71177,-5.93967 3.13281,-9.01563 0.71053,-1.53798 1.46117,-2.97191 2.16016,-4.11523 0.69899,-1.14332 1.38823,-2.00673 1.75195,-2.3086 0.35022,-0.29065 0.47456,-0.26003 0.45117,-0.26367 z m -132.48242,1.51367 c 0.0993,0.20557 0.2149,0.45942 0.38477,0.91602 0.1264,0.33975 0.32099,1.63477 0.35547,3.12305 0.0345,1.48827 -0.0378,3.24566 -0.22461,4.86523 -0.33238,2.88219 -0.4549,4.75964 0.0918,6.9043 0.5467,2.14465 1.68818,4.42694 3.76758,8.42382 2.57895,4.95704 4.56233,8.29876 6.38672,10.49415 1.82439,2.19538 3.65465,3.32031 5.61524,3.32031 3.61847,0 6.68701,-2.09994 8.80468,-5.69531 2.11768,-3.59538 3.4544,-8.69815 4.05469,-15.20899 0.56226,-6.0983 1.60786,-10.11485 3.62305,-14.07617 0.7665,-1.50673 1.28201,-2.20269 1.80468,-2.95117 -0.0287,0.20412 -0.023,0.32031 -0.0645,0.55273 -0.26877,1.50785 -0.80877,3.59193 -1.64648,6.15821 -3.20819,9.82803 -4.93358,19.42142 -4.94532,27.6621 -0.004,2.78236 -0.0663,4.34379 0.66211,5.71485 0.36422,0.68553 0.94166,1.21139 1.59961,1.60937 0.65796,0.39798 1.41464,0.71755 2.3711,1.11719 1.66715,0.69657 2.91931,1.11057 4.20117,1.16016 1.28186,0.0496 2.47247,-0.29183 3.89453,-0.88086 1.59386,-0.6602 3.43607,-2.01491 5.52734,-3.82227 2.09128,-1.80735 4.38587,-4.06843 6.65039,-6.52148 4.52906,-4.90612 8.91762,-10.53525 11.20118,-14.88086 0.72584,-1.38128 1.24373,-2.28809 1.79101,-3.26172 -0.25631,1.23969 -0.53404,2.55144 -0.69922,3.42383 -0.16115,0.85118 -1.11864,2.97696 -3.12304,6.29883 -2.00441,3.32186 -5.03532,7.92651 -9.31055,14.16992 -1.86194,2.7191 -2.89028,4.24667 -3.33594,5.53515 -0.22283,0.64424 -0.30415,1.39686 0.0566,2.04493 0.36079,0.64807 0.93973,0.91806 1.44336,1.11132 0.945,0.36264 1.94689,0.31419 3.21289,0.20899 1.26601,-0.10521 2.70366,-0.34932 4.07032,-0.71485 1.25869,-0.33664 2.63175,-0.6455 3.80859,-0.86718 1.17684,-0.22168 2.21696,-0.34766 2.55273,-0.34766 1.91223,0 3.65059,-1.09918 5.0586,-3.20312 1.408,-2.10395 2.72542,-5.25983 4.35547,-9.98438 0.68378,-1.98189 1.35505,-3.75024 1.97461,-5.33398 -0.2496,1.00693 -0.56719,1.98297 -0.93555,2.69531 -1.03261,1.99686 -2.15656,6.12665 -2.77149,9.71484 -0.59253,3.4575 -1.42155,7.47222 -1.7539,8.61914 -0.29639,1.02278 -0.35498,1.99271 0.01,2.86328 0.36474,0.87058 1.19089,1.48772 2.08594,1.72071 1.79011,0.46598 3.97054,-0.0779 6.69531,-1.30664 2.11635,-0.95434 3.10905,-1.28686 3.47461,-1.25586 0.18278,0.0155 0.32961,0.0616 0.67383,0.31054 0.34422,0.24893 0.82951,0.69386 1.49219,1.31641 l 3.48828,3.2793 3.41602,-3.20899 c 0.80292,-0.75431 1.57414,-1.66251 2.20312,-2.60937 -0.10739,1.32864 -0.17651,2.66021 -0.0723,3.81445 0.12367,1.36937 0.32157,2.53562 1.0879,3.45899 1.07207,1.29177 2.7783,2.03515 4.46875,2.03515 0.27007,0 1.01877,0.18893 1.77148,0.5625 0.75271,0.37357 1.54588,0.90907 2.125,1.45313 0.76131,0.71521 1.36395,1.27367 2.08203,1.64843 0.35904,0.18739 0.77414,0.33337 1.24609,0.32618 0.47196,-0.007 0.95486,-0.19904 1.3086,-0.47461 0.70748,-0.55115 1.07579,-1.30068 1.51758,-2.32813 0.44179,-1.02745 0.90961,-2.36542 1.5,-4.10937 0.759,-2.24202 2.70406,-5.15695 4.78515,-7.40235 1.04055,-1.1227 2.11626,-2.08658 3.05664,-2.74023 0.70236,-0.4882 1.13509,-0.58951 1.53125,-0.70117 -0.0638,0.52772 -0.24257,1.31904 -0.66992,2.35351 -0.95834,2.31982 -2.7695,5.40754 -4.93359,8.06446 -3.27183,4.01691 -5.10728,6.78813 -4.7793,9.6289 0.16399,1.42039 0.93231,2.68052 2.0918,3.8086 1.15948,1.12807 2.72772,2.18893 4.74219,3.3789 1.63469,0.96564 2.65229,2.30113 3.13476,3.99219 0.48248,1.69106 0.40242,3.77135 -0.375,6.12695 -1.61032,4.87932 -4.48997,7.10764 -10.39648,7.91992 -2.67449,0.36781 -6.32512,1.48297 -9.4043,2.67579 -1.53959,0.5964 -2.92272,1.20887 -3.97266,1.7832 -0.52497,0.28716 -0.96542,0.56003 -1.33398,0.86133 -0.36856,0.30129 -0.85547,0.57354 -0.85547,1.49023 0,0.69685 0.21538,0.79352 0.36719,1.01758 0.15181,0.22406 0.3303,0.44294 0.54101,0.67969 0.42142,0.47349 0.96799,1.00592 1.57422,1.52929 0.80636,0.69615 1.95797,3.29349 2.39258,6.69532 0.0377,0.29492 0.0397,0.46918 0.0723,0.75195 -1.14845,-2.39367 -3.6116,-6.54498 -5.72266,-9.63477 -1.52094,-2.22608 -2.73213,-3.75336 -4.01758,-4.83984 -1.28544,-1.08648 -2.6651,-1.68314 -4.21875,-1.97461 -2.55263,-0.47887 -6.84662,-0.32788 -10.98437,0.0898 -2.06888,0.20887 -4.07248,0.49207 -5.7461,0.82813 -1.67362,0.33606 -2.95216,0.64928 -3.89843,1.24023 -1.07934,0.67406 -1.66278,0.71354 -2.60938,0.1875 -0.9466,-0.52603 -2.21061,-1.88848 -3.68164,-4.21875 -1.69021,-2.67747 -3.69588,-4.57485 -6.4707,-5.69531 -2.77483,-1.12046 -6.2301,-1.50195 -10.98633,-1.50195 -3.22536,0 -4.87253,-0.13981 -5.22266,-0.2461 0.017,-0.14301 0.035,-0.34288 0.1543,-0.81836 0.15023,-0.59856 0.2535,-1.15214 0.21484,-1.74218 -0.0387,-0.59004 -0.27123,-1.21326 -0.66797,-1.68946 -0.79347,-0.9524 -1.94295,-1.42719 -3.74218,-2.14062 -2.34522,-0.9299 -5.75255,-2.00204 -7.80664,-2.44531 -1.25642,-0.27115 -1.94205,-0.58838 -2.20899,-0.82813 -0.26694,-0.23975 -0.35351,-0.42403 -0.35351,-1.1543 0,-1.53507 -0.87593,-2.92197 -2.0586,-4.46289 -1.18267,-1.54092 -2.76209,-3.1617 -4.48242,-4.66406 -1.72033,-1.50236 -3.57762,-2.88179 -5.33203,-3.91015 -1.75441,-1.02837 -3.35529,-1.75402 -4.89453,-1.76563 -1.99044,-0.015 -2.89543,-0.4924 -3.01563,-0.66992 -0.0601,-0.0888 -0.10716,-0.18086 -0.0254,-0.55469 0.0818,-0.37383 0.33766,-0.96188 0.81055,-1.68359 0.46834,-0.71478 0.84317,-1.27622 1.11328,-1.87696 0.27011,-0.60073 0.41384,-1.32575 0.24805,-2.01757 -0.33158,-1.38366 -1.3459,-2.25304 -3.04102,-4.00196 -1.00895,-1.04097 -1.74126,-2.01711 -2.14258,-2.77148 -0.40132,-0.75438 -0.3668,-1.2288 -0.3789,-1.19727 0.26347,-0.68661 0.31233,-1.40024 0.17187,-2.07031 -0.14045,-0.67007 -0.48163,-1.34628 -1.16015,-1.76562 -0.3322,-0.20531 -0.45003,-0.38391 -0.52149,-0.64258 -0.0715,-0.25868 -0.0696,-0.65039 0.10742,-1.18946 0.35403,-1.07812 1.42764,-2.63291 3.20899,-4.2539 1.08397,-0.98639 2.06233,-2.03376 2.79687,-2.9668 0.36728,-0.46652 0.67257,-0.90217 0.90821,-1.31641 0.23563,-0.41423 0.45312,-0.74814 0.45312,-1.38476 0,-0.52014 -0.10705,-0.8507 -0.25586,-1.44922 -0.1488,-0.59852 -0.3567,-1.34781 -0.61328,-2.21094 -0.51315,-1.72624 -1.21634,-3.90172 -1.99023,-6.1289 -2.0754,-5.97285 -3.13334,-9.56941 -3.3086,-11.67969 -0.0876,-1.05514 0.0299,-1.69469 0.25391,-2.16797 0.22405,-0.47328 0.58592,-0.8581 1.24023,-1.31641 0.55527,-0.38892 0.95523,-0.65045 1.22461,-0.80078 z m 115.22852,1.82618 c -0.28421,0.94261 -0.48983,1.70817 -1.21485,3.64843 -0.46523,1.24505 -0.84179,1.59731 -0.95507,1.76953 -0.0657,-0.11493 -0.0837,-0.0988 -0.15821,-0.29296 0.0631,0.16438 -8e-5,-0.45674 0.24219,-1.20313 0.24227,-0.74639 0.65916,-1.66841 1.14258,-2.5332 0.30112,-0.53869 0.6228,-0.9409 0.94336,-1.38867 z m -24.20313,5.33789 c -0.20213,0.41115 -0.27286,0.64916 -0.56445,1.16796 -1.42861,2.54187 -2.36937,3.67503 -2.98828,4.34766 0.0101,-1.20636 0.96788,-3.23933 2.46094,-4.62305 0.4711,-0.4366 0.71594,-0.58254 1.09179,-0.89257 z m -46.95898,7.36914 c 0.003,0.0136 0.003,0.007 0.006,0.0215 0.10414,0.50926 0.1244,1.43301 0.006,2.49805 -0.23709,2.13008 -0.99144,4.87445 -2.04883,6.8789 -0.78528,1.48861 -1.37053,2.51192 -1.86719,3.31055 -0.039,-0.62764 -0.0898,-1.13406 -0.0898,-2.12109 0,-2.57835 0.69655,-5.44775 1.66797,-7.57617 0.48571,-1.06422 1.04339,-1.94246 1.55078,-2.49415 0.37445,-0.40714 0.57848,-0.44689 0.77539,-0.51757 z m 51.33789,6.64648 c -1.39243,3.17191 -3.15491,6.81457 -4.70703,9.41406 -0.40728,0.68213 -0.63498,0.84156 -1.00781,1.37891 0.1419,-0.3274 0.22351,-0.57039 0.38671,-0.92578 0.9738,-2.12053 2.29796,-4.68316 3.6543,-7.11328 0.59063,-1.05822 1.09689,-1.79217 1.67383,-2.75391 z m 10.28711,3.24219 c -0.12198,0.33047 -0.15476,0.53958 -0.32617,0.92773 -0.64056,1.45054 -1.87997,3.46671 -3.09766,5.4375 0.44246,-0.8914 0.92434,-1.92317 1.32617,-2.69726 0.93766,-1.80632 1.69688,-3.09106 2.09766,-3.66797 z m 41.63476,6.81054 c -0.0796,0.008 -0.009,-0.0336 0.25,0.18165 0.45334,0.37623 0.85797,1.31828 0.92188,2.75195 0.0639,1.43367 -0.1927,3.26636 -0.72461,5.1582 -1.06383,3.78368 -3.26728,7.81238 -5.69141,9.81055 -2.48916,2.05178 -4.46917,4.97434 -5.24023,7.83789 -0.5718,2.12349 -2.48936,5.09191 -4.54688,6.89844 -0.65223,0.57266 -0.98333,0.7718 -1.49609,1.17773 0.40077,-0.62883 0.64132,-1.08598 1.23828,-1.91601 2.65533,-3.69208 6.26189,-9.93512 9.2461,-15.64844 1.4921,-2.85666 2.82354,-5.5733 3.79101,-7.76953 0.48373,-1.09812 0.87566,-2.06427 1.15625,-2.8711 0.2806,-0.80682 0.47461,-1.38444 0.47461,-2.0625 0,-1.8101 0.35307,-3.07563 0.59766,-3.44726 0.12229,-0.18582 0.10303,-0.10993 0.0234,-0.10157 z m -206.06213,29.80418 c -0.57702,0.0695 -0.87852,0.26231 -1.39062,0.5293 -0.5121,0.26698 -1.14971,0.63429 -1.96485,1.11523 -2.3739,1.40064 -3.00028,2.03877 -4.61931,3.4407 -0.62434,0.54062 -0.72726,1.25728 -1.26687,1.77112 -0.17957,0.171 -0.25023,1.15807 1.824,0.48468 0.85742,-0.27835 1.82581,-1.08865 2.73045,-1.83612 1.8093,-1.49494 2.14187,-1.75864 4.39194,-3.51539 0.38838,-0.30322 1.73631,-1.38301 1.84145,-1.88337 0.0317,-0.99704 -0.71012,-0.46305 -1.54619,-0.10615 z m 49.93909,4.79543 c -0.63766,0.76678 -1.56923,1.73064 -2.78907,2.82813 -2.8543,2.56802 -7.81387,8.03196 -11.21875,12.33008 -2.03889,2.57378 -3.78466,4.58138 -5.1621,5.98437 -0.66442,0.67675 -0.84876,0.72192 -1.32618,1.10547 0.29921,-0.8479 0.50028,-1.56196 1.26758,-3.06055 0.43559,-0.85072 1.62496,-2.46479 3.17969,-4.28711 1.55473,-1.82231 3.48601,-3.90377 5.48242,-5.92187 3.99283,-4.0362 8.42646,-7.89311 10.15625,-8.8125 0.22002,-0.11694 0.21741,-0.0767 0.41016,-0.16602 z m 152.85547,0.61329 c -0.1209,0.37995 -0.18725,0.69925 -0.57422,1.44726 -0.56915,1.10015 -1.37244,2.40311 -2.24805,3.59375 -0.89192,1.21283 -1.7863,2.30425 -2.47656,3.05469 -0.32478,0.35309 -0.59423,0.61179 -0.78321,0.77539 -2.0499,-0.39001 -4.31204,-0.94097 -6.06445,-1.48047 -0.51786,-0.15943 -0.83613,-0.29136 -1.24414,-0.4375 0.60607,-0.28806 1.24236,-0.58932 2.05274,-0.87695 2.41365,-0.85667 6.2583,-2.87039 8.8789,-4.61914 1.41646,-0.94522 1.91631,-1.17566 2.45899,-1.45703 z m -133.95704,6.97265 c -0.64935,-0.008 -1.15058,0.19937 -1.75976,0.49805 -0.60918,0.29867 -1.28354,0.72119 -2.01367,1.27344 -0.45158,0.34155 -0.80322,0.62012 -1.08985,0.88476 -0.28662,0.26465 -0.58926,0.41173 -0.73632,1.11524 -0.0735,0.35175 0.0649,0.91932 0.33984,1.20898 0.27497,0.28966 0.52975,0.36607 0.72851,0.42188 0.39753,0.11162 0.71023,0.11321 1.11329,0.12109 1.57111,0.0308 3.02346,-0.79546 4.03125,-2.00977 l 0.27343,-0.33007 v -0.1836 c 0.28451,-0.38531 0.59836,-0.73514 0.66797,-1.25781 0.049,-0.36812 -0.0477,-0.92719 -0.41797,-1.29492 -0.37024,-0.36773 -0.81204,-0.44324 -1.13672,-0.44727 z m -47.16406,0.95508 c -1.67452,1.93479 -3.59321,4.24059 -4.75,5.99023 -1.28252,1.93983 -4.38202,5.72502 -6.72656,8.1836 -1.17865,1.23599 -2.34667,2.36256 -3.25586,3.16015 -0.12457,0.10929 -0.19258,0.15373 -0.30664,0.25 0.30465,-0.65284 0.65667,-1.3926 1.39258,-2.05859 1.51043,-1.36692 3.17453,-3.96499 4.12109,-6.23047 0.84009,-2.01062 2.17489,-4.09616 3.48633,-5.62109 0.65572,-0.76247 1.309,-1.38621 1.85156,-1.78516 0.54256,-0.39894 0.98607,-0.51562 1.00781,-0.51562 0.89714,0 1.47228,-0.34725 2.27149,-0.77539 0.29217,-0.15652 0.60273,-0.40704 0.9082,-0.59766 z m 29.75977,11.66406 c -0.30713,0.71926 -0.59511,1.42818 -1.12891,2.35547 -1.49606,2.59889 -3.75771,5.74133 -6.0957,8.25586 -2.94176,3.16388 -6.38044,7.47732 -7.83399,9.89258 -0.62995,1.04676 -1.43216,2.13666 -2.1875,3.00976 -0.75533,0.87311 -1.54194,1.54186 -1.78125,1.66993 -0.54124,0.28966 -0.86795,0.42334 -1.19726,0.56054 0.0483,-0.31089 0.0763,-0.57089 0.20312,-1.07617 0.0544,-0.21662 0.44731,-1.06143 1.08399,-2.07812 0.63667,-1.0167 1.51066,-2.27574 2.54101,-3.67188 2.06072,-2.79228 4.74284,-6.13529 7.43164,-9.30078 2.68881,-3.16549 5.39027,-6.15991 7.47461,-8.25 0.60842,-0.6101 1.00858,-0.93355 1.49024,-1.36719 z m 14.06836,4.78321 c -0.51811,0.75312 -0.87217,1.35304 -1.54883,2.23242 -2.08319,2.70726 -4.64459,5.4295 -6.63281,7.21289 -0.14807,0.13281 -0.2077,0.14936 -0.34961,0.27148 0.12915,-0.20305 0.19374,-0.35335 0.33984,-0.56836 1.05012,-1.54538 2.51315,-3.36402 4.06055,-5.08203 1.39785,-1.55197 2.83698,-2.93971 4.13086,-4.0664 z m 28.43554,8.37304 c -0.1227,0.19936 -0.22794,0.38477 -0.41211,0.63281 -0.55697,0.75019 -1.35974,1.65421 -2.23242,2.47657 -5.70664,5.37759 -15.29945,17.7705 -20.54297,26.47265 -2.25305,3.73918 -4.02189,6.138 -5.14257,7.27539 0.0815,-0.32904 0.12214,-0.60031 0.41211,-1.29882 0.42298,-1.01895 1.05097,-2.32439 1.82617,-3.81055 1.55039,-2.97233 3.68901,-6.67035 5.99023,-10.39649 2.30123,-3.72613 4.7678,-7.48432 6.97461,-10.59375 2.20681,-3.10942 4.20409,-5.60041 5.3418,-6.63085 1.7743,-1.60702 4.22376,-3.01845 6.11133,-3.72657 0.738,-0.27686 1.24106,-0.34679 1.67382,-0.40039 z m 94.60743,0.24805 c -0.11158,0 0.18976,0.0464 0.59375,0.33203 0.40399,0.28559 0.92552,0.75197 1.49023,1.33984 1.12941,1.17574 2.44138,2.84121 3.66602,4.62891 1.22464,1.7877 2.36755,3.70245 3.1875,5.38086 0.81994,1.67841 1.27343,3.19563 1.27343,3.77148 0,0.15314 -0.039,0.22071 -0.0684,0.33008 -0.007,-0.006 -0.004,1.3e-4 -0.0117,-0.006 -0.21783,-0.1645 -0.55251,-0.51196 -0.9629,-1.08398 -0.82077,-1.14404 -1.94002,-3.15299 -3.49414,-6.25 -0.77365,-1.54175 -1.66561,-3.092 -2.49609,-4.37695 -0.83048,-1.28496 -1.50022,-2.24979 -2.24414,-2.86719 -0.76072,-0.63134 -0.89636,-1.0218 -0.98828,-1.19336 0.0376,-0.002 0.0103,-0.006 0.0547,-0.006 z m -168.20704,6.95312 c -0.15043,0.26276 -0.16883,0.36081 -0.35351,0.66211 -1.25913,2.05423 -3.41319,4.88445 -4.73242,6.30274 0.40016,-1.99665 1.70316,-4.18873 3.65429,-5.85547 0.6111,-0.52203 0.9577,-0.7446 1.43164,-1.10938 z m 110.21485,3.49219 c 0.0343,0.12659 0.0872,0.19028 0.041,0.31055 -0.35183,0.91688 -0.23105,1.69847 -0.11718,2.8164 0.11386,1.11794 0.34324,2.41981 0.66601,3.69141 0.55871,2.20116 0.72299,5.92171 0.39063,7.69336 -0.33452,1.78312 -0.85888,2.5716 -1.06055,2.69141 -0.10083,0.0599 -0.17721,0.0922 -0.48633,0.0254 -0.30911,-0.0668 -0.80279,-0.27696 -1.41992,-0.66797 -0.34508,-0.21865 -0.35819,-0.15682 -0.39062,-0.87695 -0.0324,-0.72014 0.15919,-2.09629 0.62695,-4.27735 0.33436,-1.55915 0.56684,-3.14496 0.67578,-4.48437 0.0545,-0.66971 0.0784,-1.27684 0.0645,-1.80469 -0.0139,-0.52785 -0.0302,-0.9442 -0.21875,-1.43555 -0.15597,-0.40646 0.0341,-1.82268 0.57227,-2.82226 0.22095,-0.4104 0.46106,-0.66802 0.65625,-0.85938 z m -17.42383,2.96289 c -0.33594,1.98492 -0.78925,4.11109 -1.43555,5.94727 -0.51741,1.47002 -1.12305,2.64066 -1.69726,3.59961 0.0744,-0.27319 0.12347,-0.48244 0.21484,-0.79688 0.40808,-1.40433 0.96977,-3.17533 1.57031,-4.96094 0.44917,-1.33551 0.90398,-2.57738 1.34766,-3.78906 z m 32.99609,0.85352 c 0.0904,0.37293 0.14172,0.45617 0.23438,0.86914 0.42866,1.91052 0.89249,4.23484 1.31641,6.58203 0.84783,4.69439 1.5332,9.62149 1.5332,11.19922 0,1.7484 -0.74002,6.83489 -1.64649,10.82031 -0.72146,3.17204 -1.83982,6.0387 -2.88671,7.82422 -0.32698,0.55768 -0.56538,0.76236 -0.83594,1.07227 0.0246,-0.38196 0.0362,-0.70079 0.0879,-1.20899 0.16999,-1.67156 0.48119,-3.93635 0.88867,-6.35937 0.85189,-5.06563 1.33299,-13.33892 1.10156,-18.83204 -0.20131,-4.77854 -0.0712,-9.04459 0.20703,-11.96679 z m 27.74024,6.52734 c -0.29958,-0.0602 -0.74238,-0.0202 -1.08008,0.20313 -0.3377,0.22328 -0.50817,0.53972 -0.59375,0.79297 -0.17118,0.50649 -0.12842,0.88545 -0.0742,1.30859 0.0542,0.42314 0.15875,0.8741 0.30078,1.35742 0.28406,0.96664 0.72162,2.05741 1.26758,3.10938 0.54597,1.05195 1.07713,1.86434 1.64844,2.43945 0.28565,0.28755 0.54537,0.57099 1.14453,0.69141 0.29958,0.0602 0.74042,0.0201 1.07812,-0.20313 0.33771,-0.22327 0.51012,-0.54167 0.59571,-0.79492 0.17117,-0.50649 0.12842,-0.8835 0.0742,-1.30664 -0.0542,-0.42314 -0.15875,-0.8741 -0.30078,-1.35742 -0.28407,-0.96664 -0.72357,-2.05741 -1.26954,-3.10938 -0.54596,-1.05195 -1.07518,-1.8663 -1.64648,-2.44141 -0.28565,-0.28755 -0.54537,-0.56903 -1.14453,-0.68945 z m -80.75195,0.0977 c -0.008,0.0169 -0.005,0.0162 -0.0137,0.0332 -0.58126,1.20744 -1.49057,2.83972 -2.54101,4.63281 -0.004,-0.25047 0.0539,-0.48808 -0.0488,-0.75586 0.089,0.23203 0.0127,0.1404 0.0781,-0.0898 0.0654,-0.23024 0.2137,-0.58577 0.43165,-0.98828 0.43588,-0.80502 1.14683,-1.80915 1.98632,-2.73242 0.0543,-0.0597 0.0544,-0.0424 0.10743,-0.0996 z m 92.76171,0.33008 c 0.59521,0.91627 1.34975,1.97033 1.86133,2.79882 0.82827,1.34135 1.52776,2.54319 2.03516,3.50391 0.5074,0.96072 0.81671,1.74432 0.85742,1.9375 0.30513,1.44799 1.27465,5.17658 2.1875,8.45117 0.36242,1.30012 0.55768,2.81824 0.90625,4.44336 -2.99019,-10.41873 -5.05433,-16.2231 -7.84766,-21.13476 z m -138.99609,1.01171 c -0.31973,0.34974 -0.48258,0.57155 -0.82617,0.93946 -3.64309,3.90098 -5.91559,6.10559 -7.20899,7.06836 0.0513,-0.0864 0.008,-0.0284 0.082,-0.13086 0.3975,-0.55038 1.07326,-1.33203 2.04882,-2.3418 1.17959,-1.22094 3.77867,-3.5667 5.9043,-5.53516 z m 42.25195,6.04102 c -2.19528,4.0234 -4.68013,9.30907 -6.0625,13.20703 -0.77376,2.18182 -1.62284,4.26007 -2.35156,5.82227 -0.36436,0.7811 -0.70132,1.43641 -0.96875,1.89062 -0.26743,0.45422 -0.63428,0.74048 -0.33594,0.55078 -0.42779,0.27201 -0.42755,0.24222 -0.71093,0.3711 0.21557,-1.32647 1.2261,-4.388 3.46679,-9.98633 1.19863,-2.99476 2.39445,-5.55302 3.46094,-7.45313 1.06649,-1.9001 2.1228,-3.15566 2.48438,-3.39257 0.42903,-0.28111 0.68005,-0.66837 1.01757,-1.00977 z m 126.09961,0.76367 c -0.31217,-0.002 -0.80093,0.15893 -1.07812,0.50196 -0.2772,0.34302 -0.31641,0.69009 -0.31641,0.9375 0,0.81911 0.28583,1.5185 0.66016,2.3496 0.37432,0.83111 0.8724,1.73349 1.42773,2.61329 1.11067,1.75958 2.25197,3.37361 3.61914,4.16992 0.66222,0.3857 1.1585,0.67757 1.59766,0.88281 0.21958,0.10262 0.40941,0.19505 0.73242,0.24414 0.16151,0.0246 0.37439,0.044 0.6582,-0.0449 0.28382,-0.0889 0.61662,-0.35117 0.76758,-0.63867 0.30193,-0.575 0.15183,-0.89837 0.0859,-1.14649 -0.0659,-0.24812 -0.15378,-0.46381 -0.26563,-0.71484 -0.22368,-0.50207 -0.54805,-1.12643 -0.97656,-1.95508 -0.8772,-1.69629 -2.422,-3.63401 -3.8125,-5.08008 -0.69525,-0.72303 -1.32318,-1.30567 -1.92773,-1.69922 -0.30228,-0.19677 -0.54753,-0.41516 -1.17188,-0.41992 z m -55.13086,6.75196 c 0.24386,0.89659 0.50653,1.84468 0.69336,3.78906 0.19684,2.04855 0.19034,3.34066 -0.0312,4.28515 -0.22158,0.9445 -0.63465,1.63707 -1.51953,2.6543 l -0.0449,0.0508 0.25781,-4.36719 c 0.12594,-2.1318 0.31774,-4.14913 0.51953,-5.65429 0.0423,-0.31566 0.0825,-0.49181 0.125,-0.75781 z m 15.65039,8.17382 c 0.003,0.007 9.2e-4,0.006 0.004,0.0137 0.004,-0.006 -0.0109,0.0299 -0.002,0.0215 0.002,-0.002 0.006,-0.002 0.008,-0.004 0.0174,0.0465 0.007,0.007 0.0234,0.0762 0.13736,0.5671 0.16907,1.75582 -0.01,3.25781 -0.19357,1.6257 -0.64284,3.6716 -1.2539,5.89844 0.49364,-2.92957 0.98856,-5.88584 1.23046,-9.26368 z m -51.10156,1.0918 c 7.4e-4,0.36683 0.0274,0.66236 -0.0469,1.2207 -0.233,1.751 -0.86186,4.31204 -1.86133,7.39649 -1.11542,3.44222 -2.32926,5.09361 -4.08203,6 -0.85995,0.4447 -1.52437,0.72039 -1.92383,0.8164 -0.39946,0.096 -0.39463,0.0315 -0.34961,0.0645 0.045,0.0329 -0.0894,-0.0757 -0.18945,-0.58789 -0.10009,-0.51214 -0.1543,-1.33376 -0.1543,-2.41993 0,-2.01838 1.10378,-4.24052 4.51953,-8.24218 1.29692,-1.51938 2.57326,-2.86933 3.55274,-3.79102 0.22134,-0.20829 0.34927,-0.29668 0.53515,-0.45703 z"
       id="path6"
       sodipodi:nodetypes="cssssssssssssssscsscsssscsccsssssssccsssssccccsssscsssssssssssssssssssssssssssssscsscsssssscsssssssssccccsssssssssssscscssssssssscssssssscssssssssccssssssssssscsssscsssscsssssssscssssssscssssssssssssssssssssssccsssscssssssssssssssssssssscscsscssscssccssscsssscssssssssssssssscsscssscsssscsssscccsssscsssssccsscsssssssccsssssssssscsssssssssssscssscssssccccsssssscssssscsssssssssssssssscsssssssssscsssssssssssssssssscsssssssssssssscccsccssccscsccccscssscccscssccscscscssssscsssssssssssssssssscssscssssccssscscssccssssssccccssccssscssssssccssssscsssssccsscssccssscssssssccsssssccssssccccscscscsssssssssssssscscsscsssssscssssssssssssssssssssccccssssccssssccsscsssscsssccssscssssssssssssssssscsscccsscscsccccssssssssssssss"
       inkscape:label="znak"
       transform="scale(0.38458351)" /><g
       inkscape:groupmode="layer"
       id="layer4"
       inkscape:label="Kruh"
       style="display:inline"><path
         id="path2"
         style="fill:none;stroke:#000000;stroke-width:0.189192"
         d="M 219.118,109.6063 A 109.5117,109.5117 0 0 1 109.6063,219.118 109.5117,109.5117 0 0 1 0.09459686,109.6063 109.5117,109.5117 0 0 1 109.6063,0.09459686 109.5117,109.5117 0 0 1 219.118,109.6063 Z"
         inkscape:label="Vnejsi kruh" /><path
         id="circle2"
         style="fill:none;stroke:#000000;stroke-width:0.188976"
         d="M 208.69732,109.6063 A 99.091019,99.091019 0 0 1 109.6063,208.69732 99.091019,99.091019 0 0 1 10.515282,109.6063 99.091019,99.091019 0 0 1 109.6063,10.515282 99.091019,99.091019 0 0 1 208.69732,109.6063 Z"
         inkscape:label="Vnitrni kruh" /></g></g></svg>
