<?xml version="1.0" encoding="UTF-8" standalone="no"?>
<svg
   version="1.2"
   viewBox="0 0 219.2126 219.2126"
   width="58mm"
   height="58mm"
   id="svg1"
   sodipodi:docname="StarostaRoleTokenLaser.svg"
   inkscape:version="1.4.2 (2aeb623e1d, 2025-05-12)"
   xml:space="preserve"
   xmlns:inkscape="http://www.inkscape.org/namespaces/inkscape"
   xmlns:sodipodi="http://sodipodi.sourceforge.net/DTD/sodipodi-0.dtd"
   xmlns="http://www.w3.org/2000/svg"
   xmlns:svg="http://www.w3.org/2000/svg"><sodipodi:namedview
     id="namedview1"
     pagecolor="#ffffff"
     bordercolor="#666666"
     borderopacity="1.0"
     inkscape:showpageshadow="2"
     inkscape:pageopacity="0.0"
     inkscape:pagecheckerboard="0"
     inkscape:deskcolor="#d1d1d1"
     inkscape:zoom="1.7640069"
     inkscape:cx="157.59576"
     inkscape:cy="104.02454"
     inkscape:window-width="1920"
     inkscape:window-height="940"
     inkscape:window-x="0"
     inkscape:window-y="0"
     inkscape:window-maximized="1"
     inkscape:current-layer="layer2"
     showgrid="false"
     inkscape:document-units="mm" /><defs
     id="defs1"><clipPath
       clipPathUnits="userSpaceOnUse"
       id="cp1"><path
         d="m 275.5,535.5 c -143.78,0 -260,-116.22 -260,-260 0,-143.78 116.22,-260 260,-260 143.78,0 260,116.22 260,260 0,143.78 -116.22,260 -260,260 z"
         id="path1" /></clipPath></defs><style
     id="style1">
		tspan { white-space:pre } 
		.s0 { fill: none;stroke: #ff0000;stroke-miterlimit:100 } 
	</style><g
     inkscape:groupmode="layer"
     id="layer2"
     inkscape:label="Content"
     style="display:inline"><path
       id="path7"
       style="baseline-shift:baseline;display:inline;overflow:visible;opacity:1;fill:none;stroke:#000000;stroke-width:0.18897638;stroke-opacity:1;enable-background:accumulate;stop-color:#000000;stop-opacity:1;stroke-dasharray:none"
       d="m 109.2465,22.809858 c -3.34032,0 -5.23328,0.02179 -6.63406,0.170509 -1.40078,0.148723 -2.30566,0.432179 -3.578429,0.924653 -13.258782,5.130227 -17.432063,6.723888 -22.619821,8.638857 -2.407255,0.888597 -4.507954,1.689843 -6.036911,2.297736 -0.764479,0.303947 -1.385509,0.559385 -1.833529,0.754896 -0.224012,0.09775 -0.404401,0.180668 -0.542325,0.249378 -0.06896,0.03436 -0.127024,0.06488 -0.178769,0.0954 -0.05175,0.03051 -0.0906,0.04564 -0.163752,0.122436 -0.03377,0.03545 -0.07676,0.09306 -0.0984,0.179522 -0.02165,0.08646 -0.008,0.195151 0.02629,0.267406 0.06858,0.144509 0.145565,0.168147 0.186285,0.188536 0.08144,0.04078 0.108795,0.03951 0.142715,0.04582 0.06784,0.01261 0.131831,0.01793 0.217082,0.02404 0.170498,0.01222 0.412062,0.02108 0.727101,0.02779 0.630083,0.01341 1.548022,0.01752 2.689831,0.01277 2.283623,-0.0095 5.460275,-0.05482 8.982129,-0.132952 2.134154,-0.04735 8.540819,-0.113609 12.356249,-0.174265 -4.259066,0.07467 -9.218936,0.154799 -12.679992,0.220835 -3.865979,0.07376 -7.090623,0.139166 -9.35394,0.192292 -1.13166,0.02656 -2.022832,0.05036 -2.634997,0.06986 -0.306086,0.0097 -0.542174,0.0184 -0.706072,0.02629 -0.08195,0.0039 -0.144976,0.0073 -0.194545,0.01127 -0.02477,0.002 -0.0455,0.0041 -0.07061,0.0075 -0.01254,0.0017 -0.02519,0.003 -0.05033,0.009 -0.02511,0.006 -0.221793,0.139776 -0.222339,0.140463 -0.06275,0.07903 -0.0625,0.104085 -0.07286,0.132201 -0.01035,0.02812 -0.01711,0.05219 -0.02404,0.07737 -0.01385,0.05036 -0.02657,0.105989 -0.04056,0.172762 -0.028,0.133547 -0.05961,0.308408 -0.09464,0.518287 -0.07006,0.419758 -0.152341,0.975785 -0.2306,1.572885 l -0.341772,2.607957 2.269193,-0.02854 v 0.724101 c -0.0043,0.0233 -0.0068,0.0475 -0.0068,0.07286 0,0.32785 0.122813,0.638051 0.288438,0.992257 0.16562,0.354205 0.385906,0.732735 0.624194,1.087648 0.238292,0.354917 0.492536,0.684559 0.738373,0.939676 0.122917,0.127559 0.242496,0.236573 0.369558,0.324492 0.127063,0.08792 0.25931,0.170975 0.467212,0.172013 0.06672,3.35e-4 0.15999,0.07758 0.15999,0.217078 0,0.286515 0.106745,0.540275 0.251633,0.79095 0.144888,0.250675 0.336561,0.489817 0.566357,0.680532 0.08364,0.06941 0.145288,0.145957 0.214078,0.371065 0.06879,0.225105 0.126494,0.589398 0.159241,1.141733 0.06549,1.104662 0.03994,2.957008 -0.04807,6.061693 -0.11426,4.030289 -0.347859,12.243416 -0.519038,18.251195 -0.115175,4.042288 -0.230188,6.801041 -0.368058,8.58102 -0.06894,0.889988 -0.144061,1.536257 -0.223839,1.963476 -0.03989,0.213613 -0.08161,0.372842 -0.117178,0.470965 -0.02334,0.0644 -0.04891,0.09941 -0.05108,0.10516 v 7.5e-4 h 7.5e-4 c 0.0019,-9.58e-4 0.0076,-0.0065 0.01878,-0.01577 -0.21712,0.180189 -0.371381,0.411239 -0.46195,0.658749 -0.09057,0.247511 -0.125443,0.52013 -0.02179,0.7902 -0.01001,-0.0261 -0.01606,-0.04031 -0.01953,-0.04432 l -7.5e-4,-7.5e-4 h -7.5e-4 -7.53e-4 l -7.5e-4,7.5e-4 v 7.54e-4 l -7.5e-4,7.5e-4 c -0.0046,0.01629 0.0058,0.114921 -0.01953,0.229096 -0.03765,0.169936 -0.109321,0.407078 -0.208067,0.681286 -0.197487,0.548412 -0.503062,1.249039 -0.863059,1.952961 -0.509739,0.99671 -0.818882,1.677819 -0.956952,2.200841 -0.06904,0.261509 -0.1,0.489371 -0.05784,0.715083 0.0033,0.01741 0.0068,0.03459 0.01127,0.05183 v 1.467725 H 63.64106 l -1.352053,1.295715 c -0.916459,0.878031 -1.359561,1.811185 -1.359561,2.926442 v 1.847805 l 1.532323,0.01202 v 0.640717 l -4.585708,0.12469 -0.931411,1.73964 c -0.49254,0.91972 -0.869821,2.24982 -0.869821,3.16531 v 1.83503 h 6.38694 v 0.5566 l -4.324311,-0.11193 -2.179807,1.08165 -2.310505,1.14624 v 3.11272 3.26145 l 27.426361,0.11567 c 8.755086,0.0369 15.512572,0.10363 20.077963,0.1968 2.2827,0.0466 4.01769,0.0996 5.17611,0.15849 0.50606,0.0236 1.10865,0.0315 1.55561,0.17577 0.0783,0.0744 0.15588,0.11645 0.23736,0.15398 0.16294,0.0751 0.34891,0.12496 0.57011,0.16826 0.44241,0.0866 1.01991,0.13595 1.65626,0.13595 1.03878,0 1.59059,0.0232 2.04085,-0.19003 0.22513,-0.10664 0.41015,-0.34233 0.45895,-0.57238 0.0488,-0.23003 0.0207,-0.43855 -0.0135,-0.67977 -0.0684,-0.48142 -0.3697,-0.91231 -0.8623,-1.3175 -0.49261,-0.4052 -1.19157,-0.81307 -2.17004,-1.29722 -1.46067,-0.72274 -3.20795,-1.67869 -3.80453,-2.0724 -0.95611,-0.63097 -2.26008,-0.83752 -4.65932,-0.83752 -1.11894,0 -1.961044,-0.0488 -2.542604,-0.14346 -0.581563,-0.0947 -0.878346,-0.25948 -0.936672,-0.32976 -0.260782,-0.31422 -0.658734,-0.57151 -1.318248,-0.75038 -0.659519,-0.17887 -1.606387,-0.30911 -3.100705,-0.4244 -2.988645,-0.23057 -8.166223,-0.3917 -17.433951,-0.63096 l -11.798903,-0.3042 v -0.60167 h 7.489614 c 4.19016,0 7.999744,-0.0419 10.764581,-0.10966 1.38242,-0.0339 2.502523,-0.0736 3.283981,-0.11869 0.390733,-0.0225 0.695608,-0.046 0.91489,-0.0721 0.109641,-0.013 0.195945,-0.0256 0.277169,-0.0451 0.04062,-0.01 0.07809,-0.0181 0.137462,-0.0466 0.02969,-0.0142 0.06651,-0.0318 0.117175,-0.0804 0.05067,-0.0486 0.126193,-0.15421 0.126193,-0.29445 0,-0.17878 -0.05634,-0.27881 -0.115675,-0.39135 -0.05934,-0.11253 -0.134443,-0.22546 -0.223839,-0.34402 -0.08711,-0.11552 -0.218647,-0.23588 -0.329,-0.35604 0.01281,0.0103 0.02329,0.0144 0.03606,0.0248 0.325215,0.26447 0.641155,0.56149 0.863809,0.81649 0.111326,0.1275 0.199034,0.24573 0.250883,0.33275 0.03564,0.0598 0.04844,0.10745 0.05258,0.11568 v 7.5e-4 h 7.54e-4 v -7.5e-4 l 7.49e-4,-7.5e-4 c 2.89e-4,-0.002 0,-0.008 0,-0.015 0,0.18905 0.132524,0.35155 0.239615,0.42365 0.107088,0.0721 0.210375,0.10631 0.334257,0.13971 0.247757,0.0668 0.582933,0.1137 1.080138,0.15699 0.994409,0.0866 2.622309,0.14794 5.234693,0.19304 4.284925,0.074 11.211434,0.10259 22.245004,0.11042 v 0.56786 c -3.04118,0.0151 -5.93063,0.0373 -8.38197,0.0661 -1.97477,0.0232 -3.6655,0.0503 -4.92372,0.0819 -0.62911,0.0158 -1.14958,0.0324 -1.54584,0.0503 -0.39627,0.0179 -0.6499,0.0324 -0.82175,0.0608 -0.69043,0.11412 -1.15372,0.21828 -1.473739,0.36355 -0.16001,0.0726 -0.348325,0.13325 -0.419889,0.4274 -0.03577,0.14708 0.01892,0.3197 0.09089,0.41313 0.07196,0.0934 0.147711,0.14104 0.223089,0.18253 0.301519,0.16593 0.701779,0.24423 1.326519,0.33951 0.62473,0.0953 1.4502,0.18228 2.47951,0.2614 3.305,0.25405 4.35444,0.55646 8.36168,2.39989 2.56351,1.17927 5.58547,2.48826 6.77303,2.9302 0.56046,0.20856 1.07142,0.44136 1.42717,0.63846 0.17787,0.0986 0.31775,0.18973 0.39509,0.25164 0.0168,0.0134 0.0304,0.0257 0.0406,0.0353 0.0287,0.0821 0.0791,0.14314 0.11642,0.17727 0.0554,0.0506 0.0971,0.0704 0.13371,0.0871 0.0733,0.0334 0.13187,0.0475 0.20055,0.0631 0.13735,0.0311 0.307,0.0552 0.52204,0.0789 0.43008,0.0473 1.03408,0.0884 1.7787,0.12318 1.48926,0.0696 3.53477,0.11267 5.78528,0.11267 2.2505,0 4.29603,-0.0431 5.78527,-0.11267 0.74463,-0.0348 1.34863,-0.0759 1.7787,-0.12318 0.21504,-0.0237 0.3847,-0.0477 0.52204,-0.0789 0.0687,-0.0156 0.12729,-0.0297 0.20056,-0.0631 0.0366,-0.0167 0.0783,-0.0365 0.1337,-0.0871 0.0449,-0.041 0.1083,-0.12032 0.1307,-0.2291 -0.002,0.007 -0.005,0.0126 -0.007,0.015 l -7.5e-4,7.6e-4 h -7.5e-4 v 7.5e-4 h -7.5e-4 v -7.5e-4 -7.6e-4 c 8e-5,-2.8e-4 6e-4,-0.002 7.5e-4,-0.002 0.002,-0.003 0.005,-0.007 0.008,-0.0128 0.0108,-0.016 0.0299,-0.0426 0.0556,-0.0736 0.07,-0.0843 0.18865,-0.20584 0.33876,-0.34252 0.30022,-0.27336 0.72821,-0.61233 1.19732,-0.93742 0.13906,-0.0964 0.24765,-0.20257 0.37482,-0.30196 -0.14928,0.15599 -0.34989,0.34592 -0.47998,0.48749 -0.25721,0.27989 -0.47159,0.52588 -0.62946,0.7286 -0.0789,0.10137 -0.14349,0.19132 -0.19604,0.27868 -0.0526,0.0874 -0.11643,0.14144 -0.11643,0.34778 0,7.6e-4 0.0702,0.2343 0.11793,0.28167 0.0477,0.0474 0.0814,0.0642 0.10666,0.0766 0.0506,0.0249 0.074,0.0286 0.0954,0.0338 0.0428,0.0104 0.0707,0.0134 0.10365,0.0173 0.0659,0.008 0.14357,0.0133 0.24412,0.0188 0.20111,0.011 0.48651,0.0208 0.84879,0.0293 0.72457,0.017 1.75478,0.0296 2.99179,0.0383 2.47402,0.0175 5.77299,0.0193 9.07827,0.008 3.30528,-0.011 6.61682,-0.035 9.11659,-0.0691 1.24988,-0.017 2.29616,-0.0367 3.03986,-0.0586 0.37185,-0.0109 0.66732,-0.0222 0.87883,-0.0345 0.10575,-0.006 0.1897,-0.0127 0.25839,-0.0203 0.0343,-0.004 0.0642,-0.007 0.0999,-0.0143 0.0179,-0.003 0.0364,-0.007 0.0661,-0.0173 0.0297,-0.01 0.0692,-0.006 0.16299,-0.0999 0.1493,-0.1493 0.12821,-0.21962 0.14347,-0.2952 0.0153,-0.0756 0.0237,-0.15221 0.0301,-0.24111 0.0128,-0.17781 0.0159,-0.40019 0.0113,-0.66401 -0.009,-0.52765 -0.0502,-1.21493 -0.12018,-1.94695 -0.20018,-2.09366 -0.56913,-3.07493 -1.5511,-4.05691 -0.58916,-0.58916 -1.0523,-0.9823 -2.09043,-1.15074 -1.03813,-0.16845 -2.66762,-0.18316 -5.89494,-0.21558 -0.28106,-0.003 -0.55037,-0.005 -0.80822,-0.008 v -0.95921 c 1.40495,-0.0182 2.61356,-0.0379 3.5972,-0.0586 0.94208,-0.0198 1.67766,-0.0406 2.18507,-0.0623 0.2537,-0.0109 0.44965,-0.0218 0.59189,-0.0338 0.0711,-0.006 0.12759,-0.0117 0.18103,-0.0203 0.0267,-0.004 0.0513,-0.008 0.0894,-0.0195 0.019,-0.006 0.0408,-0.0123 0.0774,-0.0308 0.0366,-0.0185 0.10141,-0.0384 0.17126,-0.163 0.11023,-0.19653 0.12875,-0.38147 0.14497,-0.60767 0.0162,-0.22619 0.0136,-0.48714 -0.003,-0.77593 -0.0331,-0.57757 -0.12167,-1.26532 -0.24187,-1.9447 -0.1202,-0.67938 -0.27184,-1.34785 -0.43641,-1.88611 -0.0823,-0.26913 -0.16663,-0.5051 -0.25915,-0.70231 -0.0925,-0.19722 -0.16519,-0.36116 -0.37256,-0.49951 -0.12321,-0.0822 -0.18785,-0.0846 -0.27642,-0.10366 -0.0886,-0.019 -0.18964,-0.0343 -0.31022,-0.0488 -0.24115,-0.029 -0.55907,-0.0537 -0.9577,-0.0759 -0.79727,-0.0443 -1.91335,-0.0777 -3.31178,-0.0992 -0.27851,-0.004 -0.56849,-0.008 -0.86906,-0.0113 v -0.50401 c 0.20737,-0.0232 0.38337,-0.0488 0.53406,-0.0774 0.32335,-0.06126 0.54409,-0.127328 0.72935,-0.281677 0.18526,-0.154345 0.25013,-0.4182 0.25013,-0.563353 0,-0.576702 -0.22685,-1.535246 -0.50627,-2.336799 -0.11856,-0.34011 -0.2155,-0.613534 -0.35904,-0.856298 -0.14354,-0.242765 -0.35564,-0.45162 -0.6257,-0.573118 -0.54013,-0.242995 -1.21248,-0.224593 -2.47726,-0.224593 -0.6227,0 -1.14769,-0.03923 -1.5451,-0.100653 -0.11755,-0.01815 -0.1256,-0.03757 -0.22008,-0.06009 0.1033,-0.03 0.089,-0.04467 0.2276,-0.07136 0.0206,-0.004 0.0413,-0.0067 0.0864,-0.02404 0.0226,-0.0087 0.052,-0.01881 0.10215,-0.05709 0.0251,-0.01915 0.0891,-0.09423 0.0894,-0.09464 2.7e-4,-3.85e-4 0.0668,-0.206152 0.0668,-0.206564 2e-5,-3.84e-4 -0.0553,-0.216666 -0.0556,-0.217082 -2.5e-4,-3.84e-4 -0.0641,-0.08392 -0.0901,-0.105156 -0.0522,-0.04249 -0.0834,-0.05296 -0.10666,-0.06234 -0.0466,-0.01877 -0.0673,-0.02139 -0.0879,-0.02554 -0.0824,-0.01658 -0.1431,-0.02004 -0.24563,-0.02704 -0.11077,-0.0076 -0.25459,-0.0147 -0.4319,-0.02178 v -2.269193 h -7.6e-4 c -0.01,-0.701511 -0.29365,-1.440265 -0.80371,-1.86358 -0.14112,-0.117117 -0.28428,-0.287761 -0.38158,-0.449932 -0.0973,-0.162167 -0.13821,-0.326046 -0.13821,-0.350029 0,-0.284599 -0.112,-0.522014 -0.2584,-0.76241 -0.1464,-0.240391 -0.33902,-0.47233 -0.56635,-0.661003 -0.12789,-0.106133 -0.23643,-0.265847 -0.2922,-0.41763 -0.0558,-0.151788 -0.0504,-0.285984 -0.0315,-0.335011 0.12467,-0.324881 0.0805,-0.650635 -7.5e-4,-1.017043 -0.0812,-0.366408 -0.22494,-0.759314 -0.42139,-1.118445 -0.0683,-0.124879 -0.19067,-0.529403 -0.2952,-1.19807 -0.10452,-0.668664 -0.20708,-1.612317 -0.31097,-2.88738 -0.20776,-2.55012 -0.42145,-6.428529 -0.68203,-12.145178 -0.46617,-10.226841 -0.70491,-15.212405 -0.53782,-17.970265 0.16709,-2.757856 0.66567,-3.224663 1.85156,-4.784007 0.43657,-0.574045 0.80763,-1.068458 1.10793,-1.500779 h 0.36731 v -0.556593 c 0.058,-0.09367 0.11169,-0.183854 0.16074,-0.271162 0.16922,-0.301148 0.28861,-0.566357 0.33952,-0.832262 0.0509,-0.265905 0.0167,-0.561399 -0.15023,-0.785692 -0.0939,-0.126136 -0.21369,-0.219344 -0.35003,-0.290692 V 41.05354 l 1.64199,-0.02929 -0.18252,-2.620728 c -0.0428,-0.612926 -0.0974,-1.1855 -0.15098,-1.62096 -0.0268,-0.217729 -0.0531,-0.400384 -0.0796,-0.543073 -0.0132,-0.07135 -0.0259,-0.132235 -0.0421,-0.190039 -0.0161,-0.0578 0.0183,-0.08912 -0.12394,-0.238862 -7.7e-4,-6.54e-4 -0.18957,-0.111553 -0.21407,-0.116427 -0.0245,-0.0049 -0.0371,-0.0062 -0.0496,-0.0075 -0.025,-0.0026 -0.0457,-0.0041 -0.0706,-0.0053 -0.0498,-0.0023 -0.11378,-0.004 -0.19605,-0.0053 -0.16455,-0.0025 -0.40087,-0.0032 -0.70757,-0.003 -0.61342,4.23e-4 -1.50603,0.0062 -2.63876,0.01653 -0.52309,0.0047 -1.53942,0.0189 -2.16103,0.02554 0.89311,-0.02517 2.08463,-0.05081 2.72213,-0.07511 0.69054,-0.02632 1.22163,-0.05166 1.58115,-0.07662 0.17976,-0.01248 0.31493,-0.0242 0.41764,-0.03831 0.0513,-0.0071 0.0886,-0.01152 0.15172,-0.0308 0.0316,-0.0096 0.0667,-0.0041 0.16375,-0.08939 0.0243,-0.02132 0.0534,-0.0505 0.0811,-0.09765 0.0277,-0.04714 0.0548,-0.188603 0.0548,-0.189287 2e-5,-6.92e-4 -0.0183,-0.147146 -0.0458,-0.199052 -0.0275,-0.05191 -0.059,-0.08534 -0.0849,-0.108915 -0.10976,-0.09985 -0.16273,-0.111976 -0.26064,-0.159993 -0.0979,-0.04802 -0.21945,-0.102963 -0.36731,-0.166002 -0.29573,-0.126078 -0.69301,-0.284197 -1.16727,-0.465707 -0.94853,-0.363019 -2.20431,-0.817933 -3.54313,-1.279942 -2.66879,-0.920966 -7.33695,-2.549949 -10.37023,-3.61899 -3.03517,-1.069707 -6.00177,-2.105758 -6.62731,-2.313511 -1.32612,-0.440422 -3.41579,-1.20269 -5.27149,-1.907895 -0.92785,-0.352602 -1.79811,-0.691053 -2.48553,-0.968219 -0.68741,-0.277165 -1.21089,-0.504103 -1.36932,-0.588893 -0.26213,-0.140284 -0.56033,-0.182773 -1.02306,-0.24412 -0.46273,-0.06135 -1.06026,-0.113051 -1.77945,-0.155486 -1.43836,-0.08487 -3.35889,-0.13145 -5.59524,-0.13145 z m 38.04898,18.275229 v 0.300456 c -0.74015,-0.0054 -1.68267,0.04405 -2.86559,0.116425 -2.57585,0.15761 -6.45208,0.286938 -8.58328,0.286938 -1.08646,0 -1.91583,0.02067 -2.54185,0.07211 V 41.33672 c 0.7038,-0.01205 1.35757,-0.02376 1.95596,-0.03455 z m -15.73487,0.280927 v 1.319752 c -0.002,0.01851 -0.003,0.03662 -0.002,0.05483 0.005,0.288791 0.11175,0.395171 0.23736,0.599408 0.1256,0.204237 0.29611,0.444786 0.50401,0.715083 0.4158,0.540597 0.9795,1.197881 1.59993,1.853816 0.74201,0.784473 1.27474,1.436957 1.59992,1.949207 0.3252,0.512246 0.41822,0.878789 0.39736,1.040326 -0.0395,0.305882 -0.0336,0.63024 0.007,0.930665 0.0404,0.300421 0.1016,0.568572 0.24712,0.802214 -0.009,-0.01427 -0.0153,-0.0246 -0.0195,-0.0323 0.001,0.0031 0.002,0.0062 0.003,0.0098 0.007,0.03061 0.0166,0.08556 0.0263,0.155487 0.0193,0.139846 0.0391,0.343818 0.0586,0.597905 0.039,0.508181 0.0761,1.219337 0.10741,2.076151 0.0626,1.713631 0.10441,4.011867 0.11117,6.475574 0.0136,4.942929 0.18125,12.454857 0.37332,16.713611 0.11844,2.626348 0.16782,4.62261 0.14797,6.027143 -0.01,0.702269 -0.0375,1.257127 -0.0804,1.66152 -0.0429,0.404397 -0.12031,0.671583 -0.14347,0.715087 -0.14885,0.279581 -0.26058,0.593074 -0.33125,0.893857 -0.0707,0.300782 -0.11029,0.57604 -0.0541,0.850291 -0.001,-0.0054 -0.002,-0.0099 -0.003,-0.01202 l -7.5e-4,-7.53e-4 v -7.5e-4 h -7.5e-4 v 7.5e-4 h -7.5e-4 v 7.53e-4 7.5e-4 c -0.005,0.01575 -0.006,0.128855 -0.0368,0.262148 -0.0395,0.170617 -0.10802,0.399355 -0.19905,0.659499 -0.18206,0.520292 -0.45454,1.170245 -0.76766,1.810246 -0.3277,0.669791 -0.59298,1.32774 -0.76166,1.86508 -0.0843,0.268674 -0.14489,0.506135 -0.17576,0.712833 -0.0109,0.07292 -0.0254,0.140647 -0.0323,0.208818 h -0.0173 v 1.654009 c -0.53029,-0.0021 -1.06757,-0.0043 -1.61119,-0.006 -1.53729,-0.0048 -2.97199,-0.0076 -4.30779,-0.0083 v -1.858319 c 0.0441,-0.283488 -0.0255,-0.559931 -0.14197,-0.846534 -0.24293,-0.597862 -0.72078,-1.293573 -1.34829,-2.223373 -0.35961,-0.532841 -0.65605,-1.070204 -0.83602,-1.487258 -0.09,-0.208525 -0.15,-0.388283 -0.17577,-0.506269 -0.0137,-0.06268 -0.005,-0.107345 -0.005,-0.116425 v -7.5e-4 h -7.6e-4 v 7.5e-4 l -7.5e-4,7.5e-4 c -0.004,0.0052 -0.0135,0.02621 -0.0391,0.0676 0.1655,-0.267774 0.15049,-0.555727 0.0849,-0.827005 -0.0656,-0.271273 -0.19828,-0.540586 -0.3936,-0.775928 -0.20457,-0.246499 -0.26497,-0.257901 -0.34927,-0.54082 -0.0843,-0.282915 -0.16301,-0.861798 -0.22459,-2.046854 -0.12317,-2.370111 -0.20059,-7.166725 -0.37783,-17.219876 -0.13773,-7.812261 -0.19554,-12.193951 -0.14197,-14.669758 0.0268,-1.237905 0.0829,-2.001284 0.163,-2.454727 0.0801,-0.453439 0.16048,-0.549716 0.2276,-0.605415 0.21725,-0.180304 0.40899,-0.384007 0.55735,-0.583636 0.14834,-0.19963 0.28317,-0.352217 0.28317,-0.659503 0,0.04624 -4.1e-4,0.06774 7.6e-4,0.07211 v 7.54e-4 h 7.5e-4 v -7.54e-4 h 7.5e-4 v -7.5e-4 c 0.004,-0.0095 0.0164,-0.07091 0.0496,-0.128443 0.0559,-0.0969 0.14622,-0.2342 0.26065,-0.390595 0.22885,-0.312785 0.55295,-0.707799 0.90812,-1.096663 0.58321,-0.638531 1.02554,-1.104312 1.2469,-1.574388 0.0782,-0.16606 0.13144,-0.36034 0.11117,-0.553589 v -1.478243 c 1.15758,-0.01841 2.25011,-0.03576 3.2652,-0.05258 z m 4.57068,9.233008 c -0.003,-0.0079 -0.005,-0.0145 -0.007,-0.01653 h -7.5e-4 c 8.4e-4,0.0022 0.003,0.0084 0.008,0.01653 z m -9.58003,-9.152638 v 0.513781 c -0.45515,-0.04537 -1.01238,-0.06805 -1.70058,-0.08187 -1.3211,-0.02654 -3.11102,-0.0064 -5.48783,0.02328 -2.36792,0.02958 -4.52038,0.07603 -6.08423,0.126194 -0.43824,0.01405 -0.83014,0.02847 -1.16802,0.04282 v -0.409373 c 5.18388,-0.07401 10.17443,-0.1481 14.44066,-0.214825 z m -16.18481,0.239615 v 0.936668 h 0.002 c 0.007,0.16579 0.0588,0.241015 0.11191,0.359048 0.0592,0.131473 0.13753,0.279057 0.2306,0.442421 0.18617,0.326722 0.43126,0.713387 0.68655,1.088402 0.25529,0.375011 0.519,0.73665 0.74438,1.014039 0.11269,0.138692 0.21434,0.255678 0.31097,0.350028 0.0483,0.04718 0.0948,0.08897 0.15248,0.129197 0.0458,0.03199 0.0918,0.07746 0.19905,0.09464 -0.005,-10e-4 -0.009,-0.003 -0.0113,-0.0038 -3.6e-4,-1.62e-4 -0.001,1.27e-4 -0.002,0 v -7.5e-4 h 7.5e-4 7.6e-4 c 0.002,3.23e-4 0.007,0.0017 0.0128,0.0045 0.0102,0.0047 0.0249,0.01377 0.0406,0.0293 0.0599,0.0594 0.15118,0.170528 0.25013,0.313224 0.19789,0.285388 0.43438,0.6976 0.65724,1.140982 0.22286,0.443379 0.43363,0.919963 0.58814,1.340032 0.15451,0.420069 0.24751,0.799053 0.25464,0.964462 0.009,0.209471 0.0599,2.340048 0.12995,5.512616 0.07,3.172568 0.16147,7.422277 0.25689,11.98368 0.18143,8.672731 0.2643,13.097265 0.0714,15.829519 -0.19295,2.732254 -0.63869,3.753296 -1.57664,5.810818 -0.44972,0.986488 -0.93601,2.20989 -1.10869,2.813767 l -0.40261,1.406134 h -0.0105 v 0.0368 l -0.015,0.05258 h 0.015 v 1.363322 c -0.41958,0.01686 -0.96815,-0.0023 -1.62247,-0.06159 -0.7598,-0.0689 -1.46042,-0.08039 -2.02207,-0.03831 -0.28081,0.02104 -0.52589,0.05463 -0.73611,0.10666 -0.21022,0.05203 -0.389,0.102069 -0.5566,0.269659 -0.0897,0.0897 -0.0826,0.08167 -0.15473,0.06535 -0.0721,-0.01635 -0.24419,-0.109737 -0.46571,-0.331253 -0.0435,-0.04353 -0.0909,-0.08431 -0.14346,-0.122436 V 93.33436 h 0.0413 v -1.717853 c 0,-0.399456 -0.0506,-0.762214 -0.14798,-1.058359 -0.0487,-0.148072 -0.10617,-0.28068 -0.20055,-0.402609 -0.0851,-0.109937 -0.22638,-0.229738 -0.41689,-0.252383 -0.006,-0.0029 -0.0201,-0.01011 -0.039,-0.02779 -0.0525,-0.04891 -0.1332,-0.146284 -0.21783,-0.274165 -0.16927,-0.255764 -0.35998,-0.631679 -0.5228,-1.029061 -0.16282,-0.397383 -0.29988,-0.819574 -0.37632,-1.169526 -0.0764,-0.349944 -0.0575,-0.648312 -0.0526,-0.660999 0.11409,-0.297318 0.0614,-0.596682 -0.0496,-0.869071 -0.11092,-0.272389 -0.29308,-0.528498 -0.53782,-0.731608 -0.0467,-0.03872 -0.14208,-0.162902 -0.22835,-0.65725 -0.0863,-0.494347 -0.15343,-1.312772 -0.19905,-2.619225 -0.0912,-2.612902 -0.10287,-7.184135 -0.0864,-15.20757 l 0.0376,-18.067914 1.31299,-1.52707 c 0.78829,-0.916597 1.78538,-2.217874 2.25717,-2.953478 l 1.16127,-1.811 h 0.0188 v -0.02929 l 0.0248,-0.03831 h -0.0248 V 41.71905 c 0.78777,-0.01101 1.57433,-0.02197 2.35783,-0.03305 z m -4.10197,0.05709 v 0.486737 h -7.560222 c -3.754281,0 -5.862741,0.0037 -7.07198,0.09014 v -0.38233 l 1.806493,-0.02329 c 4.067886,-0.05179 8.445539,-0.110617 12.825709,-0.171259 z m -16.376345,0.216329 v 1.18154 c -0.0021,0.01674 -0.0038,0.03283 -0.0045,0.04882 -0.0068,0.155556 0.02496,0.277062 0.05483,0.391345 v 7.53e-4 c 0.09779,0.373939 0.359193,0.77549 0.721094,1.290455 0.361901,0.514969 0.823347,1.096878 1.30623,1.63223 1.264899,1.402322 1.617997,2.119967 1.629223,3.185582 0.009,0.821367 0.0073,9.077329 -0.0038,18.28875 -0.008,6.691595 -0.04262,10.912057 -0.134455,13.517506 -0.04591,1.302727 -0.106864,2.203037 -0.182527,2.794242 -0.07566,0.591201 -0.212905,0.877946 -0.201302,0.864563 -0.204383,0.235765 -0.351017,0.5123 -0.437918,0.792449 -0.08667,0.279416 -0.128089,0.563865 -0.02479,0.851795 h -7.5e-4 v -7.54e-4 h -7.54e-4 l -7.5e-4,7.54e-4 c -0.0074,0.01946 6.96e-4,0.279581 -0.07586,0.578375 -0.0845,0.329708 -0.228719,0.738562 -0.401109,1.139479 -0.172393,0.400921 -0.373807,0.796249 -0.564857,1.105678 -0.191053,0.309432 -0.401928,0.533113 -0.448432,0.561853 -0.283942,0.175485 -0.378976,0.43203 -0.470965,0.71959 -0.09198,0.287565 -0.144969,0.619353 -0.144969,0.958456 v 1.471481 h 0.01202 v 0.540071 c -1.76132,-0.0028 -3.724745,-0.0038 -5.915225,-0.0038 h -0.402613 v -2.155018 h -0.01878 c -0.0021,-0.02412 -0.0043,-0.04797 -0.0075,-0.07211 -0.08194,-0.62361 -0.463353,-1.31801 -1.113942,-2.276704 -0.564268,-0.831496 -1.035072,-2.152641 -1.035072,-2.641008 0,-0.378369 -0.05338,-0.748619 -0.145718,-1.064366 -0.08306,-0.28403 -0.159687,-0.535563 -0.397352,-0.721094 -0.0018,-0.0058 -0.0034,-0.01191 -0.0053,-0.01878 -0.02092,-0.07687 -0.04691,-0.213874 -0.07061,-0.392844 -0.0474,-0.35794 -0.08956,-0.88935 -0.123186,-1.566128 -0.06726,-1.353553 -0.102734,-3.293123 -0.10591,-5.681618 -0.0063,-4.776992 0.116875,-11.355362 0.371061,-18.70338 0.153111,-4.426264 0.268347,-7.02058 0.419889,-8.526936 0.07577,-0.75318 0.163259,-1.235267 0.253132,-1.514297 0.08987,-0.279035 0.150665,-0.323766 0.20431,-0.353786 0.250237,-0.140039 0.464954,-0.329681 0.630956,-0.540821 0.166009,-0.211144 0.298229,-0.437095 0.304963,-0.727105 -1.81e-4,0.0089 3.23e-4,0.01484 7.54e-4,0.01727 v 7.54e-4 h 7.5e-4 l 7.5e-4,-7.54e-4 c 0.0052,-0.0095 0.02051,-0.07464 0.06009,-0.149476 0.05509,-0.104137 0.144022,-0.243487 0.25614,-0.397351 0.224235,-0.307729 0.542497,-0.676644 0.887846,-1.015543 0.608053,-0.596685 1.059523,-1.033488 1.288958,-1.491761 0.07106,-0.141931 0.121821,-0.30889 0.119429,-0.477726 h 0.0038 v -1.391112 z m -5.656835,0.07211 v 0.35604 c -0.447621,-0.05123 -0.99361,-0.08209 -1.664524,-0.105911 -1.29637,-0.04603 -3.045632,-0.05183 -5.354126,-0.05183 -2.406465,0 -4.506622,0.04357 -6.01287,0.116429 -0.377092,0.01823 -0.716737,0.0383 -1.015543,0.06009 v -0.196045 z m 35.35164,5.859637 c 0.87731,0.01435 1.82906,0.2437 2.22337,0.53181 0.32751,0.239303 0.44439,0.371773 0.55509,1.070373 0.1107,0.6986 0.13972,1.910088 0.13972,4.018598 0,2.622175 -0.0728,6.860054 -0.1615,9.401263 -0.0154,0.440563 -0.0258,0.960228 -0.0315,1.538334 0.0159,-3.925486 0.004,-7.484003 -0.0308,-10.19747 -0.0202,-1.586265 -0.0483,-2.883473 -0.0826,-3.800016 -0.0172,-0.458274 -0.0355,-0.820228 -0.0563,-1.081641 -0.0105,-0.130709 -0.0212,-0.235223 -0.0346,-0.322239 -0.007,-0.04351 -0.0136,-0.08202 -0.0255,-0.126193 -0.0119,-0.04418 0.0107,-0.08617 -0.11868,-0.215579 -0.33386,-0.334018 -0.88505,-0.333937 -1.2191,0 -0.12936,0.12932 -0.10577,0.168833 -0.11793,0.212575 -0.0122,0.04374 -0.0191,0.08252 -0.0263,0.12619 -0.0143,0.08735 -0.0268,0.193057 -0.0391,0.325246 -0.0245,0.26437 -0.0482,0.630755 -0.0721,1.095159 -0.0478,0.928815 -0.0948,2.244145 -0.13897,3.852596 -0.0884,3.216903 -0.16506,7.605193 -0.20806,12.39155 -0.043,4.78225 -0.12015,9.130182 -0.20957,12.279632 -0.0276,0.971743 -0.0571,1.5794 -0.0864,2.29999 -0.0233,-0.388683 -0.0634,-0.53269 -0.0789,-1.035821 -0.0877,-2.858183 -0.0515,-7.636914 0.0819,-15.253394 0.11877,-6.78528 0.16632,-10.744894 0.11642,-13.00298 -0.025,-1.129041 -0.0712,-1.826645 -0.15699,-2.278203 -0.0429,-0.225782 -0.084,-0.392679 -0.20281,-0.556597 -0.0594,-0.08196 -0.15122,-0.166574 -0.27341,-0.208817 -0.12218,-0.04224 -0.25346,-0.03032 -0.34703,7.54e-4 -0.43513,0.144446 -0.7205,0.573464 -0.90286,1.22811 -0.18237,0.654649 -0.30194,1.602382 -0.38835,3.024841 -0.1728,2.844914 -0.19837,7.581418 -0.15097,15.423903 0.0322,5.334792 0.0195,9.143261 -0.0436,11.624636 -0.0249,0.980527 -0.0641,1.594187 -0.10441,2.16854 -0.0663,-0.401759 -0.13902,-0.73009 -0.18703,-1.309234 -0.1874,-2.260686 -0.14715,-10.42669 0.009,-18.03862 0.0781,-3.805966 0.1841,-7.485361 0.30121,-10.249301 0.0586,-1.38197 0.11997,-2.535847 0.18178,-3.357595 0.0309,-0.410873 0.062,-0.738981 0.0916,-0.965216 0.0143,-0.108772 0.0285,-0.191053 0.0398,-0.244118 0.0614,-0.06524 0.2533,-0.186215 0.56561,-0.260648 0.3273,-0.078 0.75115,-0.117582 1.18981,-0.110418 z m -43.992001,0.01277 c 0.514465,3.58e-4 1.252361,0.113991 2.239149,0.279423 l 1.859069,0.311725 0.02404,7.155353 c -0.0235,-0.473111 -0.03057,-0.980269 -0.05859,-1.43092 -0.09503,-1.528681 -0.213709,-2.89416 -0.344772,-3.889401 -0.06553,-0.49762 -0.132396,-0.901217 -0.207317,-1.201073 -0.03746,-0.149926 -0.07464,-0.272182 -0.129947,-0.387587 -0.02765,-0.0577 -0.05802,-0.114649 -0.118679,-0.179524 -0.06066,-0.06488 -0.17747,-0.15248 -0.338764,-0.15248 -0.158594,0 -0.27685,0.08957 -0.334257,0.153984 -0.05741,0.06441 -0.08345,0.118386 -0.10666,0.171259 -0.04643,0.105748 -0.07414,0.213559 -0.102907,0.348528 -0.05753,0.26994 -0.10761,0.641805 -0.157741,1.139479 -0.100257,0.995352 -0.195253,2.48251 -0.286934,4.495574 -0.183361,4.026124 -0.353563,10.151977 -0.520541,18.573429 -0.07458,3.761339 -0.162706,7.201411 -0.244118,9.712234 -0.02277,0.702257 -0.04328,1.130241 -0.0646,1.673542 -0.06382,-1.359072 -0.09669,-3.029607 -0.03906,-6.002356 0.205156,-10.582585 0.283769,-17.88448 0.226847,-22.549216 -0.02846,-2.332368 -0.09065,-4.003349 -0.189289,-5.1085 -0.04932,-0.552577 -0.105237,-0.961351 -0.181023,-1.261914 -0.03788,-0.15028 -0.07716,-0.272643 -0.147222,-0.392845 -0.07007,-0.120201 -0.219809,-0.291445 -0.458947,-0.291445 -0.248645,0 -0.517226,0.10213 -0.712833,0.292945 -0.195607,0.190819 -0.330888,0.447082 -0.445425,0.776678 -0.229073,0.659195 -0.376934,1.642822 -0.488994,3.160796 -0.22412,3.035952 -0.280892,8.194209 -0.269658,16.798488 0.0091,6.947363 -0.01323,11.222393 -0.09615,13.748861 -0.02004,0.610276 -0.05522,0.827566 -0.08262,1.245389 -0.02042,-0.311155 -0.04846,-0.428857 -0.0646,-0.842027 -0.0863,-2.209293 -0.114175,-5.943419 -0.114175,-11.987437 0,-8.211773 0.131666,-17.075815 0.287688,-19.625777 0.08241,-1.346892 0.150022,-2.359074 0.261397,-3.085683 0.111376,-0.726609 0.273632,-1.146439 0.461951,-1.354307 0.188319,-0.207867 0.431222,-0.295556 0.945682,-0.295195 z m 64.865421,0.851791 c 0.73469,0 1.286,0.03311 1.67053,0.137458 0.38453,0.104334 0.59809,0.24926 0.7887,0.545328 0.38122,0.59214 0.56288,1.942212 0.69931,4.461769 0.0114,0.210755 0.0251,0.443217 0.0406,0.694804 -0.0929,-0.968132 -0.19374,-1.757831 -0.30721,-2.396886 -0.14195,-0.799395 -0.29866,-1.362437 -0.51904,-1.771938 -0.22038,-0.409501 -0.58403,-0.69255 -0.98475,-0.69255 -0.21814,0 -0.47168,0.115167 -0.61668,0.301959 -0.145,0.186789 -0.21503,0.407786 -0.26891,0.683536 -0.10777,0.551497 -0.13643,1.358011 -0.1337,2.608707 0.009,4.088907 0.66813,12.222818 1.56387,19.358372 0.36283,2.890507 0.54119,5.512217 0.53706,7.416001 -0.002,0.8806 -0.0521,1.562147 -0.12769,2.078405 -0.0179,-0.107526 -0.035,-0.152353 -0.0526,-0.27642 -0.12639,-0.891322 -0.24443,-2.197825 -0.332,-3.771472 -0.16274,-2.924538 -0.70892,-10.437912 -1.21459,-16.71511 -0.25271,-3.137033 -0.48246,-6.039742 -0.64899,-8.188926 -0.0833,-1.074591 -0.15019,-1.961183 -0.1968,-2.593685 -0.0233,-0.31625 -0.0419,-0.569083 -0.0541,-0.749638 -0.0122,-0.18055 -0.0173,-0.320188 -0.0173,-0.296698 0,-0.118829 -0.0118,-0.250706 -0.10966,-0.389845 -0.0978,-0.139134 -0.30587,-0.223735 -0.45294,-0.216328 -0.29414,0.01481 -0.44968,0.154749 -0.66326,0.332007 -0.1707,0.141669 -0.19833,0.271243 -0.24487,0.419135 -0.0465,0.147891 -0.0825,0.319619 -0.11567,0.522791 -0.0664,0.406347 -0.11798,0.935607 -0.15774,1.564624 -0.0776,1.227852 -0.10663,2.843945 -0.0969,4.551908 -0.2916,-3.52567 -0.37535,-5.60897 -0.10666,-6.568718 0.14126,-0.504592 0.31935,-0.706853 0.6272,-0.850287 0.30786,-0.143438 0.80285,-0.198303 1.49477,-0.198303 z M 97.734538,49.28678 c 0.643958,-0.0053 1.333697,0.04923 1.911649,0.153234 -0.215397,0.08876 -0.332564,0.242957 -0.438663,0.414627 -0.07516,0.121613 -0.05665,0.139169 -0.06385,0.17727 -0.0072,0.03811 -0.01251,0.07456 -0.01727,0.117179 -0.0096,0.08523 -0.01783,0.192418 -0.02629,0.326746 -0.01688,0.268651 -0.03292,0.643373 -0.04882,1.116942 -0.03181,0.94714 -0.06242,2.286876 -0.08939,3.923205 -0.05393,3.272652 -0.09499,7.730494 -0.110418,12.586096 -0.01542,4.852051 -0.06843,9.326527 -0.141215,12.623653 -0.03638,1.64856 -0.07775,3.003159 -0.121686,3.960757 -0.02196,0.478806 -0.04443,0.859094 -0.06685,1.122203 -0.01119,0.131554 -0.0226,0.234557 -0.0323,0.299706 -3.46e-4,0.0023 -3.65e-4,0.0023 -7.5e-4,0.0045 -0.08075,0.112841 -0.189849,0.154803 -0.302709,0.102153 v -7.5e-4 h 7.5e-4 v -7.5e-4 -7.5e-4 -7.53e-4 c -0.0015,-0.01775 -0.06311,-0.112899 -0.101404,-0.326746 -0.05344,-0.298456 -0.09185,-0.782197 -0.107414,-1.47599 -0.03111,-1.387585 0.02361,-3.622742 0.156991,-7.074233 0.188908,-4.888533 0.36392,-12.850823 0.389841,-17.70962 0.02115,-3.967275 0.01561,-6.1727 -0.08263,-7.440787 -0.04912,-0.634048 -0.113037,-1.034334 -0.249375,-1.344543 -0.136343,-0.310205 -0.43168,-0.51968 -0.681286,-0.56786 -0.239242,-0.04618 -0.530402,0.005 -0.742127,0.175016 -0.211721,0.170009 -0.346271,0.41247 -0.457443,0.721844 -0.188446,0.52441 -0.293768,1.45496 -0.389091,2.571902 0.01335,-1.107735 0.02282,-2.130312 0.01878,-2.810763 -0.0023,-0.398236 -0.0075,-0.713902 -0.01653,-0.94268 -0.0045,-0.11439 -0.01008,-0.205986 -0.01728,-0.28168 -0.0035,-0.03784 -0.0077,-0.07154 -0.01427,-0.108164 -0.0015,-0.0075 -0.01227,-0.02879 -0.01277,-0.03606 0.03953,-0.02327 0.08498,-0.05661 0.221586,-0.09615 0.361112,-0.104514 0.974611,-0.173355 1.632226,-0.17877 z m 2.599692,0.391345 c 0.15964,0.06576 0.44147,0.132374 0.50252,0.17952 v 7.53e-4 h -7.6e-4 v 7.5e-4 7.5e-4 c -2.1e-4,0.02338 0.11022,0.261244 0.16826,0.811233 0.066,0.625464 0.11312,1.638107 0.14196,3.220887 0.0577,3.165565 0.0436,8.620228 -0.0128,17.970264 -0.0105,1.741568 -0.0489,2.70723 -0.0698,4.198122 -0.0247,-2.45202 -0.0639,-4.413519 -0.0639,-7.590267 0,-8.307996 -0.0461,-13.26264 -0.20356,-15.98876 -0.0787,-1.36306 -0.16311,-2.141672 -0.35003,-2.621479 -0.0257,-0.06603 -0.0751,-0.121809 -0.11192,-0.181773 z m 43.64873,9.526703 c 0.16785,2.168401 0.36689,4.55228 0.55584,6.626554 0.39095,4.29176 0.61661,8.488185 0.66326,11.652431 0.0233,1.582122 0.001,2.907286 -0.0653,3.848088 -0.002,0.02034 -0.005,0.02734 -0.006,0.04732 -0.003,-1.09209 -0.20147,-5.297022 -0.43942,-9.426803 -0.23773,-4.1262 -0.5309,-9.390383 -0.65123,-11.694496 -0.0189,-0.36262 -0.0381,-0.71371 -0.0571,-1.053097 z m -48.311805,5.95729 c 2.5e-4,1.825672 -0.01091,3.300158 0.003,5.601998 0.02646,4.397481 0.0091,8.394985 -0.03981,11.290383 -0.0071,0.419388 -0.01941,0.621272 -0.02779,0.992253 -0.03542,-0.662665 -0.08901,-1.078319 -0.108918,-1.93719 -0.08393,-3.621757 -0.02457,-9.018556 0.173512,-15.947444 z m 43.293435,0.105157 c 0.0274,0.182181 0.038,0.49737 0.0676,0.65725 0.22682,1.226979 0.57405,5.826382 0.73912,10.055505 0.0826,2.115782 0.12837,4.03913 0.1352,5.429238 7.7e-4,0.122055 -0.003,0.17407 -0.003,0.287688 -0.16204,-1.488954 -0.2972,-4.117709 -0.48749,-8.716228 -0.10713,-2.588793 -0.2888,-4.899036 -0.45144,-7.713453 z m -16.66178,0.339518 c -1.5e-4,2.715821 0.0787,6.247567 0.21333,9.073014 0.16733,3.513058 0.19912,5.94203 0.0909,7.394221 -0.0306,0.411028 -0.0875,0.551074 -0.13746,0.800715 -0.008,-0.111783 -0.0177,-0.168421 -0.0255,-0.30121 -0.0469,-0.796003 -0.0846,-1.963356 -0.11192,-3.459748 -0.0547,-2.992783 -0.0683,-7.303694 -0.0345,-12.640929 0.002,-0.290322 0.004,-0.578883 0.005,-0.866063 z m -42.552058,0.887846 0.0038,1.210838 c 0.02319,6.858028 0.0023,11.249929 -0.05709,14.30846 -0.03073,-1.020527 -0.07432,-1.840105 -0.08864,-3.074414 -0.04358,-3.758435 0.01528,-8.23929 0.141966,-12.444884 z m 25.716018,23.40401 c 0.0301,0 0.048,0.0025 0.0578,0.0045 -0.0189,-0.002 -0.0379,-0.0045 -0.0578,-0.0045 z m -35.358396,3.246427 c 0.335145,0.02527 0.723228,0.04768 1.15375,0.0676 1.288721,0.05963 2.95001,0.096 4.624013,0.107411 1.674004,0.01142 3.359803,-0.0027 4.696876,-0.04432 0.668537,-0.02084 1.248958,-0.04843 1.702082,-0.08413 0.0582,-0.0046 0.113872,-0.0086 0.166756,-0.01277 v 0.691797 H 70.108374 Z m 65.989876,0.003 c 0.26953,0.02385 0.57419,0.04508 0.91263,0.0646 1.35842,0.07834 3.26002,0.121682 5.55167,0.121682 h 6.1263 v 0.739124 c -0.7285,-0.01536 -1.60681,-0.03047 -2.61397,-0.04432 -2.59876,-0.03571 -6.05249,-0.06561 -9.97663,-0.08488 z m -9.40728,0.01803 v 0.757149 c -3.82572,0.004 -6.74292,0.02815 -8.87622,0.07587 -1.57119,0.03503 -2.716,0.08263 -3.49354,0.144968 -0.24131,0.01934 -0.44659,0.03952 -0.6212,0.06235 V 93.33436 h 6.51689 c 2.22473,0 3.89589,-3.84e-4 5.12653,-0.06009 0.52589,-0.02547 0.9696,-0.05669 1.34754,-0.108164 z M 92.25873,93.33436 h 6.139815 6.111275 v 0.791704 c -0.57991,-0.05856 -1.34426,-0.102699 -2.38037,-0.137462 -2.0403,-0.06844 -5.12924,-0.0983 -9.87072,-0.110414 z m 58.68729,0.857052 c 6.8e-4,-1.69e-4 9e-4,1.39e-4 0.001,0 -0.0198,0.0057 -0.0273,0.01372 -0.0488,0.01878 0.004,-0.0022 0.009,-0.0059 0.0113,-0.0068 0.0179,-0.0069 0.029,-0.01027 0.0361,-0.01202 z m -86.740103,5.775514 12.452391,0.0984 c 7.328262,0.0583 24.396762,0.14251 40.328692,0.2013 v 0.39134 l -18.363863,-0.16675 c -13.354154,-0.1214 -27.918059,-0.12201 -32.404168,0 l -2.013052,0.0548 z m 89.149013,0.256134 v 0.37557 c -2.44947,-0.012 -5.43568,1.2e-4 -8.83716,0.0391 -6.95141,0.0796 -10.8724,0.1448 -13.33874,0.28769 -2.46633,0.14289 -3.50962,0.37289 -4.59998,0.76766 -1.31483,0.47605 -2.21325,0.94859 -2.7687,1.59467 -0.17458,0.20307 -0.23978,0.44962 -0.33501,0.68429 -0.014,-0.1648 -0.0416,-0.29108 -0.0511,-0.46045 l -0.15624,-2.79649 -4.53689,-0.0413 v -0.40111 c 1.81799,0.007 3.61559,0.0131 5.37666,0.0188 15.49528,0.0504 23.52012,0.0699 27.68626,-0.0225 0.59606,-0.0132 1.1123,-0.0281 1.56087,-0.0458 z m -78.180122,1.16502 c 0.666052,-0.003 1.266203,0.0316 1.610443,0.10215 0.833858,0.17076 2.606646,0.76394 4.202629,1.37534 0.797991,0.30571 1.558071,0.61744 2.147507,0.88259 0.03515,0.0158 0.05398,0.0266 0.08788,0.0421 -0.828209,-0.11032 -1.658905,-0.22101 -3.311776,-0.43415 -2.277957,-0.29376 -5.273786,-0.94111 -6.53717,-1.39787 l -0.933665,-0.33801 0.726352,-0.10141 c 0.60963,-0.0853 1.341742,-0.12725 2.007795,-0.1307 z m 78.180122,6.38844 v 0.92616 c -1.60549,-0.004 -2.63823,0.0237 -3.44172,0.12995 -1.16577,0.15407 -1.83304,0.49486 -2.89039,1.0884 -0.58237,0.32691 -1.18834,0.62572 -1.6848,0.83902 -0.24824,0.10665 -0.46999,0.19171 -0.64223,0.24788 -0.17224,0.0562 -0.31293,0.0766 -0.30572,0.0766 -0.19551,0 -0.25321,0.0573 -0.34251,0.10742 -0.0893,0.0501 -0.18216,0.1125 -0.28694,0.18853 -0.20955,0.15208 -0.46427,0.35943 -0.75414,0.60767 -0.57976,0.4965 -1.29531,1.15658 -1.99578,1.83278 -0.0436,0.0421 -0.0745,0.078 -0.11793,0.12019 0.43,-0.59531 0.78581,-1.28727 1.11694,-2.1723 0.24725,-0.66082 0.47163,-1.28393 0.63547,-1.75917 0.0819,-0.23762 0.14857,-0.43801 0.19605,-0.59039 0.0237,-0.0762 0.0426,-0.13992 0.0571,-0.19455 0.0145,-0.0546 0.0315,-0.059 0.0315,-0.19079 0,-10e-4 -0.0686,-0.23368 -0.11643,-0.28167 -0.0478,-0.048 -0.082,-0.0651 -0.10816,-0.0781 -0.0523,-0.0261 -0.0783,-0.0307 -0.1029,-0.0368 -0.0493,-0.0122 -0.0869,-0.0171 -0.13221,-0.0225 -0.0906,-0.0109 -0.20488,-0.0193 -0.35303,-0.0278 -0.29631,-0.0169 -0.72118,-0.0315 -1.26192,-0.0451 -1.08147,-0.0271 -2.62347,-0.0488 -4.47979,-0.0646 -3.71265,-0.0316 -8.68036,-0.0412 -13.70755,-0.0315 -1.3154,0.003 -2.63468,0.006 -3.93673,0.0113 v -0.55885 c 1.92154,9.7e-4 3.96049,10e-4 6.12405,10e-4 10.06815,0 19.24219,-0.0376 25.91281,-0.0977 0.91036,-0.008 1.77395,-0.0166 2.58693,-0.0255 z m -15.72361,9.09856 c -10e-4,0.0165 -0.004,0.0305 -0.006,0.0391 0.003,-0.0125 0.005,-0.0258 0.006,-0.0391 z m -17.11321,0.008 c 0.002,0.0158 0.005,0.0311 0.008,0.0458 -0.004,-0.0125 -0.006,-0.0281 -0.008,-0.0458 z"
       inkscape:label="znak" /><g
       inkscape:groupmode="layer"
       id="layer4"
       inkscape:label="Kruh"
       style="display:inline"><path
         id="path2"
         style="fill:none;stroke:#000000;stroke-width:0.189192"
         d="M 219.118,109.6063 A 109.5117,109.5117 0 0 1 109.6063,219.118 109.5117,109.5117 0 0 1 0.09459686,109.6063 109.5117,109.5117 0 0 1 109.6063,0.09459686 109.5117,109.5117 0 0 1 219.118,109.6063 Z"
         inkscape:label="Vnejsi kruh" /><path
         id="circle2"
         style="fill:none;stroke:#000000;stroke-width:0.188976"
         d="M 208.69732,109.6063 A 99.091019,99.091019 0 0 1 109.6063,208.69732 99.091019,99.091019 0 0 1 10.515282,109.6063 99.091019,99.091019 0 0 1 109.6063,10.515282 99.091019,99.091019 0 0 1 208.69732,109.6063 Z"
         inkscape:label="Vnitrni kruh" /></g><path
       id="path4"
       style="display:inline;opacity:1;font-size:107.967px;font-family:'New Rocker';-inkscape-font-specification:'New Rocker';letter-spacing:2px;baseline-shift:baseline;white-space:pre;overflow:visible;fill:none;stroke:#000000;stroke-opacity:1;enable-background:accumulate;stop-color:#000000;stop-opacity:1;stroke-width:0.49137931;stroke-dasharray:none"
       d="m 110.81836,322.78711 -1.83594,3.14648 c -1.76153,3.01977 -3.72874,4.91027 -5.91211,6.00196 -2.29591,1.14795 -5.236133,1.79687 -8.937498,1.79687 -1.739435,0 -3.154245,-0.10546 -4.185546,-0.27734 -1.336264,-0.22271 -2.391082,-0.37544 -3.246094,-0.46094 l -7.857422,-0.78711 4.785156,6.28125 c 1.996446,2.62034 3.317867,5.5319 4.011719,8.875 0.742012,3.57515 1.117187,7.29575 1.117187,11.17774 0,3.55872 -0.17457,7.00361 -0.521484,10.33398 -0.355921,3.41684 -0.747017,6.61194 -1.171875,9.58594 l -0.722656,5.05273 4.953125,-1.23633 c 2.246171,-0.56154 4.604299,-1.09 7.074219,-1.58398 2.488419,-0.49768 4.976909,-0.96021 7.464839,-1.38672 2.46738,-0.42298 4.85817,-0.774 7.17383,-1.05469 1.41366,-0.17135 2.5823,-0.26434 3.83008,-0.38281 0.21649,0.59135 0.39643,0.76838 0.57031,1.91602 0.3299,2.17729 0.5,4.59927 0.5,7.25976 0,3.08648 -0.206,6.09457 -0.61523,9.02735 l -0.004,0.0332 -0.004,0.0351 c -0.13524,1.13599 -0.35653,1.65057 -0.5293,2.57032 -2.0137,-1.00628 -4.11499,-2.02659 -5.94336,-3.00391 -3.0349,-1.73383 -5.79265,-3.25799 -8.27148,-4.57031 -2.4754,-1.31051 -4.637943,-2.37181 -6.531254,-3.20703 -2.006407,-0.96107 -3.681554,-1.61719 -5.65625,-1.61719 h -4.492188 l 1.181641,4.33398 c 0.171943,0.63047 0.27756,1.20138 0.328125,1.70704 0.05958,0.59581 0.0918,1.23802 0.0918,1.92578 0,1.88997 -0.387633,3.62724 -1.191407,5.34961 l -0.0098,0.0234 -0.01172,0.0234 c -0.789311,1.76077 -1.898028,3.49995 -3.367188,5.22461 l -4.548828,5.33984 7.007813,0.31446 c 4.706672,0.21074 8.73838,0.63236 12.058594,1.24219 l 0.03711,0.008 0.03906,0.006 c 3.487002,0.55792 6.482722,1.21693 8.958992,1.95312 2.51571,0.74791 4.60021,1.55086 6.23437,2.36719 1.86434,0.96773 3.50932,1.89435 4.91992,2.76758 l 2.27149,1.40625 1.91992,-1.85742 c 1.7285,-1.67088 4.05471,-3.04754 7.12305,-4.07032 3.10224,-1.03408 6.32005,-1.55078 9.71093,-1.55078 h 4.41602 l -1.08984,-4.27929 c -0.87787,-3.44392 -1.49123,-7.03281 -1.83789,-10.76954 h 12.62695 v 14.06055 l 1.89648,0.94922 c 1.10049,0.55024 2.51288,1.29083 4.21875,2.21484 1.67752,0.90866 3.32016,1.85274 4.92578,2.83008 l 2.16797,1.31836 1.89649,-1.68555 c 0.42373,-0.37665 1.19018,-0.94259 2.23828,-1.59765 1.05355,-0.65847 2.18206,-1.29025 3.38672,-1.89258 l 0.0664,-0.0332 0.0645,-0.0352 c 1.22957,-0.68309 2.49478,-1.33439 3.79687,-1.95117 1.27636,-0.60459 2.46637,-1.0982 3.56055,-1.48438 l 2.28906,-0.80859 v -7.19531 l -3.25195,-0.16992 c -1.98138,-0.10429 -3.3288,-0.7094 -4.63086,-2 -0.55001,-0.57869 -1.01865,-1.38281 -1.32813,-2.51954 h 13.69922 c -0.0345,1.58415 -0.0907,3.16794 -0.16992,4.75196 -0.13135,2.55045 -0.52991,4.55198 -1.07031,5.95703 l -1.76172,4.57812 4.9043,0.084 c 3.95344,0.0682 7.38961,0.51379 10.29687,1.28906 l 0.008,0.002 0.01,0.002 c 3.01614,0.78681 5.72164,1.91977 8.1582,3.39453 l 2.52735,1.52929 6.22656,-7.49023 c 0.23961,0.35165 0.36924,0.72165 0.62695,1.07031 1.42728,1.93102 3.08137,3.5588 4.95899,4.81055 l 3.23632,2.15625 1.73829,-3.47656 c 0.29544,-0.59089 0.83777,-1.45817 1.61914,-2.5 0.76078,-1.01439 1.62388,-2.0067 2.5957,-2.97852 0.99878,-0.99878 1.9863,-1.88552 2.95703,-2.66211 l 0.0117,-0.008 0.01,-0.008 c 0.93856,-0.76259 1.71802,-1.19269 2.22851,-1.375 l 2.27734,-0.81446 v -6.33593 l -2.66015,-0.61329 c -0.52814,-0.12187 -0.82933,-0.27485 -1.06836,-0.41406 v -0.002 c -0.01,-0.021 -0.13497,-0.18772 -0.30078,-0.6875 -0.024,-0.0822 -0.0482,-0.16877 -0.0723,-0.25977 h 8.84766 v 5.57032 c 0,1.65742 -0.24186,2.79392 -0.45899,3.30859 -0.12213,0.2895 -0.16897,0.37276 -0.18945,0.39063 l -0.002,0.002 h -0.002 -0.002 -0.002 -0.002 -0.002 l -0.002,-0.002 -0.002,-0.002 -0.002,-0.002 -0.002,-0.002 -0.002,-0.002 h -0.002 -0.002 -0.002 l -2.23828,0.83008 v 7.43945 h 29.96679 v -8.20507 l -2.90039,-0.45313 c -1.72674,-0.2698 -2.46744,-0.74645 -2.68945,-0.95117 -0.16914,-0.28926 -0.5625,-1.32849 -0.5625,-3.32227 V 397.777 h 24.42383 c -0.10604,2.31733 -0.3169,4.25509 -0.61328,5.7793 l -0.008,0.0371 -0.006,0.0371 c -0.34481,2.01139 -0.98644,2.97851 -1.01562,3.04883 v 0.002 l -9.9668,8.54492 12.87695,-2.57617 c 0.14416,-0.0288 0.27711,-0.041 0.40821,-0.041 h 0.2832 l 0.2793,-0.0469 c 0.24889,-0.0415 0.49121,-0.0605 0.73242,-0.0605 1.23917,0 3.00125,0.15583 5.19141,0.49805 2.19987,0.34372 4.40206,0.79045 6.60742,1.3418 2.20778,0.55194 4.2242,1.13707 6.05664,1.74609 1.72786,0.64667 2.87034,1.30035 3.07617,1.46875 l 2.4043,1.9668 2.19531,-2.19727 c 1.37673,-1.37672 2.93138,-2.70269 4.67188,-3.97461 l 0.0351,-0.0234 0.0332,-0.0273 c 1.72817,-1.32936 3.51388,-2.48399 5.35938,-3.47266 1.87546,-1.0047 3.73335,-1.83334 5.57812,-2.49218 1.81309,-0.64753 3.47645,-1.04827 4.97852,-1.22852 l 3.59961,-0.43164 -0.62891,-3.57226 c -0.25295,-1.43338 -0.48123,-2.87515 -0.68359,-4.32618 h 5.58594 c -0.7667,1.31465 -1.43979,2.74903 -1.98242,4.37696 l -0.01,0.0312 -0.01,0.0312 c -0.79445,2.54226 -1.28257,5.08118 -1.44531,7.60351 l -0.22265,3.46094 3.46289,0.1875 c 2.58498,0.13973 4.79117,0.34847 6.59179,0.61523 l 0.0605,0.01 0.0625,0.006 c 1.78627,0.19847 3.28552,0.49464 4.46875,0.84961 l 0.0762,0.0215 0.0762,0.0195 c 1.20456,0.30115 2.13689,0.67533 2.80078,1.05469 l 0.043,0.0234 0.0449,0.0254 c 0.83868,0.4473 1.56675,0.96224 2.21093,1.55273 l 2.03907,1.86914 2.25976,-1.5957 c 0.94303,-0.66567 2.22108,-1.34859 3.83008,-1.99219 1.63098,-0.65239 3.41765,-1.21638 5.36133,-1.68554 1.95241,-0.47128 4.01966,-0.84597 6.20507,-1.11914 2.16796,-0.271 4.29324,-0.40625 6.37696,-0.40625 h 4.25781 l -0.9043,-4.16016 c -0.2834,-1.30364 -0.54229,-3.59439 -0.68164,-6.65625 v -0.004 c -0.0577,-1.29836 -0.10431,-2.67139 -0.13867,-4.11914 h 10.50195 v 14.0625 l 1.89649,0.94922 c 1.10048,0.55024 2.51288,1.29084 4.21875,2.21485 1.67752,0.90866 3.32016,1.85273 4.92578,2.83007 l 2.16797,1.31836 1.89648,-1.68554 c 0.42374,-0.37665 1.19018,-0.9426 2.23828,-1.59766 1.05356,-0.65847 2.18206,-1.29025 3.38672,-1.89258 l 0.0664,-0.0332 0.0645,-0.0352 c 1.22957,-0.68309 2.49479,-1.33439 3.79688,-1.95117 1.27636,-0.60459 2.46636,-1.09819 3.56054,-1.48437 l 2.28907,-0.8086 v -7.19531 l -3.25,-0.16992 c -1.98139,-0.10428 -3.33077,-0.70941 -4.63282,-2 -0.55011,-0.57881 -1.01723,-1.38439 -1.32617,-2.52149 h 13.69727 c -0.0345,1.58438 -0.0907,3.16967 -0.16992,4.75391 -0.13136,2.55045 -0.52991,4.55198 -1.07032,5.95703 l -1.76171,4.57813 4.90429,0.084 c 3.95345,0.0682 7.38961,0.51379 10.29688,1.28906 l 0.008,0.002 0.01,0.002 c 3.01615,0.78681 5.72165,1.91977 8.15821,3.39453 l 2.52734,1.5293 6.22852,-7.49219 c 0.23988,0.35208 0.36893,0.72318 0.62695,1.07227 1.42727,1.93103 3.08136,3.55879 4.95898,4.81054 l 3.23438,2.15625 1.73828,-3.47656 c 0.29544,-0.59089 0.83777,-1.45818 1.61914,-2.5 0.76078,-1.01438 1.62389,-2.00671 2.5957,-2.97852 0.99879,-0.99878 1.9863,-1.88552 2.95704,-2.6621 l 0.01,-0.008 0.0117,-0.008 c 0.93857,-0.76259 1.71998,-1.19269 2.23047,-1.375 l 2.27734,-0.81445 v -6.33594 l -2.66015,-0.61328 c -0.52806,-0.12186 -0.83323,-0.27683 -1.07227,-0.41602 v -0.002 c -0.0122,-0.0224 -0.13487,-0.1856 -0.30078,-0.69336 -0.26292,-0.90153 -0.52861,-2.33054 -0.72852,-4.16797 -0.1327,-1.95358 -0.20507,-4.62712 -0.20507,-8.0039 0,-5.16817 0.14843,-9.0632 0.41015,-11.57227 0.31171,-2.33274 0.93675,-3.97951 1.67383,-5.03906 l 3.75,-5.39063 h -6.56641 c -3.26848,0 -5.86293,-0.54902 -7.88281,-1.49414 -2.06352,-1.07177 -4.18295,-2.7248 -6.32226,-5.05859 l -1.875,-2.04492 -2.39063,1.40234 c -1.64458,0.96406 -4.29479,1.98434 -7.8418,2.87109 -3.3813,0.84532 -7.58077,1.30078 -12.55664,1.30078 h -1.16992 c -0.52022,-0.11073 -0.91831,-0.10742 -1.3125,-0.10742 h -3.21094 v -1.40429 h -15.22265 v -2.29102 c 0,-0.52071 0.0327,-1.58595 0.10351,-3.07422 v -0.006 -0.004 c 0.069,-1.51815 0.17267,-3.07485 0.31055,-4.66797 0.21026,-1.67868 0.42162,-3.25603 0.63086,-4.72071 0.19652,-1.37564 0.45478,-2.3313 0.54492,-2.55664 l 3.49414,-8.74218 -8.30273,4.4414 c -2.99792,1.60354 -5.79755,2.9135 -8.38672,3.93555 -2.37751,0.93849 -5.00353,1.51794 -7.92773,1.71289 l -6.55665,0.43555 3.89649,4.87304 c -0.0342,-0.0415 -0.0559,-0.0662 -0.0645,-0.0703 h -0.002 -0.002 v 0.002 0.002 0.002 c 0.008,0.0591 0.22673,0.48527 0.33789,1.07813 l 0.004,0.0215 0.004,0.0195 c 0.19005,0.95024 0.3571,2.074 0.49219,3.35742 l 0.002,0.01 v 0.01 c 0.13703,1.2332 0.24014,2.46688 0.3086,3.69922 l 0.006,0.10547 0.0137,0.10352 c 0.13666,1.16158 0.1914,2.009 0.1914,2.29883 v 1.76562 c -2.18507,1.77998 -4.4234,3.19857 -6.76562,4.10352 l -1.58594,0.61328 c 0.0641,-0.14808 0.14588,-0.25549 0.20899,-0.40625 l 1.84375,-4.40625 -4.76368,-0.3418 c -8.74785,-0.62984 -15.15492,-2.11735 -18.98828,-4.06445 l -1.42578,-0.72266 -1.46875,0.62305 c -4.67392,1.98287 -8.53765,3.41679 -11.50976,4.29492 -2.90958,0.85965 -5.53705,1.26367 -7.88086,1.26367 h -4.8125 l 1.56836,4.55078 c 0.63101,1.82994 1.08528,3.85387 1.34765,6.08399 l 0.006,0.0488 0.008,0.0488 c 0.32818,2.23163 0.50196,4.91934 0.50196,8.03125 0,1.30737 -0.0331,2.81017 -0.10352,4.5 -0.0675,1.54987 -0.24447,3.88752 -0.5293,6.94922 l -0.0937,1.00977 h -7.0254 c -0.44126,-4.32653 -0.6621,-8.73128 -0.6621,-13.21485 0,-6.17807 0.42475,-11.48981 1.23828,-15.89648 l 0.90429,-4.88867 -4.89257,0.88867 c -0.64658,0.11756 -1.33816,0.20626 -2.06446,0.26953 h -3.36719 c -2.57249,0 -5.44016,-0.26472 -8.58984,-0.8125 -3.04939,-0.53032 -7.0553,-1.60176 -11.91797,-3.22266 l -2.01172,-0.66992 -1.5,1.5 c -3.07026,3.07026 -6.20997,5.59377 -9.41211,7.59766 -3.19687,1.92847 -5.97196,3.03508 -8.20312,3.43555 l -2.75586,0.49414 c 0.26353,-1.25063 0.51035,-2.51383 0.66797,-3.83789 l 0.36133,-3.03516 -2.97461,-0.70899 c -2.91326,-0.69362 -5.55918,-1.45325 -7.94532,-2.26953 -2.36296,-0.88003 -4.13056,-1.71691 -5.16015,-2.36718 l -3.58203,-2.26368 -1.46875,3.97461 c -0.61053,1.65204 -1.32285,3.11606 -1.98633,4.66993 v -1.08399 l -3.74219,-6.23437 -2.4668,0.61718 c -2.25337,0.56335 -4.84259,1.16535 -7.7539,1.80469 -2.88253,0.56166 -5.54991,1.01913 -7.98633,1.36719 l -2.94531,0.41992 v 4.08008 h -6.44922 c -3.26847,0 -5.86291,-0.54902 -7.88281,-1.49414 -2.06351,-1.07177 -4.18297,-2.72482 -6.32227,-5.0586 l -1.875,-2.04492 -2.39062,1.40235 c -1.64457,0.96406 -4.29479,1.98434 -7.8418,2.87109 -3.3813,0.84532 -7.58076,1.30078 -12.55664,1.30078 h -1.16992 c -0.5202,-0.11072 -0.9183,-0.10742 -1.3125,-0.10742 h -3.21094 v -1.4043 h -15.22461 v -2.29101 c 0,-0.5207 0.0346,-1.58595 0.10547,-3.07422 v -0.004 -0.004 c 0.069,-1.51814 0.17266,-3.07486 0.31055,-4.66797 0.21026,-1.67868 0.42161,-3.25603 0.63085,-4.72071 0.19652,-1.37564 0.45283,-2.3313 0.54297,-2.55664 l 3.4961,-8.74218 -8.30274,4.4414 c -2.99791,1.60354 -5.79754,2.9135 -8.38672,3.93555 -2.37751,0.93849 -5.00549,1.51794 -7.92968,1.71289 l -6.55469,0.43555 3.89648,4.87304 c -0.0342,-0.0416 -0.0559,-0.0661 -0.0644,-0.0703 h -0.002 -0.002 v 0.002 0.002 0.002 c 0.008,0.059 0.22673,0.48525 0.33789,1.07813 l 0.004,0.0215 0.004,0.0195 c 0.19004,0.95024 0.35709,2.074 0.49218,3.35742 l 0.002,0.01 v 0.01 c 0.13702,1.2332 0.24013,2.46688 0.30859,3.69922 l 0.006,0.10547 0.0117,0.10352 c 0.13666,1.16158 0.19336,2.009 0.19336,2.29883 v 1.76367 c -2.18563,1.78072 -4.42276,3.20027 -6.76563,4.10547 l -2.19531,0.84765 v 6.97266 h 8.96094 v 20.25586 h -12.89453 c -0.10966,-2.44034 -0.16406,-4.86641 -0.16406,-7.27735 0,-4.11555 0.10665,-8.00812 0.31835,-11.67773 0.21507,-3.72771 0.42856,-7.0214 0.64258,-9.875 l 0.28907,-3.83008 -3.83985,0.14453 c -3.82459,0.14432 -7.22012,0.28884 -10.1875,0.4336 -2.98975,0.14583 -5.6984,0.32751 -8.13281,0.54882 l -0.004,0.002 h -0.006 c -2.39039,0.2241 -4.61257,0.52453 -6.67383,0.90625 l -0.0117,0.002 -0.0117,0.002 c -0.70833,0.13622 -1.36171,0.33587 -2.05274,0.49219 -0.15553,-0.85196 -0.367,-1.7057 -0.48437,-2.55664 -0.26676,-1.93398 -0.40039,-3.86535 -0.40039,-5.79492 0,-2.29044 0.2289,-4.49455 0.68164,-6.62891 l 0.002,-0.01 0.002,-0.01 c 0.20546,-0.99791 0.67808,-1.8622 1.00391,-2.79687 0.43507,0.19997 0.76285,0.4365 1.22461,0.6289 1.80245,0.75102 3.60716,1.4283 5.41602,2.03125 l 0.0801,0.0274 0.0801,0.0234 c 1.84685,0.51712 3.59317,0.96161 5.24024,1.33594 l 0.0859,0.0195 0.0859,0.0156 c 1.7713,0.30805 3.2475,0.48242 4.58203,0.48242 3.95553,0 7.67369,-1.87106 10.59375,-4.96289 2.79386,-2.9582 4.96919,-6.5782 6.54492,-10.75391 l 2.38868,-6.32812 -6.51758,1.81054 c -1.18756,0.32988 -2.41431,0.62509 -3.67383,0.89258 -1.16554,0.18075 -2.36685,0.27735 -3.61328,0.27735 -2.02986,0 -3.97446,-0.16656 -5.8457,-0.48633 -1.9256,-0.40122 -3.74167,-0.89434 -5.44141,-1.48242 -0.001,-3.3e-4 -0.003,-0.002 -0.004,-0.002 h -0.002 c -1.65798,-0.59855 -3.20346,-1.25813 -4.63867,-1.97461 -1.41278,-0.7414 -2.60197,-1.43841 -3.54102,-2.06445 z m 129.04883,41.23633 v 2.17187 l 3.99414,1.72657 v 25.32031 h -9.54492 c -0.10803,-1.88614 -0.16602,-4.35204 -0.16602,-7.38477 0,-5.16816 0.14844,-9.0632 0.41016,-11.57226 0.31171,-2.33273 0.93675,-3.97952 1.67383,-5.03907 z m -51.19141,0.71094 0.0469,0.20117 c 0.54137,2.32016 1.16721,4.29245 1.96679,5.98047 l 0.0312,0.0645 0.0332,0.0644 c 0.85615,1.6267 1.85451,3.03397 3.09375,4.16992 l 0.0605,0.0547 0.0606,0.0527 c 1.19508,0.9959 2.57748,1.74953 4.0625,2.17382 l 0.13281,0.0391 0.13672,0.0273 c 1.32415,0.26483 2.70146,0.39062 4.12695,0.39062 2.20412,0 4.63882,-0.43067 7.48243,-1.19921 1.15603,-0.31245 2.21721,-0.79838 3.33789,-1.17579 v 3.53516 c -0.54984,0.2147 -0.9259,0.42307 -1.62305,0.63672 -1.46262,0.39736 -3.1153,0.77114 -4.96289,1.11328 -1.82212,0.33743 -3.76252,0.60984 -5.8125,0.81641 -1.99518,0.13654 -3.95274,0.20508 -5.87109,0.20508 -1.73944,0 -3.31457,-0.0995 -4.71875,-0.29102 l -5.90625,-0.80664 2.26953,5.51367 c 0.37111,0.9013 0.66986,2.02047 0.85351,3.36719 v 0.01 l 0.002,0.0117 c 0.15675,1.09732 0.25283,2.28233 0.28125,3.55274 h -14.13086 v -18.93164 l 9.41601,1.18945 0.73828,-2.95508 c 0.26775,-1.07098 0.75023,-2.24134 1.46485,-3.50195 0.81272,-1.30499 1.69978,-2.47497 2.67187,-3.50781 z m 248.82227,0.002 0.0469,0.20117 c 0.54137,2.32016 1.16721,4.29245 1.9668,5.98047 l 0.0312,0.0644 0.0332,0.0645 c 0.85616,1.6267 1.85452,3.03397 3.09375,4.16992 l 0.0606,0.0547 0.0625,0.0527 c 1.19509,0.9959 2.57553,1.74954 4.06055,2.17383 l 0.13281,0.0391 0.13672,0.0273 c 1.32414,0.26483 2.70341,0.39063 4.1289,0.39063 2.20412,0 4.63687,-0.43068 7.48047,-1.19922 1.15604,-0.31245 2.21721,-0.79838 3.33789,-1.17578 v 3.53515 c -0.55022,0.21482 -0.92731,0.42296 -1.625,0.63672 -1.46183,0.39702 -3.11472,0.77139 -4.96093,1.11328 -1.82212,0.33743 -3.76251,0.60984 -5.8125,0.81641 -1.99519,0.13654 -3.95275,0.20508 -5.8711,0.20508 -1.73943,0 -3.31456,-0.0995 -4.71875,-0.29102 l -5.90625,-0.80664 2.26953,5.51367 c 0.37112,0.90129 0.66988,2.02047 0.85352,3.36719 l 0.002,0.01 v 0.0117 c 0.15673,1.09712 0.25087,2.28063 0.2793,3.55078 H 422.45312 V 374.3125 l 9.41407,1.18945 0.74023,-2.95507 c 0.26775,-1.07099 0.74828,-2.24136 1.46289,-3.50196 0.81273,-1.305 1.69979,-2.47497 2.67188,-3.50781 z m -44.90625,2.22461 v 6.02734 h 8.96093 v 20.25391 h -10.56835 c -0.005,-0.71919 -0.008,-1.45401 -0.008,-2.20313 0,-4.7713 0.11248,-8.38516 0.3125,-10.71875 l 0.3418,-3.99609 -4,0.2793 c -3.11532,0.21734 -5.84001,0.43495 -8.17969,0.65429 -2.35842,0.2211 -4.50976,0.48077 -6.46289,0.78125 l -0.01,0.002 h -0.0117 c -1.8717,0.29947 -3.60931,0.64024 -5.21875,1.02343 l -0.0176,0.004 -0.0195,0.004 c -0.0979,0.0245 -0.18949,0.0628 -0.28711,0.0879 -0.0541,-1.22299 -0.0918,-2.44514 -0.0918,-3.66797 v -1.78321 c 1.13854,0.40766 2.2759,0.80989 3.41602,1.16993 l 0.0254,0.006 0.0234,0.01 c 1.57526,0.47258 3.12766,0.83224 4.66015,1.07422 1.50501,0.23763 2.89858,0.36523 4.20703,0.36523 3.08651,0 6.04421,-0.93953 8.33985,-2.83593 l 0.0332,-0.0273 0.0332,-0.0293 c 1.85201,-1.61044 3.26427,-3.86652 4.52149,-6.48047 z m -106.57032,4.89844 1.29883,1.62304 v 0.002 c 0.0116,0.0282 0.023,0.0593 0.0332,0.0937 0.0882,0.29776 0.21565,0.84142 0.3457,1.55665 0.26417,1.45296 0.50746,3.27622 0.7168,5.43945 l 0.006,0.0527 0.006,0.0547 c 0.27623,2.14074 0.48715,4.43606 0.62696,6.88281 v 0.002 0.004 c 0.11925,2.02719 0.18543,3.91888 0.20312,5.67188 H 264.762 v -4.66992 l 6.72656,-9.47071 7.92774,4.14258 1.77734,-2.04492 c 1.7474,-2.00952 3.12651,-4.42519 4.17969,-7.17969 l 0.006,-0.0156 0.004,-0.0156 c 0.25314,-0.68154 0.42506,-1.41986 0.63867,-2.1289 z m 1.22071,1.48242 h 0.002 v 0.002 l 0.002,0.002 c 0.009,0.0104 0.0319,0.0442 0.0566,0.0977 -0.0384,-0.0564 -0.0566,-0.089 -0.0605,-0.0996 z m 22.29687,1.23632 c 0.84599,0.23388 1.62571,0.47948 2.58399,0.69727 l 0.0371,0.008 0.0351,0.008 c 2.26969,0.46425 4.61733,0.71963 6.95313,1.00586 l -0.16406,23.26562 c -1.41118,-0.33186 -2.72011,-0.74475 -4.22657,-1.00195 -1.85467,-0.31665 -3.44717,-0.51571 -5.11719,-0.75 0.0679,-1.50753 0.14836,-3.0037 0.19141,-4.53516 0.14656,-2.71144 0.2207,-5.1443 0.2207,-7.31055 0,-2.72304 -0.0734,-5.41205 -0.2207,-8.0664 v -0.006 c -0.0563,-1.04071 -0.20509,-2.22528 -0.29297,-3.31446 z m 60.53906,17.71485 v 0.47461 c 0,1.96834 -0.10183,3.85525 -0.30273,5.66406 v 0.002 c -0.0622,0.53816 -0.20323,1.24615 -0.28516,1.82813 -3.72584,-1.58508 -7.56499,-3.24054 -10.1875,-4.15039 -1.40592,-0.48777 -2.56901,-0.81763 -3.73437,-1.13867 2.41821,-0.56929 4.76664,-1.17609 7.4043,-1.63086 l 0.0273,-0.006 0.0293,-0.004 c 2.70081,-0.51222 4.81127,-0.74612 7.04882,-1.03906 z m -156.72265,0.29297 v 6.45898 c -0.90221,-0.12042 -1.97574,-0.38781 -2.78906,-0.42187 h -0.006 c -0.5143,-0.0224 -0.9994,-0.0701 -1.50586,-0.0996 l 0.0977,-4.87305 c 0.8247,-0.1678 1.52969,-0.23766 2.45118,-0.47656 l 0.0566,-0.0156 0.0566,-0.0156 c 0.52988,-0.15701 1.10031,-0.38486 1.63867,-0.55664 z m 248.82422,0 v 6.45898 c -0.90475,-0.1208 -1.98149,-0.3879 -2.79688,-0.42187 -0.51412,-0.0224 -0.99957,-0.072 -1.50586,-0.10157 l 0.0977,-4.87109 c 0.82469,-0.1678 1.52969,-0.23766 2.45117,-0.47656 l 0.0566,-0.0156 0.0566,-0.0156 c 0.53046,-0.15717 1.10169,-0.38466 1.64063,-0.55664 z"
       inkscape:label="text"
       transform="scale(0.38458351)" /></g></svg>
