<?xml version="1.0" encoding="UTF-8" standalone="no"?>
<svg
   version="1.2"
   viewBox="0 0 219.21259 219.21259"
   width="58mm"
   height="58mm"
   id="svg1"
   sodipodi:docname="VojakRoleTokenLaser.svg"
   inkscape:version="1.4.2 (2aeb623e1d, 2025-05-12)"
   xml:space="preserve"
   xmlns:inkscape="http://www.inkscape.org/namespaces/inkscape"
   xmlns:sodipodi="http://sodipodi.sourceforge.net/DTD/sodipodi-0.dtd"
   xmlns="http://www.w3.org/2000/svg"
   xmlns:svg="http://www.w3.org/2000/svg"><sodipodi:namedview
     id="namedview1"
     pagecolor="#ffffff"
     bordercolor="#666666"
     borderopacity="1.0"
     inkscape:showpageshadow="2"
     inkscape:pageopacity="0.0"
     inkscape:pagecheckerboard="0"
     inkscape:deskcolor="#d1d1d1"
     inkscape:zoom="3.2843849"
     inkscape:cx="98.039666"
     inkscape:cy="124.07194"
     inkscape:window-width="1920"
     inkscape:window-height="940"
     inkscape:window-x="0"
     inkscape:window-y="0"
     inkscape:window-maximized="1"
     inkscape:current-layer="layer2"
     showgrid="false"
     inkscape:document-units="mm" /><defs
     id="defs1"><clipPath
       clipPathUnits="userSpaceOnUse"
       id="cp1"><path
         d="m 275.5,535.5 c -143.78,0 -260,-116.22 -260,-260 0,-143.78 116.22,-260 260,-260 143.78,0 260,116.22 260,260 0,143.78 -116.22,260 -260,260 z"
         id="path1" /></clipPath></defs><style
     id="style1">
		tspan { white-space:pre } 
		.s0 { fill: none;stroke: #ff0000;stroke-miterlimit:100 } 
	</style><g
     inkscape:groupmode="layer"
     id="layer2"
     inkscape:label="Content"
     style="display:inline"><path
       id="path4"
       style="display:inline;opacity:1;baseline-shift:baseline;overflow:visible;fill:none;stroke:#000000;stroke-width:0.49137929;stroke-dasharray:none;stroke-opacity:1;enable-background:accumulate;stop-color:#000000;stop-opacity:1"
       d="m 285.3125,62.230469 c -0.80733,0.0129 -1.9918,0.817192 -2.26953,1.65039 0.11439,-0.343175 0.18508,-0.265556 0.043,-0.189453 -0.14211,0.0761 -0.41416,0.150391 -0.61524,0.150391 -1.4146,0 -2.32983,0.504891 -3.66211,1.138672 -1.33227,0.633781 -2.81952,1.480137 -4.2207,2.425781 -13.7019,9.247333 -34.47123,16.522684 -57.80469,20.099609 -13.11016,2.009755 -17.69232,2.256568 -31.25781,1.683594 -4.40666,-0.186125 -8.83074,-0.431832 -12.39258,-0.677734 -3.56183,-0.245902 -6.40923,-0.527388 -7.10156,-0.65625 l -8.83008,-1.642578 5.69336,7.208984 0.26172,0.332031 -1.16016,0.132813 -6.35547,0.730468 -0.35937,12.318363 -0.37305,12.83593 9.00196,-0.83984 c -2.0186,1.30571 -4.09184,2.86154 -5.53321,4.37891 l -3.70117,3.89648 0.73242,12.79102 c 2.55829,44.71311 16.89183,96.09424 36.62891,131.0957 12.11486,21.48427 31.16765,43.7521 46.4707,54.04102 2.55933,1.72075 6.2053,4.52021 7.82227,5.98437 3.02666,2.74065 6.66026,4.86887 20.77929,12.32617 1.81092,0.95645 5.662,2.90796 8.62696,4.375 1.47905,0.7318 2.86586,1.41118 3.91211,1.91797 0.52312,0.2534 0.96026,0.46478 1.28711,0.61914 0.16342,0.0772 0.29715,0.13899 0.4082,0.18945 0.11105,0.0505 0.0835,0.0569 0.375,0.1543 0.7978,0.26643 0.95731,0.0943 1.15039,0.0547 0.19308,-0.0396 0.33038,-0.0845 0.47266,-0.13281 0.28456,-0.0965 0.57086,-0.21469 0.89648,-0.35938 0.65125,-0.28937 1.43728,-0.68095 2.26172,-1.13086 1.40095,-0.76453 5.04797,-2.46808 7.82812,-3.63672 2.79661,-1.17554 9.7193,-5.02757 16.41797,-8.89453 3.34934,-1.93348 6.58564,-3.85003 9.07618,-5.38281 1.24526,-0.76639 2.30349,-1.43443 3.11132,-1.97461 0.40392,-0.27009 0.74323,-0.50662 1.0293,-0.7207 0.28569,-0.2138 0.47392,-0.319 0.8125,-0.72657 -0.34405,0.41446 0.0125,0.006 0.34766,-0.24804 0.3351,-0.25356 0.81478,-0.60005 1.38672,-1.00391 1.14387,-0.80771 2.6666,-1.84643 4.27343,-2.9082 3.48064,-2.3 9.83473,-7.51672 14.51172,-11.85938 3.72416,-3.45793 5.78219,-5.40081 6.96875,-7.04687 0.59328,-0.82303 1.04959,-1.6806 1.04883,-2.73047 -7.6e-4,-1.04987 -0.54782,-1.91135 -1.01563,-2.45313 -0.45301,-0.52465 -2.66762,-3.9023 -4.27734,-6.78125 -1.70855,-3.05565 -5.22632,-8.70172 -7.92383,-12.73046 -0.47935,-0.71592 -0.73147,-1.22327 -1.14843,-1.89258 3.53835,2.75086 7.49739,5.5278 10.94531,7.64453 1.84136,1.13044 3.52355,2.08395 4.93359,2.77734 1.41005,0.6934 2.26528,1.22657 3.72266,1.22657 2.58508,0 4.88451,-1.55316 7.27734,-3.90821 2.39283,-2.35505 4.90351,-5.6723 7.54883,-9.86523 5.29064,-8.38586 11.09008,-20.28252 16.81641,-34.72656 11.9216,-30.07105 20.86312,-70.19541 22.51757,-101.10352 0.19133,-3.57438 0.47413,-6.82777 0.76563,-9.13867 0.14575,-1.15545 0.29754,-2.08468 0.42187,-2.63867 0.0312,-0.1392 0.0389,-0.14873 0.0625,-0.23047 0.0163,-0.0187 0.0562,-0.0432 0.0703,-0.0606 0.23425,-0.28941 0.31656,-0.49359 0.39062,-0.67773 0.14812,-0.36829 0.21336,-0.67314 0.2832,-1.03125 0.13969,-0.71622 0.24415,-1.60324 0.33399,-2.6875 0.17967,-2.16853 0.28711,-5.08402 0.28711,-8.29493 0,-5.19279 -0.0618,-8.28934 -0.49414,-10.88281 -0.43239,-2.59346 -1.26802,-4.580642 -2.58203,-7.177733 l -3.50391,-6.925781 -6.85352,1.027344 c -8.21168,1.231554 -37.86133,0.857789 -47.75976,-0.666016 -27.70691,-4.265248 -51.45222,-13.938519 -63.76172,-25.5625 -1.21429,-1.146472 -2.23046,-1.971603 -3.24414,-2.505859 -0.50684,-0.267128 -1.00517,-0.516807 -1.8125,-0.503906 z M 295.07422,105.75 c 0.79059,0.21297 1.57567,0.37897 2.4414,0.83398 4.32116,2.27113 15.94838,6.78576 20.05079,7.68165 0.8344,0.18222 1.30239,0.42818 1.68554,0.80468 0.38316,0.3765 0.74581,0.97089 1.04492,2.07422 0.59823,2.20665 0.7621,6.27442 0.48829,12.68945 -0.15497,3.63074 -0.22306,6.21156 -0.22266,7.84571 2e-4,0.81707 0.0109,1.36437 0.0605,1.83593 0.0124,0.1179 0.0253,0.23132 0.0586,0.38672 0.0333,0.15541 -0.0227,0.30857 0.36914,0.8418 0.1156,0.1573 0.36807,0.36908 0.69141,0.54688 -2.99529,2.67481 -6.41267,5.9611 -10.33789,10.02734 l -4.38868,4.54687 -0.008,-13.10351 c -0.003,-5.65061 -0.10659,-10.16486 -0.29687,-13.32031 -0.0951,-1.57773 -0.20763,-2.80473 -0.36133,-3.73828 -0.0768,-0.46678 -0.15122,-0.84785 -0.30664,-1.27149 -0.0777,-0.21182 -0.16314,-0.44002 -0.4043,-0.75391 -0.24116,-0.31388 -0.81973,-0.8457 -1.67969,-0.8457 -0.69321,0 -1.24932,0.36944 -1.52343,0.64844 -0.27412,0.27899 -0.38859,0.507 -0.48438,0.70703 -0.19158,0.40007 -0.27528,0.72978 -0.36133,1.11328 -0.17209,0.767 -0.29378,1.71163 -0.40234,2.90234 -0.21712,2.38144 -0.35425,5.69981 -0.39258,9.71485 -0.10434,10.93553 -0.33659,17.28954 -1.04883,21.30469 -0.71223,4.01514 -1.71478,5.6226 -3.87304,8.0039 -1.40461,1.54977 -2.45869,2.48715 -3.13086,2.89844 -0.67218,0.41129 -0.76931,0.3767 -1.08203,0.29492 -0.0504,-0.0132 -0.007,0.012 -0.0371,0.008 -0.0542,-0.13097 -0.29778,-0.92364 -0.42774,-2.71289 -0.26983,-3.71489 -0.28711,-11.25356 -0.28711,-25.96875 v -26.46875 l 0.81055,0.50196 c 1.13937,0.70418 2.24383,1.26579 3.2168,1.63672 0.48648,0.18546 0.9298,0.3279 1.42968,0.40429 0.49989,0.0764 1.25608,0.36299 2.24024,-0.62109 0.63241,-0.63242 0.63514,-1.20073 0.64844,-1.55469 0.0133,-0.35395 -0.0289,-0.61343 -0.0801,-0.87695 -0.10235,-0.52705 -0.27143,-1.05174 -0.49414,-1.64844 -0.44543,-1.1934 -1.11443,-2.63617 -1.9375,-4.14844 -0.6515,-1.19701 -1.19608,-2.268 -1.66797,-3.2207 z m 32,11.29102 c 0.11266,-0.009 0.439,0.0131 0.94726,0.15625 1.02502,0.28871 2.69656,1.02583 4.9336,2.06054 2.38576,1.10349 4.46785,1.80537 8.00781,2.13282 3.53996,0.32744 8.62097,0.36251 17.69727,0.3496 5.47911,-0.008 10.86886,-0.10923 15.1582,-0.26757 2.14467,-0.0792 4.01314,-0.17123 5.49219,-0.27539 1.47905,-0.10417 2.4791,-0.18723 3.28906,-0.37305 l 1.12695,-0.25781 -0.58789,11.76171 c -0.66957,13.41992 -4.13331,45.91418 -5.57812,52.94141 -0.0446,0.21701 -0.11177,0.32811 -0.16602,0.53125 -0.36179,-0.39763 -0.72249,-0.79394 -1.22461,-1.29883 -1.3439,-1.35132 -3.16528,-3.06945 -5.16992,-4.86133 l -7.19922,-6.43359 -2.91992,2.58984 4.93945,7.07032 c 2.6285,3.76213 4.69729,6.98749 6.08203,9.4414 0.63985,1.13388 1.0931,2.05659 1.42188,2.81055 -0.98611,0.0977 -2.19983,0.19129 -3.82422,0.26758 -3.73994,0.17565 -8.85686,0.28107 -14.22656,0.30859 -10.73941,0.055 -22.74579,-0.24886 -26.35547,-0.79101 l -3.25,-0.48828 -0.50391,-8.59766 -0.59961,-10.18945 -3.92773,0.0762 -0.20508,10.45703 c -0.0896,4.56326 -0.23106,7.19568 -0.45508,8.32226 -0.0663,0.33319 -0.0312,0.23488 -0.0469,0.27735 -1.30373,0.0483 -2.87613,0.26261 -4.17383,0.61133 -0.51278,0.13778 -0.70111,0.13151 -0.83594,0.13672 -0.0876,-0.2304 -0.41601,-1.71298 -0.41601,-4.5586 0,-1.28194 -0.003,-2.2634 -0.0449,-3.05469 -0.0419,-0.79128 0.0149,-1.33033 -0.4707,-2.22265 -0.24282,-0.44617 -0.87228,-1.06203 -1.62109,-1.19531 -0.74881,-0.13329 -1.26513,0.10281 -1.60157,0.27929 -0.65699,0.34465 -0.99568,0.69972 -1.46093,1.12305 -0.19985,-0.37609 -0.39302,-0.73698 -0.69727,-1.375 -1.61543,-3.38759 -1.99218,-5.21604 -1.53711,-6.66992 0.45507,-1.45388 2.07057,-3.21744 5.59571,-5.8125 1.74104,-1.28169 3.56753,-2.52721 5.07617,-3.48242 1.50863,-0.95522 2.94927,-1.66514 2.93359,-1.66016 0.80033,-0.25403 1.50556,-0.61712 2.11524,-1.09961 0.60967,-0.48249 1.36523,-1.03737 1.36523,-2.44336 0,-1.18807 -1.05989,-2.47139 -2.06055,-2.79297 -1.00065,-0.32157 -1.8862,-0.21425 -2.80468,-0.006 -1.83698,0.41679 -3.83824,1.42871 -5.64063,2.94531 -1.58525,1.33392 -3.23414,2.32235 -4.58203,2.96875 0.38852,-0.72522 0.78725,-1.48428 1.50781,-2.48242 1.86377,-2.58173 4.77684,-6.0704 8.7793,-10.50586 3.99505,-4.42726 7.28958,-8.29794 9.37109,-10.95898 1.04076,-1.33052 1.75721,-2.30012 2.21094,-3.11914 0.11343,-0.20476 0.21453,-0.39756 0.31055,-0.68164 0.096,-0.28409 0.42217,-0.70576 -0.0918,-1.7168 -0.25699,-0.50552 -0.89417,-0.96021 -1.37695,-1.06641 -0.48278,-0.10619 -0.78924,-0.0316 -1.00782,0.0254 -0.43714,0.114 -0.62579,0.24391 -0.83789,0.375 -0.79188,0.4894 -2.09508,1.69347 -3.11523,2.5 0.012,-0.10254 0.0392,-0.16716 0.0547,-0.28907 0.0851,-0.67099 0.1748,-1.54766 0.27343,-2.64062 0.19727,-2.18593 0.42334,-5.23223 0.65821,-9.09766 0.20027,-3.29625 0.36483,-5.76279 0.61133,-7.42187 0.24326,-1.63733 0.65422,-2.32006 0.6582,-2.33203 z m -102.80078,7.71484 c 0.25486,1.24174 0.31004,1.225 0.65039,3.07812 1.45147,7.90296 2.03852,11.60713 2.94922,13.92579 0.45534,1.15932 1.24015,2.20965 2.30273,2.65625 1.06258,0.44659 1.86102,0.34527 2.64258,0.37109 1.48998,0.0492 7.34635,0.41929 12.76367,0.81445 l 2.99024,0.21875 -2.86329,1.49805 c -2.42021,1.2664 -4.8784,2.42195 -6.8457,3.24609 -0.98365,0.41207 -1.84738,0.74109 -2.49609,0.95508 -0.64871,0.21399 -1.21655,0.27149 -0.96094,0.27149 -0.85102,0 -1.63021,0.13071 -2.37109,0.45703 -0.37044,0.16316 -0.7426,0.37191 -1.10352,0.74609 -0.36092,0.37418 -0.72656,1.00412 -0.72656,1.74805 0,0.6234 0.0815,0.59888 0.12304,0.73242 0.0416,0.13354 0.0849,0.25436 0.13672,0.39258 0.10372,0.27644 0.2396,0.6121 0.41016,1.01953 0.34112,0.81486 0.81907,1.90849 1.39648,3.20508 1.15483,2.59318 2.7058,5.98734 4.3086,9.44336 1.38657,2.98977 2.75224,5.88384 3.99219,8.48046 -0.17034,-0.13505 -0.25152,-0.18924 -0.42579,-0.32812 -4.17577,-3.32793 -9.45432,-7.7295 -13.30273,-11.18164 -2.07568,-1.86195 -4.04905,-3.55296 -5.58008,-4.79688 -0.76551,-0.62196 -1.41691,-1.13045 -1.94336,-1.50976 -0.26322,-0.18966 -0.48954,-0.34624 -0.72461,-0.48633 -0.11753,-0.07 -0.23428,-0.13597 -0.39843,-0.20898 -0.16416,-0.073 -0.31373,-0.20508 -0.91797,-0.20508 -0.69664,0 -0.90819,0.19731 -1.09375,0.30469 -0.18557,0.10737 -0.30191,0.19874 -0.41602,0.29101 -0.22821,0.18454 -0.42768,0.3758 -0.65234,0.60352 -0.44934,0.45543 -0.9811,1.05069 -1.59961,1.77734 -1.23702,1.4533 -2.80088,3.41817 -4.42774,5.58398 -2.73841,3.64559 -6.53186,8.05248 -9.25781,11.01563 1.23931,-2.30931 2.40669,-4.70266 2.98438,-6.45313 0.62392,-1.8905 2.64501,-6.51033 4.34179,-9.82812 0.87378,-1.70854 1.66681,-3.28195 2.2461,-4.45117 0.28964,-0.58461 0.52617,-1.068 0.69531,-1.42383 0.0846,-0.17791 0.15117,-0.32094 0.20703,-0.44727 0.0279,-0.0632 0.0519,-0.11975 0.082,-0.19726 0.0151,-0.0388 0.0322,-0.0804 0.0566,-0.1582 0.0244,-0.0778 0.0937,-0.0708 0.0937,-0.60547 0,-0.63508 -0.27917,-1.05148 -0.46094,-1.26953 -0.18176,-0.21806 -0.31525,-0.30902 -0.41796,-0.37891 -0.20543,-0.13978 -0.30985,-0.17797 -0.40235,-0.2168 -0.18499,-0.0776 -0.3024,-0.1116 -0.4375,-0.15039 -0.2702,-0.0776 -0.57175,-0.14781 -0.9375,-0.22656 -0.7315,-0.15751 -1.69535,-0.33734 -2.75781,-0.50977 -1.6292,-0.26437 -4.67193,-1.50093 -5.88086,-2.35937 -1.97034,-1.39907 -5.98306,-3.42102 -9.50195,-4.90235 -0.1402,-0.059 -0.19733,-0.10677 -0.33399,-0.16601 1.88332,-0.091 3.85198,-0.18243 6.2168,-0.19531 6.31225,-0.0344 13.12928,-0.34898 15.93945,-0.84766 1.05134,-0.18656 1.93693,-0.34047 2.83008,-0.68164 0.89315,-0.34117 1.76918,-0.93801 2.42774,-1.73828 1.3171,-1.60055 2.02028,-3.69811 3.47265,-7.61914 0.82755,-2.23421 1.57838,-4.40614 2.13086,-6.12891 0.27624,-0.86138 0.50331,-1.6073 0.66797,-2.21289 0.0963,-0.35407 0.1231,-0.66648 0.17969,-0.95117 z m 56.48828,54.78906 c 4.9651,0.23722 8.31438,2.0631 12.35156,5.95703 -2.61518,-0.62102 -5.46996,-0.69243 -8.25195,-0.25781 -2.61373,0.40834 -5.14068,1.24367 -7.30078,2.49219 0.13739,-0.30899 0.34683,-0.71107 0.45312,-0.97656 0.16186,-0.40428 0.28569,-0.73389 0.37891,-1.10352 0.0466,-0.18482 0.10444,-0.34846 0.0957,-0.75586 -0.004,-0.2037 0.007,-0.49757 -0.26172,-0.97852 -0.26904,-0.48094 -1.12284,-1.02734 -1.75,-1.02734 -0.7699,0 -1.14128,0.20781 -1.57812,0.4082 -0.43684,0.2004 -0.87378,0.44721 -1.33985,0.73829 -0.81717,0.51036 -1.73031,1.18931 -2.64062,1.89843 -0.0198,-0.31975 -0.0333,-0.68856 -0.3711,-1.13281 -0.40837,-0.53701 -1.20224,-0.83789 -1.70898,-0.83789 -0.80134,0 -1.24436,0.25904 -1.66992,0.50391 -0.42556,0.24487 -0.81129,0.53585 -1.21289,0.87304 -0.80321,0.67439 -1.65171,1.53969 -2.51367,2.52344 -0.0733,0.0836 -0.14151,0.18632 -0.21485,0.27148 0.87359,-2.34871 1.88729,-4.22413 3.26563,-5.41796 1.82039,-1.57672 4.31333,-2.50377 8.08984,-2.90821 2.35475,-0.25217 4.3768,-0.35566 6.17969,-0.26953 z m 8.50195,19.86133 c 0.40567,0.51878 0.93164,1.87285 0.93164,4.99805 0,2.25345 -0.13175,3.42336 -0.49023,4.30664 -0.35848,0.88328 -1.04779,1.75483 -2.58203,3.28906 -2.05904,2.05904 -3.16537,2.78256 -3.73243,2.87109 -0.56705,0.0885 -1.56325,-0.23085 -3.81445,-1.60351 -2.41164,-1.47048 -3.88477,-3.25628 -4.4668,-4.87305 1.52263,0.59519 3.13024,0.85 4.75,0.33594 1.10478,-0.35065 1.87822,-0.97082 2.82813,-1.75195 0.94991,-0.78114 1.95632,-1.73779 2.92187,-2.75196 0.96556,-1.01416 1.88488,-2.08133 2.64454,-3.09375 0.44635,-0.59487 0.69022,-1.16233 1.00976,-1.72656 z m -65.73633,8.87109 h 21.98047 l 0.71485,2.05078 c 0.46778,1.34191 0.53212,2.01993 0.52148,2.09375 -0.0106,0.0738 0.0645,0.0585 -0.58594,0.57422 -0.44962,0.35648 -0.78696,0.5589 -1.21875,1.1836 -0.21589,0.31235 -0.6393,0.96681 -0.32226,1.94726 0.31703,0.98046 1.16128,1.32228 1.56445,1.42774 0.80635,0.21092 1.22118,0.1173 1.91406,0.0586 0.69288,-0.0587 1.5555,-0.16583 2.66016,-0.31445 2.1449,-0.28857 3.23263,-0.25784 3.37695,-0.23438 0.0353,0.0696 0.10427,0.19114 0.22461,0.57032 0.059,0.18574 0.10045,0.80482 -0.79297,2.60351 -0.89342,1.79869 -2.61296,4.54217 -5.37695,8.61524 -1.95732,2.88432 -3.90954,5.64914 -5.46484,7.76562 -0.77766,1.05824 -1.45727,1.95703 -1.97852,2.61328 -0.52125,0.65626 -1.03178,1.16656 -0.87109,1.0332 -0.57546,0.47761 -1.0581,1.01501 -1.44727,1.5879 -0.38917,0.57288 -0.78515,1.06045 -0.78516,2.16406 10e-6,0.29344 0.0547,0.78501 0.44141,1.26758 0.38675,0.48257 1.04285,0.72316 1.44336,0.74804 0.80102,0.0498 0.98121,-0.16698 1.16992,-0.26758 0.37743,-0.20119 0.5558,-0.36454 0.80664,-0.57421 0.50169,-0.41935 1.11053,-0.99738 1.86328,-1.75 1.50551,-1.50525 3.53857,-3.67408 5.77735,-6.1836 2.19457,-2.45996 4.50207,-4.90497 6.43164,-6.83984 1.92956,-1.93487 3.67085,-3.45877 3.99609,-3.67188 1.20559,-0.78992 1.65158,-0.88418 1.47656,-0.89648 0.15651,0.10385 0.47074,0.3593 0.92188,0.76758 0.5238,0.47401 0.57323,0.61577 0.61133,0.65234 -0.32132,0.37491 -0.70112,0.78289 -0.73828,1.76172 -0.0202,0.531 0.21554,1.20943 0.58007,1.61914 0.36454,0.40971 0.74876,0.59168 1.06836,0.71094 1.27843,0.47702 2.3093,0.36537 4.2168,0.32422 2.31252,-0.0499 6.1419,0.37139 7.86328,0.82617 l 2.3086,0.60937 0.26953,23.07618 c 0.23633,20.10642 -0.16759,25.07077 -1.13867,27.11718 -1.37653,2.90086 -1.53613,5.36874 -0.52149,8.2793 0.78606,2.25494 0.76903,3.06695 -0.0762,5.10742 -0.59308,1.43184 -0.9409,2.86898 -0.84375,4.45117 0.0971,1.5822 0.5549,3.22675 1.32226,5.53711 0.47671,1.43523 0.83773,2.82151 1.02344,3.81641 0.0421,0.22531 0.0429,0.32106 0.0664,0.49805 -0.31544,0.1037 -0.67349,0.20858 -0.9961,0.25781 -0.27737,0.0423 -0.24075,0.0118 -0.19531,0.0312 0.0455,0.0195 -0.0457,0.005 -0.30273,-0.35156 -0.51407,-0.71338 -1.40711,-2.59826 -2.72461,-5.88282 -0.43668,-1.08867 -0.87431,-1.93846 -1.39649,-2.63086 -0.26108,-0.3462 -0.53986,-0.66038 -0.93945,-0.94336 -0.39958,-0.28297 -0.9959,-0.57923 -1.76953,-0.49804 -0.77363,0.0812 -1.45566,0.62634 -1.76953,1.10742 -0.31387,0.48108 -0.42239,0.91655 -0.49414,1.34766 -0.1435,0.8622 -0.0956,1.76976 0.0703,2.90039 0.0317,0.21623 0.0252,0.24998 0.0488,0.42968 -0.28289,-0.0505 -0.41601,-0.0621 -0.79883,-0.13867 -4.52106,-0.9042 -11.12739,-5.51373 -25.80664,-19.06445 -2.00284,-1.84885 -3.89983,-3.75338 -5.31055,-5.29883 -0.70536,-0.77272 -1.29002,-1.45862 -1.6914,-1.97656 -0.40138,-0.51795 -0.62117,-1.04435 -0.50977,-0.69336 0.11331,0.35699 -0.003,-0.70352 0.25195,-1.82227 0.25499,-1.11875 0.70475,-2.49387 1.25782,-3.74414 0.67586,-1.52796 1.18486,-2.67696 1.54492,-3.5625 0.36006,-0.88554 0.64046,-1.30715 0.66211,-2.33789 0.005,-0.25768 -0.004,-0.59946 -0.21094,-1.04101 -0.20667,-0.44156 -0.71693,-0.92563 -1.21289,-1.10157 -0.99192,-0.35187 -1.43572,-0.0413 -1.76563,0.0937 -0.6598,0.2701 -1.10884,0.59033 -1.76171,0.99805 -1.84609,1.15292 -3.26015,3.13164 -4.12305,5.21484 -0.23215,0.56048 -0.56865,1.05695 -0.85938,1.40625 -0.32002,-0.30538 -0.70048,-0.6945 -1.19336,-1.29101 -1.16396,-1.4087 -2.67678,-3.51555 -4.34375,-6.05859 -3.33392,-5.08609 -7.31123,-11.93305 -10.77929,-18.7754 -1.63408,-3.22397 -3.12103,-6.25726 -4.19141,-8.52929 -0.53519,-1.13602 -0.96628,-2.08314 -1.2539,-2.75196 -0.0843,-0.19594 -0.12638,-0.3053 -0.1836,-0.44726 0.0278,-0.0769 0.0299,-0.12722 0.0762,-0.20313 0.22793,-0.3737 0.58591,-0.85924 0.95899,-1.27148 0.43364,-0.47917 0.87914,-0.97238 1.17383,-1.75977 0.29469,-0.78738 0.23881,-1.82276 -0.0762,-2.59179 -0.62997,-1.53807 -1.77631,-2.66229 -3.78515,-4.82422 -2.11989,-2.28144 -3.80079,-4.79115 -4.78516,-6.93555 -0.98436,-2.14439 -1.07691,-3.92139 -0.92383,-4.32031 0.26854,-0.69978 0.41782,-1.40732 0.21875,-2.25781 -0.0622,-0.2659 -0.29057,-0.54717 -0.46875,-0.82813 0.26788,0.12426 0.41341,0.31608 0.83203,0.3418 0.88906,0.0546 1.84596,-0.60136 2.19922,-1.0957 0.35327,-0.49435 0.49045,-0.88978 0.66016,-1.33204 -0.0309,0.0805 -0.41213,0.33857 -0.0742,0.21875 0.33792,-0.11981 1.27957,-0.30475 2.88477,-0.42187 3.2104,-0.23425 9.0838,-0.29102 19.40429,-0.29102 z m -27.85742,1.43161 c 0.18239,0 0.0375,0.0109 0.14844,0.0332 0.0185,0.0163 0.0363,0.0309 0.0547,0.0469 -0.0713,-0.007 -0.13411,-0.0801 -0.20313,-0.0801 z m 131.53711,4.08204 c 0.62671,-0.005 1.14677,0.0103 1.57031,0.0351 -0.10994,0.20094 -0.14325,0.30842 -0.30078,0.54883 -1.26269,1.92715 -2.36974,4.91278 -2.86133,7.42187 -0.41789,2.13311 -1.13209,5.26794 -1.54296,6.79493 -0.19698,0.73199 -0.37417,1.31733 -0.42774,2.04687 -0.0536,0.72955 0.24084,1.95874 1.07031,2.58789 0.82947,0.62916 1.56502,0.66819 2.33594,0.72852 0.77092,0.0603 1.6539,0.0581 2.80274,0.0566 2.83238,-0.004 6.75232,-0.50768 9.32031,-1.2207 0.85557,-0.2372 1.59922,-0.37495 2.26758,-0.48829 -0.0459,0.85488 -0.14027,1.91272 -0.31446,3.07422 l -0.49023,3.26563 -7.63281,0.2539 -11.16993,0.3711 v 11.01953 c 0,5.11971 0.39574,12.1537 0.91602,15.97851 l 0.64648,4.75782 -0.83007,0.16015 -0.65625,0.12696 c -1.8214,0.35316 -4.83194,0.93733 -6.69141,1.29882 l -0.67383,0.13086 0.35156,-2.48437 c 0.40777,-2.88601 1.18178,-8.6343 1.72266,-12.80469 0.52654,-4.05957 1.58841,-9.01483 1.99414,-10.08203 0.5053,-1.32905 0.896,-2.37185 1.08008,-3.41992 0.18408,-1.04807 0.0517,-2.50625 -0.94727,-3.41016 -0.99892,-0.90391 -2.09157,-1.00452 -3.28711,-1.07031 -1.19553,-0.0658 -2.62561,-0.006 -4.47461,0.0898 l -5.06054,0.26172 -0.375,-2.31054 c -0.15683,-0.96645 -0.23804,-1.87026 -0.26758,-2.57032 0.28856,-0.0258 0.49968,-0.0523 0.87305,-0.0742 1.39157,-0.0815 3.29187,-0.12898 5.31445,-0.11523 l 9.4707,0.0644 v -8.66015 c 0,-5.30752 -0.66536,-8.21055 -2.6875,-10.78125 -0.2515,-0.31974 -0.36722,-0.54629 -0.56836,-0.8418 0.0164,-0.003 0.0225,-0.005 0.0391,-0.008 1.26159,-0.19287 2.948,-0.37365 4.65625,-0.50586 1.70825,-0.13222 3.44842,-0.21603 4.82812,-0.22656 z m -37.19413,97.84232 c 6.24913,-4.24661 7.50332,-6.55608 7.62636,-14.04348 0.064,-3.8957 0.43981,-9.97894 0.83507,-13.51835 l 0.71868,-6.43529 1.48405,12.60245 c 0.81624,6.93132 1.6489,12.60242 1.85038,12.60242 0.2015,0 4.92204,-2.17193 10.49006,-4.82646 5.56806,-2.65457 10.51334,-4.82415 10.98953,-4.82115 3.41975,0.0211 -17.57885,13.04141 -28.32883,17.56557 -7.62534,3.20912 -9.53472,3.5038 -5.6653,0.87429 z m 60.13166,-54.28783 c -4.09913,4.66865 -5.10516,4.71921 -1.95944,0.0985 10.22827,-15.02428 13.68612,-20.88254 19.27838,-32.66129 7.00994,-14.76473 7.0165,-14.66329 -1.02945,-15.88006 -6.89311,-1.04246 -5.47836,-2.01488 3.48984,-2.39872 9.23124,-0.39511 9.1448,-0.52135 5.9673,8.71422 -3.95748,11.50268 -15.63723,30.6134 -25.74663,42.12736 z m -79.779,-156.56437 c -0.31522,-0.821411 -2.6594,-2.198059 -5.20936,-3.059211 l -4.63625,-1.565775 4.59543,-0.795247 c 5.31466,-0.919674 7.73888,0.447224 7.73888,4.363658 0,2.780715 -1.57112,3.447745 -2.4887,1.056575 z m 17.60349,-1.394305 c -0.8472,0.847235 -1.17167,0.508966 -1.17167,-1.221563 0,-3.243723 2.02762,-3.786266 6.76012,-1.808889 5.13797,2.146764 5.04647,3.128038 -0.22569,2.4209 -2.37448,-0.318488 -4.6989,-0.05428 -5.36276,0.609552 z m 12.77145,0.742665 c -0.58989,0 -1.07255,-0.482641 -1.07255,-1.072531 0,-0.58989 0.48266,-1.072559 1.07255,-1.072559 0.5899,0 1.07256,0.482669 1.07256,1.072559 0,0.58989 -0.48266,1.072531 -1.07256,1.072531 z"
       sodipodi:nodetypes="scsssssssccccccccccccsssssssscscsssssssccsssssssscsssssssssccssssscccscssscsssssssssccccsssssssssssssscssccssssssscccssscsscccscsccccscssccccccscscssssscsssscssscscsssssssssccssscccsssscccsscsssccsssccssssssssssscsssssssssssssssscsssssssccscscssccssscssssscssscssssscsssscccsssssssscssssscsssssssssscscsssscccsssssscsscsssssssccsssssssccscsscssssscsssssssscsscssccsccssccsssssscccccccscccccccsssssccsccscssccsccssscssscsssssssssssscsssssssssssss"
       transform="scale(0.38458351)"
       inkscape:label="znak" /><path
       id="path6"
       style="display:inline;opacity:1;font-size:107.967px;font-family:'New Rocker';-inkscape-font-specification:'New Rocker';letter-spacing:2px;baseline-shift:baseline;white-space:pre;overflow:visible;fill:none;stroke:#000000;stroke-opacity:1;enable-background:accumulate;stop-color:#000000;stop-opacity:1;stroke-width:0.49137929;stroke-dasharray:none"
       d="m 338.02801,366.72179 -2.48849,4.92619 c -0.59095,1.18192 -1.36535,2.62036 -2.33613,4.2152 v 0.0508 h -0.0508 c -0.89861,1.58986 -1.85323,3.22758 -2.89478,4.82462 h -0.0508 c -1.00227,1.575 -1.96563,3.09046 -2.89477,4.51991 v 0.0508 l -0.0508,0.0508 c -0.86806,1.44677 -1.56641,2.61997 -2.0822,3.50419 l -1.47278,2.53928 2.28535,1.87906 c 0.95621,0.76497 1.59994,1.38236 1.82827,1.67592 l 0.10157,0.15235 0.15236,0.15236 c 0.72749,0.72749 1.69299,1.56282 2.89477,2.53927 l 0.86335,0.711 v 5.53562 c -0.87961,0.28067 -1.85609,0.55289 -2.89477,0.81256 -3.3813,0.84533 -7.56814,1.26964 -12.54401,1.26964 h -1.16806 c -0.51726,-0.10915 -0.92746,-0.10157 -1.32042,-0.10157 h -4.31677 l 0.96493,4.21519 c 0.54137,2.32016 1.18103,4.30466 1.98063,5.99269 v 0.0508 l 0.0508,0.10157 c 0.85615,1.62669 1.85869,3.02845 3.09791,4.16441 l 0.0508,0.0508 0.0508,0.0508 c 1.19509,0.9959 2.57783,1.75948 4.06284,2.18377 h 0.15235 l 0.15236,0.0508 c 1.32415,0.26484 2.68812,0.40628 4.11362,0.40628 2.20412,0 4.62185,-0.45031 7.46546,-1.21885 1.15612,-0.31247 2.23108,-0.79063 3.35184,-1.16806 v 3.50419 c -0.55411,0.21634 -0.9215,0.44499 -1.62513,0.66021 -1.45933,0.39598 -3.13507,0.7762 -4.97698,1.11729 -1.82272,0.33754 -3.7388,0.60597 -5.78954,0.81256 -1.99448,0.13646 -3.97339,0.20314 -5.89111,0.20314 -1.73943,0 -3.31887,-0.11322 -4.72305,-0.30471 l -5.89111,-0.81257 2.28534,5.53562 c 0.37112,0.90129 0.67972,2.00513 0.86336,3.35184 v 0.0508 c 0.12473,0.87313 0.20929,1.75959 0.25392,2.74242 h -7.41467 v -30.62363 l -3.75813,-6.24661 -2.48849,0.60942 c -0.55604,0.13901 -1.134,0.26426 -1.7267,0.40629 v -4.26598 l 0.45707,-0.91414 c 1.07918,-2.15836 2.334,-3.81351 3.65655,-5.07855 1.5735,-1.50794 3.50423,-3.12482 5.84033,-4.77383 l 4.41833,-3.09791 -4.67226,-2.64085 c -0.38081,-0.21761 -1.10742,-0.67718 -2.03142,-1.26963 -0.89024,-0.68302 -1.83567,-1.39262 -2.84398,-2.13299 -0.95486,-0.75024 -1.90899,-1.48766 -2.7932,-2.23456 -0.73602,-0.67946 -1.25266,-1.28086 -1.47278,-1.57435 l -1.72671,-2.33613 -2.59005,1.3712 c -2.56972,1.37051 -4.91869,3.27205 -6.95761,5.63719 v 0.0508 c -1.84789,2.15588 -3.43758,4.32261 -4.77384,6.60211 l -1.47277,2.48848 2.18377,1.87907 c 0.58559,0.50193 1.37346,1.08775 2.33613,1.82827 0.92561,0.712 1.84481,1.44949 2.84399,2.23456 0.94526,0.74271 1.8471,1.50697 2.64084,2.23456 l 0.10157,0.10157 0.10157,0.10157 c 0.83122,0.63941 1.36322,1.13335 1.52357,1.32043 l 0.71099,0.81256 v 4.72305 c -0.46044,0.10261 -0.94192,0.19923 -1.42199,0.30471 -2.89875,0.56546 -5.57581,1.02146 -8.0241,1.37121 l -2.94556,0.45707 v 6.39897 l 3.96127,1.7267 v 24.52938 h -7.71939 c -0.39019,-4.07949 -0.55864,-8.22382 -0.55864,-12.44244 0,-6.17807 0.40531,-11.48917 1.21885,-15.89585 l 0.91414,-4.8754 -4.92619,0.91414 c -0.64656,0.11756 -1.30514,0.19067 -2.03142,0.25393 h -3.40263 c -2.57249,0 -5.43305,-0.2648 -8.58274,-0.81257 -3.0494,-0.53033 -7.02112,-1.62938 -11.8838,-3.25027 l -2.03141,-0.66021 -1.52357,1.52356 c -3.07026,3.07026 -6.19317,5.56314 -9.39531,7.56703 -3.19687,1.92848 -5.94529,3.05295 -8.17646,3.45342 l -5.68797,1.01571 3.30106,4.11362 h 0.0508 v 0.0508 0.0508 l 0.0508,0.0508 v 0.0508 c 0.0882,0.29775 0.22545,0.85912 0.3555,1.57435 0.26417,1.45295 0.50164,3.2708 0.71099,5.43404 v 0.0508 0.0508 c 0.27623,2.14074 0.5204,4.46008 0.66021,6.90683 0.102,1.7339 0.17513,3.34131 0.20315,4.8754 H 207.4586 c 0.19734,-1.06295 0.40148,-2.10707 0.66021,-3.19948 0.60639,-2.56036 1.40142,-5.02052 2.33613,-7.3639 0.93489,-2.17119 2.02934,-3.75846 3.19948,-4.8754 l 1.52357,-1.47278 -0.60943,-2.03142 c -0.55946,-1.81824 -0.93069,-3.13815 -1.01571,-3.60576 -0.10139,-0.55766 -0.15235,-1.22091 -0.15235,-1.98064 0,-3.87257 0.40349,-7.26464 1.11728,-10.25866 0.81252,-3.1746 1.78453,-5.95598 2.94555,-8.27803 v -0.0508 c 1.19866,-2.46389 2.52235,-4.54301 3.91048,-6.24662 1.49774,-1.83813 2.89396,-3.32572 4.16441,-4.46912 h 0.0508 l 0.0508,-0.0508 c 1.32622,-1.25991 2.4328,-2.14896 3.30106,-2.69163 1.1353,-0.70956 1.97474,-1.23726 2.38691,-1.47278 l 11.22359,-6.39897 h -12.95029 c -2.17881,0 -4.10418,0.16749 -5.89112,0.50786 -1.55369,0.29594 -3.04279,0.64248 -4.46912,1.01571 l -4.01205,0.81256 c -1.0944,0.23041 -2.40314,0.3555 -3.85969,0.3555 h -2.89477 c -1.03294,-0.0659 -2.16394,-0.12516 -3.40263,-0.25392 -1.16175,-0.19601 -2.35836,-0.48431 -3.60577,-0.81257 -1.12111,-0.29503 -2.16006,-0.69546 -3.1487,-1.21885 l -4.41833,5.02776 c 0.80889,1.14592 1.61291,2.38347 2.4377,3.75812 l 0.0508,0.0508 v 0.0508 c 0.62235,0.95747 0.86335,1.78408 0.86335,2.69163 v 0.96492 0.0508 c -0.006,0.051 -0.0323,0.16027 -0.0508,0.25393 l -11.02044,56.47343 -0.711,0.76178 -0.86335,-0.96492 -13.50893,-56.42265 c -0.0395,-0.19332 -0.0604,-0.37761 -0.10157,-0.55864 v -0.55864 c 0,-1.07575 0.18741,-2.0937 0.60942,-3.1487 V 382.11 c 0.48227,-1.26598 1.09048,-2.37859 1.77749,-3.35184 l 4.77384,-6.80525 -8.17646,1.42199 c -1.16413,0.20543 -2.2152,0.37119 -3.09791,0.50785 -1.16721,0.11354 -2.30471,0.41291 -3.40263,0.86336 -1.13105,0.42097 -2.21418,1.02504 -3.30105,1.77749 l -0.0508,0.0508 -0.0508,0.0508 c -0.32565,0.24424 -0.72353,0.67466 -1.06649,0.96492 -1.12494,-0.97795 -2.40859,-1.70128 -3.91048,-2.28534 -1.65334,-0.64297 -3.60912,-1.06023 -5.84033,-1.37121 -2.37072,-0.40485 -5.13653,-0.60943 -8.48117,-0.60943 v 6.85604 l 0.0508,0.0508 c 0.17893,0.0845 0.73736,0.36516 1.62513,1.42199 1.26237,1.50282 2.60871,3.677 3.96127,6.44975 h 0.0508 v 0.0508 c 1.4243,2.78077 2.78717,6.08248 4.11362,9.85238 l 0.0508,0.0508 c 1.41464,3.81953 2.73469,7.79848 4.01205,11.98537 1.27427,4.10599 2.41244,8.23861 3.40263,12.34087 v 0.0508 c 1.06954,4.13553 2.0127,8.01116 2.7932,11.62987 0.78068,3.5486 1.41063,6.64866 1.82827,9.29374 0.39541,2.50422 0.53875,4.25992 0.55864,5.2309 l -2.23456,2.23456 3.8597,2.23456 c 3.10442,1.79367 6.15969,3.80599 9.14138,6.09426 l 0.0508,0.0508 c 2.91949,2.12326 5.90613,4.93402 8.93824,8.3796 l 2.69163,2.99635 2.53927,-3.09792 c 1.90722,-2.3159 4.36327,-4.94056 7.3131,-7.82096 2.83664,-2.69905 5.9851,-5.10777 9.4461,-7.21153 l 1.62513,-0.96493 v -1.92984 c 0,-0.22664 -0.0731,-0.43715 -0.10157,-0.66022 v -0.96492 c 0,-1.3707 0.11071,-3.26225 0.30472,-5.5864 h 15.94663 c -0.0925,2.65985 -0.3316,4.86132 -0.66021,6.55132 v 0.0508 c -0.32184,1.87731 -0.91657,2.86955 -1.01571,3.04713 l -9.95395,8.53195 12.84872,-2.53927 c 0.14416,-0.0288 0.27518,-0.0508 0.40628,-0.0508 h 0.30472 l 0.25392,-0.0508 c 0.2489,-0.0415 0.52057,-0.0508 0.76179,-0.0508 1.23918,0 2.98995,0.16564 5.18011,0.50785 2.19987,0.34373 4.39673,0.76908 6.60211,1.32042 2.20279,0.5507 4.21431,1.11918 6.04347,1.72671 1.73925,0.64915 2.8913,1.30374 3.09791,1.47278 l 2.38692,1.98063 2.23456,-2.18378 c 1.37672,-1.37672 2.93175,-2.68935 4.67226,-3.96126 v -0.0508 h 0.0508 c 1.72817,-1.32937 3.48698,-2.51554 5.33247,-3.50419 1.87547,-1.00472 3.74163,-1.82964 5.5864,-2.48849 1.81308,-0.64753 3.47491,-1.0386 4.97698,-1.21885 l 3.60577,-0.45707 -0.60943,-3.55498 c -0.29752,-1.68593 -0.58522,-3.36818 -0.81257,-5.07855 h 7.21154 v 20.00947 c -0.87773,3.75089 -2.08787,7.24449 -3.65656,10.51259 v 0.0508 c -1.63363,3.47149 -3.70821,6.93769 -6.19582,10.4618 l -2.08221,2.99634 9.39531,5.89112 1.92985,-2.33613 c 1.93408,-2.34852 3.93537,-4.51098 5.99269,-6.50054 2.06513,-1.92582 4.04197,-3.63372 5.94189,-5.12933 1.98688,-1.4364 3.85278,-2.6564 5.5864,-3.65656 1.72516,-0.99529 3.25216,-1.67654 4.46913,-2.0822 l 2.33613,-0.81257 v -4.31676 l -1.01571,-1.01571 c -0.2883,-0.28829 -0.50352,-0.62862 -0.711,-1.16807 -0.2096,-0.54495 -0.46653,-1.57606 -0.66021,-2.99634 l -0.0508,-0.0508 c -0.18913,-1.32391 -0.28592,-3.04845 -0.35549,-5.18011 v -8.22725 -6.44975 h 7.41467 c -0.0324,1.84007 -0.11115,3.64488 -0.20314,5.48483 -0.13123,2.55162 -0.52592,4.5872 -1.06649,5.99268 l -1.77749,4.5707 4.92619,0.10157 c 3.95345,0.0682 7.40217,0.49436 10.30944,1.26963 3.01615,0.78682 5.73989,1.92787 8.17646,3.40263 l 2.48849,1.52356 6.24661,-7.51625 c 0.23963,0.35169 0.35169,0.76858 0.60943,1.11728 1.42728,1.93103 3.09935,3.5221 4.97697,4.77384 l 3.25027,2.18377 1.72671,-3.50419 c 0.29544,-0.59088 0.84376,-1.44666 1.62513,-2.48849 0.76078,-1.01437 1.61825,-2.02451 2.59006,-2.99634 0.99879,-0.99878 1.97483,-1.86425 2.94556,-2.64085 h 0.0508 c 0.93857,-0.76259 1.72409,-1.18889 2.23456,-1.3712 l 2.23456,-0.81257 v -6.34818 l -2.64084,-0.60943 c -0.52858,-0.12198 -0.82744,-0.267 -1.0665,-0.40628 v -0.0508 h -0.0508 l -0.0508,-0.0508 c -0.0462,-0.0998 -0.10323,-0.3036 -0.20314,-0.60943 -0.0839,-0.2876 -0.17171,-0.62462 -0.25393,-1.01571 h 8.93824 v 6.34818 c 0,1.65742 -0.23994,2.78639 -0.45707,3.30106 -0.0814,0.193 -0.17488,0.30458 -0.20314,0.3555 h -0.0508 l -2.23456,0.86335 v 7.41468 h 26.76393 v -7.41468 l -2.23456,-0.81257 v -0.0508 h -0.0508 c -0.0378,-0.0758 -0.0629,-0.21511 -0.15236,-0.45707 -0.263,-0.71108 -0.50784,-2.19303 -0.50785,-4.2152 v -9.80159 c 0.664,0.33169 1.3945,0.61564 2.03142,0.96492 h 0.0508 l 0.0508,0.0508 c 1.59513,0.82329 3.15644,1.81712 4.72304,2.84399 v 7.05917 c 0,1.24718 -0.0672,2.61882 -0.20314,4.11363 -0.13887,1.52749 -0.30055,3.01797 -0.50785,4.46912 -0.19868,1.39075 -0.48888,2.68046 -0.81257,3.91048 v 0.10157 0.0508 c -0.26103,1.2399 -0.59448,2.2465 -0.86335,2.94556 l -1.21885,3.25027 6.19582,2.28534 1.52357,-1.52356 c 0.72371,-0.72371 1.67566,-1.53098 2.7932,-2.38692 1.20822,-0.87056 2.53228,-1.75624 3.96126,-2.64084 1.45732,-0.90215 2.93997,-1.80676 4.46912,-2.64084 1.51634,-0.8271 2.9683,-1.52618 4.31677,-2.13299 l 2.53927,-1.11728 -0.60943,-2.74242 c -0.41295,-1.88775 -0.66021,-4.92519 -0.66021,-8.88745 0,-1.9324 0.0359,-3.55708 0.10157,-4.97698 0.1337,-1.38653 0.29376,-2.82455 0.55864,-4.21519 l 0.45707,-2.33613 -2.0822,-1.21885 c -2.60462,-1.53213 -5.41115,-2.90502 -8.43039,-4.11362 -0.33514,-0.13738 -0.71989,-0.27452 -1.06649,-0.40629 l 9.80159,-3.70734 -0.76178,-2.94555 c -0.0379,-0.15147 -0.13719,-0.96097 -0.20314,-2.08221 -0.0694,-1.18031 -0.10157,-2.10544 -0.10157,-2.7932 0,-2.69999 0.30045,-4.9012 0.81256,-6.55132 l 1.11728,-3.60577 -3.70733,-0.76178 c -3.7639,-0.76671 -6.97515,-1.61683 -9.59846,-2.48849 -2.4912,-0.92184 -4.70478,-2.03616 -6.60211,-3.30105 l -2.33613,-1.52357 -1.98063,1.98064 c -1.40288,1.40287 -2.5901,2.4576 -3.75812,3.50419 v -15.33721 c 1e-5,-4.14278 0.32277,-7.413 0.81256,-9.70002 0.55997,-2.28039 1.31354,-3.91334 2.18378,-4.97697 l -4.16441,-5.23091 c -3.09893,1.51503 -5.80449,2.55471 -8.12567,3.19949 -2.34645,0.65179 -4.48588,0.96492 -6.34818,0.96492 -1.81124,0 -3.09354,-0.22965 -3.80891,-0.50785 l -9.34453,-3.65656 5.12933,8.58275 c 0.5324,0.88733 0.94577,1.77083 1.21885,2.59006 l 0.0508,0.10157 v 0.10157 c 0.33908,0.84771 0.63466,1.73426 0.81257,2.74241 v 0.10157 l 0.0508,0.10157 c 0.23036,0.97901 0.34255,2.16587 0.40629,3.5042 l 0.0508,0.0508 v 0.10157 c 0.13079,1.37335 0.20314,2.96594 0.20314,4.82462 v 45.91005 h -9.49688 c -0.0825,-1.77148 -0.10157,-3.96571 -0.10157,-6.60211 0,-5.16815 0.14456,-9.07002 0.40629,-11.57908 0.31171,-2.33273 0.93885,-3.96822 1.67592,-5.02776 l 3.70733,-5.38326 h -6.55132 c -3.26571,0 -5.8526,-0.52914 -7.87175,-1.47278 -2.06535,-1.07168 -4.20687,-2.74258 -6.34818,-5.07855 l -1.82827,-2.03142 -2.43771,1.37121 c -0.12964,0.076 -0.26444,0.17706 -0.40628,0.25393 V 396.736 c 1.08834,-1.0778 2.22726,-2.18099 3.40263,-3.30106 1.57657,-1.43322 3.08764,-2.77379 4.5199,-4.06283 1.38554,-1.24698 2.62576,-2.33356 3.75812,-3.19949 l 0.0508,-0.0508 h 0.0508 c 1.17992,-0.97171 2.08672,-1.67893 2.53927,-1.98063 l 4.62148,-3.04713 -4.82462,-2.7932 c -0.3808,-0.2176 -1.10742,-0.6264 -2.03142,-1.21885 -0.89024,-0.68302 -1.83567,-1.39263 -2.84399,-2.13299 -0.95222,-0.74818 -1.86045,-1.54049 -2.74241,-2.28535 -0.74226,-0.68426 -1.25154,-1.22856 -1.47278,-1.52356 z m 48.44933,51.90274 7.00839,1.37121 -7.00839,2.84398 z m -143.41814,1.26964 c 0.8462,0.23394 1.6315,0.49313 2.59006,0.71099 h 0.0508 0.0508 c 2.26904,0.46412 4.57172,0.7295 6.90682,1.01571 l -0.15235,23.25974 c -1.41124,-0.33189 -2.70866,-0.75849 -4.21519,-1.01571 -1.8551,-0.31672 -3.45898,-0.47666 -5.12934,-0.71099 0.0693,-1.53777 0.15975,-3.05879 0.20315,-4.62148 0.14302,-2.67139 0.20314,-5.12268 0.20314,-7.26232 0,-2.72503 -0.0556,-5.41866 -0.20314,-8.07489 -0.0563,-1.04188 -0.21676,-2.21059 -0.30472,-3.30105 z m 92.12482,18.02884 v 6.44975 c -0.90214,-0.12045 -1.97992,-0.37215 -2.7932,-0.40628 -0.5168,-0.0225 -1.01467,-0.0719 -1.52356,-0.10158 l 0.10157,-4.8754 c 0.82469,-0.1678 1.56701,-0.26895 2.48849,-0.50785 h 0.0508 0.0508 c 0.53045,-0.15717 1.08619,-0.38666 1.62513,-0.55864 z"
       transform="scale(0.38458351)"
       inkscape:label="text" /><g
       inkscape:groupmode="layer"
       id="layer4"
       inkscape:label="Kruh"
       style="display:inline"><path
         id="path2"
         style="fill:none;stroke:#000000;stroke-width:0.189192"
         d="M 219.118,109.6063 A 109.5117,109.5117 0 0 1 109.6063,219.118 109.5117,109.5117 0 0 1 0.09459686,109.6063 109.5117,109.5117 0 0 1 109.6063,0.09459686 109.5117,109.5117 0 0 1 219.118,109.6063 Z"
         inkscape:label="Vnejsi kruh" /><path
         id="circle2"
         style="fill:none;stroke:#000000;stroke-width:0.188976"
         d="M 208.69732,109.6063 A 99.091019,99.091019 0 0 1 109.6063,208.69732 99.091019,99.091019 0 0 1 10.515282,109.6063 99.091019,99.091019 0 0 1 109.6063,10.515282 99.091019,99.091019 0 0 1 208.69732,109.6063 Z"
         inkscape:label="Vnitrni kruh" /></g></g></svg>
