<?xml version="1.0" encoding="UTF-8" standalone="no"?>
<svg
   version="1.2"
   viewBox="0 0 219.2126 219.2126"
   width="58mm"
   height="58mm"
   id="svg1"
   sodipodi:docname="VysetrovatelTokenLaser.svg"
   inkscape:version="1.4.2 (2aeb623e1d, 2025-05-12)"
   xml:space="preserve"
   xmlns:inkscape="http://www.inkscape.org/namespaces/inkscape"
   xmlns:sodipodi="http://sodipodi.sourceforge.net/DTD/sodipodi-0.dtd"
   xmlns="http://www.w3.org/2000/svg"
   xmlns:svg="http://www.w3.org/2000/svg"><sodipodi:namedview
     id="namedview1"
     pagecolor="#ffffff"
     bordercolor="#666666"
     borderopacity="1.0"
     inkscape:showpageshadow="2"
     inkscape:pageopacity="0.0"
     inkscape:pagecheckerboard="0"
     inkscape:deskcolor="#d1d1d1"
     inkscape:zoom="1.89495"
     inkscape:cx="98.683343"
     inkscape:cy="135.88749"
     inkscape:window-width="1920"
     inkscape:window-height="940"
     inkscape:window-x="0"
     inkscape:window-y="0"
     inkscape:window-maximized="1"
     inkscape:current-layer="layer2"
     inkscape:document-units="mm" /><defs
     id="defs1"><clipPath
       clipPathUnits="userSpaceOnUse"
       id="cp1"><path
         d="m 275.5,535.5 c -143.78,0 -260,-116.22 -260,-260 0,-143.78 116.22,-260 260,-260 143.78,0 260,116.22 260,260 0,143.78 -116.22,260 -260,260 z"
         id="path1" /></clipPath></defs><style
     id="style1">
		tspan { white-space:pre } 
		.s0 { fill: none;stroke: #ff0000;stroke-miterlimit:100 } 
	</style><g
     inkscape:groupmode="layer"
     id="layer2"
     inkscape:label="Content"
     style="display:inline"><path
       id="path5-0"
       style="display:inline;fill:none;fill-opacity:1;stroke:#000000;stroke-width:0.18897638;stroke-dasharray:none;stroke-opacity:1"
       inkscape:label="Znak"
       d="m 78.68714,38.464358 c -6.739653,-0.09841 -13.519907,1.399007 -21.213688,8.059732 -7.400421,6.406742 -11.81947,12.901623 -14.234847,18.72441 -1.120454,2.701087 -1.796517,7.098223 -2.369846,10.708997 -0.461031,2.903509 -0.841203,5.837966 -0.855548,8.777818 -0.01111,2.279581 0.152522,1.834306 0.597154,6.812836 0.720963,8.072261 4.146979,10.146639 8.191179,13.528029 3.849554,3.21864 9.130828,4.42598 14.054573,5.39318 4.322573,0.84911 11.825001,0.98486 13.212548,0.28393 0.696438,-0.35182 2.664763,-1.32534 4.373887,-2.16328 2.951448,-1.44702 5.014711,-3.06319 10.138883,-7.94331 2.972561,-2.748337 1.695567,-1.710092 4.433978,-4.443735 l 1.75992,-1.756916 3.211872,1.475239 c 1.199715,0.258525 4.080515,1.880514 4.957525,2.073144 0.877,0.192619 3.88092,1.422801 6.67463,2.733398 2.7937,1.31059 6.04798,2.76874 7.23197,3.24117 1.18397,0.47242 3.55034,1.54357 5.25873,2.37961 1.7084,0.83604 5.66025,2.68633 8.78157,4.11173 3.1213,1.42541 6.67046,3.19395 7.88772,3.93072 1.21724,0.73678 6.93131,3.57307 12.69801,6.30281 7.31487,3.46259 15.85236,5.53365 13.62568,5.53365 -0.18234,0 -0.27321,0.003 -0.28919,0.008 h -7.7e-4 l -7.7e-4,7.7e-4 -7.7e-4,7.7e-4 7.7e-4,7.6e-4 7.7e-4,7.7e-4 c 0.10685,0.0364 3.46332,0.12578 4.62551,-0.26815 0.53897,-0.18269 1.01225,-0.55355 1.4144,-0.95621 3.32755,-3.33169 5.66469,-7.56634 7.89673,-11.71251 0.62717,-1.165 1.29163,-2.36258 1.52557,-3.66482 0.21149,-1.17725 0.20975,-2.44127 -0.13971,-3.58519 -0.57951,-1.89696 -1.43673,-3.3725 -3.13075,-5.06042 -1.2535,-1.248981 -2.67288,-2.27145 -3.15404,-2.27145 -0.48117,0 -1.07897,-0.193695 -1.32877,-0.431153 -0.61226,-0.582055 -6.33333,-1.644832 -6.91198,-1.717857 l -1.5496,-0.195296 -2.78898,-0.703818 c -0.88249,-0.222593 -4.21563,-0.941072 -7.37094,-1.768934 -3.15532,-0.827874 -6.59708,-1.661905 -7.64885,-1.853062 -1.05177,-0.191165 -3.31074,-0.719071 -5.01987,-1.17328 -2.89896,-0.770401 -5.66273,-1.46614 -13.38606,-3.368109 -1.70913,-0.420896 -3.62129,-0.859963 -4.2492,-0.976484 -0.6279,-0.116514 -2.24176,-0.530468 -3.58594,-0.919394 -1.34415,-0.388937 -3.19669,-0.832354 -4.11699,-0.985495 -0.92031,-0.153149 -2.85634,-0.625717 -4.30253,-1.050093 -1.44619,-0.424381 -3.06006,-0.812922 -3.58594,-0.86306 -0.58209,-0.05551 -0.96441,-0.449286 -0.97799,-1.006528 -0.0123,-0.503443 -0.26823,-0.86562 -0.56861,-0.805222 -0.30036,0.06039 -0.68132,-0.316223 -0.84654,-0.836769 -0.16521,-0.520537 -0.6088,-0.946437 -0.98549,-0.946437 -0.3767,0 -0.68504,-0.386756 -0.68504,-0.860055 0,-0.473303 -0.2492,-1.110008 -0.55359,-1.414395 -0.40656,-0.406577 -0.41211,-0.722647 -0.0225,-1.192058 0.74374,-0.896153 0.83546,-15.577675 0.12169,-19.480809 -0.39239,-2.145699 -0.80924,-3.768249 -1.59167,-4.506084 C 101.38489,49.298303 91.699388,43.255076 89.6515,41.82053 86.306743,39.477517 83.798528,38.539064 78.687117,38.464435 Z m -4.000572,6.53717 c 1.549863,-0.03469 3.308475,0.334241 5.651573,0.501762 3.095867,0.22134 4.929573,0.921612 6.598011,5.44501 0.902318,2.446255 2.582082,6.174566 2.39839,9.448587 l -2.975265,-1.331771 c -0.21797,-3.399137 -1.734522,-8.184248 -4.293513,-10.075034 -1.66797,-1.232417 -5.846339,-3.034172 -5.567447,-2.400643 0.0902,0.204902 -0.156433,1.902134 1.026808,3.870621 2.137338,3.555732 2.150837,3.605986 2.059625,7.66613 -0.117521,5.231678 -1.770884,11.072898 -4.95752,17.518083 -2.917393,5.900591 -5.978451,10.123738 -11.120624,15.339771 -2.138558,2.169274 -2.41017,4.024608 -2.178304,4.024608 0.231873,0 1.732891,-0.73865 3.335808,-1.64124 2.712352,-1.527297 6.119946,-4.211921 8.602806,-6.726455 l 3.386135,1.516552 c -3.143694,4.319619 -8.486939,9.526899 -11.341456,10.973398 -1.729696,0.876493 -3.23046,1.225673 -5.540407,1.288953 -2.808782,0.0769 -3.207907,-0.28229 -5.49759,-1.653258 -3.366994,-2.016021 -4.356039,-3.548325 -5.05442,-8.35793 -0.728832,-5.019311 -2.091188,-12.090455 1.203328,-22.346405 1.781129,-5.544749 3.897769,-9.360925 8.855185,-14.119173 4.827196,-4.633262 7.936596,-5.836812 12.762611,-8.312861 0.861325,-0.441917 1.716346,-0.607888 2.646266,-0.628705 z m 19.097728,3.367359 c 0.443706,-0.008 2.641766,1.481377 6.303564,4.274738 1.56677,1.195197 0.66555,0.803364 -2.520827,-1.095913 -3.264637,-1.945919 -4.250752,-2.755133 -3.848089,-3.157792 0.01388,-0.01388 0.03577,-0.0205 0.06535,-0.02104 z m 0.537063,4.455012 c 0.572822,0.0075 1.868869,0.432537 3.585188,1.35956 1.43905,0.777267 2.959123,2.238561 3.865363,3.03836 -0.62864,-0.0027 -1.62933,-0.04388 -3.041362,-0.937422 l -3.655043,-2.313509 c -1.176168,-0.744284 -1.326967,-1.154466 -0.754146,-1.146989 z m 0.312474,7.656365 c 0.458247,-0.02827 1.364434,0.733593 3.450738,1.758416 l 4.387409,2.155771 0.0691,1.246893 c 0.0638,1.543934 -0.16183,2.794672 -0.35905,2.776212 -0.34647,-0.03238 -4.329513,-1.842135 -7.503127,-3.041363 -1.498711,-0.56633 -0.998494,-0.442167 -0.715837,-2.613214 0.210586,-1.617485 0.266432,-2.257778 0.670767,-2.282715 z m -8.299246,0.733809 2.68457,1.201823 c -2.214202,7.596555 -6.85194,17.331406 -11.213583,23.944331 l -3.156288,-1.413644 c -0.05579,-0.025 0.08065,-0.09112 0.120182,-0.136708 2.42238,-2.793946 8.26022,-11.778136 9.024668,-13.944356 1.77461,-5.028737 2.172362,-7.686875 2.540451,-9.651446 z m 7.032075,5.816129 c 1.120587,-0.05135 9.138708,3.344784 8.976118,3.842832 -0.18229,0.558415 -1.69791,-0.124263 -2.05963,-0.485991 -0.14877,-0.148768 -1.744444,-0.80521 -3.546125,-1.45871 -3.330901,-1.208169 -3.998265,-1.349853 -3.483785,-1.86433 0.01996,-0.01996 0.05831,-0.03127 0.113422,-0.03381 z m -0.734616,3.814288 c 0.313389,-0.0094 1.212084,0.214605 2.877615,0.806721 1.896516,0.674221 3.765257,1.323414 4.152302,1.442942 0.619577,0.191342 0.793087,0.02731 0.173512,0.419135 -0.876304,0.554196 -1.012354,0.553535 -1.898881,-0.01277 -0.394405,-0.251945 -1.842774,-0.693385 -3.218633,-0.980988 -2.533632,-0.529614 -2.63885,-0.746592 -2.211355,-1.63298 0.01223,-0.02534 0.05312,-0.0399 0.12544,-0.04206 z m -0.45444,3.979535 c 0.841354,-0.02846 2.109483,0.192188 2.890388,0.63021 0.613272,0.34399 0.601792,0.404458 -0.07962,0.416881 -0.438229,0.008 -0.868547,0.200714 -0.956197,0.428899 -0.08765,0.228185 -0.643255,0.565691 -1.234875,0.749637 -1.007312,0.313198 -0.771009,0.193954 -0.576125,-1.040329 0.03115,-0.197199 -0.158448,-0.358293 -0.421388,-0.358293 -0.262944,0 -0.477726,-0.225412 -0.477726,-0.500259 0,-0.203302 0.350736,-0.309678 0.855548,-0.326746 z m 4.00583,4.892176 c 0.219174,-0.0031 0.315654,0.155079 0.214074,0.352282 -0.101584,0.197211 -0.710883,1.483089 -1.354307,2.857336 -1.260222,2.691643 -2.108948,3.339927 -1.578896,1.206331 0.383992,-1.54568 2.146107,-4.40745 2.719129,-4.415949 z M 103.477,80.55372 c 1.54297,0 1.25166,0.913847 -0.87057,2.730393 -1.83268,1.568716 -4.612775,3.962879 -3.966017,5.00935 0.48639,0.787008 -0.529091,0.951094 -1.533077,0.247875 -1.03243,-0.723147 -0.966643,-1.985531 0.265151,-5.079206 0.62601,-1.572208 4.722363,-2.908412 6.104513,-2.908412 z m -17.251423,2.368342 c 0.233138,0 -0.914159,2.521422 -1.740391,3.824806 -0.416708,0.657357 -1.055274,1.786467 -1.418905,2.509557 -0.593766,1.180722 -1.455707,1.784068 -1.455707,1.018547 0,-0.345083 4.398401,-7.35291 4.615003,-7.35291 z m 21.710193,4.199625 c 1.03881,0.01635 3.93985,1.037022 11.87025,3.931462 3.02385,1.103644 6.18874,2.212386 7.03293,2.463739 1.8434,0.548881 10.74208,3.876374 13.06532,4.885414 0.90978,0.395136 4.55883,1.622918 8.10855,2.728138 8.06547,2.5112 11.29451,3.73043 11.94012,4.50834 0.28466,0.34299 0.34479,1.02925 0.13821,1.57589 -0.35089,0.9285 -0.65137,0.85594 -7.29808,-1.76518 -3.81267,-1.50351 -9.08308,-3.55982 -11.71252,-4.56993 -5.54926,-2.131791 -15.32895,-5.921984 -23.18693,-8.985884 -3.02384,-1.179029 -6.62745,-2.54212 -8.0079,-3.029345 -1.38045,-0.487221 -2.50955,-1.037895 -2.50955,-1.223606 0,-0.325916 0.0874,-0.526468 0.5596,-0.519038 z m -20.084728,3.566408 c 0.264066,-0.01892 0.792799,0.285407 1.735883,0.956955 1.149908,0.818798 1.30348,1.147009 0.893857,1.9124 -0.530622,0.991479 -0.566357,0.999209 -2.3736,0.496505 -1.744598,-0.485287 -1.55699,-1.750728 0.239611,-1.617205 1.362749,0.101292 1.380359,0.07949 0.358293,-0.431906 -0.59162,-0.29601 -1.07563,-0.720671 -1.07563,-0.94343 0,-0.234296 0.06314,-0.361958 0.221586,-0.373319 z m -6.504869,0.50702 c 0.287223,0.0012 0.189315,0.493251 -0.525049,1.448949 -0.951355,1.272764 -2.569114,2.468749 -2.537347,1.875594 0.01069,-0.199437 0.651473,-1.102451 1.424159,-2.006291 0.758714,-0.887484 1.368417,-1.319406 1.638237,-1.318252 z m 38.050477,2.65528 c 0.31391,-0.01819 1.67018,0.422953 3.28324,1.079387 1.84348,0.750211 5.33895,2.113913 7.76828,3.030099 2.42934,0.916174 8.28955,3.198059 13.02251,5.070939 4.73297,1.87289 8.96081,3.48151 9.39526,3.57468 0.43443,0.0932 1.40245,0.48252 2.15126,0.86531 0.7488,0.3828 2.07222,0.84873 2.94071,1.03582 0.87689,0.18891 1.49731,0.58694 1.39487,0.89461 -0.31767,0.95417 -1.4373,0.78153 -4.6473,-0.71659 -1.70914,-0.79765 -3.9681,-1.73315 -5.01987,-2.07915 -5.24712,-1.72613 -11.79287,-4.30896 -19.36213,-7.639845 -4.6015,-2.024924 -8.9576,-3.92409 -9.68068,-4.2199 -0.7231,-0.295826 -1.31525,-0.681951 -1.31525,-0.858556 0,-0.02208 0.0243,-0.03419 0.0691,-0.0368 z m 34.38793,1.738886 c 0.75613,-0.0042 3.62434,0.790569 7.35366,1.892124 2.36649,0.698996 4.21915,1.46319 4.21915,1.708089 0,0.715541 -0.65887,0.457636 -1.68556,-0.25689 -0.52589,-0.365993 -1.70869,-0.795107 -2.62899,-0.953948 -2.52906,-0.43646 -6.87599,-1.726657 -7.36943,-2.187318 -0.14701,-0.137239 -0.10055,-0.200895 0.11117,-0.202057 z m -69.098091,0.785693 c 1.338127,-0.0038 3.051912,0.815613 2.453973,1.53608 -0.546704,0.658749 -1.306357,0.50207 -2.977515,0.06535 -1.019892,-0.266527 -1.518212,-0.518318 -0.589647,-1.288958 0.263028,-0.21829 0.667153,-0.311255 1.113189,-0.312474 z m -3.036106,4.073436 c 0.219889,0.002 0.451847,0.0548 0.715836,0.15248 1.08118,0.39994 1.069523,0.42776 -0.579128,1.44669 -1.871107,1.1564 -2.117198,1.21888 -2.481014,0.63021 -0.138889,-0.22472 0.244768,-0.87572 0.852545,-1.4467 0.582178,-0.54693 1.008008,-0.78731 1.491761,-0.78268 z m 86.836257,0.24787 c 0.0225,-1e-5 0.0427,0.002 0.0601,0.008 0.29824,0.0994 -0.72766,0.79612 -1.63523,1.78696 -1.53352,1.67421 -2.16629,2.45966 -2.16629,1.58115 0,-0.65793 3.04476,-3.37589 3.74143,-3.37638 z m 7.83588,1.70359 c 0.3906,0.011 0.75409,0.19347 1.13873,0.54157 1.54946,1.40223 1.41913,1.50937 -0.53256,0.91038 -1.54405,-0.47387 -1.79734,-0.40347 -3.12323,0.86682 -2.09656,2.00863 -3.8449,5.91667 -4.1493,9.27357 -0.22111,2.43856 -0.31904,3.62575 0.32149,3.62575 0.41831,0 1.87881,-1.45062 2.72288,-2.6996 1.9369,-2.86607 1.55405,-3.02339 1.89963,-2.67781 0.39314,0.39313 -1.52689,3.5545 -3.33055,5.48332 -2.51359,2.68782 -2.5855,2.20044 -2.21211,-3.13226 0.37598,-5.36947 0.83392,-6.70858 3.76246,-9.71599 1.65039,-1.69483 2.64325,-2.50002 3.50256,-2.47575 z m -99.569566,2.60645 c 0.460154,-0.004 0.836769,0.20802 0.836769,0.47096 0,0.58308 -0.05397,0.58308 -0.956201,0 -0.61285,-0.39605 -0.595555,-0.46469 0.119432,-0.47096 z m -2.087419,1.22286 c 0.152668,-0.007 0.336856,0.0138 0.534063,0.0653 0.525887,0.13753 0.956198,0.33261 0.956198,0.43341 0,0.10081 -0.430311,0.18328 -0.956198,0.18328 -0.525883,0 -0.956201,-0.19508 -0.956201,-0.43341 0,-0.14895 0.167693,-0.23709 0.422138,-0.24862 z m 87.600915,4.68185 -0.0488,3.38839 c -0.0386,2.6738 0.16867,3.75743 0.984,5.1393 1.20104,2.03563 1.14514,2.16752 -0.27792,0.65274 -1.35498,-1.44231 -1.67663,-3.33146 -1.11545,-6.55069 z"
       sodipodi:nodetypes="ssssscssssccccssssssssccccccsssssssscccsssssssssssssssssssssccccssssssssccsssssssscssscsscccssccccssscccccscccssscssssssssssssssssscssscsssssssssssssssssssssssssssssssscsssccsssssscscssscsssscsscsssccsssscscssssssscssscssscsscssssssccssccsscc" /><g
       inkscape:groupmode="layer"
       id="layer4"
       inkscape:label="Kruh"
       style="display:inline"><path
         id="path2"
         style="fill:none;stroke:#000000;stroke-width:0.189192"
         d="M 219.118,109.6063 A 109.5117,109.5117 0 0 1 109.6063,219.118 109.5117,109.5117 0 0 1 0.09459686,109.6063 109.5117,109.5117 0 0 1 109.6063,0.09459686 109.5117,109.5117 0 0 1 219.118,109.6063 Z"
         inkscape:label="Vnejsi kruh" /><path
         id="circle2"
         style="fill:none;stroke:#000000;stroke-width:0.188976"
         d="M 208.69732,109.6063 A 99.091019,99.091019 0 0 1 109.6063,208.69732 99.091019,99.091019 0 0 1 10.515282,109.6063 99.091019,99.091019 0 0 1 109.6063,10.515282 99.091019,99.091019 0 0 1 208.69732,109.6063 Z"
         inkscape:label="Vnitrni kruh" /></g><path
       id="path3"
       style="display:inline;opacity:1;font-size:77.6357px;font-family:'New Rocker';-inkscape-font-specification:'New Rocker';letter-spacing:0.55px;baseline-shift:baseline;white-space:pre;overflow:visible;fill:none;stroke:#000000;stroke-opacity:1;enable-background:accumulate;stop-color:#000000;stop-opacity:1;stroke-width:0.49137931;stroke-dasharray:none"
       d="m 188.75391,352.79883 -1.39063,1.09961 c -1.22303,0.96823 -2.55182,1.98991 -3.98437,3.06445 -0.98171,0.72719 -1.90453,1.39512 -2.83399,2.07031 -0.96147,-0.67203 -1.91824,-1.33883 -2.93164,-2.0625 -1.42722,-1.07041 -2.72155,-2.08562 -3.88281,-3.04492 l -1.35156,-1.11719 -1.31836,1.1543 c -0.84641,0.74061 -1.48813,1.32798 -1.96289,1.80273 -0.29292,0.29294 -0.84365,0.79431 -1.60157,1.45118 l -1.67187,1.44922 1.56445,1.5664 c 1.79069,1.79069 3.6622,3.73864 5.61328,5.84375 l 0.0176,0.0176 0.0195,0.0195 c 1.49029,1.5285 2.96713,3.13104 4.43164,4.80664 l -0.18945,6.23242 c -2.61557,1.06751 -4.82893,1.86539 -6.61328,2.39258 -2.12273,0.62718 -4.04945,0.92578 -5.78125,0.92578 h -2.89063 l 0.94336,2.73242 c 0.46428,1.34639 0.7966,2.82962 0.98828,4.45899 l 0.002,0.0312 0.006,0.0293 c 0.23975,1.63028 0.36523,3.57927 0.36523,5.83203 0,0.42147 -0.006,0.87147 -0.0156,1.34765 h -7.12696 v -19.89843 l -2.98242,1.49218 c -1.57905,0.78953 -3.52533,1.46899 -5.83594,2.00977 l -0.004,0.002 h -0.006 c -2.26437,0.54148 -4.5785,0.88711 -6.94727,1.03516 l -1.93164,0.12109 v 4.52735 l 1.5293,0.4082 c 0.57534,0.15343 0.88079,0.34394 0.96094,0.41406 l 0.10156,0.0879 0.11133,0.0762 c 0.0409,0.0272 0.15842,0.11464 0.30664,0.5 0.1355,0.35228 0.28458,1.06891 0.33008,2.07032 l 0.002,0.0469 0.006,0.0469 c 0.0948,1.04335 0.14648,2.44081 0.14648,4.16015 v 9.21094 l -5.10742,2.23438 -1.48633,-1.13086 v -13.10938 -3.45312 c 0.0484,-0.93966 0.0719,-1.81276 0.0742,-2.62891 v -0.006 c 0.0502,-0.80308 0.10036,-1.55298 0.15039,-2.25586 0.10222,-0.7215 0.20363,-1.50228 0.30469,-2.36133 l 0.42969,-3.65234 -3.33985,1.54101 c -0.54337,0.25079 -1.38236,0.56542 -2.45703,0.90821 -1.09274,0.29709 -2.28547,0.59442 -3.58594,0.89453 -1.30563,0.3013 -2.61095,0.57851 -3.91601,0.83008 -1.30116,0.19966 -2.47284,0.34925 -3.50195,0.44726 l -1.70118,0.16211 -0.34961,3.84375 1.10938,0.66602 c 0.58581,0.35149 0.98895,0.72029 1.27344,1.09961 l 0.0586,0.0781 0.0664,0.0723 c 0.27924,0.30717 0.57074,0.79033 0.8125,1.51562 l 0.004,0.0176 0.008,0.0176 c 0.22895,0.64871 0.41634,1.57061 0.50976,2.73828 l 0.002,0.041 0.006,0.041 c 0.14211,1.18422 0.21875,2.63679 0.21875,4.33594 0,0.21892 2e-4,0.43975 -0.002,0.66211 H 111.125 c 0.0721,-0.18967 0.14575,-0.37856 0.2207,-0.56641 0.68959,-1.60317 1.50011,-2.8023 2.39063,-3.65234 l 0.92187,-0.87891 -0.375,-1.21679 c -0.40423,-1.31375 -0.65062,-2.26202 -0.71875,-2.63672 -0.078,-0.42878 -0.12109,-0.92697 -0.12109,-1.49414 0,-2.81247 0.27224,-5.31317 0.79492,-7.50391 0.59029,-2.30704 1.31926,-4.31233 2.16992,-6.01367 l 0.006,-0.0117 0.004,-0.01 c 0.87341,-1.79535 1.82827,-3.31489 2.84961,-4.56836 1.08715,-1.33423 2.10937,-2.42343 3.04297,-3.26367 l 0.0195,-0.0176 0.0215,-0.0195 c 0.96709,-0.91873 1.80883,-1.58681 2.4668,-1.99804 0.81831,-0.51144 1.40952,-0.86933 1.7168,-1.04493 l 6.73632,-3.84961 h -7.75976 c -1.54732,0 -2.9372,0.10718 -4.18945,0.34571 -1.09496,0.20856 -2.14018,0.4452 -3.14454,0.70703 l -2.94921,0.62109 c -0.81938,0.17251 -1.76498,0.26758 -2.83594,0.26758 h -2.0918 c -0.76141,-0.0482 -1.60081,-0.12159 -2.51367,-0.2168 -0.84871,-0.14315 -1.72637,-0.33125 -2.63477,-0.57031 -0.83539,-0.21983 -1.6167,-0.52489 -2.35546,-0.91601 l -2.64649,3.00976 c 0.58815,0.83322 1.1816,1.74797 1.7793,2.74414 l 0.0195,0.0332 0.0195,0.0293 c 0.4847,0.74569 0.67578,1.40588 0.67578,2.13867 v 0.69922 c 0,0.0354 -0.006,0.13971 -0.0371,0.29492 v 0.004 l -7.960936,40.71875 -0.888672,0.9375 -0.996093,-1.04883 -9.722657,-40.6582 c -0.03443,-0.16788 -0.07165,-0.31926 -0.107421,-0.47461 v -0.47266 c 0,-0.82525 0.15291,-1.61372 0.474609,-2.41796 l 0.0059,-0.0156 0.0059,-0.0156 c 0.357892,-0.93947 0.79557,-1.76655 1.310547,-2.4961 l 2.884765,-4.08594 -4.925781,0.86915 c -0.834983,0.14736 -1.572814,0.27055 -2.208984,0.36914 -0.808188,0.0748 -1.603345,0.2856 -2.369141,0.5996 -0.776515,0.28725 -1.527085,0.69829 -2.292969,1.22852 l -0.03125,0.0234 -0.03125,0.0234 c -0.300014,0.22501 -0.688043,0.6258 -1.015625,0.9121 -0.06034,-0.0555 -0.11284,-0.11893 -0.173828,-0.17382 -0.77706,-0.69936 -1.715173,-1.20716 -2.804687,-1.63086 -1.144915,-0.44525 -2.490232,-0.746 -4.074219,-0.9668 -1.672291,-0.28638 -3.671816,-0.416 -6.066406,-0.41602 v 4.1211 c 0.07966,0 0.637289,0.14548 1.527343,1.20508 0.937297,1.11582 1.925299,2.68817 2.908204,4.70312 l 0.0098,0.0176 0.0078,0.0176 c 1.034518,2.01978 2.037403,4.39445 2.996093,7.11914 l 0.0059,0.0176 0.0059,0.0156 c 1.020179,2.75449 1.991437,5.64044 2.91211,8.6582 v 0.004 l 0.002,0.006 c 0.918822,2.96065 1.735122,5.91855 2.449218,8.87695 l 0.0039,0.0176 0.0039,0.0156 c 0.770272,2.97838 1.437428,5.77257 2,8.38086 v 0.004 l 0.002,0.004 c 0.562685,2.55765 0.994873,4.79825 1.296875,6.71094 0.297582,1.88469 0.427027,3.24283 0.431641,3.95703 l -1.365235,1.36328 2.326172,1.34375 c 2.248265,1.299 4.449927,2.77589 6.607422,4.43164 l 0.02148,0.0156 0.02148,0.0156 c 1.71288,1.24573 3.469444,3.01888 5.228515,4.87695 l -1.550781,1.88282 h 8.923828 l -1.779297,-2.02149 c 1.200797,-1.37125 2.432522,-2.76187 4.07813,-4.36914 l 0.004,-0.004 c 2.06366,-1.96484 4.34881,-3.71064 6.86523,-5.24023 l 0.99023,-0.60156 v -1.15821 c 0,-0.16318 -0.0554,-0.31435 -0.0781,-0.47461 v -0.68945 c 0,-1.03492 0.0735,-2.45782 0.22266,-4.20898 0.19717,-1.77081 0.51767,-3.59831 0.96484,-5.48633 0.0195,-0.0821 0.0387,-0.16427 0.0586,-0.24609 h 12.64063 c -0.0536,1.52524 -0.15073,2.95763 -0.28906,4.29492 -0.15054,1.40324 -0.32474,2.61843 -0.51758,3.63086 l -0.008,0.0391 -0.006,0.0391 c -0.0935,0.62296 -0.32652,1.11265 -0.32618,1.18555 v 0.002 0.002 h 0.002 v 0.002 h 0.002 0.002 0.002 0.002 c 0.0222,-0.0101 0.0829,-0.0826 0.20117,-0.23047 l -1.52344,1.9043 2.13086,1.18359 c 0.90048,0.50027 1.69238,0.96993 2.3711,1.40625 l 0.0703,0.0469 0.0742,0.0391 c 0.69667,0.37155 1.37059,0.78954 2.02344,1.25586 l 0.0273,0.0195 0.0273,0.0176 c 0.69723,0.46482 1.40597,1.00743 2.12305,1.6289 l 0.0547,0.0469 0.0586,0.0449 c 0.76218,0.57163 1.65105,1.30977 2.65234,2.21094 l 1.45313,1.30859 1.38281,-1.38281 c 0.79776,-0.79776 1.56463,-1.51409 2.29883,-2.15039 l 0.004,-0.004 0.004,-0.004 c 0.7778,-0.68057 1.60635,-1.3396 2.48828,-1.97656 0.8729,-0.63042 1.8557,-1.26905 2.94727,-1.91406 0.2419,-0.14294 0.59105,-0.31809 0.85156,-0.4668 v 3.76758 0.0293 c 0.052,1.86959 0.10393,3.42913 0.15625,4.68554 l 0.002,0.0391 0.004,0.041 c 0.1031,1.28847 0.17975,2.31699 0.23047,3.07813 l 0.004,0.0586 0.008,0.0586 c 0.0256,0.20476 0.0525,0.36457 0.0781,0.56054 l -3.21875,1.0293 c -0.91185,-0.67508 -1.82784,-1.34853 -2.95703,-2.03516 -0.004,-0.002 -0.008,-0.004 -0.0117,-0.006 -1.43442,-0.90279 -2.89484,-1.75561 -4.38281,-2.55273 -1.4972,-0.80208 -2.89958,-1.47656 -4.2168,-2.02539 l -0.0215,-0.01 -0.0195,-0.008 c -1.27012,-0.49703 -2.20955,-0.81774 -3.20508,-0.9082 l -0.93359,-0.0859 -0.67774,0.64844 c -1.37954,1.31955 -2.56267,2.95498 -3.57812,4.87304 l -0.0176,0.0312 -0.0156,0.0312 c -0.9659,1.9886 -1.66676,4.15821 -2.11133,6.49219 l -0.4668,2.44727 h 2.49023 c 2.55323,0 4.95374,0.44479 7.25196,1.33593 2.31004,0.89574 4.90934,2.3781 7.75195,4.47266 l 1.39649,1.0293 1.25195,-1.20117 c 1.18738,-1.13988 2.55663,-2.22059 4.10742,-3.24024 1.57387,-0.98279 3.16614,-1.84228 4.7793,-2.57617 1.6609,-0.73221 3.28578,-1.31114 4.875,-1.74609 1.56524,-0.37722 2.97638,-0.5586 4.2207,-0.5586 h 2.60937 l -0.60546,-2.53906 c -0.19905,-0.83599 -0.38554,-2.42011 -0.48633,-4.57031 -0.0508,-2.14528 -0.0781,-4.835 -0.0781,-8.07227 V 399.4375 h 6.89453 c -0.0569,0.71189 -0.1271,1.50852 -0.20898,2.38867 l -0.27539,2.9668 0.36133,-0.0996 c -0.90841,1.22641 -1.6672,2.64025 -2.24024,4.35937 l -0.006,0.0176 -0.006,0.0195 c -0.56241,1.79971 -0.90669,3.59385 -1.02148,5.37305 l -0.13281,2.07617 2.07812,0.11328 c 1.86806,0.10098 3.46563,0.25294 4.77735,0.44727 l 0.0371,0.004 0.0371,0.004 c 1.30311,0.14479 2.40393,0.36063 3.28516,0.625 l 0.0449,0.0137 0.0469,0.0117 c 0.89404,0.22351 1.59901,0.50273 2.11719,0.79883 l 0.0273,0.0156 0.0254,0.0137 c 0.63167,0.33689 1.18457,0.72729 1.67383,1.17578 l 1.22461,1.12305 1.35547,-0.95704 c 0.71141,-0.50217 1.65831,-1.00668 2.83789,-1.47851 1.19277,-0.47711 2.49546,-0.88899 3.91015,-1.23047 1.41994,-0.34274 2.92236,-0.61431 4.50782,-0.8125 1.57497,-0.19687 3.12087,-0.29492 4.63671,-0.29492 h 2.55664 l -0.54296,-2.49805 c -0.21288,-0.97923 -0.39926,-2.64102 -0.5,-4.85547 v -0.002 c -0.10175,-2.29011 -0.15235,-4.8989 -0.15235,-7.82422 0,-0.70145 0.003,-1.36834 0.01,-2 h 5.18359 c -0.0181,0.95297 -0.0658,1.98667 -0.14258,3.09961 l -0.002,0.0352 -0.002,0.0351 c -0.0493,1.42922 -0.17085,2.83068 -0.36719,4.20508 l -0.006,0.0312 -0.002,0.0332 c -0.14517,1.30654 -0.3629,2.52752 -0.64649,3.66602 -0.27802,1.06573 -0.59736,1.8296 -0.84765,2.23633 l -1.93164,3.13867 h 3.6875 c 0.74084,0 1.80035,0.11161 3.11718,0.35547 h 0.008 l 0.006,0.002 c 1.35976,0.24282 2.75289,0.5832 4.17773,1.02539 l 0.0391,0.0137 0.0391,0.01 c 1.4591,0.38909 2.86598,0.87364 4.22266,1.45508 1.33764,0.57327 2.4177,1.17856 3.23828,1.7832 l 0.54492,0.40234 h 1.3379 l 0.5371,-0.38281 c 0.54817,-0.39154 1.38541,-0.85176 2.4668,-1.32422 1.18115,-0.44136 2.41068,-0.86058 3.69531,-1.25586 l 0.0352,-0.0117 0.0332,-0.0117 c 1.25652,-0.43495 2.50633,-0.77023 3.75196,-1.00977 l 0.0371,-0.008 0.0371,-0.008 c 1.28742,-0.2971 2.37873,-0.48878 3.2461,-0.58008 l 2.63281,-0.27735 -0.91406,-2.48437 c -0.31196,-0.84675 -0.52799,-1.68027 -0.66211,-2.50781 -0.0893,-0.91884 -0.14258,-2.23033 -0.14258,-3.92188 v -1.70898 c 0,-0.56387 0.0233,-1.12694 0.0703,-1.69141 l 0.25,-3.00781 -2.89257,0.86133 c -2.63895,0.78607 -4.70751,1.81264 -6.13672,3.38476 l -0.0176,0.0195 -0.0176,0.0195 c -0.81735,0.94641 -1.36169,2.07262 -1.7793,3.26172 -0.32978,-0.0302 -0.57086,-0.0448 -0.94336,-0.082 -0.006,-6.2e-4 -0.009,-9.5e-4 -0.0156,-0.002 -0.98767,-0.14792 -1.99746,-0.29748 -3.03125,-0.44531 -1.06171,-0.20242 -2.07308,-0.4038 -3.03125,-0.60547 h -0.002 l -0.002,-0.002 h -0.002 c -0.22701,-0.0508 -0.33246,-0.10538 -0.5332,-0.1582 0.07,-0.69114 0.12858,-1.30429 0.21484,-2.10937 0.10004,-0.93361 0.14276,-1.89306 0.20117,-2.84571 2.58019,-0.41202 5.1822,-0.81089 7.8711,-1.15234 l 0.0156,-0.002 0.0156,-0.002 c 3.22141,-0.4602 6.38948,-0.81698 9.5039,-1.07226 l 2.71875,-0.22266 -0.10742,-0.28711 h 5.10352 v 16.8086 l 1.13867,0.57031 c 0.7974,0.3987 1.81571,0.93379 3.04492,1.59961 1.21218,0.6566 2.39812,1.33659 3.55859,2.04297 l 1.30274,0.79296 1.13867,-1.01171 c 0.33128,-0.29447 0.89812,-0.7127 1.66406,-1.19141 0.76922,-0.48076 1.59173,-0.9404 2.46875,-1.37891 l 0.041,-0.0195 0.0391,-0.0215 c 0.89199,-0.49555 1.80985,-0.96688 2.75391,-1.41406 0.92862,-0.43988 1.7955,-0.80087 2.59765,-1.08399 l 1.375,-0.48633 v -4.49804 l -1.95312,-0.10352 c -1.51528,-0.0797 -2.59666,-0.56402 -3.60156,-1.5625 -0.81144,-0.85234 -1.35547,-2.26004 -1.35547,-4.60937 v -4.875 h 11.8789 v 11.39648 c 0,1.22574 -0.1733,2.09144 -0.36132,2.53711 -0.18802,0.44566 -0.25829,0.45098 -0.39063,0.5 l -1.34375,0.49805 v 4.6582 h 20.73438 v -5.14453 l -1.74219,-0.27149 c -1.3419,-0.20967 -1.95701,-0.60212 -2.17969,-0.83593 -0.19063,-0.28132 -0.50391,-1.11209 -0.50391,-2.64063 v -9.73242 h 17.44532 c 0.0676,1.3676 0.10156,2.64574 0.10156,3.83203 0,2.86581 -0.18245,5.16488 -0.50586,6.82813 l -0.004,0.0215 -0.004,0.0234 c -0.27207,1.5871 -0.7798,2.36008 -0.86328,2.43164 l -1.10547,3.4707 2.84961,0.11524 c 0.12932,-0.0259 0.25157,-0.0391 0.37304,-0.0391 h 0.16992 l 0.16797,-0.0273 c 0.20074,-0.0334 0.39763,-0.0488 0.59375,-0.0488 0.92337,0 2.20858,0.11511 3.79688,0.36328 1.59413,0.24909 3.18967,0.5733 4.78711,0.97266 1.59937,0.39984 3.06149,0.82297 4.39258,1.26562 1.26868,0.47366 2.11526,0.94765 2.33203,1.125 l 1.44336,1.17969 1.31836,-1.31836 c 1.00595,-1.00595 2.14112,-1.97249 3.4082,-2.89844 l 0.0215,-0.0156 0.0195,-0.0156 c 1.25968,-0.96897 2.561,-1.81148 3.9082,-2.5332 1.3652,-0.73135 2.72159,-1.33542 4.06836,-1.81641 1.32774,-0.47419 2.55259,-0.77045 3.66797,-0.90429 l 2.16211,-0.25977 -0.37891,-2.14453 c -0.54359,-3.08034 -0.92503,-6.21687 -1.14453,-9.41015 h 6.74609 c 0.0641,1.24327 0.0977,2.55906 0.0977,3.94531 0,0.50691 -0.0243,1.16996 -0.0742,1.96875 l -0.004,0.0645 v 0.0625 c 0,0.73059 -0.0246,1.52083 -0.0742,2.36523 l -0.004,0.0586 v 0.0605 c 0,0.7852 -0.0251,1.57195 -0.0742,2.35742 l 0.002,-0.01 c -0.0512,0.7673 -0.10178,1.45552 -0.15234,2.0625 l -0.14844,1.76367 1.72266,0.41211 c 2.26109,0.5407 4.44313,1.27597 6.55469,2.20899 2.12549,0.93917 3.86663,1.91433 5.21484,2.89062 l 0.54101,0.39063 h 2.14844 l 10.6836,-8.27149 3.96484,-12.10156 h 5.26562 c 0.005,0.0377 0.0104,0.0751 0.0156,0.11328 v 0.008 l 0.002,0.006 c 0.13973,0.97811 0.21094,2.04681 0.21094,3.20313 0,2.03594 -0.0505,4.07136 -0.15234,6.10742 -0.096,1.86424 -0.38706,3.34266 -0.79688,4.4082 l -1.05664,2.75 2.94531,0.0508 c 2.86906,0.0495 5.37012,0.37148 7.5,0.93945 l 0.006,0.002 0.006,0.002 c 2.20381,0.57491 4.18713,1.40443 5.97461,2.48633 l 1.51758,0.91797 4.62305,-5.5625 c 0.26293,0.40782 0.42479,0.82943 0.72265,1.23242 1.00215,1.35584 2.1562,2.49215 3.46289,3.36328 l 1.94336,1.29493 1.04297,-2.08789 c 0.22864,-0.45728 0.63149,-1.0972 1.20313,-1.85938 0.55927,-0.7457 1.19269,-1.47394 1.90429,-2.18555 0.7278,-0.72779 1.44921,-1.37654 2.16016,-1.94531 l 0.006,-0.004 0.008,-0.006 c 0.70017,-0.5689 1.29661,-0.90253 1.72266,-1.05469 l 1.36718,-0.48828 v -3.94532 l -1.59765,-0.36914 c -0.43608,-0.10063 -0.71561,-0.23566 -0.93164,-0.36718 -0.0311,-0.0302 -0.18796,-0.19498 -0.35352,-0.71289 -0.19985,-0.68477 -0.3936,-1.73172 -0.53906,-3.07032 -0.0605,-0.88702 -0.10332,-1.97363 -0.12695,-3.25976 h 8.36328 v 15.89258 l 1.13867,0.57031 c 0.7974,0.3987 1.81572,0.93379 3.04492,1.59961 1.21218,0.6566 2.39813,1.33659 3.5586,2.04297 l 1.30273,0.79296 1.13867,-1.01171 c 0.33128,-0.29447 0.89812,-0.7127 1.66406,-1.19141 0.76921,-0.48076 1.59173,-0.9404 2.46875,-1.37891 l 0.0391,-0.0195 0.0391,-0.0215 c 0.89197,-0.49555 1.80985,-0.96688 2.75391,-1.41406 0.92862,-0.43988 1.79746,-0.80087 2.5996,-1.08399 l 1.375,-0.48633 v -4.49804 l -1.95312,-0.10352 c -1.51527,-0.0797 -2.59665,-0.56402 -3.60156,-1.5625 -0.81143,-0.85234 -1.35547,-2.26004 -1.35547,-4.60937 v -3.89844 h 11.00586 c -0.0228,0.83205 -0.0655,1.72204 -0.13086,2.66992 l -0.004,0.0352 v 0.0351 c -0.0493,1.42922 -0.17279,2.83068 -0.36914,4.20508 l -0.004,0.0312 -0.004,0.0332 c -0.14556,1.31003 -0.36373,2.5347 -0.64844,3.67579 -0.27715,1.05838 -0.59456,1.82162 -0.84375,2.22656 l -1.93359,3.13867 h 3.6875 c 0.74085,0 1.80231,0.11161 3.11914,0.35547 h 0.006 l 0.006,0.002 c 1.35978,0.24282 2.7529,0.5832 4.17773,1.02539 l 0.0391,0.0137 0.041,0.01 c 1.45908,0.38909 2.86402,0.87364 4.2207,1.45508 1.33764,0.57327 2.4177,1.17856 3.23828,1.7832 l 0.54688,0.40234 h 1.33594 l 0.53711,-0.38281 c 0.54869,-0.39192 1.38779,-0.85323 2.4707,-1.32617 1.17996,-0.44083 2.41012,-0.85906 3.69336,-1.25391 l 0.0332,-0.0117 0.0352,-0.0117 c 1.25652,-0.43495 2.50633,-0.77023 3.75195,-1.00977 l 0.0371,-0.008 0.0371,-0.008 c 1.28741,-0.2971 2.37872,-0.48878 3.24609,-0.58008 l 2.63282,-0.27735 -0.91602,-2.48437 c -0.31316,-0.84999 -0.52814,-1.68692 -0.66211,-2.51758 -0.0889,-0.9186 -0.14258,-2.22477 -0.14258,-3.91211 v -1.70898 c 0,-0.56387 0.0233,-1.12694 0.0703,-1.69141 l 0.25,-3.00781 -2.89063,0.86133 c -2.63896,0.78607 -4.70946,1.81263 -6.13867,3.38476 l -0.0176,0.0195 -0.0176,0.0195 c -0.81735,0.94641 -1.36168,2.07262 -1.77929,3.26172 -0.32775,-0.03 -0.56756,-0.0451 -0.9375,-0.082 -0.99628,-0.14925 -2.01537,-0.30005 -3.0586,-0.44922 -1.05941,-0.20201 -2.06912,-0.40224 -3.02539,-0.60351 h -0.002 -0.002 l -0.002,-0.002 c -0.22645,-0.0507 -0.33093,-0.10552 -0.53125,-0.1582 0.07,-0.69111 0.1286,-1.30433 0.21485,-2.10937 0.10004,-0.9336 0.1408,-1.89308 0.19921,-2.84571 2.58019,-0.41202 5.18221,-0.81089 7.8711,-1.15234 l 0.0156,-0.002 0.0156,-0.002 c 3.22142,-0.4602 6.38947,-0.81698 9.5039,-1.07226 l 2.71875,-0.22266 -0.1875,-0.5 h 3.70704 v 10.1582 c 0,1.84707 -0.29985,3.36908 -0.83985,4.61524 -0.51676,1.19251 -1.15711,1.86371 -2.05859,2.31445 l -1.32813,0.66406 0.54102,3.78321 h 1.78711 c 1.8273,0 3.67377,-0.23001 5.52929,-0.67969 h 0.002 c 1.39697,-0.32925 2.65971,-0.78649 3.91992,-1.24609 0.26757,0.23237 0.52095,0.52271 0.80469,0.71289 0.60174,0.4194 1.24923,0.80332 1.94336,1.15039 l 0.0273,0.0156 0.0293,0.0137 c 0.70717,0.32639 1.53089,0.6696 2.46289,1.03321 0.89899,0.39998 2.03496,0.93061 3.4082,1.59179 l 1.61328,0.77735 2.28321,-3.42578 -0.91016,-1.17188 c -1.07176,-1.37798 -1.95941,-2.57091 -2.65625,-3.5664 l -0.0156,-0.0195 -0.0137,-0.0215 c -0.61237,-0.83107 -1.07777,-1.68689 -1.42187,-2.58008 -0.30008,-0.91141 -0.53353,-1.99314 -0.67383,-3.25586 -0.14263,-1.28366 -0.2207,-2.98095 -0.2207,-5.05273 v -37.57422 c 0,-2.59068 0.17762,-4.85053 0.51172,-6.76758 0.36554,-1.80791 0.97165,-3.11716 1.72851,-4.02539 l -2.46875,-3.17969 c -2.09414,0.99721 -4.0418,1.76016 -5.83398,2.29297 l -0.008,0.002 -0.008,0.002 c -1.69498,0.51791 -3.27486,0.76367 -4.75391,0.76367 -1.21938,0 -2.20648,-0.16094 -2.96874,-0.42773 l -4.96094,-1.73633 2.45898,4.64453 c 0.42934,0.81097 0.78078,1.58665 1.05664,2.32226 0.26595,0.70919 0.46401,1.43997 0.59766,2.19727 l 0.0117,0.0566 0.0117,0.0566 c 0.17454,0.74174 0.28959,1.57656 0.33593,2.50391 0.0496,0.99239 0.0762,2.12416 0.0762,3.39062 v 25.13086 h -5.20704 c -0.0156,-0.0665 -0.0295,-0.13331 -0.0449,-0.20117 -0.24264,-1.0676 -0.43852,-2.19183 -0.58593,-3.37109 -0.15177,-1.21422 -0.27775,-2.42677 -0.37891,-3.64063 l 0.002,0.006 c -0.0999,-1.24821 -0.15039,-2.38476 -0.15039,-3.40625 0,-1.32113 0.0773,-2.38747 0.20508,-3.1543 l 0.38672,-2.31836 -2.34961,-0.0801 c -3.00824,-0.10198 -6.04249,-0.28061 -9.10352,-0.53516 -3.06144,-0.30614 -5.61875,-0.66217 -7.65039,-1.05859 l -1.07617,-0.21094 -0.77539,0.77539 c -1.72131,1.7213 -3.4451,3.12639 -5.16406,4.22461 l -0.0117,0.008 -0.0117,0.006 c -1.57949,1.03795 -3.32549,1.73602 -5.30078,2.10352 l -1.52344,0.2832 c 0.30584,-0.39329 0.57857,-0.84104 0.91016,-1.19336 l 0.56054,-0.59375 v -3.18945 h -10.94726 v -2.05469 c 0,-0.38953 0.0251,-1.15753 0.0762,-2.23047 v -0.002 -0.002 c 0.0499,-1.09751 0.125,-2.22213 0.22461,-3.37304 0.15213,-1.21521 0.30358,-2.35546 0.45508,-3.41602 0.14362,-1.00531 0.32772,-1.71287 0.41601,-1.93359 l 2.09766,-5.24805 -4.98438,2.66602 c -2.16721,1.15922 -4.19315,2.10786 -6.07226,2.84961 -1.75203,0.69159 -3.68417,1.1171 -5.82422,1.25976 l -3.9375,0.26172 2.43945,3.04883 c -0.0493,-0.0612 -0.0857,-0.10451 -0.0996,-0.11524 h -0.002 -0.002 -0.002 -0.002 v 0.002 0.002 c -3e-5,0.0443 0.16947,0.38402 0.25977,0.86524 l 0.002,0.0137 0.004,0.0117 c 0.13972,0.69866 0.26117,1.5183 0.35937,2.45117 v 0.006 0.006 c 0.0994,0.89413 0.17499,1.78802 0.22461,2.68164 l 0.004,0.0625 0.006,0.0645 c 0.0991,0.84262 0.14257,1.45687 0.14257,1.69922 v 1.4707 c -1.64807,1.367 -3.34584,2.44076 -5.12695,3.12891 l -1.31836,0.50976 v -1.42382 h -2.06054 c -2.39705,0 -4.32415,-0.40146 -5.84375,-1.11329 -1.53831,-0.79707 -3.1027,-2.02076 -4.66993,-3.73046 l -1.125,-1.22852 -1.43554,0.8418 c -1.2351,0.72402 -3.17231,1.46398 -5.7461,2.10742 -2.47429,0.61857 -5.52445,0.94922 -9.12695,0.94922 h -0.75977 c -0.46599,-0.15067 -0.70385,-0.0781 -1.02734,-0.0781 h -2.5957 l 0.58984,2.5293 c 0.38483,1.64927 0.82977,3.04102 1.38672,4.2168 l 0.0176,0.0391 0.0215,0.0391 c 0.59946,1.13896 1.29214,2.11269 2.13867,2.88867 l 0.0352,0.0332 0.0371,0.0312 c 0.82003,0.68336 1.76224,1.19546 2.77344,1.48437 l 0.0801,0.0234 0.0801,0.0156 c 0.92315,0.18464 1.8876,0.27344 2.88868,0.27344 1.52835,0 3.25009,-0.30079 5.27343,-0.84766 1.00966,-0.27287 1.94286,-0.68311 2.91407,-1.02539 v 3.39063 c -0.4663,0.19203 -0.83957,0.38264 -1.45899,0.57226 -1.06645,0.28999 -2.26864,0.56227 -3.60937,0.81055 -1.32525,0.24542 -2.73477,0.44407 -4.22266,0.59375 -1.44452,0.0989 -2.86204,0.14844 -4.25195,0.14844 -1.26644,0 -2.41823,-0.0743 -3.44922,-0.21484 l -3.54688,-0.48243 0.48633,1.18164 h -2.27734 l 2.65429,-8.10156 -0.83007,-0.88867 c -0.35504,-0.38039 -0.69655,-1.05758 -0.86328,-2.22461 -0.19217,-1.39666 -0.29102,-2.87837 -0.29102,-4.44531 v -0.38477 l 3.01758,-4.52734 -5.5293,1.70117 c -1.94322,0.59792 -3.90959,1.09462 -5.90234,1.49414 -2.00008,0.34932 -3.97299,0.60054 -5.91602,0.75 l -1.78516,0.13672 -0.27734,4.42773 1.26563,0.59571 c 0.39397,0.1854 0.64392,0.42035 0.90625,1.07617 l 0.0156,0.0391 0.0176,0.041 c 0.25487,0.56637 0.51758,1.89675 0.51758,3.8125 0,1.40622 -0.0971,3.1014 -0.29883,5.06836 -0.19994,1.89766 -0.50229,3.8513 -0.9043,5.86133 l -0.004,0.0254 -0.004,0.0234 c -0.3493,1.99602 -0.7982,3.91106 -1.34375,5.7461 l -0.004,0.0176 -0.006,0.0195 c -0.29086,1.0471 -0.65736,1.71671 -1,2.51171 l -1.13671,-0.61328 c 0.0209,-0.74147 0.0488,-1.49823 0.0488,-2.20117 v -3.33789 c 0,-5.64369 -0.25917,-10.57729 -0.78906,-14.82617 v -0.004 c -0.4849,-4.30745 -1.32235,-7.54384 -2.91015,-9.85937 l -1.25391,-1.83008 -1.73242,1.38672 c -0.28539,0.22831 -0.93844,0.61783 -1.86524,1.03711 -0.97216,0.38748 -2.04594,0.77798 -3.22656,1.17187 -1.13388,0.34449 -2.29352,0.66405 -3.47852,0.96094 -1.17814,0.24433 -2.17857,0.41382 -2.96093,0.50586 l -1.81836,0.21484 v 4.83008 l 2.88086,0.59571 c 0.72037,1.40519 1.4194,3.33298 1.97656,5.99023 l 0.002,0.0156 0.004,0.0156 c 0.20463,0.90623 0.37984,1.88762 0.52539,2.94336 h -6.5332 c -0.0137,-0.66426 -0.0215,-1.33092 -0.0215,-2 0,-4.46097 0.3075,-8.30294 0.89844,-11.50391 l 0.54102,-2.93554 -2.93555,0.5332 c -0.48488,0.0882 -1.0008,0.15462 -1.54297,0.20117 h -2.4375 c -1.87764,0 -3.96211,-0.19459 -6.24609,-0.5918 -1.86082,-0.32362 -4.45303,-1.07811 -7.22071,-1.94922 v -3.40234 l -3.51562,3.51758 c -2.22754,2.22754 -4.50951,4.06414 -6.8418,5.52344 -2.33054,1.40655 -4.36779,2.22311 -6.04102,2.52343 l -1.83593,0.33008 c 0.2465,-1.06219 0.61015,-2.03975 0.74609,-3.18164 l 0.2168,-1.82226 -1.78516,-0.42579 c -2.10859,-0.50204 -4.02776,-1.05173 -5.75976,-1.64453 -1.71694,-0.63919 -3.00708,-1.24953 -3.78711,-1.74218 l -2.15235,-1.35938 -0.88086,2.38672 c -0.68147,1.84401 -1.44551,3.54024 -2.21875,5.2168 v -2.66602 l -2.0039,-3.33984 2.17383,-2.33203 0.0156,0.0195 1.58203,-1.67969 c 3.4099,-3.61656 6.0169,-6.40402 7.83789,-8.38086 l 0.0215,-0.0215 c 1.84858,-1.95134 3.14151,-3.32379 3.87109,-4.10547 l 1.51758,-1.625 -1.73633,-1.38867 c -0.74147,-0.59318 -1.29225,-1.0774 -1.61523,-1.4004 -0.44441,-0.44438 -1.052,-1.0243 -1.83789,-1.75781 l -1.29493,-1.20898 -1.38867,1.09961 c -1.22304,0.96823 -2.55182,1.98991 -3.98437,3.06445 -0.98139,0.72696 -1.90481,1.39532 -2.83399,2.07031 -0.96188,-0.67231 -1.91974,-1.33851 -2.93359,-2.0625 -1.42722,-1.07041 -2.72155,-2.08562 -3.88281,-3.04492 l -1.35157,-1.11719 -1.31836,1.1543 c -0.8464,0.74061 -1.48813,1.32799 -1.96289,1.80273 -0.29292,0.29294 -0.84169,0.79431 -1.59961,1.45118 l -1.67382,1.44922 1.56445,1.5664 c 1.79069,1.79069 3.66219,3.73864 5.61328,5.84375 l 0.0195,0.0176 0.0176,0.0195 c 1.47653,1.51439 2.94134,3.10098 4.39258,4.75977 l -5.90039,6.33203 0.14648,0.13672 c -0.32501,0.0727 -0.65716,0.14669 -0.99414,0.2207 -2.03979,0.3977 -3.91898,0.71689 -5.65234,0.9668 H 252.5918 v -2.05469 c 0,-0.38953 0.0251,-1.15753 0.0762,-2.23047 v -0.002 -0.002 c 0.0499,-1.09751 0.125,-2.22214 0.22461,-3.37304 0.15213,-1.21521 0.30357,-2.35547 0.45508,-3.41602 0.14361,-1.00531 0.32969,-1.71287 0.41796,-1.93359 l 2.09766,-5.24805 -4.98437,2.66602 c -2.16724,1.15922 -4.19316,2.10785 -6.07227,2.84961 -1.75203,0.69159 -3.68416,1.1171 -5.82422,1.25976 l -3.9375,0.26172 2.375,2.9707 c -0.0152,-0.0176 -0.0282,-0.0317 -0.0351,-0.0371 h -0.002 -0.002 -0.002 -0.002 v 0.002 0.002 c -2e-4,0.044 0.16944,0.38379 0.25977,0.86524 l 0.004,0.0137 0.002,0.0117 c 0.13973,0.69864 0.26118,1.51831 0.35937,2.45117 v 0.006 l 0.002,0.006 c 0.0994,0.89413 0.17303,1.78803 0.22265,2.68164 l 0.004,0.0625 0.008,0.0645 c 0.0991,0.84262 0.14063,1.45687 0.14063,1.69922 v 1.4707 c -1.64809,1.367 -3.34585,2.44076 -5.12696,3.12891 l -1.3164,0.50976 v 4.32618 h 6.44336 v 6.75 h -6.63086 c -0.0328,-0.13562 -0.0655,-0.2744 -0.0977,-0.41602 -0.24263,-1.0676 -0.43853,-2.19183 -0.58594,-3.37109 -0.15153,-1.21228 -0.27783,-2.42285 -0.3789,-3.63477 v -0.006 c -0.0995,-1.24569 -0.14844,-2.38065 -0.14844,-3.40039 0,-1.32113 0.0773,-2.38747 0.20508,-3.1543 l 0.38672,-2.31836 -2.34961,-0.0801 c -3.00823,-0.10198 -6.04249,-0.28061 -9.10352,-0.53516 -3.06144,-0.30614 -5.62069,-0.66217 -7.65234,-1.05859 l -1.07617,-0.21094 -0.77539,0.77539 c -1.72131,1.72131 -3.44511,3.12639 -5.16407,4.22461 l -0.01,0.008 -0.0117,0.006 c -1.57949,1.03795 -3.32548,1.73602 -5.30078,2.10352 l -2.26563,0.42187 0.67188,2.20313 c 0.3187,1.04717 0.67151,2.64406 1.02539,4.71679 l 0.006,0.0273 0.006,0.0293 c 0.21221,1.06107 0.36974,2.32323 0.46679,3.77539 h -4.94726 c 0.0249,-0.44353 0.053,-0.84697 0.084,-1.20898 l 0.20703,-2.39844 -2.40234,0.16797 c -2.23773,0.15612 -4.19302,0.31143 -5.87109,0.46875 -1.68933,0.15838 -3.23027,0.34402 -4.625,0.5586 l -0.006,0.002 h -0.006 c -1.33731,0.21397 -2.57697,0.45573 -3.72266,0.72851 l -0.0117,0.004 -0.0117,0.002 c -0.23471,0.0587 -0.45507,0.14917 -0.6875,0.21289 -0.004,-0.0666 -0.0122,-0.11207 -0.0156,-0.17968 -0.05,-1.00095 -0.0742,-2.00114 -0.0742,-3.00196 v -1.85156 c 0.99441,0.36539 1.9905,0.70703 2.98633,1.02149 l 0.0137,0.004 0.0137,0.004 c 1.11663,0.33499 2.21642,0.58886 3.29883,0.75976 1.0659,0.1683 2.04721,0.25977 2.96094,0.25977 2.14355,0 4.16352,-0.64638 5.73828,-1.94727 l 0.0195,-0.0176 0.0195,-0.0176 c 1.54133,-1.34029 2.72403,-3.23949 3.73242,-5.64844 l 1.10742,-2.64648 -2.86132,-0.20508 c -5.5631,-0.40055 -9.83163,-1.27529 -12.71094,-2.46289 l 0.1289,-4.27735 0.0371,-0.0391 c 3.4103,-3.61698 6.01689,-6.40397 7.83789,-8.38086 l 0.0195,-0.0215 c 1.84928,-1.95209 3.14329,-3.3236 3.87304,-4.10547 l 1.51758,-1.625 -1.73633,-1.38867 c -0.74147,-0.59318 -1.29223,-1.07739 -1.61523,-1.4004 -0.44441,-0.44439 -1.05199,-1.0243 -1.83789,-1.75781 z m -69.20118,7.08398 c -0.005,0.005 -0.0104,0.0129 -0.0156,0.0176 -0.002,0.002 -0.004,0.002 -0.006,0.004 z m -39.974605,0.38672 c -1.88e-4,0.001 -0.0017,0.005 -0.002,0.006 v 0.002 c -5.25e-4,0.002 -0.0013,0.003 -0.002,0.004 l 0.002,-0.006 z m 64.880855,21.49414 0.17774,0.13672 c -0.0241,-0.0121 -0.0531,-0.0155 -0.0742,-0.0332 -0.0403,-0.0294 -0.0662,-0.0714 -0.10352,-0.10352 z m -20.43359,0.86914 0.10742,0.12891 c -0.0207,-0.0223 -0.0517,-0.0364 -0.0703,-0.0606 -0.0165,-0.0187 -0.0242,-0.0466 -0.0371,-0.0684 z m 138.33203,0.49414 2.11328,0.91407 v 9.80859 h -11.8789 v -5.41016 l 6.87109,0.86719 0.44336,-1.77344 c 0.20344,-0.81374 0.5639,-1.69229 1.0957,-2.6289 0.41075,-0.66023 0.88781,-1.21124 1.35547,-1.77735 z m 176.03906,1.11328 0.49024,1.60743 c 0.3187,1.04717 0.67346,2.64406 1.02734,4.71679 l 0.004,0.0273 0.006,0.0293 c 0.23287,1.16433 0.40014,2.57103 0.49414,4.20508 h -10.9375 v -6.38672 l 6.87109,0.86719 0.44336,-1.77344 c 0.20344,-0.81374 0.56391,-1.69229 1.0957,-2.6289 0.15342,-0.24658 0.34454,-0.43084 0.50586,-0.66407 z m -29.57421,0.25586 v 3.04493 h 6.44531 v 7.66406 h -8.375 c 0.0316,-2.74752 0.13169,-4.88367 0.28711,-6.3711 0.22989,-1.72545 0.69439,-2.97427 1.27343,-3.80664 z m -114.92383,2.5 0.86133,1.07813 c 0.0161,0.0276 0.0498,0.0833 0.0801,0.18555 0.0701,0.23642 0.16461,0.63874 0.25977,1.16211 0.19277,1.06027 0.36821,2.37976 0.51953,3.94335 l 0.002,0.0332 0.006,0.0332 c 0.0583,0.45188 0.11422,0.91249 0.16407,1.38281 h -6.25782 -7.85742 l 2.12695,-2.99218 5.73047,2.99218 1.06641,-1.22656 c 1.21997,-1.40297 2.18826,-3.09681 2.93164,-5.04101 l 0.004,-0.01 0.004,-0.01 c 0.17483,-0.47068 0.21106,-1.04143 0.35938,-1.53125 z m 160.10547,1.46289 c 0.68141,0.14003 0.98713,0.32789 1.70117,0.43946 l 0.0351,0.006 0.0352,0.004 c 1.02302,0.124 1.41767,0.10673 2.2832,0.16016 0.0419,0.61583 0.0113,0.71582 0.0937,1.32031 l 0.006,0.0449 0.01,0.0449 c 0.0868,0.47717 -0.0372,0.76532 0.0586,1.22656 l -4.05859,1.20898 c -0.0495,-0.70945 0.16057,-1.21109 0.0898,-1.9707 -0.0548,-0.87704 -0.15788,-1.47757 -0.2539,-2.48438 z m -240.4375,0.0899 c 0.67957,0.14007 0.77886,0.37291 1.49218,0.48437 l 0.0352,0.006 0.0352,0.004 c 1.02301,0.124 1.79854,0.13602 2.66406,0.18945 0.0419,0.61583 -0.13522,0.58106 -0.0527,1.18555 l 0.006,0.0449 0.008,0.0449 c 0.0868,0.47731 -0.0429,-0.13281 0.25195,1.24024 l -4.23438,1.13672 c -0.0495,-0.70943 -0.0719,-1.3576 -0.14257,-2.11719 -0.0548,-0.87704 0.0335,-1.21194 -0.0625,-2.21875 z m 97.02539,4.69726 c 0.81853,0.29764 0.75087,0.38399 1.75976,0.61329 l 0.0215,0.004 0.0234,0.004 c 1.73841,0.35558 2.77702,0.18505 4.57032,0.39453 l -0.25782,9.80469 c -1.15876,-0.28596 -1.50092,-0.24115 -2.7539,-0.45508 -1.46308,-0.24979 -2.07166,-0.22426 -3.37305,-0.40235 0.0126,-0.26756 0.0339,-0.38849 0.0566,-0.42187 8.2e-4,-9.8e-4 0.005,-0.005 0.006,-0.006 h 0.002 l 0.002,-0.002 h 0.002 0.002 0.002 0.002 v 0.002 c 8.8e-4,3.3e-4 0.005,0.001 0.006,0.002 0.0445,0.0327 0.0989,0.26035 0.14062,0.30469 8.3e-4,7.4e-4 0.005,0.003 0.006,0.004 v 0.002 h 0.002 0.002 0.002 0.002 0.002 l 0.002,-0.002 0.002,-0.002 0.002,-0.002 0.002,-0.002 c 0.0191,-0.0283 0.0325,-0.14895 0.041,-0.37891 0.10509,-1.94399 0.1582,-3.688 0.1582,-5.23633 0,-0.51818 -0.004,-0.70856 -0.0117,-0.74023 v -0.002 h -0.002 l -0.002,0.002 v 0.002 0.002 c -0.0119,0.0414 -0.0323,0.27689 -0.0566,0.32421 -5.6e-4,8.8e-4 -0.001,0.003 -0.002,0.004 h -0.002 v 0.002 h -0.002 -0.002 -0.002 l -0.002,-0.002 c -0.0206,-0.0255 -0.0462,-0.20402 -0.0742,-0.70898 v -0.004 c -0.0527,-0.97364 -0.18405,-2.06958 -0.27539,-3.10352 z m -130.29688,8.11524 v 0.8125 c 0,1.4272 -0.0749,2.79664 -0.2207,4.11133 -0.0629,0.54504 -0.1965,1.24223 -0.28711,1.84765 -2.9062,-1.24629 -5.7859,-2.47766 -7.78125,-3.16992 -1.79053,-0.6212 -3.1971,-0.9778 -4.48828,-1.19531 2.27636,-0.59107 4.63154,-1.14068 7.1914,-1.58203 l 0.0156,-0.004 0.0176,-0.002 c 2.12386,-0.4028 3.8217,-0.60282 5.55273,-0.81836 z m 212.44922,0.11328 v 5.68359 c -0.80569,-0.12169 -1.72858,-0.33784 -2.42969,-0.36718 h -0.004 c -0.50533,-0.022 -0.98546,-0.0681 -1.48047,-0.0996 l 0.082,-4.22071 c 0.67969,-0.12964 1.28245,-0.19815 2.0625,-0.40039 l 0.0332,-0.008 0.0352,-0.01 c 0.54969,-0.16287 1.13827,-0.39285 1.70117,-0.57812 z m -95.79492,10.43945 c -0.0156,0.002 -0.0311,0.006 -0.0469,0.006 -0.0441,0.006 -0.0885,0.008 -0.13281,0.01 z"
       inkscape:label="text"
       transform="scale(0.38458351)" /></g></svg>
