<?xml version="1.0" encoding="UTF-8" standalone="no"?>
<svg
   version="1.2"
   viewBox="0 0 219.2126 219.2126"
   width="58mm"
   height="58mm"
   id="svg1"
   sodipodi:docname="ZebrakRoleTokenLaser.svg"
   inkscape:version="1.4.2 (2aeb623e1d, 2025-05-12)"
   xml:space="preserve"
   xmlns:inkscape="http://www.inkscape.org/namespaces/inkscape"
   xmlns:sodipodi="http://sodipodi.sourceforge.net/DTD/sodipodi-0.dtd"
   xmlns="http://www.w3.org/2000/svg"
   xmlns:svg="http://www.w3.org/2000/svg"><sodipodi:namedview
     id="namedview1"
     pagecolor="#ffffff"
     bordercolor="#666666"
     borderopacity="1.0"
     inkscape:showpageshadow="2"
     inkscape:pageopacity="0.0"
     inkscape:pagecheckerboard="0"
     inkscape:deskcolor="#d1d1d1"
     inkscape:zoom="1.2849287"
     inkscape:cx="-10.50642"
     inkscape:cy="256.82359"
     inkscape:window-width="1920"
     inkscape:window-height="1043"
     inkscape:window-x="0"
     inkscape:window-y="0"
     inkscape:window-maximized="1"
     inkscape:current-layer="layer2"
     inkscape:document-units="mm"
     showgrid="false" /><defs
     id="defs1"><clipPath
       clipPathUnits="userSpaceOnUse"
       id="cp1"><path
         d="m 275.5,535.5 c -143.78,0 -260,-116.22 -260,-260 0,-143.78 116.22,-260 260,-260 143.78,0 260,116.22 260,260 0,143.78 -116.22,260 -260,260 z"
         id="path1" /></clipPath></defs><style
     id="style1">
		tspan { white-space:pre } 
		.s0 { fill: none;stroke: #ff0000;stroke-miterlimit:100 } 
	</style><g
     inkscape:groupmode="layer"
     id="layer2"
     inkscape:label="Content"><path
       id="path7"
       style="font-size:42.7649px;font-family:'New Rocker';-inkscape-font-specification:'New Rocker';letter-spacing:0.792184px;baseline-shift:baseline;white-space:pre;display:inline;overflow:visible;opacity:1;fill:none;stroke:#000000;stroke-width:0.188976;stroke-dasharray:none;stroke-opacity:1;enable-background:accumulate;stop-color:#000000;stop-opacity:1"
       d="m 66.015334,124.08336 -0.873047,0.50781 c -0.300532,0.17531 -0.668368,0.37344 -1.087891,0.58399 -0.441567,0.1935 -0.894127,0.40075 -1.359375,0.61914 -0.469035,0.19313 -0.939167,0.38694 -1.408203,0.58008 -0.28347,0.10629 -0.513198,0.18054 -0.755859,0.26172 -0.272943,-0.097 -0.538491,-0.19233 -0.845703,-0.30079 -0.465786,-0.19179 -0.932651,-0.38437 -1.398438,-0.57617 -0.0084,-0.003 -0.01702,-0.006 -0.02539,-0.01 -0.453424,-0.21277 -0.895256,-0.4144 -1.326172,-0.60352 -0.419764,-0.22352 -0.803974,-0.42347 -1.148438,-0.5957 l -0.816406,-0.40821 -0.6875,0.60157 c -0.46823,0.4097 -0.823668,0.73382 -1.091797,1.00195 -0.153805,0.1538 -0.45561,0.42897 -0.871094,0.78906 l -1.279296,1.10938 1.359375,1.00976 c 1.025781,0.76201 2.203375,1.57413 3.533203,2.44141 l 0.01367,0.01 0.01367,0.01 c 1.303807,0.80448 2.536823,1.64905 3.697266,2.5332 l 0.148438,0.11329 c -0.38728,-0.005 -0.771432,-0.009 -1.230469,-0.0274 -0.661292,-0.0552 -1.47024,-0.13953 -2.425781,-0.25195 l 0.0039,0.002 c -0.928207,-0.11251 -2.103399,-0.26994 -3.523438,-0.46875 l -0.671875,-0.0937 -0.478515,0.48047 c -0.827214,0.82722 -1.737376,1.51912 -2.742188,2.08594 l -0.0078,0.004 -0.0059,0.004 c -0.986564,0.57117 -2.171481,1.09362 -3.554687,1.55469 l -1.607422,0.53515 1.595703,2.66016 1.044922,-0.41797 h 0.337891 c 0.950839,0 1.918188,0.0784 2.904296,0.23828 l 0.01953,0.004 0.01953,0.002 c 1.064726,0.1401 2.174964,0.30898 3.328125,0.50586 l 0.01758,0.002 0.01758,0.004 c 1.203398,0.17192 2.46283,0.34391 3.779297,0.51563 l 0.01758,0.002 0.01563,0.002 c 0.930552,0.099 1.994344,0.11387 3.03125,0.14649 -0.471354,0.83199 -0.966552,1.79092 -1.402344,2.4375 -0.786647,1.1387 -1.545359,2.05322 -2.257812,2.74023 -0.697771,0.67193 -1.356006,1.16058 -1.958984,1.48633 -0.607853,0.31501 -1.196698,0.52411 -1.769532,0.63867 l -2.423828,0.48633 1.708985,1.78711 c 0.450372,0.47085 0.564453,0.79839 0.564453,1.15625 0,0.32553 -0.165378,0.96596 -0.640625,1.8164 -0.494627,0.88512 -1.280037,2.06134 -2.341797,3.48633 l -8.714844,11.52735 3.228516,-0.42969 c 1.256785,-0.16759 2.364702,-0.27756 3.318359,-0.33203 0.938376,-0.0265 1.791712,-0.0382 2.570313,-0.0391 0.655476,0.0802 1.261779,0.17039 1.802734,0.27343 h 0.0059 l 0.0059,0.002 c 0.630785,0.11468 1.274588,0.22914 1.933593,0.34375 h 0.0059 l 0.0039,0.004 c 0.724701,0.1208 1.499306,0.2099 2.324219,0.26953 0.85854,0.0911 1.834286,0.13282 2.945312,0.13282 1.106556,0 2.314532,-0.0742 3.625,-0.21875 1.405134,-0.12218 2.795038,-0.39931 4.164063,-0.82422 1.407441,-0.39968 2.770262,-0.96535 4.078125,-1.69532 1.367219,-0.7631 2.569255,-1.7579 3.583984,-2.96289 l 0.41211,-0.48828 c -0.0031,0.0128 -0.0046,0.0283 -0.0078,0.041 -0.149602,0.57347 -0.321357,0.97484 -0.441406,1.16992 l -1.273438,2.07031 h 2.431641 c 0.387319,0 0.961145,0.0587 1.677734,0.19141 l 0.0039,0.002 h 0.0039 c 0.739286,0.13202 1.496867,0.3176 2.273437,0.5586 l 0.02734,0.008 0.02539,0.008 c 0.793533,0.21161 1.557677,0.47506 2.294921,0.79102 0.724677,0.31058 1.305949,0.63703 1.740235,0.95703 l 0.792969,0.58594 0.802734,-0.57422 c 0.283224,-0.2023 0.731872,-0.44951 1.316406,-0.70508 0.643514,-0.24026 1.313273,-0.4681 2.013672,-0.6836 l 0.02344,-0.008 0.02148,-0.008 c 0.682431,-0.23623 1.359915,-0.41898 2.035156,-0.54883 l 0.02539,-0.006 0.02539,-0.006 c 0.702794,-0.1622 1.294661,-0.26551 1.759766,-0.31445 l 1.738281,-0.18359 -0.605468,-1.63868 c -0.166649,-0.45233 -0.280031,-0.89621 -0.351563,-1.33593 -0.0245,-0.25465 -0.04351,-0.56582 -0.05664,-0.93555 h 2.822266 c -0.0053,0.0603 -0.01012,0.119 -0.01563,0.17773 -0.161294,1.72048 -0.500498,2.95079 -0.867187,3.62305 l -1.761719,3.23242 3.439453,-1.31054 c 0.486378,-0.18529 1.074382,-0.33526 1.761719,-0.4375 0.748937,-0.107 1.400477,-0.15821 1.945309,-0.15821 0.78002,0 1.72455,0.11393 2.8125,0.35157 1.13439,0.27699 2.32999,0.60791 3.58399,0.99804 l 0.63281,0.19922 0.54687,-0.38086 c 0.60558,-0.42127 1.25427,-0.81647 1.94532,-1.18945 0.7329,-0.35199 1.46444,-0.6788 2.19531,-0.97656 0.73522,-0.29953 1.45401,-0.55601 2.1543,-0.77149 0.69912,-0.21511 1.33346,-0.37224 1.89648,-0.47461 l 1.86523,-0.33984 -0.92187,-1.6582 c -0.0419,-0.0753 -0.12679,-0.29442 -0.19336,-0.61719 v -0.002 -0.002 -0.002 c -0.0151,-0.0805 -0.0302,-0.16737 -0.0449,-0.26172 h 3.01758 v 0.51758 c 0,0.65649 -0.0976,1.10669 -0.1836,1.31054 -0.043,0.10193 -0.0634,0.14026 -0.0723,0.15235 v 0.002 l -0.002,0.002 h -0.002 -0.002 v -0.002 h -0.002 v -0.002 h -0.002 -0.002 l -0.88867,0.32812 v 2.94727 h 11.87109 v -3.25 l -1.15039,-0.17969 c -0.70278,-0.10981 -0.97926,-0.30824 -1.05664,-0.38476 -0.064,-0.10202 -0.23047,-0.50103 -0.23047,-1.3086 v -0.13281 h 8.99023 c -0.003,0.0649 -0.007,0.12849 -0.01,0.19336 -0.052,1.01043 -0.20975,1.80276 -0.42383,2.35937 l -0.69922,1.81446 1.94336,0.0332 c 1.56594,0.027 2.92658,0.20269 4.07813,0.50977 l 0.004,0.002 h 0.004 c 1.19466,0.31165 2.26536,0.76156 3.23047,1.3457 l 1.00195,0.60547 2.4668,-2.9668 c 0.0948,0.13915 0.14607,0.28587 0.24804,0.42383 0.56534,0.76486 1.22114,1.40849 1.96485,1.9043 l 1.28125,0.85547 0.6875,-1.37891 c 0.11702,-0.23405 0.33113,-0.57562 0.64062,-0.98828 0.30134,-0.40179 0.64437,-0.79671 1.0293,-1.18164 0.39561,-0.39561 0.78738,-0.74514 1.17188,-1.05273 l 0.004,-0.004 0.004,-0.004 c 0.37176,-0.30205 0.68062,-0.47271 0.88281,-0.54492 l 0.90234,-0.32226 v -2.47657 h 1.83594 v 1.39063 c 0,0.65649 -0.0956,1.10669 -0.18164,1.31054 -0.043,0.10193 -0.0629,0.14026 -0.0723,0.15235 l -0.002,0.002 v 0.002 h -0.002 -0.002 -0.002 v -0.002 h -0.002 v -0.002 h -0.002 -0.002 l -0.88672,0.32812 v 2.94727 h 10.5879 v -2.94727 l -0.86719,-0.32031 c -0.0125,-0.023 -0.0393,-0.0786 -0.084,-0.19922 -0.10417,-0.28165 -0.20507,-0.85528 -0.20507,-1.65625 v -3.89258 c 0.26316,0.13146 0.55812,0.24244 0.81054,0.38086 l 0.0156,0.008 0.0137,0.008 c 0.63168,0.32603 1.25266,0.73009 1.87305,1.13672 v 2.78711 c 0,0.494 -0.0263,1.03876 -0.0801,1.63086 -0.055,0.60502 -0.12296,1.19475 -0.20508,1.76953 -0.0787,0.55085 -0.18233,1.06944 -0.31055,1.55664 l -0.01,0.0332 -0.006,0.0332 c -0.1034,0.49112 -0.21772,0.88327 -0.32422,1.16016 l -0.49219,1.2793 2.44531,0.91797 0.61914,-0.61914 c 0.28764,-0.28764 0.65689,-0.60694 1.10157,-0.94727 h 0.002 v -0.002 h 0.002 v -0.002 c 0.47626,-0.34282 0.99398,-0.68684 1.55664,-1.03515 0.57724,-0.35734 1.16971,-0.70283 1.77539,-1.03321 0.60063,-0.3276 1.169,-0.6112 1.70313,-0.85156 l 1.00391,-0.45117 -0.23438,-1.07813 c -0.16357,-0.74772 -0.26758,-1.94621 -0.26758,-3.51562 0,-0.77156 0.0146,-1.43868 0.041,-2.00391 0.0529,-0.54378 0.13049,-1.08743 0.23437,-1.63281 l 0.17774,-0.94141 -0.82422,-0.48437 c -1.03287,-0.60757 -2.15019,-1.14978 -3.34766,-1.62891 -0.13272,-0.0544 -0.32368,-0.0826 -0.46093,-0.13476 l 3.91796,-1.48242 -0.29296,-1.17188 c -0.015,-0.0601 -0.0636,-0.37616 -0.0898,-0.82031 -0.0275,-0.4675 -0.041,-0.84481 -0.041,-1.11719 0,-1.06944 0.12138,-1.93819 0.32421,-2.5918 l 0.44532,-1.43359 -1.47266,-0.30078 c -1.49188,-0.3039 -2.75936,-0.633 -3.79883,-0.97852 -0.98526,-0.36486 -1.8529,-0.80037 -2.60351,-1.30078 l -0.92774,-0.61719 -0.78711,0.78711 c -0.55574,0.55575 -1.02363,0.978 -1.48632,1.39258 v -6.07617 c 0,-1.64099 0.11652,-2.93397 0.31054,-3.83984 0.2218,-0.90291 0.53429,-1.54951 0.87891,-1.97071 l -1.64844,-2.08203 c -1.22746,0.6001 -2.31106,1.02391 -3.23047,1.2793 -0.92941,0.25816 -1.7643,0.37891 -2.50195,0.37891 -0.71742,0 -1.23422,-0.0968 -1.51758,-0.20704 l -3.70117,-1.43945 2.04297,3.40625 c 0.21088,0.35147 0.36644,0.68918 0.47461,1.01367 l 0.0137,0.0371 0.0156,0.0371 c 0.13431,0.33577 0.23618,0.7003 0.30664,1.09961 l 0.008,0.0371 0.008,0.0391 c 0.0912,0.38783 0.15442,0.84683 0.17969,1.37696 l 0.002,0.0332 0.002,0.0312 c 0.0518,0.54399 0.0801,1.18761 0.0801,1.92383 v 19.35937 h -3.64258 c -0.028,-0.18878 -0.0541,-0.39391 -0.0781,-0.61328 -0.0528,-0.77435 -0.084,-1.83832 -0.084,-3.17969 0,-2.04507 0.0606,-3.58419 0.16407,-4.57812 0.12336,-0.92526 0.36991,-1.57997 0.66211,-2 l -2.07618,-1.73828 c -1.05919,-0.47655 -1.3524,-0.52793 -2.1582,-0.99024 -0.81858,-0.42445 -1.65909,-1.07803 -2.50781,-2.0039 l -0.74219,-0.8086 -0.94726,0.55469 c -0.65142,0.38186 -1.70053,0.78548 -3.10547,1.13672 -1.33931,0.33482 -3.00371,0.51562 -4.97461,0.51562 h -0.37696 c -0.28451,-0.0903 -0.42083,-0.043 -0.60546,-0.043 h -1.7129 l 0.10352,0.44531 0.28516,1.22265 c 0.21443,0.91901 0.46257,1.70053 0.77929,2.36914 l 0.0117,0.0254 0.0137,0.0254 c 0.33912,0.64432 0.73571,1.2024 1.22657,1.65234 l 0.0234,0.0215 0.0234,0.0215 c 0.47336,0.39447 1.02117,0.69327 1.60938,0.86133 l 0.0527,0.0137 0.0547,0.0117 c 0.52448,0.10489 1.07014,0.15429 1.63476,0.15429 0.87303,0 1.83657,-0.1702 2.96289,-0.47461 0.45793,-0.12376 0.87835,-0.31534 1.32227,-0.46484 v 1.39844 c -0.21817,0.0852 -0.36778,0.16715 -0.64453,0.25195 -0.57894,0.15722 -1.23372,0.30601 -1.96484,0.44141 -0.7272,0.13466 -1.49954,0.24414 -2.31836,0.32617 h -0.002 -0.002 -0.002 c -0.78236,0.053 -1.55022,0.0801 -2.30274,0.0801 -0.68898,0 -1.31295,-0.0414 -1.86914,-0.11719 l -2.33984,-0.31836 0.89844,2.18359 c 0.14699,0.357 0.26514,0.80056 0.33789,1.33399 l 0.002,0.004 v 0.004 c 0.0753,0.52694 0.11523,1.10482 0.11523,1.73242 0,0.47153 -0.006,0.9425 -0.0156,1.41407 h -9.04883 v -3.58789 l 2.66406,-3.75196 3.14063,1.64063 0.70312,-0.8086 c 0.69214,-0.79595 1.2391,-1.75467 1.65625,-2.8457 l 0.002,-0.006 0.002,-0.006 c 0.41261,-1.11089 0.69204,-2.31475 0.8457,-3.60547 l 0.14258,-1.20312 -1.17773,-0.2793 c -1.15533,-0.27508 -2.20437,-0.57662 -3.15039,-0.90039 -0.93411,-0.34807 -1.63374,-0.68027 -2.04102,-0.9375 l -1.41797,-0.89648 -0.58203,1.57421 c -0.24195,0.65468 -0.52417,1.23582 -0.78711,1.85157 v -0.42969 l -1.48242,-2.4707 -0.97656,0.24414 c -0.89388,0.22347 -1.92092,0.46313 -3.07618,0.71679 -0.003,6.5e-4 -0.005,9.6e-4 -0.008,0.002 -1.13674,0.2213 -2.18901,0.40172 -3.15039,0.53906 l -1.16797,0.16602 v 2.54296 l 1.58399,0.6836 v 11.76758 h -3.19727 c -0.0404,-0.59907 -0.0729,-1.29751 -0.0957,-2.09375 -0.028,-0.98047 -0.041,-2.13844 -0.041,-3.46875 0,-1.05954 0.0283,-2.10299 0.084,-3.13282 v -0.002 c 0.0515,-0.97901 0.21844,-2.02869 0.51172,-3.14844 l 0.34179,-1.29883 -1.29492,-0.35546 c -0.69695,-0.19227 -1.39257,-0.49616 -2.09375,-0.92188 -0.68277,-0.41454 -1.324,-0.94149 -1.92969,-1.59766 l -0.53515,-0.58007 -0.76953,0.17578 c -0.78963,0.18222 -1.57791,0.40977 -2.36329,0.68164 -0.77644,0.26876 -1.53714,0.58319 -2.2832,0.93945 h -0.002 l -0.002,0.002 h -0.002 l -0.002,0.002 c -0.63614,0.2802 -1.22812,0.59534 -1.80664,0.92187 v -7.50781 c 0,-1.41325 0.0971,-2.63966 0.27734,-3.67773 0.19588,-0.971 0.51657,-1.65777 0.9043,-2.12305 l -1.62695,-2.09766 c -1.14486,0.54518 -2.20781,0.96049 -3.18164,1.25 l -0.006,0.002 h -0.004 c -0.915352,0.27968 -1.764893,0.41211 -2.554687,0.41211 -0.652298,0 -1.170367,-0.0861 -1.560547,-0.22266 l -3.273438,-1.14649 1.623047,3.06446 c 0.232524,0.43921 0.422138,0.85877 0.570313,1.2539 0.141638,0.37771 0.247099,0.76612 0.318359,1.16993 l 0.0078,0.0371 0.0078,0.0371 c 0.0926,0.39358 0.154728,0.84074 0.179687,1.33985 0.0271,0.54197 0.04102,1.16084 0.04102,1.85547 v 14.79687 c 0,2.12431 -0.03899,3.93887 -0.115234,5.4336 h -2.960938 v -0.38672 c 0,-0.30436 0.01171,-0.60932 0.03711,-0.91407 l 0.166015,-1.98437 -1.908203,0.56836 c -1.47611,0.43969 -2.652254,1.01455 -3.482422,1.92773 l -0.01172,0.0137 -0.01172,0.0137 c -0.415674,0.48131 -0.549536,1.12799 -0.785157,1.7207 -0.174053,-0.0159 -0.302035,-0.0254 -0.498046,-0.0449 -0.542789,-0.0813 -1.099952,-0.1609 -1.667969,-0.24219 l -0.01172,-0.002 c -0.581037,-0.11075 -1.133934,-0.22177 -1.658203,-0.33203 -0.04843,-0.0108 -0.06516,-0.0223 -0.111328,-0.0332 0.03357,-0.32782 0.05974,-0.60244 0.09961,-0.97461 0.04909,-0.45819 0.06665,-0.93016 0.09766,-1.39648 1.363711,-0.21589 2.733358,-0.42723 4.152344,-0.60742 l 0.0098,-0.002 h 0.01172 c 1.770211,-0.25288 3.509805,-0.4496 5.220703,-0.58984 l 1.794922,-0.14844 -0.632813,-1.68359 c -0.142726,-0.3806 -0.285679,-0.86714 -0.417969,-1.44922 -0.131897,-0.58034 -0.238017,-1.19125 -0.318359,-1.83398 -0.08322,-0.6658 -0.153521,-1.3325 -0.208984,-1.99805 l 0.002,0.004 c -0.05461,-0.6826 -0.08203,-1.30187 -0.08203,-1.85743 0,-0.71942 0.04196,-1.2967 0.109375,-1.70117 l 0.25586,-1.52929 -1.550781,-0.0527 c -1.652234,-0.056 -3.318567,-0.1532 -5,-0.29297 -0.0086,-8.5e-4 -0.01295,-9.5e-4 -0.02148,-0.002 -1.670202,-0.16758 -3.068249,-0.36474 -4.171875,-0.58008 l -0.708984,-0.13672 -0.511719,0.50977 c -0.938345,0.93834 -1.877433,1.70197 -2.808594,2.29687 l -0.0059,0.004 -0.0078,0.008 c -0.844783,0.55515 -1.777065,0.92764 -2.837891,1.125 l -1.494141,0.27735 0.44336,1.45507 c 0.170811,0.56124 0.364576,1.43395 0.558593,2.57032 l 0.002,0.0176 0.0039,0.0195 c 0.202019,1.01009 0.316406,2.37304 0.316406,4.05273 0,0.64648 -0.02678,1.37273 -0.08203,2.17383 l -0.002,0.0234 v 0.0234 c -0.01514,0.43909 -0.04433,0.87218 -0.08594,1.30078 l -4.791015,1.57032 h -0.002 c -0.03912,0.003 -0.07848,0.005 -0.117187,0.008 -0.838464,0.0541 -1.691029,0.0791 -2.558594,0.0801 -0.968334,-0.0537 -2.047125,-0.19777 -3.238281,-0.44141 -1.189278,-0.27139 -2.621141,-0.68361 -4.291016,-1.24023 l -1.789062,-0.59571 v 1.88477 c 0,0.34985 0.08067,0.68055 0.136719,1.01758 -0.409063,-0.0488 -0.965572,-0.0439 -1.294922,-0.11914 h -0.002 c -0.360492,-0.085 -0.762924,-0.23133 -1.138672,-0.33789 l 3.189453,-4.52735 0.002,-0.004 c 0.445613,-0.64057 0.890431,-1.25182 1.333984,-1.83399 0.418338,-0.54906 0.826613,-1.0053 1.216797,-1.37109 h 0.002 v -0.002 c 0.402939,-0.37923 0.795736,-0.6547 1.173828,-0.84375 l 0.02539,-0.0117 0.02539,-0.0156 c 0.300973,-0.16721 0.60047,-0.23442 0.957031,-0.24219 l 0.08789,0.0293 h 0.519531 l 0.640625,-2.55859 c -0.32106,-0.17124 -0.506164,-0.31728 -0.607422,-0.41016 -7.8e-5,-0.0107 0,-0.0289 0,-0.0586 0,-0.11578 0.09246,-0.58059 0.386719,-1.22071 0.325335,-0.67364 0.878554,-1.6108 1.652343,-2.77148 l 0.0039,-0.008 0.0039,-0.006 c 0.776962,-1.19319 1.803851,-2.65811 3.076172,-4.38282 l 0.0039,-0.004 0.002,-0.004 c 1.277732,-1.76043 2.842858,-3.88059 4.69336,-6.35742 l 1.912109,-2.55859 -3.169922,0.39648 c -1.137629,0.14221 -2.1888,0.27118 -3.154297,0.38477 -0.943072,0.0833 -1.845828,0.16659 -2.708984,0.25 h -0.002 c -0.01307,0.001 -0.02796,0.003 -0.04102,0.004 -0.854415,0.0552 -1.680943,0.10888 -2.482422,0.16407 -0.81064,0.028 -1.634427,0.043 -2.474609,0.043 h -0.982422 l 0.123047,-0.084 c 1.874385,-1.27799 3.447172,-2.34101 4.722656,-3.19141 l 0.01172,-0.008 c 1.318347,-0.86003 2.166837,-1.43988 2.697265,-1.89453 l 1.246094,-1.06836 -1.283203,-1.02539 c -0.404636,-0.32371 -0.703088,-0.58785 -0.871094,-0.75586 -0.248103,-0.2481 -0.583635,-0.56764 -1.017578,-0.97266 z m 82.162106,6.25 -0.98437,1.9668 c -0.23407,0.46814 -0.54322,1.02258 -0.92774,1.65429 l -0.0117,0.0195 -0.0117,0.0176 c -0.35595,0.62974 -0.7398,1.26196 -1.15235,1.89454 l -0.004,0.006 -0.004,0.006 c -0.397,0.62385 -0.77846,1.21896 -1.14649,1.78516 l -0.0137,0.0215 -0.0137,0.0215 c -0.34383,0.57306 -0.61601,1.03258 -0.82031,1.38281 l -0.5918,1.01367 0.91602,0.73243 c 0.37874,0.303 0.62636,0.5556 0.71679,0.67187 l 0.0527,0.0664 0.0605,0.0586 c 0.28815,0.28816 0.65288,0.60543 1.1289,0.99219 l 0.95313,0.77344 0.86523,-0.86719 c 0.52606,-0.52606 1.08151,-1.0679 1.66406,-1.62305 l 0.0195,-0.0176 0.004,-0.004 c 0.61672,-0.56059 1.20673,-1.09485 1.76758,-1.59961 0.5488,-0.49393 1.05148,-0.91287 1.5,-1.25586 l 0.0195,-0.0137 0.0176,-0.0156 c 0.46736,-0.38488 0.82271,-0.6559 1.00195,-0.77539 l 1.83008,-1.21875 -1.91016,-1.0918 c -0.15158,-0.0866 -0.43791,-0.2635 -0.80664,-0.5 -0.3517,-0.26979 -0.72485,-0.54943 -1.12304,-0.84179 l -0.0156,-0.0117 c -0.007,-0.005 -0.0124,-0.0104 -0.0195,-0.0156 -0.36535,-0.2877 -0.71557,-0.57683 -1.05469,-0.86328 -0.29246,-0.26984 -0.49858,-0.4929 -0.58594,-0.60937 z m 12.85156,4.42774 0.0137,0.041 c -0.001,-0.003 -0.003,-0.005 -0.004,-0.008 -0.004,-0.0108 -0.006,-0.0221 -0.01,-0.0332 z m 6.3379,16.13867 2.77148,0.55078 -2.77148,1.12109 z m -84.552738,0.14843 c 0.28277,0.0543 0.537695,0.13401 0.830078,0.17969 l 0.02148,0.004 0.02344,0.004 c 0.490625,0.0595 0.856596,0.0594 1.283203,0.0898 0.02248,0.27883 0.01917,0.56509 0.05664,0.83984 l 0.0039,0.0293 0.0059,0.0293 c 0.03479,0.19136 0.08169,0.36394 0.119141,0.55078 l -2.154297,0.5332 c -0.02304,-0.30557 -0.03065,-0.57678 -0.06055,-0.89844 l -0.0039,-0.0371 c -0.02456,-0.38774 -0.08606,-0.8918 -0.125,-1.32422 z m 25.080078,0.96094 c -0.0197,0.2979 -0.0389,0.55659 -0.0586,0.8711 l -0.002,0.0215 v 0.0215 c -0.029,0.92647 -0.043,1.85281 -0.043,2.7793 v 3.0957 0.0195 c 0.02,0.73904 0.0571,1.25176 0.0918,1.79882 -0.25572,0.17306 -0.50834,0.30381 -0.77148,0.51954 -0.2752,0.21093 -0.47643,0.4077 -0.70899,0.60937 -0.52299,-0.14079 -1.02583,-0.28619 -1.65625,-0.4082 -0.36757,-0.0711 -0.6087,-0.08 -0.92773,-0.12891 0.0694,-0.63563 0.17234,-1.1844 0.18945,-1.9707 0.0572,-1.32765 0.0859,-2.77374 0.0859,-4.34766 v -1.71875 c 0.13758,-0.0628 0.20386,-0.11313 0.375,-0.17969 l 0.0293,-0.0117 0.0293,-0.0137 c 0.44915,-0.19962 0.94633,-0.3778 1.49024,-0.5332 0.55486,-0.15853 1.1226,-0.29022 1.70703,-0.39648 l 0.0234,-0.006 0.0234,-0.004 c 0.0439,-0.01 0.0796,-0.009 0.12305,-0.0176 z m 39.15625,6.5293 v 2.55859 c -0.35764,-0.0478 -0.78309,-0.15446 -1.10547,-0.16797 h -0.002 c -0.20351,-0.009 -0.3953,-0.0274 -0.59571,-0.0391 l 0.0371,-1.92969 c 0.32663,-0.0665 0.60575,-0.0948 0.97071,-0.18945 l 0.0234,-0.006 0.0215,-0.006 c 0.21018,-0.0623 0.43685,-0.15255 0.65039,-0.2207 z m 25.06836,9.92187 -0.002,0.0117 c 6.2e-4,-0.004 7.5e-4,-0.008 0.002,-0.0117 z"
       inkscape:label="text" /><g
       inkscape:groupmode="layer"
       id="layer4"
       inkscape:label="Kruh"
       style="display:inline"><path
         id="path2"
         style="fill:none;stroke:#000000;stroke-width:0.189192"
         d="M 219.118,109.6063 A 109.5117,109.5117 0 0 1 109.6063,219.118 109.5117,109.5117 0 0 1 0.09459686,109.6063 109.5117,109.5117 0 0 1 109.6063,0.09459686 109.5117,109.5117 0 0 1 219.118,109.6063 Z"
         inkscape:label="Vnejsi kruh" /><path
         id="circle2"
         style="fill:none;stroke:#000000;stroke-width:0.188976"
         d="M 208.69732,109.6063 A 99.091019,99.091019 0 0 1 109.6063,208.69732 99.091019,99.091019 0 0 1 10.515282,109.6063 99.091019,99.091019 0 0 1 109.6063,10.515282 99.091019,99.091019 0 0 1 208.69732,109.6063 Z"
         inkscape:label="Vnitrni kruh" /></g><path
       id="path1-2"
       style="display:inline;fill:none;stroke:#000000;stroke-width:0.200679;stroke-dasharray:none;stroke-opacity:1"
       d="m 109.07821,33.2828 c -13.920274,0.130406 -24.588986,1.783686 -41.175422,11.967093 -2.916598,2.138651 -6.779056,5.715775 -7.444347,9.394558 -1.133458,5.132433 0.487871,10.349238 0.268898,15.532693 0.740052,14.836206 11.431238,28.503564 24.249947,35.749216 7.481633,4.31288 16.141474,7.04336 24.707444,7.33001 11.00165,-1.01865 22.07295,-4.5879 30.47627,-11.99422 9.0057,-7.202973 14.23009,-18.174419 15.96961,-29.421213 1.07183,-6.77999 6.22858,-14.652719 0.0385,-22.337397 -5.7261,-5.739368 -14.02227,-9.689916 -21.47769,-12.373787 -7.56609,-2.456644 -17.66396,-3.825031 -25.61332,-3.846953 z m 2.81467,5.123417 c 2.72851,-1.025804 3.02941,4.407472 4.69431,0.873612 4.084,-0.972061 8.32739,0.846609 12.30385,1.840343 3.33832,1.016228 6.69656,2.110979 10.19601,2.388576 -0.46285,1.135414 0.48701,5.184404 -1.48072,3.198662 -7.82735,-4.491782 -17.09654,-5.248569 -25.91316,-5.966346 -3.91639,1.312505 -3.55352,-3.412567 0.19971,-2.334847 z m -4.99626,0.07971 c -2.00759,4.372606 -8.084349,1.533 -11.788425,2.795361 -5.586141,1.943028 -11.776692,2.356623 -16.853846,5.683261 -2.842643,0.671966 -4.188462,6.650441 -6.642988,2.851375 -5.102804,0.552446 1.99121,-4.267335 4.175553,-4.757654 9.701423,-4.48662 20.462229,-6.457011 31.109706,-6.572343 z m 2.11988,2.963777 c 0.49553,1.647985 -0.58255,4.880201 -0.64896,2.11837 0.34428,-0.659112 0.54405,-1.385066 0.64896,-2.11837 z m -7.55242,2.151339 c 4.56977,-0.366845 7.94617,4.065571 8.55325,8.619402 0.86024,1.554539 3.22217,6.551296 2.12464,1.129116 -1.76738,-3.382662 -2.79257,-10.587767 3.2594,-7.83417 6.16104,1.518308 12.23809,3.337957 18.31607,5.152851 -0.65595,0.669563 -2.81191,-0.582062 -4.04653,-0.653657 -0.54788,0.597352 2.14202,1.575768 2.8691,2.250528 3.46097,2.267653 7.13497,4.276624 10.46235,6.706539 1.32004,1.408565 2.64008,2.817129 3.96012,4.225694 l -4.29567,-3.221773 c 1.19323,1.312574 2.38647,2.625144 3.57972,3.93772 -6.10008,-2.891926 -10.65956,-8.772916 -17.54075,-10.023285 3.57629,3.493258 9.27332,4.508247 12.47677,8.739071 1.39175,1.403585 3.21962,4.833297 0.57931,1.93324 -3.58466,-3.146013 -8.16738,-4.774375 -12.6981,-6.018644 3.81993,2.620108 9.31379,4.809079 11.57951,9.574072 -1.61573,-0.462686 -8.47375,-5.173235 -10.55103,-4.542082 2.163,2.618364 4.32599,5.236724 6.48899,7.855089 l -6.08556,-3.93772 c 0.47729,1.551222 0.9546,3.102446 1.43189,4.653668 -1.13142,-0.02592 -3.63938,-1.575119 -3.85704,-0.589884 1.07361,2.133896 -1.1614,1.801066 -2.64425,2.029002 l -11.39743,1.424677 c 1.43994,-0.818991 1.80497,-1.215269 -0.52518,-1.224465 -2.14006,0.08065 -3.85945,-0.48347 -0.39889,-1.205983 2.75459,0.254497 5.84022,0.05441 1.71728,-0.424752 -4.19304,-0.603219 -8.38607,-1.206434 -12.5791,-1.809653 2.7391,-0.967479 7.61515,-0.800735 10.71197,0.369161 l 4.65367,-1.073923 c -0.65495,-1.001476 -2.80762,-0.840785 -4.04037,-1.393921 -5.54538,-0.279291 -11.13324,-0.247206 -16.694886,-0.407138 0.676135,-0.833219 2.898443,-0.119498 4.171066,-0.355938 6.23736,0.0028 12.47469,0.0061 18.71203,0.0092 -0.65817,-0.988408 -2.8214,-0.784769 -4.06018,-1.313312 -3.83252,0.139532 -0.16017,-4.065188 -1.59721,-6.342708 -0.66613,-2.923805 -2.5203,-4.05434 -1.74872,-0.840075 -0.21081,1.539525 0.98561,4.604616 -0.60708,4.62628 -7.5872,0.195187 -15.175351,0.416397 -22.745342,0.994837 0.658818,-0.985582 2.824219,-0.772658 4.06425,-1.295879 1.899611,-1.075691 -1.658821,-0.891495 -2.600226,-0.851968 -2.103642,-0.318457 1.689161,-0.596496 2.432168,-0.602608 2.759393,-0.112422 0.49868,-0.6859 -0.974334,-0.302505 l -7.9335,0.547138 c -0.06555,-0.937849 3.936927,-1.218171 2.374526,-1.752233 -1.287125,-0.08408 -3.292626,0.607593 -4.164398,0.07498 1.106503,-0.766857 2.660076,-1.245837 3.937719,-1.902491 -1.909196,0.238651 -3.818396,0.477299 -5.727591,0.715949 0.65882,-0.985582 2.824222,-0.772658 4.064252,-1.295879 1.674038,-0.851307 -2.054824,-0.09987 -2.815452,-0.04001 -2.259261,0.587023 -2.283142,-0.299872 -0.03592,-0.459936 5.68127,-1.071942 11.362548,-2.143877 17.04382,-3.215816 -3.20084,-1.681794 -8.160821,-0.860521 -12.001346,-0.534028 -3.39942,0.186036 -7.744138,1.7554 -10.551041,1.249976 7.631867,-2.224192 15.181917,-5.434911 23.268336,-5.369616 -3.156254,-0.866047 -7.944279,-0.04116 -11.694065,-0.01051 -2.667138,-0.200624 -9.315557,1.661023 -9.669329,0.953923 l 9.908213,-2.7333 c -0.674417,-0.785373 -2.891085,0.08558 -4.160467,-0.0608 -2.36222,-0.319847 4.015695,-1.384703 4.992513,-1.873129 4.147167,-1.136809 8.375831,-2.270474 12.708064,-2.258271 z m 40.54829,3.13158 c 2.53681,-0.03771 4.43294,1.250382 6.05991,3.024478 2.71593,2.235518 7.18551,3.166198 6.75024,7.81173 0.53787,5.472384 -3.93966,9.352047 -8.23875,11.7781 -2.29585,1.316215 1.82722,-3.38043 2.61568,-4.507778 3.7657,-2.663798 1.22464,-7.594219 2.56822,-10.384712 -9.5e-4,-0.71423 -3.90719,-0.773535 -0.9325,-1.469145 1.43649,-1.232605 -1.91392,-1.499161 -2.80519,-2.059043 -2.86165,-1.040602 -5.72331,-2.081203 -8.58494,-3.121805 0.6812,-0.655653 1.59855,-1.137837 2.56733,-1.071825 z m -72.565326,5.160564 c 3.482385,0.441398 2.685576,2.278809 -0.137739,1.627663 -1.595553,3.149044 -3.017737,7.263903 0.231739,9.875702 -1.702784,1.882626 -0.106775,1.574937 1.558134,1.221502 -2.050482,3.485273 5.125936,3.536021 7.07173,5.417945 2.635204,0.873522 7.342685,1.015359 2.626759,2.465349 -0.882768,0.128956 -3.999146,2.379911 -2.816041,0.546222 1.55684,-2.825932 -5.188263,-1.788658 -6.775971,-3.647072 -4.710265,-1.780342 -7.716577,-6.787419 -6.865961,-11.792364 -0.841489,-1.614466 2.36706,-4.320114 -0.400003,-3.729312 1.421853,-1.393205 3.554578,-1.991659 5.507353,-1.985638 z M 113.3129,64.43487 c 0.63864,2.143226 -1.97963,0.934697 -3.18834,1.176766 -3.22382,-0.09254 -6.44765,-0.185091 -9.67148,-0.277634 0.67554,-0.861694 2.89594,-0.241578 4.16746,-0.531616 2.92795,-0.105035 5.76672,-0.285632 8.69236,-0.367516 z m -2.41004,7.697152 c -0.35323,1.765422 -1.90894,1.494485 -3.3053,1.323921 l -7.860434,-0.604416 c 0.675784,-0.85543 2.896934,-0.214714 4.168894,-0.49296 2.33229,-0.07551 4.66456,-0.151033 6.99684,-0.226547 z M 86.134103,72.49349 c 3.373211,3.481527 9.435685,2.786393 14.007827,4.060428 10.76073,1.278375 21.77647,0.11391 32.1946,-2.709677 2.07977,-1.201471 7.07242,-2.52999 6.39254,1.524229 -5.03425,-1.18191 -9.82793,1.684469 -14.81002,2.061687 -10.27702,1.792329 -20.93753,2.504529 -31.098853,-0.363154 -2.469832,-1.057269 -8.641445,-1.119235 -8.995939,-2.552411 0.769949,-0.6737 1.539894,-1.347403 2.309845,-2.021102 z M 66.44551,74.999311 c 0.857954,0.0063 4.102169,1.778817 3.171446,0.461475 -0.487775,-0.917818 2.255084,1.244824 3.05862,1.558288 1.264404,0.758641 2.528812,1.517285 3.793218,2.27593 -4.839989,-0.974432 3.736344,2.685821 5.14805,2.766524 6.120558,1.729717 12.518238,1.996079 18.836236,2.245114 -0.674421,0.785376 -2.891085,-0.08558 -4.16047,0.06081 l -10.874456,-0.77676 c 1.789871,0.477297 3.579744,0.954598 5.369615,1.431897 -1.930187,1.170835 0.401451,0.692838 1.852352,1.04109 0.772531,0.184655 4.398709,0.188601 3.026548,0.748783 H 90.07182 c 2.267062,1.770197 -1.999011,1.535892 -0.586444,2.204107 l 24.314134,2.806138 c -0.67227,0.905671 -2.88191,0.430099 -4.14726,0.802914 l -19.222455,2.062277 c 3.191527,1.067125 7.998772,0.35608 11.795755,0.742368 2.71973,0.295711 9.45172,0.07272 9.85561,1.430612 -4.11467,0.707572 -8.22935,1.415141 -12.344034,2.122712 0.04522,1.5089 2.697614,0.809223 3.872294,1.36133 1.16995,0.16369 3.4715,0.49002 3.04391,1.17622 l -7.990124,1.0422 c 4.018044,2.3783 9.052054,1.70156 13.553994,1.92359 1.68666,-0.18097 6.80181,-0.004 2.28337,0.42598 -7.26626,0.42819 -14.749491,1.33118 -21.894509,-0.46529 -3.196536,-1.0544 1.139457,-1.23934 2.361037,-1.7095 2.267404,-0.48857 2.323855,-0.39527 0.474339,-1.13609 2.274171,-0.46023 0.990061,-1.12968 -0.759263,-1.10246 -3.088006,-0.386 -6.176015,-0.772005 -9.26402,-1.158006 0.676134,-0.833546 2.898447,-0.120913 4.171068,-0.357974 h 7.284112 c -0.513135,-3.295018 -8.685526,-1.071335 -7.159489,-2.863795 -2.211449,-1.829923 -7.011933,0.373339 -3.579742,-2.147845 -5.031009,-0.141411 -10.183435,-0.804581 -14.67695,-3.22177 0.641435,-0.619737 2.749708,0.795656 3.957024,0.961032 1.78254,0.642621 3.258641,1.138516 0.8354,-0.232591 -1.011828,-0.898587 -2.854816,-1.343409 -3.360527,-2.518313 1.343148,-0.05892 3.363138,0.617764 4.295692,0.112617 -1.785883,-1.356567 -6.393058,-3.805082 -5.982368,-5.314539 0.728375,0.125212 4.216044,1.836724 2.911081,0.79298 -1.243406,-1.036174 -2.486816,-2.072348 -3.730228,-3.108521 l 4.295695,1.073922 C 72.899893,79.00065 67.399616,79.119865 66.44551,74.999309 Z m 32.933645,0 c 0.753335,-0.07845 4.555195,0.01883 2.490195,0.27669 -0.83006,-0.09223 -1.66013,-0.184462 -2.490195,-0.27669 z"
       sodipodi:nodetypes="cccccccccccccccccccccccccscsccccccccccccccccccccccccccccccccccccccccccccccccccccccccccssccccccccccccccccccccccccccccccccccccccccccccccccccccccccccccccccccccccccccccccccccccccccc"
       inkscape:label="znak" /></g></svg>
